<?xml version="1.0" encoding="UTF-8"?>
<svg xmlns="http://www.w3.org/2000/svg"
     version="1.1"
     width="22.19741473mm"
     height="54.77364522mm"
     viewBox="0.00000000 0.00000000 62.92179596 155.26391099">

<g transform="scale(3.67920472)">   <defs>
      <style type="text/css"><![CDATA[
      .a {
        stroke: #000;
        stroke-linecap: round;
        stroke-linejoin: round;
        stroke-width: 0.01px;
      }
    ]]></style>
   </defs>
   <path class="a"
         d="M2.04563.0898c-.09691.04846-.3089.14537-.46638.21806a.66514.66514,0,0,0-.321.23622A1.04108,1.04108,0,0,1,.9251.87114a1.57138,1.57138,0,0,0-.424.46033.81858.81858,0,0,1-.212.28467c-.04846.01817-.07269.05451-.06057.0848.01817.03028-.01817.09691-.09086.15748a1.17294,1.17294,0,0,0-.006,1.07207c.06662.06663.19988.22411.30284.33919a1.76561,1.76561,0,0,0,1.066.55723.45552.45552,0,0,1,.33919.103c.19987.14537.41792.18777,1.08418.212a3.22554,3.22554,0,0,1,.58752.05451.50453.50453,0,0,0,.37553-.07873c.29073-.14537.50878-.15748.636-.02423.08479.08479.08479.109,0,.27862a1.42774,1.42774,0,0,1-.27256.33918,2.56794,2.56794,0,0,0-.39976.48456,3.5023,3.5023,0,0,1-.33919.46638,6.10073,6.10073,0,0,0-.64809.89036v.07875a.89014.89014,0,0,1-.30284.45427.24316.24316,0,0,0-.12114.18777.71414.71414,0,0,1-.218.34524,1.953,1.953,0,0,0-.33919.49667,2.02047,2.02047,0,0,1-.19382.36341.73011.73011,0,0,0-.08479.34524,1.07511,1.07511,0,0,1-.103.4361c-.0848.17565-.0848.20594.0424.46638a.71582.71582,0,0,0,.46638.4361,1.373,1.373,0,0,0,.92671.12114.1773.1773,0,0,1,.19988.04845c.08479.09086.08479.11509-.0424.315a1.53836,1.53836,0,0,0-.26045.58147,1.6092,1.6092,0,0,1-.38764.52695,1.60405,1.60405,0,0,0-.4361.61175c-.07268.23016-.11508.27256-.35736.3513a2.56894,2.56894,0,0,0-.3513.13931.94414.94414,0,0,0-.23016.59963c-.01817.19988,0,.24228.15748.321a1.14351,1.14351,0,0,0,1.08419-.30285,10.51334,10.51334,0,0,1,1.3204-.93276.90343.90343,0,0,0,.34525-.29679c.11508-.22411.25439-.33313.65414-.51484.315-.13931.35736-.14536.44216-.06057s.08479.109-.02423.28468a3.48828,3.48828,0,0,0-.22411.38158.71519.71519,0,0,1-.27256.26651.68973.68973,0,0,0-.29073.27256c-.06663.11508-.15142.20593-.18776.20593a.87516.87516,0,0,0-.24228.29073,1.85049,1.85049,0,0,1-.35736.424.35488.35488,0,0,0-.1817.30284,2.85142,2.85142,0,0,1-.06663.58752.59115.59115,0,0,0,.48455.76317,2.40966,2.40966,0,0,1,.49061.09691c.26045.07874.29679.07874.48455-.03634a.86325.86325,0,0,1,.37553-.12719,1.77671,1.77671,0,0,0,.53907-.18777c.38158-.19382.56329-.19987.73894-.01817.1272.12114.06663.22411-.35736.62992a2.66886,2.66886,0,0,0-.50878.69049,3.445,3.445,0,0,1-.51483.73289c-.29074.3089-.33919.39369-.33919.59357a.65615.65615,0,0,0,.12114.38764.69331.69331,0,0,1,.12113.44822c0,.44821.0848.56935.5209.75711.28467.12114.39976.20593.44821.33313.0424.09691.09691.17565.1272.17565.07874,0,.24833.28468.2665.44215a4.08691,4.08691,0,0,0,.2665.62387,2.8519,2.8519,0,0,1,.24834.58752,1.28154,1.28154,0,0,0,.14536.3513c.11508.19988.13325.28467.09086.37553a.62454.62454,0,0,0,.01211.424,4.03111,4.03111,0,0,1,.02419,1.31428.25594.25594,0,0,0,.03028.212,1.06933,1.06933,0,0,1,.09086.4361,13.07465,13.07465,0,0,0,.12719,1.72622,3.87734,3.87734,0,0,1,.109.99939,2.241,2.241,0,0,0,.12113.6178.51052.51052,0,0,1,.01212.48456.40478.40478,0,0,0,.04845.24833.808.808,0,0,1,.02423.49061.71627.71627,0,0,0,.00606.40581.20457.20457,0,0,1-.03029.24228c-.07268.103-.07874.212-.0424.50878a2.70145,2.70145,0,0,1,.03029.47244c-.00606.04845-.01211.23622-.01817.40581,0,.2665-.02423.34524-.16354.47244-.15142.14537-.16353.18776-.16353.66019,0,.44217-.01818.54512-.15143.75107a1.24321,1.24321,0,0,1-.33313.35129,2.37065,2.37065,0,0,0-.39975.321,7.727,7.727,0,0,1-.59964.52089c-.212.16354-.7026.61781-1.09024.99939-.3937.38159-.89642.8722-1.12659,1.09024-.3513.32708-.43.44216-.48455.67838-.06057.2665-.05451.29679.09085.46638.22411.25439.49061.29679.66021.09691a.41638.41638,0,0,1,.218-.15142,2.114,2.114,0,0,0,.636-.65415.42073.42073,0,0,1,.19988-.16959,1.9673,1.9673,0,0,0,.48455-.41187c.19382-.19987.39976-.41793.45427-.48455a7.35147,7.35147,0,0,1,.8722-.76316c.12113,0,.24833.212.218.38158a1.34447,1.34447,0,0,0,.07874.47243c.109.29073.11509.56936.01212.67233-.09691.0969-.00606.53905.15142.76921a.45891.45891,0,0,1,.109.3392c-.03029.109-.109,1.57479-.09692,1.78678a2.67847,2.67847,0,0,0,.14537.86614.68785.68785,0,0,1,.07268.30284c-.01817.03635.06663.17566.18171.30891a.5948.5948,0,0,1,.212.51484.49217.49217,0,0,0,.22411.4906.6656.6656,0,0,0,.55118.218,1.36428,1.36428,0,0,0,.89642-.24833.64909.64909,0,0,1,.41793-.09085.627.627,0,0,0,.37552-.07269c.02423-.0424.12114-.29679.212-.56329a3.238,3.238,0,0,0,.14536-1.50211,7.51986,7.51986,0,0,1,.03029-1.07812,1.72421,1.72421,0,0,0-.27256-.963c-.18777-.35129-.19988-.3937-.1272-.59964a5.53314,5.53314,0,0,0,.212-1.12657v-.52692a1.4994,1.4994,0,0,0-.05451-.5209.18274.18274,0,0,1,.01817-.2241c.103-.13931,0-.57541-.212-.9146-.1272-.212-.13325-.23622-.0424-.3937s.09085-.17565-.00606-.20593a1.28054,1.28054,0,0,1-.30284-.45427c-.19988-.41187-.19988-.4361-.12114-.67837a4.95116,4.95116,0,0,1,1.13264-1.53846.788.788,0,0,0,.13931-.24833,2.25274,2.25274,0,0,1,.48455-.5209c.34525-.29678.41793-.38764.41793-.53906,0-.19988.1272-.34524.75106-.848a1.29778,1.29778,0,0,1,.48455-.29073c.19988,0,.35736-.13931.64809-.57541a1.50962,1.50962,0,0,1,.55118-.55723c.17565-.09691.29679-.20594.315-.29679.02423-.09085.13931-.19382.32707-.29073a.95572.95572,0,0,0,.40581-.35736c.109-.20594.47244-.44215.57541-.37553.03029.01817.12114-.00606.19382-.04845a2.11375,2.11375,0,0,1,.38159-.16354c.3513-.109.636-.33919.636-.51484a1.31715,1.31715,0,0,0-.09691-.3937.80905.80905,0,0,1-.06057-.38764c.02423-.109-.00605-.19382-.12719-.32707a.69536.69536,0,0,0-.73289-.27862.44849.44849,0,0,0-.424.24833,1.0441,1.0441,0,0,1-.36342.30891,3.41823,3.41823,0,0,0-1.169,1.0963,2.35911,2.35911,0,0,1-.4361.48455c-.3937.33313-.46638.3937-.5754.49667a3.25286,3.25286,0,0,0-.60569.79345,12.29185,12.29185,0,0,1-2.023,2.18655.71658.71658,0,0,0-.23017.3089c-.20593.62992-.55723.03634-.50878-.86008a5.107,5.107,0,0,1,.06663-.61781,5.6242,5.6242,0,0,0,.103-1.24166,7.83659,7.83659,0,0,1,.12719-1.39915.62578.62578,0,0,0-.0424-.36342,2.693,2.693,0,0,1-.103-.86613,5.82853,5.82853,0,0,0-.06057-.81769,3.07728,3.07728,0,0,1-.03634-.642,1.89175,1.89175,0,0,0-.0424-.58146,2.54464,2.54464,0,0,1-.20594-.854.56677.56677,0,0,0-.06057-.29073.65012.65012,0,0,1-.04845-.3513,6.0787,6.0787,0,0,0,.04845-.86008,4.34007,4.34007,0,0,1,.05452-.79346,2.3042,2.3042,0,0,0,.01211-.82979,6.91073,6.91073,0,0,0-.3089-1.02968,7.16147,7.16147,0,0,1-.26651-.84191,2.23681,2.23681,0,0,0-.2665-.54512,3.60719,3.60719,0,0,1-.33313-.69049,1.21707,1.21707,0,0,0-.18776-.38764c-.1272-.14537-.15143-.28467-.07269-.39976a.65934.65934,0,0,1,.43012-.20594.424.424,0,0,0,.25439-.1272.63939.63939,0,0,1,.4361-.1393,1.86181,1.86181,0,0,0,1.13264-.527,2.87318,2.87318,0,0,1,.48456-.35735c.38158-.19382.54512-.3937.54512-.65415a.67952.67952,0,0,0-.76923-.65415,1.382,1.382,0,0,0-.62386.40582c0,.07874-.33919.23622-.50273.23622a1.29755,1.29755,0,0,0-.41187.12113,1.36709,1.36709,0,0,1-.43609.12114,1.39072,1.39072,0,0,0-.3937.09086,1.8076,1.8076,0,0,1-.49667.11508c-.15142.01211-.36947.0424-.49061.06662-.16353.03029-.24227.01817-.315-.06057a.31714.31714,0,0,1-.103-.14536,3.04519,3.04519,0,0,1,.59357-.8298,1.86789,1.86789,0,0,0,.34525-.50272c.13325-.28468.212-.38159.32707-.40581.27256-.05452.33313-.11509.53906-.51484A.90807.90807,0,0,0,8.82929,9.478a.62861.62861,0,0,0-.70866-.642,1.23217,1.23217,0,0,0-.46032.06057.77559.77559,0,0,1-.30891.06662c-.18776,0-.39369-.15142-.33918-.24227a4.8799,4.8799,0,0,0,.15142-.49061,1.43368,1.43368,0,0,1,.26656-.59359c.103-.109.14537-.20594.12114-.2665-.03634-.103.13931-.43.36947-.69655.315-.36341.30285-1.16293-.01817-1.06-.23622.07268-.37552.16354-.41187.27256a.92147.92147,0,0,1-.33313.30285,2.21953,2.21953,0,0,0-.533.50878,2.48823,2.48823,0,0,1-.44216.47849c-.109.0848-.28467.212-.38764.28468a1.35687,1.35687,0,0,0-.29679.29073,1.6185,1.6185,0,0,1-.71472.48455.15748.15748,0,0,0-.12713.05456,3.14921,3.14921,0,0,1-1.0539.40581c-.1696-.05451-.4361-.33313-.4361-.46033A.79814.79814,0,0,1,3.41453,7.879a1.18225,1.18225,0,0,0,.26651-.3513c.06662-.33919.15748-.4785.73288-1.18716A4.69914,4.69914,0,0,0,4.83185,5.753.91184.91184,0,0,1,5.056,5.46228a.81865.81865,0,0,0,.19987-.30285,2.18858,2.18858,0,0,1,.3513-.48455c.43-.45427.44822-.47244.48456-.62992a1.719,1.719,0,0,1,.18776-.35736,3.357,3.357,0,0,0,.25435-.39974.66953.66953,0,0,1,.26045-.26045c.2241-.09085.50878-.51484.46638-.69049-.03634-.15142.03634-.27256.27256-.41187a.36533.36533,0,0,0,.16354-.1817.74059.74059,0,0,1,.0424-.19988c.02422-.09086-.03029-.18171-.218-.36342A.67039.67039,0,0,0,6.95784.93172,1.11554,1.11554,0,0,0,6.552.97412c-.07268.03634-.16959.00606-.315-.09085C6.10376.7924,6.00079.75606,5.94628.7924A1.85726,1.85726,0,0,1,4.8742.66521,1.26192,1.26192,0,0,0,4.26246.51986,1.151,1.151,0,0,1,3.469.27151,3.72539,3.72539,0,0,0,2.36665.005,1.05591,1.05591,0,0,0,2.04563.0898Z"/>

</g>
</svg>
