<?xml version="1.0" encoding="UTF-8"?>
<svg xmlns="http://www.w3.org/2000/svg"
     version="1.1"
     width="60.13657779mm"
     height="31.34195582mm"
     viewBox="0.00000000 0.00000000 170.46584723 88.84335741">

<g transform="scale(3.14396388)">   <defs>
      <style type="text/css"><![CDATA[
      .a {
        fill: #000;
        stroke: #000;
        stroke-width: 0.25px;
      }
    ]]></style>
   </defs>
   <path class="a"
         d="M6.04369.125A141.70033,141.70033,0,0,1,24.76141,1.3433c3.5079.4736,6.9776,1.3862,10.4825,2.14788a19.642,19.642,0,0,1,4.8213,1.41512,7.69649,7.69649,0,0,0,3.7832,1.227c.1767-.7974.3369-1.55812.4668-2.355,2.4931-.393,8.4628,1.8286,9.4794,4.35888.9932,2.47272-.665,2.29882-2.2216,1.59912a27.83611,27.83611,0,0,0-5.3184-1.6054c-4.5176-.9663-8.7588-1.2569-13.2275-2.1626-4.0743-.8257-7.8643-1.9082-12.044-2.2202a77.89829,77.89829,0,0,0-9.5029-.2007C8.55049,3.6909,4.75749,4.8491,5.47039.5586a5.56139,5.56139,0,0,1,.5733-.0308"/>
   <path class="a"
         d="M48.51341,5.9624c5.7178,1.3052,2.7764,8.8389,1.8613,12.4331-.8252,3.2359-2.4746,10.5108-7.2597,9.6709-.8379-1.3989.6132-1.3057,1.3232-2.0268,1.1387-1.1553,1.1055-1.61042,1.2471-3.3365.1347-1.6342.2099-3.208.2099-4.8554,0-1.8233-.3466-2.4502,1.208-3.0298,1.2002-.4473,2.7051.6909,2.6163-1.3638-.0831-1.9712-2.043-.5825-2.9649-1.7065-.8564-1.0415-.6445-6.7383,1.7588-5.3833"/>
   <path class="a"
         d="M4.23209,1.5337c4.377-.2158,1.7803,6.52148,1.8116,8.8516.0634,4.79588,6.9912,6.1362,10.873,7.7041,1.4346.5786,3.49612,1.6181,2.2598,3.0136-1.3916,1.5669-5.0362.2188-6.6748-.0385-2.5781-.4058-11.39748-1.84432-12.3028-5.0289-.4726-1.6503,1.44832-2.6928,2.1768-3.9282a14.76682,14.76682,0,0,0,1.4648-4.1328,9.81175,9.81175,0,0,0,.30672-3.9853c-.21682-.9019-1.96292-2.93312.89158-2.2539"/>
   <path class="a"
         d="M30.76931,13.3799c-2.5118.4346-6.2081-.7139-8.6114-1.229-2.3017-.49372-5.25092.8867-7.29292.0161,1.4287-4.7666,4.3584-5.2856,8.62982-4.2197a14.433,14.433,0,0,1,4.9375,2.063C28.654,10.1709,31.46261,13.2603,30.76931,13.3799Z"/>

</g>
</svg>
