<?xml version="1.0" encoding="UTF-8"?>
<svg xmlns="http://www.w3.org/2000/svg"
     version="1.1"
     width="29.73242302mm"
     height="48.58393053mm"
     viewBox="0.00000000 0.00000000 84.28089893 137.71823436">

<g transform="scale(2.21008133)">   <defs>
      <style type="text/css"><![CDATA[
      .a {
        fill: #000;
        stroke: #000;
        stroke-width: 0.25px;
      }
    ]]></style>
   </defs>
   <path class="a"
         d="M33.66388,3.01538A4.0709,4.0709,0,0,1,37.619,5.56667c.8418,1.86281.0615,4.36771.0615,6.36471a127.142,127.142,0,0,1-1.1484,12.855,90.20515,90.20515,0,0,0-.3018,9.0234,13.19575,13.19575,0,0,0,0,1.8116c.0801.5449.5352,1.2031.5733,1.54.1513,1.3242-1.1075,2.544-1.1455,3.9942-.0362,1.4199.2109,2.83.2109,4.247,0,.8653.0264,1.7354,0,2.5996-.043,1.4473-1.1953,1.5498-1.8721,2.5967a5.49278,5.49278,0,0,0-.333,3.5557c.4385,1.2002,1.1533,2.2383.7598,3.8086-.333,1.3174-1.5264,2.10249-2.4199,3.0517-1.2051,1.2832-1.7881,1.8946-2.2979-.1836a23.93269,23.93269,0,0,1-.5703-4.3691,58.864,58.864,0,0,1,.1504-6.47851c.123-2.15429.2266-4.249.458-6.36139a7.94551,7.94551,0,0,1,.6865-2.6699,3.51528,3.51528,0,0,0,.4063-1.80471c-.0049-2.79-.1924-5.49409-.1924-8.26849,0-3.7598.6992-7.1861,1.0547-10.8106.3135-3.2246-.1485-6.4008-.1485-9.664,0-1.5191.2549-7.0523,2.2647-7.2378.1006-.0005.2021-.0005.3017-.0005"/>
   <path class="a"
         d="M6.79178.29467a19.98945,19.98945,0,0,1,4.0567-.125,3.57372,3.57372,0,0,0,.6826,1.34471c.9815.57229,1.6445-.021,2.3975-.3061a3.82663,3.82663,0,0,1,2.1972-.18561c1.5215.25591,2.8975,1.11621,4.4053,1.355,2.75.43611,5.585.04491,8.2949.83111a5.563,5.563,0,0,1,3.1114,2.1826c1.4697,1.7656.9199,1.7436-1.1368,1.8472-1.54.07709-3.1699.2392-4.6963.309-3.373.1534-6.5214-.4687-9.7978-.6074-2.6934-.1147-5.998.6118-8.6074.0073-1.8184-.4209-4.5899-3.2236-1.5469-3.9692,1.4932-.3662.7217-.0405,1.5781,1.0859.5967.7847,2.6514,1.9312,2.6865.1587.0284-1.4931-1.623-.8545-2.415-1.3593-1.0351-.6622-.8447-1.7168-2.5381-1.483-.5713.0792-.6982,1.1617-1.6963.9917C3.78888,1.10178,5.72058.46558,6.79178.29467Z"/>
   <path class="a"
         d="M1.05748,5.43048c1.373-.1456,1.6982-1.7325,3.1699-1.8116A2.6617,2.6617,0,0,1,6.83188,5.427a4.40025,4.40025,0,0,1-.2217,3.6353c-.2549.582-.7246.7471-.7549,1.4595-.0586,1.3403.3516.4658.9502,1.3593a2.54507,2.54507,0,0,1,.0215,3.2437c-.2285.3091-1.1348.7114-1.21,1.0537-.1699.7725.8184.5688.7266,1.3286-.1328,1.1138-1.6396,1.0488-1.2461,2.7173.3496,1.48929,1.5899,1.8789,1.3945,3.5894-.1513,1.3291-1.0332,1.8725-1.5468,3.0478a9.45169,9.45169,0,0,0-.6817,3.4775c.0567,1.209.6573,2.1934.7188,3.4639.0801,1.6533-.8281,2.3731-1.3281,3.8145-.754,2.1679.8632,4.8193,1.5214,6.8437a24.31832,24.31832,0,0,1,.7168,3.8076c.1446.9434.6748,2.9004.2715,3.8067-.5537,1.247-3.1064,2.1943-4.3652,1.8154-1.3809-.4141-1.1914-1.5381-1.1934-2.8721a6.77191,6.77191,0,0,1,.0254-1.8183c.2188-.6807,1.0235-.5186.8867-1.51081-.0683-.5-.7519-.75679-.9531-1.19239a6.864,6.864,0,0,1-.4121-2.1171A30.14193,30.14193,0,0,1,.454,40.15067c.0205-.41509-.21-1.46779-.0069-1.81159.4239-.7177.8906-.2197,1.5156-.60441a2.2472,2.2472,0,0,0,.3145-3.20709c-1.208-1.3476-2.1846-.6035-1.9746-2.9814.1416-1.5889.8945-2.8701.9062-4.5293.0039-.6905-.1367-1.3335.295-1.8189.4716-.5307,1.4668.209,1.3437-1.0258-3.7246.6787.1914-6.3067-1.6152-6.9834a55.13819,55.13819,0,0,0-.3018-6.0372c-.3428-2.1235.1416-3.768.2783-5.872"/>
   <path class="a"
         d="M3.17078,48.90558a49.61846,49.61846,0,0,1,8.1494,2.8652c1.2334.50389,6.5097,2.0371,4.2314,3.4424-.8721.539-4.125.58-5.1611.4853a27.62437,27.62437,0,0,1-4.8047-1.207c-1.1787-.3291-3.1318-.4219-3.4736-1.8115a5.6041,5.6041,0,0,1,1.2099-3.4727"/>
   <path class="a"
         d="M19.62488,16.58228c.1582,1.5186-.3702,3.272-.4434,4.8462-.0703,1.46-.1318,3.0366-.2783,4.5059-.2686,2.7319-.7383,4.9907.0801,7.71629.5195,1.72361.0664,2.10351-.4551,3.65721-.4932,1.46779.3467,2.4023.2002,3.8994-.2207,2.2432-1.709,4.0742-2.042,6.2783-.375,2.4912.9668,4.9766.0351,7.4248a4.268,4.268,0,0,1-4.0166,2.8789,46.457,46.457,0,0,1-.4765-6.6191c0-2.0518.623-3.85551.3066-5.8906-.4316-2.7754.0137-5.2168.1465-7.9785.1035-2.1543-.1016-4.3389.0254-6.48341,2.2978-.79109.1777-5.52839.2734-7.12159.0664-1.0835.5313-2.0449.6397-3.1665.2168-2.2212.0302-4.458,2.3867-5.5352C17.53788,14.29318,19.42468,14.65848,19.62488,16.58228Z"/>

</g>
</svg>
