<?xml version="1.0" encoding="UTF-8"?>
<svg xmlns="http://www.w3.org/2000/svg"
     version="1.1"
     width="27.03239937mm"
     height="43.69544933mm"
     viewBox="0.00000000 0.00000000 76.62731394 123.86110819">

<g transform="scale(4.24914127)">   <defs>
      <style type="text/css"><![CDATA[
      .a {
        stroke: #000;
        stroke-miterlimit: 10;
        stroke-width: 0.15px;
      }
    ]]></style>
   </defs>
   <path class="a"
         d="M11.16918.10719A8.7249,8.7249,0,0,0,7.41173,2.06551a26.06065,26.06065,0,0,0-2.95065,3.0942c-.25793.302-.53686.84675-.345,1.20664a.77088.77088,0,0,0,.51642.3305C5.379,6.86177,5.77187,6.112,7.33309,5.21428,8.4934,4.54707,8.61056,4.91179,9.44262,4.1917c.25491-.22061.56906-.52777.86883-.37354.221.11368.17139.59711.12891.914C10.165,6.78627,9.26989,7.76775,9.16378,9.5406A2.92209,2.92209,0,0,0,9.32,10.94685a3.7603,3.7603,0,0,0,1.90624,1.6875,8.37628,8.37628,0,0,1,3.28126,3.59376c.90005,2.03973.43469,4.53384,1.1875,4.875a.75594.75594,0,0,0,.40616.06252c.3562-.0635.55847-.45062.73153-.79528a9.20412,9.20412,0,0,0,1.08106-2.64224A6.23065,6.23065,0,0,0,17.945,16.5406a8.36228,8.36228,0,0,0-1.3125-4.53125,8.25077,8.25077,0,0,0-.84375-1.03124c-.66541-.7139-1.01508-.88621-2.10092-1.87418-.91419-.83179-1.173-1.15546-1.20658-1.59473a2.2714,2.2714,0,0,1,.17817-.91513,20.90741,20.90741,0,0,0,.8554-2.57519,3.9837,3.9837,0,0,0-.23471-2.65177A2.05236,2.05236,0,0,0,11.16918.10719Z"/>
   <path class="a"
         d="M7.6657,25.51924c-.19223.1055-.38547.20346-.38547.20346s-.64856.32935-1.2727.5679a11.01994,11.01994,0,0,1-2.1875.53125c-2.92279.44068-3.747.464-3.745.52356.00449.13657,4.35163.45423,5.62-.52356a2.65819,2.65819,0,0,1,1.25-.5c.1636-.01806.522-.05374.625.125.07953.13794-.0314.3371-.05408.37781a1.22153,1.22153,0,0,1-.82092.49719,57.09456,57.09456,0,0,0-5.4375,1.75,6.14417,6.14417,0,0,0,1.21874-.1875A24.9327,24.9327,0,0,0,6.62044,27.804,31.71705,31.71705,0,0,0,10.07,26.07185s4.78924-2.49725,5.65933-4.19043c.04535-.08825.16251-.32855.08264-.44039-.01593-.02231-.11349-.11405-.573.07254C14.41317,21.84892,9.88247,24.30272,7.6657,25.51924Z"/>

</g>
</svg>
