<?xml version="1.0" encoding="UTF-8"?>
<svg xmlns="http://www.w3.org/2000/svg"
     version="1.1"
     width="16.94782829mm"
     height="13.88168072mm"
     viewBox="0.00000000 0.00000000 48.04111644 39.34956795">

<g transform="scale(7.35375362)">   <defs>
      <style type="text/css"><![CDATA[
      .a {
        stroke: #000;
        stroke-miterlimit: 10;
        stroke-width: 0.15px;
      }
    ]]></style>
   </defs>
   <path class="a"
         d="M2.72725,2.612a1.2972,1.2972,0,0,1-.35.73774c-.11284.09307-.23056.13706-.95445.27194-.69989.1304-.77131.12309-.87889.22806C.33664,4.05193.4794,4.19844.18971,4.683a.45645.45645,0,0,0-.10417.35417.34825.34825,0,0,0,.1875.1875c.41356.20672,1.27093-.26057,2.44937-.53826a3.879,3.879,0,0,0,.884-.29508,3.79439,3.79439,0,0,0,.59452-.36165A7.08828,7.08828,0,0,0,5.59953,2.68815c.439-.59154,1.05328-1.41939.79851-2.15094a.67777.67777,0,0,0-.25-.375C5.60742-.19218,4.53035.631,4.18971.89137A3.5607,3.5607,0,0,0,2.72725,2.612Z"/>

</g>
</svg>
