<?xml version="1.0" encoding="UTF-8"?>
<svg xmlns="http://www.w3.org/2000/svg"
     version="1.1"
     width="41.84994117mm"
     height="20.70584113mm"
     viewBox="0.00000000 0.00000000 118.62969034 58.69375200">

<g transform="scale(5.77949253)">   <defs>
      <style type="text/css"><![CDATA[
      .a {
        stroke: #000;
        stroke-linecap: round;
        stroke-linejoin: round;
        stroke-width: 0.01px;
      }
    ]]></style>
   </defs>
   <path class="a"
         d="M17.69723.10182a1.83291,1.83291,0,0,1-.527.33313A1.82056,1.82056,0,0,0,15.862,2.28837c-.0424.52089-.03634.6178.06663.77528.06057.09691.16959.28467.23622.41187a.87536.87536,0,0,0,.44215.38158.764.764,0,0,0,.88431-.01211c.50272-.2665.73289-.12114.745.46638a.67924.67924,0,0,1-.11508.46639,1.32543,1.32543,0,0,0-.16354.49666c-.02423.18171-.04845.38764-.05451.45427-.01211.06663-.07268.3089-.14537.54512-.11508.3937-.2241.80557-.29073,1.09025a2.36835,2.36835,0,0,1-.93882.81768,4.975,4.975,0,0,1-.65415.12114A2.60583,2.60583,0,0,0,15.329,8.418a.24473.24473,0,0,1-.2241-.00606,2.058,2.058,0,0,0-.64809-.06057c-.46638.00606-.55118-.01211-.7026-.13325-.29679-.24228-.4785-.33313-.65415-.32707a1.82775,1.82775,0,0,1-.46638-.09691.78915.78915,0,0,0-.39976-.06663.60583.60583,0,0,1-.32707-.06057,1.31233,1.31233,0,0,0-.38764-.09085,1.4645,1.4645,0,0,1-.47244-.15748c-.16354-.0848-.55724-.24834-.86614-.36342a4.00869,4.00869,0,0,0-1.76862-.212c-.04845,0-.33313-.01211-.636-.03028-.29679-.01212-.62387-.02423-.72683-.01817-.09691,0-.22411.00605-.27256.00605a6.73849,6.73849,0,0,0-1.484.04846c-.19988.03634-.44215.07874-.54512.0848a2.66153,2.66153,0,0,0-.51484.14536c-.29679.12114-.33918.12114-.46638.03634a.33771.33771,0,0,0-.27862-.04845,2.05142,2.05142,0,0,1-.49666.06057,3.37652,3.37652,0,0,0-1.593.424,1.672,1.672,0,0,1-.45427.15748c-.44811.0121-.93266.30889-.93872.5754,0,.1817.09691.41187.15142.35735.01817-.01817.0848-.00605.14537.03029A.2072.2072,0,0,0,.55012,8.636a.65227.65227,0,0,1,.29073-.09086.87434.87434,0,0,0,.29679-.08479A.45483.45483,0,0,1,1.47683,8.424.5674.5674,0,0,0,1.76756,8.418a1.96241,1.96241,0,0,1,.44821-.109,2.98891,2.98891,0,0,0,.96911-.26044A2.80861,2.80861,0,0,1,4.29935,7.8547a2.23466,2.23466,0,0,0,.59358-.09086.25409.25409,0,0,1,.23622-.01817,9.46871,9.46871,0,0,0,1.75044.16354,1.6441,1.6441,0,0,1,.44821.09085,1.81869,1.81869,0,0,0,.59358.09085,2.95369,2.95369,0,0,1,.72077.12114.80711.80711,0,0,0,.39976.06663.44391.44391,0,0,1,.34524.103,7.93087,7.93087,0,0,0,1.811.79951c.848.23016,1.51423.38764,1.78679.424a3.02777,3.02777,0,0,1,.97516.33919.2174.2174,0,0,0,.16354.05451.54449.54449,0,0,1,.25439.07874,6.64154,6.64154,0,0,0,1.87764.01212,1.20187,1.20187,0,0,0,.40581-.24834,3.82647,3.82647,0,0,1,.5633-.3937,1.04835,1.04835,0,0,0,.43-.38158,1.20132,1.20132,0,0,1,.67837-.55118.89554.89554,0,0,0,.424-.33919,2.43343,2.43343,0,0,1,.3513-.45427,6.29886,6.29886,0,0,0,.62991-1.03573c.33313-.6602.3937-.82374.3937-1.10841a1.18,1.18,0,0,1,.103-.48456,1.99641,1.99641,0,0,0,.103-1.03573c-.03634-.07268-.01817-.15142.07268-.26044a.47929.47929,0,0,0,.09691-.41793,3.4163,3.4163,0,0,0-.33919-1.15081.80417.80417,0,0,1-.12719-.30285,2.341,2.341,0,0,0-.27256-.533,3.07609,3.07609,0,0,1-.27256-.49666,1.5401,1.5401,0,0,0-.57541-.61175.37416.37416,0,0,1-.212-.15748c-.05451-.103-.1272-.12114-.52091-.12114C17.83049.00491,17.72752.02308,17.69723.10182Z"/>

</g>
</svg>
