<?xml version="1.0" encoding="UTF-8"?>
<svg xmlns="http://www.w3.org/2000/svg"
     version="1.1"
     width="18.65688015mm"
     height="59.02171906mm"
     viewBox="0.00000000 0.00000000 52.88563302 167.30574789">

<g transform="scale(8.11694539)">   <defs>
      <style type="text/css"><![CDATA[
      .a {
        stroke: #000;
        stroke-miterlimit: 10;
        stroke-width: 0.15px;
      }
    ]]></style>
   </defs>
   <path class="a"
         d="M2.68452,4.41913a5.60035,5.60035,0,0,1,.125-1.31249A12.71233,12.71233,0,0,1,3.52827.45038.802.802,0,0,1,4.122.07538a.64628.64628,0,0,1,.4375.25,9.95078,9.95078,0,0,1,.375,2.21875c.15063.84259.45642,2.06253.53125,2.96875a10.17916,10.17916,0,0,0,.1875,1.34376,24.69365,24.69365,0,0,1,.78125,3.53124,8.267,8.267,0,0,1-.15625,1.875,9.47887,9.47887,0,0,1-.84375,2.75c-.72461,1.45163-2.0675,3.17886-2.03125,3.6875.02673.37561.23071.53958.15625.90626a1.20186,1.20186,0,0,1-.53125.71874,1.38882,1.38882,0,0,1-1,.1875c-.37061-.06845-.35632-.22592-.90625-.46875-.60083-.26532-.85449-.18188-1-.43749a1.81509,1.81509,0,0,1,.15625-1.15626c.20837-.30112.49109-.34937.78125-.5.09131-.04739,1.62683-1.76385,2.03125-2.25a5.73846,5.73846,0,0,0,.75-.96874,3.50528,3.50528,0,0,0,.21875-1.625,9.37527,9.37527,0,0,0-.25-1.78126,40.57,40.57,0,0,1-.875-4.34374,7.39789,7.39789,0,0,0,.03125-1.25C2.89094,5.07831,2.72871,5.01813,2.68452,4.41913Z"/>

</g>
</svg>
