<?xml version="1.0" encoding="UTF-8"?>
<svg xmlns="http://www.w3.org/2000/svg"
     version="1.1"
     width="41.84860426mm"
     height="36.09232383mm"
     viewBox="0.00000000 0.00000000 118.62589309 102.30894843">

<g transform="scale(4.29672568)">   <defs>
      <style type="text/css"><![CDATA[
      .a {
        stroke: #000;
        stroke-width: 0.25px;
      }
    ]]></style>
   </defs>
   <path class="a"
         d="M20.31487,13.55737a21.64919,21.64919,0,0,1-.75-3.7666,3.98825,3.98825,0,0,0-.4013-1.5366,2.67356,2.67356,0,0,1-.4239-1.4786c.0157-.624.0254-1.2563.0254-1.8823a14.02367,14.02367,0,0,1,.07822-1.6816c.05268-.4531.20108-1.2896.76948-1.3003a2.84372,2.84372,0,0,1,1.8047.9844,4.5308,4.5308,0,0,1,.4512,2.3359c.0683.8823.2119,1.75979.2128,2.646a9.14728,9.14728,0,0,0,.0743,2.3061c.1757.6714.5351,1.2793.7197,1.95069a2.69051,2.69051,0,0,1,.0976,1.84961,1.86315,1.86315,0,0,1-1.5127.6382C20.772,14.62477,20.51507,14.14817,20.31487,13.55737Z"/>
   <path class="a"
         d="M10.45747,3.38007a5.31237,5.31237,0,0,1,.417-1.9453c.1641-.2964.5205-1.0351.8975-1.0049.206.0162.372.1871.56832.2359a2.50743,2.50743,0,0,0,.41018.01169c.7344.07621.9394.793.8516,1.43951-.1465,1.08149-.751,2.0459-.9883,3.1084a25.51416,25.51416,0,0,0-.3604,3.6108,24.39552,24.39552,0,0,0-.0732,4.1284,9.37844,9.37844,0,0,1,.0439,3.9102c-.4726,1.3852-1.6191.9331-2.2041-.1172-.7431-1.3345-.459-2.6607-.1328-4.06111a17.19613,17.19613,0,0,0,.1699-5.08489A23.182,23.182,0,0,1,10.45747,3.38007Z"/>
   <path class="a"
         d="M2.86177.83367c.083-.2114.39752-.5087.4229-.7084.3642.0009.60062.3491.93262.4267.44238.103.91008-.0342,1.331.18749.62408.32811.56738,1.26271.51858,1.87311a23.13735,23.13735,0,0,1-.3389,2.3442,22.18688,22.18688,0,0,0-.4131,2.3125c-.05658.8057-.0771,1.6084-.1425,2.415-.0694.8286-.12208,1.6983-.1094,2.5284a25.54725,25.54725,0,0,0,.2695,4.7885.8501.8501,0,0,1-.3887,1.0425c-.2949.2359-.4834.8032-.8896.5757-.2793-.1558-.37788-.4634-.6113-.6626a1.939,1.939,0,0,0-.8867-.3164c-.7237-.1665-.6553-.8091-.6114-1.4678.0479-.7168-.0097-1.4248-.0107-2.1416-.002-1.0879-.084-2.1846-.0811-3.2554.0039-1.4487-.1484-2.97311.002-4.41211.0771-.74069.1162-1.45939.2412-2.19669.1094-.649.2783-1.3086.4316-1.9507A10.83924,10.83924,0,0,1,2.86177.83367Z"/>
   <path class="a"
         d="M11.29737,19.74c.1103.0034.2226.0078.33392.0156a22.42935,22.42935,0,0,0,4.69728-.1323,30.84926,30.84926,0,0,1,4.332-.1211c.5342-.0049,1.0635-.1572,1.6036-.19771.7002-.05379,1.3974-.13969,2.0976-.20609,1.086-.1035,3.85352-.0898,2.93952,1.7764-.70612,1.4414-2.62892,1.8593-4.06842,2.0039-1.9844.1992-3.9892.19279-5.9805.2592-2.1347.0704-4.2666.2413-6.4043.2789-1.1777.021-2.3544.041-3.5322.1093a29.8222,29.8222,0,0,1-3.5742.1392,3.96116,3.96116,0,0,1-2.8418-1.209c-.4258-.48781-.97558-1.4189-.7012-2.1001.4073-1.0171,1.9649-.4136,2.7159-.3022a15.08012,15.08012,0,0,0,2.5273-.0186c.9297-.02291,1.8603-.061,2.7881-.1196C9.26029,19.85037,10.27777,19.71267,11.29737,19.74Z"/>

</g>
</svg>
