<?xml version="1.0" encoding="UTF-8"?>
<svg xmlns="http://www.w3.org/2000/svg"
     version="1.1"
     width="34.16404282mm"
     height="41.72695395mm"
     viewBox="0.00000000 0.00000000 96.84297446 118.28113879">

<g transform="scale(7.09140369)">   <defs>
      <style type="text/css"><![CDATA[
      .a {
        stroke: #000;
        stroke-miterlimit: 10;
        stroke-width: 0.15px;
      }
    ]]></style>
   </defs>
   <path class="a"
         d="M6.53341,1.65233A2.71009,2.71009,0,0,1,6.97227.91749,1.77926,1.77926,0,0,1,7.77221.48558,13.766,13.766,0,0,1,11.69442.08306c.80151.02333.99812.06354,1.18749.21875a2.03561,2.03561,0,0,1,.32517,2.14832c-.26916.71251-.73126.79248-1.23141,1.91418a1.67834,1.67834,0,0,0-.20047.79914,1.9821,1.9821,0,0,0,.70047,1.26336,5.41135,5.41135,0,0,1,1.105,3.43752c.05272,2.50479-2.82632,4.40036-3.74324,5.00406a10.9492,10.9492,0,0,1-5.1597,1.6392,5.51884,5.51884,0,0,1-3.63916-.46815,1.14043,1.14043,0,0,1-.436-.42407,1.15271,1.15271,0,0,1-.09179-.68158c.13964-1.06992-.70293-2.28082-.34763-2.632.36194-.35771,1.42573.71151,3.3125,1.28125.646.19506,3.33386.919,5.40625-.4375a3.0252,3.0252,0,0,0,1.4993-1.91358,3.45439,3.45439,0,0,0-.9993-2.52392,16.65657,16.65657,0,0,1-1.78125-1.875,1.10866,1.10866,0,0,1-.2132-.63243,1.12745,1.12745,0,0,1,.24445-.64882c.68-.93424,1.782-1.21063,1.745-1.61851-.03035-.33472-.80754-.53562-1.05751-.60024a5.40349,5.40349,0,0,0-1.05983-.102,8.47341,8.47341,0,0,1-1.22585-.0763c-.43574-.07872-.74173-.134-.77682-.29049C5.19645,2.5946,6.04249,2.47894,6.53341,1.65233Z"/>

</g>
</svg>
