<?xml version="1.0" encoding="UTF-8"?>
<svg xmlns="http://www.w3.org/2000/svg"
     version="1.1"
     width="63.75055117mm"
     height="39.52554590mm"
     viewBox="0.00000000 0.00000000 180.71022108 112.04090671">

<g transform="scale(4.28949437)">   <defs>
      <style type="text/css"><![CDATA[
      .a {
        stroke: #000;
        stroke-linecap: round;
        stroke-linejoin: round;
        stroke-width: 0.01px;
      }
    ]]></style>
   </defs>
   <path class="a"
         d="M21.73114.02143a1.99867,1.99867,0,0,1-.55724.11508,2.65066,2.65066,0,0,0-.38764.0848.47859.47859,0,0,1-.30285.01212,1.0335,1.0335,0,0,0-.73288.07268c-.14537.09691-.36342.04846-.36342-.07874,0-.09691-.11508-.07268-.30284.07269a1.13375,1.13375,0,0,1-.80557.15748A.74313.74313,0,0,0,17.89711.506a3.06146,3.06146,0,0,1-.9267.14537,3.84255,3.84255,0,0,0-.533.09085,3.61931,3.61931,0,0,1-.53907.09086.44661.44661,0,0,0-.2665.12113.23907.23907,0,0,1-.20594.0848.42524.42524,0,0,0-.26044.05451.4441.4441,0,0,1-.3513.03634.64308.64308,0,0,0-.59358.12114.88679.88679,0,0,1-.45427.103,2.35988,2.35988,0,0,0-1.06.23622.65791.65791,0,0,1-.3089.09085,3.57033,3.57033,0,0,0-1.14476.33919,3.24638,3.24638,0,0,1-.67837.20593.68031.68031,0,0,0-.3089.09692c-.07874.05451-.16354.08479-.18777.06662-.01817-.02423-.09085,0-.16354.04846a.54039.54039,0,0,1-.2665.09085.58485.58485,0,0,0-.29679.12114.60333.60333,0,0,1-.30284.12114.82785.82785,0,0,0-.32708.09691c-.103.04845-.19987.07874-.218.06057a.8083.8083,0,0,0-.30889.09085,1.8822,1.8822,0,0,1-.47244.13931.84292.84292,0,0,0-.32707.11508.339.339,0,0,1-.212.06663.46469.46469,0,0,0-.27862.09085A.8042.8042,0,0,1,6.601,3.5587a1.45471,1.45471,0,0,0-.3937.18777,1.63281,1.63281,0,0,1-.38765.20593,2.29268,2.29268,0,0,0-.39371.15143,5.18075,5.18075,0,0,1-1.18108.34524A1.05425,1.05425,0,0,0,3.833,4.655a.7338.7338,0,0,1-.27257.17565c-.1393.00605-.59358.49666-.963,1.04178a3.62191,3.62191,0,0,1-.45427.57541,1.53769,1.53769,0,0,0-.29679.32707,1.52787,1.52787,0,0,1-.44215.41187c-.24834.13326-.65415.527-.59358.58752.02423.02423-.01817.13326-.0848.24834-.07268.11508-.1817.315-.24227.44215a.85029.85029,0,0,1-.29679.33313C.01711,8.88876.005,8.913.005,9.25217c0,.41793.05451.47244.48455.45427.34525-.01817.45427-.0424.58752-.15748a2.6372,2.6372,0,0,1,.424-.25439c.315-.16354.321-.16354.43609-.04846.22411.22411.07269.72683-.32707,1.07813-.18776.1696-.212.212-.15142.321A.25.25,0,0,1,1.489,10.833c-.02422.03029.02423.12114.103.19988a1.78811,1.78811,0,0,1,.55724.86008,2.58192,2.58192,0,0,0,.16353.46033,5.30931,5.30931,0,0,1,.26651.73894,1.61256,1.61256,0,0,0,.1817.34525,1.06642,1.06642,0,0,1,.17565.3089,2.58458,2.58458,0,0,0,.44822.98727.57246.57246,0,0,1,.11508.30285,1.21053,1.21053,0,0,0,.09085.3513.18985.18985,0,0,1,.01817.15748.4018.4018,0,0,0,.03634.23016,1.88245,1.88245,0,0,1,.09086.44216c.01211.15142.03634.424.05451.60569a4.96488,4.96488,0,0,1,.03028.56329.95083.95083,0,0,0,.05452.33313.20522.20522,0,0,1-.00606.212,2.7375,2.7375,0,0,0,.00606,1.13264.32461.32461,0,0,1-.0424.36342c-.06057.0848-.17565.24833-.25439.36341-.0848.11509-.27862.36948-.44216.55724-.16353.19382-.27862.37553-.26044.40581.02422.03029-.03029.13931-.11509.24228a.6124.6124,0,0,0-.13325.69654c.09086.12114.21805.15143.89037.18777.92671.06057,1.07813.07268,1.15687.12719a.4149.4149,0,0,0,.218.03634.34644.34644,0,0,1,.25439.103.58913.58913,0,0,0,.71469.01208.305.305,0,0,1,.23016-.09086c.04846.01817.1272-.03634.18777-.13325.212-.321.642-.38764.79345-.11508a2.147,2.147,0,0,0,1.21139.01211.3072.3072,0,0,1,.2241.02423c.12114.05451.17565.05451.24228-.00606a1.61628,1.61628,0,0,1,.59963-.08479,1.38226,1.38226,0,0,0,.66021-.12114,1.10362,1.10362,0,0,1,.40581-.1272,1.039,1.039,0,0,0,.3937-.12114,1.21842,1.21842,0,0,1,.48455-.12113,1.9469,1.9469,0,0,0,.45427-.0848.75749.75749,0,0,1,.28467-.06663,6.88577,6.88577,0,0,0,1.54452-.11508c.13325-.06662.18776-.06057.34524.01817a.92646.92646,0,0,0,.89642-.07268,1.857,1.857,0,0,1,.8722-.35736c.46032-.0424.56329-.06662.6178-.15748a2.48,2.48,0,0,1,.98728-.34524,1.57482,1.57482,0,0,0,.47244-.28468,6.10181,6.10181,0,0,1,.99333-.56329,7.4957,7.4957,0,0,0,.70866-.35736.76549.76549,0,0,1,.25439-.12113c.15142-.03635.16959-.07269.18776-.36342a1.43633,1.43633,0,0,0-.06662-.51484.38438.38438,0,0,1-.03029-.29678.366.366,0,0,0-.16959-.4361,1.22158,1.22158,0,0,0-.96911.006,4.326,4.326,0,0,1-1.29617.23622,1.86267,1.86267,0,0,0-.527.0848.57422.57422,0,0,1-.39975.00606.75226.75226,0,0,0-.4361,0,.53358.53358,0,0,1-.3513.006,2.86732,2.86732,0,0,0-.35736-.09691c-.218-.04239-.40581-.23622-.36947-.37552a.27224.27224,0,0,0-.04845-.212c-.07269-.103-.09086-.09691-.27862.02423-.17565.109-.19988.15142-.1696.30285a.28352.28352,0,0,1-.07874.28467c-.103.103-.16959.109-.642.07874a.50869.50869,0,0,1-.27862-.13931c-.109-.109-.11508-.13931-.03634-.25439a1.51531,1.51531,0,0,0,.1272-.30284,3.21958,3.21958,0,0,1,1.21744-1.1387c.66626-.44216.9691-.61175,1.01756-.56329a4.57716,4.57716,0,0,0,1.13264-.61175,3.94576,3.94576,0,0,1,.636-.3513c.19988-.0848.49667-.23017.65415-.315a1.25825,1.25825,0,0,1,.45427-.16354.80625.80625,0,0,0,.40581-.19988c.28468-.23016.48456-.33918.533-.29679a3.40213,3.40213,0,0,0,.91459-.43.58653.58653,0,0,1,.32708-.109,1.167,1.167,0,0,1,.29073.61175c-.01817.01211.01211.11508.06662.218a1.03921,1.03921,0,0,1,.0848.44821.689.689,0,0,0,.07874.38158.349.349,0,0,1,.03029.32708,1.00638,1.00638,0,0,0-.04846.25439.65073.65073,0,0,1-.03028.20593.77619.77619,0,0,0,.04239.424,2.92743,2.92743,0,0,1,.01212,1.21139,1.14522,1.14522,0,0,0,.02423.48455,2.13557,2.13557,0,0,1,.06056.75106c0,.23016.06057,1.21138.0848,1.3628.01817.0848.06663.27256.11508.424a1.05726,1.05726,0,0,1,.0424.48456.58752.58752,0,0,0-.01211.2665,1.47892,1.47892,0,0,1,.05451.3513,1.19464,1.19464,0,0,0,.13325.49061,1.39411,1.39411,0,0,1,.1272.55118,1.53342,1.53342,0,0,0,.07268.46638.27606.27606,0,0,1,.01817.19382.65839.65839,0,0,0,.06057.315.51327.51327,0,0,1,.06663.27256.06673.06673,0,0,0,.02851.09l.00176.00089a.76868.76868,0,0,1,.1272.3089.78935.78935,0,0,0,.28467.44821.5145.5145,0,0,1,.22411.37553,1.29557,1.29557,0,0,0,.39975.80557.36773.36773,0,0,1,.17565.15748.69526.69526,0,0,0,.26651.19988,1.06724,1.06724,0,0,1,.35735.29073c.13931.18171.19382.20593.38765.18776a1.25216,1.25216,0,0,0,.29678-.0424.48153.48153,0,0,1,.25439.0848c.1696.103.21805.109.46033.03634a1.89986,1.89986,0,0,0,.62386-.3937,1.996,1.996,0,0,1,.39976-.3089c.03028,0,.03634-.13325.01211-.29679a.87976.87976,0,0,1,.109-.60569c.08479-.18171.12113-.33313.09085-.38158-.0848-.13326-.05451-.218.13931-.41793.12114-.1272.16959-.21805.13931-.29073a.44234.44234,0,0,1-.03029-.15748c.05452-.424.0424-.61175-.03028-.73289-.07874-.11508-.07874-.16353.00606-.37553.07268-.17565.08479-.27861.03634-.35735a.219.219,0,0,1-.00606-.19383.39867.39867,0,0,0,.00606-.24227,1.57716,1.57716,0,0,1-.03029-.39976,1.12768,1.12768,0,0,0-.109-.51484,2.03733,2.03733,0,0,1-.15142-.72682c-.00606-.24834-.03029-.6057-.04846-.7874-.01211-.18171-.03028-.38764-.03028-.44821a.64689.64689,0,0,0-.06057-.21805.20812.20812,0,0,1,.02422-.218c.06057-.0848.06663-.19988.03635-.41793a1.499,1.499,0,0,1,.2544-1.13264,1.834,1.834,0,0,0,.55117-.64809c.47244-.72683.57541-.90248.54513-.93276-.01817-.01817-.00606-.07269.02421-.12114a6.24869,6.24869,0,0,1,.99939-.77529,1.189,1.189,0,0,0,.39976-.16353c.13931-.07269.25439-.12114.25439-.103s.109-.04846.24833-.14537a.56.56,0,0,1,.37553-.15142.78618.78618,0,0,0,.22411.02423c.04845,0,.17565-.01212.27256-.01817a.74159.74159,0,0,0,.30284-.0848.54638.54638,0,0,1,.30285-.03634,6.33509,6.33509,0,0,0,.69654.04845,20.108,20.108,0,0,1,2.05935.12114.67377.67377,0,0,0,.67232-.12113.75845.75845,0,0,1,.24228-.15142c.06662,0,.29679.22411.29679.29679,0,.03028.08479.06663.1817.09085a.75851.75851,0,0,1,.3392.18777.51556.51556,0,0,0,.23016.15142,1.0335,1.0335,0,0,1,.315.15748,1.78411,1.78411,0,0,0,1.07208.20594,1.07868,1.07868,0,0,1,.6602.315,6.32162,6.32162,0,0,1,.01817.745,1.96391,1.96391,0,0,1-.19988,1.066,2.75821,2.75821,0,0,0-.2241.60569c-.01818.11508-.0424.26045-.05452.32708a3.04328,3.04328,0,0,1-.33313.75711.65081.65081,0,0,0-.01816.64809c.0424.07874.06056.13932.0424.13932s.01211.06662.06663.15748c.0545.08479.13931.13931.17565.12114a.28924.28924,0,0,1,.19988.06056c.109.07873.15142.06057.44215-.15748.17565-.13325.33919-.24833.35736-.2544a1.63424,1.63424,0,0,0,.17565-.24832.62961.62961,0,0,1,.2665-.26045.85911.85911,0,0,0,.315-.27256c.103-.13325.34524-.41792.54512-.62992a6.28809,6.28809,0,0,0,1.0963-1.44154,1.29093,1.29093,0,0,1,.27256-.33313,1.3335,1.3335,0,0,0,.32708-.95094,1.55557,1.55557,0,0,1,.15142-.54512c.28468-.61175.32706-.79951.218-.94488-.0848-.12113-.07874-.15747.03634-.38158a.78023.78023,0,0,0,.07268-.73289,1.366,1.366,0,0,1-.109-.3937c-.03029-.218-.07268-.29074-.218-.37552a1.29407,1.29407,0,0,1-.35129-.36948.86722.86722,0,0,0-.33313-.33313.57845.57845,0,0,1-.28468-.32707,1.78523,1.78523,0,0,0-.29073-.44821c-.2241-.24833-.66626-.527-.76922-.48455a.26538.26538,0,0,1-.18777-.04846,1.98,1.98,0,0,0-.86008-.24833.307.307,0,0,1-.22411-.05452,1.35313,1.35313,0,0,0-.43-.1272,1.80393,1.80393,0,0,1-.46638-.13325.36647.36647,0,0,0-.2241-.04846,1.05028,1.05028,0,0,1-.3937-.06662,1.26053,1.26053,0,0,0-.45427-.06663.47165.47165,0,0,1-.28468-.07268A3.41632,3.41632,0,0,0,34.49921,8.374a1.2647,1.2647,0,0,0-.62992.218,1.35533,1.35533,0,0,1-.33313.17565,1.31887,1.31887,0,0,1-.321-.14537.66522.66522,0,0,0-.60569-.09085c-.19382.03028-.41793.06662-.50273.07874a2.98,2.98,0,0,0-1.48394.64809,1.8252,1.8252,0,0,1-.43.2241,3.645,3.645,0,0,0-.8722.51484,2.56883,2.56883,0,0,1-.24227.17565,3.30725,3.30725,0,0,0-.38159.315.88708.88708,0,0,1-.28467.218,1.20687,1.20687,0,0,0-.315.27256,3.98029,3.98029,0,0,1-.50272.44215,3.00709,3.00709,0,0,0-.8298.8722,1.0987,1.0987,0,0,1-.26651.315c-.103.0424-.44821-.26045-.45426-.39976,0-.0424-.01212-.218-.02423-.38158-.01211-.1696-.02423-.41187-.02423-.54512A4.10967,4.10967,0,0,0,25.85,9.69438a1.30016,1.30016,0,0,1,.04845-.47243,1.884,1.884,0,0,0,.06057-.45427.70346.70346,0,0,1,.06057-.27862.45431.45431,0,0,0,.02423-.33919.244.244,0,0,1,0-.2241.75524.75524,0,0,0-.18178-.67844.40111.40111,0,0,1-.11508-.16353c0-.09086-.27862-.212-.51484-.22411a.77885.77885,0,0,0-.68443.28468c-.109.09691-.22411.15748-.26045.1393-.03028-.02422-.05451-.00605-.05451.02423a11.05768,11.05768,0,0,1-1.22955,1.278,1.00651,1.00651,0,0,1-.636.26045,4.03557,4.03557,0,0,1-.49666.04845c-.14537-.00605-.75106-.05451-.79952-.06057-.09691-.01211-.17565-.24833-.11508-.35735.06057-.11509.51484-.3937.56329-.33919.01818.01817.11509-.04846.212-.13931.34524-.321.50878-.4361.58146-.40581a5.72577,5.72577,0,0,0,1.20529-1.13264,1.45213,1.45213,0,0,1,.45427-.33918c.315-.1696.71472-.50273.59964-.50273-.06663,0,.14536-.38158.321-.5754A1.87464,1.87464,0,0,0,25.26231,3.801a7.77013,7.77013,0,0,0-.13931-2.1078c-.06057-.103-.1272-.19382-.15143-.19382-.07268,0-.321-.35131-.34524-.48456a1.24272,1.24272,0,0,0-.3089-.55118,2.84237,2.84237,0,0,0-1.175-.212C22.48825.20315,22.34894.17892,22.252.10018A.74754.74754,0,0,0,21.73114.02143ZM18.521,4.93965a1.492,1.492,0,0,0,.43.06057.695.695,0,0,1,.33919.09085c.13931.09691.1696.09691.29679.01817.12114-.08479.15748-.07874.39976.09086a.84144.84144,0,0,0,.33313.15748.92884.92884,0,0,1,.58146.321c.04846.09691.03028.19382-.09691.45427-.16959.36947-.67837.93882-.8298.93882-.04845,0-.17565.13325-.27862.30285a.64959.64959,0,0,1-.44215.36947,2.69985,2.69985,0,0,1-.38159.0848,1.34608,1.34608,0,0,0-.41792.23016.998.998,0,0,1-.3937.218c-.05451-.01212-.20594.08479-.33919.212a4.23228,4.23228,0,0,1-.60569.4361c-.19988.11508-.44821.27256-.55118.3513a5.85952,5.85952,0,0,1-1.30829.47244.76789.76789,0,0,0-.2665.13931.86763.86763,0,0,1-.39976.15142.88654.88654,0,0,0-.34524.09085c-.09691.04846-.18777.07269-.19988.05451a.55055.55055,0,0,0-.24228.06057,1.31764,1.31764,0,0,1-.59963.06057c-.212-.01211-.4361-.02423-.49061-.03028a1.17179,1.17179,0,0,0-.38764.18776,1.68817,1.68817,0,0,1-.34525.20594,6.36559,6.36559,0,0,0-.72077.29679.74.74,0,0,1-.33313.08479c-.01817-.02423-.0848,0-.13931.04846a.65063.65063,0,0,1-.23016.12114,1.02757,1.02757,0,0,0-.24834.09085.29317.29317,0,0,1-.30284-.02423.397.397,0,0,0-.19382-.06662,1.011,1.011,0,0,1-.26651.04845,2.57632,2.57632,0,0,0-.47244.12114c-.12113.05451-.2241.0848-.2241.06663,0-.01212-.06057.01211-.13931.06662-.07874.04846-.15748.07874-.16959.06057a3.43444,3.43444,0,0,0-1.15082-.03028c-.2241.09691-.37553.006-.5754-.33919-.14537-.24833-.15748-.30285-.09691-.47244a.58379.58379,0,0,0,0-.43A3.23851,3.23851,0,0,1,6.64336,9.979c-.03028-.24228-.12113-.424-.2241-.45427-.13931-.04845-.321-.36947-.27256-.49061a.67307.67307,0,0,0-.05452-.321.5708.5708,0,0,1-.04845-.26651A1.87081,1.87081,0,0,0,5.747,7.68343c-.16354-.212-.03634-.41187.24228-.37553a1.70949,1.70949,0,0,0,.3937-.07874A4.91788,4.91788,0,0,1,6.9705,7.102a6.41962,6.41962,0,0,0,1.175-.23017,2.69473,2.69473,0,0,0,.6965-.24837A4.05672,4.05672,0,0,1,9.9807,6.0662a.276.276,0,0,0,.19382-.01818.21557.21557,0,0,1,.18171-.01211.67449.67449,0,0,0,.35736,0c.15748-.02423.41187-.06057.56935-.0848a1.32793,1.32793,0,0,0,.50878-.19382,1.26175,1.26175,0,0,1,.35735-.17565c.06663-.01211.29679-.04845.51484-.08479a2.46676,2.46676,0,0,0,.58147-.16354.35368.35368,0,0,1,.37552-.02423.27066.27066,0,0,0,.32708-.01817.89882.89882,0,0,1,.79345-.07874.22025.22025,0,0,0,.28468.01212.2775.2775,0,0,1,.24227-.03029c.11508.06057.72683.00606.72683-.06663,0-.12719.34525-.218.69655-.18776A2.5971,2.5971,0,0,0,17.776,4.88514,1.69609,1.69609,0,0,1,18.521,4.93965Zm9.06111,8.38278a.31391.31391,0,0,1,.03634.4785c-.109.109-.13325.109-.29073.03028-.24227-.12719-.27256-.26044-.09691-.43609C27.4004,13.23156,27.4428,13.21943,27.58211,13.32243Zm-16.48691.66021c.3937.19382.36342.38764-.11508.751a1.13877,1.13877,0,0,0-.49667.73289.5024.5024,0,0,1-.11508.27256,3.9098,3.9098,0,0,0-.27861.4785,2.278,2.278,0,0,1-.27862.44215c-.06663.06057-.103.13931-.07874.16959.01817.03635-.03634.1696-.12114.29679a.612.612,0,0,1-.41187.30285,2.45056,2.45056,0,0,1-.93276.12114,4.34521,4.34521,0,0,0-1.08419.02422c-.28468.09692-.47244-.30284-.29679-.636a1.25535,1.25535,0,0,0,0-.76317c-.01817-.01817.00606-.109.05451-.20595a.69955.69955,0,0,0,.0848-.30889,2.555,2.555,0,0,1,.03634-.38159c.01817-.13326.04846-.30891.06057-.39369a.80762.80762,0,0,1,.27256-.62387c.15748-.13931.20594-.15747.315-.09692a3.18379,3.18379,0,0,0,.86614.07269c.59357,0,.76317-.01817.89036-.103s.18777-.09085.28468-.03634c.103.04845.18171.03634.41187-.09087a.94951.94951,0,0,1,.93272-.02417Z"/>

</g>
</svg>
