<?xml version="1.0" encoding="UTF-8"?>
<svg xmlns="http://www.w3.org/2000/svg"
     version="1.1"
     width="13.55591884mm"
     height="35.75009244mm"
     viewBox="0.00000000 0.00000000 38.42613871 101.33872802">

<g transform="scale(6.89240785)">   <defs>
      <style type="text/css"><![CDATA[
      .a {
        stroke: #000;
        stroke-linecap: round;
        stroke-linejoin: round;
        stroke-width: 0.01px;
      }
    ]]></style>
   </defs>
   <path class="a"
         d="M4.41439.03a1.81792,1.81792,0,0,1-.424.12114c-.212.0424-.53907.11508-.73289.16959A2.67951,2.67951,0,0,1,2.767.41761a.2141.2141,0,0,0-.18171.09085A.43809.43809,0,0,1,2.38538.672a1.40856,1.40856,0,0,0-.30285.18777A.54685.54685,0,0,1,1.81.993a1.18543,1.18543,0,0,0-.17565.02423,2.87436,2.87436,0,0,0-.37553.26044c-.18171.14537-.38158.29073-.44215.32708-.10907.06052-.1333.19382-.17567.84191-.03029.45426.06662.54512.50272.47849a3.04068,3.04068,0,0,1,.49667-.03634,1.81466,1.81466,0,0,0,.848-.04845c.35736-.1272.38765-.15748.4361-.35736a.39182.39182,0,0,1,.47119-.29159l.02548.00691c.2665.06663.29073.218.09691.5209a6.83294,6.83294,0,0,1-.7874,1.02361c-.38764.39976-.44215.49061-.49061.80557a3.16885,3.16885,0,0,0,.19382,1.3083.95.95,0,0,1,.05451.29073.88951.88951,0,0,0,.09086.32707,2.67168,2.67168,0,0,1,.109.89037,3.72229,3.72229,0,0,0,.09085.84191,3.72761,3.72761,0,0,1,.15748.69049c.09086.55117.0848.5754-.03028.76922a.438.438,0,0,0-.07874.3937,1.0973,1.0973,0,0,1-.07268.75106,1.45127,1.45127,0,0,0-.12114.38764,3.332,3.332,0,0,1-.05451.36342c-.01817.11508-.04846.3089-.06057.424a.44714.44714,0,0,1-.16354.315c-.07268.06057-.20593.17565-.29073.25439a2.76916,2.76916,0,0,1-.3937.29073,4.16,4.16,0,0,0-.40581.30285.879.879,0,0,1-.38764.19987.88458.88458,0,0,0-.35736.15143c-.4785.44821-.51484.49666-.51484.72077,0,.24228.04846.28467.49061.4361.19988.06662.23622.06057.45427-.09086a.945.945,0,0,1,.34524-.15748,5.52,5.52,0,0,0,1.76862-1.28406,1.25365,1.25365,0,0,1,.33919-.321.18374.18374,0,0,0,.11508-.16353.63189.63189,0,0,1,.212-.315.67664.67664,0,0,0,.212-.30891,2.49688,2.49688,0,0,1,.48455-.78739c.03635-.01817.06057-.11509.06057-.218a.59638.59638,0,0,1,.18777-.37553,1.0083,1.0083,0,0,0,.38158-.67838,2.64091,2.64091,0,0,1,.33919-1.13264l.16959-.25439-.15142-.1817A.39.39,0,0,1,5.29876,8.001a.65987.65987,0,0,0-.02423-.321c-.0424-.07269-.03028-.1696.03029-.315a.47747.47747,0,0,0,0-.46033,2.65213,2.65213,0,0,1,0-1.15687,1.13819,1.13819,0,0,0-.15143-.44215,1.79857,1.79857,0,0,1-.218-.76317.84.84,0,0,0-.17565-.5633c-.17565-.20593-.1393-.321.16354-.60569.13325-.12719.16354-.19382.12114-.2665a2.02549,2.02549,0,0,1,.38158-1.066.62351.62351,0,0,0,.05452-.72077A.47356.47356,0,0,1,5.42,1.05367a.71344.71344,0,0,0-.2-.57549A.5362.5362,0,0,1,5.0322.2359C4.9898.139,4.9232.0542,4.88077.0542A2.023,2.023,0,0,1,4.63244.01786.33263.33263,0,0,0,4.41439.03Z"/>

</g>
</svg>
