<?xml version="1.0" encoding="UTF-8"?>
<svg xmlns="http://www.w3.org/2000/svg"
     version="1.1"
     width="77.32743802mm"
     height="38.12972595mm"
     viewBox="0.00000000 0.00000000 219.19593340 108.08430177">

<g transform="scale(4.36982859)">   <defs>
      <style type="text/css"><![CDATA[
      .a {
        stroke: #000;
        stroke-linecap: round;
        stroke-linejoin: round;
        stroke-width: 0.01px;
      }
    ]]></style>
   </defs>
   <path class="a"
         d="M44.82615.19479a1.12587,1.12587,0,0,1-.34524.27257A1.82835,1.82835,0,0,0,44.069.76414c-.11508.12114-.23622.20594-.2665.18777-.02423-.01817-.0848.0424-.12114.13325a1.60487,1.60487,0,0,1-.62992.745c-.15142.07874-.22411.15142-.19988.212.0424.11508-.29679.49061-.58146.636a1.84431,1.84431,0,0,0-.3513.23622.42555.42555,0,0,1-.17565.12114c-.03029,0-.07269.04845-.09691.11508a4.35867,4.35867,0,0,1-.98724,1.072.8983.8983,0,0,1-.33313.14537c-.06663,0-.13325.07268-.17565.1817a.40449.40449,0,0,1-.43.30285c-.15142,0-.36947.24227-.38159.424a2.37121,2.37121,0,0,1-.751.96911.74608.74608,0,0,0-.24834.212,3.31857,3.31857,0,0,1-.67837.4785,4.50678,4.50678,0,0,0-.72683.4906,1.08005,1.08005,0,0,1-.29073.218c-.03029.00606-.07874.01817-.11509.02423-.03028.00606-.0848.01817-.11508.02423a.86775.86775,0,0,0-.218.24833.85876.85876,0,0,1-.29073.27862,2.17322,2.17322,0,0,0-.65415.46033.52035.52035,0,0,1-.33919.16959c-.09085.00606-.32707.01817-.51483.03634a1.51845,1.51845,0,0,1-1.01757-.24833c-.04845-.06057-.15748-.07269-.38158-.04846A1.8969,1.8969,0,0,1,32.343,8.523a2.07382,2.07382,0,0,0-.54512-.09086c-.18776.00606-1.44154-.05451-1.811-.09085a2.16555,2.16555,0,0,1-.39975-.0848c-.13931-.0424-.32707-.0848-.424-.103a7.50279,7.50279,0,0,1-.98122-.212.52005.52005,0,0,0-.27862-.0424.47376.47376,0,0,1-.27256-.03634.356.356,0,0,0-.36947.03634.36606.36606,0,0,1-.24228.07269.22172.22172,0,0,0-.17565.03028.57043.57043,0,0,1-.36947.00606.51264.51264,0,0,0-.43.0424c-.09691.06057-.17565.13325-.17565.16959,0,.13931-.1696.27862-.35736.29073a.33628.33628,0,0,0-.25439.11508,1.95489,1.95489,0,0,1-.46638.32708A5.04853,5.04853,0,0,0,24.142,9.371c-.30286.23622-.745.46639-.81769.41793-.03028-.01817-.12113.07268-.20594.20593a1.04189,1.04189,0,0,1-.76922.43.65124.65124,0,0,0-.6481.24227,1.71511,1.71511,0,0,1-.4361.315.93653.93653,0,0,0-.31494.18171.38656.38656,0,0,1-.23017.109c-.06662,0-.12114.02423-.12114.06057,0,.04846-.06056.12114-.46638.57541a.2959.2959,0,0,1-.33918.109.34426.34426,0,0,0-.36342.1272.5359.5359,0,0,1-.29073.15748.69894.69894,0,0,0-.321.14536,4.42534,4.42534,0,0,1-.39975.24834.86825.86825,0,0,0-.26045.18776c-.05451.09691-.40581.29073-.40581.22411,0-.01817-.07269.06057-.1696.1817a1.96707,1.96707,0,0,1-.37553.36948,5.86166,5.86166,0,0,1-1.09024.52089.0607.0607,0,0,0-.06057.06057c0,.03028-.11508.13325-.24833.2241a3.98374,3.98374,0,0,0-.5209.43,1.33757,1.33757,0,0,1-.43609.29073,2.07372,2.07372,0,0,0-.73289.527.93025.93025,0,0,0-.15142.19382.29364.29364,0,0,1-.18777.11508,1.72509,1.72509,0,0,0-.69048.40581c0,.09086-.30891.35736-.424.35736a.40181.40181,0,0,0-.23622.109c-.29073.2665-.44821.37552-.54512.37552a.72421.72421,0,0,0-.315.21805,1.60511,1.60511,0,0,1-.87219.50273.64011.64011,0,0,0-.56935.23016,1.89512,1.89512,0,0,1-.45427.29679,1.09027,1.09027,0,0,0-.3089.19382,4.72026,4.72026,0,0,1-1.24773.4361.79833.79833,0,0,0-.33313.15748.891.891,0,0,1-.315.17565,1.52368,1.52368,0,0,0-.321.109.64933.64933,0,0,1-.34525.06057.707.707,0,0,0-.36947.09085,2.00318,2.00318,0,0,1-.59963.1696c-.315.03634-.37553.02422-.49061-.09086a.30653.30653,0,0,1-.09086-.321,1.35929,1.35929,0,0,1,.22411-.636,1.26919,1.26919,0,0,0,.3089-.73289.68594.68594,0,0,1,.15748-.40581c.07874-.08479.12114-.15142.09691-.15142-.03028,0-.006-.06663.04846-.15142a.57321.57321,0,0,0,.09691-.24228,1.88355,1.88355,0,0,1,.3937-.69654.309.309,0,0,0,.09085-.20594A.85093.85093,0,0,1,7.134,15.652a2.49522,2.49522,0,0,0,.39976-.24228.687.687,0,0,1,.23016-.13931.91961.91961,0,0,0,.27862-.15142c.16354-.109.24833-.13325.32707-.0848a1.29977,1.29977,0,0,0,.71472-.06662.4754.4754,0,0,1,.27256.01211,1.15888,1.15888,0,0,0,1.19321-.2665,1.16869,1.16869,0,0,0,.09085-.36947c.03635-.30891.06663-.52089.13931-.92064a.984.984,0,0,0,.01817-.36343,2.84731,2.84731,0,0,1-.07268-.75106c0-.34524-.424-.71471-.69654-.61174a.43662.43662,0,0,1-.24834.01817,1.08963,1.08963,0,0,0-.41187.06662.53314.53314,0,0,1-.424.03029c-.12114-.06057-.19382-.04846-.38764.05451a.7294.7294,0,0,1-.38765.09085.4568.4568,0,0,0-.30284.06663c-.0848.05451-.16354.0848-.17565.06663-.12114-.12114-.963.61175-.963.84192a.88307.88307,0,0,1-.23622.3513,1.23042,1.23042,0,0,0-.24228.27861,1.94564,1.94564,0,0,1-.59357.745,1.52523,1.52523,0,0,0-.35736.36948,2.76193,2.76193,0,0,1-.2665.37552.70024.70024,0,0,0-.17566.26045c.02423.13931-.03634.20594-.38764.41187a2.16646,2.16646,0,0,0-.848.99333,2.19655,2.19655,0,0,1-.25439.36948,3.42773,3.42773,0,0,0-.34525.49061,9.35138,9.35138,0,0,1-1.066,1.50211,1.45781,1.45781,0,0,0-.315.49667.78683.78683,0,0,1-.15143.29678.26473.26473,0,0,0-.09085.16353.53933.53933,0,0,1-.07268.218.90894.90894,0,0,0-.07874.22411,2.06846,2.06846,0,0,1-.26045.47245,1.95347,1.95347,0,0,0-.25439.47242c0,.13327-.17565.44822-.24833.44822-.03635,0-.04846.02422-.02423.05451a.7666.7666,0,0,1-.01817.29679.52365.52365,0,0,0,0,.33918c.0424.07269.03028.15143-.0424.25439a.351.351,0,0,0-.06663.24228.52914.52914,0,0,1-.23622.46638c-.06662.03029-.09085.13325-.09085.44821,0,.39976.00606.41793.218.58752s.24833.17565.77528.16354c.30285-.00606.636-.01211.739-.01211a2.79217,2.79217,0,0,0,.66626-.1817,3.364,3.364,0,0,1,.79345-.19989c.24833-.00606.33919-.03634.41187-.13931a.71925.71925,0,0,1,.321-.20593.75327.75327,0,0,0,.3089-.19382,1.65346,1.65346,0,0,1,.67232-.4361c.03028.01817.06057-.00606.07874-.04846a2.178,2.178,0,0,1,.58752-.3089,3.1466,3.1466,0,0,0,.69654-.37553.84749.84749,0,0,1,.36947-.18171,1.81039,1.81039,0,0,0,.58147-.27256,3.25945,3.25945,0,0,1,1.0963-.48455,1.38153,1.38153,0,0,0,.75715-.50268,6.88524,6.88524,0,0,1,1.46577-.99334.779.779,0,0,0,.23017-.14536,2.0731,2.0731,0,0,1,.745-.35129c.24227,0,.41792-.13325,1.0115-.77529a.55447.55447,0,0,1,.33313-.19382.86933.86933,0,0,0,.37553-.18171,1.22969,1.22969,0,0,1,.38764-.218,2.90033,2.90033,0,0,0,.46033-.20594,2.44433,2.44433,0,0,1,.51483-.20593,1.31854,1.31854,0,0,0,.84191-.49061,1.05628,1.05628,0,0,1,.41187-.35736c.15748-.07874.39976-.19989.533-.27256a1.13327,1.13327,0,0,1,.36342-.1272,1.63154,1.63154,0,0,0,.81768-.44821,3.29442,3.29442,0,0,1,1.21138-.7026,6.69766,6.69766,0,0,0,.642-.26045.94865.94865,0,0,1,.69049-.11508c.14537.05451.48455-.03028,1.0963-.27256a1.75673,1.75673,0,0,1,.7874-.04846c.315.01818.8722.04239,1.23561.06057a4.68265,4.68265,0,0,1,.81163.07269,1.05191,1.05191,0,0,0,.46638.00605,1.7373,1.7373,0,0,1,.73288.04846,2.918,2.918,0,0,0,.86614.08479,1.29408,1.29408,0,0,1,.533.11508.67055.67055,0,0,0,.44821,0,1.46036,1.46036,0,0,1,1.06.06662,1.46446,1.46446,0,0,0,.67838.15748c.25439.01818.55723.04241.67231.06664a3.50617,3.50617,0,0,0,1.42338-.103c.58752-.16353.7026-.18171.81162-.12114a2.00648,2.00648,0,0,0,.9146-.09085,1.19706,1.19706,0,0,1,.424.03028c.50272.1272.58752.13326.76923.03635.16353-.07874.19382-.07874.315,0a.28429.28429,0,0,0,.2665.04845,1.5402,1.5402,0,0,1,1.11447-.01817,1.53783,1.53783,0,0,0,.7874.103,3.25629,3.25629,0,0,0,.54512-.06663c.03634-.02423.1272.01212.20594.07268.12113.09086.24227.109.6602.09692a1.639,1.639,0,0,1,.642.06662,4.30613,4.30613,0,0,0,1.35675.13931c.11508-.00606.29679-.00606.3937,0,.103.00606.43,0,.72683-.00606a2.77223,2.77223,0,0,1,.642.02423.70415.70415,0,0,1,.20594.33919c.103.27862.17566.33918.51484.46638.47243.16354.745.13324.81769-.09692a.96978.96978,0,0,1,.23622-.27861,1.544,1.544,0,0,0,.2665-.29073.93037.93037,0,0,1,.36947-.27256c.16959-.07874.30889-.16354.30889-.19382,0-.09691.3937-.44216.79952-.70866.25439-.16354.41187-.3089.43609-.40582a.93476.93476,0,0,1,.61175-.4482,1.19278,1.19278,0,0,0,.67232-.44216.55075.55075,0,0,1,.19383-.20593c.09085-.06057.315-.218.49667-.36342a3.67629,3.67629,0,0,1,.5754-.35736,1.51171,1.51171,0,0,0,.45427-.32707.91923.91923,0,0,1,.533-.29679c.55723-.11508,1.16293-.48455,1.16293-.7026,0-.16354-.23017-.33313-.46033-.33313a.83171.83171,0,0,1-.34525-.07268,1.82449,1.82449,0,0,0-.72683-.23017.877.877,0,0,1-.35129-.09691.47517.47517,0,0,0-.218-.06662.6809.6809,0,0,1-.3089-.09691,2.413,2.413,0,0,0-1.04179-.1272,2.77122,2.77122,0,0,1-.90248-.09085.68439.68439,0,0,0-.38159-.04846,1.19674,1.19674,0,0,1-.46032-.04845,8.49439,8.49439,0,0,0-1.58691-.24834A2.78083,2.78083,0,0,1,42.785,9.571a1.36666,1.36666,0,0,0-.4906-.03028,4.23373,4.23373,0,0,1-1.36887-.23622,1.82093,1.82093,0,0,0-.98121-.03634,3.777,3.777,0,0,1-2.08358-.71472c-.07874-.15748-.01817-.29679.17565-.39976a5.0095,5.0095,0,0,0,.58146-.45426c.23622-.19988.56935-.46033.73894-.57541a1.61672,1.61672,0,0,0,.41187-.3937.53357.53357,0,0,1,.20594-.212,1.25182,1.25182,0,0,0,.36947-.33313,1.08257,1.08257,0,0,1,.44216-.3513.656.656,0,0,0,.34524-.27256,2.08012,2.08012,0,0,1,.39976-.39976,1.855,1.855,0,0,0,.43609-.4785,3.064,3.064,0,0,1,.75106-.73288c.76317-.58146.89037-.71472.93276-.96911a1.10879,1.10879,0,0,1,.24228-.43,4.05888,4.05888,0,0,0,.6602-.84191A4.88651,4.88651,0,0,1,45.347.71569a.45727.45727,0,0,0,.15748-.3513C45.51664.0676,45.46213.007,45.20168.007A.39187.39187,0,0,0,44.82615.19479Z"/>

</g>
</svg>
