<?xml version="1.0" encoding="UTF-8"?>
<svg xmlns="http://www.w3.org/2000/svg"
     version="1.1"
     width="15.20563181mm"
     height="47.84742827mm"
     viewBox="0.00000000 0.00000000 43.10264031 135.63048494">

<g transform="scale(4.54756027)">   <defs>
      <style type="text/css"><![CDATA[
      .a {
        stroke: #000;
        stroke-linecap: round;
        stroke-linejoin: round;
        stroke-width: 0.01px;
      }
    ]]></style>
   </defs>
   <path class="a"
         d="M5.482.15461A.34752.34752,0,0,1,5.1428.27575a.41677.41677,0,0,0-.315.06057A.98715.98715,0,0,1,4.49471.4514a.91357.91357,0,0,0-.34524.13325,2.48547,2.48547,0,0,1-.66626.38159.4048.4048,0,0,0-.19382.103c-.06663.06056-.218.18776-.34525.29073-.12114.09691-.27862.24227-.3513.315a1.059,1.059,0,0,1-.29073.19382.72181.72181,0,0,0-.315.38158,2.03136,2.03136,0,0,1-.33919.49667.85934.85934,0,0,0-.1817.22411c0,.03028-.07874.09085-.17565.1393a.65444.65444,0,0,0-.24834.27862.57487.57487,0,0,1-.1817.24228A1.11936,1.11936,0,0,0,.594,4.01293a2.69362,2.69362,0,0,1-.27862.47244C.24882,4.564.17008,4.661.1459,4.69124A1.54994,1.54994,0,0,0,.00654,5.406.94784.94784,0,0,0,.164,5.78759a.54278.54278,0,0,1,.109.43A2.1079,2.1079,0,0,0,.43053,7.011a3.9092,3.9092,0,0,1,.18776.76923A2.14678,2.14678,0,0,0,.96353,8.79779a1.59973,1.59973,0,0,1,.40582.94488,2.29984,2.29984,0,0,0-.06663.43c-.01211.15142-.03028.48455-.05451.745a1.73066,1.73066,0,0,0,.03634.64809.30423.30423,0,0,1,.00606.29679c-.05452.09691-.04846.17565.04845.3513.109.22411.109.23622.00606.50878a1.49994,1.49994,0,0,0-.03029.90854,1.84138,1.84138,0,0,1-.18776.60569,1.86407,1.86407,0,0,0-.218.93882,1.42368,1.42368,0,0,0,.103.636,1.57228,1.57228,0,0,1-.01817,1.175,2.96865,2.96865,0,0,0-.1272.45427,1.75733,1.75733,0,0,0,.0424.854c.07874.20593.07268.23622-.07268.533a1.45159,1.45159,0,0,0-.16354.53906c0,.12114-.00606.37553-.01211.55724a1.64235,1.64235,0,0,0,.02423.46032.25023.25023,0,0,1-.0061.2.47765.47765,0,0,0,.01817.28467.51064.51064,0,0,1-.0424.4361,5.12437,5.12437,0,0,0-.24833,2.126c.06662.12719.05451.19382-.0424.424a1.80248,1.80248,0,0,0,.07268,1.52029c.23016.59357.24228.6602.15142.93276a1.56586,1.56586,0,0,0-.09085.43.62582.62582,0,0,1-.05451.2665c-.07268.11509.04845.38159.15748.33919.0424-.01817.12114-.04845.16959-.06662.05451-.02423.28468.16353.66021.55117.50878.50878.60569.58147.80556.59964a.8183.8183,0,0,0,.3937-.06663c.33313-.16353.69049-.65414.636-.87219-.03029-.103.05451-.24228.29679-.49061a.26366.26366,0,0,0,.06057-.24834.37287.37287,0,0,1,.06057-.27256.21153.21153,0,0,0,.02422-.26044.36125.36125,0,0,1-.00605-.30891.40514.40514,0,0,0,.03028-.23622.19515.19515,0,0,1,.03029-.16353.20119.20119,0,0,0,.006-.19382c-.03634-.06057-.01211-.15748.06663-.29679a.5475.5475,0,0,0,.09085-.34525.904.904,0,0,1,.09691-.424,1.75482,1.75482,0,0,0,.18171-.75106c0-.1817-.05451-.91459-.07268-.99939-.0424-.17565.18776-.47244.32707-.41792A4.83162,4.83162,0,0,1,5.2276,23.183a5.2939,5.2939,0,0,1,.30284,1.16293c.02423.218.07874.59963.109.848a6.38813,6.38813,0,0,0,.15142.745.53.53,0,0,1,.02423.4361.42728.42728,0,0,0,.00606.34524c.06056.18171.05451.218-.103.44215a1.72317,1.72317,0,0,0-.218.41187.96693.96693,0,0,1-.33919.38765,1.00728,1.00728,0,0,0-.30284.29678.59232.59232,0,0,1-.1696.25439c-.44215.49061-.55723.64809-.55723.75106a.83509.83509,0,0,1-.01212.15142,1.01915,1.01915,0,0,0,.27862.24228c.321.218.3937.218.89037-.01211a1.61977,1.61977,0,0,0,.71471-.5633.94384.94384,0,0,1,.34525-.2665.962.962,0,0,0,.424-.36341,1.25336,1.25336,0,0,1,.35736-.35736c.19988-.12114.26044-.26045.2665-.59964a.70949.70949,0,0,1,.15748-.50878c.0848-.06057.09085-.103.03634-.20593-.06057-.109-.04845-.15142.06663-.25439.315-.29073.40581-.38764.38158-.424-.01817-.02422.0424-.12113.12114-.218a.692.692,0,0,0,.16354-.32708c0-.08479.01211-.2241.01817-.321a.54607.54607,0,0,1,.12114-.28468c.09085-.09691.09691-.14536.03634-.28467A2.789,2.789,0,0,1,8.462,23.5586a8.91191,8.91191,0,0,0,.03032-1.0176c-.0424-1.83524-.03634-1.811-.19988-2.14414A11.32024,11.32024,0,0,1,7.82,19.246c-.0424-.12719-.09692-.23016-.1272-.23016a5.36067,5.36067,0,0,1-.533-1.07207.16141.16141,0,0,0-.07874-.12114c-.13931-.07874-.30284-.37553-.2665-.47244a.166.166,0,0,0-.03634-.16354,1.939,1.939,0,0,1-.218-.36947.87693.87693,0,0,0-.315-.37553,3.09646,3.09646,0,0,1-.46638-.3513,5.397,5.397,0,0,0-.4361-.34524c-.30285-.20594-.49667-.44216-.45427-.56935a4.50552,4.50552,0,0,0,.18171-1.10236,1.91822,1.91822,0,0,1,.08476-.5633c.06057-.103.05452-.15142-.02422-.23016s-.09086-.15748-.05451-.40582a2.67007,2.67007,0,0,0-.02423-1.14475.43868.43868,0,0,1-.01212-.33919.76793.76793,0,0,0,.05452-.28467,5.2427,5.2427,0,0,0-.02423-.75106c-.01212-.15142-.03634-.43-.05451-.62386a1.16485,1.16485,0,0,0-.103-.44216.92189.92189,0,0,1-.09086-.38764A1.30678,1.30678,0,0,0,4.7491,8.501.22655.22655,0,0,1,4.737,8.29507.54617.54617,0,0,0,4.7067,7.968a.68691.68691,0,0,1-.04845-.315c.01817-.0424-.01817-.1272-.07268-.18171A.23766.23766,0,0,1,4.525,7.2412a3.45061,3.45061,0,0,0,.06057-.46033c.01211-.18171.04845-.49061.08479-.68443a1.06931,1.06931,0,0,0,.00606-.48455A4.01536,4.01536,0,0,1,4.5189,4.59433c.01211-.04846.0424-.15748.06057-.24834a.27937.27937,0,0,1,.15143-.19987.69708.69708,0,0,1,.5209.16959,1.76764,1.76764,0,0,0,.34524.2241,1.38288,1.38288,0,0,1,.41187.315.4059.4059,0,0,0,.23622.1696.60355.60355,0,0,1,.27862.13325,1.542,1.542,0,0,0,1.0115.218.39355.39355,0,0,0,.22411-.23622,1.72679,1.72679,0,0,1,.6178-.6602c.03029,0,.05451-.0424.05451-.09086A.41747.41747,0,0,1,8.571,4.15822,5.43007,5.43007,0,0,0,9.27967,2.8136a2.01037,2.01037,0,0,0,.18171-1.07813,1.01256,1.01256,0,0,0-.18777-.35736A1.43861,1.43861,0,0,1,9.098,1.08132.73439.73439,0,0,0,8.95865.88144,3.1875,3.1875,0,0,0,7.75333.37266a1.245,1.245,0,0,1-.4361-.109A1.41393,1.41393,0,0,0,6.92353.1425,1.85836,1.85836,0,0,1,6.4329.08193C5.803-.03315,5.67581-.0271,5.482.15461Z"/>

</g>
</svg>
