<?xml version="1.0" encoding="UTF-8"?>
<svg xmlns="http://www.w3.org/2000/svg"
     version="1.1"
     width="19.08495601mm"
     height="56.17998820mm"
     viewBox="0.00000000 0.00000000 54.09905584 159.25038185">

<g transform="scale(4.28563383)">   <defs>
      <style type="text/css"><![CDATA[
      .a {
        stroke: #000;
        stroke-linecap: round;
        stroke-linejoin: round;
        stroke-width: 0.01px;
      }
    ]]></style>
   </defs>
   <path class="a"
         d="M4.275.32088a2.423,2.423,0,0,0-.36947.4785.59556.59556,0,0,1-.55118.33918.86293.86293,0,0,0-.321.07269.444.444,0,0,1-.27862.03634,1.65893,1.65893,0,0,0-.5633.06057c-.40581.09691-.41792.109-.642.45427a1.8713,1.8713,0,0,1-.2665.36341c-.01817,0-.21805.01211-.44216.01817a.88588.88588,0,0,0-.6178.19382c-.20594.1696-.218.19382-.218.54512,0,.32708.01817.38765.14537.46639a.7466.7466,0,0,1,.2241.32707,1.57917,1.57917,0,0,0,.16344.36341.401.401,0,0,1,.04845.28468c-.01817.0848-.01211.16354.02423.18776A2.05818,2.05818,0,0,1,.974,5.28149a1.41758,1.41758,0,0,0,.46638.69653,1.30088,1.30088,0,0,1,.23016.321c.02423.07874.07268.11507.1272.09691a.23906.23906,0,0,1,.20593.08479c.11508.11508.11508.13325.02423.3089-.17565.34524-.07874.65415.3513,1.0963.25439.2544.424.3816.533.38764.18776.01212.424.1272.424.19988,0,.03029.06663.07268.14537.09086a1.74437,1.74437,0,0,1,.58146.73894,1.7644,1.7644,0,0,0,.27862.36341,4.79821,4.79821,0,0,0,.527.533l.16959.15748-.13931.23623a1.816,1.816,0,0,1-.321.38159,2.84544,2.84544,0,0,1-.93277.50878c-.03028-.01817-.08479,0-.12114.04845a1.16678,1.16678,0,0,1-.315.18777,1.97666,1.97666,0,0,0-.424.27861,1.25425,1.25425,0,0,1-.36947.23017,1.60862,1.60862,0,0,0-.48455.2665,1.22005,1.22005,0,0,1-.41187.13325.66147.66147,0,0,0-.59358.89642c.03634.14537.46638.59358.55724.57541a.51969.51969,0,0,1,.19382.03029,2.90131,2.90131,0,0,0,1.07207.09085.433.433,0,0,1,.30285.00606,1.44508,1.44508,0,0,0,.37552.06662c.103-.00605.25439-.00605.3513-.00605h.24228a5.23227,5.23227,0,0,0,1.0539-.07269,1.323,1.323,0,0,1,.424-.07874c1.25378-.11508,1.34463-.0424.82374.68443-.18777.26045-.40582.58147-.49061.71472a5.31021,5.31021,0,0,1-.56935.6602c-.30285.30285-.41187.45427-.38764.533a.2836.2836,0,0,1-.0848.23016c-.06057.06057-.09691.1272-.07268.15143a.548.548,0,0,1-.09086.29073c-.19988.40581-.24833.60569-.1817.77528a2.07725,2.07725,0,0,1,.12719.78134,1.11443,1.11443,0,0,0,.13325.54513,1.89829,1.89829,0,0,1,.23622.69654,2.915,2.915,0,0,0,.13931.3513c.103.22411.11508.321.07268.41187a.23343.23343,0,0,0-.01211.21805.44057.44057,0,0,1,0,.3089.99.99,0,0,0-.02423.36947,2.74375,2.74375,0,0,1,.06663.38159,1.43427,1.43427,0,0,0,.109.3937,1.09118,1.09118,0,0,1,.0848.41792.94318.94318,0,0,0,.09085.3937.65371.65371,0,0,1,.07874.32708.581.581,0,0,0,.06663.29679.21781.21781,0,0,1,.01211.24832.32144.32144,0,0,0,.03029.30891c.07268.13931.07874.20594.02422.29678a5.85315,5.85315,0,0,0-.25439,1.56268.98214.98214,0,0,0,.11509.41188c.07268.109.07874.15748.01817.26045a.32778.32778,0,0,0-.04846.18776,6.7471,6.7471,0,0,1,.03634.72682,3.55075,3.55075,0,0,0,.12114.95094.74423.74423,0,0,1,.02423.54512,3.74437,3.74437,0,0,0-.0848.6602,1.77146,1.77146,0,0,1-.07874.51484,2.25632,2.25632,0,0,0-.07874.72077c.02423.26045.06663,1.29012.06057,1.36281-.04845.52089-.01817.7874.11508.95093a1.1369,1.1369,0,0,1,.34525.98729,1.354,1.354,0,0,0,.11508.67232.55842.55842,0,0,1,.09691.25439.539.539,0,0,0,.09691.24837.98225.98225,0,0,1,.109.29679c.0424.38158.86008.94488,1.33858.91459a3.62048,3.62048,0,0,0,.98122-.13326.87238.87238,0,0,1,.3513-.06056,1.08922,1.08922,0,0,0,.41187-.06664,3.54934,3.54934,0,0,0,.89037-.854.4155.4155,0,0,1,.12719-.18776.58061.58061,0,0,0,.13931-.40581,1.72454,1.72454,0,0,1,.16354-.55724,1.31861,1.31861,0,0,0,.14536-.7026c0-.321.03029-.46638.103-.54513.09085-.109.09085-.13325-.03028-.38158-.12114-.24228-.1696-.27862-.48456-.37553a1.36239,1.36239,0,0,1-.49061-.24833c-.218-.22411-.34524-.44822-.30284-.55118a.34205.34205,0,0,0-.05451-.23622,1.64683,1.64683,0,0,1-.09692-.58752,3.39567,3.39567,0,0,0-.06662-.58147.334.334,0,0,1,0-.218,1.09264,1.09264,0,0,0,.06662-.37553,1.3371,1.3371,0,0,1,.06057-.35736c.02423-.03634-.01211-.14537-.07874-.23622l-.12719-.16354.13325-.212a.91271.91271,0,0,0,.103-.6602,1.53594,1.53594,0,0,1,.02423-.533.22415.22415,0,0,0-.0424-.218c-.04846-.07874-.07269-.16959-.04846-.19988a.7743.7743,0,0,0-.03634-.321,2.62453,2.62453,0,0,1,.01206-1.35686,1.56926,1.56926,0,0,0-.03634-.99333.38294.38294,0,0,1,.03634-.25439,2.53144,2.53144,0,0,0,.19383-.77529.69585.69585,0,0,0-.06663-.321.35.35,0,0,1-.0424-.22411A.46.46,0,0,0,9.6112,22.998a.3382.3382,0,0,1,.03634-.41187,1.62062,1.62062,0,0,0,.17565-.89036,1.72963,1.72963,0,0,1,.05451-.43.31484.31484,0,0,0-.03634-.27862.27712.27712,0,0,1-.05451-.218.13084.13084,0,0,0-.03028-.14538.67322.67322,0,0,1-.15143-.218.2823.2823,0,0,1-.00605-.35129c.05451-.09691.07268-.18776.05451-.212a1.54522,1.54522,0,0,1-.07269-.642,3.29537,3.29537,0,0,0-.03028-.71472.94469.94469,0,0,1,.01817-.41792c.06663-.1272-.02423-.33919-.23622-.55724a1.64356,1.64356,0,0,1-.33919-.84191A3.08153,3.08153,0,0,0,8.57544,15.554c-.103-.11508-.14537-.22411-.11508-.28467a1.75129,1.75129,0,0,0,.05451-.26046.61939.61939,0,0,1,.33313-.50273c.06662-.01817.12114-.06662.12114-.103a8.71725,8.71725,0,0,1,1.34463-1.29618,3.01754,3.01754,0,0,0,.8722-.95094,1.56311,1.56311,0,0,1,.32707-.40581c.03028,0,.103-.0848.15142-.18171a1.4712,1.4712,0,0,1,.41793-.3937c.29679-.18776.36947-.26044.3937-.424A.68859.68859,0,0,1,12.573,10.563a.20539.20539,0,0,0,.03028-.20594.22494.22494,0,0,1-.02422-.15142c.03634-.09086-.64809-.28468-.94488-.26651a2.23594,2.23594,0,0,0-.4785.09691.86628.86628,0,0,1-.38764.0424,3.1921,3.1921,0,0,0-.55724-.06662c-.23016-.01212-.533-.03029-.66626-.0424a2.85024,2.85024,0,0,1-1.1387-.53907,1.276,1.276,0,0,1,.14537-.44821c.1272-.28467.20594-.38764.321-.41792.08479-.01818.15748-.06057.15748-.09086A1.884,1.884,0,0,1,9.31436,8.116a3.83456,3.83456,0,0,0,.46033-.62386,2.61441,2.61441,0,0,1,.32707-.47244,1.0164,1.0164,0,0,0,.20593-.38158l.109-.4361a.95594.95594,0,0,1,.14536-.315.71789.71789,0,0,0,.1272-.23016.64682.64682,0,0,1,.15748-.23622.37449.37449,0,0,0,.12114-.16354,3.325,3.325,0,0,1,.1817-.44215,1.93628,1.93628,0,0,0,.18171-.51484.66189.66189,0,0,1,.06663-.25439A3.9503,3.9503,0,0,0,11.513,2.889a1.09984,1.09984,0,0,0-.38764-.81163c-.09691-.11508-.16354-.13325-.48456-.109a.7789.7789,0,0,0-.67231.29679,1.94272,1.94272,0,0,1-.424.315A.98543.98543,0,0,0,9.25991,2.78a2.02276,2.02276,0,0,1-.533.43c-.20593.109-.23622.16959-.18171.36341a.4267.4267,0,0,1,0,.24833c-.03028.0424-.0424.103-.02422.1272s-.00606.109-.0424.18171a1.89748,1.89748,0,0,0-.14537.83585,1.98425,1.98425,0,0,1-.13931.82374,1.4072,1.4072,0,0,0-.103.28468.76384.76384,0,0,1-.16959.315.7095.7095,0,0,0-.1514.21813.24092.24092,0,0,1-.321.17565,3.29076,3.29076,0,0,1-.68443-1.35674.72.72,0,0,0-.16353-.4361.53322.53322,0,0,1-.14537-.28468,1.18915,1.18915,0,0,0-.17567-.38766c-.13325-.19988-.15142-.27256-.103-.36947.04846-.09085.03029-.15748-.07874-.3089-.12114-.16354-.13931-.23016-.09085-.38159a.9565.9565,0,0,1,.07874-.218c.01817-.01211.00605-.07874-.02423-.13325a4.96593,4.96593,0,0,1-.14537-1.22349.909.909,0,0,0-.17565-.51484,1.50792,1.50792,0,0,1-.1999-.50273A1.161,1.161,0,0,0,5.34105.19974C5.20174.018,5.15328-.00014,4.88072.006,4.59605.006,4.55971.03015,4.275.32088Z"/>

</g>
</svg>
