<?xml version="1.0" encoding="UTF-8"?>
<svg xmlns="http://www.w3.org/2000/svg"
     version="1.1"
     width="28.08700459mm"
     height="42.79154336mm"
     viewBox="0.00000000 0.00000000 79.61674639 121.29890821">

<g transform="scale(5.40924245)">   <defs>
      <style type="text/css"><![CDATA[
      .a {
        stroke: #000;
        stroke-linecap: round;
        stroke-linejoin: round;
        stroke-width: 0.01px;
      }
    ]]></style>
   </defs>
   <path class="a"
         d="M10.43067.03233a.15036.15036,0,0,1-.1393.01817A4.65026,4.65026,0,0,0,8.81954.741a3.01632,3.01632,0,0,1-.5633.321,3.4435,3.4435,0,0,0-.94487.69655,3.53724,3.53724,0,0,0-.75106.93882c-.16959.30284-.59358.745-.67232.69654-.03028-.01817-.06057.00606-.06057.06057,0,.12114-.321.424-.54512.51484-.09085.03634-.16354.09691-.16354.13931A11.52177,11.52177,0,0,1,4.19811,5.7137c-.07268.07874-.11508.16353-.09691.19382s-.03028.12719-.109.218c-.12114.13931-.13325.19382-.0848.33313.07874.20593.50273.37553.58752.23016A4.58014,4.58014,0,0,1,5.58515,5.5744c.19987-.16959.47849-.41187.61174-.53907l.24228-.23622.51484.0424c.315.02423.50878.01212.50878-.02422,0-.09692.35736-.24834.59358-.25439a2.15007,2.15007,0,0,1,1.30829.2241c.2241.16959.23622.19382.218.46033a1.25874,1.25874,0,0,0,.20593.48455,1.01114,1.01114,0,0,1,.24834.78134,3.85789,3.85789,0,0,0,.109.65415c.09085.34524.09085.39975.01211.55723a.3938.3938,0,0,1-.59963.15143,1.58107,1.58107,0,0,0-.46033-.15748c-.15142-.02423-.40581-.07874-.5754-.11509a2.76251,2.76251,0,0,0-1.31435.02423,5.63016,5.63016,0,0,1-1.11447.16354.26265.26265,0,0,0-.19988.15142.36893.36893,0,0,1-.15748.18171c-.04846.02423-.09085.06662-.09085.09691a2.01518,2.01518,0,0,1-.44822.66626,1.24171,1.24171,0,0,0-.3089.06663,1.4489,1.4489,0,0,0-.44821.54512.65525.65525,0,0,1-.49061.49666c-.16959.05452-.29073.1272-.27256.15748.06663.103-.15142.40582-.33313.46639a.61643.61643,0,0,0-.29073.26651,3.04585,3.04585,0,0,1-.41793.50877,1.299,1.299,0,0,0-.32707.41187c-.00606.05451-.01817.12115-.02423.15748-.00606.03029-.01817.103-.02423.15142a.453.453,0,0,1-.15142.23016c-.07268.07269-.25439.23622-.3937.36948a.65545.65545,0,0,0-.24833.37552c0,.13326-.06663.22411-.321.43a1.111,1.111,0,0,0-.18776.39975,1.20928,1.20928,0,0,1-.18777.40581.26339.26339,0,0,0-.09085.1696,2.16646,2.16646,0,0,1-.54512.79951c-.16354.09085-.17565.69049-.01212.78134a.49935.49935,0,0,0,.58147-.0424.749.749,0,0,1,.23016-.13325c.03028,0,.04845-.03634.03028-.07874a.75872.75872,0,0,1,.315-.55723.24086.24086,0,0,0,.14537-.11509,1.55529,1.55529,0,0,1,.38764-.315,1.95645,1.95645,0,0,0,.37553-.29073c.05451-.12719.25439-.27256.33919-.24226.04845.02422.09085.00605.09085-.03634a3.82363,3.82363,0,0,1,1.11448-.545c.05451,0,.09691-.02422.09691-.06057A.74663.74663,0,0,1,4.077,13.4242a.70887.70887,0,0,1,.47243-.17565.96307.96307,0,0,0,.35736-.06662.70323.70323,0,0,1,.28468-.06663,1.67391,1.67391,0,0,0,.50878-.17565c.33313-.16353.35736-.16959.527-.07874a.93758.93758,0,0,0,.29073.103.32169.32169,0,0,1,.19382.12114c.18171.24227-.11508.50272-1.32646,1.1387a3.83258,3.83258,0,0,0-1.18716,1.11447.88152.88152,0,0,1-.32707.33919,1.02847,1.02847,0,0,0-.33919.34524,1.20519,1.20519,0,0,1-.44821.41793,2.21136,2.21136,0,0,0-.72683.642A.734.734,0,0,0,2.52451,18.107q.02163.01554.04435.02949a.2183.2183,0,0,0,.29678-.06057c.11509-.11508.13326-.11508.27256-.02423.13931.0848.15748.0848.321-.03634.09691-.07268.20594-.109.24228-.09085a.65173.65173,0,0,0,.321-.03029c.14537-.04239.29074-.07874.321-.09085a3.42471,3.42471,0,0,0,.86008-.35736.84494.84494,0,0,1,.30285-.15142A4.87,4.87,0,0,0,6.524,16.71311a3.55156,3.55156,0,0,1,.59357-.29679,1.17323,1.17323,0,0,0,.40582-.218c0-.09085.38764-.25439.59357-.24833a.653.653,0,0,0,.37553-.11509c.15748-.12113.19382-.12113.48456-.05451a4.86423,4.86423,0,0,0,.82374.0848c.47243.00606.52089.01817.6602.17565a.50238.50238,0,0,0,.25439.16354.746.746,0,0,1,.59358.54512c.00605.01817.06662.12114.13325.23622a1.32852,1.32852,0,0,1,.04845.97516,2.00309,2.00309,0,0,0-.05451.36341.86727.86727,0,0,1-.05451.28468.2918.2918,0,0,0,.01211.212,1.01764,1.01764,0,0,1-.20593.75712.15461.15461,0,0,0-.09086.13325,2.52819,2.52819,0,0,1-.36947.94488,5.19914,5.19914,0,0,0-.36341.44821c-.18171.24833-.23622.36947-.20594.47849.02423.103-.01817.22411-.15142.424a1.63878,1.63878,0,0,0-.18171.32707c0,.103.17565.11508.321.02423a7.056,7.056,0,0,0,1.2235-1.25984.79256.79256,0,0,1,.218-.29073c.03029,0,.05452-.03634.05452-.0848a.67884.67884,0,0,1,.13325-.25439.50226.50226,0,0,0,.12114-.30891c-.01817-.09691.06057-.21805.25439-.41793.33918-.33313.39975-.44215.39975-.68443a.52651.52651,0,0,1,.27862-.4361,2.46059,2.46059,0,0,0,.48455-.81768,1.12936,1.12936,0,0,1,.13935-.35737.51023.51023,0,0,0,.09086-.29679,2.57154,2.57154,0,0,1,.67837-1.169.088.088,0,0,0,.04846-.109,1.00723,1.00723,0,0,1,.27861-.58752,1.54756,1.54756,0,0,0,.0848-.65415,4.10437,4.10437,0,0,1,.06057-.745c.03028-.06057.02423-.103-.01817-.103-.03634,0-.11508-.103-.18171-.23015-.103-.19988-.103-.24228-.03028-.38764.07874-.14538.06662-.1696-.13326-.38159a3.012,3.012,0,0,1-.36947-.53906,2.88721,2.88721,0,0,0-.29679-.4785,1.36342,1.36342,0,0,1-.218-.41793c-.06663-.23016-.109-.2665-.51484-.44821a1.53348,1.53348,0,0,1-.44215-.26046.36236.36236,0,0,0-.12113-.17565.79086.79086,0,0,1-.20594-.53907.53023.53023,0,0,0-.09691-.23016.43546.43546,0,0,1-.0848-.218c-.00605-.07268-.09691-.16959-.24227-.25439A1.24782,1.24782,0,0,1,11.3877,8.93c-.09691-.13325-.103-.17565-.0424-.315a.3148.3148,0,0,0-.00606-.33313,1.089,1.089,0,0,1-.09085-.28468,1.14675,1.14675,0,0,0-.06057-.218c-.0424-.109.20593-.41187.43-.527a1.4482,1.4482,0,0,0,.321-.47849,3.41424,3.41424,0,0,1,.29678-.5209c.07269-.07874.07874-.13325.02423-.24833a.23755.23755,0,0,1,.01822-.26642c.04846-.06057.07269-.13326.05451-.15143-.02422-.01817.02423-.13931.103-.2665a.68816.68816,0,0,0,.1272-.28468.63091.63091,0,0,1,.09085-.24227.54892.54892,0,0,0,.07874-.39976.64871.64871,0,0,1,.0424-.37553.40452.40452,0,0,0,.04845-.24227.24811.24811,0,0,1,.05452-.19988c.07268-.103.07268-.13325-.00606-.25439-.0848-.1272-.0848-.15748.01817-.3089a.60527.60527,0,0,0,.103-.315,2.08142,2.08142,0,0,0-.45427-1.04179.24392.24392,0,0,1-.0848-.212c.04846-.12114-.15142-.4361-.51483-.81769a1.99023,1.99023,0,0,1-.29688-.3513,2.00227,2.00227,0,0,0-.66626-.218C10.60632-.004,10.50336-.01007,10.43067.03233Z"/>

</g>
</svg>
