<?xml version="1.0" encoding="UTF-8"?>
<svg xmlns="http://www.w3.org/2000/svg"
     version="1.1"
     width="25.89519000mm"
     height="54.83110585mm"
     viewBox="0.00000000 0.00000000 73.40364479 155.42682575">

<g transform="scale(5.24842214)">   <defs>
      <style type="text/css"><![CDATA[
      .a {
        fill: #000;
        stroke: #000;
        stroke-width: 0.15px;
      }
    ]]></style>
   </defs>
   <path class="a"
         d="M6.93719,4.08877c-.23848.83393-1.24672.56727-1.512,1.29653a3.92333,3.92333,0,0,0,.12632,1.99041,12.76207,12.76207,0,0,1-.01628,2.70006L5.46272,12.485c-.015.49888-.0831,1.0234-.04962,1.52088.03543.53208.17752,1.03093.20125,1.56267a6.48251,6.48251,0,0,0,.39752,1.58131c.098.32.09847.72376.17155,1.03418.0802.335.183.68867.236,1.02284a7.53814,7.53814,0,0,1,.204,1.47107c-.03.835.03258,1.657.00719,2.50092a10.10366,10.10366,0,0,0,.0333,1.05183c.08179,1.12011-.26392,2.2307-.16974,3.35509.01423.17072.12.39335.1337.58292.02512.327.29719.7269.14592,1.05144a.65762.65762,0,0,1-.80574.28419,7.19828,7.19828,0,0,0-1.0342-.308,1.03965,1.03965,0,0,1-.89193-.61716,2.7104,2.7104,0,0,1,.11744-.9396,49.783,49.783,0,0,0,.21511-5.44036,10.38348,10.38348,0,0,0-.37835-3.41372c-.39442-1.29741-.55239-2.62517-.91446-3.93527-.64886-2.34967-.91583-4.91642-2.00633-7.12592a8.39521,8.39521,0,0,1-.9727-1.86707c-.19686-1.12751.70652-1.85493,1.2258-2.711C1.88025,2.24045,1.80531.54259,3.03736.268a14.74364,14.74364,0,0,1,1.7187.02353c.59727-.06182,1.771-.52735,2.18654.13484.24428.38973.02455,1.0852.04157,1.51976A6.46691,6.46691,0,0,1,6.93719,4.08877Z"/>
   <path class="a"
         d="M12.19274,16.80441a.449.449,0,0,1,.25632-.04044,1.30322,1.30322,0,0,1,.56028.23106,2.10112,2.10112,0,0,1,.85847.92683c.27737.70911-.8605,1.23625-1.27415,1.608a7.00373,7.00373,0,0,1-2.04819.84179,9.18225,9.18225,0,0,0-1.86613,1.26956,17.93971,17.93971,0,0,0-2.15647,2.02535,19.45331,19.45331,0,0,1-1.74624,2.18221c-.08846.07192-.19663.08961-.28843.1736-.05192.04915-.003.133-.07732.1869-.14179.10195-.23574.19466-.42934.11765a2.94392,2.94392,0,0,1,.12927-1.29664c.19923-.46642.63829-.78172.84891-1.2406,1.05538-2.29782,2.86971-3.29443,4.55534-4.97766a20.3185,20.3185,0,0,1,1.55778-1.40089,5.39749,5.39749,0,0,1,.81127-.37229C12.03615,16.94935,12.09514,16.85656,12.19274,16.80441Z"/>

</g>
</svg>
