<?xml version="1.0" encoding="UTF-8"?>
<svg xmlns="http://www.w3.org/2000/svg"
     version="1.1"
     width="66.43959529mm"
     height="29.47411636mm"
     viewBox="0.00000000 0.00000000 188.33273012 83.54868068">

<g transform="scale(3.97101662)">   <defs>
      <style type="text/css"><![CDATA[
      .b {
        stroke: #000;
        stroke-linecap: round;
        stroke-linejoin: round;
        stroke-width: .01px;
      }
    ]]></style>
   </defs>
   <path class="b"
         d="M11.10152.02681c-.06641.02344-.33594.21484-.60156.41406-.26172.19922-.63281.46484-.80859.58594-.18359.11719-.40625.33594-.50391.48828-.09375.16016-.34375.39063-.55078.52734-.48828.32031-.67188.58203-.64063.91016.02344.21875.05469.26563.26563.28125.13281.01563.41406-.05469.69531-.19141.58203-.28125.75-.21484,1.07813.41406.16016.32031.37109.57813.64844.79297.3125.24219.54297.52734.89844,1.12109.26172.4375.47656.86328.47656.93359,0,.21875-.375.60156-.78125.79297-.20703.10547-.57031.30469-.80859.45703-.23047.15234-.625.35938-.85547.47266-.48828.22266-1.41016.82422-1.70313,1.11719-.11328.10547-.53125.41016-.92969.66406-.39063.25-.80859.55469-.92188.68359-.10938.11719-.32813.27734-.49609.36719-.15625.07813-.44531.27734-.64453.44531-.19531.16797-.47266.37891-.61719.46484-.87891.52734-1.72656,1.15234-2.08203,1.51953-.14844.16016-.45313.42578-.67969.58594-1.19922.87109-1.67969,1.48047-1.49609,1.88672.05078.10547.21875.28906.37891.41797.23828.18359.39844.22266.98438.27734.42187.03516.83984.12109,1.05469.22656.19922.08594.42188.16797.50391.16797.07031,0,.48828.15234.90234.32813.65625.27734.83203.32812,1.16797.29297.49609-.04688.71484-.24609.89844-.83203.09375-.30859.26953-.58203.55078-.90234.23047-.24609.60156-.76953.81641-1.16016.23828-.43359.60938-.91797.91797-1.23828.28906-.28906.64844-.76172.79297-1.04297.15234-.28516.46484-.71094.70313-.95703.24219-.24219.54688-.65625.67188-.92188.66406-1.34375,1.43359-2.60938,1.58594-2.60938.03906,0,.24609-.14063.45703-.32813.40625-.33594.91016-.62891,1.08594-.62891.05859,0,.41797.15234.80859.34375.60938.29688.75391.41406,1.13672.89453.47266.59375.51172.70313.3125,1-.25.36719-1.19141,1.28906-1.47266,1.44141-.38281.19141-.52734.375-.64063.78125-.07813.30469-.13672.37109-.43359.50391-.32422.14453-1.48438,1.25781-1.48438,1.43359,0,.03906-.17969.16797-.39453.28125-.22266.10938-.6875.47266-1.03906.80078s-.67969.59766-.72656.59766c-.1875,0-.72266.59375-.80078.87891-.11328.40234-.34375.69141-.73828.89063-.18359.09375-.55078.35938-.83203.59766-.27734.23437-.71875.53906-.96484.66406-.25781.12891-.57031.34375-.70703.48828-.125.14453-.40625.34375-.60547.44922-.21875.10547-.44922.30469-.55469.47266-.09375.15234-.22266.30469-.27734.33594-.05859.03906-.21875.19922-.35156.375-.48828.61719-.22656,1.03125.55078.86328.19922-.03906.63281-.05469.96875-.03125.51172.02344.71094,0,1.21484-.17578.64844-.22266,1.34375-.26563,2.09766-.12109q.95703.17578,1.48828-.04688c.27734-.12891.63672-.35156.79688-.51172s.46484-.43359.67969-.61719c.28125-.23047.59375-.64844,1.09766-1.48047.38281-.63672.69531-1.23828.69531-1.34375,0-.10156.24219-.64844.52734-1.19922.48047-.91016.53906-1.0625.59375-1.66406.04688-.47266.12109-.74219.26953-1,.11328-.19141.25781-.57422.32031-.86328.06641-.28125.19531-.60938.28906-.71875.08984-.11328.26563-.40234.39063-.64063.24219-.46484.57031-.72266.91406-.72266.11328,0,.46484.11328.78516.25.32813.14453.87891.35156,1.23047.47266.35156.12891.83984.32031,1.08203.42969.28516.13672.57422.21094.83984.21094.22266,0,.60547.07031.86328.16016.24609.08594.58984.16016.75781.16016s.44922.07813.63281.17578c.18359.10156.51172.27734.73828.40625.54297.29688,1.36719.48047,1.64453.375.53125-.19922,2.38672.39453,2.50391.79297.06641.22266.05859,1.95313-.00781,3.0625-.03906.78516-.16797,1.07422-.51953,1.15234-.11719.03516-.45313.18359-.75.33594-.58594.29688-.55469.29688-1.94531.12891-.32813-.03906-.49609-.00781-.89453.16016-.32031.13672-.64844.20703-.91406.20703-.54297,0-.90234.21875-1.33594.80078-.42969.59375-.48828.86328-.26172,1.22266.14453.23438.22266.28125.55859.32813.23047.03516.54297.00781.76172-.04688.32813-.08594.42188-.07813.78906.05469.38672.14453.63281.16016,3.09766.16797,1.9375,0,2.83203.03516,3.23828.11328.3125.05859.70703.10547.88281.10547.17578-.00781.78906-.00781,1.35938-.01563h1.32031c.4375-.00781,1.67188-.13672,2.23828-.24219,1.30469-.23828,1.57031-.26172,2.14453-.21484.44922.03906.76953.01563,1.17578-.08203.41797-.09375,1.05469-.13281,2.44141-.15625,1.03125-.01953,2.51172-.06641,3.27734-.10547.76953-.04688,1.60156-.08984,1.83984-.08984.76953,0,1.20313-.44531,1.02734-1.07813-.10547-.40234-.24219-.44141-1.35547-.44141-.55859,0-1.10938-.03125-1.21484-.07031-.32031-.12891-1.32813-.12891-2-.00781-.56641.09375-.67969.09375-1.20703-.03125-.39844-.10547-.67969-.12891-.89453-.08984-.16797.03125-.61719.07031-.99219.08984-.37891.01563-.89844.04688-1.16016.07813-.37891.03906-.58594.01563-.96094-.12109-.55078-.19141-.92188-.20703-1.64063-.04688-.74219.16016-.96094.15234-1.48828-.09766-.38281-.17578-.60156-.22266-1.15234-.23828-1.10938-.02344-2.17578-.28125-2.35938-.57422-.07813-.14453-.35938-1.32031-.36719-1.57031-.01563-.55859.15234-2.17578.23828-2.34375.05078-.09375.19141-.19141.3125-.21484s.39063-.08203.60156-.12891c.20703-.04688.53516-.09766.71875-.11328.70313-.05469,1.63281-.19922,2.01563-.3125.22266-.0625.63281-.19141.92188-.27734.28516-.09766.67969-.16797.87891-.16797.19922-.00781.50391-.03906.67969-.08203.71875-.16016,1.03906-.25391,1.13672-.33594.15234-.11719,1.81641-.69531,2.38281-.81641.26563-.0625.67969-.21484.92188-.35156.24609-.13672.67188-.32031.94922-.40625.32031-.09766.70703-.3125,1.07422-.59375.32031-.23828.76563-.53516,1.00781-.66406.23828-.125.6875-.46094,1-.75s.75-.64063.98438-.78516c.55859-.35938,1.14453-.99219,1.14453-1.25391,0-.26563-.26563-.52344-.53906-.52344-.19922,0-.33594.06641-.96484.49609-.11328.07422-.37109.15234-.57813.1875-.26953.03906-.48047.13281-.75781.36719-.21094.16797-.41016.3125-.45703.3125-.03906,0-.24219.15234-.44922.34375-.49609.45313-.92578.69531-1.89453,1.0625-.50391.18359-.97656.43359-1.28125.65625-.48828.375-1.09375.56641-1.79297.57422-.15234,0-.63672.11328-1.07813.25-.44922.13672-1.03906.32031-1.32813.41406-.38281.12109-.64063.14453-1.03906.11328-.44922-.03906-.58594-.01563-.92188.15234-.24609.12109-.54297.19141-.77734.19141-.20703,0-.46094.03125-.57422.08203-.44141.16797-1.88672.0625-2.10547-.14453-.09375-.10547-.10938-.32031-.07031-1.36719.08984-2.23438.10547-2.52344.19922-3.12109.04688-.32813.07422-.76172.03906-.96094-.03906-.3125,0-.49609.21094-1.03125l.26172-.65625-.14453-.36719c-.07031-.19922-.26172-.48828-.40625-.64063-.27344-.27344-.28906-.27344-.99219-.27344-.79297,0-.87891.05859-1,.60156-.15234.69531-.19922.76563-.64844.96875-.50391.22266-.56641.32813-.64063,1.01563-.03906.39844-.02344.60547.07422.84766.10938.26172.10938.38281.03906.75781-.07422.34766-.07422.53125,0,.80078.07813.29688.07031.41016-.03125.64844-.08984.21484-.10547.43359-.06641.82422.06641.6875-.0625,1.19141-.33594,1.3125-.15234.07031-.32031.07031-.69531-.01563-.26953-.05469-.65625-.12891-.85547-.16016-.52734-.07422-1.40625-.44922-1.87109-.80078-.48828-.35938-1.44922-.85547-1.99219-1.01563-.20703-.0625-.51953-.23047-.67969-.375s-.60938-.43359-.99219-.63281c-.45703-.25-.78516-.48828-.95313-.71094-.14453-.17578-.50391-.48047-.79297-.66406-.28516-.19141-.58984-.42578-.67969-.51953-.32031-.36328-1.32813-1.12891-1.64063-1.25-.26172-.11328-.35937-.20703-.52734-.56641-.23047-.47266-.55859-.74609-.93359-.74609-.53125,0-1.30469-.65625-1.57813-1.32813-.15234-.36719-.25391-.49609-.63281-.74219-.24609-.16016-.55859-.36719-.6875-.46484-.26172-.18359-.57422-.27344-.75781-.20703ZM8.73043,10.09712c.11328.10547.11328.15234.01953.33594-.06641.12109-.21094.30469-.32813.41797-.12109.10938-.30469.38281-.40234.59766-.11719.27344-.33594.53906-.64063.80078-.25391.20703-.49609.48828-.53516.60938-.03906.12891-.19922.30469-.35938.39844-.15234.09766-.36719.32031-.48047.50391-.38281.60938-.60938.60938-1.19922.02344-.23047-.23828-.42578-.46094-.42578-.50391,0-.03906.22656-.3125.50391-.60547.34375-.37891.63281-.59375.95313-.73047.25-.10938.49609-.27734.54297-.375.05078-.09766.22656-.23047.38672-.29688.44531-.18359.94922-.55859,1.10156-.81641.11328-.19141.49609-.46094.6875-.48047.03516-.00781.11328.05078.17578.12109ZM12.17183,14.81587c.15234.15234.15234.10547.01563.80859-.05469.3125-.19141.70703-.29688.875-.09375.16797-.29297.54297-.4375.83984-.3125.65625-.53516.76562-.92969.46875-.19141-.14063-.30469-.16797-.54297-.125-.50391.07813-.70313-.25781-.44922-.73828.15234-.27734,1.10547-1.19922,1.57031-1.51953.19922-.13672.45313-.35156.57422-.48828.24219-.27734.32031-.30469.49609-.12109Z"/>

</g>
</svg>
