<?xml version="1.0" encoding="UTF-8"?>
<svg xmlns="http://www.w3.org/2000/svg"
     version="1.1"
     width="23.34861169mm"
     height="52.53248774mm"
     viewBox="0.00000000 0.00000000 66.18504359 148.91091233">

<g transform="scale(6.56887650)">   <defs>
      <style type="text/css"><![CDATA[
      .a {
        stroke: #000;
        stroke-miterlimit: 10;
        stroke-width: 0.15px;
      }
    ]]></style>
   </defs>
   <path class="a"
         d="M3.36869,1.23394c-.6966.59613-1.27217.72151-1.2883,1.14367a.61315.61315,0,0,0,.13167.374c.5076.7363.57974,2.29067.64355,3.66535a27.28755,27.28755,0,0,1-.13537,3.97692c-.22461,2.47091-.58472,3.83721-.57589,5.41739a8.0598,8.0598,0,0,1-.056,1.031,4.96035,4.96035,0,0,1-.46042,1.82968c-.26947.51544-.40724.44773-1.0092,1.3433-.59288.88207-.55893,1.09608-.53125,1.1875.12353.408.776.53325,1.40625.65625a30.33349,30.33349,0,0,0,6.28124.71875,2.04288,2.04288,0,0,0,.86066-.22806,2.47072,2.47072,0,0,0,.7119-.64972c.44783-.57561.90792-1.37868.48723-1.97441-.33505-.47448-1.01849-.48714-1.59935-.4847a15.52765,15.52765,0,0,1-3.40028-.36268.40917.40917,0,0,1-.19487-.081c-.125-.11481-.0642-.34761-.05066-.40921a165.21863,165.21863,0,0,0,1.79259-16.742,1.57779,1.57779,0,0,0-.326-1.19316,1.56725,1.56725,0,0,0-1.65626-.25C3.931.40311,4.04842.65223,3.36869,1.23394Z"/>

</g>
</svg>
