<?xml version="1.0" encoding="UTF-8"?>
<svg xmlns="http://www.w3.org/2000/svg"
     version="1.1"
     width="20.99129026mm"
     height="29.10101639mm"
     viewBox="0.00000000 0.00000000 59.50282316 82.49104369">

<g transform="scale(5.77949253)">   <defs>
      <style type="text/css"><![CDATA[
      .a {
        stroke: #000;
        stroke-linecap: round;
        stroke-linejoin: round;
        stroke-width: 0.01px;
      }
    ]]></style>
   </defs>
   <path class="a"
         d="M3.06684.38053c-.47244.58752-.79951.90248-.90248.86008-.04846-.01817-.11508.01817-.15748.09085a.6555.6555,0,0,1-.23016.212,1.55479,1.55479,0,0,0-.4361.61174l-.27252.527.16959.14537c.18171.15142.18777.15748.86008.18171a5.55087,5.55087,0,0,1,.66626.05451c.13326.01817.36342.0424.51484.05451a1.49993,1.49993,0,0,1,.527.15142.63172.63172,0,0,0,.30891.103.51087.51087,0,0,1,.25439.02423.33275.33275,0,0,0,.36341-.06057,1.76618,1.76618,0,0,1,.32707-.18171.41432.41432,0,0,0,.218-.212,1.58592,1.58592,0,0,0-.03028-.93882.81632.81632,0,0,1-.09086-.2665A2.93923,2.93923,0,0,0,4.81729.91354C4.76883.82874,4.684.67126,4.63558.56224,4.5871.45927,4.5205.36841,4.49021.36841S4.3933.28362,4.33879.18671C4.24794.01106,4.22977.005,3.80578.005H3.36969Z"/>
   <path class="a"
         d="M6.065,7.09158a3.37032,3.37032,0,0,0-.36341.103,1.13688,1.13688,0,0,1-.45427.03634,1.31383,1.31383,0,0,0-.66626.03635,3.44481,3.44481,0,0,0-1.42338.52089,5.8445,5.8445,0,0,1-.6602.46638A4.04644,4.04644,0,0,0,1.807,8.836a1.99652,1.99652,0,0,1-.41187.321c-.212.103-.37553.3089-.61175.75711a.57362.57362,0,0,1-.23016.23622,1.18139,1.18139,0,0,0-.33313.23622.5001.5001,0,0,0-.212.46639c0,.23622.02423.27861.18776.36947.22411.13325.49667.13931.59964.01817a.516.516,0,0,1,.19988-.1272.98707.98707,0,0,0,.315-.20593,5.57,5.57,0,0,1,1.36886-.66626A1.94132,1.94132,0,0,0,3.0971,10.114a3.12577,3.12577,0,0,1,.745-.14536c.3513-.02423.43-.00606.533.09691.07269.07268.103.15142.07269.19988-.05452.09085-.70261.82374-1.12053,1.272-.15748.16353-.27862.315-.26045.32707.05451.06057-.103.26045-.321.39976a5.152,5.152,0,0,0-1.15081,1.169l-.24833.36947.13325.19988c.18776.27862.41187.33919.636.17565.17566-.1272.24228-.13931,1.10236-.109a2.34647,2.34647,0,0,0,.57541-.06663,1.72575,1.72575,0,0,1,.33313-.07874A1.27152,1.27152,0,0,0,4.46,13.74824c.218-.15748.26045-.16959.46032-.109.18777.06057.25439.04846.54513-.103a1.38026,1.38026,0,0,1,.50878-.15748.545.545,0,0,0,.2665-.0424.55048.55048,0,0,1,.321,0A.83131.83131,0,0,0,7.07046,13.3a1.914,1.914,0,0,1,.46032-.09086,3.20325,3.20325,0,0,0,1.32041-.50878,5.25358,5.25358,0,0,1,.66626-.36947,1.1073,1.1073,0,0,0,.76923-1.0539c.02422-.28468-.06057-.424-.424-.68443a.83886.83886,0,0,0-.72683-.09691,6.66909,6.66909,0,0,1-1.88975.218,2.04637,2.04637,0,0,0-.4361.04845c-.2665.04846-.48455-.01211-.56329-.15748-.0848-.15748.03634-.38764.38158-.73288.25439-.26045.47244-.68443.424-.81769a1.38886,1.38886,0,0,1,.103-.44215,1.04246,1.04246,0,0,0-.34524-1.32646A.63272.63272,0,0,0,6.065,7.09158Z"/>

</g>
</svg>
