<?xml version="1.0" encoding="UTF-8"?>
<svg xmlns="http://www.w3.org/2000/svg"
     version="1.1"
     width="44.57175592mm"
     height="33.36033714mm"
     viewBox="0.00000000 0.00000000 126.34514035 94.56469898">

<g transform="scale(4.33965766)">   <defs>
      <style type="text/css"><![CDATA[
      .a {
        stroke: #000;
        stroke-linecap: round;
        stroke-linejoin: round;
        stroke-width: 0.01px;
      }
    ]]></style>
   </defs>
   <path class="a"
         d="M21.88508.06407a1.57788,1.57788,0,0,0-.3.174c-.072.054-.21.162-.318.246a2.29,2.29,0,0,1-.606.288c-.516.168-.942.516-.888.726a.40271.40271,0,0,1-.066.276.52805.52805,0,0,0-.09.3.65267.65267,0,0,1-.132.372c-.144.216-.15.246-.126,1.068.018.696.042.876.132,1.008a1.26964,1.26964,0,0,1,.114.672,3.39012,3.39012,0,0,0,.204,1.254c.048.096.042.168-.036.318a6.10039,6.10039,0,0,0-.24.582,1.34612,1.34612,0,0,1-.294.51.24316.24316,0,0,0-.12.3c.03.156,0,.234-.162.438a3.33962,3.33962,0,0,1-.408.414,10.72383,10.72383,0,0,0-.912.906c.072.108-.246.438-.588.618a1.60135,1.60135,0,0,0-.354.264,3.50392,3.50392,0,0,1-1.062.576,1.40241,1.40241,0,0,0-.426.27,1.04959,1.04959,0,0,1-.486.27,2.89969,2.89969,0,0,0-1.134.54.66794.66794,0,0,1-.348.18,1.42429,1.42429,0,0,0-.48.186,1.36118,1.36118,0,0,1-.402.168c-.102-.012-.468.138-.468.198a5.23279,5.23279,0,0,1-1.188.558.77022.77022,0,0,0-.288.126,1.37325,1.37325,0,0,1-.432.174,3.03755,3.03755,0,0,0-1.302.51,1.9675,1.9675,0,0,1-.978.318c-.09-.018-.24-.036-.33-.048a.6611.6611,0,0,1-.24-.078,4.66418,4.66418,0,0,0-1.236-.162.85785.85785,0,0,1-.438-.132,6.761,6.761,0,0,0-1.518-.552,1.56013,1.56013,0,0,1-.378-.12,1.13457,1.13457,0,0,0-.708-.042c-.096.03-.192-.012-.39-.18-.228-.192-.288-.21-.492-.18a2.03263,2.03263,0,0,0-1.248.822.34059.34059,0,0,1-.198.15.377.377,0,0,0-.222.21.55013.55013,0,0,1-.18.24.247.247,0,0,0-.114.228c0,.264.366.48.768.45a1.29157,1.29157,0,0,1,.708.156,2.64644,2.64644,0,0,0,1.116.258,5.45836,5.45836,0,0,1,1.188.252c.27.096.42.228.42.372a.99274.99274,0,0,1-.21.312,2.46249,2.46249,0,0,0-.354.558c-.156.348-.234.408-.516.408a1.11722,1.11722,0,0,0-.954.744,1.10687,1.10687,0,0,1-.36.432.90541.90541,0,0,0-.312.336,2.64664,2.64664,0,0,1-.366.522,3.48179,3.48179,0,0,0-.384.546,2.69979,2.69979,0,0,1-.612.744c-.144.15-.186.534-.066.612a.96529.96529,0,0,0,.306.054c.234.012.318-.03.666-.36a1.83709,1.83709,0,0,1,.678-.42,2.19259,2.19259,0,0,0,.522-.228,1.806,1.806,0,0,1,.504-.222.25285.25285,0,0,0,.186-.126.89482.89482,0,0,1,.33-.228,1.634,1.634,0,0,0,.444-.294,2.19354,2.19354,0,0,1,.516-.336,2.25974,2.25974,0,0,0,.6-.42.96006.96006,0,0,1,.366-.276,2.319,2.319,0,0,0,.888-.486,1.31024,1.31024,0,0,1,.396-.234.41878.41878,0,0,0,.216-.09.514.514,0,0,1,.252-.09c.078,0,.156-.024.174-.06a1.63277,1.63277,0,0,1,.348-.216,4.21008,4.21008,0,0,0,1.062-.696c.204-.204.252-.222.486-.192a3.96766,3.96766,0,0,1,.414.06c.084.018.246.048.36.06a3.92477,3.92477,0,0,1,.714.114c.096.03.192-.006.354-.126.192-.15.282-.174.702-.186a6.35045,6.35045,0,0,1,1.2.024,4.59046,4.59046,0,0,0,1.602-.024,1.11018,1.11018,0,0,1,.81.012,6.02184,6.02184,0,0,0,1.338.132,9.18846,9.18846,0,0,1,2.268.132,1.99206,1.99206,0,0,0,1.254-.18,1.72289,1.72289,0,0,1,.66-.168,7.02169,7.02169,0,0,1,1.488.09,1.77333,1.77333,0,0,0,.57.054,1.18653,1.18653,0,0,1,.576.066,3.36246,3.36246,0,0,0,.522.204,1.63937,1.63937,0,0,1,.468.216.27887.27887,0,0,0,.204.084,3.34374,3.34374,0,0,1,1.542.708c.156.15.258.198.348.174.102-.024.21.042.474.306a2.56605,2.56605,0,0,0,1.296.72,1.077,1.077,0,0,0,.642-.378.357.357,0,0,0,.084-.318.32458.32458,0,0,1,.072-.3c.09-.09.108-.24.12-.912.006-.444.012-.84.012-.87a1.24373,1.24373,0,0,0-.174-.624c-.054-.06-.216-.24-.36-.402a1.52956,1.52956,0,0,0-.786-.546,17.28329,17.28329,0,0,0-1.86-.132h-.54a6.327,6.327,0,0,1-1.014-.096,2.6219,2.6219,0,0,0-.516.03,5.42719,5.42719,0,0,1-.66.06,3.57692,3.57692,0,0,0-1.218.228,1.23094,1.23094,0,0,1-.654.078,6.91184,6.91184,0,0,0-1.002.078,11.974,11.974,0,0,1-2.706.012,6.62474,6.62474,0,0,1-1.74-.156c-.132-.042-.306-.096-.39-.126a9.07212,9.07212,0,0,0-1.968.054c-.168.054-.216.048-.318-.054-.078-.078-.102-.15-.066-.21a2.41326,2.41326,0,0,1,.9-.654,2.65187,2.65187,0,0,0,.372-.156,3.15572,3.15572,0,0,1,.516-.234.65366.65366,0,0,0,.282-.228,1.82526,1.82526,0,0,1,.624-.432,6.811,6.811,0,0,0,.624-.342.54066.54066,0,0,1,.21-.108,2.428,2.428,0,0,0,.828-.294c.15-.084.402-.228.564-.318a4.2745,4.2745,0,0,0,.762-.552,4.58611,4.58611,0,0,1,.408-.3.95461.95461,0,0,0,.282-.246,2.51011,2.51011,0,0,1,.864-.444.96734.96734,0,0,0,.324-.162.56673.56673,0,0,1,.228-.114c.126,0,.444-.306.534-.51a.58259.58259,0,0,1,.222-.276,6.17681,6.17681,0,0,0,1.02-1.086.674.674,0,0,1,.198-.21.10424.10424,0,0,0,.0616-.13393l-.00161-.00407c-.036-.114.306-.57.546-.72.138-.084.156-.126.168-.492a.56908.56908,0,0,1,.174-.312.48628.48628,0,0,0,.162-.258.59026.59026,0,0,1,.09-.246c.084-.114.102-.216.09-.57v-.18a3.43622,3.43622,0,0,0-.078-.804.66974.66974,0,0,1-.066-.45c.078-.246.57-.318.864-.126a.82219.82219,0,0,0,.36.114c.114.012.306.036.42.048.114.018.348.048.51.066a2.52873,2.52873,0,0,1,.45.084,1.38081,1.38081,0,0,0,1.02.102c.498-.15.588-.228.57-.504a1.03011,1.03011,0,0,0-.048-.294,1.02347,1.02347,0,0,1-.048-.33c-.018-.342-.198-.492-.576-.474a.449.449,0,0,1-.456-.204.61584.61584,0,0,0-.306-.21c-.156,0-.336-.126-.738-.51a2.97064,2.97064,0,0,0-.954-.726,1.20261,1.20261,0,0,1-.348-.198,1.14552,1.14552,0,0,0-.444-.186,2.627,2.627,0,0,1-.636-.228,2.23024,2.23024,0,0,0-.558-.216A3.13962,3.13962,0,0,0,21.88508.06407Z"/>

</g>
</svg>
