<?xml version="1.0" encoding="UTF-8"?>
<svg xmlns="http://www.w3.org/2000/svg"
     version="1.1"
     width="26.70118215mm"
     height="40.40923862mm"
     viewBox="0.00000000 0.00000000 75.68836502 114.54587246">

<g transform="scale(5.10555451)">   <defs>
      <style type="text/css"><![CDATA[
      .a {
        stroke: #000;
        stroke-linecap: round;
        stroke-linejoin: round;
        stroke-width: 0.01px;
      }
    ]]></style>
   </defs>
   <path class="a"
         d="M5.60109.071a.215.215,0,0,0-.109.17565.77282.77282,0,0,1-.03634.20594,1.22494,1.22494,0,0,1-.58752.43,2.11744,2.11744,0,0,0-.76324.34524,1.14379,1.14379,0,0,1-.36342.1696,1.53262,1.53262,0,0,0-.43.212,1.36228,1.36228,0,0,1-.48455.212,3.87814,3.87814,0,0,0-1.16293.5754.923.923,0,0,0-.218.25439,1.06,1.06,0,0,1-.4422.27261,1.27745,1.27745,0,0,0-.47244.27862,5.02377,5.02377,0,0,1-.321.38764c-.218.23016-.22411.24833-.1272.38764a.29573.29573,0,0,1,.03029.315c-.15143.38764-.14537.527.02422.67837a4.08375,4.08375,0,0,1,.36342.46639c.19382.30284.218.321.45427.321.2241,0,.28467-.03634.68443-.44215a5.16084,5.16084,0,0,1,1.272-.98122A9.55123,9.55123,0,0,0,4.17171,3.4993a2.01167,2.01167,0,0,1,1.169-.26045.8239.8239,0,0,1,.3089,1.12053.27713.27713,0,0,0-.07268.2665.36134.36134,0,0,1-.05451.26045,1.19073,1.19073,0,0,0-.11509.38158.8809.8809,0,0,1-.08479.32708.33786.33786,0,0,0-.06057.16353c-.00606.04846-.01817.1696-.03029.26651a.46673.46673,0,0,0,.07874.33313c.05452.09085.1696.2665.24834.39975.08479.13325.1817.29679.2241.36342.23017.38158.30285.55723.25439.636a.20727.20727,0,0,0,.03634.212c.07269.109.07269.14537-.00605.24834-.109.14536-.109.29679.00605.59963a1.41066,1.41066,0,0,1,.09692.30285,1.10814,1.10814,0,0,1-.12114.47244,1.09,1.09,0,0,0,.09085.848.40708.40708,0,0,1,.0848.38765,1.26978,1.26978,0,0,0,.01211.45426.41337.41337,0,0,1-.03634.37553.66042.66042,0,0,0-.103.25439c0,.06663-.01817.212-.03028.32708a1.55144,1.55144,0,0,0,0,.80557.97409.97409,0,0,1,.04845.3513,4.46735,4.46735,0,0,1-.109.55723.55025.55025,0,0,0,.01817.315.47755.47755,0,0,1,.01211.33313A3.57345,3.57345,0,0,0,6.013,15.75237a6.72306,6.72306,0,0,1,.03025,1.12049c-.00606.09691-.00606.33313-.00606.51484v.92065c0,.0424.03029.28468.06663.533a12.15676,12.15676,0,0,1,.06057,1.42337,3.90587,3.90587,0,0,0,.06661,1.0479.68568.68568,0,0,1,.05452.36341c-.01212.28468-.00606.29073.2665.424a1.36116,1.36116,0,0,0,.424.13325.447.447,0,0,1,.27257.12114c.06662.06662.12113.09691.12113.06057,0-.11509.33919-.22411.70866-.23017.59358,0,.957-.212,1.02362-.59963a2.52915,2.52915,0,0,1,.20593-.3937c.14537-.23016.18171-.3513.15143-.46638a1.24261,1.24261,0,0,1-.02423-.4785.8528.8528,0,0,0-.03634-.25439,2.69062,2.69062,0,0,1-.05451-.48455,1.33176,1.33176,0,0,0-.0848-.46638c-.06057-.11508-.06057-.1696.01817-.321a1.53766,1.53766,0,0,1,.76317-.54512,7.0792,7.0792,0,0,0,1.63537-.8722,4.82917,4.82917,0,0,1,.69048-.43609,2.01387,2.01387,0,0,0,.53907-.39976,1.53,1.53,0,0,1,.4785-.35129,1.2639,1.2639,0,0,0,.40581-.28469,1.37692,1.37692,0,0,1,.29679-.26649.60157.60157,0,0,0,.25439-.55118.38637.38637,0,0,1,.2241-.37553.95334.95334,0,0,0,.25439-.62992.50254.50254,0,0,0-.16353-.2665c-.17565-.16354-.45427-.20593-1.21139-.18171-.30284.01212-.321.02423-.43609.24834-.1272.24833-.44821.55117-.58147.55117a3.1317,3.1317,0,0,0-.69048.9146.98165.98165,0,0,1-.39976.36341,1.56162,1.56162,0,0,0-.51484.49061,1.2839,1.2839,0,0,1-.36341.38159,1.23623,1.23623,0,0,0-.32708.24832c-.29678.29679-.6178.26651-.751-.07874a1.61107,1.61107,0,0,1-.13325-.59358,2.54027,2.54027,0,0,0,.03634-.30284,2.90364,2.90364,0,0,1,.04845-.3937,3.71794,3.71794,0,0,0,.13325-1.02968.43612.43612,0,0,1,.02423-.24227.1947.1947,0,0,0-.03028-.19988.20329.20329,0,0,1-.02423-.23622A.1624.1624,0,0,0,9.423,13.475a.98738.98738,0,0,1-.12114-.533.61828.61828,0,0,0-.06058-.23015.22265.22265,0,0,1,.02423-.25439.20662.20662,0,0,0,.03028-.23622,2.6431,2.6431,0,0,1-.103-.79952,2.03871,2.03871,0,0,0,0-.27256c0-.08479-.01211-.47244-.03028-.86614a4.05393,4.05393,0,0,0-.09691-.89036.42416.42416,0,0,1-.03634-.27256.31574.31574,0,0,0-.05449-.23025.64713.64713,0,0,1-.09085-.2544,2.0323,2.0323,0,0,0-.11508-.73894.4254.4254,0,0,1-.00606-.315.54182.54182,0,0,0-.03028-.38764A1.08274,1.08274,0,0,1,8.678,6.72152a2.87487,2.87487,0,0,0-.00606-.8298,1.08343,1.08343,0,0,1,.0424-.51483.41433.41433,0,0,0,.05451-.24228.52076.52076,0,0,1,.0848-.2665A.4326.4326,0,0,0,8.92026,4.535c-.03634-.18171.0848-.50273.212-.54513.03635-.01211-.00605-.09691-.09691-.19382-.109-.11508-.15142-.218-.12719-.30284a.46065.46065,0,0,0-.05451-.27256.2941.2941,0,0,1-.01212-.29077A.33238.33238,0,0,0,8.82336,2.621a1.90342,1.90342,0,0,1-.09691-.527A2.3757,2.3757,0,0,0,8.27218.54347.97434.97434,0,0,0,7.43027.24668a.22.22,0,0,1-.24227,0,.86382.86382,0,0,0-.69049.15748c-.15142.103-.24833.05452-.3937-.19382A.32931.32931,0,0,0,5.60109.071Z"/>

</g>
</svg>
