<?xml version="1.0" encoding="UTF-8"?>
<svg xmlns="http://www.w3.org/2000/svg"
     version="1.1"
     width="19.51567579mm"
     height="31.46384762mm"
     viewBox="0.00000000 0.00000000 55.32006163 89.18893176">

<g transform="scale(5.10555451)">   <defs>
      <style type="text/css"><![CDATA[
      .a {
        stroke: #000;
        stroke-linecap: round;
        stroke-linejoin: round;
        stroke-width: 0.01px;
      }
    ]]></style>
   </defs>
   <path class="a"
         d="M6.45746.2003c-.103.109-.2241.22411-.2665.26045l-.1696.1696c-.315.3089-.50878.46032-.58752.46032-.04845,0-.09085.02423-.09085.06057a1.386,1.386,0,0,1-.59963.38158c-.0424,0-.16354.12114-.26651.26651a1.15889,1.15889,0,0,1-.27862.29073,2.17636,2.17636,0,0,0-.527.66626c-.00605.03029-.01211.09691-.01817.13931-.00606.09085-.36341.315-.50878.315-.11508,0-.26045.12719-.424.38158a.73675.73675,0,0,1-.26045.23622.18989.18989,0,0,0-.13325.22411c.01817.21805-.03634.29073-.30285.37553a.77674.77674,0,0,0-.53906.56329,1.79984,1.79984,0,0,1-.533.88431c-.13325.07268-.15748.11508-.1272.26045a.28623.28623,0,0,1-.103.30284,1.08622,1.08622,0,0,0-.22411.49667.97925.97925,0,0,1-.28467.55723c-.26651.25439-.27862.527-.02423.61175a1.53652,1.53652,0,0,0,.97516-.19988,4.657,4.657,0,0,1,.99348-.4543,1.29413,1.29413,0,0,0,.35736-.30285,1.319,1.319,0,0,1,.44821-.33313c.09691-.02423.22411-.06057.29074-.0848a1.72344,1.72344,0,0,1,.93882.0848c.36341.12114.53906.37553.43.61175a.36311.36311,0,0,0-.03029.23016,3.3195,3.3195,0,0,1-.848,1.33252c-.19988.23016-.28468.37553-.26045.45427.03634.15748-.09691.33919-.38764.527-.1272.07874-.23622.19382-.23622.25439a1.777,1.777,0,0,1-.4785.86008c-.22411.23622-.24833.27862-.212.4785.05451.28467.24228.44215.47849.39975a2.522,2.522,0,0,1,.36342-.03028.60514.60514,0,0,0,.2665-.05451c.09691-.06057.35736.0424.48456.19988.09691.11508.38764.06662.6602-.11509a.34954.34954,0,0,1,.41793-.06057c.212.07269.27861.06663.70865-.09085a.89732.89732,0,0,1,.38765.04846.7122.7122,0,0,1,.44215.36947,4.56948,4.56948,0,0,0,.33313.46032,4.78527,4.78527,0,0,1,.62992,1.25984.5648.5648,0,0,0,.12114.2665c.09691.1272.109.1696.0424.27257-.22411.36947-.27256.50272-.212.61174a.33.33,0,0,1-.006.27256,1.088,1.088,0,0,0-.06057.34525,1.503,1.503,0,0,1-.23622.81768.93935.93935,0,0,0-.15748.34524c-.03634.15748-.01211.22411.14537.40582.16353.18171.212.20593.31495.15142.06663-.03634.13326-.04845.15143-.03028.12114.11508.98122-.44822,1.1387-.745a1.83991,1.83991,0,0,1,.28467-.36948,1.20771,1.20771,0,0,0,.38159-.77528.85282.85282,0,0,1,.13325-.36947,1.811,1.811,0,0,0,.2241-.46033c.05452-.15748.19383-.49666.30891-.745a3.00284,3.00284,0,0,0,.212-.54512,1.66117,1.66117,0,0,1,.18776-.41793.91859.91859,0,0,0,.15137-.36343c-.01818-.01817.01817-.12114.08479-.23016s.103-.20594.0848-.23017c-.01817-.01817.01211-.11508.06057-.212a1.35476,1.35476,0,0,0,.06057-.73288,1.862,1.862,0,0,1,.03634-.67232.41446.41446,0,0,0-.00606-.3513,3.01576,3.01576,0,0,1-.09085-.53907,1.91765,1.91765,0,0,0-.20594-.6602,1.15059,1.15059,0,0,1-.15748-.43C10.43075,8.31662,9.71,7.614,9.01949,7.27484c-.64809-.321-.72683-.4361-.6178-.89037A1.50341,1.50341,0,0,1,8.69246,5.803c.12114-.15143.20594-.29074.18171-.30891-.01817-.02422.0424-.15142.13325-.28467s.15142-.26045.13325-.27862c-.02423-.02423-.00605-.09691.03634-.16959a.84051.84051,0,0,0,.0848-.218,4.1579,4.1579,0,0,1,.32707-.88431.95839.95839,0,0,0,.0848-.39976,2.44123,2.44123,0,0,1,.17565-.82374c.02423-.03634-.01211-.12113-.0848-.19382a.41706.41706,0,0,1-.12113-.24833,4.2298,4.2298,0,0,0-.84191-1.266A1.949,1.949,0,0,1,8.49258.34567c0-.02423-.08479-.0424-.1817-.0424A.44877.44877,0,0,1,7.9838.15185C7.85055.00648,7.80815.00043,7.24486.00648,6.65128.00648,6.64523.00648,6.45746.2003Z"/>

</g>
</svg>
