<?xml version="1.0" encoding="UTF-8"?>
<svg xmlns="http://www.w3.org/2000/svg"
     version="1.1"
     width="40.37404871mm"
     height="21.75631188mm"
     viewBox="0.00000000 0.00000000 114.44611042 61.67145229">

<g transform="scale(4.08317729)">   <defs>
      <style type="text/css"><![CDATA[
      .a {
        stroke: #000;
        stroke-linecap: round;
        stroke-linejoin: round;
        stroke-width: 0.01px;
      }
    ]]></style>
   </defs>
   <path class="a"
         d="M21.6374.15642a.68914.68914,0,0,1-.30284.18171,1.47384,1.47384,0,0,0-.62992.218c0,.04845-.315.15748-.48455.16959a3.24729,3.24729,0,0,0-.67232.103c-.07874.02423-.15748.04846-.17565.05451a1.161,1.161,0,0,0-.424.26651c0,.103-.1817.12113-.2665.03028-.09691-.09085-.19988-.103-.76923-.06663a.81182.81182,0,0,0-.44821.12114c-.11508.12114-.17565.1272-.34524.03634-.09691-.05451-.14537-.04239-.24228.06663-.07874.0848-.15142.11508-.2241.0848a2.11263,2.11263,0,0,0-.88431.006c-.19988.01817-.48456.0424-.636.05452a1.96953,1.96953,0,0,0-.93882.24833,2.61782,2.61782,0,0,1-.3937.18171.91364.91364,0,0,0-.321.2241,1.096,1.096,0,0,1-.50878.26651,1.99869,1.99869,0,0,0-.51483.212,1.34479,1.34479,0,0,1-.39976.18776,1.29192,1.29192,0,0,1-.50878.04846,1.30193,1.30193,0,0,0-.26045.03028,3.07787,3.07787,0,0,1-1.15687-.06057.4114.4114,0,0,0-.38764.09086.32435.32435,0,0,1-.3089.09085.4215.4215,0,0,0-.3089.05451.94273.94273,0,0,1-.41187.09086c-.15143,0-.46033,0-.68443.006a1.80391,1.80391,0,0,0-.527.06057,1.90937,1.90937,0,0,1-.49666.09086c-.212.01211-.46033.03634-.56329.05451a.79231.79231,0,0,1-.33919-.03029.36913.36913,0,0,0-.3513.03029c-.19382.103-.50273.08479-.53907-.02423-.03028-.09085-.24833-.07268-.35736.03029-.08479.08479-.109.08479-.24227,0-.12114-.07874-.30285-.09692-.88431-.09692-.745.00606-.93276.00606-1.23561,0a2.78525,2.78525,0,0,0-.47244.06057c-.16354.03635-.38764.07874-.49061.09086-.16959.01817-.30284.11508-.6602.45427-.3089.29678-.32708.34524-.35736.82979a1.55,1.55,0,0,1-.05451.37553,2.30714,2.30714,0,0,0-.07268.51484c-.02423.44821-.01818.44821.218.73894A1.17283,1.17283,0,0,1,.838,6.71606a1.29318,1.29318,0,0,0,.05452.27861c.03028.103.103.3937.16353.642a3.22039,3.22039,0,0,0,.17565.5754,1.77634,1.77634,0,0,1,.17565.60569,1.05507,1.05507,0,0,0,.27256.45427,2.53825,2.53825,0,0,1,.4785.73289,2.93627,2.93627,0,0,1,.06057.6178,1.281,1.281,0,0,1-.18171.848,2.13914,2.13914,0,0,1-.33313.48455.37455.37455,0,0,0-.13931.321c0,.218-.15142.40581-1.066,1.29618a.63548.63548,0,0,0-.16354.29073.34134.34134,0,0,1-.16959.23016c-.11508.05452-.13931.12114-.15748.38765-.01212.27256.00605.33918.12719.45426.13325.1272.24834.15748.62992.16354a.43223.43223,0,0,0,.2665-.13325c.06663-.07268.15748-.11508.20594-.09691.09085.03634.21805-.15748.19382-.28468-.01817-.109.07268-.34524.13931-.35736a1.10877,1.10877,0,0,0,.12719-.01211c.07269-.00606.19988-.12719.642-.61175.109-.12114.2241-.19987.25439-.1817.06662.04239.43609-.33919.46032-.47244a.9101.9101,0,0,1,.218-.5209A2.77684,2.77684,0,0,1,3.9451,11.822a.7585.7585,0,0,0,.2241-.17565A1.98791,1.98791,0,0,1,4.678,11.1194a.66787.66787,0,0,0,.218-.25439c0-.11508.44216-.55118.62992-.62386.1272-.04846.15748-.09086.1272-.18171-.11508-.36947.24833-.55723.99939-.51484A7.07508,7.07508,0,0,1,7.876,9.6718a.502.502,0,0,0,.28468-.06057.83179.83179,0,0,1,.321-.09691A.53045.53045,0,0,0,8.77858,9.375c.212-.17565.5633-.16959,1.09025.03028.38764.14537.39975.15143.533.0424a.41488.41488,0,0,1,.36948-.07874c.19987.03029.23622.01817.27256-.09085.06662-.212.20593-.315.32707-.24833a1.05122,1.05122,0,0,0,.40581.03634,1.15491,1.15491,0,0,1,.40582.0424,3.10117,3.10117,0,0,0,1.15081.02422.98273.98273,0,0,1,.4361-.06662,1.78387,1.78387,0,0,0,.54512-.07874.698.698,0,0,1,.33313-.0424c.75106.0848,1.16293.05451,1.272-.09691a1.52561,1.52561,0,0,1,.89642-.27862,1.78894,1.78894,0,0,0,.87825-.24228c.30285-.15748.4361-.19382.51484-.15142a.26214.26214,0,0,0,.25439-.02423.28231.28231,0,0,1,.28468-.01211.1881.1881,0,0,0,.2241-.01211,2.1693,2.1693,0,0,1,1.24167-.1696c.23016.02423.58146.35736.533.49667-.01817.0424.0424.15748.13931.26045a2.64218,2.64218,0,0,1,.19382.23622.78557.78557,0,0,0,.24227.18776.73758.73758,0,0,1,.26045.25439.25991.25991,0,0,0,.15748.15142c.1272.0424.315.3513.25439.41793-.04845.04846.22411.33919.321.33919a.26138.26138,0,0,1,.22454.29364l-.00044.00315c-.02423.08479.06057.212.27862.44215a2.13671,2.13671,0,0,1,.3089.36341.46494.46494,0,0,0,.212.109c.19383.06663.24228.12114.218.26045-.006.02422.07269.07874.1696.109a.38221.38221,0,0,1,.218.16354.57777.57777,0,0,0,.533.27256.30544.30544,0,0,1,.28468.103.859.859,0,0,0,.82374.07268.41776.41776,0,0,1,.28467-.00606c.09086.05451.24228.06057.82374.06057a.42131.42131,0,0,0,.24228-.06057.28149.28149,0,0,1,.12114-.07874.54363.54363,0,0,0,.19988-.12719.38867.38867,0,0,1,.30284-.09086c.13931.01212.18776-.00605.19988-.08479a.42193.42193,0,0,1,.11508-.19988.62148.62148,0,0,0-.07153-.876l-.02538-.02043a.82848.82848,0,0,1-.19382-.24834c-.02423-.15748-.103-.218-.212-.16353a.201.201,0,0,1-.19382.00605.24608.24608,0,0,0-.18777-.02422,4.42587,4.42587,0,0,1-1.381-.56935,3.3641,3.3641,0,0,1-.315-.59358,1.95809,1.95809,0,0,1-.19988-.84191.91588.91588,0,0,0-.20577-.6662,3.12686,3.12686,0,0,1-.21805-.36342c-.05451-.26044-.103-.50878-.12113-.636a5.57052,5.57052,0,0,0-.30891-1.169,1.05485,1.05485,0,0,1-.109-.41792c.01817-.03029-.01817-.109-.07874-.16354-.09085-.09085-.11508-.18776-.109-.46638a1.01138,1.01138,0,0,0-.07874-.49667.24715.24715,0,0,1-.02423-.28467.35913.35913,0,0,0,.006-.315,2.9901,2.9901,0,0,1-.09691-.59358,3.62033,3.62033,0,0,1-.00605-.848.36505.36505,0,0,0-.05451-.26044c-.09692-.09691-.0424-.23622.109-.28468.103-.03634.103-.04845.02423-.12719-.109-.109-.11508-.17565-.03029-.33313.04846-.0848.03634-.15143-.03634-.26651-.05451-.08479-.07268-.15142-.04845-.15142.03028,0,.01817-.02423-.02423-.05451a.20673.20673,0,0,1-.09085-.13314.63427.63427,0,0,0-.3513-.34525.23541.23541,0,0,1-.13325-.109C23.07289.02317,22.90935.005,22.41269.005,21.801.005,21.75854.01711,21.6374.15642Zm-.424,3.21017a.172.172,0,0,1-.06057.29678.234.234,0,0,1-.29073-.11508c-.03029-.08479.109-.27256.20593-.27256a.3383.3383,0,0,1,.14539.09086Zm-5.48756.52089a1.61833,1.61833,0,0,0,.76317.62386.8826.8826,0,0,0,.81163-.06057.42415.42415,0,0,1,.33313-.05451c.1393.01817.36341.0424.49666.06057.4785.04845,1.06.41187,1.06.6602a.34851.34851,0,0,1-.27862.27862.55424.55424,0,0,0-.23622.09691c-.08479.05451-.15142.07874-.15142.05451s-.0424-.01211-.09691.03634a1.58117,1.58117,0,0,1-.77528.11509.79529.79529,0,0,0-.30285.07268,1.35783,1.35783,0,0,1-.44821.0848.78637.78637,0,0,0-.41187.109.74084.74084,0,0,1-.52695.103.35476.35476,0,0,0-.16354.05451,1.55742,1.55742,0,0,1-.41793.09085,2.36047,2.36047,0,0,0-.59357.14537,2.38335,2.38335,0,0,1-.636.15142.85693.85693,0,0,0-.44821.1272.293.293,0,0,1-.26045.06662,3.38869,3.38869,0,0,0-1.21744.02423,4.86537,4.86537,0,0,1-1.09024.15142,5.07822,5.07822,0,0,1-.99939.01817,6.43654,6.43654,0,0,0-.93882.03635,3.0813,3.0813,0,0,1-1.45972-.09086,1.36123,1.36123,0,0,0-.43-.07874.488.488,0,0,1-.44215-.18776c-.13325-.15143-.13931-.18171-.06663-.32708a.804.804,0,0,1,.44216-.29678c.19382-.07874.40581-.1696.46638-.20594a1.45576,1.45576,0,0,1,.3937-.09085A1.47541,1.47541,0,0,0,8.5,5.55919a4.605,4.605,0,0,1,.87826-.24228,5.34707,5.34707,0,0,0,.55723-.24833,1.4213,1.4213,0,0,1,.58147-.19382.2686.2686,0,0,0,.24833-.07874c.13325-.11509.3089-.11509.3089,0,0,.07268.29679,0,.4785-.12114a.6397.6397,0,0,1,.315-.07874.5681.5681,0,0,0,.315-.07874.70917.70917,0,0,1,.37552-.06663,1.13728,1.13728,0,0,0,.4361-.05451c.103-.04846.20594-.06663.218-.04846a.39134.39134,0,0,0,.20594-.06056,1.83179,1.83179,0,0,1,.533-.13326,1.25737,1.25737,0,0,0,.44216-.103,1.0215,1.0215,0,0,1,.44215-.05452.6837.6837,0,0,0,.5209-.109c.19372-.15746.23612-.15746.36937,0Z"/>

</g>
</svg>
