<?xml version="1.0" encoding="UTF-8"?>
<svg xmlns="http://www.w3.org/2000/svg"
     version="1.1"
     width="68.93720898mm"
     height="42.43580833mm"
     viewBox="0.00000000 0.00000000 195.41250263 120.29042752">

<g transform="scale(5.77949253)">   <defs>
      <style type="text/css"><![CDATA[
      .a {
        stroke: #000;
        stroke-linecap: round;
        stroke-linejoin: round;
        stroke-width: 0.01px;
      }
    ]]></style>
   </defs>
   <path class="a"
         d="M30.229.07927A3.58356,3.58356,0,0,0,29.914.267a.40831.40831,0,0,1-.321.07268.66754.66754,0,0,0-.46033.11508.78417.78417,0,0,1-.36947.11508A1.26278,1.26278,0,0,0,28.103.55777a.50979.50979,0,0,1-.315-.00606.98219.98219,0,0,0-.81163.24834.6257.6257,0,0,1-.39976.14536,5.45962,5.45962,0,0,0-1.41731.34524.93275.93275,0,0,1-.30285.103.4411.4411,0,0,0-.2241.09086.56584.56584,0,0,1-.28468.09085.291.291,0,0,0-.19988.05451,1.79214,1.79214,0,0,1-1.15687.21805c-.09085-.02423-.17565.01211-.29073.11508-.13931.1272-.19382.14537-.29073.09691-.09085-.05451-.15142-.0424-.27862.05451-.20593.16354-.26044.15748-.51483-.04239a7.92492,7.92492,0,0,0-1.19927-.64809c-.19382-.0848-.61781.06057-1.18716.40581a2.42011,2.42011,0,0,1-.43.23016A4.66739,4.66739,0,0,0,17.776,2.6474a2.16191,2.16191,0,0,1-.58146.321,2.34468,2.34468,0,0,0-.59358.49667c-.38158.39369-.47244.52089-.44821.62991a.98818.98818,0,0,1-.44215.76923,1.34757,1.34757,0,0,1-.27862.16354.45813.45813,0,0,0-.16354.12114.48518.48518,0,0,1-.33313.12113,1.25823,1.25823,0,0,0-.44821.11509.91671.91671,0,0,1-.6178.08479,2.6147,2.6147,0,0,0-1.13264.07874.76428.76428,0,0,1-.527.02423.637.637,0,0,0-.24833-.04845.8616.8616,0,0,1-.23622-.03029.90848.90848,0,0,0-.50272.07268l-.315.11508-.28468-.14536a.55056.55056,0,0,0-.751.06057.43748.43748,0,0,1-.58752.01817,3.15315,3.15315,0,0,0-1.20533-.321c-.30284-.01817-.321-.00605-.44215.19382a.97589.97589,0,0,1-.26045.27862.84558.84558,0,0,0-.24228.20594.49781.49781,0,0,1-.2241.17565.26623.26623,0,0,0-.15143.15142,1.01692,1.01692,0,0,1-.33918.30285,1.29329,1.29329,0,0,0-.40582.36947c-.23016.41187-.212.39975-1.10841.46638-.16959.01211-.29679.212-.33919.533-.01817.19382.07874.28467.40582.34524.36341.07268.44821.109.56935.218a.29846.29846,0,0,0,.25439.09085,1.17551,1.17551,0,0,1,.533.18777,1.30114,1.30114,0,0,0,.49667.18776c.0424-.01817.18776.04846.321.15142a.99768.99768,0,0,0,.34524.17565.54113.54113,0,0,1,.26045.1696,1.49522,1.49522,0,0,0,.321.23622,2.02663,2.02663,0,0,1,.56935,1.13264.52044.52044,0,0,0,.09691.34524c.12114.15748.15748.34525.19383.957.01817.25439-.00606.3513-.09086.43609a.38606.38606,0,0,0-.11508.1696,1.29534,1.29534,0,0,1-.218.315,4.15076,4.15076,0,0,0-.35736.53906,1.57659,1.57659,0,0,1-.35735.44821.71292.71292,0,0,0-.212.20594c.01818.12114-.03028.18776-.31495.40581a1.39684,1.39684,0,0,0-.43005.533.89831.89831,0,0,1-.35735.4361,6.951,6.951,0,0,0-.75712.68443c-.54512.55118-.75105.69048-1.0963.76317a1.28958,1.28958,0,0,0-.41792.2241.78313.78313,0,0,1-.33919.17565.16279.16279,0,0,0-.14537.109,1.39578,1.39578,0,0,1-.33313.62386A.5825.5825,0,0,1,3.094,18.256c-.2665-.05451-.60569.06663-1.272.46638-.321.18777-.72683.40582-.91459.48455a2.74344,2.74344,0,0,0-.61781.3937L.005,19.85508v.424c0,.36947.01817.44215.12114.49666a.2395.2395,0,0,0,.23016.00606.20124.20124,0,0,1,.19382-.00606c.06057.03635.16354.01212.30285-.07268A5.8243,5.8243,0,0,0,2.028,19.522a1.95482,1.95482,0,0,1,.94488-.62386c.315-.09085.50272-.23016.46032-.33918-.04845-.12114.11508-.28468.30285-.30891a2.62593,2.62593,0,0,0,1.29618-.45427,3.81566,3.81566,0,0,1,.47849-.321,1.44645,1.44645,0,0,0,.3089-.218,2.60482,2.60482,0,0,1,.38765-.321,2.14793,2.14793,0,0,0,.424-.36947.8519.8519,0,0,1,.26045-.24227c.12719-.0848.3513-.24834.50272-.36342a5.45491,5.45491,0,0,1,.60569-.38764,5.336,5.336,0,0,0,.95094-.7874,4.76278,4.76278,0,0,1,.68443-.61175c.12114,0,.56935-.50878.67231-.75711a5.82438,5.82438,0,0,0,.19988-.55723,2.1436,2.1436,0,0,1,.33919-.62992,1.84681,1.84681,0,0,0,.24833-.36341A6.62685,6.62685,0,0,1,11.67667,10.37c.1393-.23622.14536-.27256.07268-.44821a1.32831,1.32831,0,0,1,0-.82374,1.07547,1.07547,0,0,0,.02423-.37553c-.06663-.24833.27256-.52695.70865-.5754.0848-.01212.29074-.03634.46639-.06057a.96752.96752,0,0,1,.55118.04845c.2241.09086.24833.0848.67231-.08479a1.09827,1.09827,0,0,1,.99939-.0848c.33919.09085.35736.0848.53907-.0424.16353-.11508.27256-.13325.91459-.15142A4.13771,4.13771,0,0,0,18.315,7.4687a2.07544,2.07544,0,0,1,.62386-.11508,2.02018,2.02018,0,0,0,.57541-.09085.52915.52915,0,0,1,.29679-.02423.54473.54473,0,0,0,.35735-.06057,1.09624,1.09624,0,0,1,.86614-.07874.99807.99807,0,0,0,.49061.07268.57511.57511,0,0,1,.55724.16354.92913.92913,0,0,1,.24227.30285c.04846.15748.4361.315.66021.27256a2.4451,2.4451,0,0,0,.94487-.4785,1.26959,1.26959,0,0,1,.533-.62992c.19382-.11508.28468-.13325.73895-.11508a1.55456,1.55456,0,0,0,.67231-.05451,1.11257,1.11257,0,0,1,.49667-.06057.85686.85686,0,0,0,.37553-.03028.7115.7115,0,0,1,.26045-.1272.9658.9658,0,0,0,.32707-.16354.99011.99011,0,0,1,.72683-.12719c.109.05451.30284-.01817.86614-.32707a3.54519,3.54519,0,0,1,1.02361-.40582c.103,0,.20594-.07874.33919-.24227a.928.928,0,0,1,.73289-.424,1.15479,1.15479,0,0,0,.46032-.15748,2.05444,2.05444,0,0,1,.39976-.1817c.07268-.01212.13931-.04846.15142-.0848a9.28411,9.28411,0,0,1,1.21744-.854,1.35091,1.35091,0,0,0,.54512-.6178,1.36652,1.36652,0,0,0-.18776-.87219.60134.60134,0,0,1-.14537-.29074c-.02423-.23016-.3937-.55118-.93276-.80557a3.38658,3.38658,0,0,1-.57541-.321A3.00237,3.00237,0,0,0,30.82862.158a.69649.69649,0,0,1-.315-.09085C30.42886-.01764,30.41675-.01764,30.229.07927ZM27.69114,1.9872a.50817.50817,0,0,0,.30284.00606,1.28667,1.28667,0,0,1,.41793-.0424,1.18112,1.18112,0,0,1,.69654.2241,4.66424,4.66424,0,0,0,.98122.49061,2.0463,2.0463,0,0,1,.71472.739c.07874.30284-.26651.69654-.69655.79345a1.21294,1.21294,0,0,0-.38158.25439.57688.57688,0,0,1-.533.212,1.25831,1.25831,0,0,0-.47244.09086c-.09691.04845-.18776.07268-.20593.05451-.0424-.0424-.41793.15748-.50273.2665a.6364.6364,0,0,1-.36341.109c-.16354.01211-.3937.0424-.50878.06057-.11508.02422-.26651.05451-.33313.06662a2.19656,2.19656,0,0,1-.30285.01817,2.3602,2.3602,0,0,0-.533.109,1.58307,1.58307,0,0,1-1.35069-.18171c-.39975-.19382-.424-.212-.56935-.56935a3.23908,3.23908,0,0,0-.80557-1.12053c-.321-.32707-.321-.40581-.006-.65414.19988-.15748.23622-.15748.38158-.01212a.57767.57767,0,0,0,.73289-.03028A1.03005,1.03005,0,0,1,25.02,2.62318a2.82487,2.82487,0,0,0,.97516-.45427A1.02873,1.02873,0,0,1,26.51,2.0296a4.862,4.862,0,0,0,.53906-.07874A.96166.96166,0,0,1,27.69114,1.9872ZM19.02975,5.155c.0424.0848.03029.13931-.06662.23622s-.15142.109-.23622.06663c-.16959-.09691-.19988-.23622-.06663-.36947S18.93284,4.98537,19.02975,5.155Z"/>

</g>
</svg>
