<?xml version="1.0" encoding="UTF-8"?>
<svg xmlns="http://www.w3.org/2000/svg"
     version="1.1"
     width="37.09506822mm"
     height="55.80496464mm"
     viewBox="0.00000000 0.00000000 105.15142865 158.18738280">

<g transform="scale(5.33209547)">   <defs>
      <style type="text/css"><![CDATA[
      .a {
        stroke: #000;
        stroke-linecap: round;
        stroke-linejoin: round;
        stroke-width: 0.01px;
      }
    ]]></style>
   </defs>
   <path class="a"
         d="M14.68708.058a1.54421,1.54421,0,0,1-.43.109A2.12674,2.12674,0,0,0,13.712.3487c-.24228.12719-.315.19382-.33919.33918a.58522.58522,0,0,1-.56935.46639,1.65538,1.65538,0,0,0-.44215.11508c-.218.11508-.7874.78134-.72078.84191a4.01813,4.01813,0,0,0,.4361.14536c.36947.11509.44216.12114.61175.04846a.344.344,0,0,1,.30274-.02418.30418.30418,0,0,0,.27861-.01211,9.401,9.401,0,0,1,1.77468-.1272.7735.7735,0,0,1,.64809.25439c.07874.14537-.17565.44821-.44821.53907a.73169.73169,0,0,0-.46639.73894,2.219,2.219,0,0,0,.43.83585c.1272,0,.19383.24834.12114.43a.52914.52914,0,0,0,.20594.62387.6811.6811,0,0,1,.218.27861c.07268.1696.06662.20594-.06057.37553l-.13931.18777.25439.23016c.18171.16959.24833.27862.24833.40581a2.13035,2.13035,0,0,0,.24834.62386,2.30372,2.30372,0,0,1,.35735,1.19322.63381.63381,0,0,0,.12114.35735.7007.7007,0,0,1,.12114.45427,1.20006,1.20006,0,0,0,.0848.46033.92541.92541,0,0,1,.06662.39975.478.478,0,0,0,.09691.38765.58716.58716,0,0,1,.11508.24833,2.12631,2.12631,0,0,0,.12114.43,1.0501,1.0501,0,0,1,.09086.41187.85444.85444,0,0,0,.06662.34524,1.08893,1.08893,0,0,1,.07268.3513.47237.47237,0,0,0,.04846.19382,4.906,4.906,0,0,1,.24228,1.33253,7.59735,7.59735,0,0,0,.11508.99939.747.747,0,0,1-.04846.44215.84819.84819,0,0,0-.0424.56329.90709.90709,0,0,1,0,.45427.64185.64185,0,0,0-.03028.33919,2.58239,2.58239,0,0,1-.18171,1.83524c-.07268.07874-.07268.13931-.01817.315a.36656.36656,0,0,1-.03028.37553.58653.58653,0,0,0-.103.27862.71183.71183,0,0,1-.06057.24833.222.222,0,0,0-.01211.212,1.3546,1.3546,0,0,1-.24834.80557,2.12837,2.12837,0,0,0-.321,1.18716c-.02423.424-.05452.58146-.14537.69654a1.78455,1.78455,0,0,0-.33313.75106,1.2044,1.2044,0,0,1-.27256.51483,3.205,3.205,0,0,0-.424.65415,3.38751,3.38751,0,0,1-.30891.53907.89722.89722,0,0,0-.17565.30284c-.11508.25439-.15748.29073-.36947.27256a.94068.94068,0,0,0-.3089.07874.47724.47724,0,0,0-.32707.39976c-.02423.12114-.19988.24227-.29679.19988a1.55825,1.55825,0,0,0-.69655.35735.64131.64131,0,0,1-.23622.1696,1.15491,1.15491,0,0,0-.36947.30283.98763.98763,0,0,1-.29073.26651,2.1898,2.1898,0,0,0-.33313.24227c-.09085.0848-.19988.13931-.24228.12114a.52279.52279,0,0,0-.27861.12114.46009.46009,0,0,1-.36948.12114.5718.5718,0,0,0-.36947.07268,2.2537,2.2537,0,0,1-1.04179.14537.774.774,0,0,0-.46638.12719c-.09085.07268-.19382.11508-.2241.09691a2.27243,2.27243,0,0,0-.957.23622.25.25,0,0,1-.218.04846,1.54546,1.54546,0,0,0-.69049-.07269,2.4239,2.4239,0,0,1-.43-.07268c-.32708-.07874-.35736-.07874-.58147.05451-.23622.13326-.29073.1272-.49666-.04845a.52116.52116,0,0,0-.27256-.109,1.87,1.87,0,0,1-.7026-.16959.99526.99526,0,0,0-.29074-.09691,5.19449,5.19449,0,0,1-.93882-.19988c-.03634-.02423-.16353.03029-.28467.11508-.17565.11508-.24834.13325-.33919.0848a.25745.25745,0,0,0-.18171-.02423c-.03028.02423-.12719-.00605-.212-.06057-.13325-.08478-.16353-.08478-.27862-.006a.3714.3714,0,0,1-.29073.05451.54672.54672,0,0,0-.28467.03028c-.09086.04846-.1696.03029-.35736-.07874a2.41328,2.41328,0,0,0-.78134-.3937.8911.8911,0,0,0-.45427.41188c0,.11508.218.24834.34524.218.15748-.0424.44216.212.44216.3937,0,.103.03634.11508.3513.09691a2.53332,2.53332,0,0,0,.40581-.03634,1.86174,1.86174,0,0,1,.46638.11508,2.7856,2.7856,0,0,0,.54513.13324,1.09316,1.09316,0,0,1,.34524.11509.53906.53906,0,0,0,.44215.05451.56092.56092,0,0,1,.33919.006.187.187,0,0,0,.218-.03027.20411.20411,0,0,1,.20594-.03028.31554.31554,0,0,0,.2241.006.25612.25612,0,0,1,.212,0,.26353.26353,0,0,0,.212-.01211.27739.27739,0,0,1,.26651.00606c.09691.05451.15748.04845.27862-.03029.13931-.09085.16353-.09085.30284,0,.0848.05451.17565.09085.19988.07268a2.722,2.722,0,0,1,.67837-.03028,4.07109,4.07109,0,0,0,.87826-.13325,1.06941,1.06941,0,0,1,.73894.006c.23016.06663.26045.06057.38158-.06057.07269-.07268.1696-.11508.218-.09691a.38522.38522,0,0,0,.25439-.04845.86027.86027,0,0,1,.45427-.05451c.27256.03028.3089.01817.46638-.15748.19382-.20594.3937-.24228.58147-.09691a.4537.4537,0,0,0,.49061.02422.65808.65808,0,0,1,.28467-.08479,1.26577,1.26577,0,0,0,.50272-.212.87873.87873,0,0,1,.47244-.17565,1.8081,1.8081,0,0,0,.848-.22411.28359.28359,0,0,1,.23016-.04846A.31531.31531,0,0,0,13.524,28.168a.49678.49678,0,0,1,.24228-.09692.50488.50488,0,0,0,.25439-.15142.5107.5107,0,0,1,.33313-.15142,1.41932,1.41932,0,0,0,.96911-.65415,1.34375,1.34375,0,0,1,.36341-.424,1.06288,1.06288,0,0,0,.315-.33313.53772.53772,0,0,1,.45427-.34524c.20593,0,.44215-.55724.40581-.95094a.55234.55234,0,0,1,.15748-.52695,1.23216,1.23216,0,0,0,.19382-.30285,1.03394,1.03394,0,0,1,.24228-.56329,2.99116,2.99116,0,0,0,.41792-1.20532,1.26592,1.26592,0,0,1,.212-.44822,1.1037,1.1037,0,0,0,.212-.50878,3.98049,3.98049,0,0,1,.03634-.43c.01817-.13325.03634-.36341.04846-.50878a.47.47,0,0,1,.15747-.38158c.1272-.103.16354-.23016.17566-.66021a1.385,1.385,0,0,1,.23621-.39369,2.03121,2.03121,0,0,0,.4361-1.20533,1.225,1.225,0,0,1,.1272-.54512,1.86006,1.86006,0,0,0,.15142-.7874,4.547,4.547,0,0,0-.0848-1.76862.27416.27416,0,0,1,.01212-.315.65.65,0,0,0,.03027-.49666,4.71405,4.71405,0,0,1-.05451-.8298,2.12966,2.12966,0,0,0-.06056-.61781.24323.24323,0,0,1,0-.24833,1.39587,1.39587,0,0,0-.19382-.95093.59158.59158,0,0,1-.09085-.45427c.03634-.24834-.00606-.36947-.39976-1.16293a2.43514,2.43514,0,0,1-.07874-.66626c-.01211-.29679-.02423-.58752-.03028-.636a1.09342,1.09342,0,0,1,.12728-.52673c.07874-.11508.06057-.15142-.13931-.37552a.78527.78527,0,0,1-.2241-.40582.661.661,0,0,0-.07269-.28467,2.12651,2.12651,0,0,1-.08479-.60569,2.2006,2.2006,0,0,0-.0848-.58752.75611.75611,0,0,1-.06057-.27862.46481.46481,0,0,0-.09691-.27256,1.50546,1.50546,0,0,1-.19988-.91459,1.112,1.112,0,0,0-.09691-.8722c-.15143-.33919-.15143-.33919-.0424-.59358a4.43941,4.43941,0,0,1,.79951-1.169l.2544-.26045L18.56951.82116,18.33935.3366l-.30891.01817A1.59348,1.59348,0,0,1,17.3763.2579c-.27256-.09085-.36947-.103-.47244-.04845a.3153.3153,0,0,1-.23016.02423,1.4476,1.4476,0,0,0-.315-.06057,4.8631,4.8631,0,0,1-.7874-.103A1.68915,1.68915,0,0,0,14.68708.058Z"/>

</g>
</svg>
