<?xml version="1.0" encoding="UTF-8"?>
<svg xmlns="http://www.w3.org/2000/svg"
     version="1.1"
     width="27.21992865mm"
     height="23.32961968mm"
     viewBox="0.00000000 0.00000000 77.15881984 66.13119770">

<g transform="scale(3.49546162)">   <defs>
      <style type="text/css"><![CDATA[
      .a {
        fill: #000;
        stroke: #000;
        stroke-width: 0.15px;
      }
    ]]></style>
   </defs>
   <path class="a"
         d="M3.71886,2.92692a6.712,6.712,0,0,1,1.1123-.7964c.8281-.47611,1.6982-.76711,2.54292-1.1875A5.85483,5.85483,0,0,1,9.22666.12612a22.4568,22.4568,0,0,1,2.6338-.0185,10.1194,10.1194,0,0,1,1.51662.0649A5.39812,5.39812,0,0,1,14.712.58712c.7285.3159,1.459.6201,2.1875.9375A8.71341,8.71341,0,0,1,19.712,3.339a3.89059,3.89059,0,0,1,.66412,1.125c.17378.3745.417.71339.584,1.0728a5.47758,5.47758,0,0,1,.748,2.0673c.01078.9957.25388,1.9732.252,2.9766a16.55221,16.55221,0,0,1-.06252,3.0098,9.55819,9.55819,0,0,1-2.166,3.7524,3.29936,3.29936,0,0,1-2.18848,1.3526c-.48242.06589-1.65432.2993-2.00592-.1695-.53708-.7168.8506-1.2964.9268-1.914.1064-.8501-.5703-1.2574-1.33688-1.2544-.49912.0019-1.26962.1186-1.52452-.417-.4111-.8618.7432-1.751,1.3252-2.1704a4.61311,4.61311,0,0,0,1.9297-2.6807,6.15094,6.15094,0,0,0,.1748-2.4448c-.0957-.6314-.4629-.8311-1.0214-1.0845-1.2452-.5654-2.71-.3091-4.0284-.2852a7.78951,7.78951,0,0,0-3.0068.4185c-.5293.2461-1.0498.5088-1.5684.77489a7.49909,7.49909,0,0,0-1.2841.72071,7.769,7.769,0,0,0-.668.6641,5.7455,5.7455,0,0,1-1.2432,1.1484,2.43612,2.43612,0,0,1-2.0117.2022,4.9224,4.9224,0,0,1-1.7461-.9112,2.0716,2.0716,0,0,1-.07708-2.2749,7.70056,7.70056,0,0,1,.88378-.9731c.1474-.1338.2314-.1284.3398-.3321.0879-.1645.1045-.3623.19342-.5283A8.12374,8.12374,0,0,1,2.64556,4.089,8.37723,8.37723,0,0,1,3.71886,2.92692Z"/>
   <path class="a"
         d="M2.69636,13.25412c-.4639-.7813-2.2422-2.5831-1.043-3.4903a1.08334,1.08334,0,0,1,.708-.1841c.2725-.0205.4912-.19331.7676-.2265a2.04443,2.04443,0,0,1,1.0703.1714,9.639,9.639,0,0,1,1.2793.893,12.68451,12.68451,0,0,1,1.56452,1.4029,18.43272,18.43272,0,0,0,1.749,1.2832,17.25046,17.25046,0,0,0,3.41988,2.3188c.4365.2002,1.1309.293,1.252.8477.1592.7226-.75388,1.2719-1.2715,1.5996a7.7108,7.7108,0,0,1-2.165.8535,4.17552,4.17552,0,0,1-3.31738-.6318C4.94836,17.00162,3.72176,14.98352,2.69636,13.25412Z"/>

</g>
</svg>
