<?xml version="1.0" encoding="UTF-8"?>
<svg xmlns="http://www.w3.org/2000/svg"
     version="1.1"
     width="30.67836923mm"
     height="16.62090448mm"
     viewBox="0.00000000 0.00000000 86.96232938 47.11441898">

<g transform="scale(5.48693194)">   <defs>
      <style type="text/css"><![CDATA[
      .a {
        stroke: #000;
        stroke-linecap: round;
        stroke-linejoin: round;
        stroke-width: 0.01px;
      }
    ]]></style>
   </defs>
   <path class="a"
         d="M5.25019.00775a4.15592,4.15592,0,0,1-.72077.03634A2.30392,2.30392,0,0,0,2.66389.64978a3.79258,3.79258,0,0,1-.67231.48456,2.42878,2.42878,0,0,0-.46639.3089,1.535,1.535,0,0,0-.16353.56935c-.06057.40581-.05451.47244.02423.52089a2.85758,2.85758,0,0,1,.46032.92065,3.36851,3.36851,0,0,1-.00606.8298,3.282,3.282,0,0,0-.02422.38158.57175.57175,0,0,1-.1696.38765,3.22925,3.22925,0,0,0-.44821.95093,1.61984,1.61984,0,0,0,.59358.3089c.15142.02423.315.17565.315.28468,0,.09085-.24228.29073-.35736.29073a.69444.69444,0,0,0-.20593.03634c-.05452.01817-.19383-.05451-.33313-.18776C.968,6.525.95589,6.519.7015,6.58555c-.66021.1696-.73289.24834-.68444.75712a.93827.93827,0,0,0,.44216.79951c.315.24833.39975.27256.72077.16354.22411-.07874.3089-.0848.4361-.02423a1.39122,1.39122,0,0,0,.39975.09085,5.79094,5.79094,0,0,1,.72683.1272,2.00917,2.00917,0,0,0,.81769.06662,6.8158,6.8158,0,0,1,1.52028-.103,1.26242,1.26242,0,0,0,.73894-.14537c.38765-.19382.5209-.2241.66021-.15142a.72073.72073,0,0,0,.56329-.18777.96331.96331,0,0,1,.28467-.18776,2.187,2.187,0,0,0,.49061-.3937,1.3383,1.3383,0,0,1,.5209-.36341,5.89367,5.89367,0,0,0,1.15687-.48456,3.01214,3.01214,0,0,1,.48455-.24227,2.11165,2.11165,0,0,0,.46638-.24834,2.98257,2.98257,0,0,1,.424-.24833,1.81886,1.81886,0,0,0,.424-.30285.64625.64625,0,0,1,.3089-.19382.97636.97636,0,0,0,.39976-.321,4.45286,4.45286,0,0,1,.99939-.95094c.03634,0,.06663-.04845.06663-.109a1.18294,1.18294,0,0,1,.17565-.38159.732.732,0,0,1,.48455-.38158,1.94925,1.94925,0,0,1,.41187-.09691c.12719-.00606.50272-.32708.50272-.4361a1.28811,1.28811,0,0,1,.3089-.3513,1.08808,1.08808,0,0,0,.38765-.61175,1.0204,1.0204,0,0,1,.30284-.52089c.24228-.22411.25439-.27862.09086-.54513a.85417.85417,0,0,0-.82374-.424,1.60112,1.60112,0,0,1-.50878-.07874.45842.45842,0,0,0-.36342.02423.84011.84011,0,0,1-.58752.00606,1.09318,1.09318,0,0,0-.46638-.03029.6702.6702,0,0,1-.309-.006,5.65614,5.65614,0,0,0-.93882-.05451c-.41793-.006-.89643-.006-1.066-.01211a.67532.67532,0,0,0-.49667.13325L9.98065.3106,9.79288.17129A.48574.48574,0,0,0,9.32044.07438a11.07632,11.07632,0,0,1-1.8837.01211A20.975,20.975,0,0,0,5.25019.00775ZM11.4343,2.52743a.39442.39442,0,0,1,.12114.20593,1.96107,1.96107,0,0,1-.35736.7026.94728.94728,0,0,0-.20593.28468.85256.85256,0,0,1-.45427.43.9282.9282,0,0,0-.36947.29073.73066.73066,0,0,1-.27257.27256,1.10857,1.10857,0,0,0-.30284.2665,2.50708,2.50708,0,0,1-1.00545.642,2.20083,2.20083,0,0,0-.48459.206A5.3716,5.3716,0,0,1,5.983,6.71275c-.86008.09691-1.09024.11508-1.84736.14537-.39975.01817-.9267.04239-1.175.05451-.36947.01817-.46032.00606-.55723-.09086a.41954.41954,0,0,1-.11508-.17565c0-.09085.23016-.30284.32707-.30284a.16043.16043,0,0,0,.12719-.12114.73007.73007,0,0,1,.27862-.26045c.17565-.09691.23622-.16959.23622-.29073a.54182.54182,0,0,1,.09085-.27256A.47968.47968,0,0,0,3.43918,5.144a1.20658,1.20658,0,0,1,.09691-.36341A.80926.80926,0,0,0,3.627,4.44747a.73664.73664,0,0,1,.109-.321.81372.81372,0,0,0,.109-.527.71139.71139,0,0,1,.25439-.7026A4.75055,4.75055,0,0,1,5.04426,2.703c.03634,0,.19382.01817.36341.03634a1.10909,1.10909,0,0,0,.5209-.05452c.212-.08479.24833-.08479.50272.03029A1.03582,1.03582,0,0,0,7.02487,2.8a5.97637,5.97637,0,0,0,1.49-.26045c.11508-.07874.15142-.07268.28467.01211a.28973.28973,0,0,0,.30285.03634,6.81786,6.81786,0,0,1,1.066-.08479,6.01179,6.01179,0,0,0,.94487-.06057C11.186,2.36995,11.31316,2.40629,11.4343,2.52743Z"/>

</g>
</svg>
