<?xml version="1.0" encoding="UTF-8"?>
<svg xmlns="http://www.w3.org/2000/svg"
     version="1.1"
     width="18.71334968mm"
     height="19.74637119mm"
     viewBox="0.00000000 0.00000000 53.04564838 55.97405352">

<g transform="scale(6.56887650)">   <defs>
      <style type="text/css"><![CDATA[
      .a {
        stroke: #000;
        stroke-miterlimit: 10;
        stroke-width: 0.15px;
      }
    ]]></style>
   </defs>
   <path class="a"
         d="M4.28368.95113q-.9404.53869-1.88084,1.07738a5.69288,5.69288,0,0,0-1.94843,1.535A2.09194,2.09194,0,0,0,.40417,5.8846a1.23243,1.23243,0,0,0,.32426.26856c1.26926.78008,2.28826.04609,3.279.66016.87445.542.9706,1.66524,1.64683,1.63206A1.02908,1.02908,0,0,0,6.07,8.31332c.44733-.26748.37187-.74622.75-.90626.25273-.107.36084.07543.61262-.04662a1.10649,1.10649,0,0,0,.45971-.77213,1.75912,1.75912,0,0,0,.02142-1.11875c-.207-.46874-.74263-.57539-2.00556-.921-2.42527-.66376-2.5032-.83238-2.51043-.92015C3.36547,3.23731,4.57787,2.52923,5.255,2.81432a1.01289,1.01289,0,0,0,.70152.13692.71856.71856,0,0,0,.29608-.18c1.025-.94708,1.23628-1.13452,1.4424-1.58294.15837-.34458.13573-.45605.12581-.49464C7.71229.27155,6.94392.07287,6.38122.075,5.95042.07667,5.64028.174,4.28368.95113Z"/>

</g>
</svg>
