<?xml version="1.0" encoding="UTF-8"?>
<svg xmlns="http://www.w3.org/2000/svg"
     version="1.1"
     width="31.38704233mm"
     height="63.22119521mm"
     viewBox="0.00000000 0.00000000 88.97111300 179.20975738">

<g transform="scale(4.22440051)">   <defs>
      <style type="text/css"><![CDATA[
      .a {
        stroke: #000;
        stroke-linecap: round;
        stroke-linejoin: round;
        stroke-width: 0.01px;
      }
    ]]></style>
   </defs>
   <path class="a"
         d="M10.28237.06565a1.04731,1.04731,0,0,0-.29073.1817.3527.3527,0,0,1-.19988.09086.23616.23616,0,0,0-.17565.15142.53962.53962,0,0,1-.218.218.38588.38588,0,0,0-.18171.212.273.273,0,0,1-.18171.18171c-.103.02423-.19382.12719-.28467.315A4.52034,4.52034,0,0,1,7.72029,2.56109c-.27861.24834-.29073.27256-.17565.50273a1.00724,1.00724,0,0,0,.48456.51483.43185.43185,0,0,1,.20593.19988,2.59859,2.59859,0,0,0,.24228.34525,3.19238,3.19238,0,0,1,.53906,1.06.47229.47229,0,0,0,.12114.26044.204.204,0,0,1,.07268.212,1.50377,1.50377,0,0,0-.06662.34525c-.02423.35736-.13931.41187-.72077.35736a14.12337,14.12337,0,0,0-2.453.03634A5.45681,5.45681,0,0,1,4.286,6.38906c-.636-.13931-1.18716-.0848-1.25378.13325a.57348.57348,0,0,1-.424.23622c-.05451,0-.17565.17565-.27862.3937a1.02054,1.02054,0,0,1-.3513.4785.613.613,0,0,0-.23014.23626.427.427,0,0,1-.19382.19382.25994.25994,0,0,0-.15748.15142.286.286,0,0,1-.19988.15748c-.27862.06057-.321.0848-.28467.13931.01817.03028-.03634.13325-.12114.2241a.62555.62555,0,0,0-.15142.218c0,.02423-.06663.07874-.14537.11508a.57918.57918,0,0,0-.2241.212.36213.36213,0,0,1-.18171.17565c-.103.03634-.103.06662-.0424.54512a.33764.33764,0,0,0,.103.18776,1.4063,1.4063,0,0,0,.93276-.109,1.33274,1.33274,0,0,1,.45427-.13325,3.39324,3.39324,0,0,0,.97516-.27862,3.09046,3.09046,0,0,1,1.0357-.27257c.28468-.0424.66626-.109.848-.14537s.527-.09085.75711-.12719c.23622-.03029.67232-.09691.96911-.15143.7874-.13325,1.29618-.06662,1.30224.16354a.27989.27989,0,0,1-.27257.19382c-.04845-.02423-.09085-.00606-.09085.03029A.965.965,0,0,1,6.83,9.65373L6.59371,9.89l.03028.44822a1.92125,1.92125,0,0,0,.0848.55723A.20364.20364,0,0,1,6.727,11.059c-.01817.03028.00606.12114.06057.20593.05451.07874.09085.1696.07874.19382a.50921.50921,0,0,0,.09691.22411c.09691.14537.109.23622.07268.67837-.04239.50878-.04239.51484.109.58752.09085.03635.16353.0848.16353.103a1.19851,1.19851,0,0,1,.02423.16959.43852.43852,0,0,0,.11508.23017c.05452.05451.0848.12114.06663.15142s.01817.13931.0848.24833.109.22411.09085.24834a1.43044,1.43044,0,0,0,.00606.80557,5.11684,5.11684,0,0,1,.07268.86613,1.16036,1.16036,0,0,0,.03028.4361c.103,0,.15143.41186.13326,1.1811-.01212.46638-.02423.95093-.02423,1.07813a1.07075,1.07075,0,0,1-.0848.39976c-.05451.09691-.07268.19382-.04845.218a1.73509,1.73509,0,0,1,.05451.50273c.01211.25439.01817.51483.01817.58146a.65366.65366,0,0,0,.09691.24228c.04846.07874.06663.15142.04846.17565a.95548.95548,0,0,0-.05452.29679c-.01211.14535-.03028.35734-.04845.47244a.62343.62343,0,0,0,.05451.33313,1.34419,1.34419,0,0,1-.0424.957c-.07874.04845-.08479.09085-.01817.27256a.67208.67208,0,0,1,.03029.33313c-.06663.16959-.00606.53906.08479.50272a.65973.65973,0,0,1,.3089.109c.24228.1393.38159.12719.75106-.04846.1272-.06057.15142-.109.13931-.3089a2.82372,2.82372,0,0,1,.09691-1.169,1.17152,1.17152,0,0,0,.103-.3634,2.3326,2.3326,0,0,1,.06662-.34524,2.933,2.933,0,0,0,.09692-.68443.55037.55037,0,0,1,.103-.33313.64809.64809,0,0,0,.11508-.37553,1.36541,1.36541,0,0,1,.103-.46033c.0424-.09085.06663-.17565.0424-.19382-.07268-.07874-.04846-.32707.05451-.58146a1.012,1.012,0,0,0,.0848-.72078.24369.24369,0,0,1,.03028-.20593,2.5343,2.5343,0,0,0,.09086-.64809,2.81841,2.81841,0,0,1,.109-.90854c.02423-.03634,0-.12719-.04845-.20593-.07874-.11508-.0848-.15748-.01817-.26045a1.36231,1.36231,0,0,0,.11508-.69049c-.00606-.08479-.00606-.20593-.00606-.27256a3.79282,3.79282,0,0,0-.0424-.57541,3.23222,3.23222,0,0,1,.00606-.93881c.01817-.13326.03028-.27862.03028-.321-.01211-.29679-.03634-.41792-.09691-.4785a.43384.43384,0,0,1-.0424-.30284,3.36012,3.36012,0,0,0,.01817-.41187c-.00605-.103-.00605-.24228-.00605-.321,0-.07268.00605-.18171.00605-.24227a3.31848,3.31848,0,0,0-.09691-.80556,1.66043,1.66043,0,0,1-.07268-.92065.15526.15526,0,0,0-.0424-.19988c-.12114-.12114-.11508-.18171.02423-.321.32707-.32707.41187-.34524,1.49-.28467.27862.01817.62992.12719.642.212.06057.30284.0424.44215-.06662.55118s-.11508.13931-.03634.212c.07268.07268.07268.12114,0,.315a1.99119,1.99119,0,0,0-.0848.36341,1.54737,1.54737,0,0,1-.11508.39976.61429.61429,0,0,0-.07269.33313.75547.75547,0,0,1,.02423.29679,3.65948,3.65948,0,0,0-.01211.44215,2.46,2.46,0,0,1,0,.30285c-.03029.41187-.04846.533-.09086.59358a.43435.43435,0,0,0,.0424.2665.58674.58674,0,0,1,.03029.40581.89214.89214,0,0,0-.03029.315.78119.78119,0,0,1-.05451.35736.41931.41931,0,0,0-.01817.36947,1.85733,1.85733,0,0,1,.02423,1.12053,1.716,1.716,0,0,0-.12114.5633.51459.51459,0,0,0,.18171.5209.43727.43727,0,0,1,.16959.43609,14.20616,14.20616,0,0,0-.04846,1.98667,9.07151,9.07151,0,0,1-.07268,2.1926c-.05451.01817-.05451.06057.01212.15748a.55056.55056,0,0,1,.08479.25439,6.926,6.926,0,0,1-.01211.81768,1.02737,1.02737,0,0,0,.03634.3937,1.11079,1.11079,0,0,1,.01817.72683,2.17463,2.17463,0,0,0-.11508.86008,1.21109,1.21109,0,0,1-.05451.41187c-.02423.02423.00605.14537.07268.27256a.59855.59855,0,0,1,.09085.2544,2.46645,2.46645,0,0,0,.30891,1.11447.90733.90733,0,0,1,.16353.40581c-.01817.02423-.01211.0424.02423.0424.07874,0,.22411.33918.17565.41187a.46658.46658,0,0,0,.0424.26044,1.2095,1.2095,0,0,1,.06057.4785,3.915,3.915,0,0,0,0,.75711.80549.80549,0,0,1-.06663.35131.3144.3144,0,0,0-.01817.27256.232.232,0,0,1,.00606.19987,1.30009,1.30009,0,0,0-.02423.48456,6.69351,6.69351,0,0,1,.03029.963v.78739c0,.28468,0,.61175-.00606.72683a5.82678,5.82678,0,0,0,.02423.59964,1.63,1.63,0,0,1-.03029.5754.93179.93179,0,0,0,0,.5209,4.1781,4.1781,0,0,1,.0848.66626,1.45362,1.45362,0,0,0,.103.48456,2.77825,2.77825,0,0,1,.1393,1.06,1.416,1.416,0,0,0,.09086.49667.63913.63913,0,0,1,.07268.22409.11785.11785,0,0,0,.06663.109,2.58052,2.58052,0,0,1,.17565,1.37492.36871.36871,0,0,0,.07268.28467.42271.42271,0,0,1,.0848.26045c-.02423.03028.03028.15747.109.27862.1272.1817.13931.24833.09086.38158-.04846.12114-.0424.16959.03028.20594.13931.07874.35736.46638.315.56329a.46606.46606,0,0,0,.03028.26045,1.905,1.905,0,0,1,.0848.27256.94179.94179,0,0,0,.51484.73894.95277.95277,0,0,0,.81162.07874,2.34919,2.34919,0,0,0,.73289-.83585c.0848-.16354.17565-.30285.20594-.30285a.99392.99392,0,0,0,.27256-.55118.23348.23348,0,0,1,.03634-.17566,1.01317,1.01317,0,0,0,.07268-.34524,1.17125,1.17125,0,0,1,.14537-.4785,1.35251,1.35251,0,0,0,.13931-.81768c0-.75106-.02423-.854-.23017-.96911-.15142-.09085-.54512-.72077-.45427-.72077.02423,0-.04845-.09691-.15142-.212-.15142-.17565-.17565-.24833-.14536-.41187a1.33327,1.33327,0,0,1,.07874-.27862.52725.52725,0,0,0-.09692-.33313,1.82155,1.82155,0,0,1-.1817-.70866,3.88622,3.88622,0,0,0-.24228-1.26589,3.03024,3.03024,0,0,1-.15748-.71472c.00606-.103.00606-.24227.01212-.30284,0-.05452-.00606-.212-.01818-.34525a.91328.91328,0,0,1,.03029-.34524.47442.47442,0,0,0-.04846-.33313,1.9086,1.9086,0,0,1-.12113-.41187c-.00606-.103-.03029-.34524-.05452-.54512-.01817-.19988-.04845-.47244-.06662-.60569a4.39289,4.39289,0,0,1-.03029-.65415,2.48682,2.48682,0,0,0-.09691-.79345.31841.31841,0,0,1,0-.27862c.04846-.13325.03634-.218-.06662-.43a1.4412,1.4412,0,0,1-.13326-.66021c0-.218-.01211-.527-.02422-.69048a1.01111,1.01111,0,0,1,.01817-.38765c.03028-.06057.00605-.16959-.07269-.29679a2.60216,2.60216,0,0,1-.16959-1.10841c0-.11508.00606-.32707.01211-.47244a1.54466,1.54466,0,0,0-.06662-.44215.274.274,0,0,1,.03028-.33313c.103-.16354.11508-.35736.06057-.99334-.01817-.1817-.03028-.36341-.03028-.3937,0-.35735-.00606-.59357-.03029-.848-.01817-.1696-.04239-.45427-.05451-.642a1.61006,1.61006,0,0,0-.12114-.527c-.08479-.16959-.08479-.19382-.00605-.27861a.39625.39625,0,0,0,.07874-.29679.63806.63806,0,0,1,.03634-.27256.14366.14366,0,0,0-.04846-.16354.2787.2787,0,0,1-.06662-.218,1.49757,1.49757,0,0,0-.09086-.49061c-.08479-.2665-.09691-.40581-.05451-.48455a.22678.22678,0,0,0,.02423-.1696.76037.76037,0,0,1,.03634-.31495,4.25943,4.25943,0,0,0,.09085-.47244c.01212-.11509.03634-.321.05452-.45427a5.75617,5.75617,0,0,0-.06663-1.54451,1.10816,1.10816,0,0,1,.01211-.6057,3.0773,3.0773,0,0,0,.06057-.45426,3.065,3.065,0,0,1,.11508-.636,1.99024,1.99024,0,0,0,.09086-.3937,3.40584,3.40584,0,0,1,.23622-1.69593,1.46226,1.46226,0,0,0,.13931-.45427.88955.88955,0,0,1,.09085-.32707,1.73919,1.73919,0,0,0,.103-.56935c.01817-.49061.11508-.59358.43-.46033a1.11341,1.11341,0,0,0,.33313.0848.44043.44043,0,0,1,.26044.14536,5.41685,5.41685,0,0,0,.854.82374,1.20478,1.20478,0,0,1,.315.321c.07874.15142.07874.18171-.01817.34524a.48878.48878,0,0,1-.212.218.26464.26464,0,0,0-.14537.19382,1.2355,1.2355,0,0,1-.27256.58752,4.77261,4.77261,0,0,0-.72077.87826,1.83516,1.83516,0,0,1-.26045.36947,1.26617,1.26617,0,0,0-.25439.7874,1.17861,1.17861,0,0,0,.57541.2665c.03028-.01817.16959.07874.3089.212a.60743.60743,0,0,0,.55118.24228.70179.70179,0,0,0,.38764-.0848.43228.43228,0,0,1,.14536-.109c.03635-.01212.07269-.07874.0848-.15143a2.32577,2.32577,0,0,1,.45427-.55118c.33313-.32707.41793-.44215.38764-.54512-.02423-.09085.02423-.17565.1696-.315a1.40933,1.40933,0,0,1,.3089-.218.24782.24782,0,0,0,.13931-.15143c.02422-.06057.06057-.11508.09691-.11508.03028,0,.09085-.09691.13931-.212s.11508-.212.13931-.212a1.36378,1.36378,0,0,0,.30284-.23017.6595.6595,0,0,0,.28468-.424,1.92406,1.92406,0,0,1,.44821-.7874.31231.31231,0,0,0,.07268-.12719c0-.02423.06057-.07269.12719-.109.09086-.03634.1696-.16959.23622-.38764.0848-.28467.0848-.34524.01212-.46032a.484.484,0,0,1-.03029-.3937.90472.90472,0,0,0-.19382-.7874c-.2241-.29073-.30284-.41793-.30284-.49061,0-.03634-.09691-.11508-.218-.17565a1.00041,1.00041,0,0,1-.29073-.19382.32932.32932,0,0,0-.21805-.09691,1.54447,1.54447,0,0,1-.69049-.50878c-.43-.5209-.79346-.642-1.8837-.61781-.72683.01212-.92671-.01817-1.06-.17565a1.7697,1.7697,0,0,0-.7874-.2241,1.24679,1.24679,0,0,0-.3937.08479,2.83059,2.83059,0,0,1-1.36886.01212,1.12055,1.12055,0,0,0-.79345-.01818.74137.74137,0,0,1-.65415-.103.15217.15217,0,0,1-.02423-.212.339.339,0,0,0,.03635-.20594,1.69578,1.69578,0,0,1,.212-.72077.80577.80577,0,0,0,.08479-.24833c.01212-.06663.0424-.218.07269-.33919a1.98277,1.98277,0,0,0-.06663-.88431.24224.24224,0,0,1,.05451-.22411.1982.1982,0,0,0,.05451-.16959.27057.27057,0,0,1,.0484-.19991.58148.58148,0,0,0-.109-.60569c-.15748-.12719-.26651-.36341-.212-.45427a.2953.2953,0,0,0-.03028-.24833c-.04846-.0848-.06663-.17565-.04846-.19988.06057-.06057-.17565-.51484-.29073-.55118a.25346.25346,0,0,1-.14536-.13931A.53679.53679,0,0,0,11.49375.629a.87965.87965,0,0,1-.32707-.27862A.64915.64915,0,0,0,10.83355.102L10.54281.00508A.55037.55037,0,0,0,10.28237.06565Z"/>

</g>
</svg>
