<?xml version="1.0" encoding="UTF-8"?>
<svg xmlns="http://www.w3.org/2000/svg"
     version="1.1"
     width="45.73106108mm"
     height="35.54822571mm"
     viewBox="0.00000000 0.00000000 129.63144853 100.76669824">

<g transform="scale(6.07876033)">   <defs>
      <style type="text/css"><![CDATA[
      .a {
        stroke: #000;
        stroke-miterlimit: 10;
        stroke-width: 0.15px;
      }
    ]]></style>
   </defs>
   <path class="a"
         d="M16.45992,11.00639c-1.15027,1.3955-2.58727,1.61923-4.36265,1.55867A9.79643,9.79643,0,0,1,7.443,11.21827c-.19282-.11465-.59452-.407-1.40671-.97755C4.87121,9.42223,4.28864,9.013,4.23685,8.97394,3.02867,8.06287,2.60546,7.58013,2.153,7.737a1.45237,1.45237,0,0,0-.59729.49394,9.29772,9.29772,0,0,0-1.21041,3.2925c-.23777.98252-.35357,1.48082-.20216,1.82552a2.02375,2.02375,0,0,0,1.32714,1.08818c.5612.12829,1.01221-.07947,1.34867.25234.154.15183.1137.24877.26169.40948a1.57627,1.57627,0,0,0,1.29153.28093c.10448-.01212-.59325.07476,5.59216.85318,1.82078.22914,4.34022.52978,5.369-.14564.36577-.24013.76485-.55145.76485-.55145a13.75809,13.75809,0,0,0,1.09462-.95847c.27339-.26065.57336-.56721.90684-.943a19.014,19.014,0,0,0,2.57476-3.81684,7.965,7.965,0,0,0,.5625-2.28125.70622.70622,0,0,0-.09375-.53125,1.072,1.072,0,0,0-1.15625-.125,1.86543,1.86543,0,0,0-.88518.92127A21.7895,21.7895,0,0,1,16.45992,11.00639Z"/>
   <path class="a"
         d="M16.61185.22394c1.606-.27677,1.99483-.1265,2.18993.11527a1.38247,1.38247,0,0,1-.12743,1.60348c-.29548.33127-.61439.24432-.73076.52519-.16183.3906.41131.66408.512,1.44356A2.36492,2.36492,0,0,1,18.11475,5.341c-.11981.2141-.06758.08427-.59921.7467a.5875.5875,0,0,1-.2674.22192c-.19083.05635-.37515-.08659-.54857-.18416a1.34524,1.34524,0,0,0-1.38056.05571,4.2213,4.2213,0,0,1-.61239,2.48734c-.11491.18653-.24951.40909-.15937.60878.08456.18732.32691.24962.44418.4184.1969.28339-.13834.75952-.35009,1.08449-.33159.50892-.46176.45221-.65449.78752-.42205.7343-.05744,1.45807-.3125,1.5625-.05709.02337-.122.0014-.9375-.75a3.61778,3.61778,0,0,1-.65625-.6875c-.23419-.35578-.15223-.43154-.34375-.65625-.28553-.335-.51619-.22352-.95477-.5668-.08874-.06946-.71588-.53274-.56047-.87922.08345-.186.288-.31675.30914-.51953a.49552.49552,0,0,0-.11315-.3301c-.26815-.37161-.75529-.44129-1.39256-.66244A4.22581,4.22581,0,0,1,7.7056,7.41144c-.17983-.14184-.80335-.63365-.69441-1.04492a.61859.61859,0,0,1,.33015-.34175A6.32494,6.32494,0,0,0,9.2056,4.59894c-.03219-.0762-.49277.05166-.53125.0625-1.192.33544-1.57919,1.06-2.15625.90625a.63109.63109,0,0,1-.44251-.37107A.64159.64159,0,0,1,6.188,4.6885c.23124-.34748.56541-.34.57355-.50969.00973-.20277-.46406-.28841-.47294-.5283-.00637-.17241.22738-.308.32321-.36407a1.67164,1.67164,0,0,1,.96875-.1875c.0961.00571.65781-.12119,1.78125-.375,1.31137-.29627,1.81137-.79338,3.84814-1.58106A18.46808,18.46808,0,0,1,16.61185.22394Z"/>

</g>
</svg>
