<?xml version="1.0" encoding="UTF-8"?>
<svg xmlns="http://www.w3.org/2000/svg"
     version="1.1"
     width="27.07558906mm"
     height="48.58943507mm"
     viewBox="0.00000000 0.00000000 76.74974668 137.73380727">

<g transform="scale(4.36982859)">   <defs>
      <style type="text/css"><![CDATA[
      .a {
        stroke: #000;
        stroke-linecap: round;
        stroke-linejoin: round;
        stroke-width: 0.01px;
      }
    ]]></style>
   </defs>
   <path class="a"
         d="M8.56526.01838a2.67951,2.67951,0,0,1-.69049.1272,1.6643,1.6643,0,0,0-.66626.18776.44917.44917,0,0,1-.22411.0848c-.06057,0-.109.03028-.109.06057A.72959.72959,0,0,1,6.69369.7331.93848.93848,0,0,0,6.512.96932a1.05479,1.05479,0,0,1-.27256.24227c-.15748.11508-.2665.23017-.24833.27862.01817.0424-.05451.16959-.16354.27862a4.88536,4.88536,0,0,0-.751.90248c-.0424.09691-.103.16959-.13931.16959-.03029,0-.06057.0424-.06057.09086,0,.103.01817.08479-.8722.90853a3.37367,3.37367,0,0,0-.745.83586,1.72516,1.72516,0,0,1-.38764.49061,1.35779,1.35779,0,0,0-.29679.321,2.712,2.712,0,0,1-.72683.9146.95909.95909,0,0,0-.43.53906,1.3103,1.3103,0,0,1-.29073.50272c-.03028,0-.07268.07269-.09085.15748a4.27233,4.27233,0,0,1-.533,1.066c-.06057.06057-.09691.13931-.07874.16959.0424.06663-.13325.424-.20594.424-.03028,0-.08479.12114-.12719.27256-.16354.58146-.09085,1.066.17565,1.1387a.80346.80346,0,0,0,.3513-.04846c.19382-.06662.26045-.13931.44215-.49666a3.059,3.059,0,0,1,.424-.62387,2.67643,2.67643,0,0,0,.56329-.81768,1.61,1.61,0,0,1,.321-.3937c.12719-.12114.33918-.34524.47244-.50272a2.36024,2.36024,0,0,1,.56329-.47244,1.18165,1.18165,0,0,0,.3633-.27256,1.1418,1.1418,0,0,1,.5633-.34525,2.22526,2.22526,0,0,0,.53906-.36341,2.99434,2.99434,0,0,1,.7874-.4785c.18776-.06662.424-.16353.527-.212.18171-.09085.19988-.09085.41187.03634.23016.14537.36947.33313.3089.43a1.76622,1.76622,0,0,0,.18171.55724,3.29049,3.29049,0,0,1,.212.60569,1.69441,1.69441,0,0,0,.18171.4785c.15142.315.16959.38764.109.49666a.90024.90024,0,0,0-.01825.70873.40078.40078,0,0,1,.04846.22411.28053.28053,0,0,0,.06057.20593.26309.26309,0,0,1,.06057.212,1.38018,1.38018,0,0,0,.09691.43,1.27716,1.27716,0,0,1,.09085.4785.379.379,0,0,0,.06057.27256c.0848.13325.07874.1696-.03028.41187a.66186.66186,0,0,0-.07874.36342,3.60829,3.60829,0,0,1,.103.73288.78605.78605,0,0,0,.12114.315c.09085.1272.09691.18777.0424.28468a1.84192,1.84192,0,0,0-.07874.53906,1.936,1.936,0,0,1-.06057.47244.50976.50976,0,0,0,.02423.27256,3.31871,3.31871,0,0,1,.11508.90248c-.00606.27862-.00606.47244-.00606,1.0539a2.42368,2.42368,0,0,1-.04845.57541.90326.90326,0,0,0-.02423.33919,1.27076,1.27076,0,0,1-.0424.66626,2.20042,2.20042,0,0,0-.0848.45426,1.66726,1.66726,0,0,1-.212.55724.99375.99375,0,0,0-.16353.39976,7.86924,7.86924,0,0,1,.1817,1.26589,1.21891,1.21891,0,0,0,.0848.41187.54666.54666,0,0,1,.01211.30285.54653.54653,0,0,0,.01212.30284.58118.58118,0,0,1,.02423.321,1.53194,1.53194,0,0,0-.03029.44821,1.02535,1.02535,0,0,1-.03634.23016c-.01817.0848-.04846.30285-.06663.48455a1.81146,1.81146,0,0,1-.09085.44216,1.8504,1.8504,0,0,0,0,.94488,3.49834,3.49834,0,0,1,.0848.84191,4.38264,4.38264,0,0,0,.06662.7874,1.53854,1.53854,0,0,1,.12114.47244.66515.66515,0,0,0,.06057.19382,1.01325,1.01325,0,0,1-.03028.37552.57615.57615,0,0,0,.04239.5209c.109.19988.109.20593-.03028.49061a2.56183,2.56183,0,0,0-.2665,1.84736.60974.60974,0,0,1,.06662.18776c-.05451.05451.23016.52695.3513.58146a.63046.63046,0,0,1,.25439.29679.9693.9693,0,0,0,.8298.642c.103-.01211.29073-.03634.424-.06056a4.88932,4.88932,0,0,1,1.06-.01818c.51484.03029,1.03573-.33313,1.02968-.71471a1.93711,1.93711,0,0,1,.1817-.93882,1.29543,1.29543,0,0,0,.17565-.424.57916.57916,0,0,1,.1696-.321,6.97744,6.97744,0,0,0,1.10236-1.15687,1.07174,1.07174,0,0,0-.00606-1.07813,1.2237,1.2237,0,0,0-.56935-.50878,1.77947,1.77947,0,0,0-.90248.02423c-.15748.06662-.24833.07268-.33313.02422a.3738.3738,0,0,1-.15142-.424c.02422-.03634-.00606-.12114-.06663-.18776a4.15476,4.15476,0,0,1-.13332-1.87153,2.25665,2.25665,0,0,1,.07874-.59963,1.85057,1.85057,0,0,0,.12114-.73289,3.63278,3.63278,0,0,1,.09085-.60569,1.73407,1.73407,0,0,0,.06057-.36342c0-.04845-.01211-.28467-.01817-.51483a1.72389,1.72389,0,0,0-.09086-.5633c-.06662-.12113-.06056-.16353.04846-.3513a1.15521,1.15521,0,0,1,.41793-.35129c.29679-.15142.61174-.41792.61174-.50878a8.27042,8.27042,0,0,1,1.1387-1.16292c.03029,0,.0848-.06663.12114-.14537a.35336.35336,0,0,1,.18171-.18171.45736.45736,0,0,0,.19382-.19382,1.07346,1.07346,0,0,1,.29073-.27862.91364.91364,0,0,0,.321-.3937.84316.84316,0,0,1,.29073-.36947.42859.42859,0,0,0,.212-.26651.34893.34893,0,0,1,.18777-.24228,1.17907,1.17907,0,0,0,.34524-.37553,11.62829,11.62829,0,0,0,.92671-1.85947,1.09171,1.09171,0,0,1,.23016-.43609,1.43777,1.43777,0,0,0,.24833-.4361,1.26354,1.26354,0,0,1,.14537-.33313,1.97757,1.97757,0,0,0,.17565-.45427.64646.64646,0,0,0-.0424-.54512,2.107,2.107,0,0,1-.14536-.48456c-.03635-.33918-.07874-.41792-.27862-.533-.22411-.13326-.36342-.109-1.03573.19987a2.50892,2.50892,0,0,0-.4361.30891.80312.80312,0,0,0-.321.46638,2.26574,2.26574,0,0,1-.16353.46638,1.6124,1.6124,0,0,0-.13931.45427,1.48958,1.48958,0,0,1-.14537.47244c-.06663.13931-.109.28467-.0848.321.01817.03635-.01817.14537-.09085.24228s-.11508.20594-.09691.23622a.6757.6757,0,0,1-.1272.33919,1.36007,1.36007,0,0,0-.1817.533,1.3076,1.3076,0,0,1-.13931.50272,1.43636,1.43636,0,0,0-.1272.32707,3.20263,3.20263,0,0,1-.64809.96911,1.91193,1.91193,0,0,0-.321.41792,5.90184,5.90184,0,0,1-.79346.95094c-.35736.3937-.60569.36341-.642-.07874-.00606-.13325-.03029-.33313-.04846-.44821s-.03634-.24228-.03634-.27256c.00605-.03634.01817-.41793.03028-.854a6.18056,6.18056,0,0,1,.0848-.99939,7.25859,7.25859,0,0,0,.15748-1.26589.899.899,0,0,1,.0848-.33919,3.21614,3.21614,0,0,0,.13325-.6602,4.12929,4.12929,0,0,1,.09691-.58752,2.55077,2.55077,0,0,0,.06057-1.12659.49146.49146,0,0,1,.03029-.26044,26.84426,26.84426,0,0,0,.13928-2.99217c.00605-.745-.00606-.80557-.16354-1.11447a.754.754,0,0,1-.1272-.50878.68957.68957,0,0,0-.07268-.41793c-.103-.2241-.103-.26044-.00606-.55118.1272-.41792.1696-.73894.09692-.81162a.90642.90642,0,0,1-.0848-.38764,3.23565,3.23565,0,0,0-.16354-1.07208.5784.5784,0,0,1-.08479-.27256,1.62358,1.62358,0,0,0-.59969-1.2235,10.36785,10.36785,0,0,0-.79951-.72683C9.51013.194,9.41928.13338,9.11038.091,8.9953.07284,8.83782.04256,8.753.02438A.27965.27965,0,0,0,8.56526.01838Z"/>

</g>
</svg>
