<?xml version="1.0" encoding="UTF-8"?>
<svg xmlns="http://www.w3.org/2000/svg"
     version="1.1"
     width="23.66068099mm"
     height="22.49599662mm"
     viewBox="0.00000000 0.00000000 67.06965611 63.76814455">

<g transform="scale(6.50698008)">   <defs>
      <style type="text/css"><![CDATA[
      .a {
        stroke: #000;
        stroke-miterlimit: 10;
        stroke-width: 0.15px;
      }
    ]]></style>
   </defs>
   <path class="a"
         d="M3.16554,3.096a7.26436,7.26436,0,0,1-.99579.54757A6.24044,6.24044,0,0,0,.5585,5.19874a1.78234,1.78234,0,0,0-.47425.81172.99554.99554,0,0,0,.51715.96888,1.43944,1.43944,0,0,0,1.27178-.1626,3.82319,3.82319,0,0,0,1.25141-.95592A12.69178,12.69178,0,0,1,6.29324,3.50059a11.45172,11.45172,0,0,0,1.91489-1.117A3.508,3.508,0,0,0,9.31506.66407.35108.35108,0,0,0,9.28244.37855.39155.39155,0,0,0,9.07711.26486a2.05543,2.05543,0,0,0-1.494-.074,2.03237,2.03237,0,0,0-.80336.96507c-.24538.44383-.17077.52493-.32693.65322-.45354.37259-1.08368-.311-1.85106-.06382C4.01367,1.93468,4.1257,2.41923,3.16554,3.096Z"/>
   <path class="a"
         d="M4.78588,4.34388a1.68652,1.68652,0,0,0-1.50565.74189,2.97671,2.97671,0,0,0-.17,1.21439,2.62914,2.62914,0,0,0,.02561.99323,1.93341,1.93341,0,0,0,.39953.60865L4.74949,9.32159a1.05252,1.05252,0,0,0,.49837.38581,1.04827,1.04827,0,0,0,.48863-.03383l1.54132-.35628a.39961.39961,0,0,0,.37035-.40756c.07276-.45033.55576-.82346.62754-.78119.05193.03058-.05021.31458.00418.554.00754.0332.02636.12315.07032.12272A.10144.10144,0,0,0,8.40414,8.782l1.114-.76832a1.34378,1.34378,0,0,0,.39834-.36291,1.34571,1.34571,0,0,0,.15292-.59667l.14685-1.5224a1.24714,1.24714,0,0,0-.0271-.53994A.95062.95062,0,0,0,9.67,4.49307a3.87913,3.87913,0,0,0-1.89058-.20168C6.77413,4.35151,5.78832,4.31792,4.78588,4.34388Z"/>

</g>
</svg>
