<?xml version="1.0" encoding="UTF-8"?>
<svg xmlns="http://www.w3.org/2000/svg"
     version="1.1"
     width="68.39370391mm"
     height="32.15274158mm"
     viewBox="0.00000000 0.00000000 193.87189964 91.14161999">

<g transform="scale(2.79559400)">   <defs>
      <style type="text/css"><![CDATA[
      .a {
        fill: #000;
        stroke: #000;
        stroke-linecap: round;
        stroke-width: 0.25px;
        fill-rule: evenodd;
      }
    ]]></style>
   </defs>
   <path class="a"
         d="M39.746,5.29053a33.68677,33.68677,0,0,1,3.101-2.32718,13.64207,13.64207,0,0,1,1.8497-.9121c.6015-.32572,1.1001-.7983,1.7124-1.1059.9292-.4673,4.0297-1.4449,4.7456-.2466.957,1.603-2.9297,3.27778-3.7661,3.9526A16.32241,16.32241,0,0,1,44.807,5.81153a28.42264,28.42264,0,0,0-2.5796,1.518,40.89752,40.89752,0,0,0-4.5107,3.50882c-2.7935,2.4649-5.2559,5.4737-8.5069,7.3135a13.881,13.881,0,0,0-2.3408,1.90868c-.5366.46242-1.105.88382-1.6601,1.32472a19.93234,19.93234,0,0,0-3.0581,2.6768c-.3291.396-.5562,1.1386-1.0772,1.2739-1.2095.3125-.4458-1.5161-.1538-1.9551.4971-.7451,1.0732-1.4809,1.606-2.1289,1.7837-2.1641,4.2129-3.7622,6.2075-5.7261.9814-.9658,1.7856-2.0864,2.747-3.0766,1.0635-1.0952,2.4014-1.7896,3.2754-3.0484.9971-1.4331,2.9571-2.0122,4.1744-3.2729C39.2045,5.84375,39.4667,5.56005,39.746,5.29053Z"/>
   <path class="a"
         d="M61.2767,17.86375c-1.1899.2573-2.5039.3233-3.5722.5977-1.2281.3144-2.4658.7368-3.7652.9902a21.51415,21.51415,0,0,0-4.5302,1.2764c-.7974.3613-1.6231.62448-2.4053,1.0171-1.7388.872-3.3565,1.8642-5.1538,2.622-.9136.3858-1.8623.5108-2.7915.8335-.7945.2754-1.5401.7061-2.3174,1.02688-3.7808,1.55762-7.7739,2.37942-11.2974,4.38572-.5908.3365-1.186.357-1.8012.6617-.4053.2001-.8091.434-1.2349.6147a8.28586,8.28586,0,0,1-4.1333.52388c-1.3525-.16308-2.8814-.07608-3.9834-1.02a10.41291,10.41291,0,0,1-1.3228-2.645c.4419-5.46238,3.439-11.99948,1.4878-17.19038-1.9326-.45762-6.5537-2.3477-7.6035.3295-.4101-.0854-.5888-.4023-.8266-.6606-1.9224.4941-3.3912,2.9751-5.6206,1.6523-1.7037-6.3164,4.6992-8.5546,10.0839-8.7597.7393.00488-.3618.4853,0,1.1562a2.53168,2.53168,0,0,0,2.479-.3305c.0977-.7032-1.0878-.1236-.9912-.8257,3.9712.438,6.0034,3.2373,6.2808,6.7768.1953,2.4859-1.2925,6.9107-1.4878,10.24808-.124,2.13042-.269,3.40282.1655,4.62842a7.3475,7.3475,0,0,0,1.6533,1.4883A17.1549,17.1549,0,0,0,25.204,26.188c1.8198-.6391,3.7148-.8481,5.5415-1.603,1.6899-.6992,3.4341-1.5732,5.0835-2.4385a27.76365,27.76365,0,0,1,4.6113-1.8227,9.58007,9.58007,0,0,0,1.4736-.6187,20.16149,20.16149,0,0,1,2.2549-.7729c1.1436-.4282,2.3194-.8843,3.4771-1.3408a37.8442,37.8442,0,0,1,7.8994-2.0733,12.558,12.558,0,0,0,3.583-.8276,11.37128,11.37128,0,0,1,1.9717-.7027,33.48776,33.48776,0,0,0,4.2505-1.86622c1.0258-.437,1.9521-.97948,2.958-.28708a1.83517,1.83517,0,0,1,.8843,1.3062c.208,1.166-.6553,1.4648-1.5708,1.9404-.9278.4819-1.9498.6914-2.9126,1.0811a9.93443,9.93443,0,0,0-1.6167,1.0229A5.59014,5.59014,0,0,1,61.2767,17.86375Z"/>

</g>
</svg>
