<?xml version="1.0" encoding="UTF-8"?>
<svg xmlns="http://www.w3.org/2000/svg"
     version="1.1"
     width="19.89600259mm"
     height="67.47315394mm"
     viewBox="0.00000000 0.00000000 56.39820877 191.26246364">

<g transform="scale(6.50698008)">   <defs>
      <style type="text/css"><![CDATA[
      .a {
        stroke: #000;
        stroke-miterlimit: 10;
        stroke-width: 0.15px;
      }
    ]]></style>
   </defs>
   <path class="a"
         d="M6.92138.1449a1.54057,1.54057,0,0,1,1.38937.196,1.04936,1.04936,0,0,1,.27649.66662,2.96059,2.96059,0,0,1-.68475,1.82736A21.80573,21.80573,0,0,1,6.27017,4.904c-1.12029,1.28241-1.45212,1.59228-1.343,1.792.20939.38329,1.98592.25511,2.68687.111a.82354.82354,0,0,1,.41778.03742.71244.71244,0,0,1,.31973.93986,1.53988,1.53988,0,0,1-.81437.71926,7.4345,7.4345,0,0,1-1.9791.514q-.86358.13662-1.73051.25073a2.24472,2.24472,0,0,1-.927-.00987A2.2927,2.2927,0,0,1,1.89,8.4533a.58132.58132,0,0,1-.183-.36622.555.555,0,0,1,.1392-.30368c.23939-.319,1.58293-1.7129,1.859-2.02775A4.09152,4.09152,0,0,0,4.73565,3.40872c.00568-.09755.04991-.96843-.26142-1.07475-.12916-.04411-.283.05586-.5283.21533-.326.21191-.38346.3695-.6026.49623a2.10455,2.10455,0,0,1-.87266.2152Q1.464,3.3531.45208,3.36163a.40055.40055,0,0,1-.33547-.1047C.00673,3.1115.135,2.9093.26321,2.7797,1.92715,1.09732,4.6742.5772,6.92138.1449Z"/>
   <path class="a"
         d="M2.83455,12.28281a3.89088,3.89088,0,0,0,.15555.561c.14741.42142.22528.63066.34844.90374a6.98777,6.98777,0,0,1,.34392,2.42716c.05757,1.29259-.13527,4.64037-.07331,5.41881.01418.17818-.34648,3.111-.45557,3.644a6.27469,6.27469,0,0,1-.68607,2.07717c-.25781.41707-.61233.77146-.83983,1.20581a.69006.69006,0,0,0-.10176.424.54184.54184,0,0,0,.68929.35185,1.33293,1.33293,0,0,0,.65719-.55093,2.45075,2.45075,0,0,1,.57376-.65239c.42616-.28223,1.03688-.22489,1.403-.58156.33818-.32943.34619-.904.70038-1.21618.15711-.13847.37049-.21228.4982-.37826A1.19915,1.19915,0,0,0,6.14,25.03542,8.97816,8.97816,0,0,1,6.228,22.89961L6.671,19.25342c.12484-1.02768.17227-1.7733.23245-2.60238.10043-1.38371.25866-4.07494-.31673-5.104a3.726,3.726,0,0,1-.30318-.67406,3.49116,3.49116,0,0,1-.19408-1.04431c-.01691-.74735.25206-.99993.0759-1.19752-.216-.24221-.79609-.06-1.05258.02056a2.50173,2.50173,0,0,0-.9305.53116,6.08455,6.08455,0,0,0-.95877,1.51508A2.01111,2.01111,0,0,0,2.83455,12.28281Z"/>

</g>
</svg>
