<?xml version="1.0" encoding="UTF-8"?>
<svg xmlns="http://www.w3.org/2000/svg"
     version="1.1"
     width="26.42355350mm"
     height="58.53055687mm"
     viewBox="0.00000000 0.00000000 74.90136458 165.91337093">

<g transform="scale(4.54756027)">   <defs>
      <style type="text/css"><![CDATA[
      .a {
        stroke: #000;
        stroke-linecap: round;
        stroke-linejoin: round;
        stroke-width: 0.01px;
      }
    ]]></style>
   </defs>
   <path class="a"
         d="M11.32247.08976A1.64892,1.64892,0,0,1,10.747.17455a.90111.90111,0,0,0-.45426.0848,3.00009,3.00009,0,0,1-1.06.15142A6.00874,6.00874,0,0,0,7.48845.68939a12.30636,12.30636,0,0,1-1.28407.3089,13.40793,13.40793,0,0,0-1.35069.30285.3323.3323,0,0,1-.315-.03028.64855.64855,0,0,0-.745.15747,1.30428,1.30428,0,0,1-.80557.30891.743.743,0,0,0-.29679.09085.50024.50024,0,0,1-.19987.07874.51814.51814,0,0,0-.24228.1272,3.63111,3.63111,0,0,1-1.278.69048c-.64809.07874-.82374.12114-.82374.212a2.304,2.304,0,0,1-.09085.3513A.577.577,0,0,0,.04447,3.736a.4844.4844,0,0,1,.03635.26044.53149.53149,0,0,0,.07268.28468A2.18393,2.18393,0,0,1,.311,5.31081a.75563.75563,0,0,0,.05451.35131,2.60423,2.60423,0,0,1,.321,1.22952.86574.86574,0,0,0,.09691.37553.69674.69674,0,0,1,.09085.315,1.04432,1.04432,0,0,0,.13931.54512.87856.87856,0,0,1,.07268.36341,1.88955,1.88955,0,0,0,.0848.44821.39076.39076,0,0,1,.01817.32708c-.03634.07268-.02423.13325.07268.218.06663.06056.109.15142.09086.19382a2.34126,2.34126,0,0,0-.04846.315c-.00606.12719-.04845.24833-.09085.26044a.81709.81709,0,0,0-.36947.45427c0,.06057.08479.15142.19382.212.30284.16354.55118.424.51483.55118a.24345.24345,0,0,0,.09086.212c.09085.07874.09691.12114.04845.218a.50752.50752,0,0,0,.00606.38159,2.42449,2.42449,0,0,1,.09085.46638c.04846.55724.103.78134.24228.93882a.93784.93784,0,0,1,.17565.29679,1.478,1.478,0,0,1,.03029.7026c-.03635.06057-.02423.12114.04239.19382a.642.642,0,0,1,.11508.33919c.01212.12114.03635.33313.05452.46638s.0424.3937.06057.57541c.01211.18171.04239.45427.06662.60569.01817.15142.0424.59963.05451.99939a16.02963,16.02963,0,0,0,.1272,1.69593,2.66823,2.66823,0,0,1-.01211.7874,3.94257,3.94257,0,0,0,.06662,1.30224c.01817.11508.03634.3089.04846.424a.96126.96126,0,0,0,.05451.27862c.02423.03634-.01211.15142-.07268.25439a.336.336,0,0,0-.06057.33919.25378.25378,0,0,1,.01817.1817,8.07743,8.07743,0,0,0,.0424,1.72622,3.75852,3.75852,0,0,1,.05451,1.24773v.33313a4.11688,4.11688,0,0,1-.0848.9691,1.41779,1.41779,0,0,0-.06662.45427,3.60468,3.60468,0,0,1-.05452.51484,1.37507,1.37507,0,0,0-.01211.636.82564.82564,0,0,1-.06057.44216.72055.72055,0,0,0-.07268.36341.62047.62047,0,0,1-.0424.315,5.17678,5.17678,0,0,0-.06663.96911c-.01211,1.24772-.0424,1.52634-.16959,1.73833a.40955.40955,0,0,0-.06057.35736,2.54838,2.54838,0,0,1,.06057.51484,1.74572,1.74572,0,0,0,.72077,1.25378,3.05565,3.05565,0,0,1,.46638.47244,1.25341,1.25341,0,0,0,.41793.23016,3.385,3.385,0,0,1,.55118.24833,2.756,2.756,0,0,0,.50272.23622,4.24788,4.24788,0,0,1,.4785.19988,1.13845,1.13845,0,0,0,1.25984-.14537,1.23652,1.23652,0,0,1,.41792-.218c.22411-.06057.27256-.109.315-.27256.03029-.103.07874-.19382.109-.19382s.07268-.103.09691-.23016a2.561,2.561,0,0,1,.14536-.46638,1.26154,1.26154,0,0,0,.09086-.33313c-.01212-.12114.13931-.424.212-.424.14536,0,.20593-.642.07874-.77528a.56514.56514,0,0,1-.11508-.24228,1.43266,1.43266,0,0,0-.12114-.32707.69169.69169,0,0,1-.0848-.27862.172.172,0,0,0-.13325-.15748c-.16959-.0424-.49667-.54512-.44821-.67837a.29919.29919,0,0,0-.04846-.22411c-.14536-.23016-.1817-.6178-.06662-.73288.05451-.05452.08479-.12114.06057-.15748a.23833.23833,0,0,1,.03028-.18171.43919.43919,0,0,0,.00606-.34524.3738.3738,0,0,1,.02417-.35741c.07874-.12114.07268-.1696-.03635-.41793a.76225.76225,0,0,1-.08475-.49057.57768.57768,0,0,0-.02423-.315.2505.2505,0,0,1,.03028-.25439.98213.98213,0,0,0,.0848-.3089c0-.13931.07874-.27256.29679-.50878a3.94292,3.94292,0,0,1,.30285-.26651.7742.7742,0,0,0,.24833-.28467c0-.07268.12114-.22411.6178-.75711a.51189.51189,0,0,1,.27256-.17565c.07874,0,.13931-.07269.19383-.212a.6234.6234,0,0,1,.53906-.3937.48225.48225,0,0,0,.3513-.34524.2499.2499,0,0,1,.09691-.14537c.0424-.03028.07874-.07268.07874-.09691.01212-.19382.14537-.34524.44216-.51483a2.10046,2.10046,0,0,0,.61174-.43.57707.57707,0,0,1,.212-.1272c.12113-.01817.44821-.46638.41187-.56935-.0424-.12719.29678-.58752.52089-.71471a.53117.53117,0,0,0,.26045-.27256,2.28282,2.28282,0,0,1,.24833-.48456c.11508-.1817.3089-.50878.43-.73894a1.45394,1.45394,0,0,1,.28468-.40581c.03634,0,.06057-.03634.06057-.0848a.86555.86555,0,0,1,.17565-.29679,2.36587,2.36587,0,0,0,.24833-.40581c.0424-.09691.09691-.18171.12719-.18171.103,0,.218-.33919.19988-.60569a1.79973,1.79973,0,0,1,.04846-.49061.45341.45341,0,0,0-.03634-.40581c-.05452-.109-.0848-.19382-.06663-.19382.06663,0-.18776-.22411-.3937-.34525s-.218-.12114-.54512-.01817c-.18171.06057-.45427.13932-.59964.18171a.4075.4075,0,0,0-.35735.3089c-.04846.1272-.11508.23622-.14537.23622a7.76159,7.76159,0,0,0-.90854.90854,3.90477,3.90477,0,0,1-.321.30284,5.84082,5.84082,0,0,0-.81768.96911c-.0848.16353-.33919.424-.41187.424a1.2962,1.2962,0,0,0-.24228.33313,1.85966,1.85966,0,0,1-.36947.44821,1.44777,1.44777,0,0,0-.33913.45421,1.2,1.2,0,0,1-.3089.40581.26207.26207,0,0,0-.14537.17566.41227.41227,0,0,1-.08479.212.25589.25589,0,0,0-.06057.1817.14922.14922,0,0,1-.02423.12114,3.31987,3.31987,0,0,1-.67837.45427c-.05452,0-.18171.37553-.14537.4361.06663.109-.0424.3513-.24228.56329-.218.218-.26044.24228-.37553.16354-.1393-.09086-.19382-.29679-.16353-.64809a4.16128,4.16128,0,0,0,.00605-1.21744c-.04239-.09085-.01817-.212.09086-.46033a.70578.70578,0,0,0,.103-.41792c-.06057-.09691.20593-.64809.33918-.7026a.119.119,0,0,0,.06663-.15143c-.03634-.12114.27256-.47244.41793-.47244.04845,0,.08479-.02422.08479-.06057,0-.03028.06057-.07268.13931-.09085a.364.364,0,0,0,.218-.25439.46488.46488,0,0,1,.27256-.29073.57893.57893,0,0,0,.26045-.23016.42681.42681,0,0,1,.19382-.19382.24783.24783,0,0,0,.15142-.13931.67264.67264,0,0,1,.218-.22411A2.03713,2.03713,0,0,0,9.675,18.63a4.15363,4.15363,0,0,1,1.19321-1.15687,1.6809,1.6809,0,0,0,.56329-.52695,1.09131,1.09131,0,0,1,.321-.3513c.07874-.02423.1272-.12114.15748-.28468.0424-.27861.19988-.47244.37553-.47244.07874,0,.13931-.06662.18776-.212a.605.605,0,0,1,.17565-.28467.725.725,0,0,0,.18777-.23017,1.11449,1.11449,0,0,1,.20593-.27256.45172.45172,0,0,0,.13325-.19987,1.564,1.564,0,0,0,.0122-.19382.84078.84078,0,0,1,.2241-.33918c.18171-.18171.20594-.23016.14537-.33313a.30472.30472,0,0,1-.03028-.212c.04845-.1272-.24834-.36948-.50273-.41187a2.367,2.367,0,0,0-1.21744.47243l-.43.43c-.16959.16353-.37553.36947-.46032.45426A4.27547,4.27547,0,0,0,9.778,16.01938a1.26082,1.26082,0,0,1-.32707.44821,1.22817,1.22817,0,0,0-.28468.30285,5.59582,5.59582,0,0,1-1.35675,1.45971,1.80907,1.80907,0,0,0-.424.3513c-.55118.62387-.636.67232-.82374.4785-.06057-.05451-.1272-.109-.15748-.109-.02423-.00606-.07268-.01212-.103-.01817-.109-.01212-.12114-.19383-.01817-.29679a.72968.72968,0,0,0,.212-.58752,1.21515,1.21515,0,0,1,.09086-.77529c.04239-.04845.03634-.109-.02423-.18776-.0424-.06057-.06663-.13931-.04846-.16354a.1981.1981,0,0,0-.02422-.15748c-.0424-.06662-.03029-.16959.03028-.315a1.85652,1.85652,0,0,0,.09085-.58146,1.96239,1.96239,0,0,1,.07874-.56329c.04846-.103.06057-.19383.03635-.19383-.03029,0-.09692-.12113-.15143-.2665-.09085-.23622-.09085-.29073-.01817-.44215a.43657.43657,0,0,0,.06057-.24228.41429.41429,0,0,1,.06661-.24225c.08479-.16353.07874-.19382-.0848-.47244-.14537-.24227-.16354-.321-.103-.41792a1.09379,1.09379,0,0,0,.06663-.88431.56566.56566,0,0,1,0-.48455c.09691-.28468.06057-.527-.0848-.57541a.2192.2192,0,0,1,.00606-.424c.06057-.02423.11508-.06057.11508-.09086a1.741,1.741,0,0,1,.44821-.30284,2.3908,2.3908,0,0,0,.47244-.29679A3.27406,3.27406,0,0,1,8.397,9.49614c.01817.02423.109,0,.20594-.04846a.98187.98187,0,0,1,.38158-.09085.85764.85764,0,0,0,.62386-.22411.45476.45476,0,0,1,.24224-.11508,3.14062,3.14062,0,0,0,.91459-.1817,3.01049,3.01049,0,0,0,.40582-.18777.62706.62706,0,0,1,.29073-.07874.42.42,0,0,0,.26045-.09085c.12719-.1272.38158-.11508.76317.03028.48455.18171.49061.19382.53906.636.03029.29679.07268.43.1696.52089a.58823.58823,0,0,1,.12719.15748,1.74472,1.74472,0,0,1-.35736.50273c-.06662,0-.16959.38158-.16353.60569.00605.20593.01211.212.2665.23016a1.40329,1.40329,0,0,0,1.15081-.46033,3.85736,3.85736,0,0,0,.76317-1.06.37238.37238,0,0,1,.18777-.23621,1.17951,1.17951,0,0,0,.34524-.37553,1.74426,1.74426,0,0,1,.29073-.38159.18394.18394,0,0,0,.07874-.20593.39884.39884,0,0,1,.103-.30891c.11508-.15748.14537-.27861.15748-.70865a3.98387,3.98387,0,0,1,.07268-.71472c.03635-.103.04846-.20593.03029-.218-.03029-.03634.09691-.29679.17565-.3513.12114-.07874-.03029-.23622-.23016-.23622-.18777,0-.44822-.16959-.44822-.29073a1.66319,1.66319,0,0,0-.27256-.33313,1.583,1.583,0,0,1-.27256-.34524,1.608,1.608,0,0,0-.3937-.27862c-.25439-.14537-.41187-.28468-.43-.36947a.266.266,0,0,0-.15142-.1696c-.19382-.06057-.25439-.24833-.14537-.45427.05452-.09691.12114-.1817.15748-.1817s.04846-.05451.02423-.11508a.24.24,0,0,1,.04846-.19988,1.71048,1.71048,0,0,0,.19382-.29073,1.48963,1.48963,0,0,1,.23016-.34525.72473.72473,0,0,0,.13931-.3937,3.71632,3.71632,0,0,1,.05451-.47849c.0424-.19988.03029-.22411-.13931-.29073a.478.478,0,0,1-.218-.15748.73728.73728,0,0,0-.315-.20594,1.28411,1.28411,0,0,1-.36947-.24228.4994.4994,0,0,0-.27869-.15741,3.3432,3.3432,0,0,1-.854-.30285A3.7856,3.7856,0,0,0,11.83734.005,1.83282,1.83282,0,0,0,11.32247.08976ZM8.2819,4.02069c.83585-.00605,1.45972.15748,1.46577.37553a1.64594,1.64594,0,0,1-.30284.39976.24858.24858,0,0,1-.1696.07874.64308.64308,0,0,0-.27256.26044c-.40581.60569-.47849.67838-.86613.8722a1.99368,1.99368,0,0,0-.46639.27862,5.11082,5.11082,0,0,1-.72077.43c-.57541.30284-.6602.33313-.79951.27256-.14537-.06663-.18171-.1272-.16354-.25439,0-.02423-.03634-.0424-.08479-.0424a.40729.40729,0,0,1-.212-.12114c-.14536-.14536-.08479-.32707.15748-.4361.103-.04845.13931-.09691.109-.16353a.6238.6238,0,0,1-.03634-.212.67446.67446,0,0,0-.0848-.28468c-.103-.212-.103-.20593.00606-.321.08479-.07874.07874-.11508-.05452-.3089-.16959-.24833-.15142-.37553.06057-.43a.44077.44077,0,0,0,.19382-.109,1.3187,1.3187,0,0,1,.32708-.23622.90673.90673,0,0,1,.55723-.15143.95759.95759,0,0,0,.315-.03028.41487.41487,0,0,1,.24834.04846A2.51522,2.51522,0,0,0,8.2819,4.02069Z"/>

</g>
</svg>
