<?xml version="1.0" encoding="UTF-8"?>
<svg xmlns="http://www.w3.org/2000/svg"
     version="1.1"
     width="28.60814718mm"
     height="27.52767227mm"
     viewBox="0.00000000 0.00000000 81.09391562 78.03122525">

<g transform="scale(4.22440051)">   <defs>
      <style type="text/css"><![CDATA[
      .a {
        stroke: #000;
        stroke-linecap: round;
        stroke-linejoin: round;
        stroke-width: 0.01px;
      }
    ]]></style>
   </defs>
   <path class="a"
         d="M11.36483.10955a3.49536,3.49536,0,0,0-.68443,1.066c-.17565.32708-.33919.62387-.36947.66626-.03028.03635-.13325.16354-.22411.27862a4.568,4.568,0,0,0-.41187.69049,3.54844,3.54844,0,0,1-.58146.81768,5.06331,5.06331,0,0,0-.58752.72683,2.99489,2.99489,0,0,1-.34524.45427.354.354,0,0,0-.11508.24228.34656.34656,0,0,1-.09086.212c-.09085.06057-.00605.3089.3089.957a3.05479,3.05479,0,0,0,.49667.73894,2.35082,2.35082,0,0,1,.533.65415c.0848.18171-.13325.51484-.4361.65415a1.39546,1.39546,0,0,0-.30284.18776,7.48808,7.48808,0,0,1-.9146.69049,3.55274,3.55274,0,0,0-.50878.39975,2.11944,2.11944,0,0,1-.54512.3513,1.83479,1.83479,0,0,0-.3937.212,3.22838,3.22838,0,0,1-.424.27861,4.68623,4.68623,0,0,0-.67838.527,1.20557,1.20557,0,0,1-.37552.29073,4.30486,4.30486,0,0,0-.8722.64809.27687.27687,0,0,1-.12719.07874,4.58007,4.58007,0,0,0-.53907.47244c-.2665.25439-.58146.54512-.69654.636a4.12467,4.12467,0,0,0-.69655.69655.93667.93667,0,0,1-.32707.26044c-.1272.06663-.23016.13931-.23016.1696a.76389.76389,0,0,1-.18171.23016,2.59773,2.59773,0,0,0-.66021,1.23561,2.20419,2.20419,0,0,1-.212.61175,1.30264,1.30264,0,0,0-.15142.83585c0,.7874.09691,1.02362.44821,1.12053a2.90406,2.90406,0,0,0,.7874.11508,2.64532,2.64532,0,0,1,.62386.09691,1.1067,1.1067,0,0,0,.636.01211A.75155.75155,0,0,0,3.079,18.135l.19382-.2241.50878-.00606c.46033-.00606.533-.02423.7026-.16959.15748-.13326.24228-.15748.55118-.15143A1.29688,1.29688,0,0,0,5.76823,17.39a.99167.99167,0,0,1,.424-.15748c.03029.01817.12114-.006.19382-.05451a.4835.4835,0,0,1,.23017-.09691,1.27961,1.27961,0,0,0,.36947-.15142,1.004,1.004,0,0,1,.3089-.12114,2.2913,2.2913,0,0,0,.48455.06057c.43.02423.46638.01817.61781-.13325a.6835.6835,0,0,0,.15748-.19988c0-.09086.50878-.24834.81162-.24834a2.31643,2.31643,0,0,0,1.15082-.19382,2.69542,2.69542,0,0,1,.60569-.19987,1.693,1.693,0,0,0,.35735-.09691.4225.4225,0,0,1,.30891.01211.55174.55174,0,0,0,.43609-.02423,3.35575,3.35575,0,0,1,.78135-.12114,5.88,5.88,0,0,0,.848-.103,2.18444,2.18444,0,0,1,.44216-.06057,5.79736,5.79736,0,0,0,.64809.00605c.103-.00605.37552.00606.60569.01817a1.4902,1.4902,0,0,0,.52695-.03028c.212-.109.67232.26045.55723.44821-.03028.04846-.01211.05451.07269.01817a.69387.69387,0,0,1,.20593-.0424c.04846.00606.19988.01817.33313.03029a1.5538,1.5538,0,0,0,1.09025-.39976,1.22823,1.22823,0,0,1,.29073-.2241c.02423,0,.0424-.03635.0424-.07874a.48365.48365,0,0,1,.12113-.22411.501.501,0,0,0,.12114-.24228.82126.82126,0,0,1,.15143-.32707.49876.49876,0,0,0,.11508-.44821c-.04846-.27256-.30285-.73894-.40582-.73894a3.02375,3.02375,0,0,1-.533-.26651,3.88313,3.88313,0,0,0-.6057-.29679c-.07874-.01817-.36341-.09085-.62991-.16353a1.76519,1.76519,0,0,0-.69655-.09086,1.17324,1.17324,0,0,1-.78134-.06057c-.26045-.13325-.27862-.26044-.06663-.55117a1.38627,1.38627,0,0,0,.18171-.30891,2.10842,2.10842,0,0,1,.212-.38158,1.47822,1.47822,0,0,0,.212-.44216,1.0389,1.0389,0,0,1,.1272-.3513c.06662-.13931.109-.26044.09085-.27861s.01212-.11509.06057-.212a.36306.36306,0,0,0,.05451-.23016.2815.2815,0,0,1,.03635-.19382,3.5017,3.5017,0,0,0,.2241-1.02362,1.23223,1.23223,0,0,1,.11508-.424,1.131,1.131,0,0,0,.04846-.72077,1.75863,1.75863,0,0,1-.103-.32708c-.03028-.13931-.06057-.27862-.06662-.315a.70512.70512,0,0,0-.12114-.17565,1.08431,1.08431,0,0,1-.19382-.27256,1.615,1.615,0,0,0-.81163-.66626.56587.56587,0,0,1-.28467-.09085c-.07269-.04846-.14537-.07268-.16354-.05451a.94567.94567,0,0,1-.29073.05451,2.48481,2.48481,0,0,0-1.03573.19988,2.44007,2.44007,0,0,1-.62387.19382c-.45426.09085-.533.09691-.60569.01817a.6534.6534,0,0,1-.11508-.61175A18.65155,18.65155,0,0,0,12.41271,2.605a2.81109,2.81109,0,0,0-.218-.72682c-.212-.44216-.23016-.61781-.09691-.92671A1.07486,1.07486,0,0,0,12.007.09136.58912.58912,0,0,0,11.36483.10955Zm2.0533,6.66866c.33313.07874.59963.43609.78739,1.07813a2.73886,2.73886,0,0,0,.60569,1.066c.13931.13325.1696.20594.14537.33313-.02423.09086-.06663.33919-.103.55724a3.66751,3.66751,0,0,1-.43609,1.07207,3.99828,3.99828,0,0,1-.41793.68443.65566.65566,0,0,0-.16959.26045,1.49982,1.49982,0,0,1-.44216.56935,1.05705,1.05705,0,0,0-.20593.29073c-.218.41187-.4361.4785-1.53846.47244a2.78033,2.78033,0,0,0-1.36886.15748,1.22749,1.22749,0,0,1-.51484.12719,4.22516,4.22516,0,0,0-1.81707.33919.793.793,0,0,1-.30285.0848c-.07874,0-.40581.01211-.72077.03634a9.57549,9.57549,0,0,1-1.69593,0,3.72843,3.72843,0,0,0-.533-.03634c-.36947.01211-.854-.39976-.77529-.65415a1.10792,1.10792,0,0,1,.29679-.30284,2.06624,2.06624,0,0,0,.43-.43,1.31956,1.31956,0,0,1,.44216-.37553,2.68456,2.68456,0,0,0,.527-.36947,2.18376,2.18376,0,0,1,.43-.33313,1.35,1.35,0,0,0,.212-.13326c.01817-.02422.07268-.103.1272-.1817a.44624.44624,0,0,1,.26044-.15143.6514.6514,0,0,0,.30285-.16353,6.01413,6.01413,0,0,1,.51484-.41793,1.59889,1.59889,0,0,0,.36947-.321,1.95257,1.95257,0,0,1,.69654-.61174,1.85,1.85,0,0,0,.36346-.24228.209.209,0,0,1,.1817-.06057c.04846.01817.11508-.02423.15748-.103a1.44877,1.44877,0,0,1,.67232-.58146c.09085-.01817.16959-.05451.16959-.07874s.07874-.07874.18171-.12114a.41265.41265,0,0,0,.212-.18776.29742.29742,0,0,1,.19382-.15143,2.01634,2.01634,0,0,0,.40582-.1817,1.13151,1.13151,0,0,1,.34524-.14537.34457.34457,0,0,0,.19988-.11508,2.78085,2.78085,0,0,1,.62992-.33919c.29073-.11508.59357-.25439.67837-.30284C13.091,6.71158,13.11524,6.71158,13.41813,6.77821Z"/>

</g>
</svg>
