<?xml version="1.0" encoding="UTF-8"?>
<svg xmlns="http://www.w3.org/2000/svg"
     version="1.1"
     width="32.78491755mm"
     height="35.89722400mm"
     viewBox="0.00000000 0.00000000 92.93362831 101.75595266">

<g transform="scale(5.29691176)">   <defs>
      <style type="text/css"><![CDATA[
      .a {
        stroke: #000;
        stroke-linecap: round;
        stroke-linejoin: round;
        stroke-width: 0.01px;
      }
    ]]></style>
   </defs>
   <path class="a"
         d="M10.0837.0898a1.14753,1.14753,0,0,1-.76317.43A1.43169,1.43169,0,0,0,8.9026.61069a1.075,1.075,0,0,1-.58752.01817.90882.90882,0,0,0-.77528.1272,1.71725,1.71725,0,0,1-.963.19987C5.47439.98622,5.329.97411,5.18972.859A2.24585,2.24585,0,0,0,4.11764.81663c-.3937.04845-.40581.04845-.62386-.14537s-.23016-.19988-.92671-.218c-.91459-.02423-.9691,0-1.88975.88431a3.26942,3.26942,0,0,1-.44216.35736C.03528,1.81.005,1.86447.005,2.05224c0,.1817.03634.25439.218.39975.15748.12114.26045.16354.37553.13931A.448.448,0,0,1,.859,2.61553a1.28991,1.28991,0,0,0,.30891.07268,1.10693,1.10693,0,0,1,.29679.07268,3.91233,3.91233,0,0,0,1.39308.17565,1.79382,1.79382,0,0,1,.739.0848.17356.17356,0,0,0,.20593.02423,3.76035,3.76035,0,0,1,.75712-.09085,3.48318,3.48318,0,0,0,.77528-.103.85683.85683,0,0,1,.3513-.05451.73239.73239,0,0,0,.34525-.04846A2.64477,2.64477,0,0,1,6.819,2.60341a.89624.89624,0,0,0,.30891-.11508.73984.73984,0,0,1,.28467-.12114A.526.526,0,0,0,7.667,2.20972a.30413.30413,0,0,1,.3089-.12114.4001.4001,0,0,0,.26651-.02423.22.22,0,0,1,.24227,0c.15143.07874.315.38764.26651.50878A.48884.48884,0,0,0,8.8481,2.876l.12719.212-.12719.12719c-.06663.06663-.109.14537-.09691.17565.01817.02423-.00606.103-.05451.16354a.4259.4259,0,0,0-.09086.212.58722.58722,0,0,1-.11508.24833c-.12719.15748-.12719.15748.15748.59358l.13325.20594L8.66638,5.008a.5551.5551,0,0,0-.02423.642.33853.33853,0,0,1,.03635.315,1.519,1.519,0,0,0,.103.99333c.06057.11508.06057.19988,0,.4361-.06057.24228-.06057.315.00606.38764a1.20556,1.20556,0,0,1,.12719.37553,1.5722,1.5722,0,0,0,.23622.52695c.17565.24834.18171.26651.09691.49667-.33313.93882-.3513,1.175-.09085,1.4052a.806.806,0,0,1,.33313.68443.52953.52953,0,0,0,.03634.28468.988.988,0,0,1,.09086.33313c.01211.14536.06662.44821.11508.68443a5.68954,5.68954,0,0,1,.103.848,1.76478,1.76478,0,0,0,.09691.56935,2.12691,2.12691,0,0,1,.09691.69654,6.84625,6.84625,0,0,0,.13931,1.49.54527.54527,0,0,1-.01818.36341.97747.97747,0,0,0,.212.89037.61778.61778,0,0,1,.14536.46638,2.04248,2.04248,0,0,0-.01817.5633,1.61,1.61,0,0,1-.02423.27256c-.03634.2241.09691.32707.52695.40581.19988.03634.36342.06662.36948.06662a7.1307,7.1307,0,0,0,.32707-.68443c.06663-.15748.14537-.28467.17565-.28467.0848,0,.212-.7026.14537-.82374-.04846-.0848-.02423-.212.08479-.49667.109-.30284.1272-.41187.07874-.50878a.43267.43267,0,0,1-.01817-.27862,3.191,3.191,0,0,0,.0848-.78739.53239.53239,0,0,0-.0848-.26651c-.07268-.103-.07268-.15142,0-.33313a4.66674,4.66674,0,0,0,.06057-1.599c-.04845-.26045-.03634-.29073.15142-.50878a4.67808,4.67808,0,0,1,1.12053-.81769,1.9594,1.9594,0,0,0,.69655-.64808.654.654,0,0,1,.25439-.23622,2.17749,2.17749,0,0,0,.46638-.35736,3.584,3.584,0,0,1,.69654-.50878A3.87318,3.87318,0,0,0,16.93406,9.157a1.84026,1.84026,0,0,1,.28468-.36947.7047.7047,0,0,0,.218-.41793.85481.85481,0,0,1,.07874-.315c.0424-.08479.03028-.15142-.0424-.2665-.05451-.0848-.11508-.15748-.13931-.15748-.41187-.07268-.66626.04846-1.2235.60569a7.83318,7.83318,0,0,1-.6602.58146c-.17565.13326-.3513.28468-.39976.33313-.04239.04846-.20593.22411-.35735.38765a1.966,1.966,0,0,0-.27256.34524,7.68521,7.68521,0,0,1-1.10236.90248.612.612,0,0,0-.212.12114.67949.67949,0,0,1-.745.01211.68284.68284,0,0,1-.18171-.37553c-.04846-.25439-.03634-.30284.17565-.636a1.40058,1.40058,0,0,1,.61175-.58752A1.58481,1.58481,0,0,0,13.518,8.836a4.91617,4.91617,0,0,1,.32707-.45426,3.55514,3.55514,0,0,0,.33313-.55118,1.672,1.672,0,0,1,.2665-.43.18915.18915,0,0,0,.06663-.19382,1.06483,1.06483,0,0,1,.28467-.642,1.45591,1.45591,0,0,0,.37553-.54512.66054.66054,0,0,1,.18777-.25439.54336.54336,0,0,0,.2241-.50878c-.04845-.218-.642-.3513-.88431-.19382a1.6281,1.6281,0,0,0-.46032.73289,1.10257,1.10257,0,0,1-.24228.33918,3.73251,3.73251,0,0,0-.46032.636,1.49694,1.49694,0,0,1-.26651.38158c-.03028,0-.06662.05452-.09085.11509a2.94069,2.94069,0,0,1-.96911.93882,1.2381,1.2381,0,0,1-.28467-.41187c-.16959-.33313-.18171-.3937-.12114-.60569a.43791.43791,0,0,0-.04845-.41793c-.103-.16354-.103-.20594-.03029-.45427a.54717.54717,0,0,0,.03029-.36947.29038.29038,0,0,1,.03028-.24833A.21172.21172,0,0,0,11.77361,5.42a3.16108,3.16108,0,0,1-.22411-1.14476,2.43313,2.43313,0,0,0-.09085-.56935.6503.6503,0,0,1-.02423-.3937.48094.48094,0,0,0,.01817-.27861.39492.39492,0,0,1,.01211-.2544,2.138,2.138,0,0,0,.109-.40581c.05451-.29679.04845-.32707-.15748-.94488a2.34758,2.34758,0,0,1-.109-.46638,2.13711,2.13711,0,0,0-.20593-.82374C11.02252.02317,10.962.005,10.56825.005,10.23512.005,10.10793.02923,10.0837.0898Z"/>

</g>
</svg>
