<?xml version="1.0" encoding="UTF-8"?>
<svg xmlns="http://www.w3.org/2000/svg"
     version="1.1"
     width="21.81892134mm"
     height="43.98009207mm"
     viewBox="0.00000000 0.00000000 61.84886613 124.66795424">

<g transform="scale(4.54756027)">   <defs>
      <style type="text/css"><![CDATA[
      .a {
        stroke: #000;
        stroke-linecap: round;
        stroke-linejoin: round;
        stroke-width: 0.01px;
      }
    ]]></style>
   </defs>
   <path class="a"
         d="M1.67629.38328c-.21805.218-.51484.533-.66627.7026a2.91649,2.91649,0,0,1-.52695.46033c-.14536.08479-.26044.1817-.26044.212a.442.442,0,0,1-.1272.18171.22883.22883,0,0,0-.07874.25439.32284.32284,0,0,1,0,.315c-.02423.0848.01212.17566.12114.29074a.75537.75537,0,0,1,.17565.28467A1.2107,1.2107,0,0,0,.40433,3.327c.03635.07268.05452.14536.03635.16353A1.18764,1.18764,0,0,0,.689,4.00537a5.0869,5.0869,0,0,1,.72683.99939,1.14661,1.14661,0,0,0,.24833.35736c.09085.07874.21805.19382.28468.25439s.2241.18776.34524.27862a1.06561,1.06561,0,0,1,.38159.65414.24951.24951,0,0,0,.09691.12114,5.01445,5.01445,0,0,1,.47849.68443A10.70916,10.70916,0,0,0,4.00214,8.5056c.03634.03028.212.27861.3937.53906a1.6423,1.6423,0,0,1,.34524.72683c.05451.67232.0848.76923.34525,1.01756a1.03194,1.03194,0,0,0,.52089.29073c.2665.04846.36947.13325.36947.315a.267.267,0,0,0,.109.18171c.212.15142.2665.33313.19987.67232-.05451.26044-.15142,1.0963-.218,1.85947a.964.964,0,0,1-.11508.34524.98785.98785,0,0,0-.09691.36342.95442.95442,0,0,1-.12114.59357.55807.55807,0,0,0-.09691.26045A2.784,2.784,0,0,1,5.48,16.4947a1.57789,1.57789,0,0,0-.13325.62992.55129.55129,0,0,1-.09085.27256.513.513,0,0,0-.06663.28467,1.09614,1.09614,0,0,1-.12719.45427,1.82315,1.82315,0,0,0-.15142.57541c-.07874.98728-.09086,1.30223-.109,1.94427-.01211.59963-.03028.72683-.14537.91459a.85234.85234,0,0,0-.12719.3937c0,.09085-.00606.4361-.02423.76317a1.90451,1.90451,0,0,0,.09086.90854,2.11688,2.11688,0,0,1,.12113.69048c0,.212.02423.38159.05452.38159.03634,0,.103.09085.15142.19382a5.283,5.283,0,0,0,.59358.98728,1.30439,1.30439,0,0,1,.16959.218,4.14877,4.14877,0,0,0,1.07813.78134,1.28089,1.28089,0,0,1,.30285.12114,1.14054,1.14054,0,0,0,.3513.12113,2.17942,2.17942,0,0,1,.49061.15143,1.269,1.269,0,0,0,.47849.12719c.11508-.03028.78134-.09085,1.43549-.12719a4.858,4.858,0,0,0,.77528-.11508,2.736,2.736,0,0,1,.58752-.09691,1.65246,1.65246,0,0,0,.7874-.24834,1.95515,1.95515,0,0,1,.7874-.27256c.47244-.109.8722-.35736.79346-.49667a.34157.34157,0,0,1,.01211-.25439c.05451-.15142.0424-.19382-.11508-.35735-.19988-.218-.40581-.23622-1.15081-.09086a1.2217,1.2217,0,0,1-.75712-.01211c-.18171-.05451-.3513-.103-.38764-.109a1.17016,1.17016,0,0,1-.62992-.321c-.06663-.07874-.14537-.13325-.17565-.11508a1.34713,1.34713,0,0,1-.6178-.38159c0-.03028-.07874-.0848-.17565-.12719a1.422,1.422,0,0,1-.66021-.636c-.06662-.13325-.17565-.3513-.24833-.48455a1.13816,1.13816,0,0,1-.1272-.3513.72648.72648,0,0,0-.08479-.27256,1.33359,1.33359,0,0,1-.03029-1.04785,2.18194,2.18194,0,0,0,.109-.86614c-.00606-.45427.00605-.55118.09691-.6178a3.28752,3.28752,0,0,0,.33918-1.387c0-.50878.07874-1.702.14537-2.27135.01817-.15142.0424-.36947.05451-.49061a3.31018,3.31018,0,0,1,.23622-.84191,1.07826,1.07826,0,0,0,.07269-.27256,3.83672,3.83672,0,0,1,.15143-.53906c.11508-.32707.12719-.44821.07874-.58147a.34152.34152,0,0,1-.01212-.25439.1741.1741,0,0,0-.00605-.16353.50811.50811,0,0,1,.04239-.33313,5.91261,5.91261,0,0,0,.35736-2.24712.81855.81855,0,0,1,.06056-.32707,1.05678,1.05678,0,0,0,.0848-.34524.36588.36588,0,0,1,.07874-.218,1.69656,1.69656,0,0,0,.07874-.68443,2.4478,2.4478,0,0,1,.14536-1.11447.25163.25163,0,0,0,.006-.23639.4693.4693,0,0,1-.02423-.26651.31018.31018,0,0,0-.06057-.26044.20745.20745,0,0,1-.07268-.1696,1.73876,1.73876,0,0,0,.05451-.2241c.06663-.34525.09691-.44216.15143-.50878.03634-.0424.02422-.15143-.02423-.30285a.42915.42915,0,0,1-.01817-.36341.79883.79883,0,0,0-.03634-.49061c-.07269-.29074-.07874-.38159-.01212-.50878a.58687.58687,0,0,0,.03634-.33919.48271.48271,0,0,1,.01212-.28468.34546.34546,0,0,0-.04846-.30284.79738.79738,0,0,1-.09691-.36342,1.13338,1.13338,0,0,0-.07874-.3937.67008.67008,0,0,1-.06057-.32707.58211.58211,0,0,0-.12719-.36947,4.82213,4.82213,0,0,1-.3089-.58752c-.12114-.2665-.13326-.35736-.0848-.50272.07268-.19988.02423-.33313-.17565-.533C9.26559.31665,8.71441.5347,8.7932.89812a2.10625,2.10625,0,0,1-.72077,1.3628c-.103.09086-.41187.315-.68443.49667a1.925,1.925,0,0,0-.5088.40581c-.00606.0424-.01817.15142-.02423.25439-.01211.09691-.03634.50878-.05451.90854s-.04845.87825-.07268,1.06a3.19447,3.19447,0,0,0,.006,1.0054c.03029.18777.01818.26651-.05451.34525a.20348.20348,0,0,1-.1817.06662,2.63751,2.63751,0,0,1-.4785-.86008c-.01817-.109-.09691-.218-.30285-.43a.54667.54667,0,0,1-.12719-.19382,2.89569,2.89569,0,0,0-.109-.29679c-.04845-.11508-.109-.26044-.12719-.321-.02423-.05452-.06057-.103-.09085-.103S5.16507,4.508,5.12267,4.399a1.37606,1.37606,0,0,0-.218-.33313.44976.44976,0,0,1-.13931-.2241A.82283.82283,0,0,0,4.6442,3.5571a.84046.84046,0,0,1-.12114-.29073.80808.80808,0,0,0-.1817-.29679.68306.68306,0,0,1-.18171-.29073.6201.6201,0,0,0-.09691-.23622A3.50432,3.50432,0,0,1,3.766,1.42507a1.02192,1.02192,0,0,0-.22411-.3937C3.20263.674,3.19051.65584,3.19051.58316A.44362.44362,0,0,0,3.033.38934C2.9482.32271,2.815.21369,2.74836.14706A.6879.6879,0,0,0,2.34255.00775C2.076-.00436,2.05181.00775,1.67629.38328Z"/>
   <path class="a"
         d="M3.14206,15.23482a.17082.17082,0,0,0,.16353.06057c.12114-.07874.06663-.15748-.09691-.15748C3.05726,15.13791,3.0512,15.144,3.14206,15.23482Z"/>
   <path class="a"
         d="M10.38006,24.32624c-.02422.01818.00606.07269.05452.1272.05451.05451.11508.06663.14536.03634.03634-.03634.01212-.0848-.05451-.12719C10.46486,24.32019,10.3982,24.30807,10.38006,24.32624Z"/>

</g>
</svg>
