<?xml version="1.0" encoding="UTF-8"?>
<svg xmlns="http://www.w3.org/2000/svg"
     version="1.1"
     width="21.19897113mm"
     height="55.08115562mm"
     viewBox="0.00000000 0.00000000 60.09163258 156.13557487">

<g transform="scale(4.22440051)">   <defs>
      <style type="text/css"><![CDATA[
      .a {
        stroke: #000;
        stroke-linecap: round;
        stroke-linejoin: round;
        stroke-width: 0.01px;
      }
    ]]></style>
   </defs>
   <path class="a"
         d="M9.80581.041A.87269.87269,0,0,0,9.43029.247a.51575.51575,0,0,1-.19988.15142,2.58286,2.58286,0,0,0-.4785.41793,4.57777,4.57777,0,0,1-.54512.48455c-.07268.03634-.1272.09085-.1272.11508.02423.13325-.03028.20594-.49666.72077a1.9195,1.9195,0,0,0-.38764.86614,1.97333,1.97333,0,0,1-.212.69655c-.05451.06662-.05451.109.03029.18776a.23554.23554,0,0,1,.05451.26045,7.08464,7.08464,0,0,0-.07874,1.278,3.47436,3.47436,0,0,1,0,.36342c-.03634.4361-.05451.533-.103.61175a.85681.85681,0,0,0,0,.75105c.06663.06663.07874.20594.05452.58752a3.69441,3.69441,0,0,0,.04845,1.33252.27355.27355,0,0,1-.02423.30891.22243.22243,0,0,0-.03634.23622,3.72317,3.72317,0,0,1,.09086.6602,4.04655,4.04655,0,0,0,.09085.67232.40908.40908,0,0,1,.02423.24227,5.26212,5.26212,0,0,0-.01212,1.41126,7.723,7.723,0,0,1,.07877,1.24171c.01212.6178.04846,1.3628.07874,1.66565a5.28052,5.28052,0,0,1,.03029.75711A12.71539,12.71539,0,0,0,7.30431,17.6a.55.55,0,0,1-.15748.51484,3.67921,3.67921,0,0,0-.32707.40581.73955.73955,0,0,1-.19988.23017c-.02423,0-.07874.07874-.12114.17565a.5052.5052,0,0,1-.30284.27256c-.23622.09085-.6057.40581-.6057.51484a.25288.25288,0,0,1-.08479.1393,2.23205,2.23205,0,0,0-.18777.29074,1.76188,1.76188,0,0,1-.68443.66626c-.18776.07874-.36947.321-.58146.75711a.82947.82947,0,0,1-.36342.424.604.604,0,0,0-.24833.212.82278.82278,0,0,1-.2665.23622,2.81422,2.81422,0,0,0-.9146.90247c-.04239.103-.09691.19383-.12719.19383a2.55213,2.55213,0,0,0-.66626.7026c-.26651.38764-.40581.50878-.56935.50878-.218,0-.4361.2241-.54512.54512-.05451.16959-.12114.30285-.15143.30285-.05451,0-.1817.29678-.19382.46032a.91386.91386,0,0,0,.03029.27256c.03634.13931.06662.15748.2665.14537.26045-.01817.57541-.14537.533-.21805-.04846-.06663.14537-.23622.2665-.23622a3.25427,3.25427,0,0,0,.81769-.83585.53949.53949,0,0,1,.09691-.13326A1.01267,1.01267,0,0,0,2.162,24.8199c.05452-.103.12114-.19382.14537-.19382a.93162.93162,0,0,0,.19384-.34532,1.99014,1.99014,0,0,1,.8722-.95094c.15142-.09085.27861-.18171.27861-.212a1.06432,1.06432,0,0,1,.54513-.24833.17425.17425,0,0,0,.15142-.12114c.01817-.06663.06057-.12114.09085-.12114s.11508-.109.18777-.24228c.12719-.21805.1817-.2665.3089-.24833.02423,0,.09691-.09085.16959-.20594a.59663.59663,0,0,1,.29073-.25439,2.33856,2.33856,0,0,0,1.05391-.751c.29678-.39976.48455-.5209.61174-.38764.07269.06662.0848.24833.06057.98121a4.14109,4.14109,0,0,0,.01817,1.21744,1.40331,1.40331,0,0,1-.03028.46639.58985.58985,0,0,0-.00606.39975c.04846.08481.0424.2544-.03028.62993a3.70684,3.70684,0,0,0-.07874.55723,1.07134,1.07134,0,0,1-.06057.29073,2.64342,2.64342,0,0,0-.04846.66626,1.16984,1.16984,0,0,1-.09691.642,1.00537,1.00537,0,0,0-.09691.6602c.09691.34525.109.49061.05451.59964a.311.311,0,0,0-.01817.2544.64179.64179,0,0,1-.04845.41791.82785.82785,0,0,0-.07268.35131.505.505,0,0,1-.0424.24227,2.10168,2.10168,0,0,0-.09691.424,1.37775,1.37775,0,0,1-.09691.38158.3505.3505,0,0,0-.03635.19382.87027.87027,0,0,1-.09691.34525,2.72027,2.72027,0,0,0-.14536.424,6.24108,6.24108,0,0,0-.103.86614.71387.71387,0,0,1-.09691.40581.08871.08871,0,0,0-.02748.12242l.00325.00478a5.76862,5.76862,0,0,1-.01817,1.32647c-.01211.11508-.02423.33313-.02423.48455.00606.38159.00606.47243-.006.79951a1.7873,1.7873,0,0,0,.07268.527c.06663.20593.11508.25439.34524.32707a.54564.54564,0,0,0,.55724-.03634,3.226,3.226,0,0,1,.55118-.17565c.15142-.03029.33919-.06664.424-.08481a1.22939,1.22939,0,0,1,.75712.02424c.212.109.58146.103.66626-.01212.14536-.18776.29678-.212.72683-.12114a7.07987,7.07987,0,0,0,.745.11509,3.09075,3.09075,0,0,1,.44215.06057c.15748.0545.20593.27861.109.55723-.12113.38159-.11508.53907.0424.67838.07874.06662.1272.15748.11508.20593-.09085.23622,1.04179.27256,1.25378.0424a.41792.41792,0,0,1,.1696-.12114c.02423,0,.06662-.109.09085-.24228a2.26789,2.26789,0,0,1,.18777-.52089,2.10894,2.10894,0,0,0,.23016-.957.449.449,0,0,1,.109-.28468.99907.99907,0,0,0,.23017-.38764.82947.82947,0,0,1,.18776-.33313c.03028,0,.05451-.06662.05451-.14536a1.08587,1.08587,0,0,1,.06663-.321,2.8749,2.8749,0,0,0,.13931-.65415.69984.69984,0,0,0-.03029-.24833.692.692,0,0,1,.03634-.36947.81036.81036,0,0,0,.03029-.4785.41048.41048,0,0,1,.03634-.36947c.07874-.12719.07268-.16354-.03634-.37553-.24228-.48455-.50273-.64809-.76923-.50272-.109.06057-.15748.04845-.3089-.07874-.19988-.16959-.61175-.35736-.66021-.3089-.01817.01817-.109-.00606-.19987-.05452a.46766.46766,0,0,0-.28468-.05451.24824.24824,0,0,1-.29073-.28467,2.32387,2.32387,0,0,0,.06057-.44216,1.35736,1.35736,0,0,1,.0848-.44821.30483.30483,0,0,0,.03028-.212.17372.17372,0,0,1,.05451-.16959c.19988-.20594.27256-.47244.321-1.175.06057-.8722.0848-1.01757.17565-1.15687a.95342.95342,0,0,0,.11508-.30891,1.08726,1.08726,0,0,1,.109-.34524.46775.46775,0,0,0,.03634-.3937,1.58708,1.58708,0,0,1-.03634-.49061c.01817-.18776,0-.30284-.05452-.35736-.07268-.06662-.07268-.09691.00606-.21805a1.784,1.784,0,0,0,.13325-.64809,4.17341,4.17341,0,0,1,.109-.99939.34861.34861,0,0,0-.01817-.24833.91968.91968,0,0,1,0-.49667,1.15873,1.15873,0,0,0-.03029-.65414.50636.50636,0,0,1-.03634-.37553.42713.42713,0,0,0,0-.30285,3.29833,3.29833,0,0,1,.06057-1.19926,4.491,4.491,0,0,0,.05451-.60569,12.81076,12.81076,0,0,1,.103-1.82919c.01817-.15142.0424-.4785.05451-.72683s.03634-.61781.06057-.81768.0424-.3937.0424-.424c-.01212-.18776-.01212-.854-.00606-1.30223,0-.28468-.01211-.62386-.03028-.75712s-.0424-.32707-.05452-.424a1.60285,1.60285,0,0,0-.14536-.424c-.103-.19383-.11508-.27257-.06057-.36342.0848-.15142.103-.26045.12719-.75711a5.08231,5.08231,0,0,1,.15143-1.06,9.71471,9.71471,0,0,0-.01212-1.72622c-.01817-.15142-.0424-.46638-.06057-.69655A2.3584,2.3584,0,0,0,12.81,6.43714c-.15748-.3513-.15748-.315-.03634-.43a1.19428,1.19428,0,0,0,.00606-1.01756.351.351,0,0,1-.0848-.25439.21469.21469,0,0,0-.05451-.18777c-.06663-.06662-.103-.23016-.109-.533a2.31739,2.31739,0,0,0-.20593-.89036c-.103-.24833-.218-.57541-.26045-.72683a1.10113,1.10113,0,0,0-.218-.41187.48841.48841,0,0,1-.13931-.33313,1.97027,1.97027,0,0,0-.6178-1.22955A.25552.25552,0,0,1,10.94451.247a.26646.26646,0,0,0-.2241-.18171A2.2325,2.2325,0,0,0,9.80581.041ZM9.67862,5.59521a1.48072,1.48072,0,0,1,.12719.40581,1.90712,1.90712,0,0,0,.13931.424c.06663.13326.20594.43005.315.66626a3.88374,3.88374,0,0,0,.3089.56935c.13326.17565.13326.212.01212.33919a.2202.2202,0,0,0-.04846.26045A1.6687,1.6687,0,0,1,10.569,9.193c-.03028.16354-.03634.29073-.00605.29073.08479,0,.109.18171.02423.26045a2.65832,2.65832,0,0,0,0,1.16293c.04239.23016.109.93276.109,1.09024-.00606.06663-.00606.3513-.00606.636,0,1.87158-.03634,2.30162-.19382,2.30162-.03028,0-.103.09691-.17565.212a.75176.75176,0,0,1-.27256.27861.36368.36368,0,0,0-.18171.19988,1.0735,1.0735,0,0,1-.424.3513c-.44216.26045-.4785.26651-.59963.13931-.07269-.07268-.0848-.23016-.06663-.8298a4.71572,4.71572,0,0,1,.09085-.91459.336.336,0,0,0-.03634-.36947.51447.51447,0,0,1-.0424-.46638,1.29971,1.29971,0,0,0,.01212-.55118.80941.80941,0,0,1,.07874-.60569.8976.8976,0,0,0,.09691-.59358.9978.9978,0,0,1,.01211-.3937,9.74316,9.74316,0,0,0,.17565-2.3198.59449.59449,0,0,1,.05451-.24227.18576.18576,0,0,0-.02422-.212.93192.93192,0,0,1-.0424-.51484A1.12745,1.12745,0,0,0,9.085,7.50922a2.41245,2.41245,0,0,1,.07268-1.26589,2.27855,2.27855,0,0,0,.06663-.49667c0-.2665.1272-.46032.2665-.40581A.6904.6904,0,0,1,9.67862,5.59521Zm.99333,11.393c.05451.03634.0848.15748.07874.315v.78134c0,.28467-.00605.59357-.01211.69654-.00606.16959-.01212.54512-.00606.957a.73268.73268,0,0,0,.06663.29073,2.32468,2.32468,0,0,1-.04846,1.29013,1.35326,1.35326,0,0,0-.03028.49061c.01817.23016.03028.49061.02423.5754-.0424.81769-.07269,1.77468-.07269,2.18049a3.899,3.899,0,0,1-.12114,1.278A.86943.86943,0,0,0,10.46,26.11c-.00606.06663-.03634.30891-.06057.54512-.02423.23017-.0424.5209-.0424.636.00606.11508.01212.3513.01817.52089a1.14243,1.14243,0,0,1-.09085.50878.46737.46737,0,0,0-.06663.27862.54533.54533,0,0,1-.05451.29073A4.07467,4.07467,0,0,0,9.99358,30.047c-.01817.315-.06057.36948-.36342.527a1.55033,1.55033,0,0,1-.73894.1393c-.69049.01212-.90248-.12113-.87825-.54512.00606-.06662.01817-.33918.03028-.60569.00606-.2665.01817-.53906.02423-.61175a.65906.65906,0,0,1,.18777-.315.73056.73056,0,0,0,.18776-.2665c.00606-.0424.01817-.13931.02423-.218a.37779.37779,0,0,1,.04845-.16959.61275.61275,0,0,0-.07874-.29073.53378.53378,0,0,1-.06057-.33919.9497.9497,0,0,0-.13325-.636,2.26561,2.26561,0,0,1-.07874-1.12052,6.0135,6.0135,0,0,0,.109-1.30224,6.7141,6.7141,0,0,1,.09085-.81768,1.85166,1.85166,0,0,0,.05451-.424,2.30091,2.30091,0,0,1,.03634-.37553.64823.64823,0,0,0-.04845-.46638c-.0848-.17565-.0848-.19382.02423-.30284.09085-.09086.11508-.20594.11508-.5633,0-.24227.00605-.48455.00605-.533.00606-.04846,0-.321-.01211-.60569a5.49733,5.49733,0,0,1,.05451-.963c.06663-.43.0848-.46639.3513-.69655a8.677,8.677,0,0,0,1.21749-1.25381.86826.86826,0,0,1,.38764-.35736.37062.37062,0,0,1,.12112.05452Z"/>
   <path class="a"
         d="M9.68468,8.37533c-.06663.06663-.03635.13931.05451.13931.04845,0,.09085-.02423.09085-.05451C9.83,8.38139,9.73313,8.32687,9.68468,8.37533Z"/>

</g>
</svg>
