<?xml version="1.0" encoding="UTF-8"?>
<svg xmlns="http://www.w3.org/2000/svg"
     version="1.1"
     width="46.49761238mm"
     height="30.30846063mm"
     viewBox="0.00000000 0.00000000 131.80428048 85.91371854">

<g transform="scale(5.10555451)">   <defs>
      <style type="text/css"><![CDATA[
      .a {
        stroke: #000;
        stroke-linecap: round;
        stroke-linejoin: round;
        stroke-width: 0.01px;
      }
    ]]></style>
   </defs>
   <path class="a"
         d="M18.68451.04146a1.64292,1.64292,0,0,1-.40581.04845.98082.98082,0,0,0-.34525.0424,1.81379,1.81379,0,0,1-.46638.06663A2.81258,2.81258,0,0,0,16.2678.61686a3.67242,3.67242,0,0,1-.99939.3937,5.63037,5.63037,0,0,0-1.49.72683,5.50379,5.50379,0,0,0-1.0539,1.56268,1.26977,1.26977,0,0,1-.11508.30891,1.04459,1.04459,0,0,0-.09085.66626c.02422.35735.01211.47244-.07874.59963a.95265.95265,0,0,0-.04846.83585.83979.83979,0,0,0,.29073.24228,2.26715,2.26715,0,0,1,.321.212.58187.58187,0,0,0,.2665.14537.89526.89526,0,0,1,.32708.19988,2.88207,2.88207,0,0,0,.46638.33313.96833.96833,0,0,1,.315.24227.51336.51336,0,0,0,.27256.15143c.27256.08479.50878.33313.45427.47243a3.97781,3.97781,0,0,1-.64809.54513c-.33313.24833-.72683.55117-.86614.67837a2.14106,2.14106,0,0,1-.424.28468,3.61526,3.61526,0,0,0-.54513.29073,1.97452,1.97452,0,0,1-1.11447.36947,1.65516,1.65516,0,0,0-.47244.09085,3.29291,3.29291,0,0,1-.76317.1272,4.54649,4.54649,0,0,0-.69049.08479c-.03634.02423-.15142-.00605-.26044-.06056a1.04836,1.04836,0,0,0-.65415-.05452,19.55228,19.55228,0,0,1-2.04118.0848,10.62758,10.62758,0,0,0-1.5324.12114,1.39967,1.39967,0,0,1-.65414.00605.5822.5822,0,0,0-.36947-.00605.16519.16519,0,0,1-.15143.02423,1.7691,1.7691,0,0,0-.78739.04845,4.764,4.764,0,0,1-.79346.0848,1.44031,1.44031,0,0,0-.8298.17565,1.72645,1.72645,0,0,0-.67231.76317,3.945,3.945,0,0,0-.52695,1.21744.44628.44628,0,0,1-.15143.321c-.12719.12114-.15142.19382-.15142.4785,0,.27256.02423.3513.11508.40581a.33024.33024,0,0,1,.15748.18171c.0848.26045.72683.3937,1.02968.212a4.77206,4.77206,0,0,1,1.63536-.20593c.33313,0,.75712-.01212.93882-.03029.4361-.04845.92065-.07268,1.66565-.09691a5.1628,5.1628,0,0,0,.81769-.06662,4.87794,4.87794,0,0,1,1.39308-.13931,2.21963,2.21963,0,0,0,.94488-.109,1.49021,1.49021,0,0,1,.7874-.07874,4.26144,4.26144,0,0,0,1.04179-.06662,4.41547,4.41547,0,0,1,1.06-.06663c.59358.02423.95093-.03028.95093-.14537,0-.02422.05452-.07874.12114-.11508.09086-.04845.16354-.0424.3089.03029a.37415.37415,0,0,0,.35131.0424,1.2485,1.2485,0,0,1,.89036-.04846,1.40649,1.40649,0,0,0,.92671.02423.37308.37308,0,0,1,.33313.06057.611.611,0,0,0,.47849.06057.62733.62733,0,0,1,.424.02422,4.05875,4.05875,0,0,0,1.58691.15748,5.60229,5.60229,0,0,1,2.14414.0848c.58147.18171.745.25439.79346.35736.12114.218.06057.36947-.2665.68443-.67838.64809-.89037.8298-.94488.79345a2.82533,2.82533,0,0,0-1.03573.36948,1.20968,1.20968,0,0,0-.212.27861.5965.5965,0,0,0,.30891.73895.85866.85866,0,0,0,.848-.02423,1.18324,1.18324,0,0,1,.36948-.218.63619.63619,0,0,0,.2665-.14537,1.24339,1.24339,0,0,1,.321-.24227c.16959-.11508.3937-.26651.48455-.34525a.66307.66307,0,0,1,.34524-.1393,1.11419,1.11419,0,0,0,.37553-.0848,1.96049,1.96049,0,0,1,.61175-.16959,4.31878,4.31878,0,0,0,.98728-.33919,1.47862,1.47862,0,0,0,.69048-.8722,2.49169,2.49169,0,0,1,.89643-1.0539,1.24493,1.24493,0,0,0,.33313-.33313c.07268-.103.1817-.2665.23622-.3513a.61663.61663,0,0,0,.109-.29679.69137.69137,0,0,1,.06663-.2665,2.25253,2.25253,0,0,0,.04845-1.278.3989.3989,0,0,1-.03028-.25439c.03634-.15142.02422-.16959-.46639-.49061A6.08373,6.08373,0,0,0,24.02676,9.242c-.03029.00606-.40582.01817-.8298.02423a5.95379,5.95379,0,0,0-.81768.05451c-.02423.02423-.09086.01817-.14537-.01211a.38683.38683,0,0,0-.29679.00606.69622.69622,0,0,1-.49667-.03635,1.17885,1.17885,0,0,0-.56329-.06662c-.26044.0424-1.29012.109-1.55057.103h-.70866c-.48455,0-.56934-.01212-.67837-.12114l-.12719-.1272.12113-.24227A.76107.76107,0,0,1,18.194,8.5152a9.81523,9.81523,0,0,0,1.24772-.99939,2.69318,2.69318,0,0,1,.4785-.3513,1.14127,1.14127,0,0,0,.34524-.33918c.0848-.13326.18171-.24228.212-.24228.03634,0,.12113-.09085.18776-.19988a3.39765,3.39765,0,0,1,.50272-.527,1.44167,1.44167,0,0,0,.38159-.424.94257.94257,0,0,1,.01817-.15143,1.00668,1.00668,0,0,0-.05451-.33313c-.0424-.15142-.0848-.3089-.09086-.35735-.01817-.109-.38764-.26045-.52695-.218a1.70367,1.70367,0,0,1-.61175-.19988,1.3727,1.3727,0,0,0-.93276-.212,1.2226,1.2226,0,0,1-.70866-.09086c-.15748-.07268-.28467-.15142-.28467-.1817s-.05451-.07874-.11508-.109A6.66051,6.66051,0,0,1,16.922,2.36125c-.16354-.24227.14537-.636.3937-.50878a1.59485,1.59485,0,0,0,.33919.0848,1.39129,1.39129,0,0,1,.46638.19382c.13325.0848.33919.218.46638.30285a.90109.90109,0,0,0,.32707.15142.52911.52911,0,0,1,.23622.109,2.911,2.911,0,0,0,.8722.34525,1.70443,1.70443,0,0,1,.7874.36341,2.713,2.713,0,0,0,1.12052.55724,1.872,1.872,0,0,0,1.95033-.73289c.315-.33919.321-.35736.321-.70866a.969.969,0,0,0-.03635-.35735.75848.75848,0,0,1-.19382-.23017c-.09085-.12114-.315-.3937-.50878-.59963a1.86532,1.86532,0,0,0-.82979-.56329,1.7506,1.7506,0,0,0-.5633-.15748A.60568.60568,0,0,1,21.74328.526a.97738.97738,0,0,0-.4361-.11508,1.888,1.888,0,0,1-.533-.12114A7.58562,7.58562,0,0,0,19.054.01117.95366.95366,0,0,0,18.68451.04146Z"/>

</g>
</svg>
