<?xml version="1.0" encoding="UTF-8"?>
<svg xmlns="http://www.w3.org/2000/svg"
     version="1.1"
     width="62.43459189mm"
     height="54.70896912mm"
     viewBox="0.00000000 0.00000000 176.97990433 155.08049118">

<g transform="scale(4.54756027)">   <defs>
      <style type="text/css"><![CDATA[
      .a {
        stroke: #000;
        stroke-linecap: round;
        stroke-linejoin: round;
        stroke-width: 0.01px;
      }
    ]]></style>
   </defs>
   <path class="a"
         d="M38.233.04105c-.06057.01212-.109.04846-.109.07874,0,.20594-.89642.43-1.169.29074-.07874-.0424-.15143-.01814-.27862.09086a1.43132,1.43132,0,0,1-.78134.26045,1.15009,1.15009,0,0,0-.34525.05455c-.16959.04845-.46638.12719-.66626.18171s-.44215.12113-.54512.15142a3.58927,3.58927,0,0,1-.57541.09085,7.51767,7.51767,0,0,0-1.06.15143,5.16692,5.16692,0,0,1-.65415.09085,1.42863,1.42863,0,0,0-.49667.12719.91431.91431,0,0,1-.2241.109c-.0424.01211-.212.07874-.38159.15142-.23622.109-.32707.12114-.44215.07268a.26241.26241,0,0,0-.26651,0,.6814.6814,0,0,1-.34524.03029c-.12114-.01817-.3089-.04846-.41187-.06057a2.31051,2.31051,0,0,1-.3937-.09085,1.36583,1.36583,0,0,0-.3513-.06663c-.0848,0-.22411,0-.315-.00606a.46779.46779,0,0,0-.29073.1272.34012.34012,0,0,1-.315.12719.37079.37079,0,0,0-.16354.109.73245.73245,0,0,1-.29679.15748.999.999,0,0,0-.38158.218,1.13394,1.13394,0,0,1-.23016.17565.614.614,0,0,0-.18777.13931,3.34134,3.34134,0,0,1-.3937.28466,3.27088,3.27088,0,0,0-.33313.23016,4.02815,4.02815,0,0,1-.92065.55724c-.06057,0-.109.02423-.109.05452a.75521.75521,0,0,1-.15748.212c-.09086.08479-.14537.15748-.12114.15748s.01211.05451-.02423.11508c-.0424.0848-.0424.12114.01212.13931.03634.01212.07874.11508.08479.22411.01817.2665.23622.49061.44216.46032.08479-.01817.33313-.0424.55118-.06662.218-.01817.49061-.0424.60569-.05452s.44215-.02422.72683-.03634a1.614,1.614,0,0,0,.6602-.109,1.53461,1.53461,0,0,1,.66626-.103,4.62909,4.62909,0,0,0,1.45971-.212c0-.17565.37553-.29679.636-.19988a.59532.59532,0,0,1,.24228.56935.43035.43035,0,0,0,.04845.315.56065.56065,0,0,1,.07268.29073.70547.70547,0,0,0,.07269.321c.0424.09085.07268.18776.05451.218a.62926.62926,0,0,0,.03634.28466.97745.97745,0,0,1,.05451.3089.41817.41817,0,0,0,.07874.212.99971.99971,0,0,1,.11508.3513,1.47257,1.47257,0,0,0,.11509.3937.27461.27461,0,0,1,.01817.33313,1.055,1.055,0,0,0-.05452.5209,11.59573,11.59573,0,0,1-.05451,2.11991,1.25185,1.25185,0,0,1-.93882.3937.24277.24277,0,0,0-.16354.05451,1.33667,1.33667,0,0,1-.90853.103.63555.63555,0,0,0-.37553.06662c-.07874.04846-.13931.07269-.13931.05452s-.07874-.01212-.17565.01817a.44767.44767,0,0,1-.25439,0,.19214.19214,0,0,0-.18171,0,.18574.18574,0,0,1-.212-.02423.193.193,0,0,0-.20593-.03634,3.07727,3.07727,0,0,1-.57541.09085,5.06,5.06,0,0,0-.61175.07268.2555.2555,0,0,1-.212-.06056c-.07268-.07874-.109-.07874-.2665.00605a1.6593,1.6593,0,0,1-.424.13931c-.13325.03029-.39975.07874-.59358.12115a.87146.87146,0,0,1-.4906.00605.28626.28626,0,0,0-.28468.02423.88893.88893,0,0,1-.33313.07269,1.7759,1.7759,0,0,0-.533.12718,1.02238,1.02238,0,0,1-.40581.09692.22424.22424,0,0,0-.17565.03029,1.2827,1.2827,0,0,1-.3937.08479.55521.55521,0,0,0-.39976.15143.482.482,0,0,1-.3937.12719.90556.90556,0,0,0-.41792.09691c-.23622.15748-.36947.06663-.50273-.35736a4.99084,4.99084,0,0,1-.15142-.58752,2.08846,2.08846,0,0,0-.13325-.47243c-.09085-.22411-.09691-.27257-.01817-.3937a2.01029,2.01029,0,0,0,.01817-1.05391,1.20219,1.20219,0,0,1,.03634-.43.525.525,0,0,0-.06057-.44821.687.687,0,0,1-.08478-.315.98745.98745,0,0,0,.04845-.3513,4.39468,4.39468,0,0,1,.07874-.59358.9292.9292,0,0,0,0-.51483c-.03635-.13326-.07268-.28468-.08481-.33313s-.04239-.19988-.06662-.33313a4.199,4.199,0,0,1-.0424-.75712c.00606-.44215.02423-.52089.13325-.59357a3.53706,3.53706,0,0,0,.3513-.29679c.17565-.16354.25439-.19988.36947-.1696a1.04064,1.04064,0,0,0,.66626-.3089.8333.8333,0,0,1,.315-.109.81322.81322,0,0,0,.43-.218.7279.7279,0,0,1,.24228-.18171.60917.60917,0,0,0,.212-.14536c.09087-.0848.19382-.13931.23622-.12114.15142.06057.62386-.212,1.00545-.57541a3.63511,3.63511,0,0,1,.62386-.49667c.43-.2241.52695-.34524.52695-.67231,0-.218-.02423-.29073-.09085-.29073a.33144.33144,0,0,1-.19382-.12114c-.103-.11508-.103-.11508-.3513.02422a.58668.58668,0,0,1-.32708.109.2135.2135,0,0,0-.1817.103c-.09086.12113-.29678.19382-1.11448.3937a1.12811,1.12811,0,0,0-.16353.06662.73465.73465,0,0,1-.19382.06057.42052.42052,0,0,0-.19988.109c-.103.1393-.29073.212-.636.24227a1.87626,1.87626,0,0,0-.81768.19988.68283.68283,0,0,1-.33919.0848,1.71005,1.71005,0,0,0-.52088.12718,2.00136,2.00136,0,0,1-.89642.13931,2.82467,2.82467,0,0,0-.72683.07874,2.52323,2.52323,0,0,1-.59964.109,3.20669,3.20669,0,0,0-.73894.15143,3.92768,3.92768,0,0,1-1.55057.20593A1.78661,1.78661,0,0,0,14.296,3.6388a1.32188,1.32188,0,0,0-.57541.44215,3.19672,3.19672,0,0,1-.315.39371,1.62566,1.62566,0,0,0-.25439.3513.5463.5463,0,0,1-.22411.23017c-.13931.04238-.13931.04845-.06057.34524a.46223.46223,0,0,1,.00606.33919.20456.20456,0,0,0,.03029.24227c.07268.109.15142.13325.3937.13325a1.35391,1.35391,0,0,0,.48455-.09085c.13325-.07268.20593-.07874.30284-.02423a.42812.42812,0,0,0,.26045.03029.32269.32269,0,0,1,.24833.04845.33267.33267,0,0,0,.424-.05451,1.669,1.669,0,0,1,.47849-.27256.537.537,0,0,1,.15748.13325c.09691.109.19988.13931.47244.14537a2.03875,2.03875,0,0,1,.47244.04845c.1272.03634.41187.4785.3513.53907-.03634.03634.14537.34524.24228.41793a.70644.70644,0,0,1,.07874.33313,4.24317,4.24317,0,0,0,.04845.47243c.01817.09691.04846.315.06663.4785a1.62808,1.62808,0,0,0,.103.45427.96182.96182,0,0,1-.0424.8298c-.09691.06662-.09691.07874.01211.109a.36421.36421,0,0,1,.18171.20593,3.10528,3.10528,0,0,1,.01211,1.15687.23155.23155,0,0,0,.0424.22411.33123.33123,0,0,1,.0424.27862,1.91318,1.91318,0,0,0-.05451.38158,2.146,2.146,0,0,1-.11508.51484,2.4449,2.4449,0,0,0-.1272.41187c-.01817.16959-.03028.18776-.25439.24833-.19382.05452-.38158-.01211-.745-.2665-.3513-.24833-.40581-.29679-.47244-.43a.37651.37651,0,0,0-.23622-.16354,1.20486,1.20486,0,0,1-.41792-.27862l-.24834-.24833-.38764.06663a6.41065,6.41065,0,0,1-.6602.07874c-.321.00605-.642.1817-.69049.36947a1.45741,1.45741,0,0,1-.26045.38158c-.321.34525-.44215.49061-.44215.54513a1.00743,1.00743,0,0,1-.13931.25439,1.11825,1.11825,0,0,0-.15748.55118.68079.68079,0,0,0,.18776.59963c.34525.44821.41187.4785,1.22956.50878a9.4745,9.4745,0,0,1,1.23561.12114,1.22479,1.22479,0,0,0,.62386.03028c.09085-.04845.18171-.0424.34524.02423a2.29113,2.29113,0,0,0,.37553.1272c.28468.06056.27256.33918-.01817.6602a2.31712,2.31712,0,0,0-.4361.59963,1.8872,1.8872,0,0,1-.642.59358c-.05451,0-.13931.20593-.15142.38158a.26931.26931,0,0,1-.28468.22411c-.06057,0-.109.02423-.109.05451a3.41614,3.41614,0,0,1-.848.79346.46513.46513,0,0,0-.109.212,1.05007,1.05007,0,0,1-.24228.34524,1.65021,1.65021,0,0,0-.49667.73289,1.19087,1.19087,0,0,1-.23016.39976,3.47151,3.47151,0,0,0-.28467.33313c-.18777.2665-.27257.33918-.38765.33918-.06662,0-.15748.109-.24227.29678a1.00285,1.00285,0,0,1-.40582.46034.899.899,0,0,0-.2665.212.673.673,0,0,1-.11508.16354,1.91225,1.91225,0,0,0-.24833.37552.91356.91356,0,0,1-.30891.35736.503.503,0,0,0-.212.212,1.74455,1.74455,0,0,1-.30284.38159,1.44133,1.44133,0,0,0-.26651.33313c0,.03028-.06662.06662-.15142.09085a.26669.26669,0,0,0-.18171.14537.241.241,0,0,1-.14536.15142.73851.73851,0,0,0-.26045.26045,3.68427,3.68427,0,0,1-.88431,1.09024c-.15748.109-.28468.23016-.28468.27256-.00605.13325-.09691.34525-.15747.3513-.212.03029-.35736.1272-.35736.23622,0,.15748-.27256.4361-.61781.636a.7925.7925,0,0,0-.29073.21805c0,.03028-.11508.109-.24833.1817a2.05559,2.05559,0,0,0-.46638.33313,1.25529,1.25529,0,0,1-.315.23622.258.258,0,0,0-.14537.1696.60222.60222,0,0,1-.27256.2665.73.73,0,0,0-.27862.26045.17349.17349,0,0,1-.2053.13435l-.02486-.00716c-.03029-.00605-.03634.03635-.01817.09691.0424.13931,0,.19383-.28468.38159a.75889.75889,0,0,0-.25439.25439.53367.53367,0,0,1-.1817.19382.86682.86682,0,0,0-.24834.29679,1.54435,1.54435,0,0,1-.26044.33313c-.0848.07268-.24834.21805-.36342.321a1.73779,1.73779,0,0,1-.3937.2665,1.10963,1.10963,0,0,0-.29073.19988.29408.29408,0,0,1-.25439.109c-.0848-.01211-.13931.00606-.12114.03029.04846.07874-.2241.533-.33313.56935a.75072.75072,0,0,0-.24227.25439c-.18777.28467-.29679.38158-.44822.38158-.20593,0-.62386.533-.69654.87825-.13325.68443.12719.79952.957.41793a1.3237,1.3237,0,0,0,.48455-.29679c0-.15142.44216-.60569.81163-.82979a1.35317,1.35317,0,0,0,.35736-.27257c-.0424-.12114.06662-.25439.28467-.3513.13325-.06057.24228-.13325.24228-.16353a.56619.56619,0,0,1,.15142-.20594,1.58333,1.58333,0,0,0,.23622-.315.975.975,0,0,1,.35736-.3089,1.04806,1.04806,0,0,0,.46032-.50272,6.67834,6.67834,0,0,1,1.3993-1.50206,4.765,4.765,0,0,0,.55724-.60569,1.09514,1.09514,0,0,1,.2241-.26651,9.74836,9.74836,0,0,0,1.0781-1.0115c.17565-.20593.44821-.41187.51484-.38764A4.581,4.581,0,0,0,9.281,25.7163a3.80774,3.80774,0,0,1,.61175-.72683c.109-.103.50273-.4785.86614-.83586a5.984,5.984,0,0,1,.8298-.71471.88938.88938,0,0,0,.30284-.27256,1.2214,1.2214,0,0,1,.33313-.32708,4.77057,4.77057,0,0,0,1.24167-1.18109.97345.97345,0,0,1,.25439-.27862c.03028,0,.03634-.03634.01817-.0848a.14866.14866,0,0,1,.04845-.15142c.0424-.03634.1696-.13932.27862-.22411a1.251,1.251,0,0,0,.29679-.3937.46953.46953,0,0,1,.20594-.2665c.06057-.02423.11508-.07268.11508-.11508a.36583.36583,0,0,1,.3089-.3089,1.31709,1.31709,0,0,0,.18171-.02423,1.676,1.676,0,0,0,.212-.36947,1.00455,1.00455,0,0,1,.28467-.39976c.05452-.01817.103-.05451.103-.07874a1.043,1.043,0,0,1,.18777-.25439,2.7822,2.7822,0,0,0,.30284-.43c.06057-.12114.19382-.33919.29073-.48455a2.20114,2.20114,0,0,0,.212-.3937c.0424-.13325.30891-.38159.40582-.38159a.30114.30114,0,0,1,.13931.09691.14777.14777,0,0,1,.03473.20607l-.00445.00593a.36942.36942,0,0,0-.03028.2241,4.5352,4.5352,0,0,1,.06662.58752,5.19649,5.19649,0,0,0,.09086.66626,2.25479,2.25479,0,0,1,.15748.745,5.1074,5.1074,0,0,0-.109.79951,2.9757,2.9757,0,0,0,.12114.76923.21653.21653,0,0,1,.00606.218c-.04846.07874-.03029.15748.06057.30285a1.185,1.185,0,0,1,.12113.6178,4.551,4.551,0,0,0,.09691.848c.05452.23016.12114.52089.14537.636a2.7232,2.7232,0,0,0,.1272.37553c.06662.13931.06056.18777-.03635.33313a.83224.83224,0,0,0-.12719.33919,1.4998,1.4998,0,0,1-.109.37553,1.52389,1.52389,0,0,0-.06662.59357c.04845.76318.103.96911.315,1.24773a1.05078,1.05078,0,0,1,.20593.36341c0,.05451.12114.16354.26651.24834a1.23139,1.23139,0,0,1,.41187.37552.59373.59373,0,0,0,.29073.26651,2.407,2.407,0,0,1,.29679.09085,3.50926,3.50926,0,0,0,.72683.09086l.58146.03634.24228-.22411c.13325-.12114.23016-.25439.218-.29073-.006-.0424-.03028-.1272-.03634-.19382a1.2277,1.2277,0,0,0-.13931-.4361,1.024,1.024,0,0,1-.07268-.41187,1.2954,1.2954,0,0,0-.09085-.46032c-.09086-.16959-.09086-.26045.006-.79346a.27023.27023,0,0,0-.09691-.27862.79042.79042,0,0,1-.23016-.69654.32418.32418,0,0,0-.01211-.27862,1.019,1.019,0,0,1,.08479-.76317c.13326-.24833.12114-.46638-.02422-.59358a.23211.23211,0,0,1-.09086-.24227c.109-.48456.1272-.64809.0848-.72078-.07874-.12719-.06663-.19987.09691-.43.13325-.20593.14537-.25439.09691-.62992a2.01437,2.01437,0,0,1-.01211-.533,1.22681,1.22681,0,0,0,.03028-.36342,1.97757,1.97757,0,0,1,.07268-.53906.808.808,0,0,0,.0424-.36342,2.21824,2.21824,0,0,1-.08479-.61175,2.05393,2.05393,0,0,1,.18776-.68443c.1272-.30284.14537-.315.53907-.43609a4.32655,4.32655,0,0,0,.6178-.23622,2.283,2.283,0,0,1,1.1811-.212,1.50433,1.50433,0,0,0,.78134-.03634A5.02817,5.02817,0,0,1,25.1017,16.94c.3937-.01211.47244-.03028.59358-.15748a.47821.47821,0,0,0,.13325-.47244c-.01211-.18776.321-.50272.533-.50272.23016,0,.33919.0848.3513.28468.00606.09085.01817.19987.01817.23622.00606.09085.35736.15748.4785.09085a.85681.85681,0,0,1,.47244.05451,2.28561,2.28561,0,0,0,1.30829-.06662.486.486,0,0,1,.36947,0,3.15794,3.15794,0,0,0,1.2235-.0848.32788.32788,0,0,1,.24227.05451c.103.07268.12114.16959.13931.59358.00606.27862.01212.59963.00606.71471a7.00715,7.00715,0,0,0,.07268,1.12053.65927.65927,0,0,1-.03634.23016.55016.55016,0,0,0,.01817.315.48036.48036,0,0,1-.02423.3937.93271.93271,0,0,0-.04845.44821,4.18468,4.18468,0,0,1,.06057,1.39915,3.75494,3.75494,0,0,0,0,1.18715,2.0232,2.0232,0,0,1,.08479.66021,2.11864,2.11864,0,0,1-.12113.72683c-.04846.09085-.03635.14536.06056.24227s.109.15143.06057.24228-.03634.13325.04846.19382a.28893.28893,0,0,1,.14146.38334l-.00821.01642a.83844.83844,0,0,0,0,.38764,5.39432,5.39432,0,0,1,.09085.6178,1.50633,1.50633,0,0,0,.109.5209,4.239,4.239,0,0,0,.81163.848c.16353,0,.44215-.18777.44215-.29679a.895.895,0,0,1,.43-.50878.56981.56981,0,0,0,.212-.13326c.07269-.06662.24228-.2241.37553-.34524a1.41278,1.41278,0,0,0,.52695-1.12658c.01212-.37553,0-.424-.16353-.61175-.14537-.16354-.17566-.24228-.14537-.3937a2.6799,2.6799,0,0,0-.02423-1.52029,3.79639,3.79639,0,0,1-.09085-.636,3.90539,3.90539,0,0,0-.13931-1.01756,1.15176,1.15176,0,0,1-.0424-.4361c.03634-.15748-.05451-.424-.3089-.92065-.07268-.13931-.07268-.19382.03634-.44821a2.333,2.333,0,0,0,.15142-.848c.01212-.3089.0424-.64809.06057-.76317a.86764.86764,0,0,0-.01817-.35736.64911.64911,0,0,1,.03634-.46638,4.81766,4.81766,0,0,0,.0424-1.708,3.28962,3.28962,0,0,1,0-1.09024c.02423-.15142.05451-.59964.06663-.99939a6.59093,6.59093,0,0,1,.15142-1.61114.72549.72549,0,0,0-.00606-.44215.84421.84421,0,0,1-.02422-.35131,1.04251,1.04251,0,0,0,.06056-.31495,1.6073,1.6073,0,0,1,.12114-.59358.33118.33118,0,0,0,.05451-.1696c.00606-.04845.03029-.19987.06057-.33313a1.2848,1.2848,0,0,0,.03635-.321.65779.65779,0,0,1,.11508-.28468c.07268-.12113.109-.24227.08479-.28467-.15142-.24833-.12114-1.1387.0424-1.1387.03029,0,.05451-.1272.05451-.29073a1.7384,1.7384,0,0,1,.09086-.86008c.04845-.09086.07268-.18171.0545-.19382a1.86268,1.86268,0,0,1-.0545-.38765c-.01817-.19987-.03634-.424-.05451-.50878a5.83342,5.83342,0,0,0-.37552-1.10857.38449.38449,0,0,1-.05452-.27862c.0424-.13325.27862-.24833.51484-.24833.09691,0,.19382-.02423.212-.06057a.75554.75554,0,0,1,.29074-.12114,2.49474,2.49474,0,0,0,.79951-.44821,1.44827,1.44827,0,0,1,.73894-.39976c.30285.02423.321.01212.321-.23622,0-.25439.12113-.43.29073-.43a.44422.44422,0,0,0,.218-.09085c.06057-.04846.13931-.07268.16353-.05451a2.94379,2.94379,0,0,0,.93277-.4361.2279.2279,0,0,0,.06057-.20594.28955.28955,0,0,1,.218-.30284c.109,0,.04845-.22411-.09691-.3513A.51314.51314,0,0,0,38.233.04105ZM30.94656,12.50012a.42493.42493,0,0,1,.1272.315c.006.13326.01817.26044.02422.2968a3.96271,3.96271,0,0,1,.00606.43608c-.00606.44216-.13931.636-.41793.61175a.84019.84019,0,0,0-.36947.09691.56137.56137,0,0,1-.36341.07269,1.58564,1.58564,0,0,0-1.02362.006,1.198,1.198,0,0,1-.43.1272,1.16,1.16,0,0,0-.3089.07268.2653.2653,0,0,1-.19988.02423,1.57653,1.57653,0,0,0-.52695.12115c-.39976.13325-.46034.1393-.66626.06662a.55421.55421,0,0,0-.26651-.04846.4548.4548,0,0,1-.16959.05451c-.07874.01211-.24833.04846-.38159.07874a2.27992,2.27992,0,0,1-.49666.06662c-.13932,0-.26046.03029-.27256.07269-.01817.04241-.109.06662-.212.06057a1.05947,1.05947,0,0,0-.36343.05451,5.45773,5.45773,0,0,1-1.41126.15142c-.91459.0424-.99333.04846-1.14476.13931a.58919.58919,0,0,1-.34524.04846,1.034,1.034,0,0,0-.38764.01817c-.315.09085-.3937-.0848-.3089-.67838a1.97025,1.97025,0,0,1,.963-.20593,1.2781,1.2781,0,0,0,.56934-.11507.576.576,0,0,1,.22411-.09087.86139.86139,0,0,0,.30285-.14536,1.06425,1.06425,0,0,1,.61174-.17565,1.72622,1.72622,0,0,0,.642-.15143.91611.91611,0,0,1,.41792-.103.61956.61956,0,0,0,.315-.07269c.07269-.04846.15748-.07268.18777-.05451.05451.03028.212-.01211.67837-.17565a1.67147,1.67147,0,0,1,.33313-.0848,3.4548,3.4548,0,0,0,.76317-.103,3.4949,3.4949,0,0,1,.93277-.09691,1.68773,1.68773,0,0,0,.78739-.1696,1.84271,1.84271,0,0,1,.45427-.15748,3.19809,3.19809,0,0,0,1.12053-.27862C30.69213,12.39715,30.78913,12.385,30.94656,12.50012Z"/>

</g>
</svg>
