<?xml version="1.0" encoding="UTF-8"?>
<svg xmlns="http://www.w3.org/2000/svg"
     version="1.1"
     width="68.26219041mm"
     height="43.71874255mm"
     viewBox="0.00000000 0.00000000 193.49915844 123.92712559">

<g transform="scale(4.08317729)">   <defs>
      <style type="text/css"><![CDATA[
      .a {
        stroke: #000;
        stroke-linecap: round;
        stroke-linejoin: round;
        stroke-width: 0.01px;
      }
    ]]></style>
   </defs>
   <path class="a"
         d="M16.91526.33813a2.12629,2.12629,0,0,1-.52089.75711c-.72683.81163-.75712.86614-.64809,1.31435.0424.1696.745.89037.82374.84191.03028-.01817.09691,0,.14536.05452a.85447.85447,0,0,0,.33919.14536.87745.87745,0,0,1,.34525.15142.95811.95811,0,0,0,.59357.24228c.07874-.03028.33919.18777.33919.29073,0,.02423.07874.03029.17565.01212.14537-.03029.212-.00606.33313.12719.0848.09086.19382.15142.23622.13325a.194.194,0,0,1,.16354.01817.4232.4232,0,0,0,.26044-.00605.42175.42175,0,0,1,.29073.01211.64068.64068,0,0,0,.67232-.218c.07874-.16959.33919-.2665.67232-.24833.24833.01211.34524.103.30284.28467-.01817.06057-.006.11509.03029.11509a2.15421,2.15421,0,0,1,.33919,1.066.68613.68613,0,0,0,.109.41187c.1272.1272.07874.26651-.109.315-.1696.0424-.19383.13325-.16354.56935a2.60374,2.60374,0,0,1-.09691,1.19927.28149.28149,0,0,0-.03634.19382.27322.27322,0,0,1-.1272.32707c-.09085.03634-.41792-.26044-.67231-.60569-.27862-.37553-.36948-.4361-.70866-.47849a2.79707,2.79707,0,0,0-.59358-.00606,4.10535,4.10535,0,0,1-.41187.03028c-.53907-.03028-.8722.01817-.99939.15143-.09691.09085-.27256.07268-.27256-.03029,0-.03634-.05451-.03028-.1272.00606a2.95481,2.95481,0,0,0-.6602.66626c0,.09085-.36947.424-.43.3937-.03029-.02423-.0848.03028-.12114.11508a.41116.41116,0,0,1-.19988.19382.63334.63334,0,0,0-.2241.1272.75508.75508,0,0,1-.27256.11508.45362.45362,0,0,0-.24228.11508,1.016,1.016,0,0,1-.36341.18776A1.24231,1.24231,0,0,0,14.759,9.575a2.64654,2.64654,0,0,1-.424.23016,3.11432,3.11432,0,0,0-.636.40581.99036.99036,0,0,1-.34524.24228,1.00734,1.00734,0,0,0-.24228.109,2.0362,2.0362,0,0,1-.37553.16354,2.028,2.028,0,0,0-.7026.424,2.90393,2.90393,0,0,1-.92065.38765.5524.5524,0,0,0-.3089.15748.86769.86769,0,0,1-.32707.212.69865.69865,0,0,0-.321.24833.47706.47706,0,0,1-.23622.18777,1.038,1.038,0,0,0-.27862.11508.59294.59294,0,0,1-.30284.08479,1.19247,1.19247,0,0,0-.51484.212,1.72154,1.72154,0,0,1-.39976.212.67869.67869,0,0,0-.25439.1817.55959.55959,0,0,1-.37552.18171c-.09691,0-.18171.02423-.18171.05451a1.856,1.856,0,0,1-.76923.25439.49449.49449,0,0,0-.24228.109.74147.74147,0,0,1-.315.13931.5742.5742,0,0,0-.26045.12114.22068.22068,0,0,1-.19988.07268c-.04846-.02423-.09085-.01211-.09085.02423,0,.08479-.28468.18776-.636.2241a3.01862,3.01862,0,0,0-1.0115.36947,1.21142,1.21142,0,0,1-.33313.11509,2.275,2.275,0,0,0-.98728.48455,2.27961,2.27961,0,0,1-1.169.55118c-.212-.06057-.81769.19987-.86008.36947a.34677.34677,0,0,1-.18171.212c-.15748.07268-.19988.16354-.38159.83585-.19988.72683-.212.8722-.09085,1.13265a.76849.76849,0,0,0,.50272.47243c.1696.07269.25439.17566.424.5209.24833.50272.40581.6178.79345.56329a1.70381,1.70381,0,0,0,.38764-.109,4.4442,4.4442,0,0,1,1.42943-.01817,4.95675,4.95675,0,0,0,1.599-.06057,4.02216,4.02216,0,0,1,.745-.01817.66581.66581,0,0,1,.2665.06662.99152.99152,0,0,0,.66626.04846,3.34323,3.34323,0,0,1,.86614-.12114,2.24081,2.24081,0,0,1,.36947.07874,1.092,1.092,0,0,0,.424.04846,5.41871,5.41871,0,0,1,1.35674.03028,1.1472,1.1472,0,0,0,.44216.03028,1.94948,1.94948,0,0,1,.40581.09086,1.05475,1.05475,0,0,0,.48455.04845,1.1087,1.1087,0,0,1,.27257-.02422c.06661.00605.218.02422.33312.03634a1.5981,1.5981,0,0,1,.321.06057c.05451.02422.103.01817.103-.01817,0-.09692.16959-.13326.34524-.06663a3.21051,3.21051,0,0,0,.55118.09085,1.99331,1.99331,0,0,1,.642.15748.9968.9968,0,0,0,.66626.09087c.43-.0303.43-.0303.62992.18775.16354.16959.218.19382.26045.1272a.23684.23684,0,0,0,.01817-.18171c-.02423-.09691.11508-.29678.20595-.29678s.18169.103.28467.321c.06662.14537.13931.218.18777.19987a.18869.18869,0,0,1,.17565.06663.7007.7007,0,0,0,.41187.109,2.28712,2.28712,0,0,1,.46638.07269,1.03225,1.03225,0,0,0,.40581.0424.409.409,0,0,1,.33918.06662.69761.69761,0,0,0,.26045.1272,1.89716,1.89716,0,0,1,.32708.11508,1.111,1.111,0,0,0,.76317.16353.222.222,0,0,1,.23621.00606,1.28271,1.28271,0,0,0,.3937.0848c.15143.00606.46638.03028.69655.04845a4.81845,4.81845,0,0,1,.93882.18171c.61174.18777,1.07208.24228,1.19321.13931a.96385.96385,0,0,1,.39976-.09085c.17564-.00606.41186-.02423.52695-.0424.86008-.1272.98122-.13325,1.28406-.04846.17565.0424.24227.0424.29678-.02423a.558.558,0,0,1,.19384-.12113,4.2169,4.2169,0,0,0,.54512-.27862,2.15577,2.15577,0,0,1,.66626-.26651c.36947-.03634.54512-.07268.58146-.13325.109-.16353.27256-.17565.53907-.0424l.27256.13931.19988-.12113a.65282.65282,0,0,1,.3089-.103,1.06394,1.06394,0,0,0,.424-.14537,1.45233,1.45233,0,0,1,.48455-.16353,1.82454,1.82454,0,0,0,.72683-.23017.738.738,0,0,1,.424-.03634,3.77037,3.77037,0,0,0,1.39914-.0848,2.78744,2.78744,0,0,1,.65414-.16353.97652.97652,0,0,0,.3392-.13931c.12719-.07874.23622-.109.28467-.07268a.396.396,0,0,0,.212.02422,1.13918,1.13918,0,0,0,.56935-.18776.71471.71471,0,0,1,.321-.11508.56724.56724,0,0,0,.315-.15142.79923.79923,0,0,1,.6178-.23622c.11508,0,.23017-.03635.25439-.0848a.62443.62443,0,0,1,.26651-.17565c.212-.0848.218-.0848.745.23622a3.32337,3.32337,0,0,0,.61175.32707.293.293,0,0,1,.16353.07874,1.28149,1.28149,0,0,0,.82374.38764,1.05119,1.05119,0,0,1,.49667.14537,1.68709,1.68709,0,0,0,.29073.17565,3.49856,3.49856,0,0,1,.46033.29679,1.94024,1.94024,0,0,0,.90853.43,1.05532,1.05532,0,0,1,.38159.15142,1.94967,1.94967,0,0,0,.44215.17565.72822.72822,0,0,1,.43.23016.36093.36093,0,0,0,.212.07269c.23623.03028.38765.09691.38765.16959,0,.03029.07268.05451.16959.04846.25439-.01817.29679-.00606.40581.09691a.84635.84635,0,0,0,.50879.12114,1.91388,1.91388,0,0,1,.76923.1817,1.4272,1.4272,0,0,0,.66019.212,6.60152,6.60152,0,0,0,2.344-.26044c.30889-.15143.36341-.25439.38763-.73289.01212-.23016-.01211-.321-.109-.41793a.271.271,0,0,1-.09086-.23622.144.144,0,0,0-.06662-.16959c-.07873-.0424-.109-.12719-.1272-.39975a1.2667,1.2667,0,0,0-.24228-.315,1.13708,1.13708,0,0,0-.56934-.3513,2.26709,2.26709,0,0,1-.55723-.24834.948.948,0,0,0-.29073-.14536,3.883,3.883,0,0,1-1.14476-.527c-.09086-.09085-.18776-.1393-.212-.12113-.01817.02422-.09691.006-.16354-.03634a1.14322,1.14322,0,0,0-.29073-.1272.25762.25762,0,0,1-.212-.20594.56516.56516,0,0,0-.11508-.24227.7042.7042,0,0,1-.1272-.15142,1.04185,1.04185,0,0,0-.50272-.25439.75759.75759,0,0,1-.27862-.18777,2.04987,2.04987,0,0,0-.67837-.424.63134.63134,0,0,1-.22411-.15748c-.19988-.19382-.321-.29073-.37553-.29073a3.06684,3.06684,0,0,1-.38765-.15748.99137.99137,0,0,1-.47243-.39976c-.13326-.23622-.13931-.23622-.642-.25439a.63511.63511,0,0,1-.36344-.1755c-.30891-.29073-.35736-.32707-.50273-.36947a1.18208,1.18208,0,0,1-.50878-.64809c-.09085-.25439-.28467-.59963-.34524-.59963-.02424,0-.07874-.06663-.11509-.14537a.35081.35081,0,0,0-.24834-.18777.93289.93289,0,0,1-.33313-.15747.44536.44536,0,0,0-.23016-.109,1.328,1.328,0,0,1-.62386-.18776c-.06057-.09691-.56329-.06663-.77529.03634a1.452,1.452,0,0,0-.321.23016,1.71617,1.71617,0,0,1-.26044.218,1.121,1.121,0,0,0-.212.16959c-.03634.0424-.11508.1272-.16959.18171a.45711.45711,0,0,0-.109.30285.73106.73106,0,0,1-.18171.49666,2.585,2.585,0,0,0-.3089.93882.907.907,0,0,0,.09086.44216.47528.47528,0,0,1,.06056.33313.40834.40834,0,0,0-.03634.18171,1.361,1.361,0,0,1-.27862.533.79082.79082,0,0,0-.13325.02423c-.04845.01817-.212.05451-.36341.09691-.15142.03634-.3937.103-.54512.14537a2.97589,2.97589,0,0,1-.3937.08479.92867.92867,0,0,0-.44216.09086,1.52322,1.52322,0,0,1-.3937.06662,3.00628,3.00628,0,0,0-1.04178.23622.44735.44735,0,0,1-.40582.03029c-.13325-.05451-.18171-.04846-.26045.03028-.07268.07269-.12719.07874-.23621.03029a.2494.2494,0,0,0-.29074.03028.35867.35867,0,0,1-.24833.06663.42906.42906,0,0,0-.28467.06057.525.525,0,0,1-.35736.06057,2.089,2.089,0,0,0-.854-.0303.19917.19917,0,0,1-.17565.00606,1.14876,1.14876,0,0,0-.46032.006c-.19988.0303-.46033.06057-.57541.07269a1.41886,1.41886,0,0,0-.35736.07874.51163.51163,0,0,1-.37553-.01817.65056.65056,0,0,0-.41186-.02423,1.06624,1.06624,0,0,1-.3937.01817.53893.53893,0,0,0-.34525.05451,1.08183,1.08183,0,0,1-.50878.07269,15.12027,15.12027,0,0,1-1.65959-.11509c-.19988-.06057-.23622-.2665-.12114-.59963a.82717.82717,0,0,0,.07874-.34524.24717.24717,0,0,1,.0424-.18777,3.96745,3.96745,0,0,0,.13325-1.39309,1.83989,1.83989,0,0,1,.0848-.72077c.05451-.05451.05451-.109.01211-.18776a.3358.3358,0,0,1-.02423-.23017.399.399,0,0,0-.02422-.23622c-.05452-.09085-.0424-.13931.03634-.218.09085-.09086.09085-.13326.02423-.38765a5.36854,5.36854,0,0,1-.21805-1.10841c-.03635-.4361.109-.642.48455-.69049a2.23614,2.23614,0,0,0,1.1387-.72683,4.40527,4.40527,0,0,1,.51484-.3513,1.95167,1.95167,0,0,0,.46638-.36341.92285.92285,0,0,1,.33918-.24228.66553.66553,0,0,0,.27862-.19382.44391.44391,0,0,1,.26651-.14537,1.97261,1.97261,0,0,0,.46032-.212,1.70266,1.70266,0,0,1,.4361-.212,1.98139,1.98139,0,0,0,.61175-.424,2.09361,2.09361,0,0,1,.533-.39976c.07268-.02423.13325-.06057.13325-.0848s.08479-.07874.1817-.11508a.39465.39465,0,0,0,.22411-.16354,1.04131,1.04131,0,0,1,.3937-.2665,2.02137,2.02137,0,0,0,.49061-.315,1.77382,1.77382,0,0,1,.424-.29073.83235.83235,0,0,0,.28468-.18776c0-.02423.05451-.06663.12114-.0848a.53443.53443,0,0,0,.218-.218c.0848-.16959.20594-.24833.69049-.424a1.51817,1.51817,0,0,0,.43-.30285c.36947-.36947.43-.38158.78134-.19988a.76955.76955,0,0,0,.4785.1272.39227.39227,0,0,1,.3089.06057,1.05256,1.05256,0,0,0,.46638.109c.29074.00606.33919-.00606.44216-.15142a1.21532,1.21532,0,0,0,.2665-.8298c-.02422-.09691-.04845-.18171-.05451-.19988a.98862.98862,0,0,0-.0848-.17565,1.56167,1.56167,0,0,1-.09691-.47849.65445.65445,0,0,0-.24833-.58147,2.38341,2.38341,0,0,0-1.12053-.58146.66107.66107,0,0,0-.34524.16354c-.67232.60569-.70866.62992-.848.60569-.11508-.02423-.16354.01211-.23622.16959a.69588.69588,0,0,1-.25439.27256.973.973,0,0,0-.24833.15748c-.43.40582-.54512.527-.57541.62992a.25622.25622,0,0,1-.14536.15142.34338.34338,0,0,0-.17565.18171.716.716,0,0,1-.23622.25439,2.357,2.357,0,0,0-.30285.24833,1.30719,1.30719,0,0,1-.3513.23017c-.11508.04845-.212.109-.212.13325a1.40819,1.40819,0,0,1-.3937.24833,1.80573,1.80573,0,0,0-.3937.24834,1.45947,1.45947,0,0,1-.54512.54512c-.103.0424-.18171.09691-.18171.12719,0,.06663-.36341.25439-.4058.212a1.67107,1.67107,0,0,0-.59358.218c-.03028.03029-.22411.17565-.424.32708a3.50306,3.50306,0,0,0-.39976.33313.44551.44551,0,0,1-.212.109.41254.41254,0,0,0-.26045.22411c-.109.2241-.16959.2665-.41793.2665a.54842.54842,0,0,0-.41188.212.76891.76891,0,0,1-.29678.212.1916.1916,0,0,0-.13931.09086.24779.24779,0,0,1-.17565.11508c-.06663.01817-.315.109-.55118.20593l-.43.18777-.15143-.12114a.66379.66379,0,0,1-.19382-.25439.39517.39517,0,0,0-.103-.17565.78059.78059,0,0,1-.103-.38159c-.0424-.38158.0424-.54512.24833-.48455.06057.01817.16959.0424.23622.06663.28468.07874.72077-.37553.75711-.79951a1.29925,1.29925,0,0,1,.109-.36948,1.46771,1.46771,0,0,0,.12114-.44215,3.1717,3.1717,0,0,1,.09691-.4785.39682.39682,0,0,0,0-.315.23926.23926,0,0,1,.006-.23016.77845.77845,0,0,0,.06057-.2665.67421.67421,0,0,1,.18171-.3513,1.28919,1.28919,0,0,0,.18777-.26651,4.48992,4.48992,0,0,0-.01818-1.07813c-.03634-.07268-.01817-.13931.0848-.24227a.41918.41918,0,0,0,.1272-.34525,12.35813,12.35813,0,0,1,0-1.52028,1.53066,1.53066,0,0,0-.11508-.57541.99279.99279,0,0,1-.09086-.61175c.03029-.103.0424-.20593.02423-.218a.31946.31946,0,0,1-.03615-.11494.78013.78013,0,0,0-.3937-.56935.736.736,0,0,1-.27256-.1817C23.063.02317,22.88132.005,22.37254.005l-.67838.00606L21.48823.217a1.4227,1.4227,0,0,1-.80557.39976c-.16354.0424-.29073.103-.29073.13325,0,.09691-.4361.23016-.61781.19382A2.73122,2.73122,0,0,1,18.77473.4411.42676.42676,0,0,0,18.5264.28967a.28819.28819,0,0,1-.22411-.16353C18.266.01714,18.2175.005,17.66029.005h-.59966Zm.81163,12.53175a.727.727,0,0,1,.20593.0424,1.92663,1.92663,0,0,1,.218.636,1.37161,1.37161,0,0,0,.3513.73289c.19988.19988.44216.745.37553.86008-.06057.11508.01817.32707.18171.49061a.42322.42322,0,0,1,.11508.3513.83909.83909,0,0,0,.20593.56329,1.1287,1.1287,0,0,1,.212.50878.94019.94019,0,0,0,.03634.3089.25074.25074,0,0,1-.321.30285,8.59139,8.59139,0,0,0-1.33858-.12114,4.4739,4.4739,0,0,1-.81768-.09691,2.07815,2.07815,0,0,0-.54512-.06662,10.24441,10.24441,0,0,1-1.1023-.01821,2.63561,2.63561,0,0,1-.67837-.09085.77756.77756,0,0,0-.41187-.0424c-.1272.01817-.49667.0424-.81768.04846-.55118.00605-.59964,0-.8298-.15748a.98439.98439,0,0,0-.78134-.212,1.39632,1.39632,0,0,1-.4785-.00606,4.51813,4.51813,0,0,0-.50272-.05451,3.22308,3.22308,0,0,1-.69655-.18171c-.848-.29679-.93276-.321-.99333-.28468-.06057.0424-.24833-.12113-.24833-.20593a.44139.44139,0,0,1,.23622-.24228.677.677,0,0,0,.218-.15748.82.82,0,0,1,.2665-.17565c.05451-.01817.20593-.06662.33919-.11508a1.905,1.905,0,0,1,.37552-.09691.21879.21879,0,0,0,.18171-.0848,1.09149,1.09149,0,0,1,.66626-.30284.55929.55929,0,0,0,.32708-.09085,2.17207,2.17207,0,0,1,.50878-.18777c.16959-.0424.49061-.14536.72682-.23016a3.34671,3.34671,0,0,1,.57541-.16959,2.204,2.204,0,0,0,1.09025-.34525.57974.57974,0,0,1,.2241-.103c.0424,0,.07874-.02422.07874-.05451,0-.07268.28468-.16959.59358-.20593a.81307.81307,0,0,0,.3937-.15143,1.59674,1.59674,0,0,1,.751-.3513.59242.59242,0,0,0,.30285-.12113.41841.41841,0,0,1,.26045-.11509,1.14224,1.14224,0,0,0,.23016-.05451.07215.07215,0,0,1,.07874-.00606A.7402.7402,0,0,0,17.72689,12.86988ZM9.332,19.29626a.209.209,0,0,1,.06057.18171.23031.23031,0,0,1-.41187,0c-.03028-.0848.109-.27257.20594-.27257A.3383.3383,0,0,1,9.332,19.29626Z"/>
   <path class="a"
         d="M3.91713,1.70093a3.70994,3.70994,0,0,0-.30284.3937,2.45544,2.45544,0,0,1-.29679.36342c-.07874.07874-.18776.18171-.24228.23016-.43.41187-.64809.77529-.55723.93277.03634.06662.01817.1817-.06057.36947-.15142.33918-.14537.58752.00605.73894.09086.09085.109.15142.07269.23016a3.34933,3.34933,0,0,0,.01817,1.15082.55982.55982,0,0,0,.3089.44215,1.15339,1.15339,0,0,1,.27256.22411c0,.02422.01817.09691.03029.16353.01817.06663.03634.18171.04845.25439a.65565.65565,0,0,0,.35736.38159,8.65725,8.65725,0,0,1,1.0539.97516c.23622.23622.3513.30285.44216.27862.13931-.03634.24227.0424.46032.34524.109.15142.13931.16354.25439.103.109-.05451.14537-.04846.25439.06663a.47411.47411,0,0,1,.12114.1817c0,.02423.07268.0848.16959.13325a2.8919,2.8919,0,0,1,.424.33313,1.53976,1.53976,0,0,0,.38158.27862.63308.63308,0,0,1,.22411.17565,1.26265,1.26265,0,0,0,.34524.26651c.27862.13931.57541.39975.57541.49666,0,.03635.02423.05452.05451.03029.03634-.01817.14537.04845.24833.15142.14537.13931.22411.17565.321.14537a.7881.7881,0,0,1,.19382-.03634c.03634.00605.15748.03028.27862.04845.19382.03029.23016.01211.36341-.16959.20594-.27862.30285-.51484.25439-.636a1.23882,1.23882,0,0,0-.51483-.5754.63118.63118,0,0,1-.26045-.23622A.26419.26419,0,0,0,9.04128,9.793a.502.502,0,0,1-.25439-.26045A2.13986,2.13986,0,0,0,8.581,9.19336a5.37985,5.37985,0,0,1-.33313-.60569,1.36028,1.36028,0,0,0-.33313-.50272c-.04845-.00606-.12113-.01212-.15748-.01817-.08479-.00606-.18776-.25439-.24227-.58147a1.1208,1.1208,0,0,0-.36947-.67837.52272.52272,0,0,1-.13931-.24833.34634.34634,0,0,0-.1272-.218.22359.22359,0,0,1-.09691-.218.89119.89119,0,0,0-.02423-.34524c-.03028-.1272-.07268-.28468-.08479-.35131s-.05451-.24227-.0848-.39369c-.03634-.15143-.06057-.29679-.06663-.32708,0-.02423-.04239-.03634-.09085-.01211-.13325.04845-.28467-.13931-.24833-.30285.02423-.09691-.01817-.18776-.16354-.33918a1.01849,1.01849,0,0,1-.27862-.66021c-.109-.642-.109-.64809-.33918-.72077-.24834-.07874-.36948-.23622-.46033-.57541a.6559.6559,0,0,0-.61172-.527A.37975.37975,0,0,0,3.91713,1.70093Z"/>
   <path class="a"
         d="M6.79417,20.32593A1.38338,1.38338,0,0,0,5.607,21.45858a.591.591,0,0,0,.06057.49666,4.34431,4.34431,0,0,1,.28468.61175c.19382.49667.19987.50878.38764.54512s.20593.06663.19382.30285a.428.428,0,0,0,.16354.38764.94264.94264,0,0,1,.218.38159,1.32337,1.32337,0,0,0,.37553.52089,2.69013,2.69013,0,0,0,.36342.315,2.2961,2.2961,0,0,1,.5754.39975.59375.59375,0,0,0,.22411.13931.65255.65255,0,0,1,.27862.30285c.13325.3089.3513.47244.89642.68443a1.2755,1.2755,0,0,1,.59358.35736c.09691.13931.16353.17565.26044.15142a.6925.6925,0,0,1,.55724.321.33667.33667,0,0,0,.27256.12719.59308.59308,0,0,1,.39976.212,1.19993,1.19993,0,0,0,.26044.212,2.35574,2.35574,0,0,1,.38159.31495,2.239,2.239,0,0,0,.87219.527c.29074.11508.62992.24833.745.29678a1.84421,1.84421,0,0,0,.3937.109c.40582.0424.99939.2665.99939.37553,0,.103.527.3937.848.47244a1.16714,1.16714,0,0,0,.59358.01211.61091.61091,0,0,1,.68443.19988c.07874.15142.20593.14536.35736-.00606.14536-.14536.26044-.15142.38764-.02423a.239.239,0,0,0,.19988.06057,5.73133,5.73133,0,0,1,1.44154,0,1.85216,1.85216,0,0,0,.92671-.03028,1.16108,1.16108,0,0,1,.43-.03634,1.68034,1.68034,0,0,0,.54512-.05452c.854-.31495,1.32041-.41187,1.52029-.321.06056.03028.16959-.01817.29678-.13325a1.37305,1.37305,0,0,1,.98728-.33313.85084.85084,0,0,0,.59963-.18171,1.06234,1.06234,0,0,1,.34525-.19381,2.16734,2.16734,0,0,0,.81768-.41187,1.95645,1.95645,0,0,1,.90248-.3089,1.92641,1.92641,0,0,0,.79951-.36343.68133.68133,0,0,1,.19988-.09691.4691.4691,0,0,0,.16959-.0848,3.05849,3.05849,0,0,1,.88431-.424.53872.53872,0,0,0,.27862-.07874,4.26176,4.26176,0,0,1,.59358-.2241,1.406,1.406,0,0,0,.48455-.218,1.15937,1.15937,0,0,1,.33313-.1817,2.002,2.002,0,0,0,.40581-.212.47792.47792,0,0,1,.33313-.103.18518.18518,0,0,0,.19383-.04846,2.92207,2.92207,0,0,1,.56329-.34523c.37553-.18776.54512-.24229.67837-.218a.23009.23009,0,0,0,.25439-.06662c.29073-.35736.3513-.39369.62386-.39369a.8739.8739,0,0,0,.72683-.27256c.109-.109.19382-.14538.27862-.12114.08481.03027.15748,0,.23016-.09086.09691-.12114.29075-.16959.72683-.19382.11509-.006.212-.03634.22411-.07268s.03634-.13931.05451-.23016a.274.274,0,0,1,.15748-.19988.15976.15976,0,0,0,.12114-.13325,1.744,1.744,0,0,0-.47244-.76923,2.36186,2.36186,0,0,0-1.702.23622,1.63389,1.63389,0,0,1-.50878.212,4.97613,4.97613,0,0,0-1.15687.49667,1.19058,1.19058,0,0,1-.315.07874.55627.55627,0,0,0-.29679.11508c-.12114.12113-.212.12113-.37553.00605-.12719-.08479-.15748-.08479-.44215.06057-.16354.0848-.30285.13931-.30285.11508a1.03836,1.03836,0,0,0-.32707.15143,1.4909,1.4909,0,0,1-.41793.18775,4.35129,4.35129,0,0,0-.69049.27862,4.06844,4.06844,0,0,0-1.15081.6178c-.15749.14537-.533.321-.58146.27257a.47529.47529,0,0,0-.218.06662.936.936,0,0,1-.38159.09691.39766.39766,0,0,0-.315.1272.24154.24154,0,0,1-.2665.09691c-.15749-.03029-.4361.06057-.4361.14536a2.22516,2.22516,0,0,1-.75712.23622c-.06662.00606-.21805.00606-.33313.00606a.54462.54462,0,0,0-.28467.06663.79878.79878,0,0,1-.33918.09085,9.80546,9.80546,0,0,1-1.69594-.00606.39641.39641,0,0,0-.36948.06663c-.109.09085-.22411.109-.49667.09691a5.08892,5.08892,0,0,1-1.05389-.1272,4.61686,4.61686,0,0,0-.49667-.09085A4.062,4.062,0,0,1,19.18042,26.28c0-.02423-.06057-.04846-.13326-.04846a4.89953,4.89953,0,0,1-2.17443-.30284,2.00044,2.00044,0,0,0-.48455-.212,2.5606,2.5606,0,0,1-.49061-.18776,1.36855,1.36855,0,0,0-.47244-.14537,1.16306,1.16306,0,0,1-.4541-.15754.93031.93031,0,0,0-.37552-.13931,1.33639,1.33639,0,0,1-.41793-.08479.95549.95549,0,0,0-.6602-.0424c-.15143.03634-.218-.01817-.33919-.24833-.09691-.19988-.15142-.24228-.24833-.212a1.48389,1.48389,0,0,1-.58147-.17565,2.50913,2.50913,0,0,0-.58146-.212,1.03328,1.03328,0,0,1-.43-.32707,2.57011,2.57011,0,0,0-.48455-.41793,2.512,2.512,0,0,1-.424-.33918,1.687,1.687,0,0,0-.43-.33313,1.45985,1.45985,0,0,1-.48455-.55118,6.79292,6.79292,0,0,0-.5209-.70866,1.13841,1.13841,0,0,1-.23016-.29679c0-.03029-.0424-.05451-.09085-.05451a.4264.4264,0,0,1-.22411-.15143.4423.4423,0,0,0-.19988-.15142.63953.63953,0,0,1-.212-.103.61623.61623,0,0,0-.26044-.109.236.236,0,0,1-.15143-.06663,1.18161,1.18161,0,0,0-.41792-.26044C7.18181,20.24719,6.994,20.28353,6.79417,20.32593Z"/>

</g>
</svg>
