<?xml version="1.0" encoding="UTF-8"?>
<svg xmlns="http://www.w3.org/2000/svg"
     version="1.1"
     width="30.33226337mm"
     height="32.53617012mm"
     viewBox="0.00000000 0.00000000 85.98115247 92.22849018">

<g transform="scale(6.49870772)">   <defs>
      <style type="text/css"><![CDATA[
      .a {
        stroke: #000;
        stroke-linecap: round;
        stroke-linejoin: round;
        stroke-width: 0.01px;
      }
    ]]></style>
   </defs>
   <path class="a"
         d="M8.43234.114a1.51353,1.51353,0,0,1-.64809.33919.20178.20178,0,0,0-.14536.103c-.06057.103-.44822.17565-1.272.23017a3.01266,3.01266,0,0,0-.49061.05451,1.9499,1.9499,0,0,1-.40581.06663,4.26572,4.26572,0,0,0-.56935.103,4.4988,4.4988,0,0,1-.47849.09086.71673.71673,0,0,0-.34525.109.664.664,0,0,1-.27862.12114.6353.6353,0,0,0-.27256.12719.169.169,0,0,1-.16959.0424.20256.20256,0,0,0-.17565.03634.64975.64975,0,0,1-.26045.103,1.819,1.819,0,0,0-.67231.24833.37422.37422,0,0,1-.23017.07874,1.476,1.476,0,0,0-.72077.6057.25629.25629,0,0,1-.14537.15142,1.61233,1.61233,0,0,0-.38158.41187,7.62225,7.62225,0,0,1-.52695.6178c-.30285.28468-.315.44216-.04846.61175.43.29073.86008.24228,1.79891-.19988.52089-.24227.60569-.2665.8843-.23016.28468.03634.3513.01211.86614-.24833a1.7058,1.7058,0,0,0,.62386-.424c.07874-.16959.20594-.2241.34525-.14536a.20117.20117,0,0,0,.13931.03028,3.20642,3.20642,0,0,1,.47244-.09085c.24833-.03634.50878-.07268.5754-.0848a1.042,1.042,0,0,0,.33317-.14546.8826.8826,0,0,1,.854-.03635,1.16982,1.16982,0,0,0,.77528.01212c.533-.09691.57541-.0848,1.06.2665a.76508.76508,0,0,1,.39976.75712c0,.23622-.03029.3513-.11509.43609a3.56288,3.56288,0,0,0-.31495.45427,1.17837,1.17837,0,0,1-.30285.36947.599.599,0,0,0-.20593.26651,2.03016,2.03016,0,0,1-.66626.76317c-.12114.09691-.34525.29073-.49061.424s-.34525.3089-.44216.3937a.70862.70862,0,0,0-.212.27256c-.06057.23016-.41793.5209-.99333.80557a1.65491,1.65491,0,0,0-.64809.44216,1.397,1.397,0,0,1-.527.37552,3.85939,3.85939,0,0,0-.57541.32708c-.26651.2241-.40581.321-.45427.321a.72754.72754,0,0,0-.16959.29073,2.25208,2.25208,0,0,1-.38159.53907,2.66852,2.66852,0,0,0-.636.82374c-.11509.218-.13326.29679-.07874.39976a.32872.32872,0,0,0,.11508.13325,4.543,4.543,0,0,0,1.7989-.03634,2.99033,2.99033,0,0,1,.848-.11509,1.47528,1.47528,0,0,0,.87825-.1817,1.22976,1.22976,0,0,1,.3937-.15748.776.776,0,0,0,.27256-.0848.25456.25456,0,0,1,.30284-.01211,1.79224,1.79224,0,0,0,1.20533-.06662c.18776-.11508.22411-.12114.6178-.0424a4.35827,4.35827,0,0,0,1.61114-.08479.81555.81555,0,0,1,.62386.109.71722.71722,0,0,1-.06662.36947c-.06663.16354-.16959.4361-.23622.60569a1.03783,1.03783,0,0,0-.09085.35736c.04239.07268-.19988.35736-.38159.44821a1.69682,1.69682,0,0,0-.29679.19988c-.07268.06057-.20593.16354-.30284.23016-.3513.25439-.44216.38159-.44216.62386,0,.212.02423.24834.18777.315.16353.07269.212.06057.43609-.06057a1.85676,1.85676,0,0,0,.35736-.24833.70918.70918,0,0,1,.212-.13931.55035.55035,0,0,0,.22411-.24227.61512.61512,0,0,1,.27862-.26651,1.73457,1.73457,0,0,0,.7026-.72683,2.38282,2.38282,0,0,1,.38764-.49666,1.40205,1.40205,0,0,0,.36341-.53907.68642.68642,0,0,1,.1696-.321.94455.94455,0,0,0,.34523-.46638.86473.86473,0,0,1,.18171-.315.675.675,0,0,0,.15142-.26044,3.42723,3.42723,0,0,1,.1393-.527,2.33336,2.33336,0,0,0,.12721-.86614c-.01213-.38765-.03029-.43-.23018-.636l-.2241-.2241-.70866.01211a4.84774,4.84774,0,0,1-1.65959-.06057.406.406,0,0,0-.30284.03028c-.13931.07269-.218.0848-.80557.12114a1.803,1.803,0,0,0-.51484.103c-.35736.14537-.9267.09691-.99333-.0848-.0424-.109.37553-.533.963-.97516.3513-.2665.533-.48455.4785-.57541-.07269-.11508.37552-.65414.53906-.65414a.482.482,0,0,0,.18776-.12114,9.15405,9.15405,0,0,0,.76318-.7874c.15141-.17565.38764-.43.52089-.5754a.817.817,0,0,0,.29679-.58147.9397.9397,0,0,1,.43-.79345.37831.37831,0,0,0,.212-.24834c.00606-.13325.03029-.33918.07874-.67837a7.14573,7.14573,0,0,0,.0424-.73894.35143.35143,0,0,0-.0848-.15143A3.06487,3.06487,0,0,1,11.95746.6652a1.44224,1.44224,0,0,0-.2604-.35736A.86492.86492,0,0,1,11.51531.1443a.22978.22978,0,0,0-.3937.00606A.34876.34876,0,0,1,10.629.17418a.34874.34874,0,0,1-.03431-.03593L10.47352.005l-.12115.13325c-.12718.13931-.27256.12719-.33313-.03029C9.989.02317,9.97079.02922,9.86783.13825,9.74063.2715,9.59527.26544,9.54076.114A1.73534,1.73534,0,0,0,8.43234.114ZM10.40689,1.277c.12114.02422.26651.04845.33313.06057.13326.02422.39976.18776.40582.25439a1.40679,1.40679,0,0,0,.03028.19382,2.15544,2.15544,0,0,1-.03634.848.649.649,0,0,0-.06057.24228,1.35485,1.35485,0,0,1-.49667.79951c-.39975.37553-.51483.32708-.53906-.2241A1.08674,1.08674,0,0,0,9.48019,2.658a1.09916,1.09916,0,0,1-.28468-.218c-.07874-.103-.20593-.13325-.69654-.17565-.32708-.03028-.64809-.06662-.70261-.07874a.88869.88869,0,0,0-.33313.03634,3.14805,3.14805,0,0,1-.38158.07269c-.0848.01211-.321.05451-.52695.09085-.212.03634-.55118.09691-.75712.1272a2.75117,2.75117,0,0,0-.47849.12113.62378.62378,0,0,1-.27256.06057,1.199,1.199,0,0,0-.4361.15748c-.26045.15143-.27862.15748-.50878.06663A.47724.47724,0,0,0,3.71406,2.882c-.315.11508-.69049.01211-.69049-.18777,0-.11508.19988-.24227.38159-.24227A1.084,1.084,0,0,0,3.817,2.33691a1.42833,1.42833,0,0,1,.47239-.14541.72729.72729,0,0,0,.35736-.12114c.15142-.13931.40581-.2241.49667-.16353a.22778.22778,0,0,0,.20592-.01212A4.82086,4.82086,0,0,1,7.08165,1.6585a5.12689,5.12689,0,0,0,1.06-.39975,2.82166,2.82166,0,0,1,1.08419-.04846C9.7588,1.2285,10.29181,1.25878,10.40689,1.277Z"/>

</g>
</svg>
