<?xml version="1.0" encoding="UTF-8"?>
<svg xmlns="http://www.w3.org/2000/svg"
     version="1.1"
     width="14.20399675mm"
     height="54.84200431mm"
     viewBox="0.00000000 0.00000000 40.26333846 155.45765725">

<g transform="scale(4.36982859)">   <defs>
      <style type="text/css"><![CDATA[
      .a {
        stroke: #000;
        stroke-linecap: round;
        stroke-linejoin: round;
        stroke-width: 0.01px;
      }
    ]]></style>
   </defs>
   <path class="a"
         d="M7.99406.13825a1.67558,1.67558,0,0,1-.62991.59358c-.04846,0-.09086.03028-.09086.06663,0,.03028-.09691.103-.218.15142s-.20593.109-.18776.12719c.02423.01817-.01817.14537-.09085.28468a3.54386,3.54386,0,0,1-1.169,1.12658.23218.23218,0,0,0-.15748.13326,4.90062,4.90062,0,0,1-.60569.67231c-.49667.49061-.56935.58752-.54512.72683a1.70074,1.70074,0,0,1-.50272.75712.78457.78457,0,0,0-.33313.68443.89566.89566,0,0,1-.24228.19382,1.52377,1.52377,0,0,0-.39976.44821,3.13539,3.13539,0,0,1-.41187.533,3.152,3.152,0,0,0-.41792.52089,1.80574,1.80574,0,0,1-.39976.44821,2.75509,2.75509,0,0,0-.35736.321.48887.48887,0,0,1-.24227.16353c-.23622.01818-.36948.103-.40582.24834-.03028.109-.12113.18776-.3089.27256L.005,8.733v.6602c0,.59358.01211.66626.11508.72683a.56332.56332,0,0,1,.22411.48455c0,.0848.01211.25439.01211.37553a.52456.52456,0,0,0,.1272.33313.60734.60734,0,0,1,.23016.60569c-.04846.11508-.03634.16354.06057.27862.18776.19988.25439.36947.19988.46638a1.27978,1.27978,0,0,0,.109.83586,1.42514,1.42514,0,0,1,.09691.70865.97693.97693,0,0,0,.09085.62387c.06663.13325.109.25439.09086.27256s.02423.11508.103.218c.11508.15748.12113.19987.06056.35735a.34172.34172,0,0,0,.02423.37553c.05451.103.0848.20594.06663.22411s.00605.109.05451.19988a.46747.46747,0,0,1,.05451.28467.437.437,0,0,0,.06663.28467c.05451.0848.0848.18171.06057.212-.01817.03634.01817.13931.08479.23016.11509.15748.12114.18776.0424.44821a.80647.80647,0,0,0,.00606.60569,2.44473,2.44473,0,0,0,.17565.44821.19926.19926,0,0,1,.02423.212.20121.20121,0,0,0,.006.19383.22757.22757,0,0,1-.006.2241c-.0424.0848-.03029.17565.03634.34525a.41019.41019,0,0,1,.03028.36947.3825.3825,0,0,0-.03634.218.23842.23842,0,0,1-.04845.18776c-.07269.103-.06663.17565.06662.54512a2.30282,2.30282,0,0,1,.13931,1.45972,1.76823,1.76823,0,0,0-.06662.3937V23.427a.47632.47632,0,0,0,.12113.321c.09086.09085.11509.16353.0848.23016a1.37055,1.37055,0,0,0-.05451.40581,1.15216,1.15216,0,0,1-.04846.37553.24737.24737,0,0,0,.04846.21805c.04845.07874.07268.16354.04845.18776a.9489.9489,0,0,0-.05451.35736.98462.98462,0,0,0,.1696.636c.15747.27256.17565.34524.11508.47244-.03635.07874-.09086.14536-.12114.14536-.03634,0-.00606.09086.06057.20594a.49793.49793,0,0,1,.06662.44215,1.7195,1.7195,0,0,0,.06057,1.04179c.103.14537.09691.16354-.103.53907a1.2672,1.2672,0,0,0-.17565.44215,3.07142,3.07142,0,0,1,.06057.44821,2.55756,2.55756,0,0,0,.09086.55724.31943.31943,0,0,1-.03634.3089,2.42656,2.42656,0,0,0-.3513,1.07207,1.61289,1.61289,0,0,0,.23016.87825,3.47939,3.47939,0,0,1,.48455.96911.28156.28156,0,0,0,.03634.19382.68464.68464,0,0,1,.06663.315c-.01817.20594.06662.321.32707.43a.40613.40613,0,0,1,.23016.19987,1.2055,1.2055,0,0,0,.67838.47244.48415.48415,0,0,1,.24227.09085.58063.58063,0,0,0,.22411.09086c.07268.01211.26045.04845.41793.07268.26044.04845.3089.03634.66626-.18171a1.8781,1.8781,0,0,1,.47244-.23016,4.292,4.292,0,0,0,.60569-.18777,5.419,5.419,0,0,1,1.00544-.321c.19988-.03028.57541-.35129.53907-.46638a.35409.35409,0,0,1,.09085-.25439.544.544,0,0,0,.11508-.39976.56486.56486,0,0,1,.06057-.33313c.07269-.0848.04846-.13931-.15142-.38159a6.075,6.075,0,0,0-.39976-.46032.6562.6562,0,0,1-.16959-.23016c0-.03029-.03634-.05452-.0848-.05452a2.67149,2.67149,0,0,1-.97516-.54512,1.49146,1.49146,0,0,0-.212-.33313.83174.83174,0,0,1-.18171-.33313.28507.28507,0,0,0-.09691-.18776.67056.67056,0,0,1-.2241-.46638c.01817-.04846-.06057-.19383-.1696-.33313a.69919.69919,0,0,1-.20593-.527,1.16612,1.16612,0,0,0-.07269-.39369,1.83124,1.83124,0,0,1-.04239-.6057c.01817-.2665.03028-.53906.03028-.60569a3.93872,3.93872,0,0,1,.09691-.44821.99754.99754,0,0,0,.02423-.5754,2.54738,2.54738,0,0,1-.06057-.35736c-.00606-.05451-.00606-.13931-.01211-.18171,0-.03634.01817-.212.03634-.37553a3.01013,3.01013,0,0,0,.02422-1.00544.36175.36175,0,0,1,.05452-.26045.62665.62665,0,0,0,.0848-.23007c-.00605-.03635-.01211-.46639-.00605-.71472,0-.04846-.01212-.33313-.02423-.62386-.01211-.39976.00606-.56935.07268-.6602a.95626.95626,0,0,0,.07874-.51484,2.21958,2.21958,0,0,1,.06663-.61175,1.624,1.624,0,0,0-.11508-1.1811c-.1272-.25439-.13931-.33918-.09086-.45427a.30133.30133,0,0,0,.03634-.19987.229.229,0,0,1,.02423-.1696,1.169,1.169,0,0,0,.09086-.37553,1.81956,1.81956,0,0,1,.12719-.59963c.01817-.03028-.00606-.12114-.05451-.19382a.778.778,0,0,1-.06663-.49061,2.89411,2.89411,0,0,1,.05452-.39976.51529.51529,0,0,0-.02423-.25439,4.33837,4.33837,0,0,1-.09086-.50878c-.01817-.16959-.04239-.38764-.06057-.48455a4.53361,4.53361,0,0,1-.04845-.51484,1.39723,1.39723,0,0,0-.07874-.45427.50962.50962,0,0,1-.0424-.27256,2.69577,2.69577,0,0,0,0-.66626,1.72041,1.72041,0,0,0-.0848-.45427.22942.22942,0,0,1-.01211-.2241.39066.39066,0,0,0-.03028-.321,1.59152,1.59152,0,0,1-.09086-.53906.69351.69351,0,0,0-.12719-.50273A.889.889,0,0,1,5.432,11.495a1.17665,1.17665,0,0,0-.18776-.46033c-.09086-.13325-.14537-.27256-.12114-.3089s-.01211-.109-.07874-.15748a1.123,1.123,0,0,1-.24833-.29073c-.11509-.18776-.12114-.218-.0424-.41187.07874-.18776.07874-.22411-.06057-.49667a1.45179,1.45179,0,0,1-.14537-.38764.426.426,0,0,0-.09085-.212,1.67768,1.67768,0,0,1-.1272-.51484,2.086,2.086,0,0,0-.08479-.49061c-.03029-.06057.03028-.24833.16959-.51484a1.81341,1.81341,0,0,0,.20594-.55117A1.71017,1.71017,0,0,1,5.22,5.78935a3.74837,3.74837,0,0,0,.79951-.89642.91853.91853,0,0,1,.72077-.40582c.18777,0,.26045-.04239.48456-.29679a2.04535,2.04535,0,0,1,.46032-.39369c.103-.05452.19382-.12114.19382-.14537a1.982,1.982,0,0,1,.27862-.33919c.18171-.19382.26651-.33313.24833-.40581a.27215.27215,0,0,1,.04846-.212.306.306,0,0,0,.04845-.212c-.01817-.05452.03635-.1696.11509-.24834.07268-.07268.13325-.16353.12113-.19382a1.36707,1.36707,0,0,1,.38159-.60569c.12719-.04845.11508-.321-.02423-.3937A.26442.26442,0,0,1,8.95859.69308L8.96923.67126c.04845-.09085.02422-.16354-.09086-.33919A1.0942,1.0942,0,0,1,8.727.05951C8.727.02923,8.57553.005,8.39382.005,8.1152.005,8.05463.02317,7.99406.13825Z"/>

</g>
</svg>
