<?xml version="1.0" encoding="UTF-8"?>
<svg xmlns="http://www.w3.org/2000/svg"
     version="1.1"
     width="21.66144136mm"
     height="56.44718382mm"
     viewBox="0.00000000 0.00000000 61.40248166 160.00779598">

<g transform="scale(3.95421040)">   <defs>
      <style type="text/css"><![CDATA[
      .a {
        fill: #000;
        stroke: #000;
        stroke-miterlimit: 1;
        stroke-width: 0.25px;
      }
    ]]></style>
   </defs>
   <path class="a"
         d="M10.28392.12278c4.0654.7763,4.5459,3.6655,4.7217,7.1919.1719,3.499.7051,7.6308.1553,11.164-.3252,2.0816-1.1143,4.1255-1.462,6.2476-.3164,1.9385-.76848,3.938-1.14348,5.8662a51.30286,51.30286,0,0,1-.93752,5.10988c-.2783.90871-1.6777,3.86131-2.4238,4.351-2.835,1.858-1.9502-5.86858-1.6065-7.19578a74.02071,74.02071,0,0,0,2.5059-11.8823,5.14375,5.14375,0,0,1,.1758-1.9443c.3193-.62362,1.3115-.3535,1.53712-1.4522.23138-1.12742-.97762-2.372-1.14362-3.4956a41.51066,41.51066,0,0,1-.1611-8.63282c1.97172.22712,3.4355-1.311,1.5879-2.76758-.7139-.56342-2.0235-.227-2.5205-1.0463-.6084-1.0064.31732-1.3917,1.2822-1.1348"/>
   <path class="a"
         d="M5.93232,7.50218c.74612.0029,1.504-.0103,2.2413.0288.33782,1.8017-1.0108,3.56538-1.253,5.27a22.257,22.257,0,0,1-.7998,4.5313c-.5176,1.5327-.8945,3.0034-1.5556,4.5512-.6416,1.503-.4737,3.0952-1.0909,4.5318-.3046.7114-1.8164,2.9873-2.8515,2.4873-.835-.4038-.3672-4.0694-.3672-4.9375a9.131,9.131,0,0,1,.9004-4.919c.9902-1.74072,1.0117-1.73.9922-3.9751-.0059-.62062-.002-1.2519.0273-1.8633a4.075,4.075,0,0,0,2.4024-.4355c.0644-1.3027.3916-5.1875,2.1103-5.0806"/>

</g>
</svg>
