<?xml version="1.0" encoding="UTF-8"?>
<svg xmlns="http://www.w3.org/2000/svg"
     version="1.1"
     width="104.33601470mm"
     height="70.49392907mm"
     viewBox="0.00000000 0.00000000 295.75561632 199.82528607">

<g transform="scale(4.29672568)">   <defs>
      <style type="text/css"><![CDATA[
      .a {
        stroke: #000;
        stroke-width: 0.25px;
      }
    ]]></style>
   </defs>
   <path class="a"
         d="M16.39867,9.47783c.8906-.375,1.8222-.6289,2.7246-.96971.9892-.374,1.832-1.207,2.915-1.32129.42382-.0449.84382-.0195,1.2705-.0986.5869-.1074,1.1631-.1602,1.7432-.294,1.0039-.2314,2.0137-.6005,3.0312-.7519.2403-.03521.462.0039.7022-.0488a4.50462,4.50462,0,0,1,.9141-.2198,6.86426,6.86426,0,0,0,.9277-.2519,3.389,3.389,0,0,1,2.20992.61029,8.61726,8.61726,0,0,1,.79108.61141.527.527,0,0,0,.2138.0488.47992.47992,0,0,1,.0694.1465c.1328.11329.2158.2666.3379.3818.3837.3613.88082.5537,1.1904.9922.5371.7656-.8877.7988-1.3008.7969q-.88917-.0045-1.7783-.002a3.8463,3.8463,0,0,0-1.4951.1211c-.3369.1436-.6172.377-.9668.5069a8.72614,8.72614,0,0,1-1.5879.4033,37.19158,37.19158,0,0,0-7.30568,2.4902,11.421,11.421,0,0,0-2.665,1.6406,2.62959,2.62959,0,0,1-2.59472.5948c-.7051-.3536-.6417-1.0791-.8702-1.7227-.205-.5762-.8398-1.0605-.7763-1.709C14.19457,10.43293,15.61247,9.80993,16.39867,9.47783Z"/>
   <path class="a"
         d="M16.87717,18.61363c-.1328-1.3867,1.2598-1.5557,2.3027-1.6817.7998-.0976,1.5645-.1699,2.3858-.1894.9677-.02341,1.9355-.0498,2.9043-.0498a9.44366,9.44366,0,0,1,1.41012-.0039,5.79806,5.79806,0,0,1,.99608.32029,5.885,5.885,0,0,0,1.0586.22361,5.10043,5.10043,0,0,1,1.4121.3555c.2891.1465.5274.3428.8018.4961a3.69664,3.69664,0,0,1,.9297.8984c.1923.2188.09272.0948.3525.2012a1.73036,1.73036,0,0,1,.6123.3955,1.97874,1.97874,0,0,1,.1152,2.749c-1.1357,1.0508-2.6279-.4511-3.6484-.9228a5.15263,5.15263,0,0,0-2.3193-.2959c-.9082.0049-1.8164,0-2.72458,0q-1.27593,0-2.55182,0c-.8506.001-1.6904.0986-2.3174-.5528C17.94947,19.886,16.98267,19.73573,16.87717,18.61363Z"/>
   <path class="a"
         d="M19.73457,32.52283a29.58617,29.58617,0,0,1-2.5078,2.1621c-.4365.3301-.8076.6924-1.22168,1.0566-.70412.6221-1.47462,1.1719-2.15042,1.8135a40.20683,40.20683,0,0,1-6.4101,5.0996c-.7168.4424-1.4707.85249-2.1953,1.29-1.49518.9034-3.2373,2.2227-5.042,2.4141.0966-.2061.5566-.4092.7822-.5547.3262-.21091.5547-.4648.8408-.6836.4356-.331.9502-.5898,1.3867-.9238.628-.47951,1.33212-.9424,1.9317-1.501.625-.582,1.1328-1.2607,1.7812-1.8183a17.22725,17.22725,0,0,0,2.2354-2.1475,11.68324,11.68324,0,0,1,1.6543-1.7568c.5966-.4864,1.0996-1.0928,1.7119-1.5538a8.04712,8.04712,0,0,0,1.6269-1.3613c.5938-.7217,1.2422-1.3867,1.8584-2.0781.5987-.6729,1.1006-1.4268,1.7139-2.0879,2.1611-2.3281,3.7441-5.08981,5.9141-7.4355.6201-.67,1.4824-1.8018,2.4179-1.9395,1.334-.1963,5.794.7734,3.7403,2.6758a13.86178,13.86178,0,0,1-1.4385,1.1181C25.09009,26.62733,22.60077,29.78553,19.73457,32.52283Z"/>
   <path class="a"
         d="M51.178.36263c-.5381-.5088-1.4424-.2217-1.6856,1.0664-.626,3.29009-1.3838,7.4277-3.1347,10.3076a52.70242,52.70242,0,0,1-5.8321,8.3096c-.6416.7031-1.1797,1.4902-1.7568,2.2451-1.2031,1.5703-2.0176,2.6416-1.9658,4.7373.0713,2.9043,1.4433,4.8858,4.3193,5.5039a18.75168,18.75168,0,0,0,3.8496.1094,30.60175,30.60175,0,0,0,5.3428-.4277c.7705-.1367,2.7939-.2354,3.23142-.9805a9.114,9.114,0,0,0-2.22462-.0215,28.19492,28.19492,0,0,1-6.44038.124c-1.63092-.2519-2.87892-.4423-4.00682-1.7578a3.9933,3.9933,0,0,1,.0097-5.73431,43.63279,43.63279,0,0,0,8.4444-13.85549c.4873-1.3223.72072-2.6514,1.1064-3.999a24.17821,24.17821,0,0,0,1.1436-4.21A1.69027,1.69027,0,0,0,51.178.36263Z"/>
   <path class="a"
         d="M51.92887,24.74833c-1.7236.92,2.004,3.5489,2.8028,4.21779a13.43886,13.43886,0,0,0,2.9287,1.78621,17.07953,17.07953,0,0,0,7.80372,1.8896c.89748,0,2.29688.2373,3.02638-.3789.6621-.5605-.3623-.6172-.7657-.6113a17.62238,17.62238,0,0,1-7.623-2.1944,38.52806,38.52806,0,0,1-3.6465-2.0088c-1.3174-.8925-1.956-3.31441-3.9141-2.9062A2.29506,2.29506,0,0,0,51.92887,24.74833Z"/>
   <path class="a"
         d="M48.50217,13.60973c-.7276-.01661-1.3496-.4024-.919-1.2344.212-.40821,1.04692-.5625,1.4561-.6455a14.75259,14.75259,0,0,1,2.7812-.1006c.501,0,1.004-.0049,1.5059-.001.9785.0078,1.88572-.2256,2.875-.2177,2.4785.0175,5.2441-.667,7.67972-.0967a3.86732,3.86732,0,0,1,.01758.8301c-.0489.5966-.1631.6435-.6651.9394-.2568.1514-.1894.249-.541.3213a4.06283,4.06283,0,0,1-.7119-.0146c-.498-.004-1.0293-.0508-1.5244-.00491-2.0918.19331-4.2334.22461-6.3447.22461C52.24337,13.60973,50.37037,13.65073,48.50217,13.60973Z"/>
   <path class="a"
         d="M59.16617,5.90953c-.0283.4062.42.9033.629,1.2373.29192.4668.5136.915.8076,1.3808a6.8736,6.8736,0,0,0,1.1494,1.48249,7.84018,7.84018,0,0,1,.9873,1.37791,6.3728,6.3728,0,0,1,.9131,1.1436,3.88629,3.88629,0,0,0,.792,1.1943,2.504,2.504,0,0,0,2.3037.7471c.1123-.4288-.417-1.0801-.6514-1.3877a18.18329,18.18329,0,0,1-1.13278-1.626,10.60491,10.60491,0,0,0-1.06932-1.4561,17.5569,17.5569,0,0,1-1.1006-1.6797,6.91118,6.91118,0,0,0-.78908-1.1796c-.15822-.1416-.30082-.3477-.42772-.46781-.086-.07809-.2432-.13669-.3184-.23149-.12888-.1601-.2363-.3623-.3594-.51951-.3281-.41989-.8584-.93549-1.3789-.60249-.25.1601-.7343.8134-.1337.8066"/>

</g>
</svg>
