<?xml version="1.0" encoding="UTF-8"?>
<svg xmlns="http://www.w3.org/2000/svg"
     version="1.1"
     width="26.47429483mm"
     height="43.05820188mm"
     viewBox="0.00000000 0.00000000 75.04532346 122.05473320">

<g transform="scale(5.77949253)">   <defs>
      <style type="text/css"><![CDATA[
      .a {
        stroke: #000;
        stroke-linecap: round;
        stroke-linejoin: round;
        stroke-width: 0.01px;
      }
    ]]></style>
   </defs>
   <path class="a"
         d="M4.45683.0578a1.16438,1.16438,0,0,1-.59358.29073C3.73.30613,3.36659.62109,3.23333.89971a1.80375,1.80375,0,0,0-.109,1.10236.964.964,0,0,1,.05451.25439c.00606.16959.51484.64809.75711.71471.49667.13931.82374.87826.53907,1.24167-.09691.1272-.103.18171-.04846.38764a1.07967,1.07967,0,0,1,.04846.29073.37888.37888,0,0,0,.06663.18777.96609.96609,0,0,1,.07874.38158,1.82431,1.82431,0,0,0,.07268.44821,2.22406,2.22406,0,0,1-.07874,1.22956.23039.23039,0,0,0,.02423.27862.35952.35952,0,0,1,.03634.36341.82015.82015,0,0,0,.00605.4361.91417.91417,0,0,1,.01212.38158,1.59764,1.59764,0,0,0,0,.642c.01817.09691.0424.27256.06057.38158a.36418.36418,0,0,1-.36947.4361,11.9641,11.9641,0,0,0-1.68383.13325,3.67191,3.67191,0,0,1-.92065.13325A1.8249,1.8249,0,0,0,1.071,10.518c-.15143.0848-.30285.13931-.33919.11508-.03634-.01817-.07874.00606-.09691.06057a.93452.93452,0,0,1-.33313.24834l-.29681.1454v.5209c0,.49666.00606.52695.18776.7026.15748.16354.22411.18776.51484.18171a.63.63,0,0,0,.58752-.24228c.24228-.218.29073-.23622.71472-.27256a2.38442,2.38442,0,0,1,.65416.0182.677.677,0,0,0,.32708.01211,3.59224,3.59224,0,0,1,1.92.26045.576.576,0,0,1,.00605.642.587.587,0,0,0-.11508.27256,2.20338,2.20338,0,0,1-.218.59358,2.02193,2.02193,0,0,0-.19987.54512,2.01954,2.01954,0,0,1-.36948.88431.6086.6086,0,0,0-.14536.29679.806.806,0,0,1-.0848.33313,3.01315,3.01315,0,0,0-.16959,1.0963c-.01212.19988-.03029.38764-.03634.424a1.80946,1.80946,0,0,0,.30284.86008,4.537,4.537,0,0,1,.27862.47244,1.1088,1.1088,0,0,0,.321.37552c.55723.41187.91459.86614.91459,1.169,0,.27862.49061.70866.72683.636a4.2429,4.2429,0,0,1,.52089-.06057c.36342-.02422.44821-.006.62992.11509a.82233.82233,0,0,0,.854.12113.99736.99736,0,0,0,.48455-.36947,1.01444,1.01444,0,0,1,.24228-.26045,1.27371,1.27371,0,0,0,.01211-.47243c-.01817-.25439-.03029-.49667-.03029-.527a1.01972,1.01972,0,0,1,.13326-.47849.42044.42044,0,0,0,.06059-.2302.45474.45474,0,0,1,.1393-.30891c.18171-.16959.30285-.38764.2544-.47244-.02423-.03028.00605-.13325.06662-.2241a1.00114,1.00114,0,0,0,.12114-.4361c.01211-.15142.03634-.35736.05451-.45427.0424-.19987.13325-.854.18777-1.3628A.62561.62561,0,0,0,9.7324,14.879a.92091.92091,0,0,1-.15748-.3513.80289.80289,0,0,0-.09086-.28468c-.04845-.09691-.07268-.18776-.05451-.20593A6.7,6.7,0,0,0,8.412,13.02564c-.02423,0-.0848-.07874-.13931-.1817-.08479-.1696-.08479-.18777.03634-.30891.07874-.07874.15748-.109.22411-.07874a.54486.54486,0,0,0,.4785-.04845,1.86543,1.86543,0,0,1,.49061-.14537l.40581-.07874.47244.218a2.27221,2.27221,0,0,1,.61174.38764c.103.12114.16354.14537.23622.103a.23342.23342,0,0,1,.218.01212.94033.94033,0,0,0,.8298-.103c.37553-.19988.33919-.16959.36341-.3513a.54249.54249,0,0,1,.07269-.23016.54813.54813,0,0,0,.06057-.26045,2.00582,2.00582,0,0,1,.18776-.745.29264.29264,0,0,0-.03028-.26651c-.05452-.09691-.07874-.18776-.06057-.20593.06662-.07268-.28468-.4361-.45427-.47244a1.0019,1.0019,0,0,1-.34525-.18171,2.10711,2.10711,0,0,0-1.82918-.218.80659.80659,0,0,1-.36342.00606c-.12113-.06662-.3089-.03634-.69048.09691-.27257.09691-.315.09691-.46033.01212a.29283.29283,0,0,0-.23622-.04846A4.24945,4.24945,0,0,1,7.4065,9.90639a.76069.76069,0,0,1-.321-.15748c-.11508-.11509-.11508-.12114.07268-.45427A.78477.78477,0,0,0,7.31569,8.695a.54532.54532,0,0,1,.05451-.37552c.109-.14537.103-.29074-.01211-.50879a.71914.71914,0,0,1-.0424-.49666A1.08192,1.08192,0,0,0,7.243,6.6356a1.497,1.497,0,0,1-.09086-.76922c.0424-.5209.03635-.51484.636-.642a.78288.78288,0,0,0,.60569-.64809,1.72327,1.72327,0,0,0-.01817-.854,1.38976,1.38976,0,0,1-.06057-.46638.74383.74383,0,0,0-.18776-.60569,2.448,2.448,0,0,1-.26651-.424c-.03634-.09085-.09085-.16353-.11508-.16353a.916.916,0,0,1-.20593-.315A1.91669,1.91669,0,0,0,6.15882.60292,4.52392,4.52392,0,0,1,5.438.26979C5.06858.04569,4.54163-.0694,4.45683.0578Zm3.17382,12.241c.38159.19382.36341.39975-.04846.56934-.2665.103-.39975.07874-.49061-.09085a.51666.51666,0,0,1,.16354-.527c.1272-.09083.103-.09689.37553.04848ZM6.7948,14.92146c.01817.13931.04845.6178.04845.81162,0,.109.03029.19988.06057.19988.103,0,.32707.43.34524.6602.01212.12114.01818.23622.01818.25439a1.919,1.919,0,0,0,.18776.26651c.19382.24833.20593.48455.02423.6178-.15143.109-.24834.03634-.46033-.35735a3.03,3.03,0,0,0-.49061-.65415,3.49717,3.49717,0,0,1-.43-.51484l-.13329-.218.16959-.52695c.19382-.5754.3513-.77528.53907-.67837C6.73423,14.81849,6.7948,14.87906,6.7948,14.92146Z"/>

</g>
</svg>
