<?xml version="1.0" encoding="UTF-8"?>
<svg xmlns="http://www.w3.org/2000/svg"
     version="1.1"
     width="20.62668341mm"
     height="43.11666174mm"
     viewBox="0.00000000 0.00000000 58.46935533 122.22043508">

<g transform="scale(4.36982859)">   <defs>
      <style type="text/css"><![CDATA[
      .a {
        stroke: #000;
        stroke-linecap: round;
        stroke-linejoin: round;
        stroke-width: 0.01px;
      }
    ]]></style>
   </defs>
   <path class="a"
         d="M9.17521.15642A.52846.52846,0,0,1,8.88447.3563a.43443.43443,0,0,0-.29073.2665,2.76264,2.76264,0,0,1-.957.88431.9073.9073,0,0,0-.36341.37553,2.38717,2.38717,0,0,1-.315.4361c-.1696.16354-.20594.3937-.1696.96305a.60914.60914,0,0,1-.15748.35736c-.15142.1817-.16959.24227-.17565.75105a1.83051,1.83051,0,0,1-.109.73289.3008.3008,0,0,0-.03029.29679.49844.49844,0,0,1,0,.35736,4.51817,4.51817,0,0,0,.06056,1.60508.55518.55518,0,0,1,.02423.44215.45451.45451,0,0,0,.0424.41793c.103.16959.103.18776.00606.37553a1.95724,1.95724,0,0,0-.12114.77528c-.00606.315-.01816.62992-.02423.69655a1.12437,1.12437,0,0,0,.06668.34524.6363.6363,0,0,1-.09086.62386c-.07874.109-.14536.12114-.64808.103A1.77729,1.77729,0,0,1,4.7234,10.968c-.36947-.18777-.45427-.30285-.35736-.48456A.52441.52441,0,0,0,4.36,10.108a1.95739,1.95739,0,0,1-.01817-.87826,2.816,2.816,0,0,0-.09694-1.19929,2.2914,2.2914,0,0,1-.05451-.72683,1.81527,1.81527,0,0,0-.0424-.315.52189.52189,0,0,1,.07875-.3937.64533.64533,0,0,0,.09691-.3513c-.01212-.0848-.03029-.35736-.04845-.60569-.01212-.24834-.0424-.59358-.06058-.75712-.01817-.16959-.0424-.39975-.05452-.51483a2.13045,2.13045,0,0,0-.03634-.27257.85263.85263,0,0,1,.0424-.30284A4.49738,4.49738,0,0,0,4.01471,1.8402a.771.771,0,0,1-.00606-.56935.95127.95127,0,0,0-.15746-.6117A.39887.39887,0,0,0,3.60888.51984c-.218-.0424-.35131.07268-.69656.61175a1.15931,1.15931,0,0,1-.41793.44821.40351.40351,0,0,0-.2241.19382,1.2892,1.2892,0,0,1-.23622.34524,5.67583,5.67583,0,0,0-.35736.47244,1.02177,1.02177,0,0,1-.38764.36947.78073.78073,0,0,0-.37553.38764A1.33034,1.33034,0,0,1,.429,3.85719C.03529,4.1237.005,4.16.01106,4.39626c0,.09691-.00606.22411-.00606.27256a.80732.80732,0,0,0,.03635.24228,6.37446,6.37446,0,0,1,.05452.87825,6.42984,6.42984,0,0,0,.07874.96305A.64761.64761,0,0,1,.211,7.04313a.92373.92373,0,0,0,.09692.38158c.103.26045.1151.34529.06059.45429a.16589.16589,0,0,0,.01211.22411c.0848.103.0848.12719.13325,1.5748a5.89011,5.89011,0,0,0,.0848,1.02967,1.04285,1.04285,0,0,1,.03634.43,1.04319,1.04319,0,0,0,.03634.43A1.71341,1.71341,0,0,1,.75,12.00974a1.1585,1.1585,0,0,0,.11509.46638c.09085.13325.09085.16353.01211.321a1.87529,1.87529,0,0,0,.03634,1.07813.23063.23063,0,0,1-.00606.24834c-.04845.103-.04239.18776.03029.38764a.513.513,0,0,1,.03634.424A.50638.50638,0,0,0,.956,15.232a2.90053,2.90053,0,0,1,.103.76317,10.73208,10.73208,0,0,1,.03028,2.06541.49577.49577,0,0,0,.03029.36341.5586.5586,0,0,1,.006.49061.86977.86977,0,0,0-.03634.39976,24.144,24.144,0,0,1-.02423,2.877.6498.6498,0,0,0,.02423.38159.33046.33046,0,0,1-.03028.34524,2.76477,2.76477,0,0,0-.1272,1.0115,4.46456,4.46456,0,0,0,0,1.09025,1.8308,1.8308,0,0,0,.4421,1.10244,1.556,1.556,0,0,1,.2665.33918,4.95639,4.95639,0,0,0,.91459.94488,1.32312,1.32312,0,0,0,.66021.24833c.218.03029.52695.18171.55723.28468.01817.04845.07268.02423.15747-.06057A.25877.25877,0,0,1,4.2085,27.782c.29679.07268.87825-.3937,1.12053-.90248a.87955.87955,0,0,1,.6178-.52695c.218,0,.3513-.25439.38764-.75711.07269-.848.09086-.79346-.47243-1.33253a2.73621,2.73621,0,0,1-.58147-.69654c-.0424-.11508-.11508-.30286-.16353-.41794a.75373.75373,0,0,1-.05452-.36947,1.2226,1.2226,0,0,0-.01817-.41187c-.0424-.18171-.03634-.27862.01817-.35736.06663-.09085.06057-.1393-.01817-.29073a1.508,1.508,0,0,1-.11508-.45427,11.01147,11.01147,0,0,0-.16353-1.25983,2.71457,2.71457,0,0,1-.04846-.69655,2.52514,2.52514,0,0,0,.02423-.58752c-.00606-.24833-.02423-.71471-.0424-1.02967-.01211-.315-.03633-.66021-.05451-.75712a1.5929,1.5929,0,0,1-.00606-.636c.01211-.01817,0-.07268-.03028-.12114a.20121.20121,0,0,1,.00605-.19382.23956.23956,0,0,0-.00605-.23016,1.30285,1.30285,0,0,1-.09086-.39976c-.04845-.46638.26651-.83585,1.04785-1.22955.29679-.15143.40581-.17565.49666-.1272.13931.07269.16354.16354.17565.66626a3.39038,3.39038,0,0,0,.09691.69655,5.85108,5.85108,0,0,1,.18777,1.30223,2.64734,2.64734,0,0,0,.09085.61175.34971.34971,0,0,1,0,.24833,2.79365,2.79365,0,0,0,.11508,1.31435.20013.20013,0,0,1-.00605.19382,1.87,1.87,0,0,0,0,.89643.19649.19649,0,0,1,0,.19988.23429.23429,0,0,0,.01211.24227,2.69091,2.69091,0,0,1,.14537,1.01756,8.15691,8.15691,0,0,1,.02422.93882,4.32313,4.32313,0,0,0,.02423.57541.84535.84535,0,0,1-.02423.37553c-.03634.06057-.03028.11508.00606.13931.12114.07268.29679.49061.24228.5754A.24737.24737,0,0,0,7.134,24.166a5.546,5.546,0,0,0,.58146,1.09631.346.346,0,0,1,.12114.18776,1.076,1.076,0,0,0,.212.321.93578.93578,0,0,1,.19382.27861c0,.03029.109.11508.24228.18171a1.26362,1.26362,0,0,1,.38158.33313.91968.91968,0,0,0,1.24167.38159,1.43734,1.43734,0,0,1,.4785-.11509c.09692.01212.19987-.07268.38159-.3089a2.186,2.186,0,0,1,.50877-.46032c.56935-.321,1.169-.80557,1.10843-.90248a.42045.42045,0,0,1,.04845-.23622.5607.5607,0,0,1,.3513-.30285c.28468-.11508.30285-.15142.38159-.69049.03028-.19987,0-.24227-.39976-.64808a6.12026,6.12026,0,0,0-.77528-.66021,5.71073,5.71073,0,0,1-.49667-.36341c-.0848-.07269-.2665-.23622-.41187-.36342-.28467-.24833-.58752-.70866-.52695-.80557a.293.293,0,0,0-.03634-.19987,2.84112,2.84112,0,0,1-.19988-1.01756,1.03971,1.03971,0,0,0-.18171-.58753,1.16016,1.16016,0,0,1-.19382-.66626,7.78324,7.78324,0,0,0-.13931-1.13264.93924.93924,0,0,1,0-.45427.3973.3973,0,0,0-.01211-.321c-.03634-.09691-.05451-.18777-.03634-.20594a.37252.37252,0,0,0-.03029-.2241,2.56989,2.56989,0,0,1-.07874-1.41126.764.764,0,0,0,.04846-.41187.43274.43274,0,0,1-.02423-.20594.96477.96477,0,0,0-.05451-.28467.36.36,0,0,1,.01211-.34525,1.07768,1.07768,0,0,0,.0848-.38158,7.92885,7.92885,0,0,1,.15142-1.67171,8.79242,8.79242,0,0,0,.11508-1.49606,2.23825,2.23825,0,0,1,.02423-.44215,1.09133,1.09133,0,0,1,.09691-.35736.29953.29953,0,0,0,0-.30284.322.322,0,0,1-.03028-.23622,1.2662,1.2662,0,0,0-.05452-.43,1.26445,1.26445,0,0,1-.06056-.45427.92655.92655,0,0,0-.103-.4361c-.13325-.32707-.13325-.34524-.03634-.51484a.323.323,0,0,0,.05451-.27861,1.20029,1.20029,0,0,1-.03029-.4361,3.90323,3.90323,0,0,0-.01211-.93882,1.966,1.966,0,0,1,.02423-.92671,1.14884,1.14884,0,0,0-.09086-.8298.441.441,0,0,1-.02422-.36341.93664.93664,0,0,0,.01817-.38159.82427.82427,0,0,1,.06662-.38158c.0848-.212.09086-.26045.01212-.36947-.06663-.09086-.07874-.24228-.05452-.58752A1.859,1.859,0,0,0,9.91416.67126,1.68544,1.68544,0,0,1,9.81724.29573c0-.12719-.22411-.29073-.40581-.29073A.3365.3365,0,0,0,9.17521.15642Z"/>

</g>
</svg>
