<?xml version="1.0" encoding="UTF-8"?>
<svg xmlns="http://www.w3.org/2000/svg"
     version="1.1"
     width="30.07609367mm"
     height="34.98066074mm"
     viewBox="0.00000000 0.00000000 85.25505398 99.15771770">

<g transform="scale(4.33733094)">   <defs>
      <style type="text/css"><![CDATA[
      .a {
        stroke: #000;
        stroke-linecap: round;
        stroke-linejoin: round;
        stroke-width: 0.01px;
      }
    ]]></style>
   </defs>
   <path class="a"
         d="M14.44389.137c-.078.114-.15.126-.708.15a2.482,2.482,0,0,0-.696.084c-.102.084-.36.114-1.086.138-.51.018-.63.036-.768.15a.69093.69093,0,0,1-.396.126,1.902,1.902,0,0,0-.246.006,7.89674,7.89674,0,0,1-1.086.144,2.14409,2.14409,0,0,0-.528.09.658.658,0,0,1-.432.006,3.54085,3.54085,0,0,0-.786-.036,1.60962,1.60962,0,0,1-.678-.06.52445.52445,0,0,0-.456-.006,1.60226,1.60226,0,0,1-.432.084,2.90274,2.90274,0,0,0-.906.12.21834.21834,0,0,1-.21.006.44805.44805,0,0,0-.294.006.85975.85975,0,0,1-.342.024.599.599,0,0,0-.378.09,1.0251,1.0251,0,0,1-.828.072c-.174-.054-.234-.042-.432.084a.93491.93491,0,0,0-.294.264,1.4627,1.4627,0,0,1-.36.3,1.2538,1.2538,0,0,0-.36.294.83243.83243,0,0,1-.51.336,1.60336,1.60336,0,0,0-.648.336,3.7322,3.7322,0,0,0-.378.372,1.18146,1.18146,0,0,0-.186.846c.072.288.678.354.822.096a.89888.89888,0,0,1,.984-.246,4.10443,4.10443,0,0,0,1.404-.042.94959.94959,0,0,1,.366-.066,1.31478,1.31478,0,0,0,.486-.12c.174-.09.264-.108.348-.06a.37012.37012,0,0,0,.33-.03,1.92607,1.92607,0,0,1,.594-.084.97194.97194,0,0,0,.546-.096.4071.4071,0,0,1,.282-.072.39532.39532,0,0,0,.258-.042,2.49434,2.49434,0,0,1,.846-.066,4.8537,4.8537,0,0,0,1.248-.102,2.30487,2.30487,0,0,1,.618-.084,1.083,1.083,0,0,0,.372-.024,19.67174,19.67174,0,0,1,2.232-.144,1.93365,1.93365,0,0,0,.636-.078,2.997,2.997,0,0,1,.72-.102c.78-.048,1.26-.084,1.554-.126a1.93182,1.93182,0,0,1,.39-.03,5.36576,5.36576,0,0,0,1.2-.06c.138-.072.288.042.354.27.048.174,0,.342-.21.768a.4008.4008,0,0,0-.048.24,3.517,3.517,0,0,1-.474,1.074,1.91569,1.91569,0,0,1-.366.402,1.553,1.553,0,0,0-.348.426,2.71377,2.71377,0,0,1-.972.846c-.084.042-.156.096-.156.12a2.39006,2.39006,0,0,1-.714.474c-.036,0-.066.024-.066.048a2.49294,2.49294,0,0,1-.846.582,1.74622,1.74622,0,0,0-.396.21.553.553,0,0,1-.252.12,1.70822,1.70822,0,0,0-.336.102,3.08193,3.08193,0,0,1-.852.108c-.552.012-.642.03-.84.168a1.019,1.019,0,0,1-.588.168,1.10258,1.10258,0,0,0-.594.162,1.002,1.002,0,0,1-.564.15,2.77741,2.77741,0,0,0-1.626.678.66376.66376,0,0,1-.624.348c-.144-.03-.216.012-.528.318a5.72449,5.72449,0,0,0-1.134,1.272.66177.66177,0,0,1-.204.27c-.198.192-.378.582-.306.69a.52615.52615,0,0,1-.09.3,1.13,1.13,0,0,0-.12.348.46393.46393,0,0,1-.084.228,1.92779,1.92779,0,0,0-.078.762c0,.51-.018.672-.102.804a.51065.51065,0,0,0-.06.438,1.66931,1.66931,0,0,1,.036.366c-.012.048-.03.264-.048.48a2.13136,2.13136,0,0,1-.084.48,3.61663,3.61663,0,0,0,.018,1.248,1.37417,1.37417,0,0,1,.072.486.88028.88028,0,0,0,.144.588,3.02767,3.02767,0,0,1,.318,1.152.89063.89063,0,0,0,.144.354,1.20152,1.20152,0,0,1,.18.366,1.88756,1.88756,0,0,0,.336.816,3.9014,3.9014,0,0,1,.288.318.87389.87389,0,0,0,.36.258,1.74072,1.74072,0,0,1,.33.144,2.50639,2.50639,0,0,0,2.16.108.88284.88284,0,0,0,.216-.276.57077.57077,0,0,1,.24-.252.4041.4041,0,0,0,.204-.276.99854.99854,0,0,1,.216-.372.65467.65467,0,0,0,.174-.246c0-.12-.222-.426-.63-.846-.222-.234-.444-.48-.492-.552a1.83973,1.83973,0,0,1-.138-.888,2.51083,2.51083,0,0,0,.006-.36c0-.066,0-.204.006-.3a3.35425,3.35425,0,0,0-.306-1.494,9.08167,9.08167,0,0,1-.324-2.586,4.39188,4.39188,0,0,0-.078-.96,2.33856,2.33856,0,0,1-.138-.522,1.30778,1.30778,0,0,1,.03-.75c.102-.348.306-.618.474-.618a1.91617,1.91617,0,0,0,.786-.528.70789.70789,0,0,1,.306-.222,2.96046,2.96046,0,0,0,.678-.186,1.80392,1.80392,0,0,1,.42-.108,2.70257,2.70257,0,0,0,1.134-.426,3.596,3.596,0,0,1,.9-.36,2.42554,2.42554,0,0,0,1.056-.348,3.273,3.273,0,0,1,.642-.258,1.201,1.201,0,0,0,.39-.162c.126-.072.27-.162.324-.192.096-.06.456-.324,1.284-.942a3.745,3.745,0,0,1,.672-.402,1.77448,1.77448,0,0,0,.45-.264,9.26766,9.26766,0,0,1,1.122-.822,1.5655,1.5655,0,0,0,.426-.336,1.589,1.589,0,0,1,.486-.594.40445.40445,0,0,0,.174-.204,1.11827,1.11827,0,0,1,.33-.366,1.37674,1.37674,0,0,0,.54-1.014,1.33021,1.33021,0,0,1,.138-.612,2.34615,2.34615,0,0,0,.162-1.548c-.06-.186-.144-.312-.216-.336a.40146.40146,0,0,1-.18-.168c-.036-.072-.204-.312-.372-.54l-.306-.402h-1.782C14.55189.005,14.5279.005,14.44389.137Z"/>
   <path class="a"
         d="M17.6779,12.269a2.805,2.805,0,0,0-.996,1.02,2.56845,2.56845,0,0,0-.216.696,3.3641,3.3641,0,0,1-.114.372,5.34307,5.34307,0,0,0-.156.54c-.03.144-.078.354-.108.468a1.57066,1.57066,0,0,0,0,.504.87433.87433,0,0,1-.036.48,1.36029,1.36029,0,0,0-.09.366c-.006.096-.018.246-.03.324a1.03966,1.03966,0,0,0,.06.354.5672.5672,0,0,1,.012.384.68878.68878,0,0,0,.006.426,1.38428,1.38428,0,0,1,.06.402,2.7244,2.7244,0,0,0,.06.528,1.25987,1.25987,0,0,1,.036.432.5221.5221,0,0,0,.09.294,1.28948,1.28948,0,0,1,.12.312.22962.22962,0,0,0,.09.138.35057.35057,0,0,1,.114.186c.138.672.174.732.666,1.074a.88058.88058,0,0,1,.258.336,2.292,2.292,0,0,0,.996.834c.348.15.354.15.666.036.306-.12.54-.45.474-.684a.71538.71538,0,0,1-.03-.228.80945.80945,0,0,0-.144-.294.81206.81206,0,0,1-.15-.336.95471.95471,0,0,0-.174-.366,2.26125,2.26125,0,0,1-.396-.888.59257.59257,0,0,0-.096-.3.52993.52993,0,0,1-.054-.516,1.27791,1.27791,0,0,0,.03-.546c-.024-.156-.048-.348-.06-.432-.006-.084-.018-.18-.024-.216a1.23424,1.23424,0,0,0-.186-.33c-.21-.312-.216-.42-.054-.906a1.67776,1.67776,0,0,0,.084-.798,1.76418,1.76418,0,0,1,.048-.696,1.61394,1.61394,0,0,0,.108-.582,8.68193,8.68193,0,0,0-.27-1.512c-.048-.15-.102-.372-.126-.492a.77382.77382,0,0,0-.138-.342C17.91189,12.203,17.88789,12.197,17.6779,12.269Z"/>
   <path class="a"
         d="M10.8079,13.235a1.9992,1.9992,0,0,0-.3.354.90362.90362,0,0,0-.174.654,1.01437,1.01437,0,0,1-.102.552.38494.38494,0,0,0-.066.276.34594.34594,0,0,1-.048.258,2.90955,2.90955,0,0,0-.324,1.098,15.60932,15.60932,0,0,0,.078,2.844.87327.87327,0,0,1,.06.288,4.27358,4.27358,0,0,0,.174.846,2.53972,2.53972,0,0,1,.072.39.791.791,0,0,0,.228.45,3.83726,3.83726,0,0,1,.42.624,1.40733,1.40733,0,0,0,.498.582c.3.192.432.21.63.102a.74257.74257,0,0,1,.312-.06,2.13643,2.13643,0,0,0,1.11-.456.63579.63579,0,0,0,.18-.324,1.61915,1.61915,0,0,1,.09-.546c.06-.228-.084-.426-.42-.576a.90444.90444,0,0,1-.54-.81,1.60543,1.60543,0,0,0-.162-.504.45006.45006,0,0,1-.09-.276.71688.71688,0,0,0-.09-.342,5.33078,5.33078,0,0,1-.252-1.704,6.76118,6.76118,0,0,0-.084-.81,5.27991,5.27991,0,0,1-.12-1.836,1.09625,1.09625,0,0,0-.15-.642,2.03035,2.03035,0,0,0-.258-.408A.77523.77523,0,0,0,10.8079,13.235Z"/>

</g>
</svg>
