<?xml version="1.0" encoding="UTF-8"?>
<svg xmlns="http://www.w3.org/2000/svg"
     version="1.1"
     width="41.71404872mm"
     height="12.68616504mm"
     viewBox="0.00000000 0.00000000 118.24463655 35.96074973">

<g transform="scale(5.18422646)">   <defs>
      <style type="text/css"><![CDATA[
      .a {
        stroke: #000;
        stroke-linecap: round;
        stroke-linejoin: round;
        stroke-width: 0.01px;
      }
    ]]></style>
   </defs>
   <path class="a"
         d="M10.46425.18671a.44757.44757,0,0,1-.3937.1817,2.80987,2.80987,0,0,0-.62992.1272A2.74716,2.74716,0,0,1,8.944.6228c-.06057,0-.109.01818-.109.0424a1.35986,1.35986,0,0,1-.33313.27256,1.13105,1.13105,0,0,1-.58752.24834c-.321.02423-.59358.09085-.59358.14536A2.79314,2.79314,0,0,1,6.073,1.96138a2.156,2.156,0,0,0-.69654.3513,1.20147,1.20147,0,0,1-.78134.19988,1.24077,1.24077,0,0,0-.40582.0848A.69769.69769,0,0,1,3.88645,2.67c-.1272,0-.19382.04846-.27256.18171a.44433.44433,0,0,1-.27257.212A6.264,6.264,0,0,0,2.31165,3.409a2.47548,2.47548,0,0,1-.83585.12114.808.808,0,0,0-.44216.212,1.595,1.595,0,0,1-.45427.26651.78073.78073,0,0,0-.55723.56329c-.0424.19988-.02423.23622.2665.527a1.64817,1.64817,0,0,0,.71472.44821,5.50485,5.50485,0,0,0,1.86553.29679,2.93834,2.93834,0,0,1,.67837.05451.30419.30419,0,0,0,.23016-.03028c.1272-.05451.212-.04846.45427.03634a.77124.77124,0,0,0,.4361.06057,1.45556,1.45556,0,0,1,.83585.00606,2.89007,2.89007,0,0,0,.848.06662,5.0515,5.0515,0,0,1,.83585.0424,1.29687,1.29687,0,0,0,.60569-.01817,4.33182,4.33182,0,0,1,.76923-.0848,1.70141,1.70141,0,0,0,.53907-.07874A.32525.32525,0,0,1,9.374,5.88626a.67757.67757,0,0,0,.46032-.0424,2.26017,2.26017,0,0,1,1.09025-.04845c.16959.01817.47244.04239.68443.04845a.69886.69886,0,0,1,.636.26651.85887.85887,0,0,0,.3937.25439.50335.50335,0,0,1,.29073.15142c.15748.15748.50878.36341.50878.29679,0-.01817.06057,0,.13931.05451a1.12786,1.12786,0,0,0,.87825-.05451c.36342-.1272.41187-.1696.55118-.48456.17565-.3937.3513-.45426,1.33252-.48455.45427-.01211.854-.02423.88431-.02423a1.68438,1.68438,0,0,1,.33313.06057,1.08912,1.08912,0,0,0,.3937.03634.94328.94328,0,0,1,.36947.03635,3.04757,3.04757,0,0,0,.69049.05451,5.07719,5.07719,0,0,1,.96911.02423c.1817.01211.3513.02422.37553.03028a1.50383,1.50383,0,0,1,.23621.33919l.18777.33918.2665-.03634a1.192,1.192,0,0,0,.38159-.09691.47073.47073,0,0,1,.16959-.05451,1.108,1.108,0,0,0,.24834-.03634.3553.3553,0,0,0,.27861-.24228.62066.62066,0,0,1,.1696-.24833.90479.90479,0,0,0,.19382-.32707,1.63069,1.63069,0,0,1,.20593-.38159.64331.64331,0,0,0,.0424-.64809,1.13917,1.13917,0,0,1-.14536-.26045c-.03635-.09691-.09086-.15142-.1272-.13325-.03028.01817-.12719-.03634-.21805-.12114a.32208.32208,0,0,0-.37553-.11508,1.29326,1.29326,0,0,1-.25439.03634.4915.4915,0,0,0-.13931.09086.84653.84653,0,0,1-.45426.11508c-.18777.01211-.41187.02423-.49667.03028a1.95355,1.95355,0,0,1-.424-.03634c-.15143-.02423-.62387-.04845-1.06-.05451a2.88608,2.88608,0,0,1-.957-.103.77848.77848,0,0,0-.54512-.0424,1.32369,1.32369,0,0,1-.527-.00605A3.12367,3.12367,0,0,0,15.879,3.91773a.57931.57931,0,0,1-.23.02427,5.44721,5.44721,0,0,0-1.12053-.0848c-.56329-.00605-.72683-.03028-.86614-.12113-.18776-.1272-.3089-.315-.25439-.39976.01817-.03028-.00606-.12114-.04846-.19382A.78531.78531,0,0,1,13.29889,2.67c.07268-.83585,0-1.1387-.35131-1.50817A1.24513,1.24513,0,0,1,12.669.72577c-.02423-.13325-.09691-.212-.26651-.30284a.95022.95022,0,0,1-.33313-.26651C11.97242.01106,11.94819.005,11.29405.005,10.62779.01106,10.62173.01106,10.46425.18671ZM9.54966,1.81a2.45751,2.45751,0,0,1,.29073.38158c.15142.24228.19988.36948.17565.48456s.02423.27256.18171.56329l.212.39976-.12114.12113c-.14536.14537-.23016.15143-.533.03029a1.48427,1.48427,0,0,0-.82979-.09085,1.68935,1.68935,0,0,1-.55118-.03029A7.66148,7.66148,0,0,0,7.16326,3.615c-.8722.01817-.96911,0-1.05391-.15748-.12719-.24228.3513-.58752,1.15082-.82374a1.64018,1.64018,0,0,0,.49666-.218.36266.36266,0,0,1,.17565-.109A2.3979,2.3979,0,0,0,8.38069,2.125a2.514,2.514,0,0,1,.59962-.206,1.36248,1.36248,0,0,0,.32707-.09085C9.43458,1.74939,9.45275,1.74939,9.54966,1.81Zm2.01089,2.85886a.49766.49766,0,0,1-.24227.54512c-.09691.05451-.15143.03634-.27257-.08479-.19987-.19988-.19382-.30891.03029-.527.14537-.15142.19988-.16959.29679-.11508a.49258.49258,0,0,1,.18776.18171Z"/>

</g>
</svg>
