<?xml version="1.0" encoding="UTF-8"?>
<svg xmlns="http://www.w3.org/2000/svg"
     version="1.1"
     width="59.95237060mm"
     height="38.29400714mm"
     viewBox="0.00000000 0.00000000 169.94377143 108.54998354">

<g transform="scale(4.33965766)">   <defs>
      <style type="text/css"><![CDATA[
      .a {
        stroke: #000;
        stroke-linecap: round;
        stroke-linejoin: round;
        stroke-width: 0.01px;
      }
    ]]></style>
   </defs>
   <path class="a"
         d="M15.77407.07849a1.19124,1.19124,0,0,0-.33.168,4.69676,4.69676,0,0,1-1.122.474,5.5216,5.5216,0,0,0-1.728.81,1.55179,1.55179,0,0,1-.792.51c-.162.06-.558.246-.876.408a2.714,2.714,0,0,1-.612.264,2.1433,2.1433,0,0,0-.468.222,1.93417,1.93417,0,0,1-1.272.354.98675.98675,0,0,0-.72.186,2.11711,2.11711,0,0,1-.492.24,2.28135,2.28135,0,0,0-.96.354c-.114.108-.228.138-.612.156a4.65624,4.65624,0,0,0-.588.054c-.066.012-.132.024-.15.024a1.59969,1.59969,0,0,0-.57.288c-.042.06-.198.096-.45.108a1.013,1.013,0,0,0-.552.15,1.02806,1.02806,0,0,1-.45.156,2.22618,2.22618,0,0,0-.546.144,1.64727,1.64727,0,0,1-.324.12,2.62369,2.62369,0,0,0-.408.174,3.4421,3.4421,0,0,1-1.182.366.61175.61175,0,0,0-.366.168c-.174.156-.192.204-.192.516a.61734.61734,0,0,0,.258.6,1.68956,1.68956,0,0,0,.54.366.87379.87379,0,0,1,.324.18,1.14534,1.14534,0,0,0,.414.24,1.29164,1.29164,0,0,1,.45.276.58449.58449,0,0,0,.228.198c.15.078.228.078.672,0a5.91526,5.91526,0,0,0,.774-.186c.15-.048.336-.108.42-.126a1.233,1.233,0,0,0,.354-.168.57658.57658,0,0,1,.498-.102,1.33264,1.33264,0,0,0,.954-.252,1.9781,1.9781,0,0,1,.774-.336,1.1859,1.1859,0,0,0,.39-.18,2.10491,2.10491,0,0,1,.882-.39,1.35,1.35,0,0,0,.528-.246,3.85768,3.85768,0,0,1,.48-.294c.114-.054.282-.132.378-.18.264-.132.474-.24.78-.384a1.06558,1.06558,0,0,0,.342-.24.52484.52484,0,0,1,.24-.18c.096-.042.18-.096.18-.12a1.68178,1.68178,0,0,1,.78-.396,2.567,2.567,0,0,0,.522-.168.77449.77449,0,0,1,.342-.114,2.27465,2.27465,0,0,0,.702-.378,6.09335,6.09335,0,0,1,1.29-.462,1.25933,1.25933,0,0,1,.978.6,5.75391,5.75391,0,0,0,.504.624,8.043,8.043,0,0,1,.552.678,2.63487,2.63487,0,0,0,.702.756c.024,0,.084.078.132.174a4.10626,4.10626,0,0,0,.804.858.732.732,0,0,1,.252.336.57016.57016,0,0,0,.216.288c.12.096.288.228.378.3a2.0497,2.0497,0,0,0,.348.228c.252.126.336.282.24.42a.30334.30334,0,0,1-.168.114c-.15.024-.354.27-.462.57-.09.246-.138.294-.36.36-.138.048-.252.108-.252.144a1.07978,1.07978,0,0,1-.246.3,7.409,7.409,0,0,0-.858,1.098c-.114.162-.288.384-.378.486a3.78063,3.78063,0,0,0-.594.924,5.158,5.158,0,0,0-.444,1.044.61612.61612,0,0,1-.156.27c-.132.156-.15.234-.138.558a1.32267,1.32267,0,0,1-.216.924.439.439,0,0,0-.114.282,1.36285,1.36285,0,0,1-.156.444.59762.59762,0,0,0-.096.45,1.09634,1.09634,0,0,1-.054.708,1.68354,1.68354,0,0,0,.246.744.24252.24252,0,0,1,.042.192.67619.67619,0,0,0,.066.33c.126.312.084.45-.192.588a3.56475,3.56475,0,0,0-.936.864.96388.96388,0,0,1-.27.27.57482.57482,0,0,0-.234.246c-.042.084-.138.276-.222.42a1.287,1.287,0,0,0-.15.336,1.62717,1.62717,0,0,1-.54.66c-.066.024-.12.072-.114.108a.34.34,0,0,1-.108.33,2.4946,2.4946,0,0,0-.456.678,1.84185,1.84185,0,0,1-.276.414c-.228.246-.276.402-.192.618.09.24.378.222.612-.03a.93546.93546,0,0,0,.174-.24,4.95416,4.95416,0,0,1,.408-.54c.222-.276.486-.612.582-.75.102-.144.252-.36.348-.48a3.98217,3.98217,0,0,0,.552-.87,3.99394,3.99394,0,0,1,.852-1.278c.246-.234.378-.414.378-.498a.49082.49082,0,0,1,.144-.282c.132-.132.168-.138.33-.084.204.072.426.312.426.462a2.25821,2.25821,0,0,1-.576.828.66351.66351,0,0,0-.204.33.74109.74109,0,0,1-.24.366,1.33589,1.33589,0,0,0-.3.384,1.49488,1.49488,0,0,1-.45.51c-.216.162-.33.294-.33.378a4.50587,4.50587,0,0,1-1.056,1.506c-.402.402-.438.45-.426.666.012.234.156.444.3.444a3.685,3.685,0,0,0,.822-.762,2.72781,2.72781,0,0,1,.798-.768c.222-.09.228-.09.39.084a.8582.8582,0,0,0,.366.216c.18.036.228.024.33-.102a3.129,3.129,0,0,1,.492-.396,1.25025,1.25025,0,0,0,.504-.522,1.23838,1.23838,0,0,1,.264-.372,3.54568,3.54568,0,0,0,.396-.468c.252-.342.786-1.014.984-1.242a1.47751,1.47751,0,0,0,.192-.402,1.6822,1.6822,0,0,1,.39-.612,1.16921,1.16921,0,0,0,.354-.558c.03-.132.078-.354.114-.48.066-.282.054-.312-.144-.36-.138-.036-.222.012-.474.264-.036.036-.126.132-.198.204a.50293.50293,0,0,0-.138.198,2.17782,2.17782,0,0,1-.534.672c-.144.078-.306-.036-.33-.234-.012-.084-.042-.222-.06-.306-.036-.12,0-.204.168-.408a2.65356,2.65356,0,0,0,.222-.294c0-.024.018-.138.036-.252a2.80689,2.80689,0,0,0,.03-.36c-.012-.36-.006-1.068.012-1.26a.99942.99942,0,0,0-.066-.414.6459.6459,0,0,1-.048-.312.64131.64131,0,0,0-.09-.354.59514.59514,0,0,1-.09-.294.50992.50992,0,0,0-.036-.24c-.054-.156-.042-.216.066-.39a1.44683,1.44683,0,0,0,.15-.516,1.542,1.542,0,0,1,.09-.42,1.73112,1.73112,0,0,0,.096-.492,2.766,2.766,0,0,1,.12-.606c.048-.12.072-.222.054-.222a1.92461,1.92461,0,0,1,.354-.654.26447.26447,0,0,0,.096-.156,1.49323,1.49323,0,0,1,.21-.384,1.63,1.63,0,0,0,.21-.366.77437.77437,0,0,1,.186-.258,2.03723,2.03723,0,0,0,.27-.348,1.92213,1.92213,0,0,1,.822-.654,1.90081,1.90081,0,0,1,.834.558,2.465,2.465,0,0,0,.666.732,6.87511,6.87511,0,0,1,.582.42c.216.168.582.432.822.594a2.57247,2.57247,0,0,1,.612.54,4.48258,4.48258,0,0,0,.27.372,9.53481,9.53481,0,0,1,.834,1.212,1.7976,1.7976,0,0,1,.204.75,2.5188,2.5188,0,0,0,.078.522,1.35014,1.35014,0,0,1,.084.324,1.40245,1.40245,0,0,0,.486.858c.324.216.462.228.72.054a1.07758,1.07758,0,0,1,.294-.156c.168,0,.702-.936.594-1.038a1.35406,1.35406,0,0,1,.036-.378,1.13244,1.13244,0,0,0-.006-.588,1.48336,1.48336,0,0,1-.054-.378,1.86477,1.86477,0,0,0-.084-.474,1.16548,1.16548,0,0,1-.06-.444.249.249,0,0,0-.09-.24c-.096-.096-.108-.144-.06-.24.048-.09.042-.192-.03-.39a2.10938,2.10938,0,0,1-.09-.354,5.90971,5.90971,0,0,0-.552-1.038,1.43038,1.43038,0,0,0-.354-.228c-.264-.138-.3-.186-.612-.822a3.23925,3.23925,0,0,0-1.098-1.452,1.39745,1.39745,0,0,1-.396-.264c-.132-.12-.294-.27-.354-.33-.114-.102-.114-.114-.012-.294a1.50127,1.50127,0,0,1,.738-.684,1.35218,1.35218,0,0,0,.498-.336.89719.89719,0,0,1,.438-.288.85742.85742,0,0,0,.636-.36,1.19952,1.19952,0,0,1,.69-.426,2.47625,2.47625,0,0,0,.744-.426,1.40642,1.40642,0,0,1,1.194-.018,1.52569,1.52569,0,0,0,.42.12c.024-.018.15.054.276.156a5.02533,5.02533,0,0,0,.528.348c.162.084.348.192.42.228a.56621.56621,0,0,0,.234.078,1.4321,1.4321,0,0,1,.606.294,1.63974,1.63974,0,0,0,.954.402c.51.042.936.186,1.008.348a1.005,1.005,0,0,0,.582.366,1.71318,1.71318,0,0,1,.408.276,1.55448,1.55448,0,0,0,.432.27,1.87729,1.87729,0,0,1,.312.096.45077.45077,0,0,0,.198.06,1.69916,1.69916,0,0,1,.642.348,3.063,3.063,0,0,0,.882.786,3.977,3.977,0,0,1,.558.42.63453.63453,0,0,0,.408.222,5.34026,5.34026,0,0,1,1.32.528c.15.102.156.096.246-.33a.59933.59933,0,0,0-.018-.42.81217.81217,0,0,1-.054-.372.56945.56945,0,0,0-.126-.444.96255.96255,0,0,1-.156-.312,1.15558,1.15558,0,0,0-.21-.36,1.22358,1.22358,0,0,1-.21-.348.26448.26448,0,0,0-.096-.156,1.28547,1.28547,0,0,1-.204-.288,2.782,2.782,0,0,0-.402-.522c-.156-.168-.432-.474-.612-.672a1.872,1.872,0,0,0-.426-.402,1.04222,1.04222,0,0,1-.288-.33,1.97474,1.97474,0,0,0-.444-.474c-.144-.102-.33-.24-.42-.312a2.98073,2.98073,0,0,0-1.278-.558c-.312-.024-.66-.3-.6-.48.036-.096-.18-.234-.594-.39a2.449,2.449,0,0,1-.69-.426,1.77943,1.77943,0,0,0-.408-.3,3.58532,3.58532,0,0,1-.588-.39c-.294-.216-.582-.426-.648-.456a1.82277,1.82277,0,0,0-1.152.054,8.3536,8.3536,0,0,0-1.512,1.458,1.169,1.169,0,0,1-.33.33c-.06.018-.108.06-.108.09a.88583.88583,0,0,1-.312.204,1.17078,1.17078,0,0,0-.462.366,1.92546,1.92546,0,0,1-.36.372,1.8603,1.8603,0,0,0-.306.264c-.066.078-.198.12-.432.138a1.6656,1.6656,0,0,0-.99.468.51832.51832,0,0,1-.24.126,1.43735,1.43735,0,0,0-.834.384c-.462.456-.75.546-.984.312-.144-.144-.186-.15-.144-.036s-.186.336-.348.336c-.138,0-.558-.42-.624-.624a1.89688,1.89688,0,0,0-.372-.528,3.9203,3.9203,0,0,1-.816-.876c-.024-.072-.072-.132-.108-.132a2.76739,2.76739,0,0,1-.504-.438,7.42573,7.42573,0,0,0-1.506-1.26.52835.52835,0,0,1-.228-.234,2.41255,2.41255,0,0,0-.462-.816c-.108-.078-.318-.432-.258-.432.084,0-.24-.462-.426-.624A1.17091,1.17091,0,0,0,15.77407.07849Zm1.488,20.544a.57763.57763,0,0,1-.24.51.32263.32263,0,0,1-.348-.156.58608.58608,0,0,1,.216-.498.23565.23565,0,0,1,.372.144Z"/>
   <path class="a"
         d="M13.27207,9.15049a.58476.58476,0,0,0-.558.408l-.114.264.156.198a1.87959,1.87959,0,0,0,1.398.498,3.00173,3.00173,0,0,1,.672.084.544.544,0,0,0,.258.06,1.784,1.784,0,0,1,.378.06c.714.18,1.272-.198,1.086-.744-.084-.246-.414-.54-.54-.492a.51344.51344,0,0,1-.312-.126c-.276-.186-.696-.234-1.704-.192a2.79585,2.79585,0,0,1-.42-.018A.84008.84008,0,0,0,13.27207,9.15049Z"/>
   <path class="a"
         d="M12.89407,19.39849a.5385.5385,0,0,0-.192.402.89053.89053,0,0,1-.144.402c-.066.09-.192.276-.282.426a3.1834,3.1834,0,0,1-.27.39.62268.62268,0,0,0-.12.33,2.32,2.32,0,0,1-.54.96c-.018,0-.072.084-.114.18a.55224.55224,0,0,1-.192.246c-.144.078-.294.426-.21.486.078.048.402-.108.402-.198a2.3785,2.3785,0,0,1,.36-.444,1.78579,1.78579,0,0,0,.36-.48,1.15132,1.15132,0,0,1,.294-.39,1.91133,1.91133,0,0,0,.426-.636,4.606,4.606,0,0,1,.426-.798c.264-.402.294-.486.282-.726-.018-.24-.036-.27-.168-.282A.453.453,0,0,0,12.89407,19.39849Z"/>
   <path class="a"
         d="M20.32207,19.57249a2.56614,2.56614,0,0,0-.81.798,1.4716,1.4716,0,0,1-.33.408,1.82629,1.82629,0,0,0-.33.378,2.43993,2.43993,0,0,1-.36.438c-.198.21-.348.414-.33.456.012.042-.102.198-.252.354a4.95159,4.95159,0,0,0-.432.528,3.77712,3.77712,0,0,1-.27.378,1.36484,1.36484,0,0,0-.186.336c-.06.174-.054.228.024.336.174.234.438.138.954-.33.6-.558.696-.6.852-.444l.126.126-.126.216c-.15.258-.084.378.21.378a.98809.98809,0,0,0,.762-.588c.072-.264-.03-.444-.216-.396a.60785.60785,0,0,1-.534-.24.491.491,0,0,1,.114-.306,1.46657,1.46657,0,0,0,.144-.252,9.26113,9.26113,0,0,1,.666-1.128.77794.77794,0,0,0,.138-.246,1.69743,1.69743,0,0,1,.27-.39.79553.79553,0,0,0,.21-.306c-.018-.024.018-.126.072-.222.09-.15.09-.192.03-.27C20.62207,19.47049,20.55607,19.47049,20.32207,19.57249Z"/>
   <path class="a"
         d="M21.15607,20.95849c-.096.12-.288.348-.426.504-.186.21-.258.342-.258.48,0,.126.03.186.09.186.108,0,.21-.174.21-.354a1.51724,1.51724,0,0,1,.36-.276c.402-.252.45-.3.498-.516.024-.102.012-.156-.036-.156a.75829.75829,0,0,1-.168-.042C21.36007,20.75449,21.27607,20.80849,21.15607,20.95849Z"/>

</g>
</svg>
