<?xml version="1.0" encoding="UTF-8"?>
<svg xmlns="http://www.w3.org/2000/svg"
     version="1.1"
     width="26.34623417mm"
     height="47.89591503mm"
     viewBox="0.00000000 0.00000000 74.68220501 135.76800800">

<g transform="scale(4.22440051)">   <defs>
      <style type="text/css"><![CDATA[
      .a {
        stroke: #000;
        stroke-linecap: round;
        stroke-linejoin: round;
        stroke-width: 0.01px;
      }
    ]]></style>
   </defs>
   <path class="a"
         d="M12.03062.14431a.62813.62813,0,0,1-.23622.23622c-.109.06057-.16959.13325-.14537.18776.0424.11508-.13325.28468-.34524.32708-.09691.01817-.17565.07268-.17565.11508a.41446.41446,0,0,1-.13325.20593.49285.49285,0,0,0-.13931.1696.49584.49584,0,0,1-.23016.36947.6659.6659,0,0,0-.22411.2665.471.471,0,0,1-.29679.26045c-.15748.04845-.218.11508-.28467.30284-.0424.1272-.11507.24834-.15748.26045-.15143.04846-.36341.315-.32708.41187a.30359.30359,0,0,1-.06056.24228.4068.4068,0,0,0-.06057.27861.39628.39628,0,0,1-.03028.23622,1.65565,1.65565,0,0,0-.12114.92671.92544.92544,0,0,1-.1272.70862,1.03845,1.03845,0,0,0-.18171.72683,3.17168,3.17168,0,0,1-.00606.54512.91746.91746,0,0,1-.11508.36342,1.53022,1.53022,0,0,0-.13325.49666,1.80891,1.80891,0,0,1-.109.48456.94842.94842,0,0,0-.00606.73894c.07268.11508.07268.14536-.01211.2241-.23017.23622.01818.47244.47243.44216a.55933.55933,0,0,0,.40582-.14537.44492.44492,0,0,1,.18771-.13321c.1272,0,.3089-.23016.27256-.34524a.28942.28942,0,0,1,.20594-.33919.89031.89031,0,0,0,.2665-.18171.7765.7765,0,0,1,.218-.16353.68476.68476,0,0,0,.1515-.27254.61.61,0,0,1,.33313-.39369,1.6315,1.6315,0,0,0,.69655-.65415c.01818-.07268.06057-.13325.09085-.13325s.09692-.13325.14538-.29073a1.80808,1.80808,0,0,1,.33313-.53907c.26044-.2665.39369-.4785.34523-.55118a.70532.70532,0,0,1,.06057-.3089.65612.65612,0,0,0,.05451-.3089.41108.41108,0,0,1,.06664-.24834.34512.34512,0,0,0,.03633-.32707.87848.87848,0,0,1,.16354-.745.401.401,0,0,0,.09085-.27862.55508.55508,0,0,1,.03028-.28467.70463.70463,0,0,0-.00605-.46033.57463.57463,0,0,1,.02423-.46638,3.51908,3.51908,0,0,0,.19382-.53906c.05451-.18777.12719-.34525.15748-.34525.03634,0,.04846-.14536.04239-.321a.77253.77253,0,0,0-.28467-.6057C12.86042.005,12.85436.005,12.47883.005,12.13964.005,12.08513.02317,12.03062.14431Z"/>
   <path class="a"
         d="M17.0518,13.17878a.47264.47264,0,0,0-.19988.212c-.01817.06663-.06663.12114-.09691.12114h-.08478c-.08479,0-.27862.2665-.29679.41187a.90025.90025,0,0,1-.20593.37553.92841.92841,0,0,0-.18777.26044,2.346,2.346,0,0,1-.83585,1.00545.22475.22475,0,0,0-.13931.16354,1.8743,1.8743,0,0,1-.69049.69049c-.109.03634-.15748.09085-.1393.14536a.32247.32247,0,0,1-.09692.24228c-.32707.38158-.43609.533-.44215.642a.75224.75224,0,0,1-.109.27256.35889.35889,0,0,0-.07269.25439c.02423.05451-.03028.15748-.13931.25439-.13325.1272-.16353.18777-.12113.26651.06662.11508-.02423.33918-.14537.3513a.86814.86814,0,0,0-.13325.02422.73976.73976,0,0,1-.103.01818c-.02423.006-.02423.07268.00606.15142.06057.16353,0,.30284-.23016.53906-.24834.25439-.315.3513-.28468.40582.01817.03028-.02423.12113-.09085.212-.06663.08479-.109.18171-.0848.212.01817.03634-.02423.11508-.09691.18171a2.6026,2.6026,0,0,0-.321.41792,5.85012,5.85012,0,0,1-.745,1.03574,2.35715,2.35715,0,0,0-.3089.36947.75293.75293,0,0,1-.17565.19988.17271.17271,0,0,0-.07874.13325.60778.60778,0,0,1-.16354.2665c-.09691.09691-.27256.29679-.3937.44216-.35735.41792-.47243.533-.533.533-.03634,0-.06057.03635-.06057.07874,0,.07874-.109.23622-.3513.50878a.602.602,0,0,0-.13326.20594.7382.7382,0,0,1-.1817.2241.693.693,0,0,0-.18171.27862.39953.39953,0,0,1-.12114.21805.52711.52711,0,0,0-.12119.15141v.09086c0,.03028-.06057.07268-.13931.09085a.48418.48418,0,0,0-.23621.212c-.09086.16354-.54513.45427-.6057.38765-.03028-.02423-.218.15142-.52089.49061-.103.12113-.12114.1817-.07268.27256.07874.14536.07874.15748-.03634.2665a.147.147,0,0,1-.2045.03734l-.00144-.001c-.12114-.06662-.44821.03634-.3937.1272.04846.07268-.14536.23622-.24227.19987-.04846-.02422-.09086-.01211-.09086.01818,0,.12719-.24227.32707-.56935.47243-.26045.11509-.36341.19383-.40581.321a.52767.52767,0,0,1-.26651.27256.54293.54293,0,0,0-.24227.21805c-.01817.07268-.06663.13325-.09691.13325a.74368.74368,0,0,0-.28468.103.25615.25615,0,0,1-.41187-.15748,1.37488,1.37488,0,0,0-.12719-.33919.96546.96546,0,0,1-.02423-.854.762.762,0,0,0,.0424-.62386.17084.17084,0,0,1,.06057-.16354,2.64418,2.64418,0,0,0,.29679-.92065,4.64386,4.64386,0,0,1,.45426-.98728.66549.66549,0,0,0,.02423-.27256,2.0943,2.0943,0,0,1,.109-.55723c.09085-.23622.103-.33919.05451-.4361-.05451-.103-.03634-.15142.14536-.32707a.74335.74335,0,0,0,.212-.30891c0-.1817.11508-.36341.46032-.72077a.78126.78126,0,0,0,.1696-.27256.96.96,0,0,1,.17565-.27862c.07268-.07874.218-.24833.315-.36947.103-.12719.23621-.27862.30284-.34524.44216-.424.45427-.44216.424-.60569-.04845-.20594.25439-.54513.44216-.49061a.12177.12177,0,0,0,.16354-.09691.173.173,0,0,1,.23016-.13326,1.8879,1.8879,0,0,0,.527-.54512c0-.03028.07268-.07268.15748-.09085.17565-.0424.24833-.09691.636-.4785.22411-.218.46639-.5754.38765-.5754a1.172,1.172,0,0,1,.13931-.32708,2.2394,2.2394,0,0,0,.218-.58146,1.9425,1.9425,0,0,1,.13931-.44821.93748.93748,0,0,0,.11508-.33919c.05452-.56935.07874-.68443.14538-.72683.05451-.03634.08479-.23016.09085-.64809a3.40405,3.40405,0,0,1,.15143-1.23561c.06057-.13931.06057-.19382-.00606-.27256a.37665.37665,0,0,0-.50878-.109c-.07875.05451-.17565.07874-.20595.05451-.07267-.0424-.48455.3513-.49666.46638-.00606.0424-.01212.19382-.01817.33313a1.01629,1.01629,0,0,1-.1696.48456,2.11022,2.11022,0,0,0-.23016.54512,1.43149,1.43149,0,0,1-.18171.45427,4.08889,4.08889,0,0,0-.26044.45426,1.719,1.719,0,0,1-.218.34525.47054.47054,0,0,0-.09085.24227c-.06057.32708-.59963.83586-.76922.72683-.04846-.02422-.05452-.01817-.03029.02423.02423.03634-.01817.11508-.0848.17565a1.80509,1.80509,0,0,0-.28468.36342c-.08479.14536-.17565.26044-.20593.26044s-.0424.06663-.01818.14537c.02423.11508-.00605.18171-.13325.29073a2.91539,2.91539,0,0,0-.218.19988c-.02422.03028-.11508.13931-.19987.23016a.56929.56929,0,0,0-.15143.30285,1.66222,1.66222,0,0,1-.59963.848c-.35736.33313-.56329.58147-.5209.64809.04846.07874-.14536.24228-.24227.20594-.04846-.02423-.09086-.06057-.09086-.09086,0-.1393-.13325-.03028-.24833.19988-.13325.26651-.23016.36342-.3089.315-.06057-.0424-.16959.18777-.16959.36947a.48731.48731,0,0,1-.16354.30891c-.1393.12719-.15142.16353-.09085.29678a.39559.39559,0,0,1,.03634.23622c-.03634.09691-.19382.17565-.26651.1272-.08479-.05451-.25439.27862-.218.43.03029.109,0,.17565-.11507.27862a.44238.44238,0,0,0-.15143.19988.48739.48739,0,0,1-.12114.212.48386.48386,0,0,0-.12114.2241.43977.43977,0,0,1-.12719.20594c-.07268.07268-.103.14536-.07268.16959a.32865.32865,0,0,1-.07874.58752.25965.25965,0,0,0-.1696.17565.28848.28848,0,0,1-.15142.18171.29893.29893,0,0,0-.15748.218,1.37688,1.37688,0,0,1-.3089.46032.902.902,0,0,0-.23622.321,3.58213,3.58213,0,0,1-.3937,1.09024.08255.08255,0,0,0-.03193.11228l.00164.00281c.04846.07873-.07874.43-.15142.43-.04845,0-.12114.24227-.15142.48455a2.49754,2.49754,0,0,1-.05451.25439.43274.43274,0,0,0,.01817.27862,3.385,3.385,0,0,1,.13325.94487.48821.48821,0,0,0,.0848.23622.3487.3487,0,0,1,.05451.24834c-.0424.1817.25439.60569.48455.69049a1.22828,1.22828,0,0,1,.34524.218.559.559,0,0,0,.30285.14537c.07874,0,.3513.01817.59963.03028.43005.03029.6057-.01211.6057-.15142,0-.03028-.05452-.02423-.11509.01212-.1393.07268-.32707-.07269-.27256-.212a.17316.17316,0,0,1,.29679-.05451c.04846.05451.09086.06663.09086.03634a1.4466,1.4466,0,0,1,.642-.25439.47571.47571,0,0,0,.2241-.13931,2.97367,2.97367,0,0,1,1.15082-.82374c.36947-.13931.41187-.17565.53906-.44215a.85209.85209,0,0,1,.17553-.29068,1.40382,1.40382,0,0,0,.24228-.18171c.11508-.103.25439-.22411.3089-.27256a.785.785,0,0,0,.16959-.321c.06663-.25439.1696-.33918.30891-.24833.17565.109.29679.05451.3937-.18776.05451-.13326.12113-.24228.14536-.24228.03029,0,.06663-.05451.09086-.11508a.7577.7577,0,0,1,.30284-.27256.80784.80784,0,0,0,.30285-.27862.25.25,0,0,1,.15142-.15142.258.258,0,0,0,.14536-.1696c.02423-.09691.13326-.18776.33919-.27861a.94736.94736,0,0,0,.37553-.26651,1.89038,1.89038,0,0,1,.28468-.3513,3.0462,3.0462,0,0,0,.49667-.58752c0-.02423.01212-.109.01817-.18171.01817-.15748.13325-.26044.24834-.218.03633.01817.103-.04239.1393-.12719s.09692-.15142.1272-.15142a1.3314,1.3314,0,0,0,.28467-.424,1.55142,1.55142,0,0,1,.35131-.49666,1.16885,1.16885,0,0,0,.52695-.6057.70581.70581,0,0,1,.24227-.321c.06057-.02423.11508-.06057.11508-.08481a.67713.67713,0,0,1,.15748-.218,1.2754,1.2754,0,0,0,.218-.33918.33283.33283,0,0,1,.1696-.20594.10777.10777,0,0,0,.08417-.12707l-.00543-.01829c-.03029-.11509.09691-.27862.315-.39976a.33473.33473,0,0,0,.12113-.24228.85362.85362,0,0,1,.24228-.44215,1.21529,1.21529,0,0,0,.24833-.33313,1.06626,1.06626,0,0,1,.39976-.64809c.109-.06663.17565-.12114.15142-.12114-.06662,0,.07874-.26045.17565-.321a.55711.55711,0,0,0,.14537-.25439c.03634-.11508.09085-.212.12114-.212.09691,0,.49061-.44821.46031-.52089a.9805.9805,0,0,1,.212-.56935,2.2586,2.2586,0,0,0,.57541-.57541c.00606-.03028.01211-.09085.01817-.12719,0-.03634.07268-.09691.16354-.13326a.531.531,0,0,0,.218-.25439c.03029-.103.07875-.1817.103-.1817.09087,0,.41793-.33919.45428-.47244.02422-.07268.06662-.13325.09691-.13325a2.969,2.969,0,0,0,.46637-.7874c.00606-.04846.02423-.18171.03635-.29073a.4984.4984,0,0,1,.1817-.33313,3.36061,3.36061,0,0,0,.62386-1.16293c.07269-.28468,0-.61175-.15142-.65415-.05451-.01817-.13931-.0424-.18776-.06057A.35575.35575,0,0,0,17.0518,13.17878Z"/>

</g>
</svg>
