<?xml version="1.0" encoding="UTF-8"?>
<svg xmlns="http://www.w3.org/2000/svg"
     version="1.1"
     width="54.90144900mm"
     height="15.05044089mm"
     viewBox="0.00000000 0.00000000 155.62616168 42.66261680">

<g transform="scale(2.98348740)">   <defs>
      <style type="text/css"><![CDATA[
      .a {
        fill: #000;
        stroke: #000;
        stroke-miterlimit: 10;
        stroke-width: 0.25px;
        fill-rule: evenodd;
      }
    ]]></style>
   </defs>
   <path class="a"
         d="M10.90172.17945c1.3931,0,2.7857.0137,4.1778.001,2.0972-.019,4.0918.624,6.18261.5908,2.84569-.0439,5.604.9756,8.28759,1.7969,2.3481.71779,4.8462,1.042,7.0796,2.04,1.3506.6031,2.7949,1.3033,4.1435,1.8394,3.919,1.5571,7.6314,2.4492,10.6514,5.2583.4307.396.6875.5908.5942,1.2827-.1489,1.1182-1.1855,1.1831-2.1406,1.186-3.6909.0108-7.1841-2.9155-10.5874-4.1294a19.91564,19.91564,0,0,0-2.6509-1.0488c-1.87739-.3979-3.6142-.7378-5.5058-1.1191-1.5767-.3174-2.9673-1.1641-4.51659-1.5528-1.28961-.3256-2.57231-.70851-3.88141-.9809a16.72942,16.72942,0,0,0-2.2749-.2324c-.7661-.05521-1.2763-.34721-2.0415-.4034-1.6894-.124-3.36719-.3979-5.0605-.5429-1.1133-.0938-2.1734-.2476-3.2886-.2407-1.0732.0073-1.8022-.3453-2.8032-.3931-1.5308-.0728-3.6138.4014-5.0332-.0894.022.0074-.5435-.3164-.5864-.3442a6.97,6.97,0,0,1-.9395-.6084c-.3589-.334-.812-.9009-.4497-1.4815.5371-.8584,2.0483-.8022,2.9126-.7275a26.9781,26.9781,0,0,0,3.8711-.1274C8.31532.07745,9.61612.17945,10.90172.17945Z"/>

</g>
</svg>
