<?xml version="1.0" encoding="UTF-8"?>
<svg xmlns="http://www.w3.org/2000/svg"
     version="1.1"
     width="79.69592569mm"
     height="35.97777312mm"
     viewBox="0.00000000 0.00000000 225.90971941 101.98428784">

<g transform="scale(4.29672568)">   <defs>
      <style type="text/css"><![CDATA[
      .a {
        stroke: #000;
        stroke-width: 0.25px;
      }
    ]]></style>
   </defs>
   <path class="a"
         d="M30.8414,9.00286a17.182,17.182,0,0,1,6.9034.20891,8.817,8.817,0,0,1,1.4834.35309c.5214.24021,1.0898.42871,1.5918.71871a12.93562,12.93562,0,0,1,3.7978,2.7495c1.9131,2.3184,4.5234,4.00979,6.3682,6.417a5.36643,5.36643,0,0,1,1.1025,3.7857c-1.5078-.87991-3.0283-1.7451-4.4756-2.73391-1.8935-1.29249-3.584-2.85109-5.4043-4.24759a13.33174,13.33174,0,0,0-6.52048-2.8296,23.14557,23.14557,0,0,0-7.47952.4361,43.78069,43.78069,0,0,0-5.2129,1.5434,10.5217,10.5217,0,0,1-2.2851.647,4.41253,4.41253,0,0,0-1.6582.4849c-.3106.1714-.7862.229-1.0166.5156-.1553.1953-.18168.4971-.38868.7114a5.92969,5.92969,0,0,1-1.52542.9873,14.17061,14.17061,0,0,0-1.789,1.27049,5.5569,5.5569,0,0,1-2.0557,1.05371c-.5557.1216-1.7256.5298-1.8174-.3208a4.60258,4.60258,0,0,1,.8418-2.3896c.2754-.3706.6035-.667.88872-1.0864A19.86849,19.86849,0,0,1,13.694,15.35686c.2695-.30569.5303-.55809.7637-.83109a6.962,6.962,0,0,1,1.19042-1.2856c2.02438-1.3965,4.68458-1.8321,7.00878-2.3838C25.3717,10.21086,28.0846,9.43546,30.8414,9.00286Z"/>
   <path class="a"
         d="M29.7233,20.47306c1.84082,0,3.667-.1065,5.501-.1104a22.08835,22.08835,0,0,0,4.75582-.4399,24.72067,24.72067,0,0,1,4.90138-.3257c.9697-.0146,3.7773-.2656,3.5185,1.3149a5.2261,5.2261,0,0,1-.3027,1.21589c-.3086.56341-1.2998.59661-1.8535.63421-1.3408.0894-2.72168.15679-4.0645.13479-1.86718-.03029-3.7373-.05859-5.6054-.03809a23.29634,23.29634,0,0,0-2.5332.065c-.7998.0976-1.6768.0063-2.4629.1806a17.59087,17.59087,0,0,1-2.71.2241c-2.0703.1309-4.1982.2173-6.2656.2173-.4512,0-.9043-.00091-1.3555-.0005q-2.3262.00375-4.664.0005H13.93912c-.96482,0-1.92682.106-2.89262.0464-.6045-.0366-.8955-.02931-.9111-.6836-.0127-.5224-.0127-1.3349.4951-1.6528.3975-.2481,1.6719-.02,2.1758-.02,2.2041-.0005,4.4111-.3096,6.5986-.3316,2.1817-.0219,4.3574-.1836,6.53522-.311C27.1979,20.51946,28.4616,20.47306,29.7233,20.47306Z"/>
   <path class="a"
         d="M36.9528,3.64586c-.42868-.33789-1.0469-.81-.8916-1.437a1.31736,1.31736,0,0,1,1.4414-.77729,3.69445,3.69445,0,0,1,2.7558,2.4219c.1973,1.2973-1.02828,1.37739-1.9541.9013A9.51068,9.51068,0,0,1,36.9528,3.64586Z"/>
   <path class="a"
         d="M35.9459,6.43446a7.438,7.438,0,0,0,1.8868-.4043c.48133-.17277.9968-.20019,1.47822-.393A7.6361,7.6361,0,0,0,40.43811,4.976a8.30247,8.30247,0,0,1,1.15695-.569A9.95774,9.95774,0,0,0,42.848,3.91034c.31877-.1728.64873-.31323.96617-.49354,1.15756-.65752,2.00635-1.76315,3.071-2.501A7.60491,7.60491,0,0,1,48.38737.23175,2.74622,2.74622,0,0,1,49.3766.16346,5.42619,5.42619,0,0,1,50.5063.15879a2.89218,2.89218,0,0,0,.42993.13257,4.35258,4.35258,0,0,0,.50289-.00289.93527.93527,0,0,1,.84675.37544c.23764.25829.14983.60343.153.93684a1.158,1.158,0,0,1-.34384.84655,2.5156,2.5156,0,0,1-.77444.49752,6.83958,6.83958,0,0,1-1.401.39359,13.88672,13.88672,0,0,0-1.80812.79707A18.91878,18.91878,0,0,1,45.6549,5.23626c-1.5459.5297-3.1387.9067-4.6914,1.4179a12.67342,12.67342,0,0,1-3.3389.7754,24.5114,24.5114,0,0,0-3.6982.4248c-.3721.0757-1.4336.2471-1.7598-.0361-.538-.4648.3243-.8857.6768-1.023A10.27427,10.27427,0,0,1,35.9459,6.43446Z"/>
   <path class="a"
         d="M.2008,1.84365c.31772-.911,1.07665-.437,1.62072-.20882.55023.23072,1.07827.47487,1.61182.74436.72722.36731,1.483.56594,2.22841.87789A17.77073,17.77073,0,0,0,7.5955,3.8792c.97636.28055,1.86373.72932,2.81558,1.0681.724.2577,1.49386.34883,2.21088.57582.9481.30015,1.89862.5767,2.82736.935.54113.20875,1.10989.45257,1.67682.6346a1.65073,1.65073,0,0,0,.73351.15116c.19751-.03139.3907-.13021.59031-.17014.87269-.17459,1.79576-.34022,2.29322.58264,1.13837,2.11182-2.64876,1.24685-3.5553,1.01473l-.13548-.03491c-1.7481-.4478-3.5029-.294-5.2617-.6221-1.8135-.3379-3.628-.9106-5.4092-1.395A22.8855,22.8855,0,0,1,1.9918,4.87486C1.07014,4.40334-.19922,2.992.2008,1.84365Z"/>

</g>
</svg>
