<?xml version="1.0" encoding="UTF-8"?>
<svg xmlns="http://www.w3.org/2000/svg"
     version="1.1"
     width="22.77235879mm"
     height="46.56166972mm"
     viewBox="0.00000000 0.00000000 64.55161413 131.98576234">

<g transform="scale(5.65979595)">   <defs>
      <style type="text/css"><![CDATA[
      .a {
        stroke: #000;
        stroke-miterlimit: 10;
        stroke-width: 0.15px;
      }
    ]]></style>
   </defs>
   <path class="a"
         d="M.97962,5.334a6.9144,6.9144,0,0,0,.383,1.93882,12.73394,12.73394,0,0,1-.2633,6.46277,20.45233,20.45233,0,0,0-.95744,3.758,6.32071,6.32071,0,0,0,0,1.867,6.46684,6.46684,0,0,0,1.231,2.70283c.42706.63371.85927,1.26207,1.22853,1.17305.31776-.0766.46091-.65089.46143-.68756.00418-.3008-.09126-.59938-.06128-.89871a3.92331,3.92331,0,0,1,.40537-1.23394c.40533-1.01689-.36434-1.50312-.26119-2.77391.09169-1.12953.72187-1.01753,1.06525-2.44665.26737-1.11279-.09708-1.254.114-2.83263.14318-1.07058.31035-1.00224.53224-2.31366.08368-.49456.14995-1.25557.28248-2.77757.126-1.44708.14489-1.896.53135-2.34476.22251-.25836.403-.32632.84072-.83728.58167-.67892.634-.97946.62217-1.14373a1.77765,1.77765,0,0,0-.30339-.755A5.71926,5.71926,0,0,0,5.80683.74979,2.28589,2.28589,0,0,0,4.90515.11585C3.79439-.19037,2.42159,1.29346,1.80434,2.286A5.72909,5.72909,0,0,0,.97962,5.334Z"/>
   <path class="a"
         d="M9.25356,7.65575c.152-.02651.266.2135.57446.54255a3.34172,3.34172,0,0,0,.54256.47873c.51423.35007.92178.31922.95744.54254.01521.0952-.047.175-.15957.31916a1.93108,1.93108,0,0,1-.57447.44681,3.268,3.268,0,0,0-.6383.47872,2.52418,2.52418,0,0,0-.44681.70212c-.2679.53737-.16925.561-.35106.86171-.27173.44939-.51082.36046-.8617.89362a3.55555,3.55555,0,0,0-.28724.54255c-.1053.259-.10651.36585-.2234.6383a1.7058,1.7058,0,0,1-.25532.47872c-.2988.3478-.547.23816-.82979.57447a1.98186,1.98186,0,0,0-.25531.47873,6.05019,6.05019,0,0,0-.25533.734,2.73007,2.73007,0,0,1-.70212.95744c-.51924.55339-1.30971,1.26758-1.40426,1.18086-.03569-.03273.05211-.15721.383-.734A7.27885,7.27885,0,0,0,5.10462,16.56c.10138-.61656-.28276-.86615-.06383-1.43617a2.7043,2.7043,0,0,1,.25532-.44681,9.4004,9.4004,0,0,1,.57447-.766c.31043-.41177.236-.41487.57447-.89361.3993-.56487.44505-.47876.67021-.86171.16193-.27541.09666-.24918.47872-1.05319a5.30059,5.30059,0,0,0,.25532-.57447,3.25593,3.25593,0,0,0,.19149-.734c.065-.51025.02687-.59352.12766-.70213.17351-.187.4181-.08218.51064-.25533.09065-.1696-.11944-.31622-.03192-.54254.05109-.13209.13345-.11006.35106-.35107C9.18048,7.74112,9.17319,7.66975,9.25356,7.65575Z"/>

</g>
</svg>
