<?xml version="1.0" encoding="UTF-8"?>
<svg xmlns="http://www.w3.org/2000/svg"
     version="1.1"
     width="20.53153167mm"
     height="25.26311790mm"
     viewBox="0.00000000 0.00000000 58.19962802 71.61201536">

<g transform="scale(4.67561906)">   <defs>
      <style type="text/css"><![CDATA[
      .a {
        stroke: #000;
        stroke-linecap: round;
        stroke-linejoin: round;
        stroke-width: 0.01px;
      }
    ]]></style>
   </defs>
   <path class="a"
         d="M7.09161.05461c0,.02423-.103.09691-.2241.16354a1.8659,1.8659,0,0,0-.33313.218A.418.418,0,0,1,6.28.54522c-.51484,0-.97516.38764-1.35069,1.13264a1.5755,1.5755,0,0,1-.2726.44214,1.40945,1.40945,0,0,0-.26651.33313,4.19769,4.19769,0,0,1-.51483.642c-.18777.19382-.29679.3513-.29679.44216,0,.1393-.13931.33918-.23017.33918-.02422,0-.07268.09086-.109.19382-.0424.109-.09691.27862-.13325.38159-.03634.09691-.09691.29679-.13325.4361-.0848.32707-.25439.43-.41793.2665-.28468-.28467-.50272-.3089-.98122-.11508-.38764.15142-.51484.25439-.56329.43A.98756.98756,0,0,1,.647,5.80868a1.09427,1.09427,0,0,0-.39975.37553.433.433,0,0,1-.15748.19987c-.06057.02423-.0848.15748-.0848.533,0,.4361.01817.5209.1272.61175A.21139.21139,0,0,1,.217,7.753c-.02423.06662-.01211.12113.02423.12113.12114,0,.26045.29073.19988.39976C.36844,8.401.57438,8.75839.75,8.819a.36674.36674,0,0,1,.17565.18171c.03634.07874.09085.14536.11508.14536s.06057.05452.0848.11509a.67407.67407,0,0,0,.58752.32707.30487.30487,0,0,1,.34845.25392l.00285.0247a.56683.56683,0,0,1-.1272.27256,2.20645,2.20645,0,0,0-.24833.50878,6.9179,6.9179,0,0,1-.3089.7026,1.06457,1.06457,0,0,0-.17565.62992,1.28482,1.28482,0,0,1-.13931.59963c-.12114.24834-.13931.3513-.09085.4361a.31211.31211,0,0,1,.03028.19988c-.06057.17565.48455.59963.642.49666.03029-.01817.14537.01818.25439.07874a2.54936,2.54936,0,0,0,1.01151.35736,1.89957,1.89957,0,0,1,.751.1272c.0848.04845.1696.03028.36948-.0848a2.11774,2.11774,0,0,1,.37552-.16959,4.02368,4.02368,0,0,0,1.07813-.55118.55274.55274,0,0,1,.20594-.14537c.103,0,.36341.29679.40581.46033.03029.109.06663.13931.15142.11508.07269-.02423.15748.01211.24228.11508a.68146.68146,0,0,0,.26045.18171.65407.65407,0,0,1,.33918.50272.98441.98441,0,0,0,.19988.37553c.18171.23622.212.25439.41793.22411a.72444.72444,0,0,0,.35736-.16354.28867.28867,0,0,1,.24227-.09691c.06663.01817.11509,0,.11509-.0424a.50008.50008,0,0,1,.12113-.218.53613.53613,0,0,0,.12114-.19382A3.02463,3.02463,0,0,1,9.484,13.81c.05452,0,.09086-.03635.07269-.07874a.79933.79933,0,0,1,.25439-.50879c.05451-.03634.07874-.09085.05451-.109-.02423-.02423-.00606-.12114.0424-.218a.986.986,0,0,0,.09085-.38764.4853.4853,0,0,1,.12114-.33313.31329.31329,0,0,0,.109-.19988,2.49849,2.49849,0,0,1,.23017-.79951,1.17538,1.17538,0,0,0,.09085-.424c0-.81769.03029-.99334.17565-1.16293.212-.23622.25439-.26045.35736-.20594.34524.18171,1.10841-.2241,1.24167-.64809.02422-.07268.07268-.13325.103-.13325.06057,0-.06662-.16959-.3513-.46032a1.1937,1.1937,0,0,1-.23622-.33919c-.08479-.28467-.32707-.43-.76923-.47244-.43-.03634-.56329-.12114-.46638-.3089A6.4996,6.4996,0,0,0,10.762,5.54231a3.05553,3.05553,0,0,0-.02423-.99939,1.03546,1.03546,0,0,1,.06057-.6602c.07874-.19988.103-.33919.06663-.36342a.6436.6436,0,0,1-.212-.527c.06662-.11508-.27862-.95093-.36342-.89642a.824.824,0,0,1-.62386,0c-.12719-.0848-.15142-.07874-.2665.01817-.103.09086-.17565.103-.38159.06663-.13931-.03029-.2665-.07874-.27862-.12114a.71606.71606,0,0,0-.1393-.17565.57873.57873,0,0,1-.109-.636c.06057-.16959.04846-.23016-.0848-.50272a1.05292,1.05292,0,0,0-.539-.521C7.52166.03644,7.09161-.06047,7.09161.05461Z"/>

</g>
</svg>
