<?xml version="1.0" encoding="UTF-8"?>
<svg xmlns="http://www.w3.org/2000/svg"
     version="1.1"
     width="24.13875540mm"
     height="53.22377200mm"
     viewBox="0.00000000 0.00000000 68.42479473 150.87051430">

<g transform="scale(5.10555451)">   <defs>
      <style type="text/css"><![CDATA[
      .a {
        stroke: #000;
        stroke-linecap: round;
        stroke-linejoin: round;
        stroke-width: 0.01px;
      }
    ]]></style>
   </defs>
   <path class="a"
         d="M7.42179.09859a1.49131,1.49131,0,0,1-.37553.0848c-.06057,0-.109.02423-.109.05451a2.44077,2.44077,0,0,1-.61781.62386A.80663.80663,0,0,0,6.059,1.1525a.7138.7138,0,0,1-.3089.27256c-.20593.08479-.2241.08479-.56935-.1272A2.78194,2.78194,0,0,1,4.781,1.01924,2.04092,2.04092,0,0,0,4.4115.73457C4.22374.61343,4.00569.462,3.91484.40144A.47948.47948,0,0,0,3.63622.3227.27431.27431,0,0,1,3.43634.30453a.936.936,0,0,0-.3937.00606.67924.67924,0,0,0-.48458.2665A1.02545,1.02545,0,0,1,1.63135.989L1.33456.96473l-.38764.40582C.49874,1.849.32306,2.13977.36549,2.376a.51088.51088,0,0,1-.03634.29073C.208,2.8969.311,3.05438,1.21346,3.9932a1.97481,1.97481,0,0,1,.2665.34524c.0424.07874.103.13931.13931.13931.15142,0,.50878.3089.64809.56329.13931.24834.16959.27256.45427.315a2.6529,2.6529,0,0,0,.39975.03634h.33313A3.07131,3.07131,0,0,0,4.58715,5.3197a.78916.78916,0,0,1,.26045-.09085,6.92516,6.92516,0,0,0,1.07207-.36342L6.271,4.72612l.22408.19988a.67768.67768,0,0,1,.26045.527c.03634.26045.02423.33313-.07268.43-.0848.0848-.13931.09691-.23017.04846a2.0012,2.0012,0,0,0-1.19321.07874,1.74384,1.74384,0,0,1-.44215.13325,1.24025,1.24025,0,0,0-.424.15748,1.92138,1.92138,0,0,1-.92065.24228c-.72077-.03029-.848-.01817-1.18715.16353a.69546.69546,0,0,1-.27256.09691c-.01817-.01817-.09691,0-.1696.0424a1.02683,1.02683,0,0,1-.23622.0848.81067.81067,0,0,0-.52089.28467.67375.67375,0,0,1-.27862.24228.90308.90308,0,0,0-.44821.60569.63811.63811,0,0,1-.103.24833,1.91166,1.91166,0,0,0-.15142.3513C.0747,8.77821.02624,8.91146.00807,8.966c-.0424.09691.36342.58146.65415.77528.07874.05452.24833.1696.38764.26045a.93923.93923,0,0,0,.3513.16354,23.12214,23.12214,0,0,0,2.447-.07268c.04846-.01212.15142-.0424.22411-.06663.20593-.06663.36947.06057.44215.33919a1.98512,1.98512,0,0,0,.15142.37553.67816.67816,0,0,1,.06057.36947,1.59724,1.59724,0,0,0,.06057.47849.58115.58115,0,0,1,.03634.33313.75736.75736,0,0,0-.03028.3089,1.11836,1.11836,0,0,1-.03634.33919.68359.68359,0,0,0,.01211.36342,2.01221,2.01221,0,0,1,.01817.90248c-.02423.2665-.05451.93276-.06662,1.48394-.04846,1.96849-.05452,2.06541-.218,2.48939a1.049,1.049,0,0,0-.01212.75711.26823.26823,0,0,1,.03029.28468,1.03869,1.03869,0,0,0-.06057.32707,1.5737,1.5737,0,0,1-.04846.38764,3.20884,3.20884,0,0,0-.04239.75712c.03028.70866.04239.81768.13325.97516a.67337.67337,0,0,1-.06663.59358,1.11954,1.11954,0,0,0-.03634.76317c.06057.19988.04846.26045-.109.60569-.1696.3513-.17565.39975-.09691.52089.09085.13325.08479.26045-.01212.745-.03028.16354-.0848.49667-.13325.86009a.57278.57278,0,0,0,.03028.321.528.528,0,0,1-.01817.35737,1.9962,1.9962,0,0,0-.04845.59357,1.331,1.331,0,0,1-.103.62387.54.54,0,0,0-.04845.50878.98411.98411,0,0,0,.212.33918.54157.54157,0,0,1,.16353.636c-.06662.13931-.05451.18776.103.424a.59712.59712,0,0,0,.72683.32708c.32707-.0424.58146-.2544.51484-.424a1.41033,1.41033,0,0,1,.3513-.88431.71135.71135,0,0,0,.24227-.212.35871.35871,0,0,0,.05452-.3937,1.76151,1.76151,0,0,1,.13931-.9691.894.894,0,0,0,.14536-.62386.71889.71889,0,0,1,.06057-.46033A2.07444,2.07444,0,0,0,6.57991,24.29c-.06663-.12114-.06057-.16354.04845-.315a.62223.62223,0,0,0,.1272-.3089c0-.34524.59963-.87825,1.0539-.93276.103-.01212.27862-.03634.38764-.05452a3.23774,3.23774,0,0,0,.79346-.424,3.32884,3.32884,0,0,1,1.1387-.53906,1.56952,1.56952,0,0,0,.7026-.30285c.09085-.09085.18776-.15142.218-.13325a.48512.48512,0,0,0,.2665-.05451c.15748-.06663.212-.12114.20594-.21805a.27654.27654,0,0,1,.13931-.23016,7.637,7.637,0,0,0,1.278-1.35675,2.88287,2.88287,0,0,1,.36342-.47244c.16353-.1272.109-.46033-.1272-.72077a.426.426,0,0,0-.40581-.18777c-.46033.00606-.6178.03634-.75711.16354a1.738,1.738,0,0,1-.67838.38764c-.04845,0-.15748.09085-.23016.20594a11.64375,11.64375,0,0,1-1.07207,1.278,1.55875,1.55875,0,0,0-.22411.1696c-.06057.05451-.20593.18776-.315.28467a2.4355,2.4355,0,0,1-.4361.30285,1.899,1.899,0,0,0-.44215.32707,1.65127,1.65127,0,0,1-.32707.2665,3.55773,3.55773,0,0,0-.37553.27862c-.22411.18777-.26651.20594-.43.14537a.44626.44626,0,0,1-.24228-.1696,2.06581,2.06581,0,0,1,.04846-.93882,1.617,1.617,0,0,0-.06663-.94487,1.08906,1.08906,0,0,1-.03028-.57541,10.57954,10.57954,0,0,0,.24833-2.14415,1.52644,1.52644,0,0,0-.06663-.64809.2186.2186,0,0,1-.03028-.212,6.15731,6.15731,0,0,0,.16354-1.29012c.01211-.16959.05451-.4785.09691-.69654.03634-.218.07268-.54513.08479-.73289a1.31249,1.31249,0,0,1,.15143-.56935.57209.57209,0,0,0,.103-.315.73667.73667,0,0,1,.11508-.37553,1.33613,1.33613,0,0,0,.14537-.67837,5.85058,5.85058,0,0,1,.11508-1.25378,1.3275,1.3275,0,0,0,.03029-.38159.53979.53979,0,0,1,.09691-.32707c.11508-.19988.12113-.23622.04239-.38159a.26683.26683,0,0,1-.02422-.27256A3.97653,3.97653,0,0,1,9.29339,8.451a13.35887,13.35887,0,0,0,1.25378-.71471c.636-.4361.82374-.533.98122-.49061a1.52113,1.52113,0,0,0,.94488-.48455c.28468-.38765.23622-.73895-.12114-.80557a1.82193,1.82193,0,0,1-.52089-.25439c-.321-.22411-.32707-.22411-.98728-.23622a4.53423,4.53423,0,0,0-1.01756.07874,2.89648,2.89648,0,0,1-.48455.08479.49827.49827,0,0,0-.24833.09086c-.25439.18776-.66626-.24228-.48456-.50878a.709.709,0,0,0,.07874-.3937.64291.64291,0,0,1,.06057-.36342c.04846-.05451.06663-.09691.0424-.09691-.01817,0,.00606-.103.06057-.23016a2.0009,2.0009,0,0,0,.12112-.34519,2.05729,2.05729,0,0,1,.0787-.32708c.03634-.11508.05451-.2241.03634-.23622a.29982.29982,0,0,1,.05451-.18776c.0424-.0848.12114-.24833.17565-.35736.07874-.15142.0848-.23016.0424-.321-.03634-.06056-.04846-.11508-.02423-.11508.01817,0,.00606-.03634-.03028-.08479a.874.874,0,0,1-.13931-.54513A2.40143,2.40143,0,0,0,7.97906.05014C7.79732-.01649,7.74886-.01649,7.42179.09859Z"/>

</g>
</svg>
