<?xml version="1.0" encoding="UTF-8"?>
<svg xmlns="http://www.w3.org/2000/svg"
     version="1.1"
     width="49.95915322mm"
     height="20.69015650mm"
     viewBox="0.00000000 0.00000000 141.61654810 58.64932662">

<g transform="scale(5.28647590)">   <defs>
      <style type="text/css"><![CDATA[
      .a {
        stroke: #000;
        stroke-linecap: round;
        stroke-linejoin: round;
        stroke-width: 0.01px;
      }
    ]]></style>
   </defs>
   <path class="a"
         d="M1.70093.12008c-.06662.13325-.23016.19988-.533.22411A.56664.56664,0,0,0,.79846.54407.58673.58673,0,0,1,.52589.73183C.47138.73183.429.75606.429.78634S.33207.90142.217.97411c-.20593.12719-.212.1393-.212.53906V1.925l.4361.206c.43.19987.44215.218.66626.6602a2.70969,2.70969,0,0,1,.23016.54512,1.092,1.092,0,0,0,.12114.321.6547.6547,0,0,1,.09691.27861c-.01817.03029.06057.14537.17565.26651a3.0332,3.0332,0,0,1,.67232,1.42337,3.66313,3.66313,0,0,0,.109.38159c.09691.27256.02423.424-.212.44821a1.31557,1.31557,0,0,0-.18171.02423c-.02423,0-.07268.08479-.11508.1817a1.28235,1.28235,0,0,1-.55118.55724c-.26045.13325-.6178.64809-.58146.8298a.857.857,0,0,1-.06057.38764A.75055.75055,0,0,0,.75606,8.836c.01817.09086.05451.23017.07268.315a.61659.61659,0,0,0,.19988.28468,1.21686,1.21686,0,0,1,.27256.36341.85525.85525,0,0,0,.95093.41187c.48456-.04845.55724-.06057.70866-.14536.07269-.03634.15748-.06057.18777-.0424s.09691-.03029.15142-.11508a1.00416,1.00416,0,0,1,.327-.27263,1.28319,1.28319,0,0,0,.58147-.5209.95179.95179,0,0,1,.68443-.58146A7.90254,7.90254,0,0,1,6.183,8.38776c.3513-.01817.75711-.03634.90853-.04845a1.12371,1.12371,0,0,0,.41187-.09086.373.373,0,0,1,.49061.103c.07874.14537-.06662.57541-.27256.81163a.66254.66254,0,0,0-.14536.37553.62284.62284,0,0,1-.09086.315.44118.44118,0,0,0-.09085.2241.66749.66749,0,0,1-.09691.27862c-.09691.15748-.09085.17565.103.44821.17565.24833.2241.28468.41792.28468.18171,0,.23622-.03029.29074-.15143.06662-.15142.12113-.17565.321-.15748.06057.00606.16354-.08479.24228-.218a2.43408,2.43408,0,0,1,.26045-.36947A.59307.59307,0,0,0,9.06613,9.89a1.51481,1.51481,0,0,1,.62992-.99334,2.61521,2.61521,0,0,1,1.175-.68443,1.30208,1.30208,0,0,1,.81162-.09085.77613.77613,0,0,0,.44216-.00606,1.4,1.4,0,0,1,.43609-.06057H13.209a2.47881,2.47881,0,0,1,.79952.09086.38773.38773,0,0,0,.29678-.03029c.15748-.08479.25439-.09691.8722-.13931a.90414.90414,0,0,1,.56329.06057c.109.07269.23017.0848.51484.04846.20593-.01817.43-.03634.49667-.03029.103.01212.69654.01817,1.3628.00606h.44216a.86464.86464,0,0,0,.32707-.05451.4401.4401,0,0,1,.315.03634.51987.51987,0,0,0,.41187.03028.53255.53255,0,0,1,.37553.00606.38508.38508,0,0,0,.32707,0,.27274.27274,0,0,1,.22411-.01817A.83854.83854,0,0,0,21.14361,7.97a.44587.44587,0,0,1,.27256-.03634,17.86892,17.86892,0,0,0,2.33191-.01818,1.13677,1.13677,0,0,1,.424.02423.29339.29339,0,0,0,.25439-.03634c.13325-.06663.19988-.07268.29679-.01817.09691.04846.19382.03634.4361-.05451a1.63975,1.63975,0,0,1,.76923-.13931c.424.01211.48455-.00606.6602-.16959a.50943.50943,0,0,0,.03028-.77529c-.08479-.07874-.18776-.13325-.23016-.12114a.29627.29627,0,0,1-.16959-.02422A2.05057,2.05057,0,0,0,25.65,6.52829a1.74888,1.74888,0,0,0-.77529.09086c-.49666.18776-.52089.19382-.69654.06056-.12114-.08479-.19382-.103-.26651-.06056a.20291.20291,0,0,1-.17565.01211A.87128.87128,0,0,0,23.1424,6.607c-.09691.04846-.14537.03634-.25439-.07268-.13326-.13325-.23017-.15142-1.04785-.17565a1.45838,1.45838,0,0,0-.72077.16354.25851.25851,0,0,1-.26651.01817,1.84533,1.84533,0,0,0-.55117-.04846,1.20888,1.20888,0,0,1-.58147-.09085.96735.96735,0,0,0-.3937-.09691.65839.65839,0,0,1-.33313-.0848.64244.64244,0,0,0-.212-.0848A6.76358,6.76358,0,0,1,17.673,6.0074c-.0848-.03029-.16354-.04846-.18171-.03029a2.49567,2.49567,0,0,1-.533-.06662,8.29483,8.29483,0,0,0-1.175-.09691c-.7026-.00606-.83585-.0424-.93882-.24228-.103-.18171.06663-.39976.36341-.4785A.48664.48664,0,0,0,15.5713,4.796c.09085-.18777.212-.27862.60569-.48456a2.93408,2.93408,0,0,1,.59358-.24833,2.60075,2.60075,0,0,0,.55723-.27256,5.23179,5.23179,0,0,1,.64809-.34525c.109-.04239.19988-.09691.19988-.12113,0-.09691.46033-.34525.75711-.41187a2.56335,2.56335,0,0,1,.59964-.06663.64953.64953,0,0,0,.44821-.12114.45785.45785,0,0,1,.28467-.103.80247.80247,0,0,0,.37553-.15143c.18171-.12719.27862-.15748.38764-.12114a1.793,1.793,0,0,0,.44822.03635,4.02416,4.02416,0,0,1,1.24166.04239c.27256.14537.96911-.01817.96911-.23016a.386.386,0,0,1,.11508-.18776,1.219,1.219,0,0,0,.16354-.90854c-.03635-.15748-.15748-.32707-.20594-.28467-.01211.01817-.109-.01212-.20593-.06057A.45091.45091,0,0,0,23.24536.7076a.41881.41881,0,0,1-.19382.03029,1.34108,1.34108,0,0,0-.636-.06663.78225.78225,0,0,1-.36342,0,.49985.49985,0,0,0-.41187.04846.86494.86494,0,0,1-.33313.109,1.62842,1.62842,0,0,0-.84191.23016,1.22976,1.22976,0,0,1-.3937.15748,1.66929,1.66929,0,0,0-.46638.18777.9356.9356,0,0,1-.47244.15748.41883.41883,0,0,0-.33313.12113,1.19318,1.19318,0,0,1-.56935.212,1.57719,1.57719,0,0,0-.49666.13325,1.79207,1.79207,0,0,1-.4361.16353,3.40707,3.40707,0,0,0-1.12053.54513,3.27659,3.27659,0,0,1-.79346.53906.48927.48927,0,0,0-.2241.218.4915.4915,0,0,1-.32707.212,1.94978,1.94978,0,0,0-.77529.30285c0,.03028-.11508.12719-.26045.218a4.98677,4.98677,0,0,0-.98727.71471c-.13931.13325-.37553.34525-.527.46638-.27256.212-.29073.218-.69049.19382-.23016-.01817-.49061-.04239-.58146-.05451a.56211.56211,0,0,0-.29074.03029.26132.26132,0,0,1-.27861-.01817c-.13931-.07874-.18171-.07269-.36342.03028a.59407.59407,0,0,1-.46032.0848A2.37218,2.37218,0,0,0,9.24179,5.65c-.12114.01211-.98728,0-1.52634-.01817A3.37909,3.37909,0,0,0,5.965,5.9226c-.73894.36342-.96911.424-1.16293.315a.7457.7457,0,0,1-.39975-.69049,1.0388,1.0388,0,0,0-.26045-.98122.26753.26753,0,0,1-.07874-.32707.72577.72577,0,0,0-.03028-.46033.49815.49815,0,0,1-.03029-.38764.2276.2276,0,0,0,.00606-.2241,3.94037,3.94037,0,0,1-.15748-.98122.707.707,0,0,0-.09086-.3513,1.245,1.245,0,0,1-.30284-.60569.29913.29913,0,0,0-.09691-.19988A1.01023,1.01023,0,0,1,3.16671.76211,3.83674,3.83674,0,0,0,2.8578.28967L2.64581.005H2.20366C1.83419.005,1.75545.02317,1.70093.12008Z"/>

</g>
</svg>
