<?xml version="1.0" encoding="UTF-8"?>
<svg xmlns="http://www.w3.org/2000/svg"
     version="1.1"
     width="15.75109086mm"
     height="49.31574428mm"
     viewBox="0.00000000 0.00000000 44.64872365 139.79269571">

<g transform="scale(4.36982859)">   <defs>
      <style type="text/css"><![CDATA[
      .a {
        stroke: #000;
        stroke-linecap: round;
        stroke-linejoin: round;
        stroke-width: 0.01px;
      }
    ]]></style>
   </defs>
   <path class="a"
         d="M8.69684.17459c-.533.54513-.56935.57541-.86008.58752a.63753.63753,0,0,0-.41793.13326,4.68536,4.68536,0,0,1-1.30829.6178,1.4291,1.4291,0,0,0-.44821.19988c-.527.38764-.93883.59358-1.12053.55723-.15143-.03028-.18171-.01817-.218.12114-.02423.09691-.13931.212-.32707.321a3.67444,3.67444,0,0,0-.45427.30284.59193.59193,0,0,1-.27862.13931A5.55287,5.55287,0,0,0,1.94338,4.475a1.2765,1.2765,0,0,1-.38764.39976c-.12114.04239-.19988.1393-.27256.33313a3.73151,3.73151,0,0,1-.27256.56935,2.17049,2.17049,0,0,0-.17565.321,3.44858,3.44858,0,0,1-.218.40582c-.16354.28468-.212.41793-.18776.5633a2.41316,2.41316,0,0,1-.01818.5754,1.602,1.602,0,0,0,.01212.533.30112.30112,0,0,1-.0424.29073A.80366.80366,0,0,0,.411,9.18122.78861.78861,0,0,1,.417,9.62943a.81628.81628,0,0,0,.04846.66626.54673.54673,0,0,1,.03028.3937,8.01969,8.01969,0,0,0-.05451.88431,3.11814,3.11814,0,0,1-.07268.75711A11.29936,11.29936,0,0,0,.3807,14.5113c.07268.6178.07874.72077.01211.84191a1.40127,1.40127,0,0,0-.04845.45427,1.25712,1.25712,0,0,1-.04846.424.53238.53238,0,0,0-.006.30285,1.77889,1.77889,0,0,1,.05451.92065c-.05451.103-.0424.16959.0424.32707.103.19382.103.20594-.06663.60569-.16354.37553-.16959.41187-.07874.55724.0848.14536.0848.18171.00606.37553a1.68031,1.68031,0,0,0-.0424,1.07207c.07874.19382.07874.22411-.07268.50878-.15143.29073-.15748.315-.07269.57541a.62957.62957,0,0,1,.0424.33918.33823.33823,0,0,0,.0424.24834c.04846.09085.07268.16959.06057.16959a2.19727,2.19727,0,0,0,.17565.49061,2.91985,2.91985,0,0,1,.212.62386.65683.65683,0,0,0,.45427.46033,1.77193,1.77193,0,0,0,.48455-.20594,1.41791,1.41791,0,0,1,.56935-.20593.67714.67714,0,0,0,.55118-.321c.22411-.46638.29073-.55724.53907-.72077.44821-.28468.533-.38764.636-.73289a1.46574,1.46574,0,0,1,.40582-.636l.3089-.30891-.13325-.315c-.13931-.31495-.13931-.32707-.02423-1.04784A.48191.48191,0,0,0,4.3299,18.957a.2508.2508,0,0,1-.06057-.20593.369.369,0,0,0-.07278-.23011,1.15481,1.15481,0,0,1-.109-.47243,1.51571,1.51571,0,0,0-.09691-.47244,11.93578,11.93578,0,0,1-.03029-2.90732c.09691-.23016.11509-.67232.02423-.67232-.03028,0-.103-.06662-.15748-.15142-.09085-.13931-.09085-.16354.00606-.3089a.56165.56165,0,0,0,.06662-.41187,1.43143,1.43143,0,0,1,.01212-.43,1.15156,1.15156,0,0,0-.00608-.4543,12.47131,12.47131,0,0,1-.12114-1.58086.976.976,0,0,1,.15143-.60569c.14536-.25439.15142-.27861.06662-.44215a1.44731,1.44731,0,0,1-.103-.24228,1.917,1.917,0,0,0-.09085-.2241c-.06662-.13325-.06057-.18777.03029-.36342.12719-.23016.13325-.29073.14536-.84191a1.90967,1.90967,0,0,0-.19382-1.06c-.13325-.2241-.13325-.27861-.01211-.56329a1.01609,1.01609,0,0,0,.09085-.38159.54789.54789,0,0,1,.13325-.33313,1.28273,1.28273,0,0,0,.218-.43609,1.37708,1.37708,0,0,1,.23622-.44821c.4361-.50878.61175-.65415.75711-.65415a1.92,1.92,0,0,0,.8722-.53907c.24833-.24833.41793-.32707.55724-.25439.218.12114.19382.24228-.11509.56935a1.9191,1.9191,0,0,0-.30284.37553,2.62877,2.62877,0,0,1-.18777.44821A1.6222,1.6222,0,0,0,5.85,5.329a1.33382,1.33382,0,0,1-.09085.44822.50152.50152,0,0,0-.01212.424,1.58769,1.58769,0,0,1,.12114.55723.99563.99563,0,0,0,.13931.36342,1.05052,1.05052,0,0,1,.12719.72683,5.698,5.698,0,0,1-.1393,1.21138c-.05452.18776-.04846.26045.01211.33313a2.00723,2.00723,0,0,1,.29073,1.44155.49186.49186,0,0,1-.19382.424.51075.51075,0,0,0-.03028.76923c.1393.13325.15142.1817.11508.44215A16.89552,16.89552,0,0,0,6.171,14.20849a1.75112,1.75112,0,0,1-.07269.30285A5.09938,5.09938,0,0,0,6.03785,15.965a3.69639,3.69639,0,0,1-.07874,1.02967.6743.6743,0,0,0,.11509.533c.11508.218.1393.321.09085.39976a1.70494,1.70494,0,0,0,.02423,1.0115.43987.43987,0,0,1,0,.48455,3.40021,3.40021,0,0,0-.15748,1.14476,6.45209,6.45209,0,0,0,.11508,1.39915.57191.57191,0,0,1-.01817.51483A7.897,7.897,0,0,0,6.05,24.487a2.80837,2.80837,0,0,1-.03029.533,1.63493,1.63493,0,0,0,.109,1.02362A.2808.2808,0,0,1,6.165,26.292a.21535.21535,0,0,0,.01211.19988.73875.73875,0,0,1,.02423.33918c-.01817.12114-.04845.45427-.06663.73895a3.84936,3.84936,0,0,1-.07874.66626.73145.73145,0,0,0,.06663.47244c.103.27861.109.36341.04846.533a2.01808,2.01808,0,0,0,.03028.94487,4.71865,4.71865,0,0,0,.17565.86008,1.2402,1.2402,0,0,1,.12114.27257,1.05168,1.05168,0,0,0,.18776.321.63905.63905,0,0,1,.14537.26045c0,.06057.07874.0848.30284.0848.40582,0,.59358-.09692.739-.38765a2.04687,2.04687,0,0,1,.29679-.43609.89088.89088,0,0,0,.20593-.33313.39514.39514,0,0,1,.16354-.23622,5.91564,5.91564,0,0,0,.533-.48456,1.782,1.782,0,0,0,.53906-.81768,2.35057,2.35057,0,0,0,.13325-.60569,2.49129,2.49129,0,0,0-.18776-.99939,2.69793,2.69793,0,0,1-.06663-1.44155,1.07516,1.07516,0,0,0,.02423-.37552.467.467,0,0,1,.06057-.27862,1.10518,1.10518,0,0,0-.06057-1.01151c-.15142-.2241-.15748-.23016-.05451-.45426a2.20418,2.20418,0,0,0,.13325-.39976,1.0711,1.0711,0,0,1,.06057-.23016c.01817-.02423-.01211-.109-.06057-.18171a2.16124,2.16124,0,0,1-.11508-.68443,3.02034,3.02034,0,0,0-.1272-.76923.73475.73475,0,0,1-.01211-.58752,2.91787,2.91787,0,0,0,.07268-.65414,2.72467,2.72467,0,0,1,.07269-.66627.89569.89569,0,0,0,.02422-.54512c-.1817-.49061-.19987-.79345-.06057-1.02967a.4778.4778,0,0,0,.04846-.46033.528.528,0,0,1,.05451-.50272,1.02885,1.02885,0,0,0,.0424-.87825,1.15631,1.15631,0,0,1-.02423-.57541c.03029-.19382.06057-.50878.06663-.69049a1.34957,1.34957,0,0,1,.05451-.39975.39623.39623,0,0,0-.02423-.25439c-.06057-.15143-.04845-.24228.0424-.51484a.67622.67622,0,0,0,.0424-.52089.44732.44732,0,0,1-.01817-.30285A5.60793,5.60793,0,0,0,9.92639,12.028a12.94416,12.94416,0,0,1,.02423-1.39309,6.6164,6.6164,0,0,0,.00606-1.15082,1.21735,1.21735,0,0,1,.05451-.424,2.27014,2.27014,0,0,0,.05451-.60569,1.01112,1.01112,0,0,1,.0848-.527c.07268-.1272.07874-.18171.01817-.25439a.931.931,0,0,1-.01817-.77529.30068.30068,0,0,0,.01817-.33918,1.463,1.463,0,0,1-.06663-.50273c0-.1817.00606-.37553.00606-.43609,0-.05452.00605-.17565.00605-.27257a1.70578,1.70578,0,0,0-.03634-.37552,1.47382,1.47382,0,0,1,.01817-.77529,2.17024,2.17024,0,0,0-.34524-1.50211c-.05451-.03634-.09085-.22411-.109-.49667a1.60031,1.60031,0,0,0-.109-.56935,1.794,1.794,0,0,1-.15142-.40581C9.32681.968,9.32681.95589,9.563.72573L9.80525.48955,9.67806.24728C9.557.005,9.55086.005,9.20562.005,8.90883.01106,8.83615.03528,8.69684.17459Z"/>

</g>
</svg>
