<?xml version="1.0" encoding="UTF-8"?>
<svg xmlns="http://www.w3.org/2000/svg"
     version="1.1"
     width="47.91827926mm"
     height="24.03717577mm"
     viewBox="0.00000000 0.00000000 135.83130520 68.13686867">

<g transform="scale(4.54756027)">   <defs>
      <style type="text/css"><![CDATA[
      .a {
        stroke: #000;
        stroke-linecap: round;
        stroke-linejoin: round;
        stroke-width: 0.01px;
      }
    ]]></style>
   </defs>
   <path class="a"
         d="M28.98732.04183a5.173,5.173,0,0,0-.89642.79951,2.60355,2.60355,0,0,1-.88431.67232,2.27324,2.27324,0,0,0-.71472.79951.78022.78022,0,0,1-.2241.29074.94275.94275,0,0,0-.27256.3089.82229.82229,0,0,1-.24834.2665.4229.4229,0,0,0-.17565.1696,2.23141,2.23141,0,0,1-.963.52695,1.27135,1.27135,0,0,0-.31495.12113c-.11509.06663-.38159.19988-.59358.30891a1.38377,1.38377,0,0,0-.4361.29679.8019.8019,0,0,1-.54512.23016,2.78442,2.78442,0,0,0-.94488.0848,5.00944,5.00944,0,0,1-2.59841.50272,5.27637,5.27637,0,0,0-1.5748.15142,2.28679,2.28679,0,0,1-.58146.09691c-.218.01212-.61781.06057-.87826.103a2.517,2.517,0,0,1-1.18715-.01211,3.21885,3.21885,0,0,0-.72683-.03029,1.57523,1.57523,0,0,1-.84191-.09085,1.16684,1.16684,0,0,0-.62992-.09691,13.66824,13.66824,0,0,1-1.96849.02422c-.36342-.03634-.48456-.02422-.61781.05452-.09691.05451-.16959.12113-.16959.14536a4.9253,4.9253,0,0,1-1.21144.751.82843.82843,0,0,0-.30285.15142c0,.04846-.27256.16354-.46032.19988a.73378.73378,0,0,0-.27862.16959,6.059,6.059,0,0,1-.90854.739,2.70635,2.70635,0,0,0-.44215.33918,2.97607,2.97607,0,0,1-.4361.33919,1.97553,1.97553,0,0,0-.44821.38159.77588.77588,0,0,1-.33919.25439.64976.64976,0,0,0-.27862.17565.99589.99589,0,0,1-.34524.218,1.02022,1.02022,0,0,0-.36342.212,2.10173,2.10173,0,0,1-.73288.47849,1.57849,1.57849,0,0,0-.99334.72683c-.01817.06663-.06056.12114-.08479.12114a1.12521,1.12521,0,0,0-.26045.19382,2.41123,2.41123,0,0,1-.75106.533c-.04239,0-.09691.06057-.11508.12719a2.319,2.319,0,0,1-.76317.75106,1.94235,1.94235,0,0,0-.33918.23016L.005,12.97939l.15142.13931a.67563.67563,0,0,1,.18171.3089c.06057.27862.19382.46639.35735.50878.19988.05452.58752.45427.54513.5633a.33421.33421,0,0,1-.15143.13325c-.12114.05451-.12114.06057.03029.19988l.15142.14536.07268-.15748c.1272-.27862.34525-.27256.47244.006.07269.15142.07874.15749.13931.04241.09085-.15749.16959-.20595.27256-.1696.04846.01818.07874.01212.06663-.01817-.05451-.20593.2665-.50879.533-.50879a1.70307,1.70307,0,0,0,.41187-.15748,3.62794,3.62794,0,0,1,1.19321-.39975.78932.78932,0,0,0,.3937-.15141.88347.88347,0,0,1,.50878-.1696,2.95141,2.95141,0,0,0,.71471-.17565,4.81431,4.81431,0,0,1,.57541-.18776c.68443-.103.76923-.103.91459-.00606a.37245.37245,0,0,0,.59358-.14537.17161.17161,0,0,1,.12114-.08479.59751.59751,0,0,0,.25439-.17565c.15142-.16354.16353-.16354.33918-.07269.1696.0848.19383.0848.27862,0a.41893.41893,0,0,1,.25439-.09691,3.46373,3.46373,0,0,0,1.49-.38764,1.49141,1.49141,0,0,1,.848-.23623c.33919-.0121.49061.00606.55118.06057.109.11508.19382.109.26045-.01817a.56362.56362,0,0,1,.642-.0424.304.304,0,0,1,.09691.17565c0,.04846.0848.13931.18171.212.23622.1696.45426.12114.76317-.16353a3.42154,3.42154,0,0,1,.46638-.35736c.12114-.0848.23016-.18776.23016-.23622.00606-.04845.01212-.16354.02423-.26045a3.60243,3.60243,0,0,1,.05451-.38158.53409.53409,0,0,0-.109-.47244c-.09086-.13931-.19382-.24833-.23622-.24228a.58252.58252,0,0,1-.14537,0,2.42091,2.42091,0,0,1-.62386-.6178c0-.103-.4361-.28468-.75711-.321A2.20859,2.20859,0,0,1,12.83352,9a1.13824,1.13824,0,0,0-.62992.109,2.609,2.609,0,0,1-.80557.15748c-.78739-.01212-.91459,0-1.00544.109a4.07257,4.07257,0,0,0-.45427.61781,5.37049,5.37049,0,0,1-.8298.38764c-.46032.19382-.93276.39975-1.0539.46638a1.29412,1.29412,0,0,1-.56329.11508.56525.56525,0,0,0-.55724.218c-.18776.19988-.23016.218-.44821.18171a1.02142,1.02142,0,0,0-.3937.02423,2.07721,2.07721,0,0,1-.38158.09085,7.0075,7.0075,0,0,0-.79346.17565c-.41187.109-.60569.13325-.68443.09085a.18844.18844,0,0,0-.16354-.02422c-.08479.04845-.24833-.13931-.212-.24228a1.31078,1.31078,0,0,1,.36947-.27862,1.15115,1.15115,0,0,0,.3937-.33313.35236.35236,0,0,1,.17565-.17565.56972.56972,0,0,0,.218-.218c.05451-.09691.1272-.18171.15142-.18171.02423-.00605.07874-.01211.11508-.01817a.2346.2346,0,0,0,.13326-.09691,3.31256,3.31256,0,0,1,.79951-.56935.28153.28153,0,0,0,.16354-.109,2.15168,2.15168,0,0,1,.70872-.47239.35532.35532,0,0,0,.206-.12114.2937.2937,0,0,1,.411-.05984l.00692.00533c.15748.0848.212.02423.09085-.09691-.1272-.1272-.06663-.2665.13325-.3089a5.18456,5.18456,0,0,0,1.33858-.745,1.9773,1.9773,0,0,1,.33919-.30285.92178.92178,0,0,1,.745-.27862,2.27579,2.27579,0,0,0,.642-.109,1.867,1.867,0,0,1,1.15081-.00606,2.09145,2.09145,0,0,0,.39976.11508.86549.86549,0,0,1,.28467.0848.30184.30184,0,0,0,.26045.01211.5689.5689,0,0,1,.38764.06057,1.32974,1.32974,0,0,0,.44216.11508c.19382,0,.36341.12114.54512.39976.05451.07874.08479.09085.109.0424a.84175.84175,0,0,1,.57541-.16959.5619.5619,0,0,0,.19382.06056.89934.89934,0,0,1,.23622.06057c.07874.03029.12719,0,.17565-.11508.09085-.19382.26045-.24227.64809-.19382a9.87436,9.87436,0,0,1,.98728.15142.555.555,0,0,0,.321-.00605.1893.1893,0,0,1,.16959-.01212,2.34228,2.34228,0,0,0,.99334-.04845c.12719-.06057.19382-.04846.35736.03634.19987.109.20593.109.36947-.01817a.61915.61915,0,0,1,.27862-.1272.57822.57822,0,0,0,.26044-.09691c.0848-.05451.15143-.07874.15143-.06057,0,.02423.06662-.00605.15142-.06057.14536-.09691.16959-.09691.3937.00606.13325.06057.24227.13931.24227.1696,0,.03634.03634.01817.07874-.03635a1.02255,1.02255,0,0,1,.38765-.212,1.76446,1.76446,0,0,0,.41187-.19382.44534.44534,0,0,1,.27861-.07268c.09691.006.17565-.01212.17565-.04846s.09086-.103.20594-.15142a.38923.38923,0,0,0,.24227-.23622c.03029-.12114.103-.17565.34525-.24228a.85261.85261,0,0,1,.36341-.06057.23346.23346,0,0,0,.17565-.03634.21385.21385,0,0,1,.22411-.00605c.07874.04239.13931.01211.26045-.109a2.13385,2.13385,0,0,1,.36341-.27862,3.65728,3.65728,0,0,0,.636-.424,1.31125,1.31125,0,0,1,.49061-.33313.10664.10664,0,0,0,.09691-.06663.20139.20139,0,0,1,.12719-.07874.23808.23808,0,0,0,.15142-.07268,4.94345,4.94345,0,0,1,.49667-.35736c.24833-.16959.49061-.33918.533-.38158a1.99038,1.99038,0,0,1,.33919-.19988,2.27075,2.27075,0,0,0,.43-.30284c.103-.09692.321-.30285.48455-.46033a1.94557,1.94557,0,0,0,.38764-.49061c.0424-.103.109-.19382.13931-.19382s.07874-.07874.11508-.16959a.64394.64394,0,0,1,.23622-.27862.75067.75067,0,0,0,.27256-.27862.65129.65129,0,0,1,.212-.24228c.17566-.09691.15143-.72683-.03028-.72683a.346.346,0,0,1-.27256-.32707c0-.13931-.17565-.34524-.27862-.33313C29.13269.01155,29.054.02972,28.98732.04183Z"/>

</g>
</svg>
