<?xml version="1.0" encoding="UTF-8"?>
<svg xmlns="http://www.w3.org/2000/svg"
     version="1.1"
     width="26.16377651mm"
     height="24.11232239mm"
     viewBox="0.00000000 0.00000000 74.16510316 68.34988809">

<g transform="scale(5.48693194)">   <defs>
      <style type="text/css"><![CDATA[
      .a {
        stroke: #000;
        stroke-linecap: round;
        stroke-linejoin: round;
        stroke-width: 0.01px;
      }
    ]]></style>
   </defs>
   <path class="a"
         d="M4.578.14431a.37269.37269,0,0,0-.103.24833c.03028.13931-.23622.533-.49061.72683a6.17372,6.17372,0,0,0-.73894.94488,4.3746,4.3746,0,0,1-.642.81768A.767.767,0,0,0,2.343,3.1c-.13325.15748-.15143.22411-.13325.55724a1.5425,1.5425,0,0,1-.02423.46638.19293.19293,0,0,0,0,.18171.33462.33462,0,0,1-.00606.23016,2.22007,2.22007,0,0,0-.03028.93882.57036.57036,0,0,1-.03029.35736,1.78423,1.78423,0,0,0-.09085.28467,3.8682,3.8682,0,0,1-.16354.71472c-.02423.01817-.01211.08479.01817.14536.04846.07874.01817.19988-.09085.46033a2.104,2.104,0,0,0-.15142,1.10841c.02422.642-.0424.83586-.36342.99939a.85258.85258,0,0,0-.29679.321,1.58,1.58,0,0,1-.27256.36947,2.88039,2.88039,0,0,0-.34524.4361,1.06392,1.06392,0,0,1-.26651.321C.03528,11.01638.005,11.11329.005,11.295c0,.24833.01817.27862.28467.45427a1.11636,1.11636,0,0,0,.4361.19382,6.09949,6.09949,0,0,0,1.0963-.03028.511.511,0,0,1,.49667.109.5538.5538,0,0,0,.321.12114c.04845-.01817.15142.03634.24227.13325l.15748.17565.103-.13325A2.95125,2.95125,0,0,1,4.82025,11.719a3.64612,3.64612,0,0,0,.55118-.05451.99773.99773,0,0,1,.41793.02423c.20593.05451.24833.04845.39976-.07874a.46451.46451,0,0,1,.36947-.1272,1.55078,1.55078,0,0,0,.49061-.07268,3.47823,3.47823,0,0,1,.66626-.109,3.67526,3.67526,0,0,0,.642-.0848A1.00594,1.00594,0,0,1,8.733,11.18a.374.374,0,0,0,.30284-.109.4872.4872,0,0,0,.212-.41792c.02423-.23622,0-.29073-.212-.5209a3.0951,3.0951,0,0,1-.26044-.29678A1.51992,1.51992,0,0,0,8.43617,9.575,1.04564,1.04564,0,0,1,7.879,8.5513c.02423-.13325.03634-.24833.01817-.24833-.01211,0,.00606-.05452.0424-.12114a.55665.55665,0,0,0-.00605-.38764c-.06663-.26045-.06057-.29074.12113-.55724a1.79913,1.79913,0,0,0,.18777-.33313,1.29867,1.29867,0,0,1,.321-.25439A9.97184,9.97184,0,0,0,9.95646,5.34114a1.17894,1.17894,0,0,1,.37553-.3089,1.80811,1.80811,0,0,0,.47244-.36948,3.83941,3.83941,0,0,1,.67837-.533,4.73923,4.73923,0,0,0,.95094-.59964.80264.80264,0,0,1,.41187-.19382c.23622,0,.7874-.53906.642-.6178-.16959-.09691-.212-.25439-.15142-.533.06663-.29073.01817-.36342-.23016-.36342a.43121.43121,0,0,1-.26045-.12114c-.109-.109-.11508-.14536-.04846-.26044.0848-.13931.109-.70866.03635-.70866-.02423,0-.0848-.07874-.13931-.17565-.0666-.13932-.14534-.18778-.3452-.22412a1.4,1.4,0,0,0-1.35675.36342,2.1938,2.1938,0,0,1-.43609.30284.81359.81359,0,0,0-.23622.24228,1.55064,1.55064,0,0,1-.424.38158,2.1856,2.1856,0,0,0-.45426.35131,1.646,1.646,0,0,1-.3937.3089,1.13892,1.13892,0,0,0-.29073.18776,4.68022,4.68022,0,0,1-.41793.34525c-.41187.315-.53907.30284-.636-.07269-.03028-.12113-.07268-.3089-.103-.40581-.02423-.103-.04846-.212-.05452-.24228A9.11334,9.11334,0,0,0,6.91584.98622a1.29381,1.29381,0,0,0-.3513-.36947C6.48585.58041,6.42528.52589,6.42528.49561A.87853.87853,0,0,0,6.21935.223L6.01947.005h-.6602C4.74752.005,4.693.01711,4.578.14431Zm.09085,4.28223a1.79575,1.79575,0,0,1,.424.75712c0,.0424.06663.12114.15143.17565a.48387.48387,0,0,1,.18776.2665,2.69814,2.69814,0,0,0,.16354.40582c.06662.13325.16353.321.20593.41187a1.00334,1.00334,0,0,1,.07269.424.95517.95517,0,0,0,.11508.50272c.07874.15143.103.27256.07268.32708a.21539.21539,0,0,0,.01211.19987.52375.52375,0,0,1,.03029.27862.454.454,0,0,0,.02423.26045c.08479.15748-.09086.46032-.29074.50878-.109.03028-.2665-.01211-.54512-.15142A1.483,1.483,0,0,0,4.578,8.60581c-.43,0-.59964-.14536-.55724-.47244a.83361.83361,0,0,0-.05451-.38158.30078.30078,0,0,1-.03029-.23016.61083.61083,0,0,0-.006-.33313A.99066.99066,0,0,1,3.948,6.47378a.85408.85408,0,0,0,.09085-.29073,2.75723,2.75723,0,0,1,.18774-.86.82411.82411,0,0,0,.04845-.40582c-.01211-.24833.00606-.34524.09691-.43609.13325-.13329.14537-.13329.29679-.05455Z"/>

</g>
</svg>
