<?xml version="1.0" encoding="UTF-8"?>
<svg xmlns="http://www.w3.org/2000/svg"
     version="1.1"
     width="37.86239490mm"
     height="47.76601982mm"
     viewBox="0.00000000 0.00000000 107.32654034 135.39973665">

<g transform="scale(6.45746798)">   <defs>
      <style type="text/css"><![CDATA[
      .a {
        stroke: #000;
        stroke-linecap: round;
        stroke-linejoin: round;
        stroke-width: 0.01px;
      }
    ]]></style>
   </defs>
   <path class="a"
         d="M12.985.18065a2.169,2.169,0,0,1-.3513.38159A.97019.97019,0,0,0,12.37321.853a1.35478,1.35478,0,0,1-.51484.48455,1.00636,1.00636,0,0,0-.3089.2665,1.904,1.904,0,0,0-.4361,1.04179c.01817.0424-.02422.14537-.09085.23017a.54859.54859,0,0,0-.04846.71471,1.66564,1.66564,0,0,0,1.066.35736.97213.97213,0,0,1,.3937.01211.66526.66526,0,0,0,.65415-.17565,1.43664,1.43664,0,0,0,.04239-1.066,1.13921,1.13921,0,0,1,.09691-1.02968.70338.70338,0,0,1,.30285-.321,2.40262,2.40262,0,0,1,.98122-.006,1.20435,1.20435,0,0,1,.212.3937c.103.27861.103.34524.03634.48455a.337.337,0,0,0-.03028.29073,1.8481,1.8481,0,0,1,.02423.49061,1.40734,1.40734,0,0,1-.5633,1.10236,2.72116,2.72116,0,0,1-1.4052.44821,1.418,1.418,0,0,0-.51484.109,1.45191,1.45191,0,0,1-.47244.1272,1.20558,1.20558,0,0,0-.33918.07268.41854.41854,0,0,1-.25439-.06662.78862.78862,0,0,0-.49061-.06057c-.27862.03634-.30891.03028-.46033-.14537a.42962.42962,0,0,0-.37553-.18171.72712.72712,0,0,1-.35735-.09691c-.13326-.09691-.1696-.09085-.58752.03635-.41793.13325-.44822.13325-.59358.04239a1.195,1.195,0,0,0-.9146-.01817c-.25439.07269-.321.07269-.43,0-.13325-.07874-.2665-.06057-.72077.1272a.94131.94131,0,0,1-.3937.04845,1.15019,1.15019,0,0,0-.77528.07874,1.035,1.035,0,0,1-.44821.11508.894.894,0,0,0-.36342.07269,4.563,4.563,0,0,1-.49061.26044,1.53114,1.53114,0,0,0-.50271.333,1.59789,1.59789,0,0,1-.424.33313.83811.83811,0,0,0-.41793.39976.487.487,0,0,1-.27256.28468c-.09691.03634-.18171.09085-.18171.109a2.89375,2.89375,0,0,1-.35736.40581,2.135,2.135,0,0,0-.3937.48456.548.548,0,0,1-.1817.218.88165.88165,0,0,0-.24834.3937,1.07482,1.07482,0,0,1-.1817.36948.61947.61947,0,0,0-.1272.29678A1.50767,1.50767,0,0,1,.09585,9.478C.02317,9.50224.005,9.68394.005,10.45923c0,.93276,0,.95093.15142,1.09024a.43376.43376,0,0,1,.15143.315c0,.13325.07874.2665.30284.50272A1.66251,1.66251,0,0,1,.962,12.876a1.34363,1.34363,0,0,0,.75712.59964,1.21675,1.21675,0,0,1,.424.3089,2.36832,2.36832,0,0,0,.60569.424,1.03484,1.03484,0,0,1,.34524.19383,1.36121,1.36121,0,0,0,.424.24833,1.12242,1.12242,0,0,1,.60569.50272.86812.86812,0,0,0,.23622.29679,3.387,3.387,0,0,1,.539.41182c.26651.22411.54513.44821.61781.49667a.6789.6789,0,0,1,.18776.36341,2.04433,2.04433,0,0,0,.15748.46033c.09086.1817.09086.19988-.01817.3937a.64935.64935,0,0,1-.35736.28467c-.13325.04846-.36341.13931-.51483.19988a3.79939,3.79939,0,0,1-.54513.17565c-.15142.03028-.38158.0848-.51483.12114s-.321.07268-.424.09085c-.09691.01212-.29679.0424-.43609.06057-.20594.03028-.27862.01211-.37553-.0848a.497.497,0,0,1-.13931-.2665,2.09867,2.09867,0,0,0-.01817-.22411.4381.4381,0,0,1,.04845-.19987c.03634-.07874.01212-.18171-.07268-.3513a.5547.5547,0,0,1-.09691-.29679c.05451-.0848-.103-.45427-.25439-.59358-.11508-.103-.16959-.12114-.26045-.07268a.278.278,0,0,1-.2665-.00606.5754.5754,0,0,0-.67232.30284,2.28856,2.28856,0,0,1-.33313.39976,1.28685,1.28685,0,0,0-.27256.37553.65693.65693,0,0,1-.20593.26045c-.12114.06057-.1272.11508-.1272.98122,0,.87825.00606.91459.14537,1.04784a.87923.87923,0,0,1,.16353.18777,2.20185,2.20185,0,0,0,.38764.29678,3.50911,3.50911,0,0,1,.72078.5633c.17565.16959.49061.1817.58146.01817a.55935.55935,0,0,1,.28468-.19382,1.70337,1.70337,0,0,0,.39369-.19382,1.1725,1.1725,0,0,1,.3937-.1696c.59358-.12719.80557-.18776.80557-.24227,0-.03029.12114-.109.27256-.17565s.27256-.14537.27256-.17566c0-.03634.103-.11508.23622-.1817.20594-.109.24228-.109.36342-.03029.15748.11508.321.06663.61175-.16353a1.866,1.866,0,0,1,.47244-.25439c.24833-.0848.2665-.0848.43609.06057a1.63676,1.63676,0,0,1,.30891.38158.61226.61226,0,0,0,.424.32707,1.91258,1.91258,0,0,0,.50878.09691.78659.78659,0,0,1,.32707.06057,2.89813,2.89813,0,0,0,1.11447.04846,2.70856,2.70856,0,0,1,.70866-.12114,4.27079,4.27079,0,0,0,1.31435-.82374c.321-.29679.3937-.40581.44821-.6602.06057-.26045.05452-.32708-.02422-.44216s-.0848-.15748-.00606-.34524a.63471.63471,0,0,0,.05451-.32707.38528.38528,0,0,1,.06663-.28468c.07268-.12719.08479-.20593.0424-.28467a.44947.44947,0,0,1-.00606-.32708,2.32078,2.32078,0,0,0-.321-1.29012,1.23239,1.23239,0,0,1-.18171-.46638,1.86248,1.86248,0,0,0-.67231-1.4052.858.858,0,0,1-.29073-.41187,1.11708,1.11708,0,0,0-.12114-.36948,1.17162,1.17162,0,0,1-.12114-.41792.26493.26493,0,0,0-.18171-.27862.41762.41762,0,0,1-.218-.26045.9033.9033,0,0,0-.14536-.28467,1.66721,1.66721,0,0,1-.212-.33313,2.89892,2.89892,0,0,0-.27862-.41187.68509.68509,0,0,1-.17565-.3089.291.291,0,0,0-.09086-.18777,3.43032,3.43032,0,0,1-.45426-.92065.53531.53531,0,0,0-.14537-.2241c-.2665-.28468-.58146-.86614-.52089-.96911a2.59043,2.59043,0,0,1,.82979-.76923c.218-.04845.44216-.25439.44216-.39975a.84982.84982,0,0,1,.218-.3513c.1817-.19988.212-.26651.17565-.41793-.05452-.25439.13325-.43.46032-.43a1.09926,1.09926,0,0,1,.36342.06057,3.13194,3.13194,0,0,0,1.0115.15142c.6178.04846.92671.29073.83585.65415a2.85926,2.85926,0,0,1-.55118.78739.23021.23021,0,0,0-.06662.19383.29739.29739,0,0,1-.05451.19382c-.12114.15748-.109.3089.06662.90853.09086.29679.17565.59964.19382.68443a.32544.32544,0,0,0,.103.19383,1.65409,1.65409,0,0,1,.47244.93276,1.77809,1.77809,0,0,0,.27256.68443.9543.9543,0,0,1,.19988.84191.52964.52964,0,0,1-.25439.18777c-.13931.04845-.18171.09691-.16354.19382.01817.15142.19382.19987.36342.109.08479-.04845.14536-.02423.26044.09085a.52658.52658,0,0,1,.15143.212c0,.03028.09691.09085.212.12719a.68545.68545,0,0,1,.30284.20594.69231.69231,0,0,0,.23622.20593,1.263,1.263,0,0,1,.46033.76923,2.13861,2.13861,0,0,0,.19382.59358,1.57966,1.57966,0,0,1,.09085,1.29617,1.92991,1.92991,0,0,0-.12719.636,2.02241,2.02241,0,0,1-.19988.84191c-.19382.41793-.315.52089-.50878.41793-.15142-.0848-.14537-.03029.00606.12114l.12114.12113-.12114.23017a8.72863,8.72863,0,0,1-.69049.957.346.346,0,0,0-.09085.41187.39529.39529,0,0,0,.27256.3089c.20593.0848.23622.07874.55723-.07874a2.599,2.599,0,0,0,.44821-.2665.61571.61571,0,0,1,.27256-.13931,1.47207,1.47207,0,0,0,1.03574-.51484,2.32355,2.32355,0,0,0,.37552-.41793,1.10247,1.10247,0,0,1,.15143-.2665,2.62923,2.62923,0,0,0,.2665-1.0115,2.75319,2.75319,0,0,1,.26651-.99334c.07874-.04845.07874-.07268-.01818-.15142a1.64425,1.64425,0,0,1-.36341-.86008.18076.18076,0,0,0,0-.17565.232.232,0,0,1,.00606-.19988c.0424-.06663.03028-.15748-.03634-.27862a.92082.92082,0,0,1-.09086-.30284.82167.82167,0,0,0-.12114-.321.82191.82191,0,0,1-.12113-.321,1.77461,1.77461,0,0,0-.36342-.72683,4.71173,4.71173,0,0,1-.36341-.59963,2.88526,2.88526,0,0,0-.34525-.55118.31718.31718,0,0,1-.109-.18776,3.47674,3.47674,0,0,0-.24228-.81163,2.66317,2.66317,0,0,0-.28467-.38158,2.26037,2.26037,0,0,1-.34525-.56935,11.78787,11.78787,0,0,0-.62386-1.29012,2.27044,2.27044,0,0,1-.23016-1.2659c.103-.533.12719-.55723.68443-.636a.87976.87976,0,0,0,.45427-.23017,1.87737,1.87737,0,0,1,.40581-.27862.6937.6937,0,0,0,.30285-.30284,1.10509,1.10509,0,0,1,.30284-.33919,1.01775,1.01775,0,0,0,.45427-.73894.48425.48425,0,0,1,.13931-.3513,1.28084,1.28084,0,0,0,.37553-1.33858,1.44478,1.44478,0,0,1-.0848-.3937.90334.90334,0,0,0-.13931-.54512,1.21193,1.21193,0,0,1-.13325-.41793,1.29209,1.29209,0,0,0-.29679-.58146C15.23212.82275,15.008.526,14.88082.34426L14.64455.005H13.1ZM8.21817,5.42593c.103.13931.01211.321-.18776.36948a.2907.2907,0,0,0-.18777.15748.46243.46243,0,0,1-.24833.20593,4.71525,4.71525,0,0,0-1.24773,1.272c-.09085.16354-.2241.38764-.29678.50273-.109.16959-.13326.31495-.14537.90247-.01817.58753-.00606.72078.07874.81163a.65031.65031,0,0,1,.13325.44821,3.86852,3.86852,0,0,0,.98122.95094.87546.87546,0,0,1,.33313.218c.55118.55723.69049.71471.73289.83585a.76849.76849,0,0,0,.26045.27256,1.08763,1.08763,0,0,1,.3089.33919,2.01141,2.01141,0,0,0,.17565.28467.97283.97283,0,0,1,.12719.321,2.97448,2.97448,0,0,0,.23017.77528,1.34454,1.34454,0,0,1,.12719.43.97548.97548,0,0,0,.11508.36948,5.67615,5.67615,0,0,1,.43,1.381.43487.43487,0,0,0,.06663.24833,1.28861,1.28861,0,0,1,.15142.424c.04846.19382.103.40581.12114.47244.109.37552.09691.50878-.06057.66626l-.15748.15748-.19988-.12114c-.12114-.07268-.23016-.103-.27862-.07268a1.75552,1.75552,0,0,1-.9267-.09086.71185.71185,0,0,0-.26045-.0848.76583.76583,0,0,1-.58146-.44215A2.73767,2.73767,0,0,0,7.564,17.031a.64119.64119,0,0,1-.109-.33313,2.13183,2.13183,0,0,0-.14537-.957.59736.59736,0,0,1-.09691-.30284c0-.09691-.03028-.1696-.06662-.1696-.03029,0-.11508-.11508-.17565-.26044a.60582.60582,0,0,0-.51484-.40582c-.07874,0-.32707-.19987-.73894-.58752a.43567.43567,0,0,1-.13931-.24833c0-.15142-.212-.33919-.54512-.48455a1.34707,1.34707,0,0,1-.424-.30891,3.76109,3.76109,0,0,0-.79345-.77528c-.07874-.0424-.18777-.103-.23622-.1272a14.0556,14.0556,0,0,0-1.50212-.64808.42926.42926,0,0,1-.20593-.1696A6.86367,6.86367,0,0,1,1.8463,9.6052c.01211-.103.03029-.19988.03029-.2241a3.23852,3.23852,0,0,1,.44215-.55118.62928.62928,0,0,0,.16959-.25439,1.49261,1.49261,0,0,1,.24228-.39976,2.91266,2.91266,0,0,0,.24228-.35736.9791.9791,0,0,1,.24833-.218c.13325-.09692.41793-.34525.636-.55118a3.93811,3.93811,0,0,1,.92066-.636,3.69583,3.69583,0,0,0,.69654-.43A2.10881,2.10881,0,0,1,6.0498,5.6985a2.25663,2.25663,0,0,0,.52089-.212.98908.98908,0,0,1,.51484-.09085A1.66557,1.66557,0,0,0,7.558,5.34719.75677.75677,0,0,1,8.21817,5.42593Z"/>

</g>
</svg>
