<?xml version="1.0" encoding="UTF-8"?>
<svg xmlns="http://www.w3.org/2000/svg"
     version="1.1"
     width="29.23741240mm"
     height="41.07262287mm"
     viewBox="0.00000000 0.00000000 82.87774117 116.42637290">

<g transform="scale(6.56887650)">   <defs>
      <style type="text/css"><![CDATA[
      .a {
        stroke: #000;
        stroke-miterlimit: 10;
        stroke-width: 0.15px;
      }
    ]]></style>
   </defs>
   <path class="a"
         d="M6.27751,1.67137a.51288.51288,0,0,1,.05378-.35471.49027.49027,0,0,1,.40257-.13634A7.01807,7.01807,0,0,1,8.51649,1.389a.4155.4155,0,0,1,.25834.1397.43225.43225,0,0,1-.00737.3717c-.35466.95545.1729.8705-1.1744,3.57491A11.79727,11.79727,0,0,1,6.36764,7.649,16.38188,16.38188,0,0,1,4.39352,9.32875c-1.55828,1.33253-1.91218,1.87016-2.06864,2.476a2.07987,2.07987,0,0,0-.009,1.17473A2.18212,2.18212,0,0,0,4.582,14.285a6.38157,6.38157,0,0,0,2.61275-.99642A7.05572,7.05572,0,0,1,2.4921,15.8002a2.47846,2.47846,0,0,1-1.95377-.50856c-.7692-.80316-.44621-2.356.00277-3.28662.41256-.85512.854-1.02422,2.68473-2.74463A18.50053,18.50053,0,0,0,5.11324,7.38778,12.80109,12.80109,0,0,0,6.27751,1.67137Z"/>
   <path class="a"
         d="M7.643,15.71015c.01058-1.852-.59094-2.644-.2922-3.82476.11264-.44522.3126-.78493.12726-1.09458a.80969.80969,0,0,0-.75417-.34857c-.11149.01311-.5444.09244-1.16767,1.54427a7.28015,7.28015,0,0,0-.67417,3.39888,2.34789,2.34789,0,0,0,.53125,1.40625,1.09646,1.09646,0,0,0,.47447.24052.93159.93159,0,0,0,.43616-.03027,1.74245,1.74245,0,0,0,1.20508-.751A1.25348,1.25348,0,0,0,7.643,15.71015Z"/>
   <path class="a"
         d="M6.91151,16.02754a2.13373,2.13373,0,0,0-.787.396.74131.74131,0,0,0-.3014.7722.733.733,0,0,0,.59451.43657,2.30121,2.30121,0,0,0,1.58105-.54272,13.1652,13.1652,0,0,0,1.71719-1.244,14.33811,14.33811,0,0,0,1.54118-1.67892c1.12752-1.34825,1.39074-1.891,1.25-2.125-.01356-.02254-.13693-.22762-.28494-.21831a.22065.22065,0,0,0-.13875.07463c-.2433.253-1.766,1.57738-2.92006,2.58118C8.071,15.42921,7.52485,15.90425,6.91151,16.02754Z"/>
   <path class="a"
         d="M3.24433,1.33783A9.85844,9.85844,0,0,1,7.47388.07543,2.17757,2.17757,0,0,1,8.98454.57759a1.055,1.055,0,0,1,.09928,1.45689,1.61866,1.61866,0,0,1-.87936.33263L7.26,2.523c-.25781.04255-.59052.04893-.70314-.18685-.05074-.10621-.03958-.24017-.11411-.3313a.385.385,0,0,0-.20117-.11006,3.16758,3.16758,0,0,0-2.19.43945,4.32128,4.32128,0,0,1-2.15809.65928C.13792,2.85926,3.03409,1.43713,3.24433,1.33783Z"/>

</g>
</svg>
