<?xml version="1.0" encoding="UTF-8"?>
<svg xmlns="http://www.w3.org/2000/svg"
     version="1.1"
     width="22.69054553mm"
     height="57.49454467mm"
     viewBox="0.00000000 0.00000000 64.31968608 162.97669776">

<g transform="scale(4.67561906)">   <defs>
      <style type="text/css"><![CDATA[
      .a {
        stroke: #000;
        stroke-linecap: round;
        stroke-linejoin: round;
        stroke-width: 0.01px;
      }
    ]]></style>
   </defs>
   <path class="a"
         d="M11.62307.06677A.32174.32174,0,0,1,11.39291.085a.28243.28243,0,0,0-.22411.0424A3.49864,3.49864,0,0,1,10.32689.4a1.38192,1.38192,0,0,0-.49061.36947,2.67608,2.67608,0,0,1-.3937.23017,1.88033,1.88033,0,0,0-.93882.75105,2.347,2.347,0,0,1-.38158.50273.92561.92561,0,0,0-.25439.32707,2.43478,2.43478,0,0,1-.14537.4361,3.62209,3.62209,0,0,0-.18171.50878c-.09691.44215-.59963.12719-.66626-.41187A2.43464,2.43464,0,0,0,6.19,1.92624a1.26683,1.26683,0,0,1-.19987-.29678.5826.5826,0,0,0-.18171-.23017c-.62992-.30284-.83586-.37553-.94488-.315a.23244.23244,0,0,1-.218.00606,12.896,12.896,0,0,0-2.02906.02423.56236.56236,0,0,0-.27862.11508.30451.30451,0,0,1-.24228.06663c-.109-.02423-.17565.01211-.27256.14536a1.71805,1.71805,0,0,1-.50878.37553,2.16061,2.16061,0,0,0-.44215.27256A1.76858,1.76858,0,0,1,.50864,2.326a.6391.6391,0,0,0-.41793.46033c-.16353.46032-.109.58146.30285.6602a1.0693,1.0693,0,0,0,.39976.03634,1.91506,1.91506,0,0,1,1.175.103,3.44817,3.44817,0,0,0,.636.06662,2.41,2.41,0,0,1,.67838.09086c.23016.09085.46638.33313.46638.47244a1.94055,1.94055,0,0,0,.212.43c.14537.24227.20594.39975.17565.47849a2.77285,2.77285,0,0,0-.04845.45427,1.33222,1.33222,0,0,1-.0848.46638.29579.29579,0,0,0-.0424.212c.01817.04846-.03634.16354-.12114.26651a.919.919,0,0,0-.18776.32707,3.26711,3.26711,0,0,1-.20594.51484c-.09085.19988-.212.49667-.2665.65415-.0848.26044-.0848.315-.00606.424a.1941.1941,0,0,1,.02423.23016,2.53492,2.53492,0,0,0,.09085,1.21744,1.98654,1.98654,0,0,1,.15748.55724,1.53524,1.53524,0,0,0,.14537.49666,1.75475,1.75475,0,0,1,.19382.49061,2.74327,2.74327,0,0,0,.19382.54512c.04846.07874.06663.13931.04846.13931-.02423,0,.00605.0848.06057.18777a4.92289,4.92289,0,0,1,.20593.52089c.103.32708.103.33919-.00606.44821a.44236.44236,0,0,1-.26044.11509c-.103,0-.218.08479-.36948.27256a1.21722,1.21722,0,0,1-.33313.30284.55606.55606,0,0,0-.2241.212,2.17072,2.17072,0,0,1-.3937.3937c-.17565.1272-.29073.26651-.29073.33919a.73433.73433,0,0,0,.33919.50878c.14536.09085.16959.09085.527-.07874.54512-.26045.75711-.315.92065-.25439s.24227.04846.636-.07874A3.59253,3.59253,0,0,1,6.184,14.91226c.06662.03634.18776.01817.36341-.06057.19382-.0848.29679-.09691.37553-.05451a.65112.65112,0,0,0,.33919.02423c.16959-.02423.26044-.01212.32707.06056a.29291.29291,0,0,1,.09691.13326,6.61564,6.61564,0,0,1-.25439.7874.96726.96726,0,0,0-.07874.37552c.01817.03029-.03634.1272-.11508.22411a1.801,1.801,0,0,0-.24228.41187,1.61705,1.61705,0,0,1-.25439.39976c-.13325.1393-.15142.2241-.16959.68443-.02423.49666-.01212.533.15748.78134.52089.75711.48455.62992.55723,1.73833a7.23232,7.23232,0,0,0,.43,1.5748,1.3322,1.3322,0,0,1,.09691.54512,4.77542,4.77542,0,0,0,.0848,1.66565,4.40465,4.40465,0,0,1,.11508,1.54451,11.61385,11.61385,0,0,0,.06057,1.381,1.15183,1.15183,0,0,1,.0424.424c0,.18777-.00606.3937-.00606.44821v.41187c0,.20594-.006.38159-.03634.72682-.01211.18171-.03634.61175-.04845.94488a5.77079,5.77079,0,0,1-.09086.848,3.68525,3.68525,0,0,0-.18776,1.175c0,.218.01211.51483.03028.66625a1.981,1.981,0,0,1-.109,1.10841c-.07268.11509-.07268.15748-.01211.24228a.30105.30105,0,0,1,.04845.2241c-.01817.06663.03634.17565.14537.28468.218.23016.32707.2665.47243.16354a.39745.39745,0,0,1,.19987-.0848.80828.80828,0,0,0,.2968-.18171,2.39623,2.39623,0,0,1,.46638-.3089.84846.84846,0,0,0,.33919-.26651,1.94946,1.94946,0,0,1,.424-.41792,1.12656,1.12656,0,0,0,.47244-.62992,2.54449,2.54449,0,0,0,.13326-.4361,1.78177,1.78177,0,0,1,.40581-.62386.50014.50014,0,0,0,.11508-.27256c.02423-.12114.109-.47244.18776-.76923a3.44932,3.44932,0,0,0,.13931-.72683,3.92747,3.92747,0,0,1,0-.65414c.00606-.03635-.01211-.24834-.03028-.46639-.02423-.218-.03634-.55723-.03634-.75711s0-.41793-.00606-.48455c0-.06663.00606-.1696.01211-.23017.00606-.103.01212-.424.00606-.636v-.40581c.00606-.27862-.14536-1.88976-.218-2.39248-.03633-.22411-.08479-1.175-.109-2.11992a2.61761,2.61761,0,0,0-.09691-.71472,2.47919,2.47919,0,0,1-.18777-1.16292,1.55027,1.55027,0,0,0-.06662-.739,1.15659,1.15659,0,0,1-.03029-.52695,1.15769,1.15769,0,0,0-.04845-.61175,2.69209,2.69209,0,0,1-.12114-.636,3.1,3.1,0,0,0-.1272-.66626,1.9944,1.9944,0,0,1-.09085-.49667,2.69191,2.69191,0,0,0-.218-.99939c-.103-.19988-.02423-.30284.321-.41187a2.94477,2.94477,0,0,0,.424-.16959.32546.32546,0,0,1,.3513-.02423c.218.09691.36343.09085.90854-.0424.636-.16353,1.3628-.6602,1.3628-.93882a.84012.84012,0,0,1,.11508-.315,1.30381,1.30381,0,0,0,.13326-.51484,1.44132,1.44132,0,0,0-.212-.83585c-.14536-.321-.86613-.44821-1.98666-.3513-.46033.03634-.62992-.04846-.55724-.27256.01817-.06663.0424-.15748.04846-.19382a1.57437,1.57437,0,0,1,.24227-.636,1.13223,1.13223,0,0,0,.1272-.50272.88569.88569,0,0,1,.25439-.6602.96151.96151,0,0,0,.2665-.62387c.06663-.47244.15748-.69048.30891-.73894a.09879.09879,0,0,0,.08863-.108l-.00384-.01919a.3063.3063,0,0,1,.0424-.218c.09691-.17565.109-.34525.109-1.2659,0-.848-.02423-.93276-.40582-1.387a6.2492,6.2492,0,0,1-.424-.58146,3.13344,3.13344,0,0,0-.321-.4361.83872.83872,0,0,1-.15748-.36947,2.7576,2.7576,0,0,0-.13325-.4785,2.77187,2.77187,0,0,1,.02423-1.57479.346.346,0,0,0,.103-.16354.81558.81558,0,0,1,.27861-.29679,2.59634,2.59634,0,0,0,.76923-.76923C12.3499.16974,11.92592-.127,11.62307.06677ZM7.468,4.57917c.0424.11508-.12114.27862-.23622.23622A.1792.1792,0,1,1,7.468,4.57917Zm-.07874.56935a1.70022,1.70022,0,0,0,.13325.65415.57283.57283,0,0,1,.06057.27256c-.01817.06662.0848.218.25439.3937a1.55753,1.55753,0,0,1,.315.44215,1.64436,1.64436,0,0,0,.50877.70866,1.67957,1.67957,0,0,1,.33919.43,2.5871,2.5871,0,0,0,.3937.61781,1.03951,1.03951,0,0,1,.16959.48455.35084.35084,0,0,1-.11508.2241,1.41862,1.41862,0,0,0-.218.3937c-.06057.15748-.15142.30285-.212.321a1.93093,1.93093,0,0,0-.44821.79951c-.02423.07874-.06057.13931-.0848.13931a1.42463,1.42463,0,0,0-.27862.212c-.23016.20594-.36341.25439-.49666.16354a1.13243,1.13243,0,0,1-.28468-.62386,1.9932,1.9932,0,0,0-.16959-.50878A1.833,1.833,0,0,0,6.8684,9.673a.60765.60765,0,0,1-.1514-.27858.64977.64977,0,0,0-.212-.29073A.82708.82708,0,0,1,6.26273,8.716c-.03635-.24833-.09086-.81768-.09086-1.00545a.59478.59478,0,0,0-.05451-.24227c-.0424-.06663.00606-.218.15142-.50878a2.2736,2.2736,0,0,0,.20594-.49667A9.25242,9.25242,0,0,1,7.141,5.11218c.06053-.07268.23618-.04846.24829.03634Z"/>

</g>
</svg>
