<?xml version="1.0" encoding="UTF-8"?>
<svg xmlns="http://www.w3.org/2000/svg"
     version="1.1"
     width="22.23484651mm"
     height="38.65876894mm"
     viewBox="0.00000000 0.00000000 63.02795308 109.58394075">

<g transform="scale(5.29691176)">   <defs>
      <style type="text/css"><![CDATA[
      .a {
        stroke: #000;
        stroke-linecap: round;
        stroke-linejoin: round;
        stroke-width: 0.01px;
      }
    ]]></style>
   </defs>
   <path class="a"
         d="M3.90737.13219A.69613.69613,0,0,1,3.43493.217,1.11121,1.11121,0,0,0,2.7081.3987c-.25439.11508-.533.25439-.61781.29679C2.0055.74394,1.842.83483,1.72082.90142A2.53935,2.53935,0,0,0,.78806,2.16126a.966.966,0,0,0-.03029.4361,1.45994,1.45994,0,0,1,.01212.46638,1.73445,1.73445,0,0,0,.0424.56935.35426.35426,0,0,1,0,.315c-.05452.103-.0424.15142.07874.2665.12719.1272.16959.13931.3513.0848.315-.09086.34524-.07874.60569.18171.20593.20593.23622.2665.18171.36341-.0848.15142-.29679.20594-.66626.16354l-.29074-.03634-.36341.40581c-.75711.84187-.80557.93878-.59963,1.20531a1.81232,1.81232,0,0,0,.25439.26651,1.14209,1.14209,0,0,0,.82979.109.77551.77551,0,0,1,.3089-.06662,1.36819,1.36819,0,0,0,.41793-.09089c.20594-.08479.25439-.07874.55118.03029A2.15138,2.15138,0,0,0,3.338,6.9462c.67232-.00606.76317.02423.98727.33313.17565.23622.18171.26045.09692.3937-.05452.07874-.07874.16959-.05452.20593a1.37974,1.37974,0,0,1,.03634.36947.95365.95365,0,0,0,.0848.44216.38958.38958,0,0,1,.05451.27862,2.89945,2.89945,0,0,0,.01212,1.16292,1.35889,1.35889,0,0,1,.01211.67838.88192.88192,0,0,0,.00606.54512.69543.69543,0,0,1,.0424.3089.85218.85218,0,0,0,.09085.36947,1.11552,1.11552,0,0,1,.07874.61175,4.03349,4.03349,0,0,0-.07268,1.4476A3.79829,3.79829,0,0,1,4.87647,15.123c.00606.2665.01212.88431.00606.93882a1.50415,1.50415,0,0,1-.33313.25439,2.74245,2.74245,0,0,0-.58146.54512,1.35785,1.35785,0,0,1-.30891.33919c-.06056,0-.23622.321-.29678.54512-.09086.32707.24833.642.527.49061a1.55584,1.55584,0,0,1,.87825-.01817,1.79587,1.79587,0,0,1,.07874.61175c.01211.52089.02423.56935.23016.86613.15748.23622.20594.36342.18777.4785a.4807.4807,0,0,0,.45174.508l.02069.00077c.3937-.01817.49667-.0848.72683-.4785a6.27042,6.27042,0,0,1,.424-.62991c.424-.53907.47244-.61175.47244-.75106a.76741.76741,0,0,1,.15142-.3513.47722.47722,0,0,0,.12114-.30285,2.08824,2.08824,0,0,1,.08479-.56329,1.74543,1.74543,0,0,0,.07874-.62992.9437.9437,0,0,1-.03634-.26045c.00606-.04845.01212-.17565.01817-.28467.00606-.27862.47244-.73289,1.01151-.98728a4.76811,4.76811,0,0,0,.70866-.44215,2.06563,2.06563,0,0,1,.51483-.315c.18777-.06663.23017-.11508.26045-.29679a1.10448,1.10448,0,0,1,.55724-.68443,3.85552,3.85552,0,0,0,.44215-.29073c.14537-.11508.3089-.19382.3513-.17565q.08175.02726.18171-.218c.13325-.33313.12719-.36947-.09691-.59964a.39787.39787,0,0,0-.47244-.16353.68266.68266,0,0,0-.45427.23622,1.31281,1.31281,0,0,1-.37553.27862.92415.92415,0,0,0-.33918.30284,1.7371,1.7371,0,0,1-.73289.57541.50631.50631,0,0,0-.23016.13931,3.51318,3.51318,0,0,1-.49061.315l-.34525.19987-.1817-.19382a1.32032,1.32032,0,0,1-.24228-.44215,4.12836,4.12836,0,0,0-.11508-.41187.35113.35113,0,0,1-.00606-.23622.61184.61184,0,0,0,.01817-.29679c-.01211-.12114-.03634-.33919-.0424-.49061-.02422-.33919-.09085-.60569-.16353-.60569-.13931,0-.17565-.24833-.07874-.53907.06662-.20593.07874-.33313.03634-.40581a.73786.73786,0,0,1-.03029-.32707A1.19255,1.19255,0,0,0,7.42044,9.896a4.9292,4.9292,0,0,1-.09086-.98727,2.95744,2.95744,0,0,0-.103-.97517C7.00858,7.43686,6.954,6.86145,7.1115,6.704a1.7466,1.7466,0,0,1,.77529-.02423A.61971.61971,0,0,0,8.18963,6.601a.65634.65634,0,0,1,.48456-.05451,1.81156,1.81156,0,0,0,1.02967-.06057,1.43086,1.43086,0,0,0,.90248-.75711l.14537-.3089-.25439-.218-.25439-.218-.29679.07874c-.27256.07268-.30285.06663-.41187-.0424a.42167.42167,0,0,1-.11508-.25439.51861.51861,0,0,0-.18174-.527c-.1272-.13325-.17565-.23016-.15142-.30285a.382.382,0,0,0-.06057-.2665A.38135.38135,0,0,1,8.95883,3.409a.55608.55608,0,0,0-.07268-.321,1.07826,1.07826,0,0,1-.09691-.424,1.11439,1.11439,0,0,0-.218-.7026.594.594,0,0,1-.00611-.5936c.03634-.04239.04846-.09085.03029-.109a.87074.87074,0,0,1-.06057-.206C8.48033.75,7.77773.05951,7.52334.05951a.99677.99677,0,0,0-.7874.4361c-.16959.39975-.62386.56329-.87825.3089a1.36,1.36,0,0,0-.79951-.321A.64422.64422,0,0,1,4.71294.34419,1.765,1.765,0,0,0,4.16781.005,1.77717,1.77717,0,0,0,3.90737.13219ZM4.398,2.882c1.12053.34525,1.10236.33313,1.24772.62992a.94791.94791,0,0,1,.00606.98728c-.14537.14536-.20594.14536-1.21744.01817-.50878-.06663-.76317-.26045-.67838-.527a.30657.30657,0,0,0-.04845-.24228A.31054.31054,0,0,1,3.64694,3.518a.77827.77827,0,0,0-.03634-.33313c-.04846-.19382-.0424-.24228.06057-.34525C3.81651,2.69427,3.78623,2.69427,4.398,2.882ZM3.8468,5.69244q.218.218-.1272.39975c-.33313.1696-.58752-.11508-.32707-.37552C3.56818,5.541,3.68932,5.535,3.8468,5.69244Z"/>

</g>
</svg>
