<?xml version="1.0" encoding="UTF-8"?>
<svg xmlns="http://www.w3.org/2000/svg"
     version="1.1"
     width="43.10338291mm"
     height="64.19289197mm"
     viewBox="0.00000000 0.00000000 122.18293900 181.96411025">

<g transform="scale(7.44255059)">   <defs>
      <style type="text/css"><![CDATA[
      .a {
        stroke: #000;
        stroke-miterlimit: 10;
        stroke-width: 0.15px;
      }
    ]]></style>
   </defs>
   <path class="a"
         d="M3.16951,1.32511a3.25011,3.25011,0,0,0-.59375,1.9375c.03246.40171.13845.4148.375,1.125.54389,1.63293.19764,2.20637.77353,2.75146.39521.37408.70544.24332,1.04251.72245.02133.03032.46244.6736.22143,1.12677-.16087.30248-.45179.19341-.63122.49307-.11852.19794-.03111.31155.15625,1.40625.08331.48679.09058.60778.21875.71875.24091.20859.57425.092.7097.3218.07917.13434.00471.213.06227.39909.0641.20721.2973.2985.48476.40762a1.46723,1.46723,0,0,1-.11947,2.59852c-.42066.1956-.622.03375-1.01357.28522-.03349.02151-.62065.40888-.59244.894.02747.47246.60853.51977,1.03125,1.34375.06828.13308.31876.62133.157.78841-.13884.14344-.49029-.04416-.81329-.13216a3.16568,3.16568,0,0,0-2.40211.59483c-.89962.59554-1.20208,1.45165-1.66039,2.74892C.1527,23.05386-.10974,23.7967.232,24.16886c.46165.50272,1.74274.02082,3.875-.78125,1.42948-.53771,1.622-.71278,3.625-1.46875,2.28028-.86064,2.85289-.94135,3.4375-.75.23048.07544.731.28093.96875.0625.25167-.23118-.02651-.72074.25-.96875.16152-.14487.31129-.027.92556-.10243a2.71826,2.71826,0,0,0,.82388-.20161,1.3081,1.3081,0,0,0,.743-.88416c.08286-.34841.026-.74416.22935-1.03895a1.62909,1.62909,0,0,1,.4747-.40543c.75518-.57294.91352-1.94239.616-2.11742-.229-.13472-.8019.39471-.92942.51256-.50508.46673-.569.85872-.91433.89369a.86438.86438,0,0,1-.59375-.25c-.29847-.26454-.26645-.56329-.4375-.59375-.16851-.03-.25311.25043-.6204.56648-.07555.065-.74524.65738-1.08206.41876-.155-.10978-.23272-.31462-.40483-.3949a.67658.67658,0,0,0-.43106-.00161,12.413,12.413,0,0,0-1.47176.42663.98161.98161,0,0,0-.40649.22514c-.36022.40562-.01008,1.07829-.30215,1.29075-.07.05091-.20138.09324-.46875,0l-.21875-.46875a2.22525,2.22525,0,0,0-.98844,1.13915c-.15176.438-.08291.80866-.32406.92335a.57327.57327,0,0,1-.65625-.25.69784.69784,0,0,1-.03125-.53125,1.85622,1.85622,0,0,1,.44544-.81423c.80956-.95729.244-2.63655.66874-3.408.12933-.2349.30442-.4442.41357-.68914.2-.44888.02712-.67662-.05576-1.8397-.04071-.57133-.03737-.92352-.19074-.9677-.15523-.04472-.30286.27454-.625.28125a.64685.64685,0,0,1-.40625-.15625,1.61864,1.61864,0,0,1,.28785-.82979c.25156-.34748.56284-.43684.628-.79232.02937-.16021-.024-.19591-.0306-.41181A1.91773,1.91773,0,0,1,7.357,8.82511c.20712-.45632-.05032-.85178-.375-1.84375-.44-1.34432-.17827-1.26293-.6875-2.9375a12.50135,12.50135,0,0,1-.5-1.65625A4.22313,4.22313,0,0,0,5.50371,1.014C5.435.88179,4.99187.06415,4.38826.07511,3.89568.08405,3.57049.63982,3.16951,1.32511Z"/>

</g>
</svg>
