<?xml version="1.0" encoding="UTF-8"?>
<svg xmlns="http://www.w3.org/2000/svg"
     version="1.1"
     width="41.63195932mm"
     height="25.41986147mm"
     viewBox="0.00000000 0.00000000 118.01182669 72.05636539">

<g transform="scale(4.54756027)">   <defs>
      <style type="text/css"><![CDATA[
      .a {
        stroke: #000;
        stroke-linecap: round;
        stroke-linejoin: round;
        stroke-width: 0.01px;
      }
    ]]></style>
   </defs>
   <path class="a"
         d="M14.634.114c-.07268.0848-.16354.103-.3937.0848a1.39861,1.39861,0,0,0-.8722.07268,1.41741,1.41741,0,0,1-.35735.1272,3.20048,3.20048,0,0,0-.46033.15748,2.77242,2.77242,0,0,0-.83585.53906,1.97977,1.97977,0,0,1-.4361.26045,1.80172,1.80172,0,0,0-.45427.30285,1.97927,1.97927,0,0,1-.83585.52089,2.049,2.049,0,0,0-.81768.75712,4.7423,4.7423,0,0,1-.39976.56934,3.01973,3.01973,0,0,0-.3089.424,1.48308,1.48308,0,0,1-.38764.212A1.19783,1.19783,0,0,0,7.5777,4.469c-.29073.44821-.49667.47244-1.07813.13326a1.27592,1.27592,0,0,0-.46638-.20594c-.03029.01817-.1272-.0424-.218-.13325a.49031.49031,0,0,0-.43-.15748,8.54275,8.54275,0,0,0-2.17443.3937,2.60029,2.60029,0,0,0-.53907.59357c-.19988.26651-.41793.5633-.49061.65415-.11508.14537-.12114.18777-.05451.43a1.13556,1.13556,0,0,0,.218.4361c.0848.0848.18776.20593.23622.26045.07874.103.16959.09691.527-.00606a.18689.18689,0,0,1,.212.06663c.26045.3089.28468.321.49061.27861a1.77276,1.77276,0,0,0,.33313-.11508c.218-.12114.54512.03634.50878.24834-.00606.02422-.01817.14536-.03634.27256a.843.843,0,0,1-.50878.66626.94078.94078,0,0,0-.33919.33313c-.05451.109-.18171.34524-.29679.52695-.109.18171-.36947.64809-.56935,1.04179a6.41445,6.41445,0,0,1-.53906.88431,5.85072,5.85072,0,0,0-.9268,1.34465c-.109.18171-.26045.424-.34524.533a.9681.9681,0,0,0-.17565.41792,3.04146,3.04146,0,0,1-.34525.75106C.055,14.9898-.0237,15.15939.01264,15.31081c.06662.27256.23622.38764.60569.40582a1.095,1.095,0,0,1,.41793.08479c.04239.03634.09691.04846.11508.03029a3.60617,3.60617,0,0,1,.75105-.05452,2.61242,2.61242,0,0,0,.89643-.103,5.03726,5.03726,0,0,1,.54512-.19988,1.49227,1.49227,0,0,0,.45427-.218.41924.41924,0,0,1,.50878-.15748c.13325.0424.18776.0424.20593-.00606a1.13421,1.13421,0,0,1,.33919-.24833A.7723.7723,0,0,1,5.476,14.693c.29679.03634.30285.03634.4361-.18171a.61749.61749,0,0,1,.29679-.26045,2.2939,2.2939,0,0,0,.46638-.20593,3.06987,3.06987,0,0,1,.69654-.26045c.218-.04845.59964-.14536.848-.212.24833-.07268.51484-.14537.58752-.16959a1.26345,1.26345,0,0,0,.3937-.26045,4.88555,4.88555,0,0,1,.59358-.41187,4.00325,4.00325,0,0,0,.59963-.4361c.41793-.38158.57541-.32707.70866.24833a1.51722,1.51722,0,0,0,.23016.53907,2.46682,2.46682,0,0,1,.315.49061c.34525.68443,1.387,1.20532,1.50212.76317a1.1392,1.1392,0,0,1,.38158-.47244,4.08659,4.08659,0,0,0,.68443-.82374,4.05045,4.05045,0,0,1,.14537-.51484c.23016-.69048.24833-.93882.09691-1.28406a.94666.94666,0,0,1-.103-.44216,2.3349,2.3349,0,0,0-.33313-.87219c-.3513-.70866-.35736-.72077-.26045-.90248a.62859.62859,0,0,1,.24834-.25439A.97808.97808,0,0,0,14.313,8.412a3.54508,3.54508,0,0,1,.72683-.98727c.11508-.0424.27862.1393.24228.27861a.47622.47622,0,0,0,.218.46639c.103.06662.13931.06056.23622-.04846a.38333.38333,0,0,1,.19987-.1272c.0424,0,.1272-.103.18777-.23016a1.341,1.341,0,0,0,.18171-.70866,3.04734,3.04734,0,0,1,.20593-.75711,3.15351,3.15351,0,0,0,.18777-.54512,1.01243,1.01243,0,0,1,.15142-.33313,1.06741,1.06741,0,0,0,.15142-.37553.68466.68466,0,0,1,.17565-.33313,6.45544,6.45544,0,0,0,.45427-.6602,2.01662,2.01662,0,0,1,.51484-.61781.8525.8525,0,0,0,.27861-.28467c.02423-.0848.25439-.23017.67838-.4361.82374-.39976,1.04784-.58752,1.04784-.89037,0-.20593-.01817-.23016-.23622-.28467a.62663.62663,0,0,0-.32707-.01817,1.0654,1.0654,0,0,1-.30284.07874.55776.55776,0,0,0-.48456.26045,1.38508,1.38508,0,0,1-.33313.26044,2.13261,2.13261,0,0,0-.46638.35736,2.38129,2.38129,0,0,1-.34524.3089c-.15748.09086-.27862-.07268-.26651-.34524a4.03066,4.03066,0,0,0-.1817-1.1387,2.38823,2.38823,0,0,0-.6178-.81164,1.75063,1.75063,0,0,0-.55118-.109,1.644,1.644,0,0,1-.49666-.0848.86658.86658,0,0,0-.315-.05451.55505.55505,0,0,1-.34525-.12114A.80392.80392,0,0,0,14.737.005C14.73093.005,14.68853.05954,14.634.114Zm-.86614,3.04057a2.12537,2.12537,0,0,0,.35736.19988c.11508.03634.24227.19988.44821.57541.04846.08479.109.19988.13931.24833.19382.34525.19382.3513.02423.59964a.86639.86639,0,0,1-.33313.29678c-.17565.06057-.41187.28468-.854.79346-.15142.17565-.33313.38158-.40581.46638a.61142.61142,0,0,0-.13931.19382c0,.0424-.17565.13931-.745.41187a2.4966,2.4966,0,0,0-.8298.848,8.8288,8.8288,0,0,1-.82979.957,1.37517,1.37517,0,0,0-.321.45427c0,.13325.00606.1272-.47244.49667a4.034,4.034,0,0,1-1.19321.59963,1.07749,1.07749,0,0,0-.33313.212,1.07555,1.07555,0,0,1-.32707.212.37343.37343,0,0,0-.19382.11509,3.27247,3.27247,0,0,1-.33919.25439,6.01785,6.01785,0,0,1-1.25984.745,1.52,1.52,0,0,0-.46638.27256,4.796,4.796,0,0,1-1.26589.55118,1.52874,1.52874,0,0,0-.36342.212c-.32707.23622-.45427.26044-.59358.11508-.13931-.13325-.07268-.38764.14537-.57541q.18171-.15446.14537-.25439c-.02423-.06662.03028-.15748.14536-.2665a1.40273,1.40273,0,0,0,.27862-.38159,1.98036,1.98036,0,0,1,.218-.36947.86384.86384,0,0,0,.15748-.41793c.04845-.43.50272-1.21138.7026-1.21138.07874,0,.18776-.3089.17565-.50272a.3837.3837,0,0,1,.14537-.3089.48246.48246,0,0,0,.15142-.20594,1.27044,1.27044,0,0,1,.29073-.35736,4.54748,4.54748,0,0,0,.46638-.55723,2.46854,2.46854,0,0,1,.44216-.46638,2.40686,2.40686,0,0,0,.43-.43c.27861-.36948.3937-.47244.6602-.55724.15748-.05451.26045-.1272.27862-.212a.80041.80041,0,0,1,.3089-.29679,1.008,1.008,0,0,0,.41793-.49667,2.4586,2.4586,0,0,1,.89036-.99939,2.04352,2.04352,0,0,0,.40582-.29679,2.03588,2.03588,0,0,1,1.066-.39975,2.39582,2.39582,0,0,0,.66626-.24834,1.21821,1.21821,0,0,1,.92065-.18776c.47854.012.58754.03624.78742.16949Z"/>
   <path class="a"
         d="M20.697,3.31813a1.85646,1.85646,0,0,0-.48456.36341,3.33665,3.33665,0,0,1-.71471.51484A1.35363,1.35363,0,0,0,18.989,4.578c-.03634.07874-.09086.14536-.11508.14536a1.24346,1.24346,0,0,0-.24228.40582,2.00644,2.00644,0,0,1-.36341.56329c-.14537.12114-.18777.23016-.23622.54512-.03635.218-.07269.44821-.0848.51484a.89853.89853,0,0,0-.03029.15142,2.47954,2.47954,0,0,1-.20593.26045,1.59021,1.59021,0,0,0-.315.60569,5.51743,5.51743,0,0,1-.3937,1.16293c-.06663.04239-.01211.51483.06663.61174a.69944.69944,0,0,0,.24227.14537c.16354.06663.19382.06057.29679-.04846a.74467.74467,0,0,1,.24228-.16353.17349.17349,0,0,0,.13435-.2053l-.00716-.02486a2.33182,2.33182,0,0,1,.29074-.76318,1.33631,1.33631,0,0,0,.1817-.41792c.0424-.13931.09691-.25439.1272-.25439.02423,0,.07874-.09086.11508-.19988a.88657.88657,0,0,1,.36947-.39976c.212-.14536.30285-.24833.30285-.34524a.33522.33522,0,0,1,.08479-.218.719.719,0,0,0,.12114-.212.68012.68012,0,0,1,.15748-.23016.36388.36388,0,0,0,.12114-.218,1.137,1.137,0,0,1,.27862-.3937,3.13569,3.13569,0,0,0,.36341-.46033.4276.4276,0,0,1,.218-.19987,1.398,1.398,0,0,0,.38159-.29074,2.11416,2.11416,0,0,1,.44215-.35735,1.00373,1.00373,0,0,0,.4361-.58752.81945.81945,0,0,0-.22411-.29074.56168.56168,0,0,0-.533-.19382A1.80308,1.80308,0,0,0,20.697,3.31813Z"/>
   <path class="a"
         d="M22.23544,6.00134a2.21907,2.21907,0,0,0-.89036.94488,1.76078,1.76078,0,0,1-.25439.38158,1.07332,1.07332,0,0,0-.212.30891,1.345,1.345,0,0,1-.46032.533c-.29679.23016-.212.66626.17565.90853.41793.25439.6178.14537.957-.50272a1.34867,1.34867,0,0,1,.29679-.43,3.34147,3.34147,0,0,0,.7026-.8722,1.24986,1.24986,0,0,1,.18776-.27862,1.00756,1.00756,0,0,0,.18777-.32707C23.13186,6.074,22.86536,5.81963,22.23544,6.00134Z"/>
   <path class="a"
         d="M24.29479,8.303a2.90815,2.90815,0,0,1-.59358.33313c-.854.41187-1.0963.58146-1.0963.76317a.55121.55121,0,0,1-.08479.25439,3.127,3.127,0,0,0,.11508,1.51423,3.20137,3.20137,0,0,1,.09691.62386.73035.73035,0,0,0,.07874.315,1.40187,1.40187,0,0,1,.04845.84191,1.6431,1.6431,0,0,0,.07874.9691c.19382.55724.25439.61781.642.61781.23016,0,.33918-.03029.37552-.09691a.40267.40267,0,0,1,.26045-.11508c.46033-.0424.59358-.15748,1.31435-1.14476.07268-.103.12114-.22411.103-.2665a.43757.43757,0,0,1,.05451-.24834.27955.27955,0,0,0,.03634-.24833.37926.37926,0,0,1,.03634-.29073.99483.99483,0,0,0,.07269-.36947.49529.49529,0,0,1,.04239-.24834,2.70675,2.70675,0,0,0,.06663-.66626c.01211-.47849-.00606-.59357-.103-.71471-.09691-.1272-.103-.16354-.03028-.30891.15748-.315.16959-.48455.03634-.65414a.5562.5562,0,0,1-.12114-.24228.56534.56534,0,0,0-.43-.44215,1.31049,1.31049,0,0,1-.424-.12114C24.57341,8.22423,24.36142,8.20606,24.29479,8.303Z"/>

</g>
</svg>
