<?xml version="1.0" encoding="UTF-8"?>
<svg xmlns="http://www.w3.org/2000/svg"
     version="1.1"
     width="26.10319993mm"
     height="16.71304296mm"
     viewBox="0.00000000 0.00000000 73.99331045 47.37555829">

<g transform="scale(3.36881121)">   <defs>
      <style type="text/css"><![CDATA[
      .a {
        fill: #000;
        stroke: #000;
        stroke-miterlimit: 1;
        stroke-width: 0.25px;
      }
    ]]></style>
   </defs>
   <path class="a"
         d="M.2749,9.31912c-1.292,2.30761,6.1435,3.668,7.9111,3.51371a15.29214,15.29214,0,0,1,4.1953-.2305c1.3926.25979,2.5977,1.0547,4.0274,1.2266,1.7051.2041,2.7519.2558,3.872-1.085.7676-.9189,2.0098-2.5185,1.3916-3.7373-1.375.4551-2.3183,1.4649-3.8105,1.6846a12.92866,12.92866,0,0,1-4.2285-.0899c-1.1143-.2978-1.6738-.8779-2.9395-.9931-1.4052-.1289-2.8564.123-4.248-.0547a4.22606,4.22606,0,0,1,.0088-1.6758c.0752-.34761,1.5215-.6767,1.8457-.7998a13.84249,13.84249,0,0,0,6.3603-5.9502c.5791-1.3501-1.164-1.1025-1.8955-.6094a11.268,11.268,0,0,1-.9492.7447A66.72752,66.72752,0,0,0,3.2661,7.31912C2.42721,7.96853.8179,8.34843.2749,9.31912Z"/>

</g>
</svg>
