<?xml version="1.0" encoding="UTF-8"?>
<svg xmlns="http://www.w3.org/2000/svg"
     version="1.1"
     width="14.88852837mm"
     height="18.42475941mm"
     viewBox="0.00000000 0.00000000 42.20364900 52.22770184">

<g transform="scale(8.18136419)">   <defs>
      <style type="text/css"><![CDATA[
      .a {
        stroke: #000;
        stroke-miterlimit: 10;
        stroke-width: 0.15px;
      }
    ]]></style>
   </defs>
   <path class="a"
         d="M2.82164.17006A1.64382,1.64382,0,0,1,3.41214.076c.18624.00675.45626.01654.57171.19169.09023.13688.04332.30994-.0152.51434a2.58548,2.58548,0,0,1-.40542.78992c-.30542.44037-.44986.51871-.50868.80814a.593.593,0,0,0,.0113.441c.15333.25029.65634.29769,1.58213.385a.497.497,0,0,1,.37228.16317.46054.46054,0,0,1,.06315.27285A2.86911,2.86911,0,0,1,4.681,4.86611c-.08284.16334-.12153.23476-.208.28424-.197.11271-.35408-.0438-.566.01533-.28329.079-.23487.42363-.55477.74572a1.54338,1.54338,0,0,1-.97935.39358A3.2324,3.2324,0,0,1,1.30637,6.1124a6.1846,6.1846,0,0,1-.967-.28194c-.64846-.54342.00842-2.24471.762-4.19634A2.23586,2.23586,0,0,1,1.58665.839,2.78791,2.78791,0,0,1,2.82164.17006Z"/>

</g>
</svg>
