<?xml version="1.0" encoding="UTF-8"?>
<svg xmlns="http://www.w3.org/2000/svg"
     version="1.1"
     width="43.67528202mm"
     height="32.09889140mm"
     viewBox="0.00000000 0.00000000 123.80390332 90.98899743">

<g transform="scale(3.33681837)">   <defs>
      <style type="text/css"><![CDATA[
      .a {
        fill: #000;
        stroke: #000;
        stroke-miterlimit: 10;
        stroke-width: 0.25px;
      }
    ]]></style>
   </defs>
   <path class="a"
         d="M3.454,8.6617a2.717,2.717,0,0,1-.9405-3.813c1.0357-1.7104,3.5801-1.832,5.3453-2.248,1.4878-.3521,2.8198-1.2466,4.2563-1.5943a20.34121,20.34121,0,0,1,4.7661-.8813c2.0161.0102,4.0083.6333,6.0503.7475,3.9292.2203,6.8071,1.0157,9.1646,4.2124a23.6822,23.6822,0,0,1,2.8359,4.9903c.6436,1.4775,2.7773,3.2885,1.7876,5.0112-1.417,2.4644-4.9438-1.124-5.8144-2.5278a24.14329,24.14329,0,0,0-3.625-4.5508A9.83,9.83,0,0,0,22.432,5.7906c-3.5996-.9131-6.6362-1.3643-10.2935-.481a6.70645,6.70645,0,0,0-3.747,1.87359c-.981.90921-2.252,2.04251-3.6978,1.88671A3.06431,3.06431,0,0,1,3.454,8.6617Z"/>
   <path class="a"
         d="M1.13556,8.5548c.5498-.7871,2.38531-1.7954,3.2129-.76661.6738.83931-.1743,2.477-.4058,3.34321a7.02887,7.02887,0,0,0-.2431,3.5025,8.1296,8.1296,0,0,0,2.0151,3.8828c2.2007,1.9931,5.7451,4.0571,8.7227,4.292,3.74751.2968,7.8808.8696,11.6172.2597a7.49656,7.49656,0,0,0,3.8442-2.3247,5.55246,5.55246,0,0,0,1.543-2.956c.2856-1.2134-.1294-2.0894-.0918-3.3042.0532-1.7437,1.7827-2.1172,2.9238-.9639a6.42844,6.42844,0,0,1,.9277,6.7368c-1.3735,2.8247-5.53559,4.7534-8.3178,5.9199-3.3955,1.42289-7.1529.896-10.7159.753a18.45978,18.45978,0,0,1-8.0317-2.2696,18.14524,18.14524,0,0,1-4.92819-3.7114A17.32228,17.32228,0,0,1,.246,13.8824,7.97965,7.97965,0,0,1,1.13556,8.5548Z"/>
   <path class="a"
         d="M16.40026,11.9664a3.90355,3.90355,0,0,1,2.6255-.3887c.6416.2012,1.2602,1.0381,1.6674,1.5039a17.4985,17.4985,0,0,1,1.6602,2.731c1.4253,2.3564-1.1973,2.66359-3.2783,3.07759-.9136.18261-6.1924.814-6.0606-.53369,1.4322-.5019,3.2827-.3686,3.836-2.2451.3183-1.0776-1.5821-3.5903-.1548-3.9971"/>

</g>
</svg>
