<?xml version="1.0" encoding="UTF-8"?>
<svg xmlns="http://www.w3.org/2000/svg"
     version="1.1"
     width="57.02524569mm"
     height="46.01683639mm"
     viewBox="0.00000000 0.00000000 161.64637408 130.44138580">

<g transform="scale(4.08317729)">   <defs>
      <style type="text/css"><![CDATA[
      .a {
        stroke: #000;
        stroke-linecap: round;
        stroke-linejoin: round;
        stroke-width: 0.01px;
      }
    ]]></style>
   </defs>
   <path class="a"
         d="M29.40171.19379c-.19383.09691-.4785.26045-.636.35736A1.13412,1.13412,0,0,1,28.372.7268c-.06057-.00606-.16354.08479-.23622.212-.07874.12114-.218.315-.3089.43a.47715.47715,0,0,0-.15142.46033,1.3047,1.3047,0,0,0,.09085.36947.7817.7817,0,0,1,.0424.35735c-.03029.321-.26045.527-.51484.47244a.59109.59109,0,0,0-.6178.27862,3.12273,3.12273,0,0,1-.9146.73289.63671.63671,0,0,0-.2241.16353,1.97835,1.97835,0,0,1-.65415.49061,3.18815,3.18815,0,0,0-.4361.26045,6.75238,6.75238,0,0,1-.69654.424,4.76348,4.76348,0,0,0-.65415.39976.96783.96783,0,0,1-.41187.17565,1.29856,1.29856,0,0,0-.70866.533.28692.28692,0,0,1-.19987.09691c-.15143,0-.36342.13931-.71472.47244-.15142.13931-.321.29679-.36947.34524a1.526,1.526,0,0,1-.27256.1696,1.89824,1.89824,0,0,0-.636.40582c0,.02423-.07874.07874-.17565.109a1.8773,1.8773,0,0,0-.47849.35736A6.74669,6.74669,0,0,1,17.839,9.44871a3.007,3.007,0,0,0-.84191.76317.62981.62981,0,0,1-.25439.15748,1.70314,1.70314,0,0,0-.90248.69049,2.47193,2.47193,0,0,1-.56329.60569c-.23622.18776-.56329.46638-.73289.6178-.16353.15748-.39975.36341-.51483.45427-.11508.09691-.29073.24833-.38764.33919a.78993.78993,0,0,1-.23017.16959c-.02422,0-.08479.07267-.13325.16354a1.02509,1.02509,0,0,1-.33919.321,2.42123,2.42123,0,0,0-.72683.64809,1.24476,1.24476,0,0,1-.33313.23017,1.19694,1.19694,0,0,0-.33313.218.89815.89815,0,0,1-.33313.13931c-.1817.05452-.47849.13931-.65414.18777a2.78412,2.78412,0,0,1-.739.08479,2.56264,2.56264,0,0,0-.59357.03635.74638.74638,0,0,1-.4785-.09086,1.04293,1.04293,0,0,0-.46032-.103,1.07831,1.07831,0,0,1-.43-.05451c-.15143-.0424-.37553-.09085-.49061-.109s-.36948-.06057-.56935-.09691a2.01569,2.01569,0,0,0-.87826.03634,4.90526,4.90526,0,0,1-.94487.09691c-.23017-.00606-.4785-.01211-.54513-.00606-.06662,0-.44215,0-.84191-.00605-.54512-.00606-.73894.01211-.81768.07874a1.317,1.317,0,0,1-.59963.28467.5583.5583,0,0,0-.28468.18171,2.01906,2.01906,0,0,1-.89642.40581,1.91284,1.91284,0,0,0-.71472.4785,1.35811,1.35811,0,0,0-.23016.43609.85636.85636,0,0,0,.03634.60569,1.95044,1.95044,0,0,0,.55724.92066,1.85832,1.85832,0,0,1,.315.24833,1.623,1.623,0,0,0,.79345.50878c.48456.09085,1.32041.73288,1.32041,1.01756.00606.218.30285.49667.848.79346a3.35867,3.35867,0,0,1,.59357.38764A12.48552,12.48552,0,0,0,5.5375,22.42255c.4361.40581.75711.52695,2.25317.86614a4.67476,4.67476,0,0,0,.81768.12114,5.85317,5.85317,0,0,0,1.484-.24834c.15142-.05451.41187-.13931.5754-.18776.1696-.04846.45427-.15142.636-.218.18171-.07268.45427-.17565.60569-.23016.15142-.04846.41187-.14537.57541-.20594a1.44375,1.44375,0,0,1,.6178-.08479,3.22639,3.22639,0,0,0,1.1811-.23622c.12114-.04846.47244.26044.47244.424a.54011.54011,0,0,0,.08479.23016c.07269.109.07269.212.01212.61781a3.13234,3.13234,0,0,1-.13931.60569,1.18561,1.18561,0,0,0-.06663.424,2.675,2.675,0,0,1-.103.636,2.66015,2.66015,0,0,0-.12113.533.93066.93066,0,0,1-.11508.34524,1.68557,1.68557,0,0,0-.06663.97516.67008.67008,0,0,1-.05451.44216,1.81766,1.81766,0,0,0-.103.79951,3.26489,3.26489,0,0,1-.06663.76922,9.344,9.344,0,0,0-.103,2.20471.87168.87168,0,0,0,.14536.533c.3937.424.38764.41793.70866.3937a2.48491,2.48491,0,0,0,1.07813-.28468,5.35607,5.35607,0,0,0,1.12053-.61174,3.94254,3.94254,0,0,1,.75711-.55724,2.25075,2.25075,0,0,0,.88431-.854c.212-.35131.23622-.59358.07268-.79346a.4854.4854,0,0,1-.07268-.212,4.59367,4.59367,0,0,0-.12719-.49061,3.08,3.08,0,0,1-.09086-1.07207c.00606-.04846-.006-.43-.02422-.848a4.857,4.857,0,0,1,.02422-.93881c.24834-.77529.24228-.70867.1272-1.15687-.109-.41187-.109-.56935.006-.56935.03029,0,.03635-.03029.01818-.06663-.07269-.109.02422-.3513.17565-.44821.1817-.12114.321-.06663.44215.17565a1.9876,1.9876,0,0,0,.25439.3513c.0848.0848.20594.212.2665.27862a.69125.69125,0,0,0,.83586.0424,1.54716,1.54716,0,0,1,1.26589-.0424c.16354.13324.20594.60569.109,1.2356a1.85782,1.85782,0,0,0,.15748,1.18715,1.89483,1.89483,0,0,0,.61174.19382,1.26978,1.26978,0,0,1,.8722.41794,1.18231,1.18231,0,0,0,.76317.43,3.3881,3.3881,0,0,1,.3937.0424.94141.94141,0,0,0,.75711-.16354,1.4057,1.4057,0,0,1,.50878-.13325,4.74085,4.74085,0,0,1,1.16293-.02423,1.53209,1.53209,0,0,1,1.32041.5209.92508.92508,0,0,0,.7026.30284.523.523,0,0,1,.29679.09086.30756.30756,0,0,0,.15748.09085,1.74694,1.74694,0,0,1,.36947.15142c.23016.12114.32707.13931.41792.09086a.61961.61961,0,0,1,.22411-.06057c.17565,0,.65415-.533.89642-.99939a1.8593,1.8593,0,0,1,.30285-.46638,1.41021,1.41021,0,0,0,.17565-.8722,1.598,1.598,0,0,0-.61781-.87219c-.56935-.45427-.81162-.51484-1.22955-.30285a1.63785,1.63785,0,0,1-.67837.14537,3.22105,3.22105,0,0,0-1.15687.19987c-.28468.14537-.848-.006-.92065-.24833a.85973.85973,0,0,0-.24834-.3089.74318.74318,0,0,1-.24833-.78134,1.39449,1.39449,0,0,1,.55118-.47244c.12114-.07268.22411-.15142.22411-.17565,0-.01817.07874-.07268.17565-.11508a.38907.38907,0,0,0,.20593-.14537,1.24637,1.24637,0,0,1,.29073-.24833,3.44137,3.44137,0,0,0,.43-.3513.74916.74916,0,0,1,.34525-.19988c.103-.02423.18776-.06057.18776-.09085,0-.02423.06057-.06663.13325-.09086a1.84736,1.84736,0,0,0,.46638-.38158,3.00646,3.00646,0,0,1,.5633-.45427c.21805-.11508.33918-.32708.4361-.76317.04239-.19382.38764-.38159.53906-.29679a.22437.22437,0,0,0,.20594.00606,4.22766,4.22766,0,0,1,1.52028.07874.657.657,0,0,0,.49667.03028c.23016-.09691.36947-.01211.56329.321a1.67074,1.67074,0,0,1,.19988.83585,4.37015,4.37015,0,0,0,.12719.84191,4.86479,4.86479,0,0,1,.11508.89642,5.8779,5.8779,0,0,0,.04846.67231,3.7037,3.7037,0,0,1-.16959,1.03574,3.00143,3.00143,0,0,0-.09692,1.272.31343.31343,0,0,1,0,.26651.86569.86569,0,0,0,.03029.48456,2.722,2.722,0,0,1,.09085,1.1811.85727.85727,0,0,0,.30285.82979.79875.79875,0,0,1,.24833.26651,2.1687,2.1687,0,0,0,.848.72683,1.3616,1.3616,0,0,1,.41793.15142c.28467.14537.321.14537.76922.0848a3.38882,3.38882,0,0,0,1.53845-.62992c.50879-.29679.527-.315.65415-.65415.11508-.32707.12113-.36947.03635-.56935-.05452-.12114-.07874-.23016-.06057-.24833.01211-.01212,0-.07268-.02424-.1272a3.99807,3.99807,0,0,1-.15747-1.04784,2.53006,2.53006,0,0,0-.12114-.56329c-.07268-.15748-.07874-.24834-.03028-.33313a.9429.9429,0,0,0-.09086-.69655,2.12433,2.12433,0,0,1-.06057-.7874A9.62414,9.62414,0,0,0,38.79592,23.21c-.03028-.19988-.06662-.47244-.08479-.60569a3.33251,3.33251,0,0,1-.02423-.68443,2.86945,2.86945,0,0,0-.103-.745,3.53026,3.53026,0,0,1-.05451-.58752c-.03634-.854-.13931-1.19322-.4785-1.53846a.64327.64327,0,0,1-.218-.38158,1.14,1.14,0,0,0-.315-.83586,4.84341,4.84341,0,0,1-.81162-.80557c-.0545-.09085-.13931-.11508-.424-.12719a3.77727,3.77727,0,0,1-1.1811-.20594c-.0848-.0424-.16353-.03028-.29679.03634a.85968.85968,0,0,1-.52695.05452,2.84611,2.84611,0,0,0-1.1083.05453c-.315.05452-.78739.109-1.04179.12719a2.9892,2.9892,0,0,0-.52089.06057.59238.59238,0,0,1-.26045-.01817c-.11508-.03027-.33313-.07267-.49061-.09691-.3089-.0424-.55118-.23016-.9691-.75711a1.37566,1.37566,0,0,1-.40581-.86614.59986.59986,0,0,0-.05452-.321,1.33323,1.33323,0,0,1-.06057-.45427,10.49438,10.49438,0,0,0-.23016-1.95638,1.34994,1.34994,0,0,1-.06057-.44215c.02423-.04846-.0424-.11508-.17564-.18171a.48909.48909,0,0,0-.46032-.02423.97515.97515,0,0,0-.33919.16354c-.04846.04846-.109.07268-.13325.05451a1.91837,1.91837,0,0,0-.81163.315c-.07268.06057-.16353.13325-.19988.1696-.04239.03028-.13325.109-.212.16353a.95361.95361,0,0,0-.24227.30285c-.33919.69654-.36342.76922-.315.99939a.91173.91173,0,0,1,.02422.28467c-.00605.03029-.02422.3937-.03635.79951a5.73086,5.73086,0,0,1-.06057.81163c-.04845.07874.08481.424.16354.424.03028,0,.09692.09691.14538.22411a1.02142,1.02142,0,0,0,.218.315.88921.88921,0,0,1,.17565.6602,1.08138,1.08138,0,0,1-.751.25439.58926.58926,0,0,1-.55724-.2241,2.15241,2.15241,0,0,1-.49666-.97517c-.01818-.07268-.05452-.13325-.07874-.13325-.03635,0-.13931-.212-.30891-.65414a.80587.80587,0,0,1-.05451-.218,2.6288,2.6288,0,0,0-.27256-.533,1.2425,1.2425,0,0,1-.27256-.79346,1.81609,1.81609,0,0,0-.06663-.50878,1.84745,1.84745,0,0,1-.08479-.29073,3.00146,3.00146,0,0,0-.109-.36341c-.07874-.20594-.07874-.26045-.00605-.40582a1.61439,1.61439,0,0,1,.59963-.5754.90346.90346,0,0,0,.24833-.18777c.04846-.06662.15143-.09085.34525-.08479a2.14983,2.14983,0,0,0,1.22349-.49667,1.21526,1.21526,0,0,1,.40582-.218.17116.17116,0,0,0,.13325-.05451,3.37761,3.37761,0,0,1,.90853-.49061c.05452,0,.09691-.02423.09691-.04846a1.03229,1.03229,0,0,1,.33313-.2241,1.10514,1.10514,0,0,0,.33313-.212c0-.02423.109-.09086.24228-.14537s.24228-.12114.24228-.15142c0-.05451.36947-.20594.51483-.212a2.21883,2.21883,0,0,0,.38159-.17565,2.50154,2.50154,0,0,1,.36947-.16354,2.62512,2.62512,0,0,0,.44216-.38159,4.66994,4.66994,0,0,1,1.02967-.86613,1.55158,1.55158,0,0,0,.36947-.212,1.30849,1.30849,0,0,1,.29073-.17565,2.33021,2.33021,0,0,0,.62992-.642,2.3192,2.3192,0,0,1,.44216-.44215,1.41678,1.41678,0,0,0,.315-.30891.35163.35163,0,0,1,.109-.16959,2.25258,2.25258,0,0,0,.24833-.33313c.07269-.12114.16354-.22411.19382-.22411.09086,0,.218-.38764.22411-.69048a1.7489,1.7489,0,0,1,.18776-.66021,2.31519,2.31519,0,0,0,.25439-.79951,2.90693,2.90693,0,0,0-.5209-1.34463,1.67044,1.67044,0,0,1-.36341-.44216A1.90637,1.90637,0,0,0,32.80569.70257a4.82768,4.82768,0,0,1-.76923-.33313,1.626,1.626,0,0,0-.52089-.18171,3.33125,3.33125,0,0,1-.46639-.09691,3.4572,3.4572,0,0,0-.75711-.07265A1.39025,1.39025,0,0,0,29.40171.19379Zm.86613,4.45788a.23926.23926,0,0,1-.006.23016.88927.88927,0,0,0-.06663.23016,2.996,2.996,0,0,1-.32708.65417c-.18171.2968-.41187.69048-.51484.86009a1.00633,1.00633,0,0,1-.24228.321c-.02422,0-.06662.06663-.08479.14537a.26458.26458,0,0,1-.15748.18776c-.06663.01818-.12114.06056-.12114.09086,0,.109-.41187.48455-.7874.72077a4.36522,4.36522,0,0,0-.48455.32707,6.43174,6.43174,0,0,1-1.19927.58752.13673.13673,0,0,0-.109.09086,10.87089,10.87089,0,0,1-2.77407,1.41731,1.48325,1.48325,0,0,0-.45427.23622,1.846,1.846,0,0,1-1.00544.4361,1.71919,1.71919,0,0,0-.87825.34525,1.31037,1.31037,0,0,1-.79345.44215,3.16325,3.16325,0,0,0-1.14476.48455,1.29835,1.29835,0,0,1-.34524.18171c-.19382.07874-.52695.22411-.745.33313a3.31272,3.31272,0,0,1-.66626.23622,2.35659,2.35659,0,0,0-.57542.18776c-.55723.26045-.80557.34525-.92671.30891-.19987-.06663-.212-.218-.03634-.47244a6.242,6.242,0,0,1,1.39309-1.32041.85452.85452,0,0,0,.32708-.24833.64672.64672,0,0,1,.321-.18777,1.88424,1.88424,0,0,0,.76923-.41187c0-.02422.09085-.07874.19988-.12114a4.471,4.471,0,0,0,1.3204-.68443,2.33434,2.33434,0,0,1,.37553-.26044,1.67344,1.67344,0,0,0,.315-.212,2.57133,2.57133,0,0,1,.48455-.27257,3.33163,3.33163,0,0,0,.6057-.35735,2.66723,2.66723,0,0,1,.51482-.315,2.15435,2.15435,0,0,0,.45427-.27862c.103-.09085.212-.18776.2544-.218a4.02193,4.02193,0,0,1,.527-.27862,2.10825,2.10825,0,0,0,.46033-.2665,2.81218,2.81218,0,0,1,.82979-.43.5562.5562,0,0,0,.24228-.12114.58617.58617,0,0,1,.22411-.12114.7993.7993,0,0,0,.27854-.15148c.109-.07874.22411-.13324.25439-.11507.02423.01816.06663-.00607.07874-.05452a1.72618,1.72618,0,0,1,.47244-.28467c.24228-.109.49061-.22412.55724-.26045a3.06315,3.06315,0,0,0,.89036-.59358,1.25662,1.25662,0,0,1,.36342-.26651,1.62,1.62,0,0,0,.36947-.24833.733.733,0,0,1,.33919-.20593,2.19568,2.19568,0,0,0,.55723-.23622C30.068,4.47,30.16488,4.46391,30.26784,4.65167Zm-8.79463,9.3095a.65876.65876,0,0,1,.02423.30284,1.33609,1.33609,0,0,0,.09085.54512,1.28745,1.28745,0,0,1,.109.83586.60843.60843,0,0,0,.12113.47244.74116.74116,0,0,1,.1272.52088c-.03029.2544.02423.37554.35736.72683.212.23016.33918.49667.29679.6178a3.32155,3.32155,0,0,1-1.30224.5633,1.15714,1.15714,0,0,0-.39976.09691,3.81885,3.81885,0,0,1-.5754.19988,6.15854,6.15854,0,0,0-.93882.35735,2.13652,2.13652,0,0,1-.7874.24834c-.19988.01817-.48456.04845-.642.06057a2.90654,2.90654,0,0,0-.75712.25439,1.84335,1.84335,0,0,1-.62992.212,1.4784,1.4784,0,0,0-.424.07874,1.17469,1.17469,0,0,1-.8722.01211.9123.9123,0,0,0-.54512-.03028c-.16959.03028-.45427.08479-.636.11508s-.48456.09086-.66626.13932a.69136.69136,0,0,1-.57541-.01817,2.42162,2.42162,0,0,0-.539-.13931,1.58354,1.58354,0,0,1-.4361-.1272.38893.38893,0,0,0-.24834-.06057c-.17565.04846-.49061-.109-.81768-.3937a.91053.91053,0,0,1-.38158-.77528c.01211-.06057.03634-.18171.06057-.27256.03028-.15142.2241-.38764.73288-.90248a3.148,3.148,0,0,1,.61781-.3937,3.72222,3.72222,0,0,0,.49666-.27862,12.76726,12.76726,0,0,1,2.45305-.92671,16.929,16.929,0,0,0,1.9685-.61174c.3513-.11508.72077-.23017.81768-.24834a.87312.87312,0,0,0,.3513-.17565.87615.87615,0,0,1,.24225-.15145,1.40289,1.40289,0,0,0,.67231-.19988,1.41308,1.41308,0,0,1,.49061-.15748,1.426,1.426,0,0,0,.79346-.315,2.82769,2.82769,0,0,1,.54512-.28467c.37553-.15748.4361-.16354.58146-.09085A.60343.60343,0,0,1,21.47321,13.96117Zm-14.94845,3.192a1.59894,1.59894,0,0,1,.86613.43.328.328,0,0,1-.07268.2665,2.65552,2.65552,0,0,0-.24228.40582.649.649,0,0,1-.38158.34524,1.83186,1.83186,0,0,1-1.702-.15748c-.321-.15748-.71472-.48455-.71472-.59358,0-.212.3937-.49061.62386-.4361a.80516.80516,0,0,0,.36342-.12719.983.983,0,0,1,.76923-.18171C6.18557,17.12284,6.40362,17.14708,6.52476,17.15317ZM26.773,20.84788c.04239.11508-.12114.27862-.23622.23621a.17921.17921,0,1,1,.23622-.23621Zm-.41187.19988c.14536.14537-.01212.30285-.67838.65415a4.86551,4.86551,0,0,1-1.61719.71471.60635.60635,0,0,1-.22411-.48455.8895.8895,0,0,0-.09085-.32707c-.0848-.1696-.0848-.18778.03028-.30286a.45534.45534,0,0,1,.44216-.12113,1.11075,1.11075,0,0,0,.321-.06057,3.64317,3.64317,0,0,1,1.81708-.07271ZM36.86988,26.717c.03634.39975-.03029.57541-.19988.58145-.0848,0-.29073-.24227-.29073-.33313,0-.14535.27861-.39975.38765-.35736a.15353.15353,0,0,1,.103.109Z"/>
   <path class="a"
         d="M15.54349,17.3954c0,.04846.03029.09086.06057.09086.03635,0,.06057-.0424.06057-.09086s-.02422-.09085-.06057-.09085C15.57378,17.30456,15.54349,17.347,15.54349,17.3954Z"/>
   <path class="a"
         d="M34.78024,16.19616a.15711.15711,0,0,0,.02423.16354c.07874.07873.27862-.103.218-.19989a.13378.13378,0,0,0-.24223.03635Z"/>
   <path class="a"
         d="M39.41983,21.79272a.17309.17309,0,0,0,.103.103c.04846.01817.07268-.00605.05451-.05451a.173.173,0,0,0-.103-.103C39.42589,21.72,39.40166,21.74428,39.41983,21.79272Z"/>

</g>
</svg>
