<?xml version="1.0" encoding="UTF-8"?>
<svg xmlns="http://www.w3.org/2000/svg"
     version="1.1"
     width="59.99140426mm"
     height="29.16617476mm"
     viewBox="0.00000000 0.00000000 170.05435221 82.67577806">

<g transform="scale(5.28647590)">   <defs>
      <style type="text/css"><![CDATA[
      .a {
        stroke: #000;
        stroke-linecap: round;
        stroke-linejoin: round;
        stroke-width: 0.01px;
      }
    ]]></style>
   </defs>
   <path class="a"
         d="M27.42017.12611a.32308.32308,0,0,1-.18777.15748,2.171,2.171,0,0,0-.81163.98727c-.13325.30285-.29073.4361-.52089.4361-.12114,0-.19988.05451-.29073.19382a2.27966,2.27966,0,0,1-.41793.44216,1.39944,1.39944,0,0,0-.35736.39975,1.45116,1.45116,0,0,1-.46032.41793,1.31142,1.31142,0,0,0-.4361.37553,1.06437,1.06437,0,0,1-.37553.30284,1.04139,1.04139,0,0,0-.49061.49061,1.82194,1.82194,0,0,1-.34524.46033c-.09691.09085-.28468.27256-.424.41187a2.48088,2.48088,0,0,1-.57541.41187,3.03683,3.03683,0,0,0-.56329.37553c-.19382.16959-.24834.19382-.3513.13325-.103-.05451-.15143-.0424-.27256.07268a.4674.4674,0,0,0-.14537.27256c0,.23017-.06057.315-.35736.50273l-.27862.1817-.66626-.07874c-.36947-.04845-.73288-.08479-.81768-.09085a1.94908,1.94908,0,0,0-.72077.05451,1.8394,1.8394,0,0,1-.50878.02423,1.45439,1.45439,0,0,0-.5209.03634,1.66352,1.66352,0,0,1-.46638.06663,2.50792,2.50792,0,0,0-.61175.09085,1.58658,1.58658,0,0,1-.56935.05451,1.02406,1.02406,0,0,0-.424.03635.23572.23572,0,0,1-.23618-.006,5.10278,5.10278,0,0,0-.98728-.09691,6.557,6.557,0,0,1-1.48394-.109.91067.91067,0,0,0-.37553.06057,3.96063,3.96063,0,0,1-1.09024.13931,1.47029,1.47029,0,0,0-.45427.03634c-.09691.01817-.29679.04846-.44215.06057a.92373.92373,0,0,0-.41793.14537c-.16959.13325-.27256.109-.45427-.109a.35576.35576,0,0,0-.23622-.12725.60262.60262,0,0,1-.25439-.07268c-.32707-.18777-.51484-.20594-1.24166-.16354a2.83377,2.83377,0,0,1-1.60509-.23622,1.60687,1.60687,0,0,0-.89642-.17565.9877.9877,0,0,1-.47849-.04846c-.92671-.46645-1.169-.46645-2.36822.01813a.2828.2828,0,0,1-.24227.00606.63472.63472,0,0,0-.59358.06057A.64773.64773,0,0,0,.261,7.11578a1.0433,1.0433,0,0,0-.0848.321,1.22426,1.22426,0,0,1-.09693.33315c-.09691.26045-.09691.29073-.01211.48455a2.686,2.686,0,0,0,.56935.84191,1.45809,1.45809,0,0,1,.27862.33919c.08479.13325.24227.24228.636.41187a6.20251,6.20251,0,0,1,.69655.35736,1.36325,1.36325,0,0,0,.5754.16353,1.31052,1.31052,0,0,1,.66021.20594,1.25178,1.25178,0,0,0,.78739.18777,5.14041,5.14041,0,0,1,.82374.09086,1.04169,1.04169,0,0,0,.424.01817c.06662-.01817.7026-.0424,1.39914-.04846a5.744,5.744,0,0,0,1.41732-.08479A4.196,4.196,0,0,1,9.522,10.61668a3.01759,3.01759,0,0,0,.99939-.15143c.08479-.04239.2665-.109.40581-.15748.15142-.04239.27256-.12719.29073-.19382.06663-.20593.23622-.24227.79346-.16353a4.55625,4.55625,0,0,0,.73894.0424,1.49144,1.49144,0,0,1,.46032.02422c.15143.03634.26045.03029.315-.01817a.8592.8592,0,0,1,.36947-.07874,1.45787,1.45787,0,0,0,.49061-.12114c.13326-.07268.22411-.08479.30285-.04239.12114.06662.32707.04845,1.00545-.09691a1.70642,1.70642,0,0,1,.93882-.00606c.44821.09691.46638.09691.6602-.02423.109-.06663.218-.109.23622-.0848.01817.01818.103-.01817.18171-.08479.19382-.15143.24833-.12114.79951.424.46638.46638.53907.62386.44215.957-.13325.44216.03029,1.46577.23017,1.46577a.5484.5484,0,0,1,.26044.12114.5561.5561,0,0,0,.24228.12114,1.08987,1.08987,0,0,1,.3513.212,1.04646,1.04646,0,0,0,.36342.212.51923.51923,0,0,1,.24227.109,1.65753,1.65753,0,0,0,.35736.19382c.11508.04846.41187.18776.6602.315a1.10221,1.10221,0,0,0,.81163.19988.71006.71006,0,0,1,.50878.06662.5462.5462,0,0,0,.33919.06663,1.657,1.657,0,0,1,.89036.29073.38166.38166,0,0,0,.33919.06057c.19988-.03028.28467-.00606.55724.17565a1.16659,1.16659,0,0,0,.31495.18171c0-.01212.0848.01817.18777.07268a.64705.64705,0,0,0,.3089.06663c.18171-.04846.4361.2241.38764.41792a.34734.34734,0,0,0,.05452.28468c.04845.07269.09085.103.09085.06662a1.02053,1.02053,0,0,1,.20593-.29073c.18171-.19382.23017-.218.33313-.15748.07269.03635.1272.04846.1272.03029s.06057-.00606.13325.03634a1.84844,1.84844,0,0,0,.59358.06057c.55723-.01212.642.01817.76317.24228.09691.18776.24833.23016.30284.08479a1.34225,1.34225,0,0,1,.65415-.3513,1.66593,1.66593,0,0,0,.81768-.2665.77645.77645,0,0,1,.315-.13931c.06057,0,.18171-.09691.26651-.212a.83058.83058,0,0,1,.27256-.24228,1.66336,1.66336,0,0,0,.38764-.51484,1.34,1.34,0,0,1,.41187-.51483l.1272-.0424-.13931-.109a.66565.66565,0,0,1-.18777-.56329c0-.15142-.2665-.37553-.55118-.47244a.49577.49577,0,0,0-.40581.00606.38965.38965,0,0,1-.24833.03028.42948.42948,0,0,0-.27256.09086,1.51554,1.51554,0,0,1-.34524.15748,2.02434,2.02434,0,0,1-.56329.08479c-.06663,0-.29679-.01211-.51484-.02423a4.89492,4.89492,0,0,0-.7874.03029,4.625,4.625,0,0,1-.51483.06057,3.00193,3.00193,0,0,1-1.49-.58752.4647.4647,0,0,0-.27862-.14537,5.84535,5.84535,0,0,1-.88431-.24833,4.63071,4.63071,0,0,0-1.30224-.321.95122.95122,0,0,1-.67837-.41187,1.59111,1.59111,0,0,0-1.33858-.2241c-.09691.04845-.17565-.00606-.50272-.33919-.28467-.28467-.4361-.3937-.55118-.3937a.69728.69728,0,0,1-.53906-.27256c-.02423-.06663.06057-.19382.25439-.38764a2.34621,2.34621,0,0,0,.40581-.54512,2.01953,2.01953,0,0,1,.957-.95094.65318.65318,0,0,0,.3513-.23016,1.81686,1.81686,0,0,1,.61781-.58147,2.20037,2.20037,0,0,0,.93276-.58146,1.14018,1.14018,0,0,1,.32707-.2665.84976.84976,0,0,0,.27862-.18777c.15748-.13325.24834-.17565.34525-.14536a.54852.54852,0,0,0,.58752-.1272c.15748-.15142.16353-.16959.07874-.30284-.0848-.1272-.0848-.14537.03634-.26651.09085-.09085.16353-.11508.23016-.08479a.5238.5238,0,0,0,.6178-.11509,1.48928,1.48928,0,0,1,.35736-.29073c.218-.12114.41793-.3937.34525-.46638-.07874-.07268.103-.24228.43-.39976.69048-.33313.745-.36947.78134-.47243a.90848.90848,0,0,1,.29073-.27256c.41793-.27257.957-1.175.8298-1.39915a.31819.31819,0,0,1-.02423-.19988c.07268-.26045-.56329-1.01756-.89037-1.066A.33983.33983,0,0,1,28.032.13834a.43165.43165,0,0,0-.61029-.01367Z"/>

</g>
</svg>
