<?xml version="1.0" encoding="UTF-8"?>
<svg xmlns="http://www.w3.org/2000/svg"
     version="1.1"
     width="23.96691225mm"
     height="19.76512270mm"
     viewBox="0.00000000 0.00000000 67.93772217 56.02711147">

<g transform="scale(3.49546162)">   <defs>
      <style type="text/css"><![CDATA[
      .a {
        fill: #000;
        stroke: #000;
        stroke-width: 0.15px;
      }
    ]]></style>
   </defs>
   <path class="a"
         d="M.525,5.92092c-1.9688-2.7154,3.0556-4.1949,4.81051-4.6641,2.95509-.7905,7.91309-2.06,10.61719-.2788,1.9512,1.28559,3.6416,3.6602,3.38181,6.0581a9.39288,9.39288,0,0,1-1.94821,4.37649,12.60938,12.60938,0,0,1-2.8232,2.91551,6.892,6.892,0,0,1-4.2803,1.48c-.5225.0171-2.5957.3569-2.9307-.0654-.6679-.8418,1.8936-1.5948,2.31741-1.8145a10.61019,10.61019,0,0,0,3.085-2.396,6.60738,6.60738,0,0,0,1.497-6.6333c-.91991-2.605-5.52731.3755-6.80951,1.3208A6.14987,6.14987,0,0,1,5.1685,7.36132C3.38139,7.72312,1.66359,7.49122.525,5.92092Z"/>
   <path class="a"
         d="M.98689,5.51361A3.90668,3.90668,0,0,1,2.48789,3.542a3.35393,3.35393,0,0,1,2.5068-.4971,1.50578,1.50578,0,0,1,.8232,1.1069,4.21018,4.21018,0,0,1-.3046,2.0533c-.3575,1.1323-1.127,2.7841-.4551,3.9394.6865,1.1807,2.3076,1.01709,3.4355,1.2417,1.5664.312,3.1143.811,4.7012,1.0938.2578.0459,1.3672.1533,1.3301.57859-.0381.44531-1.2432.542-1.5322.57471-1.4141.1557-2.8458-.0874-4.2686.0049-1.9033.1235-3.7109-.2989-5.5889-.3565a2.38115,2.38115,0,0,1-2.4482-1.5469C-.14691,9.872.30529,7.33252.98689,5.51361Z"/>

</g>
</svg>
