<?xml version="1.0" encoding="UTF-8"?>
<svg xmlns="http://www.w3.org/2000/svg"
     version="1.1"
     width="17.52239038mm"
     height="12.33177380mm"
     viewBox="0.00000000 0.00000000 49.66979064 34.95623257">

<g transform="scale(2.31801567)">   <defs>
      <style type="text/css"><![CDATA[
      .a {
        fill: #000;
        stroke: #000;
        stroke-miterlimit: 10;
        stroke-width: 0.25px;
        fill-rule: evenodd;
      }
    ]]></style>
   </defs>
   <path class="a"
         d="M6.7278,6.72436c.5127-.4424,1.0196-.8916,1.5679-1.2773.8667-.6099,1.6694-1.2232,2.5078-1.8711.416-.3213.7378-.6699,1.1665-.98a6.44093,6.44093,0,0,0,1.1172-1.1758A3.06829,3.06829,0,0,1,14.3836.54225c.2559-.10839.5649-.58989.8594-.35209.2094.16609.0957.6089.0971.836a1.42823,1.42823,0,0,1-.7211,1.1616,16.76166,16.76166,0,0,0-2.5357,1.6611A15.65742,15.65742,0,0,1,9.6639,5.51925c-.7456.565-1.2124,1.313-2.0215,1.81691-.624.3877-1.5318,1.169-1.103,2.043.5771,1.1704,3.8061.2817,4.8061.3433q1.97685.126,3.958.2055a6.30394,6.30394,0,0,1,4.1763,1.8477,15.47972,15.47972,0,0,1,1.6621,2.0478c.1216.1631.1982.5899.1421.6231a3.265,3.265,0,0,1-1.1914.4912,7.19894,7.19894,0,0,1-3.1948-.81451,22.9145,22.9145,0,0,0-8.4483-1.66989,8.94929,8.94929,0,0,1-2.7353-.2143,6.148,6.148,0,0,0-1.7256-.3672c-1.0591-.0098-3.1826.3847-3.7578-.8574-.5987-1.294,1.5014-1.9107,2.3427-2.0176A6.35631,6.35631,0,0,0,5.223,7.908,14.88982,14.88982,0,0,0,6.7278,6.72436Z"/>

</g>
</svg>
