<?xml version="1.0" encoding="UTF-8"?>
<svg xmlns="http://www.w3.org/2000/svg"
     version="1.1"
     width="48.08315092mm"
     height="25.55876615mm"
     viewBox="0.00000000 0.00000000 136.29872073 72.44996624">

<g transform="scale(6.15867947)">   <defs>
      <style type="text/css"><![CDATA[
      .a {
        stroke: #000;
        stroke-linecap: round;
        stroke-linejoin: round;
        stroke-width: 0.01px;
      }
    ]]></style>
   </defs>
   <path class="a"
         d="M21.29638.08388a7.803,7.803,0,0,0-1.07207.48455,6.19748,6.19748,0,0,1-.84191.3937.36233.36233,0,0,0-.19988.12719,1.95,1.95,0,0,1-.98728.46033,3.20446,3.20446,0,0,0-.55118.19382,2.51834,2.51834,0,0,1-.321.218,1.07049,1.07049,0,0,0-.32708.24833.44865.44865,0,0,1-.23622.14537c-.11508.0424-.36341.15142-.55723.24833a2.05565,2.05565,0,0,1-.41187.17565,7.66056,7.66056,0,0,0-1.19927.59964,1.61728,1.61728,0,0,1-.50878.18776.702.702,0,0,0-.33919.14537,4.75208,4.75208,0,0,1-.76317.36947,2.9838,2.9838,0,0,0-.73894.40581.51492.51492,0,0,1-.28468.16959.45258.45258,0,0,0-.26044.18777c-.13931.18776-.59358.49666-.69049.46638-.103-.02423-.35736.09085-.78134.35736a3.10477,3.10477,0,0,1-.642.321,1.63419,1.63419,0,0,0-.424.212,4.33311,4.33311,0,0,1-.58146.32707,2.30688,2.30688,0,0,0-.49061.29679.47349.47349,0,0,1-.33919.12114,1.55869,1.55869,0,0,0-.53906.15142,3.96438,3.96438,0,0,1-.60569.23016c-.16354.04846-.29679.12114-.315.18171-.03634.103-.23017.19382-.60569.29679a3.22129,3.22129,0,0,0-.86614.3513c-.04846.0424-.109.06057-.13931.0424s-.1272.01211-.218.07268c-.09691.06663-.212.13931-.2665.16959-.05452.03634-.1696.109-.25439.1696a.26434.26434,0,0,1-.43616-.1393.53728.53728,0,0,0-.23016-.218,2.94367,2.94367,0,0,1-.854-.78134,2.38336,2.38336,0,0,1-.33314-1.81713c.07874-.56935.26045-.91459.53907-1.0115A1.41329,1.41329,0,0,0,2.9924,4.457c.14536-.103.18776-.109.38158-.0424a2.16025,2.16025,0,0,0,.97518-.03032c.1393-.03028.29073.01817.66626.212a2.32564,2.32564,0,0,0,.73288.2665,1.07092,1.07092,0,0,1,.39976.12114c.13931.09085.212.09691.50272.0424.38764-.07269.46033-.109.44821-.20594a.77565.77565,0,0,1,.03029-.23622c.0424-.13931.01817-.19988-.15143-.36947-.11508-.109-.25439-.24833-.3089-.315a1.7661,1.7661,0,0,0-.1696-.18169A3.04853,3.04853,0,0,1,6.251,3.3667c-.103-.15748-.218-.28467-.26045-.28467a.93369.93369,0,0,1-.29073-.15143A.9583.9583,0,0,0,4.87,2.77313a2.11892,2.11892,0,0,1-.59963.103,3.49563,3.49563,0,0,0-.73895.1272,3.49891,3.49891,0,0,1-.636.16959,1.767,1.767,0,0,0-.79952.38764A.60729.60729,0,0,1,1.89,3.69987a2.9858,2.9858,0,0,0-.47244.424c-.21805.2241-.43.43609-.47244.47244a3.82612,3.82612,0,0,0-.533.58146A.76248.76248,0,0,0,.285,5.414c-.00606.03028-.01212.09085-.01817.12719a1.00071,1.00071,0,0,1-.15142.27862A.36014.36014,0,0,0,.0548,6.262c.05451.16959.06057.2665.01211.3513a.822.822,0,0,0,.16354.81162c.12113.11508.15142.18777.12113.30285C.2365,8.20018.2365,8.2244.46667,8.497a1.0516,1.0516,0,0,0,.51483.36947.70383.70383,0,0,1,.33313.18776c.01817.04846.06057.07874.09691.05451.06057-.03634.30285.17565.30285.26651a3.2901,3.2901,0,0,1-.73894.73894.63294.63294,0,0,1-.15143,0c-.109-.01211-.38764.24228-.45426.41187-.06663.18171.04239.49667.16353.45427.0424-.01817.1696.05451.27862.15142a.78761.78761,0,0,0,.27256.18777,1.78573,1.78573,0,0,1,.33313.11508c.28468.12113.4785.12719.61175.02422.24833-.19382.3513-.212.56935-.07268a.48951.48951,0,0,0,.37553.09085,1.69908,1.69908,0,0,1,.81768.01212.59605.59605,0,0,0,.424-.01212,1.13747,1.13747,0,0,1,.4361-.05451,3.88581,3.88581,0,0,0,.87825-.00605,6.30108,6.30108,0,0,0,1.12051-.1454,1.51353,1.51353,0,0,1,.745.00606.13973.13973,0,0,0,.13325-.01817c.06057-.03636.15748-.01213.28468.06662.109.07269.19988.109.19988.08479,0-.01817.04845-.00605.109.02423a1.56735,1.56735,0,0,0,.44215.09691c.58147.06057.636.06662.70261.109a3.76411,3.76411,0,0,0,1.10235.04846.40574.40574,0,0,1,.27862.01211c.16354.04846.22411.0424.30285-.0424.12114-.12114.212-.11508.636.02423.29679.09691.35736.09691.53907.02423a1.06334,1.06334,0,0,1,.33918-.0848,3.73879,3.73879,0,0,0,1.04179-.50272c.36947-.24834.39976-.59358.09086-.99334A1.18042,1.18042,0,0,0,12.526,9.69012a4.40336,4.40336,0,0,1-1.4052-.11508,1.40337,1.40337,0,0,0-.65415-.07269.492.492,0,0,1-.212-.02423.64341.64341,0,0,0-.38158.05452c-.20594.08479-.24228.08479-.41793-.00606a1.98485,1.98485,0,0,0-.92065-.0848c-.72683.01212-1.92.04241-2.09569.06057-.04846,0-.24833-.00605-.44821-.01817-.5209-.03634-.58752-.24833-.15748-.46638a1.45871,1.45871,0,0,0,.321-.212A4.36673,4.36673,0,0,1,7.208,8.35153a.10512.10512,0,0,0,.09085-.06663.76838.76838,0,0,1,.37553-.12113,1.0756,1.0756,0,0,0,.4361-.14537,3.16389,3.16389,0,0,1,1.15688-.49058,1.65541,1.65541,0,0,0,.636-.24228,2.55968,2.55968,0,0,1,1.1508-.47244c.26651-.03634.35131-.07268.38159-.16353.07874-.24228.321-.33313,1.20533-.4361.103-.01211.18776-.04846.20593-.09085a.50442.50442,0,0,1,.24228-.13931,1.08892,1.08892,0,0,0,.315-.15143,1.80779,1.80779,0,0,1,.321-.17565c.12114-.04845.22411-.11508.22411-.14536s.11508-.09691.26044-.15748a1.50291,1.50291,0,0,0,.37553-.212,4.77683,4.77683,0,0,1,1.10236-.533.7779.7779,0,0,0,.24833-.09085,1.25092,1.25092,0,0,1,.38159-.13326,1.1685,1.1685,0,0,0,.37553-.14536,2.0431,2.0431,0,0,1,.52695-.19382c.321-.06663.72683-.26651.72683-.35736,0-.02423.0848-.07874.18171-.11508a.7169.7169,0,0,0,.27861-.15748.43421.43421,0,0,1,.26045-.09086,2.34628,2.34628,0,0,0,.527-.12113,2.3593,2.3593,0,0,1,.48455-.12114c.12114,0,.19988-.09691.24228-.29679.01817-.103.15142-.19382.218-.15142.1272.07874.70866-.4361,1.07813-.957a2.23975,2.23975,0,0,1,.55118-.50878L22.12616.944V.63506c0-.27257-.02423-.33313-.18777-.4785C21.72642-.0312,21.72642-.0312,21.29638.08388Z"/>

</g>
</svg>
