<?xml version="1.0" encoding="UTF-8"?>
<svg xmlns="http://www.w3.org/2000/svg"
     version="1.1"
     width="63.23601265mm"
     height="35.82736103mm"
     viewBox="0.00000000 0.00000000 179.25170151 101.55789755">

<g transform="scale(5.48693194)">   <defs>
      <style type="text/css"><![CDATA[
      .a {
        stroke: #000;
        stroke-linecap: round;
        stroke-linejoin: round;
        stroke-width: 0.01px;
      }
    ]]></style>
   </defs>
   <path class="a"
         d="M29.01152.22911c-.07874.12719-.17565.29678-.21805.38158s-.103.19382-.13325.24228a6.15914,6.15914,0,0,0-.34524.7874.48442.48442,0,0,1-.13931.1817,1.623,1.623,0,0,0-.39976.76317.39177.39177,0,0,1-.29073.3513.45654.45654,0,0,0-.20593.109.934.934,0,0,1-.26045.15748c-.11508.0424-.16959.13325-.22411.33313a.71051.71051,0,0,1-.24227.3937,2.869,2.869,0,0,0-.60569.55723c.103,0-.09691.24834-.27257.33919a3.06927,3.06927,0,0,0-.52089.424,1.17021,1.17021,0,0,1-.44215.32708,1.11177,1.11177,0,0,0-.41187.28467c-.16354.16354-.32708.321-.36948.35736-.04239.0424-.11508.12114-.16959.17565a4.00468,4.00468,0,0,1-.89642.61175.25964.25964,0,0,0-.16959.17565c-.03029.12719-.218.27862-.66021.527a2.49624,2.49624,0,0,0-.44215.36341c-.41793.424-.47244.46639-.81769.57541A2.15041,2.15041,0,0,1,19.44766,8.63c-.0848-.01817-.38158-.0424-.66626-.06057-.92065-.0424-1.02967-.06057-1.19927-.18776-.12719-.09086-.19987-.109-.27256-.06663a.218.218,0,0,1-.16959.01817,1.1165,1.1165,0,0,0-.34525-.06662c-.15747-.01212-.31495-.03029-.34524-.03635a.82008.82008,0,0,0-.23016.03635c-.13325.03028-.19382.00605-.315-.12114-.0848-.09086-.16959-.14537-.18777-.1272a.49476.49476,0,0,1-.2665-.07874,2.48189,2.48189,0,0,0-.89642-.24833.9777.9777,0,0,1-.3513-.0848c-.15143-.06057-.24834-.07268-.32708-.03028a.718.718,0,0,1-.25439.06662c-.212,0-1.02967-.00605-1.19926-.01211h-.212c-.03028.00606-.12719.01817-.212.02423a.85408.85408,0,0,0-.29073.09085c-.12114.06663-.16354.06663-.29679-.01817-.13325-.09085-.19988-.09691-.51484-.03028a.87133.87133,0,0,1-.53906,0c-.15748-.06663-.18776-.06057-.3513.11508-.20594.218-.29073.23016-.59964.07268a.66761.66761,0,0,0-.55117-.05451,1.62236,1.62236,0,0,0-.45427.13931.65333.65333,0,0,1-.30891.08479,3.3205,3.3205,0,0,0-.93276.13931,2.27688,2.27688,0,0,1-.54512.0848,1.921,1.921,0,0,0-.57541.12114,1.47471,1.47471,0,0,1-.52089.11508,4.169,4.169,0,0,0-.51484.06057,3.73846,3.73846,0,0,1-.48455.06057,1.26282,1.26282,0,0,0-.76317.19382.82133.82133,0,0,1-.33308.11512.76476.76476,0,0,0-.33919.12719.83165.83165,0,0,1-.40581.11509,1.07413,1.07413,0,0,0-.44821.11508,2.4693,2.4693,0,0,1-.67838.25439,3.03711,3.03711,0,0,1-.39975.05451A.73274.73274,0,0,0,.647,9.84142a.71591.71591,0,0,0-.218.3089.66357.66357,0,0,1-.30284.48456c-.103.03634-.12114.09085-.12114.44821V11.495l.3513.16959A1.18681,1.18681,0,0,0,1.386,11.7615c.07268-.0424.15142-.06662.16959-.04845s.0848-.01817.15142-.0848.14537-.103.17565-.0848.12114-.00605.19382-.05451a.99991.99991,0,0,1,.3513-.11508,3.67773,3.67773,0,0,0,1.04785-.3513c.29073-.14537.37553-.15748.49667-.103s.212.03634.533-.103a3.057,3.057,0,0,1,.57541-.1817.79238.79238,0,0,0,.3513-.14537.37585.37585,0,0,1,.27256-.09691.60135.60135,0,0,0,.315-.05451.56687.56687,0,0,1,.24228-.06057,1.30753,1.30753,0,0,0,.4361-.15142,2.25774,2.25774,0,0,1,.62386-.19382,1.95007,1.95007,0,0,0,.55723-.1696.90316.90316,0,0,1,.60569-.12114,1.16565,1.16565,0,0,0,.424-.01817,2.00867,2.00867,0,0,1,.49061-.07874,1.33174,1.33174,0,0,0,.45427-.07874.228.228,0,0,1,.2241-.00605.22367.22367,0,0,0,.23622-.01212,2.10486,2.10486,0,0,1,.58752-.07874,1.76754,1.76754,0,0,0,.6602-.11508c.109-.06057.22411-.09085.24834-.07268a.40178.40178,0,0,0,.23016-.03634,1.64976,1.64976,0,0,1,.95094.03028,1.98871,1.98871,0,0,0,.54512.09086,1.53641,1.53641,0,0,1,.46032.06662.2121.2121,0,0,0,.18171,0,2.60752,2.60752,0,0,1,.59358-.0848c.44215-.03634.533-.02422.7026.07874a.95086.95086,0,0,0,.58146.11509,4.43835,4.43835,0,0,1,.66626.03028.89673.89673,0,0,0,.35736-.01211c.05451-.03634.22411.01211.47244.12719.3089.14537.41793.1696.52089.1272.103-.04846.18777-.03029.38765.08479a.52219.52219,0,0,0,.33313.103,1.00478,1.00478,0,0,1,.35735-.03028.79793.79793,0,0,0,.4361-.0848c.13325-.0848.16959-.0848.43.03028a1.7255,1.7255,0,0,0,.36947.12114,1.97655,1.97655,0,0,1,.45427.27862,1.01488,1.01488,0,0,0,.46638.24228.30483.30483,0,0,1,.212.03028,1.48878,1.48878,0,0,0,.44216.0848,1.55369,1.55369,0,0,1,.49061.109,4.70907,4.70907,0,0,0,.58146.212,5.23474,5.23474,0,0,1,.57541.212.84657.84657,0,0,0,.62386.103c.0848-.05451.4785.11508.67837.28468a.20478.20478,0,0,0,.19988.05451.24391.24391,0,0,1,.212.0848c.16354.16353.0848.3089-.25439.46032a1.3317,1.3317,0,0,0-.321.18171c-.1272.14537-.36342.26045-.44821.212a.50812.50812,0,0,0-.30285.00606,1.91884,1.91884,0,0,1-.38764.05451.97369.97369,0,0,0-.62992.33919.44.44,0,0,1-.27256.13931.49865.49865,0,0,0-.25439.09085.18447.18447,0,0,1-.22411.02423.24713.24713,0,0,0-.24227.006.46777.46777,0,0,1-.25439.04846.42471.42471,0,0,0-.29679.15142c-.1272.1272-.19988.15748-.33919.1272a.56391.56391,0,0,0-.321.0424,1.18375,1.18375,0,0,1-.35735.09691,6.89781,6.89781,0,0,0-1.69594.36947,2.20019,2.20019,0,0,1-.424.14536,1.34809,1.34809,0,0,0-.34525.1272c-.109.06057-.19987.09085-.19987.07268s-.06057.00606-.13326.05451a.80374.80374,0,0,1-.41187.06663.74213.74213,0,0,0-.38764.06663.4046.4046,0,0,1-.28467.04239.54842.54842,0,0,0-.37553.09692.91436.91436,0,0,1-.33919.12719.59337.59337,0,0,0-.27862.09691.34918.34918,0,0,1-.24833.06057.45174.45174,0,0,0-.26045.04846.27958.27958,0,0,1-.24833.03634c-.06057-.03634-.16959-.00606-.33919.09085-.13931.07874-.2665.13325-.28467.11508s-.11508.01212-.212.06057a.4424.4424,0,0,1-.26651.06663.7183.7183,0,0,0-.34524.06057c-.18777.06662-.29072.07268-.37553.02422-.06663-.03028-.13931-.04845-.16354-.03028s-.08479.00606-.13325-.02423a.14666.14666,0,0,0-.16959.01817.53951.53951,0,0,1-.29073.05451,1.28316,1.28316,0,0,0-.53907.13931,1.09965,1.09965,0,0,1-.44821.13931,1.10439,1.10439,0,0,0-.45427.16354l-.33313.18171-.16959-.1272c-.15142-.109-.18777-.11508-.3513-.04845a1.38076,1.38076,0,0,1-.3937.08479.51309.51309,0,0,0-.28468.06663c-.06057.06057-.1817.09085-.68443.14536-.11508.01212-.27861.0424-.36341.06057a1.15611,1.15611,0,0,1-.26045.0424c-.15142-.006-.527.15748-.527.23016,0,.03029-.05451.0848-.11508.12114-.09691.04846-.15142.03029-.28468-.09085a.69109.69109,0,0,0-.20593-.15142,3.38534,3.38534,0,0,0-.44821.21805,1.82325,1.82325,0,0,1-.50878.19987.62028.62028,0,0,0-.29679.0848.66483.66483,0,0,1-.4361.06663.4494.4494,0,0,0-.41793.09691.4045.4045,0,0,1-.27861.103c-.06057-.02422-.20594.03635-.35736.13931a1.35407,1.35407,0,0,1-.73289.28468.664.664,0,0,0-.27861.13325,1.444,1.444,0,0,1-.28468.19382c-.15748.0848-.17565.12114-.15142.315.02423.24228.16959.315.34524.18776a.18574.18574,0,0,1,.212-.02422A2.41,2.41,0,0,0,4.6567,18.091a.76215.76215,0,0,1,.50272-.14536.73762.73762,0,0,0,.45427-.1272c.12719-.09691.18171-.109.27862-.06057a.89569.89569,0,0,0,.34524.06663.853.853,0,0,1,.321.05451.33258.33258,0,0,0,.27256-.01211,1.4693,1.4693,0,0,1,.38158-.07874.98068.98068,0,0,0,.38159-.1272.35465.35465,0,0,1,.25439-.06662.36739.36739,0,0,0,.2665-.09086.2688.2688,0,0,1,.315-.06057.36473.36473,0,0,0,.25439,0,.30969.30969,0,0,1,.17565-.04845,3.47285,3.47285,0,0,0,.5633-.03634c.37552-.03634.50272-.07269.58146-.17565a.48353.48353,0,0,1,.39975-.13931,1.28184,1.28184,0,0,0,.65415-.12114.23693.23693,0,0,1,.218-.01817c.06057.03634.19988,0,.41187-.103a2.37547,2.37547,0,0,1,1.0963-.218.98947.98947,0,0,1,.36341.03634.564.564,0,0,0,.36342-.03634,3.28306,3.28306,0,0,1,1.22955-.315.84251.84251,0,0,0,.533-.12719.45009.45009,0,0,1,.3089-.09691.47753.47753,0,0,0,.26651-.04846.65183.65183,0,0,1,.28467-.09085.80926.80926,0,0,0,.36342-.12114.355.355,0,0,1,.27861-.06057.47726.47726,0,0,0,.29074-.04845,1.18255,1.18255,0,0,1,.45426-.09086,1.1335,1.1335,0,0,0,.41794-.07874.5176.5176,0,0,1,.29072-.03028,1.08437,1.08437,0,0,0,.55118-.15748c.218-.103.45427-.218.533-.24833a1.38421,1.38421,0,0,1,.45426-.06057,1.41585,1.41585,0,0,0,.533-.103,2.86371,2.86371,0,0,1,.54512-.18171c.17565-.03634.44821-.09691.59963-.12719a3.30625,3.30625,0,0,1,.636-.06663,3.894,3.894,0,0,0,1.272-.25439,3.83231,3.83231,0,0,1,.86614-.15748,3.51381,3.51381,0,0,0,1.599-.17565,2.68521,2.68521,0,0,1,.60569-.14537A1.38329,1.38329,0,0,0,26.825,13.73a.33869.33869,0,0,1,.21805.03028c.13325.06663.20593.04846.52089-.12114.28468-.14536.3937-.17565.48455-.12719a.359.359,0,0,1,.15143.41793c-.02423.07874.03028.16959.18776.30284.23622.212.28468.20594.70866-.00606a.58837.58837,0,0,1,.321-.08479c.04845.01817.16959-.04846.27256-.15142a2.99316,2.99316,0,0,0,.5754-1.175.35568.35568,0,0,1,.07874-.23016.74149.74149,0,0,0,.09086-.41187.49693.49693,0,0,0-.218-.424c-.11508-.09691-.23622-.15748-.29073-.13325-.11509.0424-.15748.03634-.47244-.03634a.61449.61449,0,0,0-.46639.01817.65433.65433,0,0,1-.73894-.16354,1.30926,1.30926,0,0,0-.44215-.24833,2.97008,2.97008,0,0,1-.47244-.19988.46176.46176,0,0,0-.212-.07268c-.29074.03634-.3937-.16354-.26045-.51484.07874-.20594.18171-.3089.50878-.527a1.6254,1.6254,0,0,0,.75106-.79346c.05451-.12719.12719-.23016.15748-.23016.04845,0,.14536-.19382.41187-.8298a.40475.40475,0,0,1,.19382-.2241.42019.42019,0,0,0,.1817-.18777c.03635-.08479.09692-.15142.13326-.15142a.04947.04947,0,0,0,.05426-.04416l.00025-.0043c-.03029-.19382.24833-.52089.533-.6178a.44736.44736,0,0,0,.26044-.24228.89588.89588,0,0,1,.27862-.315c.109-.07874.19988-.16959.19988-.19987-.03028-.27862.20593-.58752.41187-.53907.0848.02423.13325-.01817.18776-.18171.06057-.15748.17565-.27256.49667-.47244a1.58274,1.58274,0,0,0,.54512-.49061c.07269-.12113.15143-.2241.18171-.2241.0848,0,.12114-.18777.06057-.3089-.05451-.09691-.03634-.14537.09691-.26651a.503.503,0,0,0,.15747-.28467,1.10519,1.10519,0,0,0-.37553-.77529c-.37553-.29679-.54512-.25439-1.01756.25439-.15748.1696-.37553.39976-.49061.50878-.12719.12114-.18776.23622-.16959.29074a.54789.54789,0,0,1-.06057.321,1.63774,1.63774,0,0,0-.0848.24228c.03029.06057-.01211.15142-.13931.30284a.64663.64663,0,0,0-.13931.26045,2.88272,2.88272,0,0,1-.59963.89037.94972.94972,0,0,0-.29679.47244.88493.88493,0,0,0-.01817.13325,2.79968,2.79968,0,0,1-.44215.49666c-.23622.23622-.41187.45427-.38765.49061s-.03634.13931-.13325.23017a3.73391,3.73391,0,0,0-.34524.41792.90706.90706,0,0,1-.218.26045c-.03029,0-.12114.12114-.20594.2665a1.396,1.396,0,0,1-.35735.40582,1.1022,1.1022,0,0,0-.218.19382.77587.77587,0,0,1-.13326.16959,1.95335,1.95335,0,0,0-.212.26651,1.30783,1.30783,0,0,1-.33918.3089.95386.95386,0,0,0-.315.3513c-.11508.27862-.30285.37553-.84191.43a.77.77,0,0,1-.45427-.09085,1.959,1.959,0,0,0-.38764-.14537,1.17223,1.17223,0,0,1-.29074-.09691.65594.65594,0,0,0-.29073-.05451A1.34859,1.34859,0,0,1,22.76079,9.69c-.15748-.13325-.3089-.23016-.34524-.20594-.07269.0424-.424-.28467-.424-.39975a7.67634,7.67634,0,0,1,1.69594-1.46577,3.769,3.769,0,0,0,.60569-.4785,2.70057,2.70057,0,0,1,.57541-.43.75416.75416,0,0,0,.38158-.36947,2.05685,2.05685,0,0,1,.93277-.76317c.06056,0,.109-.02423.109-.06057a7.043,7.043,0,0,1,.98728-.99334c.2665-.24833.53906-.636.49666-.7026-.03634-.05451.18171-.315.30891-.36947a3.344,3.344,0,0,0,.38158-.4361,2.5235,2.5235,0,0,1,.36947-.40581c.07268,0,.18171-.29679.14537-.3937-.0424-.109.18776-.49061.37553-.6178.12719-.0848.13325-.103.05451-.218-.07268-.103-.07268-.14537,0-.29073a.4897.4897,0,0,1,.212-.20594c.15748-.04845.15748-.23622,0-.3937-.09085-.09085-.109-.15142-.07268-.23016C29.64144.09585,29.56876.005,29.35071.005,29.18717.005,29.1266.04134,29.01152.22911Z"/>
   <path class="a"
         d="M18.58152,10.58037a.26969.26969,0,0,1-.27256.03028c-.07268-.0424-.14536-.02423-.24833.06057a.54.54,0,0,1-.26045.11508.558.558,0,0,0-.2665.11508.34312.34312,0,0,1-.26045.0848.3745.3745,0,0,0-.26045.06662.56434.56434,0,0,1-.29679.09086,3.45793,3.45793,0,0,0-.58146.103c-.315.07268-.44821.13325-.47244.218a.36808.36808,0,0,1-.424.20594.94426.94426,0,0,0-.43.0848.86741.86741,0,0,1-.3937.09085.49032.49032,0,0,0-.29679.06057c-.15142.07874-.20593.07874-.321.01817a.93126.93126,0,0,0-.28467-.09691c-.17565-.01817-.97516-.03029-1.24167-.01212a1.00659,1.00659,0,0,1-.33313-.03028.914.914,0,0,0-.27256-.03634c-.06662.00606-.2241.00606-.34524.00606a.873.873,0,0,0-.36342.07874,1.45306,1.45306,0,0,1-.81768.01817.34121.34121,0,0,0-.18171.03028.53885.53885,0,0,1-.37553-.01211,1.33716,1.33716,0,0,0-.81768,0,.73992.73992,0,0,1-.36341.00605.30291.30291,0,0,0-.24228.01212c-.0848.04845-.15142.03028-.28467-.06663a.5765.5765,0,0,0-.26651-.12719.468.468,0,0,1-.20593-.06057c-.12114-.06057-.29073.0424-.84191.533-.33313.29073-.43.41792-.46639.62386-.03028.15142-.26044.47849-.34524.47849-.03634,0-.04845.06663-.02423.16354s.04846.212.06057.26045c.0424.25439.11508.33918.315.39975.19382.06057.24833.05452.48455-.07874l.26045-.14536.26651.11508c.1817.07874.29678.103.36341.06057a.23939.23939,0,0,1,.23622.01817,2.20355,2.20355,0,0,0,1.169.09085c.1696-.02423.65415-.05451,1.07813-.06662a6.627,6.627,0,0,0,.90854-.06663,3.93112,3.93112,0,0,1,.6178-.06057,5.3367,5.3367,0,0,0,1.33858-.13325,1.77123,1.77123,0,0,1,.4785-.06663.86453.86453,0,0,0,.45427-.09691,1.4593,1.4593,0,0,1,.68443-.27256,3.15911,3.15911,0,0,0,1.06-.45427c.15748-.109.24227-.13325.321-.08479.0848.04239.13931.03028.23622-.06663.13325-.13325.19988-.14537.36342-.06057.08479.0424.16959.01817.36947-.12114a1.18626,1.18626,0,0,1,.3513-.1817,7.3983,7.3983,0,0,0,1.21744-.50273,2.43781,2.43781,0,0,0,.41187-.23016.3531.3531,0,0,1,.25439-.07268c.08479.02422.15142-.02423.24227-.17565a.75182.75182,0,0,1,.27257-.27862c.08479-.03634.15142-.09691.15142-.1272a1.0906,1.0906,0,0,0-.321-.49666c-.0424,0-.19382-.01212-.34524-.02423A.76963.76963,0,0,0,18.58152,10.58037Z"/>

</g>
</svg>
