<?xml version="1.0" encoding="UTF-8"?>
<svg xmlns="http://www.w3.org/2000/svg"
     version="1.1"
     width="31.92164964mm"
     height="29.84036165mm"
     viewBox="0.00000000 0.00000000 90.48656016 84.58688813">

<g transform="scale(7.30148393)">   <defs>
      <style type="text/css"><![CDATA[
      .a {
        stroke: #000;
        stroke-linecap: round;
        stroke-linejoin: round;
        stroke-width: 0.01px;
      }
    ]]></style>
   </defs>
   <path class="a"
         d="M3.12125.03239c-.06056.03028-.12719.0424-.14536.02423C2.90926-.01,2.33991.3534,2.25512.51694c-.04846.09085-.109.16959-.13326.16959a1.14615,1.14615,0,0,0-.27256.212,1.01352,1.01352,0,0,1-.28467.212c-.18777,0-.83585.86008-.848,1.12658A10.33163,10.33163,0,0,0,.8378,4.139,3.02977,3.02977,0,0,0,.965,4.72048a5.7548,5.7548,0,0,1,.35736,2.15626c0,.20593.00606.26044.03634.957.01817.38158.03635.76317.03635.84191,0,.212-.19383.44215-.533.61175a1.8717,1.8717,0,0,0-.72078.533c-.16353.19987-.16959.212-.07268.37552a.622.622,0,0,1,.103.26651c0,.25439.48455.745.7874.79345a1.98345,1.98345,0,0,1,.3937.11508,1.67119,1.67119,0,0,0,.93276-.01211.678.678,0,0,1,.36342-.01211.97613.97613,0,0,0,.39975-.00606,7.04357,7.04357,0,0,1,.71472-.0848,4.59345,4.59345,0,0,0,.65414-.09085.496.496,0,0,1,.33919-.00606.81267.81267,0,0,0,.642-.08479.63347.63347,0,0,1,.35736-.05452c.0848.02423.19382-.02422.35736-.15748a2.4371,2.4371,0,0,1,.44215-.27256.70744.70744,0,0,0,.35736-.41187c.16959-.36341.25439-.41792.527-.36341.13325.02423.18171.01211.18777-.04846a3.05342,3.05342,0,0,1,.03028-.315.69354.69354,0,0,0-.03028-.33313A.23011.23011,0,0,1,7.61548,8.93a1.55178,1.55178,0,0,0-.12719-.56935c-.09691-.27256-.19382-.56329-.212-.64809A.99816.99816,0,0,0,7.16121,7.44a2.39529,2.39529,0,0,1-.1817-.90854,2.62884,2.62884,0,0,0-.0848-.48455A6.20225,6.20225,0,0,1,6.77357,5.417a1.68244,1.68244,0,0,0-.13325-.533c-.09691-.11508-.424-.0424-.77528.18777a.93253.93253,0,0,0-.424.50272,1.46637,1.46637,0,0,1-.212.38159,2.05612,2.05612,0,0,0-.39976.94487A2.32024,2.32024,0,0,0,5.0655,7.9367a1.19212,1.19212,0,0,1,.13325.3937.27766.27766,0,0,0,.11509.212,1.18152,1.18152,0,0,1,.25439.90853c-.12114.26651-.41187.38765-.86614.36342a1.07519,1.07519,0,0,1-.51484-.11508,1.35544,1.35544,0,0,0-.71471-.19382,1.21669,1.21669,0,0,1-.72683-.39976,1.43084,1.43084,0,0,1,.11508-.55724,2.05934,2.05934,0,0,0,.07874-1.24166.66922.66922,0,0,1,.07874-.35736,1.57938,1.57938,0,0,0,.12719-.81163c0-.04845.01212-.3089.02423-.5754a2.23073,2.23073,0,0,0-.0424-.59964,2.646,2.646,0,0,1-.07874-.69654A5.32268,5.32268,0,0,0,2.93349,3.291c-.18171-.72683-.18776-.76317-.03028-.92065.15142-.14537.20593-.15143.963-.07269a6.21462,6.21462,0,0,0,1.02968.01212,1.53646,1.53646,0,0,1,.533.06057.39964.39964,0,0,0,.3089.01817.35518.35518,0,0,1,.30285.01211.46117.46117,0,0,0,.36947,0,.27634.27634,0,0,1,.33313.04846c.109.09085.17565.103.25439.06056a4.25224,4.25224,0,0,1,.89642-.03634,4.49543,4.49543,0,0,0,.89642-.0424.24635.24635,0,0,1,.22411.01212c.09085.04845.15748.0424.27256-.03634.13931-.09086.16354-.09086.29679,0,.20593.12719.24227.29073.12719.55118a1.33346,1.33346,0,0,0-.09085.37552.88279.88279,0,0,1-.09691.33313,1.00765,1.00765,0,0,0-.06057.61781,4.7406,4.7406,0,0,0,.25439,1.58085.77074.77074,0,0,1,.06057.36342.80689.80689,0,0,0,.06662.36947,2.20241,2.20241,0,0,1,.109.72683c.0424.86008.06663,1.0115.17565,1.22349a.84547.84547,0,0,1,.09691.30891,1.6933,1.6933,0,0,0,.15142.44215,1.581,1.581,0,0,1,.15143.44821.74337.74337,0,0,0,.16959.34525,1.61545,1.61545,0,0,1,.46638,1.04784c.00606.38159.04846.424.424.4361.19382.01211.27256-.01211.27256-.07268a.82341.82341,0,0,1,.1393-.28468,3.04663,3.04663,0,0,0,.37553-1.066.82687.82687,0,0,0-.14536-.62387,1.415,1.415,0,0,1-.18777-.83585,3.53192,3.53192,0,0,1,.07874-1.02362.3015.3015,0,0,0-.00605-.20593.45534.45534,0,0,1,.01211-.30891.39009.39009,0,0,0-.05451-.38764.90773.90773,0,0,1-.09691-.47849.80619.80619,0,0,0-.07874-.41187.6735.6735,0,0,1-.103-.29074,7.62042,7.62042,0,0,0-.103-1.066.82123.82123,0,0,1,.00606-.41793.46105.46105,0,0,0-.01817-.33313.50143.50143,0,0,1,0-.41792A.3417.3417,0,0,0,11.64938,2.97c-.09691-.18776-.09691-.19988.06057-.51484a.979.979,0,0,1,.24228-.3513,1.14465,1.14465,0,0,0,.24228-.33313c.14536-.2665.15142-.32707.09085-.47849-.12114-.29074-.27862-.39976-.48455-.321A.27254.27254,0,0,1,11.504.953c-.103-.07268-.15748-.06663-.41187.0424a3.31783,3.31783,0,0,1-1.7989.03634c-.14537-.09691-.16354-.09691-.33313.00606-.14537.09085-.28468.109-.77529.09085A4.61546,4.61546,0,0,1,6.52521.95907,1.29226,1.29226,0,0,0,6.05886.838.82869.82869,0,0,1,5.72573.75922.85627.85627,0,0,0,5.41682.66836,1.13,1.13,0,0,1,5.02312.523a1.48047,1.48047,0,0,0-.218-.12114c-.03029-.00606-.1272-.03028-.212-.05451A4.497,4.497,0,0,0,3.76329.25044.66111.66111,0,0,1,3.36959.099C3.26056-.004,3.20605-.01607,3.12125.03239Z"/>

</g>
</svg>
