<?xml version="1.0" encoding="UTF-8"?>
<svg xmlns="http://www.w3.org/2000/svg"
     version="1.1"
     width="56.84666318mm"
     height="30.11358129mm"
     viewBox="0.00000000 0.00000000 161.14013865 85.36132419">

<g transform="scale(4.36982859)">   <defs>
      <style type="text/css"><![CDATA[
      .a {
        stroke: #000;
        stroke-linecap: round;
        stroke-linejoin: round;
        stroke-width: 0.01px;
      }
    ]]></style>
   </defs>
   <path class="a"
         d="M34.84558.04436a.81707.81707,0,0,1-.32708.05451.47459.47459,0,0,0-.40581.18776,3.96984,3.96984,0,0,1-1.10236.79952,1.8936,1.8936,0,0,1-.49666.07874,4.046,4.046,0,0,0-.90854.218,5.56329,5.56329,0,0,1-.73894.218,5.07026,5.07026,0,0,0-1.33858.64809,3.11911,3.11911,0,0,1-.60569.33313,1.90143,1.90143,0,0,0-.40581.19988,2.709,2.709,0,0,1-.3937.23016,4.71012,4.71012,0,0,0-.75106.58147,4.69636,4.69636,0,0,1-.49061.43,7.62455,7.62455,0,0,0-.93882.84191,1.86236,1.86236,0,0,1-.424.33313.85682.85682,0,0,0-.29679.27862.98367.98367,0,0,1-.29073.27861c-.06057.01818-.109.05452-.109.0848a2.53442,2.53442,0,0,1-.3634.4361c-.218.2241-.3513.41187-.33313.46032a.77341.77341,0,0,1-.13932.36948.73338.73338,0,0,0-.13931.61174.98506.98506,0,0,0,.24228.59358c.11508.13931.24227.25439.29073.25439a.40573.40573,0,0,1,.19987.12114,1.34341,1.34341,0,0,0,.89037.35736,2.86146,2.86146,0,0,1,.59358.06057,10.95583,10.95583,0,0,0,1.12053.19987,3.40828,3.40828,0,0,1,.65414.15143,1.45748,1.45748,0,0,0,.48456.07268,1.16479,1.16479,0,0,1,.47849.08479.87125.87125,0,0,0,.54512.06662,2.53428,2.53428,0,0,1,.61781.02423.497.497,0,0,0,.3937-.00605,4.48857,4.48857,0,0,1,1.20532-.18777,1.09893,1.09893,0,0,0,.424-.1272.54712.54712,0,0,1,.24227-.09085.55726.55726,0,0,0,.27256-.16959,2.18518,2.18518,0,0,1,.40582-.315,6.116,6.116,0,0,0,.90853-.72683,1.39886,1.39886,0,0,1,.67233-.36342.56321.56321,0,0,0,.26649-.13931c.09086-.07268.321-.24227.50879-.37552a1.83648,1.83648,0,0,0,.33919-.27862.92942.92942,0,0,1,.16354-.24228.73743.73743,0,0,0,.17565-.3513A1.567,1.567,0,0,1,36.166,5.665a2.519,2.519,0,0,0,.218-.53906,2.39909,2.39909,0,0,0,.07874-1.43549,1.00167,1.00167,0,0,1-.07874-.4361,1.30059,1.30059,0,0,0-.07874-.46638c-.04845-.12114-.07874-.218-.06057-.218.01212,0-.01817-.0848-.06662-.18776a2.31321,2.31321,0,0,1-.12114-.81769c-.01817-.533-.0424-.65414-.15748-.82374a.99359.99359,0,0,0-.19988-.2241,1.9795,1.9795,0,0,1-.30284-.24834C35.1.002,34.997-.04044,34.84558.04436ZM30.15147,4.72029a1.63623,1.63623,0,0,1,.45427,1.15082,1.54631,1.54631,0,0,0,.05451.315.22884.22884,0,0,1-.07874.2544l-.12114.12113-.61174-.3089c-.5633-.27862-.62387-.33313-.75712-.59963-.16959-.32708-.15142-.44216.09691-.57541.09691-.04845.17565-.11508.17565-.15142a1.40648,1.40648,0,0,1,.5633-.29679A1.03341,1.03341,0,0,1,30.15147,4.72029Z"/>
   <path class="a"
         d="M21.19935,3.97529a4.51786,4.51786,0,0,1-1.37492.24834.83173.83173,0,0,0-.3089.08479,2.87927,2.87927,0,0,1-1.02362.06663,2.5182,2.5182,0,0,0-1.24167.14536,4.08949,4.08949,0,0,1-1.86552.20594,1.238,1.238,0,0,0-.54513.07874c-.55118.16354-.88431.19382-1.02967.09085a1.85406,1.85406,0,0,0-1.066.04846,11.15832,11.15832,0,0,0-1.22955,1.06,1.06593,1.06593,0,0,1-.34524.26044.855.855,0,0,0-.27862.15143.75974.75974,0,0,1-.33919.15142.57889.57889,0,0,0-.3089.15748,2.0636,2.0636,0,0,1-.3937.27256,2.87806,2.87806,0,0,0-.424.28468,3.09292,3.09292,0,0,1-.43.3089.9729.9729,0,0,0-.315.315.74355.74355,0,0,1-.212.23622,1.59875,1.59875,0,0,0-.2665.19987c-.07874.07269-.26045.212-.39976.315-.13931.09691-.36947.27257-.50878.37553-.13325.109-.33918.26045-.44215.33313a.726.726,0,0,0-.29679.69049.92181.92181,0,0,0,.65415.4361c.09085.00605.18776.01817.212.01817a1.2188,1.2188,0,0,0,.33919-.11508,1.54445,1.54445,0,0,1,.5754-.1272A2.39481,2.39481,0,0,0,9.46712,10.099a3.25958,3.25958,0,0,1,1.12053-.23622,2.02911,2.02911,0,0,0,.54512-.15142,1.64516,1.64516,0,0,1,.59358-.12114.72729.72729,0,0,0,.3513-.05451A.52039.52039,0,0,1,12.326,9.4448a2.02242,2.02242,0,0,0,.79951-.212c.18776-.09691.27862-.109.36341-.06057a.7289.7289,0,0,0,.69049-.07268,1.0156,1.0156,0,0,1,.41187-.12114.88375.88375,0,0,0,.36947-.07874c.12114-.04845.23016-.07268.24833-.04845a.8069.8069,0,0,0,.33919-.09086,2.06525,2.06525,0,0,1,.64809-.14536.92715.92715,0,0,0,.46033-.09691,6.80811,6.80811,0,0,1,1.7141-.3937,4.21161,4.21161,0,0,0,1.25378-.44822.28878.28878,0,0,1,.28468-.02422c.08479.04845.1817.03634.3937-.06057.15142-.06663.27861-.14537.27861-.17565,0-.12114.28468-.24834.424-.19382.19382.07268.40581,0,1.33252-.4361.24833-.11508.58146-.27256.745-.34524a.79847.79847,0,0,0,.34524-.24228.60394.60394,0,0,1,.321-.18171c.33919-.09691.44821-.19988.49666-.46032.03635-.19988.01818-.24228-.1817-.424a5.21482,5.21482,0,0,0-.93882-.6178,1.42453,1.42453,0,0,0-.72683-.24228.89311.89311,0,0,1-.3937-.09085.763.763,0,0,0-.27862-.09691.47517.47517,0,0,1-.212-.09086C21.375,3.88444,21.29627,3.87838,21.19935,3.97529Z"/>
   <path class="a"
         d="M8.26786,4.16911a1.65247,1.65247,0,0,0-.44216.32708.74865.74865,0,0,1-.25439.218,6.744,6.744,0,0,0-.73894.62991c-.315.30285-.70866.67232-.87825.82374a6.32367,6.32367,0,0,0-.99334,1.02968,2.55855,2.55855,0,0,1-.44215.44821.49675.49675,0,0,0-.20594.218,2.82688,2.82688,0,0,1-.41187.52089,8.013,8.013,0,0,0-.52089.636,3.293,3.293,0,0,1-.33919.41793,1.62794,1.62794,0,0,0-.29679.39975,1.50218,1.50218,0,0,1-.3089.38159,1.8494,1.8494,0,0,0-.33313.38764,3.044,3.044,0,0,1-.36947.45427.81733.81733,0,0,0-.23016.32707,1.2547,1.2547,0,0,1-.18171.39976,1.45965,1.45965,0,0,0-.18171.36947.95166.95166,0,0,1-.15142.30284,2.784,2.784,0,0,0-.27862.59964,2.21256,2.21256,0,0,1-.27862.58752.98881.98881,0,0,0-.23016.642c-.01817.09691-.06662.38159-.12114.62992A1.94918,1.94918,0,0,0,.194,16.289c.09692.19988.19988.424.23622.49667a.364.364,0,0,0,.18171.17565,5.07547,5.07547,0,0,1,.72683.642,5.71234,5.71234,0,0,0,.86008.72683,2.88374,2.88374,0,0,1,.32708.18775.39325.39325,0,0,0,.16959.07874.65582.65582,0,0,1,.20593.11508.21082.21082,0,0,0,.20594.06663,1.0136,1.0136,0,0,1,.41187.09085,2.93731,2.93731,0,0,0,.87219.16354c.61781.03029.8722-.03028.97517-.24833a1.54359,1.54359,0,0,1,.533-.37553c.58147-.29678.67232-.38159.7874-.745.13931-.46638.11508-.7026-.103-.93276a4.66544,4.66544,0,0,1-.90247-1.42944,2.679,2.679,0,0,0-.44216-.93276.73765.73765,0,0,1-.13325-.28467.43282.43282,0,0,0-.09085-.218,1.2993,1.2993,0,0,1-.00606-1.01756c.06662-.15748.15142-.28468.18776-.28468s.02423-.06057-.03028-.13931c-.04846-.07874-.07874-.15748-.05451-.17565a2.28685,2.28685,0,0,0,.04845-.52089,1.23159,1.23159,0,0,1,.13325-.66021.59611.59611,0,0,0,.103-.20593,1.47347,1.47347,0,0,1,.103-.35736.75565.75565,0,0,0,.06662-.41792,1.00248,1.00248,0,0,1,.01817-.59358.33222.33222,0,0,0-.01817-.24228c-.06662-.12719-.01817-.23016.24834-.57541.103-.12719.15748-.25439.13325-.315A1.18073,1.18073,0,0,1,6.3357,7.664a7.42533,7.42533,0,0,0,.58146-.50878,3.96569,3.96569,0,0,1,.92066-.68443A1.92271,1.92271,0,0,0,8.286,6.19823a2.19,2.19,0,0,1,.27861-.37553A3.155,3.155,0,0,1,9.85477,4.902c.14536,0,.15748-.01817.15142-.26045a.60838.60838,0,0,0-.09691-.3513,3.59086,3.59086,0,0,0-1.16293-.321A2.1159,2.1159,0,0,0,8.26786,4.16911Z"/>
   <path class="a"
         d="M36.78985,19.40224c-.02423.0424-.03029.09086-.01212.109.05451.05451.11508-.02423.0848-.109C36.8383,19.33562,36.82619,19.33562,36.78985,19.40224Z"/>

</g>
</svg>
