<?xml version="1.0" encoding="UTF-8"?>
<svg xmlns="http://www.w3.org/2000/svg"
     version="1.1"
     width="13.99243258mm"
     height="50.26457979mm"
     viewBox="0.00000000 0.00000000 39.66369279 142.48228211">

<g transform="scale(6.49870772)">   <defs>
      <style type="text/css"><![CDATA[
      .a {
        stroke: #000;
        stroke-linecap: round;
        stroke-linejoin: round;
        stroke-width: 0.01px;
      }
    ]]></style>
   </defs>
   <path class="a"
         d="M2.70638.18332A6.46583,6.46583,0,0,1,1.9735.98889a5.95062,5.95062,0,0,0-.82374.957,2.46663,2.46663,0,0,1-.27256.41187,4.48386,4.48386,0,0,0-.29679.46638,2.13186,2.13186,0,0,1-.3937.5209C.005,3.48433.005,3.49039.005,4.05368c0,.44216.01817.57541.09085.59964.13931.05451.1696.24833.18171,1.08419A3.273,3.273,0,0,0,.41687,6.9186a1.28692,1.28692,0,0,1,.103.61781A1.75259,1.75259,0,0,0,.59858,8.61454a1.17985,1.17985,0,0,1,.12719.49666,1.19035,1.19035,0,0,0,.0848.45427,1.53208,1.53208,0,0,1,.19382.90854,7.51054,7.51054,0,0,0-.05451.86615,3.07731,3.07731,0,0,1-.06057.71471.929.929,0,0,0,.20593.79951.41859.41859,0,0,1,.15143.35736c-.01817.0848-.05452.30285-.0848.4785a1.44608,1.44608,0,0,0-.00606.48455,2.78579,2.78579,0,0,1,.212.92671A14.86066,14.86066,0,0,0,1.174,16.7308a2.40291,2.40291,0,0,1-.12113.636,1.60194,1.60194,0,0,0-.13931,1.04785c.03634.44821.06057.50878.23622.67231.16353.15748.1817.19383.12719.33919a5.103,5.103,0,0,0,.03029,1.45366,1.18835,1.18835,0,0,0,.20593.27256c.0848.08481.212.218.27862.30286a1.96889,1.96889,0,0,0,1.21138.46031,1.20938,1.20938,0,0,0,.6602-.13324,1.45138,1.45138,0,0,1,.38765-.14537.99255.99255,0,0,0,.34524-.15143c.13325-.07873.3089-.1817.3937-.2241.23016-.109.48455-.36342.48455-.47244a1.15659,1.15659,0,0,1,.17565-.36947A4.13794,4.13794,0,0,0,5.856,18.6993a2.42434,2.42434,0,0,1,.08479-.5754,4.96518,4.96518,0,0,0,.13931-1.66565c.01211-1.20533-.0424-1.50212-.321-1.81708-.3089-.3513-.41187-.51483-.38158-.62992a1.007,1.007,0,0,0-.14537-.43609c-.27861-.5209-.5754-.78134-.88431-.78134a1.35465,1.35465,0,0,0-.76317.58752.64593.64593,0,0,1-.24833.27861c-.15748.09691-.18171.09691-.2665.00606a.245.245,0,0,1-.06057-.24228,1.506,1.506,0,0,0,.03028-.27861A12.92675,12.92675,0,0,1,3.0274,11.8247c.00606-.315.00606-.751-.00606-.9691a2.80485,2.80485,0,0,1,.05451-.69654,1.16667,1.16667,0,0,0,.0424-.424.53672.53672,0,0,1,.02423-.27257.36006.36006,0,0,0-.03029-.321.79831.79831,0,0,1,.109-.75712c.109-.19382.109-.19987-.03634-.59963-.1272-.36341-.13325-.41793-.06057-.56935a1.33634,1.33634,0,0,1,.33313-.33919A.86061.86061,0,0,0,3.73,6.6097a5.87778,5.87778,0,0,1,.62386-.69654,3.606,3.606,0,0,0,.90248-1.24773,3.41434,3.41434,0,0,1,.36947-.65414c.18777,0,.321-.82374.23017-1.42338-.01818-.13325-.04846-.32707-.06057-.424a.91308.91308,0,0,0-.17565-.51484.60487.60487,0,0,1-.103-.21805A6.3955,6.3955,0,0,0,4.71122.23783c-.24228-.2665-.55118-.3089-.72683-.103A.34685.34685,0,0,1,3.76028.256a.34685.34685,0,0,1-.2241-.12114C3.45744.044,3.35447.01372,3.11219.01372,2.82146.01372,2.78512.0319,2.70638.18332ZM3.8148,16.85194a1.88142,1.88142,0,0,1,.18776.43609,2.61455,2.61455,0,0,0,.15142.47851c.0848.212.16354.44821.18171.52088a.62971.62971,0,0,0,.06663.20594,2.308,2.308,0,0,1,.09085.28467,1.04856,1.04856,0,0,1-.25439.86009.80472.80472,0,0,1-.70866-.06057.84025.84025,0,0,0-.29073-.12113,1.63467,1.63467,0,0,1-.848-.55118.472.472,0,0,1-.11508-.43A3.01095,3.01095,0,0,1,2.882,17.43341a.14487.14487,0,0,0,.09086-.12114,1.87575,1.87575,0,0,1,.1817-.44821C3.4211,16.31893,3.53012,16.31893,3.8148,16.85194Z"/>

</g>
</svg>
