<?xml version="1.0" encoding="UTF-8"?>
<svg xmlns="http://www.w3.org/2000/svg"
     version="1.1"
     width="18.24156459mm"
     height="45.85904704mm"
     viewBox="0.00000000 0.00000000 51.70837306 129.99419008">

<g transform="scale(4.26612454)">   <defs>
      <style type="text/css"><![CDATA[
      .a {
        stroke: #000;
        stroke-linecap: round;
        stroke-linejoin: round;
        stroke-width: 0.01px;
      }
    ]]></style>
   </defs>
   <path class="a"
         d="M3.43927.04762C3.4211.07791,3.306.28384,3.18488.52006c-.19988.36341-.218.44215-.16354.58752s.0424.19382-.06057.29073c-.109.103-.11508.13931-.05451.29073a.55438.55438,0,0,1,0,.44216,8.195,8.195,0,0,0-.17565,1.72016c.00606.06663.01211.3937.01817.72683a5.31574,5.31574,0,0,0,.0424.66626.57282.57282,0,0,1-.01817.212,4.43333,4.43333,0,0,0-.06057.62992c-.01212.29679-.04846.49061-.09085.50878-.103.03029-.09086.18776.01817.29073a.15348.15348,0,0,1,.03634.19382.27291.27291,0,0,0,.01211.23622.31483.31483,0,0,1-.00606.28468,2.30613,2.30613,0,0,0-.06662.62386A5.21586,5.21586,0,0,1,2.5489,9.52063a.412.412,0,0,0,0,.29679,1.07374,1.07374,0,0,1,.16354.69654.53869.53869,0,0,0,.01211.3513,11.35346,11.35346,0,0,1,.13325,1.72016c-.00605.1696.15748.5633.23622.5633.03029,0,.103.08479.15748.18776a.32.32,0,0,1,.03029.33919,1.01739,1.01739,0,0,0,.09691.76317,4.01384,4.01384,0,0,1,.103,1.12053c.03028,1.12658.04845,1.30829.16353,1.44154a.85153.85153,0,0,1,.09086.38159,2.49555,2.49555,0,0,0,.24833.98122c.19988.43.24833.636.18776.745a.18933.18933,0,0,0-.01211.16959,1.805,1.805,0,0,1,.09085.7874,4.64794,4.64794,0,0,0,.05452.69654,6.51352,6.51352,0,0,1,.23622,1.9261c-.0848.30891-.15143.33313-1.11448.41794a3.64217,3.64217,0,0,0-1.68382.38158.40177.40177,0,0,1-.25439.05451.173.173,0,0,0-.16353.04846,2.16638,2.16638,0,0,1-.36948.21805c-.35735.17565-.38158.2241-.424.72683A2.5417,2.5417,0,0,1,.3987,25.202a1.043,1.043,0,0,0-.06057.73894c.0424.27256.03634.29679-.14537.46638s-.18776.1938-.18776.68441c0,.43.01817.5209.12114.61175a.20423.20423,0,0,1,.08479.19382.75945.75945,0,0,0,.09086.3937,1.70048,1.70048,0,0,1,.12719.44216c0,.17565.23622.51483.64809.92065.25439.24833.35736.315.51484.315a3.80915,3.80915,0,0,1,.68443.13325,5.414,5.414,0,0,0,.65415.15142.44392.44392,0,0,1,.19988.05451c.01817.01817.109.00606.19987-.03028a7.03422,7.03422,0,0,1,1.76256-.0424c.11509.02423.30285.06057.41793.07874a.5639.5639,0,0,1,.26651.09085c.103.103.30284.07874.68443-.09085a4.18892,4.18892,0,0,1,.50878-.18776.53547.53547,0,0,0,.26044-.14537c.06057-.06663.13326-.103.16354-.0848s.13931-.01817.24833-.08479c.15143-.09086.22411-.103.32708-.05452a.26518.26518,0,0,0,.26044-.006.29752.29752,0,0,1,.22411-.02423c.07268.02423.16959-.03634.3089-.19382.20594-.218.218-.22411.55724-.18777a3.63806,3.63806,0,0,1,.49061.07269c.12114.03634.13325.02423.103-.07874-.07873-.24228.26045-.39976.35131-.16354.03634.103-.01818.26651-.09086.26651-.03028,0-.05451.03634-.05451.08479,0,.07268.07268.0848.321.06663.62386-.04846.86008-.09086.8843-.15748a.84351.84351,0,0,1,.1696-.212,1.26032,1.26032,0,0,0,.23016-.3513.80241.80241,0,0,0,.01211-.61781,1.25274,1.25274,0,0,1,.18171-.44215,1.02743,1.02743,0,0,0,.17565-.81163,1.218,1.218,0,0,0-.15748-.57541c-.12114-.16353-.13325-.28467-.11508-.95093a1.80329,1.80329,0,0,0-.03028-.36342c-.02423-.103-.04846-.2241-.06057-.27256-.05451-.2665-.11508-.424-.15748-.424-.03029,0-.06663-.05451-.09086-.11508a.94632.94632,0,0,0-.38158-.28468,1.14836,1.14836,0,0,0-1.03573-.04239,1.06711,1.06711,0,0,1-.9146-.109,1.53639,1.53639,0,0,0-.41187-.14536,3.71861,3.71861,0,0,1-1.169-.41187.3135.3135,0,0,1,.01211-.13326,11.14,11.14,0,0,0,.07269-1.36886c.01817-.64809.0424-.854.12114-.963a.461.461,0,0,0,.00605-.55723.56006.56006,0,0,1-.02423-.50273.67092.67092,0,0,0-.03028-.54512.9394.9394,0,0,1-.05451-.5754,1.08271,1.08271,0,0,0-.13325-.90248c-.13931-.218-.14537-.23622-.11509-1.35675A4.61938,4.61938,0,0,0,7.3702,15.0689a1.49271,1.49271,0,0,1-.1817-.81163c.03028-.15142.01211-.19382-.0848-.2241a.28449.28449,0,0,1-.15748-.1272c-.03634-.103.01211-.27256.0848-.27256a1.49067,1.49067,0,0,0,.05451-.50272c.00605-.27256.02423-.67838.0424-.89643a1.93951,1.93951,0,0,0-.24228-1.13264A1.03116,1.03116,0,0,1,6.922,10.302c.15748-.38159.06057-1.69594-.12114-1.69594-.03028,0-.08479-.06662-.12114-.15142A.31529.31529,0,0,1,6.704,8.10938a1.28507,1.28507,0,0,0,.115-.33314.54025.54025,0,0,1,.109-.24834c.08479-.09085.09085-.19382.04845-.71471-.02422-.32707-.03634-.8298-.02422-1.11447s.02422-.54512.02422-.57541A1.71811,1.71811,0,0,0,6.922,4.85075a.49148.49148,0,0,1,.0424-.3937,1.46118,1.46118,0,0,0,.109-.3937,6.02471,6.02471,0,0,0-.06057-1.43549.41251.41251,0,0,1,.0424-.27256c.07269-.16959.07269-.218.00606-.315-.06663-.08479-.07874-.27256-.05451-.78739L7.03707.58063,6.84931.38075A.75315.75315,0,0,1,6.6676.09c0-.06057-.07874-.0848-.27862-.0848-.25439,0-.3089.02423-.54512.27862C5.69244.43526,5.54707.53823,5.51073.514a1.46,1.46,0,0,0-.38158-.0545,1.55817,1.55817,0,0,1-.92671-.3937c-.06057-.07874-.0848-.07268-.19382.0424C3.87537.2475,3.73606.24144,3.67549.09,3.63915-.00083,3.48167-.025,3.43927.04762ZM5.66821,25.82583a2.46118,2.46118,0,0,0,1.09024.00606c.72683-.15143,1.381.04845,1.47789.46032.02423.11508.09085.39976.14537.62386.11508.47244.08479.59358-.19382.70261a.29459.29459,0,0,1-.29074.01211,4.22453,4.22453,0,0,0-1.35069-.06663,7.15,7.15,0,0,1-.90853-.05451c-.18171-.03028-.46033-.07268-.61781-.09691a.76371.76371,0,0,1-.36947-.12114,1.89575,1.89575,0,0,0-.79951-.27256c-.1696,0-.45427-.12114-.45427-.19382,0-.02423-.05451-.04846-.1272-.04846a.43312.43312,0,0,1-.38158-.212c-.103-.2665.24228-.46638.854-.49061a1.99729,1.99729,0,0,0,.51484-.06057.876.876,0,0,1,.29073-.05451.82182.82182,0,0,0,.30285-.06057.57137.57137,0,0,1,.27256-.0424.57845.57845,0,0,0,.27256-.04845C5.51073,25.72892,5.5289,25.735,5.66821,25.82583Z"/>

</g>
</svg>
