<?xml version="1.0" encoding="UTF-8"?>
<svg xmlns="http://www.w3.org/2000/svg"
     version="1.1"
     width="24.03244630mm"
     height="22.43743501mm"
     viewBox="0.00000000 0.00000000 68.12340789 63.60217799">

<g transform="scale(4.54756027)">   <defs>
      <style type="text/css"><![CDATA[
      .a {
        stroke: #000;
        stroke-linecap: round;
        stroke-linejoin: round;
        stroke-width: 0.01px;
      }
    ]]></style>
   </defs>
   <path class="a"
         d="M7.55162.03832A.82257.82257,0,0,1,7.3154.105,3.20815,3.20815,0,0,0,6.31.60161c-.09691.07268-.23622.17565-.30891.23622a2.5251,2.5251,0,0,0-.28467.24228,1.02571,1.02571,0,0,1-.321.19987.38552.38552,0,0,0-.2241.17565,1.21471,1.21471,0,0,1-.41187.30285,1.48434,1.48434,0,0,0-.7026.58752.4522.4522,0,0,1-.26045.18776.25856.25856,0,0,0-.23622.23017,1.53345,1.53345,0,0,1-.58752.91459.49965.49965,0,0,0-.29073.321c-.05451.13325-.11508.24227-.13931.24227a.66817.66817,0,0,0-.12114.29679c-.06057.24833-.06057.32707.01211.47244a2.57078,2.57078,0,0,1,.13326.68443,2.626,2.626,0,0,0,.07874.57541A1.20141,1.20141,0,0,1,2.694,6.604a2.50129,2.50129,0,0,0,.05451.4361c.06057.23016-.13931.41186-.45426.41186a.97952.97952,0,0,0-.4361.12114.923.923,0,0,1-.39976.12114c-.20593,0-.55723.16354-.55723.25439a.82336.82336,0,0,1-.321.19988.9201.9201,0,0,0-.56329.73289c-.04846.26044.04845.41187.3513.55117a1.30765,1.30765,0,0,0,.69654.109,1.48886,1.48886,0,0,0,1.00545-.3089c.12719-.109.19988-.1272.30285-.08479a1.91044,1.91044,0,0,0,.29678.08479.2646.2646,0,0,1,.19382.14536,11.19845,11.19845,0,0,1,.03029,1.31436,1.11094,1.11094,0,0,0,.06057.32707c.06057.20594.06057.218-.29679.56935a2.51022,2.51022,0,0,0-.36341.39976.57418.57418,0,0,1-.18171.15142,1.6747,1.6747,0,0,0-.33313.25439.50951.50951,0,0,1-.20594.14537c-.07268,0-.18776.33919-.18776.57541a1.81632,1.81632,0,0,0,.09691.47243c.109.321.11508.321.98122.37553a1.37286,1.37286,0,0,0,.67837-.06057,1.51835,1.51835,0,0,1,.58752-.09085,9.61977,9.61977,0,0,0,.99939-.07874,1.56737,1.56737,0,0,1,.81769,0,2.10962,2.10962,0,0,0,1.04784.07874,2.4757,2.4757,0,0,1,.59964-.09085,2.11479,2.11479,0,0,0,.67231-.12114,2.00172,2.00172,0,0,1,.92671-.0848,4.59107,4.59107,0,0,0,.89037-.04845.42794.42794,0,0,1,.3513.02422,3.56923,3.56923,0,0,0,1.22347.13932,2.49238,2.49238,0,0,1,1.04785.07269,1.22726,1.22726,0,0,0,.4361.08479c.16959.01212.39975.02423.51483.03634.15143.01212.212-.00605.218-.07268.00606-.04845.01212-.12718.01817-.16959,0-.0424.103-.12113.22411-.16959a1.65334,1.65334,0,0,0,.80557-.89036.90443.90443,0,0,1,.19987-.34525c.03635,0,.04846-.04239.02423-.09085a.20908.20908,0,0,1,.06057-.18171.75254.75254,0,0,0,.12114-.37552c.01211-.16354.03634-.34525.0424-.41187.02423-.1696-.06057-.32708-.34525-.61175-.28467-.27862-.55723-.41187-.76922-.35736a2.1127,2.1127,0,0,1-.56935-.06057,4.78314,4.78314,0,0,0-.48456-.09691,4.35472,4.35472,0,0,0-.77528.12114.33613.33613,0,0,1-.23016.00605,2.28824,2.28824,0,0,0-.59358-.07874,1.20639,1.20639,0,0,1-.54512-.09086A1.33585,1.33585,0,0,1,10.5982,9.59a1.24171,1.24171,0,0,0-.0424-.33313c-.04845-.07267.14537-.40581.30285-.50272a2.37437,2.37437,0,0,1,1.03573-.25439.82744.82744,0,0,0,.36341-.04845c.103-.0424.30285-.11509.45427-.15748a.77654.77654,0,0,0,.3513-.18777,1.18784,1.18784,0,0,1,.4361-.212.80531.80531,0,0,0,.36341-.15748.679.679,0,0,1,.15748-.20594.613.613,0,0,0,.17565-.40581,1.50352,1.50352,0,0,1,.05452-.33919c.02422-.06662-.0424-.13325-.23622-.24227a.7666.7666,0,0,1-.27256-.19382c0-.03029-.0424-.04846-.09086-.04846a.334.334,0,0,1-.19382-.11508,1.76245,1.76245,0,0,0-1.46577-.07268,2.56134,2.56134,0,0,1-.70866.09691c-.50878.01817-.58752.01211-.69654-.09691-.09692-.09691-.103-.13931-.04846-.24228a.37428.37428,0,0,0,.03634-.23622.48466.48466,0,0,1,.09086-.30284.512.512,0,0,0,.07873-.35736c-.01817-.09085-.04239-.4785-.05451-.86008a2.23427,2.23427,0,0,0-.72077-1.93216c-.27256-.28467-.55724-.56935-.642-.642a.4635.4635,0,0,1-.15748-.24228.54264.54264,0,0,0-.109-.2665A.30278.30278,0,0,1,8.98711.84389C9.00528.81966,8.95077.78332,8.872.76515A.28531.28531,0,0,1,8.68427.61372C8.654.5047,8.32691.31693,8.00589.22A.51586.51586,0,0,1,7.806.09283C7.72727.002,7.61219-.02225,7.55162.03832Zm-.90248,4.579a1.35973,1.35973,0,0,1,.06663.36947.769.769,0,0,0,.14537.37553A1.48111,1.48111,0,0,1,7.14581,6.6161c-.01211.103-.24833.17565-.36341.109-.22411-.12114-.321-.25439-.27862-.40582a.30914.30914,0,0,0-.03029-.23016,2.47088,2.47088,0,0,1-.1817-.50878.96709.96709,0,0,1-.06057-.58146.56734.56734,0,0,0,.02422-.29679c-.03634-.16354.11509-.3513.24834-.30285a.4339.4339,0,0,1,.14536.2181Zm.32708,4.5972a.622.622,0,0,1,.28467.69654c-.15142.44821-.6178.26045-.75106-.29679a.2871.2871,0,0,1,.109-.315c.17568-.17559.16357-.16953.35739-.08473Z"/>

</g>
</svg>
