<?xml version="1.0" encoding="UTF-8"?>
<svg xmlns="http://www.w3.org/2000/svg"
     version="1.1"
     width="71.35633600mm"
     height="85.67392439mm"
     viewBox="0.00000000 0.00000000 202.26998241 242.85521612">

<g transform="scale(3.67920472)">   <defs>
      <style type="text/css"><![CDATA[
      .a {
        stroke: #000;
        stroke-linecap: round;
        stroke-linejoin: round;
        stroke-width: 0.01px;
      }
    ]]></style>
   </defs>
   <path class="a"
         d="M27.12185.0828a1.23957,1.23957,0,0,0-.67838.68443,2.66389,2.66389,0,0,1-.424.55724,1.62825,1.62825,0,0,0-.27256.315.95111.95111,0,0,1-.26651.2241,1.90023,1.90023,0,0,0-.71471,1.175A.75511.75511,0,0,1,24.687,3.299a1.42512,1.42512,0,0,0,.06662,1.01756c.11509.24228.23017.30285.8722.46032.11508.03029.37553.09692.57541.15143a4.64687,4.64687,0,0,0,.81768.12114,3.91507,3.91507,0,0,1,1.60508.29073,1.67407,1.67407,0,0,0,.73894.13931,1.82152,1.82152,0,0,1,.62992.09691c.07268.0424.33919.18776.59358.321.55118.29073.64809.45427.46032.79952a1.19558,1.19558,0,0,0-.12719.315,2.14672,2.14672,0,0,1-.27862.49061,3.88287,3.88287,0,0,0-.315.51484,2.57224,2.57224,0,0,1-.4361.54512,2.113,2.113,0,0,0-.69048,1.19927,1.10978,1.10978,0,0,0,.27861.71472,1.47115,1.47115,0,0,1,.32708.78134c0,.09691.02423.19382.06057.212a.756.756,0,0,1,.12113.29073,4.70326,4.70326,0,0,0,.527,1.16293,1.31793,1.31793,0,0,1,.19987.33313,4.20789,4.20789,0,0,0,.32708.56329.69033.69033,0,0,1,.17565.60569c-.01817.17565-.03634.424-.0424.55724-.03634.5754-.23016.72077-.86614.67232a2.37668,2.37668,0,0,0-.64809.03028,3.72467,3.72467,0,0,1-1.42943.07874,5.25722,5.25722,0,0,0-1.24168-.00606,1.47481,1.47481,0,0,1-.68442-.0424c-.12113-.06056-.23016-.06056-.5754,0a6.22566,6.22566,0,0,1-.89037.06663,1.65187,1.65187,0,0,0-.60569.07874,2.426,2.426,0,0,1-1.12053.18776,1.56855,1.56855,0,0,0-.93882.22411,4.6096,4.6096,0,0,1-1.45366.4361,5.62453,5.62453,0,0,0-1.61114.51483,2.22724,2.22724,0,0,1-.53906.212.29459.29459,0,0,0-.18171.05451,15.854,15.854,0,0,1-1.72622.87219A5.66976,5.66976,0,0,0,15.11706,19.374a10.31993,10.31993,0,0,1-1.56874,1.19927,1.57472,1.57472,0,0,0-.52089.49061c0,.08479-.33313.41187-.51484.50878a1.61086,1.61086,0,0,0-.3513.27861.72513.72513,0,0,1-.22411.18777,2.49414,2.49414,0,0,0-.38764.40581,3.70214,3.70214,0,0,1-.95093.93882,3.21637,3.21637,0,0,0-.68445,1.15082,1.017,1.017,0,0,1-.17565.33313,1.317,1.317,0,0,0-.27861.93882c-.00606.3937.01211.50272.11508.642l.12719.16959-.13931.29679a2.2957,2.2957,0,0,0-.15142.99939,9.03724,9.03724,0,0,0,.07874,2.51362c.05451.19988.109.40581.11508.45427a3.178,3.178,0,0,0,.49667.95093,2.52633,2.52633,0,0,1,.44215.8298,1.13924,1.13924,0,0,0,.29679.32707,2.38007,2.38007,0,0,1,.533.72683,6.04889,6.04889,0,0,0,.62386,1.04179,2.775,2.775,0,0,1,.44821,1.08419,1.1238,1.1238,0,0,0,.09086.41187c.03634.07874.05451.13931.03634.13931s-.00606.04845.02423.109a2.7958,2.7958,0,0,1,.18776.77528,1.94443,1.94443,0,0,0,.13931.48456c.07874.15142.0848.27256.03028.751-.03028.315-.06662.69655-.07874.848a2.92538,2.92538,0,0,1-.15142.963,2.32591,2.32591,0,0,0-.103.53907,2.33881,2.33881,0,0,1-.315.957,10.8705,10.8705,0,0,0-.89036,2.35613,3.93159,3.93159,0,0,1-.24228.6057,1.587,1.587,0,0,0-.17565.45426,3.98155,3.98155,0,0,1-.29073.72683,4.33555,4.33555,0,0,0-.25439.57541,3.23833,3.23833,0,0,1-.49061.92065.1294.1294,0,0,0-.0848.103,1.57331,1.57331,0,0,1-.14536.36341.8244.8244,0,0,0-.11508.3937.23308.23308,0,0,1-.06663.19988,1.26775,1.26775,0,0,0-.16354.38764,4.18191,4.18191,0,0,1-.61174,1.16293.11383.11383,0,0,0-.04846.103.36621.36621,0,0,1-.103.18776.39066.39066,0,0,0-.11508.19382.23166.23166,0,0,1-.06662.12721,1.5321,1.5321,0,0,0-.23622.47848,3.32352,3.32352,0,0,1-.4361.86009c-.02423,0-.09691.103-.15748.23017a10.0983,10.0983,0,0,1-.83585,1.23561,1.05127,1.05127,0,0,0-.23017.48455.45743.45743,0,0,1-.15142.315,1.64834,1.64834,0,0,0-.4785.76923,1.04756,1.04756,0,0,1-.20593.39975c-.109.1272-.22411.27256-.2665.32706a2.34818,2.34818,0,0,0-.19988.32708,2.32913,2.32913,0,0,1-.24834.3937,1.62807,1.62807,0,0,0-.32707.60569,2.03158,2.03158,0,0,1-.218.44215,2.83208,2.83208,0,0,0-.24227.48456,2.90277,2.90277,0,0,1-.24834.51483c-.12719.22411-.24833.45427-.27862.5209a1.51539,1.51539,0,0,1-.15748.27256,6.538,6.538,0,0,0-.36947.82375,7.28638,7.28638,0,0,1-.50878,1.06,8.499,8.499,0,0,0-.50272.91459,4.12305,4.12305,0,0,1-.45427.75711,1.22659,1.22659,0,0,0-.25439.41793,2.294,2.294,0,0,1-.55118.66626c-.41187.39976-.52089.53907-.60569.79951A.73084.73084,0,0,1,.0898,65.128c-.06057.02423-.0848.14536-.0848.46638,0,.43,0,.43.15142.3937a.99332.99332,0,0,0,.533-.49667.64843.64843,0,0,1,.29679-.27256,1.11178,1.11178,0,0,0,.315-.18776.45168.45168,0,0,1,.16354-.109c.01817,0,.07268-.08479.11508-.1817.04239-.103.103-.18171.13325-.18171A1.07735,1.07735,0,0,0,1.9493,64.177a3.98853,3.98853,0,0,1,.41792-.67837,2.45036,2.45036,0,0,0,.33919-.60569,2.07355,2.07355,0,0,1,.4785-.89643.162.162,0,0,0,.09085-.12719.889.889,0,0,1,.20594-.315.69214.69214,0,0,0,.1817-.27256,1.86628,1.86628,0,0,1,.27256-.6602,3.16017,3.16017,0,0,0,.27862-.5633,1.36,1.36,0,0,0,.18777-.70866.2972.2972,0,0,1,.08479-.30284.46211.46211,0,0,1,.1696-.12114,1.422,1.422,0,0,0,.29073-.533.425.425,0,0,1,.25439-.28467c.11508-.03634.23016-.212.55723-.848a10.64052,10.64052,0,0,1,.90248-1.42337c.13326-.18171.3513-.53907.49061-.7874a2.98148,2.98148,0,0,1,.36342-.54512,2.56884,2.56884,0,0,0,.36346-.69049,5.11433,5.11433,0,0,1,.315-.68443,2.199,2.199,0,0,0,.18171-.39976,1.01945,1.01945,0,0,1,.218-.3937,4.348,4.348,0,0,0,.59358-.98122,7.44507,7.44507,0,0,1,.76922-1.16292.43754.43754,0,0,0,.103-.15747,1.47875,1.47875,0,0,1,.24228-.315,1.63318,1.63318,0,0,0,.30284-.47244,1.02831,1.02831,0,0,1,.15748-.32707,4.41415,4.41415,0,0,0,.44821-1.10842,2.53719,2.53719,0,0,1,.37553-.76317,11.7633,11.7633,0,0,0,.56935-1.53845.354.354,0,0,1,.11508-.18777.31869.31869,0,0,0,.09086-.2241,1.32869,1.32869,0,0,1,.15142-.44822,2.42621,2.42621,0,0,0,.20593-.58752.68146.68146,0,0,1,.18171-.3937,1.03927,1.03927,0,0,0,.24833-.76317,1.32341,1.32341,0,0,1,.30285-.69654c.16354-.24833.32707-.4906.36342-.533a.131.131,0,0,0,.03028-.13325.602.602,0,0,1,.09085-.30285,1.97163,1.97163,0,0,0,.15748-.56329,1.449,1.449,0,0,1,.15748-.71471c.05451-.11509.1272-.27257.16354-.35736s.13325-.26651.212-.40582a2.01212,2.01212,0,0,0,.24833-.93276c.00606-.23622.13931-.59962.218-.59962.02423,0,.07874-.109.11508-.24834a.51638.51638,0,0,1,.14537-.27256c.04846-.01817.07874-.18776.0848-.527a2.81133,2.81133,0,0,1,.06662-.67837,3.78624,3.78624,0,0,0,.25439-.93277.52463.52463,0,0,1,.07269-.27256A2.3064,2.3064,0,0,0,16.0377,33.638a3.91011,3.91011,0,0,0-.18776-.72683,2.6269,2.6269,0,0,1-.15748-.57541.36507.36507,0,0,0-.06663-.22411.834.834,0,0,1-.12114-.29678,10.92372,10.92372,0,0,1-.2665-1.20532c-.01211-.1272-.109-.24835-.32707-.4361A2.35984,2.35984,0,0,1,14.2388,29.059a.38569.38569,0,0,0-.11508-.21805,2.65261,2.65261,0,0,1-.43-1.00545,1.04385,1.04385,0,0,0-.17565-.41187c-.09691-.14536-.16354-.28467-.14537-.315a.14866.14866,0,0,0-.0424-.13324.68153.68153,0,0,1-.09085-.28467c-.01212-.109-.05451-.40583-.09086-.65415s-.07873-.5209-.08479-.60569a2.83885,2.83885,0,0,0-.212-.53907,1.666,1.666,0,0,1-.1696-1.175c.02423-.09085.05452-.23622.06663-.321a.84694.84694,0,0,1,.17565-.321,3.19544,3.19544,0,0,0,.34524-.50272.96314.96314,0,0,1,.321-.38765,2.39232,2.39232,0,0,0,.43-.24833,2.16324,2.16324,0,0,1,.43-.23622.25966.25966,0,0,0,.17565-.16959c.02423-.09086.212-.24834.55724-.45427.28467-.17565.56329-.35736.62386-.40581.05451-.04846.2665-.23622.47244-.41793a2.11447,2.11447,0,0,1,.54515-.36948,3.484,3.484,0,0,0,.81768-.27256c.321-.13931.4361-.16354.52695-.11508a2.55532,2.55532,0,0,0,1.1811-.03635,6.20047,6.20047,0,0,1,.848-.14536,6.83086,6.83086,0,0,0,.854-.15142c.1696-.05452.36947-.103.45427-.12114a1.99337,1.99337,0,0,0,.636-.18171,2.93512,2.93512,0,0,1,.848-.109A3.54267,3.54267,0,0,0,23.942,18.629a5.42457,5.42457,0,0,1,.69654-.19381,5.20421,5.20421,0,0,0,.68443-.18171,3.69836,3.69836,0,0,1,.86614-.07874,2.04766,2.04766,0,0,0,.848-.109,1.40533,1.40533,0,0,1,.636-.13931,4.09391,4.09391,0,0,0,.95093-.05452c.66626-.103.65415-.103.7874-.17565a.337.337,0,0,1,.24226-.01817,4.75134,4.75134,0,0,0,.90248.02423c1.10842-.0424,1.35675.07874,1.24167.58146a1.08478,1.08478,0,0,0-.01211.3937.80291.80291,0,0,1,.03028.23017,2.74359,2.74359,0,0,0,.212.80555.69006.69006,0,0,1,.05452.45427,18.58884,18.58884,0,0,0,0,2.32586.70488.70488,0,0,0,.103.26044,3.18979,3.18979,0,0,1,.07269.81769c.00605.40581.03028.9267.0545,1.16292.01817.23017.04845.61175.06057.848a3.95419,3.95419,0,0,0,.09085.636.65251.65251,0,0,1,.03634.30284,6.64162,6.64162,0,0,0-.05451.69049,1.75579,1.75579,0,0,0,.06664.81768,1.98042,1.98042,0,0,1,.103.3089c.04845.34525.1272.55724.22411.61175a.62258.62258,0,0,1,.20593.23622c.0848.16354.07873.19382-.06662.4785a1.00173,1.00173,0,0,1-.19383.3089.69294.69294,0,0,0-.18777.23016,4.43748,4.43748,0,0,1-.32706.41187.55457.55457,0,0,0-.15748.30285,2.73308,2.73308,0,0,1-.315.963c-.03028.02422-.03028.07874.00606.14536.0424.07874.006.20594-.12114.4785a.9796.9796,0,0,1-.24228.37553.05978.05978,0,0,0-.05582.06351l.00131.00917c.01817.15143-.00606.212-.15748.38764a1.038,1.038,0,0,0-.15142.78134,2.42941,2.42941,0,0,1-.17565,1.14476.4688.4688,0,0,0-.06057.218,2.23653,2.23653,0,0,1-.03634.33313c-.0424.18171-.01212.24833.38158.88431a.48067.48067,0,0,0,.315.2544.42706.42706,0,0,1,.3089.49665c-.01817.315.27257.78135.87826,1.37492.62386.62386.67837.67232.848.75712a3.04386,3.04386,0,0,0,.90248.17565c.13326.01211.43.03028.66021.04845a1.06008,1.06008,0,0,0,.72077-.11508c.16354-.0848.3513-.19382.424-.24228a.85054.85054,0,0,1,.38765-.09085,2.1388,2.1388,0,0,0,1.0539-.37553,1.31721,1.31721,0,0,1,.36947-.16959,1.10264,1.10264,0,0,0,.36947-.29679,1.5928,1.5928,0,0,1,.50272-.36947,2.25618,2.25618,0,0,0,.4361-.218,1.284,1.284,0,0,1,.36947-.18171.55923.55923,0,0,0,.218-.109c.20594-.24228.81163-.46033.98122-.3513a.73905.73905,0,0,1,.218.55724c-.03029.12114-.01817.13325.0969.103.13931-.03634.33313.109.27256.20594a.36868.36868,0,0,0,.03634.23622.30787.30787,0,0,1-.00605.315.789.789,0,0,0-.09086.26044,1.75422,1.75422,0,0,1-.1393.56329.54722.54722,0,0,0,.44822.67838,1.94644,1.94644,0,0,0,.39368-.09691c.26045-.0848.321-.14537.61781-.58752.18171-.27256.3937-.60569.47244-.739a2.86114,2.86114,0,0,1,.2241-.321.95737.95737,0,0,0,.13931-.321,1.35408,1.35408,0,0,1,.24228-.4361,1.07739,1.07739,0,0,0,.218-.38158,2.31168,2.31168,0,0,1,.16352-.41187,4.19808,4.19808,0,0,0,.2968-1.99272c-.00605-.03635.00606-.26045.01816-.49667a1.58874,1.58874,0,0,0-.03028-.51484.28012.28012,0,0,1,.03028-.24227.975.975,0,0,0,.05452-.424,3.86893,3.86893,0,0,0-.13325-.91459,2.5309,2.5309,0,0,1-.109-.51484c-.02423-.19382-.0545-.36947-.0545-.38764-.07874-.315-.16961-.54512-.21806-.54512-.03633,0-.11508-.12114-.1817-.27256a1.96759,1.96759,0,0,0-.19988-.3513,7.67314,7.67314,0,0,1-.62992-1.16293,2.29,2.29,0,0,0-.38764-.54512,3.139,3.139,0,0,1-.81162-1.09025,2.6255,2.6255,0,0,0-.67232-.97516c-.20594-.218-.321-.38764-.321-.48455,0-.07874-.01817-.14537-.04845-.14537a5.944,5.944,0,0,1-1.066-1.07207,1.48991,1.48991,0,0,0-.53906-.58146.75563.75563,0,0,1-.23622-.24834.55629.55629,0,0,0-.52695-.27862,2.336,2.336,0,0,0-1.169.848.99077.99077,0,0,1-.424.30285.73476.73476,0,0,0-.46638.3937c-.15143.28467-.24228.3513-.37553.27256-.07874-.05451-.09691-.212-.13325-1.02968a1.42936,1.42936,0,0,0-.06057-.41187.91955.91955,0,0,1-.09086-.69654.62191.62191,0,0,0-.07268-.527.74611.74611,0,0,1-.09691-.38765A1.85172,1.85172,0,0,0,35.535,21.918a2.49033,2.49033,0,0,1-.09085-.71472c.00606-.05451.00606-.41792,0-.79951-.03634-2.659-.02423-2.81646.19988-3.01028.13325-.109.212-.13931.33313-.109.0848.02423.43.07874.76317.1272.33313.0424.78134.109.99333.13931.315.04845.41186.0424.51483-.03029a.68484.68484,0,0,1,.3089-.08479.57287.57287,0,0,0,.29679-.09086.62305.62305,0,0,1,.315-.09085,1.99287,1.99287,0,0,0,.58752-.17565,1.51842,1.51842,0,0,1,1.175-.07268.75555.75555,0,0,0,.41793-.00606,1.08637,1.08637,0,0,1,.38158-.03029,2.91135,2.91135,0,0,0,1.05391-.16353,2.41012,2.41012,0,0,1,1.31435,0,5.53379,5.53379,0,0,0,1.48394.11508c.07269-.01211.18171-.13931.25439-.29679a.80714.80714,0,0,1,.56936-.49061A.4296.4296,0,0,0,46.716,15.849a.18242.18242,0,0,1,.12721-.07269.5013.5013,0,0,0,.23016-.12113,1.10316,1.10316,0,0,1,.27256-.15748c.07873-.03029.14537-.07874.14537-.109a1.20164,1.20164,0,0,1,.34524-.2241,3.31015,3.31015,0,0,0,1.19927-1.066,2.23552,2.23552,0,0,1,.38764-.41793.82787.82787,0,0,0,.24833-.27862.65635.65635,0,0,1,.14537-.24833c.13931-.16959.17565-.28467.27256-.79345.06057-.30891.07268-.32708.34524-.36948a.62618.62618,0,0,0,.39976-.25439.93625.93625,0,0,0,.20593-.66626c.01818-.24833.0424-.533.06057-.62991A2.16488,2.16488,0,0,0,51.077,9.562a2.213,2.213,0,0,0-.37553-.9691c-.07874,0-.18777-.315-.15143-.43.02423-.07874-.06662-.28468-.2665-.61781a2.1914,2.1914,0,0,1-.3089-.6602c0-.103-.09691-.26045-.3089-.4785a3.83013,3.83013,0,0,1-.46033-.58146c-.0848-.14537-.17565-.26045-.20593-.26045a1.57536,1.57536,0,0,1-.33313-.65414,4.25561,4.25561,0,0,0-.1393-.61781c-.103-.321-.0848-.3937.15142-.67837.3937-.47244.56329-.50878,1.02362-.20594a2.40392,2.40392,0,0,0,.61175.28468,7.5236,7.5236,0,0,1,1.41719.59941,5.21149,5.21149,0,0,0,1.56874.57541,1.26114,1.26114,0,0,0,.5209-.09086c.27861-.12113.75711-.52089.75711-.636a.2759.2759,0,0,1,.07874-.16354,1.73913,1.73913,0,0,0,.315-.89642,5.469,5.469,0,0,0-.23016-1.12053,1.19823,1.19823,0,0,0-.26651-.37553.86455.86455,0,0,1-.19988-.25439c0-.09691-.30284-.35735-.75711-.6602a4.96937,4.96937,0,0,1-.45427-.321A3.564,3.564,0,0,0,51.186.02218C50.29558.07669,50.1381.113,49.93823.325a2.05539,2.05539,0,0,1-.50273.35735,1.06316,1.06316,0,0,0-.38158.30891.47906.47906,0,0,1-.23623.212,2.088,2.088,0,0,0-.43.33918,2.5365,2.5365,0,0,1-.41793.35736,3.44871,3.44871,0,0,0-.86613.86614c-.02422.07268-.06057.13931-.08479.13931-.02423.00606-.13326.01817-.24228.03028-.33919.03635-1.20533.90854-1.47789,1.47789a4.9233,4.9233,0,0,1-.29678.55118.56629.56629,0,0,0-.01212.56329,1.19316,1.19316,0,0,1,.0848.3089,5.53183,5.53183,0,0,0,.58752,1.49,2.31046,2.31046,0,0,1,.25439.59358,3.2906,3.2906,0,0,0,.46028,1.0054c.07874.13325.26651.49061.41793.79345a4.81911,4.81911,0,0,0,.38764.67232,2.80833,2.80833,0,0,1,.45427.89037,1.042,1.042,0,0,0,.19382.35735.63109.63109,0,0,1,.14537.27256,1.52247,1.52247,0,0,0,.18171.4361,2.3459,2.3459,0,0,1,.1817.40582c.00606.212-.751.69048-.92065.58752-.03028-.02423-.109.01817-.17565.09085a.46711.46711,0,0,1-.19382.13931c-.0424,0-.09691.01211-.13325.01211-.03029.00606-.18171.06057-.33313.11508a.53185.53185,0,0,1-.4361.04846c-.0848-.03029-.16959-.0424-.18776-.02423a12.70291,12.70291,0,0,1-1.6172.15142c-.11508,0-.32707-.00605-.46638-.00605a.96793.96793,0,0,0-.36947.04845,3.5289,3.5289,0,0,1-.65415.1272,6.855,6.855,0,0,0-.84191.15748,7.4088,7.4088,0,0,1-1.81707.16353,3.37562,3.37562,0,0,0-1.1387.03634,2.18309,2.18309,0,0,1-.53907.05452,1.6032,1.6032,0,0,0-.52089.06662.68278.68278,0,0,1-.29679.05452.82163.82163,0,0,0-.35736.09085,3.44783,3.44783,0,0,1-1.30223.19988,1.30856,1.30856,0,0,1-.71472-.06057.53376.53376,0,0,1-.19382-.14537c0-.02423-.01211-.13931-.02423-.25439a5.84524,5.84524,0,0,0-.12114-.60569,5.88047,5.88047,0,0,1-.11509-.73289,3.023,3.023,0,0,0-.31494-1.0963.57443.57443,0,0,1-.05452-.38764.65834.65834,0,0,0-.08479-.4361,1.86111,1.86111,0,0,1-.09691-1.10841.79226.79226,0,0,0-.0848-.58752,1.279,1.279,0,0,1-.1272-.4361,1.81764,1.81764,0,0,0-.18171-.5754,2.90012,2.90012,0,0,1-.1817-.46033,1.23368,1.23368,0,0,0-.14537-.32707c-.09086-.15143-.12719-.27862-.09691-.32708.03029-.05451-.006-.16353-.09691-.29678a.83154.83154,0,0,1-.14536-.30891,1.31054,1.31054,0,0,1,.29073-.61175c.03634,0,.07874-.06056.09691-.1393a.66867.66867,0,0,1,.27862-.27862,1.534,1.534,0,0,0,.43609-.4785,3.6167,3.6167,0,0,1,.29074-.41792,2.5395,2.5395,0,0,0,.18776-.70866c.109-.67232.07874-.82374-.22411-1.10842a.4346.4346,0,0,1-.14536-.23016,2.06215,2.06215,0,0,0-.49667-.82374,1.94429,1.94429,0,0,1-.27256-.19382,2.4814,2.4814,0,0,0-.963-.37553,2.3453,2.3453,0,0,1-.47849-.15142c-.30285-.1272-.34525-.1272-1.76862-.03029a1.41677,1.41677,0,0,1-.92671-.212,1.50713,1.50713,0,0,0-.80557-.03634.912.912,0,0,1-.957-.55724.51674.51674,0,0,0-.25439-.2665A.43835.43835,0,0,0,27.12185.0828Zm8.58264,29.01866a1.71506,1.71506,0,0,1,.33919.48455c.06056.13931.28467.533.4906.86614a2.14225,2.14225,0,0,0,.64809.77528,1.22169,1.22169,0,0,1,.35736.34524,3.96406,3.96406,0,0,0,.53907.6057c.32707.321.44821.47849.44821.59358a.77191.77191,0,0,0,.46032.72077,2.65783,2.65783,0,0,1,.90854.86009.41713.41713,0,0,1-.29679.43,4.54118,4.54118,0,0,1-.55118.0545,1.05015,1.05015,0,0,1-.75711-.15142,3.55086,3.55086,0,0,0-.98729-.38159,1.277,1.277,0,0,1-.3513-.12114.42915.42915,0,0,0-.23622-.06662c-.08479.05451-.44215-.218-.642-.48456a6.87292,6.87292,0,0,1-.72683-1.65959c-.01817-.11508-.06664-.37553-.103-.57541a13.09606,13.09606,0,0,1-.02422-2.14414c.01211-.15748.15747-.36947.24832-.36947a2.67116,2.67116,0,0,1,.23623.218Z"/>

</g>
</svg>
