<?xml version="1.0" encoding="UTF-8"?>
<svg xmlns="http://www.w3.org/2000/svg"
     version="1.1"
     width="45.03506019mm"
     height="46.34552809mm"
     viewBox="0.00000000 0.00000000 127.65842457 131.37308477">

<g transform="scale(4.36982859)">   <defs>
      <style type="text/css"><![CDATA[
      .a {
        stroke: #000;
        stroke-linecap: round;
        stroke-linejoin: round;
        stroke-width: 0.01px;
      }
    ]]></style>
   </defs>
   <path class="a"
         d="M20.1627.04082a3.19628,3.19628,0,0,0-.36342.16353.30349.30349,0,0,1-.28467.0424c-.06057-.03634-.212-.00606-.46033.09085a1.1791,1.1791,0,0,1-.39975.11509,1.26,1.26,0,0,0-.39976.15748,2.12949,2.12949,0,0,1-.44215.18776.72056.72056,0,0,0-.26651.16959,2.1092,2.1092,0,0,1-.53906.315,3.08935,3.08935,0,0,0-.4785.22411.48043.48043,0,0,1-.19382.07874.40581.40581,0,0,0-.19988.12114.2221.2221,0,0,1-.212.07874.59409.59409,0,0,0-.321.06057c-.86613.3513-1.07813.43609-1.13264.44215-.109.00606-.3937.16354-.3937.212,0,.09691-.62386.35736-.90853.38159a.90089.90089,0,0,0-.46033.15142c-.08479.06663-.18171.109-.212.09085-.1272-.07874-.7026.33313-.95093.68443a.65683.65683,0,0,1-.28468.23622.26388.26388,0,0,0-.17565.12114c-.0424.103-.44215.28468-.52089.23622-.03029-.01817-.14537.02423-.26651.09086-.19382.11508-.2241.12113-.38158.03634-.19988-.103-.28468-.06663-.34525.13325-.03634.103-.23016.2241-.751.47849a3.74092,3.74092,0,0,0-.73289.40582.95924.95924,0,0,1-.20594.23016,2.09361,2.09361,0,0,0-.32707.46638,1.71245,1.71245,0,0,1-.36947.49061c-.12114.103-.315.27256-.43.36947a1.04447,1.04447,0,0,1-.24833.17565c-.02423,0-.07874.0848-.12114.18171a.55755.55755,0,0,1-.19382.24833.13379.13379,0,0,0-.0804.17129l.00166.00436c.05451.17566-.07874.39976-.47244.77529a.6344.6344,0,0,0-.16354.218,1.50031,1.50031,0,0,1-.65415.76923c-.3513.20593-.38158.19987-.76317-.15748-.16959-.15748-.20593-.16354-.56329-.13326a.74021.74021,0,0,0-.642.30891,2.30783,2.30783,0,0,1-.44821.36341c-.12114.06057-.19988.14537-.19988.212a1.19863,1.19863,0,0,1-.30285.4361,2.20259,2.20259,0,0,0-.30284.36947c0,.02423-.07268.0848-.16959.13325a1.75063,1.75063,0,0,0-.64809.62992.51925.51925,0,0,1-.19988.23622,2.2419,2.2419,0,0,0-.28468.23016,1.13366,1.13366,0,0,0-.24833.68444c.01817.02422.00606.08479-.02423.13325-.06662.103.04846.321.30285.59963.12719.13931.1817.24228.15748.32707a4.235,4.235,0,0,0,.533,1.32041.58255.58255,0,0,1,.103.3513c-.03028.0424,0,.17565.06663.29679a.82848.82848,0,0,1,.09085.40581.53278.53278,0,0,0,.06663.321c.04845.07268.07268.15142.05451.16959a.40388.40388,0,0,0,.02423.22411,2.99609,2.99609,0,0,1,.0848.49667,2.2949,2.2949,0,0,0,.29073.92065c.109.212.11508.27256.05451.41186-.06663.1393-.04846.212.16354.636a1.20434,1.20434,0,0,1,.1817.55118.23565.23565,0,0,0,.04846.212c.07268.12114.07874.15748,0,.30285s-.07268.17565.03028.27862.103.12719.02423.28467c-.0848.15143-.07874.19383.04846.47245.103.212.12719.33313.08479.39975a.2037.2037,0,0,0-.01817.16353c.01817.0303-.01817.109-.0848.17565-.09085.09086-.109.1696-.08479.3513a.42931.42931,0,0,1-.09086.38159c-.103.12719-.109.15748-.03028.212a.49721.49721,0,0,1,.11508.2665,1.06928,1.06928,0,0,0,.11508.33313.20027.20027,0,0,1,.03029.218.20121.20121,0,0,0,.00605.19383.44049.44049,0,0,1-.01211.33918c-.103.28468-.103.38159-.01211.52091.05451.08478.04845.16353-.01817.35734-.0848.23622-.07874.2544.02422.34525a.61035.61035,0,0,1,.24228.44215.48079.48079,0,0,0,.06663.212.35358.35358,0,0,1,.04239.23622c-.02422.04846.01817.13325.09086.19382a.40626.40626,0,0,1,.14536.25439,1.31557,1.31557,0,0,0,.02423.18171c0,.01817.07268.06663.15748.103a1.397,1.397,0,0,1,.48455.67837.77552.77552,0,0,0,.0848.23017c.0424.07874.06663.15748.04846.16959-.01212.01817.04845.109.14536.20593a.60677.60677,0,0,1,.17565.26651.10465.10465,0,0,0,.1116.09721l.00348-.0003a1.58576,1.58576,0,0,1,.48456.27256c.3089.23016.3937.2665.49061.212.09085-.04845.14536-.03634.23016.0424A.5435.5435,0,0,0,5.602,29.859a.67448.67448,0,0,1,.19382.11509c.05451.05451.103.07874.103.05451s.0424-.01817.09692.01211c.06662.03634.19987.01817.41187-.06057.16959-.06662.38158-.13931.47849-.16959a1.35433,1.35433,0,0,0,.67232-.93882.42476.42476,0,0,0-.06663-.23622.216.216,0,0,1-.01817-.22411c.04846-.08479.00606-.18776-.18776-.46032-.20594-.30285-.23622-.38159-.18777-.50878.07269-.18777.0424-.24834-.37553-.66625-.26044-.26046-.32707-.36343-.29678-.46638a.3044.3044,0,0,0-.04846-.23017.76317.76317,0,0,1-.09691-.3513,2.13485,2.13485,0,0,0-.18776-.89642A.58562.58562,0,0,1,6.02,24.47443a.14481.14481,0,0,0,.03029-.12114,5.72567,5.72567,0,0,1-.103-.90248.911.911,0,0,0-.06057-.26044c-.05451-.14537-.0424-.19988.07268-.36342.09086-.11508.11509-.19382.07269-.212a.691.691,0,0,1-.19382-.22411c-.103-.16353-.11509-.23016-.06057-.33313.03634-.06662.04845-.12113.03028-.12113s0-.06057.0424-.13326a.72391.72391,0,0,0,.109-.38158c0-.03634-.01211-.16959-.02422-.29679a.411.411,0,0,1,.09691-.3513c.11508-.11508.11508-.12114-.03029-.33919-.36947-.55723-.40581-.64809-.38158-.9691a1.19565,1.19565,0,0,1,.11508-.45427.21685.21685,0,0,0,.03028-.24228.29571.29571,0,0,1-.03028-.1817.24913.24913,0,0,0-.02423-.1696.19917.19917,0,0,1,.00606-.17565.20728.20728,0,0,0-.03634-.212.507.507,0,0,1-.05452-.33919,2.07294,2.07294,0,0,0,.00606-.67231,2.34093,2.34093,0,0,0-.05451-.39976.12751.12751,0,0,1,.01817-.1272c.03028-.05451-.01211-.16959-.1272-.32707a.60062.60062,0,0,1-.06056-.73289.16638.16638,0,0,0,.03028-.16959,1.26917,1.26917,0,0,1-.09085-.3513c-.02423-.15142-.05452-.32707-.06663-.3937a.48959.48959,0,0,0-.11508-.212c-.09085-.09691-.09691-.30285-.03634-.99939a.85765.85765,0,0,0-.06071-.40584,1.65084,1.65084,0,0,1,.03634-1.16293.14981.14981,0,0,0,.03634-.15748c-.04845-.07874.109-.33919.33313-.55118a1.59813,1.59813,0,0,0,.26651-.34524.81494.81494,0,0,1,.24227-.28468.72376.72376,0,0,0,.218-.27862,1.10688,1.10688,0,0,1,.36947-.36341c.27862-.18171.3513-.27256.3937-.4785.02423-.13326.20594-.24227.40581-.24227a1.13194,1.13194,0,0,0,.72683-.3513c.15143-.17565.46033-.4785.7026-.7026a1.75617,1.75617,0,0,1,.37553-.24834,2.05991,2.05991,0,0,0,.35736-.212.89526.89526,0,0,1,.29073-.15142,2.23845,2.23845,0,0,0,.48456-.23017,3.93041,3.93041,0,0,1,.55723-.27861,3.67019,3.67019,0,0,0,.37553-.16354,12.41725,12.41725,0,0,1,1.272-.4785,1.0006,1.0006,0,0,0,.26045-.12719.80656.80656,0,0,1,.29073-.11508c.07268-.00606.16354-.01817.20593-.02423a.41624.41624,0,0,0,.19383-.13931.4779.4779,0,0,1,.23012-.1393,1.24175,1.24175,0,0,0,.29679-.103.31163.31163,0,0,1,.2665-.04846c.0848.05451.36947-.06057.55118-.22411.12719-.103.29679-.14536.75106-.16353a1.5191,1.5191,0,0,0,.48455-.07874.21716.21716,0,0,1,.33313.103c.04845.08479.02423.15142-.09691.29678-.0848.103-.13931.18777-.12114.18777.103,0-.11508.25439-.321.37553a1.31035,1.31035,0,0,0-.36947.33313,1.334,1.334,0,0,1-.44215.3513c-.26045.13325-.315.14536-.43.07268a.7004.7004,0,0,0-.62992.01211.35649.35649,0,0,1-.20594.05452c-.03634-.01212-.13325.04239-.212.12113-.07874.07269-.16959.12114-.19988.103-.03634-.02423-.12719.03634-.19987.1272A5.522,5.522,0,0,1,12.02222,8.357c-.16959.07874-.218.13931-.218.26045-.00605.16959-.29679.6602-.38764.6602-.03028,0-.07268.06663-.09085.14537a.44539.44539,0,0,1-.17565.23622,2.99735,2.99735,0,0,0-.66626.6602.55854.55854,0,0,1-.218.19988.54505.54505,0,0,0-.18777.48455,1.33207,1.33207,0,0,1,.01817.27256.9984.9984,0,0,0,.23017.53907c.15748.23016.212.35736.1817.424-.03634.05452-.01817.13931.03635.23017.08479.12113.08479.15748,0,.27861-.07874.1272-.07874.15143.02422.27862a.49161.49161,0,0,1,.11508.25439.61186.61186,0,0,0,.09086.26045.24668.24668,0,0,1,.02423.29679.28149.28149,0,0,0,.00605.28467c.06057.11508.05451.16354-.04845.30285-.07874.103-.103.19382-.07269.24227a.19293.19293,0,0,1,0,.18171.13448.13448,0,0,0,.01212.16959,1.09684,1.09684,0,0,1,.109.64809,1.4787,1.4787,0,0,0,.01817.61781.21663.21663,0,0,1-.07268.25439c-.12114.12114-.12114.12719-.00606.18776a.77577.77577,0,0,1,.315.69655.26357.26357,0,0,0-.01211.212.193.193,0,0,1,0,.18171.19224.19224,0,0,0,.03028.19988.30086.30086,0,0,1,.04846.2241.34549.34549,0,0,0,.03028.218.31638.31638,0,0,1,.01212.23622.24052.24052,0,0,0,.03634.23622.20427.20427,0,0,1,.02423.2241.33114.33114,0,0,0,.02422.29679.44889.44889,0,0,1,0,.41187c-.06057.18777-.06057.24228.01212.321a.63318.63318,0,0,1,.11508.23016.75856.75856,0,0,0,.06057.18777c.02423.03634-.01212.15748-.07874.2665-.0848.14537-.103.23016-.06057.3089.04846.07874.02423.18171-.07874.40582-.12114.25439-.1272.321-.06663.49061a3.81785,3.81785,0,0,1,.109.43609,1.55749,1.55749,0,0,0,.06057.28468c.01817.02423-.02423.09691-.0848.15748-.09691.09691-.103.13325-.03634.2241a.19176.19176,0,0,1,.01817.22411c-.04846.0848-.03028.15142.06057.2665.07269.09086.109.18777.09085.218a1.43766,1.43766,0,0,0,.321,1.47789c.15748.07874.50272.03634.50272-.05451,0-.18171.3513-.55118.67838-.71472.19382-.09691.33918-.19988.32707-.23016-.01817-.03029.02423-.12114.09085-.212.06664-.0848.109-.15748.0848-.15748-.11508,0,.12719-.24834.28467-.29074.15143-.03634.22411-.12113.40582-.47243a4.485,4.485,0,0,1,.46032-.70866,1.56285,1.56285,0,0,0,.24834-.36342.68935.68935,0,0,1,.33313-.4361c.12719-.04239.1393-.07874.05451-.212-.03634-.06057-.01817-.14536.06662-.27862a5.73491,5.73491,0,0,0,.26651-.59963c.13325-.37553.13931-.41793.04845-.55118a.59.59,0,0,1-.05451-.41792.50022.50022,0,0,0-.04845-.39976.21453.21453,0,0,1-.03029-.24833.28889.28889,0,0,0,.03029-.20594.4447.4447,0,0,1,.02422-.24228.30538.30538,0,0,0-.00605-.27256.22021.22021,0,0,1,.01817-.25439.83246.83246,0,0,0,.07874-.40581,1.18633,1.18633,0,0,1,.06057-.424.52435.52435,0,0,0,.01818-.36342,4.55567,4.55567,0,0,1-.0848-.51484,1.42928,1.42928,0,0,0-.06057-.32707c-.01211-.01211.00606-.07268.0424-.13325a.23316.23316,0,0,0-.01817-.24833,6.45348,6.45348,0,0,1-.11508-1.805,2.97137,2.97137,0,0,0-.02423-.54513c-.05451-.32707.13325-.5754.60569-.79345a1.0196,1.0196,0,0,1,.45427-.14537.16182.16182,0,0,0,.16353-.03634.587.587,0,0,1,.31495-.09691,3.89624,3.89624,0,0,0,.963-.12719c.09086-.03029.30285-.09691.46639-.13931a1.43388,1.43388,0,0,0,.38158-.13325,1.68291,1.68291,0,0,1,.45427-.13931c.65415-.13931.73894-.16354.79951-.23622a2.04731,2.04731,0,0,1,.38764-.24834,2.55955,2.55955,0,0,0,.44216-.28467.37971.37971,0,0,1,.24833-.09691.46776.46776,0,0,0,.25439-.04846.31.31,0,0,1,.19383-.03634.28057.28057,0,0,0,.20594-.06057.27566.27566,0,0,1,.218-.06056.26607.26607,0,0,0,.218-.0848,2.48918,2.48918,0,0,1,.854-.50273,1.05246,1.05246,0,0,0,.40581-.24227,2.20182,2.20182,0,0,1,.54512-.32708c.24228-.08479.27862-.08479.44216.01212.25439.14536.4361.642.3089.83585-.07268.109-.07268.16354.01211.3937a1.8171,1.8171,0,0,1,.07269.81163,2.504,2.504,0,0,0,0,.30284,3.05945,3.05945,0,0,1,0,.33313,1.55174,1.55174,0,0,0,.35138,1.00564l.13931.13931-.13325.25439c-.11509.2241-.12114.27256-.04846.44215a5.90174,5.90174,0,0,1,.1272,1.36886.93286.93286,0,0,0,.06056.30891.35565.35565,0,0,1-.03634.3513.35126.35126,0,0,0-.05451.25439,3.44313,3.44313,0,0,1,.20594,1.175,1.63956,1.63956,0,0,0,.218,1.02362c.18777.37552.19988.43.12114.54512-.07268.11508-.07268.16353-.006.321.07268.17565.103.18777.321.17565a.974.974,0,0,0,.3937-.12719.42372.42372,0,0,1,.321-.06663.91418.91418,0,0,0,.36341,0c.18171-.03028.23622-.08479.36947-.3513a3.76089,3.76089,0,0,1,.30285-.50878.46377.46377,0,0,0,.12114-.321.37224.37224,0,0,1,.09085-.26651.3465.3465,0,0,0,.07874-.32707.3696.3696,0,0,1,.109-.34525,1.257,1.257,0,0,0,.27257-.82979.52285.52285,0,0,1,.06662-.30285c.06057-.07874.06057-.12114,0-.23622-.15748-.29073-.17565-.533-.04845-.6602.06662-.06663.109-.13931.09085-.16959-.01817-.02423.01817-.1272.07874-.23017a.32172.32172,0,0,0,.07268-.25439,2.72593,2.72593,0,0,1,.109-1.12658.65633.65633,0,0,0,.03027-.27862.92558.92558,0,0,1,.03029-.30284.64075.64075,0,0,0,.00605-.35736,1.9464,1.9464,0,0,1-.02421-.848,1.73183,1.73183,0,0,0-.00606-.69654,1.67837,1.67837,0,0,1,0-.69655,1.90319,1.90319,0,0,0,.03027-.50272c0-.03634.01212-.321.02423-.61781.03029-.64809.03029-.67837.03029-1.1811-.00606-.68443.03635-.957.15748-1.08418.109-.1272.109-.13325,0-.212-.07873-.05452-.12719-.23017-.18777-.64809a3.32787,3.32787,0,0,1-.04845-.67232.34573.34573,0,0,0-.07269-.25439.351.351,0,0,1-.06662-.24228.34927.34927,0,0,0-.09086-.24833c-.11508-.14537-.15748-.15748-.40581-.1272a1.62184,1.62184,0,0,0-.99333.38159.64147.64147,0,0,1-.23621.13931,1.94322,1.94322,0,0,0-.37553.212,1.915,1.915,0,0,1-.38159.212,8.39088,8.39088,0,0,0-.88431.81769c-.73288.72077-1.066.9691-1.169.86008-.01816-.01817-.0848.01817-.15142.08479a.50083.50083,0,0,1-.36947.11508,1.83866,1.83866,0,0,0-.745.24228,2.57159,2.57159,0,0,1-.61175.24228,1.17612,1.17612,0,0,0-.40581.15142,1.69181,1.69181,0,0,1-.50273.18171,3.66683,3.66683,0,0,0-.56934.12719,10.444,10.444,0,0,1-1.02968.23622c-.0848.01212-.30285.0424-.48455.06663a1.37893,1.37893,0,0,0-.40582.09691,1.75982,1.75982,0,0,1-.58752.07874,2.90521,2.90521,0,0,0-.62386.07268.60275.60275,0,0,1-.29073.0424c-.09691-.00606-.35736-.02423-.57541-.0424a1.73783,1.73783,0,0,1-.59357-.12719,1.5147,1.5147,0,0,0-.30891-.1272,1.26516,1.26516,0,0,1-.5754-.36947c-.04846-.12114.28467-.46033.40581-.41793.04845.02423.18171-.06662.321-.212a2.071,2.071,0,0,1,.44821-.36341,2.26338,2.26338,0,0,0,.46032-.36342,1.45606,1.45606,0,0,1,.33313-.2665,1.03191,1.03191,0,0,0,.62992-.38764c.4361-.46639.50272-.54513.53907-.66626A4.56631,4.56631,0,0,1,19.6114,4.4926a4.738,4.738,0,0,0,1.14476-.95094,2.80555,2.80555,0,0,0,.72077-1.12658.70041.70041,0,0,1,.07874-.23017A1.95545,1.95545,0,0,0,21.49522.77368a.42005.42005,0,0,1-.0848-.19386c.05446-.218-.37554-.58748-.60569-.52691A.61869.61869,0,0,1,20.514.02868.53928.53928,0,0,0,20.1627.04082Z"/>

</g>
</svg>
