<?xml version="1.0" encoding="UTF-8"?>
<svg xmlns="http://www.w3.org/2000/svg"
     version="1.1"
     width="25.46489856mm"
     height="30.86949189mm"
     viewBox="0.00000000 0.00000000 72.18394880 87.50401178">

<g transform="scale(3.97101662)">   <defs>
      <style type="text/css"><![CDATA[
      .b {
        stroke: #000;
        stroke-linecap: round;
        stroke-linejoin: round;
        stroke-width: .01px;
      }
    ]]></style>
   </defs>
   <path class="b"
         d="m5.07823.37249c-.51172.26563-.75.44141-.89453.64844-.10547.16797-.35156.45703-.55078.64844-.19922.19141-.36719.38281-.36719.41797,0,.15234-.48047.56641-.73828.62891-.32813.09766-.70313.57031-.70313.89844,0,.12891-.11328.32813-.3125.53516-.30469.32031-.43359.55859-.51953.98438-.02344.12109-.12109.23828-.20703.26172-.18359.05859-.39453.49609-.44922.96094-.08984.73828-.07813,1.51953.02344,1.67969.05469.08984.10547.30469.10547.48828,0,.28906.02344.34375.19922.38672.12891.03125.25781.18359.39844.46094.18359.35938.21094.48828.16797.90625-.03906.45313,0,.69531.24219,1.32031.13672.35938.16016.80859.07813,1.34375-.04688.34375-.03906.45313.06641.56641.07031.07422.16797.25781.21484.39063.07813.23438.0625.29688-.10547.5625-.26172.40625-.35156.93359-.33594,1.97656.00781.87891-.02344,1.0625-.28516,1.35938-.08203.08594-.18359.30469-.24219.48047-.10156.32813-.44922,1.03906-.58203,1.22266-.05078.05469-.09766.18359-.10547.28125-.00781.09375-.0625.35938-.12109.58984-.07813.37109-.07031.44922.06641.67969.07813.14453.27734.32813.44531.41016.28125.14453.32031.14453.76172.01563.24609-.07031.52734-.16016.61719-.19141.10938-.04688.32031.02344.71875.23828.30469.16797.625.3125.69531.3125.07422,0,.18359.04688.25.11328.10938.12109.16797.10938,1.50391-.06641.15234-.01563.42188-.09375.59766-.16016.25-.10156.40234-.10938.71484-.05469.33594.0625.4375.04688.63672-.07031.14453-.08203.48047-.16016.85938-.19141.55078-.04297.78125-.09766,1.64453-.37891.22656-.07031.32031-.05469.76953.16016.60156.29687.6875.30469.9375.05859.32813-.32813.40625-.45703.35938-.57031-.01563-.05469.02344-.17578.09375-.26172.07422-.08984.17578-.22656.21875-.29688.04688-.07422.13281-.13672.19922-.15234.44922-.07422,1.4375-.54297,1.73438-.81641.11328-.10547.23438-.19141.26563-.19141.09375,0,.28906-.34375.34375-.60938.03906-.19922.00781-.29688-.16797-.48828-.12109-.13672-.32031-.26172-.45703-.28516-.38281-.07422-1.32813.10156-1.69531.31641l-.34375.20313-.29688-.18359c-.16797-.10547-.38281-.27344-.48828-.37891-.32031-.33594-.64844-1.0625-.66406-1.45313-.01563-.42578-.13672-.92969-.28516-1.16797-.08984-.13672-.08203-.23438.05469-.58594.07813-.23828.20703-.48828.26172-.55859.06641-.07422.19531-.28125.28906-.46484.08984-.17578.25781-.40234.375-.49609.19531-.15234.23438-.15234.43359-.04688.16016.07813.39063.10156.92969.0625.93359-.05469,1.23047-.03906,1.42188.07813.09766.05859.40234.15234.6875.21094.50391.09375.53516.08594,1.12109-.14453.32813-.13672.61719-.28906.63281-.34375.0625-.18359.39063-.45703.625-.51172.11719-.03125.33594-.15234.46094-.27344.13672-.12109.32813-.27344.43359-.34375s.23828-.26563.30469-.43359c.17578-.51172-.09766-.8125-.83203-.94141-.17578-.02344-.39453-.10547-.48047-.16016-.08203-.06641-.20703-.12109-.28125-.12109-.19922,0-.52734-.16797-.57422-.28125-.04297-.10938.125-.34375.55078-.78125.13672-.14453.35156-.41797.48047-.61719.13672-.19922.28906-.39844.34375-.44141.12891-.10156.19922-.38281.22266-.90234.01563-.38281,0-.43359-.19141-.55859-.12109-.07422-.24609-.17578-.28125-.23438-.03906-.0625-.09375-.08594-.13281-.0625-.04297.02344-.17578-.00781-.30469-.07422-.12891-.0625-.3125-.10156-.42578-.09375-.10156.01563-.41406.04688-.6875.08594-.47266.05078-.73438.01563-1.63281-.20703-.16016-.03906-.40625-.16016-.55859-.27344-.15234-.10938-.53516-.32422-.86328-.47656-.32813-.16016-.6875-.38672-.80078-.49609-.50391-.50391-2.16016-1.30469-2.71875-1.30469-.11328,0-.25781-.03125-.32031-.07422-.07422-.04688-.24219-.01563-.48047.08984-.19922.08594-.44141.17578-.52734.19141-.13672.02344-.34375.21484-.6875.65625-.05859.0625-.1875.07813-.40234.04688-.24609-.03906-.32031-.03125-.3125.05859.03516.21484,0,.28516-.19922.375-.10156.04688-.25391.15234-.33594.21484-.07813.07422-.3125.24219-.51953.36719-.24609.14453-.38281.28125-.38281.38672,0,.16797-.02344.19141-.51953.57422-.17578.12891-.54688.45703-.81641.71875-.60156.57813-.64844.57031-1.08984-.23828-.26953-.49609-.28906-.56641-.17578-.66406.07422-.05469.23047-.19141.35938-.30469.12891-.10938.28125-.23828.33594-.27734.63281-.48828.77734-.625.81641-.77734.08203-.27344.83203-.78516,1.15234-.78516.14453,0,.39063-.05469.55078-.12109.15234-.0625.36328-.11719.46484-.11719.10547,0,.20703-.07422.26563-.19922.13672-.28906.46484-.42578,1.03906-.40234.57422.01563.63281-.03125.70313-.53516.05859-.40234-.04688-.66406-.27734-.74609-.08203-.02344-.20313-.16016-.25781-.30078C7.0548.59124,6.4337-.01033,6.01573.0053c-.12891.00781-.55078.16797-.9375.36719Zm3.76953,4.69922c.12109.0625.28906.18359.36719.27734.16797.18359.21875.51172.27344,1.6875.01563.35156.58984.99219.83203.9375.14453-.03906.3125.07813.44141.29688.07031.10938.70313.47266.90234.50391.0625.00781.22266.03906.35156.05469.20703.03125.35938.16016.36719.30469,0,.11328-.25391.30469-.41406.30469-.08984,0-.64063.16016-1.23438.35938-.58203.19922-1.10938.35938-1.18359.35938-.0625,0-.125.03125-.14453.07031-.02344.06641-.30078.27344-1.21484.88281-.34375.23047-.64063.73438-.56641.96875.02344.07813-.00781.27734-.07422.4375-.17578.41016-.07813,1.63281.15234,1.99219.05859.09766.12891.30469.15234.46484.03125.16797.08984.30469.12109.30469.10156,0,.25391.42969.25391.72656.00781.15234.05859.53516.12109.86328.09766.48828.17578.65625.47266,1.02344.39844.48828.41406.52344.23047.70703-.10938.10156-.23047.11719-.70313.07031-.3125-.02344-.77734-.12109-1.02344-.19922-.35938-.12109-.52734-.13672-.83984-.07422-.33594.06641-.44141.04297-.81641-.13281-.44922-.21094-.61719-.24219-1.60156-.29688-.58203-.03125-.72656-.10547-.72656-.36719,0-.06641.03125-.17578.07031-.23438.05078-.07031.05078-.17578,0-.26172-.04688-.09766-.04688-.20313.01953-.3125.07813-.15234.14844-.45703.16016-.67188,0-.04688-.03516-.22656-.08203-.40234-.03906-.17578-.0625-.42969-.03906-.55859.02344-.13672.03906-.32813.03906-.44141,0-.10938.03906-.29297.08203-.41406.0625-.16016.05469-.25781-.05078-.41016-.11719-.19141-.11719-.20703.03125-.35156.25781-.23828.32813-.66406.15234-.95703-.10938-.1875-.13281-.29688-.07813-.40234.07813-.13672.01563-.70313-.08984-.87109-.02344-.04688-.00781-.22266.03516-.39844.03906-.16797.07031-.57813.07031-.89844,0-.38281.03906-.67188.12891-.83984.14453-.28125.54297-.69531.67188-.69531.03906,0,.07813-.05469.07813-.11328,0-.0625.08984-.21484.19922-.33594.11328-.11719.20312-.23828.20312-.27734,0-.03516.17578-.16797.39844-.30469.35938-.22656.65625-.48828,1.18359-1.07422.09766-.10938.36719-.3125.60156-.4375.23047-.12891.51172-.32031.62109-.43359.23438-.21484.72266-.54297.81641-.54297.03516,0,.16016.04688.28125.11328Z"/>

</g>
</svg>
