<?xml version="1.0" encoding="UTF-8"?>
<svg xmlns="http://www.w3.org/2000/svg"
     version="1.1"
     width="22.35214798mm"
     height="54.14202914mm"
     viewBox="0.00000000 0.00000000 63.36043145 153.47348440">

<g transform="scale(4.22440051)">   <defs>
      <style type="text/css"><![CDATA[
      .a {
        stroke: #000;
        stroke-linecap: round;
        stroke-linejoin: round;
        stroke-width: 0.01px;
      }
    ]]></style>
   </defs>
   <path class="a"
         d="M9.434.15037A.5947.5947,0,0,1,8.85855.429a.47381.47381,0,0,0-.38764.18169,1.06024,1.06024,0,0,1-.37553.25439,1.08385,1.08385,0,0,0-.36947.24228.92475.92475,0,0,1-.33313.20593,2.59464,2.59464,0,0,0-.46032.17565,1.12928,1.12928,0,0,0-.527.527.997.997,0,0,0-.19987.48456.86788.86788,0,0,1-.12114.40581,2.04739,2.04739,0,0,0-.18172.58752.572.572,0,0,1-.09691.32707c-.05451.03029-.08479.20594-.09691.46639a3.89461,3.89461,0,0,1-.08479.68443,3.47511,3.47511,0,0,0-.09085.68443,1.41462,1.41462,0,0,1-.0848.49061A1.34023,1.34023,0,0,0,5.3879,6.704C5.4,7.26123,5.34551,8.69066,5.297,9.09647a2.15381,2.15381,0,0,1-.12114.49061.37917.37917,0,0,0-.03634.29073.33133.33133,0,0,1,0,.218c-.03028.07269-.03634.15142-.01817.1696s-.01211.103-.07268.19382c-.07874.12114-.09086.19382-.0424.29073a.29275.29275,0,0,1,.00606.23622.86429.86429,0,0,0-.05452.32707v.81768c-.00605.32708-.00605.62992,0,.66626a2.608,2.608,0,0,1-.03028.29074.99556.99556,0,0,0,.03028.36341,8.54229,8.54229,0,0,1,.1272,1.23561.60423.60423,0,0,0,.09691.26045.23823.23823,0,0,1,.02423.29679.32034.32034,0,0,0,.03634.34524,1.83745,1.83745,0,0,1,.11508.73894,4.78319,4.78319,0,0,0,.07874.80557.84746.84746,0,0,1,.03028.3937,3.75828,3.75828,0,0,0,0,.98122c.01212.06663.05452.1272.103.1272.04846.006.11508.01211.15142.01817.12114.01211.14537.1817.04846.27861-.05451.04846-.11508.07874-.13325.06663-.02423-.01211-.0424.15748-.0424.37553.00606.38158-.16354.98122-.27256.98122-.02423,0-.03634.14536-.03029.315a1.07107,1.07107,0,0,1-.06662.44821,1.15756,1.15756,0,0,0-.103.41793c-.03029.26044-.109.38764-.24228.39369-.03028,0-.03634.04846-.01817.103a.29933.29933,0,0,1-.01817.19382.28023.28023,0,0,0,.03634.26651.338.338,0,0,1,.01817.34524.355.355,0,0,0-.03634.23016.891.891,0,0,1-.08479.37553.95466.95466,0,0,0-.09086.3513.79471.79471,0,0,1-.103.26651,1.27333,1.27333,0,0,0-.14536.40581,2.11459,2.11459,0,0,1-.109.43,6.40771,6.40771,0,0,0-.16353.75106,1.22919,1.22919,0,0,1-.18777.58146.49142.49142,0,0,0-.13931.24228.69066.69066,0,0,1-.13325.2665,2.66563,2.66563,0,0,0-.50878.854,2.24968,2.24968,0,0,1-.26045.50272c-.25439.3089-.321.46638-.29678.64809a.549.549,0,0,1-.12114.39975.89031.89031,0,0,0-.15142.36342c0,.07874-.00606.24228-.01212.36341a.92092.92092,0,0,0,.0848.40582.844.844,0,0,1,.09691.27861.16039.16039,0,0,0,.12114.1272c.06662.01817.12114.06663.12114.09691a.92151.92151,0,0,0,.23016.2665,6.28715,6.28715,0,0,1,.49666.49667c.25439.27862.23017.41794-.12113.636a6.29732,6.29732,0,0,0-.55118.46032,2.83038,2.83038,0,0,1-.636.46638.83855.83855,0,0,0-.37553.321,1.44,1.44,0,0,1-.34524.36946,1.78274,1.78274,0,0,0-.60569.59964.5791.5791,0,0,1-.22411.23016.14708.14708,0,0,0-.109.12114.41651.41651,0,0,1-.15142.21805,1.23486,1.23486,0,0,0-.33919,1.20532c.01211.06057.19382.1272.43.15142a.4924.4924,0,0,0,.418-.15748.754.754,0,0,1,.28467-.1817c.04846,0,.0848-.03029.0848-.06057,0-.109.59357-.32708,1.09024-.39976a4.09322,4.09322,0,0,0,.45427-.14537,5.15155,5.15155,0,0,1,.58146-.17566,2.26618,2.26618,0,0,0,.78134-.321.26575.26575,0,0,1,.07874-.12114c.15748-.16959.29074-.424.26045-.50879-.01817-.0424.03634-.15747.11508-.24227a.56819.56819,0,0,0,.15143-.24228.716.716,0,0,1,.15752-.26045c.08479-.103.1393-.20594.12113-.23622a2.4025,2.4025,0,0,1,.533-.75106.25423.25423,0,0,1,.22411.06057,1.86191,1.86191,0,0,0,1.35069.34525,3.66951,3.66951,0,0,1,.82373.04845c.13326.04846.23623.03634.49062-.06057a5.30528,5.30528,0,0,1,.72072-.23019,1.3458,1.3458,0,0,0,.52695-.23622,2.59181,2.59181,0,0,1,.9691-.45427,4.593,4.593,0,0,0,1.16292-.55118,1.57617,1.57617,0,0,0,.73289-.848c.26046-.50273.4361-.72683.56936-.72683.03633,0,.13325-.11508.218-.24834a.62486.62486,0,0,1,.28467-.27256c.19988-.05451.321-.28467.3513-.68443a1.79875,1.79875,0,0,1,.07874-.47244,2.99631,2.99631,0,0,0,.13326-.50272c.03634-.218.09691-.4785.12113-.57541a2.79912,2.79912,0,0,0,.07874-.36341c.03634-.23622.1696-.51484.24228-.51484.03028,0,.0424-.0424.01817-.09085a.173.173,0,0,1,.04846-.16354,1.32884,1.32884,0,0,0,.2241-1.0963c-.03634-.103-.103-.30285-.13931-.4361-.13325-.41792-.23622-.52089-.52089-.49666a1.01749,1.01749,0,0,0-.71472.41792.24777.24777,0,0,1-.15142.13931.90934.90934,0,0,0-.44821.45427.274.274,0,0,1-.19988.15748,1.45514,1.45514,0,0,0-.62992.32707c-.01211.03634-.11508.07874-.23016.09086a.66713.66713,0,0,0-.39976.23622,1.03884,1.03884,0,0,1-.315.24227c-.07268.02423-.13325.06663-.13325.09691s-.05451.06663-.11508.09086a.251.251,0,0,0-.15748.14536,1.73861,1.73861,0,0,1-.68443.49061.93351.93351,0,0,0-.55724.424.36025.36025,0,0,1-.23621.2241.59608.59608,0,0,0-.24834.12114c-.29679.27256-.4361.38158-.49061.38158a.63026.63026,0,0,0-.218.11509.34055.34055,0,0,1-.23016.09085c-.103-.0424-.20593-.34524-.20593-.59963A4.36379,4.36379,0,0,1,8.18018,26.51a3.30763,3.30763,0,0,0,.0848-.76923,3.45081,3.45081,0,0,1,.07268-.76317.74277.74277,0,0,0,.04845-.54512.48078.48078,0,0,1,.05452-.32707,1.73252,1.73252,0,0,0,.06662-.95094c-.03028-.09691-.00605-.16959.103-.27862a2.55667,2.55667,0,0,0,.321-1.76256,1.53328,1.53328,0,0,1,.09085-.95093c.0848-.24228.103-.38159.06664-.45427a2.19116,2.19116,0,0,1-.05452-.58146,2.1255,2.1255,0,0,0-.03634-.50273c-.01817-.01817.00606-.12114.04846-.23622a.5254.5254,0,0,0,.03028-.3937,2.111,2.111,0,0,1-.05451-.47244c.00606-.15748.00606-.43609.00606-.6178A18.91882,18.91882,0,0,0,8.901,14.481a.85584.85584,0,0,1,.09086-.81769,2.63476,2.63476,0,0,0,.19989-1.57475c0-.03635.02423-.212.05452-.3937a2.44432,2.44432,0,0,0,.03634-.57541,1.4746,1.4746,0,0,1,.00605-.54512c.01817-.103.05451-.41187.07874-.69655.04846-.49061.24228-1.02967.36948-1.02967.03028,0,.07268-.103.09691-.22411a1.482,1.482,0,0,1,.103-.34524,1.04791,1.04791,0,0,0,.07874-.36342c.06057-1.10235.103-1.73227.12721-1.88369.0121-.103.03633-.38765.04845-.642a2.23425,2.23425,0,0,1,.09086-.59357,1.05707,1.05707,0,0,0,.07268-.41793,6.452,6.452,0,0,1,.07268-1.16293,6.29784,6.29784,0,0,0,.1272-1.27195,4.3008,4.3008,0,0,1,.06662-.72683.92906.92906,0,0,0-.01211-.65414.16919.16919,0,0,1-.0424-.16354c.02423-.04846-.02423-.15748-.103-.24228C10.33644.02923,10.26376.005,9.9064.005,9.53693.005,9.49453.01711,9.434.15037Zm2.18049,27.69825c.06662.1393.04845.19382-.103.44215a.76259.76259,0,0,0-.15142.58146c.02422.26045.00605.32708-.1272.46639a.7474.7474,0,0,0-.15748.2241c0,.03634-.11508.13325-.25439.22411a1.57642,1.57642,0,0,0-.29679.21805,1.37089,1.37089,0,0,1-.79345.15748.85526.85526,0,0,0-.33919-.04846.74542.74542,0,0,1-.37553-.06663c-.19382-.103-.424-.34524-.424-.45426,0-.103.14536-.25439.30284-.30285a.88284.88284,0,0,0,.27257-.18776,1.56034,1.56034,0,0,1,.40581-.26045,2.01594,2.01594,0,0,0,.50272-.34524,3.41066,3.41066,0,0,1,.99939-.66021.65961.65961,0,0,0,.22411-.12719C11.40851,27.60028,11.52965,27.65479,11.61445,27.84862Z"/>

</g>
</svg>
