<?xml version="1.0" encoding="UTF-8"?>
<svg xmlns="http://www.w3.org/2000/svg"
     version="1.1"
     width="69.46811545mm"
     height="55.75792472mm"
     viewBox="0.00000000 0.00000000 196.91743972 158.05387097">

<g transform="scale(5.24842214)">   <defs>
      <style type="text/css"><![CDATA[
      .a {
        fill: #000;
        stroke: #000;
        stroke-width: 0.15px;
      }
    ]]></style>
   </defs>
   <path class="a"
         d="M19.96226,8.56652c.0322-1.07041.14816-2.15235,1.26551-2.67433.96775-.45081,2.50878-1.61523,2.5364-2.82329.01189-.49159-.15705-.77426.3951-.94711a5.92183,5.92183,0,0,1,1.33892-.12015c.50538-.03735,1.32231-.14852,1.5782.43561a1.60064,1.60064,0,0,1,.01537.8129c-.06552.37251-.35112.48476-.45779.80579a2.1106,2.1106,0,0,0-.01265.55259,2.67544,2.67544,0,0,0,.319,1.12883,5.0113,5.0113,0,0,1,.31378,2.27176c-.02666.75749-.06691,1.51446-.10008,2.264a8.83323,8.83323,0,0,1-.17853,2.3235,8.11088,8.11088,0,0,1-.83286,1.41365,10.74269,10.74269,0,0,1-1.49411,2.345,3.84085,3.84085,0,0,0-.75006.91833c-.09222.19375-.1.42311-.24643.58354-.27565-.50873.02452-1.42947-.0647-2.00862-.14118-.91569-1.27533-.47912-1.92292-.61637-.62924-.13319-1.41254-.397-1.63354-1.07864a6.46182,6.46182,0,0,1-.17358-2.32053c.02776-.92274.06429-1.84671.09006-2.7695C19.95225,8.89918,19.95538,8.733,19.96226,8.56652Z"/>
   <path class="a"
         d="M.09712,7.37348A9.41527,9.41527,0,0,1,.35748,6.32711c.06206-.32338.01765-.52417.248-.79649.1809-.214.40478-.371.56488-.5997A1.91945,1.91945,0,0,1,1.7389,4.2792,24.59722,24.59722,0,0,0,5.763,1.00181c.23874-.23122.63529-.29236.894-.48244.22511-.16431.294-.39281.57458-.43311A3.73443,3.73443,0,0,1,9.80034,1.0895a2.41583,2.41583,0,0,1,.39813.59285,5.47927,5.47927,0,0,1-.14128,1.82828c-.06248.65743.49823,1.16694.28449,1.82556a12.04592,12.04592,0,0,1-.60454,1.07586c-.4094.90723-1.09311,1.1357-1.86486,1.64661A6.32234,6.32234,0,0,1,6.76,8.8655c-1.04591.372-2.10825,2.06246-3.20434,2.00964-.67108-.0326-1.31807-.67207-1.94374-.891C1.12343,9.81215.573,9.70422.3126,9.20574A3.681,3.681,0,0,1,.09712,7.37348Z"/>
   <path class="a"
         d="M6.05774,10.3198a7.55172,7.55172,0,0,1,1.092-2.09926A5.27345,5.27345,0,0,1,8.70506,6.71031a7.822,7.822,0,0,0,.6671-.41563,1.88031,1.88031,0,0,1,1.23613-.28127c.57626.02582.80233.31112.96094.87521a2.1852,2.1852,0,0,0,.67284,1.13282,4.004,4.004,0,0,1,.67305,1.54537,23.52163,23.52163,0,0,1,1.02207,3.90389,21.769,21.769,0,0,1-.0127,6.38379c-.14081,1.03974-.18889,2.09009-.30753,3.1325-.08981.79352-.09135,1.42644-.95243,1.74408a9.23467,9.23467,0,0,1-1.78284.33924c-.47351.07387-1.16707.3361-1.64154.12222a2.84964,2.84964,0,0,1-.49039-.36555,2.941,2.941,0,0,1-.32925-.85271,7.689,7.689,0,0,1,.13085-1.44822,7.74479,7.74479,0,0,0-.38385-2.877C7.637,18.1364,6.65984,16.83535,6.10675,15.33268A7.41407,7.41407,0,0,1,6.05774,10.3198Z"/>
   <path class="a"
         d="M21.98535,18.74653c.58013.02594,1.159.05963,1.73446.07714l4.55754.13866c.44764.01362.91481-.01122,1.35935.03936.53055.06008,1.02114.22711,1.54586.31917a14.84438,14.84438,0,0,1,2.19729.16682c.1545.05342.41469.23742.60232.31823a6.68641,6.68641,0,0,1,.66448.28207c.247.14014.63531.288.84682.44321a3.84346,3.84346,0,0,1,.45727.49907,4.83044,4.83044,0,0,1,.91773.9579,3.86432,3.86432,0,0,1,.55274,1.095,1.23632,1.23632,0,0,1-.12688.83433c-.15929.29745-.4485.49688-.57455.81832a8.20741,8.20741,0,0,1-.3013.95786,7.43315,7.43315,0,0,1-1.57564,1.70415,15.98129,15.98129,0,0,0-1.25338,1.40287c-.1993.24111-.90029,1.33112-1.23674,1.23258.25351-.85144,1.06562-1.54209,1.425-2.368a8.22224,8.22224,0,0,0,.2757-1.49353,3.50979,3.50979,0,0,0,.08587-.72493c.0129-.4619.084-.826-.21153-1.15482a3.6961,3.6961,0,0,0-.31489-.36661c-.08409-.07327-.17373-.09057-.252-.16656a.18629.18629,0,0,0-.11776-.17865,6.45686,6.45686,0,0,0-1.12247-.62868,6.5836,6.5836,0,0,0-2.27846-.7563,11.04054,11.04054,0,0,0-1.79986-.16112,7.75876,7.75876,0,0,0-1.57705-.05427c-.45659.09237-.68673.48674-1.09235.62459a8.93355,8.93355,0,0,1-1.49161.13549,13.33127,13.33127,0,0,1-2.27719.26428c-.8888-.01486-1.79615.07207-2.68.08474a13.39816,13.39816,0,0,0-1.7548.27867c-.50947.07427-1.0605.05162-1.55821.154a2.8119,2.8119,0,0,1-1.114.11921,3.83255,3.83255,0,0,0-1.25781.06759c-.49881.10966-.99567-.00744-1.49382.07689-.44935.07611-.87647.02746-1.32554.06164a9.74627,9.74627,0,0,0-2.81057.55964,5.44338,5.44338,0,0,1-2.26177.26614,14.927,14.927,0,0,1-2.11846-.07714,3.12226,3.12226,0,0,1,.033-.96842,3.60854,3.60854,0,0,1,.40828-1.19349,5.02423,5.02423,0,0,1,1.229-.72191c.39367-.22251.77564-.445,1.18766-.63438A7.397,7.397,0,0,0,7.13289,20.55c.23261-.15681.42325-.43333.69716-.51378a5.702,5.702,0,0,1,.952-.02167,5.72266,5.72266,0,0,1,.79406-.12365c.41568.00975.78629-.06,1.21068-.04606.99977.03282,1.975-.11937,2.97037-.16369A8.7124,8.7124,0,0,0,15.31,19.60353a5.19751,5.19751,0,0,1,1.2345.00051,3.30764,3.30764,0,0,0,1.99818-.56578,3.11207,3.11207,0,0,1,1.68255-.32291C20.80949,18.70146,21.39748,18.72035,21.98535,18.74653Z"/>

</g>
</svg>
