<?xml version="1.0" encoding="UTF-8"?>
<svg xmlns="http://www.w3.org/2000/svg"
     version="1.1"
     width="41.37988805mm"
     height="21.81305499mm"
     viewBox="0.00000000 0.00000000 117.29731402 61.83231301">

<g transform="scale(4.54756027)">   <defs>
      <style type="text/css"><![CDATA[
      .a {
        stroke: #000;
        stroke-linecap: round;
        stroke-linejoin: round;
        stroke-width: 0.01px;
      }
    ]]></style>
   </defs>
   <path class="a"
         d="M20.02331.07046a1.52175,1.52175,0,0,1-.4361.07874.7838.7838,0,0,0-.46638.16354c-.09691.07268-.24833.18776-.33313.24833-.18776.12719-.19382.24833-.0424.50878.103.16354.15142.18776.315.16959a.6404.6404,0,0,1,.36342.06663,1.014,1.014,0,0,0,.20593.0848,3.048,3.048,0,0,1,.38159.06056,3.82525,3.82525,0,0,1,1.13264.55724,1.48905,1.48905,0,0,1,.48455.47244.25624.25624,0,0,0,.14537.15142.53546.53546,0,0,1,.218.23016c.08479.16354.09085.23017.03634.32708a1.54615,1.54615,0,0,1-.8722.37553,4.598,4.598,0,0,0-.52695.06057c-.218.03634-.49667.07874-.62386.09085a1.20711,1.20711,0,0,0-.33919.09691.68469.68469,0,0,1-.23016.06057,1.04641,1.04641,0,0,0-.33919.12114,1.00173,1.00173,0,0,1-.36947.12114,3.74361,3.74361,0,0,0-.69049.1817,4.51756,4.51756,0,0,1-.69048.18171,1.47022,1.47022,0,0,0-.38159.09085,2.1335,2.1335,0,0,1-.53906.09086,1.5535,1.5535,0,0,0-.61175.14536,2.16,2.16,0,0,1-.56329.18171,1.6252,1.6252,0,0,0-.321.06663.5904.5904,0,0,1-.22411.06057,8.49161,8.49161,0,0,0-1.92.59963c-.73894.34524-.88431.424-.957.527-.09085.12114-.45427.315-.52089.27256a2.46807,2.46807,0,0,0-.848.321,6.892,6.892,0,0,1-.7026.37553c-.36342.17565-.89037.45426-1.16293.61174a2.62383,2.62383,0,0,1-.58146.29074,1.32578,1.32578,0,0,0-.66021.32707,4.91465,4.91465,0,0,1-1.24772.70866.84152.84152,0,0,0-.27256.14536,4.38716,4.38716,0,0,1-.90854.45427,2.13282,2.13282,0,0,0-.62992.321c-.04845.0424-.13325.11508-.18776.16353-.06057.04846-.321.23622-.58752.41793a5.06383,5.06383,0,0,0-.54512.39976,2.395,2.395,0,0,1-.45427.27256,4.54812,4.54812,0,0,0-.99939.636,1.07249,1.07249,0,0,1-.218.15748,2.11927,2.11927,0,0,0-.6602.4785c0,.03634-.11508.12114-.26045.18776a.52221.52221,0,0,0-.33313.36342.45687.45687,0,0,0-.01211.35736c.06057.11508.06662.11508.17565.00605a.79386.79386,0,0,1,.34524-.15142,2.27242,2.27242,0,0,0,1.02362-.56329,2.45908,2.45908,0,0,1,.90854-.59964,3.43166,3.43166,0,0,0,1.13264-.70866c.13325-.12113.2665-.212.29679-.18776.03028.01817.15142-.03634.2665-.12114a2.35588,2.35588,0,0,1,.46638-.27256,2.08552,2.08552,0,0,0,.43-.2665,1.18089,1.18089,0,0,1,.4361-.218.9938.9938,0,0,0,.3937-.18777,1.13754,1.13754,0,0,1,.59358-.30284,2.491,2.491,0,0,0,.56329-.18171c.24833-.09691.47244-.18171.49667-.18171a.29624.29624,0,0,0,.13931-.09085.36867.36867,0,0,1,.212-.09085.35266.35266,0,0,0,.212-.09086.35268.35268,0,0,1,.19988-.09085.657.657,0,0,0,.29679-.18776.72378.72378,0,0,1,.33918-.20594,4.50656,4.50656,0,0,0,1.25369-.49073c.0848-.0424.17565-.06663.18777-.04845a.9756.9756,0,0,0,.36947-.12114,1.00165,1.00165,0,0,1,.36947-.11508c.01817.01817.11508-.03635.218-.1272a1.1478,1.1478,0,0,1,.3513-.19382,2.21327,2.21327,0,0,0,.37553-.15142,3.4719,3.4719,0,0,1,.60569-.20594,6.81207,6.81207,0,0,0,.72683-.24227,6.72264,6.72264,0,0,1,1.97455-.32708,2.27385,2.27385,0,0,0,.92671-.24833,1.02055,1.02055,0,0,1,.49061-.15142.4029.4029,0,0,0,.27862-.07269,1.38956,1.38956,0,0,1,.65414-.12113,5.31794,5.31794,0,0,0,.90854-.11509c.34524-.08479.45427-.09085.6178-.03028a.363.363,0,0,0,.32708.00606,1.65551,1.65551,0,0,1,.47244-.09086,2.05629,2.05629,0,0,0,.58752-.12114,2.66464,2.66464,0,0,1,.86613-.13325,3.91574,3.91574,0,0,0,.7874-.08479,11.23208,11.23208,0,0,1,1.70805-.19988,1.64956,1.64956,0,0,0,.98728-.44216.60677.60677,0,0,1,.28467-.13931c.15748,0,.3089-.2665.29679-.533a1.79162,1.79162,0,0,1,.11508-.55118.72464.72464,0,0,0,.07874-.424,1.72759,1.72759,0,0,1-.09085-.3937.71973.71973,0,0,0-.09691-.33918,2.65093,2.65093,0,0,1-.30285-.36342,2.26821,2.26821,0,0,0-.38759-.41785c-.07874-.05452-.33313-.26651-.56329-.4785A3.20141,3.20141,0,0,0,22.76708.42176a1.35407,1.35407,0,0,1-.46031-.08482,3.87488,3.87488,0,0,0-.78135-.12719,2.13248,2.13248,0,0,1-.69654-.1272A1.17234,1.17234,0,0,0,20.02331.07046Z"/>

</g>
</svg>
