<?xml version="1.0" encoding="UTF-8"?>
<svg xmlns="http://www.w3.org/2000/svg"
     version="1.1"
     width="10.99845554mm"
     height="12.47232916mm"
     viewBox="0.00000000 0.00000000 31.17668139 35.35464372">

<g transform="scale(6.27500687)">   <defs>
      <style type="text/css"><![CDATA[
      .a {
        stroke: #000;
        stroke-linecap: round;
        stroke-linejoin: round;
        stroke-width: 0.01px;
      }
    ]]></style>
   </defs>
   <path class="a"
         d="M2.09482.03942a.38852.38852,0,0,0-.109.16353.24073.24073,0,0,1-.09691.13326.53174.53174,0,0,0-.15748.2241A.39884.39884,0,0,1,1.5497.77836.4705.4705,0,0,0,1.34982.948a1.96966,1.96966,0,0,1-.46033.38159,1.398,1.398,0,0,0-.39979.33313A.34963.34963,0,0,1,.308,1.82621a.61277.61277,0,0,0-.17565.90248.18818.18818,0,0,1,.04846.16959c-.02423.04845-.00606.09085.02422.09085.06663,0,.15748.0848.34525.33313a7.94987,7.94987,0,0,0,.90248.90854c.12113.09691.2665.2241.321.27862a3.17936,3.17936,0,0,0,.33919.23016,4.28053,4.28053,0,0,1,.39976.29679,3.18369,3.18369,0,0,0,.83585.58146,1.71971,1.71971,0,0,0,.51484-.01817.79711.79711,0,0,0,.636-.3513c.38764-.44215.38764-.44215.3513-.50272a.36319.36319,0,0,1,.05452-.23017c.08479-.15747.07874-.1817-.03029-.27256a.34625.34625,0,0,1-.11508-.1817.58043.58043,0,0,0-.17565-.24834,1.25949,1.25949,0,0,1-.3513-.91459c.02423-.16354.00606-.212-.109-.27256a.60525.60525,0,0,1-.27256-.46033.87159.87159,0,0,0-.15142-.315,1.3568,1.3568,0,0,1-.18171-.50272A2.93744,2.93744,0,0,0,3.1427.25141,1.27556,1.27556,0,0,0,2.09482.03942Z"/>

</g>
</svg>
