<?xml version="1.0" encoding="UTF-8"?>
<svg xmlns="http://www.w3.org/2000/svg"
     version="1.1"
     width="16.66932238mm"
     height="38.01987299mm"
     viewBox="0.00000000 0.00000000 47.25164414 107.77288153">

<g transform="scale(4.66067466)">   <defs>
      <style type="text/css"><![CDATA[
      .a {
        fill: #000;
        stroke: #000;
        stroke-width: 0.25px;
      }
    ]]></style>
   </defs>
   <path class="a"
         d="M5.424.01666a7.71526,7.71526,0,0,0,1.4941,2.9507c.6861.4849,2.1988-.061,3.0293.0127-.269.5586-1.0644,1.2407-1.4868,1.9473-.5776.9648-1.1562,1.9423-1.7207,2.9238a34.24348,34.24348,0,0,0-2.01809,4.435c-.81491,2.0513-1.33691,4.2227-2.20891,6.2803-.4693,1.1084-1.312,3.875-2.3697,4.3716-.226-1.7207,1.7212-4.5147,2.30961-6.0967.45649-1.228.71879-2.4477,1.07959-3.66841.332-1.12409.8979-2.13239,1.1851-3.24319.1425-.55081-.0503-1.1592.0942-1.6919.0767-.2861.7007-.9302.7104-1.12891.07771-1.59419-1.9526-.40719-2.6499-1.34959a5.75533,5.75533,0,0,1,.125-3.0088c.2041-.3755.7691-.542.9937-.8604.251-.353.2056-.92621.4795-1.2329.2925-.3296.5605-.4726.8305-.395"/>

</g>
</svg>
