<?xml version="1.0" encoding="UTF-8"?>
<svg xmlns="http://www.w3.org/2000/svg"
     version="1.1"
     width="11.76731274mm"
     height="42.12609104mm"
     viewBox="0.00000000 0.00000000 33.35614251 119.41248724">

<g transform="scale(5.18422646)">   <defs>
      <style type="text/css"><![CDATA[
      .a {
        stroke: #000;
        stroke-linecap: round;
        stroke-linejoin: round;
        stroke-width: 0.01px;
      }
    ]]></style>
   </defs>
   <path class="a"
         d="M3.44234.00881c-.0424.04846-.2483.07874-.76317.11509-.636.04845-1.272.33918-1.272.58146a2.96445,2.96445,0,0,1-.48455.55723c-.77528.78135-.7874.79952-.7874.97517a.72777.72777,0,0,1-.06662.28467,1.01883,1.01883,0,0,0,0,.70866c.05451.09691.12114.11508.40581.103C.7712,3.322.83783,3.29775.97713,3.13421a.77628.77628,0,0,1,.72683-.321c.30285,0,.30285,0,.424-.2665a.7415.7415,0,0,1,.23016-.32707c.17565-.09691.78134.12113,1.04179.37553a.776.776,0,0,0,.32707.218.405.405,0,0,1,.218.11509c.103.103.109.15142.05451.3513a2.699,2.699,0,0,0-.07268.527.5138.5138,0,0,1-.20594.46638l-.18776.16959-.321-.12114a1.22857,1.22857,0,0,1-.47849-.30284c-.13325-.16354-.18171-.18777-.321-.15142-.19382.04845-.52089.38158-.52089.52695a.51627.51627,0,0,1-.12114.24833.78488.78488,0,0,0-.12114.35736v.3089c0,.06057-.00606.15748-.00606.212a2.22706,2.22706,0,0,0,.1272.47244,3.1595,3.1595,0,0,1,.15142.93882,5.914,5.914,0,0,0,.0848.78134.50979.50979,0,0,1-.03029.41793.52926.52926,0,0,0-.04845.3089A4.50519,4.50519,0,0,1,2.025,9.385a2.052,2.052,0,0,1-.07268.49667.594.594,0,0,0,.01817.49666,1.34656,1.34656,0,0,1,.01211.854,2.486,2.486,0,0,0-.12114.72683c.02423.03634.03634,1.06.01817,1.81707a3.21407,3.21407,0,0,0,.18171,1.1387.25251.25251,0,0,1,.03029.27256,1.50346,1.50346,0,0,0-.0424.527c.01211.218.02422.46638.02422.56329a.63822.63822,0,0,0,.09692.30891c.06662.109.07874.1817.03634.26044a.21653.21653,0,0,0-.00606.218.27765.27765,0,0,1,.02423.218.73082.73082,0,0,0,.12719.38764.68064.68064,0,0,1,.11508.39976.68689.68689,0,0,0,.06057.3513,1.29151,1.29151,0,0,1,.09691.47244,1.97468,1.97468,0,0,0,.24228.75106,2.3983,2.3983,0,0,1,.212.53907c-.01817.01211.00606.0848.05451.15748a.50161.50161,0,0,1,.09086.23621.69856.69856,0,0,0,.12719.28468c.1272.16959.1272.1817.02423.33918a1.10133,1.10133,0,0,0-.12114.41187c-.01211.13325-.02423.26651-.02423.29679a.33749.33749,0,0,1-.15142.109.65932.65932,0,0,0-.17565.848c.103.17565.1272.18171.3513.13931.13325-.02423.321-.0424.41793-.04845.12719-.00606.18171-.0424.19382-.12114.01817-.13325.27256-.35736.52089-.46033a.56848.56848,0,0,0,.23622-.25439,3.63928,3.63928,0,0,1,.212-.38764c.07874-.11508.12719-.20593.109-.20593-.02423,0,.00606-.06663.06057-.15143a1.29945,1.29945,0,0,0,.09691-.64809,1.45156,1.45156,0,0,0-.21805-.92065,1.64011,1.64011,0,0,1-.18776-.527,4.14945,4.14945,0,0,0-.59964-1.23561.47229.47229,0,0,1-.07874-.52089c.04846-.09691.0424-.13931-.03028-.19382a1.4897,1.4897,0,0,1-.30285-.89037,1.19485,1.19485,0,0,0-.07874-.27256.22.22,0,0,1,0-.24228,1.08562,1.08562,0,0,0,.01817-.75711,2.63329,2.63329,0,0,1-.08479-.71471,4.46989,4.46989,0,0,0-.03634-.6057.92635.92635,0,0,1,.01817-.29678.48162.48162,0,0,0-.00606-.30891c-.103-.103-.09691-.38158.02423-.69654a1.08883,1.08883,0,0,0,.09085-.41187.33372.33372,0,0,1,.05451-.23016.79751.79751,0,0,0,.06663-.45427A2.42369,2.42369,0,0,1,4.00558,10.027c.218-.35735.24228-.58752.06663-.642-.321-.103-.44216-.55118-.30891-1.13264a.414.414,0,0,0-.05451-.38764.36358.36358,0,0,1-.07874-.24834.18732.18732,0,0,0-.0424-.16959,2.05021,2.05021,0,0,1-.02423-1.16293,1.12973,1.12973,0,0,1,.84192-.38158A.53592.53592,0,0,0,4.90811,5.672a2.06894,2.06894,0,0,0,.32707-.45427c.06057-.12114.13931-.22411.17565-.22411s.05451-.0424.03029-.09085a.35213.35213,0,0,1,.109-.25439,1.4765,1.4765,0,0,0,.212-.49061,2.30723,2.30723,0,0,1,.15143-.48455,1.776,1.776,0,0,0,.12719-.40582,1.57748,1.57748,0,0,1,.15748-.43c.06057-.103.09691-.20593.07268-.23016s.00606-.13931.07269-.25439c.11508-.218.11508-.218-.00606-.315A2.55116,2.55116,0,0,1,5.67128,1.202.61759.61759,0,0,0,5.17461.778.55746.55746,0,0,1,4.902.65085,1.34226,1.34226,0,0,0,4.08437.26926a.59969.59969,0,0,1-.424-.15142C3.56347.0391,3.46656-.00936,3.44234.00881Z"/>

</g>
</svg>
