<?xml version="1.0" encoding="UTF-8"?>
<svg xmlns="http://www.w3.org/2000/svg"
     version="1.1"
     width="44.48261935mm"
     height="13.42716119mm"
     viewBox="0.00000000 0.00000000 126.09239869 38.06127130">

<g transform="scale(4.33965766)">   <defs>
      <style type="text/css"><![CDATA[
      .a {
        stroke: #000;
        stroke-linecap: round;
        stroke-linejoin: round;
        stroke-width: 0.01px;
      }
    ]]></style>
   </defs>
   <path class="a"
         d="M22.625.01831a1.28752,1.28752,0,0,0-.252.162.505.505,0,0,1-.45.114c-.252-.018-.39.024-1.218.42a5.07176,5.07176,0,0,1-1.89.606,2.39512,2.39512,0,0,0-1.374.756c-.234.348-.474.396-1.146.234a4.892,4.892,0,0,1-.654-.192,1.41639,1.41639,0,0,0-.42-.084c-.168-.012-.534-.03-.816-.048s-.606-.048-.72-.066c-.114-.012-.402-.048-.63-.072a1.88,1.88,0,0,1-.594-.156,2.86585,2.86585,0,0,0-1.326-.348,2.84563,2.84563,0,0,1-.672-.09,1.89436,1.89436,0,0,0-1.008-.072.824.824,0,0,1-.486-.03.91772.91772,0,0,0-.492-.036.32961.32961,0,0,1-.24,0,.21767.21767,0,0,0-.21,0c-.066.042-.192.03-.384-.042a3.26416,3.26416,0,0,0-1.008-.186c-.384-.03-1.14-.048-1.44-.03a11.24631,11.24631,0,0,1-1.77-.132,3.99772,3.99772,0,0,0-.81-.054c-.228.018-.582.03-.78.03a.94744.94744,0,0,0-.552.114.51415.51415,0,0,1-.402.084.41267.41267,0,0,0-.53826.22555L.335,1.14631a.759.759,0,0,1-.222.27c-.09.048-.108.132-.108.45,0,.372.012.402.21.588a.71084.71084,0,0,1,.21.312c0,.252.972.558,1.83.588a1.04282,1.04282,0,0,1,.366.048,1.298,1.298,0,0,0,.51-.108,2.40151,2.40151,0,0,1,1.29-.144,5.85242,5.85242,0,0,0,1.704.054c.888-.072.822-.06,1.176-.246l.306-.156.294.174a.91842.91842,0,0,0,.744.15,3.91017,3.91017,0,0,0,.804-.15l.354-.126.246.138a1.11033,1.11033,0,0,0,.936.054c.15-.03.462-.078.69-.102a2.22417,2.22417,0,0,0,.516-.096c.072-.036.144-.018.24.054.114.09.24.108.588.096a1.65443,1.65443,0,0,1,.57.048,1.035,1.035,0,0,0,.726.048.55923.55923,0,0,1,.426.024c.438.162.516.162.798-.024a.72121.72121,0,0,1,.6-.156,1.1028,1.1028,0,0,1,.78.3,3.39337,3.39337,0,0,1,.846.924c0,.132.09.222.372.366a1.02877,1.02877,0,0,1,.372.462.94305.94305,0,0,0,.564.558.90176.90176,0,0,1,.474.39.6057.6057,0,0,0,.222.27c.066.036.288.156.486.27.732.42.942.522,1.008.498a.59133.59133,0,0,1,.282.072,1.65929,1.65929,0,0,0,.48.102,4.29016,4.29016,0,0,1,.468.06,1.94476,1.94476,0,0,0,1.104-.318,1.723,1.723,0,0,1,.948-.204c.288-.018.48-.144.87-.6.492-.576.72-.702.99-.564a.468.468,0,0,1,.222.552.55415.55415,0,0,0,.096.36c.108.192.114.246.06.582a1.83227,1.83227,0,0,0,.132,1.266c.042.096.108.252.138.342.054.132.096.156.264.138a1.23062,1.23062,0,0,0,.288-.054,2.0036,2.0036,0,0,0,.54-.912,1.041,1.041,0,0,1,.15-.426.96631.96631,0,0,0,.132-.366.73946.73946,0,0,1,.132-.294c.15-.198.18-.318.21-.888a2.188,2.188,0,0,1,.108-.57c.186-.426.21-.564.132-.75a.38372.38372,0,0,1-.024-.276.19155.19155,0,0,0-.006-.18.701.701,0,0,1-.054-.3,1.407,1.407,0,0,0-.078-.42.87763.87763,0,0,1-.018-.642c.036-.102,0-.192-.156-.39a1.8873,1.8873,0,0,0-.27-.3.809.809,0,0,1-.18-.24.90872.90872,0,0,0-.192-.264.75093.75093,0,0,0-.678.018.4698.4698,0,0,1-.342.048,2.01076,2.01076,0,0,0-.276-.066c-.066-.006-.252-.042-.414-.078a.93149.93149,0,0,0-.342-.024c-.102.06-.282-.096-.378-.342-.168-.414-.51-.774-.774-.81a1.98831,1.98831,0,0,1-.582-.114,3.10264,3.10264,0,0,0-.528-.066c-.252-.012-.582-.03-.732-.042A1.61181,1.61181,0,0,0,22.625.01831Zm-1.086,2.106a6.799,6.799,0,0,0,1.326.282c.186.024.792.036,1.548.03a1.24085,1.24085,0,0,1,.552.144,1.39577,1.39577,0,0,0,.39.15c.126,0,.408.282.36.36a.74016.74016,0,0,0,.084.342,2.953,2.953,0,0,1,.204,1.134c-.066.18-.336.264-.624.192a6.5001,6.5001,0,0,0-1.17-.126.80259.80259,0,0,1-.33-.084,2.4748,2.4748,0,0,0-.918-.282,2.3697,2.3697,0,0,1-.63-.198,1.63494,1.63494,0,0,0-.726-.168,1.9457,1.9457,0,0,1-.6-.09,3.99338,3.99338,0,0,0-1.05-.318,3.50665,3.50665,0,0,1-.648-.156c-.468-.156-.582-.294-.432-.522a.42326.42326,0,0,1,.138-.15,1.41747,1.41747,0,0,0,.732-.168,5.35739,5.35739,0,0,1,1.152-.396.28676.28676,0,0,0,.138-.042C21.089,2.00431,21.389,2.04631,21.539,2.12431Z"/>

</g>
</svg>
