<?xml version="1.0" encoding="UTF-8"?>
<svg xmlns="http://www.w3.org/2000/svg"
     version="1.1"
     width="31.99549503mm"
     height="57.64173316mm"
     viewBox="0.00000000 0.00000000 90.69592861 163.39385650">

<g transform="scale(4.67561906)">   <defs>
      <style type="text/css"><![CDATA[
      .a {
        stroke: #000;
        stroke-linecap: round;
        stroke-linejoin: round;
        stroke-width: 0.01px;
      }
    ]]></style>
   </defs>
   <path class="a"
         d="M17.40206.34419a10.856,10.856,0,0,1-.91459.91459c-.22411.19382-.2665.40581-.29073,1.41126a2.34835,2.34835,0,0,1-.15142.95094,2.43115,2.43115,0,0,0-.18171.99939.38938.38938,0,0,1-.103.25439c-.0848.08479-.11508.08479-.32707-.02423a1.0657,1.0657,0,0,1-.27256-.18171.19214.19214,0,0,0-.14537-.06057,1.03276,1.03276,0,0,1-.36341-.18171,1.60111,1.60111,0,0,0-.50878-.23622,2.38991,2.38991,0,0,1-.636-.2665.9891.9891,0,0,0-.46638-.18171,1.11991,1.11991,0,0,1-.46033-.13325,1.04254,1.04254,0,0,0-.70866-.12114,9.1161,9.1161,0,0,1-1.46577.01212,5.27438,5.27438,0,0,0-.75711.09691c-.33313.06057-.7026.12114-.81768.12719a1.70237,1.70237,0,0,0-.3937.09691,2.801,2.801,0,0,1-.96911.13931,1.28376,1.28376,0,0,0-.527.1272.5135.5135,0,0,1-.20594.09085,1.59459,1.59459,0,0,0-.6602.18777,6.164,6.164,0,0,1-1.5748.46032,1.91152,1.91152,0,0,0-.45426.23622c-.24834.15748-.37553.20593-.49667.18171A.20057.20057,0,0,0,3.35,5.27451a.98074.98074,0,0,1-.3089.18777,1.34115,1.34115,0,0,0-.40581.26044,5.93345,5.93345,0,0,1-1.40521.76317c-.04845,0-.14536.0848-.2241.18171a.54918.54918,0,0,1-.33919.212c-.28467.03634-.43.13325-.47244.321a1.70765,1.70765,0,0,1-.13325.33919c-.07265.15143-.07265.23021-.0121.51484.04239.18777.08479.3937.09691.46033A2.25511,2.25511,0,0,0,.897,9.99284c.11508.06057.321.16354.45427.23622a2.29,2.29,0,0,0,1.03573.3937.92059.92059,0,0,0,.32708-.04845,1.61926,1.61926,0,0,1,.47849-.03634,1.14071,1.14071,0,0,0,.61175-.109c.19382-.103.22411-.103.3937-.01817a1.77006,1.77006,0,0,0,.57541.11508c.34524.02423.59963.04846.73894.07269.07268.01211.18171.24833.20593.46032a2.10263,2.10263,0,0,0,.14537.46638.97931.97931,0,0,1,.09085.50273,1.15332,1.15332,0,0,0,.03634.43609.55055.55055,0,0,1,0,.38159,1.16831,1.16831,0,0,0-.01211.49061,1.26867,1.26867,0,0,1-.02423.56935.52176.52176,0,0,0-.03028.33313.20605.20605,0,0,1-.00606.18776,1.19336,1.19336,0,0,0,.06663.71472c.03634.07268.01211.18776-.07269.37553a1.05036,1.05036,0,0,0-.11508.315.934.934,0,0,1-.06057.25439.63388.63388,0,0,0,.03029.50878,1.16557,1.16557,0,0,1-.05451.91459,2.75,2.75,0,0,0-.18171.90854,2.19137,2.19137,0,0,1-.1272.68443.85826.85826,0,0,0-.03028.315.89692.89692,0,0,1-.16959.46638.67674.67674,0,0,0-.14537.39975c.03029.12114-.06663.35131-.30284.69655a.6272.6272,0,0,0-.11509.47244,1.61981,1.61981,0,0,1-.103.95093,2.01418,2.01418,0,0,0-.15748.55724c-.01817.18171-.04846.43-.06663.54512-.0848.56329.03029,1.175.24228,1.28407a3.8684,3.8684,0,0,1,.424.29678,1.64882,1.64882,0,0,0,.533.29679.47651.47651,0,0,1,.2665.15143.16063.16063,0,0,0,.13325.08479c.05452,0,.14537.00606.19383.00606a2.50932,2.50932,0,0,0,1.0115-.13325c.19988-.17565.59963-.34525.68443-.29073.1272.07874.16959.67837.07268,1.0115a5.132,5.132,0,0,0-.15142,1.33858.90956.90956,0,0,1-.07874.424.70849.70849,0,0,0-.14536.27256.47637.47637,0,0,1-.15748.26651.19178.19178,0,0,0-.0848.17565.40224.40224,0,0,1-.109.24833,1.16513,1.16513,0,0,0-.19382.38158c-.04239.15143-.11508.38765-.15748.533a1.54722,1.54722,0,0,0-.08479.37554,1.41756,1.41756,0,0,1-.1272.39975.86446.86446,0,0,0-.08479.44821,1.05982,1.05982,0,0,1,.03634.16959,1.9987,1.9987,0,0,0,.41187.67232c.13931.07874.18776.19988.2241.53906a.76971.76971,0,0,0,.12114.36342.32646.32646,0,0,1,.06663.29679.55457.55457,0,0,0,.07874.39975.8061.8061,0,0,1,.12113.27863.24811.24811,0,0,0,.103.15747.34334.34334,0,0,1,.109.218c.01817.45427.38158.84191.71471.75711a3.34489,3.34489,0,0,0,.89037-.82374,1.22624,1.22624,0,0,1,.27256-.3089c.24833-.23622.27862-.28467.2665-.50272a.79149.79149,0,0,1,.15143-.51484.6579.6579,0,0,0,.12719-.58752.91613.91613,0,0,1,.03028-.45427c.05452-.103.05452-.20593-.02422-.47244a2.205,2.205,0,0,1-.06663-.76317,2.57806,2.57806,0,0,0,.00606-.79345,2.20464,2.20464,0,0,0-.34525-.75106,2.72341,2.72341,0,0,1-.19382-.3513l-.16353-.32707.12113-.27256a1.42578,1.42578,0,0,0,.12114-.44822A1.03291,1.03291,0,0,1,9.734,27.249a2.2118,2.2118,0,0,0,.09085-.30284.5916.5916,0,0,1,.13325-.26045.19534.19534,0,0,0,.06057-.18777c-.0424-.109.03028-.26044.22411-.47243a3.10985,3.10985,0,0,0,.81162-1.19927,1.40152,1.40152,0,0,1,.01817-.4361c.03029-.16959.07269-.41793.0848-.55118a.60909.60909,0,0,1,.109-.30284,1.27094,1.27094,0,0,0,.3513-.71472.62189.62189,0,0,1,.0848-.315.80157.80157,0,0,0,.09085-.16959,1.82956,1.82956,0,0,1,.03635-.19382c.01817-.0848.04239-.21805.06057-.30285a.75706.75706,0,0,1,.1817-.29679.52911.52911,0,0,0,.15143-.3089,2.302,2.302,0,0,1,.12719-.50272,2.47064,2.47064,0,0,0,.14537-.51484.65807.65807,0,0,1,.09085-.25439.6263.6263,0,0,0,.09691-.27256,2.82352,2.82352,0,0,1,.32707-.90854,2.17368,2.17368,0,0,0,.19382-.745.64245.64245,0,0,1,.0848-.23622,2.73827,2.73827,0,0,0,.12114-.98122c.01211-.4361.03634-.91459.05451-1.066s.0424-.38159.06057-.51484c.01211-.13325.03634-.36342.05451-.51484a2.91065,2.91065,0,0,0,.02423-.424,5.77276,5.77276,0,0,1,.03634-.7874,3.73438,3.73438,0,0,0-.04845-1.36281,1.17046,1.17046,0,0,1-.02423-.62386c.05451-.23016.04845-.27861-.06057-.3937a2.65556,2.65556,0,0,1-.27256-.43609c-.13931-.27862-.14537-.321-.06663-.47244a.435.435,0,0,1,.13326-.1696c.02422,0,.24227-.01211.47849-.02422.24228-.01212.55118-.03635.68443-.06057.20594-.03634.29073-.01212.58752.15748a2.01445,2.01445,0,0,1,.36947.24227,1.80387,1.80387,0,0,0,.15143.19382c.12113.13326.16353.13931.46638.109.321-.03634.33919-.04846.47244-.3089a1.28636,1.28636,0,0,0,.12719-.51484,2.76908,2.76908,0,0,1,.03029-.49667.61344.61344,0,0,0-.05451-.4361,1.57885,1.57885,0,0,1-.11509-.50878,4.08426,4.08426,0,0,0-.09085-.5754.9302.9302,0,0,1-.04846-.33313c.01818-.0424-.02422-.13325-.09085-.20594a1.09991,1.09991,0,0,1-.19988-.745.42555.42555,0,0,1,.45427-.19988.25919.25919,0,0,0,.25439-.09691.24375.24375,0,0,1,.26045-.103c.16354.0424.34524-.15143.45427-.48456.03634-.11508.09691-.20593.12719-.20593s.05451-.03634.05451-.0848a.29129.29129,0,0,1,.07874-.16959,2.64141,2.64141,0,0,0,.218-.38159,1.82879,1.82879,0,0,1,.25439-.41187.8861.8861,0,0,0,.17565-.33918.72982.72982,0,0,1,.15143-.30891.26125.26125,0,0,0,.09085-.14536,1.20064,1.20064,0,0,1,.12114-.3089,1.21543,1.21543,0,0,0,.12114-.315,2.53551,2.53551,0,0,1,.18776-.49061,2.35358,2.35358,0,0,0,.2-.69031.77184.77184,0,0,1,.07874-.35736c.07874-.07874.03634-.44821-.07874-.62992a1.0845,1.0845,0,0,1-.11508-.3513c-.02422-.12114-.06663-.2241-.09086-.2241-.03028,0-.07268-.05452-.09085-.12114C18.94052.01711,18.886.005,18.32271.005h-.6178ZM8.559,6.03163c1.3083.04845,1.84736.12719,1.84736.27256a2.50674,2.50674,0,0,0,1.00545.14536,3.18081,3.18081,0,0,1,.71471.12114,1.806,1.806,0,0,0,.39976.09691.47025.47025,0,0,1,.26045.15748,1.75758,1.75758,0,0,0,.35736.28468.84476.84476,0,0,1,.3513.37552c.13325.27862.11508.43-.06663.48456a16.38347,16.38347,0,0,1-2.447.08479,1.63924,1.63924,0,0,0-1.07207.26651.89642.89642,0,0,1-.424.07268,4.11686,4.11686,0,0,0-.62992.07268.62139.62139,0,0,1-.3513.00606.50452.50452,0,0,0-.315.00606.68.68,0,0,1-.29679.02422,1.51533,1.51533,0,0,0-.45426.09692,2.18988,2.18988,0,0,1-.48456.12719.61085.61085,0,0,0-.29073.12114c-.13931.103-.23622.12114-.6178.09691A2.344,2.344,0,0,1,3.96178,7.93955a1.27343,1.27343,0,0,1,.03634-.87825.77643.77643,0,0,0,.24833-.40581c.0424-.1696.22411-.26045.45427-.23622a.36327.36327,0,0,0,.22411-.05451,3.74156,3.74156,0,0,1,1.14475-.1272.73827.73827,0,0,0,.29679-.06663,1.1984,1.1984,0,0,1,.34525-.08479,3.448,3.448,0,0,0,.424-.07269,1.255,1.255,0,0,1,.424-.03028C7.67467,5.99528,8.12893,6.01951,8.559,6.03163Zm2.62265,4.20349c.24227-.03634.29679.15748.09691.33919a1.59884,1.59884,0,0,0-.27256.48455,1.60513,1.60513,0,0,1-.61175.848.16923.16923,0,0,0-.109.13931,1.86335,1.86335,0,0,1-.43609.83585A.42614.42614,0,0,1,9.619,12.876c-.15142-.04845-.27256-.46032-.18776-.62386a3.89464,3.89464,0,0,0,.13325-.95093c-.01817-.59358.01212-.739.18777-.79346a.94859.94859,0,0,0,.321-.23622l.19988-.19382.43.07874c.24227.04843.45426.07871.47849.07871ZM9.89149,13.75419a.26532.26532,0,0,1-.12113.32707c-.103.03634-.27256-.11508-.27256-.23622s.17565-.27256.27256-.23622A.24563.24563,0,0,1,9.89149,13.75419Zm-.09085,1.32646a.95315.95315,0,0,1,.06663.28467c-.00606.06057-.01212.23622-.01212.38765a1.8568,1.8568,0,0,0,.03634.44215,1.11071,1.11071,0,0,1-.31495.79346c-.19988.07874-.35131-.3937-.19988-.62992.03634-.06057.01817-.12114-.06663-.19988-.09085-.0848-.109-.15748-.0848-.33313.01818-.12114.0424-.3089.04846-.40581a.877.877,0,0,1,.24228-.527C9.61288,14.83232,9.7219,14.905,9.80064,15.08065Zm-.218,2.344A.28456.28456,0,0,1,9.6795,17.57a1.12126,1.12126,0,0,1-.27861.50878c-.109.0424-.28468-.13931-.24228-.24833a.68912.68912,0,0,0,.03634-.19988c0-.11508.15142-.30285.24228-.30285a.28462.28462,0,0,1,.14536.09695ZM9.4615,18.46644a.94383.94383,0,0,1-.15142.62386c-.11508.07269-.27862-.04239-.34524-.24833-.06057-.16354-.04846-.19988.109-.36341.18168-.18775.3331-.19381.38761-.0121Zm-.19987.82374a1.40344,1.40344,0,0,1-.0848.7874.75818.75818,0,0,0-.0848.34524c.03634.14537-.109.30285-.23016.26045-.04846-.02423-.09085-.05451-.09691-.07874,0-.01817-.01817-.12114-.03028-.21805a1.3313,1.3313,0,0,1,.17565-1.08418c.16348-.15141.33913-.15746.35125-.0121Zm-.33919,1.5324a.278.278,0,0,1,.06663.28467c-.02423.103-.04846.26045-.06057.35131a.49744.49744,0,0,1-.12114.26044.35461.35461,0,0,0-.103.19988c-.00606.05451-.01211.18171-.01817.27256-.01211.14537-.11508.28468-.218.28468-.13931,0-.23016-.18171-.27256-.55724a1.0027,1.0027,0,0,0-.05451-.2241c-.02423-.03029.0424-.14537.13931-.24228a1.16667,1.16667,0,0,0,.24833-.424c.05451-.212.12114-.29073.25439-.30284.02416-.006.08473.03634.13924.09694Z"/>

</g>
</svg>
