<?xml version="1.0" encoding="UTF-8"?>
<svg xmlns="http://www.w3.org/2000/svg"
     version="1.1"
     width="23.42943047mm"
     height="17.75670382mm"
     viewBox="0.00000000 0.00000000 66.41413788 50.33397466">

<g transform="scale(5.40924245)">   <defs>
      <style type="text/css"><![CDATA[
      .a {
        stroke: #000;
        stroke-linecap: round;
        stroke-linejoin: round;
        stroke-width: 0.01px;
      }
    ]]></style>
   </defs>
   <path class="a"
         d="M11.16789.15642c-.12114.13931-.17566.15143-.61781.15143A2.04248,2.04248,0,0,0,9.74451.435,3.33937,3.33937,0,0,1,8.59976.73183a2.59435,2.59435,0,0,0-.69655.16959,1.72268,1.72268,0,0,1-.79951.1272,2.68773,2.68773,0,0,0-.636.04845A14.40686,14.40686,0,0,1,4.63854,1.174a1.29341,1.29341,0,0,1-.50273-.07268,2.205,2.205,0,0,0-.59357-.103A2.07546,2.07546,0,0,1,2.96077.90748a1.05052,1.05052,0,0,0-.3937-.06663c-.321,0-.47244.11508-.62992.4785-.06056.14537-.1393.26045-.16959.26045-.03634,0-.13931.11508-.24228.25439A7.01347,7.01347,0,0,1,.47138,2.96077L.005,3.40293v1.0539l.25439.14536a1.57147,1.57147,0,0,0,.90248.16354,3.41469,3.41469,0,0,0,.72077-.03634.46014.46014,0,0,1,.29073.0424c.19382.07874.23622.07874.37553,0a2.70692,2.70692,0,0,1,1.14476-.01817c.03028.02423.15142-.01817.27256-.09086a1.051,1.051,0,0,1,.44215-.12113,7.79988,7.79988,0,0,0,1.5324-.02423,1.08753,1.08753,0,0,1,.424-.09691c.04845,0,.321.01211.59963.02423.3513.01817.533.05451.57541.11508.29678.3937.50272.533.79345.533a.392.392,0,0,1,.41793.23622c.09085.18171.07268.28468-.0848.36948a.29568.29568,0,0,1-.2665-.00606.22017.22017,0,0,0-.33919.218,1.00572,1.00572,0,0,1-.45427.7874,2.67213,2.67213,0,0,0-.44821.321,1.79092,1.79092,0,0,1-.3089.22411.65122.65122,0,0,0-.20594.28467A2.39955,2.39955,0,0,1,5.5713,8.54524c-.35736.1696-.39976.20594-.40581.36947-.00606.25439.27862.43.62386.37553a1.5331,1.5331,0,0,0,1.00545-.6178c.08479-.20594.15142-.24833.6602-.49061a.37372.37372,0,0,0,.13325-.22411.565.565,0,0,1,.3089-.33918c.3513-.212.79346-.642.79952-.79346a.6202.6202,0,0,1,.218-.28467,2.08539,2.08539,0,0,0,.71472-.94488c.25439-.51484.64809-.98728.82374-.98728a1.28066,1.28066,0,0,0,.28467-.49061,1.76078,1.76078,0,0,1,.77529-.963.41409.41409,0,0,0,.14537-.321.846.846,0,0,1,.3089-.55724A1.52254,1.52254,0,0,0,12.20362.90748a.46946.46946,0,0,1-.01817-.38764.49673.49673,0,0,0,0-.37553C12.12488.01711,12.08248.005,11.713.005,11.34959.005,11.283.02317,11.16789.15642Z"/>

</g>
</svg>
