<?xml version="1.0" encoding="UTF-8"?>
<svg xmlns="http://www.w3.org/2000/svg"
     version="1.1"
     width="23.39274456mm"
     height="84.71570539mm"
     viewBox="0.00000000 0.00000000 66.31011910 240.13896185">

<g transform="scale(4.22440051)">   <defs>
      <style type="text/css"><![CDATA[
      .a {
        stroke: #000;
        stroke-linecap: round;
        stroke-linejoin: round;
        stroke-width: 0.01px;
      }
    ]]></style>
   </defs>
   <path class="a"
         d="M6.28089.03167a1.04675,1.04675,0,0,0-.28467.2302.68083.68083,0,0,1-.28468.2059c-.04845,0-.15142.09085-.23016.19382A2.50006,2.50006,0,0,1,5.2391.96444.44434.44434,0,0,0,5.124,1.237c-.01211.16353-.02423.3089-.0424.50878a.72184.72184,0,0,1-.16353.27256.60521.60521,0,0,0-.15143.3089.63879.63879,0,0,1-.1817.315,1.30013,1.30013,0,0,0-.27257.98122.2776.2776,0,0,1-.05451.25439c-.07268.07268-.09085.20594-.07874.62992A2.67134,2.67134,0,0,0,4.27,5.174a.92316.92316,0,0,1,.07268.36341c0,.22411,0,.29074-.00606.81769A8.6102,8.6102,0,0,0,4.4214,7.839a1.79458,1.79458,0,0,1,.09691.93882,7.3482,7.3482,0,0,0,.12114,1.01756,2.12306,2.12306,0,0,1,.04845.424,3.52471,3.52471,0,0,0,.14537.92065.35251.35251,0,0,1-.00606.26044,1.2097,1.2097,0,0,0-.02423.848c.07874.19382.07874.24228.00606.35736a.21944.21944,0,0,0-.01211.28467.45545.45545,0,0,1,.01817.3937,2.567,2.567,0,0,0,.0424,1.21138.26187.26187,0,0,1-.06057.18777.48857.48857,0,0,0-.03029.38158.9328.9328,0,0,1,.02423.315,1.83421,1.83421,0,0,0-.05451.321,1.03278,1.03278,0,0,1-.1272.43609,1.11214,1.11214,0,0,0-.09085.61175,3.28807,3.28807,0,0,0,.03028.48455.50678.50678,0,0,1-.05451.218.58519.58519,0,0,0-.05451.315.61371.61371,0,0,1-.05451.321.627.627,0,0,0-.03029.44821,1.09783,1.09783,0,0,1,.01817.38765c-.01817.07874-.00605.1393.02423.1393.109,0,.13931.24834.04846.38765a.22406.22406,0,0,0-.0424.218.193.193,0,0,1,0,.1817,1.74884,1.74884,0,0,0-.06057.49061c-.00606.212-.00606.44216-.01211.50878,0,.06663,0,.17565.00605.24228.00606.15748.00606.69049.00606.848a5.8788,5.8788,0,0,0,.0848.87825,2.47878,2.47878,0,0,1,.02422.81768,1.42467,1.42467,0,0,0,.06057.58752,1.63067,1.63067,0,0,1-.01817.92671,3.74245,3.74245,0,0,0-.04845.424,2.19654,2.19654,0,0,1-.0424.30285.31982.31982,0,0,0,.0424.18776,1.12012,1.12012,0,0,1-.0424.75106.23838.23838,0,0,0-.03029.18171.98665.98665,0,0,1-.14536.40581,1.37624,1.37624,0,0,0-.17565.533c0,.09691-.01817.33918-.0424.533-.03634.27861-.03029.36947.03634.40581a.63707.63707,0,0,1,.09691.37553c.04846.82374.07874,1.49.07874,1.65353,0,.75106,0,.98122-.00606,1.06-.00605.04846-.01817.37553-.03028.72683a11.55846,11.55846,0,0,1-.11508,1.39309,1.98529,1.98529,0,0,0,.02423.84191,4.91975,4.91975,0,0,1,0,1.066,1.62758,1.62758,0,0,0,.03634.30285A2.73159,2.73159,0,0,1,4.064,37.49981a6.59536,6.59536,0,0,0-.109,1.21744,5.33107,5.33107,0,0,1-.06057.6178.7637.7637,0,0,0,.01211.36342.22408.22408,0,0,1,0,.23016,3.85712,3.85712,0,0,0-.11508,1.08419.68967.68967,0,0,1-.09691.28467.38227.38227,0,0,0-.02423.40581.43758.43758,0,0,1,.01817.35736,1.68747,1.68747,0,0,0-.103.4785,3.10287,3.10287,0,0,1-.06655.39971,3.76178,3.76178,0,0,0-.05451.62387,2.98829,2.98829,0,0,1-.0848.68443.21651.21651,0,0,0,.00606.218c.04845.08479.03028.15142-.07269.29073a.44943.44943,0,0,0-.09691.41792.64528.64528,0,0,1-.09085.47244c-.11508.218-.11508.25439-.03028.41793.09691.19382.103.3089.07268,1.34463a3.54746,3.54746,0,0,0,.03028.79952c.0424.07268.02423.13325-.06057.212a1.43933,1.43933,0,0,0-.24833.957c-.02423.49667-.0424.854-.05451.93276,0,.03029-.103.11509-.218.18777a.95952.95952,0,0,0-.4361.66626,1.74258,1.74258,0,0,1-.2241.78135.345.345,0,0,0-.09691.19382,1.429,1.429,0,0,1-.13326.35736,1.07572,1.07572,0,0,0-.11508.32707.41913.41913,0,0,1-.07874.18777.48719.48719,0,0,0-.08479.24833A3.05641,3.05641,0,0,1,.86,54.25313a4.56046,4.56046,0,0,0-.81769,1.20533c-.07268.2665-.03634.49666.0848.56329a1.28556,1.28556,0,0,1,.18776.15142.93716.93716,0,0,0,.59964.14537.78847.78847,0,0,1,.27256.07874.55476.55476,0,0,0,.27862.06057c.06662-.01212.26044-.03634.424-.04846a1.50584,1.50584,0,0,0,.45427-.09691c.13325-.06057.19988-.0424.46638.0848.25439.13325.33919.14536.47244.09691a.51921.51921,0,0,1,.27862-.03029,6.94185,6.94185,0,0,0,1.175.09692,8.05016,8.05016,0,0,0,1.3628-.07269c0-.103.19382-.103.27862,0,.0848.09691.12114.103.315.03634a10.41043,10.41043,0,0,1,2.65293.07269,13.45528,13.45528,0,0,0,2.344.07874,1.201,1.201,0,0,1,.28468.03028c.11508.01817.39369.0424.6178.05451a1.81293,1.81293,0,0,1,.46638.06663c.13931.07874.59358-.20594.7026-.44216a2.10194,2.10194,0,0,1,.32708-.44821c.36341-.38158.41792-.45426.48455-.67837a.83468.83468,0,0,1,.15142-.321c.05451-.06057.17565-.20593.27862-.321s.27256-.30891.38159-.424a2.23357,2.23357,0,0,0,.26044-.36341,1.40582,1.40582,0,0,0-.0424-.854.92138.92138,0,0,1-.07874-.43c-.00605-.3089-.03634-.41187-.14536-.52089a.60429.60429,0,0,0-.16959-.13325,2.02679,2.02679,0,0,1-.33313-.17566,1.24274,1.24274,0,0,0-.82374-.19382,2.61642,2.61642,0,0,0-.69049.05451.533.533,0,0,1-.424-.03029,2.65637,2.65637,0,0,0-.62991-.11508,2.47816,2.47816,0,0,1-.636-.11508,1.30224,1.30224,0,0,0-.57541-.07268A3.01651,3.01651,0,0,1,9.915,51.08545a4.34879,4.34879,0,0,0-.60569-.1272,2.48306,2.48306,0,0,1-.79346-.19382.67358.67358,0,0,0-.2241-.05456c-.28467-.01212-.315-.2968-.07874-.77528a1.5626,1.5626,0,0,0,.15143-.66626,1.75112,1.75112,0,0,1,.08479-.51484.261.261,0,0,0,.0424-.19382,1.27606,1.27606,0,0,1,.20594-.46639,3.14473,3.14473,0,0,0,.48455-1.61113c-.03634-.05452,0-.19382.09085-.36342a.62665.62665,0,0,0,.09086-.3513.31539.31539,0,0,1,.01817-.23016,2.01564,2.01564,0,0,0,.08479-.49061c.01212-.18171.03635-.41793.05452-.51484a1.43083,1.43083,0,0,0,.03634-.26045.90139.90139,0,0,1,0-.1817c0-.05451.00606-.33313.01817-.61781a2.98446,2.98446,0,0,1,.0848-.67231c.03634-.09086.04845-.18171.03028-.19988a1.80951,1.80951,0,0,1-.07874-.60569.38647.38647,0,0,0-.09691-.19987.14949.14949,0,0,1-.04846-.15142,1.0439,1.0439,0,0,0,.05452-.34525,2.04745,2.04745,0,0,1,.06057-.44215.24083.24083,0,0,0-.05452-.26045.16263.16263,0,0,1-.03634-.218c.03634-.06057.09086-.11508.12114-.11508s.0424-.03634.02423-.0848c-.01817-.0424.01817-.12719.07268-.18776.09085-.09085.09691-.12114.02423-.23622a2.26159,2.26159,0,0,1-.103-1.25378l.03029-.46639-.212-.18777c-.16959-.15142-.20593-.218-.16959-.32706a1.37681,1.37681,0,0,0-.0848-.848.47985.47985,0,0,1,0-.41792,1.86888,1.86888,0,0,0,.13931-.62387c.01817-.09691.05451-.18776.0848-.19988.0424-.01211.0424-.0848.00606-.212a.59181.59181,0,0,1,.01817-.38158c.06057-.16354.04845-.20594-.06057-.315a.23681.23681,0,0,1-.09086-.23622,1.33662,1.33662,0,0,0-.07268-.79951.13981.13981,0,0,1,.04846-.13931c.07268-.06663.07268-.09691,0-.20594a1.00878,1.00878,0,0,1-.15143-.53906,4.71905,4.71905,0,0,0-.01211-.75711,3.40218,3.40218,0,0,0-.24833-1.06,1.39246,1.39246,0,0,1-.06663-.92671.49678.49678,0,0,0-.06057-.34525.42376.42376,0,0,1-.03634-.37552.53885.53885,0,0,0-.03634-.41793,3.84059,3.84059,0,0,1-.13931-1.35675,2.88563,2.88563,0,0,1,.02423-.3937,1.23052,1.23052,0,0,0-.02423-.40581.14683.14683,0,0,1,.02423-.18171.1719.1719,0,0,0,.06057-.15142.23885.23885,0,0,1,.03028-.17565.13909.13909,0,0,0-.01817-.18777.24069.24069,0,0,1-.04845-.218,2.74173,2.74173,0,0,0,.03028-.527,1.55886,1.55886,0,0,1,.06663-.51483.387.387,0,0,0,.06056-.15143c-.00605-.01817-.02422-.27256-.04239-.55723-.03029-.59964-.13931-.848-.41187-.963-.218-.09085-.315-.26045-.23622-.39976a.3481.3481,0,0,0,0-.24833,1.2786,1.2786,0,0,1-.06057-.30283c0-.19989-.0424-1.50819-.05451-1.67778a4.48509,4.48509,0,0,1,.04845-.48455.93792.93792,0,0,0-.03634-.56935c-.16959-.41793-.19988-.66625-.103-.82979a.2054.2054,0,0,0,.03029-.20594.21909.21909,0,0,1,.00605-.19381q.05454-.109,0-.109c-.11508,0-.19987-.45427-.19382-1.06.00606-.30284.00606-.24227-.01211-.99939a3.87311,3.87311,0,0,0-.06057-.70866.6748.6748,0,0,1,.03028-.34524.57721.57721,0,0,0,.00606-.41793.21615.21615,0,0,1,.00606-.26044c.06662-.09086.06662-.13326-.02423-.27862a1.05458,1.05458,0,0,1,0-.83586.26147.26147,0,0,0-.02417-.28472.31078.31078,0,0,1-.02422-.29679c.04845-.109.04239-.16354-.03635-.23622a.232.232,0,0,1-.06662-.212.61659.61659,0,0,0-.0848-.34524c-.11508-.23622-.09085-.39976.07268-.51484.03635-.02423.02423-.07874-.04239-.13931a.9148.9148,0,0,1,.01211-.77528c.0424-.04846.04845-.103.02423-.1272a.87985.87985,0,0,1-.05452-.32707c-.02422-.49061-.09085-.86008-.14536-.8298-.12114.07874-.27256-.18776-.25439-.45427a3.21874,3.21874,0,0,0-.00606-.64809.94928.94928,0,0,0-.06057-.3089c-.01817-.03028.00606-.109.04846-.16959a.18873.18873,0,0,0,.03028-.212c-.02423-.05451-.03028-.11508-.00605-.1393a20.76,20.76,0,0,0,.07874-2.13809,2.08053,2.08053,0,0,1,.08479-.56935.45909.45909,0,0,0,.03634-.34525.2783.2783,0,0,1,.03029-.26041,1.57164,1.57164,0,0,0,.09085-.73895c0-.05451,0-.16353.00606-.24227.00606-.07269,0-.29679,0-.49667a5.02674,5.02674,0,0,1,.00606-.54511,2.3396,2.3396,0,0,0-.109-.75712C7.19548.807,7.1652.65553,7.147.55257A.65359.65359,0,0,0,6.58374.00745,1.02327,1.02327,0,0,0,6.28089.03167Zm.14537,27.6074a.38731.38731,0,0,1,.103.13325c0,.02423.01817.109.03029.19382.01817.0848.03634.35736.05451.60569.03634.61781.05451.739.13325.88431a.2137.2137,0,0,1,.01817.20594.20121.20121,0,0,0,.00606.19382,3.23994,3.23994,0,0,1,.03028,1.45971,2.2556,2.2556,0,0,0-.04845,1.13869c.03634.09086.04845.18171.03028.19988s0,.11508.0424.218a.36718.36718,0,0,1,.00606.34524c-.05451.12114-.05451.1696,0,.20594a.38039.38039,0,0,1,.09085.24227c.01212.11509.03634.35737.05451.53907s.0424.36947.0424.40582c.00606.0424.02423.07874.04846.07874.07874,0,.16959.28467.12114.36341a1.10534,1.10534,0,0,0,.06057.7874.38178.38178,0,0,1,.06056.3089.578.578,0,0,0,.07874.54512.85822.85822,0,0,1,.103.3937,5.44611,5.44611,0,0,0,.09684.96308,3.67872,3.67872,0,0,1-.04845,1.33857c-.07874.212-.07874.26651-.00606.36341a.30873.30873,0,0,1,.04846.23623c-.01817.06663-.04846.16959-.06057.23015a.91475.91475,0,0,1-.06057.16961.497.497,0,0,0,0,.27256c.02423.15142.06057.20593.12114.1817a.20906.20906,0,0,1,.1817.06057c.07269.07269.07874.12114.02423.22411a3.08068,3.08068,0,0,0-.13325,1.14475,2.54536,2.54536,0,0,1-.05451.50878c-.02423.01818-.00606.07874.04239.1272a.14443.14443,0,0,1,.03635.18776.65537.65537,0,0,0-.05452.25439,1.55309,1.55309,0,0,1-.06056.36948.57537.57537,0,0,0,.01817.39369A1.98858,1.98858,0,0,1,7.68,45.21619c-.03635.25439-.07269.57541-.09086.70866a2.1937,2.1937,0,0,1-.0424.30285.38713.38713,0,0,0,.06057.20592c.09086.15748.03029.527-.1817,1.10236a.68428.68428,0,0,0-.05452.35737,2.80382,2.80382,0,0,1-.58752,1.20531c-.12113.13325-.18776.25439-.16353.321a.44606.44606,0,0,1-.05452.27256.45427.45427,0,0,0-.06056.24833.41339.41339,0,0,1-.22411.46638c-.103.05452-.18171.07874-.18171.06057s-.05451-.00605-.11508.03029a.1542.1542,0,0,1-.19988-.01817.72678.72678,0,0,0-.38158-.07269,1.25529,1.25529,0,0,1-.46638-.07268,1.3382,1.3382,0,0,0-.38765-.103.56515.56515,0,0,1-.3089-.13325,1.07793,1.07793,0,0,1,.09691-.86008c.07874-.11508.103-.19988.06057-.2665a.21688.21688,0,0,1,.1272-.321c.08479-.02423.103-.09085.09691-.28467a.70241.70241,0,0,1,.12719-.46033.49623.49623,0,0,0,.11508-.29073.18149.18149,0,0,1,.05452-.16959c.04845-.0424.07268-.09692.05451-.11509a1.54327,1.54327,0,0,1-.09691-.58752,2.02525,2.02525,0,0,1,.2241-.9691c.109-.212.1272-.30285.07874-.38764a.447.447,0,0,1,.00606-.34525c.06057-.20593.05451-.24833-.05451-.35736-.06663-.06662-.109-.15748-.0848-.19382a1.16186,1.16186,0,0,0,.06663-.34525c.006-.15142.01817-.33313.02422-.39976a2.08506,2.08506,0,0,0-.09085-.47244,1.96323,1.96323,0,0,1-.0848-.39368.47018.47018,0,0,0-.03028-.17566.52227.52227,0,0,1,.0424-.34525.45147.45147,0,0,0-.00606-.45426.50592.50592,0,0,1,.00606-.51484c.07268-.19382.09085-.30284.04845-.38159a.2052.2052,0,0,1-.00605-.212c.03028-.06057.04239-.109.02422-.109s.00606-.07874.05452-.16959c.09085-.16959.103-.29073.09691-.90854a1.24945,1.24945,0,0,1,.05451-.41792.29283.29283,0,0,0-.00606-.23622.23462.23462,0,0,1,0-.23622.61591.61591,0,0,0-.01817-.38764c-.0848-.32708-.07268-.49061.04846-.58147.06662-.04845.08479-.218.08479-.72683a3.01311,3.01311,0,0,1,.109-.98727.75079.75079,0,0,0,.0424-.53907.39444.39444,0,0,1,.00605-.34525,1.21883,1.21883,0,0,0,.07874-.39976,4.68465,4.68465,0,0,1,.07269-.60569,2.091,2.091,0,0,0-.00606-.95093.20883.20883,0,0,1,.01211-.18777c.0424-.07874.0424-.13325,0-.17565a.6076.6076,0,0,1-.01817-.55118c.05451-.07874.05451-.12719-.00606-.2241a1.73019,1.73019,0,0,1-.06662-.67232c.00606-.44215.03028-.56935.11508-.6602A.19838.19838,0,0,0,5.76,30.5161a2.90112,2.90112,0,0,1-.03635-.642c.00606-.30285.01212-.59963.01212-.66626s0-.212.00606-.32707a1.09721,1.09721,0,0,1,.09085-.38765,1.03524,1.03524,0,0,0,.109-.36947c.01212-.103.02423-.2241.03029-.2665.00605-.09086.2241-.315.30284-.315A.2951.2951,0,0,1,6.42626,27.63907Z"/>

</g>
</svg>
