<?xml version="1.0" encoding="UTF-8"?>
<svg xmlns="http://www.w3.org/2000/svg"
     version="1.1"
     width="22.06843451mm"
     height="46.42034987mm"
     viewBox="0.00000000 0.00000000 62.55620545 131.58525556">

<g transform="scale(4.17096983)">   <defs>
      <style type="text/css"><![CDATA[
      .a {
        stroke: #000;
        stroke-linecap: round;
        stroke-linejoin: round;
        stroke-width: 0.01px;
      }
    ]]></style>
   </defs>
   <path class="a"
         d="M10.37443.19994c-.16959.13326-.29679.18171-.38159.16354-.09691-.02423-.18776.03029-.35735.218-.23017.24833-.23622.25439-.4361.17565a.82108.82108,0,0,0-.99333.3089,1.63874,1.63874,0,0,1-.46639.33919,4.3582,4.3582,0,0,0-1.07813.58146,2.91429,2.91429,0,0,1-.56329.33313c-.15142.06663-.27862.15143-.27862.19382A2.153,2.153,0,0,1,5.1352,3.192a.98131.98131,0,0,0-.315.23622c-.13325.13325-.41187.39975-.6178.59357-.212.19383-.41187.38765-.45427.43-.0424.04846-.15142.15748-.23622.24228a.87414.87414,0,0,0-.19382.321c-.02423.103-.17565.23622-.4785.43a3.9862,3.9862,0,0,0-.66626.527.72385.72385,0,0,1-.46633.28482c-.20593.03029-.30284.09691-.51484.3513a2.39129,2.39129,0,0,0-.59358,1.0903A2.31823,2.31823,0,0,1,.435,8.189a.96791.96791,0,0,0-.09691.24227.51356.51356,0,0,1-.218.3937C.02923,8.87345.005,8.95824.005,9.18845c0,.3513.05451.3937.6178.48455.212.03634.44822.07874.533.09691a3.42654,3.42654,0,0,0,.51484.06057c.19988.01211.46638.03634.59358.05451a.51174.51174,0,0,0,.37553-.06662A.84975.84975,0,0,1,3.094,9.72745a6.055,6.055,0,0,0,1.54452-.103A6.23409,6.23409,0,0,0,5.8378,9.02486c.103-.16353.27257-.20593.55118-.13325.22411.05451.29073.04846.41793-.03634a.521.521,0,0,1,.2665-.0848,1.29969,1.29969,0,0,0,.66626-.16959c.26045-.1696.5209.12114.34525.3937a.45668.45668,0,0,0-.06663.30284c.0424.212-.03028.33919-.28467.49061a2.2191,2.2191,0,0,0-.4361.43,1.08047,1.08047,0,0,1-.35736.33919,1.67029,1.67029,0,0,0-.3513.24228.82738.82738,0,0,1-.30286.20595,1.59145,1.59145,0,0,0-.61175.58147,1.86152,1.86152,0,0,1-.3089.41792c-.16354.17565-.26045.33313-.24228.38159.03634.09691-.09085.321-.321.5754-.13931.14537-.15142.18777-.09085.34525a.57969.57969,0,0,1,.03634.29073,2.58626,2.58626,0,0,0,.527,1.0115c.09086.0848.24228.11508.58752.1272.44216.01211.4785.00606.67232-.16354.13931-.12114.24228-.16959.3089-.13931a1.37028,1.37028,0,0,0,.68443.1696c.07269-.01817.19988-.04846.27256-.06663.18777-.0424.47244.24228.38765.3937a.219.219,0,0,0-.00606.19382c.06057.103-.05451.33919-.27256.53907a1.52141,1.52141,0,0,0-.3937.69654.60808.60808,0,0,1-.13931.26045,4.46424,4.46424,0,0,0-.33919.51483,1.88526,1.88526,0,0,1-.23622.36342,9.65083,9.65083,0,0,0-.6178,1.25378,1.67212,1.67212,0,0,1-.27862.3513,2.851,2.851,0,0,0-.36341.45427.64361.64361,0,0,1-.20594.23016c-.06663.03634-.12114.09691-.12114.13931a3.338,3.338,0,0,1-.72683.98728,1.61148,1.61148,0,0,0-.24833.23622,7.85119,7.85119,0,0,1-.527.67837,2.555,2.555,0,0,0-.29073.46033,2.61717,2.61717,0,0,1-.33919.49666,2.76335,2.76335,0,0,0-.3089.3937,1.82376,1.82376,0,0,1-.38764.3937,1.68611,1.68611,0,0,0-.38765.41793,3.243,3.243,0,0,1-.321.424,2.84266,2.84266,0,0,0-.315.46638.91808.91808,0,0,1-.22411.315c-.08479.03029-.08479.07874-.04845.50878.01211.12114.321.09086.46638-.04845a.72729.72729,0,0,1,.212-.13931,1.76774,1.76774,0,0,0,.957-.90248,1.397,1.397,0,0,1,.29073-.38764.50421.50421,0,0,0,.1696-.19382,3.953,3.953,0,0,1,.48455-.57541,4.30608,4.30608,0,0,0,.49667-.60569,2.11354,2.11354,0,0,1,.315-.40582,2.16581,2.16581,0,0,0,.64809-.89642,1.60906,1.60906,0,0,1,.3089-.3513c.15748-.15142.41187-.38764.55723-.527a3.16453,3.16453,0,0,0,.41187-.4785c.07874-.12113.16354-.2241.19988-.2241a1.35127,1.35127,0,0,0,.315-.28468c.14537-.15748.38159-.39975.527-.53906a1.02677,1.02677,0,0,0,.28468-.36342.45919.45919,0,0,1,.16959-.2241,1.9894,1.9894,0,0,0,.36947-.46638c.23622-.38765.33313-.45427.48456-.33919.08479.06057.103.19382.11508.73289a1.99687,1.99687,0,0,0,.12113.87219,1.47856,1.47856,0,0,1,.12114.57541,1.45308,1.45308,0,0,0,.07874.48455.46615.46615,0,0,1,.00606.33313,1.454,1.454,0,0,0-.01817.52089,16.90988,16.90988,0,0,1,.09691,1.68988.91289.91289,0,0,0,.05451.33919.22142.22142,0,0,1-.03634.23622.30474.30474,0,0,0-.06663.212.26087.26087,0,0,1-.05451.20594.22652.22652,0,0,0-.01817.27256.279.279,0,0,1-.01211.29073,6.02715,6.02715,0,0,0-.109,1.61114,2.398,2.398,0,0,1-.06662.38158.91386.91386,0,0,0-.03029.57541,1.45869,1.45869,0,0,1,.03029.30284c0,.06663-.01212.41793-.01817.7874a3.65821,3.65821,0,0,1-.06057.73894A3.22232,3.22232,0,0,0,8.727,29.9212a1.42068,1.42068,0,0,1-.06663.43c-.06056.17565-.05451.23017.06663.44216.11508.212.18171.26044.55118.38158a1.08652,1.08652,0,0,1,.48455.24834c.09691.19382.3937.14536.642-.09691a1.32224,1.32224,0,0,1,.46033-.27862,2.10612,2.10612,0,0,0,.56935-.315c.18171-.13931.41793-.315.52089-.3937a.99368.99368,0,0,0,.24228-.23016,3.25009,3.25009,0,0,1,.527-.41793,2.028,2.028,0,0,0,.71472-.745,2.51843,2.51843,0,0,1,.44821-.56329,2.32339,2.32339,0,0,0,.86614-1.61114c.02422-.424-.218-.52695-.8722-.36342-.218.06057-.54512-.16959-.67837-.47243a3.2305,3.2305,0,0,1-.03634-1.51423,3.39072,3.39072,0,0,0,.1393-.848c.02423-.32707.03635-1.25984.02423-1.5748a1.45876,1.45876,0,0,1,.03029-.30284,1.15834,1.15834,0,0,0,.03028-.30285c-.00606-.06662-.00606-.17565-.00606-.24227a2.43561,2.43561,0,0,0-.02422-.93883,1.68542,1.68542,0,0,1-.0424-.51483,8.96044,8.96044,0,0,0-.00606-1.72016.86223.86223,0,0,1,.0424-.49667,4.08835,4.08835,0,0,0,.16354-1.07206,3.24323,3.24323,0,0,1,.06662-.89643c.02423-.01817.01212-.11508-.01211-.212a.53848.53848,0,0,1,.00606-.33919.49558.49558,0,0,0-.03029-.38764c-.04845-.12114-.07874-.23623-.06057-.25439a4.918,4.918,0,0,0,.04846-.72077,2.99145,2.99145,0,0,1,.09691-.83585,2.86975,2.86975,0,0,1,.39975-.47244c.36342-.3513.65415-.77529.59964-.86008-.06663-.109.03634-.29074.23016-.41793.109-.06663.15748-.1272.11508-.1272s-.13325-.12113-.19382-.2665l-.12114-.2665-.40581.09085a1.05219,1.05219,0,0,1-.62992.01211,2.95452,2.95452,0,0,0-1.35069.09691,1.39629,1.39629,0,0,1-.636.06663c-.84191-.103-.848-.103-.90853.01817a1.54176,1.54176,0,0,1-.36947.3089c-.26651.1696-.33313.18777-.45427.13325a.44467.44467,0,0,1-.28468-.52695.38826.38826,0,0,1,.18777-.1817c.16353-.04846.50272-.38765.45427-.46033-.04846-.0848.56935-.64809.79951-.72077.11508-.0424.20593-.09691.20593-.13325a2.08092,2.08092,0,0,1,.76317-.69049,2.42226,2.42226,0,0,0,.8722-.53907c.04845-.06662.16354-.19987.25439-.29678.17565-.1696.36341-.54513.3089-.59964a.27.27,0,0,1,.0424-.16354.99113.99113,0,0,0,.09085-.32707,5.83975,5.83975,0,0,1,.15748-.642,4.222,4.222,0,0,0,.14537-.636.41154.41154,0,0,1,.109-.24227.476.476,0,0,0,.13326-.46639c-.06057-.23016-.36342-.36341-.96911-.41792-.29679-.03029-.56935-.05451-.60569-.06057a3.48083,3.48083,0,0,0-.38159.06057c-.315.06662-.55723.01817-.55723-.109a1.36373,1.36373,0,0,0-.68443-.27256.64327.64327,0,0,1-.30285-.06662.95346.95346,0,0,0-.2665-.07874,1.06282,1.06282,0,0,1-.62386-.24834c-.0424-.09085-.01818-.16353.11508-.3513A1.91431,1.91431,0,0,0,10.12,2.34409a.98634.98634,0,0,1,.25439-.49667,7.12339,7.12339,0,0,0,.67232-.68443c.4967-.53906.56329-.79954.26654-1.01154A.735.735,0,0,0,10.37443.19994Z"/>

</g>
</svg>
