<?xml version="1.0" encoding="UTF-8"?>
<svg xmlns="http://www.w3.org/2000/svg"
     version="1.1"
     width="9.21687311mm"
     height="43.08831352mm"
     viewBox="0.00000000 0.00000000 26.12665107 122.14006224">

<g transform="scale(4.43078426)">   <defs>
      <style type="text/css"><![CDATA[
      .a {
        stroke: #000;
        stroke-linecap: round;
        stroke-linejoin: round;
        stroke-width: 0.01px;
      }
    ]]></style>
   </defs>
   <path class="a"
         d="M4.02188.13529a3.68669,3.68669,0,0,1-.33919.24833,2.12317,2.12317,0,0,0-.40581.424,5.82154,5.82154,0,0,1-.37553.46032.62922.62922,0,0,0-.15147.24227,3.20152,3.20152,0,0,1-.26045.854.33588.33588,0,0,0-.08479.218.99239.99239,0,0,1-.109.32708,2.51333,2.51333,0,0,0-.12114.87825,2.3053,2.3053,0,0,0,.1272.69654c.0424.08479.0424.13325-.01212.18171-.36947.3089-.36947.3089-.38764.69654a1.62241,1.62241,0,0,1-.109.47244.47929.47929,0,0,0-.06057.29073c.01817.03029-.00606.12114-.05451.19383a2.44255,2.44255,0,0,0-.218.98122,3.4726,3.4726,0,0,1-.14537.66626,2.85285,2.85285,0,0,0-.12114.47243,1.16433,1.16433,0,0,1-.12114.36341,4.7258,4.7258,0,0,0-.20593,1.43549,1.71292,1.71292,0,0,1-.16959.7874,2.67928,2.67928,0,0,0-.16354.957.68974.68974,0,0,1-.04846.315.78284.78284,0,0,0-.03028.54512A4.83838,4.83838,0,0,1,.515,13.521a7.34794,7.34794,0,0,0,.09085.86615,1.17448,1.17448,0,0,1,.02423.44215,2.3443,2.3443,0,0,0-.06663.49667c-.01817.33312-.01817.62991-.01817,1.66564.00606.06663-.01211.4361-.03028.81768-.02423.38159-.03634.76318-.03634.848.01817.77529.04845,1.49606.06662,1.54451A.50955.50955,0,0,1,.515,20.432a.55024.55024,0,0,0,.01817.315.47938.47938,0,0,1-.01817.40581c-.212.67232-.218.70866-.15142.84191a.41944.41944,0,0,1-.218.533c-.14537.06662-.15143.08479-.13325.56329l.01817.50272H.23023c.27257,0,.38159.15748.37553.54513a4.28309,4.28309,0,0,0,.46033,2.10174.65584.65584,0,0,1,.08479.25439.49251.49251,0,0,0,.15748.23622.6691.6691,0,0,1,.1696.23622,1.179,1.179,0,0,0,.33313.51484.64732.64732,0,0,0,.32707.07874.85984.85984,0,0,0,.73894-.54512c.06057-.13325.1272-.24228.15143-.24228s.07874-.11508.12114-.26045c.04845-.1393.109-.3089.1393-.37552.06057-.12114.07269-.19383.1272-.89643a.93169.93169,0,0,0-.04846-.54512c-.08479-.13325-.08479-.23016,0-1.07207a3.55112,3.55112,0,0,0,.03029-.61781.6301.6301,0,0,1,.0424-.27256,1.18389,1.18389,0,0,0,.01817-.44215,1.20607,1.20607,0,0,1,.01211-.46037.47764.47764,0,0,0-.0424-.3513.54083.54083,0,0,1-.06662-.27862.38321.38321,0,0,0-.03634-.2241,1.765,1.765,0,0,1-.0848-.38159,1.81822,1.81822,0,0,0-.09085-.38764.33279.33279,0,0,1,.02422-.32707,1.80815,1.80815,0,0,0,.24834-.957,2.09249,2.09249,0,0,1,.09691-1.05391,2.75241,2.75241,0,0,0,.05451-.66626c-.01817-.35735-.01817-1.593,0-2.42276a1.4228,1.4228,0,0,1,.12719-.7026.39522.39522,0,0,0,.06057-.36947.39361.39361,0,0,1,0-.26651.33238.33238,0,0,0,.01817-.20593.92775.92775,0,0,1,.05452-.36947,3.66336,3.66336,0,0,0,.103-.93883c.00606-.38158.02423-.78739.03634-.90247.01818-.11509.03635-.37553.04846-.57541A2.1856,2.1856,0,0,1,4.137,9.87478,5.19563,5.19563,0,0,0,4.47617,8.621a4.17912,4.17912,0,0,1,.12114-.5754,3.80818,3.80818,0,0,0,.03634-.71472,2.782,2.782,0,0,1,.16353-1.1811,5.92242,5.92242,0,0,0,.22411-1.31435.73971.73971,0,0,1,.18776-.3089.60453.60453,0,0,0,.18171-.4361A1.17371,1.17371,0,0,1,5.53613,3.618a1.78173,1.78173,0,0,0,.18775-.55721c.0424-.35736.06663-.52695.13931-1.06A2.73275,2.73275,0,0,0,5.76625.78944,1.56185,1.56185,0,0,0,4.50641.02021.55137.55137,0,0,0,4.02188.13529Z"/>

</g>
</svg>
