<?xml version="1.0" encoding="UTF-8"?>
<svg xmlns="http://www.w3.org/2000/svg"
     version="1.1"
     width="17.25337857mm"
     height="49.98058266mm"
     viewBox="0.00000000 0.00000000 48.90720236 141.67720073">

<g transform="scale(5.65979595)">   <defs>
      <style type="text/css"><![CDATA[
      .a {
        stroke: #000;
        stroke-miterlimit: 10;
        stroke-width: 0.15px;
      }
    ]]></style>
   </defs>
   <path class="a"
         d="M3.96216.5431c-.16641.2822.00867.44543-.125.875a1.87189,1.87189,0,0,1-.625.84375c-.45508.4174-.35379.52544-1.40625,2.15625C.7,6.13168.658,5.90434.43091,6.48061c-.37045.94024-.5773,2.35485.02191,2.77161a1.01541,1.01541,0,0,0,1.04059.00963.86063.86063,0,0,0,.3125-.40624C2.17624,7.98,4.18939,6.99844,6.54883,5.42022c.87668-.58641,1.20395-.85571,1.25708-1.28337.08884-.71506-.65283-1.35725-1-1.625a2.14238,2.14238,0,0,1-.75-1.21875c-.05777-.3269-.016-.66952-.27408-.93387a.91516.91516,0,0,0-.43356-.2344A1.28823,1.28823,0,0,0,3.96216.5431Z"/>
   <path class="a"
         d="M6.40824,16.4219c.0427,3.00044.04438,4.49313-.391,5.66-.272.729-.67,1.572-.252,2.229a1.635,1.635,0,0,0,1.278.638,1.192,1.192,0,0,0,.857-.187,1.302,1.302,0,0,0,.383-.762,6.66983,6.66983,0,0,0,.222-2.8789c-.22034-1.45868-.05963-2.95179-.18418-4.42165a97.9171,97.9171,0,0,1-.31249-10.5625,18.15331,18.15331,0,0,1,.18749-2.5.70828.70828,0,0,0,.06251-.59375c-.09406-.16969-.2591-.13214-.46875-.31249-.29715-.25566-.16669-.50408-.40625-.68751-.22333-.171-.53312-.10544-1.03125,0a1.44813,1.44813,0,0,0-.75.31251,1.172,1.172,0,0,0-.3125.5c-.35254,1.028.19491,4.2181.3125,4.96874.03143.20064-.02115-.11328.21874,2.46875C6.32664,15.73452,6.39265,15.32565,6.40824,16.4219Z"/>

</g>
</svg>
