<?xml version="1.0" encoding="UTF-8"?>
<svg xmlns="http://www.w3.org/2000/svg"
     version="1.1"
     width="75.57055264mm"
     height="41.32731240mm"
     viewBox="0.00000000 0.00000000 214.21570470 117.14828392">

<g transform="scale(10.11793495)">   <defs>
      <style type="text/css"><![CDATA[
      .a {
        stroke: #000;
        stroke-miterlimit: 10;
        stroke-width: 0.15px;
      }
    ]]></style>
   </defs>
   <path class="a"
         d="M6.87567,6.89016a1.42416,1.42416,0,0,0,.875-.16667A2.235,2.235,0,0,1,8.084,6.45266,2.184,2.184,0,0,1,8.62567,6.286a2.8158,2.8158,0,0,0,.55982-.21863c.34491-.189.36361-.35778.6732-.58282a2.21906,2.21906,0,0,1,.72518-.31776c1.02754-.31762,1.30811-.30563,1.83347-.485.87446-.29848.70711-.53989,1.52083-.79167a2.52658,2.52658,0,0,1,1.91667.04167c.26033.14148.64377.4408.59173.68984a.61644.61644,0,0,1-.22869.28971,1.16327,1.16327,0,0,1-.363.20795,6.311,6.311,0,0,0-1.35417,1.125,3.88446,3.88446,0,0,1-1.625.97916c-.65926.16277-.82791-.07042-1.60417.04167A6.22511,6.22511,0,0,0,9.62567,7.911,29.94218,29.94218,0,0,0,6.834,8.99433a7.12733,7.12733,0,0,1-1.39583.625c-.26247.11833-.50122.22646-.70833.125-.09873-.04836-.19514-.14673-.35417-.66667-.18421-.60229-.27632-.90343-.20833-1.08333.1087-.28764.55858-.44176,1.45833-.75A5.48092,5.48092,0,0,1,6.87567,6.89016Z"/>
   <path class="a"
         d="M3.87567,7.536a1.50382,1.50382,0,0,0-.375.6875,2.44027,2.44027,0,0,0,.0625.72917c.08452.52811.14337.55577.16667.5625.15493.04475.24849-.39954.625-.54167.32011-.12084.65716.04754,1.14583.29167a1.94953,1.94953,0,0,1,.8125.58333c.02733.03753.46075.64755.24482,1.08124-.14778.29681-.54068.39251-1.26565.46043-1.6304.15275-3.01652.28261-4.20833-.54167a2.225,2.225,0,0,1-.79167-.875A1.57439,1.57439,0,0,1,.14651,8.76516c.05589-.14351.15656-.3232.96191-.90381.42959-.30971.75124-.51173.95253-.64052a14.79373,14.79373,0,0,0,1.62767-1.125c.89947-.76,1.06381-1.26477,1.58817-1.2652a4.09893,4.09893,0,0,0,.78638.01786c.34945-.03805.463-.11553.54167-.04166.15077.14153-.142.49206-.27084,1.22916-.10482.59978.00269.86166-.16666.95834-.25285.14436-.55037-.40647-1.10417-.375C4.59984,6.64566,4.261,7.06231,3.87567,7.536Z"/>
   <path class="a"
         d="M15.04077,4.67512c-.455.15358-1.75983.646-1.77685.44157a1.02015,1.02015,0,0,1,.30647-.74111c.18494-.20365.41181-.3647.60651-.559.36541-.36471.60664-.8348.9427-1.22673A6.515,6.515,0,0,1,16.55,1.44823L17.95185.53085A2.385,2.385,0,0,1,20.37567.32766c.93.63911.84362,2.47471.39583,3.41667-.02572.05411-.24631.44579-.6875,1.22916a5.014,5.014,0,0,1-.4375.68751,7.51038,7.51038,0,0,1-3.3426,1.96233,5.514,5.514,0,0,1-1.57884.45191c-.25216.00649-.92428-.013-1.03689-.31009-.04981-.13143.069-.22055.04167-.58332-.01994-.26479-.09187-.33221-.10417-.52083-.00813-.1248.00985-.30272.3125-.79167.40113-.648.61346-.99107.89583-.97917.10022.00422.24042.12087.52084.35417.39678.33011.47.4718.6875.5a.66863.66863,0,0,0,.45833-.125c.25051-.19635.11782-.44813.33333-.66667.26579-.26951.64408-.06551.80028-.31493a.43938.43938,0,0,0-.10428-.556c-.10722-.05237-.24459.02745-.30016.05843a5.52915,5.52915,0,0,1-2.04484.49152A1.25389,1.25389,0,0,0,15.04077,4.67512Z"/>

</g>
</svg>
