<?xml version="1.0" encoding="UTF-8"?>
<svg xmlns="http://www.w3.org/2000/svg"
     version="1.1"
     width="24.00353877mm"
     height="14.59313090mm"
     viewBox="0.00000000 0.00000000 68.04152069 41.36639450">

<g transform="scale(5.18422646)">   <defs>
      <style type="text/css"><![CDATA[
      .a {
        stroke: #000;
        stroke-linecap: round;
        stroke-linejoin: round;
        stroke-width: 0.01px;
      }
    ]]></style>
   </defs>
   <path class="a"
         d="M4.81923.05146a1.27711,1.27711,0,0,0-.69657.3513A1.38924,1.38924,0,0,1,3.6381.63292a.78188.78188,0,0,0-.41187.212A5.03973,5.03973,0,0,1,2.136,1.85036a1.19792,1.19792,0,0,0-.69654.4361.91576.91576,0,0,1-.30285.3089.91585.91585,0,0,0-.30285.3089C.77927,3.00117.71266,3.086.68236,3.086c-.03634.00606-.08479.01211-.11508.01817a1.15838,1.15838,0,0,0-.36947.58752A.85492.85492,0,0,1,.107,3.98848c-.103.20593-.109.27256-.06663.957a2.126,2.126,0,0,1-.01817.61175.91647.91647,0,0,0,.1575.71467,2.25353,2.25353,0,0,0,1.00545.47244.57293.57293,0,0,1,.25439.09086c.06662.05451.1393.05451.27256.01211a.569.569,0,0,1,.37553-.00606,2.83575,2.83575,0,0,0,.315.0848.50519.50519,0,0,1,.18171.0848,2.08649,2.08649,0,0,0,.79336.13325c.06662-.00606.38158-.03634.69654-.06663.315-.03634.68443-.07268.81768-.07874a1.00369,1.00369,0,0,0,.37553-.09085c.18777-.103.27862-.09085.47244.06057.12114.09085.18171.109.19988.06057.03028-.09691.36341-.26651.4361-.22411a4.35656,4.35656,0,0,0,1.28406-.18776.91924.91924,0,0,1,.36947-.0848,1.39436,1.39436,0,0,0,.47244-.12114,1.36325,1.36325,0,0,1,.40586-.12114A.53593.53593,0,0,0,9.19838,6.175a2.40611,2.40611,0,0,1,1.19321-.15142.45959.45959,0,0,1,.19382.20593c.07268.14537.07268.18171-.03028.34525a.62471.62471,0,0,1-.33313.26045,1.3745,1.3745,0,0,0-.70261.58752.44135.44135,0,0,0,.04846.35735c.09691.19988.12114.212.321.18171a3.3827,3.3827,0,0,1,.424-.05451,1.10643,1.10643,0,0,0,.36341-.103,1.72368,1.72368,0,0,1,.66626-.14536c.23622-.02423.32708-.09692.55118-.44216.45427-.7026.49061-.76317.45427-.93276a.49187.49187,0,0,1,.12114-.38765c.07874-.12113.13325-.24833.11508-.27861-.06057-.09086.19382-.58147.3513-.69049.3089-.19988.218-.67232-.18776-.93882a2.93013,2.93013,0,0,1-.46638-.3937,1.83555,1.83555,0,0,0-.3937-.315,2.5611,2.5611,0,0,1-.424-.28468c-.15142-.12113-.38158-.3089-.51484-.41792-.12719-.109-.31495-.26651-.41792-.36342a.44224.44224,0,0,0-.37553-.15142.48.48,0,0,1-.3089-.0848A1.45984,1.45984,0,0,0,9.156,1.78367a.96732.96732,0,0,1-.29073-.09691.395.395,0,0,0-.218-.0424.94747.94747,0,0,1-.41187-.16959,1.74171,1.74171,0,0,0-.58752-.23016.64587.64587,0,0,1-.321-.09691A.30985.30985,0,0,0,7.133,1.08107.56418.56418,0,0,1,6.87864.99022a1.21526,1.21526,0,0,0-.47855-.115C6.09118.857,6.02456.82674,5.92159.68138,5.855.59052,5.69748.3967,5.56423.25133,5.322-.02123,5.26744-.03334,4.81923.05146Zm1.2235,2.92548a2.00054,2.00054,0,0,1,.77528.18777.865.865,0,0,0,.58147.13325.5157.5157,0,0,1,.43.109,1.93171,1.93171,0,0,0,.33918.18171.64674.64674,0,0,1,.23622.15748.43421.43421,0,0,0,.32708.12114,1.11684,1.11684,0,0,1,.73894.4361c.12114.23016-.27862.65414-.61781.65414a.65343.65343,0,0,0-.29678.13326c-.19988.14536-.33919.16353-1.78679.18776a3.69911,3.69911,0,0,0-1.20533.12114c-.23016.103-.24833.103-.50878-.02423a2.49286,2.49286,0,0,1-.48455-.321.86259.86259,0,0,0-.33919-.19987,1.14771,1.14771,0,0,1-.55118-.13931.1953.1953,0,0,0-.17565-.0424,1.72328,1.72328,0,0,1-.56329-.13931c-.44821-.16959-.68443-.34524-.68443-.51484a3.92137,3.92137,0,0,1,.7087-.93273c.07874-.0424.16959-.02423.33313.06662.212.12114.25439.1272.72683.05452a3.15111,3.15111,0,0,0,.69654-.17565C4.91614,2.92849,5.06757,2.92243,6.04273,2.97694Z"/>

</g>
</svg>
