<?xml version="1.0" encoding="UTF-8"?>
<svg xmlns="http://www.w3.org/2000/svg"
     version="1.1"
     width="53.73668462mm"
     height="13.42953127mm"
     viewBox="0.00000000 0.00000000 152.32449707 38.06793041">

<g transform="scale(5.18422646)">   <defs>
      <style type="text/css"><![CDATA[
      .a {
        stroke: #000;
        stroke-linecap: round;
        stroke-linejoin: round;
        stroke-width: 0.01px;
      }
    ]]></style>
   </defs>
   <path class="a"
         d="M20.46317.223c-.13931.12114-.27256.23016-.27862.23622a3.122,3.122,0,0,0-.15743.61178,1.45754,1.45754,0,0,1-.12719.36341,3.20938,3.20938,0,0,0-.06663,1.35675c.02423.0848.05451.24833.07268.36341a2.01217,2.01217,0,0,0,.24834.533c.24833.37553.23622.56329-.04846.71472a.34788.34788,0,0,1-.35736.02422.29148.29148,0,0,0-.27256-.01211.925.925,0,0,1-.3937.02423.63133.63133,0,0,0-.43.06662.20721.20721,0,0,1-.24833.03635.43267.43267,0,0,0-.27862-.01818,2.5432,2.5432,0,0,1-1.175-.01817.656.656,0,0,0-.70866.109.74589.74589,0,0,1-.37553.12114c-.23622-.00606-.91459-.04846-1.35674-.0848a.66855.66855,0,0,0-.44216.06663.74951.74951,0,0,1-.71471-.01817.84947.84947,0,0,0-.84191.05451c-.321.15748-.48456.15748-1.40521.04845-.0424-.00605-.103-.06662-.13931-.13931-.06057-.103-.04239-.16959.09691-.37552a1.82128,1.82128,0,0,0,.34525-.8298,1.26469,1.26469,0,0,0-.58147-1.066,1.46778,1.46778,0,0,1-.40581-.76317A1.47435,1.47435,0,0,0,9.93639.93167C9.74244.75606,9.71821.75,9.5365.82874a5.16757,5.16757,0,0,0-1.066.70866,1.75521,1.75521,0,0,1-.424.26045c-.81162.13325-1.1387.26044-1.278.49061a1.28874,1.28874,0,0,1-.34524.23016.74074.74074,0,0,0-.32707.26044A6.58424,6.58424,0,0,1,4.94536,3.88748c-.19382.13931-.27861.16354-.67231.16354-.41793,0-.46638.01211-.66626.18776a.7592.7592,0,0,1-.36947.18776.79157.79157,0,0,0-.315.0848,2.91887,2.91887,0,0,1-.5148.17566,1.32007,1.32007,0,0,0-.69049.43,1.73882,1.73882,0,0,1-.5754.40582.6181.6181,0,0,0-.26045.11508,1.25059,1.25059,0,0,1-.321.20593c-.46032.23622-.54512.34525-.54512.71472a.528.528,0,0,0,.23016.54512c.29073.28467.55118.3089.76317.07874a.43985.43985,0,0,1,.3634-.15141,1.38275,1.38275,0,0,0,.424-.07269,1.76826,1.76826,0,0,1,.75712.00606c.315.03634.64808.07268.745.07268a.81439.81439,0,0,1,.27256.04846.22468.22468,0,0,0,.20593,0c.07874-.04846.13931-.02423.24833.09085.13931.15748.15143.15748,1.08419.15748.86008,0,.95094-.01211,1.00545-.11508A.60353.60353,0,0,1,6.3748,7.031a2.85579,2.85579,0,0,0,.36341-.15748,1.01315,1.01315,0,0,1,.41187-.0848,1.0418,1.0418,0,0,0,.36341-.06057c.09086-.04846.14537-.03634.24834.06663a.2578.2578,0,0,0,.212.09085.3173.3173,0,0,1,.218.03028,3.64875,3.64875,0,0,0,.86008.06663c.75106.00606,1.0115.06663,1.08419.26045.03028.06662.12719.09085.36341.09085.27256,0,.34525-.02423.41793-.12719a.38455.38455,0,0,1,.2665-.15143,4.96384,4.96384,0,0,0,.53907-.11508,3.11221,3.11221,0,0,1,1.12053-.18776,1.15722,1.15722,0,0,0,.49666-.06663.37427.37427,0,0,1,.321-.01817.76538.76538,0,0,0,.75711-.0848c.218-.17565.53907-.2241,1.25984-.18776a1.5522,1.5522,0,0,0,.73894-.06057.9439.9439,0,0,1,.3513-.09085.40617.40617,0,0,0,.23622-.06663c.07874-.07874.30891-.12114,1.04785-.19382a1.63412,1.63412,0,0,0,.3937-.103,5.7145,5.7145,0,0,1,1.51422-.13931,4.97632,4.97632,0,0,0,.7874-.13325c.23622-.06057.46639-.11508.51484-.12114a.68611.68611,0,0,0,.218-.07874.20628.20628,0,0,1,.2665.03029.7372.7372,0,0,0,.27862.11508,1.62739,1.62739,0,0,1,.40581.13325,1.68094,1.68094,0,0,0,.67232.19988.41987.41987,0,0,1,.19382.0848.24543.24543,0,0,0,.29679.01817.3216.3216,0,0,1,.321.01211.96642.96642,0,0,0,.26651.09691.91987.91987,0,0,1,.33313.18171c.315.24228.642.3513.80557.2665a.2395.2395,0,0,1,.23016-.00605.19653.19653,0,0,0,.19988,0,1.30582,1.30582,0,0,1,.44821-.05452,3.3265,3.3265,0,0,0,.72683-.09691,3.41559,3.41559,0,0,1,.60569-.103,1.04841,1.04841,0,0,0,.36342-.07874,1.69914,1.69914,0,0,1,.41187-.109A.9306.9306,0,0,0,29.076,5.5773a.61365.61365,0,0,1,.212-.26045.14146.14146,0,0,0,.006-.26045,1.02762,1.02762,0,0,1-.24833-.26044c-.19382-.28468-.41187-.39976-.58146-.30891a.34753.34753,0,0,1-.32708-.01211.35632.35632,0,0,0-.38158.02423,2.50751,2.50751,0,0,1-.95094.109c-.43.00606-.84191.00606-.90853.00606a1.04365,1.04365,0,0,0-.636.0848c-.33313.16959-.60569.04239-1.20532-.56935-.53907-.55118-.70261-.67232-.90248-.67232a2.70364,2.70364,0,0,1-.86008-.79346,1.474,1.474,0,0,0-.19383-.32707c-.109-.14537-.29678-.40581-.41187-.56935a1.21121,1.21121,0,0,0-.38134-.37548c-.22411-.09691-.27862-.218-.315-.67837C20.95984.28967,20.875.005,20.78418.005A1.27986,1.27986,0,0,0,20.46317.223ZM8.34935,3.48167c.09085.04239.41187.16353.70866.25439a2.168,2.168,0,0,1,.71471.33918c.18777.18171.19382.22411.0848.37553-.14537.19988-1.02968.24834-1.63537.09086-.25439-.06663-.315-.06057-.45427.01817a2.3773,2.3773,0,0,1-.98121.19987A.23838.23838,0,0,0,6.605,4.79a.27531.27531,0,0,1-.38159-.33919.78957.78957,0,0,1,.29073-.2241c.13931-.07269.3937-.20594.55724-.29679.20594-.109.32707-.14537.38764-.103.13325.0848.22411.06663.26651-.06057a1.07641,1.07641,0,0,1,.44215-.36947A.91446.91446,0,0,1,8.34935,3.48167Z"/>

</g>
</svg>
