<?xml version="1.0" encoding="UTF-8"?>
<svg xmlns="http://www.w3.org/2000/svg"
     version="1.1"
     width="43.13221545mm"
     height="19.93188028mm"
     viewBox="0.00000000 0.00000000 122.26446052 56.49978918">

<g transform="scale(5.24842214)">   <defs>
      <style type="text/css"><![CDATA[
      .a {
        fill: #000;
        stroke: #000;
        stroke-miterlimit: 1;
        stroke-width: 0.15px;
      }
    ]]></style>
   </defs>
   <path class="a"
         d="M20.79264,1.13414a2.77246,2.77246,0,0,1,2.189.8902,3.30134,3.30134,0,0,1,.17889,1.95259,3.16523,3.16523,0,0,1-.8465,1.80094c-.17929.22274-.401.4379-.58144.66451a13.14793,13.14793,0,0,0-1.27046,1.614A7.14094,7.14094,0,0,1,19.17185,9.654a5.72143,5.72143,0,0,1-.84969.68561c-.201.1344-.50985.18592-.66277.36752.2516-.20686.165-.71133.30755-1.00391.17258-.35318.4156-.59836.571-.96084a5.22327,5.22327,0,0,1,.61318-1.0727,1.44471,1.44471,0,0,0,.16026-1.13862c-.28193-1.16815-1.99709-.824-2.84771-.84984-.96018-.02921-1.91457.00716-2.86642-.00432a9.29056,9.29056,0,0,0-1.60166-.01168,4.802,4.802,0,0,1-.682.10459c-1.04187.0429-2.074.02418-3.12231-.00771C6.75054,5.7183,5.311,5.66771,3.8701,5.63266a15.66813,15.66813,0,0,1-2.59885-.22688C.76992,5.30524.20762,5.33348.10193,4.75342A4.88051,4.88051,0,0,1,.42934,2.7031,7.06049,7.06049,0,0,1,1.39545.85747C1.81383.29625,2.2491.39678,2.82834.22474c.2476-.07394.30973-.23784.602-.08993a.67338.67338,0,0,1,.35634.5004,3.27166,3.27166,0,0,1-.04259.996c-.07956.39056-.0805.35588.28469.53187a2.34489,2.34489,0,0,0,1.5933.06256A7.62656,7.62656,0,0,1,7.06056,2.15c1.34395.00334,2.67169-.0026,4.01937.0384l1.5589.04743c.38752.01179.7784.0106,1.16559.03357a3.22335,3.22335,0,0,0,1.356-.0719c.60886-.1902,1.26963-.26667,1.89013-.42376A14.2832,14.2832,0,0,1,20.79264,1.13414Z"/>

</g>
</svg>
