<?xml version="1.0" encoding="UTF-8"?>
<svg xmlns="http://www.w3.org/2000/svg"
     version="1.1"
     width="28.64277235mm"
     height="28.65742246mm"
     viewBox="0.00000000 0.00000000 81.19210715 81.23358836">

<g transform="scale(5.48693194)">   <defs>
      <style type="text/css"><![CDATA[
      .a {
        stroke: #000;
        stroke-linecap: round;
        stroke-linejoin: round;
        stroke-width: 0.01px;
      }
    ]]></style>
   </defs>
   <path class="a"
         d="M7.97232.02294A5.15559,5.15559,0,0,0,6.87.63469c-.06662.05451-.2241.19987-.3513.321a4.5478,4.5478,0,0,1-.87219.52695,5.43953,5.43953,0,0,0-.68443.36948,1.98746,1.98746,0,0,1-.3513.27256,4.13108,4.13108,0,0,0-.55724.43609c-.13931.1272-.41793.3937-.62386.58147a1.689,1.689,0,0,0-.37553.41792c0,.16354-.27862.49667-.57541.69049a1.73015,1.73015,0,0,0-.43.36342c-.06662.08479-.17565.23622-.25439.33313a.60237.60237,0,0,0-.13325.25439.89511.89511,0,0,1-.15142.30284.84853.84853,0,0,0-.15143.36947.60344.60344,0,0,1-.12113.30285.6623.6623,0,0,0-.12114.19988,4.02384,4.02384,0,0,1-.58146.87219,1.14744,1.14744,0,0,0-.36342.69655,5.42027,5.42027,0,0,1-.16354.97516A1.4295,1.4295,0,0,0,.062,9.40508c.04845.23017.103.5209.11508.64809.03634.3089.19382.49061.6602.77529a1.21264,1.21264,0,0,0,.642.23622.91707.91707,0,0,1,.36342.06057,2.1237,2.1237,0,0,0,.46032.09691,2.55287,2.55287,0,0,1,.49061.09085,10.91131,10.91131,0,0,0,2.21077-.09691.262.262,0,0,1,.28468.0848c.07268.07268.11508.16353.09085.19987a.70393.70393,0,0,0-.03028.30891,1.2315,1.2315,0,0,1-.14537.56329.87658.87658,0,0,0-.12719.49061c.01817.09691.06057.321.09691.50272.0848.49061.15748.61781.47244.8298a2.73081,2.73081,0,0,0,1.387.533c.22411.01817.52089.04239.65415.06057a.64241.64241,0,0,0,.43-.07269c.103-.06057.47244-.2665.81768-.45427a4.63188,4.63188,0,0,0,.81163-.533,2.03329,2.03329,0,0,1,.80556-.46639,3.04973,3.04973,0,0,0,.90854-.61174,1.61921,1.61921,0,0,1,.36342-.28468,7.72164,7.72164,0,0,0,1.0539-1.175.6791.6791,0,0,0,.109-.33313,1.26444,1.26444,0,0,1,.33313-.67232,2.07281,2.07281,0,0,0,.23622-.36341c.09086-.16959.23016-.41187.315-.54512a.56857.56857,0,0,0,.11508-.3937c-.01817-.0848-.0424-.26045-.05451-.3937a2.37085,2.37085,0,0,0-.03634-.30285c-.03634-.15748.01817-.23016.27862-.33918.15142-.06663.29073-.1696.30284-.22411.01817-.05451.07269-.19988.12114-.315a.82842.82842,0,0,0,.03028-.527.78859.78859,0,0,1,.04846-.58146l.11508-.26651-.20593-.39975a2.08893,2.08893,0,0,1-.20594-.5209.21642.21642,0,0,0-.06662-.16353.95632.95632,0,0,1-.18171-.29074,2.25215,2.25215,0,0,0-.51484-.78134,5.38313,5.38313,0,0,1-.50878-.46638c-.56329-.56935-.745-.58146-1.43549-.103-.103.07269-.3089.19988-.44821.28468-.62386.36947-.72077.56935-.47849.98727a2.6531,2.6531,0,0,0,.98122.72683,2.469,2.469,0,0,1,.46032.30285,1.82049,1.82049,0,0,0,.46638.28467.59531.59531,0,0,1,.3937.54513,1.1375,1.1375,0,0,0,.12114.36341,1.49885,1.49885,0,0,1,.01817,1.07813.42172.42172,0,0,0-.04845.25439,1.974,1.974,0,0,1-.35131.99333,11.46234,11.46234,0,0,0-.66626,1.08419,5.30773,5.30773,0,0,1-.78739,1.19927,1.52123,1.52123,0,0,0-.30891.39976.62583.62583,0,0,1-.14536.218,3.33842,3.33842,0,0,1-1.2235.4361,3.22283,3.22283,0,0,0-.53906.0848.60976.60976,0,0,1-.44216,0,.70067.70067,0,0,0-.33313-.03634,1.32239,1.32239,0,0,1-.55118-.12114c-.49061-.19988-.59357-.38159-.62992-1.12053-.02422-.44821-.01211-.55724.09086-.71472a.531.531,0,0,1,.27862-.218c.17565-.0424.36947-.24228.55118-.56935A1.93069,1.93069,0,0,1,8.366,9.302a2.32567,2.32567,0,0,1,.88431-.46639.49133.49133,0,0,0,.23016-.09085,1.12439,1.12439,0,0,1,.3937-.13931c.45427-.06057.50878-.09085.66626-.33313a.59029.59029,0,0,0,.109-.51484c-.04846-.32707-.22411-.56935-.41793-.56935a5.293,5.293,0,0,0-1.5324.55724,6.04619,6.04619,0,0,1-.76317.40581c-.53907.23622-.76317.38764-.8722.58752a.86422.86422,0,0,1-.41792.25439,8.2826,8.2826,0,0,1-1.01756.321C5.59794,9.30806,5.2527,9.296,4.859,9.27778c-.98122-.0424-1.11447-.09691-1.34464-.54512A2.954,2.954,0,0,0,3.157,8.19359a1.30275,1.30275,0,0,1-.1696-.212c0-.01817-.01211-.15748-.01817-.3089a1.618,1.618,0,0,0-.18776-.61781c-.15142-.29679-.16354-.36341-.103-.50272a.24543.24543,0,0,0-.01817-.29679c-.0847-.12707-.07864-.16946.02436-.436A4.707,4.707,0,0,0,2.84215,5.353a.67563.67563,0,0,1,.18171-.3089.46694.46694,0,0,0,.15142-.218,3.6862,3.6862,0,0,1,.533-.59358,7.37351,7.37351,0,0,0,.642-.69654.79608.79608,0,0,1,.32707-.26651C5.065,3.112,5.6828,2.82734,5.913,2.70014c.1272-.06662.25439-.109.29073-.08479a1.66229,1.66229,0,0,0,.49667-.11508A1.95647,1.95647,0,0,1,7.35451,2.367,1.54369,1.54369,0,0,1,8.148,2.6214c.11508.13931.25439.19988.82374.36947l.5209.14537.32707-.3513c.56935-.61175.69049-.76317.6602-.79346-.01817-.01211.02423-.13325.09086-.2665a.714.714,0,0,0-.0424-.75711A3.16374,3.16374,0,0,0,9.12919.15619.5906.5906,0,0,1,8.97167.08956,2.7999,2.7999,0,0,0,7.97232.02294Z"/>

</g>
</svg>
