<?xml version="1.0" encoding="UTF-8"?>
<svg xmlns="http://www.w3.org/2000/svg"
     version="1.1"
     width="21.24007813mm"
     height="24.54491211mm"
     viewBox="0.00000000 0.00000000 60.20804926 69.57610764">

<g transform="scale(5.48693194)">   <defs>
      <style type="text/css"><![CDATA[
      .a {
        stroke: #000;
        stroke-linecap: round;
        stroke-linejoin: round;
        stroke-width: 0.01px;
      }
    ]]></style>
   </defs>
   <path class="a"
         d="M3.6028.09585a1.16648,1.16648,0,0,1-.36341.27862,1.22537,1.22537,0,0,0-.41793.36342.47076.47076,0,0,1-.24227.212c-.0848.01817-.15143.07268-.15143.11508a.87737.87737,0,0,1-.212.3089c-.12114.1272-.20593.26045-.18776.30285s-.06057.19382-.17565.32707a2.74714,2.74714,0,0,0-.61781,1.45366,7.41388,7.41388,0,0,1-.08479.75711,3.63848,3.63848,0,0,0-.05452.50878.65213.65213,0,0,1-.09085.29073C.93775,5.111.92564,5.18973.968,5.25635c.03634.07268.02423.16959-.05451.321a.73229.73229,0,0,0-.04846.56329,1.69254,1.69254,0,0,1,.01212.57541,1.49594,1.49594,0,0,0-.03635.315,3.477,3.477,0,0,1-.006,1.07207.44937.44937,0,0,0,0,.33313.46937.46937,0,0,1-.13931.51484C.6228,9.00557.61675,9.048.67126,9.14488c.09085.16959.01817.28467-.35736.58146L.005,9.96862v.424c0,.41187.00606.43.22411.60569a3.90134,3.90134,0,0,1,.3513.321c.07874.07268.17565.12114.2241.103.05451-.02423.17565.03028.27862.11508a.618.618,0,0,0,.24833.15748,1.20082,1.20082,0,0,1,.30891.12113,1.1,1.1,0,0,0,.37552.12114.881.881,0,0,1,.36948.16354c.212.14537.29678.16959.79345.17565,1.0539.02423,1.36886.09085,1.45366.29679a3.9028,3.9028,0,0,0,1.77467,0c.07269-.19382.75712-.4361,1.5324-.54512a3.37435,3.37435,0,0,0,.71472-.24834,2.53722,2.53722,0,0,1,.54512-.20593.70834.70834,0,0,0,.3089-.15142,3.36766,3.36766,0,0,1,1.066-.3937c.12114,0,.3937-.17565.3937-.26045a.51561.51561,0,0,0-.15143-.19988.47634.47634,0,0,1-.15142-.27862c0-.12113-.05451-.16353-.315-.25439a4.16283,4.16283,0,0,0-1.43549-.15748c-.44215-.01211-.52695-.03028-.64808-.15748-.12114-.11508-.13931-.1817-.11509-.43a.88009.88009,0,0,0-.02422-.36947,1.30971,1.30971,0,0,1,.02422-.46638A3.65249,3.65249,0,0,0,7.879,6.36476a3.05406,3.05406,0,0,1-.2665-1.15082,1.124,1.124,0,0,0-.09085-.41187.49106.49106,0,0,1-.0424-.29073c.03634-.14536.01211-.212-.34525-.90248a3.89862,3.89862,0,0,1-.321-.7874c-.02423-.103-.04846-.19382-.05452-.212s-.03028-.11508-.06056-.212a1.2614,1.2614,0,0,0-.39976-.61781,1.68985,1.68985,0,0,1-.315-.55117A1.08576,1.08576,0,0,0,5.117.45927.77493.77493,0,0,1,4.693.21093C4.50528.01711,4.475.005,4.06313.005,3.74211.005,3.627.02923,3.6028.09585ZM4.051,6.57069a1.79338,1.79338,0,0,1,.28467.51484.70656.70656,0,0,0,.12114.315,2.65737,2.65737,0,0,1,.424.97516,1.25046,1.25046,0,0,0,.11508.3937.38556.38556,0,0,1-.27861.55118c-.44822.13931-.65415.13325-.78135-.00606-.06662-.07268-.16959-.18776-.23016-.25439a.64864.64864,0,0,1-.2241-.533.34937.34937,0,0,0-.0848-.2665.25108.25108,0,0,1-.06057-.28468.31543.31543,0,0,0,0-.2241,1.01983,1.01983,0,0,1-.06057-.59964.308.308,0,0,0-.01211-.218.373.373,0,0,1,.00605-.321.30236.30236,0,0,0,.01212-.30285c-.05451-.103-.04846-.14536.06057-.25439s.13931-.11508.25439-.03634A3.12883,3.12883,0,0,1,4.051,6.57069Z"/>

</g>
</svg>
