<?xml version="1.0" encoding="UTF-8"?>
<svg xmlns="http://www.w3.org/2000/svg"
     version="1.1"
     width="65.27675120mm"
     height="15.61514907mm"
     viewBox="0.00000000 0.00000000 185.03638236 44.26346003">

<g transform="scale(5.48402188)">   <defs>
      <style type="text/css"><![CDATA[
      .a {
        stroke: #000;
        stroke-linecap: round;
        stroke-linejoin: round;
        stroke-width: 0.01px;
      }
    ]]></style>
   </defs>
   <path class="a"
         d="M2.48833.04085a.51064.51064,0,0,1-.2241.06057.2761.2761,0,0,0-.212.12114.5876.5876,0,0,1-.30284.18177A.39155.39155,0,0,0,1.48894.586c-.02422.06662-.07268.12719-.109.13325-.0424,0-.09691.01211-.13325.01211a2.289,2.289,0,0,0-.636.33312c0,.07874-.212.2968-.30284.321C.16854,1.41577.005,1.57933.005,1.68233c0,.05451.06663.12719.15142.16353s.15143.09691.15143.1272.06056.06662.1393.09085c.18777.0424.53907.38764.49061.47244-.02422.03634.00606.103.06057.13931a.40187.40187,0,0,1,.1272.212,1.04531,1.04531,0,0,0,.19382.33313c.30284.35735.38158.47849.38158.58147a1.21616,1.21616,0,0,0,.09692.33312,1.97681,1.97681,0,0,1,.12115.527A.85223.85223,0,0,0,2.04014,5.05a.14988.14988,0,0,1,.03029.18776.75887.75887,0,0,0-.0424.315,1.64782,1.64782,0,0,1-.09691.51484c-.1696.46638,0,.87825.35736.87825a.54838.54838,0,0,1,.29073.0848.427.427,0,0,0,.50272-.1272c.06663-.06057.11508-.06057.2665.01816a.58524.58524,0,0,0,.37553.06058,1.48085,1.48085,0,0,1,.26651-.03634,3.044,3.044,0,0,0,1.14475-.109.38239.38239,0,0,1,.18171-.06057.41216.41216,0,0,0,.17565-.05451.21373.21373,0,0,1,.20594-.01817c.04845.03028.109.04239.13325.02422s.103,0,.16959.03634a.14473.14473,0,0,0,.2043-.01216l.0137-.01812c.07268-.07268.12114-.07874.22411-.02423a1.47778,1.47778,0,0,0,.64808.03634,1.56607,1.56607,0,0,1,.848.0848.65485.65485,0,0,0,.50273.06057.36009.36009,0,0,1,.24227-.02423,2.40642,2.40642,0,0,0,.67838.07874c.03634,0,.19987-.01211.36341-.03028a4.88979,4.88979,0,0,1,1.5748.08479,2.65711,2.65711,0,0,0,.69654.07874c.04846,0,.24228-.01817.424-.04239a5.48058,5.48058,0,0,1,1.68987.05451,2.5777,2.5777,0,0,0,1.18716.06662,7.07265,7.07265,0,0,1,1.54451-.02422.89126.89126,0,0,0,.37553-.01212.68536.68536,0,0,1,.48455.02423.4245.4245,0,0,0,.3089.03634.14548.14548,0,0,1,.1878.03627.45106.45106,0,0,0,.29073.09691,6.11787,6.11787,0,0,1,1.47789.13325A1.03415,1.03415,0,0,0,20.332,7.4a1.27354,1.27354,0,0,1,.55724-.02423.88.88,0,0,0,.41792-.01211.40149.40149,0,0,1,.30284-.0061,1.625,1.625,0,0,0,.83585-.00606,2.57758,2.57758,0,0,0,.23015-.19382.57876.57876,0,0,1,.24834-.15142c.08479,0,.19382-.09085.70866-.55723a1.91358,1.91358,0,0,1,.36342-.29073c.02423,0,.06663-.05452.0848-.12113a.274.274,0,0,1,.19988-.15748.76336.76336,0,0,0,.24227-.103.73555.73555,0,0,1,.26651-.07874,1.70208,1.70208,0,0,0,.75711-.36342,1.29946,1.29946,0,0,1,.83585-.13931A3.08217,3.08217,0,0,0,27.6124,5.1044c.32707-.103.40581-.109.61174-.03634a.56742.56742,0,0,0,.48456-.01817c.26044-.109.39975-.09085.45427.05451a.07322.07322,0,0,0,.109.04846,4.8206,4.8206,0,0,1,1.44154.03634c.19988.109.20594.315.02423.67231-.17565.34525-.25439.43-.34524.37553-.03029-.01817-.109.02423-.18171.0848a3.03258,3.03258,0,0,1-.41793.28467,2.37064,2.37064,0,0,0-.424.29679,3.06756,3.06756,0,0,1-.41187.29679c-.33919.19988-.56329.44821-.51484.58147a.586.586,0,0,0,.51484.28467,2.26145,2.26145,0,0,1,.24833-.02423,2.68275,2.68275,0,0,0,.49667-.24833,2.06942,2.06942,0,0,1,.49061-.24228c.05451,0,.09691-.02422.09691-.05451s.05451-.07874.1272-.09691a1.15013,1.15013,0,0,0,.315-.24228,3.26318,3.26318,0,0,1,.636-.43c.33919-.17565.46033-.27256.52089-.41792a.99506.99506,0,0,1,.25439-.321c.09692-.07268.20594-.15748.24228-.18776s.17565-.12114.315-.20594a1.73081,1.73081,0,0,0,.35736-.315c.06057-.0848.18171-.24227.27258-.3513a.69312.69312,0,0,0,.16959-.33313.4579.4579,0,0,1,.1272-.26044c.11508-.11508.12719-.17566.09085-.47244-.03028-.24833-.07268-.36947-.17565-.44821-.07269-.06057-.218-.1817-.321-.2665a.7706.7706,0,0,0-.24228-.15143.50673.50673,0,0,1-.16354-.05451.5441.5441,0,0,0-.36341.01817,2.01448,2.01448,0,0,1-.97517.0848,1.63626,1.63626,0,0,0-.55117.05451,4.29,4.29,0,0,1-.60569.12114c-.64809.05451-.84192.09086-.88431.15748a.4157.4157,0,0,1-.26045.0848.56062.56062,0,0,0-.3089.11508c-.0848.07874-.1272.07874-.38159.00606-.38158-.12114-.40581-.11508-.48455.05451a.30662.30662,0,0,1-.39624.1761l-.01563-.00651c-.06663-.03634-.206-.01817-.424.06057s-.35735.09691-.424.06057a.35578.35578,0,0,0-.29073.01817,6.50675,6.50675,0,0,0-.94488.44821c-.01816.01817-.12114.11508-.23016.20594-.44215.36341-1.22349.08479-1.07206-.38159.02422-.0848-.01212-.16959-.1272-.28467a.56991.56991,0,0,1-.18171-.3937.61284.61284,0,0,0-.14538-.36342,1.95024,1.95024,0,0,1-.23017-.3089.49064.49064,0,0,0-.20593-.19988c-.06057-.01817-.109-.06057-.109-.09086,0-.03634-.07874-.09085-.18171-.12114-.09691-.03634-.18777-.09085-.18777-.12114-.00605-.03028-.01211-.07873-.01817-.109-.01211-.07874-.27861-.27256-.50272-.36342-.109-.04845-.19988-.09691-.19988-.12113s-.09691-.09086-.212-.15143c-.11508-.06662-.212-.13931-.212-.16353,0-.17565-.33919-.27862-.99939-.30891a1.07328,1.07328,0,0,1-.34525-.06056.51834.51834,0,0,0-.33313.03028c-.218.07268-.28467.06663-.76922-.04846a.65472.65472,0,0,0-.33313.09086c-.13931.06662-.25439.09085-.30891.06057a.20124.20124,0,0,0-.19382.006.57868.57868,0,0,1-.35735,0c-.19383-.04239-.28468-.03634-.37553.02423a.227.227,0,0,1-.26045.01817c-.07874-.03634-.14537-.08479-.14537-.109s-.07268-.04846-.16353-.04846c-.09691-.006-.32708-.02422-.51484-.03634-.19382-.01211-.3513-.00606-.3513.02423,0,.12719-.18777.23016-.37553.20593-.19382-.01817-.87219-.12719-1.10841-.17565a3.80835,3.80835,0,0,1-.78135-.29073A6.7947,6.7947,0,0,0,12.39138.71317a6.804,6.804,0,0,1-.97516-.03028,3.59,3.59,0,0,1-.642-.09086c-.103-.03634-.17565-.03634-.218.00606a.79555.79555,0,0,1-.56935.103,1.23636,1.23636,0,0,0-.4361,0A1.2388,1.2388,0,0,1,8.97528.67077,2.51066,2.51066,0,0,0,8.45439.57992a1.70119,1.70119,0,0,1-.48455-.0848A3.12489,3.12489,0,0,0,7.21272.43455a3.64009,3.64009,0,0,1-1.3628-.218A.79.79,0,0,0,5.541.19833.41285.41285,0,0,1,5.27451.162a.43713.43713,0,0,0-.55723.15748.67169.67169,0,0,1-.66021.3513,2.30911,2.30911,0,0,1-.87219-.43A.69833.69833,0,0,0,2.9002.08325C2.81541.059,2.70638.02874,2.65793.01057A.22014.22014,0,0,0,2.48833.04085Zm15.6874,2.132a3.78559,3.78559,0,0,0,.4361-.0424c.27862-.05451.47244.109.43.36947-.06663.49061-.06057.527.12719.69653.49061.44822.76317.81769.76317,1.01757,0,.06662.09086.18776.34525.47244.09691.109.12114.18171.08479.25438a.47093.47093,0,0,0,.07874.50273c.17566.2665-.01817.72683-.25439.59963a1.08524,1.08524,0,0,0-.43609-.00605,1.53022,1.53022,0,0,1-.38159.01817,3.45959,3.45959,0,0,0-.5754-.04846c-.29074-.01211-.66021-.0424-.8298-.06663a3.68953,3.68953,0,0,0-.40581-.03634,3.36923,3.36923,0,0,1-.533.02423c-.11508,0-.45427.00606-.75106.01212-.46032.01211-.55118,0-.642-.09691-.07874-.0848-.218-.12113-.50878-.1393a3.68067,3.68067,0,0,1-.45427-.05452c-.02423-.01817-.07874-.00606-.12114.02423a.47531.47531,0,0,1-.27256-.01212,4.06524,4.06524,0,0,0-.58146-.11508,3.92136,3.92136,0,0,1-1.24162-.2483.82693.82693,0,0,0-.57541-.03633c-.3513.04846-.90853.103-1.15081.11507a2.53159,2.53159,0,0,1-.49667-.06056.3215.3215,0,0,1-.13325-.103.14079.14079,0,0,1-.03965-.1951l.00331-.00478a1.11331,1.11331,0,0,1,.69049-.3089.83034.83034,0,0,0,.36341-.15143,2.3476,2.3476,0,0,1,.9146-.43,1.23055,1.23055,0,0,0,.62386-.19988,2.17316,2.17316,0,0,1,1.10841-.1817c.33313-.00606.424-.03029.55118-.14537.3513-.32707.40581-.62992.13931-.79345a.97048.97048,0,0,0-.94488-.03029.72925.72925,0,0,1-.35736.09691.29633.29633,0,0,0-.20593.05451.2654.2654,0,0,1-.18776.04846.34233.34233,0,0,0-.218.03634.81448.81448,0,0,1-.29073.09085,3.86181,3.86181,0,0,0-.84192.20594,1.6196,1.6196,0,0,1-.52695.03634,1.65447,1.65447,0,0,1-.81768-.218,1.05188,1.05188,0,0,1-.62992-.55118c-.09085-.14536-.09085-.16959.00606-.26044.0848-.09086.18171-.103.533-.07269a1.59534,1.59534,0,0,0,.533-.02422.21386.21386,0,0,1,.2241.006c.09691.05451.15748.0424.27862-.05451a.27289.27289,0,0,1,.28467-.07268A7.67544,7.67544,0,0,0,12.876,2.08809a.42568.42568,0,0,1,.24228.04239.465.465,0,0,0,.218.06057,1.65519,1.65519,0,0,1,.86008.00606c.09085.04846.19988.07269.23622.04846a3.02656,3.02656,0,0,1,.963-.01818.74129.74129,0,0,0,.315-.01816,6.172,6.172,0,0,1,.86008-.06663,2.9121,2.9121,0,0,0,.72077-.08479c.09086-.04846.18777-.0424.3937.03028a1.74009,1.74009,0,0,0,.49059.0848ZM7.09764,2.10626a1.13745,1.13745,0,0,0,.48455.00606,1.99086,1.99086,0,0,1,.53907,0,6.8249,6.8249,0,0,0,.91459.109c.02423,0,.05452.03634.07269.0848s-.07269.19988-.22411.35735c-.3513.35735-.32707.49666.18776.98727.36948.35736.43.46638.33313.60569a.65657.65657,0,0,1-.40581.20594.87205.87205,0,0,0-.33313.24228.674.674,0,0,1-.636.26044,2.13615,2.13615,0,0,1-.61175-.13931.29936.29936,0,0,0-.218.00606c-.15142.0848-.26045.01211-.4785-.32707a3.74572,3.74572,0,0,0-.23622-.34525,2.71107,2.71107,0,0,1-.39975-.88431c.03634-.09691-.09691-.33313-.3089-.55117-.16354-.15748-.1696-.218-.0424-.34525a.30712.30712,0,0,1,.3089-.103.31876.31876,0,0,0,.19382-.109A1.0399,1.0399,0,0,1,7.09764,2.10626Z"/>

</g>
</svg>
