<?xml version="1.0" encoding="UTF-8"?>
<svg xmlns="http://www.w3.org/2000/svg"
     version="1.1"
     width="56.12035730mm"
     height="28.35109314mm"
     viewBox="0.00000000 0.00000000 159.08136918 80.36525717">

<g transform="scale(5.10555451)">   <defs>
      <style type="text/css"><![CDATA[
      .a {
        stroke: #000;
        stroke-linecap: round;
        stroke-linejoin: round;
        stroke-width: 0.01px;
      }
    ]]></style>
   </defs>
   <path class="a"
         d="M29.62739.19276a1.32133,1.32133,0,0,1-.69654.41793.16253.16253,0,0,0-.13325.09085.445.445,0,0,1-.20594.18171,1.64566,1.64566,0,0,0-.315.23622,1.27243,1.27243,0,0,1-.36341.22411.46.46,0,0,0-.26045.18776.49469.49469,0,0,1-.212.20594,1.22211,1.22211,0,0,0-.29073.19987.77915.77915,0,0,1-.16354.13326,2.67668,2.67668,0,0,0-.315.36947,2.11339,2.11339,0,0,1-.424.45427c-.09086.06057-.28468.20593-.4361.33313a2.93866,2.93866,0,0,1-.56329.34524,1.9136,1.9136,0,0,0-.53907.39976,1.39014,1.39014,0,0,1-.37553.3089,2.75368,2.75368,0,0,0-.67231.49667,3.74555,3.74555,0,0,1-.45427.321,5.175,5.175,0,0,0-.7874.66626,2.181,2.181,0,0,1-.636.51484,1.085,1.085,0,0,0-.37552.212,1.21089,1.21089,0,0,1-.321.20594.90647.90647,0,0,0-.2665.1817.78289.78289,0,0,1-.321.18171c-.09085.02423-.27862.0848-.41187.13325a2.68731,2.68731,0,0,1-.69654.12114,2.38527,2.38527,0,0,0-.54513.07874,1.31277,1.31277,0,0,1-.78134.06663,1.01282,1.01282,0,0,0-.3513-.09691,3.22213,3.22213,0,0,1-.957-.33313.85787.85787,0,0,0-.28468-.09086,2.162,2.162,0,0,1-.56934-.24833,3.69576,3.69576,0,0,0-.36342-.20594c-.01211,0-.22411-.09691-.47244-.218a1.71753,1.71753,0,0,0-.51484-.18171c-.07874.05451-.45426-.12114-.86613-.39976a1.03867,1.03867,0,0,0-.86009-.24833,5.44336,5.44336,0,0,0-1.53845.2665.4148.4148,0,0,1-.23622.03029,1.23955,1.23955,0,0,0-.40581.16959,2.58986,2.58986,0,0,1-.53907.24228.77679.77679,0,0,0-.33313.212,2.41386,2.41386,0,0,1-.86008.50878,2.85092,2.85092,0,0,0-.62386.43,1.6024,1.6024,0,0,1-.55724.36341,1.874,1.874,0,0,0-.89036.46639,3.55421,3.55421,0,0,1-.44216.33918A5.06862,5.06862,0,0,0,5.321,9.478a7.083,7.083,0,0,1-.62992.7026,6.37518,6.37518,0,0,0-.54512.58752.45773.45773,0,0,1-.19382.16959.3754.3754,0,0,0-.16354.19988,2.65235,2.65235,0,0,1-.90247.79951c-.0424,0-.14537.13931-.218.30891a.908.908,0,0,1-.30891.39369c-.43609.23017-1.08418,1.09631-.99333,1.33252a.31729.31729,0,0,1-.03028.218c-.05452.09691-.0424.18777.05451.40582.06662.15142.14536.3513.18171.43609.11508.29074.48455.39976,1.28406.38765a2.79624,2.79624,0,0,0,.84191-.09086,1.51206,1.51206,0,0,1,.46638-.09691,1.44822,1.44822,0,0,0,.49061-.103.37.37,0,0,1,.315-.03634c.109.0424.19988.02423.36342-.07268a1.11317,1.11317,0,0,1,.39975-.14537,5.09351,5.09351,0,0,0,1.51423-.36947,8.3377,8.3377,0,0,1,.81768-.212,5.25449,5.25449,0,0,0,.81163-.218,1.63017,1.63017,0,0,1,.57541-.103,1.57722,1.57722,0,0,0,.59357-.11508,1.05705,1.05705,0,0,1,.38765-.103.5156.5156,0,0,0,.30284-.09691.58647.58647,0,0,1,.24833-.11509c.07269-.00605.30285-.06057.50878-.109a1.40451,1.40451,0,0,1,.66626-.03028,2.5109,2.5109,0,0,0,1.39309-.0848,1.46293,1.46293,0,0,1,.45427-.07874,2.69866,2.69866,0,0,0,.54512-.0424c.26651-.04846.37553-.0424.48456.01817a2.10738,2.10738,0,0,0,.78134.0848h.636l.424.25439a2.94956,2.94956,0,0,0,.83585.34524,1.43371,1.43371,0,0,1,.51484.17565.66223.66223,0,0,0,.24228.1272c.1817.06057.25439.212.29073.65414.01816.212.03027.41793.03634.46639.01817.212.27256.33918.80557.40581.23016.02423.26044.00606.66626-.37553.23622-.218.44215-.41793.46638-.4361a6.49361,6.49361,0,0,0,.58752-.7874.64514.64514,0,0,1,.24833-.2241c.15748-.07874.1817-.1272.18777-.3513a2.25484,2.25484,0,0,1,.04845-.40582.578.578,0,0,0-.08479-.424.84764.84764,0,0,1-.109-.48455,1.28168,1.28168,0,0,0-.01211-.636c-.04846-.16353-.36342-.51483-.46638-.51483-.109,0-.15143-.01212-.32708-.1272a.835.835,0,0,0-.33918-.11508,1.18246,1.18246,0,0,1-.66021-.44216c-.103-.1393-.16353-.16353-.37553-.14536a3.97734,3.97734,0,0,1-.76922-.06057c-.93882-.15142-.93277-.15142-1.41732.01211-.3513.11508-.49061.13931-.57541.09086a.61791.61791,0,0,0-.6602.09085.88349.88349,0,0,1-.29679.15142,1.064,1.064,0,0,0-.321.24834c-.15747.15748-.28467.23622-.34524.212a.1722.1722,0,0,0-.16959.02423,1.60478,1.60478,0,0,1-.533.08479,4.44267,4.44267,0,0,0-1.387.26045.40792.40792,0,0,1-.40582.01817.49776.49776,0,0,0-.321-.02423,1.01173,1.01173,0,0,1-.19988.04846.90229.90229,0,0,0-.19988.0848.30147.30147,0,0,1-.30284.01817,4.05478,4.05478,0,0,0-1.40521.05451,1.93864,1.93864,0,0,1-.50878.06057,2.0291,2.0291,0,0,0-.51483.08479c-.75712.24228-.78135.24834-1.02362.13326A3.105,3.105,0,0,0,6.896,11.616a.9427.9427,0,0,1-.91459-.25439.31141.31141,0,0,1,.19987-.36342.60185.60185,0,0,0,.24228-.29679,6.13035,6.13035,0,0,1,1.199-1.30816c.03634,0,.15748-.13325.2665-.29679A1.27212,1.27212,0,0,1,8.834,8.53313a.63845.63845,0,0,0,.30285-.1272.7677.7677,0,0,1,.48455-.1393,2.62737,2.62737,0,0,0,.73289-.17566,1.20973,1.20973,0,0,1,.43609-.12113.57834.57834,0,0,0,.315-.07874c.30285-.13326.46638-.103.848.15142a2.69833,2.69833,0,0,0,.62386.28467,4.08046,4.08046,0,0,1,.61175.23017,2.46006,2.46006,0,0,0,.98728.19382.48383.48383,0,0,1,.37552.15142.80024.80024,0,0,0,.58752.24833,2.98993,2.98993,0,0,1,.93277.29074.70176.70176,0,0,0,.3089.09085A4.22725,4.22725,0,0,1,16.92,9.478c.27256-.01212.59963-.03634.71471-.05451s.27862-.0424.36342-.04846a1.64066,1.64066,0,0,0,.40581-.15142,1.242,1.242,0,0,1,.34524-.13325,1.20563,1.20563,0,0,0,.66626-.51484c.04846-.18171.24228-.29679.37553-.22411.09691.05451.19382.03634.64809-.12719a1.84086,1.84086,0,0,0,.38764-.23017.91635.91635,0,0,1,.28468-.17565,2.18843,2.18843,0,0,0,.44821-.29678,2.54607,2.54607,0,0,1,.52089-.33313A5.88918,5.88918,0,0,0,23.12227,6.601a7.13884,7.13884,0,0,0,.78134-.69655,3.674,3.674,0,0,1,.87826-.69049,2.70931,2.70931,0,0,0,.61174-.43609,2.21217,2.21217,0,0,1,.50878-.38159A1.14408,1.14408,0,0,0,26.26581,4.16a.67032.67032,0,0,1,.41187-.18171,1.03752,1.03752,0,0,0,.533-.25439,2.00135,2.00135,0,0,1,.28467-.212.78982.78982,0,0,0,.13325-.02423c.04846-.01211.212-.05451.36342-.09085.14536-.03634.50878-.15142.80557-.24833l.53906-.18171.22411.15142c.212.14537.2241.15142.50272.06057.23622-.0848.28468-.12114.315-.29073a3.68893,3.68893,0,0,1,.27862-.66626,2.97025,2.97025,0,0,0,.24227-.55724,3.306,3.306,0,0,1,.13326-.49666c.17565-.53907.16353-.75106-.06057-.98122C30.79638.01106,30.76.005,30.28154.005,29.79093.005,29.77276.01106,29.62739.19276Z"/>
   <path class="a"
         d="M2.38947,4.75967a1.53172,1.53172,0,0,0-.54512.18777,5.25442,5.25442,0,0,1-.59964.34524,1.904,1.904,0,0,0-.87219.8298,1.084,1.084,0,0,1-.23016.27862c-.12114.103-.13931.14536-.0848.24227a.20538.20538,0,0,1,.00606.212c-.12114.19987-.05452.46638.19987.79345.34525.4361.4785.53907.64809.50878a1.20957,1.20957,0,0,1,.4785.1272.973.973,0,0,0,.35736.11508,3.45746,3.45746,0,0,1,.59357.24227,3.99458,3.99458,0,0,0,.75106.29679,1.66944,1.66944,0,0,1,.80557.50878c.19382.17565.24833.19988.4361.16354.35735-.06663.56329-.41187.59357-.97516a4.13843,4.13843,0,0,0-.34524-1.169,2.24327,2.24327,0,0,1-.18171-.55723,2.10752,2.10752,0,0,0-.62992-1.3083c-.212-.212-.25439-.29073-.2241-.41186a.18671.18671,0,0,0-.09691-.24228C3.37675,4.899,3.298,4.8687,3.26772,4.88687S3.15264,4.88081,3.08,4.83841C2.868,4.69911,2.78922,4.69305,2.38947,4.75967Z"/>

</g>
</svg>
