<?xml version="1.0" encoding="UTF-8"?>
<svg xmlns="http://www.w3.org/2000/svg"
     version="1.1"
     width="17.26530896mm"
     height="43.37593324mm"
     viewBox="0.00000000 0.00000000 48.94106629 122.95542375">

<g transform="scale(2.79559400)">   <defs>
      <style type="text/css"><![CDATA[
      .a {
        fill: #000;
        stroke: #000;
        stroke-linecap: round;
        stroke-width: 0.25px;
        fill-rule: evenodd;
      }
    ]]></style>
   </defs>
   <path class="a"
         d="M8.298,38.20135c.6187.02688.9204-1.51512,1.9609-1.3384.3838.0659-.3935,1.7984-.4604,2.0249-.3731,1.2666-.1699,2.3521-1.0064,3.4981-.3442.4717-.8295,1.457-1.518,1.4707-.8169.01658-.7754-.9805-.8994-1.56842a8.26211,8.26211,0,0,1-.2002-3.05268,11.38809,11.38809,0,0,0-.5318-3.4282c-.1548-.8726-.0615-1.7202-.1738-2.5703a23.76171,23.76171,0,0,0-.8433-2.9024c-1.0927-4.0937-2.0883-8.1831-3.2392-12.2226-.1973-.6944-.3858-1.4707-.5112-2.1744a30.56428,30.56428,0,0,1-.7486-5.2089c-.018-1.77152.126-3.5396.126-5.3111a5.14515,5.14515,0,0,1,.4019-2.2065c.3432-.7862.644-.58892,1.436-.668C1.89906.27755,5.35946.20423,6.862.17985c3.2295-.0522,6.4609-.0239,9.6924-.0542.3168.5098.8227.83058.8266,1.6538-3.7632.3003-8.2334.1582-13.0591.4956-.1914.1763-.0605.7613.1656.99218A15.054,15.054,0,0,1,3.943,5.54805c-.1499.8066-.2593,1.6196-.3344,2.4355a40.73489,40.73489,0,0,0-.1114,5.0386,48.57835,48.57835,0,0,0,.5088,7.7227c.501,2.5273,1.5249,4.9155,2.0698,7.4326.1675.7705.294,1.5874.4922,2.3476.2237.8594.1431,1.7354.3335,2.606a17.60687,17.60687,0,0,1,.6529,2.5986,9.16076,9.16076,0,0,0,.6401,2.4532A.36911.36911,0,0,0,8.298,38.20135Z"/>
   <path class="a"
         d="M15.47525,13.08123a13.15207,13.15207,0,0,1,1.3398.02152c1.2139,3.3857-1.2432,6.3891-2.0581,9.5063-.2295.874-.5205,1.7281-.794,2.5728a16.74987,16.74987,0,0,0-.9834,3.7236c-.0849,1.1983-.3798,2.2837-.5712,3.4829a4.062,4.062,0,0,1-.5196,1.4878,8.68672,8.68672,0,0,1-.9717,1.5869,9.43006,9.43006,0,0,1-.1245-2.5151c.1065-.84572.6431-1.5132.7871-2.3262.2515-1.4243.5586-2.894.9561-4.3232.2661-.9551.6294-1.9019.8325-2.8726.1172-.5586.1665-1.104.2407-1.6601.2681-1.99562.961-3.941,1.1304-5.9678.0523-.6353-.0107-2.8735,1.1069-2.59282"/>

</g>
</svg>
