<?xml version="1.0" encoding="UTF-8"?>
<svg xmlns="http://www.w3.org/2000/svg"
     version="1.1"
     width="47.45113842mm"
     height="18.37486704mm"
     viewBox="0.00000000 0.00000000 134.50716953 52.08625931">

<g transform="scale(4.36982859)">   <defs>
      <style type="text/css"><![CDATA[
      .a {
        stroke: #000;
        stroke-linecap: round;
        stroke-linejoin: round;
        stroke-width: 0.01px;
      }
    ]]></style>
   </defs>
   <path class="a"
         d="M20.44481.09585c-.07268.19988-.745.41187-1.21138.38765a2.08569,2.08569,0,0,0-.96911.11508A4.81,4.81,0,0,1,17.18619.8772a1.95008,1.95008,0,0,0-.41792.12113,2.04068,2.04068,0,0,1-.70261.12114,1.3246,1.3246,0,0,0-.67231.13931,1.66646,1.66646,0,0,1-.56935.16959,1.74666,1.74666,0,0,0-.45427.09086,7.36832,7.36832,0,0,1-1.60508.27256c-.26651.01817-.54512.0424-.61781.05451a1.388,1.388,0,0,0-.59357.321.49828.49828,0,0,1-.27256.11508c-.11509.01211-.30891.0424-.424.06662s-.25439.0424-.30284.04846a.83242.83242,0,0,0-.22411.07874.40958.40958,0,0,1-.321.01211.40761.40761,0,0,0-.3089.00606.24422.24422,0,0,1-.17565.02423,1.51346,1.51346,0,0,0-.56329.17565,3.99311,3.99311,0,0,1-1.387.35736,3.76455,3.76455,0,0,0-1.06.32707.25013.25013,0,0,1-.19382.05451.60111.60111,0,0,0-.321.04846,3.24877,3.24877,0,0,1-1.32043.16355c-.86008-.01817-.98122-.01211-1.066.06057a1.90083,1.90083,0,0,1-.5633.0848,2.30479,2.30479,0,0,0-.62991.103,2.63234,2.63234,0,0,1-.73895.08479,4.29874,4.29874,0,0,0-1.08418.09691c-.00606.01212-.11509.22411-.23017.48456a1.43869,1.43869,0,0,0-.19987.68443A.81067.81067,0,0,0,.2208,5.5047c.02423.01818-.00606.09691-.06057.17565A1.38793,1.38793,0,0,0,.033,5.959,4.75935,4.75935,0,0,0,.04514,7.09158c.01817.11509.03634.24834.0424.29074s.08479.12113.17565.16959a.67273.67273,0,0,1,.26048.26045c.13325.24833.27862.26044.61781.04845a1.59669,1.59669,0,0,1,.44819-.20593c.0848-.01212.23622-.03634.33919-.05451a.57892.57892,0,0,1,.315.03028,4.752,4.752,0,0,0,1.65959-.212A3.96957,3.96957,0,0,1,4.921,7.17637a3.84543,3.84543,0,0,0,.45427-.11508A6.78837,6.78837,0,0,1,6.38067,6.819,4.67758,4.67758,0,0,0,6.95,6.69787a2.78624,2.78624,0,0,1,.8298-.05452A1.233,1.233,0,0,0,8.434,6.57673a.50078.50078,0,0,1,.30284-.06057A.64567.64567,0,0,0,9.076,6.45559a5.66528,5.66528,0,0,1,1.387-.24833,7.72047,7.72047,0,0,0,.7874-.12114,3.86694,3.86694,0,0,1,.61781-.09086,1.552,1.552,0,0,0,.424-.12113,2.03748,2.03748,0,0,1,.44215-.14537,5.96934,5.96934,0,0,0,1.169-.3089A6.18416,6.18416,0,0,1,15.90213,5.008a1.80556,1.80556,0,0,0,.56935-.0424c.12719-.04846.19988-.03029.38158.09085a.91711.91711,0,0,1,.29679.321.71722.71722,0,0,0,.3513.32707c.15748.07874.35736.18777.44821.23622a3.3359,3.3359,0,0,1,.87831,1.01154.71632.71632,0,0,0,.1393.26044,1.63512,1.63512,0,0,1,.36948.49667,3.92783,3.92783,0,0,0,.86613,1.04179,4.85884,4.85884,0,0,1,.53907.60569c0,.03634.01211.09085.01211.12719a1.16494,1.16494,0,0,0,.21805.27257c.11508.12113.28468.29678.37553.39369a2.14326,2.14326,0,0,0,.76923.57541,2.20248,2.20248,0,0,1,.533.38764.64624.64624,0,0,0,.27861.218.858.858,0,0,1,.30891.15142,2.28176,2.28176,0,0,0,.81768.3937.89983.89983,0,0,0,.321-.11508c.19383-.11508.20594-.11508.533.00606a3.516,3.516,0,0,0,1.69594.07874.85157.85157,0,0,1,.46638-.06057.584.584,0,0,0,.533-.15142,4.98088,4.98088,0,0,1,.5754-.34525,1.81344,1.81344,0,0,0,.38159-.24227,1.89671,1.89671,0,0,1,.48455-.23622,3.29975,3.29975,0,0,0,.58147-.27862.53325.53325,0,0,1,.212-.109,1.482,1.482,0,0,0,.3089-.11509,3.65862,3.65862,0,0,1,.33919-.15142c.05451-.01211.11508-.109.13325-.212a.38111.38111,0,0,1,.12114-.22411C30.9778,9.62939,29.93,8.951,29.55442,8.951a2.65631,2.65631,0,0,1-1.31435-.61175,2.72639,2.72639,0,0,0-.37552-.45427.88922.88922,0,0,1-.29074-.43c0-.07874-.01817-.1272-.03634-.103-.08479.0848-.50272-.212-.745-.533a3.09143,3.09143,0,0,0-.54512-.54512,2.29238,2.29238,0,0,1-.47244-.49666,6.33047,6.33047,0,0,0-.59358-.70261,1.422,1.422,0,0,1-.36947-.45426c.01817-.03029-.06057-.0848-.16959-.12114a1.0088,1.0088,0,0,1-.44216-.45427,4.81874,4.81874,0,0,0-.51483-.65415c-.30285-.30284-.4361-.51483-.38159-.59963.01817-.03029-.02423-.0848-.09085-.12114-.13325-.07268-.321-.38764-.26045-.44821a1.07191,1.07191,0,0,0-.18171-.3937,1.9579,1.9579,0,0,1-.2241-.41187c0-.03028-.0848-.103-.18171-.15748a.85228.85228,0,0,1-.27256-.27862,1.509,1.509,0,0,0-.38164-.39368,2.05427,2.05427,0,0,1-.39975-.40581C21.214.01711,21.18375.005,20.84457.005,20.57806.005,20.47509.02923,20.44481.09585Z"/>

</g>
</svg>
