<?xml version="1.0" encoding="UTF-8"?>
<svg xmlns="http://www.w3.org/2000/svg"
     version="1.1"
     width="29.70181234mm"
     height="42.14507405mm"
     viewBox="0.00000000 0.00000000 84.19418667 119.46630691">

<g transform="scale(4.36982859)">   <defs>
      <style type="text/css"><![CDATA[
      .a {
        stroke: #000;
        stroke-linecap: round;
        stroke-linejoin: round;
        stroke-width: 0.01px;
      }
    ]]></style>
   </defs>
   <path class="a"
         d="M11.18.28971A2.10225,2.10225,0,0,1,10.3865.9802a1.91308,1.91308,0,0,0-.45426.32708,2.67173,2.67173,0,0,1-.59358.41792,1.32681,1.32681,0,0,0-.60569.52695,1.72533,1.72533,0,0,1-.44216.44821,1.61855,1.61855,0,0,0-.41187.38159,1.21216,1.21216,0,0,1-.321.321,1.13686,1.13686,0,0,0-.29073.2665,3.826,3.826,0,0,1-1.09631.89037,1.37624,1.37624,0,0,0-.59357.55723,3.40412,3.40412,0,0,1-.75712.95094,2.61654,2.61654,0,0,0-.636.7874,1.8224,1.8224,0,0,1-.33313.41187A10.02776,10.02776,0,0,0,2.567,9.1328a3.46793,3.46793,0,0,1-.41187.62387,2.25581,2.25581,0,0,0-.43.642,2.21654,2.21654,0,0,1-.2241.3937c-.11508.1817-.27862.45427-.36947.6178a1.43592,1.43592,0,0,1-.30891.38159.49179.49179,0,0,0-.17565.23016,1.53882,1.53882,0,0,1-.33918.45427c-.29074.29679-.30285.321-.30285.6602,0,.32707.01817.35736.23016.533.29073.23622.38159.2665.54512.18171.1272-.06663.18171-.15143.49061-.745a4.16512,4.16512,0,0,1,.86614-.963,2.46644,2.46644,0,0,0,.533-.636,2.14292,2.14292,0,0,1,.34524-.41792,3.89872,3.89872,0,0,0,.50273-.62387,2.27872,2.27872,0,0,1,.61175-.81768,1.0543,1.0543,0,0,0,.28467-.315A1.31116,1.31116,0,0,1,4.79,8.93293a.84739.84739,0,0,0,.27862-.27862,3.49764,3.49764,0,0,1,.45427-.58147,4.53687,4.53687,0,0,0,.53906-.70865,1.53189,1.53189,0,0,1,.39976-.45427,6.8741,6.8741,0,0,0,.62991-.5633,1.85111,1.85111,0,0,1,.41187-.34524c.30285,0,.62992.76317.854,1.99878.06057.315.13931.67838.18171.80557a.64156.64156,0,0,1,.04845.30285,1.06431,1.06431,0,0,0,.05451.34524,5.35426,5.35426,0,0,1,.12114.57541,4.17622,4.17622,0,0,0,.12114.53906,2.16961,2.16961,0,0,1,.0848.61781,2.49649,2.49649,0,0,0,.09691.67231,1.12488,1.12488,0,0,1,.05451.5633,3.1694,3.1694,0,0,0-.03634.527,1.07833,1.07833,0,0,1-.07874.43609.87256.87256,0,0,0-.06057.51484,1.09657,1.09657,0,0,1-.03029.44216c-.04239.07874-.02422.15142.06057.25439.103.12719.11509.212.0848.56329a1.94246,1.94246,0,0,1-.09691.53906,1.84117,1.84117,0,0,0-.06057.55724c0,.24228-.00606.75106-.02423,1.13264-.01211.38159-.02422.8722-.01817,1.09025.02423,1.98666-.03028,2.96788-.17565,3.07691-.218.15748-.957-.03635-1.3628-.36342a.863.863,0,0,0-.50273-.19988.37867.37867,0,0,0-.47849.34525,1.13074,1.13074,0,0,1-.24834.38764.78426.78426,0,0,0-.218.38158,1.37684,1.37684,0,0,1-.02423.218.80365.80365,0,0,0-.01817.1272,1.48071,1.48071,0,0,1-.19382.29679.81616.81616,0,0,0-.18171.35736,1.5698,1.5698,0,0,1-.212.48455,1.72949,1.72949,0,0,0-.212.45427,2.16811,2.16811,0,0,1-.212.49061c-.11508.218-.28467.54512-.36947.72683a2.81848,2.81848,0,0,1-.23016.424c-.18776.21805-.23622.83585-.07268.957a3.62256,3.62256,0,0,0,1.02361.27862,1.0695,1.0695,0,0,1,.76923.28467c.09691.1696.75712.1696.848,0a.36987.36987,0,0,1,.19382-.16353,5.89806,5.89806,0,0,1,1.47789-.1272A.81979.81979,0,0,0,8.842,26.928c.15142-.02423.34525-.05452.43-.06057.19988-.01212.60569-.19988.60569-.27256a2.22412,2.22412,0,0,1,1.19321-.46033.4424.4424,0,0,0,.26651-.05451.35576.35576,0,0,1,.23622-.06057c.03028.01817.16353-.03634.28467-.12114a.89824.89824,0,0,1,.3937-.15142.2698.2698,0,0,0,.19988-.06057,3.23036,3.23036,0,0,1,.84191-.424,4.41043,4.41043,0,0,0,1.19927-.83586,2.6878,2.6878,0,0,1,.55723-.41187.698.698,0,0,0,.315-.27256,4.12658,4.12658,0,0,1,.92671-.79344,1.64469,1.64469,0,0,0,.33313-.51484.47431.47431,0,0,1,.1272-.19988.27694.27694,0,0,0,.09085-.18171.55694.55694,0,0,1,.11508-.24833.93543.93543,0,0,0,.13325-.44821c.02423-.27862.01212-.3089-.15142-.38159a1.11674,1.11674,0,0,0-.92671.04846,3.27121,3.27121,0,0,1-.533.18171,4.42542,4.42542,0,0,0-.57541.16959,6.13271,6.13271,0,0,1-1.36281.315,2.99919,2.99919,0,0,0-.53906.09085c-.77529.19988-1.06.13325-1.0963-.27256a5.63958,5.63958,0,0,0-.09086-.59963c-.09691-.50273-.006-.72078.38765-.9146a1.52468,1.52468,0,0,0,.3089-.1817,3.38837,3.38837,0,0,1,.86614-.424c.04845,0,.27862-.04845.52089-.103a1.23577,1.23577,0,0,0,.81163-.50272,4.01631,4.01631,0,0,0,.47244-.55723.441.441,0,0,1,.24227-.20594.47461.47461,0,0,0,.24834-.23016,2.27418,2.27418,0,0,1,.50878-.62386,2.729,2.729,0,0,0,.53906-.7874.76859.76859,0,0,1,.15748-.26045.74313.74313,0,0,0,.17565-.321,1.63087,1.63087,0,0,1,.38159-.77528,8.29647,8.29647,0,0,0,.61175-1.10236,4.868,4.868,0,0,1,.52089-.9267.8046.8046,0,0,0,.212-.30285,1.60919,1.60919,0,0,1,.30285-.45427.45251.45251,0,0,0,.006-.71471c-.16353-.17565-.20593-.18777-.45426-.15748-.46639.05451-.67838.23016-.98728.80557a6.08387,6.08387,0,0,1-.41187.62386,5.15378,5.15378,0,0,0-.39976.61175,6.00907,6.00907,0,0,1-.81162.9267,6.59407,6.59407,0,0,0-.77529.854,5.03448,5.03448,0,0,1-1.10235,1.11447,3.82581,3.82581,0,0,0-.48456.39975,4.96312,4.96312,0,0,1-.53906.45427,4.32777,4.32777,0,0,0-.46638.36947c-.18171.18171-.315.17565-.424-.01817a.25149.25149,0,0,1,.00606-.23622.91161.91161,0,0,0-.103-.7026c-.06663-.103-.06663-.20593.01211-.65414.04846-.29074.103-.739.12114-.99334s.04846-.62992.06663-.82979a2.80342,2.80342,0,0,0-.00606-.88431c-.01817-.02423.01212-.13325.05451-.24834A1.62933,1.62933,0,0,0,12.458,12.355a1.00333,1.00333,0,0,1,.06057-.51484.66409.66409,0,0,0,.04845-.36341,1.18656,1.18656,0,0,1,.02423-.62386.62669.62669,0,0,0,0-.39976c-.04846-.103-.03634-.18171.04845-.33919a.81415.81415,0,0,0,.09692-.35735,1.15578,1.15578,0,0,1,.07268-.38765.78653.78653,0,0,0,.02423-.47244,2.69835,2.69835,0,0,1,.13325-1.26589.69325.69325,0,0,0,.03634-.36947c-.01817-.109-.04846-.37553-.06663-.59358s-.0424-.46032-.06057-.54512a.5116.5116,0,0,1,.05452-.29679c.06662-.12114.06057-.18776-.03029-.4361a3.39991,3.39991,0,0,1-.18776-.99333c.01211-.09085.06662-1.381.06057-1.48394,0-.04846,0-.32708.00605-.61175a2.6083,2.6083,0,0,0-.08479-.80557,2.19232,2.19232,0,0,1-.09691-.61175A.75443.75443,0,0,0,12.3671.27756C12.1551.01106,12.143.005,11.78564.005,11.42829.0111,11.41618.0111,11.18.28971Z"/>

</g>
</svg>
