<?xml version="1.0" encoding="UTF-8"?>
<svg xmlns="http://www.w3.org/2000/svg"
     version="1.1"
     width="39.34132767mm"
     height="64.29530000mm"
     viewBox="0.00000000 0.00000000 111.51878559 182.25435849">

<g transform="scale(6.67261330)">   <defs>
      <style type="text/css"><![CDATA[
      .a {
        stroke: #000;
        stroke-miterlimit: 10;
        stroke-width: 0.15px;
      }
    ]]></style>
   </defs>
   <path class="a"
         d="M10.22769,2.91363c-.353.44862-1.1151,1.74963-2.625,4.33333A32.77035,32.77035,0,0,0,5.436,11.28863c-.07.17311-.323.81027-.70833,1.66667-.2623.58293-.39081.83379-.58334,1.25-.42262.91367-.64182,1.51753-.95833,2.33333-.81046,2.08893-.96946,2.24605-1.91476,4.68733-.01585.04092-.36171.93961-.733,2.16638a12.518,12.518,0,0,0-.41386,2.06107C.026,26.29225.0819,26.54171.22768,26.747a1.25953,1.25953,0,0,0,1.33324.44324,1.1994,1.1994,0,0,0,.60468-.4825A27.40676,27.40676,0,0,0,4.71624,22.356c.89536-2.14264.80244-1.416,2.21976-4.609,1.34771-3.03621,1.016-2.75661,1.64078-3.90247,1.42062-2.60533,2.24556-2.41849,4.06755-5.43086C13.95581,6.2453,13.562,6.093,14.561,4.9553a7.9221,7.9221,0,0,0,2.033-3.0997A1.38915,1.38915,0,0,0,16.5235.94825,1.53167,1.53167,0,0,0,15.532.23969,3.84059,3.84059,0,0,0,13.88636.11284C12.77426.30993,11.6064,1.16115,10.22769,2.91363Z"/>

</g>
</svg>
