<?xml version="1.0" encoding="UTF-8"?>
<svg xmlns="http://www.w3.org/2000/svg"
     version="1.1"
     width="25.18490785mm"
     height="44.58840012mm"
     viewBox="0.00000000 0.00000000 71.39030681 126.39235506">

<g transform="scale(5.48693194)">   <defs>
      <style type="text/css"><![CDATA[
      .a {
        stroke: #000;
        stroke-linecap: round;
        stroke-linejoin: round;
        stroke-width: 0.01px;
      }
    ]]></style>
   </defs>
   <path class="a"
         d="M9.34158.04413a2.90141,2.90141,0,0,1-.51484.07874A2.20544,2.20544,0,0,0,7.16108,1.098a2.66876,2.66876,0,0,1-.38764.51483c-.36341.38764-.49667.67838-.38159.83586.0424.05451.12114.17565.18171.27256a3.42981,3.42981,0,0,0,1.46577.82979,3.40062,3.40062,0,0,1,.65415.26045.61213.61213,0,0,0,.58752.00606c.16354-.103.33313,0,.36947.2241.01212.07874.06057.3513.109.59964.07874.424.07874.46638-.03635.68443a.66642.66642,0,0,0-.07874.34524.87886.87886,0,0,1-.14536.46033,3.45668,3.45668,0,0,0-.28464.86617c-.05451.28467-.109.5754-.12719.642s-.04846.23016-.07874.36341a.71531.71531,0,0,1-.16354.33313c-.56329.45427-.56935.46638-.64809.81163a1.40052,1.40052,0,0,0,.06057.91459,2.89627,2.89627,0,0,1,.103.76923.44788.44788,0,0,0,.06057.212,1.2246,1.2246,0,0,1-.02423.7753,1.37487,1.37487,0,0,0,.36947.66625,2.65254,2.65254,0,0,1,.44215,1.08418.57369.57369,0,0,0,.06662.27862,1.39868,1.39868,0,0,1,.09692.424.29865.29865,0,0,0,.05451.20594,1.36075,1.36075,0,0,1,.15749.321c.05451.15748.212.51483.33918.78134a2.01906,2.01906,0,0,1,.218,1.29618,1.282,1.282,0,0,1-.0848.3937.22937.22937,0,0,0-.01211.2241c.09085.15748-.18776.642-.51484.9146a.8983.8983,0,0,0-.27861.321.49483.49483,0,0,1-.14537.23622.7565.7565,0,0,0-.18172.26045c-.06056.1817-.27861.3513-.82374.65414a3.56694,3.56694,0,0,1-1.24166.46034,2.422,2.422,0,0,0-1.00545.38764l-.45427.2665-.81768.03029c-.44821.01817-.93277.03634-1.08419.03028a.9055.9055,0,0,0-.35736.05452.20567.20567,0,0,1-.18775.006,1,1,0,0,0-.40581.00606.73273.73273,0,0,1-.44216-.00606.28272.28272,0,0,0-.29679.02422.718.718,0,0,1-.50272.04241,1.07049,1.07049,0,0,0-.90854.17564.79382.79382,0,0,0-.38762.75111c.02423.24833.09691.315.636.58753a2.624,2.624,0,0,0,.89642.23621,5.32527,5.32527,0,0,1,.64809.09692.64729.64729,0,0,0,.35736-.11508,1.59075,1.59075,0,0,1,.49666-.19383,1.49812,1.49812,0,0,0,.34525-.103.17.17,0,0,1,.212.05451.80909.80909,0,0,0,.98728.14537c.15747-.08479.23621-.09691.34524-.04845a.76736.76736,0,0,0,.45427-.01211,5.25622,5.25622,0,0,1,.79345-.09692c.39976-.01818.49667-.04846.65415-.17565.19382-.16353.23016-.17565.79951-.27861a.91713.91713,0,0,0,.67232-.3937c.19382-.20594.36341-.33313.44215-.33313a.51312.51312,0,0,0,.27862-.13325,4.87074,4.87074,0,0,0,.89037-.93277c0-.12114.34524-.48455.533-.56329a.83553.83553,0,0,0,.30891-.3089.65718.65718,0,0,1,.25439-.27256c.09691-.03029.11508-.07269.09085-.18777a.23263.23263,0,0,1,.09085-.26045,1.93887,1.93887,0,0,0,.44822-.49062,5.56514,5.56514,0,0,0,.60569-1.21138,1.64289,1.64289,0,0,1,.1817-.50271,2.85209,2.85209,0,0,0,.212-.533.52312.52312,0,0,1,.09085-.218c.07874-.109.09085-.19382.09085-.56329a2.34839,2.34839,0,0,1,.103-.60569.90435.90435,0,0,0,0-.66626.96447.96447,0,0,1-.05452-.28468,1.91763,1.91763,0,0,0-.12114-.424,2.28206,2.28206,0,0,1-.19988-.72683,2.41792,2.41792,0,0,0-.12114-.46638.85059.85059,0,0,1-.07874-.3513,1.14065,1.14065,0,0,0-.29073-.67232.63305.63305,0,0,1-.14536-.315,1.08854,1.08854,0,0,0-.06663-.315,1.45235,1.45235,0,0,1-.07874-.26045,3.53428,3.53428,0,0,0-.22411-.51483,7.69272,7.69272,0,0,1-.35735-.848,4.9544,4.9544,0,0,0-.18777-.51484c-.26044-.46638-.26044-.39975-.04845-.77528a3.19419,3.19419,0,0,1,.44821-.58752,2.49734,2.49734,0,0,0,.57541-.90854,1.79509,1.79509,0,0,1,.17565-.41187,2.42671,2.42671,0,0,0,.218-.59963,3.17578,3.17578,0,0,1,.218-.636,2.17935,2.17935,0,0,0,.17565-.46032.588.588,0,0,1,.11508-.23622.6.6,0,0,0,.12114-.29073c0-.0848.00606-.19383.00606-.24228a2.18441,2.18441,0,0,0-.03028-.33313,3.10087,3.10087,0,0,1-.01818-.96911c.0424-.23622-.07268-.46032-.49666-.9691-.212-.24228-.38159-.3937-.46033-.3937a1.01062,1.01062,0,0,1-.38764-.19988.906.906,0,0,0-.636-.20593,11.95815,11.95815,0,0,1-1.21139-.103A1.07388,1.07388,0,0,0,9.34158.04413Z"/>

</g>
</svg>
