<?xml version="1.0" encoding="UTF-8"?>
<svg xmlns="http://www.w3.org/2000/svg"
     version="1.1"
     width="12.32050633mm"
     height="17.32299917mm"
     viewBox="0.00000000 0.00000000 34.92430185 49.10460051">

<g transform="scale(4.22440051)">   <defs>
      <style type="text/css"><![CDATA[
      .a {
        stroke: #000;
        stroke-linecap: round;
        stroke-linejoin: round;
        stroke-width: 0.01px;
      }
    ]]></style>
   </defs>
   <path class="a"
         d="M6.77315.14784a.29854.29854,0,0,1-.16959.19988.68218.68218,0,0,0-.27256.212.82953.82953,0,0,1-.27862.212,1.10891,1.10891,0,0,0-.30285.1817,1.01606,1.01606,0,0,1-.33313.18171,1.22063,1.22063,0,0,0-.28467.12114.48873.48873,0,0,1-.24834.0848,1.24343,1.24343,0,0,0-.72077.43c-.02423.06057-.06057.11508-.09085.11508-.17565,0-.3513.70866-.24834.98727a1.12556,1.12556,0,0,1-.04239.46033A5.31507,5.31507,0,0,0,3.62356,4.3392a2.55174,2.55174,0,0,1-.11508.49666.66659.66659,0,0,0-.0424.4361.7948.7948,0,0,1-.27862.89642c-.16354.15748-.28468.315-.27256.3513a3.51935,3.51935,0,0,1,.03028.36342,1.12531,1.12531,0,0,1-.15748.64809,1.17858,1.17858,0,0,1-.2241.3513,1.39157,1.39157,0,0,0-.30285.24228.90614.90614,0,0,1-.36341.24227c-.07269,0-.20594.19988-.45427.69655A3.22216,3.22216,0,0,1,.43762,10.36585a.79932.79932,0,0,0-.24227.28468.29035.29035,0,0,1-.0848.15748c-.0848.07874-.11508.24833-.103.50272.01212.19988.55724.36341.98122.29073.29679-.04845.33313-.07268.44216-.3089a.65934.65934,0,0,1,.36947-.36342,3.30086,3.30086,0,0,0,.96305-.8843,2.42344,2.42344,0,0,1,.40581-.38159A.89323.89323,0,0,0,3.46,9.33618a.91881.91881,0,0,1,.16959-.29073A3.76,3.76,0,0,0,4.102,8.42158a2.17491,2.17491,0,0,1,.4361-.47243,1.4891,1.4891,0,0,0,.32707-.321,2.0895,2.0895,0,0,1,.22411-.321,6.43331,6.43331,0,0,0,.48455-.87825,4.49053,4.49053,0,0,1,.41187-.745.42616.42616,0,0,0,.11508-.2241,1.01342,1.01342,0,0,1,.19382-.36342c.07874-.09691.13326-.20593.109-.24228-.01817-.03028.09085-.18776.24228-.34524.18776-.19382.27256-.321.25439-.3937A.25517.25517,0,0,1,6.9912,3.885c.06662-.06057.103-.13931.0848-.17565a2.22284,2.22284,0,0,1,.321-.96911,1.15589,1.15589,0,0,0,.06663-.86008c-.05451-.07874.14536-.48455.25439-.52695a2.44791,2.44791,0,0,0,.29073-.24228A.53494.53494,0,0,0,8.06933.24476c-.16959-.18171-.212-.19383-.71472-.22411C6.81555-.00963,6.81555-.00963,6.77315.14784Z"/>

</g>
</svg>
