<?xml version="1.0" encoding="UTF-8"?>
<svg xmlns="http://www.w3.org/2000/svg"
     version="1.1"
     width="21.84224327mm"
     height="62.16034766mm"
     viewBox="0.00000000 0.00000000 61.91500224 176.20254021">

<g transform="scale(4.24914127)">   <defs>
      <style type="text/css"><![CDATA[
      .a {
        stroke: #000;
        stroke-miterlimit: 10;
        stroke-width: 0.15px;
      }
    ]]></style>
   </defs>
   <path class="a"
         d="M6.879,7.85509a28.764,28.764,0,0,0-1.35788,2.81072c-.08481.20312-.21292.49545-.35733.899-.3223.9006-.52271,1.84222-.86539,2.73529-.25357.66079-.58416,1.29272-.78888,1.97027a11.22463,11.22463,0,0,0-.31506,1.56836c-.75214,4.95441-.79959,5.79364-1.00424,6.61414-.26956,1.08081-.58106,1.98263-.74873,2.46475A12.70415,12.70415,0,0,1,.35213,29.647c-.08886.09763-.31973.33539-.27026.58676a.68249.68249,0,0,0,.64087.465c.40051-.0007.65994-.44476,1.1875-1.25.87439-1.33463,1.00467-1.40149,1.21875-1.78125,2.42764-4.30682,4.18749-15.71866,4.18749-15.71866A15.24267,15.24267,0,0,1,9.69414,6.67829c.39588-.61313.5954-.57934.63468-.56964.18265.04511.243.39523.26892.55893A34.40629,34.40629,0,0,1,10.778,14.0788c-.043.45386-.07468.76789-.13071,1.2052-.09271.72355-.15735.9852-.23389,2.01886a27.21891,27.21891,0,0,0-.02835,3.59488,7.80229,7.80229,0,0,1,.02335,2.65024,6.236,6.236,0,0,1-.24811.7446,16.6082,16.6082,0,0,1-1.1875,2.5c-1.34445,2.30875-.97482,4.152-2.91974,7.58389-.50342.88831-.60123.87509-1.04422,1.74668a11.99478,11.99478,0,0,0-1.07123,5.15716.11025.11025,0,0,0,.028.08786c.13446.12433.769-.23947,1.14871-.69867a2.37609,2.37609,0,0,0,.48346-1.06441c.297-1.429.945-1.66941,2.21874-5.03126.31285-.82571.20552-.63107.92155-2.62845.40912-1.14117.60788-1.81821.95941-2.61594q1.18089-2.67984,2.16046-5.4425a13.72738,13.72738,0,0,0,.45374-1.466,15.0327,15.0327,0,0,0,.26428-1.74146l.62375-5.56921c.058-.51847.11624-1.03775.22122-1.54877.12875-.62674.21167-.962.31757-1.42905a24.62034,24.62034,0,0,0,.39053-2.4649c.09488-.73758.21234-1.66141.31249-2.96875,0,0,.31394-4.098-.56249-5.9375a1.09761,1.09761,0,0,0-.62058-.6474,1.10859,1.10859,0,0,0-.81693.11616C10.55083,1.16,6.87905,7.855,6.879,7.85509Z"/>
   <path class="a"
         d="M6.16784,15.29639a1.51187,1.51187,0,0,0-.46585-.54083.479.479,0,0,0-.641.10336.9172.9172,0,0,0-.06559.44019,3.77783,3.77783,0,0,1-.62582,1.53445,1.60358,1.60358,0,0,0-.12421,1.58774c.126.1901.17728.168.23569.32434.14957.40024-.22867.8335-1.03953,1.95319-.64083.88492-.84841,1.22714-.75,1.59375a.994.994,0,0,0,.31251.46875,1.73855,1.73855,0,0,0,1.21875.34376,8.641,8.641,0,0,1,2.75,1.03124c1.99728.92258,2.92178,1.821,3.61114,1.39847a.49079.49079,0,0,0,.16913-.1366,2.26732,2.26732,0,0,0,.68039-1.93414c-.06192-.19483-.177-.37049-.229-.56821-.12857-.48907.139-1.05981-.12488-1.49124a1.851,1.851,0,0,0-.39215-.41507c-.77368-.73407-.55222-1.52325-1.12092-2.322-.39809-.55911-.52746-.20163-1.41408-.99713A12.19388,12.19388,0,0,1,6.16784,15.29639Z"/>

</g>
</svg>
