<?xml version="1.0" encoding="UTF-8"?>
<svg xmlns="http://www.w3.org/2000/svg"
     version="1.1"
     width="43.50756031mm"
     height="62.79079052mm"
     viewBox="0.00000000 0.00000000 123.32852795 177.98962321">

<g transform="scale(3.34122239)">   <defs>
      <style type="text/css"><![CDATA[
      .a {
        stroke: #000;
        stroke-linecap: round;
        stroke-linejoin: round;
        stroke-width: 0.01px;
      }
    ]]></style>
   </defs>
   <path class="a"
         d="M20.85142.0558a.58561.58561,0,0,1-.29074.05451c-.103-.06663-.77528.4361-.77528.58146a1.53766,1.53766,0,0,1-.59963.45427.892.892,0,0,0-.49061.28468.50514.50514,0,0,1-.36948.16353.4228.4228,0,0,0-.11508.18777,1.38034,1.38034,0,0,1-.20593.321c-.38159.41187-.46638.58147-.45427.87825a.70813.70813,0,0,1-.27256.67232.51316.51316,0,0,0-.15748.26045.443.443,0,0,1-.15142.25439c-.12114.11508-.14537.18171-.1272.41793a.68974.68974,0,0,1-.14536.51483.65176.65176,0,0,0-.04846.745c.12114.19988.09691.36342-.09085.61175-.13931.18171-.15143.24228-.12114.56329a1.90565,1.90565,0,0,0,.109.51484,1.57812,1.57812,0,0,1,.04846.57541,6.39914,6.39914,0,0,0,0,1.18109,4.64268,4.64268,0,0,0,.23016,1.53846c.07874.12719.09085.20593.04846.29073-.03029.06057-.0424.109-.01818.109.01818,0-.006.06662-.06056.15142-.07874.12114-.0848.18171-.03029.27862a.48589.48589,0,0,1-.12719.53906c-.12114.12114-.1272.17565-.109.7874.00606.18171.00606.49667,0,.69654s-.01211.40582-.01211.45427-.01212.19988-.03029.33313-.03634.38159-.04845.55724a.90822.90822,0,0,1-.103.41187.40906.40906,0,0,0-.0424.30284.97111.97111,0,0,1-.03028.39976.41829.41829,0,0,0,0,.321c.0424.103.02423.18776-.0848.39975a1.454,1.454,0,0,0-.14537.3513.78009.78009,0,0,1-.09691.26045,2.47219,2.47219,0,0,0-.12113.315.68881.68881,0,0,1-.20594.30284l-.19382.1696L15.0731,18.069a2.80478,2.80478,0,0,1-.49061-.33313c-.109-.109-.16353-.1272-.24833-.08481a.95169.95169,0,0,1-.72683-.03027c-.103-.05452-.18171-.11509-.18171-.13932-.00605-.02422-.01211-.38764-.02422-.80557a2.77862,2.77862,0,0,0-.11509-.93882,2.16714,2.16714,0,0,1-.1817-.89643,4.056,4.056,0,0,0,.02423-1.18109.87467.87467,0,0,1,.01817-.46639c.06662-.30284.06662-.38764,0-.47849a2.32025,2.32025,0,0,1,.03028-1.13264.55165.55165,0,0,0-.06057-.45427c-.13325-.26651-.14536-.4361-.03028-.59358.08479-.11508.06662-.27862-.09691-.73289a.49053.49053,0,0,1-.03635-.35735.853.853,0,0,0,.04846-.80557,1.11245,1.11245,0,0,1-.0848-.44821.3463.3463,0,0,0-.06057-.24228.51306.51306,0,0,1-.09691-.25439.38793.38793,0,0,0-.09691-.22411,1.91344,1.91344,0,0,1-.2665-.81768A1.659,1.659,0,0,0,12.19,6.17325a.81792.81792,0,0,1-.15746-.34518,1.02441,1.02441,0,0,0-.08479-.315.34394.34394,0,0,1-.02423-.30284c.04846-.0848.00606-.1696-.18776-.39976a2.59931,2.59931,0,0,1-.321-.46638,1.44643,1.44643,0,0,0-.24228-.33313.48692.48692,0,0,1-.16959-.27862.82812.82812,0,0,0-.0848-.29679c-.04845-.09085-.13325-.2665-.19382-.38764a.35447.35447,0,0,0-.33919-.26045.7655.7655,0,0,1-.33918-.14536,1.27265,1.27265,0,0,0-.50273-.315,2.60485,2.60485,0,0,1-.45426-.18777,2.36672,2.36672,0,0,0-.49667-.1817,7.3135,7.3135,0,0,0-1.02968.218.29055.29055,0,0,1-.19382-.03029c-.08479-.04845-.16353-.03028-.3089.05451-.109.06663-.218.109-.24833.09086-.09691-.06057-.41187.04239-.41187.13325a.93425.93425,0,0,1-.09086.27256c-.09085.16959-.09085.19382.0424.35736.07874.09691.20594.26044.28468.36341a1.21467,1.21467,0,0,0,.73288.424.41454.41454,0,0,1,.23017.103,1.26122,1.26122,0,0,0,.3513.218,1.65238,1.65238,0,0,1,.69048.64809c.04846.09085.15143.27862.23017.41793a.63155.63155,0,0,1,.103.3089c-.01817.03028.01818.0848.0848.12114a.60969.60969,0,0,1,.19988.321,3.20431,3.20431,0,0,0,.2665.58752,1.86493,1.86493,0,0,1,.23622.69655,2.71294,2.71294,0,0,0,.15143.6178.77025.77025,0,0,1,.07874.36948.41341.41341,0,0,0,.07268.27256.93947.93947,0,0,1,.00606.7026c-.02423.03028-.00606.12719.03028.20593.05451.12114.0424.25439-.07874.69049a3.70762,3.70762,0,0,0-.13931,1.25984,3.87115,3.87115,0,0,1-.0424.8298c-.03028.06662-.00605.17565.07874.31495a.4486.4486,0,0,1,.06057.44216,4.69808,4.69808,0,0,0,.06057,1.61114.39085.39085,0,0,1,.00606.35735.35975.35975,0,0,0,.02423.35736.2827.2827,0,0,1,.02422.29679.35231.35231,0,0,0-.01817.26045,1.92859,1.92859,0,0,1,.05451.40581c.00606.15142.01818.315.02423.36342a1.1934,1.1934,0,0,1-.05451.321.85218.85218,0,0,0,.24833.81768.74882.74882,0,0,1,.1696.28468.21861.21861,0,0,0,.12113.15142.3574.3574,0,0,1,.15143.19988c.04845.17565.33918.33313.69049.37553a2.24136,2.24136,0,0,1,.9691.46638.6206.6206,0,0,0,.32707.109,3.50257,3.50257,0,0,1,1.25984.64808,2.04946,2.04946,0,0,0,.5209.26045.50448.50448,0,0,1,.2665.11508,1.08468,1.08468,0,0,0,.28467.15143c.19988.06662.30285.2665.30891.60569.00605.53906-.27862.82979-.90248.93276a2.74724,2.74724,0,0,0-.4361.103c-.07268.02423-.15142-.00606-.24833-.103-.12114-.12114-.14537-.19988-.13931-.4785a.91119.91119,0,0,0-.09691-.51483,1.80594,1.80594,0,0,1-.13931-.315,1.32279,1.32279,0,0,0-.8722-.83586.58336.58336,0,0,1-.212-.13325.91649.91649,0,0,0-.24228-.15748,3.369,3.369,0,0,0-.99333.18171c-.04845.01211-.16353-.05451-.26045-.15142a1.27286,1.27286,0,0,0-.424-.26045.45331.45331,0,0,0-.47244.02423,2.0923,2.0923,0,0,1-.33919.12719,1.2649,1.2649,0,0,0-.39369.17565,2.4889,2.4889,0,0,1-1.07208.26045,1.03856,1.03856,0,0,0-.3089.0848c-.09691.04845-.15142.03634-.27862-.06057a1.13466,1.13466,0,0,0-.90248-.0848.29191.29191,0,0,1-.218.04846.51181.51181,0,0,0-.29073.06057,1.19634,1.19634,0,0,1-.47849.09691H5.30938a1.06276,1.06276,0,0,1-.5754-.11508,4.17315,4.17315,0,0,0-1.08419-.38159.6663.6663,0,0,1-.58146-.40581c-.15143-.29073-.103-.59358.16353-1.02362a2.86549,2.86549,0,0,0,.27862-.61781,1.28742,1.28742,0,0,1,.315-.533.68638.68638,0,0,0,.212-.315.53478.53478,0,0,1,.17565-.28468,4.15782,4.15782,0,0,0,.44216-.56329c.2665-.3937.2665-.39976.15748-.54512-.18171-.24228.04845-.5633.30284-.424a1.10519,1.10519,0,0,0,.854-.26044.545.545,0,0,0,.06057-.69049.59527.59527,0,0,1-.11508-.27862.43619.43619,0,0,0-.22411-.2665.397.397,0,0,0-.46638-.06663,1.87913,1.87913,0,0,0-.4785.27862c-.23622.19988-.29073.2241-.47849.20593-.05452-.00605-.13931.06057-.19383.15748a1.723,1.723,0,0,1-.73288.642,3.34514,3.34514,0,0,0-.636.52695c-.36341.41187-.854.91459-.99939,1.03573a3.97224,3.97224,0,0,0-.56329.6602A2.62059,2.62059,0,0,0,.7667,17.663a.60054.60054,0,0,1-.14536.27257,1.4036,1.4036,0,0,0-.22411.47849,2.70245,2.70245,0,0,1-.16959.4785,1.21845,1.21845,0,0,0-.103.3937c-.00606.11508-.0424.533-.0848.93276a4.60918,4.60918,0,0,0-.02423.87825,1.83638,1.83638,0,0,1,.05452.3089.65161.65161,0,0,0,.424.54513,1.33745,1.33745,0,0,1,.41791.30306.78443.78443,0,0,0,.32707.24228.9126.9126,0,0,1,.33313.15748c.1272.08479.2665.14536.30285.12719a1.75636,1.75636,0,0,1,.97516.24228c.24227.16354.26045.16959,1.12658.15748.48456,0,.99939-.02423,1.15082-.0424s.44821-.04845.66626-.06057a3.3873,3.3873,0,0,0,.81162-.18171,2.55132,2.55132,0,0,1,.59358-.15748,1.004,1.004,0,0,0,.35739-.09085c.09691-.05451.20593-.07874.24227-.05451a.97365.97365,0,0,0,.58752.00606,1.14768,1.14768,0,0,1,.424-.07269,3.15212,3.15212,0,0,0,.527-.07268.63563.63563,0,0,1,.38158.01211c.17566.06057.26045.04846.636-.08479a2.53827,2.53827,0,0,1,1.04785-.15143,2.98932,2.98932,0,0,1,.73894.07874.87341.87341,0,0,1,.33919.636,1.25391,1.25391,0,0,0,.12719.36341.19177.19177,0,0,1,.01817.24228,1.41094,1.41094,0,0,1-.59963.54512.864.864,0,0,0-.29679.18777,6.1604,6.1604,0,0,1-1.2235.64809c-.02422-.00606-.103.09691-.16959.23622a.69878.69878,0,0,1-.321.32707,1.28189,1.28189,0,0,0-.40581.36341c-.11508.15143-.27862.36342-.35736.46639a1.7082,1.7082,0,0,0-.32707.854c.0848.13931-.13325.41793-.44216.56935a1.31945,1.31945,0,0,0-.48455.38764,1.99761,1.99761,0,0,1-.35736.38764,1.96254,1.96254,0,0,0-.53906.56935,3.52521,3.52521,0,0,1-.54512.533c-.20594.15748-.43.33919-.50273.41187-.07268.06662-.18776.16959-.25439.22411a.80513.80513,0,0,0-.18776.34523,1.0944,1.0944,0,0,1-.315.48456c-.16959.16354-.23622.27256-.20593.33918.02422.07268-.05452.18776-.26045.38764a1.30189,1.30189,0,0,0-.55118.98122,1.02583,1.02583,0,0,1-.4361.7874c-.12114.09691-.15142.15142-.19988.45427a.75234.75234,0,0,1-.29073.48455,1.44573,1.44573,0,0,0-.27862.47244,3.6808,3.6808,0,0,1-.33918.64809.81786.81786,0,0,0-.18777.38764.32448.32448,0,0,1-.09085.23622c-.06663.07874-.11508.1696-.103.19988a3.35129,3.35129,0,0,1-.23016.79346.44236.44236,0,0,0-.05451.25439c.04845.08479-.18777.52695-.30891.56934-.09691.03635-.09691.04846.01212.12114.11508.0848.14536.26045.14536.9146,0,.19987.00606.44215.00606.54512.00606.212,0,.6178-.01817.9691a1.67859,1.67859,0,0,0,.24833.7874,7.36441,7.36441,0,0,1,.30891.69655.18542.18542,0,0,0,.16959.15748,1.13214,1.13214,0,0,1,.41793.3089,1.60332,1.60332,0,0,0,.52089.37553.55935.55935,0,0,1,.28468.19382.22956.22956,0,0,0,.14536.11508.5744.5744,0,0,1,.23622.12114c.13931.11508.17565.11508.29679.0424a.48764.48764,0,0,1,.55724.04239c.20593.13326.25439.12114.41792-.06056.15142-.17565.43-.33919.49061-.28468a1.17574,1.17574,0,0,0,.58147-.218,1.46018,1.46018,0,0,1,.24833-.30284.7699.7699,0,0,0,.18544-1.07289l-.00373-.00524a3.11285,3.11285,0,0,0-.33919-.56935,1.47227,1.47227,0,0,1-.21808-.43613,1.35909,1.35909,0,0,0-.15142-.36947.19776.19776,0,0,1-.02423-.212,2.08669,2.08669,0,0,0,.05455-.47853,1.85452,1.85452,0,0,1,.03029-.43.65613.65613,0,0,0-.05452-.3089,1.17073,1.17073,0,0,1-.03028-.64809A1.7929,1.7929,0,0,0,6.121,36.94844c-.04846-.0848-.07874-.17565-.06057-.20594a.48558.48558,0,0,0-.02423-.24833c-.0424-.16354-.03028-.218.06663-.315.109-.109.11508-.15142.05451-.29679a.75009.75009,0,0,1-.05451-.27862.62714.62714,0,0,0-.0848-.3089c-.103-.19382-.103-.20594.01817-.44821a.6275.6275,0,0,0,.09691-.33919.37417.37417,0,0,1,.04846-.24833.94859.94859,0,0,0,.0848-.37553,2.47574,2.47574,0,0,1,.07263-.48453c.0424-.15143.0848-.33313.09691-.41187a.48639.48639,0,0,1,.06663-.212,2.09862,2.09862,0,0,0,.23623-.75713c-.04845-.07874.24228-.44821.424-.54512.109-.06057.13931-.109.11508-.19988-.03028-.0848.03634-.19382.25439-.41793.15748-.16353.33919-.3513.39976-.424.06057-.06663.13325-.109.16353-.09085s.109-.07269.18171-.212c.06663-.13326.15142-.24228.18171-.24228a1.53836,1.53836,0,0,0,.33313-.424c.3089-.48455.50878-.64808.68443-.55117a.861.861,0,0,1,.35736.71471A2.54452,2.54452,0,0,0,9.949,30.201a.96284.96284,0,0,1,.02422.72077c-.04845.0848-.03634.15142.03635.26045a.38807.38807,0,0,1,.06057.2665.86677.86677,0,0,0,.02422.38159,3.22575,3.22575,0,0,1,.0424,1.08418.45392.45392,0,0,0,.07268.38765.75548.75548,0,0,1,.11509.36341,4.30441,4.30441,0,0,1,0,1.10842,1.01782,1.01782,0,0,0,.04845.45426,6.69627,6.69627,0,0,1,.109,2.32586.72724.72724,0,0,0-.08479.24227,2.89563,2.89563,0,0,0,.03633,1.08419,1.8103,1.8103,0,0,1-.08479.98122,4.03431,4.03431,0,0,0-.103.87219c-.01817.41187-.04846.99334-.06057,1.29618-.01817.2968-.0424.87827-.05452,1.278a3.53554,3.53554,0,0,1-.12113.963,1.85038,1.85038,0,0,0-.12114.47851c-.01817.13325-.05451.34524-.0848.46031a.87711.87711,0,0,0-.00606.37553A10.27542,10.27542,0,0,1,9.743,47.45112c-.0424.29679-.03634.424.01817.50272.06663.09086.06057.15748-.01817.3513-.08479.218-.08479.26044,0,.40582a1.71648,1.71648,0,0,1,.1272.50878,1.20422,1.20422,0,0,0,.15748.52089,2.18241,2.18241,0,0,1,.3089.81163c0,.15747.54512.60569.69654.56935a.36327.36327,0,0,1,.24834.04845,1.98377,1.98377,0,0,0,1.02362.24833,2.9361,2.9361,0,0,1,.55723.05452.6336.6336,0,0,0,.39976-.07269,1.18506,1.18506,0,0,1,1.07813.07269c.1817.09085.41187.212.50878.26044.315.16354.527.20594.62386.12114a1.56436,1.56436,0,0,1,.58146-.07874,1.72291,1.72291,0,0,0,.67232-.09691,1.53419,1.53419,0,0,1,.57541-.0848,3.0016,3.0016,0,0,0,.69048-.06662.84023.84023,0,0,1,.3937-.02423.383.383,0,0,0,.44216-.17565,1.28405,1.28405,0,0,1,.33313-.27863c.25439-.14535.26044-.14535.56935-.04845.2241.07269.32707.14536.37553.26044.09691.23623.23016.36948.36341.36948a1.51281,1.51281,0,0,1,.47244.218c.24833.14537.3937.19988.48455.17566.0848-.03029.19988.01211.35736.12113a.57848.57848,0,0,0,.32707.13326.28449.28449,0,0,1,.212.05451.28709.28709,0,0,0,.26651.04845,1.08207,1.08207,0,0,1,.28467-.06057c.0848-.01211.26045-.03028.3937-.04845s.3513-.0424.49061-.05451a1.10449,1.10449,0,0,0,.40582-.13326.44618.44618,0,0,1,.27861-.07268,2.11025,2.11025,0,0,0,.50273-.0545c.212-.04846.44215-.103.51483-.11509a.99931.99931,0,0,0,.321-.19382.87365.87365,0,0,1,.30285-.1696.78207.78207,0,0,0,.30284-.16959.63857.63857,0,0,1,.29679-.16354.281.281,0,0,0,.16959-.06662.66186.66186,0,0,1,.30285-.109c.21805-.03634.23622-.06057.38764-.43.15142-.36341.15748-.40581.06663-.54512a1.37764,1.37764,0,0,0-.22411-.27256,1.49157,1.49157,0,0,1-.24833-.37553c-.06057-.13931-.14537-.24833-.17565-.24228a1.98232,1.98232,0,0,1-.45427-.16353c-.45427-.20594-.75106-.24228-.93276-.1272-.11509.07874-.15748.07269-.36948-.05451a.63.63,0,0,0-.46032-.11508,1.0083,1.0083,0,0,1-.854-.46033c-.03634-.08479-.103-.23016-.15142-.32707a.32665.32665,0,0,1-.05451-.218c.01817-.03028-.00606-.06662-.05451-.09085a.37946.37946,0,0,1-.15748-.17565.7068.7068,0,0,0-.22411-.24228,3.28137,3.28137,0,0,1-.39975-.3089c-.23622-.19988-.24228-.218-.25439-.636a1.75459,1.75459,0,0,0-.16354-.745,1.51319,1.51319,0,0,1-.15142-.47244,5.963,5.963,0,0,0-.12114-1.25378,1.71281,1.71281,0,0,1-.04846-.58752,1.49288,1.49288,0,0,0-.15142-.83585c-.12114-.27862-.20594-.38764-.3513-.44821-.103-.0424-.18777-.06663-.18777-.05451,0,.01817-.06662,0-.14536-.03029-.11508-.0424-.22411-.01211-.49667.13325-.81162.41794-1.09024.59964-1.19321.76923a1.348,1.348,0,0,1-.36341.3513c-.37553.24834-.90248.848-.86008.98122a.33715.33715,0,0,1-.0848.25439.72047.72047,0,0,0-.07874.79952c.07874.18171.103.29679.06057.36341a.22489.22489,0,0,0,.006.20593.45981.45981,0,0,1,.02423.26045,3.32048,3.32048,0,0,0,.03634.62992c.06663.55118.00606.75106-.26044.8722-.0848.03634-.15748.09691-.15748.12719,0,.07268-.212.19382-.38765.21805-.06662.01211-.18776.0424-.25439.06057-.14536.0424-.533-.25439-.59963-.45427a.19867.19867,0,0,0-.16959-.11508c-.07269,0-.17565-.00606-.22411-.00606a1.512,1.512,0,0,0-.24833.03029c-.1272.03633-.22411-.01212-.49061-.23018a2.27776,2.27776,0,0,0-.46638-.315c-.23017-.07269-.321-.27861-.27256-.642.01817-.18171.03634-.49666.03634-.70866a1.69949,1.69949,0,0,0-.29679-.99333.53662.53662,0,0,1,.03634-.59963c.103-.13931.109-.1696.02423-.40582-.07874-.24227-.07874-.27861.03028-.46032a.70908.70908,0,0,0,.09086-.46638c-.01212-.14537-.01818-.30891-.01818-.35736.00606-.04846.01818-.321.03635-.60569a6.378,6.378,0,0,1,.13931-1.23561.84365.84365,0,0,0,.00605-.49061.59018.59018,0,0,1,.03029-.44821,1.74456,1.74456,0,0,0,.09085-.36948.85917.85917,0,0,1,.15142-.32707.853.853,0,0,0,.15143-.38764,2.0108,2.0108,0,0,1,.09085-.44821.83538.83538,0,0,0,.03028-.4785.48808.48808,0,0,1-.02422-.24833,3.82436,3.82436,0,0,0-.00606-1.33858.3392.3392,0,0,1-.01817-.30284.31074.31074,0,0,0,.02423-.20594.29894.29894,0,0,1,.03634-.218,1.90592,1.90592,0,0,0,.15142-.70866,1.9766,1.9766,0,0,0,0-.70865,2.14206,2.14206,0,0,1,.0424-.6057,3.82137,3.82137,0,0,0,.0848-.47243c.00605-.06663.03028-.29074.06056-.50273a1.213,1.213,0,0,0-.00605-.46638c-.06057-.11508.218-.38159.7026-.67232a3.428,3.428,0,0,0,.55118-.40581,5.536,5.536,0,0,1,1.19321-.95094,2.32041,2.32041,0,0,0,.50272-.33313c.12114-.12113.18171-.14536.27256-.09691.0848.04846.15748.03029.315-.08479a.83074.83074,0,0,1,.24834-.15143,4.64222,4.64222,0,0,0,1.4112-1.2478,3.19027,3.19027,0,0,1,.26044-.3089.50209.50209,0,0,0,.13326-.26651.43137.43137,0,0,1,.1393-.25439.80946.80946,0,0,0,.26045-.59963c-.00606-.19988-.47849-.71471-.64809-.71471a1.93714,1.93714,0,0,1-.55118-.38159,4.17088,4.17088,0,0,0-.66626-.4785,1.15871,1.15871,0,0,1-.38764-.34524c-.13325-.20593-.18776-.24228-.3513-.23622a.74521.74521,0,0,1-.33313-.06663.32164.32164,0,0,0-.22411-.04239c-.109.04239-.33312-.17565-.29677-.27862.01211-.0424-.06057-.13325-.16354-.19988a1.04088,1.04088,0,0,1-.30891-.321l-.11508-.19987.3513-.33313c.19987-.18171.41187-.38159.47849-.44216a.84829.84829,0,0,0,.18171-.218.28111.28111,0,0,1,.18171-.12114c.15748-.01817.45427-.15748.45427-.218a8.86687,8.86687,0,0,1,1.99878-1.10849c.27861-.09691.3089-.09085.54512.1272.08479.07268.25439.23016.37553.33918a1.642,1.642,0,0,1,.37552.59358c.13931.33919.18777.39976.38765.47244a2.412,2.412,0,0,0,.43.09691.36066.36066,0,0,1,.36938.35171l.00009.00565a.29263.29263,0,0,0,.33919.3089.79233.79233,0,0,0,.24227-.0424c.103-.06662.4361.12114.54512.3089.12114.20594.29074.26045.81163.27257a1.31638,1.31638,0,0,1,.424.06662,1.05907,1.05907,0,0,0,.98122.0848.63141.63141,0,0,1,.25439-.05451.80542.80542,0,0,0,.29073-.06055,3.93985,3.93985,0,0,1,.48455-.12114c.26045-.04846.35736-.09691.38158-.18777.04846-.14536.37553-.35735.48456-.315a1.05523,1.05523,0,0,0,.35735-.06662,1.76747,1.76747,0,0,1,.44822-.09691.634.634,0,0,0,.35735-.17565.84211.84211,0,0,1,.52695-.212,1.26026,1.26026,0,0,1,.3937-.01212.54852.54852,0,0,0,.28468-.06662,2.82049,2.82049,0,0,1,.9691-.109,3.93551,3.93551,0,0,0,.848-.07874c.07874-.0424.16959-.03028.33919.06057a2.85227,2.85227,0,0,0,1.20532.19382,1.52261,1.52261,0,0,1,.40582.06057c.09691.05451.62991-.50878.62991-.6602a1.67153,1.67153,0,0,0-.36947-1.16293.9916.9916,0,0,0-.72683-.0848c-.09691.05452-.14536.04846-.23016-.03634a1.28423,1.28423,0,0,0-.636-.26044,3.32539,3.32539,0,0,1-.848-.56935c-.09691-.0848-.14537-.0848-.54512,0-.24228.05451-.50273.103-.57541.11508a.62559.62559,0,0,0-.18171.04845.15038.15038,0,0,1-.13931-.01817c-.05451-.03028-.16353-.01211-.30284.06057a1.84653,1.84653,0,0,1-.50878.14537,1.5887,1.5887,0,0,0-.38764.09085c-.13931.07268-.33919.07874-1.49606.04846a3.88589,3.88589,0,0,1-.848-.0848,4.40831,4.40831,0,0,0-.54512-.19988,2.04683,2.04683,0,0,1-.87825-.41793c0-.03028-.09691-.09085-.218-.12719a.52588.52588,0,0,1-.33919-.33313.58268.58268,0,0,0-.25439-.29679,1.76609,1.76609,0,0,1-.62992-.55723c-.15142-.18171-.23016-.20594-.70866-.23622a2.81067,2.81067,0,0,1-.53906-.07874.64952.64952,0,0,0-.33313-.01817.45567.45567,0,0,1-.28468-.00606.59606.59606,0,0,0-.41792.03634.56677.56677,0,0,1-.29073.06057.39562.39562,0,0,0-.24834.12719c-.18776.1696-.18776.1696-.33313.09086-.07874-.03634-.20593-.01816-.43609.06662-.18171.06663-.39976.14537-.49061.17565a.8329.8329,0,0,0-.29074.18171c-.07268.07268-.16959.11508-.218.09691-.103-.0424-.50273.22411-.90854.61175a5.22226,5.22226,0,0,1-.61781.50272,1.20926,1.20926,0,0,0-.315.25439c0,.02423-.08479.0848-.1817.13932-.13931.07268-.212.07873-.30285.03029a.2979.2979,0,0,1-.12719-.109c0-.02422-.01212-.13931-.02423-.25439a.59305.59305,0,0,1,.07268-.3513,1.41013,1.41013,0,0,0,.109-.49666,1.09622,1.09622,0,0,1,.19382-.61175c.09085-.13931.212-.315.2665-.3937a2.80484,2.80484,0,0,1,.33919-.37553c.24833-.22411.3089-.38764.35736-.92065.01211-.11508.03634-.3089.04845-.424a8.94376,8.94376,0,0,0,.03634-1.21139,6.60228,6.60228,0,0,1,.01212-1.0539,5.10092,5.10092,0,0,0-.04846-.848,1.96061,1.96061,0,0,1-.02423-.636.30489.30489,0,0,0-.03634-.26045,2.08916,2.08916,0,0,1,.15748-1.28406c.0848-.19988.103-.321.06663-.38765a.22891.22891,0,0,1,.01211-.2241,1.18171,1.18171,0,0,0-.05451-.99334A1.31786,1.31786,0,0,1,19.537,8.0388a2.34244,2.34244,0,0,0-.04843-1.24773.3562.3562,0,0,1,.01817-.33919,1.8104,1.8104,0,0,0-.05451-1.03573,1.56021,1.56021,0,0,1-.03029-.27256c.00606-.06662.00606-.16352.00606-.212a8.894,8.894,0,0,0-.09691-1.07207.33712.33712,0,0,1,.22411-.41793,1.30592,1.30592,0,0,0,.35735-.36947,2.54857,2.54857,0,0,1,.71472-.745c.03028,0,.09085-.103.13931-.23016.07874-.18171.16354-.26045.50878-.4361.72077-.36342.854-.46033.98728-.745l.12719-.26651-.212-.23016c-.12113-.12114-.23015-.212-.24832-.19382s-.13326-.01817-.25439-.07874A.99094.99094,0,0,0,20.85142.0558ZM15.067,26.85157a4.57471,4.57471,0,0,0,.56935.3089,3.18614,3.18614,0,0,1,.62386.36947.70794.70794,0,0,0,.28467.17565c.103,0,.33313.212.33313.30285a7.57812,7.57812,0,0,1-1.52028,1.39309c-.11508,0-.61781-.71472-.56329-.79952a1.98506,1.98506,0,0,0-.28468-.81162.40387.40387,0,0,1-.07874-.28468.42957.42957,0,0,0-.06057-.27256c-.109-.20593-.04845-.33313.20594-.43A.403.403,0,0,1,15.067,26.85157Z"/>
   <path class="a"
         d="M3.94658,26.00966c-.01817.03028-.00606.06057.02423.06057a.06634.06634,0,0,0,.06662-.06057c0-.03635-.01211-.06057-.02422-.06057C3.995,25.94907,3.96475,25.97331,3.94658,26.00966Z"/>
   <path class="a"
         d="M30.8332,28.1538a.44168.44168,0,0,0-.26044.29679.83537.83537,0,0,1-.16354.29073.18272.18272,0,0,0-.05451.18171.304.304,0,0,1-.01817.218,1.62881,1.62881,0,0,0-.09086.41187c-.02422.16354-.08479.49061-.13931.72683a4.59914,4.59914,0,0,0-.1393.92065.70412.70412,0,0,1-.1696.32707.50152.50152,0,0,0-.15142.29679,1.28439,1.28439,0,0,1-.109.424.97049.97049,0,0,0-.09085.4906.92075.92075,0,0,1-.32707.73289c-.0848.09086-.20594.218-.26045.28468a.21167.21167,0,0,1-.19988.09086c-.06057-.02424-.23016.11508-.50878.40581-.39975.424-.52089.54512-.83585.848a.56752.56752,0,0,1-.23016.13931.82859.82859,0,0,0-.30285.23622.96019.96019,0,0,1-.37553.26044,2.456,2.456,0,0,0-.33313.12114.40157.40157,0,0,1-.26045.04845,1.40885,1.40885,0,0,1-.39975-.8722,1.68068,1.68068,0,0,0-.24228-.84191.48176.48176,0,0,1-.11508-.24227c0-.1272-.32707-.44216-.58752-.57541-.109-.05451-.19988-.1272-.19988-.16354,0-.03028-.07268-.08479-.16353-.12114a.87859.87859,0,0,1-.28468-.1817c-.07268-.06663-.23016-.19988-.35736-.30285a.96368.96368,0,0,1-.2665-.34524,2.24918,2.24918,0,0,0-.36342-.62992,2.05217,2.05217,0,0,0-.54512-.37553.56471.56471,0,0,1-.23016-.19382c-.07268-.11508-.13931-.14537-.23016-.12114s-.18171-.03028-.33919-.19382c-.33313-.34524-.642-.51484-.7874-.44215a.60775.60775,0,0,1-.24833.06662.62261.62261,0,0,0-.321.218c-.109.12114-.46032.49061-.78134.82374a4.91244,4.91244,0,0,0-.59358.66626,1.80511,1.80511,0,0,1-.3513.40581c-.56329.54513-.73288.9146-.5754,1.23561.05451.109.13325.26045.17565.34525a.54566.54566,0,0,0,.315.23016.87369.87369,0,0,1,.41187.30284,1.47593,1.47593,0,0,0,.24833.27257.72787.72787,0,0,1,.17565.24227,3.61905,3.61905,0,0,0,.50272.58752,6.09858,6.09858,0,0,1,.58752.66021,3.388,3.388,0,0,0,.50273.62991l.17565.17566.19382.19382a2.633,2.633,0,0,0,.66626.55117,1.73567,1.73567,0,0,1,.48455.642c0,.13325.76923.90248.8722.86614.0424-.01818.13931.02422.2241.08479a.26065.26065,0,0,0,.27256.07268.2678.2678,0,0,1,.20594,0,.14561.14561,0,0,0,.16342-.012.54635.54635,0,0,1,.24833-.07874c.09085-.00606.21805-.01817.28467-.01817.07874-.00606.15143-.07874.19382-.19382a.905.905,0,0,1,.37553-.36947.74575.74575,0,0,0,.36947-.3937.70672.70672,0,0,1,.23622-.3089c.09691-.06057.30891-.19988.48456-.30891a1.09033,1.09033,0,0,0,.3089-.26044c0-.02423.07874-.09086.18171-.14537a1.144,1.144,0,0,0,.30284-.23016,1.40335,1.40335,0,0,1,.30285-.22411,5.51572,5.51572,0,0,0,1.02967-.72683,7.35752,7.35752,0,0,1,1.15687-1.15081c.321-.212.54512-.14537.4785.15142a3.25,3.25,0,0,0-.06662,1.53846.75855.75855,0,0,1,.01816.43.3363.3363,0,0,0,0,.2665,2.41686,2.41686,0,0,1,.14538,1.00545,7.14933,7.14933,0,0,0,.17564,1.48394,1.16017,1.16017,0,0,0,.2241.28468c.1696.15748.17566.19382.1696.80557,0,.06662-.02422.29679-.04846.51483-.0424.30285-.03027.424.03029.527a.21059.21059,0,0,1,.01817.26044c-.05451.103-.04846.18171.03028.3816a1.96453,1.96453,0,0,1,.13325.46638,1.02789,1.02789,0,0,0,.11509.33313,1.68926,1.68926,0,0,1,.103.55118,1.7209,1.7209,0,0,0,.18171.73288,1.44248,1.44248,0,0,1,.16354.50273,1.87032,1.87032,0,0,0,.14536.533,1.07643,1.07643,0,0,1,.11508.59963,1.13443,1.13443,0,0,0,.07269.52089c.12114.321.06662.47244-.212.61781-.1272.06663-.18171.13931-.18171.24228,0,.08479.03634.15747.07874.16352.03634,0,.15142.01212.24833.01817.24833.01817.35736.18777.321.51484a1.39652,1.39652,0,0,0,.315.96911.88394.88394,0,0,1,.16353.62992,1.8,1.8,0,0,1-.04239.533c-.0424.07874-.03029.15143.04239.26045a.42087.42087,0,0,1,.06663.27862.40687.40687,0,0,0,.06057.27863.56519.56519,0,0,1,.05451.424,1.43974,1.43974,0,0,0,.06663.62385c.09691.3392.103.3392.49666.50274l.39976.16352.30285-.15142a2.18892,2.18892,0,0,1,.36946-.15142,3.43634,3.43634,0,0,0,.56936-.33313,3.43543,3.43543,0,0,1,.56935-.33313,2.29247,2.29247,0,0,0,.50272-.38159,6.31363,6.31363,0,0,1,.67232-.52089.77642.77642,0,0,0,.3089-.30285,1.20762,1.20762,0,0,0-.01817-.72077,1.6967,1.6967,0,0,1-.05451-.45427.82786.82786,0,0,0-.14537-.54512.422.422,0,0,1-.103-.25439.274.274,0,0,0-.05451-.212c-.0848-.12114-.07874-.15748.05451-.41187a.57171.57171,0,0,0,.07874-.52695,6.70568,6.70568,0,0,1-.12114-.7874,3.70158,3.70158,0,0,0-.1393-.75712.80986.80986,0,0,1-.05452-.38158,2.637,2.637,0,0,0-.23016-1.07813,2.65863,2.65863,0,0,1-.11508-.81768c0-.26045-.01212-.61781-.03029-.78135-.01211-.16959-.03634-.424-.04845-.5754a2.05712,2.05712,0,0,0-.15142-.5633,2.16188,2.16188,0,0,1-.15143-.848,3.30233,3.30233,0,0,0-.06057-.636.20721.20721,0,0,1,.02423-.19988c.05451-.109.0424-.16959-.05451-.3513-.109-.18776-.12114-.29679-.09691-.73288.01817-.28468.03634-.65415.0424-.81769a.817.817,0,0,0-.06663-.44215.25148.25148,0,0,1-.03028-.27256.63785.63785,0,0,0,.03634-.28468c-.01211-.08479-.03029-.2665-.0424-.39975a1.12454,1.12454,0,0,0-.09691-.38159.42166.42166,0,0,1,0-.34524,1.061,1.061,0,0,0-.02423-.67838.33862.33862,0,0,1,.03029-.218c.06057-.12114.04845-.19383-.05452-.3937a.88316.88316,0,0,1-.103-.55724.85316.85316,0,0,0-.06057-.44215.44328.44328,0,0,1-.04846-.27862,7.69879,7.69879,0,0,0-.01817-1.33252c-.01817-.18171-.0424-.48455-.04845-.66626a3.24229,3.24229,0,0,0-.06057-.48455,2.886,2.886,0,0,1-.06663-.44216,1.64371,1.64371,0,0,0-.06057-.34524.23837.23837,0,0,1,.03029-.18171c.05451-.103.0424-.15748-.05452-.28468a.53339.53339,0,0,1-.12719-.23621,1.60061,1.60061,0,0,0-.51484-.69049l-.21805-.1696-.36341.13931c-.40582.16354-.92671.212-1.03573.103a2.4165,2.4165,0,0,1-.22411-.35736c-.12719-.23016-.19988-.29679-.36947-.32707-.25439-.05451-.38159-.20594-.29679-.36341.06663-.1272.06663-.1272-.09691-.14537-.06662-.01211-.18776-.03029-.27256-.05451A.69034.69034,0,0,0,30.8332,28.1538Z"/>

</g>
</svg>
