<?xml version="1.0" encoding="UTF-8"?>
<svg xmlns="http://www.w3.org/2000/svg"
     version="1.1"
     width="42.03114416mm"
     height="40.67610763mm"
     viewBox="0.00000000 0.00000000 119.14335064 115.30229933">

<g transform="scale(4.54756027)">   <defs>
      <style type="text/css"><![CDATA[
      .a {
        stroke: #000;
        stroke-linecap: round;
        stroke-linejoin: round;
        stroke-width: 0.01px;
      }
    ]]></style>
   </defs>
   <path class="a"
         d="M21.86194.217a.83636.83636,0,0,1-.27861.28468.39159.39159,0,0,0-.18777.1817.52555.52555,0,0,1-.18171.212.97113.97113,0,0,0-.27256.33313c-.06662.12719-.13931.23016-.16959.23016s-.07268.06662-.09085.15142c-.02423.0848-.06663.15142-.09691.15142a5.036,5.036,0,0,0-.8722.78135c-.06663.07268-.16959.17565-.2241.2241a.90012.90012,0,0,0-.1696.32707.5335.5335,0,0,1-.11508.24834c-.32707.04845-.46638.03028-.58146-.09086-.321-.33918-.36947-.43609-.38159-.73288a2.07248,2.07248,0,0,0-.04845-.45427,1.80281,1.80281,0,0,1-.05452-.27256.7882.7882,0,0,0-.07874-.24833.184.184,0,0,1,.00606-.24228.19525.19525,0,0,0,.03029-.22411.17039.17039,0,0,1-.03029-.15142,1.118,1.118,0,0,0-.18171-.55725,1.93724,1.93724,0,0,0-1.0539.01212c-.94488.212-1.63536.55118-1.72622.84191a1.25956,1.25956,0,0,1-.44821.28467c-.48455.21805-.87825.57541-.79951.73289a.8371.8371,0,0,1,.0424.33919.7638.7638,0,0,0,.06662.36341.70069.70069,0,0,1,.07874.30285c0,.41792.00606.48455.06663.52089a.63641.63641,0,0,1,.13931.26651,3.8617,3.8617,0,0,0,1.6717,1.57479.44638.44638,0,0,1,.27862.44216.58712.58712,0,0,1-.24227.2241.98587.98587,0,0,0-.315.29679,1.35533,1.35533,0,0,1-.24228.29679c-.07268.05451-.26045.218-.41187.36341-.15142.13931-.3937.3513-.53906.46639a2.26249,2.26249,0,0,0-.38159.38764c-.06057.09691-.15748.24227-.20593.321a.44291.44291,0,0,1-.212.17565.92966.92966,0,0,0-.47244.5209.33788.33788,0,0,1-.25439.23622c-.11508.0424-.212.103-.212.13325a1.75028,1.75028,0,0,1-.44821.25439,1.81806,1.81806,0,0,0-.46638.26045,1.71862,1.71862,0,0,1-.55724.32707.39208.39208,0,0,0-.19382.16959.58152.58152,0,0,1-.20593.19383.95931.95931,0,0,0-.29073.27256c-.14537.23016-.38159.44215-.48456.44215a1.47905,1.47905,0,0,0-.751.46033,1.563,1.563,0,0,1-.34525.23622,1.367,1.367,0,0,0-.40581.33313,2.43287,2.43287,0,0,1-.60569.49666,2.99554,2.99554,0,0,0-.44216.30285,4.10454,4.10454,0,0,1-.48455.36947,6.98514,6.98514,0,0,0-.93882.76317c-.36341.38764-.4785.49061-.527.46033-.07268-.0424-.48455.14536-.48455.218a.79146.79146,0,0,1-.19988.26045,4.268,4.268,0,0,0-.33313.38159.85555.85555,0,0,1-.315.26044c-.09691.0424-.18171.09691-.18171.1272s-.07268.103-.16354.16354a.42615.42615,0,0,0-.18776.19382c-.01211.04845-.04845.103-.07874.109a.51612.51612,0,0,0-.13325.09691,1.06376,1.06376,0,0,1-.19988.14537.72748.72748,0,0,0-.23622.29679c-.13325.27861-.315.44821-.43.39975a.20349.20349,0,0,0-.18171.06663c-.04845.05451-.12114.08479-.15142.06662-.03028-.02422-.05451-.01211-.05451.02423s-.06663.07874-.15142.103c-.09086.02423-.15143.07874-.15143.14536a.36905.36905,0,0,1-.09085.20594.19484.19484,0,0,0-.05451.18171c.01817.05451-.02423.15142-.11508.24227a.7689.7689,0,0,0-.18171.29074c-.04846.16959-.3937.54512-.46638.50272-.09086-.05451-.13326.07874-.06057.20593a.15421.15421,0,0,1-.03634.212.30114.30114,0,0,1-.13931.09691c-.02423,0-.09691.09691-.16354.212-.06057.11508-.13325.212-.15748.212-.03028,0-.04845.03634-.04845.07874a.48376.48376,0,0,1-.12114.22411c-.13931.15747-.14537.20593-.06057.36341.04845.09085.03634.13931-.05451.22411-.15143.1393-.22411.41792-.13326.52695a.38589.38589,0,0,1,.06663.39975.38063.38063,0,0,0,.06057.29679.98525.98525,0,0,1,.13325.71472c-.04845.07874-.02423.12719.09085.21805a1.4419,1.4419,0,0,1,.27257.38158.703.703,0,0,0,.16959.2665,2.74713,2.74713,0,0,1,.57541.48456.64053.64053,0,0,0,.59963.16959c.109-.06057.38158.07268.4785.23622a.32575.32575,0,0,0,.24227.07874,1.56543,1.56543,0,0,1,.81768.17565,1.59249,1.59249,0,0,0,.48456.15142,1.56253,1.56253,0,0,1,.37553.0848,1.50227,1.50227,0,0,0,.90853-.07268c.18171-.05451.37553-.11508.424-.1272a4.74209,4.74209,0,0,0,.67837-.23622c.1272-.05451.23016-.08479.23016-.06662s.07269-.00606.1696-.04846a.68148.68148,0,0,1,.315-.07268,2.25863,2.25863,0,0,0,.848-.27862,4.48149,4.48149,0,0,1,.96911-.37553.97543.97543,0,0,0,.32707-.16959.97481.97481,0,0,1,.33313-.17565,1.9226,1.9226,0,0,0,.46033-.20594,2.84455,2.84455,0,0,1,.55723-.24227.92122.92122,0,0,0,.3513-.19382c.15748-.14537.20594-.14537.58752-.04846a.36515.36515,0,0,1,.16354.212c.03634.103.09085.1696.12114.14537.03634-.01817.109.02423.16959.09691a1.75651,1.75651,0,0,0,.55724.50878c.07268.01817.12719.06057.12719.09085,0,.09086.33313.40582.47244.44821a.27287.27287,0,0,1,.16354.16354c.04845.13931.26045.23622.51484.23622a.45213.45213,0,0,1,.29073.12114c.09085.09691.212.12719.636.14536a3.21311,3.21311,0,0,1,.56935.05452,4.2207,4.2207,0,0,0,.957.11508,2.22161,2.22161,0,0,0,.48456-.06663,7.19476,7.19476,0,0,1,.854-.09085,4.032,4.032,0,0,0,.78134-.09691,4.76581,4.76581,0,0,1,1.44155.09691.70144.70144,0,0,0,.32707-.0424,2.49669,2.49669,0,0,1,.44215-.09085,1.42818,1.42818,0,0,0,.739-.17565.99564.99564,0,0,1,.47244-.09086,1.99532,1.99532,0,0,0,1.06-.315,2.92249,2.92249,0,0,1,.68443-.218,8.26206,8.26206,0,0,0,.90248-.23016,1.472,1.472,0,0,0,.751-.40581,4.72869,4.72869,0,0,1,.50273-.43,1.33136,1.33136,0,0,0,.28467-.24834,1.67964,1.67964,0,0,1,.09086-.24227,1.797,1.797,0,0,0,.05451-.636c-.02423-.53906-.06057-.56935-.69655-.58752a4.02767,4.02767,0,0,1-1.08418-.12719.99437.99437,0,0,0-.57541.02422c-.16959.05452-.43.12114-.58146.15143s-.38765.08479-.533.11508a2.04375,2.04375,0,0,1-.41187.06057.6983.6983,0,0,0-.27862.06662,2.79778,2.79778,0,0,1-1.07813.1696,4.901,4.901,0,0,0-.93276.0424A2.71133,2.71133,0,0,1,19.312,21.931a1.11487,1.11487,0,0,0-.59963,0,7.47721,7.47721,0,0,1-1.702.03635c-.11508-.01212-.315-.0424-.44216-.06663a1.47884,1.47884,0,0,1-.64809-.2665.8104.8104,0,0,0-.24227-.1272,1.1128,1.1128,0,0,0-.36342-.11508.74676.74676,0,0,1-.24227-.18776c-.15143-.15143-.1696-.20594-.12114-.30285.03634-.06663.09085-.12114.12719-.12114s.04846-.05451.02423-.11508a.2056.2056,0,0,1,.04846-.19382c.09691-.103.17565-.29679.11508-.29073-.13325.02423-.20594-.02423-.26651-.16354a1.61932,1.61932,0,0,0-.24833-.34524c-.27862-.29679-.30284-.38765-.16354-.527.06663-.06663.11509-.13931.109-.1696a.94459.94459,0,0,1,.19382-.49666c.03028,0,.0424-.0424.02423-.09086-.0424-.103.103-.35736.321-.55723a.46876.46876,0,0,0,.13931-.315.39373.39373,0,0,1,.09086-.26045,2.17106,2.17106,0,0,0,.16959-.15748c.0424-.0424.16354-.16354.27256-.2665a.68489.68489,0,0,0,.19382-.27256c0-.23622.44821-.80557.62992-.80557.0424,0,.11508-.06663.15748-.15143a1.33161,1.33161,0,0,1,.38764-.3513,3.6846,3.6846,0,0,0,.40582-.28467,2.542,2.542,0,0,1,.23016-.18171c.07874-.04845.24227-.16959.36341-.2665a3.96863,3.96863,0,0,1,.50272-.315,1.08109,1.08109,0,0,0,.3513-.26045.49488.49488,0,0,1,.25439-.18171,1.38681,1.38681,0,0,0,.58147-.46032c.11508-.13931.03634-.315-.23016-.49061a.60754.60754,0,0,0-.55118-.109,2.996,2.996,0,0,0-1.25378.55724,2.12782,2.12782,0,0,1-.59963.35736,2.28381,2.28381,0,0,0-.5633.321.37937.37937,0,0,1-.103.1696.98194.98194,0,0,0-.1817.2665.457.457,0,0,1-.30285.23016,1.13263,1.13263,0,0,0-.55118.37553c-.18777.18777-.24227.23622-.3937.38764a1.76648,1.76648,0,0,0-.2241.26045c-.15142.23622-.24228.3089-.39976.3089-.07874,0-.14536.02423-.14536.04846a2.4011,2.4011,0,0,1-.30285.37553,2.71638,2.71638,0,0,0-.40581.55118.58257.58257,0,0,1-.28469.30284.8675.8675,0,0,0-.37553.46033,2.7286,2.7286,0,0,1-.44215.62386c-.13931.13325-.23622.27256-.218.30284s-.05451.14537-.16353.25439-.19383.212-.18171.23017c.03634.07267-.20594.43-.321.46637a.30387.30387,0,0,0-.23622.33313.2657.2657,0,0,1-.07874.21805.54384.54384,0,0,0-.12719.19988.45406.45406,0,0,1-.1272.1817c-.07874.06663-.09691.12114-.06057.18778a.13938.13938,0,0,1-.02422.1817,1.80857,1.80857,0,0,0-.19383.27256.89021.89021,0,0,1-.15142.20594c-.06662.00606-.23622.05451-.87825.23621a3.23622,3.23622,0,0,1-1.66565.15749A8.21943,8.21943,0,0,0,6.55005,21.713c-.103.03028-.1696.006-.26651-.109a.43145.43145,0,0,0-.2241-.15748.64353.64353,0,0,1-.24228-.0848c-.09085-.04239-.3089-.14536-.4785-.218-.29679-.13326-.43609-.29074-.35735-.41187.01817-.03029-.06057-.109-.17566-.1696a.60612.60612,0,0,1-.24833-.218c-.01817-.06057-.05451-.109-.0848-.109-.07268,0-.16353-.30285-.15142-.48455a.55139.55139,0,0,0-.03634-.25439.37007.37007,0,0,1,.19988-.44216c.0848-.03028.09691-.06057.04845-.15142-.06057-.11508-.02422-.30285.05452-.30285a2.24453,2.24453,0,0,0,.46032-.73288.28333.28333,0,0,1,.26045-.24228c.03634-.00606.103-.01817.13325-.02423.03634-.00605.0848-.01817.11508-.02422.03029,0,.07268-.07269.09086-.15143a1.55888,1.55888,0,0,1,.642-.7026.52048.52048,0,0,0,.24833-.24833.70715.70715,0,0,1,.36342-.33313.794.794,0,0,0,.29073-.19382c-.01817-.12114.01817-.18777.11508-.218a.89958.89958,0,0,0,.23016-.14537c.06057-.05451.321-.24227.56935-.40581a5.25717,5.25717,0,0,0,.73289-.59358,1.04413,1.04413,0,0,1,.38764-.28467.95043.95043,0,0,0,.36341-.212,2.1492,2.1492,0,0,1,.41793-.27862.44707.44707,0,0,0,.19382-.18777.29714.29714,0,0,1,.20594-.15142c.16353-.03028.28467-.12114.745-.533a.62956.62956,0,0,1,.2241-.15142c.103,0,.46638-.40581.50878-.56329.04846-.19988.19988-.3513.30891-.3089a.09786.09786,0,0,0,.12719-.05452.55325.55325,0,0,1,.2665-.18776.79364.79364,0,0,0,.3453-.27883.5055.5055,0,0,1,.24227-.218c.07874-.02423.13931-.06057.13931-.08479,0-.05452.07874-.13931.36342-.36342.103-.0848.30284-.2665.44215-.40581a1.47651,1.47651,0,0,1,.424-.315.51592.51592,0,0,0,.23622-.218.45435.45435,0,0,1,.28467-.218,1.00083,1.00083,0,0,0,.35736-.212,1.479,1.479,0,0,1,.32707-.24228,6.592,6.592,0,0,0,.92671-.642c.06662-.06057.20593-.18776.3089-.27862a.77784.77784,0,0,0,.22411-.321c.0424-.17565.33313-.3937.97516-.72683a3.9901,3.9901,0,0,0,.60569-.38159,3.52824,3.52824,0,0,1,.71472-.52089,4.9035,4.9035,0,0,0,.99939-1.04785c.04239-.09085.103-.16353.1393-.16353.03029,0,.06057-.06663.06057-.14537,0-.16354.14537-.33919.27256-.33919.0424,0,.15143-.09085.24228-.19988.0848-.103.23016-.27861.321-.38764a2.331,2.331,0,0,0,.43-.61175.6602.6602,0,0,1,.24833-.28467c.06663-.01817.12114-.07268.12114-.11508a.5.5,0,0,1,.12114-.218,2.2558,2.2558,0,0,0,.44821-1.21744.55838.55838,0,0,1,.09085-.27256c.09086-.16959.109-.25439.06057-.33919A.304.304,0,0,1,23.02487.7076a.23291.23291,0,0,0-.05451-.18776A.40263.40263,0,0,1,22.88556.326c0-.19988-.20593-.321-.55118-.321C22.00125.005,21.98305.01711,21.86194.217Z"/>

</g>
</svg>
