<?xml version="1.0" encoding="UTF-8"?>
<svg xmlns="http://www.w3.org/2000/svg"
     version="1.1"
     width="32.89335102mm"
     height="25.55676258mm"
     viewBox="0.00000000 0.00000000 93.24099562 72.44443407">

<g transform="scale(3.90776186)">   <defs>
      <style type="text/css"><![CDATA[
      .a {
        stroke: #000;
        stroke-linecap: round;
        stroke-linejoin: round;
        stroke-width: 0.01px;
      }
    ]]></style>
   </defs>
   <path class="a"
         d="M21.12092.1856a2.694,2.694,0,0,0-.546.348,1.26038,1.26038,0,0,1-.636.336,1.82068,1.82068,0,0,0-.714.642,1.56722,1.56722,0,0,1-1.014.738,1.7222,1.7222,0,0,0-.75.516c-.066.078-.198.204-.288.288-.75.678-.948.846-1.008.846a3.64072,3.64072,0,0,0-.576.522,8.25861,8.25861,0,0,0-1.236,1.674.586.586,0,0,1-.192.228c-.048.018-.09.054-.084.078.024.138-.036.204-.36.396a6.9597,6.9597,0,0,0-1.35,1.092.43413.43413,0,0,1-.198.162c-.24.096-.81.36-.918.42-.048.03-.222.114-.39.198-.288.144-.3.144-.48.042a1.2797,1.2797,0,0,1-.348-.42,2.74377,2.74377,0,0,0-.516-.612,2.04933,2.04933,0,0,1-.696-1.086,1.37476,1.37476,0,0,0-.36-.546,2.07161,2.07161,0,0,1-.39-.588,2.40711,2.40711,0,0,0-.582-.762,8.66555,8.66555,0,0,1-.636-.702,2.37124,2.37124,0,0,0-1.056-.666,2.03017,2.03017,0,0,0-1.836.51,6.2963,6.2963,0,0,1-.552.366c-.366.21-.438.192-.744-.198a3.33064,3.33064,0,0,0-1.128-.96.88045.88045,0,0,0-1.074-.018c-.222.15-.498.642-.426.762a.2458.2458,0,0,1,.024.174,3.22471,3.22471,0,0,0,.234,1.056,2.88939,2.88939,0,0,1,.276,1.026,1.39647,1.39647,0,0,0,.09.45.47782.47782,0,0,1,.036.354,2.12685,2.12685,0,0,0-.06.438c-.006.162-.024.378-.036.48-.018.096-.03.42-.036.708,0,.288-.024.75-.054,1.02a1.88867,1.88867,0,0,0,0,.576.96192.96192,0,0,1-.036.426,2.48529,2.48529,0,0,0-.048.66,2.23719,2.23719,0,0,1-.294,1.14,4.84519,4.84519,0,0,0-.078.96c0,.444-.024.966-.048,1.152a2.82267,2.82267,0,0,0,.306,1.386,2.1123,2.1123,0,0,0,1.344.792,1.13619,1.13619,0,0,0,.744.024.60521.60521,0,0,0,.408-.282c.144-.246.54-.462.69-.378.132.072.684-.186,1.038-.486a2.97016,2.97016,0,0,1,.852-.612c.108-.042.264-.108.348-.15.138-.066.198-.054.564.138a1.8209,1.8209,0,0,0,.678.228.67168.67168,0,0,1,.432.15.5578.5578,0,0,0,.264.138,2.58179,2.58179,0,0,1,.486.126,1.12312,1.12312,0,0,0,.444.084.67389.67389,0,0,1,.318.036,5.80041,5.80041,0,0,0,1.458.15,2.2692,2.2692,0,0,1,1.038.156c.24.144.276.216.372.708a1.32943,1.32943,0,0,0,.72.96l.21.108.246-.18a.88929.88929,0,0,0,.384-.588,1.43517,1.43517,0,0,1,.336-.606.70318.70318,0,0,0,.204-.27,1.89371,1.89371,0,0,1,.684-.678,2.71915,2.71915,0,0,1,1.164,0,.96909.96909,0,0,0,.564-.024,3.87048,3.87048,0,0,1,.798-.09c.234,0,.756-.012,1.17-.03a2.91339,2.91339,0,0,1,1.038.06,1.83589,1.83589,0,0,0,.732.06c.33-.024.468-.012.564.054a1.42594,1.42594,0,0,1,.276,1.032,1.10428,1.10428,0,0,0,.024.438,3.11513,3.11513,0,0,1,.096.57,5.21693,5.21693,0,0,0,.114.648c.066.222.102.258.366.348a2.46389,2.46389,0,0,0,.372.102,1.30753,1.30753,0,0,0,.318-.438,2.61,2.61,0,0,1,.438-.612,1.71759,1.71759,0,0,0,.312-.354c.066-.108.234-.36.378-.57a1.74977,1.74977,0,0,0,.252-.492.6743.6743,0,0,1,.06-.234,1.372,1.372,0,0,0,.084-.462,2.274,2.274,0,0,1,.114-.582,1.7719,1.7719,0,0,0-.078-1.056.521.521,0,0,1-.06-.234,3.3956,3.3956,0,0,0-.204-.648,4.76478,4.76478,0,0,1-.24-.906,1.565,1.565,0,0,0-.162-.588,7.20381,7.20381,0,0,1-.468-1.428,1.69763,1.69763,0,0,0-.168-.372l-.12-.198.168-.762a9.72672,9.72672,0,0,1,.258-.978c.108-.264.108-.318.096-1.38a11.621,11.621,0,0,1,.066-1.41,7.55844,7.55844,0,0,0,.06-1.11,4.02048,4.02048,0,0,1,.048-.774.41011.41011,0,0,0-.024-.366.39887.39887,0,0,1-.024-.36,2.50885,2.50885,0,0,0-.192-1.29,1.13806,1.13806,0,0,0-.444-.66c-.27-.234-.348-.27-.576-.264A1.61361,1.61361,0,0,0,21.12092.1856Zm-1.53,2.634a.91562.91562,0,0,1,.234.372c.066.174.186.45.27.618a1.74984,1.74984,0,0,1,.156.366.27128.27128,0,0,0,.096.15,1.42346,1.42346,0,0,1,.348.846,1.27878,1.27878,0,0,0,.186.564c.084.12.138.24.12.258a4.30851,4.30851,0,0,0,.042.642,7.65839,7.65839,0,0,1,.054.834,5.66218,5.66218,0,0,0,.054,1.47,2.85861,2.85861,0,0,1-.066,1.218,7.28212,7.28212,0,0,0-.15.828,6.86665,6.86665,0,0,1-.234,1.098,2.9693,2.9693,0,0,0-.15.66c0,.33-.162.468-.6.522a.88089.88089,0,0,1-.612-.072,1.52471,1.52471,0,0,0-.762-.114,2.2667,2.2667,0,0,1-.738-.084,2.76586,2.76586,0,0,0-1.11-.288,8.01437,8.01437,0,0,1-1.758-.072,4.63883,4.63883,0,0,0-.54-.06,9.43,9.43,0,0,1-1.68-.276.84994.84994,0,0,1-.246-.588,2.05559,2.05559,0,0,0-.54-.858,6.87812,6.87812,0,0,1-.618-.696,1.58072,1.58072,0,0,1,.426-.822,2.85579,2.85579,0,0,0,.498-.396,7.43837,7.43837,0,0,1,.63-.522,5.41982,5.41982,0,0,0,.576-.51,1.34187,1.34187,0,0,1,.438-.348,1.26273,1.26273,0,0,0,.408-.342,10.53445,10.53445,0,0,1,1.44-1.374,4.32947,4.32947,0,0,1,.642-.306,2.11182,2.11182,0,0,0,.516-.258,1.761,1.761,0,0,1,.27-.18,6.66973,6.66973,0,0,0,1.008-.798c.744-.648.84-.756.882-1.014a.84634.84634,0,0,1,.186-.39C19.42292,2.7416,19.43491,2.7356,19.59092,2.8196Zm-15.426,4.68a1.99644,1.99644,0,0,1,.66.438,3.48511,3.48511,0,0,0,.486.402,3.03863,3.03863,0,0,1,.42.306,3.413,3.413,0,0,0,.588.384c.24.12.348.216.408.372a2.8056,2.8056,0,0,0,.264.45.89864.89864,0,0,1,.18.39c0,.072.024.138.054.138.072,0,.258.288.276.444a1.14748,1.14748,0,0,0,.09.294c.072.144.066.186-.042.33a.98118.98118,0,0,1-.384.258.74707.74707,0,0,0-.444.408,1.91567,1.91567,0,0,1-.432.492.94991.94991,0,0,0-.258.228,7.33652,7.33652,0,0,1-1.038.87,1.1588,1.1588,0,0,1-.372.156c-.192.042-.24.024-.6-.246a1.15438,1.15438,0,0,1-.594-1.224,5.961,5.961,0,0,1,.09-.786c.06-.264.054-.33-.036-.462-.114-.18-.102-.534.042-1.122a1.90244,1.90244,0,0,0,.03-.72,3.04954,3.04954,0,0,1,.168-1.836C3.85891,7.3616,3.78092,7.3556,4.16492,7.4996Z"/>

</g>
</svg>
