<?xml version="1.0" encoding="UTF-8"?>
<svg xmlns="http://www.w3.org/2000/svg"
     version="1.1"
     width="69.77802896mm"
     height="59.69430733mm"
     viewBox="0.00000000 0.00000000 197.79594069 169.21224539">

<g transform="scale(3.97101662)">   <defs>
      <style type="text/css"><![CDATA[
      .c {
        stroke: #000;
        stroke-miterlimit: 10;
        stroke-width: .0012px;
      }
    ]]></style>
   </defs>
   <path class="c"
         d="M41.03606,.06434c-.21484,.12109-.60938,.53125-.60938,.625,0,.04688-.09375,.19141-.21484,.32031-.36719,.39844-.39844,.44141-.36719,.53516,.03906,.10547-.48047,.66406-.60156,.66406-.03906,0-.09375,.11328-.125,.24219-.03516,.18359-.12109,.27734-.32813,.35938-.15234,.07031-.32813,.22266-.39453,.35156-.07031,.12891-.17578,.24609-.24609,.27344-.06641,.03125-.12109,.125-.12109,.21484,0,.19922-.28125,.48828-.42188,.43359-.06641-.02734-.19531,.07813-.30469,.23828-.10547,.16016-.21875,.28906-.24219,.28906s-.14453,.08594-.26172,.19922c-.11328,.10547-.25781,.17578-.3125,.16016-.13672-.04688-.32813,.12109-.49609,.4375-.08203,.15234-.25781,.44141-.39453,.64063-.13281,.20313-.24609,.37109-.25391,.38672s-.10547,.03906-.21484,.0625c-.20313,.03125-.24219,.00781-.86719-.56641-.15625-.15234-.23047-.15234-.69531,.00781-.62109,.19922-.74219,.35156-.77344,.93359-.03516,.76172-.08984,.82422-.89844,1.08984-.33594,.10156-.61328-.10547-.63281-.46484-.00781-.13672-.01563-.30469-.02344-.36719,0-.06641-.11719-.16797-.24609-.24219-.26563-.13281-.28906-.125-.70313,.29688-.33594,.32813-.57813,.63281-.59375,.73047-.03906,.30859-.01563,1.33594,.03125,1.33594,.11328,0,.21875,.28516,.14453,.39844-.03125,.05469-.15234,.11328-.25391,.12891-.09766,.00781-.21094,.02344-.23438,.02344-.02344,.00781-.12109,.07813-.21484,.16797-.09766,.08594-.25781,.19141-.35938,.23047-.26563,.10547-1.37891-.16797-1.60938-.38281-.28125-.26563-.98438-.50391-1.58984-.53516-.29688-.01563-.57031-.04297-.60156-.06641-.03906-.02344-.11328-.00781-.17578,.03516-.06641,.03906-.23438,.01563-.41797-.05859-.29297-.12109-.32031-.12109-.46875,.04688-.14453,.15234-.37891,.21875-.71484,.1875-.35156-.03516-.56641,.08594-.76563,.42969-.19141,.32031-.27344,.39453-.44922,.35938-.03906,0-.13672,.06641-.22266,.15235-.08984,.08984-.26563,.16016-.40234,.16016s-.23828,.03125-.23828,.08203c0,.03906-.14453,.10938-.32031,.16016-.34375,.09375-.81641,.46875-.84766,.6875-.02344,.17578-.07422,.20703-.29688,.23047-.19141,.02344-.53516,.17578-.61719,.27344-.02344,.03125-.13672,.10938-.24609,.18359-.11328,.07031-.20703,.17578-.21484,.23828,0,.05859-.02734,.17578-.05078,.26563-.01563,.08594-.03906,.18359-.03906,.20703-.00781,.03125-.11328,.09766-.24609,.15234-.12891,.05469-.21875,.12891-.20313,.16797,.05078,.07422-.62891,.79297-.75,.79297-.03906,0-.09766,.0625-.12109,.13672-.03125,.07813-.28125,.28516-.56641,.46094-.28906,.17578-.54688,.38672-.57031,.46484-.03906,.13672-.64844,.46484-.91016,.48828-.20703,.01563-.71094,.36719-.76172,.52734-.03125,.08984-.07031,.16797-.10156,.16797-.03516,.00781-.12891,.02344-.21875,.03516-.24609,.02344-.50391,.18359-.64063,.39063-.07031,.10156-.24609,.24609-.39844,.32813-.14453,.08594-.3125,.23828-.36719,.34375-.13672,.23828-.51172,.44141-.71875,.375-.09766-.03125-.16797-.00781-.20313,.07422-.02344,.0625-.24609,.18359-.48828,.25391-.32031,.10547-.55078,.25-.83203,.52734-.21484,.21875-.42969,.37109-.46875,.34375-.05078-.02344-.13672,.00781-.21094,.08203-.07031,.07031-.19141,.10156-.25391,.07813-.06641-.02344-.14453-.01563-.16797,.02344-.07422,.10547-.86328,.49609-.91406,.44922-.11719-.12109-1.0625-.11328-1.4375,.01563-.21875,.07422-.64063,.13672-.9375,.14453-.39063,.00781-.56641,.04688-.67188,.15234-.07813,.07031-.17578,.12109-.21484,.09766-.03906-.03516-.07422-.00781-.07422,.03906,0,.11328-.67969,.41406-.85547,.38281-.09375-.01563-.21484,.13672-.41406,.51172-.15234,.29688-.32813,.5625-.38672,.57813-.05469,.02344-.17578-.02344-.26172-.11328-.08984-.08984-.16797-.13672-.16797-.09766-.00781,.03516-.01563,.08984-.03125,.13672-.00781,.03906-.02734,.12109-.02734,.17578-.00781,.05078-.08594,.12109-.17578,.14453-.08594,.02344-.16016,.10547-.16016,.16016,0,.06641-.09375,.22266-.22266,.35156-.33594,.36719-.39063,.44922-.44922,.63281-.03125,.09766-.08594,.17578-.11719,.17578-.11328,0-.80859,.66406-.80859,.76953,0,.10156-.25781,.41406-.71875,.87109-.16016,.16797-.25,.33594-.26563,.51172-.01563,.25781,0,.27344,.26563,.28125,.14844,.00781,.33594,.03125,.39844,.05469,.0625,.01563,.12109-.01563,.12891-.07031,.00781-.05078,.01563-.12891,.02344-.16016,0-.04297,.09375-.11328,.19922-.17578,.10547-.05859,.25781-.22656,.33594-.37109,.08203-.15234,.17578-.26953,.20703-.26953,.04297,0,.06641-.05859,.06641-.12109,0-.23047,.26172-.66406,.46094-.75391,.10547-.05469,.21875-.07813,.23438-.05469,.04688,.04688,.42188-.32031,.42188-.42188,0-.05078,.16016-.25781,.36328-.47266,.19922-.20703,.35938-.40234,.35938-.43359s.07031-.07813,.16797-.10156c.08594-.03516,.14453-.09766,.125-.15234-.07813-.19531,.08984-.3125,.47266-.32813,.21875-.00781,.43359-.03516,.47266-.04297,.04688-.01563,.17578,0,.29688,.03516,.12109,.03906,.28125,.02344,.38281-.03516,.10547-.05469,.26563-.10156,.375-.11719,.23438-.02344,.28125-.06641,.30469-.29688q.03516-.28125,.16016-.33594c.06641-.02344,.18359,.02344,.25781,.10547,.16016,.16797,.50391,.16797,1.04688,.01563,.19141-.05859,.41016-.07422,.48828-.05078,.16016,.05078,.72656-.18359,.72656-.29297,0-.08203,.60938-.37109,.85938-.41016,.08594-.00781,.25391-.10156,.38281-.19922,.12109-.09766,.26172-.17578,.32031-.17578,.04688,0,.16797-.06641,.25391-.14453,.09766-.07031,.3125-.22266,.48828-.33594,.18359-.11328,.36719-.27344,.41797-.36719,.04688-.08984,.26953-.24219,.49609-.33594,.21484-.09766,.375-.19922,.35156-.25-.06641-.09375,.17578-.34375,.26953-.28516,.08203,.04688,.48047-.12109,.48047-.20313,0-.03125,.12109-.10938,.26563-.16797,.375-.16016,1.49609-.79688,1.49609-.86328,0-.02344,.12891-.12109,.28125-.19922,.14844-.08203,.29297-.21484,.31641-.29688,.04297-.12891,.44922-.32031,.63281-.30469,.04297,0,.09766-.03125,.12109-.07031s.23828-.16797,.47266-.28906c.23047-.12109,.4375-.26172,.46484-.32813,.02344-.05469,.23828-.19141,.47656-.28516,.23438-.10547,.44922-.25,.47266-.32031,.06641-.21094,.28906-.25,.6875-.14453,.19531,.04688,.46484,.09375,.60156,.10938,.33594,.02734,1.14453-.13281,1.375-.26172,.10547-.05859,.26563-.09766,.35938-.08203,.09766,.00781,.21875-.00781,.26563-.03906,.35156-.21484,.50391-.20703,.75391,.02344,.21484,.20703,.26953,.21875,.50391,.14453,.13281-.04688,.31641-.08594,.39844-.08594,.07031-.00781,.15234-.07422,.17578-.14453,.0625-.18359,.25781-.25,.44141-.15234,.07813,.04688,.21484,.07813,.30078,.07813,.15234,0,1.14453-.46484,1.21875-.56641,.05469-.08203,.46484-.24219,.74219-.28906,.12891-.01563,.29688-.10156,.38672-.19141,.08594-.08984,.19141-.13672,.23828-.11328,.08984,.05859,.39063-.11719,.63281-.35938,.08594-.08594,.21484-.12891,.35156-.10156,.11328,.02344,.20703,.00781,.20703-.03516,0-.15234,.32031-.41406,.44922-.36719,.07031,.02344,.20703-.03906,.33594-.15234,.12109-.10938,.3125-.26172,.42969-.34375,.12109-.07031,.24219-.19141,.26563-.26172,.01563-.08203,.25781-.24219,.51172-.37109,.32031-.15234,.48828-.28516,.51953-.40625,.02344-.10547,.17578-.28906,.33594-.41016,.16016-.125,.44141-.38281,.64063-.57422,.19141-.18359,.41016-.33594,.48828-.33594,.21484,0,.71875-.19141,.87891-.33594,.08203-.0625,.32813-.21484,.55469-.33594,.21484-.12109,.50391-.30469,.62891-.41797,.26563-.22266,.21875-.21484,.55469-.07813,.32813,.13672,.40625,.35156,.28516,.72656-.04688,.15234-.07031,.3125-.04688,.35156,.08203,.12109-.17578,.32031-.34375,.27344-.19141-.04688-.28125,.08984-.16797,.29688,.0625,.12891,.04688,.19141-.07813,.32031-.08984,.08594-.22656,.16016-.29688,.16016-.23438,.00781-.42578,.19141-.375,.375,.04688,.16016-.23438,.52734-.45703,.60156-.04688,.01563-.10547,.11719-.11328,.23828-.01563,.11328-.0625,.28125-.11328,.375-.05469,.08984-.07813,.16797-.05469,.16797,.01563,0-.03125,.16797-.10156,.37891-.13672,.38281-.21094,.44531-.94531,.83203-.09766,.04688-.19141,.16797-.21484,.26172-.02734,.08984-.15234,.23438-.28906,.30469-.13672,.07813-.24219,.16797-.23438,.19922,.02734,.16016-.02344,.26563-.26172,.51172-.14453,.15234-.26563,.35938-.27344,.47266s-.02344,.22266-.02344,.25c-.00781,.03125-.0625,.07031-.12891,.10156-.15234,.05859-.36719-.16016-.3125-.3125,.08203-.19922-.03906-.27734-.24609-.18359-.11328,.05078-.19922,.12109-.19922,.16016s-.11328,.17578-.24219,.30469c-.17578,.17578-.30469,.23047-.4375,.20703-.11328-.02344-.20313-.00781-.20313,.02344,0,.03516-.07031,.14453-.15625,.25-.08984,.10547-.16016,.20703-.16016,.23047,.00781,.12109,.23828,.33594,.30859,.28906,.05078-.02344,.14453-.01563,.21875,.02344,.09375,.05469,.17578,.03125,.28516-.07813,.12109-.12109,.17969-.12891,.32031-.05859,.15234,.08203,.19531,.06641,.32031-.09375,.08203-.10547,.21875-.28125,.30469-.37891,.08984-.10156,.16016-.21484,.16016-.25391,0-.03125,.10547-.10547,.23047-.14453,.12891-.04688,.25781-.16016,.28906-.24609,.02344-.09766,.14453-.19531,.25781-.21875,.11719-.03125,.41406-.26172,.67188-.51953,.25391-.25391,.59766-.53516,.76563-.625,.16797-.08594,.39453-.29297,.50391-.46094,.24219-.37109,.32031-.43359,.48828-.37891,.18359,.05078,.47266-.32813,.47266-.61328,0-.12109,.05469-.28125,.12891-.34375,.11328-.11328,.16016-.23438,.18359-.45703,.00781-.02344,.13672-.20703,.28906-.39844,.19141-.24219,.26172-.40234,.23047-.52344-.04688-.18359,.00781-.24609,.44922-.53516,.23828-.15234,.28125-.23047,.28906-.49609,.00781-.18359-.03516-.35156-.10547-.39844-.05469-.03906-.12109-.16016-.13672-.25781-.02344-.09375-.07031-.24609-.12109-.33594-.11719-.22266-.125-.21484,.28125-.61328,.25-.25,.41016-.35547,.51172-.32813,.11328,.02344,.21484-.05859,.375-.28906,.22656-.32813,.47266-.58594,.875-.89844,.10938-.08594,.26172-.28516,.35156-.4375,.08594-.16797,.28516-.35938,.50391-.47266,.22266-.12109,.38281-.27344,.41406-.38281,.05859-.25,.32031-.50391,.51953-.50391,.21875,0,.48828,.27734,.42578,.4375-.02344,.08203,.02344,.19141,.13672,.29688,.10156,.09766,.16016,.22266,.13672,.3125-.03516,.10547,.03125,.20703,.19141,.32031,.125,.08594,.25391,.25391,.28516,.375,.02734,.12109,.07422,.23438,.09766,.25781,.03125,.02344,.12891,.16016,.22266,.3125q.16797,.27734,.01563,.58203c-.08594,.16797-.18359,.30469-.21484,.30469-.11328,0-.24609,.58984-.16797,.72656,.10547,.19922,.00781,.38672-.22266,.44141-.11328,.03125-.25,.16797-.34375,.34375-.08203,.16016-.25781,.40625-.39453,.55859-.13281,.15234-.30078,.44922-.36719,.65625-.07813,.22656-.19141,.40234-.26953,.43359-.08203,.02344-.16797,.14453-.19531,.26172-.02344,.12109-.18359,.36328-.35156,.53906s-.29297,.35156-.27734,.39063c.05469,.16797-.17578,.51953-.39453,.60156-.12891,.03906-.23047,.10938-.23047,.15234,0,.03125-.13672,.125-.29688,.19922-.16797,.07031-.39063,.25391-.49609,.41406-.10547,.15234-.21484,.28125-.24609,.28125-.06641,0-.44141,.375-1.04297,1.03125-.30078,.34375-.44531,.43359-.67969,.46484-.16016,.01563-.375,.08594-.48047,.15234-.10156,.07031-.22266,.10156-.26172,.07813-.04688-.02344-.10547,.03906-.12891,.15234-.03125,.13672-.12891,.21484-.3125,.26563-.15234,.03906-.35938,.16016-.46484,.26172-.30078,.29688-.65625,.55469-.75,.55469-.04688,0-.14453,.07031-.22266,.16016-.10547,.125-.17578,.14063-.28125,.08594-.16797-.08594-.625,.14453-.70313,.34375-.02344,.06641-.15234,.16016-.28125,.20703-.13672,.05859-.29688,.21094-.35938,.32813-.09766,.20313-.59375,.55469-.59375,.43359,0-.05469-.39063,.18359-.57422,.35156-.28125,.25781-.375,.32031-.63281,.43359-.15234,.05469-.39844,.09375-.56641,.07031-.24219-.02344-.29688,0-.34375,.13672-.02734,.09766-.08203,.16797-.12109,.16797s-.11328,.12891-.16016,.28125c-.09766,.27734-.33594,.48828-.48047,.39844-.03906-.02344-.16797,.04688-.28906,.16016-.11719,.11328-.30469,.19922-.39844,.19922-.13672,0-.19141,.04688-.19141,.16016,0,.20703-.16797,.5625-.27344,.57031-.04688,.00781-.13672,.00781-.19141,0-.08203-.01953-.08203,.03906,.01563,.22266,.11328,.21484,.11328,.24609,0,.36719-.07031,.07422-.18359,.11328-.24609,.08984-.09766-.04297-.73047,.50391-.74609,.62891v.10547c0,.03906-.08594,.11328-.20703,.16016-.11328,.05469-.24219,.20703-.28906,.33594-.03906,.13672-.11328,.23828-.14453,.23828s-.08594,.08984-.10938,.20313c-.03516,.10938-.13672,.25391-.25,.32813-.11328,.07031-.19922,.19141-.19922,.26953,0,.07422-.07422,.22656-.16797,.32813-.14453,.16016-.57031,.90625-.59375,1.03125-.04688,.25-.17578,.42578-.36719,.53125-.18359,.08594-.23047,.16016-.19141,.26953,.05469,.17578-.33594,.60156-.63281,.6875-.08594,.03516-.21484,.12891-.28906,.21875-.07031,.08594-.20703,.16797-.30078,.17578-.19531,.00781-.73828,.28516-.73828,.375,0,.02344-.05469,.11328-.12891,.17578-.08594,.08984-.16016,.10547-.26172,.05469-.10547-.05469-.17578-.03906-.27344,.08203-.07031,.07813-.22266,.15234-.32813,.15234-.10938,0-.28516,.10156-.42188,.23828-.13672,.14453-.39453,.28906-.64063,.35938-.23438,.07422-.42578,.15234-.42578,.19531,0,.03906-.10156,.10938-.23828,.15625-.12891,.04297-.24219,.12109-.24219,.16016,0,.05078-.10156,.13672-.23828,.21094-.12891,.07031-.23828,.10156-.23828,.07813,0-.12891-.39453,.24219-.43359,.40234-.03906,.16797-.3125,.33594-.47266,.29297-.03125-.00781-.13672,.10547-.22266,.25781-.08984,.16016-.24219,.30469-.33594,.33594-.09766,.02344-.24219,.12109-.32031,.19922-.08203,.08984-.21484,.15234-.3125,.15234-.08984,0-.20703,.0625-.26563,.13672-.05469,.07813-.18359,.14453-.28516,.15234-.3125,.01563-.44922,.10938-.55469,.35156-.05469,.12891-.16797,.25391-.24609,.28125-.08984,.03125-.24219,.125-.33594,.22266-.10547,.09375-.26563,.23047-.35938,.29688-.09766,.0625-.19141,.17578-.21875,.24609-.02344,.08203-.16016,.17578-.29297,.22266-.14453,.05078-.32031,.15234-.40234,.22656-.08594,.07813-.25391,.12891-.38281,.12109-.16797-.01953-.24219,.02344-.28125,.14063-.04688,.14453-.13672,.20313-.30469,.16797-.03906-.00781-.04688,.05859-.01563,.14453,.07422,.23438-.16016,.41797-.4375,.35156-.21875-.03906-.25-.01563-.32813,.21094-.05078,.13281-.11328,.24609-.13672,.24609-.03125,0-.17578,.11328-.32813,.24219-.14453,.13281-.32813,.23828-.41016,.23828-.07031,0-.17578,.08984-.22266,.19922-.04688,.11328-.12891,.19922-.17578,.19922-.14453,0-.19922,.03516-.40625,.24219-.15234,.14453-.18359,.23828-.13672,.34375,.05469,.11328,.10156,.12109,.22266,.05469,.12109-.0625,.19141-.04688,.32813,.08984,.16016,.16016,.16797,.16016,.12109,.00781-.03125-.09766,0-.20703,.07031-.28906q.16016-.16016,.3125-.00781c.10547,.11328,.14453,.10547,.32813-.07813,.12109-.10547,.28906-.21875,.375-.25,.09766-.02344,.13672-.08594,.11328-.16797-.04688-.12109,.15234-.57422,.25781-.58984,.51953-.05859,1.30078-.54688,1.34375-.85156,.01563-.07031,.07813-.16797,.16016-.20703,.07031-.03906,.19141-.13672,.26953-.21484,.21875-.21484,.97656-.53516,1.43359-.60156,.4375-.05469,.44922-.0625,.32813-.27734-.10547-.19531,.0625-.37109,.46484-.48047,.16797-.04297,.42188-.18359,.57422-.32031,.14453-.12891,.33594-.24219,.40625-.24219,.08203,0,.17969-.04688,.21094-.10156,.03125-.05859,.15234-.16016,.26172-.23438,.11328-.0625,.29688-.21484,.42578-.32813,.12109-.11719,.26172-.19141,.32813-.16797,.05469,.02734,.12891-.01563,.16016-.08594,.02344-.07422,.23828-.21484,.48047-.32031,.23828-.10547,.45313-.25781,.48047-.34375,.05469-.17578,.71875-.51172,.87891-.44922,.16797,.06641,.84766-.20703,.84766-.33594,0-.16016,.23047-.35156,.36719-.29688,.07422,.02734,.15234,.00781,.18359-.04688,.03125-.04688,.14453-.11328,.25781-.13672,.10156-.02344,.26172-.0625,.35938-.08594,.24609-.05859,.45703,.18359,.34375,.38281-.04688,.09766-.0625,.21484-.03906,.28125,.04688,.11719-.21094,.42969-.35156,.42969-.05859,0-.05859,.05078-.00781,.15234,.10156,.18359-.06641,.40234-.45703,.60156-.15234,.07813-.25,.16016-.22266,.18359,.0625,.0625-.23438,.60156-.44922,.79297-.09766,.08594-.24219,.24609-.30469,.35156-.0625,.09375-.15234,.22266-.19922,.26953-.03906,.05078-.08203,.13672-.08984,.1875-.00781,.05469-.01563,.17578-.01563,.25391-.00781,.08984-.12891,.28125-.25391,.42578-.12891,.14063-.24219,.28516-.24219,.32031,0,.02344-.07031,.07813-.16797,.10156-.25391,.08203-.55859,.375-.51953,.49609,.04688,.12109-.22266,.42578-.375,.42578-.06641,0-.21484,.125-.34375,.29297-.25781,.3125-.33594,.39453-.99219,.99219-.24219,.21875-.47266,.40234-.51953,.40234-.04297,.00781-.13672,.01563-.20313,.02344-.0625,0-.11719,.03906-.11719,.08594-.00781,.14453-.12891,.44141-.18359,.44922-.24219,.02344-.36328,.10547-.73047,.46484-.45313,.44922-.6875,.60156-.80859,.52734-.04688-.03125-.20703,.08203-.35938,.24219-.16797,.17578-.3125,.26953-.36719,.23047-.05469-.03125-.07031-.02344-.03906,.03125,.03125,.04688-.04688,.19922-.16797,.33594-.45703,.51172-.75391,.80078-.82422,.80078h-.12109c-.03906,.00781-.45703,.375-.80078,.71875-.13281,.12891-.35938,.27344-.49609,.32031-.15234,.05859-.28516,.17578-.34375,.32813-.05469,.12891-.17578,.25781-.27734,.28125-.09766,.02344-.17578,.09375-.17578,.16016,0,.0625,.01563,.09375,.03906,.07031,.02344-.01563,.10156,0,.18359,.05078,.11328,.05469,.25391,.00781,.64844-.23438,.27734-.16016,.51172-.35156,.51172-.41406,.00781-.06641,.01563-.16797,.02344-.21875,0-.05469,.16016-.17578,.35156-.26953,.18359-.09766,.40234-.24219,.47266-.3125,.07813-.08203,.19922-.12891,.28125-.11328,.14453,.03906,.50391-.22266,.50391-.36719,0-.03906,.08594-.09766,.19922-.12891,.10156-.02344,.21484-.12109,.24609-.20703,.02734-.08203,.13672-.19141,.24219-.23828,.10156-.05078,.19141-.12109,.19141-.16016,0-.12109,.64844-.71484,.72656-.65625,.04297,.02344,.15234-.01563,.25-.08203,.09375-.07031,.23047-.12891,.30469-.12891,.26172,0,.78906-.27734,.83203-.44531,.03125-.10547,.15234-.21094,.27734-.25781,.12891-.04688,.39453-.23828,.58594-.44141,.18359-.19141,.46484-.41406,.59766-.48438,.14453-.07422,.32813-.23438,.40234-.35547,.07813-.11719,.20703-.26953,.28906-.33594,.32813-.26172,.6875-.63672,.82031-.87891,.08203-.13672,.26563-.28906,.41016-.33594,.18359-.0625,.26563-.15234,.26563-.26172,0-.08984,.03906-.21875,.07813-.28125,.08984-.14453,.64063-.76953,1.05469-1.19922,.16016-.16797,.37109-.48828,.46484-.71484,.10547-.22266,.21484-.40625,.25-.40625,.03906,0,.10938-.08984,.16016-.19141,.04688-.10547,.19922-.23438,.33594-.29688,.19922-.08594,.25391-.16797,.26172-.33594,.00781-.12891,.05469-.25781,.11328-.29688,.07031-.04688,.07031-.10156,.00781-.22266-.11328-.21484-.03906-.41016,.18359-.46484,.12109-.02344,.17578-.11328,.19141-.27344,.01563-.25391,.30469-.97266,.41797-1.03906,.03906-.02344,.08594-.18359,.10938-.35938s.09766-.35938,.17578-.41406c.07422-.05078,.10547-.12891,.08203-.17578-.03125-.05078,.01563-.15234,.09375-.23438,.08203-.07813,.14453-.20703,.12891-.28125-.00781-.07031,.07422-.22266,.17578-.33594,.10547-.10938,.25-.30859,.3125-.44531,.07422-.12891,.16016-.23438,.19922-.23438,.11328,0,.13672-.34375,.02344-.51953-.11719-.19922-.02344-.38281,.22656-.39844,.13672-.00781,.19922-.08203,.24609-.26563,.04297-.14453,.16016-.3125,.26563-.38281,.11328-.07031,.17578-.16016,.15234-.19922-.08203-.13672,.04688-.35156,.27734-.49609,.12109-.07422,.24219-.11328,.26563-.09766,.02344,.02344,.28906-.07031,.59375-.20703,.30078-.13672,.62109-.26563,.70313-.28125,.07813-.01563,.21484-.09375,.29688-.18359,.07813-.08594,.35156-.19922,.60547-.24609,.25781-.05859,.52734-.16797,.60938-.25,.07031-.07813,.18359-.12891,.24609-.10156,.16797,.0625,.79297-.12891,.94531-.28906,.18359-.19141,.80859-.15234,1.23047,.07031,.25781,.14453,.3125,.14453,.47266,.04297,.14453-.09766,.37891-.12109,.92188-.10547,.16797,0,.93359-.07422,1.32031-.13672,.32813-.04688,.44531-.05469,.71875-.03125,.19141,.00781,.66406-.04688,.98438-.12109,.25391-.04688,.88672,.06641,.96875,.18359,.10938,.16797,.58203,.17578,.94922,.01563,.21094-.09375,.39453-.20703,.42578-.25391s.19141-.09766,.35938-.11328c.17578-.01563,.40234-.05469,.51172-.07813,.35938-.09766,.59375-.12109,1.19922-.13672,.32813-.00781,.75391-.06641,.92969-.12109,.18359-.05469,.38281-.07813,.44141-.05469,.0625,.02344,.21484-.02344,.33594-.11328,.18359-.12109,.26953-.13672,.44531-.0625,.17578,.0625,.29688,.03906,.72266-.17578,.27734-.13672,.57422-.23438,.64844-.21094,.07813,.02734,.23828,0,.36719-.04688,.32813-.12891,.83984-.16797,1.07031-.07813,.11328,.03906,.29688,.09375,.41797,.11719,.19141,.04297,.22266,.02734,.26172-.16797,.16797-.81641,.29688-.98438,.60156-.82422,.10156,.05859,.19141,.03516,.35156-.10156,.11328-.09766,.30469-.25781,.42578-.35938,.125-.10547,.26953-.16016,.35156-.13672,.07813,.03125,.21484,.00781,.30078-.03906,.08984-.04297,.37891-.09766,.64063-.12109,.41797-.03906,.51172-.01563,.64844,.12109,.14453,.14063,.16016,.22266,.11328,.52734-.03906,.30469-.03125,.35156,.09375,.35938,.24219,.01563,.29688,.03125,.60938,.13672,.32813,.11719,.50391,.03906,.96875-.41016,.12891-.125,.28125-.20703,.33594-.18359,.07813,.03125,.09375-.02344,.0625-.22266-.02344-.15234-.00781-.33594,.04297-.41797,.05469-.10156,.04688-.20703-.03516-.375-.07031-.13672-.09375-.29688-.0625-.39844,.11328-.34375,.03906-.99219-.12109-1.08984-.10938-.07031-.16797-.32813-.20703-.92578-.01563-.22656-.04688-.53906-.07813-.69922-.03516-.16016-.01953-.35156,.02344-.42969,.05469-.10547,.04688-.19141-.03516-.32031-.13281-.19922-.36719-.17578-.60547,.0625-.08984,.08984-.20703,.13672-.27344,.11328-.0625-.02344-.10938-.01563-.10938,.01563,0,.13672-.33984,.41797-.48828,.41797-.25,0-.38672,.19141-.41797,.58203-.01563,.19141-.05469,.39063-.08594,.44141-.03516,.04688,.01563,.29297,.10156,.55078,.10547,.29688,.12891,.50391,.08984,.59375-.09766,.16797-.44922,.39844-.67188,.42969-.41016,.06641-.63281,.13672-.80859,.25-.09766,.0625-.21484,.10938-.25,.09375-.03906-.00781-.14453,.02344-.23828,.07422-.20703,.11719-.75391,.00781-.88672-.18359-.08203-.11328-.07422-.17969,.03125-.36328,.07813-.125,.16797-.23047,.19922-.23047s.09766-.07031,.14453-.16016c.0625-.12891,.05469-.19922-.03125-.33594-.10547-.14453-.10547-.19141,0-.39063,.0625-.12891,.07813-.23438,.03906-.23438s-.25-.07813-.46484-.17578c-.20703-.09375-.41406-.16016-.46484-.15234-.03906,.01563-.10938,.03516-.16016,.04297-.39844,.09375-.51172,.16016-.55078,.31641-.02344,.11328-.17578,.24219-.375,.33594-.19922,.08984-.35156,.21875-.35938,.30469-.01563,.08203-.05859,.17578-.10547,.20313-.04688,.03125-.08984,.15625-.08984,.28516,0,.52734-.125,1.40234-.21484,1.48828-.16016,.16016-.67969,.21484-.91797,.09766-.25-.12109-.36328-.41797-.24219-.63281,.05859-.09766,.03906-.23047-.0625-.46484-.07422-.18359-.16016-.46484-.19141-.63281-.03516-.16016-.08984-.29297-.12891-.29297-.14453,0-.32813-.26563-.28125-.40234,.05859-.16797-.09375-.22266-.48047-.19922-.28516,.01563-.74219,.27344-.79688,.44922-.02734,.07031-.13672,.17578-.25,.23047-.13672,.08203-.19141,.16016-.16016,.25781,.01563,.08594-.04688,.23828-.16016,.35938-.10156,.10938-.19141,.26953-.19141,.34375,0,.26172-.17578,.63281-.32031,.67969-.08594,.02344-.21484,.19141-.28906,.35938-.22266,.50391-.59766,.52734-.85547,.0625-.41406-.77344-.94141-1.01563-1.47266-.67188-.14063,.09766-.26172,.21875-.26172,.27344s-.09766,.19922-.21875,.32813c-.125,.12891-.28516,.3125-.36719,.40625-.09375,.11328-.19141,.15234-.29297,.12109-.08984-.02344-.24219,.00781-.35547,.08203-.10938,.07031-.26172,.10938-.34375,.08594-.07813-.02344-.375-.0625-.66406-.09375-.28516-.02734-.57422-.08203-.63672-.11328-.12891-.0625-.70703-.14453-1.44141-.19141-.72656-.04688-.88672-.18359-.65625-.55469,.16797-.24609,.95313-.78906,1.18359-.8125,.34375-.05078,.90234-.35547,1.03906-.57813,.08203-.12109,.15234-.23047,.16016-.24609s.08203-.04297,.15234-.05078c.07422-.00781,.16016-.05469,.18359-.10156,.07422-.10547,1.21875-.6875,1.21875-.61719,0,.14453,.22266-.16016,.26172-.35938,.06641-.30469,.27344-.50391,.46484-.44922,.08594,.03125,.32813,.00781,.54297-.04688,.32813-.08203,.43359-.08203,.75391,.04688,.20703,.08203,.375,.16797,.375,.20703,0,.11328,.42188,.29688,.82422,.35547,.34375,.05469,.39844,.03906,.57422-.15234,.14453-.16016,.18359-.25781,.12891-.35156-.03906-.07422-.04688-.25-.03125-.38672,.03125-.18359,0-.27734-.11328-.35938-.32813-.23047-.35156-.41406-.14453-.94531,.11328-.26172,.20313-.56641,.20313-.66406,0-.10156,.09375-.40625,.21484-.67969,.21484-.48828,.40625-.66406,.75-.66406,.10547,0,.19531-.07813,.24219-.23828,.09375-.27344,.29688-.35156,.6875-.28125,.28906,.05859,.74219,.44141,.74219,.64063,0,.15234,.28125,.22266,.48047,.12109,.08984-.04688,.16016-.06641,.16016-.03125,0,.03125,.17578-.12891,.38672-.35547l.38281-.40625-.01563-.58203c-.00781-.32031-.05078-.67188-.08984-.78516-.04688-.11328-.08594-.24219-.09375-.28125-.04297-.26172-.18359-.67969-.24219-.67969-.03125,0-.11719-.12891-.19922-.28906-.12109-.26172-.12109-.30078-.00781-.48047,.34375-.53516,.78516-.50391,1.04688,.07422,.08984,.19141,.27344,.40625,.43359,.50391,.15234,.09766,.35938,.25391,.46484,.34375,.14453,.13672,.21484,.15234,.34375,.07813,.08594-.03906,.26172-.0625,.38281-.03125,.15234,.03125,.3125,0,.47266-.10156l.24609-.14453-.15234-.24219c-.08594-.125-.14844-.32031-.14844-.42969,.00781-.11328-.05078-.35938-.12891-.5625-.07422-.19922-.14453-.44531-.16016-.55859-.03906-.35156-.18359-.625-.35156-.67969-.09766-.02344-.16797-.07031-.17578-.10547-.02734-.16797-.08203-.72656-.09766-.93359-.00781-.16797-.09766-.28906-.28906-.41797-.15234-.10156-.375-.35938-.48828-.56641-.10938-.20703-.28516-.49609-.39844-.64063-.17578-.23828-.18359-.28906-.10547-.64063,.05078-.20703,.14453-.51953,.21094-.69531,.15234-.40625,.11719-1.36719-.06641-1.71094-.0625-.13672-.10156-.28906-.07813-.33594,.08594-.13672-.11328-.29688-.42578-.34375-.16016-.03516-.38281-.07422-.49609-.08984-.10938-.02344-.26953,0-.35156,.05469ZM23.64543,11.05653c.10938,.06641,.22266,.14453,.23828,.19531,.00781,.03906,.24219,.10156,.51172,.125,.36719,.04297,.54688,.02344,.73047-.07813,.19922-.10547,.26953-.10547,.35938-.02344,.10156,.09375,.19922,.11719,.625,.16797,.30078,.03906,.29297,.03906,.35156,.17578,.0625,.16797-.30469,.78125-.53906,.88672-.11719,.05469-.23047,.0625-.31641,.00781-.08203-.03906-.16797-.05469-.20313-.03125-.03906,.02344-.19141,.0625-.34375,.08594-.14453,.02734-.28516,.07422-.3125,.11328-.07813,.11328-.71875,.41016-.88672,.41016-.08594,0-.27344,.05469-.39844,.125-.13672,.06641-.35938,.11328-.49609,.10547-.14453-.00781-.35156,.03125-.46484,.08594-.16797,.08203-.29688,.08203-.60156,0-.51172-.125-.73438-.125-1.03906,0-.20703,.08984-.29688,.08984-.51172,0-.43359-.18359-.48828-.27734-.34375-.62109s.22266-.41016,.42188-.35938c.10547,.03125,.1875-.03516,.27344-.20313,.13672-.26953,1.21484-.85547,1.41797-.77344,.07031,.02344,.21484-.04297,.33594-.15234,.41406-.38281,.75781-.45703,1.19141-.24219Z"/>
   <path class="c"
         d="M3.93059,24.26747c-.07031,.01563-.15625,.13281-.18359,.26953-.07031,.33594-.25391,.49609-.4375,.39453-.21094-.11328-.23438-.10547-.18359,.07031,.02344,.08984-.03516,.21484-.12109,.29688-.23047,.22266-.32813,.44531-.53516,1.25391-.12891,.48828-.25,.78516-.35938,.875-.13672,.10938-.16016,.19141-.12109,.38281,.04688,.20703,.08594,.24609,.26172,.22266,.11328-.01563,.28906-.10156,.39453-.20703,.10938-.11328,.26172-.17578,.375-.16016,.09766,.00781,.25-.03906,.32031-.12109,.07813-.07031,.16797-.13672,.20703-.13672s.25-.16797,.46484-.38281c.33594-.3125,.43359-.47266,.56641-.91797,.09766-.30469,.28125-.70703,.41797-.89844,.24609-.35156,.27344-.54297,.07813-.83203-.07031-.10938-.84766-.18359-1.14453-.10938Z"/>
   <path class="c"
         d="M6.02824,26.00184c0,.16797-.23828,.38281-.36719,.33594-.07422-.02344-.11328,.01563-.11328,.11328,0,.07813-.04688,.19922-.10156,.25391-.16797,.16797-.28125,.40234-.32031,.69531-.05078,.27344-.16016,.41016-.37109,.41016-.05469,0-.19141,.07813-.29297,.17578-.09766,.10547-.32813,.3125-.50391,.46484-.36328,.3125-.40234,.48828-.17578,.71094,.125,.12891,.19922,.13672,.61328,.07031,.32031-.05469,.52734-.14063,.65625-.26953,.10547-.10547,.32031-.26563,.49609-.35156,.28125-.14453,.32031-.14453,.43359-.04297,.13672,.13672,.09375,.32813-.08203,.39453-.0625,.02344-.10938,.12891-.10938,.22266,0,.10547-.03516,.22266-.06641,.27344-.04688,.07813-.53516,.36719-.58984,.35156-.01563-.00781-.17578,.01563-.35156,.04688-.28125,.03906-.35547,.09766-.46484,.33594-.11328,.22656-.12109,.29688-.03125,.34375,.05469,.03906,.125,.07422,.15234,.07422,.02344,0,.08594,.08594,.13281,.19141l.08984,.19141,.54297-.19922c.29688-.11328,.64844-.19922,.77734-.19922,.26953,.00781,.6875-.25781,.6875-.43359,0-.0625,.08594-.20703,.19922-.32031s.19922-.27344,.19922-.35938c0-.09766,.13672-.29688,.29688-.46484,.16797-.16016,.30469-.3125,.3125-.35156,.00781-.03125,.01563-.08984,.02344-.12891,0-.03906,.13672-.11719,.28906-.16797,.23828-.07813,.26953-.11719,.24609-.3125-.01563-.125-.04688-.26172-.07813-.32031-.03125-.04688,.03906-.17578,.16016-.28516,.20703-.19141,.20703-.21094,.07813-.35156-.18359-.20313-.48828-.27344-.6875-.16797-.12109,.0625-.22266,.05469-.41406-.05078-.3125-.16016-.37891-.23828-.32813-.42187,.02344-.08984-.06641-.21875-.25-.35156-.30469-.23438-.6875-.28906-.6875-.10547Z"/>
   <path class="c"
         d="M8.86809,29.24012c-.02344,.05078-.03125,.12109-.00781,.16016,.0625,.09766-.23828,.46484-.42188,.53125-.11328,.03125-.14453,.125-.14453,.38281-.00781,.18359,.02344,.39844,.0625,.47266,.07031,.13672-.09766,.38281-.24609,.38281-.13672,0-.33594,.50391-.34766,.83203,0,.18359,.05078,.43359,.11328,.55078,.09766,.21094,.13672,.22656,.44141,.19141,.18359-.01563,.39063-.08594,.46484-.15625,.07813-.08203,.23047-.11328,.42188-.09766,.32031,.03125,.39063-.02344,.60938-.44922,.08594-.16016,.23828-.33594,.35156-.38281,.16797-.08203,.19141-.12891,.14453-.3125-.03125-.12109-.05859-.34375-.05078-.50391,0-.28125-.08594-.42188-.44531-.71875-.08984-.07422-.15234-.21875-.14453-.32031,.00781-.16797-.29688-.55078-.44922-.55078-.03125,0-.10938-.02734-.17578-.05078-.0625-.02344-.14453-.00781-.17578,.03906Z"/>
   <path class="c"
         d="M7.64543,42.0409c-.10547,.02344-.17578,.08203-.16016,.12891,.02344,.08984,.30469,.07031,.40625-.03125,.10547-.10547-.03125-.15234-.24609-.09766Z"/>
   <path class="c"
         d="M6.6298,42.52918c.02344,.03906,.0625,.08203,.08594,.08203,.01563,0,.03125-.04297,.03125-.08203,0-.04688-.03906-.07813-.08594-.07813-.03906,0-.05469,.03125-.03125,.07813Z"/>

</g>
</svg>
