<?xml version="1.0" encoding="UTF-8"?>
<svg xmlns="http://www.w3.org/2000/svg"
     version="1.1"
     width="26.97030667mm"
     height="35.76274160mm"
     viewBox="0.00000000 0.00000000 76.45126407 101.37466838">

<g transform="scale(4.54756027)">   <defs>
      <style type="text/css"><![CDATA[
      .a {
        stroke: #000;
        stroke-linecap: round;
        stroke-linejoin: round;
        stroke-width: 0.01px;
      }
    ]]></style>
   </defs>
   <path class="a"
         d="M15.9938.03535a1.80233,1.80233,0,0,1-.36342.12114.81259.81259,0,0,0-.40581.23622.64078.64078,0,0,1-.26045.19988,3.07359,3.07359,0,0,0-.81162.854,1.1256,1.1256,0,0,0-.16354.43,1.229,1.229,0,0,1-.23622.533,1.68777,1.68777,0,0,0-.25439.4785,1.01174,1.01174,0,0,1-.26045.72077.779.779,0,0,0-.19382.27256c-.01817.19988-.11508.44216-.17565.44216-.02422,0-.06057.06056-.08479.1393A2.89847,2.89847,0,0,1,12.3112,5.22a.11381.11381,0,0,0-.04846.103,3.2061,3.2061,0,0,1-.35736.75711,4.52191,4.52191,0,0,0-.43.72077.58784.58784,0,0,1-.12113.18777.48373.48373,0,0,0-.12114.2241A14.223,14.223,0,0,1,10.264,9.10856c-.02423,0-.09085.11509-.15142.25439a.86872.86872,0,0,1-.18171.315.54818.54818,0,0,0-.11508.26651.72129.72129,0,0,1-.0848.27256.7574.7574,0,0,0-.09092.23016,1.10467,1.10467,0,0,1-.17565.315,1.38546,1.38546,0,0,0-.38159.60569,2.236,2.236,0,0,1-.62991.6602c-.03635.00606-.07269.0848-.09086.1696-.0424.25439-.103.35736-.2241.3937-.16354.05451-.4785.36947-.4785.47849a.79079.79079,0,0,1-.212.315,2.333,2.333,0,0,0-.27862.33313.383.383,0,0,1-.23622.15748c-.15142.02423-.16959.04846-.12114.13931.06057.12114.02423.29679-.06662.3089-.03029.00606-.0848.01212-.12114.01817-.109.01212-.35736.29074-.44216.48456a1.3449,1.3449,0,0,1-.25439.35736c-.62386.59357-.76922.75711-.84191.93276-.04845.109-.11508.19988-.15142.19988s-.05451.02422-.03028.05451c.04239.07268-.13326.24833-.24228.24833a.14049.14049,0,0,0-.11508.109.53847.53847,0,0,1-.212.212,1.09579,1.09579,0,0,0-.30891.315.86492.86492,0,0,1-.29678.29679.27286.27286,0,0,1-.33313-.00606c-.15143-.07874-.19383-.07874-.3937,0-.12114.05451-.321.1272-.44216.16959-.12719.0424-.23016.103-.23016.1272,0,.03028-.06663.109-.15142.18171a.85768.85768,0,0,0-.21805.36947c-.04846.17565-.109.25439-.23622.30284a.67621.67621,0,0,0-.27862.24834,1.84681,1.84681,0,0,1-.27862.35735.68577.68577,0,0,0-.16959.22411c0,.03634-.06663.09085-.13931.12719-.103.04846-.13931.103-.12114.19988a.25969.25969,0,0,1-.05451.22411.50922.50922,0,0,0-.09691.17565.787.787,0,0,1-.20594.25439,1.43262,1.43262,0,0,0-.29678.40581c-.103.23016-.103.25439,0,.5209.13325.35735.26044.50272.47243.55118a3.25939,3.25939,0,0,1,.38159.11508.4289.4289,0,0,0,.3937,0,.34454.34454,0,0,1,.35736.01211,1.26371,1.26371,0,0,0,.69654.04846,2.38691,2.38691,0,0,1,.90854.06056,1.78112,1.78112,0,0,0,.60569.06057,4.17968,4.17968,0,0,1,.50878-.03028.59422.59422,0,0,0,.36947-.07874.71418.71418,0,0,1,.35736-.09085,3.0413,3.0413,0,0,0,1.02362-.39976,4.28484,4.28484,0,0,1,.88431-.36947c.07268.00606.13325-.01212.13325-.03634a.668.668,0,0,1,.24227-.18171.64656.64656,0,0,0,.27256-.24228.83079.83079,0,0,1,.24228-.27256c.18171-.14536.20594-.18776.17565-.38158-.07874-.57541-.103-.62992-.41187-.78134-.38158-.18777-.60569-.25439-.7026-.19383a.51346.51346,0,0,1-.32707-.06662,1.295,1.295,0,0,0-.41187-.11508c-.17565,0-.37553-.15748-.321-.24834.02423-.03028.03029-.05451.01817-.05451s-.20593-.06662-.4361-.15142a1.29027,1.29027,0,0,0-.46638-.11508.6172.6172,0,0,1-.50272-.19988c-.0424-.09692.109-.38159.19988-.38159a.91265.91265,0,0,0,.25439-.27256,1.23048,1.23048,0,0,1,.3089-.30284.72465.72465,0,0,0,.23622-.26045,3.30094,3.30094,0,0,1,.79951-.89037,1.11487,1.11487,0,0,0,.29073-.34524A.83109.83109,0,0,1,6.9084,15.523c.11508-.06662.20594-.15748.19988-.19382-.01817-.15748.01212-.218.1272-.25439.06662-.01817.12113-.07268.12113-.12114,0-.08479.02423-.109.3937-.424a10.61143,10.61143,0,0,0,.848-.8298,4.616,4.616,0,0,1,.75106-.636.356.356,0,0,0,.03634-.15748.47581.47581,0,0,1,.34524-.45427c.15748-.0424.212-.09691.29074-.321a2.53538,2.53538,0,0,1,.29073-.52695,2.16068,2.16068,0,0,0,.25439-.47244.33043.33043,0,0,1,.218-.24227c.07874-.01817.14536-.0848.14536-.13931a2.49788,2.49788,0,0,1,.51484-.80557,3.59042,3.59042,0,0,0,.51484-1.07208.556.556,0,0,1,.13931-.27256,4.17316,4.17316,0,0,0,.41187-.68443,3.51443,3.51443,0,0,1,.58146-.848,1.30971,1.30971,0,0,0,.321-.41793,1.54869,1.54869,0,0,1,.20594-.44216,5.97848,5.97848,0,0,0,.33919-.68443.86727.86727,0,0,1,.24833-.38158.251.251,0,0,0,.14537-.15748c.02422-.06057.06056-.11508.09085-.11508.02423,0,.06663-.07269.0848-.15748A.40729.40729,0,0,1,14.7763,4.469c.11508-.04845.212-.109.212-.13325a1.06315,1.06315,0,0,1,.19988-.25439,2.37294,2.37294,0,0,0,.55724-.94488c.06662-.20593.14536-.33313.23621-.37553.09692-.0424.17565-.1817.27257-.49061.08479-.27862.16959-.43609.24227-.46032.1272-.03634.30285-.41187.3089-.636.01217-.8298-.07263-1.08418-.35125-1.09025A.59466.59466,0,0,1,16.21185.0293.23192.23192,0,0,0,15.9938.03535Z"/>

</g>
</svg>
