<?xml version="1.0" encoding="UTF-8"?>
<svg xmlns="http://www.w3.org/2000/svg"
     version="1.1"
     width="35.91384893mm"
     height="31.89409270mm"
     viewBox="0.00000000 0.00000000 101.80297001 90.40839345">

<g transform="scale(5.10555451)">   <defs>
      <style type="text/css"><![CDATA[
      .a {
        stroke: #000;
        stroke-linecap: round;
        stroke-linejoin: round;
        stroke-width: 0.01px;
      }
    ]]></style>
   </defs>
   <path class="a"
         d="M3.01313.0284a1.07232,1.07232,0,0,1-.29679.05451c-.37553.0424-.56329.109-.642.21805a2.81755,2.81755,0,0,1-.424.33919,1.93294,1.93294,0,0,0-.41187.33313,1.39035,1.39035,0,0,1-.19382.218A2.89348,2.89348,0,0,0,.46317,2.22706a.49027.49027,0,0,0,.13325.26044c.09086.09086.109.15143.06663.23017-.06663.12719.13325.40581.26045.35735a.51834.51834,0,0,1,.315.1272,1.61288,1.61288,0,0,0,.321.18171c.0424.006.32707.06662.636.12719a4.92016,4.92016,0,0,1,.79345.218c.13325.05451.49061.19382.7874.30285.30285.11508.81768.321,1.15081.46032a6.76,6.76,0,0,0,.75712.27256c.08479.01817.20593.03634.27256.05451a1.51819,1.51819,0,0,0,.16353.02423.29793.29793,0,0,1,.109.1272c.0848.16353-.1272.3937-.29073.3089a1.67743,1.67743,0,0,0-1.07208.18171,2.77983,2.77983,0,0,1-1.29618.212.46848.46848,0,0,0-.32707.00605,1.79942,1.79942,0,0,1-.47244.07269A2.72438,2.72438,0,0,0,1.402,6.35787a.96235.96235,0,0,1-.24228.18776c-.03028,0-.12719.11508-.23016.24834a2.27588,2.27588,0,0,1-.49666.45426c-.17565.11509-.321.25439-.321.30891A1.11418,1.11418,0,0,1,.03919,7.86c-.15143.41187.19382.58147,1.16292.58147a1.60984,1.60984,0,0,0,.90248-.13326,1.24059,1.24059,0,0,1,.51484-.13931,2.06972,2.06972,0,0,0,.4785-.04845.60817.60817,0,0,1,.64809.18171c.07874.14536-.01212.23622-.46639.50878a1.39384,1.39384,0,0,0-.38158.27862,9.93144,9.93144,0,0,1-.99939,1.03573,1.98729,1.98729,0,0,0-.69049.97516,1.88136,1.88136,0,0,1-.16354.45427.57228.57228,0,0,0-.08479.26044.71183.71183,0,0,1-.06057.24834c-.103.18171.04845.4361.71471,1.19321.15748.17565.321.3513.36947.3937.0424.0424.18171.16959.30285.29073.38764.3937.51484.43,1.35675.38159.40581-.02423.78134-.0424.82979-.03635a4.81691,4.81691,0,0,1,1.02968.17565,2.22214,2.22214,0,0,0,.55118.109,1.17344,1.17344,0,0,1,.36341.06057,2.7392,2.7392,0,0,0,.68443.03634,1.49986,1.49986,0,0,0,.78134-.12114.56964.56964,0,0,1,.45427-.06662,7.74071,7.74071,0,0,0,.78134.05451c.533.01211.65415-.03634,2.04118-.76923a8.31243,8.31243,0,0,1,1.78073-.65415,1.43852,1.43852,0,0,0,.39976-.15142,1.87687,1.87687,0,0,1,.49061-.15142,3.637,3.637,0,0,0,.44215-.09086.4327.4327,0,0,1,.36342.06663c.23016.1272.67837.16354.67837.06057,0-.03029.07269-.103.15748-.15748.14537-.09691.1696-.09691.41793.02423a.82606.82606,0,0,1,.36947.32707,2.60217,2.60217,0,0,0,.27256.39976.60211.60211,0,0,1,.17565.50272,1.2336,1.2336,0,0,0,.0848.46638,2.327,2.327,0,0,1,.15142.51484.8031.8031,0,0,1-.13325.72683c-.109.20593-.24228.44821-.30285.533a.34507.34507,0,0,0-.07268.24833.8963.8963,0,0,1-.09085.40581,2.13066,2.13066,0,0,0-.12114.37553,1.05323,1.05323,0,0,0,.24228.30285c.13325.13325.24227.212.24227.1817s.103-.12113.23017-.19987a2.78737,2.78737,0,0,0,.82374-.66021,1.22239,1.22239,0,0,1,.321-.315,1.8585,1.8585,0,0,0,.68443-.89642,1.13308,1.13308,0,0,1,.18171-.41793,5.152,5.152,0,0,0,.33918-.59963c.15143-.315.15143-.32707.06057-.61175a2.72259,2.72259,0,0,1-.06662-1.00544,3.61133,3.61133,0,0,0-.04241-.93277.78444.78444,0,0,1-.05451-.321.4573.4573,0,0,0-.16959-.27861.57965.57965,0,0,1-.18777-.28468.39059.39059,0,0,0-.09691-.212.62551.62551,0,0,1-.13931-.36947,2.51622,2.51622,0,0,0-.27862-.3513c-.2665-.29679-.27256-.315-.1817-.4785a1.7486,1.7486,0,0,1,.67837-.59963,1.08512,1.08512,0,0,0,.44216-.72683.87716.87716,0,0,1,.20593-.29679c.25439-.29073.3089-.53906.15142-.73289-.08479-.109-.09691-.17565-.05451-.25439a.26532.26532,0,0,0,.02423-.19987,1.00668,1.00668,0,0,1,.15142-.44216A2.118,2.118,0,0,0,19.918,6.0308a2.88266,2.88266,0,0,0-.17566-1.34464,1.06187,1.06187,0,0,1-.11508-.43,2.34559,2.34559,0,0,0-.66626-1.1448,2.25182,2.25182,0,0,1-.6178-.62386c0-.03634-.0424-.06057-.09086-.06057-.09085,0-.23621-.12113-.90247-.745a3.31155,3.31155,0,0,0-.67232-.46032,1.142,1.142,0,0,0-.72683-.15748c-.81163.05451-1.02968.12719-1.32041.41793a1.30884,1.30884,0,0,1-.19988.16353,1.58765,1.58765,0,0,0-.48455.8722c-.109.4361-.29679.69654-.49666.69654a1.6222,1.6222,0,0,1-.47244-.23016,5.73,5.73,0,0,0-1.6596-.67232,2.16623,2.16623,0,0,1-.48455-.14536,12.177,12.177,0,0,0-1.93821-.68443,1.717,1.717,0,0,1-.424-.06663,2.58874,2.58874,0,0,0-1.01757.01211A.56149.56149,0,0,1,7.047,1.373a2.98133,2.98133,0,0,0-.642-.19382,6.96567,6.96567,0,0,1-.81163-.212A2.60315,2.60315,0,0,0,5.03008.834.69469.69469,0,0,1,4.57581.622,1.35134,1.35134,0,0,0,3.7763.24645,1.13729,1.13729,0,0,1,3.3826.12531C3.14638.00417,3.06158-.02006,3.01313.0284ZM14.59394,6.06714a.277.277,0,0,1,.09691.24833.37994.37994,0,0,0,.05451.26045.875.875,0,0,1,.109.321,1.548,1.548,0,0,0,.12114.36948c.09691.17565.09085.19987-.05452.48455-.12113.24833-.19382.315-.37552.36341a2.13027,2.13027,0,0,1-1.10236-.02422,4.99631,4.99631,0,0,0-1.48394-.36342c-.81769-.09085-.81769-.45427,0-.73289a2.178,2.178,0,0,0,.44215-.20593,1.88894,1.88894,0,0,1,.49061-.218,2.395,2.395,0,0,0,.45427-.18776.48293.48293,0,0,1,.212-.07874,2.05517,2.05517,0,0,0,.45427-.17565C14.45463,5.90966,14.43646,5.90966,14.59394,6.06714ZM9.36077,9.84665c.09691.06663.28468.09085.75711.0848.34525-.00606.79952.00605,1.01151.01817.66626.04239.68443.315.06662.81768-.26044.212-.3513.25439-.50878.23016a1.51283,1.51283,0,0,0-.636.12114A2.88,2.88,0,0,1,9.3244,11.27a1.91647,1.91647,0,0,0-.46033.05452c-.14536.03634-.315.00605-.78739-.15143a4.20721,4.20721,0,0,0-.83586-.20593,1.021,1.021,0,0,1-.73288-.33313.35032.35032,0,0,1,.02422-.218c.06057-.109.109-.1272.48456-.19382.08479-.01817.23622-.06057.33313-.09086a6.03682,6.03682,0,0,1,1.24166-.3089C9.17906,9.74368,9.22146,9.74974,9.36077,9.84665Z"/>

</g>
</svg>
