<?xml version="1.0" encoding="UTF-8"?>
<svg xmlns="http://www.w3.org/2000/svg"
     version="1.1"
     width="55.70672208mm"
     height="23.19595819mm"
     viewBox="0.00000000 0.00000000 157.90879806 65.75227334">

<g transform="scale(2.98348740)">   <defs>
      <style type="text/css"><![CDATA[
      .a {
        fill: #000;
        stroke: #000;
        stroke-miterlimit: 10;
        stroke-width: 0.25px;
        fill-rule: evenodd;
      }
    ]]></style>
   </defs>
   <path class="a"
         d="M40.00825,5.4979c1.2924,0,4.7334.99121,4.6484-.98239-.1294-2.6573-5.9063-4.3389-7.8081-4.3399A27.15355,27.15355,0,0,0,34.05065.1649a25.39107,25.39107,0,0,0-3.1059.79881c-2.6807.6191-5.2564.7983-7.896,1.5347-1.334.37149-2.6533.7046-3.8926,1.1264-1.25729.4302-2.6011.5708-3.8794,1.0347-2.4902.9058-4.6948,2.3286-7.1636,3.0615a19.46746,19.46746,0,0,0-5.7187,2.6055A5.21938,5.21938,0,0,0,.227,14.25861c-.106,1.0059-.3149,2.7017.5396,3.4209a4.93407,4.93407,0,0,0,2.3837.6616c.8511-.1294,1.3858-1.2241,1.9205-1.8134a16.22213,16.22213,0,0,0,2.0019-3.05081,6.383,6.383,0,0,1,3.9429-2.80959c3.9707-1.313,8.6894-1.8745,12.8081-2.7305,2.7964-.5805,5.65621-.665,8.4839-1.0097C34.86665,6.61511,37.44325,5.4979,40.00825,5.4979Z"/>
   <path class="a"
         d="M35.06535,14.77231c-.5029-2.0703.0693-4.4849.3603-6.5259a2.82289,2.82289,0,0,1,.4834-1.7139c.5303-.55461,1.5396-1.5639,2.3892-1.4213.6318.1059,1.3935.8452,1.959,1.17769,1.3828.81151,2.6772,1.88181,1.9721,3.63821-.2631.6562-.978,1.17379-1.3891,1.7309a8.7876,8.7876,0,0,0-1.0337,1.729c-.38869.857-.4209,2.6568-1.3711,2.9615C37.25475,16.72931,35.374,16.04771,35.06535,14.77231Z"/>
   <path class="a"
         d="M9.85345,20.86851a12.68722,12.68722,0,0,0-4.1665-.4253c-2.501-.13431-5.2862-.5464-4.1714-3.7588.9775-2.7896,10.5986,1.0537,12.6191,1.0352.6885-.0059,1.3775,0,2.0655,0a34.63008,34.63008,0,0,1,4.2475.15329c1.3316.16451,2.7705-.17139,4.0708.13231,2.3301.5435,4.9448.30569,7.37841.30569h7.36669c2.3614,0,4.5445-.38769,6.8467-.59039.9683-.0849,1.9824.0088,2.95461-.0009,1.07759-.0108,1.33589.5078,1.96779,1.2265.3628.4131,1.9287,1.6875,1.7568,2.13379-.189.49561-2.8374.18751-3.4028.18751-6.0933,0-12.1885.1978-18.30279.1978H23.86805c-3.92719,0-7.751.8222-11.709.2402A8.88908,8.88908,0,0,1,9.85345,20.86851Z"/>

</g>
</svg>
