<?xml version="1.0" encoding="UTF-8"?>
<svg xmlns="http://www.w3.org/2000/svg"
     version="1.1"
     width="18.67521180mm"
     height="55.15282913mm"
     viewBox="0.00000000 0.00000000 52.93759010 156.33865783">

<g transform="scale(5.48693194)">   <defs>
      <style type="text/css"><![CDATA[
      .a {
        stroke: #000;
        stroke-linecap: round;
        stroke-linejoin: round;
        stroke-width: 0.01px;
      }
    ]]></style>
   </defs>
   <path class="a"
         d="M9.06748.19562A3.00247,3.00247,0,0,1,7.85,1.43729c-.14536.05451-.2665.12114-.2665.15142,0,.0848-.41187.29679-.50273.26045a1.51675,1.51675,0,0,1-.3513-.36341c-.2241-.29074-.32707-.36342-.49666-.33313a.4708.4708,0,0,1-.1696-.05452c-.09085-.05451-.18776-.03634-.44821.0848a1.06075,1.06075,0,0,1-.533.12114.45329.45329,0,0,0-.35735.09085,1.84765,1.84765,0,0,1-.41187.22411,1.79831,1.79831,0,0,0-.48456.32707,2.16467,2.16467,0,0,1-.49061.35736c-.14536.07268-.3513.18776-.46032.25439L2.6835,2.679l-.1272-.1272A.27338.27338,0,0,1,2.46545,2.255c.03028-.13931,0-.19987-.15142-.33313a.68888.68888,0,0,0-.30285-.15748.786.786,0,0,0-.52089.315.63105.63105,0,0,1-.26049.23618,1.5659,1.5659,0,0,0-.60569.854,1.65824,1.65824,0,0,1-.28468.80557L.188,4.20527.34549,4.496c.1272.23016.14537.321.09085.41187a1.4412,1.4412,0,0,0-.08479.38159c-.01212.14536-.03634.28467-.0424.321a2.00611,2.00611,0,0,0,.02423.41793.716.716,0,0,1-.06658.54516c-.11508.19382-.11508.2665-.04845,1.18715.01211.15143.04239.54513.06662.87826a2.29717,2.29717,0,0,0,.1272.72077.17182.17182,0,0,1,0,.24228,2.153,2.153,0,0,0-.19988,1.0963c-.00606.33313-.02423.75711-.03634.93882A1.42555,1.42555,0,0,0,.2244,12.152a.39835.39835,0,0,1,.01212.321.32787.32787,0,0,0,.00605.29073.268.268,0,0,1,0,.28468,1.89742,1.89742,0,0,0-.09085.527c-.01817.218-.03029.47244-.0424.57541a.48113.48113,0,0,0,.0424.25439,3.32178,3.32178,0,0,1-.01211,1.381,1.82006,1.82006,0,0,0-.13326.75711c.0424.745.06663,1.05391.109,1.33252a1.11258,1.11258,0,0,1-.02423.55724,1.80548,1.80548,0,0,0,.01211.86614c.04846.35736.09086.72077.09086.80557a6.20837,6.20837,0,0,1-.03634.848c-.03635.3089-.03029.321.19382.52695a.78957.78957,0,0,0,.36947.212c.17565,0,.62386-.22411.62386-.3089,0-.03029.07268-.09086.16959-.13326a1.345,1.345,0,0,0,.28468-.1817,2.78091,2.78091,0,0,1,.73289-.52695c.09085,0,.09085-.00606.11508-.24228a.98427.98427,0,0,1,.03634-.212,1.186,1.186,0,0,0-.02423-.29073.51244.51244,0,0,0-.28467-.37553,1.23832,1.23832,0,0,1-.29678-.25449,1.58791,1.58791,0,0,1,.0424-.87826c.05451-.06662.05451-.17565,0-.44821a6.73671,6.73671,0,0,1-.07269-.87219,1.29712,1.29712,0,0,0-.11508-.67838c-.109-.15748-.109-.16959.02423-.424a1.829,1.829,0,0,0,.15748-.41187,3.62416,3.62416,0,0,0,.01211-1.0539,1.44141,1.44141,0,0,1,.04846-.7026.71852.71852,0,0,0,.03634-.46639,1.2424,1.2424,0,0,1-.03634-.41187c.01211-.13325.03634-.424.04845-.64808a1.89361,1.89361,0,0,1,.06663-.4785,1.09083,1.09083,0,0,0,.06662-.321,2.377,2.377,0,0,0,0-.6602.75588.75588,0,0,1,.02423-.29679.43355.43355,0,0,0-.03634-.27256,1.73448,1.73448,0,0,1-.06663-.59358,2.21638,2.21638,0,0,0-.04239-.61174.46447.46447,0,0,1,0-.33919.57377.57377,0,0,0,0-.3513A8.57383,8.57383,0,0,1,2.314,5.91334c.06662-.41793.109-.50878.27256-.67232.15142-.13931.18776-.20593.13931-.28467-.05452-.109.03028-.34525.13325-.34525a2.10362,2.10362,0,0,0,.37553-.27256,1.9724,1.9724,0,0,1,.44215-.3089,1.36721,1.36721,0,0,0,.3937-.36342,1.44717,1.44717,0,0,1,.39977-.36336,1.219,1.219,0,0,1,.77528.36947.4932.4932,0,0,1-.06663.29073.99323.99323,0,0,0-.08479.41793.79578.79578,0,0,1-.06663.36341,3.36524,3.36524,0,0,0-.11508,1.25984c.01817.50272.00606.67837-.06663.80557a.92133.92133,0,0,0-.09085.28467,9.27148,9.27148,0,0,0-.07268,1.69594c.00606.24228,0,1.0539-.00606,1.15081a3.21642,3.21642,0,0,0,.03029.45427c.01817.19988.03028.40581.03028.45427a10.43212,10.43212,0,0,1-.12114,1.63536A2.22542,2.22542,0,0,0,4.56114,13c.01211.218.00606,1.39915-.01211,2.08964a2.2594,2.2594,0,0,0,.06057.56325.57.57,0,0,1-.03029.47849.52956.52956,0,0,0-.06057.315,1.155,1.155,0,0,1-.06057.43,4.68185,4.68185,0,0,0-.11508,1.06,9.06777,9.06777,0,0,1-.06057.90854,1.25815,1.25815,0,0,0-.03028.49667,2.5624,2.5624,0,0,1-.07874.636c-.02423.01817,0,.109.04845.19988a1.90156,1.90156,0,0,1,.0848.7026c0,.29679.01211.83586.02423,1.20533a3.575,3.575,0,0,1-.03634.79951A.65287.65287,0,0,0,4.331,23.327a.66745.66745,0,0,1,.01817.55724.55718.55718,0,0,0-.03029.39976.41871.41871,0,0,1,0,.3089.88111.88111,0,0,0-.06662.27862,2.68817,2.68817,0,0,1-.03029.33313c-.03634.25439-.08479.64809-.09691.81768a2.28823,2.28823,0,0,1-.06662.315.40764.40764,0,0,0,.00605.30891c.07874.15142-.11508.4785-.321.533-.15143.03635-.19382.16959-.212.68443a.3413.3413,0,0,0,.58146.27256c.103-.0848.24227-.18776.76923-.56935a1.80089,1.80089,0,0,0,.36947-.39975c.16959-.26651.3937-.40581.54512-.3513a1.3015,1.3015,0,0,1,.27862.38765,2.54762,2.54762,0,0,0,.40581.56934.91031.91031,0,0,1,.22411.32707c.03028.315.07874.3513.47244.36342.20593.01212.45426.01817.54512.02422.18776.00606.24833-.06056.47244-.51483a2.90771,2.90771,0,0,0,.38158-.95093c-.00606-.04846-.0424-.25439-.0848-.45427a1.264,1.264,0,0,1-.03028-.73289c.04846-.16353-.23016-.50878-.41187-.50878a3.52216,3.52216,0,0,1-.37553-.03028,3.4982,3.4982,0,0,0-.35736-.03028,1.6795,1.6795,0,0,1-.79345-.54513.745.745,0,0,1-.06057-.36947c.01211-.11508.04845-.45427.0848-.75106a3.81079,3.81079,0,0,0,.03634-1.15081,8.79867,8.79867,0,0,1,.08479-2.1502,3.27646,3.27646,0,0,0,.05452-1.30224A3.61011,3.61011,0,0,1,6.778,17.37313a.88939.88939,0,0,0,.04845-.37553,1.14274,1.14274,0,0,1,.04846-.41187c.03634-.07268.01211-.19382-.07874-.37553a.55259.55259,0,0,1-.05451-.527,2.1888,2.1888,0,0,0,.06662-.41187.66957.66957,0,0,1,.06663-.27256,1.51854,1.51854,0,0,0,.07874-.48455c.01211-.19988.03028-.48455.04845-.636a.99316.99316,0,0,0-.03634-.38764c-.04845-.08479-.03028-.15142.07269-.29073a.43384.43384,0,0,0,.09691-.40581,10.0525,10.0525,0,0,1-.06663-1.01756,5.47118,5.47118,0,0,0-.06057-.86614,1.274,1.274,0,0,1-.06662-.212c-.01212-.0848-.0424-.22411-.06057-.321a1.47615,1.47615,0,0,1-.03029-.37553c.00606-.11508.01817-.44215.03029-.72683a4.46378,4.46378,0,0,1,.08479-.751.59546.59546,0,0,0,.01212-.33919.21426.21426,0,0,1,.01211-.2.55845.55845,0,0,0,.01817-.29073.711.711,0,0,1,.03634-.36947.31228.31228,0,0,0-.03028-.35736c-.103-.17565-.103-.18776.02423-.40581a1.00881,1.00881,0,0,0,.13325-.4361.98631.98631,0,0,1,.11513-.418.487.487,0,0,0,.09085-.27862A.29745.29745,0,0,1,7.43217,5.235a.71558.71558,0,0,0-.03029-.745c-.18171-.1817-.15142-.28467.15142-.55723a1.38969,1.38969,0,0,0,.30891-.37553c.01817-.06663.12113-.35736.23016-.642s.24833-.64809.3089-.81769A1.90771,1.90771,0,0,1,8.7768,1.5342a.817.817,0,0,0,.26045-.41187c0-.15748.19382-.38764.32707-.38764.14537,0,.27862-.17565.27862-.36342,0-.29073-.05451-.36341-.27862-.36341A.26967.26967,0,0,0,9.06748.19562Z"/>

</g>
</svg>
