<?xml version="1.0" encoding="UTF-8"?>
<svg xmlns="http://www.w3.org/2000/svg"
     version="1.1"
     width="34.87173653mm"
     height="47.59642654mm"
     viewBox="0.00000000 0.00000000 98.84902016 134.91911567">

<g transform="scale(6.79534435)">   <defs>
      <style type="text/css"><![CDATA[
      .a {
        stroke: #000;
        stroke-linecap: round;
        stroke-linejoin: round;
        stroke-width: 0.01px;
      }
    ]]></style>
   </defs>
   <path class="a"
         d="M7.10724.1034A6.63643,6.63643,0,0,1,5.64752.79992a.99274.99274,0,0,0-.34524.15143c-.13325.08479-.35736.20593-.49061.27256a1.31665,1.31665,0,0,0-.32707.212,2.23637,2.23637,0,0,1-.44822.30284,1.77753,1.77753,0,0,0-.46032.33919,1.73,1.73,0,0,1-.18171.21805A8.07676,8.07676,0,0,1,2.51,3.02892a.82933.82933,0,0,0-.27256.33313,5.51726,5.51726,0,0,1-.38158.58752c-.26045.34524-.30891.55723-.18171.751a.26534.26534,0,0,1,.04845.18777c-.04239.109.26651.32707.96911.69654l.59358.315.44821-.0424c.46638-.04239.59358-.109.69654-.37552.06663-.18777.07269-.44216,0-.44216-.03028,0-.08479-.0848-.12719-.18171a1.09394,1.09394,0,0,0-.71472-.48455c-.15748,0-.39975-.218-.33918-.3089a.937.937,0,0,0,.05451-.218.35068.35068,0,0,1,.12719-.23622c.06663-.04846.15748-.11508.20594-.15748A5.35469,5.35469,0,0,1,4.6663,2.81692a1.21989,1.21989,0,0,0,.27256-.109,2.32338,2.32338,0,0,1,.7874-.18776A3.29474,3.29474,0,0,0,6.2835,2.399a.24833.24833,0,0,1,.24833.08479c.103.103.109.16354.06663.424a1.82621,1.82621,0,0,1-.11508.4361.33258.33258,0,0,0-.03635.218.87107.87107,0,0,1-.11508.41187,1.51327,1.51327,0,0,0-.15142.47244,1.42594,1.42594,0,0,1-.19988.4785,5.30053,5.30053,0,0,0-.27862.52089c-.04239.109-.103.19988-.12719.19988s-.06057.06057-.07874.13325c-.01817.07874-.09085.29679-.16354.49061a1.48307,1.48307,0,0,0-.01211,1.2235c.0848.109.11508.19382.07874.25439a.60006.60006,0,0,0,.03028.32707,2.06116,2.06116,0,0,1,.09691.43,1.18639,1.18639,0,0,0,.09086.36342,1.103,1.103,0,0,1,.07874.19988.76815.76815,0,0,0,.09691.1817c.15748.24228.06057.37553-.47244.642a4.60475,4.60475,0,0,0-.56329.29678,2.14781,2.14781,0,0,1-.46033.18777,4.74711,4.74711,0,0,0-1.272.53906,2.27285,2.27285,0,0,1-.50272.27256.948.948,0,0,1-.79952.09691c-.33918-.07268-.40581-.06662-.533.01212a.55485.55485,0,0,0-.13931.62992c.12114.27256.73894.33313,1.15081.109a1.44634,1.44634,0,0,1,.73289-.14536,2.4756,2.4756,0,0,0,.86613-.15748,2.35453,2.35453,0,0,1,.51484-.15143,1.39821,1.39821,0,0,0,.41187-.15142,1.30014,1.30014,0,0,1,.60569-.15142c.24834,0,.33313-.03029.44216-.13931.29679-.321.51483-.33919.64809-.05451a11.47079,11.47079,0,0,1,.7026,1.70805,1.44286,1.44286,0,0,0,.27256.81768.77365.77365,0,0,1,.15142.72683.392.392,0,0,0,.109.38764c.12113.16354.13931.23016.09085.3513a.3481.3481,0,0,0,0,.24833c.07268.13326-.13931.533-.44215.81163a1.15457,1.15457,0,0,1-.29074.23016,1.56513,1.56513,0,0,0-.30284.24228,3.90648,3.90648,0,0,1-1.48394.76317c-.71472.25439-.92066.28467-1.24167.16959a5.82371,5.82371,0,0,0-1.71411-.05451,3.56142,3.56142,0,0,0-1.22349.37553,2.85487,2.85487,0,0,1-.29065.17574,1.37662,1.37662,0,0,0-.30285.315,1.01642,1.01642,0,0,1-.28467.28467c-.109.03635-.20594.38765-.15143.53907a1.39723,1.39723,0,0,0,.81163.53906,1.33416,1.33416,0,0,1,.32707.07269,2.0484,2.0484,0,0,0,1.381-.13931.23457.23457,0,0,1,.24227-.03634,2.37766,2.37766,0,0,0,1.36281-.109,4.81257,4.81257,0,0,1,.76923-.18776.50817.50817,0,0,0,.3089-.11508,1.967,1.967,0,0,1,.77528-.41187,2.253,2.253,0,0,0,.7874-.424,1.77583,1.77583,0,0,1,.46638-.315,1.76345,1.76345,0,0,0,.77529-.62386c.06662-.09085.212-.26045.315-.38764.56935-.636.6602-.7874.70866-1.13264a2.03689,2.03689,0,0,1,.18776-.5633.95974.95974,0,0,0,.12719-.41187.60033.60033,0,0,1,.09086-.33313.64624.64624,0,0,0,.09085-.33313,1.40465,1.40465,0,0,1,.07874-.527c.12114-.46638.1272-.6602.01212-.87219a.28871.28871,0,0,1-.01818-.24228,1.17834,1.17834,0,0,0-.103-.82374.81312.81312,0,0,1-.103-.321.5849.5849,0,0,0-.03028-.23622.41376.41376,0,0,1,.01211-.33313c.04845-.09691.04845-.13931,0-.17565a.26563.26563,0,0,1-.09085-.16354,1.49526,1.49526,0,0,0-.37553-.66626.41719.41719,0,0,1-.19382-.4785A2.8784,2.8784,0,0,1,9.742,8.85563a1.88373,1.88373,0,0,0,.41793-.3513,4.44282,4.44282,0,0,1,1.3628-.86008.61245.61245,0,0,0,.212-.12114c.12113-.09085.17565-.103.27256-.05451a.30077.30077,0,0,0,.27862,0,1.83841,1.83841,0,0,1,.89036-.04845.93306.93306,0,0,0,.69655-.15143c.49666-.27256.66626-.47849.66626-.81162a.79261.79261,0,0,0-.22411-.61781c-.0424-.04845-.06663-.109-.0424-.13931.06057-.103-.59358-.35735-.92671-.35735a.814.814,0,0,0-.58752.19382,10.33545,10.33545,0,0,1-1.80495,1.02362,1.05982,1.05982,0,0,0-.44216.30284.66137.66137,0,0,1-.50878.35736,2.04426,2.04426,0,0,0-.88431.54512,2.65263,2.65263,0,0,1-.41187.29679c-.20593.12719-.24227.13325-.36341.04845a1.74744,1.74744,0,0,1-.32708-.55723c-.15748-.38159-.1817-.49667-.12719-.59358.05451-.103.0424-.14536-.05451-.2241a.84186.84186,0,0,1-.26045-.38765.51835.51835,0,0,1,.103-.12719c.09085-.09086.09085-.109.01211-.15748a.72819.72819,0,0,1-.19988-.28468c-.103-.2241-.103-.24833-.00605-.43a.67713.67713,0,0,1,.29073-.27861,1.36229,1.36229,0,0,0,.636-.83586c.07269-.19382.18777-.46032.25439-.58752a1.18851,1.18851,0,0,0,.12114-.4361.87865.87865,0,0,1,.13931-.41187.727.727,0,0,0,.13325-.45426A.7713.7713,0,0,1,9.1,1.99921,1.92244,1.92244,0,0,0,9.05151.84234a4.53792,4.53792,0,0,0-.15143-.43,3.11608,3.11608,0,0,0-.3089-.12719.649.649,0,0,1-.315-.18777A1.83872,1.83872,0,0,0,7.10724.1034Z"/>

</g>
</svg>
