<?xml version="1.0" encoding="UTF-8"?>
<svg xmlns="http://www.w3.org/2000/svg"
     version="1.1"
     width="28.95859097mm"
     height="42.74288282mm"
     viewBox="0.00000000 0.00000000 82.08732837 121.16096670">

<g transform="scale(4.54756027)">   <defs>
      <style type="text/css"><![CDATA[
      .a {
        stroke: #000;
        stroke-linecap: round;
        stroke-linejoin: round;
        stroke-width: 0.01px;
      }
    ]]></style>
   </defs>
   <path class="a"
         d="M6.72492.07754A2.65836,2.65836,0,0,1,6.27063.229,1.07109,1.07109,0,0,0,5.671.7438a1.17263,1.17263,0,0,1-.636.49667c-.22411.06662-.75711.527-.75711.65415,0,.03028-.04846.06662-.103.09085a1.10916,1.10916,0,0,0-.40581.59358c-.01818.09085-.06663.16353-.09692.16353-.03634,0-.06056.04846-.06056.103a1.53842,1.53842,0,0,1-.09692.37553c-.109.32707-.05451.50878.2544.81768.20593.20594.24227.315.15747.4361-.06662.09085-.47243.32707-.50878.29073a.47349.47349,0,0,0-.23622.09085,5.21625,5.21625,0,0,1-.53906.24834,4.87877,4.87877,0,0,0-.72683.3937,2.63831,2.63831,0,0,1-.57541.3089,2.194,2.194,0,0,0-.93276.72077c-.13325.16354-.28467.34525-.32707.3937A.79963.79963,0,0,0,.032,7.467c.01212.13325.33313.36342.49667.36342a2.13391,2.13391,0,0,0,.87219-.636A5.54467,5.54467,0,0,1,2.82427,6.4979a1.02393,1.02393,0,0,0,.3937-.1272,4.0025,4.0025,0,0,1,1.16292-.29679c.19988,0,.44216.40582.38159.636a1.48369,1.48369,0,0,0,.06057.68443.659.659,0,0,1,.01817.45427.63.63,0,0,0-.01212.315,1.38043,1.38043,0,0,1-.07874.90853,1.23085,1.23085,0,0,0-.04845.83586,4.00253,4.00253,0,0,1,.12114.89036,8.94207,8.94207,0,0,0,.12114,2.06541.22171.22171,0,0,1,0,.23622,4.651,4.651,0,0,0-.06056,1.2234v.18171a13.46708,13.46708,0,0,1-.03029,1.62325,1.71544,1.71544,0,0,0,.02423.81769,10.58047,10.58047,0,0,1,.11506,1.42337,2.43774,2.43774,0,0,1-.09085.91459.14775.14775,0,0,0-.03634.14537.3326.3326,0,0,1-.03635.20593.27067.27067,0,0,0,.00606.27862,5.24592,5.24592,0,0,1-.16352,1.74439,1.40975,1.40975,0,0,0-.02422.60569.35055.35055,0,0,1-.06663.36342.97947.97947,0,0,0-.15142.51484,2.6604,2.6604,0,0,1-.25439,1.06c-.103.26044-.1272.37552-.07874.46032a.72051.72051,0,0,1,.00606.40581,1.17473,1.17473,0,0,0-.03029.33919c.01817.02423-.01211.12114-.06057.218a.707.707,0,0,0,.12114.72683.419.419,0,0,0,.36947.13325,3.57092,3.57092,0,0,1,.54512.06057.75377.75377,0,0,0,.62386-.07874,1.265,1.265,0,0,1,.69655-.12114,4.73884,4.73884,0,0,0,1.32041.00606c.07874-.0424.20593-.00606.45426.109a1.75385,1.75385,0,0,0,.98122.16354,9.45017,9.45017,0,0,0,.96911-.04846,8.4856,8.4856,0,0,1,1.87764.01212c.41187.04845.55118.0424.68443-.02423a1.02608,1.02608,0,0,1,.36342-.07874,3.20722,3.20722,0,0,0,.40581-.03028,2.27627,2.27627,0,0,1,.72077-.01212,2.2812,2.2812,0,0,0,.54512-.02423c.0848-.02422.321-.07874.5209-.12113a3.11272,3.11272,0,0,0,.47244-.1272,1.7256,1.7256,0,0,1,.45427-.07874,2.54612,2.54612,0,0,0,.59357-.12718A4.87943,4.87943,0,0,1,17.803,25.674c.2544-.02422.30891-.11508.16354-.27861a1.06145,1.06145,0,0,1-.12719-.17565.77805.77805,0,0,1,.07268-.56329l.109-.218-.14536-.09691a.68631.68631,0,0,0-.32707-.09691c-.26045,0-.49061-.12113-.527-.28467a.17865.17865,0,0,0-.14536-.13931,4.84538,4.84538,0,0,1-1.23561-.3513,1.95759,1.95759,0,0,0-.76317-.23016.33619.33619,0,0,1-.212-.103,1.17375,1.17375,0,0,0-.424-.18777,5.44194,5.44194,0,0,1-1.39914-.61174c-.5633-.51484-.58147-.527-.83586-.49061A9.88009,9.88009,0,0,1,10.1046,21.834a1.00846,1.00846,0,0,0-.48455,0,2.74288,2.74288,0,0,1-.40581.07269.92411.92411,0,0,0-.30891.07874c-.07268.04239-.14536.06057-.16353.04239s-.11508.01212-.218.06057a.8279.8279,0,0,1-.32707.09691,1.33312,1.33312,0,0,0-.37553.09086.48129.48129,0,0,1-.424.03028c-.23016-.07268-.28467-.16353-.19987-.321a.35461.35461,0,0,0,.01817-.22411c-.03634-.12114.05451-.23016.35735-.44215a.33066.33066,0,0,0,.15748-.26045.58964.58964,0,0,1,.06057-.26045,1.33356,1.33356,0,0,0,.0848-.28467.4775.4775,0,0,1,.109-.23622.34208.34208,0,0,0,.09692-.15143.25432.25432,0,0,1,.06662-.12113.55035.55035,0,0,0,.0848-.24228c.02423-.11508.07268-.33313.109-.48455a4.29616,4.29616,0,0,0,.07874-.49061,1.24107,1.24107,0,0,1,.09086-.34525c.03634-.07268.05451-.13325.03634-.13325s.006-.07873.06662-.16959c.09086-.16354.09086-.18777,0-.36342-.103-.19986-.05451-.43609.09691-.43609.0424,0,.05452-.109.03635-.30285a.629.629,0,0,1,.06056-.43.40509.40509,0,0,0,.04846-.3089.523.523,0,0,1,.03634-.30891,2.08222,2.08222,0,0,0,.103-.98121c-.00606-.26651-.00606-.56935,0-.66626.00606-.18171,0-.527-.01212-.93883,0-.11508,0-.321.01212-.45426.00606-.13326.01211-.28468.01211-.33313a3.344,3.344,0,0,1,.07874-.77529.81473.81473,0,0,0-.02423-.34524.66926.66926,0,0,1-.00605-.38159.21243.21243,0,0,0-.03634-.23016c-.04846-.07874-.07269-.16959-.04846-.20594a1.47356,1.47356,0,0,0,.03029-.44215c-.01212-.40581-.01212-.90854,0-1.10236a5.42366,5.42366,0,0,0-.04846-.66626,2.48043,2.48043,0,0,1-.00606-.64809,1.70625,1.70625,0,0,0,.01817-.54512c-.01817-.24228-.04239-.6602-.05451-.92671a3.828,3.828,0,0,0-.06057-.61174c-.05451-.16354.109-.32708.321-.32708a.46536.46536,0,0,0,.2665-.08479.53465.53465,0,0,1,.36342-.03635,1.0943,1.0943,0,0,0,.38158-.00605A3.27964,3.27964,0,0,1,11.534,5.03819,1.93534,1.93534,0,0,0,12.86663,4.699c.14537-.20593.24228-.3089.30891-.32707.03634-.01211.07874-.13325.09085-.2665a.771.771,0,0,0-.19382-.5633c-.27256-.41187-.38764-.47243-.67232-.35735a3.40581,3.40581,0,0,1-1.67171.35735.90209.90209,0,0,0-.424.00606,2.90113,2.90113,0,0,1-.51484.07874,2.69262,2.69262,0,0,0-.48455.05451c-.26045.05452-.52089-.09691-.49061-.29073a.99291.99291,0,0,0-.103-.27256A.95812.95812,0,0,1,8.62073,2.682a2.57407,2.57407,0,0,0,.00606-.533.32762.32762,0,0,0-.09691-.18777.29651.29651,0,0,1-.103-.19382c-.01817-.07874-.05451-.15142-.09085-.16354a1.8674,1.8674,0,0,1-.3634-.70866A1.53042,1.53042,0,0,0,7.82727.50758.831.831,0,0,0,6.73539.073Z"/>

</g>
</svg>
