<?xml version="1.0" encoding="UTF-8"?>
<svg xmlns="http://www.w3.org/2000/svg"
     version="1.1"
     width="23.83076087mm"
     height="14.68687017mm"
     viewBox="0.00000000 0.00000000 67.55174398 41.63207783">

<g transform="scale(3.67920472)">   <defs>
      <style type="text/css"><![CDATA[
      .a {
        stroke: #000;
        stroke-linecap: round;
        stroke-linejoin: round;
        stroke-width: 0.01px;
      }
    ]]></style>
   </defs>
   <path class="a"
         d="M3.17274.0758a.72886.72886,0,0,0-.27257.28468,2.7602,2.7602,0,0,1-.58146.70863A7.35038,7.35038,0,0,0,1.21635,2.30475a.25408.25408,0,0,1-.1817.14536.47539.47539,0,0,0-.24228.212C.74391,2.759.67729,2.83775.647,2.83775c-.03634,0-.06057.06663-.06057.14537a.36548.36548,0,0,1-.09691.24228,2.65248,2.65248,0,0,0-.28467.47244A1.61334,1.61334,0,0,0,.01712,4.673c-.00606.50878.01211.61175.103.67837a.34973.34973,0,0,1,.12713.18774A2.31156,2.31156,0,0,0,.435,5.93889a2.307,2.307,0,0,1,.23016,1.1387c.02423.37553.29074.88431.49667.93277a.37285.37285,0,0,1,.24228.23621.57808.57808,0,0,0,.24831.27254,3.29736,3.29736,0,0,1,.41187.27861,2.02671,2.02671,0,0,0,.77529.424.98981.98981,0,0,1,.33313.17565,1.37073,1.37073,0,0,0,.44215.218,3.29,3.29,0,0,1,.55724.23016.78514.78514,0,0,0,.51483.12719.75432.75432,0,0,1,.47244.09086.89632.89632,0,0,0,.29073.11508,5.53935,5.53935,0,0,1,.60569-.03029,2.58839,2.58839,0,0,0,.70261-.09691.39971.39971,0,0,1,.25439-.04845,1.72306,1.72306,0,0,0,.49666-.03029c.20594-.03028.47244-.06662.58752-.07874a4.00062,4.00062,0,0,0,1.09025-.26037,1.95814,1.95814,0,0,1,.60569-.12114,2.683,2.683,0,0,0,.5754-.06663,8.89306,8.89306,0,0,1,1.3507-.2241.73918.73918,0,0,0,.44215-.15143.3977.3977,0,0,1,.18171-.11508,2.29835,2.29835,0,0,0,.41187-.16959,2.61543,2.61543,0,0,1,.58146-.218,2.11113,2.11113,0,0,0,.47244-.16959c.19988-.09691.2665-.109.41187-.04846a.6139.6139,0,0,1,.29073.57541,1.02463,1.02463,0,0,0,.14537.55723.93472.93472,0,0,1,.103.29074.32122.32122,0,0,0,.09086.18776.3857.3857,0,0,1,.09085.218c0,.218.67232.97516.81768.92065a.15763.15763,0,0,1,.15748.05451,2.05637,2.05637,0,0,0,1.09631.13325,1.28339,1.28339,0,0,0,.34524-.26044,1.03241,1.03241,0,0,1,.35736-.23017.70961.70961,0,0,0,.533-.30284A.58828.58828,0,0,0,18.2242,9.785a1.985,1.985,0,0,1-.37553-1.07813,3.90035,3.90035,0,0,0-.55118-1.64748,1.33383,1.33383,0,0,1-.38764-.97516,1.26576,1.26576,0,0,0-.1272-.56329.50661.50661,0,0,1-.08479-.27862A.56042.56042,0,0,0,16.607,4.9395a.2624.2624,0,0,1-.01817-.28467.3669.3669,0,0,0-.0061-.29072.39634.39634,0,0,1-.03028-.23622.58681.58681,0,0,0-.09085-.33313l-.1272-.212.18777-.19987c.17565-.18171.18776-.21805.15142-.50273a1.57143,1.57143,0,0,0-.09691-.39975.31361.31361,0,0,1,.01817-.23017c.04845-.103.03028-.218-.06663-.48455a2.39907,2.39907,0,0,1-.13325-.533,3.53764,3.53764,0,0,0-.02423-.36341c-.006-.103-.02422-.25439-.02422-.34525A.31132.31132,0,0,0,16.1527.26359c-.2665-.13931-.38764-.1272-1.15081.13325a6.49545,6.49545,0,0,1-1.49.29073,2.1619,2.1619,0,0,0-.48455.09085,2.46468,2.46468,0,0,1-.62992.06663C12.14909.839,11.6827.86322,11.36774.89351c-.46638.04845-.59963.04239-.70865-.03029A2.86711,2.86711,0,0,0,9.157.73c-.13325.03028-.3513.0848-.48455.11508A2.79357,2.79357,0,0,1,8.36956.9056,11.51163,11.51163,0,0,1,7.249.633,5.41783,5.41783,0,0,0,6.12245.53611.607.607,0,0,1,5.6379.39682C5.2442.06975,5.09278.02735,4.1903.01523A3.86587,3.86587,0,0,0,3.17274.0758Zm9.53357,3.05874c.09086.01212.103.18777.02423.26651-.07268.07268-.07268.12719.00606.38158a2.04959,2.04959,0,0,1,.08479.4785,2.4107,2.4107,0,0,0,.109.86008.83973.83973,0,0,1,.07268.3513,1.04286,1.04286,0,0,0,.09085.3937.44239.44239,0,0,1,.05452.2665,1.19778,1.19778,0,0,1-.66626.29073,2.79046,2.79046,0,0,0-.48456.0848,19.35516,19.35516,0,0,1-3.616.103,3.23949,3.23949,0,0,0-1.27189-.30288,8.33234,8.33234,0,0,1-1.13265-.109c-.08479-.01817-.28467-.05451-.45426-.0848-.16354-.03028-.35736-.07268-.424-.08479a1.20791,1.20791,0,0,0-.15748-.03635.47966.47966,0,0,1-.12113-.20593,1.07935,1.07935,0,0,0-.15748-.27256.16086.16086,0,0,1-.03635-.1696.54008.54008,0,0,0-.12113-.315,2.035,2.035,0,0,1-.218-.3937,1.20245,1.20245,0,0,1,.01817-.848,2.95251,2.95251,0,0,1,1.49-.16354c.08479.00606.45427-.00605.81768-.02423.59358-.03028.94488-.03634,1.33252-.02422.06663,0,.45427-.01212.854-.03634A2.61426,2.61426,0,0,0,9.8293,3.3707a2.39254,2.39254,0,0,1,1.00545-.14536,4.73259,4.73259,0,0,0,.79951-.06663A5.41194,5.41194,0,0,1,12.70631,3.13454Z"/>

</g>
</svg>
