<?xml version="1.0" encoding="UTF-8"?>
<svg xmlns="http://www.w3.org/2000/svg"
     version="1.1"
     width="38.77646059mm"
     height="20.22452809mm"
     viewBox="0.00000000 0.00000000 109.91757596 57.32935445">

<g transform="scale(4.36982859)">   <defs>
      <style type="text/css"><![CDATA[
      .a {
        stroke: #000;
        stroke-linecap: round;
        stroke-linejoin: round;
        stroke-width: 0.01px;
      }
    ]]></style>
   </defs>
   <path class="a"
         d="M7.988.0257a.74542.74542,0,0,1-.24228.06057c-.109.01817-.25439.03634-.321.04846A5.214,5.214,0,0,1,5.98317.17712a1.55038,1.55038,0,0,0-.75106.01817,3.55976,3.55976,0,0,1-.66626.06057.50114.50114,0,0,0-.26044.02423,1.3147,1.3147,0,0,1-.60569-.0424A3.48556,3.48556,0,0,0,3.05163.14684a.94953.94953,0,0,0-.64809.46032,1.24854,1.24854,0,0,1-.35736.30891,1.573,1.573,0,0,0-.48455.50878,3.14351,3.14351,0,0,1-.50878.6178C.24122,2.78159.005,3.036.005,3.16924c0,.2241.3513.43.96911.5754.1817.0424.39369.09691.47243.1272a.79182.79182,0,0,0,.40582-.01817.69806.69806,0,0,1,.47244,0,2.78092,2.78092,0,0,0,1.3628-.12114.82562.82562,0,0,1,.527,0,1.702,1.702,0,0,0,1.13264-.04846A1.0806,1.0806,0,0,1,5.85,3.569c.16959,0,.35736,0,.424-.006a1.66757,1.66757,0,0,1,.93277.12719.51471.51471,0,0,0,.38158.07874,1.89582,1.89582,0,0,1,.23016-.06057,2.818,2.818,0,0,0,.28468-.07268,3.47421,3.47421,0,0,1,.93269-.01209,2.71854,2.71854,0,0,0,.87825-.01212.34541.34541,0,0,1,.30891,0,3.54834,3.54834,0,0,0,1.31435,0,1.633,1.633,0,0,1,.957.03634,2.19192,2.19192,0,0,0,.75106.0848,1.99223,1.99223,0,0,1,.94487.15142,2.06087,2.06087,0,0,0,.95094.16354c.52695,0,.55723.00606.76317.18776a.69634.69634,0,0,0,.49667.20594,2.279,2.279,0,0,1,1.56874.60569,1.6621,1.6621,0,0,0,.43.2241c.12719-.02422.321.109.43609.29679.103.1696.22411.24834.80557.54513a1.25785,1.25785,0,0,1,.5633.67837.78718.78718,0,0,0,.27256.315.60077.60077,0,0,1,.27256.3937,1.1928,1.1928,0,0,0,.2241.41792.58165.58165,0,0,1,.13325.19383.94231.94231,0,0,0,.07269.20593.64715.64715,0,0,1,.02423.33313,1.21688,1.21688,0,0,0,.01211.3937.34814.34814,0,0,1-.0424.30285c-.04845.06662-.15748.218-.23622.33918-.212.3089-.39975.44821-1.12658.79951a10.45177,10.45177,0,0,0-1.1387.642c-.44821.29073-.52695.321-.66626.27256a.89393.89393,0,0,0-.82374.19382c-.11508.09691-.36342.28467-.54512.41793a1.53961,1.53961,0,0,0-.46639.49666l-.12114.25439.18777.18777c.17565.17565.212.1817.49667.14536a3.47217,3.47217,0,0,0,.58752-.14536c.15142-.06057.50878-.19382.79345-.29679a5.0176,5.0176,0,0,0,.57541-.24834,5.8276,5.8276,0,0,1,1.29012-.51483c.04845.01817.15142-.03634.23016-.12114a.45043.45043,0,0,1,.26651-.15142c.13325,0,.29678-.09691.70865-.40582a.56374.56374,0,0,1,.37553-.15748.57561.57561,0,0,0,.38159-.15748,1.02909,1.02909,0,0,1,.33919-.18776.949.949,0,0,0,.33918-.26045,5.46088,5.46088,0,0,1,.66021-.527,1.56975,1.56975,0,0,0,.47852-.44813,2.6739,2.6739,0,0,1,.35736-.50878c.15748-.18776.27862-.35736.26045-.38159a.69408.69408,0,0,1,.12719-.2665,4.44751,4.44751,0,0,0,.30285-.51484,1.42629,1.42629,0,0,1,.212-.33313c.03634-.01817.04845-.109.03028-.19382a.56475.56475,0,0,1,.0424-.28467c.06663-.1272.07268-.212.02423-.88431a1.30593,1.30593,0,0,1,.02423-.424,1.51325,1.51325,0,0,0-.218-.81162.48778.48778,0,0,1-.0424-.3089c.02423-.16354.00606-.218-.12114-.29679a1.07289,1.07289,0,0,1-.27862-.39976,1.04413,1.04413,0,0,0-.28467-.39975c-.13931-.09086-.37553-.44822-.29679-.44822.01817,0-.04845-.11508-.15142-.25439a1.07809,1.07809,0,0,1-.18171-.321c0-.0424-.16354-.109-.37553-.15142a1.11608,1.11608,0,0,1-.65414-.34525.94.94,0,0,0-.38159-.26045,2.8789,2.8789,0,0,1-.91459-.41792.30262.30262,0,0,0-.212-.06663A.37611.37611,0,0,1,20.62884.904c-.03029-.16959.02423-.13325-.45427-.33313a2.59756,2.59756,0,0,0-1.1811-.18776,11.42573,11.42573,0,0,1-1.92-.15748A1.59481,1.59481,0,0,0,16.601.18929a1.247,1.247,0,0,1-.43-.04846,5.49976,5.49976,0,0,0-2.38642.103,5.15348,5.15348,0,0,1-1.8475-.03642C11.62215.159,10.865.11653,9.69606.09233,9.24784.08021,8.68455.04993,8.45439.0257A1.32387,1.32387,0,0,0,7.988.0257Z"/>

</g>
</svg>
