<?xml version="1.0" encoding="UTF-8"?>
<svg xmlns="http://www.w3.org/2000/svg"
     version="1.1"
     width="17.97299425mm"
     height="51.98461976mm"
     viewBox="0.00000000 0.00000000 50.94704094 147.35797685">

<g transform="scale(5.48693194)">   <defs>
      <style type="text/css"><![CDATA[
      .a {
        stroke: #000;
        stroke-linecap: round;
        stroke-linejoin: round;
        stroke-width: 0.01px;
      }
    ]]></style>
   </defs>
   <path class="a"
         d="M3.16676.09364A5.58844,5.58844,0,0,0,2.02805,1.25051a1.48951,1.48951,0,0,1-.33313.36341,1.10954,1.10954,0,0,0-.41793.77529.91688.91688,0,0,1-.09085.35736,1.07951,1.07951,0,0,0-.06057.52695,1.09239,1.09239,0,0,1-.02423.44215.27533.27533,0,0,0,.02423.24228,1.76123,1.76123,0,0,1,.19988.89036A1.375,1.375,0,0,0,1.38,5.33892a.57856.57856,0,0,1-.01212.527.72337.72337,0,0,0-.06056.44215.63123.63123,0,0,1,.03634.22411.25921.25921,0,0,0,.06057.1393,1.49669,1.49669,0,0,1,.09691.55118c.0424.92671.05451,1.01151.109,1.10236a4.42819,4.42819,0,0,1,.07268.90854c.01212.44821.03029.98122.04846,1.18109s.0424.43.04845.51484a.78427.78427,0,0,0,.09086.28468c.0424.07874.06057.13931.0424.13931s-.00606.05451.03028.12719c.05451.09691.04846.15748-.03028.27862-.109.16354-.12114.44215-.06663,1.47183a3.96961,3.96961,0,0,1-.03027,1.30219.48376.48376,0,0,0,.07874.24228.61852.61852,0,0,1,.04845.46638,3.09691,3.09691,0,0,0-.02423.69049c.06057.75711.06057.93276.01817,1.00545a.22414.22414,0,0,0,.0424.19987c.07874.12114.07874.1696-.01211.424a.56225.56225,0,0,0-.03029.4361.919.919,0,0,1,.06663.321.86751.86751,0,0,0,.15142.39976c.0848.12114.13326.24833.109.29073a4.09108,4.09108,0,0,0-.05451.76923,2.898,2.898,0,0,1-.0848.848.76668.76668,0,0,0-.09086.29679c-.03028.56935-.02422.5633-.4906,1.04785-.07269.07268-.2544.24228-.40582.37553a1.19,1.19,0,0,0-.28467.30284,2.298,2.298,0,0,1-.24228.41793,2.17482,2.17482,0,0,0-.24228.40581c0,.03029-.07874.09086-.1817.14537-.16354.0848-.18171.12719-.18171.36341,0,.24227.01817.27862.19382.36947a1.65827,1.65827,0,0,0,.58752.109c.33919.00605.41187-.01211.533-.13325.07874-.07874.16959-.12114.212-.09691a4.97241,4.97241,0,0,0,.89037.04845,4.54716,4.54716,0,0,1,.94488.07268,3.888,3.888,0,0,0,1.272-.006,1.67206,1.67206,0,0,1,.3937-.03634c.424.01817.5754,0,.59357-.05452a.29154.29154,0,0,1,.37553-.12113c.16959.09086.24228.26045.27862.62386.05451.60569.07268.69654.13325.80557a.27782.27782,0,0,1-.02423.27861.36312.36312,0,0,0-.05451.23017.32609.32609,0,0,1-.03634.20593c-.06663.14538-.05451.17565.14537.36948.26044.25439.41792.26651.55117.06057a.8508.8508,0,0,1,.26045-.23016,1.35089,1.35089,0,0,0,.58146-.56935.5746.5746,0,0,1,.218-.23016.251.251,0,0,0,.15748-.14537.61031.61031,0,0,1,.23017-.24833.98734.98734,0,0,0,.40581-.56329,3.43,3.43,0,0,1,.14536-.46639c.30891-.848.33313-.95093.23622-1.21743a1.80175,1.80175,0,0,1-.07874-.4361,1.02794,1.02794,0,0,0-.109-.56935.32159.32159,0,0,1-.01817-.27862c.09691-.24833-.27256-1.07207-.47244-1.07207a.565.565,0,0,1-.2665-.12114.79878.79878,0,0,0-.90248.06662,2.5788,2.5788,0,0,1-.80557.56935,1.55,1.55,0,0,1-.87825.109c-.315-.01211-.69049-.01817-.8298-.01817-.29679.00606-.54512-.18171-.47244-.3513a1.86886,1.86886,0,0,0,.13931-1.15687A.84238.84238,0,0,1,4.469,19.288a1.2836,1.2836,0,0,0-.04845-.49061c-.05451-.109-.0424-.16354.06662-.3089a.40889.40889,0,0,0,.103-.24834.32006.32006,0,0,1,.03029-.18776,2.85281,2.85281,0,0,0,.07874-.69655c.01211-.321.04239-.72077.06056-.88431a7.16045,7.16045,0,0,0,.07874-1.78678,3.92018,3.92018,0,0,0-.09085-.88431c-.0424-.07269-.06057-.14537-.0424-.16354a1.2577,1.2577,0,0,0-.103-.44215l-.1393-.40582.15748-.46032a2.40612,2.40612,0,0,0,.1393-.76317,6.65379,6.65379,0,0,0-.15142-1.24167A4.04549,4.04549,0,0,1,4.43871,8.4764a2.0926,2.0926,0,0,0-.0848-.83585,1.20427,1.20427,0,0,1-.06057-.57541,2.19146,2.19146,0,0,0,.03634-.43609c-.01817-.23017-.03028-.5633-.02422-.75712a4.03479,4.03479,0,0,0-.03029-.45427,3.35292,3.35292,0,0,1,.00606-.957,1.97964,1.97964,0,0,0-.321-1.07813c-.06662-.109-.06662-.14536.02423-.27256A.33.33,0,0,0,4.039,2.70416a1.45285,1.45285,0,0,1-.03028-.848A2.31068,2.31068,0,0,0,4.05105.81441C4.02078.663,3.98444.48734,3.97838.41466,3.936.04518,3.5544-.10624,3.16676.09364Z"/>

</g>
</svg>
