<?xml version="1.0" encoding="UTF-8"?>
<svg xmlns="http://www.w3.org/2000/svg"
     version="1.1"
     width="32.69071237mm"
     height="35.97960847mm"
     viewBox="0.00000000 0.00000000 92.66652916 101.98942486">

<g transform="scale(5.10555451)">   <defs>
      <style type="text/css"><![CDATA[
      .a {
        stroke: #000;
        stroke-linecap: round;
        stroke-linejoin: round;
        stroke-width: 0.01px;
      }
    ]]></style>
   </defs>
   <path class="a"
         d="M9.93833.12614A1.044,1.044,0,0,1,9.22967.4835a1.37159,1.37159,0,0,0-.321.03634A4.8073,4.8073,0,0,1,8.2.60463H7.59431c-.06057,0-.212,0-.33919-.006a.39276.39276,0,0,0-.30284.09085.649.649,0,0,1-.533.19382.37648.37648,0,0,0-.25439.05451A.279.279,0,0,1,5.8378.962c-.15142-.06058-.23622-.04846-.5088.0545a2.67454,2.67454,0,0,1-.963.212c-.0848,0-.30285-.00606-.48456-.01212a1.64417,1.64417,0,0,0-.94488.1696c-.1393.07268-.2665.11508-.28467.09691a1.71256,1.71256,0,0,0-.78134.29073.3626.3626,0,0,1-.18777.109.8097.8097,0,0,0-.28467.15142.78723.78723,0,0,1-.29679.15143c-.16354.00605-.44215.29073-.39976.41792a.55745.55745,0,0,1-.03634.28468,2.49813,2.49813,0,0,0-.09085.3513.62184.62184,0,0,1-.38159.52089C.01106,3.833.005,3.85114.005,4.2085c0,.3513.01211.38158.22411.55117.12113.09691.26044.22411.315.27257a2.25173,2.25173,0,0,0,.99333.43,2.89345,2.89345,0,0,1,.75106.01817A1.46614,1.46614,0,0,0,2.91837,5.432a.71732.71732,0,0,1,.33313-.05451,1.41822,1.41822,0,0,0,.46033-.15142,1.87035,1.87035,0,0,1,.533-.18777,3.23029,3.23029,0,0,0,.854-.12719,2.79388,2.79388,0,0,0,.61781-.212.35939.35939,0,0,1,.27861-.06057,1.37417,1.37417,0,0,0,.739-.18777,1.17357,1.17357,0,0,1,.51483-.06057c.27862.01212.38765-.00605.50273-.09085a.5575.5575,0,0,1,.315-.11508A1.88844,1.88844,0,0,0,8.515,4.09341a1.79045,1.79045,0,0,1,.56329-.08479,1.05457,1.05457,0,0,0,.52695-.12114.98994.98994,0,0,1,.321-.1272,1.20668,1.20668,0,0,0,.57541-.32707,1.786,1.786,0,0,1,1.19926-.20593.38654.38654,0,0,0,.30285-.103,1.2836,1.2836,0,0,1,.35736-.17565c.08479-.01212.2241-.0424.315-.06663a.25914.25914,0,0,1,.28467.0848c.17565.17565.15748.32707-.05451.56329-.16959.18171-.20594.25439-.18777.36342a2.78406,2.78406,0,0,1-.19382.41792c-.103.19988-.24227.46033-.29679.56935a2.21264,2.21264,0,0,1-1.0115.68443,1.35737,1.35737,0,0,1-.84191-.06057.91486.91486,0,0,0-.36341-.109,2.34733,2.34733,0,0,1-.82374-.23622A3.08307,3.08307,0,0,0,8.04858,5.111a.40808.40808,0,0,1-.26651-.04846c-.07874-.05451-.16353-.04846-.38158.01817a2.01324,2.01324,0,0,0-1.19321.84191.593.593,0,0,0-.13931.321c-.01212.11508-.23622.1817-.38765.11508a.24983.24983,0,0,0-.30284.03634c-.14537.09691-.16354.09085-.29073-.03634-.12114-.12114-.14537-.1272-.29073-.0424a1.27356,1.27356,0,0,1-.44216.13325c-.18776.03029-.29679.07874-.315.14537a1.71557,1.71557,0,0,1-.26045.34524,1.2749,1.2749,0,0,0-.23621.321,2.11092,2.11092,0,0,1-.46639.62386c-.09691.07874-.103.12114-.04845.22411a.27318.27318,0,0,1,0,.27256.24983.24983,0,0,0,.03634.30284A.3941.3941,0,0,1,3.1,9.06612a.48007.48007,0,0,0-.00606.321.236.236,0,0,1-.01817.218A.77289.77289,0,0,0,2.991,9.8474c-.01212.06662-.02423.18776-.03634.27256a1.70932,1.70932,0,0,1-.06663.27862.56746.56746,0,0,0,.02423.29679.2957.2957,0,0,1-.03029.315c-.09085.1393-.09085.15142.0848.31495.2241.20594.23016.26651.06057.4361-.06663.06663-.109.13931-.09086.15748s.00606.0848-.02422.14537c-.04846.08479-.02423.14536.09085.26045.13325.13325.14537.17565.09085.28467-.07874.14537-.006.38764.20594.67837a.89043.89043,0,0,1,.13931.36342c.03028.38158.04845.4361.20593.59358a.70893.70893,0,0,1,.11508.87219c-.07268.11508-.15142.212-.1817.212a4.8352,4.8352,0,0,0-.90248.93882,1.69579,1.69579,0,0,0-.20594.40582,1.52788,1.52788,0,0,1-.27862.41792c-.20593.23622-.23016.29679-.19382.4785a1.70326,1.70326,0,0,0,.218.49667c.15748.24227.212.27861.3937.28467a4.61107,4.61107,0,0,0,.77529-.02423.99714.99714,0,0,1,.43609.03029.55068.55068,0,0,0,.37553,0c.14537-.03634.35736-.07874.47244-.09691a.63481.63481,0,0,0,.30285-.11508,4.8042,4.8042,0,0,1,1.21138-.43c.11508-.01818.40581-.0424.636-.04846a1.30641,1.30641,0,0,0,.57541-.109.737.737,0,0,1,.34524-.09692.7641.7641,0,0,0,.34525-.103,2.53769,2.53769,0,0,1,1.0963-.15143,1.91207,1.91207,0,0,0,.57541-.12719,5.20066,5.20066,0,0,1,.60569-.18776c.15142-.03029.44821-.09692.66626-.14537a7.46789,7.46789,0,0,1,1.7565-.15142,2.7194,2.7194,0,0,0,.77528-.06663,2.156,2.156,0,0,1,1.381.19382.757.757,0,0,1,.24228.527.25.25,0,0,0,.04845.20594.30159.30159,0,0,1,.01817.315,3.06616,3.06616,0,0,1-.66626,1.175c-.43.44215-.43609.46032-.27862.78134.11509.2241.16354.2665.26651.23621a2.35937,2.35937,0,0,1,.28467-.07873,1.94578,1.94578,0,0,0,.7874-.66626.9491.9491,0,0,1,.34525-.30891,3.52577,3.52577,0,0,0,1.18109-1.272.99673.99673,0,0,1,.18777-.35737.995.995,0,0,0,.212-.315,2.07682,2.07682,0,0,1,.27862-.41793c.109-.109.12719-.16959.08479-.24833s-.01817-.16354.09086-.33313c.08479-.12114.13931-.24834.11508-.27862a2.02695,2.02695,0,0,1-.01817-.79951.67271.67271,0,0,0-.07874-.44215,2.50663,2.50663,0,0,1-.13931-.41188,1.70758,1.70758,0,0,0-.22411-.69048.50809.50809,0,0,1-.08479-.38159.91115.91115,0,0,0-.11508-.51484,1.23953,1.23953,0,0,1-.1272-.70866,1.04075,1.04075,0,0,0-.0848-.58752c-.07268-.1393-.09085-.24833-.06057-.30284a.29523.29523,0,0,0-.03028-.24833,1.15566,1.15566,0,0,1-.109-.36341,1.61163,1.61163,0,0,0-.29679-.73288A1.0706,1.0706,0,0,1,16.607,9.1691a1.627,1.627,0,0,0-.19988-.64808,2.21655,2.21655,0,0,1-.17565-.54513,1.10243,1.10243,0,0,0-.25439-.67231.92331.92331,0,0,1-.16353-.41187,1.07486,1.07486,0,0,0-.72683-.83586c-.0848-.00605-.24834-.01211-.36342-.01817-.39975-.02423-1.272.3937-1.272.60569a1.32994,1.32994,0,0,1-.212.34525,1.34281,1.34281,0,0,0-.23622.44821.81913.81913,0,0,1-.07874.29073c-.16354.315-.19382.527-.109.6602.07874.11508.07874.15143-.00605.26651-.04846.07268-.07874.15748-.06057.1817A2.89951,2.89951,0,0,1,12.464,9.86565a.71445.71445,0,0,0-.12719.24228c-.06057.18776-.23622.27256-.36947.16959-.09691-.07268-.1272-.17565-.18171-.61175A2.75916,2.75916,0,0,0,11.5313,8.733a1.036,1.036,0,0,1-.11508-.43.58067.58067,0,0,0-.218-.48456,1.29822,1.29822,0,0,1-.23622-.29073c-.01211-.0424-.109-.08479-.20593-.09691-.103-.01211-.19988-.02423-.22411-.03028-.02423,0-.07268-.06057-.109-.1272-.103-.19382.109-.36341.43609-.33918a.77114.77114,0,0,0,.33919-.0424.70454.70454,0,0,1,.315-.07269.68556.68556,0,0,0,.34524-.103,3.92782,3.92782,0,0,1,.58752-.315,4.35186,4.35186,0,0,0,1.25984-.79952A4.29971,4.29971,0,0,0,14.59,4.46289c.12114-.23622.24833-.5209.29073-.62992a2.23256,2.23256,0,0,1,.29679-.47244,1.22863,1.22863,0,0,0,.24833-.4361c.01212-.09085.03029-.26045.0424-.37553a1.297,1.297,0,0,1,.1272-.41187c.05451-.103.08479-.19382.06662-.19382s.02423-.109.09086-.24228c.09691-.18776.109-.27256.06057-.36341a.34319.34319,0,0,1-.04846-.19988.5912.5912,0,0,0-.38159-.55118,1.37452,1.37452,0,0,0-.321-.09691.52227.52227,0,0,1-.22411-.11508c-.109-.0848-.17565-.103-.25439-.05451-.08479.0424-.14536.01817-.27862-.1272L14.12971.005h-2.0654C10.06553.005,9.9989.01106,9.93833.12614ZM9.87776,7.33386c.15143.15142.09691.27862-.19382.48455a1.40386,1.40386,0,0,0-.47244.61175,1.61381,1.61381,0,0,1-.47244.71472,1.24946,1.24946,0,0,0-.29073.35736,1.41264,1.41264,0,0,1-.37553.49666,1.04163,1.04163,0,0,0-.24227.18171c-.16354.14536-.22411.16959-.321.12114-.12114-.06663-.13325-.103-.11508-.41187.00606-.103-.01817-.19382-.05451-.19382-.07268,0-.19988-.218-.23016-.40582-.01212-.07874-.03029-.19987-.04846-.27256-.01211-.07874-.0424-.2241-.06057-.321-.01817-.103-.04845-.24228-.06057-.321a.42812.42812,0,0,1,.03029-.26045.34777.34777,0,0,0,.00605-.30284c-.12719-.37553.109-.527.78134-.49667.24834.00606.55118.03029.66627.04846a2.0135,2.0135,0,0,0,.9691-.07874C9.62337,7.1885,9.74451,7.20061,9.87776,7.33386ZM6.91593,9.21756c.0848.16354-.1393.38764-.30284.30285-.16959-.09691-.19988-.23622-.06663-.36948S6.819,9.048,6.91593,9.21756Zm5.80858,1.7989c.1272.20594.15748.3089.11508.38159-.08479.15748-.06662.2241.06663.2665a.8046.8046,0,0,1,.28467.321,2.10264,2.10264,0,0,0,.33313.44821c.09691.09691.15748.19988.13931.23016-.01817.03634.06057.15748.18171.26651.18171.17565.212.23016.15748.32707-.11508.212-.24833.20593-.57541-.01211a2.30488,2.30488,0,0,1-.41792-.35131,2.39886,2.39886,0,0,1-.48456-.89642.78743.78743,0,0,0-.1817-.38764c-.29679-.321-.32708-.72683-.06057-.87825C12.43378,10.647,12.53675,10.71362,12.72451,11.01646Z"/>

</g>
</svg>
