<?xml version="1.0" encoding="UTF-8"?>
<svg xmlns="http://www.w3.org/2000/svg"
     version="1.1"
     width="65.73113575mm"
     height="10.52972524mm"
     viewBox="0.00000000 0.00000000 186.32446360 29.84802144">

<g transform="scale(2.31801567)">   <defs>
      <style type="text/css"><![CDATA[
      .a {
        fill: #000;
        stroke: #000;
        stroke-miterlimit: 10;
        stroke-width: 0.25px;
        fill-rule: evenodd;
      }
    ]]></style>
   </defs>
   <path class="a"
         d="M22.04537,4.501a20.86606,20.86606,0,0,0-5.4605.30571c-1.6694.4497-3.5136-.3184-5.229-.30571-1.4477.00931-2.8969,0-4.3462,0H2.99607a6.05025,6.05025,0,0,1-1.8072.01121C.707,4.29247.23477,3.083.15087,2.58057a1.54914,1.54914,0,0,1,.8598-1.6807,6.75868,6.75868,0,0,1,2.8667-.7578,10.35364,10.35364,0,0,1,2.2061.1807c.8759.103,1.7553.17819,2.6352.2378,1.0532.0713,2.106.1206,3.1602.1631a20.19806,20.19806,0,0,1,2.9092.1264,3.70037,3.70037,0,0,1,1.1362.4351,4.66362,4.66362,0,0,0,1.9976.3491c1.937.105,3.8686.1733,5.8149.1948,1.6011.0186,3.2012.0943,4.7993.1948a15.47978,15.47978,0,0,0,2.1094.0884,11.90468,11.90468,0,0,1,2.3252-.0356c.0976.6084.1513,1.5659-.4585,1.9136a6.47251,6.47251,0,0,1-3.4917.5971,29.03366,29.03366,0,0,1-3.0049-.081c-1.1035-.1128-2.2817-.00541-3.3911-.00541Z"/>
   <path class="a"
         d="M48.73037,4.54007c.1182.02189.2334.04489.3516.0683,1.8154.3604,3.7129.2344,5.5518.6177a37.63429,37.63429,0,0,0,5.9492.481,102.73533,102.73533,0,0,0,14.8027.0083,6.82448,6.82448,0,0,1,2.05081-.0015c.57909.1689,1.30269,1.0918,1.835,1.4873a4.74757,4.74757,0,0,1,.93359.7871c.1943.4522-.2149.6235-.4258.9429a10.13557,10.13557,0,0,1-1.4483,2.1421c-.708.5234-1.68449.6269-2.3877,1.0883-.2031.1343-.3574.4585-.5859.5401a4.13032,4.13032,0,0,1-1.3398-.0318c-.1006-.6196.124-1.749-.2344-2.2817-.4951-.7397-1.8555-.26321-2.5664-.396-1.1465-.2104-.126-1.6025-1.4561-1.6616-1.28219-.0581-2.6084.0073-3.8847-.1304-1.10749-.1206-2.2198-.0249-3.3272-.0556-.3935-.0118-.7695.0297-1.1611.0361-.4483.0078-.8721-.1924-1.32819-.1978-.46281-.0048-.92871-.00091-1.39351-.00091a28.69465,28.69465,0,0,0-3.4971-.07039,10.72852,10.72852,0,0,1-2.5449-.0654c-.9707-.07621-2.0127-.05221-2.9678-.19821-.9551-.148-1.8633-.56789-2.8359-.67829a6.27161,6.27161,0,0,1-1.8574-.1918,4.76938,4.76938,0,0,0-1.6631-.379c-.4893-.0317-2.0791.0757-2.3838-.4086-.2207-.3526-.1445-.606.3047-.6529.3857-1.2949,1.7568-1.1787,2.8545-1.1845A25.02135,25.02135,0,0,1,48.73037,4.54007Z"/>

</g>
</svg>
