<?xml version="1.0" encoding="UTF-8"?>
<svg xmlns="http://www.w3.org/2000/svg"
     version="1.1"
     width="25.64291483mm"
     height="43.50218250mm"
     viewBox="0.00000000 0.00000000 72.68861979 123.31333329">

<g transform="scale(5.77949253)">   <defs>
      <style type="text/css"><![CDATA[
      .a {
        stroke: #000;
        stroke-linecap: round;
        stroke-linejoin: round;
        stroke-width: 0.01px;
      }
    ]]></style>
   </defs>
   <path class="a"
         d="M3.72692.13825A4.16553,4.16553,0,0,1,2.89713.962c-.13931.11508-.25439.23622-.25439.27862a1.09244,1.09244,0,0,1-.15748.30285A1.16674,1.16674,0,0,0,2.3944,2.65793a4.9843,4.9843,0,0,0,1.484,1.37492,3.33139,3.33139,0,0,0,.55117.27256.42455.42455,0,0,1,.17565.07874c.24228.17565,1.00545-.18171,1.00545-.47244a.69652.69652,0,0,1,.3937-.53907c.22411-.13325.26045-.18776.32707-.47849a1.51738,1.51738,0,0,0,.03029-.50273A5.51091,5.51091,0,0,0,5.59856.93776a.52538.52538,0,0,1-.212-.1817,1.22921,1.22921,0,0,0-.3937-.30285A.95771.95771,0,0,1,4.6294.15642C4.56883.01711,4.52643.005,4.18119.005,3.84806.005,3.78749.02317,3.72692.13825Z"/>
   <path class="a"
         d="M3.945,5.15943a.97229.97229,0,0,0-.26045.30285A9.38568,9.38568,0,0,1,2.25509,7.031c-.48455.49666-.69654.75711-.72077.89642a.38385.38385,0,0,1-.212.27862.52645.52645,0,0,0-.34524.43.83433.83433,0,0,1-.3937.54512c-.109.03634-.24228.3513-.24228.58752a.664.664,0,0,1-.16959.29679c-.14537.1817-.16354.24227-.16354.65414a3.45422,3.45422,0,0,0,.22411,1.37492c.103.218.19382.29073.73894.58147a5.3088,5.3088,0,0,0,.95093.41187,3.66562,3.66562,0,0,1,.62992.212,2.54962,2.54962,0,0,0,.58752.16959,1.69238,1.69238,0,0,1,.92065.4361.50475.50475,0,0,1-.15142.58146,3.67053,3.67053,0,0,0-.636,1.02362,2.66837,2.66837,0,0,1-.26044.424,3.31656,3.31656,0,0,0-.45427.87826c-.0424.13325-.13931.38764-.212.56935a.98223.98223,0,0,0-.09086.38158c.01817.03028-.06057.13931-.17565.24833a2.9288,2.9288,0,0,0-.64809,1.272,3.2401,3.2401,0,0,0,.103.5633c.09085.32707.1272.39975.26045.43a.82558.82558,0,0,1,.55723.34524.33018.33018,0,0,0,.22411.17565,1.2186,1.2186,0,0,1,.424.28468l.25439.24833.15143-.15748a.40059.40059,0,0,1,.34524-.15143c.49667.03028.51484.01817,1.03573-.51483.739-.75711,1.0539-.87219,1.45972-.51484a1.22026,1.22026,0,0,0,.636.22411,5.64811,5.64811,0,0,0,1.33858-.04846,1.01314,1.01314,0,0,1,.3513-.05451,2.42337,2.42337,0,0,0,.50272-.06057c.14537-.03028.4361-.08479.64809-.11508a.92193.92193,0,0,0,.636-.30284,3.72457,3.72457,0,0,1,1.50817-.79346c.19382,0,.23622-.03028.37553-.2665a.93764.93764,0,0,1,.24227-.30285c.15143-.05451.103-.212-.13325-.45427-.25439-.2544-.47849-.3937-.55723-.33918a1.92485,1.92485,0,0,1-.41187.05451,1.72076,1.72076,0,0,0-.66021.17565c-.19382.09691-.33313.13324-.3937.103a1.077,1.077,0,0,0-.41792-.03029,1.61175,1.61175,0,0,1-.848-.19383,5.52381,5.52381,0,0,1-.57541-.2665.33546.33546,0,0,0-.19382-.05452,1.0615,1.0615,0,0,1-.37553-.12113,2.62425,2.62425,0,0,0-.59963-.17565,1.03058,1.03058,0,0,0-.69049.06662,3.18429,3.18429,0,0,1-.49061.15143.37885.37885,0,0,0-.25439.19988,3.15728,3.15728,0,0,1-.87825.90854.82035.82035,0,0,1-1.02967-.50878.43162.43162,0,0,1-.01817-.44216,2.56462,2.56462,0,0,1,.50878-.745,4.60111,4.60111,0,0,0,.51483-.69654,6.717,6.717,0,0,1,.5633-.77529.89378.89378,0,0,0,.18776-.25439,1.15159,1.15159,0,0,1,.49667-.39369,1.445,1.445,0,0,0,.93276-1.33253c.00606-.218.01817-.54512.02423-.72682a.88127.88127,0,0,0-.13931-.61175c-.2665-.45427-.41793-.56329-.81768-.57541-.57541-.02423-1.16293-.29679-1.16293-.54512a2.01286,2.01286,0,0,1,.321-.46033,3.33131,3.33131,0,0,0,.44821-.71471,5.02407,5.02407,0,0,0,.321-1.07813,1.09778,1.09778,0,0,1,.212-.3937c.19382-.25439.212-.30285.17565-.53907a1.39285,1.39285,0,0,0-.18777-.46032.91018.91018,0,0,1-.13931-.3937.65864.65864,0,0,0-.1817-.38764.90554.90554,0,0,1-.18171-.26045,1.19579,1.19579,0,0,0-.57541-.36341.98947.98947,0,0,1-.35736-.24228.74922.74922,0,0,0-.55723-.2665A1.16378,1.16378,0,0,0,3.945,5.15943Zm-.16354,2.659c.5209.321.57541.90248.15748,1.79285a1.82688,1.82688,0,0,0-.14536.38158.50636.50636,0,0,1-.15142.22411l-.15143.15142-.23016-.12114c-.35736-.1817-.4361-.43-.41793-1.28406.01817-.79346.07874-.94488.45427-1.1387.27861-.15144.24833-.15144.48454-.00608Z"/>

</g>
</svg>
