<?xml version="1.0" encoding="UTF-8"?>
<svg xmlns="http://www.w3.org/2000/svg"
     version="1.1"
     width="38.37283008mm"
     height="48.04894280mm"
     viewBox="0.00000000 0.00000000 108.77334148 136.20169825">

<g transform="scale(4.28949437)">   <defs>
      <style type="text/css"><![CDATA[
      .a {
        stroke: #000;
        stroke-linecap: round;
        stroke-linejoin: round;
        stroke-width: 0.01px;
      }
    ]]></style>
   </defs>
   <path class="a"
         d="M24.00239.17876A4.8309,4.8309,0,0,0,22.74861,1.3114a3.15752,3.15752,0,0,1-.24834.30285c-.06662.07268-.11508.15747-.103.18776.04239.12114-.14537.27862-.3513.30285a2.5092,2.5092,0,0,0-.41187.09085.30982.30982,0,0,1-.36342-.04846c-.12114-.09085-.18776-.109-.28467-.06057-.103.0424-.23017.00606-.59964-.18776-.65414-.34524-.87825-.36947-1.36886-.14537a2.77287,2.77287,0,0,0-.75106.55118,3.62888,3.62888,0,0,1-1.10235.81769,2.72331,2.72331,0,0,0-.54513.46638c-.2241.23016-.45426.46032-.50878.51484a4.60082,4.60082,0,0,0-.80557.963c-.39369.57541-.45426.87826-.1393.66626.14536-.09691.16353-.09085.28467.03029a.25139.25139,0,0,1,.09085.24228c-.04239.1393.03635.19382.35131.212a3.57276,3.57276,0,0,1,.72682.12114c.103.02422.16354.01817.16354-.02423,0-.109.26045-.20594.59358-.22411a1.11679,1.11679,0,0,0,.41187-.08479c.07874-.07269.3513-.103,1.169-.13326.61781-.03028.9146.24834.745.69655a.42554.42554,0,0,0-.03634.23622,1.06051,1.06051,0,0,1-.29073.6602c-.06663.03634-.103.09691-.09086.13325a.24912.24912,0,0,1-.02422.1696,1.59758,1.59758,0,0,0-.07874.25439.90934.90934,0,0,1-.16354.33918c-.12719.17565-.15748.27256-.20593.76317-.01212.13326-.0424.33919-.06057.45427a2.6277,2.6277,0,0,0-.01817.92065c.03634.07269.01211.14537-.06663.22411a.28393.28393,0,0,0-.0848.26045.74832.74832,0,0,1-.09691.39975l-.12719.24833.212.39976a2.29411,2.29411,0,0,1,.212.48455,2.4318,2.4318,0,0,0,.212.49061c.32708.61781.27256.89037-.19987.99939a.51878.51878,0,0,1-.3937-.01817.54211.54211,0,0,0-.58752.07269.27771.27771,0,0,1-.25439.08479,3.03342,3.03342,0,0,0-1.51423.15143c-.16354.06662-.29073.109-.29073.09085,0-.01212-.07874.01211-.17565.06057-.09691.05451-.18777.07874-.20594.06057a1.77642,1.77642,0,0,0-.50878.19382,2.57661,2.57661,0,0,1-1.03573.33313.51408.51408,0,0,0-.27256.08479.64184.64184,0,0,1-.59358.03029A.73031.73031,0,0,1,12.8274,14.146c.12719-.18171.12719-.18171.01211-.424a3.31358,3.31358,0,0,0-.32707-.49667c-.19988-.24227-.20594-.27256-.1272-.424a.68639.68639,0,0,0,.06663-.28468,1.61571,1.61571,0,0,0-.35736-.7026.45874.45874,0,0,1-.12719-.33313,1.70854,1.70854,0,0,0-.07874-.41792c-.03634-.103-.109-.33314-.1696-.51484a2.56291,2.56291,0,0,0-.27256-.56329c-.09085-.1272-.15748-.26651-.13931-.30891a1.10492,1.10492,0,0,0-.15142-.39975c-.13325-.24228-.16354-.3513-.12114-.4361a.73846.73846,0,0,0,.04846-.30285.64469.64469,0,0,1,.06057-.33313A.95878.95878,0,0,0,11.2102,7.871a1.25281,1.25281,0,0,1,.13931-.69048c.109-.20594.43-.50878.55118-.50878a1.85535,1.85535,0,0,0,.39976-.212,1.93757,1.93757,0,0,1,.87219-.33918c.02423.00605.0848-.03635.1272-.09086a.28424.28424,0,0,1,.18776-.11508,1.21107,1.21107,0,0,0,.58752-.36341.37455.37455,0,0,0,.07874-.30285.60836.60836,0,0,1,.03634-.29073A1.90763,1.90763,0,0,0,14.172,3.86735c-.08479-.15143-.09085-.19988-.01211-.41793a.7135.7135,0,0,0,.03634-.37553.43884.43884,0,0,1-.03028-.17565c.01817-.07268-.35736-.27862-.49667-.26045-.19382.02423-.36342.13326-.70866.44821a3.69623,3.69623,0,0,1-.40581.33919.568.568,0,0,0-.1696.14537.37447.37447,0,0,1-.212.109c-.07874.00606-.15748.01817-.17565.01817a1.69228,1.69228,0,0,0-.2241.17565c-.103.09691-.321.27862-.4785.41187a2.644,2.644,0,0,0-.34524.30891c-.109.17565-.27256.19987-.53907.09085a.90892.90892,0,0,0-.35736-.09085,3.34736,3.34736,0,0,1-1.278-.67838c-.06663-.15142-.09086-.15748-.68444-.15748-.62386,0-.71471.02423-.9691.28468a1.30219,1.30219,0,0,0-.26045.33313.37146.37146,0,0,1-.12114.16353c-.05451.03634-.24833.19988-.43.36342a3.91774,3.91774,0,0,1-.424.33918,3.32081,3.32081,0,0,0-.41793.38159,1.84971,1.84971,0,0,1-.37553.321c-.03028,0-.07268.05451-.09085.12113a.49154.49154,0,0,1-.218.212.76531.76531,0,0,0-.26045.26044,1.39088,1.39088,0,0,1-.38158.36947c-.43.30891-.68443.58753-.67837.745a2.72986,2.72986,0,0,1-.103.527c-.103.37552-.103.39369.00606.45426a2.74412,2.74412,0,0,1,.29073.23017c.16353.14536.19382.15142.315.07268.07874-.04846.16353-.0848.18776-.07268a.34825.34825,0,0,0,.18171-.06057.332.332,0,0,1,.321,0c.17565.07268.19988.06057.38159-.13931.23016-.25439.68443-.50272.81768-.45427a.15243.15243,0,0,0,.1696-.06057c.09085-.12719.36947-.15748.93882-.12114a.7673.7673,0,0,0,.40581-.06662.92507.92507,0,0,1,.38764-.103A.40441.40441,0,0,1,8.16364,7.98c.17565.17565.17565.19988-.01817.48455a.89227.89227,0,0,0-.15748.4361,1.37234,1.37234,0,0,1-.1272.48455,2.033,2.033,0,0,0-.19382.76923,2.10386,2.10386,0,0,1-.09691.40581.27755.27755,0,0,0,.03029.30285c.08479.13325.08479.15748-.03029.33918a1.64846,1.64846,0,0,0-.15142.527c-.03029.27256-.01817.3513.09691.50272a1.67032,1.67032,0,0,1,.24833.89036c0,.09692-.00606.29679-.00606.44216a.641.641,0,0,0,.06663.3513.657.657,0,0,1,.09691.25439c.01212.09085.03634.23016.05451.315a1.462,1.462,0,0,1,.00606.67232c-.03028.24833-.01817.30284.109.44215.17566.18776.18777.321.05452.50878a.71364.71364,0,0,1-.642.29073c-.38158.01817-.51483.103-.59357.38159a.90074.90074,0,0,1-.38159.49061,1.45842,1.45842,0,0,0-.321.321c0,.0424-.01212.109-.01212.15143-.00605.0424-.07268.103-.15142.13931a.26272.26272,0,0,0-.15142.24833,1.012,1.012,0,0,1-.109.35736.38856.38856,0,0,0-.05451.24227c.02423.03029,0,.12114-.04846.19988a1.87767,1.87767,0,0,0-.12113.71472,3.412,3.412,0,0,1-.0848.69048,1.06259,1.06259,0,0,0-.06663.315,1.27555,1.27555,0,0,1-.103.37553c-.04846.09086-.07269.18171-.05452.19988a1.31589,1.31589,0,0,1-.09085.45427,4.51107,4.51107,0,0,0-.15748.83585c-.01817.33919-.0424.43-.14537.50273a.24989.24989,0,0,0-.12719.16959,4.43954,4.43954,0,0,1-.50272.98728,1.00084,1.00084,0,0,1-.47244.46638,1.63823,1.63823,0,0,0-.50878.424,8.52932,8.52932,0,0,1-.75712.854c-.20593.20593-.36341.41187-.34524.45426a1.47214,1.47214,0,0,1-.3089.66021,1.83384,1.83384,0,0,0-.25439.33918,1.23692,1.23692,0,0,1-.24834.315.87531.87531,0,0,0-.41792.41793.945.945,0,0,1-.15748.34524.94138.94138,0,0,0-.1696.59964,1.19149,1.19149,0,0,1-.20593.67837,1.26494,1.26494,0,0,1-.28468.34525c-.07268.02422-.09085.17565-.09085.751v.72077l.26045.103a1.471,1.471,0,0,0,.34524.09691c.109-.006.424-.27256.424-.35735a.87536.87536,0,0,1,.20594-.29074,6.3849,6.3849,0,0,0,.43-.59357c.1272-.19988.315-.47244.41793-.60569a4.30205,4.30205,0,0,0,.35735-.533.99455.99455,0,0,1,.218-.28468,4.117,4.117,0,0,0,.70866-.9267c0-.03635.01212-.109.01212-.15748a6.136,6.136,0,0,1,.70865-.77529c.61781-.61175.70866-.68443.81769-.62386a.37228.37228,0,0,0,.25439.02423,1.33259,1.33259,0,0,0,.56329-.61175,1.77924,1.77924,0,0,1,.6178-.75106c.23622-.14536.35131-.36947.26651-.533-.0424-.07268.00606-.23622.18171-.60569a5.77179,5.77179,0,0,0,.29678-.745c.07874-.28467.55118-.79345.69049-.73894a1.04544,1.04544,0,0,1,.36947.61781.52552.52552,0,0,1-.06057.29072,1.45743,1.45743,0,0,0-.07873.58146,1.851,1.851,0,0,1-.06057.56935.65554.65554,0,0,0,.04239.55724.7886.7886,0,0,1,.06663.29678,3.224,3.224,0,0,0,.27256,1.31435,1.17636,1.17636,0,0,0,.58752.59964c.24228.12719.29073.13931.43.06057a.48183.48183,0,0,1,.424-.00606.8.8,0,0,0,.62991-.06663c.26651-.09691.3937-.12113.50879-.07874.12113.04846.19382.03029.38764-.11508.13325-.09691.321-.2241.41187-.28467.09085-.05451.30284-.20594.47244-.32708a2.81849,2.81849,0,0,1,.41187-.26044.3667.3667,0,0,0,.17565-.18171.52618.52618,0,0,1,.212-.21805.86575.86575,0,0,0,.27862-.2665.69768.69768,0,0,1,.24833-.24228c.15142-.04845.19382-.26045.0848-.44821a3.294,3.294,0,0,0-.49061-.65415c-.26045-.26044-.01212-.48455.37552-.33918a3.38,3.38,0,0,0,.69655.11508c.44215.02423.58146.03634,1.60508.12114a8.58415,8.58415,0,0,0,1.599,0,.76482.76482,0,0,0,.2241-.103,1.12048,1.12048,0,0,1,.46638-.0848,2.2447,2.2447,0,0,0,1.32647-.52089.55654.55654,0,0,1,.25439-.17565.22154.22154,0,0,0,.15748-.1272,4.97363,4.97363,0,0,1,.46032-.51484c.33919-.33313.41187-.38158.50878-.32707.06663.03634.1272.09691.1272.13931a3.16845,3.16845,0,0,0,.27256.90855c.04845.09085.07874.18775.05451.218a.39956.39956,0,0,0,.0848.25439c.09691.15748.109.218.04845.321a.68132.68132,0,0,0,.06057.62385c.0848.1272.0848.15143-.00606.29074a1.41828,1.41828,0,0,0-.12719.59357,4.29517,4.29517,0,0,1-.0424.50273.34787.34787,0,0,0,.04846.17565,2.26117,2.26117,0,0,1-.0848,1.20532,1.284,1.284,0,0,0-.09085.48455,1.98255,1.98255,0,0,1,.01817.35131c-.01817.69655-.00606.73288.28467.848.315.1272.51484.07269.64809-.18775a2.00617,2.00617,0,0,1,.47244-.44216c.36947-.2544.68443-.66626.62386-.81768a.52833.52833,0,0,1,.12114-.27257,3.07531,3.07531,0,0,0,.23622-.39369c.04845-.109.12114-.19989.15142-.19989.03634,0,.06663-.0424.06663-.09691a.86708.86708,0,0,1,.13931-.321,1.12209,1.12209,0,0,0,.14536-.33919c.103-.81768.11508-.86009.212-1.0115a1.94292,1.94292,0,0,0,.26651-.75712c-.01817-.01817-.00606-.0848.03028-.15142a1.79991,1.79991,0,0,0,.09086-.52091c.02422-.35129.07268-.93276.08479-1.13264a5.38314,5.38314,0,0,0-.103-1.01756,3.51325,3.51325,0,0,1-.06057-.67232,3.86457,3.86457,0,0,0-.13326-1.18109.39682.39682,0,0,1,0-.315c.03029-.06663.04846-.13931.03029-.16354s-.00606-.0848.02423-.13325a.20726.20726,0,0,0-.03635-.212.83024.83024,0,0,1-.09086-.36947v-.78135c0-.30283.01212-.68442.02423-.848a.71058.71058,0,0,0-.03634-.38159.6562.6562,0,0,1-.07874-.30284,4.08641,4.08641,0,0,0-.0848-.527,2.76083,2.76083,0,0,1-.06057-.424,1.23228,1.23228,0,0,0,0-.212,8.439,8.439,0,0,1,.02423-.8722.71581.71581,0,0,0-.103-.44215,1.01587,1.01587,0,0,1-.11508-.4785.81164.81164,0,0,0-.0848-.41792.213.213,0,0,1-.02422-.26651c.03634-.07269.04845-.12719.03028-.12719s-.00606-.04846.02423-.11508a.43535.43535,0,0,0,.00606-.321,2.651,2.651,0,0,1-.0848-.38764,2.07,2.07,0,0,0-.27256-.848c-.06663-.04845-.09691-.23622-.109-.6602a2.3337,2.3337,0,0,0-.08479-.67232,1.0421,1.0421,0,0,1-.09691-.36947.989.989,0,0,0-.09086-.36342,2.74537,2.74537,0,0,1-.13931-.98727c-.01817-.218-.05451-.527-.08479-.69049A1.93563,1.93563,0,0,1,23.1059,6.0175a1.42158,1.42158,0,0,0,.12719-.3937,1.745,1.745,0,0,1,.1272-.54513c.02422-.03633.16959-.26651.321-.49666a2.9422,2.9422,0,0,0,.46033-1.13264,5.54241,5.54241,0,0,1,.23622-.57541,3.76846,3.76846,0,0,0,.38158-1.01756c.01817-.103.03634-.2241.0424-.27256a1.794,1.794,0,0,1,.38764-.90248l.16362-.115L25.06235.28778c-.16354-.15142-.32708-.26045-.37553-.24227A.284.284,0,0,1,24.493.02128C24.4082-.02112,24.29312.01522,24.00239.17876ZM20.27133,18.15567a.2796.2796,0,0,1,.00606.18776c-.02423.01817,0,.109.04845.19382a2.07462,2.07462,0,0,1,.07874.73895,3.61636,3.61636,0,0,0,.03634.7026c.06663.1817-.14536.38764-.36341.34524a1.5023,1.5023,0,0,1-.79951-.49061c-.26651-.27256-.28468-.38764-.12114-.7026a.20372.20372,0,0,0,.01817-.16354.90748.90748,0,0,1,.1272-.3937,1.028,1.028,0,0,1,.43609-.51483C20.05328,17.86494,20.20471,17.88916,20.27133,18.15567Zm-3.49484.11508a1.594,1.594,0,0,1,.67232.65414.48038.48038,0,0,1-.07874.19383,1.58449,1.58449,0,0,0-.15142.36947,1.35743,1.35743,0,0,1-.58146.67231.23028.23028,0,0,1-.24834,0,1.29221,1.29221,0,0,0-.43-.07874c-.321-.01211-.69049-.15748-.69049-.27256,0-.03634-.03634-.05451-.07874-.03634a.21881.21881,0,0,1-.16353-.01817.32861.32861,0,0,0-.26651.0424,1.49248,1.49248,0,0,1-.50272.103.66253.66253,0,0,0-.49061.16353,4.66642,4.66642,0,0,1-.41793.315.81419.81419,0,0,0-.28467.315c-.06663.26045-.55118.39976-.90248.26045-.18777-.07268-.4361-.49061-.38159-.636a.29725.29725,0,0,0-.02422-.19987c-.0424-.0848-.03029-.18777.06056-.38764.06057-.15143.13931-.27861.1696-.27861s.07268-.07269.09085-.1696c.06663-.33313.16354-.3937.66626-.40581a1.51562,1.51562,0,0,0,.53907-.07874,1.11723,1.11723,0,0,1,.745-.18171,1.0052,1.0052,0,0,0,.424-.006c.13325-.03635.32707-.07874.424-.103.103-.02423.22411-.05451.27257-.06663a.87937.87937,0,0,1,.16959-.02423,1.693,1.693,0,0,0,.99939-.13325.21274.21274,0,0,1,.212-.07268A1.24271,1.24271,0,0,0,16.77649,18.27075ZM8.17568,21.6929c.16354.0848.19988.23016.09691.41793-.11508.23016-.24833.27256-.3937.12719a.31521.31521,0,0,1,0-.48455C8.0182,21.61416,8.03032,21.61416,8.17568,21.6929Z"/>

</g>
</svg>
