<?xml version="1.0" encoding="UTF-8"?>
<svg xmlns="http://www.w3.org/2000/svg"
     version="1.1"
     width="64.78330537mm"
     height="72.55043660mm"
     viewBox="0.00000000 0.00000000 183.63766873 205.65474600">

<g transform="scale(5.40924245)">   <defs>
      <style type="text/css"><![CDATA[
      .a {
        stroke: #000;
        stroke-linecap: round;
        stroke-linejoin: round;
        stroke-width: 0.01px;
      }
    ]]></style>
   </defs>
   <path class="a"
         d="M17.6306.06917a1.72482,1.72482,0,0,0-.321.19988.608.608,0,0,1-.26045.13931,2.46747,2.46747,0,0,0-1.12658.7026c-.27862.28467-.424.38764-.54512.38764a.62727.62727,0,0,0-.35736.18171,1.971,1.971,0,0,1-.50878.41187c-.07268.03634-.14537.05451-.16354.03028-.04845-.0424-.24833.18777-.38158.424a.67741.67741,0,0,1-.30285.26044c-.11508.04846-.19382.11508-.17565.14537s-.09085.18171-.24228.33919c-.15142.15142-.2665.29678-.24833.3089.04846.04845-.19988.50272-.2665.50272-.03634,0-.06057.03634-.06057.0848a.71571.71571,0,0,1-.18777.29073,1.06517,1.06517,0,0,0-.3513.66626c.01817.67837,0,.78134-.20593,1.0963a2.86052,2.86052,0,0,1-.33313.424c-.103.09692-.11508.13931-.06057.28468.04845.13931.03028.23016-.07874.46638a2.87233,2.87233,0,0,0-.14537.35736.77931.77931,0,0,1-.33313.41793.45342.45342,0,0,0-.17565.58752c.07874.18776.32708.47244.41187.47244a1.35437,1.35437,0,0,0,.27862-.1272c.3089-.16354.636-.47244.636-.59963a.90583.90583,0,0,1,.17565-.34525,6.14938,6.14938,0,0,0,.33918-.56935,2.72657,2.72657,0,0,1,.43-.59963c.14537-.15142.43-.44216.62387-.65415a2.0744,2.0744,0,0,1,.424-.37553c.07874,0,.06057.01212.91459-.79345a8.20771,8.20771,0,0,1,.67838-.59964,1.1994,1.1994,0,0,0,.26044-.212c.17565-.1817.23017-.20593.33313-.15142a.44086.44086,0,0,1,.1272.55118.29.29,0,0,0,.02423.315.20835.20835,0,0,1,.03028.2241.378.378,0,0,0-.03028.218.5168.5168,0,0,1-.07269.26045.44773.44773,0,0,0-.05451.321.30515.30515,0,0,1-.103.315,1.08883,1.08883,0,0,0-.20593.29678c-.0424.09086-.103.16354-.13931.16354a.06514.06514,0,0,0-.06057.06057,1.27983,1.27983,0,0,1-.09691.29073,2.15693,2.15693,0,0,0-.12114.30285.47772.47772,0,0,1-.11508.19382c-.05451.06057-.0848.13931-.06662.16959.01817.03634-.01818.12114-.07874.19988a.21937.21937,0,0,0-.04846.27862.25488.25488,0,0,1-.0424.28467.54147.54147,0,0,0,.02423.642.54854.54854,0,0,0,.18171.1272.75888.75888,0,0,0,.46638-.05451.53937.53937,0,0,1,.218-.07269c.15142,0,.56329-.50878.69654-.854a2.04784,2.04784,0,0,1,.71474-1.12055,1.0607,1.0607,0,0,0,.2665-.20593,3.20736,3.20736,0,0,1,.73894-.95094c.17566-.15748.315-.315.30285-.35736-.02423-.109.0848-.315.28468-.53906A1.60416,1.60416,0,0,0,19.49,4.44832a1.01123,1.01123,0,0,1,.321-.527,1.896,1.896,0,0,0,.29678-.36947,2.66074,2.66074,0,0,1,.4725-.76312c.05451-.01817.07269-.07874.05451-.14536-.02422-.07874.03635-.18171.19988-.3513.212-.212.22411-.24834.14537-.32708a1.15754,1.15754,0,0,1-.12114-.84191c.03029-.06057.01817-.109-.0424-.13325A.91514.91514,0,0,1,20.56214.6991c-.15142-.23017-.19988-.26046-.41187-.27257a1.475,1.475,0,0,1-.854-.23017,1.49809,1.49809,0,0,0-.90245-.1817A3.07847,3.07847,0,0,0,17.6306.06917Z"/>
   <path class="a"
         d="M18.93889,7.83413a1.4219,1.4219,0,0,1-.34524.15748c-.14537.0424-.23017.103-.23017.16353a.50122.50122,0,0,1-.09691.23622A.35968.35968,0,0,0,18.2,8.64575a.53451.53451,0,0,1-.13931.35131,3.05958,3.05958,0,0,0-.39976,1.07207.33051.33051,0,0,1-.13931.19988c-.09691.06662-.109.109-.06662.19382.103.19382-.03029.72683-.18171.72683-.03028,0-.05451.12719-.05451.28467a4.45733,4.45733,0,0,1-.11508,1.15687c-.05452.16354-.04846.20594.02422.23622a1.26661,1.26661,0,0,1,.27256.39976,1.63712,1.63712,0,0,0,.30285.45427,1.89662,1.89662,0,0,1,.44215.65414c.01818.103.24228.3089.56935.527a1.04443,1.04443,0,0,1,.26045.212c0,.02423.01212.11509.01817.20594a.60854.60854,0,0,0,.15143.315.59123.59123,0,0,1,.15747.26045c.01818.15142.18171.51483.23017.50878.13931-.01817.17565.01817.2665.218a9.82159,9.82159,0,0,0,.88431,1.36281.40238.40238,0,0,1,.103.16354.6697.6697,0,0,0,.14536.20593.33623.33623,0,0,1,.11508.27256c-.03634.15143.2544.44216.61175.60569.27256.13326.40582.28468.35736.41187-.01211.0424.0424.0848.1272.109a.45215.45215,0,0,1,.24833.218c.05451.103.12114.1817.14536.1817.09086,0,.30891.39976.30891.5633a.24761.24761,0,0,0,.13931.23016.70111.70111,0,0,1,.43609.6178.89826.89826,0,0,0,.07874.38159c.03634.07267.05452.14535.03634.16353s.03029.11508.103.218a.76624.76624,0,0,1,.14537.38764,2.89268,2.89268,0,0,0,.527,1.14476.72368.72368,0,0,1,.16959.73895.28772.28772,0,0,0,.03634.3089.42087.42087,0,0,1,.06663.27862.38087.38087,0,0,0,.09085.30284.3324.3324,0,0,1,.0848.26651.3069.3069,0,0,0,.01817.20593c.06663.11508-.12114.49061-.23622.49061a.04947.04947,0,0,0-.05426.04416l-.00025.0043a.25669.25669,0,0,1-.15142.28467,3.18212,3.18212,0,0,1-.87825.33313,8.70056,8.70056,0,0,0-.93883.41793,6.58726,6.58726,0,0,1-1.18715.52089.99583.99583,0,0,0-.19988.11508c-.09085.06057-.18171.09691-.20593.07269-.01817-.01819-.07874,0-.1272.03634a.82912.82912,0,0,1-.39975.07874,1.19019,1.19019,0,0,0-.4361.07873c-.07269.03635-.13931.05451-.15748.0424-.01212-.01818-.15142.09086-.3089.23621-.19988.19384-.30891.26046-.39976.23622-.07268-.01817-.1272-.006-.1272.01817a.79976.79976,0,0,1-.14536.22411c-.13931.17565-.27256.212-.854.23016a.37385.37385,0,0,0-.24227.09691.25807.25807,0,0,1-.15748.09691,2.69606,2.69606,0,0,0-.424.23017,8.8293,8.8293,0,0,1-1.30829.751c-.14536.06057-.26045.1272-.26045.15748s-.09691.103-.212.15748-.212.12114-.212.15143c0,.06056-.33313.23016-.45427.23016a2.35282,2.35282,0,0,0-.751.47244,2.76937,2.76937,0,0,1-.55724.424.92279.92279,0,0,1-.315.13325,1.49865,1.49865,0,0,0-.41187.22411,1.39377,1.39377,0,0,1-.56329.24228,2.55935,2.55935,0,0,0-1.1387.53907c-.23622.212-.47244.30284-.62386.24833a1.02587,1.02587,0,0,0-.4361.07268,1.75851,1.75851,0,0,1-.7026.09086c-.29073-.02424-.38159-.00607-.50878.0969a.5561.5561,0,0,1-.24228.12114.64074.64074,0,0,0-.24833.12114,2.04971,2.04971,0,0,1-1.04785.24227,5.00111,5.00111,0,0,0-.9389-.03622,5.32949,5.32949,0,0,1-.97516-.03028,2.71512,2.71512,0,0,0-1.16293.02422,3.35237,3.35237,0,0,1-1.066-.12719,1.89234,1.89234,0,0,1-.5209-.24228,1.0813,1.0813,0,0,0-.44215-.19382A1.9197,1.9197,0,0,1,1.5374,33.576c-.46033-.19382-.67232-.1696-1.28407.15142-.20593.103-.212.12114-.23016.50272l-.01817.3937.24228.12114a1.18219,1.18219,0,0,1,.321.23622.456.456,0,0,0,.212.15748.73064.73064,0,0,1,.25439.19382c.06663.0848.15143.13931.18777.11509.03028-.01817.13931.04845.23622.15142a3.11908,3.11908,0,0,0,.59357.5633c.424.3089.49667.37553.51484.46032.03029.14537.20594.33919.72683.82373.19988.18778.321.2544.40581.23016a.647.647,0,0,1,.40582.15748c.321.212.34524.218.527.11509a.75927.75927,0,0,1,.321-.06057.88058.88058,0,0,0,.45427-.13931,1.27835,1.27835,0,0,1,.37553-.15142,5.01551,5.01551,0,0,0,1.1387-.46032,1.50039,1.50039,0,0,1,.37553-.14537,1.67574,1.67574,0,0,0,.4361-.18171,2.51849,2.51849,0,0,1,.3997-.18168.623.623,0,0,0,.19988-.15142.33571.33571,0,0,1,.23622-.12114c.05451.02423.13931-.07268.24833-.27256.1696-.315.30285-.424.51484-.424.07268,0,.1272-.03028.1272-.06662a1.19349,1.19349,0,0,1,.41187-.24834,3.36141,3.36141,0,0,0,.49666-.2665,1.79684,1.79684,0,0,1,.81769-.27256c.1817.00606.26044-.05451.72077-.55724.09085-.09691.18776-.15142.23016-.12719.03634.02423.04846.01817.03028-.01817-.05451-.0848.1696-.36342.38159-.47244a.71825.71825,0,0,1,.39976-.0545,1.22933,1.22933,0,0,0,.84191-.12114,3.35975,3.35975,0,0,1,.636-.18171,2.07053,2.07053,0,0,0,.636-.27862,2.05916,2.05916,0,0,1,.59357-.27861,1.31266,1.31266,0,0,0,.35736-.12114,1.74424,1.74424,0,0,1,.49667-.12721,1.37859,1.37859,0,0,0,.39976-.07873,3.96532,3.96532,0,0,1,1.181-.33316,1.36868,1.36868,0,0,0,.4361-.07874.57857.57857,0,0,1,.24228-.07268,2.33378,2.33378,0,0,0,.50878-.15142,1.38158,1.38158,0,0,1,.81162-.12114,2.82744,2.82744,0,0,1,.59358.103.366.366,0,0,0,.3089,0,.32349.32349,0,0,1,.22411-.01211,2.97341,2.97341,0,0,0,.73894.13324.32694.32694,0,0,1,.16354.04846c.08479.04845.19382.02423.44215-.0848a.75606.75606,0,0,1,.40582-.09691.24375.24375,0,0,0,.20593,0c.33313-.12114,1.18715.05451,1.18715.24834,0,.03634.07874.04845.19988.02422a1.87,1.87,0,0,1,.94488.06663,2.15008,2.15008,0,0,0,.69655.18776c.26044.03029.58146.16961.58146.2544,0,.04845.27256.11508.6602.16353a.777.777,0,0,1,.43.39977,8.64935,8.64935,0,0,0,1.78683-.04855,2.38574,2.38574,0,0,0,.88431-.18171,3.47087,3.47087,0,0,1,.533-.1817.48826.48826,0,0,0,.315-.24228c.06662-.11508.15142-.20594.18776-.20594s.04846-.04238.02423-.09085c-.04846-.12719.11508-.27256.55118-.48455a1.078,1.078,0,0,0,.59358-.56329,1.75571,1.75571,0,0,1,.3089-.41793c.04845-.01817.07268-.05451.05451-.07874a1.16442,1.16442,0,0,1,.16353-.4361,1.93817,1.93817,0,0,0,.19988-.50272.69941.69941,0,0,1,.11509-.27862.33979.33979,0,0,0,.06055-.25439.24336.24336,0,0,1,.07874-.20594,1.06154,1.06154,0,0,0,.19988-.81162,1.7475,1.7475,0,0,1-.09085-.51484c-.03029-.41793-.06663-.533-.15142-.47849a.79281.79281,0,0,1-.35736-.12114.75125.75125,0,0,0-.48455-.11508.44126.44126,0,0,1-.321-.04846,5.20988,5.20988,0,0,0-1.77468-.315c-.16353-.01211-.52089-.0424-.78739-.06662s-.60569-.05452-.75712-.06057a4.99045,4.99045,0,0,1-.60569-.09691,3.92067,3.92067,0,0,0-.54512-.0848,3.395,3.395,0,0,1-.98728-.25439.4592.4592,0,0,0-.26044-.06057c-.05452.05451-.61175-.24228-.67838-.35736a.47035.47035,0,0,1,.02423-.33313,1.027,1.027,0,0,0,.04846-.44215.32782.32782,0,0,1,.09085-.33313l.12719-.1272-.12113-.12114c-.11509-.11508-.11509-.1393-.03635-.33313a.33686.33686,0,0,0-.02422-.41187c-.09691-.16959-.103-.212-.03029-.34524a.33935.33935,0,0,0,.03029-.27256,1.97757,1.97757,0,0,1-.04846-.46638.88113.88113,0,0,0-.12114-.53907c-.09691-.15748-.109-.23016-.06057-.321.04846-.0848.0424-.15143-.03028-.27256a.94635.94635,0,0,1,.02423-.70261c.01211-.03634-.03634-.12113-.11508-.19987-.13326-.13326-.13326-.15143-.04846-.29073.09085-.13325.09085-.15748-.06057-.38158-.11508-.17565-.13931-.26651-.09691-.34525.0424-.07268.00606-.18776-.12719-.44215a1.43461,1.43461,0,0,1-.19988-.72077.76451.76451,0,0,0-.1696-.56329c-.12719-.15143-.14536-.20594-.09085-.30285a.35215.35215,0,0,1,.14537-.15142c.05451-.02423.04239-.07269-.06663-.17565a.25591.25591,0,0,1-.09085-.315c.06057-.212.03634-.28468-.15748-.47851-.09691-.09691-.13325-.18776-.109-.26045a1.36956,1.36956,0,0,0-.533-.86008.59272.59272,0,0,1-.32707-.58752.38481.38481,0,0,0-.11508-.33918.46863.46863,0,0,1-.13325-.30284c.01817-.13931-.315-.424-.62386-.533-.18171-.06057-.45427-.43-.38765-.52695.01818-.03634-.07268-.12719-.19987-.212-.26045-.16354-.49667-.43-.49667-.55725a1.19966,1.19966,0,0,0-.37553-.32707,2.32993,2.32993,0,0,1-.44215-.3513,2.01237,2.01237,0,0,0-.67838-.64809.72879.72879,0,0,1-.29679-.27862,1.75529,1.75529,0,0,0-.3089-.3937c-.16959-.16353-.20593-.23622-.19382-.39975a.715.715,0,0,0-.05451-.33313c-.06663-.11507-.05451-.15748.03634-.24833.0848-.08479.103-.14536.06057-.218a.18988.18988,0,0,1-.01817-.15748.20368.20368,0,0,0-.01817-.16354,1.16249,1.16249,0,0,1-.09086-.34525.465.465,0,0,0-.11508-.28467A.60412.60412,0,0,0,18.93889,7.83413Z"/>
   <path class="a"
         d="M13.14243,9.421c-.636.6178-.83586.83585-.81163.89036a.295.295,0,0,1-.03028.16354.348.348,0,0,0,0,.24833c.04845.11509.01817.212-.13326.47244a1.28341,1.28341,0,0,0-.17565.43.87.87,0,0,1-.109.35131c-.07268.1393-.11508.2665-.09691.28467s0,.09085-.0424.16354a.88747.88747,0,0,0-.07874.3089,1.91328,1.91328,0,0,1-.05451.33313,3.23984,3.23984,0,0,0-.06057.48455,3.61806,3.61806,0,0,1-.09691.60569,1.50811,1.50811,0,0,0-.06663.321.69539.69539,0,0,1-.08479.24228.8331.8331,0,0,0-.0424.75105.356.356,0,0,1,.04845.30285,3.38123,3.38123,0,0,0-.05451.53906.768.768,0,0,1-.109.49061.97407.97407,0,0,0,.06662.94488c.07269.12114.11508.25439.09086.29073a1.99587,1.99587,0,0,0-.04846.44216.81723.81723,0,0,0,.12114.56935.38823.38823,0,0,1,.07874.38158c-.03029.09691-.07874.26045-.11508.36342a.33921.33921,0,0,0,.03634.32707c.06663.103.07874.17565.03028.25439a.23111.23111,0,0,0-.01211.18776.54786.54786,0,0,1,.03028.24228c-.01211.09085-.03028.2665-.04239.3937a.75916.75916,0,0,1-.06057.26045.89416.89416,0,0,0,.109.36341c.103.23622.13325.36947.09691.46638a1.225,1.225,0,0,0,.37553,1.20533c.06057.06057.09085.13931.07268.16959-.07268.12114.1272.38159.40582.5209.15748.07874.29679.1817.29679.2241a.71848.71848,0,0,0,.103.33919.385.385,0,0,1,.04846.2665.45225.45225,0,0,0,.18171.424,1.22535,1.22535,0,0,1,.23621.3513,1.40054,1.40054,0,0,0,.321.43609c.09085.07269.24833.212.3513.315a2.75786,2.75786,0,0,0,.92065.51484.60477.60477,0,0,1,.25439.19382.73962.73962,0,0,0,.27862.20594.51056.51056,0,0,1,.20593.11508.78512.78512,0,0,0,.38159.12114c.23016.01817.30285-.00606.424-.1272a.31814.31814,0,0,0,.12114-.26045.47233.47233,0,0,1,.13325-.29678c.09086-.103.14537-.21805.1272-.24834s.01817-.11508.07874-.19382c.0848-.109.103-.17565.05451-.25439a.55866.55866,0,0,1-.01817-.29073c.02423-.103.01211-.17565-.01817-.17565-.109,0-.3937-.56935-.40581-.80557a.655.655,0,0,0-.212-.55724.99531.99531,0,0,1-.18171-.3089.39462.39462,0,0,0-.12114-.20593c-.07268-.07269-.109-.15143-.09085-.18171s-.05452-.103-.15748-.16354c-.20594-.12114-.4361-.44821-.40582-.58146.01212-.04846-.0424-.13931-.11508-.19988a.56741.56741,0,0,1-.15142-.20593.78621.78621,0,0,0-.19382-.24834.67257.67257,0,0,1-.18777-.27861.6601.6601,0,0,0-.11508-.27257.40835.40835,0,0,1-.07268-.321.39737.39737,0,0,0-.06057-.30285.3424.3424,0,0,1-.05451-.2665.63452.63452,0,0,0-.05451-.32707c-.07874-.18777-.07269-.23017.006-.34525.09086-.12719.0848-.13931-.006-.19382a1.13941,1.13941,0,0,1-.33313-.642.864.864,0,0,0-.0848-.321,1.67061,1.67061,0,0,1-.09691-.5754,2.41759,2.41759,0,0,0-.28468-1.2659.545.545,0,0,1-.04239-.30284c.05451-.37553.04845-.43-.03029-.55724a.33737.33737,0,0,1-.03634-.27256,1.28779,1.28779,0,0,0-.02423-.81768.36186.36186,0,0,1-.03634-.32708c.04846-.109.03029-.16353-.11508-.30284-.12114-.1272-.16354-.212-.13325-.28468a2.10579,2.10579,0,0,0,.06057-.54512c.01211-.3937.03028-.46032.16959-.59358a.52336.52336,0,0,0,.16959-.25439,1.39313,1.39313,0,0,0-.04845-.7026.20013.20013,0,0,1-.00606-.23622,1.75056,1.75056,0,0,0,.109-.636,2.15433,2.15433,0,0,1,.03028-.55724,5.33354,5.33354,0,0,0-.01817-1.3628C13.4695,9.312,13.29991,9.26962,13.14243,9.421Z"/>

</g>
</svg>
