<?xml version="1.0" encoding="UTF-8"?>
<svg xmlns="http://www.w3.org/2000/svg"
     version="1.1"
     width="35.65441638mm"
     height="74.94300739mm"
     viewBox="0.00000000 0.00000000 101.06771696 212.43685482">

<g transform="scale(4.28563383)">   <defs>
      <style type="text/css"><![CDATA[
      .a {
        stroke: #000;
        stroke-linecap: round;
        stroke-linejoin: round;
        stroke-width: 0.01px;
      }
    ]]></style>
   </defs>
   <path class="a"
         d="M23.22813.094a.74544.74544,0,0,1-.25439.2241,3.12217,3.12217,0,0,0-.44821.32708,2.95269,2.95269,0,0,1-.46638.32707.6592.6592,0,0,0-.33313.33313.602.602,0,0,1-.23016.27862.73683.73683,0,0,0-.26045.25439,1.814,1.814,0,0,1-.424.3937,1.29288,1.29288,0,0,0-.46033.51484,1.35043,1.35043,0,0,1-.57541.58147c-.80556.51483-.87219.56935-.87219.66626a.50156.50156,0,0,1-.09692.23622.32437.32437,0,0,0-.05451.26044.911.911,0,0,1-.12719.49667,1.80148,1.80148,0,0,0-.20594.84191c.006.06057.006.19988.01211.30285a3.34243,3.34243,0,0,1-.12109,1.21136.45724.45724,0,0,0-.03028.424c.06662.24228.06057.26046-.13931.46033a.70046.70046,0,0,0-.20594.321,1.76551,1.76551,0,0,1-.19382.49667c-.23622.45427-.35735.77528-.315.84191.01817.02423-.03028.109-.109.18777a4.50875,4.50875,0,0,0-.59358.78135c-.04845.09085-.18171.29073-.29073.44821a1.67121,1.67121,0,0,0-.24833.533,1.59512,1.59512,0,0,1-.24228.52089c-.103.15142-.25439.36947-.33313.49061a1.35732,1.35732,0,0,1-.315.32707,2.48426,2.48426,0,0,0-.3513.30285,5.46465,5.46465,0,0,1-.46032.39975,4.68778,4.68778,0,0,0-.527.46639c-.218.2241-.27256.25438-.37552.19382a.53937.53937,0,0,1-.18777-.18172c-.0848-.15748-.44215-.218-.78134-.12718a.758.758,0,0,1-.59963-.05452,1.15985,1.15985,0,0,0-.36948-.09691.565.565,0,0,1-.2665-.02423c-.19988-.04239-.28467-.01817-.62386.15748-.4361.22411-.5209.218-.73894-.07874l-.1272-.16959-.18171.109a.38793.38793,0,0,1-.24833.07268,3.37444,3.37444,0,0,0-1.07813.61175A1.525,1.525,0,0,1,7.92224,15a.90968.90968,0,0,0-.33919.15143c-.20593.16353-.424.03028-.36947-.218.00606-.03634.02423-.11508.03634-.18171a.87879.87879,0,0,1,.24834-.32707A5.6631,5.6631,0,0,0,8.637,13.20718c.05451-.103.12114-.18171.15142-.18171s.103-.09085.15748-.19988a2.56159,2.56159,0,0,1,.27256-.37553,2.15852,2.15852,0,0,0,.28468-.3937c.06056-.11508.18776-.3513.28467-.51482a1.9481,1.9481,0,0,0,.18776-.45428c.01212-.0848.0424-.29072.07269-.46033a14.51512,14.51512,0,0,0,0-2.05329,1.30966,1.30966,0,0,0-.15748-.33313A.40314.40314,0,0,1,9.84236,7.756c.02423-.05451-.04845-.23015-.16959-.41793A1.13629,1.13629,0,0,0,9.17,6.87773a.94642.94642,0,0,1-.4361-.38767.8896.8896,0,0,0-.32708-.315c-.20593-.08479-.40581-.37551-.36341-.53906.0424-.16959-.0848-.35736-.32707-.45427A1.48874,1.48874,0,0,0,7.462,5.09088a1.14419,1.14419,0,0,0-.27862.50878.672.672,0,0,1-.43.39976c-.04846,0-.0848.05452-.0848.11509,0,.103-.09691.23621-.60569.848a.53429.53429,0,0,0-.12114.218.51237.51237,0,0,1-.109.218,1.32385,1.32385,0,0,0-.18171.39371.9864.9864,0,0,1-.19382.35736.38238.38238,0,0,0-.12114.16959,4.909,4.909,0,0,1-.533.84191.9436.9436,0,0,0-.07268.67838.772.772,0,0,0,.3513.24227,5.10565,5.10565,0,0,1,1.26589.99334c.103.09691.13931.1817.12114.2665a.36664.36664,0,0,0,.02422.24243.23429.23429,0,0,1-.01211.24227,2.87458,2.87458,0,0,0-.0848.73289c-.00606.54512-.01817.6178-.14537.71471-.07268.06057-.12113.13326-.103.16354a.97785.97785,0,0,1-.1272.38159,2.34729,2.34729,0,0,0-.16959.43.76746.76746,0,0,1-.18777.28467,1.75778,1.75778,0,0,0-.29678.533c-.14537.41793-.38159.60569-.73895.59358a2.6459,2.6459,0,0,0-.71471.17565,2.19142,2.19142,0,0,1-1.15082.15748,1.15658,1.15658,0,0,0-.751.14536,1.502,1.502,0,0,1-.3513.18777c-.19988.07874-.26045.13931-.26045.24227a.7597.7597,0,0,1-.15142.33918A4.28414,4.28414,0,0,0,.72067,17.9558a1.373,1.373,0,0,1-.45427.81768c-.212.18776-.26045.27257-.26045.44216a.35976.35976,0,0,0,.18171.33918.67884.67884,0,0,0,.25439.13325.55656.55656,0,0,1,.218.09085.20488.20488,0,0,0,.25439.0303.23924.23924,0,0,1,.19987-.01817,2.015,2.015,0,0,0,.61781.07268,2.57,2.57,0,0,0,.636-.09692,2.26093,2.26093,0,0,1,.30282-.07267,2.53247,2.53247,0,0,0,.424-.09692c.18171-.05451.38765-.109.46033-.12113a1.97737,1.97737,0,0,0,.44215-.18171.95988.95988,0,0,1,.41187-.12719,2.52128,2.52128,0,0,0,1.07208-.35736,1.62889,1.62889,0,0,1,.46032-.18171,2.53957,2.53957,0,0,0,1.01756-.49666A.50214.50214,0,0,0,7.0925,17.865c0-.18171.33919-.50272.47244-.44821a.6672.6672,0,0,0,.67232-.05451l.32707-.15142.40582.20593a1.47275,1.47275,0,0,1,.44821.30285c.06662.18776-.19382.51483-.58147.72682a1.55605,1.55605,0,0,0-.38158.41793,1.40239,1.40239,0,0,1-.3089.36342.09833.09833,0,0,0-.06663.12113.29959.29959,0,0,1-.07268.23017,3.48286,3.48286,0,0,0-.26651.44821,1.83881,1.83881,0,0,1-.25439.38764c-.07268.06057-.09085.13931-.06662.27256a.79419.79419,0,0,1-.05451.41793.50588.50588,0,0,0-.06057.28467,1.13174,1.13174,0,0,1,.06057.34525c.05451.5754.103.86008.16353.89642A2.97439,2.97439,0,0,1,8.001,23.98849c-.0424.66626-.03028.83585.07268,1.04179.06057.12719.09691.23016.07874.23016s.01817.103.0848.23016a.66357.66357,0,0,1,.06663.49667.53409.53409,0,0,0,.01211.34524.83914.83914,0,0,1,.0848.29073.92254.92254,0,0,0,.11508.35129.21034.21034,0,0,1,.03028.22411.22814.22814,0,0,0,.01212.20594,1.64789,1.64789,0,0,1,.07874.51483,4.68808,4.68808,0,0,0,.109.745,1.29079,1.29079,0,0,1-.04845.89036,1.18034,1.18034,0,0,0-.03029.41792,2.38879,2.38879,0,0,1-.109,1.169c-.13325.36342-.14537,1.09024-.01817,1.13265.15142.04845.23622.35736.23622.89036.00605.29678.01817.81162.02422,1.13265a3.47,3.47,0,0,1-.01817.69654.33325.33325,0,0,0,.04846.24228c.06662.0969.07268.1817.02423.36341a1.91543,1.91543,0,0,0-.04846.50273,2.74047,2.74047,0,0,1-.02423.54512.84251.84251,0,0,0,.03029.424,1.224,1.224,0,0,1-.05451.90854c-.09086.18171-.103.36341-.09692,1.45366,0,.68442.01818,1.41732.03635,1.63536a5.24686,5.24686,0,0,1,.02422.54513,2.9806,2.9806,0,0,0,.0424.81768,1.1363,1.1363,0,0,1,.03029.30284c-.00606.06663-.01817.24228-.03029.3937a4.36585,4.36585,0,0,1-.07874.51484.99193.99193,0,0,0,.06663.636,2.13552,2.13552,0,0,1,.11508.75711c-.00606.19988-.01817.43-.01817.51484a3.395,3.395,0,0,0,.02423.3937,2.18568,2.18568,0,0,1,.03028.33313c0,.04845.00606.20593.00606.3513a.97963.97963,0,0,1-.1272.49666l-.13325.23017.218.44821a6.3081,6.3081,0,0,1,.28467.67231,3.6501,3.6501,0,0,0,.26045.55724.88363.88363,0,0,0,.45427.44216c.315.1393.57541.109.527-.05452-.02423-.07268.02423-.17565.13931-.29679a.41254.41254,0,0,0,.15142-.44215,1.07984,1.07984,0,0,1,.15748-.66626,1.06545,1.06545,0,0,0,.15142-.47244c-.07268-.12114.109-.39976.43-.64809.26044-.20593.33313-.30284.34524-.44215.00606-.09691.01211-.25439.01817-.35736a.57573.57573,0,0,1,.07874-.26045,1.612,1.612,0,0,0,.16354-.33918,1.954,1.954,0,0,1,.218-.4361,5.88119,5.88119,0,0,0,.30284-.51484c.19988-.36947.19988-.36341-.07874-1.20532a4.54021,4.54021,0,0,1-.20593-.81769,4.44542,4.44542,0,0,0-.06057-.51484,2.79838,2.79838,0,0,1,.02422-1.08418.56246.56246,0,0,0-.01211-.424c-.07874-.18776-.07874-.321,0-.82373A2.96307,2.96307,0,0,0,12.0833,38.192a.334.334,0,0,1-.0424-.3513,1.60416,1.60416,0,0,0-.07268-.95094.93927.93927,0,0,1-.06057-.48455,4.20845,4.20845,0,0,0,.03028-.51483V35.315c0-.93882-.00605-1.593-.01817-1.93821a1.8857,1.8857,0,0,1,.0848-.70866,1.40818,1.40818,0,0,0,.03634-.86614,4.53435,4.53435,0,0,1-.12719-1.1811,2.90864,2.90864,0,0,0-.06663-.69655.773.773,0,0,1,.13325-.70866c.15748-.27256.15748-.28467.0848-.72682a4.26382,4.26382,0,0,0-.16354-.66626.59049.59049,0,0,1-.06662-.29073.19465.19465,0,0,0-.01818-.15142.26357.26357,0,0,1,.01212-.212.29748.29748,0,0,0,.00606-.24835.70236.70236,0,0,1-.018-.32708.73383.73383,0,0,0-.02422-.35129.32987.32987,0,0,1,.00605-.27256c.06663-.14538.01212-.321-.17565-.58148-.09085-.13324-.09085-.15748.01817-.4058a.5882.5882,0,0,0,.06057-.40581,3.572,3.572,0,0,1-.05451-.62992,2.11324,2.11324,0,0,0-.07268-.62386c-.03634-.07269-.05451-.14537-.03634-.16354.01817-.02423.00605-.07268-.03634-.12114-.07874-.09691-.09692-.2665-.13326-1.41126-.01211-.44821-.03634-.92065-.05451-1.04179-.03028-.218-.20593-.52695-.30284-.533-.103,0-.34525-.30285-.30891-.38765a1.06814,1.06814,0,0,0-.20593-.46638c-.27862-.4361-.26651-.53906.103-.79345a.93007.93007,0,0,0,.27256-.29074l.16353-.32707a1.26806,1.26806,0,0,1,.55724-.424,1.69383,1.69383,0,0,0,.58146-.4361,1.36836,1.36836,0,0,1,.59964-.52089,1.24762,1.24762,0,0,0,.51483-.13326.59656.59656,0,0,0,.26651-.19382.789.789,0,0,1,.3513-.23016,2.23726,2.23726,0,0,0,.533-.36341c.12113-.12114.25439-.19988.30284-.18171.05451.01817.12114-.06057.19988-.22411.11508-.26044.50272-.59963.68443-.59963.05451,0,.17565-.103.27256-.23016a2.96493,2.96493,0,0,1,.3513-.36948c.12114-.09691.16354-.17565.13931-.24833-.0424-.14536.14537-.34524.37553-.39975a1.16306,1.16306,0,0,0,.32707-.15748.75747.75747,0,0,1,.26045-.13326.87774.87774,0,0,0,.29679-.19382,2.875,2.875,0,0,1,.37553-.29073,3.80854,3.80854,0,0,0,.81162-1.4476c.03634-.09085.09086-.16354.1272-.16354.103,0,.30284-.46638.30284-.7026,0-.18776.0424-.2665.27257-.47244a1.11365,1.11365,0,0,0,.27256-.315.99986.99986,0,0,1,.1817-.30284.94985.94985,0,0,0,.18171-.321,2.7,2.7,0,0,1,.53907-.81768.40923.40923,0,0,0,.12719-.26651.70055.70055,0,0,1,.26045-.39975,5.163,5.163,0,0,0,1.16292-2.30163.56433.56433,0,0,1,.12114-.218.42426.42426,0,0,0,.09086-.24227.81443.81443,0,0,1,.13931-.35736c.61174-.93276.7026-1.10842.67837-1.35675a1.28318,1.28318,0,0,1,.103-.47244,1.33625,1.33625,0,0,0,.103-.33313.6312.6312,0,0,1,.03013-.20593.595.595,0,0,0-.01212-.30891.30067.30067,0,0,1,0-.26044.26633.26633,0,0,0-.00605-.26045.24481.24481,0,0,1,.01217-.28467.32009.32009,0,0,0,.02423-.30891c-.03029-.103-.06663-.218-.07874-.26044C23.44013-.02717,23.27053-.015,23.22813.094Z"/>

</g>
</svg>
