<?xml version="1.0" encoding="UTF-8"?>
<svg xmlns="http://www.w3.org/2000/svg"
     version="1.1"
     width="33.98055037mm"
     height="23.89990416mm"
     viewBox="0.00000000 0.00000000 96.32286930 67.74769498">

<g transform="scale(5.31256553)">   <defs>
      <style type="text/css"><![CDATA[
      .a {
        stroke: #000;
        stroke-linecap: round;
        stroke-linejoin: round;
        stroke-width: 0.01px;
      }
    ]]></style>
   </defs>
   <path class="a"
         d="M7.8475.08223a1.33174,1.33174,0,0,0-.33918.1817.69387.69387,0,0,1-.23622.1272A1.25523,1.25523,0,0,0,6.8542.694c-.321.30891-.62386.56935-1.07813.93882A4.57307,4.57307,0,0,0,4.63734,2.717a4.93512,4.93512,0,0,0-.642,1.01756.679.679,0,0,1-.24228.29073c-.07268.01817-.12719.06057-.12719.09691a2.71466,2.71466,0,0,1-.5209.62387,1.294,1.294,0,0,0-.26045.41792.54052.54052,0,0,1-.1817.27862.87777.87777,0,0,0-.212.36342A1.17592,1.17592,0,0,1,2.263,6.1755a2.83217,2.83217,0,0,0-.3089.47244,3.78321,3.78321,0,0,1-.33313.527,2.60552,2.60552,0,0,0-.26045.527,1.8833,1.8833,0,0,1-.36341.62386.83038.83038,0,0,0-.218.29679A2.14917,2.14917,0,0,1,.664,8.998a6.53769,6.53769,0,0,0-.33313,1.14475.57012.57012,0,0,1-.103.24834.55426.55426,0,0,0-.06057.32707,1.25873,1.25873,0,0,1-.0848.46032A.86451.86451,0,0,0,.349,12.22633a3.43927,3.43927,0,0,0,.4361.37553,1.3821,1.3821,0,0,0,.93276.109c.16959-.03028.44215-.07268.60569-.09085a1.07277,1.07277,0,0,0,.44821-.15748.717.717,0,0,1,.40581-.109.83391.83391,0,0,0,.48461-.15143,1.473,1.473,0,0,1,.44215-.18776,1.96669,1.96669,0,0,0,.89642-.4361,1.11513,1.11513,0,0,1,.424-.25439,1.57175,1.57175,0,0,0,.56935-.36947c.27862-.29679.48455-.37553.76923-.30285a3.12438,3.12438,0,0,0,.70865.05452,1.61548,1.61548,0,0,0,.79952-.14537c.25439-.12114.33918-.13325.46032-.07874.1272.05451.16959.0424.3089-.09691.0848-.0848.18777-.13931.218-.12114a.94083.94083,0,0,0,.36947-.05451.87611.87611,0,0,1,.36948-.06057,1.4264,1.4264,0,0,0,.77528-.26045.86665.86665,0,0,1,.27862-.13931.12179.12179,0,0,0,.103-.08479.5134.5134,0,0,1,.2665-.15748,2.34458,2.34458,0,0,0,.41187-.18171.56182.56182,0,0,1,.28467-.07874,1.033,1.033,0,0,0,.36342-.04845,3.15084,3.15084,0,0,1,.533-.0848,1.89839,1.89839,0,0,0,.48455-.109,2.553,2.553,0,0,1,.4846-.13328,1.32452,1.32452,0,0,0,.40582-.13325.339.339,0,0,1,.212-.06663.89459.89459,0,0,0,.3513-.06662,1.76868,1.76868,0,0,1,.60569-.07874,2.60667,2.60667,0,0,0,.97516-.05451.6489.6489,0,0,1,.24833-.05452.4798.4798,0,0,0,.2544-.09085.48657.48657,0,0,1,.2241-.09085c.05451,0,.15748-.09086.23016-.19988.06663-.103.15143-.23622.18171-.28468a.98048.98048,0,0,0,.09691-.26044.78807.78807,0,0,1,.19382-.33313c.13931-.13931.16354-.212.16354-.527,0-.47244-.103-.72078-.38159-.88431-.1817-.11508-.29678-.13326-.73894-.1272a3.08906,3.08906,0,0,0-.78134.103,1.63617,1.63617,0,0,1-.41793.09085,1.07173,1.07173,0,0,0-.39975.15143.987.987,0,0,1-.41187.15142,1.12786,1.12786,0,0,0-.4361.15748c-.15142.08479-.29679.13931-.32707.11508a1.67216,1.67216,0,0,0-.533.19988,1.63883,1.63883,0,0,1-.76317.24227.659.659,0,0,0-.47244.16354.69107.69107,0,0,1-.36342.15142,4.43341,4.43341,0,0,0-.93276.33919c-.75106.33919-.75711.33919-1.06.2665a1.31448,1.31448,0,0,0-.49061-.03634.59078.59078,0,0,1-.55724-.2241c-.03634-.09086.24228-.527.33313-.527a1.17631,1.17631,0,0,0,.41187-.44822A3.56216,3.56216,0,0,1,10.05225,6.03a1.168,1.168,0,0,0,.24833-.82374c-.00606-.218-.01211-.7874-.01817-1.272a2.39924,2.39924,0,0,0-.103-1.01756,1.12768,1.12768,0,0,1-.09691-.54512,1.903,1.903,0,0,0-.424-1.16293A2.75088,2.75088,0,0,0,8.5501.25788.98164.98164,0,0,1,8.223.08223C8.1382-.02074,8.1382-.02074,7.8475.08223ZM6.91474,5.3154a.9822.9822,0,0,1-.04846.90248.91776.91776,0,0,0-.11508.47243c.0424.17565-.0424.34525-.34524.66021-.13325.13931-.321.32707-.41187.43a1.50667,1.50667,0,0,0-.26651.3937,1.53289,1.53289,0,0,1-.24227.37553c-.17565.19382-.33313.16959-.75712-.09691-.40581-.25439-.3937-.44822.04846-1.03574A7.72405,7.72405,0,0,0,5.243,6.59942a1.89221,1.89221,0,0,1,.4785-.69654,1.94589,1.94589,0,0,0,.424-.4361C6.49075,4.98832,6.733,4.93987,6.91474,5.3154Z"/>

</g>
</svg>
