<?xml version="1.0" encoding="UTF-8"?>
<svg xmlns="http://www.w3.org/2000/svg"
     version="1.1"
     width="6.79589442mm"
     height="45.95996850mm"
     viewBox="0.00000000 0.00000000 19.26395960 130.28023042">

<g transform="scale(5.48693194)">   <defs>
      <style type="text/css"><![CDATA[
      .a {
        stroke: #000;
        stroke-linecap: round;
        stroke-linejoin: round;
        stroke-width: 0.01px;
      }
    ]]></style>
   </defs>
   <path class="a"
         d="M1.09524.30784a2.1702,2.1702,0,0,0-.64809.76923,2.39263,2.39263,0,0,1-.34524.51484C.02317,1.6343.005,1.75544.005,2.15523c0,.44215.01817.52089.11508.57541.16354.08479.19988.23016.218.91459a2.17176,2.17176,0,0,0,.11508.76317.29262.29262,0,0,1,.03029.2665,1.21784,1.21784,0,0,0-.02423.46633,2.84142,2.84142,0,0,1-.03029.6602c-.04845.19991-.04239.2968.006.35739a.68387.68387,0,0,1,.097.30284,1.40829,1.40829,0,0,0,.09686.38157A3.66782,3.66782,0,0,1,.68943,8.00012C.67732,8.5513.67126,9.06613.67126,9.15093c.00606.0848.01817.52089.03028.96911a22.89685,22.89685,0,0,0,.14537,2.47727,1.35888,1.35888,0,0,1,.01817.48455,1.40833,1.40833,0,0,0-.03028.4785,1.50048,1.50048,0,0,1-.04846.50878A2.45148,2.45148,0,0,0,.76817,15.2563a.38679.38679,0,0,1,.03029.3089,3.31352,3.31352,0,0,0-.03635,1.21744.83322.83322,0,0,1,.06057.33313.98651.98651,0,0,0,.07874.36947.22812.22812,0,0,1,.01212.20593.95678.95678,0,0,0-.01817.424,3.94093,3.94093,0,0,1-.00606.9691c-.01817.24834-.03634.4785-.03634.51484-.00606.03028,0,.218.00605.40581a.86962.86962,0,0,1-.09691.50878,1.89321,1.89321,0,0,0-.12113.89643,2.4356,2.4356,0,0,1-.23017,1.2841.76626.76626,0,0,0,.06663.854.53239.53239,0,0,0,.86008-.06057,2.42582,2.42582,0,0,0,.424-1.13265.59623.59623,0,0,1,.109-.3089c.23016-.30284.26045-.56935.19382-1.599a3.5301,3.5301,0,0,1,.06057-.3937c.03634-.18171.07874-.39976.09085-.48455A2.57138,2.57138,0,0,1,2.3369,19.157a.50652.50652,0,0,0,.03634-.36342,2.15591,2.15591,0,0,1,.01212-.90248,1.8244,1.8244,0,0,0,.07874-.45427c.01817-.20593.04845-.46638.06056-.56329.01818-.103.03635-.23622.0424-.30285a2.06012,2.06012,0,0,1,.5633-1.08418c.39975-.4785.39975-.4785.3513-.75712a2.40344,2.40344,0,0,1,0-.854l.02422-.33313-.59963-.61175c-.50878-.52089-.59358-.62992-.55724-.75711a4.758,4.758,0,0,0,.01212-1.24167,1.47716,1.47716,0,0,1,.01211-.48455c.09086-.54512.09691-.64809.0424-.79951a.35.35,0,0,1,.01211-.26045.23034.23034,0,0,0-.01211-.25439,3.32754,3.32754,0,0,1-.0848-.87825,5.71379,5.71379,0,0,0-.05451-.79346A.4018.4018,0,0,1,2.31267,7.231a1.39317,1.39317,0,0,0,.1272-.67232c-.00606-.46638-.00606-.642,0-1.10236v-.636c0-.103.00605-.41187.02423-.69655.03028-.58146.03028-.75711.006-1.805-.01817-.636-.006-.76923.07874-.87826.103-.12113.103-.13931-.01817-.29073C2.40958.98015,2.39141.82874,2.4641.39263c.01818-.1454.01212-.2665-.02422-.29072A2.894,2.894,0,0,0,1.9311.03528L1.48894.005Z"/>

</g>
</svg>
