<?xml version="1.0" encoding="UTF-8"?>
<svg xmlns="http://www.w3.org/2000/svg"
     version="1.1"
     width="38.41007034mm"
     height="27.18414275mm"
     viewBox="0.00000000 0.00000000 108.87894359 77.05747510">

<g transform="scale(4.67561906)">   <defs>
      <style type="text/css"><![CDATA[
      .a {
        stroke: #000;
        stroke-linecap: round;
        stroke-linejoin: round;
        stroke-width: 0.01px;
      }
    ]]></style>
   </defs>
   <path class="a"
         d="M9.25644.10226c-.15748.05451-.30285.14536-.315.19987a.6212.6212,0,0,1-.23013.22411A3.684,3.684,0,0,0,8.045,1.029a.65623.65623,0,0,1-.23016.1696c-.02423,0-.09085.07874-.13931.17565a1.29283,1.29283,0,0,1-.38158.35735,1.3712,1.3712,0,0,0-.81163,1.41732c.01211.17565.50272.47244.81163.4785a.88794.88794,0,0,0,.33313-.03029,1.34078,1.34078,0,0,1,.46032.03029c.34525.06662.39976.06057.49667-.03029.0848-.08479.19988-.103.62386-.09691.28467.00606.56329.00606.61175,0s.3513.00606.67837.03029a1.68984,1.68984,0,0,0,.71472-.03029.2198.2198,0,0,1,.2665.01817.89814.89814,0,0,0,.315.12114,2.27965,2.27965,0,0,1,.2665.06057,2.11789,2.11789,0,0,0,.2544.06663.98534.98534,0,0,1,.47243.6602c0,.12114.533.40581.75106.40581.16354,0,.321-.1817.36947-.41792a1.42548,1.42548,0,0,1,.15143-.34525c.07268-.11508.11508-.20593.09691-.20593-.02423,0,0-.07874.05451-.18171a1.33491,1.33491,0,0,0,.11508-.36341.46535.46535,0,0,1,.13325-.27257c.06663-.04845.09691-.09085.07268-.09085s.01212-.109.07874-.24228c.13931-.2665.19383-.67837.09691-.73894-.06056-.03634-.09691-.29073-.103-.68443-.00606-.14537-.06663-.23016-.315-.424a2.81451,2.81451,0,0,0-.87825-.51484A1.88754,1.88754,0,0,1,13.048.21734,2.56792,2.56792,0,0,0,12.00022.06591c-.41793-.01817-.83586-.02417-.93883-.01817a2.51219,2.51219,0,0,1-.30284,0A4.2325,4.2325,0,0,0,9.25644.10226Z"/>
   <path class="a"
         d="M16.72461,7.0253c-.18171.02423-.38159.04846-.4361.04846-.06057-.00606-.19988-.01211-.30285-.01211a3.1724,3.1724,0,0,0-.745.07268.54146.54146,0,0,1-.23622-.03029.52871.52871,0,0,0-.37553.04846.51046.51046,0,0,1-.29073.06663,1.3542,1.3542,0,0,0-.40581.03028,4.74637,4.74637,0,0,1-.59963.0848,3.61783,3.61783,0,0,0-.6057.12719,4.27908,4.27908,0,0,1-.93882.1272,3.88122,3.88122,0,0,0-.77528.08479.80221.80221,0,0,1-.45428.00606A2.014,2.014,0,0,0,9.844,7.66734a1.45634,1.45634,0,0,0-.30285.2241,2.61945,2.61945,0,0,1-1.21743.62992,4.58555,4.58555,0,0,0-.89642.315,4.04762,4.04762,0,0,1-.745.27862.78751.78751,0,0,0-.315.109,1.79979,1.79979,0,0,1-.76317.36947,1.664,1.664,0,0,0-.99939.36342,1.01015,1.01015,0,0,1-.3089.20593.56654.56654,0,0,0-.19988.1696,1.99137,1.99137,0,0,1-.49667.34524,3.15,3.15,0,0,0-.69655.52695,3.237,3.237,0,0,1-.52694.44216,5.01438,5.01438,0,0,0-.97517.93882,1.94538,1.94538,0,0,1-.2544.315,5.58753,5.58753,0,0,0-.38157.44215,1.77477,1.77477,0,0,1-.32709.30285,1.13893,1.13893,0,0,0-.43.9691.58534.58534,0,0,1,.02423.30285c-.07268.28467.51484.93276.87825.97515.0848.01211.38766.04846.67232.0848s.70866.07874.93883.09692c.23621.01816.5209.05451.636.07873a1.23029,1.23029,0,0,0,.48455-.03029,1.22521,1.22521,0,0,1,.57542-.01211,3.03017,3.03017,0,0,0,1.06.01817c.636-.04846,1.21743-.0848,1.381-.0848.07268,0,.23621,0,.36342.00606a3.99238,3.99238,0,0,0,1.16292-.13325,1.80718,1.80718,0,0,1,.533-.07268,3.67574,3.67574,0,0,0,1.31435-.30891.95628.95628,0,0,1,.27256-.08479c.0848-.00606.218-.02423.30285-.03635a.413.413,0,0,1,.24833.02423,1.33314,1.33314,0,0,0,.60569-.13325,7.53505,7.53505,0,0,1,1.169-.33919,1.78725,1.78725,0,0,0,.51485-.29073c.50877-.38158.95094-.59358,1.0963-.51484.09086.04846.1272.03635.16959-.03634a.31594.31594,0,0,1,.23016-.12114,3.19142,3.19142,0,0,0,.84191-.18776,1.79491,1.79491,0,0,1,.49061-.09691,1.72117,1.72117,0,0,0,.55723-.1272,4.25479,4.25479,0,0,1,1.25378-.16353c.06663.00606.37553.02423.68444.03028a1.286,1.286,0,0,1,.79345.17565.93253.93253,0,0,1,.37549,1.0054,1.78428,1.78428,0,0,0-.06663.87825.64782.64782,0,0,1-.03634.39976c-.11508.26045-.109.424.01817.51484.0848.06056.12114.06056.18777-.01212a.22374.22374,0,0,1,.18776-.05451c.06663.01817.16354-.07874.33313-.34524a5.04045,5.04045,0,0,1,.41793-.5633.74065.74065,0,0,0,.19382-.41187,1.85856,1.85856,0,0,1,.24228-.58146,1.08188,1.08188,0,0,0,.18776-.45427c-.02423-.07268.18776-.39975.33313-.51484a.64389.64389,0,0,0,.0848-.24227,2.75355,2.75355,0,0,1,.37552-.86614c.05452-.05451.07874-.12114.06057-.13931-.05451-.06057.1696-.45427.35736-.62992a1.56671,1.56671,0,0,0,.43-.66626,1.10075,1.10075,0,0,1,.14537-.33313,1.20109,1.20109,0,0,0,.15748-.3937c.006-.08479.01817-.218.03028-.29679.01817-.12719-.03028-.16959-.33313-.30284-.33313-.13931-.35736-.14537-.55723-.04846a.447.447,0,0,1-.37553.0424,4.17937,4.17937,0,0,0-.73289-.07874c-.66626-.03028-.75711-.08479-.77528-.50878A4.75442,4.75442,0,0,0,20.383,8.01258a2.354,2.354,0,0,0-.41187-.62992.939.939,0,0,1-.19988-.16959c-.109-.103-.17565-.1272-.24833-.0848a1.97346,1.97346,0,0,1-.8298-.02423c-.13325-.01817-.51484-.04239-.848-.05451a5.71963,5.71963,0,0,1-.69654-.04845A1.39823,1.39823,0,0,0,16.72461,7.0253ZM15.02867,9.61766a1.0361,1.0361,0,0,0,.71472.00606.75409.75409,0,0,1,.424.0848,1.45233,1.45233,0,0,0,.58752.12113,1.759,1.759,0,0,1,1.00545.218c.13931.13931.14536.19988.01211.32708-.07874.08479-.16354.09691-.41793.06056a.77994.77994,0,0,0-.50878.06057.56605.56605,0,0,1-.33918.06663.46022.46022,0,0,0-.28468.03028.765.765,0,0,1-.60569.0424.46188.46188,0,0,0-.33313.01817.75232.75232,0,0,1-.28467.06057,5.43033,5.43033,0,0,0-2.04118.66626,1.88364,1.88364,0,0,1-.739.14537,2.47262,2.47262,0,0,0-.642.09085c-.06662.03634-.12114.04846-.12114.03634,0-.01817-.09691.03635-.218.11508a.83033.83033,0,0,1-.36342.15143,1.21708,1.21708,0,0,0-.30285.06057,2.75467,2.75467,0,0,1-.62386.09085,4.11861,4.11861,0,0,0-.854.14537,3.15088,3.15088,0,0,1-1.21138.14536,2.8418,2.8418,0,0,0-.69655.0848,5.99724,5.99724,0,0,1-1.51423.16959c-.33313.01817-.62991.03029-.66626.03634-.05451.00606-.36341-.02422-1.06-.09085-.23622-.01817-.41187-.09085-.44822-.18776-.04239-.11509.12114-.27257.28468-.27257.14536,0,.23016-.04845.745-.38764a4.23143,4.23143,0,0,1,.62992-.34524,6.26369,6.26369,0,0,0,.7026-.3513,1.88456,1.88456,0,0,1,.56935-.24834,2.36342,2.36342,0,0,0,.90853-.29678,1.42991,1.42991,0,0,1,.88431-.27256,1.24869,1.24869,0,0,0,.4785-.09692,2.06079,2.06079,0,0,1,.7874-.12113c.03634,0,.19988.01211.36341.02422a1.01637,1.01637,0,0,0,.424-.04239,1.50828,1.50828,0,0,1,.86008-.14537c.09691.0424.16353.03028.27862-.05451.12113-.09691.2241-.11508.65414-.09691,1.21138.0424,1.23561.0424,1.36281-.05452A3.47954,3.47954,0,0,1,15.02867,9.61766Z"/>

</g>
</svg>
