<?xml version="1.0" encoding="UTF-8"?>
<svg xmlns="http://www.w3.org/2000/svg"
     version="1.1"
     width="41.40180079mm"
     height="36.14234026mm"
     viewBox="0.00000000 0.00000000 117.35951921 102.45078154">

<g transform="scale(5.40924245)">   <defs>
      <style type="text/css"><![CDATA[
      .a {
        stroke: #000;
        stroke-linecap: round;
        stroke-linejoin: round;
        stroke-width: 0.01px;
      }
    ]]></style>
   </defs>
   <path class="a"
         d="M19.75654.12008a.59523.59523,0,0,1-.24833.18777c-.09691.04239-.18171.11508-.18171.16353a.48312.48312,0,0,1-.14536.23016c-.13931.13931-.14537.13931-.41793.0424-.25439-.09085-.29073-.09085-.4785,0a4.06024,4.06024,0,0,1-1.16292.33313,1.60888,1.60888,0,0,0-.848.40582,1.10178,1.10178,0,0,1-.39976.218,2.23558,2.23558,0,0,0-1.066.4361.79289.79289,0,0,1-.33313.19988.34132.34132,0,0,0-.23016.06057.90907.90907,0,0,1-.30891.09085,1.488,1.488,0,0,0-.77528.424.60691.60691,0,0,1-.33919.1817,1.41827,1.41827,0,0,0-.533.29074,3.482,3.482,0,0,1-1.02967.6178.64394.64394,0,0,0-.26651.18776,1.161,1.161,0,0,1-.69048.38159.78787.78787,0,0,0-.36342.19382,4.691,4.691,0,0,1-1.0115.72683.92055.92055,0,0,0-.321.218c0,.03028-.09085.09085-.19988.13931a1.71972,1.71972,0,0,0-.43609.3089,2.09424,2.09424,0,0,1-.4361.3089.49927.49927,0,0,0-.28468.29073.36689.36689,0,0,1-.26044.24834,2.15518,2.15518,0,0,0-1.01151.47244,4.70754,4.70754,0,0,1-.67231.46032A3.84444,3.84444,0,0,0,4.79,8.27268a1.57677,1.57677,0,0,1-.30285.218,5.97408,5.97408,0,0,0-1.22349.94488.72751.72751,0,0,1-.50878.41187.56031.56031,0,0,0-.38765.34524,1.2018,1.2018,0,0,1-.34524.22411,6.035,6.035,0,0,0-1.61114,1.5324.85716.85716,0,0,1-.24833.321c-.14537.09691-.15748.13931-.15748.49667v.38764l.37553.38159a3.479,3.479,0,0,1,.81162.99333c.02423.07268.06057.13325.0848.13325a.62928.62928,0,0,1,.19382.22411c.07269.12114.19382.30284.26045.40581a3.40925,3.40925,0,0,0,.315.38764,1.29971,1.29971,0,0,1,.26045.43c.04845.18777.11508.26045.35735.3937a1.28348,1.28348,0,0,1,.46033.41793c.0848.13931.2665.38764.39975.55724a2.03831,2.03831,0,0,1,.30891.54512,1.60166,1.60166,0,0,0,.47849.76923,1.32969,1.32969,0,0,0,.9146.103,1.054,1.054,0,0,0,.73894-.6178c.06057-.13931.18776-.40582.28467-.59358a2.06388,2.06388,0,0,0,.19988-.55118,1.52372,1.52372,0,0,1,.315-.75711.23216.23216,0,0,1,.23622-.01817.89436.89436,0,0,0,.34525.02422c.109-.01817.27256-.04239.35735-.04845a.77982.77982,0,0,0,.32708-.14537.67225.67225,0,0,1,.218-.13325,4.47167,4.47167,0,0,0,1.00545-.73894,1.46253,1.46253,0,0,1,.29073-.23016,4.55072,4.55072,0,0,0,.81769-.67232c.26044-.2665.52089-.44216.59357-.3937.03634.01817.09086-.00606.13326-.06057a3.911,3.911,0,0,1,.99333-.62992.63511.63511,0,0,0,.29073-.15142.61251.61251,0,0,1,.2665-.15142c.04846,0,.0848-.03029.0848-.06057,0-.1272.24833-.30285.43-.30285.212,0,.50878-.218,1.04785-.75711.27256-.27256.34524-.321.55118-.321a2.14256,2.14256,0,0,0,1.33252-.73894c.06662-.0848.36947-.40581.67837-.71472a4.34833,4.34833,0,0,0,.59358-.68443.46481.46481,0,0,1,.212-.20593c.15748-.07874.18171-.07874.32707.03634a.30307.30307,0,0,0,.26651.0848c.09691-.03635.09691-.0424,0-.09691a.52384.52384,0,0,1-.1696-.17565c-.05451-.09692-.03028-.15748.1272-.315.27256-.28468.37553-.46033.33313-.56935a.3418.3418,0,0,1,.03028-.22411,4.94866,4.94866,0,0,1,.89643-.89037,2.18843,2.18843,0,0,0,.40581-.78134.93687.93687,0,0,1,.17565-.37553c.11508-.1817.23622-.39369.27256-.47243a2.18335,2.18335,0,0,1,.18776-.30285A3.41869,3.41869,0,0,0,20.92553,3.73a1.08669,1.08669,0,0,1,.11508-.36947.76786.76786,0,0,0,.07268-.38159c-.01817-.15748.01817-.23622.18777-.41792.218-.23017.30284-.4361.24833-.58147a1.89907,1.89907,0,0,1,.05451-.52695C21.74321.73183,21.719.51984,21.507.3563A.76659.76659,0,0,1,21.289.114c-.03028-.09691-.109-.109-.751-.109S19.81106.01711,19.75654.12008ZM15.17146,5.8378a.477.477,0,0,1,.1272.35131,2.34575,2.34575,0,0,0,.05451.424,1.9117,1.9117,0,0,1-.30285.98122.85007.85007,0,0,0-.08479.3089,1.36233,1.36233,0,0,1-.4361.642c-.02423,0-.04845.03634-.04845.0848a1.16663,1.16663,0,0,1-.212.36341,1.597,1.597,0,0,0-.212.33919,1.16567,1.16567,0,0,1-.38764.61781.46481.46481,0,0,0-.212.20593.36893.36893,0,0,1-.15748.18171.78911.78911,0,0,0-.212.3089,3.81973,3.81973,0,0,1-.90854,1.169c-.81163.79346-1.03573.96911-1.31435,1.03574a.76875.76875,0,0,0-.39976.24833,3.36345,3.36345,0,0,1-.25439.29679,2.89737,2.89737,0,0,1-.82979.56329c-.12114-.07874-.49061.13325-.59358.33919a1.27,1.27,0,0,1-.46033.424,3.34955,3.34955,0,0,0-.59357.46033c-.33313.33313-.72683.533-.88431.44821a.3788.3788,0,0,1-.15748-.23016,2.12921,2.12921,0,0,0-.1272-.33919,1.08765,1.08765,0,0,1-.109-.30285,4.60272,4.60272,0,0,0-.212-.88431c-.03634-.06662-.04846-.12113-.02423-.12113s0-.04846-.04846-.103a2.13607,2.13607,0,0,1-.3513-.73894,1.02835,1.02835,0,0,0-.19987-.37553c-.321-.41793-.35131-.50273-.25439-.642a2.00079,2.00079,0,0,1,.41792-.34524c.321-.212.642-.533.642-.64809,0-.03028.103-.103.23622-.16959.23017-.12114.29679-.18777.73289-.76317a.91473.91473,0,0,1,.36341-.30891A.7023.7023,0,0,0,8.309,9.266a.52587.52587,0,0,1,.33919-.30285,2.56892,2.56892,0,0,0,.86614-.56935,4.0485,4.0485,0,0,1,.99939-.55118,17.08971,17.08971,0,0,0,1.72016-.88431.52744.52744,0,0,1,.22411-.109.96451.96451,0,0,0,.32707-.17565,2.13509,2.13509,0,0,1,.4361-.24228c.24227-.09085.5754-.23622,1.01756-.44821a2.03553,2.03553,0,0,1,.54512-.18171c.11508-.01211.23016-.03028.24833-.03028A.29248.29248,0,0,1,15.17146,5.8378Z"/>

</g>
</svg>
