<?xml version="1.0" encoding="UTF-8"?>
<svg xmlns="http://www.w3.org/2000/svg"
     version="1.1"
     width="48.38926359mm"
     height="38.96580101mm"
     viewBox="0.00000000 0.00000000 137.16637233 110.45425138">

<g transform="scale(5.77949253)">   <defs>
      <style type="text/css"><![CDATA[
      .a {
        stroke: #000;
        stroke-linecap: round;
        stroke-linejoin: round;
        stroke-width: 0.01px;
      }
    ]]></style>
   </defs>
   <path class="a"
         d="M22.51085.13047a4.94308,4.94308,0,0,0-.78134.72077,5.76438,5.76438,0,0,1-.64809.636,2.11788,2.11788,0,0,1-.92671-.49061C20.06991.924,19.82158.712,19.59747.52419,19.19772.1971,19.17955.191,18.8767.21527a1.05326,1.05326,0,0,0-.38764.09691,2.08959,2.08959,0,0,0-.36947.77528.93235.93235,0,0,1-.103.315.80334.80334,0,0,1-.40581.40582,2.46017,2.46017,0,0,0-.41187.26044.50258.50258,0,0,1-.26045.12114c-.16354,0-.26045.27256-.18171.4785a1.07124,1.07124,0,0,1,.04846.41792c-.01212.23622.006.26651.19988.37553a3.64154,3.64154,0,0,0,.56935.21805,1.47092,1.47092,0,0,1,.47849.22411.22522.22522,0,0,0,.22411.07268.67313.67313,0,0,1,.33313.05451.51317.51317,0,0,0,.27256.06663,1.61316,1.61316,0,0,1,.41792.03634,1.49854,1.49854,0,0,0,.57541,0,1.03628,1.03628,0,0,1,.79951.13931A2.26665,2.26665,0,0,1,20.6332,5.406a1.66387,1.66387,0,0,0-.1393.854,2.34647,2.34647,0,0,1-.8359,1.6112c-.29679.26045-.38764.30285-.527.27862a.81885.81885,0,0,0-.49061.1272,2.2615,2.2615,0,0,1-.47849.18776,3.19651,3.19651,0,0,0-.83586.19382.29581.29581,0,0,1-.212.0424,2.2841,2.2841,0,0,0-.56329.03028c-.93277.12114-.93277.12114-1.29012-.0424a1.29111,1.29111,0,0,0-.50878-.14536,2.29388,2.29388,0,0,1-.93883-.29679,1.07373,1.07373,0,0,0-.315-.12114,3.2408,3.2408,0,0,1-.5754-.23622,1.91959,1.91959,0,0,0-.80557-.23622.55752.55752,0,0,0-.53907.218,3.52275,3.52275,0,0,1-.43.35736,6.03689,6.03689,0,0,1-1.1387.56329,1.77308,1.77308,0,0,0-.424.33313,2.65458,2.65458,0,0,1-.3937.33313,19.1065,19.1065,0,0,0-1.8837,1.9685c-.13931.16353-.321.36341-.3937.4361a.46464.46464,0,0,0-.14536.19987,2.43143,2.43143,0,0,1-.20594.44216,1.214,1.214,0,0,1-.424.49061c-.12114.06662-.218.13931-.218.16959a3.46377,3.46377,0,0,1-.59358.67838c-.07268.06662-.2665.24833-.43.39975-.15748.15142-.47244.4361-.7026.636-.2241.19988-.55118.51483-.72077.69654a5.02493,5.02493,0,0,1-1.04785.96911,2.07607,2.07607,0,0,0-.745.59357c-.14536.23622-.27861.33919-.72683.56935-.69048.3513-.84191.46639-.91459.70866-.06057.20594-.05451.23622.12114.424a.85082.85082,0,0,1,.18776.25439c0,.03028.05452,0,.12114-.06663a.43374.43374,0,0,1,.24833-.12114.84965.84965,0,0,0,.36948-.212,1.90756,1.90756,0,0,1,.39975-.29073,1.79717,1.79717,0,0,0,.40581-.28468,2.03161,2.03161,0,0,1,.527-.33313,1.05692,1.05692,0,0,0,.38764-.28467,3.35932,3.35932,0,0,1,.6602-.52695,7.33844,7.33844,0,0,0,.82374-.62386c.15142-.14537.38159-.35736.51484-.47244a2.64068,2.64068,0,0,0,.34524-.37553,1.02024,1.02024,0,0,1,.33919-.29073,1.84869,1.84869,0,0,0,.73289-.8298c.06662-.14537.14536-.26045.17565-.26045a4.29358,4.29358,0,0,0,1.18715-.99939,5.34981,5.34981,0,0,1,.533-.62992A8.35837,8.35837,0,0,0,9.2341,11.30547a3.88658,3.88658,0,0,1,.73894-.87825c.22411-.23622.39976-.36342.48456-.36342a.59926.59926,0,0,0,.315-.15142.98684.98684,0,0,1,.40581-.18171,3.0329,3.0329,0,0,0,.44215-.12719.702.702,0,0,1,.27256-.07874.49751.49751,0,0,0,.24834-.0848c.18776-.09691.19382-.09691.424.0848.1272.09691.38159.27862.56329.3937.315.20593.3513.218.66626.17565a3.26848,3.26848,0,0,1,.47244-.03634.7401.7401,0,0,0,.26045-.05452.94408.94408,0,0,1,.33919-.07268.90471.90471,0,0,0,.3513-.06662,1.97592,1.97592,0,0,1,.72683-.109c.03634,0,.212.01817.3937.03634A2.47427,2.47427,0,0,0,17.0354,9.761c.19988-.03634.46033-.07268.58146-.0848a2.91743,2.91743,0,0,0,.57541-.15142,1.83461,1.83461,0,0,1,.67232-.109.56319.56319,0,0,0,.45427-.11508,3.734,3.734,0,0,1,.52695-.321,4.74453,4.74453,0,0,0,.71471-.4785c.77529-.67232.95094-.86614,1.06-1.175a1.69556,1.69556,0,0,1,.218-.4361,2.05917,2.05917,0,0,0,.212-.35736c.05451-.12113.1272-.2241.16354-.2241a2.22323,2.22323,0,0,0,.46032-1.00545,1.63683,1.63683,0,0,1,.14537-.50878,1.09973,1.09973,0,0,0,.12114-.37553.53237.53237,0,0,1,.08479-.2665A1.7428,1.7428,0,0,0,23.3043,3.171a.49.49,0,0,1,.01212-.28467,1.1386,1.1386,0,0,0,.03028-.47244c-.03634-.3937.09691-.77529.29073-.848a.16254.16254,0,0,0,.09086-.13325.16257.16257,0,0,0-.09086-.13326.86093.86093,0,0,1-.3089-.76317C23.40727.04567,23.02568-.14209,22.51085.13047Z"/>

</g>
</svg>
