<?xml version="1.0" encoding="UTF-8"?>
<svg xmlns="http://www.w3.org/2000/svg"
     version="1.1"
     width="40.60295786mm"
     height="14.13005011mm"
     viewBox="0.00000000 0.00000000 115.09495270 40.05373269">

<g transform="scale(5.77949253)">   <defs>
      <style type="text/css"><![CDATA[
      .a {
        stroke: #000;
        stroke-linecap: round;
        stroke-linejoin: round;
        stroke-width: 0.01px;
      }
    ]]></style>
   </defs>
   <path class="a"
         d="M12.9464.018a11.84342,11.84342,0,0,1-1.9261.09691A3.18915,3.18915,0,0,0,9.77864.26024a5.89831,5.89831,0,0,1-1.28407.315C8.428.50252,7.86465.769,7.69506.95073c-.15142.15748-.20593.1817-.29679.13325s-.13931-.03634-.23016.06057a2.86215,2.86215,0,0,1-.95094.51483,4.82542,4.82542,0,0,0-1.54451.533c-.2665.13326-.47244.20594-.52089.17565A4.051,4.051,0,0,1,3.54,1.65332c-.09691-.1272-.218-.28468-.27256-.33919A1.23655,1.23655,0,0,1,3.116,1.11425,4.01784,4.01784,0,0,0,1.80169.56914.42072.42072,0,0,1,1.56547.5328c-.1696-.07268-.19382-.06663-.36342.09691a1.74065,1.74065,0,0,0-.30284.39976c-.06663.12719-.13931.23016-.1696.23016a1.10571,1.10571,0,0,0-.43.46638.56364.56364,0,0,1-.15748.24228c-.1393.13931-.15142.18776-.12719.54512.03028.40581.0848.51484.2665.53906a1.5548,1.5548,0,0,1,.71472.22411.886.886,0,0,0,.642.24228.89579.89579,0,0,1,.636.37552c.07268.11509.06057.16354-.13326.47244l-.218.3513.1393.34525a2.4583,2.4583,0,0,1,.14537.40581c0,.12114.41793.26651.89642.3089a7.70042,7.70042,0,0,0,1.53846.01817.68439.68439,0,0,1,.6178.26651c.103.12719.212.12719.38765.01211a.38409.38409,0,0,1,.3513-.03028,6.08569,6.08569,0,0,0,.75105.16353c.103.01818.46639.03635.81769.04846a2.93262,2.93262,0,0,1,.99932.15143,2.6158,2.6158,0,0,0,.636.14537,1.16287,1.16287,0,0,1,.3513.05451,3.58375,3.58375,0,0,0,1.1629.11512.77077.77077,0,0,1,.55118.103c.17565.12719.315.13324.67837.01211a.7882.7882,0,0,1,.34525-.04845,1.68445,1.68445,0,0,0,.424-.03029.83275.83275,0,0,1,.48455.01211,1.421,1.421,0,0,0,.46638.07268,1.0561,1.0561,0,0,1,.38159.05452.84617.84617,0,0,0,.424-.06662,6.47552,6.47552,0,0,1,1.84736-.12114,6.70939,6.70939,0,0,0,1.42337-.06663c.55118-.17565,1.169-.51484,1.14476-.642-.02423-.14537.03029-.212.29679-.34525a1.23453,1.23453,0,0,0,.67837-.745c.07269-.23622.06663-.26045-.07268-.44217a4.659,4.659,0,0,0-1.15081-.7874.45527.45527,0,0,1-.25439-.58751c.09085-.32707.07874-.44216-.07269-.59357a.51217.51217,0,0,1-.14536-.23017c0-.13325-.46638-.56935-.65415-.6178a2.54188,2.54188,0,0,1-.89642-.53907,1.38683,1.38683,0,0,0-.49061-.27256A2.758,2.758,0,0,1,15.65384.66a1.54578,1.54578,0,0,0-.69654-.1151A2.02177,2.02177,0,0,1,13.93368.31475a4.71132,4.71132,0,0,0-.636-.23622A1.2133,1.2133,0,0,1,13.0736.024.13561.13561,0,0,0,12.9464.018ZM9.93006,2.38016c.28468.03028.3937.0424,1.02968.15142a2.82712,2.82712,0,0,0,.65414.03634.76875.76875,0,0,1,.50273.09086.57.57,0,0,0,.37552.07873,1.16154,1.16154,0,0,1,.34525-.03634.71758.71758,0,0,0,.29073-.03634c.15142-.103.90854.212,1.1811.48455a.23782.23782,0,0,0,.218.07874,1.68746,1.68746,0,0,1,.81768.48456c.09691.2665-.61175.47849-1.13264.33918a2.51029,2.51029,0,0,0-.52695-.06662h-.6057c-.1817-.00606-.38764,0-.45426.00606a2.11155,2.11155,0,0,1-.45427-.0848.72177.72177,0,0,0-.4361-.03634.33258.33258,0,0,1-.27251-.01215,1.93881,1.93881,0,0,0-.29073-.09085c-.06663-.01211-.23017-.04846-.35736-.07874a.51752.51752,0,0,0-.39976.02423.28115.28115,0,0,1-.24227.03028.16121.16121,0,0,0-.14537-.01817,1.9938,1.9938,0,0,1-.61175.0848,4.76652,4.76652,0,0,1-1.06-.1272,3.69313,3.69313,0,0,0-.424-.08479A.92131.92131,0,0,1,7.362,3.28869c-.03634-.09691.15748-.33313.27256-.33313a.4905.4905,0,0,0,.212-.11508A1.08163,1.08163,0,0,1,8.216,2.683a2.19224,2.19224,0,0,0,.47243-.16353,1.56912,1.56912,0,0,1,.848-.18777C9.603,2.34382,9.77864,2.368,9.93006,2.38016Z"/>

</g>
</svg>
