<?xml version="1.0" encoding="UTF-8"?>
<svg xmlns="http://www.w3.org/2000/svg"
     version="1.1"
     width="13.66719292mm"
     height="17.69512389mm"
     viewBox="0.00000000 0.00000000 38.74163048 50.15945549">

<g transform="scale(4.24914127)">   <defs>
      <style type="text/css"><![CDATA[
      .a {
        stroke: #000;
        stroke-miterlimit: 10;
        stroke-width: 0.15px;
      }
    ]]></style>
   </defs>
   <path class="a"
         d="M1.68314,2.06139a.34918.34918,0,0,0-.10785.17893.75946.75946,0,0,0,.05637.247.65791.65791,0,0,1-.07553.37942l-.3216.76688a2.6405,2.6405,0,0,1-.286.55453c-.11108.15094-.25366.27731-.35827.43283a2.07027,2.07027,0,0,0-.26957.796A16.5355,16.5355,0,0,0,.094,7.18954,2.54458,2.54458,0,0,0,.38914,8.8666a2.57488,2.57488,0,0,0,1.03118.729,4.58186,4.58186,0,0,0,2.3393.75447.60944.60944,0,0,1,.46875.09374c.2.179.04178.45233.18749.75.22883.46744.97608.52255,1.09376.53126a1.93022,1.93022,0,0,0,1.11313-.28779,2.69178,2.69178,0,0,0,1.053-1.07694A19.524,19.524,0,0,0,8.80509,8.29119a1.86313,1.86313,0,0,0,.23654-.85,1.551,1.551,0,0,0-.37945-.86242A4.55968,4.55968,0,0,0,6.86286,5.33764c-1.24094-.58945-1.86621-.69748-1.97824-1.17511a2.15617,2.15617,0,0,1,0-.75A1.79917,1.79917,0,0,1,5.03,2.92068a2.34741,2.34741,0,0,1,.38858-.52451A1.4693,1.4693,0,0,0,5.471.77022C4.3035-1.044,2.517,1.16341,1.68314,2.06139Z"/>

</g>
</svg>
