<?xml version="1.0" encoding="UTF-8"?>
<svg xmlns="http://www.w3.org/2000/svg"
     version="1.1"
     width="26.42777427mm"
     height="39.18496900mm"
     viewBox="0.00000000 0.00000000 74.91336511 111.07551652">

<g transform="scale(6.50698008)">   <defs>
      <style type="text/css"><![CDATA[
      .a {
        stroke: #000;
        stroke-miterlimit: 10;
        stroke-width: 0.15px;
      }
    ]]></style>
   </defs>
   <path class="a"
         d="M4.4842,5.563a2.71672,2.71672,0,0,0,.05726,2.01133c.29154.58435.972,1.03806,2.333,1.94548a2.41427,2.41427,0,0,1,.9805,1.0254,2.01766,2.01766,0,0,1,.167.82353c-.06074,1.6381-2.948,3.12149-3.98139,3.20712a1.24894,1.24894,0,0,0-.5423.15649,1.80219,1.80219,0,0,0-.64406.86c-.5637.96221-2.75623.53169-2.77906.72316A5.30776,5.30776,0,0,0,3.9688,16.89a7.86956,7.86956,0,0,0,3.105-1.39619,10.46948,10.46948,0,0,0,1.47434-1.292,10.70418,10.70418,0,0,0,1.68818-2.09322A5.16092,5.16092,0,0,0,11.30922,9.007,4.92549,4.92549,0,0,0,9.01135,5.52827a3.85441,3.85441,0,0,1-.57566-.34968,5.9794,5.9794,0,0,1-.6371-.57585c-.68238-.654-.79171-.71124-.89544-.74928a1.40672,1.40672,0,0,0-.828-.01668C4.98329,4.09972,4.53023,5.42222,4.4842,5.563Z"/>
   <path class="a"
         d="M7.00157,2.22452c-.82506.74627-.82768,1.15772-.81987,1.28309a.704.704,0,0,0,.24455.52066.84245.84245,0,0,0,.68191.0127c.7634-.18072,1.54365-.281,2.31434-.42753a2.86909,2.86909,0,0,0,.60748-.1426,2.76648,2.76648,0,0,0,.98894-.837,1.26594,1.26594,0,0,0,.41627-.87271,1.50993,1.50993,0,0,0-.34945-.66692C10.93771.86484,10.8728.61,10.73567.38211c-.113-.18778-.20739-.29069-.33384-.30552-.1845-.02163-.31141.18086-.52877.37721A2.95294,2.95294,0,0,1,8.98044.935,8.31611,8.31611,0,0,0,7.00157,2.22452Z"/>

</g>
</svg>
