<?xml version="1.0" encoding="UTF-8"?>
<svg xmlns="http://www.w3.org/2000/svg"
     version="1.1"
     width="32.84312001mm"
     height="45.97519505mm"
     viewBox="0.00000000 0.00000000 93.09866989 130.32342839">

<g transform="scale(3.67920472)">   <defs>
      <style type="text/css"><![CDATA[
      .a {
        stroke: #000;
        stroke-linecap: round;
        stroke-linejoin: round;
        stroke-width: 0.01px;
      }
    ]]></style>
   </defs>
   <path class="a"
         d="M15.92683.07212a2.89425,2.89425,0,0,1-.49667.11508,2.03471,2.03471,0,0,0-.45426.109,1.75463,1.75463,0,0,1-.30285.19988,2.40415,2.40415,0,0,0-.4361.32707c-.09085.09691-.23622.24228-.321.32707a1.552,1.552,0,0,0-.27862.43.81855.81855,0,0,1-.25439.3513,3.19284,3.19284,0,0,0-.49667.69049c-.19382.33919-.4361.72077-.527.854a.69565.69565,0,0,0-.109.854.58821.58821,0,0,0,.19987.218,1.38731,1.38731,0,0,0,.79952-.16959c.16353-.0848.30284-.1272.34524-.09691a1.66222,1.66222,0,0,0,.44215.05451,5.65831,5.65831,0,0,1,1.37492.15142,3.47913,3.47913,0,0,0,.93882.212,5.06268,5.06268,0,0,1,.73895.32708c.636.315.72077.37552.81768.58752l.103.23622-.27256.54512c-.27256.55118-.41793.69048-.71472.69048a4.93141,4.93141,0,0,0-1.25984.48456.85581.85581,0,0,1-.17565.23622,1.15194,1.15194,0,0,0-.212.29679,1.10169,1.10169,0,0,1-.19382.27256,3.13639,3.13639,0,0,0-.34524.51483,3.20705,3.20705,0,0,1-.59358.83586c-.07268.07268-.11508.16353-.09085.19382a.13734.13734,0,0,1-.04846.14536,2.38907,2.38907,0,0,0-.24833.41793,1.71009,1.71009,0,0,1-.26045.3937c-.04846.03634-.07268.09691-.05451.1272.02423.03634-.01212.12719-.07874.19987-.14537.1696-.14537.1696,0,.40582.13325.218.33918.27861.79951.24227a.94794.94794,0,0,1,.36341.02423.21631.21631,0,0,0,.18171-.01211c.07874-.0424.25439.01817.72683.25439a4.10294,4.10294,0,0,1,.67232.3937.97146.97146,0,0,0,.27256.212,1.21317,1.21317,0,0,1,.27256.218,3.808,3.808,0,0,0,.66626.38158c.72683.35736.745.37553.97516.72683a4.31237,4.31237,0,0,0,.48456.58146c.16959.1696.39369.40582.50272.51484.103.11508.24228.24834.30284.30285a1.47423,1.47423,0,0,1,.19988.23016c.04846.07874.19988.28467.33919.46033a2.5146,2.5146,0,0,1,.32707.52695,5.66884,5.66884,0,0,0,.27256.50272,5.48208,5.48208,0,0,1,.76923,1.6172,3.01884,3.01884,0,0,0,.27256.73288,1.12544,1.12544,0,0,1,.16354.43,3.38023,3.38023,0,0,0,.26045,1.0539c.05451.05452.05451.12114.006.26045a.43531.43531,0,0,0-.006.315,8.75532,8.75532,0,0,1-.03029,2.07147,15.00133,15.00133,0,0,0-.64809,1.40521,1.30463,1.30463,0,0,1-.23622.49061,3.91456,3.91456,0,0,1-.43.424,3.83225,3.83225,0,0,0-.6602.94488,3.12311,3.12311,0,0,1-.69655.854c-.03634.03029-.16959.16959-.30284.30285a1.63488,1.63488,0,0,1-.81768.55118,1.588,1.588,0,0,0-.39976.1817,1.49116,1.49116,0,0,1-1.25378.24834c-.03634-.02423-.13325.01211-.212.07874a2.46148,2.46148,0,0,1-.97517.3634.94476.94476,0,0,0-.34524.09086,1.71191,1.71191,0,0,1-.46638.13325,1.20443,1.20443,0,0,0-.3513.07874,6.061,6.061,0,0,1-.99939.38158,3.14285,3.14285,0,0,0-1.00545.315.62859.62859,0,0,1-.25439.1272,3.67494,3.67494,0,0,0-.52695.1817,1.66177,1.66177,0,0,1-.69655.13931,1.98983,1.98983,0,0,0-1.10844.22427c-.25439.13931-.29073.14537-.51484.06663a2.39052,2.39052,0,0,0-1.11447.01211.7683.7683,0,0,1-.3513-.00606,3.48519,3.48519,0,0,0-.3937-.07874c-.09691-.01817-.27862-.0424-.3937-.06662a2.02821,2.02821,0,0,0-.43-.03029,1.31988,1.31988,0,0,1-.44821-.07874,1.91225,1.91225,0,0,0-.53906-.12114,2.40458,2.40458,0,0,1-.4785-.09085,1.29206,1.29206,0,0,0-.38159-.06663.83065.83065,0,0,1-.33313-.06662,3.59245,3.59245,0,0,0-.70865-.12719,4.21036,4.21036,0,0,1-.92065-.18776,2.54925,2.54925,0,0,0-.642-.13931,1.35893,1.35893,0,0,1-.89036-.40581c-.23622-.18171-.424-.18777-.59964-.02423a2.07454,2.07454,0,0,1-.24227.18171.33051.33051,0,0,0-.1696.212,1.14808,1.14808,0,0,1-.14536.3513c-.27862.48455-.22411.73893.2665,1.24167a2.01151,2.01151,0,0,1,.48455.61173,3.666,3.666,0,0,0,.49061.65416,1.0027,1.0027,0,0,1,.103.15747,1.30152,1.30152,0,0,0,.3937.315,2.22486,2.22486,0,0,1,.4785.36341,1.03871,1.03871,0,0,0,.65414.37553.98194.98194,0,0,1,.34525.12114,1.09192,1.09192,0,0,0,.321.12114.43293.43293,0,0,1,.212.0848,1.63934,1.63934,0,0,0,.35131.15142.68476.68476,0,0,1,.321.218c.16354.24833.36947.33313.95094.3937.30284.03028.64809.07268.75711.09085a.3018.3018,0,0,0,.28468-.0545.19789.19789,0,0,1,.23621-.0424.274.274,0,0,0,.218.00606.21874.21874,0,0,1,.16354-.01817.20863.20863,0,0,0,.17565-.04846.81235.81235,0,0,1,.37553-.0848,4.12991,4.12991,0,0,0,1.02967-.17565,2.69382,2.69382,0,0,1,.5633-.07268,2.276,2.276,0,0,0,.77528-.15143,2.04753,2.04753,0,0,1,.55118-.1393,3.51911,3.51911,0,0,0,.60569-.11509c.29679-.0848,1.02968-.24834,1.36886-.30891a1.96041,1.96041,0,0,0,.38159-.15747.85585.85585,0,0,1,.35736-.103.50994.50994,0,0,0,.28467-.0848,11.4777,11.4777,0,0,1,1.30221-.44817,1.33724,1.33724,0,0,0,.3513-.28468,1.97229,1.97229,0,0,1,.46638-.26044,2.89393,2.89393,0,0,0,.533-.30891c.09691-.07874.19987-.13325.2241-.11508.03029.01817.14537-.02422.25439-.09085a.822.822,0,0,1,.321-.12114.68681.68681,0,0,0,.27256-.09085c.0848-.04846.24228-.1272.3513-.18171.103-.04845.19382-.11508.19382-.14537,0-.03634.06057-.07873.13931-.103a1.35414,1.35414,0,0,0,.55724-.45427,2.09761,2.09761,0,0,1,.71471-.50878,2.24679,2.24679,0,0,0,.80557-.77529c.11508-.2241.212-.315.75711-.67837a1.74827,1.74827,0,0,0,.46639-.424c.03634-.0848.103-.15143.13931-.15143a4.49865,4.49865,0,0,0,.84191-.854.37158.37158,0,0,1,.11508-.15748,2.66652,2.66652,0,0,0,.315-.59358,2.54028,2.54028,0,0,1,.40581-.69654,4.03157,4.03157,0,0,0,.50878-.7874,3.5072,3.5072,0,0,1,.3513-.59358,7.80844,7.80844,0,0,0,.71472-1.58691,6.3649,6.3649,0,0,1,.26044-1.12053,3.28106,3.28106,0,0,0,.09691-.75711,5.39656,5.39656,0,0,1,.103-1.12659.83851.83851,0,0,0-.02423-.30284.531.531,0,0,1,.02423-.38159.80576.80576,0,0,0,.06057-.36947,3.46059,3.46059,0,0,0-.12719-.9267,1.16155,1.16155,0,0,1-.06663-.34525c-.01211-.15142-.02423-.33919-.03634-.424a.71316.71316,0,0,0-.0848-.27862,2.03056,2.03056,0,0,1-.103-.51484c-.01817-.212-.04845-.49666-.06057-.636a3.29274,3.29274,0,0,0-.58146-1.77468.72371.72371,0,0,1-.20593-.33918,1.3618,1.3618,0,0,0-.109-.30891,10.69964,10.69964,0,0,1-.67232-1.83524.32121.32121,0,0,0-.09085-.18777.18651.18651,0,0,1-.0848-.12719,2.72916,2.72916,0,0,0-.93276-1.04785c-.109-.05451-.19988-.08479-.19988-.06662,0,.07268-.39975-.17565-.54512-.33313a6.07054,6.07054,0,0,1-.60569-.90248,1.23555,1.23555,0,0,0-.13325-.19382,4.24624,4.24624,0,0,1-.28468-.3513,2.44767,2.44767,0,0,0-.66626-.58147,1.62942,1.62942,0,0,0-.86614-.35735.275.275,0,0,1-.29073-.29679,2.3254,2.3254,0,0,1,.72683-.76923c.03634,0,.09691-.0848.1272-.18171.03634-.103.09085-.18171.12113-.18171s.05452-.03634.05452-.07268a3.66349,3.66349,0,0,1,.49061-.77528.58371.58371,0,0,0,.07268-.15143,2.94333,2.94333,0,0,1,.38159-.86613.847.847,0,0,0,.17565-.51484,2.30292,2.30292,0,0,1,.14536-.59358,1.53849,1.53849,0,0,0,.1272-.58146.75061.75061,0,0,0-.212-.58752,5.06579,5.06579,0,0,0-.32707-.3937,2.60184,2.60184,0,0,1-.28467-.40581,1.6615,1.6615,0,0,0-.218-.315,2.58162,2.58162,0,0,1-.26664-.23,1.96048,1.96048,0,0,0-.82979-.48455,3.04719,3.04719,0,0,1-.92065-.25439c-.15748-.07874-.27256-.103-.33919-.07268a.21147.21147,0,0,1-.23016-.03634c-.09691-.07269-.27256-.09086-.73895-.07269A3.17516,3.17516,0,0,0,15.92683.07212Z"/>

</g>
</svg>
