<?xml version="1.0" encoding="UTF-8"?>
<svg xmlns="http://www.w3.org/2000/svg"
     version="1.1"
     width="20.01674615mm"
     height="62.28306526mm"
     viewBox="0.00000000 0.00000000 56.74031296 176.55044553">

<g transform="scale(6.56887650)">   <defs>
      <style type="text/css"><![CDATA[
      .a {
        stroke: #000;
        stroke-miterlimit: 10;
        stroke-width: 0.15px;
      }
    ]]></style>
   </defs>
   <path class="a"
         d="M4.44759.07629A9.972,9.972,0,0,1,7.62318.91406a1.36789,1.36789,0,0,1,.6756.43032,1.37269,1.37269,0,0,1,.1228.92456c-.19383,1.90087.3952,2.45185-.73445,7.2018-.39385,1.656-1.00768,3.79165-.79546,3.86635.07773.02736.20032-.24494.63829-.4744.18671-.09781.5-.26192.72769-.14918.24877.12315.28324.52107.29608.69386A6.28037,6.28037,0,0,1,6.3755,18.49478c-.53823.427-.94887.587-1.26,1.17957A3.78291,3.78291,0,0,0,4.813,21.61978a4.55274,4.55274,0,0,0,.25,1.5c.29727.81906.65829.97479.59749,1.45-.03637.28423-.28217.53288-.77378,1.03018a6.184,6.184,0,0,1-1.42247,1.02694,1.04733,1.04733,0,0,1-.49306.17484c-.52674.00814-.9242-.55923-1.06181-.75565C.84235,24.52293,3.17831,16.02519,4.006,12.89066a36.36815,36.36815,0,0,0,.65546-6.67674A3.97237,3.97237,0,0,0,4.554,5.2527c-.1-.43045-.26316-1.13263-.798-1.37817a1.15951,1.15951,0,0,0-.56755-.07822c-.7435.023-.99062.44569-1.63673.57932C1.16662,4.45528.44756,4.472.188,4.11978c-.43338-.58805.44114-2.16794,1.57913-3.0593A4.81343,4.81343,0,0,1,4.44759.07629Z"/>

</g>
</svg>
