<?xml version="1.0" encoding="UTF-8"?>
<svg xmlns="http://www.w3.org/2000/svg"
     version="1.1"
     width="19.90821842mm"
     height="24.95419130mm"
     viewBox="0.00000000 0.00000000 56.43272184 70.73634507">

<g transform="scale(4.54756027)">   <defs>
      <style type="text/css"><![CDATA[
      .a {
        stroke: #000;
        stroke-linecap: round;
        stroke-linejoin: round;
        stroke-width: 0.01px;
      }
    ]]></style>
   </defs>
   <path class="a"
         d="M10.84763.03805a.21277.21277,0,0,1-.1696.02422.189.189,0,0,0-.16353.03635,2.6142,2.6142,0,0,1-.49667.212,1.89853,1.89853,0,0,0-.53907.2665A3.948,3.948,0,0,1,8.976.92236a.98405.98405,0,0,0-.46032.41792.51861.51861,0,0,1-.32708.29679c-.19382.07874-.56935.45427-.50878.50878a.4719.4719,0,0,1-.0424.315,1.485,1.485,0,0,1-.46032.212c-.3937.1272-.41187.13931-.4361.33919-.0424.39976-.13325.58752-.33919.67232a1.79563,1.79563,0,0,0-.69048.67231.40079.40079,0,0,1-.19988.19988c-.07269.02423-.11508.07268-.103.11508.06057.14537-.06057.24228-.33313.27256-.02423.00606-.05451.05452-.07268.11509A.40039.40039,0,0,1,4.827,5.247a.97744.97744,0,0,0-.25439.24833.78161.78161,0,0,1-.27256.24228,2.72012,2.72012,0,0,0-.45427.33313,1.75263,1.75263,0,0,1-.34525.27256c-.02422,0-.03028.03634-.01211.0848.02423.06662-.1272.30284-.38159.56329a1.10292,1.10292,0,0,0-.1393.30285,2.23765,2.23765,0,0,1-.16354.37552.42325.42325,0,0,0-.06057.26045.54674.54674,0,0,1-.25439.55118c-.09085.05451-.18776.0848-.212.06057-.01817-.01817-.03634.00606-.03634.06057a.30717.30717,0,0,1-.07874.17565,1.3453,1.3453,0,0,0-.24834.73288c.02423.06057-.02422.15143-.11508.24228a.65828.65828,0,0,0-.19382.321,1.33177,1.33177,0,0,1-.13325.315.35054.35054,0,0,0-.06057.218c.0424.09691-.00606.16353-.218.29678a.30074.30074,0,0,0-.16354.30891.89358.89358,0,0,1-.15748.43.63686.63686,0,0,0-.12719.34524.22466.22466,0,0,1-.05451.19988.24175.24175,0,0,0-.07874.16354A.443.443,0,0,1,.357,12.7939a.30054.30054,0,0,0-.17565.212.36907.36907,0,0,1-.09086.20594c-.13325.12719-.11508.19382.0848.27256.20593.09085.321.30284.24228.44821a.23153.23153,0,0,0,0,.218.16514.16514,0,0,1,.02422.15142c-.06057.05451.18171.45427.29679.49667a.24775.24775,0,0,1,.13931.15142.17653.17653,0,0,0,.14537.11508,1.15142,1.15142,0,0,1,.33918.12114,1.853,1.853,0,0,0,1.49606-.06057c.19988-.103.36947-.18171.37553-.18171a.9489.9489,0,0,1,.15748.12114c.29679.25439.79345-.02423,1.07813-.60569a1.41423,1.41423,0,0,1,.96305-.73289c.35736-.07874.47849-.23016.36947-.43609-.0424-.0848.00606-.16354.24228-.3937.16353-.15748.38764-.3513.49061-.4361a3.54632,3.54632,0,0,0,.642-.636,5.791,5.791,0,0,1,.3937-.45426c.38158-.39976.43609-.4785.3937-.54513-.02423-.03634.04845-.1393.15748-.23016a10.59711,10.59711,0,0,0,1.266-1.284A.66594.66594,0,0,1,9.58173,9.081a.2924.2924,0,0,0,.109-.212,2.39924,2.39924,0,0,1,.55117-.89036A1.50031,1.50031,0,0,0,10.575,7.7061c.25439-.25439.27257-.29679.27862-.58752a1.09435,1.09435,0,0,1,.23017-.71472,1.45037,1.45037,0,0,0,.17565-.29073c.07268-.13931.15748-.25439.19382-.25439.03028,0,.11508-.1272.18776-.29073a1.88215,1.88215,0,0,1,.27862-.45427c.14536-.15142.16354-.212.16959-.71472.00606-.44215.03029-.5754.1272-.70866.17565-.24227.18776-.36341.109-.854a1.83194,1.83194,0,0,1-.03028-.60569A5.45971,5.45971,0,0,0,12.386,1.631c.03634-.37552.02423-.46032-.0848-.636A.56782.56782,0,0,1,12.20432.6619a.27523.27523,0,0,0-.05451-.212A.94529.94529,0,0,1,12.0045.244a.39692.39692,0,0,0-.29679-.16353C11.12624-.00435,10.92637-.01647,10.84763.03805Zm-2.762,4.22772c.07874.07268.09692.16959.07269.35736a.45013.45013,0,0,0,.15142.45427c.16354.1817.17565.218.14537.533-.01817.18777-.03635.36342-.0424.39976a.4419.4419,0,0,0,.03028.15748.1884.1884,0,0,1-.07268.212,1.39068,1.39068,0,0,0-.29679.99939.85228.85228,0,0,1-.12114.61781A1.55662,1.55662,0,0,1,7.74649,8.33a.94008.94008,0,0,0-.15143.103c-.109.07874-.109.0848.02423.212.15748.15142.15748.11508.01817.43609a.778.778,0,0,1-.27256.34525c-.08479.04845-.15748.13325-.15748.18776a.47681.47681,0,0,1-.103.23016c-.06057.07269-.17566.218-.26045.315a.81958.81958,0,0,0-.15748.26045c-.01817.19382-.03029.218-.14537.25439-.06662.01817-.12114.07268-.12114.12114,0,.103-.17565.28467-.24227.24228-.02423-.01817-.103.09085-.17565.24227s-.15143.27256-.18171.27256-.06663.06057-.09085.13931a.41632.41632,0,0,1-.18777.22411c-.109.06057-.13931.11508-.11508.212.03634.15748-.12114.34524-.24833.29679a.32076.32076,0,0,0-.212.03634c-.25439.13325-.3937.03634-.533-.37553-.15748-.50272-.19988-.86008-.109-.99939A1.019,1.019,0,0,0,4.4818,10.347,1.04366,1.04366,0,0,1,4.51209,9.596a.57543.57543,0,0,0,.03029-.406A.90474.90474,0,0,1,4.609,8.6691a4.77367,4.77367,0,0,0,.13931-.55723.594.594,0,0,1,.12114-.24834.27383.27383,0,0,0,.06662-.26044c-.03028-.109.00606-.19988.13931-.3513a1.20952,1.20952,0,0,0,.25439-.56935,1.133,1.133,0,0,1,.45425-.8237.60448.60448,0,0,0,.23016-.212.59608.59608,0,0,0,.09691-.26651,1.03054,1.03054,0,0,1,.4785-.43.70124.70124,0,0,0,.321-.218,2.76419,2.76419,0,0,1,1.00545-.56329.2915.2915,0,0,1,.16962.09683Z"/>
   <path class="a"
         d="M.72653,15.48922c0,.03029.0424.06057.09085.06057s.09086-.03028.09086-.06057c0-.03634-.0424-.06056-.09086-.06056S.72653,15.45288.72653,15.48922Z"/>

</g>
</svg>
