<?xml version="1.0" encoding="UTF-8"?>
<svg xmlns="http://www.w3.org/2000/svg"
     version="1.1"
     width="50.40061653mm"
     height="25.37767732mm"
     viewBox="0.00000000 0.00000000 142.86782974 71.93670396">

<g transform="scale(5.40924245)">   <defs>
      <style type="text/css"><![CDATA[
      .a {
        stroke: #000;
        stroke-linecap: round;
        stroke-linejoin: round;
        stroke-width: 0.01px;
      }
    ]]></style>
   </defs>
   <path class="a"
         d="M21.88843.12614a.65126.65126,0,0,1-.24227.212c-.1696.0848-.19988.0848-.424-.03028-.18776-.09692-.27256-.109-.35735-.06057a.3186.3186,0,0,1-.43-.06057c-.06666-.06664-.12117-.09692-.12117-.06058,0,.07268-.321.24227-.46638.24227a.80839.80839,0,0,0-.29074.09692,2.33174,2.33174,0,0,1-.848.212A.355.355,0,0,0,18.5147.744a1.89742,1.89742,0,0,1-.58147.0848,4.7108,4.7108,0,0,0-.67837.05451c-.09691.01817-.26045.0424-.36342.05451a1.08114,1.08114,0,0,0-.36341.109,2.70666,2.70666,0,0,1-.87825.23622,3.20456,3.20456,0,0,0-.3937.08479,1.77073,1.77073,0,0,1-.48456.07269.68592.68592,0,0,0-.34524.06057,1.30571,1.30571,0,0,1-.37553.103.79209.79209,0,0,0-.27256.06663.23922.23922,0,0,1-.17565-.02423c-.07268-.0424-.13325-.0424-.17565,0-.07874.07874-.2665.109-.848.14537a1.83321,1.83321,0,0,0-.751.15748.799.799,0,0,1-.55724.09085.59682.59682,0,0,0-.44821.05451.9031.9031,0,0,1-.3089.1272.41711.41711,0,0,0-.23017.13325c-.05451.07268-.19382.103-.60569.11508-.71471.02423-.69654.02423-.82374.15143a.60152.60152,0,0,1-.424.11508,1.20577,1.20577,0,0,0-.745.15142.3037.3037,0,0,1-.32707.03634q-.17262-.0636-.23622,0a.66134.66134,0,0,1-.26045.09085,1.34359,1.34359,0,0,0-.2967.0787,1.41473,1.41473,0,0,1-.33919.0848.93341.93341,0,0,0-.44215.22411.84359.84359,0,0,1-.24833.17565.74287.74287,0,0,0-.24228.19382.81919.81919,0,0,1-.29073.19988.83091.83091,0,0,0-.23622.07874c-.15748.09085-.321.02422-.70866-.28468-.24833-.19988-.34524-.20593-.83585-.06662-.19988.06056-.29073.12113-.315.212a5.75,5.75,0,0,1-1.40521,1.381,2.42254,2.42254,0,0,0-.48455.4785,6.16579,6.16579,0,0,1-.91459.97516c-.103.09691-.12114.14537-.06663.212a.81014.81014,0,0,1,.0848.33313c.01211.33919.00606.315.16959.3937A.38848.38848,0,0,1,.47726,7.879a.91864.91864,0,0,0,.18779.27254.284.284,0,0,1,.109.23622A.35833.35833,0,0,0,.871,8.64821.38744.38744,0,0,1,.96787,8.945c-.02423.09085.01817.17565.15142.30284a2.02463,2.02463,0,0,1,.30284.40582c.11509.218.11509.24227.02423.38158-.09691.14537-.09085.15748.109.37553.109.12114.321.33919.46032.4785.19382.19382.24834.29073.218.36341a.40639.40639,0,0,0-.03634.1696,1.58165,1.58165,0,0,0,.218.636,1.71314,1.71314,0,0,1,.18776.54512,1.21562,1.21562,0,0,0,.13931.55118c.15142.3089.61175.07874.89037-.44215a.46863.46863,0,0,1,.34524-.23017c.13931-.03634.3089-.08479.37553-.109a1.86912,1.86912,0,0,1,.212-.0424c.16354-.00605.27862-.11508.46033-.424.09691-.1696.315-.50878.48455-.75712.4785-.69654.57541-.92065.50878-1.14475a2.36623,2.36623,0,0,1-.05451-.5209,1.29694,1.29694,0,0,0-.03634-.39369.98376.98376,0,0,1-.06057-.30285,1.2597,1.2597,0,0,0-.09079-.35739A1.00109,1.00109,0,0,1,5.71648,8.091a.80573.80573,0,0,0-.11508-.38158A1.14238,1.14238,0,0,1,5.44392,7.346c-.03634-.18171-.01211-.218.36342-.57541.58146-.53907.6602-.58146,1.066-.57541a.954.954,0,0,0,.67232-.19382,1.22367,1.22367,0,0,1,.43-.19382c.05451,0,.14537-.07268.19382-.17565a.51706.51706,0,0,1,.13931-.18171,5.93046,5.93046,0,0,0,1.52029-.46032.7899.7899,0,0,1,.29073-.13931.94678.94678,0,0,0,.27862-.103,1.451,1.451,0,0,1,.43609-.12114,1.89739,1.89739,0,0,0,.92671-.218c.2665-.14536.67837-.3513.94488-.48455a2.2077,2.2077,0,0,1,1.03573-.12719c.6178-.00606.69049-.01818.99333-.18777a1.0713,1.0713,0,0,1,.3937-.15748,5.28028,5.28028,0,0,0,.67232.07268,1.71826,1.71826,0,0,0,.27256-.05451,9.11916,9.11916,0,0,1,1.7263.01208c.52089.03028.50272.02422.57541.15748.08479.15748.01211.28467-.38159.7026a1.23361,1.23361,0,0,1-.642.424,4.69285,4.69285,0,0,0-1.387.69655.84272.84272,0,0,1-.4785.28467.515.515,0,0,0-.45427.25439.47762.47762,0,0,1-.27256.218,1.589,1.589,0,0,0-.7874.424,1.31215,1.31215,0,0,1-.78134.41793,1.46713,1.46713,0,0,0-.48455.218c-.16354.109-.37553.24833-.47244.315a1.42463,1.42463,0,0,1-.8298.2241c-.04845-.03028-.13325-.00605-.2241.06663a.61151.61151,0,0,1-.23017.11508,3.93831,3.93831,0,0,0-1.08418.76923c-.17565.16354.13325.6602.36341.59358a2.53967,2.53967,0,0,1,.29679-.06057,1.13415,1.13415,0,0,0,.40581-.18777.46652.46652,0,0,1,.41187-.11508.49136.49136,0,0,0,.38765-.07874,1.84741,1.84741,0,0,1,.6178-.218A.74271.74271,0,0,0,12.53051,8.63a1.25189,1.25189,0,0,1,.33313-.11508,1.686,1.686,0,0,0,.3937-.13931.7673.7673,0,0,1,.3513-.0848c.09085.00606.16353-.01211.16353-.04845,0-.07269.33313-.24834.38159-.20594.01817.02423.15748-.01211.3089-.06662a.71732.71732,0,0,1,.32708-.06663.53157.53157,0,0,0,.29073-.06057A1.18006,1.18006,0,0,1,15.674,7.782c.20594.01817.44822.03029.54513.03029a1.13232,1.13232,0,0,1,.44215.1817c.25439.1696.28468.17565.47244.103a.35183.35183,0,0,1,.29679-.02423.77835.77835,0,0,0,.62386-.11508.23607.23607,0,0,1,.20593-.0424,2.51957,2.51957,0,0,0,1.14476.02423c.06663-.03634.15748-.01817.27862.04846a1.37825,1.37825,0,0,0,.90248.0424,1.615,1.615,0,0,1,1.0115.103c.103.06663.17565.07874.24834.03634a2.16218,2.16218,0,0,1,1.15687-.006,2.54918,2.54918,0,0,0,1.33252-.00606,1.672,1.672,0,0,1,.47243-.06057c.06663.0424.25439-.07874.533-.33919.11508-.109.34525-.3089.50878-.43609.33313-.26651.54513-.50878.49667-.58147a.67092.67092,0,0,1,.02423-.29073.50952.50952,0,0,0-.26651-.65414c-.16959-.06663-.212-.06057-.41187.06662-.26044.17565-.41187.1272-.56329-.16353a.48489.48489,0,0,0-.636-.20594.26445.26445,0,0,1-.26651.01211A1.90744,1.90744,0,0,0,23.6449,5.426a3.08748,3.08748,0,0,1-.52695-.04845,1.28755,1.28755,0,0,0-.41187.04845,2.25181,2.25181,0,0,1-.59964.06057.5011.5011,0,0,0-.38764.09691.58729.58729,0,0,1-.24833.11509.23566.23566,0,0,0-.1696.11508.55675.55675,0,0,1-.25439.17565.29317.29317,0,0,1-.3513-.06663c-.15142-.12114-.24227-.13325-.86614-.13325-.64808,0-.72077.01211-1.01756.16959a.747.747,0,0,1-.636.11508,2.44883,2.44883,0,0,0-.53907-.03028.34243.34243,0,0,1-.34524-.09691c-.16354-.16354-.15748-.27862.02423-.46638.12114-.12114.17565-.13931.2665-.0848.09691.04846.13931.03634.212-.06663.109-.15748.52695-.41792.59964-.37552a2.31336,2.31336,0,0,0,.82979-.23622,4.81953,4.81953,0,0,1,.80557-.54513c.18777-.109.34525-.23622.34525-.27861,0-.23622.77528-.75106,1.28406-.86008a1.608,1.608,0,0,0,.848-.49667c.6178-.5209.745-.66626.90854-1.03573a.86917.86917,0,0,1,.24227-.3513c.06057-.03029.09691-.0848.0848-.109-.01817-.02423.00606-.09691.04845-.16353C23.863.7864,23.8569.744,23.78422.62892a.73218.73218,0,0,1-.103-.212.97987.97987,0,0,0-.12114-.24833L23.45112.005h-.75107C22.01563.005,21.94905.01711,21.88843.12614Z"/>

</g>
</svg>
