<?xml version="1.0" encoding="UTF-8"?>
<svg xmlns="http://www.w3.org/2000/svg"
     version="1.1"
     width="59.82446109mm"
     height="18.87581975mm"
     viewBox="0.00000000 0.00000000 169.58110498 53.50625567">

<g transform="scale(3.36881121)">   <defs>
      <style type="text/css"><![CDATA[
      .a {
        fill: #000;
        stroke: #000;
        stroke-miterlimit: 1;
        stroke-width: 0.25px;
      }
    ]]></style>
   </defs>
   <path class="a"
         d="M26.22591,9.00105c.1367,1.3887.4931,4.4932-.41209,5.7363-.97071,1.3399-2.49421,1.0098-4.085.91509-.72171-1.79789.33109-4.21579-.51461-5.93749a12.16239,12.16239,0,0,0-4.5391-4.06151c-3.082-.87109-8.6992,1.42091-8.0918,5.22551,5.5859.2852,11.457.0332,16.9141-.2148a120.0305,120.0305,0,0,1,16.4443-.09671,35.30215,35.30215,0,0,0,3.584.35651c.9404-.002,3.0693-.4014,3.87011.0722a1.46275,1.46275,0,0,1,.35739,2.36529c-.9258.82611-3.8496.42971-4.9521.42971-5.2198,0-10.4444-.2471-15.65529-.2471H19.77471c-5.3223,0-10.6562.5039-16.0068.2441-2.251-.1084-3.9707-.1455-3.5899-2.872.2774-1.9756,1.7334-3.1905,3.3907-4.1231,2.6074-1.4668,5.1328-3.0781,7.8017-4.43161A29.13,29.13,0,0,1,15.43971.61825a6.24939,6.24939,0,0,1,1.7598-.4932,6.13,6.13,0,0,1,2.07031.8077,11.0527,11.0527,0,0,1,1.376.664C23.179,3.05965,25.92221,5.93365,26.22591,9.00105Z"/>

</g>
</svg>
