<?xml version="1.0" encoding="UTF-8"?>
<svg xmlns="http://www.w3.org/2000/svg"
     version="1.1"
     width="60.35556793mm"
     height="16.90862649mm"
     viewBox="0.00000000 0.00000000 171.08672322 47.93002675">

<g transform="scale(5.10555451)">   <defs>
      <style type="text/css"><![CDATA[
      .a {
        stroke: #000;
        stroke-linecap: round;
        stroke-linejoin: round;
        stroke-width: 0.01px;
      }
    ]]></style>
   </defs>
   <path class="a"
         d="M15.6178.06513a.40056.40056,0,0,1-.22411.03029c-.09085-.03634-.33313.23622-.46638.527a.63606.63606,0,0,1-.19382.2665c-.109.03634-.29073.43-.23622.51484.04846.07874-.13931.34524-.30284.41793a.77951.77951,0,0,0-.20594.81768,2.35453,2.35453,0,0,0,.1696.44821,1.36993,1.36993,0,0,1,.109.24228c.01211.20593.15142.41793.47244.71471a1.459,1.459,0,0,1,.38764.46033.39965.39965,0,0,1-.12114.218c-.12114.12114-.16959.12719-.9691.14536a.87941.87941,0,0,1-.3937-.09691,1.16558,1.16558,0,0,0-.45427-.103c-.49667-.00606-.60569-.00606-.8298-.01212-.12719,0-.56935.01212-.98727.03634a9.52039,9.52039,0,0,1-1.5748,0c-.24833-.01817-.62992-.0424-.848-.06057-.218-.01211-.51483-.03634-.6602-.05451a2.10239,2.10239,0,0,0-.57541.03634A1.60251,1.60251,0,0,1,6.92,4.632c-.23622-.04239-.86008-.07874-1.87764-.11508a1.77334,1.77334,0,0,1-.69655-.12719A1.56245,1.56245,0,0,0,3.831,4.25648c-.16353-.01212-.41187-.03029-.54512-.03635a.86588.86588,0,0,0-.60562.206,2.30877,2.30877,0,0,1-.6178.2665c-.14537.02423-.26045.06663-.26045.09691s-.1272.11508-.28468.19382a3.94722,3.94722,0,0,0-.55723.32708,1.02852,1.02852,0,0,1-.37553.19988c-.06057,0-.15142.07874-.20594.1817-.05453.09691-.1151.18171-.14537.18171s-.09691.07268-.15748.15748a.28307.28307,0,0,0-.03029.33313.43666.43666,0,0,0,.17566.20594,3.48035,3.48035,0,0,1,.43.24227,1.46735,1.46735,0,0,0,.43609.212.408.408,0,0,1,.23017.12114.52668.52668,0,0,0,.15142.12114h.0848a1.1036,1.1036,0,0,1,.29678.24833.84809.84809,0,0,0,.32708.23017.54268.54268,0,0,1,.49061.18776.48284.48284,0,0,0,.642.09085.45933.45933,0,0,1,.36947-.03028,5.23854,5.23854,0,0,0,.62992.09691,2.47011,2.47011,0,0,1,.4785.06663A4.35753,4.35753,0,0,0,6.2417,8.139a1.40637,1.40637,0,0,1,.47244-.05451.33728.33728,0,0,0,.27256-.06057,3.95929,3.95929,0,0,1,1.04179-.3513A.94132.94132,0,0,0,8.28288,7.6,3.58992,3.58992,0,0,1,9.258,7.36373a1.424,1.424,0,0,0,.4785-.12719.69285.69285,0,0,1,.4785-.06663,2.19063,2.19063,0,0,0,.36947.03634c.04845,0,.17565.00606.27256.01211.2241.00606.69654.01212,1.06.00606.26045-.00606.86614-.00606,1.45366-.00606a1.559,1.559,0,0,0,.7874-.11508,3.94675,3.94675,0,0,1,1.702-.07268,2.856,2.856,0,0,1,.80557.86008,4.056,4.056,0,0,1,.15748.57541c.07268.35736.09691.38764.36947.56935a1.28378,1.28378,0,0,1,.321.2665c.04846.13325.21805.09691.37553-.07268a1.37093,1.37093,0,0,0,.36947-.72077c-.0424-.109.1696-.4361.315-.48456a.606.606,0,0,1,.36342.09086,1.37872,1.37872,0,0,0,.79345.103,1.74813,1.74813,0,0,1,.67231.05452,1.7037,1.7037,0,0,0,.66626.03634,2.12574,2.12574,0,0,1,.70261.0424,2.46129,2.46129,0,0,0,.50271.09691,3.87093,3.87093,0,0,1,.51484.06662A10.64691,10.64691,0,0,0,24.14,8.53275a.71934.71934,0,0,1,.29073.07269c.17566.06662.23622.06057.65415-.11508a1.14132,1.14132,0,0,1,.957-.103,1.28088,1.28088,0,0,0,.48456-.06057,5.01106,5.01106,0,0,1,.62385-.12114,2.54689,2.54689,0,0,0,.80558-.14536c.06662-.03635.13324-.04846.15142-.03029s.13325-.03634.26045-.12114c.15142-.103.25439-.13325.321-.103a1.09969,1.09969,0,0,0,.83585-.18776.95.95,0,0,1,.41187-.14537,1.17693,1.17693,0,0,0,.636-.218.59509.59509,0,0,1,.19382-.109.43571.43571,0,0,0,.17565-.12719.27512.27512,0,0,1,.19988-.09691c.07874.03028.14537-.02423.533-.44822a2.25116,2.25116,0,0,1,.59358-.40581,5.528,5.528,0,0,0,.59357-.33919,1.31426,1.31426,0,0,0,.49061-.68443,2.57676,2.57676,0,0,1,.14537-.72077c.01817-.02423,0-.109-.0424-.19988a.427.427,0,0,1-.05451-.23016c.01211-.03634-.05451-.11508-.15142-.16354a.53827.53827,0,0,1-.218-.19382.09255.09255,0,0,0-.11333-.06549l-.01387.00492c-.15748.05452-.27256-.03028-.39975-.29073-.103-.23016-.15143-.26044-.6057-.424a2.20409,2.20409,0,0,1-.61174-.29073,4.84376,4.84376,0,0,0-1.24167-.59358.40453.40453,0,0,0-.212.103.46339.46339,0,0,1-.21805.109.898.898,0,0,0-.23622.07874c-.11508.06663-.15748.05451-.24833-.03634-.09691-.09691-.13931-.103-.26045-.0424a.305.305,0,0,1-.212.04846.29266.29266,0,0,0-.19988.0424.25171.25171,0,0,1-.23632.00595,2.69463,2.69463,0,0,0-.92671-.13325.67389.67389,0,0,0-.29073.19382c-.16354.15748-.23016.18171-.38764.15142a1.62809,1.62809,0,0,0-.2665-.03634,2.03827,2.03827,0,0,1-.50879-.03634.6072.6072,0,0,0-.39369.05451.30994.30994,0,0,1-.30285.03029c-.11508-.05451-.21805-.02423-.57541.16353-.3513.18171-.47849.21805-.65414.18777a1.453,1.453,0,0,0-.99334.17565,1.49947,1.49947,0,0,1-.70865.36341.41109.41109,0,0,0-.24834.06663,1.92511,1.92511,0,0,1-1.02967.07874c-.04846-.03028-.15143,0-.27256.07268a.73849.73849,0,0,1-.33313.109,1.92,1.92,0,0,0-.38765.06662c-.13325.03634-.28467.07269-.33313.07874a1.607,1.607,0,0,0-.27861.11508.31371.31371,0,0,1-.26651.04846.20492.20492,0,0,0-.18776,0c-.05451.03028-.11508.0424-.13325.01817a.68339.68339,0,0,0-.30891.0424c-.40581.11508-.56935.04845-.70865-.29073-.19383-.44821-.64809-1.32041-1.00545-1.93821a2.53117,2.53117,0,0,1-.29679-.59964c.01817-.01817-.03029-.0848-.11508-.15142a1.96331,1.96331,0,0,1-.40581-.91459C15.90853-.01361,15.83585-.02572,15.6178.06513Zm12.35,4.81525a.4093.4093,0,0,0,.24228.07268c.47849-.03028.78739.109.78739.34524a.37909.37909,0,0,1-.38764.30891,2.152,2.152,0,0,0-1.169.642,1.78077,1.78077,0,0,1-.3937.30284c-.0424,0-.15142.01212-.24833.01818a.46409.46409,0,0,0-.19988.04845c-.02423.02423-.09086.01211-.15142-.02423-.09086-.04845-.16354-.02422-.33313.109a1.02453,1.02453,0,0,1-.38159.1817,3.75381,3.75381,0,0,0-.43.0848,4.3299,4.3299,0,0,1-.7874.06663c-.43.00605-.52695.02422-.59358.11508a.7416.7416,0,0,1-.66626.18171.61637.61637,0,0,0-.36947,0,1.06225,1.06225,0,0,1-.47849,0,2.6013,2.6013,0,0,0-.34525-.05452,2.38715,2.38715,0,0,1-.3937-.06662,1.40421,1.40421,0,0,0-.43609-.02423,1.02625,1.02625,0,0,1-.51484-.13931,1.98441,1.98441,0,0,0-.59358-.17565,1.78145,1.78145,0,0,1-.37553-.05451.70168.70168,0,0,0-.33313.01211c-.24227.06663-.33313.03634-.41187-.11508-.11508-.20593.24228-.68443.424-.56935a.66649.66649,0,0,0,.29073-.02423.90366.90366,0,0,1,.53906.05452l.30285.103.38158-.23016a1.11729,1.11729,0,0,1,.75712-.2241,1.32738,1.32738,0,0,0,.67232-.14537.99655.99655,0,0,1,.76922-.09691c.46033.05451.47244.05451.66021-.103a.44134.44134,0,0,1,.47244-.12114,6.09483,6.09483,0,0,0,.636.05452c.35736.01211.43-.00606,1.14476-.321a.58555.58555,0,0,1,.5754-.02423c.30891.09086.315.09086.533-.07874a.91425.91425,0,0,1,.65415-.218.9158.9158,0,0,1,.15141.109Z"/>

</g>
</svg>
