<?xml version="1.0" encoding="UTF-8"?>
<svg xmlns="http://www.w3.org/2000/svg"
     version="1.1"
     width="44.95483351mm"
     height="20.66301365mm"
     viewBox="0.00000000 0.00000000 127.43102947 58.57237427">

<g transform="scale(3.57799863)">   <defs>
      <style type="text/css"><![CDATA[
      .a {
        stroke: #000;
        stroke-linecap: round;
        stroke-linejoin: round;
        stroke-width: 0.01px;
      }
    ]]></style>
   </defs>
   <path class="a"
         d="M2.5061.272a1.20183,1.20183,0,0,0-.28468.32707A1.23459,1.23459,0,0,1,1.97915.908a.87716.87716,0,0,0-.24228.36948,1.017,1.017,0,0,1-.28467.40581c-.218.218-.27862.321-.26651.44821a.37848.37848,0,0,1-.09691.27256,1.12235,1.12235,0,0,0-.35736.93277c.01212.30284-.006.39975-.09691.49061a.49143.49143,0,0,0-.109.36947,3.78379,3.78379,0,0,1-.1151,1.31432.97489.97489,0,0,0-.01212.5754c.0848.38159.04846.81769-.07268.88431C.259,7.01333.24081,7.10418.265,7.3404a1.88333,1.88333,0,0,1-.01211.65415A2.32108,2.32108,0,0,0,.33167,9.12113c.05451.109.04845.15748-.05451.27257a.34917.34917,0,0,0-.09086.32707,3.11555,3.11555,0,0,1-.11508,1.272c-.12114.62386-.0848.79345.18171.87825a.44165.44165,0,0,1,.23622.15748c.02423.06057.06662.07268.13931.03634.12719-.06057.15748-.05451.44821.03029a1.512,1.512,0,0,0,.47244.0424.39082.39082,0,0,1,.37553.103.59242.59242,0,0,0,.24833.14537.50611.50611,0,0,1,.19988.09085.42394.42394,0,0,0,.218.06057c.07874,0,.212,0,.29073.00606a.61.61,0,0,1,.27256.07268c.16354.0848.218.09691.73288.13325a2.33864,2.33864,0,0,1,.81163.11508.31237.31237,0,0,0,.24833-.02422.30794.30794,0,0,1,.315.006.42519.42519,0,0,0,.19382.06663,1.92306,1.92306,0,0,1,.30285-.0424c.13325-.01817.38764-.05451.55118-.07874a.88.88,0,0,1,.62992.09691,1.13763,1.13763,0,0,0,.43609.11508,1.11384,1.11384,0,0,1,.38159.02423.95369.95369,0,0,0,.41793,0,.3026.3026,0,0,1,.24227.00606,1.32048,1.32048,0,0,0,.424.05451,1.12106,1.12106,0,0,1,.52089.12114,1.02438,1.02438,0,0,0,.48455.12114c.15143,0,.45427.01211.67232.02422a1.48355,1.48355,0,0,0,.49667-.03634c.07268-.0424.13325-.02422.212.06057.103.11508.18171.12114,1.00545.103a6.193,6.193,0,0,1,.963.03028.2168.2168,0,0,0,.1817-.01211,1.50131,1.50131,0,0,1,.61781.01817,1.29046,1.29046,0,0,0,.957-.103,2.35582,2.35582,0,0,1,.963-.18776,4.63494,4.63494,0,0,0,.745-.07268,3.26293,3.26293,0,0,1,1.24773.01817.77241.77241,0,0,0,.23621.07874.86087.86087,0,0,1,.24833.07268.17748.17748,0,0,0,.16354.01211,15.47882,15.47882,0,0,1,2.43488.03029.37326.37326,0,0,0,.218.06057,2.36852,2.36852,0,0,0,1.10234-.0667c.16353-.07874.20593-.07874.44215,0a1.867,1.867,0,0,1,.32707.13325.49291.49291,0,0,0,.18778.05452c.06662.00605.26044.04845.43609.08479a.88746.88746,0,0,0,.57541-.00605,2.06537,2.06537,0,0,1,.41187-.09086,2.2462,2.2462,0,0,0,.424-.09085,3.66176,3.66176,0,0,1,.78739-.0848,1.64728,1.64728,0,0,0,.7874-.13931,1.14465,1.14465,0,0,1,.642-.11508,1.51362,1.51362,0,0,1,.45427.07268,1.84876,1.84876,0,0,0,.4785.06057c.218.01212.50272.03029.636.05452a11.04061,11.04061,0,0,0,1.2235.109.6987.6987,0,0,0,.50878-.13325.82774.82774,0,0,1,.636-.14537.70568.70568,0,0,1,.1817.27862,2.08026,2.08026,0,0,0,.46638.67232,2.63018,2.63018,0,0,1,.30285.41792c.07268.1272.17565.30891.22411.3937a2.12028,2.12028,0,0,0,.19382.28468c.3937.45427.4906.53906.5754.55118a.27323.27323,0,0,1,.13326.06662,1.53861,1.53861,0,0,0,.52089.23622c.03633,0,.09085.01212.13325.01212a1.03222,1.03222,0,0,1,.25439.16959l.18777.15748.23622-.12114a.58665.58665,0,0,1,.2665-.09691.83934.83934,0,0,0,.33919-.16354c.27861-.16959.3089-.20593.27861-.3513a.85552.85552,0,0,1,.02424-.34524,1.33359,1.33359,0,0,0-.16353-.91459,1.86364,1.86364,0,0,0-.30285-.1696c-.22411-.09691-.33919-.321-.40581-.7874a3.04191,3.04191,0,0,0-.13325-.527c-.08481-.20593-.08481-.24833,0-.36947a.21525.21525,0,0,0,.03028-.24833,2.39364,2.39364,0,0,1-.09085-.56935,2.18915,2.18915,0,0,0-.08481-.56935.23956.23956,0,0,1,.00607-.23016.21884.21884,0,0,0,.02422-.18777,1.101,1.101,0,0,1-.05451-.25439,2.43049,2.43049,0,0,0-.06057-.37553,1.08121,1.08121,0,0,1-.03633-.27256,3.65983,3.65983,0,0,0-.00607-.93882,9.22537,9.22537,0,0,1-.115-1.1507c.01817-.109.07874-.96911.07874-1.12053.01212-.50878-.28467-.89642-.67837-.90248a1.289,1.289,0,0,1-.25439-.0424,1.26522,1.26522,0,0,0-.957.50878c-.3392.38764-.36947.424-.3513.49061s-.109.27256-.27862.44821a.517.517,0,0,0-.1272.26651.28629.28629,0,0,1-.06057.18776.84146.84146,0,0,0-.20593.79951,1.04371,1.04371,0,0,1-.02423.51484,1.326,1.326,0,0,0-.02423.76317.46956.46956,0,0,1,.07269.22411.442.442,0,0,1-.13931.38158.536.536,0,0,0-.14537.3513c.02423.27256-.18776.5209-.64809.75712-.38158.19382-.4361.20593-.52089.12114a.336.336,0,0,1-.09086-.19988c0-.06663-.14536-.17565-.40581-.3089-.218-.11509-.48455-.26045-.58752-.315a.58847.58847,0,0,0-.36947-.07874,3.49951,3.49951,0,0,1-.36341.04845,1.05,1.05,0,0,0-.30285.0848.79743.79743,0,0,1-.36341.0424,3.1851,3.1851,0,0,0-1.066-.02423c-.15142.04845-.20594.03028-.35736-.12114-.18171-.17565-.4361-.24833-1.02967-.27862-.18171-.01211-.44216-.03634-.57541-.05451-.19989-.02423-1.66565-.09085-2.30163-.103a2.92934,2.92934,0,0,0-1.00544.15143.46656.46656,0,0,1-.29073.04239,1.15156,1.15156,0,0,0-.59358.02423c-.01817.01818-.09086,0-.16354-.03633a1.30226,1.30226,0,0,0-.39975-.09085,1.077,1.077,0,0,1-.3937-.103,1.29078,1.29078,0,0,0-.57541-.05451,5.228,5.228,0,0,1-.54512.01817c-.04846,0-.22411,0-.3937.006-.33919.01212-.89037.00606-1.30224-.01211a1.30253,1.30253,0,0,1-.43-.09085.445.445,0,0,0-.37553-.01817.52934.52934,0,0,1-.47244-.07269,1.24131,1.24131,0,0,0-.751-.103,2.855,2.855,0,0,0-.56935.07268c-.03634.02423-.13931,0-.218-.04846a.3878.3878,0,0,0-.29679-.06057.25421.25421,0,0,1-.23016-.05451c-.11508-.12114-.3513-.18776-.3513-.103,0,.03635-.06663.09086-.15142.13326-.1272.05451-.19382.03634-.50273-.14537a.906.906,0,0,0-.62386-.19382,2.74792,2.74792,0,0,0-.86008.16959c-.26045.09086-.30285.09086-.45427.01212A3.67032,3.67032,0,0,0,8.878,9.44821a1.67877,1.67877,0,0,1-.72683-.11508.34556.34556,0,0,0-.24833,0c-.06057.03634-.15748,0-.29074-.09691-.16959-.1272-.20593-.13326-.28467-.06057A.16568.16568,0,0,1,7.04272,9.109c-.02422-.06057-.12719-.0848-.33918-.0848a1.14835,1.14835,0,0,1-.44216-.07268,2.835,2.835,0,0,0-.91459-.11508.49664.49664,0,0,1-.22411-.06057A1.6423,1.6423,0,0,0,4.72293,8.685a6.699,6.699,0,0,1-1.33252-.34522c-.16354-.07268-.22411-.218-.23622-.58752a1.742,1.742,0,0,0-.05451-.3937c-.02423-.09085.01817-.19382.14536-.35735.19988-.24834.218-.315.13325-.45427a.18583.18583,0,0,1,0-.19382,2.83958,2.83958,0,0,0,.06057-.90248,1.83731,1.83731,0,0,1,.103-.70866.66546.66546,0,0,0,.07268-.29073.59757.59757,0,0,1,.45427-.59358c.22411-.07874.28468-.07874.3513-.01211a.13215.13215,0,0,0,.18171.01817.205.205,0,0,1,.16354-.01817c.03634.01817.103-.00606.15748-.05452.07874-.08479.212-.09085.52089-.04239.02423,0,.05451.06056.07874.12113.0424.14537.27256.23622.69049.27862a1.766,1.766,0,0,1,.38158.06663c.218.13931.49061.12114.957-.0424a1.87617,1.87617,0,0,1,.81768-.13325,16.64694,16.64694,0,0,1,1.93215.13931.72446.72446,0,0,0,.38159-.00606,1.12011,1.12011,0,0,1,.327-.05451.87951.87951,0,0,0,.36342-.09691.6276.6276,0,0,1,.69048.07268.44523.44523,0,0,0,.27862.12719,2.1133,2.1133,0,0,1,.72077.109,1.48394,1.48394,0,0,0,.745.01211.877.877,0,0,1,.37553-.07268,2.67248,2.67248,0,0,0,.93277-.14537c.13931-.07874.29678-.02422.533.18777.12114.109.13931.11508.27862.01817.13931-.09086.15748-.09086.24834.00606.08479.08479.12719.08479.28467.02422.09691-.0424.19382-.06057.212-.0424s.109.00606.19382-.02422a2.97,2.97,0,0,1,1.02968-.11508,1.63864,1.63864,0,0,0,.48455-.05452.65228.65228,0,0,1,.39976.01817.73234.73234,0,0,0,.54512-.01211,1.77022,1.77022,0,0,1,1.066-.12719c.06057.03028.23017-.01818.45427-.1272a1.6444,1.6444,0,0,1,.51484-.16959,3.98126,3.98126,0,0,0,2.20474-.86.77232.77232,0,0,0-.01212-.68444.88147.88147,0,0,0-.38158-.15747,2.68087,2.68087,0,0,1-.48456-.15748c-.09691-.05452-.20593-.07874-.24227-.05452a2.62451,2.62451,0,0,1-.69049.09691c-.06663-.006-.19382-.01211-.29073-.01211a.93109.93109,0,0,1-.35736-.09691,1.143,1.143,0,0,0-.96911-.109,2.67871,2.67871,0,0,1-.67231.07268.84257.84257,0,0,0-.424.05451.534.534,0,0,1-.34524.04846.57659.57659,0,0,0-.3089.03028,2.82115,2.82115,0,0,1-.745.09085,9.42437,9.42437,0,0,0-1.03573.07874c-.41187.06057-.43.05452-.72078-.12113-.2241-.13326-.33918-.1696-.45426-.13326a6.68846,6.68846,0,0,1-1.47789-.01211,12.43849,12.43849,0,0,0-1.65354-.0848.65474.65474,0,0,1-.41187-.12719.283.283,0,0,0-.33313-.06663c-.09691.03634-.19382.04846-.20593.03029a.78629.78629,0,0,0-.32708-.07269.44092.44092,0,0,1-.19382-.13325.65379.65379,0,0,0-.61174-.11508,1.5511,1.5511,0,0,1-.34525.07874.41308.41308,0,0,1-.38764-.0848.56663.56663,0,0,0-.23016-.12114c-.05452-.006-.218-.01211-.36947-.01817A2.76577,2.76577,0,0,1,8.36916.96859,4.38511,4.38511,0,0,0,7.497.88374C7.04878.87768,6.855.85345,6.84285.799A.17045.17045,0,0,0,6.69748.72626,2.02967,2.02967,0,0,1,6.2311.59906,3.30127,3.30127,0,0,0,4.89252.29622.206.206,0,0,1,4.65025.26593,1.48863,1.48863,0,0,0,3.95976.15085a3.45294,3.45294,0,0,1-.72683-.0848C2.93614-.049,2.80289-.01269,2.5061.272ZM1.70053,2.75532A.172.172,0,0,1,1.64,3.05211.234.234,0,0,1,1.34923,2.937c-.03029-.0848.109-.27256.20593-.27256A.33831.33831,0,0,1,1.70053,2.75532Z"/>

</g>
</svg>
