<?xml version="1.0" encoding="UTF-8"?>
<svg xmlns="http://www.w3.org/2000/svg"
     version="1.1"
     width="31.40796657mm"
     height="55.57894427mm"
     viewBox="0.00000000 0.00000000 89.03046377 157.54666076">

<g transform="scale(5.48693194)">   <defs>
      <style type="text/css"><![CDATA[
      .a {
        stroke: #000;
        stroke-linecap: round;
        stroke-linejoin: round;
        stroke-width: 0.01px;
      }
    ]]></style>
   </defs>
   <path class="a"
         d="M6.66154.1322a.39533.39533,0,0,1-.17565.1393,7.25121,7.25121,0,0,0-1.75044.82374,1.84054,1.84054,0,0,1-.58752.26045c-.0424-.01211-.11508.04846-.1696.15142a.48611.48611,0,0,1-.218.22411c-.16353.05451-.43609.32707-.39369.39976.02422.03028-.05452.14536-.1696.24833a3.0205,3.0205,0,0,0-.3089.36947.70609.70609,0,0,1-.24833.23622.37.37,0,0,0-.18171.212.35983.35983,0,0,1-.23016.23016c-.20594.0848-.43.44216-.36948.59358A3.13153,3.13153,0,0,1,1.3618,5.15338,3.26806,3.26806,0,0,0,.88931,6.17093a.85824.85824,0,0,1-.0848.29074A2.47771,2.47771,0,0,0,.647,7.30358c-.0242.36947-.0242.37553-.218.58752-.15142.16353-.17565.23016-.14536.3937a.29914.29914,0,0,1-.12116.3392L.005,8.76935V9.92622c0,1.0963.00606,1.16293.12114,1.22349a.37886.37886,0,0,1,.15748.23017.93377.93377,0,0,0,.15748.3089.33795.33795,0,0,1,.03028.45427,1.89086,1.89086,0,0,0,.19988,1.20532,1.52362,1.52362,0,0,1,.16354.45427.784.784,0,0,0,.20593.41187,1.21422,1.21422,0,0,1,.30285.98728c-.03029.04845.006.13325.09085.218A.51217.51217,0,0,1,1.5798,15.65a2.55572,2.55572,0,0,0,.79951.82374.74731.74731,0,0,0,.6602.12114c.07268-.03634.15142-.01212.25439.06662a.378.378,0,0,0,.45427.06663A.86146.86146,0,0,1,4.16,16.7887a1.561,1.561,0,0,0,.99333.06662,12.19373,12.19373,0,0,1,1.63537-.315,1.54392,1.54392,0,0,0,.45427-.12113,1.4969,1.4969,0,0,1,.41187-.12114,1.219,1.219,0,0,0,.40581-.15748c.36342-.20594.69049-.24228.854-.07874.09692.09691.109.13931.0424.25439a.35755.35755,0,0,0,.07269.46638c.09085.09085.103.15142.06057.32707a1.0668,1.0668,0,0,1-.12114.315c-.06057.06663-.06057.1272-.01212.23017.12114.27256-.16353.46638-.5754.3937a1.40428,1.40428,0,0,0-.4361-.02423A5.39268,5.39268,0,0,1,6.395,17.94557a.33314.33314,0,0,0-.3089.01817,3.70721,3.70721,0,0,1-.86614.18171c-.0848.01211-.27256.04845-.40581.07874a.70645.70645,0,0,1-.33919.006c-.05451-.03028-.212.01212-.40581.103a2.64978,2.64978,0,0,1-.36947.14537c-.109,0-.35131.28467-.54513.62386a1.48028,1.48028,0,0,1-.315.41187,3.08679,3.08679,0,0,0-.38158.315c-.18777.18776-.24833.28467-.212.34524a.2812.2812,0,0,1-.03029.24228.28009.28009,0,0,0-.03028.24227.23029.23029,0,0,1,.02423.15143c-.04846.12113.38764.33918.636.32707a1.8883,1.8883,0,0,1,.41793.03028,4.269,4.269,0,0,0,.48455.06663c.15748.01211.38159.0424.49667.06057a1.27988,1.27988,0,0,0,.30284.03028c.04846-.00605.19382-.00605.321-.00605a2.04147,2.04147,0,0,0,.60569-.15143c.97516-.39975,1.21138-.3513,1.20532.25439-.00605.44216-.04239.61781-.16353.75106a.362.362,0,0,0-.09086.15748,2.10816,2.10816,0,0,1-.212.38159,3.78281,3.78281,0,0,0-.212.34524,2.76168,2.76168,0,0,1-.15142.3513l-.15142.315.12113.321c.0848.24227.09691.3513.05452.45426-.05452.109-.03635.18171.09085.36342a.5091.5091,0,0,1,.11508.315c-.01817.04845,0,.0848.03634.0848.14537,0,.19988.24227.103.47849-.05451.14537-.06663.25439-.03028.29073a.62405.62405,0,0,1,.103.52695c-.0424.07269-.01817.14537.09691.28468.0848.09691.13931.218.12114.2665a1.10311,1.10311,0,0,0,.15142.46033,1.91278,1.91278,0,0,1,.18777.50272c.00606.16959.13931.33919.2665.33919a.48925.48925,0,0,1,.24834.15748c.12113.12719.18776.15142.43.13325l.29073-.01817.08479-.29073c.05452-.20594.1272-.3089.23017-.35736.12719-.06057.13931-.09691.12114-.34524a.93342.93342,0,0,1,.04239-.39976.75325.75325,0,0,0,.07269-.23622.29871.29871,0,0,1,.09691-.18171.65811.65811,0,0,0,.19988-.55118.24707.24707,0,0,1,.07874-.25439,2.43862,2.43862,0,0,0,.59357-.99333.34925.34925,0,0,1,.04846-.26045A.21146.21146,0,0,0,9.69,24.58394c-.03634-.06662-.01817-.13931.06057-.24228.07268-.09085.09691-.17565.06662-.23016a.41358.41358,0,0,1-.01817-.23622,1.56955,1.56955,0,0,0,.01212-.44821,1.14025,1.14025,0,0,1,.0424-.2241,1.691,1.691,0,0,0-.109-1.09025,2.17187,2.17187,0,0,1-.17565-.37553.47872.47872,0,0,0-.18776-.2665.34338.34338,0,0,1-.19988-.38764c.01211-.0848.02423-.17565.02423-.19988a1.05206,1.05206,0,0,1,.636-.24833.68479.68479,0,0,0,.321-.0424c.38158-.1272.46032-.109.73288.16353.18171.18777.25439.30891.25439.4361a.43642.43642,0,0,0,.12114.28468.63128.63128,0,0,1,.15143.212.227.227,0,0,0,.1393.13931c.05452.01817.22411.07874.37553.13325a3.02555,3.02555,0,0,0,.41793.12114c.14537.01817.23016.09085.4785.44215.11508.15142.13325.15748.81768.15748.55118.00606.72077-.01211.80557-.09085a2.2682,2.2682,0,0,1,.72077-.35736c.0424,0,.13931-.07874.212-.17565a.63962.63962,0,0,1,.23622-.218c.1272-.03634.27862-.3513.218-.44821-.03634-.06663.18776-.32707.33919-.38764.06662-.02423.04845-.06663-.07874-.17565-.16354-.14537-.43-.61781-.37553-.67232.0424-.0424-.321-.3937-.46033-.4361a1.95234,1.95234,0,0,1-.45426-.36341,2.3238,2.3238,0,0,0-.58753-.41793,3.35039,3.35039,0,0,1-.38158-.18171,3.82256,3.82256,0,0,0-1.30829-.36947,1.77844,1.77844,0,0,1-.76317-.20593,1.64719,1.64719,0,0,0-.60569-.18777,1.44186,1.44186,0,0,1-.848-.212c-.09691-.13325-.01212-.315.19988-.40581.09085-.0424.1393-.103.11508-.15142-.01817-.05452.109-.23017.30284-.424a2.11918,2.11918,0,0,0,.33313-.3937,1.16056,1.16056,0,0,1,.24228-.29679c.13325-.1393.23016-.2665.218-.29073a1.004,1.004,0,0,1,.15142-.36947c.103-.19382.15142-.33919.11508-.3513a.36248.36248,0,0,1-.12719-.13931c-.04846-.09085-.03029-.14536.09691-.26045a.80363.80363,0,0,0,.24227-.62991.73544.73544,0,0,1,.07874-.27257.13583.13583,0,0,0,.01212-.16353,1.62553,1.62553,0,0,1-.02423-.48456c.01817-.34524.00606-.424-.09691-.51483s-.14537-.09691-.27862-.03634a.32206.32206,0,0,1-.20593.03634c-.03029-.01817-.12114.03634-.19988.11508a1.47538,1.47538,0,0,1-.8298.30284c-.11508.01818-.27862.04846-.36341.06663-.45427.11508-.62992.09085-.72683-.09691-.04846-.0848-.03634-.16354.03028-.30285a.45064.45064,0,0,0,.06663-.27256.25786.25786,0,0,1,.09085-.212A.59258.59258,0,0,0,9.908,11.9856a.49488.49488,0,0,1,.08479-.18777.15171.15171,0,0,0,.02423-.14536.66252.66252,0,0,1,.06663-.32708c.05451-.12719.14536-.3513.20593-.4906a1.11334,1.11334,0,0,0,.0848-.321,1.37032,1.37032,0,0,1-.0424-.16959.71581.71581,0,0,0-.06057-.16354.52905.52905,0,0,1,.09691-.29679c.11508-.212.12114-.26045.05452-.424a.28.28,0,0,1,.02422-.33919.64607.64607,0,0,0,.03029-.7026c-.09691-.09691-.103-.13325-.03029-.3089.07269-.16354.07269-.20594,0-.26045a.35868.35868,0,0,1-.11508-.19988.59308.59308,0,0,0-.05451-.18171.166.166,0,0,1,.02423-.13325.2808.2808,0,0,0-.03634-.24833.66252.66252,0,0,1,.03028-.61781c.103-.103.07874-.2241-.06663-.34524-.109-.0848-.1393-.18171-.15142-.46033-.0424-.91459-.06057-1.0963-.13325-1.22349a.31074.31074,0,0,1-.04846-.212c.01212-.03635-.04845-.1272-.13325-.19988-.16353-.13931-.16353-.15142-.20593-.96305A1.60848,1.60848,0,0,0,9.49,2.61555a.78664.78664,0,0,1-.07268-.30285c-.01212-.12114-.03634-.30284-.05451-.39975-.01817-.103-.0424-.27256-.05452-.38159a.65352.65352,0,0,0-.06057-.23622c-.11508-.11508.50879-.56329.78135-.56329.04845,0,.09085-.01211.09085-.02423A3.86458,3.86458,0,0,0,9.793.34419L9.46589.005H8.10309C6.80085.005,6.74028.01106,6.66154.1322ZM4.84447,5.008a.61947.61947,0,0,1,.1272.218,4.95359,4.95359,0,0,0,.527.56329,2.92506,2.92506,0,0,1,.533.6178.928.928,0,0,0,.14536.321,1.5748,1.5748,0,0,1,.16959.38159,1.1095,1.1095,0,0,0,.27257.41187,3.68448,3.68448,0,0,1,.745,1.58691.31346.31346,0,0,0,.11508.1817.43716.43716,0,0,1,.13325.22411c.01817.0848.03634.17565.0424.212a1.67571,1.67571,0,0,0,.12719.23016c.09086.13326.103.19988.05451.30285-.05451.11508-.04239.16354.0848.27256.11508.103.13325.15142.0848.24228-.03634.06662-.04846.13325-.03029.15142a.9745.9745,0,0,1,.01212.54512.22261.22261,0,0,0,.0424.18171.20255.20255,0,0,1,.02422.23622.22136.22136,0,0,0-.01817.1817.47718.47718,0,0,1,.03634.24834.65906.65906,0,0,0,.0424.27862.19408.19408,0,0,1-.02423.23016c-.04845.06662-.07268.13931-.05451.15748s.00606.0848-.02422.14536a.20275.20275,0,0,0,0,.218.30832.30832,0,0,1-.00606.27256,1.6877,1.6877,0,0,0-.0848.38159c-.03028.27862-.06662.33313-.27862.40581-.15142.05451-.20593.0424-.37552-.08479a2.29763,2.29763,0,0,0-1.00545-.34525,1.0467,1.0467,0,0,1-.3937-.11508,1.109,1.109,0,0,0-.30285-.12719.602.602,0,0,1-.28467-.24834,3.468,3.468,0,0,0-.73894-.76923.70241.70241,0,0,1-.19988-.34524,1.95721,1.95721,0,0,0-.46033-.67232A3.07571,3.07571,0,0,1,3.512,11.283c-.00606-.02423-.01817-.18171-.03028-.34525-.0424-.49666-.06057-.60569-.11508-.69049a.6301.6301,0,0,1-.05452-.1817,1.37992,1.37992,0,0,0-.13931-.34525c-.07268-.13931-.12113-.2665-.103-.28467a2.68408,2.68408,0,0,0,.06057-.56935c.02422-.67837.06056-.91459.14536-1.01756.04846-.05451.03634-.1272-.0424-.26045-.103-.18171-.103-.19382.03029-.36947.103-.14537.12114-.218.07874-.29679a.21453.21453,0,0,1,.03028-.24833.30469.30469,0,0,0,.06663-.212.263.263,0,0,1,.06057-.212.29411.29411,0,0,0,.06057-.212.37394.37394,0,0,1,.08479-.25439A.46163.46163,0,0,0,3.73,5.45622c-.0424-.20594.05451-.32707.44821-.53907C4.54163,4.71728,4.62642,4.72939,4.84447,5.008Z"/>

</g>
</svg>
