<?xml version="1.0" encoding="UTF-8"?>
<svg xmlns="http://www.w3.org/2000/svg"
     version="1.1"
     width="47.39567364mm"
     height="15.96089062mm"
     viewBox="0.00000000 0.00000000 134.34989196 45.24340431">

<g transform="scale(4.54756027)">   <defs>
      <style type="text/css"><![CDATA[
      .a {
        stroke: #000;
        stroke-linecap: round;
        stroke-linejoin: round;
        stroke-width: 0.01px;
      }
    ]]></style>
   </defs>
   <path class="a"
         d="M25.58915.02767a3.4409,3.4409,0,0,1-.57541.08479c-.56934.04846-.59357.06057-1.92609.70866a2.13168,2.13168,0,0,1-.76923.23622.57427.57427,0,0,0-.53907.24228.90479.90479,0,0,1-.33313.24833.49015.49015,0,0,0-.2241.13931,2.598,2.598,0,0,1-.75711.49061.407.407,0,0,0-.19988.12719.25784.25784,0,0,1-.212.09086,1.0423,1.0423,0,0,0-.44822.19988,5.77788,5.77788,0,0,1-.76922.39975,1.81756,1.81756,0,0,0-.57541.33919.54824.54824,0,0,1-.2665.17565.66721.66721,0,0,0-.30286.212.48051.48051,0,0,1-.4058.212c-.212,0-.64809.20594-.64809.30285,0,.03028-.06057.07268-.13325.09691a1.30282,1.30282,0,0,0-.38159.27862,2.22958,2.22958,0,0,1-.424.33313,6.035,6.035,0,0,1-1.84736.13931c-.55118-.02423-1.0963-.02423-1.99878-.01212-.28468.00606-.636-.006-.7874-.01817-.66626-.07268-.82374-.07874-.89036-.01817a2.03057,2.03057,0,0,1-.68444.19382.94881.94881,0,0,0-.27256.07268,5.03111,5.03111,0,0,1-1.3628.00606,4.23939,4.23939,0,0,0-1.496-.00606.70877.70877,0,0,1-.321.05452.36642.36642,0,0,0-.22411.04845.79507.79507,0,0,1-.38159.06663,4.05554,4.05554,0,0,0-1.13869.03028A1.71139,1.71139,0,0,1,3.91754,5.6a2.16163,2.16163,0,0,0-.44216.1272.26152.26152,0,0,1-.28467.02423,1.62463,1.62463,0,0,0-.80557.03634,4.95975,4.95975,0,0,0-1.33253.79344.59183.59183,0,0,1-.27861.1393c-.09691,0-.23016.103-.41793.33313a.19775.19775,0,0,1-.19383.06057c-.06057-.01817-.12719-.00606-.14536.02423-.05452.0848.09085.36947.18776.36947a1.53955,1.53955,0,0,1,.38159.15142c.27861.13931.3513.15143.93276.1272a5.29219,5.29219,0,0,0,.68443-.05451.15177.15177,0,0,1,.13325.01211.50812.50812,0,0,0,.30285-.00606A4.00849,4.00849,0,0,1,4.608,7.53825a2.25862,2.25862,0,0,0,1.52029.07269,4.18228,4.18228,0,0,1,1.10841-.103,3.75818,3.75818,0,0,0,.6663-.07869,4.92421,4.92421,0,0,1,1.066-.07268,1.837,1.837,0,0,0,1.12659-.18171,2.83,2.83,0,0,1,.69048-.23622,1.33639,1.33639,0,0,0,.43-.13325,3.36133,3.36133,0,0,1,1.15082-.33919,2.26054,2.26054,0,0,0,.5754-.109,3.22667,3.22667,0,0,1,.98122-.212c.32708-.01818.49667.07268.50878.27861.02423.3937.23622.78134.424.78134a.278.278,0,0,1,.15748.07874.59279.59279,0,0,0,.23016.12114,1.19952,1.19952,0,0,1,.3937.25439,1.40132,1.40132,0,0,0,.73894.3937.72672.72672,0,0,1,.29073.109c.103.06057.36342.1817.58752.27861a1.96887,1.96887,0,0,1,.50878.28468.33458.33458,0,0,0,.17565.11508,1.00758,1.00758,0,0,1,.315.17565.91639.91639,0,0,0,.27256.15748.88874.88874,0,0,1,.29074.06663,4.24986,4.24986,0,0,0,1.12658.12113,8.33038,8.33038,0,0,1,1.02968.07874.85153.85153,0,0,0,.36947-.01211.53379.53379,0,0,1,.45427.06057,3.78577,3.78577,0,0,0,.9267.315,1.40059,1.40059,0,0,1,.35736.109.21249.21249,0,0,0,.25439-.02422,1.70364,1.70364,0,0,1,.59358-.109,3.34654,3.34654,0,0,0,.68443-.09691,7.37137,7.37137,0,0,0,.92671-.37553,3.18058,3.18058,0,0,1,.54512-.19382,2.304,2.304,0,0,0,.45427-.16354c.13325-.06662.36341-.15747.51483-.212a1.34361,1.34361,0,0,0,.745-.69654.56358.56358,0,0,1,.22411-.27256.46512.46512,0,0,0,.18171-.13931,1.2841,1.2841,0,0,1,.20593-.27862,1.8893,1.8893,0,0,0,.30285-.58146c.07874-.27256.13325-.35736.23622-.38159a.37886.37886,0,0,0,.212-.19988c.0424-.09085.13931-.28467.2241-.43609a1.32013,1.32013,0,0,0,.15143-.54513V4.06157a.40259.40259,0,0,0-.12114-.26045.28976.28976,0,0,1-.061-.40521l.00044-.0006a.71782.71782,0,0,0-.3089-.642.9057.9057,0,0,1-.24834-.59358c.00606-.02423-.01211-.0424-.04239-.0424-.07269,0-.15143-.218-.1696-.48455C28.5389.9544,28.50256.85144,28.19971.54253c-.49671-.50275-.48458-.50275-1.593-.527A8.07831,8.07831,0,0,0,25.58915.02767Zm-.28467,1.593a.7715.7715,0,0,0,.12719.26045.51159.51159,0,0,1,.07874.27256c.01212.1272.04846.24228.0848.25439.11508.03634.25439.19988.218.25439-.04846.07268.14536.46638.39975.81768a2.3517,2.3517,0,0,1,.50878,1.066.20242.20242,0,0,0,.05452.20594.209.209,0,0,1,.06056.1817.79616.79616,0,0,0,.09086.36342c.09691.218.109.3089.06057.40581a.27686.27686,0,0,0-.03029.19988,1.12794,1.12794,0,0,1-.06057.40581c-.04845.17565-.103.37553-.11508.44216a1.52167,1.52167,0,0,1-.7026.96305,6.96894,6.96894,0,0,1-1.9261.64808.93221.93221,0,0,1-.81162-.109,2.99545,2.99545,0,0,0-1.01151-.35736,1.874,1.874,0,0,1-.9146-.4361.68951.68951,0,0,0-.15142-.1393,1.461,1.461,0,0,1-.23016-.28468,2.04066,2.04066,0,0,0-.44216-.44215.95912.95912,0,0,1-.26045-.23017c0-.03028-.06057-.06662-.13324-.08479a1.60691,1.60691,0,0,1-.84191-.41187c-.103-.14537-.16354-.17565-.38764-.17565-.33919,0-.47244-.12114-.4361-.40582a.49445.49445,0,0,1,.34524-.41187,1.73359,1.73359,0,0,0,.35736-.39369,1.5464,1.5464,0,0,1,.315-.36342c.03029,0,.09691-.09085.15142-.19988.13931-.29679.5209-.527,1.73834-1.066a1.581,1.581,0,0,1,.43-.1272.30574.30574,0,0,0,.218-.09691,3.32846,3.32846,0,0,1,.56935-.32707,10.02828,10.02828,0,0,0,.91459-.51484,2.30513,2.30513,0,0,1,1.07813-.424.57872.57872,0,0,0,.19988-.04846c.01817-.01817.11508-.00606.20593.03029a.37767.37767,0,0,1,.24839.27858Z"/>

</g>
</svg>
