<?xml version="1.0" encoding="UTF-8"?>
<svg xmlns="http://www.w3.org/2000/svg"
     version="1.1"
     width="15.66287756mm"
     height="34.43790913mm"
     viewBox="0.00000000 0.00000000 44.39870387 97.61929467">

<g transform="scale(5.31256553)">   <defs>
      <style type="text/css"><![CDATA[
      .a {
        stroke: #000;
        stroke-linecap: round;
        stroke-linejoin: round;
        stroke-width: 0.01px;
      }
    ]]></style>
   </defs>
   <path class="a"
         d="M1.86391.20547a.79939.79939,0,0,0-.19984.24228,1.913,1.913,0,0,1-.48455.67232c-.103.03028-.1696.14536-.30285.49061a2.28817,2.28817,0,0,1-.43.56935,1.81917,1.81917,0,0,0-.35736.46032.73366.73366,0,0,1-.06662.22411.47847.47847,0,0,0,.23622.55118,2.03954,2.03954,0,0,1,.41792.424,1.36766,1.36766,0,0,0,.642.51484c.315.12719.34524.13325.52089.03634a.34733.34733,0,0,1,.29679-.0424,1.316,1.316,0,0,0,.40581.06663c.1696.00605.5209.02422.7874.03634a2.908,2.908,0,0,0,1.29012-.20594c.25439-.13325.61781.18777.61781.54513A.612.612,0,0,0,5.3285,5.051a1.876,1.876,0,0,1,.11508.72078,2.72751,2.72751,0,0,0,.07269.65414.66259.66259,0,0,1,.06056.23016c.01212.0848.03635.23622.05452.33919a.88227.88227,0,0,1-.06663.39976.67355.67355,0,0,0-.03028.51483,5.054,5.054,0,0,1,.09085.81163A1.862,1.862,0,0,0,5.82517,9.727c.0424.06662.06057.14536.03634.16353a3.84622,3.84622,0,0,0-.06057.67838,4.654,4.654,0,0,0,.13325,1.37492c.18777.88431.18171.77528.06057,1.25983a5.07684,5.07684,0,0,0-.11508.66021c-.01817.27861-.15748.44821-.3089.38764a2.97985,2.97985,0,0,1-.43-.72077,5.04282,5.04282,0,0,0-.50273-.848,2.58024,2.58024,0,0,1-.24833-.29679c-.04846-.07268-.23016-.30284-.40581-.50272a1.387,1.387,0,0,1-.3513-.61175c-.02423-.13931-.06057-.24833-.09086-.24833-.02423,0-.103-.09691-.17565-.212-.09691-.16959-.15748-.212-.321-.212-.17565,0-.59358.218-.59358.315a2.53018,2.53018,0,0,1-.25439.35736,5.3765,5.3765,0,0,0-.89037,1.8413,4.74,4.74,0,0,1-.1817.47244c-.11509.2665-.11509.3089-.03635.46032a2.83561,2.83561,0,0,0,1.07208.92671,1.59854,1.59854,0,0,1,.87219.88431.7826.7826,0,0,0,.47244.46638,1.551,1.551,0,0,0,.50272.15143A1.91912,1.91912,0,0,0,5.2377,15.5961c.33313-.49666.46638-.53906.636-.20593a1.11861,1.11861,0,0,1,0,.86614,3.44716,3.44716,0,0,0-.13931,1.52028c.103.32707.23622.56329.3513.59358a1.73843,1.73843,0,0,0,.8722-.30285c.19382-.16353.22411-.218.19382-.34524a1.53721,1.53721,0,0,1,.48455-.90248.54875.54875,0,0,0,.20594-.29073.6339.6339,0,0,1,.06662-.24834,2.56914,2.56914,0,0,0,.13931-1.02967,4.904,4.904,0,0,1,.06057-.642,6.12323,6.12323,0,0,0,.15143-2.07752.78025.78025,0,0,1,.05451-.33919.50873.50873,0,0,0,.01211-.3513.6169.6169,0,0,1-.02423-.27862,1.77188,1.77188,0,0,0-.09085-.43c-.14537-.46638-.16354-.642-.09691-.83585a3.53826,3.53826,0,0,0,.02411-1.46587,1.002,1.002,0,0,1,0-.52089,3.03228,3.03228,0,0,0,.03634-.67837,10.58731,10.58731,0,0,1-.01814-1.99878.97987.97987,0,0,0-.0424-.54513,7.305,7.305,0,0,1-.12114-1.496,10.92184,10.92184,0,0,0-.0848-1.39309,2.35989,2.35989,0,0,1-.03634-.65415c.02423-.44821-.01211-.53906-.27256-.7026A.45924.45924,0,0,0,6.952.88711L6.9396.902a.84212.84212,0,0,1-.29073.24228.65109.65109,0,0,0-.27256.24227.78188.78188,0,0,1-.61781.39976,1.12087,1.12087,0,0,0-.38158.11508c-.59358.32707-.7874.36947-1.01151.218A8.83485,8.83485,0,0,1,2.63314.2297c0-.06057-.38159-.23622-.49667-.2241A.76848.76848,0,0,0,1.86391.20547Z"/>

</g>
</svg>
