<?xml version="1.0" encoding="UTF-8"?>
<svg xmlns="http://www.w3.org/2000/svg"
     version="1.1"
     width="34.88917855mm"
     height="18.29240387mm"
     viewBox="0.00000000 0.00000000 98.89840228 51.85240759">

<g transform="scale(4.20438676)">   <defs>
      <style type="text/css"><![CDATA[
      .a {
        stroke: #000;
        stroke-linecap: round;
        stroke-linejoin: round;
        stroke-width: 0.01px;
      }
    ]]></style>
   </defs>
   <path class="a"
         d="M20.71207.053a1.70955,1.70955,0,0,1-.48.018,2.47894,2.47894,0,0,0-.564.036.86464.86464,0,0,1-.384.018.663.663,0,0,0-.342.006,7.272,7.272,0,0,1-.75.078,7.128,7.128,0,0,0-.72.066,3.48616,3.48616,0,0,1-.81.078,2.11623,2.11623,0,0,0-.282,0,1.68967,1.68967,0,0,1-.18.006c-.06-.006-.24,0-.408.006a8.99373,8.99373,0,0,1-1.122-.03c-.618-.036-.648-.03-.864.114a.88668.88668,0,0,1-.3.15.39091.39091,0,0,0-.204.12.415.415,0,0,1-.24.12.76853.76853,0,0,0-.342.198,8.864,8.864,0,0,1-1.032.732,3.95309,3.95309,0,0,0-.384.276c-.066.054-.198.168-.306.258-.102.084-.366.318-.582.51a4.30592,4.30592,0,0,1-.582.45.49436.49436,0,0,0-.21.174,1.9995,1.9995,0,0,1-.402.366,2.98735,2.98735,0,0,0-.486.426.7016.7016,0,0,1-.252.186,3.39578,3.39578,0,0,0-.774.612c-.03.024-.186.21-.354.414a1.77863,1.77863,0,0,1-.36.378.77108.77108,0,0,0-.228.174,1.27278,1.27278,0,0,1-.228.192,2.06615,2.06615,0,0,0-.252.282,1.25521,1.25521,0,0,1-1.074.51.8349.8349,0,0,1-.582-.108,10.05417,10.05417,0,0,0-1.578-.558,1.46864,1.46864,0,0,1-.312-.066,1.77412,1.77412,0,0,0-.444-.078c-.222.006-.552.318-.702.66-.096.222-.162.282-.456.408-.192.084-.48.21-.636.282a.72437.72437,0,0,0-.486.618c-.036.162-.012.204.258.438a1.419,1.419,0,0,1,.342.39,3.38668,3.38668,0,0,0,.144.366c.096.228.21.528.396,1.08a2.74725,2.74725,0,0,1,.114.51.82774.82774,0,0,0,.24.498,1.1158,1.1158,0,0,1,.21.276,5.28334,5.28334,0,0,0,1.062.516,1.84383,1.84383,0,0,0,1.158.048c.18-.048.45-.12.594-.156a.60693.60693,0,0,0,.36-.216,2.957,2.957,0,0,1,.75-.768c.156-.084.186-.078.342.036a.596.596,0,0,0,.306.126.74169.74169,0,0,1,.318.108c.276.174.468.204,1.44.222a4.82214,4.82214,0,0,1,1.152.114,2.25561,2.25561,0,0,0,.876.102h.24c.072,0,.198,0,.282-.006a1.27542,1.27542,0,0,1,.33.03,4.75678,4.75678,0,0,0,1.23.096c.216,0,.594,0,.84.006a4.01143,4.01143,0,0,0,1.14-.126,1.74453,1.74453,0,0,1,.492-.024c.186.03.246.012.336-.108a.499.499,0,0,1,.288-.15,3.62166,3.62166,0,0,0,.414-.084,4.7895,4.7895,0,0,1,.93-.15,3.72077,3.72077,0,0,0,.72-.162c.18-.066.372-.132.42-.144.276-.072,1.254-.408,1.392-.48a.66578.66578,0,0,1,.264-.084,2.5064,2.5064,0,0,0,1.038-.576.51056.51056,0,0,1,.228-.222,4.71008,4.71008,0,0,0,.708-.612c.306-.3.642-.618.756-.708a4.26794,4.26794,0,0,0,.894-1.026,3.749,3.749,0,0,1,.288-.51c.198-.306.234-.396.192-.534a1.20054,1.20054,0,0,0-.282-.57,1.304,1.304,0,0,1-.228-.336c-.132-.306-.372-.384-1.05-.348a1.99042,1.99042,0,0,0-.942.156.59286.59286,0,0,1-.288.042.60657.60657,0,0,0-.318.054,3.38007,3.38007,0,0,1-1.812.306c-.084-.024-.21-.048-.276-.06a1.24074,1.24074,0,0,1-.588-.432c-.036-.096-.018-.24.096-.654.114-.426.18-.564.318-.654.282-.186.24-.888-.06-.96a.27809.27809,0,0,1,.018-.552,2.09772,2.09772,0,0,0,.252-.066,2.43381,2.43381,0,0,1,.294-.054,1.0548,1.0548,0,0,0,.318-.09c.09-.048.15-.036.264.036a1.39407,1.39407,0,0,1,.498.84c0,.096-.006.246,0,.33.012.3.648.48.954.264a1.80555,1.80555,0,0,0,.432-.762,2.536,2.536,0,0,1,.372-.558,5.0308,5.0308,0,0,0,.516-.774.59458.59458,0,0,0,.072-.546.65475.65475,0,0,0-.354-.426,3.73922,3.73922,0,0,0-.774-.432C20.91007.011,20.81407.035,20.71207.053Zm-4.284,2.892c.042.084.03.138-.066.234s-.15.108-.234.066c-.168-.096-.198-.234-.066-.366S16.33207,2.777,16.42807,2.945Zm-.99.384c.18.18.138.288-.186.534a.53138.53138,0,0,0-.21.282,1.81692,1.81692,0,0,1-.18.474c-.15.294-.168.384-.12.486a.88968.88968,0,0,1,.06.372c0,.138,0,.33-.006.42a.91224.91224,0,0,0,.126.372.46461.46461,0,0,1,.09.282c-.054.132.33.732.552.882a.90114.90114,0,0,0,.426.126.616.616,0,0,1,.552.3c.078.144-.186.426-.69.732a3.03312,3.03312,0,0,1-1.2.39,1.03876,1.03876,0,0,0-.3.108,3.28631,3.28631,0,0,1-1.116.18,1.30574,1.30574,0,0,0-.468.09,1.07081,1.07081,0,0,1-.54.03,1.243,1.243,0,0,0-.612.042,5.10554,5.10554,0,0,1-1.506.024c-.096-.006-.288-.018-.438-.024-.264-.012-.51-.162-.51-.318a1.2852,1.2852,0,0,1,.276-.348c.378-.378.444-.48.444-.708a.68153.68153,0,0,0-.396-.648,1.53948,1.53948,0,0,1-.39-.366l-.126-.204.192-.288a1.33222,1.33222,0,0,1,.786-.552,1.83029,1.83029,0,0,0,.402-.264,4.58053,4.58053,0,0,1,.81-.48,4.09167,4.09167,0,0,0,.654-.366,3.05435,3.05435,0,0,1,.918-.486,2.11231,2.11231,0,0,0,.546-.294,2.21572,2.21572,0,0,1,.384-.24.99079.99079,0,0,0,.288-.204.742.742,0,0,1,.498-.216,2.00933,2.00933,0,0,0,.534-.156C15.25207,3.149,15.25807,3.155,15.43807,3.329Z"/>

</g>
</svg>
