<?xml version="1.0" encoding="UTF-8"?>
<svg xmlns="http://www.w3.org/2000/svg"
     version="1.1"
     width="43.51411030mm"
     height="19.52586503mm"
     viewBox="0.00000000 0.00000000 123.34712058 55.34891000">

<g transform="scale(3.93535720)">   <defs>
      <style type="text/css"><![CDATA[
      .a {
        fill: #000;
        stroke: #000;
        stroke-linejoin: round;
        stroke-width: 0.25px;
        fill-rule: evenodd;
      }
    ]]></style>
   </defs>
   <path class="a"
         d="M6.12081,8.74311c-1.40919-.72511-2.0186-2.0019-.9151-3.2866.8184-.9531,1.7305-1.7827,1.7764-3.14351A1.973,1.973,0,0,0,5.19791.19821c-1.8877-.3467-2.0312.5806-2.8935,1.8819a9.57088,9.57088,0,0,0-1.7032,2.6147A6.92154,6.92154,0,0,0,.235,8.05911a8.11276,8.11276,0,0,0,2.1651,2.6801c2.3838,2.3579,5.292,2.899,8.5498,2.8794,2.7275-.01561,5.4551,0,8.1836,0,2.32611,0,4.623.1968,6.9082.1973,1.2265.0005,4.9883.6362,5.17191-.9805.10839-.9629-1.69151-.7905-2.40431-.7939-1.72469-.0088-3.3926-.4033-5.0948-.3946a50.24587,50.24587,0,0,1-9.4677-.6347c-.9688-.1821-1.9288-.44-2.877-.69-1.0478-.2758-2.1953-.11621-3.1846-.5869C7.487,9.40181,6.80731,9.09711,6.12081,8.74311Z"/>

</g>
</svg>
