<?xml version="1.0" encoding="UTF-8"?>
<svg xmlns="http://www.w3.org/2000/svg"
     version="1.1"
     width="19.65356629mm"
     height="17.50959728mm"
     viewBox="0.00000000 0.00000000 55.71085733 49.63351822">

<g transform="scale(4.36982859)">   <defs>
      <style type="text/css"><![CDATA[
      .a {
        stroke: #000;
        stroke-linecap: round;
        stroke-linejoin: round;
        stroke-width: 0.01px;
      }
    ]]></style>
   </defs>
   <path class="a"
         d="M5.2213.252c-.18171.212-.212.28468-.16354.36947.09085.16354-.0848.49061-.321.61781a3.93293,3.93293,0,0,0-.49666.33313,1.48092,1.48092,0,0,1-.3513.23622,8.76127,8.76127,0,0,0-.848.7874,8.02949,8.02949,0,0,1-.90854.81768.24089.24089,0,0,0-.14536.15142,1.87184,1.87184,0,0,1-.18777.33919c-.0848.12114-.2241.36341-.315.533a4.92977,4.92977,0,0,1-.45427.68443,1.19878,1.19878,0,0,0-.26044.4361c.02422.03028.01211.12113-.01817.19987a3.83433,3.83433,0,0,1-.41793.9146.55912.55912,0,0,0-.11508.24227c-.01212.07269-.03029.212-.04846.315a3.2507,3.2507,0,0,0,0,.90854A1.51088,1.51088,0,0,1,.20612,8.441c0,.06663-.006.218-.01211.33314a1.00865,1.00865,0,0,1-.09085.38158.99072.99072,0,0,0-.09086.3937c0,.12114,0,.37553-.006.55724-.00606.6602.00605.78739.103.78739a2.86882,2.86882,0,0,1,.57541.24834,1.07519,1.07519,0,0,0,1.0963.109.4717.4717,0,0,1,.30285-.00606.52749.52749,0,0,0,.38158-.01817.60063.60063,0,0,1,.3937-.02422,2.09144,2.09144,0,0,0,1.10236-.15748,5.6437,5.6437,0,0,1,.99333-.36342,2.37994,2.37994,0,0,0,1.36281-.56329,5.42776,5.42776,0,0,1,1.272-.8298,3.01716,3.01716,0,0,0,.545-.30292c.51484-.33919.62992-.36947.78134-.218a.4706.4706,0,0,1,.07874.636.47147.47147,0,0,0-.07268.424.40755.40755,0,0,1-.03029.32707c-.17565.24228.321.79951.70866.79951a.85953.85953,0,0,0,.44821-.24833,2.65838,2.65838,0,0,1,.4785-.33919.74338.74338,0,0,0,.3937-.527,1.39925,1.39925,0,0,1,.29073-.59358,2.051,2.051,0,0,0,.24833-.50272,5.48227,5.48227,0,0,1,.3937-.78134.91719.91719,0,0,0,.1696-.43.66531.66531,0,0,1,.07874-.33313,1.77827,1.77827,0,0,0,.12113-.29073c.01212-.06057.09086-.28468.1696-.50878a1.82817,1.82817,0,0,0,.12114-.4361c-.01818-.01212,0-.07874.03634-.14537a1.24469,1.24469,0,0,0,.09691-.3513c.01817-.13325.0424-.30284.05451-.38764a.90839.90839,0,0,1,.0424-.212.40159.40159,0,0,0-.09086-.22411.34324.34324,0,0,1-.03634-.38158c.06057-.18777.04846-.27256-.09085-.67838a6.11058,6.11058,0,0,0-.25439-.642,2.23165,2.23165,0,0,1-.13325-.87219c-.00606-.18171-.61175-.56935-.97517-.62992-.15142-.02423-.3513-.06663-.44215-.09086a.28269.28269,0,0,0-.28469.06663,1.77847,1.77847,0,0,0-.44215.83585A6.39461,6.39461,0,0,1,9.50959,3.5772a4.263,4.263,0,0,1-1.2235,1.29012,2.58715,2.58715,0,0,0-.3937.30284,2.18148,2.18148,0,0,1-.44821.29074,1.64112,1.64112,0,0,1-.91459.19987c-.29679.01212-.58752.02423-.636.03029a.8396.8396,0,0,1-.7026-.15748c-.0848-.0848-.13325-.18171-.109-.22411a.78739.78739,0,0,0,.06662-.25439A2.6115,2.6115,0,0,1,5.43329,3.8437a1.13543,1.13543,0,0,0,.12114-.29679c.06056-.32707.39369-.75711.52089-.67837A1.72528,1.72528,0,0,0,6.893,2.82008c1.25378-.315,1.35675-.37553,1.58691-1.02362.19988-.55117.18171-.82979-.05451-1.12658A.79551.79551,0,0,0,7.69251.29435,3.1734,3.1734,0,0,1,7.07471.2035,1.42155,1.42155,0,0,0,6.578.14293,1.72588,1.72588,0,0,1,6.06321.08236C5.51808-.04484,5.46357-.03272,5.2213.252Z"/>

</g>
</svg>
