<?xml version="1.0" encoding="UTF-8"?>
<svg xmlns="http://www.w3.org/2000/svg"
     version="1.1"
     width="13.18437936mm"
     height="54.55821437mm"
     viewBox="0.00000000 0.00000000 37.37299701 154.65327082">

<g transform="scale(5.40924245)">   <defs>
      <style type="text/css"><![CDATA[
      .a {
        stroke: #000;
        stroke-linecap: round;
        stroke-linejoin: round;
        stroke-width: 0.01px;
      }
    ]]></style>
   </defs>
   <path class="a"
         d="M4.54768.15631a2.26737,2.26737,0,0,0-.52089.29074.47619.47619,0,0,1-.315.14536.58363.58363,0,0,0-.321.12114,4.03582,4.03582,0,0,1-.84191.636c-.13931.04239-.2665.15142-.71471.58146a2.88128,2.88128,0,0,1-.49667.38764A2.44881,2.44881,0,0,0,.853,2.6881c-.15143.14537-.39976.38764-.55724.53907L.005,3.49367V4.2629c0,.73289.00606.77528.14537.90248a.76767.76767,0,0,1,.18776.36947c.07268.47244.103.53907.315.73289.14537.13931.24833.19382.32707.16959s.212.06057.46638.315a3.62874,3.62874,0,0,0,.54513.45427.9422.9422,0,0,1,.40581.9267,3.70927,3.70927,0,0,0,.0424.65415.87329.87329,0,0,1-.00606.47244.32464.32464,0,0,0,.03634.33919,1.82185,1.82185,0,0,1,.07269,1.06.98151.98151,0,0,0-.09086.28467,2.611,2.611,0,0,1-.13931.56935.51822.51822,0,0,0-.0424.2665c.01818.01818.00606.07874-.01817.13326a.18767.18767,0,0,0,.03029.212c.07268.103.07268.13931-.00606.25439-.07874.12719-.07874.15748.03634.3513a1.49406,1.49406,0,0,1,.14537.3513c.02423.14537.06662.3513.109.56329a.3987.3987,0,0,1-.03028.22411.23045.23045,0,0,0,.03634.24227.76931.76931,0,0,1,.05451.44216,2.601,2.601,0,0,0,.07268,1.10841,3.96231,3.96231,0,0,1,.15143,1.56874.85552.85552,0,0,0,.08479.45427,4.15241,4.15241,0,0,1,.18777,1.381c.01211.1817.0424.41792.06057.52089a.56661.56661,0,0,1-.01817.3089.22032.22032,0,0,0-.00606.212,4.31035,4.31035,0,0,1,.05451,1.01756,1.6013,1.6013,0,0,0,.06057.3513.5376.5376,0,0,1-.09691.533,1.41089,1.41089,0,0,1-.2665.33918c-.0848.05451-.09086.09691-.0424.23622a.39892.39892,0,0,1-.04846.3937,1.87916,1.87916,0,0,1-.47244.69655.43318.43318,0,0,0-.14536.50878.51274.51274,0,0,1-.04846.27256.47053.47053,0,0,0-.0424.26044.47442.47442,0,0,1-.07268.26045c-.07874.11508-.08479.17565-.03634.26651a.35664.35664,0,0,1,.03634.23016,1.65122,1.65122,0,0,0,.52695,1.0963,4.04617,4.04617,0,0,1,.315.27862,3.24512,3.24512,0,0,0,.46638.3513A1.22439,1.22439,0,0,1,3.73,27.5396a.33849.33849,0,0,0,.16959.17565c.07269.0424.17565.09692.22411.13326a5.53711,5.53711,0,0,0,.71471.3089.63775.63775,0,0,1,.16354.07268.59767.59767,0,0,0,.218.07874,2.18926,2.18926,0,0,1,.43.15748c.3089.14537.34524.14537.55118.06663.16959-.07269.2241-.1272.2241-.23622,0-.15142.212-.41187.29074-.36342.02422.01817.05451-.05451.06057-.15748a.809.809,0,0,1,.07268-.28467,6.3816,6.3816,0,0,0,.02423-1.45972c-.01212-.15142-.03635-.38158-.0424-.51483a1.45113,1.45113,0,0,0-.12114-.4361.9677.9677,0,0,1-.103-.28468,2.00351,2.00351,0,0,0-.73288-.8843c-.03029,0-.11509-.103-.19988-.22411a3.44945,3.44945,0,0,0-.36342-.46033l-.218-.23621.13326-.24228a2.56514,2.56514,0,0,1,.321-.43c.212-.21805.47244-.64809.43-.69655-.01817-.01211.01212-.109.06057-.20593a.51138.51138,0,0,0,.05451-.34525,10.19925,10.19925,0,0,1-.103-1.24772,7.42651,7.42651,0,0,1,.09691-.98728,2.23137,2.23137,0,0,0,.06662-.3089,2.08445,2.08445,0,0,1,.09086-.39975.56713.56713,0,0,0-.03634-.38765,1.0876,1.0876,0,0,1,0-.69048,7.52061,7.52061,0,0,0,.218-1.708c0-.103-.00605-.23622-.00605-.30285a10.9265,10.9265,0,0,1,.109-1.1811,1.35993,1.35993,0,0,0,.05451-.76922.57809.57809,0,0,1,.04846-.34525.787.787,0,0,0,.05451-.41792,4.171,4.171,0,0,1-.04845-.41793,1.22569,1.22569,0,0,0-.05452-.28468c-.02422-.03634.01818-.17565.09086-.321.13931-.27256.14536-.38764.11508-1.89581A5.932,5.932,0,0,1,6.819,8.43611a2.94354,2.94354,0,0,0,.04846-.39976,3.26249,3.26249,0,0,0-.33919-.95093.31669.31669,0,0,1-.06662-.18171A2.62522,2.62522,0,0,0,6.177,6.21928a.54428.54428,0,0,1-.0848-.3089.662.662,0,0,0-.14536-.3513.79984.79984,0,0,1-.15142-.315c.01817-.02423-.01212-.1272-.06663-.23016a.362.362,0,0,1-.06057-.23622c.04846-.0848-.12719-.44216-.315-.642a4.036,4.036,0,0,1-.50878-.67837c-.09691-.14537-.09691-.16959.103-.56935a2.39875,2.39875,0,0,0,.20593-.50876c0-.23622.218-.49061.66626-.7874.39976-.27256.49667-.38158.4361-.50272A1.345,1.345,0,0,1,6.2739.39859C6.34053.13814,6.09825.017,5.45016.011A1.938,1.938,0,0,0,4.54768.15631Z"/>

</g>
</svg>
