<?xml version="1.0" encoding="UTF-8"?>
<svg xmlns="http://www.w3.org/2000/svg"
     version="1.1"
     width="41.74224378mm"
     height="52.82551823mm"
     viewBox="0.00000000 0.00000000 118.32444220 149.74165666">

<g transform="scale(4.67561906)">   <defs>
      <style type="text/css"><![CDATA[
      .a {
        stroke: #000;
        stroke-linecap: round;
        stroke-linejoin: round;
        stroke-width: 0.01px;
      }
    ]]></style>
   </defs>
   <path class="a"
         d="M2.82752.12743a1.15669,1.15669,0,0,0-.25439.3089A3.74043,3.74043,0,0,1,1.48289,1.46a1.05155,1.05155,0,0,0-.321.19987,2.00506,2.00506,0,0,1-.43.24228,1.19319,1.19319,0,0,0-.36342.212c0,.03029-.08479.0848-.1817.1272C.01711,2.314.005,2.3382.005,2.6471c0,.25439.02423.33313.109.35736.4785.15142.54513.24228.64809.87825A.85983.85983,0,0,0,.9438,4.2643a.93358.93358,0,0,1,.15748.20593c0,.02423.01211.109.01817.19382a2.317,2.317,0,0,0,.35736.86008.33788.33788,0,0,1,.109.30891.68811.68811,0,0,0,.09691.24227,1.35269,1.35269,0,0,1,.11509.46638,3.944,3.944,0,0,0,.18776,1.07208.91529.91529,0,0,1,.06057.38764.629.629,0,0,0,.0424.321,1.53064,1.53064,0,0,1,.07874.46638.93264.93264,0,0,0,.09691.424.70667.70667,0,0,1,.09691.32707,5.36558,5.36558,0,0,0,.11508,1.24773.29633.29633,0,0,1,.03028.19988.95652.95652,0,0,0,.02423.751.49881.49881,0,0,1,.06663.424.42454.42454,0,0,0,.01817.32707,2.14707,2.14707,0,0,1,.18171,1.24772.7099.7099,0,0,0,.006.44216.91693.91693,0,0,1-.09085.70866c-.109.2665-.14537.424-.109.51483a1.97712,1.97712,0,0,1,.05452,1.41732.42713.42713,0,0,0,0,.30285.42957.42957,0,0,1-.02423.3513,1.4727,1.4727,0,0,0-.05451.48455c.01211.13325.0424.41793.06662.636a1.95937,1.95937,0,0,0,.0848.48455.724.724,0,0,1,.00606.33313,5.20324,5.20324,0,0,0-.03029.75711c.01212.28468.03634,1.04785.05451,1.69594s.03635,1.23561.03635,1.30223a4.88472,4.88472,0,0,1-.12114.89037.98761.98761,0,0,0,.01211.527.46014.46014,0,0,1-.0424.41793c-.08479.19381-.09691.2665-.03634.36947a.42159.42159,0,0,1,0,.34524,1.91178,1.91178,0,0,0,.0848,1.0539.48284.48284,0,0,1,.05451.25439.36006.36006,0,0,0,.06057.24228.58382.58382,0,0,1,.02423.72077,1.33815,1.33815,0,0,0-.17565,1.19321.4635.4635,0,0,1,.05451.315c-.0424.18777.09691.60569.19988.60569.03028,0,.09085.11509.12719.25439A1.34659,1.34659,0,0,0,3.203,30.727a.91132.91132,0,0,1,.103.49666c.01817.48456.11508.642.47243.745.24228.07269.29074.07269.43005-.01817a1.07354,1.07354,0,0,0,.27861-.3089.62539.62539,0,0,1,.24228-.23622c.109-.03634.2665-.3513.19988-.41187-.0424-.0424.12719-.34524.29073-.53906a1.50232,1.50232,0,0,0,.39976-.59358,3.41448,3.41448,0,0,1,.29678-.60569c.22411-.3937.25439-.49061.23622-.72683-.01817-.15142-.04239-.41793-.06057-.59964a1.02883,1.02883,0,0,1,.0424-.44821,1.19794,1.19794,0,0,0,.0848-.34524,5.82535,5.82535,0,0,1,.11508-.77529,7.889,7.889,0,0,0,.11508-.78134A.63148.63148,0,0,1,6.53437,25.3a.21245.21245,0,0,0,.01817-.24227c-.04846-.12114-.0424-.18171.03028-.24833.07269-.07269.07874-.18777.04846-.5633a4.94609,4.94609,0,0,1-.03028-.533,1.611,1.611,0,0,1,.12113-.50272.89411.89411,0,0,0,.03634-.48455,1.79911,1.79911,0,0,1,.05452-1.066c.109-.23016.109-.24227,0-.424A1.53831,1.53831,0,0,1,6.6676,20.412v-.30286c.00606-.04845-.01211-.40581-.03028-.78739-.01212-.38159-.03029-.73288-.03029-.77528a4.30557,4.30557,0,0,1,.03029-.81164.65113.65113,0,0,0-.07874-.36341c-.09086-.16354-.109-.3089-.09691-.80557.01211-.33313.01817-.64809.02422-.69654,0-.04846-.03634-.26651-.07874-.48456a.96245.96245,0,0,1,.03635-.69654,2.88859,2.88859,0,0,0,.13325-.66626,5.69169,5.69169,0,0,1,.07874-.636,1.2728,1.2728,0,0,0,.006-.54512,2.07742,2.07742,0,0,1-.05451-.36341,4.61964,4.61964,0,0,0-.06662-1.05391,2.12837,2.12837,0,0,1-.03029-.99333c.02423-.30284.01817-.49667-.01817-.49667-.109,0-.19382-.38764-.212-.93882a1.06344,1.06344,0,0,0-.12114-.533.68526.68526,0,0,1-.12114-.27256,1.06681,1.06681,0,0,0-.09691-.27256.31021.31021,0,0,1-.01211-.315.381.381,0,0,0-.01817-.37552,1.29748,1.29748,0,0,1-.09086-.40582.52549.52549,0,0,0-.1817-.38158,1.35894,1.35894,0,0,1-.30285-1.12659c.03634-.12114.0848-.23016.109-.23016.02422-.00606.23621-.01211.46638-.01817A1.16445,1.16445,0,0,0,6.498,4.94267a.78482.78482,0,0,1,.77528-.03634,1.97891,1.97891,0,0,0,.424.15142,1.7699,1.7699,0,0,1,.38158.13325,1.77369,1.77369,0,0,0,.61781.14537,4.70147,4.70147,0,0,0,1.0539-.12114.348.348,0,0,1,.30284,0,.69764.69764,0,0,0,.321.03634A.90269.90269,0,0,1,10.75,5.294a2.60631,2.60631,0,0,0,1.11447.18777c.12114-.02423.34524-.05452.49061-.06663a1.072,1.072,0,0,0,.29679-.05451.91077.91077,0,0,1,.29073.09085,2.54445,2.54445,0,0,0,.88431.18776,2.10618,2.10618,0,0,0,.38158-.09085.67238.67238,0,0,1,.69049.0424,2.12432,2.12432,0,0,0,.58147.19382c.62991.13931.75711.19988.79951.39976a.38712.38712,0,0,0,.17565.23622.39716.39716,0,0,1,.17565.18776,1.01752,1.01752,0,0,1-.32707.72683,1.00721,1.00721,0,0,0-.18777.23016,1.24144,1.24144,0,0,1-.2665.20594.68742.68742,0,0,0-.30285.315c-.02423.08479-.06057.15142-.09085.15142a.84252.84252,0,0,0-.23622.16354c-.103.09691-.218.19987-.26651.23622-.04239.04239-.15748.16959-.26044.29073-.36342.44821-.4361.50272-.66626.54512a.99819.99819,0,0,0-.38159.16354c-.07874.06057-.16959.09692-.19988.07874s-.103.05452-.16353.15142a.46643.46643,0,0,1-.30285.24227,1.3231,1.3231,0,0,0-.70866.38159,1.52264,1.52264,0,0,1-.72683.29073,2.01715,2.01715,0,0,0-.33918.22411c-.15748.12719-.424.32707-.58147.44215s-.30284.22411-.321.24228a2.90537,2.90537,0,0,1-.24228.18171,6.372,6.372,0,0,0-.60569.527c-.218.20593-.52089.47849-.67837.59963a1.01883,1.01883,0,0,0-.29074.27862,1.23575,1.23575,0,0,1-.41792.41187,2.32091,2.32091,0,0,0-.44216.68443.48673.48673,0,0,0-.01211.2665c.0424.15143.0424.15143.533.109a2.74733,2.74733,0,0,0,.67231-.13325,1.54739,1.54739,0,0,1,.72683-.0848c.29679.01211.59964.01211.66626.01211.06663-.006.17565-.006.24228-.006a1.70341,1.70341,0,0,0,.35736-.0848.52645.52645,0,0,1,.46638.01211c.13325.04846.23622.11507.23622.14536,0,.09085.103.04846.27256-.109a.36973.36973,0,0,1,.41793-.11508c.13931.02423.642.04846,1.12658.05452.76317.00605.90248-.00606,1.08419-.109a.3781.3781,0,0,1,.3937-.04845,1.01685,1.01685,0,0,0,.77528.05451,2.11515,2.11515,0,0,1,.8722-.05451,26.94481,26.94481,0,0,0,2.99817-.01212c.13325-.06057.5754.3937.636.64809a1.23525,1.23525,0,0,0,.27256.527.73133.73133,0,0,1,.17566.424,1.91159,1.91159,0,0,1-.26045.56329,6.25059,6.25059,0,0,0-.38159.73894.91376.91376,0,0,1-.33313.44216,1.52083,1.52083,0,0,0-.56329,1.0115c.05451.218.22411.2665.65415.18171a1.41727,1.41727,0,0,0,.9691-.53907,5.373,5.373,0,0,1,.59964-.50878c.15748-.109.28467-.23016.27256-.27256a.56616.56616,0,0,1,.3089-.50878,1.95182,1.95182,0,0,0,.79345-.54512,1.59,1.59,0,0,1,.35131-.4361c.36947-.37553.58752-.81768.49061-.98728a.14753.14753,0,0,1,.04239-.19382c.103-.103.07269-.49061-.04845-.72683a1.63234,1.63234,0,0,1-.1272-.55117.63433.63433,0,0,0-.14536-.27257c-.1272-.1393-.14537-.17565-.13931-.27256a2.93768,2.93768,0,0,0-1.11447-.93882c-.1272,0-.27862-.16959-.24228-.2665a1.42013,1.42013,0,0,1,.315-.28468,5.36879,5.36879,0,0,0,.59963-.51483,3.14114,3.14114,0,0,1,.50878-.424,3.879,3.879,0,0,0,.48456-.321c.15748-.12114.46032-.32708.67231-.46033a2.83832,2.83832,0,0,0,.50273-.38158c.06662-.0848.2241-.25439.34524-.38159.212-.212.22411-.24833.19988-.52089-.03634-.33919-.103-.41187-.40581-.46639-.19988-.03634-.24228-.01817-.4361.17565a.8653.8653,0,0,1-.27862.212,2.86,2.86,0,0,0-.50272.44215,4.56262,4.56262,0,0,1-.96911.73894,2.22238,2.22238,0,0,0-.69654.527.84526.84526,0,0,1-.27862.2665,1.71576,1.71576,0,0,0-.321.18171.8607.8607,0,0,1-.34524.14536,1.43715,1.43715,0,0,0-.48455.24228c-.46639.3089-.642.34524-.92671.18776a2.57588,2.57588,0,0,0-1.35069-.3937c-.218.01212-.44821.01817-.51484.01817-.93882-.01817-.93882-.01817-1.06.11509-.15142.15748-.2241.16353-.54512.03634s-.41187-.28468-.24228-.43c.06663-.06057.19988-.18171.29074-.26651a2.804,2.804,0,0,1,.55117-.35736,3.44665,3.44665,0,0,0,.47244-.27256.6529.6529,0,0,1,.26045-.12113c.18171-.0424.26045-.109.27862-.26045a1.42948,1.42948,0,0,1,.43-.44216c.03028,0,.109-.01211.18776-.01817.12114-.01211.27256-.15142.58752-.54512a1.40044,1.40044,0,0,1,.315-.27256.84009.84009,0,0,0,.28468-.33313c.04845-.12114.11508-.218.14536-.218a1.29536,1.29536,0,0,0,.321-.27256c.33313-.33919.43-.45427.38764-.45427-.01817,0,0-.06057.0424-.13931a.38132.38132,0,0,0,.06046-.1881.72532.72532,0,0,1,.07874-.29073c.07268-.18777.07874-.26045.02423-.36947a1.98618,1.98618,0,0,1-.0848-.61781c-.01211-.57541-.06057-.66626-.55118-1.06-.18171-.15142-.47244-.40581-.636-.56935a1.25087,1.25087,0,0,0-.58147-.37553,12.50613,12.50613,0,0,1-1.49-.533,1.82251,1.82251,0,0,0-.56329-.15748c-.18776,0-.33919-.06663-1.0115-.44216a.75147.75147,0,0,0-.4361-.07268,2.08475,2.08475,0,0,0-.7026.15748.31585.31585,0,0,1-.30285-.03634,7.11572,7.11572,0,0,0-2.56813-.27256c-.15142,0-.81768-.03029-1.3628-.07269A2.14108,2.14108,0,0,0,9.908,1.678a2.38737,2.38737,0,0,1-1.01151-.01818,1.001,1.001,0,0,0-.38158.06663.772.772,0,0,1-.58752.03029,1.17692,1.17692,0,0,0-.854.03028,1.28164,1.28164,0,0,1-.35735.09085,1.84632,1.84632,0,0,0-.38159.09691,2.37025,2.37025,0,0,1-.533.11509.68088.68088,0,0,0-.45427.18776c-.29073.27862-.60569.46032-.72682.424-.12114-.0424-.33919-.43609-.28468-.52695.01817-.03028-.03634-.15748-.12114-.27862a1.01015,1.01015,0,0,1-.15142-.29678.50288.50288,0,0,0-.103-.19383c-.30284-.36341-.315-.38158-.24833-.533a.5353.5353,0,0,0-.3089-.636A.40678.40678,0,0,1,3.19093.085C3.14248-.03611,3.01528-.01794,2.82752.12743Z"/>

</g>
</svg>
