<?xml version="1.0" encoding="UTF-8"?>
<svg xmlns="http://www.w3.org/2000/svg"
     version="1.1"
     width="35.39134236mm"
     height="35.10416392mm"
     viewBox="0.00000000 0.00000000 100.32186270 99.50780394">

<g transform="scale(4.54756027)">   <defs>
      <style type="text/css"><![CDATA[
      .a {
        stroke: #000;
        stroke-linecap: round;
        stroke-linejoin: round;
        stroke-width: 0.01px;
      }
    ]]></style>
   </defs>
   <path class="a"
         d="M19.71405.08992a.46559.46559,0,0,0-.19382.17565.81712.81712,0,0,1-.38764.18774c-.19382.05451-.48455.13325-.65415.18171-.16353.0424-.36947.09691-.45426.11508-.13931.03028-.3513.218-.84191.745-.15748.18171-.212.19988-.50878.19988a2.34166,2.34166,0,0,1-.82374-.18777,2.10308,2.10308,0,0,0-.53907-.15748,1.2569,1.2569,0,0,1-.41793-.0424.94316.94316,0,0,0-.69654.03635,2.23231,2.23231,0,0,1-.50272.13325,1.45538,1.45538,0,0,0-.36342.109,2.25489,2.25489,0,0,1-.56935.13325,2.61864,2.61864,0,0,0-.91459.30891,2.58507,2.58507,0,0,1-.83586.29073.8214.8214,0,0,0-.49061.18171,1.1218,1.1218,0,0,1-.41187.19382,3.26459,3.26459,0,0,0-.66626.24833,3.47794,3.47794,0,0,1-.49061.20593.73835.73835,0,0,0-.2241.18171,3.525,3.525,0,0,1-.418.34529,2.51438,2.51438,0,0,0-.65414.636.24863.24863,0,0,1-.15143.07268,1.42586,1.42586,0,0,0-.24227.08479.20558.20558,0,0,1-.212.00606,1.38352,1.38352,0,0,0-.86613.30285,4.46445,4.46445,0,0,1-.8298.44216,5.13442,5.13442,0,0,0-.88431.46638,1.03582,1.03582,0,0,1-.32707.19988,1.2099,1.2099,0,0,0-.33919.212,4.90173,4.90173,0,0,1-.95093.64809A1.4893,1.4893,0,0,0,2.47,7.04934a.76983.76983,0,0,1-.26045.218,1.36872,1.36872,0,0,0-.33313.27257c-.27256.26044-.27861.27862-.24833.57541.02423.22411.00606.32707-.06057.3937-.04845.04846-.109.07874-.13931.06056a3.73425,3.73425,0,0,0-1.13264.55725A.81167.81167,0,0,0,.126,9.38121c-.01812.07269-.06659.1272-.09687.1272a1.71788,1.71788,0,0,0,.07874.8722,1.59788,1.59788,0,0,0,1.01756.7026,3.19294,3.19294,0,0,1,.51483.15142,1.86624,1.86624,0,0,0,.55118.07268,1.5737,1.5737,0,0,1,.44216.0424,1.62181,1.62181,0,0,0,.99333.05451c.23016-.09085.4361-.09085,1.62325.01817A1.48248,1.48248,0,0,0,6.1284,11.277a6.38988,6.38988,0,0,1,.69049-.23016c.24228-.0424.54512-.18777.54512-.25439,0-.07874.35736-.26651.5633-.29679a1.96836,1.96836,0,0,0,.533-.23622,2.28824,2.28824,0,0,1,.38765-.20594,1.33,1.33,0,0,0,.29073-.18171,1.55507,1.55507,0,0,1,.527-.23016,2.667,2.667,0,0,0,.69654-.315c.23622-.14536.54513-.33313.69655-.41792a3.3278,3.3278,0,0,0,.79345-.61175c.15749-.15142.48456-.44821.72079-.66626s.58146-.53907.7571-.71472a2.44877,2.44877,0,0,1,.37554-.315c.03028,0,.12718-.12113.218-.26044a1.887,1.887,0,0,1,.52089-.46639,1.57051,1.57051,0,0,0,.76923-.9691c.12114-.36947.2665-.54512.46638-.54512a1.27889,1.27889,0,0,0,.89642-.424,1.56925,1.56925,0,0,1,.60569-.3937.61029.61029,0,0,1,.56935-.00605.55854.55854,0,0,1,.38158.38764,1.42927,1.42927,0,0,1-.17565,1.381.437.437,0,0,0-.14537.55118c.07269.1696.06663.212-.01817.33313a.74632.74632,0,0,0-.12718.321A2.22406,2.22406,0,0,1,17.37,7.134a7.17024,7.17024,0,0,0-.39976.68443.67793.67793,0,0,1-.23016.27256c-.06057.01817-.109.05452-.109.07874a.687.687,0,0,1-.15143.22411,1.87935,1.87935,0,0,0-.41187.61175.94482.94482,0,0,1-.46032.46032.84779.84779,0,0,0-.33919.28468c-.02423.06662-.06057.12113-.09085.12113a2.03182,2.03182,0,0,0-.45427.66021.26.26,0,0,1-.15142.15748.26.26,0,0,0-.15143.15748.49675.49675,0,0,1-.1817.212c-.07874.05451-.13325.12719-.12114.16354a.16166.16166,0,0,1-.01817.1393,1.16481,1.16481,0,0,1-.49667.26651.41319.41319,0,0,0-.16959.103,1.88873,1.88873,0,0,1-.24228.19382.53781.53781,0,0,0-.16353.23622,2.23074,2.23074,0,0,1-.44216.56329c-.2241.22411-.47244.49061-.55724.59358s-.18776.2241-.23016.2665c-.41792.38159-.527.46638-.58146.46638-.0424,0-.12114.09086-.18777.19382-.218.37553-.854.89037-.9691.7874-.03029-.02423-.03029-.01211-.00606.03029.0848.14536-.86614.98727-1.12053.98727a.686.686,0,0,0-.27256.1696A11.11946,11.11946,0,0,1,7.146,17.2491a1.97139,1.97139,0,0,0-.33919.26651c-.11508.109-.28468.26044-.38159.33313-.103.07874-.28467.218-.41187.321a1.64789,1.64789,0,0,1-.34524.212c-.06663.01817-.103.07269-.0848.11508.03634.103-.13325.27862-.2665.27862a.84045.84045,0,0,0-.44821.36342c-.01212.03634-.11508.09085-.23017.12114-.44821.109-.69048.23016-.76317.38158a.73856.73856,0,0,1-.60569.28468c-.07874,0-.14536.03027-.14536.06662a.84945.84945,0,0,1-.32708.212,1.39784,1.39784,0,0,0-.40581.24834,1.34264,1.34264,0,0,1-.34524.20593,2.33878,2.33878,0,0,0-.56935.43c-.28468.29073-.29679.321-.22411.48456.09086.23016.24834.30284.61175.30284a1.06377,1.06377,0,0,0,.65415-.21805,1.96439,1.96439,0,0,1,.59357-.26045.75817.75817,0,0,0,.3513-.16353,1.80189,1.80189,0,0,1,.67232-.49667,2.50728,2.50728,0,0,0,.41187-.16353,5.44614,5.44614,0,0,0,.73894-.45427,2.90785,2.90785,0,0,1,.49667-.24834,1.89644,1.89644,0,0,0,.94488-.65414.53549.53549,0,0,1,.218-.23017.24092.24092,0,0,0,.14536-.15142.6417.6417,0,0,1,.23017-.24227c.109-.06663.32707-.21805.49061-.33313a1.39691,1.39691,0,0,1,.45426-.24229,3.78125,3.78125,0,0,0,1.52635-.957,3.15055,3.15055,0,0,1,.73894-.56935,2.90546,2.90546,0,0,0,1.25984-.98728,1.82735,1.82735,0,0,1,.62386-.58146,1.96849,1.96849,0,0,0,.29679-.212.67281.67281,0,0,1,.16353-.1151,3.05762,3.05762,0,0,0,.33313-.45426,2.50413,2.50413,0,0,1,.33919-.45427,2.28657,2.28657,0,0,0,.36341-.30285,6.84468,6.84468,0,0,1,.642-.527,2.3971,2.3971,0,0,0,.533-.54512,1.27532,1.27532,0,0,1,.38159-.39976,2.30988,2.30988,0,0,0,.6178-.47244.87958.87958,0,0,1,.35131-.20593c.20593-.0424.67837-.51484.67837-.67232a2.11588,2.11588,0,0,1,.4785-.56329,4.14478,4.14478,0,0,0,.60577-.71456,1.62656,1.62656,0,0,1,.36947-.45426,5.02174,5.02174,0,0,0,1.0963-1.1387,1.21332,1.21332,0,0,1,.61175-.60569A3.08967,3.08967,0,0,0,21.089,5.69257a4.71518,4.71518,0,0,1,.1696-.50273c.14536-.41187.14536-.41792.03028-.533-.12114-.12114-.11508-.1696.04846-.35131a1.6224,1.6224,0,0,0,.41792-.86008,1.06922,1.06922,0,0,1,.1756-.51485c.17565-.25439.1696-.3513-.0424-.81163-.26044-.56935-.38158-.7874-.43-.7874a4.0601,4.0601,0,0,1-.4846-.46637C20.73763.61081,20.453.308,20.35.19894a.45343.45343,0,0,0-.63134-.11228ZM13.68743,3.5484c.12719.1272.12114.18777-.03634.3513a1.737,1.737,0,0,0-.28468.45427,1.17258,1.17258,0,0,1-.321.41793c-.09086.05452-.1696.11508-.1696.13931a1.04463,1.04463,0,0,1-.28467.23017c-.15143.103-.26045.18775-.23622.18775.09085,0-.09086.23017-.29073.36948a.65511.65511,0,0,0-.24834.2847.3961.3961,0,0,1-.19987.212,1.61739,1.61739,0,0,0-.40582.321,2.95928,2.95928,0,0,1-.62386.45426c-.212.11508-.48455.26044-.60569.321a.80084.80084,0,0,0-.43.38159,3.58979,3.58979,0,0,1-1.25989.65415.302.302,0,0,0-.2241.13931.531.531,0,0,1-.5633.26045,1.04841,1.04841,0,0,0-.43.07874A1.05562,1.05562,0,0,1,6.51,8.87243a1.58855,1.58855,0,0,0-.47244.02423,4.56584,4.56584,0,0,1-2.2774-.45427c-.3513-.23016-.2241-.37552.79951-.88431a5.5824,5.5824,0,0,0,.81769-.45426.95163.95163,0,0,1,.25439-.18171,2.8595,2.8595,0,0,0,.43-.30285c.13325-.11508.27256-.2241.30284-.24833.03635-.02423.109-.07874.16354-.12114a.71194.71194,0,0,1,.29073-.103,2.26722,2.26722,0,0,0,1.0963-.67838,3.1747,3.1747,0,0,1,.46033-.33911,3.86663,3.86663,0,0,0,.55723-.43609.76523.76523,0,0,1,.60569-.27256,1.79477,1.79477,0,0,0,.49667-.13931,5.03789,5.03789,0,0,1,1.55057-.321,1.01,1.01,0,0,0,.44215-.09085c.72078-.26651.79346-.29073.8722-.26045a.53786.53786,0,0,0,.28467-.06057C13.45727,3.43331,13.57235,3.43331,13.68743,3.5484Z"/>

</g>
</svg>
