<?xml version="1.0" encoding="UTF-8"?>
<svg xmlns="http://www.w3.org/2000/svg"
     version="1.1"
     width="45.15898853mm"
     height="41.24585072mm"
     viewBox="0.00000000 0.00000000 128.00971510 116.91729850">

<g transform="scale(4.36982859)">   <defs>
      <style type="text/css"><![CDATA[
      .a {
        stroke: #000;
        stroke-linecap: round;
        stroke-linejoin: round;
        stroke-width: 0.01px;
      }
    ]]></style>
   </defs>
   <path class="a"
         d="M10.18665.10594a.80449.80449,0,0,0-.20594.19382.88518.88518,0,0,1-.73894.46032c-.533.06057-.73894.15143-.87219.38159a.83484.83484,0,0,0-.12114.30285c0,.15748-.15748.35735-.50273.62386a2.89492,2.89492,0,0,0-.45426.4361A5.81106,5.81106,0,0,0,6.24966,4.60622a10.79085,10.79085,0,0,0-.45427,2.90732,3.09168,3.09168,0,0,0,.06663,1.06,1.67926,1.67926,0,0,1,.06056.636,3.28109,3.28109,0,0,0,.03635.67232.73542.73542,0,0,1-.03029.49061,5.269,5.269,0,0,0,0,1.74439,5.3314,5.3314,0,0,1,.07268.93882,5.00956,5.00956,0,0,0,.07269.89037.67865.67865,0,0,1,.05451.27256A.5875.5875,0,0,0,6.183,14.473a.63482.63482,0,0,1-.01817.36341,1.60642,1.60642,0,0,0-.03634.533,4.18491,4.18491,0,0,1-.03029.7874,4.93274,4.93274,0,0,0,.1272,1.702.78686.78686,0,0,1-.06663.40582,2.78661,2.78661,0,0,0-.109,1.37491.46965.46965,0,0,1,.01211.3937c-.07874.24834-.16959.29679-.6602.33919a4.99434,4.99434,0,0,0-.72683.13931,1.96242,1.96242,0,0,1-.50878.09085,1.6194,1.6194,0,0,0-.49061.14537,3.83349,3.83349,0,0,0-1.29012,1.381,4.63343,4.63343,0,0,1-.98728,1.34465,5.49084,5.49084,0,0,0-.59357.71471.53937.53937,0,0,1-.29679.26045c-.39976.07874-.46639.16354-.48456.62992l-.01817.43.23017.09691a2.29362,2.29362,0,0,0,1.39914-.109.76446.76446,0,0,1,.4785-.0848,3.15526,3.15526,0,0,0,.38158.06057,2.38473,2.38473,0,0,1,.46639.08479,1.43168,1.43168,0,0,0,1.11447-.2665c.15142-.12114.20593-.13931.30284-.0848.09086.04846.16354.03029.32708-.06662.15142-.09691.23621-.11508.315-.06663a2.32773,2.32773,0,0,0,1.13265.27256,1.05836,1.05836,0,0,1,.60569.09086l.29679.12719.2665-.12719a2.803,2.803,0,0,1,1.2477-.15759,8.084,8.084,0,0,0,1.18716-.0848,1.85039,1.85039,0,0,1,.642-.03028c.41793.03634.44216.03634.67232-.15143.19382-.15142.2665-.17565.41792-.13931a4.00419,4.00419,0,0,0,.49061.05452,2.358,2.358,0,0,1,.45427.06057,3.40614,3.40614,0,0,0,1.33252-.05452A6.55105,6.55105,0,0,1,15.759,24.909a1.51031,1.51031,0,0,0,.95093.01211,1.95543,1.95543,0,0,1,.68443-.09691,3.97659,3.97659,0,0,0,.72683-.06057,5.7351,5.7351,0,0,1,.67838-.0848,1.23821,1.23821,0,0,1,.87825.22411,2.94417,2.94417,0,0,1,1.07813.90248.79355.79355,0,0,0,.3089.23622c.24228.13325.29679.13931.47244.07874a1.42988,1.42988,0,0,1,.4361-.07269.661.661,0,0,0,.67837-.47849,2.65827,2.65827,0,0,1,.4361-.67838,2.95385,2.95385,0,0,0,.36341-.48455c0-.09085.28468-.24227.38764-.19988a1.11526,1.11526,0,0,1,.33919.58752,2.09825,2.09825,0,0,0,.27862.46033,3.34055,3.34055,0,0,1,.35736.60569,2.1874,2.1874,0,0,0,.80557.87825c.09691.03634.212-.00605.41792-.13931a1.61628,1.61628,0,0,1,.33313-.18776,5.74148,5.74148,0,0,0,.89643-.90248,2.02462,2.02462,0,0,1,.6602-.73289c.18776-.09085.26045-.1817.36947-.45426.13325-.33313.33919-.51484.56935-.51484.06057,0,.16354-.15142.2665-.37553a1.47245,1.47245,0,0,0,.15143-.77529,3.52476,3.52476,0,0,0-.315-1.65353.95988.95988,0,0,1-.13931-.88431.65666.65666,0,0,0-.06057-.45427,4.222,4.222,0,0,1-.30285-1.67171,2.42167,2.42167,0,0,0-.109-.93882,5.92885,5.92885,0,0,1-.27256-1.599,1.14138,1.14138,0,0,0-.17565-.66626,1.14535,1.14535,0,0,1-.13325-.99939,4.48318,4.48318,0,0,0,.06662-1.52029,1.08756,1.08756,0,0,1,.06663-.76922.62982.62982,0,0,0,.06057-.41187,1.04845,1.04845,0,0,1,.09691-.55118,1.50393,1.50393,0,0,0,.109-.50878c-.01817-.218-.01211-.3513.01817-1.42338a2.60093,2.60093,0,0,0-.06057-.98122A2.84682,2.84682,0,0,1,28.07869,6.605a2.566,2.566,0,0,0-.0848-1.1387,4.02225,4.02225,0,0,1-.15748-1.07813,4.30149,4.30149,0,0,0-.1817-1.19926,1.73261,1.73261,0,0,1-.11508-.46033c.01817-.03028-.04846-.109-.14537-.17565-.19988-.14537-.56329-.16959-.66626-.0424a.66253.66253,0,0,1-.23622.15142,1.02717,1.02717,0,0,0-.34524.35736,5.19519,5.19519,0,0,1-.527.66021,3.02367,3.02367,0,0,0-.4361.58146,1.09466,1.09466,0,0,1-.30285.38158,4.42311,4.42311,0,0,0-.5754.66021,3.34563,3.34563,0,0,1-.49667.56329,1.78116,1.78116,0,0,0-.58752.75711,6.04484,6.04484,0,0,0,.01817,1.12659,3.37754,3.37754,0,0,0,.15142.9691,2.30957,2.30957,0,0,1,.12114.61781,2.29386,2.29386,0,0,0,.06057.4785,5.08652,5.08652,0,0,1,.212,1.60508,2.45028,2.45028,0,0,0,.15748,1.12658l.1272.28468-.13326.39975a1.41887,1.41887,0,0,0-.09691.66021,2.43677,2.43677,0,0,1-.1817,1.66565c-.18171.3937-.18171.40581,0,.73894l.14536.27256-.12114.19988a.54278.54278,0,0,0-.09085.36341.44481.44481,0,0,1-.03028.27256,1.72478,1.72478,0,0,0-.07874.45427c-.01212.18777-.03634.642-.06057,1.01151a9.72289,9.72289,0,0,1-.09691,1.0115,3.70838,3.70838,0,0,0-.02423.73894.9172.9172,0,0,1-.05451.56935c-.109.218-.20594.25439-.66021.26651a.88074.88074,0,0,1-.79951-.29073.75726.75726,0,0,0-.30284-.23017c-.26045-.109-.32708-.32707-.19382-.61175a1.69222,1.69222,0,0,0,.13325-.43c.02422-.13325.06662-.321.09691-.424a.58189.58189,0,0,0-.0424-.44215.779.779,0,0,1-.06663-.36342.31881.31881,0,0,0-.01817-.18776.77546.77546,0,0,1,.01212-.3513,1.80321,1.80321,0,0,0,.01817-.99939c-.06057-.0848-.06057-.15143.006-.35129a6.28538,6.28538,0,0,0,.14537-1.56874,3.259,3.259,0,0,1-.00606-.33313,3.59687,3.59687,0,0,0-.06057-1.00545,1.04313,1.04313,0,0,1,.01212-.67838,1.92287,1.92287,0,0,1,.218-.29678.41006.41006,0,0,0,.12113-.424c-.05451-.51484-.15142-.67837-.73288-1.28406a.77549.77549,0,0,0-.55724-.30892c-.43609-.05451-.46638-.05451-.59963-.0121a2.42952,2.42952,0,0,0-.7874.93882c-.00606.15141-.103.24833-.69049.7026-.16959.1272-.29073.26045-.27256.29074a3.04785,3.04785,0,0,1-.58146.642,4.26025,4.26025,0,0,0-.69655.78134c-.17565.424-.49666.36341-.55118-.103a1.395,1.395,0,0,0-.08479-.36341,2.80774,2.80774,0,0,1-.12114-.51484c-.06057-.38764-.06057-.424.07874-.62992.14537-.212.16354-.29679.26045-1.36886a2.72311,2.72311,0,0,1,.36341-1.272A1.35112,1.35112,0,0,0,17.2973,8.961a5.42939,5.42939,0,0,1,.06663-.58146c.04845-.15748-.15143-.38159-.3513-.38159a2.46766,2.46766,0,0,0-.87826.3089,3.97909,3.97909,0,0,0-.44215.48456c-.17565.212-.527.59964-.78134.854a4.25729,4.25729,0,0,0-.67232.83587,2.44055,2.44055,0,0,1-.82374.8843,2.40342,2.40342,0,0,0-.3937.57541c-.12114.24833-.315.61174-.43609.80556a1.7145,1.7145,0,0,0-.218.46639.59435.59435,0,0,1-.15143.28468,1.386,1.386,0,0,0-.33313.86613,1.26608,1.26608,0,0,1-.19382.6057.73844.73844,0,0,0-.11508.745,1.51606,1.51606,0,0,1,.03634.51483c-.05451.17565-.45427.37553-.59357.30285a2.15182,2.15182,0,0,1-.48449-1.57473,2.86358,2.86358,0,0,0,.00606-.78134,13.58988,13.58988,0,0,1,.01817-1.69593,6.93548,6.93548,0,0,0,.03029-1.71411,1.42021,1.42021,0,0,1,.05451-.61175,2.25814,2.25814,0,0,0-.07874-1.36886,4.75782,4.75782,0,0,1-.22411-.73894c-.07874-.37553-.0848-.49061-.02423-.60569a2.37633,2.37633,0,0,0,.07269-.71472,1.49023,1.49023,0,0,0-.12114-.81768.89094.89094,0,0,1-.109-.45427,3.02488,3.02488,0,0,1,.15143-.72077A10.10812,10.10812,0,0,0,10.45314,2.783a2.6531,2.6531,0,0,1,.49061-1.74439.848.848,0,0,0-.3089-.97512A.36209.36209,0,0,0,10.18665.10594ZM17.06124,15.6298c.103.13325.25439.34524.34525.46032a1.60481,1.60481,0,0,1,.23016.51484.54529.54529,0,0,0,.27862.43c.212.1272.2241.15143.20593.41793a1.9249,1.9249,0,0,0,.3513,1.0539c.18171.20594.18171.212.16354.8298-.01817.72683-.05451.90248-.19382.99939a1.22724,1.22724,0,0,1-.642.09085.45589.45589,0,0,0-.24227.07874.5611.5611,0,0,1-.26651.09086.81152.81152,0,0,0-.27861.06662c-.12114.05451-.19988.03634-.46639-.103a.61745.61745,0,0,0-.59963-.09085.66443.66443,0,0,1-.73289-.17565.69746.69746,0,0,1,.18171-.636.41884.41884,0,0,0,.12113-.27256c0-.19382.07875-.29679.40582-.50272a2.47938,2.47938,0,0,0,.81162-1.175l.13325-.36342-.14537-.20593a2.32818,2.32818,0,0,0-.25439-.29679,1.79524,1.79524,0,0,1,.0848-1.45971C16.70385,15.23,16.81291,15.29061,17.06124,15.6298Z"/>

</g>
</svg>
