<?xml version="1.0" encoding="UTF-8"?>
<svg xmlns="http://www.w3.org/2000/svg"
     version="1.1"
     width="23.81119197mm"
     height="25.59391936mm"
     viewBox="0.00000000 0.00000000 67.49632272 72.54975941">

<g transform="scale(6.56887650)">   <defs>
      <style type="text/css"><![CDATA[
      .a {
        stroke: #000;
        stroke-miterlimit: 10;
        stroke-width: 0.15px;
      }
    ]]></style>
   </defs>
   <path class="a"
         d="M7.12076,1.064a1.6581,1.6581,0,0,0-.40586.37677l-.59336.68982a2.83187,2.83187,0,0,0-.47446.67492.95614.95614,0,0,0-.0216.80123,1.41713,1.41713,0,0,0,.30919.37289l.689.65975a.88657.88657,0,0,1,.3548.60089.58209.58209,0,0,1-.30869.46611,1.50834,1.50834,0,0,1-.558.16048,8.21994,8.21994,0,0,1-2.15985.0145,1.01418,1.01418,0,0,0-.455.00775.32209.32209,0,0,0-.23253.34781.66379.66379,0,0,0,.16634.24135,1.13916,1.13916,0,0,1,.1427,1.01948,9.97713,9.97713,0,0,1-.40855.98812,6.75148,6.75148,0,0,0-.26166.9032,1.055,1.055,0,0,0-.03427.53117.98468.98468,0,0,0,.55974.53455,2.9293,2.9293,0,0,0,2.63859.21112A3.71151,3.71151,0,0,0,7.095,9.7227L8.784,7.725a6.26564,6.26564,0,0,0,.68717-.92188,5.83868,5.83868,0,0,0,.48828-1.26892A3.59359,3.59359,0,0,0,10.156,3.79989a3.59147,3.59147,0,0,0-.5468-1.14428A4.93447,4.93447,0,0,1,9.15224,1.664,1.67483,1.67483,0,0,0,7.12076,1.064Z"/>
   <path class="a"
         d="M.76505,3.99716A3.41833,3.41833,0,0,0,.22775,6.9335a5.122,5.122,0,0,0,.43372.74587,16.2208,16.2208,0,0,0,2.72992,3.04306.67206.67206,0,0,0,.514.24285.59768.59768,0,0,0,.39291-.346L5.767,7.56794a.4962.4962,0,0,0,.06745-.38878c-.0568-.13941-.221-.1936-.36343-.24235A3.1579,3.1579,0,0,1,3.5143,4.93171a.45415.45415,0,0,1-.028-.15144.56066.56066,0,0,1,.17832-.31583C4.14823,3.89783,4.3463,3.0606,5.0004,2.704a2.04151,2.04151,0,0,1,1.32291-.1236,7.86854,7.86854,0,0,0,1.33593.20908.56589.56589,0,0,0,.32166-.07343A.65479.65479,0,0,0,8.17033,2.154a5.28857,5.28857,0,0,0,.00613-1.13363A1.71689,1.71689,0,0,0,7.92264.40993C7.31009-.36039,5.14522.42669,4.89477.51775A7.801,7.801,0,0,0,2.00121,2.4322,8.36134,8.36134,0,0,0,.76505,3.99716Z"/>

</g>
</svg>
