<?xml version="1.0" encoding="UTF-8"?>
<svg xmlns="http://www.w3.org/2000/svg"
     version="1.1"
     width="39.92756083mm"
     height="38.30583005mm"
     viewBox="0.00000000 0.00000000 113.18048327 108.58342360">

<g transform="scale(4.36982859)">   <defs>
      <style type="text/css"><![CDATA[
      .a {
        stroke: #000;
        stroke-linecap: round;
        stroke-linejoin: round;
        stroke-width: 0.01px;
      }
    ]]></style>
   </defs>
   <path class="a"
         d="M17.39946.30916a2.00135,2.00135,0,0,1-.40581.33313c-.06057.01817-.109.05451-.109.0848a.74332.74332,0,0,1-.14538.2241,1.15235,1.15235,0,0,0-.19988.38159,2.24578,2.24578,0,0,1-.1817.41187c-.11509.18171-.11509.218-.0424.44215a.4295.4295,0,0,1,.02422.3513,3.1178,3.1178,0,0,0,.06663,1.41126.24867.24867,0,0,1,.02423.18171,1.26166,1.26166,0,0,0,.19382.50273,1.80478,1.80478,0,0,1,.23622.69654c.01211.15142.01817.29679.02423.33313a2.39162,2.39162,0,0,1-.14537.68443.6766.6766,0,0,0-.06663.315c.06057.09691-.25439.7026-.43.83585-.09691.07269-.24227.18777-.315.25439a.5002.5002,0,0,1-.218.12114,1.1675,1.1675,0,0,0-.46033.43c0,.03029-.07268.09086-.16354.1272a1.91959,1.91959,0,0,0-.36947.24227.90861.90861,0,0,1-.24833.1696,1.786,1.786,0,0,0-.29679.39369,1.535,1.535,0,0,1-.4785.51483c-.27861.14537-.50272.33313-.50272.41793a.6819.6819,0,0,1-.15748.23016,2.93519,2.93519,0,0,0-.30284.3937c-.0848.1272-.17565.23017-.20594.23017a1.632,1.632,0,0,0-.56935.59357.33791.33791,0,0,1-.3937.22411c-.08479-.02423-.23016.06662-.51483.30284a2.25754,2.25754,0,0,0-.39976.3937c0,.03029-.103.11508-.22411.18777a1.17116,1.17116,0,0,0-.28467.2241,2.01346,2.01346,0,0,1-.77529.37553,1.69366,1.69366,0,0,0-.67837.4361A2.28463,2.28463,0,0,1,8.405,14.022a2.15639,2.15639,0,0,0-.30284.315.7977.7977,0,0,1-.25439.23621,1.58861,1.58861,0,0,0-.36947.27257,7.5066,7.5066,0,0,1-1.13265.92065,1.77685,1.77685,0,0,0-.321.20593.68662.68662,0,0,1-.23017.13931,7.07343,7.07343,0,0,0-1.14475.92066,5.89308,5.89308,0,0,1-.71472.55723c-.24227.16354-.43.321-.41792.36341.07268.20594-.50273.86614-.81769.92671a1.51152,1.51152,0,0,0-.75711.76317.54261.54261,0,0,1-.23016.23622,2.61649,2.61649,0,0,0-.69655.65414A1.44762,1.44762,0,0,1,.82776,20.83c-.103.14537-.1696.27256-.15142.29679.01817.01817-.00606.09691-.05452.17565-.05451.07873-.07874.16959-.06057.19988s-.01817.109-.09085.18171a.66119.66119,0,0,0-.01211.69654.24472.24472,0,0,1,.00605.22411c-.0424.07873-.03028.12114.06057.16353.12114.06663.26651.40582.212.49667a3.58214,3.58214,0,0,0,.50274,1.04174,1.99271,1.99271,0,0,0,.93882.50272,7.85747,7.85747,0,0,0,.97516.03029,1.04488,1.04488,0,0,0,.36342-.07269,1.00958,1.00958,0,0,1,.315-.09691c.103-.01211.33313-.03634.51483-.05451a1.615,1.615,0,0,0,.45427-.11508,1.59022,1.59022,0,0,1,1.06-.12114c.03634.02423.103,0,.13931-.06057a1.64467,1.64467,0,0,1,.97516-.24833,1.08468,1.08468,0,0,0,.56935-.14537.33445.33445,0,0,1,.26045-.09085.32288.32288,0,0,0,.24227-.03634,3.13752,3.13752,0,0,1,.77529-.0848,3.71414,3.71414,0,0,0,1.52028-.2241,2.3243,2.3243,0,0,1,.51484-.15143.98161.98161,0,0,0,.41187-.14536,1.15451,1.15451,0,0,1,.70866-.17565A2.1878,2.1878,0,0,0,13.1234,22.859a4.0109,4.0109,0,0,0,.43-.212c.43-.26651.52695-.29074.6602-.19383.11508.07269.18171.07874.38764.02423a3.1849,3.1849,0,0,1,.43-.09691,2.57161,2.57161,0,0,0,.28468-.06057.32256.32256,0,0,1,.2241.02422c.07874.0424.13325.0424.18777-.01211a.47934.47934,0,0,1,.28467-.05451,2.53637,2.53637,0,0,0,1.1811-.3513,1.62262,1.62262,0,0,1,.59358-.1817,2.15428,2.15428,0,0,0,1.03573-.03029.61214.61214,0,0,1,.35736-.05451.508.508,0,0,0,.38158-.08481,1.81136,1.81136,0,0,1,.62386-.15748,1.64859,1.64859,0,0,0,.50273-.109,3.89238,3.89238,0,0,1,1.54451,0,.47775.47775,0,0,0,.2665.04845c.109-.0424.4785.1696.56329.321.103.19989-.12719.7874-.44821,1.14476a.63823.63823,0,0,0-.13325.3937,1.11472,1.11472,0,0,1-.0424.34524c-.0424.103.41187.424.59358.424a4.35317,4.35317,0,0,0,1.7565-1.45366,2.38574,2.38574,0,0,1,.424-.69654,4.5447,4.5447,0,0,0,.59963-.92671c.09691-.20593.103-.28467.04846-.41187a.73657.73657,0,0,1-.07269-.2665.66938.66938,0,0,0-.17565-.315,3.15559,3.15559,0,0,1-.2665-.38159,2.57911,2.57911,0,0,0-.86008-.87825.82183.82183,0,0,1-.321-.12114.8564.8564,0,0,0-.27862-.12113,2.10658,2.10658,0,0,1-.46638-.18171,2.34716,2.34716,0,0,0-1.805-.1272,2.86975,2.86975,0,0,1-.76317.15143,2.72972,2.72972,0,0,0-1.272.34524,5.42853,5.42853,0,0,1-1.28406.4785.83463.83463,0,0,0-.315.09085.38892.38892,0,0,1-.19988.06057,1.36727,1.36727,0,0,0-.6602-.0848.76917.76917,0,0,1-.33919,0,.48159.48159,0,0,0-.3089.00606,2.44272,2.44272,0,0,1-1.15082.19988,3.41188,3.41188,0,0,0-.73288.08479c-.06057.03634-.1272.04846-.14537.02423-.02423-.01817-.07874,0-.12719.03634a5.56233,5.56233,0,0,1-1.58086.14537,3.07656,3.07656,0,0,0-.5754.0848,6.46458,6.46458,0,0,1-1.28407.18776.82457.82457,0,0,0-.36341.09085,5.88938,5.88938,0,0,1-1.5324.16354,3.949,3.949,0,0,0-1.10236.04845c-.09085.05452-.16354.03636-.32707-.06056a3.86941,3.86941,0,0,0-.98721-.4724,1.67439,1.67439,0,0,1-.76923-.4361A.32264.32264,0,0,1,5.7702,19.025a.51906.51906,0,0,0-.03029-.27861c-.05451-.15143-.01817-.23622.36947-.88431a4.051,4.051,0,0,1,.61781-.854,4.6234,4.6234,0,0,0,.44821-.3937,1.01446,1.01446,0,0,1,.315-.26044,1.4832,1.4832,0,0,0,.36947-.27256c.16959-.15143.33313-.26045.36947-.24228a2.09793,2.09793,0,0,0,.957-.55724.34712.34712,0,0,1,.109-.14536.85019.85019,0,0,0,.51484-.24228,1.08939,1.08939,0,0,1,.3513-.19988.54068.54068,0,0,0,.2665-.17565.49162.49162,0,0,1,.24833-.16353,1.30049,1.30049,0,0,0,.69655-.56935,5.62712,5.62712,0,0,1,.59964-.69655,2.15122,2.15122,0,0,1,.79951-.58146,2.804,2.804,0,0,0,.51484-.26651.59193.59193,0,0,1,.23016-.12719,1.3141,1.3141,0,0,0,.72683-.44821c.0424-.18171.33919-.40582.76317-.58147a6.125,6.125,0,0,0,1.32041-.67837.83149.83149,0,0,1,.2665-.16959,4.104,4.104,0,0,0,1.01757-.8722,4.017,4.017,0,0,1,.72683-.60569,2.41855,2.41855,0,0,0,.90247-.87825,1.04334,1.04334,0,0,1,.27862-.33313,6.98,6.98,0,0,0,1.1811-1.21138,5.40838,5.40838,0,0,1,.36341-1.0963c.03029-.01817.03029-.11509,0-.218a.52164.52164,0,0,1-.02427-.2605,1.4379,1.4379,0,0,0-.03634-.4361A9.12153,9.12153,0,0,1,20.864,2.9924a1.03837,1.03837,0,0,0-.24834-.72077,1.11,1.11,0,0,1-.218-.36947.07665.07665,0,0,0-.06662-.0848c-.03029,0-.103-.09691-.15142-.212s-.11509-.212-.14537-.212a1.31974,1.31974,0,0,1-.2726-.44217,1.4497,1.4497,0,0,0-.43-.58146,1.13455,1.13455,0,0,1-.27256-.26045c-.05451-.09691-.13931-.109-.70866-.103h-.64809Z"/>
   <path class="a"
         d="M3.56548,1.22981a.90117.90117,0,0,1-.30284.18777.7258.7258,0,0,0-.30285.25439,1.01919,1.01919,0,0,1-.32707.315c-.30891.19382-.84191.73288-.79346.80556a.23378.23378,0,0,1-.0424.18171,1.67591,1.67591,0,0,0-.13931.69049,1.04412,1.04412,0,0,1-.36947.745c-.2241.17565-.41792.642-.33313.79951.05452.09691.03634.14537-.07874.26651a.32843.32843,0,0,0-.12113.30284c.02422.109-.01212.19382-.1272.3089A.53859.53859,0,0,0,.4704,6.36a.393.393,0,0,1-.11508.23622,1.62586,1.62586,0,0,0-.23622.4361A3.18434,3.18434,0,0,0,.04642,8.38908a.75271.75271,0,0,1-.01817.18171.67592.67592,0,0,0,.12113.37553c.07874.14536.1272.26044.109.26044s.00606.06057.06057.13931c.04845.07874.07268.15748.05451.17565-.01817.02423.01211.12114.06057.22411a1.1158,1.1158,0,0,1,.09691.218v.09085a.95.95,0,0,0,.212.2665.93639.93639,0,0,1,.212.27862.06634.06634,0,0,0,.06663.06057,8.28171,8.28171,0,0,1,1.04179.45427.2779.2779,0,0,0,.28467.03028A.31068.31068,0,0,1,2.554,11.1207a.25783.25783,0,0,0,.212-.09086.33706.33706,0,0,1,.315-.09691.4787.4787,0,0,0,.315-.06057.56407.56407,0,0,1,.25439-.09085,2.4635,2.4635,0,0,0,.89642-.56329.35567.35567,0,0,0,.07268-.27256.44087.44087,0,0,1,.0424-.27257,1.65228,1.65228,0,0,0,.13325-1.04178c-.01817-.13326-.04239-.38159-.04845-.54513a1.3105,1.3105,0,0,0-.097-.46633c-.07268-.15142-.06663-.18776.07874-.39975.12719-.18171.15142-.26651.11508-.40582A1.11508,1.11508,0,0,1,4.87983,6.148a1.88459,1.88459,0,0,0-.103-1.21744c-.06662-.08479-.103-.18776-.07874-.23016A2.48929,2.48929,0,0,0,4.75265,4.119c.00605-.28468.03028-.65415.04845-.81769a3.57361,3.57361,0,0,0,.01211-.81162.70682.70682,0,0,0-.19382-.33919A8.521,8.521,0,0,1,4.05,1.42363a1.33269,1.33269,0,0,0-.38764-.27256C3.64422,1.15107,3.60182,1.18741,3.56548,1.22981Z"/>
   <path class="a"
         d="M9.63451,2.01721a.98636.98636,0,0,1-.29679.16959c-.13931.06663-.27862.1696-.29679.23622a1.18561,1.18561,0,0,1-.3089.34525.94322.94322,0,0,0-.26651.30284.39457.39457,0,0,1-.11508.19382,1.68969,1.68969,0,0,0-.218.30285c-.04845.103-.12114.18776-.15142.18776s-.09085.06663-.13325.14537c-.09691.18776-.76923.71471-.848.66626-.0848-.05451-.3513.103-.3513.19988a1.19,1.19,0,0,1-.36342.62386,1.02382,1.02382,0,0,0-.34524.848c-.03028.59963-.01211.75105.0848.93882a.81441.81441,0,0,1,.07874.1817.98463.98463,0,0,0,.109.19383.41189.41189,0,0,1,.04846.29073.25912.25912,0,0,0,.09084.27859.28931.28931,0,0,1,.09085.315c-.01817.103-.01817.1696,0,.14537.04846-.04845.38765.12114.38765.19382a1.6913,1.6913,0,0,0,.71471.36947.63289.63289,0,0,1,.29679.14537,1.14568,1.14568,0,0,0,.3513.18171A4.39081,4.39081,0,0,0,9.56788,9.443c.14538-.03634.30284-.06662.3513-.07874a.96222.96222,0,0,0,.22411-.08479.57844.57844,0,0,1,.24227-.07269.4441.4441,0,0,0,.36947-.24227,2.00268,2.00268,0,0,1,.19988-.35131.61851.61851,0,0,0,.13931-.32707.52252.52252,0,0,1-.06057-.19382,2.18747,2.18747,0,0,0-.25439-.86008,1.57257,1.57257,0,0,1-.03634-1.066c.109-.212.109-.34524-.0121-.47849-.15144-.1696-.17565-.424-.103-1.08419a10.61064,10.61064,0,0,0,.01817-1.272,2.18944,2.18944,0,0,1,.01211-.321.4482.4482,0,0,0-.02422-.26044,2.56992,2.56992,0,0,1-.26046-.35736,1.13973,1.13973,0,0,0-.3513-.36947C9.81621,1.95664,9.6769,1.95058,9.63451,2.01721Z"/>

</g>
</svg>
