<?xml version="1.0" encoding="UTF-8"?>
<svg xmlns="http://www.w3.org/2000/svg"
     version="1.1"
     width="43.38656055mm"
     height="65.59272233mm"
     viewBox="0.00000000 0.00000000 122.98546981 185.93212586">

<g transform="scale(5.57207354)">   <defs>
      <style type="text/css"><![CDATA[
      .a {
        stroke: #000;
        stroke-linecap: round;
        stroke-linejoin: round;
        stroke-width: 0.01px;
      }
    ]]></style>
   </defs>
   <path class="a"
         d="M20.75833.08814a2.22418,2.22418,0,0,1-.70866.33313,3.70444,3.70444,0,0,0-.963.28467A.71078.71078,0,0,1,18.808.7968c-.07268,0-.14536.02422-.16353.06056a.788.788,0,0,1-.28468.1272,3.37812,3.37812,0,0,0-1.07813.6602c0,.07269-.23622.15143-.50878.1696a4.68318,4.68318,0,0,0-1.066,1.066,1.43966,1.43966,0,0,1-.47849.38764.97885.97885,0,0,0-.424.33919,3.219,3.219,0,0,1-.3513.44821,1.63261,1.63261,0,0,0-.29073.38159c-.02423.06662-.06057.11508-.09691.11508a1.75172,1.75172,0,0,0-.37553.28467c-.1817.16354-.38158.33313-.44215.38765a.6913.6913,0,0,0-.315.81768,1.802,1.802,0,0,1-.01817.642.66649.66649,0,0,0-.02423.29073.41543.41543,0,0,1-.02423.26045.8586.8586,0,0,0,0,.49667,2.55507,2.55507,0,0,1,.06057.527,1.60273,1.60273,0,0,0,.109.49667.92793.92793,0,0,1,.08479.51483.96382.96382,0,0,0,.19988.72078.81508.81508,0,0,1,.11508.36341,2.757,2.757,0,0,0,.13325.54512.76916.76916,0,0,1,.06057.33919,1.06275,1.06275,0,0,0,.05452.39975,2.6651,2.6651,0,0,1,.08479.55118,1.32393,1.32393,0,0,0,.0848.43.9941.9941,0,0,1-.02423.76923c-.05451.109-.0424.16354.0848.32707a1.59561,1.59561,0,0,1,.33919,1.04179c-.00606.19988-.01212.41793-.01212.48456a9.1063,9.1063,0,0,0,.15142,1.593,1.74788,1.74788,0,0,1,.00606.80557,3.66458,3.66458,0,0,1-.109.64809.75493.75493,0,0,0-.06663.17565,4.5699,4.5699,0,0,1-.7874,1.68382,6.44429,6.44429,0,0,1-1.06,1.12053,2.754,2.754,0,0,0-.69654.72683.60157.60157,0,0,1-.29073.21805,1.49025,1.49025,0,0,0-.33313.18776.2769.2769,0,0,1-.1272.07874,2.355,2.355,0,0,0-.38158.315,9.63114,9.63114,0,0,1-1.10842.96911,8.01992,8.01992,0,0,0-.69049.62386,4.71347,4.71347,0,0,1-.72683.61175A4.04822,4.04822,0,0,0,6.997,26.00566a1.23021,1.23021,0,0,1-.34525.32707A6.46194,6.46194,0,0,0,5.5494,27.45326a.85321.85321,0,0,1-.28468.26044,2.34482,2.34482,0,0,0-.46032.41187,4.70609,4.70609,0,0,1-1.0781,1.01151,3.1365,3.1365,0,0,0-.94488.89036c-.02423.07874-.15748.17565-.35736.25439a.96406.96406,0,0,0-.44821.34525,1.38577,1.38577,0,0,1-.36342.33918,1.35344,1.35344,0,0,0-.3937.3937,1.29933,1.29933,0,0,1-.36341.38159c-.109.06663-.22411.13931-.26045.16959-.03028.02423-.16353.11508-.29073.19988-.212.14537-.33313.32707-.29073.45427a.92973.92973,0,0,1,.03028.18171c.05452.62991.218.745.70261.49061a.93093.93093,0,0,1,.30284-.12721c0,.01817.109-.02423.24228-.09085s.24227-.14537.24227-.17565a3.01837,3.01837,0,0,1,.533-.65415,2.908,2.908,0,0,0,.29679-.46032,2.45455,2.45455,0,0,1,.75711-.8298,2.99105,2.99105,0,0,0,.45427-.39975A4.20863,4.20863,0,0,1,4.223,29.979c.30285-.15142.36947-.22411.41793-.41187a.6287.6287,0,0,1,.28467-.30286,3.99585,3.99585,0,0,0,.41187-.27861,5.797,5.797,0,0,1,.5209-.321,3.54015,3.54015,0,0,0,.642-.47851c.16354-.15748.32707-.315.37553-.35734.0424-.0424.11508-.109.15142-.15143a3.28818,3.28818,0,0,1,.55724-.44215,3.70483,3.70483,0,0,0,.39975-.30286c.07269-.06662.20594-.17565.29679-.24227s.24834-.18777.35736-.27861a4.72029,4.72029,0,0,1,.84191-.53908,1.72073,1.72073,0,0,0,.50272-.54512,2.39575,2.39575,0,0,1,.51484-.48455c.23622-.18171.533-.424.65415-.533a3.1453,3.1453,0,0,1,.54512-.35737,2.14621,2.14621,0,0,0,.60569-.49666,3.41439,3.41439,0,0,1,.32716-.35738,2.54308,2.54308,0,0,0,.26651-.24228,2.21227,2.21227,0,0,1,.38764-.315c.09085-.04845.26045-.13931.36947-.20593a3.07238,3.07238,0,0,0,.52695-.4361,1.76265,1.76265,0,0,1,.37553-.32707,3.71589,3.71589,0,0,0,.527-.45427,4.05327,4.05327,0,0,1,1.03573-.848c.20594-.12719.37553-.26045.37553-.30284a3.02639,3.02639,0,0,1,.45427-.533c.28468-.29073.45427-.50878.45427-.59358a1.27216,1.27216,0,0,1,.2241-.46638,1.70939,1.70939,0,0,0,.23622-.49061.6098.6098,0,0,1,.18777-.3089,1.52034,1.52034,0,0,0,.46638-.97517.48687.48687,0,0,1-.03028-.20593.93467.93467,0,0,0,.03634-.18777,1.22692,1.22692,0,0,1,.12114-.32707.59581.59581,0,0,0,.06662-.33313,1.51493,1.51493,0,0,1,.06057-.51484,1.94579,1.94579,0,0,0,.05451-.68443,2.64978,2.64978,0,0,1-.03028-.60569,2.67108,2.67108,0,0,0-.09691-.65414,5.07692,5.07692,0,0,1-.06057-.75712c-.01212-.52089-.0424-.71471-.11508-.7874a.352.352,0,0,1-.09086-.20593,1.948,1.948,0,0,0-.33313-.76317.36908.36908,0,0,1-.09085-.20594.1564.1564,0,0,0-.09085-.13931,1.41264,1.41264,0,0,1-.36342-.69654c-.0424-.212-.0848-.2665-.57541-.78134a1.42715,1.42715,0,0,1-.3089-.3937.59047.59047,0,0,0-.03028-.16959c-.01212-.04846-.0424-.17565-.06057-.27257a1.08175,1.08175,0,0,0-.18171-.3513.6297.6297,0,0,1-.14536-.28467A1.456,1.456,0,0,0,16.131,6.89a3.17084,3.17084,0,0,1-.03634-1.42943c.01211-.0848.02422-.22411.03028-.321a.405.405,0,0,1,.13325-.27256.853.853,0,0,0,.29678-.58752c0-.41793.424-.80557,1.09024-.99333.15143-.0424.33314-.103.41187-.13326a.3.3,0,0,1,.19383-.02422.51268.51268,0,0,0,.28467-.0848.56187.56187,0,0,1,.533-.03634c.27256.06662.315.06662.4482-.03634a.47519.47519,0,0,1,.23016-.11508,1.60633,1.60633,0,0,0,.60569-.37553,2.6932,2.6932,0,0,1,.69656-.4785.89507.89507,0,0,0,.321-.33313.75071.75071,0,0,1,.321-.315.46627.46627,0,0,0,.37553-.46638c0-.16354-.0424-.24228-.218-.37553A2.9604,2.9604,0,0,1,21.473.17293.59067.59067,0,0,0,20.75833.08814Z"/>

</g>
</svg>
