<?xml version="1.0" encoding="UTF-8"?>
<svg xmlns="http://www.w3.org/2000/svg"
     version="1.1"
     width="36.58311323mm"
     height="44.78423070mm"
     viewBox="0.00000000 0.00000000 103.70012468 126.94737398">

<g transform="scale(4.28563383)">   <defs>
      <style type="text/css"><![CDATA[
      .a {
        stroke: #000;
        stroke-linecap: round;
        stroke-linejoin: round;
        stroke-width: 0.01px;
      }
    ]]></style>
   </defs>
   <path class="a"
         d="M13.5608.15642a.41151.41151,0,0,1-.3089.15143c-.13931,0-.212.04845-.3089.19382a1.16964,1.16964,0,0,1-.38159.33918L12.301.98016l-.4785-.218L11.344.54416,11.03507.641a6.80592,6.80592,0,0,0-.848.38158A1.66208,1.66208,0,0,0,9.436,1.6101a.987.987,0,0,1-1.07207.533,1.82131,1.82131,0,0,1-.68444-.103c-.17565-.09085-.212-.09085-.56935.0424a.84138.84138,0,0,0-.50272.34524,2.92628,2.92628,0,0,1-.30284.38765A4.2814,4.2814,0,0,0,5.65048,3.839a.64017.64017,0,0,1-.30285.315,2.25884,2.25884,0,0,0-.75715.7571,2.47238,2.47238,0,0,1-.28467.34524,3.008,3.008,0,0,0-.35736.51484,1.45752,1.45752,0,0,1-.44216.52089A1.326,1.326,0,0,0,2.937,7.38232a.4523.4523,0,0,1-.07268.27256.61949.61949,0,0,0-.07268.315.64127.64127,0,0,1-.06057.33313.34065.34065,0,0,0-.0424.2241A1.87739,1.87739,0,0,1,2.622,9.53862c-.1393.20593-.12719.321.05452.67231a.98213.98213,0,0,1,.12113.79952.48089.48089,0,0,0,.05452.32707.736.736,0,0,1,.06662.47244,6.7055,6.7055,0,0,0-.03028,1.496,3.00153,3.00153,0,0,1,.29679,1.07813,1.87659,1.87659,0,0,0,.06662.46033,3.41535,3.41535,0,0,1,.09086.50272.63482.63482,0,0,1-.1272.54513,2.04044,2.04044,0,0,1-.33919.39369,3.893,3.893,0,0,0-.50878.73895,3.9513,3.9513,0,0,1-.48455.71471,6.09557,6.09557,0,0,0-.93882,1.60508.58765.58765,0,0,1-.11508.23622.35261.35261,0,0,0-.09085.27256.77948.77948,0,0,1-.103.38765,1.0391,1.0391,0,0,0-.1272.3089A1.32506,1.32506,0,0,1,.387,20.8832c-.218.48455-.27861.68443-.24833.79951a.4589.4589,0,0,1-.06057.27862.34124.34124,0,0,0-.01817.33919.51868.51868,0,0,1-.006.36948.95037.95037,0,0,0-.04239.41187c.01211.11508.03634.27862.04845.36341a.63671.63671,0,0,1-.02423.26651,2.3548,2.3548,0,0,0,.14537.963,1.13261,1.13261,0,0,1,.06663.40582.76043.76043,0,0,0,.03634.315c.03634.14536.06662.30284.07874.3513a.83714.83714,0,0,0,.12114.25439.63485.63485,0,0,1,.08479.38764c-.01211.13931.01212.23622.05451.24833a1.28011,1.28011,0,0,1,.26651.36948A3.89249,3.89249,0,0,0,2.089,28.206a1.81065,1.81065,0,0,1,.43609.315.90223.90223,0,0,0,.49061.26651c.14537.02422.315.05451.38765.06662a.77265.77265,0,0,1,.19987.06663,1.45434,1.45434,0,0,0,.38765.07874c.17565.01211.39975.03634.49666.04845.103.01212.33313.0424.51484.06663.18171.01817.58752.03634.90248.03634a1.43251,1.43251,0,0,0,.848-.15142,2.11931,2.11931,0,0,1,.50272-.19382.58977.58977,0,0,0,.29679-.13325,1.38055,1.38055,0,0,1,.321-.212,1.27648,1.27648,0,0,0,.33313-.24227c.109-.15748.47243-.30891.58146-.24834a1.6832,1.6832,0,0,1,.2665.30285,1.68511,1.68511,0,0,0,.90854.62386,8.642,8.642,0,0,0,2.39854.07874.706.706,0,0,1,.37552,0,.50041.50041,0,0,0,.36342-.00606c1.34463-.39975,1.33858-.3937,1.48394-.642.218-.36341.315-.44215.61175-.48455.23016-.03634.32707-.09691.61175-.38764a4.38772,4.38772,0,0,0,.76317-1.04179.82342.82342,0,0,1,.15748-.23622c.08479-.103.13931-.18777.12114-.18777-.05452,0,.07874-.24833.212-.39369.38158-.41187.41792-.47244.41792-.65415a2.82654,2.82654,0,0,1,.58147-1.07207c.315-.35131.44821-.54513.44821-.636a.59646.59646,0,0,1,.18776-.27862.42467.42467,0,0,0,.17565-.36947c-.01817-.29679-.01211-.32707.12114-.48455.3513-.41793.424-.533.424-.67232a.88586.88586,0,0,1,.14536-.36341.9617.9617,0,0,0,.15142-.38159c0-.09691,0-.23622.00606-.315a.70552.70552,0,0,1,.29679-.53906c.15748-.1272.17565-.19382.212-.89643a1.14134,1.14134,0,0,1,.25439-.745c.11508-.06662.1696-.37552.212-1.25378a1.20131,1.20131,0,0,0-.08479-.36341c-.07874-.20594-.07874-.26045-.00606-.40581.07874-.15143.07268-.18171-.06663-.38765a.5034.5034,0,0,1-.12113-.38764c.02422-.11508-.03635-.29679-.218-.65414-.23017-.46033-.24228-.50879-.17565-.67838.06662-.16354.06057-.19988-.03634-.3089a.546.546,0,0,1-.12114-.28468,2.51235,2.51235,0,0,0-.07269-.34524.525.525,0,0,1-.02422-.26045.24339.24339,0,0,0-.06663-.1817,1.91663,1.91663,0,0,1-.34524-.77529c0-.07874-.0848-.16959-.25439-.2665a2.467,2.467,0,0,1-.963-.87825,1.47891,1.47891,0,0,0-.41793-.4785c-.50272-.38159-.51484-.50878-.07268-.72683a10.7087,10.7087,0,0,0,1.22349-.7026,1.83568,1.83568,0,0,1,1.45967.05447,2.24973,2.24973,0,0,0,.38158.212.50021.50021,0,0,1,.2544.18777.14467.14467,0,0,0,.11508.09085.56052.56052,0,0,1,.23016.12114,1.35135,1.35135,0,0,1,.315.95093.34477.34477,0,0,0,.24489.42162l.0095.00238c.3089.109.642-.12114,1.15687-.7874.29073-.38159.3513-.53907.321-.854a.53662.53662,0,0,1,.09086-.2665.54222.54222,0,0,0,.06662-.3937,1.09868,1.09868,0,0,1,.16354-.67232,1.58643,1.58643,0,0,0,.1272-1.272.19046.19046,0,0,1-.03029-.212.31913.31913,0,0,0-.00606-.23622c-.03028-.07874-.04239-.16959-.01817-.19988.01817-.03028,0-.05451-.03634-.05451s-.09691-.06662-.13325-.15142c-.0424-.09691-.103-.14537-.15748-.12114-.22411.0848-.50272-.36341-.58146-.94488-.04846-.321-.23622-.47849-.4361-.36947a.75033.75033,0,0,1-.2665.06663,2.05341,2.05341,0,0,0-1.07813.34524,3.53641,3.53641,0,0,1-.533.26651,1.13416,1.13416,0,0,0-.33313.15142,1.11475,1.11475,0,0,1-.39976.15142.21153.21153,0,0,0-.16959.06663,2.36827,2.36827,0,0,1-1.06.38764c-.36947.03634-.75106.20593-.80557.36341a2.497,2.497,0,0,1-.96911.49061c-.27256.07269-.30284.06663-.41187-.04239-.103-.103-.11508-.18171-.09085-.54513a2.0029,2.0029,0,0,0-.07268-.73894,3.26283,3.26283,0,0,1-.103-.37553.29.29,0,0,0-.05451-.13931,1.57037,1.57037,0,0,1-.11508-.56935.65311.65311,0,0,0-.13931-.30284.95458.95458,0,0,1-.28468-.58147c.01817-.04239-.02422-.1393-.09085-.212-.24833-.27256-.27256-.3937-.13931-.62386a.83993.83993,0,0,0,.1272-.315,1.148,1.148,0,0,1,.14536-.3513c.12114-.218.1272-.26045.05451-.36341a.23845.23845,0,0,1-.04845-.18777A1.66574,1.66574,0,0,0,15.31127.5804a1.72491,1.72491,0,0,0-.29079-.38158C14.82064.005,14.81458.005,14.25735.005,13.73648.005,13.68194.01711,13.5608.15642Zm-.109,14.14894a.28473.28473,0,0,1,.01817.321.32791.32791,0,0,0-.00606.29073c.04846.109.01212.22411-.17565.60569a2.69918,2.69918,0,0,0-.23016.58147,4.81276,4.81276,0,0,1-.36341.9691c-.03635.05451-.15143.30891-.26045.55724a3.88167,3.88167,0,0,1-.35736.636,2.32165,2.32165,0,0,0-.24833.36948,1.11493,1.11493,0,0,1-.18777.26044.127.127,0,0,0-.04479.17393l.01451.01989c.03028.06057.0424.11508.01817.11508-.01817,0-.00606.0424.0424.09692.07874.09691.29073.09085.7026-.01818.16959-.04239.56329-.44215.56329-.56934,0-.02423.07874-.09086.1696-.15143a.68067.68067,0,0,0,.24833-.30284.94917.94917,0,0,1,.25439-.34525c.13325-.09085.17565-.16353.15142-.25439a.4021.4021,0,0,1,.06057-.2665.74117.74117,0,0,0,.11508-.29679.42708.42708,0,0,1,.13931-.25439c.109-.09085.11508-.13931.07268-.33313a.63425.63425,0,0,1-.00605-.321,3.34621,3.34621,0,0,1,.91459-.67837.78835.78835,0,0,1,.321.16354,6.094,6.094,0,0,0,.67231.43c.3513.19382.46639.29679.50273.424a1.1124,1.1124,0,0,0,.30284.41187,2.84823,2.84823,0,0,1,.72078,1.811c.006.2665.03028.68443.04845.9267a1.65889,1.65889,0,0,1-.05451.69049.62278.62278,0,0,0-.05451.29679.3496.3496,0,0,1-.03029.18776c-.03028.07874-.11508.28468-.18171.46033-.09691.22411-.11508.34524-.07268.424.0424.07269.02423.15748-.06662.30285a.45287.45287,0,0,0-.0848.28467c.03028.0848-.11508.29074-.24833.33919a1.39117,1.39117,0,0,0-.24834.3089,1.388,1.388,0,0,1-.33313.35736c-.23622.13325-.58752.4361-.58752.5209a.38312.38312,0,0,1-.38158.29678.75591.75591,0,0,0-.44821.18171,2.7972,2.7972,0,0,1-1.58692.45427,1.31143,1.31143,0,0,0-.43609.06057c-.0848.0424-.218,0-.53907-.16354-.4361-.218-.56329-.3513-.636-.64809-.02423-.09085-.06057-.16353-.0848-.16959a1.72765,1.72765,0,0,0-.70866.01211.66643.66643,0,0,0-.44215.36947,1.74892,1.74892,0,0,1-.46033.46033.74159.74159,0,0,0-.30284.29679c-.05452.23622-.41187.35736-.99939.34524a4.76685,4.76685,0,0,1-.636-.0424c-.06663-.02422-.218-.06057-.33313-.09085a2.67537,2.67537,0,0,1-1.14476-.79951c-.49666-.49061-.73288-.66626-.89036-.66626a2.08719,2.08719,0,0,1-.7026-.67838c0-.04239-.01212-.109-.01212-.13931a2.23108,2.23108,0,0,0-.17565-.34524,1.841,1.841,0,0,1-.16353-.32707.77658.77658,0,0,0-.16354-.218c-.13931-.14537-.15748-.212-.14537-.4785a.735.735,0,0,0-.09691-.46638,1.02961,1.02961,0,0,1-.12113-.40581c-.01212-.13325-.03029-.38159-.04846-.54512a3.29411,3.29411,0,0,1,.04853-1.20539.82681.82681,0,0,0,.07266-.3089,2.13535,2.13535,0,0,1,.39975-1.00545c.0848-.0424.13931-.03028.22411.05451.09085.09086.109.20594.09691.73895a3.397,3.397,0,0,0,.05451.751,1.45939,1.45939,0,0,1,.0848.33313,1.14931,1.14931,0,0,0,.15748.59358,1.19928,1.19928,0,0,1,.109.3937,1.157,1.157,0,0,0,.04846.321.28669.28669,0,0,1,.00606.212,2.91094,2.91094,0,0,0,.70865,1.34463c.15143.12114.24228.15142.315.11508a.19653.19653,0,0,1,.19988,0,.43988.43988,0,0,0,.45427-.13325,1.34047,1.34047,0,0,0,.09691-.44821c.03028-.315.01211-.38159-.11508-.54512-.55724-.67838-.56329-.69655-.527-.89642A1.61548,1.61548,0,0,1,6.565,20.0836a.50056.50056,0,0,0,.07874-.24228,1.31633,1.31633,0,0,1-.01211-.30284c.01211-.13326.01817-.40582.02423-.6057a1.2322,1.2322,0,0,1,.15142-.59963,1.46606,1.46606,0,0,0,.15748-.50878,1.29548,1.29548,0,0,1,.12114-.48455,1.61408,1.61408,0,0,0,.12114-.49667.77732.77732,0,0,1,.109-.40581,3.24374,3.24374,0,0,0,.27862-.50878c.14536-.32708.212-.41187.38158-.47244.11508-.0424.27256-.109.3513-.14537a.597.597,0,0,1,.28468-.05451c.20593.03028.424-.13931.56329-.4361a.70776.70776,0,0,1,.19988-.29073,1.95287,1.95287,0,0,1,.96305.04846,2.35585,2.35585,0,0,0,1.32646.04845,2.57346,2.57346,0,0,0,1.08419-.321,1.605,1.605,0,0,1,.533-.20593.47012.47012,0,0,1,.16965.206Z"/>
   <path class="a"
         d="M24.06954,29.60512a.1227.1227,0,0,0,.11508-.00606c.02423-.01817-.01211-.03634-.07874-.03028C24.03926,29.56878,24.02109,29.587,24.06954,29.60512Z"/>

</g>
</svg>
