<?xml version="1.0" encoding="UTF-8"?>
<svg xmlns="http://www.w3.org/2000/svg"
     version="1.1"
     width="30.52919569mm"
     height="47.39293230mm"
     viewBox="0.00000000 0.00000000 86.53942998 134.34220850">

<g transform="scale(4.36982859)">   <defs>
      <style type="text/css"><![CDATA[
      .a {
        stroke: #000;
        stroke-linecap: round;
        stroke-linejoin: round;
        stroke-width: 0.01px;
      }
    ]]></style>
   </defs>
   <path class="a"
         d="M15.26822.108a1.03017,1.03017,0,0,1-.3513.26044A3.16906,3.16906,0,0,0,14.47477.647c-.0848.06663-.218.1696-.30285.22411-.60569.41187-.72683.50272-.78134.62992a6.213,6.213,0,0,1-.56328.7026,5.74793,5.74793,0,0,0-.65415.854.94824.94824,0,0,1-.28469.3513.83256.83256,0,0,1-.76317-.29679,1.98577,1.98577,0,0,0-.89036-.60569,4.737,4.737,0,0,1-.96305-.103,2.51882,2.51882,0,0,0-.75711-.09691.87475.87475,0,0,0-.36341.11508,2.7172,2.7172,0,0,1-.58146.2241,3.17339,3.17339,0,0,0-.54512.19988,1.42636,1.42636,0,0,1-.66626.103,1.35833,1.35833,0,0,0-.848.19988c-.18171.103-.5209.27861-.745.39975a2.78038,2.78038,0,0,0-.67232.48456.83006.83006,0,0,1-.38764.27256A5.32123,5.32123,0,0,0,2.38517,5.37748a1.80859,1.80859,0,0,1-.38158.321,1.379,1.379,0,0,0-.33919.24227A1.10579,1.10579,0,0,1,1.301,6.183c-.0424,0-.13931.0848-.212.18171a1.80589,1.80589,0,0,1-.59357.41187C.03509,7.00071.029,7.00677.01086,7.249c-.01817.212,0,.25439.13931.315A3.13575,3.13575,0,0,0,2.046,7.17638.99536.99536,0,0,1,2.63351,7.025a1.44034,1.44034,0,0,0,.59357-.11508,1.84727,1.84727,0,0,1,.4785-.13931,2.10481,2.10481,0,0,0,.59358-.24833A4.789,4.789,0,0,1,5.01993,6.177a1.14727,1.14727,0,0,0,.39975-.218c.05452-.07268.15143-.09691.33313-.09085a.94828.94828,0,0,0,.50273-.109,4.07143,4.07143,0,0,1,.81768-.24833,4.91656,4.91656,0,0,0,.73289-.19988,2.52724,2.52724,0,0,1,.60569-.15142,2.0032,2.0032,0,0,0,.54512-.14537,1.5234,1.5234,0,0,1,.57541-.07874,9.26121,9.26121,0,0,0,.99333-.07874,1.3045,1.3045,0,0,1,.6178-.00605.40925.40925,0,0,1,.09692.56935,1.02058,1.02058,0,0,0-.09692.39975c-.01211,1.18716-.00605,1.3083.11509,1.54452a.98727.98727,0,0,1,.12719.36947,1.52474,1.52474,0,0,0,.12114.41792.75142.75142,0,0,1,.09085.33313c-.06057.09691.1272.46639.54512,1.07813.23622.33919.4785.70866.54513.81163a2.73359,2.73359,0,0,0,.33918.40581,1.302,1.302,0,0,1,.41793.71472,1.14643,1.14643,0,0,0,.24228.40581,1.1247,1.1247,0,0,1,.24227.38764.50677.50677,0,0,0,.1272.23622c.109.109.13325.218.14536.57541a1.3306,1.3306,0,0,1-.16353.7874,2.47787,2.47787,0,0,0-.1696.41792,2.31429,2.31429,0,0,1-.54512.78135.21861.21861,0,0,0-.12114.15142.37992.37992,0,0,1-.3937.3089c-.25439-.06662-.82373.32707-.963.6602a3.94722,3.94722,0,0,1-.54513.65415,3.42176,3.42176,0,0,0-.46032.533,2.03123,2.03123,0,0,1-.57541.78134c-.25439.18776-.321.34524-.36341.87825-.01212.13325-.01817.27256-.02423.3089a1.4349,1.4349,0,0,1-.24833.33313,1.18684,1.18684,0,0,0-.24228.33313,6.33268,6.33268,0,0,1-.43,1.2235.91838.91838,0,0,0-.11508.315,1.28236,1.28236,0,0,1-.11508.37553.657.657,0,0,0-.06663.35736,1.25317,1.25317,0,0,1-.01211.44821A2.04233,2.04233,0,0,0,8.739,24.09951a.64431.64431,0,0,1,.07874.2241c.01212.0848.0424.22411.06057.315a4.12149,4.12149,0,0,1,.0424.47244.75667.75667,0,0,0,.14536.47244.3747.3747,0,0,1,.09692.26045.09833.09833,0,0,0,.06662.12114.65043.65043,0,0,1,.26651.55118.61672.61672,0,0,0,.12719.36341,3.05832,3.05832,0,0,1,.3089.53907,4.821,4.821,0,0,0,1.03573,1.41731c.218.22411.4361.46033.48456.5209a1.82113,1.82113,0,0,0,.33918.28467,1.42128,1.42128,0,0,1,.3513.3089,1.72409,1.72409,0,0,0,.47244.33919,3.73079,3.73079,0,0,1,.53907.33919.3458.3458,0,0,0,.36341.09085c.25439-.06056.47244-.17564.47244-.25439,0-.06057.1272-.12114.54512-.24228a2.8112,2.8112,0,0,0,.57541-.28467A2.35957,2.35957,0,0,1,15.565,29.702a1.26184,1.26184,0,0,0,.40581-.2665c.14537-.13326.29073-.21805.34525-.19988.16959.06662.94487-.82374.94487-1.08419a.753.753,0,0,1,.35736-.6178,1.284,1.284,0,0,0,.49061-.81163.86183.86183,0,0,1,.12114-.35736.68565.68565,0,0,0,.109-.24227,1.59784,1.59784,0,0,1,.29074-.73895.70323.70323,0,0,0,.19987-.43609,1.27847,1.27847,0,0,1,.18171-.24228.93266.93266,0,0,0,.20594-.46638,1.90661,1.90661,0,0,1,.52089-.90854c.07874-.06663.07874-.0848.01211-.109-.16353-.06057-.321-.27256-.29073-.38765.01817-.06056.00606-.11508-.02423-.11508-.1817,0-.28467-.43609-.30284-1.30223a7.36288,7.36288,0,0,1,.09691-.98728c.03634-.109-.06663-.29679-.3089-.57541a.82265.82265,0,0,1-.20594-.29678.36773.36773,0,0,0-.09691-.17565,1.66336,1.66336,0,0,1-.2241-.66021.5126.5126,0,0,0-.13931-.218c-.09691-.09691-.12114-.18776-.109-.44215a1.28479,1.28479,0,0,0-.13325-.65415,2.47447,2.47447,0,0,1-.14537-.39975.907.907,0,0,0-.19382-.27256c-.17565-.17565-.19987-.24228-.212-.57541a2.63931,2.63931,0,0,0-.13931-.89037c-.103-.33918-.12719-.36341-.40581-.46032-.20593-.07268-.23016-.06663-.3513.06057a6.489,6.489,0,0,1-.52695.44821,1.62149,1.62149,0,0,0-.4361.46032,1.22343,1.22343,0,0,1-.24833.39369,1.3458,1.3458,0,0,0-.24834.47851,2.60991,2.60991,0,0,1-.44821.98122.04665.04665,0,0,0-.0424.07267,1.65762,1.65762,0,0,1-.41792.81164c-.13325.109-.15748.18169-.18171.66625a4.60953,4.60953,0,0,0,.00606,1.08419c.02422.16354.04845.38159.06057.48456a.942.942,0,0,0,.212.54512,1.35007,1.35007,0,0,1,.30284.642.57523.57523,0,0,0,.12114.27862.5744.5744,0,0,1,.12114.23622c0,.04845.13931.15142.30285.23621a1.16146,1.16146,0,0,1,.3089.19989c0,.02421.00605.218.00605.43609a1.12862,1.12862,0,0,0,.30285.89642c.13325.15143.15748.22411.11508.33313a.30074.30074,0,0,0,.01212.26045,1.65509,1.65509,0,0,1,.11508.44821,3.06966,3.06966,0,0,0,.17565.80556.53205.53205,0,0,1-.40582.739,1.61958,1.61958,0,0,1-.8843-.33313.38237.38237,0,0,0-.1696-.12113,4.95811,4.95811,0,0,1-.97516-.97517.4386.4386,0,0,1,0-.12719c.00606-.04241-.12114-.19989-.41793-.50878-.13325-.13932-.27862-.49667-.2241-.55118.05451-.04845-.11508-.3513-.29679-.533-.103-.103-.13931-.19382-.11508-.2665s-.03634-.23016-.15748-.43c-.17565-.28468-.18777-.33313-.1272-.533.11508-.3937.1272-.49667.06057-.69655a2.61271,2.61271,0,0,1-.11508-.70866,8.778,8.778,0,0,0-.03028-1.16293c-.01818-.02422.01211-.12719.06662-.23016a1.06757,1.06757,0,0,0,.0848-.45426.60035.60035,0,0,1,.05451-.34524.26975.26975,0,0,0,.07268-.17565.77939.77939,0,0,1,.13931-.30285,2.58069,2.58069,0,0,0,.24834-.533,2.41035,2.41035,0,0,1,.76922-1.19321,1.20432,1.20432,0,0,0,.30285-.29679c.01817-.2665.15142-.45427.32707-.45427a2.854,2.854,0,0,0,.72683-.9267.48971.48971,0,0,1,.26045-.29073,1.367,1.367,0,0,0,.58752-.7874,2.82053,2.82053,0,0,1,.25439-.58147,1.96939,1.96939,0,0,0,.23622-.66626,1.70855,1.70855,0,0,1,.16353-.75711,1.1798,1.1798,0,0,0,.103-.78134.30309.30309,0,0,1,.06057-.315.79891.79891,0,0,0,.13931-.36947.64785.64785,0,0,1,.09692-.29679.48079.48079,0,0,0,.06662-.27256.88081.88081,0,0,1,.06057-.315c.04846-.09085.03028-.14537-.09086-.26651A.8204.8204,0,0,1,16.8915,9.048c-.02423-.37553-.04845-.8722-.06662-1.27195-.01817-.4361-.03635-.51484-.17565-.66626a2.38854,2.38854,0,0,1-.27257-.35131,2.0812,2.0812,0,0,0-.3089-.36947.55845.55845,0,0,1-.19988-.3513A.91537.91537,0,0,0,15.777,5.6985a.43061.43061,0,0,1-.06057-.25439,2.92953,2.92953,0,0,0-.67232-1.381,1.18342,1.18342,0,0,1-.39975-.30285l-.30285-.30284.11508-.19382a2.36634,2.36634,0,0,1,1.37492-.77529,1.02755,1.02755,0,0,0,.41188-.11508,3.28494,3.28494,0,0,1,.533-.2241c.39976-.12114.48455-.18171.48455-.33919a1.50711,1.50711,0,0,1,.14537-.40581,1.15587,1.15587,0,0,0-.02423-1.1387L17.23066.005h-.95094C15.43176.005,15.32273.01711,15.26822.108Z"/>

</g>
</svg>
