<?xml version="1.0" encoding="UTF-8"?>
<svg xmlns="http://www.w3.org/2000/svg"
     version="1.1"
     width="28.81569198mm"
     height="55.12213230mm"
     viewBox="0.00000000 0.00000000 81.68233236 156.25170364">

<g transform="scale(4.22440051)">   <defs>
      <style type="text/css"><![CDATA[
      .a {
        stroke: #000;
        stroke-linecap: round;
        stroke-linejoin: round;
        stroke-width: 0.01px;
      }
    ]]></style>
   </defs>
   <path class="a"
         d="M3.79487.05346A.99968.99968,0,0,0,3.09833.538a.6265.6265,0,0,1-.23622.27862.37288.37288,0,0,0-.18171.19987,1.51977,1.51977,0,0,1-.20593.321,1.51862,1.51862,0,0,0-.36948.8722,3.19994,3.19994,0,0,1-.19987.90853,3.54137,3.54137,0,0,0-.07874.72683c-.02423.81163-.02423.77529.02422.88431a.17411.17411,0,0,1-.04239.18171,2.10275,2.10275,0,0,0-.03029.96305,3.55417,3.55417,0,0,1-.13325.848c-.18777.58147-.19988.66626-.13325.81769a.697.697,0,0,1,.01817.41187.47709.47709,0,0,0,.03028.37552.658.658,0,0,1-.0424.57541.24911.24911,0,0,0,.01817.20594,13.08134,13.08134,0,0,1,.109,2.08357c-.00606.23622.01817.32708.09085.3513a.55276.55276,0,0,1,.18777.212.9861.9861,0,0,0,.315.321,3.1425,3.1425,0,0,1,.79951.745,1.439,1.439,0,0,1-.23016.35736,3.21205,3.21205,0,0,0-.30285.46032c-.03634.09692-.09691.1696-.13325.1696-.09086,0-.22411.30284-.27256.636a1.46026,1.46026,0,0,1-.26651.69655,3.01535,3.01535,0,0,0-.43609.71471c-.03635.103-.09086.19382-.1272.19382-.03028,0-.04845.03635-.03028.07269a.31011.31011,0,0,1-.02423.17565,1.3168,1.3168,0,0,0-.07874.37553,1.12961,1.12961,0,0,1-.09691.39975.64821.64821,0,0,0-.03029.33313.53515.53515,0,0,1-.03634.34525,2.1417,2.1417,0,0,0-.09691.65414c-.01211.533-.06057.636-.29073.58147-.06663-.01817-.09085-.01212-.04846.006a.47418.47418,0,0,1,.13931.24228.32426.32426,0,0,1-.02422.35736c-.07269.109-.0848.1817-.0424.26044a.20123.20123,0,0,1,.00605.19383.14263.14263,0,0,0-.01211.14536,2.06848,2.06848,0,0,1,.0424.98728,1.51048,1.51048,0,0,0-.01211.6602,1.08875,1.08875,0,0,1-.00606.533,1.34156,1.34156,0,0,0-.04846.745.65307.65307,0,0,1-.05451.36341.41149.41149,0,0,0,.00606.46033.78759.78759,0,0,1,.03634.60569,3.56479,3.56479,0,0,0-.03634.76317,1.66619,1.66619,0,0,1-.04846.60569,1.15455,1.15455,0,0,0-.06057.29073.29025.29025,0,0,1-.0424.18777.208.208,0,0,0,0,.20593c.07269.13325-.09691.3089-.25439.26045-.20593-.06663-.12719.14537.09692.25439.23016.109.26044.16354.33313.59358a.72512.72512,0,0,1-.03635.47244,1.14244,1.14244,0,0,0-.02422.83585,2.71777,2.71777,0,0,1,.09691.78134c.01211.3513.03634.82374.04845,1.06.01817.23016.0424.68443.06057.99939a4.5499,4.5499,0,0,0,.0848.76317.4754.4754,0,0,1,.01211.27256.20635.20635,0,0,0,.00606.18777,1.6604,1.6604,0,0,1,.07874.52089,2.34537,2.34537,0,0,0,.06057.49667,4.50676,4.50676,0,0,1,.09085.81768c-.03028.27256-.06057.957-.05451,1.175a.564.564,0,0,0,.13931.40581c.07268.07874.19988.20594.28467.29679a.86543.86543,0,0,0,.24834.18171c.12719.0424.53906-.13325.53906-.23016a.8208.8208,0,0,1,.15142-.29074.56822.56822,0,0,0,.13326-.3089.26382.26382,0,0,1,.05451-.212.53161.53161,0,0,0,.08479-.26045.8522.8522,0,0,1,.45427-.64809c.16354-.07874.212-.1393.212-.26044a.86263.86263,0,0,1,.18777-.39976,1.52267,1.52267,0,0,0,.424-.93276,3.19647,3.19647,0,0,1,.23017-.70866.98911.98911,0,0,0,.12113-.61781c-.04239-.103-.01817-.16959.109-.29679.14536-.14536.15748-.19987.15142-.6178a4.12834,4.12834,0,0,0-.07268-.745.74894.74894,0,0,1-.02423-.3513.35934.35934,0,0,0-.03028-.22411.74905.74905,0,0,1,0-.46638,1.39171,1.39171,0,0,0-.00606-.93882.72777.72777,0,0,1-.03634-.6178.62249.62249,0,0,0-.00606-.33313.65059.65059,0,0,1-.01817-.321,2.41047,2.41047,0,0,0-.0424-.60569,2.57247,2.57247,0,0,1-.06057-.58146,3.46278,3.46278,0,0,0-.05451-.62992,2.42254,2.42254,0,0,1-.02423-.636,12.221,12.221,0,0,0,.03029-2.33191,6.62172,6.62172,0,0,1-.01212-1.09024,1.962,1.962,0,0,0-.06057-.61175,1.196,1.196,0,0,1-.01211-.61781,1.002,1.002,0,0,0,0-.52089,3.85786,3.85786,0,0,1,.19382-2.03512.64343.64343,0,0,0,.06057-.33919,1.90707,1.90707,0,0,1,.26045-.89036.23046.23046,0,0,0,.03634-.24228.46366.46366,0,0,1-.0424-.22411c.00606-.06662.03028-.36947.05451-.66626.0424-.48455.1696-.87825.28468-.87825a.7262.7262,0,0,0,.14536-.24228c.06057-.13325.13326-.24227.16354-.24227.02423,0,.04846-.05451.04846-.11508a.56117.56117,0,0,1,.15142-.29073c.08479-.09086.17565-.20594.212-.24834q.09994-.109.54512.05451a1.02225,1.02225,0,0,0,.54512-.03028,3.28836,3.28836,0,0,1,.5633-.09691.42.42,0,0,0,.26044-.09085c.06663-.06057.218-.09086.51484-.09086a2.23053,2.23053,0,0,0,.642-.09085,4.44962,4.44962,0,0,1,1.1387-.12114A4.45088,4.45088,0,0,0,11.681,12.3914a1.2612,1.2612,0,0,1,.47244-.09691,1.02235,1.02235,0,0,0,.41187-.0848,2.76259,2.76259,0,0,1,.70866-.16353,3.59385,3.59385,0,0,1,1.21744-.02423.6489.6489,0,0,0,.3513-.02423.27223.27223,0,0,1,.3937.16354,1.38849,1.38849,0,0,1-.30285.84191,2.75363,2.75363,0,0,1-.52089.44215,2.28229,2.28229,0,0,0-.59358.55724,1.478,1.478,0,0,1-.51484.4785.90287.90287,0,0,0-.321.23016.73544.73544,0,0,1-.24833.18776,6.19746,6.19746,0,0,0-1.00545.66626,2.78144,2.78144,0,0,1-.50272.29679,3.7395,3.7395,0,0,0-1.02362.59963c-.15748.14538-.533.32708-.58146.27257-.07268-.07268-.41793.06662-.70866.28467a.868.868,0,0,1-.37553.20594c-.02422-.01818-.12114.02422-.20593.09086a.59991.59991,0,0,1-.315.12719.2849.2849,0,0,0-.218.09691.34283.34283,0,0,1-.16959.109.71218.71218,0,0,0-.27862.18776,1.75023,1.75023,0,0,1-.4785.38159c-.09691.05451-.12114.12114-.109.2665.01211.109.01817.24835.02423.30891.01211.20594.25439.24227.58146.09692a2.23385,2.23385,0,0,1,.51485-.15145c.43-.03634.61174-.103.75711-.27861a.75593.75593,0,0,0,.15142-.23017c0-.03028.11508-.09085.26045-.12719a3.62224,3.62224,0,0,0,1.47789-.76923c.13931-.14537.23622-.19988.321-.17565.09086.02423.22411-.06057.50273-.32707.29073-.27862.41792-.35736.56329-.35736a1.62489,1.62489,0,0,0,.58752-.24228,2.69644,2.69644,0,0,1,.45427-.24227,1.47032,1.47032,0,0,0,.33918-.27257,1.62627,1.62627,0,0,1,.61175-.36947,1.7718,1.7718,0,0,0,.73289-.49061,3.58815,3.58815,0,0,1,.62992-.50272,2.705,2.705,0,0,0,.45426-.32707,1.44428,1.44428,0,0,1,.46639-.28468,1.04487,1.04487,0,0,0,.41187-.23622.72922.72922,0,0,1,.23622-.1817c.02422,0,.09691-.09086.15748-.19988a1.27186,1.27186,0,0,1,.32707-.3513,4.19764,4.19764,0,0,0,1.67171-1.8413l.33313-.66626-.27256-.24834a.784.784,0,0,0-.58752-.27862.73376.73376,0,0,0-.4361.0424.43727.43727,0,0,1-.30285.04846c-.15142-.02423-.3089.03028-.70866.24227a3.52765,3.52765,0,0,1-.751.315,1.77649,1.77649,0,0,0-.40582.1272.95427.95427,0,0,1-.38158.0848.93512.93512,0,0,0-.33313.06056,3.575,3.575,0,0,1-.92065.1272,4.05654,4.05654,0,0,0-.963.0848,3.18193,3.18193,0,0,1-.89642.12113,1.52709,1.52709,0,0,0-.527.09692,2.72257,2.72257,0,0,1-1.10236.1817.65558.65558,0,0,0-.36947.03634,1.07831,1.07831,0,0,1-.43.05452,1.5419,1.5419,0,0,0-.51484.09085,3.74592,3.74592,0,0,1-.66626.13931c-.16354.01817-.37553.04845-.46638.06663-.30891.07873-.46639-.01212-.62387-.34525a1.35117,1.35117,0,0,0-.212-.3513.456.456,0,0,1-.103-.24833,1.34389,1.34389,0,0,0-.07874-.29679.70149.70149,0,0,1-.01818-.33313c.01818-.13325.03635-.3089.04846-.3937a3.6936,3.6936,0,0,1,.0848-.424c.0424-.15143.09691-.36948.12719-.48456s.07874-.3089.109-.43a.55367.55367,0,0,0,.00605-.315c-.03634-.06057-.00605-.19988.09086-.41187.11508-.24833.13325-.34524.08479-.43609a2.21533,2.21533,0,0,1,.01212-1.07208,1.08561,1.08561,0,0,0,.09691-.32707,2.24108,2.24108,0,0,1,.11508-.39976,3.11445,3.11445,0,0,0,.0848-1.25378.4308.4308,0,0,1,.212-.50272A.56727.56727,0,0,0,8.495,2.75484a.60931.60931,0,0,0-.8232-.25468l-.00054.00029a1.27147,1.27147,0,0,1-.44215.103,1.007,1.007,0,0,0-.37553.09086.787.787,0,0,1-.27862.09085.40977.40977,0,0,0-.24833.1696,4.90806,4.90806,0,0,0-.533,1.07207A7.65826,7.65826,0,0,0,5.69674,5.111a1.10676,1.10676,0,0,1-.11508.33918c-.06663.1272-.103.24228-.0848.25439.05452.06057-.11508.3513-.2241.38159-.0848.03028-.09691.06662-.06057.17565a.28175.28175,0,0,1-.00606.24227.47973.47973,0,0,0-.03028.26651,1.10725,1.10725,0,0,1-.23622.76317c-.0848.03634-.26045-.109-.27256-.22411a1.24812,1.24812,0,0,1,.00605-.20593.54225.54225,0,0,0-.04845-.24228.97016.97016,0,0,1,0-.47244,1.23357,1.23357,0,0,0-.01817-.60569,1.18935,1.18935,0,0,1-.06663-.29073.30191.30191,0,0,0-.0424-.15142,1.15053,1.15053,0,0,1-.00605-.424.8207.8207,0,0,0-.00606-.3513.96361.96361,0,0,1-.13931-.32707,3.143,3.143,0,0,0-.15748-.41793,1.30742,1.30742,0,0,1,.00606-.6602,13.0025,13.0025,0,0,0,.12114-1.64748A1.32213,1.32213,0,0,1,4.40056.99834C4.46113.89537,4.46113.859,4.38845.7924,4.32788.73789,4.30971.647,4.34.4835,4.37634.28362,4.35816.24122,4.2128.12614A.7461.7461,0,0,0,4.01292.005C3.99475.01106,3.89784.02923,3.79487.05346Z"/>

</g>
</svg>
