<?xml version="1.0" encoding="UTF-8"?>
<svg xmlns="http://www.w3.org/2000/svg"
     version="1.1"
     width="44.69089249mm"
     height="35.58853953mm"
     viewBox="0.00000000 0.00000000 126.68290404 100.88090153">

<g transform="scale(4.36982859)">   <defs>
      <style type="text/css"><![CDATA[
      .a {
        stroke: #000;
        stroke-linecap: round;
        stroke-linejoin: round;
        stroke-width: 0.01px;
      }
    ]]></style>
   </defs>
   <path class="a"
         d="M17.82861.23283a6.797,6.797,0,0,1-1.07813.93882c-.1272.06662-.18777.13325-.1696.18776a.2995.2995,0,0,1-.07268.23017.31992.31992,0,0,0-.08479.212c.03028.09085-.06663.28467-.29074.56935-.09691.12113-.15748.23622-.13931.25439.07874.07874-.06056.30284-.23621.38158-.30285.13325-.38765.22411-.46033.49061a.78246.78246,0,0,1-.212.36342.65634.65634,0,0,0-.18171.27861.35061.35061,0,0,1-.24228.25439,1.06374,1.06374,0,0,0-.52089.59964.3889.3889,0,0,1-.103.20593c-.109.11508-.12719.16354-.18776.424-.0424.20593.109.61175.24227.65414a.44077.44077,0,0,1,.20594.18171.314.314,0,0,0,.43444.09194l.00166-.00109a.8553.8553,0,0,1,.73894.20594c.13325.12719.212.15748.33313.12719a.47932.47932,0,0,1,.29073.03029.946.946,0,0,0,.26651.09691c.07874.00606.212.03028.30284.0424a.37164.37164,0,0,1,.31555.4203l-.00055.0037a1.64452,1.64452,0,0,0,.03634.3513.2548.2548,0,0,1-.08479.28468,1.41083,1.41083,0,0,0-.33919.83585c-.01817.315-.05451.36947-.32707.49667-.38765.1817-.67232.38158-.67232.46638,0,.17565-.23016.315-.58752.36341a1.08065,1.08065,0,0,0-.636.26045,1.63905,1.63905,0,0,0-.34524.3513.53965.53965,0,0,1-.321.212,1.33684,1.33684,0,0,0-.43.23622.913.913,0,0,1-.28467.20594c-.06663.02423-.12114.06662-.12114.09691,0,.09691-.36342.28467-.49061.25439a.89575.89575,0,0,0-.424.103.87594.87594,0,0,1-.3937.09691c-.04846-.01817-.1272.03028-.18171.109-.12114.19382-.22411.23016-.6602.25439a.65783.65783,0,0,0-.38159.0848.647.647,0,0,1-.527.218c-.13325-.03634-.28468.05451-1.06.60569a.505.505,0,0,1-.38764.12719.79113.79113,0,0,0-.43.12114.6447.6447,0,0,1-.33919.109.99041.99041,0,0,0-.41793.09691c-.1817.06662-.424.14536-.53906.17565A1.66489,1.66489,0,0,0,6.21748,14.2c-.13931.09691-.24833.13325-.30284.103s-.13326,0-.23017.09691-.18776.13325-.26044.109a.14832.14832,0,0,0-.15748.03029c-.05452.09085-.49061.30284-.533.26045-.04846-.0424-.41793.103-.49667.19987a.3117.3117,0,0,1-.15142.09691.35474.35474,0,0,0-.16354.11509,9.547,9.547,0,0,1-1.18715.87825.41572.41572,0,0,0-.16354.212.68675.68675,0,0,1-.24833.27862.64791.64791,0,0,0-.23622.26044,1.00272,1.00272,0,0,1-.27862.321,1.2706,1.2706,0,0,0-.3089.41187.94705.94705,0,0,1-.22411.34524.86339.86339,0,0,0-.25439.55118.64675.64675,0,0,1-.19382.24228c-.13325.1272-.16353.19382-.12719.29073s.00605.18777-.1272.3513a1.60759,1.60759,0,0,0-.24227.424.6814.6814,0,0,1-.212.29678c-.16959.109-.15748.18777.09691.53907.09086.12719.15748.2665.13931.30285-.01211.04239.07874.1393.19988.2241a2.85713,2.85713,0,0,1,.35736.27256,3.7546,3.7546,0,0,0,1.78073.94488,1.76049,1.76049,0,0,1,.52089.15142,1.41737,1.41737,0,0,0,.424.109,3.05809,3.05809,0,0,1,.6178.15142,2.00116,2.00116,0,0,0,.424.12114c.12113.006.27861.006.424,0a3.91379,3.91379,0,0,1,.87825.109,1.90124,1.90124,0,0,0,.61781.07874A4.95771,4.95771,0,0,0,7.55,22.9523a.7963.7963,0,0,1,.30285-.05452,1.72407,1.72407,0,0,0,.47244-.09691,2.58017,2.58017,0,0,1,.66626-.11508c.218-.01211.533-.03634.69654-.05451.3937-.05451.56329-.00606.64809.17565.09085.19988.315.19988.86614-.00606a3.11507,3.11507,0,0,1,.51484-.15142,3.57447,3.57447,0,0,0,1.0115-.218,2.49539,2.49539,0,0,1,.50272-.19988c.321-.09691.43-.17565.84191-.59357.424-.44216.50273-.49061.81769-.5633a.70061.70061,0,0,0,.43-.19987.9123.9123,0,0,1,.29073-.23622.74511.74511,0,0,0,.27256-.25439,2.67259,2.67259,0,0,1,1.04785-.57541.91038.91038,0,0,0,.64808-.37553c.07269-.13325.24228-.24833.58753-.41792.2665-.13326.69048-.35736.93882-.50878a3.36088,3.36088,0,0,1,.6178-.30285,1.02973,1.02973,0,0,0,.53907-.45427c.09691-.14536.218-.17565.76317-.18171a.87341.87341,0,0,0,.65414-.36341c.09086-.17565.20594-.22411.533-.23016a.939.939,0,0,0,.39976-.15748c.19988-.13931.27256-.15748.70866-.14537a1.29522,1.29522,0,0,0,.67837-.09085,2.01459,2.01459,0,0,1,1.30829.03634c.23622.15748.26651.2665.24228.95093-.01817.79952-.0424.94488-.16959,1.08419a.84681.84681,0,0,0-.12114.40581,2.133,2.133,0,0,1-.1272.55724c-.103.24833-.103.26045.00606.34524a.51228.51228,0,0,0,.75107-.30284.36771.36771,0,0,1,.109-.19988,2.92889,2.92889,0,0,0,.27256-.37553c.09086-.15142.24833-.38158.34524-.51484a.89335.89335,0,0,0,.18171-.44215.46636.46636,0,0,1,.11508-.30285c.06057-.05451.19382-.17565.28468-.26044a2.31709,2.31709,0,0,0,.55118-.98728.27562.27562,0,0,1,.06057-.218.42049.42049,0,0,0,.0607-.27876c-.02423-.14536.03634-.26044.37552-.73288a1.07425,1.07425,0,0,0,.15143-.34525.68958.68958,0,0,1,.13325-.28467c.05451-.06057.07874-.13931.05451-.17565s.05451-.15748.17565-.27256c.25439-.23622.29679-.527.103-.636a.52055.52055,0,0,1-.21805-.3937c-.03028-.27256-.212-.75711-.28468-.75711a1.12218,1.12218,0,0,1-.26044-.65415c.06057-.15748-.23622-.46032-.5209-.533-.87825-.23017-1.07207-.24834-1.278-.13931-.09086.04845-.17565.04239-.34525-.02423a.883.883,0,0,0-.95093.01817,1.49858,1.49858,0,0,1-.47244.18171.84319.84319,0,0,0-.32708.12113,2.188,2.188,0,0,1-.86613.30285.67511.67511,0,0,0-.40582.25439,1.46446,1.46446,0,0,0-.25439.29679,6.29116,6.29116,0,0,1-1.20532.7874c-.103.03634-.18777.09085-.18777.12115s-.09085.09691-.19382.15141a5.80808,5.80808,0,0,0-.6178.424,2.07484,2.07484,0,0,1-.49061.32708c-.0424,0-.11508.06056-.1696.1393a.9329.9329,0,0,1-.33918.25439.58671.58671,0,0,0-.24834.15748,2.77047,2.77047,0,0,1-.35735.41187c-.25439.26045-.40582.36948-.51484.36948a1.22757,1.22757,0,0,0-.44821.1817,1.69778,1.69778,0,0,1-.36342.18171c-.03634,0-.12113.07269-.19382.16355a4.7763,4.7763,0,0,1-.848.69047c-.01817.00606-.109.01819-.212.0303a2.47666,2.47666,0,0,0-.44215.12113,5.4455,5.4455,0,0,1-1.37492.15143.40631.40631,0,0,0-.19382.06057,12.0927,12.0927,0,0,1-2.30163.12113c-.07874,0-.19987-.00605-.27256-.00605a4.5604,4.5604,0,0,1-1.07813-.12114,1.84493,1.84493,0,0,0-.54512-.0424,2.28436,2.28436,0,0,1-.62386-.06057,3.15232,3.15232,0,0,0-.6602-.103c-.69049-.03634-.76318-.30285-.1696-.60569A4.70686,4.70686,0,0,1,9.83958,15.69a5.0186,5.0186,0,0,0,1.33252-.55118c0-.09085.23622-.17565.58752-.20593a5.10945,5.10945,0,0,0,1.68383-.5209,2.1178,2.1178,0,0,0,.59357-.33918.65127.65127,0,0,1,.24228-.17565.81229.81229,0,0,0,.25439-.13931,10.80866,10.80866,0,0,1,1.169-.70866,3.34045,3.34045,0,0,0,.55724-.38764,2.6032,2.6032,0,0,1,.81768-.57541c.22411-.07268.33919-.19988.59358-.64809a1.11589,1.11589,0,0,1,.30284-.35736,2.169,2.169,0,0,0,.72078-.87219,1.69229,1.69229,0,0,1,.46638-.61781,1.15313,1.15313,0,0,0,.3937-.50879.93055.93055,0,0,1,.27862-.41792c.218-.19988.23622-.24228.18776-.39976-.07268-.24833.07268-.50878.41793-.75711.33313-.24228.47244-.39976.52089-.59964a2.70034,2.70034,0,0,1,.15142-.37553.56651.56651,0,0,0,.07874-.3089,1.055,1.055,0,0,1,.14537-.44215,1.31731,1.31731,0,0,0,.15748-.47244,2.6569,2.6569,0,0,1,.47849-1.04179.99306.99306,0,0,0,.212-.59963c0-.26044-.02423-.3089-.25439-.53907a2.26876,2.26876,0,0,1-.36948-.46032,1.2312,1.2312,0,0,0-.24227-.315.85487.85487,0,0,1-.212-.28468,1.07023,1.07023,0,0,0-.46639-.41187,4.6922,4.6922,0,0,1-.67231-.48455,1.32418,1.32418,0,0,0-.33919-.26045A2.47136,2.47136,0,0,1,19.2278.70515a1.21152,1.21152,0,0,1-.47248-.44809c-.1333-.24228-.15748-.2544-.424-.24834A.53809.53809,0,0,0,17.82861.23283ZM19.41552,4.612a.25406.25406,0,0,1,.09085.25439,2.26414,2.26414,0,0,0-.06662.25439.493.493,0,0,1-.15748.22411c-.15748.13325-.315.06663-.44216-.18171a.33046.33046,0,0,1-.006-.35736C18.96731,4.48478,19.20958,4.406,19.41552,4.612Z"/>

</g>
</svg>
