<?xml version="1.0" encoding="UTF-8"?>
<svg xmlns="http://www.w3.org/2000/svg"
     version="1.1"
     width="78.82008341mm"
     height="37.83371402mm"
     viewBox="0.00000000 0.00000000 223.42703222 107.24524595">

<g transform="scale(5.77949253)">   <defs>
      <style type="text/css"><![CDATA[
      .a {
        stroke: #000;
        stroke-linecap: round;
        stroke-linejoin: round;
        stroke-width: 0.01px;
      }
    ]]></style>
   </defs>
   <path class="a"
         d="M25.335.00988a.82054.82054,0,0,0-.27256.103,3.27285,3.27285,0,0,1-1.387.39976,2.82856,2.82856,0,0,0-1.30223.36341,1.37233,1.37233,0,0,1-.37553.11508.55538.55538,0,0,0-.45427.24228,1.34054,1.34054,0,0,1-.36341.33313,2.6906,2.6906,0,0,0-.81769.86614,1.21856,1.21856,0,0,1-.2665.33313,1.175,1.175,0,0,0-.3089.44215,4.93262,4.93262,0,0,1-.24228.84191c-.14536.33313-.14536.38764-.03028.64809.14536.32707.15142.38159.006.527-.103.103-.17565.109-.636.0848-.36947-.02423-.54512-.01212-.61175.0424a3.19933,3.19933,0,0,1-.98122.103,3.45588,3.45588,0,0,0-1.0539.11509.78474.78474,0,0,1-.27862.08479,1.46071,1.46071,0,0,0-.41187.15143.79871.79871,0,0,1-.38158.12113.68529.68529,0,0,0-.32708.09691,1.95162,1.95162,0,0,1-.70866.15748,1.95539,1.95539,0,0,0-.59357.12114,3.8257,3.8257,0,0,1-1.47183.109,7.08,7.08,0,0,0-1.272.15748c-.15143.03634-.424.12113-.61175.1817a2.12725,2.12725,0,0,1-.41187.11508,1.98461,1.98461,0,0,0-.424.1696,1.15882,1.15882,0,0,1-.40582.15142,1.2682,1.2682,0,0,0-.39975.1272.90951.90951,0,0,1-.36948.11508,1.4,1.4,0,0,0-.56329.17565.58515.58515,0,0,1-.20593.07874.99852.99852,0,0,0-.321.15142c-.109.06663-.29073.16354-.40581.218a3.58363,3.58363,0,0,0-1.10236.64809,1.51179,1.51179,0,0,1-.4361.3089,2.088,2.088,0,0,0-.43609.27256.42378.42378,0,0,1-.30891.15142c-.07268-.01817-.25439.0848-.50878.30285a4.68767,4.68767,0,0,1-.7026.4785,4.80292,4.80292,0,0,0-.56935.36947,5.378,5.378,0,0,1-.82374.62992.38554.38554,0,0,0-.16959.19987.60636.60636,0,0,1-.315.24228,1.98859,1.98859,0,0,0-.745.65415,1.03735,1.03735,0,0,1-.26651.23016c-.19987.14536-.26044.2241-.2665.35736,0,.09691-.00606.29679-.01211.44821s-.006.3028-.006.33915c.01211.1393.36341.45426.71472.62386a2.01781,2.01781,0,0,1,.41187.24833,1.668,1.668,0,0,0,.58752.36341,1.64134,1.64134,0,0,1,.35735.13931,1.06868,1.06868,0,0,0,.90854.03635,3.50087,3.50087,0,0,1,.80557-.09086,7.49491,7.49491,0,0,0,.94488-.09085,5.134,5.134,0,0,1,.69654-.06663c.8722-.01817,1.72622-.41187,1.85947-.854a.43374.43374,0,0,0,.01212-.32708,2.803,2.803,0,0,0-.89643-.50272,2.17192,2.17192,0,0,1-.44215-.2241.67565.67565,0,0,0-.424-.14537.86245.86245,0,0,1-.36948-.07874,4.8974,4.8974,0,0,0-.527-.212c-.41187-.14537-.60569-.321-.52089-.4785a5.99191,5.99191,0,0,1,1.29618-1.22349,1.59508,1.59508,0,0,0,.40581-.218c.28468-.18171.36947-.212.58146-.18171a1.03663,1.03663,0,0,0,1.03574-.36947A3.67969,3.67969,0,0,1,8.24238,9.483a1.8369,1.8369,0,0,1,.9267-.23622,1.06886,1.06886,0,0,0,.642-.13325c.09085-.06057.37553-.22411.62992-.35736.38764-.20593.49666-.24228.70865-.212a.52972.52972,0,0,0,.39976-.06663A5.153,5.153,0,0,1,12.76079,8.102a1.58294,1.58294,0,0,0,.36342-.11508c.75711-.33313.81162-.3513,1.066-.315a1.26124,1.26124,0,0,0,.533-.06057,4.61471,4.61471,0,0,1,1.64142.01817c.11509.01818.321.0424.45427.05452a1.82435,1.82435,0,0,1,.41187.08479c.14537.05452.26045.0424.60569-.06662a2.35855,2.35855,0,0,1,1.16293-.07874,3.386,3.386,0,0,0,.50272.03634,1.07659,1.07659,0,0,1,.4361.0848.86623.86623,0,0,0,.315.09085.94709.94709,0,0,1,.38159.15142c.29678.18171.38764.18777.6602.02423.16959-.09691.23622-.109.33919-.05451a.36961.36961,0,0,0,.23016.0424.7603.7603,0,0,1,.33313.09085.64044.64044,0,0,0,.30284.09085.66341.66341,0,0,1,.29679.09086,2.68,2.68,0,0,0,1.72622-.03634c.26045-.13326.35736-.1272.99334.08479a3.08118,3.08118,0,0,0,.77528.17565.63064.63064,0,0,1,.3089.03634,1.16182,1.16182,0,0,0,.72077.01818,7.1763,7.1763,0,0,1,1.87159.01817,3.24666,3.24666,0,0,0,.79345.06057c.59358-.01212.64809-.02423.8722-.18777A.43331.43331,0,0,1,31.47155,8.43l.00511.005a.6519.6519,0,0,0,.58753-.09085,1.87229,1.87229,0,0,0,.33918-.41187.68655.68655,0,0,0,.0424-.848c-.07269-.09691-.07269-.14536.00606-.32707a.68032.68032,0,0,0,.06662-.27862,1.97474,1.97474,0,0,1,.02423-.46032.92843.92843,0,0,0-.0424-.55724c-.04845-.09085-.07268-.16959-.06057-.16959a.812.812,0,0,0-.06057-.30285c-.109-.35736-.04845-.527.20594-.5754.09085-.01818.23016-.05452.315-.07874a.62159.62159,0,0,1,.33313,0,.98884.98884,0,0,0,.3513.01211c.16354-.03634.4361.103.78134.38764a.83911.83911,0,0,0,.36342.103,2.01663,2.01663,0,0,1,.59963.16959,1.851,1.851,0,0,0,.424.16354.5758.5758,0,0,1,.24227.109c.09085.05452.27256.17565.40582.27256a.56849.56849,0,0,1,.28467.33313,1.7522,1.7522,0,0,0,.14536.37553,1.4483,1.4483,0,0,1,.06664.90854,1.41345,1.41345,0,0,0-.07874.30285c-.09085.56329-.19988.73288-.92671,1.39914-.41792.38764-.46032.49667-.30284.854.14536.33313.32706.43.77528.424a1.18944,1.18944,0,0,0,.86008-.57541,1.20908,1.20908,0,0,1,.27862-.37553,2.01263,2.01263,0,0,0,.30285-.39369,2.09106,2.09106,0,0,1,.25439-.36948,3.44868,3.44868,0,0,0,.50272-1.93821,7.7263,7.7263,0,0,1,.07269-.81157,1.86857,1.86857,0,0,0-.07874-.848,6.162,6.162,0,0,0-.46032-1.33858,3.18909,3.18909,0,0,0-.78134-.75105,2.37817,2.37817,0,0,1-.33919-.13326,1.786,1.786,0,0,0-.56329-.13931,7.068,7.068,0,0,1-1.22956-.15748,12.74389,12.74389,0,0,0-1.94429-.14532,6.27677,6.27677,0,0,1-.79952-.05451,1.449,1.449,0,0,0-.43.02422c-.46032.07874-.64809,0-.82374-.33918a2.6905,2.6905,0,0,0-.55723-.62386c-.49667-.43-.61175-.44822-1.272-.218a4.07509,4.07509,0,0,1-.47244.15142,2.38916,2.38916,0,0,1-.424-.3513A1.83182,1.83182,0,0,0,26.77049.1613a.394.394,0,0,1-.29679.03635,1.71292,1.71292,0,0,0-.43-.07269,2.01747,2.01747,0,0,1-.45427-.08479A.50207.50207,0,0,0,25.335.00988Zm-.62386,1.599a1.28268,1.28268,0,0,1,.78739.13325,3.22438,3.22438,0,0,1,1.13265,1.0963,2.12618,2.12618,0,0,0,.18776.46638c.13931.26651.14537.30285.06663.45427a3.005,3.005,0,0,0-.29073,1.24167c.01211.28467-.00606.36341-.11509.47243-.11508.11509-.16959.1272-.38158.09086a7.28858,7.28858,0,0,0-.8298-.06057c-.745-.01817-.71471-.01211-.7874-.15142-.04845-.09086-.04239-.16354.03029-.30285.16959-.32707-.00606-1.03573-.27256-1.12053a.58108.58108,0,0,1-.23622-.2665,5.223,5.223,0,0,0-.78134-.93882c-.0424-.03634-.20594-.18171-.3513-.321-.22411-.218-.26045-.27862-.212-.37553a1.69308,1.69308,0,0,1,.87216-.3634.83344.83344,0,0,0,.2665-.09086c.02423-.02422.1272-.01817.23017.00606a3.93509,3.93509,0,0,0,.68447.03029Zm4.14292,3.45849c.218.15142.24834.26651.109.40581-.09691.09692-.20594.12114-.48456.12114-.56935,0-.75711-.28467-.36947-.55723a.81389.81389,0,0,1,.745.03031Z"/>
   <path class="a"
         d="M14.97768,9.16793c-.2241.22411-.44821.47244-.50878.55118-.05451.07874-.18171.26045-.28467.40581a1.07147,1.07147,0,0,0-.18171.35736,2.15393,2.15393,0,0,1-.14537.4361c-.52089,1.21744-.52089,1.24166-.25439,1.73833a2.12542,2.12542,0,0,1,.218.47244,1.91916,1.91916,0,0,0,.66626.77528,2.40586,2.40586,0,0,1,.81163.90854,1.29613,1.29613,0,0,0,.84191.67837.68791.68791,0,0,1,.24227.0848.71407.71407,0,0,0,.28468.06057,1.42289,1.42289,0,0,1,.37553.07874c.13325.05451.218.0424.50878-.09085a1.772,1.772,0,0,1,.533-.15748.6.6,0,0,0,.424-.218c.17565-.16354.26045-.20594.35736-.17565a3.65339,3.65339,0,0,0,.37553.08479,1.93548,1.93548,0,0,1,.424.13931,1.66414,1.66414,0,0,0,.81768.0848c.3513-.01211.66626-.02423.69655-.03634a.81713.81713,0,0,1,.27256.02423c.59358.12113.7874.07874,1.06-.24834.16353-.18776.24227-.2241.62992-.29679.321-.06056.47244-.06662.56329-.01817a4.27949,4.27949,0,0,0,.83585.23017c.68443.07874.78134.07268,1.08419-.06057a.815.815,0,0,1,.34524-.09691.88193.88193,0,0,0,.3513-.07874c.38159-.15143.56935-.15143.76318-.01817.11508.08479.27861.109.69654.109a1.30461,1.30461,0,0,0,.7874-.12719,2.5506,2.5506,0,0,1,1.15081-.28468,3.55,3.55,0,0,0,1.278-.3937.29374.29374,0,0,1,.32707-.01211.865.865,0,0,0,.61175.11508c.09085-.05451.38764.0848.43.19988.04846.13325-.01211.218-.33313.44821-.17565.12719-.38764.29679-.4785.38158s-.212.19988-.27256.25439a2.05468,2.05468,0,0,0-.47244.59964c-.03634.11508-.27861.33918-.78739.72683-.15143.11508-.37553.3089-.50273.424a3.08445,3.08445,0,0,1-.54512.37553.9233.9233,0,0,0-.47244.48455c-.15142.29679-.15142.315-.04845.3937a.47979.47979,0,0,0,.5754-.04845.94079.94079,0,0,1,.26651-.13931,1.6331,1.6331,0,0,0,.38158-.20594,1.53644,1.53644,0,0,1,.36342-.19382.91968.91968,0,0,0,.27256-.16959c.72683-.55118.76923-.57541,1.06-.58147.38158-.01211.6178-.18776.95093-.69654a1.69617,1.69617,0,0,1,.51484-.55118,2.14991,2.14991,0,0,0,.41793-.33313,3.5593,3.5593,0,0,1,.73894-.66626.568.568,0,0,0,.23622-.41793,2.96961,2.96961,0,0,1,.36947-.55723c.34524-.44821.36342-.49667.32707-.72077-.04239-.28468-.03634-.27257-.43609-.48456a1.52956,1.52956,0,0,0-.90854-.16353c-.75106,0-.91459.02422-1.15687.15142a1.01685,1.01685,0,0,1-.424.103c-.45427-.00606-.50273,0-.61781.06057a.68091.68091,0,0,1-.25439.05451,1.57587,1.57587,0,0,0-.41187.06662,4.51482,4.51482,0,0,1-1.45366.05452,1.5,1.5,0,0,0-.76317.08479,1.58412,1.58412,0,0,1-.75711.07874,2.05768,2.05768,0,0,0-.77529.06663,4.93284,4.93284,0,0,1-1.6717.05451,4.2936,4.2936,0,0,0-1.02968-.0424,5.58964,5.58964,0,0,1-.80557-.04845,3.52292,3.52292,0,0,0-.64809-.03029,2.18157,2.18157,0,0,1-.61174-.14536,7.38774,7.38774,0,0,0-.81163-.22411,2.14015,2.14015,0,0,1-.51484-.16959,1.59027,1.59027,0,0,1-.99333-1.32041,2.615,2.615,0,0,0-.64809-1.48394A.78759.78759,0,0,1,19.06,9.4526a.70613.70613,0,0,0-.14537-.36341A1.403,1.403,0,0,0,18,9.00439,3.64246,3.64246,0,0,0,16.9098,10.0159a.69129.69129,0,0,1-.15143.20593c-.12719.13931-.16959.15143-.27861.09691a.74558.74558,0,0,1-.26045-.67231c.03028-.17565-.00606-.24834-.23016-.51484C15.59549,8.66524,15.48041,8.66524,14.97768,9.16793Z"/>

</g>
</svg>
