<?xml version="1.0" encoding="UTF-8"?>
<svg xmlns="http://www.w3.org/2000/svg"
     version="1.1"
     width="38.26890207mm"
     height="22.66626825mm"
     viewBox="0.00000000 0.00000000 108.47873061 64.25088746">

<g transform="scale(4.54756027)">   <defs>
      <style type="text/css"><![CDATA[
      .a {
        stroke: #000;
        stroke-linecap: round;
        stroke-linejoin: round;
        stroke-width: 0.01px;
      }
    ]]></style>
   </defs>
   <path class="a"
         d="M23.092.06868a1.5871,1.5871,0,0,1-.6844.11512,3.33278,3.33278,0,0,0-.76317.115,1.7837,1.7837,0,0,1-.90853.0909,1.19831,1.19831,0,0,0-.424.04845A.62585.62585,0,0,1,19.82127.426a1.13011,1.13011,0,0,0-.854.3089c-.17565.13325-.30285.18777-.36342.16354A.87891.87891,0,0,0,18.083.90454,3.62168,3.62168,0,0,1,17.6287.9651a2.81358,2.81358,0,0,0-1.06.24228,1.33328,1.33328,0,0,1-.56329.12114.42921.42921,0,0,0-.43.15748.53938.53938,0,0,1-.36342.17565.8874.8874,0,0,0-.40581.15142c-.26045.17565-.51484.19382-.6602.04846-.09691-.09691-.109-.09086-.212.0424-.11508.15142-.46639.24833-1.06.27256-1.34464.07268-1.39915.07874-1.73834.23016a.93036.93036,0,0,0-.3513.212c0,.03029-.11508.09691-.24833.15142-.18776.07269-.28467.0848-.36947.03634a.27918.27918,0,0,0-.218-.01817,3.69984,3.69984,0,0,1-.64809.06057,4.05414,4.05414,0,0,0-1.44154.1272.32666.32666,0,0,1-.22411.04845,2.123,2.123,0,0,0-.48455-.03634c-.36947,0-.44821.01817-.61175.15748-.1272.103-.23016.14537-.3089.11508-.06663-.01817-.24834-.05451-.39976-.07874a.75676.75676,0,0,0-.62992.15748,3.18841,3.18841,0,0,1-.37553.19988.52048.52048,0,0,0-.15748.12114.57284.57284,0,0,1-.70865,0,.40123.40123,0,0,0-.29074-.12114A.83781.83781,0,0,1,3.27383,3.4c-.50879-.33313-.848-.33313-1.06,0a1.57169,1.57169,0,0,1-.26651.3089c-.27862.24834-.636.59358-.77528.745a4.9422,4.9422,0,0,1-.44216.38765,1.05774,1.05774,0,0,0-.43,1.387c.109.212.109.24833.03029.527a1.61691,1.61691,0,0,0-.07874.37553.64814.64814,0,0,1-.09086.47849c-.23622.23622-.19987.854.0848,1.381a.88.88,0,0,1-.00609.46024,2.49124,2.49124,0,0,0,.06663,1.387,2.79406,2.79406,0,0,1,.15748.99939c.01211.3513.03634.7026.04845.7874s.02423.38158.03029.66626c.00606.46638.01817.533.16354.69048.13325.13931.19382.16354.3513.1272a7.25948,7.25948,0,0,1,.83585-.11508,1.847,1.847,0,0,0,.47244-.11508c.13325-.05452.35736-.15143.49667-.20594a1.09368,1.09368,0,0,1,.533-.12719,2.06809,2.06809,0,0,0,1.02968-.70866,2.062,2.062,0,0,0-.00606-1.21138.84348.84348,0,0,1-.07874-.41187.44363.44363,0,0,1,.533-.16354.78517.78517,0,0,0,.66626-.03634,1.30585,1.30585,0,0,1,.47244-.11508.97284.97284,0,0,0,.59358-.15143c.01817-.01817.2241-.16353.46638-.321a1.23122,1.23122,0,0,1,.70866-.29679c.16353,0,.28467-.03634.30284-.0848a1.66931,1.66931,0,0,1,.83586-.2665c.09085,0,.16959-.02423.16959-.05451a1.81679,1.81679,0,0,1,.72077-.30891.26631.26631,0,0,0,.16354-.06057.41443.41443,0,0,1,.18776-.08479,2.04136,2.04136,0,0,0,.424-.212,1.34663,1.34663,0,0,1,.636-.212,1.8992,1.8992,0,0,0,1.00542-.25427.84187.84187,0,0,1,.32707-.14536.55779.55779,0,0,0,.27256-.12114A.55823.55823,0,0,1,13.08,8.20311a.472.472,0,0,0,.24228-.12719.56662.56662,0,0,1,.24228-.13931,5.00355,5.00355,0,0,0,1.02361-.50273.5634.5634,0,0,1,.24228-.109c.09085-.01817.24833-.06057.3513-.09085a1.10868,1.10868,0,0,1,.30285-.06057,2.74674,2.74674,0,0,0,1.10235-.50273,2.51181,2.51181,0,0,1,.67232-.34524.18105.18105,0,0,0,.16354-.09085,3.53034,3.53034,0,0,1,1.01146-.51484.34837.34837,0,0,0,.18171-.12114.33573.33573,0,0,1,.212-.12114.72408.72408,0,0,0,.315-.18171.70315.70315,0,0,1,.27862-.1817.16356.16356,0,0,0,.12719-.0848c.06057-.103.41187-.28467.46033-.23622a1.16941,1.16941,0,0,0,.3937-.24228q.61782-.46335.6178-.36341c0,.02423.09086-.04845.19988-.16354s.29679-.29678.41187-.40581.29073-.29679.39976-.424c.103-.1272.27256-.321.37552-.4361a1.04277,1.04277,0,0,0,.18777-.25439c0-.03029.103-.103.2241-.15748a.43042.43042,0,0,0,.27256-.3089.40545.40545,0,0,1,.14537-.23622c.09691-.03634.29679-.37553.24228-.424a1.84564,1.84564,0,0,1,.30891-.69654c.07873-.0848.07873-.13325.01211-.321A.63756.63756,0,0,0,23.625.08685.52663.52663,0,0,0,23.092.06868Zm-3.25861,1.811c.01817.04845-.05451.18776-.1696.315-.11508.12114-.44821.50878-.73894.86008a7.28735,7.28735,0,0,1-.58146.65414,4.69277,4.69277,0,0,0-.4361.41793,4.186,4.186,0,0,1-.93276.84191.6865.6865,0,0,0-.26045.28468c-.0848.19987-.321.37552-.424.315a.08257.08257,0,0,0-.109.01211,2.34522,2.34522,0,0,1-.75711.38158.14227.14227,0,0,0-.11508.07874,3.013,3.013,0,0,1-.96911.43.77946.77946,0,0,0-.321.212,1.01817,1.01817,0,0,1-.34523.24833,5.19259,5.19259,0,0,0-.84192.41187,1.78737,1.78737,0,0,1-.54512.16959,5.64141,5.64141,0,0,0-1.47183.58752,2.70415,2.70415,0,0,1-.89037.24228.91713.91713,0,0,0-.30284.212c-.54513.5209-.59964.55724-.7874.5633-.109.00605-.38764.01817-.62386.03028a3.29337,3.29337,0,0,0-.7874.13325,1.04359,1.04359,0,0,1-.39976.09691,6.65916,6.65916,0,0,0-1.14475.48456.93012.93012,0,0,1-.50878.06662.94228.94228,0,0,0-.54513.09085.45571.45571,0,0,1-.38158.05452c-.16354-.04846-.20594-.09691-.26045-.315-.03634-.13931-.09085-.321-.12114-.40582a1.06463,1.06463,0,0,1-.05451-.30284,2.19461,2.19461,0,0,0-.03028-.33313c-.01817-.103-.0424-.315-.06663-.47244a1.82966,1.82966,0,0,0-.14537-.51484.605.605,0,0,1-.06662-.37553.56348.56348,0,0,0-.00606-.28467.96205.96205,0,0,1-.04845-.30285,1.55939,1.55939,0,0,0-.0363-.33312c-.03635-.1393-.01212-.19987.14536-.34524.23622-.218.71472-.38764.8722-.30285.11508.06663.17565.03635.41187-.19382a.27952.27952,0,0,1,.24227-.07268,1.23184,1.23184,0,0,0,.48456-.12719,1.13121,1.13121,0,0,1,.37552-.12114c.03635.03634.38159-.13325.57541-.28468a.29678.29678,0,0,1,.22411-.07874.33121.33121,0,0,0,.2241-.0424.98353.98353,0,0,1,.26041-.097,5.00735,5.00735,0,0,0,.93882-.2241A.43436.43436,0,0,1,8.61,4.49628a1.33985,1.33985,0,0,0,.45427-.11508,2.16167,2.16167,0,0,1,.88431-.19988c.12114-.01211.3513-.04239.51484-.06057.15748-.02422.40581-.04845.53906-.06662A1.53064,1.53064,0,0,0,11.487,3.9148a2.33846,2.33846,0,0,1,.53906-.15748,2.16387,2.16387,0,0,0,.57541-.16959A1.50085,1.50085,0,0,1,13.42518,3.4a1.13145,1.13145,0,0,0,.45426-.12719c.0848-.05452.1696-.07874.19383-.06057.09085.09691.109-.27862.01211-.41793a.23182.23182,0,0,1-.02423-.29679.736.736,0,0,1,.13325-.1817c.09691-.06057.30891.06056.4361.25439.06663.09691.13325.16353.15748.14536.02423-.01211.0848.01817.13325.06663a.93686.93686,0,0,0,.7874.006.766.766,0,0,1,.32707-.08479.86289.86289,0,0,0,.321-.07269,1.85292,1.85292,0,0,1,.62386-.16353c.12114-.01817.22411-.05451.22411-.07874a1.22019,1.22019,0,0,1,.62386-.22411.75786.75786,0,0,0,.29679-.05451.72722.72722,0,0,1,.33919-.0424.62879.62879,0,0,0,.31495-.07268.57973.57973,0,0,1,.36948-.06057.34931.34931,0,0,0,.33313-.0848c.16355-.12712.29681-.115.35132.03036Z"/>

</g>
</svg>
