<?xml version="1.0" encoding="UTF-8"?>
<svg xmlns="http://www.w3.org/2000/svg"
     version="1.1"
     width="46.28911955mm"
     height="42.89302628mm"
     viewBox="0.00000000 0.00000000 131.21327065 121.58655799">

<g transform="scale(6.67261330)">   <defs>
      <style type="text/css"><![CDATA[
      .a {
        stroke: #000;
        stroke-miterlimit: 10;
        stroke-width: 0.15px;
      }
    ]]></style>
   </defs>
   <path class="a"
         d="M1.95434,4.601c-.08836-.14893-.16877-.30245-.255-.45261-.14666-.25531-.17063-.30809-.16243-.3803.028-.24666.36876-.3037.60814-.238s.50573.18412.71948.05787c.04413-.22222-.11405-.42652-.2305-.62084s-.18166-.48032-.00328-.62c.14735-.11536.43074-.10886.44252-.29562a4.73221,4.73221,0,0,0-.32643-.4915c-.13033-.17208-.17629-.20861-.18047-.288A.67542.67542,0,0,1,3.29875.74a1.95566,1.95566,0,0,1,.66635.42009c.21718.152.55049.2283.72319.02721a.45186.45186,0,0,0,.00792-.5125A1.3247,1.3247,0,0,0,4.3013.30156c.05125-.144.264-.1445.394-.06415.17374.10736.21791.2174.37379.26186C5.30351.56612,5.45824.251,5.81.11257c.165-.065.28114-.0547,1.069.10231C8.0538.449,8.15.49681,8.25779.60242a1.14446,1.14446,0,0,1,.33385,1.04034c-.10335.3805-.42811.386-.49882.77819a1.2457,1.2457,0,0,0,.21648.82663c.1805.271.36019.30948.40625.53125a.70291.70291,0,0,1-.15625.53125,1.14636,1.14636,0,0,0-.875.125c-.34876.24595-.33781.67076-.62147.72757-.221.04425-.2863-.2018-.65977-.25882a.87659.87659,0,0,0-.835.28978c-.10164.156-.02565.23982-.10829.51168-.11444.37648-.311.383-.39789.63359-.162.46712.4221.72929.46619,1.53369a3.42125,3.42125,0,0,1-.125.84375c-.15468.72719-.27259.71635-.28125,1.09376-.00748.32553.07954.3639.13286,1.10939a.80536.80536,0,0,1-.07935.56848c-.151.20747-.35831.134-.45976.32213-.14517.26916.11435.72548.14383.77732.08572.15073.13234.17322.14207.27008.02.19909-.20914.325-.29512.50571-.09529.20023.04951.41724.12192.55309a1.40958,1.40958,0,0,0,.5123.5188,12.136,12.136,0,0,0,1.3125.8125,4.85658,4.85658,0,0,0,2.21454.34827,6.283,6.283,0,0,0,1.6629-.41891,8.87937,8.87937,0,0,0,1.86568-.91841.63994.63994,0,0,1,.35435-.15891c.25482.00273.39078.346.28455.57762a.98216.98216,0,0,1-.59467.44724,4.89151,4.89151,0,0,1-1.06462.25023c-.112.01427-.25018.04733-.27431.15761a.27856.27856,0,0,0,.04088.1725c.11432.267.01024.32948.10445.51152.09285.17943.20757.145.32593.36731a.45242.45242,0,0,1,.076.25665c-.02223.2132-.30573.34593-.40532.39256a10.76018,10.76018,0,0,1-8.21529.171A5.23526,5.23526,0,0,1,.5593,15.43509a3.90781,3.90781,0,0,1-.40625-1,4.43918,4.43918,0,0,1,0-1.65625A9.20325,9.20325,0,0,1,.54686,10.8822c.242-.73947.39159-1.09457.43326-1.211A3.07134,3.07134,0,0,0,1.20525,9.061a.62341.62341,0,0,0-.00158-.12,3.30892,3.30892,0,0,1,.13866-.96756c.18008-.66231.06134-.82185.27948-1.66334C1.85734,5.40148,2.16114,4.94954,1.95434,4.601Z"/>
   <path class="a"
         d="M8.48048,12.53256c.02362-.08243.04843-.18237.12993-.20906a.21986.21986,0,0,1,.14732.01253c.77409.33273,3.27023-1.11966,3.27023-1.11966,2.5554-1.48686,3.4957-1.27557,4.83169-2.0508a2.5914,2.5914,0,0,1,1.22986-.31236.70963.70963,0,0,1,.43819.11055.77542.77542,0,0,1,.218.30818,3.50036,3.50036,0,0,1,.2635.82823,2.26682,2.26682,0,0,0,.24174.8614c.14445.21864.40367.43094.32343.68039-.05493.17075-.24646.25029-.417.30583a17.36354,17.36354,0,0,1-3.87872.78163,11.38913,11.38913,0,0,0-1.336.1519,10.2181,10.2181,0,0,0-1.015.29137q-.91456.29079-1.84727.51964c-.12349.03029-.32233-.02022-.27191-.137a5.01727,5.01727,0,0,0,1.11688-.35446.57319.57319,0,0,0-.15738-.37183c-.40706-.3967-1.52644.03719-2.17784.28967a11.6742,11.6742,0,0,1-1.12829.3115.70043.70043,0,0,1-.36385.03367C7.597,13.32889,8.40614,12.79187,8.48048,12.53256Z"/>

</g>
</svg>
