<?xml version="1.0" encoding="UTF-8"?>
<svg xmlns="http://www.w3.org/2000/svg"
     version="1.1"
     width="48.95361264mm"
     height="42.36497200mm"
     viewBox="0.00000000 0.00000000 138.76618602 120.08964819">

<g transform="scale(5.28647590)">   <defs>
      <style type="text/css"><![CDATA[
      .a {
        stroke: #000;
        stroke-linecap: round;
        stroke-linejoin: round;
        stroke-width: 0.01px;
      }
    ]]></style>
   </defs>
   <path class="a"
         d="M10.60459.12613a.37884.37884,0,0,1-.23016.15748.76309.76309,0,0,0-.24228.103,1.19209,1.19209,0,0,1-.43609.07874A1.55923,1.55923,0,0,0,9.23573.538a.51.51,0,0,1-.3513-.01817A1.77936,1.77936,0,0,0,7.73362.61674a1.58752,1.58752,0,0,1-.41187.15748,2.11289,2.11289,0,0,0-.854.41792.645.645,0,0,1-.29073.14537.76884.76884,0,0,0-.34524.24833,1.473,1.473,0,0,1-.41793.33313c-.109.04846-.19988.1272-.19988.17565,0,.0848-.14536.27256-.45427.59964-.19382.19382-.34524.46032-.315.53906a.31011.31011,0,0,1-.02423.17565c-.06663.12114.28467.5209.49061.5633a.57247.57247,0,0,1,.24833.12719c.06057.05451.13325.07874.16959.05451a.603.603,0,0,1,.29074.03029,4.35849,4.35849,0,0,0,.65414.09691,3.278,3.278,0,0,1,.72683.14536,1.6109,1.6109,0,0,0,.54512.109c.13326-.00606.50273.01211.81769.03634.82374.06057,1.35069.09691,1.42337.09085.25439-.01211.69049-.06662,1.1811-.14536a5.35772,5.35772,0,0,1,.78134-.09086.69347.69347,0,0,0,.47244-.218,2.0178,2.0178,0,0,1,.46638-.29074c.103-.04239.27256-.11508.36947-.16959a2.07735,2.07735,0,0,1,.49667-.13325c.27256-.03634.33313-.02423.44215.0848a.40054.40054,0,0,1,.12114.1817,1.84183,1.84183,0,0,0,.6602.78134c.19382.103.61781.12114.65415.02423a.68407.68407,0,0,1,.27256-.20593.73587.73587,0,0,0,.4361-.76317.74387.74387,0,0,1,.13325-.51484.94137.94137,0,0,0,.14537-.33313,1.08192,1.08192,0,0,1,.07268-.29679c.06057-.16354.04845-.23016-.06057-.44215a1.05316,1.05316,0,0,1-.12114-.29679c.0424-.13326-.87825-.86008-1.09024-.86008a.50047.50047,0,0,1-.22411-.07874,6.09529,6.09529,0,0,0-1.76862-.5209c-.3089.01212-.642-.11508-.7026-.27862-.03028-.06662-.13325-.09085-.43-.09085-.33313,0-.40581.01817-.46032.12114a.35576.35576,0,0,1-.46721.18671l-.0234-.01106A.52158.52158,0,0,1,10.9014.12008C10.82264-.03135,10.68333-.02529,10.60459.12613Zm.1272,1.63536a1.22106,1.22106,0,0,0,.33313.09691.878.878,0,0,1,.65414.38765c.18171.20593.212.2665.15748.36341a1.36669,1.36669,0,0,1-1.02967.40581,2.36,2.36,0,0,1-.87825-.03634,4.74987,4.74987,0,0,0-.642-.12114,1.63825,1.63825,0,0,1-.6178-.46638c-.09085-.15748.07268-.315.46032-.44215A3.07991,3.07991,0,0,1,9.83537,1.816a1.04535,1.04535,0,0,0,.35735-.06663A.72384.72384,0,0,1,10.73179,1.76149Z"/>
   <path class="a"
         d="M24.53549,2.08251a1.95257,1.95257,0,0,1-.45427.06663,5.18352,5.18352,0,0,0-.75712.12719,2.848,2.848,0,0,1-.44821.09085,3.16664,3.16664,0,0,0-.98727.642.65519.65519,0,0,0-.24228.45427,1.3341,1.3341,0,0,1-.44821.86008.64466.64466,0,0,0-.23622.38158.45331.45331,0,0,1-.13931.28468c-.07874.07268-.27256.25439-.43.39975a2.71759,2.71759,0,0,0-.636.90854,1.49623,1.49623,0,0,1-.18776.27862,1.34555,1.34555,0,0,0-.17565.3937,1.37455,1.37455,0,0,1-.38159.5754,2.46137,2.46137,0,0,0-.41187.5209,12.33618,12.33618,0,0,1-1.45365,1.63536c-.18171.18777-.44216.47244-.58147.62386a1.1056,1.1056,0,0,1-.3089.27862,2.09933,2.09933,0,0,1-.41793-.23016,1.313,1.313,0,0,0-.43-.212,1.20628,1.20628,0,0,1-.44215-.103c-.4785-.16959-.86614-.17565-1.03573-.02423a.79191.79191,0,0,1-.49667.1272,4.08439,4.08439,0,0,0-.92065.13931.218.218,0,0,1-.27256-.11508c-.04846-.09691-.03029-.15143.0848-.27862a.36817.36817,0,0,0,.12113-.24228A1.96035,1.96035,0,0,1,12.7064,8.848c.09085-.15748.0848-.17565-.03028-.29073a1.73923,1.73923,0,0,1-.18171-.22411c-.05451-.103-.20594-.12719-.55724-.07874a3.69624,3.69624,0,0,0-1.03573.58146,3.27113,3.27113,0,0,0-.75711.82374c-.00606.03635-.01212.103-.01817.13931,0,.0424-.0848.11508-.18777.1696-.12719.06662-.23622.218-.38158.533-.32708.69048-.321.66626-.06663,1.18715a1.26294,1.26294,0,0,0,.527.6602,1.04,1.04,0,0,0,.49667.19382,1.50866,1.50866,0,0,1,.46638.109,2.50179,2.50179,0,0,0,1.54451.07874c.19382-.06057.3937-.11508.44216-.12114.04845,0,.2241-.01817.38158-.03634a.59277.59277,0,0,1,.4361.05451c.28468.18776.24833.44216-.11508.79951a5.716,5.716,0,0,0-.46033.56935,2.65348,2.65348,0,0,1-.49061.527.91166.91166,0,0,0-.28467.29074c-.0424.08479-.09691.15142-.1272.15142s-.08479.07268-.12113.16353a2.57908,2.57908,0,0,1-.47244.533c-.22411.19988-.51484.47244-.64809.60569a4.61109,4.61109,0,0,1-.46033.38765c-.11508.08479-.321.24227-.45427.3513-.60569.51483-.82979.68443-.89642.68443a1.66848,1.66848,0,0,0-.75711.49666,1.69523,1.69523,0,0,1-.4059.33324,2.2564,2.2564,0,0,0-.34524.20594l-.15748.13325-.59963-.321a4.249,4.249,0,0,1-.75106-.48455c-.32707-.3513-.67837-.44821-1.56268-.424-.62386.01211-1.00545.218-1.82313.9691a1.68017,1.68017,0,0,1-.29679.19383.786.786,0,0,0-.3089.37552c-.109.26045-.527.642-.69655.642a.33452.33452,0,0,0-.17565.11508A.96969.96969,0,0,1,1.0771,20.12c-.218.0848-.47244.33313-.46032.4361.01817.17565-.02423.23016-.3089.37552L.005,21.083v.70866L.33813,22.04c.29679.212.36341.24228.56329.212a1.09606,1.09606,0,0,0,.34525-.11508.43747.43747,0,0,1,.20593-.0848.26381.26381,0,0,0,.15748-.103,1.99712,1.99712,0,0,1,1.25378-.103.74172.74172,0,0,0,.29073.08479A1.13772,1.13772,0,0,1,3.518,22.052a1.11426,1.11426,0,0,0,.35736.12114,1.39759,1.39759,0,0,1,.38158.109.90958.90958,0,0,0,.36342.09085.74377.74377,0,0,1,.315.06662.522.522,0,0,0,.35736.0424.4252.4252,0,0,1,.45427.07269c.18171.16353.83585.19381,2.1926.11508.58752-.0303.79346-.06663.92065-.15749a.3995.3995,0,0,1,.315-.07268c.11508.03029.19988-.006.3513-.1393a1.55589,1.55589,0,0,1,.82374-.36948,1.48892,1.48892,0,0,0,.72077-.38764c.07269-.07268.18171-.16959.24228-.2241s.19382-.18777.29679-.30285a3.14977,3.14977,0,0,1,.75106-.6602,1.33005,1.33005,0,0,0,.34524-.212,1.47089,1.47089,0,0,1,.33313-.212,3.11318,3.11318,0,0,0,.745-.73288,1.19413,1.19413,0,0,1,.40581-.32708,1.26687,1.26687,0,0,0,.47244-.40581,1.30072,1.30072,0,0,1,.34525-.35736.67377.67377,0,0,0,.23016-.2241,5.93593,5.93593,0,0,1,1.02362-1.09025,2.98421,2.98421,0,0,0,.52695-.62991,3.61075,3.61075,0,0,1,.3089-.49667,4.24027,4.24027,0,0,0,.26045-.36947c.04845-.0848.13931-.12114.33918-.14537.02423-.00605.05452-.08479.07269-.18776a1.34823,1.34823,0,0,1,.27256-.4361c.12719-.14537.3089-.36947.40581-.50272a5.86116,5.86116,0,0,1,.99333-.99939,3.7751,3.7751,0,0,0,.50878-.62387c.24834-.33918.50879-.67837.58147-.75711a.44384.44384,0,0,0,.12719-.24833,1.15172,1.15172,0,0,1,.20594-.41793,3.19536,3.19536,0,0,0,.2665-.49061,5.01721,5.01721,0,0,1,.32708-.62386,2.75159,2.75159,0,0,0,.47849-1.15081,1.24732,1.24732,0,0,1,.14537-.46033,1.53964,1.53964,0,0,0,.15142-.38158,4.41027,4.41027,0,0,1,.22411-.62387c.23016-.527.34524-.65414.65414-.71471a.51535.51535,0,0,0,.212-.09691c.04846-.0424.19382-.15748.321-.25439a1.88635,1.88635,0,0,0,.424-.533,2.61882,2.61882,0,0,1,.47244-.59963.72408.72408,0,0,1,.69049-.23622l.41187.00605.33313-.321c.18171-.1696.29679-.315.26045-.315s-.103-.07268-.13931-.1696c-.03634-.09085-.15748-.35735-.27256-.58752a3.75405,3.75405,0,0,1-.19988-.47849,2.91639,2.91639,0,0,0-.15748-.39976c-.13325-.29679-.18171-.3513-.34524-.38158-.109-.01817-.27862-.05452-.37553-.07269A.44029.44029,0,0,0,24.53549,2.08251Z"/>

</g>
</svg>
