<?xml version="1.0" encoding="UTF-8"?>
<svg xmlns="http://www.w3.org/2000/svg"
     version="1.1"
     width="45.67766032mm"
     height="26.26695474mm"
     viewBox="0.00000000 0.00000000 129.48002785 74.45756899">

<g transform="scale(5.10555451)">   <defs>
      <style type="text/css"><![CDATA[
      .a {
        stroke: #000;
        stroke-linecap: round;
        stroke-linejoin: round;
        stroke-width: 0.01px;
      }
    ]]></style>
   </defs>
   <path class="a"
         d="M19.56276.1322a.39538.39538,0,0,1-.17565.1393,1.10217,1.10217,0,0,0-.55118.22411.36752.36752,0,0,1-.21805.11508,2.82032,2.82032,0,0,0-1.175.55724,1.01477,1.01477,0,0,1-.28467.25439,3.01322,3.01322,0,0,0-.44821.3513c-.212.19988-.26651.29073-.22411.35736.04846.09085-.03634.25439-.29679.54512-.38158.43609-.533.957-.3513,1.21138a.53878.53878,0,0,1,.09691.24833c0,.12114.64809.5209.93277.57541a1.33261,1.33261,0,0,1,.29679.09085,1.42473,1.42473,0,0,0,.24227.0848.31713.31713,0,0,1,.19382.103.84585.84585,0,0,0,.218.14536,1.53168,1.53168,0,0,1,.65415.61175,1.03758,1.03758,0,0,0,.35736.3513,4.55154,4.55154,0,0,1,.58146.44821c.72077.65415.76317.70866.76317.90248a.50124.50124,0,0,0,.12114.3089c.14536.14537.11508.32708-.09085.527-.20594.212-.19383.27861.09085.43609.34524.19382.3937.315.24228.60569-.15748.315-.15143.3937.03028.57541.12719.1272.14537.17565.09085.27862a.24744.24744,0,0,1-.13931.12719c-.04239.00606-.12719.01212-.18776.01817a.14721.14721,0,0,0-.13325.12114,1.99586,1.99586,0,0,1-.62992.642c-.03634,0-.04846.07268-.03634.15748a.44467.44467,0,0,1-.03029.27256,4.08588,4.08588,0,0,1-1.0963.59963.46208.46208,0,0,1-.16959-.12114c-.17565-.17565-.07268-.33313.33919-.51484a1.89838,1.89838,0,0,0,.50272-.32707.47926.47926,0,0,0,.15142-.45427,2.14692,2.14692,0,0,0-.13931-.55723c-.09085-.19988-.109-.3089-.06662-.38764A4.8673,4.8673,0,0,0,19.03581,8.2a3.8757,3.8757,0,0,0-.15142-.51484c-.0848-.19988-.44216-.59358-.53907-.59358-.03028,0-.09691-.09691-.13931-.212a.63174.63174,0,0,0-.2241-.27861,2.23969,2.23969,0,0,1-.33919-.24834,4.64716,4.64716,0,0,0-1.10236-.5754,2.59426,2.59426,0,0,0-.48455-.06057c-.18171-.00606-.38764-.01212-.45427-.01817a1.80317,1.80317,0,0,0-1.24772.47849,5.42884,5.42884,0,0,1-.57541.34525,2.48452,2.48452,0,0,0-.60569.41792.9894.9894,0,0,1-.3089.23622.64565.64565,0,0,0-.24833.33919.86511.86511,0,0,1-.33919.43.64761.64761,0,0,0-.3089.424,1.0195,1.0195,0,0,1-.15143.32708,1.08025,1.08025,0,0,0-.15142.33313.924.924,0,0,1-.24227.39975c-.1272.0848-.16354.0848-.32708-.00605-.1817-.09086-.212-.0848-.6602.06662a4.3463,4.3463,0,0,0-.54512.22411,3.195,3.195,0,0,1-.95094.109c-.55118-.01817-1.26589-.06057-1.7141-.09691a1.306,1.306,0,0,1-.89037-.27862A2.42159,2.42159,0,0,0,5.747,9.15093c-.20593-.06056-.25439-.109-.41187-.44821a1.77745,1.77745,0,0,1-.17565-.52695,1.50347,1.50347,0,0,0-.09085-.4361c-.103-.27861-.09691-.29678.02422-.49666A.63958.63958,0,0,1,5.329,7.00073a.35232.35232,0,0,0,.17565-.17565A3.64455,3.64455,0,0,1,6.50406,5.753a.72247.72247,0,0,0,.321-.24834,1.06812,1.06812,0,0,1,.72077-.44215c.15748,0,.19988-.03634.321-.28467.18171-.38159.32707-.46639.86614-.50273a7.46628,7.46628,0,0,0,.81162-.09691,5.36792,5.36792,0,0,1,1.56269-.0424.4133.4133,0,0,0,.30284-.01817,1.1626,1.1626,0,0,1,.58752,0c.218.03634.45427.07874.527.09086a1.117,1.117,0,0,1,.38159.24227c.26045.23622.35736.24228.65414.04846.1696-.109.218-.29073.218-.86008,0-.80557-.08479-1.10842-.39975-1.40521a.54116.54116,0,0,1-.1696-.24833.84058.84058,0,0,0-.103-.27862A2.77744,2.77744,0,0,0,11.48276.9741c-.103,0-.34524-.00606-.54512-.01212a2.19986,2.19986,0,0,0-1.12053.25439,1.92255,1.92255,0,0,1-.43609.13931,2.80029,2.80029,0,0,0-.61781.22411,2.63319,2.63319,0,0,1-.61175.212,2.372,2.372,0,0,0-.90853.424,5.87745,5.87745,0,0,1-.67838.38159,3.53364,3.53364,0,0,0-.64809.40581.5154.5154,0,0,1-.23016.15142,1.51319,1.51319,0,0,0-.38158.27256,1.8704,1.8704,0,0,1-.41187.30891.65853.65853,0,0,0-.23017.15142c-.06662.06663-.14536.103-.1817.07874-.03634-.01817-.09691.01211-.13931.07268a.34169.34169,0,0,1-.19382.11508.87017.87017,0,0,0-.55724.26045A4.90516,4.90516,0,0,1,3.10614,4.79a1.32662,1.32662,0,0,0-.43.46032,1.06717,1.06717,0,0,1-.29073.36342,3.32507,3.32507,0,0,0-.854.99939,1.22877,1.22877,0,0,1-.29073.38158c-.06663.02423-.0848.07874-.06663.1696a.5368.5368,0,0,1-.06057.315.6573.6573,0,0,0-.08479.32707c.01211.103-.07874.23016-.321.46638a2.97319,2.97319,0,0,0-.424.50273.47221.47221,0,0,1-.18777.212C.01711,9.01768.005,9.18728.005,10.0837c0,1.0115.00606,1.06.12114,1.0963.212.06663.315.30284.315.69654,0,.33313.01211.37553.1817.50273.09692.07268.26045.20593.36342.30284.25439.23622.32707.26651.83585.33919a6.97248,6.97248,0,0,0,1.68382.06663c.27256-.03029.3513-.01817.47244.07874a.38672.38672,0,0,0,.34525.07874,1.80639,1.80639,0,0,1,.40581-.02423,2.42553,2.42553,0,0,0,1.20532-.09691,1.04776,1.04776,0,0,1,.86614-.15143,1.2203,1.2203,0,0,0,.82374-.24227,1.11938,1.11938,0,0,1,.55724-.15142,1.85382,1.85382,0,0,0,1.02967-.30891,2.73811,2.73811,0,0,1,1.387-.27256.7738.7738,0,0,0,.36947-.01211c.636-.13325.56329-.15142.98122.27862a1.66308,1.66308,0,0,0,.49666.39975.59634.59634,0,0,1,.27862.18777.62643.62643,0,0,0,.321.20593,1.63458,1.63458,0,0,1,.7026.41793.4543.4543,0,0,0,.33313.09691,1.03023,1.03023,0,0,1,.44821.12114.79736.79736,0,0,0,.29073.12114.69046.69046,0,0,1,.47244.28467,1.07968,1.07968,0,0,0,.35736.29073,1.259,1.259,0,0,0,1.16293.0848,1.84933,1.84933,0,0,1,.66626-.14537c.43609-.03028.50272-.05451.636-.20593.20594-.23017.56935-.44216.69049-.3937a.63825.63825,0,0,0,.35736-.0848c.13931-.06662.3513-.16354.46638-.20593a1.057,1.057,0,0,0,.3513-.22411.51419.51419,0,0,1,.24228-.15748,1.51125,1.51125,0,0,0,.82979-.35736,2.33792,2.33792,0,0,1,.4785-.33918.968.968,0,0,0,.34524-.24834.98376.98376,0,0,1,.30285-.27256.92342.92342,0,0,0,.35736-.41792.858.858,0,0,1,.28467-.36342,1.33884,1.33884,0,0,0,.321-.27862,2.4344,2.4344,0,0,1,.80557-.69654.71208.71208,0,0,0,.38764-.37553,2.10962,2.10962,0,0,1,.20593-.36947.62569.62569,0,0,0,.11508-.321,2.04027,2.04027,0,0,1,.15143-.54512,1.94774,1.94774,0,0,0,.14536-.527,1.38,1.38,0,0,1,.0848-.41187,1.36791,1.36791,0,0,0,.04845-.69655A1.65374,1.65374,0,0,1,25.123,6.1225c.04845-.15142.09691-.321.109-.38764a.42872.42872,0,0,1,.09085-.18171c.03029-.0424.0424-.09691.02423-.11508a.65423.65423,0,0,1-.06057-.23622,3.36162,3.36162,0,0,0-.69654-1.92.44177.44177,0,0,1-.15142-.28468c-.00606-.09691-.01818-.19382-.01818-.212-.006-.03028-.49666-.56935-.68443-.75106-.03634-.03634-.16959-.16353-.29073-.29073a3.59541,3.59541,0,0,0-.50272-.40581.89388.89388,0,0,1-.3089-.28467,1.52725,1.52725,0,0,0-.72683-.46639A1.408,1.408,0,0,1,21.1739.12008c-.03634-.103-.103-.11508-.78134-.11508C19.70207.005,19.63545.01711,19.56276.1322Z"/>

</g>
</svg>
