<?xml version="1.0" encoding="UTF-8"?>
<svg xmlns="http://www.w3.org/2000/svg"
     version="1.1"
     width="19.08492810mm"
     height="26.31859580mm"
     viewBox="0.00000000 0.00000000 54.09895938 74.60395413">

<g transform="scale(4.54756027)">   <defs>
      <style type="text/css"><![CDATA[
      .a {
        stroke: #000;
        stroke-linecap: round;
        stroke-linejoin: round;
        stroke-width: 0.01px;
      }
    ]]></style>
   </defs>
   <path class="a"
         d="M9.84146.03693A2.66445,2.66445,0,0,1,9.369.049c-.0242-.01211-.09083.01817-.14534.07268a.2566.2566,0,0,1-.20594.07269.39816.39816,0,0,0-.2665.07874A.49187.49187,0,0,1,8.3878.35189a.52747.52747,0,0,0-.35735.07268A.27844.27844,0,0,1,7.73366.473C7.558.39429,7.38236.4488,7.14008.64868a.69311.69311,0,0,1-.27256.16959c-.0424,0-.09085.04845-.109.109a1.08089,1.08089,0,0,1-.73288.3513c-.06663-.02422-.1272.01818-.19988.14537a.43625.43625,0,0,1-.41793.25439c-.04239-.01211-.07874.01211-.07874.0424A.61053.61053,0,0,1,5.1595,1.957a2.52354,2.52354,0,0,0-.25439.315,1.281,1.281,0,0,1-.16959.20593,2.07024,2.07024,0,0,0-.40582.43c-.17565.24834-.27256.33919-.33313.30285-.02422-.01817-.06057.03634-.08479.109-.01817.09086-.12114.18171-.27862.25439-.13325.06057-.24228.13326-.24228.15748,0,.03029-.06662.06663-.15142.09086-.0848.01817-.15142.06057-.15142.08479,0,.03029-.04846.06663-.109.09086a.33243.33243,0,0,0-.1817.1817.40449.40449,0,0,1-.22411.18777c-.0848.01817-.15142.07268-.15142.12114a.36253.36253,0,0,1-.109.18776A4.104,4.104,0,0,0,2.01,5.0399a.99306.99306,0,0,1-.321.29073c-.06057.02423-.103.06057-.0848.09085s-.01211.09085-.06057.13931c-.07268.07268-.07268.13325-.02422.29679.12719.38764.1817.46032.41187.49667a1.94434,1.94434,0,0,0,.51483.03028.71638.71638,0,0,0,.48456-.2665.51739.51739,0,0,1,.29679-.15143c.109,0,.19987-.09085.38158-.36947a2.38759,2.38759,0,0,1,1.066-.90248c.1817,0,.41792-.14536.751-.46638.16354-.15748.4361-.39976.59358-.533s.34525-.29679.41793-.35736a.87848.87848,0,0,1,1.01756.0424,1.85011,1.85011,0,0,1-.3089.81769c-.03029.01211-.01817.08479.03028.15747A.2247.2247,0,0,1,7.025,4.7371c-.12114.02423-.19988.09691-.27256.2665-.06057.1272-.1272.23622-.15143.23622-.03028,0-.06662.06663-.08479.15143a.40447.40447,0,0,1-.18777.2241.34347.34347,0,0,0-.1817.17565.25348.25348,0,0,1-.13931.14537,1.14483,1.14483,0,0,0-.29679.20593c-.14537.12114-.24228.16354-.3513.13931a.28622.28622,0,0,0-.27862.103A.4282.4282,0,0,1,4.899,6.5118a.487.487,0,0,0-.27256.2544c-.00605.02422-.01211.07268-.01817.09691-.01211.07874-.29679.19382-.3937.15748-.04845-.01818-.103.01817-.12114.08479a1.14031,1.14031,0,0,1-.44215.32708,3.4837,3.4837,0,0,0-.70866.48455,1.077,1.077,0,0,1-.41187.29073c-.06057,0-.109.02423-.109.06057,0,.03028-.109.11508-.24834.18171-.15748.08479-.23622.15748-.212.212.03634.09691-.11508.27256-.2241.27256a.696.696,0,0,0-.27256.18171A.75325.75325,0,0,1,1.174,9.298c-.04845,0-.08479.02423-.08479.05452a1.29589,1.29589,0,0,1-.36342.315c-.30284.212-.3513.2665-.30284.36341a.1408.1408,0,0,1-.03158.19659l-.00476.00329c-.05452.05451-.11509.08479-.13931.06662-.09691-.05451-.18171.25439-.212.72078L.005,11.50266l.23622.2241c.3089.30285.40581.32708,1.42337.36342A2.43181,2.43181,0,0,0,2.24,11.99327a.60085.60085,0,0,1,.424.00606,1.47793,1.47793,0,0,0,.33313.03634c.103,0,.26651-.00606.36342-.00606.103,0,.23622,0,.30284-.00606.06663,0,.218-.00605.33313,0a2.24741,2.24741,0,0,0,.96911-.29073,1.66191,1.66191,0,0,1,.46638-.16354.5346.5346,0,0,0,.29073-.11508.34211.34211,0,0,1,.14537-.09691.58755.58755,0,0,0,.18776-.12114.53.53,0,0,1,.28468-.12113c.07268,0,.13931-.02423.13931-.05452s.12719-.09691.28467-.15142c.48455-.16353.68443-.11508.70866.18171a1.22639,1.22639,0,0,0,.06057.27256c.02423.05451-.01817.15748-.11508.26045-.0848.09085-.13931.19382-.12114.2241.06663.103-.03634.2968-.19988.38764-.09085.04846-.13325.0848-.09691.09087.109,0,.15142.16959.07874.32707a.85014.85014,0,0,1-.29073.27256,2.595,2.595,0,0,0-.49667.38764,2.55514,2.55514,0,0,1-.47849.37553,3.33818,3.33818,0,0,0-.86008.83586c-.315.38158-.41187.46638-.533.46638a.57016.57016,0,0,0-.28468.12114.54251.54251,0,0,1-.24833.12114.44618.44618,0,0,0-.22411.14536.26241.26241,0,0,1-.27861.11508c-.109-.03028-.1272-.01818-.09692.06056a.221.221,0,0,1-.06056.19988c-.07269.07268-.07874.109-.02423.13931A.32339.32339,0,0,1,3.3,16.08774a.30872.30872,0,0,0,.07874.16354.90886.90886,0,0,1,.16959.09691.209.209,0,0,0,.24228.02422.23467.23467,0,0,1,.23622,0,1.72448,1.72448,0,0,0,1.00545-.43A.42735.42735,0,0,1,5.317,15.8031a1.16653,1.16653,0,0,0,.636-.37553A.90363.90363,0,0,1,6.48,15.17318a.5229.5229,0,0,0,.29679-.1696,2.9254,2.9254,0,0,1,.82979-.62386c.23622-.109.69049-.50878.69049-.61175a1.36734,1.36734,0,0,1,.3937-.23622,1.4676,1.4676,0,0,0,.3937-.24227,4.16446,4.16446,0,0,1,.7874-.84191c.03028,0,.12113-.12114.212-.27256a3.0434,3.0434,0,0,1,.41792-.533,1.09865,1.09865,0,0,0,.26045-.3513,1.29371,1.29371,0,0,1,.18171-.38765,1.99137,1.99137,0,0,0,.18776-.39369,2.81474,2.81474,0,0,1,.19382-.745,3.14812,3.14812,0,0,0,.14537-.636,2.37289,2.37289,0,0,1,.14537-.60569,1.54922,1.54922,0,0,0,.109-.636,1.9393,1.9393,0,0,1,.06057-.527,1.75557,1.75557,0,0,0-.02423-.9691,1.654,1.654,0,0,0-.27862-.3937.56764.56764,0,0,0-.46032-.25439,1.47565,1.47565,0,0,0-.50272.07874,4.25145,4.25145,0,0,1-.89643.23016A4.90816,4.90816,0,0,0,8.47872,6.536a1.06622,1.06622,0,0,0-.4785.37553.45324.45324,0,0,1-.27256.28468c-.03028.01211-.02423.07874.01817.14536.09085.17565,0,.41187-.27256.6602-.18776.18171-.38764.22411-.38764.07874,0-.02422-.03634-.03634-.0848-.01817a.177.177,0,0,1-.16354-.04845.50147.50147,0,0,0-.29678-.06663,1.53717,1.53717,0,0,1-.315-.01817c-.26045-.07268-.14537-.45427.18776-.59358.23622-.103,1.04785-.533,1.25984-.67231A.99807.99807,0,0,0,7.91538,6.324a.58062.58062,0,0,1,.36948-.36341,1.39884,1.39884,0,0,1,.32707-.11509.69927.69927,0,0,0,.24228-.1817,1.15776,1.15776,0,0,1,.33313-.24834c.103-.03634.1393-.08479.11508-.15142-.0424-.109.321-.49061.745-.78134a2.371,2.371,0,0,0,.53906-.60569,3.29671,3.29671,0,0,1,.35736-.47244.8602.8602,0,0,0,.15748-.14537,3.272,3.272,0,0,1,.27256-.29073.72371.72371,0,0,0,.20593-.33918,3.28,3.28,0,0,1,.11509-.50273,1.19126,1.19126,0,0,0,.08479-.39975c-.01211-.02423.01212-.09691.06057-.15748a1.12377,1.12377,0,0,0-.103-.90248.71939.71939,0,0,1-.109-.27862A.47061.47061,0,0,0,11.47684.152c-.1272-.12114-.212-.13931-.67838-.14537A9.545,9.545,0,0,0,9.84146.03693ZM.68947,10.54567a.234.234,0,0,1-.11508.29073c-.0848.03028-.27256-.109-.27256-.20594a.33834.33834,0,0,1,.09085-.14536.172.172,0,0,1,.29679.06057Z"/>

</g>
</svg>
