<?xml version="1.0" encoding="UTF-8"?>
<svg xmlns="http://www.w3.org/2000/svg"
     version="1.1"
     width="53.25339683mm"
     height="39.03034763mm"
     viewBox="0.00000000 0.00000000 150.95446148 110.63719934">

<g transform="scale(4.36982859)">   <defs>
      <style type="text/css"><![CDATA[
      .b {
        stroke: #000;
        stroke-miterlimit: 10;
        stroke-width: .15px;
      }
    ]]></style>
   </defs>
   <path class="b"
         d="M18.32983,3.43429c.05122-.16925,1.66949-2.07611,1.97916-2.36398.3727-.34647.55905-.51968.82465-.65973.42534-.22427,2.90509-.36642,3.4635-.32986.87958.05756,1.12262.15048,1.31946.32986.3215.29297.37515.68469.38483.76968.0639.5618-.26538,1.16647-.71469,1.31943-.51019.17368-1.00311-.29367-1.09952-.16492-.08923.11917.23764.64685.76965.9346.3248.17566.53427.15817,1.48438.21988,1.43124.09293,2.43622.759,2.47394,1.37442.02548.41571-.19281.65753-.49478,1.2095-.47934.87619-.36093,1.05591-.71469,1.75925-.40219.79962-3.43909,3.33954-4.06827,3.73837-2.85052,1.80692-2.44083,1.86942-5.55263,3.84836-2.0137,1.28061-3.91901,2.89954-4.94788,3.46353-.56496.30969-1.06728.49936-1.64931.43982-.20811-.02127-.93944-.09607-1.1545-.60477-.14116-.33389.0128-.6828.05498-.76965.06471-.13327,1.81403-1.03134,1.8692-1.04456.92014-.22018,2.96793-2.04364,5.00285-3.35358,2.80806-1.80765,5.30148-3.62961,6.65215-4.56305.6915-.47791,1.23605-.86472,1.15451-1.15448-.01385-.04922-.07227-.18976-.93991-.42227-.46686-.12509-4.51129-1.33218-4.61272-1.39197-.80193-.47275-1.05835-.83865-1.1545-.98956-.09698-.15225-.55074-.86447-.32986-1.59433Z"/>
   <path class="b"
         d="M.07765,25.14999c-.0415-.13223.41954-.39835.32985-.71469-.05772-.20358-.31021-.31039-.27487-.49478.01382-.07214.06955-.11346.09607-.14636.13931-.17294.33539-.27512.78355-.62332.63037-.48975.94556-.73465,1.1545-1.04456.4301-.63797.24353-1.02725.65973-1.37439.2834-.23636.56541-.21893,1.09952-.2749.00011,0,1.87509-.19653,3.57347-1.09952.52103-.27701,10.20663-2.18707,12.97446-3.02371.98114-.29657.97375-.3425,3.0237-.98956,2.32742-.73465,6.21771-1.48901,7.64172-1.8692.85663-.2287,1.27997-.36133,1.59433-.49478.87772-.37265,1.27609-.72287,1.53934-.54977.14166.09314.25412,2.52536.16492,2.74881-.25235.63214-.97107.9003-1.37439,1.04456-2.40756.86118-15.47552,4.85455-19.13182,5.93747-.9256.27414-2.55957.67755-5.8275,1.48438-.00009.00003-7.85493,2.03107-8.02657,1.48434Z"/>
   <path class="b"
         d="M7.11464,11.68075c-.06976-.2077.22569-.36639.87962-1.15448.56303-.67853,1.48111-2.20267,1.75925-2.30902.34575-.13223.45349.10666,1.20947.16492.72845.05612,1.07675-.13113,1.31944.10995.06534.06491.02322.08252.16493.54977.1245.41052.15828.4241.16493.54977.01649.31155-.18185.40213-.32986.76965-.25273.62756.06146,1.01938-.18297,1.19843-.16956.12421-1.33516-.00626-1.5213.06604-.39467.15329-.42491.40097-.71469.54977-.25708.13202-.44901.04785-1.20949-.10995-1.20332-.24973-1.47566-.19525-1.53934-.38486Z"/>
   <path class="b"
         d="M13.65683,9.37176c.15781-.14166.27347-.04593.65973-.16495.67146-.20691,1.77887-1.69812,2.30901-3.02371.53749-1.34399.67807-1.99933.82465-1.97913.15102.02081.20177.73743.16493,1.31943-.06673,1.05426-1.34547,6.75861-1.48436,7.09195-.16708.40103-.38715.7785-.60475,1.15451-.16768.28973-.29301.48401-.21991.65973.1156.27789.59752.19699.65627.40363.06415.22565-.40239.70233-.87616.69589-.68771-.00934-1.10637-1.03278-1.15451-1.15451-.32985-.83414.0699-1.12222,0-2.36398-.08171-1.45157-.6873-2.26862-.27489-2.63885Z"/>

</g>
</svg>
