<?xml version="1.0" encoding="UTF-8"?>
<svg xmlns="http://www.w3.org/2000/svg"
     version="1.1"
     width="55.26963209mm"
     height="33.93094870mm"
     viewBox="0.00000000 0.00000000 156.66981772 96.18223203">

<g transform="scale(3.34122239)">   <defs>
      <style type="text/css"><![CDATA[
      .a {
        stroke: #000;
        stroke-linecap: round;
        stroke-linejoin: round;
        stroke-width: 0.01px;
      }
    ]]></style>
   </defs>
   <path class="a"
         d="M34.23722.15114A.9959.9959,0,0,0,33.892.563a2.13515,2.13515,0,0,1-.28468.46638,2.06927,2.06927,0,0,0-.26044.40582.87433.87433,0,0,1-.212.30284c-.07268.05451-.12113.13325-.109.17565.01212.03634-.07874.18171-.212.315a1.17192,1.17192,0,0,0-.27256.41793,1.13952,1.13952,0,0,1-.27256.41187l-.23622.23016.11508.27256c.09691.23016.103.28468.03029.3937a.2867.2867,0,0,0-.0424.24833.23751.23751,0,0,1,.00606.18171,1.982,1.982,0,0,0-.04846.45427c-.00606.218-.01817.4361-.01817.48455a.74911.74911,0,0,1-.27862.51484c-.12719.0848-.14536.13931-.14536.50272a1.11223,1.11223,0,0,1-.0848.533.331.331,0,0,0-.05451.24834.98375.98375,0,0,1-.12114.45426,2.00121,2.00121,0,0,0-.27256.94488.45166.45166,0,0,1-.09086.30285.43139.43139,0,0,0-.103.23622,4.14971,4.14971,0,0,1-.33313.77528,4.12166,4.12166,0,0,0-.33313.7874.49808.49808,0,0,1-.09086.24833.52307.52307,0,0,0-.09085.27256.54176.54176,0,0,1-.09085.27256.44114.44114,0,0,0-.09086.22411.62794.62794,0,0,1-.18776.29679,1.286,1.286,0,0,0-.33919.848c.02423.08479-.04845.20593-.23016.39975a1.38926,1.38926,0,0,0-.3513.59964,2.65631,2.65631,0,0,1-.27862.59357,1.67366,1.67366,0,0,0-.22411.44216,3.06536,3.06536,0,0,1-.50878.92065c-.03634,0-.06057.0424-.06057.09691a.65567.65567,0,0,1-.08479.25439c-.0424.09085-.1272.27256-.18777.40581a2.6918,2.6918,0,0,1-.2665.45427,1.55657,1.55657,0,0,0-.19988.3089,4.93994,4.93994,0,0,1-.2665.45427,1.41266,1.41266,0,0,0-.218.4361.47531.47531,0,0,1-.07268.24228,1.87631,1.87631,0,0,0-.1272.33313.74469.74469,0,0,1-.19988.33313,2.3642,2.3642,0,0,0-.32707.52089,4.672,4.672,0,0,1-.33919.57541,2.12525,2.12525,0,0,0-.28467.5754,1.26659,1.26659,0,0,1-.36947.61175,2.40441,2.40441,0,0,0-.61175,1.07813.67437.67437,0,0,1-.09691.30285,1.10475,1.10475,0,0,0-.09086.76317c.01817.19382.05452.2241.47244.44215a2.47642,2.47642,0,0,0,.69655.26045c.7026.06662.957.16959,1.02967.39975.02423.06663.07268.109.109.09691a.31011.31011,0,0,1,.17565.02423c.06057.03634.11508.03029.13931-.00605a.94336.94336,0,0,1,.26044-.1696,2.22657,2.22657,0,0,1,1.13264-.05451,1.3146,1.3146,0,0,0,.49667-.0424.82933.82933,0,0,1,.56935.00606c.20594.0848.27862.06057.48455-.18777.07874-.09691.19382-.12113.636-.1393a6.39666,6.39666,0,0,0,.71471-.04846c.13326-.02423.212.01211.37553.17565a.9569.9569,0,0,0,.40583.24833,2.55014,2.55014,0,0,1,.43609.1696c.28468.14536.49667.1817.642.103.07269-.04239.18171-.01211.3937.09692a1.02814,1.02814,0,0,0,.71471.12719,5.058,5.058,0,0,0,.58146-.06057,11.9409,11.9409,0,0,0,1.19927-.43,1.39118,1.39118,0,0,1,.30285-.06057,1.125,1.125,0,0,0,.38764-.12114.50084.50084,0,0,1,.218-.09691,4.4751,4.4751,0,0,0,.9632-.77543.26969.26969,0,0,1,.2968-.09691.20331.20331,0,0,0,.26044-.09086.47822.47822,0,0,1,.218-.15748c.49667-.109.71473-.19987.7753-.3089a4.63152,4.63152,0,0,1,1.09024-1.09024,1.00939,1.00939,0,0,0,.27862-.15748.34736.34736,0,0,1,.25439-.07874c.12114.0424.2665-.13931.55118-.68443.218-.41187.32707-.53907.49666-.59358a1.519,1.519,0,0,0,.32708-.212.70776.70776,0,0,1,.28467-.17565c.05451,0,.09086-.06057.09086-.14537a1.52224,1.52224,0,0,1,.09691-.40581c.103-.29679.05451-.53907-.19988-.98728-.1272-.23016-.1272-.24833-.03029-.41792a.66012.66012,0,0,1,.212-.23017.26564.26564,0,0,0,.103-.2241.76824.76824,0,0,1,.15143-.37553.75554.75554,0,0,0,.15142-.32707,2.07544,2.07544,0,0,1,.48455-.79346.4387.4387,0,0,0,.12114-.315.50055.50055,0,0,1,.109-.3089,1.01885,1.01885,0,0,0,.25439-.55118A1.21622,1.21622,0,0,1,44.12821,14.3a.77891.77891,0,0,0,.24228-.533,1.25256,1.25256,0,0,1,.16959-.533,1.83693,1.83693,0,0,0,.218-.66626,2.32639,2.32639,0,0,1,.18776-.66626,2.33754,2.33754,0,0,0,.17565-.58147c.02423-.24227.15143-.424.28468-.424a.94358.94358,0,0,0,.41793-.424.45153.45153,0,0,1,.08479-.218.33105.33105,0,0,0,.05451-.24834.5726.5726,0,0,1,.09086-.3513.39042.39042,0,0,0,.06662-.3937c-.06057-.15747-.03634-.23016.15748-.58752.20594-.36341.22411-.41792.16354-.59357a1.42822,1.42822,0,0,1,.06663-.94488c.07874-.12114.08479-.16354.01211-.25439a.62872.62872,0,0,1,.109-.61175.50672.50672,0,0,0,.03635-.36947.53135.53135,0,0,1,.03028-.36341,2.50577,2.50577,0,0,0,.06057-.7874A2.47127,2.47127,0,0,1,46.82957,3.87a1.108,1.108,0,0,0-.109-.9267.53891.53891,0,0,1-.07874-.27862c.04845-.0848-.12114-.19382-.30889-.19382a1.15171,1.15171,0,0,0-.89644.41187,1.45311,1.45311,0,0,1-.424.321.09566.09566,0,0,0-.0969.09441v.00251a.52355.52355,0,0,1-.16959.25439c-.09086.09085-.33313.3513-.533.58752a5.58037,5.58037,0,0,1-1.33251,1.26589,1.44156,1.44156,0,0,0-.41794.315c-.06663.0848-.24832.29679-.40581.47244a1.17859,1.17859,0,0,0-.29073.4361.50228.50228,0,0,1-.11509.27256.5656.5656,0,0,0-.07268.68443c.09085.13325.103.20593.06057.29073-.03028.06057-.0424.109-.03028.109.01817,0-.02423.109-.09086.24228l-.12719.24228.13325.20593c.12719.20594.12719.218.01817.41187a.92114.92114,0,0,0-.109.26651,1.41039,1.41039,0,0,1-.09692.30284c-.27256.66626-.27861.75711-.14536,1.11447a.71538.71538,0,0,1,.07874.48456c-.03029.08479-.103.38764-.16354.67231-.08479.4361-.09085.55118-.02423.70866.07269.17565.06663.20594-.04239.315a.41083.41083,0,0,0-.12114.18776,2.13706,2.13706,0,0,1-.14537.37553,3.25115,3.25115,0,0,0-.18171.48456.38824.38824,0,0,1-.18776.23621c-.13325.06057-.14537.09692-.11508.29074a.331.331,0,0,1-.09085.35735c-.103.103-.15143.11509-.24834.06663-.06662-.03634-.12114-.0848-.12114-.11508a.99745.99745,0,0,0-.17565-.27256c-.103-.1272-.16353-.26651-.14536-.315a.231.231,0,0,0-.05451-.19382,3.18566,3.18566,0,0,1-.26045-.46638,3.18622,3.18622,0,0,0-.26044-.46639,1.01609,1.01609,0,0,1-.13931-.35735,1.33331,1.33331,0,0,0-.19382-.41793,2.33515,2.33515,0,0,1-.28468-.61175,7.71569,7.71569,0,0,0-.34524-.86008,1.33312,1.33312,0,0,1-.18171-.48455.39621.39621,0,0,0-.11509-.24228.39184.39184,0,0,1-.103-.37553.36765.36765,0,0,0-.0848-.3513,1.95551,1.95551,0,0,1-.38159-.76317.70052.70052,0,0,0-.20593-.321c-.23622-.24227-.41793-.56935-.36947-.65414a1.92717,1.92717,0,0,0-.4361-1.04785,1.58512,1.58512,0,0,1-.26044-.29679c-.16959-.23016-.17566-.25439-.09086-.41187a.43037.43037,0,0,0,.06057-.25439,1.58408,1.58408,0,0,1,.25439-.56329c.41187-.68443.46032-.84191.3392-1.0963-.07874-.16354-.0848-.23622-.03029-.3513a.39027.39027,0,0,0-.01817-.36341c-.12114-.28468-.11508-.321.05451-.4785.14537-.13931.16354-.218.24834-1.31435a.74966.74966,0,0,0-.50273-.71472,2.4588,2.4588,0,0,1-.55119-.315c-.19382-.14537-.36341-.23017-.424-.212A.47922.47922,0,0,1,34.8611.145C34.60669-.04268,34.528-.04268,34.23722.15114Zm-.96305,12.21679a2.18826,2.18826,0,0,1,.19382.4785,2.64944,2.64944,0,0,0,.2665.533,1.56392,1.56392,0,0,1,.24228.49667,1.81481,1.81481,0,0,0-.0424.424.98109.98109,0,0,0,.12114.62387,1.21093,1.21093,0,0,1,.13931.33313.7632.7632,0,0,0,.1817.29678c.103.109.1696.218.15143.24834a.73393.73393,0,0,0,.09085.32707c.11508.27862.11508.28468,0,.39976a.40468.40468,0,0,1-.23622.12114c-.07874,0-.12114.06056-.15142.1817-.02423.13931-.09085.212-.25439.27862-.18777.07873-.45427.33313-1.24167,1.175a2.23823,2.23823,0,0,0-.26044.38159,1.89706,1.89706,0,0,1-.36948.4361.677.677,0,0,0-.20593.19988c.01817.12719-.03029.218-.24228.45427a3,3,0,0,0-.32707.4361c-.16959.33918-.3089.41791-.7874.43-.44215.01211-.68443-.06663-1.52028-.533a.50025.50025,0,0,0-.30285-.07873c-.12719.02422-.40581-.23622-.55723-.52089-.09692-.19383-.04846-.33919.321-1.05391a6.50129,6.50129,0,0,0,.44215-1.02967,4.87071,4.87071,0,0,1,.51483-1.02968.96615.96615,0,0,0,.15143-.40581.64772.64772,0,0,1,.1393-.33313,4.429,4.429,0,0,0,.27862-.3937,2.6271,2.6271,0,0,1,.424-.47244,1.67575,1.67575,0,0,0,.424-.52089,2.546,2.546,0,0,1,.41793-.56329,2.50933,2.50933,0,0,0,.43-.58752,4.69058,4.69058,0,0,1,1.07207-1.16293C32.94709,11.841,33.06823,11.94395,33.27417,12.36793Zm2.16232,5.62687a2.62368,2.62368,0,0,1,.55118,1.12053,1.03565,1.03565,0,0,0,.09691.30284.696.696,0,0,1,.0848.23622,2.932,2.932,0,0,0,.212.533c.15142.30285.1696.39369.11508.50877a.31171.31171,0,0,0-.03028.19382c.04845.07874-.03029.24228-.15142.30285-.0848.04845-.15143.02423-.28468-.0848a1.895,1.895,0,0,0-.40581-.24228,1.46681,1.46681,0,0,1-.44216-.32707c-.23016-.25439-.46639-.70866-.41187-.79951a.35582.35582,0,0,0-.06056-.23622.70059.70059,0,0,1-.07874-.23016,1.15238,1.15238,0,0,0-.03635-.212.63862.63862,0,0,1,.09086-.45427,1.98765,1.98765,0,0,0,.14536-.40582.52346.52346,0,0,1,.36342-.33918A.61232.61232,0,0,1,35.43649,17.9948ZM29.77933,22.168c.04241.0848.03028.13931-.06662.23622s-.15143.109-.23622.06663c-.16959-.09691-.19987-.23622-.06662-.36948S29.68242,21.99842,29.77933,22.168Z"/>
   <path class="a"
         d="M22.0386.769a.81993.81993,0,0,0-.38159.33313.74557.74557,0,0,1-.24832.2665.547.547,0,0,0-.20594.20594,1.67655,1.67655,0,0,1-.33918.38158,2.42308,2.42308,0,0,0-.76317,1.03573.84988.84988,0,0,0,.13931.53907l.16959.33313-.109.33918c-.11509.36948-.29679.6057-.4361.55118-.0848-.03028-.38764.22411-.38764.33313,0,.19382-1.03574.79952-1.25984.739a.40223.40223,0,0,0-.23622.03028.2056.2056,0,0,1-.212.00606c-.14537-.07874-.35736.13325-.58752.59358a.94125.94125,0,0,1-.49667.533,2.27135,2.27135,0,0,0-.50878.34525c-.48455.47244-.64809.59963-.72683.56935a.13888.13888,0,0,0-.15142.08479,1.56682,1.56682,0,0,1-.65415.424,1.00125,1.00125,0,0,1-.3089-.212.63983.63983,0,0,0-.424-.212.9037.9037,0,0,0-.72078.33919c-.04239.07874-.103.14537-.13931.14537s-.04845.04239-.03028.09691a.31421.31421,0,0,1-.03634.2241,1.83935,1.83935,0,0,0-.1272.71472.77959.77959,0,0,1-.35735.60569,3.47409,3.47409,0,0,0-.51484.45427,2.46471,2.46471,0,0,1-.43.38764,1.39139,1.39139,0,0,0-.30285.24228.84271.84271,0,0,1-.36947.24227.16847.16847,0,0,0-.14537.07874,1.90243,1.90243,0,0,1-.45426.3513c-.35736.218-.44821.30891-.527.527a.67625.67625,0,0,1-.26045.33919,1.09269,1.09269,0,0,0-.27862.212,2.28068,2.28068,0,0,1-.3937.29073,2.64648,2.64648,0,0,0-.46638.36342.63773.63773,0,0,1-.28468.19988.14341.14341,0,0,0-.12113.07874,1.17787,1.17787,0,0,1-.36342.24833.90792.90792,0,0,0-.37553.27862.80509.80509,0,0,1-.27256.27256,1.68747,1.68747,0,0,0-.33313.3089,1.8256,1.8256,0,0,1-.6602.47244c-.13325.03029-.39976.17565-.39976.22411,0,.03028-.109.109-.23622.17565a.573.573,0,0,0-.27861.24833.45936.45936,0,0,1-.23017.20594,1.291,1.291,0,0,0-.37553.30284c-.17565.212-.45426.40581-.55723.38159-.14537-.03029-.37553.11508-.55724.3513a1.40248,1.40248,0,0,1-.424.37553.81758.81758,0,0,0-.38159.43609A3.44132,3.44132,0,0,1,.99691,19.68474c-.35735.13325-.41187.19988-.50878.6178a.6851.6851,0,0,1-.18776.315c-.1272.12114-.14537.18777-.13931.49061a1.51663,1.51663,0,0,1-.09085.58752c-.06663.15748-.0848.26045-.0424.33313a.21631.21631,0,0,1,.01211.18171,1.62027,1.62027,0,0,0,.03029.69654.37606.37606,0,0,0,.23016.32708,1.21158,1.21158,0,0,0,.27256.11508.87669.87669,0,0,1,.24228.13931,1.35885,1.35885,0,0,0,.60569.28467,1.18941,1.18941,0,0,1,.24833.0848,2.53872,2.53872,0,0,0,1.272.212,2.88079,2.88079,0,0,0,1.72615-.45438c.26651-.12719.53908-.24833.60569-.2665a1.06544,1.06544,0,0,0,.321-.218c.11507-.103.23015-.16959.26044-.15142a.22434.22434,0,0,0,.17566-.03029c.09691-.04845.14536-.03634.24227.06057.12114.12114.12114.13931.04239.2665a.2241.2241,0,0,0-.04239.218.2323.2323,0,0,1-.00606.19988.28157.28157,0,0,0-.03029.20594.87906.87906,0,0,1-.16959.43609A.96315.96315,0,0,0,6.03624,25.463a2.90045,2.90045,0,0,1,.19988.47244,2.568,2.568,0,0,0,.77529.84191.55137.55137,0,0,1,.19987.23622c.0424.12114.07269.12719.45427.09085.36947-.03028.43-.02423.636.12114a.54015.54015,0,0,0,.3089.12114c.04845-.01817.15748.03634.24228.11508a1.03391,1.03391,0,0,0,.3937.212.61547.61547,0,0,1,.26044.11508.4157.4157,0,0,0,.212.0848,1.25063,1.25063,0,0,1,.41187.24228c.29074.26044.45427.34524.64809.34524a.46776.46776,0,0,1,.26651.103.728.728,0,0,0,.79345.16353c.38764-.12719.61781-.33918.59964-.55118a.55.55,0,0,1,.03634-.24833,1.38552,1.38552,0,0,0,.07874-.35736c.01211-.15142.06662-.44821.109-.6602a4.45426,4.45426,0,0,0,.00606-1.4052,5.27136,5.27136,0,0,0-.64809-1.44155,2.01758,2.01758,0,0,1-.218-.64809,2.44122,2.44122,0,0,0-.59358-.83585,1.048,1.048,0,0,1-.23622-.315.45629.45629,0,0,0-.109-.20593,1.41672,1.41672,0,0,1-.17565-.29074.76426.76426,0,0,0-.36341-.315.706.706,0,0,1-.321-.24227,8.28823,8.28823,0,0,1-.103-1.25984c.02423-.19382.05451-.44215.06057-.55723a.857.857,0,0,1,.218-.37553.83791.83791,0,0,0,.212-.34525,7.65062,7.65062,0,0,1,.59964-1.54451,3.10038,3.10038,0,0,1,.3392-.50272.55439.55439,0,0,0,.15142-.26651.49694.49694,0,0,1,.09692-.24227,1.45139,1.45139,0,0,0,.20593-.636.90031.90031,0,0,1,.23622-.424,3.01571,3.01571,0,0,0,.86614-1.15082,1.72826,1.72826,0,0,1,.26046-.49666,2.00608,2.00608,0,0,0,.29677-.54512,2.70067,2.70067,0,0,1,.24834-.51484,3.10412,3.10412,0,0,0,.23016-.3937,5.06978,5.06978,0,0,1,.3089-.527.54009.54009,0,0,0,.12114-.315c-.01817-.0424.02423-.14537.09085-.22411s.212-.2665.32708-.41792a1.584,1.584,0,0,1,.36947-.36342,2.50883,2.50883,0,0,0,.424-.321c.13325-.1272.33313-.30891.44216-.40582a.67355.67355,0,0,1,.28467-.1817.96091.96091,0,0,0,.321-.23017,2.86688,2.86688,0,0,1,.47244-.36947,5.03158,5.03158,0,0,0,.99939-.69654c.19382-.27862.41792-.46033.56935-.46033.08479,0,.15748-.02423.15748-.06057,0-.09691.56329-.424.73894-.424.12114,0,.29073-.12114.6602-.49061a3.49866,3.49866,0,0,1,.57541-.50272.539.539,0,0,0,.21805-.14537,1.19857,1.19857,0,0,1,1.00544-.27862c.22411.01817.636.04846.92065.06057s.66021.03634.84192.04846c.43609.03634.59963-.03029.60569-.24834,0-.09085,0-.23016.006-.30284a1.13892,1.13892,0,0,1,.09086-.33919c.04845-.11508.07268-.22411.04845-.24228a.54531.54531,0,0,1-.05451-.17565,7.521,7.521,0,0,0-.212-1.06,2.79473,2.79473,0,0,1-.06662-.68443c-.006-.38158-.03028-.533-.09692-.58146a.56057.56057,0,0,1-.109-.321c-.02423-.28467-.07874-.33918-.68443-.751-.24834-.1696-.38159-.22411-.49667-.19988a.3741.3741,0,0,1-.27253-.05445C22.38991.58118,22.41413.57513,22.0386.769ZM9.24641,15.142a.23141.23141,0,0,1,.07873.25439,2.03738,2.03738,0,0,1-.45426.71472,1.42127,1.42127,0,0,0-.26045.36341c-.05451.11509-.13931.27257-.18776.35736a.77734.77734,0,0,0-.09086.321,1.08607,1.08607,0,0,1-.12719.41187.7303.7303,0,0,0-.09691.315.45671.45671,0,0,1-.05452.23622,7.31665,7.31665,0,0,0-.35735,1.278,1.57556,1.57556,0,0,1-.17565.46032.37271.37271,0,0,0-.09691.212,1.15875,1.15875,0,0,1-.36342.642c-.09085.04846-.13931.03635-.22411-.05451a9.37091,9.37091,0,0,0-.99939-.97516,3.2725,3.2725,0,0,1-.9691-.64809c-.15142-.23622-.13931-.3513.09085-.60569a5.98009,5.98009,0,0,1,1.21744-1.10841.67983.67983,0,0,0,.29073-.19988,3.51726,3.51726,0,0,1,.321-.28468,1.30179,1.30179,0,0,0,.26045-.27862,3.23514,3.23514,0,0,1,.62992-.52089,5.30082,5.30082,0,0,0,.65414-.50272,2.015,2.015,0,0,1,.70866-.51484A.41784.41784,0,0,1,9.24641,15.142Z"/>
   <path class="a"
         d="M24.89746,25.0087c.01817.03029.04846.06057.06663.06057.01211,0,.02422-.03028.02422-.06057a.06225.06225,0,0,0-.06375-.06071l-.00287.00014C24.8914,24.94813,24.8793,24.97236,24.89746,25.0087Z"/>

</g>
</svg>
