<?xml version="1.0" encoding="UTF-8"?>
<svg xmlns="http://www.w3.org/2000/svg"
     version="1.1"
     width="43.54023977mm"
     height="36.72792480mm"
     viewBox="0.00000000 0.00000000 123.42111161 104.11068840">

<g transform="scale(4.28563383)">   <defs>
      <style type="text/css"><![CDATA[
      .a {
        stroke: #000;
        stroke-linecap: round;
        stroke-linejoin: round;
        stroke-width: 0.01px;
      }
    ]]></style>
   </defs>
   <path class="a"
         d="M19.71689.07859a4.24192,4.24192,0,0,0-1.50817,1.11447,5.10714,5.10714,0,0,1-.91459.81768,4.12968,4.12968,0,0,0-.60569.59358,4.01485,4.01485,0,0,1-.90854.90248,2.60692,2.60692,0,0,0-.41792.35735c-.103.11509-.27862.30285-.38159.41187a.857.857,0,0,0-.19988.26651c0,.03028-.07268.09085-.16353.13325-.25439.11508-.46033.32707-.41793.4361.04845.12719-.15748.52089-.321.62386a1.20222,1.20222,0,0,0-.27862.3089.73584.73584,0,0,1-.2665.27862A3.61567,3.61567,0,0,0,12.6061,7.462a1.59791,1.59791,0,0,1-.29073.40581c-.07874.06057-.13931.13325-.13931.16354a1.92036,1.92036,0,0,1-.218.38158,7.46153,7.46153,0,0,0-.75711,1.50817,1.99673,1.99673,0,0,1-.23622.48456,1.74357,1.74357,0,0,0-.23622.51483,2.674,2.674,0,0,1-.15748.46033,3.93167,3.93167,0,0,0-.17565,1.15081,1.2599,1.2599,0,0,0,.218.66021.91045.91045,0,0,1,.109.56328,1.087,1.087,0,0,0,.46033,1.02967.80574.80574,0,0,1,.2665.23017,2.59645,2.59645,0,0,0,1.48394.12719c1.09631-.16959,1.13265-.18171,1.42944-.58146.11508-.15748.25439-.33313.3089-.39976a1.91328,1.91328,0,0,0,.25439-.46638c.08479-.19988.218-.48455.30284-.642.14537-.27256.14537-.29073.04846-.46033a.51607.51607,0,0,0-.19382-.212,5.67368,5.67368,0,0,0-1.09025-.01211c-.1817.01817-.24227-.01817-.52089-.29679-.23016-.22411-.3089-.3513-.29073-.4361a2.63773,2.63773,0,0,0-.06057-.65415,2.29956,2.29956,0,0,1-.0424-.751,2.82292,2.82292,0,0,1,.46033-.90854.24958.24958,0,0,0,.09085-.13931,2.25335,2.25335,0,0,1,.56935-.78134.5651.5651,0,0,0,.23016-.218,9.486,9.486,0,0,1,.78134-.848,8.30169,8.30169,0,0,0,.80557-.89036,3.55432,3.55432,0,0,1,1.12659-.81769c.21805,0,.46638.23017.58752.55118a4.09047,4.09047,0,0,1,.26044.83586,2.19974,2.19974,0,0,0,.18171.44215,1.63058,1.63058,0,0,1,.18171.4785A4.74111,4.74111,0,0,0,18.63266,8.952a.65123.65123,0,0,1,.04845.315.539.539,0,0,0,.03634.2665.37967.37967,0,0,1,0,.32708.57056.57056,0,0,0-.006.36947c.04845.2241.03028.29679-.15748.68443a3.57742,3.57742,0,0,1-.32708.56329.5747.5747,0,0,0-.1393.24833,2.29974,2.29974,0,0,1-.38765.73289,2.31067,2.31067,0,0,0-.24227.321.97986.97986,0,0,1-.27256.29073,1.34173,1.34173,0,0,0-.33919.41187,1.57629,1.57629,0,0,1-.37553.43609.60344.60344,0,0,0-.23622.27257,3.22093,3.22093,0,0,1-.57541.68443,4.75386,4.75386,0,0,0-.54512.6178.5381.5381,0,0,1-.43.33919c-.103.00606-.27256.13325-.50272.36947-.19382.19382-.4361.41793-.53907.49667-.20593.15142-.58752.76317-.52695.854.01817.03634-.07268.16354-.19382.29679-.12719.12719-.36341.3937-.533.58752-.16353.18776-.41792.4785-.56329.636a1.08993,1.08993,0,0,0-.27861.47849,1.00982,1.00982,0,0,1-.20593.424,4.38737,4.38737,0,0,0-.32708.49667,3.37043,3.37043,0,0,1-.29678.4785,3.2002,3.2002,0,0,0-.29679.56329,1.49686,1.49686,0,0,1-.18777.38159.356.356,0,0,0-.05451.23016.65942.65942,0,0,1-.12719.36341,1.475,1.475,0,0,0-.26651.89037,2.30319,2.30319,0,0,0,.15748.3937,1.35519,1.35519,0,0,1,.11508.30284c0,.109.53907.20594,1.10842.19988a1.06071,1.06071,0,0,0,.76922-.18171,6.70319,6.70319,0,0,1,1.66565-.78134,2.93417,2.93417,0,0,0,.48456-.109c.103-.03634.30284-.09691.45427-.13324a2.98739,2.98739,0,0,0,.424-.15143,2.075,2.075,0,0,1,.51484-.12113,1.401,1.401,0,0,0,.5754-.18171,3.24312,3.24312,0,0,1,1.02968-.3937,11.35525,11.35525,0,0,0,1.0963-.49667,7.6305,7.6305,0,0,1,.90248-.41187,1.15479,1.15479,0,0,0,.32707-.14536,2.85236,2.85236,0,0,1,.69049-.23622,1.45139,1.45139,0,0,0,.7026-.30891c.3513-.28467,1.04785-.5754,1.18716-.49061a1.3834,1.3834,0,0,0,.69654-.19987.74345.74345,0,0,1,.34524-.0848,1.57626,1.57626,0,0,0,.50273-.11508,1.124,1.124,0,0,1,.36947-.09691.40392.40392,0,0,0,.2241-.02423,1.52073,1.52073,0,0,1,.527,0c.30284.04846.34524.0424.48455-.0848.2665-.24227.41187-.28467.957-.2665a2.18048,2.18048,0,0,0,1.25378-.18776.44415.44415,0,0,0,.27256-.43.42213.42213,0,0,1,.12114-.23621.99384.99384,0,0,0,.18762-.39385,3.41336,3.41336,0,0,1,.4361-.80557,1.78783,1.78783,0,0,0,.41187-.854c.07268-.533-.0848-.7026-.91459-1.00544a3.89364,3.89364,0,0,0-1.99878.09691,1.38165,1.38165,0,0,1-.70866.33313.64728.64728,0,0,0-.34524.07874,2.85047,2.85047,0,0,1-.58147.18776,1.97445,1.97445,0,0,0-.54512.19382,1.29412,1.29412,0,0,1-.36341.14537c-.0848.006-.24228.02422-.34525.03634a.70212.70212,0,0,0-.33313.15142c-.24833.23016-.48455.29679-1.41732.41187a1.26723,1.26723,0,0,0-.31495.11508.43634.43634,0,0,1-.27257.06057,1.822,1.822,0,0,0-.60569.212,3.82063,3.82063,0,0,1-.58752.24834,3.428,3.428,0,0,0-.52089.24833c-.38764.212-.49061.24833-.7026.218a.48586.48586,0,0,0-.4361.109,2.70275,2.70275,0,0,1-.76923.3937,3.827,3.827,0,0,0-.59358.25439c-.28467.13931-.533.26045-.55117.26045-.01817.00606-.16354.03028-.33313.06057a2.42994,2.42994,0,0,0-.53907.15748c-.27862.12114-.37553.09691-.49061-.1272-.07874-.15142-.07874-.19987.00606-.40581a2.69223,2.69223,0,0,1,.25439-.44215,9.1911,9.1911,0,0,0,.76317-1.29013,4.62254,4.62254,0,0,1,.52089-.73894,1.74056,1.74056,0,0,0,.30285-.3937c0-.0424,1.11447-1.18715,1.50817-1.54451.03634-.03634.2665-.3089.51484-.60569.24227-.30285.62386-.72683.84191-.957a6.93959,6.93959,0,0,0,.65414-.76923,1.71615,1.71615,0,0,1,.29679-.36341,1.21723,1.21723,0,0,0,.24834-.33919c.11508-.18777.29678-.47244.40581-.636a1.53877,1.53877,0,0,0,.19382-.37553.556.556,0,0,1,.12114-.24227.5415.5415,0,0,0,.12113-.23622.50086.50086,0,0,1,.09692-.218.31531.31531,0,0,0,.06056-.23622.41165.41165,0,0,1,.07268-.28467,3.469,3.469,0,0,0,.218-.5209c.06057-.18171.13932-.3937.16354-.47244a.31945.31945,0,0,0,.01816-.20593c-.02422-.03029.01819-.13931.09086-.23622a.85606.85606,0,0,0,.13932-.55724,1.33006,1.33006,0,0,1,.109-.5754,1.84616,1.84616,0,0,0,.03635-1.06.51139.51139,0,0,1,.05452-.34525.60338.60338,0,0,0,.02421-.48455,1.46768,1.46768,0,0,1-.01816-.533,1.62123,1.62123,0,0,0-.07874-.90248c-.04845-.11508-.07268-.2241-.05451-.24227s-.07268-.16354-.19988-.321a1.13144,1.13144,0,0,1-.2665-.56935,2.17219,2.17219,0,0,0-.15749-.50878,1.73324,1.73324,0,0,1-.15142-.37553A4.12651,4.12651,0,0,0,20.3528.09674.65492.65492,0,0,0,19.71689.07859Z"/>
   <path class="a"
         d="M11.84291.79936a3.66773,3.66773,0,0,1-.50878.38764,4.511,4.511,0,0,0-.57541.44821c-.13931.13325-.34524.321-.46032.41793-.3513.3089-.80557.69049-.92671.7874-.06057.04845-.27256.24833-.47244.43609a2.00144,2.00144,0,0,1-.424.3513,3.44459,3.44459,0,0,0-.53907.48456c-.34524.3513-.48455.533-.48455.642a1.2779,1.2779,0,0,1-.48455.82374c-.14537.0848-.18171.13931-.15142.22411a.22028.22028,0,0,1-.0848.23016c-.424.37553-.61175.58752-.61175.69654a.56614.56614,0,0,1-.18776.29073,2.80793,2.80793,0,0,0-.49061.49667c-.05452.07874-.1696.218-.24834.321-.1817.2241-.23622.39975-.16353.50878.07874.13325-.02423.27862-.25439.36947-.30891.12114-.44821.28467-.68443.76317a1.51063,1.51063,0,0,1-.32708.50272,2.50747,2.50747,0,0,0-.38764.44216,3.95939,3.95939,0,0,1-.39976.50272,1.42119,1.42119,0,0,0-.26044.39976,1.43436,1.43436,0,0,1-.24228.39975,2.042,2.042,0,0,0-.29073.4785,1.62464,1.62464,0,0,1-.315.48455.98874.98874,0,0,0-.22411.26045,3.21962,3.21962,0,0,1-.39975.46032A.97879.97879,0,0,0,.892,13.967a1.613,1.613,0,0,1-.19988.4785,4.51246,4.51246,0,0,0-.533,1.26589,21.81764,21.81764,0,0,0-.15142,2.453c-.02423.58752.11508.87825.50272,1.08419.44821.23016,1.09025.13325,2.08358-.30891a3.13285,3.13285,0,0,1,.4361-.16959.61894.61894,0,0,0,.19987-.0848A3.41364,3.41364,0,0,1,4.28384,18.437a2.03209,2.03209,0,0,0,.49666-.18171,1.563,1.563,0,0,1,.3937-.15142.16041.16041,0,0,0,.1272-.12114.48672.48672,0,0,1,.18776-.21805.32359.32359,0,0,0,.14537-.18776.60042.60042,0,0,1,.15748-.24228.54937.54937,0,0,0,.19988-.61175,2.213,2.213,0,0,1-.09691-.46638,2.5814,2.5814,0,0,0-.03635-.315,2.14049,2.14049,0,0,0-.91459-.13931A1.56741,1.56741,0,0,1,3.333,14.65151c-.0424-.13931-.006-.23622.1696-.52695.12719-.19382.29678-.44821.38158-.56329a1.8176,1.8176,0,0,0,.22411-.40582,4.065,4.065,0,0,1,.636-.957.69975.69975,0,0,0,.16351-.2968.44649.44649,0,0,1,.14536-.23622,1.14062,1.14062,0,0,0,.212-.35736,2.269,2.269,0,0,1,.28467-.49666,1.03579,1.03579,0,0,0,.19382-.315,6.16246,6.16246,0,0,1,1.02362-1.278,4.70058,4.70058,0,0,0,.65415-.79951,2.39934,2.39934,0,0,1,.41792-.533,1.67645,1.67645,0,0,0,.30285-.33313.52089.52089,0,0,1,.2241-.19988c.06057-.02422.11509-.07268.11509-.11508a.57439.57439,0,0,1,.12113-.23616.55787.55787,0,0,0,.12114-.27256.84813.84813,0,0,1,.1696-.3513,3.52555,3.52555,0,0,0,.23622-.38764,2.8155,2.8155,0,0,1,.34524-.4725c.15142-.18171.37553-.47244.49667-.65415.218-.33313.35735-.44821.533-.44821a2.15061,2.15061,0,0,0,.83586-.59963,1.51655,1.51655,0,0,1,.3513-.3089,2.03063,2.03063,0,0,0,.73288-.62387.416.416,0,0,0-.01211-.23016,1.60085,1.60085,0,0,1,.01817-.527,1.57293,1.57293,0,0,0-.00606-.73894A.57764.57764,0,0,1,12.41226.981c.06663-.13325.03028-.212-.15748-.315C12.07913.57525,12.0549.58737,11.84291.79936Z"/>

</g>
</svg>
