<?xml version="1.0" encoding="UTF-8"?>
<svg xmlns="http://www.w3.org/2000/svg"
     version="1.1"
     width="15.02520983mm"
     height="41.59833953mm"
     viewBox="0.00000000 0.00000000 42.59113613 117.91656139">

<g transform="scale(3.67920472)">   <defs>
      <style type="text/css"><![CDATA[
      .a {
        stroke: #000;
        stroke-linecap: round;
        stroke-linejoin: round;
        stroke-width: 0.01px;
      }
    ]]></style>
   </defs>
   <path class="a"
         d="M5.47981.00964A3.78135,3.78135,0,0,1,4.91046.0581,3.67151,3.67151,0,0,0,4.1049.18529a1.11772,1.11772,0,0,1-.61175.04846C3.11156.17924,3.045.20346,2.63307.55476a6.49363,6.49363,0,0,1-.98728.636.48027.48027,0,0,0-.17565.12719A3.1616,3.1616,0,0,1,1.028,1.6208c-.20594.11508-.32708.23016-.35131.32707A.26483.26483,0,0,1,.501,2.12956C.37384,2.1659.21636,2.493.21636,2.73525a.40729.40729,0,0,1-.12114.212c-.09085.09086-.109.15143-.07268.23017a.278.278,0,0,1,.03028.17565c-.01817.04239,0,.07874.03029.07874a.30749.30749,0,0,1,.15748.09085c.12719.1272.46638.06057.67231-.1272a.53524.53524,0,0,1,.24228-.14536.4632.4632,0,0,0,.41793-.27862c.06057-.23016.20593-.2665.7026-.16959a3.61628,3.61628,0,0,0,.60569.07874,1.83955,1.83955,0,0,1,.3937.06057,7.8656,7.8656,0,0,0,2.70138-.0303c.212-.03028.29679-.01211.37553.06057.19382.19988.02423.71472-.321.96911a1.20417,1.20417,0,0,0-.33918.3937,1.37937,1.37937,0,0,1-.23017.33918,2.13628,2.13628,0,0,0-.29679.40582,2.78118,2.78118,0,0,1-.30284.43609,3.38472,3.38472,0,0,0-.46033.62992,3.45532,3.45532,0,0,1-.39369.51484c-.3937.41187-.533.59963-.50273.70866a.33273.33273,0,0,1-.03028.19988.22392.22392,0,0,0,.0424.24227c.04845.07874.07874.15748.06056.17565-.06056.06057-.08479.29073-.03028.29073.09691,0,.11508.18171.01817.27257-.07874.07874-.0848.12719-.02423.25439s.04846.1817-.05451.34524c-.06663.109-.103.218-.07874.23622a.85556.85556,0,0,1,.06057.2665c.01211.1272.03634.3513.05451.50273s.03634.43609.04846.636a2.65535,2.65535,0,0,0,.11508.62992.51924.51924,0,0,1,.0424.36342c-.03029.06056,0,.15747.09691.30284.07874.11508.12719.23016.109.25439a.32665.32665,0,0,0,.05451.218,1.48159,1.48159,0,0,1,.12114.38159,4.88961,4.88961,0,0,0,.30891.80556,3.44211,3.44211,0,0,1,.27861.73289.27629.27629,0,0,0,.05452.18776,1.16,1.16,0,0,1,.15747.38159,3.46444,3.46444,0,0,0,.18777.50878c.06057.12114.07268.20594.03028.27862a.562.562,0,0,0,0,.3513A1.31043,1.31043,0,0,1,5.183,16.545a.89557.89557,0,0,0,0,.1817,1.09579,1.09579,0,0,0,.103.49061.76026.76026,0,0,1,.07874.321v.36947a1.59419,1.59419,0,0,0,.11508.44216c.07874.1817.09691.29678.05452.36341a.364.364,0,0,0-.01212.24228.35148.35148,0,0,1,.03029.19382,3.88606,3.88606,0,0,0,.01817.77528,1.205,1.205,0,0,1-.02423.39976.26049.26049,0,0,0,.01817.24227,8.6433,8.6433,0,0,1,.00606,2.62265.47465.47465,0,0,0-.00606.44215c.1272.24228.15748.51484.06663.60569-.06663.06663-.07269.14537-.03634.34525a1.49346,1.49346,0,0,1-.01212.75711.39079.39079,0,0,0,.03029.27256,4.24211,4.24211,0,0,1,.08479,1.10842,4.89944,4.89944,0,0,0,.07874,1.0963.20414.20414,0,0,1-.02422.26044c-.0848.11508-.07874.14537.03028.28468.09085.11508.109.18776.06663.2665a.13448.13448,0,0,0,.01211.1696.92885.92885,0,0,1,.0848.41187,1.605,1.605,0,0,0,.14536.5754,1.13091,1.13091,0,0,1,.12114.33313.33794.33794,0,0,0,.06057.16354,3.05059,3.05059,0,0,1,.45427.65414,4.03778,4.03778,0,0,0,.73894.854.721.721,0,0,0,.77529.218,4.16057,4.16057,0,0,1,.54512-.06663,1.77658,1.77658,0,0,0,.55723-.12114,2.05234,2.05234,0,0,1,.81163-.11508l.62386-.01211.28468-.28468c.29073-.28467.39975-.59963.27861-.81768-.05451-.09691.05452-.44821.13931-.44821.103,0,.12114-.3089.03029-.44821a.297.297,0,0,1-.05452-.24228.68114.68114,0,0,0-.06662-.36947.82792.82792,0,0,1-.07268-.3513.64387.64387,0,0,0-.07874-.28468,1.641,1.641,0,0,1-.14537-.40581.58474.58474,0,0,0-.12114-.25439A1.39257,1.39257,0,0,1,10.713,27.096a.64983.64983,0,0,0-.08479-.29678,1.08437,1.08437,0,0,1-.11508-.29679.371.371,0,0,0-.09691-.18777,1.1462,1.1462,0,0,1-.1696-.424c-.06057-.27256-.103-.33313-.2665-.40581A.46794.46794,0,0,1,9.75,25.273a11.29254,11.29254,0,0,0-.745-1.49c-.02423,0-.0848-.07874-.14537-.17565a4.50457,4.50457,0,0,1-.09085-1.72622c.04239-.07874.03028-.17565-.0424-.33313a.48462.48462,0,0,1-.01212-.47243.48007.48007,0,0,0,.03029-.34525.18926.18926,0,0,1-.01211-.16959,1.04216,1.04216,0,0,0,.06056-.315c.01212-.13931.03635-.33313.04846-.43.01817-.103.0424-.26651.05451-.37553a.6703.6703,0,0,1,.13325-.321c.11508-.12719.11508-.13325-.05451-.44821a.85793.85793,0,0,1-.13931-.38158.435.435,0,0,0-.02423-.26651A10.27654,10.27654,0,0,1,8.69,16.36936a.43158.43158,0,0,0-.0848-.26045.3414.3414,0,0,1-.07874-.24833,2.31946,2.31946,0,0,0-.20593-.96305c-.07874-.17565-.103-.28468-.06057-.35736.04845-.09085.03634-.18776-.0848-.75106a2.03413,2.03413,0,0,0-.14537-.37553,1.01421,1.01421,0,0,1-.11508-.3937c0-.315-.02423-.39369-.16959-.53906-.11508-.11508-.13325-.16959-.0848-.26045.04846-.07874.02423-.212-.07874-.50272a2.44887,2.44887,0,0,1-.14536-.59963,2.81886,2.81886,0,0,0-.218-1.05391,1.406,1.406,0,0,1-.1272-.50272c.01817-.0424-.03028-.15748-.09691-.25439a.38747.38747,0,0,1-.09691-.2665c.02423-.05452.01817-.09692-.00606-.09692a3.2416,3.2416,0,0,1-.43-.95093,2.30513,2.30513,0,0,1-.03634-.636,1.66489,1.66489,0,0,0-.06057-.68443c-.12719-.41792-.12114-.46032.12114-.77528a1.11084,1.11084,0,0,0,.212-.36947c0-.07874.103-.22411.3937-.55118a2.31059,2.31059,0,0,0,.212-.28468,7.4796,7.4796,0,0,1,.8722-1.20532.41843.41843,0,0,0,.15748-.20594.4265.4265,0,0,1,.13931-.2241,2.87233,2.87233,0,0,0,.46638-.89037.71935.71935,0,0,1,.18776-.23622c.19383-.1817.22411-.34524.15143-.86008a1.1396,1.1396,0,0,1,.0241-.40579C9.34412.49419,9.326.44574,9.1503.258A.67654.67654,0,0,0,8.8414.046c-.06663,0-.24228-.01211-.39976-.03028a1.649,1.649,0,0,0-.54512.0424,1.73374,1.73374,0,0,1-.68443.03026A7.60342,7.60342,0,0,0,6.29144.07021,2.5843,2.5843,0,0,1,5.64335.03993C5.56461.00964,5.48587-.00247,5.47981.00964Z"/>

</g>
</svg>
