<?xml version="1.0" encoding="UTF-8"?>
<svg xmlns="http://www.w3.org/2000/svg"
     version="1.1"
     width="21.45833928mm"
     height="35.35208477mm"
     viewBox="0.00000000 0.00000000 60.82681061 100.21064967">

<g transform="scale(5.10555451)">   <defs>
      <style type="text/css"><![CDATA[
      .a {
        stroke: #000;
        stroke-linecap: round;
        stroke-linejoin: round;
        stroke-width: 0.01px;
      }
    ]]></style>
   </defs>
   <path class="a"
         d="M10.525.28361a1.74428,1.74428,0,0,1-.33919.36948.49211.49211,0,0,0-.18171.27861,1.42982,1.42982,0,0,1-.32707.46639,1.21222,1.21222,0,0,0-.35736.56329,1.49333,1.49333,0,0,1-.1817.41793,3.63217,3.63217,0,0,0-.30285.52089,1.00536,1.00536,0,0,1-.315.41187c-.09085.03028-.109.06057-.06662.13931A2.68372,2.68372,0,0,1,7.866,4.71727a.93842.93842,0,0,0-.29074.62386c-.01211.0848-.03028.218-.04239.30285a3.39477,3.39477,0,0,1-.49667.96911,1.79072,1.79072,0,0,0-.24228.41792,2.11128,2.11128,0,0,1-.32707.50878,2.54054,2.54054,0,0,0-.3937.61175,1.83879,1.83879,0,0,1-.33313.533c-.09691.07268-.11508.12114-.07268.2665.0424.13931.01817.24228-.13326.50878a3.17909,3.17909,0,0,1-.2665.43.3587.3587,0,0,0-.07874.19988.46233.46233,0,0,1-.13931.24228c-.07874.07874-.13325.16353-.12114.19988a2.29133,2.29133,0,0,1-.527.73288,1.99528,1.99528,0,0,0-.2665.45427,9.07906,9.07906,0,0,1-.66626,1.28407,4.312,4.312,0,0,0-.33919.6602.4783.4783,0,0,1-.15748.26045.971.971,0,0,0-.32707.59357,1.11245,1.11245,0,0,1-.27862.46639,3.18053,3.18053,0,0,0-.60569.99939,6.80991,6.80991,0,0,1-.866,1.30834,1.75437,1.75437,0,0,0-.321.46032c-.109.20594-.24834.46639-.30285.56935a1.16441,1.16441,0,0,0-.109.30285.77353.77353,0,0,1-.09691.29073c-.103.19988-.09692.212.212.59963.109.13326.12114.13931.16353.0424a.5011.5011,0,0,1,.22411-.20593,1.53846,1.53846,0,0,0,.642-.66021c.07268-.12719.25439-.43.40581-.6602.14537-.23622.33919-.56329.43005-.72683a3.17217,3.17217,0,0,1,.34524-.52695,3.80422,3.80422,0,0,0,.642-.90854,3.51026,3.51026,0,0,1,.72077-1.066,2.337,2.337,0,0,0,.30891-.533,1.44752,1.44752,0,0,1,.29678-.46033,1.22177,1.22177,0,0,0,.29074-.40581,1.06478,1.06478,0,0,1,.24227-.3513.20275.20275,0,0,0,.07874-.17565.62932.62932,0,0,1,.18777-.33313,3.17869,3.17869,0,0,0,.53906-.99333,2.35034,2.35034,0,0,1,.27256-.4785,3.28647,3.28647,0,0,0,.27256-.46032,1.09686,1.09686,0,0,1,.1696-.27862,3.70661,3.70661,0,0,0,.24229-.38763,2.14754,2.14754,0,0,1,.1272-.24228,5.65783,5.65783,0,0,0,.25439-.58752,1.497,1.497,0,0,1,.527-.76923,1.348,1.348,0,0,1,.44215-.27862c.07874,0,.11509-.04239.11509-.12719a.73535.73535,0,0,1,.09085-.28468,4.075,4.075,0,0,0,.20593-.61174,2.03988,2.03988,0,0,1,.23622-.57541A6.515,6.515,0,0,0,9.36211,5.323c.06663-.15748.15748-.28467.19382-.28467.0424,0,.05452-.06057.03029-.15748-.03634-.13931.006-.19988.29679-.47244a2.59,2.59,0,0,0,.46032-.55118c.06663-.13325.15142-.3089.19988-.3937.0424-.08479.13325-.26044.19382-.3937a5.26642,5.26642,0,0,1,.37553-.59357.97975.97975,0,0,0,.23016-.44216,1.672,1.672,0,0,1,.321-.77528.221.221,0,0,0,.06662-.1696.76909.76909,0,0,1,.109-.30284c.103-.17565.09691-.18171-.05451-.46033L11.6274.04134,11.17313.02317,10.72492.005Z"/>

</g>
</svg>
