<?xml version="1.0" encoding="UTF-8"?>
<svg xmlns="http://www.w3.org/2000/svg"
     version="1.1"
     width="38.19819316mm"
     height="42.43310562mm"
     viewBox="0.00000000 0.00000000 108.27831052 120.28284660">

<g transform="scale(4.31557047)">   <defs>
      <style type="text/css"><![CDATA[
      .a {
        stroke: #000;
        stroke-linecap: round;
        stroke-linejoin: round;
        stroke-width: 0.01px;
      }
    ]]></style>
   </defs>
   <path class="a"
         d="M21.75385.18671c-.09691.18776-.29679.33313-.38765.27256a.31533.31533,0,0,0-.19987.02423A.40945.40945,0,0,1,20.815.429L20.60909.32l-.16354.17565a.86383.86383,0,0,0-.24833.86614,1.16622,1.16622,0,0,1-.103.84191.65267.65267,0,0,0-.07268.29073,3.41106,3.41106,0,0,1-.17565.81768,1.10331,1.10331,0,0,0,.01211.642,1.764,1.764,0,0,1,.03634.751c-.02422.19382-.06056.47244-.07268.60569a1.14481,1.14481,0,0,1-.06662.32708,3.88187,3.88187,0,0,0-.1696,1.22349c.05451.3513-.25439.75106-.81768,1.04179a.806.806,0,0,0-.27256.22411,1.48186,1.48186,0,0,1-.49667.33918,5.73008,5.73008,0,0,0-.636.36342c-.19988.13931-.24228.14536-.83586.12114-.58146-.02423-.64809-.01817-.89642.12113l-.2665.15143-.24834-.12114a.675.675,0,0,0-.3513-.09085,1.02627,1.02627,0,0,1-.40581-.07269,3.67686,3.67686,0,0,0-.4361-.12114.375.375,0,0,1-.212-.08479.43487.43487,0,0,0-.24833-.06663.88093.88093,0,0,1-.3937-.12719,1.14929,1.14929,0,0,0-.4361-.13931c-.23622-.01817-.53907-.17565-.53907-.27862a1.53987,1.53987,0,0,0-.6602-.424.52934.52934,0,0,1-.25439-.109,2.58278,2.58278,0,0,0-.44821-.24833c-.16354-.07268-.38159-.17565-.47244-.218A.83319.83319,0,0,0,9.99731,7.031c-.12719,0-.37553-.28468-.52089-.59358a2.12362,2.12362,0,0,0-.61781-.642,13.2788,13.2788,0,0,1-2.49544-2.871,1.333,1.333,0,0,0-.424-.424c-.20593-.09691-.218-.09086-.48455.04845a2.3845,2.3845,0,0,0-.47244.36342,3.46863,3.46863,0,0,1-.38764.35735c-.103.0848-.17565.1696-.15748.19988.01817.02423-.06663.15143-.18776.27862-.13931.15748-.19988.27256-.17565.33919.06056.16353-.13931.38764-.40582.46032-.13325.03634-.27862.07874-.32707.09691-.0424.01817-.13931-.02422-.20594-.09085-.12113-.12114-.12113-.13931-.04239-.29679a4.66315,4.66315,0,0,1,.45426-.55118,1.58386,1.58386,0,0,0,.39976-.58752,1.07078,1.07078,0,0,1,.218-.41793c.13325-.15142.17565-.24227.14536-.33313-.02422-.06662-.07268-.12113-.109-.11508-.3513.0424-.43-.28467-.32707-1.39309a1.48641,1.48641,0,0,0,.006-.44215c-.07874-.12114-.33918.3937-.38158.75106a2.10568,2.10568,0,0,1-.3089.26044,1.59173,1.59173,0,0,0-.4361.4785,4.03405,4.03405,0,0,1-.25439.43,2.51254,2.51254,0,0,0-.218.39976,1.95168,1.95168,0,0,1-.44215.533c-.30891.27257-.38159.315-.57541.29679-.11508-.00605-.218.01212-.23016.0424-.00606.03634-.03029.1272-.04846.212-.01817.103-.17565.25439-.45427.45427-.54512.38764-.61175.5209-.39975.79346.17565.23016.15142.2241.47849.14536a.64884.64884,0,0,1,.34525,0c.218.12114.1817.24228-.20594.64809-.20593.218-.43.46033-.49666.533a1.13831,1.13831,0,0,0-.19988.3513c-.07269.19988-.06663.23622.06057.43.09085.14537.16959.20594.23016.18171.33313-.13325.43-.13931.55118-.01817.09085.09085.103.14536.05451.23622a.40646.40646,0,0,0,.07874.50272.49656.49656,0,0,0,.40581.19382c.49667.04846.50878.33313.0424,1.01756a2.30419,2.30419,0,0,0-.28467.49061c0,.07269.212.15143.49666.18777.13325.01817.41187-.24834.41187-.3937a1.36862,1.36862,0,0,1,.36342-.4785,1.57984,1.57984,0,0,0,.36341-.45427,1.204,1.204,0,0,1,.4726-.55107.75463.75463,0,0,0,.24833-.25439.38665.38665,0,0,0,.06057-.45426.53292.53292,0,0,0-.3089-.35736c-.27862-.13931-.38158-.3089-.29073-.47244A.355.355,0,0,1,3.1773,6.395.3324.3324,0,0,0,3.359,6.21329a.48.48,0,0,1,.18776-.20593c.103-.05451.18171-.00606.55724.35736a3.74836,3.74836,0,0,0,.49061.424,2.05131,2.05131,0,0,1,.37554.30286,1.88423,1.88423,0,0,0,.84191.51484.7292.7292,0,0,1,.315.25439,2.39958,2.39958,0,0,0,.94488.7874c.30284.15142.41792.24833.49666.41187.05451.11508.14537.212.19382.212a2.93182,2.93182,0,0,1,.57541.24228,1.64419,1.64419,0,0,0,.76923.24228.96145.96145,0,0,1,.90248.636,1.10482,1.10482,0,0,0,.212.33313.83061.83061,0,0,1,.19988.27256,1.10457,1.10457,0,0,0,.33918.36342.76751.76751,0,0,1,.424.55723c0,.1696-.37553.54512-.59964.60569a1.28806,1.28806,0,0,1-.47244-.06662,1.1165,1.1165,0,0,0-.36341-.07874c-.01211.01817-.12114-.00606-.23016-.05451a1.18092,1.18092,0,0,0-.3756-.0848,1.6876,1.6876,0,0,1-.50878-.1696,1.67071,1.67071,0,0,0-.56329-.1817.981.981,0,0,1-.27862-.0424,2.6812,2.6812,0,0,0-.527-.06057c-.33313-.01817-.49667,0-.58752.06663a.44513.44513,0,0,1-.19988.08479c-.12114,0-.424.32708-.46638.50878s-.33919.5209-.45427.5209a.4107.4107,0,0,1-.18777-.12114c-.103-.103-.11508-.16959-.07874-.47244.07269-.59963.06663-.64809-.09691-.64809-.17565,0-.527.41793-.58752.68443a2.23356,2.23356,0,0,1-.52089.93882.37881.37881,0,0,0-.16959.212,4.61969,4.61969,0,0,1-.69049,1.21139c-.103.109-.18171.212-.1696.23016.0424.0848-.01211.16354-.23016.30284-.26045.17566-.3089.26651-.13325.26651.06663,0,.17565-.103.26045-.23016a.73978.73978,0,0,1,.34524-.29074,1.14843,1.14843,0,0,0,.41187-.29073c.16959-.1817.22411-.212.321-.16353.15748.09085.18776.20593.11508.46638-.05451.20593-.41793.62992-.53907.62992-.02422,0-.05451.06662-.07874.13931a.94935.94935,0,0,1-.50272.56935c-.18776.07268-.20594.103-.16959.26044a.27485.27485,0,0,1-.0848.29679,1.63573,1.63573,0,0,0-.18776.24228,1.01253,1.01253,0,0,1-.36342.27862c-.24228.12113-.3089.19382-.35736.37552-.08479.30891-.08479.321.04846.321a.45266.45266,0,0,0,.26052-.18776,6.80131,6.80131,0,0,1,.48455-.55118c.29073-.30891.35736-.3513.46032-.29679a.2569.2569,0,0,1,.103.40581.596.596,0,0,0-.09085.23016,1.56211,1.56211,0,0,1-.321.41187,1.332,1.332,0,0,0-.32712.44213,1.28259,1.28259,0,0,1-.04846.24833c-.06662.19988.19988.34525.46033.24834.212-.07269.59963-.44216.59963-.5633a2.26974,2.26974,0,0,1,.32708-.47849,2.13434,2.13434,0,0,0,.35735-.57541,2.2698,2.2698,0,0,1,.77529-.848c.18776-.13325.27862-.16353.35735-.12114.18171.09692.18171.212-.00605.49061a1.02807,1.02807,0,0,0-.17565.41793c-.00606.212-.09691.35736-.51484.79951a2.72484,2.72484,0,0,0-.36947.44216,1.81191,1.81191,0,0,1-.50878.66626,3.65884,3.65884,0,0,0-1.11447,1.68382c.0424.12114-.11508.424-.30891.57541s-.19382.24227,0,.29073c.18171.0424.29074-.03634.3937-.27862a.81183.81183,0,0,1,.29679-.315A4.06744,4.06744,0,0,0,3.44986,20.98c.18171-.16354.24834-.18776.33919-.13931.18776.09691.18776.20594-.00606.59963a1.14564,1.14564,0,0,1-.39975.51484c-.321.20594-.4361.3513-.46638.61781a.721.721,0,0,1-.47244.636c-.51484.23622-.642.43-.44216.66626.07268.0848.1696.13931.218.1272a2.66491,2.66491,0,0,0,.71472-.75106.91862.91862,0,0,1,.321-.321,2.74058,2.74058,0,0,0,.69049-.46032.81308.81308,0,0,1,.212-.14537c.1696-.08479.18777-.08479.3089.03635.11509.11508.11509.13325.02423.25439-.04845.07268-.15142.218-.218.32707a.62118.62118,0,0,1-.2241.23016.85285.85285,0,0,0-.25439.24834,4.19922,4.19922,0,0,1-.30285.38159.55345.55345,0,0,0-.15142.2665.78219.78219,0,0,1-.22411.30285c-.20593.18776-.33918.44215-.2665.50878.01817.01817,0,.09085-.03634.16354-.07874.14536-.103.39975-.03634.39975a1.11544,1.11544,0,0,0,.25439-.29073,4.3978,4.3978,0,0,1,.29679-.36947c.17565-.16354.34524-.33919.44215-.44821a.19228.19228,0,0,1,.18171-.07874.31066.31066,0,0,0,.20593-.02423c.09086-.04845.14537-.03634.24228.06057l.12719.12719-.13931.24228a.9098.9098,0,0,1-.23621.30285.81545.81545,0,0,0-.32708.69654.36805.36805,0,0,1-.33313.44821c-.11508,0-.20593.15143-.39975.65415-.06663.17565-.06057.20593.05451.2665.09691.04846.13325.04846.15142-.01211a.69337.69337,0,0,1,.43-.36342c.0848,0,.15142-.06662.20594-.19382a1.87941,1.87941,0,0,1,.3513-.45426,5.653,5.653,0,0,0,.46032-.48456c.103-.12719.30285-.36341.4361-.52089a1.72769,1.72769,0,0,0,.24833-.33919.86391.86391,0,0,1,.23017-.218,1.197,1.197,0,0,0,.43-.54512,1.43723,1.43723,0,0,1,.08479-.18171c.1272-.24227.00606-.81768-.17565-.81768a.76741.76741,0,0,0-.30284.1272c-.15748.09691-.22411.109-.32708.05451-.24833-.13325-.15142-.53907.24228-.963.13931-.15142.18171-.24833.16354-.35736-.02423-.12114.02422-.212.23622-.41187a1.25578,1.25578,0,0,0,.30284-.41793.96568.96568,0,0,0-.17565-.82979c-.13931-.13931-.15142-.18171-.103-.36342a.70487.70487,0,0,1,.16354-.27861.84213.84213,0,0,1,.70866.06662.31685.31685,0,0,0,.33313.02423,1.51711,1.51711,0,0,0,.55118-.36342c0-.06662.23016-.27256,1.04784-.93882a6.207,6.207,0,0,0,.75106-.6602,2.912,2.912,0,0,1,.49667-.43,1.56711,1.56711,0,0,1,.94487-.41187c.26651-.04241.62387-.109.7874-.14538a1.205,1.205,0,0,1,.72683-.03027c.13325.02422.32708.04845.424.05451a1.94234,1.94234,0,0,1,.315.06057.57013.57013,0,0,0,.37552-.07874c.18171-.09691.27862-.11508.38765-.07268a2.83576,2.83576,0,0,0,.642.05451,2.35587,2.35587,0,0,1,.533.03634c.01817.01817.07268-.01817.12113-.0848.06663-.09085.06663-.16959.01212-.39369a1.59047,1.59047,0,0,1-.03634-.49667c.0424-.24833-.01212-.38159-.29679-.7026a1.0137,1.0137,0,0,1-.212-.28468c-.00606-.03634-.01817-.09085-.02423-.12114-.00606-.03634-.01817-.09085-.02423-.12719,0-.03029-.03028-.0424-.06662-.02423-.12114.07268-.41187-.14536-.50878-.38764-.103-.2665-.07874-.39976.07873-.49061.13326-.06663.20594-.01817.44216.3089.109.15748.23016.26651.27256.25439.0424-.01817.20594.09086.36341.23622a1.542,1.542,0,0,0,.5633.34525,1.31139,1.31139,0,0,1,.46638.27861,1.15035,1.15035,0,0,0,.39975.26651,1.65323,1.65323,0,0,1,.73894.73288,2.46659,2.46659,0,0,0,.3937.48456,1.87009,1.87009,0,0,1,.48455.73894,2.33362,2.33362,0,0,0,.24833.50878,1.02867,1.02867,0,0,1,.20594.27256,1.59683,1.59683,0,0,0,.3937.38764c.45427.28468.51484.67232.13325.80557-.24228.0848-.41187.04846-.89037-.18776a2.00426,2.00426,0,0,0-.9691-.29679.88752.88752,0,0,1-.40581-.15142.9576.9576,0,0,0-.94488-.07269c-.12719.09691-.15142.09691-.55117-.103a2.40043,2.40043,0,0,0-.50272-.20594,2.3317,2.3317,0,0,1-.38765-.11508c-.19987-.07874-.33313-.09691-.3937-.06057a.50953.50953,0,0,1-.2241.05451.65853.65853,0,0,0-.321.1272.84759.84759,0,0,1-.321.13931,1.19433,1.19433,0,0,0-.36948.15748,1.22113,1.22113,0,0,1-.50878.15748,5.18263,5.18263,0,0,0-1.61113.33918.52336.52336,0,0,1-.26045.06663.49992.49992,0,0,0-.27256.0424,4.56738,4.56738,0,0,0-2.10781,1.708,5.117,5.117,0,0,1-.87825,1.02361,2.28326,2.28326,0,0,0-.27862.44822,1.1022,1.1022,0,0,0-.19382.72682.88987.88987,0,0,0,.12114.39976.63342.63342,0,0,1,.11508.23016c.03634.19382.0848.24834.23622.24834.103,0,.16959-.07874.30285-.3513a3.08272,3.08272,0,0,0,.18776-.49061c.0424-.22411.26045-.424.745-.66021a1.67586,1.67586,0,0,0,.61781-.45427,1.84474,1.84474,0,0,1,.43609-.39975,1.05648,1.05648,0,0,0,.30891-.26045,4.95319,4.95319,0,0,1,1.10235-.68443,1.52785,1.52785,0,0,1,.81769-.07268,3.45,3.45,0,0,0,.66626.07874c.62991.02423.84191.05451.9267.13931a.26237.26237,0,0,0,.15748.06662,1.12563,1.12563,0,0,1,.33313.11508,11.138,11.138,0,0,0,1.811.45427,1.19,1.19,0,0,1,.37553.12114,2.83269,2.83269,0,0,0,.78739.3089,1.80978,1.80978,0,0,1,.98123.44821,3.49825,3.49825,0,0,0,.56328.3937c.11508.05452.30891.15143.424.21805a1.97965,1.97965,0,0,0,.424.15142,3.14341,3.14341,0,0,1,.53906.19383,2.22267,2.22267,0,0,0,1.1266.23016c.43609.02423.49061.01817.636-.109a2.73777,2.73777,0,0,1,.44215-.3089c.15749-.09085.28467-.18776.28467-.218a1.11493,1.11493,0,0,1,.60569-.33313c.103.06663.43-.09085.71472-.33918a1.8721,1.8721,0,0,1,.51483-.30891c.26651-.08479.26651-.07874.41187-.68443a1.12043,1.12043,0,0,1,.23017-.44215l.15748-.13931-.13326-.103a1.148,1.148,0,0,1-.25439-.37553,2.37754,2.37754,0,0,0-.24833-.424.97858.97858,0,0,1-.15142-.51484c-.02423-.23622-.06663-.38158-.1272-.41187A1.43141,1.43141,0,0,1,23.898,18.2a3.56638,3.56638,0,0,0-.34524-.61781c-.09691-.12114-.36342-.47244-.59358-.76922a11.93036,11.93036,0,0,1-.68443-.98122,5.6632,5.6632,0,0,0-.69049-.87826,4.51671,4.51671,0,0,1-1.15687-1.77467.80078.80078,0,0,0-.15748-.30285,2.19049,2.19049,0,0,1-.2241-.33918,6.12054,6.12054,0,0,0-.64809-1.14476,2.64094,2.64094,0,0,1-.49667-.80557.29676.29676,0,0,0-.12719-.20593.54628.54628,0,0,1-.17565-.212c-.0848-.16354-.0848-.19383.006-.32708.04846-.07874.12114-.14536.15143-.14536a2.14046,2.14046,0,0,0,.40581-.30891,3.2927,3.2927,0,0,1,.59963-.424,3.01149,3.01149,0,0,0,.60569-.46033,6.13876,6.13876,0,0,1,.9934-.8056c.24833-.13326.46638-.424.848-1.12053a4.749,4.749,0,0,1,.40582-.61781,2.396,2.396,0,0,0,.47849-.90853c-.01817-.02423.00606-.103.06057-.18171a2.89706,2.89706,0,0,0,.18171-.7026,3.84731,3.84731,0,0,1,.27256-.93882,2.58524,2.58524,0,0,0,.20594-.62992.73729.73729,0,0,1,.08479-.315,1.03954,1.03954,0,0,0-.01817-.642,4.063,4.063,0,0,1-.06057-.43,1.06489,1.06489,0,0,0-.212-.5633,5.16877,5.16877,0,0,1-.27862-.46638L23.23173.005h-1.381ZM1.56016,6.9765c.08479.16354-.13931.38765-.30285.30285-.16959-.09691-.19988-.23622-.06662-.36947S1.46316,6.80691,1.56016,6.9765Zm8.1102,8.17078c.109.109.11508.14536.04846.2665a5.65222,5.65222,0,0,1-1.16293,1.066.34287.34287,0,0,0-.18171.09085,4.56889,4.56889,0,0,1-.93276.6602,1.666,1.666,0,0,0-.36947.24228,2.111,2.111,0,0,1-.7874.39975c-.19382,0-.32708-.15747-.3513-.39975a.91737.91737,0,0,1,.20593-.854,3.62378,3.62378,0,0,0,.3513-.67837c.13931-.36947.15748-.38764.87825-.62386.33919-.11508.49061-.13931.6057-.09691a.63848.63848,0,0,0,.39369-.01817,6.74094,6.74094,0,0,1,1.07813-.1696.39814.39814,0,0,1,.22406.11508Zm-3.62809.43c.0848.16353-.13931.38764-.30284.30284-.1696-.09691-.19988-.23622-.06663-.36947s.27251-.10293.36942.06667ZM3.995,16.55244a.59551.59551,0,0,1-.26045.47244c-.09086.04845-.14537.03634-.24228-.06057-.16353-.16354-.15142-.21805.06057-.43.14537-.15143.19988-.1696.29679-.12114a.3592.3592,0,0,1,.14532.13931Zm.8358,3.14356c.06663.1272-.02423.35736-.13325.35736-.0424,0-.05452.06057-.03029.15143.03029.12113,0,.19382-.13931.33918-.15142.15142-.20593.1696-.30284.11508a.49265.49265,0,0,1-.18777-.1817c-.05451-.103-.03634-.15143.09691-.27256a.58168.58168,0,0,1,.22411-.15143c.03028,0,.03634-.06662.01817-.15142a.26821.26821,0,0,1,.0848-.27256C4.59462,19.49614,4.73393,19.52036,4.83084,19.696Z"/>
   <path class="a"
         d="M1.79633,19.805c-.26045.24833-.29679.46638-.09086.51484.20594.05451.32708-.01212.36947-.19988a1.95577,1.95577,0,0,1,.0848-.28468c.03634-.09085.01817-.13931-.05451-.1817S1.95986,19.64756,1.79633,19.805Z"/>
   <path class="a"
         d="M6.06039,25.37134c-.29073.27256-.46638.59963-.424.76923.03634.14536-.1272.3937-.25439.3937-.06663,0-.212.29073-.23016.44215a.81473.81473,0,0,1-.20594.315c-.16354.16959-.18776.23016-.15142.38764.02423.103.06662.18777.09691.18777a1.033,1.033,0,0,0,.23622-.321,1.71725,1.71725,0,0,1,.39975-.46638.96592.96592,0,0,0,.32708-.39976,1.13574,1.13574,0,0,1,.27256-.37553c.109-.09085.15142-.16353.12719-.23622a1.03248,1.03248,0,0,1,.03029-.43C6.36929,25.21992,6.30267,25.14118,6.06039,25.37134Z"/>

</g>
</svg>
