<?xml version="1.0" encoding="UTF-8"?>
<svg xmlns="http://www.w3.org/2000/svg"
     version="1.1"
     width="52.82174980mm"
     height="39.44679746mm"
     viewBox="0.00000000 0.00000000 149.73093278 111.81770835">

<g transform="scale(1.45204094)">   <defs>
      <style type="text/css"><![CDATA[
      .a {
        fill: #000;
        stroke: #000;
        stroke-width: 0.25px;
      }
    ]]></style>
   </defs>
   <path class="a"
         d="M14.4233,26.80768c7.5927-6.52342,16.3242-10.1626,25.1094-14.6567,2.8759-1.4712,6.6035-1.9658,9.6953-2.8745a78.09119,78.09119,0,0,1,11.0498-2.6529,64.75826,64.75826,0,0,1,10.9697-.3637c3.541.1049,7.1191.0366,10.6367.3061,1.0596.0816,2.1221.249,3.1797.3037,1.7939.0928,4.1523.2324,5.4277-1.2558a30.44527,30.44527,0,0,1,4.1592-4.337,5.68235,5.68235,0,0,1,3.8945-1.144,3.08159,3.08159,0,0,1,1.8877.48538c.6407.49752,1.2452,1.09182,1.8663,1.62012,1.2626,1.0752.6347,2.1714-.5586,2.9922-2.03028,1.3974-4.2041,2.6552-6.2705,4.0131a13.33451,13.33451,0,0,1-3.6016,1.85058c-1.3936.40632-2.8555.59092-4.2793.87892a27.65467,27.65467,0,0,1-11.6338-.5703,83.35166,83.35166,0,0,0-9.667-1.7114c-5.0644-.5586-10.4844.5522-15.3418,1.9229-7.3174,2.0654-14.2246,4.1362-20.7422,8.1752a106.62445,106.62445,0,0,0-17.7539,14.168c-3.36718,3.2544-6.4209,6.8882-7.8584,11.4199-1.539,4.8487-1.2763,10.083-1.08878,15.0977.12788,3.4038.21188,6.8096.23238,10.2153.0068,1.0674.6533,5.7139-.8731,6.1714-1.2002.3589-2.4228-4.1289-2.4892-4.9668-.211-2.6567.0156-5.4141-.16408-8.0005a51.23515,51.23515,0,0,1,.34278-9.1621,35.5567,35.5567,0,0,1,.44922-5.18022c.35938-1.41448.67678-2.81778,1.05178-4.22158a30.24175,30.24175,0,0,1,2.2187-5.3843,41.12113,41.12113,0,0,1,7.7617-10.916Q13.1835,27.87238,14.4233,26.80768Z"/>
   <path class="a"
         d="M15.8198,52.25638a7.44894,7.44894,0,0,0-5.2159-.3032c-2.0986.83008-.89248,2.9507.0508,4.3233,1.1963,1.7446,1.8213,3.7236,3.1231,5.4111,1.8017,2.3393,4.1552,4.4062,6.0908,6.6689a29.6873,29.6873,0,0,0,3.1172,2.7779,14.5134,14.5134,0,0,0,2.7617,2.186c.9033.4727,1.66992,1.0425,2.5928,1.4678.8857.4087,2.4707.916,3.3877.397,2.0439-1.1592-.8545-2.9751-1.7032-3.6934a31.82548,31.82548,0,0,1-7.64638-10.1543c-.52452-1-.68362-2.15822-1.21492-3.1753a20.62661,20.62661,0,0,0-1.7715-2.4116,10.18337,10.18337,0,0,0-1.665-2.2046A7.96618,7.96618,0,0,0,15.8198,52.25638Z"/>

</g>
</svg>
