<?xml version="1.0" encoding="UTF-8"?>
<svg xmlns="http://www.w3.org/2000/svg"
     version="1.1"
     width="23.22293510mm"
     height="23.10806373mm"
     viewBox="0.00000000 0.00000000 65.82884540 65.50314914">

<g transform="scale(4.54756027)">   <defs>
      <style type="text/css"><![CDATA[
      .a {
        stroke: #000;
        stroke-linecap: round;
        stroke-linejoin: round;
        stroke-width: 0.01px;
      }
    ]]></style>
   </defs>
   <path class="a"
         d="M9.7734.02235c0,.01211-.01212.07268-.02423.13325-.03028.15748-.11508.19988-.44215.212a2.43216,2.43216,0,0,0-.86009.16354,3.7647,3.7647,0,0,1-.70865.11508,1.72941,1.72941,0,0,0-.424.04845A.30045.30045,0,0,1,7.1447.67649a.38862.38862,0,0,0-.27862.03634,1.18564,1.18564,0,0,1-.424.07269,1.2116,1.2116,0,0,0-.90854.26044.50188.50188,0,0,1-.27862.15143c-.109-.0424-.48455.13931-.7026.33918a.6178.6178,0,0,1-.24833.17565.941.941,0,0,0-.1272.02423.88493.88493,0,0,1-.13325.01817.52774.52774,0,0,0-.20593.13931.67521.67521,0,0,1-.315.15748A3.56125,3.56125,0,0,0,2.39,2.48751a1.71573,1.71573,0,0,1-.81162.43.64212.64212,0,0,0-.40581.24228A1.16041,1.16041,0,0,1,.8758,3.4021a2.39831,2.39831,0,0,0-.66626.46638C.02783,4.09259-.0388,4.31064.03389,4.45a.65249.65249,0,0,0,.13931.1756.79907.79907,0,0,0,.533,0,2.94183,2.94183,0,0,1,.77529-.46638,3.98006,3.98006,0,0,0,.93882-.49061,6.2327,6.2327,0,0,1,.7026-.40582,2.61944,2.61944,0,0,1,1.06-.37553A2.8706,2.8706,0,0,0,4.81279,2.754a.42948.42948,0,0,1,.36341-.01817,2.791,2.791,0,0,0,.57541.0848c.38159.01817.4361.00606.55724-.1272.13325-.13931.14536-.13931.35735-.04845a2.94393,2.94393,0,0,0,.59358.12719,3.31662,3.31662,0,0,1,.56935.09691.72921.72921,0,0,0,.27862.03029.26536.26536,0,0,1,.19988.04845.741.741,0,0,0,.37552.09086A1.0682,1.0682,0,0,1,9.198,3.184a2.14121,2.14121,0,0,0,.43.18171,2.14832,2.14832,0,0,1,1.06.79346c.15748.321.15142.39975-.03028.59963a3.11774,3.11774,0,0,0-.315.44821,2.91365,2.91365,0,0,1-.28468.41187,1.49684,1.49684,0,0,0-.38764.54512.8236.8236,0,0,1-.2665.29679,2.82738,2.82738,0,0,0-.40582.321,1.85168,1.85168,0,0,1-.88431.45427c-.47243.07874-.55723.13325-.61174.3937-.02423.1393-.0848.16353-.37553.17565a3.07365,3.07365,0,0,0-.46638.04845,1.90315,1.90315,0,0,1-.67232.01211c-.36947-.03028-.37553-.03028-.40581.13326a.47021.47021,0,0,1-.48456.3089.47851.47851,0,0,0-.24833.09085.482.482,0,0,1-.23016.09086.21322.21322,0,0,0-.16354.109A2.143,2.143,0,0,1,3.88,8.97446,1.70345,1.70345,0,0,0,3.32885,9.35a.27664.27664,0,0,1-.15748.13931.7571.7571,0,0,0-.24228.15748.39768.39768,0,0,1-.20594.11508,3.04265,3.04265,0,0,0-.89642.44215l-.16353.13931.18776.24833.19382.25439.39976-.02422a4.00864,4.00864,0,0,0,.52089-.05452,1.65634,1.65634,0,0,1,.24228-.03028.67684.67684,0,0,0,.29679-.15748.61468.61468,0,0,1,.24833-.15142.83509.83509,0,0,0,.27256-.18171c.12114-.103.24833-.16959.29679-.15142.05451.01817.13931-.03029.218-.1272a.45547.45547,0,0,1,.33313-.17565,2.76607,2.76607,0,0,0,.36947-.06057.23925.23925,0,0,1,.25439.05452.79381.79381,0,0,0,.25439.15747,1.78978,1.78978,0,0,0,.81768.06663c0-.03028.0848-.0848.18777-.13325a.33924.33924,0,0,1,.37553.02423c.17565.103.1817.103.36341-.07874A1.62241,1.62241,0,0,1,8.68921,9.459c.15142.06057.18777.05451.30285-.06057.08479-.08479.16959-.11508.23016-.09085a1.727,1.727,0,0,0,.69049.12719,1.43619,1.43619,0,0,1,.43.06663,3.11274,3.11274,0,0,0,.49061.103.30622.30622,0,0,1,.29679.3937,2.44167,2.44167,0,0,1-.33313.73894.97368.97368,0,0,0-.07269.41793c-.01211.30284-.03634.39975-.12719.44821a4.42548,4.42548,0,0,0-.4785.44215,2.595,2.595,0,0,1-.71471.527.85406.85406,0,0,0-.3513.212,1.34315,1.34315,0,0,1-.27862.33313c-.636.60569-.66021.642-.67232.957-.00606.29073.06663.38764.23016.28467a.62583.62583,0,0,1,.26651-.05451.61083.61083,0,0,0,.3513-.14537c.09691-.08479.212-.13325.26045-.11508.12113.0424.27861-.09691.23621-.218-.04845-.16959.06663-.26044.36342-.29073a1.09793,1.09793,0,0,0,.68443-.30284.2759.2759,0,0,1,.16354-.07874c.0424,0,.12719-.103.1817-.22411.109-.23622.37553-.52089.45427-.47244.01817.01212.1272-.05451.23622-.15142a.69585.69585,0,0,1,.27256-.18171c.03634,0,.13931-.109.218-.23622a1.60871,1.60871,0,0,1,.3089-.34524.93457.93457,0,0,0,.26045-.29073,1.15624,1.15624,0,0,1,.40581-.36342,1.00382,1.00382,0,0,0,.36948-.315.36764.36764,0,0,1,.16959-.17565c.06057-.01817.15142-.15748.212-.3089a1.704,1.704,0,0,1,.3089-.49667,1.0694,1.0694,0,0,0,.24228-.37552,2.4457,2.4457,0,0,1,.11508-.36342,1.23556,1.23556,0,0,0,.00606-.72683,2.58936,2.58936,0,0,1-.03029-.27862,1.95748,1.95748,0,0,0-.59963-.81768.376.376,0,0,0-.23016.00606.29227.29227,0,0,1-.23622-.01817,2.352,2.352,0,0,0-1.01151-.15748c-.13325.07268-.14536.07268-.26044-.04846-.0848-.08479-.13326-.09085-.27862-.03634-.13931.05451-.19382.04846-.26651-.02423-.08479-.07874-.07874-.109.01212-.2665a1.62163,1.62163,0,0,1,.50878-.53907c.03028,0,.05451-.03634.05451-.08479a.75335.75335,0,0,1,.18171-.29073.8778.8778,0,0,0,.18171-.24228.45019.45019,0,0,1,.1393-.18171,1.48774,1.48774,0,0,0,.23622-.43,2.164,2.164,0,0,1,.17565-.38158,2.68091,2.68091,0,0,0,.212-.38765c.07874-.16959.16353-.30284.19382-.30284.03634,0,.06057-.06057.06662-.13931a1.36155,1.36155,0,0,1,.109-.65415.97439.97439,0,0,0-.06057-.75711,6.31652,6.31652,0,0,0-1.04785-1.175,2.51293,2.51293,0,0,0-.86-.39994c-.01211.01817-.07874.00606-.13931-.03028a.24384.24384,0,0,0-.2241,0A.20458.20458,0,0,1,11.003.45844C10.93027.41,10.84547.3797,10.81519.40393c-.03029.01817-.09691-.01211-.15143-.06662-.05451-.04846-.12113-.07874-.15748-.05452a.61436.61436,0,0,1-.321-.11508C9.95511.0284,9.79157-.02611,9.7734.02235ZM9.198,7.73279c.0424.11508-.12114.27862-.23622.23622A.1792.1792,0,1,1,9.198,7.73279Zm2.30163,0c.0424.11508-.12114.27862-.23622.23622a.1792.1792,0,1,1,.23622-.23622Z"/>

</g>
</svg>
