<?xml version="1.0" encoding="UTF-8"?>
<svg xmlns="http://www.w3.org/2000/svg"
     version="1.1"
     width="13.53265231mm"
     height="46.46954314mm"
     viewBox="0.00000000 0.00000000 38.36025364 131.72464314">

<g transform="scale(3.04789467)">   <defs>
      <style type="text/css"><![CDATA[
      .a {
        stroke: #000;
        stroke-miterlimit: 10;
        stroke-width: 0.15px;
      }
    ]]></style>
   </defs>
   <path class="a"
         d="M11.29244,27.54527c2.4175.94.624,3.3477-.1621,4.7217-.7236,1.2685-1.4087,2.5976-2.189,3.8623a28.85622,28.85622,0,0,1-5.5683,6.9629c-.2412-.6485.541-1.3696.8872-1.9658a17.0296,17.0296,0,0,0,1.1211-2.46,52.88382,52.88382,0,0,0,2.0547-5.3296,18.15539,18.15539,0,0,1,2.1416-4.9365C10.04,27.67467,10.31984,27.164,11.29244,27.54527Z"/>
   <path class="a"
         d="M.35544,2.32407q0,4.35285-.0019,8.71779a105.74,105.74,0,0,0,.8369,11.38871,76.69475,76.69475,0,0,1,.5713,8.5151c0,1.1226.0044,2.2495.0044,3.376,0,1.1553-.4766,2.3789-.2393,3.4775,3.3232.4658,3.1123-4.3891,3.3437-6.667.5655-5.6621-.3344-11.5185-.2758-17.1684.0327-3.0923-.5874-5.8077-.5874-8.8838,0-1.1514.2895-2.5694-.3101-3.5303A3.87553,3.87553,0,0,0,.11624.11117c-.2007.9605.4052,1.5601.2392,2.4922"/>

</g>
</svg>
