<?xml version="1.0" encoding="UTF-8"?>
<svg xmlns="http://www.w3.org/2000/svg"
     version="1.1"
     width="48.63464045mm"
     height="37.53219691mm"
     viewBox="0.00000000 0.00000000 137.86191673 106.39040463">

<g transform="scale(4.63379906)">   <defs>
      <style type="text/css"><![CDATA[
      .a {
        stroke: #000;
        stroke-linecap: round;
        stroke-linejoin: round;
        stroke-width: 0.01px;
      }
    ]]></style>
   </defs>
   <path class="a"
         d="M21.52855.12067a1.68054,1.68054,0,0,1-.73047.49609,2.60352,2.60352,0,0,0-.83985.63672,5.31384,5.31384,0,0,1-1.01953.793c-.35547.1836-.45311.27344-.55077.53125-.09375.22266-.18359.332-.33984.38672-.1211.03516-.22266.10156-.22266.14063,0,.10937-.39844.47265-.64062.57812a3.30987,3.30987,0,0,0-1.01953,1.01953,1.30164,1.30164,0,0,1-.418.38672,1.366,1.366,0,0,0-.35938.22266.80268.80268,0,0,1-.32031.17578.19055.19055,0,0,0-.14063.11328.50263.50263,0,0,1-.25.19922,2.60234,2.60234,0,0,0-.5664.4375,4.3563,4.3563,0,0,1-.418.375,2.33266,2.33266,0,0,0-.26953.42969c-.11328.22265-.32813.60937-.46875.85156-.13672.24609-.32813.57031-.418.71875-.082.15625-.17969.28125-.21094.28125-.12109,0-.48437.76562-.5,1.082a1.28146,1.28146,0,0,1-.24609.64453,2.83618,2.83618,0,0,0-.45313.9336.2202.2202,0,0,1-.07812.14843,1.81985,1.81985,0,0,0-.32422.61328,3.90445,3.90445,0,0,1-.25781.64454,4.45157,4.45157,0,0,0-.3086.91015.99633.99633,0,0,1-.14453.45313,1.882,1.882,0,0,0-.26953.42968,2.28008,2.28008,0,0,1-.87109,1.03907.81308.81308,0,0,0-.42188.42187,3.912,3.912,0,0,1-.668.78906c-.26172.2461-.625.57813-.793.74219a3.89127,3.89127,0,0,1-1.14062.77734.78642.78642,0,0,0-.293.21484,1.68359,1.68359,0,0,1-.45312.3125,1.02038,1.02038,0,0,0-.38672.25782,1.60159,1.60159,0,0,1-.793.332,3.27229,3.27229,0,0,0-1.63281.94922,2.88608,2.88608,0,0,1-1.19922.60156,4.31523,4.31523,0,0,0-.70313.32423c-.3789.22266-.39453.24609-.3789.52734.02343.27343.043.30078.4375.49609a2.85155,2.85155,0,0,1,.543.32423c.1211.12109.13672.12109.1836.00781a.37562.37562,0,0,1,.20312-.17187,1.568,1.568,0,0,0,.37907-.19138,1.07382,1.07382,0,0,1,.30078-.16406,3.35387,3.35387,0,0,0,.90625-.47266,1.59171,1.59171,0,0,1,.582-.23828,1.87438,1.87438,0,0,0,.63672-.21875c.23438-.12109.44531-.21484.46094-.22266a4.34054,4.34054,0,0,0,.71875-.59375,4.83947,4.83947,0,0,1,.90625-.52734,4.82839,4.82839,0,0,0,.67969-.35547,2.11445,2.11445,0,0,1,.67186-.375,1.91209,1.91209,0,0,0,.76172-.5625,1.08963,1.08963,0,0,1,.32422-.28907,2.0837,2.0837,0,0,0,.34375-.23827.22973.22973,0,0,1,.20312-.05078.32589.32589,0,0,0,.25-.09766,4.70942,4.70942,0,0,1,.42969-.35547c.15234-.125.33984-.27344.42188-.33984.07812-.0586.22656-.17969.332-.25782a4.39786,4.39786,0,0,0,.46093-.38672c.21485-.19922.28125-.23047.40235-.16407a.43523.43523,0,0,1,.19531.21485.53367.53367,0,0,0,.28125.23827,2.16155,2.16155,0,0,1,.42969.25,2.67942,2.67942,0,0,0,1.4375.37891,1.88167,1.88167,0,0,1,.47265.10937c.08594.04688.168.0625.19141.03906a1.28216,1.28216,0,0,1,.45313.14844,3.0706,3.0706,0,0,0,.73437.207c.16406.02344.38281.0586.46484.082a.47663.47663,0,0,0,.32032-.03125c.12109-.06641.17968-.05078.28515.05077a.6258.6258,0,0,0,.25.14455,1.69876,1.69876,0,0,1,.34766.08593c.65625.22266,1.05859.28125,1.21094.1875.12109-.07423.20312-.07423.44531.00782a1.44192,1.44192,0,0,0,.76953.01952,6.792,6.792,0,0,1,1.10938-.02734c.33984.02734.85546.05859,1.13671.082a2.49432,2.49432,0,0,1,.65625.10939,1.05452,1.05452,0,0,0,.39063.07422,4.69843,4.69843,0,0,1,.51562.03515c.14454.02344.55079.0625.90625.07422a6.28042,6.28042,0,0,1,.832.082,3.98407,3.98407,0,0,0,.793.14063c.168.01562.55079.05859.85547.10547a2.07337,2.07337,0,0,0,.78516-.00781,1.83309,1.83309,0,0,1,.61328-.03907c.72266.07422,1.44141-.39062,1.29688-.84375-.12891-.375-1.30469-1.25-1.5625-1.15625a.46462.46462,0,0,1-.29688-.0664,1.19685,1.19685,0,0,0-.39844-.10157,1.90348,1.90348,0,0,1-.62109-.1875,1.16671,1.16671,0,0,0-.50391-.14062,4.80257,4.80257,0,0,1-1.71875-.59766,5.22712,5.22712,0,0,0-1.84765-.58593c-.05469.02343-.168-.03516-.25782-.125-.08984-.09766-.16015-.14844-.16015-.11719,0,.02734-.13672-.01563-.293-.09766a4.35153,4.35153,0,0,0-1.25382-.33191c-.12108-.01562-.48436-.07422-.79686-.14844-.3086-.0664-.80078-.17187-1.08594-.22265-.47656-.08985-.64453-.1875-.64844-.36328a5.86382,5.86382,0,0,1,1.23828-1.13282,5.29613,5.29613,0,0,0,.97266-.72656.68.68,0,0,1,.30469-.18363,4.952,4.952,0,0,0,1.01953-.74219.61419.61419,0,0,1,.27343-.14844.42366.42366,0,0,0,.21093-.13281,1.45216,1.45216,0,0,1,.53516-.38672,3.27641,3.27641,0,0,0,1.10939-.75391,2.00136,2.00136,0,0,1,.46875-.42968A4.25716,4.25716,0,0,0,25.64963,8.4058a2.13978,2.13978,0,0,1,.28516-.31644.38627.38627,0,0,0,.1289-.207,1.034,1.034,0,0,1,.25-.37109,3.49633,3.49633,0,0,0,.66408-1.08984c.16015-.33984.16015-.37109.03906-.5625a.81922.81922,0,0,1-.12109-.32423c0-.0625-.11328-.19531-.24218-.28906-.32423-.23828-.74219-.21484-1.32423.06641a3.83994,3.83994,0,0,0-.47266.25781,1.28337,1.28337,0,0,1-.207.13282c-.14061.07422-.19531.05859-.32422-.06641-.17969-.17578-.17969-.21484-.043-.40625a3.71966,3.71966,0,0,0,.21094-1.18359,4.63642,4.63642,0,0,0-.19919-1.07422,2.988,2.988,0,0,1-.12109-.55859,1.50038,1.50038,0,0,0-.14847-.40625c-.08594-.14063-.21094-.39844-.29686-.57813a1.72272,1.72272,0,0,0-.71094-.85937,1.28088,1.28088,0,0,1-.42969-.293.70126.70126,0,0,0-.60547-.2695A.7303.7303,0,0,0,21.52855.12067ZM19.6848,6.05039a5.53171,5.53171,0,0,1,1.36718.832.726.726,0,0,0,.25782.207.67028.67028,0,0,1,.37109.8125,6.77463,6.77463,0,0,1-1.22266,1.75.43579.43579,0,0,0-.1367.207,1.00271,1.00271,0,0,1-.25783.332,4.52961,4.52961,0,0,0-.32422.34766,1.421,1.421,0,0,1-.36328.28906,4.6548,4.6548,0,0,0-.55077.42187,1.254,1.254,0,0,1-.40234.27345c-.07422.03125-.14064.07421-.14064.11328,0,.10937-.32811.41406-.67577.60547a8.36441,8.36441,0,0,0-1.39848,1.1329,2.965,2.965,0,0,1-.6875.47656c-.20312.09375-.42968.207-.48828.24219-.0625.03125-.19922.09765-.30468.14844a1.69521,1.69521,0,0,0-.31641.19531,2.56183,2.56183,0,0,1-1.03516.27344c-.51953.082-.71093-.125-.41406-.46094a.64834.64834,0,0,0,.16406-.39063,3.46752,3.46752,0,0,1,.39453-1.1875,2.05412,2.05412,0,0,0,.17188-.40625c.02344-.082.18359-.47265.34766-.875a3.38714,3.38714,0,0,0,.32031-1.18359A1.56462,1.56462,0,0,1,14.91133,8.984a1.27646,1.27646,0,0,0,.26953-.30468,1.39713,1.39713,0,0,1,.64453-.30079,3.13585,3.13585,0,0,0,.96485-.63672,1.42716,1.42716,0,0,1,.4414-.28906,4.04342,4.04342,0,0,0,.73828-.51172,4.52692,4.52692,0,0,1,1.28516-1.00781A1.52371,1.52371,0,0,1,19.6848,6.05039Z"/>

</g>
</svg>
