<?xml version="1.0" encoding="UTF-8"?>
<svg xmlns="http://www.w3.org/2000/svg"
     version="1.1"
     width="9.92114522mm"
     height="56.50371317mm"
     viewBox="0.00000000 0.00000000 28.12279289 160.16805003">

<g transform="scale(7.48195354)">   <defs>
      <style type="text/css"><![CDATA[
      .a {
        stroke: #000;
        stroke-miterlimit: 10;
        stroke-width: 0.15px;
      }
    ]]></style>
   </defs>
   <path class="a"
         d="M.19524,10.09837C.11789,12.74526.0792,14.0687.08443,14.14191A29.59423,29.59423,0,0,1,.25582,19.6355a6.7553,6.7553,0,0,0-.13417.83931c-.08557.68813-.03855.7912.02253.83207.18045.12076.603-.22143.77077-.35733.518-.41955,1.2556-1.28763,1.01647-1.88948-.05759-.14492-.15323-.22767-.12144-.365a.5978.5978,0,0,1,.68883-.36726c.08465.035.17309.10064.258.06629a.22678.22678,0,0,0,.11274-.14205c.06923-.19139.25842-1.01158.49162-2.12818a.81471.81471,0,0,1-.68936-.02554.801.801,0,0,1-.33192-.434c-.09452-.23453-.1992-.72343.048-.88754a.46909.46909,0,0,1,.51367.045c.16913.1383.106.33716.25532.40851a.40487.40487,0,0,0,.43833-.1509.68521.68521,0,0,0,.04905-.56223c-.26479-1.04158.1806-11.73834-.05636-13.36752a1.64468,1.64468,0,0,0-.33362-.7913A.74139.74139,0,0,0,2.97822.11539c-.232-.10455-.37676.019-.8889.08753-.44174.05911-.51789-.0082-.61748.0912-.21495.21453.05167.616-.16179.81892-.1743.16569-.43465-.02349-.60417.15129C.561,1.41369.70734,1.597.579,1.95374c-.0889.247-.18325.22625-.30713.48506a1.95684,1.95684,0,0,0-.13329.87272,4.36006,4.36006,0,0,0,.05516.8908A49.09641,49.09641,0,0,1,.19524,10.09837Z"/>

</g>
</svg>
