<?xml version="1.0" encoding="UTF-8"?>
<svg xmlns="http://www.w3.org/2000/svg"
     version="1.1"
     width="30.48917032mm"
     height="48.67897487mm"
     viewBox="0.00000000 0.00000000 86.42604080 137.98762451">

<g transform="scale(5.86790603)">   <defs>
      <style type="text/css"><![CDATA[
      .a {
        stroke: #000;
        stroke-miterlimit: 10;
        stroke-width: 0.15px;
      }
    ]]></style>
   </defs>
   <path class="a"
         d="M6.47542,2.5385c.065.31827-.00171.30856-.28724,2.29788-.2297,1.6005-.14749,1.335-.22338,1.65958-.20346.8703-.47828,1.42669-.25534,1.94681.14572.3399.2872.60629.28726.60638.19128.36008.23868.376.25531.51062.03793.30722-.19107.3674-.22342.79788a1.03852,1.03852,0,0,0,.09576.57446c.10221.19568.202.19727.25531.35108.07791.22467-.07266.401-.15957.6702-.03861.11956-.06165.2481.03192,1.05319a12.31062,12.31062,0,0,0,.1915,1.34042c.17346.7056.30886.68124.54254,1.46811a3.90007,3.90007,0,0,1,.25531,1.5c-.037.50485-.17575.54529-.25531,1.3085-.011.105-.01795.39978-.03192.98935a2.53981,2.53981,0,0,0,.09576.95746c.05936.17487.13016.37476.28723.41489.16876.04312.343-.12226.44681-.22339a1.77281,1.77281,0,0,0,.44681-.79788c.2554-.84232.38308-1.26349.41488-1.43619a10.59856,10.59856,0,0,0,.15958-1.65955,9.65947,9.65947,0,0,0-.06384-1.97873c-.096-.62918-.16944-.58441-.31916-1.34042a13.0924,13.0924,0,0,1-.22338-2.266c-.02424-.71423-.00293-1.22229.03192-2.01065.00979-.2215.03216-.69013.19146-2.64893.12479-1.53454.1872-2.30185.22342-2.58511C8.73387,3.34862,8.75407,2.65,8.869,1.964A2.05587,2.05587,0,0,0,8.7733.40019.72378.72378,0,0,0,8.32649.081a.9332.9332,0,0,0-.70212.31915c-.32577.27494-.28567.407-.70215.86173A2.592,2.592,0,0,0,6.47542,2.5385Z"/>
   <path class="a"
         d="M5.16691,18.04915c.65888-.01749,1.36478.00961,2.77662.06381.37567.01444.82794.03195,1.43615.06384.81729.04285,1.42673.08594,1.56385.09574,1.247.089,1.07812.1087,1.56381.12765,1.33972.05228,2.01336-.1217,2.1383.15958.03565.08023-.05023.26736-.22342.63831-.15765.33764-.29214.58392-.47869.92553-.2865.52466-.43137.79105-.51066.98935a4.90963,4.90963,0,0,0-.22341.70215,4.193,4.193,0,0,0-.12766.98935c-.00024.3949.06278.53271-.03189.60638-.12851.1-.3472-.074-.766-.19149a3.52823,3.52823,0,0,0-.89362-.09574c-1.18338-.04339-2.50033-.00339-3.8298-.03192-.62531-.01343-.8421-.03317-1.5-.03192-.71024.00134-1.06537.002-1.5.03192-1.13367.078-1.83994.26721-1.97873,0-.06073-.11694.04474-.21045-.03189-.44681a.94008.94008,0,0,0-.35107-.4468c-.30045-.23316-.41535-.144-.82981-.35108-.47555-.23761-.4787-.43216-.86169-.51062C.28074,21.29.1461,21.33025.09245,21.24062c-.0776-.12964.117-.359.31915-.63828a10.86486,10.86486,0,0,0,.8617-1.46811c.28607-.59.27563-.79208.54254-.95743.0874-.05413.21011-.10781.79788-.12765.59964-.02023.95264.01938,1.40427.03189C4.46336,18.09337,4.52736,18.06612,5.16691,18.04915Z"/>

</g>
</svg>
