<?xml version="1.0" encoding="UTF-8"?>
<svg xmlns="http://www.w3.org/2000/svg"
     version="1.1"
     width="34.40939862mm"
     height="22.16402887mm"
     viewBox="0.00000000 0.00000000 97.53840366 62.82710680">

<g transform="scale(6.36513278)">   <defs>
      <style type="text/css"><![CDATA[
      .a {
        stroke: #000;
        stroke-miterlimit: 10;
        stroke-width: 0.15px;
      }
    ]]></style>
   </defs>
   <path class="a"
         d="M2.2984,4.792A6.56179,6.56179,0,0,0,.709,6.20421a2.61684,2.61684,0,0,0-.634,1.536A2.10306,2.10306,0,0,0,1.53241,9.78955c.15362.02517.20113.00006,1.70213-.68085A3.63587,3.63587,0,0,0,4.76645,8.13a1.14338,1.14338,0,0,0,.32012-.72936,1.52727,1.52727,0,0,0-.39113-.83333c-.32413-.45573-.57269-.563-.52623-.79263a.84361.84361,0,0,1,.30332-.42206L6.05627,3.91518a3.144,3.144,0,0,0,.07409,1.42157A3.9276,3.9276,0,0,0,6.76645,6.513,9.78526,9.78526,0,0,0,8.0005,7.95977,3.98721,3.98721,0,0,0,9.31964,9.0236a2.71183,2.71183,0,0,0,1.02128.17021,7.18732,7.18732,0,0,0,4.79181-1.39192c.0371-.04482.15519-.17982.103-.2561a.217.217,0,0,0-.1178-.06971A9.12954,9.12954,0,0,1,9.87226,2.83067C9.28967,1.6286,9.067-.96017,7.205.51949A6.49278,6.49278,0,0,0,5.942,1.67683a4.95532,4.95532,0,0,1-.86466,1.04608C4.1912,3.46486,3.22488,4.10306,2.2984,4.792Z"/>

</g>
</svg>
