<?xml version="1.0" encoding="UTF-8"?>
<svg xmlns="http://www.w3.org/2000/svg"
     version="1.1"
     width="25.09964279mm"
     height="12.24038949mm"
     viewBox="0.00000000 0.00000000 71.14855780 34.69722718">

<g transform="scale(3.93579125)">   <defs>
      <style type="text/css"><![CDATA[
      .a {
        stroke: #000;
        stroke-miterlimit: 10;
        stroke-width: 0.15px;
      }
    ]]></style>
   </defs>
   <path class="a"
         d="M17.9723,7.76729a.44792.44792,0,0,1-.03032.0791,3.09069,3.09069,0,0,1-.4424.4053,1.88886,1.88886,0,0,1-.458.3589,3.64959,3.64959,0,0,1-1.5049.1025A12.85084,12.85084,0,0,1,13.3893,8.676c-1.02932-.1802-2.13282.0459-3.13672-.1719a8.06135,8.06135,0,0,0-.9502-.2421c-.5108-.0513-1.0352-.0489-1.5479-.0489-.7656,0-1.5156-.0884-2.2695-.083-1.4336.0093-2.84868-.2539-4.2803-.2573-1.415-.0039-1.1387-1.6934-1.043-2.6597.05962-.60062.22462-1.18262.3418-1.7729A3.71674,3.71674,0,0,1,.8453,2.11739,5.39017,5.39017,0,0,1,3.02008.35469c.4805-.2715,2.292-.5361,2.6114.1895.2617.5962-.95218,1.4765-1.1534,2.0171a1.42875,1.42875,0,0,0,1.1016,1.7304,6.0134,6.0134,0,0,0,1.001.2383,2.33148,2.33148,0,0,1,.5898.0488c.1543.0591.2305.1802.4024.22368a13.52355,13.52355,0,0,0,2.4941.312c.6826.043,1.3272.26712,2.0244.26512.2754-.0009.5508.001.8252.0005.7803-.0024,1.5244.1079,2.2988.168a4.17186,4.17186,0,0,1,.9932.1142,4.2665,4.2665,0,0,1,.7012.4673c.1113.06788.2929.1148.3896.1846.1045.0747.043.1528.126.2158.2988.2266.4844.231.5557.66648A1.61044,1.61044,0,0,1,17.9723,7.76729Z"/>
   <path class="a"
         d="M17.9723,7.76729a.44792.44792,0,0,1-.03032.0791,3.09069,3.09069,0,0,1-.4424.4053,1.88886,1.88886,0,0,1-.458.3589,3.64959,3.64959,0,0,1-1.5049.1025A12.85084,12.85084,0,0,1,13.3893,8.676c-1.02932-.1802-2.13282.0459-3.13672-.1719a8.06135,8.06135,0,0,0-.9502-.2421c-.5108-.0513-1.0352-.0489-1.5479-.0489-.7656,0-1.5156-.0884-2.2695-.083-1.4336.0093-2.84868-.2539-4.2803-.2573-1.415-.0039-1.1387-1.6934-1.043-2.6597.05962-.60062.22462-1.18262.3418-1.7729A3.71674,3.71674,0,0,1,.8453,2.11739,5.39017,5.39017,0,0,1,3.02008.35469c.4805-.2715,2.292-.5361,2.6114.1895.2617.5962-.95218,1.4765-1.1534,2.0171a1.42875,1.42875,0,0,0,1.1016,1.7304,6.0134,6.0134,0,0,0,1.001.2383,2.33148,2.33148,0,0,1,.5898.0488c.1543.0591.2305.1802.4024.22368a13.52355,13.52355,0,0,0,2.4941.312c.6826.043,1.3272.26712,2.0244.26512.2754-.0009.5508.001.8252.0005.7803-.0024,1.5244.1079,2.2988.168a4.17186,4.17186,0,0,1,.9932.1142,4.2665,4.2665,0,0,1,.7012.4673c.1113.06788.2929.1148.3896.1846.1045.0747.043.1528.126.2158.2988.2266.4844.231.5557.66648A1.61044,1.61044,0,0,1,17.9723,7.76729Z"/>

</g>
</svg>
