<?xml version="1.0" encoding="UTF-8"?>
<svg xmlns="http://www.w3.org/2000/svg"
     version="1.1"
     width="52.30893630mm"
     height="24.61947593mm"
     viewBox="0.00000000 0.00000000 148.27727254 69.78754456">

<g transform="scale(4.31887292)">   <defs>
      <style type="text/css"><![CDATA[
      .a {
        stroke: #000;
        stroke-miterlimit: 10;
        stroke-width: 0.15px;
        fill-rule: evenodd;
      }
    ]]></style>
   </defs>
   <path class="a"
         d="M13.90842.07565c-.583.08348-2.833,2.25-2.833,3.25s9.91651,9.75048,13.25,9.917,9.08351-2,9.58351-2.75.5-1.583-.25-2-3.083,1.333-7.417.41648C21.90842,7.99265,14.49142-.00787,13.90842.07565Z"/>
   <path class="a"
         d="M12.40842,1.32565a1.29766,1.29766,0,0,1,1.167,1.25c.083,1.167-8.417,7.583-7.917,8.75s12.583-1.08352,12.75-.5-.417,1.917-1.5,2.83348S6.49193,15.57565,6.49193,15.57565a8.92441,8.92441,0,0,1-3.08351.5c-1.5-.083-3.24949-1.083-3.333-2.083S12.40842,1.32565,12.40842,1.32565Z"/>

</g>
</svg>
