<?xml version="1.0" encoding="UTF-8"?>
<svg xmlns="http://www.w3.org/2000/svg"
     version="1.1"
     width="55.64466098mm"
     height="51.96074876mm"
     viewBox="0.00000000 0.00000000 157.73284015 147.29032370">

<g transform="scale(4.31887292)">   <defs>
      <style type="text/css"><![CDATA[
      .a {
        stroke: #000;
        stroke-miterlimit: 10;
        stroke-width: 0.15px;
        fill-rule: evenodd;
      }
    ]]></style>
   </defs>
   <path class="a"
         d="M20.388,23.39281c-.4776.0459-.9551.0967-1.42869.1621a7.34986,7.34986,0,0,1-1.18071.0977,15.56324,15.56324,0,0,0-1.82229.1699,31.49016,31.49016,0,0,1-3.28511.2021c-.6631-.0049-1.292.1592-1.9444.1953a8.61494,8.61494,0,0,0-1.4443.0869,4.73083,4.73083,0,0,1-1.0488.0958c-.8018-.0069-1.5703.1923-2.3672.1855a11.33251,11.33251,0,0,0-1.9854.1426,11.7062,11.7062,0,0,1-1.96579.1074,4.91356,4.91356,0,0,1-1.83011-.1348c-.0693-.3183.2285-.3027.4483-.3027.4355.001.873,0,1.3095,0,.4327,0,1.1866.1348,1.5547-.1494.3291-.2539.2403-.9092.1553-1.252a.57177.57177,0,0,0-.2353-.3925c-.15139-.1143-.3936-.1377-.3018-.3946.084-.2363.5312-.1201.7148-.1377a3.73021,3.73021,0,0,0,1.0411-.3681c.7832-.334,1.5507-.7022,2.3056-1.0957,1.5576-.8164,3.0713-1.7159,4.5703-2.6495.8438-.5253,1.72661-.9892,2.5508-1.5468.7197-.4873,1.2979-1.1192,1.9922-1.6319.22461-.166.5117-.2461.748-.4004a5.08227,5.08227,0,0,0,.6875-.5576c.62111-.584,1.2832-1.1035,1.878-1.7197.3623-.375.70111-.7773,1.0615-1.1572.39361-.4151.8604-.7461,1.251-1.1563a9.76793,9.76793,0,0,0,.8828-.9814c.4307-.5879,1.1484-.9785,1.4414-1.667.208-.4883.9766-1.2422,1.44141-.5703.09079.1318.11909.2519.26269.333.1455.081.249.0088.3779.1523.1221.1358.11041.2051.10941.4043a1.97889,1.97889,0,0,1-.35641,1.0342,8.35767,8.35767,0,0,1-.9248,1.2012c-.2725.3164-.4834.625-.75.9687a10.07945,10.07945,0,0,1-.9903,1.0948,4.05086,4.05086,0,0,1-.8574.5898c-.333.1953-.5527.4805-.9473.5527a6.30334,6.30334,0,0,1-1.0605-.0029,1.83729,1.83729,0,0,0-.4912-.0029c-.1397.0517-.2198.2734-.3223.3759a1.04507,1.04507,0,0,0-.42579.9444c.05079.2842.35939.4795.252.8076-.10161.3115-.61431.3789-.90531.5088a13.54011,13.54011,0,0,0-2.84469,1.9892,24.38326,24.38326,0,0,1-4.26471,2.8926,15.98741,15.98741,0,0,1-2.2998.8789,11.71442,11.71442,0,0,1-2.123.711,2.11688,2.11688,0,0,0-1.1319.3545c-.4423.4716.8145.6718,1.1065.6337.6826-.0878,1.3135-.3642,2.0185-.4179.77841-.0606,1.5606-.0264,2.3399-.0596,1.5986-.0664,3.1836.2774,4.7832.1904a14.17866,14.17866,0,0,0,2.3877-.1494c1.0517-.2422,2.1201-.3261,3.1582-.6367a25.25082,25.25082,0,0,1,3.167-.7959,18.58164,18.58164,0,0,0,3.6123-.8809c.123-.0498.249-.1259.3818-.1718.9531-.3252,1.211.3017.4678.9101a10.0283,10.0283,0,0,1-2.02249,1.0225C25.11942,23.07741,22.74252,23.16921,20.388,23.39281Z"/>
   <path class="a"
         d="M28.45533,29.29321a15.30236,15.30236,0,0,0,3.02059-2.3477c.7763-.8379,1.9931-2.4199,1.4238-3.624-.1787-.3779-.8506-.6357-.6192-1.1621a2.75415,2.75415,0,0,1,.92581-.8731c.19439-.1035.42679-.1591.64159-.2587a5.79158,5.79158,0,0,1,.9092-.25,2.39729,2.39729,0,0,1,1.45121-.0831c.35939.1827.21679,1.0206.17669,1.3467a1.07041,1.07041,0,0,1-.6162.9053,3.88537,3.88537,0,0,0-.497.3281,1.49462,1.49462,0,0,0-.5196.6865,9.63978,9.63978,0,0,1-.3701,1.2354c-.793,1.8984-3.2207,3.4072-4.8203,4.5586a34.6148,34.6148,0,0,1-3.3818,2.2617,19.96663,19.96663,0,0,1-3.5352,1.2852c-.3437.1162-.6846.3691-1.0488.5068a2.12368,2.12368,0,0,1-.8819.21c-.1015-.3272.2618-.4522.4786-.6026a9.916,9.916,0,0,1,1.4599-.7744,49.02062,49.02062,0,0,0,5.6856-3.2734C28.37722,29.343,28.41633,29.31861,28.45533,29.29321Z"/>
   <path class="a"
         d="M22.59992.20631a1.777,1.777,0,0,1,1.3506.0048c1.0693.4825,3.6093.9278,4.0205,2.3731.0859.3047.1386.6172-.1514.7695a14.04277,14.04277,0,0,1-1.4209.4531,6.44623,6.44623,0,0,1-2.4277.4688h-2.2823a4.239,4.239,0,0,1-2.0312-.3301c-.2686-.1416-.4434-.2119-.45019-.5449A2.88019,2.88019,0,0,1,21.07552.97971,10.6943,10.6943,0,0,1,22.59992.20631Z"/>

</g>
</svg>
