<?xml version="1.0" encoding="UTF-8"?>
<svg xmlns="http://www.w3.org/2000/svg"
     version="1.1"
     width="63.90190309mm"
     height="40.24545978mm"
     viewBox="0.00000000 0.00000000 181.13922276 114.08166058">

<g transform="scale(4.29680440)">   <defs>
      <style type="text/css"><![CDATA[
      .a {
        stroke: #000;
        stroke-linecap: round;
        stroke-linejoin: round;
        stroke-width: 0.01px;
      }
    ]]></style>
   </defs>
   <path class="a"
         d="M20.98768.16025c-.08984.10547-.27344.16016-.67188.19922a1.33409,1.33409,0,0,0-.73828.19531,2.51507,2.51507,0,0,1-.41406.26954,7.68435,7.68435,0,0,1-1.33594.418.56331.56331,0,0,0-.27734.19141,2.395,2.395,0,0,1-1.0625.57031,6.04182,6.04182,0,0,0-1.47264.57809,11.28756,11.28756,0,0,1-1.87109.78515,2.81352,2.81352,0,0,0-.957.51954.32171.32171,0,0,1-.19532.09765.65859.65859,0,0,0-.28906.16016,1.09032,1.09032,0,0,1-.35156.18359,1.0282,1.0282,0,0,0-.31641.14453.7462.7462,0,0,1-.39453.1211c-.57031.00781-1.37109.582-1.32422.94531.03125.26953-.082.35156-.6875.51953-.49609.13672-.58984.19141-.69531.39453a1.44267,1.44267,0,0,1-.76562.80078,4.82564,4.82564,0,0,0-.97657.76172,5.9927,5.9927,0,0,1-.76562.66406c-.07422.02344-.13281.07032-.13281.10547,0,.03907-.1211.13672-.26172.23047-.14063.08985-.2461.19141-.22266.22656.05078.09375-.08594.39063-.51172,1.12891a3.38126,3.38126,0,0,1-.48437.69531,1.17736,1.17736,0,0,0-.3086.36328,2.35385,2.35385,0,0,1-.45312.51954,1.1455,1.1455,0,0,0-.51563.85546.94275.94275,0,0,1-.23437.34766.88574.88574,0,0,0-.22266.42969.54354.54354,0,0,1-.15234.3125c-.08594.08984-.13281.1875-.11719.21875.02344.03906-.05859.19922-.17969.35156a.998.998,0,0,0-.22656.46484,2.3702,2.3702,0,0,1-.2539.67188,1.88114,1.88114,0,0,0-.21485.5c.02344,0-.01562.09375-.08984.19922-.06641.10547-.10547.21484-.082.23828.02343.01953.00781.10547-.03907.1875a1.40064,1.40064,0,0,0-.10937.42969,13.93462,13.93462,0,0,1-.547,2.01953,1.2479,1.2479,0,0,0-.04687.57031A8.92374,8.92374,0,0,1,.09311,20.7501a10.3093,10.3093,0,0,0,.15234,1.67968,2.119,2.119,0,0,0,.84375.92188,2.88745,2.88745,0,0,0,.5.11328,2.995,2.995,0,0,1,.71094.19141,5.75775,5.75775,0,0,0,.67969.21093,1.64476,1.64476,0,0,1,.5039.23829c.22266.168.26953.17578,1.03907.12109a4.05166,4.05166,0,0,0,1.668-.27344,6.05119,6.05119,0,0,1,1.375-.40625.82728.82728,0,0,0,.35157-.10547c.10546-.10547.17187-.55468.07421-.55468-.043,0-.14843-.13672-.23046-.30469-.1211-.23828-.19532-.30469-.35938-.3125-.11328-.00781-.26953-.02344-.35156-.03906a3.26125,3.26125,0,0,0-.38281-.0625,2.5479,2.5479,0,0,1-1.17969-.57032c-.23438-.25-.293-.43359-.31641-1.01172a3.16486,3.16486,0,0,0-.05859-.57421,7.50742,7.50742,0,0,1-.20313-1.58594c.00782-.168.03125-.61719.04688-.98828a2.91175,2.91175,0,0,1,.21484-1.12891,2.78376,2.78376,0,0,0,.19532-.54687,3.3807,3.3807,0,0,1,.293-.71094c.44141-.89844.47657-1.01953.46094-1.38672a1.038,1.038,0,0,1,.25-.72266c.14063-.21484.34375-.53515.44922-.72656a1.63868,1.63868,0,0,1,.4375-.51562c.25-.168.30078-.17579,1.39844-.13282a7.4721,7.4721,0,0,1,1.25781.10938.56742.56742,0,0,0,.1875.0664,1.08944,1.08944,0,0,1,.26172.07813,4.19341,4.19341,0,0,0,1.97265.3125,4.7927,4.7927,0,0,1,1.85547.08984,6.72177,6.72177,0,0,0,1.9062.03122,13.5858,13.5858,0,0,1,1.94532-.03125.83359.83359,0,0,0,.67187-.17578c.26952-.1875.30859-.19531.457-.09765.28516.1914.5625.15234,1.19532-.13671a3.65411,3.65411,0,0,1,.77343-.28125.68272.68272,0,0,0,.32813-.10938,1.35741,1.35741,0,0,1,.53906-.12109c.207,0,.52344,0,.71094-.00781a2.45192,2.45192,0,0,0,.6875-.1211,1.195,1.195,0,0,1,.47656-.07031.68486.68486,0,0,0,.35938-.01953,8.78463,8.78463,0,0,1,1.61718-.28516,2.31509,2.31509,0,0,0,1.1875-.34765.62378.62378,0,0,1,.25391-.13672,4.09762,4.09762,0,0,0,1.0859-.56641,1.7383,1.7383,0,0,1,.672-.24219,6.29815,6.29815,0,0,0,1.53516-.39843,2.84473,2.84473,0,0,1,.85937-.32032.62637.62637,0,0,0,.28907-.15234.77754.77754,0,0,1,.3984-.15234c.11328,0,.22266-.043.2461-.10547a2.51921,2.51921,0,0,1,1.09765-.38672,1.65537,1.65537,0,0,0,.53907-.23827c.24609-.17578.30859-.19141.53125-.11328a1.06617,1.06617,0,0,1,.55468.92187,2.0345,2.0345,0,0,0,.13282.457.34835.34835,0,0,1,.03125.32813.344.344,0,0,0,.03125.33592.72384.72384,0,0,1,.07421.332c-.01562.07031.082.23046.207.35937a1.27129,1.27129,0,0,1,.2539,1.23438,1.06326,1.06326,0,0,0-.03515.30468,3.66976,3.66976,0,0,1,0,.42188,4.17428,4.17428,0,0,0,.03125,1.17969c.01953.10546.05859.60156.07421,1.10546a6.36387,6.36387,0,0,0,.082,1.05079.78336.78336,0,0,1-.07032.43359.67014.67014,0,0,0-.043.50391.45374.45374,0,0,1,.03907.26562.44041.44041,0,0,0,.07422.29688c.09765.19141.10546.30078.02734.70312a5.22792,5.22792,0,0,0-.03516,1.69922,6.55816,6.55816,0,0,1-.00781,1.957A2.1944,2.1944,0,0,0,35.9915,22.582a4.198,4.198,0,0,1,.043.92187c-.01562.67578.00782.85938.11329,1.02735a.88.88,0,0,1,.12109.48047.993.993,0,0,0,.8125.90625,4.75941,4.75941,0,0,1,.82422.33593,1.53981,1.53981,0,0,0,1.60546.1211,2.20909,2.20909,0,0,1,.94531-.1836,1.52366,1.52366,0,0,0,.83594-.17187c.293-.18359.35156-.36718.38281-1.07422.01562-.27734.05078-.71875.082-.99219a6.3306,6.3306,0,0,0,.01572-1.28113c-.00782-.11327-.00782-.42577.00389-.69922.00781-.27734.00781-.5664,0-.64843-.01171-.25391.08986-3.40625.12892-3.77344.01562-.19141.082-.67188.14062-1.06641a7.77452,7.77452,0,0,0,.10546-.83984c0-.0586-.0078-.75391-.01562-1.539a10.6544,10.6544,0,0,0-.06641-1.46875.18672.18672,0,0,1,.01563-.18361.845.845,0,0,0-.00782-.46484,7.67123,7.67123,0,0,1-.17968-1.64062A8.9417,8.9417,0,0,0,41.808,9.3126a1.05593,1.05593,0,0,1-.01562-.46485,1.51533,1.51533,0,0,0-.00782-1.1289,3.519,3.519,0,0,0-.17968-.44141c-.01953-.01562.01562-.13672.07812-.26562a.72445.72445,0,0,0,.082-.40625.51789.51789,0,0,1,.02735-.2656.24124.24124,0,0,0-.00782-.21875.2649.2649,0,0,1,0-.23047.15944.15944,0,0,0-.03515-.19922.659.659,0,0,1-.09766-.37109,2.29137,2.29137,0,0,0-.23828-.76953c-.21875-.45313-.22656-.51172-.12891-.66406a.24029.24029,0,0,0,.01563-.32032,1.18575,1.18575,0,0,1-.04688-.64062c.05469-.46485.04688-.4961-.17578-.76953a1.12671,1.12671,0,0,0-1.02734-.50391,2.64889,2.64889,0,0,1-.5.05469.99049.99049,0,0,0-.49219.14453,1.02962,1.02962,0,0,1-.35937.15234,2.73547,2.73547,0,0,0-1.2422.875,2.70483,2.70483,0,0,1-.77734.82422,3.41013,3.41013,0,0,0-.336.25,5.30555,5.30555,0,0,1-1.17579.832,4.14442,4.14442,0,0,0-.66407.375,3.05888,3.05888,0,0,1-.64453.30469,5.1895,5.1895,0,0,0-.60547.23438,1.89211,1.89211,0,0,1-.98046.12109,2.06086,2.06086,0,0,0-.97266.11719.37244.37244,0,0,1-.41016.03515c-.10547-.043-.21093-.0664-.24609-.043-.03125.01562-.582.05078-1.21875.0664a6.9596,6.9596,0,0,0-1.30859.11719,2.0873,2.0873,0,0,1-.53125.11328c-.31641.03125-.418.00781-.53125-.10547-.14063-.14844-.13282-.38281.01562-.38281.03516,0,.10547-.09766.14063-.23047a.50184.50184,0,0,1,.20312-.26562c.125-.04688.35938-.32032,1.04688-1.21875.1875-.25.36718-.47266.39453-.4961a.59781.59781,0,0,0,.09765-.19141,1.04571,1.04571,0,0,1,.33594-.34765,1.733,1.733,0,0,0,.61328-1.14453c.03906-.5625.00781-.625-.42578-.89844C29.10482.7149,29.02669.69146,28.804.76959a1.06919,1.06919,0,0,1-.38282.04687,1.50147,1.50147,0,0,0-.53906.06641,1.03982,1.03982,0,0,1-.89453-.07422,4.46575,4.46575,0,0,0-1.8125-.21484,8.38452,8.38452,0,0,1-1.47267-.1054,2.36642,2.36642,0,0,0-.62109-.13672.90018.90018,0,0,1-.582-.19141A1.9174,1.9174,0,0,0,20.98768.16025Zm.9375,5.76954a.25289.25289,0,0,1-.07422.21875.206.206,0,0,1-.35937-.06641.239.239,0,0,1,.07421-.22266.2071.2071,0,0,1,.35938.07032Z"/>

</g>
</svg>
