<?xml version="1.0" encoding="UTF-8"?>
<svg xmlns="http://www.w3.org/2000/svg"
     version="1.1"
     width="42.18937378mm"
     height="56.52758177mm"
     viewBox="0.00000000 0.00000000 119.59189389 160.23575910">

<g transform="scale(7.34208348)">   <defs>
      <style type="text/css"><![CDATA[
      .a {
        stroke: #000;
        stroke-miterlimit: 10;
        stroke-width: 0.15px;
      }
    ]]></style>
   </defs>
   <path class="a"
         d="M6.59829,2.27937a.666.666,0,0,0-.30706.10045.66488.66488,0,0,0-.16626.22191L5.38578,3.94732a1.06108,1.06108,0,0,0-.15509.40717,1.94465,1.94465,0,0,1-.02042.3451c-.14546.38807-1.69719-.04285-1.87917.34142-.05285.1116.08976.3244.375.75a7.52771,7.52771,0,0,0,.71875.90625,5.51447,5.51447,0,0,0,.68526.66459c.39562.31308.64607.37906.80438.50931.65372.53778.59518,1.53515.50531,2.37686a39.36256,39.36256,0,0,0-.16975,6.21072,2.75471,2.75471,0,0,0,.18922,1.022c.12094.26166.31837.48063.45457.73469a5.96635,5.96635,0,0,1,.34688,2.15924,2.01326,2.01326,0,0,0,.30977.92962.97962.97962,0,0,0,.83662.443c.59762-.04443.91088-.71758,1.39365-1.07263.2324-.17091.51029-.26883.75354-.4239a.88852.88852,0,0,0,.46585-.68647c.00473-.501-.62413-.84367-.60288-1.34424.00745-.17538.09744-.33992.10085-.51542a1.10144,1.10144,0,0,0-.16306-.50393,7.90548,7.90548,0,0,1-.82966-2.37052,10.55984,10.55984,0,0,1,.066-2.745l.56661-5.0793a1.90329,1.90329,0,0,0-.03755-.86829c-.15732-.42738-.39314-.4604-.74147-1.04689-.29429-.49549-.23518-.66916-.44553-.76915-.40707-.1935-.84981.35167-1.14485.157-.21228-.14-.22243-.58015-.10882-.87808.1233-.32335.33142-.31936.71821-.854.15471-.21384.35452-.49562.2622-.64153-.048-.07577-.1574-.09958-.29468-.093A17.42778,17.42778,0,0,0,6.59829,2.27937Z"/>
   <path class="a"
         d="M3.78305,1.68413A12.918,12.918,0,0,0,2.14993,3.63345,3.89317,3.89317,0,0,0,1.05534,5.53133a1.02268,1.02268,0,0,0,.139.83648A1.14689,1.14689,0,0,0,2.314,6.65418a9.60693,9.60693,0,0,1,1.18254-.27285A3.20076,3.20076,0,0,0,4.638,6.30425a2.88886,2.88886,0,0,0,.32131-.1962c.4469-.27871.99745-.35742,1.4387-.645.79611-.51885,1.04048-1.56181,1.62753-2.309a8.45512,8.45512,0,0,0,.64484-.79234.99079.99079,0,0,0,.094-.97093,1.34954,1.34954,0,0,0-.35022-.366L7.77293.50489A1.97976,1.97976,0,0,0,7.08374.10972C6.74285.00629,6.39825.10919,5.27576.7589A13.29906,13.29906,0,0,0,3.78305,1.68413Z"/>
   <path class="a"
         d="M3.66554,11.16649a.70132.70132,0,0,0-.33431.38557.79439.79439,0,0,0,.017.39775c.11159.50339-.03063,1.10343-.18533,1.13529-.1787.03681-.321-.69548-.74631-.74059-.11419-.0121-.20328.03015-.39348.14325a7.5443,7.5443,0,0,0-1.16067.83443c-.55533.51344-.833.77012-.78132.87507.11707.23791,1.23392-.42687,2.01483.08747a1.56924,1.56924,0,0,0,.58034.3248,1.23091,1.23091,0,0,0,.80386-.19795L4.75276,13.761c.19614-.10026.365-.15417.45061-.32854a.67934.67934,0,0,0-.00163-.51683c1.23566-.19767,2.30807-.43886,3.18808-.66795a14.0627,14.0627,0,0,0,3.68484-1.1902,1.6264,1.6264,0,0,1,.89634-.36739,1.53771,1.53771,0,0,1,.45908.05183,2.437,2.437,0,0,0,2.151-.91968,2.95958,2.95958,0,0,0,.53125-1.375c.10405-.47971.175-.83214-.03125-1.125a.99882.99882,0,0,0-.6776-.36962,1.58184,1.58184,0,0,0-.92325.27309c-1.00745.4901-1.73708.58805-1.71165.72153.018.09455.40993.18084.69427.24344a.34272.34272,0,0,1,.21859.1016c.11141.15007-.07483.33913-.23692.4322a.72146.72146,0,0,1-.66329.12719c-.08095-.04242-.14229-.11451-.219-.16424a.87676.87676,0,0,0-.45167-.10371A10.5377,10.5377,0,0,0,6.3037,10.35246a2.20559,2.20559,0,0,1-1.22185.50533A2.25994,2.25994,0,0,0,3.66554,11.16649Z"/>

</g>
</svg>
