<?xml version="1.0" encoding="UTF-8"?>
<svg xmlns="http://www.w3.org/2000/svg"
     version="1.1"
     width="63.13471210mm"
     height="61.51667220mm"
     viewBox="0.00000000 0.00000000 178.96450786 174.37789227">

<g transform="scale(5.75896889)">   <defs>
      <style type="text/css"><![CDATA[
      .a {
        stroke: #000;
        stroke-miterlimit: 10;
        stroke-width: 0.15px;
      }
    ]]></style>
   </defs>
   <path class="a"
         d="M17.2153.21276c-.06857.039-.2023.133-.47873.28723-.61119.34094-.88282.39741-.92553.60638-.03462.16942.12751.21256.19149.44681.16219.59389-.68624,1.02586-.54255,1.5319.10736.37813.69094.52384.766.54256.33907.08466.41256-.04828.69424-.00407.763.11975.88537,1.19906,1.50789,1.21684.30646.00876.44246-.24808.77147-.157a.856.856,0,0,1,.4413.34849A2.967,2.967,0,0,1,20.523,6.9513a2.43772,2.43772,0,0,1-.43492,1.16488l-1.11667,1.8895a2.946,2.946,0,0,0-.5632,1.6113,2.90973,2.90973,0,0,0,1.38847,1.91656A68.01336,68.01336,0,0,0,25.713,17.59371a1.19607,1.19607,0,0,0,.53764.21669,1.80978,1.80978,0,0,0,.5161-.06356c.51533-.1073.52708-.15919.62941-.14047.36089.066.67362.79537.58263,1.42131a2.43852,2.43852,0,0,1-1.09641,1.44472c-2.33369,1.91449-1.68745,1.793-2.77345,2.46376-.73053.45123-2.71248,1.67546-4.14893,1.46808a1.48506,1.48506,0,0,0-.89362.06383c-.40677.18714-.46839.51373-.99218.95434a4.43606,4.43606,0,0,1-.70119.45538,4.63662,4.63662,0,0,1-2.52314.41721c-1.27576-.14735-3.50086-.99948-3.71033-2.70811a2.98387,2.98387,0,0,1,1.69627-2.87752c.10534-.01857.23941-.03035.23952-.03035a6.467,6.467,0,0,1,1.083.08722,18.25418,18.25418,0,0,0,4.58893-.00029,2.29912,2.29912,0,0,0,1.5-.60639,1.51952,1.51952,0,0,0,.41489-1.34042c-.1238-.43332-.50335-.5806-1.97958-1.2052-1.26663-.53592-2.59126-.92284-3.88687-1.38431a1.245,1.245,0,0,0-.79708-.097,2.20722,2.20722,0,0,0-.54851.38191,1.44718,1.44718,0,0,1-1.77642-.10141,4.30547,4.30547,0,0,0-.60519-.59807,1.352,1.352,0,0,0-.62864-.1797c-3.67994-.30551-5.45644-.72443-6.533.40716a1.41107,1.41107,0,0,0-.47422,1.02036c.0586.6694.90635,1.21686,1.46606,1.43407a6.18021,6.18021,0,0,1,.85025.31448,1.82546,1.82546,0,0,1,.80684.58215c.17426.27706.14733.55124.09574,1.14894-.045.52108-.04327,1.04767-.12765,1.56383a7.17877,7.17877,0,0,0,2.008,5.49263,8.0223,8.0223,0,0,0,2.91653,1.72862,13.45735,13.45735,0,0,0,2.286.71772,8.47923,8.47923,0,0,0,5.77845-.92617c1.64157-.92892,1.64452-1.22715,2.68252-1.31584,1.40876-.12034,2.39148.654,3.41362.04772a2.204,2.204,0,0,0,.74126-.78869c2.10992-3.27322,3.14824-4.44052,4.29559-7.462a3.27791,3.27791,0,0,0,.255-2.1877,3.40068,3.40068,0,0,0-1.30245-1.59349,18.27638,18.27638,0,0,0-4.46809-2.29788c-.4492-.1769-1.14362-.4395-1.24468-.95745-.086-.44078.28687-.917.04722-1.18426-.09585-.10689-.17511-.0526-.35177-.18118a.91859.91859,0,0,1-.38147-.78078A1.00071,1.00071,0,0,1,24.1123,9.624c.41945-.03175.593.27373.85831.19513.40728-.12065.48809-.98567.51867-1.34943a22.85292,22.85292,0,0,0,.21538-4.17186c-.32543-.79882-1.47155-1.44876-3.76379-2.74862C21.94079,1.54918,18.398-.45985,17.2153.21276Z"/>
   <path class="a"
         d="M1.76849,8.95743C1.25331,9.06008.13172,9.30725.077,9.78722c-.03663.32124.43791.45543.79787,1.24467.23305.511.14021.68732.35107.92554.42807.48364,1.32638.33951,1.62381.29462,3.96256-.59818,8.63643.20825,11.557-.55a1.75755,1.75755,0,0,1,1.02329-.03639c.74258.23436.767.94432,1.46606,1.12151.56248.14256.76438-.2619,1.24469-.03192.38291.18335.46.53877.89361.60638a.58885.58885,0,0,0,.46407-.0647c.34869-.29358-.33955-1.07862-.04917-1.81828.27525-.70113,1.16968-.69882,1.21276-1.3085a.77811.77811,0,0,0-.25531-.60639c-.40677-.36631-1.1088-.097-1.65958,0-1.70077.29955-2.30886-.98231-4.65958-1.24467a16.09676,16.09676,0,0,0-2.32337.12117c-.7741.04358-3.09308.17412-5.71918.16606A20.07569,20.07569,0,0,0,1.76849,8.95743Z"/>

</g>
</svg>
