<?xml version="1.0" encoding="UTF-8"?>
<svg xmlns="http://www.w3.org/2000/svg"
     version="1.1"
     width="71.13952208mm"
     height="34.01403136mm"
     viewBox="0.00000000 0.00000000 201.65540648 96.41767800">

<g transform="scale(7.54256607)">   <defs>
      <style type="text/css"><![CDATA[
      .a {
        stroke: #000;
        stroke-miterlimit: 10;
        stroke-width: 0.15px;
      }
    ]]></style>
   </defs>
   <path class="a"
         d="M2.04473,6.943A10.28147,10.28147,0,0,1,.87452,8.60258a3.47044,3.47044,0,0,0-.59574.80851c-.27787.51652-.20117.69041-.17022.74468.05408.09485.14817.13962.46808.234a5.41368,5.41368,0,0,0,.85107.21277,27.50754,27.50754,0,0,0,3.21822.15087c.75322-.01258,1.12983-.01886,1.42683-.03356a17.43364,17.43364,0,0,0,3.53663-.69806.93028.93028,0,0,0,.64811-.44053.71931.71931,0,0,0-.07035-.6225.8081.8081,0,0,0-.37646-.31367c-.7439-.33467-1.41032.31142-2.383.06383-.324-.08249-.19754-.14082-.617-.2766-.66283-.21453-1.23573-.15208-2.2766-.3617-.15108-.03043-.336-.07142-.40426-.21277-.10179-.21088.11974-.51364.29788-.74468.61482-.79738,1.23187-1.41355,1.766-2.0851.42477-.5341.55977-.80487.46808-.95745-.06455-.10741-.19007-.07082-.45666-.14729-.59075-.16947-.63358-.53826-1.18164-.70377a1.18837,1.18837,0,0,0-.74467-.02128c-.44209.16159-.61625.66331-.766,1.04255A14.87422,14.87422,0,0,1,2.04473,6.943Z"/>
   <path class="a"
         d="M17.51282,5.30471c.02777.13119.138.42743.3617.48935a.57049.57049,0,0,0,.44681-.12765c.76638-.53035,3.03011-1.70809,3.68085-2.02128,1.0609-.51058,2.0842-.76849,2.04256-1.08511-.0152-.11557-.1579-.12959-.35685-.4218a1.25324,1.25324,0,0,1-.27232-.70671c.00307-.33246.20937-.42926.13069-.70266C23.53888.70319,23.47395.48743,23.32409.45c-.09167-.02288-.125.04346-.21553.02489-.16046-.033-.14265-.25947-.31915-.34043-.08023-.0368-.07762.01289-.40425.02127C22.202.16046,22.14.14641,22.066.19832a.37748.37748,0,0,0-.12941.1985.57708.57708,0,0,0-.01953.26959c.01974.14375.07029.17362.04437.22771-.02649.05528-.09424.05525-.28218.11069-.07593.02239-.14949.05224-.225.07611A21.9639,21.9639,0,0,0,18.85324,3.56C18.00054,4.45846,17.40957,4.817,17.51282,5.30471Z"/>
   <path class="a"
         d="M23.40643,10.56a10.51041,10.51041,0,0,1-2.77454.136c-1.43524-.04454-1.54642-.27557-5.034-1.17854a1.69893,1.69893,0,0,1-1.04255-.617c-.17076-.25358-.09186-.3569-.287-.75714a3.61671,3.61671,0,0,0-.77185-.97841c-.35351-.36121-.62075-.57674-.76064-.698a13.03889,13.03889,0,0,1-2.56347-3.73668c-.02169-.04939-.09033-.20846-.19149-.21276-.26056-.01108-.37382,1.02008-.61626,1.02089-.21247.0007-.52995-.78991-.53942-1.556a1.77646,1.77646,0,0,0-.0999-.83249A1.66648,1.66648,0,0,0,8.27878.60257,1.81173,1.81173,0,0,0,7.449.09194a1.70122,1.70122,0,0,0-.93617.14893,6.55463,6.55463,0,0,0-1.51064.85107c-.8858.59653-.99966.753-1.06384.93617A1.56029,1.56029,0,0,0,4.033,3.04363a9.301,9.301,0,0,0,1.55964,2.525c.44938.63641.35048.534.62228.9063A18.08481,18.08481,0,0,0,8.55537,9.07066a12.50966,12.50966,0,0,0,2.74468,2.12766,8.92856,8.92856,0,0,0,4.91489,1.17021c.65311-.05721,1.41784-.21827,2.84644-.27154a7.06556,7.06556,0,0,1,1.74471.11539c.79448.15953.81012.31845,1.3663.43275,1.35782.279,2.51465-.41123,3.89362-1.234.37249-.22228.6181-.40131.59286-.5781-.05548-.38863-1.37922-.48158-1.44392-.48574A5.83835,5.83835,0,0,0,23.40643,10.56Z"/>

</g>
</svg>
