<?xml version="1.0" encoding="UTF-8"?>
<svg xmlns="http://www.w3.org/2000/svg"
     version="1.1"
     width="21.16535860mm"
     height="64.45027612mm"
     viewBox="0.00000000 0.00000000 59.99632816 182.69364308">

<g transform="scale(4.67561906)">   <defs>
      <style type="text/css"><![CDATA[
      .a {
        stroke: #000;
        stroke-linecap: round;
        stroke-linejoin: round;
        stroke-width: 0.01px;
      }
    ]]></style>
   </defs>
   <path class="a"
         d="M5.9825.03339c0,.103-.19382.25439-.27862.22411-.06057-.02423-.08483.01817-.08483.11508a.443.443,0,0,1-.115.2665c-.06663.06663-.103.13325-.0848.14537.0424.04845-.15748.40581-.23016.40581-.0424,0-.05451.05451-.03634.1272a.86368.86368,0,0,1-.38159.7026.303.303,0,0,0-.1817.24227A.4633.4633,0,0,1,4.438,2.5349c-.07874.07874-.1817.16959-.2241.212-.15142.14536-.26045.29073-.24228.33918a.39064.39064,0,0,1-.05451.17565.60825.60825,0,0,0,.04846.69049c.16352.19382.16959.23017.04238.35736a1.14657,1.14657,0,0,0-.07268.7874c.0303.03028.109.12719.17566.212.17565.20594.30285.46033.25439.50878-.01817.01817.04846.06663.15142.103a.38547.38547,0,0,1,.22411.17565.78446.78446,0,0,0,.15142.24228c.14537.16353.14537.20593.0424.315a1.05029,1.05029,0,0,0-.04845.8298c.07268.1272.04239.16959-.27257.41793a1.487,1.487,0,0,0-.38163.46633.81587.81587,0,0,1-.22411.315.48971.48971,0,0,0-.17565.19988.56373.56373,0,0,1-.2665.23622.38059.38059,0,0,0-.212.2241c-.02423.07874-.06057.14537-.0848.14537a1.66319,1.66319,0,0,0-.33313.27256,1.87061,1.87061,0,0,1-.33313.27256.6002.6002,0,0,0-.12719.27862,1.83431,1.83431,0,0,1-.5633.76317,2.654,2.654,0,0,0-.47244.56935.39467.39467,0,0,1-.12113.20593,3.067,3.067,0,0,0-.315.4361A3.44988,3.44988,0,0,1,.616,12.8014c-.17565.17565-.18776.2241-.16959.49666.01211.19383-.00606.33313-.06057.38159a.28452.28452,0,0,0-.07874.109c-.00606.01818-.02423.09692-.0424.18171a4.2123,4.2123,0,0,0-.06662.51484c-.03634.55723-.06663.70866-.15143.75711-.05451.03634-.05451.05452-.006.06663a.17634.17634,0,0,1,.09085.11508.74858.74858,0,0,0,.0848.22411.55738.55738,0,0,1,.07268.23016.53439.53439,0,0,0,.16959.26045,1.32976,1.32976,0,0,1,.29074.55117c.09085.30285.14536.3937.2665.4361a.57146.57146,0,0,1,.25439.24228c.07268.12114.14537.17565.212.16354a.69585.69585,0,0,1,.3513.09691,1.6126,1.6126,0,0,0,.45427.1393c.11508.01212.29679.03635.3937.04846.103.01211.19988.02423.218.02423a.88583.88583,0,0,1,.18776.44821.927.927,0,0,0,.103.27256.47768.47768,0,0,1,.07268.3089.47628.47628,0,0,0-.006.28468.5616.5616,0,0,1,.01817.23016c-.01817.01817.01211.07268.06057.12719.07874.07874.08479.12114.03028.24834-.06057.13325-.05451.16959.01817.23016a.3798.3798,0,0,1,.1696.46638.53926.53926,0,0,0-.03635.29679.38306.38306,0,0,1-.06056.30285c-.07269.103-.07874.15142-.03029.16959.15748.04846.24833.20594.315.53907a1.23427,1.23427,0,0,0,.16354.43c.06057.06056.07874.18776.06057.44215a.86061.86061,0,0,0,.03634.41187,3.14587,3.14587,0,0,1,.15748,1.23561.58034.58034,0,0,0-.00606.37553A.63115.63115,0,0,1,4.1594,25a.16365.16365,0,0,0-.01212.1393.8314.8314,0,0,1,.05452.30285c.01211.13931.02422.27256.02422.3089a1.41837,1.41837,0,0,1-.0424.27256,2.2516,2.2516,0,0,0,.03029.99939.3999.3999,0,0,1-.02423.38765.3639.3639,0,0,0-.06057.2665.46123.46123,0,0,1-.06662.29073.27662.27662,0,0,0-.03029.32707c.06057.13931.05451.17565-.06662.29679s-.13326.15748-.06663.315c.16354.41187.19988.58752.14537.69655-.07269.13325-.07874.35735-.00606.35735.09085,0,.12114.16354.06057.35736-.03029.103-.07874.27256-.11508.38159a.52922.52922,0,0,0,.06662.46032c.1272.25439.1272.27862.03634.59964-.08479.29073-.08479.34524-.01211.424.07874.07874.13325.23016.23622.69655a1.28365,1.28365,0,0,1,.03633.19987,1.11726,1.11726,0,0,0,.09691.218.647.647,0,0,1,.06663.3089,2.07064,2.07064,0,0,0,.01817.4906,5.071,5.071,0,0,1,.06662,1.50818c-.04845.12114-.03028.23622.05452.4785a1.12852,1.12852,0,0,1,.09691.34524c-.01817.01212.01211.109.05451.212a.41118.41118,0,0,1,.00606.37552c-.06056.14537-.06056.19988.00606.26045a.14745.14745,0,0,1,.04239.14537c-.01816.03028.01817.11508.0848.18776a1.60762,1.60762,0,0,1,.218.36947,2.09418,2.09418,0,0,0,.47244.5754c.51484.46639.66626.55724.87826.49667a4.78632,4.78632,0,0,1,.77528-.03028,3.27571,3.27571,0,0,0,.69655-.03634,1.74968,1.74968,0,0,1,.44215-.0848.72184.72184,0,0,0,.55724-.23016.54209.54209,0,0,0,.212-.35737.43432.43432,0,0,1,.09085-.26044.15419.15419,0,0,0,.03634-.212.301.301,0,0,1-.03028-.212c.03634-.08479-.16959-.24833-.23622-.1817-.0424.04239-.40581-.14537-.41187-.218a2.90092,2.90092,0,0,0-.4361-.86614.66574.66574,0,0,1-.13325-.40581c0-.13326-.01817-.24228-.0424-.24228-.01817,0-.06057-.06057-.07874-.13931a.81835.81835,0,0,0-.16959-.2665.98854.98854,0,0,1-.16354-.41793c-.03634-.23622-.02423-.29679.07874-.3937a.57271.57271,0,0,1,.16354-.11508c.06662,0,.03634-.27256-.0424-.3513-.103-.109-.09691-.17565.03028-.30285a.64217.64217,0,0,0,.109-.43608c.00606-.18171.01211-.38765.02423-.45427a2.00469,2.00469,0,0,0-.07874-.45427c-.07874-.29073-.07874-.3513-.00606-.50272a1.2766,1.2766,0,0,0,.09085-.48456c-.00605-.17565-.00605-.45427,0-.6178a1.5062,1.5062,0,0,0-.09085-.68443,1.14016,1.14016,0,0,1-.109-.45427c.006-.05451-.01817-.103-.04846-.103-.09691,0-.11508-.19382-.03634-.424.05451-.15748.06057-.25439.01817-.29679a.40869.40869,0,0,1-.07268-.20594,1.06354,1.06354,0,0,0-.0848-.27861.23069.23069,0,0,1-.00606-.24834c.04846-.08479.0424-.17565-.02422-.32707a1.61861,1.61861,0,0,1,.13323-1.1568,1.20828,1.20828,0,0,0,.09691-.28468.28988.28988,0,0,1,.17565-.20593A1.15666,1.15666,0,0,0,8.2175,25.957a.51848.51848,0,0,1,.28467-.11508c.07874,0,.14536-.02423.14536-.05452s.09085-.09085.20593-.12719a1.53009,1.53009,0,0,0,.38159-.19988,6.23857,6.23857,0,0,1,.89642-.55118c.29072-.06057.50877-.18171.539-.30284a1.08931,1.08931,0,0,1,.72079-.50273.51133.51133,0,0,0,.38158-.2665.7811.7811,0,0,1,.20594-.23622,1.26993,1.26993,0,0,0,.27256-.56329.78254.78254,0,0,1,.218-.29679c.103-.0848.16959-.18777.14536-.22411a.47121.47121,0,0,1,.0848-.28467.87314.87314,0,0,0,.12719-.27256c0-.07874-.19987-.26651-.33313-.321a1.41929,1.41929,0,0,0-.9267.36947,1.196,1.196,0,0,1-.315.23016.26669.26669,0,0,0-.14537.18171c-.02423.0848-.06662.15142-.103.15142s-.04846.02423-.03029.05452c.07268.11508-.0424.24833-.29679.34524a.62313.62313,0,0,0-.29073.17565.75327.75327,0,0,1-.33313.16959,1.67883,1.67883,0,0,0-.55118.34525c-.212.20593-.27256.23622-.36947.18171-.103-.05452-.13325-.0424-.18776.103-.06057.16354-.38159.50273-.47244.50273a.58643.58643,0,0,0-.15748.24833.53442.53442,0,0,1-.49061.38158c-.22411.04846-.41187-.09085-.35736-.27256a.45681.45681,0,0,0-.05451-.27861,1.88778,1.88778,0,0,1,.01226-1.08425c.03634-.07268.05451-.14537.03634-.16354s-.00605-.08479.02423-.14536a.20563.20563,0,0,0,.00606-.212.93649.93649,0,0,1-.05452-.59358.19081.19081,0,0,0-.03028-.19988.28054.28054,0,0,1-.01817-.29679.41968.41968,0,0,0,.00606-.3089.841.841,0,0,1-.01817-.35736.72376.72376,0,0,0-.103-.50878c-.13325-.26045-.13931-.50878-.01817-.50878.03028,0,.0424-.12114.03028-.26045a.61988.61988,0,0,1,.05451-.38158.28873.28873,0,0,0-.103-.3937,1.22074,1.22074,0,0,1,0-.86008.30875.30875,0,0,0,.02422-.32708.26641.26641,0,0,1-.00605-.26044c.103-.19382.07268-.47244-.05451-.51484-.1696-.04846-.19988-.18776-.09692-.4361.07874-.18171.07874-.23016.00606-.33313a.266.266,0,0,1-.05451-.20593c.01817-.04846.00606-.0848-.03028-.0848s-.09086-.07268-.12114-.16959c-.03029-.09086-.07874-.20594-.09691-.26045-.03029-.06057.09085-.25439.3513-.56935a1.84979,1.84979,0,0,0,.36341-.52695c-.01817-.02423.09691-.16959.24834-.321.15747-.14536.2665-.2968.24833-.32708-.02423-.03028,0-.09085.0424-.13931a3.47292,3.47292,0,0,0,.55723-.83584.54214.54214,0,0,1,.14537-.23623c.11508-.11508.12719-.17564.09691-.37553a.50525.50525,0,0,1,.05451-.38764,1.77828,1.77828,0,0,0,.24833-.70259c-.01817-.01818.0424-.14538.1272-.26651a.4228.4228,0,0,0,.05451-.5209c-.02423-.06663.01212-.14536.09691-.23017.109-.103.12114-.1393.06057-.212a.91436.91436,0,0,1-.12719-.315c-.03635-.16959-.03029-.23623.04845-.315a.36178.36178,0,0,0,.09691-.25439,1.03586,1.03586,0,0,1,.07268-.33313.32332.32332,0,0,0,.01212-.29678.4271.4271,0,0,1,.01211-.34525.8465.8465,0,0,0,.03634-.39975,1.35853,1.35853,0,0,1-.04239-.27862c0-.05451-.02423-.103-.04846-.103a.62294.62294,0,0,1-.212-.15142c-.13325-.1272-.15142-.1696-.09691-.27256a.24632.24632,0,0,0,.01211-.22411.34519.34519,0,0,1-.03022-.20582c.02422-.07874-.03029-.14537-.18171-.23622A.73821.73821,0,0,1,8.7081,5.6542c0-.07268-.03029-.103-.0848-.08479a.94624.94624,0,0,1-.527-.27256c-.02423-.0424-.0848-.03634-.1696.01211-.28467.15142-.47849-.0848-.50878-.60569a1.28624,1.28624,0,0,0-.09687-.41187c-.06057-.109-.05451-.16354.03029-.3089.09691-.1696.09691-.18171,0-.28468a.24834.24834,0,0,1-.06663-.24833A.42293.42293,0,0,0,7.25445,3.189a1.06752,1.06752,0,0,1-.07874-.28467,1.0808,1.0808,0,0,0-.09691-.30891.34226.34226,0,0,1-.0424-.23016.446.446,0,0,0-.03029-.25439,1.73879,1.73879,0,0,1-.08479-.46638A2.24056,2.24056,0,0,0,6.776,1.05091,1.49548,1.49548,0,0,1,6.64876.59668.81386.81386,0,0,0,6.14.01522C6.05518-.00295,5.9825.00311,5.9825.03339Zm-.90245,10.4724c.15142.09085.36947.218.47849.28467.27862.1696.60569.49061.60569.6057a.35931.35931,0,0,1-.103.19382c-.103.103-.103.11508.03028.24227a.45335.45335,0,0,1,.13325.19382c0,.09691-.18776.25439-.25439.212-.03634-.02423-.03634.00605.00606.07874.03634.06662.04845.1393.02423.15748-.01817.01817.01211.07873.06662.13325a.152.152,0,0,1,.04013.21118l-.00984.01292a.27309.27309,0,0,0,0,.27256.49676.49676,0,0,1-.218.55724c-.09085.04845-.109.14537-.11508.533-.00606.65414-.00606.6602-.17565.83585a.93722.93722,0,0,1-.17565.15142,3.11387,3.11387,0,0,1-.95094-.533,1.98447,1.98447,0,0,0-.37553-.315,1.79388,1.79388,0,0,1-.41792-.45427,3.29716,3.29716,0,0,0-.33313-.4361.32378.32378,0,0,1-.103-.36341,3.10979,3.10979,0,0,0,.03028-.33919c0-.05451-.00605-.13931-.00605-.18171a2.00687,2.00687,0,0,1,.01815-.224.53483.53483,0,0,0-.02423-.24834.21492.21492,0,0,1,.03634-.212.49827.49827,0,0,0,.09086-.24833.34425.34425,0,0,1,.09691-.22411c.04845-.05451.07874-.12114.05451-.15748-.01817-.03028.03634-.12114.12719-.19382.09086-.07874.25439-.23016.36947-.33919.109-.109.22411-.1817.26045-.16353.03029.01817.14537-.02423.25439-.09086a.81185.81185,0,0,1,.23016-.11508A2.00543,2.00543,0,0,1,5.08005,10.50579Z"/>

</g>
</svg>
