<?xml version="1.0" encoding="UTF-8"?>
<svg xmlns="http://www.w3.org/2000/svg"
     version="1.1"
     width="28.60736320mm"
     height="24.44013072mm"
     viewBox="0.00000000 0.00000000 81.09172380 69.27907080">

<g transform="scale(3.27041836)">   <defs>
      <style type="text/css"><![CDATA[
      .a {
        stroke: #000;
        stroke-miterlimit: 10;
        stroke-width: 0.15px;
      }
    ]]></style>
   </defs>
   <path class="a"
         d="M7.24946,1.17754a.72993.72993,0,0,1,.2695.2583,3.03623,3.03623,0,0,1,.2207,1.0952,9.87881,9.87881,0,0,1,.01371,1.2329c0,.9551.01069,1.9111,0,2.8667a3.16545,3.16545,0,0,0,.33149,1.1377c.1622.4653.4722.8897.6109,1.3609a6.04153,6.04153,0,0,1,.05761,1.5922V12.885A3.57089,3.57089,0,0,1,7.25,15.89144c-.39359.2641-.7529.5693-1.1528.8574a2.68992,2.68992,0,0,1-1.4834.4658,2.316,2.316,0,0,1-1.4249-.1357,7.223,7.223,0,0,1-.6308-.5074c-.145-.12741-.36669-.2202-.395-.4248-.6802.0991-.3809-3.0517-.34869-3.4594.05329-.6724.064-1.3477.064-2.03321,0-.315.02539-.63969.00149-.95319a7.90253,7.90253,0,0,0-.2359-.9341c-.0639-.32271-.0703-.65671-.1255-.9692-.0669-.3794-.1933-.7349-.2788-1.1089-.124-.542-.2807-1.0713-.3579-1.6128a4.53386,4.53386,0,0,1-.0171-1.4214,1.19036,1.19036,0,0,1,.6309-.91741c.2715-.17919.4473-.47559.7197-.67139A6.38562,6.38562,0,0,1,5.28166.84354a6.47111,6.47111,0,0,1,1.0879.1538A2.27552,2.27552,0,0,1,7.24946,1.17754Z"/>
   <path class="a"
         d="M8.69326,1.12334c.0455.0537.1099.0835.2422.0605.3374-.0586.6714-.1445,1.0288-.1782.8218-.0776,1.64411-.1538,2.4644-.24951C13.80656.595,15.19676.678,16.56976.45584a12.08174,12.08174,0,0,1,4.3125-.2681,3.50512,3.50512,0,0,1,1.9492.9781c.667.791.23291,1.541-.22309,2.3252a1.70554,1.70554,0,0,1-.80521.602c-.3877.18309-.8413.2915-1.2324.4375a2.00432,2.00432,0,0,1-1.336.1265c-.208-.085-.2221-.2642-.3515-.3985a1.00469,1.00469,0,0,0-.3736-.1821,3.29228,3.29228,0,0,0-1.0849-.063,15.20706,15.20706,0,0,0-4.25339.8111A28.36659,28.36659,0,0,1,10.123,5.592a9.74919,9.74919,0,0,0-2.7461.7476,7.37669,7.37669,0,0,1-2.9858.6113C3.61176,6.947,2.834,6.97,2.06,6.90213a1.91931,1.91931,0,0,1-1.1211-.26069,1.90006,1.90006,0,0,1-.4199-.4341,4.11489,4.11489,0,0,1-.3828-.6299,4.25389,4.25389,0,0,1-.0093-1.3516,3.01843,3.01843,0,0,1,1.8814-2.4795,5.42223,5.42223,0,0,1,1.375-.5317c.7729-.1528,1.5356-.2979,2.312-.4023a13.47336,13.47336,0,0,1,1.7593-.0489c.2676,0,.7763-.0952,1.0049.0562C8.60056.91334,8.62637,1.04474,8.69326,1.12334Z"/>
   <path class="a"
         d="M19.71237,2.35474c.07179-.581.21969-1.1157.85349-1.2788a2.84839,2.84839,0,0,1,1.87351.105,1.91494,1.91494,0,0,1,.76709,1.0225c.0547.1738.1338.3379.189.5112.0581.1846.0478.4048.1206.58149.168.40971.4326.80131.5669,1.21591.1118.3462.1919.72209.2778,1.0766.1084.4453.145.9116.2329,1.3457a1.25442,1.25442,0,0,1,.1001.3423,10.43833,10.43833,0,0,1-.3169,3.6192c-.2622.8754-.707,2.017-1.6416,2.3667a5.87621,5.87621,0,0,1-2.7158-.1343c-.3598-.4864.35991-1.5308.5825-1.9512a2.04959,2.04959,0,0,0,.1763-.9946,3.9724,3.9724,0,0,0-.0703-1.61331,6.12393,6.12393,0,0,0-.45459-.93209,4.76416,4.76416,0,0,1-.75151-1.9351,12.05275,12.05275,0,0,1,.1402-2.6865C19.66937,2.8,19.68546,2.574,19.71237,2.35474Z"/>
   <path class="a"
         d="M19.14646,17.87674c-.062.2197-.1866.6753-.4073.8008-.1137.0635-.163-.0156-.2832-.02541a2.96821,2.96821,0,0,1-.3911-.01419c-.1108-.0244-.1274-.0639-.2143-.0952-.4795-.1719-.9595-.3091-1.4283-.498a7.44279,7.44279,0,0,0-2.4394-.8067,6.936,6.936,0,0,0-2.7852.6836,19.22834,19.22834,0,0,0-4.6665,2.29449,3.6343,3.6343,0,0,1-2.8393.86321c-1.0772-.1264-1.4658-2.165-1.5474-2.9858-.1494-1.5068,1.104-2.1553,2.2461-2.7656a38.233,38.233,0,0,1,4.5615-1.9321,6.73608,6.73608,0,0,1,1.0684-.2955,10.36632,10.36632,0,0,1,4.7925.2149,13.20636,13.20636,0,0,1,2.3276.9194,6.10111,6.10111,0,0,1,1.6621,1.3941A2.05537,2.05537,0,0,1,19.14646,17.87674Z"/>

</g>
</svg>
