<?xml version="1.0" encoding="UTF-8"?>
<svg xmlns="http://www.w3.org/2000/svg"
     version="1.1"
     width="14.69510162mm"
     height="11.25821897mm"
     viewBox="0.00000000 0.00000000 41.65538403 31.91303667">

<g transform="scale(3.27041836)">   <defs>
      <style type="text/css"><![CDATA[
      .a {
        stroke: #000;
        stroke-miterlimit: 10;
        stroke-width: 0.15px;
      }
    ]]></style>
   </defs>
   <path class="a"
         d="M6.43653,1.05235a4.10906,4.10906,0,0,0-1.024,3.20118c.2061,1.40482,1.1519,1.41752,2.3252,1.69582,1.292.3066,2.6919-.1983,3.9771.1665,1.9141.543.5298,2.0141-.6734,2.4722a19.08155,19.08155,0,0,1-5.3496,1.0449A7.902,7.902,0,0,1,1.789,9.17153,2.83632,2.83632,0,0,1,.183,5.69105c.3497-1.478,2.358-3.6641,3.5616-4.7222a2.57822,2.57822,0,0,1,1.9375-.8867c.6245.0547,1.3608.4443.6465,1.0781"/>

</g>
</svg>
