<?xml version="1.0" encoding="UTF-8"?>
<svg xmlns="http://www.w3.org/2000/svg"
     version="1.1"
     width="22.64991850mm"
     height="41.28934378mm"
     viewBox="0.00000000 0.00000000 64.20446140 117.04075695">

<g transform="scale(9.02959185)">   <defs>
      <style type="text/css"><![CDATA[
      .a {
        stroke: #000;
        stroke-miterlimit: 10;
        stroke-width: 0.15px;
      }
    ]]></style>
   </defs>
   <path class="a"
         d="M3.75631,2.05457A13.32951,13.32951,0,0,0,3.8467,3.80539a27.42551,27.42551,0,0,1-.218,6.196c-.15425,1.71376-.3252,2.83675-.13234,2.884.14083.03451.3904-.52557.51532-.80954a14.64719,14.64719,0,0,0,.9575-5.95715c.02014-1.4799-.05176-1.421.01518-2.19232a15.70266,15.70266,0,0,1,.20936-2.80945A.95243.95243,0,0,0,5.16057.395.66587.66587,0,0,0,4.68185.07584.758.758,0,0,0,4.10738.395,2.3268,2.3268,0,0,0,3.75631,2.05457Z"/>
   <path class="a"
         d="M1.42653,4.95882a.8244.8244,0,0,0-.6383,0,.94035.94035,0,0,0-.31975.3682,2.51886,2.51886,0,0,0-.269.59168c-.10313.29738-.15375.44917-.1069.601a.60235.60235,0,0,0,.20985.28677,6.40745,6.40745,0,0,0,3.2624,1.05664c1.42739.053,1.773-.2594,2.47409-.05818a.7283.7283,0,0,0,.55722-.017c.23386-.13392.29537-.4413.35167-.72268a1.45173,1.45173,0,0,0,.00759-.96339c-.3073-.50664-1.26035.15111-2.69728-.19044C3.61917,5.7595,2.58039,5.33776,1.42653,4.95882Z"/>

</g>
</svg>
