<?xml version="1.0" encoding="UTF-8"?>
<svg xmlns="http://www.w3.org/2000/svg"
     version="1.1"
     width="81.75649688mm"
     height="17.19341437mm"
     viewBox="0.00000000 0.00000000 231.75065704 48.73722876">

<g transform="scale(5.59901992)">   <defs>
      <style type="text/css"><![CDATA[
      .a {
        stroke: #000;
        stroke-miterlimit: 2.61313;
        stroke-width: 0.28346px;
      }
    ]]></style>
   </defs>
   <path class="a"
         d="M16.41211,3.13379q.167-.939.334-1.87842A2.43929,2.43929,0,0,0,13.77148.96582a5.15724,5.15724,0,0,0-2.4375.56152q-2.46387.21387-4.92578.42822A16.895,16.895,0,0,0,.60352,4.80371c-.87109.86621-.6582,1.81055,1.93359,2.92578a70.68284,70.68284,0,0,0,14.17383.38379c3.707.55469,7.10742.2959,9.96484-1.71387-.19531-.92676-.93359-1.20459-1.45117-1.91357A12.509,12.509,0,0,1,19.1582,5.72949q-4.89844-.1084-9.793-.2168l-.80859-.58008a64.49854,64.49854,0,0,1,7.85547-1.79883Z"/>
   <path class="a"
         d="M41.05859,8.0127q.085-.72363.16992-1.44824A17.91831,17.91831,0,0,1,28.84961,4.5542,8.84076,8.84076,0,0,0,25.62109.89209C21.72852-.36328,17.73438-.42871,13.37891,3.75586q.28418,2.30054.57031,4.60156a7.20493,7.20493,0,0,0,2.71289-1.47559q.65625-1.13232,1.31055-2.26465c.92383-1.56934,3.07617-1.0293,5.57227.10156,2.28906,1.49707,4.60547,2.958,7.77539,3.292,3.623.94336,6.68945.49512,9.73828.002Z"/>

</g>
</svg>
