<?xml version="1.0" encoding="UTF-8"?>
<svg xmlns="http://www.w3.org/2000/svg"
     version="1.1"
     width="86.48340492mm"
     height="37.51360639mm"
     viewBox="0.00000000 0.00000000 245.14984199 106.33781190">

<g transform="scale(4.33313116)">   <defs>
      <style type="text/css"><![CDATA[
      .a {
        stroke: #000;
        stroke-miterlimit: 10;
        stroke-width: 0.15px;
      }
    ]]></style>
   </defs>
   <path class="a"
         d="M49.07825,8.506a8.4859,8.4859,0,0,0,.8085-2.74462,3.65913,3.65913,0,0,1,1.3775-2.27488c1.0254-.771,2.0898-1.5723,3.1489-2.3164.5396-.378,1.3057-.7486,1.8442-.09672.7872.95022-.5449,2.57912-1.0385,3.35592-2.4624,3.87408-5.3198,7.813-8.8081,10.60308a23.7633,23.7633,0,0,1-6.5747,3.66262c-.6382.2451-1.2637.351-1.8975.56638-.9741.331-1.9043.95412-2.918,1.23092-1.5434.4214-3.1665.4688-4.7173.9136-.6938.1997-2.6142,1.14648-3.309.6816-1.2168-.8144,1.02-1.16012,1.4746-1.2954,2.5542-.7661,5.1113-1.3559,7.6133-2.3086,3.4585-1.3154,6.9082-2.2055,9.6606-4.9619A18.392,18.392,0,0,0,49.07825,8.506Z"/>
   <path class="a"
         d="M2.09965,10.52551C1.72275,9.424.66705,8.70081.21345,7.63831-.474,6.027,1.56985,5.91571,2.589,5.55339a4.911,4.911,0,0,1,.56689-.09518,1.81661,1.81661,0,0,1,.4346-.1299c.8061-.0454,1.1191,1.1562,1.456,1.75.39551.6967.8511,1.3633,1.2114,2.1299.2198.4677.4673.8774.6753,1.3549.0415.09428.07181.2242.11581.32428a4.00772,4.00772,0,0,0,.24169.49172,5.29364,5.29364,0,0,0,.56831.5898,22.8472,22.8472,0,0,0,1.61429,1.76948c1.1909,1.10892,2.5146,2.07522,3.6216,3.274.6933.75,1.8872,1.42872,2.3237,2.371.2998.64562.041,1.45512.89741,1.667.57619.14262.95119-.49118,1.45759-.49848a9.24192,9.24192,0,0,1,2.0566.7876,27.19235,27.19235,0,0,0,3.3389,1.2783,10.349,10.349,0,0,0,1.4658.2573c.9717.0586,1.9184.1216,2.9053.1216h2.2573c.5962,0,2.4609-.2812,2.7724.2505a4.54384,4.54384,0,0,1-2.3422.8745c-3.4102.6568-6.9488.1866-10.438.1006-1.458-.0361-3.336.2759-3.9356-1.6855-.8447-.2017-.8759.4882-1.51509.6743-.71881.208-1.75441-.4741-2.33551-.8579-2.35349-1.5591-4.3256-3.9107-6.3432-5.8936A15.42774,15.42774,0,0,1,2.09965,10.52551Z"/>
   <path class="a"
         d="M29.39265.61539c.8179-.78418,2.52931-.479,3.5474-.49508a24.07957,24.07957,0,0,1,4.1728.206,7.658,7.658,0,0,1,2.3609.6314c1.1503.5971.727,1.0893-.0962,1.90868-.6597.65772-.8184.833-1.7881.42432-.4917-.2066-.3819-.4346-1.1558-.501-.5044-.0435-1.019-.02-1.5273-.02-1.0552,0-2.147.0849-3.1929-.0196-1.1807-.1191-1.1016-.517-1.5933-1.3286C29.921,1.09291,29.58455,1.00751,29.39265.61539Z"/>
   <path class="a"
         d="M22.33845,2.13439a1.81647,1.81647,0,0,1-.0254-.63428c.1524-1.4868,2.1792-1.11472,3.1817-1.1108.78321.002,1.2417-.1431,1.7973.5054.3281.3799.9097,1.4516.2241,1.7846-.71919.3487-2.7739.0816-3.5898.0904C23.09675,2.77939,22.49515,2.74621,22.33845,2.13439Z"/>
   <path class="a"
         d="M14.609,3.05391a14.95061,14.95061,0,0,1,1.92729-.7076c.63571-.0898,1.2832-.0117,1.9179-.1352a5.22024,5.22024,0,0,1,1.958-.3242c.1099,2.01848-.8393,1.60448-2.5034,1.6909C17.25055,3.611,14.40245,4.13981,14.609,3.05391Z"/>
   <path class="a"
         d="M31.94975,7.64911a.84985.84985,0,0,1-.7939-.7593c-.0596-.398-.1372-.7842.3213-.936a4.82487,4.82487,0,0,1,1.06981-.0586c.72219-.04982,1.44139-.13282,2.16059-.2159a36.25478,36.25478,0,0,1,4.3067-.2602c-.0547,2.061-2.7969,1.9424-4.1875,2.0708A11.223,11.223,0,0,1,31.94975,7.64911Z"/>
   <path class="a"
         d="M22.527,6.30239c1.19719,0,2.41259.061,3.60689-.00048,1.24811-.062,1.9854-.1602,2.6069,1.0806.8194,1.6342-3.1567,1.0781-4.1157,1.0742-.9009-.0039-.9946-.1084-1.53709-.8272-.28221-.3735-.73241-.7172-.63521-1.22212.1259.01172.1054-.05668.164-.105"/>
   <path class="a"
         d="M21.11285,8.568c-.8691.9219-1.29389-.0127-1.19289-.917.07039-.6201-.04981-.6548.56449-.876.3208-.1157,1.0371-.0805,1.2163.2657C21.87555,7.37861,21.34135,8.32781,21.11285,8.568Z"/>
   <path class="a"
         d="M24.98155,14.37421c-.9522.0923-2.6158.5171-3.481-.0244-1.7754-1.1075,2.1133-1.2486,2.7041-1.4019a17.30294,17.30294,0,0,1,3.3164-.72752c1.0401-.05858,4.4702-1.146,3.4795,1.00732-.3891.8481-1.2544.811-2.0659.8071A39.59981,39.59981,0,0,0,24.98155,14.37421Z"/>
   <path class="a"
         d="M35.02985,13.29261c-.6435-.1176-4.2827-.3086-2.6684-1.2954.9311-.57082,2.78851-.2056,3.8432-.2056.7276,0,3.0425-.0253,3.4829.5752C40.83405,13.92839,35.49125,13.37661,35.02985,13.29261Z"/>
   <path class="a"
         d="M14.49615,16.23011c-1.2207.05128-.6435-.5639-.042-.96772a4.74375,4.74375,0,0,1,2.5161-1.00928c1.1661.0498.66171.8882-.0742,1.3037A5.98119,5.98119,0,0,1,14.49615,16.23011Z"/>
   <path class="a"
         d="M20.17925,18.69161a12.31977,12.31977,0,0,0,3.0733-.4263c.4145-.14992.7197-.6026,1.06341-.7407a7.07861,7.07861,0,0,1,2.08159-.2725c1.4346-.061,2.8686-.0894,4.2817-.0855.5664.001,1.6485-.0517,2.001.4424,1.6938,2.3731-5.1167,1.7173-6.0439,1.8057-.9053.0869-1.8516.1362-2.75739.1738a12.82249,12.82249,0,0,0-2.32711.4522c-.6196.1318-2.25389.3608-2.6987-.2022-.6978-.8813.9541-1.0595,1.5053-1.2358"/>
   <path class="a"
         d="M15.05965,7.71651c.8535,0,2.1509-.2574,1.7671,1.0498a3.15639,3.15639,0,0,1-1.3213.0224c-.3491-.2055-.188-.5498-.4458-.8921"/>

</g>
</svg>
