<?xml version="1.0" encoding="UTF-8"?>
<svg xmlns="http://www.w3.org/2000/svg"
     version="1.1"
     width="30.18937137mm"
     height="10.36397133mm"
     viewBox="0.00000000 0.00000000 85.57613743 29.37814086">

<g transform="scale(4.98973131)">   <defs>
      <style type="text/css"><![CDATA[
      .a {
        stroke: #000;
        stroke-linecap: round;
        stroke-linejoin: round;
        stroke-width: 0.01px;
      }
    ]]></style>
   </defs>
   <path class="a"
         d="M9.64069.03454a2.82973,2.82973,0,0,1-.69048.0363,1.54833,1.54833,0,0,0-.81163.103.567.567,0,0,1-.636.01212A.47187.47187,0,0,0,7.18765.1375a1.9234,1.9234,0,0,1-.55724.0848.46164.46164,0,0,0-.212.0848,2.856,2.856,0,0,1-.6602.33918,6.98011,6.98011,0,0,0-1.03573.61781,2.30279,2.30279,0,0,1-1.02967.44215.94821.94821,0,0,0-.55724.23622.22157.22157,0,0,1-.15142.06663,1.17281,1.17281,0,0,0-.55724.218.49176.49176,0,0,1-.25439.11508.21374.21374,0,0,0-.16959.109,1.99718,1.99718,0,0,1-.56329.36947,3.76651,3.76651,0,0,0-.79951.5633,3.11276,3.11276,0,0,1-.47244.38764c-.15143.07876-.17568.12121-.15748.30286.01817.23622.06662.27257.68443.53907.19988.0848.533.24228.73894.34524a1.01,1.01,0,0,0,.44216.13931c.03634-.02422.1817.03634.321.1272.24833.16353.28468.16959,1.2235.18776a7.9583,7.9583,0,0,0,2.57418-.109,3.152,3.152,0,0,1,.93883-.06057A1.81406,1.81406,0,0,0,7.436,5.195a.60353.60353,0,0,1,.47244.02423.51229.51229,0,0,0,.26044.06057,4.21012,4.21012,0,0,1,.67838.0848,2.50941,2.50941,0,0,0,1.47788-.04846A4.18436,4.18436,0,0,1,11.0217,5.195c.11508.00606.38764-.00605.60569-.01817a1.61737,1.61737,0,0,1,.50878.03029,3.62621,3.62621,0,0,0,.91459.109,1.28605,1.28605,0,0,0,.50273-.09085c.03028-.01817.109.00605.16959.05451a.42219.42219,0,0,0,.19382.09085,3.34184,3.34184,0,0,1,.54512.22411,3.6498,3.6498,0,0,0,.527.23016,1.44153,1.44153,0,0,1,.18776.04846c.13325.04845.56935-.103.56935-.19382a1.52175,1.52175,0,0,1,.73894-.26045c.02423.00606.09086-.07268.13931-.16959.05451-.103.12114-.18171.15142-.18171s.0848-.109.12114-.23622a.46452.46452,0,0,1,.15142-.27256c.14537-.05451.12114-.58752-.03028-.72077a.32746.32746,0,0,1-.12114-.18171c0-.11508-.29679-.41187-.68443-.67838a4.439,4.439,0,0,1-.48455-.36341,3.694,3.694,0,0,0-.40581-.30285,2.68569,2.68569,0,0,1-.30285-.2241,1.20614,1.20614,0,0,0-.27256-.14537,2.29979,2.29979,0,0,1-.40581-.218.66968.66968,0,0,0-.39976-.103.46308.46308,0,0,1-.33313-.07269c-.04846-.04845-.17565-.15142-.28467-.23622s-.26651-.212-.34525-.28467c-.16354-.14537-.36947-.23016-.424-.17565a.83532.83532,0,0,1-.34525-.12114c-.16959-.0848-.38764-.19382-.47849-.24228A.90387.90387,0,0,0,11.38513.404a.42313.42313,0,0,1-.25439-.07874.99025.99025,0,0,0-.3513-.14537c-.15142-.0424-.33918-.09085-.424-.109A1.41637,1.41637,0,0,0,9.64069.03454ZM7.56923,1.60933a5.26435,5.26435,0,0,1,.93878.37551c.49667.22411.57541.24228.82374.17565a.59748.59748,0,0,1,.50273.04846c.39369.17565.84191.56935.79345.69654a1.69551,1.69551,0,0,1-.72683.34525,12.02879,12.02879,0,0,1-1.30223.04845C5.3463,3.281,5.30387,3.281,5.0374,3.39a1.90517,1.90517,0,0,1-.5754.103,3.07858,3.07858,0,0,0-.55724.06057c-.28467.06663-.848-.07268-.90248-.218-.0424-.103.05451-.321.14537-.33313a.83814.83814,0,0,0,.5754-.39975c.02423-.103.20594-.22411.73289-.47244a6.09037,6.09037,0,0,1,.89036-.37553.60233.60233,0,0,0,.27257-.12114.14614.14614,0,0,1,.19382-.01817,1.52533,1.52533,0,0,0,.7874.03028,1.11009,1.11009,0,0,1,.60569-.11508C7.29061,1.54876,7.45415,1.5851,7.56923,1.60933Z"/>

</g>
</svg>
