<?xml version="1.0" encoding="UTF-8"?>
<svg xmlns="http://www.w3.org/2000/svg"
     version="1.1"
     width="32.48305578mm"
     height="47.89537055mm"
     viewBox="0.00000000 0.00000000 92.07800286 135.76639683">

<g transform="scale(4.76053114)">   <defs>
      <style type="text/css"><![CDATA[
      .a {
        stroke: #000;
        stroke-miterlimit: 10;
        stroke-width: 0.15px;
      }
    ]]></style>
   </defs>
   <path class="a"
         d="M1.63155,4.14622a4.27346,4.27346,0,0,1,1.627-1.581A20.96253,20.96253,0,0,1,8.92646.74492l2.02059-.3023c2.1816-.3267,5.2793-.937,7.0468.8755a2.19576,2.19576,0,0,1,.43461,1.5762,3.814,3.814,0,0,1-.05571,1.0371c-.083.2929-.3789.6562-.4814.99359a10.78059,10.78059,0,0,1-.9658,2.40921,4.62343,4.62343,0,0,0-.753,1.7402,5.21855,5.21855,0,0,0,.00591.8467,3.68672,3.68672,0,0,0,.49709,2.2124c.4131.6001,1.1133.9663,1.5674,1.5381.6162.77539.1113,1.2539-.1211,2.023-.2862.9458.1543,1.4946.6445,2.2392a3.106,3.106,0,0,1,.41411,1.336,2.35885,2.35885,0,0,1,.07119.7329c-.0507.1855-.1767.2446-.3271.3818-.4922.4497-.8164,1.0498-1.2783,1.5142a16.536,16.536,0,0,1-1.9092,1.3071,23.6294,23.6294,0,0,1-2.3955,1.8125c-.793.4463-1.6904.7012-2.4824,1.1499-.6924.3921-1.4453.9629-2.125,1.4404a3.14549,3.14549,0,0,1-2.4649.81939c-.63079-.05079-1.42479-.00589-1.3476-.78469a2.113,2.113,0,0,1,.3447-.9717,7.3854,7.3854,0,0,1,.6894-.8213,5.8161,5.8161,0,0,1,.7891-.4668,5.45874,5.45874,0,0,0,.71-.5957c.9863-.8393,1.8965-1.7539,2.8857-2.59181a17.07942,17.07942,0,0,1,1.6484-1.04389,5.19016,5.19016,0,0,0,1.5733-2.0054c.4619-1.7466-.8584-3.3745-1.7647-4.6338-.49609-.688-1.1045-1.3325-1.622-1.9565a2.21128,2.21128,0,0,1-.4658-1.9395c.1904-.4951.7089-.792.80371-1.3291a11.20592,11.20592,0,0,0-.085-1.7192c.00589-.4619.02339-.7022-.49021-.7739-.4737-.0665-.84179.3955-1.2666.5957a2.896,2.896,0,0,1-1.36819.2817c-1.15331.02489-2.34571.1636-3.5.2773-.78611.0772-1.63961.1988-1.46,1.22859.10159.58691.71,1.13331.24219,1.74121C1.86305,11.85762.909,9.696.531,9.24l-.3046-.90869s-.1006-.6016-.1006-.6079C-.15165,6.04032.75855,5.37472,1.63155,4.14622Z"/>

</g>
</svg>
