<?xml version="1.0" encoding="UTF-8"?>
<svg xmlns="http://www.w3.org/2000/svg"
     version="1.1"
     width="22.09221998mm"
     height="67.49908394mm"
     viewBox="0.00000000 0.00000000 62.62363583 191.33594374">

<g transform="scale(4.19054538)">   <defs>
      <style type="text/css"><![CDATA[
      .a {
        stroke: #000;
        stroke-miterlimit: 10;
        stroke-width: 0.15px;
        fill-rule: evenodd;
      }
    ]]></style>
   </defs>
   <path class="a"
         d="M8.62552,25.71007q-.6504-.93675-1.2881-1.8828c-.3369-.50192-.8418-.9468-1.13869-1.458-.38481-.6621-.14941-1.2573-.03711-1.9663a15.2293,15.2293,0,0,1,1.1738-2.8833,9.40341,9.40341,0,0,0,.4512-3.1396,4.27164,4.27164,0,0,0-.3887-1.3321c-.11719-.3247-.3516-.5947-.4629-.9258-.2656-.7924-.126-1.9672.7686-2.2573a3.133,3.133,0,0,1,3.0293.68948c1.582,1.88082.3847,4.65332-.5215,6.476-.2891.58162-.667,1.15092-.9522,1.75052-.872,1.8394,1.0498,2.2539,2.0391,3.3326a15.036,15.036,0,0,1,2.3027,4.0156c.7198,1.562,1.4668,3.1054,1.2198,4.8642a22.44142,22.44142,0,0,1-1.32909,4.14108A31.43831,31.43831,0,0,1,10.562,41.15347a12.197,12.197,0,0,1-.8086,1.2817,18.43452,18.43452,0,0,1-2.5059,2.6221c-.5332.45508-1.5293,1.0029-1.2734-.21a3.98,3.98,0,0,1,1.2197-1.6342,13.92551,13.92551,0,0,0,1.7275-2.4683,19.50633,19.50633,0,0,0,2.5333-6.0249,9.41791,9.41791,0,0,0-1.8311-7.6021Q9.121,26.41832,8.62552,25.71007Z"/>
   <path class="a"
         d="M.52582,2.43227a1.00289,1.00289,0,0,1-.4502-.8594A1.7573,1.7573,0,0,1,2.94873.50407a9.17867,9.17867,0,0,0,2.11719,1.8208,9.54146,9.54146,0,0,1,1.3066.6631c.5508.50238.4043,1.0498-.34179,1.0483a16.96123,16.96123,0,0,1-3.00491-.8276A6.87661,6.87661,0,0,1,.52582,2.43227Z"/>

</g>
</svg>
