<?xml version="1.0" encoding="UTF-8"?>
<svg xmlns="http://www.w3.org/2000/svg"
     version="1.1"
     width="53.27030726mm"
     height="52.95916972mm"
     viewBox="0.00000000 0.00000000 151.00237568 150.12053005">

<g transform="scale(5.59901992)">   <defs>
      <style type="text/css"><![CDATA[
      .a {
        stroke: #000;
        stroke-miterlimit: 2.61313;
        stroke-width: 0.28346px;
      }
    ]]></style>
   </defs>
   <path class="a"
         d="M9.66211,6.93506a9.36418,9.36418,0,0,0,4.10352-1.86133,1.58042,1.58042,0,0,1,1.68359,1.39063c.09766,3.84961-2.69531,7.61914-6.18945,11.36719.082,1.10938-1.00391,2.24414-2.01953,3.37891q-.36914.89355.875.38867v1.293A24.17375,24.17375,0,0,1,.64648,26.66553q-.97559-.252-.06641-1.35937Q3.33691,21.603,6.0957,17.90186c2.21094-3.99609,3.69141-7.75,3.56641-10.9668Z"/>
   <path class="a"
         d="M15.85156,9.58545a29.89308,29.89308,0,0,1,5.38281-3.86133c.1582-.43555.31445-.86914.4707-1.30469l1.75.0293A25.71161,25.71161,0,0,1,18.3418,15.38232c-1.3457,1.16406-2.49023,2.39258-3.83594,3.55664q-1.64648.99023-.06641,1.08984c3.666-1.709,6.89648-2.45117,9.48633-1.77734q1.0752,1.06641,2.15234,2.13086c-.01562,2.3457-1.39258,3.93555-2.69141,5.57227a3.66915,3.66915,0,0,1-2.48828.05469c-.1875-1.71289-1.541-2.21875-2.82617-2.79492q-3.2959.583-6.59375,1.168-2.05078.11426-4.10352.22656c-1.64258-.34766-1.55078-.89453-1.21094-1.46875,5.74414-5.47656,9.69336-10.20508,9.6875-13.55469Z"/>
   <path class="a"
         d="M11.81641,4.57178Q11.0752,3.12744,15.7168,1.01514C20.65039-.07471,25.31641-.7876,26.81836,2.94482c-.49023,1.44336-1.92578,1.95117-3.498,2.32422Q22.00781,4.2085,18.543,4.01514l-6.72656.55664Z"/>

</g>
</svg>
