<?xml version="1.0" encoding="UTF-8"?>
<svg xmlns="http://www.w3.org/2000/svg"
     version="1.1"
     width="24.84678952mm"
     height="72.71114456mm"
     viewBox="0.00000000 0.00000000 70.43182349 206.11029144">

<g transform="scale(4.33619533)">   <defs>
      <style type="text/css"><![CDATA[
      .a {
        stroke: #000;
        stroke-miterlimit: 10;
        stroke-width: 0.15px;
      }
    ]]></style>
   </defs>
   <path class="a"
         d="M12.74279,1.85339c.8038-.268.5713-.9521,1.087-1.3877a2.52253,2.52253,0,0,1,1.956-.3588c.9707,1.955-.1367,3-.8008,4.8129a17.70785,17.70785,0,0,0-.5937,6.0049c0,4.8682.3662,9.7608.1191,14.6123-.1035,2.0401-.4726,4.0523-.4726,6.1294a34.35722,34.35722,0,0,1-.5,6.3848,34.53178,34.53178,0,0,1-1.8526,6.103c-.2949.7627-.7793,1.416-1.0029,2.2022-.0908.3217-.1572.8037-.4824.9843-.7774.4307-.6387-.4321-.6387-.9238q0-2.2947.001-4.5893a29.50793,29.50793,0,0,1,.1181-3.9234c.1748-1.291.4112-1.0713,1.3926-1.1172,1.1514-.0537,1.4024-1.6259.59281-2.3452-.70311-.625-1.18751-.2314-1.48241-1.2827a13.02073,13.02073,0,0,1-.26759-2.8174c-.18561-3.3227-.21191-6.6928-.35351-9.9917-.21-4.8799-.2354-9.959.0176-14.8271.1923.039.4765-.0742.66791-.0357.43259-1.2046-.78221-2.9228-.21681-3.8725A1.24706,1.24706,0,0,1,11.652,1.288c.3291.1655,0,.5957.3809.7769a2.42124,2.42124,0,0,0,1.0459.0058c.0303-.1167-.003-.2192.0176-.3354"/>
   <path class="a"
         d="M4.96749,6.80169c.2978.9365,1.7753.479,2.5634.6987.2364.7564-.4765.8682-.6601,1.5156.21191.0469.4258.2627.66791.2798.01269-.0259.02449.3457,0,.3135-1.00291.4087-.21481,1.2368-.68061,1.7925-.7129.8525-1.293-.1377-1.6719-.7217.1729-.0381.3418-.2178.5898-.2441.22471-.8116-1.038-1.5342-1.7509-1.3965-.7178.1396-.625.8637-1.27539.9219-.45611-.8272,1.01459-3.0508,1.86419-3.1597"/>
   <path class="a"
         d="M2.96549,14.69479c.9443.0205,1.24121-1.2803,2.4434-.441.9912.6914.4433,1.3653.1709,2.2373-.5606,1.8008-1.1563,3.7808-1.6426,5.5313-.3037,1.0908-.72949,2.354-.9483,3.4199-.1591.7671.3789,2.0337-.6953,2.2417-.5146.0986-1.2148-1.0947-1.6562-1.7085-.6573-.914-.5-1.9282-.5-3.0332,0-1.5557-.2539-3.5146.2627-4.9224.2949-.8061,1.0625-1.0034,1.4775-1.6757.37211-.6031-.00589-1.688.9688-1.6494"/>

</g>
</svg>
