<?xml version="1.0" encoding="UTF-8"?>
<svg xmlns="http://www.w3.org/2000/svg"
     version="1.1"
     width="12.89097854mm"
     height="39.41182115mm"
     viewBox="0.00000000 0.00000000 36.54133842 111.71852086">

<g transform="scale(4.33313116)">   <defs>
      <style type="text/css"><![CDATA[
      .a {
        stroke: #000;
        stroke-miterlimit: 10;
        stroke-width: 0.15px;
      }
    ]]></style>
   </defs>
   <path class="a"
         d="M3.03109,9.25121a7.46963,7.46963,0,0,1-.5762-3.354,7.87564,7.87564,0,0,1,.3926-1.6489,6.41159,6.41159,0,0,1,1.8594-3.0439,3.06371,3.06371,0,0,1,1.582-.7788,2.64488,2.64488,0,0,0,.7012-.0933A2.3237,2.3237,0,0,1,7.72149.075c.1846.47649-.1777,1.2124-.3164,1.6738A7.22439,7.22439,0,0,1,6.575,3.45c-1.0498,1.6821-.3515,4.6367.1963,6.4067,1.14941,3.7139,3.0215,10.3887-.2402,13.6069a6.66643,6.66643,0,0,1-2.6895,1.5674c-.4492.1421-.8457.3853-1.2871.5142a5.49275,5.49275,0,0,1-1.6025.1606c-.4522-.0068-1.375-.4048-.5391-.7778a19.94758,19.94758,0,0,0,2.4141-1.1841,4.91035,4.91035,0,0,0,2.5859-4.2749A27.43978,27.43978,0,0,0,3.03109,9.25121Z"/>

</g>
</svg>
