<?xml version="1.0" encoding="UTF-8"?>
<svg id="a" data-name="Ebene 1" xmlns="http://www.w3.org/2000/svg" width="75.65306862mm" height="44.05854852mm" viewBox="0.00000000 0.00000000 214.44970932 124.89037876">

<g transform="scale(3.97101662)">  <defs>
    <style>
      .b {
        fill: #000;
        stroke: #000;
        stroke-linecap: round;
        stroke-linejoin: round;
        stroke-width: .01px;
      }
    </style>
  </defs>
  <path class="b" d="M14.53874.09974c-.15234.06641-.36719.21875-.49609.33594-.11719.12891-.375.35547-.55859.50391-.58594.47266-.71875.625-.71875.80078,0,.09766-.03516.23438-.07422.3125-.14453.26563.19922.61719.71094.73828.48047.11719.80078.36719.80078.63672,0,.24219.53516,1.07422.84766,1.3125.14453.11328.33594.19922.42578.19922.08594,0,.21484.05859.28125.12109.0625.07422.25391.14453.42187.16797.54297.06641,1.13672.27344,1.25.43359.07031.10156.23828.16797.50391.19922.55859.0625.57422.0625,1.20703.01563.45703-.03125.60547-.01563.75781.08984.26563.19141,2.47266.17578,2.85938-.01953.13281-.07031.28516-.10938.33594-.07813.04688.03125.10938.01563.14063-.02344.08203-.12109.75391-.48047,1.00781-.53516.13672-.03516.45703-.14453.72266-.25.26172-.10156.61328-.20703.78125-.23828.16016-.02344.29688-.08203.29688-.12109,0-.03125.15234-.17578.32813-.3125.34375-.24609.46484-.24609.76953.02344.25391.22656.35156.28906.73438.48047.22656.12109.41016.25.41016.28906,0,.11328.82422.48047,1.07031.48047.12109,0,.28125.03125.35938.07031.15234.08203.79297.73047,1.16797,1.17578.14453.16797.47266.39453.80078.54297.64063.29688.96875.63281,1.04688,1.07422.03516.16016.08984.35938.12109.43359.03906.07031.05469.18359.03125.23828-.0625.16016-.82422.59375-1.21484.69531-.19141.05469-.34375.12891-.34375.16016,0,.03906-.12109.11328-.25781.16797-.14063.04688-.33594.12891-.41406.17578-.3125.16797-.55859.23438-1.84766.46484-.21875.03906-.63281.12891-.91406.19141-.55078.12891-.71094.09766-.91797-.19922-.10547-.15234-.57813-.32813-.84766-.3125-.6875.03125-1.06641-.00781-1.35938-.16016-.1875-.09766-.36328-.15234-.38672-.12891s-.13672-.00781-.24609-.08594c-.21875-.14453-.94531-.32813-1.52734-.39453-.20313-.02344-.45703-.10938-.57813-.19922-.26953-.19141-.83984-.19922-1.19141-.01563-.27344.15234-.42578.26563-.78516.58594-.11719.10938-.42188.33594-.67188.49609-.85547.56641-1.12891,1.25391-.75781,1.91016.13672.25781.55859.60938.78125.67188.02734.00781.15234.03906.28125.07422.13672.03125.36719.10938.52734.17578.25781.10938,1.20703.16016,2.03125.10156.13672-.00781.44141.00781.68359.03125.28516.02734.53516,0,.71094-.07031.14453-.0625.38281-.11328.52734-.11328.16797,0,.33594-.07031.48828-.21484.48047-.44922,1.74219-.49609,2.71094-.11328.30469.12891.36719.23438.3125.53125-.07813.44531-.12109.51172-.39063.67188-.15234.08594-.34375.28516-.41797.44531-.07031.15234-.19141.29688-.26953.32031-.08203.02344-.27344.25-.43359.48828-.16016.24219-.38281.49609-.50391.56641-.12109.08203-.30469.22656-.41797.32813-.10156.10547-.28516.21094-.39844.23438-.11328.01563-.375.19141-.58203.38281-.38672.35156-.92969.67969-1.13672.67969-.05859,0-.19141.11328-.30469.25-.14453.18359-.3125.27734-.66406.36719-.46484.12109-.60938.14453-1.47266.22266-.23828.02344-.58203.06641-.75781.08984-.37109.04688-1.70703.05469-2.64063.01563-.35156-.01563-.75391.01563-.89063.0625-.19141.07422-.30078.07422-.51953-.02344-.47266-.20703-1.08594-.21484-1.56641-.01563-.35156.14453-.47266.16016-.625.08984-.20703-.09766-.40625-.05859-.58203.11719-.10547.10547-.44141.08203-.83203-.07031-.1875-.07422-.28906-.04688-.625.12891-.21484.10938-.45703.20703-.52734.20703-.07422,0-.30469.08594-.53125.19922-.21484.11328-.48438.19922-.59766.19922-.10547,0-.25.05859-.3125.12109-.07031.0625-.22266.12109-.34375.12109-.12891,0-.55859.16016-.97656.35156-.41406.19141-.83203.375-.9375.39844-.09375.03125-.35938.24219-.57422.45703s-.42578.39063-.47266.39063c-.03906,0-.26172.12891-.49609.28125-.23828.15234-.47266.28125-.52734.28125s-.10547.03125-.10547.07813c0,.03906-.08594.09766-.19922.12891-.11719.03125-.42188.3125-.72656.67969-.28906.34375-.63281.69531-.76953.76953-.14453.08594-.30469.28516-.39062.47656-.11328.26563-.23047.38672-.50391.52344-.28125.13281-.43359.28516-.65625.65625-.16016.26953-.42578.61328-.58594.78125-.36719.36719-.50391.53516-.66406.79297-.07031.11328-.23047.24609-.35937.30469-.29297.12109-.46094.53516-.34375.83984.03906.12109.08203.30469.08203.40625,0,.3125.96875.95313,1.56641,1.04297.21484.03125.51172.18359.51172.26953,0,.25,1.16016,1.02344,1.57031,1.04687.83984.04297,1.07813.06641,1.38281.15234.18359.05859.39844.08203.46484.05859.0625-.02344.21484.00781.34375.07031.21484.11328.60547.15234,2.28516.23438.40234.01563.81641.05469.92188.08594.25781.08984.625.08203.87109,0,.11328-.03906.3125-.07813.44141-.09766.13672-.00781.36719-.03906.51953-.0625s.49609-.07031.76172-.10547c.26172-.03125.52734-.08594.58203-.125.20703-.12891,1.35156-.21094,1.67188-.11328.16797.04688.3125.04688.41797-.01563.39844-.20703,2.87891-.23047,3.23828-.02344.09766.04688.23828.0625.375.02344.12109-.03906.41797-.02344.67969.03125.30469.06641.61719.07422.875.02344.22266-.03125.61328-.07813.87891-.09375.71094-.05078.86328-.07422,1.04688-.17578.08984-.05859.27344-.08984.40234-.08984.125.00781.30859-.03125.40625-.08594.09766-.05078.36719-.08984.60156-.08984.23047,0,.65625-.04688.93359-.11328.28125-.05469.57813-.08594.64844-.07031.08203.02344.29688-.01563.48828-.08203.25-.08594.39844-.09375.50391-.03906.19141.10547,1.35156.13672,1.89453.05078.24219-.03516.83203-.07422,1.3125-.09766.96875-.03125,1.33594-.09766,1.89063-.34375.20703-.08984.41406-.14453.46094-.11328.05078.03125.22656.05078.39453.03125.16016-.02344.60547-.04688.98438-.05469.375-.01563.75781-.0625.84766-.11328.10156-.0625.24609-.0625.47266,0,.16797.05078.42188.08203.55078.08203.50391-.00781,1.12891-.08203,1.39063-.16797.18359-.05469.32031-.05469.42578,0,.07813.04688.35938.07031.60547.0625.25-.00781.49609-.00781.53906.00781.11719.04297,1.01563-.08594,1.16797-.16797.14453-.07031.83203-.09375,1.39063-.03906.29688.03125.47266,0,.69531-.11328.19922-.10156.53516-.16797,1.03125-.19922.40234-.02344.79297-.07813.86719-.12109.13281-.0625.70313-.04688.78125.03516.02344.02344.12109,0,.21094-.05078.09375-.04688.29297-.09375.45313-.10938.15234-.01563.57031-.08984.92188-.15234.35156-.07422.69531-.12891.75781-.13672.37109-.01563,1.02344.05469,1.16016.12891.08984.03906.21875.08594.28125.09375.0625,0,.16016.01563.19922.03516.23438.05469.42578-.03516.63281-.29688.28125-.34375.29688-.80859.04688-1.12891-.08594-.10547-.21484-.39844-.27734-.64844-.16016-.53516-.22656-.64063-.63281-.87891-.41797-.26563-.66406-.50391-.76172-.74609-.04688-.125-.16016-.21484-.30469-.24609-.11719-.02344-.29297-.11328-.38281-.19141-.30469-.28125-.58984-.42578-.84766-.42578-.13672,0-.34375-.04688-.45703-.11328-.32031-.15625-.75781-.28516-1.00781-.28516-.11719,0-.28516-.03906-.375-.08984-.08984-.04688-.51953-.09375-.96094-.10938-.4375-.01953-.82422-.05859-.86328-.07422-.03906-.02344-.36719-.04688-.73438-.05469-.37109,0-.78516-.03906-.92969-.08203-.19141-.0625-.34375-.04688-.64063.05859-.20703.07031-.45703.125-.53516.125-.21484-.00781-.95313.19531-1.23047.33594-.13672.07422-.30469.10547-.37891.08203-.15234-.0625-.35938-.44141-.35938-.67187,0-.09766-.03906-.25-.09375-.34375-.09766-.18359-.28906-1.20703-.33594-1.78516-.00781-.17578-.05078-.36719-.08203-.42188-.03125-.05078-.01563-.26563.03125-.47266.08203-.29688.08203-.46484,0-.77734-.04688-.22266-.10156-.65625-.11719-.96094-.00781-.3125-.06641-.71875-.12109-.91797s-.11328-.41797-.12109-.48047-.09375-.30469-.19141-.52734c-.16797-.38672-.16797-.43359-.05469-.65625.16016-.3125.81641-.97656.95703-.97656.06641,0,.21875-.04688.34375-.11328.51563-.24609.75391-.28516,1.05859-.16016.16016.07422.46484.14453.67969.16016.38281.04297.92578.28906.92578.43359,0,.08594.21875.16797.63281.23828.25781.04297.44922.02344.72266-.07813.62109-.25.95703-.43359,1.00781-.57813.02344-.07031.16797-.23828.32031-.375.14844-.13672.27734-.3125.27734-.38281,0-.08203.05859-.23438.12891-.33594.10547-.14453.11328-.22656.04688-.375-.0625-.13672-.0625-.25781,0-.44141.07422-.20703.06641-.29688-.04688-.48047-.07813-.12891-.12109-.26563-.08984-.30469.05859-.10156-.50391-.66406-.60547-.60547-.03906.03125-.21484-.11328-.40234-.30469-.30078-.34375-.34375-.35938-.85547-.39453-.42188-.03125-.58203-.00781-.77344.11328-.12891.08203-.32813.14453-.44141.14453-.21484,0-.90234-.43359-1.35938-.85547-.19141-.17578-.39453-.28125-.64063-.3125-.27344-.03906-.42578-.12891-.63281-.34375-.48828-.52734-.51953-.60938-.35938-.88672.08203-.12891.17578-.24219.20703-.24219s.11328-.10547.18359-.23828c.06641-.12891.21094-.25781.3125-.28906.10547-.02344.22656-.12891.28125-.24219.04688-.10156.12109-.19922.16797-.19922.18359-.02344.82422-.30469.87891-.38281.05859-.08203.51172-.30469,1-.49609.34375-.12891.41797-.13672.57031-.03125.16016.10156.67188.10156.83984-.00781.09375-.05859.51953.17578.57422.3125.02344.0625.00781.16016-.02344.22266-.08984.14453.18359.44922.53516.59375.13672.05469.30469.20703.36719.33594.06641.11719.27344.32422.45703.46094.18359.12891.44922.35156.59375.48828.19141.18359.35938.26563.67188.30469.26172.03125.47266.11328.56641.22266.08984.08984.25781.17578.36719.19531.12109.00781.35156.10938.51172.23047.16797.11328.48828.23047.71484.27344.22266.03125.45313.10156.51172.14063.11719.09766.53516.19531.94141.21875.15234.00781.41797.0625.58594.11719.16797.05859.38281.08984.48047.06641.09375-.02344.29688.01563.44922.09375.26172.13672.28516.13672.67188,0,.23047-.08594.48438-.125.62891-.09375.21094.03906.28906-.00781.67188-.40234.23438-.24609.53125-.47656.64844-.50391.12891-.03125.32813-.14063.44922-.24609.12891-.09766.26563-.18359.30469-.18359s.07031-.07422.07031-.16016c0-.08984.06641-.22266.14453-.30469.08203-.07813.22266-.27344.32031-.43359.10547-.16016.24609-.31641.32813-.34375.16016-.04688.32813-.35938.32813-.59766,0-.08203.11328-.27344.24609-.43359.19531-.20703.26563-.36719.27344-.625.01563-.19141.0625-.45313.10547-.59766.04688-.13672.0625-.27344.03906-.29688-.03125-.02344-.05469-.43359-.0625-.90234-.01172-.625-.05078-.9375-.14453-1.12109-.08203-.14453-.13672-.3125-.13672-.38281,0-.12891-.22656-.48047-.50391-.81641-.08984-.09766-.32813-.21875-.53516-.26563-.36328-.08594-.41016-.07813-.70703.11328-.17578.10938-.34375.26953-.375.36719-.02344.08984-.08594.16016-.12891.16016-.03906,0-.125.14453-.19922.32031-.07031.16797-.19141.33594-.28125.35938-.23828.08203-.39063.46484-.38281.97656v.71094c-.00781.18359.06641.3125.27344.50391.23828.21875.32813.42578.28906.67969-.01172.03125.02344.11328.07813.17578.10547.12891.14453.73828.0625.92188-.03906.07031-.16797.16797-.28516.22266-.12891.05078-.29688.19922-.38672.32813-.08594.13672-.18359.24219-.20703.24219s-.22266.11719-.44141.25391c-.36719.25-.42188.26563-1.05469.24219-.38281-.00781-.75781-.06641-.88672-.13672-.12891-.06641-.51172-.48047-.85547-.9375s-.69922-.89453-.77734-.98438c-.07813-.08594-.22266-.26172-.32031-.38281-.36719-.48828-.58984-.6875-.97656-.88672-.21484-.12109-.51953-.30469-.67188-.41016-.15234-.10938-.34375-.19922-.42188-.19922-.19141,0-.48047-.15234-.57031-.29688-.10938-.18359-.87109-.51953-1.16797-.51953-1.36719.03125-1.74219.0625-1.92578.19141-.11328.07422-.33594.16016-.49609.18359-.16797.03516-.30469.08984-.30469.12891,0,.04688-.16797.15234-.36719.23438-.27344.11719-.40234.13281-.51953.07031-.17969-.08984-.65625.03125-.875.23047-.0625.05859-.32813.26563-.58984.45703-.43359.33594-.55469.39063-.71484.36719-.03125,0-.22266.09766-.42969.22656-.19922.125-.41797.21484-.46484.19141-.10547-.03125-.32031-.48828-.39063-.82422-.03906-.19141-.42578-.64063-.75391-.87891-.20703-.15234-.86328-.96875-1.16797-1.46484-.16797-.26563-.35938-.43359-.66406-.58594-.23047-.11719-.42188-.24609-.42188-.27734,0-.03516-.12109-.05859-.26563-.05859s-.40625-.0625-.57422-.14453c-.17578-.07813-.41016-.15234-.51953-.16016-.19531-.02344-.37109-.05469-.81641-.16016-.11328-.02344-.27344-.00781-.35156.03516-.10547.05469-.21094.04688-.37891-.04297-.18359-.09375-.39063-.10156-1-.0625-.66406.05469-.78125.08984-.94141.25781-.09766.10156-.24219.20703-.32813.22266-.69922.17578-1.13672.32031-1.30469.44141-.11328.07031-.35938.21484-.5625.30859-.19922.09766-.53516.28125-.75781.41016-.21484.12891-.48828.23828-.60156.23828-.24609,0-1.01563.28906-1.16016.43359-.16797.16797-1.85547.23047-2.67969.10547-.10938-.01953-.23828-.04297-.28516-.04297-.05859-.00781-.27344-.16016-.48047-.33594-.21875-.17578-.43359-.32031-.49609-.32031-.13672,0-.51953-.40625-1.08203-1.14453-.25391-.34375-.58203-.67188-.71875-.74219-.30469-.16016-.375-.24609-.375-.49609,0-.12891-.08203-.21484-.28125-.3125-.15234-.07031-.28125-.16016-.28125-.19922,0-.10547-.50391-.32813-.80078-.35938-.14844-.00781-.39844.03125-.54297.09375ZM35.18718,12.2599c.51953.33594.44141.66406-.27344,1.12891-.25391.16797-.46875.32813-.46875.35156s-.15234.14453-.34375.26563c-.1875.12109-.40234.28906-.47266.36719-.10547.12109-.19922.14453-.44922.11328-.16797-.02344-.38281,0-.47266.04688-.13672.07031-.22266.04688-.46484-.11328-.21484-.15234-.4375-.21484-.82422-.24609-.39063-.03125-.70313-.12109-1.14844-.33594-.57813-.27344-.625-.32031-.73828-.64844-.0625-.19141-.09375-.39844-.07031-.46484.0625-.16797.38281-.20703.63281-.07813.15625.07813.28516.09375.41406.04688.10547-.03906.27344-.04688.36719-.02344.12109.02344.22656-.01563.35156-.16016.20313-.23438.28125-.25781.43359-.10547.14453.15234.60156.12109.9375-.05469.16016-.08203.34375-.12109.45313-.09766.11328.03125.29688,0,.43359-.07031.13672-.07422.38281-.12109.55859-.10547.17578.00781.33594-.00781.35938-.03125.07422-.07031.54688.05469.78516.21484ZM28.1403,17.02943c.10938.0625.21484.0625.33594.00781.12891-.05469.25391-.04688.45703.03906.56641.25,1.16797.30469,2.16016.21875.42969-.04297.55078-.02734.66406.09375.08594.08984.11719.19141.08594.30469-.13672.44922-.16016.67188-.10547.96875.04297.17578.08203.56641.09766.87891.03125.53516.10547,1.23828.14453,1.375.00781.03125-.01563.21094-.04688.39453-.05078.28516-.01953.41406.26172,1,.17578.36719.33594.79688.35156.94922.07422.54687.19141.73828,1,1.63281.07422.08984.17578.22266.21875.30469.04688.07813.29297.32031.55859.54297.45703.38672.48828.40234.83984.35156.19922-.02344.48828-.04688.64063-.03906.88672.03906,1.3125,0,1.66406-.16016.64844-.29688.97656-.35156,1.61328-.26953.51563.0625,1.63281.11719,2.21875.11719.39063-.00781.52734.02344.65625.15234.19922.19922.14453.39063-.12891.45703-.10547.03125-.17578.09375-.16016.15234.07813.19141-.09766.30469-.51953.33594-.23438.00781-.51953.0625-.63281.10156-.12891.05859-.34375.06641-.60156.01953-.27734-.05078-.46094-.03516-.66406.04688-.24609.09375-.36719.09375-1.23047-.02344-.21484-.03516-.35156,0-.51953.10938-.14453.11328-.35156.16797-.65625.16797-.83984.01563-1.71875-.0625-2.03906-.19141-.41797-.16016-.74609-.16016-1.12109,0-.41406.16797-.78516.22656-1.51953.20703-.35938,0-.84766.05078-1.12109.12109-.28516.07422-.90234.13672-1.52734.14453-.57422.01563-1.12109.05469-1.20703.10547-.22656.11719-1.36719.19141-1.55078.08594-.11328-.05469-.21875-.03906-.38672.03906-.12109.06641-.24609.10547-.26953.08203-.02734-.02344-.12109,0-.21875.04688-.13672.07422-.23047.05859-.51953-.07813-.26953-.13672-.38281-.15234-.51172-.08203-.11328.05859-.27344.05859-.49609.00781-.25391-.05469-.375-.04688-.51172.04297-.12109.07813-.23828.08594-.40625.03906-.15234-.03906-.30469-.03906-.38672.00781-.07813.03906-.21484.05469-.3125.03125-.09375-.02344-.42969-.0625-.75-.08984-.44922-.03906-.61719-.03125-.75391.07422-.16016.10547-.19922.10547-.40625,0-.12891-.0625-.25781-.09766-.29688-.08203-.03906.02734-.16797-.04688-.28906-.16016-.17578-.16797-.27734-.19922-.51172-.16797-.41406.05078-1.16797.27344-1.51172.44141-.32031.16016-.49609.14453-.95703-.09375-.14453-.07422-.30469-.10547-.36328-.07422-.10938.07422-.55078.09766-2.01562.14453-.61328.01563-1.36719.05469-1.67969.07813-.51953.05078-.76563.05859-1.01563.04297-.05469,0-.19141.01563-.30469.03906-.82422.17578-1,.18359-1.21484.05469-.20703-.11719-.23047-.11719-.32813.01563-.0625.08984-.23047.15234-.46484.16797-.19141.01563-.59766.07422-.91016.12109-.30469.04688-.63281.09766-.72266.09766-.25391,0-.82422-.14453-.93359-.24219-.05859-.03906-.24219-.10156-.41016-.13672-.16797-.03125-.35156-.10938-.41406-.17578-.06641-.0625-.19922-.125-.29688-.14453-.09375-.02344-.20703-.07031-.25391-.11719-.04297-.03906-.12891-.08203-.19531-.08203-.05469,0-.4375-.16016-.83984-.35938-.77344-.38281-1.16016-.75781-1.0625-1.05469.03906-.12891.38281-.57031.59375-.76172.07813-.07031.65234-.65625,1.125-1.14453.69531-.71875,1.30469-1.25391,1.44141-1.27734.07031-.01563.18359-.03516.25391-.03516.12109-.00781.33594-.15625.76953-.55859.22266-.19922.98438-.50391,1.28125-.50391.09375,0,.28516-.12891.42188-.27344.22656-.24609.28906-.26953.70703-.26953.26953-.00781.51953-.04688.60547-.12109.19141-.14453.54297-.15234.91406-.02344.23828.08594.27734.08594.39844-.07031.20703-.27344.54297-.37109.80078-.23438.26172.13672,1.09375.09766,2.13672-.09375.22266-.04297.6875-.06641,1.03906-.05078s.80078.01563,1,.01563h.51953c.32031.02734.80859.00781,1.12109-.03125.17578-.02344.57422-.05469.87891-.07813,1.17578-.07422,1.39844-.09766,1.67969-.19141.16016-.05859.3125-.08203.32813-.05859.02344.02344.33594-.07031.69531-.19922.35938-.13672.80078-.26563.97656-.28906.17578-.01563.33594-.0625.35938-.08594.08984-.12109,1.00781-.64844,1.13672-.64844.08203,0,.16797-.10547.21484-.26563.07422-.21484.17578-.3125.51172-.45313.45703-.21094.85938-.53125.85938-.69141,0-.25391.79688-.8125,1.18359-.82422.10156-.00781.26172.03516.35156.08203Z"/>
  <path class="b" d="M41.40983,15.72474c-.17578.02344-.46875.28906-.93359.84766-.14453.16797-.28906.67969-.28125.98438.00781.05469.00781.16797.01563.24219,0,.07813.03906.39063.08984.70313.0625.44531.12891.59766.30469.76563.35156.32813.70313.5625.8125.54688.20313-.02344.28125.00781.48828.19922.44922.41406.67969.54297.85156.44922.08594-.04297.35938-.08203.60547-.08203.26563,0,.55078-.05469.70313-.13672.35156-.18359.84766-.26172,1.07422-.17578.14453.05859.26953.03125.50391-.08594.17578-.08984.36719-.16016.42969-.16016.15234,0,1.15234-.30469,1.36328-.41797.07813-.03906.21484-.08594.30078-.10156.08984-.02734.25-.12891.35547-.24219.10156-.11328.26953-.19922.39063-.19922.11328,0,.19922-.03125.19922-.07031,0-.04297.08203-.10547.17578-.13672.09766-.02344.21484-.09766.27344-.14453.04688-.04688.19141-.17578.3125-.27344.17578-.16016.20703-.23047.16797-.42969-.02734-.13672-.05078-.3125-.05078-.40234,0-.17578-.32813-.33594-.85547-.42188-.27734-.04297-.38281-.01563-.64844.16016-.17578.10938-.44531.21484-.60547.22266s-.30469.05469-.32031.11328c-.05078.11719-.95313.375-1.32813.36719-.23438,0-.92969-.20703-1.25-.36719-.18359-.08984-.36719-.13672-.42188-.10547-.05078.03125-.33594-.05469-.64063-.19141-.49609-.23438-.59375-.3125-.87891-.76953-.18359-.27734-.38672-.51172-.45703-.51172-.0625,0-.21484-.04688-.33594-.10156-.12109-.05859-.30469-.08984-.41016-.07422Z"/>

</g>
</svg>