<?xml version="1.0" encoding="UTF-8"?>
<svg xmlns="http://www.w3.org/2000/svg"
     version="1.1"
     width="19.86592738mm"
     height="9.75134101mm"
     viewBox="0.00000000 0.00000000 56.31284314 27.64160866">

<g transform="scale(3.27041836)">   <defs>
      <style type="text/css"><![CDATA[
      .a {
        stroke: #000;
        stroke-linecap: round;
        stroke-linejoin: round;
        stroke-width: 0.15px;
      }
    ]]></style>
   </defs>
   <path class="a"
         d="M.07814,6.60015c-.087-1.3496,1.6513-2.3437,2.7705-2.4707a6.179,6.179,0,0,1,3.2656.5176,6.45678,6.45678,0,0,0,.8945.335,21.6177,21.6177,0,0,0,3.7354.4629c1.1435.0849,2.2607.3662,3.4111.3681.7852.002,1.7656-.2363,2.4404.2959a1.80054,1.80054,0,0,1,.5108,1.2432c.0996.5684.0381.9297-.6573.9609a66.63529,66.63529,0,0,1-13.9033-.8476C1.74314,7.33655.13764,7.52105.07814,6.60015Z"/>
   <path class="a"
         d="M3.45794,2.35315a11.06372,11.06372,0,0,0-1.4482,1.664c-.4629.7491.54.4043.8838.1162.4512-.3769,1.039-.7783,1.584-1.1796a12.253,12.253,0,0,1,2.3164-1.4483c.4707-.208,1.9677-.6377,1.7129-1.3974a5.84366,5.84366,0,0,0-1.962.123,8.264,8.264,0,0,0-1.6093,1.0762A7.906,7.906,0,0,0,3.45794,2.35315Z"/>

</g>
</svg>
