<?xml version="1.0" encoding="UTF-8"?>
<svg xmlns="http://www.w3.org/2000/svg"
     version="1.1"
     width="71.28086814mm"
     height="21.44178517mm"
     viewBox="0.00000000 0.00000000 202.05600021 60.77987363">

<g transform="scale(5.60178520)">   <defs>
      <style type="text/css"><![CDATA[
      .a {
        stroke: #000;
        stroke-miterlimit: 10;
        stroke-width: 0.15px;
      }
    ]]></style>
   </defs>
   <path class="a"
         d="M4.80622,3.73484c-1.08621.67608-.937.60767-1.84451,1.17335A13.66814,13.66814,0,0,0,.78494,6.44761C.21983,6.957.03383,7.23691.08239,7.50739c.06417.3575.51241.55534.76638.66362a3.567,3.567,0,0,0,2.01064.19149c1.34939-.27243.8416.27414,6.6383.03192a40.31353,40.31353,0,0,1,6.67021.31915c.0001,0,.96221.14983.94885.34677-.00968.14258-.75865.07438-.95323.47706a.599.599,0,0,0,.09493.63578,1.46867,1.46867,0,0,0,.62266.31,4.54637,4.54637,0,0,0,1.53713.28951,9.80765,9.80765,0,0,0,2.64148-.96688c.5182-.18132,1.06862-.26115,1.58134-.45743a1.938,1.938,0,0,0,1.1924-1.06007A1.069,1.069,0,0,0,23.221,6.94258a.38019.38019,0,0,1,.13918-.26951,22.00022,22.00022,0,0,1,3.62-2.03994c1.4047-.73747,2.82362-1.45093,4.2838-2.073A16.05435,16.05435,0,0,0,35.90451.08825a1.7732,1.7732,0,0,0-.763.09652c-1.77749.49618-3.55828.99345-5.27938,1.65941-1.45557.56321-1.40151.52276-1.44509.541-2.93384,1.2258-2.86224,1.99244-4.90873,2.754-.0001,0-1.9217.71507-2.234,1.37234a.58781.58781,0,0,1-.25532.28723.87947.87947,0,0,1-.734-.09574,21.53908,21.53908,0,0,0-4.21277-.44681,39.41693,39.41693,0,0,0-5.16689.03067c-.0001,0-1.62655.0895-3.09265.10982a10.8415,10.8415,0,0,1-1.64048-.02,2.68564,2.68564,0,0,1-.76818-.0395.58815.58815,0,0,1-.34619-.29675.509.509,0,0,1-.02816-.263c.061-.31647.5286-.4881.67021-.54255A7.13683,7.13683,0,0,0,8.3601,3.32946c.1652-.21112.20925-.33324.53122-.74355.25276-.32211.40057-.4698.353-.56633-.061-.12372-.39992-.07609-.60828-.04006a6.96383,6.96383,0,0,0-1.98416.66991C6.04159,2.97721,5.55093,3.27131,4.80622,3.73484Z"/>

</g>
</svg>
