<?xml version="1.0" encoding="UTF-8"?>
<svg xmlns="http://www.w3.org/2000/svg"
     version="1.1"
     width="66.77336123mm"
     height="52.74674349mm"
     viewBox="0.00000000 0.00000000 189.27883651 149.51833640">

<g transform="scale(5.92805909)">   <defs>
      <style type="text/css"><![CDATA[
      .a {
        stroke: #000;
        stroke-miterlimit: 10;
        stroke-width: 0.15px;
      }
    ]]></style>
   </defs>
   <path class="a"
         d="M23.92761,6.27838c.39624-.01473.68988.33542,1.07234.79149.44432.52983.66649.79475.6383,1.14893-.023.28912-.19755.51209-.53617.94468-.22055.28174-.25244.25621-.47153.53438-.32315.41031-.34015.57555-.60082.94647a6.11214,6.11214,0,0,1-.766.817c-.535.541-.80541.86049-1.00032,1.06714a26.26211,26.26211,0,0,1-6.51019,4.16257c-.058.02449-.40942.17188-.93614.39474-.88076.37265-.84065.35925-.94909.40108-.92025.35492-.99223.233-1.65958.53617-.52739.23959-.99566.51059-.99574.51063-.4693.27161-.58733.38663-.79149.35745-.22755-.03252-.31795-.20929-.766-.79149-.60081-.78077-.70449-.80886-.67732-.9446.06894-.34434.78441-.40486,2.32217-.75875.5704-.13127,1.13306-.29427,1.70133-.43443a12.63183,12.63183,0,0,0,5.06066-2.52532,33.84975,33.84975,0,0,0,2.41869-2.639c.11617-.13271,1.45378-2.41913,1.65957-2.83405a4.29361,4.29361,0,0,1,.68936-.99574,2.49174,2.49174,0,0,1,.55129-.48013A1.18441,1.18441,0,0,1,23.92761,6.27838Z"/>
   <path class="a"
         d="M2.66618,1.68513a1.70983,1.70983,0,0,0-.66067.55829,1.57407,1.57407,0,0,0-.14672.89991,12.99171,12.99171,0,0,0,.16243,2.16483,7.2274,7.2274,0,0,0,.25532,1.2c.45031,1.12238,1.12391.95059,1.48086,1.94043a5.86013,5.86013,0,0,1,.38408,1.88071.59683.59683,0,0,0,.11318.46887.52486.52486,0,0,0,.28077.12414,2.60714,2.60714,0,0,1,.70282.36032c.5673.34918.54479.777.817.817.23313.03424.49472-.24353,1.12341-1.37872C7.98651,9.26225,8.3891,8.51745,8.324,7.76a3.20593,3.20593,0,0,0-.41088-1.34479c-.26666-.39813-.59788-.75241-.837-1.16768a8.37746,8.37746,0,0,1-.64163-3.59794A2.0356,2.0356,0,0,0,5.971.31993c-.48654-.47758-.88272-.164-1.25891.15623A14.314,14.314,0,0,1,2.66618,1.68513Z"/>
   <path class="a"
         d="M9.11852,16.96872a4.46969,4.46969,0,0,0-1.642-.057,4.7126,4.7126,0,0,0-.9855.29269c-.84952.31529-1.75475.44815-2.625.70047a4.40157,4.40157,0,0,0-2.2998,1.36385c-.14818.18872-.272.46049-.13325.65626.12991.18332.46378.17135.57913.16519,7.77918-.41578,11.66877-.62367,11.75383-.63733.0001,0,10.79047-.84355,11.32714-.77429.9519.12284,1.50238.189,1.8997.61712a2.30752,2.30752,0,0,1,.467,1.6648,1.5415,1.5415,0,0,1-.19321.80489c-.21633.33046-.63689.48677-.84242.824a2.04707,2.04707,0,0,0-.17894.747c-.11911.79278-.25472,1.69542.00528,1.801.068.02763.14679-.006.304-.073a1.34681,1.34681,0,0,0,.40493-.28021c.379-.33.74719-.67248,1.10019-1.03012a17.63936,17.63936,0,0,0,3.01912-4.11022,3.19984,3.19984,0,0,0,.24119-.61564,6.16,6.16,0,0,0,.26727-1.618c.12655-1.78414.38672-1.90587.20426-2.14468-.4371-.5721-1.75456.3563-5.00887.8946-.0001,0-1.99686.32885-5.04738.4902-.89.04708-.79355.01271-2.53495.07816-1.84935.0695-2.774.10425-4.01007.19962a28.47726,28.47726,0,0,1-3.16044.25231A20.00738,20.00738,0,0,1,9.11852,16.96872Z"/>
   <path class="a"
         d="M21.47654,7.68263a2.26423,2.26423,0,0,0-.10212.91915c-.0063.87954.19508,1.03967.02552,1.40425-.17485.376-.49265.42849-.4851.74043a.80112.80112,0,0,0,.25532.48511,1.08646,1.08646,0,0,0,.6383.40851c.32293.04562.36913-.168.79149-.17872a2.12353,2.12353,0,0,1,.74042.15319c.33752.112.39124.18773.5617.17872.05648-.003.26738-.02277.58724-.35745.43324-.45331.36692-.75247.766-1.27659a7.91756,7.91756,0,0,1,.5617-.5617c.69625-.66828.92556-.80536.94468-1.09788a.99016.99016,0,0,0-.25532-.61276,3.2502,3.2502,0,0,0-.99574-.89362c-1.21359-.83624-1.277-.86126-1.40426-.86808a4.0082,4.0082,0,0,0-1.35319.61276C21.75866,7.28373,21.58667,7.444,21.47654,7.68263Z"/>
   <path class="a"
         d="M7.49571,4.05439c-.47206.33182-.70809.49773-.82768.7942-.19265.47762.10331.74423.15319,1.71064a4.87753,4.87753,0,0,1-.06993,1.13295A9.36641,9.36641,0,0,1,5.9104,9.58479a17.26217,17.26217,0,0,1-.82925,1.69671,13.34723,13.34723,0,0,1-1.48266,2.05269C1.1724,16.17552-.03816,17.59887.08332,17.73044c.08149.08827.63263-.31988,1.38338-.83741,2.89022-1.9924,2.99214-1.6445,4.27572-2.67441A16.98468,16.98468,0,0,0,9.52761,9.54646a14.27373,14.27373,0,0,0,1.14893-2.17021c.88839-2.12957.89139-3.696.46387-4.394a.9925.9925,0,0,0-.59789-.5003.84788.84788,0,0,0-.65486.16157,10.84121,10.84121,0,0,1-1.04788.69342A6.29088,6.29088,0,0,0,7.49571,4.05439Z"/>

</g>
</svg>
