<?xml version="1.0" encoding="UTF-8"?>
<svg xmlns="http://www.w3.org/2000/svg"
     version="1.1"
     width="35.24529059mm"
     height="21.49204186mm"
     viewBox="0.00000000 0.00000000 99.90792674 60.92225974">

<g transform="scale(4.16597212)">   <defs>
      <style type="text/css"><![CDATA[
      .a {
        stroke: #000;
        stroke-miterlimit: 10;
        stroke-width: 0.15px;
        fill-rule: evenodd;
      }
    ]]></style>
   </defs>
   <path class="a"
         d="M19.68812.91707c-8.0835,1.5518-13.665,5.6026-19.58987,9.3106-.2788-1.5821,2.03176-2.0498,2.521-3.4893a5.42874,5.42874,0,0,0,1.939-1.5527c2.38867-1.1045,4.60449-2.3799,7.56445-2.9102A23.95668,23.95668,0,0,1,15.80824.72377C16.95716.33117,19.00306-.61123,19.68812.91707Z"/>
   <path class="a"
         d="M23.78135,9.66127c.8545,1.4004-2.916.707-3.37887.708-1.91456.0019-3.87208.1972-5.79639.334-1.063.0752-2.09912.4004-3.15381.5078-1.15625.1172-2.22705.499-3.42481.6543-.71044.0918-1.40966.3457-2.12011.4638a4.41491,4.41491,0,0,0-2.00147.9561c-.62695.4307-1.85449.9678-2.55957.3711-.76269-.6455.62744-1.1533,1.1753-1.4815a35.232,35.232,0,0,1,4.20507-2.1943A25.55173,25.55173,0,0,1,17.3556,7.96207a13.52283,13.52283,0,0,1,3.43945.4873c.7529.1953,2.2637.3339,2.7896.9472A2.05993,2.05993,0,0,1,23.78135,9.66127Z"/>
   <path class="a"
         d="M13.2721,14.36927h3.09717c.49951,0,1.00684.0263,1.50537-.001a14.49549,14.49549,0,0,0,1.53516-.3398c.74268-.1182,1.52395-.3516,2.24215-.4551a3.07563,3.07563,0,0,0,1.795-.874c-.3687-.7041-4.74565.0058-5.545.0029-1.93213-.0059-3.83692.167-5.78711.167-1.86719,0-3.74561-.1738-5.52783-.167a27.87321,27.87321,0,0,0-4.48389.1963c-.19238.5273-.63965.8623-.227,1.292a2.40624,2.40624,0,0,0,1.33984.3486C6.56165,14.59777,9.90736,14.36927,13.2721,14.36927Z"/>

</g>
</svg>
