<?xml version="1.0" encoding="UTF-8"?>
<svg xmlns="http://www.w3.org/2000/svg"
     version="1.1"
     width="22.38108080mm"
     height="70.93051311mm"
     viewBox="0.00000000 0.00000000 63.44241381 201.06288088">

<g transform="scale(5.75896889)">   <defs>
      <style type="text/css"><![CDATA[
      .a {
        stroke: #000;
        stroke-miterlimit: 10;
        stroke-width: 0.15px;
      }
    ]]></style>
   </defs>
   <path class="a"
         d="M6.80322,2.31254a10.06464,10.06464,0,0,0-.63257,3.03024c-.30734,4.09293-3.199,8.95395-2.73764,10.06763.02255.05441.21757.49689.05106.66385-.08961.08987-.21328.02905-.33191.12765-.15036.125-.11133.35529-.12767.58722a2.45037,2.45037,0,0,1-.3367.89069c-.785,1.65765-.97609,2.0039-.81223,2.24975a1.81138,1.81138,0,0,0,.58444.46665c.33468.20291.54339.2381.539.29931-.00514.071-.2949.15085-1.60851.17872-.04283.47592-.11343,1.16409-.2298,1.9915-.09892.70338-.1857,1.18585-.305,1.86087C.49222,26.78256.31051,27.81053.26705,28.15084c-.10936.85642-.13248,1.69435-.17873,3.37023-.0412,1.49278-.0121,2.15634.45958,2.70637a1.6166,1.6166,0,0,0,1.13046.61,1.53213,1.53213,0,0,0,1.31144-.75534c.2645-.4545.19641-.96094.06023-1.97382-.07744-.576-.1916-1.00485-.12262-1.02783.05592-.01863.15846.254.40347.61932.38382.57222.907,1.0582.99575.99574.06253-.044-.10282-.35195-.229-.64259a9.238,9.238,0,0,1-.48588-3.26379,17.81746,17.81746,0,0,1-.02939-2.01395c.0396-.80962.14324-1.29.323-2.583.17014-1.22346.3416-2.37346.39032-2.67584.359-2.22853,1.37039-3.84917,2.46256-6.61381,2.39042-6.051,1.67224-7.783,3.31725-10.20737a3.32164,3.32164,0,0,0,.8624-1.9476c-.02805-.41-.57641-.90757-1.59725-1.91135C8.75248.25782,8.43873.00572,8.15641.09129c-.203.06155-.29206.26815-.434.56167C7.17921,1.77586,7.0845,1.64161,6.80322,2.31254Z"/>

</g>
</svg>
