<?xml version="1.0" encoding="UTF-8"?>
<svg xmlns="http://www.w3.org/2000/svg"
     version="1.1"
     width="72.59332144mm"
     height="18.00347860mm"
     viewBox="0.00000000 0.00000000 205.77629293 51.03355234">

<g transform="scale(6.14690259)">   <defs>
      <style type="text/css"><![CDATA[
      .a {
        stroke: #000;
        stroke-miterlimit: 10;
        stroke-width: 0.15px;
      }
    ]]></style>
   </defs>
   <path class="a"
         d="M5.37476,3.99063c-1.19106-.03848-1.1357-.245-2.21276-.21276a3.7757,3.7757,0,0,0-2.75936.93977,1.04154,1.04154,0,0,0-.31233.53147c-.11319.58115.42822,1.12556.73126,1.42238,1.06011,1.03833,2.99124,1.97247,3.617,1.3617.44-.42945-.12958-1.26718.383-1.78724.2493-.25295.56858-.16673,1.82979-.17021.08559-.00024.597-.01493,1.62-.04431,2.44726-.07031,2.96048-.24849,3.06089-.55143.07195-.2171-.11006-.37159,0-.51064.14789-.18684.668-.02781,1.70213.29787a10.87652,10.87652,0,0,1,1.48936.51064c.74716.68849.26843,1.80384.93617,2.17021A1.01112,1.01112,0,0,0,16.501,7.84289c.39041-.30767.245-.81891.43335-1.25938.22669-.53009.91037-.89573,2.8152-1.10938,3.56819-.40021,5.41861.40618,7.15715-.63243a4.069,4.069,0,0,1,.7234-.383c1.19824-.46594,2.02709-.0304,3.10638-.08511,1.43335-.07265,2.73078-.98066,2.66237-1.24214-.1658-.63371-8.975.15642-13.17623.18395a2.8163,2.8163,0,0,1-1.71949-.387c-.78659-.53976-.74152-1.31912-1.8092-2.2569A1.73763,1.73763,0,0,0,15.63008.07574,1.827,1.827,0,0,0,13.928,1.43744c-.01278.13491.00241.33435-.12766.42553-.037.02591-.12609.07144-.59574-.04255a4.51784,4.51784,0,0,0-.46808-.12766,1.11155,1.11155,0,0,0-.766.34043,1.33742,1.33742,0,0,0-.51064.89361c-.011.28341.12084.40671.033.55281-.124.20634-.51865.17961-.67135.1706-.694-.041-1.39231.10012-2.0851.04255C7.17263,3.56281,7.19478,4.04944,5.37476,3.99063Z"/>

</g>
</svg>
