<?xml version="1.0" encoding="UTF-8"?>
<svg xmlns="http://www.w3.org/2000/svg"
     version="1.1"
     width="16.04887752mm"
     height="46.01376462mm"
     viewBox="0.00000000 0.00000000 45.49291253 130.43274619">

<g transform="scale(3.21374770)">   <defs>
      <style type="text/css"><![CDATA[
      .a {
        stroke: #000;
        stroke-linecap: round;
        stroke-linejoin: round;
        stroke-width: 0.01px;
      }
    ]]></style>
   </defs>
   <path class="a"
         d="M6.58565.11047a1.28149,1.28149,0,0,1-.49219.27734,2.48339,2.48339,0,0,0-.957.543.27047.27047,0,0,1-.26562.08984,3.83551,3.83551,0,0,0-1.375.86719,2.00067,2.00067,0,0,1-.91016.48438.66776.66776,0,0,0-.30859.17187,7.41711,7.41711,0,0,1-1.17582,1.0781,2.0848,2.0848,0,0,0-.39062.34765c-.25781.28516-.30859.375-.25781.48828a.656.656,0,0,1,.07422.28126c0,.23828.32812.332.94921.26953a2.52224,2.52224,0,0,0,.77735-.16407,2.26005,2.26005,0,0,1,1.14062-.16015c.31641.01562.85157.01562,1.25.00781a9.41441,9.41441,0,0,1,2.3086.293c.5.12891.69922.15234.85156.08984.21484-.082.58984.05469.58984.21875,0,.04688.07422.01563.168-.0664.3086-.293.47266-.33985.707-.21094a.59834.59834,0,0,1,.26563.26562c.05078.15625-.07422.44922-.19141.44922a4.77463,4.77463,0,0,0-.92187.82422,4.44111,4.44111,0,0,1-.5586.42969c-.21093.13281-.45312.30078-.543.375a4.82252,4.82252,0,0,1-.80078.46875A3.86367,3.86367,0,0,1,6.07,7.99331a.69775.69775,0,0,0-.46484.37891,1.19676,1.19676,0,0,1-.21875.3164,9.7288,9.7288,0,0,0-1.043.90235,4.85183,4.85183,0,0,1-.78906.52734A4.46068,4.46068,0,0,0,2.21846,11.3175a2.3011,2.3011,0,0,1-.42187.37891A3.47339,3.47339,0,0,0,.53487,13.18078a2.19694,2.19694,0,0,1-.44922.9336c-.11719.03906-.10547.77734.02734,1.49218.01563.10547.03907.21875.03907.25.00781.03516.05078.05078.10156.02735a1.20576,1.20576,0,0,1,.75781.36328,1.01962,1.01962,0,0,0,.39063.23437c.10156.01953.30859.06641.45312.10547a2.26157,2.26157,0,0,0,.53125.07422,3.989,3.989,0,0,0,1.40234-.34766.79957.79957,0,0,1,.39844-.10547,1.15927,1.15927,0,0,0,.457-.11328,1.07807,1.07807,0,0,1,.64453-.0664,1.1999,1.1999,0,0,0,.59766-.03906.324.324,0,0,1,.48438.1289,2.15487,2.15487,0,0,1,.082.4961c.03515.37109.207.80078.3164.80078.21094,0,.02735.64843-.23437.83593a.20812.20812,0,0,0-.01563.21094.57789.57789,0,0,1-.10547.41406.99576.99576,0,0,0-.07031.90625c.07031.15625.05078.23438-.14844.543a2.403,2.403,0,0,0-.39062,1.1211c.00781.082.02344.4375.04687.78515a2.17723,2.17723,0,0,1-.04687.78906,2.61315,2.61315,0,0,0,.04687,1.41016c.07813.12891.09375.32422.0625.96484a4.22572,4.22572,0,0,1-.1289.98829,10.6599,10.6599,0,0,0-.44141,1.58984,1.64169,1.64169,0,0,0-.05859.82813,1.92334,1.92334,0,0,1,.07812.4375.72767.72767,0,0,0,.14844.33984,1.867,1.867,0,0,1,.19141.25781c.05078.08985-.22657.69141-.332.69141a1.0549,1.0549,0,0,0-.21094.52734c0,.0625-.01563.332-.02344.60547a2.13661,2.13661,0,0,1-.125.67578,2.783,2.783,0,0,0-.11719.86719,6.00832,6.00832,0,0,1-.10547.98047,3.84945,3.84945,0,0,0-.10937.48828,3.84379,3.84379,0,0,1-.25781.75391,4.12759,4.12759,0,0,0-.41016,1.13281c-.01562.10547-.03516.47265-.05078.82812a2.65678,2.65678,0,0,1-.23047,1.12891,2.26819,2.26819,0,0,0-.19531.7539c.0039.14454.01953.48438.02734.75391.01563.44531.03125.49219.19922.53516a1.4814,1.4814,0,0,0,.88281-.1211c.14063-.05078.35938-.1289.47657-.15625.125-.03125.24218-.0625.28125-.07031a.74594.74594,0,0,1,.10937-.02734,1.04087,1.04087,0,0,0,.26563-.19531.98065.98065,0,0,1,.26953-.19141.28607.28607,0,0,0,.15625-.10546,1.57113,1.57113,0,0,1,.68359-.34375,1.85909,1.85909,0,0,0,.918-.62109,1.89248,1.89248,0,0,1,.48437-.44532,4.13256,4.13256,0,0,0,1.71485-1.57422,2.18479,2.18479,0,0,1,.5-.48046c.18359-.12111.34765-.27345.35937-.33986.02344-.06639.10547-.26562.19141-.4375a.79013.79013,0,0,0,.10547-.3828c-.02344-.04688.01172-.13672.07812-.211a1.3134,1.3134,0,0,0,.19141-.58984c.03125-.25391.06641-.543.082-.64844a4.32818,4.32818,0,0,1,.10938-.5039,2.7289,2.7289,0,0,0,.082-.52735A2.3441,2.3441,0,0,1,11.863,31.5675a.62782.62782,0,0,0,.05078-.47266,2.2449,2.2449,0,0,1-.0039-1.03515,4.3276,4.3276,0,0,0-.13281-1.56641,2.76763,2.76763,0,0,1-.082-.47266c.00782-.27343.00782-.57421-.02343-1.63671a6.5026,6.5026,0,0,1,.03906-1.21485,3.83451,3.83451,0,0,0,.07422-.82812,3.75648,3.75648,0,0,1,.08594-.85938,4.425,4.425,0,0,0,.09765-1.01562,12.01345,12.01345,0,0,1,.06641-1.207c.02734-.1875.05859-.42969.07031-.543a1.0254,1.0254,0,0,1,.06641-.27735.82458.82458,0,0,0-.01953-.39453.73574.73574,0,0,1,0-.457.30612.30612,0,0,0,0-.27344.28253.28253,0,0,1,.01171-.27734,1.304,1.304,0,0,0,.10547-.40628,1.36558,1.36558,0,0,1,.08594-.37891,2.2134,2.2134,0,0,0,.03906-.64843,1.87838,1.87838,0,0,1,.09375-.7461c.16407-.32422.1836-.55078.14844-1.74218a3.25314,3.25314,0,0,1,.05078-.90235,2.78719,2.78719,0,0,0,.11719-.98047.80073.80073,0,0,1,.06641-.332.49268.49268,0,0,0,.00781-.32422.69224.69224,0,0,1,.03515-.457,1.13741,1.13741,0,0,0,.06641-.47656c-.01953-.1211-.043-.32422-.05859-.44531a1.21753,1.21753,0,0,0-.96094-1.09375c-.13281,0-.25781.02343-.27344.05468a5.17585,5.17585,0,0,1-1.168.76172,1.96857,1.96857,0,0,0-.50781.31641.30989.30989,0,0,1-.35156.11328c-.39063-.09766-.63281-.07031-.8086.08984a.41829.41829,0,0,1-.24609.09766.96067.96067,0,0,0-.65234.375c-.1836.28125-.30078.37891-.44141.37891-.19141,0-.38281-.21875-.332-.37891.02344-.07422.05859-.20313.07422-.27734.02344-.07422.10156-.375.1914-.66407.082-.293.1836-.668.21875-.84375A2.49405,2.49405,0,0,1,8.17159,9.048c.04687,0,.07422-.08985.07422-.20313,0-.14062.10546-.293.34765-.52734a2.5517,2.5517,0,0,1,.40235-.32422,2.0317,2.0317,0,0,0,.41406-.35937,3.27239,3.27239,0,0,1,.625-.50782.80556.80556,0,0,0,.30859-.26171,1.0389,1.0389,0,0,1,.38281-.30079,1.93552,1.93552,0,0,0,.5625-.50781c.1211-.17969.25-.32422.28907-.32422a5.857,5.857,0,0,0,1.00781-1.03125.75338.75338,0,0,1,.125-.25.89166.89166,0,0,0,.17578-.64062c-.00781-.32422.08984-.42969.39844-.457.3164-.02344.59375-.28907.76172-.71875A1.35459,1.35459,0,0,0,13.863,1.2785c-.14453-.25-.19922-.27735-.58593-.332A1.82593,1.82593,0,0,1,12.6716.79025c-.39453-.26563-.51172-.26563-.75782-.02344l-.22656.22656L11.38643.80978a1.2789,1.2789,0,0,0-.71484-.1875,4.5443,4.5443,0,0,1-1.375-.26953A1.86041,1.86041,0,0,0,8.65987.28234c-.19922.03125-.28125.00782-.38281-.11718C8.15206.02062,8.06221.005,7.37862.005,6.79659.005,6.613.02844,6.58565.11047Z"/>

</g>
</svg>
