<?xml version="1.0" encoding="UTF-8"?>
<svg xmlns="http://www.w3.org/2000/svg"
     version="1.1"
     width="17.71126383mm"
     height="12.32204700mm"
     viewBox="0.00000000 0.00000000 50.20514698 34.92869966">

<g transform="scale(5.25628538)">   <defs>
      <style type="text/css"><![CDATA[
      .a {
        stroke: #000;
        stroke-miterlimit: 10;
        stroke-width: 0.15px;
      }
    ]]></style>
   </defs>
   <path class="a"
         d="M4.17313,1.97767a1.107,1.107,0,0,1,.45753.29543c.15752.1738.123.258.1983.302.278.16244,1.1513-.75051,2.5-1.95834.38422-.34408.6234-.54767.95833-.54166a1.37147,1.37147,0,0,1,1.106.9023,1.94834,1.94834,0,0,1-.011,1.21156A4.81829,4.81829,0,0,1,8.36724,4.161a7.0325,7.0325,0,0,1-2.205,1.58083c-.91871.51593-1.38383.77008-1.66667.58334-.497-.32813-.06312-1.70032-.45833-1.83334-.08733-.02939-.18322.02208-.375.125a2.52872,2.52872,0,0,0-.75.625,4.481,4.481,0,0,1-2,1.29168A.66811.66811,0,0,1,.449,6.52235a.73669.73669,0,0,1-.35362-.49213C.054,5.85916.04576,5.58868.37062,5.03347a4.47669,4.47669,0,0,1,1.08334-1.25c.7582-.57555.97441-.35487,1.375-.83334.38433-.45906.39541-.91315.79787-1.01582A1.05,1.05,0,0,1,4.17313,1.97767Z"/>

</g>
</svg>
