<?xml version="1.0" encoding="UTF-8"?>
<svg xmlns="http://www.w3.org/2000/svg"
     version="1.1"
     width="40.81506851mm"
     height="44.33983070mm"
     viewBox="0.00000000 0.00000000 115.69622996 125.68765385">

<g transform="scale(4.67561906)">   <defs>
      <style type="text/css"><![CDATA[
      .a {
        stroke: #000;
        stroke-linecap: round;
        stroke-linejoin: round;
        stroke-width: 0.01px;
      }
    ]]></style>
   </defs>
   <path class="a"
         d="M12.04613.05616c-.44821.06663-.93276.30891-.97516.49061-.0424.16354-.36947.38159-.47849.315-.03635-.02422-.103.00606-.14537.06057a2.30072,2.30072,0,0,1-.93276.55724c-.24228.04845-.50273.23016-.5209.36341-.02423.13931-.11508.22411-.43.38764a1.685,1.685,0,0,0-.6178.51484,1.83471,1.83471,0,0,1-.32708.27256,1.632,1.632,0,0,0-.53906.86614.70082.70082,0,0,1-.07874.23016.35577.35577,0,0,0-.06057.23622.53374.53374,0,0,1-.01817.26651,1.13761,1.13761,0,0,0,0,.49666,6.89083,6.89083,0,0,1,.07261.98728c.00606.59963.02423.69655.1272.76923a.24809.24809,0,0,0,.19987.05451c.18777-.07268.61175.20594.642.424.01817.14537.3937.3513.55723.30891a1.29177,1.29177,0,0,1,.58147.13931,4.57479,4.57479,0,0,0,.73288.212.66993.66993,0,0,1,.62386.49061c.01817.103.0424.24833.05452.33313.103.58146.103.59357-.0424.84191A8.37413,8.37413,0,0,1,8.70272,11.534c-.0848.01817-.15748.05451-.15748.07874a1.20293,1.20293,0,0,1-.27862.25439,2.62193,2.62193,0,0,0-.48455.51484,1.063,1.063,0,0,1-.40581.3937,1.81693,1.81693,0,0,0-.33919.18776,1.30717,1.30717,0,0,1-.36943.16957.46429.46429,0,0,0-.30285.212.91289.91289,0,0,1-.315.28468,1.16021,1.16021,0,0,0-.3513.33313.84476.84476,0,0,1-.315.29073.91521.91521,0,0,0-.55723.533.35824.35824,0,0,1-.20594.24228,3.21767,3.21767,0,0,0-1.28406,1.12052.3592.3592,0,0,1-.218.23017.26283.26283,0,0,0-.17562.15149c-.02423.06057-.06663.11508-.09691.11508s-.05451.05451-.05451.1272a5.98222,5.98222,0,0,1-1.01158,1.54447c-.3937.424-.44215.49061-.44215.58753A.8697.8697,0,0,1,1.18,19.196a3.41363,3.41363,0,0,0-.27256.46033c-.06057.14536-.13931.26044-.1696.26044a1.33343,1.33343,0,0,0-.3089.62993.50492.50492,0,0,1-.15142.25439c-.13931.13931-.15748.212-.18171.76923C.07764,21.9095.0474,22.37588.03528,22.6L.005,23.01793l.27256.26046a.8172.8172,0,0,1,.27256.4058c0,.15748.52089.69655.82374.854a.99586.99586,0,0,1,.29679.27862.60954.60954,0,0,0,.21805.218,1.32883,1.32883,0,0,1,.29678.212.964.964,0,0,0,.24834.18171.36779.36779,0,0,1,.13931.09085.85754.85754,0,0,0,.38158.14538.58157.58157,0,0,1,.3089.12113.14091.14091,0,0,0,.1272.06662.83749.83749,0,0,1,.33313.15143.99694.99694,0,0,0,.27862.15143.26283.26283,0,0,1,.13325.07873,1.44611,1.44611,0,0,0,.43.212c.19382.07268.45427.18778.57541.24833a.61106.61106,0,0,0,.49666.06057.95125.95125,0,0,1,.636,0,7.02145,7.02145,0,0,0,.7026.103,1.35371,1.35371,0,0,0,1.08419-.29073,2.92893,2.92893,0,0,1,.72683-.28468,4.2032,4.2032,0,0,0,.62386-.18775c.12114-.04845.2241-.103.2241-.12719a1.64852,1.64852,0,0,1,.69049-.41793,1.79108,1.79108,0,0,0,.46033-.1272,8.21127,8.21127,0,0,1,2.05329-.69654c.05451.01211.16959.0424.26045.06057.12114.03027.1817.103.2665.321a1.67959,1.67959,0,0,0,.81163.86009,9.43124,9.43124,0,0,0,2.79223-.06057,1.07731,1.07731,0,0,1,.54512.006,2.31515,2.31515,0,0,0,.90248-.03028,3.65982,3.65982,0,0,1,1.30224-.13931.5044.5044,0,0,0,.32707-.03635A3.89378,3.89378,0,0,1,20.974,25.477a1.23987,1.23987,0,0,0,.321-.109,1.56027,1.56027,0,0,1,.49061-.12114.9483.9483,0,0,0,.3937-.11508.53375.53375,0,0,1,.38764-.08479.4518.4518,0,0,0,.33918-.06663.51808.51808,0,0,1,.22411-.09691,1.967,1.967,0,0,0,.61175-.44821,2.36366,2.36366,0,0,1,.3089-.34525,2.00934,2.00934,0,0,0,.315-.36341c.01211-.03634.09085-.07268.16959-.07874.21805-.01211.27862-.29679.09691-.48455a2.34759,2.34759,0,0,0-1.68987-.20594,1.44359,1.44359,0,0,1-.49667.0848,2.7715,2.7715,0,0,0-.96911.16959,4.19693,4.19693,0,0,1-.79345.11508,2.24812,2.24812,0,0,0-.62386.103,2.038,2.038,0,0,1-.71472.12114A8.98918,8.98918,0,0,0,18.2,23.58121a1.06588,1.06588,0,0,1-.62387-.05451c-.19382-.103-.41187-.37553-.3513-.44215.02423-.01817-.006-.11509-.06057-.21805a2.66727,2.66727,0,0,1-.14536-.61175c-.0424-.3513-.03634-.44821.04845-.57541a1.27643,1.27643,0,0,0,.109-.58146,2.43931,2.43931,0,0,1,.12114-.69654,7.82044,7.82044,0,0,0,.15142-2.15021c.01211-.93882.01211-.95093-.39976-1.11447a.3505.3505,0,0,0-.37553.01817.824.824,0,0,1-.28467.09691,3.03123,3.03123,0,0,0-.636.54512,5.01966,5.01966,0,0,1-.77528.66021,1.70228,1.70228,0,0,0-.35736.26044c-.51484.55118-.68443.71472-.75711.71472-.0424,0-.15748.109-.24834.24228-.09691.13325-.19382.24227-.2241.24227-.103,0-.30285.41793-.33313.69049a1.18294,1.18294,0,0,1-.06057.33313.51063.51063,0,0,0,.06057.2665.4132.4132,0,0,1,.00606.41793.38038.38038,0,0,0-.03635.29073.166.166,0,0,1,.02423.13325.9332.9332,0,0,0-.04845.28468,1.22931,1.22931,0,0,1-.15143.44821c-.1817.29073-.41187.37553-.86008.29073-.02423,0-.07268-.08479-.109-.17565a.35952.35952,0,0,1,0-.33313c.0424-.09085.09085-.16353.11508-.16353.09691,0,.16959-.56935.103-.76318a.22114.22114,0,0,1,.06057-.24227.39729.39729,0,0,0,.11508-.23016c.006-.06663.03634-.13326.07268-.14537.212-.06663.29679-.23016.29679-.58752a1.38036,1.38036,0,0,1,.20593-.87825.19515.19515,0,0,0,.03635-.19382.31809.31809,0,0,1,.04845-.26651.45877.45877,0,0,0,.09085-.23622.48777.48777,0,0,1,.0848-.24227A1.35158,1.35158,0,0,0,12.9365,17.603c-.12114-.15142-.57541-.29679-.57541-.1817,0,.03028-.109.103-.24227.16353s-.24228.13325-.24228.15748-.05451.06057-.11508.0848a.251.251,0,0,0-.15748.14536c-.03634.12114-.22411.22411-.533.27862-.15748.03029-.25439.109-.39975.3089a.63321.63321,0,0,1-.36948.30285.97741.97741,0,0,0-.33918.18171c-.1696.16353-.53907.33918-.59358.28467-.01817-.01817-.06057.03634-.103.11508a.57968.57968,0,0,1-.27256.24834c-.11508.05451-.20593.12719-.20593.15748a.90591.90591,0,0,1-.15748.24833.42363.42363,0,0,0-.12114.44215.55674.55674,0,0,0,.11508.29679.5108.5108,0,0,1,.0848.30285c.00605.14536.01817.28467.01817.321.03028.4785-.13325,1.30224-.25439,1.30224-.03634,0-.04846.06057-.02423.15142.06057.24834-.13931.3937-.53907.3937a1.71363,1.71363,0,0,1-.46638-.05451c-.07874-.03028-.38158-.1272-.68443-.21805a2.62043,2.62043,0,0,1-1.29618-.62992.69066.69066,0,0,0-.58146-.29073c-.05451.02423-.19988-.06057-.36341-.19988a1.7604,1.7604,0,0,0-.32708-.24227,3.5676,3.5676,0,0,1-.6602-1.2659.45486.45486,0,0,0-.03029-.2241c-.01817-.02423,0-.109.04846-.19988A.29254.29254,0,0,0,3.5725,19.723a.79161.79161,0,0,1,.11508-.7026,1.46885,1.46885,0,0,0,.16959-.51484.44305.44305,0,0,1,.103-.29679.3294.3294,0,0,0,.12719-.19987c.02423-.0848.06663-.15143.09692-.15143s.04239-.0424.01817-.09691c-.03635-.09691.15142-.56935.23016-.56935.02423,0,.06057-.07874.0848-.17565a3.88874,3.88874,0,0,1,1.0539-1.12658c.07268-.01817.12719-.07269.12719-.11508A1.06575,1.06575,0,0,1,5.959,15.4286c.13931-.14536.32707-.35736.41793-.46032a.97134.97134,0,0,1,.46638-.28468,1.77891,1.77891,0,0,0,.38158-.15142,6.72357,6.72357,0,0,0,.62992-.55118c.30891-.35736.50878-.54512.59358-.54512.218,0,.58146-.26651,1.24772-.90854a6.27624,6.27624,0,0,1,.81163-.7026,1.42822,1.42822,0,0,0,.35736-.27862,3.38848,3.38848,0,0,1,.6602-.44821c.32707-.16354.4361-.25439.533-.44821a1.07526,1.07526,0,0,0,.12114-.33313,1.38191,1.38191,0,0,1,.54512-.54512.5782.5782,0,0,0,.20593-.22411,2.0447,2.0447,0,0,1,.23017-.3089c.06057-.06057.09691-.13931.07268-.16959-.05451-.09086.2241-.46639.40581-.53907.13325-.06057.15748-.103.15748-.3513,0-.33919.05451-.58146.13931-.60569.03634-.01211.03634-.06057,0-.13931a.2829.2829,0,0,1,.13768-.37564l.01374-.00594c.06057-.01818.09086-.11509.09086-.26651a.66964.66964,0,0,1,.12719-.39975c.14537-.18171.12114-.30891-.12719-.67232-.14537-.212-.23017-.26045-.61781-.37553a2.38079,2.38079,0,0,0-.56329-.1272.63322.63322,0,0,1-.218-.03634c-.06663-.03028-.12719.00606-.19988.109a1.13867,1.13867,0,0,1-.745.39975,2.8617,2.8617,0,0,1-1.22349-.6178,2.57028,2.57028,0,0,1-.34525-1.00545.49468.49468,0,0,1,.04846-.27256.422.422,0,0,0,.06057-.212,1.14356,1.14356,0,0,1,.07874-.37553c.07268-.218.08479-.32707.03634-.41187a.47224.47224,0,0,1,.27862-.59358,3.06613,3.06613,0,0,0,.54512-.43,1.49174,1.49174,0,0,1,.73288-.44215c.41187-.12114.47244-.16354.94488-.71472.109-.12719.109-.13325.00606-.29679C12.779-.02258,12.70634-.04075,12.04613.05616Z"/>

</g>
</svg>
