<?xml version="1.0" encoding="UTF-8"?>
<svg xmlns="http://www.w3.org/2000/svg"
     version="1.1"
     width="29.57201893mm"
     height="24.66178597mm"
     viewBox="0.00000000 0.00000000 83.82616690 69.90747355">

<g transform="scale(4.52068549)">   <defs>
      <style type="text/css"><![CDATA[
      .a {
        stroke: #000;
        stroke-miterlimit: 10;
        stroke-width: 0.15px;
      }
    ]]></style>
   </defs>
   <path class="a"
         d="M9.69393.31345C8.66831.949,7.49181,1.33283,6.50751,2.03065A38.71763,38.71763,0,0,0,2.80538,4.669a8.33345,8.33345,0,0,0-2,2.42554,6.41663,6.41663,0,0,0-.7234,2.766,3.0556,3.0556,0,0,0,.51063,2.21277,2.74556,2.74556,0,0,0,1.57448.76593A7.16033,7.16033,0,0,0,5.699,12.7115a5.7077,5.7077,0,0,0,2.08511-.72339c.414-.29676.79268-.70664,1.36169-.68085a1.39688,1.39688,0,0,1,.63831.21277,8.60321,8.60321,0,0,1,1.70213,1.31912c1.22278,1.09369,2.235,2.12326,2.42552,2.25534a2.565,2.565,0,0,0,2.17022.08511,3.19718,3.19718,0,0,0,1.57447-1.149,4.75919,4.75919,0,0,0,.59574-2.12766,5.93115,5.93115,0,0,0,0-3.19149A4.2513,4.2513,0,0,0,17.52878,7.52a8.75907,8.75907,0,0,0-2.29786-1.74469c-1.62253-1.07651-1.96923-1.356-2.72341-1.48938a4.22939,4.22939,0,0,0-1.14894-.04254.69291.69291,0,0,1,0,.55319c-.18086.326-.67079.22336-.8085.51065-.15327.31973.28429.8002.21277.851-.0589.04187-.26611-.34774-.72342-.51062-.29384-.10464-.50632-.04992-.55318-.17022-.05522-.14173.21883-.27134.21276-.5532a.44463.44463,0,0,0-.21276-.383c-.30031-.13657-.78282.39175-.85107.46808a5.04805,5.04805,0,0,0-.68085,1.31915c-.22517.49088-.19079.39365-.29787.63831-.36833.84158-.55,1.26947-.42553,1.617.12378.34576.433.46918.383.55319-.06056.10172-.47363-.14618-1.234-.25531-.45339-.06506-.55759-.013-.68086-.12765-.33-.307-.04612-1.11069.04255-1.36173A4.99291,4.99291,0,0,1,6.89049,5.64768,8.75977,8.75977,0,0,1,9.48624,3.39234a7.083,7.083,0,0,0,1.234-.76593c.78884-.61279.82242-.91882.8085-1.06384-.01286-.13409-.06782-.14609-.34042-.55319-.41772-.62384-.42821-.804-.63829-.89362C10.22884-.0212,9.83912.22349,9.69393.31345Z"/>

</g>
</svg>
