<?xml version="1.0" encoding="UTF-8"?>
<svg xmlns="http://www.w3.org/2000/svg"
     version="1.1"
     width="42.57592043mm"
     height="42.48002577mm"
     viewBox="0.00000000 0.00000000 120.68766739 120.41584632">

<g transform="scale(4.21885870)">   <defs>
      <style type="text/css"><![CDATA[
      .a {
        stroke: #000;
        stroke-linecap: round;
        stroke-linejoin: round;
        stroke-width: 0.01px;
      }
    ]]></style>
   </defs>
   <path class="a"
         d="M2.74236.14953a1.052,1.052,0,0,0-.17188.30078.34409.34409,0,0,1-.22656.207c-.1211.03125-.17188.08985-.14844.15235.01953.05859-.04687.1875-.14062.28515-.09766.10157-.16407.19922-.14063.22266.05078.043-.125.42969-.19922.42969-.10547,0-.51953.48828-.59375.6914a.80729.80729,0,0,1-.3164.33594c-.26172.14063-.38672.45313-.4375,1.09766a.55931.55931,0,0,1-.19141.4414c-.22266.14844-.23047.74219-.00781.8086a.3564.3564,0,0,1,.19922.27343c.02343.1211.0664.22266.09765.22266a.809.809,0,0,1,.17578.332,2.07364,2.07364,0,0,0,.30469.53907.66642.66642,0,0,1,.18359.30859.36661.36661,0,0,0,.10547.23047.28991.28991,0,0,1,.07422.23437.41253.41253,0,0,0,.11719.3086.722.722,0,0,1,.21484.47265,1.6548,1.6548,0,0,0,.22266.28125c.19922.21875.207.27344.17578.67969a3.18541,3.18541,0,0,0,.10938,1.47266.38334.38334,0,0,1,.00781.32031.27227.27227,0,0,0,.00781.27734.3091.3091,0,0,1,.00781.29688c-.05859.10547-.043.22656.0586.47656a6.09553,6.09553,0,0,1,.0664,2.1875,1.39549,1.39549,0,0,0,.08985.64844c.08984.22265.10937.35156.05859.4414a.92157.92157,0,0,0-.02734.44922,2.99842,2.99842,0,0,1-.14063,1.49219.65234.65234,0,0,0,.10156.36328c.10547.21484.125.32031.06641.42578a1.61214,1.61214,0,0,0-.02734.65235,1.104,1.104,0,0,1-.05469.63671,1.79306,1.79306,0,0,0-.05859.82813c.05078,1.28125.01562,1.78906-.14844,1.99219a.66265.66265,0,0,0-.07422.3789c.02344.29688-.11719.78907-.21875.78907-.04688,0-.0625.03125-.03906.0625a5.66465,5.66465,0,0,1,.125,1.11328A1.81929,1.81929,0,0,1,1.801,25.13a.54279.54279,0,0,0,.04687.56641.66761.66761,0,0,1,.09375.50781,1.97387,1.97387,0,0,0-.03515.28125.88788.88788,0,0,1-.06641.27344.81753.81753,0,0,0,.043.36328,3.20741,3.20741,0,0,1,.09766.44922c.00781.082.01562.21875.02343.30468.01954.26563,1.16016.75782,1.46485.64453a.98841.98841,0,0,1,.35156-.07812.61848.61848,0,0,0,.38672-.27344c.11719-.15234.25781-.30859.30859-.36328.40235-.34766.55078-.52344.57032-.668.04687-.21875.16406-.28515.51953-.28515a1.10232,1.10232,0,0,0,.48047-.11719.72946.72946,0,0,1,.37109-.06641.92733.92733,0,0,0,.51562-.13672,1.81314,1.81314,0,0,1,1.07422-.168,10.71,10.71,0,0,1,1.15235.0625c.42187.05859.57031.03124,1.58593-.33594a5.33872,5.33872,0,0,1,1.21875-.33985,1.61572,1.61572,0,0,0,.48047-.15234,4.44163,4.44163,0,0,1,1.44141-.25c.85156.01563,1-.01563,1.38672-.26563a2.43233,2.43233,0,0,1,.92187-.35546c.29688-.05469.74219-.14454.98438-.20313a4.84333,4.84333,0,0,1,.8164-.13281,1.17679,1.17679,0,0,0,.55469-.14063.69738.69738,0,0,1,.332-.1289,1.15833,1.15833,0,0,0,.4375-.19922,1.14245,1.14245,0,0,1,.707-.25.94992.94992,0,0,0,.5625-.5625c.05469-.21875-.125-.50781-.30859-.50781a.33367.33367,0,0,1-.19922-.10547c-.14062-.14453-.668-.10547-1.125.082a3.95851,3.95851,0,0,1-1,.19922,4.62945,4.62945,0,0,0-.96094.17578,1.34611,1.34611,0,0,1-.53125.07422c-.11328-.02344-.22265-.00782-.24609.03125a2.02117,2.02117,0,0,1-.94531.25781.368.368,0,0,0-.25391.03125,1.21732,1.21732,0,0,1-.57422,0c-.24609-.03906-.59375-.07813-.77734-.09375-.1875-.01562-.51953-.05078-.74219-.082s-.67187-.07031-.99609-.082a3.76192,3.76192,0,0,1-1.5625-.22266,1.28931,1.28931,0,0,0-.45313-.14453,3.96243,3.96243,0,0,1-.961-.21871.54033.54033,0,0,0-.32422.02344.65318.65318,0,0,1-.57032-.082.721.721,0,0,0-.35546-.125,6.09175,6.09175,0,0,1-1.8711-.832,2.6909,2.6909,0,0,1-.082-1.11329.77832.77832,0,0,0,.00781-.40234,1.84525,1.84525,0,0,1,.03907-.707,5.93824,5.93824,0,0,0,.09375-.8711,7.867,7.867,0,0,1,.10546-.98828,2.18935,2.18935,0,0,0,.05079-.76562.30871.30871,0,0,1-.02344-.21094,4.40752,4.40752,0,0,0,.10547-1.65234.96707.96707,0,0,1,.00781-.46485,4.22786,4.22786,0,0,0-.04688-1.62109.56237.56237,0,0,1,.06641-.29688,1.53078,1.53078,0,0,0-.00781-.96093.96089.96089,0,0,1,.03906-.418,1.6327,1.6327,0,0,0,.043-.88672C6.137,9.02068,6.344,8.86834,7.9807,8.841c.95312-.00782,1.05859-.02344,1.27343-.19141a1.007,1.007,0,0,1,1.043-.08984.645.645,0,0,0,.51563.03906.57194.57194,0,0,1,.33984-.01563,1.78867,1.78867,0,0,0,.91016,0,1.34958,1.34958,0,0,1,.59375.043,1.98977,1.98977,0,0,0,.57031.07032.25855.25855,0,0,1,.18359.03125.26443.26443,0,0,0,.23047,0,.45868.45868,0,0,1,.35547,0,1.85123,1.85123,0,0,0,.65625-.00782,11.52941,11.52941,0,0,1,1.38281-.18359c.35547-.03906.77735.06641.77735.19141,0,.03515.15625.05859.35547.05078a3.584,3.584,0,0,1,1.50781.26562.69778.69778,0,0,0,.47656.11328.70382.70382,0,0,1,.42578.07813,3.51485,3.51485,0,0,1,.9336.71094c0,.04687.09765.11328.21484.15234.14844.05469.32422.25781.57031.64453a2.55262,2.55262,0,0,0,.47266.59766,5.96376,5.96376,0,0,1,.96875.93359c.125.13672.21484.28906.19141.33985a.20613.20613,0,0,0,.03906.168,9.95381,9.95381,0,0,1,.7539,1.07813c.06641.13672.14844.25.17579.25a2.57875,2.57875,0,0,1,.37891.59765,5.83282,5.83282,0,0,0,.49609.80469.75859.75859,0,0,1,.17578.34766,1.09107,1.09107,0,0,0,.14843.39453.69731.69731,0,0,1,.13282.32812,1.09738,1.09738,0,0,0,.28906.54688.36435.36435,0,0,1,.09766.20312.81848.81848,0,0,0,.22266.33985.76663.76663,0,0,1,.21875.40234,4.38827,4.38827,0,0,0,.36327,1.13281c.04689.13672.13282.21094.23048.21094a.49621.49621,0,0,1,.29688.15235c.14062.14453.14843.17187.03515.36328a1.78594,1.78594,0,0,0-.332,1.07812,1.43687,1.43687,0,0,1,0,.832.387.387,0,0,0,0,.26563.40986.40986,0,0,1-.01562.28906c-.05077.10547-.02343.1875.15625.37109.19141.20313.25.22657.48828.1836.57031-.11328.85936-.67578.8789-1.75391a1.896,1.896,0,0,1,.082-.5664,4.72366,4.72366,0,0,0,.08984-1.10157c0-.54687.02343-1.48046.043-2.08593a4.84432,4.84432,0,0,0-.043-1.25,2.73964,2.73964,0,0,1-.10548-.67579,2.98115,2.98115,0,0,0-.10156-.668c-.0586-.10547-.03125-.17969.11719-.332.10545-.10546.17186-.22265.14842-.25781-.02342-.03906.02344-.12109.08985-.19922.10156-.10547.13281-.25.11718-.6875-.00781-.54687-.00781-.55468-.37109-.93359-.36719-.40234-.54686-.72266-.48828-.87891.01562-.05468-.02733-.11718-.10938-.13671a1.2,1.2,0,0,1-.33984-.42579,1.108,1.108,0,0,0-.26561-.3789,1.15935,1.15935,0,0,1-.32814-.62891.97124.97124,0,0,0-.17578-.58594A.51537.51537,0,0,1,26.3362,9.302a2.80252,2.80252,0,0,1-.4532-1.19151c.02344-.03516-.01562-.12109-.07422-.1875a.37843.37843,0,0,1-.11719-.207,1.30418,1.30418,0,0,0-.30468-.42188c-.16407-.18359-.28125-.375-.25782-.43359.02735-.082-.23046-.33985-.53515-.53125a.25122.25122,0,0,1-.043-.1211A1.861,1.861,0,0,0,23.922,5.2238a1.46649,1.46649,0,0,1-.375-.32813,3.09877,3.09877,0,0,0-.625-.60546c-.10937-.08594-.26562-.21485-.35156-.28907a2.30992,2.30992,0,0,0-.55078-.32421,2.02157,2.02157,0,0,0-1.07813-.17579,4.82522,4.82522,0,0,1-1.72265-.21093.79737.79737,0,0,0-.33594-.09375,15.15453,15.15453,0,0,1-2.38672-.1875,1.63405,1.63405,0,0,0-.75-.04688.38454.38454,0,0,1-.26562,0,.17164.17164,0,0,0-.168-.02344,8.96748,8.96748,0,0,1-1.75391.13672,9.12866,9.12866,0,0,0-1.7539.13672c-.02344.03125-.09766.01563-.16407-.01562-.082-.043-.25781,0-.5625.14453a1.18561,1.18561,0,0,1-.50781.168A3.68071,3.68071,0,0,0,9.215,3.50109a2.423,2.423,0,0,1-.97656.23438.43366.43366,0,0,0-.28125.10547c-.09375.09765-.32422.13672-.72266.1289a.42886.42886,0,0,0-.24609.09766.31974.31974,0,0,1-.207.10938,1.46038,1.46038,0,0,0-.40625.14843.79563.79563,0,0,1-.4375.11719c-.15625-.05469-.31641-.50781-.33985-.94922a1.46863,1.46863,0,0,0-.16406-.68359,3.46839,3.46839,0,0,1-.19922-.75781,3.22781,3.22781,0,0,0-.33984-.8711A2.59585,2.59585,0,0,0,4.50409.59484a1.95081,1.95081,0,0,1-.30468-.4375C4.15642.02062,4.09.005,3.51189.005,2.965.005,2.84392.02844,2.74236.14953Z"/>

</g>
</svg>
