<?xml version="1.0" encoding="UTF-8"?>
<svg xmlns="http://www.w3.org/2000/svg"
     version="1.1"
     width="61.88340801mm"
     height="30.46025551mm"
     viewBox="0.00000000 0.00000000 175.41758497 86.34404941">

<g transform="scale(4.67561906)">   <defs>
      <style type="text/css"><![CDATA[
      .c {
        stroke: #000;
        stroke-miterlimit: 10;
        stroke-width: .0012px;
      }
    ]]></style>
   </defs>
   <path class="c"
         d="M17.65842,.07106c-.12109,.05078-.19141,.16797-.22656,.375-.02344,.16797-.10938,.44922-.19141,.625-.07813,.17578-.21484,.48828-.28516,.70313-.16797,.44141-.5625,.74609-.875,.66406-.15234-.03906-.19922-.00781-.23828,.14453-.02344,.11328-.12109,.22656-.20703,.25-.08984,.02344-.16016,.07813-.16016,.12109,0,.03906-.05078,.11719-.10547,.17578-.04688,.05469-.19141,.25391-.3125,.4375-.12891,.18359-.3125,.40234-.42188,.47266-.11328,.07031-.20313,.17578-.20313,.23828,0,.06641-.10938,.21094-.25391,.32813-.41797,.36328-.86328,.85938-.86328,.96094,0,.04688,.16016,.15234,.35938,.23438,.30469,.10938,.39844,.11719,.58203,.03906,.44141-.20703,.88281-.32813,1.30469-.35938,.24219-.01563,.625-.07422,.86328-.12109,.48828-.10547,1.97656-.10547,2.65625-.01563,.03125,.00781,.07422,.0625,.10547,.12891,.04688,.13281-.16797,.38281-.28125,.3125-.04688-.02734-.26953,.03125-.49609,.125-.42969,.18359-.84766,.5625-1.05469,.96875-.07422,.12891-.15234,.23047-.18359,.24219-.25781,.02344-.38281,.09375-.60156,.30859-.32031,.32031-1.03125,.80078-1.20703,.80078-.07031,0-.12891,.03906-.12891,.08203,0,.04688-.13672,.14453-.29688,.22266-.16797,.07031-.35156,.18359-.41406,.23828-.05469,.05859-.16797,.08203-.25,.05859-.10156-.03125-.17578,.03125-.27734,.25391-.08203,.16797-.19922,.34375-.27344,.40234-.20703,.15234-.25391,1.14453-.07031,1.32813,.13672,.13672,.25391,.16016,.84766,.14453,.29688-.00781,.46484-.05859,.56641-.16016,.25-.25,.48047-.34375,.71094-.29688,.26562,.05469,1.21875-.12109,1.65625-.30469,.17578-.07813,.41016-.15234,.52344-.16797,.10938-.02344,.34375-.07031,.51953-.12109,.55859-.15234,1.80469-.24609,2.11719-.16797,.28906,.08203,.94531-.05469,1.21094-.24609,.15234-.11328,.27734-.15234,.42188-.11328,.12109,.03125,.28906,.00781,.39063-.04688,.09766-.05859,.40234-.08984,.69922-.07422,.42969,.01563,.58203-.01563,.90234-.18359,.20703-.11719,.43359-.20703,.49609-.20703,.05469,0,.13672-.10547,.18359-.22266,.03906-.12891,.17578-.32813,.28906-.45703,.12109-.12891,.19922-.27344,.17578-.32813s.04688-.23047,.16016-.39063c.12891-.20313,.17578-.35156,.14453-.48047-.03125-.14453,.00781-.24219,.16797-.39453,.12891-.11719,.22266-.30078,.23828-.46094,.01563-.14453,.05078-.32031,.07422-.38672,.07813-.19922-.23438-.59766-.64063-.83984-.42578-.24609-.51172-.33594-.46484-.48047,.0625-.16016,.50391-.375,.67188-.32031,.08984,.03516,.16016,.01953,.16016-.03125,0-.03906,.05469-.13672,.12891-.19922,.09375-.09375,.16016-.10547,.27734-.04688,.21875,.12109,.58594-.08984,.82422-.47266,.19531-.29688,.19531-.3125,.08203-.83984-.0625-.30469-.13672-.58594-.16016-.625-.03125-.04688-.23828-.0625-.51953-.03906-.41016,.03125-.53516,.00781-1.08984-.24219-.42188-.19141-.72656-.27734-.93359-.26953-.17578,.00781-.41797-.02344-.53906-.08203-.14844-.05469-.26172-.0625-.35938-.00781-.09375,.05859-.20703,.05859-.34375-.00781-.11719-.03906-.38281-.08594-.60547-.10156-.21875-.00781-.57813-.09766-.79297-.19141-.33594-.15234-.51172-.17969-1.24219-.16016-1.20703,.03125-1.23828,.02344-1.51953-.25C18.81858,.29762,18.20139-.00707,17.97092,.00075c-.07422,0-.21875,.03125-.3125,.07031Z"/>
   <path class="c"
         d="M34.29123,.73512c-.21875,.05078-.45703,.19141-.65625,.38672-.17578,.17578-.36328,.30859-.41016,.30859s-.19922,.12109-.35156,.25781c-.15234,.14453-.33594,.32031-.41406,.39063-.22656,.19922-.54688,.57031-.69922,.80859-.07813,.12109-.26172,.26563-.41406,.32031-.15234,.04688-.28906,.16016-.32031,.23828-.02344,.08203-.07031,.14453-.11328,.14453-.03906,0-.13672,.12109-.20703,.25781-.07813,.14453-.19141,.30469-.26563,.35938-.07031,.04688-.10156,.12109-.07031,.14453,.03125,.03125,.01563,.13672-.03125,.23047-.05859,.08984-.08984,.20313-.07422,.25,.05078,.13672,.10547,.47266,.12109,.71875,.00781,.12891,.10547,.41797,.20703,.64063,.10547,.21484,.20313,.54297,.21094,.71875,.04688,.59375,.07031,.66406,.25391,.89063,.16016,.20703,.19141,.29297,.21484,.71094,.00781,.08594,.07422,.25391,.15234,.375,.08203,.12109,.16016,.35156,.18359,.51953,.05078,.43359,.08984,.67188,.14453,.91406,.07422,.27734-.10938,.44531-.54297,.50391-.42188,.05469-1.59375,.21484-1.69531,.23828-.03906,.00781-.16797,.07422-.28125,.14453-.10938,.07031-.39063,.15234-.61719,.18359-.23047,.03125-.42188,.08203-.42188,.11328,0,.08594-.375,.24609-.59375,.24609-.10156,0-.28516-.07813-.41406-.17578-.18359-.15234-.32813-.18359-.79297-.17578-.87109,0-1.88672,.12109-2.23828,.27344-.17578,.07031-.46484,.12109-.64063,.11328-.17578-.01172-.63281-.04297-1.00781-.06641-.54297-.03125-2.82422,.11328-3.16016,.20703-.03906,.00781-.41797-.02344-.83203-.07031-.41797-.04688-1.02344-.08984-1.33594-.08984-.32031,0-.76172-.03906-.98438-.09375-.40625-.09766-.46484-.08984-1.32031,.13672-.12891,.03125-.70313,.0625-1.28125,.07031-1.0625,.00781-1.26953,.03125-1.66406,.18359-.20703,.08203-1.44531,.04688-1.59766-.04688-.03125-.01563-.29688-.05469-.60156-.08203-.46484-.03906-.78516-.04688-1.35156-.03125-.07813,0-.39063-.01563-.70313-.03125-.30469-.01563-.71094-.03125-.89844-.03906-.375,0-.61328-.18359-.55859-.41797,.02344-.08594-.02344-.30469-.11328-.48828-.07813-.18359-.14844-.51953-.14844-.73438-.01172-.22266-.04297-.46484-.07422-.55078-.05469-.15234,.17578-.96094,.33594-1.15234,.05469-.07422,.03125-.18359-.09375-.41797-.14453-.26172-.15234-.32031-.05859-.41406,.05859-.06641,.13672-.24219,.16797-.39453s.10547-.35156,.16797-.45313c.06641-.09766,.09766-.22656,.06641-.27344-.11328-.17578-.09766-.73438,.01563-.96094,.10938-.20703,.10156-.23828-.10547-.50391-.12109-.15234-.28125-.28516-.34375-.29688-.0625,0-.15234-.01563-.19922-.02344-.03906-.01563-.27344-.02344-.51172-.03125-.37891-.00781-.45703-.03906-.67969-.27344-.37109-.39063-1.10547-.61328-1.43359-.4375-.09766,.04688-.29688,.09375-.45703,.10156-.15234,.01172-.58984,.16797-.96484,.35547-.38672,.17578-.73828,.32813-.78516,.32813s-.12891,.07813-.17578,.17578c-.05859,.10156-.19922,.28516-.32813,.41406-.12109,.13672-.29688,.38281-.38672,.57031-.14063,.29297-.14063,.35156-.03906,.75781,.06641,.24219,.12109,.57813,.12109,.73438,0,.16016,.07031,.45703,.16016,.66406,.08594,.20313,.15234,.39453,.14453,.42578s.02344,.12891,.07031,.21484c.04688,.08984,.07422,.26563,.06641,.38672-.01953,.125,.02344,.39063,.07813,.58203s.08984,.35156,.07422,.35156c-.02734,0,.02344,.11328,.09375,.25781,.07422,.13672,.14453,.42969,.15234,.65625,.01563,.22266,.04688,.64063,.07813,.92578,.03516,.28906,.06641,.76953,.08203,1.08203,.00781,.30469,.07813,.71094,.14453,.90234,.09375,.25,.10938,.39453,.04688,.55078-.03906,.11328-.05469,.22656-.03906,.25,.02344,.01563-.02344,.16797-.11328,.32812-.09375,.19922-.12109,.33594-.07031,.42188,.09375,.17969-.14453,.85156-.35156,.96094-.27344,.14453-.44141,.33594-.57031,.64063-.08594,.20703-.09375,.30469-.03125,.32031,.04688,.01563,.09766,.11328,.10547,.20703,.00781,.09766,.125,.34375,.26953,.54687,.23438,.32422,.28125,.36719,.51172,.33594,.38672-.05859,1.01563-.23438,1.37891-.37891,.17578-.07031,.35156-.11719,.39063-.10156,.04688,.01563,.51172-.01563,1.04687-.06641,.52734-.04688,1.33594-.09375,1.80078-.10937,.74609-.01563,.88672-.04297,1.27344-.24219,.23047-.12109,.47266-.19922,.52734-.17578,.05469,.01563,.23828-.00781,.39844-.07031,.25781-.08203,.35156-.08203,.57813,.00781,.14453,.0625,.39844,.10938,.56641,.10938,.16016-.00781,1.17578-.02344,2.25781-.04688,1.07813-.01563,2.23047-.04688,2.55859-.0625,.32813-.02344,1.01563-.05859,1.51953-.08984,.50391-.02344,1.08203-.05469,1.28125-.0625,.19922-.01563,.39844-.04688,.44922-.07422,.13281-.08594,.6875-.07813,1.03125,.00781,.24609,.06641,.39844,.05859,.67969-.03906,.47266-.16016,.70313-.19141,1.55859-.19141,.40234-.00781,.84766-.03906,1-.07813,.23438-.05859,1.35938-.25,2.16016-.36328,.11328-.01563,.45703-.03906,.76172-.04688,.375-.01563,.64063-.0625,.81641-.16797,.18359-.11328,.46875-.16016,1.07813-.19141,.96875-.04688,1.18359-.08203,1.29688-.23828,.12891-.17188,.88672-.42578,1.01563-.34766,.19922,.12891,.55859,.07422,.89453-.11719,.18359-.11328,.64063-.32813,1.01563-.49609,.37891-.16016,.76172-.37891,.85938-.48047,.09375-.10547,.26953-.19141,.38281-.19141,.21484,0,.51953,.24609,.51953,.42969,0,.06641,.16016,.35937,.35938,.65625,.19922,.28906,.35938,.5625,.35938,.60156,0,.16797,.32031,.23047,.67969,.13672,.20313-.05859,.36328-.12109,.36328-.15234,0-.10547,.23828-.14453,.42969-.07422,.18359,.06641,.20703,.05078,.32813-.32031,.07422-.22266,.19141-.44531,.26563-.49609,.23828-.18359,.57422-1.02344,.57422-1.42187-.00781-.75391,.14453-1.15234,.64063-1.69531,.21484-.25,.3125-.34375,.41406-.44141,.05859-.05469,.14453-.14453,.19531-.19922,.05469-.05469,.20703-.20703,.34375-.33594,.14453-.12891,.23828-.27344,.22266-.32031s0-.16016,.04688-.24219c.12891-.25391,.13672-.78125,.00781-1.02344-.0625-.11719-.23828-.26953-.39063-.33594-.26563-.10938-.32813-.20703-.28125-.40625,.09766-.41797,.05859-.95313-.08594-1.19141-.15234-.26563-.18359-.6875-.06641-.9375,.04297-.07813-.00781-.27344-.13281-.51172-.11328-.23828-.19531-.52734-.19531-.73438,0-.20313-.03125-.41797-.07813-.49609-.03906-.08203-.09766-.41016-.12109-.73047s-.07813-.64063-.11719-.71875c-.04297-.07031-.05859-.16016-.03516-.18359,.03516-.02344-.02344-.17578-.11719-.32813-.14453-.22266-.16016-.30469-.08203-.47266,.07422-.16797,.06641-.23828-.08594-.44141-.09766-.13281-.16016-.27734-.12891-.32031,.02344-.04688,.00781-.09375-.03125-.10938-.05078-.01563-.09766-.08984-.11328-.16016-.03125-.21484-.375-.54297-.55859-.53516-.09766,.00781-.32031,.04688-.51172,.09375Z"/>

</g>
</svg>
