<?xml version="1.0" encoding="UTF-8"?>
<svg xmlns="http://www.w3.org/2000/svg"
     version="1.1"
     width="27.19505957mm"
     height="40.18681776mm"
     viewBox="0.00000000 0.00000000 77.08838797 113.91538047">

<g transform="scale(7.65684879)">   <defs>
      <style type="text/css"><![CDATA[
      .a {
        stroke: #000;
        stroke-miterlimit: 10;
        stroke-width: 0.15px;
      }
    ]]></style>
   </defs>
   <path class="a"
         d="M5.41522,2.36321a7.92764,7.92764,0,0,0-.87249,3.31942.93548.93548,0,0,1-.115.66265.97979.97979,0,0,1-.5333.33043c-.01069.0038-.40991.22475-1.20833.66668A10.71739,10.71739,0,0,0,.95654,8.77905s-.821.75256-.87892,1.32919a.21235.21235,0,0,0,.043.1804A.23246.23246,0,0,0,.297,10.325l1.569-.10311a1.62621,1.62621,0,0,0,.41166-.06281,2.22992,2.22992,0,0,0,.83177-.73718c.13928-.15341.71582-.63732.91474-.35457.11388.16188-.17387,1.01727-.20807,1.22539-.04567.27792-.11838,1.05684-.22457,2.62253a2.24026,2.24026,0,0,0,.13626,1.21881,1.16138,1.16138,0,0,0,.60417.64582c.13713.047.31014.0606,1.30428-.36907.21442-.09267.28416-.12693,1.13709-.53718.75166-.36154.833-.40008.9128-.53124.044-.07236.1537-.28147-.0625-1.31251C7.434,11.12582,7.235,10.74,7.45689,10.44656c.09131-.12076.257-.22986.31225-.19349.0519.03415-.02933.17281.04325.28331a.32032.32032,0,0,0,.3058.11152.84423.84423,0,0,0,.48616-.44123A7.88939,7.88939,0,0,0,9.7171,7.84791a5.79965,5.79965,0,0,0,.219-2.4847c-.065-.4129-.187-1.1325-.64584-1.3125-.22591-.0886-.40445.00417-.59191-.15519A.90968.90968,0,0,1,8.48364,3.1c.0613-.284.20335-.54534.26731-.82875a2.7558,2.7558,0,0,0-.05888-1.24748C8.57975.49229,8.52359.22652,8.37356.13406,7.851-.188,6.18577.84284,5.41522,2.36321Z"/>

</g>
</svg>
