<?xml version="1.0" encoding="UTF-8"?>
<svg xmlns="http://www.w3.org/2000/svg"
     version="1.1"
     width="38.44303584mm"
     height="52.75909254mm"
     viewBox="0.00000000 0.00000000 108.97236515 149.55324716">

<g transform="scale(9.02959185)">   <defs>
      <style type="text/css"><![CDATA[
      .a {
        stroke: #000;
        stroke-miterlimit: 10;
        stroke-width: 0.15px;
      }
    ]]></style>
   </defs>
   <path class="a"
         d="M6.29343,3.73176a2.16438,2.16438,0,0,0-.32869,1.42488,1.45421,1.45421,0,0,0,.6387.99136c.28569.14445.49137.05121.61552.2327.15332.22413-.06947.49923.10178.76159a.62278.62278,0,0,0,.35257.22964,3.29673,3.29673,0,0,1,1.652,1.75344c.31776,1.04968-.67169,2.18736-1.29519,2.90426a6.89477,6.89477,0,0,1-1.60906,1.34042,16.352,16.352,0,0,1-2.39362,1.0532c-2.32889.968-2.4453,1.04985-2.87074,1.03723-.35964-.01066-.8545-.08633-1.02288.17553a.58271.58271,0,0,0,.09575.6383c.22316.26.60605.21491,1.30454.19313,1.11811-.03489,1.17288.04822,1.67461.00969a11.917,11.917,0,0,0,6.44967-3.41144,10.95191,10.95191,0,0,0,1.49567-1.89694,4.7899,4.7899,0,0,0,.6565-1.31812A4.53709,4.53709,0,0,0,11.98834,8.665c.01486-.59837.05679-2.28688-.90768-2.9226-.54029-.35613-.918-.06654-1.14893-.383-.43157-.5914.92366-1.5538.79787-3.19149A2.392,2.392,0,0,0,9.61258.18921.96485.96485,0,0,0,9.10594.07805c-.53581.04719-.74111.61367-1.45479,1.66832A14.16173,14.16173,0,0,0,6.29343,3.73176Z"/>

</g>
</svg>
