<?xml version="1.0" encoding="UTF-8"?>
<svg xmlns="http://www.w3.org/2000/svg"
     version="1.1"
     width="13.23911562mm"
     height="44.54766148mm"
     viewBox="0.00000000 0.00000000 37.52819152 126.27679121">

<g transform="scale(4.06332196)">   <defs>
      <style type="text/css"><![CDATA[
      .a {
        stroke: #000;
        stroke-miterlimit: 10;
        stroke-width: 0.15px;
      }
    ]]></style>
   </defs>
   <path class="a"
         d="M.99792,1.971C1.65512.4695,2.77812-.4255,4.41582.3743a2.35929,2.35929,0,0,1,1.0908,1.0801c.5225,1.0756.3995,1.9824-.6474,2.4819-.3535.1665-.792.2226-.9902.6367a5.8412,5.8412,0,0,0,.0058,1.769v4.1705c0,2.7402-.1338,5.4116-.1338,8.1626,0,1.4467-.0459,2.8623.06351,4.3169.042.5542.20409,1.0839.25679,1.6293.0547.5738-.0879,1.17829-.0136,1.7496.1113.8486.5185,1.8359.0381,2.625-.4141.6796-1.2481,1.7944-2.0098,1.9843.0127-.3003-.2793-.3872-.39849-.6093a1.56064,1.56064,0,0,1-.123-.753c-.01951-.603-.09281-1.1592-.12791-1.747-.0977-1.6128-.251-3.251-.24709-4.878.00489-2.1162-.25-4.1054-.25-6.25,0-1.0302-.08591-2.0991,0-3.125.08689-1.0224.21779-2.1054.25-3.125.03129-.9975,0-2.0019,0-3A9.0948,9.0948,0,0,0,1.117,4.9431,4.09978,4.09978,0,0,1,.99792,1.971Z"/>
   <path class="a"
         d="M6.08092,19.655c.39161-.7422,1.1894-3.5239,2.34661-3.0595,1.63089.6518.11239,3.0605-.44721,3.8354A6.07548,6.07548,0,0,1,6.85142,21.49c-.6114.5249-1.13189,1.1631-1.7754,1.6499a11.0952,11.0952,0,0,0-1.64849,1.20069A18.69569,18.69569,0,0,0,1.87482,26.7073c-.1846.2759-.4424.8398-.7432,1.0161-.5585.3296-1.0517-.0879-1.0566-.7813-.0059-.99751,1.4004-2.1997,2.0703-2.8056A17.65044,17.65044,0,0,0,6.08092,19.655Z"/>

</g>
</svg>
