<?xml version="1.0" encoding="UTF-8"?>
<svg xmlns="http://www.w3.org/2000/svg"
     version="1.1"
     width="62.91752674mm"
     height="49.15945718mm"
     viewBox="0.00000000 0.00000000 178.34882704 139.34963667">

<g transform="scale(4.27394008)">   <defs>
      <style type="text/css"><![CDATA[
      .a {
        stroke: #000;
        stroke-miterlimit: 10;
        stroke-width: 0.15px;
      }
    ]]></style>
   </defs>
   <path class="a"
         d="M7.93534,3.98985c-.01828.10507.088.13888.09575.25532.02014.30316-.65553.7498-1.37234.79788-.4377.02935-.593-.10987-1.05319,0a2.18136,2.18136,0,0,0-.60638.25531,9.572,9.572,0,0,0-1.403.99091c-.79451.66019-.91207.48679-1.6927,1.08356C1.48,7.69649-.1548,8.94627.10226,10.0051a1.2758,1.2758,0,0,0,.7011.81892A16.93584,16.93584,0,0,0,3.92327,12.3014a1.36065,1.36065,0,0,1,.6205.32628c.38539.41408.28347,1.05139.16817,1.86217,0,.0001-.15709,1.10459-.41489,3.35106-.11913,1.038-.069,1.00129-.18937,1.96952-.11714.94218-.24961,1.2955-.43729,2.62271L3.078,26.62235a4.99985,4.99985,0,0,0,.01039,2.15294A1.70858,1.70858,0,0,0,4.639,30.06734a1.9325,1.9325,0,0,0,1.32532-.90049,3.71533,3.71533,0,0,0,.72636-1.75147c.29963-2.1336.82807-4.23612,1.02782-6.38138.19132-2.05474.85492-7.86461.44026-9.70372a2.36277,2.36277,0,0,0-.75144-1.44284c-.65119-.44757-.67525-.46166-.67533-.46171C6.4558,9.264,6.3414,9.228,6.3076,9.105c-.06072-.22083.1951-.516.46178-.65162a1.08615,1.08615,0,0,1,.59332-.09979c.98948.08051,1.48985-.68742,3.445-1.17229.33943-.08417.868-.19584.8617-.31915-.00722-.14187-.71251-.10406-.89361-.51063a.51756.51756,0,0,1,0-.4149c.16658-.35781.70812-.22452.857-.51226.1345-.2599-.12193-.72688-.44214-.98774-.40214-.32761-.63033-.10646-1.4817-.434-.48391-.18617-.60595-.33293-.97754-.3344C8.38356,3.66689,7.96952,3.79345,7.93534,3.98985Z"/>
   <path class="a"
         d="M37.52046.09623c-.57761.11715-.58237.53781-1.5,1.37234a9.13055,9.13055,0,0,1-1.75533,1.30851,3.21738,3.21738,0,0,0-1.14894,1.08511c-.01.01925-.01884.03894-.01889.039a.74632.74632,0,0,0-.04494.56735c.1548.386.766.57449.766.57448s.176.26553.22341.351a1.17562,1.17562,0,0,1-.03191.89362c-.45787,1.31286-.32034,2.77136-.67022,4.117-.38834,1.49353-.79081,3.46377-1.59574,7.40425a33.63886,33.63886,0,0,1-1.117,4.97872,18.26665,18.26665,0,0,0-.70213,2.39362,10.072,10.072,0,0,0-.25533,2.45745c.021.89747.03791,1.35312.35108,1.69149.312.33706.56265.21055,1.81914.60638.96241.30319,1.09663.4688,1.53192.4149a1.87448,1.87448,0,0,0,1.24467-.734c.29775-.44728.1082-.71118.22341-2.1383a15.59,15.59,0,0,1,.19149-1.56383c.15905-.89882.28734-1.07075.19149-1.5-.11379-.50954-.41079-.8575-.25531-1.05319.14627-.18411.51348-.00748.67021-.2234.08629-.11888.01245-.224,0-.54256a2.73676,2.73676,0,0,1,.15957-.95744,3.51366,3.51366,0,0,1,.31914-.734,6.21593,6.21593,0,0,0,.47873-2.42554c.066-.8027.01581.22575.47873-3.47872.26733-2.13931.191-1.73761.35106-2.93617.12471-.934.27739-1.97439.383-3.4149a4.41077,4.41077,0,0,0-.09575-2.01063c-.2514-.67591-.62842-.93707-.51064-1.37234.128-.473.728-.73668,1.08512-.89362.34921-.15348.407-.0984,1.117-.35106.69691-.248.81277-.36208.86169-.4149.2835-.30615.13838-.52022.44681-.92553.25446-.33437.40208-.25287.63831-.57447a1.30185,1.30185,0,0,0,.25531-1.117,1.25225,1.25225,0,0,0-.70212-.67021,1.91057,1.91057,0,0,0-.67021-.15958,6.55846,6.55846,0,0,0-1.30852.09575C38.07878.30114,38.02861-.00682,37.52046.09623Z"/>
   <path class="a"
         d="M10.08184,27.91464A19.71563,19.71563,0,0,0,16.68,27.25581c1.18993-.34637.85125-.43035,1.9468-.734,1.48619-.412,2.22069-.28827,5.39362-.31916,2.7962-.02721,4.1939-.04554,4.43617-.06382a9.85259,9.85259,0,0,1,3.35107.2234,2.253,2.253,0,0,1,1.3085.766,2.03758,2.03758,0,0,1,.383,1.24468,1.85283,1.85283,0,0,1-.51063,1.37234,1.75915,1.75915,0,0,1-1.0851.383,10.21707,10.21707,0,0,1-2.77661-.15958,23.69724,23.69724,0,0,0-2.96808-.03191,53.94724,53.94724,0,0,0-7.14894.79787c-3.879.56514-5.81842.84772-6.19149.92553-1.5258.31829-3.11916.278-4.62765.67022A3.5398,3.5398,0,0,1,5.797,32.29836c-.46093-.2071-1.04312-.63527-.98936-1.02128.04983-.35787.59889-.33914,1.18085-.92552.50554-.5094.34285-.77708.766-1.30851a3.51286,3.51286,0,0,1,2.32979-1.117A4.31369,4.31369,0,0,1,10.08184,27.91464Z"/>

</g>
</svg>
