<?xml version="1.0" encoding="UTF-8"?>
<svg xmlns="http://www.w3.org/2000/svg"
     version="1.1"
     width="52.00530971mm"
     height="60.37856183mm"
     viewBox="0.00000000 0.00000000 147.41662569 171.15181774">

<g transform="scale(3.27041836)">   <defs>
      <style type="text/css"><![CDATA[
      .a {
        stroke: #000;
        stroke-miterlimit: 10;
        stroke-width: 0.15px;
      }
    ]]></style>
   </defs>
   <path class="a"
         d="M26.84137,15.84586a6.7759,6.7759,0,0,0,.92969-.0103c.5049-.0444.86131-.6401,1.2334-.9326.5176-.40621,1.125-.6899,1.6738-1.0498A16.04016,16.04016,0,0,0,34.942,9.965a4.21459,4.21459,0,0,0,.708-1.29,4.28078,4.28078,0,0,0,.1885-1.3408c-.0039-.6846.0088-1.3696,0-2.0542a2.11407,2.11407,0,0,0-.918-1.5445,5.31067,5.31067,0,0,0-1.541-1.1015c-1.3623-.5918-2.7734-1.8125-4.3994-1.4693a4.43577,4.43577,0,0,0-2.9102,2.3213,3.86054,3.86054,0,0,1-1.0127,1.481,7.40366,7.40366,0,0,1-1.0371.5229,5.20089,5.20089,0,0,1-.83.378,12.708,12.708,0,0,1-2.209.4516c-.4746.0689-1.1905.3316-1.6446.0869-.3193-.1723-.07709-.5859.085-.8251a2.35564,2.35564,0,0,1,.6885-.5816c.35941-.1977.7929-.2163.7041-.7344-.2549-.0234-.5645.2032-.7862.3203-.2968.1568-.6367.3174-.9179.5-.166.1075-.3555.232-.5049.3399-.0342.0244-.251.2017-.2832.2158-.2051.0869-.3379.0464-.5459.1724A4.725,4.725,0,0,0,16.611,7.093a6.50367,6.50367,0,0,0-.8653,1.7094,2.49374,2.49374,0,0,1-1.3008,1.1998,5.59444,5.59444,0,0,0-.6689.5043,4.14031,4.14031,0,0,0-.5625.4957,10.553,10.553,0,0,0-1.0186,1.1899c-.2666.4302-.4716.8945-.7304,1.3335a5.94019,5.94019,0,0,0-.1143,5.4546,22.38794,22.38794,0,0,0,1.7813,2.707,13.01946,13.01946,0,0,0,1.6064,2.502c.9268.913,4.1582,2.2548,4.9951.8325a5.59663,5.59663,0,0,0,.3223-2.8018c-.3877-1.039-1.667-1.5552-2.4014-2.1347a6.25436,6.25436,0,0,1-2.3418-4.0093c-.3115-2.0835-.2246-4.106,1.6162-5.4185a52.83792,52.83792,0,0,1,4.8272-3.2339,26.08861,26.08861,0,0,1,4.9805-1.9038c1.5107-.4614,4.0625-1.7417,4.3115.5327.2676,2.4317-1.0137,3.5479-2.7442,4.961a18.87924,18.87924,0,0,0-2.3867,1.9038,7.3873,7.3873,0,0,0-.5439.6645c-.3701.5308-1.0576,1.6255-.19629,2.02009a4.68825,4.68825,0,0,0,1.57419.23871C26.78086,15.84246,26.81016,15.84436,26.84137,15.84586Z"/>
   <path class="a"
         d="M25.67737,35.39126c-.168-1.665-.875-3.2324-.92291-4.917-.04-1.50051-.0859-3.0112-.16109-4.5229a19.33189,19.33189,0,0,0-.42291-2.0913c-.1113-.7134-.4033-2.1548.1123-2.7559.22661-.2632.4785-.2939.5723-.6851.1064-.4467.0742-.5737.4561-.8559a1.79315,1.79315,0,0,1,.955-.479,2.31012,2.31012,0,0,1,1.4024.4184c.3799.2715.5019.3384.5957.8155a14.0944,14.0944,0,0,1,.082,1.581c.0313.3804.1992.73.2354,1.1236a1.93807,1.93807,0,0,0,.1084.7343,1.54081,1.54081,0,0,1,.2246.503,11.4503,11.4503,0,0,1,.1045,1.7734c.0195,1.1328-.0313,2.2646-.0264,3.3975.0107,2.3745.3867,4.726.4932,7.0952.0986,2.2085.707,5.876-.5059,7.8012-.4922.7813-1.1191.7994-1.8496,1.2901-.1162.0776-.3193.2246-.4404.208-.59569-.0815-.4053-.999-.3702-1.3418.31451-3.0664-.3613-5.9673-.6328-8.9941C25.68416,35.45666,25.68126,35.424,25.67737,35.39126Z"/>
   <path class="a"
         d="M40.55237,2.18175a3.05972,3.05972,0,0,1-.02051-.934c.0507-.17829.1972-.27889.2617-.44389.0879-.2207-.0117-.4595.1943-.6284.1758-.145.46-.0908.669-.0894a4.1128,4.1128,0,0,1,1.9179.3819,2.25987,2.25987,0,0,1,.878.5976c.1933.2676.1494.5987.2617.8936.0713.1855.2285.332.2705.5278a3.41332,3.41332,0,0,1-.1162.96579,9.24146,9.24146,0,0,1-.8682,3.09091c-.3193.686-.53519,1.5454-.9023,2.18209-1.4395,2.49711-3.6592,3.10641-5.7725,4.78371a6.62579,6.62579,0,0,1-1.3262.8052c-.2705.1162-.8877.32509-.9931-.0464-.1055-.37451,1.0175-.9644,1.1904-1.2427a19.7827,19.7827,0,0,1,1.8613-2.7837,10.856,10.856,0,0,0,2.2891-3.3076A11.89049,11.89049,0,0,0,40.55237,2.18175Z"/>
   <path class="a"
         d="M40.22806,32.217a25.73832,25.73832,0,0,1,.6114,6.187,11.2518,11.2518,0,0,1-2.6465,7.1709,14.94205,14.94205,0,0,1-4.9483,3.68989c-.77729.38821-1.4746.91071-2.23429,1.32821a18.60636,18.60636,0,0,0-2.03231.895c-.2226.1621-.3769.4287-.6406.5454a2.618,2.618,0,0,1-1.1308.2105c.581-.3536,1.2451-.523,1.8086-.9117.5869-.4043,1.166-.81741,1.7529-1.2192.4824-.3296.9599-.687,1.4267-1.0415a20.40254,20.40254,0,0,0,2.336-2.2354,8.2775,8.2775,0,0,0,1.6553-2.2241c.2861-.6504.75-1.2436,1.0498-1.9009a8.06267,8.06267,0,0,0,.3877-3.5874c-.0225-1.0766.1191-2.1631.04-3.2363a12.12829,12.12829,0,0,0-.3281-1.4062,16.7281,16.7281,0,0,0-2.1778-4.8658,15.31325,15.31325,0,0,1-.8847-1.5239c-.2354-.5356-.2373-1.1518-.5059-1.6748-.206-.4014-.9766-.9448-.5635-1.42091.3565-.41059,1.1973-.25779,1.6475-.15089a4.15153,4.15153,0,0,1,1.6787.8911,2.70294,2.70294,0,0,1,.7061.9185,3.02907,3.02907,0,0,0,.6621.8486A9.732,9.732,0,0,1,40.22806,32.217Z"/>
   <path class="a"
         d="M22.82376,15.84c1.0098-.1674,1.1055-.8764,2.1553-.9726a7.556,7.556,0,0,1,2.2969.1338,4.89668,4.89668,0,0,1,2.1328.6562c.4883.3833.4277.9883.4365,1.543a2.41383,2.41383,0,0,1-.0068.7959,3.86285,3.86285,0,0,1-.45409.7373c-.28811.4697-.64061,1.2163-1.20611,1.3716a6.17124,6.17124,0,0,1-1.4951.0644c-.4697.0098-.9209.084-1.3984.083-.7608-.0014-1.4346-.0791-2.1885-.0791h-.8955c-1.3359,0-2.6816.045-4.0166,0-.3506-.01171-.6641-.0786-1.0244-.0839-2.1631-.03081-4.2266-.4917-6.3779-.6749a11.77556,11.77556,0,0,1-1.6416-.125,4.05268,4.05268,0,0,0-1.3692-.018c.3672.3623,1.06931.2695,1.5664.3935.4883.12159,1.00291.3672,1.4785.5328a8.5855,8.5855,0,0,1,1.3506.642c.1397.0801.2569.0821.3701.2237a1.08,1.08,0,0,1,.1485.8554c-.09279.2998-.1397.2432-.4795.2496a2.43161,2.43161,0,0,1-.835-.0557,11.26152,11.26152,0,0,1-1.583-1.0098,9.16587,9.16587,0,0,0-2.2978-.81,12.816,12.816,0,0,0-2.2666-.3741,3.52122,3.52122,0,0,1-1.9346-.3291,2.16816,2.16816,0,0,0-.6992-.4648c-.3848-.1221-.79009-.1567-1.168-.3037-.4199-.1636-.4004-.4136-.498-.813a.84455.84455,0,0,0-.418-.5708c-.1475-.1064-.4776-.1123-.4248-.4351.0918-.5522,1.6914-.3291,2.0918-.3291a19.20782,19.20782,0,0,1,3.4287.1641,3.75581,3.75581,0,0,1,.8389.2339,2.56345,2.56345,0,0,1,.5244.206,3.32638,3.32638,0,0,0,.54291.314,2.638,2.638,0,0,0,1.335.1646.45252.45252,0,0,0,.415-.5474c-.04391-.35991-.23041-.314-.53321-.395-.4199-.1118-1.2011-.4898-1.0439-1.04491a6.826,6.826,0,0,0,1.66311-.47509c.26069-.0894.56739-.0845.834-.1807.30269-.1094.583-.2764.87589-.4048a3.96566,3.96566,0,0,1,1.5684-.1182c.668,0,1.3809-.0673,2.0459-.0019.5039.0498,1.0107.1553,1.5244.168a13.21563,13.21563,0,0,1,2.8809.1489C20.29056,15.20226,21.526,16.05586,22.82376,15.84Z"/>

</g>
</svg>
