<?xml version="1.0" encoding="UTF-8"?>
<svg xmlns="http://www.w3.org/2000/svg"
     version="1.1"
     width="21.99597370mm"
     height="44.55582469mm"
     viewBox="0.00000000 0.00000000 62.35085375 126.30005972">

<g transform="scale(5.59901992)">   <defs>
      <style type="text/css"><![CDATA[
      .a {
        stroke: #000;
        stroke-miterlimit: 2.61313;
        stroke-width: 0.28346px;
      }
    ]]></style>
   </defs>
   <path class="a"
         d="M6.02344,3.02979A6.30955,6.30955,0,0,1,8.30469,1.17822c.45313-.80273.96094-1.42187,1.85742-.752,1.02344,1.92969,1.04492,4.58789.37891,7.75a5.48354,5.48354,0,0,0-.30859,2.666,11.04144,11.04144,0,0,1,.18359,5.41992c.15234,3.041-.75586,4.87109-2.38867,5.873q-1.35059.75293-1.67969-.51758.17578-1.75488.35547-3.51172a35.2731,35.2731,0,0,1-.748-10.08008c.54883-.4707.73828-1.584.39844-3.63867-.11133-.45312-.2207-.9043-.33008-1.35742Z"/>
   <path class="a"
         d="M8.47266,1.39111c-.36133-.3125-.877-.541-2.48242-.18164Q4.32031,2.63916,2.65039,4.0708C.7168,6.73291-.65625,9.6333.66406,13.67041a5.63488,5.63488,0,0,1,3.10938.94727c1.42188-.64062,1.78125-2.36133,1.41406-4.81836a11.03044,11.03044,0,0,1,.32422-5.71289Q6.99414,2.73877,8.47266,1.39111Z"/>

</g>
</svg>
