<?xml version="1.0" encoding="UTF-8"?>
<svg xmlns="http://www.w3.org/2000/svg"
     version="1.1"
     width="15.83643576mm"
     height="24.97782171mm"
     viewBox="0.00000000 0.00000000 44.89071882 70.80335529">

<g transform="scale(5.88896788)">   <defs>
      <style type="text/css"><![CDATA[
      .a {
        fill: #000;
        stroke: #000;
        stroke-miterlimit: 10;
        stroke-width: 0.15px;
      }
    ]]></style>
   </defs>
   <path class="a"
         d="M2.93507,3.4661c-.843,2.42067-2.27164,5.29412-2.77216,7.503-.07774.34312-.166.81565.03525.94675a.47657.47657,0,0,0,.5585-.1655c.124-.17448-.00763-.31082.09375-.5.15585-.29084.53058-.08739.81229-.40442.11862-.13349.33993-.4934.49875-.68422a.09165.09165,0,0,1,.04815-.03436c.12091-.02971.21543.28759.38535.33405.22857.06249.53451-.38128.568-.4298a26.90745,26.90745,0,0,0,1.8125-2.65625c.19376-.39287.48334-1.05358,1.0625-2.375a15.51028,15.51028,0,0,1,.8125-1.8125,3.86924,3.86924,0,0,0,.625-1.28125,1.1759,1.1759,0,0,0,0-.8125,2.84718,2.84718,0,0,0-.5-.5625A3.06361,3.06361,0,0,0,6.538.12536,1.45437,1.45437,0,0,0,5.43412.26828a3.32581,3.32581,0,0,0-.66367.34323A6.99567,6.99567,0,0,0,2.93507,3.4661Z"/>

</g>
</svg>
