<?xml version="1.0" encoding="UTF-8"?>
<svg xmlns="http://www.w3.org/2000/svg"
     version="1.1"
     width="34.26770846mm"
     height="6.15996525mm"
     viewBox="0.00000000 0.00000000 97.13676412 17.46133277">

<g transform="scale(4.31887292)">   <defs>
      <style type="text/css"><![CDATA[
      .a {
        stroke: #000;
        stroke-miterlimit: 10;
        stroke-width: 0.15px;
        fill-rule: evenodd;
      }
    ]]></style>
   </defs>
   <path class="a"
         d="M12.27037.1979C13.69127.1959,15.10917.131,16.536.108Q17.81922.08535,19.10627.0753c.7344-.0053,1.4678.0596,2.2002.1094.60251.041,1.4268.52049.9844,1.23049a5.43781,5.43781,0,0,1-1.1504,1.54541c-.9942.7495-2.4287.32859-3.5479.32859H9.87487a10.01476,10.01476,0,0,0-1.7627.02781c-.8487.1573-1.7129.1416-2.5684.2173-1.3574.1201-2.6777.3872-4.0391.4307C.69127,3.9909.07407,3.8678.077,2.9157c.001-.20851-.00491-.41751,0-.626.00879-.3692.18849-.3384.47749-.4556A2.06123,2.06123,0,0,0,1.329,1.0519,2.12349,2.12349,0,0,1,2.51447.3488,13.45374,13.45374,0,0,1,5.20787.2677C5.994.2931,6.73327.1393,7.52617.1554c1.54881.0317,3.1006.0386,4.6494.0425Z"/>

</g>
</svg>
