<?xml version="1.0" encoding="UTF-8"?>
<svg xmlns="http://www.w3.org/2000/svg"
     version="1.1"
     width="32.76682763mm"
     height="58.38363594mm"
     viewBox="0.00000000 0.00000000 92.88230291 165.49689045">

<g transform="scale(5.42284362)">   <defs>
      <style type="text/css"><![CDATA[
      .a {
        stroke: #000;
        stroke-miterlimit: 10;
        stroke-width: 0.15px;
        fill-rule: evenodd;
      }
    ]]></style>
   </defs>
   <path class="a"
         d="M15.51265.118a2.76654,2.76654,0,0,1,.8232.2226c.3135.1475.7656.5586.7129.9444-.1289.9326-2.1982.8974-2.8359.9267a22.8308,22.8308,0,0,0-4.13189.7266,3.68043,3.68043,0,0,0-.66891.1894,2.53,2.53,0,0,0-.8154.625c-.168.2998.0556.3936.2968.5635.5088.3604,1.1944.7647,1.18951,1.4551a2.22608,2.22608,0,0,1-.09961.833c-.1963.459-.4531,1.0234-.9795,1.084a3.84948,3.84948,0,0,1-2.0205-.4961,6.19229,6.19229,0,0,0-1.1299-.5225c-.4551-.1084-.9609-.1816-1.43949-.2969-.43451-.1044-.81151-.249-1.27051-.3515-.3994-.0889-.81049-.082-1.209-.2061-.3056-.0957-.6582-.2461-.9531-.3564-.3388-.127-.5869-.418-.8838-.5371-.26459-.8955,1.875-1.4463,2.46-1.5694a6.91686,6.91686,0,0,0,2.1289-.4726c.3018-.1729.5576-.3643.8721-.5215a9.10081,9.10081,0,0,1,1.372-.7539c.3389-.1006.6797-.2725,1.0645-.3535.8496-.1787,1.7197-.3106,2.54691-.502A16.3206,16.3206,0,0,1,15.51265.118Z"/>
   <path class="a"
         d="M12.01945,16.284a8.46187,8.46187,0,0,0-.18649,2.8838,11.92643,11.92643,0,0,1-.06541,2.8525,26.80936,26.80936,0,0,0-.4991,2.9443,9.21237,9.21237,0,0,1-.5332,2.6807c-.1074.2227-.2295.3613-.3379.5635-.1269.2392-.3066.4531-.4267.6894a2.45158,2.45158,0,0,1-.5899.8692,2.29373,2.29373,0,0,1-1.1679.6758,1.97643,1.97643,0,0,1-.9834-.4795,12.95444,12.95444,0,0,0-2.6992-1.1993,1.84267,1.84267,0,0,1-.8506-2.3095c.0478-.1865.25-.3877.292-.6221a3.54483,3.54483,0,0,0,.02731-.6523c-.00391-.543,0-1.086,0-1.628a11.58442,11.58442,0,0,1,.09769-1.3701,13.57439,13.57439,0,0,1,.0146-1.4814c.0381-.1592.2246-.083.2754-.2647-.0039-.1201-.0088-.2402-.01369-.3603.02049-.2451.07229-.4776.09869-.7158a13.71994,13.71994,0,0,1,.2128-2.1719c.1114-.4102.5323-.6963.5518-1.1387a2.09153,2.09153,0,0,0-.69529-1.7041c-.58691-.7324-.06741-1.1523.29779-1.8047a2.12945,2.12945,0,0,1,.6875-.7959c.3663-.2832.5498-.7656.9551-1.0127a6.48971,6.48971,0,0,1,1.5801-.4629,5.99586,5.99586,0,0,0,1.3994-.4541,1.65752,1.65752,0,0,1,1.3945-.0605c.60261.209.5743.9746.6749,1.501.1435.7529.498,1.4785.5966,2.2275a5.9563,5.9563,0,0,1-.0693,2.6914Z"/>

</g>
</svg>
