<?xml version="1.0" encoding="UTF-8"?>
<svg xmlns="http://www.w3.org/2000/svg"
     version="1.1"
     width="33.84886367mm"
     height="35.90038505mm"
     viewBox="0.00000000 0.00000000 95.94954770 101.76484891">

<g transform="scale(4.67561906)">   <defs>
      <style type="text/css"><![CDATA[
      .a {
        stroke: #000;
        stroke-linecap: round;
        stroke-linejoin: round;
        stroke-width: 0.01px;
      }
    ]]></style>
   </defs>
   <path class="a"
         d="M18.52307.06831c-.109.03029-.19988.07874-.19988.109,0,.109-.19988.23622-.3089.20593-.07874-.02422-.18171.01817-.30285.11508a.68577.68577,0,0,1-.33313.15748.22988.22988,0,0,0-.218.15143c-.03635.08479-.09086.15142-.12114.15142s-.02423.05451.01211.11508c.04846.09086.03634.14537-.04845.22411a.49243.49243,0,0,0-.15748.5754.283.283,0,0,1,.02422.23622.20726.20726,0,0,0,.03635.212c.07874.12114.06662.15748-.15748.47244-.18777.25439-.23622.37553-.20594.49061a.55725.55725,0,0,1-.07268.34525,1.35808,1.35808,0,0,0-.109.6178c-.006.33919-.03028.43-.12719.50273a.27536.27536,0,0,1-.19382.06056c-.0424-.01817-.07874-.00605-.07874.02423s-.06663.07269-.15143.09691a.68188.68188,0,0,0-.36341.55118c-.01211.14537-.55724.7026-.636.65415-.02422-.01817-.09085.02423-.15142.09085a1.24868,1.24868,0,0,1-.46032.218c-.30284.0848-.35735.12114-.35735.24228,0,.18776-.2968.46638-.59964.56935a.46843.46843,0,0,0-.28468.19382.29381.29381,0,0,1-.218.15142.59934.59934,0,0,0-.34524.2665.81329.81329,0,0,1-.33313.29074c-.11508.04239-.15748.09691-.13325.15748a.26789.26789,0,0,1-.00606.1817.52916.52916,0,0,1-.46638.23622c-.04846-.01817-.14537.02423-.218.09691-.06663.06663-.14537.109-.17565.09691-.02423-.01817-.103.01212-.16354.07269a3.38993,3.38993,0,0,1-.33313.24833,1.53955,1.53955,0,0,0-.35736.35736,1.10066,1.10066,0,0,1-.36341.3089.78426.78426,0,0,0-.26045.17565,1.09728,1.09728,0,0,1-.30284.19988,1.93936,1.93936,0,0,0-.3937.27862c-.07269.07874-.15748.12719-.19382.109-.09086-.05451-.30891.09085-.29679.19988.01817.20593-.01212.26045-.1696.32707-.29073.1272-.49666.29073-.46638.37553.03634.09691-.12719.27862-.25439.27862a.088.088,0,0,0-.08479.09085,1.25734,1.25734,0,0,1-.59963.57541.49258.49258,0,0,0-.24833.12114.31308.31308,0,0,1-.22411.09691c-.06662-.03029-.45427.44821-.47849.58146-.00606.03029-.01212.07268-.01818.109,0,.03029-.06056.0848-.12113.12114a.16.16,0,0,1-.22267-.04028l-.00144-.00212c-.09691-.09691-.109-.09691-.218.0424a3.21623,3.21623,0,0,1-.48455.52695c-.103.06663-.52089.533-.43.4785.07268-.03634.26045.109.26045.20594a.33839.33839,0,0,1-.09086.14536c-.09691.09085-.27256.07268-.27256-.03028,0-.03635-.04845-.03635-.11508,0-.06057.03634-.1272.04845-.14537.03028-.03634-.03634-.28467.30285-.28467.38764,0,.13931-.18776.24834-.36342.218-.15747-.03634-.1817-.01211-.2665.17565a.68209.68209,0,0,1-.32707.33919.44822.44822,0,0,0-.27256.29073c-.05452.23016-.12114.32707-.26045.3513l-.12114.02422a1.04844,1.04844,0,0,0,.0424.23016c.05451.26045.02423.321-.36341.73289a1.19017,1.19017,0,0,0-.28468.47244.949.949,0,0,1-.15142.34524A2.167,2.167,0,0,0,.8432,19.426a.36439.36439,0,0,1-.13931.16354.28683.28683,0,0,0-.12114.19382,1.01788,1.01788,0,0,1-.103.49061.53534.53534,0,0,0-.1272.19987c-.0424.09691-.103.1696-.13325.1696s-.09691.06662-.15142.14536c-.17565.27256.01817.56935.56329.854a1.17924,1.17924,0,0,0,.854.06662,2.50915,2.50915,0,0,1,.25439-.06057,1.4167,1.4167,0,0,0,.41187-.43609,1.01222,1.01222,0,0,1,.14537-.28468c.07874-.11508.13325-.23016.11508-.24227a9.3555,9.3555,0,0,1,.109-2.25923.40111.40111,0,0,1,.23622-.26651c.103-.04239.18777-.12113.19382-.17565,0-.05451.01212-.16959.01818-.2665a.57048.57048,0,0,1,.103-.27256.78527.78527,0,0,0,.13326-.2665c.02422-.11509.09691-.18171.24833-.23622a.514.514,0,0,0,.212-.11509,1.2786,1.2786,0,0,1,.19382-.26044c.19382-.20594.49667-.5633.62992-.739a1.20809,1.20809,0,0,1,.61175-.27256.685.685,0,0,0,.3089-.17565.4506.4506,0,0,1,.45427-.14536c.13931.01817.37553.03634.527.0424.33919.01817.70866.1393.745.24227.01817.04846.13931.103.2665.1272a1.19051,1.19051,0,0,1,.37553.12114.221.221,0,0,0,.29073-.01212,1.00788,1.00788,0,0,1,.84191-.03634c.07874.0848.09691.0848.16354,0a.36264.36264,0,0,1,.44821-.14537c.07874.03029.13931.0848.13931.11509,0,.02422.09691.09691.212.15142s.212.12114.212.14536c0,.218.62387.29075.81769.09087A.21728.21728,0,0,1,11.14,16.022a1.484,1.484,0,0,0,.40581.03028c.24833-.01211.315-.05451.69049-.39976.28467-.27256.39975-.41792.37553-.48455a.66309.66309,0,0,1,.07268-.35736,3.53928,3.53928,0,0,0,.18171-.49666c.03634-.13326.07874-.30285.09691-.37553a.35709.35709,0,0,1,.36341-.212.64584.64584,0,0,0,.26045-.1696.7896.7896,0,0,1,.26045-.1817.73252.73252,0,0,0,.25439-.19987,2.2717,2.2717,0,0,1,.61174-.49061c.12114-.01818.5633-.36947.53907-.43-.03029-.109.09085-.23622.23622-.24833.41793-.02423.52089-.09085.65415-.41187a1.99549,1.99549,0,0,1,.24227-.43.90332.90332,0,0,0,.14537-.28467c.0424-.19382.18776-.3513.32707-.3513.06057-.00605.218-.18777.37553-.44216a4.768,4.768,0,0,1,.71471-.93881c.07874-.07875.1272-.18777.109-.23016-.03634-.09085.15748-.32707.2665-.32707.03634,0,.06057-.07269.06057-.1696a1.07219,1.07219,0,0,1,.315-.76317c.28468-.29679.32707-.35736.36947-.527a.469.469,0,0,1,.25439-.25439c.11508-.05451.212-.14536.212-.19382a3.41565,3.41565,0,0,1,.26651-.62386,6.28109,6.28109,0,0,0,.36947-.86008,4.496,4.496,0,0,1,.22411-.59359c.13325-.2665.14536-.37553.09085-.92065-.01817-.18171-.03634-.38764-.03634-.46033a.56469.56469,0,0,0-.1272-.2665.49275.49275,0,0,1-.12149-.24811.14087.14087,0,0,0-.06662-.1272c-.03634-.01211-.07268-.13931-.07874-.27862a.84125.84125,0,0,0-.15142-.44215.84738.84738,0,0,1-.15143-.27256.528.528,0,0,0-.12113-.19988.78126.78126,0,0,1-.13931-.34524.62078.62078,0,0,0-.11508-.30891.25189.25189,0,0,1-.05452-.218c.02423-.09691-.01817-.19383-.13325-.321A.54126.54126,0,0,0,18.52307.06831ZM17.06942,6.422c.17564.18171.17564.19382-.06662.5209-.14538.19382-.1696.29073-.21805.87219a1.11467,1.11467,0,0,1-.13932.45427,2.09394,2.09394,0,0,0-.19382.36342c-.04846.109-.103.19987-.1272.19987-.01817,0-.0424.03634-.04845.07269a1.66129,1.66129,0,0,1-.30285.7026.3152.3152,0,0,0-.109.20593c-.00606.07269-.0424.14537-.0848.15748a.64759.64759,0,0,0-.17565.13931,3.46267,3.46267,0,0,1-.53906.54512,2.06531,2.06531,0,0,0-.49061.7874c-.06057.18171-.12114.24228-.33313.321a.60736.60736,0,0,0-.32708.24833c-.03634.0848-.09691.15142-.12719.15142s-.09086.09086-.1272.20594a.37853.37853,0,0,1-.24833.27256c-.18171.06057-.218.17565-.11508.36947a.147.147,0,0,1-.0349.20493l-.00144.001c-.11509.12113-.14537.12113-.315,0-.13325-.09086-.16353-.09086-.424.01817-.33918.13931-.50879.09691-.6178-.16354a.46021.46021,0,0,0-.15142-.20593.42366.42366,0,0,1-.14537-.26045,3.86823,3.86823,0,0,0-1.15081-1.24167,1.49528,1.49528,0,0,1-.34526-.321c-.08479-.13326-.09084-.16354-.0121-.29074a2.13865,2.13865,0,0,1,.54512-.527c.02423,0,.0848-.07874.13931-.1817.09691-.18777.533-.45427.636-.3937.03633.02422.103-.00606.15746-.05452a.28748.28748,0,0,1,.17566-.09691.1538.1538,0,0,0,.11508-.09085.73391.73391,0,0,1,.29073-.212c.52089-.24228.97516-.83586.83585-1.09025a.1514.1514,0,0,1,.03029-.20593c.09085-.0848.27256-.07268.27256.01817,0,.12114.43609.02423.84191-.19382a2.7862,2.7862,0,0,1,.64809-.25439.93688.93688,0,0,0,.28467-.06663,2.25238,2.25238,0,0,0,.46638-.56329c0-.02423.11509-.09085.24834-.15142a1.44312,1.44312,0,0,0,.36947-.23017,2.30948,2.30948,0,0,1,.30284-.23016C16.67571,6.09494,16.79079,6.13128,17.06942,6.422ZM3.84718,15.71937c.15142.103.24227.19988.24227.26045,0,.09691-.12719.19988-.26044.212a.93657.93657,0,0,0-.218.05451c-.03029.01817-.09691-.00606-.14537-.05451-.14536-.13931.00606-.56935.19988-.57541A.76378.76378,0,0,1,3.84718,15.71937Z"/>

</g>
</svg>
