<?xml version="1.0" encoding="UTF-8"?>
<svg xmlns="http://www.w3.org/2000/svg"
     version="1.1"
     width="12.60950758mm"
     height="16.30164869mm"
     viewBox="0.00000000 0.00000000 35.74346925 46.20938337">

<g transform="scale(7.36351710)">   <defs>
      <style type="text/css"><![CDATA[
      .a {
        stroke: #000;
        stroke-miterlimit: 10;
        stroke-width: 0.15px;
      }
    ]]></style>
   </defs>
   <path class="a"
         d="M2.08752,1.797c-.18064.12255-.492-.22926-.75641-.09709-.10473.05235-.17514.16715-.25.53125-.15824.76965-.06993,1.3574-.15625,1.375S.7433,3.036.48736,3.01244c-.14856-.01369-.30439.167-.36812.31812a.6269.6269,0,0,0-.02839.37828c.12626.61536.86147.70483,1.169,1.41457.19178.44265.07.787.37011.97678a.77617.77617,0,0,0,.42356.09989,1.154,1.154,0,0,0,.64713-.25731c.60529-.41648,1.21048-.83534,1.78377-1.29487a.84839.84839,0,0,0,.23967-.254.85428.85428,0,0,0,.022-.54256q-.18774-1.04791-.37549-2.09584C4.19422.77618,4.28726.50328,3.99572.26862A1.15149,1.15149,0,0,0,3.08111.10619a1.2463,1.2463,0,0,0-.90926.75055C2.01247,1.305,2.2649,1.67668,2.08752,1.797Z"/>

</g>
</svg>
