<?xml version="1.0" encoding="UTF-8"?>
<svg xmlns="http://www.w3.org/2000/svg"
     version="1.1"
     width="42.85422655mm"
     height="36.28002534mm"
     viewBox="0.00000000 0.00000000 121.47661604 102.84106211">

<g transform="scale(5.59901992)">   <defs>
      <style type="text/css"><![CDATA[
      .a {
        stroke: #000;
        stroke-miterlimit: 2.61313;
        stroke-width: 0.28346px;
      }
    ]]></style>
   </defs>
   <path class="a"
         d="M21.31836,2.269c.33008-.95068.47461-1.82031-.67383-2.123A56.11809,56.11809,0,0,0,9.98438,3.96777q-3.33984,2.88135,1.89844,6.73291,1.53223.84961-.61133,1.69922c-4.78516,1.16992-9.11719,2.4834-10.293,4.792q-1.50293.51416-.30664,1.03125a38.33744,38.33744,0,0,0,12.86523-3.03223c2.50977-.7373,4.15039-2.82227,5.51563-5.33887.082-1.39551-1.41016-2.56836-3.61523-3.63965q-1.5-.63721-.0625-1.5166A48.85227,48.85227,0,0,0,21.31836,2.269Z"/>

</g>
</svg>
