<?xml version="1.0" encoding="UTF-8"?>
<svg xmlns="http://www.w3.org/2000/svg"
     version="1.1"
     width="74.60360275mm"
     height="53.70261009mm"
     viewBox="0.00000000 0.00000000 211.47474141 152.22790378">

<g transform="scale(5.68388048)">   <defs>
      <style type="text/css"><![CDATA[
      .a {
        stroke: #000;
        stroke-miterlimit: 10;
        stroke-width: 0.15px;
      }
    ]]></style>
   </defs>
   <path class="a"
         d="M13.21159,17.87035a.924.924,0,0,1,.54894.1c.41652.24538.48388.85549.51133,1.27349.11441,1.74219-.1986,4.19589-.625,4.1875-.12347-.00242-.23783-.21094-.3309-.38064-.21676-.39521-.06957-.57666-.21965-.74454-.315-.35238-1.18648.19756-1.6057-.21857a.74607.74607,0,0,1-.15625-.25c-.12994-.31439.003-.51412-.03125-.8125a.95141.95141,0,0,0-.4375-.71875c-.33533-.15534-.71488.17365-1.43464.58371-.714.40678-.59255.22663-1.68724.77665-1.03983.52244-2.41907,1.3229-2.34687,1.48339a11.98613,11.98613,0,0,1,2.78125-.3125,5.871,5.871,0,0,1,.78125.125,36.36213,36.36213,0,0,0,10.28115,1.03126c.44769-.04464,2.12141.00149,5.46885.09374a1.14808,1.14808,0,0,1,.875.3125c.21894.27009.05011.50647.3125,1,.16383.30815.33955.42273.29439.60224-.04747.18865-.29552.27676-.37826.30614a9.30921,9.30921,0,0,1-4.72852.163c-.42746-.107-2.35793-.33469-6.21886-.79012-2.4037-.28353-8.46984-.87559-10.46875-.84375a3.751,3.751,0,0,1-1-.09375,12.17572,12.17572,0,0,1-1.84375-.875c-.18735-.08435-.256-.11095-.28125-.1875-.15558-.47242,1.78581-1.50857,2.0625-1.65625,1.307-.69755,1.96866-.96871,1.96875-.96875.55629-.228,1.17684-.445,1.1875-.78125a.66361.66361,0,0,0-.18538-.38066,2.65675,2.65675,0,0,0-.58491-.50389,1.86828,1.86828,0,0,1-.44846-1.1467c-.16121-.75647-.80354-.73452-2.41588-2.11211C1.284,14.78864.937,13.94965.28239,13.60956A.36441.36441,0,0,1,.0813,13.4011c-.05719-.2312.27752-.5227.90931-.93852,1.23866-.81522,1.91826-1.24924,2.8125-1.1875a1.26406,1.26406,0,0,1,.91877.36,1.17537,1.17537,0,0,1,.24406.64731,10.65615,10.65615,0,0,0,1.00933,2.7264,16.9018,16.9018,0,0,0,1.07385,1.97441c.64058.97185.97912,1.44559,1.49144,1.58416.69562.18816.80033-.39721,2.38755-.66732C11.82058,17.74821,11.6172,17.96226,13.21159,17.87035Z"/>
   <path class="a"
         d="M21.83527,15.39646a2.885,2.885,0,0,0-.9599.78259,1.62617,1.62617,0,0,0-.416,1.18978,1.3368,1.3368,0,0,0,.46875.75c1.29822,1.1964,1.94734,1.79459,3.84375,3.3125a1.61869,1.61869,0,0,0,1.09745.44183,1.42452,1.42452,0,0,0,.53211-.16455l1.14155-.54069a1.084,1.084,0,0,1,.49252-.16151.90127.90127,0,0,1,.54887.23742,11.14683,11.14683,0,0,1,1.59375,1.5c.40683.49672,1.365.90406,3.28125,1.71875,1.77055.75274,2.319.78964,2.625.53125.091-.07681.05665-.092.3388-.57465.51017-.87265.777-1.0873.69245-1.30035-.10331-.26046-.63506-.27481-.8125-.28125-.0001,0-1.7546-.06361-6.5625-2.125-.135-.0579-.49459-.21651-.5-.4375-.00384-.15693.17208-.29781.46722-.5287.34013-.26608.51588-.32021.50153-.4088-.01817-.11222-.32561-.18211-.59375-.15625a1.27833,1.27833,0,0,0-.625.25c-.73431.52232-2.75335-.34888-3.45641-.65225A10.89663,10.89663,0,0,1,23.021,17.12241c-.03513-.01838-.154-.07872-.16508-.17662-.01674-.14726.221-.28458.29093-.327.46161-.27957.14211-.37542,3.0625-2.75a7.92193,7.92193,0,0,0,1.25-1.0625,2.05026,2.05026,0,0,1,.6875-.65625c.33441-.1744.48165-.09409.75-.1875.49665-.17286.76494-.9405,1.28125-2.46875.20337-.60194.28977-.929.121-1.10161a.629.629,0,0,0-.61945-.06911.99093.99093,0,0,0-.50156.48322c-.40167.74188-1.45522,1.15144-3.03125,2.5625-1.15767,1.0365-.78023.98654-2.03786,2.12037A17.7854,17.7854,0,0,1,21.83527,15.39646Z"/>
   <path class="a"
         d="M8.73528,3.48685c-.11253.19309-.21315.44491-.08349.62694.14276.20041.45231.16279.66652.28389.25684.1452.34049.49752.59847.64069a.91733.91733,0,0,0,.64946.01787,29.26359,29.26359,0,0,0,3.87463-1.3839c.18371-.07744,2.782-1.1418,4.76849-.45976a2.15722,2.15722,0,0,1,1.34375,1c.15589.34625.03437.48242.19022.8951.24936.66026.94277,1.324,1.46874,1.1793.35052-.09643.52279-.5233.61661-.75576a2.38984,2.38984,0,0,0,.09943-1.19364,4.30024,4.30024,0,0,0-.53125-1.6875c-.91409-1.51-3.0926-2.02295-4.71875-1.6875a6.28429,6.28429,0,0,0-1.65881.70309,45.98832,45.98832,0,0,1-4.53246,1.95072c-.14793-.2252.11322-.49185.342-.63424l.87188-.5427c.34606-.21539.72924-.48836.76477-.89442A.86165.86165,0,0,0,12.812.71031a1.78774,1.78774,0,0,0-1.12251.1183A6.13064,6.13064,0,0,0,8.73528,3.48685Z"/>
   <path class="a"
         d="M4.0532,4.82214a4.397,4.397,0,0,0-.49848,1.07679c-.07832.27474-.27779.97449-.00161,1.18865.147.114.26678-.03531.8508-.04779a3.195,3.195,0,0,1,.96977.09153c.31467.08571.4585.18844.55443.11251.11142-.08818.041-.32456,0-.5625A4.33894,4.33894,0,0,1,5.97065,5.3846a2.78715,2.78715,0,0,1,1.04774-1.568c.47862-.42386,1.01713-.77945,1.46882-1.2319a.76619.76619,0,0,0,.261-.43719c.03617-.36723-.39929-.61531-.4736-.97676C8.2.8079,8.46428.31586,8.14831.12259c-.21038-.12868-.46962.03229-.64861.144a3.41407,3.41407,0,0,0-.46077.36365A6.18221,6.18221,0,0,0,5.35252,2.55853C5.018,3.32628,4.46073,4.06287,4.0532,4.82214Z"/>
   <path class="a"
         d="M7.78823,12.65415a.53408.53408,0,0,0-.15325.433c.04905.17694.26671.26106.395.30627a6.18817,6.18817,0,0,0,2.21054.35043c.20168-.01284.60545-.07543,1.40478-.20009a19.86989,19.86989,0,0,0,2.71913-.74467c.28686-.07856.647-.27711.56349-.56259a.56392.56392,0,0,0-.30624-.2928c-2.39735-1.115-3.596-1.67247-4.38106-1.44986C10.24061,10.49383,9.28409,10.76508,7.78823,12.65415Z"/>

</g>
</svg>
