<?xml version="1.0" encoding="UTF-8"?>
<svg xmlns="http://www.w3.org/2000/svg"
     version="1.1"
     width="18.15068849mm"
     height="15.37855328mm"
     viewBox="0.00000000 0.00000000 51.45078849 43.59270576">

<g transform="scale(3.93579125)">   <defs>
      <style type="text/css"><![CDATA[
      .a {
        stroke: #000;
        stroke-miterlimit: 10;
        stroke-width: 0.15px;
      }
    ]]></style>
   </defs>
   <path class="a"
         d="M8.25359.82471a14.78921,14.78921,0,0,0-1.3535.8335,10.25454,10.25454,0,0,0-1.9356,1.625c-.497.5473-1.1552.9043-1.6816,1.4331a5.624,5.624,0,0,1-1.8296,1.0879c-.7617.3476-1.7573.8818-1.231,1.915.854,1.6733,3.3306,2.5088,5.0513,2.856.5781.1167,1.145.2436,1.7378.33a8.93847,8.93847,0,0,0,1.3257.084c.4145,0,.748.1055.9116-.3154.3423-.8823-1.2837-1.062-1.83449-1.3462a4.59049,4.59049,0,0,1-1.89791-1.3613,2.2097,2.2097,0,0,1-.44-1.042c-.0439-.5576.4073-.8208.8091-1.0694.5523-.3413,1.0572-.7495,1.625-1.0732a10.94512,10.94512,0,0,1,2.0703-1.126c.43851-.1235.899-.05561,1.3428-.1411a1.58382,1.58382,0,0,0,.9473-.6489c.5688-.627,1.15041-1.14261,1.126-2.0635-.0328-1.2417-1.7613-.51611-2.458-.52A4.629,4.629,0,0,0,8.25359.82471Z"/>

</g>
</svg>
