<?xml version="1.0" encoding="UTF-8"?>
<svg xmlns="http://www.w3.org/2000/svg"
     version="1.1"
     width="49.63997235mm"
     height="45.29542363mm"
     viewBox="0.00000000 0.00000000 140.71173091 128.39639583">

<g transform="scale(7.36351710)">   <defs>
      <style type="text/css"><![CDATA[
      .a {
        stroke: #000;
        stroke-miterlimit: 10;
        stroke-width: 0.15px;
      }
    ]]></style>
   </defs>
   <path class="a"
         d="M14.48584,1.98249c-.14136.42316-.34546,1.0441-.05749,1.37522.2845.32711.79041.06923,1.04235.401.27775.36574-.061,1.04273-.10485,1.13027a2.633,2.633,0,0,1-1.29414,1.15062,65.72986,65.72986,0,0,0-9.59538,5.72183C1.459,14.13-.06133,17.23374.0846,17.35771c.09836.08355,1.04142-1.112,2.71875-2.625a30.05185,30.05185,0,0,1,10.25-6.53125,10.48817,10.48817,0,0,0,4.53125-2.375,6.18739,6.18739,0,0,0,1.40625-2.84375.99915.99915,0,0,0-.10024-.8534.87047.87047,0,0,0-.45372-.26471,7.32281,7.32281,0,0,1-1.27011-.64813c-.85723-.519-.766-1.10608-1.20718-1.14C15.27433.02372,14.67672,1.41114,14.48584,1.98249Z"/>

</g>
</svg>
