<?xml version="1.0" encoding="UTF-8"?>
<svg xmlns="http://www.w3.org/2000/svg"
     version="1.1"
     width="17.92199875mm"
     height="20.98935225mm"
     viewBox="0.00000000 0.00000000 50.80256828 59.49736326">

<g transform="scale(4.19054538)">   <defs>
      <style type="text/css"><![CDATA[
      .a {
        stroke: #000;
        stroke-miterlimit: 10;
        stroke-width: 0.15px;
        fill-rule: evenodd;
      }
    ]]></style>
   </defs>
   <path class="a"
         d="M8.1258,11.08662a10.06347,10.06347,0,0,1-4.85156,2.5728c-.2378.05078-3.20655.6724-3.19923.3906.04541-1.8183,2.10841-1.6489,3.20118-2.438,1.49853-.729,5.44824-4.04,1.99023-5.0893-.67431-.2046-.85546-.2652-.90087-.9717a1.63792,1.63792,0,0,1,.12451-.9204,6.42962,6.42962,0,0,1,1.72705-1.565,9.9408,9.9408,0,0,0,1.333-1.1098C8.39191,1.05392,9.158-.2298,10.56032.14032c.9634.2535.1802.92488-.24165,1.4307-.4043.4854-1.54834,1.8486-.9917,2.5064.37305.4419,1.21825.4399,1.73145.7006a1.51678,1.51678,0,0,1,.98,1.4268c-.0845.6118-.793.9766-1.1192,1.4702A18.58663,18.58663,0,0,1,8.1258,11.08662Z"/>

</g>
</svg>
