<?xml version="1.0" encoding="UTF-8"?>
<svg xmlns="http://www.w3.org/2000/svg"
     version="1.1"
     width="20.26733622mm"
     height="53.90198218mm"
     viewBox="0.00000000 0.00000000 57.45062765 152.79309766">

<g transform="scale(7.55223773)">   <defs>
      <style type="text/css"><![CDATA[
      .a {
        stroke: #000;
        stroke-miterlimit: 10;
        stroke-width: 0.15px;
      }
    ]]></style>
   </defs>
   <path class="a"
         d="M4.52275.81157c-1.79932,1.72271-1.883,1.98916-2.84042,2.90425A6.24736,6.24736,0,0,0,.15041,5.79029a1.11626,1.11626,0,0,0-.03191.70213,1.18989,1.18989,0,0,0,.57447.6383,1.96739,1.96739,0,0,0,1.43617.06383c1.70654-.33209,1.6728-.39186,2.26595-.47873,1.26583-.18536,2.01733-.00068,2.45745-.54255A1.10983,1.10983,0,0,0,7.044,5.82221,1.73751,1.73751,0,0,0,6.693,4.418c-.39131-.56708-.75944-.60045-.766-.92553-.00552-.27478.25527-.36152.54255-.734a2.06257,2.06257,0,0,0,.31915-2.234A1.25182,1.25182,0,0,0,5.927.07753,1.95788,1.95788,0,0,0,4.52275.81157Z"/>
   <path class="a"
         d="M2.775,7.641c.33206,3.40956.3905,8.29594.43929,9.00038a6.7618,6.7618,0,0,1-.12766,2.23405c-.18213.72873-.46331,1.205-.35459,1.27375.07525.04759.27008-.14258.51417-.38013,1.98894-1.93577,2.1094-2.01675,2.29787-2.10639a1.73384,1.73384,0,0,0,.805-.5273,1.4325,1.4325,0,0,0,.2437-.8131c.04136-1.45024.30654-2.88972.3236-4.34045A21.56317,21.56317,0,0,1,7.10786,8.535c.123-.73425.20966-1.6278.383-3.41489.05875-.60576.09033-.98921-.15958-1.24468-.24705-.25256-.58478-.1915-2.42553-.03192-1.03962.09013-1.15284.08981-1.34042.22341a2.82134,2.82134,0,0,0-.766,2.07446A7.5293,7.5293,0,0,0,2.775,7.641Z"/>

</g>
</svg>
