<?xml version="1.0" encoding="UTF-8"?>
<svg xmlns="http://www.w3.org/2000/svg"
     version="1.1"
     width="53.62097336mm"
     height="28.14536736mm"
     viewBox="0.00000000 0.00000000 151.99652286 79.78219327">

<g transform="scale(5.47396325)">   <defs>
      <style type="text/css"><![CDATA[
      .a {
        stroke: #000;
        stroke-linecap: round;
        stroke-linejoin: round;
        stroke-width: 0.01px;
      }
    ]]></style>
   </defs>
   <path class="a"
         d="M26.048.14953a.49061.49061,0,0,1-.63672.207C25.255.30578,25.18859.31359,25.087.41125a.72313.72313,0,0,1-.31641.17969,3.20733,3.20733,0,0,0-.55468.23828.9017.9017,0,0,1-.41406.13672.88324.88324,0,0,0-.38282.08593,3.0076,3.0076,0,0,1-.66015.13672,2.27732,2.27732,0,0,0-.72266.14453,5.84614,5.84614,0,0,1-.73828.16407,2.81674,2.81674,0,0,0-.96094.3125c-.23828.16406-.35547.1875-.86328.17968A3.41818,3.41818,0,0,1,18.62216,1.88a1.95418,1.95418,0,0,0-1.26953-.0625c-.1211.07031-.23828.10156-.26563.07812-.02344-.02343-.10547.00782-.17969.07813a.82076.82076,0,0,1-.40625.15234,1.86756,1.86756,0,0,0-.79687.168.28431.28431,0,0,1-.27344.00781,1.01514,1.01514,0,0,0-.47266,0,10.157,10.157,0,0,1-1.0625.125,4.16607,4.16607,0,0,0-.82031.1211,2.56209,2.56209,0,0,1-.55469.10156,5.05254,5.05254,0,0,0-.6875.11719.56571.56571,0,0,1-.30859.03515,1.30389,1.30389,0,0,0-.72656.26172A1.43915,1.43915,0,0,1,9.82922,3.005a1.58288,1.58288,0,0,0-1.08594.16016.973.973,0,0,1-.4414.12109c-.02344-.02344-.08985.00781-.14844.07031-.10156.10156-.13282.10156-.28906-.00781a1.344,1.344,0,0,0-.7461-.10547c-.3164.00781-1.1289-.00781-1.8164-.03906-1.14454-.04688-1.26172-.03906-1.57422.09765-.23438.11719-.375.14063-.46485.08594a.16626.16626,0,0,0-.207.00781.45968.45968,0,0,1-.21484.10157,3.35812,3.35812,0,0,0-.49219.1914,1.93273,1.93273,0,0,1-.48047.16016.51554.51554,0,0,0-.26172.11719.3549.3549,0,0,1-.23437.0664c-.0586-.02343-.15625.04688-.22266.15625a.63218.63218,0,0,1-.25781.23828.2982.2982,0,0,0-.1836.19141.91994.91994,0,0,1-.15624.26953A1.57909,1.57909,0,0,0,.40344,5.673,7.90281,7.90281,0,0,1,.337,6.52453a.5158.5158,0,0,0,.03906.32422.89673.89673,0,0,1-.26953.79687C.02844,7.67687.005,7.89172.005,8.70031c0,.99219.00781,1.01563.19141,1.19922a.36918.36918,0,0,1,.14843.41406.6968.6968,0,0,0,.23828.65625.42924.42924,0,0,1,.125.27735,1.16373,1.16373,0,0,0,.40626.75.506.506,0,0,1,.1914.26953.33371.33371,0,0,0,.17578.23047.314.314,0,0,1,.1875.20312.83012.83012,0,0,0,.64844.35938,2.92,2.92,0,0,1,1.0625.39843,2.29018,2.29018,0,0,0,.668.25391,2.14117,2.14117,0,0,1,.48437.125c.11328.04688.19922.0625.19922.04688a1.09882,1.09882,0,0,1,.3711.16015,4.02328,4.02328,0,0,0,1.957.26953,7.64018,7.64018,0,0,1,1.24219.15235c.64843.13281.74609.13281.88671.03125a.88347.88347,0,0,1,.42969-.11328,2.32272,2.32272,0,0,0,.625-.125,3.73017,3.73017,0,0,1,1.25781-.21485,2.33407,2.33407,0,0,0,.61329-.08594,2.45966,2.45966,0,0,1,.80468-.14453.68737.68737,0,0,0,.4961-.23047c.19922-.22265.25781-.23828.60546-.10937a.405.405,0,0,0,.44922-.03125.56517.56517,0,0,1,.29688-.082.744.744,0,0,0,.375-.07813c.23828-.09765.3125-.10546.42187-.02343a.76477.76477,0,0,0,.36329.10937c.125.00781.30078.02344.40624.03906a1.15376,1.15376,0,0,0,.48047-.10937,3.85969,3.85969,0,0,1,1.32813-.26953,4.59812,4.59812,0,0,0,.88672-.13672,3.15219,3.15219,0,0,1,.70312-.125,5.19706,5.19706,0,0,0,.84766-.14453,1.38281,1.38281,0,0,1,.71875-.07813.58783.58783,0,0,0,.40625,0,.51387.51387,0,0,1,.40625,0c.082.04688.16015.0625.18359.03906s.10547-.00781.17578.03907a.25289.25289,0,0,0,.30469-.03907.22683.22683,0,0,1,.30859-.03124,4.31684,4.31684,0,0,0,1.15235.30859,6.37053,6.37053,0,0,0,1.043.08594,1.33874,1.33874,0,0,0,1.08594-.30079,1.82481,1.82481,0,0,0,.49609-.42187,2.61956,2.61956,0,0,1,.39844-.51563,3.125,3.125,0,0,0,.44921-.625.47519.47519,0,0,0-.043-.50781.506.506,0,0,1-.05078-.49219.63185.63185,0,0,0-.05079-.52734c-.1289-.293-.29687-.40234-.69531-.44922a.31032.31032,0,0,1-.1875-.082c-.01953-.04687-.13672-.10156-.26562-.14062a15.314,15.314,0,0,0-2.47266-.00782,3.23057,3.23057,0,0,1-.57812.05469,3.10273,3.10273,0,0,0-.73829.125,3.85021,3.85021,0,0,1-.73047.12891.82315.82315,0,0,0-.35546.0625c-.02735.03125-.14063.01562-.24219-.02344a3.10458,3.10458,0,0,0-1.44922.00781,1.472,1.472,0,0,1-.98828.07032,3.30538,3.30538,0,0,0-1.05078-.15626c-.14063,0-.64844.00782-1.12891.00782a6.41715,6.41715,0,0,0-1.02734.07031c-.15625.0625-.22266.04687-.83594-.15234a3.76648,3.76648,0,0,0-.77734-.11719,5.3079,5.3079,0,0,1-.84766-.10156,2.1579,2.1579,0,0,0-.99609-.05078,2.40543,2.40543,0,0,1-.97657-.16407,1.88344,1.88344,0,0,0-.64843-.13672.30774.30774,0,0,1-.23829-.05468A.98015.98015,0,0,0,9.97765,8.341c-.44922-.03906-1.293-.14063-1.49219-.17969a.55126.55126,0,0,1-.207-.16016c-.14063-.14453-.14063-.16015-.01953-.42187.13281-.28516.17578-.3086.78906-.37891a1.23358,1.23358,0,0,0,.44922-.12109,1.32494,1.32494,0,0,1,.668-.19141,5.48648,5.48648,0,0,0,2.043-.58594c.22266-.125.30469-.13281.46094-.0625.10156.05469.19141.125.19141.15625a3.77114,3.77114,0,0,0,1.375-.08593.6707.6707,0,0,1,.36719-.04688A.45092.45092,0,0,0,14.927,6.1574a2.41055,2.41055,0,0,1,1.21865-.4024.27125.27125,0,0,0,.28126-.082,1.65741,1.65741,0,0,1,1.19921-.39453c.293.01562.47266-.00782.54688-.07813a2.4601,2.4601,0,0,1,1.07812-.39844,5.45648,5.45648,0,0,0,1.293-.32421,2.02257,2.02257,0,0,1,.87891-.21485,1.48087,1.48087,0,0,0,.61328-.18359,3.89517,3.89517,0,0,1,.73828-.26953c.24219-.03907.72266-.26172.72266-.33594,0-.03125.125-.11719.28906-.1875a2.0923,2.0923,0,0,0,.457-.28906.39611.39611,0,0,1,.332-.11719.369.369,0,0,0,.32813-.10547c.08594-.08594.1914-.13281.21875-.11719.03125.02344.082-.04687.10547-.15234a.48313.48313,0,0,1,.32422-.31641,5.81806,5.81806,0,0,0,1.77343-1.08593c.32422-.33594.375-.42969.31641-.55079-.043-.07812-.0586-.16406-.03516-.1875.02344-.01953.00782-.11328-.043-.19921C27.48938.02062,27.41516.005,26.78625.005,26.16516.005,26.09094.02062,26.048.14953Z"/>

</g>
</svg>
