<?xml version="1.0" encoding="UTF-8"?>
<svg xmlns="http://www.w3.org/2000/svg"
     version="1.1"
     width="64.29327459mm"
     height="33.08408911mm"
     viewBox="0.00000000 0.00000000 182.24861226 93.78171602">

<g transform="scale(5.42051992)">   <defs>
      <style type="text/css"><![CDATA[
      .a {
        stroke: #000;
        stroke-miterlimit: 10;
        stroke-width: 0.15px;
      }
    ]]></style>
   </defs>
   <path class="a"
         d="M33.52367,1.91046c.1289.7651-.3008,1.2724-.6943,1.9917-.3985.7231-.7666,1.4429-1.2676,2.1933a19.10892,19.10892,0,0,1-4.55658,4.8804c-1.40242,1.001-2.56162,2.4068-4.05672,3.0523.3262-.1411,1.4492.1904,1.8633.1889a5.15941,5.15941,0,0,1,1.5488.209,14.042,14.042,0,0,0,2.7373,0,12.81712,12.81712,0,0,1,2.3194.33789c.9433.24071,2.50292.26031,1.79,1.60251-.71,1.33649-2.3223.73149-3.5693.6719-.8369-.042-1.585-.2549-2.4375-.3232-2.1641-.1758-4.3809-.1758-6.5342-.5235a42.32379,42.32379,0,0,0-4.7608-.0239c-1.5136-.0683-2.9755-.7153-4.4414-.77681a31.6098,31.6098,0,0,0-3.4951.08741,29.9848,29.9848,0,0,1-3.0469-.2188,16.34583,16.34583,0,0,1-3.0078-.3335c-.6406-.13911-1.9404-.2764-1.833-1.1758a5.16521,5.16521,0,0,1,1.2071-1.6245,4.996,4.996,0,0,1,2.3007-.3662c.833.00539,1.667,0,2.5,0a45.77963,45.77963,0,0,1,4.7676.2915c1.0117.1065,1.9336.5073,2.9502.6016,2.334.2158,4.9961.6816,7.1397-.5806a25.19653,25.19653,0,0,0,2.623-1.87011,14.34925,14.34925,0,0,0,2.7383-2.55129c.125-.1606.2402-.4624.3496-.5942a7.89368,7.89368,0,0,0,1.26372-1.5181,12.41587,12.41587,0,0,0,.67278-2.1162,7.40494,7.40494,0,0,1,1.2031-2.2969,2.214,2.214,0,0,1,.9678-.6987,4.28546,4.28546,0,0,1,1.1485-.3511c.8173.0391,1.3359.8863,1.5507,1.58449A2.02937,2.02937,0,0,1,33.52367,1.91046Z"/>

</g>
</svg>
