<?xml version="1.0" encoding="UTF-8"?>
<svg xmlns="http://www.w3.org/2000/svg"
     version="1.1"
     width="34.91092307mm"
     height="51.23388239mm"
     viewBox="0.00000000 0.00000000 98.96005893 145.22992685">

<g transform="scale(3.28071329)">   <defs>
      <style type="text/css"><![CDATA[
      .a {
        stroke: #000;
        stroke-linecap: round;
        stroke-linejoin: round;
        stroke-width: 0.01px;
      }
    ]]></style>
   </defs>
   <path class="a"
         d="M29.21128.12609c-.12109.0625-.21093.13672-.21093.17579a1.52465,1.52465,0,0,1-.36329.30078c-.27343.17187-.3789.30078-.42187.48046a6.12813,6.12813,0,0,1-.23047.69532c-.10547.24609-.23828.58594-.30078.7539-.05859.16407-.17578.4375-.25.60938a1.68652,1.68652,0,0,0-.14063.5039.45018.45018,0,0,1-.10546.293,8.908,8.908,0,0,0-.6836,1.51563,1.99256,1.99256,0,0,1-.207.46094,1.37751,1.37751,0,0,0-.17969.49609.907.907,0,0,1-.15625.59766c-.03906.01953-.05078.14843-.03906.27734a1.67283,1.67283,0,0,1-.19141.70313,2.884,2.884,0,0,0-.22265.5625.6923.6923,0,0,1-.1875.30078,2.57826,2.57826,0,0,0-.33985.52343,2.15857,2.15857,0,0,1-.21484.35157,1.14658,1.14658,0,0,0-.16406.30078c-.09766.23437-.09766.28906-.00781.42969.08984.13671.08984.19921-.00782.42968a3.10326,3.10326,0,0,0-.14843.58985.628.628,0,0,1-.11329.34765c-.043.01172-.082.08985-.082.16407a.49746.49746,0,0,1-.125.26953.52564.52564,0,0,0-.14062.21093,2.95786,2.95786,0,0,1-.38672.82422.94932.94932,0,0,0-.03906.86719c.07422.082.07422.13281.00781.26172a1.01528,1.01528,0,0,0-.09375.30078,2.8716,2.8716,0,0,1-.60547.89844.19162.19162,0,0,0-.05078.20312,1.64276,1.64276,0,0,1-.207.61719,2.25164,2.25164,0,0,0-.25391.88281.906.906,0,0,1-.17969.60157,2.92723,2.92723,0,0,0-.27343.46093,2.59432,2.59432,0,0,1-.49219.7461.152.152,0,0,0-.05859.13672.52833.52833,0,0,1-.1836.26953.53712.53712,0,0,0-.1875.25,1.6221,1.6221,0,0,1-.543.97265,1.90564,1.90564,0,0,0-.49218.46485,1.22671,1.22671,0,0,1-.30469.332,4.50691,4.50691,0,0,0-.61719.5664,3.82017,3.82017,0,0,1-.64453.56641.40636.40636,0,0,0-.1875.08984c-.05078.05079-.23828.21875-.40625.35938a8.99326,8.99326,0,0,0-.69141.67187,2.391,2.391,0,0,1-1.80078.8086c-.78125.03515-.957-.03906-1.10547-.48438a.94753.94753,0,0,1-.04693-.63281.62029.62029,0,0,0,.00781-.41406,1.12666,1.12666,0,0,1-.03125-.47656,3.719,3.719,0,0,0,.03125-.55469,1.51781,1.51781,0,0,1,.19922-.56641,1.44475,1.44475,0,0,0,.21094-.53515c.00781-.10547.03515-.41407.05859-.69532a1.52843,1.52843,0,0,0-.02344-.64453.27774.27774,0,0,1,.03907-.3125.40432.40432,0,0,0,.082-.293.703.703,0,0,1,.07422-.33984.33669.33669,0,0,0,.02734-.34375c-.043-.07813-.05078-.168-.01953-.19922a1.38588,1.38588,0,0,0,.0664-.47266A6.62272,6.62272,0,0,1,14.9886,16.419a.51137.51137,0,0,0-.03125-.34375c-.0586-.12109-.0586-.18359.03125-.27343a.49468.49468,0,0,0,.11328-.30079.972.972,0,0,1,.61328-.71484,3.51914,3.51914,0,0,0,1.76562-1.14062,7.45424,7.45424,0,0,1,.69141-.60157c.14844-.10547.27344-.21093.27344-.25a.61885.61885,0,0,1,.14844-.20312,5.199,5.199,0,0,0,.64843-1.23438,1.66993,1.66993,0,0,0,.00391-.60937c-.02734-.27344-.25781-.41016-.63672-.37891a6.729,6.729,0,0,0-1.48047.35547c-.13282.10547-.40234.13672-1.39844.16406-.48829.01563-1.03125.05469-1.20313.08594a1.08057,1.08057,0,0,1-.60937-.0625,1.47137,1.47137,0,0,0-.73047-.082c-.23437.02344-.66016.043-.94921.05078-.56641.01563-.79688.12109-1.60547.75391a3.82274,3.82274,0,0,1-.60938.3789.674.674,0,0,0-.543.64063c-.01562.39062.082.543.34766.543a.54018.54018,0,0,1,.39453.1875.59166.59166,0,0,0,.26172.1875,1.4355,1.4355,0,0,1,.37891.15234c.47656.23828.61718.65625.59375,1.67188a5.43051,5.43051,0,0,0,.05078.89062,4.22453,4.22453,0,0,1,.00781.94141,1.79524,1.79524,0,0,0,.11328,1.26562c.08985.19531.10938.32422.0586.41406a.266.266,0,0,0-.00782.24219.23335.23335,0,0,1,0,.22656.26855.26855,0,0,0-.00781.21875,1.13263,1.13263,0,0,1,.03125.48047,4.899,4.899,0,0,0,0,1.07032,2.23188,2.23188,0,0,1-.26953,1.01953,4.26734,4.26734,0,0,0-.28125.85937.823.823,0,0,1-.10547.33594,1.38156,1.38156,0,0,0-.07422.56641.57145.57145,0,0,1-.1914.58984c-.1211.11719-.2461.20312-.28907.17187a1.31408,1.31408,0,0,0-.38672-.03906H9.67216c-.05859,0-.30469-.02734-.55078-.0664a1.04342,1.04342,0,0,0-.77734.082,7.76242,7.76242,0,0,0-1.19922.59765,1.4393,1.4393,0,0,1-.21483.14063,2.08108,2.08108,0,0,0-.26171.16015,5.65355,5.65355,0,0,1-1.00782.707,3.85935,3.85935,0,0,0-1.332.9414,5.49311,5.49311,0,0,1-.832.6875,1.113,1.113,0,0,0-.41016.375c-.13281.30469-.36328.832-.58593,1.32031a1.40837,1.40837,0,0,1-.418.58594.76361.76361,0,0,0-.25391.26563.48563.48563,0,0,1-.21484.23437.46474.46474,0,0,0-.22266.25391,2.2427,2.2427,0,0,1-.41406.55859,2.31214,2.31214,0,0,0-.375.46875c0,.043-.07422.11328-.168.15625-.34375.16016-.44922.52735-.42578,1.46485.00781.13281.11328.28515.46094.61718.05468.05078.20312.19532.32031.32422.1875.1875.26953.22656.48437.20313.59375-.06641.9961.26953.84766.71484a2.26389,2.26389,0,0,0-.07422.47656c-.01562.16407-.0625.4375-.09765.60938a1.26925,1.26925,0,0,0-.04688.46875.39579.39579,0,0,1-.09375.293.66632.66632,0,0,0-.13672.39062,4.0976,4.0976,0,0,1-.05859.56641,3.75951,3.75951,0,0,0,.03906.82813,6.2857,6.2857,0,0,1,.082.64844c-.01562.20313-.02344,1.76563-.01562,1.92188.01562.21093.15625.56639.22265.56639.03125,0,.09766.09766.14844.22656.082.19532.125.22657.38672.22657a1.27933,1.27933,0,0,0,.52734-.12891,1.78854,1.78854,0,0,1,.8711-.17579,8.34562,8.34562,0,0,0,1.72278-.60936,2.33032,2.33032,0,0,1,.6836-.14453,2.73237,2.73237,0,0,0,.73047-.14063,4.08046,4.08046,0,0,1,.98828-.1875,5.6513,5.6513,0,0,0,1.76953-.3125c.48437-.17187.52734-.17969.74218-.0586.35938.17969.35157.16016.23047.84375a1.76871,1.76871,0,0,0,.4336,1.25,1.88928,1.88928,0,0,1,.35547.5586c.09765.21095.207.38672.26171.38672a.70358.70358,0,0,1,.28907.15625l.1914.16014.543-.168a3.19418,3.19418,0,0,0,1.17578-.625,1.88954,1.88954,0,0,0-.043-1.03125c-.22656-.25-.2539-.49217-.14453-1.02734a2.75509,2.75509,0,0,0,.07032-.74608c-.07032-.40625.17578-.5625.89843-.5625a1.47282,1.47282,0,0,0,1.13672-.4375,4.0172,4.0172,0,0,1,1.60547.01953,12.58927,12.58927,0,0,0,1.77734.12109,1.38013,1.38013,0,0,1,.69922.11329c.15625.10546.19141.10546.46875-.03515.28125-.15235.29688-.15235.57032-.01563a1.41939,1.41939,0,0,0,.79687.11328c.28906-.01562.69141-.03125.89844-.03125a2.20463,2.20463,0,0,0,1.73828-.85937c.14453-.16406.35937-.39063.47656-.50391.20313-.19531.21485-.25.21485-.8164a2.45526,2.45526,0,0,0-.02735-.625c-.01562-.01563-.14062-.10547-.27734-.19532-.21485-.15625-.35547-.17968-1.1211-.21093a5.90077,5.90077,0,0,0-1.05468.03125,1.01169,1.01169,0,0,1-.4375.00781,5.19852,5.19852,0,0,0-.63282-.11328,2.12616,2.12616,0,0,1-.44531-.09766,8.27121,8.27121,0,0,0-1.61328-.07031,5.53325,5.53325,0,0,1-1.47266-.07422,5.741,5.741,0,0,0-2.17968.07422,1.11658,1.11658,0,0,1-.46875.168,1.44964,1.44964,0,0,1-.85551-.16016c-.32422-.12891-.52735-.25391-.55469-.34766a5.8058,5.8058,0,0,1-.06641-.91015c-.01562-.41406-.04687-.94141-.0625-1.168-.043-.49609-.01953-.57422.23047-.67188a9.54988,9.54988,0,0,1,2.83985-.58593,4.49319,4.49319,0,0,0,1.41406-.1836.295.295,0,0,1,.25391.01563,8.64124,8.64124,0,0,0,1.64062.10547,11.11382,11.11382,0,0,1,2.03125.13672,2.68639,2.68639,0,0,0,.59375.08984c.14063-.08984.51172.18359.64063.46094a.589.589,0,0,0,.41406.39843c.32031.10547.57422.05469.63281-.14062a.43387.43387,0,0,1,.22266-.21875,2.46019,2.46019,0,0,0,.75781-1.18359,3.17373,3.17373,0,0,0,.04687-.71875c-.02343-.22657-.03125-.46485-.03125-.52735.03907-.57031-.05859-.84375-.35546-1.02344a.66806.66806,0,0,1-.26954-.26562,1.42406,1.42406,0,0,0-.8164-.40625,6.26379,6.26379,0,0,0-1.60547-.03125.38273.38273,0,0,1-.26953-.01172.36031.36031,0,0,0-.35547.05078.85391.85391,0,0,1-.81641-.0664,1.16344,1.16344,0,0,0-.76172-.14456,1.47248,1.47248,0,0,0-.5625.1211,2.58819,2.58819,0,0,1-1.38281-.00781c-.19531-.07422-.60156-.03907-.60156.05468a.77713.77713,0,0,1-.29688.17972c-.16406.06641-.30078.14844-.30078.19531,0,.082-.46093.332-.77734.41407a3.12182,3.12182,0,0,1-.67188.04687,1.47315,1.47315,0,0,0-.55078.05859.37111.37111,0,0,1-.332-.03125c-.1289-.05078-.33594-.14062-.46875-.1875-.2539-.09765-.42578-.42968-.32031-.60937a.23465.23465,0,0,0-.00781-.22656.4018.4018,0,0,1-.03516-.23438,3.02811,3.02811,0,0,0,.07422-.35937c.01953-.14453.07422-.40235.11719-.56641.04687-.168.08984-.37109.10547-.45312s.02734-.17188.03515-.19532c.01563-.0664.23047-.16015.47656-.1875a.971.971,0,0,0,.42579-.20312,1.66063,1.66063,0,0,1,.66015-.27342c.59375-.12109,1.26953-.42187,1.26953-.57033,0-.12109.36719-.5.82813-.86717a2.77482,2.77482,0,0,0,.66015-.67187c0-.03907.125-.1211.28125-.17969a4.30761,4.30761,0,0,0,1.207-1.26172,1.04153,1.04153,0,0,1,.21484-.25391c.05078-.04687.332-.32423.63281-.60937a9.52205,9.52205,0,0,1,.69141-.65625.994.994,0,0,0,.24219-.42188.94781.94781,0,0,1,.1875-.39453.36106.36106,0,0,0,.11328-.23047.40061.40061,0,0,1,.09375-.23437,5.81344,5.81344,0,0,0,.67578-1.10156c.03125-.08985.08984-.16407.1289-.16407.03516,0,.06641-.0625.06641-.14453a.66459.66459,0,0,1,.13281-.3164,2.63345,2.63345,0,0,0,.46094-1.10157,2.70685,2.70685,0,0,1,.25391-.78125,18.2651,18.2651,0,0,0,.78906-2.34375,2.83866,2.83866,0,0,1,.21484-.543,6.79947,6.79947,0,0,0,.25782-.66406.46729.46729,0,0,1,.19531-.28515c.082-.04688.13281-.11329.10937-.15235a1.09693,1.09693,0,0,1,.14453-.42969,4.31133,4.31133,0,0,0,.27344-.8125,3.0252,3.0252,0,0,1,.17188-.60546.44353.44353,0,0,0,.05859-.21875c-.01562-.02736.03125-.14063.09766-.23829a.77055.77055,0,0,0,.10937-.3125,4.059,4.059,0,0,1,.1875-.66015,3.63246,3.63246,0,0,0,.1836-.65625,5.923,5.923,0,0,1,.38671-.90625,3.313,3.313,0,0,0,.40235-1.07813A3.06854,3.06854,0,0,1,28.27378,5.38c.125-.12891.19922-.27344.17969-.31641-.03125-.04687.05078-.1875.17578-.3164a2.7646,2.7646,0,0,0,.23047-.28516c.00781-.02344.01563-.19922.03125-.38672a6.34584,6.34584,0,0,1,.36328-1.64062,1.25156,1.25156,0,0,1,.30469-.35547,2.0308,2.0308,0,0,0,.42578-.58984c.18359-.38282.207-.47266.14063-.668a.52062.52062,0,0,1-.03907-.30469C30.15269.41125,29.73863.005,29.56675.005A1.12812,1.12812,0,0,0,29.21128.12609ZM10.39488,28.16125c.09765.01563.18359.12109.23828.26563.10156.30859.10156.33984-.03906.48046-.10938.10547-.10157.13672.082.3125.13281.125.1875.22266.14843.31641a2.55818,2.55818,0,0,0-.10937.39063,1.52854,1.52854,0,0,1-.293.68359c-.01953.00781-.52734.01562-1.12109.02344a5.71329,5.71329,0,0,0-1.24219.10547.34783.34783,0,0,1-.26563.04687.42868.42868,0,0,0-.28906.05078,6.17634,6.17634,0,0,1-1.66015.07813c-2.09766-.03125-2.11719-.03125-2.19141-.15235-.07422-.13672.082-.48047.29688-.63281a1.99759,1.99759,0,0,0,.36328-.39844c.625-.85156.97265-1.10156,1.52343-1.09375a1.12306,1.12306,0,0,0,.35938-.11328A9.39189,9.39189,0,0,1,8.74253,28.255a2.44217,2.44217,0,0,0,.7461-.12109A1.563,1.563,0,0,1,10.39488,28.16125Zm.05859,5.26172a.58776.58776,0,0,1,.19531.17969A4.141,4.141,0,0,1,10.641,34.673a1.48618,1.48618,0,0,0,.01172.60547c.03906.26953.07422.64062.08984.82812a1.46891,1.46891,0,0,0,.06641.42969c.12891.21094-.23438.625-.54688.625a2.44194,2.44194,0,0,0-.67968.1875,2.48312,2.48312,0,0,1-.76563.19141,5.00325,5.00325,0,0,0-.71094.07422,8.07892,8.07892,0,0,1-.84765.11328,6.29773,6.29773,0,0,0-1.03516.1875c-.92187.25-1.02343.15234-1.04687-1.05469a5.85116,5.85116,0,0,0-.11328-1.12891,1.65213,1.65213,0,0,1-.082-.46875.62675.62675,0,0,0-.10157-.3164.33591.33591,0,0,1,.13282-.51953,11.25376,11.25376,0,0,1,1.61328-.14454,3.73958,3.73958,0,0,0,.46093.0625c.34766.03516.36329.02735.75-.38671a1.60814,1.60814,0,0,1,.543-.41407.38075.38075,0,0,0,.23047-.082,2.75232,2.75232,0,0,1,1.84369-.03906Z"/>

</g>
</svg>
