<?xml version="1.0" encoding="UTF-8"?>
<svg xmlns="http://www.w3.org/2000/svg"
     version="1.1"
     width="10.27074693mm"
     height="47.93588005mm"
     viewBox="0.00000000 0.00000000 29.11399191 135.88115966">

<g transform="scale(5.42051992)">   <defs>
      <style type="text/css"><![CDATA[
      .a {
        stroke: #000;
        stroke-miterlimit: 10;
        stroke-width: 0.15px;
      }
    ]]></style>
   </defs>
   <path class="a"
         d="M2.81573,10.98911c.582-.1992,1.2392-.13381,1.3554.5229a19.31607,19.31607,0,0,1-.0761,2.8741c.0029.7944.3662,1.4028-.3164,1.998a2.122,2.122,0,0,1-1.6192.4805c-1.3115-.2105-1.0371-1.9366-1.0371-2.9356a2.75419,2.75419,0,0,1,1.2129-2.7016A1.98624,1.98624,0,0,1,2.81573,10.98911Z"/>
   <path class="a"
         d="M.81183,4.85971c-.1582-1.584-1.7452-3.6587.2959-4.7046.3623-.1875.8837.01319,1.2705.01119,1.0996-.00919,1.0019.38141,1.1406,1.37011a4.74428,4.74428,0,0,1-.3496,3.1412,3.99645,3.99645,0,0,0-.6319,1.7412c-.0761.7832-.6054,2.1084-1.6992,1.6992C.75023,8.0853.83623,5.13261.81183,4.85971Z"/>
   <path class="a"
         d="M2.32643,17.48711a1.1135,1.1135,0,0,1,.6709.1944c.4395.2964.6299.9223.9473,1.2973.4062.4746.8437.7129,1.0283,1.313a9.118,9.118,0,0,1,.2226,1.6206c.0801.7915.3174,2.3047-.4209,2.8848-1.2412.9775-2.3027-1.9898-2.5703-2.666a20.66353,20.66353,0,0,1-.3828-2.5171c-.125-.4805-.5097-.94-.3554-1.4541A.93146.93146,0,0,1,2.32643,17.48711Z"/>

</g>
</svg>
