<?xml version="1.0" encoding="UTF-8"?>
<svg xmlns="http://www.w3.org/2000/svg"
     version="1.1"
     width="37.10384306mm"
     height="61.77257797mm"
     viewBox="0.00000000 0.00000000 105.17627742 175.10340526">

<g transform="scale(4.19054538)">   <defs>
      <style type="text/css"><![CDATA[
      .a {
        stroke: #000;
        stroke-miterlimit: 10;
        stroke-width: 0.15px;
        fill-rule: evenodd;
      }
    ]]></style>
   </defs>
   <path class="a"
         d="M10.661,1.03027a3.90774,3.90774,0,0,1,.18457,1.5864,21.91266,21.91266,0,0,0-.01612,3.2915,53.779,53.779,0,0,0,.94385,6.2974A28.80846,28.80846,0,0,1,11.787,22.127c-.189,1.2202-.29736,3.8066-1.87549,2.10108a8.84923,8.84923,0,0,1-1.33006-3.982c-.2153-1.834-.8252-3.727-.5527-5.54438a11.04024,11.04024,0,0,0-.441-6.083,8.7531,8.7531,0,0,1-.7461-2.3242,18.248,18.248,0,0,1-.5566-3.168q.0015-.81075,0-1.6216c-.0015-.6592-.0391-.8247.6558-1.0034.5859-.1509,1.269-.2939,1.8745-.3848.4575-.0688,1.19968-.0962,1.5.2779A2.21636,2.21636,0,0,1,10.661,1.03027Z"/>
   <path class="a"
         d="M13.13954,21.70605c-2.26562,1.92092-4.627,3.66992-6.88669,5.25-.9107.63672-1.3531,1.62792-2.3062,2.27442-1.2998.8813-2.396,2.1553-1.9365,3.9185.3594,1.3798,2.3315,2.15908,1.9917,3.7837-2.4531.6147-3.9194-1.7969-3.9268-3.919-.0083-2.5303,1.0098-3.9277,3.1778-5.1269,2.9614-1.6402,4.6469-4.32872,7.36032-6.22272a30.506,30.506,0,0,0,4.251-4.28908,55.32854,55.32854,0,0,0,4.35987-4.7651,15.69136,15.69136,0,0,0,1.98144-3.3667,6.37145,6.37145,0,0,0,.83936-2.6792c-.08106-1.2031-.5752-1.1846-1.604-1.1846a6.17117,6.17117,0,0,0-3.09717.3784,4.61547,4.61547,0,0,1-2.5332.6216c-.3623.002-.62451.1031-.78418-.207-.18555-.3599.13965-.9829.31934-1.2651.3706-.5835.90966-.70122,1.47363-1.0591a6.63468,6.63468,0,0,1,1.55762-.812,7.945,7.945,0,0,1,3.52148-.2295c1.06152.19138,2.05713-.0318,3.12012.0669.74414.0688.78467.22748.92236.8842.332,1.586-.40332,3.0508-1.01513,4.4952C21.73476,13.42387,17.62587,17.90187,13.13954,21.70605Z"/>
   <path class="a"
         d="M5.75085,33.23827c.2691-.0019.5362-.0029.8032-.0054a12.47852,12.47852,0,0,1,.9073,4.3135,3.64025,3.64025,0,0,1-1.211,3.2988c-.3471.3326-1.0952,1.3672-1.6142.5704-.149-.2281-.0249-.4351-.0259-.6807a5.05878,5.05878,0,0,0-.2046-1.1856,15.22245,15.22245,0,0,1-.4204-5.333,2.61424,2.61424,0,0,1,1.7695-.1713C5.75285,33.77437,5.75085,33.50637,5.75085,33.23827Z"/>

</g>
</svg>
