<?xml version="1.0" encoding="UTF-8"?>
<svg xmlns="http://www.w3.org/2000/svg"
     version="1.1"
     width="15.47100745mm"
     height="35.33043106mm"
     viewBox="0.00000000 0.00000000 43.85485118 100.14927187">

<g transform="scale(4.88508251)">   <defs>
      <style type="text/css"><![CDATA[
      .a {
        stroke: #000;
        stroke-miterlimit: 10;
        stroke-width: 0.15px;
        fill-rule: evenodd;
      }
    ]]></style>
   </defs>
   <path class="a"
         d="M.72113,20.27332c-.1899-.1157-.3794-.2295-.6367-.3852a4.41993,4.41993,0,0,1,.938-1.7413,7.65265,7.65265,0,0,0,1.0215-1.7431,6.20544,6.20544,0,0,0,.4721-3.437,11.3644,11.3644,0,0,1-.1357-1.9014c-.0322-.73781-.0664-1.4771-.0772-2.2163-.0161-1.1851-.0214-2.3726-.124-3.5542a3.90082,3.90082,0,0,1,.1831-.9707c1.606-1.41361,3.5332-2.4888,4.7915-4.2481a.97307.97307,0,0,1,1.0552,1.2017,28.0348,28.0348,0,0,0-.02,5.8022c.00291.1309-.0454.2623-.0186.1167.666,2.5811,1.3672,4.88089-.2954,7.0943a1.54979,1.54979,0,0,1-.2339.33059c-2.3437,1.83251-4.3125,4.103-6.7837,5.78411C.81,20.36222.766,20.31872.72113,20.27332Z"/>

</g>
</svg>
