<?xml version="1.0" encoding="UTF-8"?>
<svg xmlns="http://www.w3.org/2000/svg"
     version="1.1"
     width="28.78769684mm"
     height="51.27033735mm"
     viewBox="0.00000000 0.00000000 81.60297175 145.33331203">

<g transform="scale(5.59901992)">   <defs>
      <style type="text/css"><![CDATA[
      .a {
        stroke: #000;
        stroke-miterlimit: 2.61313;
        stroke-width: 0.28346px;
      }
    ]]></style>
   </defs>
   <path class="a"
         d="M7.97119,2.57178A14.424,14.424,0,0,1,12.02393.14795a11.92822,11.92822,0,0,0,2.30078.23438q.0498.665.10352,1.334c-1.03906,1.14844-1.31445,3.52344-1.60156,5.88086q-.70312,5.41406-1.4043,10.82617c-.53711,3.76367-3.25586,5.34375-5.53711,7.36133q-.67383-.36621-1.34375-.72852A22.94947,22.94947,0,0,0,6.09033,18.562a31.222,31.222,0,0,1,1.50391-8.21484q.1875-3.8877.377-7.77539Z"/>
   <path class="a"
         d="M8.52979,2.9624q-.08789.89063-.17773,1.77734c-1.55664.65039-2.64844,1.99609-2.71875,4.875.33789,1.752.26172,3.0918-.44727,4.09766-.91016,1.27344-2.08594,2.64453-3.15039,3.918a1.93975,1.93975,0,0,0-1.793-.62109,15.79289,15.79289,0,0,0,1.50391-4.46875C.46143,11.3667,1.34229,8.98193,3.061,6.04639a8.04008,8.04008,0,0,1,5.46875-3.084Z"/>

</g>
</svg>
