<?xml version="1.0" encoding="UTF-8"?>
<svg xmlns="http://www.w3.org/2000/svg"
     version="1.1"
     width="48.49973241mm"
     height="52.13525429mm"
     viewBox="0.00000000 0.00000000 137.47966028 147.78498957">

<g transform="scale(5.75896889)">   <defs>
      <style type="text/css"><![CDATA[
      .a {
        stroke: #000;
        stroke-miterlimit: 10;
        stroke-width: 0.15px;
      }
    ]]></style>
   </defs>
   <path class="a"
         d="M2.47979,5.21986A.462.462,0,0,0,2.346,4.84011c-.09308-.06769-.22566-.06422-.57629.06746A2.26819,2.26819,0,0,0,.68457,5.514a2.28352,2.28352,0,0,0-.34933.79071,4.89582,4.89582,0,0,0-.24892,1.1258,4.885,4.885,0,0,0,.18337,1.5303c.12683.63285.18359,1.27783.28723,1.91489.22745,1.39823.00659,2.97415-.25533,6.19149a20.64083,20.64083,0,0,0,.12767,5.71277,5.746,5.746,0,0,0,1.0851,2.17021,1.38163,1.38163,0,0,0,.63831.57447c.32.12244.60286.04983,1.21277-.09575,1.35585-.32362,1.15448-.25032,1.37233-.31914,1.42372-.4498,3.45246-1.50436,5.1383-2.20213a17.39843,17.39843,0,0,1,4.85106-1.5,11.11139,11.11139,0,0,0,2.32979-.44681,12.67089,12.67089,0,0,0,1.26021-.471c2.4626-1.006,4.02208-1.0936,4.00575-1.412-.01486-.28978-1.3186-.44937-1.81915-.51064-1.857-.2273-3.04111.08205-3.09575-.12766-.04019-.15426.59619-.33834,2.23-1.22028.94506-.51015,1.05492-.6228,1.42109-.65092.68914-.05293,1.0164.2911,1.8702.17971.28083-.03663.799-.10423.8617-.35106.0953-.37489-.91146-.96045-1.52765-1.31885a9.51875,9.51875,0,0,0-.88376-.4479,3.49191,3.49191,0,0,0-.95947-.3591,3.82589,3.82589,0,0,0-1.161.179c-.36795.074-.66858.1269-.86171.15957a.87125.87125,0,0,1-.41488.60639c-.28533.12537-.55361-.07408-.90474-.14552a2.36115,2.36115,0,0,0-1.58149.459,14.20617,14.20617,0,0,1-2.95961.90508c-1.80006.44736-1.61611-.00985-3.23967.40747a23.80326,23.80326,0,0,0-3.7613,1.46967c-.393.17622-.71771.3282-.94383.43555.49658-5.21081.72427-8.59011.734-9.22343a2.62811,2.62811,0,0,1,.13083-.95367,3.8065,3.8065,0,0,1,.3514-.59239,2.652,2.652,0,0,0,.43089-1.9933C5.88245,4.485,3.4656,4.17313,2.47979,5.21986Z"/>
   <path class="a"
         d="M9.62026,5.49267a23.76121,23.76121,0,0,1-.35057,2.79788,12.43989,12.43989,0,0,0-.41313,2.04265c-.07572.939.0787,1.08152.02377,1.86589-.06134.87586-.25827.761-.737,2.53595-.5269,1.95367-.37358,2.409-.629,3.03423a1.0638,1.0638,0,0,0-.08383.57953,1.16639,1.16639,0,0,0,.26238.52868,2.43517,2.43517,0,0,0,1.06614.74285c.44153.17928.66229.26892.82979.19149.40355-.18656.28827-1.0211.37143-1.99964.07515-.88423.29744-.66248.68307-2.63969.28762-1.47464.38408-3.06956,1.28016-4.27552a4.0847,4.0847,0,0,0,.36529-.51689,2.65607,2.65607,0,0,0,.22493-.80825L12.77,8.03689a.56587.56587,0,0,1,.13212-.31157c.23246-.26611.6054-.11486.83564-.29648.27906-.22014.16822-.78716.12767-1.02127a22.67134,22.67134,0,0,1-.05532-5.16948,1.02521,1.02521,0,0,0-.1208-.63254,1.2346,1.2346,0,0,0-.81325-.48522,2.45263,2.45263,0,0,0-1.6915.31915C10.15284,1.0888,9.97531,2.55676,9.62026,5.49267Z"/>

</g>
</svg>
