<?xml version="1.0" encoding="UTF-8"?>
<svg xmlns="http://www.w3.org/2000/svg"
     version="1.1"
     width="44.85532876mm"
     height="14.39992596mm"
     viewBox="0.00000000 0.00000000 127.14895885 40.81871379">

<g transform="scale(3.40760514)">   <defs>
      <style type="text/css"><![CDATA[
      .a {
        stroke: #000;
        stroke-miterlimit: 10;
        stroke-width: 0.15px;
        fill-rule: evenodd;
      }
    ]]></style>
   </defs>
   <path class="a"
         d="M37.232,7.85682c-.0888.873-2.332,1.75-2.9668,2.1035-1.6992.9473-2.3886,1.3359-4.3662,1.2285-5.45408-.3008-10.916.2647-16.36808.2647-2.57912,0-12.33892,1.8037-13.086-1.8096A23.74926,23.74926,0,0,1,.26823,2.389C.485.51992,2.20573-.83948,3.97623.82942c.8916.8399,2.3974,4.543.25972,4.4619-.05952,1.4581-.07712,2.3545,1.48738,2.6993a4.38581,4.38581,0,0,0,2.2695-.1504c.5674-.291.9355-.9824,1.49712-1.1934A9.23557,9.23557,0,0,1,12.31213,6.64a38.956,38.956,0,0,1,5.877.4756c2.9492.5058,6.0322.2246,9.0566.2656C30.364,7.42122,34.24773,7.14392,37.232,7.85682Z"/>

</g>
</svg>
