<?xml version="1.0" encoding="UTF-8"?>
<svg xmlns="http://www.w3.org/2000/svg"
     version="1.1"
     width="16.53710458mm"
     height="27.59919784mm"
     viewBox="0.00000000 0.00000000 46.87685320 78.23387819">

<g transform="scale(5.20532351)">   <defs>
      <style type="text/css"><![CDATA[
      .a {
        stroke: #000;
        stroke-linecap: round;
        stroke-linejoin: round;
        stroke-width: 0.01px;
      }
    ]]></style>
   </defs>
   <path class="a"
         d="M4.505.24727A5.16932,5.16932,0,0,1,3.64172.841a2.92052,2.92052,0,0,0-.63672.40234.76856.76856,0,0,1-.28516.19531,1.8039,1.8039,0,0,0-.38281.22657,2.27917,2.27917,0,0,1-.46094.21484c-.48828.168-.793.38672-.793.55469a1.06038,1.06038,0,0,1-.3164.4375A2.667,2.667,0,0,0,.337,3.40742a1.07051,1.07051,0,0,1-.22265.27735C.03625,3.72774.005,3.91133.005,4.341c0,.51172.02344.62109.15234.73437a.38108.38108,0,0,1,.15625.23047,1.025,1.025,0,0,0,.53125.71875,1.30515,1.30515,0,0,1,.5,1.25781,1.3442,1.3442,0,0,0,.23047.92188,1.08242,1.08242,0,0,1,.082.40234,3.51824,3.51824,0,0,0,.23828,1.125,3.91254,3.91254,0,0,1,.13282.69532,5.91856,5.91856,0,0,0,.16015.78125,1.37611,1.37611,0,0,1,.08594.57031.888.888,0,0,0,.0625.46094,3.45412,3.45412,0,0,1,.3125,1.17578,1.34162,1.34162,0,0,0,.23828.6289c.125.1836.23438.33594.24219.35157a3.63338,3.63338,0,0,0,1.12109.30859.58776.58776,0,0,1,.44532.16016l.15625.16015.16015-.168a.34753.34753,0,0,1,.38281-.11718c.17969.03515.293,0,.54688-.17579a1.63065,1.63065,0,0,1,.40234-.22656c.13672,0,.50782-.49609.46094-.61328-.05469-.14062.0625-.34375.42969-.71875A1.19856,1.19856,0,0,0,7.544,12.6105a.47842.47842,0,0,1,.14453-.22656,2.04607,2.04607,0,0,0,.5-.90625,4.55827,4.55827,0,0,1,.23047-.83985c.23828-.67187.26172-.8125.20313-1.07422-.15625-.6289-.01563-1.375.27343-1.53515.15626-.082.13282-.293-.03515-.4336a.81135.81135,0,0,1-.2031-.54687,2.05734,2.05734,0,0,0-.12109-.543,2.27017,2.27017,0,0,1-.10156-.53125,1.29149,1.29149,0,0,0-.1211-.51953.8274.8274,0,0,1-.125-.37891c-.039-.35931-.18356-1.48039-.22262-1.66789-.02344-.13281-.47656-1.1914-.89063-2.07031A1.77229,1.77229,0,0,1,6.92688.93477,1.13712,1.13712,0,0,0,6.63.55586C6.03625-.01445,6.08312.00508,5.38.00508,4.75109.00508,4.72766.01289,4.505.24727Z"/>

</g>
</svg>
