<?xml version="1.0" encoding="UTF-8"?>
<svg xmlns="http://www.w3.org/2000/svg"
     version="1.1"
     width="7.36331729mm"
     height="29.78372188mm"
     viewBox="0.00000000 0.00000000 20.87240937 84.42625553">

<g transform="scale(3.04789467)">   <defs>
      <style type="text/css"><![CDATA[
      .a {
        stroke: #000;
        stroke-miterlimit: 10;
        stroke-width: 0.15px;
      }
    ]]></style>
   </defs>
   <path class="a"
         d="M.15965,6.09112c.1841-1.1167.8042-2.0913,1.0293-3.1714.1299-.61811-.1196-1.3799.1763-1.9394.6001-1.1348,2.6528-.9278,3.6919-.8106,2.2519.2515.4765,1.9717-.0303,2.9043a8.19667,8.19667,0,0,0-1.23,2.8731c-.0366.8999.898,1.4389,1.3677,2.08349a7.8393,7.8393,0,0,1,1.2241,2.42331c1.0235,4.0166-.103,7.4048-2.1196,10.9551-1.2056,2.11959-2.8838,3.88859-4.1216,6.0005a24.4898,24.4898,0,0,1,.689-4.4297c.312-1.4024,1.1914-2.6123,1.3027-4.065a19.49724,19.49724,0,0,0-.2329-5.51021C1.53955,11.81182.60305,10.46852.23245,8.91A8.4387,8.4387,0,0,1,.15965,6.09112Z"/>

</g>
</svg>
