<?xml version="1.0" encoding="UTF-8"?>
<svg xmlns="http://www.w3.org/2000/svg"
     version="1.1"
     width="36.06028408mm"
     height="39.88153424mm"
     viewBox="0.00000000 0.00000000 102.21814806 113.05006508">

<g transform="scale(6.18595529)">   <defs>
      <style type="text/css"><![CDATA[
      .a {
        stroke: #000;
        stroke-linecap: round;
        stroke-linejoin: round;
        stroke-width: 0.01px;
      }
    ]]></style>
   </defs>
   <path class="a"
         d="M10.31383.12626a.86071.86071,0,0,0-.315.32707c-.06056.11508-.1393.212-.16353.212-.03029,0-.109.09086-.17565.19988a1.48992,1.48992,0,0,1-.37553.34524,2.084,2.084,0,0,0-.35736.26651c-.05451.06057-.15141.16959-.218.24227a1.98263,1.98263,0,0,0-.51484.87826.60537.60537,0,0,1-.11508.315c-.08479.109-.103.17565-.05451.25439.04241.07874.03028.15142-.0424.26044a.684.684,0,0,0-.09085.34525c.01817.315.00606.33918-.18777.43609-.15142.0848-.1817.1272-.15142.24834a.44323.44323,0,0,1-.06662.32707c-.09692.16959-.09692.18171,0,.26045a.45059.45059,0,0,1,.13325.315.97029.97029,0,0,1-.5209.86008c-.12114.02423-.19988.109-.321.35736a2.50662,2.50662,0,0,1-.3937.55118,3.164,3.164,0,0,0-.41793.56329.82867.82867,0,0,1-.50878.47244c-.3937.16353-.4785.16353-.66626.01817a.3645.3645,0,0,0-.2665-.09086.93122.93122,0,0,1-.41182-.09094,1.39488,1.39488,0,0,0-.3937-.12719c-.218,0-.67838-.40582-.854-.75106-.24833-.49061-.27862-.66626-.12719-.81768a.41765.41765,0,0,1,.21805-.1272c.04845,0,.09085-.03028.09085-.06057,0-.103.23622-.30284.321-.2665.05451.01817.18776-.0848.33313-.24834a2.508,2.508,0,0,1,.59357-.46032c.34525-.18777.3513-.18777.54513-.0848a.43609.43609,0,0,0,.29678.06663.6176.6176,0,0,1,.315.05451,1.17706,1.17706,0,0,0,.315.09085,1.374,1.374,0,0,0,.55118-.47849,1.11134,1.11134,0,0,1,.212-.28468.787.787,0,0,0,.20594-.29073c-.01829-.28465-.303-.4361-.93289-.49065a3.151,3.151,0,0,1-.55723-.09691c-.1696-.05451-.218-.0424-.44216.12114-.1393.09691-.28467.16959-.33313.15142-.08479-.03634-.23622.04846-.76922.4361-.29074.212-.38159.24833-.61175.23622-.24228-.00606-.30285.01817-.56329.25439a1.50605,1.50605,0,0,1-.45427.29679c-.24228.05451-.636.47849-1.08419,1.175a6.31075,6.31075,0,0,1-.49667.66626c-.109.12114-.19382.2665-.1817.321.01211.06056-.06057.1817-.15748.27256-.13325.12719-.16354.19382-.1272.29073a.99355.99355,0,0,1,.01212.36341,1.11755,1.11755,0,0,0,.15748.87825C.48952,9.684.63489,9.8475.968,9.9323a2.85239,2.85239,0,0,0,1.272.09085c.09085-.03029.16354-.00606.26045.09085.12114.12114.12719.13931.03028.28468a.48982.48982,0,0,0-.06662.37553.86662.86662,0,0,1-.44216.80556.62823.62823,0,0,0-.28467.29074.58019.58019,0,0,1-.27862.27256.94992.94992,0,0,0-.321.25439c-.06662.08479-.218.26044-.33918.38764a3.14787,3.14787,0,0,0-.62392,1.02372c-.02422.08479-.07268.25439-.109.37553a.54816.54816,0,0,0,.0424.47243.888.888,0,0,0,.14536.24834.79732.79732,0,0,1,.64809.45427c.01817.07874.06663.15142.109.15748a1.122,1.122,0,0,1,.32707.07268.29785.29785,0,0,0,.29073-.07874c.09086-.06663.18171-.109.212-.09085a.28824.28824,0,0,0,.19383-.06663c.07874-.04846.15748-.07268.1817-.05451.01817.01817.12114-.02423.22411-.09691a.72661.72661,0,0,1,.745-.07874c.14536.07268.18171.07268.29679-.01212a.59448.59448,0,0,1,.218-.09085.647.647,0,0,0,.2665-.15142.60073.60073,0,0,1,.26045-.15143.13317.13317,0,0,0,.109-.07874,1.58187,1.58187,0,0,1,.4785-.30284c.66626-.32707,1.01756-.56935,1.01756-.69655,0-.18776.16959-.36341.46032-.46032l.28468-.09691.19988.2241a1.21873,1.21873,0,0,1,.23622.32708c.04239.12114.35735.2665.44821.20593a.68926.68926,0,0,1,.33918.12114.57932.57932,0,0,0,.38766.12114.51863.51863,0,0,1,.30889.06057c.09691.04845.18172.07874.18172.05451,0-.01817.12718.03634.27861.12114.22411.12114.30285.14536.39976.09085a.4263.4263,0,0,1,.24228-.03634.4863.4863,0,0,0,.3513-.12114.55446.55446,0,0,1,.3513-.11508c.0848.03029.14536-.00606.212-.103a2.977,2.977,0,0,1,1.0963-.52695,1.8904,1.8904,0,0,0,.68443-.38158.56466.56466,0,0,1,.27862-.13326c.16959-.01817.46638-.19987.46638-.27861a1.01619,1.01619,0,0,1,.35736-.23017c.29679-.15142.36947-.16959.46032-.103a.4084.4084,0,0,1,.06663.49061,2.60914,2.60914,0,0,0-.06663.66626,3.07375,3.07375,0,0,1-.07874.70865.751.751,0,0,0-.03634.34525.55061.55061,0,0,1-.0424.315,1.64579,1.64579,0,0,0-.09085.53906,2.41591,2.41591,0,0,1-.17565,1.07208c-.0848.12719-.0848.15748.00606.33313a.80446.80446,0,0,1,.06662.46638,1.16564,1.16564,0,0,0,.01212.39975.317.317,0,0,1,0,.22411c-.04846.0848-.01212.12719.19382.23016a.58242.58242,0,0,0,.53906.06057c.29679-.07268.48456-.24833.48456-.45427a.65.65,0,0,1,.1817-.29073c.46639-.50878.4785-.53906.3937-.79951-.19988-.61781-.15748-.90854.14537-.96911a.375.375,0,0,0,.33919-.44821c-.01212-.12114-.0424-.44821-.06057-.73288a5.11871,5.11871,0,0,0-.06663-.55724c-.01817-.02423,0-.103.03634-.16959a2.15916,2.15916,0,0,0,.1272-1.15687.36473.36473,0,0,1,0-.25439.21655.21655,0,0,0-.00606-.218.513.513,0,0,1,.03028-.3937.6392.6392,0,0,0,.03635-.41187c-.15748-.41793-.19382-.59358-.13326-.7026a1.46115,1.46115,0,0,0,.0424-.50273c-.01211-.33313.00606-.40581.1272-.52089a.42833.42833,0,0,1,.19382-.13931c.03028,0,.09691-.14536.15142-.321A.90265.90265,0,0,0,16.298,8.612a.55322.55322,0,0,1,.01211-.424c.15143-.31495.16354-.41186.09086-.99939a.686.686,0,0,1,.04848-.48461c.09086-.13931.09086-.38158.01212-.98122a2.69373,2.69373,0,0,1-.03029-.48455,3.32113,3.32113,0,0,0-.109-1.15687.18448.18448,0,0,1,.01817-.24228c.12114-.16353.11508-.23016-.06663-.40581a.88071.88071,0,0,1-.19988-.321.22631.22631,0,0,0-.17565-.18776c-.15142-.01817-.6178.19382-.6178.28467,0,.03029-.11508.13326-.25439.22411a1.51487,1.51487,0,0,0-.30285.23016,4.952,4.952,0,0,1-.39975.49667c-.11508.12719-.1696.14537-.37553.109a.41156.41156,0,0,0-.39976.0848.57584.57584,0,0,1-.28467.1272.7193.7193,0,0,0-.32708.1817.90555.90555,0,0,1-.26044.18171c-.03029,0-.09691.09691-.14537.212s-.12114.212-.15142.212a.76108.76108,0,0,0-.24833.18171c-.15748.15142-.20594.1696-.30891.11508a.54532.54532,0,0,1-.19382-.2241,3.07811,3.07811,0,0,0-.18776-.33313.86446.86446,0,0,1-.1272-.38765,1.83864,1.83864,0,0,0-.55118-.98121c-.2665-.12114-.424-.56935-.45426-1.31435-.01212-.23622.1393-.56935.25439-.56935.03028,0,.05451-.0848.05451-.18171a.70156.70156,0,0,1,.24227-.44821c.27862-.29679.29074-.3513.12114-.56329-.06662-.0848-.103-.17566-.08479-.20594.04845-.0848-.16354-.35736-.27257-.3513A1.24909,1.24909,0,0,0,10.31383.12626ZM13.312,6.63138a.45989.45989,0,0,1,.15143.23016.735.735,0,0,0,.1817.27862c.15748.16354.17565.20593.11508.315-.05451.109-.04239.16354.07269.315.14536.20593.15142.212.06662.53906a.99144.99144,0,0,0,.1696.77529,1.59871,1.59871,0,0,1,.03028,1.0115.36083.36083,0,0,0-.03028.32707.55255.55255,0,0,1-.28468.61175,2.23929,2.23929,0,0,0-.39975.27256.9189.9189,0,0,1-.30285.20594.89179.89179,0,0,0-.62386.23016.84777.84777,0,0,1-.27256.18777.57471.57471,0,0,0-.218.12113c-.109.0848-.18171.103-.25439.06057a.82223.82223,0,0,0-.34525-.02423,1.6029,1.6029,0,0,1-.93882-.09691c-.44215-.14536-.69048-.35735-.642-.55117a.3092.3092,0,0,0-.12114-.24834,1.267,1.267,0,0,1-.41187-.86614,1.98585,1.98585,0,0,0-.13325-.533.65527.65527,0,0,1-.04845-.3937A.946.946,0,0,0,9.042,8.75138a.68609.68609,0,0,0-.40581-.07874c-.28468.00605-.36342.03028-.48455.15748a.56445.56445,0,0,0-.13931.212,5.053,5.053,0,0,1-.75712,1.0963.50033.50033,0,0,0-.17565.23016,2.34633,2.34633,0,0,1-.23016.36947c-.12114.14537-.1272.18171-.05451.37553.08479.24228.01817.424-.17565.48456a.994.994,0,0,0-.321.27861,1.44726,1.44726,0,0,1-.59358.38765c-.212.08479-.53906.2241-.72077.315a2.3323,2.3323,0,0,1-1.45971.3937c-.3937,0-.77529-.29073-.68443-.527a.57915.57915,0,0,1,.218-.18776.73083.73083,0,0,0,.29074-.36342.72613.72613,0,0,1,.16353-.2665,2.67112,2.67112,0,0,0,.70866-.72077.64551.64551,0,0,1,.23622-.25439,1.63517,1.63517,0,0,0,.315-.24834,3.03289,3.03289,0,0,1,.44821-.3513.72539.72539,0,0,0,.333-.36965.3585.3585,0,0,1,.27256-.27256c.1696-.05451.212-.103.218-.23622.00606-.16959.06663-.23622.59963-.62992a.95681.95681,0,0,0,.27862-.26044,2.37684,2.37684,0,0,1,.3937-.44822,2.07543,2.07543,0,0,0,.3937-.46638,1.04172,1.04172,0,0,1,.50878-.6178c.33313-.19382.41793-.16354.75712.29073a1.56423,1.56423,0,0,0,1.30223.67837.74888.74888,0,0,0,.315-.09691,1.13957,1.13957,0,0,1,.61175-.27256c.09085.03634.39975-.12114.854-.424a.83159.83159,0,0,1,.3089-.14537,1.21584,1.21584,0,0,0,.36948-.15142C13.08184,6.44967,13.13635,6.44967,13.312,6.63138Z"/>

</g>
</svg>
