<?xml version="1.0" encoding="UTF-8"?>
<svg xmlns="http://www.w3.org/2000/svg"
     version="1.1"
     width="23.24938797mm"
     height="23.14367262mm"
     viewBox="0.00000000 0.00000000 65.90380110 65.60409059">

<g transform="scale(3.93579125)">   <defs>
      <style type="text/css"><![CDATA[
      .a {
        stroke: #000;
        stroke-miterlimit: 10;
        stroke-width: 0.15px;
      }
    ]]></style>
   </defs>
   <path class="a"
         d="M11.71244,14.39641c-1.0743-.6186-.5635-3.6606-.5308-4.6465.0825-2.5112.1035-6.4575,3.0908-7.5107a2.1448,2.1448,0,0,1,2.2832,1.2383,3.14852,3.14852,0,0,1-.5615,2.5351c-.4722.86769-.8452,1.7188-1.3125,2.5821a6.93066,6.93066,0,0,0-.7559,1.8017c-.0449.2105-.084.4263-.1196.6392-.0723.4336-.3047.8408-.4141,1.2671a10.559,10.559,0,0,1-.3505,1.1982C12.82514,14.05711,12.40524,14.79541,11.71244,14.39641Z"/>
   <path class="a"
         d="M1.76514.67771a2.11352,2.11352,0,0,1,2.7222-.2115c.8974.5103.9829,1.961.8794,2.8648-.2051,1.7915-.2549,3.6118-.6377,5.3789a30.92683,30.92683,0,0,1-1.8492,4.8779,20.58085,20.58085,0,0,1-.958,2.6568c-.5122.853-1.6601-.0342-1.8227-.7788A5.25,5.25,0,0,1,.25094,14.02a6.08669,6.08669,0,0,0,.0616-2.0425,6.17907,6.17907,0,0,1-.1119-1.5659c0-1.045-.0337-2.0957-.0019-3.1402.0151-.4995.0532-1.0385.1035-1.539a9.07054,9.07054,0,0,1,.1094-1.1045,2.65784,2.65784,0,0,1,.2148-.4727,3.30783,3.30783,0,0,0,.1621-.7383A5.65066,5.65066,0,0,1,1.76514.67771Z"/>

</g>
</svg>
