<?xml version="1.0" encoding="UTF-8"?>
<svg xmlns="http://www.w3.org/2000/svg"
     version="1.1"
     width="22.79440200mm"
     height="51.72331525mm"
     viewBox="0.00000000 0.00000000 64.61407603 146.61724345">

<g transform="scale(5.75896889)">   <defs>
      <style type="text/css"><![CDATA[
      .a {
        stroke: #000;
        stroke-miterlimit: 10;
        stroke-width: 0.15px;
      }
    ]]></style>
   </defs>
   <path class="a"
         d="M2.55764.33525a4.10683,4.10683,0,0,0-2.3364,2.5829A7.16743,7.16743,0,0,0,.164,5.6012c.0694.90031.16416,1.18495.30561,2.27689.148,1.14266.05862,1.41865.24206,2.87468q.333,2.64335.666,5.2867c.07025.55758.32479,1.309.4536,2.34724.04936.39789.10684.79481.15186,1.19322a4.21527,4.21527,0,0,0,.19148,1.24468c.2718.6035.6627.58211.77023,1.05406.11386.49979-.303.618-.31334,1.232-.01625.96677.99994,1.70652,1.3111,1.933a1.64929,1.64929,0,0,0,.55206.287,1.31023,1.31023,0,0,0,1.486-1.95911c-.24269-.37953-.57555-.44939-.74365-.95775a1.78061,1.78061,0,0,1-.07918-.50214c-.0249-.52746.14726-.69444.04872-1.05516-.06668-.24409-.16164-.2267-.25533-.47873a1.78688,1.78688,0,0,1,.03193-1.02127c.1797-1.1033-.62113-1.59151-.4058-2.49932.06211-.26183.10456-.52888.18335-.78618.09053-.2956.14163-.37818.09478-.48046-.11327-.24727-.54252-.04991-.83419-.339-.25412-.25185-.11542-.528-.41595-.85291-.07524-.08134-.18454-.13772-.22379-.24134-.06784-.179.12778-.35929.31746-.38524a3.75855,3.75855,0,0,1,.5726.02309,1.11634,1.11634,0,0,0,.903-.59825c.11026-.21815.03491-.58892-.1158-1.33047-.07944-.39089-.12761-.57462-.28078-.71458-.14494-.13244-.35106-.18517-.4889-.325-.32073-.32528-.10193-.86976-.16433-1.32228a3.22834,3.22834,0,0,0-.31035-.80375,5.56283,5.56283,0,0,1-.33142-1.9L3.3599,4.61149a.6311.6311,0,0,1,.038-.32138c.07211-.14308.24712-.22038.29678-.37272.06894-.21147-.13528-.40115-.24295-.59577a.75467.75467,0,0,1,.24576-.89421.66656.66656,0,0,1,.807.078c.23777.27983-.15027.62733-.03193,1.40426a1.76465,1.76465,0,0,0,.539,1.0675,1.75429,1.75429,0,0,0,.40794.24318,1.8371,1.8371,0,0,0,.51274.117c.31732.03353.593-.13753.78485.265.03314.06951.06351.14987.1333.18239.11911.05548.2412-.06623.31635-.174A4.56693,4.56693,0,0,0,7.9071,4.21708a3.15242,3.15242,0,0,0-.64538-2.51719A4.13712,4.13712,0,0,0,2.55764.33525Z"/>
   <path class="a"
         d="M7.58269,10.89168c-.73033,1.49671-.65014,1.30563-.70839,1.44371C5.69829,15.12346,5.11669,16.52193,5.43,16.7395c.19353.1344.48394-.25262,1.78685-.62843a7.38378,7.38378,0,0,0,.77311-.19827c.86326-.39973,1.118-1.47751,1.6461-2.26881.28979-.43425.67816-.796.96625-1.2314a3.32872,3.32872,0,0,0,.44331-2.6243.83247.83247,0,0,0-.12009-.25668,1.23546,1.23546,0,0,0-.64447-.45168,1.86131,1.86131,0,0,0-.89361-.09575,2.059,2.059,0,0,0-.54256.15958C8.306,9.39835,8.05132,9.93127,7.58269,10.89168Z"/>

</g>
</svg>
