<?xml version="1.0" encoding="UTF-8"?>
<svg xmlns="http://www.w3.org/2000/svg"
     version="1.1"
     width="13.47558408mm"
     height="51.92148137mm"
     viewBox="0.00000000 0.00000000 38.19849199 147.17903086">

<g transform="scale(5.75896889)">   <defs>
      <style type="text/css"><![CDATA[
      .a {
        stroke: #000;
        stroke-miterlimit: 10;
        stroke-width: 0.15px;
      }
    ]]></style>
   </defs>
   <path class="a"
         d="M1.22728,2.30807C.81081,3.00436.35674,3.03262.15349,3.5826a1.31619,1.31619,0,0,0-.0572.72449A7.51852,7.51852,0,0,0,.82556,6.67343c1.02045,2.03527,1.4031,1.914,1.754,3.0003a9.90776,9.90776,0,0,1,.31551,2.19894c.04.47318.02484.49421.12765,2.98722.06051,1.46686.074,1.66049.22979,1.94043a1.51434,1.51434,0,0,1,.25532.89361,1.32371,1.32371,0,0,1-.17872.5362c-.34224.66113-.013,1.01925-.1532,2.34893-.0828.78544-.24077,1.06943-.05106,1.55744a1.88547,1.88547,0,0,0,.35745.56171c1.033,1.24642,1.04734,2.80929,1.40425,2.78295.20237-.01492.33068-.5271.35865-.63873a2.38871,2.38871,0,0,0,.02-.78634c-.01086-.56266.29825-.76084.54047-1.35788.164-.40421.06113-.409.17872-2.22129.03791-.584.0407-.46213.12766-1.65957.05653-.77848.07124-1.04886.101-1.46927.09766-1.37744.18026-1.86695.25162-2.71945a28.27958,28.27958,0,0,0,.08139-3.13895,26.89722,26.89722,0,0,0-.79149-6,8.69,8.69,0,0,0-.90719-2.51087C4.26839,2.041,3.91521,2.04,3.38021.97054,3.15305.51644,3.01252.10842,2.71637.07693c-.38337-.04077-.7639.57751-.817.66382a7.47112,7.47112,0,0,0-.37189.92315A4.92916,4.92916,0,0,1,1.22728,2.30807Z"/>

</g>
</svg>
