<?xml version="1.0" encoding="UTF-8"?>
<svg xmlns="http://www.w3.org/2000/svg"
     version="1.1"
     width="13.93066388mm"
     height="18.91254402mm"
     viewBox="0.00000000 0.00000000 39.48850136 53.61039538">

<g transform="scale(6.14690259)">   <defs>
      <style type="text/css"><![CDATA[
      .a {
        stroke: #000;
        stroke-miterlimit: 10;
        stroke-width: 0.15px;
      }
    ]]></style>
   </defs>
   <path class="a"
         d="M5.45666.09473A3.5952,3.5952,0,0,0,2.85157,1.53889a10.0631,10.0631,0,0,0-.42876.92789A16.88275,16.88275,0,0,1,.63558,5.06251c-.33391.41887-.60972.74067-.55319,1.149a1.14836,1.14836,0,0,0,.383.6383A5.11188,5.11188,0,0,0,2.3377,8.33911c.28652.10973,1.58647.60754,2.17021.04256.26247-.254.05471-.40795.34043-1.02127.37638-.80794,1.02072-1.15006,1.20929-1.80147.01562-.054.04931-.18326.12333-.44077a5.43993,5.43993,0,0,0,.15674-.56628,1.34852,1.34852,0,0,0-.13362-.757c-.2966-.64133-.875-.51738-1.01531-.94512-.08825-.269.22365-.84965.85106-2,.12358-.22659.2607-.47078.16173-.63124C6.16235.15494,6.03747.02573,5.45666.09473Z"/>

</g>
</svg>
