<?xml version="1.0" encoding="UTF-8"?>
<svg xmlns="http://www.w3.org/2000/svg"
     version="1.1"
     width="50.34025736mm"
     height="34.47214926mm"
     viewBox="0.00000000 0.00000000 142.69681558 97.71627994">

<g transform="scale(5.42284362)">   <defs>
      <style type="text/css"><![CDATA[
      .a {
        stroke: #000;
        stroke-miterlimit: 10;
        stroke-width: 0.15px;
        fill-rule: evenodd;
      }
    ]]></style>
   </defs>
   <path class="a"
         d="M13.02527.50022c.5625.6821.1465,2.0102.1318,2.768-.0181.93269-.0098,1.8658-.0034,2.7984.0054.73.1685,1.417.1685,2.1587,0,.895.0024,1.79.0161,2.6845a33.24326,33.24326,0,0,1-.1773,4.398,1.32384,1.32384,0,0,1-1.1025,1.1728,6.34186,6.34186,0,0,1-2.083-.0044,1.35343,1.35343,0,0,1-1.0786-.75631c-.1109-.33979.10351-.60249.2129-.91059a4.84506,4.84506,0,0,0,.1088-1.65041c-.0034-.65039-.00919-1.30129-.0019-1.95169.0176-1.519-.9795-1.9395-1.59129-3.1016a4.31088,4.31088,0,0,1-.21441-2.145c.0523-1.4614,1.3482-3.081,2.1538-4.2431.6035-.8707,2.0528-2.1441,3.20661-1.43661A1.02247,1.02247,0,0,1,13.02527.50022Z"/>
   <path class="a"
         d="M6.49647,4.62862a1.32236,1.32236,0,0,1,.7846-.1416,2.36483,2.36483,0,0,1-.0293.8647c-.1845.5879-.58539,1.208-.8286,1.7867-.7627,1.811-2.1206,3.58-.6123,5.1738.9531,1.0068,2.7183,1.4355.5987,2.5268-1.38819.7154-4.6846.5757-5.8116-.6914-1.0693-1.2016-.2812-2.57471.4336-3.69871A17.18631,17.18631,0,0,1,4.12238,6.59932a5.05127,5.05127,0,0,0,.60159-.6919c.0693-.085.1641-.0571.2158-.1299.0269-.0737.0528-.1474.0772-.2217.0351-.10891.2969-.248.35541-.2851.17-.1099.36919-.1724.55079-.2862C6.13167,4.85372,6.308,4.72432,6.49647,4.62862Z"/>
   <path class="a"
         d="M13.54817,13.95182c.3999-.02291.7959.06109,1.1963.0767a8.53114,8.53114,0,0,1,1.5781.0996,39.05238,39.05238,0,0,0,4.4043.2837c.5996.0649,1.1739.1875,1.77151.2939a5.77619,5.77619,0,0,0,2.01859.1236c.3222-.0528,1.5283-.2119,1.6953.1455.2822.604-1.749,2.34709-2.2881,2.6294-1.50679.7905-2.7422-.0445-4.291-.0445a7.07158,7.07158,0,0,1-1.6939-.0371,11.14825,11.14825,0,0,0-1.9028-.125,47.70167,47.70167,0,0,0-4.8208.0005c-1.4228.0181-2.7588-.3989-4.185-.4311-1.2227-.0274-2.6451.2807-2.65629-1.334-.01761-2.5967,7.42579-1.5235,9.09379-1.6753C13.495,13.95522,13.52138,13.95332,13.54817,13.95182Z"/>
   <path class="a"
         d="M17.81867,3.18182a1.23106,1.23106,0,0,1,1.3086-.6265,4.97846,4.97846,0,0,1,.99511.273c.30469.1084.69439.5102.99029.4932a7.81127,7.81127,0,0,1,.0146,2.5669,19.53035,19.53035,0,0,0-.209,2.7216c-.1162,1.2525-.3076,2.4976-.4003,3.753-.044.603-.0215,1.2046-.0498,1.8071-.0186.4004-.087.5986-.51179.6396a6.582,6.582,0,0,1-1.27391-.0649c-.5093-.0498-.9834-.0933-1.49709-.1021-.51751-.0083-.52341-.17281-.479-.664.15479-1.7222-.03951-3.5039.08109-5.2461.0322-.4678.0478-.9434.0835-1.4165.0185-.2451.0591-.4873.08541-.7319a6.799,6.799,0,0,1,.17529-.7115c.0869-.4223.07771-.8911.1743-1.313.07041-.3076.2427-.6582.33741-.9672A2.00115,2.00115,0,0,1,17.81867,3.18182Z"/>

</g>
</svg>
