<?xml version="1.0" encoding="UTF-8"?>
<svg xmlns="http://www.w3.org/2000/svg"
     version="1.1"
     width="9.40351851mm"
     height="15.05546348mm"
     viewBox="0.00000000 0.00000000 26.65560017 42.67682936">

<g transform="scale(6.47817088)">   <defs>
      <style type="text/css"><![CDATA[
      .a {
        stroke: #000;
        stroke-miterlimit: 10;
        stroke-width: 0.15px;
      }
    ]]></style>
   </defs>
   <path class="a"
         d="M1.31644,1.38354A5.49643,5.49643,0,0,0,.46467,2.51947,3.008,3.008,0,0,0,.24007,4.981,2.46641,2.46641,0,0,0,.673,5.73661a2.10531,2.10531,0,0,0,1.4213.77378,2.03047,2.03047,0,0,0,.77055-.12363,1.56906,1.56906,0,0,0,.72548-.38539c.42583-.49172-.15392-1.13727.11455-2.4001.02863-.13469.06856-.28411.16157-.713a4.36611,4.36611,0,0,0,.17195-1.02851A1.97533,1.97533,0,0,0,3.68688.864,1.74126,1.74126,0,0,0,2.86371.16825,1.80044,1.80044,0,0,0,2.03485.08759a.41343.41343,0,0,0-.288.08714c-.115.10644.03819.43123.00415.59706A1.18591,1.18591,0,0,1,1.31644,1.38354Z"/>

</g>
</svg>
