<?xml version="1.0" encoding="UTF-8"?>
<svg xmlns="http://www.w3.org/2000/svg"
     version="1.1"
     width="82.62913439mm"
     height="30.90949108mm"
     viewBox="0.00000000 0.00000000 234.22422819 87.61752032">

<g transform="scale(6.47817088)">   <defs>
      <style type="text/css"><![CDATA[
      .a {
        stroke: #000;
        stroke-miterlimit: 10;
        stroke-width: 0.15px;
      }
    ]]></style>
   </defs>
   <path class="a"
         d="M4.54152,9.95387a.958.958,0,0,0-.15958.766c.02446.16555.08226.29546.01214.437a.50514.50514,0,0,1-.21511.19448,2.76167,2.76167,0,0,1-1.31852.32568l-2.13577.16173a.82677.82677,0,0,0-.43152.11438.8401.8401,0,0,0-.21408.74878c.01274.2565.05012.55579.27194.68521a.787.787,0,0,0,.50487.04244c4.12189-.5652,8.2667-.9765,12.42345-1.152,1.68287-.07108,1.24076-.01488,2.9703-.15545,3.40528-.27678,5.02947-.74859,8.39826-.89157.88279-.03747,1.48332-.03529,1.78724-.03192,1.43008.01587,2.54863.12758,3.79787.25532,1.37037.14013,2.05555.21019,2.30457.2707a7.37694,7.37694,0,0,0,2.68287.34484,1.03183,1.03183,0,0,0,.67278-.29775,1.2178,1.2178,0,0,0,.18764-.80256l-.00276-.92045a.91865.91865,0,0,0-.09586-.49718c-.12711-.19964-.3921-.2504-.77321-.28a4.001,4.001,0,0,0-1.26923.03225,9.73981,9.73981,0,0,1-2.33446-.0201c-1.98106-.04528-2.21354.43358-4.0209.42249a22.62647,22.62647,0,0,1-5.51658-.85633,1.84169,1.84169,0,0,0-1.09018-.10871c-.32291.08151-.42489.22871-.79787.35106A2.4901,2.4901,0,0,1,19.15,9.18269c-.054-.00382,1.22142.08723-5.417.19671-1.27682.02106-2.5533.13174-3.82979.09575a6.58982,6.58982,0,0,0-2.48936.2234,4.55012,4.55012,0,0,1-.91023.25821,3.98616,3.98616,0,0,1-1.01836.06543C4.8937,9.9786,4.70616,9.81461,4.54152,9.95387Z"/>
   <path class="a"
         d="M12.6185,1.02328a1.839,1.839,0,0,0-.21531.27131,1.61222,1.61222,0,0,0-.04536,1.029c.122.97494.06067.93305.1305,1.05586.24473.43047.61521.27273,1.24089.73254.23679.174.30453.19118,1.06829,1.28547a5.89652,5.89652,0,0,0,.8.98654,5.91274,5.91274,0,0,0,1.94277,1.04573.75011.75011,0,0,0,.64823.04169c.06662-.04088.08454-.13618.19851-.21083a.60225.60225,0,0,1,.22894-.08326c.36394-.10007.20837-2.18658.15421-3.235a6.04288,6.04288,0,0,0-.0779-1.285A2.90491,2.90491,0,0,0,16.40751.58852c-.7323-.037-1.38555.4179-1.65322.11-.12855-.14784-.02339-.30508-.17342-.46324-.25-.26352-.87372-.17679-1.26952.07635A4.09922,4.09922,0,0,0,12.6185,1.02328Z"/>

</g>
</svg>
