<?xml version="1.0" encoding="UTF-8"?>
<svg xmlns="http://www.w3.org/2000/svg"
     version="1.1"
     width="50.20704988mm"
     height="36.00864403mm"
     viewBox="0.00000000 0.00000000 142.31921828 102.07166997">

<g transform="scale(4.19054538)">   <defs>
      <style type="text/css"><![CDATA[
      .a {
        stroke: #000;
        stroke-miterlimit: 10;
        stroke-width: 0.15px;
        fill-rule: evenodd;
      }
    ]]></style>
   </defs>
   <path class="a"
         d="M8.4893,8.80167A7.18707,7.18707,0,0,1,9.9395,8.787c.5957.2432.7988,1.4092.8262,1.9991.0869,1.875-2.1465.4126-2.8916,1.5727a5.14257,5.14257,0,0,0,2.0937.3936c.8428.1386,1.24321.5097.625,1.2588A7.94858,7.94858,0,0,1,9.0919,15.268c-.3301.2217-.67289.2969-.9961.5459a2.74218,2.74218,0,0,1-1.2657.56932c-.9638.2349-1.9257.1831-1.9892-1.01172-.0654-1.2285.12011-2.4849.12011-3.7168,0-.6001-.00681-1.2002,0-1.7998.01169-1.0195.64059-1.8193.876-2.7549a1.797,1.797,0,0,0-.24511-1.3691c-.2627-.3535-.4991-.3701-.3887-.8462a3.764,3.764,0,0,1,1.5254-1.8442c.40041-.3272.7246-.6631,1.1406-.9424a5.54827,5.54827,0,0,0,.6797-.7237c.1953-.1855.5273-.3188.5029-.6294a7.96145,7.96145,0,0,1,2.1817-.0551c.4824-.003.917-.1421,1.1396.3857a3.28919,3.28919,0,0,1-.0293,1.8506c-.1289.6128-.2754,1.2231-.373,1.8418a2.64471,2.64471,0,0,1-.3233,1.2646A5.27978,5.27978,0,0,1,9.461,7.63857c-.374.0981-.74411.0347-1.125.1538-.19531.061-.834.2573-.85841.5215C7.4395,8.73137,7.9298,8.809,8.4893,8.80167Z"/>
   <path class="a"
         d="M19.8653,15.96179c-1.2217-.58692-3.19629.9102-4.3516-.45212-.4521-2.8345-.9892-5.6572-1.247-8.5186a30.48836,30.48836,0,0,1-.1202-4.3169,2.89446,2.89446,0,0,1,.3487-1.7583,2.10948,2.10948,0,0,1,1.3955-.5903c.7471-.0864,1.7344-.5161,2.19531-.0029a1.17685,1.17685,0,0,1,.25.7134c.04689.5986.002,1.2231,0,1.8227-.00291.7515.25389,1.1162.25,1.875a8.2528,8.2528,0,0,1,.00289,1.7774c-.2558,1.0097-1.7841,1.2128-2.124,1.9946-.6396,1.4702,1.7149,1.0932,2.4619,1.4809.8613.4473.4356,1.5152.6397,2.3081A7.44053,7.44053,0,0,1,19.8653,15.96179Z"/>
   <path class="a"
         d="M22.629,18.15759q1.46339.40515,2.91789.8384c1.8799.5562,8.28911,1.3296,8.28911,3.64988a3.27229,3.27229,0,0,1-.02151,1.209c-.5.93752-1.9853.07522-2.64649-.15378-1.02151-.3545-2.05861-.665-3.09661-.96922a28.61071,28.61071,0,0,1-4.5557-1.34478c-.2354-.11522-.4736-.2256-.7158-.3281-3.293-1.3945-6.8116-1.312-10.2813-1.9492-.5888-.1084-1.1318-.398-1.7178-.4722-.7226-.0913-1.4814.0435-2.2099.002-1.9317-.1104-3.7813.1186-5.7188.1186a5.76713,5.76713,0,0,1-2.4453-.1748c-.4531-.2651-.3545-.7973-.3135-1.228.09571-.98,1.1729-1.59912,1.9942-2.06352a5.47016,5.47016,0,0,1,1.85351-.8808c1.68649-.1841,3.46779.5258,5.10549.8608,1.8017.3682,3.6133.68952,5.4258,1.00442C17.2383,16.75329,19.9454,17.414,22.629,18.15759Z"/>
   <path class="a"
         d="M27.7989,1.62047c-.1934,1.4131-.3594,2.8306-.4756,4.253a62.31572,62.31572,0,0,0-.1797,6.7656c.0147.6235.0401,1.2461.0606,1.8696A8.18389,8.18389,0,0,1,27.213,16.35c-.14161.6983.10349,1.6685-.90821,1.6128a4.92988,4.92988,0,0,1-.8047-.1728c-.4629-.0977-.9639-.1172-.9082-.669a5.15624,5.15624,0,0,0-.0245-1.52882c-.7753-4.6304-1.0976-9.542.1719-14.1108A3.09542,3.09542,0,0,1,27.7989,1.62047Z"/>

</g>
</svg>
