<?xml version="1.0" encoding="UTF-8"?>
<svg xmlns="http://www.w3.org/2000/svg"
     version="1.1"
     width="37.22285715mm"
     height="53.18298851mm"
     viewBox="0.00000000 0.00000000 105.51362517 150.75494838">

<g transform="scale(5.06267430)">   <defs>
      <style type="text/css"><![CDATA[
      .a {
        stroke: #000;
        stroke-miterlimit: 10;
        stroke-width: 0.15px;
      }
    ]]></style>
   </defs>
   <path class="a"
         d="M3.697,2.5893a8.19438,8.19438,0,0,1,.9053,3.3902,14.84984,14.84984,0,0,0,1.0659,2.7788,2.47758,2.47758,0,0,1,.0186,1.02778c-.0547.585-.02829,1.17772-.02829,1.76472a23.208,23.208,0,0,1-.01861,2.54828A25.83256,25.83256,0,0,0,5.575,16.9609c0,.7525-.0718,1.4907-.0831,2.2315-.0126.8403-.0595,1.6923-.14839,2.5229-.04541.4219-.06591.853-.10591,1.2705-.0372.3911-.1397.6729-.1812,1.063-.2646,2.4854-1.9321-.1079-2.3672-1.1294a7.47979,7.47979,0,0,1-.6489-1.582c-.1123-.7041.2173-1.4326.0386-2.1485a2.79614,2.79614,0,0,1-.1885-.6743c-.0303-.3877-.065-.7514-.0654-1.14352-.00049-1.17138.1669-2.32668.1669-3.50778v-3.398a7.30129,7.30129,0,0,0-.08339-1.4214c-.08891-.4541-.16951-.9375-.26711-1.38082-.066-.29838-.2925-.47948-.4351-.74268a8.56977,8.56977,0,0,1-.86279-2.707A16.72357,16.72357,0,0,1,.075,1.6303,1.736,1.736,0,0,1,.32112.5044C.70342-.0005,1.094.0517,1.658.1133a1.25079,1.25079,0,0,1,1.0214.6484A14.15,14.15,0,0,1,3.697,2.5893Z"/>
   <path class="a"
         d="M5.87042,19.86808a5.31918,5.31918,0,0,1,.5576.76712,8.25751,8.25751,0,0,1,.7402,1.0518,6.67129,6.67129,0,0,0,.17431.7295,7.48217,7.48217,0,0,0,1.126,1.5215,9.69035,9.69035,0,0,0,1.69139,1.6992,9.14958,9.14958,0,0,0,2.1055,1.1655,5.48633,5.48633,0,0,0,2.562-.1059,5.728,5.728,0,0,0,1.93511-.982,13.725,13.725,0,0,0,2.50089-1.8393,3.66756,3.66756,0,0,1,.7105-.6997c.1362-.0826.57761-.36972.7319-.2246.2403.225-.3052,1.1328-.3901,1.375a10.46188,10.46188,0,0,0-.3257,1.0537,2.34425,2.34425,0,0,1-.22749.685,5.70821,5.70821,0,0,1-1.99561,2.3394,9.351,9.351,0,0,1-2.608.8921c-.1948.0405-.41739.0376-.603.081a7.364,7.364,0,0,1-1.9385.3252,11.66274,11.66274,0,0,1-2.4004-.2539,8.97468,8.97468,0,0,1-2.6469-1.0044,2.45955,2.45955,0,0,1-.7329-.7324c-.2798-.3525-.7149-.5073-1.0205-.832-.28619-.3047-.5498-.6573-.8438-.9605a6.3721,6.3721,0,0,1-.9565-1.2182c-.15089-.2564-.4292-.4405-.5118-.7378-.0517-.1846-.0434-.3262-.1127-.5108a7.59814,7.59814,0,0,0-.77539-1.4311,4.3226,4.3226,0,0,1-.523-1.0811A4.65651,4.65651,0,0,1,1.573,18.9653c.0869-.6948.9731-1.95022,1.8081-1.7549.7075.1656.83841.9502,1.2959,1.4185C5.06522,19.0259,5.49542,19.4306,5.87042,19.86808Z"/>

</g>
</svg>
