<?xml version="1.0" encoding="UTF-8"?>
<svg xmlns="http://www.w3.org/2000/svg"
     version="1.1"
     width="69.17175966mm"
     height="35.58336672mm"
     viewBox="0.00000000 0.00000000 196.07747827 100.86624045">

<g transform="scale(4.31887292)">   <defs>
      <style type="text/css"><![CDATA[
      .a {
        stroke: #000;
        stroke-miterlimit: 10;
        stroke-width: 0.15px;
        fill-rule: evenodd;
      }
    ]]></style>
   </defs>
   <path class="a"
         d="M16.16053,4.34408q-.05865.22275-.1377.4366a9.57647,9.57647,0,0,1-1.8077,2.834c-.3447.4033-.6992.7978-1.0322,1.208a23.46172,23.46172,0,0,1-2.2021,2.6523,26.31176,26.31176,0,0,0-2.4034,2.5137,3.07428,3.07428,0,0,1-.5175.5771,3.58874,3.58874,0,0,0-.628.3936c-.20888.207-.3945.4306-.6035.6377a12.24931,12.24931,0,0,0-1.6035,1.4697c-.1562.2266-.4443.5889-.3213.93849.085.24121.25.15821.4541.21291a3.19551,3.19551,0,0,0,.9258.16109,28.28794,28.28794,0,0,1,3.1416.05571c1.2061.1298,2.418.1982,3.623.3427a26.551,26.551,0,0,0,3.1797.4141c1.0567-.0029,2.126-.0264,3.1778.0596.834.0674,1.6709.0644,2.5127.0654.582,0,1.1191.125,1.6943.125.4248,0,.8486-.0146,1.2725-.04a5.31637,5.31637,0,0,1,1.1845-.0928c.7588.15529-.2685,1.1084-.4629,1.3506a3.34467,3.34467,0,0,1-.63668.46969,2.49175,2.49175,0,0,1-.67582.458c-.2021.06541-.416.06351-.625.11721-.0888.6045-1.2656.2852-1.5947.251-.6992-.0723-1.415.0234-2.1113-.0625-2.0918-.2588-4.332-.044-6.44918-.168-3.47662-.2051-6.918-.4082-10.40142-.4082a12.946,12.946,0,0,1-1.7734-.0449,5.38118,5.38118,0,0,1-.8584-.1739,1.30827,1.30827,0,0,0-.3633-.1025,1.8,1.8,0,0,1,.0439-.8633c.0215-.1367.0264-.2451.05962-.3818a.71868.71868,0,0,1,.06348-.1328.17009.17009,0,0,1,.0234-.167c.0283-.0029.0567-.0049.085-.0068a8.97426,8.97426,0,0,1,.5625-.7852c.4082-.5254.9922-.8018,1.374-1.333.624-.8701.8691-2.0049,1.4707-2.8779a2.352,2.352,0,0,1,.5098-.6309,4.77288,4.77288,0,0,0,.6757-.7188c.4756-.55271.959-1.0996,1.44442-1.6445.958-1.07421,1.92378-2.1406,2.86808-3.2265a19.79248,19.79248,0,0,0,1.3086-1.63771c.4844-.70019,1.6709-2.30379.7276-3.15339-.78028-.7011-2.9629.3213-3.7158.6905a8.43268,8.43268,0,0,0-3.4034,3.0918,11.32035,11.32035,0,0,1-1.5517,2.3642c-.3535.336-.582.5723-1.0576.3477-.3096-.1465-.75878-.4317-.8233-.80081a3.796,3.796,0,0,1,.6651-2.30469c.3095-.499.4765-1.1719.8037-1.624.2539-.3477.456.05369.7304.1045.40732.07519.46-.4317.5694-.6973a3.68239,3.68239,0,0,0,.2051-.418c.1054-.3876-.1495-.85051.249-1.08A6.98516,6.98516,0,0,0,5.305,2.49748c.32518-.2911.64838-.6045.97258-.9034A5.0683,5.0683,0,0,1,8.57063.14c.3389-.0703.5205.125.8438.1661a6.05917,6.05917,0,0,0,1.0459-.05081c.3222-.01469.63672-.10549.9619-.12889.7246-.0537,1.4541.00089,2.1806-.0459a2.38706,2.38706,0,0,1,2.3438,1.414A4.10233,4.10233,0,0,1,16.16053,4.34408Z"/>
   <path class="a"
         d="M27.41923,19.56288a.24313.24313,0,0,1,.09382-.1397c.17188-.1455.64838-.04391.87688-.04391h1.6485c.8125,0,1.6103-.06249,2.4248-.06249h5.0859c.9336,0,1.8711-.06451,2.8037.0029.3106.0225.587.1299.8926.1719a1.2053,1.2053,0,0,1,.5742.1631,1.96062,1.96062,0,0,0,.461.2842,2.348,2.348,0,0,0,.7588.18939c.3193.003.6318.06941.9521.06151a3.52982,3.52982,0,0,1,.7783-.02051c.4844.09871.6309.79691.5205,1.21981-.1338.5166-1.1572.7461-1.57128.999-.19532.1201-.33492.2793-.54292.3935a.84847.84847,0,0,1-.4063.1582,1.78349,1.78349,0,0,0-.3144.0977,3.26778,3.26778,0,0,1-1.6162.207c-.0694-.2773.2304-.2187.3867-.3154.1308-.0811.2695-.248.3838-.3311.2168-.1572.6006-.2753.5517-.6113-.06338-.4316-1.6562-.23241-2.0088-.23241h-3.497a9.77164,9.77164,0,0,0-2.8877.25c-.3506.10551-.6934.249-1.0518.33111-.207.0478-.4013.0253-.6094.0576-.458.0732-.915.1445-1.38468.1767-.55372.0391-1.08992-.06641-1.64162-.06541-.3789.001-.6905-.09669-1.0596-.126-.2236-.01759-.33978.03621-.4941-.14159a.721.721,0,0,1-.1055-.6347c.084-.5352.623-.8838.6777-1.4112.04012-.3867-.2695-.3291-.5175-.4316C27.48273,19.71818,27.40653,19.64878,27.41923,19.56288Z"/>
   <path class="a"
         d="M34.70933,7.73278c-1.1924.1533-2.32128.4024-2.7334.4483a19.93617,19.93617,0,0,0-4.3301.8681c-.4512.1563-.8975.2852-1.3564.4063-.56638.1494-1.1211.3349-1.69138.4697-.36532.0869-.71292.2959-1.07912.3564a1.71323,1.71323,0,0,1-1.2598-.3652c-.3916-.3506-.1406-.7685.04-1.1582.2901-.625.9873-.7685,1.5576-1.0908,2.6768-1.5127,6.1944-1.24611,9.0762-2.1602a12.13356,12.13356,0,0,1,2.4863-.37591c.7803-.07719,1.5694-.35839,2.3487-.377,1.66012-.03909,1.9375,1.46971,1.8545,2.76951a6.24788,6.24788,0,0,1-2.2686,4.6719c-.3232.2647-.6025.1943-.498-.2275a3.61858,3.61858,0,0,1,.6611-1.0635c.4512-.6895,1.2324-2.3018.417-2.9756C37.19173,7.31578,35.56773,7.62248,34.70933,7.73278Z"/>

</g>
</svg>
