<?xml version="1.0" encoding="UTF-8"?>
<svg xmlns="http://www.w3.org/2000/svg"
     version="1.1"
     width="33.70232977mm"
     height="54.93730833mm"
     viewBox="0.00000000 0.00000000 95.53411895 155.72785175">

<g transform="scale(4.67561906)">   <defs>
      <style type="text/css"><![CDATA[
      .a {
        stroke: #000;
        stroke-linecap: round;
        stroke-linejoin: round;
        stroke-width: 0.01px;
      }
    ]]></style>
   </defs>
   <path class="a"
         d="M9.67237.08617a1.65481,1.65481,0,0,0-.28469.16959A1.00979,1.00979,0,0,1,9.1333.40113c-.103.0424-.18777.09691-.18777.12114S8.85468.601,8.75175.64946A1.11218,1.11218,0,0,0,8.4065.87962a.57819.57819,0,0,1-.24228.15748.94353.94353,0,0,0-.43609.20594.58655.58655,0,0,1-.24834.43,1.02325,1.02325,0,0,1-.33313.218c-.07874.02423-.13931.05451-.13931.07874a1.64761,1.64761,0,0,1-.212.27862c-.11508.13325-.28467.33313-.37553.44821-.35735.43-.854.87219-.9267.82374-.02423-.01817-.07874.05451-.12114.15142a.38372.38372,0,0,1-.218.21805.26287.26287,0,0,0-.17565.15142c-.02423.06057-.06663.11508-.09691.11508s-.05451.03634-.05451.0848a.29117.29117,0,0,1-.07874.16959,1.06639,1.06639,0,0,0-.15748.218c-.06057.109-.05451.15142.02423.23016a.1514.1514,0,0,1,.03028.20594c-.04846.09085-.02423.13325.15748.23622a.42371.42371,0,0,0,.35131.08479.35506.35506,0,0,1,.18171-.02422c.212.05451.76317-.36342.854-.66021A.26.26,0,0,1,6.34718,4.55c.06057-.02423.11508-.06057.11508-.09085,0-.04846.1272-.19988.5633-.67838a.85052.85052,0,0,0,.16353-.23016c0-.0848.33919-.18776.636-.18776.44215-.00606.51484.00605.69049.09691a3.00452,3.00452,0,0,0,.55117.15142c.218.03634.45427.07874.5209.09691.19382.03634.29679.32707.20593.59963a.4924.4924,0,0,1-.15748.25439.13022.13022,0,0,0-.0848.11509.36458.36458,0,0,1-.11508.19987c-.06663.06663-.09086.14537-.06663.18777.09691.16353-.109.5754-.3089.6178-.11508.02423-.25439.218-.20594.28468.01817.03634-.03028.12114-.109.19988a1.87038,1.87038,0,0,0-.38159.83585.35084.35084,0,0,1-.12719.22411,3.215,3.215,0,0,0-.27872.23022c-.09085.08479-.19382.13931-.22411.12114-.09085-.05452-.07268.03028.03029.12719a.15347.15347,0,0,1,.03634.19382.46876.46876,0,0,0,.13325.44216.588.588,0,0,1,.04241.47849.13714.13714,0,0,0,.03633.1696.18979.18979,0,0,1,.06664.15748A.16172.16172,0,0,0,8.14,9.29264a.15421.15421,0,0,1,.01817.19988A.14774.14774,0,0,0,8.18246,9.7l.006.00447a.673.673,0,0,1,.13325.25439,1.69292,1.69292,0,0,0,.15143.35736c.06662.109.103.22411.07874.25439a1.0512,1.0512,0,0,0,.15142.43,1.60154,1.60154,0,0,1,.17565.47244.445.445,0,0,0,.09691.39976,3.6006,3.6006,0,0,1,.33919.9267.50534.50534,0,0,0,.109.13325.767.767,0,0,1,.15142.33919,1.18525,1.18525,0,0,0,.13931.37553c.05451.07874.07874.15748.06056.17565s.01818.0848.0848.15142a.38931.38931,0,0,1,.05451.4785.41605.41605,0,0,0,.02423.34524,1.41974,1.41974,0,0,1,.09092.32106,1.73546,1.73546,0,0,0,.09086.59963,1.96965,1.96965,0,0,1,.07874.53907,1.358,1.358,0,0,0,.09085.53906,1.41189,1.41189,0,0,1,.04846.81163c-.03635.06663-.01818.12719.06662.19988a.18036.18036,0,0,1,.0848.20593,1.006,1.006,0,0,0-.06057.28468,1.69168,1.69168,0,0,1-.0848.34524c-.05451.13931-.0424.16959.05451.19988.06663.02423.12114.05451.1272.07874a1.04641,1.04641,0,0,0,.03028.17565.27531.27531,0,0,1-.05451.212.40492.40492,0,0,0-.07874.15142c-.00605.0424-.01211.103-.01817.13326a.942.942,0,0,1-.50878.19987,1.30826,1.30826,0,0,0-.51484.26651.25284.25284,0,0,1-.13931.08479c-.03028,0-.05451.03635-.05451.0848a.26791.26791,0,0,1-.08479.16959c-.1272.13326-.28468.47244-.24834.533.01817.03634-.12114.22411-.315.41793s-.38764.39976-.43.45427-.09691.08479-.12114.07268-.11508.07268-.19382.19382a7.80771,7.80771,0,0,1-.52089.58752,2.78907,2.78907,0,0,0-.41187.49061.73943.73943,0,0,1-.3089.26651c-.15143.08479-.27256.18776-.27256.23016a1.34479,1.34479,0,0,1-.57541.55723c-.0848,0-.19988.0848-.40581.29074-.0424.04239-.13931.14536-.218.2241a.67491.67491,0,0,0-.16354.3513c-.01211.17565.00606.22411.1272.27862.07874.03634.14536.09085.14536.12114,0,.03634.03634.04845.0848.03028a.173.173,0,0,1,.16959.06057.8544.8544,0,0,0,.35736.1272c.218.03028.29073.01817.39976-.0848a.73852.73852,0,0,0,.16959-.24228,1.17361,1.17361,0,0,1,.55724-.43c.04239,0,.08479-.05451.109-.11508a.74428.74428,0,0,1,.49061-.27862.33871.33871,0,0,0,.16354-.103.339.339,0,0,1,.321-.06663c.13931.02423.23622.01211.26651-.03634a.18651.18651,0,0,1,.12719-.0848,1.96428,1.96428,0,0,0,.32707-.16353.8592.8592,0,0,1,.527-.14537c.23016.01211.29073-.01211.321-.09691a.40081.40081,0,0,1,.4785-.16959c.06057.03027.12114.04239.13931.02422s.109.00605.20593.06056c.09691.04846.17565.06057.17565.02423,0-.11508.29679-.13931.45427-.03634.13931.09085.16354.09085.24833.00606a.73216.73216,0,0,1,.71472.006c.05451.04846.0848.11508.07268.13931-.04845.07268.09691.0848.8722.04846a2.1413,2.1413,0,0,1,.642.03634.30281.30281,0,0,0,.26045-.01211c.09691-.05451.16959-.04845.321.03029.17565.09085.19988.09085.36342,0,.09085-.06057.16959-.09085.16959-.07268s.07268.006.15748-.03029a.27725.27725,0,0,1,.29073.03029,1.08254,1.08254,0,0,0,.70866.01211c.12114-.05451.315.1272.27256.24228-.02423.05451.01817.07268.15142.05451.19383-.02423.38765.11508.315.23016a5.369,5.369,0,0,1-.533.62386c-.38765.424-.41793.46033-.424.58752a.19849.19849,0,0,1-.25439.18171c-.0424-.01817-.07874,0-.07874.03029,0,.03634-.06057.08479-.13325.109a.63467.63467,0,0,0-.212.109c-.212.18777-.27256.23017-.3937.24834a1.134,1.134,0,0,0-.51484.38158.4375.4375,0,0,1-.218.13325c-.0424,0-.12719.09692-.1817.212s-.1272.218-.16354.218c-.03029.006-.0848.01211-.109.01817-.03028,0-.09691.05451-.15748.109-.07874.08481-.13325.09692-.218.04846-.09086-.04846-.14537-.03635-.24228.06056a.41887.41887,0,0,1-.24228.12114.19666.19666,0,0,0-.16353.09086c-.03029.09086-.38159.30891-.38159.24227,0-.01817-.04845-.01211-.103.01817-.23622.12114-.43.13326-.533.03635a.17044.17044,0,0,0-.23622-.03635c-.07874.03029-.17565.0424-.212.01212a.78167.78167,0,0,0-.37552.06057.84494.84494,0,0,1-.29679.08479c0-.01211-.07269.00606-.16354.0424a3.31,3.31,0,0,1-.81163.13931.443.443,0,0,0-.2665.11508.28027.28027,0,0,1-.218.0848.27336.27336,0,0,0-.23622.12114c-.09085.109-.16959.13931-.2665.11508a.2278.2278,0,0,0-.23016.07874.636.636,0,0,1-.321.15142.76207.76207,0,0,0-.321.13325.19324.19324,0,0,1-.17565.06057.20326.20326,0,0,0-.1817.05451.15522.15522,0,0,1-.15143.05452c-.03634-.02423-.03634.01211.00606.09085.05451.103.04846.14537-.05451.24833-.14537.14537-.29679.09691-.33919-.11508-.03028-.15142-.0424-.15748-.49667-.15748a2.00312,2.00312,0,0,0-.527.0424,1.34736,1.34736,0,0,1-.68443.05451.66146.66146,0,0,0-.33313,0,.79133.79133,0,0,1-.58752-.11508,1.65556,1.65556,0,0,0-.79345-.16353,2.05531,2.05531,0,0,1-.533-.06057c-.1272-.07269-.533.15142-.62992.34524-.07874.16959-.07874.19382.02423.29679.09085.09085.103.14536.05451.23622a.47053.47053,0,0,1-.12114.15142c-.09691.06057-.07268.16959.03029.1272.09085-.03635.45426.27256.45426.38764,0,.13325-.23622.29679-.40581.27256-.09085-.01211-.19988-.02423-.24228-.02423a.35124.35124,0,0,1-.15142-.0848,1.70063,1.70063,0,0,0-.957-.25439c-.15142.01212-.29073.02423-.315.02423-.03028.00606-.04845.0424-.04845.09086a.52758.52758,0,0,1-.109.2241c-.20593.27256-.12719.55724.27862.99939.109.1272.12114.17565.06663.27862-.04846.0848-.04846.109,0,.0848.08479-.05452.36341.09691.54512.29678a.56323.56323,0,0,0,.18776.15143c.03029,0,.06663.04845.0848.109.02423.07268.19382.13931.60569.24228a2.35575,2.35575,0,0,0,.6602.09691.18813.18813,0,0,1,.17565.05451c.09691.09691.44821.06057.8722-.09085.16959-.06057.28467-.07269.35736-.03029a3.29963,3.29963,0,0,0,1.52634-.23016.43966.43966,0,0,1,.315-.06057.39868.39868,0,0,0,.36947-.103,2.35232,2.35232,0,0,1,1.3628-.33918,1.82435,1.82435,0,0,0,.96911-.15143,1.04637,1.04637,0,0,1,.33918-.15748,4.58256,4.58256,0,0,0,.46639-.16353,1.012,1.012,0,0,1,.27861-.0848.45942.45942,0,0,0,.23622-.18171,1.13413,1.13413,0,0,1,.44822-.27861,1.323,1.323,0,0,0,.51483-.33313.82694.82694,0,0,1,.33919-.23622.201.201,0,0,0,.20593-.28468.21185.21185,0,0,1,.109-.321.20432.20432,0,0,1,.27256.24833c-.02423.06057-.01211.11508.01817.11508a1.97526,1.97526,0,0,0,.61781-.4361.36611.36611,0,0,1,.218-.13931.898.898,0,0,0,.24809-.07855.60277.60277,0,0,1,.25439-.07268.41151.41151,0,0,0,.25439-.14537,1.06107,1.06107,0,0,1,.36341-.24227,1.393,1.393,0,0,0,.35736-.218c.07268-.07268.16354-.11508.19988-.103a.20169.20169,0,0,0,.15748-.06057.52613.52613,0,0,1,.25439-.12114.2903.2903,0,0,0,.212-.15142.51634.51634,0,0,1,.23622-.212c.11508-.05451.19382-.12114.17565-.14537-.01817-.03028.04846-.12719.15142-.218a7.13107,7.13107,0,0,1,.78141-.64818,1.173,1.173,0,0,0,.22411-.212,3.70191,3.70191,0,0,1,.315-.35735c.109-.11508.18776-.23017.16959-.25439-.03027-.04846.00606-.09086.22411-.27862a1.27957,1.27957,0,0,0,.16959-.20594c.15143-.23016.30286-.36947.36342-.33313.07874.04846.07874-.006,0-.15142a.147.147,0,0,1,.03492-.20494l.00143-.001a.295.295,0,0,1,.15142-.09691.77035.77035,0,0,0,.26045-.218c.15748-.1696.19988-.26651.17565-.38765a.37187.37187,0,0,1,.05451-.25439.43886.43886,0,0,0,.09691-.16959.25674.25674,0,0,1,.26045-.212.13669.13669,0,0,0,.14536-.14537.26464.26464,0,0,1,.27919-.24924l.01155.00091c.06056,0,.09085-.02423.07268-.06057a.72731.72731,0,0,1,.18776-.56935c.04846-.01817.07874-.06057.05452-.09691-.01819-.03028.01817-.109.08479-.17565a.75744.75744,0,0,0,.15748-.24228c.01816-.07268.06662-.12719.09691-.12719s0-.05451-.06662-.12114c-.09086-.09085-.109-.15142-.06663-.23016a.20809.20809,0,0,0,0-.20594c-.06057-.109-.01817-.28467.07268-.29679.03029-.006.0848-.01817.11508-.02422.03635-.00606.09086-.01817.1272-.02423.03634,0,.04845-.06057.02422-.12114a.23666.23666,0,0,1,.05451-.20593c.04845-.04846.07874-.103.06057-.12114a.7578.7578,0,0,1-.0424-.44216c.01211-.0424.109-.109.20593-.15142.13327-.04845.1696-.09691.13932-.16959a1.22779,1.22779,0,0,1-.04846-.18777.19139.19139,0,0,0-.05451-.12719.55116.55116,0,0,1-.09691-.33313c-.00606-.03634-.11509-.09691-.24834-.13931a.96036.96036,0,0,1-.315-.14537,1.48624,1.48624,0,0,0-.59357-.25439c0,.01817-.04846.00606-.109-.02423-.0848-.04239-.18171-.03028-.36947.06663-.25439.12114-.25439.12114-.50878.01211a2.23521,2.23521,0,0,0-1.29618-.03028c-.2241.07268-.26045.06663-.54512-.07874-.321-.16959-.44821-.16354-.642.03634a.59155.59155,0,0,1-.68443,0,.61324.61324,0,0,0-.61781-.06057.34343.34343,0,0,1-.3513-.0424.35926.35926,0,0,0-.28467-.05451.97126.97126,0,0,1-.67838.01212c-.47244-.09086-.6602-.26651-.56935-.527a.36292.36292,0,0,1,.18777-.218c.07268-.03029.103-.07269.08479-.13326a.45968.45968,0,0,1,.0848-.30284.44917.44917,0,0,0,.03028-.56329c-.07874-.15143-.07874-.18777,0-.26045a.47753.47753,0,0,0,.09086-.26045,3.77549,3.77549,0,0,1,.109-1.18715.13486.13486,0,0,0,.00606-.17565.33632.33632,0,0,1-.0424-.15748.42909.42909,0,0,0-.04845-.1696,2.473,2.473,0,0,1-.07874-.66626c-.01212-.81768-.03635-.97516-.18171-1.15081-.16354-.212-.16354-.3089.01211-.47244.15142-.13931.27862-.64809.16354-.64809a.43392.43392,0,0,1-.18171-.12114c-.109-.109-.11508-.14536-.04845-.29073a1.36257,1.36257,0,0,0-.103-1.07813c-.12114-.12719-.11508-.17565.0424-.32707.07268-.06663.103-.12114.06662-.12114a.37142.37142,0,0,1-.26044-.27256.34962.34962,0,0,1,.09085-.17565c.0848-.07874.07874-.103-.05451-.23622a.40371.40371,0,0,1-.13325-.37553.77891.77891,0,0,0-.09086-.424l-.11508-.19382.15748-.23017c.0848-.12719.1272-.24833.09691-.2665-.09085-.06057-.19988-.3089-.16354-.36947a.20137.20137,0,0,0-.02422-.16959c-.0848-.16354.01211-.26651.28467-.29679.29073-.03029.47244.103.37553.27861-.07268.14537-.01211.20594.103.09692.11508-.12114.17565-.11509.3089.03028.109.11508.109.11508.29679-.04846a1.39107,1.39107,0,0,1,.37553-.24833c.103-.04845.18776-.12719.18776-.18171,0-.13931.28468-.44821.527-.5754a.52882.52882,0,0,0,.23016-.212.43237.43237,0,0,1,.24834-.19988.4977.4977,0,0,0,.321-.321c.13326-.30284.28468-.46032.39976-.41793.06057.02423.09085,0,.09085-.08479,0-.16354.17565-.33313.30891-.29679.109.03028.18776-.13931.20593-.43a.73039.73039,0,0,1,.26045-.37553.895.895,0,0,0,.28467-.36947.36591.36591,0,0,1,.09691-.18171.087.087,0,0,0,.03029-.109.19043.19043,0,0,1,.01211-.1696.41364.41364,0,0,0,.01212-.26044.50684.50684,0,0,1,.09073-.418c.07874-.13325.11508-.26045.0848-.27862a.76967.76967,0,0,1-.14537-.218.27368.27368,0,0,1-.00606-.34524c.103-.19382.07269-.26045-.15748-.35736-.09691-.0424-.16959-.103-.16959-.13931a.27387.27387,0,0,0-.07268-.2241.81723.81723,0,0,1-.09086-.30285c-.03028-.2241-.12719-.41187-.18776-.35736-.01211.01817-.0848.00606-.15142-.03028A1.28432,1.28432,0,0,0,15.89281.4193a1.02968,1.02968,0,0,1-.33918-.07874A2.01843,2.01843,0,0,0,15.18414.2497a2.63054,2.63054,0,0,1-.51482-.15142A1.42174,1.42174,0,0,0,13.59724.177,1.81537,1.81537,0,0,1,12.719.2134a6.21027,6.21027,0,0,1-.6178-.08479c-.01212-.01212-.07269,0-.13931.03634a.84781.84781,0,0,1-.78134-.00606A1.049,1.049,0,0,0,10.6233.04381a4.26933,4.26933,0,0,1-.527-.03028A.66312.66312,0,0,0,9.67237.08617Zm2.15626,4.47c.44821.06662.62991.12719.62991.20593,0,.02423.06056.06663.13931.09086.40581.12113.50878.13325.61781.05451.09085-.06663.15141-.05451.39369.06662a.96516.96516,0,0,1,.321.22411.56717.56717,0,0,1-.09085.4785c-.07874.04845-.30285.23016-.58146.46638a1.23648,1.23648,0,0,1-.26651.16959.25348.25348,0,0,0-.13931.14537.52132.52132,0,0,1-.212.2241c-.13931.07874-.16354.12114-.11508.20594a.16057.16057,0,0,1-.03634.19988c-.14537.13931-.315.04239-.27862-.16354.00606-.02423-.03028-.09085-.0848-.13931-.11508-.12114-.11508-.17565.01212-.29679.06662-.06662.07874-.11508.03028-.14536a.22211.22211,0,0,1-.08479-.12114,1.0417,1.0417,0,0,0-.24834-.30285c-.4361-.40581-.78134-1.02362-.66626-1.19321.06663-.09691.39976-.26045.46033-.2241A.63375.63375,0,0,0,11.82863,4.55617Zm-.25439,5.92971c.04239.11508-.12114.27862-.23622.23622a.17921.17921,0,1,1,.23622-.23622Z"/>

</g>
</svg>
