<?xml version="1.0" encoding="UTF-8"?>
<svg xmlns="http://www.w3.org/2000/svg"
     version="1.1"
     width="70.72647004mm"
     height="31.44699386mm"
     viewBox="0.00000000 0.00000000 200.48449122 89.14104226">

<g transform="scale(4.33733094)">   <defs>
      <style type="text/css"><![CDATA[
      .a {
        stroke: #000;
        stroke-linecap: round;
        stroke-linejoin: round;
        stroke-width: 0.01px;
      }
    ]]></style>
   </defs>
   <path class="a"
         d="M18.05487.091a.75646.75646,0,0,1-.64843.32812,2.96846,2.96846,0,0,0-.86719.28906,9.59557,9.59557,0,0,1-1.99609.82032,1.42,1.42,0,0,0-.56641.23047,2.03981,2.03981,0,0,1-.89844.37109,2.70419,2.70419,0,0,0-.5625.26172c-.29687.16015-.67578.35547-.83984.4375a1.36245,1.36245,0,0,0-.41016.27344,5.94965,5.94965,0,0,1-.957.52734,7.137,7.137,0,0,0-1.707,1.02734,13.16291,13.16291,0,0,1-1.67188.95313c-.11718.05859-.30468.14062-.40625.18359a5.03249,5.03249,0,0,0-.80468.53516A10.82853,10.82853,0,0,1,3.8479,7.69647a.51073.51073,0,0,0-.34765.28515A5.63123,5.63123,0,0,1,2.61737,9.134c-.09765.05078-.10546.09375-.043.21484.10937.207-.03125.39453-.35938.46094-.22266.043-.25781.082-.23828.23828a.493.493,0,0,1-.10938.33984c-.07421.082-.24609.3125-.38671.51563a2.91076,2.91076,0,0,1-.543.58594c-.53907.41406-.58594.49609-.57813,1.05468a.49954.49954,0,0,1-.30469.48438c-.0664.02344-.0664.07422,0,.19922a.43049.43049,0,0,1,.01563.39453.57289.57289,0,0,0,.01562.45312.996.996,0,0,1,.05079.46094c-.07422.38672.17187.64063.98828,1.02734l.72656.34766.3125-.11719a6.40992,6.40992,0,0,1,.71875-.207,2.24638,2.24638,0,0,0,.55078-.17187.3743.3743,0,0,1,.33594-.00782,2.04028,2.04028,0,0,0,1.04687-.08984,4.42543,4.42543,0,0,1,1.10555-.51953,1.67132,1.67132,0,0,0,.46875-.17188,1.27862,1.27862,0,0,1,.668-.14843,1.51461,1.51461,0,0,0,.70313-.16407,1.7883,1.7883,0,0,1,.5039-.18362,1.0228,1.0228,0,0,0,.33594-.11328.81053.81053,0,0,1,.27344-.09766,1.665,1.665,0,0,0,.85547-.42187.73617.73617,0,0,1,.32812-.21485,2.51611,2.51611,0,0,0,.52344-.26171,2.19591,2.19591,0,0,1,1.04687-.40235.86264.86264,0,0,0,.4336-.13281,2.03774,2.03774,0,0,1,.5039-.17969c.082-.00781.19141-.01953.2461-.02734a.44663.44663,0,0,0,.207-.12891,3.11973,3.11973,0,0,1,1.19534-.32034,1.39869,1.39869,0,0,0,.83984-.29688.53318.53318,0,0,1,.28907-.15625.93334.93334,0,0,0,.3789-.22265.83216.83216,0,0,1,.3711-.22266,1.98515,1.98515,0,0,0,1.01562-.38672c.04688-.15625.1875-.19922.72266-.22265.23047-.00782.42187-.03516.42187-.06641a7.01687,7.01687,0,0,1,1.707-.57422c.10547-.0039.26954-.02734.3711-.043.10547-.00781.32031-.03125.48437-.03125a.78884.78884,0,0,0,.543-.23437c.31641-.293.48047-.375.71875-.375.34766,0,.84766-.16016.89063-.28906.05859-.19141.90625-.51954,1.38672-.543.418-.01563.42578-.01953.55078-.30469a.91031.91031,0,0,1,.23828-.33985,1.333,1.333,0,0,1,.5625.043,3.54823,3.54823,0,0,0,1.89453-.03515c.17969-.09766.32031-.12891.38672-.082a2.4293,2.4293,0,0,0,.97265-.05469,1.10824,1.10824,0,0,1,.26563-.06641c.97266-.10937,1.05469-.125,1.24219-.30469.16406-.14843.22265-.16406.34765-.09765a.92793.92793,0,0,0,.53516.03125,5.743,5.743,0,0,1,.71875-.03516,1.9755,1.9755,0,0,0,.53516-.07031.64559.64559,0,0,1,.4375,0,2.89666,2.89666,0,0,0,.55859.10547,3.74869,3.74869,0,0,1,1.26172.3789,1.89416,1.89416,0,0,0,.543.17969,1.45814,1.45814,0,0,1,.46875.16406,1.74556,1.74556,0,0,0,.75389.168c.53516.01563.76563.07032.88672.21875a1.362,1.362,0,0,0,.47266.23047c.35156.11719.42578.17578.39453.34766a.798.798,0,0,0,.28125.24609,1.26688,1.26688,0,0,1,.42579.50391,1.41678,1.41678,0,0,0,.31641.45312c.41014.33594.52734.5.52734.75391a1.027,1.027,0,0,0,.29687.76563,1.51429,1.51429,0,0,1,.3125.77734.3957.3957,0,0,0,.05859.20312c.0625.10157.04688.21485-.02734.40625l-.11328.26172.35157.17969a1.98583,1.98583,0,0,1,.48046.32031,4.11964,4.11964,0,0,1,.76563,1.28516c.05078.28906.25391.668.34766.668a1.94352,1.94352,0,0,1,.33593.73047,1.55345,1.55345,0,0,0,.207.64453.57144.57144,0,0,1,.10546.27734,1.08118,1.08118,0,0,0,.29688.42188c.30469.29687.34766.41015.22266.60156a.17028.17028,0,0,0,.01171.20312.50439.50439,0,0,1,.09766.23047,3.01559,3.01559,0,0,0,.17969.4961,2.58586,2.58586,0,0,1,.18359.52734.84805.84805,0,0,0,.17969.36328,1.03836,1.03836,0,0,1,.16406.25391c0,.03125.15625.08984.35547.14062.19141.05469.46094.12891.60156.16407.28907.07421.60157-.01563.60157-.17969a1.40857,1.40857,0,0,1,.14062-.39063,1.37845,1.37845,0,0,0,.01563-1.125.353.353,0,0,1-.04688-.23828.29244.29244,0,0,0-.06641-.23828.2391.2391,0,0,1-.02734-.30859,2.40747,2.40747,0,0,0,.10156-.67188,3.453,3.453,0,0,1,.14063-1.08594.70463.70463,0,0,0-.14845-.40625.91886.91886,0,0,1-.14844-.41015.249.249,0,0,0-.01953-.19922.32181.32181,0,0,1,0-.293c.0586-.125.043-.19141-.082-.31641a.739.739,0,0,1-.17188-.21875c-.01562-.07812-.06641-1.50781-.06641-1.8125,0-.19921-.03125-.28125-.125-.3125a.697.697,0,0,1-.35155-.63281.16158.16158,0,0,0-.07422-.207.36361.36361,0,0,1-.14063-.22266,1.69086,1.69086,0,0,0-.23047-.45312,5.38111,5.38111,0,0,1-.36328-.77344,2.87,2.87,0,0,0-.60156-1.0625,2.61261,2.61261,0,0,1-.22266-.29687c-.18359-.3125-.25-.37891-1.05468-1.13282a1.65064,1.65064,0,0,0-.39844-.28125.579.579,0,0,1-.25391-.26562c-.0664-.1211-.14843-.21875-.1875-.21875-.03515,0-.11718-.09375-.18359-.21485a3.37811,3.37811,0,0,0-.48438-.60156,1.68248,1.68248,0,0,1-.37109-.48828c0-.1875-.832-.87109-1.20312-.99219a.83135.83135,0,0,1-.34766-.207,1.364,1.364,0,0,0-.84773-.3204,2.31172,2.31172,0,0,1-.70312-.25,3.37164,3.37164,0,0,0-.78125-.30469,1.79286,1.79286,0,0,1-.57031-.26953c-.17188-.125-.33594-.19922-.3711-.17969a.50681.50681,0,0,1-.32031-.02734c-.125-.03906-.42188-.12891-.64453-.20313-.37891-.10937-.4336-.10937-.64844-.00781a.4894.4894,0,0,1-.25781.08985,4.93717,4.93717,0,0,0-1.09766-.125c-.10547,0-.28515.00781-.41015.01562h-.5586a22.50238,22.50238,0,0,0-3.48828.17188,2.15157,2.15157,0,0,1-1.44922.23046,2.14223,2.14223,0,0,0-.98437.01172,3.80369,3.80369,0,0,1-.75.08985,5.27387,5.27387,0,0,0-.66407.0664c-.3164.0625-.41406.05469-.5039-.02734-.08985-.09766-.11719-.08984-.22266.00781-.082.082-.26562.11719-.60937.125a3.19742,3.19742,0,0,0-1.49219.28906,2.75594,2.75594,0,0,1-.75.22266c-.11719,0-.22266.03906-.23828.082a1.32988,1.32988,0,0,1-.62891.10547,7.7199,7.7199,0,0,0-.92969.082,1.64047,1.64047,0,0,1-.40625.03516,1.17741,1.17741,0,0,0-.55859.32031.403.403,0,0,0,.05859.27734c.08985.17579.08985.22266-.01171.31641a.38884.38884,0,0,1-.21875.12109c-.14063,0-.34766-.22265-.30079-.33593.0586-.15625-.293-.19141-.59765-.06641-.85938.36328-1.74219.45313-1.98828.207-.21485-.21484.02343-.48828.74218-.85547.49219-.25.66016-.37109.71485-.53515a1.31364,1.31364,0,0,1,.39844-.42969,1.01022,1.01022,0,0,0,.32818-.289c0-.03907.10938-.09766.24609-.13282a.642.642,0,0,0,.38282-.30078.85241.85241,0,0,1,.29687-.28125.801.801,0,0,0,.27735-.17187,2.20244,2.20244,0,0,1,.76562-.4961c.22266-.09765.42969-.17968.46484-.1875.25391-.05078.3711-.25.4336-.75.0664-.543,0-.57812-1.04688-.57812C18.37907.00506,18.09784.0324,18.05487.091Zm26.6602,18.91406a.52488.52488,0,0,1-.22266.50391c-.11718.04687-.32421-.14063-.32421-.29688s.27343-.40234.39843-.35547A.27619.27619,0,0,1,44.71507,19.00506Z"/>

</g>
</svg>
