<?xml version="1.0" encoding="UTF-8"?>
<svg xmlns="http://www.w3.org/2000/svg"
     version="1.1"
     width="55.79313365mm"
     height="25.85617342mm"
     viewBox="0.00000000 0.00000000 158.15379670 73.29313419">

<g transform="scale(4.67561906)">   <defs>
      <style type="text/css"><![CDATA[
      .a {
        stroke: #000;
        stroke-linecap: round;
        stroke-linejoin: round;
        stroke-width: 0.01px;
      }
    ]]></style>
   </defs>
   <path class="a"
         d="M26.15489.06406a.55618.55618,0,0,1-.27257.05452,2.24639,2.24639,0,0,0-1.02967.49666A.54869.54869,0,0,1,24.62249.803a4.05526,4.05526,0,0,0-.50878.33918,1.18059,1.18059,0,0,0-.4361.58147,1.09926,1.09926,0,0,0-.09085.43.457.457,0,0,1-.18777.49061,1.43852,1.43852,0,0,1-.55723.12114c-.69655.03634-.95094.09085-1.10842.23622a2.97485,2.97485,0,0,1-.93276.51483c-.05452,0-.1272.06663-.16354.14537a.52546.52546,0,0,1-.218.212,3.1522,3.1522,0,0,0-.40581.27256,5.40493,5.40493,0,0,1-.4785.33919,1.22459,1.22459,0,0,0-.36947.35736,3.0694,3.0694,0,0,1-.80557.78739,1.79845,1.79845,0,0,0-.40581.41793.55741.55741,0,0,1-.4361.25439,4.00074,4.00074,0,0,0-.87219.26651.47335.47335,0,0,1-.315.03634.74183.74183,0,0,0-.41793.03634,4.03581,4.03581,0,0,1-.92671.109,4.24555,4.24555,0,0,0-.83585.0848,1.37337,1.37337,0,0,1-.48455.0424,8.92392,8.92392,0,0,0-2.01695-.03029c-.29679.03634-.76318.07874-1.02968.09086a8.99848,8.99848,0,0,0-1.30223.12719,2.27305,2.27305,0,0,1-.424.05451c-.15142.00606-.46032.03635-.69654.06663a11.77007,11.77007,0,0,1-1.78679.03028,5.69988,5.69988,0,0,0-.72683.01212c-.18171.01817-.44216.03634-.58146.03634a1.29251,1.29251,0,0,0-.424.07268,1.898,1.898,0,0,1-.41187.0848.45071.45071,0,0,0-.27256.07874,6.08713,6.08713,0,0,1-1.18715.77528,1.466,1.466,0,0,1-.46639.14537,3.088,3.088,0,0,0-1.0539.51484.9808.9808,0,0,1-.34524.15142,2.35516,2.35516,0,0,0-.41789.1515.68249.68249,0,0,1-.25439.09086c-.12719,0-.30284.27861-.25439.39975.03029.07874.09691.09086.32707.06663a.87711.87711,0,0,1,.40582.03634A3.80468,3.80468,0,0,0,1.685,9.9126a9.87565,9.87565,0,0,1,1.02967.04845,1.88755,1.88755,0,0,0,.84191-.01817A2.447,2.447,0,0,1,4.59832,9.9126a3.91946,3.91946,0,0,0,1.484.0424.813.813,0,0,1,.38158-.00606.86256.86256,0,0,0,.78134-.06057.56993.56993,0,0,1,.527-.13931c.06663.00606.16354.00606.212.00606.32708-.00606.90248.00606,1.03574.02423a2.51612,2.51612,0,0,0,.55719-.06057,1.169,1.169,0,0,1,.54512-.03029,2.04238,2.04238,0,0,0,.59358.02423c.24833-.01817.54512-.02423.6602-.01817.11509.01211.27257.01211.35131.01211.2665-.01211.3513-.01211.81162-.01211a3.49818,3.49818,0,0,0,.7026-.05451.844.844,0,0,1,.44216-.00606,1.84229,1.84229,0,0,0,.56935.02423,2.50562,2.50562,0,0,1,.6178.02423.858.858,0,0,0,.533-.03634,1.26423,1.26423,0,0,1,.68443-.03029.91263.91263,0,0,0,.90248-.212c.13325-.1272.18171-.13931.67232-.11508.50878.03028.73288.07268.745.15748.03634.16353.06057.3089.09085.49666a.88788.88788,0,0,0,.33313.50878,1.74781,1.74781,0,0,1,.29679.33313,1.06309,1.06309,0,0,0,.52089.30285.32.32,0,0,1,.18777.12114.34314.34314,0,0,0,.19988.12114.48306.48306,0,0,1,.212.07874,1.94343,1.94343,0,0,0,.79951.19987c.01817-.01817.0848-.00605.15142.03029a2.72438,2.72438,0,0,0,.70866.07874,3.64735,3.64735,0,0,1,.64809.04845.65083.65083,0,0,0,.32707-.02422,17.53785,17.53785,0,0,1,2.28952-.109,2.09275,2.09275,0,0,0,1.33252-.27862,1.66361,1.66361,0,0,1,.52089-.17565,1.29838,1.29838,0,0,0,.71472-.33918c.24227-.22411.27861-.24228.54512-.218a.81454.81454,0,0,0,.48455-.07874,3.73206,3.73206,0,0,1,.44215-.18171,1.05005,1.05005,0,0,0,.35131-.18776.33909.33909,0,0,1,.212-.11508,1.971,1.971,0,0,0,.46032-.18171,1.86266,1.86266,0,0,1,.43-.18171.44243.44243,0,0,0,.19988-.15142.42632.42632,0,0,1,.22411-.15142c.04845,0,.14536-.07874.21805-.17565a1.03392,1.03392,0,0,1,.35735-.27862.71962.71962,0,0,0,.321-.29073,3.96046,3.96046,0,0,1,.20593-.35736c.103-.16354.103-.1696-.03028-.30285L32.024,7.84719l-.24228.13931a.52748.52748,0,0,1-.29073.103.3389.3389,0,0,0-.212.03634c-.12719.06057-.19988.05451-.38158-.02423a1.87544,1.87544,0,0,0-.66021-.09691,2.86818,2.86818,0,0,1-.66626-.06057,2.08528,2.08528,0,0,0-.45427-.06057c-.32707.01212-.3513.00606-.44215-.1817-.0848-.16354-.07874-.18777.0848-.44821a.87874.87874,0,0,1,.29679-.315.59675.59675,0,0,0,.24833-.212.67009.67009,0,0,1,.23622-.212.25909.25909,0,0,0,.15142-.1817.38392.38392,0,0,1,.16354-.212,1.63579,1.63579,0,0,0,.24227-.18776.40994.40994,0,0,1,.1696-.11508c.03028,0,.07268-.05451.09691-.12114a.83207.83207,0,0,1,.32707-.27862c.29679-.15748.43-.33918.43-.58146a3.394,3.394,0,0,1,.59964-.957c.109-.00606.2665-.19988.29073-.34525.06057-.43609.06662-.59357.01212-.7026-.09691-.16959-.29679-.3513-.3513-.321-.03028.01817-.12114-.02423-.212-.09086a.36709.36709,0,0,0-.26045-.09085,1.61128,1.61128,0,0,1-.46638-.01817,2.84932,2.84932,0,0,0-1.24772.16959,1.45674,1.45674,0,0,1-.642.00606,6.63133,6.63133,0,0,0-1.0115-.0424c-.58752.03028-.70866.00606-.72683-.14537a.98407.98407,0,0,0-.06663-.16959,1.39449,1.39449,0,0,1-.04239-.957.32947.32947,0,0,0,.01211-.3089.3.3,0,0,1-.03634-.20594c.01817-.04845-.07874-.212-.212-.36947C26.50619.00349,26.34265-.057,26.15489.06406Zm-.424,5.14838a4.68409,4.68409,0,0,0,1.30224-.00606,2.31266,2.31266,0,0,1,.89642.33313c.03634.09691-.01817.18171-.16959.2665a5.97731,5.97731,0,0,1-1.5748-.01211,2.38548,2.38548,0,0,0-1.28407.13931.28575.28575,0,0,1-.27256-.03028.34269.34269,0,0,0-.30284-.03029,7.80914,7.80914,0,0,1-1.71411.212,15.34268,15.34268,0,0,0-1.68988-.00605.67932.67932,0,0,1-.44215-.06663c-.09085-.09085-.09085-.09085-.0424-.218a.78624.78624,0,0,1,.37553-.18776,3.81168,3.81168,0,0,0,.49667-.18171,2.01753,2.01753,0,0,1,.751-.23622c.03635.01211.66626.03634,1.39915.0424a5.1985,5.1985,0,0,0,1.51423-.06057C25.16155,5.08524,25.27058,5.0913,25.73089,5.21244Z"/>
   <path class="a"
         d="M33.296,6.96288c-.321.11509-.47849.23017-.47849.34525a.278.278,0,0,1-.07874.15748c-.09691.09085-.109.30284-.02423.35736.09691.06662.48455-.07874.69654-.26045a.7488.7488,0,0,1,.28468-.16959c.09691,0,.103-.01212.12114-.27257C33.8411,6.82963,33.73814,6.79935,33.296,6.96288Z"/>
   <path class="a"
         d="M26.33659,12.34748a2.4373,2.4373,0,0,0-.957.65414,2.4624,2.4624,0,0,1-.54512.41187c-.18777.0848-.27256.19382-.49667.61781a4.27945,4.27945,0,0,1-.39975.6602c-.35736.38764.12719.94488.854.97516.55118.02423.7874-.06056.94488-.32707a1.94362,1.94362,0,0,1,.18171-.25439,3.61536,3.61536,0,0,0,.58146-.94488c.04845-.14536.109-.2665.13931-.2665.02423,0,.06057-.11508.08479-.25439a.78583.78583,0,0,1,.29074-.49061.631.631,0,0,0,.26044-.44216c.01212-.23016-.01211-.26044-.29679-.32707-.103-.02423-.23016-.06057-.27861-.07874A.82458.82458,0,0,0,26.33659,12.34748Z"/>

</g>
</svg>
