<?xml version="1.0" encoding="UTF-8"?>
<svg xmlns="http://www.w3.org/2000/svg"
     version="1.1"
     width="49.87881842mm"
     height="33.78442513mm"
     viewBox="0.00000000 0.00000000 141.38871862 95.76683047">

<g transform="scale(5.26144544)">   <defs>
      <style type="text/css"><![CDATA[
      .a {
        stroke: #000;
        stroke-miterlimit: 10;
        stroke-width: 0.15px;
      }
    ]]></style>
   </defs>
   <path class="a"
         d="M.875,8.99032a4.44792,4.44792,0,0,0-.78847,2.844c.02.2354.02754.07969.17567.8868.22683,1.236.2396,1.76709.4823,3.0567a4.919,4.919,0,0,0,.2476,1.02682,2.65213,2.65213,0,0,0,2.15427,1.29844,7.11649,7.11649,0,0,0,2.591-.33862c1.96808-.46335,1.9547-.27194,3.44146-.62667,2.41128-.57532,7.068-2.18148,8.45833-2.58334a1.14188,1.14188,0,0,1,.91667.04167.921.921,0,0,1,.33333.45833,2.87972,2.87972,0,0,0,1.41667,1.29167c1.28065.51263,3.71947-1.97015,4.45833-3.83333.38639-.97437.25785-1.65318.61695-2.47933a.85361.85361,0,0,0,.06264-.70531A.78177.78177,0,0,0,25.083,9.025c-1.75333-.90069-4.10814-.26724-5.6905.69107l-1.83779,1.113a1.67525,1.67525,0,0,0-.40343.30395,3.52709,3.52709,0,0,0-.37866.72744c-.49051.92449-2.05844,1.01214-2.97051,1.3098-1.3699.44709-2.73843.90212-4.13634,1.25545a21.45049,21.45049,0,0,1-2.56613.53654A2.6515,2.6515,0,0,1,5.712,14.85886,1.07949,1.07949,0,0,1,5.02213,13.752a2.92134,2.92134,0,0,1,.25482-.60582c.44793-1.02391-.07551-2.38323.65062-3.2328.22833-.26714.57306-.47043.6441-.81459.12054-.58394-.60133-.95525-1.1839-1.08222C3.53234,7.61219,2.08827,7.28232.875,8.99032Z"/>
   <path class="a"
         d="M17.83691,8.31712c-.18284.25347-.4111.56478-.6997,1.029a15.20112,15.20112,0,0,0-.91667,1.70833c-1.3978,3.0162-2.68744,4.924-2.16666,5.41667.08451.08.30633.095.75.125a2.3808,2.3808,0,0,0,1.38348-.182,1.93093,1.93093,0,0,0,.56487-.56746,12.20868,12.20868,0,0,0,2.15058-3.76314,5.75385,5.75385,0,0,1,.22754-.62826,4.38953,4.38953,0,0,1,.655-.93451l2.30926-2.75051a7.90179,7.90179,0,0,0,1.31054-1.9159,3.05523,3.05523,0,0,1,.3787-.8524,2.5917,2.5917,0,0,1,.93664-.73911C25.79018,3.63757,26.13322,2.542,26.74661.58289c.03418-.10917.09989-.32811-.0095-.43549A.38216.38216,0,0,0,26.431.07891a5.14488,5.14488,0,0,0-1.80341.63294l-1.90541.95A3.75574,3.75574,0,0,0,21.166,2.72673c-.343.51771-.55278,1.216-.8489,1.77219A32.13472,32.13472,0,0,1,17.83691,8.31712Z"/>

</g>
</svg>
