<?xml version="1.0" encoding="UTF-8"?>
<svg xmlns="http://www.w3.org/2000/svg"
     version="1.1"
     width="23.10183612mm"
     height="58.57789819mm"
     viewBox="0.00000000 0.00000000 65.48552104 166.04761408">

<g transform="scale(5.59901992)">   <defs>
      <style type="text/css"><![CDATA[
      .a {
        stroke: #000;
        stroke-miterlimit: 2.61313;
        stroke-width: 0.28346px;
      }
    ]]></style>
   </defs>
   <path class="a"
         d="M.23975,3.0459C1.38037,1.43164,2.66748.49854,4.21826.78271c1.3457.19922,2.34766.96,2.59375,2.95557-.95117-.62256-.74414,8.61816-.42187,15.543.46875,3.65039.53125,6.73242.18359,7.791a3.43854,3.43854,0,0,1-4.02148,2.4082C2.47412,27.375,1.53076,17.748,1.58154,13.30811,1.18506,7.87842,1.57373,3.33252.23975,3.0459Z"/>
   <path class="a"
         d="M4.19482.77c1.42578,1.62646,2.98047,3.3584,4.40625,4.98535a4.43515,4.43515,0,0,0,2.94336-2.05859C10.5874.09668,7.33936-.54346,4.19482.77Z"/>
   <path class="a"
         d="M1.97607,20.67969c-.20312-1.58984-.18945-3.21484-.39258-4.80615,1.65039-.89014,3.08789-1.74609,4.74023-2.63574l2.7832-1.02246c1.36133-.15332,2.18945,2.23877.09961,3.79248a6.38075,6.38075,0,0,1-3.06445,2.17578l-4.166,2.49609Z"/>

</g>
</svg>
