<?xml version="1.0" encoding="UTF-8"?>
<svg xmlns="http://www.w3.org/2000/svg"
     version="1.1"
     width="32.02765923mm"
     height="57.82055493mm"
     viewBox="0.00000000 0.00000000 90.78704002 163.90083822">

<g transform="scale(3.99925818)">   <defs>
      <style type="text/css"><![CDATA[
      .a {
        stroke: #000;
        stroke-linecap: round;
        stroke-linejoin: round;
        stroke-width: 0.01px;
      }
    ]]></style>
   </defs>
   <path class="a"
         d="M10.25177.27453c-.05078.14063-.13672.28125-.1914.29688A1.02038,1.02038,0,0,0,9.787.9425c-.10156.17969-.207.32813-.2461.32813a4.34438,4.34438,0,0,0-.91406,1.57812c.06641.07422-.13281.34375-.293.38672-.082.03125-.13672.08984-.12109.14062a3.71358,3.71358,0,0,1-.28906,1.34375,6.80446,6.80446,0,0,0-.19141,2.15235,5.32761,5.32761,0,0,0,.11328,1.28515c.01563.02344,0,.08985-.03906.16407-.043.08593-.02344.24218.08594.51171a2.31791,2.31791,0,0,1,.13671.76954c-.01562.61718.05469.91406.23047,1.08593.08985.08985.14453.19141.1211.23828-.03125.03516-.00781.125.04687.1836.08985.11328.12891.32031.168.84765a.64564.64564,0,0,0,.11328.35547c.05469.0586.07813.13282.04688.17188a.76011.76011,0,0,0,.16015.39844c.10547.1875.17578.37109.14454.42578a1.61249,1.61249,0,0,0,.08593.97656.34953.34953,0,0,1,.06641.293.81155.81155,0,0,0,.05469.39844,3.42281,3.42281,0,0,1,.12109.72656,7.80757,7.80757,0,0,0,.17578,1.63281,2.65133,2.65133,0,0,1,.09375.65625.95067.95067,0,0,0,.10547.46484.33512.33512,0,0,1,.03906.38672,2.45,2.45,0,0,0-.08594,1.00391.82691.82691,0,0,0,.07813.34766.28591.28591,0,0,1,0,.30468.18544.18544,0,0,0,0,.25391,1.03341,1.03341,0,0,1,.11328.457,2.629,2.629,0,0,0,.125.668c.11328.36328,0,.87891-.22265.94531A2.06215,2.06215,0,0,1,8.63849,22.505a.65084.65084,0,0,0-.418-.17969.6333.6333,0,0,1-.375-.15625c-.05469-.05859-.11328-.09375-.13672-.07422a.66293.66293,0,0,1-.33593-.05078,2.06836,2.06836,0,0,0-.80469-.125.86942.86942,0,0,1-.54688-.24609A3.56071,3.56071,0,0,0,4.826,21.13a.53633.53633,0,0,1-.25781-.07422c-.44531-.17578-.65625-.07422-.81641.40234-.07812.22266-.14844.41016-.14844.41407a3.82122,3.82122,0,0,1-.34375.22265,1.01487,1.01487,0,0,0-.38671.34375c-.0625.1836-.39844.50391-.53516.50391a1.22415,1.22415,0,0,0-.4375.28906,3.51291,3.51291,0,0,1-.47266.36328,1.30835,1.30835,0,0,0-.32812.52735,1.13779,1.13779,0,0,1-.25391.45312c-.04687,0-.11328.09766-.15234.22266-.04688.12109-.13672.23828-.207.2539-.09766.03516-.12891.13282-.12891.42188.00781.36328-.09766.58594-.27344.58594a1.63452,1.63452,0,0,0-.07031.668c0,.5039.02344.67578.11328.71875a1.87857,1.87857,0,0,1,.31641.61718,3.18946,3.18946,0,0,0,.3125.66016.28815.28815,0,0,1,.0664.25391.48027.48027,0,0,0,.07813.3125,2.11434,2.11434,0,0,1,.15234.71093c.07813,1.1875.1211,1.75391.15235,1.9961.01562.14062.04687.52734.07031.85547.02344.32421.05078.71093.07422.85156a10.60653,10.60653,0,0,1,.07812,2.59764,1.75035,1.75035,0,0,0-.04687.41016c.00781.082.01562.36329.00781.62891-.00781.832-.00781.92968.00781,1.1875,0,.10547.00781.21875.00781.26172a4.38594,4.38594,0,0,1-.12109.48828.92.92,0,0,0-.01562.6914c.10547.30469.53515.71485.7539.71485a.43228.43228,0,0,1,.26172.14843c.15235.168.46485.19922.52735.043a1.27271,1.27271,0,0,1,.543-.27343A2.24737,2.24737,0,0,0,4.4549,39.837a4.41742,4.41742,0,0,0,1.25781-1.96875,1.1375,1.1375,0,0,1,.21484-.41406,1.37061,1.37061,0,0,0,.30469-.8086,1.7185,1.7185,0,0,1,.04687-.543c.04688-.23829.09766-.57032.1211-.74219a2.57973,2.57973,0,0,1,.16016-.59375,2.38272,2.38272,0,0,0,.14843-.65235,2.88088,2.88088,0,0,1,.10547-.668A3.85988,3.85988,0,0,0,6.869,31.71583c-.10156-.27344-.10156-.32032.02344-.50391a.94383.94383,0,0,0,.0039-.90625A3.49421,3.49421,0,0,1,6.783,29.26661a2.20882,2.20882,0,0,0-.29687-1.40235,3.28141,3.28141,0,0,1-.28516-.66015.306.306,0,0,0-.12109-.21485c-.08985-.0625-.12891-.21484-.13672-.53515-.00781-.39453-.03907-.48438-.21485-.64063-.1289-.11718-.1914-.23437-.168-.30078a.47391.47391,0,0,1,.45316-.1952c.06641.02344,1.11328.082,1.51172.082a1.20282,1.20282,0,0,1,.34375.082,3.68673,3.68673,0,0,0,.77734.10547c.31641.01953.76563.043.9961.05859a1.95125,1.95125,0,0,1,.7539.19141c.30078.15625.4375.17188,1.41407.1875a12.9831,12.9831,0,0,1,1.35546.06641.5496.5496,0,0,0,.47266-.06641.59213.59213,0,0,1,.29688-.10547.58268.58268,0,0,0,.26953-.03125.7056.7056,0,0,1,.44921.0625,1.42966,1.42966,0,0,0,.57422.09375.75335.75335,0,0,1,.38672.06641.67756.67756,0,0,0,.36719.05469,1.56436,1.56436,0,0,1,1.02344.39062,3.45477,3.45477,0,0,1-.875,1.87891,3.07547,3.07547,0,0,0-.47657,1.48437,2.30036,2.30036,0,0,1-.13671.75,3.19958,3.19958,0,0,0-.14453.668c-.01563,1.01563-.00782,1.9375.02343,2.31641.01563.23828-.00781.40234-.07812.46875-.08985.082-.082.13281.02343.332a3.22632,3.22632,0,0,1,.207,1.2539,1.37677,1.37677,0,0,0,.11328.50782.93592.93592,0,0,1,.1289.29687c.01563.06641.08594.25781.14844.42188a2.38654,2.38654,0,0,1,.12109.48047.77247.77247,0,0,0,.12109.36718.8037.8037,0,0,1,.15234.39844.67888.67888,0,0,0,.07032.26172c.01563.01953,0,.09375-.04687.168-.05859.11329-.01563.19531.21484.418a4.66286,4.66286,0,0,1,.47266.53906,1.47562,1.47562,0,0,0,.84766.59375.987.987,0,0,1,.32812.082c.15625.06641.27734.05469.62891-.07422a1.32227,1.32227,0,0,1,.49609-.11719c.03906.02344.16016-.01562.26952-.082a.48029.48029,0,0,1,.3711-.07422c.14843.03907.24609-.01562.46093-.21484a3.17652,3.17652,0,0,1,.5586-.40234,4.672,4.672,0,0,0,1.082-.91016c.08594-.10546.08594-.15625.01562-.23828a.822.822,0,0,1-.12109-.36328.8097.8097,0,0,0-.30469-.51954.92272.92272,0,0,1-.3164-.5.99866.99866,0,0,0-.10547-.36328,1.84154,1.84154,0,0,1-.082-.53516,1.49129,1.49129,0,0,0-.15625-.62109,3.75853,3.75853,0,0,1-.3125-1.82032c.00781-.42968.01562-.94922.01562-1.14843-.01562-3.03516-.00781-3.3711.07813-3.52735a2.17671,2.17671,0,0,0,.11333-.60155,1.17417,1.17417,0,0,1,.14453-.55469.22181.22181,0,0,0,.07812-.207,1.0879,1.0879,0,0,1,.375-.73828.9967.9967,0,0,1,.38672.02344c.26172.05078.3086.03906.55078-.19141.293-.28125.30468-.40234.15234-.86328-.05859-.17578-.12891-.42969-.16016-.5625-.03125-.125-.082-.23828-.12109-.23828a4.15023,4.15023,0,0,1-.61327-.51953c-.4258-.41407-.57814-.51953-.76173-.51953a.68116.68116,0,0,1-.46484-.22266,1.75212,1.75212,0,0,0-.61328-.34766,1.89052,1.89052,0,0,1-.64844-.37109c-.3125-.3125-.53515-.36328-.75-.17969a3.70691,3.70691,0,0,1-1.96484.63281c-.03516-.03125-.19531,0-.35156.06641a4.77078,4.77078,0,0,1-2.30469.207,1.53,1.53,0,0,0-.35937.03516c-.22266.04686-.28516.00781-.75-.457-.33594-.32813-.4961-.543-.47266-.625a.32478.32478,0,0,0-.02344-.23047c-.03906-.05078.01563-.23828.1211-.46094a.916.916,0,0,0,.15238-.46486c-.043-.12891.10156-.47657.19922-.47657.03906,0,.04687-.03125.02344-.07421-.04688-.07422.08984-.37891.21484-.45313a2.22737,2.22737,0,0,0,.35156-.957,2.22264,2.22264,0,0,1,.1836-.57031.742.742,0,0,0,.05859-.58594.774.774,0,0,1,.03906-.56641,1.06339,1.06339,0,0,0,.10157-.44531,2.04666,2.04666,0,0,1,.16015-.69141,3.57624,3.57624,0,0,0,.20313-1,17.5154,17.5154,0,0,1,.207-2.05468,1.35208,1.35208,0,0,1,.10937-.3711,3.12724,3.12724,0,0,0-.00781-1.14453,1.04977,1.04977,0,0,0-.14453-.35547c-.10156-.13672-.11719-.28906-.09375-.66015.02344-.26953.04687-.50782.05469-.52735a1.94456,1.94456,0,0,0-.09375-.32031.60294.60294,0,0,1-.043-.35547c.01953-.04687,0-.09765-.07032-.12109-.14453-.05078-.28124-.44531-.23046-.66016a.50731.50731,0,0,0-.07422-.34765c-.07032-.10547-.10156-.19922-.07813-.23047a2.94346,2.94346,0,0,0-.35156-.75781,2.1997,2.1997,0,0,1-.35937-.86719.3699.3699,0,0,0-.03126-.28906,1.85274,1.85274,0,0,1-.10546-.49219c-.02344-.19141-.07813-.57031-.11328-.83594-.04688-.26953-.09376-.63281-.11719-.81641a4.09533,4.09533,0,0,0-.08985-.51953c-.02343-.10547-.05468-.32031-.07031-.48437a2.46223,2.46223,0,0,0-.14453-.62891,2.53666,2.53666,0,0,1-.12109-.668c0-.1875,0-.40234-.00782-.48437a.87919.87919,0,0,1,.01563-.22266c.05078-.19922-.01563-.40234-.14453-.44531A.31335.31335,0,0,1,11.7439.66907a1.07563,1.07563,0,0,0-.23828-.32812A.64605.64605,0,0,1,11.322.07922c0-.043-.19921-.07422-.48828-.07422h-.48825Z"/>

</g>
</svg>
