<?xml version="1.0" encoding="UTF-8"?>
<svg xmlns="http://www.w3.org/2000/svg"
     version="1.1"
     width="23.27336962mm"
     height="61.93864086mm"
     viewBox="0.00000000 0.00000000 65.97177715 175.57406098">

<g transform="scale(4.31887292)">   <defs>
      <style type="text/css"><![CDATA[
      .a {
        stroke: #000;
        stroke-miterlimit: 10;
        stroke-width: 0.15px;
        fill-rule: evenodd;
      }
    ]]></style>
   </defs>
   <path class="a"
         d="M4.39014,27.33289c-.0644.3643-.122.73-.1631,1.0982a21.4374,21.4374,0,0,0-.5693,2.4209c0,.6128-.0117,1.227,0,1.8393.04,2.06939,2.1797,2.6236,3.7549,3.1402.3926.1294,1.4443.4741,1.2783,1.041-.16309.55219-1.2324.625-1.6816.6719a4.86214,4.86214,0,0,1-2.6846-.627,5.41043,5.41043,0,0,1-1.1484-.9375,3.63892,3.63892,0,0,1-.7481-1.102,8.8886,8.8886,0,0,1-.5391-1.5284,10.522,10.522,0,0,1-.083-2.872c.3291-2.8282.6465-5.8462,1.9229-8.4351a55.93421,55.93421,0,0,0,2.0391-5.814,18.55555,18.55555,0,0,0,.6748-6.2876c-.0098-.6665.1357-1.3169.1318-1.9794a17.00831,17.00831,0,0,0-1.252-4.9903,7.09113,7.09113,0,0,1-.333-1.3086,2.20057,2.20057,0,0,1-.0068-.5991,3.96362,3.96362,0,0,1,.1836-.40671c.0234-.07079-.0469-.18019-.01469-.24809C5.32185.04,5.811.07019,6.16264.08c.3935.0112,1.2256-.0181,1.4863.3125.12791.1636.0625.5117.08791.6978a8.828,8.828,0,0,1,.17089,1.3046c-.00589.7149.084,1.4073.084,2.1255,0,2.1934.4482,4.4468.2109,6.627-.25779,2.3662-.8125,4.7139-1.2021,7.0605-.4131,2.48779-1.7959,4.6817-2.2403,7.1885C4.645,26.04339,4.50634,26.686,4.39014,27.33289Z"/>
   <path class="a"
         d="M3.40385,10.45789c.36619-.0185.78709-.0175,1.30859-.0459a40.145,40.145,0,0,1,6.8691.0879c.7412.0825,2.8418-.2129,3.4219.23979.5371.41841-.1699,1.05421-.4072,1.36231-.23239.3022-.3848.6621-.7666.7363a7.6128,7.6128,0,0,1-1.3379-.0088c-.79789,0-1.5938.1026-2.3906.0928-.5938-.0073-1.1485-.1763-1.7579-.1763H3.53174c-.54,0-1.082.0073-1.623-.0005-.4033-.0053-.79789-.0747-1.2012-.0869-.38869-.0117-.9062.0938-.4609-.4097.2177-.247.5507-.3671.7724-.6049A2.9542,2.9542,0,0,1,3.40385,10.45789Z"/>
   <path class="a"
         d="M10.28174,31.38368c-.1504-.56589-.3183-1.11719-.4775-1.64009-.2022-.6655-.6719-1.356-.1963-2.04591.291-.42189,1.0771-1.03909,1.5967-.78909.4414.2124.6416,1.2105.8301,1.6104.8486,1.8003,1.6035,3.4546,1.2373,5.5014a7.52364,7.52364,0,0,1-3.0909,4.8291c-.4746.3355-.9541.9014-1.4746,1.232a2.8491,2.8491,0,0,1-1.707.4873c-.1201-.4688.5605-1.2066.917-1.4624a6.76773,6.76773,0,0,0,2.54-2.7285A8.61754,8.61754,0,0,0,10.28174,31.38368Z"/>

</g>
</svg>
