<?xml version="1.0" encoding="UTF-8"?>
<svg xmlns="http://www.w3.org/2000/svg"
     version="1.1"
     width="48.30067317mm"
     height="14.72603827mm"
     viewBox="0.00000000 0.00000000 136.91535355 41.74310105">

<g transform="scale(5.59901992)">   <defs>
      <style type="text/css"><![CDATA[
      .a {
        stroke: #000;
        stroke-miterlimit: 2.61313;
        stroke-width: 0.28346px;
      }
    ]]></style>
   </defs>
   <path class="a"
         d="M16.08008,3.17432q2.19727-2.10352.68359-2.00586A6.15083,6.15083,0,0,1,14.28125,1.147a12.201,12.201,0,0,0-5.39062.62891C3.95313,2.65869,2.252,3.62939.502,4.59814q-.95508,1.56738.61914,2.11914a33.53433,33.53433,0,0,0,10.05664.41406c3.05859-.15039,6.12109-1.25977,9.17969-1.32617A5.15276,5.15276,0,0,0,21.92383,4.2915a4.43358,4.43358,0,0,0-2.77539-.47656,27.90357,27.90357,0,0,1-10.60937.83984c-.9668-.08984-1.28906-.37891-1.13281-.69922q.86426-.31934,1.72852-.64062c2.41992.05664,4.748.02344,6.94531-.14062Z"/>
   <path class="a"
         d="M18.10156,2.78174A7.30961,7.30961,0,0,1,19.35742,4.145a9.11073,9.11073,0,0,0,4.07813.50781c.5957-.86914,1.46094-1.65234.31055-3.08594C23.19336.23877,22.01563-.01514,20.55664.21924c-1.14453.207-2.46484.05859-2.45508,2.5625Z"/>

</g>
</svg>
