<?xml version="1.0" encoding="UTF-8"?>
<svg xmlns="http://www.w3.org/2000/svg"
     version="1.1"
     width="52.33247143mm"
     height="44.33824678mm"
     viewBox="0.00000000 0.00000000 148.34401702 125.68315970">

<g transform="scale(5.59901992)">   <defs>
      <style type="text/css"><![CDATA[
      .a {
        stroke: #000;
        stroke-miterlimit: 2.61313;
        stroke-width: 0.28346px;
      }
    ]]></style>
   </defs>
   <path class="a"
         d="M17.36914.76074a11.833,11.833,0,0,0,2.45117-.0625C20.63672.02051,21.02539.085,21.35156.25488c-.71875,2.98633-3.36328,6.89063-8.332,11.90625Q9.835,15.32446,6.64844,18.49268q4.19531-.03223,8.39258-.0625a1.87551,1.87551,0,0,1,0,2.6582c-4.52734.834-9.04687,1.6543-12.25391.95117C.88477,22.48486.416,21.74463.15234,20.83643a13.51874,13.51874,0,0,1,3.86133-4.30664A172.37193,172.37193,0,0,0,17.36914.76074Z"/>
   <path class="a"
         d="M11.85547,16.84619q1.53223-2.02734,3.0625-4.05273c2.00391-.65576,3.84375-1.18311,4.53516-.82373q-.67383,1.48755-1.34766,2.97607-.95215,1.96289,1.77539,2.91406c3.01758.627,6.90234,1.16406,6.43359,2.15234a4.2695,4.2695,0,0,1-2.57227,1.77344c-3.752-.02734-7.50586-.03906-11.08984-1.26562-1.41211-1.10742-1.05273-2.39648-.79687-3.67383Z"/>
   <path class="a"
         d="M7.68945,4.87793c.32617-1.33008,1.26563-2.34375,3.55273-2.66016.71484-.31641,1.002-1.14062,2.14453-.94922q.6123,2.18262,1.22656,4.36914a1.12213,1.12213,0,0,1-.42969,1.457c-2.88086-.37109-5.25-1.00391-6.49414-2.2168Z"/>

</g>
</svg>
