<?xml version="1.0" encoding="UTF-8"?>
<svg xmlns="http://www.w3.org/2000/svg"
     version="1.1"
     width="24.02161435mm"
     height="20.74626751mm"
     viewBox="0.00000000 0.00000000 68.09277564 58.80832177">

<g transform="scale(4.31887292)">   <defs>
      <style type="text/css"><![CDATA[
      .a {
        stroke: #000;
        stroke-miterlimit: 10;
        stroke-width: 0.15px;
        fill-rule: evenodd;
      }
    ]]></style>
   </defs>
   <path class="a"
         d="M10.42014,11.793c-.5566.0634-1.1143.1308-1.6709.2187-.3096.0488-.5801.1758-.9082.2314-.33009.0547-.6045.1309-.9297.1807-1.7109.2637-3.2842.9229-5.0351,1.1113a1.7621,1.7621,0,0,1-1.629-1.2597,2.59292,2.59292,0,0,1,.2149-2.2901,8.38051,8.38051,0,0,1,.67281-.9531q1.021-1.267,2.14069-2.4307a34.90559,34.90559,0,0,1,4.2949-3.7587c.7637-.57521,1.56641-1.0694,2.3701-1.5743.4072-.2548.833-.4638,1.2471-.7041.2627-.1504.7656-.6093,1.1015-.4599.80571.3564.0645,1.5722-.32129,1.9023a7.251,7.251,0,0,1-.92771.6631,27.05689,27.05689,0,0,0-3.8359,3.1074c-1.2998,1.1641-3.5967,2.1182-3.8799,4.0528-.0518.35149-.0742.4668.2851.622a6.937,6.937,0,0,0,.8047.31349,8.12605,8.12605,0,0,0,2.5733-.00879c1.7676-.1396,3.5146-.4697,5.2861-.5703.7754-.04391,2.2861-.4394,2.9834-.124,1.3272.5996-.7578,1.0947-1.32909,1.2217A33.40792,33.40792,0,0,1,10.42014,11.793Z"/>

</g>
</svg>
