<?xml version="1.0" encoding="UTF-8"?>
<svg xmlns="http://www.w3.org/2000/svg"
     version="1.1"
     width="57.17501041mm"
     height="10.00376215mm"
     viewBox="0.00000000 0.00000000 162.07093205 28.35711493">

<g transform="scale(4.31887292)">   <defs>
      <style type="text/css"><![CDATA[
      .a {
        stroke: #000;
        stroke-miterlimit: 10;
        stroke-width: 0.15px;
        fill-rule: evenodd;
      }
    ]]></style>
   </defs>
   <path class="a"
         d="M30.72227,4.823c-1.1792-.01459-2.3554-.081-3.5371-.081-1.8154,0-3.6191.02341-5.4292.07711-.8232.0244-1.6157.17189-2.4482.17289-.9341.00091-1.855.05951-2.7823.08591-1.5092.043-3.0278-.002-4.5376-.002-.6792,0-1.3583.0039-2.0371,0a10.41843,10.41843,0,0,0-1.4707.1592c-.5063.0694-1.0185.0078-1.5249.1153a13.86,13.86,0,0,1-1.394.3955c-.2739.0263-.5635-.00791-.8394-.00391-.3071.00391-.3027.00581-.498-.18949-.3335-.333-.2378-.6504-.771-.6436-.5254.0069-1.0513,0-1.5767,0-.58,0-.8359.0059-1.1128-.50291-.2319-.42479-.8481-.81829-.6494-1.39449a.82558.82558,0,0,1,.439-.458c.1304-.0694.29-.0518.4228-.1172.1153-.0567.1343-.1592.2417-.2168a6.84023,6.84023,0,0,0,.858-.3711,4.3354,4.3354,0,0,1,.7373-.5547,4.96054,4.96054,0,0,1,1.3779-.0225q1.4055-.01455,2.8115-.0009c.5322.0049,1.0786-.0205,1.6089.0244A3.77979,3.77979,0,0,0,9.69057,1.158c.8452-.15039,1.7241-.16119,2.5757-.26759,1.5591-.1963,3.1181-.3652,4.6689-.6133.8916-.1416,1.772-.0674,2.6655-.1367,1.0103-.0781,2.0147-.0645,3.0279-.0645h3.9809c1.0508,0,2.1006.0879,3.1431.083a34.87418,34.87418,0,0,1,3.7549.2686c.6758.0684,1.3428.0986,2.0127.2109a4.10928,4.10928,0,0,1,1.52.3545c.727.4483.3052,1.8594.1235,2.49609-.1167.41121-.3388,2.36331-1.0322,2.26471.0498.5302-1.0464,1.122-1.2656.4072-.1011-.3311.3086-.4854.268-.791-.0542-.4053-.6474-.418-.9497-.3906-.9814.0888-1.9892-.15431-2.9858-.1534Q30.96032,4.82591,30.72227,4.823Z"/>

</g>
</svg>
