<?xml version="1.0" encoding="UTF-8"?>
<svg xmlns="http://www.w3.org/2000/svg"
     version="1.1"
     width="31.75909573mm"
     height="48.75693479mm"
     viewBox="0.00000000 0.00000000 90.02572538 138.20868117">

<g transform="scale(4.67561906)">   <defs>
      <style type="text/css"><![CDATA[
      .a {
        stroke: #000;
        stroke-linecap: round;
        stroke-linejoin: round;
        stroke-width: 0.01px;
      }
    ]]></style>
   </defs>
   <path class="a"
         d="M14.16006.06939a1.11414,1.11414,0,0,1-.37553.103.9039.9039,0,0,0-.51484.28468c-.46638.41187-.50878.45427-.60569.60569a1.831,1.831,0,0,1-.15142.20593,3.149,3.149,0,0,0-.424.642c.01817,0-.03635.12113-.12114.2665-.12114.20593-.14537.29679-.09691.38764a.20638.20638,0,0,1,.00605.18777.17772.17772,0,0,0,.05452.18776c.20593.23016.29678.38159.2665.46033a.76983.76983,0,0,0,.04846.3089,2.33588,2.33588,0,0,1,.13325.81162,2.13285,2.13285,0,0,0,.06662.41187,1.07992,1.07992,0,0,1,.03634.38159c-.01817.81768-.01211.91459.06057.957.11509.07268.13326.533.03029.73289-.0848.15748-.0848.18776.00606.32707a.24949.24949,0,0,1,.03028.3089.2789.2789,0,0,0-.01211.24834.46953.46953,0,0,1-.00606.30284.50964.50964,0,0,0-.01817.26045c.01817.03028-.01817.109-.0848.17565-.103.103-.109.15142-.06057.33313a.95115.95115,0,0,1,.01212.41187,4.21164,4.21164,0,0,0,.09085,1.67171.55154.55154,0,0,1,.03634.25439,6.6341,6.6341,0,0,1-.11508.848,1.19908,1.19908,0,0,0-.0424.27256,3.9007,3.9007,0,0,1-.08479.424,5.0691,5.0691,0,0,0,.03028,2.19866.28155.28155,0,0,1,.03634.19382,1.00585,1.00585,0,0,0-.06057.7026,1.21207,1.21207,0,0,1-.06057.4785.55471.55471,0,0,0-.03028.45426.56222.56222,0,0,1,.01211.38765c-.03634.12113-.0424.218-.01211.218.0848,0,.16959.33313.109.44216a.238.238,0,0,0,.00606.212.232.232,0,0,1,.00606.19988.40314.40314,0,0,0-.03634.212.54626.54626,0,0,1-.06057.27256.78853.78853,0,0,0-.07874.27256,3.25785,3.25785,0,0,1-.103.87825.78427.78427,0,0,0-.06057.26045c-.01211.103-.0424.3089-.06663.46033a.94407.94407,0,0,0,.02423.49061.69147.69147,0,0,1,.01212.44215,3.147,3.147,0,0,0-.03029,1.10842c.03634.103.01211.16959-.109.27861a1.101,1.101,0,0,0-.22411.33919c-.03634.103-.0848.18776-.109.18776s-.04846.12114-.05452.26651a1.57516,1.57516,0,0,1-.07268.424.935.935,0,0,0,.04846.75712.5713.5713,0,0,0,.50272.30284,1.30026,1.30026,0,0,1,.33313.05451c.50272.14537.36947.37553-.39976.69655a2.74283,2.74283,0,0,1-.90853.24833,4.74588,4.74588,0,0,0-.93882.20594c-.29679.103-.70866.23016-.90854.28467-.19988.06057-.43.1272-.51484.15748a2.35945,2.35945,0,0,1-1.00544-.01817.6907.6907,0,0,0-.4361.03028.4329.4329,0,0,1-.32708.03029.58265.58265,0,0,0-.30284-.01211.7041.7041,0,0,1-.3331-.02427.358.358,0,0,0-.22411-.01817,1.07648,1.07648,0,0,1-.3937-.00606,5.03866,5.03866,0,0,0-1.52028-.109,2.73113,2.73113,0,0,1-1.14476-.15143,2.06685,2.06685,0,0,1-.59357-.44215.83127.83127,0,0,0-.315-.19382.46273.46273,0,0,1-.22411-.09086.5108.5108,0,0,0-.5754.00606.85389.85389,0,0,1-.53907.15142c-.13931.00606-.424.12114-.424.18171,0,.02423-.05452.06663-.12114.0848-.09086.03028-.12114.09085-.12114.25439,0,.16959.06057.27862.27256.51484a1.73108,1.73108,0,0,1,.3089.44215c.0424.16354.30891.23622.55118.14537a.27722.27722,0,0,1,.32708.06662.68251.68251,0,0,0,.24833.12114.43747.43747,0,0,1,.20593.0848.98861.98861,0,0,0,.41187.11508,1.19966,1.19966,0,0,1,.79952.43.9034.9034,0,0,0,.32707.218,1.60093,1.60093,0,0,1,.4361.218.962.962,0,0,0,.83585.18776,1.0423,1.0423,0,0,1,.36947.02423,1.70609,1.70609,0,0,0,.424.07268,1.96,1.96,0,0,1,.56934.14537,1.679,1.679,0,0,0,.81769.109,3.13818,3.13818,0,0,1,.67231.03634c.07874.0424.29074.01212.69049-.103a3.76071,3.76071,0,0,1,.49667-.05451,1.8207,1.8207,0,0,0,.65415-.15142.80608.80608,0,0,1,.44215-.103.44483.44483,0,0,0,.27256-.03028.37175.37175,0,0,1,.29073.006c.14537.04846.22411.03635.50273-.11508a1.27682,1.27682,0,0,1,.35735-.14536.67117.67117,0,0,0,.26045-.07269,2.67538,2.67538,0,0,1,.99333-.23016,2.57674,2.57674,0,0,0,.90854-.1817c.11508-.04846.29679-.11508.40581-.15748a.69374.69374,0,0,0,.28468-.20594.648.648,0,0,1,.29073-.218c.109-.0424.3089-.12719.44821-.18776a1.09069,1.09069,0,0,1,.3513-.11508.62123.62123,0,0,0,.39976-.43.42216.42216,0,0,1,.12719-.23016.4999.4999,0,0,0,.14537-.27862c.02423-.16959.18171-.45426.26045-.45426a2.07,2.07,0,0,0,.38158-.30285,1.81527,1.81527,0,0,1,.45427-.33919.3712.3712,0,0,0,.20593-.1817c.04846-.07874.103-.14537.13326-.14537a2.38551,2.38551,0,0,0,.43-.93882c.07268-.4361.16353-.6905.27256-.72077.13325-.0424.321-.64809.30891-1.00545-.00606-.27862-.00606-.33313,0-.745a.67939.67939,0,0,0-.12114-.39976c-.103-.14536-.11508-.19382-.05451-.30284.07873-.15142.04846-.29073-.15142-.67232a1.95621,1.95621,0,0,1-.18171-.50272.35625.35625,0,0,0-.18776-.29679.37746.37746,0,0,1-.18171-.18171.45.45,0,0,0-.19988-.19988c-.19988-.09691-.26045-.218-.18171-.33918.19382-.3089-.26044-1.01756-.80557-1.25378a.914.914,0,0,1-.29678-.17565c0-.02423-.01817-.1696-.03029-.30891a.59763.59763,0,0,1,.06057-.40581,2.76475,2.76475,0,0,1,.79346-.5754.85891.85891,0,0,0,.24227-.218,4.13709,4.13709,0,0,1,1.09025-.745,2.37126,2.37126,0,0,0,.41792-.27256.84191.84191,0,0,1,.21805-.15748,1.37814,1.37814,0,0,0,.30285-.5633.328.328,0,0,1,.09691-.19382c.09085-.08479.09085-.109,0-.24227a.44919.44919,0,0,0-.321-.18171,2.66267,2.66267,0,0,1-.36947-.09691c-.11508-.0424-.22411-.01817-.52695.12719a2.46478,2.46478,0,0,0-.46638.26651,1.27759,1.27759,0,0,1-.24228.16353c-.0848.04846-.30285.1696-.48455.27256-.58147.34525-.87825.315-.92671-.09085a.57448.57448,0,0,0-.05451-.23016.62167.62167,0,0,1,.06662-.24834,1.0139,1.0139,0,0,0,.04846-.79951c-.07268-.13325-.06664-.19988.03027-.48455a1.04661,1.04661,0,0,0,.07269-.424,2.39165,2.39165,0,0,1,.01817-.87826c.03028-.212.07874-.77528.09085-1.06,0-.04845-.01211-.23016-.03028-.39369-.01211-.1696-.0424-.44216-.05452-.6057a8.64447,8.64447,0,0,1-.01816-1.30223,1.329,1.329,0,0,0-.05451-.636.561.561,0,0,1,0-.49666.33232.33232,0,0,0-.01817-.24228.23159.23159,0,0,1,0-.218c.0424-.06662.03029-.18776-.03634-.38158a.54623.54623,0,0,1,.03028-.55118c.09691-.22411.109-.29679.04846-.36947-.11508-.13326-.13325-.424-.07268-1.2235.04239-.62992.03634-.77528-.06663-.96911a.95022.95022,0,0,1-.06663-.65414.07323.07323,0,0,0-.04845-.109.97674.97674,0,0,1-.25439-.3089,2.243,2.243,0,0,0-.27862-.3937.239.239,0,0,1-.0848-.20593.43567.43567,0,0,0-.05451-.26651.64241.64241,0,0,1-.07874-.2241.51226.51226,0,0,0-.27862-.39976c-.06662-.01817-.1817-.04845-.24833-.06662A.45241.45241,0,0,0,14.16006.06939Zm1.12053,20.751a1.4797,1.4797,0,0,1,.3513.61175.328.328,0,0,0,.09691.19382.4799.4799,0,0,1,.12114.24833,2.1979,2.1979,0,0,0,.12114.44821c.09085.26045.09691.321.02422.46638a.85552.85552,0,0,0-.11508.321.782.782,0,0,1-.18776.26045c-.57541.62386-.72683.71471-.96911.58752a.4564.4564,0,0,0-.2665-.03634c-.18171.0424-.25439-.01817-.36947-.30891a1.02512,1.02512,0,0,1-.06663-.53906.75726.75726,0,0,0-.24833-.67837c-.0848-.09086-.00606-.315.109-.315.03634,0,.04846-.02423.03029-.04846a2.29913,2.29913,0,0,1,.33918-.92671.234.234,0,0,1,.18171-.01817.59942.59942,0,0,0,.49061-.2241c.12721-.13321.22413-.14533.35738-.04236Z"/>

</g>
</svg>
