<?xml version="1.0" encoding="UTF-8"?>
<svg xmlns="http://www.w3.org/2000/svg"
     version="1.1"
     width="32.06788265mm"
     height="26.89282053mm"
     viewBox="0.00000000 0.00000000 90.90115214 76.23155199">

<g transform="scale(5.59901992)">   <defs>
      <style type="text/css"><![CDATA[
      .a {
        stroke: #000;
        stroke-miterlimit: 2.61313;
        stroke-width: 0.28346px;
      }
    ]]></style>
   </defs>
   <path class="a"
         d="M9.21045,2.15332Q10.90382.3208,12.59522.7627c1.18164-.4165,2.375-.88525,3.38281-.44238q.542.75879-1.46875,1.51709a63.18568,63.18568,0,0,1-7.916,4.55127c-.44726.96874-.89258,1.51659-1.3418,1.64355-.24219,3.457,3.5918,3.4541,7.02344,3.793q1.11621.09522,2.23438.18945c-.21289.3584-.42578.71582-.63867,1.0752q-1.27734.09375-2.55273.18945c-5.82422.5957-8.7168-.25781-10.78906-1.51758-1.07227-1.877.25-3.456,1.91406-4.99365,1.35351-1.874,4.039-3.25245,6.76757-4.61475Z"/>

</g>
</svg>
