<?xml version="1.0" encoding="UTF-8"?>
<svg xmlns="http://www.w3.org/2000/svg"
     version="1.1"
     width="16.19469461mm"
     height="20.21767953mm"
     viewBox="0.00000000 0.00000000 45.90633067 57.30998185">

<g transform="scale(7.65684879)">   <defs>
      <style type="text/css"><![CDATA[
      .a {
        stroke: #000;
        stroke-miterlimit: 10;
        stroke-width: 0.15px;
      }
    ]]></style>
   </defs>
   <path class="a"
         d="M.56116,1.30732A3.70053,3.70053,0,0,0,.11109,3.1308C.05094,4.14446-.02142,5.36393.68616,5.90107c.55971.42488,1.12225.0545,1.5625.59375.203.24868.32393.62208.75.84375.15415.0802.22894.07846.28125.0625.28249-.08623.17862-.67.4375-.78125.28348-.12178.57152.508,1.0625.4375.28806-.04138.38058-.28572.75-.28125.21649.00261.32457.08821.375.03125.11141-.12587-.416-.544-.3125-1,.05483-.24153.22543-.2238.28125-.46875.06977-.30617-.17974-.40883-.34375-1A1.2558,1.2558,0,0,1,5.54335,3.387c.06907-.12291.10892-.1128.16831-.21127.249-.41289-.14818-1.09378-.36564-1.46655-.3725-.63854-.46987-.44228-.94111-1.18315C4.277.325,4.17435.13787,3.96741.08857a.633.633,0,0,0-.65035.248C3.2855.39968,3.27735.471,3.20722.5163a.30675.30675,0,0,1-.24148.015c-.37608-.101-.812-.31343-1.02958-.349C1.31027.08.65921,1.142.56116,1.30732Z"/>

</g>
</svg>
