<?xml version="1.0" encoding="UTF-8"?>
<svg xmlns="http://www.w3.org/2000/svg"
     version="1.1"
     width="34.12600915mm"
     height="52.20620362mm"
     viewBox="0.00000000 0.00000000 96.73512484 147.98609456">

<g transform="scale(5.42284362)">   <defs>
      <style type="text/css"><![CDATA[
      .a {
        stroke: #000;
        stroke-miterlimit: 10;
        stroke-width: 0.15px;
        fill-rule: evenodd;
      }
    ]]></style>
   </defs>
   <path class="a"
         d="M5.60716,2.15912c-.06451-.4697-.25-.85111-.87991-.8477a2.44209,2.44209,0,0,0-1.208.5254,7.053,7.053,0,0,0-1.2647.6944,4.84726,4.84726,0,0,0-.5908.9082,3.98876,3.98876,0,0,0-.6865,1.7509c-.0655.7115.00291,1.4654.00291,2.1812v7.687a10.90829,10.90829,0,0,1-.07231,2.5449c-.125.501-.4375.9239-.5634,1.4273a14.51727,14.51727,0,0,0-.087,5.103,4.4561,4.4561,0,0,0,.93171,2.0239,3.91188,3.91188,0,0,0,1.82519.875,3.90081,3.90081,0,0,0,3.0596-.2802,3.34453,3.34453,0,0,0,1.15621-2.9683c-.00591-2.1665.24219-4.398.09959-6.5566-.1162-1.77251.5088-3.6377.124-5.4014-.3095-1.419-.6582-2.8438-.88859-4.3003-.07621-.481-.30771-.9224-.33991-1.416a11.26835,11.26835,0,0,0-.1435-1.419c-.087-.4521-.2422-.8506-.3584-1.269A11.49985,11.49985,0,0,1,5.60716,2.15912Z"/>
   <path class="a"
         d="M15.47335,12.09662c-.7393.6543-1.5274,1.2441-2.2715,1.8936-1.1045.9633-2.3028,2.3696-3.7246,2.9917-.7285.3188-.9785-.146-1-.8101a4.43115,4.43115,0,0,1,1.834-3.9302A35.1803,35.1803,0,0,0,13.03,9.516a3.46417,3.46417,0,0,1,1.8555-.73829,5.704,5.704,0,0,1,.96971.0059c.49119,0,1.51269-.4438,1.82229.1231.499.9155-1.3125,2.3657-1.86329,2.88029Q15.6457,11.94451,15.47335,12.09662Z"/>
   <path class="a"
         d="M10.00455.82852c.3281.0396.6563.0669.9561.0977.97851.0991,2.792.0483,2.709,1.436-.0186.3096-.0997.6084-.1104.9199a5.21667,5.21667,0,0,1-.0039.8643c-.0879.4092-.3525.3574-.7334.3022a39.85949,39.85949,0,0,1-6.6357-1.4282,9.43117,9.43117,0,0,0-1.125-.103,2.12124,2.12124,0,0,1-1.2383-.5625,2.59772,2.59772,0,0,1-.5996-1.2681c-.0303-.3296.13181-.3213.3984-.435.3213-.1372.6406-.2212.94141-.357a3.0865,3.0865,0,0,1,1.46289-.206c.6465.0605,1.2676.2607,1.9229.3144a3.28767,3.28767,0,0,1,.8779.19A6.29983,6.29983,0,0,0,10.00455.82852Z"/>

</g>
</svg>
