<?xml version="1.0" encoding="UTF-8"?>
<svg xmlns="http://www.w3.org/2000/svg"
     version="1.1"
     width="20.28984333mm"
     height="22.41472419mm"
     viewBox="0.00000000 0.00000000 57.51447320 63.53778550">

<g transform="scale(4.33313116)">   <defs>
      <style type="text/css"><![CDATA[
      .a {
        stroke: #000;
        stroke-miterlimit: 10;
        stroke-width: 0.15px;
      }
    ]]></style>
   </defs>
   <path class="a"
         d="M7.63505,2.638A1.31214,1.31214,0,0,1,8.84015.34952a4.86526,4.86526,0,0,1,2.6855,1.9516,8.28465,8.28465,0,0,1,1.4903,6.5454c-.4981,1.982-1.208,3.6802-3.14059,4.6035a1.57189,1.57189,0,0,1-2.16121-.9116c-.4433-1.0537.252-1.4453.86821-2.1943,1.09569-1.32721,2.39739-3.628,1.45019-5.353A6.75747,6.75747,0,0,0,8.931,3.47052,13.76441,13.76441,0,0,0,7.63505,2.638Z"/>
   <path class="a"
         d="M.84115,3.69612A7.4785,7.4785,0,0,1,2.808,1.30452a4.75016,4.75016,0,0,1,2.5742-1.229c.7314.0196,1.4824.6675.9424,1.4795a3.639,3.639,0,0,1-1.6241,1.127,1.50519,1.50519,0,0,0-1.0322,1.56689c.003.853-.0742,1.74071,0,2.58981a1.32513,1.32513,0,0,0,.28811.7271,2.4383,2.4383,0,0,0,.46389.26609c.1982.12591.292.289.4746.42621.3066.2295.68551.3526.956.5791.1651.13769.6983.5689.6602.8125.2031.0469.457.3956.5977.53719a2.82139,2.82139,0,0,0,.789.59171,1.26385,1.26385,0,0,1,.51561.3062c.29889.28609.35939.3799.04789.6914A8.91222,8.91222,0,0,1,5.74836,13.245c-.10161.0463-.07131.1425-.17771.1982-.1221.064-.2744.0601-.3838.15769-.1983.17871-.2862.49811-.458.71241-.1973.24459-.169.272-.4912.2749a1.2443,1.2443,0,0,1-.8174-.416,8.17025,8.17025,0,0,0-1.42289-.8354,3.38,3.38,0,0,1-1.22071-2.0914c-.1582-.7197-.2861-1.436-.459-2.1562A7.92269,7.92269,0,0,1,.84115,3.69612Z"/>

</g>
</svg>
