<?xml version="1.0" encoding="UTF-8"?>
<svg xmlns="http://www.w3.org/2000/svg"
     version="1.1"
     width="23.90660041mm"
     height="26.90661185mm"
     viewBox="0.00000000 0.00000000 67.76677598 76.27064971">

<g transform="scale(4.19054538)">   <defs>
      <style type="text/css"><![CDATA[
      .a {
        stroke: #000;
        stroke-miterlimit: 10;
        stroke-width: 0.15px;
        fill-rule: evenodd;
      }
    ]]></style>
   </defs>
   <path class="a"
         d="M6.61239,1.177C7.881.37038,9.27939-.257,9.963.2679c1.2598.9672-.46779,2.9282-1.1347,3.60348C7.7452,4.9666,6.73159,5.534,6.16029,7.0706a3.18111,3.18111,0,0,0-.3975,1.0517,6.23268,6.23268,0,0,0-.0019,1.4083c.3906,3.8125,3.44531,3.3095,6.3447,3.9121a7.94126,7.94126,0,0,1,3.0742,1.09268c.749.65342,1.2949,1.939.5889,2.73252a2.61041,2.61041,0,0,1-2.64449.76948C10.79209,17.4681,8.50209,16.8133,6.13389,16.408c-1.8183-.311-4.0429-.5718-5.4092-1.9458-1.3359-1.34382-.2343-2.895-.0078-4.3716.4844-3.1567,1.1514-5.0171,3.5908-7.1855A19.895,19.895,0,0,1,6.61239,1.177Z"/>
   <path class="a"
         d="M13.74129,8.57938V7.5901c0-1.80272.3301-6.2925-1.5966-7.1924-1.4746-.6889-1.7598.5674-1.85549,1.6656-.09961,1.1772-.44241,2.3183-.55271,3.4633-.11629,1.2232.0146,2.5284.0146,3.7574,0,1.6865-.7256,4.9609.7607,6.2485,1.0723.9331,3.5782.7295,3.6055-.86912.0166-.96-.376-2.08108-.376-3.11918Z"/>

</g>
</svg>
