<?xml version="1.0" encoding="UTF-8"?>
<svg xmlns="http://www.w3.org/2000/svg"
     version="1.1"
     width="13.99802059mm"
     height="28.21952348mm"
     viewBox="0.00000000 0.00000000 39.67949602 79.99233833">

<g transform="scale(6.75785620)">   <defs>
      <style type="text/css"><![CDATA[
      .a {
        stroke: #000;
        stroke-miterlimit: 10;
        stroke-width: 0.15px;
      }
    ]]></style>
   </defs>
   <path class="a"
         d="M.733,1.97305a.9693.9693,0,0,0-.36921.66148.7365.7365,0,0,0,.12532.39111,31.39587,31.39587,0,0,1,1.704,3.21365.47212.47212,0,0,1,.06219.30861c-.06609.2482-.42414.222-.6543.336a.99147.99147,0,0,0-.41251.62721l-.99455,3.008a1.19934,1.19934,0,0,0-.0657.836.79991.79991,0,0,0,.89316.38937,2.05578,2.05578,0,0,0,.90149-.52278,11.3485,11.3485,0,0,0,3.86638-8.038A5.39081,5.39081,0,0,0,5.49341.97946a1.4851,1.4851,0,0,0-.8416-.86323C4.42341.03929,4.17134.0414,3.3181.37731A9.41187,9.41187,0,0,0,.733,1.97305Z"/>

</g>
</svg>
