<?xml version="1.0" encoding="UTF-8"?>
<svg xmlns="http://www.w3.org/2000/svg"
     version="1.1"
     width="39.04950936mm"
     height="15.97528500mm"
     viewBox="0.00000000 0.00000000 110.69152619 45.28421470">

<g transform="scale(5.68388048)">   <defs>
      <style type="text/css"><![CDATA[
      .a {
        stroke: #000;
        stroke-miterlimit: 10;
        stroke-width: 0.15px;
      }
    ]]></style>
   </defs>
   <path class="a"
         d="M5.98221,1.17066a3.48162,3.48162,0,0,0-.6875-.3125A1.20129,1.20129,0,0,0,4.451.76441c-.25828.11106-.21141.314-.53125.59375-.28691.251-.7295.44188-.875.3125-.16145-.14358.19109-.55758-.03125-.9375a.87717.87717,0,0,0-.375-.3125A1.21093,1.21093,0,0,0,1.79471.26441C1.58137.32,1.51064.43362,1.201.73316.45485,1.45486.0526,1.58129.076,1.92066a.64424.64424,0,0,0,.15625.34375c.24142.30618.6005.275.625.4375.02575.1707-.35958.27729-.34375.46875.01205.1456.25081.27619.46875.3125.50956.08488.73371-.3742,1.375-.34375a1.21341,1.21341,0,0,1,.4375.09375c.3489.14947.40621.3836.625.46875.16914.06583.45042.04872.9375-.34375a.69352.69352,0,0,1,.03125-.34375c.05655-.15507.21021-.39347.4375-.40625a.59124.59124,0,0,1,.4375.25c.11641.14927.08817.24785.21875.34375.08461.06214.22925.11828.3125.0625.09557-.064.0302-.22193.125-.28125.07771-.04862.20606.00464.28125.0625.13342.10266.13089.244.1875.375.12394.28683.47506.39422.71875.46875.35585.10884.94859.15858,1.15625-.125.04817-.06578.03688-.09659.09375-.15625.19544-.205.593-.11831.71875-.09375a4.41528,4.41528,0,0,0,2.125-.15625c.001-.03789-.50555.006-.75-.3125a.39262.39262,0,0,1-.09375-.28125.47586.47586,0,0,1,.40625-.34375.75351.75351,0,0,1,.59375.25c.173.1703.14152.27623.28125.34375.15837.07653.26973-.02527.5625-.0625.336-.04271.41222.063.75.0625a1.81238,1.81238,0,0,0,.78125-.1875.37543.37543,0,0,1,.09375-.3125c.1156-.09418.27535-.00825.53125.03125.56382.087.8362-.16841,1,0,.10924.11231-.00167.23643.0625.46875.10741.38886.532.45336,1,.8125a2.1094,2.1094,0,0,1,.78125.96875c.16671.52206-.14119.69554-.09375,1.78125a1.87442,1.87442,0,0,0,.20259.81042.851.851,0,0,0,.45366.47083A.63475.63475,0,0,0,18.22,7.83894a.84471.84471,0,0,0,.38782-.61951c.11812-.57507-.21277-.93521-.03189-1.11127.14675-.14283.41069.04927.56082-.11384.11877-.129.00123-.301.09543-.66741.06059-.23564.12427-.22314.15625-.375.09713-.46117-.46822-.6809-.5625-1.3125-.05776-.38695.13984-.40227.09375-.8125-.04544-.40448-.25938-.58085-.71875-1.1875-.76254-1.007-.66417-1.17375-1.03125-1.375a1.91823,1.91823,0,0,0-1.5-.0625c-.18774.07557-.205.12381-.90625.6875-.8475.68125-1.02465.77344-1.1875.71875C13.275,1.5071,13.3067.9911,13.01346.95191c-.20114-.02688-.24825.19187-.53125.28125-.52306.16522-.85564-.42616-1.375-.28125-.32847.09165-.34812.37081-.6875.40625a.9665.9665,0,0,1-.625-.21875C8.72483.4745,7.114,1.81126,5.98221,1.17066Z"/>

</g>
</svg>
