<?xml version="1.0" encoding="UTF-8"?>
<svg xmlns="http://www.w3.org/2000/svg"
     version="1.1"
     width="73.79853328mm"
     height="49.44641176mm"
     viewBox="0.00000000 0.00000000 209.19258618 140.16310282">

<g transform="scale(7.86945963)">   <defs>
      <style type="text/css"><![CDATA[
      .a {
        stroke: #000;
        stroke-miterlimit: 10;
        stroke-width: 0.15px;
      }
    ]]></style>
   </defs>
   <path class="a"
         d="M1.80229,7.83415a1.67414,1.67414,0,0,0-.51889.49643A6.54361,6.54361,0,0,0,.548,9.67559c-.4139.838-.5051.86613-.46408.98719.12727.37559,1.08859.35075,3.63325.19265a37.02978,37.02978,0,0,0,5.61207-.50293,1.66228,1.66228,0,0,1,1.15389-.17792,1.33351,1.33351,0,0,1,.85106.766,1.39838,1.39838,0,0,1-.21089,1.2349c-.25728.38143-.4991.35691-.76783.63745-.51922.542-.157,1.19779-.34043,2.12765-.31052,1.57414-1.85552,2.26467-1.621,2.65825.15419.25878.89308.0794,1.05419.04029a5.66595,5.66595,0,0,0,3.09805-2.514A10.57067,10.57067,0,0,0,14.15365,10.829a1.59547,1.59547,0,0,1,.41485-.92492,1.55551,1.55551,0,0,1,.68286-.28084,56.95423,56.95423,0,0,1,7.6859-1.23238c.1734-.01574.59628-.09034.81922.14618.21553.22863.05478.53947.25857.74392.25048.2513.794.08337,1.06383,0,.41745-.129,1.24739-.3854,1.40426-1.10638a1.42064,1.42064,0,0,0-.34043-1.14894A2.009,2.009,0,0,0,24.73846,6.515c-.851-.0672-1.23941.21881-1.58622-.06907-.23631-.19616-.1503-.40726-.37123-.61178-.43325-.40107-1.31635-.10061-1.55689-.02314a41.22275,41.22275,0,0,1-6.33844,1.08568,7.35357,7.35357,0,0,1,.82773-2.97186A7.4268,7.4268,0,0,0,16.146,1.52659a2.05153,2.05153,0,0,0-.15821-.94376.85378.85378,0,0,0-.75888-.50706c-.73426.03634-.8604,1.121-1.459,1.54786-.22606.16119-.52458.22787-.69686.4456a1.174,1.174,0,0,0-.18987.5539l-.47008,2.89032a2.823,2.823,0,0,1-.7392,1.62333c-.50428.49816-1.10257.51641-3.61637.48461-1.73059-.0219-3.484.36759-5.19148.0851A1.628,1.628,0,0,0,1.80229,7.83415Z"/>

</g>
</svg>
