<?xml version="1.0" encoding="UTF-8"?>
<svg xmlns="http://www.w3.org/2000/svg"
     version="1.1"
     width="52.84432010mm"
     height="51.85545858mm"
     viewBox="0.00000000 0.00000000 149.79488979 146.99186893">

<g transform="scale(4.27394008)">   <defs>
      <style type="text/css"><![CDATA[
      .a {
        stroke: #000;
        stroke-miterlimit: 10;
        stroke-width: 0.15px;
      }
    ]]></style>
   </defs>
   <path class="a"
         d="M25.42116,3.022c.61845,2.04031,2.6221,2.29583,2.83569,4.237a5.5289,5.5289,0,0,1-2.60258,4.66853c-.37742.19931-1.44373.65888-1.59574,1.5-.045.24915.008.433-.13775.63062-.274.37155-.843.23178-1.55375.29491a5.86612,5.86612,0,0,0-2.44854.93138c-.969.54733-1.55414,1.1466-1.828.9516a.35553.35553,0,0,1-.116-.27256,6.25554,6.25554,0,0,0-2.04088.80176,6.52252,6.52252,0,0,0-1.1942.9708c-2.02767,1.8646-5.19251,2.29171-6.89362,2.52128-4.6618.62912-7.51228-.471-7.75695.284-.13785.42534.75971,1.1357,2.55482,2.55639a3.83381,3.83381,0,0,0,1.22791.68548,3.69637,3.69637,0,0,0,1.22953.17621c3.29752-.04131,4.07412.49721,6.9887.11746,1.70082-.2216,3.24832-.64107,3.80384-.01652a1.1539,1.1539,0,0,1,.35186.88806c-.04126.21-.16692.273-.25583.48414a1.4659,1.4659,0,0,0,.12208,1.112c.56939,1.38579-.2604,2.67954.47872,3.47872.75982.82156,2.067-.08046,2.7937.74765.63328.72165-.07619,1.72938.58928,2.60342a2.63564,2.63564,0,0,0,1.94681.79787c2.86735.25577,13.06453.312,13.05319-1.02127-.00649-.76213-3.34459-1.51184-5.42554-1.6915-.3763-.03249-2.01422-.1588-4.12627-.24611-1.81481-.075-2.13894-.04515-2.60777-.36027-1.14657-.7707-.81727-2.03118-1.94681-3.54256-.11085-.14833-.5253-.68651-.35106-1.02127.06807-.13078.17093-.12474.27512-.26071.20349-.26561.09287-.65654-.05171-1.17546-.11577-.41553-.2319-.83629-.41208-1.492,3.13158.20829,4.34483-.32387,4.84711-.89936.14685-.16826.65274-.82122,1.30964-.80014.31337.01006.42331.16588.68665.22615.79707.18245,1.6682-.81506,2.17578-1.3963a9.46541,9.46541,0,0,0,1.79715-3.4575,2.89,2.89,0,0,0,.25533-1.72342,2.65282,2.65282,0,0,0-.93984-1.38823,5.59157,5.59157,0,0,0-2.42162-.939,1.73024,1.73024,0,0,0-1.07293-.05251c-.59409.236-.60155,1.24387-.61452,1.55548-.03345.80373.24667.99976.22975,1.74981a3.69173,3.69173,0,0,1-.43817,1.54153c-.22649.40459-.637.86507-3.264,1.77762a28.57347,28.57347,0,0,1-5.04254,1.24467c-1.03356.18868-1.61693.25928-1.6931.07624-.04538-.10906.059-.38085,1.3295-1.19545,3.1472-2.01787,5.64685-2.36341,9.0319-4.121,2.71381-1.40906,3.66492-2.515,4.21416-3.37436A7.04315,7.04315,0,0,0,31.75793,9.673a9.25022,9.25022,0,0,0-.86454-5.841C30.326,2.69951,28.30238-.501,26.73225.16535A2.48778,2.48778,0,0,0,25.42116,3.022Z"/>

</g>
</svg>
