<?xml version="1.0" encoding="UTF-8"?>
<svg xmlns="http://www.w3.org/2000/svg"
     version="1.1"
     width="62.67138084mm"
     height="62.92986539mm"
     viewBox="0.00000000 0.00000000 177.65113653 178.38391970">

<g transform="scale(4.31887292)">   <defs>
      <style type="text/css"><![CDATA[
      .a {
        stroke: #000;
        stroke-miterlimit: 10;
        stroke-width: 0.15px;
        fill-rule: evenodd;
      }
    ]]></style>
   </defs>
   <path class="a"
         d="M26.24868,38.28894a20.96538,20.96538,0,0,0,11.0351-3.1313c.5664-.36822,1.1133-.7647,1.6495-1.1714.2373-.1822.4589-.38582.6943-.57182.207-.16508.42581-.31788.6357-.48048.1768-.1357.7744-.4346.795.0117.0126.2613-.2784.482-.4385.6509-.2129.2227-.2207.481-.35939.7461a6.73455,6.73455,0,0,1-1.00981,1.3989A14.69409,14.69409,0,0,1,34.07,39.263c-.5694.2442-1.1494.46538-1.7364.668-1.03319.3569-2.0869.6543-3.1494.9141a12.75258,12.75258,0,0,1-4.8711.2631,20.69426,20.69426,0,0,1-5.8105-1.1904c-1.5645-.6577-2.5293-1.6133-2.5293-3.3935,0-.3292-.2598-.649-.3457-.9864a4.03837,4.03837,0,0,1-.0928-1.541,6.03238,6.03238,0,0,0,.2363-1.2998,3.14249,3.14249,0,0,1,.3077-1.9336,1.86639,1.86639,0,0,1,1.4658-.7583,2.94986,2.94986,0,0,1,1.3642.3955.99913.99913,0,0,1,.4561.8814c-.1191,2.5039-.0977,4.2226,1.9766,5.8916C22.51328,38.117,24.45768,38.328,26.24868,38.28894Z"/>
   <path class="a"
         d="M1.985,32.117c.169.1016.5537.4517.6748.4517a2.89324,2.89324,0,0,1,.292.498c.1445.28568.1377.5762.2871.8535a8.13655,8.13655,0,0,0,.5899.7164,5.65526,5.65526,0,0,0,.5888.7714,5.40487,5.40487,0,0,0,1.59181,1.0791,12.98843,12.98843,0,0,0,3.73339.9747c1.4278.1953,2.3662-.4761,3.6797-.8936,1.4463-.4595,2.332.2627,1.2832,1.6235-1.1924,1.5469-3.6006,2.0796-5.40229,2.49268-2.27541.52152-4.20411-.47018-5.99811-1.79928a8.598,8.598,0,0,1-3.1601-4.5293,1.704,1.704,0,0,1-.0596-.6733,5.619,5.619,0,0,1,.2021-.6255c.0508-.231.0264-.604.3506-.7183a2.97169,2.97169,0,0,1,1.291-.2471A.20387.20387,0,0,1,1.985,32.117Z"/>
   <path class="a"
         d="M15.03478,1.63954a2.91862,2.91862,0,0,1-.3525,1.9043c-1.0781,2.2661-2.1133,4.5508-3.2481,6.7949-1.7314,3.4268-3.1054,6.9912-5.0693,10.3325-.4561.7783-.9072,1.563-1.3984,2.3281-.4786.7486-1.08009,1.4322-1.5665,2.1705-.51559.7827-1.872.1269-2.3398-.4478-.3809-.4697.3897-1.4414.6289-1.8769,1.1055-2.0152,2.1875-4.0435,3.2842-6.0645a26.02592,26.02592,0,0,1,1.6426-2.981,2.38176,2.38176,0,0,0,.6484-1.1211,4.132,4.132,0,0,1,.459-1.2309c.208-.4717.33011-.9546.5439-1.4233a9.50526,9.50526,0,0,0,.61921-1.4327c.13379-.4878.32809-.978.48339-1.4795.22461-.7246.5195-1.4599.7119-2.1909a7.7132,7.7132,0,0,1,.8623-2.269,10.93348,10.93348,0,0,1,1.4189-1.9517c.3077-.2998.4434-.5888.8887-.61812a.95407.95407,0,0,1,.9697.38082,4.098,4.098,0,0,1,.7686,1.0601A.97856.97856,0,0,1,15.03478,1.63954Z"/>
   <path class="a"
         d="M30.31608,3.50424c-.001.0215-.0039.044-.0049.0625a2.8222,2.8222,0,0,1-.2256.6514c-.1045.2817-.1689.5752-.2744.8574a8.72778,8.72778,0,0,1-.7725,2.104,4.00252,4.00252,0,0,0-.5752,1.2373c-.1035.4068-.3847.709-.5049,1.106-.0908.3032-.19719.6182-.3007.9292a6.05214,6.05214,0,0,1-.3936,1.189c-.331.5527-.4746,1.1938-.75,1.7739-.2695.5708-.4492,1.14548-.6816,1.729-.2676.6738-.6319,1.251-.8555,1.9297a14.61038,14.61038,0,0,1-1.0195,2.2104c-.1739.3306-.3028.689-.4834,1.0112a6.27109,6.27109,0,0,1-.50689.8619c-.21091.2568-.458.48428-.65721.7548-.1123.1529-.13179.3853-.3701.335-.5215-.1094.06931-1.2627.1631-1.5444q.38085-1.14255.78221-2.2769a93.51475,93.51475,0,0,1,4.71-11.2988c.33979-.6665.61129-1.3662.89549-2.0591.1396-.3447.2832-.6894.43751-1.0278a3.37067,3.37067,0,0,0,.125-.378,1.51972,1.51972,0,0,1,.44529-.6259.89537.89537,0,0,1,.6533-.06162C30.31508,3.05654,30.32878,3.31974,30.31608,3.50424Z"/>
   <path class="a"
         d="M15.49278,21.45694a9.61412,9.61412,0,0,1-5.8379-3.8736,1.86613,1.86613,0,0,1-.4306-.9355c-.0147-.2769-.1045-.67242.08-.89942.1202.18012.5284.23682.7276.41452a6.2977,6.2977,0,0,0,.6474.6138c.1905.1265.4034.1636.5967.2778.2608.1548.4668.397.73241.5513a48.063,48.063,0,0,0,4.36819,2.2412,7.23334,7.23334,0,0,0,4.3701.1196c.3155-.0854.6416-.2954.96-.40622.459-.16018,1.0596-.166,1.4209-.51078a1.51382,1.51382,0,0,1-.2774,1.2906c-1.2695,1.4341-4.21579,1.4897-5.9433,1.3413A10.18516,10.18516,0,0,1,15.49278,21.45694Z"/>

</g>
</svg>
