<?xml version="1.0" encoding="UTF-8"?>
<svg xmlns="http://www.w3.org/2000/svg"
     version="1.1"
     width="21.52087341mm"
     height="62.49409562mm"
     viewBox="0.00000000 0.00000000 61.00404890 177.14860769">

<g transform="scale(5.42051992)">   <defs>
      <style type="text/css"><![CDATA[
      .a {
        stroke: #000;
        stroke-miterlimit: 10;
        stroke-width: 0.15px;
      }
    ]]></style>
   </defs>
   <path class="a"
         d="M8.39072.80895c-2.041-1.82809-4.9014.05761-5.1983,2.38481-.4521,3.5644.21682,7.8066.21682,11.4868a16.39815,16.39815,0,0,0,.31638,3.6045,17.34882,17.34882,0,0,1,.0508,3.6523c0,1.5361.167,2.9609.167,4.4912a35.69539,35.69539,0,0,0,.3291,4.1709c.0469.4019.0655,1.4829.376,1.79149.75.74761,1.6318-.64159,1.6279-1.29539-.0097-1.5434,0-3.0869,0-4.6299a51.65691,51.65691,0,0,0-.3418-5.1626c-.1006-1.0024.09962-2.0405.0127-3.0454a15.81041,15.81041,0,0,1-.498-2.644,17.50821,17.50821,0,0,0,.1015-2.6216c-.1211-2.0234-.3769-4.0376-.4052-6.0664-.0225-1.5879-.0762-2.9824,1.499-3.7432,1.2392-.5981,2.791-.0942,1.7461-2.37351"/>
   <path class="a"
         d="M8.61824,21.92466a30.48591,30.48591,0,0,0-5.373,3.8618c-.60262.4961-1.56842,1.9942-2.169,2.1748-1.88382.5708-.65432-1.0317.01858-1.75731,2.7461-2.95019,5.7988-5.313,8.2285-8.55959,1.3965-1.8681,2.13092-.8476,1.7607,1.3184A3.81926,3.81926,0,0,1,8.61824,21.92466Z"/>

</g>
</svg>
