<?xml version="1.0" encoding="UTF-8"?>
<svg xmlns="http://www.w3.org/2000/svg"
     version="1.1"
     width="19.26399325mm"
     height="45.54938543mm"
     viewBox="0.00000000 0.00000000 54.60654283 129.11634452">

<g transform="scale(5.26144544)">   <defs>
      <style type="text/css"><![CDATA[
      .a {
        stroke: #000;
        stroke-miterlimit: 10;
        stroke-width: 0.15px;
      }
    ]]></style>
   </defs>
   <path class="a"
         d="M1.02577,2.53815C.61507,3.18753.68253,4.02663.81743,5.70482a7.29622,7.29622,0,0,0,.25,1.75,3.10223,3.10223,0,0,1,.39733,1.64806A2.05749,2.05749,0,0,1,1.206,9.739a5.08715,5.08715,0,0,0-.43018,2.21582C.6303,14.691-.41823,24.05435.3591,24.16315a.54726.54726,0,0,0,.24776-.08342c.36589-.20432.32045-.60637.50224-.74991.44052-.34782,1.63765,1.27864,2.875,1.125.85369-.106,1.46982-1.02748,1.70833-1.625.41694-1.04448-.14232-1.54411.08348-2.85005a5.20721,5.20721,0,0,1,1.30225-2.51665l2.498-3.18066c.47915-.61009.97883-1.4335.58578-2.1023-.07088-.12062-.11812-.16079-.15987-.17189-.35149-.09341-.91479,1.0529-1.22629,1.61322-1.02215,1.8386-2.90436,3.79143-3.56857,3.50913-.37664-.16007-.30356-1.31978-.15743-3.63921a15.99637,15.99637,0,0,1,.351-3.16159c.44905-1.51889.941-1.4899,2.04166-3.95833.75462-1.69238.81169-2.35261.663-2.94482-.12452-.496-.276-.47667-.70091-1.58254C6.9739.72345,6.96611.27861,6.6091.12149c-.41253-.18155-.88191.20128-1.5.58333C2.75216,2.16172,1.708,1.45944,1.02577,2.53815Z"/>

</g>
</svg>
