<?xml version="1.0" encoding="UTF-8"?>
<svg xmlns="http://www.w3.org/2000/svg"
     version="1.1"
     width="13.63716083mm"
     height="52.10355519mm"
     viewBox="0.00000000 0.00000000 38.65654620 147.69507441">

<g transform="scale(5.42051992)">   <defs>
      <style type="text/css"><![CDATA[
      .a {
        stroke: #000;
        stroke-miterlimit: 10;
        stroke-width: 0.15px;
      }
    ]]></style>
   </defs>
   <path class="a"
         d="M1.496.90157c.4605-.914,1.8657-.8393,2.7363-.8134a2.49376,2.49376,0,0,1,2.5103,1.4306,12.1426,12.1426,0,0,1,.2578,4.2241c0,2.5552.2378,5.1294-.5088,7.5542a5.46514,5.46514,0,0,0-.1577,1.7373,7.60264,7.60264,0,0,1-.3413,1.584c-.1973,1.2539.03421,2.5777-.1509,3.833-.0933.6309-.4126,1.1704-.4707,1.8374a5.71933,5.71933,0,0,1-.1904,1.45019,11.29406,11.29406,0,0,1-1.6592,3.33651,11.31884,11.31884,0,0,1,.271-3.52251c.1533-1.21579.2505-2.42679.4531-3.64059a48.83159,48.83159,0,0,0,.4219-8.2193c-.0064-2.1313.6582-4.1054.8418-6.208.0371-.4277.1211-1.3247-.1636-1.625-.3769-.3979-1.3882-.3032-1.8823-.2837-.8657.0347-.8027.14359-.7959.99659.0063.77741,0,1.55521,0,2.33251v4.6704c0,1.8252.8179,6.3155-1.3203,7.20809C.33931,18.35667.33,16.73607.33391,15.85037a50.134,50.134,0,0,0-.1294-5.3101,8.18966,8.18966,0,0,1,.0752-3.2725,17.24159,17.24159,0,0,0,1.0952-2.354C1.70351,3.64477.90471,2.07587,1.496.90157Z"/>

</g>
</svg>
