<?xml version="1.0" encoding="UTF-8"?>
<svg xmlns="http://www.w3.org/2000/svg"
     version="1.1"
     width="74.71062204mm"
     height="13.46583511mm"
     viewBox="0.00000000 0.00000000 211.77806716 38.17091279">

<g transform="scale(6.14690259)">   <defs>
      <style type="text/css"><![CDATA[
      .a {
        stroke: #000;
        stroke-miterlimit: 10;
        stroke-width: 0.15px;
      }
    ]]></style>
   </defs>
   <path class="a"
         d="M1.30319,4.99771c-.927.62614-1.26956.828-1.22426.97952.056.1874.66613.17553,1.22426.12687A24.51086,24.51086,0,0,0,4.87765,5.636,20.12678,20.12678,0,0,1,9.0558,5.35939c2.45693-.10391,14.797-.73371,15.64856-.77595a34.87245,34.87245,0,0,1,4.2584.15895c1.43783.15975,2.39812.70468,3.6431.46881a2.79712,2.79712,0,0,0,1.12094-.50306c.12632-.09508.7424-.55884.63947-.89369-.07329-.23846-.44615-.19975-.977-.49369-.39926-.22108-1.21577-.88968-1.50665-.99649a12.11883,12.11883,0,0,0-4.52578-.54909c-1.62186.00073-2.82507.02747-2.8419.02784-4.79939.10667-4.47738.07779-4.74485.09986a62.40908,62.40908,0,0,1-7.41742.61176,5.79386,5.79386,0,0,1-1.7729-.24033C9.19908,1.83814,9.07241,1.15226,7.64422.5559a3.65979,3.65979,0,0,0-2.797-.30776A2.82075,2.82075,0,0,0,3.34574,1.67857c-.34841.85662.11877,1.19593-.25532,1.91489C3.00039,3.76649,2.874,3.93671,1.30319,4.99771Z"/>

</g>
</svg>
