<?xml version="1.0" encoding="UTF-8"?>
<svg xmlns="http://www.w3.org/2000/svg"
     version="1.1"
     width="50.75362536mm"
     height="46.78284146mm"
     viewBox="0.00000000 0.00000000 143.86856453 132.61279319">

<g transform="scale(7.54256607)">   <defs>
      <style type="text/css"><![CDATA[
      .a {
        stroke: #000;
        stroke-miterlimit: 10;
        stroke-width: 0.15px;
      }
    ]]></style>
   </defs>
   <path class="a"
         d="M2.82472,11.16037a8.43412,8.43412,0,0,1-.52365.91725c-.16944.2571-.22933.30217-.30613.44445a2.83,2.83,0,0,0-.31642,1.31984c-.06433,2.52141-.14222,3.38025.19271,3.4749.33236.09391.77857-.65027,1.145-.47559.181.08628.22979.343.40426.34043.043-.00063.13881-.01761.25532-.19149a8.71912,8.71912,0,0,0,.70213-2.51064,7.97089,7.97089,0,0,1,.40426-1.78723A10.32456,10.32456,0,0,1,5.463,11.288c.42536-.72877.50915-.6592.617-1.02127A2.52874,2.52874,0,0,1,6.532,9.39895a.17438.17438,0,0,1,.13633-.06528c.08015.01176.12445.12458.14018.16463.24621.627-.473,2.279-.47309,2.27909A12.06327,12.06327,0,0,0,5.63323,13.437a7.56862,7.56862,0,0,0-.22837,1.29672,10.83634,10.83634,0,0,0,.03689,1.916.86048.86048,0,0,0,.21276.59575.99149.99149,0,0,0,.48277.21156,1.19513,1.19513,0,0,0,.49118.03667,1.02373,1.02373,0,0,0,.64307-.5461c.65692-1.06774,1.37508-4.33685,2.59575-6.48937A19.91866,19.91866,0,0,0,11.56941,7.5008a15.66189,15.66189,0,0,0,.57447-1.70213,9.404,9.404,0,0,0,.34042-1.65958c.08129-.79491.12988-1.33983-.19149-1.617-.30823-.26583-.62366.0019-.88973-.261-.31929-.31551.01958-.815-.323-1.69642-.17727-.456-.33184-.48657-.383-.48936C10.5488.06716,10.42881.24638,10.3992.288,9.972.889,8.21337,1.18913,7.33537,1.88378c-1.19775.94761-.26426,2.23966-1.81473,5.03342-.14878.26808-.36475.6072-.79669,1.28544C3.653,9.8842,3.20221,10.4124,2.82472,11.16037Z"/>
   <path class="a"
         d="M5.88856,14.69229c-1.34093-.3459-1.45678-.43764-2.234-.617a2.45962,2.45962,0,0,0-1.80851,0,3.27638,3.27638,0,0,0-.53191.40425c-.33569.32047-.30554.444-.57447.6383-.32863.23738-.53886.17219-.6383.383-.05231.11087-.02068.25122.04256.53191.0906.4021.13793.61219.31914.74468.11885.08689.16871.04788.42554.17022a2.13876,2.13876,0,0,1,.383.234c.66127.48134,10.76886.07673,12.24464.04458.0001,0,2.39293-.05214,2.56387-.91692a.613.613,0,0,1,.14894-.34043.91836.91836,0,0,1,.65958-.17021c.59275-.03926,1.00346-.37279,1.7234-.95745.3746-.3042.4015-.40625.383-.46808-.05419-.18085-.54616-.1818-.74472-.18069-1.9918.01113-5.48722.28187-5.48732.28188-2.04026.158-3.77008.03987-4.81051.28179a3.89826,3.89826,0,0,1-.76444.10335A4.288,4.288,0,0,1,5.88856,14.69229Z"/>

</g>
</svg>
