<?xml version="1.0" encoding="UTF-8"?>
<svg xmlns="http://www.w3.org/2000/svg"
     version="1.1"
     width="34.72696868mm"
     height="38.06727767mm"
     viewBox="0.00000000 0.00000000 98.43860271 107.90721305">

<g transform="scale(5.42284362)">   <defs>
      <style type="text/css"><![CDATA[
      .a {
        stroke: #000;
        stroke-miterlimit: 10;
        stroke-width: 0.15px;
        fill-rule: evenodd;
      }
    ]]></style>
   </defs>
   <path class="a"
         d="M7.33225,2.75508c.375.5312-.1582,2.3613-.2832,2.9687-.1245.6045-.4385,1.1455-.5454,1.7588a23.87782,23.87782,0,0,1-.6665,3.2539c-.249.7715-.7002,1.4648-.9322,2.2422-.2192.7363-.1997,1.5058-.3769,2.25a13.667,13.667,0,0,1-1.2022,3.3828c-.2622.4697-.49749,1.0078-1.0996,1.1543a3.39256,3.39256,0,0,1-1.5244-.0605c-.855-.3799-.6377-2.0469-.4819-2.7745.1157-.542.3052-1.1093.3999-1.6816.105-.6367.3003-1.2012.417-1.8184.1953-1.0322.1973-2.0781.37251-3.1064.41649-2.4434.28419-4.9766,1.002-7.3711a9.26308,9.26308,0,0,0,.477-1.6318A1.32183,1.32183,0,0,1,3.86745.15538c.4638-.1591,1.04291-.1162,1.10791.4434a12.05331,12.05331,0,0,1-.085,1.5147c-.00241.2529-.03661.4189.064.5283a.49659.49659,0,0,0,.27189.124,2.58235,2.58235,0,0,0,.68311,0C6.27165,2.72768,7.04615,2.34978,7.33225,2.75508Z"/>
   <path class="a"
         d="M7.116,9.07148c1.0386.8867,2.0732,1.7734,3.105,2.6699,1.205,1.0469,2.1762,2.3916,3.4843,3.3183,1.0093.7149,2.5142.5743,3.6919.5557.7203-.0117.8687.6895.4453,1.2393a2.02685,2.02685,0,0,1-1.1669.58,3.1319,3.1319,0,0,0-1.0186.5518,4.82231,4.82231,0,0,1-2.5488.5645,8.77445,8.77445,0,0,1-5.4092-1.1377,10.37222,10.37222,0,0,1-2.7232-3.5479,5.73189,5.73189,0,0,1-1.0019-2.8379,3.13365,3.13365,0,0,1,.0488-.7676c.0635-.249.2583-.4384.3145-.6738a2.40482,2.40482,0,0,1,.5097-1.3076C5.64036,7.42108,6.55145,8.59,7.116,9.07148Z"/>

</g>
</svg>
