<?xml version="1.0" encoding="UTF-8"?>
<svg xmlns="http://www.w3.org/2000/svg"
     version="1.1"
     width="59.74722031mm"
     height="25.17673115mm"
     viewBox="0.00000000 0.00000000 169.36214823 71.36708373">

<g transform="scale(6.75785620)">   <defs>
      <style type="text/css"><![CDATA[
      .a {
        stroke: #000;
        stroke-miterlimit: 10;
        stroke-width: 0.15px;
      }
    ]]></style>
   </defs>
   <path class="a"
         d="M.5207,1.23015a1.99552,1.99552,0,0,0-.20959.19653c-.62119.78585.11971,2.36523.656,3.14234A5.49084,5.49084,0,0,0,3.48842,6.48391c.87187.35577,2.82167,1.00472,7.97873.44681,1.66427-.18,3.75218-.18939,7.928-.20806a2.005,2.005,0,0,1,1.31828.42226c.61994.5552.45905,1.53731.38208,2.36594a1.11708,1.11708,0,0,0,.05646.57921.81876.81876,0,0,0,.882.38216,2.3268,2.3268,0,0,0,.91632-.45672q.92884-.655,1.82879-1.34982a.47772.47772,0,0,0,.19426-.24174c.03816-.13365.00534-.33066-.26155-.63153-.60733-.68464-1.22018-.547-1.89557-1.19087a2.897,2.897,0,0,1-.97677-1.49.72639.72639,0,0,0-.22225-.47956.80693.80693,0,0,0-.63945-.09491c-1.60447.29513-11.49541-.237-13.02128-.31915a4.62623,4.62623,0,0,1-1.268-.23678A4.594,4.594,0,0,1,5.2,3.14242C4.40729,2.455,4.33749,1.84882,3.15233.508,2.93956.26724,2.82567.15537,2.64027.10314,2.00766-.07509,1.20654.62812.5207,1.23015Z"/>

</g>
</svg>
