<?xml version="1.0" encoding="UTF-8"?>
<svg xmlns="http://www.w3.org/2000/svg"
     version="1.1"
     width="78.90796993mm"
     height="43.47034173mm"
     viewBox="0.00000000 0.00000000 223.67612155 123.22298882">

<g transform="scale(3.40760514)">   <defs>
      <style type="text/css"><![CDATA[
      .a {
        stroke: #000;
        stroke-miterlimit: 10;
        stroke-width: 0.15px;
        fill-rule: evenodd;
      }
    ]]></style>
   </defs>
   <path class="a"
         d="M18.44418,11.293c-1.9824-.4263-1.2964-2.0293-2.0645-3.4473a4.05706,4.05706,0,0,0-2.7939-2.0259,8.56262,8.56262,0,0,0-6.3784,1.416c-1.187.814-3.0777,3.3951-2.4951,4.76659.5893,1.39071,3.5092,1.97761,3.1591,3.85311-.2456,1.3203-5.2983-3.1353-5.5776-3.4517-1.2515-1.4131-1.3784-3.64941-.9375-5.6265a6.366,6.366,0,0,1,2.8726-4.3505c4.4521-2.5083,10.2202-3.8096,14.2251.2607,1.7378,1.7661,4.3427,5.25389,2.375,7.7178A2.32308,2.32308,0,0,1,18.44418,11.293Z"/>
   <path class="a"
         d="M3.00128,17.648c.0503-.5064.6016-.5127.835-.8355-.2544-.354-.9634.13089-1.2534-.6963.4331-.9141,1.8486-.8457,2.2295-1.811a7.89115,7.89115,0,0,1,2.5073,1.2534c3.4966,5.5747-.9033,12.3301-1.1148,18.8071-1.1894,1.6758-5.7256,2.9556-6.1294-.27931.563-5.52,2.168-9.99749,3.2041-15.04539A2.23445,2.23445,0,0,0,3.00128,17.648Z"/>
   <path class="a"
         d="M65.51448,13.79351c-1.0195,1.8598-4.7573,1.3017-6.4331,1.1665-1.1899-.0962-2.4287-.39161-3.6211-.3799a18.23258,18.23258,0,0,0-4.4512,1.0078c-4.4609,1.18749-8.9619,1.7851-13.291,3.5391A67.80185,67.80185,0,0,1,31.242,21.7534c-1.9384.56251-4.3286,2.35941-6.3012,2.11961-1.9287-.2334-.854-1.1542-1.7661-1.9965-.6382-.5904-2.5049-.2652-3.3955-.2652a11.96252,11.96252,0,0,0-3.5997.3394c-1.0244.3164-1.4609.897-2.6772.2368a15.03714,15.03714,0,0,1-.0547-2.6743,2.21894,2.21894,0,0,0-1.2915-2.0357c-.4883-.1796-1.0215-.0576-1.5127-.22211a10.52089,10.52089,0,0,1-1.5312-.82959c-.9068-.4995-2.191-1.189-2.0586-2.4165.1264-1.1607,1.7314-1.2988,2.6211-1.3721.5459-.0459,1.1425.0308,1.6806-.0625a15.23029,15.23029,0,0,1,2.1377-.5508c3.8657-.1382,6.1787,3.6983,4.458,7.8013,11.1035.4565,19.0157-3.9131,28.8365-5.2939a35.63358,35.63358,0,0,1,9.978-2.1558c1.3774-.0933,2.8144-.1172,4.2314-.1172,1.0791,0,2.959-.123,3.8799.4834C65.51788,13.16411,65.65658,13.53371,65.51448,13.79351Z"/>

</g>
</svg>
