<?xml version="1.0" encoding="UTF-8"?>
<svg xmlns="http://www.w3.org/2000/svg"
     version="1.1"
     width="10.03010389mm"
     height="14.69242854mm"
     viewBox="0.00000000 0.00000000 28.43179885 41.64781318">

<g transform="scale(5.26144544)">   <defs>
      <style type="text/css"><![CDATA[
      .a {
        stroke: #000;
        stroke-miterlimit: 10;
        stroke-width: 0.15px;
      }
    ]]></style>
   </defs>
   <path class="a"
         d="M1.37746,2.19077C.81514,2.50731.16022,2.88526.08235,3.52583A1.95288,1.95288,0,0,0,.45049,4.68517L1.843,7.11405a1.65268,1.65268,0,0,0,.37805.49929,1.38348,1.38348,0,0,0,.884.22705,1.49918,1.49918,0,0,0,1.02836-.325,1.70291,1.70291,0,0,0,.379-.66711A13.17965,13.17965,0,0,0,5.27658,1.114C5.18237.06644,4.54306-.23955,3.80655.429A13.26793,13.26793,0,0,1,1.37746,2.19077Z"/>

</g>
</svg>
