<?xml version="1.0" encoding="UTF-8"?>
<svg xmlns="http://www.w3.org/2000/svg"
     version="1.1"
     width="61.47540737mm"
     height="38.54699890mm"
     viewBox="0.00000000 0.00000000 174.26096442 109.26711343">

<g transform="scale(4.63379906)">   <defs>
      <style type="text/css"><![CDATA[
      .a {
        stroke: #000;
        stroke-linecap: round;
        stroke-linejoin: round;
        stroke-width: 0.01px;
      }
    ]]></style>
   </defs>
   <path class="a"
         d="M30.39172.15734a.47773.47773,0,0,1-.31641.15235,3.1755,3.1755,0,0,0-.77344.26172A2.88894,2.88894,0,0,1,28.48156.837a1.6237,1.6237,0,0,0-.87109.28125c-.10938.10547-.17578.1211-.47266.09766a.63962.63962,0,0,0-.35547.09765.428.428,0,0,1-.29687.07813.44054.44054,0,0,0-.3125.082.69326.69326,0,0,1-.36328.11328,5.85381,5.85381,0,0,0-1.40235.37891,2.20157,2.20157,0,0,1-.5625.16015,1.39264,1.39264,0,0,0-.44531.1211,2.098,2.098,0,0,1-.47656.14453,6.41181,6.41181,0,0,0-1.32031.332.38956.38956,0,0,1-.32422.01563,1.99989,1.99989,0,0,0-1.41016.3164c-.48047.27344-.48828.27344-.90625.19141a.938.938,0,0,0-.66016,0,2.80148,2.80148,0,0,1-1,.20312,5.55284,5.55284,0,0,0-.64453.082,13.23292,13.23292,0,0,1-1.33593.13672,1.00347,1.00347,0,0,1-.543-.082,1.11821,1.11821,0,0,0-.51563-.10547c-.19531,0-.53515-.00781-.75781-.02344a2.02443,2.02443,0,0,0-.668.06641,2.67863,2.67863,0,0,1-.832.07031,2.90993,2.90993,0,0,0-.74219.03516c-.13281.05469-.28906.00781-.6875-.1875-.42187-.20312-.55859-.24219-.707-.18359A.88453.88453,0,0,1,9.31359,3.251a3.62349,3.62349,0,0,0-.74218-.07421,1.18051,1.18051,0,0,1-.6211-.15235.66855.66855,0,0,0-.418-.11328.40177.40177,0,0,1-.30078-.06641.57357.57357,0,0,0-.30468-.11328A.49471.49471,0,0,1,6.63,2.59484a1.05975,1.05975,0,0,0-.42969-.22656,9.43078,9.43078,0,0,1-1.85547-.74219,1.34968,1.34968,0,0,0-.793-.25.81888.81888,0,0,1-.51172-.11328.99316.99316,0,0,0-.64063-.09375,1.29491,1.29491,0,0,0-1.11719.5625,1.91084,1.91084,0,0,1-.5.48438c-.375.25781-.53906.58984-.42968.89453a.39791.39791,0,0,1,.02343.293,1.18742,1.18742,0,0,0,.02344.48437,4.72768,4.72768,0,0,1,.082.75.63368.63368,0,0,0,.17578.51563c.19532.1875.19532.17578.05079.582-.10157.30469-.10157.332.0625.57422a.92614.92614,0,0,1,.15625.48047c-.02344.28515-.10547.96093-.17969,1.40625A.99612.99612,0,0,0,.76274,8.673,2.488,2.488,0,0,1,.73149,9.96987,4.72971,4.72971,0,0,0,.64172,11.587c.00781.77344.03906,1.55469.07422,1.74219a3.70351,3.70351,0,0,1,.03906.64453c-.00781.168-.02344.4375-.03125.60547a1.3178,1.3178,0,0,0,.14844.62109c.16406.31641.16406.32422.03125.65235-.1211.28515-.125.35546-.04688.5664.082.1875.082.34766.00782.88672a3.95165,3.95165,0,0,0-.0586.832.96866.96866,0,0,1-.16406.52344c-.19141.33984-.23438.60547-.13281.78516a2.7015,2.7015,0,0,1-.06641.87109c-.10156.60547-.16406.79688-.28125.87891-.14063.08984-.15625.17578-.15625,1V23.087l.21484.12109a1.05916,1.05916,0,0,0,.39454.10938,1.33134,1.33134,0,0,1,.51171.14062.7245.7245,0,0,0,.918-.10546.6613.6613,0,0,1,.2461-.17969c.15625,0,.32422-.66016.34765-1.332a2.56177,2.56177,0,0,1,.14844-.94141A1.89589,1.89589,0,0,0,2.9425,20.38a4.353,4.353,0,0,1,.37109-1.12891,1.35961,1.35961,0,0,0,.10547-.418.74133.74133,0,0,1,.10938-.332,1.07981,1.07981,0,0,0,.14062-.41015,5.22767,5.22767,0,0,1,.15625-.62891,3.506,3.506,0,0,0,.10938-.80078A1.09654,1.09654,0,0,1,4.13,15.9425a.59966.59966,0,0,0,.14063-.48438,5.50719,5.50719,0,0,1-.07422-.78906,3.55062,3.55062,0,0,0-.07422-.66406c-.03125-.03906,0-.16016.0664-.25781a.34045.34045,0,0,0,.03516-.39453A2.06185,2.06185,0,0,1,4.13,12.837a1.713,1.713,0,0,0-.26953-.90625c-.13281-.23047-.14844-.30469-.07813-.77344a9.10056,9.10056,0,0,0,.07422-1.12109c0-.55859.0586-2.46094.08594-2.80078a2.40453,2.40453,0,0,0-.05859-.5,1.14968,1.14968,0,0,1-.00782-.51563.41828.41828,0,0,0-.01562-.30859c-.08594-.168.0625-.35547.35156-.42578a2.39831,2.39831,0,0,1,1.23828.15234,1.77532,1.77532,0,0,0,.9336.1211c.05859,0,.30468.03125.543.0664a1.42231,1.42231,0,0,0,.65234-.0039.61368.61368,0,0,1,.31641-.03907,1.66718,1.66718,0,0,0,.51171-.01562,3.99026,3.99026,0,0,1,.91407.00781c.44531.05078.51953.03906.78515-.12109l.29688-.17578.5625.1289c.60156.13672.90625.26563.90625.37891,0,.03906.05859.082.13281.10547a.70293.70293,0,0,1,.26172.3125.641.641,0,0,0,.25.30859,2.80421,2.80421,0,0,1,.91406.48438.09352.09352,0,0,0,.10156.07812,1.05973,1.05973,0,0,1,.3711.1875,1.56233,1.56233,0,0,0,.582.23438.82406.82406,0,0,1,.42187.207c.23828.293.39063.41406.59375.45312a1.247,1.247,0,0,1,.44922.25.85461.85461,0,0,0,.55078.22656,4.46929,4.46929,0,0,1,1.57813.72657,4.53072,4.53072,0,0,0,2.54687.6875,2.60617,2.60617,0,0,1,.73438.12109.767.767,0,0,0,.45312.0625,1.27239,1.27239,0,0,1,.52341.07428,2.92,2.92,0,0,0,.73438.15234,4.23451,4.23451,0,0,1,.8164.15235,2.26427,2.26427,0,0,0,.707.10547,4.81185,4.81185,0,0,1,.85157.10546,6.97155,6.97155,0,0,0,.75781.15235,2.38269,2.38269,0,0,1,.46484.11328,1.11929,1.11929,0,0,0,.76563.00781c.08984-.04687.25781-.02344.52734.07422a1.67043,1.67043,0,0,0,1.11719.08984,8.38744,8.38744,0,0,1,2.13672-.21093c.957-.03125,1.09765-.01563,1.35156.11328a.73967.73967,0,0,0,1.03125-.15235c.19141-.1875.30469-.34765.27344-.41406-.06641-.1914.15625-.34765.37109-.26562a.57743.57743,0,0,0,.71095-.1211,1.27665,1.27665,0,0,1,.4297-.23437c.13671-.02344.26953-.14453.40233-.35547a1.3915,1.3915,0,0,1,.45313-.45312A1.27514,1.27514,0,0,0,36.6534,8.962a.937.937,0,0,1,.29687-.32422.579.579,0,0,0,.1836-.38672,1.03979,1.03979,0,0,1,.16406-.418.59143.59143,0,0,0,.1289-.28906.93719.93719,0,0,1,.10937-.32422c.07422-.12109.06642-.1875-.02344-.3789-.10156-.19532-.10156-.25-.01172-.3711a.96153.96153,0,0,0,.004-.84762,1.31936,1.31936,0,0,0-.57031-.38672,5.10277,5.10277,0,0,1-.76953-.40625,1.12725,1.12725,0,0,0-.46875-.207c-.22266,0-.60938.29687-.60938.46875a.41164.41164,0,0,1-.14844.26562.51961.51961,0,0,0-.14843.3125,1.8382,1.8382,0,0,1-.25782.60547,2.39442,2.39442,0,0,0-.28906.69531,1.87552,1.87552,0,0,1-.23047.79688c-.13281.24219-.207.28516-.668.42187-.28125.082-.69531.20313-.91015.27344a2.71875,2.71875,0,0,1-1.03907.05859,3.085,3.085,0,0,0-1.51952.07032.733.733,0,0,1-.55083.039,5.68018,5.68018,0,0,0-1.71875-.03125.30965.30965,0,0,1-.32031-.07031,1.712,1.712,0,0,0-.47657-.23438,2.27689,2.27689,0,0,1-.44532-.19531,1.53669,1.53669,0,0,0-.58984-.0625,3.63816,3.63816,0,0,1-1.58984-.30859A4.102,4.102,0,0,0,23.63,7.53237a3.38889,3.38889,0,0,1-1.00391-.29687,2.11718,2.11718,0,0,0-1.03516-.15235,1.94354,1.94354,0,0,1-1.15234-.21093c-.58593-.31641-.75391-.36328-1.082-.28907a1.11523,1.11523,0,0,1-.89843-.16406,2.00507,2.00507,0,0,0-.91016-.46484c-.44531-.07422-.543-.11328-.58593-.23438-.12891-.33984.29688-.58984.90234-.52734,1.33593.12891,1.44141.12109,1.83984-.09375.35548-.1875.40234-.19531.68359-.10547a1.01773,1.01773,0,0,0,.51173.05469c.61718-.15235.75781-.168.875-.10547a2.70054,2.70054,0,0,0,1.5-.168c.18359-.15234.25-.14453.48047.05469a2.89966,2.89966,0,0,0,1.39453-.01563,4.63013,4.63013,0,0,0,1.21093-.32031c.11719-.05859.22657-.08984.25-.0664a.39963.39963,0,0,0,.22266-.03907,8.362,8.362,0,0,1,2.87891-.082c.16406.04688.38672.10547.49609.12891.14843.03125.25391.1289.36329.36328a1.64838,1.64838,0,0,1,.17187.42969,1.88007,1.88007,0,0,0,.17577.43359c.13282.26563.207.31641.45314.36328a.73483.73483,0,0,0,.37889,0,.75928.75928,0,0,1,.24611-.07812c.08593-.01172.22264-.043.29687-.0586.19922-.03906.63672-.43359.59766-.53906a1.21306,1.21306,0,0,1,.20312-.46094,1.08852,1.08852,0,0,0,.22266-.67969,1.445,1.445,0,0,1,.14062-.60546,1.67977,1.67977,0,0,0,.14845-.38672,6.05648,6.05648,0,0,1,.37109-1.211.95848.95848,0,0,0,.043-.75781C33.923.78625,33.70816.35266,33.6066.423c-.0391.01953-.12113-.01563-.18754-.086a.29506.29506,0,0,0-.26562-.082A.258.258,0,0,1,32.88.14953C32.76672.02062,32.64953.005,31.63781.005,30.61437.005,30.51281.02062,30.39172.15734Z"/>

</g>
</svg>
