<?xml version="1.0" encoding="UTF-8"?>
<svg xmlns="http://www.w3.org/2000/svg"
     version="1.1"
     width="22.39011920mm"
     height="49.47342550mm"
     viewBox="0.00000000 0.00000000 63.46809963 140.23969259">

<g transform="scale(7.55223773)">   <defs>
      <style type="text/css"><![CDATA[
      .a {
        stroke: #000;
        stroke-miterlimit: 10;
        stroke-width: 0.15px;
      }
    ]]></style>
   </defs>
   <path class="a"
         d="M1.63957,1.87677a2.69134,2.69134,0,0,0-.20483,1.97478C1.99528,6.96509.02484,13.7999.076,17.15971a1.40537,1.40537,0,0,0,.318.95068c.53663.57385,1.59286.34549,1.76294.30561a1.42952,1.42952,0,0,0,.941-.51222c.34624-.50613.18507-1.28206-.04319-1.33982-.239-.06048-.43055.69684-.80851.68086-.38309-.0162-.81528-.82083-.70235-1.51207.07347-.44978.32433-.87541,1.296-1.45511L7.3715,11.57416a2.29454,2.29454,0,0,0,.81488-.6782.78623.78623,0,0,0-.05887-.982c-.21453-.19033-.63728-.01169-1.50859.45759-1.9594,1.05531-2.56461,1.6692-2.91155,1.453-.15578-.09709-.06078-.23768-.18279-1.55255-.0851-.917-.16947-1.25991.06512-1.50139.22684-.2335.47051-.08252.744-.37454A1.15332,1.15332,0,0,0,4.62,7.5262c-.02628-.2423-.12988-.32955-.10456-.57463a.95048.95048,0,0,1,.17982-.44868A6.74315,6.74315,0,0,0,5.31,4.13843c.12249-1.26929-.27687-1.47632.04256-1.91489.3792-.52063,1.10683-.45519,1.26483-1.02648a.69945.69945,0,0,0-.04736-.5092C6.43944.46193,6.17693.40744,5.69747.31652A6.81961,6.81961,0,0,0,4.04976.08609c-.09468.02208-.24993.069-1.03762.64808A6.48492,6.48492,0,0,0,1.63957,1.87677Z"/>

</g>
</svg>
