<?xml version="1.0" encoding="UTF-8"?>
<svg xmlns="http://www.w3.org/2000/svg"
     version="1.1"
     width="29.83370574mm"
     height="32.55236585mm"
     viewBox="0.00000000 0.00000000 84.56793275 92.27447975">

<g transform="scale(5.59901992)">   <defs>
      <style type="text/css"><![CDATA[
      .a {
        stroke: #000;
        stroke-miterlimit: 2.61313;
        stroke-width: 0.28346px;
      }
    ]]></style>
   </defs>
   <path class="a"
         d="M9.90723.80811C7.3252,4.80908,5.501,8.68945,4.89941,12.37451a5.36751,5.36751,0,0,1-.13867,2.65234,8.56527,8.56527,0,0,1-4.12109-.10254,25.06262,25.06262,0,0,1,3.3125-10.3916C7.51855.77588,9.00488.32861,9.90723.80811Z"/>
   <path class="a"
         d="M7.67285,2.38867C8.58105.875,9.72754-.20752,11.72559.24609c1.87109,1.16162,2.1875,3.59229,2.06836,6.37842q.04395,3.22559.08984,6.4502c-1.45117,1.54785-2.89258,1.28027-4.334.75293a4.83718,4.83718,0,0,1-.43359-3.67578Q8.39551,6.27,7.67285,2.38867Z"/>
   <path class="a"
         d="M.1416,15.53467c-.00977-.73535.668-1.66992,2.86133-3.04687a14.25744,14.25744,0,0,1,6.832,1.91309c2.17188-.67871,3.9375-.6084,5.10938.55664q.14355.65479-.87109,1.30176a11.98412,11.98412,0,0,1-3.916-.18359,13.85572,13.85572,0,0,1-4.24609-.02148A17.17622,17.17622,0,0,1,.1416,15.53467Z"/>

</g>
</svg>
