<?xml version="1.0" encoding="UTF-8"?>
<svg xmlns="http://www.w3.org/2000/svg"
     version="1.1"
     width="13.53932607mm"
     height="37.62256092mm"
     viewBox="0.00000000 0.00000000 38.37918478 106.64663660">

<g transform="scale(4.16597212)">   <defs>
      <style type="text/css"><![CDATA[
      .a {
        stroke: #000;
        stroke-miterlimit: 10;
        stroke-width: 0.15px;
        fill-rule: evenodd;
      }
    ]]></style>
   </defs>
   <path class="a"
         d="M5.93021.50092c3.8335,3.9659,2.6489,12.6734,2.9097,19.396.0766,2.0025.9741,4.5489-.7769,5.6246-2.064-.2823-.9087-2.6299-.9692-3.879a29.27221,29.27221,0,0,0-.7759-3.1035c-.749-4.4282-.5069-9.6118-1.7466-12.9961-1.2041,1.64018-.4561,5.2349-1.1631,7.3706-.3535,1.9747.9234,5.5787-1.1626,5.8189-2.0429-.7378-.9765-4.5855-2.1347-6.2051.0117-3.97122-.3106-7.6831.7763-10.8638A4.08982,4.08982,0,0,1,5.93021.50092Z"/>

</g>
</svg>
