<?xml version="1.0" encoding="UTF-8"?>
<svg xmlns="http://www.w3.org/2000/svg"
     version="1.1"
     width="45.68328546mm"
     height="56.56698720mm"
     viewBox="0.00000000 0.00000000 129.49595205 160.34736098">

<g transform="scale(4.98973131)">   <defs>
      <style type="text/css"><![CDATA[
      .a {
        stroke: #000;
        stroke-linecap: round;
        stroke-linejoin: round;
        stroke-width: 0.01px;
      }
    ]]></style>
   </defs>
   <path class="a"
         d="M1.94508.05132C1.75731.11189,1.4363.40262,1.4363.5177a.73272.73272,0,0,1-.218.321A2.19808,2.19808,0,0,0,.87906,1.299a1.21955,1.21955,0,0,1-.16959.27862,1.75507,1.75507,0,0,0-.14537.30285,2.63706,2.63706,0,0,1-.24227.45427A1.87064,1.87064,0,0,0,.013,3.419c-.02422.29679-.01211.33919.315.8298a2.51416,2.51416,0,0,1,.24228.60569,2.60252,2.60252,0,0,0,.18772.527c.07269.11508.07269.15143,0,.26045-.07268.11508-.07268.18776-.006.50272a3.80515,3.80515,0,0,1,.07874.53907.74724.74724,0,0,0,.13325.3513.93046.93046,0,0,1,.13931.6178,4.55725,4.55725,0,0,0,.04845.58752,4.45461,4.45461,0,0,1,.06663.66626c.01211.28468.0424.636.06663.7874.01817.15143.04845.38159.06056.51484s.0424.35736.06663.50272a.92052.92052,0,0,1-.0424.45427,1.88941,1.88941,0,0,0,.01212,1.02362,4.91823,4.91823,0,0,1,.14536,1.169c.00606.16354.03029.37553.0424.46639a1.42423,1.42423,0,0,1-.04846.47243.95546.95546,0,0,0-.04239.39976.46337.46337,0,0,1-.0424.2665,1.10359,1.10359,0,0,0-.07269.3513,1.882,1.882,0,0,1-.06056.40582,5.68435,5.68435,0,0,0-.0848.89036,3.803,3.803,0,0,1-.07874.76923.87307.87307,0,0,0-.03029.40581,1.67,1.67,0,0,1-.06056.636A6.33257,6.33257,0,0,0,.91549,19.5425C.85483,20.86892.85483,20.93555.97,21.04457c.08479.0848.103.218.09085.81163a6.97777,6.97777,0,0,0,.03634.89036c.02423.09691.07268.315.11508.48456a2.16917,2.16917,0,0,0,.45427.957.80571.80571,0,0,0,.35736.14536,1.812,1.812,0,0,0,1.02362-.212,3.84631,3.84631,0,0,1,.38764-.28467,8.84393,8.84393,0,0,0,1.21744-1.169c0-.02422.01211-.15142.02422-.28467a6.44054,6.44054,0,0,0,0-1.24167,5.62986,5.62986,0,0,1-.00605-1.19927.274.274,0,0,0-.02423-.15748,1.054,1.054,0,0,1,.00606-.36341.831.831,0,0,0-.01817-.3937,3.4145,3.4145,0,0,1-.07874-.64809,1.14664,1.14664,0,0,0-.1696-.70866,3.063,3.063,0,0,1-.18776-2.39248,2.7058,2.7058,0,0,0-.0424-.65414,1.10264,1.10264,0,0,1,.03029-.72078,2.10794,2.10794,0,0,0,.09691-.82979c-.00606-.3089-.00606-.73894.00605-.957a4.26269,4.26269,0,0,0-.00605-.45427.93152.93152,0,0,1,.05451-.321.88538.88538,0,0,0,.0363-.37553,2.39959,2.39959,0,0,1-.12114-.72683,6.25883,6.25883,0,0,0-.0848-.66626A6.21926,6.21926,0,0,1,4.071,8.846a3.22778,3.22778,0,0,0-.06662-.48455A4.65623,4.65623,0,0,1,3.82272,7.15c-.01817-.315-.07268-.83585-.12114-1.15081a6.56258,6.56258,0,0,1-.09085-.75712,4.23533,4.23533,0,0,1,.103-1.37492c.103-.19382.17565-.2241.44821-.16353a1.369,1.369,0,0,0,.86614-.03634.49126.49126,0,0,1,.533.03028.67865.67865,0,0,0,.39976.03634.8919.8919,0,0,1,.49061.06057,1.52762,1.52762,0,0,0,.55724.07874,1.17654,1.17654,0,0,1,.46032.04846.87227.87227,0,0,0,.67837-.09691c.22411-.12114.56935.12719.8722.6178a2.2615,2.2615,0,0,1,.2665.57541c.00606.09085.01212.18171.01817.20593a2.15329,2.15329,0,0,0,.24834.321,1.379,1.379,0,0,1,.24227.33919.50237.50237,0,0,0,.14537.19987.63338.63338,0,0,1,.16959.212.82139.82139,0,0,0,.18777.26044.5973.5973,0,0,1,.16353.26045c0,.04846.02423.09085.05452.09085.03634,0,.15142.14537.26044.32708a1.44059,1.44059,0,0,0,.36947.43c.09086.05451.16354.12114.16354.15748a.55314.55314,0,0,0,.15748.19382,1.62018,1.62018,0,0,1,.30285.41793c.07874.16353.16959.29073.19987.29073s.0848.09085.1272.19382a1.862,1.862,0,0,0,.30285.44215,2.32072,2.32072,0,0,1,.33313.46638.48728.48728,0,0,0,.218.26045,3.00173,3.00173,0,0,1,.51484.424c.92671.89642,1.45366,1.22349,1.72016,1.06a.372.372,0,0,1,.36948.1272.70992.70992,0,0,0,.30284.109,6.337,6.337,0,0,1,1.72622.72078,1.83413,1.83413,0,0,0,.72077.15142,1.37919,1.37919,0,0,1,.50878.09085.72672.72672,0,0,0,.30285.1272.7254.7254,0,0,1,.30284.11508,1.43808,1.43808,0,0,0,.84191.12719,1.92224,1.92224,0,0,1,.49061-.05451c.18777.00606.533.00606.77529.00606.23622,0,.51484.01211.6178.02423.15748.01817.23017-.01817.4361-.23017a.78568.78568,0,0,1,.44216-.2665,3.13074,3.13074,0,0,0,.82374-.16354c.1817-.06057.43609-.13325.55723-.16959a.84748.84748,0,0,0,.34524-.20594.42746.42746,0,0,1,.2544-.14536,1.27868,1.27868,0,0,0,.6602-.39976.63526.63526,0,0,1,.15748-.23622c.11508-.12719.14536-.20593.11508-.32707a1.29057,1.29057,0,0,0-.44216-.59963,1.84836,1.84836,0,0,0-1.02361.02422,2.00993,2.00993,0,0,1-.642.09086,1.23937,1.23937,0,0,0-.55117.08479.43185.43185,0,0,1-.315.05452c-.15143-.03029-.212,0-.37553.1817l-.19988.218-.23622-.12114a1.77575,1.77575,0,0,1-.3937-.28467c-.14536-.16354-.17565-.16959-.71471-.16354a2.52189,2.52189,0,0,0-.69049.07269c-.11508.06057-.15142.04845-.30285-.09691a4.63384,4.63384,0,0,0-.47244-.36948,4.46071,4.46071,0,0,1-.43-.33918.72206.72206,0,0,0-.29073-.17565,1.72418,1.72418,0,0,1-.48455-.33313,1.69117,1.69117,0,0,0-.44216-.33313.281.281,0,0,1-.16353-.14537,2.43117,2.43117,0,0,0-.642-.67232c-.0848-.05451-.321-.2241-.527-.38158a3.17718,3.17718,0,0,0-.50272-.321.59805.59805,0,0,1-.24228-.27862c-.06662-.12719-.14536-.23622-.17565-.23622s-.11508-.12113-.18776-.27256a.729.729,0,0,0-.18171-.27256c-.03028,0-.08479-.09691-.12114-.212a2.0861,2.0861,0,0,0-.67837-.8298c-.23016-.09085-.55118-.39975-.50878-.50272a1.22607,1.22607,0,0,0-.218-.70866,1.852,1.852,0,0,1-.18171-.36341.68.68,0,0,0-.16968-.27254c-.109-.07874-.18171-.24228-.29679-.65415a1.69845,1.69845,0,0,0-.57541-.75106c-.07268-.05451-.09691-.14536-.08479-.29679.01817-.19987,0-.23016-.22411-.3513a1.93024,1.93024,0,0,1-.33313-.2241.66.66,0,0,0-.3513-.12114,1.276,1.276,0,0,1-.3937-.11508,2.8202,2.8202,0,0,0-.4179-.19378A1.04935,1.04935,0,0,1,10.40052.5177C10.346.45108,10.29752.445,10.2067.49348,9.922.64487,9.6737.59644,8.953.24514A1.08936,1.08936,0,0,0,8.13524.09372,1.78332,1.78332,0,0,0,7.463.28148C7.19036.439,7.02077.42687,6.49987.19063A1.65679,1.65679,0,0,0,5.985.05738H5.60345c-.09691,0-.20593.00606-.24227.00606a4.19755,4.19755,0,0,1-.4785-.03635.99731.99731,0,0,0-.54512.03635A6.01659,6.01659,0,0,1,2.33272.08161.38546.38546,0,0,0,1.94508.05132Z"/>
   <path class="a"
         d="M7.29939,5.83567c-.25439.13931-.34525.22411-.37553.3513a.29078.29078,0,0,1-.15142.20594.56238.56238,0,0,0-.218.29073,1.48786,1.48786,0,0,1-.13931.28467,3.11759,3.11759,0,0,0-.4361.66626c-.07268.14537-.18776.33919-.24228.424a1.307,1.307,0,0,0-.15142.47849,2.15207,2.15207,0,0,1-.18776.62992,2.4406,2.4406,0,0,0-.1272,1.41126c.0424.19988.03029.27256-.05451.3513-.07874.0848-.09085.15748-.05451.38764a7.123,7.123,0,0,1,.06057.739c.01211.58146.04845.68443.30284.854a.65622.65622,0,0,1,.23622.87825,1.54264,1.54264,0,0,0-.0848.3937,6.72416,6.72416,0,0,0,.0848.98122.44922.44922,0,0,1-.01822.27252.39437.39437,0,0,0,.02423.315,1.15187,1.15187,0,0,1,.0848.36342,7.22189,7.22189,0,0,0,.23621,1.272,1.84216,1.84216,0,0,1-.01817.81768,7.20509,7.20509,0,0,0,0,1.60508c.02423.64809.04846,1.42338.05452,1.72622a2.30886,2.30886,0,0,0,.07268.66626c.07874.13931.07268.27862-.03029.58752-.06056.18777-.06056.24834.02423.37553.07874.12114.0848.17565.03029.27862a.28885.28885,0,0,0,0,.29679.40462.40462,0,0,1-.02423.36947.44216.44216,0,0,0-.03634.30284.18076.18076,0,0,1,0,.17565.42656.42656,0,0,0,0,.24834,1.20168,1.20168,0,0,1,0,.41792,1.71773,1.71773,0,0,0,.01211.527,1.0138,1.0138,0,0,1-.01211.53906,1.46337,1.46337,0,0,0-.05451.43.91058.91058,0,0,1-.36948.84191,1.814,1.814,0,0,0-.43.49061,2.79835,2.79835,0,0,1-.3513.49061,3.42167,3.42167,0,0,0-.35736.50878,3.15691,3.15691,0,0,1-.27861.41793.14562.14562,0,0,0-.06057.15142c.01817.0424-.03634.15142-.12114.24228a.75507.75507,0,0,0-.15748.212.57318.57318,0,0,1-.103.15748,2.04457,2.04457,0,0,0-.321.87825c0,.23016.25439.46638.81768.75711a1.33053,1.33053,0,0,0,1.0115.20594A9.04275,9.04275,0,0,1,7.251,32.04392a.72383.72383,0,0,0,.33313.00607.65872.65872,0,0,1,.39976.03028.62167.62167,0,0,0,.33313.0424,2.11915,2.11915,0,0,1,.40581-.02423.94857.94857,0,0,0,.36342-.06662,1.36,1.36,0,0,1,.48455-.06057.97283.97283,0,0,0,.50272-.0848.27076.27076,0,0,1,.32707-.02423,2.41856,2.41856,0,0,0,.84192.04846,3.452,3.452,0,0,1,.751.01817.87408.87408,0,0,0,.71472-.19988.78286.78286,0,0,1,.53906-.29073,1.27363,1.27363,0,0,0,.43-.212,2.44349,2.44349,0,0,1,.45427-.27256c.07874-.03029.14537-.0848.14537-.11508a1.16185,1.16185,0,0,1,.41187-.25439,3.42033,3.42033,0,0,0,1.169-.87826.83448.83448,0,0,0-.02661-1.17984l-.0279-.02548c-.212-.1696-.23622-.17565-.92065-.1696a6.65894,6.65894,0,0,0-1.06.07874,4.60714,4.60714,0,0,1-.49667.07268c-.07874-.00606-.20593-.00606-.29073-.00606h-.2241a17.48338,17.48338,0,0,1-2.15626-.12113c-.06663-.03635-.13326-.04846-.15143-.02423-.02423.01818-.11508-.01817-.20593-.07874s-.4361-.24227-.76317-.39975a1.84926,1.84926,0,0,1-.7026-.47244,1.35007,1.35007,0,0,1-.03635-1.0115,4.316,4.316,0,0,0,.24228-1.10236c.03028-.3513.26045-.38159.43-.05451a.55889.55889,0,0,1,.06057.32707c-.05451.19988.28467.50878.55724.50878a1.01994,1.01994,0,0,1,.67837.27256,1.22654,1.22654,0,0,0,.70866.30285.67483.67483,0,0,1,.33313.109c.56329.3089.62386.33313.854.3089a.83807.83807,0,0,0,.47244-.24833,1.48128,1.48128,0,0,1,.91459-.50272c.12114,0,.24228-.02423.26045-.06057a3.73011,3.73011,0,0,1,.54512-.33313,1.78573,1.78573,0,0,0,.54513-.38765.75952.75952,0,0,1,.14536-.23016.722.722,0,0,0,.14537-.963,1.55464,1.55464,0,0,0-.73289-.50272c-.19382.01817-.23622-.00606-.56329-.3089a2.5315,2.5315,0,0,0-.424-.33313.66733.66733,0,0,1-.218-.26045,5.0383,5.0383,0,0,0-.94488-1.02362,1.54992,1.54992,0,0,1-.34525-.3937,4.31092,4.31092,0,0,0-.2665-.62992,8.14324,8.14324,0,0,1-.36947-.8843l-.109-.33313.212-.44822c.11508-.24833.26044-.58146.315-.73894a1.61775,1.61775,0,0,1,.25439-.44821.90466.90466,0,0,0,.17565-.2665c.02422-.06663.06057-.11509.09085-.11509.15142,0,.23016-.34524.19988-.848a3.54434,3.54434,0,0,0-.04846-.53907A.706.706,0,0,1,13.011,15.981c.16354-.321.109-.45427-.424-.96911a1.38442,1.38442,0,0,0-.64809-.44821.7683.7683,0,0,1-.4361-.27256c-.24227-.26651-.34524-.29679-1.04179-.30891a2.56155,2.56155,0,0,1-.6178-.06056.264.264,0,0,0-.22411.00605.99422.99422,0,0,1-.315.07874.54957.54957,0,0,0-.315.12114c-.109.11508-.17565.103-.424-.0848-.12719-.09691-.16959-.61174-.18776-2.35008A3.89239,3.89239,0,0,1,8.45,10.2996a1.68261,1.68261,0,0,0,.13931-.72683c-.00606-.38764-.05451-1.25378-.07268-1.30223a1.22078,1.22078,0,0,1,.06056-.3513,1.65145,1.65145,0,0,0,.04862-.56937.76454.76454,0,0,1,.07874-.49061c.109-.19988.109-.212-.01817-.51484a.85489.85489,0,0,0-1.387-.50875ZM9.32845,17.28929c.30285.12719.40581.26044.40581.533a2.15437,2.15437,0,0,1-.43,1.04178.26149.26149,0,0,0-.09085.19384,2.48933,2.48933,0,0,1-.39976.87825c-.103.06662-.20593.006-.28467-.16354-.05451-.12719-.0424-.19989.07874-.4361.12719-.2544.13325-.30284.06057-.40581a.27755.27755,0,0,1-.04846-.24228,2.13005,2.13005,0,0,0,.05452-.45426c.00605-.18171.01817-.44822.01817-.58753C8.71065,17.23478,8.92264,17.11364,9.32845,17.28929Z"/>

</g>
</svg>
