<?xml version="1.0" encoding="UTF-8"?>
<svg xmlns="http://www.w3.org/2000/svg"
     version="1.1"
     width="28.90586300mm"
     height="19.47190255mm"
     viewBox="0.00000000 0.00000000 81.93777909 55.19585354">

<g transform="scale(6.09405350)">   <defs>
      <style type="text/css"><![CDATA[
      .a {
        stroke: #000;
        stroke-miterlimit: 10;
        stroke-width: 0.15px;
      }
    ]]></style>
   </defs>
   <path class="a"
         d="M8.54924,2.86907A7.967,7.967,0,0,1,5.89735,5.17839a5.97454,5.97454,0,0,0-.91177.42578c-.23523.15357-.43535.35578-.66827.51282a3.66474,3.66474,0,0,1-1.37865.51221,12.39614,12.39614,0,0,1-2.32922.29413c2.37925.51184,4.12722.96435,4.69228,1.1676a2.19445,2.19445,0,0,1,.76571.3728c.20037.16925.355.41168.60479.49152.36694.11725.72941-.16828,1.00941-.43286L8.83826,7.42961A4.30253,4.30253,0,0,0,9.93354,6.06615a1.86058,1.86058,0,0,1,.21735-.46973c.36683-.50488.84337-.35455,1.40536-.7157.19485-.12518.127-.13653,1.08512-1.56378a3.65059,3.65059,0,0,0,.61615-1.08063,1.76334,1.76334,0,0,0-.00978-1.2492A1.84344,1.84344,0,0,0,11.84349.09349,2.50277,2.50277,0,0,0,10.02434.668C9.21967,1.268,9.424,1.68419,8.54924,2.86907Z"/>

</g>
</svg>
