<?xml version="1.0" encoding="UTF-8"?>
<svg xmlns="http://www.w3.org/2000/svg"
     version="1.1"
     width="36.38092892mm"
     height="12.30362708mm"
     viewBox="0.00000000 0.00000000 103.12694057 34.87648875">

<g transform="scale(7.36351710)">   <defs>
      <style type="text/css"><![CDATA[
      .a {
        stroke: #000;
        stroke-miterlimit: 10;
        stroke-width: 0.15px;
      }
    ]]></style>
   </defs>
   <path class="a"
         d="M7.56581.70858A64.09941,64.09941,0,0,0,.97707,2.99544C.555,3.16823.06274,3.45009.07523,3.906c.00869.31708.40348.57274.69541.67686a1.77874,1.77874,0,0,0,1.26392-.10141C3.29215,3.95229,5.41213,3.14254,6.106,2.91005c1.27236-.42631,4.26005-1.093,5.57142-.07142a1.82993,1.82993,0,0,0,1.28572.5,1.10687,1.10687,0,0,0,.68422-.34317,1.25678,1.25678,0,0,0,.26257-.8069A4.53064,4.53064,0,0,0,13.84669.89579.903.903,0,0,0,13.714.53341a.96248.96248,0,0,0-.63037-.30582A11.76014,11.76014,0,0,0,7.56581.70858Z"/>

</g>
</svg>
