<?xml version="1.0" encoding="UTF-8"?>
<svg xmlns="http://www.w3.org/2000/svg"
     version="1.1"
     width="27.99040275mm"
     height="32.74294939mm"
     viewBox="0.00000000 0.00000000 79.34291453 92.81461631">

<g transform="scale(3.93579125)">   <defs>
      <style type="text/css"><![CDATA[
      .a {
        stroke: #000;
        stroke-miterlimit: 10;
        stroke-width: 0.15px;
      }
    ]]></style>
   </defs>
   <path class="a"
         d="M6.96781,15.94615c-.3657.4873-.04349,1.1475.2466,1.584a2.03731,2.03731,0,0,0,1.4848.9385c.71.126,1.4097.374,2.1084.5547a17.23146,17.23146,0,0,0,2.24471.2334,3.24123,3.24123,0,0,1-1.20021,3.0127c-1.6167,1.61709-4.6177,1.2128-6.6309.747-.4614-.1074-.917-.0957-1.3628-.2021a15.9303,15.9303,0,0,1-1.4912-.6367,1.97837,1.97837,0,0,1-.627-.3516,2.2849,2.2849,0,0,0-.5043-.31351c-.3682-.19429-.5503-.62989-.7935-.94329a2.23919,2.23919,0,0,1-.1807-2.1299,20.11191,20.11191,0,0,1,3.084-4.1162c1.1524-1.3994,2.24461-2.8487,3.2998-4.3233.7744-1.082,2.1104-2.4961,2.1367-3.90131.0103-.54789.08111-.98539-.4731-1.23249A2.71205,2.71205,0,0,0,6.69,4.68935c-.0992.0244-.0596.1435-.1705.1826a.72037.72037,0,0,0-.2548.0088c-.2442.0527-.501.1182-.7369.1894a2.16921,2.16921,0,0,1-1.0283.2413,2.91335,2.91335,0,0,0-1.1411.0898,5.92954,5.92954,0,0,1-2.0776.1338c-.3941-.06451-.3467-.2324-.3238-.5723.3687-.0273.69931-.2285,1.07331-.2646.33929-.0323.67629-.0479,1.00189-.0869.6158-.0743,1.1094.1406,1.586-.34871.2534-.26069.5078-.58789.7578-.81539a2.29451,2.29451,0,0,1,1.1606-.4941,2.552,2.552,0,0,0,1.4204-.8702c.1509-.2197.0957-.5088.2364-.706.1621-.2266.64791-.333.89891-.40531C9.88481.74305,10.61821.11025,11.44921.11515a4.95724,4.95724,0,0,1,1.9229.10839,3.52579,3.52579,0,0,1,2.4101,3.56251,3.591,3.591,0,0,1-.4126,1.6582A11.33417,11.33417,0,0,1,14.229,7.09854c-.7056,1.02731-1.1811,2.18061-1.9761,3.15431a16.3188,16.3188,0,0,1-3.7231,3.76269A7.56941,7.56941,0,0,0,6.96781,15.94615Z"/>
   <path class="a"
         d="M11.22221,21.06925a26.63155,26.63155,0,0,0,2.1929-1.7256,3.55989,3.55989,0,0,0,.6528-3.6719,11.29641,11.29641,0,0,1-.2412-2.4971,3.05672,3.05672,0,0,1,.8349-2.8193c.38771-.292.8682-.3613,1.273-.6201a7.13293,7.13293,0,0,1,1.041-.7266,2.15985,2.15985,0,0,1,2.7632,1.668A9.61041,9.61041,0,0,1,19.834,12.37c.06931.7315.2241,1.4317.2417,2.17.0454,1.93159-.0366,3.8867-1.5542,5.2959a6.72641,6.72641,0,0,1-1.5293,1.34369c-.79.39451-1.5483.85651-2.3672,1.19141a23.56529,23.56529,0,0,1-2.5532.626,6.02427,6.02427,0,0,1-1.5698.5098c-.544.0107-1.2906-.1651-1.0274-.8653.2031-.542,1.16071-1.0332,1.5938-1.4345Q11.14386,21.1366,11.22221,21.06925Z"/>
   <path class="a"
         d="M6.96781,15.94615c-.3657.4873-.04349,1.1475.2466,1.584a2.03731,2.03731,0,0,0,1.4848.9385c.71.126,1.4097.374,2.1084.5547a17.23146,17.23146,0,0,0,2.24471.2334,3.24123,3.24123,0,0,1-1.20021,3.0127c-1.6167,1.61709-4.6177,1.2128-6.6309.747-.4614-.1074-.917-.0957-1.3628-.2021a15.9303,15.9303,0,0,1-1.4912-.6367,1.97837,1.97837,0,0,1-.627-.3516,2.2849,2.2849,0,0,0-.5043-.31351c-.3682-.19429-.5503-.62989-.7935-.94329a2.23919,2.23919,0,0,1-.1807-2.1299,20.11191,20.11191,0,0,1,3.084-4.1162c1.1524-1.3994,2.24461-2.8487,3.2998-4.3233.7744-1.082,2.1104-2.4961,2.1367-3.90131.0103-.54789.08111-.98539-.4731-1.23249A2.71205,2.71205,0,0,0,6.69,4.68935c-.0992.0244-.0596.1435-.1705.1826a.72037.72037,0,0,0-.2548.0088c-.2442.0527-.501.1182-.7369.1894a2.16921,2.16921,0,0,1-1.0283.2413,2.91335,2.91335,0,0,0-1.1411.0898,5.92954,5.92954,0,0,1-2.0776.1338c-.3941-.06451-.3467-.2324-.3238-.5723.3687-.0273.69931-.2285,1.07331-.2646.33929-.0323.67629-.0479,1.00189-.0869.6158-.0743,1.1094.1406,1.586-.34871.2534-.26069.5078-.58789.7578-.81539a2.29451,2.29451,0,0,1,1.1606-.4941,2.552,2.552,0,0,0,1.4204-.8702c.1509-.2197.0957-.5088.2364-.706.1621-.2266.64791-.333.89891-.40531C9.88481.74305,10.61821.11025,11.44921.11515a4.95724,4.95724,0,0,1,1.9229.10839,3.52579,3.52579,0,0,1,2.4101,3.56251,3.591,3.591,0,0,1-.4126,1.6582A11.33417,11.33417,0,0,1,14.229,7.09854c-.7056,1.02731-1.1811,2.18061-1.9761,3.15431a16.3188,16.3188,0,0,1-3.7231,3.76269A7.56941,7.56941,0,0,0,6.96781,15.94615Z"/>
   <path class="a"
         d="M11.22221,21.06925a26.63155,26.63155,0,0,0,2.1929-1.7256,3.55989,3.55989,0,0,0,.6528-3.6719,11.29641,11.29641,0,0,1-.2412-2.4971,3.05672,3.05672,0,0,1,.8349-2.8193c.38771-.292.8682-.3613,1.273-.6201a7.13293,7.13293,0,0,1,1.041-.7266,2.15985,2.15985,0,0,1,2.7632,1.668A9.61041,9.61041,0,0,1,19.834,12.37c.06931.7315.2241,1.4317.2417,2.17.0454,1.93159-.0366,3.8867-1.5542,5.2959a6.72641,6.72641,0,0,1-1.5293,1.34369c-.79.39451-1.5483.85651-2.3672,1.19141a23.56529,23.56529,0,0,1-2.5532.626,6.02427,6.02427,0,0,1-1.5698.5098c-.544.0107-1.2906-.1651-1.0274-.8653.2031-.542,1.16071-1.0332,1.5938-1.4345Q11.14386,21.1366,11.22221,21.06925Z"/>

</g>
</svg>
