<?xml version="1.0" encoding="UTF-8"?>
<svg xmlns="http://www.w3.org/2000/svg"
     version="1.1"
     width="47.58733043mm"
     height="7.52961384mm"
     viewBox="0.00000000 0.00000000 134.89327853 21.34378858">

<g transform="scale(4.19054538)">   <defs>
      <style type="text/css"><![CDATA[
      .a {
        stroke: #000;
        stroke-miterlimit: 10;
        stroke-width: 0.15px;
        fill-rule: evenodd;
      }
    ]]></style>
   </defs>
   <path class="a"
         d="M.07556,2.08221A1.8284,1.8284,0,0,1,.74546.46459c.4219-.29788,1.3091-.21238,1.8252-.31108a3.13294,3.13294,0,0,1,1.3027-.0161c.3482.0947.5996.3135.9658.3833a13.206,13.206,0,0,0,2.4864-.0718c7.2368,0,14.8432,2.8452,22.042,1.6592,1.1699-.1929,3.6098.4268,2.436,2.1143-.7109,1.0219-2.8491.7295-3.9194.7426-2.34089.0293-4.6822.0855-7.023.0293-4.08789-.1001-8.1777-.0498-12.2666-.0376-1.8594.0054-3.7329-.0073-5.5884-.102C1.99886,4.80341.72636,4.78051.368,3.656A5.71939,5.71939,0,0,1,.07556,2.08221Z"/>

</g>
</svg>
