<?xml version="1.0" encoding="UTF-8"?>
<svg xmlns="http://www.w3.org/2000/svg"
     version="1.1"
     width="21.37257273mm"
     height="41.38105894mm"
     viewBox="0.00000000 0.00000000 60.58371220 117.30060295">

<g transform="scale(7.74169425)">   <defs>
      <style type="text/css"><![CDATA[
      .a {
        stroke: #000;
        stroke-miterlimit: 10;
        stroke-width: 0.15px;
      }
    ]]></style>
   </defs>
   <path class="a"
         d="M.32662,2.1245A.74515.74515,0,0,0,.075,2.578c-.00178.16665.09593.26594.28461.51894.43333.581.39629.69864.54256.734.27333.06614.42676-.33877,1.04007-.76111a3.80077,3.80077,0,0,1,1.257-.53826,1.82389,1.82389,0,0,1,1.53892.0414,1.04343,1.04343,0,0,1,.44062,1.16222A1.21745,1.21745,0,0,1,4.12537,4.16c-.1924-.00872-.334-.06085-.493.03016a.785.785,0,0,0-.28733.43238,1.72075,1.72075,0,0,0-.0865.98592,2.297,2.297,0,0,0,.26065.61611c.41422.77667.64121,1.20229,1.02128,1.24469a.76991.76991,0,0,0,.51063-.15958.90271.90271,0,0,0,.383-.67021C5.453,6.2487,5.14518,6.15417,5.115,5.682a.98789.98789,0,0,1,.12766-.60638c.29731-.44717.86984-.13518,1.30158-.53832.4614-.43083.19866-1.086.6744-1.39159.14837-.09532.34536-.1244.45211-.26479a.65421.65421,0,0,0,.0667-.47462L7.61362,1.322a.37379.37379,0,0,0-.06007-.19484.37359.37359,0,0,0-.16793-.101L6.44593.66851A.29351.29351,0,0,0,6.21112.64876c-.07843.04091-.0935.15567-.09887.29416-.01886.48658.13577.65017.04067.78085-.11.15119-.44123.10293-.62727.03431a1.0862,1.0862,0,0,1-.48048-.40471A2.134,2.134,0,0,1,4.64981.27955,3.02436,3.02436,0,0,0,3.99339.108,3.02721,3.02721,0,0,0,1.89776.53265,11.21774,11.21774,0,0,0,.32662,2.1245Z"/>
   <path class="a"
         d="M2.28835,7.73189a3.47976,3.47976,0,0,1,.70315.83289c.3367.56063.22191.83007.59153,1.20233.22912.23074.309.16321.44681.31915.70465.79709-.68723,3.34692-.90245,3.74119-.3259.597-.6555,1.08128-.52047,1.21609.102.10188.42019-.045.75934-.24178,1.25216-.72666,3.31169-1.92184,3.90736-4.35738a3.59875,3.59875,0,0,0-.02037-2.2411A3.80022,3.80022,0,0,0,6.25991,6.863c-.81147-.81477-1.9927-1.58945-2.19419-1.87237A.44439.44439,0,0,0,3.895,4.82148a.348.348,0,0,0-.2208.00032c-.5154.13384-1.77453,1.84372-1.80678,1.8869a.61648.61648,0,0,0-.16731.44139C1.73415,7.39059,1.98545,7.48691,2.28835,7.73189Z"/>

</g>
</svg>
