<?xml version="1.0" encoding="UTF-8"?>
<svg xmlns="http://www.w3.org/2000/svg"
     version="1.1"
     width="35.42208318mm"
     height="58.17495213mm"
     viewBox="0.00000000 0.00000000 100.40907988 164.90536554">

<g transform="scale(3.04789467)">   <defs>
      <style type="text/css"><![CDATA[
      .a {
        stroke: #000;
        stroke-miterlimit: 10;
        stroke-width: 0.15px;
      }
    ]]></style>
   </defs>
   <path class="a"
         d="M1.80856,21.22417a31.11869,31.11869,0,0,1-1.2784-4.373,38.96135,38.96135,0,0,1-.3466-8.0313c.0019-2.3847-.5996-5.3574,1.0092-7.3681a3.528,3.528,0,0,1,4.8677-.6787c1.6758,1.4165,2.0908,4.3974,2.083,6.4423-.0102,2.6583-.0302,5.3174-.0405,7.9781-.0103,2.7339.0103,5.4731-.0044,8.209-.0117,2.4521-.2432,4.665.7642,6.955,2.6528,6.0142,4.9751,11.65579,10.4565,15.69679,2.3081,1.70611,4.7056,2.13581,7.3887,2.86131,3.1406.8555,6.5088.7012,6.1318,4.8233a37.15268,37.15268,0,0,1-14.2622-.9204c-3.3052-.9239-5.668-3.084-8.0185-5.4468-3.4917-3.5225-4.7603-7.7251-5.2608-12.50341-.3442-3.291-.7622-7.04839-2.0708-10.10789C2.72256,23.57287,2.24016,22.40977,1.80856,21.22417Z"/>
   <path class="a"
         d="M10.71916,47.14857c-.0444-1.6211-.3974-3.13731-1.7226-3.40431-1.7505-.35309-3.0337,2.58981-3.9717,3.74071-1.1411,1.4062-3.1392,3.522-2.3853,5.5161,1.4082-.0122,2.8716.9849,4.3814.5146C9.82756,52.62407,10.78806,49.69787,10.71916,47.14857Z"/>

</g>
</svg>
