<?xml version="1.0" encoding="UTF-8"?>
<svg xmlns="http://www.w3.org/2000/svg"
     version="1.1"
     width="44.84886226mm"
     height="55.62629153mm"
     viewBox="0.00000000 0.00000000 127.13069905 157.68078951">

<g transform="scale(3.57576568)">   <defs>
      <style type="text/css"><![CDATA[
      .a {
        stroke: #000;
        stroke-miterlimit: 10;
        stroke-width: 0.15px;
      }
    ]]></style>
   </defs>
   <path class="a"
         d="M14.90276,36.22133a3.53233,3.53233,0,0,0-1.32738,2.65072,1.24355,1.24355,0,0,0,.23394.68485,1.61574,1.61574,0,0,0,1.29145.41843,19.9952,19.9952,0,0,0,16.08214-8.14478,1.19974,1.19974,0,0,0,.25949-.53274c.06784-.5503-.63792-.91721-1.17608-.78379a2.99672,2.99672,0,0,0-1.39.8888c-.88753.91241-1.69679.823-4.47249,1.57708-3.08205.83735-2.475,1.05375-5.17673,1.74515C16.84895,35.33363,15.96187,35.2726,14.90276,36.22133Z"/>
   <path class="a"
         d="M1.80468,39.9637A2.41376,2.41376,0,0,0,.23343,41.16884a1.81208,1.81208,0,0,0-.12766,1.06384A1.91625,1.91625,0,0,0,.70151,43.254a3.99747,3.99747,0,0,0,3.09226.72717A11.92219,11.92219,0,0,0,6.87,42.98286,26.3289,26.3289,0,0,0,9.942,41.61571a11.3566,11.3566,0,0,0,3.01486-2.2341c.09645-.10382,1.036-1.1153.89271-1.283-.14453-.16919-1.24872.68621-2.97782,1.666-2.31243,1.3103-5.06652,2.46005-5.53506,1.85077-.19883-.25854.15856-.64578-.12451-1.08481-.23162-.35922-.68947-.439-1.40426-.55319A4.00256,4.00256,0,0,0,1.80468,39.9637Z"/>
   <path class="a"
         d="M12.2191,18.183a7.53774,7.53774,0,0,0,1.29093-3.227c.038-.2795.13467-1.03339-.12766-1.14893-.15778-.06948-.38033.12059-.68086.383a6.582,6.582,0,0,0-1.192,1.43663c-.29146.44429-.28939.47356-.60989.9805-.22.348-.46551.67907-.71075,1.00975a22.76385,22.76385,0,0,0-1.7144,2.62929c-.347.63088-.55926,1.10343-.97951,2.051-.33882.764-.30647.7502-.87677,2.11754Q5.34539,27.4665,5.345,27.4673a6.41545,6.41545,0,0,0-.44147,1.17395,7.72447,7.72447,0,0,0-.19747,1.2218c-.19445,1.731-.135,1.94116-.35353,2.32007-.28329.49127-.61243.53543-1.05528.9006-.91364.75339-1.08745,2.23169-1.39776,5.15757-.11073,1.04409-.2056,2.37.37638,2.91272.126.11746.5894.48224.75061.37552a.25747.25747,0,0,0,.092-.11356.55568.55568,0,0,0,.02883-.24191,13.10924,13.10924,0,0,1,.623-4.3458,26.16594,26.16594,0,0,1,.98793-2.48L5.9737,31.57564C9.828,22.783,11.985,18.48985,12.2191,18.183Z"/>
   <path class="a"
         d="M11.893,11.254c-.94735.94188-.30906,3.23233.65823,4.70618a10.14811,10.14811,0,0,0,2.2035,2.11075,17.52448,17.52448,0,0,1,5.10116,10.183c.25914,3.07-.54458,7.37222.67541,8.02136a2.5018,2.5018,0,0,1,.80851.55319c.59778.63691.50062,1.30365.89362,1.44681.31885.11615.7015-.2066,1.10416-.55465.38744-.3349,1.80762-1.56247,1.60532-3.00748a2.21713,2.21713,0,0,0-.4282-1.01883c-.94009-1.26267-1.1958-4.25772-2.71756-8.77533-.60241-1.78838-.56741-1.33408-1.01052-2.72881-.36255-1.14111-1.67814-5.5124-1.55477-6.817a1.38315,1.38315,0,0,0-.13811-.80819,1.31978,1.31978,0,0,0-.48973-.49042c-1.09356-.6769-1.67274-2.17281-3.56208-2.99074a3.4514,3.4514,0,0,0-2.0084-.3316A2.14169,2.14169,0,0,0,11.893,11.254Z"/>
   <path class="a"
         d="M20.219,18.6767c-1.26112,1.43232-1.43692,1.35278-2.96434,3.08789-1.08645,1.23417-1.8972,2.341-3.51872,4.55449a19.51664,19.51664,0,0,0-2.48128,3.99868c-.39225.89978-.84688,2.17167-.68084,2.25534.19083.0962,1.09121-1.43273,1.95744-2.72341a46.21817,46.21817,0,0,1,5.24813-6.19642c1.30976-1.41346,3.87131-4.31607,8.99441-10.12126,2.08345-2.36085,3.83156-5.02835,6.09789-7.21423a11.94043,11.94043,0,0,0,1.50369-1.9035c1.19294-1.82558,1.14-2.75589,1.075-3.25116A1.2844,1.2844,0,0,0,34.88968.15784c-.51725-.27651-1.24075.21026-1.554.422-2.12554,1.43634-4.32308,5.34-4.97454,6.46136-1.34193,2.30988-.99769,1.20389-4.34043,6.25531A42.47941,42.47941,0,0,1,20.219,18.6767Z"/>

</g>
</svg>
