<?xml version="1.0" encoding="UTF-8"?>
<svg xmlns="http://www.w3.org/2000/svg"
     version="1.1"
     width="11.46454967mm"
     height="58.55307971mm"
     viewBox="0.00000000 0.00000000 32.49788559 165.97726370">

<g transform="scale(3.27041836)">   <defs>
      <style type="text/css"><![CDATA[
      .a {
        stroke: #000;
        stroke-miterlimit: 10;
        stroke-width: 0.15px;
      }
    ]]></style>
   </defs>
   <path class="a"
         d="M.07519,10.46105C.0684,8.01133.249,5.56455.20409,3.11485A18.1201,18.1201,0,0,1,.30279.52065C.3604.07925.377.008.76569.12515c.7509.226,1.6044-.0669,2.3281.3305.9717.53368.8623,1.84868.8613,2.7808-.0029,2.5605,0,5.1123,0,7.6714,0,2.8784.8086,5.4531,1.0752,8.2544a88.15413,88.15413,0,0,0,1.166,9.1274c1.043,5.1382,2.8194,10.2588,3.3643,15.541.1191,1.1519.6845,3.98-.1328,4.8682a14.47048,14.47048,0,0,1-2.125,1.3184,2.56588,2.56588,0,0,1-2.35939.5195,5.5516,5.5516,0,0,1-.03811-1.44042,10.61718,10.61718,0,0,0-.2207-1.80128,8.30208,8.30208,0,0,1-.16019-.854c-.04681-.71972-.16991-1.3945-.16991-2.1275,0-.7631.00691-1.5219-.0644-2.2729a4.244,4.244,0,0,0-.1446-1.0557A4.45046,4.45046,0,0,1,4,39.47375c-.01559-.686-.0654-1.3701-.0625-2.0566.002-.4659-.0859-.9063-.083-1.3697a8.61,8.61,0,0,0-.1094-1.5507c-.081-.5-.6044-.6319-.4384-1.32042.2148-.89208,1.3974-1.166,1.5146-2.23628.2363-2.1792-2.8594-2.3579-2.9131-4.6372-.0429-1.8472,1.4434-3.0303,1.919-4.6519.6924-2.3691-1.1612-3.9018-2.1104-5.913C.86429,13.93075.08109,12.56215.07519,10.46105Z"/>

</g>
</svg>
