<?xml version="1.0" encoding="UTF-8"?>
<svg xmlns="http://www.w3.org/2000/svg"
     version="1.1"
     width="13.81840490mm"
     height="46.21002805mm"
     viewBox="0.00000000 0.00000000 39.17036070 130.98903211">

<g transform="scale(7.55223773)">   <defs>
      <style type="text/css"><![CDATA[
      .a {
        stroke: #000;
        stroke-miterlimit: 10;
        stroke-width: 0.15px;
      }
    ]]></style>
   </defs>
   <path class="a"
         d="M1.70124.71442a2.4155,2.4155,0,0,0-.44681.92552A6.16943,6.16943,0,0,0,.9685,3.52843C1.01281,5.72965.87536,8.56.83953,9.20378a19.7152,19.7152,0,0,1-.32718,3.27128A11.11563,11.11563,0,0,0,.13741,16.3208a1.10646,1.10646,0,0,0,.42488.81222c.22854.133.37017.01734.97937.04948.5981.03155.75164.1583.95745.03192.23694-.1455.26858-.45787.31915-.734a8.93784,8.93784,0,0,1,.7-1.81679c.618-1.76606.1659-4.44892.99152-7.82151A22.01959,22.01959,0,0,0,5.111,2.34079a2.40662,2.40662,0,0,0-.34588-1.33914A2.00589,2.00589,0,0,0,3.48847.108,1.9484,1.9484,0,0,0,1.70124.71442Z"/>

</g>
</svg>
