<?xml version="1.0" encoding="UTF-8"?>
<svg xmlns="http://www.w3.org/2000/svg"
     version="1.1"
     width="54.97606338mm"
     height="48.69693316mm"
     viewBox="0.00000000 0.00000000 155.83763868 138.03855801">

<g transform="scale(4.43078426)">   <defs>
      <style type="text/css"><![CDATA[
      .a {
        stroke: #000;
        stroke-linecap: round;
        stroke-linejoin: round;
        stroke-width: 0.01px;
      }
    ]]></style>
   </defs>
   <path class="a"
         d="M7.90927.071A2.33934,2.33934,0,0,0,6.87959.87659c-.01817.07874-.06057.1393-.08479.1393a.85629.85629,0,0,0-.218.1696c-.212.218-.24834.49061-.1696,1.4052A6.45772,6.45772,0,0,1,6.395,3.83236a3.44367,3.44367,0,0,0-.0363,1.12658c.0424.19382.03634.26045-.0424.33919s-.103.23016-.11508.67837a2.6174,2.6174,0,0,0,.0424.67232,1.5247,1.5247,0,0,1-.04846.56935,1.15985,1.15985,0,0,0-.01817.67837.42145.42145,0,0,1,.03634.26651,3.65628,3.65628,0,0,0-.09691.7874c.00606.04845.01817.41792.03634.81768.01212.39976.0424.86008.06057,1.02967.0424.3937.09691,1.387.09086,1.69594-.00606.54512.01211.72683.07268.80557a.7285.7285,0,0,1,.0848.30284,1.51222,1.51222,0,0,0,.04239.315c.01212.04846.04846.20594.07269.3513a.61858.61858,0,0,0,.29679.44821,4.7356,4.7356,0,0,1,.36947.32708,1.08009,1.08009,0,0,0,.315.19988c.23016.09085.29073.212.16353.33918-.12719.12114-.25439.11508-.59963-.03634a1.91865,1.91865,0,0,0-.59963-.13931,1.53977,1.53977,0,0,1-.37553-.04845,1.09293,1.09293,0,0,1-.17565-.33313,1.44712,1.44712,0,0,0-.27256-.44821,1.57041,1.57041,0,0,1-.29074-.43c-.109-.25439-.14536-.28468-.38158-.321a3.67506,3.67506,0,0,0-.59964-.0424c-.39369.01211-.82979-.13931-.87825-.29679-.02423-.06662-.06057-.11508-.08479-.11508a2.2562,2.2562,0,0,1-.61781-.62386.66438.66438,0,0,1-.13325-.3937c.06057-.62992.06057-.72077-.03029-.89037A3.92972,3.92972,0,0,1,2.45805,10.18a1.6384,1.6384,0,0,0-.09691-.51484,1.71173,1.71173,0,0,1-.09086-.48455.812.812,0,0,0-.11508-.45427.19852.19852,0,0,1-.05451-.2241,13.08949,13.08949,0,0,0-.09691-2.86494.5.5,0,0,1-.0424-.27256A.33041.33041,0,0,0,1.93715,5.183c-.04239-.07268-.01211-.14537.09691-.26045.13931-.15142.14537-.20593.14537-.81162,0-.35131.00606-.72683.01817-.82374a2.87863,2.87863,0,0,0-.2241-1.066,1.45481,1.45481,0,0,0-.5875-.59357C.91354,1.452.61675,1.90626.48955,3.01467c-.0424.315-.09085.72683-.12114.90854a1.22251,1.22251,0,0,0,.01212.48455A5.18859,5.18859,0,0,1,.24728,5.922a2.43,2.43,0,0,0,0,.60569c.04239.46638.00605.62992-.17565.76923-.0848.06057-.0848.0848.03634.19382.13931.13325.13325.27256-.01817.33313-.06663.02423-.0848.24228-.0848,1.169,0,1.066.00606,1.15082.12114,1.24773.12719.109.13931.16959.12114.69049a1.18637,1.18637,0,0,0,.06057.44215,1.62221,1.62221,0,0,1,.09691.44216c.01817.17565.04239.44821.06057.61174a1.69433,1.69433,0,0,0,.1393.51484,5.38606,5.38606,0,0,1,.27862,1.42332,4.87547,4.87547,0,0,0,.13325.79346.666.666,0,0,1,.02423.27256,1.95026,1.95026,0,0,0,.41187.848.99682.99682,0,0,1,.18777.36947,1.74519,1.74519,0,0,0,.30284.54512,2.26708,2.26708,0,0,0,1.1811.45427.355.355,0,0,1,.29073.0848c.15748.12113.527.16959.527.06662,0-.05451.1696-.13325.36342-.16353a.36009.36009,0,0,1,.2241.06662.62017.62017,0,0,0,.3513.06663,3.83006,3.83006,0,0,1,.55724.03028.94937.94937,0,0,0,.45427-.01211.85278.85278,0,0,1,.45426.00606,7.05808,7.05808,0,0,0,.76923.09085,4.98717,4.98717,0,0,1,.55724.05451.54768.54768,0,0,0,.34524-.06662,5.1944,5.1944,0,0,1,1.599-.13931.47733.47733,0,0,0,.29073-.09691c.12114-.1272.44821-.19988,1.09024-.25439.527-.04846.69655-.13326.90854-.46033a1.18325,1.18325,0,0,1,.36341-.321c.77529-.43.78134-.43,1.278-.43609a6.6693,6.6693,0,0,0,1.24167-.07874c.30284-.04846.43-.04846.53906.01211a2.6789,2.6789,0,0,0,1.47789-.03028,2.01229,2.01229,0,0,1,.55118-.109A4.85241,4.85241,0,0,0,19.06,15.813a1.09768,1.09768,0,0,1,.34524-.07269,1.46993,1.46993,0,0,0,.38765-.07268c.08479-.03028.16959-.04846.1817-.03028a.40347.40347,0,0,0,.218-.05452c.25439-.103.32707-.06662.47244.23017a2.25658,2.25658,0,0,1,.23016.73894,1.91971,1.91971,0,0,0,.15748.45427,8.59717,8.59717,0,0,1,.20594,2.81646,19.618,19.618,0,0,0,.103,2.10175,1.317,1.317,0,0,1-.06662.58752,1.07946,1.07946,0,0,0-.07268.3513.97506.97506,0,0,1-.02423.3513c-.03634.16959-.07268.38159-.0848.48455-.01817.09691-.0848.38764-.15142.636-.07268.24833-.13931.52089-.15142.59358a.5541.5541,0,0,1-.109.24227,1.71815,1.71815,0,0,0-.19382.79951.79253.79253,0,0,1-.12114.35736c-.07874.16354-.23622.51484-.33918.77529a3.36459,3.36459,0,0,1-.26651.56329,4.03435,4.03435,0,0,0-.51484,1.19927.91621.91621,0,0,1-.16959.41187c-.17565.24833-.33313.67231-.27862.76317a.5188.5188,0,0,1-.03028.2665.6057.6057,0,0,0,.15748.61781c.29073.35735,1.60508.27256,2.21077-.14537a3.19509,3.19509,0,0,1,.62992-.3089,1.36676,1.36676,0,0,0,.47244-.23016,5.72722,5.72722,0,0,1,.55723-.41187c.03634-.01818.16354.03028.29074.11508a1.18506,1.18506,0,0,0,.38158.1817,1.37979,1.37979,0,0,1,.2665.0848.69724.69724,0,0,0,.29679.06057.974.974,0,0,1,.36342.09085,2.94322,2.94322,0,0,0,1.13264.0848c.80557-.01211.98728.00606,1.16293.09085a1.59656,1.59656,0,0,0,.54512.13326,5.65751,5.65751,0,0,1,.61175.07268.56.56,0,0,0,.45426-.06057,1.88057,1.88057,0,0,1,.51484-.14537.9404.9404,0,0,0,.36947-.09691.93819.93819,0,0,1,.3937-.07874,5.18977,5.18977,0,0,0,.78134-.15142c.23622-.07268.45427-.13325.48456-.14536.2241-.05452.33313-.11509.33313-.18777,0-.16959.56329-.745.90248-.91459a8.8061,8.8061,0,0,0,.88431-.5209c.03634-.02422.18171-.15748.33313-.29073a1.64009,1.64009,0,0,1,.49666-.3089.668.668,0,0,0,.30285-.14537,1.698,1.698,0,0,1,.62386-.53906.63446.63446,0,0,0,.28467-.24228c.03635-.09085.09086-.15748.12114-.15748s.02423-.03634-.01211-.07874c-.03029-.03634-.11508-.14536-.18777-.24227-.16353-.218-.29678-.18171-.97516.24227a4.40606,4.40606,0,0,1-.9691.45427,2.63346,2.63346,0,0,0-.94488.41187,1.3836,1.3836,0,0,1-.43.18171,1.05127,1.05127,0,0,0-.41187.18171,1.51173,1.51173,0,0,1-1.04785.35735c-.04845-.006-.41187-.01211-.80557-.01817a2.03168,2.03168,0,0,1-.75711-.07268,1.8163,1.8163,0,0,0-.48455-.20594,2.55609,2.55609,0,0,1-.57541-.24227,2.84246,2.84246,0,0,0-.38764-.23016,2.31517,2.31517,0,0,1-.41187-.27862,1.08512,1.08512,0,0,0-.49061-.21805,1.28055,1.28055,0,0,1-.848-.61175c-.04845-.09691-.07268-.17565-.06057-.17565a.88832.88832,0,0,0-.109-.321,1.16854,1.16854,0,0,1-.11508-.41792.52635.52635,0,0,0-.06663-.28468c-.13325-.25439-.12114-.37553.07268-.64809a3.06871,3.06871,0,0,0,.27862-.49666,2.01008,2.01008,0,0,1,.26045-.41187,1.34662,1.34662,0,0,0,.321-.58147.83606.83606,0,0,1,.13931-.29073,2.23446,2.23446,0,0,0,.315-.99939,3.55989,3.55989,0,0,1,.06057-.424c.03634-.16354.01212-.212-.20593-.41187-.212-.19382-.27256-.218-.48456-.19988-.29073.03028-.43609.12719-.73288.48455a1.7498,1.7498,0,0,0-.32708.65415c-.05451.212-.12719.44821-.15748.533a2.39173,2.39173,0,0,0-.08479.35735.69445.69445,0,0,1-.14537.33313,1.49329,1.49329,0,0,0-.218.39976,6.91,6.91,0,0,1-.79951,1.272,2.28806,2.28806,0,0,1-.41793.33313c-.39369.22411-.54512.1272-.5754-.38158a3.42086,3.42086,0,0,1,.01817-.73895,5.30948,5.30948,0,0,0,.11508-.93882,1.22772,1.22772,0,0,1,.09691-.48455,1.13079,1.13079,0,0,0,.07268-.51484,9.58667,9.58667,0,0,1,.09691-2.25317.94662.94662,0,0,0,.04846-.52089,1.256,1.256,0,0,1-.03028-.28468,3.26077,3.26077,0,0,0,.04239-.41187,3.88134,3.88134,0,0,1,.0848-.59357.68815.68815,0,0,0,0-.44216,1.229,1.229,0,0,1-.05451-.33919c0-.08479-.00606-.28467-.02423-.44821a.85638.85638,0,0,1,.24228-.81162,3.8089,3.8089,0,0,0,.46638-.43,1.78228,1.78228,0,0,1,.41187-.28468.53755.53755,0,0,0,.26045-.212.37518.37518,0,0,1,.14536-.17565.4825.4825,0,0,0,.18171-.23016.58323.58323,0,0,1,.32707-.29073,2.90114,2.90114,0,0,0,.96911-.90854,1.38457,1.38457,0,0,1,.24833-.321,2.85363,2.85363,0,0,0,.56935-1.24772c.15748-.49667.18171-.64809.13931-.83585a.93685.93685,0,0,0-.62386-.70261c-.13931-.04239-.36342-.12113-.48456-.16959a1.13993,1.13993,0,0,0-.636-.04846c-.23016.02423-.72683.0424-1.10842.0424a5.44088,5.44088,0,0,0-.93881.06057,2.1575,2.1575,0,0,1-.4785.06057,1.72546,1.72546,0,0,0-.55118.11508,3.78829,3.78829,0,0,0-1.21744.8722,4.18929,4.18929,0,0,1-.33313.40581,1.423,1.423,0,0,0-.23621.30285,2.98694,2.98694,0,0,1-.3937.44215,2.06241,2.06241,0,0,0-.636,1.0539c0,.26651-.24228.38159-.99334.46639a1.593,1.593,0,0,0-.35736.06662,5.379,5.379,0,0,1-1.381.19382,1.50305,1.50305,0,0,0-.26046-.07874,1.7144,1.7144,0,0,1-.36946-.14536,1.61171,1.61171,0,0,0-.38764-.16354.96692.96692,0,0,1-.38764-.23016,1.75306,1.75306,0,0,0-.90248-.46638.85753.85753,0,0,0-.36343.12113.83465.83465,0,0,1-.30284.12114.29763.29763,0,0,0-.19988.14537,1.54633,1.54633,0,0,1-.7874.39975.53811.53811,0,0,1-.49061-.109.80785.80785,0,0,0-.13931-.109,1.97723,1.97723,0,0,1-.218-.04239,3.55858,3.55858,0,0,0-.64809-.1272.53881.53881,0,0,1-.26044-.11508.59972.59972,0,0,0-.26045-.13931c-.45427-.103-.61781-.15748-.61781-.19988a.97857.97857,0,0,0-.20593-.26044,2.12368,2.12368,0,0,1-.54512-1.12053,2.65955,2.65955,0,0,0-.218-.636c-.1272-.218-.1272-.47244,0-.47244.03028,0,.02423-.103-.01212-.2241a3.07522,3.07522,0,0,1-.07268-.527,3.85,3.85,0,0,0-.06057-.49061,1.75049,1.75049,0,0,1-.04845-.99939A3.33687,3.33687,0,0,0,8.64215,6.776a1.55487,1.55487,0,0,1-.03634-.73895,1.34935,1.34935,0,0,0,0-.5754.68892.68892,0,0,1-.05451-.26045.975.975,0,0,0-.02423-.24833,6.40186,6.40186,0,0,1-.07268-.7874,18.993,18.993,0,0,0-.18171-2.47728.27385.27385,0,0,1,.0848-.19382A1.27912,1.27912,0,0,0,8.58158.7615c.01818-.23016,0-.29073-.08479-.315a.55867.55867,0,0,1-.212-.24833C8.17577-.032,8.17577-.032,7.90927.071ZM24.14784,12.79658a.191.191,0,0,1,.0424.17565,3.44444,3.44444,0,0,1-.79951.96911,1.145,1.145,0,0,0-.3089.27256c0,.11508-.18777.12114-.29679.01212a3.02618,3.02618,0,0,1-.44216-1.15082c-.02422-.212.23017-.321.73895-.315a1.52144,1.52144,0,0,0,.48455-.05451A.58668.58668,0,0,1,24.14784,12.79658Z"/>
   <path class="a"
         d="M11.51313,30.41614a.17057.17057,0,0,0,.06057.12719c.03634.01817.06057-.00606.06057-.05451a.15247.15247,0,0,0-.06057-.1272C11.54341,30.34345,11.51313,30.36768,11.51313,30.41614Z"/>

</g>
</svg>
