<?xml version="1.0" encoding="UTF-8"?>
<svg xmlns="http://www.w3.org/2000/svg"
     version="1.1"
     width="44.91836015mm"
     height="30.40751234mm"
     viewBox="0.00000000 0.00000000 127.32760700 86.19446402">

<g transform="scale(6.36513278)">   <defs>
      <style type="text/css"><![CDATA[
      .a {
        stroke: #000;
        stroke-miterlimit: 10;
        stroke-width: 0.15px;
      }
    ]]></style>
   </defs>
   <path class="a"
         d="M14.10459,2.37973c-1.04416.80753-1.40449,1.07159-1.86031,1.37063-.57.374-1.175.69123-1.75736,1.04572-3.38129,2.05839-5.94326,5.33509-9.48585,7.10147a1.679,1.679,0,0,0-.41975.33811c-.46964.431-.5009.65848-.505.75119a.45635.45635,0,0,0,.06641.29071c.18528.26608.6832.17942.77828.16073a1.81685,1.81685,0,0,0,.84681-.503Q7.724,9.15439,13.29149,4.80334A12.75122,12.75122,0,0,1,17.13131,2.4494a14.47162,14.47162,0,0,0,1.65247-.51A1.89678,1.89678,0,0,0,19.91913.71622a.29548.29548,0,0,0-.00084-.153c-.06816-.22348-.441-.296-.73559-.34237A5.49216,5.49216,0,0,0,17.65078.09323C16.82445.19885,16.3654.6313,14.10459,2.37973Z"/>

</g>
</svg>
