<?xml version="1.0" encoding="UTF-8"?>
<svg xmlns="http://www.w3.org/2000/svg"
     version="1.1"
     width="104.57810205mm"
     height="42.69499043mm"
     viewBox="0.00000000 0.00000000 296.44184513 121.02516706">

<g transform="scale(5.59901992)">   <defs>
      <style type="text/css"><![CDATA[
      .a {
        stroke: #000;
        stroke-miterlimit: 2.61313;
        stroke-width: 0.28346px;
      }
    ]]></style>
   </defs>
   <path class="a"
         d="M24.85059.16162a1.47664,1.47664,0,0,1-1.10352,1.93164,1.73874,1.73874,0,0,1-1.64258.10742c-5.06836.94336-10.13672,1.73438-15.207,3.05859,1.959.56836,12.58594-.84766,21.42188-.39844.14063-.15625.28125-.31055.42188-.46484,8.125.8125,16.19141,3.26758,24.05469,11.31445q-.57129,4.42383-2.64062,5.70508c-1.97656-3.70312-7.207-7.53906-15.13086-11.48633a48.34493,48.34493,0,0,0-14.082-2.793q-8.79785.37793-17.59375.75781C1.93457,7.85107.55762,7.78271.28027,6.939q-.457-.82617.5957-1.17578C3.77051,3.80225,8.63184,2.78662,13.77441,1.90771q5.53711-.873,11.07617-1.74609Z"/>

</g>
</svg>
