<?xml version="1.0" encoding="UTF-8"?>
<svg xmlns="http://www.w3.org/2000/svg"
     version="1.1"
     width="8.64550662mm"
     height="35.51672622mm"
     viewBox="0.00000000 0.00000000 24.50701990 100.67735601">

<g transform="scale(4.33313116)">   <defs>
      <style type="text/css"><![CDATA[
      .a {
        stroke: #000;
        stroke-miterlimit: 10;
        stroke-width: 0.15px;
      }
    ]]></style>
   </defs>
   <path class="a"
         d="M.49906,13.5347a3.14607,3.14607,0,0,0-.2129-1.6865A6.31729,6.31729,0,0,1,.125,10.13139V5.6118a6.95429,6.95429,0,0,1,.1612-2.6972c.3769-.74521,1.2343-.9248,1.749-1.4991.4092-.45111.4541-1.20111,1.1846-1.3252.5791-.0966.6455.2764.9804.7784.291.4326.708.7216,1.0059,1.1338.8652,1.1875-.0078,3.1572-.2373,4.3935-.3233,1.7422.12891,3.5645-.3067,5.27539a25.1335,25.1335,0,0,0-.497,5.28521,2.06042,2.06042,0,0,1-.1397.8994c-.333.7412-.5693.8457-.5263,1.7343a4.65851,4.65851,0,0,0,.4931,2.0674c.251.459.6719.9082.1953,1.3164-.3457.2969-1.5605.15729-2.0195.1182-.4814-1.5752.4502-3.7881-.4648-5.1738C.69826,16.4009.03706,15.4478.49906,13.5347Z"/>

</g>
</svg>
