<?xml version="1.0" encoding="UTF-8"?>
<svg xmlns="http://www.w3.org/2000/svg"
     version="1.1"
     width="29.08488883mm"
     height="34.91762034mm"
     viewBox="0.00000000 0.00000000 82.44532993 98.97906714">

<g transform="scale(4.27394008)">   <defs>
      <style type="text/css"><![CDATA[
      .a {
        stroke: #000;
        stroke-miterlimit: 10;
        stroke-width: 0.15px;
      }
    ]]></style>
   </defs>
   <path class="a"
         d="M.37986,11.39069a.78669.78669,0,0,0,.005.56628,9.41425,9.41425,0,0,0,.7175,1.88026,18.08589,18.08589,0,0,1,2.3383,3.95149,14.24462,14.24462,0,0,1,.63088,2.781,1.236,1.236,0,0,0,.302.95086,1.0825,1.0825,0,0,0,.55858.21027,2.594,2.594,0,0,0,1.25532.04256c1.04526-.34414,1.21382-2.14146,1.22205-2.24143a11.12778,11.12778,0,0,0-.22832-1.77974,16.587,16.587,0,0,1-.3177-2.1344,7.43992,7.43992,0,0,0-.032-1.06181,5.08518,5.08518,0,0,0-.68659-1.59113c-.32092-.59157-.6072-1.08223-.97157-1.6792-.79671-1.3053-.94519-1.44525-1.17737-1.53357a2.0583,2.0583,0,0,0-1.4468.17021c-.8785.31362-.85706.70447-1.74468,1.10639A.78791.78791,0,0,0,.37986,11.39069Z"/>
   <path class="a"
         d="M8.57042,1.07127A4.37551,4.37551,0,0,0,7.43636,2.6744,3.84785,3.84785,0,0,0,7.20871,4.05,4.27785,4.27785,0,0,0,7.421,5.37561a.57924.57924,0,0,1,.34092.22757.6654.6654,0,0,1,.05469.44082c-.0287.60255,1.44858.89282,2.10692,1.83727a2.78563,2.78563,0,0,1,.37895,1.3051,39.65965,39.65965,0,0,1,.24668,6.48065c-.02417.48667-.0701,1.28488.40425,1.63829a1.77347,1.77347,0,0,0,1.10638.21277,3.98541,3.98541,0,0,0,.80852-.21277c.27252-.09079.47984-.17768.51063-.19149,1.01117-.45335.42633-6.7224.28774-8.32021-.06038-.69613-.17709-1.38931-.18562-2.088a5.44778,5.44778,0,0,0-.09842-1.06573,3.141,3.141,0,0,0-.3983-1.09294c-.19469-.31353-.37627-.60595-.66922-.64587-.268-.03652-.37415.173-.70214.12766-.12222-.01691-.15657-.05281-.51063-.25532-.70258-.40187-.80544-.39674-.87235-.3617a.457.457,0,0,0-.14892.46808c.0251.12519.09141.18971.36169.46809.38542.397.41347.43356.40427.4468-.02257.03251-.24875-.10542-.97873-.51063a3.10054,3.10054,0,0,1-.82979-.5532,1.17771,1.17771,0,0,1-.35008-.53026,1.00409,1.00409,0,0,1,.18184-.88366c.45793-.51576,1.47923-.14414,1.57249-.43714.04367-.13721-.14049-.34373-.288-.50921-.2176-.244-.40982-.31224-.39276-.43067C9.77533.847,9.907.79635,10.05559.73921c.36122-.1389.53165-.04584.77014-.19986.04494-.029.23366-.15089.21277-.25531C11.00336.10834,10.3795.005,9.8584.13027A2.67382,2.67382,0,0,0,8.57042,1.07127Z"/>
   <path class="a"
         d="M6.71373,18.15856a2.05491,2.05491,0,0,0-.37736.12548,2.60543,2.60543,0,0,0-1.04254.93617A20.904,20.904,0,0,1,3.23,21.56063a1.18911,1.18911,0,0,0-.36169.55319.85748.85748,0,0,0,.21277.9149.66492.66492,0,0,0,.55319-.02128c1.07889-.41947,9.90419-3.76321,11.95744-3.17021a1.73459,1.73459,0,0,0,1.10639.02127c.07853-.02881.22676-.09166.87234-.68085a4.74735,4.74735,0,0,0,.82978-.85106,3.22914,3.22914,0,0,0,.33627-1.098,6.59657,6.59657,0,0,1,.17438-.98708,6.7615,6.7615,0,0,0,.2283-.66994c.13008-.51065.05925-.62886.03477-.6644-.111-.16127-.34613-.18686-.56259-.21042a1.68678,1.68678,0,0,0-.495.0173c-.726.14788-2.17236.11545-3.79984.4704a40.495,40.495,0,0,0-4.32051,1.71664A26.58418,26.58418,0,0,1,6.71373,18.15856Z"/>
   <path class="a"
         d="M.14488,6.19893A.85208.85208,0,0,0,.095,6.497C.05614,7.71986.08693,8.41654.08106,9.00744.075,9.61539.045,10.293.28549,10.4351c.10181.06016.22327.06038.60407.23192a3.68363,3.68363,0,0,1,.3432.16928c.20964.12322.25124.19261.42276.19242a1.49439,1.49439,0,0,0,.85106-.42554,2.195,2.195,0,0,0,.97873-1.0851,1.37483,1.37483,0,0,0,0-.71545,2.79892,2.79892,0,0,0-.14894-.3271c-.13582-.35425.15779-3.16568.1652-4.383C3.50986,2.731,3.5622,2.13,3.35765,2.07127c-.06334-.01819-.1557.0517-.34042.19149-.35979.27226-.55951.4234-.65958.68085A2.9065,2.9065,0,0,0,2.3151,3.96489c.00793.19672.02078.32-.06383.42858-.13355.1714-.32654.07085-.49187.231-.22163.21467-.0748.589-.25282.65958a.4258.4258,0,0,1-.29787-.06383c-.13292-.06705-.15246-.1374-.2138-.13178-.10222.00937-.1054.209-.233.42965C.55731,5.87183.2748,5.85607.14488,6.19893Z"/>

</g>
</svg>
