<?xml version="1.0" encoding="UTF-8"?>
<svg xmlns="http://www.w3.org/2000/svg"
     version="1.1"
     width="22.35169538mm"
     height="46.82818925mm"
     viewBox="0.00000000 0.00000000 63.35911099 132.74122278">

<g transform="scale(5.88896788)">   <defs>
      <style type="text/css"><![CDATA[
      .a {
        stroke: #000;
        stroke-miterlimit: 10;
        stroke-width: 0.15px;
      }
    ]]></style>
   </defs>
   <path class="a"
         d="M5.27042.2A3.81849,3.81849,0,0,1,7.57961.29556,2.47229,2.47229,0,0,1,8.65108,1.094a3.143,3.143,0,0,1,.45573,1.18311c.01339.05087.06449.45058.16668,1.25.03236.25314.05812.47565-.0625.5625-.13122.09449-.324-.052-.52084.0625a.48723.48723,0,0,0-.19121.254c-.31705.73768-.47557,1.10652-.76713,1.26681a1.06516,1.06516,0,0,1-.64582.08334c-.30717-.05151-.39375-.2109-.625-.16667-.19858.038-.21069.17-.45834.20833a.784.784,0,0,1-.37982-.03855.44859.44859,0,0,1-.299-.20323A.3753.3753,0,0,1,5.336,5.25625a2.56845,2.56845,0,0,0,.9839-1.40679.806.806,0,0,0-.0336-.55811.9878.9878,0,0,0-.7003-.43094,2.544,2.544,0,0,0-1.3987.16c-.819.25748-1.724.542-1.80964,1.09-.03409.21808.06022.48653-.11.62655-.05805.04774-.11731.05628-.26039.0706-.70415.07048-.80169.01718-.991.11608-.17686.0924-.168.17877-.36778.24927-.04686.01653-.29877.10542-.4324.01521-.158-.10669-.13843-.45558.0399-1.0825a5.56024,5.56024,0,0,1,.8529-2.00507C2.10305.7785,3.62988.51108,5.27042.2Z"/>
   <path class="a"
         d="M7.10681,3.08958c.19883-.53912.47375-1.35451.85418-1.35417.11737.0001.21019.09035.39582.27084a1.82108,1.82108,0,0,1,.62991,1.18554,1.41084,1.41084,0,0,1-.09912.572A15.26243,15.26243,0,0,1,7.04438,6.75617c-.745.9502-1.46893,2.02305-2.45839,3.18758a3.455,3.455,0,0,1-1.35418.875c-.18825.06911-.3305.08854-.39582.02083-.02727-.02827-.06367-.09508,0-.3125a1.65429,1.65429,0,0,1,.35416-.625,3.65828,3.65828,0,0,0,.52084-1c.43312-.872,1.14468-1.43456,1.82947-2.4817A17.5196,17.5196,0,0,0,7.10681,3.08958Z"/>
   <path class="a"
         d="M5.87566,11.25362a5.44241,5.44241,0,0,1,4.15459-.25611c.30438.13009.62389.35245.65186.68227.02548.30045-.21619.55837-.50426.81868a5.11671,5.11671,0,0,1-2.22728,1.49737c-1.07.25106-1.31514-.25337-2.65625.0625a10.60558,10.60558,0,0,1-1.15964.3117,3.802,3.802,0,0,1-1.94006-.18882c-.445-.174-.483-.30168-.49123-.33785-.06994-.30817.50208-.6884,1.04714-1.0186A19.40263,19.40263,0,0,1,5.87566,11.25362Z"/>
   <path class="a"
         d="M6.20057,14.15208c-.40234-.43253-.70006-.54223-.6875-.75.01088-.18.24637-.29881.56116-.44589a11.21037,11.21037,0,0,1,1.90744-.78141,9.473,9.473,0,0,1,1.6564-.2727,3.392,3.392,0,0,1,.91676,2.77547,5.85538,5.85538,0,0,1-2.09611,3.45919c-.62371.54559-.63565.37862-2.25815,1.57784-.97072.71746-.88956.7204-1.41181,1.087C2.82722,22.17847.8243,22.7393.54432,22.33958.47,22.2335.52483,22.07084.35681,21.77708c-.14606-.25541-.27158-.27947-.28124-.375-.03346-.33075,1.41528-.59438,2.60251-1.14091a7.61068,7.61068,0,0,0,2.77249-2.23409c.0919-.11378,1.796-2.25838,1.21875-3.25A4.09552,4.09552,0,0,0,6.20057,14.15208Z"/>

</g>
</svg>
