<?xml version="1.0" encoding="UTF-8"?>
<svg xmlns="http://www.w3.org/2000/svg"
     version="1.1"
     width="25.85250279mm"
     height="36.78941331mm"
     viewBox="0.00000000 0.00000000 73.28262649 104.28494186">

<g transform="scale(3.46068623)">   <defs>
      <style type="text/css"><![CDATA[
      .a {
        stroke: #000;
        stroke-linecap: round;
        stroke-linejoin: round;
        stroke-width: 0.01px;
      }
    ]]></style>
   </defs>
   <path class="a"
         d="M12.43334.00777A.70772.70772,0,0,0,12.156.11714a.59109.59109,0,0,1-.26171.09375,17.01241,17.01241,0,0,0-1.88672.42969A.22417.22417,0,0,1,9.8122.67574.47646.47646,0,0,0,9.535.707a3.84085,3.84085,0,0,1-.5625.11328,1.13769,1.13769,0,0,0-.48828.17187,3.82407,3.82407,0,0,1-1.30859.625,2.05123,2.05123,0,0,0-.63672.27344,1.25783,1.25783,0,0,1-.44922.21094c-.87891.24609-.91016.26172-.98438.61718a.92447.92447,0,0,0,.02344.60938c.05859.15234.14063.39844.1875.543.125.42969.30859.52734.95313.52734.3164,0,.63671.00781.71875.00781a2.566,2.566,0,0,0,.45312-.082,1.71387,1.71387,0,0,1,.48826-.086c.10547.00781.375.02343.59766.03125a1.79817,1.79817,0,0,1,.57031.10546,1.28813,1.28813,0,0,0,.41406.12891c.36719.04688.50391.11328.55469.27734.07031.20313-.14844.51172-.43359.63282a2.96371,2.96371,0,0,0-.63672.48437,2.73056,2.73056,0,0,1-.56641.42969,1.39352,1.39352,0,0,0-.418.34375,2.01061,2.01061,0,0,1-.496.41406,1.33844,1.33844,0,0,0-.60156.62891c-.02344.082-.07422.14844-.10547.14844a3.60817,3.60817,0,0,0-.55469.39062c-.79687.64063-1.043.81641-1.17187.81641a3.64614,3.64614,0,0,0-.55469.1289c-.42969.125-.8125.4336-1.59375,1.28516-.03516.04688-.1875.19141-.3125.30859-.14453.13672-.22656.27344-.20313.332.02344.07031-.082.24218-.25.42187-.15625.17578-.32812.36328-.38281.42188a.16007.16007,0,0,1-.17187.07812c-.03907-.03125-.06641.01172-.06641.08984a4.67492,4.67492,0,0,1-.19531.66016c-.10547.28906-.20313.59766-.21875.67969-.11328.5664-.17969.69922-.34375.7539-.16016.05079-.16016.05079.00781.20313a.28652.28652,0,0,1,.10937.31641c-.01953.082-.05859.21875-.07421.30078a.54971.54971,0,0,1-.1875.25.31354.31354,0,0,0-.14063.26953c.01953.17969-.22656.80859-.31641.80859-.03906,0-.05468.1875-.03906.41406a1.71993,1.71993,0,0,1-.03515.50391.26879.26879,0,0,0,.01953.23438.56653.56653,0,0,1-.01953.457,2.68632,2.68632,0,0,0-.01566,1.45316.56755.56755,0,0,1,.09765.211,1.63562,1.63562,0,0,0,.19531.67969.23712.23712,0,0,1,.02734.25781.472.472,0,0,0,.07813.375c.11719.25.14844.64062.043.73828-.02344.02344.00781.08984.0664.15234a.77424.77424,0,0,1,.168.3086,1.29016,1.29016,0,0,0,.19531.40625.5529.5529,0,0,1,.11329.39062.22516.22516,0,0,0,.07421.26563,1.67034,1.67034,0,0,1,.17188.94922c0,.082-.00781.21093-.00781.293a.435.435,0,0,0,.14453.28515.458.458,0,0,1,.15625.28516c0,.08594.03125.15234.07422.15234.03906,0,.14453.13672.22656.30078.08984.17578.1875.28516.22656.26563.10938-.07031.75781.60156.70313.73828-.043.125.16015.57812.26562.57812.03516,0,.10156.10547.14844.22657.03906.1289.10547.21875.13672.21093a1.237,1.237,0,0,1,.32031.06641,1.56243,1.56243,0,0,0,.45313.09375,2.67251,2.67251,0,0,1,.52343.07422c.27735.07422.4961.12109.82813.17969a3.06165,3.06165,0,0,0,1.08594-.32422c.21093-.19531.51953-.30078.64843-.21875a2.84227,2.84227,0,0,0,1.53125-.12891,4.09093,4.09093,0,0,1,.8086-.21094,3.07379,3.07379,0,0,0,.71484-.16406,2.94369,2.94369,0,0,1,.80469-.15234,5.58385,5.58385,0,0,0,.75-.0586c.30078-.05859,1.19922-.26171,1.57422-.35546.168-.03516.34765-.07422.39843-.082a1.53826,1.53826,0,0,0,.42969-.33984c.30078-.293.32422-.34375.26172-.51953a.403.403,0,0,1-.03516-.26172c.02735-.03906-.03906-.10547-.13671-.15234a.55084.55084,0,0,1-.26172-.25391,1.82282,1.82282,0,0,0-.99219-.69531c-.65234-.25391-.832-.26953-1.14063-.10547a1.42115,1.42115,0,0,1-1.1875.05469c-.22656-.0625-.53906-.13672-.6914-.16016a1.171,1.171,0,0,1-.50391-.23437,3.9855,3.9855,0,0,0-.71094-.40625c-.38281-.17188-.53515-.21094-.67578-.15625a.33744.33744,0,0,1-.21875.03515.94805.94805,0,0,0-.35937-.09765,1.82972,1.82972,0,0,1-.25-.46485c-.10547-.25-.36719-.74609-.57813-1.10937a3.18671,3.18671,0,0,1-.418-.957.65.65,0,0,0-.16015-.39063c-.26953-.19531-.32031-.26172-.28516-.36719a.12207.12207,0,0,0-.05859-.15234c-.19531-.07422-.35938-.66406-.3086-1.10156.03125-.21875.0625-.48828.07422-.59375a1.20367,1.20367,0,0,1,.1211-.375,1.45571,1.45571,0,0,0,.12109-.44532c.043-.60156.08984-1.10937.12891-1.35546.01953-.14454.05859-.40625.07422-.582a1.46469,1.46469,0,0,1,.11328-.46093.84053.84053,0,0,0,.043-.39844c-.01563-.14063-.043-.40625-.06641-.58594A1.21058,1.21058,0,0,1,6.69512,12.422a1.67681,1.67681,0,0,0,.49609-.48828,2.86244,2.86244,0,0,1,.31641-.41406,2.60239,2.60239,0,0,0,.51172-.73828.42775.42775,0,0,1,.0664-.21094,1.51914,1.51914,0,0,0,.10547-.35547,2.152,2.152,0,0,1,.03125-.25781c0-.02735.11719-.11328.25391-.17969.28515-.15234.59375-.46875.53906-.55859a.16474.16474,0,0,1,.05469-.16407.63488.63488,0,0,0,.121-.19548c.02734-.14453.32813-.543.41016-.543.03125,0,.04687-.0664.01562-.14453-.05078-.16406.13672-.38281.332-.38281a.43689.43689,0,0,0,.26953-.15235,5.23524,5.23524,0,0,1,.81641-.53515c.78906-.4375,1.03906-.58594,1.66016-.98438a2.31329,2.31329,0,0,1,.55078-.28906.65044.65044,0,0,0,.28906-.14844.71635.71635,0,0,1,.31644-.15228.29216.29216,0,0,0,.21093-.14063,3.02572,3.02572,0,0,1,.707-.47656,2.39463,2.39463,0,0,0,.72656-.51172,3.96458,3.96458,0,0,1,.28515-.375,2.9653,2.9653,0,0,0,.31646-.47659l.14844-.28516-.23829-.23434a1.517,1.517,0,0,0-.99215-.51175c-.40625,0-.47266-.13672-.44922-.918.02344-.6875.02344-.70312-.21094-.9375A2.7938,2.7938,0,0,0,12.43334.00777Z"/>
   <path class="a"
         d="M16.90209,9.26558c-.47266.09766-.71485.21094-.71485.33984a.42645.42645,0,0,1-.44921.36719.66448.66448,0,0,0-.4375.22656.87906.87906,0,0,1-.32813.22657c-.21875,0-.57812.94922-.51953,1.37109a.87512.87512,0,0,1-.09766.34766c-.10547.19531-.09765.22265.03907.35937a1.1423,1.1423,0,0,1,.2539.67969,1.38955,1.38955,0,0,0,.14453.39844.62744.62744,0,0,1,.082.375,1.83453,1.83453,0,0,0,.44141.957.45142.45142,0,0,1,.12109.28906.38673.38673,0,0,0,.082.24609.80446.80446,0,0,1,.11328.37891,1.77719,1.77719,0,0,0,.375.94141,2.22058,2.22058,0,0,1,.30078,1.33984,1.05124,1.05124,0,0,0,.23047.8125c.11328.12109.12109.18359.03125.55859-.03907.16016-.043.28516-.01563.28516.11328,0,.21875.34766.15235.47656-.05469.082-.03907.17969.043.30078.0625.09766.08985.19532.06641.22657a1,1,0,0,0-.082.36718,1.52694,1.52694,0,0,1-.10938.46094,1.27829,1.27829,0,0,0-.0625.48828c.00782.52735-.05078.793-.19531.89844-.10548.07422-.12891.20313-.12109.69922.01561.57422,0,.61719-.207.83594-.1836.19922-.20314.26562-.14453.38672.0586.11328.02343.23828-.19532.625a2.0084,2.0084,0,0,1-.32812.48828,1.16206,1.16206,0,0,0-.27345.41406c-.14062.293-.25391.42969-.3828.46094-.1172.03125-.17188.08984-.14845.14843.02345.0625-.04687.19922-.14453.3125-.10547.11719-.22266.25391-.26953.3086a.23876.23876,0,0,0-.01563.26172c.0625.1289.03907.25-.07422.48437a.8431.8431,0,0,1-.21875.32031c-.02734,0-.05859.0625-.05859.12891a.33335.33335,0,0,1-.25391.35547c-.12109.01562-.46092.57031-.34764.57031.039,0,.082.07031.11328.14453.10547.33985.83984.22657,1.21484-.19531a1.93869,1.93869,0,0,1,.4961-.37109.7236.7236,0,0,0,.36718-.32032,2.13135,2.13135,0,0,1,.8125-.80078c.082-.03125.14844-.07422.14844-.11328,0-.03515.09766-.12109.21875-.1875a1.89589,1.89589,0,0,0,.73047-.67969,3.72835,3.72835,0,0,1,.71094-.85546,3.86687,3.86687,0,0,0,.82031-1.35157c.05078-.125.12109-.23828.15625-.23828.08984,0,.27734-.40234.24219-.51562a.74708.74708,0,0,1,.293-.625.17.17,0,0,0,.099-.21906l-.0014-.0036c-.03906-.10547.01172-.21094.17188-.35547a1.34843,1.34843,0,0,0,.46484-1.24219,2.52581,2.52581,0,0,1,.4961-1.3789,1.5311,1.5311,0,0,0,.26953-.42969c.04686-.11328.09765-.20312.13672-.20312.02734,0,.03515-.16016.01562-.36329a4.64845,4.64845,0,0,1-.01562-.543,14.21866,14.21866,0,0,0-.01563-1.47657.65713.65713,0,0,0-.15234-.35937.19723.19723,0,0,1-.05917-.27256l0,0,.00056-.00086a.9109.9109,0,0,0-.05078-.71484.95164.95164,0,0,1-.09375-.33984,3.63578,3.63578,0,0,0-.21484-1.36328,1.14056,1.14056,0,0,1-.11327-.52734,1.3052,1.3052,0,0,0-.082-.51172.93075.93075,0,0,1-.05468-.48828c.08984-.2422-.3086-.94922-.6211-1.1172-.1875-.09766-.332-.27734-.5625-.74609a4.83333,4.83333,0,0,0-.42187-.71485.22423.22423,0,0,1-.06641-.21093c.01953-.0586-.05468-.13672-.1875-.19532a.52386.52386,0,0,1-.27343-.23437C18.08568,9.39449,17.38256,9.16792,16.90209,9.26558Z"/>

</g>
</svg>
