<?xml version="1.0" encoding="UTF-8"?>
<svg xmlns="http://www.w3.org/2000/svg"
     version="1.1"
     width="52.45461165mm"
     height="39.04129311mm"
     viewBox="0.00000000 0.00000000 148.69018429 110.66819101">

<g transform="scale(5.26144544)">   <defs>
      <style type="text/css"><![CDATA[
      .a {
        stroke: #000;
        stroke-miterlimit: 10;
        stroke-width: 0.15px;
      }
    ]]></style>
   </defs>
   <path class="a"
         d="M2.83992,7.9421a1.67369,1.67369,0,0,0-.78125-.03125,1.896,1.896,0,0,0-1.03125.65625C.49913,9.22191.84988,9.72778.8821,11.90151c.00225.15126-.00165.52519.218.63153a.63177.63177,0,0,0,.48243-.04133c1.35854-.498.85555-.22529,1.33573-.4863a17.52828,17.52828,0,0,1,2.01539-1.15706,4.21237,4.21237,0,0,1,1.25-.21875c3.29861-.18842,11.29434-2.45086,12.125-2.6875C21.181,7.12387,21.92183,6.75544,21.89136,6.474c-.03749-.34634-1.23438-.48129-1.70769-.53189-3.29926-.35272-4.79067.7366-8.67287,1.45408A33.12369,33.12369,0,0,1,2.83992,7.9421Z"/>
   <path class="a"
         d="M19.05626,7.029a4.46757,4.46757,0,0,1-.06009-1.11811c.03126-.31868.103-1.04957.40625-1.125.29376-.07305.41763.56514,1.19775.87772a2.57,2.57,0,0,0,1.0651.13119.612.612,0,0,0,.39731-.10221c.18861-.15825.025-.563-.0505-.76848-.12976-.35333-.25416-.4031-.35966-.76322-.07445-.25408-.11166-.38114-.0625-.46875.20924-.37288,1.41243.33157,2.0166-.1604.34439-.28043.35007-.8323.3568-1.48735.01106-1.07724-.34821-1.46058-.09215-1.7585.29292-.3408,1.1132-.24643,1.625.125a1.93348,1.93348,0,0,1,.6875,1.125c.628,2.5351-.68173,9.39264-.28125,12.59375.2764,2.20931.41461,3.314.74541,3.85853a1.17541,1.17541,0,0,1,.20028.7294,1.32708,1.32708,0,0,1-.49894.81835c-.60205.54265-1.93145,1.74089-2.57175,1.34372-.49468-.30683-.02844-1.22495-.27033-3.75735a7.82123,7.82123,0,0,0-.34222-1.95642c-.44815-1.32476-.94313-1.31122-1.4518-2.53051-.70706-1.69487.00374-2.30979-.7794-3.162-.61371-.66779-1.40634-.67769-1.69731-1.52179A5.33533,5.33533,0,0,1,19.05626,7.029Z"/>
   <path class="a"
         d="M11.49617,15.78585c7.23555-.09647,10.85333-.1447,13.54471-.218a1.72494,1.72494,0,0,1,1.15236.3291,1.28035,1.28035,0,0,1,.49043.98267c-.06073.55179-.70335.79411-.60066,1.14716.01968.06768.06836.14489.25691.25909.81277.49229,1.797.20159,1.84375.375.03151.1169-.39558.32372-.4375.34375a2.95439,2.95439,0,0,1-1.34375.28125c-.4749-.02355-4.85826.18221-13.625.59375a37.61927,37.61927,0,0,1-8.10378-.58889,3.83133,3.83133,0,0,1-1.74542-.81526,5.30215,5.30215,0,0,1-.92953-1.239C.76053,15.40074.317,15.07673.15242,14.09835a1.62829,1.62829,0,0,1,0-1c.37137-.82022,1.53334-.46481,3.25-1.46875.5913-.3458.82962-.608,1.125-.5.458.16741.34817.96689.8125,1.90625a4.53129,4.53129,0,0,0,1.45644,1.60653A7.38714,7.38714,0,0,0,11.49617,15.78585Z"/>
   <path class="a"
         d="M14.93367,12.7546c-.96187.75059-.956,1.1915-.92427,1.35986a1.50319,1.50319,0,0,0,.37379.5904l.77079.88328c.12329.14128.16795.191.25366.21179.05359.013.2747.051.74478-.45158a3.7283,3.7283,0,0,0,.53125-.71875c.66493-1.25272,2.129-1.34117,2.59323-2.74464.10864-.32844.06221-.42564.04378-.45808C18.99231,10.84929,16.55244,11.49141,14.93367,12.7546Z"/>

</g>
</svg>
