<?xml version="1.0" encoding="UTF-8"?>
<svg xmlns="http://www.w3.org/2000/svg"
     version="1.1"
     width="36.53980294mm"
     height="15.13509003mm"
     viewBox="0.00000000 0.00000000 103.57734334 42.90266685">

<g transform="scale(5.86790603)">   <defs>
      <style type="text/css"><![CDATA[
      .a {
        stroke: #000;
        stroke-miterlimit: 10;
        stroke-width: 0.15px;
      }
    ]]></style>
   </defs>
   <path class="a"
         d="M6.22857.46473C5.02126.6066,4.18071.75333,3.803.82218a7.56427,7.56427,0,0,0-1.91489.48511A4.565,4.565,0,0,0,.61156,2.252a1.59428,1.59428,0,0,0-.383.51065,2.06171,2.06171,0,0,0-.12766.766A3.85814,3.85814,0,0,0,.12645,4.652a1.73266,1.73266,0,0,0,.30637.74045,1.14051,1.14051,0,0,0,.63831.45956,1.05035,1.05035,0,0,0,.4851-.02554c.38987-.0845.78766-.13226,1.17447-.22977a8.394,8.394,0,0,1,1.65958-.10214,15.13436,15.13436,0,0,0,1.91489-.35745,12.42749,12.42749,0,0,1,2.75744-.15317c1.77741.06854,1.40293.38272,2.98725.434.35195.01142,1.00137.01633,1.2.383a1.02261,1.02261,0,0,1,.0766.63827c-.04895.23993-.1557.284-.12766.40851.06253.27759.66321.369.9447.383a1.28287,1.28287,0,0,0,.89362-.20426c.12244-.09756.11981-.15069.35742-.45956.20029-.26032.33844-.39975.4596-.53619a10.37445,10.37445,0,0,0,.84252-1.22553c.68638-1.03708.77927-1.08221.84256-1.40427a3.37518,3.37518,0,0,0,0-.99572,1.78916,1.78916,0,0,0-.20425-.89362c-.19644-.28827-.50455-.377-.99573-.51065C15.197.69,14.62594.53452,14.52645.51578A21.89144,21.89144,0,0,0,12.07537.15833,15.29709,15.29709,0,0,0,9.54772.10727c-.35538.025-.31992.03678-2.11914.2298C6.46706.44022,6.55614.42621,6.22857.46473Z"/>

</g>
</svg>
