<?xml version="1.0" encoding="UTF-8"?>
<svg xmlns="http://www.w3.org/2000/svg"
     version="1.1"
     width="69.53821603mm"
     height="34.71937619mm"
     viewBox="0.00000000 0.00000000 197.11625358 98.41709399">

<g transform="scale(4.31887292)">   <defs>
      <style type="text/css"><![CDATA[
      .a {
        stroke: #000;
        stroke-miterlimit: 10;
        stroke-width: 0.15px;
        fill-rule: evenodd;
      }
    ]]></style>
   </defs>
   <path class="a"
         d="M12.84345,5.93638c.9902-1.0586,1.7324-2.3145.30961-2.9326-1.91221-.8311-3.00491.539-4.53231,1.2617a11.95744,11.95744,0,0,0-1.4961.81349,12.93966,12.93966,0,0,0-3.0859,3.23531,4.71612,4.71612,0,0,1-.9961,1.2695c-.38959.252-1.042.1221-1.5.1221a4.42892,4.42892,0,0,1-.7881.0088,3.52526,3.52526,0,0,1-.6201-.2734A1.41123,1.41123,0,0,1,.18035,8.537a7.54955,7.54955,0,0,1,.3838-.84959,6.75082,6.75082,0,0,1,.5351-.836,9.35223,9.35223,0,0,1,1-.9345,5.85549,5.85549,0,0,0,.9815-.8155,11.4546,11.4546,0,0,1,2.5381-1.832,31.18356,31.18356,0,0,1,2.9658-1.9658,8.45991,8.45991,0,0,1,6.1787-1.0137c2.9404.7373,2.84671,3.7842,1.22171,5.8203-1.75881,2.2041-3.93261,4.9307-6.57331,6.1221a3.09231,3.09231,0,0,0-.6396.3935c-.33009.2354-.6826.3623-.8213.8096-.292.9404,1.9287,1.1201,2.3975,1.4385a8.3389,8.3389,0,0,0,3.0039,1.37209c6.2773,1.29681,12.5801,2,18.9209,2.90521a38.89274,38.89274,0,0,0,8.0263.0196c1.211-.0743,5.0625-.4317,5.2579,1.5107.371,3.6992-11.7901,1.2646-13.5274,1.0127-1.9922-.2881-3.9932-.61821-5.9853-.834a42.307,42.307,0,0,1-5.4922-.6728,71.41026,71.41026,0,0,0-7.1221-1.2256c-1.2539-.1739-2.48929-.667-3.7422-.9043a24.451,24.451,0,0,1-4.706-1.0596A7.85623,7.85623,0,0,1,3.15306,16.037a1.085,1.085,0,0,1,.00779-1.60449c.20021-.1553.4619-.2637.6679-.4131a9.011,9.011,0,0,0,1.4619-1.5137,7.03132,7.03132,0,0,1,1.6319-1.1611,21.30177,21.30177,0,0,0,3.0703-2.8262c.3408-.3428.7334-.6318,1.0879-.957C11.38055,7.286,12.16965,6.65708,12.84345,5.93638Z"/>
   <path class="a"
         d="M16.31515,14.01838h-.5938a1.63561,1.63561,0,0,1-.293.0049c-.3144-.0645-.5605-.3389-.8906-.3848-.05469-.3252-.0156-.5224.2539-.6826a4.65385,4.65385,0,0,1,1.7422-.5371c.53321-.0752,1.0547-.2305,1.5938-.2734a27.64573,27.64573,0,0,0,4.8398-1.2217c1.5547-.4141,3.2031-.2568,4.7607-.6621a82.51265,82.51265,0,0,1,11.4913-2.6289c.3828-.044.6777.3105.9199.5752.4492.4882-.3926.9238-.78129,1.03409-1.81251.51471-3.74611.28911-5.54491.85061a103.97926,103.97926,0,0,1-10.5137,2.7657c-1.5117.2988-2.98239.8095-4.4941,1.0761a7.02673,7.02673,0,0,1-1.2246.0323c-.3672,0-.72269.0517-1.0859.0517Z"/>

</g>
</svg>
