<?xml version="1.0" encoding="UTF-8"?>
<svg xmlns="http://www.w3.org/2000/svg"
     version="1.1"
     width="19.86747838mm"
     height="31.41651354mm"
     viewBox="0.00000000 0.00000000 56.31730028 89.05464592">

<g transform="scale(7.56490322)">   <defs>
      <style type="text/css"><![CDATA[
      .a {
        stroke: #000;
        stroke-miterlimit: 10;
        stroke-width: 0.15px;
      }
    ]]></style>
   </defs>
   <path class="a"
         d="M5.71977.07869c-.40759.03871-.66471.36386-.95745.734a2.85861,2.85861,0,0,0-.60638,1.2766,3.32454,3.32454,0,0,0-.03191.734,12.442,12.442,0,0,1-.44681,2.42554C3.44564,6.51311,3.6129,6.409,3.4219,6.87656A4.59184,4.59184,0,0,1,2.20913,8.50422a6.29863,6.29863,0,0,1-.67021.51064c-.68862.44952-.95419.413-1.21277.766a1.26726,1.26726,0,0,0-.2234.98936,1.23378,1.23378,0,0,0,.54255.734,1.111,1.111,0,0,0,.54255.19149,1.38272,1.38272,0,0,0,1.02128-.51063c.4953-.565.24245-1.06461.766-1.5.15262-.12694.15162-.06577.54255-.31915a6.87447,6.87447,0,0,0,.82979-.6383c.8215-.71357.94735-.73232,1.24468-1.02128A5.1312,5.1312,0,0,0,6.773,5.44039,16.02283,16.02283,0,0,0,7.2836,2.63188c.11581-.84552.1418-1.2535-.09575-1.65957a2.04835,2.04835,0,0,0-.89361-.766A1.12949,1.12949,0,0,0,5.71977.07869Z"/>

</g>
</svg>
