<?xml version="1.0" encoding="UTF-8"?>
<svg xmlns="http://www.w3.org/2000/svg"
     version="1.1"
     width="46.99546734mm"
     height="39.67701889mm"
     viewBox="0.00000000 0.00000000 133.21549292 112.47024946">

<g transform="scale(4.26527750)">   <defs>
      <style type="text/css"><![CDATA[
      .a {
        stroke: #000;
        stroke-linecap: round;
        stroke-linejoin: round;
        stroke-width: 0.01px;
      }
    ]]></style>
   </defs>
   <path class="a"
         d="M29.97605.16768a1.58451,1.58451,0,0,1-.32422.38672c-.12891.11328-.26172.24219-.3086.28906-.03906.043-.16406.17188-.26952.27735-.26561.27344-.32032.44922-.21483.72656a.4779.4779,0,0,1-.03517.49219,1.73492,1.73492,0,0,0-.16016.40234.66463.66463,0,0,1-.22657.30078.42358.42358,0,0,0-.17968.28125c.02343.25-.01563.30078-.27342.38672-.15625.05078-.26174.13281-.26174.21094a2.83862,2.83862,0,0,1-.31641.90625c-.09765.11328-.02343.20312.1875.21094a1.33017,1.33017,0,0,1,.28125.05468c.14065.06641.51173-.27343.72266-.668.21875-.40625.4219-.53516.58984-.375a.19534.19534,0,0,1,.05081.25.27655.27655,0,0,0,.00782.26954c.03907.07031.05078.15234.03125.17578-.02343.02344-.00781.10547.02734.17969.11328.207.01564.35546-.28515.45312-.32422.10156-.48438.21484-.42969.29688a1.94653,1.94653,0,0,1-.33984.832.67484.67484,0,0,0-.22657.15234.62441.62441,0,0,1-.25781.14844c-.10938.00781-.26172.22656-.67578.97656-.30468.543-.44531,1.06641-.30468,1.06641a2.88315,2.88315,0,0,0,.37891-.19532c.17968-.10546.332-.17578.332-.15234,0,.03125.09765,0,.22656-.06641.26953-.13671.26172-.13671.40625.00782.10547.10547.09766.14843-.05859.46875a8.68376,8.68376,0,0,1-.46094.76953,1.45337,1.45337,0,0,0-.332.6875c-.00781.03125-.1211.08984-.25.15234a1.05336,1.05336,0,0,0-.28516.14453,2.58964,2.58964,0,0,1-.24219.17188,1.28319,1.28319,0,0,0-.36328.43359,1.08963,1.08963,0,0,1-.293.375.27464.27464,0,0,0-.15234.21485c-.00391.36328-.06641.64062-.14844.6875a3.54019,3.54019,0,0,1-.77734.03906,5.56555,5.56555,0,0,0-1.03512.05079,7.40008,7.40008,0,0,1-1.28907.17578c-.26952.01953-.57422.05078-.67968.07422s-.35937.05469-.57812.07421a1.72516,1.72516,0,0,0-.49219.09375,2.92947,2.92947,0,0,1-.86719.08984c-.293-.01562-1.72656.01563-2.24609.05078-.332.02345-.99609.0547-1.47266.07033-.47265.01562-.93359.03514-1.01953.043a5.85091,5.85091,0,0,1-.6914-.043,2.10621,2.10621,0,0,0-.97266.082,1.06046,1.06046,0,0,1-.67188.0625.4911.4911,0,0,0-.34765-.01562,1.97661,1.97661,0,0,1-1.1836-.21484,2.97609,2.97609,0,0,0-1.01953-.20313,5.24134,5.24134,0,0,1-1.92187-.26562,8.01524,8.01524,0,0,0-.76953-.30079c-.26563-.09766-.52735-.19532-.57422-.21875-.17188-.09766-.55078-.62891-.51172-.72657.02344-.0625-.07813-.15234-.25-.23437-.31641-.15234-.41406-.25781-.36328-.40234.02344-.05079-.01953-.1211-.08985-.14063a2.2146,2.2146,0,0,1-.5039-1.11328.71278.71278,0,0,0-.03125-.34766c-.06641-.17578-.0586-.25.03125-.33984a.50132.50132,0,0,1,.20312-.12109,5.45852,5.45852,0,0,0,.88282-.14454,3.47942,3.47942,0,0,1,.48828-.07421H7.273a4.50064,4.50064,0,0,0,.9961-.22657,3.01733,3.01733,0,0,1,1.67578-.1914,1.52341,1.52341,0,0,0,.60156-.03907,2.87377,2.87377,0,0,1,1.42578-.01953,1.12846,1.12846,0,0,0,.71484.01563A10.87039,10.87039,0,0,1,13.96435,7.988,2.599,2.599,0,0,0,14.98,7.85518a6.65072,6.65072,0,0,1,1.97657-.50781,1.82183,1.82183,0,0,0,.59765-.08984c.36328-.19922.58985-.22266.73828-.07032a1.05811,1.05811,0,0,0,.89063.31641,2.03054,2.03054,0,0,1,.74609.14453,1.478,1.478,0,0,0,1.22266-.05078,4.95241,4.95241,0,0,1,1.8164-.05469,11.5533,11.5533,0,0,0,2.20313,0,2.61478,2.61478,0,0,0,1.207-.3164c.69531-.32422.90625-.53125.90625-.89453,0-.44532-.12891-.64063-.44531-.69532a6.829,6.829,0,0,1-.73828-.1875,5.45828,5.45828,0,0,0-1.09375-.1914A2.44594,2.44594,0,0,1,23.87447,5.07a.76659.76659,0,0,0-.44531-.03907,15.3141,15.3141,0,0,1-2.26953.12891,4.76158,4.76158,0,0,0-.98047.07031.41944.41944,0,0,1-.30078-.04687.32656.32656,0,0,0-.32422-.02344.56329.56329,0,0,1-.32423.03125.66529.66529,0,0,0-.418.06641.58464.58464,0,0,1-.31641.09375.48178.48178,0,0,0-.31641.09765,2.20288,2.20288,0,0,1-.76952.17188,2.89359,2.89359,0,0,0-.707.1289,4.64857,4.64857,0,0,1-2.03906.07813A.79522.79522,0,0,0,14.15182,5.82a.97982.97982,0,0,1-.52735-.01563.52768.52768,0,0,0-.46875.03125,1.12864,1.12864,0,0,1-.32421.082.69748.69748,0,0,0-.27735.05078.86427.86427,0,0,1-.6289-.05859.88711.88711,0,0,0-.51954-.06641.50481.50481,0,0,1-.332-.02343,1.63651,1.63651,0,0,0-.5039-.08594,1.987,1.987,0,0,1-.73047-.17969,3.13189,3.13189,0,0,0-.53906-.18359A4.13157,4.13157,0,0,1,8.644,5.10906a2.69362,2.69362,0,0,0-.789-.26563.73.73,0,0,1-.42187-.15234,3.19166,3.19166,0,0,0-.52348-.30855,1.47442,1.47442,0,0,1-.40625-.27344c-.1602-.25782-.8594.0469-1.46488.6289a.98352.98352,0,0,1-.543.28515,1.022,1.022,0,0,0-.53516.27344.7615.7615,0,0,1-.33984.22656c-.0586,0-.14063.07032-.1875.15235a.938.938,0,0,1-.582.36328,1.64012,1.64012,0,0,0-.82032.36328,2.24709,2.24709,0,0,1-.44531.25781,1.47959,1.47959,0,0,0-.35547.19531C1.019,7.00753.94478,7.113.94478,7.25753c0,.21093-.332.76172-.45313.76172-.04687,0-.07422.05468-.07422.11328a.56487.56487,0,0,1-.168.28125.6965.6965,0,0,0-.1875.47656,4.53374,4.53374,0,0,1-.05468.51953.93228.93228,0,0,0,.10156.4922.54972.54972,0,0,1,.07422.4453.23408.23408,0,0,0,.043.28906.60047.60047,0,0,1,.10547.35547,2.0737,2.0737,0,0,0,.04687.46875,5.18322,5.18322,0,0,1,.07424.67969,1.97713,1.97713,0,0,0,.14453.69531,1.24426,1.24426,0,0,1,.12109.32813.41479.41479,0,0,0,.11329.20312.23362.23362,0,0,1,.08984.19531.45772.45772,0,0,0,.15234.25.57044.57044,0,0,1,.17188.332c0,.08593.03125.15234.0625.15234.09765,0,.41406.46094.42187.62109.00782.17969.4375.35547,1.02344.39844a4.50368,4.50368,0,0,1,1.19141.18359,12.8346,12.8346,0,0,0,4.03125.38672,1.58225,1.58225,0,0,1,.543,0,.79807.79807,0,0,0,.36718-.00781.86524.86524,0,0,1,.36328-.07031c.25782,0,1.08594.04687,1.24609.0625.1172.02344.26172.38672.20313.50781a5.33763,5.33763,0,0,1-1.32031.92189c-.12109.02343-.21094.082-.21094.14452a.50775.50775,0,0,1-.1289.22657.46766.46766,0,0,0-.13672.27734.4244.4244,0,0,1-.1875.27343,5.63368,5.63368,0,0,0-.46875.4375,2.07323,2.07323,0,0,1-.42969.36328.543.543,0,0,0-.21875.30469.62769.62769,0,0,1-.22656.30078,1.30855,1.30855,0,0,0-.36328.40234,1.33237,1.33237,0,0,0-.14063,1.19532c.043.24218-.04687.39062-.30859.543a.45343.45343,0,0,0-.13672.33984.77592.77592,0,0,1-.15234.39453.49239.49239,0,0,0-.12891.17188,2.99783,2.99783,0,0,0-.07422.582c.03906,1.5.05859,1.70312.17969,1.832.332.34765.50781.5664.50781.66406,0,.18359.543.43359,1.00781.46875a2.37642,2.37642,0,0,1,.56641.09375,1.80555,1.80555,0,0,0,1.19141-.12891,1.58146,1.58146,0,0,1,.64453-.168,5.37727,5.37727,0,0,0,1.11328-.27343,3.93168,3.93168,0,0,1,1.58594-.293,3.59184,3.59184,0,0,0,1.29687-.19141c.4375-.14843.543-.15625.73828-.07423.1211.05469.22656.1211.22656.15235a2.10322,2.10322,0,0,0,.94532.5.24511.24511,0,0,1,.21875.07422c.082.082.32811.12109.88672.14453,1.11718.043,1.3125.0664,1.44921.17968a.45691.45691,0,0,0,.37109.05468c.13282-.02343.46484-.07031.73048-.08984a2.91193,2.91193,0,0,0,.625-.11327.5856.5856,0,0,1,.35547-.03125.671.671,0,0,0,.4375-.07032c.20312-.10547.25781-.10547.53515.00782.168.07031.3086.15234.3086.1914,0,.14064.90625-.00781,1.96875-.332a.6.6,0,0,1,.35546-.03125,6.87688,6.87688,0,0,0,1.11718.082,3.87516,3.87516,0,0,1,1.08594.1211c.10547.16015.66406.13672,1.14453-.05469.44531-.17186.9375-.57422.85547-.70311a.8243.8243,0,0,1,.03516-.31641c.04687-.14453.04687-.28125.00781-.31641a1.62779,1.62779,0,0,0-.65625.01563c-1.09375.14062-1.47656.1289-1.82422-.10547-.28125-.18359-.35547-.19923-1.01172-.19141a7.53715,7.53715,0,0,1-1.15234-.06641,6.52519,6.52519,0,0,0-.9961-.08593,2.4722,2.4722,0,0,1-1.23828-.30078,2.46359,2.46359,0,0,0-1.22265-.30078h-.52733l-.40625-.418a4.0353,4.0353,0,0,0-.55077-.49219,7.38166,7.38166,0,0,1-.98048-1.90625,1.505,1.505,0,0,0-.16015-.45312,2.31275,2.31275,0,0,1-.21094-1.15609,5.88794,5.88794,0,0,1,.12109-1.64063.17524.17524,0,0,0,.03125-.19922,1.84333,1.84333,0,0,1,.14453-1.02734,2.56479,2.56479,0,0,1,1.96094-1.14844c.1875-.01562.48047-.03906.66406-.05469.21094-.02343.35938,0,.42188.07032.05859.05078.12109.082.13282.0664a2.87887,2.87887,0,0,1,.59766-.05859A2.44206,2.44206,0,0,0,22.48,15.031a4.16989,4.16989,0,0,1,1.207-.16015c.543-.02735,1.0625-.05078,1.168-.0586.10547,0,.30859,0,.45313.00782.64062.03515.82812,0,1.02734-.1836.23047-.21875.21875-.21093.41406-.10547.13672.07032.20313.03125.48829-.28125a3.00783,3.00783,0,0,0,.45312-.57421c.0625-.11329.13672-.21094.168-.21094a4.4223,4.4223,0,0,0,.76952-1.05078.58106.58106,0,0,1,.17189-.25782.78436.78436,0,0,0,.168-.20312,2.06812,2.06812,0,0,1,.6836-1.05859c1.34367-1.32429,1.46473-1.50395,1.1991-1.76958a.51488.51488,0,0,0-.40625-.08593c-.23438.02343-.37891.11718-.67188.40234a1.72656,1.72656,0,0,0-.41406.55859.37538.37538,0,0,1-.20313.25c-.082.02344-.15234.09766-.15234.15236a.69727.69727,0,0,1-.39062.57421.72365.72365,0,0,0-.32422.29687,1.14524,1.14524,0,0,1-.23438.30861,1.71913,1.71913,0,0,0-.48437.84764c0,.25781-.13282.39454-.60938.62111l-.42969.20312-.36328-.21094c-.41406-.24218-.48047-.3125-.42968-.46093.05468-.14454.67968-.5.76953-.44141.04687.02345.1289-.05859.19531-.1875.0625-.12109.15234-.22655.1875-.22655a5.9122,5.9122,0,0,0,1.16406-1.1875,3.5029,3.5029,0,0,1,.46094-.55079,1.19515,1.19515,0,0,0,.33984-.5,1.84584,1.84584,0,0,1,.63282-.87111.52246.52246,0,0,0,.19531-.24219,5.13239,5.13239,0,0,1,.89062-1.293c.30078-.25.39063-.38672.34766-.53125-.15234-.50391-.67188-.52735-1.05078-.03516-.26953.34766-.375.39844-.51953.25781-.07422-.07812-.09766-.27344-.082-.71875a3.9481,3.9481,0,0,1,.05078-.65234.83333.83333,0,0,1,.25781-.07422c.35547-.0625.42187-.09766.375-.21875a2.68656,2.68656,0,0,1,.43357-1.039.25506.25506,0,0,1,.17968-.00391c.14453.05078.4219-.26562.57424-.67578.1875-.49219.07422-.69531-.34767-.61328-.21092.03906-.44532.25-.88282.77344-.33984.41406-.48435.49218-.625.34765-.12109-.12109-.07031-.55078.08984-.75.043-.05078.0586-.11328.03516-.13672-.06641-.0664.17578-.48828.3125-.543.06641-.02343.10549-.07421.07424-.12109a2.2594,2.2594,0,0,1,.42967-.91406A.12835.12835,0,0,0,30.28074,1.32c-.03125-.16016.01173-.25.14064-.29688a.48069.48069,0,0,0,.22656-.332C30.76121.32,30.769.33562,30.57371.15593,30.355-.05107,30.08934-.04325,29.97605.16768ZM14.71044,16.156c.17187.1758.082.6211-.23438,1.20314a2.16029,2.16029,0,0,0-.25782.62109.72352.72352,0,0,1-.14843.34766.69365.69365,0,0,0-.15235.28125,1.0108,1.0108,0,0,1-.1289.32423,1.95489,1.95489,0,0,0-.14844.582,5.26687,5.26687,0,0,1-.07031.53125,7.65173,7.65173,0,0,0-.10546,1.26172c-.00781.4375.0078.582.0703.67969a1.00888,1.00888,0,0,1-.0078.43359c-.07031.293-.11329.55859-.12891.65625-.02345.14453-.4922.23437-1.0039.17969-.957-.08985-1.52345-.53516-1.37891-1.07423a3.88711,3.88711,0,0,0,.12891-.80077,1.90634,1.90634,0,0,1,.35155-.83985.139.139,0,0,0,.039-.15625c-.02344-.05468.03125-.17578.12109-.26562.082-.082.13672-.1875.11329-.22656-.0625-.09766.15625-.5.30078-.5586.10547-.03906.25781-.30469.89063-1.62109.15235-.293.3086-.543.36328-.543.05078,0,.07422-.02344.043-.04688a1.02721,1.02721,0,0,1,.14453-.41406c.1797-.34765.42188-.5664.543-.49219a.41261.41261,0,0,0,.24219-.07421C14.53856,16.01535,14.5581,16.01535,14.71044,16.156Z"/>
   <path class="a"
         d="M29.47214,12.945a1.14117,1.14117,0,0,0-.44531.35547,4.42215,4.42215,0,0,1-.69531.80078,1.71768,1.71768,0,0,1-.39844.34765c-.03906,0-.05469.06641-.02344.14453a.29881.29881,0,0,1-.10547.30079.53355.53355,0,0,0-.15625.22656,4.37205,4.37205,0,0,1-.72656.92187c-.22656.22657-.332.75-.17188.87891a.74582.74582,0,0,0,.39063.03907c.23437-.02343.38672-.12891.76953-.51561a2.81379,2.81379,0,0,1,.55859-.48439c.082,0,.19532-.28906.17188-.42968a2.186,2.186,0,0,1,.36328-.582c.20313-.28125.40625-.5625.44531-.63672a2.14375,2.14375,0,0,1,.42188-.39453c.45312-.332.582-.5664.46875-.832C30.17918,12.738,29.99168,12.71065,29.47214,12.945Z"/>

</g>
</svg>
