<?xml version="1.0" encoding="UTF-8"?>
<svg xmlns="http://www.w3.org/2000/svg"
     version="1.1"
     width="46.25530170mm"
     height="20.67949774mm"
     viewBox="0.00000000 0.00000000 131.11744029 58.61906876">

<g transform="scale(4.31887292)">   <defs>
      <style type="text/css"><![CDATA[
      .a {
        stroke: #000;
        stroke-miterlimit: 10;
        stroke-width: 0.15px;
        fill-rule: evenodd;
      }
    ]]></style>
   </defs>
   <path class="a"
         d="M21.4608,6.13448c.207-.0806.415-.1582.6255-.2285,1.1587-.3873,3.0161-.3057,2.7544-2.1026-.2183-1.4975-2.9063-1.3901-3.9942-1.3901a35.83318,35.83318,0,0,0-3.9262.0014,3.75647,3.75647,0,0,0-1.1963.229,5.47908,5.47908,0,0,0-.8882.4732,1.421,1.421,0,0,1-.6655.269c-.9019.1407-1.8379.1661-2.7471.2447-1.2324.1064-2.4751-.002-3.7036.1596-1.5015.1973-3.1113.458-4.5894.7803-.2046.0444-.6167.0757-.7011-.1938-.1578-.503.2822-1.208.4912-1.6236A6.46714,6.46714,0,0,1,4.3812.70277C4.9466.23068,5.808.47428,6.4603.487c.8125.0161,1.6235-.0918,2.4346-.1445,2.7055-.1753,5.4326-.2622,8.1445-.2622h3.3882c.2402,0,.4839-.0122.7236.00049a2.2556,2.2556,0,0,1,.523.12891c.4209.10009.894.041,1.3271.09809,1.6187.21341,6.0264.459,5.1572,3.189a3.34,3.34,0,0,1-1.08,1.46091,28.79918,28.79918,0,0,1-3.2608,2.2608,15.77046,15.77046,0,0,1-2.0708,1.0122,11.59894,11.59894,0,0,1-1.6025.667,13.45785,13.45785,0,0,0-2.085.6342,26.74415,26.74415,0,0,1-5.7954,1.4434c-.7627.1597-1.5322.2627-2.2944.418-.7144.146-1.4116.3764-2.1236.5229-.8437.1738-1.6933.3233-2.5488.4287a8.55333,8.55333,0,0,1-2.2251.1548c-.1914-.0254-.8335-.0737-.9609-.2695-.5386-.8291,2.8828-1.437,3.272-1.5122,2.1552-.4165,4.2587-1.07721,6.4223-1.5054a22.2957,22.2957,0,0,0,3.148-.7456c.8471-.3037,1.6572-.69,2.5185-.9668.7969-.2559,1.5977-.5156,2.4146-.771C20.4237,6.56118,20.9388,6.33808,21.4608,6.13448Z"/>
   <path class="a"
         d="M2.9261,13.41428c1.0493-.003,2.0948.08349,3.1504.08349H9.8509c3.1109,0,6.2237-.34969,9.3316-.33349,1.3637.0068,2.7265-.08351,4.0947-.08351a19.79765,19.79765,0,0,0,2.1528.00441c1.1236-.126,2.4991.1381,3.5523-.2173.3623-.1226.6836-.2217,1.0146-.37011.4888-.21879.2622-.40429-.0063-.75489a1.08827,1.08827,0,0,0-.3404-.3506,2.34548,2.34548,0,0,0-1.0419-.06151c-1.4698.00291-2.9683-.01319-4.4351.07911-1.437.0903-2.8794.1738-4.3232.17089-1.5108-.003-2.983.21141-4.4849.25871-2.1743.0684-4.3877-.1425-6.5474.0562-1.3745.1265-2.7895-.0171-4.1479.1807-1.3203.1923-2.6616.0107-3.9688.1899-.1592.02149-.4546.0723-.5498.22749C-.4357,13.44748,2.5482,13.41518,2.9261,13.41428Z"/>

</g>
</svg>
