<?xml version="1.0" encoding="UTF-8"?>
<svg xmlns="http://www.w3.org/2000/svg"
     version="1.1"
     width="41.25119302mm"
     height="22.18481752mm"
     viewBox="0.00000000 0.00000000 116.93253291 62.88608970">

<g transform="scale(3.27041836)">   <defs>
      <style type="text/css"><![CDATA[
      .a {
        stroke: #000;
        stroke-miterlimit: 10;
        stroke-width: 0.15px;
      }
    ]]></style>
   </defs>
   <path class="a"
         d="M30.39439,2.74451c.24811.9258.27,1.9204.5952,2.8477a20.37486,20.37486,0,0,1,1.1075,2.4839,4.4384,4.4384,0,0,1,.0581,1.0727,4.12318,4.12318,0,0,1-.0572,1.0767c-.1909.4902-1.05949.3862-1.5117.49608-.3159.07662-1.459.58452-1.792.18062-.3877-.4702.0825-1.5258.0376-2.0703a11.23426,11.23426,0,0,0-.7256-2.9424,8.76875,8.76875,0,0,1-.52-2.0615,2.43573,2.43573,0,0,1,.0601-1.10842c.14211-.374.5029-.46968.8437-.59518a2.66663,2.66663,0,0,1,1.0303-.3384C30.2875,1.81731,30.23039,2.13321,30.39439,2.74451Z"/>
   <path class="a"
         d="M15.35439,3.99991c-.02-.4399-.0161-.876-.0523-1.3257a7.19007,7.19007,0,0,0-.1943-.7793c-.1128-.5967-.0098-1.2969.6548-1.4775a7.3288,7.3288,0,0,1,1.4551-.3389c.6489-.04.7436.2647,1.0566.772a8.62967,8.62967,0,0,1,1.207,4.2876q.1422,1.6326.2481,3.2676a12.08016,12.08016,0,0,1-.0498,3.1552,12.25929,12.25929,0,0,1-.4346,1.482,2.702,2.702,0,0,1-.47749,1.122,2.0439,2.0439,0,0,1-1.44441.313c-.3969.0025-.664.0894-.8325-.3125a1.05283,1.05283,0,0,1,.0024-.7705,5.8462,5.8462,0,0,0,.60551-1.688c.05179-.6782-.00491-1.3838-.00191-2.0644.00291-.626-.2749-1.2022-.314-1.81892a10.93844,10.93844,0,0,0-.3677-1.66208c-.6269-.0361-.9111-.87992-.9892-1.3877A7.27248,7.27248,0,0,1,15.35439,3.99991Z"/>
   <path class="a"
         d="M5.889,3.82659c-.0366-1.03318.1319-2.18748,1.2408-2.54448A3.1397,3.1397,0,0,0,7.93839.831c.5879-.3667.8369.0493,1.1958.4257a6.06423,6.06423,0,0,1,1.4038,2.2725,16.52675,16.52675,0,0,1,.4287,3.19138c.08881.91852.2549,1.84182.38181,2.75152.13089.93448-.93161,1.166-1.23581,1.9433a10.19828,10.19828,0,0,1-1.3516,2.71,2.28158,2.28158,0,0,1-1.1689.9404c-.34769.1065-1.1905.2481-1.4351-.0654-.1987-.2539.02-.8306.1475-1.0825.186-.3667.52291-.4854.7314-.8526.0933-.1645.1211-.3608.211-.5239a4.23075,4.23075,0,0,1,.2656-.3955,2.96077,2.96077,0,0,0,.2842-2.2671,19.12045,19.12045,0,0,0-.4082-2.542c-.2964-1.0737-1.355-1.7861-1.461-2.9355C5.9105,4.21871,5.89639,4.02481,5.889,3.82659Z"/>
   <path class="a"
         d="M35.64829,13.30311a6.30124,6.30124,0,0,1-1.2519,2.7652c-.3247.4428-.6783.8466-1.0445,1.2544-.1635.1821-.6303.7373-.6089.2666.0157-.3423.4288-.7159.0953-1.0606-.4009-.41412-1.3311.1304-1.7974.1685-2.5103.2041-.2852-2.1534.0674-3.3433-1.3814-.6548-4.1499.481-5.6123.708-2.6851.4175-5.5528.2964-8.251.7788-1.0942.1958-2.1768.4488-3.2603.6934-.5493.124-1.0996.2397-1.6499.3579a6.18853,6.18853,0,0,0-1.5581.5654,4.82064,4.82064,0,0,1-.4956.2974c-.2773.1162-.5581.23678-.831.3501-.562.2344-1.1841.3525-1.7681.5605-1.0693.3809-2.3354.3638-3.314.9414a5.03617,5.03617,0,0,1-2.9248.545C-.108,19.143.14589,18.37731.0785,16.99651a1.54683,1.54683,0,0,1,.51949-1.354,5.6539,5.6539,0,0,1,1.7119-1.1978,18.40542,18.40542,0,0,1,2.2955-.7226,32.74958,32.74958,0,0,1,4.7602-.7212c5.8071-.5445,11.479-1.6836,17.2241-2.606,1.232-.1972,2.46681-.3818,3.6861-.6474q.9132-.1986,1.8066-.4683a11.11524,11.11524,0,0,1,1.4546-.2134c.4648-.07322,1.4683-.3096,1.874.0332.2666.22558.2681.6934.2681,1.0015q-.00075,1.3689.0005,2.7378A3.02842,3.02842,0,0,1,35.64829,13.30311Z"/>

</g>
</svg>
