<?xml version="1.0" encoding="UTF-8"?>
<svg xmlns="http://www.w3.org/2000/svg"
     version="1.1"
     width="17.70616445mm"
     height="36.95034898mm"
     viewBox="0.00000000 0.00000000 50.19067344 104.74115042">

<g transform="scale(4.27394008)">   <defs>
      <style type="text/css"><![CDATA[
      .a {
        stroke: #000;
        stroke-miterlimit: 10;
        stroke-width: 0.15px;
      }
    ]]></style>
   </defs>
   <path class="a"
         d="M.41419,6.3039A2.24662,2.24662,0,0,0,.15887,7.989c.069.1857.16568.32.817.91914.71154.65453,1.17462,1.02638,1.65957,1.45532a9.39459,9.39459,0,0,1,1.16891,1.11306,5.45968,5.45968,0,0,1,.87365,2.921,1.68549,1.68549,0,0,0,.15578,1.04089,1.0088,1.0088,0,0,1,.20953.42255.97489.97489,0,0,1-.11.55359,2.74719,2.74719,0,0,1-.40851.74041c-.68224.88443-.00941,2.30333-.90162,3.61977-.24827.36632-.50791.56268-.5537,1.00151-.03118.29883.0786.30948.20425,1.09787.08.50191.07747.761.25532.84256a.48356.48356,0,0,0,.383-.05107c.22058-.12747.18808-.34123.383-.40851a.36693.36693,0,0,1,.35744.0766c.08476.08348.04319.15839.10213.22978.1575.19077.62215-.14069.89362.02554.26589.16282.036.613.28085.79149.33573.24475.94063-.4756,1.71064-.25532.15269.04368.27561.114.35745.05107.15394-.11833-.11946-.49132-.11763-.92008.00393-.92033,1.27236-1.24319,1.19-2.01609-.03-.28162-.2-.25341-.40851-.766a3.36036,3.36036,0,0,1-.20426-1.3532,7.4807,7.4807,0,0,1,.22979-2.17021c.50794-1.83257,1.46484-1.99951,1.6041-3.55582a7.35831,7.35831,0,0,0-.01124-.79571,1.69026,1.69026,0,0,1,.0529-.42446c.147-.57382.57525-.58523.70317-1.07081.00533-.02024-.00143.00262-.06551-.87624a1.09126,1.09126,0,0,0-.13874-.55356.88509.88509,0,0,0-.29442-.27809c-.62638-.3929-.72041-.79425-1.51835-1.27936-.55977-.34031-.5773-.18158-.8638-.439-.38543-.34632-.29612-.58184-.77024-1.27164-.33912-.49339-.59821-.68336-.52055-.84938a.49169.49169,0,0,1,.54608-.14636c.6375.194.40555,1.4687,1.25107,1.966.12785.07519.20522.08842.434.22978.51784.3199.56352.52514.79149.61276.49383.18979,1.37314-.35295,1.67312-1.08588a2.27123,2.27123,0,0,0-.14121-1.69709A9.26089,9.26089,0,0,0,8.0227,1.04432,5.21985,5.21985,0,0,0,5.77589.12518,3.28389,3.28389,0,0,0,4.11632.25283c-.46521.18376-.81078.4914-1.966,2.45107A29.95537,29.95537,0,0,0,.41419,6.3039Z"/>

</g>
</svg>
