<?xml version="1.0" encoding="UTF-8"?>
<svg xmlns="http://www.w3.org/2000/svg"
     version="1.1"
     width="31.40858730mm"
     height="14.53488964mm"
     viewBox="0.00000000 0.00000000 89.03227792 41.20121850">

<g transform="scale(3.97310504)">   <defs>
      <style type="text/css"><![CDATA[
      .a {
        stroke: #000;
        stroke-miterlimit: 10;
        stroke-width: 0.15px;
        fill-rule: evenodd;
      }
    ]]></style>
   </defs>
   <path class="a"
         d="M1.09372.12562A2.299,2.299,0,0,0,1.38717.09253,2.87851,2.87851,0,0,1,2.65826.326C4.33179.79738,6.0579.8587,7.7449,1.22311a8.24765,8.24765,0,0,0,.90126.0375,18.07008,18.07008,0,0,1,1.94276.35618c1.53747.33883,3.09563.438,4.6505.71321.15494.02743.29958.0173.45189.05895.115.03146.22556.08867.339.11791A6.35282,6.35282,0,0,1,18.64757,4.2322c.8165.75288,1.82337,1.29691,2.58147,2.07668.15238.15674.32123.221.34565.45411a6.98032,6.98032,0,0,1-.00193.71026c0,.20832-.00115.41668,0,.625.00035.06413.04057.27276-.0126.32074-.05922.05344-.24.01147-.3191.0123a4.169,4.169,0,0,1-1.235-.33275,7.8137,7.8137,0,0,1-1.16084-.46074c-1.404-.69774-3.53964-.455-5.06733-.55735l-.289-.01943q-2.06082-.13912-4.12-.30067C7.95256,6.647,6.53332,6.576,5.1168,6.46608a27.64255,27.64255,0,0,0-3.66321-.36416c-.30294.01867-.462.15627-.79944.0168-.18993-.07851-.30743-.06072-.333-.2688C.15634,4.50951,1.48865,3.08376.72088,1.78538A2.53347,2.53347,0,0,0,.427,1.41067a1.55482,1.55482,0,0,1-.20835-.375C-.02189.55339-.017.0113.67842.10335A2.31442,2.31442,0,0,0,1.09372.12562Z"/>
   <path class="a"
         d="M17.58372,5.926a2.8928,2.8928,0,0,1,.69835-.73885c.4941-.34632,1.0307-1.0428,1.62029-1.17671.72721-.16334,2.4061.71253,2.4204,1.5045.00344.19042.02166-.10365.002.08478-.03511.336-.70616.85883-.92347,1.11152-.42526.49447-.945.91463-1.32406,1.44834a13.23767,13.23767,0,0,1-.71993,1.3188,4.80619,4.80619,0,0,1-2.37409.79273.70233.70233,0,0,1-.24565-.42063,13.777,13.777,0,0,1,.13756-2.03362A4.14668,4.14668,0,0,1,17.58372,5.926Z"/>
   <path class="a"
         d="M1.09372.12562A2.299,2.299,0,0,0,1.38717.09253,2.87851,2.87851,0,0,1,2.65826.326C4.33179.79738,6.0579.8587,7.7449,1.22311a8.24765,8.24765,0,0,0,.90126.0375,18.07008,18.07008,0,0,1,1.94276.35618c1.53747.33883,3.09563.438,4.6505.71321.15494.02743.29958.0173.45189.05895.115.03146.22556.08867.339.11791A6.35282,6.35282,0,0,1,18.64757,4.2322c.8165.75288,1.82337,1.29691,2.58147,2.07668.15238.15674.32123.221.34565.45411a6.98032,6.98032,0,0,1-.00193.71026c0,.20832-.00115.41668,0,.625.00035.06413.04057.27276-.0126.32074-.05922.05344-.24.01147-.3191.0123a4.169,4.169,0,0,1-1.235-.33275,7.8137,7.8137,0,0,1-1.16084-.46074c-1.404-.69774-3.53964-.455-5.06733-.55735l-.289-.01943q-2.06082-.13912-4.12-.30067C7.95256,6.647,6.53332,6.576,5.1168,6.46608a27.64255,27.64255,0,0,0-3.66321-.36416c-.30294.01867-.462.15627-.79944.0168-.18993-.07851-.30743-.06072-.333-.2688C.15634,4.50951,1.48865,3.08376.72088,1.78538A2.53347,2.53347,0,0,0,.427,1.41067a1.55482,1.55482,0,0,1-.20835-.375C-.02189.55339-.017.0113.67842.10335A2.31442,2.31442,0,0,0,1.09372.12562Z"/>
   <path class="a"
         d="M17.58372,5.926a2.8928,2.8928,0,0,1,.69835-.73885c.4941-.34632,1.0307-1.0428,1.62029-1.17671.72721-.16334,2.4061.71253,2.4204,1.5045.00344.19042.02166-.10365.002.08478-.03511.336-.70616.85883-.92347,1.11152-.42526.49447-.945.91463-1.32406,1.44834a13.23767,13.23767,0,0,1-.71993,1.3188,4.80619,4.80619,0,0,1-2.37409.79273.70233.70233,0,0,1-.24565-.42063,13.777,13.777,0,0,1,.13756-2.03362A4.14668,4.14668,0,0,1,17.58372,5.926Z"/>
   <path class="a"
         d="M1.09372.12562A2.299,2.299,0,0,0,1.38717.09253,2.87851,2.87851,0,0,1,2.65826.326C4.33179.79738,6.0579.8587,7.7449,1.22311a8.24765,8.24765,0,0,0,.90126.0375,18.07008,18.07008,0,0,1,1.94276.35618c1.53747.33883,3.09563.438,4.6505.71321.15494.02743.29958.0173.45189.05895.115.03146.22556.08867.339.11791A6.35282,6.35282,0,0,1,18.64757,4.2322c.8165.75288,1.82337,1.29691,2.58147,2.07668.15238.15674.32123.221.34565.45411a6.98032,6.98032,0,0,1-.00193.71026c0,.20832-.00115.41668,0,.625.00035.06413.04057.27276-.0126.32074-.05922.05344-.24.01147-.3191.0123a4.169,4.169,0,0,1-1.235-.33275,7.8137,7.8137,0,0,1-1.16084-.46074c-1.404-.69774-3.53964-.455-5.06733-.55735l-.289-.01943q-2.06082-.13912-4.12-.30067C7.95256,6.647,6.53332,6.576,5.1168,6.46608a27.64255,27.64255,0,0,0-3.66321-.36416c-.30294.01867-.462.15627-.79944.0168-.18993-.07851-.30743-.06072-.333-.2688C.15634,4.50951,1.48865,3.08376.72088,1.78538A2.53347,2.53347,0,0,0,.427,1.41067a1.55482,1.55482,0,0,1-.20835-.375C-.02189.55339-.017.0113.67842.10335A2.31442,2.31442,0,0,0,1.09372.12562Z"/>
   <path class="a"
         d="M17.58372,5.926a2.8928,2.8928,0,0,1,.69835-.73885c.4941-.34632,1.0307-1.0428,1.62029-1.17671.72721-.16334,2.4061.71253,2.4204,1.5045.00344.19042.02166-.10365.002.08478-.03511.336-.70616.85883-.92347,1.11152-.42526.49447-.945.91463-1.32406,1.44834a13.23767,13.23767,0,0,1-.71993,1.3188,4.80619,4.80619,0,0,1-2.37409.79273.70233.70233,0,0,1-.24565-.42063,13.777,13.777,0,0,1,.13756-2.03362A4.14668,4.14668,0,0,1,17.58372,5.926Z"/>

</g>
</svg>
