<?xml version="1.0" encoding="UTF-8"?>
<svg xmlns="http://www.w3.org/2000/svg"
     version="1.1"
     width="67.23269521mm"
     height="25.40667267mm"
     viewBox="0.00000000 0.00000000 190.58083964 72.01890540">

<g transform="scale(5.59901992)">   <defs>
      <style type="text/css"><![CDATA[
      .a {
        stroke: #000;
        stroke-miterlimit: 2.61313;
        stroke-width: 0.28346px;
      }
    ]]></style>
   </defs>
   <path class="a"
         d="M25.80615,3.76074q-1.207,1.66919-2.41016,3.33789-.68848.03589-1.377.07129a6.82377,6.82377,0,0,1-3.82617,2.29053c-.752.17188-3.1543.38965-3.58008.43457-5.873.70605-9.4043.36035-11.752-.54785A5.732,5.732,0,0,0,.21436,11.79834a37.2614,37.2614,0,0,0,11.18555.85254c5.875.25488,8.9668-1.41895,12.10156-3.06445A54.3265,54.3265,0,0,0,31.187,4.42627a5.32774,5.32774,0,0,0,2.709-2.86719Q33.84619-.45435,31.8667.3916c-.58008.2417-1.20508.56592-1.77734.81055a13.41069,13.41069,0,0,0-4.2832,2.55859Z"/>
   <path class="a"
         d="M18.38623,5.40479a48.0015,48.0015,0,0,1-5.5957.95459A5.96737,5.96737,0,0,0,9.939,5.96924C8.3042,5.45117,6.79248,4.81348,6.12256,3.33545c.77344-.915,1.99414-1.53711,4.19727-1.51709,2.91992.94189,7.02148.5957,11.54883-.21631a42.39559,42.39559,0,0,1,8.916-.313q-.96094,1.01587-1.92383,2.03076-1.67871.252-3.35352.50293c-2.47656.49463-5.13477,1.09326-7.12109,1.582Z"/>
   <path class="a"
         d="M11.44678,3.64551q3.53027-.11865,7.0625-.23779l-.10547,2.01074A5.57844,5.57844,0,0,1,18.23,8.74463q-.06152,1.1543-.12109,2.30957a3.76335,3.76335,0,0,1-3.16992-.3291,22.32508,22.32508,0,0,0-2.16016-4.38037q-.665-1.34985-1.332-2.69922Z"/>

</g>
</svg>
