<?xml version="1.0" encoding="UTF-8"?>
<svg xmlns="http://www.w3.org/2000/svg"
     version="1.1"
     width="29.34829759mm"
     height="22.52578987mm"
     viewBox="0.00000000 0.00000000 83.19196719 63.85270886">

<g transform="scale(9.12392709)">   <defs>
      <style type="text/css"><![CDATA[
      .a {
        stroke: #000;
        stroke-miterlimit: 10;
        stroke-width: 0.15px;
      }
    ]]></style>
   </defs>
   <path class="a"
         d="M.87583,4.23683c-.39038.28586-.8356.55533-.79868.86832.01505.12759.08447.37424.48981.46686,1.41531.32342,3.00027-.39386,4.30426.24435.24951.1221.47613.29.73419.39286.54987.21914.95841-.09256,1.19733.15185.19156.196.07428.48163.23938.54981.16687.0689.4382-.16037.57449-.3617a1.53079,1.53079,0,0,0,.21274-.8085c0-.21784-.04242-.30737.0213-.3617.13977-.11914.46817.20566.72339.06382a.39178.39178,0,0,0,.17023-.234c.04788-.20743-.14569-.30829-.13782-.57273a.75127.75127,0,0,1,.11117-.33276c.16095-.31992.33945-.35608.3245-.47748-.0185-.1499-.30045-.17306-.766-.40426-.33344-.16559-.33673-.22721-.53189-.31916-.81693-.38495-1.6026.29688-2.1915-.10638a.38052.38052,0,0,1-.1915-.25531c-.00842-.06778.00617-.18472.34042-.48935.48954-.44611.79554-.67929.79563-.67935a.37768.37768,0,0,0,.17154-.24234A.41471.41471,0,0,0,6.608,1.10979L6.34015.56532C6.22.32109,6.02561.03569,5.757.07948a.58993.58993,0,0,0-.29458.17368c-.36081.303-.54123.45447-.60019.51892-.43857.4794-1.1864.84467-2.33069,1.84094C1.367,3.62694,1.69748,3.63521.87583,4.23683Z"/>

</g>
</svg>
