<?xml version="1.0" encoding="UTF-8"?>
<svg xmlns="http://www.w3.org/2000/svg"
     version="1.1"
     width="19.76466605mm"
     height="27.49095631mm"
     viewBox="0.00000000 0.00000000 56.02578331 77.92719959">

<g transform="scale(5.75896889)">   <defs>
      <style type="text/css"><![CDATA[
      .a {
        stroke: #000;
        stroke-miterlimit: 10;
        stroke-width: 0.15px;
      }
    ]]></style>
   </defs>
   <path class="a"
         d="M4.43516.73419C3.636,1.3297,3.92223,1.84834,2.98781,2.88848c-.47065.5239-.49294.3363-1.30286,1.13789A7.48174,7.48174,0,0,0,.34452,5.84552c-.25238.48338-.32621.76345-.227,1.017.095.24269.31413.373.59326.53889a3.06467,3.06467,0,0,0,1.00605.359c.62035.11726,1.02246.19326,1.2766-.03191.26217-.23228.1054-.55341.4415-.82149a.58141.58141,0,0,1,.55919-.13865.496.496,0,0,1,.20143.36435,36.49184,36.49184,0,0,0,1.53236,4.63543c.35668.88933.62348,1.265,1.03793,1.47913.03668.01894.79191.42624,1.28716.05075a1.68047,1.68047,0,0,0,.45431-.66544q.40314-.869.77635-1.75156a3.56942,3.56942,0,0,0,.3697-1.38952,3.27137,3.27137,0,0,0-.179-.95657c-.23709-.84484.01194-.10585-.64047-2.91281a2.59321,2.59321,0,0,1-.09575-1.34043c.10271-.39258.246-.41227.31756-.77836A2.42082,2.42082,0,0,0,8.737,2.02541,5.865,5.865,0,0,0,8.07283.946c-.436-.61815-.603-.71568-.66729-.75017A1.72686,1.72686,0,0,0,6.26963.12119,3.79687,3.79687,0,0,0,4.43516.73419Z"/>

</g>
</svg>
