<?xml version="1.0" encoding="UTF-8"?>
<svg xmlns="http://www.w3.org/2000/svg"
     version="1.1"
     width="32.97850634mm"
     height="37.21963494mm"
     viewBox="0.00000000 0.00000000 93.48235651 105.50437268">

<g transform="scale(6.82797533)">   <defs>
      <style type="text/css"><![CDATA[
      .a {
        stroke: #000;
        stroke-miterlimit: 10;
        stroke-width: 0.15px;
      }
    ]]></style>
   </defs>
   <path class="a"
         d="M1.3204,11.40818a7.89681,7.89681,0,0,0-.86171,1.30851,2.49991,2.49991,0,0,0-.383,1.117,1.73683,1.73683,0,0,0,.36885,1.16305c.53057.57062,1.85277.53859,3.04926-.37026-.51237-.162-1.14336.26948-1.57283-.05356a.77689.77689,0,0,1-.24831-.37c-.32812-.9285.40754-1.86727,1.09752-2.56991C6.33088,8.007,10.15881,4.62782,13.40249.71564a.79552.79552,0,0,0,.2133-.39c.018-.14925-.806-1.38975-5.40178,3.45486A35.6986,35.6986,0,0,0,4.847,7.83783a6.96325,6.96325,0,0,1-.90962.82567A18.22288,18.22288,0,0,0,1.3204,11.40818Z"/>

</g>
</svg>
