<?xml version="1.0" encoding="UTF-8"?>
<svg xmlns="http://www.w3.org/2000/svg"
     version="1.1"
     width="12.36922955mm"
     height="54.24416747mm"
     viewBox="0.00000000 0.00000000 35.06233416 153.76297937">

<g transform="scale(3.97310504)">   <defs>
      <style type="text/css"><![CDATA[
      .a {
        stroke: #000;
        stroke-miterlimit: 10;
        stroke-width: 0.15px;
        fill-rule: evenodd;
      }
    ]]></style>
   </defs>
   <path class="a"
         d="M2.759,32.194a13.37775,13.37775,0,0,1-1.47336,5.698c-.17349.26408-.23539.4698-.50243.63915-.28408.18016-.39379.10053-.50052-.21213-.03187-.09336-.10684-.16534-.12834-.25237a1.49658,1.49658,0,0,1,.00483-.29626c-.00386-.20658-.08592-.37027-.084-.58281C.0799,36.66041.0748,36.133.075,35.60587a105.02245,105.02245,0,0,1,.75892-15.371,65.4887,65.4887,0,0,0,.19436-8.01846C1.089,9.4825,1.17656,6.74753,1.404,4.0217a8.62376,8.62376,0,0,0,.08682-.87717,2.1952,2.1952,0,0,1,.375-1.20536A3.72014,3.72014,0,0,1,2.758,1.08486,7.23913,7.23913,0,0,1,3.45312.64438c.145-.08989.33053-.15906.46538-.25448A1.08882,1.08882,0,0,1,4.457.09533a.29971.29971,0,0,1,.20994-.001c.1236.05993.182.26533.23538.37919a4.34492,4.34492,0,0,1,.4042,1.22923c.75081,5.31808-.08995,10.68174-.504,15.9698A46.1558,46.1558,0,0,1,4.02088,23.632c-.325,1.53613-.774,3.04635-1.0288,4.59566A34.35349,34.35349,0,0,0,2.759,32.194Z"/>
   <path class="a"
         d="M1.7169,1.34877c.02258-.1984.18822-.31474.48795-.416C3.2653.57451,4.28328-.05335,5.45336.20953a2.09,2.09,0,0,1,.32983.10263c.214.0871.41743.16622.62515.27077.23713.11936.5111.19959.72953.331a5.227,5.227,0,0,1,1.30272.86655,1.07579,1.07579,0,0,1,.305.48761c.04562.246-.28288.51566-.40206.71063-.14468.23668-.22474.51394-.37042.75a2.29224,2.29224,0,0,1-.5691.64813,1.83324,1.83324,0,0,1-1.47715.43951,1.81464,1.81464,0,0,1-.64133-.33571c-.32835-.198-.65221-.43739-.96056-.66623-.3996-.29656-.82342-.558-1.23516-.83709-.26247-.17791-.52595-.35479-.77974-.545a1.50619,1.50619,0,0,1-.49979-.672A.82247.82247,0,0,1,1.7169,1.34877Z"/>

</g>
</svg>
