<?xml version="1.0" encoding="UTF-8"?>
<svg xmlns="http://www.w3.org/2000/svg"
     version="1.1"
     width="51.95355334mm"
     height="49.25764086mm"
     viewBox="0.00000000 0.00000000 147.26989960 139.62797414">

<g transform="scale(5.42284362)">   <defs>
      <style type="text/css"><![CDATA[
      .a {
        stroke: #000;
        stroke-miterlimit: 10;
        stroke-width: 0.15px;
        fill-rule: evenodd;
      }
    ]]></style>
   </defs>
   <path class="a"
         d="M26.6587,1.93745c-.168.45208-.8682.6567-1.43949.8598a11.28428,11.28428,0,0,1-1.98051.6079c-.6601.1021-1.3418.1407-1.9961.2906-.8779.2011-2.0312.98778-1.8652,1.9936.1895,1.1568,1.2275,1.8023,2.0791,2.457a10.04433,10.04433,0,0,1,2.1065,2.28718,11.30339,11.30339,0,0,1,1.1943,2.49361c.6328,1.5811,2.0215,3.0601,2.2148,4.77739.03711.33.0596.70161.0948,1.00681.1464,1.2773-.7735,2.0254-1.7559,2.687-1.0869.7329-1.9004,1.7661-3.0137,2.46919a11.666,11.666,0,0,1-3.95509,1.53181,12.91325,12.91325,0,0,1-5.31931-.0064,11.127,11.127,0,0,1-2.9863-1.1386,10.58,10.58,0,0,1-1.1133-.6407c-.3037-.2256-.4268-.582-.7227-.8149-.3603-.2837-.8076-.3726-1.1435-.6187a3.03547,3.03547,0,0,1-1.0947-2.1342,5.10159,5.10159,0,0,1,.1992-2.524,2.10038,2.10038,0,0,1,.7383-.7436c1.0136-.7525,3.0214-1.2778,4.166-.4444.1846.1343.3066.2266.2939.4751.0039-.08-.30659.51959-.29.49659-.2217.29061-.5225.45661-.7295.70851-.6865.8404.0342,2.00049.7852,2.5103a12.44386,12.44386,0,0,0,3.0205,1.5215c.7734.2636,1.5683.5195,2.3173.8476.5381.2363.62891.3945,1.1631.2676a16.3943,16.3943,0,0,0,1.8145-.4902,3.16575,3.16575,0,0,0,1.6826-.9517,4.35567,4.35567,0,0,0,.6484-.8828,2.02578,2.02578,0,0,0,.1094-.8526,11.75179,11.75179,0,0,0,.17091-1.2539c-.00291-.9326.28609-2.00831-.23341-2.8496a10.92026,10.92026,0,0,0-2.5937-2.5683,14.34807,14.34807,0,0,0-1.8868-1.315,9.67876,9.67876,0,0,1-2.2168-2.5947,6.66211,6.66211,0,0,1-1.15229-3.4409c.001-.6099.03609-1.0215.55859-1.3779.6133-.4175,1.4228-.461,2.0518-.9034a21.42143,21.42143,0,0,1,2.4882-1.4716c1.0391-.5401,2.0108-1.2808,3.0879-1.7403a5.50067,5.50067,0,0,1,2.4258-.3833,2.85525,2.85525,0,0,1,1.9199,1.0698A.88975.88975,0,0,1,26.6587,1.93745Z"/>
   <path class="a"
         d="M16.9663,16.80214H11.4721c-.6533,0-1.3164-.1987-1.9814-.2563-.3799-.0328-.7402-.0874-1.1192-.125a8.72231,8.72231,0,0,0-2.5898.0346,3.629,3.629,0,0,0-1.7842,1.377c-.206.269-.40129.5703-.626.8447-.1904.23339-.5781.523-.5459.8569-.497-.0463-.3183.2393-.5097.4966-.1504.2031-.3955.3574-.5654.5557a6.34528,6.34528,0,0,1-.8731,1.062c-.2676.1997-.6133.2065-.7578.5635-.35839.8843,1.5459.7148,2.041.6216a5.66308,5.66308,0,0,0,2.7109-1.9976c.5469-.646.8916-1.332,1.7256-1.6577.9678-.3779,2.2393.124,3.2549.124a24.0451,24.0451,0,0,1,3.002.0215c1.4765.1894,3.0986.5674,4.5488.1025,1.0928-.35061,2.751-.4541,3.208-1.7109.3096-.8486-.124-.9995-.8535-.9468C18.8325,16.83534,17.895,16.80214,16.9663,16.80214Z"/>

</g>
</svg>
