<?xml version="1.0" encoding="UTF-8"?>
<svg xmlns="http://www.w3.org/2000/svg"
     version="1.1"
     width="22.76060374mm"
     height="22.21174622mm"
     viewBox="0.00000000 0.00000000 64.51832283 62.96251499">

<g transform="scale(9.28064806)">   <defs>
      <style type="text/css"><![CDATA[
      .a {
        stroke: #000;
        stroke-miterlimit: 10;
        stroke-width: 0.15px;
      }
    ]]></style>
   </defs>
   <path class="a"
         d="M3.15607,2.61047c-.10908.13381-.26351.33587-.19869.47175.055.11538.22562.09395.273.22474.02718.07507-.01491.12107-.08547.35339a2.43143,2.43143,0,0,0-.07813.3125.85618.85618,0,0,0,.04572.54036c.15108.26231.54445.28209.65741.28776a1.60868,1.60868,0,0,0,.95312-.3125,4.98648,4.98648,0,0,0,2.01146-2.071,1.02118,1.02118,0,0,0,.11343-.72681,1.23688,1.23688,0,0,0-.51613-.5855,1.19482,1.19482,0,0,0-.82749-.3245A1.68954,1.68954,0,0,0,4.9254,1.085a4.86952,4.86952,0,0,0-.56481.39152A7.39819,7.39819,0,0,0,3.15607,2.61047Z"/>
   <path class="a"
         d="M2.398.26217c-.08969.17319-.03012.31721-.16175.40649-.14063.0954-.28268-.07245-.482.02294C1.612.7597,1.6418.86565,1.4427.97926c-.10982.06267-.15638.05183-.23318.12053a.51466.51466,0,0,0-.14843.27334c-.11573.48666-.1736.73-.26,1.22472C.76587,2.7998.65947,3.23561.44667,4.10722a.7452.7452,0,0,0,.00715.46488c.03426.08455.0946.15579.13681.23667.03807.073.0719.19632.01955.26154-.04486.0559-.10766.00682-.26218.05879A.42784.42784,0,0,0,.09026,5.335a.146.146,0,0,0-.01511.05666.20365.20365,0,0,0,.06973.1437.46092.46092,0,0,0,.48437.10937.47554.47554,0,0,0,.23863-.29245c.01888-.06885.01334-.11519.05294-.14649.0605-.0478.14892.009.22516-.00249.09154-.01378.13534-.1157.18711-.19244a.1969.1969,0,0,1,.227-.056c.061.05039-.06166.18434-.00894.3461.05108.15674.204.14681.24178.29779a.36046.36046,0,0,1-.103.32095.7682.7682,0,0,1-.31156.1625.66191.66191,0,0,0-.20447.08614.58236.58236,0,0,0-.14162.18063l-.107.18167c-.02224.03775-.04485.08453-.024.123a.12385.12385,0,0,0,.10106.04828,1.59785,1.59785,0,0,0,1.03247-.2901A4.754,4.754,0,0,0,2.845,5.68a2.74261,2.74261,0,0,0,.37462-.45641,2.629,2.629,0,0,0,.25965-1.39536,1.45641,1.45641,0,0,0-.03176-.34859c-.02463-.09661-.0683-.18728-.09762-.28257a.991.991,0,0,1-.04053-.36914A.31065.31065,0,0,1,3.35554,2.671c.04731-.06674.16117.14952.32382.15947a.43306.43306,0,0,0,.34052-.23261.7113.7113,0,0,0,.0625-.45313A4.98529,4.98529,0,0,0,3.83238.926,1.25126,1.25126,0,0,0,3.65454.53851a1.33633,1.33633,0,0,0-.40688-.3368C3.02283.07729,2.54961-.03059,2.398.26217Z"/>

</g>
</svg>
