<?xml version="1.0" encoding="UTF-8"?>
<svg xmlns="http://www.w3.org/2000/svg"
     version="1.1"
     width="29.51935728mm"
     height="28.44392244mm"
     viewBox="0.00000000 0.00000000 83.67693792 80.62837806">

<g transform="scale(5.30581105)">   <defs>
      <style type="text/css"><![CDATA[
      .b {
        stroke: #000;
        stroke-miterlimit: 10;
        stroke-width: .15px;
      }
    ]]></style>
   </defs>
   <path class="b"
         d="m4.40189,1.42377c-.63187.25317-1.08731.57501-1.40424.85107-.42105.36679-.69778.76016-1.23404,1.53192-.38089.54816-.62201.8952-.89362,1.40424C.29892,6.28138-.02761,7.35728.10404,7.42377c.08234.0416.22021-.37393.72339-.59573.35535-.15662.77762-.16583.97873-.17023.35379-.00772.35562.04642.51065,0,.43439-.13007.52301-.586.76593-.55319.03122.00421.05826.01559.34042.34045.29651.34134.29907.36612.383.42551.26807.1897.41373.05862.59573.21277.27951.23669.19672.76663.17023.93619-.02222.14224-.06039.27621-.29788.76596-.3374.6958-.5061,1.04373-.68085,1.31912-.24521.38647-.39609.54904-.34042.76596.05896.2298.28421.26523.29788.46811.01489.22134-.24149.35394-.46811.59573-.29916.31915-.39163.66345-.51062,1.10638-.15143.56372-.28696,1.69223.21277,2,.2515.15491.57422.04666.72339,0,1.2067-.37762,2.52667-.11426,3.78723-.21277.85764-.06702,2.09921-.12924,3.65958-.08511.11581-.16254.30716-.37442.59576-.46808.41321-.13412.62241.10501,1.02127,0,.43839-.11542.36267-.45096.89362-.76596.3212-.19055.66803-.24051,1.36169-.34042.61893-.08914.79117-.04831.85107-.17023.13644-.27771-.5632-.88474-1.06384-1.31912-.70163-.60876-1.08466-.94107-1.70212-1.1915-.49661-.20142-1.0896-.2363-2.25531-.29788-.71921-.03799-1.30045-.0444-2.59576-.04254-.63629.00092-1.42395.00381-2.33066.0112.069-.32187.13797-.64377.20697-.96564-.15253-.08838-.33105-.22519-.34439-.40726-.01175-.16046.1116-.26282.21277-.42554.21765-.35007.13419-.6604.1702-.93619.08438-.64636.77103-.69043,1.36172-1.44681.32266-.41318.45624-1.04141.72339-2.29785.18994-.89328.28262-1.34888.17023-1.78723-.2464-.96109-1.03442-1.44656-1.10638-1.48938-1.04172-.61981-2.13397-.17902-2.25531-.12766-.15604.38297-.31207.76596-.46811,1.14893Z"/>

</g>
</svg>
