<?xml version="1.0" encoding="UTF-8"?>
<svg xmlns="http://www.w3.org/2000/svg"
     version="1.1"
     width="52.38550961mm"
     height="16.01382241mm"
     viewBox="0.00000000 0.00000000 148.49439912 45.39359213">

<g transform="scale(6.53780177)">   <defs>
      <style type="text/css"><![CDATA[
      .b {
        stroke: #000;
        stroke-miterlimit: 10;
        stroke-width: .15px;
      }
    ]]></style>
   </defs>
   <path class="b"
         d="m1.13936,5.3695c-.28659.13483-.43222.26013-.72342.51068-.29395.25293-.34702.36462-.34042.46808.0137.21527.28287.35339.34042.38293.3017.15485.61761.09625.68085.08514,1.46707-.25714,2.98041.1142,4.46811.04254,1.97726-.09521,2.96588-.14282,3.78723-.12769,1.423.02625,2.66064.13605,4.25531-.12762.21204-.03503.4295-.0766.8085-.12769.87869-.11853,1.41516-.12537,2.72342-.17023,1.70499-.05847,2.11905-.09229,2.63831-.17017.35168-.05273.87027-.14355,1.48935-.383.18875-.073,1.42651-.55176,1.36926-.88885-.03976-.23407-.68823-.30792-1.07138-.34521-2.45166-.23865-4.72794-.02081-5.48938.0426-1.65414.13782-2.91696.10999-3.91489.08508-2.4382-.06079-3.77362-.09406-4.85107-.34045-.14249-.03259-.55344-.13129-1.10638-.12762-.60754.00403-1.01077.12921-1.48935.25531-1.5188.40015-2.68042.51562-3.57446.93616Z"/>
   <path class="b"
         d="m1.39467,2.56103c-.04163.27911.02097.47119.07373.70129.35489,1.54718-.27921,2.43066.18158,2.83057.22061.19147.58679.11346,1.31915-.04254.97778-.20831,2.17984-.46436,2.55319-1.31915.01395-.03192.0946-.43304.25534-1.23401.0722-.3598.1312-.65533.1702-.85107.15897-.00781.39511-.02094.68085-.04254.685-.05182,1.24835-.1217,2.21277-.25531,1.13748-.15759,1.13242-.16821,1.48938-.21277,1.29123-.16107,2.26089-.13446,2.85104-.12769,1.0531.01208,2.63638-.01886,4.93619-.21277-.00674.14905-.02579.37305-.08511.63831-.08804.39368-.19315.5578-.25531.76593-.2095.70148.21307,1.41968.25531,1.48938.48157.79419,1.36139.94879,1.53192.97876.13797.02423,1.13904.1842,1.87234-.46814.34665-.30835.45804-.64526.68085-1.31909.26559-.80328.26218-1.40076.25531-2.59576-.00323-.56183-.03564-.79968-.21277-.93616-.26938-.20758-.6777-.02972-1.14893.08508-.52332.1275-.64883.0614-2.17023.04254-3.04092-.03766-5.40414.08514-5.40424.08514-1.79861.09344-2.34058.20923-3.48938.04254-.41888-.06079-.64084-.11884-1.78723-.29791-1.4245-.22253-1.89371-.25977-2.46808-.21277-.63358.05182-1.10333.18225-1.36169.25537-.57544.1629-1.28952.3725-2,.93616-.37833.30017-.84772.68323-.93619,1.27661Z"/>

</g>
</svg>
