<?xml version="1.0" encoding="UTF-8"?>
<svg xmlns="http://www.w3.org/2000/svg"
     version="1.1"
     width="77.39185465mm"
     height="25.52855320mm"
     viewBox="0.00000000 0.00000000 219.37853268 72.36445236">

<g transform="scale(3.98475207)">   <defs>
      <style type="text/css"><![CDATA[
      .b {
        stroke: #000;
        stroke-miterlimit: 10;
        stroke-width: .15px;
      }
    ]]></style>
   </defs>
   <path class="b"
         d="m13.34693,2.37648c-.52296.15155-.98763.31824-3.48936,1.48938-1.71903.80475-2.57854,1.20709-3.44681,1.65961-1.8474.96277-2.7711,1.44415-3.74467,2.21277-1.17387.9267-2.00079,1.89313-2.55319,2.63824.11111.05707.29529.15643.51064.29791,1.43233.94104,1.57275,1.99084,2.29787,2.08508.1674.02179.42414.00018,1.57446-1.02124.95061-.84406,1.2798-1.27728,2-2,.68928-.69171,1.55603-1.55194,2.80852-2.34045.33511-.211.90425-.49524,2.04255-1.06384,1.66955-.83392,2.50432-1.25092,2.85107-1.36169,2.03428-.64996,3.43793-.26172,3.74468-1.02124.09662-.23926.09526-.61926-.04256-.93622-.16168-.37189-.4693-.56067-.59574-.63831-1.26908-.77905-3.95735,0-3.95745,0Z"/>
   <path class="b"
         d="m16.49586,5.6531c-1.98952-1.7832-3.49013-2.00232-3.44681-2.63831.03674-.53943,1.11523-.36646,2.29787-1.57446.68783-.70258.97074-1.42279,1.44681-1.36169.27869.03577.26711.29352.76596.59576.52864.32031.79629.18518,1.2766.46808.41328.24347.61934.5816.76595.80853,1.24706,1.93005,2.78541,3.65558,4.17021,5.48932,1.95296,2.58612,3.06388,3.63733,3.65958,4.17023.67642.6051,1.02396.91602,1.57446,1.27661,2.51595,1.64813,5.19691,1.66589,6.25533,1.65955,2.16556-.01306,3.94086-.58154,5.44681-1.06384.38815-.12433,1.29364-.42804,2.25533-.76593.93022-.32684,1.94975-.69855,2.34042-.85107,3.16115-1.23431,5.14124-3.73499,5.40425-3.48938.17905.16718-.69009,1.37109-1.02127,1.82983-.95224,1.31903-1.89388,2.20227-2.38298,2.63831-1.9689,1.75525-3.82808,2.70294-4.29788,2.93616-2.33656,1.16003-4.30458,1.52863-5.74467,1.78723-2.36577.42487-4.73369.8501-7.65958.12762-2.40773-.59454-4.07116-1.68921-4.97872-2.29785-1.39082-.93268-2.95505-1.98169-4.17021-3.91492-.9975-1.58698-3.50021-5.41998-3.95745-5.82977Z"/>
   <path class="b"
         d="m50.24055,6.6744c-.44998.4903-.72357.88135-1.14894,1.48938-1.03329,1.47699-1.97003,2.81598-1.53192,3.48932.24292.37335.82037.40662,1.14894.42554.95413.05499,1.65875-.50568,1.87234-.68085.97015-.79553.74115-1.54242,1.70212-3.36169.36801-.69672.40474-.52808,1.57448-2.29785.80682-1.2207,1.20816-1.83362,1.10638-1.95746-.3058-.37213-2.88739.89313-4.7234,2.89362Z"/>
   <path class="b"
         d="m6.75118,10.84462c-.67837-.0434-1.27937.03949-3.10638.5957-2.81089.85571-2.92485,1.12726-2.93617,1.27661-.03546.46796.84147.98804,1.57447,1.14893.63224.13873.74573-.08014,2.04255-.17023.38248-.02655.34081-.00531,2.34043-.04254.94463-.01758,1.12721-.02557,1.3617-.17023.60081-.37073.98933-1.29773.68085-1.91486-.30885-.61786-1.19098-.67432-1.95744-.72339Z"/>

</g>
</svg>
