<?xml version="1.0" encoding="UTF-8"?>
<svg xmlns="http://www.w3.org/2000/svg"
     version="1.1"
     width="19.04167454mm"
     height="58.27175405mm"
     viewBox="0.00000000 0.00000000 53.97641829 165.17978452">

<g transform="scale(6.53780177)">   <defs>
      <style type="text/css"><![CDATA[
      .b {
        stroke: #000;
        stroke-miterlimit: 10;
        stroke-width: .15px;
      }
    ]]></style>
   </defs>
   <path class="b"
         d="m.60802,1.77564C.05381,2.31898.06899,3.12745.07734,4.75709c.01699,3.31531-.02822,3.40802.10213,4.08508.16238.84341.20906.57761.64681,2.31491.38863,1.54239.58295,2.31357.71489,3.23404.12512.87286.1461,1.42694.47659,2.2468.20603.51108.44289.90353.61277,1.15747.11665.05865.30362.13742.54468.1702.23529.03201.33148-.00571.47659.06808.21989.11179.38196.39304.30638.51065-.06569.10223-.32252.09888-.61277-.03406-.02342.67505-.0498,1.21765-.06808,1.56595-.00997.18994-.07227,1.36472-.03404,2.75745.01131.4122.03023.7998.27234,1.1915.18772.30371.43425.48795.64681.64682.32567.24341.61611.46045,1.02128.51062.33546.04153.6435-.08578,1.25957-.34042.58119-.2402.87178-.36032,1.05532-.5787.36062-.42908.39075-.99438.40851-1.32767.01424-.26727-.00921-.49075-.03404-.64682-1.07108-.14862-1.60448-.27344-1.6-.37445.00467-.10535.59466-.18481,1.77021-.23831.06207-.37186.12418-.8714.13617-1.46384.0036-.17807.01056-.75351-.10213-1.66806-.05982-.48547-.16714-1.1785-.44255-2.28085-.13628-.54547-.38944-1.49429-.85106-2.82553-.61955-1.78665-.77681-1.84616-1.25957-3.33618-.36217-1.1178-.5691-1.99615-.71489-2.62128-.18669-.80048-.46274-1.98404-.64681-3.50638-.28246-2.33606-.13342-3.69226-.71489-3.88086-.2001-.06491-.43978.04752-.91915.27234-.19724.0925-.44826.23184-1.19149.81702-.41972.33044-.62957.49567-.7289.59305Z"/>

</g>
</svg>
