<?xml version="1.0" encoding="UTF-8"?>
<svg xmlns="http://www.w3.org/2000/svg"
     version="1.1"
     width="28.79618685mm"
     height="27.44598104mm"
     viewBox="0.00000000 0.00000000 81.62706018 77.79964874">

<g transform="scale(5.68388048)">   <defs>
      <style type="text/css"><![CDATA[
      .a {
        stroke: #000;
        stroke-miterlimit: 10;
        stroke-width: 0.15px;
      }
    ]]></style>
   </defs>
   <path class="a"
         d="M11.45149.08186a1.47578,1.47578,0,0,1,1.279.351c.0363.04.26529.29975.18976.524-.07579.225-.38975.21094-.6875.40625A1.68012,1.68012,0,0,0,11.639,2.39436c-.44662,1.47072-2.41044,2.36781-2.21875,2.71875.14739.26982,1.23517-.22282,2.89656.12193.38439.07975.53464.14946.60344.28432.29962.58731-1.19989,1.91158-1.875,2.5-2.54369,2.21706-4.99641,3.18976-4.84375,3.59375.05267.13936.4.17026.59375.1875a1.87529,1.87529,0,0,0,.90625-.15625,12.114,12.114,0,0,1,4.4375-1.1875c.92266.01217,2.06.30183,2.14254.78675.04409.25906-.23673.50012-.45162.70276-.91515.863-1.87642.98546-4.15967,1.35424a21.66352,21.66352,0,0,1-5.1875.21875,1.33955,1.33955,0,0,1-.625-.25,1.18576,1.18576,0,0,1-.375-.46875c-.35018-1.031,4.81816-4.26989,5.84375-4.6875a2.2809,2.2809,0,0,0,.71875-.5.90577.90577,0,0,0,.28125-.46875.708.708,0,0,0-.09375-.53125c-.14267-.16262-.43368-.17373-1.375.0625-1.22729.308-1.51118.52225-1.84375.34375a1.0526,1.0526,0,0,1-.46875-.90625c.00072-.58339.5013-.969,1.28125-1.625,1.52638-1.28379,2.35317-1.97918,2.25476-2.1844-.116-.24188-1.53141.16727-2.59851.5594a19.01876,19.01876,0,0,0-5.8125,2.875C1.403,5.96026.744,6.53334.35774,6.33186.10558,6.20033.08015,5.79628.07649,5.73811c-.05559-.88322,1.44767-1.669,3.625-2.8125C3.70149,2.92561,8.78419.25625,11.45149.08186Z"/>

</g>
</svg>
