<?xml version="1.0" encoding="UTF-8"?>
<svg xmlns="http://www.w3.org/2000/svg"
     version="1.1"
     width="28.23382790mm"
     height="59.64993360mm"
     viewBox="0.00000000 0.00000000 80.03290586 169.08638906">

<g transform="scale(6.24784584)">   <defs>
      <style type="text/css"><![CDATA[
      .b {
        stroke: #000;
        stroke-miterlimit: 10;
        stroke-width: .15px;
      }
    ]]></style>
   </defs>
   <path class="b"
         d="m3.33828,5.52181c-.08923.30676-.2843,1.0079-.51065,2.29788-.17075.97311-.26505,1.74411-.46808,3.78723-.13956,1.40448-.33051,2.80457-.42554,4.21277-.10519,1.55911-.09448,2.31076-.59573,3.23404-.19934.36719-.41531.64297-.63831,1.23404-.20831.55215-.25241.92789-.38297,2-.27966,2.29681-.34644,2.78271-.04257,2.97873.1384.08926.3334.05951.72342,0,.59784-.09122,1.06839-.2915,1.74469-.63831.46176-.23682.4191-.23407,1.48935-.8085.26135-.14026.8313-.43994,1.53192-.51065.16238-.01639.36227-.02353.55319.08511.2269.12915.32037.35312.4274.62585.23126.58932.34686.884.42368,1.16138.20871.75378.21759,1.05817.51062,1.44681.12207.1619.22336.24545.34042.29788.23889.10696.52032.07385.89362-.08511.92288-.39301,1.53693-1.1846,1.57446-1.23404.51419-.67694.72-1.25891,1.10638-2.38297.39319-1.14386.20456-.93417.72342-2.68085.31107-1.04715.49927-1.52786.38297-2.25534-.0502-.31406-.14554-.91025-.59573-1.19147-.38034-.23758-.83762-.14017-1.57446.08508-1.69226.51733-2.89352,1.10635-2.89362,1.10638-.71405.35013-1.6106.80444-2.63831,1.36172-.07278-.43771-.12955-1.08078,0-1.8298.13156-.76074.39365-1.27423.68085-1.87234.00003-.00009.71594-1.49094,1.27661-2.89362.65579-1.64062.92905-3.06122,1.19147-4.42554.24637-1.28082.16742-1.29288.42554-2.46808.33951-1.54568.72339-2.97864.72342-2.97873.39828-1.48663.55844-1.89148.29785-2.34042-.27975-.48193-.90039-.76651-1.44681-.76596-.4306.00043-.75381.17789-1.02127.34042-1.00525.61093-1.96899,1.19666-2.76596,2.46811-.4736.75555-.65616,1.38315-1.02127,2.63828Z"/>

</g>
</svg>
