<?xml version="1.0" encoding="UTF-8"?>
<svg xmlns="http://www.w3.org/2000/svg"
     version="1.1"
     width="44.06568649mm"
     height="22.62194413mm"
     viewBox="0.00000000 0.00000000 124.91055094 64.12523915">

<g transform="scale(5.59901992)">   <defs>
      <style type="text/css"><![CDATA[
      .a {
        stroke: #000;
        stroke-miterlimit: 2.61313;
        stroke-width: 0.28346px;
      }
    ]]></style>
   </defs>
   <path class="a"
         d="M1.3916.80713l.646-.10547a4.82025,4.82025,0,0,1,4.79.1582c.2334.03711.46631.07227.7002.10742q-.1084.85254-.21582,1.70508a1.99809,1.99809,0,0,0-.16113,1.2793c3.52295.31445,7.0083.55469,10.38721.58594.87988.30273,1.041,1.13672-.376,3.14453q-4.92627.24023-9.8501.47852C4.897,8.68213,2.09717,9.856.7998,8.481-.52393,6.95947.39746,3.90674,1.3916.80713Z"/>
   <path class="a"
         d="M16.03223,5.12354c.73047-2.11719,3.22559-2.73633,5.97461-3.14453q.0791,2.58691.16016,5.16992c-.44727,1.68359-1.793,2.81055-3.39062,3.7832a5.82813,5.82813,0,0,1-1.50684.373.47965.47965,0,0,1-.05371-.79883,23.15631,23.15631,0,0,1-1.18359-5.38281Z"/>

</g>
</svg>
