<?xml version="1.0" encoding="UTF-8"?>
<svg xmlns="http://www.w3.org/2000/svg"
     version="1.1"
     width="29.58328684mm"
     height="32.76688533mm"
     viewBox="0.00000000 0.00000000 83.85820426 92.88249228">

<g transform="scale(5.94520625)">   <defs>
      <style type="text/css"><![CDATA[
      .b {
        stroke: #000;
        stroke-miterlimit: 10;
        stroke-width: .15px;
      }
    ]]></style>
   </defs>
   <path class="b"
         d="m9.6497.94349c-.63394.23788-.77728.30804-.86172.35107-.49646.25293-1.00842.52249-1.21274,1.05319-.04492.11667-.12399.33023-.06384.57446.08023.32582.35803.50259.60638.67023.45337.30603,1.03384.73361,1.3085.98935.50461.46985.76761,1.09579.86169,1.56384.15918.7919-.11044,1.40402-.57446,2.45743-.32724.74292-.71133,1.59109-1.56381,2.36172-.31882.28821-.74446.53256-1.59575,1.02127-1.31502.75491-1.97253,1.13239-2.74469,1.37234-.81914.25455-1.29118.26151-1.94681.70212-.26837.18036-.39795.31943-.79787.54254-.57819.32257-1.00075.4187-.98936.57449.00397.05438.06158.1265.38298.22339.70274.21188,1.31525.13483,1.37234.12766,2.18567-.27481,2.05328-.22855,2.26596-.28723.23904-.06595.44461-.13498,2.42552-1.02127.81036-.36258,1.21556-.54385,1.2766-.57446,1.52722-.76575,2.54169-1.71652,3.28723-2.42554.83316-.79236,1.37302-1.30576,1.883-2.20212.2153-.37842.57199-1.01675.76596-1.91492.15891-.73578.01569-.75275.22339-2.07446.0405-.25772.09219-.55136.06384-.95743-.02957-.42352-.05634-.80713-.31915-1.11703-.25458-.3002-.49478-.25311-.63831-.57446-.0105-.02353-.15582-.36102,0-.60638.10056-.15833.24384-.1481.41489-.25531.42831-.26846.62415-1.01834.383-1.30853-.08853-.10654-.23758-.15305-.76596-.12766-.94339.04535-1.67978.25186-2.01065.35107-.37494.11243-.72867.24515-1.43616.51062Z"/>

</g>
</svg>
