<?xml version="1.0" encoding="UTF-8"?>
<svg xmlns="http://www.w3.org/2000/svg"
     version="1.1"
     width="25.53348648mm"
     height="32.40127747mm"
     viewBox="0.00000000 0.00000000 72.37845085 91.84618654">

<g transform="scale(7.25368714)">   <defs>
      <style type="text/css"><![CDATA[
      .b {
        fill: #000;
        stroke: #000;
        stroke-linecap: round;
        stroke-linejoin: round;
        stroke-width: .15px;
      }
    ]]></style>
   </defs>
   <path class="b"
         d="M5.51281,3.43096c.48819-.87171,1.10403-1.70175,1.17841-2.7584,.05723-.81305-.68181-.63899-1.19166-.39029-.55484,.27066-1.084,.64809-1.5316,1.07295C2.58233,2.67048-.3006,6.74521,1.88222,8.48378c.8343,.6645,2.01619,1.00538,2.70588-.09711,.56099-.89677,.2395-2.27748,.32732-3.27198,.05438-.61581,.30262-1.15737,.5974-1.68373Z"/>
   <path class="b"
         d="M1.98318,6.51668c.59624,.28916,.94298,.8856,1.4733,1.27808,.6352,.47009,1.29764,.65398,1.94845,1.03629,.40961,.24062,.49063,.57778,.46775,1.06106-.05616,1.18543-1.53438,1.53693-2.50495,1.51062-1.14089-.03093-2.4104-.61116-3.01993-1.60705-.58293-.95242-.28141-3.8769,1.38959-3.37497,.08677,.02606,.16838,.05842,.24579,.09597Z"/>
   <path class="b"
         d="M7.13869,.83748c.71647-1.71335,1.91648,1.18851,2.13497,1.87529,.40821,1.28313,.79605,2.91989,.55537,4.27366-.06866,.3862-.18472,.76515-.30782,1.13694-.36439,1.1005-.98669,2.06346-1.412,3.1258-.18328,.45782-.40312,1.14386-.94956,1.30037-.54396,.1558-.63975-.19349-.5676-.69227,.09706-.67095,.04806-1.32864,.10446-1.98124,.05396-.62445,.40922-1.18963,.44175-1.82959,.06966-1.37055,.00611-2.74126-.04763-4.11106-.03606-.91906-.32116-2.21542,.04807-3.0979Z"/>

</g>
</svg>
