<?xml version="1.0" encoding="UTF-8"?>
<svg xmlns="http://www.w3.org/2000/svg"
     version="1.1"
     width="15.41589752mm"
     height="51.00011720mm"
     viewBox="0.00000000 0.00000000 43.69852368 144.56718427">

<g transform="scale(5.79224922)">   <defs>
      <style type="text/css"><![CDATA[
      .cls-1 {
        stroke: #000;
        stroke-miterlimit: 10;
        stroke-width: .15px;
      }
    ]]></style>
   </defs>
   <path class="cls-1"
         d="M1.25242,5.7252c-.07941-1.01282-.10477-1.48615-.08511-2.08508,.03986-1.21436,.2196-1.5719,.46811-1.68085,.10864-.04767,.22845-.04596,.46808-.0426,.34201,.00482,.55777,.07404,.78723,.12769,.87445,.20447,1.25146,.01971,1.40427,.27661,.03864,.06494,.0199,.08575,0,.46808-.02466,.47449-.01343,.78156,0,1.14893,.01572,.42975,.04105,.51373,.06381,.57446,.08585,.229,.18954,.27246,.23404,.48938,.01144,.05579,.02591,.15692-.04254,.51062-.07065,.36505-.12161,.44092-.17023,.68085-.05307,.26196-.04926,.45251-.04254,.78723,.0018,.09027,.00854,.32672,.08511,.91492,.09509,.73059,.13629,.76221,.14893,1.06384,.01617,.3858-.04245,.54285-.10638,1.02124-.13602,1.01782,.01422,1.1687-.10638,2.29791-.02567,.2403-.01901,.10742-.1702,1.10638-.16061,1.06122-.24091,1.5918-.29788,2.10638-.06757,.61029-.20441,1.21582-.21277,1.82977-.00314,.23132,.00201,.5788-.21277,.91486-.15411,.24115-.35583,.37366-.53192,.48938-.28436,.18683-.51581,.24512-.9787,.36169-.13251,.03339-.21796,.04919-.31915,.0213-.22781-.06274-.34793-.29523-.40427-.40424-.11969-.23163-.1369-.44403-.14032-.49219-.12796-1.8009-.02127-2.9939-.02127-2.99402,.01675-.18726,.04843-.51843,.01266-.96063-.02457-.30377-.07196-.54846-.10638-.70215,.53418,.25116,.89935,.22101,1.10638,.17023,.05783-.01416,.03091-.01221,.38297-.12762,.57834-.18958,.72461-.21906,.72342-.27661-.00143-.06891-.21332-.14197-.40427-.12769-.1478,.01105-.25314,.0722-.27661,.08514-.1651,.091-.54016,.14594-1.46808-.0213,.04379-.18024,.09869-.42712,.14896-.72339,.05157-.30402,.07657-.53223,.10638-.80853,.02164-.2005,.06018-.56207,.08508-1,.02487-.4375,.02252-.71161,.0213-1.36169-.00299-1.59167,.00839-1.40601,0-1.68085-.01685-.55157-.04062-.57581-.14896-1.95746Z"/>
   <path class="cls-1"
         d="M5.42265,8.57627c-.26184-.0376-.46609-.0415-.59576-.04254-1.02631-.00836-2.08499,.08508-2.08508,.08508-.43173,.03809-.98773,.09253-1.63831,.17023,.03226,.07495,.08276,.20111,.12766,.36169,.31631,1.13153-.22278,1.76123,.09106,2.3114,.18533,.32489,.55032,.41315,1.24936,.58221,1.15979,.28046,1.46619-.16821,2.25531,.21277,.3634,.17542,.58319,.4082,1.0213,.40424,.11429-.00104,.40033-.01959,.68085-.19147,.19064-.11676,.31857-.27643,.57446-.59576,.10962-.13678,.16537-.20703,.21277-.29785,.07446-.1427,.13254-.32202,.14893-.65961,.02802-.57648-.09393-1.02997-.14893-1.21271-.1311-.43549-.19666-.65326-.383-.78729-.14737-.10602-.19128-.04932-.91489-.21271-.29584-.06683-.37683-.09625-.59573-.12769Z"/>
   <path class="cls-1"
         d="M2.7205,.38481c-.3822,.18317-.63586,.36572-1.12766,.72339-.30765,.22375-.59781,.45001-.91489,.74469-.35339,.32843-.5061,.52423-.57446,.78723-.02747,.10565-.03619,.20245-.02127,.48932,.0477,.91602,.08429,1.47498,.46808,1.78723,.05447,.04431,.14267,.11456,.27658,.14899,.37222,.09576,.73108-.17926,.89362-.29791,.07303-.05334,1.0274-.59583,2.93619-1.68085,.25626-.14569,.54742-.3064,.68085-.63831,.12329-.3067,.04825-.6012-.04254-.9574-.11993-.47064-.22186-.87054-.59576-1.14899C4.27345,.02519,3.77046,.07078,3.59284,.08689c-.30917,.02802-.51611,.1272-.87234,.29791Z"/>
   <path class="cls-1"
         d="M1.46519,19.53373c-.00003-.00012-.31195-1.14868-.617-3.78723-.00677-.05859-.02094-.19537,.04254-.34045,.11313-.25854,.39377-.36322,.44681-.383,.3602-.13434,.70611,.00647,1.21277,.21277,.41556,.16919,.68896,.35883,.8085,.44684,.26987,.19867,.43936,.32343,.57446,.55316,.12253,.20837,.06897,.25177,.23404,.82983,.11273,.39478,.14313,.39343,.23407,.74469,.09421,.36383,.06827,.39105,.14893,.68085,.12079,.43408,.19009,.41302,.29788,.78723,.12479,.43323,.03796,.48254,.1702,1.02124,.07623,.31049,.10773,.30493,.21277,.70215,.02847,.10773,.26019,1.38147,.27658,2.04254,.01868,.75269-.05557,.95251-.10635,1.06384-.04517,.099-.14526,.3111-.36172,.48938-.48965,.40338-1.16675,.27502-1.38297,.23401-.2392-.04535-.46442-.1579-.91489-.383-.56259-.28113-.63083-.40198-.65958-.46808-.0954-.21948,.02243-.34674-.08511-.74469-.06128-.22675-.10178-.19379-.14893-.38293-.09933-.3985,.07782-.54565,0-.93622-.04639-.23285-.11041-.18756-.1915-.46808-.10281-.35565-.04163-.57269-.04257-.93616-.00027-.10608,.02576-.28003-.14893-.9787Z"/>

</g>
</svg>
