<?xml version="1.0" encoding="UTF-8"?>
<svg xmlns="http://www.w3.org/2000/svg"
     version="1.1"
     width="62.62828519mm"
     height="32.94340140mm"
     viewBox="0.00000000 0.00000000 177.52896432 93.38280574">

<g transform="scale(5.59901992)">   <defs>
      <style type="text/css"><![CDATA[
      .a {
        stroke: #000;
        stroke-miterlimit: 2.61313;
        stroke-width: 0.28346px;
      }
    ]]></style>
   </defs>
   <path class="a"
         d="M21.7915,3.77979q-1.51172-.041-3.02539-.08594c-.30273-.85547.61914-1.85352,4.23633-3.166,2.93359-.24414,6.23633-.73047,7.69531,0q.43213.085.86523.16992c-.08984,4.18945-3.11133,7.03906-6.22656,9.8457a18.31417,18.31417,0,0,1-5.61914,2.73828C14.02539,14.71533,9.37549,16.59033.17676,16.53564c.05762-.25781.11523-.51367.17285-.77148H1.38672c.08691-.39844.17334-.79883.25977-1.19727.31689-.0293.63379-.05859.95068-.08594Q3.635,13.28271,9.51465,13.11182c6.53516-.45312,11.18994-1.63086,13.57373-3.68164a4.93774,4.93774,0,0,1,1.90234-2.99609L25.77,3.09424a5.03036,5.03036,0,0,0-3.97852.68555Z"/>

</g>
</svg>
