<?xml version="1.0" encoding="UTF-8"?>
<svg xmlns="http://www.w3.org/2000/svg"
     version="1.1"
     width="38.64180797mm"
     height="31.91315713mm"
     viewBox="0.00000000 0.00000000 109.53587604 90.46246392">

<g transform="scale(5.79267105)">   <defs>
      <style type="text/css"><![CDATA[
      .a {
        stroke: #000;
        stroke-miterlimit: 10;
        stroke-width: 0.15px;
        fill-rule: evenodd;
      }
    ]]></style>
   </defs>
   <path class="a"
         d="M4.46156,4.6897A3.678,3.678,0,0,1,3.42926.8533,17.29519,17.29519,0,0,1,9.25936.3347V.075h1.4443c.0342.1557.0689.3115.1031.46678Q12.38.49051,13.95416.4382c.0166.10358.0342.2071.0513.3111q1.00635.156,2.0122.311a2.32888,2.32888,0,0,1-.9287,2.7481q-1.6773-.0777-3.3535-.1558a9.06949,9.06949,0,0,1-3.5078.3628q-1.88385.33765-3.7661.6743Z"/>
   <path class="a"
         d="M1.72716,3.238q-.00075-1.50285,1.4443-1.1406c1.1367.9326,2.1182,1.9341,2.0122,3.4219-.6308,1.0381-.3667,4.0239-.1548,6.896q1.31475,2.9289-1.9087,2.748-1.49625.95805-2.3735-1.1928Q.412,13.91842.07626,13.867c.0732-3.7647-.3296-7.75,1.6509-10.629Z"/>
   <path class="a"
         d="M3.53276,13.9187a.8869.8869,0,0,1-1.1352-.3628C4.65146,11.7322,6.423,9.97,6.47326,8.4231a11.72167,11.72167,0,0,1,3.9726-2.6445q.4644.59685.9287,1.1924c-2.9438,3.2011-6.2192,7.2871-7.8418,6.9477Z"/>
   <path class="a"
         d="M15.29546,14.489q-.5163,1.47735,1.4444.8819.361-.545.7221-1.0889c1.6714-.1719,1.459-3.0498,1.1866-6.0147-.6934-2.6801-.9947-4.7544.1035-4.66652q.438-1.89177-2.4248-2.54048c-1.6377-.43652-1.8252.8272-1.8057,2.333l-.7222-.0513c-1.0908,2.2339-.6645,5.0767.3091,8.1397.7505.43208,1.125,1.4697,1.187,3.0073Z"/>

</g>
</svg>
