<?xml version="1.0" encoding="UTF-8"?>
<svg xmlns="http://www.w3.org/2000/svg"
     version="1.1"
     width="18.35112496mm"
     height="18.12285190mm"
     viewBox="0.00000000 0.00000000 52.01890726 51.37187995">

<g transform="scale(4.22727890)">   <defs>
      <style type="text/css"><![CDATA[
      .a {
        stroke: #000;
        stroke-miterlimit: 10;
        stroke-width: 0.15px;
      }
    ]]></style>
   </defs>
   <path class="a"
         d="M5.52075,2.31444a9.99061,9.99061,0,0,1,1.377-1.4659c.2832-.2646.3037-1.0473.872-.67482a1.66619,1.66619,0,0,1,.2539.22322c.2315.2295.4405.29978.4473.6635a1.39873,1.39873,0,0,1-.3965.8511c-.8115,1.0103-1.8955,1.76418-2.6894,2.7988-.6084.794-1.0645,1.6856-1.7442,2.4263a4.18018,4.18018,0,0,0-1.292,2.0645c-.1748.8755-.1689,2.1723-1.01559,2.7192-.94341.6079-1.34081-.6953-1.24411-1.4018a5.42746,5.42746,0,0,1,1.36911-2.5064c.668-.8579,1.26069-1.77342,1.90139-2.6523C4.09205,4.35294,4.79126,3.32272,5.52075,2.31444Z"/>
   <path class="a"
         d="M.264,11.19034c-.4649-.7807.4384-1.4477,1.1298-1.5903.4786-.0981.9883-.1465,1.4639-.2524.2891-.065.6231-.0997.919-.1426.2285-.0327.4062-.0742.6269-.1236a1.45933,1.45933,0,0,1,.30671-.0063,1.39309,1.39309,0,0,0,.40819-.0996,3.31406,3.31406,0,0,0,.6269-.1577,8.43555,8.43555,0,0,1,.8594-.3033c.8887-.27582,1.7969-.4877,2.6904-.7509a3.65207,3.65207,0,0,1,2.1065-.21292c.6943.21382,1.1689.89062.5234,1.46972-.8525.7656-2.3145.7564-3.38279.8887A43.92834,43.92834,0,0,0,2.344,11.58534C1.63205,11.78414.71705,11.95164.264,11.19034Z"/>

</g>
</svg>
