<?xml version="1.0" encoding="UTF-8"?>
<svg xmlns="http://www.w3.org/2000/svg"
     version="1.1"
     width="47.16166400mm"
     height="31.68058099mm"
     viewBox="0.00000000 0.00000000 133.68661782 89.80323928">

<g transform="scale(2.53874813)">   <defs>
      <style type="text/css"><![CDATA[
      .a {
        stroke: #000;
        stroke-miterlimit: 10;
        stroke-width: 0.15px;
      }
    ]]></style>
   </defs>
   <path class="a"
         d="M5.77238.07615c-.247.0196-.5039.3497-.8149,1.1412C4.55118,2.249,4.34368,3.351,4.04,4.41945c-.69581,2.4414-1.34331,4.8955-1.92241,7.3682C.97648,16.651-.26182,21.90965.15908,26.942c.19,2.2949.2173,4.3769,1.9932,6.0986a8.76386,8.76386,0,0,0,5.0942,2.1309,20.98749,20.98749,0,0,0,5.6397-.1543c1.3682-.1973,5.1904-.7666,2.0859-2.4766a6.15323,6.15323,0,0,0-2.99609-.4082c-2.33441.0146-4.75191.2061-6.50291-1.6465-1.0102-1.0683-.6782-3.501-.6113-4.8017a74.28806,74.28806,0,0,1,1.0083-8.2969c.4536-2.7627.98391-5.5176,1.5522-8.2617.209-1,.3662-2.0371.6465-3.0176.5635-1.961.0376-2.5816-.9746-4.3438C6.54978.81345,6.17278.041,5.77238.07615Z"/>
   <path class="a"
         d="M7.47458,3.84915c-.2251.0068-.4273.2305-.71.7851-1.8823,3.6866,2.7539,7.9883,4.83741,10.5743a84.13928,84.13928,0,0,0,6.03419,6.8056c2.02,2.0088,4.4165,3.6221,6.3965,5.6348.9077.9219,2.2676,1.0713,3.4477,1.5732a13.55425,13.55425,0,0,0,2.8042.54589c2.0298.336,4.1587.29691,6.1831.63291a21.03028,21.03028,0,0,0,3.4082.3632c1.2354.0157,2.47511.0332,3.7124.0235,2.2852-.0235,4.5713.0078,6.8575.0019.958-.0039,2.1655.4776,2.13721-.7793a3.03,3.03,0,0,0-1.49711-2.3271c-1.0054-.5205-2.2964-.0264-3.3906-.0508-4.7251-.11131-9.73929.1279-14.3491-1.0332-3.8584-.9707-7.4395-4.7979-10.2784-7.377-3.9707-3.6103-7.7529-7.4345-11.4555-11.3242-1.0879-1.1406-2.1089-2.4731-3.2989-3.5146C7.94328,4.05715,7.69668,3.84425,7.47458,3.84915Z"/>

</g>
</svg>
