<?xml version="1.0" encoding="UTF-8"?>
<svg xmlns="http://www.w3.org/2000/svg"
     version="1.1"
     width="53.11885483mm"
     height="33.59586732mm"
     viewBox="0.00000000 0.00000000 150.57315857 95.23243181">

<g transform="scale(6.53780177)">   <defs>
      <style type="text/css"><![CDATA[
      .b {
        stroke: #000;
        stroke-miterlimit: 10;
        stroke-width: .15px;
      }
    ]]></style>
   </defs>
   <path class="b"
         d="m8.4678,1.4025c-.67542.04889-1.7103.1134-3.31915.25531-1.49384.13177-2.52905.24622-3.65958.85107C.78409,2.88609-.02353,3.48905.08484,3.82804c.04761.14899.27289.22693.72339.38293.46127.15973.8273.20966.85107.21277,1.06592.13959,2.38287.08514,2.38297.08514,2.4599-.10162,2.31284-.03241,3.23404-.12769.12759-.01318.72339-.09393,1.91492-.25531,1.11682-.15131,1.67523-.22693,2.1702-.29785,2.01685-.289,1.87106-.31073,2.59576-.383,1.41455-.14099,1.44952-.00629,2.46808-.17023.828-.1333,1.62308-.26965,2.42554-.80853.52206-.35059,1.35806-1.08032,1.19147-1.48932-.11862-.29126-.69849-.30414-1.74466-.29791-3.00809.01782-3.61694.08514-3.61703.08514-3.29596.36432-4.94397.54651-6.21277.63831Z"/>
   <path class="b"
         d="m15.48907,2.67905c.25378-.54004.61563-.85065,1.0213-1.19147,1.0563-.88739,2.86752-1.80908,3.48935-1.23401.14975.13849.24878,1.98413.21277,2.63824-.00842.1532.02264.64325.08511,1.61707.16687,2.60101-.03934,3.86032.1702,4.42551.08823.23795.24323.44232.55319.85107.52493.69217.83633,1.10281,1.36169,1.44681.12039.07883.26334.16159.383.34042.18036.26956.2778.71268.08511.93616-.1918.22247-.49713.02554-.72342.25534-.22885.23242-.02679.54578-.25531.76596-.18604.17926-.53101.1749-.76596.08508-.46167-.17648-.48782-.67886-.76596-.68085-.11823-.00085-.20166.08929-.59573.63831-.53003.7384-.56741.83765-.72342.89362-.2688.09644-.45871-.09018-1.1915-.46808-1.12827-.58185-1.23804-.42825-1.65955-.80853-.50662-.45709-.71149-1.00696-.80853-1.27658-.08942-.2485-.1741-.57303-.21277-1.65958-.03104-.87238-.00763-1.53876,0-1.74469.11069-2.98526.04279-5.1965.34042-5.8298Z"/>
   <path class="b"
         d="m3.64776,6.66825c-.00378-.00616-.03937-.06396-.08521-.14362-.07318-.1272-.17892-.32281-.28625-.56897-.15002-.34406-.29309-.67218-.34042-1.06384-.08688-.71912.19144-1.30139.383-1.70209.15314-.32031.33691-.70477.68085-1.0213,1.0383-.95557,3.08276-.875,4,.08514.25809.27014.41479.59723.63831,1.06378.05698.11896.32159.6803.51062,1.48938.07611.32574.23367,1.02026.21277,1.91492-.01288.55115-.08282.72107-.08511,1.44678-.00037.11533.00015.50146.04257,1.02127.16888,2.06992.71988,2.80264.25531,3.48938-.15671.23166-.3656.36438-.59573.51062-.51657.32822-.84821.2944-1.44681.46811-.85452.24799-1.0098.55817-1.40689.7157-.00009.00003-.19272.06927-.42291.0928-.55359.05658-1.35291-.31427-1.74466-.8085-.26523-.33459-.28262-.64877.08508-4.04257,0-.00009.21207-1.95737-.3945-2.94699Z"/>

</g>
</svg>
