<?xml version="1.0" encoding="UTF-8"?>
<svg xmlns="http://www.w3.org/2000/svg"
     version="1.1"
     width="15.13145404mm"
     height="46.86883623mm"
     viewBox="0.00000000 0.00000000 42.89232533 132.85657907">

<g transform="scale(7.75753200)">   <defs>
      <style type="text/css"><![CDATA[
      .a {
        stroke: #000;
        stroke-miterlimit: 10;
        stroke-width: 0.15px;
      }
    ]]></style>
   </defs>
   <path class="a"
         d="M4.0905.76326a1.85609,1.85609,0,0,1,.51292.37882,2.249,2.249,0,0,1,.3323,1.67245,18.06834,18.06834,0,0,0,.08964,5.059c.12079.55938.299,1.10711.37829,1.67387a9.73825,9.73825,0,0,1-.364,3.49908,3.181,3.181,0,0,1-1.24811,2.244c-.39.21087-.93415.32806-1.02735.7615-.0407.18928.02357.4029-.07347.57043a.60375.60375,0,0,1-.23071.20136,1.39555,1.39555,0,0,1-.7254.227.672.672,0,0,1-.615-.38662c-.14314-.37008.16146-.783.08016-1.17141a.98672.98672,0,0,1-.0727-.40039c.051-.23218.34682-.28721.57584-.35093a2.03231,2.03231,0,0,0,1.31512-1.583,11.53947,11.53947,0,0,0-.068-2.15036A9.47891,9.47891,0,0,0,2.843,9.3564c-.10067-.518-.19571-.65758-.2521-1.12346A5.53209,5.53209,0,0,1,2.65154,6.8032C3.06627,3.102,2.706,4.00506,2.875,3.32448c.03372-.13579.114-.43733-.0409-.618-.12574-.14666-.38934-.14709-.91655-.148a1.50313,1.50313,0,0,0-.60638.06384c-.22107.0968-.25934.21959-.48272.27725-.20483.05286-.44975.02045-.48451-.06714-.07561-.19051.19256-.324.39525-.35441C.61377,2.204.072,2.23727.075,1.93589a.39865.39865,0,0,1,.0884-.21064C.478,1.26277,1.02831.34784,1.58054.1424A3.85883,3.85883,0,0,1,4.0905.76326Z"/>

</g>
</svg>
