<?xml version="1.0" encoding="UTF-8"?>
<svg xmlns="http://www.w3.org/2000/svg"
     version="1.1"
     width="42.28042261mm"
     height="45.74841017mm"
     viewBox="0.00000000 0.00000000 119.84997353 129.68059456">

<g transform="scale(6.18091459)">   <defs>
      <style type="text/css"><![CDATA[
      .b {
        stroke: #000;
        stroke-miterlimit: 10;
        stroke-width: .15px;
      }
    ]]></style>
   </defs>
   <path class="b"
         d="M8.42111,7.44102c-.57428,.85846-.63696,1.14209-1.25531,1.9574-.2937,.38727-.43591,.52948-.70215,.93622-.32965,.5036-.54694,.95068-.68085,1.25531,.18011,.81354,.08789,1.07269-.04254,1.14893-.13788,.08057-.29407-.05743-.65955,0-.17859,.02808-.29449,.08508-.51068,.19147-.26111,.12848-.78192,.38477-.74463,.57446,.02863,.14563,.35461,.09167,.46808,.31915,.08551,.17139,.0069,.41553-.12769,.55322-.16119,.16486-.39337,.1676-.617,.17023-.46851,.00549-.67438-.1731-.85107-.0426-.09351,.06903-.09644,.16376-.14893,.34045-.06818,.22974-.20148,.43683-.46808,.85107-.1416,.22003-.38202,.58936-.76599,.9787-.52875,.53613-.77533,.5481-1.04254,1.0213-.09845,.17438-.28564,.51587-.14893,.76593,.07495,.13708,.21954,.19592,.42554,.27661,.28308,.11084,.41284,.10187,.74469,.17023,.6792,.13989,.75018,.30414,1.17017,.27655,.15497-.01019,.229-.03802,.4043-.02124,.21222,.02032,.38824,.08844,.5957,.17023,.23328,.09198,.22632,.11145,.34045,.14893,.17871,.05872,.37036,.06836,.74469,0,.29926-.05463,.63422-.14429,1.12762-.34045,.21802-.08667,.51111-.21173,.85107-.383,.04712-.17303,.09052-.3576,.12769-.55316,.08588-.45142,.12079-.86755,.12762-1.23407-.11279-.11469-.28394-.27661-.51062-.44678-.65076-.48846-.91205-.40857-1.14893-.74469-.28137-.39923-.26434-1.01068-.0213-1.383,.0661-.10132,.09888-.10809,.383-.36169,.0509-.04541,.49634-.44434,.82977-.80847,.5661-.61823,.46155-.75641,.89362-1.08514,.04169-.03174,.01202-.00714,.61707-.42554,.42859-.29639,.46521-.32379,.51062-.36169,.36072-.30127,.5318-.64697,.617-.80847,.11963-.22668-.18903,.40051,1.46808-2.12769,1.68842-2.57599,1.55884-2.54047,2.23407-3.42554,.19128-.25073,.41827-.57141,.87231-1.21277,.90125-1.27313,1.03015-1.51917,.93616-1.76593-.16022-.42072-.89288-.64166-1.42548-.48938-.14709,.04205-.23584,.10834-.4043,.23401-.52448,.39136-.79169,.87286-.85107,.97876-.44611,.79578-1.09662,1.68073-2.19147,3.17023-.67993,.92505-.70233,.83246-1.17023,1.53192h.00002Z"/>
   <path class="b"
         d="M12.63387,8.5474c-.28345,.40961-.15753,.67291-.27655,1.51062-.13623,.95886-.43115,1.52875-.19153,1.70209,.10907,.07892,.24573,.01544,.48938,.17023,.11938,.07581,.15765,.13617,.27661,.17023,.12256,.0351,.20996,.00769,.36169-.0213,.52051-.09937,.62103,.00769,.78723-.12762,.14911-.1214,.09595-.2301,.23401-.29791,.20111-.09875,.362,.10822,.57446,.0213,.03918-.01605,.09961-.05005,.29791-.40424,.14502-.25909,.21753-.38861,.27655-.55322,.11322-.31586,.06171-.41504,.12769-.80847,.05078-.30286,.12775-.76184,.42554-1.17023,.21338-.2926,.3147-.25012,.46808-.53192,.16553-.30414,.26715-.75714,.08508-.91492-.08569-.07428-.19519-.04932-.42548-.02124-.72467,.08832-.65417-.03546-1.31915,.06384-.37244,.0556-.59723,.08923-.89362,.21277-.37659,.15698-.63354,.36127-.76599,.46808-.14532,.11725-.37079,.29901-.53192,.53192h.00001Z"/>
   <path class="b"
         d="M13.20834,14.63249c-.17572,.26208-.07556,.2597-.34039,.72339-.13574,.23767-.30603,.53577-.59576,.87238-.24182,.28094-.34442,.33032-.40424,.53186-.07428,.25043-.00586,.4776,.04254,.63831,.04596,.15247,.14453,.4798,.42554,.68085,.14374,.10284,.26984,.12592,.82977,.17023,.8739,.06915,.88611,.03821,1.27661,.08514,.6189,.07434,.67505,.16248,.9787,.10638,.1582-.02924,.56335-.10406,.80853-.42554,.23132-.30328,.14105-.59106,.40424-.74469,.09454-.05518,.19781-.06519,.4043-.08514,.34882-.03375,.45337,.04639,.5957-.04254,.15076-.09424,.07642-.21094,.23407-.36169,.18488-.17676,.45178-.17389,.78723-.17023,.18347,.00201,.27606,.00421,.31915,.06384,.10193,.14105-.18115,.36353-.10638,.617,.07751,.26282,.46472,.30505,.44678,.46808-.00568,.05176-.04816,.07861-.21277,.19153-.26288,.1803-.39429,.27045-.42554,.29785-.14771,.12952-.17139,.37183-.21277,.85107-.05139,.59546,.00964,.73224-.10632,1.06384-.06256,.17896-.12628,.36121-.29791,.48932-.23724,.17712-.5238,.13361-.82977,.10638-.48743-.04333-.97894,.01416-1.46808,0-.53894-.01562-1.08148,.02032-1.617-.04254-.45923-.05389-.7713-.12976-1.19153,0-.1734,.05353-.24438,.1048-.46808,.14893-.41455,.08185-.73071,.01636-.87231-.02124-.20123-.05347-.33301-.08844-.44684-.21277-.18982-.20734-.17316-.49188-.17023-.53192,.02533-.34534,.28436-.49323,.21277-.617-.04584-.07928-.16632-.04315-.53192-.08514-.32471-.03729-.487-.05597-.57446-.14893-.15375-.16345-.04706-.45837,.0213-.78723,.06665-.32062,.12115-.79095,.04254-1.40424,.11145-.00012,.81409-.00336,.82977-.12769,.01501-.11865-.60339-.28705-.72339-.31915,.07245-.07739,.17218-.19177,.27661-.34039,.08978-.12775,.24402-.36755,.40424-.78723,.27527-.72095,.17194-.93494,.42554-1.12769,.10535-.08008,.11743-.03882,.49384-.21661,.26129-.12341,.41479-.21857,.54871-.29401,.20947-.11798,.61749-.27228,1.42493-.57605,.06921-.02606,.73755-.2774,.78784-.29633-.01984,.11395-.06317,.2951-.17023,.48938-.33002,.59894-.84314,.55536-1.25531,1.17023h-.00002Z"/>
   <path class="b"
         d="M7.29348,1.29203c-.06647,.1095-.11743,.27191,.17017,1.42554,.21411,.85883,.23761,.74994,.34045,1.25531,.12958,.63696,.10883,.89185,.31915,1.36176,.02698,.06024,.02405,.04883,.34039,.5957,.45483,.78632,.68304,1.18182,.72345,1.29791,.15576,.44745,.11926,.66467,.34039,.80847,.09338,.06073,.24664,.07593,.55322,.10638,.36267,.03601,.54761,.05206,.72339-.04254,.17102-.09204,.2536-.24152,.29785-.31915,.59161-1.03748,1.23718-1.33868,1.25537-2.12769,.00439-.19019-.03241-.20319-.19153-.78723-.22559-.828-.23712-1.11603-.70215-3.14893-.09601-.4198-.19-.80933-.51062-1.17017-.12634-.14215-.3833-.42346-.76593-.46814-.12756-.01489-.25946-.00238-.82977,.23407-.43213,.17914-.60767,.27612-.97876,.44678-.88837,.40845-.97876,.35675-1.08508,.53192h.00001Z"/>

</g>
</svg>
