<?xml version="1.0" encoding="UTF-8"?>
<svg xmlns="http://www.w3.org/2000/svg"
     version="1.1"
     width="41.46336011mm"
     height="28.62992911mm"
     viewBox="0.00000000 0.00000000 117.53399074 81.15566898">

<g transform="scale(5.79267105)">   <defs>
      <style type="text/css"><![CDATA[
      .a {
        fill: #000;
        stroke: #000;
        stroke-miterlimit: 2.61313;
        stroke-width: 0.28346px;
      }
    ]]></style>
   </defs>
   <path class="a"
         d="M3.8916,8.61914C3.96,11.51953,1.9668,10.60547.33105,10.39941-.18457,8.88184.4209,6.97656,1.33887,4.96191,2.05469,2.79688,2.81641.92822,3.8916,1.124Q4.86572.64795,5.83984.17139q.57129.55737,1.14258,1.11572A17.10733,17.10733,0,0,1,4.63086,6.41357Q4.26172,7.51587,3.8916,8.61914Z"/>
   <path class="a"
         d="M9.60254,2.92041a2.38612,2.38612,0,0,0,2.62012-.39209q1.77979,1.16821.60449,2.24658C11.52051,6.03271,10.417,7.95654,12.49121,10.166c.51563,1.69336-.49316,2.74219-3.89648,1.23047C6.52637,9.5957,5.752,7.24268,9.60254,2.92041Z"/>
   <path class="a"
         d="M15.44727,13.83594c-1.0752-1.11328.67188-3.01758-.60449-3.25977q.6709-2.10645,1.34375-4.2124c.51953-2.251,1.35938-2.88916,2.418-2.42383.4248-.55176.873-.89941,1.47852.18066.38574,4.395-.90234,7.7876-4.63574,9.71533Z"/>
   <path class="a"
         d="M.93555,11.09375Q1.23877,9.92188,1.54,8.749a3.8199,3.8199,0,0,1,1.5459-.42529C4.98535,9.94727,9.79785,9.90234,14.43945,9.95605c.60449.71582-.94043,1.86133-1.81348,1.7002q-2.82275-.02051-5.64355-.03906c-1.46777.62988-3.32617.68555-6.04687-.52344Z"/>

</g>
</svg>
