<?xml version="1.0" encoding="UTF-8"?>
<svg xmlns="http://www.w3.org/2000/svg"
     version="1.1"
     width="82.36325159mm"
     height="79.77632393mm"
     viewBox="0.00000000 0.00000000 233.47063997 226.13764380">

<g transform="scale(4.41199245)">   <defs>
      <style type="text/css"><![CDATA[
      .a {
        stroke: #000;
        stroke-miterlimit: 10;
        stroke-width: 0.15px;
      }
    ]]></style>
   </defs>
   <path class="a"
         d="M19.58635.07685A5.62276,5.62276,0,0,0,17.65018.6726a15.27568,15.27568,0,0,0-1.91489.72341,4.05646,4.05646,0,0,0-1.53191,2.0851c-.47533,1.3412-.03019,2.145.65957,6.08511.04158.23755.14829.91013.3617,2.25531a32.40378,32.40378,0,0,1,.70042,5.791,19.85817,19.85817,0,0,1-.27891,2.84327,14.20909,14.20909,0,0,1-.379,1.72743A12.52694,12.52694,0,0,1,14.097,24.86409c-1.83045,3.14017-4.79412,4.97815-6.383,8.78723a12.21983,12.21983,0,0,0-.71012,4.0231,2.26532,2.26532,0,0,0,.38048,1.816,1.58061,1.58061,0,0,0,1.33553.39331,3.46258,3.46258,0,0,0,1.35915-.46913c1.14749-.76916,2.27093-.71654,6.18815-2.48667,3.31433-1.49769,3.23515-1.863,7.617-4.08511.52044-.26392,3.07746-1.30361,8.19148-3.383,1.4668-.5964,3.77221-1.50752,4.985-.7139.18391.12034.80265.58086,1.322.38534a1.79859,1.79859,0,0,0,.69294-.62888,1.551,1.551,0,0,0,.23016-.4633c.09714-.43016-.29868-.87718-1.18369-1.691-1.76413-1.62218-2.19645-1.68967-2.45072-1.69679a2.13135,2.13135,0,0,0-1.18713.36273c-2.11535,1.30661-4.58657,1.93525-6.79159,3.08408-5.1045,2.65948-5.96815,1.01276-9.34043,3.25532-1.72469,1.14691-3.80714,1.683-5.53191,2.82979-.11486.07637-.51722.34889-.68407.22226-.23082-.17517.12914-1.008.25853-1.30737,1.11393-2.57725,4.64372-6.33407,6.58125-10.24709a12.13509,12.13509,0,0,0,1.22727-3.88057,16.8502,16.8502,0,0,0,.039-2.68543c-.0652-2.40187.12212-4.81083-.039-7.20819a2.23294,2.23294,0,0,1,.4468-1.85106c.24863-.213.60176-.24421,1.29787-.29787.8028-.06188,2.3357-.18,2.68086.48936.069.13388.08091.28057.21276.34043.259.11758.65813-.24661.80851-.383,2.2741-2.06232,2.95148-2.15959,3-2.95745.10052-1.65254-2.70061-2.95885-2.97872-3.08511C24.032.58788,23.21761,1.06927,20.88654.29548A3.51272,3.51272,0,0,0,19.58635.07685Z"/>
   <path class="a"
         d="M8.76563,20.11254c-2.79161,2.89037-5.849,6.05593-7.67928,11.092a20.64558,20.64558,0,0,0-.92553,8.17021A4.64619,4.64619,0,0,0,.63954,41.0343c.37187.6641.60433.58315.766,1.02127.4143,1.123-.88088,2.28435-.40692,2.897a.80831.80831,0,0,0,.49723.24688,6.31794,6.31794,0,0,0,2.52481.03735,1.23406,1.23406,0,0,0,.58223-.22967,1.17047,1.17047,0,0,0,.32681-.5487c.22878-.84029.19114-8.60044.4652-11.1156.45737-4.19742,3.24043-7.16369,5.96408-10.06665,1.70469-1.81691,2.557-2.72537,3.99337-3.01845a7.40506,7.40506,0,0,0,3.25532-.92554c.322-.21372,1.08525-.73389,1.03894-1.36464-.00812-.1106-.04837-.32309-.44729-.73554-.99952-1.03345-1.75008-.73674-2.52026-1.61786-.36875-.42188-.48417-.81878-.848-.84579a.92384.92384,0,0,0-.67022.35107C14.18465,16.16171,12.49957,16.24652,8.76563,20.11254Z"/>
   <path class="a"
         d="M18.60763,12.71515a1.98538,1.98538,0,0,0-1.55319.2766,2.41311,2.41311,0,0,0,.12766,2.97872c.52029.59078,1.32562.72736,4.95744.383,4.607-.43685,4.89678-.807,7.3168-.75748,1.33415.0273,1.99225.15505,3.87262.11392,1.29724-.02837,1.54888-.10154,3.39324-.20584,1.37614-.07783,2.53882-.10918,4.86416-.17188a21.7573,21.7573,0,0,0,4.68084-.74467,1.88152,1.88152,0,0,0,1.19149-.78724,1.51,1.51,0,0,0,.04255-1.40425c-.08474-.16147-.19608-.28587-.73609-.67161-.3073-.21952-.74052-.51446-1.28518-.839-.42808.05931-1.1113.15161-1.95093.254-3.70761.45234-5.12416.45075-10.17471.88478-2.54783.21895-2.96734.28638-5.15518.44828-2.58858.19156-3.88287.28734-4.59152.264C21.94186,12.68147,20.27032,12.83041,18.60763,12.71515Z"/>
   <path class="a"
         d="M23.49061,41.38536c-.83239.92818-4.22935,4.78378-3.51064,7.02128a4.907,4.907,0,0,0,.95745,1.62766,3.12956,3.12956,0,0,0,1.97451,1.14359c.62531.03324,1.09743-.2888,2.01615-.93423,2.64939-1.86129,3.98139-2.81369,4.33912-3.87957.1673-.49846.27748-1.15544.06383-1.27659-.27984-.1587-.87.741-2.33286,1.5915-1.22714.7134-1.75041.62591-1.94373.57871-.47749-.11658-1.05082-.50217-1.11085-.98935a.92085.92085,0,0,1,.0959-.47664c1.01013-2.65386,3.13922-4.69816,5.20367-6.64789l3.48807-3.29424,2.53432-2.39348c.46321-.43748.92665-.87516,1.41085-1.28929.64573-.55229,1.32692-1.06147,1.98786-1.59546a33.84682,33.84682,0,0,0,4.50627-4.39346c.162-.19045.32755-.46621.18091-.66874a.48809.48809,0,0,0-.27017-.16958c-.82736-.21359-1.05351-.70993-2.42045-.99677a2.53905,2.53905,0,0,0-.98936-.09575,2.849,2.849,0,0,0-1.24468.67022A5.30683,5.30683,0,0,0,37.214,26.09813a4.562,4.562,0,0,0-.70212,1.85107c-.29586,1.34994-1.31258,2.23385-2.71277,3.47872C31.75758,33.243,26.80851,37.68565,23.49061,41.38536Z"/>
   <path class="a"
         d="M34.11142,35.30428c-.01826-.606-.19491-1.19795-.24847-1.80189-.02934-.33086-.04632-.62686-.25532-.766-.29173-.19415-.76521.04542-.96423.14908a3.918,3.918,0,0,0-1.53883,1.68717c-1.52907,2.6619-1.93478,2.44886-1.93311,3.20631.00185.83859.49812.63446,1.76411,3.16336a24.35541,24.35541,0,0,0,1.31917,2.252,3.91812,3.91812,0,0,0,1.65349,1.46453,34.25236,34.25236,0,0,0,4.81433,2.35407.80021.80021,0,0,0,.421.08193.81016.81016,0,0,0,.38411-.2364,7.11969,7.11969,0,0,0,2.34893-3.13963.31993.31993,0,0,0-.0084-.26171.33118.33118,0,0,0-.22934-.1086c-1.68045-.29561-3.52114-.40085-4.81806-1.50963a7.31482,7.31482,0,0,1-1.65384-2.8087A10.67488,10.67488,0,0,1,34.11142,35.30428Z"/>
   <path class="a"
         d="M33.22465,6.71515a1.92174,1.92174,0,0,0-1.08511.65958c-.27612.37259-.19044.63221-.31914,1.34042-.23852,1.31249-.74752,1.6023-.7838,2.83055-.00592.20055-.02288.77434.161.82766.19279.05592.50432-.49007.58026-.61565C32.99892,9.7386,39.41112,7.11514,41.83864,6.804a4.8787,4.8787,0,0,0,1.62-.5569c.37072-.20478.866-.47839.85107-.766-.02934-.56351-2.00293-.88525-2.19149-.91489C38.49538,3.99656,36.36459,5.86121,33.22465,6.71515Z"/>
   <path class="a"
         d="M39.43742,3.396a2.0756,2.0756,0,0,0-.44681,1.55319c.06759.387.32078,1.01105.80851,1.14893.628.17753,1.1939-.57842,1.55319-.34042.18113.12.09786.35222.19149.6383.25536.78027,1.43135.75343,3.08511,1.53191.31219.147,1.98967.9573,1.87233,1.53191-.02346.11492-.19294.24682-.53191.51064a9.99337,9.99337,0,0,1-.85106.57447c-.56921.36415-.85419.54806-.87234.6383-.09447.46967,1.02282,1.05671,1.9719,1.55536.84485.44388,1.27632.66437,1.7195.59292.4908-.07912.64577-.37654,1.49714-1.259C51.13171,10.31342,52.09692,9.39607,52.097,9.396a1.77381,1.77381,0,0,0,.74468-1.234,1.257,1.257,0,0,0-.35949-.76982c-2.38308-2.70572-3.57463-4.05859-4.66178-4.528A9.57987,9.57987,0,0,0,43.65,2.16265C42.213,2.17235,40.34148,2.185,39.43742,3.396Z"/>

</g>
</svg>
