<?xml version="1.0" encoding="UTF-8"?>
<svg xmlns="http://www.w3.org/2000/svg"
     version="1.1"
     width="61.11128934mm"
     height="58.84733972mm"
     viewBox="0.00000000 0.00000000 173.22884301 166.81125861">

<g transform="scale(5.79267105)">   <defs>
      <style type="text/css"><![CDATA[
      .a {
        stroke: #000;
        stroke-miterlimit: 10;
        stroke-width: 0.15px;
        fill-rule: evenodd;
      }
    ]]></style>
   </defs>
   <path class="a"
         d="M18.13846,4.92872a23.58,23.58,0,0,1,2.6748-2.582,11.59549,11.59549,0,0,1,4.4043,4.6367c-.5762,4.2461-5.6211,5.7168-9.01959,6.7988-5.06931,2.1817-9.247,4.8418-11.79881,8.8555-.8769,1.0195-1.5244,1.9492-.5771,2.2656A3.3605,3.3605,0,0,1,1.51436,27.96q-.0249.36915-.0517.7382c-2.084-.625-1.4736-2.1211-.4199-4.3222,1.04-2.6172,2.124-4.4453,3.3037-4.5332,3.89351-3.9805,9.7051-7.3321,15.9941-10.3282.7168-.4746,1.1709-.9492,1.0488-1.4238q-1.62585-1.58205-3.2509-3.1621Z"/>
   <path class="a"
         d="M3.87476,9.51462c.1221-.0175.2441-.0351.36721-.0527a1.21433,1.21433,0,0,0,.73339.9473v-1c.4404-.2949,1.5517-1.0762,1.9931.5781.4024,1.4258,1.93951,2.7813,5.1387,3.0059a5.652,5.652,0,0,1,2.8321.5254,2.34883,2.34883,0,0,1-1.835,1.582c-3.9209,2.9277-9.6592-1.627-9.2295-5.586Z"/>
   <path class="a"
         d="M8.96166,6.08892c.5059-1.0391,1.0811-1.9356,2.1494-1.8457a42.52351,42.52351,0,0,1,4.7725,9.4336c-.7324,1.1289-1.541,1.4882-2.4121,1.2128a74.868,74.868,0,0,1-4.5098-8.8007Z"/>
   <path class="a"
         d="M9.59056,17.04982h.8916q.07921,1.10745.1572,2.2148a2.33123,2.33123,0,0,1-.0527,1.6856c-.4892,1.0547.7344-.4219.9971.6328-.083,1.4297-.6865,2.5234-2.7276,2.6875-1.1044-.9941-.2939-3.0879.5772-5.2168q.079-1.002.1572-2.0039Z"/>
   <path class="a"
         d="M14.782,19.47562q-.65626-1.31835.36719-1.3711c.17381-.7734.4004-1.4414.9961-1.3711.0703-.2109.13971-.4199.21-.6309a9.08468,9.08468,0,0,1,1.206,2.3711c2.2022,6.4395,6.4844,4.6992,8.4961,4.5332a1.64824,1.64824,0,0,1-.9971,1.211,4.33891,4.33891,0,0,1-2.9365,2.4238c-2.0654.6719-3.1484-.3828-4.08979-1.6855a28.20042,28.20042,0,0,1-3.252-5.4805Z"/>
   <path class="a"
         d="M24.43136,4.24322q-2.0448,2.05665-3.6709-.3164c.98151-2.4512,4.2588-3.3653,8.1807-3.8477.2793.3008.5596.5977.8389.8965q-.49813.2373-.99609.4746c-.65141,1.1992-2.02351,2.1562-4.35261,2.793Z"/>

</g>
</svg>
