<?xml version="1.0" encoding="UTF-8"?>
<svg xmlns="http://www.w3.org/2000/svg"
     version="1.1"
     width="24.60059548mm"
     height="14.32752083mm"
     viewBox="0.00000000 0.00000000 69.73391651 40.61353602">

<g transform="scale(5.28493839)">   <defs>
      <style type="text/css"><![CDATA[
      .a {
        stroke: #000;
        stroke-miterlimit: 2.61313;
        stroke-width: 0.28346px;
      }
    ]]></style>
   </defs>
   <path class="a"
         d="M5.3418,2.69336C6.8623.70264,8.15186-.4082,8.93506.416a2.7869,2.7869,0,0,1,0,3.333q4.61426.49951,3.48242,2.11084.30322.30615.60742.61035-.19336.41895-.38672.834c-.18359-.05469-.36816-.11133-.55273-.166-.93945.70508-1.87891.37109-2.81836-.11133A15.50041,15.50041,0,0,0,4.5127,6.91553a2.57692,2.57692,0,0,1-1.49219.05566C1.32275,7.73291.66064,7.45361.146,7.02686.02246,5.28662,2.63818,3.9834,5.3418,2.69336Z"/>

</g>
</svg>
