<?xml version="1.0" encoding="UTF-8"?>
<svg xmlns="http://www.w3.org/2000/svg"
     version="1.1"
     width="50.32614830mm"
     height="32.62937488mm"
     viewBox="0.00000000 0.00000000 142.65687656 92.49273490">

<g transform="scale(6.24784584)">   <defs>
      <style type="text/css"><![CDATA[
      .b {
        stroke: #000;
        stroke-miterlimit: 10;
        stroke-width: .15px;
      }
    ]]></style>
   </defs>
   <path class="b"
         d="m4.42542,5.8904c-.68686.6839-.66238.55841-1.23404,1.14893-.62579.64642-.96307.99481-1.27661,1.57446-.39941.7384-.55316,1.31903-.55319,1.31915-.14523.54846-.12012.82983-.38297,1.06384-.30609.27252-.59583.11859-.8085.383-.14813.18414-.09103.36255-.04257,1.06384.07501,1.08521-.02115,1.24463.17023,1.48932.04889.0625.1687.19727.97873.42554.42401.11951.96716.26953,1.74466.34045.52121.04755.90067.03168,1.65958,0,1.4111-.0589,1.60431-.19434,1.70215-.34045.1973-.29468-.05994-.53351.12766-.93616.18961-.40686.61707-.51654,1.19147-.76593.60037-.26062,1.12769-.66516,1.70215-.97876.00009-.00006,1.24716-.68091,2.93616-1.74469,2.6301-1.65656,2.392-2.01843,4.72342-3.40424.88531-.52625,1.44104-.784,2.38297-1.48938.0856-.06409,1.02124-.77252,2.04257-1.91486.36945-.41321.75189-.88525,1.02127-1.57446.15582-.39862.39359-1.00702.12766-1.31915-.15515-.18213-.40573-.17419-1.1915-.12769-1.30908.07751-1.96362.11621-2.21277.17023-.44608.09668-1.0946.23724-1.82977.63831-.48856.26654-.96399.70251-1.91489,1.57446-1.06949.98071-.76172.81598-1.31915,1.27661-.60233.49768-1.06393.77448-1.23404,1.36169-.09879.341-.03217.55493,0,.63831.10489.27191.36914.51837.63828.55316.45663.05908.73499-.51599,1.44681-1.23401.94302-.95123,1.93436-1.43463,1.95746-1.4043.02518.03308-.98035.83612-1.53192,1.27661-1.27997,1.02216-2.21634,1.7663-3.53192,2.63831-.30673.20331-1.07663.70691-2.12766,1.27661-2.43045,1.31744-2.8277,1.07153-2.93616.9787-.24957-.21356-.18842-.65912-.12766-1.06384.28638-1.90741,1.88779-2.96893,1.617-3.36169-.1286-.18652-.47229.07819-1.1915-.08508-.80426-.18262-.91315-.63593-1.40424-.59576-.35779.0293-.44855.28204-1.31915,1.14893Z"/>

</g>
</svg>
