<?xml version="1.0" encoding="UTF-8"?>
<svg xmlns="http://www.w3.org/2000/svg"
     version="1.1"
     width="20.87055415mm"
     height="27.80166440mm"
     viewBox="0.00000000 0.00000000 59.16053984 78.80776577">

<g transform="scale(6.24784584)">   <defs>
      <style type="text/css"><![CDATA[
      .b {
        stroke: #000;
        stroke-miterlimit: 10;
        stroke-width: .15px;
      }
    ]]></style>
   </defs>
   <path class="b"
         d="m3.76519,3.64956c-.98886,1.22559-1.09506,1.37573-1.23404,1.61707-.38742.67273-.26337.7226-.68085,1.44678-.43289.75092-.60419.76398-.97873,1.44684-.15948.29077-.42596.83087-.59576,1.53192-.04156.17157-.45557,1.92773.04257,2.17017.21283.10358.53012-.09943,1.10638-.46808.31775-.20331.53189-.34027.72339-.55316.41089-.45679.40662-.9173.59576-2,.17123-.98016.25684-1.47028.42551-1.87238.07779-.18542.30756-.69586,1.40427-1.87231,1.04138-1.11713,1.14291-1.00079,1.78723-1.74469.18958-.21887,1.87289-2.16235,1.36169-2.9787-.09259-.14783-.27451-.28644-.46808-.29791-.32278-.01917-2.83536,2.76385-3.48935,3.57446Z"/>
   <path class="b"
         d="m8.5737,1.81979c-.60364-.48407-1.49399-.5614-2.21277-.25531-.10419.04437-1.03903.45831-1.23404,1.31915-.0748.33014.10513.89124.46808,2,.26981.82428.30673.83667.383,1.19147.09238.42981.21375,1.02136.08511,1.74469-.09659.54315-.18054,1.01508-.55319,1.36169-.62024.57684-1.37756.19019-1.78726.76599-.11526.16199-.14777.43427-.21274.9787-.0798.66858-.11969,1.00287.04254,1.23407.28159.40137.98911.45203,1.48935.29785.55115-.16986.86124-.59174,1.40427-1.48938.95441-1.5777,1.54568-2.83551,1.82977-3.44678.74377-1.6004.87473-1.98132.97873-2.46808.32831-1.53674-.00449-2.2926-.1702-2.59576-.08734-.15973-.22849-.41205-.51065-.63831Z"/>

</g>
</svg>
