<?xml version="1.0" encoding="UTF-8"?>
<svg xmlns="http://www.w3.org/2000/svg"
     version="1.1"
     width="21.92758876mm"
     height="66.90951842mm"
     viewBox="0.00000000 0.00000000 62.15693490 189.66477444">

<g transform="scale(5.54094986)">   <defs>
      <style type="text/css"><![CDATA[
      .a {
        stroke: #000;
        stroke-miterlimit: 10;
        stroke-width: 0.15px;
      }
    ]]></style>
   </defs>
   <path class="a"
         d="M3.46912,2.01092a9.26215,9.26215,0,0,0-1.9473,1.31686A9.25836,9.25836,0,0,0,.23222,5.01509a.77017.77017,0,0,0-.15695.37453.77037.77037,0,0,0,.13544.39363l.3454.61028c.18893.33381.48587.71957.86015.63565a1.04085,1.04085,0,0,0,.4373-.293A3.61372,3.61372,0,0,1,4.36592,5.8106c.00107.48114-.47537.81083-.68564,1.24358-.42152.86754.28656,1.81955.75736,2.66137a10.24873,10.24873,0,0,1,.973,4.97,44.90371,44.90371,0,0,1-.66849,7.052c-.59236,3.9823-.73793,3.72925-.70923,4.85409a14.95126,14.95126,0,0,0,2.549,6.94113c.13357.20921.44231.62556.70843.62187.52243-.00726.60943-.75752.48885-1.2659s-.16043-1.22727.3436-1.36494c.13859-.03785.28911-.01374.42625-.05652a.92.92,0,0,0,.46243-.48579c.41927-.75163.89336-1.4866.56958-2.324-.30509-.7891-.8646-1.47218-1.1939-2.25541a8.5775,8.5775,0,0,1-.41785-4.44245c.19754-1.49209.61316-2.94584.89838-4.42368A25.7218,25.7218,0,0,0,8.452,6.02691a1.05415,1.05415,0,0,1-.01751-.74662.90294.90294,0,0,1,.28594-.29777c.4497-.33.96659-.5576,1.42574-.87426a2.14517,2.14517,0,0,0,.97409-1.30608,2.23569,2.23569,0,0,0-.32576-1.42064C9.30487-1.37915,5.40982.92627,3.46912,2.01092Z"/>

</g>
</svg>
