<?xml version="1.0" encoding="UTF-8"?>
<svg xmlns="http://www.w3.org/2000/svg"
     version="1.1"
     width="41.08061888mm"
     height="37.76548272mm"
     viewBox="0.00000000 0.00000000 116.44901961 107.05171210">

<g transform="scale(5.28493839)">   <defs>
      <style type="text/css"><![CDATA[
      .a {
        stroke: #000;
        stroke-miterlimit: 2.61313;
        stroke-width: 0.28346px;
      }
    ]]></style>
   </defs>
   <path class="a"
         d="M16.51611,3.6499c-1.4502,1.08252-2.91992,2.31592-4.04687.957-.34766-1.1665.28711-2.00391,1.36914-2.69189a10.039,10.039,0,0,1,2.5-1.436A1.29875,1.29875,0,0,1,17.82666.2998c1.55078.35791,3.35938.418,2.5,1.25635-.36719,1.32666-1.37891,2.20361-3.81055,2.09375Z"/>
   <path class="a"
         d="M12.70752,5.80322q-1.489-.2688-.5957-1.0166a4.59782,4.59782,0,0,1,4.46484-.59814c2.64258,1.0376,4.88867,2.03418,4.34473,2.75146-2.93652,1.53174-6.24609.20508-8.21387-1.13672Z"/>
   <path class="a"
         d="M20.92139,5.68359c.75488-.03955.95215-.23926.5957-.59814a18.80384,18.80384,0,0,0-7.8584,2.3335A15.31627,15.31627,0,0,0,8.8374,9.63232q-.95215.35889-1.90479.71777c-.6543-.1416-1.30908.418-1.96436,1.07617a9.76707,9.76707,0,0,0-3.0957,3.94922C.29492,16.65186-.439,17.92822.68213,19.20459c-.12256,1.05957,1.14893.998,2.61914.77734,2.81885-.0791,4.1084-.59863,4.70264-1.31543q2.3811-.65918,2.14307-1.31641.38745-1.07812-.65479-.24023-1.16089.21094-2.32129.41992A2.64746,2.64746,0,0,0,4.78955,17.23c-1.72119.15332-1.38184-.78613-.71436-1.915A10.41953,10.41953,0,0,0,6.873,11.72607,4.05551,4.05551,0,0,1,9.314,10.41016c3.86914-1.5752,9.64355-3.33008,11.60742-4.72656Z"/>
   <path class="a"
         d="M8.30176,12.62354a2.45059,2.45059,0,0,1,1.19043-1.376c2.41064-.0498,2.52979,1.76465,1.60742,4.42676-1.07178.78027-2.16309,1.37988-3.39307.71875-.937-1.25684-1.49512-2.51367.59521-3.76953Z"/>
   <path class="a"
         d="M11.27832,11.12744q.178-1.94385,1.54736-.77734c-.64551,3.30859,4.14355,3.02734,9.1084,2.63281-.17969.17969-.35742.35938-.53613.53809q-.08936.74854-1.13184,1.0166a14.22138,14.22138,0,0,1-6.72656,1.85547c-1.93457.55859-2.88623-.41992-3.39258-2.09375q-.38672-2.3042,1.13135-3.17187Z"/>

</g>
</svg>
