<?xml version="1.0" encoding="UTF-8"?>
<svg xmlns="http://www.w3.org/2000/svg"
     version="1.1"
     width="33.91965351mm"
     height="37.75606339mm"
     viewBox="0.00000000 0.00000000 96.15010976 107.02500599">

<g transform="scale(7.75753200)">   <defs>
      <style type="text/css"><![CDATA[
      .a {
        stroke: #000;
        stroke-miterlimit: 10;
        stroke-width: 0.15px;
      }
    ]]></style>
   </defs>
   <path class="a"
         d="M3.28035,8.044c-.02515.03927-.09982.1499-.05574.23088a.22885.22885,0,0,0,.109.085A5.46507,5.46507,0,0,0,5.546,8.90341a.70074.70074,0,0,1,.44878.111.71727.71727,0,0,1,.1766.35359,3.85218,3.85218,0,0,0,.66523,1.27414c.09546.12065.23327.24734.3819.20767.1556-.04153.20751-.23218.23255-.39126l.16436-1.04424a.68494.68494,0,0,0,.00526-.2789c-.05682-.21692-.297-.31851-.49777-.41847a3.47547,3.47547,0,0,1-1.05421-.87978c-.45573-.553-.23505-.86738-.5572-1.06161C4.77917,6.334,3.41976,7.82637,3.28035,8.044Z"/>
   <path class="a"
         d="M2.6711,4.63721A6.93246,6.93246,0,0,0,1.45833,6.04146,4.92513,4.92513,0,0,0,.9477,7.28613c-.137.5383-.05088.59877-.19149,1.2766a12.14757,12.14757,0,0,1-.383,1.34042c-.2403.74143-.3321.89293-.28723,1.21277a1.16559,1.16559,0,0,0,.4468.82979c.2426.14679.40648.04126.70213.2234a1.51459,1.51459,0,0,1,.41489.44681,7.20343,7.20343,0,0,0,.734.79788c.40324.37207.993.33444,2.01064.25531a4.5328,4.5328,0,0,0,2.84042-.86169c.19593-.17078.73392-.63968.60638-1.05319a.674.674,0,0,0-.51063-.41491c-.24-.04448-.40222.07306-.67021.1915a3.87126,3.87126,0,0,1-1.40426.28723,2.83363,2.83363,0,0,1-1.18085-.09575A2.49463,2.49463,0,0,1,2.63919,10.35a3.54488,3.54488,0,0,1,.09574-1.91489A4.82675,4.82675,0,0,1,3.3094,6.584,15.50472,15.50472,0,0,0,4.33068,5.05209c.18406-.33725.28125-.56352.19149-.766a.85758.85758,0,0,0-.8617-.35106C3.43022,3.96175,3.24113,4.0668,2.6711,4.63721Z"/>
   <path class="a"
         d="M2.83068,1.95634a3.12646,3.12646,0,0,0,0,1.72341,1.21461,1.21461,0,0,0,.22588.59105c.37221.394,1.01986.12436,1.84858.11108a4.75281,4.75281,0,0,1,2.74468.8617c.8117.58767.9179,1.1645,1.81916,1.5a1.59581,1.59581,0,0,1,.63829.35107c.29088.28187.23824.49745.51064,1.18085.32288.81005.53329.84948.54256,1.30851.00748.37059-.12607.52266,0,.734a.70568.70568,0,0,0,.8617.25531c.1-.0571.24349-.19429.28723-.82978a6.89539,6.89539,0,0,0-.2234-1.883c-.20541-1.1833-.02853-1.17348-.22341-1.62767-.255-.59421-.594-.69563-1.34042-1.40425C9.5917,3.94533,9.78839,3.78946,8.76684,2.7223A12.2084,12.2084,0,0,0,6.852,1.09465C5.19764-.07474,4.6225.05694,4.45833.10528a2.04662,2.04662,0,0,0-.82978.57447A2.98044,2.98044,0,0,0,2.83068,1.95634Z"/>

</g>
</svg>
