<?xml version="1.0" encoding="UTF-8"?>
<svg xmlns="http://www.w3.org/2000/svg"
     version="1.1"
     width="17.22597476mm"
     height="11.45407741mm"
     viewBox="0.00000000 0.00000000 48.82957264 32.46820086">

<g transform="scale(4.29680440)">   <defs>
      <style type="text/css"><![CDATA[
      .b {
        stroke: #000;
        stroke-miterlimit: 10;
        stroke-width: .15px;
      }
    ]]></style>
   </defs>
   <path class="b"
         d="M2.47239,.36839c-.27899,.2146-.5257,.53674-1.06378,.68091-.6283,.16833-1.06824-.06299-1.2644,.20081-.13287,.17859-.05548,.4519,.07288,.90552,.10461,.36951,.16663,.58862,.34045,.80847,.56805,.71838,1.70288,.65088,1.91486,.63831,.22882-.01355,.1803-.03809,.59576-.08508,.35266-.03992,.92358-.10449,1.48938-.04248,.83087,.09094,.75153,.35632,2.04254,.68079,.39612,.09949,.75842,.1637,.76593,.29785,.00995,.17822-.62244,.19507-.86896,.66809-.09491,.18213-.02087,.21741-.10974,.73621-.10132,.59131-.21393,.64111-.17023,.85107,.08386,.40308,.60229,.71826,1.06384,.76599,.67767,.06995,1.20026-.44019,1.44684-.68091,.13196-.12891,.16876-.18994,.9787-1.53186,.33087-.54822,.49921-.82556,.63831-.97876,.42212-.46497,.66388-.4812,.85107-.85107,.10156-.20056,.10187-.33704,.08508-1.14893-.02997-1.45337-.04388-1.64319-.21277-1.78723-.26727-.22803-.66132-.11841-1.10638-.0426-.19763,.03369-1.09631,.0083-2.89362-.04248-2.99664-.08459-3.76031-.68506-4.59576-.0426Z"/>

</g>
</svg>
