<?xml version="1.0" encoding="UTF-8"?>
<svg xmlns="http://www.w3.org/2000/svg"
     version="1.1"
     width="43.60792279mm"
     height="12.22473713mm"
     viewBox="0.00000000 0.00000000 123.61305144 34.65285883">

<g transform="scale(5.79267105)">   <defs>
      <style type="text/css"><![CDATA[
      .b {
        fill-rule: evenodd;
        stroke: #000;
        stroke-miterlimit: 10;
        stroke-width: .15px;
      }
    ]]></style>
   </defs>
   <path class="b"
         d="M9.35057,3.33306c.0879,.8887,.0669,1.7119-.7109,2.0791C5.53567,5.77786-.05563,6.58696,.30277,4.56746,.02247,4.06936,.00097,3.57186,.23777,3.07376c.2588-.2602,.5171-.52,.7759-.7798C1.73537,1.48246,2.83447,.72464,4.76217,.08556c.7539,.7368,1.0342,1.4726,1.0987,2.2084,.7973,.3038,1.5307,.6065,1.8095,.9092,.5601,.04348,1.1201,.0869,1.6802,.1299h0Z"/>
   <path class="b"
         d="M7.08887,4.04796c.56-.77932,3.5762-.77932,5.3642-1.1695,1.314-.6523,2.628-1.3506,3.9424-1.8183,1.1958,.54148,1.3247,1.7968,.9693,3.3774-1.0122-.8442-2.1973-.9092-3.5547-.1948-2.2403-.065-5.6441,.3896-6.7212-.1948h0Z"/>
   <path class="b"
         d="M16.65377,2.48936c-.9907-.6714-1.0342-1.1695-.1289-1.4942l.1289-.7143C18.70067-.00094,20.05757,.75686,20.72557,2.55376c-.0645,.3467-.1294,.69288-.1938,1.0396,.2368,.5844,.4741,1.1694,.7109,1.7534-.8403,.3691-1.6807,.6728-2.5205,.52l-1.5513-.97412c.1519-.80178-.1499-1.60258-.5171-2.40328h0Z"/>

</g>
</svg>
