<?xml version="1.0" encoding="UTF-8"?>
<svg xmlns="http://www.w3.org/2000/svg"
     version="1.1"
     width="52.38930148mm"
     height="24.22035233mm"
     viewBox="0.00000000 0.00000000 148.50510082 68.65613404">

<g transform="scale(5.59901992)">   <defs>
      <style type="text/css"><![CDATA[
      .a {
        stroke: #000;
        stroke-miterlimit: 2.61313;
        stroke-width: 0.28346px;
      }
    ]]></style>
   </defs>
   <path class="a"
         d="M1.07666,8.12354V4.56787C2.395,3.21191,3.7627,2.002,5.47412,1.81055c1.2085,1.46533.51123,3.769-.07324,6.02295q1.02612.03662,2.05225.07324C9.82275,7.54,12.19189,7.123,14.562,6.96289c1.2168.85693.60938,1.45361.36719,2.104A48.45749,48.45749,0,0,1,1.58984,12.11475q-.47681-.3999-.95312-.79785c-.957-.5791-.36914-1.83789.43994-3.19336Z"/>
   <path class="a"
         d="M11.55762,8.41455C13.54492,5.21631,17.69971,2.7334,21.5249.1416h2.125A39.11727,39.11727,0,0,1,19.54639,3.915c-1.00391.96875-.68555,1.355.66016,1.16113,2.29688-.53418,4.47168-.89795,5.78906-.07275,1.249,1.69385-.752,3.38574-2.85742,5.0791-.51367.02539-1.02734.04883-1.53906.07324q-.624-.5083-.07422-1.30566c.56641-1.311-.75391-1.26123-2.3457-1.0166-3.57129,1.3584-6.79834,2.3291-7.62158.58105Z"/>

</g>
</svg>
