<?xml version="1.0" encoding="UTF-8"?>
<svg xmlns="http://www.w3.org/2000/svg"
     version="1.1"
     width="32.26330875mm"
     height="10.61023099mm"
     viewBox="0.00000000 0.00000000 91.45505589 30.07626989">

<g transform="scale(5.57207354)">   <defs>
      <style type="text/css"><![CDATA[
      .a {
        stroke: #000;
        stroke-linecap: round;
        stroke-linejoin: round;
        stroke-width: 0.01px;
      }
    ]]></style>
   </defs>
   <path class="a"
         d="M14.26548.17876A3.384,3.384,0,0,1,13.86573.524a.799.799,0,0,0-.26651.32707c-.03634.109-.09085.19988-.12114.19988s-.04239.06663-.01817.15143c.02423.103-.02422.25439-.17565.533a2.07633,2.07633,0,0,0-.2241.50273c0,.06057,0,.16959-.00606.23622a.83529.83529,0,0,0,.218.59963,1.21123,1.21123,0,0,1,.33313.61175c0,.04845.02423.09085.05451.09085.103,0,.12114.17565.03029.26651-.07874.07874-.07269.103.06662.19382a.4753.4753,0,0,1,.18777.24227c.01817.07874.06662.1272.11508.109.109-.0424.27256.13931.27256.29679,0,.36947.50878.59963,1.01756.47244.15748-.03635.315-.07874.34524-.0848a1.53348,1.53348,0,0,0,.29073-.14537c.23017-.13931.26651-.2241.1696-.37553-.03634-.05451-.02423-.16959.03634-.321a.525.525,0,0,0,.03028-.41187c-.05451-.14537-.04845-.19988.03029-.27256a.28132.28132,0,0,0,.06057-.24228.38742.38742,0,0,1,.04845-.25439.18486.18486,0,0,0,.02423-.212.21938.21938,0,0,1,0-.212.22031.22031,0,0,0-.03634-.23622.35963.35963,0,0,1-.04846-.26651c.01817-.06662.01212-.12113-.01817-.12113a1.14334,1.14334,0,0,1-.2665-.33313,1.0731,1.0731,0,0,1-.22411-.642,1.14772,1.14772,0,0,0-.06662-.41792.58979.58979,0,0,1-.06057-.218c0-.212-.62992-.61175-.86614-.54512a.35147.35147,0,0,1-.22406-.02428C14.49564-.02112,14.423.01522,14.26548.17876Z"/>
   <path class="a"
         d="M7.10621.33624c-.04239.15142-.3089.321-.40581.26044C6.67012.57851,6.60349.65725,6.555.77233a.40367.40367,0,0,1-.24228.2544A.27489.27489,0,0,0,6.125,1.166a1.58667,1.58667,0,0,1-.26651.34525,1.649,1.649,0,0,0-.27862.38158,1.42245,1.42245,0,0,1-.79345.43,3.85079,3.85079,0,0,1-.745-.33918.32529.32529,0,0,1-.03634-.13326.65.65,0,0,0-.07874-.23016c-.03634-.07268-.04846-.14536-.03029-.16959.01817-.01817.00606-.03634-.03028-.03634-.09691,0-.27256-.3513-.23016-.46033C3.65378.89953,3.61138.85713,3.50235.8329a1.382,1.382,0,0,1-.3089-.12719C3.036.60274,2.56959.633,2.53328.74811a3.401,3.401,0,0,1-1.01151.50878c-.09691.01817-.29073.05451-.424.07268a1.5757,1.5757,0,0,0-.92671.49667A.45867.45867,0,0,0,.056,2.24416a.58821.58821,0,0,1-.02423.33313.14785.14785,0,0,0,.03631.20591l0,0A.352.352,0,0,1,.159,2.98916c0,.13326.29679.25439.4361.17565.07268-.04239.1817.01818.424.218.19382.1696.36341.26651.424.25439a.74868.74868,0,0,1,.321.0424,16.10489,16.10489,0,0,0,3.45244-.0848c.16959-.03634.35736-.07268.424-.08479a.83893.83893,0,0,0,.26045-.09086c.07268-.03634.15748-.06056.18171-.04239s.08479.006.13325-.02423a.31358.31358,0,0,1,.2665.04845,1.27191,1.27191,0,0,0,.30285.103.30692.30692,0,0,1,.18171.103.66338.66338,0,0,0,.55117.25439c.103-.01211.26651-.03029.36342-.04846.103-.01817.41793-.04239.70866-.06662a5.49843,5.49843,0,0,0,.69654-.0848.40647.40647,0,0,1,.28468.00606c.11508.06662.527-.07874.69048-.23622a.25126.25126,0,0,1,.212-.04846c.103.02423.16353-.01211.25439-.15142a.6074.6074,0,0,1,.24227-.218.76527.76527,0,0,0,.23622-.15748.2139.2139,0,0,1,.19382-.08479c.109.04239.109.01817-.03634-.21805a.82362.82362,0,0,1-.12114-.33919c0-.15142.01817-.14537-.60569-.15748a1.33116,1.33116,0,0,1-.99333-.3513.976.976,0,0,0-.29073-.18171c-.09691-.03634-.1696-.07874-.1696-.109,0-.02423-.07873-.07874-.17565-.12114A.496.496,0,0,1,8.7598,1.045c-.04245-.097-.097-.17573-.11513-.17573a.869.869,0,0,1-.23622-.1696A2.25367,2.25367,0,0,0,7.73008.28173C7.68162.26961,7.52414.24538,7.39089.22721,7.16073.19693,7.1365.203,7.10621.33624Z"/>

</g>
</svg>
