<?xml version="1.0" encoding="UTF-8"?>
<svg xmlns="http://www.w3.org/2000/svg"
     version="1.1"
     width="22.93356255mm"
     height="29.52562808mm"
     viewBox="0.00000000 0.00000000 65.00850112 83.69465000">

<g transform="scale(6.53780177)">   <defs>
      <style type="text/css"><![CDATA[
      .b {
        stroke: #000;
        stroke-miterlimit: 10;
        stroke-width: .15px;
      }
    ]]></style>
   </defs>
   <path class="b"
         d="m2.1459,1.43277c-.34229.36343-.49768.6962-.80847,1.36169-.13.27835-.21558.50787-.12769.72339.09131.22379.29968.26083.29785.42554-.00122.10791-.0918.19998-.51062.46808-.25842.16541-.47925.29379-.63831.383-.0907.50626-.16003.95135-.21277,1.31915-.09241.64374-.11023.8848.0426,1.06381.15405.18039.29675.08157.68079.25534.60889.27551.69653.72583,1.02124.68085.17395-.02411.16394-.15558.55322-.34042.2356-.11191.297-.09113.42554-.17023.29346-.1806.38062-.53961.42554-.72339.50134-2.04932.50366-1.71701.55322-2.21277.13708-1.36984-.0813-1.89529.34045-2.25534.25391-.21677.67712-.32001.76587-.34042.28076-.06454.54578-.12546.68091,0,.20435.18961-.01538.68628-.17029,1.1915-.0946.30859-.16235.94333-.29785,2.21277-.15503,1.45242.01489,1.26276-.12769,3.10638-.07812,1.01056-.15759,1.4343,0,2.08511.08679.35861.15649.4183.38306,1.23404.15442.55618.16431.68079.29785.76596.2948.18808.77429-.08261,1.65955-.59576.35767-.20734.70947-.4133,1.14893-.76596.52356-.42014.9281-.85327,1.23413-1.23404.02808-.35352.06323-.86783.08508-1.48935.03735-1.06329.01489-1.85428,0-2.383-.03723-1.32355-.07764-2.81335-.12769-4.51062-.06433-.48901-.23682-.68106-.38293-.76596-.24329-.14136-.46802-.01746-.76599-.21277-.19238-.12607-.2085-.24969-.34045-.38297-.32764-.33102-.9071-.25482-1.27661-.21277-2.06506.23502-1.95532-.09845-2.93274.22406-.5033.16605-1.23804.418-1.87573,1.09509Z"/>

</g>
</svg>
