<?xml version="1.0" encoding="UTF-8"?>
<svg xmlns="http://www.w3.org/2000/svg"
     version="1.1"
     width="37.60816375mm"
     height="26.59571681mm"
     viewBox="0.00000000 0.00000000 106.60582717 75.38941251">

<g transform="scale(5.79267105)">   <defs>
      <style type="text/css"><![CDATA[
      .a {
        stroke: #000;
        stroke-miterlimit: 10;
        stroke-width: 0.15px;
        fill-rule: evenodd;
      }
    ]]></style>
   </defs>
   <path class="a"
         d="M5.04677,9.20814a1.49926,1.49926,0,0,1-.7734,2.11971q-2.67045,2.61315-3.6553.9892c-1.0664-1.1777-.457-3.9092.9141-7.3476.7734-1.6041,1.5468-3.0176,2.3203-3.1089Q4.13372.97794,4.414.09445q.87887.2826,1.7578.5649a40.04928,40.04928,0,0,1-1.1953,7.3477Q4.31,9.0323,5.04677,9.20814Z"/>
   <path class="a"
         d="M7.64837,4.82785q.9126-1.2012,1.8271-2.4024l1.6875.2124a7.35564,7.35564,0,0,1-.7734,4.1685q-1.3008,2.4726.2109,2.1191c-.0937,1.5781-1.2422,2.5664-4.7099,2.2608-1.5303-1.7999-.09769-6.3819,1.7578-6.3584Z"/>
   <path class="a"
         d="M15.873,2.70814q.31636-1.02389.6328-2.04879.45705-.0345.91411-.0703c.63379.6846,1.48919,1.3633.35149,5.793-1.3398,1.91209-2.5947,3.8725-5.2724,5.01609a5.49117,5.49117,0,0,1,1.2656-4.52149q.28125-1.62526.5615-3.25.2124-1.30815,1.5469-.91851Z"/>
   <path class="a"
         d="M1.04,11.39814q.0351-1.024.0703-2.04839c5.59961-.5161,11.2334-1.0942,14.5517,2.4019q.03525,1.2714-2.4599.2827A56.434,56.434,0,0,0,1.04,11.39814Z"/>

</g>
</svg>
