<?xml version="1.0" encoding="UTF-8"?>
<svg xmlns="http://www.w3.org/2000/svg"
     version="1.1"
     width="22.62977361mm"
     height="39.91165584mm"
     viewBox="0.00000000 0.00000000 64.14746747 113.13543188">

<g transform="scale(5.94520625)">   <defs>
      <style type="text/css"><![CDATA[
      .b {
        stroke: #000;
        stroke-miterlimit: 10;
        stroke-width: .15px;
      }
    ]]></style>
   </defs>
   <path class="b"
         d="m4.93478.8166c-.19421.09235-.41885.22327-.8681.48511-.61496.35843-.92245.53763-1.30212.81705-.51779.38104-.90912.75208-1.14893.99573-.19763.20081-.24872.27072-.74042.81702-.33298.36993-.60825.66974-.7915.8681-.00824.10214-.01456.25278,0,.43402.01788.22266.04132.51495.20425.7915.05807.0986.16638.2019.383.40851.31848.30377.47842.45633.74042.58722.16498.08243.36829.15521.43405.17874.25003.08951.32495.09366.45956.17871.09311.05884.09299.07941.30637.28085.02682.0253.22263.20963.43405.383.29077.23843.29065.19339.43405.33191.16037.15494.3548.34277.35745.58722.0015.13916-.06085.14005-.12766.383-.08853.32193-.00656.42041-.0766.63831-.05115.15912-.14081.24945-.43405.51062-.33835.30133-.50754.452-.74042.63831-.13373.10696-.63934.51993-1.09787,1.09787-.43204.54456-.23163.49112-.76596,1.22552-.19168.26346-.38907.5062-.40851.8681-.00458.08554-.01294.28857.10211.48511.11282.19272.28436.27676.51065.38297.75241.35315.86591.36749,1.17447.53616.33755.18454.5842.37643.74042.51065.1521.13068.34241.2962.53616.56171.11679.16006.28235.3869.383.71487.15439.50311.01691.79083.25531.99576.0545.04684.04016.01334.28085.1532.31717.18433.35367.24927.48511.28085.11191.02689.18903.0047.51062-.10214.45651-.15164.68478-.22748.81705-.28085.42343-.17087.63776-.25882.76596-.38297.1637-.15848.24503-.32779.35742-.56171.13147-.27362.09814-.31012.25534-.66385.12653-.28467.16458-.29813.25531-.53616.07419-.19461.10818-.34161.1532-.53616.08972-.38779.1174-.68234.12766-.81702.01944-.25528.02914-.38293,0-.51065-.03754-.16449-.09927-.24951-.33191-.58722-.42697-.61984-.42523-.6329-.51065-.7149-.12396-.11899-.27838-.21548-.58722-.40851-.53754-.33594-.66-.34958-.7149-.51065-.10422-.30582.20093-.65695.2298-.68936.09741-.10931.27768-.20053.63828-.38297.1803-.09122.27185-.12897.51065-.25531.30145-.15952.36154-.2084.40851-.25534.14764-.14761.19421-.30493.25531-.48511.15915-.46927.09094-.13235.35745-.89362.23935-.68365.35901-1.02545.40851-1.37872.02789-.19901.06686-.491.02554-.86807-.01648-.15051-.04019-.36676-.12766-.63831-.12909-.40076-.27188-.53333-.20425-.68936.05984-.13812.23151-.17218.43402-.22977.27316-.07767.65027-.2117,1.09787-.45959.01968-.19299.03067-.40671.02554-.63831-.00909-.41058-.06186-.56299,0-.81702.02802-.11508.06119-.17554.28085-.53616.50641-.83139.5838-.92657.61276-1.14893.0394-.30249-.04929-.54492-.10211-.68936-.04239-.11588-.20685-.56543-.63831-.81702-.07828-.04565-.15311-.07764-.66385-.17874-.72708-.14395-1.09842-.21567-1.48083-.20425-.24142.0072-.41626.03885-.76596.10214-.52914.09576-1.2713.23517-2.11914.63828Z"/>

</g>
</svg>
