<?xml version="1.0" encoding="UTF-8"?>
<svg xmlns="http://www.w3.org/2000/svg"
     version="1.1"
     width="23.99391002mm"
     height="42.20428186mm"
     viewBox="0.00000000 0.00000000 68.01428182 119.63422393">

<g transform="scale(5.77949253)">   <defs>
      <style type="text/css"><![CDATA[
      .a {
        stroke: #000;
        stroke-linecap: round;
        stroke-linejoin: round;
        stroke-width: 0.01px;
      }
    ]]></style>
   </defs>
   <path class="a"
         d="M2.74951.21593c-.11329.11328-.33594.32422-.4961.47656A3.33029,3.33029,0,0,0,1.46825,1.7003a1.415,1.415,0,0,1-.39843.48438C.95654,2.25108.855,2.34093.855,2.3878a.61694.61694,0,0,1-.15234.25391.74591.74591,0,0,0-.15234.22656,1.48772,1.48772,0,0,1-.26954.30078.74863.74863,0,0,0-.26562.70313c0,.30859.03125.4414.11328.47265a1.319,1.319,0,0,1,.3086.63282c.00781.02343.05078.1875.11328.3789a3.99447,3.99447,0,0,1,.12109.63282.50421.50421,0,0,0,.11719.34375.98306.98306,0,0,1,.11328.51953,1.74181,1.74181,0,0,0,.14453.64062.7049.7049,0,0,1,.08594.5c-.03125.21484-.00781.32031.0664.34375a.2139.2139,0,0,1,.09375.34766c-.26172.27734-.28515.332-.19922.59375a3.21138,3.21138,0,0,1,.09766.71093,1.69332,1.69332,0,0,0,.10938.60938,4.73008,4.73008,0,0,1,.17578,1.27344c0,.082-.00782.21875-.00782.293a.75315.75315,0,0,1-.08593.28515.18728.18728,0,0,0,.04687.25781.50851.50851,0,0,1,.12891.27735,2.01365,2.01365,0,0,0,.09375.66406.23889.23889,0,0,1-.07813.25.332.332,0,0,0-.07421.32813,1.745,1.745,0,0,1,.05078.28125A11.73394,11.73394,0,0,1,1.42138,15.712a2.261,2.261,0,0,0,0,.81641q.03516.35742-.07031.457a1.65336,1.65336,0,0,0-.1836.89062.851.851,0,0,1-.19534.422.65629.65629,0,0,0-.18359.48047,3.19313,3.19313,0,0,1-.03125.53515c-.03125.25-.01563.30078.13672.3711a.57267.57267,0,0,1,.2539.24609.46931.46931,0,0,0,.23438.22656c.09375.02344.16015.082.16015.1211s.07032.0664.15235.0664a1.16432,1.16432,0,0,1,.375.10547,1.02141,1.02141,0,0,0,.38281.11328c.08594.00782.22266.00782.293.01563a1.58312,1.58312,0,0,0,1.03906-.59375,1.24547,1.24547,0,0,1,.42578-.38281,3.16218,3.16218,0,0,0,1.00391-.9961c0-.10547.43359-.293.5625-.25.14062.05469.18359.168.14844.40625-.07032.4375-.0625.57423.02734.66406a.44868.44868,0,0,1,.10156.27344c0,.32423.64063.69923,1.03906.60156a.33534.33534,0,0,1,.33594.1211c.08985.08984.1836.14062.21485.12109.02343-.02344.11328,0,.19921.0586a1.23986,1.23986,0,0,0,.543.08984c.52735-.00781.90625-.26953,1.832-1.25781a.39971.39971,0,0,0,.11719-.21094,2.71825,2.71825,0,0,1,.4961-.57813,3.86676,3.86676,0,0,0,.49609-.55078c0-.05468.09766-.17968.39062-.51953.10547-.1289.01563-.543-.168-.71484a.47526.47526,0,0,1-.14844-.19922c0-.10547-.23438-.17969-.59375-.19531-.29688-.01563-.35938.01562-.71094.35547-.39063.375-.4375.39843-.57422.30078-.18359-.1211-.23828-.33985-.168-.73047a2.79344,2.79344,0,0,0,0-.72266,2.971,2.971,0,0,1,.0625-1.27344,1.89561,1.89561,0,0,0,0-1.13671.35649.35649,0,0,1-.00781-.36329.308.308,0,0,0,.03125-.2539,1.81968,1.81968,0,0,1-.07812-.543c-.00782-.25-.03907-.65625-.0625-.90625-.01954-.24609-.05079-.55469-.05861-.67578a1.0984,1.0984,0,0,0-.11718-.40235c-.05078-.08984-.082-.19531-.0586-.22265a14.77809,14.77809,0,0,0,.24229-2.46484c.01562-.543.04687-1.12891.07031-1.32032A1.46732,1.46732,0,0,0,9.32374,5.466a6.56676,6.56676,0,0,1-.0664-1.69141A8.22139,8.22139,0,0,0,9.10891,2.5753a2.66154,2.66154,0,0,1-.043-.65625,1.79522,1.79522,0,0,0-.14453-.60937C8.812,1.03233,8.73.79015,8.73.79015a1.15353,1.15353,0,0,0-.2383-.09766C8.28468.62218,8.22215.6378,7.98.8214a1.27845,1.27845,0,0,0-.3125.26953.989.989,0,0,1-.168.20312,2.30746,2.30746,0,0,0-.30078.4375,2.83846,2.83846,0,0,1-.46484.61719c-.168.16406-.28906.32422-.26953.34766.02344.02343.00781.11328-.03516.1875a2.14643,2.14643,0,0,0-.10937.64062,1.75886,1.75886,0,0,1-.13665.64847c-.09766.14844-.09766.1875.03125.34375.1289.16016.13672.207.04687.33984a.96156.96156,0,0,0-.04687.6875,1.04108,1.04108,0,0,1-.07813.36719,1.42916,1.42916,0,0,0-.05862.55072.75065.75065,0,0,1-.03906.42188,1.23835,1.23835,0,0,0-.10156.42187,9.69788,9.69788,0,0,1-.15235,1.12891.67805.67805,0,0,1-.12109.28125c-.0625.07422-.05469.125.03906.21875a.34053.34053,0,0,1,.082.28515,3.82274,3.82274,0,0,0-.1445,1.14456,7.6145,7.6145,0,0,1-.09766,2.50782.439.439,0,0,0-.05468.3789.85977.85977,0,0,1,.03906.26953,2.77383,2.77383,0,0,0-.02344.36329.662.662,0,0,1-.10156.39062.14474.14474,0,0,0-.02757.20283l0,0,.00022.00029a1.42345,1.42345,0,0,1-.05469.76171.78074.78074,0,0,1-.33594.293.61524.61524,0,0,0-.33594.3711c-.04687.2539-.23047.33593-.39062.17968a1.60232,1.60232,0,0,1,.04687-1.1289,3.94093,3.94093,0,0,0,.0586-.832c-.00782-1.16016.04687-1.69141.1914-1.77735.10156-.05078.125-.17187.125-.53515a5.50571,5.50571,0,0,1,.03516-.76563,5.60331,5.60331,0,0,0,.11719-1.05469c-.01563-.25781-.01563-.71093,0-1.47656a1.46663,1.46663,0,0,0-.19141-.92193c-.168-.32422-.18361-.41406-.11717-.58593a.36885.36885,0,0,0,.01563-.34766.27.27,0,0,1-.01563-.2539.33481.33481,0,0,0,.03125-.25,2.823,2.823,0,0,1,.02344-1.3125A4.247,4.247,0,0,0,4.648,3.89952c-.03125-.13281-.08593-.457-.125-.73047-.03515-.26953-.08984-.59375-.11328-.71484a2.4264,2.4264,0,0,1-.03906-.33984A1.72189,1.72189,0,0,0,4.17138,1.13,1.30834,1.30834,0,0,1,4.019.6925.79006.79006,0,0,0,3.937.31359L3.812.005H3.38622C3.019.005,2.92529.03624,2.74951.21593Z"/>

</g>
</svg>
