<?xml version="1.0" encoding="UTF-8"?>
<svg xmlns="http://www.w3.org/2000/svg"
     version="1.1"
     width="16.22978060mm"
     height="21.24892416mm"
     viewBox="0.00000000 0.00000000 46.00570953 60.23320651">

<g transform="scale(4.35477854)">   <defs>
      <style type="text/css"><![CDATA[
      .a {
        stroke: #000;
        stroke-miterlimit: 10;
        stroke-width: 0.15px;
      }
    ]]></style>
   </defs>
   <path class="a"
         d="M1.02006,6.7376a5.46347,5.46347,0,0,1-.9365-2.5059C.01226,3.4231.38826,3.1902,1.149,2.864A4.675,4.675,0,0,0,3.16756,1.3924C4.02206.3963,5.75736-.3742,6.97806.3758c1.5098.9287,1.0029,3.05419.9942,4.5498-.003.5288-.2159,1.81.1142,2.2089.4375.5259,1.8252.1338,2.3926.17-.1465,1.05949.2021,1.7236-.3984,2.7368-.5108.8555-.7881,1.6909-1.2315,2.5454-1.1943,2.3052-2.8945.8198-3.1777-1.1558a41.66436,41.66436,0,0,1-.0362-6.2666c.0157-1.0742-.5752-1.9292-1.7666-1.0937-.7382.5161-.8369,1.4336-1.0888,2.2109C2.45466,7.2869,1.72806,7.6951,1.02006,6.7376Z"/>

</g>
</svg>
