<?xml version="1.0" encoding="UTF-8"?>
<svg xmlns="http://www.w3.org/2000/svg"
     version="1.1"
     width="27.95867892mm"
     height="35.50773910mm"
     viewBox="0.00000000 0.00000000 79.25299122 100.65180610">

<g transform="scale(7.20515799)">   <defs>
      <style type="text/css"><![CDATA[
      .b {
        stroke: #000;
        stroke-miterlimit: 10;
        stroke-width: .15px;
      }
    ]]></style>
   </defs>
   <path class="b"
         d="m.51809,3.08255c-.16607.39761-.21723.97002.03385,1.14885.16472.11732.41692.02374.51089-.01037.90554-.3287,4.69754-1.54072,5.051-1.0321.09568.13768-.0639.39668-.21277.6383-.46811.75976-1.1223.90437-2.70213,1.74468-.60752.32314-.9186.49031-1.27741.76454-.2346.1793-.58166.55263-1.27578,1.29929-.38987.41938-.6411.70468-.55319.91489.04448.10636.16129.15882.23404.19149.234.10509,1.2116.02806,1.3617.04256.69955.06754,1.92385-.49016,2.98499-.85764,1.09241-.3783,2.43358-.68204,2.89941-1.26283.13237-.16504.23299-.35976.26398-.56905.03166-.21382-.01476-.44347-.14977-.61227-.22773-.28474-.58089-.22671-.90272-.24343-.21908-.01139-.35867-.09611-.39083-.21333-.00714-.02602-.0318-.12919.13186-.31209.40813-.4561,1.194-.52479,1.86521-.90808.70102-.40032,1.04988-1.01414,1.17022-1.25533.08059-.16152.32915-.69804.29787-1.40425-.01579-.35644-.02532-.64339-.21276-.85107-.22412-.2483-.59737-.26955-1.57447-.14893-1.87048.23091-3.38359.66444-3.65957.74468-.31075.09035-.41972.12817-.68085.19149-1.07947.26178-1.29002.11819-1.74468.38297-.13324.07759-.36542.32123-.82978.80851-.50031.525-.58459.67994-.6383.80852Z"/>
   <path class="b"
         d="m7.18672,6.90929c-.21452.2954-.01344.08965-.80173,1.02782-.71192.84728-1.4234,2.04057-2.31216,2.70183-.3667.27284-1.24567.25908-1.34493.5833-.03249.10612.09676.16435.16863.41481.1017.35445-.0237.54064.04709.59443.175.13297,1.01162-.95149,2.31915-2,.83686-.67107,1.2194-.80841,1.76596-1.48936.39314-.48981.62887-.95905.76596-1.2766.11364-.34221.07082-.49758,0-.57446-.04348-.0472-.09426-.0613-.12719-.13167-.04943-.10564-.01791-.25107.06044-.33852.10725-.11973.31452-.14452.49229-.04045.04964.13475.09929.26951.14894.40426.13245-.07813.32047-.19725.53191-.3617.26203-.2038.46496-.36163.6196-.58647.28732-.41774.40709-1.06554.18891-1.22204-.19688-.14123-.62718.1476-.85106.29787-.7079.47515-.96582,1.02483-1.67179,1.99696Z"/>
   <path class="b"
         d="m4.11383,10.99744c-.91574-.21368-1.81212.68755-1.94941.82558-.08195.08239-.18906.03132-.76743,1.35455-.04383.10029-.08861.20961-.06308.31605.02525.10526.09975.17049.13214.19847.28302.24444.8179.19897.818.19896,1.54451-.1313,2.31865-.19723,2.41049-.21069,1.70338-.24977,1.30635-.12785,1.67462-.21484.61952-.14634,1.12553-.34548,1.44681-.08511.14745.11951.21222.30033.44533.36214.13821.03665.21347-.00093.44829-.04299.59921-.10734.75791.02113.93617-.12766.16779-.14005.0733-.29237.19149-.59574.24981-.64122.92797-.61795,1.06497-1.12173.10835-.39846-.2112-.79806-.25964-.85862-.47988-.60007-1.41792-.54297-1.97555-.50902-.65569.03992-1.14879.21127-1.52849.34624-1.19715.42556-1.45678.86709-2.04597.73887-.49629-.108-.46175-.45383-.97872-.57446Z"/>

</g>
</svg>
