<?xml version="1.0" encoding="UTF-8"?>
<svg xmlns="http://www.w3.org/2000/svg"
     version="1.1"
     width="60.88091481mm"
     height="49.31324036mm"
     viewBox="0.00000000 0.00000000 172.57589313 139.78560975">

<g transform="scale(5.79267105)">   <defs>
      <style type="text/css"><![CDATA[
      .a {
        stroke: #000;
        stroke-miterlimit: 10;
        stroke-width: 0.15px;
        fill-rule: evenodd;
      }
    ]]></style>
   </defs>
   <path class="a"
         d="M9.09546,3.0277c.56741-1.7216,1.44141-2.916,2.9893-2.9516.8389,1.77.9775,3.1704.4199,3.584q.0249,2.187.0518,4.3745a86.31008,86.31008,0,0,1,.4726,10.8047q-.1845.10545-.36719.2109c-.23631,1.457-.60351,2.4766-1.25871,2.5293-.9971,1.3906-1.961,2.5-2.6749,2.4766a1.98464,1.98464,0,0,1,.21-1.5274c.9404-1.9726.5762-3.3808.4717-4.90231A104.3121,104.3121,0,0,1,9.09546,3.0277Z"/>
   <path class="a"
         d="M10.72146,7.8236a1.72648,1.72648,0,0,1,.73441,1.107c-.05081.7905-1.85161,1.1416-4.14361,1.3701-3.2011,1.8545-4.9502,3.6113-3.6709,5.3232a7.27881,7.27881,0,0,0,5.9258.1582A7.70763,7.70763,0,0,1,12.242,14.517q.96975.68475.8916,1.3706a13.02729,13.02729,0,0,1-11.2744,2.3716A5.85429,5.85429,0,0,1,.076,14.8329c.2822-1.9678,2.1484-3.93551,5.9258-5.9023a1.75,1.75,0,0,1,1.8877-.5796,5.09451,5.09451,0,0,1,2.832-.5274Z"/>
   <path class="a"
         d="M12.71366,8.9306l1.1016-.0528c1.1904-1.374,3.5937-2.4433,5.9257-3.5312,2.9981-1.2739,5.6895-2.1514,7.709-2.1607q.70755,1.0284-.4717,2.0552a32.578,32.578,0,0,1-5.1923.73829c-.0694.29831-.1397.59721-.209.896q-.94485.1575-1.8887.31591a6.68347,6.68347,0,0,1-2.9365,1.0542q-.0264.4482-.0518.8955-.86564.18465-1.7314.3692c-1.13769,2.1948-2.6504,1.34419-2.2549-.5796Z"/>
   <path class="a"
         d="M15.59846,17.5741a1.417,1.417,0,0,1,.6816-1.0542c-.2295-.8974.2783-1.1777.8916-1.3706,1.4326-1.9057,3.251-4.1015,5.2441-6.4297a28.99865,28.99865,0,0,1,3.7754-5.7446q.49815.0264.9961.0527l.1055-.4741q.813-.28995,1.626-.5796.13035.47385.2617.9483.2622.027.52441.0527C29.325,5.2426,27.10326,7.1396,24.618,8.9833a28.50362,28.50362,0,0,1-6.7647,7.0625c-.5791,1.7739-1.4062,2.2837-2.2548,1.5283Z"/>
   <path class="a"
         d="M14.28687,18.5756c.48049-.7559,1.82619-1.4224,4.40529-1.8975q.65475-.31635,1.3115-.6323c.36621-.3516,1.2569-.6147,3.3037-.6855,2.5372-.4595,4.8291-.7061,5.4014.5273.7422,1.8364-.1494,3.3813-1.7832,4.7954-.47169.5293-.9609.9512-1.5732.6328q-.5772.60645-1.1534,1.2129c-.1074-.3164-.0732-.7031.9434-1.582.6494-1.125,1.0703-2.19731-.10449-2.8985q-4.06487.5274-8.12891,1.0547a2.78957,2.78957,0,0,1-2.62209-.5273Z"/>

</g>
</svg>
