<?xml version="1.0" encoding="UTF-8"?>
<svg xmlns="http://www.w3.org/2000/svg"
     version="1.1"
     width="55.61463737mm"
     height="60.12531903mm"
     viewBox="0.00000000 0.00000000 157.64782580 170.43394536">

<g transform="scale(4.85881581)">   <defs>
      <style type="text/css"><![CDATA[
      .a {
        stroke: #000;
        stroke-linecap: round;
        stroke-linejoin: round;
        stroke-width: 0.01px;
      }
    ]]></style>
   </defs>
   <path class="a"
         d="M19.05705.0898c-.06663.16959-.636.27861-1.18715.21805a1.99685,1.99685,0,0,0-1.23561.45426.86285.86285,0,0,1-.40582.18171.67874.67874,0,0,0-.315.1272.36244.36244,0,0,1-.19382.11508c-.07874.01817-.19987.0424-.27256.06057a2.25992,2.25992,0,0,0-.89036.64809c-.1696.17565-.38159.38764-.47244.47243s-.19988.19383-.24834.24834-.23016.24833-.41187.4361c-.23016.24227-.3089.36947-.28467.45426a.40483.40483,0,0,1-.315.37553.088.088,0,0,0-.09085.0848.895.895,0,0,1-.15143.30284c-.07874.12114-.13325.218-.11508.218.07269,0-.19382.36947-.29073.39976a.48106.48106,0,0,0-.20593.218,2.39814,2.39814,0,0,1-.3513.4361,1.71579,1.71579,0,0,0-.33313.44215c-.0424.109-.103.19988-.1272.19988-.07268,0-.18776.44821-.20594.81162-.006.28468-.03634.37553-.14536.46639a.218.218,0,0,0-.103.25439c.03029.11508-.00606.19382-.15142.34524a.39359.39359,0,0,0-.14537.45427.71493.71493,0,0,1-.05451.4361,3.80359,3.80359,0,0,0-.424,1.25983,1.40247,1.40247,0,0,1-.06663.38159,1.94834,1.94834,0,0,0-.103.67837,6.79016,6.79016,0,0,1-.02422.957.54278.54278,0,0,1-.1272.34525.46958.46958,0,0,0-.12114.33919,3.46748,3.46748,0,0,1-.07268.47849,1.85726,1.85726,0,0,0-.02423.45427,5.73987,5.73987,0,0,1-.018,1.21147,7.4685,7.4685,0,0,0-.02423,2.15626.56512.56512,0,0,1-.00605.36342.832.832,0,0,0-.02423.37552c.07874.22411.07874.30285.01817.41793a.244.244,0,0,0,0,.22411.5106.5106,0,0,1-.17565.55118c-.15142.07874-.15142.07874-.321-.07874-.08479-.07269-.218-.19383-.30284-.26045a.81024.81024,0,0,1-.1696-.19988,1.78267,1.78267,0,0,0-.52089-.24228c-.59358-.212-.79346-.34524-.84191-.56935-.02423-.09085-.06057-.16353-.09085-.16353a.43059.43059,0,0,1-.1696-.1272.65864.65864,0,0,0-.44215-.15748,2.16778,2.16778,0,0,1-.61175-.15748c-.23016-.109-.29679-.17565-.34524-.34524a1.332,1.332,0,0,1-.06057-.29679,1.48845,1.48845,0,0,1,.46639-.70866c.12719-.09691.218-.26044.3513-.66626a3.09576,3.09576,0,0,0,.20593-.73288.98913.98913,0,0,1,.218-.30285.49956.49956,0,0,0,.18777-.533,4.25617,4.25617,0,0,0-.05451-.45427c-.01212-.08479-.04846-.27256-.07269-.424a2.19914,2.19914,0,0,0-.18776-.55118.90782.90782,0,0,1-.11508-.3089c.06662-.06057-.1272-.46638-.43-.93276a4.337,4.337,0,0,1-.32708-.53907,1.45792,1.45792,0,0,0-.19382-.29073c-.58752-.745-.87219-.848-1.39309-.50272-.17565.11508-.36947.25439-.424.30284a1.76951,1.76951,0,0,1-.27256.18171,2.34244,2.34244,0,0,0-.44216.38158,1.64792,1.64792,0,0,1-.73894.533,3.293,3.293,0,0,0-.8298.80557c.02423.14537-.03634.212-.27861.321-.15143.06662-.27256.14536-.27256.17565a1.33586,1.33586,0,0,1-.24228.315c-.218.23016-.24228.28467-.212.47244a2.5314,2.5314,0,0,0,.1817.51483,7.1435,7.1435,0,0,1,.45427,1.45366,1.033,1.033,0,0,0,.19382.46638.6087.6087,0,0,1,.13931.35736,1.77116,1.77116,0,0,0,.15143.49061,1.04608,1.04608,0,0,1,.12113.3513.21669.21669,0,0,0,.05452.15142,1.582,1.582,0,0,1,.18776.47244c.07268.23622.17565.56935.22411.73895a3.57635,3.57635,0,0,1,.14536.82979.255.255,0,0,0,.109.18171.8184.8184,0,0,1,.14536.14537c.04846.07874-.06662.44821-.13325.44821-.212,0-.4785.62992-.527,1.24166a2.43433,2.43433,0,0,1-.09691.51484,2.45336,2.45336,0,0,0-.11508.84191.86765.86765,0,0,1-.0848.36342,1.53974,1.53974,0,0,0-.06663.58146,2.25377,2.25377,0,0,1-.06662.68443,1.49548,1.49548,0,0,0-.07268.45427,1.27134,1.27134,0,0,1-.20594.75711,1.157,1.157,0,0,0-.12719.55118,1.08707,1.08707,0,0,1-.0848.44821c-.05451.06663-.06663.24834-.03634.71472.02422.34524.03634.65414.03028.69049-.00606.03028-.01817.19382-.03028.36341a4.25151,4.25151,0,0,1-.218.848,4.30879,4.30879,0,0,0-.19382.66626.81749.81749,0,0,1-.19988.53906,2.51978,2.51978,0,0,0,0,1.40521,1.658,1.658,0,0,1,.3937.745.36385.36385,0,0,0,.12114.218.20041.20041,0,0,0,.26044.04845,1.66208,1.66208,0,0,1,.49667-.04845c.33313.01211.55724-.0424.636-.15143a1.23432,1.23432,0,0,1,.24227-.15142.92966.92966,0,0,0,.27259-.1938.37453.37453,0,0,1,.212-.109c.0848-.01211.22411-.04239.315-.06662a.3994.3994,0,0,1,.30285.04845,1.29553,1.29553,0,0,0,1.00545.14537c.07874-.04846.19987.05451.218.18171a.11883.11883,0,0,0,.12719.103,1.2007,1.2007,0,0,1,.36947.109c.14537.06057.26651.09691.26651.07874s.12719.03634.29073.12114a1.26933,1.26933,0,0,0,.40581.15142,2.38612,2.38612,0,0,1,.3937.06663,1.75775,1.75775,0,0,0,.424.05451,1.05323,1.05323,0,0,1,.38159.06057.56.56,0,0,0,.3937.01817,5.38559,5.38559,0,0,1,2.126.15142.728.728,0,0,0,.69655,0,.76189.76189,0,0,1,.321-.13325,1.8866,1.8866,0,0,0,.38159-.12114.27384.27384,0,0,1,.26045-.02423.21965.21965,0,0,0,.212,0,1.98961,1.98961,0,0,1,.44215-.103,2.0145,2.0145,0,0,0,.55724-.15747.948.948,0,0,1,.3937-.103,1.01732,1.01732,0,0,0,.38158-.06057.83761.83761,0,0,1,.27256-.05451.41722.41722,0,0,0,.19383-.06057.38763.38763,0,0,1,.25439-.0424,1.57009,1.57009,0,0,0,.6602-.24228,3.47341,3.47341,0,0,1,.642-.27256.39761.39761,0,0,0,.20594-.11508,1.3805,1.3805,0,0,1,.47244-.218c.19382-.05451.47243-.13325.6178-.18171.19988-.06056.30285-.06662.3937-.01817a.62144.62144,0,0,1,.36947.49061,2.3704,2.3704,0,0,0,.16354.5633c.33313.78739.32707.89036-.03634,1.22955a.536.536,0,0,0-.15748.2241.29955.29955,0,0,1-.09086.16354.97669.97669,0,0,0-.11508.45427c-.02423.321-.01211.38764.109.51484.12113.13325.17565.14536.43609.12113a.99013.99013,0,0,0,.86614-.47849c.0424-.11508.103-.212.13325-.212.03029-.00606.07874-.01212.109-.01817a.98943.98943,0,0,0,.2665-.23622c.23622-.24834.40581-.27862.56935-.11508a1.06823,1.06823,0,0,0,.33313.1817.48708.48708,0,0,0,.43-.00605,1.34671,1.34671,0,0,1,.45427-.09086.925.925,0,0,0,.36342-.06662.1783.1783,0,0,1,.15747-.02423,1.25525,1.25525,0,0,0,.79952-.02423c.12114-.07874.15748-.07874.3089,0,.20593.109.50272.37553.50272.46033a1.20205,1.20205,0,0,0,.424.43,2.10486,2.10486,0,0,1,.50272.40581c.109.103.11508.103.19382-.00606a.43594.43594,0,0,1,.24228-.13325.43751.43751,0,0,0,.27256-.15748c.06662-.07874.14536-.16959.18171-.212a.31738.31738,0,0,0,.06056-.15748,5.44534,5.44534,0,0,1,.54513-.91459,3.735,3.735,0,0,1,1.10239-.09689.85681.85681,0,0,0,.43-.09086c.13325-.08479.15747-.08479.28467.03029.15142.13325.16959.13325.48455.15142a2.58607,2.58607,0,0,1,.83586.14536.31718.31718,0,0,0,.218.03029.5852.5852,0,0,1,.30284.03634,2.10431,2.10431,0,0,0,.50272.06663c.15748-.00606.4785-.00606.70866-.01212.30285,0,.44216-.02422.49061-.09085a.3287.3287,0,0,1,.18171-.109c.11508-.01818.12114-.06663.12114-.70866v-.69049l-.24228-.36342c-.2665-.41187-.32707-.46638-.46032-.424a.30946.30946,0,0,1-.23622-.09085.50006.50006,0,0,0-.218-.12108.61909.61909,0,0,1-.24834-.13931,1.60755,1.60755,0,0,0-.36341-.218c-.109-.04845-.19988-.103-.19988-.13325s-.03634-.03634-.08479-.01817a.56531.56531,0,0,1-.30891-.09086.65474.65474,0,0,0-.27862-.09691,2.02869,2.02869,0,0,1-.68443.09691.47665.47665,0,0,0-.25439.06057,2.34521,2.34521,0,0,1-1.39914.06663.41494.41494,0,0,1-.24834-.56935A1.59785,1.59785,0,0,0,25.974,29.151a.39251.39251,0,0,1,.05451-.3513c.04846-.07874.0848-.16959.06663-.19988a6.85026,6.85026,0,0,1-.07268-2.00483c.06057-.77529.07268-.81163.46032-1.20533a1.4878,1.4878,0,0,0,.36342-.49061.5696.5696,0,0,1,.15142-.28467c.25439-.28468.27256-.315.27256-.37553a.792.792,0,0,1,.19988-.26651,1.29877,1.29877,0,0,0,.37553-.66626.32136.32136,0,0,1,.109-.1817,2.28351,2.28351,0,0,0,.33313-.50273c.20594-.37553.22411-.44215.15142-.53906a.48306.48306,0,0,1-.07874-.212,1.22822,1.22822,0,0,0-.1817-.37553c-.20594-.30891-.43-.41187-.58147-.26045a.36756.36756,0,0,1-.13931.09085c-.06056,0-.19382.43-.15142.49061a2.32687,2.32687,0,0,1-.24227.77529,1.75146,1.75146,0,0,1-.33313.36947.82809.82809,0,0,0-.24834.27862c0,.06057-.06057.15142-.30284.43-.16354.19382-.58752-.04846-.51484-.29073a.20861.20861,0,0,0-.03028-.19988,1.51257,1.51257,0,0,1-.04846-1.175.68819.68819,0,0,0,.07874-.321.22411.22411,0,0,1,.03634-.18171,2.23452,2.23452,0,0,0,.09085-.59357,5.20489,5.20489,0,0,1,.07874-.7026,4.58706,4.58706,0,0,0-.03028-1.36281,13.49344,13.49344,0,0,0-.22411-1.43549c-.07268-.37553-.07268-.44821.00606-.58146.12114-.19988.41187-.36342.55724-.315a.66505.66505,0,0,0,.36341-.09085,1.1328,1.1328,0,0,1,.71472-.09691,2.9067,2.9067,0,0,1,.56935.06662.51074.51074,0,0,0,.33313-.07268c.43-.21805.86008-.14537.86613.15142a.739.739,0,0,0,.41187.46638.75257.75257,0,0,1,.27862.19382l.14537.15748.2665-.109a1.16024,1.16024,0,0,1,.41793-.09691c.15142.00606.4785-.24228.4785-.36342,0-.02422.05451-.06662.12719-.08479.18776-.06057.67232-.57541.636-.67232a.38511.38511,0,0,1,.26044-.424c.27862-.06057.30891-.07874.27256-.17565a.29113.29113,0,0,1,.04846-.23017c.09085-.1393.09085-.29073.01817-.62386-.04846-.218-.3513-.47849-.49667-.424-.09691.0424-.48455-.16959-.60569-.32707-.03634-.04846-.09085-.07269-.109-.04846-.02423.02423-.12114.00606-.20594-.0424a1.8032,1.8032,0,0,0-1.18715-.05451,2.43884,2.43884,0,0,1-.79346.09085c-.47245-.00605-.49061-.00605-.6481.17565-.18169.19988-.23015.212-.424.109a1.0143,1.0143,0,0,0-.73894-.0848c-.09691.02423-.26045.04846-.36342.06663-.09692.01211-.2544.0424-.3513.06057a3.195,3.195,0,0,1-.93276.03634.56362.56362,0,0,1-.18777-.38764,1.36619,1.36619,0,0,0-.19987-.64809c-.15143,0-.27257-.642-.15143-.83586a1.55376,1.55376,0,0,0-.1817-.66626c-.07874-.17565-.07269-.20593.04239-.321a1.26046,1.26046,0,0,1,.33313-.212c.11508-.04845.20594-.109.20594-.1393a.942.942,0,0,1,.212-.27256,1.16985,1.16985,0,0,0,.212-.26651c0-.02423.0848-.09691.18777-.15748a1.57534,1.57534,0,0,0,.29073-.212A3.80914,3.80914,0,0,0,26.816,8.85417c-.01817-.03029.01212-.09691.06663-.15143.103-.103.103-.15748.06057-.61175-.01817-.16959-.03635-.37552-.03635-.46638a1.14665,1.14665,0,0,0-.0848-.37553c-.04846-.11508-.07268-.2241-.05451-.24227a.72455.72455,0,0,0,.01817-.5209.81947.81947,0,0,1-.07268-.28467.55794.55794,0,0,0-.11509-.29073.74526.74526,0,0,1-.19381-.59358c.02422-.109-.0424-.30285-.218-.642a2.868,2.868,0,0,1-.24833-.57541c0-.05451-.02423-.09691-.05451-.09691s-.07268-.05451-.09691-.11508a1.73768,1.73768,0,0,0-.30891-.41187A3.85442,3.85442,0,0,1,25.02317,2.87a1.00173,1.00173,0,0,0-.28468-.34525,1.34371,1.34371,0,0,1-.315-.218.84557.84557,0,0,0-.28467-.18171,1.2211,1.2211,0,0,1-.45427-.43c-.01211-.03634-.13325-.07874-.2665-.0848a1.09938,1.09938,0,0,1-.47245-.17565,2.11839,2.11839,0,0,0-.32708-.18776.56919.56919,0,0,1-.2241-.218c-.12113-.18777-.53907-.44821-.62991-.3937C21.74028.65322,21.6676.629,21.601.58659A.21636.21636,0,0,0,21.41926.532c-.09691.03629-.44821-.14541-.44821-.23021,0-.03634-.04239-.04846-.09691-.03029S20.72878.24728,20.644.15642C20.51072.01106,20.47438.005,19.79605.005,19.23877.005,19.08129.02317,19.05705.0898ZM19.16,2.022a1.598,1.598,0,0,1,.27256.09085,1.44125,1.44125,0,0,0,.70866.13931,1.12784,1.12784,0,0,1,.48455.103c.13931.06663.315.13931.38764.16354a1.07692,1.07692,0,0,1,.38159.62992,1.62932,1.62932,0,0,0,.51484.68443.60646.60646,0,0,1,.23621.29679,1.70255,1.70255,0,0,0,.424.59357c.05451.05452.16959.17565.26045.27862.09691.09691.27256.27862.39369.40581a.84261.84261,0,0,1,.26045.45427,2.78312,2.78312,0,0,0,.24834.65415,1.95867,1.95867,0,0,1,.24227.848,2.92412,2.92412,0,0,1-.00606.87825.20953.20953,0,0,0,.02423.16959.76239.76239,0,0,1,.00606.34525.72017.72017,0,0,0,.01211.35735.22554.22554,0,0,1-.006.20594,3.26626,3.26626,0,0,0-.13326.92065,2.18728,2.18728,0,0,1-.03028.6178c-.0424.14537-.40581.25439-.56935.1696a2.25964,2.25964,0,0,0-1.03573.06662c-.05451.02423-.11508.03634-.13325.01817-.0424-.0424-.40582.14537-.40582.20594,0,.03028-.11508.13325-.26044.23622-.38765.27256-.36948.46638.17565,1.54451.3089.62386.19381.88431-.36947.79951a3.80981,3.80981,0,0,0-.45427-.03634c-.08481.00606-.218.01211-.30286.01817a.43039.43039,0,0,0-.24226.0848,1.187,1.187,0,0,1-.72683.23622,1.00138,1.00138,0,0,0-.44216.103.52817.52817,0,0,1-.29073.0848c-.03028-.02423-.09691.00606-.15142.05451a.3005.3005,0,0,1-.18171.09691,1.48942,1.48942,0,0,0-.3937.23622,1.00657,1.00657,0,0,0-.4785.76923c0,.17565.30891.41793.67232.52695a.61969.61969,0,0,0,.50878,0,1.66921,1.66921,0,0,1,1.21138.0424.723.723,0,0,0,.80557-.00606c.13326-.103.15748-.103.321-.01817.15748.07874.19382.07874.30283,0,.109-.07268.15748-.07874.321-.00605.103.04239.321.12719.49061.18776.39976.13931.57541.321.58752.61175,0,.12719.01817.29679.02423.38158.01211.0848.03634.26045.04845.3937.01817.13325.07269.44821.12114.69655a6.33,6.33,0,0,1,.16354.93882c0,.03028-.01817.16959-.03634.30284a5.13955,5.13955,0,0,0,.08479,1.65354.83126.83126,0,0,1-.00605.36947,5.33024,5.33024,0,0,0-.02423,1.41126c.03028.06663,0,.14537-.07874.22411-.14537.14536-.212.15748-.321.04845a1.094,1.094,0,0,0-.56329-.23016c-.03027.00606-.13931.03029-.23015.0424a2.07637,2.07637,0,0,0-.81769.3089,2.02249,2.02249,0,0,1-.33313.17565,2.055,2.055,0,0,0-.424.23016l-.29073.18777.03027.424a2.38918,2.38918,0,0,0,.11509.854c.01817.01817.00605.109-.02422.19382-.04846.12114-.03635.17565.07267.29073.07268.07874.15143.12719.17565.11508a2.0696,2.0696,0,0,1,.56935.218c.3937.18171.54512.22411.62992.18171a1.43445,1.43445,0,0,1,.854.08479,2.71191,2.71191,0,0,1,.81769.79952.91151.91151,0,0,1-.12719.90248c-.07874.12113-.12114.24833-.09692.28467a1.26894,1.26894,0,0,1,.06057.34524c.01211.15143.01817.32708.02423.3937s.03634.23017.06662.36342c.14537.58146.07269,1.0115-.1817,1.14475a.3775.3775,0,0,1-.30891.03029.46784.46784,0,0,0-.27256-.01212,1.63854,1.63854,0,0,1-.47244.06663.77582.77582,0,0,0-.36341.18776,1.61046,1.61046,0,0,1-.77528.38159c-.12114-.01817-.38765.23622-.53907.52089-.16959.315-.50272.37553-.58752.11509a3.0568,3.0568,0,0,1-.01817-.963.5893.5893,0,0,0-.03634-.27862.441.441,0,0,1,.0424-.46638,1.26562,1.26562,0,0,0,.12719-.5633c0-.27861-.02423-.3513-.17565-.49666-.09691-.09691-.28467-.28468-.41187-.41793a.56857.56857,0,0,0-.55118-.24833,2.341,2.341,0,0,0-.59358.08479,1.06707,1.06707,0,0,1-.30284.06057,1.91809,1.91809,0,0,0-.67232.30891.70969.70969,0,0,1-.3513.103,1.69672,1.69672,0,0,0-.848.50878.87362.87362,0,0,1-.39369.13326c-.16354.01211-.30285.04845-.30891.07874-.06057.15748-.44821.27861-1.24166.39369a3.59035,3.59035,0,0,0-1.03574.44216.49778.49778,0,0,1-.20593.09691,1.06979,1.06979,0,0,0-.25439.09085.21882.21882,0,0,1-.18776.02423c-.03635-.01817-.11509.01817-.18171.09085s-.15143.109-.18777.09086a1.25313,1.25313,0,0,0-.78739.01211.29108.29108,0,0,1-.27257.03634.42538.42538,0,0,0-.30284,0,.76726.76726,0,0,1-.28468.03029.18987.18987,0,0,0-.15142.01211.79408.79408,0,0,1-.37553-.03028c-.26044-.06663-.32707-.06663-.44215.006-.12114.07874-.15142.07269-.36342-.06662a.50652.50652,0,0,0-.35735-.12114c-.09086.02423-.19988-.04846-.43-.29072A2.51887,2.51887,0,0,0,7.67613,30.12a2.29223,2.29223,0,0,1-.46033-.32708A1.90808,1.90808,0,0,0,6.701,29.484a1.4821,1.4821,0,0,1-.46032-.25439.55789.55789,0,0,0-.25439-.15142,1.1699,1.1699,0,0,1-.55118-.48455,1.0144,1.0144,0,0,1,.27256-.68444,1.20731,1.20731,0,0,0,.32707-.60569.94738.94738,0,0,1,.40582-.55723.59242.59242,0,0,0,.20593-.29073,1.2824,1.2824,0,0,1,.19988-.3513,1.49366,1.49366,0,0,0,.19382-.23627,2.8096,2.8096,0,0,1,.218-.26651.6862.6862,0,0,0,.109-.73288.45661.45661,0,0,1-.06056-.29679c.05451-.29679-.29679-.4785-.64809-.33313a1.452,1.452,0,0,0-.61781.60569,2.84845,2.84845,0,0,1-.321.3937,1.05729,1.05729,0,0,0-.218.315c-.02423.07268-.06663.13325-.09691.13325a.91605.91605,0,0,0-.212.28467,2.15594,2.15594,0,0,1-.6178.69049.84935.84935,0,0,0-.19382.29679A3.68143,3.68143,0,0,1,3.3636,28.22417c-1.24167,1.13265-1.20533,1.10236-1.381,1.02362-.16354-.07268-.24833-.24833-.17565-.36341a2.41086,2.41086,0,0,0,.06663-.59358,13.0806,13.0806,0,0,1,.11508-1.69593.95163.95163,0,0,0,.03028-.28468.53528.53528,0,0,1,.06057-.2665,1.532,1.532,0,0,0,.07874-.47244,1.38815,1.38815,0,0,1,.09086-.4785.57273.57273,0,0,0,.06056-.27256,1.24115,1.24115,0,0,1,.30891-.81768.50372.50372,0,0,0,.09691-.61781c-.02423-.05451.04845-.218.15748-.38764.109-.16354.24833-.36947.30284-.45427a2.04183,2.04183,0,0,1,.15143-.21805,1.047,1.047,0,0,0-.01209-.60574,1.01947,1.01947,0,0,1,.03634-.73288c.06663-.15143.0848-.27862.04846-.33313-.03029-.05452.01211-.19382.13325-.41187a.80952.80952,0,0,0,.15748-.48456.60743.60743,0,0,1,.2665-.55723.47468.47468,0,0,1,.53907.19382,1.48344,1.48344,0,0,0,.43.30284,1.80508,1.80508,0,0,1,.46638.33919c.04846.07874.1272.13325.1696.11508s.1393.02423.218.09691a3.49935,3.49935,0,0,0,.51492.30283,2.4806,2.4806,0,0,1,.89642.72683,1.69911,1.69911,0,0,0,.41793.29073,2.20865,2.20865,0,0,1,.41187.2665.42855.42855,0,0,0,.24833.1272,3.15192,3.15192,0,0,1,1.32041.58146,1.03874,1.03874,0,0,0,.36341.23622.51912.51912,0,0,1,.24228.109.72548.72548,0,0,0,.75106-.00606.3314.3314,0,0,1,.18171-.103c.04239,0,.1393-.15142.212-.33919a.93861.93861,0,0,1,.2241-.36947c.15748-.06057.07874-.29679-.19988-.55723l-.27861-.26045.0424-.43a2.04642,2.04642,0,0,1,.103-.55118,2.5477,2.5477,0,0,0-.09085-1.19927.63427.63427,0,0,1-.07874-.29073.37149.37149,0,0,0-.06663-.23016c-.06057-.06663-.05451-.1272.0424-.315a.68957.68957,0,0,0-.09085-.75711,1.24291,1.24291,0,0,1-.04846-.51484c.06057-1.06.05451-1.30224-.03028-1.44155-.07874-.12113-.07268-.17565.0424-.48455l.13325-.34524-.15748-.38159c-.11508-.28467-.13931-.40581-.09085-.49666a.29058.29058,0,0,0,.03028-.19383.632.632,0,0,1,.06663-.321,1.52524,1.52524,0,0,0,.09085-.53907,1.01633,1.01633,0,0,1,.09085-.44821c.05452-.07874.07874-.15748.06663-.17565-.01817-.01211,0-.11508.0424-.218a1.77109,1.77109,0,0,0,.06662-.55723,2.95253,2.95253,0,0,1,.04846-.60569,3.51542,3.51542,0,0,0,.103-1.08419c.00605-.51484.05451-.67232.23016-.72683.09691-.03029.103-.0848.06662-.43a5.04314,5.04314,0,0,1-.02422-.533,1.12084,1.12084,0,0,1,.27256-.55724.06637.06637,0,0,0,.02878-.08933l-.00455-.00758A2.72089,2.72089,0,0,1,12.38235,6.177a.7452.7452,0,0,0,.37552-.4361.36491.36491,0,0,1,.15748-.2241.21861.21861,0,0,0,.12114-.15142,1.17082,1.17082,0,0,1,.29073-.38765c.3513-.36947.46639-.50272.47244-.56329.00606-.03028.01212-.07268.01817-.103a1.1,1.1,0,0,1,.32708-.23622,3.29,3.29,0,0,0,.48455-.33918c.09691-.0848.19382-.14537.22411-.1272.02422.01817.08479-.01211.12719-.06662a1.36227,1.36227,0,0,1,.321-.218,3.8984,3.8984,0,0,0,.751-.51484.177.177,0,0,1,.1696-.03634.12513.12513,0,0,0,.13931-.03634.60051.60051,0,0,1,.32707-.09086.54572.54572,0,0,0,.43-.17565.4874.4874,0,0,1,.27862-.16353.59521.59521,0,0,0,.27269-.09694c.0848-.05452.15142-.0848.15142-.06663,0,.02423.11508-.01817.26045-.07874A1.87236,1.87236,0,0,1,19.16,2.022ZM10.638,13.17878a.172.172,0,0,1-.06057.29679.234.234,0,0,1-.29074-.11508c-.03028-.0848.109-.27256.20594-.27256A.33837.33837,0,0,1,10.638,13.17878Z"/>
   <path class="a"
         d="M31.31019,30.79227c-.13325.05452-.16354.09691-.13325.19383a1.16255,1.16255,0,0,1,.05451.24227c.01211.103.16354.18777.37553.20594.09691.01211.29679-.4361.20593-.46639a.55436.55436,0,0,1-.16959-.1393C31.5343,30.70142,31.54641,30.70142,31.31019,30.79227Z"/>

</g>
</svg>
