<?xml version="1.0" encoding="UTF-8"?>
<svg xmlns="http://www.w3.org/2000/svg"
     version="1.1"
     width="25.98743514mm"
     height="14.37786827mm"
     viewBox="0.00000000 0.00000000 73.66520445 40.75606782">

<g transform="scale(6.53780177)">   <defs>
      <style type="text/css"><![CDATA[
      .b {
        stroke: #000;
        stroke-miterlimit: 10;
        stroke-width: .15px;
      }
    ]]></style>
   </defs>
   <path class="b"
         d="m3.35291,1.55071c-.40247.28333-.59009.43762-.72339.55322-.67041.58142-.71484.83295-.72339.93616-.01111.13403.0304.11456.12769.59576.09265.45819.13696.68884.0426.76593-.12415.10144-.32324-.19244-.68091-.17023-.09131.00568-.18994.03137-.76599.46808-.54553.41357-.56201.47003-.5531.51068.03528.1618.48169.09827,1.19141.25531.81104.17944.80334.34357,1.48938.46808.5813.10547.53027-.02264,1.53198.08508.50427.0542.65808.10181,1.14893.12769.42151.02222.74011.00983.97864,0,.42151-.0174.97217-.06134,1.61707-.17023.5802-.22986.69299-.33234.68091-.383-.02661-.11127-.63672.10272-1.31921-.12762-.67761-.2287-1.06934-.77496-1.27661-1.06384-.26428-.36835-.49915-.69586-.51062-1.14893-.0083-.3288.10742-.46967,0-.76599-.09521-.26263-.25757-.34912-.29785-.63824-.02637-.18939.01709-.34058.04248-.42554.2262-.75726,1.21472-1.09674,1.14905-1.27661-.04041-.1106-.44922-.07867-.76599,0-.30103.07477-.55945.23523-1.06384.55316-.70215.4425-1.05847.66754-1.31921.85107Z"/>
   <path class="b"
         d="m7.5232,2.86986c.00244.27197.08545.33417.08508.76599-.00024.33124-.04932.47089.0426.55316.18115.16211.58594-.18774.76587-.04254.19824.15991-.2052.65515,0,1.06384.19434.38708.86035.5484,1.36169.38293.11133-.03674.36121-.13806.55322-.38293.25684-.3277.24536-.70245.25537-1.06384.01184-.42761.07886-.86664.21277-1.74469.20312-1.33191.56543-1.81805.29785-2.08508-.11182-.11163-.24084-.09216-.89368-.04254-1.6626.1264-1.92566.08386-2.38293.34039-.43335.24304-.79211.61493-.72339.76599.08081.1778.70081-.0672.85107.17017.15344.24225-.43201.59283-.42554,1.31915Z"/>

</g>
</svg>
