<?xml version="1.0" encoding="UTF-8"?>
<svg xmlns="http://www.w3.org/2000/svg"
     version="1.1"
     width="44.69800066mm"
     height="36.54910130mm"
     viewBox="0.00000000 0.00000000 126.70290993 103.60376545">

<g transform="scale(5.28493839)">   <defs>
      <style type="text/css"><![CDATA[
      .a {
        stroke: #000;
        stroke-miterlimit: 2.61313;
        stroke-width: 0.28346px;
      }
    ]]></style>
   </defs>
   <path class="a"
         d="M8.14209,19.45215c-1.44043.06836-1.90186-.23633-1.13086-.65723A1.956,1.956,0,0,1,8.14209,17.3584c.69434-.9375.31738-2.5918.47607-3.88867a18.71473,18.71473,0,0,1-.17822-4.12744Q8.37988,6.6499,8.3208,3.958c-.39844-1.09814-.65771-2.0957.05957-2.39307a1.8716,1.8716,0,0,1,2.5-1.31641,10.82184,10.82184,0,0,1,.47607,4.06836c-.04,1.75488-.06006,3.50977.05957,5.26465.68506,4.33838-.26758,6.81006-1.96436,8.43506a10.67348,10.67348,0,0,0-1.30957,1.43555Z"/>
   <path class="a"
         d="M1.17725,11.55566a5.25128,5.25128,0,0,1,2.0835-2.09375A2.6969,2.6969,0,0,1,5.16553,8.02637,8.87729,8.87729,0,0,0,8.02295,6.291c1.60742-.15967,1.46826,1.07715.29785,2.09424-.83691,1.43262-2.626,1.71533-4.28613,2.15381-.09912.70313.6748,1.17285,2.32178.89746q.41675.17871.833.35938c2.41064-.584,3.87891-.69336,4.70312-.47949-1.16455,1.81738-5.13477,2.5625-8.86963,2.752-3.70215.417-3.2666-1.74707-1.8457-2.5127Z"/>
   <path class="a"
         d="M14.1543,8.74414c-.05957.937-.5957.99707-.89258.1792a2.24871,2.24871,0,0,1,1.60742-2.39307c1.08008-2.20947,6.4082-5.53711,8.27344-3.29q.56543,4.12793-1.01172,3.709-1.81494.47827-1.96484-.71777c-.22656-.37451-.28516-1.00488-1.18945-.35889A5.39582,5.39582,0,0,0,15.583,7.18848,2.33046,2.33046,0,0,1,14.1543,8.74414Z"/>
   <path class="a"
         d="M23.02344,2.34277a25.50335,25.50335,0,0,1-5.6543,6.87988c-1.62109.68066-3.127,1.41016-3.63086,2.57324q-.7749.56689-.11914,1.13672c-.05859.96973,2.04785.58008,4.22656.7168a8.65214,8.65214,0,0,0,2.02344.17969c.6543.77734-.11914,1.79492-.17871,2.69238a1.32282,1.32282,0,0,0,1.25-.83789c.97656.18652,1.31738-.90137,1.78613-1.73535,1.75488-3.438.30273-3.93311-1.60742-4.00781-1.9248.2793-2.44043.1001-1.667-.41846q.17871-.89795,1.07129-.59863.835-.29883.47656-1.31592,4.34473-3.5896,2.02344-5.26465Z"/>

</g>
</svg>
