<?xml version="1.0" encoding="UTF-8"?>
<svg xmlns="http://www.w3.org/2000/svg"
     version="1.1"
     width="47.46821670mm"
     height="14.64294559mm"
     viewBox="0.00000000 0.00000000 134.55563877 41.50755819">

<g transform="scale(5.79267105)">   <defs>
      <style type="text/css"><![CDATA[
      .b {
        fill-rule: evenodd;
        stroke: #000;
        stroke-miterlimit: 10;
        stroke-width: .15px;
      }
    ]]></style>
   </defs>
   <path class="b"
         d="M.54944,1.92622C1.84144,.18842,3.16464-.76708,4.59974,1.06932c.5342,.5186,.4448,1.1602,.2666,1.8208-.1069,.6782,.0703,1.0708,.5327,1.1782,.9946,.107,1.95411,.2666,2.6646,.80368-.3199,.232-.6397,.46392-.95949,.69632-.31981,.3926-1.20851,.6421-2.66461,.75-1.2793,.794-2.4697,1.09768-3.4638,.3208C-.09946,6.33592-.09946,5.05032,.38974,3.31882c.0533-.4643,.1065-.9282,.1597-1.3926H.54944Zm11.99071-.5893c.64209-.8877,1.66459-.4444,2.61139-.2676,1.6337,.1074,3.0727,.0186,4.4228-.1606,1.9185-.5088,3.3042-.5264,3.5176,.5356,.1963,.6426-.1065,1.1602-.48,1.6602-.7373,1.267-1.6079,2.3564-2.771,3.0527-.8882,.9277-1.4214,.9995-1.5986,.2143-.5708-.3383-.3926-.9282-.1065-1.5532,.2871-.96632-.4253-1.1797-1.2793-1.2851-.0888,.2851-.1777,.5713-.2666,.8569-2.3193,.2505-4.3266,.2505-5.2221-.64312-.2935-.86568-.09769-1.687,1.17231-2.41008h0Z"/>

</g>
</svg>
