<?xml version="1.0" encoding="UTF-8"?>
<svg xmlns="http://www.w3.org/2000/svg"
     version="1.1"
     width="32.62314075mm"
     height="27.14818259mm"
     viewBox="0.00000000 0.00000000 92.47503371 76.95544966">

<g transform="scale(4.96730009)">   <defs>
      <style type="text/css"><![CDATA[
      .a {
        stroke: #000;
        stroke-linecap: round;
        stroke-linejoin: round;
        stroke-width: 0.01px;
      }
    ]]></style>
   </defs>
   <path class="a"
         d="M16.31128.05259a4.08606,4.08606,0,0,1-.72077.07269,2.15153,2.15153,0,0,0-.7874.12719,3.60985,3.60985,0,0,1-1.22955.11508,7.25315,7.25315,0,0,0-2.05935.23622A3.63945,3.63945,0,0,1,10.636.65828a12.42143,12.42143,0,0,0-2.11992,0A9.11475,9.11475,0,0,1,6.97153.72491c-.23017,0-.46639-.00606-.51484-.01211A10.97274,10.97274,0,0,0,4.95457.76731,3.88038,3.88038,0,0,1,3.74925.64617a.96242.96242,0,0,0-.55724,0,4.33722,4.33722,0,0,1-.59357.09691c-.28468.01817-.37553.05451-.49061.18777a.73522.73522,0,0,1-.30285.19987c-.212.05452-.23622.22411-.103.65415.09691.30285.1272.33313.50273.54512a1.43573,1.43573,0,0,0,1.00544.22411,2.54259,2.54259,0,0,0,.89643-.09691A.88671.88671,0,0,1,4.77284,2.433a4.0322,4.0322,0,0,0,1.811-.02423,1.198,1.198,0,0,1,.45427-.11508,2.78072,2.78072,0,0,0,.78134-.13325,2.98023,2.98023,0,0,1,.50882.06661A1.1561,1.1561,0,0,0,8.94,2.24518.78217.78217,0,0,1,9.31555,2.221,1.08174,1.08174,0,0,0,9.73348,2.215a1.13461,1.13461,0,0,1,.40581.00606,7.46288,7.46288,0,0,0,1.14476.03028c.527-.01211,1.21743,0,1.53239.02423a2.33661,2.33661,0,0,0,.67838,0,.567.567,0,0,1,.38158.07268,1.22676,1.22676,0,0,0,.4361.109.218.218,0,0,1,.22411.09691,3.14379,3.14379,0,0,0,.23622.321c.20593.26651.20593.34525,0,.54513a.48261.48261,0,0,0-.15143.41792.84349.84349,0,0,0,.0424.321c.109.18171.83585-.03634.90854-.26651a2.11276,2.11276,0,0,1,.81162-.5754c.03634,0,.11508-.07874.17565-.1696a2.37423,2.37423,0,0,1,.37553-.41187c.41793-.36341.66626-.64808.66626-.75711a2.32977,2.32977,0,0,1,.19382-.51484c.39975-.87217.27862-1.13262-.6178-1.35067C16.66258-.008,16.45665-.02615,16.31128.05259Z"/>
   <path class="a"
         d="M2.57421,4.69219c-.33919.03634-.40581.15748-.35736.62386a1.7681,1.7681,0,0,1,.01211.46638c-.01211.0424-.1393.109-.27861.14537a2.81054,2.81054,0,0,0-.957.46032.46516.46516,0,0,0-.08479.55724.81268.81268,0,0,1,.09691.3089c0,.16354.41793.35736.86614.39976.16959.01817.424.06056.55723.09085a4.10918,4.10918,0,0,0,.66626.0848,4.75509,4.75509,0,0,1,.69655.08479.98571.98571,0,0,0,.51483-.00605,2.55122,2.55122,0,0,1,.6057-.05452,6.55948,6.55948,0,0,0,.90853-.06057A5.73329,5.73329,0,0,1,6.5536,7.7267a1.60434,1.60434,0,0,0,.50272-.109c.24834-.09085.35736-.103.44216-.05451a.579.579,0,0,0,.315.03029c.1817-.03029.93276-.0848,1.73227-.1272a3.88067,3.88067,0,0,0,.51484-.05451c.06663-.02423.32707-.0848.57541-.13325a1.359,1.359,0,0,1,.89036.006c.3513.09086.46638.09691.60569.03635a1.942,1.942,0,0,1,.68443-.03029c.28468.01817.55118.03029.59358.02423a3.17521,3.17521,0,0,1,1.2235.1817,1.0238,1.0238,0,0,1,.27861.40581l.15143.33919-.20594.3089c-.41187.60569-.46638.86008-.25439,1.09024a.47842.47842,0,0,0,.30285.15748,1.25616,1.25616,0,0,0,.78134-.4361,2.23861,2.23861,0,0,1,.424-.44215.6249.6249,0,0,1,.25439-.15142.54409.54409,0,0,0,.424-.25439,1.21951,1.21951,0,0,1,.212-.30891A3.71459,3.71459,0,0,0,17.45,7.648a7.48543,7.48543,0,0,0,.56935-1.19927,1.024,1.024,0,0,1,.16354-.3089c.07268-.07268.06662-.12114-.03635-.3513-.19987-.4361-.26044-.4785-.64809-.50878a2.30887,2.30887,0,0,0-.59357.02422,1.07286,1.07286,0,0,1-.54512-.03634,5.919,5.919,0,0,0-.75712-.13931c-.24833-.02422-.55118-.06662-.67232-.08479a.5844.5844,0,0,0-.33313.01817c-.07873.0424-.19987.03028-.40581-.03634-.26045-.0848-.3089-.0848-.49061.00605a.9346.9346,0,0,1-.59358.0424,3.27712,3.27712,0,0,0-.62991-.01817c-.30891.03634-.80557.07268-.98122.07874a.59265.59265,0,0,0-.28468.09691.34611.34611,0,0,1-.315.04846.78208.78208,0,0,0-.23016-.03029,1.7948,1.7948,0,0,1-.6178.06663,3.38014,3.38014,0,0,0-1.40521.11508,1.56948,1.56948,0,0,1-.9691-.03028A4.377,4.377,0,0,0,6.0327,5.419a2.40246,2.40246,0,0,1-1.53845-.13326c-.1272-.08479-.24833-.13931-.27862-.12113s-.109-.01818-.17565-.0848a2.22232,2.22232,0,0,0-.424-.27862A1.534,1.534,0,0,0,2.57421,4.69219Z"/>
   <path class="a"
         d="M13.84612,10.0465a2.60974,2.60974,0,0,1-.46033.04845c-.37553.00606-.72683.14537-.77528.29679a.71016.71016,0,0,1-.61175.28467c-.09691-.00605-.45427-.03028-.7874-.06057a1.75142,1.75142,0,0,0-.81768.0424,1.26532,1.26532,0,0,1-.66626.0424,4.06659,4.06659,0,0,0-1.47183.13325,1.00736,1.00736,0,0,1-.48455.02423,5.49375,5.49375,0,0,0-1.97456.0848,4.09838,4.09838,0,0,1-1.13264.103c-.9691.02422-.99939.02422-1.278-.1272A1.28913,1.28913,0,0,0,2.974,10.7673a.45186.45186,0,0,1-.20593-.05451.27032.27032,0,0,0-.25439.04845.32675.32675,0,0,1-.36947.01817c-.54512-.2241-1.066-.20593-1.02968.02423.0848.49061.09086.47849-.1817.81768-.35131.44216-.49061.636-.745,1.00545-.212.30284-.218.321-.1272.49667.09691.1817.19382.27256.3089.27861a2.61638,2.61638,0,0,1,.38765.109,1.23908,1.23908,0,0,0,.45426.07268c.06663-.01817.527-.0424,1.01151-.05451.70866-.01817.91459-.0424,1.04179-.1272a.41692.41692,0,0,1,.35735-.06057,2.38144,2.38144,0,0,0,1.272-.05451.38014.38014,0,0,1,.28468-.06662,2.14941,2.14941,0,0,0,1.0963.06057A5.73572,5.73572,0,0,1,7.69835,13.19a1.94849,1.94849,0,0,1,.527.09691,1.78873,1.78873,0,0,0,1.22955-.103,1.56386,1.56386,0,0,1,.72683-.12719,12.79757,12.79757,0,0,1,1.54451.103.83058.83058,0,0,0,.29679-.06663,1.68626,1.68626,0,0,1,.84191-.02423,4.94987,4.94987,0,0,0,1.63536.01212.45561.45561,0,0,1,.43.01817.512.512,0,0,1,.20594.16353,4.23837,4.23837,0,0,1-.69049,1.24167c-.43.636-.4361.745-.07268.89642a.66627.66627,0,0,0,.69654-.02422.46933.46933,0,0,1,.23622-.09691c.09086.06056.56935-.16354.81769-.38159A7.70735,7.70735,0,0,0,17.553,13.3778a1.43521,1.43521,0,0,1,.17565-.24834.58237.58237,0,0,0,.08479-.17565,1.3686,1.3686,0,0,1,.27257-.37553c.29678-.3089.43609-.52089.41792-.64809a.91823.91823,0,0,1,.06056-.33313c.06663-.19987.06663-.24833-.02422-.39369a1.64847,1.64847,0,0,0-.54512-.50273,1.47588,1.47588,0,0,0-1.10236-.01817,2.878,2.878,0,0,1-1.50211.01817,1.86662,1.86662,0,0,1-.47244-.321.7384.7384,0,0,0-.38158-.218,1.16412,1.16412,0,0,1-.34525-.07874A.58631.58631,0,0,0,13.84612,10.0465Z"/>
   <path class="a"
         d="M11.25376,14.7406c.02423.1272.13325.13931.15748.00606a.077.077,0,0,0-.07874-.103.07266.07266,0,0,0-.07874.09694Z"/>

</g>
</svg>
