<?xml version="1.0" encoding="UTF-8"?>
<svg xmlns="http://www.w3.org/2000/svg"
     version="1.1"
     width="24.23726024mm"
     height="52.87928332mm"
     viewBox="0.00000000 0.00000000 68.70408624 149.89403527">

<g transform="scale(4.83169107)">   <defs>
      <style type="text/css"><![CDATA[
      .b {
        stroke: #000;
        stroke-miterlimit: 10;
        stroke-width: .15px;
      }
    ]]></style>
   </defs>
   <path class="b"
         d="m2.85805,11.21427c-.09021.12039-.21901.32159-.51064.70212-.20079.26199-.30118.39301-.38298.47873-.40671.42621-.64429.41806-.92554.76596-.10258.12689-.1275.19788-.31914.63831C.1547,15.09797-.00945,15.35569.11338,15.49089c.03856.04245.09996.0668.73404-.03192.59286-.09232.88931-.13849,1.14894-.22342.12187-.03986.23882-.08463,1.14893-.57446.78207-.42093.85844-.47546,1.14894-.60638.33797-.15231.54893-.22018,1.02127-.38297.41666-.14359,1.02621-.35745,1.78725-.63831-.08429.16092-.20264.38089-.35107.63831-.14026.24323-.42221.72958-.82979,1.3085-.36964.52505-.45258.57224-.73404,1.02127-.21518.34329-.24968.44806-.38298.67023-.4165.69412-.72707.75009-1.37233,1.46808-.71777.79868-.45808.8681-1.08511,1.46808-.30865.29535-.64772.54276-1.02127,1.08511-.39818.57812-.3119.73108-.28725.76596.08815.12466.28978.01392.63831.06381.13553.01941.34128.06998,1.18085.70215.45876.34543.68813.51816.76596.63828.02214.03418.47479.7576.12766,1.43619-.26433.51669-.81607.66278-1.0851.73404-.79559.21069-1.47441-.10928-1.6915-.22342.06384.23947.17509.62384.35107,1.08511.31804.83368.66951,1.452.47871,1.62766-.11214.10324-.32423-.02686-.41489.09576-.03859.05222-.05159.14536.12766.54254.16063.35596.24095.53394.38298.70212.10612.12567.15331.14581.70213.54257.56543.40878.60863.45483.63829.54254.12378.36597-.2473.69028-.09575.89362.10019.13443.34805.10764.44681.09576,1.79358-.21552,2.45737-.51062,2.45746-.51065,1.71172-.76099,3.98804-2.05841,4.40425-2.29788.28247-.16251.7151-.43298,1.3085-.92554.84436-.70084,1.68701-1.40027,1.53192-1.75531-.04494-.10287-.1891-.21216-.63829-.22339.19073-.17963.44554-.44421.70212-.79788.31445-.43344.61551-.84842.73404-1.40427.22786-1.0686-.35199-2.03378-.51064-2.29785-.2394-.39847-.36514-.43176-.79787-1.11703-.33556-.5314-.29877-.57291-.57446-1.02127-.47815-.77762-.7482-.91205-1.40427-1.81915-.17593-.24326-.41267-.58777-.67021-1.02127-.09854-.05859-.22626-.11334-.31915-.06384-.16876.08994-.05463.43439-.2234.54257-.13832.08865-.30275-.08643-.60637-.12766-.23148-.03143-.43407.0531-.82979.22339-.62724.26993-1.03224.44421-1.08511.76596-.02872.17468.07155.23975.12766.47873.06606.28137.03621.65607-.25531,1.14893.10313.19424.25687.48181.44681.8298.29265.53616.43898.80423.57446,1.02127.48573.77817.54396.62708.73404,1.05319.216.48422.17918.76538.51065,1.21277.11823.15958.21324.24573.31914.35104.68372.67993,1.299,1.63901,1.18086,1.75534-.07474.07358-.39027-.24191-1.18086-.63831-.64832-.32504-1.33488-.56351-1.40425-.44681-.04291.07217.19174.21054.38298.63831.09366.2095.16698.3735.12766.57446-.04991.25516-.26527.48755-.51064.54254-.22459.05032-.38528-.0679-.70213-.22339-.67444-.33096-.76152-.19528-1.14893-.41492-.67865-.38477-.95569-1.10971-1.11702-1.53189-.23167-.60626-.24838-1.11578-.25533-1.40427-.00728-.30243.00716-.8837.44681-2.23404.32109-.98621.50293-1.54468.89362-2.23404.47549-.83899.6881-.86212,2.10638-2.61703.4837-.59851.92586-1.17352,1.40425-1.88297.63632-.94366.92831-1.51944,1.05319-2.23404.0641-.36685.18683-1.12463-.2234-1.5-.07381-.06754-.21942-.13013-.51064-.25534-.51584-.22177-.77376-.33267-1.02127-.25531-.27374.08554-.23648.28284-.51065.35107-.33452.08325-.46773-.1911-.79787-.09576-.08675.02505-.22804.13373-.51064.35107-.21904.16846-.24376.20297-.31915.25531-.32649.22672-.70932.16757-.98936.15958-.51334-.01465-.88385.13687-1.56383.41489-.59015.2413-1.12819.4613-1.5.95746Z"/>
   <path class="b"
         d="m3.8155.07597c-.43266.58347-.84729.98453-1.14893,1.24469-.47388.40872-.80495.58707-1.05319,1.08511-.16382.32867-.21922.65143-.25533.86169-.06064.35318-.09773.58652,0,.86169.03764.10596.14049.39551.4149.54257.21422.11481.44159.09378.76595.06381.16483-.01523.19951-.03461.47873-.06381.30022-.0314.45152-.04614.51064,0,.20341.15884-.07599.61188.12767.79785.1532.13989.51688.07132.60637-.09573.07372-.1376-.07417-.27563,0-.41489.0623-.11697.23085-.14011.47873-.15958.83771-.06577.96086.03772,1.21277-.09576.22914-.12143.36478-.33292.47873-.51062.10083-.15723.17824-.27795.19148-.44681.01653-.21072-.0838-.28049-.2234-.63831-.07796-.19983-.18573-.48285-.19148-.82977-.00229-.13824-.00601-.36276.09573-.60638.20509-.49106.63808-.57928.60638-.79788-.01089-.07513-.07629-.16312-.60638-.35107-.70352-.24948-1.26857-.33575-1.37233-.35104-.28194-.04156-.66205-.08417-1.11703-.09576Z"/>

</g>
</svg>
