<?xml version="1.0" encoding="UTF-8"?>
<svg xmlns="http://www.w3.org/2000/svg"
     version="1.1"
     width="24.13183577mm"
     height="48.92824348mm"
     viewBox="0.00000000 0.00000000 68.40523248 138.69422231">

<g transform="scale(6.18091459)">   <defs>
      <style type="text/css"><![CDATA[
      .b {
        stroke: #000;
        stroke-miterlimit: 10;
        stroke-width: .15px;
      }
    ]]></style>
   </defs>
   <path class="b"
         d="M2.24714,1.70766c-.10559,1.00269-.03192,1.73926-.03192,1.73938,.13202,1.32031-.0354,.79724,.12762,3.65417,.09668,1.69482,.13153,1.4574,.20746,2.60107,.00812,.12231,.02319,.35852,.07977,.67029,.08228,.45361,.1759,.646,.23938,.92554,.07635,.33643,.04663,.65967-.01593,1.29248-.11835,1.19678-.31342,1.53503-.09576,1.73938,.18457,.17322,.37219-.02539,.92554,.11169,.43506,.10779,.44495,.26184,1.05316,.49475,.43585,.16699,.7533,.28357,1.0213,.14355,.22028-.11511,.31049-.35303,.367-.52661,.341-1.04736,.23938-2.1062,.23938-2.10632-.14795-1.54126,.09869-.76172-.09576-3.28723-.12714-1.65149-.1886-1.41333-.25531-2.55322-.10083-1.72314-.15125-2.58459-.04785-3.68616,.09381-.99915,.24286-1.55786-.12769-2.12231-.2392-.36438-.72229-.77295-1.19678-.71814-.34052,.03931-.3606,.28076-.79791,.39893-.57983,.15674-.8501-.18506-1.18085,0-.15875,.08875-.31604,.29028-.41486,1.22876h.00001Z"/>
   <path class="b"
         d="M1.64075,3.92568c-.30182,.03784-.53949,.14355-.63831,.19153-.10199,.04956-.33795,.17444-.57446,.41492-.20038,.20374-.37317,.37927-.35107,.60632,.00177,.01794,.01929,.17432,.14362,.28723,.16876,.1532,.42108,.12329,.54254,.11169,.40808-.03882,.81952,.07166,1.22876,.04797,.89716-.05188,.9101,.11389,2.42554,.14355,1.35242,.02649,2.79047,.08801,3.43085-.07971,.36389-.09534,.52814-.20801,.63824-.35107,.20947-.27222,.25092-.69055,.07983-.98938-.02869-.05005-.10999-.18811-.2713-.27136-.1955-.10095-.39606-.06348-.49469-.04785-.37305,.05896-.75543-.02771-1.13293-.01587-1.00537,.03162-.8017,.00085-1.57983,.03186-1.93359,.07703-1.89905,.21497-2.36169,.07983-.26019-.07605-.61127-.21912-1.08508-.15967h-.00002Z"/>
   <path class="b"
         d="M6.61945,15.87782c-.41534-.30957-.54437-.19177-.86169-.47864-.57855-.52295-.60211-1.32349-.60638-1.46814-.00928-.31555-.02509-.85242,.35107-1.22876,.34784-.34802,.83032-.35815,1.24469-.36694,.39569-.00842,.73737-.01562,1.02124,.2074,.31866,.25037,.24121,.53674,.62238,.86169,.2016,.17188,.28333,.14294,.62231,.31921,.11255,.05847,.71277,.37842,1.14893,.94141,.31006,.40027,.42133,.7738,.5426,1.18091,.07544,.25317,.16943,.63904,.23932,1.97864,.02014,.38623,.04126,.90869,.04791,1.53198-.19702,.19104-.39911,.38269-.60638,.57446-.62842,.58154-1.25311,1.11768-1.86707,1.61169-.09723-.10303-.23798-.26831-.367-.49463-.34662-.60779-.28448-1.08655-.383-2.32983-.06622-.83594-.10248-1.26147-.25531-1.62769-.10291-.24658-.34241-.80188-.89362-1.21276Z"/>
   <path class="b"
         d="M2.13544,14.66506c-.25256,1.05762-.36896,1.87305-.41492,2.21814,0,.00012-.138,1.03638-.14362,2.60107-.00061,.17627,.00061,.56201,.12769,1.03723,.06494,.2428,.13361,.49121,.31909,.76587,.23132,.34253,.5119,.52991,.70215,.6543,.3125,.20435,.58582,.29688,.65424,.31921,.34467,.11243,.63831,.1228,1.32452,.07971,.99304-.06238,1.48956-.09351,2.01062-.23938,.52502-.14697,.896-.32397,1.117-.43079,.15448-.07458,.76855-.37793,1.37238-.95752,.23114-.2218,.34106-.36926,.35101-.55847,.01514-.28784-.20959-.5127-.33508-.63831-.07721-.07727-.34888-.34912-.75-.38293-.15338-.01294-.23187,.01685-.89362,.25525-.66669,.24011-.74622,.26721-.89362,.25537-.17731-.01428-.36768-.12646-.75-.33508-.03735-.02039-.34119-.18652-.44348-.2605-.82269-.59521-.3501-3.72668-.05121-4.70227,.02728-.08911,.14203-.45044,.01599-.82983-.02563-.07715-.0885-.25891-.25537-.39893-.16541-.13867-.33051-.1637-.55847-.19153-1.25995-.15393-1.35571-.38745-1.67554-.25525-.15002,.06201-.40814,.22888-.82976,1.99464Z"/>

</g>
</svg>
