<?xml version="1.0" encoding="UTF-8"?>
<svg xmlns="http://www.w3.org/2000/svg"
     version="1.1"
     width="49.94901909mm"
     height="44.86396592mm"
     viewBox="0.00000000 0.00000000 141.58778282 127.17337905">

<g transform="scale(4.29680440)">   <defs>
      <style type="text/css"><![CDATA[
      .b {
        stroke: #000;
        stroke-miterlimit: 10;
        stroke-width: .15px;
      }
    ]]></style>
   </defs>
   <path class="b"
         d="M8.21537,4.12822c-.13068,.93677-.0639,1.66095-.04364,1.89142,.18896,2.14734,.11926,4.5777-.02014,9.43835-.06824,2.37903-.7561,8.50238-.51068,11.45746,.03333,.401,.1261,1.29565,.63831,1.5,.26251,.10474,.55798-.00269,.63831-.03192,.45929-.16705,.68976-.58307,.82977-.82977,.99554-1.75452,1.11353-1.46881,1.5-2.45746,.31873-.81525,.41785-1.46832,.51068-2.10638,.38458-2.6427-.24255-3.59717,.44678-5.55316,.15442-.43823,.2301-.51562,.383-1.0213,.41351-1.36749,.36749-2.47876,.35107-3-.0481-1.52924-.07104-5.29529,.06378-7.85107,.12042-2.28369,.38647-3.974-.4787-4.78723-.75006-.70502-1.5318-.70215-1.53192-.70215-.14093,.00055-.42438,.01874-.73401,.15961-.43011,.19568-.70636,.53497-1.0213,1.08508-.38635,.6748-.83606,1.48065-1.0213,2.80853Z"/>
   <path class="b"
         d="M17.11967,4.28777c-.94354,.3194-1.70026,.68427-2.29791,1.0213-1.0658,.60107-1.85229,1.05859-2.26593,1.9787-.08215,.1828-.53027,1.1795-.06384,1.75537,.25275,.31207,.66779,.36938,.76599,.38293,.58673,.08099,1.07013-.23621,1.30847-.38293,.80072-.49304,1.75439-.67883,2.617-1.05322,1.29419-.56171,2.34125-.79547,3.63831-1.08508,1.68616-.37646,3.10327-.69287,4.37238-.57446,.17053,.01593,.76471,.07941,1.56384,.03186,.58105-.03461,.89093-.05304,1.21271-.15955,1.15448-.38214,2.12256-1.78558,1.78729-2.5213-.03796-.08331-.16608-.31915-1.11707-.60638-.73419-.22174-2.25458-.68091-4.08508-.19147-.68982,.18445-.92847,.37122-1.78723,.51062-.67853,.11017-1.11304,.08826-1.56384,.09576-1.81744,.03021-3.28632,.52747-4.08508,.79785Z"/>
   <path class="b"
         d="M6.39622,12.6176c-.37421,.16864-.29193,.4776-.73401,1.05316-.52539,.68408-1.22559,1.008-1.46808,1.117-.58905,.26483-.70294,.13361-1.21277,.41492-.3999,.2207-.62482,.46423-1.0213,.89362-.54974,.59534-.85638,1.10724-1.24469,1.75531-.17969,.29993-.30371,.53168-.41486,.82977-.10541,.28265-.20776,.55713-.22345,.89362-.03003,.64355,.27435,1.14252,.47876,1.46814,.31299,.4986,.42438,.4101,.89362,1.02124,.57556,.74969,.62213,1.16187,.92554,1.18085,.23407,.01465,.43365-.21649,.79785-.63831,.3902-.45197,.44702-.71228,.76599-.82977,.1839-.06775,.32312-.03949,.60638,0,1.0285,.14331,1.54272,.21497,1.78723,.03192,.3717-.27832,.4057-1.09161,.06378-1.43616-.19733-.19885-.4176-.13855-1.18085-.19153-1.07556-.07471-1.70917-.11865-1.94678-.51062-.22449-.37024,.00415-.88641,.06384-1.02124,.16974-.38324,.45648-.58765,.98932-.95746,.56256-.39044,.55872-.27838,.95746-.57446,.65942-.48962,.68634-.80823,1.27661-1.11707,.31635-.16553,.58923-.22083,.76593-.25531,.9389-.18311,1.26044,.19965,2.07446,0,.17426-.04272,.52527-.13293,.86176-.41486,.09698-.0813,.81982-.70776,.70209-1.62769-.10706-.83618-.82434-1.25684-1.02124-1.37231-.18396-.10791-.67828-.39777-1.24469-.28723-.53143,.1037-.55005,.44745-1.11707,.57446-.58038,.13-.7782-.18146-1.18085,0Z"/>
   <path class="b"
         d="M19.50028,16.17455c-.66675,.79004-1.0528,2.27014-1.51892,3.6239-.65533,1.9032-.87689,1.83728-.89362,2.617-.02728,1.2724,.5451,2.2785,.73401,2.58508,.28546,.46326,.47821,.77612,.86169,1.0213,.78546,.50226,1.58118,.21564,3.25537,.03192,.9104-.09991,1.82977-.08411,2.74463-.12769,.97955-.04669,2.37415-.0957,4.08514-.0957,.14294,.46375,.13446,.82904,.09576,1.08508-.08209,.54297-.31635,.70038-.44684,1.37231-.08655,.44543-.15991,.82324,.06384,1.05322,.23834,.245,.7215,.22748,1.02124,.03192,.28265-.18439,.33777-.48505,.44684-.79791,.2536-.72717,.48199-.61139,1.78723-2.42548,.53174-.73901,.64911-.97406,.70215-1.08514,.23352-.48883,.52252-1.09381,.41486-1.85107-.02948-.20746-.1424-1.00122-.76593-1.43616-.31305-.21838-.63184-.26056-1.72339-.25531-1.52777,.00732-2.10626,.06384-2.10638,.06384-2.03894,.19916-3.6701,.44678-3.67023,.44678-1.96429,.29816-2.91486,.50659-3.20941,.04639-.03955-.06177-.05286-.21704-.07782-.52509-.07599-.93646-.11395-1.40466,.06384-1.85107,.02954-.0741,.21118-.33667,.57446-.86169,.49915-.72137,.54498-.7403,.63824-.95746,.09851-.22949,.34015-.79242,.12769-1.34039-.07135-.18396-.26129-.36981-.63831-.73407-.58685-.56696-.88562-.85004-1.14893-.82977-.17499,.01343-.37439,.19-.76593,.54254-.23438,.211-.50043,.47394-.65131,.65271Z"/>

</g>
</svg>
