<?xml version="1.0" encoding="UTF-8"?>
<svg xmlns="http://www.w3.org/2000/svg"
     version="1.1"
     width="26.35436406mm"
     height="19.46832921mm"
     viewBox="0.00000000 0.00000000 74.70522864 55.18584655">

<g transform="scale(5.40242178)">   <defs>
      <style type="text/css"><![CDATA[
      .b {
        stroke: #000;
        stroke-miterlimit: 10;
        stroke-width: .15px;
      }
    ]]></style>
   </defs>
   <path class="b"
         d="m6.94583.81231c-.56249.24245-.77777.40984-1.88298,1.11702-1.40839.90117-1.60959.98181-2.48936,1.59575-.61371.42827-.96706.70395-1.34042,1.05319-.64708.60527-.99644.94116-1.11702,1.5-.11383.52753.03199.99513.15958,1.40425.12529.40178.21765.69794.47872.89362.34785.26073.79176.19055,1.34043.09575,1.53564-.26537,2.5834-.45543,3.12766-.54256,1.34365-.21512,3.32421-.8658,3.70213-.60638.32158.22075.38015.76831.38298.79788.02197.2294-.02635.44171-.06383.60638-.09663.42458-.22232.51416-.15958.67021.06148.15291.24311.20831.60638.31914.346.10555.54306.16566.79787.12767.42994-.0641.56197-.33858.76596-.25533.2272.09273.17258.47777.38298.54256.15955.04913.3493-.12352.47872-.25533.50253-.51183.75248-1.07739.89362-1.40425.38699-.89624.58048-1.34435.6383-1.65958.09508-.51837.17915-.97672,0-1.5-.25952-.75803-.8998-1.15112-1.46809-1.5-.33181-.2037-.73404-.44479-1.30851-.51064-.35667-.04088-.61204.005-1.11702.09575-.5704.10249-.98655.24115-1.59575.44681-.56387.19035-.65329.24472-1.34042.47871-.80969.27573-1.24213.42131-1.2766.35107-.03629-.07396.38868-.34645.89362-.67021.86771-.55638,1.39782-.70305,1.62766-.76596.47385-.1297.71078-.19453.8617-.09575.47161.30872-.05728,1.438.51064,1.88298.16051.12576.38828.18062.57447.12766.33125-.09422.46496-.51596.57447-.82979.54733-1.56856,1.05466-2.0598,1.14894-3.28723.01502-.19557.02565-.48912-.15958-.70213-.1926-.2215-.50213-.24689-.79787-.25531-1.21788-.03471-2.21718.21776-2.3617.25531-.45531.1183-.89987.23381-1.46809.47873Z"/>

</g>
</svg>
