<?xml version="1.0" encoding="UTF-8"?>
<svg xmlns="http://www.w3.org/2000/svg"
     version="1.1"
     width="30.53023773mm"
     height="47.73617002mm"
     viewBox="0.00000000 0.00000000 86.54233496 135.31514672">

<g transform="scale(4.41199245)">   <defs>
      <style type="text/css"><![CDATA[
      .a {
        stroke: #000;
        stroke-miterlimit: 10;
        stroke-width: 0.15px;
      }
    ]]></style>
   </defs>
   <path class="a"
         d="M8.01511,1.67036C5.6764,2.801,3.95644,4.34421,3.97269,4.77518a1.091,1.091,0,0,0,.28258.588A11.78188,11.78188,0,0,0,5.39754,6.859a6.1117,6.1117,0,0,0,.78778.81138c.99679.35118,1.67343-1.72782,4-2.42553a8.07248,8.07248,0,0,0,2.21277-.7234c.67477-.38,1.09518-.79916,1.166-.72983.1224.11986-1.02356,1.48081-1.12321,1.59868-1.256,1.48575-1.73337,1.66623-2.201,2.59842a6.56089,6.56089,0,0,0-.54477,1.53148c-.05684.29707-.03878.34706-.10554.61827-.2061.8373-.53612,1.00226-.51064,1.36169.02337.32967.32125.477,1.23019,1.08083l2.31677,1.72528a2.57706,2.57706,0,0,1,1.027,1.15773,2.0664,2.0664,0,0,1-.07633,1.33019c-.33242.93891-3.57816,8.18238-10.95658,10.818-.66181.23639-2.58557.87462-2.54434,1.57567.02458.4179.74332.78788,1.12989.98689a3.83015,3.83015,0,0,0,1.31121.4016,6.14783,6.14783,0,0,0,2.79987-.59008,13.14014,13.14014,0,0,0,2.583-1.236,12.88118,12.88118,0,0,0,1.73255-1.33514c3.00981-2.67659,3.25946-4.08759,5.217-5.35619a7.26576,7.26576,0,0,0,2.56338-2.70006c1.60483-2.82257,2.40724-4.23385,2.03969-5.83012a5.80272,5.80272,0,0,0-1.94771-2.87959c-.86665-.80068-1.34083-1.23876-2.0851-1.31916-.37108-.04008-.82125.007-.98135-.26237-.13938-.23453.02167-.5774.13029-.80146a2.88389,2.88389,0,0,1,.85106-1.02127,5.40486,5.40486,0,0,0,1.65522-2.75174,3.78359,3.78359,0,0,0-.275-2.83366C15.55418-.35763,12.12067.10532,11.74478.156A14.68213,14.68213,0,0,0,8.01511,1.67036Z"/>

</g>
</svg>
