<?xml version="1.0" encoding="UTF-8"?>
<svg xmlns="http://www.w3.org/2000/svg"
     version="1.1"
     width="8.53850502mm"
     height="55.31237663mm"
     viewBox="0.00000000 0.00000000 24.20369661 156.79101549">

<g transform="scale(5.28493839)">   <defs>
      <style type="text/css"><![CDATA[
      .a {
        stroke: #000;
        stroke-miterlimit: 2.61313;
        stroke-width: 0.28346px;
      }
    ]]></style>
   </defs>
   <path class="a"
         d="M2.05225,29.51709c1.43652-1.13086,2.24414-2.35352,1.51074-3.79687a69.26728,69.26728,0,0,1,.46484-7.76758C4.17334,11.70654,5.19678,4.73584,3.33057.14209H2.6333L1.23877,1.83545H.77393c-.01953.19531-.03809.38867-.05859.584C.5415,2.57373.3667,2.73.19287,2.88623c.13574.17578.27148.34961.40625.52539.57715,3.748-.09082,9.00391.34961,12.26367C.272,20.30029-.28271,24.87646.59912,28.87451a2.48452,2.48452,0,0,0,1.45313.64258Z"/>

</g>
</svg>
