<?xml version="1.0" encoding="UTF-8"?>
<svg xmlns="http://www.w3.org/2000/svg"
     version="1.1"
     width="39.77584277mm"
     height="34.63307638mm"
     viewBox="0.00000000 0.00000000 112.75047197 98.17247968">

<g transform="scale(4.77539523)">   <defs>
      <style type="text/css"><![CDATA[
      .b {
        stroke: #000;
        stroke-miterlimit: 10;
        stroke-width: .15px;
      }
    ]]></style>
   </defs>
   <path class="b"
         d="m10.84896.69022c-.32483.79376-1.01926,1.38419-1.44681,2.12769-.82483,1.43436-1.50433,1.54459-3.70212,4.25531-1.25812,1.55176-1.25925,1.79169-2.383,3.02127-.48148.52682-.90637.94794-1.65958,1.8298-.86227,1.00958-1.50171,1.85837-1.57446,2.93616-.009.13327-.04562.67575.17023.76596.20612.08615.43353-.32745,1.10638-.76596.58554-.38162,1.12399-.53156,1.36169-.59573.66852-.18051.70059-.02582,1.27658-.17023.51459-.129.96716-.42642,1.87234-1.02127.70673-.46445.86597-.62753,1.31915-.76596.39087-.11938.85239-.26035,1.1915-.04254.5452.35016.2287,1.27734.68085,1.48935.37549.17606.68332-.42136,1.44681-.38297.51755.02603.52521.30804,1.14893.38297.66901.08035,1.23303-.17526,1.40427-.25531.51138-.23904.46869-.41251.89362-.55319.28238-.09348.44156-.06332,1.31915,0,1.04272.07526.7858.03036,1.40424.08508,1.10141.09741,1.27573.18311,1.48938.04257.35672-.23462.35776-.79379.34042-1.61703-.08319-3.95374-.38895-4.44714-.76596-4.59573-.10507-.04141-.28284-.05597-.63831-.08511-.58664-.04807-.68707.02539-1.31915,0-.61093-.02454-.69189-.10016-.85104,0-.40695.25613-.29532,1.01379-.42554,1.02127-.10797.0062-.11026-.5191-.46808-1.06381-.05963-.09079-.30548-.45053-.76596-.72342-.2998-.17767-.59454-.35233-.97873-.29785-.40283.05713-.80219.35178-.93616.72339-.0878.24353-.02295.41287-.12769.46808-.16733.08823-.41696-.29977-.76593-.46808-.888-.42828-2.14728.69727-2.25534.55319-.08423-.11227.68991-.78299,1.48938-1.617.8996-.93845,1.43719-1.67261,1.95743-2.383.54129-.73917,1.69537-2.31512,1.36172-2.68085-.13034-.14285-.35922.03976-1.06384-.12766-.29257-.06952-.4158-.13965-.59573-.08511-.31522.09555-.4588.46899-.51065.59573Z"/>
   <path class="b"
         d="m20.16811,5.45618c-.41217.91348-.79211,1.63559-1.06384,2.12766-.52957.95898-.73776,1.2066-1.10638,2-.31638.68094-.56674,1.21982-.72339,2-.07751.38602-.25708,1.32559-.04257,2.46811.10068.53632.15067.38477.51065,1.65958.3468,1.22815.3046,1.38358.55319,1.70212.51675.66211,1.04446.43298,1.44681,1.02127.56897.83191-.0329,1.953.21277,2.04254.21402.078.91904-.68234.85107-1.44681-.04419-.49722-.38055-.60437-.34042-1.10635.03305-.41342.27267-.48398.34042-1.0213.05649-.44788-.06647-.74393,0-.76596.02847-.00943.10489.02695.51062.85107.35999.7312.53998,1.09683.63831,1.44681.18765.66788.15097,1.0824.29788,1.10638.16772.02737.38016-.48608.42551-.59573.30734-.74289.25217-1.35562.25534-2.383.0007-.22739.00272-.87469.04254-1.44681.0777-1.11594.27811-1.64163.42554-2.42554.21161-1.12512.14108-2.05505,0-3.91489-.12201-1.60843-.35382-2.8912-.59573-2.89362-.14844-.00146-.23242.47974-.42554.46808-.20108-.01215-.16922-.53732-.55319-.76596-.14355-.08548-.24631-.07062-.76596-.08508-.38083-.01062-.69034-.02878-.89362-.04257Z"/>

</g>
</svg>
