<?xml version="1.0" encoding="UTF-8"?>
<svg xmlns="http://www.w3.org/2000/svg"
     version="1.1"
     width="19.03599146mm"
     height="47.02003774mm"
     viewBox="0.00000000 0.00000000 53.96029486 133.28513222">

<g transform="scale(5.79267105)">   <defs>
      <style type="text/css"><![CDATA[
      .a {
        fill: #000;
        stroke: #000;
        stroke-miterlimit: 2.61313;
        stroke-width: 0.28346px;
      }
    ]]></style>
   </defs>
   <path class="a"
         d="M5.33105,2.71338C6.53027,1.75244,7.707,1.022,8.73633,1.91455A1.902,1.902,0,0,1,8.751,4.311a26.21763,26.21763,0,0,0-.30273,5.75391,19.27266,19.27266,0,0,1-.61914,5.64648Q6.95752,18.855,6.08691,21.99854q-1.27,1.49121-2.07422.42578c-.13379-.48047-.26758-.959-.40137-1.43945-.43066-.71289.08691-1.80664.415-2.82227.2168-1.377.43652-2.97461.65625-4.63477A19.41958,19.41958,0,0,0,4.97363,8.52a21.34665,21.34665,0,0,1,.2041-2.82422,10.56375,10.56375,0,0,1,.15332-2.98242Z"/>
   <path class="a"
         d="M4.78125,3.938c2.248-.79883,3.69141-1.59766,3.96-2.39648C8.77637.104,7.15723-.44678,5.51758.95557,3.93164,1.51025,2.66211,3.06494,1.47949,4.897a32.39262,32.39262,0,0,0-.68457,6.44727,5.34755,5.34755,0,0,0-.4707,2.92969q-.08936.6123-.17773,1.22461.43506.93164,1.11035.16016h.84766A21.28276,21.28276,0,0,0,3.2666,9.21338c.39453-1.91016.67773-3.97266,1.51465-5.27539Z"/>

</g>
</svg>
