<?xml version="1.0" encoding="UTF-8"?>
<svg xmlns="http://www.w3.org/2000/svg"
     version="1.1"
     width="22.41942084mm"
     height="24.06383903mm"
     viewBox="0.00000000 0.00000000 63.55110188 68.21238145">

<g transform="scale(5.58584936)">   <defs>
      <style type="text/css"><![CDATA[
      .b {
        stroke: #000;
        stroke-miterlimit: 10;
        stroke-width: .15px;
      }
    ]]></style>
   </defs>
   <path class="b"
         d="m3.36501.82533c-.35274.96034-.3073.80387-.3617.97873-.08038.25837-.17858.5968-.2766,1,.13431-.01441.26907-.0286.40426-.04255.21373-.02206.4265-.04333.6383-.06383.02344-.15265.07622-.38778.21276-.6383.30868-.56635.70563-.58796.78724-.97872.08444-.40431-.22369-.94053-.59575-1-.21581-.0345-.40591.09895-.44681.12766-.18372.12896-.24661.30369-.3617.61702Z"/>
   <path class="b"
         d="m1.83309,3.46363c-.35896.57843-.44679,1.08501-.44681,1.08511-.05514.31803-.0261-.04515-.48936,1.46809-.16534.5401-.36522,1.22717-.57446,2.08511-.29642,1.21542-.29008,1.45524-.17021,1.70213.17186.35396.55305.67292.76595.85107.19861.16619.17833.11702.55319.40426.50935.39029.5921.51579.87234.6383.17741.07755.1758.04105.65958.14893.86562.19304.98544.33549,1.34042.2766.1097-.0182.51216-.08498.70213-.40426.28571-.48019-.07819-1.24752-.42554-1.31915-.09737-.02008-.14432.02464-.34042,0-.04906-.00616-.24005-.03333-.44681-.14893-.15257-.08531-.23356-.17396-.42553-.38298-.49822-.54247-.4624-.50029-.48936-.53192-.44878-.52655-.67317-.78983-.7234-.89362-.15887-.32826-.11517-.6843-.02128-1.38298.11412-.84922.18367-1.36681.51064-1.95745.31359-.56646.6853-.87741.55319-1.17021-.06897-.15285-.26583-.2799-.42554-.38298-.15113-.09754-.26873-.14119-.40425-.19149-.25842-.09592-.33988-.0789-.38298-.06383-.10575.03697-.16432.12643-.19149.17021Z"/>
   <path class="b"
         d="m6.00331,2.35725c-.05051.00064-.09901.23392-.12766.53191-.06454.67138.05197.8361-.10508,1.06154-.12662.18176-.27528.17938-.34173.38527-.04458.13812-.01709.26132.02127.40425.11846.44139.1777.66209.34043.95745.29149.52903.42739.47957.53191.80851.10719.3373.04154.63242-.02128.91489-.1195.53729-.38598.95096-.59575,1.2766-.14314.22221-.26468.37611-.40425.68085-.0847.18493-.15789.34786-.19149.57447-.05019.33852.05384.37492,0,.65958-.06345.33549-.22012.34929-.25532.65957-.00549.04842-.05013.48816.19149.61702.1172.06251.28658.04378.38298-.04255.08329-.07459.08389-.17438.10638-.2766.07899-.35903.39191-.58363.46809-.6383.34803-.24979.8642-.26688.95745-.10638.03926.06757-.02312.12067,0,.29787.00518.03973.03562.27305.14893.34042.1966.1169.65153-.26051.93617-.57447.24836-.27395.38755-.52216.61702-.97872.59745-1.1887.74837-1.68359,1.25532-2.46808.11514-.17818.21477-.31886.2766-.40425-.046-.17445-.10918-.43074-.17021-.74468-.14159-.72829-.094-.853-.06383-.91489.17321-.35529.68067-.50358.78723-.53191.21761-.05786.29349-.02234.38298-.10638.16563-.15555.07392-.4352.02128-.89362-.0107-.0932-.08055-.72869,0-1.3617.0748-.58786.24169-.87801.08511-1.02128-.10175-.09309-.26356-.05418-.44681-.02127-.01782.0032-.58635.02341-1.72341.06383-.38006.01351-.65762.00901-1.21276,0-.48015-.00779-.90938-.02401-1.2766-.04255-.01077.0642-.02281.16018-.02128.2766.00259.19732.04265.33825.06383.42553.03716.15311.07375.37809.06384.68085-.12528.04436-.2949.08026-.42554,0-.21283-.13075-.19256-.49015-.25532-.48936Z"/>

</g>
</svg>
