<?xml version="1.0" encoding="UTF-8"?>
<svg xmlns="http://www.w3.org/2000/svg"
     version="1.1"
     width="65.74651913mm"
     height="38.63383235mm"
     viewBox="0.00000000 0.00000000 186.36813000 109.51316662">

<g transform="scale(4.13569829)">   <defs>
      <style type="text/css"><![CDATA[
      .b {
        stroke: #000;
        stroke-miterlimit: 10;
        stroke-width: .15px;
      }
    ]]></style>
   </defs>
   <path class="b"
         d="m28.7436,3.39431c-.46012.77848-.98817,1.9493-1.21277,2.39362-.2083.41207-.54312.83854-1.21276,1.69149-.48633.61945-1.22384,1.55885-2.23404,2.52128-.81473.7762-1.55424,1.29398-3,2.29787-1.37289.95329-2.40458,1.58705-3.67021,2.3617-3.01315,1.84424-3.92656,2.20643-4.34043,2.3617-.23323.0875-.80442.28174-1.94681.67021-1.58272.53822-2.27861.75867-2.71276.89362-1.54853.48132-2.08282.59454-2.29787.6383-.84334.1716-.84718.10325-1.43617.25532-.95298.24605-1.6292.60218-2.23404.92553-.69572.37193-1.07141.57278-1.5.98936-.42803.41605-.69759.84196-.8617,1.14893.09129.19115.24078.45789.47872.73405.15095.17519.56326.64269,1.24468.89362.15339.05648.46073.15366,1.24468.15958,1.00688.0076,1.76804-.14314,1.85106-.15958,3.04164-.60195,1.86912-.22807,5.10638-.95745,1.76594-.39788,1.52023-.37517,2.45745-.57446,2.27343-.48343,3.63254-.59865,5.26596-.82979,2.27751-.32228,1.9227-.42197,5.96808-1.18085,5.87817-1.10269,5.36136-.65472,8.26596-1.34042.97009-.22901,1.98715-.33353,4.02127-.54255,1.12214-.11531,1.98319-.17293,2.07447.09574.05805.17088-.21527.41486-.67021.76596-1.52261,1.17508-2.71268,1.75527-2.71276,1.75532-1.73588.8463-1.78315.71268-3.19149,1.43617-1.11927.57499-1.2449.73926-2.04255,1.08511-1.10756.48022-2.08669.69306-2.74468.79787-.05198.09695-.11602.23742-.15957.41489-.05404.22022-.12657.51575,0,.73405.05418.09344.13099.14886.79787.35106.71426.21657.86017.22395.95745.2234.35519-.00197.61971-.11257.73404-.15957,1.74013-.71531,3.53696-1.28431,5.29787-1.94681,2.11461-.79557,2.18396-.60143,3.35106-1.21277,1.03829-.54387,1.94539-1.20143,2.48936-1.59575,1.10354-.79995.9299-.80473,2.07447-1.62766.79621-.57246,1.2796-.85728,1.91489-1.53191.70917-.75307.82948-1.16554.82979-1.5.00047-.50736-.27511-.91216-.38298-1.05319-.17633-.23055-.23918-.1939-1.02128-.79787-.4411-.34064-.48821-.40412-.70213-.51064-.14825-.07381-.43312-.19643-.92553-.25533-.74783-.08944-1.34391.0435-1.43617.06384-1.66758.36754-3.39534.39157-5.07447.70213-3.41156.63097-2.86229.37195-6.76596,1.08511-1.53525.28047-2.89623.531-4.7234.95745-1.28091.29896-1.69088.42709-2.87234.70213-1.78542.41563-3.37135.71147-4.69149.92553.4024-.19375,1.01379-.49072,1.75532-.8617,1.9595-.98032,2.96154-1.48511,4.05319-2.20213.17086-.11223.96799-.63919,1.94681-1.43617.90063-.73332,1.02555-.93839,3.44681-3.2234.17891-.16885.64301-.60635,1.24468-1.21277.45227-.45585.67841-.68377.8617-.89362.39796-.45562.99336-1.14781,1.43617-2.17021.16493-.38081.36154-.92945.47872-1.62766.1292.20047.31532.48714.54255.82978.94584,1.42618,1.15801,1.64137,1.43617,1.81915.22022.14075.8863.56645,1.46808.31915.58152-.24719.75395-1.02867.82979-1.37234.06948-.3149.01733-.3378.06383-1.34042.04214-.90861.08441-.87752.06383-1.14894-.03667-.48367-.24785-.89692-.67021-1.7234-.24635-.48207-.53658-.89584-1.11702-1.7234-.12776-.18215-.29855-.4192-.60638-.54255-.22345-.08953-.39688-.07018-.79787-.03191-1.34287.12813-1.37442.09966-1.7234.19149-.36837.09692-.61058.16297-.89362.35106-.26007.17282-.63377.42115-.70213.8617-.07704.49655.28758.89086.35106.95745-.16969.05945-.42235.17049-.67021.38297-.24945.21385-.38381.43597-.44681.54256Z"/>
   <path class="b"
         d="m18.97764,4.38368c-.73668.77096-1.34114,1.63154-1.7234,2.1383-.55079.73019-1.05868,1.26338-2.07447,2.32978-.36732.38563-.70602.72684-1.14894,1.11703-.36084.31788-.6339.52999-1.02127.82979-.88557.68536-1.3425,1.03898-2.01064,1.46808-.41.26331-.78585.57638-1.18085.8617-.27184.19635-.49426.35555-.57447.6383-.03561.12553-.00237.13152-.06383.6383-.02609.21514-.03985.2781,0,.31915.13573.13984.68537-.18866.79787-.25532.92945-.5507,1.97376-.8815,2.93617-1.37234,1.55559-.79337,1.42552-.51262,2.84042-1.24468,1.22314-.63285,2.14355-1.26859,2.71277-1.69148.80598-.5988,1.53164-1.13792,2.32978-2.04256.67998-.77071,1.19466-1.55972,1.94681-2.71277.25843-.39618.46584-.72874.60638-.95744-.01869-.12646-.05424-.30553-.12766-.51064-.10793-.30152-.30978-.86547-.73404-.98936-.14277-.04169-.30989.00356-.6383.09574-.44188.12404-.59612.22137-1.02127.38298-.70753.26895-.80179.19761-1.18085.41489-.31525.1807-.51879.38409-.67022.54256Z"/>
   <path class="b"
         d="m6.78615,5.27729c-.21135.50424-.2935,1.08309-.22341,1.78723.06541.6571.23602,1.14837.44681,1.75532.12971.37347.25647.6787.35106.89362.01225-.05864.08-.35385.35106-.51064.26455-.15302.54265-.06999.67021-.03191.18531.05532.33611.15337.60638.41489.54715.52943.47111.65201.79787.89362.32565.24078.65213.30459,1.05319.38298.33802.06606.52008.09891.70213,0,.20039-.10886.18675-.26108.44681-.41489.22939-.13567.32145-.06541.44681-.19149.1295-.13024.07957-.25381.15958-.60638.03932-.17328.10487-.46217.28723-.73404.19772-.29478.35756-.30834.41489-.54256.0365-.14911.00785-.29126-.06383-.47872-.20925-.54722-.57035-.91853-.6383-.98936-.05531-.05766-.38794-.60226-1.05319-1.69149-.27081-.44341-.59484-.98051-.95745-1.59574-.11574-.00002-.28468.01046-.47872.06383-.27494.07561-.30146.15516-.51064.2234-.41494.13537-.55598-.09756-.98936.03192-.09726.02906-.31242.09623-.47873.28723-.12624.14498-.17098.32203-.25532.67021-.10207.4214-.0752.52016-.19149.70213-.09375.14671-.29043.36294-.41489.31915-.2334-.08211-.04191-1.01845-.19149-1.05319-.10122-.02351-.27481.38526-.28723.41489Z"/>

</g>
</svg>
