<?xml version="1.0" encoding="UTF-8"?>
<svg xmlns="http://www.w3.org/2000/svg"
     version="1.1"
     width="17.95745404mm"
     height="35.53965884mm"
     viewBox="0.00000000 0.00000000 50.90292308 100.74236968">

<g transform="scale(5.79267105)">   <defs>
      <style type="text/css"><![CDATA[
      .b {
        fill-rule: evenodd;
        stroke: #000;
        stroke-miterlimit: 10;
        stroke-width: .15px;
      }
    ]]></style>
   </defs>
   <path class="b"
         d="M1.45724,2.84536c.1269-1.16451,1.2695-1.56351,3.4287-1.1968,.3018,1.1646,.6035,2.3291,.9053,3.4937,.7617,2.6089-.2227,4.2519-2.001,5.456-.207,.8614-.43159,1.7232-.3809,2.585,.9209,1.8345,.4444,2.7915-.666,3.34959-.0634,.20751-.1279,.41511-.1904,.62261-.6992,.498-1.2861-.2373-1.8574-1.149-.794-1.1484-.8262-2.2968-.0957-3.4458,.2695-1.7231,.7617-3.44581,2.04781-5.1689,.01559-.8135-.15921-1.69091-.52341-2.6323-.7012-.4781-.7315-1.1802-.667-1.9141h0Z"/>
   <path class="b"
         d="M3.21894,.88296c-.039,.8057,.5156,1.4116,2.3809,1.5791,1.5322,.0806,2.707-.3989,3.0957-2.1059-.46-.0474-.92089-.03131-1.38089,.0478-.65231-.7353-2.40621-.0874-4.09571,.479h0Z"/>
   <path class="b"
         d="M4.07634,9.88056c-.9043-.1436-1.1748-.606-.8095-1.38771,1.8271-1.78709,2.874-2.03229,3.8095-1.771,1.07131,1.37351-.7568,2.29781-3,3.15871h0Z"/>

</g>
</svg>
