<?xml version="1.0" encoding="UTF-8"?>
<svg xmlns="http://www.w3.org/2000/svg"
     version="1.1"
     width="37.77040588mm"
     height="54.59338380mm"
     viewBox="0.00000000 0.00000000 107.06574449 154.75292769">

<g transform="scale(7.15305244)">   <defs>
      <style type="text/css"><![CDATA[
      .a {
        stroke: #000;
        stroke-miterlimit: 10;
        stroke-width: 0.15px;
      }
    ]]></style>
   </defs>
   <path class="a"
         d="M12.78013,7.913c-.25757-.021-.4078.09737-.51972.00975-.1038-.08126-.0835-.26833-.06948-.38429a1.90539,1.90539,0,0,1,.46154-.934c.34948-.46651.52421-.69976.673-.76593.43522-.19365.7214.08968,1.07915-.1557a1.06025,1.06025,0,0,0,.35429-.51454,1.05126,1.05126,0,0,0,.08254-.80639.85545.85545,0,0,0-.45936-.47467,1.96657,1.96657,0,0,0-.6858-.06581l-1.36154.03a2.93023,2.93023,0,0,0,.13592-1.06591c-.04292-.35527-.28-.68868-1.04727-1.27516A5.44618,5.44618,0,0,0,8.8546.12571,4.72578,4.72578,0,0,0,6.36524.47678a1.45884,1.45884,0,0,0-.766.51064,1.30729,1.30729,0,0,0-.2234.6383c-.06213.59864.26031.86755.36956,1.80715a.85581.85581,0,0,1-.02072.41374c-.12893.41435-.662.526-1.09545.505a1.91731,1.91731,0,0,0-1.12592.12145c-.25258.15845-.42455.387-.7065.54C2.021,5.43414,1.23051,5.82876.45074,6.24252a.81739.81739,0,0,0-.28029.20237.59666.59666,0,0,0-.065.52247,1.48232,1.48232,0,0,0,1.46894.93344,4.71055,4.71055,0,0,0,1.80082-.46631c1.24441-.456.98211-.16837,4.49006-.73431.17281-.02788.57583-.09349.76869.12664a.61854.61854,0,0,1,.0611.60741c-.09778.23849-.25273.17568-.61562.567-.14812.15971-.20263.26129-.34757.29231a2.39037,2.39037,0,0,1-.37094-.01373.87662.87662,0,0,0-.4203.18245,14.10431,14.10431,0,0,0-2.30224,1.77128,4.73318,4.73318,0,0,0-1.37792,2.51029c-.226,1.42321.42346,2.93065-.04292,4.29414-.05945.17378-.1302.38543-.00958.524a.38679.38679,0,0,0,.1865.10551,1.464,1.464,0,0,0,1.16466-.24964c.3462-.21874.64453-.50774.9953-.71906a2.11452,2.11452,0,0,0,.617-.4362c.38749-.49247.05039-1.19394-.046-1.81313a4.10373,4.10373,0,0,1,.09966-1.42084,6.96213,6.96213,0,0,1,.54385-1.7773A8.07394,8.07394,0,0,1,9.88117,8.36186a.36646.36646,0,0,1,.16532-.07059c.18132-.01276.26691.25112.1743.40752a1.03376,1.03376,0,0,1-.43395.31777,2.5541,2.5541,0,0,0-1.12076,1.47322,7.58883,7.58883,0,0,0-.28288,1.869l-.31678,4.73246a4.64672,4.64672,0,0,1-.26919,1.50338,1.57376,1.57376,0,0,1-1.09508.98353c-.90981.16426-1.66672-.749-2.58121-.88491a3.19413,3.19413,0,0,0-1.10364.095c-.1605.033-.34791.08871-.39883.24444-.06316.19317.1305.36665.30032.47829l2.4426,1.60583a2.94127,2.94127,0,0,0,.65579.35544,2.05825,2.05825,0,0,0,.93535.06126c1.42311-.1931,3.4551-2.03218,4.056-2.58985a5.774,5.774,0,0,0,1.01171-1.122,5.4149,5.4149,0,0,0,.75284-1.9028c.93118-4.11286.4855-4.59731.74113-6.6975.02507-.206.10193-.79754-.22341-1.08511A.97294.97294,0,0,0,12.78013,7.913Z"/>

</g>
</svg>
