<?xml version="1.0" encoding="UTF-8"?>
<svg xmlns="http://www.w3.org/2000/svg"
     version="1.1"
     width="18.76607634mm"
     height="65.56869802mm"
     viewBox="0.00000000 0.00000000 53.19512461 185.86404294">

<g transform="scale(5.28493839)">   <defs>
      <style type="text/css"><![CDATA[
      .a {
        stroke: #000;
        stroke-miterlimit: 2.61313;
        stroke-width: 0.28346px;
      }
    ]]></style>
   </defs>
   <path class="a"
         d="M3.187,35.02539c-.76367-.67187-.3291-2.06836-.13477-3.32227.28027-2.23633.50488-4.47461.60645-6.71094a12.59883,12.59883,0,0,1-.06738-3.79687c-.34082-5.4707-.83789-10.93945-3.1709-16.4082a2.17623,2.17623,0,0,1,.60742-2.78125Q1.501,1.3291,1.97217.65039,3.01807.41309,4.064,4.24414c2.3252,4.1582,2.668,10.44141,2.29395,17.49219-.127,4.0918.03711,8.53516-1.957,10.375C4.064,33.69727,3.70361,35.07617,3.187,35.02539Z"/>
   <path class="a"
         d="M4.26611,3.83789Q2.5127,5.02441.7583,6.21094q-1.147-.74707.6748-2.57617Q2.54639,2.24316,3.65869.85352A6.74125,6.74125,0,0,1,9.2583.65039q1.58643,4.03418-.60645,5.627-.84375.94922-1.417-.26953C6.24463,3.582,5.25537,3.53906,4.26611,3.83789Z"/>
   <path class="a"
         d="M2.37744,15.83789c.49023-1.03711,2.24609-2.71094,4.18262-4.47461q.84229-1.22168,1.14648.27148c.43262.83594-.874,1.83008-2.42871,2.84766q-1.4502,2.0332-2.90039,1.35547Z"/>

</g>
</svg>
