<?xml version="1.0" encoding="UTF-8"?>
<svg xmlns="http://www.w3.org/2000/svg"
     version="1.1"
     width="13.00868141mm"
     height="33.47908407mm"
     viewBox="0.00000000 0.00000000 36.87506843 94.90138119">

<g transform="scale(5.30581105)">   <defs>
      <style type="text/css"><![CDATA[
      .b {
        stroke: #000;
        stroke-miterlimit: 10;
        stroke-width: .15px;
      }
    ]]></style>
   </defs>
   <path class="b"
         d="m3.58701.12716c.22385.02609.38232.05756.57446.09573.50702.10071.84802.2106,1.18085.31915.45135.14719.50815.19254.54254.22342.29926.26874.31195.7081.31915.95743.00882.30551-.04996.52197-.15958.92554-.12375.45563-.27954.83139-.31915.92554-.20148.479-.29532.56421-.31915.82977-.02603.2897.0564.51425.12769.70215.38263,1.00848.63608,1.53455.82977,2.07446.0481.13403.22299.63269.35107,1.3085.03647.19241.15372.84546.15958,1.72342.0025.37402.0036.85489-.09576,1.46808-.15594.96228-.46967,1.69727-.6702,2.10638-.38843.79242-.8085,1.29309-1.27661,1.85104-.03467.04132-.75699.89597-1.46808,1.43619-.25809.19608-.27786.17078-.54254.38297-.29233.23434-.40939.37836-.57449.35107-.11481-.01898-.21985-.11533-.25531-.22342-.04599-.14017.02444-.30182.35107-.70212.34778-.42621.43143-.44339.57446-.63831.13754-.18744.20706-.37177.35107-1.27658.11279-.7088.16919-1.0632.19147-1.40427.03348-.51291.07584-1.23404-.09573-2.13828-.10855-.57205-.16281-.85809-.35107-1.21277-.31335-.59036-.61603-.67218-.92551-1.34042-.14377-.31046-.20178-.55911-.28726-.92554-.09448-.40497-.19641-.85709-.15955-1.43619.01895-.29782.06631-.49854.15955-.89362.1662-.70444.24933-1.05664.44681-1.34042.17212-.24731.34991-.38651.31915-.60638-.03073-.21979-.24539-.34543-.25531-.35104-.16757-.09488-.32095-.05173-.6702,0-.48483.07181-.72726.1077-.89365.06381-.31369-.08273-.6456-.3584-.6702-.6702-.01303-.16519.06439-.28693.38297-.67023.7059-.8493,1.16458-1.26074,1.40427-1.46808.38254-.33087.4837-.38086.57446-.41489.33734-.1265.67606-.08701,1.14896-.03192Z"/>

</g>
</svg>
