<?xml version="1.0" encoding="UTF-8"?>
<svg xmlns="http://www.w3.org/2000/svg"
     version="1.1"
     width="92.16098291mm"
     height="58.57047900mm"
     viewBox="0.00000000 0.00000000 261.24377455 166.02654571">

<g transform="scale(4.93030365)">   <defs>
      <style type="text/css"><![CDATA[
      .b {
        stroke: #000;
        stroke-miterlimit: 10;
        stroke-width: .15px;
      }
    ]]></style>
   </defs>
   <path class="b"
         d="m48.60605,5.19444c.30954.13385.24449.31726.65469.61142.18192.13046.30678.17474.31636.28806.01125.13297-.14565.24615-.2234.30319-.00008.00006-.04454.03268-1.03723.87766-.20403.17368-.47035.45435-.70213.90958.28934.12344.49387.35196.49469.59042.00087.25418-.22992.41843-.49469.60638-.3049.21643-.72063.38696-.79787.28723-.06015-.07767.14738-.23868.19148-.57446.0289-.22012-.02608-.41147-.07979-.54257-.21013.20456-.48442.43628-.82979.65427-.4973.31387-.96747.48907-1.32446.59042.15392-.27765.13869-.39294.09575-.44681-.10901-.13675-.41547.09882-1.05319.09573-.33966-.00165-.76585-.03189-.76596-.03189-.28598-.02029-.39085-.03723-.44681.03189-.10307.12729.02287.46857.25533.63831.12027.08783.27444.11084.54254.15958.23196.04218.32628.03473.34618.08734.03595.09506-.21495.26978-.41.40735-.61206.43167-1.01291.71439-1.26064.9415-.33383.30606-.25887.3913-.68617.95743-.09499.12582-.64752.83102-1.5,1.46808-.54228.40524-.98671.59949-1.65958.89362-.85611.37424-1.86566.80743-3.19148.89362-.9046.05881-1.09567-.10138-1.62912.12589-.71353.30399-.97197.84631-1.49854.7518-.23291-.04181-.52974-.21027-.60638-.46277-.04471-.14728-.00142-.28003.01595-.33511.26138-.82895.06483-1.2326.35107-1.75531.07184-.1312.18951-.29807,1.93085-1.16492.70529-.3511,1.05794-.52667,1.42021-.6702.92291-.36566,1.59753-.49152,2.01064-.59042.96353-.23068.7617-.37643,3.84575-1.89896,2.21404-1.09302,3.32106-1.63956,3.35829-1.64532.07109-.01105.37997-.04932.56725-.28552.09021-.11377.11508-.22668.12766-.27127.16515-.58603,1.34192-.51187,1.97873-1.3085.20323-.25424.47083-.74649.83351-1.06473.04825-.04233.14206-.12009.28351-.164.26685-.08282.5123.01413.57681.04202Z"/>
   <path class="b"
         d="m30.68349,15.58857c-1.36656.54211-1.7061.38394-3.01596,1.00534-.47389.22482-1.28549.62573-2.20212,1.34042-.66217.5163-.70319.67258-1.2766,1.05319-.64433.4277-1.22581.65048-1.85107.86169-1.63269.55154-2.1779.55435-3.44638.92688-.86099.25287-.61292.25247-3.57489,1.43481-1.98781.79349-2.19453.83157-3,1.21277-1.24634.58987-2.21043,1.18921-2.84042,1.61172.07513.25006.187.52054.3351.52658.15114.00616.23355-.26733.4149-.51065.4518-.60617,1.35655-.80887,1.45212-.6702.13545.19656-1.16978,1.34769-1.91489,1.94681-2.37166,1.90701-4.75394,2.79303-6.36441,3.96033-.14631.10605-.75925.55725-.88084.64676-1.03856.76453-1.14705.85129-1.27602.96207-.69159.59406-1.20405,1.21906-1.16489,1.26062.01681.01785.16372-.08643.46277-.28723.36433-.24463.41967-.30576.48736-.33737.00008-.00003.01998-.00845.03841-.01474.12308-.04196.59106.05325,1.02209.57553.2585.3132.20358.41635.33511.47873.39518.18741,1.11029-.63947,1.7234-1.21277.11901-.1113.99382-.65427,2.71277-1.78723,2.42441-1.59793,2.84364-1.77246,4.18085-2.77661.27278-.20483.11218-.09021,1.2766-.98935,1.46425-1.13065,2.20798-1.70419,2.7766-2.10638,1.41167-.99847,2.11751-1.49771,2.53723-1.59576.95821-.22382,2.22128-.1394,2.52127-.78189.05373-.11505.10493-.31421.30319-.46277.20721-.15527.45633-.16635.77711-.18057.16104-.00714.3877-.00528.65906.03696.17482-.34818.49672-.85864,1.06915-1.22873.577-.37305,1.14224-.43134,1.42021-.46277.00011,0,1.57378-.17789,3.73404-.68619,2.10832-.49606,3.68571-1.47586,4.53192-2.01062.57179-.36136,1.02626-.69702,1.34042-.9415-.29787-.31915-.59575-.63828-.89362-.95743.04625-.10104.12328-.22961.25531-.33511.17238-.13773.34648-.1626.35107-.25534.00288-.05832-.0634-.10013-.14362-.15955-.11459-.08487-.2661-.21201-.43086-.39896-.98154.67297-1.84207,1.07071-2.44148,1.3085Z"/>
   <path class="b"
         d="m51.77923,6.52476c-.08043-.01434-.17212-.00894-.1915.03192-.01471.03101.01318.08044-.01036.17462l-.00002.00006c-.03033.07697-.04735.14328-.06432.20782-.04665.17746-.05722.16403-.06412.1969-.04457.21222.08458.29785.02711.40994-.06018.1174-.22411.06693-.27129.17554-.04597.10587.05452.28079.1915.35107.11705.06006.23711.03162.30319.01593.16966-.04022.27946-.14041.31914-.17551.44733-.39587.90308-.41913.89363-.62234-.00508-.10925-.14101-.19318-.31915-.30319-.18713-.11557-.21242-.06766-.38298-.17554-.21159-.13385-.24666-.25436-.43085-.28723Z"/>
   <path class="b"
         d="m48.50117,4.0334c-.0448-.05258-.09184-.08395-.18515-.14297-.19504-.12338-.36377-.14444-.86804-.46341-.44017-.27844-.35774-.29153-.92552-.6702-.62738-.41843-.65857-.42389-.73405-.57446-.12192-.24323-.06837-.50189.0387-1.01929.09619-.46484.21254-1.02701.51064-1.08511.06087-.01187.13406.0127.28046.06183.24757.0831.46736.15683.54256.35107.04834.12485.04472.31958-.06383.41489-.16606.14581-.43787-.06378-.59804.08322-.10095.09265-.11464.28754-.04025.36359.07472.07639.18987-.02084.38297.03192.20287.05545.21059.18857.38298.25531.23247.09.58159-.01151.70213-.22339.07745-.13614.03142-.32666-.06383-.70212-.09634-.37979-.17647-.50098-.12766-.54257.07672-.06537.32788.16086.92552.57446.58611.40564.89203.56662.85767.73874-.02153.10785-.15221.09772-.31511.31445-.07164.09531-.2106.27936-.15958.44681.0528.17328.27957.23886.44681.28723.35896.10382.72456.04239.73404-.03189.00818-.06418-.25591-.08563-.34428-.30121-.0213-.05197-.05441-.16891-.00677-.20944.09424-.08017.36314.27057.95744.54254.36209.16571.52521.17892.60638.35107.09053.19199-.06256.29004-.06383.67023-.00056.1705.06039.38562.18231.8158.11678.41202.17696.52817.10944.68494-.06078.14114-.16386.17307-.20518.33633-.03772.14905.006.28915.04787.383-.07182.05478-.1796.14075-.30319.25531-.18719.17352-.20274.21988-.3351.31915-.03757.02817-.19502.14349-.43085.22342-.16228.05499-.25479.08636-.36703.06381-.15224-.03058-.2449-.14105-.35106-.27127-.31317-.38416-.46976-.57623-.51933-.65491-.37096-.58887-.55644-.8833-.56577-1.22806-.0022-.08133.00157-.28918-.13445-.44882Z"/>

</g>
</svg>
