<?xml version="1.0" encoding="UTF-8"?>
<svg xmlns="http://www.w3.org/2000/svg"
     version="1.1"
     width="44.74912184mm"
     height="36.03271353mm"
     viewBox="0.00000000 0.00000000 126.84794093 102.13994345">

<g transform="scale(5.79224922)">   <defs>
      <style type="text/css"><![CDATA[
      .cls-1 {
        stroke: #000;
        stroke-miterlimit: 10;
        stroke-width: .15px;
      }
    ]]></style>
   </defs>
   <path class="cls-1"
         d="M7.69694,1.22976c-.32211,.36072-1.10349,1.65228-2.06381,3.44684,.65823,.13916,.98441,.25977,.9787,.36169-.00653,.11646-.44629,.20868-1.31912,.27661-.45685,.6109-.81586,1.15845-1.08511,1.5957-.26605,.43201-.78787,1.28625-1.29788,2.44684-.16144,.36743-.15094,.37689-.63831,1.53192-.30328,.71875-.45493,1.07812-.53189,1.23404-.36584,.74109-.62076,1.25745-1.08511,1.85104-.33829,.43243-.62048,.69211-.57446,1.06384,.02902,.23447,.1778,.42603,.27658,.55319,.23828,.30679,.52499,.44678,.65958,.51062,.28357,.13452,.52768,.17029,.68085,.1915,2.02835,.28091,2.28842,.30908,2.78723,.27661,.34363-.02237,.60281-.06064,.76596-.08511,.38129-.05719,.62799-.11642,1.76596-.42554,.79074-.21478,1.10818-.30478,1.53192-.53192,.6138-.32904,.68411-.53503,.68085-.65958-.00534-.20343-.2113-.35135-.25531-.38297-.24805-.17816-.52878-.14218-.8298-.12766-.55139,.02658-.29193-.06131-1.25531-.06384-.9368-.00247-1.0571,.08096-1.68085,.02127-.48431-.04633-.97113-.09811-1.06384-.36169-.06-.17056,.07077-.35669,.21277-.55319,.76416-1.05746,1.11105-1.45767,1.34042-1.85107,.08173-.14017,.0556-.12009,.44681-1.40424,.38934-1.27808,.58768-1.9256,.76596-2.34045,.16245-.37805,.15381-.29401,.93619-1.74469,.34369-.63727,.57663-1.08441,1.04254-1.9787,1.77457-3.40625,.96835-2.05768,1.08511-2.25531,.03235-.05475,.19501-.3288,.27658-.72339,.01932-.09344,.1752-.84735-.10638-1-.17651-.0957-.45554,.08246-.65958,.21277-.38058,.24304-.33957,.40259-.617,.51062-.30881,.12024-.45789-.03925-.78723,.10638-.19342,.08551-.30817,.21405-.383,.29785Z"/>
   <path class="cls-1"
         d="M11.39909,5.39999c-.14554,.20258-.46225,.70227-.55319,1.53192-.04587,.41846,.01843,.4397,0,1.08508-.01254,.43872-.0527,.79425-.12769,1.31915-.13248,.92749-.27945,1.72406-.42551,2.48938-.3801,1.99179-.57016,2.98767-.63831,3.10638-.15234,.26535-.51669,.82495-.31915,1.27658,.07739,.17694,.18179,.20258,.29788,.46808,.18665,.42688,.05154,.66785,.21277,.80853,.21646,.18887,.70004-.03613,.85104-.10638,.58325-.27139,.96078-.72427,1.25534-1.17023,.1741-.26361,.58923-.93353,1.08508-2.63828,.15918-.54721,.25116-.9415,.383-1.51065,.36044-1.55612,.54068-2.33414,.63831-3.29788,.17175-1.69525-.08505-1.93982,.29785-2.65955,.15445-.29034,.39664-.6272,.36169-1.10638-.03122-.42841-.28009-.91785-.59573-.95746-.07788-.00977-.14603,.00958-.59573,.31915-.61835,.42566-.6759,.51746-.89362,.55316-.2977,.04883-.37125-.09296-.63831-.02124-.27798,.07471-.43951,.29315-.59573,.51062Z"/>
   <path class="cls-1"
         d="M17.05867,14.54891c-1.70718,.53568-2.56079,.80353-3.04257,.89362-1.3812,.2583-2.01318,.12601-2.34042,.63831-.13074,.20468-.30954,.66364-.10638,1,.11703,.19379,.31238,.2666,.34042,.27661,.36707,.13101,.76376-.11496,.89362-.1915,.69946-.41229,1.56497-.444,2.31915-.74469,.80414-.32062,2.36136-.76874,5.61703-1.36169-.11804-.34689-.06876-.51047,0-.59573,.05997-.07437,.12924-.08228,.21277-.1915,.10089-.13196,.0849-.23172,.12766-.34042,.14191-.36063,.74591-.35001,.74466-.51065-.00067-.08667-.17709-.16733-.31912-.1915-.2767-.04709-.44208,.11703-.78726,.23407-.28226,.0957-.39163,.06055-.72339,.10638-.52371,.07236-.78207,.23337-1.36169,.46808-.18198,.0737-.64615,.21933-1.57446,.51062Z"/>

</g>
</svg>
