<?xml version="1.0" encoding="UTF-8"?>
<svg xmlns="http://www.w3.org/2000/svg"
     version="1.1"
     width="64.14757924mm"
     height="41.10089346mm"
     viewBox="0.00000000 0.00000000 181.83567445 116.50653403">

<g transform="scale(5.59901992)">   <defs>
      <style type="text/css"><![CDATA[
      .a {
        stroke: #000;
        stroke-miterlimit: 2.61313;
        stroke-width: 0.28346px;
      }
    ]]></style>
   </defs>
   <path class="a"
         d="M.19141,14.1499c2.106-3.87451,9.74121-8.13672,14.292-10.3042a1.58678,1.58678,0,0,1,1.83252.29A12.14905,12.14905,0,0,1,11.332,7.90918q-1.72266,1.27075-3.44482,2.54c1.13037.936,4.583-.42578,7.3291-1.08838,2.24854-.77393,4.25049-.70117,5.71729,1.2334,2.16406,2.36328,4.17188,4.9834,6.96289,6.31348H29.582q0,1.19824-1.4668,1.52344c-1.623,1.63281-3.1875,2.60059-4.61719,2.10547-2.6875-.56934-4.83789-2.60156-6.74219-5.29785-1.19727-1.5752-2.395-2.90723-3.5918-2.54C8.5127,14.04834,3.61084,16.05615.19141,14.1499Z"/>
   <path class="a"
         d="M17.04883,12.11816q-.43945-.25342-.87939-.50781Q19.02661,4.281,27.45605,1.59619A4.91279,4.91279,0,0,1,31.85352.21729c.75977.53271.49023,1.06494.07422,1.59668a19.33175,19.33175,0,0,1-5.2041,2.03174,35.873,35.873,0,0,0-9.6748,8.27246Z"/>

</g>
</svg>
