<?xml version="1.0" encoding="UTF-8"?>
<svg xmlns="http://www.w3.org/2000/svg"
     version="1.1"
     width="46.04119219mm"
     height="14.79807332mm"
     viewBox="0.00000000 0.00000000 130.51044279 41.94733778">

<g transform="scale(5.79267105)">   <defs>
      <style type="text/css"><![CDATA[
      .b {
        fill-rule: evenodd;
        stroke: #000;
        stroke-miterlimit: 10;
        stroke-width: .15px;
      }
    ]]></style>
   </defs>
   <path class="b"
         d="M7.8575,3.45633c-1.251,.2452-1.918,.0332-1.999-.6367,.27731-.46091,.7949-.5996,1.4619-.539,.5527-.5064,1.625-.8814,3.2187-1.127-.083-.4326,1.6241-.7754,4.1436-1.0781,.6992,.082,1.3975,.1636,2.0967,.2451,.1465,.3105,.2929,.6206,.4385,.9307-1,1.48139-5.5625,1.709-9.3604,2.205h0Z"/>
   <path class="b"
         d="M.9825,3.16243c1.4824-.3711,3.5059-.5098,5.8994-.4902,.3584,.5229,.2608,.9311,.0977,1.3232,1.7783,.1357,4.1006,.0205,4.29,.8818,3.0713-.0307,6.0313-.041,5.5586,.5884,.8457-.0254,1.6895-.06,2.5352,.0488-.1719,.5381-.9073,1.0777-1.6084,1.6167-.1797-.2939-.294-.5878-.3418-.8818-6.6778,.2383-13.8545,.7813-16.7725-1.2739-.8691-.8174-.7226-1.7974,.3418-1.813H.9825Z"/>
   <path class="b"
         d="M18.7296,3.45633c-.13479-1.2109,1.3291-1.38961,3.0224-1.4209,.7823-.2812,.7657,.8145,.63481,2.107-.52051,.3266-.78121,.7837-.78031,1.372-.9111,.376-1.8213,.523-2.7304,.6368-.0977-.3101-.0655-.5552,.0976-.7349,.043-.6948,.1104-1.3989-.2441-1.96h0Z"/>

</g>
</svg>
