<?xml version="1.0" encoding="UTF-8"?>
<svg xmlns="http://www.w3.org/2000/svg"
     version="1.1"
     width="34.56885560mm"
     height="25.37491850mm"
     viewBox="0.00000000 0.00000000 97.99047651 71.92885508">

<g transform="scale(4.24231132)">   <defs>
      <style type="text/css"><![CDATA[
      .b {
        stroke: #000;
        stroke-miterlimit: 10;
        stroke-width: .15px;
      }
    ]]></style>
   </defs>
   <path class="b"
         d="m13.6149,7.39851c.21939-.1283.74034-.44165,1.37234-.92554.5143-.39377.77144-.59064,1.02129-.89362.21576-.26163.37018-.58224.67021-1.21277.84277-1.77112,1.26442-2.65845,1.2766-2.74466.02925-.207.06412-.58502.35106-.8298.17432-.14868.35158-.17136.67021-.22339.56219-.0918,1.42293-.25189,1.88298-.35107.56361-.12152.73309-.19635.98936-.09573.27002.10602.42075.32214.57446.54254.24341.34903.32559.66467.44681,1.14893.1282.51224.19232.76834.12766,1.08511-.03131.15338-.05386.1423-.25531.67023-.19675.51562-.16856.50873-.28723.79785-.2189.53333-.28554.48544-.51065,1.0213-.18484.44-.17558.55716-.35106.76593-.15894.18909-.32361.27985-.57446.41492-.27902.15021-1.15672.62265-1.24469.6702-.51027.27576-.41328.28708-1.24467.79788-.43356.26639-.75697.44577-1.2766.73404-.92992.51587-.95612.49509-1.46808.79788-.25847.15286-.78429.47311-1.40427.92554-.63921.46646-.75626.61935-1.43617,1.14893-.6869.535-1.23911.9021-1.56383,1.117-.46652.30875-1.34459.88586-2.52127,1.46811-1.15158.56985-1.05489.38541-2.61702,1.117-.97028.45441-1.35658.68903-2.23404,1.02127-.66939.25348-1.23192.41507-1.59575.51065-.06758-.02008-.45819-.14276-.60638-.51065-.10013-.24857-.03703-.47855,0-.60638.16988-.58649.72221-.90204,1.05319-1.08508.30353-.16788.4133-.17538,1.11702-.41492.9072-.30881.85645-.34116,1.97873-.73404.71689-.25095.73701-.23755,1.3085-.44681.71524-.2619,1.11171-.40707,1.43617-.57446.45903-.23682,1.16814-.72144,1.81915-1.78723-.25471.12756-.61609.30557-1.05319.51065-.66519.3121-1.17172.53024-1.7234.76596-1.03142.44067-1.81287.76849-2.87234,1.21274-1.14961.48203-1.73271.72647-2.13829.89362-.77524.31949-1.4231.58136-1.88298.76596-.08102-.06183-.19595-.15686-.31915-.28723-.24028-.2543-.50436-.53378-.44681-.79785.0369-.16931.19058-.26138.44681-.41492.08884-.05322.33932-.19412.79787-.28723.50743-.10306.51843.00497.76596-.09573.37239-.15149.38329-.41049.76596-.67023.28412-.19284.45123-.16754.86169-.28723.87593-.2554.86624-.5896,1.85107-.98935.67348-.27338.65053-.10593,1.24467-.383.6631-.30923.73218-.53668,1.37234-.76593.54788-.1962.62819-.07651,1.02127-.28726.50598-.2713.43227-.50146.92554-.79785.33624-.20203.38928-.10635,1.3085-.41489.48944-.16428.8394-.3139.92554-.35107.57272-.24713.98412-.48593,1.24467-.63831Z"/>

</g>
</svg>
