<?xml version="1.0" encoding="UTF-8"?>
<svg xmlns="http://www.w3.org/2000/svg"
     version="1.1"
     width="56.86022693mm"
     height="33.08641345mm"
     viewBox="0.00000000 0.00000000 161.17862564 93.78829052">

<g transform="scale(4.13569829)">   <defs>
      <style type="text/css"><![CDATA[
      .b {
        stroke: #000;
        stroke-miterlimit: 10;
        stroke-width: .15px;
      }
    ]]></style>
   </defs>
   <path class="b"
         d="m27.3952,7.7136c-.53466.50926-1.44864,1.09128-3.2766,2.25532-.34343.2187-.66562.41792-1.10638.6383-.73551.36776-1.13782.46275-1.65957.68085-.93439.39059-1.18713.73092-2,1.23404-.98201.60781-1.79542.84289-3.14894,1.23404-1.60153.46283-2.86542.59843-4.08511.7234-.23637.02422-1.22463.07321-3.19149.17021-2.70734.13352-4.07.19797-4.51064.08511-.62048-.15893-1.1938-.21943-2.34043-.34043-.10322-.01089-.51993-.05101-1.02128.08511-.39341.10681-.91365.34242-.89362.55319.01859.1956.48767.21424.51064.42553.02758.2537-.6264.432-.59575.6383.03731.25112,1.0453.24894,1.06383.46809.01239.14656-.4334.20724-.46809.46809-.03128.23522.30607.3749.25532.59574-.04452.19375-.33253.20965-.34043.34043-.01118.18522.55391.36158.76596.42553,1.12788.34014,1.91479.42552,1.91489.42553.46662.05063,1.05292.11188,1.87234.08511,1.25231-.04092,2.18046-.25905,2.55319-.34043.74647-.16298,2.11064-.23853,4.80851-.38298,3.5982-.19265,3.9834-.1394,7.10638-.29787,3.10666-.15765,3.3334-.24119,5.65957-.34043,2.74399-.11705,4.97568-.10946,6.42553-.08511-.32071.22847-.79565.54123-1.40425.85106-.69432.35346-1.25247.53832-2.34043.89362-1.10384.36048-1.98956.59513-2.6383.76596-1.07445.28292-1.16996.2768-1.70213.42553-.76985.21516-1.86101.58879-3.14894,1.2766.25715-.00167.64407.01048,1.10638.08511.636.10267.99991.25662,1.57447.42553.0001.00003.86429.25408,1.78723.38298.6351.0887,1.28108.05604,3.23404-.46809,1.44618-.38811,2.5114-.67399,4-1.2766,1.65373-.66945,2.67451-1.26206,3.87234-1.95745.00009-.00005.96091-.55785,2.21277-1.82979.18783-.19085.477-.49792.59575-.97872.03386-.13709.15675-.66967-.12766-1.23404-.0878-.17424-.31837-.55775-.76596-.76596-.37653-.17515-.70448-.13219-1.19149-.08511-.62266.0602-1.25347.0364-1.87234.12766-.74686.11013-2.02459.23729-4.34043.29787-.28827.09045-.67909.2009-1.14894.29787-.37229.07684-.92142.18794-1.57447.21277-.67973.02584-.75837-.06891-1.74468-.12766-.4745-.02826-1.13047-.06733-1.87234,0-.50885.04618-1.248.15966-2.12766.46809.85808-.31931,2.0573-.80253,3.44681-1.48936,1.39621-.69014,2.62311-1.2966,4-2.34043.90168-.68357,2.15588-1.7732,3.40426-3.40426.22684.27586.37642.51813.46809.68085.20151.35772.26679.58602.59574,1.23404.16583.32667.23872.44492.38298.55319.25572.19193.54203.20717.68085.21277.63084.02541,1.10293-.3543,1.19149-.42553.49017-.39426.64551-1.07671.93617-2.42553.10722-.49756.18496-1.12603.34043-2.38298.1122-.90714.13499-1.2348-.04255-1.61702-.09565-.20592-.34746-.46352-.85106-.97872-.49372-.50509-.74619-.76035-1.02128-.89362-.46725-.22637-.57819-.06626-1.14894-.25532-.65779-.21789-.6475-.47596-1.44681-.89362-.28919-.15111-.81327-.41916-1.53191-.51064-.34846-.04436-.91893-.11041-1.57447.12766-.32318.11737-1.10064.39972-1.3617,1.10638-.14677.39728-.07583.78117,0,1.19149.04784.2589.14537.51302.34043,1.02128.17592.45838.29782.77603.51064,1.19149.13908.2715.31993.59054.55319.93617-.12084.0434-1.95564,1.26063-2.55319,1.82979Z"/>
   <path class="b"
         d="m6.79945,2.30935c-.08311.23744.04326.37847.42553,1.31915.35055.86263.36106,1.03141.34043,1.19149-.04818.37371-.2372.47558-.21277.80851.02706.36868.28679.62442.42553.76596.43658.44539.97908,1.09025,1.70213,2.04255-.98657.9442-1.17432,1.26891-1.10638,1.3617.06348.0867.3241-.06473.6383.08511.25199.12017.36853.35309.38298.38298.2224.4601-.18106.85399,0,1.06383.24271.28129,1.18888-.17016,1.2766-.21277.26062-.1266.45925-.27055.59574-.38298.41135-.05674.82269-.11348,1.23404-.17021.13603-.15147.33585-.3621.59575-.59574.15994-.14379.31394-.28223.46808-.38298.4565-.29836.95468-.29251,1.19149-.29787.45502-.01031,1.0693-.1629,2.29787-.46809,1.3554-.33669,2.31332-.98024,2.80851-1.31915.97676-.6685,1.56497-1.34433,2.12766-2,.6219-.72467,1.44202-1.81968,2.17021-3.31915-.02507-.15288-.07962-.38572-.21277-.6383-.20431-.38757-.48003-.60599-.85106-.89362-.43106-.33416-.64659-.50124-.89362-.55319-.3627-.07627-.68292.04593-1.3617.42553-.84086.47024-1.38685.86285-2.21277,1.44681-1.21517.85919-1.28734.89599-1.40426,1.10638-.34789.62604-.2305,1.23872-.7234,1.53191-.2235.13295-1.48066.83223-1.65957,1.19149-.39086-.41742-.64754-.79717-.80851-1.06383-.49612-.82188-.50558-1.26949-1.10638-2.29787-.4179-.71533-.63279-.87441-.7234-.93617-.47539-.32402-.99683-.33211-1.53191-.34043-.21257-.0033-.68361.06868-1.61702.21277-.77453.11956-1.0658.17234-1.44681.34043-.41494.18306-.70956.31303-.80851.59574Z"/>

</g>
</svg>
