<?xml version="1.0" encoding="UTF-8"?>
<svg xmlns="http://www.w3.org/2000/svg"
     version="1.1"
     width="61.24370980mm"
     height="46.77703519mm"
     viewBox="0.00000000 0.00000000 173.60420810 132.59626778">

<g transform="scale(5.79267105)">   <defs>
      <style type="text/css"><![CDATA[
      .b {
        fill-rule: evenodd;
        stroke: #000;
        stroke-miterlimit: 10;
        stroke-width: .15px;
      }
    ]]></style>
   </defs>
   <path class="b"
         d="m17.80919,2.39178c.1181-1.02.7099-1.4277,1.7759-1.2236.4731-.8331,1.0141-1.19,1.6235-1.0708.541.6801.6084,1.3603.2031,2.0395-.5757,3.7783,2.8193,3.4346,6.3423,2.9575.4736-.3911.8794-.4419,1.2178-.1528.2197-.0679.4399-.1362.6596-.2041.08451.2383.169.4761.2539.7139-1.1669,1.5263-2.7568,2.0952-4.4653,2.3969-.3042.9346-2.6553.9341-5.9365.5098-2.9058-.8096-2.1074-3.4795-1.6743-5.9663h0Z"/>
   <path class="b"
         d="m5.47909,8.86838c-.0859-.6636-.0864-1.3257.5073-1.9888,1.5103-.0801,3.9854.8096,6.0889,1.3257,1.793-.0508,3.2471-.5777,4.3638-1.5806.3701-.4941.9096-.88572,2.6386-.561,1.4405,1.0547.7368,2.5449-2.3847,3.2631-3.7378,2.0206-7.4761,2.0079-11.2139-.4584h0Z"/>
   <path class="b"
         d="m3.80479,9.93918c.541-.5269,1.082-.7818,1.6235-.76522,1.9956.30622,2.6382-.33928,1.9282-1.938-2.1567-.70508-4.3549-.09268-6.6469,3.417-.3052.69682-.542,1.39362-.3042,2.09082-.0508.544-.1016,1.0874-.1524,1.6319-.271.5439-.186.9687-.0508,1.3769.0171,1.7163.0342,3.4331.0508,5.1499.689.8658,1.3062,1.9854,2.2832,1.836,1.001.49948,1.0508-1.5093.9644-3.87552.6089-1.80178-.0508-5.94968.3042-8.92378h0Z"/>
   <path class="b"
         d="m13.9019,11.72378c-.7265-.7309-1.2001-1.4614-1.1162-2.1929.5664-.8833,1.9698-1.0195,3.7549-.81592,1.4063,2.73732,2.5752,5.47272,2.0806,8.21-1.0913,3.16162-2.5625,5.38822-4.8716,5.55862-.2534-.2041-.5073-.4077-.7607-.6118-.3047-.3404,0-.61282.913-.8159,2.625-2.7051,1.0274-6.063,0-9.3321h0Z"/>
   <path class="b"
         d="m4.97179,18.19988c-1.0147-.0674-1.4204-.3394-1.2178-.81592.1694-.03368.3384-.06788.5073-.10158,1.3526-1.9468,3.1284-3.17042,5.8355-2.8052,2.2929-.3784,5.645-.6245,9.0317-.8667,2.8579-.3564,4.9043-.1699,6.1397.5611,2.2045-.2735,2.0332.0503,1.5219.459-.2187.4086-.5566.7495-1.7251.6118-1.8569-.1157-4.0073.2104-6.1396.5102-2.2539.6797-5.315,1.1548-8.169,1.6826-2.0073.4541-4.0586,1.0166-5.7846.7647h0Z"/>

</g>
</svg>
