<?xml version="1.0" encoding="UTF-8"?>
<svg xmlns="http://www.w3.org/2000/svg"
     version="1.1"
     width="51.07172302mm"
     height="35.22578516mm"
     viewBox="0.00000000 0.00000000 144.77021134 99.85255552">

<g transform="scale(6.38362226)">   <defs>
      <style type="text/css"><![CDATA[
      .b {
        stroke: #000;
        stroke-miterlimit: 10;
        stroke-width: .15px;
      }
    ]]></style>
   </defs>
   <path class="b"
         d="m5.2682,2.08405c-.43365.5137-.41864,1.12378-.43744,2.43726-.01575,1.09927-.02362,1.6489-.06384,2.3298-.06281,1.06223-.09418,1.59332-.12769,1.75531-.11243.54352-.27417.97214-.09576,1.5.09326.27594.15967.22461.31915.57446.32245.70749.11285,1.05353.383,1.62766.10419.22141.27161.3923.60638.73407.40015.40851.87921.89749,1.62769,1.18085.45837.17352.8277.19794,1.21277.22339.62445.04126,1.13434-.02368,2.10638-.22339,1.60803-.33038,2.68707-.55206,2.68085-.8298-.00262-.11591-.19153-.12103-.79791-.47873-.49762-.29355-.53809-.38901-1.05316-.70212-.5647-.34329-.55035-.24942-.95746-.51065-.37079-.23792-.85248-.547-1.18085-1.117-.15692-.2724-.22168-.52203-.35107-1.02127-.05591-.21555-.12598-.52332-.22339-1.24469-.06702-.49625-.13342-.9877-.15961-1.46808-.04156-.7619.02814-1.3085.15961-2.29788.1084-.8158.27551-1.79495.35107-3.15958.02948-.53235.03711-.98114-.24976-1.19592-.34058-.25497-.91498-.04431-1.09955.02341-.39813.14603-.35303.2673-1.01239.69379-.55133.3566-.75928.38596-1.21277.76596-.1048.08783-.2868.24033-.42426.40317Z"/>
   <path class="b"
         d="m13.67116,11.22346c-.15112.12439-.35083.23776-1.0213.38297-1.40094.30338-2.03839.13513-2.17017.44681-.05859.13858.06732.37961.31915.86169.13831.26474.24713.47305.44678.70215.4563.52359.79938.48132.89362.82977.08789.32504-.16821.51871-.03192.76596.03381.06137.13464.20374.60638.28723.35468.06277,1.13416.20071,1.883-.28723.48083-.31332.7074-.72726.82977-.95746.24896-.46823.28638-.9249.35107-1.81912.07147-.98773.10333-1.51572-.19147-1.6915-.11285-.06729-.33057-.05548-.76599-.03192-.28601.01547-.43256.02469-.60638.09573-.26514.1084-.35529.2608-.54254.41492Z"/>
   <path class="b"
         d="m3.235,7.68089c-.88153.63873-.88324.69498-1.40424,1.02127-.2243.14047-.46906.28354-.82983.54257-.85242.61209-.91998.84317-.92554.98935-.00995.26218.17102.4718.28723.60638.07214.08356.26624.28799.79791.47873.33447.12,1.05426.36771,1.91486.15958.19629-.04749.2887-.09177.73407-.28723.33319-.14624,1.56287-.68594,2.32977-.98938,1.41559-.56009,1.47467-.40234,1.78723-.70212.5213-.50003.93933-1.49762.51068-2.39362-.4552-.95148-1.58197-1.19644-2.29791-1.08511-.24072.03745-.46899.15262-.92554.383-.24475.1235-.771.40152-1.9787,1.27658Z"/>
   <path class="b"
         d="m9.90523,5.89366c-1.00537-.08304-1.06024.04306-1.4043-.12766-.43964-.21814-.6925-.5939-.82977-.79788-.18958-.28171-.33191-.49316-.35107-.79785-.03156-.50055.2818-1.05304.73407-1.24469.25696-.10889.6181-.04068,1.34039.09573.40674.07681.45154.11475.76599.15958.51343.07321.91571.04645,1.117.03192,1.81061-.13058,2.71588-.19586,3.4787-.28723,1.13806-.13632,2.21613-.18661,4.37238-.28723,1.08728-.05072,2.90002-.11862,2.93616.12766.01556.1059-.3136.15945-.79785.60638-.33057.30508-.34979.43942-.57446.60638-.32928.24469-.66779.23846-1.27661.25531-.00012,0-1.37811.03818-2.84045.25534-.33307.04947-.59619.10043-.89362.25531-.40613.21152-.41797.3782-.76593.51062-.33173.12622-.49567.04123-1.05322.06384-.25745.01044-.63074.0451-1.08508.15958-.073-.11823-.29785-.44656-.70215-.54254-.30518-.07245-.67194-.00284-.70209.12766-.02997.12961.29218.23236.28723.44681-.0036.15741-.18109.2724-.25531.31915-.36877.23236-.73761.12677-1.5.06381Z"/>
   <path class="b"
         d="m20.2137,1.87238c-.40741.17657-.37958.29907-.73401.41489-.51794.16925-.68311-.05774-1.14893.06384-.60657.15833-1.13831.75516-1.05322,1.14893.02246.10397.14264.21826.383.44681.34894.33182.48755.35873.63831.60638.06616.1087.22284.36597.12762.54257-.08594.15942-.2937.09842-.41486.28723-.08374.13046-.09283.32837,0,.44681.0462.05896.12323.10529.35101.12766.22211.02182.44434.04364.76599-.06384.29712-.09927.38361-.21017.92554-.60638.42352-.30966.63531-.46451.89362-.60638.55353-.30405.66119-.22159.98938-.47873.16528-.12952.479-.38245.60632-.82977.034-.11954.14484-.53256-.06378-.95746-.25177-.51276-.78149-.66162-.92554-.70212-.58984-.16577-1.11121.06021-1.34045.15958Z"/>

</g>
</svg>
