<?xml version="1.0" encoding="UTF-8"?>
<svg xmlns="http://www.w3.org/2000/svg"
     version="1.1"
     width="63.06840845mm"
     height="57.88105502mm"
     viewBox="0.00000000 0.00000000 178.77658162 164.07234628">

<g transform="scale(6.53780177)">   <defs>
      <style type="text/css"><![CDATA[
      .b {
        stroke: #000;
        stroke-miterlimit: 10;
        stroke-width: .15px;
      }
    ]]></style>
   </defs>
   <path class="b"
         d="m19.94734,2.59369c-.93843.34741-1.48961.55145-2.0851.97876-.26001.18658-.50053.39563-.93617.55316-.52708.19055-.71946.08136-.97872.29791-.26111.21808-.41576,2-.59575,2.38293-.19884.42303-.42204.41602-.55319.85107-.03037.10077-.12847.44318,0,.85107.03843.12201.15018.47681.46809.68085.46384.29767.93593-.00201,1.14893.25531.12425.15009.07773.38989-.04255.76599-.25661.80237-.3849,1.20355-.80851,1.78723-.67696.93274-1.41374,1.51624-1.87234,1.87231-1.85793,1.44269-3.38382,2.44189-3.48936,2.51068-1.52168.99182-2.70885,1.73358-3.40426,2.17017-.00008.00006-4.93474,3.09814-5.68005,4.48779-.12894.24042-.20903.58496-.57526.95905-.22343.22821-.46866.38092-.46809.63831.00028.12573.05922.2699.17021.34039.15579.099.35013.00818.55319-.04254.48019-.11993.66005-.00531,1.06384-.04254.5504-.05072.93613-.33008,1.31915-.59576,1.8502-1.28326,1.88375-1.03046,3.95744-2.59576,1.23454-.93188,1.85181-1.39783,2.25533-1.82977.76324-.81702,1.20819-1.56097,1.53191-1.44678.19693.06946.13232.38007.38298,1.27655.15808.56537.31806,1.11902.7234,1.65961.18834.25116.42574.56781.85106.76593.28329.13196.63064.20532,1.31915.12769.63686-.07178,1.9683-.2403,3.14893-1.27661.09617-.08441.98277-.87225.80851-1.19147-.15276-.27985-.9584.12073-1.3617-.29791-.30922-.32098-.20546-.89136-.12766-1.31909.04472-.24585.15758-.7077.85106-1.82983.2886-.46698.45461-.68719.68085-1.02124,1.38023-2.03772,1.14898-2.62103,2.17021-3.57446.40908-.3819.65437-.48267.93617-.93622.3093-.4978.37521-.95813.46809-1.65955.14315-1.08118.21511-1.62463-.08511-2.17023-.25909-.47089-.50916-.42322-.85106-1.06384-.18176-.34058-.43096-.8075-.25532-1.23401.13244-.32159.44852-.47961.76596-.63831.43522-.21753.81176-.27136.97873-.29785.0001,0,.78645-.12469,2.04255-.59576.63802-.23926,1.47415-.55286,2.12766-1.31915.5655-.66309.91065-1.56708.71381-1.72937-.1028-.08472-.30128.07581-.71381.23999-.79995.31836-1.20155.17139-1.82979.29791-.96062.19354-.85386.70483-2.04255,1.27655-1.04464.50244-1.10957.09912-2.68085.68085Z"/>

</g>
</svg>
