<?xml version="1.0" encoding="UTF-8"?>
<svg xmlns="http://www.w3.org/2000/svg"
     version="1.1"
     width="44.43197437mm"
     height="27.47886994mm"
     viewBox="0.00000000 0.00000000 125.94894518 77.89283719">

<g transform="scale(5.59901992)">   <defs>
      <style type="text/css"><![CDATA[
      .a {
        stroke: #000;
        stroke-miterlimit: 2.61313;
        stroke-width: 0.28346px;
      }
    ]]></style>
   </defs>
   <path class="a"
         d="M.38965,7.52441C.0083,6.60254-.82568,5.79,6.0415,3.12793a49.3412,49.3412,0,0,0,7.751-1.4375,5.85517,5.85517,0,0,1,3.71289-.7207A8.97213,8.97213,0,0,1,21.94678.1709c1.56445,1.57227-1.58594,3.14453-6.05566,4.7168A54.24542,54.24542,0,0,1,7.73682,8.165q-1.21069.95728.48438,1.27881a21.8776,21.8776,0,0,1,10.49512-.16016c1.73633,1.17188,1.252,2.63672-.24219,4.23633l-2.502.24023c-.58984-1.52344-2.3125-1.73437-4.19873-1.75977Q7.373,12.522,2.97314,13.03955C.94971,12.90674.62842,12.40088.55127,11.84033c.63965-1.89258,3.35986-3.22461,6.37842-4.47607,2.61914-.98633,5.812-1.9707,6.13623-2.957H11.2085A4.37352,4.37352,0,0,1,7.979,4.8877,62.86651,62.86651,0,0,1,.38965,7.52441Z"/>

</g>
</svg>
