<?xml version="1.0" encoding="UTF-8"?>
<svg xmlns="http://www.w3.org/2000/svg"
     version="1.1"
     width="14.81168586mm"
     height="12.80205118mm"
     viewBox="0.00000000 0.00000000 41.98595535 36.28932546">

<g transform="scale(5.09232383)">   <defs>
      <style type="text/css"><![CDATA[
      .b {
        stroke: #000;
        stroke-miterlimit: 10;
        stroke-width: .15px;
      }
    ]]></style>
   </defs>
   <path class="b"
         d="m4.13175.20123c-.27785.08363-.54693.25789-1.08511.60638-.1334.08638-.5778.37711-1.14894.82979-.40515.32112-.61025.48544-.73404.67021-.31067.46371-.34515.95407-.35107,1.08511-.02467.54591.18578.61823.09575.95744-.15643.58937-.89052.74336-.82979.98936.03644.1476.31524.15097.79787.28723.45631.12883.75912.28166,1.21277.51064.96356.48634.98277.78865,1.53191.89362.32379.06189.62012-.02257,1.21277-.19148.74295-.21175,1.69544-.48323,2.48936-1.30852.18841-.19586.45179-.47488.6383-.92554.08862-.21414.30473-.75668.15958-1.40425-.07713-.34407-.22515-.57915-.38298-.82979-.20942-.33257-.41586-.54788-.73404-.86169-.86902-.85709-1.31001-1.28737-1.62766-1.37234-.54675-.14626-1.0402.00227-1.24467.06383Z"/>

</g>
</svg>
