<?xml version="1.0" encoding="UTF-8"?>
<svg xmlns="http://www.w3.org/2000/svg"
     version="1.1"
     width="48.05959049mm"
     height="42.57827551mm"
     viewBox="0.00000000 0.00000000 136.23192191 120.69429828">

<g transform="scale(5.79267105)">   <defs>
      <style type="text/css"><![CDATA[
      .a {
        stroke: #000;
        stroke-miterlimit: 10;
        stroke-width: 0.15px;
        fill-rule: evenodd;
      }
    ]]></style>
   </defs>
   <path class="a"
         d="M1.39713,12.58969c.2354-.9453,3.0654-2.4648,4.1123-2.2265a7.26412,7.26412,0,0,0,2.2671-1.8536A10.99441,10.99441,0,0,1,11.52019,5.33q.68555-.55665,1.37061-1.1133c1.25683-.9278,2.11767-1.8985,2.10888-2.9668.19336-.1407.38672-.2832.58008-.4239a2.91535,2.91535,0,0,1,2.84716.2657,2.85694,2.85694,0,0,1-1.42333,2.17179C15.527,5.51548,12.8908,7.28109,9.72722,8.828A3.88759,3.88759,0,0,1,7.882,10.47059c-.9492,1.2265-1.8985,1.4941-2.8472,1.166q-1.95045,1.5615,1.793,1.6426-.7119,1.9599-4.1655,1.8008-.1056-.9552-.8433-.4239c-1.7754-.43361-2.0034-1.1582-1.5293-2.01361l1.1074-.05279Z"/>
   <path class="a"
         d="M9.67449,14.70889v-.4766H9.2531l.05274-2.2793h2.21435l.05274-.2109h1.15966c.43994-.3555.6333.1582.791.7949.00342,1.2539-1.35108,2.1367-2.8999,2.9668q-.60645.794-1.21289,1.5898-.342-.079-.68509-.1582a5.84506,5.84506,0,0,1-2.1616,1.0059q-.9756,1.11329.3691,1.3769c3.36528-.2031,5.89653-.6269,6.59038-1.5351q1.13379-.2667,2.26709-.5313a16.03807,16.03807,0,0,1,2.42529-.1582c-.01758.1758-.03515.3535-.05273.5293l-.58008-.0527a1.98071,1.98071,0,0,1-.84326,1.3242c-1.584,1.1152-3.58008,1.2617-5.58887,1.3789a4.03415,4.03415,0,0,1-3.05812.3164q-2.0559.082-4.1123.1602-1.55565-.0528-1.2129-.9532c2.6231-2.4628,5.4585-5.4277,6.90676-5.0878Z"/>
   <path class="a"
         d="M12.67986,8.45689a8.60775,8.60775,0,0,1-2.689,0,3.79974,3.79974,0,0,1,2.478-1.75,4.76363,4.76363,0,0,1,3.37451-1.8008c-.03515.6543-.07031,1.3067-.10547,1.961h.52735c-.01758.2285-.03516.4589-.05274.68939,1.80176.01561,3.2959.28131,3.69043,1.42971a1.42667,1.42667,0,0,1-1.2124.582,7.45729,7.45729,0,0,1-4.1123-.63471,1.60022,1.60022,0,0,1-1.89844-.47659Z"/>
   <path class="a"
         d="M20.11394,1.88659c.40381-1.0274.86035-1.9102,1.6875-1.8027,1.23877.5234,1.106,1.6582,1.0542,2.7558a13.0222,13.0222,0,0,0,.05273,4.6621q-.02636,2.4903-.05273,4.9824c.41943,2.1036.90088,4.3262.31641,4.5567a2.05337,2.05337,0,0,1-.84327,1.2715c-.52734.8203-1.16064,1.4043-1.6875.95309-.28125.08791-.457.01761-.73828.10741-1.14307-5.8652-1.85254-15.9375.21094-17.4863Z"/>

</g>
</svg>
