<?xml version="1.0" encoding="UTF-8"?>
<svg xmlns="http://www.w3.org/2000/svg"
     version="1.1"
     width="28.09122889mm"
     height="44.96572133mm"
     viewBox="0.00000000 0.00000000 79.62875636 127.46189143">

<g transform="scale(8.85879183)">   <defs>
      <style type="text/css"><![CDATA[
      .b {
        stroke: #000;
        stroke-miterlimit: 10;
        stroke-width: .15px;
      }
    ]]></style>
   </defs>
   <path class="b"
         d="m4.32109,1.51465c-.35663.60742-.54553,1.11789-.63831,1.37234-.51813,1.42096-.77722,2.13144-1.05322,3.1915-.12012.4613-.27142,1.09134-.41486,1.85104.15363.09882.37775.24896.63831.44684.36914.2803.5791.43973.79785.70212.20685.24814.39636.47543.4787.82977.13702.58978-.12598,1.08762-.15955,1.14896-.17401.31799-.33392.33588-.70215.82977-.16321.21893-.27856.41229-.35101.54254.00653.31473.03564.57553.06378.76596.05865.39713.12292.55688.15961.63831.08765.19449.20898.46387.383.47873.22449.0192.42645-.39468.54254-.63831.25537-.53595.32629-.98019.41486-1.56381.18121-1.19443.27148-1.79541.25531-1.97873-.05518-.62619-.21918-.82428-.15955-1.40427.05109-.49686.22162-.8396.31915-1.05319.93793-2.05356.43097-3.7731,1.5-4.72339.08075-.07178.27606-.23303.4787-.51065.2121-.29065.53979-.73959.47876-1.3085-.03949-.36813-.25146-.8775-.67023-1.02127-.16687-.05728-.30664-.03598-.54254,0-.54944.08377-.92834.34756-1.0213.41489-.14105.1022-.40289.31662-.79785.98935Z"/>
   <path class="b"
         d="m5.75724,9.36573c.00818-1.6955-.42627-3.70645-.54254-4.24469-.11969-.55411-.31519-1.36264,0-1.56381.17236-.11002.46594-.00952,1.05316.19147.41132.14081.56055.25183.60638.28723.25604.19781.38361.42935.47876.60638.14648.27249.20728.51312.28723.8298.07043.27893.05823.32062.12762.54254.09375.2999.19305.47012.25537.60638.18079.39548.16382.75443.15955,1.18085-.00739.73431.0498,1.46793.06384,2.20215.04114,2.15195.44751,3.07776-.03192,3.38297-.1347.08575-.16309.01028-.70215.06384-1.0174.1011-1.34625.41266-1.61945.23315-.28308-.186-.23059-.71808-.19971-1.09488,0-.00009.05127-.62607.06384-3.22339Z"/>
   <path class="b"
         d="m5.02324,12.17423c-.49194.03488-.43616-.02036-1.0213,0-.81451.02832-1.94537.06763-2.10638.54257-.05737.16916.02405.34738.12769.57446.17834.39062.47253.59964.57446.6702.14832.10263.43127.26144,1.81915.28723.78003.0145,1.27631.02109,1.94678-.09573.53625-.09341.4917-.14517,1.0213-.22342.82111-.12131,1.15149-.02985,1.37231-.28723.19891-.23181.18085-.59729.09576-.82977-.21448-.58609-1.00354-.73453-1.34045-.79788-.26733-.05029-.45496-.04416-.82977-.03192-.73218.0239-.96625.14233-1.65955.1915Z"/>
   <path class="b"
         d="m.5551,2.28061c.06519.05829.47968.61331,1.30853,1.72342,1.01764,1.36285,1.18799,2.32306,1.56384,2.26596.21771-.03308.34521-.3833.41486-.57449.18414-.50568-.02118-.75504.09576-1.27658.10919-.487.33606-.48291.44684-.86169.26202-.89575-.70264-1.95819-1.27661-2.42554-.39301-.31998-1.02869-.83755-1.78723-.70215-.60022.10715-.99347.57251-1.0213.60638-.10144.12335-.20984.25867-.22339.44681-.02625.36514.32416.65976.4787.79788Z"/>

</g>
</svg>
