<?xml version="1.0" encoding="UTF-8"?>
<svg xmlns="http://www.w3.org/2000/svg"
     version="1.1"
     width="20.69655864mm"
     height="44.29861786mm"
     viewBox="0.00000000 0.00000000 58.66736122 125.57087613">

<g transform="scale(5.28493839)">   <defs>
      <style type="text/css"><![CDATA[
      .a {
        stroke: #000;
        stroke-miterlimit: 2.61313;
        stroke-width: 0.28346px;
      }
    ]]></style>
   </defs>
   <path class="a"
         d="M1.63037,6.41211C1.1499,6.17188.66992,5.92969.18994,5.68945.71338,4.64648,2.4375,3.24414,4.708,1.67383A3.12836,3.12836,0,0,1,6.73828.81836Q8.5708-.76074,8.833,1.3457c1.5166.23047,2.43457.625,2.03027,1.38086a4.00294,4.00294,0,0,1-2.0957,2.83008c1.56641.85547,2.209,1.71094,1.50586,2.56641-.54687.21875-.98437.52539-.6543,1.44727a6.515,6.515,0,0,1-.52344,2.76563c-.02246.70117-.04492,1.4043-.06641,2.10547,1.2207.74414,1.75586,1.5332.85156,2.63281-.06543.6582-.13086,1.31445-.19629,1.97266q.32666.8877-.13184,1.252c-.71875,1.55859-1.54687,2.96289-3.14258,3.28906a11.16161,11.16161,0,0,0-.52344-3.35547H5.03516q-.36035-.92285.58936-1.05273a6.13508,6.13508,0,0,0,.26221-3.68555q-.98218-.39551-.13135-1.05273a6.1555,6.1555,0,0,0,.52393-1.18555c.49219-1.2207-1.02686-1.14648-2.48828-1.11719-.37109-.46094.21826-1.16406,1.24414-1.97461a1.22653,1.22653,0,0,0,.26221-1.11914,1.951,1.951,0,0,1-1.44092-.26367q-2.38989,0-1.11279-.78906A11.04585,11.04585,0,0,1,4.31494,6.60938,2.98083,2.98083,0,0,0,5.166,5.22852c-.72021-.13281-2.35742.56836-3.53564,1.18359Z"/>

</g>
</svg>
