<?xml version="1.0" encoding="UTF-8"?>
<svg xmlns="http://www.w3.org/2000/svg"
     version="1.1"
     width="16.69479984mm"
     height="30.43634386mm"
     viewBox="0.00000000 0.00000000 47.32374734 86.27616641">

<g transform="scale(6.53780177)">   <defs>
      <style type="text/css"><![CDATA[
      .b {
        stroke: #000;
        stroke-miterlimit: 10;
        stroke-width: .15px;
      }
    ]]></style>
   </defs>
   <path class="b"
         d="m.0759,1.73835c.01965.25958.34467.25769.55316.68085.10754.21826.06488.30768.08514,1.0213.01526.53815.02924.96918.12762,1.48938.05591.29559.07855.29987.12769.5957.05212.31372.07428.59564.08508,1.06384.02173.93823-.03912,1.02222,0,1.70215.0166.28882.04071.50183.08508.89362.04114.36316.07172.56299.17023,1.27661.13037.9444.11847.89661.12769.93616.07343.31561.3548,1.52484,1.10638,1.70209.46021.10852.89709-.21704,1.23401-.46808.60883-.45367.84869-1.05048.93622-1.27655.15082-.38959.18073-.7016.21271-1.06384.12207-1.383-.29401-1.88556.08514-2.68085.09613-.20166.22394-.46967.51062-.63831.40527-.23834.70599-.02985,1.10645-.29785.31689-.21204.43616-.5484.46802-.63831.08801-.24811.01709-.28937.0426-.97876.01819-.49005.05933-.61261-.0426-.72339-.05859-.06378-.17542-.13531-.68079-.08508-.8222.08173-1.09198.32849-1.31921.17017-.04724-.0329-.08179-.07574-.21277-.68085-.18073-.83484-.15784-.95111-.08508-1.02124.11597-.11182.24988-.00165.59576-.08514.20508-.0495.27161-.11566.5957-.29785.68463-.38489.86627-.35889.89362-.51062.04102-.22766-.36523-.30005-.68085-.85107-.22565-.39404-.12512-.54425-.34039-.72339-.21985-.18298-.50989-.18048-.97876-.17023-.34589.00757-.48633.04785-.80847.08508-.87897.10168-.9931-.06396-1.57446.04254-.40051.07336-.65765.20898-1.14899.46814C.70169,1.01777.04745,1.36286.0759,1.73835Z"/>

</g>
</svg>
