<?xml version="1.0" encoding="UTF-8"?>
<svg xmlns="http://www.w3.org/2000/svg"
     version="1.1"
     width="21.59423234mm"
     height="38.67464344mm"
     viewBox="0.00000000 0.00000000 61.21207153 109.62892374">

<g transform="scale(4.41199245)">   <defs>
      <style type="text/css"><![CDATA[
      .a {
        stroke: #000;
        stroke-miterlimit: 10;
        stroke-width: 0.15px;
      }
    ]]></style>
   </defs>
   <path class="a"
         d="M2.13646,3.56828C1.53865,5.71119-.12,6.19924.09392,7.65338A1.83386,1.83386,0,0,0,.562,8.67466c.53894.55339,1.23349.403,2.83291,1.03058a1.639,1.639,0,0,1,.748.47977,1.82,1.82,0,0,1,.31466,1.27645c-.19558,3.15732-1.44287,7.193-1.59774,9.12809a2.12344,2.12344,0,0,1-.51062,1.48937c-.35578.32792-.81766.37608-.89362.7234a.77082.77082,0,0,0,.21277.59575c.58777.74554,1.96826.85579,4.00934,1.10017,2.37832.28476,2.71493.39981,3.26724.09131.13709-.07657.0238-.032,1.65958-1.57446.375-.35365.61154-.5734.55319-.766-.04508-.14874-.25208-.23513-1.34775-.34883-1.37619-.1428-2.0643-.2142-2.43948-.20436-.466.01221-.70032.04873-.87277-.12015-.33143-.32458-.085-1.06593.0007-1.33949a31.5251,31.5251,0,0,0,.847-7.91894,7.59168,7.59168,0,0,1,.12891-2.1154A2.21377,2.21377,0,0,1,8.77428,8.62661a2.84436,2.84436,0,0,1,2.68566.439c.38837.33814.40482.60533.71906.67291.61166.13155,1.5332-.66919,1.61414-1.487.11059-1.11725-1.37107-2.02944-1.7418-2.25767-1.327-.817-2.43566-.67905-4.60125-1.66838a1.70811,1.70811,0,0,1-.90158-.7003c-.28894-.5426-.021-1.21336-.14872-2.09852A1.54769,1.54769,0,0,0,4.72481.07726,2.98943,2.98943,0,0,0,2.59733,1.47408C2.14079,2.23037,2.43071,2.51346,2.13646,3.56828Z"/>

</g>
</svg>
