<?xml version="1.0" encoding="UTF-8"?>
<svg xmlns="http://www.w3.org/2000/svg"
     version="1.1"
     width="63.21449216mm"
     height="52.76959573mm"
     viewBox="0.00000000 0.00000000 179.19072387 149.58314084">

<g transform="scale(6.60183578)">   <defs>
      <style type="text/css"><![CDATA[
      .b {
        stroke: #000;
        stroke-miterlimit: 10;
        stroke-width: .15px;
      }
    ]]></style>
   </defs>
   <path class="b"
         d="m8.86499,9.35675c-.02299.21599.19843.32717.4291.64104.18961.258.25778.54675.42196,1.10364.17656.59887.20166.96032.29787,1.44681.1076.54407.90154,3.44845,1.31915,4.17021.2747.47477.58737,1.01517,1.23404,1.23404.4036.1366.63826-.17254,1.40425-.08511.32811.03745.46319.10225.7234.04255.41632-.0955.67226-.39939.76596-.51064.38635-.45872.42324-.99373.42553-1.19149.00574-.49513-.18322-.79094-.55319-1.48936-.59779-1.12848-.9826-2.01389-1.14894-2.42553-.16038-.3969-.37407-.988-.55319-1.74468-.25532-.15603-.51064-.31206-.76596-.46808.22537-.11738.50119-.30919.55319-.59575.05277-.29079-.16713-.44659-.34043-.85106-.34365-.80208-.081-1.59471-.21277-1.61702-.0938-.01589-.12891.40242-.46808.55319-.19708.0876-.32589.00891-.46809.12766-.12906.10778-.11615.25045-.17021.46808-.00952.03833-.18921.73156-.59575.89362-.16129.06429-.20457-.0163-.80851-.12766-.70494-.12998-.90634-.06819-.97872-.04255-.03427.01214-.4795.17557-.51064.46809Z"/>
   <path class="b"
         d="m.73733,4.37803c-.23722.32079-.25611.66526-.25532.80851-.12923.17939-.31147.48383-.38298.89362-.02925.16761-.0678.51234.12766,1.23404.16232.59932.3629,1.00402.46809,1.23404.40445.88443.33852,1.24153.6383,2.34043.35412,1.2981.53778,1.13582,1.06383,2.68085.6098,1.79103.31798,1.87689.93617,3.44681.28552.7251.48061,1.04411.59574,1.74468.12506.76093-.00979.96444.17021,1.74468.13765.59663.27492,1.15672.76596,1.57447.41481.3529.8772.42991,1.10638.46809.78147.13016,1.4057-.14103,1.65957-.25532.28233-.1271.49635-.27348.6383-.38298-.1207-.07841-.28876-.21244-.42553-.42553-.08244-.12843-.1955-.35101-.21277-.6383-.00874-.14546-.0222-.36952.08511-.42553.10321-.05387.23171.09282.51064.25532.30034.17497.34822.11959.89362.34043.57792.234.54884.30618.76596.34042.35483.05596.59837-.11066,1.10638-.38298,1.08003-.57895,1.62004-.86842,2.17021-.89362.5647-.02586.80266.17115,1.10638-.04255.23901-.16817.1845-.3555.51064-.89362.35369-.58359.57045-.61513.55319-.85106-.02041-.279-.33712-.42072-1.19149-.93617-.38751-.23379-.76214-.48844-1.14894-.7234-1.87689-1.14012-2.2683-1.48656-2.76596-1.31915-.11337.03814-.02621.03363-.55319.42553-1.02674.76356-1.3544.7783-1.57447,1.23404-.13889.28762-.10097.47347-.29787.59574-.21416.13299-.39396-.00306-.76596,0-.69026.00568-1.01681.48187-1.19149.34043-.13658-.11059-.02273-.47115.17021-1.06383.17971-.55204.25202-.59237.34043-.89362.02999-.10221.25677-.91282-.04255-1.74468-.24208-.67277-.57029-.6425-.7234-1.31915-.10392-.45927.02998-.54968-.12766-.93617-.19093-.46811-.41963-.4146-.6383-.93617-.14567-.34745-.11421-.53824-.34043-.76596-.06112-.06153-.20695-.19209-.42553-.25532-.24985-.07227-.46457-.01891-.55319,0-.5607.11966-1.54645.02839-1.70213-.34043-.11831-.28029.24012-.7272.51064-.93617.12376-.0956.28277-.16432.59574-.29787.31412-.13404.57945-.23231.76596-.29787,1.64373-.42821,2.95781-.82866,3.82979-1.10638,1.38553-.44128,2.49907-.84156,5.14894-1.70213,2.1502-.6983,2.36427-.74237,2.7234-.76596,1.8517-.1216,3.04476.59809,3.61702-.04255.22163-.24811.23286-.61931.25532-1.3617.01921-.63474.03922-1.29628-.34043-1.78723-.22785-.29465-.56344-.48105-1.57447-.68085-1.40249-.27717-2.89841-.5728-4.7234,0-.3539.11108-.19394.08965-1.61702.7234-1.88896.84124-3.03813,1.35301-4.59574,1.82979-2.0438.62559-1.84338.28873-2.68085.68085-.33781.15817-.88335.45314-1.40426.25532-.2788-.10588-.35131-.27727-.6383-.29787-.51978-.03732-.91319.47956-.93617.51064Z"/>
   <path class="b"
         d="m18.82244.12271c-.39667.03216-.49227.03215-.59575.04255-.47885.04813-1.30725.33734-1.48936.89362-.0565.1726-.03224.31427.21277,1.02128.39718,1.14612.55315,1.48927.55319,1.48936.49927,1.09845.76062,1.57391,1.02128,2.12766.55033,1.16916.82753,2.11366,1.10638,3.06383.15046.51267.42016,1.44177.6383,2.68085.26502,1.50541.39754,2.25812.38298,3.23404-.01039.69633-.08726,1.56478.29787,2.46808.11046.25908.2771.56365.59575.76596.3778.23986.62654.11838,1.06383.21277,1.11126.23987,1.34235,1.42104,2,1.31915.26956-.04176.29372-.24996.7234-.59575.54361-.43746,1.12884-.6063,1.53192-.68085.12731-.39752.26717-1.01645.17021-1.74468-.08683-.65217-.32056-1.06874-.89362-2.21277-.00004-.00009-.43003-.85849-.93617-1.91489-.73389-1.53175-1.04476-2.8307-1.44681-4.51064-.32677-1.3654-.34908-1.8163-.76596-3.2766-.47261-1.65554-.72408-2.05734-1.06383-2.38298-.63252-.60625-1.10821-.50496-1.65957-1.2766-.21863-.30597-.41878-.70668-.80851-.76596-.09379-.01427-.13141.00146-.6383.04255Z"/>

</g>
</svg>
