<?xml version="1.0" encoding="UTF-8"?>
<svg xmlns="http://www.w3.org/2000/svg"
     version="1.1"
     width="40.05410070mm"
     height="18.63454610mm"
     viewBox="0.00000000 0.00000000 113.53916546 52.82238567">

<g transform="scale(5.59901992)">   <defs>
      <style type="text/css"><![CDATA[
      .a {
        stroke: #000;
        stroke-miterlimit: 2.61313;
        stroke-width: 0.28346px;
      }
    ]]></style>
   </defs>
   <path class="a"
         d="M12.11572,3.269c1.57617.30273,2.21094-.85791,2.41895-2.68506C11.59033-.67578,7.69141,1.28125,3.76074,3.3418,1.68115,4.21094-.10449,5.22559.16943,7.26025a12.71108,12.71108,0,0,0,8.86865,0q3.95728-.21826,7.91553-.43555,1.64941-1.125.65918-1.66895-.40283.18091-.80566.36279c-1.97266.16895-3.98828.33838-6.15674.5083a18.167,18.167,0,0,0-4.61768.36328Q2.07544,6.897,3.98047,4.793A65.13322,65.13322,0,0,1,10.064,2.32568c1.41895-.50781,2.00488-.09668,2.05176.94336Z"/>
   <path class="a"
         d="M11.75049,3.3418q.54785-.43579,1.09863-.87109A2.53142,2.53142,0,0,1,15.04736.14844,14.24885,14.24885,0,0,1,20.105,5.30078c-.85449.96777-1.49121,3.314-2.56543,2.90283q-.14648.54346-.293,1.08887h-.293c.17285-1.99023.126-3.51709-1.4668-1.81445C14.2417,6.09912,12.26221,4.43018,11.75049,3.3418Z"/>

</g>
</svg>
