<?xml version="1.0" encoding="UTF-8"?>
<svg xmlns="http://www.w3.org/2000/svg"
     version="1.1"
     width="56.62260647mm"
     height="24.52582167mm"
     viewBox="0.00000000 0.00000000 160.50500934 69.52195807">

<g transform="scale(5.79267105)">   <defs>
      <style type="text/css"><![CDATA[
      .a {
        stroke: #000;
        stroke-miterlimit: 10;
        stroke-width: 0.15px;
        fill-rule: evenodd;
      }
    ]]></style>
   </defs>
   <path class="a"
         d="M.9043,8.4265a6.46223,6.46223,0,0,0,.5615-4.061A3.90485,3.90485,0,0,1,3.1494.07841c3.7369.5498,4.3638,3.5112,2.8623,8.1226a19.55829,19.55829,0,0,0,6.0054-.5079,1.81775,1.81775,0,0,1,1.7402-.1128c-.5097,2.462-2.5117,3.5713-4.8828,3.6104-3.312.8555-6.249,1.0996-8.3628,0Q-.52675,9.13181.9043,8.4265Z"/>
   <path class="a"
         d="M16.5073,3.68831c.6548-1.2691,2.3755-2.002,4.8272-2.3692,1.373,1.6753.8935,3.5982-.7861,3.6665-2.126.5928-1.835,1.3452-.7857,1.2974a21.0596,21.0596,0,0,1,7.2403-.8457q.309.78945.6176,1.5791-.28125.282-.5615.5639a2.06134,2.06134,0,0,1-2.0767,1.918,4.71768,4.71768,0,0,1-2.0205.28219q.4491-1.29779-1.3471-.56439c-4.0938,1.0869-7.6953,1.6797-9.541.5078-.3492-2.4297,1.4897-4.3589,4.4335-6.0356Z"/>

</g>
</svg>
