<?xml version="1.0" encoding="UTF-8"?>
<svg xmlns="http://www.w3.org/2000/svg"
     version="1.1"
     width="18.10759403mm"
     height="42.62435044mm"
     viewBox="0.00000000 0.00000000 51.32863346 120.82492368">

<g transform="scale(4.25976843)">   <defs>
      <style type="text/css"><![CDATA[
      .a {
        stroke: #000;
        stroke-miterlimit: 10;
        stroke-width: 0.15px;
      }
    ]]></style>
   </defs>
   <path class="a"
         d="M11.93473,5.32735c0,3.002-.2265,6.02489-.2119,8.98689.0176,2.83981.0479,5.67821,0,8.51711a6.95906,6.95906,0,0,1-.4453,3.3193c-.3262.5742-1.6543,2.1919-2.4092,2.1372-1.666-.1221-.7597-3.7305-.7597-4.6958v-5.5215c0-2.5547-.2412-5.0991-.3409-7.6499-.0703-1.791.3457-4.1977-.3017-5.8989-.3086-.81251-1.33988-1.7788-1.9278-.4263a8.26392,8.26392,0,0,0-.20208,1.48c-.17482,1.7671.53318,6.8491-.88182,8.2427a3.00934,3.00934,0,0,1-1.2705.51709A9.4105,9.4105,0,0,1,.91915,13.19945c-1.90332-1.4214-.05662-5.7173.39358-7.4575.1699-.6475.43842-1.2778.5908-1.9082.2295-.9502.14162-1.87451.97362-2.582C3.86343.41,4.85073,1.074,5.89863.71505c.56052-.1919.5938-.4643,1.1787-.5839a5.2445,5.2445,0,0,1,4.3467,1.5766C12.18673,2.64085,11.93473,4.199,11.93473,5.32735Z"/>

</g>
</svg>
