<?xml version="1.0" encoding="UTF-8"?>
<svg xmlns="http://www.w3.org/2000/svg"
     version="1.1"
     width="51.85907338mm"
     height="49.61036130mm"
     viewBox="0.00000000 0.00000000 147.00216184 140.62776089">

<g transform="scale(4.30598027)">   <defs>
      <style type="text/css"><![CDATA[
      .b {
        stroke: #000;
        stroke-linecap: round;
        stroke-linejoin: round;
        stroke-width: .15px;
      }
    ]]></style>
   </defs>
   <path class="b"
         d="m29.01185.09557c1.04175-.15031,1.82447.53928,1.76231,1.53802-.07099,1.14071-1.11851,1.69351-1.81214,2.56337-.44694.56049-1.8252,2.47422-2.19312,1.15351-.24468-.87832-.10582-2.10299.33628-2.88527.24965-.44175.67865-.76207.88463-1.21612.19829-.43711.12397-1.12658,1.02204-1.15351Z"/>
   <path class="b"
         d="m25.61539.99275c-.14183.82836-.18814,1.62544-.38268,2.4352-.1853.77131-.49881,1.56145-.46159,2.35994-.61249.40232-1.39193.00456-1.96096.41164-.18978.13577-.2171.37266-.49448.5271-.33985.18921-.68258.20774-1.06349.22595-.84583.04044-1.59738.00416-2.41547.20799-1.01736.25348-2.05824.59874-3.08699.75658-.73813.11325-1.49068.09541-2.21421.25303-.2083.04538-.73037.08373-.89171.19773-.28344.20027-.22079.45051-.45178.64324-.67096.55984-1.86757.33542-2.66155.37663-1.09511.05684-2.17496.16091-3.2716.32202-1.56431.22982-3.13435.24871-4.73914.25473-.53351.002-1.16689-.14036-1.39399-.71748-.24002-.60995.42583-.69836.85475-1.06827.43482-.375.79183-1.13583,1.10174-1.67149.44329-.76619.74595-1.11692,1.50599-1.61945,1.75198-1.1584,3.72414-.74697,5.69841-.94723,1.53167-.15537,3.15382.05519,4.62928-.41859,1.24723-.4005,2.45596-.37249,3.6846-.60881.82907-.15946,1.62693-.57944,2.4636-.70886.43388-.06712.88579-.02677,1.32119-.11989,1.05388-.22541,2.10407-.68096,3.14042-.97951.31848-.09175.56344-.27732,1.08966-.1122Z"/>
   <path class="b"
         d="m27.47383,8.93919c.80604,0,2.28167-.31279,2.81948.3845.4221.54728.45155,1.84838.2471,2.48982-.50946.14179-1.44576-.76773-1.87566-1.08174-.33337-.2435-1.68666-1.4408-1.19092-1.79259Z"/>
   <path class="b"
         d="m25.67947,9.64411c-.00049.857.24069,1.51673.54824,2.27874-.10159.67487,2.60832.1851,3.23295.34517,1.82472.46763-.29071,2.00164-1.07643,2.49004-1.14857.71394-1.80044,1.60593-2.70476,2.52631-.56793.57801-1.33785.88649-1.90975,1.41316-.19929.18353-.2709.4406-.47459.62157-.43708.38832-1.16534.56006-1.71045.75624-.72362.26041-1.53745.14299-2.24955.41324-.63249.24004-.97412.66351-1.72184.55281.13079-.44832.93108-.92505,1.33734-1.2046.67476-.46431,1.29987-.2184,1.85844-.99599.24333-.33875.36772-.69965.76901-.88333.38171-.17472.62931-.06737.96435-.35268.4676-.3982.50503-1.09124.63138-1.61762-.72518-.27772-2.24509-.1371-3.06715-.06346-.89701.08036-1.76283.20416-2.6767.25719-.98145.05696-1.73234.54723-2.70888.49819-.99355-.04989-1.86707.01398-2.81959.33645-1.13269.38346-2.3025.71457-3.51048.77055-1.43987.06673-2.72299.51293-4.12375.75475-.56146.09693-2.01734.46879-2.32612-.21272-.32646-.72054.82688-1.98931,1.28037-2.45692.51371-.5297.955-1.22636,1.54533-1.75368.621-.55472,1.49495-.8027,2.31067-.9968.91301-.21725,1.83369-.46129,2.74177-.59284,1.24977-.18105,2.31897-.58223,3.62013-.64084.61061-.02751.94703-.29215,1.48819-.43411.73069-.19168,1.61204-.09603,2.35708-.26773.80844-.18631,1.43469-.50875,2.27465-.51576.75424-.0063,1.1715-.26655,1.85855-.54637,1.18313-.48186,2.99493-.60588,4.2616-.47898Z"/>
   <path class="b"
         d="m24.67155,7.34078c.06196.26483-.26806.65991-.42623.7854-.29768.23619-.73359.41467-1.1193.35468-.00713-.38916,1.00372-1.56895,1.42472-1.30315.06824.04308.10588.0993.1208.16307Z"/>
   <path class="b"
         d="m31.70294,19.22454c.02404.35358.20485.62691.1993,1.0165-.00864.6069-.16469,1.09294-.39746,1.65192-.48583,1.16665-.71222,2.58848-.83813,3.84863-.04592.45954-.10217.74378-.2859,1.16885-.42937-.02077-.35503-1.78022-.35193-2.14536.00698-.82309.52939-1.47956.66861-2.27216.1264-.71958.06605-1.4519.04887-2.19216-.00657-.28323.0873-.57937-.15872-.72046-.27448-.15741-1.05448.07087-1.3949.0827-1.79801.06248-3.591-.10399-5.37587.11071-.73681.08863-1.38754.54567-2.03797.88465-.90476.47153-1.65309.62467-2.66907.8182-1.80204.34326-3.57012.2193-5.38424.2193-1.84628,0-3.69595.1824-5.54193.07972-1.28269-.07135-2.58299-.64354-2.82612,1.07828-.10934.77433-.26401.8465-.84083,1.35411-.43937.38665-1.24168.68802-1.50489,1.27666-.23878.534.07601,1.20964.39155,1.64912.35455.49382,1.19502.42821,1.77771.46935,2.99921.21177,6.27346-.04759,9.28664-.54379,1.2915-.21268,2.65788.19849,3.96265.01766.81847-.11343,1.56873-.58037,2.43256-.5979.69842-.01417,1.37798.11132,2.09041.08011.75864-.03323,1.5301-.35777,2.29139-.28033.68875.07005,1.22303.31974,1.91627.3198.31804.00003,1.15105.05309,1.26744.47846.09264.33857-.64971.99183-.85097,1.25095-.80019,1.03025-1.61168,1.98866-2.57211,2.83095-.06454.3617-.32162.76142-.36853,1.09977-.04717.3402.05937.33599.42804.31881.92899-.0433,1.78721-.68099,2.53276-1.17808.63267-.42183,1.05653-.74097,1.7954-1.00423,1.10464-.39358,1.52394-1.12217,2.30408-1.92606,1.22866-1.26605,2.2023-2.94481,2.19819-4.74051-.00113-.49482.21595-.8979.15944-1.39603-.05713-.50361-.34339-.73748-.54903-1.15502-.2705-.54921-.02574-1.08026-.51073-1.60082-.25345-.27204-.94514-.83708-1.29198-.35232Z"/>

</g>
</svg>
