<?xml version="1.0" encoding="UTF-8"?>
<svg xmlns="http://www.w3.org/2000/svg"
     version="1.1"
     width="25.00423229mm"
     height="27.19852779mm"
     viewBox="0.00000000 0.00000000 70.87816504 77.09815420">

<g transform="scale(7.75753200)">   <defs>
      <style type="text/css"><![CDATA[
      .a {
        stroke: #000;
        stroke-miterlimit: 10;
        stroke-width: 0.15px;
      }
    ]]></style>
   </defs>
   <path class="a"
         d="M.42784,2.69769a1.18491,1.18491,0,0,0-.34131.546c-.09773.49183.44377.90772.945.92193a4.72336,4.72336,0,0,0,1.44921-.37052,1.12953,1.12953,0,0,1,.80529-.00888.48187.48187,0,0,1,.22623.68155c-.17376.2201-.52637.16787-.76557.31422a1.02108,1.02108,0,0,0-.30765.35992L1.65351,6.42181a1.05867,1.05867,0,0,0-.22778.78365c.07418.28248.36043.44645.62054.57926L5.908,9.75649a.707.707,0,0,0,.3467.10653c.23494-.012.38842-.24093.5206-.43554A4.29266,4.29266,0,0,1,8.21692,8.103a1.66619,1.66619,0,0,0,.74114-.58474,1.38948,1.38948,0,0,0,.10355-.63744,1.43909,1.43909,0,0,0-.29134-1.07455,2.367,2.367,0,0,0-.66789-.36954c-.877-.45918-.70026-1.084-1.38-1.3323a7.72213,7.72213,0,0,1-1.29509-.304c-.20023-.111-.24355-.21218-.24562-.27573a.369.369,0,0,1,.07048-.19614A12.64966,12.64966,0,0,0,6.088,2.01534,1.42744,1.42744,0,0,0,6.01058.53961,1.49141,1.49141,0,0,0,5.01489.09648,3.05257,3.05257,0,0,0,3.27557.46614a7.5791,7.5791,0,0,0-1.41335.9053A9.44366,9.44366,0,0,0,.42784,2.69769Z"/>

</g>
</svg>
