<?xml version="1.0" encoding="UTF-8"?>
<svg xmlns="http://www.w3.org/2000/svg"
     version="1.1"
     width="15.26882145mm"
     height="25.55892941mm"
     viewBox="0.00000000 0.00000000 43.28165540 72.45048446">

<g transform="scale(5.27562571)">   <defs>
      <style type="text/css"><![CDATA[
      .b {
        stroke: #000;
        stroke-miterlimit: 10;
        stroke-width: .15px;
      }
    ]]></style>
   </defs>
   <path class="b"
         d="m3.82416,2.80684c.01467.80927.00879,1.47993,0,1.95745-.03639,1.97796-.15845,2.59806-.21277,2.85106-.0789.36756-.20292.93004-.51064,1.61703-.43595.97328-.97517,1.60387-1.31915,2-.37222.42866-.92825.9896-1.70213,1.53191-.00829.08261-.02116.32109.12766.55319.03226.05031.21352.33298.46809.34042.22106.00646.32108-.19977.59574-.42553.27493-.22598.42377-.22404,1.02128-.46809.39191-.16006.84795-.34633,1.23404-.59575.45381-.29317.74226-.66353,1.31915-1.40425.38054-.4886.35458-.51721.97872-1.3617.57159-.77338.56645-.71297.76596-1.02128.25771-.39825.459-.86666.85106-1.78723.52557-1.23406.59738-1.54885.6383-1.82979.03243-.2227.0358-.48889.04256-1.02128.01289-1.01704.01934-1.52555-.08511-2.12766-.06503-.37486-.19252-.90884-.46809-1.53191-.20399.0336-.48045.11521-.68085.34042-.12163.13668-.13966.24131-.25532.42554-.16233.25858-.34773.40437-.59574.59574-.38547.29745-1.16208.79699-2.21277,1.3617Z"/>

</g>
</svg>
