<?xml version="1.0" encoding="UTF-8"?>
<svg xmlns="http://www.w3.org/2000/svg"
     version="1.1"
     width="27.20158846mm"
     height="49.43736352mm"
     viewBox="0.00000000 0.00000000 77.10687210 140.13737773">

<g transform="scale(3.04259138)">   <defs>
      <style type="text/css"><![CDATA[
      .a {
        stroke: #000;
        stroke-miterlimit: 10;
        stroke-width: 0.15px;
      }
    ]]></style>
   </defs>
   <path class="a"
         d="M5.18356,4.21916c-1.1363.8926-.6416,1.9346-.9668,3.1485a9.42152,9.42152,0,0,1-2.8111-.3457V4.82856s2.0401-3.2578,7.4927-4.7529a2.53433,2.53433,0,0,1,2.2305,1.7802c.1802.3926.4321.7549.5884,1.1436.184.458.0942.9941.3252,1.4385.2983.5732.8325.9228.9985,1.581a11.90321,11.90321,0,0,1,.0381,2.7071,26.96567,26.96567,0,0,1-.1616,3.8691c-.1553,1.0723-.6045,2.0478-.6709,3.085a23.62418,23.62418,0,0,1-.293,2.5752c-.4273,2.4326-.3901,4.8574-.6275,7.2939-.1982,2.0352-.4897,4.085-.5693,6.1289-.0581,1.4941-.2183,3.0635-1.5474,4.0147-.3906.2792-.6074.1103-.7631.7333a4.71778,4.71778,0,0,0-.0337,1.1329,7.92644,7.92644,0,0,0-.0078,1.2041c.0649.3808.269.6093.3584.9716.0761.3067-.0415.5567.1001.8702.1005.2236.352.375.4697.5712.061.1006.2285.6465.27.6924a.48458.48458,0,0,0,.4443.2305c.1704.2021.3238.4307.5235.626.8037.7881,1.7866,1.4492.8037,2.625-.7525.9004-2.5957.6582-3.6148.3799a2.94948,2.94948,0,0,1-2.1801-2.9991,33.4431,33.4431,0,0,1,.2959-4.6298c.1049-.9239.0673-1.8067.2382-2.7354.2325-1.2617,1.229-2.3486,1.3003-3.6426a34.53507,34.53507,0,0,1,.566-3.8496,50.07229,50.07229,0,0,1,1.062-5.7812,14.7915,14.7915,0,0,0,.4995-2.1573c.0962-.7724.3462-1.458.3701-2.2412.0542-1.8037.001-3.6172.001-5.4218,0-3.0059.5639-7.4297-1.7442-9.8204A15.51352,15.51352,0,0,0,5.18356,4.21916Z"/>
   <path class="a"
         d="M6.83586,28.643a3.71211,3.71211,0,0,0-1.7163.7198c-.5537.4267-.9746,1.0732-1.5635,1.4394-.5688.3574-3.5317,1.4678-3.4804-.0761.0293-.8711,1.0517-1.1426,1.5688-1.6573.6621-.6592.6108-1.6884,1.2539-2.3896.7603-.8291,2.0283-.1094,3.0039-.253,1.3384-.1962,2.6568-.3613,3.9771-.6718a21.13916,21.13916,0,0,1,2.7627-.7266,4.408,4.408,0,0,0,1.71432-.3232c.41016-.1905.92334-.5352,1.42871-.3731.167,1.0156-.334,1.211-.84082,1.9414-.35644.5117-.44092,1.1621-.86523,1.6192-.834.8965-2.70068.58-3.77048.4883A11.86188,11.86188,0,0,0,6.83586,28.643Z"/>
   <path class="a"
         d="M20.68744,26.66746c-.14893-.5635.667-1.4932.95947-1.8223a2.10208,2.10208,0,0,1,2.90722-.3643c1.375.9932.50342,3.045-.44824,4.0108a10.39515,10.39515,0,0,0-1.5166,1.9433c-.36279.5674-1.44238,1.4239-2.1792,1.1836a3.79092,3.79092,0,0,0,1.68213-3.4629,1.2491,1.2491,0,0,0-.41406-1.0752c-.27735-.1943-.74121-.0039-.92529-.2695A.42436.42436,0,0,1,20.68744,26.66746Z"/>

</g>
</svg>
