<?xml version="1.0" encoding="UTF-8"?>
<svg xmlns="http://www.w3.org/2000/svg"
     version="1.1"
     width="24.51743437mm"
     height="23.81542063mm"
     viewBox="0.00000000 0.00000000 69.49828862 67.50819452">

<g transform="scale(5.10555451)">   <defs>
      <style type="text/css"><![CDATA[
      .a {
        stroke: #000;
        stroke-linecap: round;
        stroke-linejoin: round;
        stroke-width: 0.01px;
      }
    ]]></style>
   </defs>
   <path class="a"
         d="M2.21577.15037A2.319,2.319,0,0,0,1.85236.8348a1.05893,1.05893,0,0,1-.27256.3392c-.18171.15748-.23017.23017-.19988.33313.07268.29679-.3513.98122-.61175.98122-.14537,0-.2665.20594-.24228.3937a1.237,1.237,0,0,1,.02423.27256c0,.04846-.006.18171,0,.29679a.8125.8125,0,0,1-.3937.66021L.005,4.18427v1.175C.005,6.4798.01106,6.54642.12614,6.607a2.77778,2.77778,0,0,1,.424.43c.27256.32708.30285.3937.26651.56935-.03029.17565-.00606.23016.26044.50273A1.98089,1.98089,0,0,0,2.70032,8.733,2.58208,2.58208,0,0,0,4.1661,8.418a1.31767,1.31767,0,0,1,.35735-.212c.12114-.03029.51484-.44822.41793-.44822-.01817,0,.00606-.07873.05451-.17565a.90289.90289,0,0,1,.37553-.3089A1.73076,1.73076,0,0,0,5.747,7.025a.91259.91259,0,0,1,.2665-.16959c.13326-.04846.19383-.03635.36342.08479a1.92063,1.92063,0,0,0,.82374.38764.5571.5571,0,0,1,.54512.17565c.23016.24228.57541.24834,1.066.01818.52089-.24834.76317-.27862,1.09024-.13326a.72976.72976,0,0,1,.49667.66021,3.19145,3.19145,0,0,0,.54512,1.34463,3.124,3.124,0,0,1,.58752,1.16293,1.395,1.395,0,0,0,.09691.36341.45656.45656,0,0,1,.03634.33313c-.07268.25439-.07268.25439-.08479.3089a7.44925,7.44925,0,0,1-.636.957c-.07874.07874-.09691.15748-.06663.321.06057.35736.18777.41793.70261.35736a1.12621,1.12621,0,0,0,.67837-.24228,2.69788,2.69788,0,0,0,.67837-.957,2.24762,2.24762,0,0,1,.19988-.41187A1.4807,1.4807,0,0,0,13.306,11.077a.45765.45765,0,0,1,.17565-.37553c.14537-.11508.15143-.14536.0848-.3089a.95913.95913,0,0,1-.06057-.321.18791.18791,0,0,0-.08479-.16959,1.56732,1.56732,0,0,1-.41793-.70866.84978.84978,0,0,0-.09085-.27256.24113.24113,0,0,1-.00606-.25439,2.476,2.476,0,0,0,.05451-1.15081,1.97106,1.97106,0,0,1-.02423-.81163,1.051,1.051,0,0,0-.12719-.68443c-.1272-.27256-.14537-.36341-.09086-.49666a1.32691,1.32691,0,0,0,.06057-.41793.79911.79911,0,0,1,.02423-.29679c.01817-.01817.00606-.103-.03028-.19382a3.212,3.212,0,0,1-.18777-.86008.74162.74162,0,0,0-.07874-.30285,7.61466,7.61466,0,0,1-.533-1.08419c.01212,0-.01817-.06662-.06662-.14536a.48824.48824,0,0,0-.27256-.17565.41243.41243,0,0,1-.25439-.19382.91875.91875,0,0,0-.30891-.26651.49159.49159,0,0,0-.45426-.04845.936.936,0,0,1-.32708.04845.15079.15079,0,0,0-.13931.109,2.612,2.612,0,0,1-.39369.50272c-.29679.3089-.34525.3937-.29679.48455.04845.0848.03028.16354-.06057.30891-.06663.109-.18777.321-.27256.47244-.22411.41792-.38765.43609-.57541.06662a2.44125,2.44125,0,0,1-.212-.64809,1.42028,1.42028,0,0,0-.09086-.2241c-.07268-.14537-.07268-.18777.03029-.33313a.77481.77481,0,0,0,.11508-.23017.88676.88676,0,0,1,.04846-.19382.75169.75169,0,0,0-.01212-.36341.38837.38837,0,0,1,.0242-.36336A.54419.54419,0,0,0,8.39988.5986a.97438.97438,0,0,0-.8298-.09691A1.19642,1.19642,0,0,0,7.346.8348a.70025.70025,0,0,1-.23622.28467,1.91339,1.91339,0,0,0-.5633.82374,1.55415,1.55415,0,0,1-.15748.41793.829.829,0,0,1-.38764.43c-.24833.12719-.36341.27862-.315.41187a.41941.41941,0,0,1-.09691.25439c-.109.14536-.12114.2241-.09085.527.01817.19382.03634.44821.0424.56329a.74579.74579,0,0,0,.12113.37553c.1696.25439.09086.44821-.24833.61175a1.29873,1.29873,0,0,0-.56329.55118,3.13082,3.13082,0,0,1-.36947.46638c-.15143.09691-.44216.04846-.92671-.15142A1.14644,1.14644,0,0,1,2.8699,5.9165a1.001,1.001,0,0,1-.18777-.38764,2.03634,2.03634,0,0,0-.18776-.527,1.38653,1.38653,0,0,1-.16959-.56329,1.22552,1.22552,0,0,0-.15748-.64809.93788.93788,0,0,1-.0424-.636A.78431.78431,0,0,1,2.458,2.94855c.15142-.06057.26045-.1272.24227-.15748a.4684.4684,0,0,1,.12114-.24833,1.496,1.496,0,0,0,.37553-.8722.96607.96607,0,0,1,.13931-.46638c.14537-.19988.15142-.26651.03029-.62386C3.21516.13825,3.05163.005,2.664.005,2.39748.005,2.31268.03528,2.21577.15037Z"/>

</g>
</svg>
