<?xml version="1.0" encoding="UTF-8"?>
<svg xmlns="http://www.w3.org/2000/svg"
     version="1.1"
     width="22.74397321mm"
     height="41.27552952mm"
     viewBox="0.00000000 0.00000000 64.47120397 117.00149905">

<g transform="scale(6.18091459)">   <defs>
      <style type="text/css"><![CDATA[
      .b {
        stroke: #000;
        stroke-miterlimit: 10;
        stroke-width: .15px;
      }
    ]]></style>
   </defs>
   <path class="b"
         d="M.95358,1.46486c-.13617,.0708-.32471,.19678-.43085,.41492-.08411,.17285-.0636,.29504-.11169,.60632-.03882,.25134-.06543,.25745-.15955,.6543-.12335,.52014-.18506,.78015-.17554,1.02124,.01624,.41113,.1593,.72681,.23932,.87769,.18243,.34399,.41516,.5437,.62238,.71802,.18054,.15186,.38873,.27356,.79785,.51062,.84222,.48804,.8847,.44531,1.0213,.62244,.17841,.23145,.17981,.40039,.49469,.82971,.06671,.09094,.14648,.19214,.25531,.30322,.20203,.20605,.28064,.21777,.39893,.33508,.30383,.30139,.10797,.54419,.39893,.90955,.1955,.24548,.34363,.21082,.46277,.46277,.06976,.14746,.07324,.27417,.07977,.51074,.01288,.46741-.10272,.64209,.03192,.82971,.073,.10181,.11548,.06226,.20746,.17554,.13556,.16699,.11902,.34619,.14362,.70215,.01263,.18262,.02997,.43298,.07977,.6543,.07098,.31531,.17261,.41479,.31915,.73401,.23145,.50427,.29089,.93774,.33514,1.26062,.06927,.50549,.10504,.76624-.03192,1.05322-.08411,.17639-.16406,.21716-.22345,.43079-.06256,.2251,.00525,.25537-.04785,.67029-.02356,.18396-.047,.25708,0,.35107,.06256,.12524,.1684,.12451,.23938,.23926,.07373,.11914,.03461,.24097,0,.4469-.0719,.42834-.11914,.70947,.01593,.87769,.10815,.13464,.29871,.15393,.51068,.17542,.14386,.01453,.33746,.03418,.52655-.06372,.0567-.02942,.22583-.12769,.39893-.52661,.14191-.32703,.17554-.60034,.20746-.87769,.06976-.60535,.10461-.90796,.12769-1.19678,.08276-1.03552,.10168-.8783,.12762-1.37244,.04456-.84888,.07074-1.34705-.07977-1.97864-.10034-.42126-.16718-.4314-.31915-1.03723-.11023-.43958-.15674-.75989-.22339-1.22876-.18689-1.31494-.03979-1.15515-.19147-2.12231-.09125-.58179-.18628-.90613,.01593-1.21277,.14008-.2124,.36194-.3241,.51062-.39893,.41608-.20947,.56104-.08032,.97345-.25537,.36224-.15381,.26801-.26086,.76593-.54248,.42542-.2406,.57526-.20825,.79785-.4469,.08356-.0896,.26343-.28796,.28723-.59033,.00415-.05225,.02954-.37463-.17548-.59045-.13538-.14258-.32129-.18616-.84576-.19153-.53223-.00549-.93268,.03333-1.35638,.07983-.98309,.10779-1.18085,.15698-1.29254,.33508-.11469,.18286-.03125,.3302-.19153,.49463-.2038,.20898-.54547,.18274-.63831,.17554-.19489-.01501-.24542-.07178-.79785-.3031-.26807-.1123-.4021-.16833-.52197-.20667-.54028-.17261-.6803-.07336-.86633-.22424-.17297-.14026-.12762-.28735-.27124-.86169-.18011-.72021-.31879-.75793-.35107-1.14893-.021-.25452,.00513-.63416,.25531-1.11707-.04199-.00781-.1499-.03357-.23938-.12769-.01733-.01819-.15491-.16797-.11169-.36694,.02325-.10706,.10406-.25244,.22339-.27124,.12567-.01978,.17322,.11963,.383,.17542,.10205,.0271,.17889,.01758,.31915,0,.17267-.02161,.40332-.05042,.57446-.22339,.00928-.0094,.20319-.20886,.14362-.31909-.0484-.0896-.2514-.09692-.39893-.03198-.23969,.10547-.29688,.38562-.367,.36707-.07983-.02112,.0235-.37646-.14362-.51062-.09595-.07703-.24115-.04907-.36707-.01599-.22131,.05823-.63434,.19861-1.19678,.57446,.04468,.03516,.12292,.10791,.15955,.22339,.07849,.24756-.10529,.46875-.12762,.49475-.22589,.26331-.62201,.22107-.75,.2074-.20111-.02148-.35529-.09241-.44684-.14355Z"/>

</g>
</svg>
