<?xml version="1.0" encoding="UTF-8"?>
<svg xmlns="http://www.w3.org/2000/svg"
     version="1.1"
     width="14.23610727mm"
     height="41.97256474mm"
     viewBox="0.00000000 0.00000000 40.35430765 118.97726700">

<g transform="scale(6.18907368)">   <defs>
      <style type="text/css"><![CDATA[
      .b {
        stroke: #000;
        stroke-miterlimit: 10;
        stroke-width: .15px;
      }
    ]]></style>
   </defs>
   <path class="b"
         d="M.94409,.86884c-.07738,.1835-.18523,.43929-.09575,.70212,.07457,.21904,.2307,.27991,.19894,.37523-.05957,.17883-.61887-.00584-.85838,.27811-.12805,.15181-.15631,.42763-.04268,.59135,.18596,.26793,.6077,.02792,1.34042,.2234,.13516,.03606,.59077,.1696,1.02127,.54256,.16963,.14696,.41989,.36375,.54814,.70262,.16362,.43231,.04802,.85019-.06941,1.21227-.41063,1.26617-1.13751,2.75659-1.38486,3.64481-.03679,.13213-.10561,.40401-.0312,.7233,.07245,.31094,.2455,.51572,.31886,.60263,1.20667,1.42949,1.57939,1.93286,1.76741,2.21011,.45615,.67262,.70285,1.03641,.66701,1.5173-.04742,.63625-.55231,.97931-1.29587,1.65076-1.7299,1.56212-2.90829,3.23698-2.84445,3.30118,.02388,.024,.24164-.15703,.31058-.21419,2.24239-1.85905,3.23982-2.1505,4.59891-3.79759,.46588-.56461,.77472-.9451,1.03267-1.56172,.0612-.1463,.71478-2.10548-.04535-3.32204-.14627-.2341-.34862-.31224-.60434-.44603-.23454-.12271-1.18173-.64157-1.59575-1.34042-.2784-.46992-.27309-.94928-.27042-1.19127,.01147-1.03807,.62798-1.57704,1.75562-3.83629,.1595-.31956,.28079-.57651,.24594-.90987-.07022-.67174-.70276-1.11394-1.34816-1.56258-.65007-.45187-1.1687-.60364-1.7234-.76596-.51599-.15099-.7462-.15321-.96034-.06305-.39587,.16669-.57031,.5789-.63541,.73326Z"/>

</g>
</svg>
