<?xml version="1.0" encoding="UTF-8"?>
<svg xmlns="http://www.w3.org/2000/svg"
     version="1.1"
     width="18.53749617mm"
     height="51.91106127mm"
     viewBox="0.00000000 0.00000000 52.54726178 147.14946145">

<g transform="scale(7.55223773)">   <defs>
      <style type="text/css"><![CDATA[
      .b {
        stroke: #000;
        stroke-miterlimit: 10;
        stroke-width: .15px;
      }
    ]]></style>
   </defs>
   <path class="b"
         d="m2.18983,5.168c-.04077.24181-.09578.75916-.2058,1.79388-.11482,1.07985-.10776,1.27925-.19519,1.68275-.14746.68057-.42046,1.32632-.63878,1.98759-.38727,1.17302-.60239,2.39512-.79301,3.61562-.21025,1.34621-.39239,2.71787-.20191,4.06702.1153.81662.56455.99532.78087,1.06179.36174.11115.72077-.08943.89939-.19247,1.39038-.80206,3.93853-2.272,3.61702-3.02128-.25997-.60586-2.09143-.03034-2.67344-1.03302-.09879-.17018-.16302-.37036-.19692-.7822-.04972-.60406-.09034-1.21743.02781-1.8119.18861-.94899.43797-1.35384.69112-2.08832.6871-1.99347-.18564-2.29451.49186-3.98669.41284-1.03115.856-1.21681,1.22386-2.52179.16809-.59629.14635-.80863.39316-1.18034.41539-.62558.93441-.71302,1.31915-1.48936.18582-.37495.16753-.56196.12766-.68085-.1058-.31548-.48273-.50665-.79606-.51324-.46845-.00985-.82154.39233-1.03373.6409-1.73333,2.03059-2.6,3.04588-2.83707,4.45192Z"/>

</g>
</svg>
