<?xml version="1.0" encoding="UTF-8"?>
<svg xmlns="http://www.w3.org/2000/svg"
     version="1.1"
     width="38.89203199mm"
     height="47.21658565mm"
     viewBox="0.00000000 0.00000000 110.24508254 133.84234663">

<g transform="scale(5.48693194)">   <defs>
      <style type="text/css"><![CDATA[
      .a {
        stroke: #000;
        stroke-linecap: round;
        stroke-linejoin: round;
        stroke-width: 0.01px;
      }
    ]]></style>
   </defs>
   <path class="a"
         d="M8.266.18671a3.468,3.468,0,0,1-.95094.93276,1.54837,1.54837,0,0,0-.3513.315.7152.7152,0,0,1-.26045.22411c-.49666.212-.99939.88431-.92065,1.22349.02423.09691.07874.36947.11508.60569a5.02662,5.02662,0,0,0,.29679,1.21139,1.10161,1.10161,0,0,1,.103.33313.84227.84227,0,0,0,.0848.29073c.03634.07268.05451.13325.03634.13325s.02423.109.09085.24833c.14537.27862.15748.34525.218,1.28407a2.93434,2.93434,0,0,1-.02423,1.16292.57977.57977,0,0,0,.03029.41187.53726.53726,0,0,1,.0424.36342,3.53948,3.53948,0,0,0-.04846.50878.80644.80644,0,0,1-.07874.38764,5.972,5.972,0,0,1-1.8837,0c-.34524-.06662-.40581-.06057-.61175.0424-.19382.103-.24833.109-.37553.0424a5.36489,5.36489,0,0,0-1.39914-.15748.53572.53572,0,0,1-.424-.16354c-.25439-.2241-.39369-.2665-.636-.19988a.31381.31381,0,0,1-.315-.03634c-.16354-.109-.33313-.06057-.636.19988-.41187.35736-.43.39976-.2665.79951a3.39689,3.39689,0,0,0,.33313.60569,1.3679,1.3679,0,0,1,.19988.321c0,.12719.32707.54512.41793.527a1.03231,1.03231,0,0,1,.321.06663.96143.96143,0,0,0,.54512.01211,2.29227,2.29227,0,0,1,.76923-.01211,1.17866,1.17866,0,0,0,.57541-.00606,1.948,1.948,0,0,1,1.066.03028,1.164,1.164,0,0,0,.54513.06663,1.84036,1.84036,0,0,1,.99333.07268,1.30468,1.30468,0,0,1,.90854,1.23561,1.43013,1.43013,0,0,0,.07268.45427,5.48094,5.48094,0,0,1-.0848,1.84736.82869.82869,0,0,0,.03634.47849,1.1476,1.1476,0,0,1,.04846.53907.8835.8835,0,0,0,.03634.45427,5.78925,5.78925,0,0,1,.07874,1.31435,7.76481,7.76481,0,0,0,.06663,1.29012c.04239.07874.03634.212-.02423.47244a1.0368,1.0368,0,0,0,.04845.79951c.26651.83585.44216,1.1811.636,1.272a1.46869,1.46869,0,0,0,1.066.06057c.09692-.06057.17566-.12719.17566-.15748a.75939.75939,0,0,1,.29073-.18171,1.56868,1.56868,0,0,0,.76922-.59357,1.41042,1.41042,0,0,0,.09086-.93277.56357.56357,0,0,1-.09086-.28467c-.01211-.109-.06662-.40582-.11508-.65415a5.03926,5.03926,0,0,1-.09691-.72683.82638.82638,0,0,0-.08479-.38158c-.06057-.07874-.06663-.1696-.03029-.3513a.41974.41974,0,0,0-.00606-.33313.63306.63306,0,0,1-.02422-.642c.12719-.23622.14536-.50878.13931-1.86552-.00606-.54513-.00606-1.71411,0-1.90793V12.7124c0-.43.06662-.56935.321-.642a11.52428,11.52428,0,0,1,1.8837-.01817.65947.65947,0,0,1,.39976.23622.59478.59478,0,0,1,.23622.527,1.86834,1.86834,0,0,1-.0424.48456,2.86959,2.86959,0,0,0,.13931,1.10236c.01817.02422,0,.09691-.04846.16959-.06662.103-.07268.19988-.03028.43a6.72739,6.72739,0,0,1,.08479.90248c.01212.33313.05452.79345.09086,1.02967a8.84631,8.84631,0,0,1,.09085.99939,2.89579,2.89579,0,0,0,.11508.7874c.06663.17565.07269.24228.01212.3513a2.83788,2.83788,0,0,0-.05452.95094,3.63932,3.63932,0,0,1-.03634.93276,2.51573,2.51573,0,0,0-.103,1.30224,3.70773,3.70773,0,0,1,.01211,1.3204c-.04846.27257-.0424.28468.20593.5209.29679.29679.50273.3513.79952.2241.3089-.12719.58146-.58146.49061-.81768a.86043.86043,0,0,1,.24833-.7874.7618.7618,0,0,0,.15748-.25439,1.66585,1.66585,0,0,1,.18776-.36947,1.43676,1.43676,0,0,0,.15748-1.15687,2.25451,2.25451,0,0,1-.08479-.642c-.01212-.28468-.01817-.56935-.02423-.636,0-.103.03028-.76922.0848-1.7565a2.24416,2.24416,0,0,1,.15747-.64809.81449.81449,0,0,0,.01818-.77528,4.82816,4.82816,0,0,1,.04845-1.49,2.25826,2.25826,0,0,0,.04846-.87826c-.13326-1.35674-.13326-1.30829.02422-1.46577.1272-.12719.20594-.14536.636-.15142a1.28925,1.28925,0,0,0,.636-.09691,2.68168,2.68168,0,0,1,1.1387-.07268c.70261.15142.92065.16959,1.06.109a.37584.37584,0,0,1,.24834-.03029c.16959.06057.66626-.218.83585-.47849.27862-.424.19988-.91459-.15748-.98728a1.33046,1.33046,0,0,1-.35736-.13931.355.355,0,0,0-.33918-.02422,1.14679,1.14679,0,0,1-.56926-.01823c-.212-.04846-.5633-.11509-.78135-.15143-.218-.03028-.47243-.07874-.5754-.103a3.42709,3.42709,0,0,0-.48455-.03029,2.57018,2.57018,0,0,1-1.34464-.50878.65318.65318,0,0,1-.103-.75711,1.64484,1.64484,0,0,0,.1272-.50878c.01211-.16354.03634-.41187.05451-.54513a2.99329,2.99329,0,0,0,.02423-.33313c-.00606-.36341.01211-1.10235.02423-1.30223.06057-.67232.109-1.47183.13325-2.18049.01817-.4361.0424-.95093.06057-1.15081s.03028-.44216.03028-.54512a.67871.67871,0,0,1,.07874-.30285,1.597,1.597,0,0,0,.06057-.76317c-.03634-.957-.0424-.97516-.2241-1.28407L15.401.005h-.45427c-.41187,0-.46639.01211-.61782.16354A3.47939,3.47939,0,0,1,13.29322.75a2.80073,2.80073,0,0,0-.58146.36947.79423.79423,0,0,0-.32708.62386,1.67059,1.67059,0,0,1-.18776.57541c-.14538.20593-.14538.212.0424.8298.08479.28467.19382.642.23622.78739a.60729.60729,0,0,1,.03028.37553.39412.39412,0,0,0,0,.29073.6681.6681,0,0,1,.00606.32708.4588.4588,0,0,0,.00606.28467,2.44469,2.44469,0,0,1,.109.48456c.03029.1817.09085.50878.13325.72682a3.6393,3.6393,0,0,1,.06663.81769c-.01212.23016-.01817.46638-.01817.51483a8.4751,8.4751,0,0,1-.03634.9146.89207.89207,0,0,0,.03028.40581c.05451.09691.03029.19382-.11508.49061a1.01,1.01,0,0,1-.745.642c-.27862.103-.29679.103-.66626-.02422-.20594-.07269-.424-.14537-.49061-.15748a.6194.6194,0,0,1-.4361-.35736.56429.56429,0,0,0-.2665-.27256A.68233.68233,0,0,1,9.81048,9.163a1.85059,1.85059,0,0,1,.03028-1.0539.84631.84631,0,0,0,.07874-.315,1.9407,1.9407,0,0,1-.12114-.642.92089.92089,0,0,0-.09691-.3513A3.93119,3.93119,0,0,1,9.6106,5.14123a1.37521,1.37521,0,0,0-.03634-.7026A1.542,1.542,0,0,1,9.51977,3.518a2.30949,2.30949,0,0,0,.04239-.47244,1.31506,1.31506,0,0,1,.16959-.56329,1.447,1.447,0,0,0,.1817-.78135A1.67059,1.67059,0,0,0,9.2896.36236C8.96253.01711,8.93225.005,8.64151.005,8.3629.005,8.33261.01711,8.266.18671Z"/>

</g>
</svg>
