<?xml version="1.0" encoding="UTF-8"?>
<svg xmlns="http://www.w3.org/2000/svg"
     version="1.1"
     width="21.98891080mm"
     height="15.78981416mm"
     viewBox="0.00000000 0.00000000 62.33075853 44.75855811">

<g transform="scale(4.20066992)">   <defs>
      <style type="text/css"><![CDATA[
      .a {
        stroke: #000;
        stroke-miterlimit: 10;
        stroke-width: 0.15px;
        fill-rule: evenodd;
      }
    ]]></style>
   </defs>
   <path class="a"
         d="M11.36445.90294a1.3,1.3,0,0,1,.2558.893c-.0459.5425-.5317.6504-.9287.9175-.4697.3164-.9258.6875-1.4052,1.0103-.5425.3657-1.1241.6152-1.6905.9502a4.04657,4.04657,0,0,0-.9541.9169c-.144.1709-.2925.34969-.4326.5152-.0644.0762-.2402.3061-.313.3706-.2954.2622-.6728.2344-.6592.7173.0118.4258.3301.5385.7325.6797a17.429,17.429,0,0,0,4.0322.7754c.9995.0981,1.8672.4467,2.894.5278a5.57621,5.57621,0,0,1,1.4727.0893c.7568.27539.2822.7066-.2285.9478a7.50253,7.50253,0,0,1-3.8975.2178c-1.3755-.14021-2.6636-.2349-4.062-.2925-1.5024-.0615-5.2837-.0274-6.0103-1.73-.4599-1.07671.8775-2.206,1.2735-3.147.5127-1.229.2749-1.8628,1.4028-2.7246A29.11906,29.11906,0,0,1,6.10805.57624,4.36126,4.36126,0,0,1,7.38445.10653a3.18387,3.18387,0,0,1,1.25.13031,5.99757,5.99757,0,0,1,2.5815.5293A.72523.72523,0,0,1,11.36445.90294Z"/>

</g>
</svg>
