<?xml version="1.0" encoding="UTF-8"?>
<svg xmlns="http://www.w3.org/2000/svg"
     version="1.1"
     width="25.75816839mm"
     height="27.44526172mm"
     viewBox="0.00000000 0.00000000 73.01526961 77.79769436">

<g transform="scale(7.67139563)">   <defs>
      <style type="text/css"><![CDATA[
      .a {
        stroke: #000;
        stroke-miterlimit: 10;
        stroke-width: 0.15px;
      }
    ]]></style>
   </defs>
   <path class="a"
         d="M8.08765,1.02627C7.87408.472,7.9563.238,7.75882.121c-.11693-.06924-.2921-.06549-.56965.04649a9.16085,9.16085,0,0,0-.9757.48006C5.77336.89,4.45021,1.63112,5.21835,2.22306c.13576.1046.36845.21419.28654.36473a.25587.25587,0,0,1-.12217.09444c-.38179.18533-.59651.22231-.66758.19167-.23555-.10155-.17006-.46941-.40225-.53075a.22836.22836,0,0,0-.234.06383c-.06991.1.03652.27567.06958.33024a.79364.79364,0,0,0,.24568.25265A6.08575,6.08575,0,0,1,5.52566,4.27932a2.43919,2.43919,0,0,1,.68085,1.59574,1.72456,1.72456,0,0,1-.45278.97972,2.90916,2.90916,0,0,1-2.35917.84373c-.35572-.03516-.85566-.15775-.98364.05373-.05555.09179.01506.15387-.0342.25048-.03021.05924-.16145.24126-1.55319.17022C.54727,8.15883.30167,8.13886.167,8.29674a.42266.42266,0,0,0-.08814.323c.04754.35011.50773.37537.70213.85107.06089.149.02807.17669.068.2604.24841.52079,1.96617.38715,3.34245-.07666A9.176,9.176,0,0,0,7.06091,7.96333a4.24967,4.24967,0,0,0,.85531-.82422A9.73769,9.73769,0,0,0,8.9524,4.85367c.44489-1.102.56851-1.312.4456-1.61691-.11469-.28451-.31275-.326-.68579-.97824-.09218-.16118-.18228-.33733-.29293-.55367C8.22966,1.33411,8.13484,1.14874,8.08765,1.02627Z"/>

</g>
</svg>
