<?xml version="1.0" encoding="UTF-8"?>
<svg xmlns="http://www.w3.org/2000/svg"
     version="1.1"
     width="52.48721861mm"
     height="20.68012528mm"
     viewBox="0.00000000 0.00000000 148.78261265 58.62084628">

<g transform="scale(5.79267105)">   <defs>
      <style type="text/css"><![CDATA[
      .a {
        stroke: #000;
        stroke-miterlimit: 10;
        stroke-width: 0.15px;
        fill-rule: evenodd;
      }
    ]]></style>
   </defs>
   <path class="a"
         d="M4.30883,5.58615c3.749-.4941,7.4981-1.0352,11.2481-1.9072q2.8827-.036,5.7646-.0708a.88268.88268,0,0,0,1.4062-.2119c.7276-.3282.79691-1.1529.7735-2.0494-.1758-.7417-1.2539-1.0947-2.7422-1.2714a136.13362,136.13362,0,0,0-18.2773,3.1084c-1.8926,1.91988-2.794,3.6855-2.25,5.2285.3818,1.4599,2.3613,2.0009,6.6787,1.2006a71.96229,71.96229,0,0,1,15.5361-1.2006q.1758.8115.3516,1.6245,1.40476.1062,1.4052-1.2007H25.258a3.45725,3.45725,0,0,0,0-3.0381c-2.0078-1.2026-6.2148-.6367-11.0371.4238q-4.6743.6006-9.3496,1.2012-1.96875-.3537-.5625-1.8369Z"/>

</g>
</svg>
