<?xml version="1.0" encoding="UTF-8"?>
<svg xmlns="http://www.w3.org/2000/svg"
     version="1.1"
     width="8.98603751mm"
     height="21.37774379mm"
     viewBox="0.00000000 0.00000000 25.47216892 60.59827961">

<g transform="scale(5.79224922)">   <defs>
      <style type="text/css"><![CDATA[
      .cls-1 {
        stroke: #000;
        stroke-miterlimit: 10;
        stroke-width: .15px;
      }
    ]]></style>
   </defs>
   <path class="cls-1"
         d="M.08823,1.40263c.03625,.27979,.00134,.56525,.03192,.8457,.12244,1.12274,.02867,1.57593,.25531,2.55322,.17868,.77057,.27318,.64502,.35106,1.19678,.07059,.50012-.00194,.63922,.01596,1.883,.004,.27759,.01323,.66132,.14362,1.133,.18069,.65369,.39156,.74365,.46277,.76593,.07915,.02478,.08917-.00165,.47873-.01593,.22787-.00836,.34181-.01251,.47871,0,.27402,.02509,.51425,.04712,.62234,.20746,.11443,.16974,.01993,.4043,.06383,.41486,.04114,.00989,.06787-.20953,.23936-.38293,.18715-.18921,.35588-.13068,.5266-.28729,.15315-.1405,.17369-.33105,.20744-.57446,.12386-.89343,.1178-.2793,.2234-1.26062,.05318-.49408,.09268-.86121,.11171-1.42023,.02991-.87872,.05765-1.69348-.12767-2.7287-.03371-.18823-.1714-.68402-.44681-1.67554-.28378-1.02167-.5164-1.79132-.68616-1.7713-.12407,.01459-.13826,.44202-.27129,.44684-.14862,.00537-.17009-.52673-.49467-.63831-.14218-.04889-.27931,.0047-.43085,.06384-.26277,.1026-.29227,.22705-.65427,.4787-.18526,.12878-.2789,.19391-.43085,.25531-.33725,.13629-.563,.0932-.65425,.25537-.04306,.07654-.02945,.15131-.01596,.25531Z"/>

</g>
</svg>
