<?xml version="1.0" encoding="UTF-8"?>
<svg xmlns="http://www.w3.org/2000/svg"
     version="1.1"
     width="20.63810722mm"
     height="45.46833328mm"
     viewBox="0.00000000 0.00000000 58.50173125 128.88669932">

<g transform="scale(5.28493839)">   <defs>
      <style type="text/css"><![CDATA[
      .a {
        stroke: #000;
        stroke-miterlimit: 2.61313;
        stroke-width: 0.28346px;
      }
    ]]></style>
   </defs>
   <path class="a"
         d="M.22168,2.88524a10.39145,10.39145,0,0,1,7.5-2.39453Q9.9248-.37648,10.46.91063c.00977.75781-.72461,1.31641-3.0957,1.43555q-.47461.958-4.04736.957a2.78007,2.78007,0,0,1-3.09521-.418Z"/>
   <path class="a"
         d="M4.21,5.81688A6.3537,6.3537,0,0,1,7.06738,3.54344C8.42188,2.18016,9.86035.39305,10.877.73094c.12012.55859.10156,1.09766-.89355,1.49609A6.65536,6.65536,0,0,1,7.127,4.55907C6.06494,6.32469,5.1123,6.44383,4.21,5.81688Z"/>
   <path class="a"
         d="M8.13867,11.61961q-1.60693.68555-2.02393-.29883V9.70555q-4.49414-2.45508-2.0835-3.4707C5.18213,5.41844,6.3335,4.4204,7.4834,6.53368c2.11133.69531,1.57227,2.791.65527,5.08594Z"/>
   <path class="a"
         d="M1.47168,24.18211q.03-1.0166,1.72607-.59766c3.02539-1.01367,2.7041-3.56641,1.90527-6.3418q-.44678-4.42676,1.25-6.46094c.43652.13867.87256.2793,1.31006.418q.11719,1.377.2373,2.752,1.24951,6.583-.833,7.6582c-1.86572,2.98242-3.731,2.68164-5.5957,2.57227Z"/>

</g>
</svg>
