<?xml version="1.0" encoding="UTF-8"?>
<svg xmlns="http://www.w3.org/2000/svg"
     version="1.1"
     width="28.13689237mm"
     height="28.45068051mm"
     viewBox="0.00000000 0.00000000 79.75815346 80.64762633">

<g transform="scale(3.20912390)">   <defs>
      <style type="text/css"><![CDATA[
      .b {
        stroke: #000;
        stroke-miterlimit: 10;
        stroke-width: .15px;
      }
    ]]></style>
   </defs>
   <path class="b"
         d="m14.76442,14.42353c-.3075.52222-.2941.54407-.59573,1.06383-.18314.31554-.6647,1.1411-1.23404,1.91489-.48688.66173-.97708,1.16456-1.95746,2.17021-1.03387,1.06051-1.55078,1.59077-1.74469,1.74468-.45642.36231-1.06668.78403-1.40424,1.53191-.12772.28297-.18463.54224-.12766.80851.06506.30418.25372.5004.46808.7234.16586.17254.43207.44948.8085.59575.42798.16631.65317.02954,1.44681-.04256,1.10013-.09994,1.20081.1144,1.87234-.04255.48123-.11247.47522-.23322,1.36169-.68085,1.52792-.77153,1.99689-.64062,2.68085-1.31915.07452-.07393.00848-.0155.72342-.93617.58673-.75556.94482-1.1988,1.10638-1.40426.42291-.53779,1.01505-1.37387,1.70212-2.6383-.06268-.07593-.48682-.6068-.34042-1.2766.09647-.44139.388-.70195.51065-.80851.49081-.42641,1.07214-.43002,1.23404-.42553.22562-.34409.5643-.86005.97873-1.48936.69482-1.05507.70819-1.07052.8085-1.23404.53366-.86985.91708-1.49483,1.1915-2.38298.01675-.05426.12466-.71702.34042-2.04255.16724-1.02742.24585-1.5486,0-1.9149-.14575-.21716-.34067-.34054-.42554-.68085-.01776-.07126-.11224-.45001.08511-.76596.12476-.19972.25101-.19009.38297-.34042.15674-.17855.20126-.44583.04254-1.31915-.13605-.74851-.20407-1.12277-.42551-1.65958-.29691-.7198-.46631-1.13045-.89365-1.3617-.12146-.06573-.3522-.16483-1.06381-.12766-.42087.02198-1.03354.09287-2.46808.55319-.79944.25653-1.20923.38987-1.70215.6383-.55307.27876-.61099.3869-1.31915.80851-.5437.3237-.78525.4241-2,1.02127-.48169.23679-1.18329.5846-2.04254,1.02128.01004.02128.1926.42484-.04254.76596-.12366.17942-.40189.39812-.68085.29787-.26004-.09344-.33389-.39688-.34042-.42553-.27234.05606-.55682.12592-.85107.21276-.96719.28548-1.77673.67695-2.42554,1.06383.15085.04488.46631.16327.68085.46809.11661.16568.15024.31128.21277.59574.13254.60308.21484.9775,0,1.19149-.16708.16642-.4834.20547-.68085.08511-.22528-.13734-.21646-.43385-.29788-.7234-.09641-.34285-.35208-.79232-1.06381-1.23404-.84189.40144-1.526.81025-2.04257,1.14894-.80078.52503-.56186.46389-2.9787,2.46809-.51233.42487-.94144.77455-1.23407,1.40425-.22046.47439-.31525,1.00397-.34042,1.14894-.05133.29553-.07678.62256-.12766,1.2766-.04056.52148-.03595.60154-.08511.80851-.10867.45742-.24966.56466-.34042.89362-.10208.37002-.03967.65803.08511,1.23405.21899,1.01074.64664,1.68974.76596,1.87234.32684.50019.51294.78503.89362.97872.36868.18758.48697.06943,1.1915.25532.19821.0523.5462.19161,1.23404.46809.67651.27192,1.01477.40788,1.23404.51064.33441.15672.79211.39045,1.31915.7234.12854.15941.32523.40903.55319.7234.95715,1.31992.97858,1.73053,1.40424,1.91489.53073.22987,1.13397-.14463,2.34045-.89362.90186-.55989,1.71625-1.06545,2.46808-2.08511.65897-.8937.98297-1.79318,1.14893-2.46808-.31058-.12244-.74252-.32973-1.1915-.68085-.24136-.18876-.72879-.57732-1.10638-1.23404-.51364-.89333-.53311-1.77676-.51062-2.21277-.22842-.05356-.58273-.12602-1.02127-.17021-.95312-.09605-1.39627.03292-2.12769-.21277-.19553-.06567-.80441-.27022-.8085-.55319-.00253-.17587.23044-.24879.51065-.51064.42621-.39828.44061-.74677.68085-1.14894.32846-.54984.836-.79315,1.48935-1.10638,1.09589-.52538,1.45602-.23394,2.59576-.76596.45776-.21367.74323-.42104,1.27658-.80851.55188-.40091,1.29663-1.00658,2.08511-1.87234.06268.25537.13614.62043.1702,1.06383.01865.24292.07312,1.12925-.21274,2.25532-.0531.20915-.242.91537-.68088,1.74468-.34869.6589-.51733.75711-1.14893,1.82979Z"/>

</g>
</svg>
