<?xml version="1.0" encoding="UTF-8"?>
<svg xmlns="http://www.w3.org/2000/svg"
     version="1.1"
     width="30.89286043mm"
     height="12.02802943mm"
     viewBox="0.00000000 0.00000000 87.57033097 34.09520286">

<g transform="scale(4.22277633)">   <defs>
      <style type="text/css"><![CDATA[
      .b {
        stroke: #000;
        stroke-miterlimit: 10;
        stroke-width: .15px;
      }
    ]]></style>
   </defs>
   <path class="b"
         d="m11.82217.56798c-.62701.57815-1.94548.94112-3.64752,1.75101-.90547.43085-.69927.40757-1.71418.90856-2.64231,1.30434-3.99982,1.44235-5.04255,2.48936-.37528.37682-.62663.78788-1.04256,1.46808-.28553.46696-.34011.62328-.2766.72341.13669.21547.71298.00153,1.68085-.17021.24958-.04429.8756-.10045,2.12766-.21277,1.76522-.15836,1.99813-.12116,2.46809-.3617.70856-.36267.56693-.64571,1.24873-.96954.59126-.28082.82549-.12862,2.49595-.24323,1.07878-.07401,1.0264-.14059,1.89362-.17021.47041-.01607,1.02283.02475,2.12766.10638.79807.05897,1.1204.10252,1.3617.3617.15929.1711.22092.3692.48936.51064.1824.09611.33971.10252.63721.11463.37724.01537.71545.02914,1.04365-.15719.25212-.14314.21014-.24075.44681-.34043.30755-.12952.4369.02865.76596-.08511.13171-.04553.43997-.17563.6383-.46809.18903-.27874.11953-.4533.21276-.80851.20538-.78249.79918-.84586.90971-1.46865.068-.38317-.09542-.70484-.25013-.99944-.64392-1.22619-1.99567-1.80733-2.51064-2.02128-.90163-.37458-2.1826-.3996-4.74455-.44965-.1412-.00276-.43449-.00558-.76609.1305-.30501.12516-.49363.30678-.55319.3617Z"/>

</g>
</svg>
