<?xml version="1.0" encoding="UTF-8"?>
<svg xmlns="http://www.w3.org/2000/svg"
     version="1.1"
     width="50.03522053mm"
     height="12.45145630mm"
     viewBox="0.00000000 0.00000000 141.83219230 35.29546275">

<g transform="scale(5.54094986)">   <defs>
      <style type="text/css"><![CDATA[
      .a {
        stroke: #000;
        stroke-miterlimit: 10;
        stroke-width: 0.15px;
      }
    ]]></style>
   </defs>
   <path class="a"
         d="M2.33086,5.91335a4.00692,4.00692,0,0,0,1.87234.29787c1.86983-.09791,3.7501.18556,5.617.04256,6.76735-.51839,4.74538-.32429,7.78723-.59575,2.35615-.21027,6.84954-.63891,7.40427-2.04255A8.45706,8.45706,0,0,0,25.35214,2.424,8.50013,8.50013,0,0,0,25.50868.99728a1.77885,1.77885,0,0,0-.01541-.61652C25.15543-.2483,23.0262.27417,22.66635.361c-.00009,0-5.04957,1.2181-14.33.81189A10.8147,10.8147,0,0,1,5.08924.69638,4.2355,4.2355,0,0,0,3.8747.33046,4.19905,4.19905,0,0,0,.92661,1.78569c-.49091.46579-.772.74042-.838,1.192A2.35471,2.35471,0,0,0,.799,4.67931,3.88991,3.88991,0,0,0,2.33086,5.91335Z"/>

</g>
</svg>
