<?xml version="1.0" encoding="UTF-8"?>
<svg xmlns="http://www.w3.org/2000/svg"
     version="1.1"
     width="24.86330352mm"
     height="26.61127473mm"
     viewBox="0.00000000 0.00000000 70.47863835 75.43356301">

<g transform="scale(6.10325141)">   <defs>
      <style type="text/css"><![CDATA[
      .b {
        stroke: #000;
        stroke-miterlimit: 10;
        stroke-width: .15px;
      }
    ]]></style>
   </defs>
   <path class="b"
         d="m6.02291,2.57102c-.01735.22986.1223.44043.20476.56476.20796.31357.48718.46463.54524.49774.867.49451,2.06389,3.00705,2.35101,5.08945.04338.31467.05502.64087-.10643.96646-.24432.49274-.82674.69171-1.3371.89667-.51035.20499-1.06723.5545-1.10504,1.10318-.01486.21576.07695.45367.27228.54648.10214.04855.21948.05264.33241.04672.89023-.04666,1.41328-.48932,1.41328-.48932.54156-.37665,2.68462-2.17535,2.86708-5.03464.07233-1.13345-.19518-1.93637-.2527-2.10272-.18402-.53217-.40526-.87195-.7473-1.39728-.79951-1.22794-1.19926-1.84192-1.90303-1.97156-.52548-.0968-.97356.12109-1.56573.40906-.39971.19437-.9371.45569-.96874.875Z"/>
   <path class="b"
         d="m1.25423,3.75428C.72736,4.4979.19809,5.29105.09359,6.19639c-.12842,1.1123.42311,2.21655,1.20779,3.01529s1.78468,1.34451,2.76886,1.87851c.38258.20758.76517.41516,1.14777.62274.59357.32205,1.34192.64099,1.90312.26535.29536-.19769.45224-.54388.56374-.88138.04146-.12552.24265-.78955-.06006-1.3364-.23357-.42194-.65308-.56573-1.1019-.75198-.85371-.35431-2.65508-1.10187-3.53126-2.5-.28274-.4512-.35801-.79279-.375-.875-.18743-.90707.1491-2.03214.98304-2.58096.23822-.15677.49872-.32822.82947-.29404.84625.08743.9429,1.39587,1.68749,1.46875.60628.05933,1.14928-.74872,1.49576-1.26434.1393-.20731.24594-.42081.23521-.67899-.00908-.21866-.12682-.41696-.25302-.59576-.69643-.98669-1.93317-2.10904-3.13931-1.37918-1.3269.80289-2.32188,2.20447-3.20107,3.44528Z"/>

</g>
</svg>
