<?xml version="1.0" encoding="UTF-8"?>
<svg xmlns="http://www.w3.org/2000/svg"
     version="1.1"
     width="70.98608017mm"
     height="41.26656891mm"
     viewBox="0.00000000 0.00000000 201.22040103 116.97615403">

<g transform="scale(6.89240785)">   <defs>
      <style type="text/css"><![CDATA[
      .c {
        stroke: #000;
        stroke-linecap: round;
        stroke-linejoin: round;
        stroke-width: .01px;
      }
    ]]></style>
   </defs>
   <path d="M9.11133,16.95605c-.09229,0-.19873-.03418-.40723-.13086-.19824-.10059-.41211-.17676-.49658-.17676l-.29736,.02441c-.08691,0-.24023,.05176-.34766,.11914-.07568,.05078-.15723,.07715-.23682,.07715-.04004,0-.08008-.00684-.11865-.02051-.17578-.06641-.43652-.09766-1.07227-.12891-.17969-.00781-.39258-.0752-.47461-.15039-.23242-.22363-.59033-.53613-.65137-.56055-.02783-.01367-.20312-.24707-.37793-.51562-.30029-.45215-.34375-.58398-.4248-1.27734-.16748-1.33398-.23877-1.63574-.47754-2.01953-.05859-.09961-.25195-.43262-.28027-.54688-.03125-.09766-.09961-.18359-.14648-.18359l-.04541-.09668c.0249-.14648-.18115-.69629-.28564-.76074-.05078-.03711-.1543-.19141-.22656-.36328-.13428-.27637-.13477-.30859-.00781-.56641,.06689-.14355,.18018-.27539,.2373-.27539,.06885,0,.26416-.14746,.41797-.31543,.26855-.28809,.35547-.32471,1.0332-.43408,.13184-.02539,.23438-.09326,.27393-.18164,.02783-.06152,.02344-.12646-.01318-.18848-.10107-.1792-.54199-.42578-.76074-.42578-.11133,.03467-.16553,.04541-.23486,.04541-.08545,0-.19482-.01611-.31592-.04639-.23682-.06445-.41846-.09277-.58838-.09277-.12061,0-.23779,.01514-.35791,.0459-.1084,.02246-.25391,.04688-.31738,.04688-.23047,.01562-.36133,.15527-.36914,.39258,0,.1748-.03564,.2168-.19043,.22461-.3291,.00781-.3916,.02539-.51367,.14355-.09619,.10547-.18555,.1377-.38281,.1377l-.14502-.00391c-.17334-.00781-.22461-.07324-.34229-.43848L.01465,7.87939l.25488-.22754c.14209-.13428,.24902-.31055,.24902-.41016,0-.08203,.07031-.19092,.14746-.22949,.08203-.05078,.25146-.24902,.36328-.45312,.13867-.22803,.25391-.35449,.28027-.35449,.04395,0,.15283-.07812,.23828-.1709,.07324-.08496,.14746-.12598,.22559-.12598l.16064,.02686c.12012,0,.28174-.07031,.52588-.22705,.22949-.15234,.50293-.3125,.61523-.36719,.11035-.05859,.32129-.17578,.46289-.26562,.22705-.14551,.40186-.1748,1.03711-.1748,.96094,0,1.09424,.03369,1.78418,.44824,.20947,.12402,.39844,.28955,.4209,.36914,.04004,.13818,.21826,.36377,.63574,.80469,.29248,.3208,.5293,.7627,.47803,.8916-.0293,.0791-.00684,.20166,.03174,.27441,.05127,.08789,.04639,.1665-.01367,.22656-.05176,.05859-.16113,.19238-.25098,.31348-.08447,.11084-.26953,.32617-.41309,.49316-.13867,.1626-.29004,.36768-.31543,.44678-.02197,.07422-.14795,.24023-.28613,.37891-.15674,.16504-.22559,.29883-.19434,.37793,.02246,.06934,.04688,.21387,.04688,.32422,0,.13184,.12305,.32715,.34668,.55078,.53369,.55273,.69629,.76367,.69629,.89844,0,.07715,.06738,.35742,.15625,.65137,.09521,.27832,.16016,.57031,.15234,.63574-.00781,.07324,.00732,.21875,.03516,.33203,.03125,.10938,.07031,.32812,.08594,.47656,.04688,.41797,.28223,.85645,.52441,.97656,.11621,.05859,.49854,.11328,.85254,.12109,1.02051,.03906,1.45605,.09863,1.72559,.23828,.11621,.05859,.17773,.08594,.23779,.08594,.07227,0,.13525-.04102,.26123-.13477,.12061-.08887,.23633-.13672,.33496-.13672l.14551,.01758c.10059,0,.21484-.03516,.28516-.08789,.08838-.06055,.37207-.125,.65918-.15039,.25049-.01465,.50391-.04492,.53223-.06445h.03955c.10352,0,.16504,.01074,.24072,.0332,.07617,.01953,.13672,.02832,.19141,.02832,.08838,0,.16602-.02441,.25098-.08105,.07324-.05078,.18506-.08398,.28467-.08398l.17383,.01758c.20605,0,.53662-.10352,.61475-.2207,.01855-.04199,.0874-.07129,.16406-.07129,.21973,.0127,.39941,.01855,.56543,.01855,.66211,0,1.12402-.0918,1.41211-.28125,.18066-.12402,.38281-.2168,.44336-.2168,.22949,0,.76562-.36035,.81836-.55078,.03027-.08887,.10547-.2168,.17969-.27539,.07324-.04883,.21973-.21191,.32227-.33789,.09961-.14062,.21582-.24219,.24609-.24219l.14551-.02344c.04688,0,.11523-.10059,.14551-.18945,.06836-.23047,.20605-.34473,.66602-.55664,.35059-.16406,.64648-.4209,.64648-.56055,0-.03027,.02441-.1123,.04688-.17188,.02539-.06836-.01953-.1875-.09375-.25-.0498-.05664-.08984-.08691-.1543-.08691-.06836,0-.16016,.03418-.35156,.11621-.18164,.08008-.30664,.11523-.40234,.11523-.05078,0-.09375-.00977-.13281-.0293-.0498-.02246-.15332-.03516-.2832-.03516-.08887,0-.18652,.00684-.28125,.01953-.10059,.0166-.2002,.02441-.28809,.02441-.11719,0-.20703-.01367-.24707-.03809-.06543-.0293-.16309-.04688-.25-.04688l-.1582,.01367c-.11621,0-.28125-.0332-.41016-.08203-.17578-.05469-.4209-.10938-.55078-.10938-.11523,0-.35742-.09082-.5293-.19727-.17969-.11621-.47363-.26172-.64258-.33008-.18457-.07715-.35693-.19531-.39307-.26758-.08594-.15332-.01904-.46094,.13525-.62109,.07715-.07031,.09668-.19873,.06445-.41553-.0459-.26953-.02441-.32812,.21289-.56934,.25977-.25684,.72363-.5498,.87109-.5498,.20215,0,.48828-.26416,.60352-.49121,.0752-.14795,.18359-.30469,.24023-.36523,.09375-.09033,.12793-.20605,.0918-.31738-.04004-.12549-.16113-.21826-.31641-.24219-.56543-.08154-1.20996-.46729-1.30078-.77832-.16504-.52344-.20996-.77881-.24219-1.36523-.01562-.47803,.00879-.68408,.0957-.81738,.06055-.10205,.12598-.31592,.14648-.47754,.03418-.34668,.28125-.89746,.35742-.89746,.05664,0,.15723-.16748,.20898-.2666,.17383-.3418,.66602-.85059,.82227-.85059,.08789,0,.23145-.08398,.32617-.16211,.09375-.07812,.1543-.1084,.21484-.1084,.03223,0,.06543,.00928,.10352,.02734,.08203,.05371,.21582,.08301,.30078,.08301,.21484,0,.32617,.33447,.34961,1.05273,.02051,.58789,.0918,.76709,.30469,.76709,.04004,0,.08594-.00635,.13672-.01904h.00195c.1582,0,.25195,.04248,.34766,.14551,.10547,.10498,.25195,.22803,.34375,.26758,.22559,.12354,.57617,1.12402,.57617,1.64746,0,.21924,.01953,.47363,.04883,.50293,.01758,.02295,.00195,.13379-.06445,.26172-.05566,.10645-.10254,.24268-.08008,.26562,.02734,.02686,.00098,.15576-.06348,.31348-.06641,.16553-.15625,.31885-.22949,.3916-.08105,.08154-.14648,.25781-.14648,.39355,0,.1416-.0625,.33057-.11914,.4248-.11523,.17773-.11523,.21191,0,.33203,.0957,.09229,.19043,.13867,.28223,.13867,.19238,0,.37207-.20312,.52051-.58691,.11133-.2876,.19336-.37646,.41602-.45117,.15723-.0542,.36035-.17578,.46094-.27637,.09668-.09717,.24902-.15527,.40723-.15527,.12305,0,.23438,.03613,.31348,.10156,.17285,.13916,.45312,.69189,.40039,.78809-.02832,.04102-.02246,.12109,.01562,.23096,.06738,.19141,.22363,.42285,.34766,.46338,.03125,.00928,.07129,.01416,.11719,.01416,.09473,0,.20801-.02051,.29688-.05322,.24121-.10107,.2627-.1499,.47852-1.05078,.02441-.08545,.16797-.6792,.16797-.6792,.05371-.20312,.14746-.47266,.2168-.5708,.06348-.10645,.0957-.271,.07227-.36719-.06152-.23291-.67871-.53809-1.19922-.59375-.36035-.03125-.8125-.22021-1.125-.4707-.09766-.0752-.12402-.1626-.08984-.30273,.03223-.13037,.00684-.24658-.07031-.31055-.16113-.15332-.07812-.64697,.18555-1.10059,.65137-1.08496,1.36035-1.94922,1.65039-2.01074,.03809-.00879,.07812-.01367,.11914-.01367,.12109,0,.21289,.04199,.21289,.09766,0,.03369,.05469,.11719,.16211,.24805,.08789,.09131,.13281,.20117,.11328,.23535-.02637,.04688-.00879,.146,.03906,.22119,.04395,.08252,.04395,.18555-.00195,.2749-.06348,.10742-.0293,.22559,.14648,.50586,.11523,.18359,.27051,.36768,.32227,.39844h.00098c.19922,0,.44336-.30322,.49512-.53809,.05957-.2915,.17969-.40527,.42578-.40527,.08008,0,.17676,.0127,.29688,.03809,.31152,.06641,.43652,.13574,.49609,.27539,.0166,.0332,.10254,.19727,.1543,.19727,.01465,.01318,.08594,.30957,.13477,.72559,.05469,.41113,.14453,.9541,.20703,1.21191,.06836,.29688,.06543,.47705,.03711,.49316-.12988,.08008-.29883,.49609-.3418,.83984-.02441,.19141-.13672,.52588-.24609,.73047-.12891,.24561-.21289,.54004-.24219,.85156-.02344,.47949,.15234,1.52246,.3125,1.86035,.05566,.10742,.12793,.32715,.15234,.50879,.09668,.61572,.86621,1.36377,1.41992,1.37939,.14941,0,.23047,.06055,.31055,.23242,.03027,.06152,.13086,.26172,.18945,.29395,.1084,.07031,.13672,.97656,.03516,1.15332-.26172,.4668-.7793,1.49609-.7793,1.56445,0,.03418-.06934,.16211-.1582,.27539-.08691,.10938-.16211,.29199-.16211,.38867,0,.09863-.07422,.22559-.17188,.29688-.10156,.0625-.32812,.24609-.50391,.40625-.16895,.15332-.37793,.28711-.44727,.28711-.08105,0-.21484,.06543-.29688,.14648-.08398,.08105-.26172,.19336-.38672,.24414-.13086,.05664-.27637,.15137-.30273,.22461-.02051,.05566-.09668,.10352-.16602,.10352-.17188,0-1.08398,.42578-1.08398,.50586-.00488,.00684-.06738,.02539-.29883,.02539-.08887,0-.19336-.00293-.30469-.00781-.14844-.01074-.2666-.0166-.36523-.0166-.21973,0-.33984,.0293-.45703,.1123-.15723,.10059-.29199,.14551-.43555,.14551-.15234,0-.31543-.0498-.53125-.16309-.18359-.09277-.34961-.14258-.41211-.14258l-.12988-.03906c-.0791-.12695-.8418-.42578-1.21387-.47461-.09863-.00977-.86523-.0625-.86523-.0625-.35547-.0166-.6084-.05371-.625-.07227h-.00586c-.09766,0-.21191,.03711-.3418,.10352-.16504,.08105-.49609,.16895-.72461,.19141-.25195,.02441-.63281,.11035-.8418,.17578-.21191,.08105-.45117,.12988-.55957,.12988-.12793,0-.3125,.04688-.44043,.1123-.10742,.05566-.20361,.08008-.3125,.08008-.06543,0-.13623-.00879-.2168-.02539-.08398-.01758-.15869-.02637-.22754-.02637-.11572,0-.2207,.02246-.34082,.07324-.11523,.05664-.19434,.08105-.26514,.08105-.05664,0-.11182-.01562-.1792-.0498-.07764-.03125-.22119-.0498-.38428-.0498-.06934,0-.14111,.00293-.20752,.01074-.17041,.01953-.40088,.0332-.55762,.0332l-.10742-.00195c-.29883,0-.72656,.19434-.72656,.33008l-.12598,.02148c-.07959-.03125-.27197-.07031-.42578-.08594-.3125-.03516-.53271-.05371-.68945-.05371-.17139,0-.271,.02148-.33301,.07129-.04199,.02734-.08496,.04004-.13916,.04004-.06494,0-.14453-.01758-.26611-.05762-.10791-.03516-.18506-.05566-.2583-.05566-.09277,0-.1792,.03027-.34326,.12012-.13867,.06934-.28906,.11719-.37451,.11719l-.11719-.0166c-.07666,0-.16406,.02148-.23486,.05762-.06055,.02637-.10938,.03711-.16211,.03711Zm14.54199-6.74805c-.08984,0-.16602,.03223-.22559,.09473-.11133,.12109-.1582,.34863-.13574,.65723,.03125,.3252-.28418,.88867-.61328,1.09766-.2002,.13086-.35742,.30957-.40234,.45312-.06543,.16992-.06934,.36328-.00879,.45117,.08594,.04102,.18164,.15527,.2627,.31445,.0293,.04883,.17383,.28711,.23633,.28711,.03223,0,.21094,.13672,.39062,.32617,.22168,.2168,.32617,.28613,.43359,.28613,.15332-.04297,.34375-.08496,.50977-.12207,.20801-.04102,.37305-.10547,.4082-.1582,.02246-.03613,.24316-.1709,.48438-.28516,1.00195-.48926,1.20508-.6377,1.2793-.93359,.03809-.14941,.0625-.5459,.05469-.88477-.01562-.64746-.13477-.91211-.75195-1.66992-.1582-.19922-.33984-.37891-.41406-.41016h-.00098c-.28418,0-.8418,.25879-1.0791,.45898-.05273,.03906-.13281,.06152-.21973,.06152-.13379-.01953-.17285-.02441-.20801-.02441Z"/>
   <path d="M24.28624,.02016c.11651,0,.20777,.04065,.20777,.09255,0,.03478,.05498,.11938,.16391,.25203,.09148,.09541,.12789,.20091,.11177,.22893-.02708,.04843-.00942,.14986,.03897,.22542,.04363,.08157,.04322,.1829-.00076,.27045-.06483,.1094-.03081,.22889,.14565,.51141,.11567,.1838,.2722,.36899,.32469,.39978l.00506,.00137h.00684c.19167,0,.43921-.30564,.49125-.54266,.05937-.28871,.17737-.40119,.42086-.40119,.07944,0,.17619,.01239,.29577,.03787,.30953,.06578,.4339,.13453,.49314,.27303,.02287,.0455,.09988,.19092,.15353,.19946,.01986,.03164,.08776,.32153,.13456,.72169,.05124,.38476,.14128,.94046,.2072,1.21236,.0693,.3005,.06239,.47455,.03864,.4878-.13002,.08076-.30017,.49841-.34351,.84315-.02442,.19097-.13661,.52481-.24501,.72902-.12984,.24591-.21397,.54099-.24334,.8538-.02345,.4797,.15232,1.5242,.31361,1.863,.05534,.10681,.12707,.32564,.15134,.5072,.09727,.61801,.8695,1.36818,1.42492,1.38394,.14903,0,.22634,.05793,.30643,.22971,.02963,.06122,.13095,.26348,.19006,.29504,.10402,.06779,.13095,.97956,.03384,1.14786-.24469,.43642-.7796,1.49087-.7796,1.56641,0,.02973-.06117,.15052-.15704,.27214-.08698,.11071-.16327,.29385-.16327,.39192,0,.09693-.07295,.22275-.16907,.29226-.09901,.06093-.32573,.24368-.50539,.40736-.16759,.15209-.37482,.2855-.44348,.2855-.08259,0-.21717,.06657-.29987,.14827-.08452,.08063-.26109,.19196-.38571,.24317-.12777,.05476-.27781,.14932-.30523,.22738-.0202,.05417-.09417,.09994-.16153,.09994-.15136,0-1.0891,.41126-1.0877,.50689-.00026,.00024-.02888,.02436-.29511,.02436-.0839,0-.18626-.00263-.30397-.00779-.15882-.0115-.27169-.01662-.36595-.01662-.22117,0-.34151,.02961-.45948,.1129-.15708,.10022-.29065,.14491-.4331,.14491-.1512,0-.31422-.04995-.52869-.16201-.18386-.09293-.35007-.14324-.41105-.14324h-.00076l-.12742-.03803c-.09294-.13172-.84821-.42732-1.21917-.47601-.0967-.00968-.85691-.062-.86479-.06254-.34504-.01615-.603-.05297-.62215-.07016l-.00723-.0031h-.01855c-.0992,0-.23299,.05742-.32765,.10552-.1643,.08071-.49501,.16792-.72214,.19044-.25235,.02445-.63399,.11049-.84343,.17639-.21148,.08089-.44976,.12922-.56088,.12922-.12567,0-.31075,.04769-.44012,.1134-.10637,.05462-.20194,.07898-.30988,.07898-.06517,0-.13573-.00823-.2157-.02517-.08446-.01789-.15925-.02659-.22863-.02659-.11644,0-.22215,.02283-.34328,.07427-.11412,.05609-.19267,.08002-.26268,.08002-.05559,0-.11022-.01503-.17787-.04906-.07763-.03165-.22178-.05054-.38561-.05054-.07717,0-.14721,.00364-.20817,.01081-.17023,.0195-.39926,.03313-.55679,.03313l-.1076-.00195c-.30175,0-.71527,.18676-.7312,.32693l-.11951,.02426c-.08436-.03162-.27466-.06979-.42698-.0855-.335-.03769-.54138-.05377-.69008-.05377-.17248,0-.27307,.02169-.33558,.07196-.04132,.02723-.08344,.03937-.13659,.03937-.06431,0-.14339-.01708-.26447-.05712-.10866-.03557-.18603-.05616-.25995-.05616-.09375,0-.18096,.03037-.34534,.12022-.13812,.07003-.28778,.11708-.37103,.11718l-.11908-.0167c-.07655,0-.16496,.02195-.23582,.05841-.06024,.02541-.10819,.03627-.16025,.03627h-.00036c-.09164,0-.19761-.034-.40465-.12977-.19928-.10137-.41383-.17782-.49993-.17782h-.00005l-.29605,.02438c-.08825,0-.24241,.05256-.35127,.11986-.07451,.04999-.15532,.07642-.23369,.07642-.03968,0-.07898-.00671-.11659-.01986-.17667-.06675-.43773-.09823-1.07439-.12955-.17842-.00776-.38982-.07449-.47103-.14858-.2106-.20287-.58699-.5352-.65237-.56131-.02443-.01222-.18705-.22349-.37651-.51416-.29924-.45179-.3428-.58285-.42371-1.27503-.16773-1.33503-.23928-1.63733-.47835-2.0214-.05843-.0994-.25127-.43254-.27985-.5468-.03041-.09515-.09639-.17911-.14472-.18617l-.04586-.09173c.02095-.15464-.1843-.7006-.28821-.76528-.04967-.03561-.15434-.19262-.22535-.36147-.13332-.27434-.13376-.30582-.00773-.56175,.07207-.15597,.18226-.27251,.23262-.27251,.07154,0,.26454-.14527,.42138-.31715,.26778-.28762,.35445-.32404,1.03069-.43303,.13348-.02549,.23732-.09444,.27776-.18442,.0284-.06299,.02367-.12982-.01359-.19311-.10161-.18001-.54418-.42796-.76745-.42796h-.00062c-.10907,.03445-.16324,.04495-.23185,.04495-.08514,0-.19388-.01594-.31427-.04604-.23761-.0644-.41958-.09312-.59002-.09312-.12102,0-.23843,.01512-.35848,.04611-.10849,.02248-.25391,.04667-.31751,.04669-.23289,.01603-.36556,.15714-.37357,.39768,0,.17097-.03464,.21199-.18506,.21949-.33118,.00789-.39405,.02549-.5179,.14536-.09463,.10414-.18314,.13589-.37856,.13589l-.14485-.0039c-.17059-.00754-.22115-.07258-.33818-.43522l-.15017-.42732,.25159-.22858c.14292-.13501,.25069-.31278,.25069-.41352,0-.08017,.0688-.18739,.14515-.22538,.08255-.05091,.25269-.25024,.36462-.45448,.14271-.23446,.25395-.35213,.27613-.35213,.05116,0,.16532-.08962,.24193-.17287,.07253-.08344,.14513-.124,.2203-.12414l.16277,.027c.12029,0,.28309-.07037,.52798-.22822,.23015-.15245,.50383-.3126,.6154-.36671,.09537-.05086,.31478-.17191,.46258-.26601,.22644-.1445,.4005-.17372,1.03466-.17372,.95981,0,1.093,.03344,1.78153,.44734,.20503,.1213,.39682,.289,.41882,.36623,.04009,.13907,.21858,.36529,.6365,.8067,.28629,.31387,.52732,.76128,.4775,.88675-.02983,.08041-.00726,.20458,.03199,.27853,.04985,.08572,.04533,.16191-.01354,.2208-.04653,.05318-.15581,.18534-.25093,.31354-.08418,.11096-.26679,.32316-.41351,.49367l-.00802,.00931c-.1318,.15492-.28289,.36149-.30761,.43913-.02229,.07364-.14752,.2391-.28528,.37688-.16017,.16873-.22757,.30122-.19515,.38248,.02232,.06987,.04641,.21327,.04641,.32313,0,.13271,.12364,.32944,.34801,.55382,.53258,.55252,.69495,.76173,.69495,.8954,0,.07801,.06736,.35887,.15679,.65364,.0934,.27205,.15945,.5689,.15186,.63336-.00798,.07284,.00756,.21935,.03548,.33392,.03057,.10699,.06978,.32445,.08562,.47493,.04723,.42007,.28385,.85993,.52736,.98045,.11663,.05955,.49993,.11436,.85427,.12217,1.01988,.03895,1.45487,.0988,1.72389,.23721,.11683,.05915,.17858,.08702,.23987,.08702,.07364,0,.13707-.04137,.26426-.13576,.11968-.08879,.23446-.13573,.33073-.1358l.1472,.01765c.10085,0,.21648-.03572,.28737-.08864,.0881-.06001,.3705-.12435,.65657-.14966,.25121-.01461,.50613-.04568,.53119-.0636,.02129-.0019,.04213-.00377,.06296-.00377,.06576,0,.13266,.01102,.21725,.03582,.07619,.01953,.13733,.02863,.19242,.02863,.08958,0,.16778-.02521,.25377-.08188,.07244-.05052,.18309-.08316,.28088-.08321l.17532,.01763c.20677,0,.53928-.10509,.61896-.22461,.01775-.03904,.08477-.06738,.15878-.0674,.21916,.01267,.39901,.01857,.56601,.01857,.66295,0,1.12569-.09221,1.41484-.28203,.1801-.12363,.38117-.21601,.44063-.21601,.23128,0,.76977-.36256,.82296-.55369,.0299-.08875,.1048-.21538,.17768-.27317,.07411-.04906,.22059-.21323,.32392-.33946,.09722-.1369,.21374-.23993,.24345-.24006l.14293-.02331c.05105,0,.1206-.1019,.15118-.19365,.06835-.22814,.20478-.34192,.66361-.55338,.35803-.16749,.64931-.42082,.64931-.56472,0-.02948,.024-.11135,.04627-.17038,.02628-.07151-.018-.19078-.09374-.25426-.05058-.05654-.09279-.08927-.15882-.08927-.06974,0-.16134,.0345-.35361,.11704-.18136,.07911-.30482,.11439-.4003,.11439-.05035,0-.09175-.00897-.13066-.02841-.0508-.02291-.15481-.03605-.28536-.03605-.08943,0-.18681,.00679-.2819,.01967-.09629,.01589-.19569,.02428-.28743,.02428-.11605,0-.20529-.01371-.24598-.03822-.06455-.02836-.16296-.0467-.25166-.0467h-.00029l-.15734,.01363c-.11587,0-.28006-.0327-.40914-.08158-.17539-.05458-.42125-.10983-.5518-.10983-.11404,0-.35536-.09009-.52681-.19664-.17991-.11608-.47399-.26166-.64314-.32992-.18049-.07598-.35563-.19519-.39068-.2662-.08493-.15079-.01843-.45573,.13374-.61511,.07885-.07128,.09941-.20067,.06664-.41976-.04606-.26759-.02435-.32567,.21103-.56492,.25917-.25625,.72154-.54838,.87286-.54838,.19936,0,.48767-.2657,.60265-.4942,.07567-.14748,.1833-.30375,.23923-.36356,.09581-.09178,.12986-.20943,.09343-.32273-.04029-.12746-.16311-.22158-.3206-.24566-.5634-.08145-1.20561-.46516-1.29658-.77484-.16431-.52307-.2095-.77798-.24174-1.36354-.01553-.47702,.00845-.68267,.09529-.81537,.06039-.10197,.12626-.31682,.14686-.47922,.03416-.34516,.27781-.89284,.35235-.89284,.07249,0,.19883-.242,.21301-.26962,.1737-.34061,.66311-.84757,.81824-.84757,.08946,0,.23356-.0847,.32963-.16343,.09286-.07707,.15213-.10709,.21138-.10709,.03098,0,.06405,.00877,.09999,.0262,.08348,.05466,.21909,.08416,.30431,.08416,.21179,0,.32126,.33299,.3445,1.04797,.02075,.59152,.09314,.77186,.30979,.77186,.04034,0,.08683-.00651,.13591-.01904l.02815-.00049c.13076,0,.22314,.0418,.3191,.14453,.10504,.10504,.25243,.22887,.34408,.26831,.22527,.12283,.57389,1.12097,.57389,1.64308,0,.21921,.01941,.47522,.04993,.50562,.01674,.02169-.00004,.13254-.0644,.25679-.05078,.09583-.10662,.24347-.07922,.27158,.02175,.02139,.0065,.13403-.06476,.30797-.06668,.16478-.15628,.31776-.22829,.38977-.08184,.08234-.14842,.26052-.14842,.39719,0,.14081-.06159,.32871-.11852,.42182-.11705,.18107-.11692,.21588,.00144,.33878,.09592,.09292,.1919,.14003,.28528,.14003,.19427,0,.37579-.20415,.52494-.59036,.11107-.2859,.19209-.37387,.41288-.44827,.15849-.05447,.36178-.17627,.46282-.2773,.09583-.0963,.24687-.15379,.40404-.15379,.12235,0,.23245,.03559,.31013,.10033,.18099,.1459,.44526,.69792,.39936,.78105-.02893,.04289-.02359,.12447,.01546,.23597,.06801,.19222,.22531,.4254,.35123,.46618,.03158,.00969,.07134,.01461,.11816,.01461,.09482,0,.20916-.02063,.29878-.05399,.24303-.10161,.26553-.15085,.48135-1.05336,.02452-.08586,.05682-.22177,.09101-.36566l.00381-.01605,.0732-.2977c.05335-.20321,.14727-.47187,.21668-.57015,.06415-.10708,.09664-.27344,.07237-.371-.06222-.2341-.68105-.54108-1.20411-.59723-.35897-.03113-.80969-.21982-1.12171-.46963-.09581-.07374-.12136-.15989-.0882-.29727,.03321-.13233,.00643-.25037-.07116-.31533-.15981-.15215-.07623-.64321,.18625-1.09455,.64988-1.08397,1.35786-1.94745,1.64705-2.0086,.03746-.00889,.0771-.0134,.11781-.0134m-.42404,10.20751c-.13158-.01921-.17246-.02441-.20876-.02441-.09166,0-.16869,.03261-.22901,.09695-.11252,.12148-.16004,.35-.13738,.66107,.03088,.32333-.28299,.88472-.61077,1.09225-.20088,.13194-.35964,.31116-.40424,.45593-.0659,.17077-.06964,.36661-.00869,.45554l.00402,.00341c.08327,.03886,.17767,.15219,.2593,.31146,.04018,.06781,.17625,.28908,.24005,.28908,.03105,0,.21134,.13915,.38752,.32428,.2214,.21747,.32753,.28766,.43851,.28766h.00088c.15193-.04247,.3408-.08481,.50744-.12216l.01616-.00363c.19366-.03698,.36025-.10285,.39626-.15688,.01919-.03087,.22127-.15963,.48223-.28341,1.00299-.49022,1.20662-.63896,1.28167-.9362,.03816-.1497,.06284-.54738,.055-.8865-.01572-.64842-.13539-.91424-.75316-1.67298-.1614-.20251-.34026-.37928-.41993-.41197h-.01367c-.26921,0-.82987,.25935-1.0675,.45999-.05144,.03835-.1301,.06039-.21593,.06052M24.28624,.01016c-.04004,0-.08106,.0044-.12012,.01367-.29102,.06153-1.00195,.92675-1.65332,2.01319-.26465,.45507-.34766,.95166-.18457,1.10693,.0752,.06298,.10059,.17724,.06836,.30566-.03418,.1416-.00781,.23096,.0918,.30762,.31347,.25098,.7666,.44042,1.12695,.47167,.51855,.05567,1.13379,.3584,1.19531,.58984,.02344,.09425-.00781,.25733-.07129,.36329-.06933,.09813-.16406,.36816-.21777,.57275l-.07324,.29785c-.03516,.14795-.06934,.29248-.09473,.38135-.21485,.89843-.23731,.94726-.47559,1.04688-.08789,.03271-.20117,.05322-.29492,.05322-.04589,0-.08496-.00488-.11523-.01417-.12207-.03954-.27735-.26952-.34473-.45996-.03711-.10595-.04394-.18651-.0166-.22704,.05371-.09717-.22754-.65429-.40137-.79443-.07911-.06592-.19141-.10254-.31641-.10254-.15918,0-.31347,.0586-.41113,.15674-.10058,.10057-.30273,.22119-.45898,.27489-.22461,.07569-.30665,.16505-.41895,.45411-.14746,.38183-.32617,.58398-.51562,.58398-.09082,0-.18457-.04639-.27832-.13721-.11426-.11865-.11426-.14941,0-.32617,.05762-.09424,.12012-.28418,.12012-.42725,0-.13477,.06543-.30957,.14551-.39014,.07227-.07227,.16309-.22657,.23047-.39307,.06641-.16211,.0918-.29004,.0625-.31885-.01856-.01905,.0205-.14551,.08105-.25977,.06348-.12256,.08496-.23975,.06348-.26758-.02539-.02539-.04785-.25928-.04785-.49951,0-.52491-.35254-1.52832-.5791-1.65186-.0918-.03955-.23731-.16211-.3418-.2666-.08984-.09619-.18164-.14746-.32617-.14746l-.02832,.00049c-.05273,.01318-.09765,.01904-.13574,.01904-.20996,0-.27929-.17774-.2998-.76221-.02344-.72119-.13574-1.05762-.35449-1.05762-.08301,0-.2168-.02881-.29883-.08253-.03906-.01903-.07324-.02783-.10547-.02783-.06152,0-.12304,.03078-.21777,.10939-.09472,.07763-.2373,.16113-.32324,.16113-.15723,0-.65235,.51026-.82715,.85303-.06543,.12744-.15722,.26416-.2041,.26416-.08691,0-.3291,.56641-.3623,.90186-.02051,.16162-.08594,.37451-.14551,.4751-.08789,.13428-.1123,.34131-.09668,.8208,.03223,.58545,.07715,.84082,.24219,1.36621,.0918,.3125,.73731,.69971,1.30469,.78174,.15332,.02344,.27344,.11523,.3125,.23877,.03516,.10938,.00195,.22363-.09082,.3125-.05664,.06055-.16504,.21777-.24121,.36621-.11719,.23291-.40333,.48877-.59375,.48877h-.00489c-.14746,0-.61426,.29346-.875,.55127-.23828,.24219-.26075,.30127-.21386,.57373,.03221,.21533,.01268,.34179-.06349,.41064-.15527,.1626-.22265,.47314-.13574,.62744,.03613,.07324,.20996,.19239,.39551,.27051,.16699,.06738,.45996,.2119,.6416,.3291,.17285,.10742,.41602,.19824,.53223,.19824,.12891,0,.37305,.05468,.54883,.10938,.12891,.04883,.29492,.08203,.41211,.08203l.1582-.01367c.08594,0,.18262,.01758,.24707,.0459,.04199,.02539,.13281,.03906,.25,.03906,.08789,0,.18847-.00782,.28906-.02441,.09375-.0127,.1914-.01954,.28027-.01954,.12891,0,.23145,.01271,.28125,.03517,.04102,.0205,.08497,.02929,.13477,.02929,.09668,0,.22071-.03514,.4043-.11522,.18652-.08008,.28125-.11621,.34961-.11621,.0625,0,.10157,.03028,.15137,.08594,.07325,.06152,.11621,.17773,.0918,.24414-.02247,.05957-.04688,.14258-.04688,.17383,0,.13867-.29492,.39257-.64355,.55566-.46192,.21289-.59961,.32812-.66895,.55957-.0293,.08789-.09668,.18652-.1416,.18652l-.14453,.02344c-.03516,0-.1543,.10937-.25,.24414-.11035,.13476-.25195,.29101-.32129,.33691-.07519,.05957-.15137,.18848-.18164,.27832-.05274,.18946-.58496,.54688-.81348,.54688-.06152,0-.26563,.09375-.44629,.21777-.28711,.18847-.74804,.28027-1.40918,.28027-.16602,0-.3457-.00585-.56543-.01855-.07813,0-.14893,.03027-.16846,.07324-.07763,.11621-.40576,.21875-.60986,.21875l-.17432-.01758c-.1001,0-.21338,.0332-.2876,.08496-.08448,.05567-.16065,.08008-.24805,.08008-.05371,0-.11377-.00879-.18994-.02832-.07325-.02148-.14502-.03613-.21973-.03613-.02148,0-.04297,.00195-.06494,.00391-.02442,.0166-.26124,.04786-.52979,.06348-.28711,.02539-.57129,.08985-.66162,.15137-.06934,.05175-.18262,.08691-.28174,.08691l-.146-.01758c-.1001,0-.2168,.04786-.33789,.1377-.125,.09277-.1875,.13379-.2583,.13379-.05908,0-.11963-.02735-.23535-.08594-.26953-.13867-.70557-.19923-1.72803-.23828-.35401-.00781-.73535-.0625-.8501-.12109-.24072-.11914-.47509-.55567-.52197-.97266-.01563-.14844-.05469-.36718-.08594-.47656-.02784-.11426-.04297-.25879-.03516-.33008,.00782-.06641-.05713-.36036-.15234-.6377-.0874-.28809-.15625-.57324-.15625-.65039,0-.13672-.16308-.34765-.69775-.90234-.22265-.22266-.34521-.417-.34521-.54688,0-.11035-.02442-.25586-.04688-.32617-.03076-.07715,.0376-.20899,.19287-.37256,.13916-.13916,.26514-.30664,.2876-.38086,.02441-.07666,.1748-.28174,.30566-.43555,.14454-.16797,.33594-.39014,.42188-.50342,.08985-.1211,.19922-.2544,.25049-.31299,.06201-.06201,.0669-.14258,.01465-.23242-.03809-.07178-.06006-.19238-.03125-.27002,.05176-.13037-.18554-.5747-.47949-.89697-.41699-.44043-.59473-.66552-.63428-.80273-.02295-.08057-.21289-.24756-.42334-.37207-.69043-.41504-.82422-.44873-1.78662-.44873-.63721,0-.81201,.02978-1.04004,.17529-.14111,.08984-.35205,.20703-.46191,.26562-.11279,.05469-.38623,.21485-.61621,.36719-.24316,.15674-.4043,.22656-.52246,.22656l-.16113-.02686c-.08008,0-.15478,.0415-.22949,.12744-.08448,.09179-.1919,.16943-.23438,.16943-.03272,0-.15479,.14355-.28467,.35693-.11133,.20312-.27979,.40088-.36133,.45117-.07861,.03907-.1499,.15088-.1499,.23389,0,.09814-.10645,.27295-.24756,.40625L.00988,7.88074l.15237,.43358c.11865,.36767,.17041,.43408,.34717,.44189l.14502,.00391c.19873,0,.28906-.03223,.38623-.13916,.1206-.1167,.18262-.13428,.51074-.14209,.15673-.00781,.19482-.05273,.19482-.22949,.00781-.23438,.13721-.37208,.36426-.3877,.06397,0,.21045-.02442,.31885-.04688,.1211-.03125,.2378-.0459,.35645-.0459,.16845,0,.34961,.02832,.5874,.09277,.12109,.03028,.23046,.04639,.31689,.04639,.06933,0,.12353-.01025,.23486-.04541,.21729,0,.65576,.24512,.75635,.42334,.03564,.06054,.04004,.12451,.01318,.18408-.03906,.08691-.14014,.15381-.27052,.17871-.67871,.10938-.7661,.146-1.03613,.43604-.15283,.16748-.34619,.31396-.41406,.31396-.06006,0-.17333,.13037-.2417,.27832-.12792,.25976-.12744,.29199,.00782,.57031,.07226,.17187,.17676,.32812,.22851,.36523,.10351,.06445,.30763,.61133,.28369,.75879l.0498,.09961c.04394,0,.11133,.08496,.1416,.17969,.02734,.10938,.20556,.4209,.28076,.54883,.23828,.38281,.30957,.68457,.47705,2.01758,.08105,.69336,.12452,.8252,.42529,1.2793,.17823,.27344,.35107,.50293,.38038,.51758,.06103,.02441,.42383,.3418,.6499,.55957,.08349,.07617,.29785,.14356,.47754,.15137,.63525,.03125,.89551,.0625,1.07129,.12891,.03907,.01367,.0791,.02051,.12012,.02051,.08106,0,.16358-.02734,.23926-.07812,.10742-.0664,.25927-.11816,.3457-.11816l.29687-.02441c.08447,0,.29688,.07617,.49463,.17676,.20898,.09668,.31641,.13086,.40918,.13086l-.00005,.00005c.05273,0,.10205-.01074,.16455-.03711,.07031-.03614,.15673-.05762,.23193-.05762l.11768,.0166c.08642,0,.23828-.04785,.37695-.11816,.1626-.08887,.24853-.11914,.34082-.11914,.07325,0,.14942,.0205,.25684,.05566,.12403,.04102,.20362,.05762,.26758,.05762,.05518,0,.09912-.0127,.14209-.04102,.06201-.04981,.16113-.07031,.33008-.07031,.15673,0,.37646,.01855,.68896,.05371,.15137,.01562,.34327,.05371,.42725,.08594l.12988-.02637c0-.13379,.4248-.3252,.72168-.3252l.10742,.00195c.15674,0,.3877-.01367,.55811-.0332,.06641-.00781,.13769-.01074,.20703-.01074,.1626,0,.30518,.01855,.38184,.0498,.06787,.03418,.12353,.0498,.18164,.0498,.07178,0,.15186-.02441,.26709-.08105,.11963-.05078,.22412-.07324,.33887-.07324,.06933,0,.14356,.00879,.22656,.02637,.083,.01758,.15429,.02539,.21777,.02539,.1084,0,.20605-.02442,.31445-.08008,.1211-.06152,.30567-.1123,.43555-.1123h.00293c.10937,0,.34961-.04883,.56152-.12988,.20801-.06543,.58887-.15137,.84082-.17578,.22657-.02246,.5586-.10938,.72559-.19141,.11914-.06055,.23926-.1045,.32324-.1045h.01855c.02051,.02149,.29493,.05762,.62891,.07325,0,0,.7666,.05272,.86426,.0625,.37207,.04883,1.13184,.3457,1.21387,.47461l.13086,.03906c.06348,0,.22852,.05078,.41016,.14258,.21679,.11328,.38086,.16309,.5332,.16309,.14453,0,.2793-.04492,.43848-.14648,.11621-.08203,.23535-.11133,.4541-.11133,.09863,0,.21679,.00585,.36523,.01659,.11133,.00489,.21582,.00782,.30469,.00782,.23926,0,.30371-.01953,.30371-.03027,0-.08008,.90722-.50098,1.0791-.50098,.07129,0,.14942-.04883,.1709-.10645,.02539-.07227,.16992-.16602,.2998-.22168,.12597-.05176,.30371-.16407,.38867-.24512,.08106-.08008,.21192-.14551,.29297-.14551,.07129,0,.28125-.13477,.4502-.28809,.17579-.16016,.40235-.34375,.50391-.40625,.09863-.07129,.17383-.20117,.17383-.30078,0-.09668,.0752-.27636,.16113-.38574,.09083-.11523,.15918-.24219,.15918-.27832,0-.06738,.5166-1.09472,.77832-1.56152,.10255-.17773,.07228-1.08984-.0371-1.16113-.05664-.03028-.15722-.23047-.18652-.29102-.08105-.17383-.16309-.23535-.31543-.23535-.55078-.01563-1.31836-.76123-1.41504-1.37549-.02441-.18262-.09668-.40283-.15234-.51025-.16016-.33644-.33594-1.37843-.3125-1.85791,.0293-.31201,.11328-.60547,.24219-.84962,.10937-.20604,.22168-.5415,.24609-.73242,.04297-.34179,.20996-.75585,.33887-.83593,.03418-.01905,.03125-.21485-.03418-.49854-.0625-.25782-.15234-.80079-.20703-1.21143-.04785-.40918-.12012-.71826-.13965-.72998-.03613,0-.10058-.09717-.14941-.19434-.06055-.1416-.1875-.21191-.5-.27832-.11914-.02539-.2168-.03809-.29785-.03809-.25,0-.37011,.11475-.43066,.40918-.05274,.24024-.29688,.53467-.48145,.53467h-.00684c-.05078-.02978-.20606-.21337-.32129-.39648-.17383-.27832-.20801-.39551-.14551-.50098,.0459-.09131,.0459-.19629,.00098-.28027-.04687-.07324-.06445-.17041-.03906-.21582,.02051-.03565-.02246-.146-.11328-.24073-.10742-.13085-.16113-.21386-.16113-.24511,0-.05859-.09375-.10255-.21777-.10255h0Zm-.42479,10.22751c.08692,0,.16895-.02246,.22266-.0625,.23828-.20117,.79687-.45801,1.06152-.45801h.01367c.07422,.03125,.25488,.21093,.41211,.4082,.61621,.75683,.73536,1.02246,.75098,1.66699,.00781,.33789-.0166,.73438-.05469,.88379-.07422,.29395-.27735,.44141-1.27637,.92969-.24707,.11719-.46387,.25098-.48633,.28711-.0332,.0498-.19531,.11523-.38965,.15234-.16992,.0381-.36718,.08203-.52441,.12598-.10547,0-.20996-.06933-.42969-.28516-.17285-.18164-.35742-.32715-.39453-.32715-.04687,0-.15333-.15234-.23145-.28418-.08105-.15819-.17577-.2744-.26367-.31542-.05957-.08692-.05467-.2793,.00977-.44629,.04395-.14258,.20117-.32031,.4004-.45117,.33007-.20898,.64648-.77441,.61523-1.10156-.02247-.30859,.02442-.53419,.13477-.65332,.05858-.0625,.13281-.09375,.22167-.09375,.03516,0,.07423,.00488,.20801,.02441h0Z"/>
   <path class="c"
         d="M24.28657,.01501c.12105,0,.21234,.04199,.21234,.09767,0,.01217,0,.0492,.16293,.24911,.0874,.09119,.13193,.20068,.11172,.23438-.02604,.04776-.00874,.14487,.03907,.22052,.04501,.08252,.04495,.18566,.00018,.27526-.06387,.10779-.03008,.22612,.14468,.50655,.11608,.18349,.27201,.36766,.32505,.39847,.01141,.00456,.02399,.00687,.03741,.00687,.15084,0,.40257-.30065,.45657-.54541,.05949-.29153,.17892-.40511,.42598-.4051,.08093,0,.17791,.0124,.29651,.03788,.31097,.06609,.43634,.13559,.49705,.27594,.01003,.02009,.09939,.19573,.14906,.19573h.00051c.02043,.01893,.09026,.31668,.13852,.7269,.05131,.3848,.14137,.94034,.2072,1.21187,.06193,.26832,.06878,.47511,.03569,.49317-.12901,.08064-.2977,.49636-.34055,.83925-.02432,.19045-.13652,.5252-.24501,.73095-.1296,.24438-.21374,.5388-.24335,.85187-.02352,.4902,.14932,1.51594,.31361,1.86054,.05531,.10693,.12704,.32635,.15135,.50868,.09746,.61595,.86704,1.36374,1.42003,1.37954,.1497,0,.23115,.06084,.31132,.23264,.02954,.06093,.13039,.26216,.18718,.29311,.10975,.07055,.13785,.97694,.03574,1.15467-.26132,.46667-.77861,1.49559-.77861,1.56348,0,.03507-.06902,.16285-.15802,.27507-.08646,.11005-.16229,.29182-.16229,.389,0,.09862-.07378,.22612-.17102,.29616-.09898,.06091-.32571,.24366-.50541,.40738-.18528,.16881-.38396,.28646-.44639,.28646-.08337,0-.21344,.06477-.29596,.14729-.08474,.0807-.2622,.19248-.38766,.24414-.13062,.05598-.27642,.15111-.3023,.22443-.02092,.05577-.09713,.10289-.16642,.10289-.15068,0-1.08422,.40732-1.08391,.50476-.00177,.0027-.02526,.02635-.29897,.02635-.08983,0-.19216-.00258-.3039-.00765-.16036-.01154-.27312-.01669-.36562-.01669-.22045,0-.34011,.02937-.45689,.11198-.15832,.10094-.29284,.14595-.43615,.14595-.15089,0-.31448-.04997-.53049-.16205-.18254-.093-.34879-.14318-.41254-.14318-.01464,0-.02497,.00241-.03359,.00937-.00498,.00664-.01194,.01-.0207,.01-.02361,0-.05321-.02296-.07224-.05624-.08259-.12978-.8453-.42859-1.21835-.47724-.09708-.00996-.29323-.02325-.50089-.03732-.1203-.00815-.24615-.01668-.36294-.02522-.35478-.0169-.60786-.05352-.62622-.0713-.00603-.00603-.01598-.00896-.03043-.00896-.05728,0-.1877,.0463-.31696,.11251-.16608,.08101-.49724,.16822-.72314,.19045-.25288,.02446-.6339,.1105-.84245,.17639-.21145,.08073-.45094,.12898-.56032,.12898l-.02205-.00074c-.11023,0-.29412,.05025-.41861,.11438-.10755,.05502-.20384,.07956-.31223,.07956-.06327,0-.13403-.00842-.21628-.02575-.08347-.01788-.15798-.02658-.2278-.02658-.11375,0-.22201,.02353-.3412,.07426-.11425,.056-.19346,.07989-.26485,.07989-.05685,0-.11218-.01499-.18005-.0489-.07654-.03168-.21989-.05059-.38345-.05059-.07077,0-.14248,.00374-.20744,.01082-.17276,.01957-.402,.03323-.55747,.03323-.03363,0-.06384-.00064-.08956-.00204l-.01768-.00023c-.28046,0-.72697,.18049-.72697,.33055,0,.02807-.01538,.04231-.04571,.04231-.02097,0-.04756-.00698-.07745-.0204-.08442-.03216-.27656-.07099-.42822-.08654-.33416-.03779-.54037-.05391-.68951-.05391-.17042,0-.27014,.02142-.33279,.07115-.04223,.02815-.08518,.0407-.13927,.0407-.06336,0-.14295-.0172-.26612-.0575-.10779-.03537-.18467-.05585-.25869-.05585-.10436,0-.20104,.04185-.34273,.11895-.1383,.07068-.28894,.11817-.37485,.11817-.01638,0-.02949-.0018-.03915-.00542-.02062-.00727-.04776-.01112-.07849-.01112-.07589,0-.16341,.02189-.23335,.05819-.06237,.02586-.11114,.03689-.16307,.03689-.09224,0-.19875-.03414-.40669-.13031-.19855-.10115-.41231-.17742-.49723-.17742l-.01232,.0006c-.04051,.00451-.10052,.00901-.16051,.01351-.04405,.0033-.08809,.00661-.12354,.00987-.08756,0-.24086,.05213-.34936,.11891-.07465,.05057-.15626,.0773-.23601,.0773-.04032,0-.08015-.00669-.11813-.01978-.17642-.06665-.43724-.09813-1.07342-.12954-.17557-.00748-.39272-.07607-.47394-.14955-.22651-.21883-.59015-.53607-.65092-.56034-.02502-.01252-.18891-.22473-.37894-.5161-.29986-.45373-.34347-.585-.42421-1.27699-.16771-1.334-.23919-1.63601-.47785-2.01943-.07516-.12851-.25293-.43918-.28036-.54878-.03115-.09734-.09949-.18273-.14624-.18273-.01261,0-.02466-.00677-.03394-.01907-.01439-.01908-.01866-.0473-.01087-.0748,.02489-.15353-.1781-.69616-.28531-.76364-.05177-.03698-.15536-.19164-.22729-.36342-.13558-.27891-.13594-.30533-.00773-.56566,.07493-.16232,.18505-.27544,.23702-.27544,.07039,0,.2616-.1446,.41746-.31568,.26946-.28897,.35638-.32551,1.03365-.4345,.13192-.02546,.23441-.09327,.27415-.1814,.02776-.06156,.02308-.1269-.01344-.18882-.10138-.17912-.54224-.42592-.76083-.42592-.03151,0-.05736,.00531-.07688,.01582-.03595,.01962-.08912,.02956-.15803,.02956-.08556,0-.19456-.01594-.31503-.04605-.23874-.06446-.42034-.09321-.58883-.09321-.11934,0-.23633,.01514-.35722,.04619-.10863,.02248-.25457,.04667-.31898,.04669-.22971,.01612-.36064,.15549-.36868,.39279,0,.17473-.03546,.21667-.18946,.22437-.32662,.00798-.39394,.02674-.51497,.1439-.09594,.10554-.18523,.13771-.38216,.13771-.04045,0-.08792-.00139-.14516-.00425-.17336-.00771-.22457-.07327-.34257-.43864l-.15016-.42739,.25306-.23389c.14208-.13397,.24923-.31007,.24923-.40962,0-.08015,.07135-.19161,.14761-.22979,.08184-.05066,.251-.24912,.36266-.45252,.12701-.20895,.24978-.35457,.28052-.35457,.04385,0,.15277-.07841,.238-.1714,.07369-.0846,.1475-.12573,.22567-.12573,.02715,0,.05532,.00515,.08404,.0154,.02378,.00767,.04983,.01156,.07742,.01156,.1189,0,.28076-.07017,.52491-.22758,.23197-.15333,.5058-.31331,.61639-.36671,.104-.05571,.31826-.17443,.4616-.26602,.22714-.1449,.40169-.17421,1.03759-.17421,.96131,0,1.09468,.03348,1.78396,.44782,.20963,.12423,.39861,.28982,.42126,.36915,.03951,.13824,.2176,.36391,.63505,.80477,.29309,.32119,.53014,.76298,.47848,.89215-.03004,.08152-.00605,.20188,.03199,.27412,.05112,.08764,.04626,.16585-.01455,.22669-.05078,.05861-.15939,.19035-.25041,.31301-.08715,.11488-.28835,.3487-.42151,.50346-.12971,.15195-.28126,.35678-.30666,.43721-.02212,.07374-.14799,.24005-.28673,.37881-.1563,.16473-.225,.29889-.1937,.37707,.02232,.07067,.04641,.21506,.04641,.32512,0,.13113,.12312,.32647,.34655,.54991,.5337,.55376,.69642,.76388,.69642,.89931,0,.07767,.06882,.36378,.15679,.65167,.09504,.2775,.15968,.56987,.15187,.63629-.00789,.07105,.00764,.21669,.03547,.33197,.03059,.10704,.06979,.32451,.08562,.47493,.04702,.41925,.28256,.85735,.52488,.97652,.11504,.05951,.49726,.11433,.85187,.1222,1.02167,.039,1.45727,.09884,1.72632,.2372,.11605,.05898,.17729,.08677,.23735,.08677,.0724,0,.13526-.04099,.26143-.13453,.12-.08923,.23584-.1364,.33499-.1364,.02485,0,.04855,.00306,.07076,.00919,.02204,.0053,.04726,.00798,.07496,.00798,.10039,0,.2149-.03529,.28456-.08755,.08971-.061,.37315-.12577,.65904-.15064,.2503-.01472,.50401-.0453,.53543-.06752,.00018-.00031,.00481-.0077,.04001-.0077,.05244,0,.14349,.01671,.2379,.04368,.07635,.0195,.13703,.02858,.19095,.02858,.0884,0,.16569-.02489,.25081-.08083,.07375-.05105,.18549-.08404,.28467-.08404,.02728,0,.05239,.00251,.07444,.00741,.02802,.00687,.06169,.01035,.10008,.01035,.20543,0,.53559-.10431,.61451-.22291,.01861-.04033,.08742-.0696,.16361-.06959l.02593,.00117c.19268,.01157,.37441,.01743,.54014,.01743,.66144,0,1.12307-.09184,1.41144-.2809,.18027-.12418,.38285-.21698,.44355-.21698,.2303,0,.76559-.36001,.81808-.54981,.02984-.08954,.10545-.21747,.17966-.27609,.06995-.04664,.21238-.20333,.32293-.33849,.09904-.1403,.21553-.24186,.2477-.24205,.01943-.00389,.04566-.00777,.07188-.01166,.02651-.00393,.05301-.00786,.07069-.01159,.04875,0,.11618-.10036,.1463-.19072,.06879-.22931,.20582-.34369,.66651-.55631,.35039-.16325,.64641-.41963,.64641-.55985,0-.02701,.02074-.10429,.04623-.17227,.02602-.06936-.01733-.18592-.09178-.24849-.05144-.05696-.09151-.08782-.15586-.08782-.06901,0-.16424,.03597-.35165,.1166-.18279,.07948-.30678,.11492-.40202,.11492-.04916,0-.09254-.00942-.13282-.02891-.05006-.02276-.15341-.03581-.28356-.03581-.0932,0-.19022,.0067-.28081,.01942-.09761,.01627-.19723,.02487-.28809,.02487-.11613,0-.20656-.01429-.24925-.0398-.0641-.02787-.16141-.04588-.24791-.04588-.02945,0-.05575,.00207-.07872,.00627-.02061,.00494-.04746,.00745-.07981,.00745-.11673,0-.28166-.03267-.41098-.0815-.17543-.05458-.42064-.10983-.54985-.10983-.11498,0-.35764-.09054-.52974-.19763-.18212-.11736-.47522-.26215-.64215-.32892-.18106-.07645-.35753-.19699-.39361-.26912-.08527-.15201-.01828-.45962,.13469-.62049,.07816-.07033,.09842-.19838,.06567-.41537-.04635-.27036-.02454-.3289,.212-.56932,.26071-.25708,.72501-.55013,.87158-.55012l.01749,.00194c.00776,.00188,.01624,.00283,.0252,.00283,.14877,0,.44201-.25978,.56027-.49626,.07596-.14792,.18402-.30459,.24022-.36455,.09418-.09062,.12796-.20649,.09267-.31789-.03973-.12542-.16113-.21821-.31692-.24218-.56533-.08188-1.20947-.46728-1.30049-.77825-.16473-.52486-.20991-.77995-.24173-1.36453-.01582-.47856,.00841-.68507,.09626-.81879,.05964-.10065,.12507-.31439,.14588-.47678,.03258-.33395,.27138-.89722,.35724-.89722,.049,0,.13983-.13418,.20812-.26717,.17468-.3416,.66702-.85002,.82313-.85002,.08748,0,.23064-.08419,.32669-.16246,.09377-.07769,.15386-.10796,.21433-.10796,.03182,0,.06458,.00865,.10197,.02661,.08448,.05492,.21603,.08365,.30232,.08365,.21544,0,.32646,.33454,.34939,1.05285,.0205,.58786,.09165,.76709,.3045,.76709,.03893,0,.08392-.00636,.13738-.01941,.02043-.00461,.04116-.00695,.06163-.00695,.09642,0,.1934,.05131,.28847,.15271,.10446,.10446,.25101,.22776,.34214,.26734,.22641,.12314,.57681,1.12394,.57681,1.64747,0,.21894,.02001,.47337,.04887,.50209,.01788,.02383,.00241,.13536-.06332,.26273-.04918,.09222-.10607,.23989-.08028,.26568,.02665,.02665,.00045,.15552-.06372,.31339-.06737,.16577-.15736,.31934-.22925,.39122-.08131,.08132-.14746,.25797-.14746,.39379,0,.14212-.06208,.33098-.1195,.42427-.11617,.18027-.11606,.21137,.00144,.3329,.09439,.09183,.18913,.13839,.2816,.13839,.19171,0,.37147-.20307,.51984-.58725,.1117-.28722,.1933-.37577,.41579-.45119,.15757-.0538,.36001-.17496,.46087-.27583,.09726-.09726,.2498-.15532,.40806-.15532,.12371,0,.2348,.03595,.31297,.10135,.18876,.15184,.44879,.70081,.40026,.78751-.03718,.05666-.00575,.16948,.0163,.23169,.06788,.19157,.22408,.42333,.34838,.463,.0305,.00976,.06951,.01471,.11594,.01471,.09441,0,.20817-.02066,.29721-.05406,.24085-.10036,.26321-.14942,.47843-1.04949,.02526-.08955,.05927-.23148,.09527-.38174,.0249-.10394,.05017-.20941,.07275-.29812,.06309-.23973,.15648-.48519,.21768-.57165,.06434-.10857,.09571-.26974,.07137-.36706-.06323-.23711-.66884-.53654-1.2002-.59332-.3593-.03125-.8108-.22032-1.12367-.47062-.0992-.07631-.12447-.16104-.09015-.30214,.03261-.13045,.00657-.24666-.06921-.31045-.16169-.15417-.07854-.64808,.18528-1.10091,.65043-1.08538,1.35966-1.94991,1.64994-2.01102,.03897-.00906,.07905-.01366,.11914-.01366m-.42507,10.21781c-.03125,0-.0625-.00298-.09225-.00872-.04067-.01066-.07978-.01606-.11624-.01606-.08997,0-.16552,.03217-.22457,.09562-.11164,.11995-.15885,.34728-.13652,.65763,.03097,.32528-.28389,.88867-.61274,1.09616-.20015,.13202-.35814,.31047-.40225,.45394-.06568,.1685-.06963,.36225-.00918,.45069,.0194,.02838,.04469,.04339,.07277,.04339h.00006c.01731,.00323,.10729,.10932,.19097,.27245,.02818,.04779,.17196,.28617,.23517,.28617,.03221,0,.21068,.13648,.39142,.32525,.22052,.21706,.32577,.28673,.43316,.28673,.02346,0,.04723-.00353,.07359-.01111,.08448-.03306,.27945-.07634,.45147-.11453l.02719-.00605c.16785-.03123,.33198-.09799,.36611-.14921,.02095-.03491,.24152-.1699,.4841-.28522,1.00065-.48842,1.20381-.63654,1.27874-.93229,.03838-.14971,.06306-.54696,.055-.88553-.01567-.64624-.13519-.91159-.75218-1.67006-.15767-.19809-.33956-.37785-.41362-.40902-.01334-.00646-.03179-.00974-.05484-.00974-.20748,0-.78297,.26252-1.02576,.46773-.05329,.03926-.13333,.06178-.2196,.06178M24.28657,.005c-.03917,0-.08051,.00442-.1214,.01393-.29688,.0625-1.00782,.93359-1.65625,2.01562-.26172,.44922-.35157,.95313-.1836,1.11329,.07422,.0625,.09766,.17578,.06641,.30078-.03516,.14453-.00781,.23437,.09375,.3125,.3125,.25,.76953,.4414,1.1289,.47265,.51172,.05469,1.12891,.35157,1.19141,.58594,.02344,.09375-.00781,.25391-.07031,.35938-.06641,.09375-.16016,.35156-.21875,.57421-.05469,.21485-.125,.52735-.16797,.67969-.21484,.89844-.23828,.94531-.47266,1.04297-.08576,.03216-.19911,.05329-.29336,.05329-.04312,0-.08224-.00442-.11289-.01423-.18359-.05859-.4414-.55468-.35937-.67968,.05469-.09766-.22266-.65625-.40235-.80079-.08382-.07013-.19986-.10356-.31924-.10356-.15322,0-.31194,.05506-.41513,.15825-.09766,.09766-.29688,.21875-.45703,.27344-.23047,.07812-.3125,.17578-.42188,.45703-.14815,.3836-.32318,.58087-.51052,.58087-.08928,0-.18134-.04479-.27463-.13556-.11328-.11718-.11328-.14453,0-.32031,.0625-.10156,.12109-.29297,.12109-.42969,0-.1289,.0625-.30468,.14453-.38672,.16016-.16015,.35938-.65234,.29297-.71875-.01562-.01562,.01953-.13671,.08203-.2539,.0625-.1211,.08594-.24219,.0625-.27344-.02344-.02344-.04687-.25-.04687-.49609,0-.53516-.35938-1.53516-.58203-1.65625-.08985-.03907-.23438-.16016-.33985-.26563-.09659-.10303-.19584-.15563-.29554-.15564-.02126,0-.04254,.00239-.06383,.0072-.0507,.01237-.09555,.01916-.13518,.01916-.2108,0-.27478-.19189-.29451-.75744-.02344-.73437-.13672-1.0625-.35938-1.0625-.08984,0-.21875-.03125-.29687-.08203-.03866-.01866-.07323-.02823-.10742-.02823-.06601,0-.13064,.03563-.22071,.11026-.10546,.08594-.24218,.16016-.32031,.16016-.16015,0-.65625,.51172-.83203,.85547-.07422,.14453-.16016,.26172-.19922,.26172-.09765,0-.33594,.58593-.36719,.90625-.01953,.15234-.08203,.36718-.14453,.47265-.08984,.13672-.11328,.35157-.09765,.82422,.03125,.57422,.07422,.83203,.24218,1.36719,.09375,.32031,.74219,.70312,1.3086,.78516,.30469,.04687,.42578,.34375,.21875,.54296-.0586,.0625-.16797,.22266-.24219,.36719-.12184,.24366-.41116,.49083-.55137,.49083-.00814,0-.01577-.00083-.02285-.00255l-.01984-.00222c-.14812,0-.61077,.2889-.8786,.553-.23828,.24219-.26171,.30469-.21484,.57813,.03125,.20703,.01563,.33594-.0625,.40625-.15234,.16016-.22656,.47266-.13672,.63281,.03906,.07813,.22266,.19922,.39844,.27344,.17578,.07031,.46484,.21484,.64062,.32812,.17579,.10938,.41797,.19922,.53516,.19922,.12891,0,.37109,.05469,.54688,.10938,.13655,.05158,.3014,.08195,.41395,.08195,.03233,0,.06034-.00251,.08214-.00773,.0222-.00404,.04832-.00599,.07639-.00599,.08059,0,.17729,.01608,.24392,.04505,.04436,.02661,.13783,.04063,.25324,.04063,.08786,0,.18843-.00813,.28973-.02501,.09293-.01304,.19063-.01928,.27917-.01928,.1236,0,.22935,.01215,.27942,.03491,.04096,.01982,.08552,.02981,.13696,.02981,.10063,0,.22765-.0382,.40601-.11575,.18031-.07758,.2785-.11577,.34766-.11577,.05969,0,.09777,.02843,.14844,.08452,.07422,.0625,.11328,.17578,.08984,.23828s-.04687,.14453-.04687,.17578c0,.13672-.29688,.39063-.64063,.55079-.45703,.21093-.60156,.32812-.67187,.5625-.03125,.09375-.09766,.18359-.13672,.18359-.03907,.00781-.10547,.01562-.14453,.02344-.03907,0-.16016,.11328-.25391,.24609-.10547,.12891-.25,.28906-.32031,.33594-.07422,.05859-.15235,.1875-.1836,.28125-.05078,.18359-.57812,.54297-.80859,.54297-.06641,0-.27344,.09765-.44922,.21875-.2818,.18474-.73434,.27913-1.40577,.27913-.16621,0-.34577-.00578-.53954-.01741l-.02653-.00119c-.07717,0-.15166,.02984-.17269,.0754-.07331,.10997-.39396,.2171-.60542,.2171-.03642,0-.06958-.00318-.0977-.01006-.02333-.00519-.04936-.0077-.07682-.0077-.09666,0-.21127,.03106-.29036,.08582-.08333,.05476-.15798,.07905-.24512,.07905-.05583,0-.11678-.00996-.18848-.02827-.09271-.02649-.18542-.04399-.24037-.04399-.02608,0-.04366,.00394-.04869,.01274-.02344,.01563-.26172,.04688-.52734,.0625-.26953,.02344-.56641,.08594-.66407,.15235-.073,.05475-.18627,.08582-.27894,.08582-.02634,0-.05101-.00251-.07262-.0077-.023-.00635-.04746-.00947-.0731-.00947-.10063,0-.21955,.0481-.34096,.13838-.12252,.09083-.18565,.13255-.25546,.13255-.05929,0-.12339-.03007-.23282-.08568-.27344-.14062-.70703-.19922-1.73047-.23828-.35156-.00781-.73438-.0625-.84766-.12109-.23828-.11719-.47265-.55078-.51953-.96875-.01562-.14844-.05469-.36719-.08594-.47657-.02734-.11328-.04296-.25781-.03515-.32812,.00781-.06641-.05469-.35547-.15235-.64063-.08593-.28125-.15625-.57031-.15625-.64843,0-.14453-.17968-.36719-.69922-.90625-.22265-.22266-.34375-.41407-.34375-.54297,0-.10938-.02343-.25391-.04687-.32813-.03125-.07812,.04687-.21484,.19141-.36718,.13671-.13672,.26562-.30469,.28906-.38282,.02344-.07422,.16797-.27343,.30469-.43359,.14453-.16797,.33593-.39063,.42187-.50391,.08985-.12109,.19922-.2539,.25-.3125,.0625-.0625,.07031-.14453,.01563-.23828-.03907-.07422-.0586-.1914-.03125-.26562,.05468-.13672-.19532-.58985-.48047-.90235-.41797-.4414-.59375-.66406-.63282-.80078-.02343-.08203-.21484-.25-.42578-.375-.69531-.41797-.82422-.44922-1.78906-.44922-.64844,0-.81641,.03125-1.04297,.17578-.14062,.08985-.35156,.20704-.46094,.26563-.11328,.05469-.38671,.21484-.61718,.36719-.24118,.15549-.40246,.22592-.5194,.22592-.02701,0-.05163-.00375-.07435-.01108-.02929-.01046-.05831-.01588-.08711-.01588-.07876,0-.15598,.04049-.23321,.12916-.08593,.09375-.1914,.16797-.23046,.16797-.03907,0-.16797,.16016-.28907,.35938-.10937,.19921-.27734,.39843-.35937,.44921-.07813,.03907-.15235,.15235-.15235,.23829,0,.09765-.10937,.27343-.24609,.40234L.005,7.88221l.15234,.43359c.1211,.375,.17578,.4375,.35156,.44532,.05442,.00272,.10258,.00426,.1456,.00426,.20402,0,.29278-.03452,.38956-.14098,.12109-.11719,.1875-.13281,.50781-.14063,.15625-.00781,.19922-.05078,.19922-.23437,.00781-.23047,.13672-.36719,.35938-.38281,.0625,0,.20703-.02344,.32031-.04688,.11939-.03065,.23412-.04598,.35519-.04598,.17206,0,.35693,.03095,.58622,.09286,.12194,.03048,.23053,.0464,.31764,.0464,.06916,0,.12479-.01003,.16282-.03078,.01856-.00999,.0431-.0146,.07209-.0146,.20893,0,.64923,.23904,.75213,.42085,.08985,.15234-.03125,.3125-.2539,.35547-.67969,.10937-.76953,.14844-1.03907,.4375-.16015,.17578-.34765,.3125-.41015,.3125s-.17578,.12891-.2461,.28125c-.1289,.26172-.1289,.29297,.00782,.57422,.07031,.16797,.17578,.32812,.23047,.36719,.10546,.0664,.30468,.60937,.28125,.7539-.01563,.05469,.01562,.10547,.05468,.10547,.03907,0,.10547,.07813,.13672,.17578,.02344,.09375,.16016,.34375,.28125,.55078,.23828,.38282,.3086,.67969,.47656,2.01563,.08204,.70312,.12891,.83203,.42579,1.28125,.17578,.26953,.35156,.5039,.38281,.51953,.05859,.02344,.41797,.33594,.64844,.55859,.08203,.07422,.29687,.14453,.48046,.15235,.63282,.03125,.89454,.0625,1.07032,.1289,.03902,.01346,.07989,.02043,.12166,.02043,.0795,0,.16223-.02524,.24162-.07902,.10156-.0625,.25391-.11719,.34375-.11719,.08594-.00781,.21484-.01562,.28516-.02344l.01121-.00054c.08352,0,.29521,.07572,.49269,.17633,.19798,.09157,.31289,.1314,.41123,.1314,.05688,0,.10821-.01331,.1669-.03765,.07383-.03828,.16106-.05743,.22952-.05743,.02934,0,.05524,.00352,.07516,.01055,.01078,.00404,.02516,.00599,.04248,.00599,.08311,0,.23393-.04492,.3794-.11927,.15149-.08243,.242-.11785,.33818-.11785,.07247,0,.14815,.0201,.25557,.05535,.11686,.03824,.20138,.058,.26924,.058,.05689,0,.10207-.01388,.14482-.04238,.05934-.04706,.15517-.06947,.32724-.06947,.15644,0,.37588,.01851,.68839,.05385,.15234,.01562,.34375,.05469,.42578,.08594,.03085,.01388,.05866,.02106,.08101,.02106,.03425,0,.05571-.01686,.05571-.05231,0-.134,.4278-.32055,.71697-.32055l.0174,.00023c.02561,.00139,.05601,.00204,.08984,.00204,.15709,0,.38825-.014,.5586-.03329,.06649-.00725,.13714-.01076,.20631-.01076,.15431,0,.30141,.01746,.37963,.04983,.06575,.03288,.12309,.04966,.18387,.04966,.07642,0,.15829-.02652,.26925-.08091,.11475-.04883,.22034-.07324,.3368-.07324,.06988,0,.14367,.00879,.2257,.02636,.08162,.01719,.15275,.02597,.21838,.02597,.1134,0,.21038-.02622,.31678-.08066,.1289-.0664,.3125-.11328,.41406-.11328l.02205,.00074c.11705,0,.36272-.05283,.56389-.12964,.22265-.07032,.59765-.15235,.83984-.17578,.23828-.02344,.56641-.11329,.72656-.19141,.13224-.06773,.25916-.1115,.31258-.1115,.01128,0,.01927,.00195,.02336,.00603,.02344,.02344,.30469,.05859,.63281,.07422,.32032,.02344,.71094,.04687,.86329,.0625,.35937,.04687,1.1289,.34375,1.21093,.47266,.02169,.03796,.05469,.06087,.08068,.06087,.01145,0,.02153-.00444,.0287-.014,.00482-.00361,.01354-.00537,.02559-.00537,.06615,0,.23287,.05287,.408,.14209,.21092,.10944,.3793,.16314,.53503,.16314,.14998,0,.28822-.04978,.44153-.14752,.11153-.07888,.22689-.11041,.45151-.11041,.09795,0,.21664,.00599,.3649,.01666,.11158,.00507,.21536,.00768,.30462,.00768,.18573,0,.30866-.01127,.30866-.03502,0-.07812,.90625-.49609,1.07422-.49609,.07031,0,.15234-.04688,.17578-.10938,.02344-.0664,.16016-.16015,.29688-.21875,.13281-.05469,.30859-.16797,.39062-.24609,.07813-.07813,.20703-.14453,.28906-.14453,.07032,0,.27735-.12891,.45313-.28907,.17578-.16015,.40234-.34375,.50391-.40625,.09765-.07031,.17578-.19921,.17578-.30468,0-.09375,.07422-.27344,.16015-.38282,.08985-.11328,.16016-.24218,.16016-.28125,0-.0625,.50391-1.07031,.77734-1.55859,.10547-.18359,.07032-1.09766-.03906-1.16797-.04297-.02344-.12109-.16015-.18359-.28906-.08203-.17578-.16797-.23828-.32032-.23828-.54687-.01563-1.3125-.75391-1.41015-1.3711-.02344-.17578-.09375-.39843-.15235-.51171-.16015-.33594-.33593-1.36719-.3125-1.85547,.02735-.28907,.10547-.58985,.24219-.84766,.11328-.21484,.22266-.55078,.2461-.73437,.04296-.34375,.21093-.75391,.33593-.83204,.04297-.02343,.02735-.25-.03125-.5039-.0625-.25781-.15234-.80078-.20703-1.21094-.04687-.39844-.12109-.73437-.14453-.73437-.03125,0-.09375-.08985-.14453-.19141-.0625-.14453-.19141-.21484-.50391-.28125-.11603-.02493-.21468-.03809-.29859-.0381-.25789-.00002-.37684,.12426-.43578,.4131-.05413,.24535-.30158,.53741-.44677,.53741-.01199,0-.02327-.00199-.0337-.00616-.04688-.02734-.19922-.20313-.32031-.39453-.16797-.26953-.20703-.39063-.14453-.4961,.04687-.09375,.04687-.19921,0-.28515-.04688-.07422-.0625-.16797-.03907-.21094,.02344-.03906-.02343-.15234-.11328-.24609-.08594-.10547-.16015-.20703-.16015-.24219,0-.06502-.10063-.10768-.22235-.10768h0Zm-.42506,10.23782c.08819,0,.1707-.02334,.22553-.06373,.25097-.21209,.81863-.46577,1.01983-.46578,.02114,0,.03822,.0028,.05048,.00874,.07422,.03125,.25782,.21485,.41016,.40625,.61328,.75391,.73437,1.01954,.75,1.66407,.00781,.32812-.01563,.73047-.05469,.88281-.07422,.29297-.28906,.44531-1.27344,.92578-.23828,.11328-.46484,.25-.48828,.28906-.03125,.04688-.1914,.11328-.35937,.14453-.17578,.03907-.39063,.08594-.48047,.1211-.02385,.00681-.04688,.01042-.06995,.01042-.10921,0-.21975-.0807-.42614-.28386-.17579-.18359-.35938-.32812-.39844-.32812s-.13672-.12891-.22656-.28125c-.07813-.15235-.17579-.27735-.19922-.27735-.10938,0-.14453-.25-.05469-.48047,.04687-.15234,.21484-.32812,.39844-.44922,.32812-.20703,.64843-.77734,.61718-1.10546-.03427-.47639,.09685-.7423,.35114-.7423,.03554,0,.07347,.00519,.11371,.01573,.03165,.00613,.06358,.00905,.09478,.00905h0Z"/>

</g>
</svg>
