<?xml version="1.0" encoding="UTF-8"?>
<svg xmlns="http://www.w3.org/2000/svg"
     version="1.1"
     width="31.46772689mm"
     height="23.95702356mm"
     viewBox="0.00000000 0.00000000 89.19986829 67.90969513">

<g transform="scale(6.36662146)">   <defs>
      <style type="text/css"><![CDATA[
      .a {
        stroke: #000;
        stroke-miterlimit: 10;
        stroke-width: 0.15px;
      }
    ]]></style>
   </defs>
   <path class="a"
         d="M8.53714,1.46c-1.1182.8159-2.376,1.4985-3.5225,2.2778-.81739.5528-2.1865.9844-2.7481,1.857-.3759.5844-.2324.44089.1719.8818a2.65452,2.65452,0,0,0,.8819.6914c.8955.2876,2.0703-.5386,2.8632-.9839.7666-.4267,1.5459-.8769,2.3252-1.3086.9571-.5342,1.94051-.8125,2.9336-1.2861.4824-.2319,1.9492-.7935,1.8106-1.5449-.0703-.3907-1.26269-1.9356-1.6895-1.9683-.4687-.0322-1.07219.5762-1.4668.77049A11.09352,11.09352,0,0,1,8.43944,1.46"/>
   <path class="a"
         d="M1.47754,7.43713a3.33781,3.33781,0,0,0-1.0996.8588c-.4551.5806-.377.67779.0976,1.1236a3.69119,3.69119,0,0,0,3.0489,1.15519h5.2304c.8457,0,1.6387-.08779,2.4698-.09759,1.26261-.0186,3.0498.7475,2.6552-1.4522-.3945-2.2187-2.8037-1.3925-4.3027-1.3925a40.37112,40.37112,0,0,1-5.1572-.1953c-1.0118-.1299-2.2178-.5889-3.0401.09759"/>

</g>
</svg>
