<?xml version="1.0" encoding="UTF-8"?>
<svg xmlns="http://www.w3.org/2000/svg"
     version="1.1"
     width="53.30318558mm"
     height="75.00835818mm"
     viewBox="0.00000000 0.00000000 151.09555432 212.62212943">

<g transform="scale(7.45723337)">   <defs>
      <style type="text/css"><![CDATA[
      .b {
        stroke: #000;
        stroke-miterlimit: 10;
        stroke-width: .15px;
      }
    ]]></style>
   </defs>
   <path class="b"
         d="m10.14031,7.23126c-.10211.27078-.13678.21971-.9375,1.25-.39632.50995-.80383,1.08092-1.61884,2.22287,0,0-4.21042,5.89941-5.25699,9.45677-.12286.41762-.14543.79346-.15543.97661-.03505.64198-.0602,1.10258.23697,1.37756.37109.34337,1.1172.27924,1.51561-.07588.42418-.3781.37154-1.01236.38676-1.48848.03642-1.13852.91533-2.5405,2.67315-5.34445.99483-1.58688,1.28675-1.76685,1.46875-2.34375.04689-.14865.15465-.53969.5-.8125.20512-.16205.32777-.15102.59375-.3125.35074-.21295.54453-.47929.71875-.71875.44806-.61582.3129-.8366.6875-1.3125.27995-.35565.45309-.35641.84375-.6875.62483-.52956.8667-1.10801,1.09035-1.52222.28812-.53363.39803-.52069,2.42383-2.59946,2.02203-2.07489,2.35147-2.53821,2.39207-3.22208.0085-.14313.06564-1.10544-.56444-1.62302-.45618-.37474-1.1022-.37637-1.34181-.37698-.35083-.00089-.63652.06734-.82344.12589.17044.28369.16605.59038.01094.74911-.1296.13263-.33062.12733-.375.125-.32905-.01735-.4299-.31456-.64326-.33557-.36116-.03557-.71648.75252-.79424.92933-.75702,1.72132-.45792,2.9235-1,3.125-.2587.09616-.62125-.06823-.78125-.28125-.28242-.37602.0701-.89835-.21875-1.15625-.15678-.13998-.4366-.14323-.59375-.03125-.21031.14987-.19374.50105-.1875.65625.035.87079.09396,2.33777-.25,3.25Z"/>
   <path class="b"
         d="m.92156,23.98126c-.32021.31343-1.00682,1.00732-.8125,1.46875.07984.18958.28072.27393.375.31201.71596.28918,1.58805-.24501,2.0235-.5193,2.51598-1.58476,4.40768-3.20052,4.40768-3.20052,2.19655-1.87611,2.00938-1.70844,2.16339-1.84541,1.00223-.89145,2.6187-2.38045,4.53042-4.40303,2.02225-2.13952,1.61986-1.96132,2.65625-2.90625.78722-.71774,1.85231-1.57997,2.96056-3.02209.16342-.21266.65323-.86429.85194-1.82165.08205-.3953.2706-1.30368-.1875-1.65625-.30891-.23775-.77075-.11414-.99055-.05531-.93361.24985-1.49084,1.00436-1.59059,1.13936-.82718,1.11949-2.83292,3.40674-6.29385,7.35345-2.75877,3.14598-7.75562,6.86754-10.09375,9.15625Z"/>
   <path class="b"
         d="m2.26168,24.19442c-.23355.15775-.85274.58623-1.27063,1.3701-.08051.15102-.62837,1.1787-.25699,1.57298.32901.34929,1.20238.01347,1.5625-.125.72672-.27943,1.18866-.69107,1.23833-.73479,1.79637-1.58119,10.48015-2.65027,10.76167-1.57771.03952.15057-.05757.45377-.25.625-.22491.20013-.45132.10548-.75.28125-.27527.16199-.23259.33046-.5.65625-.50203.61162-1.01678.46178-1.28268.99928-.03078.06221-.19005.38417-.06107.68822.17081.40262.71962.47324.78285.48047.34862.03989.57021-.09746,1.23038-.42081.92622-.45367.81105-.34056,1.20552-.55966.5934-.32959,1.01825-.69296,1.84375-1.40625.88472-.76447,1.34065-1.24085,1.6875-1.09375.21263.09016.24895.35724.45071.35867.14488.00104.26929-.13568.51669-.54111.33141-.54311.4971-.81465.5744-1.09547,0,0,.20554-.74673-.01056-1.56584-.09913-.37576-.26138-.66055-.28388-.69948-.00005-.00009-.0919-.15895-.19157-.28731-.40349-.51962-2.10397-.50966-2.46202-.50877-1.73407.00429-1.349-.13155-3.00002-.09819-1.10266.02228-1.96771.09688-2.40208.13898-1.586.15373-2.63585.25549-3.90364.6266-1.60876.47093-2.81557,1.28606-5.22916,2.91634Z"/>

</g>
</svg>
