<?xml version="1.0" encoding="UTF-8"?>
<svg xmlns="http://www.w3.org/2000/svg"
     version="1.1"
     width="40.37165942mm"
     height="41.61479189mm"
     viewBox="0.00000000 0.00000000 114.43934568 117.96319017">

<g transform="scale(7.01067263)">   <defs>
      <style type="text/css"><![CDATA[
      .a {
        stroke: #000;
        stroke-miterlimit: 10;
        stroke-width: 0.15px;
      }
    ]]></style>
   </defs>
   <path class="a"
         d="M4.43641,3.17439c-1.40138,1.11209-1.28187,1.15985-2.42553,2C.76367,6.0906-.00069,6.49091.08095,6.70631c.08739.23056,1.12125.18948,2.05759-.17022C3.34664,6.072,3.63272,5.36929,5.56107,3.8162,6.76586,2.84586,7.0533,2.79872,7.28748,2.834c1.186.17844,1.67827,2.57087,1.74468,2.89363a6.6767,6.6767,0,0,1-.59679,4.71135A18.03089,18.03089,0,0,1,5.2356,14.37911c-.271.2257-.581.53521-.47667.87207.10546.34052.54451.41781.90059.43468l3.58641.16988a2.15832,2.15832,0,0,1,1.54137.48826,1.88346,1.88346,0,0,0,.29132.3128c.296.203.69569.04,1.014-.12579l3.75409-1.95515c.229-.11929.498-.35866.36782-.58172a.50913.50913,0,0,0-.372-.18254,5.89019,5.89019,0,0,1-3.26116-1.82324.8082.8082,0,0,1-.21093-.339.90349.90349,0,0,1,.17239-.62028,22.56737,22.56737,0,0,0,2.09189-5.92555,5.30319,5.30319,0,0,0,.14114-2.63217A3.77738,3.77738,0,0,0,11.07239.075a7.1698,7.1698,0,0,0-2.431.39555A13.95937,13.95937,0,0,0,4.43641,3.17439Z"/>

</g>
</svg>
