<?xml version="1.0" encoding="UTF-8"?>
<svg xmlns="http://www.w3.org/2000/svg"
     version="1.1"
     width="45.88016087mm"
     height="41.30251417mm"
     viewBox="0.00000000 0.00000000 130.05403460 117.07797000">

<g transform="scale(5.59901992)">   <defs>
      <style type="text/css"><![CDATA[
      .a {
        stroke: #000;
        stroke-miterlimit: 2.61313;
        stroke-width: 0.28346px;
      }
    ]]></style>
   </defs>
   <path class="a"
         d="M4.8457,4.60107c-.52686-.84814,1.29541-2.11963,3.19336-3.40479L12.95215.95312A3.17634,3.17634,0,0,1,16.22656.38574c2.67578.60791,2.34766,1.95947.65625,3.64795a11.92252,11.92252,0,0,1-3.11133,1.86475,33.6707,33.6707,0,0,0-6.30566,5.99951A10.38292,10.38292,0,0,0,10.168,17.4917a16.8479,16.8479,0,0,1,3.43945.32422c.51758,1.02734-.16406,1.75586-1.39258,2.35156q-1.801.24316-3.60254.48633a16.39641,16.39641,0,0,0-3.84814-2.91895c-.90332-1.54-.84766-3.459-.65527-5.43164Q8.28442,8.168,12.46094,4.03369c.95508-.78369.6543-1.02637-.57324-.72949-1.01025.29736-1.856.59473-2.86572.8916Q5.62354,5.53394,4.8457,4.60107Z"/>
   <path class="a"
         d="M13.11523,10.51953c-.32178-.627,1.39453-1.83057,2.70313-2.91846a3.20424,3.20424,0,0,1,1.96484,3.40479q-.49219,2.9187-.98242,5.8374-1.147,1.3374-2.293,2.67578A2.60749,2.60749,0,0,1,11.478,20.65381q-.73608-1.70361,1.14648-2.75684a15.96334,15.96334,0,0,0,.90088-5.75586q-.20508-.81152-.41016-1.62158Z"/>
   <path class="a"
         d="M13.68945,15.78857c-.13867-.52539-.74219-.82031.98242-2.26953a31.0345,31.0345,0,0,1,8.1875-4.37793q.98291.89282-2.293,2.75684-3.438,1.94531-6.877,3.89063Z"/>
   <path class="a"
         d="M.17871,15.54639c.95947-2.57031,7.41553-2.5957,9.17041-1.541q-.36768.44531-.73682.89258c-.45947,1.33594-2.83643,1.23828-5.48584,1.05273a11.7947,11.7947,0,0,1-2.94775-.4043Z"/>

</g>
</svg>
