<?xml version="1.0" encoding="UTF-8"?>
<svg xmlns="http://www.w3.org/2000/svg"
     version="1.1"
     width="44.38359709mm"
     height="13.27214561mm"
     viewBox="0.00000000 0.00000000 125.81180207 37.62182972">

<g transform="scale(4.54756027)">   <defs>
      <style type="text/css"><![CDATA[
      .a {
        stroke: #000;
        stroke-linecap: round;
        stroke-linejoin: round;
        stroke-width: 0.01px;
      }
    ]]></style>
   </defs>
   <path class="a"
         d="M2.44012.10843A2.39858,2.39858,0,0,0,1.998.41128c-.25439.2241-.30284.23016-.60569.103C1.047.36888.829.44156.50191.82315.084,1.31376-.134,2.21021.10215,2.46457a2.212,2.212,0,0,1,.315.77528,1.38125,1.38125,0,0,0,.26045.57541.69156.69156,0,0,1,.20593.15142c.13931.1272.15748.18171.109.29679-.0424.11508-.02423.18171.109.33313a1.59087,1.59087,0,0,1,.44216.66626c.12719.38159.54512.62386,1.56268.87825a1.25445,1.25445,0,0,1,.36341.13931c.06057.103.47244.17565,1.18716.218a1.58477,1.58477,0,0,1,.48455.0848c.1272.06057.23622.06057,1.02967-.03634a2.19729,2.19729,0,0,1,.527-.02423.9731.9731,0,0,0,.35735-.1272,1.42959,1.42959,0,0,1,.3937-.15748.39461.39461,0,0,0,.20594-.12114c.109-.109.17565-.12113.50272-.08479.35736.03634.39976.02423.8298-.212a4.12969,4.12969,0,0,1,1.19927-.55118,1.282,1.282,0,0,0,.35735-.09086,1.18654,1.18654,0,0,1,.30285-.09085,1.16363,1.16363,0,0,0,.37553-.29679c.29073-.3089.50272-.44821.62992-.41793a.95053.95053,0,0,0,.33313-.06662.495.495,0,0,1,.52089.0424,1.47616,1.47616,0,0,0,.32707.13325.73213.73213,0,0,1,.25439.19988,3.10083,3.10083,0,0,0,1.32647.69048,1.65851,1.65851,0,0,1,.79345.4361,1.16051,1.16051,0,0,0,.34525.27256.3.3,0,0,1,.16353.1272c.0424.109.58147.12114,1.07208.03028.1817-.03634.60569-.09085.93882-.11508a3.3382,3.3382,0,0,0,1.387-.34524,1.71873,1.71873,0,0,1,.38764-.14537.667.667,0,0,0,.25439-.14536,1.67088,1.67088,0,0,1,.98122-.23017c.1272-.00605.24834-.04239.27256-.09085a2.17637,2.17637,0,0,1,1.01756-.3513,3.2821,3.2821,0,0,0,.64809-.15142c.35736-.13931.44216-.109.52695.15142a.56112.56112,0,0,0,.109.2241,1.76221,1.76221,0,0,1,.37553.59964,1.023,1.023,0,0,0,.12719.29679,3.79941,3.79941,0,0,1,.27862.66626,6.81281,6.81281,0,0,0,.2665.7026,1.87116,1.87116,0,0,1,.11509.28467,1.33276,1.33276,0,0,0,.52089.61781c.19382.09085.22411.09085.69654-.06663a1.45709,1.45709,0,0,0,.89643-.6602,1.58627,1.58627,0,0,1,.23622-.20594A.92938.92938,0,0,0,27.328,6.45a4.79733,4.79733,0,0,1,.1272-1.175.29921.29921,0,0,0,.00605-.218.87737.87737,0,0,1,.11509-.59964,1.21113,1.21113,0,0,0,.07874-.46638,1.03433,1.03433,0,0,0-.218-.75106c-.20594-.33313-.22411-.38764-.18777-.67837.03029-.26045.01817-.33313-.07874-.43a1.86231,1.86231,0,0,1-.23016-.3089,1.08423,1.08423,0,0,0-.49061-.36948,1.01586,1.01586,0,0,0-.69654-.1393,1.77235,1.77235,0,0,0-.57541.17565,2.37418,2.37418,0,0,1-.48455.17565.49042.49042,0,0,0-.36948.23622,1.38429,1.38429,0,0,1-.60569.55117,1.05374,1.05374,0,0,0-.1817.04846,1.852,1.852,0,0,1-.3937-.01211c-.27862-.03635-.38159-.02423-.51484.06662a.66843.66843,0,0,1-.29073.109,1.88237,1.88237,0,0,0-.81163.36341c-.16959.16959-.46638.3089-.56329.2665a.8706.8706,0,0,0-.37553.06663,1.17372,1.17372,0,0,1-.38764.06663,5.28845,5.28845,0,0,0-.62386-.06057,1.80765,1.80765,0,0,1-.848-.19382,1.879,1.879,0,0,0-.44215-.17565,3.69667,3.69667,0,0,1-.62992-.32708,2.694,2.694,0,0,0-.61781-.3089.77242.77242,0,0,1-.19988-.03634,2.043,2.043,0,0,1-.46032-.86614.834.834,0,0,0-.218-.3513.60873.60873,0,0,1-.206-.29688.80062.80062,0,0,0-.3089-.36947.76276.76276,0,0,0-.6178-.12719.87544.87544,0,0,0-.62992.218,2.62835,2.62835,0,0,1-.48455.29074c-.1272.04845-.33919.14536-.47244.20593a2.06646,2.06646,0,0,1-.41187.15142.35647.35647,0,0,0-.26045.24228,2.93373,2.93373,0,0,1-.32707.527.97823.97823,0,0,0-.23017.47244,1.41912,1.41912,0,0,1-.15142.46032c-.15748.29679-.17565.30891-.64809.46639a3.281,3.281,0,0,1-.65414.16353.88964.88964,0,0,0-.35736.109c-.103.05451-.33313.18171-.51484.28467-.33919.18777-.26045.18171-1.65959.15748a1.58707,1.58707,0,0,0-.533.0848.72092.72092,0,0,1-.44821.04845,1.998,1.998,0,0,1-1.10236-.43,2.0769,2.0769,0,0,0-.44215-.3513.75161.75161,0,0,1-.37553-.36947,2.75773,2.75773,0,0,0-.26651-.49667,2.61992,2.61992,0,0,1-.26044-.527.90517.90517,0,0,0-.18778-.34517,1.43585,1.43585,0,0,1-.2241-.49061.74317.74317,0,0,0-.424-.58752c-.1817-.1272-.38764-.27862-.45427-.33919A.93029.93029,0,0,0,2.44012.10843Z"/>

</g>
</svg>
