<?xml version="1.0" encoding="UTF-8"?>
<svg xmlns="http://www.w3.org/2000/svg"
     version="1.1"
     width="12.13751108mm"
     height="17.21224307mm"
     viewBox="0.00000000 0.00000000 34.40552245 48.79066960">

<g transform="scale(6.27936546)">   <defs>
      <style type="text/css"><![CDATA[
      .b {
        stroke: #000;
        stroke-miterlimit: 10;
        stroke-width: .15px;
      }
    ]]></style>
   </defs>
   <path class="b"
         d="m1.54516,1.83676c-.43347.24207-.75247.32361-1.07016.71945-.08936.11133-.38748.48282-.39963.96417-.01324.52481.3269.6485.6875,1.35416.53058,1.03829.27182,1.70516.89581,2.43749.15268.1792.34695.34909.60306.37857.23615.02719.42487-.07651.61206-.18378.69962-.40091,1.04944-.60138,1.24321-.77814,1.45759-1.32947,1.2924-3.7182,1.27085-3.97915-.03448-.41788-.1124-.70203-.16669-.89585-.15256-.54468-.33102-1.18179-.89581-1.5625-.16461-.11096-.27213-.18341-.4375-.20831-.74164-.1116-.96802.98624-2.34271,1.75388Z"/>

</g>
</svg>
