<?xml version="1.0" encoding="UTF-8"?>
<svg xmlns="http://www.w3.org/2000/svg"
     version="1.1"
     width="26.53378114mm"
     height="28.16862073mm"
     viewBox="0.00000000 0.00000000 75.21379973 79.84809338">

<g transform="scale(7.45243009)">   <defs>
      <style type="text/css"><![CDATA[
      .b {
        stroke: #000;
        stroke-miterlimit: 10;
        stroke-width: .15px;
      }
    ]]></style>
   </defs>
   <path class="b"
         d="M5.98298,4.57532c-.77284,.60715-1.2254,.96268-1.81914,1.5-1.17084,1.0596-1.75626,1.58939-2.23405,2.36169-.7431,1.20114-.84689,2.22058-1.24467,2.20212-.27643-.01282-.46494-.51624-.51064-.63828-.17557-.46887-.09622-.92313,.06383-1.43619,.14737-.47241,.3918-1.08652,1.05319-2.13831,.55179-.8775,1.3311-2.0979,1.97873-2.20212,.05716-.00919,.26796-.03461,.44681-.1915,.02477-.02173,.26631-.23938,.25531-.51062-.00847-.20883-.16118-.31458-.70212-.79788-.57932-.51758-.65581-.62109-.67021-.76596-.02217-.22293,.11711-.39865,.38297-.73404,.21046-.26553,.4026-.50793,.73405-.63831,.32945-.12958,.40181,.00677,.76595-.12766,.40828-.15073,.45587-.37329,.70213-.38297,.26511-.01041,.44817,.23816,.73404,.57446,.78166,.91956,1.17249,1.3793,1.56383,1.37234,.35928-.00641,.71167-.35971,1.05319-.70215,.25069-.25137,.3604-.4425,.63831-.51062,.0856-.02097,.40433-.0835,.63829,.12766,.14146,.12769,.24208,.3465,.1915,.54254-.05629,.21817-.27806,.32379-.44681,.41492-.40813,.22037-.72633,.57977-1.11702,.82977-.54584,.3493-1.18304,.84988-2.45746,1.85107Z"/>

</g>
</svg>
