<?xml version="1.0" encoding="UTF-8"?>
<svg xmlns="http://www.w3.org/2000/svg"
     version="1.1"
     width="19.02623459mm"
     height="49.19563974mm"
     viewBox="0.00000000 0.00000000 53.93265261 139.45223436">

<g transform="scale(3.67920472)">   <defs>
      <style type="text/css"><![CDATA[
      .a {
        stroke: #000;
        stroke-linecap: round;
        stroke-linejoin: round;
        stroke-width: 0.01px;
      }
    ]]></style>
   </defs>
   <path class="a"
         d="M4.43047.30577a.96448.96448,0,0,1-.30859.34766,1.35283,1.35283,0,0,0-.57031.85157c-.10938.37109-.332.59766-.4961.49609-.09765-.05859-.53906.21485-.73047.46094-.08593.10547-.35546.40235-.59375.64063a5.86265,5.86265,0,0,0-.582.64843,4.37255,4.37255,0,0,1-.39062.52735,1.02348,1.02348,0,0,0-.24219.418.537.537,0,0,1-.23828.54687c-.13672.04688-.13672.0625-.03906.16016a.42272.42272,0,0,1,.11718.17968.539.539,0,0,0,.168.21876.75369.75369,0,0,1,.1875.55078,1.80482,1.80482,0,0,0,.1836.89062,2.45617,2.45617,0,0,1,.11718.82813,2.38427,2.38427,0,0,0,.17578.97265,1.11053,1.11053,0,0,1,.11719.61328,1.13921,1.13921,0,0,0,.125.64063c.14453.31641.15235.39844.06641.63281a1.7308,1.7308,0,0,0,.0625,1.12891,1.34476,1.34476,0,0,1,.0625.67969,8.85289,8.85289,0,0,0-.03906,1.13671c.01562.4375.01562,1.082.00781,1.4336-.01563.91406,0,1.17578.10156,1.33593a.17816.17816,0,0,1-.02344.17188.25709.25709,0,0,0,.05469.27344.27429.27429,0,0,1,.02734.3164.81113.81113,0,0,0-.07421.28516,3.24464,3.24464,0,0,1-.16407.82422A3.42338,3.42338,0,0,0,1.45782,19.712a1.45473,1.45473,0,0,1-.11328.53125,1.61758,1.61758,0,0,0-.10938.85938,2.49059,2.49059,0,0,0,.13281.625c.082.15625.03125.44532-.09375.44532-.03906,0-.07031.08984-.07031.19531A1.33646,1.33646,0,0,1,.79766,23.13a1.567,1.567,0,0,0-.40234.89452.55313.55313,0,0,1-.1875.40235c-.15235.09765-.16016.16406-.16016,2.46484a8.58567,8.58567,0,0,0,.10156,2.42187c.13672.082.36719.4336.32422.48829a1.80809,1.80809,0,0,0-.03906,1.1914.181.181,0,0,1-.03973.25287h0l-.00714.00493a.25715.25715,0,0,0-.0625.28516,1.12183,1.12183,0,0,1,.07032.21094c.00781.02343.03906.13672.07031.26562.03125.11719.11328.36719.17578.53907a.84238.84238,0,0,1,.07813.42578,2.115,2.115,0,0,0,.30859.96484c.05469.05078.18359.20312.293.32422s.18359.2539.168.293c-.02344.0664.19531.28515.64843.6875a.546.546,0,0,0,.2461.11719,1.4362,1.4362,0,0,1,.40234.1914c.35547.21094.47266.22656.61719.082.07812-.07422.1875-.08984.37891-.04687a2.73743,2.73743,0,0,0,1.21874-.082c.07813-.03907.14063-.05079.14063-.03125,0,.02343.09766-.00782.23047-.07422a.86979.86979,0,0,1,.28516-.09766,2.41063,2.41063,0,0,0,.89453-.48828.50774.50774,0,0,1,.3164-.168,1.30927,1.30927,0,0,0,.57813-.36328,1.84568,1.84568,0,0,1,.51172-.35156.21624.21624,0,0,0,.168-.10547.88033.88033,0,0,1,.48047-.27344c.15235,0,.45313.34766.77735.90625a9.55057,9.55057,0,0,1,.75781,1.56641,1.01359,1.01359,0,0,0,.14453.35547.75851.75851,0,0,1,.11719.40625c-.04688.13672.22265.34765.73047.57422a1.94953,1.94953,0,0,1,.44922.2578.45417.45417,0,0,0,.30859.082.59265.59265,0,0,1,.37891.12109c.10156.08985.13672.09766.24609.01562.332-.25782.64844-.63671.64844-.77735a.63672.63672,0,0,1,.125-.32422c.05859-.08985.09765-.168.07422-.168s.03125-.14062.10937-.31641a.73416.73416,0,0,0,.05469-.64844.85481.85481,0,0,1,.03906-.64844.67338.67338,0,0,0,.05859-.42187.43044.43044,0,0,1,.05469-.332,4.02813,4.02813,0,0,0-.16015-2.668c-.09375-.23437-.10157-.36328-.04688-.46875.125-.22656.09375-.40625-.13281-.72266a.96807.96807,0,0,1-.168-1.09375.84566.84566,0,0,0,.10938-.45312c-.03126-.09766.02343-.20313.168-.33985.19141-.17187.21485-.23828.19922-.65624a4.88363,4.88363,0,0,0-.05859-.69922.36157.36157,0,0,1,.07422-.35547.4179.4179,0,0,0,.11719-.21875.54067.54067,0,0,1,.10937-.2461,9.95007,9.95007,0,0,0,.30859-2.76953,4.25531,4.25531,0,0,1,.13672-1.05469,3.02217,3.02217,0,0,0,.10156-.86718,3.60088,3.60088,0,0,1,.11719-.92578.69981.69981,0,0,0,.00781-.53516.7156.7156,0,0,1-.04687-.37109,4.83463,4.83463,0,0,0,.12109-1.39453c-.01562-.793-.01562-1.84766,0-2.41407a5.08519,5.08519,0,0,0-.18359-1.8164,1.62144,1.62144,0,0,1-.125-.64063c0-.22656-.00781-.48828-.01563-.59375a5.56185,5.56185,0,0,1,.08594-1.28515,3.263,3.263,0,0,0,.07813-.64063c-.00781-.125-.00781-.31641-.00781-.4375.00781-.11328.00781-.293.01562-.41406a4.85566,4.85566,0,0,0-.07042-.61712,2.415,2.415,0,0,1,.02343-.94141,1.64513,1.64513,0,0,0-.10937-1.30468c-.16016-.3086-.16016-.31641-.01563-.46094a1.79531,1.79531,0,0,0,.11719-1.41016,6.1651,6.1651,0,0,1-.16406-2.19922c.01563-.21484.00781-.39453-.02734-.39453-.03125,0-.07813-.0664-.10938-.14453-.03906-.11719-.11719-.14062-.50391-.125-.35937.00781-.49218.043-.61718.17969a.50014.50014,0,0,1-.26953.16406c-.0586,0-.11329.03125-.11329.07031a2.29212,2.29212,0,0,1-.51953.45313,5.12468,5.12468,0,0,0-1.07031.92578,6.40564,6.40564,0,0,1-.84766.69531A7.76425,7.76425,0,0,0,8.84454,6.14951a.68543.68543,0,0,0-.21094.31642c-.00782.07422-.02735.21875-.03516.32422-.02344.16015.00781.1875.1836.1875.26953.00781.27734.01562.40234.49218a1.17511,1.17511,0,0,1,.03125.64844.44656.44656,0,0,0,.043.42188,4.87312,4.87312,0,0,1,.08594,2.09765c-.07813.14844-.07813.21094,0,.32813a1.42872,1.42872,0,0,1,.10937.61328,6.09112,6.09112,0,0,0,.03906.78906c.02344.19141.03907.42578.03907.53125a9.72035,9.72035,0,0,0,.043,1.24219c.02344.45312.0625,1.03125.07032,1.28125a3.389,3.389,0,0,0,.07812.61328c.04688.11719.00781.20313-.125.32422-.17578.16406-.17578.1875-.15234,1.46094.04687,2.28515.03906,3.77734-.00782,3.97265-.03124.10547-.07812.28906-.10156.41406a1.71041,1.71041,0,0,1-.13672.37891c-.08593.15625-.09375.21875-.14843,1.168a3.95609,3.95609,0,0,1-.168.90625,1.95385,1.95385,0,0,0-.10938,1.21094,2.31227,2.31227,0,0,1,.07032.65625A5.21605,5.21605,0,0,0,8.95,28.32533c.07032.06641.09375.25391.0625.64844-.01562.30078-.03125.625-.03125.71484.00782.09766.00782.22657.01563.28516,0,.0625,0,.17578.00781.24219.03125.875-.00781.96484-.48437,1.125-.22266.07422-.44922.14062-.50391.14844a6.17947,6.17947,0,0,0-1.10156.53515.981.981,0,0,1-.75.13672,1.56218,1.56218,0,0,1-.60938-.12891c-.35547-.27734-.57031-.53515-.57031-.65625a2.866,2.866,0,0,0-.53906-1.09765.83519.83519,0,0,1-.19532-.39453c-.01171-.11329-.05078-.36719-.082-.5586a.86445.86445,0,0,1,.07032-.5625,4.13785,4.13785,0,0,0,.40625-1.27734,4.72752,4.72752,0,0,1,.14843-1.08985A17.67574,17.67574,0,0,0,4.91485,24.005a4.81068,4.81068,0,0,1,.09375-.90625,1.88031,1.88031,0,0,0,.03906-.76953.73476.73476,0,0,1,.03906-.48828,1.92135,1.92135,0,0,0,.10547-.6875,3.774,3.774,0,0,1,.15625-1.25782.83063.83063,0,0,0,.07813-.28906,11.02757,11.02757,0,0,0-.00782-1.35547,5.5077,5.5077,0,0,1,.04688-.86718,9.22364,9.22364,0,0,0,.03515-2.01953,5.36719,5.36719,0,0,1,.03907-1.13282c.16406-.51172.19531-.71484.13281-.82812-.04688-.07422-.01562-.23438.07812-.44532a.65821.65821,0,0,0,.03907-.63281c-.10157-.28125-.10157-.5039.00781-1.53906.043-.39063.12891-2.1875.11328-2.44922-.01562-.37891-.00781-.57422.02344-1.50781A8.35472,8.35472,0,0,0,5.89532,5.548a2.54251,2.54251,0,0,1-.0625-.73828c0-.04688-.01563-.21485-.03516-.35547a3.58243,3.58243,0,0,1-.04688-.37891,2.155,2.155,0,0,0,.00782-.22656c0-.05859-.01563-.26172-.03906-.44922-.02344-.19142-.03907-.39456-.03907-.45313a4.22578,4.22578,0,0,0-.125-1.99219A2.07312,2.07312,0,0,1,5.41094.37608C5.50078.23937,5.18047.005,4.89141.005,4.6375.005,4.58282.04405,4.43047.30577Zm7.375,35.47656c.05469.14063-.15234.34375-.30078.293a.20818.20818,0,0,1-.06641-.36327.213.213,0,0,1,.36719.07027Z"/>

</g>
</svg>
