<?xml version="1.0" encoding="UTF-8"?>
<svg xmlns="http://www.w3.org/2000/svg"
     version="1.1"
     width="24.94939169mm"
     height="20.09023921mm"
     viewBox="0.00000000 0.00000000 70.72262755 56.94864853">

<g transform="scale(4.43078426)">   <defs>
      <style type="text/css"><![CDATA[
      .a {
        stroke: #000;
        stroke-linecap: round;
        stroke-linejoin: round;
        stroke-width: 0.01px;
      }
    ]]></style>
   </defs>
   <path class="a"
         d="M2.19428.09814A.25177.25177,0,0,1,2.055.21928a2.88383,2.88383,0,0,0-.64809.86008c-.06057.109-.13326.19988-.15748.19988s-.04846.04239-.04846.09085A.36766.36766,0,0,1,1.092,1.57a3.0232,3.0232,0,0,0-.25439.34524,2.255,2.255,0,0,1-.321.41187C.39538,2.44216.353,2.533.37115,2.61781.4075,2.739.244,3.21745.17128,3.21745c-.02423,0-.07874.08479-.12114.1817-.06663.1696-.06663.19988.04845.30285a.8563.8563,0,0,1,.16354.23016.27448.27448,0,0,0,.21805.15748,1.28573,1.28573,0,0,1,.49667.34525c.41792.40581.64809.50272.963.40581a.4944.4944,0,0,0,.30891-.212c.03028-.07874.07874-.13931.103-.13931A3.71991,3.71991,0,0,0,2.64855,3.3628c-.01817-.11508.01212-.19382.13931-.35735.13931-.17565.15142-.23017.19382-.70866.01817-.27256.16354-.59358.26651-.59358.07874,0,.218-.2665.23016-.45427.01211-.103.03028-.28467.04846-.40581C3.56315.63115,3.545.60692,3.27847.407,3.11494.2859,2.94534.15265,2.89083.09814,2.76363-.023,2.24274-.02906,2.19428.09814Z"/>
   <path class="a"
         d="M10.0925,1.79407a8.91912,8.91912,0,0,1-1.08419.06057A3.84314,3.84314,0,0,0,7.54859,2a.61667.61667,0,0,0-.33313.53906c.06057.26651-.45426.93882-.99939,1.29618a2.85994,2.85994,0,0,0-.83585.848.307.307,0,0,1-.07874.18171,1.07935,1.07935,0,0,0-.15748.27256.45859.45859,0,0,1-.12114.19988,2.85761,2.85761,0,0,0-.73288.745.625.625,0,0,1-.15143.27256.70525.70525,0,0,0-.15142.24833,1.16075,1.16075,0,0,1-.38159.58752.459.459,0,0,0-.19382.20594.536.536,0,0,1-.27256.23016.36992.36992,0,0,0-.218.17565c-.11508.35736-.17565.44821-.3089.47849-.16959.04846-.27862.22411-.30284.50878-.02423.27257-.1272.527-.23017.56935-.04845.01818-.103.1272-.12113.24228a1.02884,1.02884,0,0,1-.20594.3937,1.1549,1.1549,0,0,0-.23622.963,3.1529,3.1529,0,0,1,.07268.62386c.01817.4785.15143.73289.4361.83585.11508.0424.20594.103.20594.13326s.05451.05451.12113.05451a.34694.34694,0,0,1,.22411.12114.40946.40946,0,0,0,.57906.0024l.0024-.0024a.38723.38723,0,0,1,.28468-.12114,1.69889,1.69889,0,0,0,.49667-.1272c.17565-.06662.62991-.24833,1.0115-.3937a3.8288,3.8288,0,0,0,.75711-.3513A3.01379,3.01379,0,0,1,6.743,11.152a.54747.54747,0,0,0,.29679-.11508,4.58026,4.58026,0,0,1,.8722-.69655.73563.73563,0,0,0,.24227-.27256.86245.86245,0,0,1,.22411-.27256,2.946,2.946,0,0,1,.98728.19988.73851.73851,0,0,0,.29679.06663,1.8988,1.8988,0,0,1,.533.16959,2.36932,2.36932,0,0,0,.636.18776,1.28271,1.28271,0,0,1,.3937.0848,2.09652,2.09652,0,0,0,1.08418.16354,3.56011,3.56011,0,0,1,.65415-.11508,4.36642,4.36642,0,0,0,.87825-.20594,3.02915,3.02915,0,0,1,.67838-.19382,2.28032,2.28032,0,0,0,1.24166-.77528,1.4766,1.4766,0,0,1,.18171-.23622c.07268-.04846-.16354-.28468-.50272-.50273a1.387,1.387,0,0,0-.79346-.18171c-.77528-.04845-.79345-.05451-1.14475-.33313a1.32284,1.32284,0,0,0-.38765-.24227,1.54675,1.54675,0,0,1-.73894-.43c-.02423-.06057-.06057-.11508-.0848-.11508a9.00779,9.00779,0,0,1-1.0115-.90854,2.33079,2.33079,0,0,1-.33313-.44821.62028.62028,0,0,0-.66626-.39976c-.32707,0-.72683.13325-.69049.23017a.24551.24551,0,0,1-.08479.18776.738.738,0,0,0-.24834.4785.88739.88739,0,0,1-.212.3513.93472.93472,0,0,0-.212.3089.56662.56662,0,0,1-.23622.41187.5844.5844,0,0,0-.212.2241A.67587.67587,0,0,0,8.233,8.1781.333.333,0,0,1,8.1482,8.378a.5592.5592,0,0,0-.18171.50879c.03634.25439-.0848.36341-.51484.44821a4.33507,4.33507,0,0,0-1.30223.47244,2.10657,2.10657,0,0,1-.99334.15142.77932.77932,0,0,1-.212-.24833,1.85752,1.85752,0,0,0-.212-.30285A.91264.91264,0,0,1,4.726,8.72928a2.29476,2.29476,0,0,0,.07874-.46639,1.3177,1.3177,0,0,1,.14537-.527,1.62252,1.62252,0,0,0,.16959-.533A2.32046,2.32046,0,0,1,5.8042,5.94306a1.72678,1.72678,0,0,0,.30285-.36947,3.52376,3.52376,0,0,1,.80557-.78135.36235.36235,0,0,0,.19988-.12719c.20593-.23016.30284-.24833.58146-.109a1.84346,1.84346,0,0,1,.44215.33313A1.46166,1.46166,0,0,0,9.88656,5.083a.97753.97753,0,0,0,.40581-.75106,1.72525,1.72525,0,0,1,.20594-.55724,2.551,2.551,0,0,0,.3513-1.35069.53659.53659,0,0,0-.44216-.59963.61978.61978,0,0,1-.19382-.03029A.13716.13716,0,0,0,10.0925,1.79407Z"/>

</g>
</svg>
