<?xml version="1.0" encoding="UTF-8"?>
<svg xmlns="http://www.w3.org/2000/svg"
     version="1.1"
     width="53.37200608mm"
     height="17.93790181mm"
     viewBox="0.00000000 0.00000000 151.29071263 50.84760476">

<g transform="scale(8.85879183)">   <defs>
      <style type="text/css"><![CDATA[
      .b {
        stroke: #000;
        stroke-miterlimit: 10;
        stroke-width: .15px;
      }
    ]]></style>
   </defs>
   <path class="b"
         d="m7.58324,5.15723c-.21317.13324-.392.20279-.44681.22342-.07707.02899-.30071.10858-.82979.15958-.3271.03152-.58339.05624-.89362.03192-.93988-.0737-1.16936-.50296-1.62766-.31915-.2718.10901-.29204.30048-.63829.38297-.27618.0658-.51188.0032-.6383-.03192-.60583-.16837-.58909-.53867-1.11702-.70212-.4743-.14685-.68713.09033-.98936-.12766-.24966-.18005-.40512-.55881-.28724-.76596.11613-.20407.42981-.12271,1.08511-.25531.30959-.06265.38105-.10944.92553-.28723.36393-.11884,1.24865-.40775,2.23404-.60638.13643-.0275.62287-.0928,1.59575-.22342,1.07728-.14462,1.53249-.1944,1.88298.09573.15841.13113.23508.28171.31915.44684.07649.15024.40227.7901.12766,1.34042-.14464.28986-.40469.45239-.70213.63828Z"/>
   <path class="b"
         d="m10.61515,3.08277c-.20665.00522-.08857-.00357-1.21276-.03192-1.12253-.02832-1.8645-.03531-1.94681.22342-.04142.13019.10886.25018.03191.41489-.06212.13297-.20702.1553-.35106.22342-.44404.20996-.71397.77634-.60638.92551.07108.09854.31287.02322.54255-.03189.4739-.11371.98615-.10773,2.01064-.09576.74515.0087.64396.10681,2.01064.22342.77478.0661,1.16218.09915,1.5.06381.71233-.07452,1.18837-.2991,2.04255-.70212,1.3472-.63562,1.7708-1.12827,1.91489-1.3085.29101-.36401.3772-.6235.41489-.79788.12679-.58658-.1079-1.07635-.19149-1.24469-.09239-.18604-.24794-.4993-.57447-.70212-.34984-.21732-.68781-.17859-1.30851-.12766-1.74456.14313-2.20633.09415-2.26596.31915-.04403.16617.19604.23737.47872.73404.09213.16187.51618.90692.25532,1.3085-.08707.13406-.2214.18509-.67021.28723-.87884.20001-1.31826.30002-2.07447.31915Z"/>

</g>
</svg>
