<?xml version="1.0" encoding="UTF-8"?>
<svg xmlns="http://www.w3.org/2000/svg"
     version="1.1"
     width="37.74264276mm"
     height="23.49937761mm"
     viewBox="0.00000000 0.00000000 106.98691625 66.61240897">

<g transform="scale(6.96665924)">   <defs>
      <style type="text/css"><![CDATA[
      .a {
        stroke: #000;
        stroke-miterlimit: 10;
        stroke-width: 0.15px;
      }
    ]]></style>
   </defs>
   <path class="a"
         d="M12.01113.83362c.291-.06329.3652.06665.70833.0625.47917-.00579.5203-.26142,1.0625-.3125a1.05478,1.05478,0,0,1,.83333.1875.62847.62847,0,0,1,.22917.45833c-.01988.35333-.49136.43282-.47917.70833.00512.11568.09048.15248.561.59726.338.31956.35491.35815.35568.40274.00454.26276-.55572.38529-1.20737.7905a6.17707,6.17707,0,0,0-1.001.8345A12.70661,12.70661,0,0,1,9.81325,6.6436c-1.04163.449-1.80531.57178-2.07295,1.16919a2.0645,2.0645,0,0,1-.46718.72287,5.45727,5.45727,0,0,1-.59932.39591,5.06778,5.06778,0,0,1-.53767.36039,1.89432,1.89432,0,0,1-.66667.1875c-.00693-.12566-.01481-.26749-.02083-.375-.0518-.9251-.06289-1.06915-.176-1.23923-.14706-.2211-.25747-.21741-.30979-.37395-.08681-.25974.28333-.52576.49319-.68781C6.239,6.19883,6.81493,5.83476,7.0528,5.667c.68791-.48527.41348-.64435,1.41667-1.72917C9.423,2.90667,9.669,3.05242,10.4278,2.14612c.092-.11.38775-.3858.97917-.9375A1.26321,1.26321,0,0,1,12.01113.83362Z"/>
   <path class="a"
         d="M1.26582,3.39781a5.05768,5.05768,0,0,0-.60526,1,3.13748,3.13748,0,0,0-.52443,2.1858.79077.79077,0,0,0,.3125.52084,4.84,4.84,0,0,0,.77037.30793.13831.13831,0,0,0,.08992-.0472,5.53443,5.53443,0,0,0,.41967-.42738A.35732.35732,0,0,1,1.84192,6.84c.13933-.06291.296.0914.30235.24414a.867.867,0,0,1-.1529.426.52749.52749,0,0,0-.075.43679.409.409,0,0,0,.37317.21841A1.78984,1.78984,0,0,0,2.739,8.08818c.61427-.14.856.19518,1.5179-.00151.267-.07936.26285-.1565.5042-.19054a2.19247,2.19247,0,0,1,.83695.14335,1.58977,1.58977,0,0,0,1.11607-.02982,1.15009,1.15009,0,0,0,.52757-.92394,1.1349,1.1349,0,0,0-.20975-.7521c-.17053-.22053-.371-.27383-1.10417-.47916-1.02886-.28816-1.35814-.386-1.66667-.6875-.29839-.2916-.29622-.499-.29167-.5625a.55448.55448,0,0,1,.41667-.5c.08537-.01114.13731.0173.52083.25a4.33379,4.33379,0,0,0,.58333.33333,1.96843,1.96843,0,0,0,.56557.12163A2.10327,2.10327,0,0,0,7.84241,3.12065,2.53259,2.53259,0,0,0,7.282,1.167,3.31858,3.31858,0,0,0,6.7403.60446,1.9375,1.9375,0,0,0,5.8631.09014,2.403,2.403,0,0,0,4.61886.39447C4.20609.556,4.07812.65765,4.07694.76153c-.00156.13757.22.211.24752.465.00816.07535.01466.13535-.02165.16955-.14311.13477-.68166-.385-.96156-.21173A.72219.72219,0,0,0,3.2,1.35075c-.106.14347-.12833.22008-.23767.34866a1.06406,1.06406,0,0,1-.11508.11522c-.237.20561-.3692.17414-.607.37315a2.41633,2.41633,0,0,0-.39583.52084C1.58825,3.06387,1.48781,3.11942,1.26582,3.39781Z"/>

</g>
</svg>
