<?xml version="1.0" encoding="UTF-8"?>
<svg xmlns="http://www.w3.org/2000/svg"
     version="1.1"
     width="40.47903434mm"
     height="42.53239145mm"
     viewBox="0.00000000 0.00000000 114.74378139 120.56429544">

<g transform="scale(5.28493839)">   <defs>
      <style type="text/css"><![CDATA[
      .a {
        stroke: #000;
        stroke-miterlimit: 2.61313;
        stroke-width: 0.28346px;
      }
    ]]></style>
   </defs>
   <path class="a"
         d="M9.75732,7.28955c1.19238-2.64307,3.52344-4.67041,6.63281-6.27734,2.67188-1.55615,4.12793-.87061,5.03027.833.89453,2.80859-2.41309,6.12354-5.30664,9.38867-.249,1.5625-1.24609,2.13281-2.04492,1-.33594-.75293.90137-1.70166,1.82422-2.61084,2.11816-2.05127,3.03906-3.80078,2.21094-5.11133-1.76953-.22363-3.46582-.31689-4.64355.5q-.55225.69434-1.10547,1.38867a1.43655,1.43655,0,0,1-2.59766.88916Z"/>
   <path class="a"
         d="M13.5708,12.84521a3.81079,3.81079,0,0,1,3.48242-.667c2.709,1.07324,4.4043,2.14746,3.86914,3.22168-.86914,1.39844-1.96582,2.34375-3.86914,1.666a25.29992,25.29992,0,0,0-2.874-1.55469q-2.84692-1.44434-.6084-2.666Z"/>
   <path class="a"
         d="M.30518,22.45459c.38477-.42578.97217-.85156,2.98486-1.27734.23926.44531.18408.74023-.166.88867l-.71826-.11133q-.38745.58594-2.10059.5Z"/>
   <path class="a"
         d="M16.6665,17.51123a2.55733,2.55733,0,0,1,2.59766-.55566c.11328.94629.07617,1.76074-.99414,1.667l-1.32715.94336a2.17462,2.17462,0,0,1-2.4873,1.05664,5.99272,5.99272,0,0,1-3.92432,1.332q-.05566.94629-4.75391.334c-1.27295.6875-1.76953.334-2.15576-.166a2.30081,2.30081,0,0,1,1.21631-1.61133c.69092-1.02832,2.09131-1.13965,3.814-.834q1.188-.1377,2.377-.27734c.147-.22266.29443-.44531.44189-.666a11.94106,11.94106,0,0,0,3.92432-.5q.63574-.36182,1.27148-.72266Z"/>

</g>
</svg>
