<?xml version="1.0" encoding="UTF-8"?>
<svg xmlns="http://www.w3.org/2000/svg"
     version="1.1"
     width="53.41016489mm"
     height="25.55946589mm"
     viewBox="0.00000000 0.00000000 151.39893045 72.45206487">

<g transform="scale(5.79267105)">   <defs>
      <style type="text/css"><![CDATA[
      .b {
        fill-rule: evenodd;
        stroke: #000;
        stroke-miterlimit: 10;
        stroke-width: .15px;
      }
    ]]></style>
   </defs>
   <path class="b"
         d="m10.29103,7.08652c-.5215-.8847-.62109-1.9121-.6612-2.959C13.61323,1.81112,17.90523.62752,22.37013.08072c.5439,1.0273.8066,1.955-.9014,2.1738-.0899.8164-1.6123,1.0781-3.7861,1.0879-2.4991,1.4258-5.0811,3.2695-7.3916,3.7441h0Z"/>
   <path class="b"
         d="m9.75093,6.84432c1.94629.4688,2.34569-.7617,2.52349-2.2343-1.503-1.3379-2.7842-1.2364-3.9659-.4825-2.1132.4825-3.01459.3028-3.3652-.1816-3.1416.6563-2.64939,1.5273-2.8848,2.3555,1.7832,1.4004,3.56641,1.3593,5.3487.664.7812-.039,1.5625-.08,2.34371-.1211h0Z"/>
   <path class="b"
         d="m.07513,9.38152c.2803-1.1172.76081-2.0821,1.6827-2.7168,1.2363-.6602,2.6484-1.0723,4.6875-.6055.7607.666.64061,1.25-.36039,1.7519,2.02339-.1406,3.98629-.2226,5.52829.1211.7012-.1406,1.4024-.2812,2.1035-.4218.5606-.4239,1.7627-.6055,3.6055-.545,1.3721-.4414,2.1934-.4414,2.76471-.2402,0,.8242-.30081,1.4492-1.26181,1.6309-1.4111.7812-2.8134,1.6347-4.3877,1.2675-1.7529,1.7012-4.0761,2.4454-6.79,2.5371-3.64749.3575-7.52149.9708-7.5723-2.7792H.07513Z"/>
   <path class="b"
         d="m23.75293,2.61782c-.23931,1.7539-.57911,3.2851-1.62311,3.2617-.4814.3809-.4013.7637-.2402,1.1465.28031.664.7217.6836,1.32231.0605,2.79-.6152,2.93549-2.5195,2.82419-4.5898-.70119-.0801-1.4229-.1211-2.28319.1211h0Z"/>

</g>
</svg>
