<?xml version="1.0" encoding="UTF-8"?>
<svg xmlns="http://www.w3.org/2000/svg"
     version="1.1"
     width="39.26562072mm"
     height="30.60047995mm"
     viewBox="0.00000000 0.00000000 111.30414680 86.74154167">

<g transform="scale(5.79267105)">   <defs>
      <style type="text/css"><![CDATA[
      .b {
        fill-rule: evenodd;
        stroke: #000;
        stroke-miterlimit: 10;
        stroke-width: .15px;
      }
    ]]></style>
   </defs>
   <path class="b"
         d="M1.53869,3.08626c.7422-.3867,1.5977-.3731,2.5684,.043-.0147,.6035-.0283,1.205-.043,1.8066,1.1016,2.6914,1.625,5.4121,.5567,8.2168-1.2696,1.63479-2.6543,2.1211-4.1524,1.4629-.8164-.4727-.2295-.9473,.5567-1.4199,1.8593-.127,1.33-2.6504,1.413-4.5586-1.3047-.01561-.9345-3.0899-.8994-5.5508h0Z"/>
   <path class="b"
         d="M4.49179,3.68976c-1.3691,.2715-1.9394-.02931-1.7119-.90431,.418-1.06049,1.8506-1.57619,3.9815-1.72069C7.87269,.51986,9.08459,.04526,10.99869,.07646c-.0147,.35751-.0293,.71681-.043,1.07421-.0713,.71679-1.7129,1.2774-4.06639,1.7637-.79981,.37309-1.59861,.6309-2.39751,.7754h0Z"/>
   <path class="b"
         d="M7.57389,7.08816c-.0137-.2148-.0283-.4316-.043-.6464,.3565-.2305,.7695-.3594,1.584,.2148-.0147,.832-.0283,1.6641-.043,2.4961,.9405,1.0762,2.4815,1.3477,4.10941,1.5059,1.16989-.3614,2.32519-.6055,3.38179-.043,.87021-.2734,1.6983-.4453,2.2256-.9473,.542,.3164,.4561,.61719-.2568,1.1621-.1934,1.53909-1.499,1.586-2.7393,1.7207-3.4609,1.2051-6.2148,.9883-8.6465,.1289-1.3623-1.8066-1.3906-3.6132-.8134-5.4199,.414-.05861,.8281-.1152,1.2412-.1719h0Z"/>

</g>
</svg>
