<?xml version="1.0" encoding="UTF-8"?>
<svg xmlns="http://www.w3.org/2000/svg"
     version="1.1"
     width="34.95667857mm"
     height="38.76856014mm"
     viewBox="0.00000000 0.00000000 99.08990909 109.89503466">

<g transform="scale(7.12048711)">   <defs>
      <style type="text/css"><![CDATA[
      .a {
        stroke: #000;
        stroke-miterlimit: 10;
        stroke-width: 0.15px;
      }
    ]]></style>
   </defs>
   <path class="a"
         d="M3.2802,13.27934a2.75108,2.75108,0,0,1,.94246-.06575c.38388.07117.72575.33485,1.11616.33333a1.98462,1.98462,0,0,0,.736-.21761c.17772-.07419.77175-.23377,1.96779-.53509.84492-.21287,4.03972-.91415,4.24312-.383.13737.35868-1.11491,1.21323-2.09327,1.69314-.6928.33985-1.15713.55532-3.98156.9235a24.27372,24.27372,0,0,1-4.663.30493c-.43249-.02746-1.41752.005-1.47117-.52684a2.054,2.054,0,0,1,.43854-1.05652C1.09266,13.09466,2.49891,13.40823,3.2802,13.27934Z"/>
   <path class="a"
         d="M10.78578,6.19243a2.84978,2.84978,0,0,1,.86445.36765c.56178.3756.45748.601.996,1.1076.38865.36565.97153.56407,1.1735,1.058a.16484.16484,0,0,1,.00719.14523.18151.18151,0,0,1-.13558.064l-1.51549.23274a1.94037,1.94037,0,0,1-.60335.02894,2.26248,2.26248,0,0,1-.61124-.23857,6.819,6.819,0,0,0-2.544-.67254A2.89626,2.89626,0,0,0,7.06265,8.462c-.27043.11919-.50748.30174-.76512.44652C4.56,9.88489,2.26281,9.00205.45134,9.83326a.30435.30435,0,0,1-.26359.03623C.03493,9.786.1444,9.55229.26992,9.4316A12.75945,12.75945,0,0,1,3.10985,7.54417a3.49014,3.49014,0,0,1,.85571-.3695c.60056-.13973,1.21122.11028,1.80244-.00284a10.5091,10.5091,0,0,0,1.56068-.589A5.88744,5.88744,0,0,1,10.78578,6.19243Z"/>
   <path class="a"
         d="M2.31736,2.01241a7.18552,7.18552,0,0,1,1.12467-.195,52.79649,52.79649,0,0,0,8.125-1.625.95974.95974,0,0,1,.7726-.0521.83616.83616,0,0,1,.35675.45406c.07019.21321-.007.27291.0269.473.07892.466.56633.54924.59375.90625.0109.14195-.05533.2696-.28125.53125A7.38962,7.38962,0,0,1,11.192,3.94243c-.4659.2944-.80737.49831-.90265.40434-.024-.02365-.029-.05859-.01769-.1378l.14885-1.0399a.38848.38848,0,0,0-.02628-.24252c-.11474-.24081-.648-.40065-3.95223.23463-.75927.146-1.52.28421-2.27906.43138a12.83605,12.83605,0,0,1-2.03344.22487,3.2465,3.2465,0,0,1-1.46875-.3125C.36967,3.36346.29266,3.26524.28262,3.17156.2556,2.91923.71248,2.68,1.119,2.46714A5.46137,5.46137,0,0,1,2.31736,2.01241Z"/>

</g>
</svg>
