<?xml version="1.0" encoding="UTF-8"?>
<svg xmlns="http://www.w3.org/2000/svg"
     version="1.1"
     width="34.07086037mm"
     height="17.98679233mm"
     viewBox="0.00000000 0.00000000 96.57881835 50.98610673">

<g transform="scale(4.96730009)">   <defs>
      <style type="text/css"><![CDATA[
      .a {
        stroke: #000;
        stroke-linecap: round;
        stroke-linejoin: round;
        stroke-width: 0.01px;
      }
    ]]></style>
   </defs>
   <path class="a"
         d="M13.10238.12614a.44045.44045,0,0,1-.32708.12719,1.85935,1.85935,0,0,0-.321.02423c-.0848.02423-.49667.103-.93883.18777a2.6597,2.6597,0,0,0-.58752.27256,2.21582,2.21582,0,0,1-.49666.23622,1.17308,1.17308,0,0,0-.38764.1817,1.69847,1.69847,0,0,1-.36342.18171.31829.31829,0,0,0-.16354.09691.49224.49224,0,0,1-.26044.11508c-.27862.03634-.36342.06057-.4785.16354a2.90142,2.90142,0,0,1-.533.28467c-.23016.109-.50272.23622-.60569.29074a4.46965,4.46965,0,0,0-.79345.46638.31237.31237,0,0,1-.19988.09691.37394.37394,0,0,0-.22411.12719,1.01021,1.01021,0,0,1-.27256.20594,3.65345,3.65345,0,0,0-.40581.29073c-.16354.13931-.29073.19988-.36947.18171a1.57563,1.57563,0,0,0-.79346.40581c0,.07874-.527.26045-.6602.22411a.48621.48621,0,0,0-.2847.08476c-.09085.06057-.18776.09691-.212.07874a4.801,4.801,0,0,0-1.278.44216c-.09691.09085-.19382.11508-.45426.13325a.80369.80369,0,0,0-.27256.23016c-.44822.49669-.80557.8056-.93278.8056-.09691,0-.34524.29679-.44215.527a.42132.42132,0,0,0,.01815.38764c.07874.18777.13931.23017.44215.32708a3.61548,3.61548,0,0,0,.68443.13931,9.3594,9.3594,0,0,0,2.50151-.12114.53529.53529,0,0,1,.36947,0,1.98686,1.98686,0,0,0,.33919.06662c.04845,0,.26044.01817.47243.03029a1.01371,1.01371,0,0,0,.56935-.06057c.19383-.09691.4361-.09691,1.29013.03028a1.32511,1.32511,0,0,0,.7208-.03637c.27862-.09085.3089-.09085.50878.01817a1.37941,1.37941,0,0,0,.76317.103,4.68183,4.68183,0,0,0,1.47789-.18776.348.348,0,0,1,.33918-.01212,4.00528,4.00528,0,0,0,.95094.02423c.41187-.01817.96305-.03634,1.22955-.03028a1.7114,1.7114,0,0,0,.64809-.0848,1.90652,1.90652,0,0,1,1.12658-.12114c.15749.06663.25439.06663.57541-.00606a1.37806,1.37806,0,0,1,.88432-.01817c.23016.07874.29073.26651.25439.78134a.81806.81806,0,0,0,.03028.22411c.04846.14537-.01211.212-.533.56935a1.22044,1.22044,0,0,0-.58752.86614.55217.55217,0,0,0,.25439.49666.71082.71082,0,0,1,.23016.15748l.12114.1272.14536-.15748a.8217.8217,0,0,1,.30285-.19988c.0848-.01817.15748-.06057.15748-.0848,0-.03028.05451-.06662.12114-.09085a3.63,3.63,0,0,0,1.39308-1.169.67076.67076,0,0,1,.39975-.49667.997.997,0,0,0,.315-.19988c.06663-.07268.16354-.16353.206-.19988a1.51633,1.51633,0,0,0,.19986-.23622c.06663-.09085.18171-.23621.26045-.32707a.33031.33031,0,0,0,.109-.321.7861.7861,0,0,1,.04845-.36342.40485.40485,0,0,0,0-.40581,1.01306,1.01306,0,0,1-.0848-.30285c0-.11508-.46638-.46032-.636-.46638a1.45794,1.45794,0,0,1-.33313-.09691,1.45182,1.45182,0,0,0-.60569-.06057c-.21805.01211-.4361.02423-.48456.01817-.15747-.00606-.69048-.00606-.81768-.00606-.06662.00606-.29679.00606-.51484.00606s-.51483.01212-.66626.03029-.49061.03634-.75711.04845a3.15013,3.15013,0,0,0-.61175.06057,2.68469,2.68469,0,0,1-.66626-.06057c-.29679-.05451-.58146-.09085-.62992-.09085a2.94757,2.94757,0,0,1-.33313,0c-.13325,0-.33918-.00606-.45426-.01212a6.16983,6.16983,0,0,0-.71471.06663,2.35514,2.35514,0,0,1-.81769.01817,3.53885,3.53885,0,0,0-.72679-.03027A1.45791,1.45791,0,0,1,9.014,5.09886a.61677.61677,0,0,0-.38158.00606,5.91243,5.91243,0,0,1-.8722.0848c-.33313.00605-.82374.03028-1.09024.04239-.36947.02423-.5209.01212-.62387-.06057a.34336.34336,0,0,0-.24227-.04845,1.6699,1.6699,0,0,1-.3089.07268,1.13106,1.13106,0,0,0-.315.07874.14077.14077,0,0,1-.19657-.03157L4.98,5.23817c-.16959-.16354-.109-.25439.36947-.56935a1.29849,1.29849,0,0,0,.321-.25439c0-.07874.3513-.23016.527-.23622a1.52607,1.52607,0,0,0,.533-.23622A5.85683,5.85683,0,0,1,7.85709,3.3363a5.64128,5.64128,0,0,0,1.07813-.4785,10.21514,10.21514,0,0,1,1.3386-.7026c.33313-.16353.49061-.20593.62386-.17565a1.13437,1.13437,0,0,0,.4361-.03634.47343.47343,0,0,1,.43.01817,1.89161,1.89161,0,0,0,.44821.1272,1.74,1.74,0,0,1,.51484.1817,1.583,1.583,0,0,0,.48455.18171,2.51217,2.51217,0,0,1,.81768.27256,2.01316,2.01316,0,0,0,.98122.45427c.03029-.01817.16354.03634.30285.1272.20593.1393.2665.15142.39975.09691.26652-.11508.739-.94488.636-1.11447a1.74973,1.74973,0,0,1-.04846-.49667,1.01089,1.01089,0,0,0-.20594-.70866,1.56587,1.56587,0,0,0-.38767-.40581,1.91109,1.91109,0,0,1-.33919-.27256C15.28892.32,15.20412.26545,15.1799.27756A.55108.55108,0,0,1,14.73168.0898C14.70746.02317,14.54392.005,13.9564.005,13.28408.005,13.19929.01711,13.10238.12614Z"/>

</g>
</svg>
