<?xml version="1.0" encoding="UTF-8"?>
<svg xmlns="http://www.w3.org/2000/svg"
     version="1.1"
     width="39.15932130mm"
     height="15.78708914mm"
     viewBox="0.00000000 0.00000000 111.00283124 44.75083992">

<g transform="scale(6.18907368)">   <defs>
      <style type="text/css"><![CDATA[
      .b {
        stroke: #000;
        stroke-miterlimit: 10;
        stroke-width: .15px;
      }
    ]]></style>
   </defs>
   <path class="b"
         d="M3.19611,.19853c-.2194,.11537-.33785,.28178-.39448,.35838C2.19983,1.3708,.86845,2.46996,.45496,2.81133c-.20686,.17078-.36021,.28686-.37823,.47988-.03844,.41177,.57063,.83064,1.05041,1.01768,.63164,.24625,1.07381,.10419,2,0,.28357-.0319,1.28124-.03545,3.2766-.04256,1.45385-.00517,1.23716,.02874,2.19436,.01725,.0001,0,3.2727-.00858,5.05907,.26623,.3313,.05096,.69804,.1624,.84945,.46144,.0767,.15149,.084,.32738,.08979,.49708l.05558,1.63132c1.96393-.39484,3.43624-2.45646,3.17242-4.44225-.05648-.42512,.08241-1.65159,.01887-1.83257-.06192-.17636-.25301-.26725-.42845-.33176C15.77398-.07024,4.99607,.2963,4.06804,.11339c-.10099-.01991-.4993-.11081-.87194,.08514Z"/>

</g>
</svg>
