<?xml version="1.0" encoding="UTF-8"?>
<svg xmlns="http://www.w3.org/2000/svg"
     version="1.1"
     width="13.97920238mm"
     height="21.63459874mm"
     viewBox="0.00000000 0.00000000 39.62604583 61.32642267">

<g transform="scale(4.37936705)">   <defs>
      <style type="text/css"><![CDATA[
      .b {
        stroke: #000;
        stroke-miterlimit: 10;
        stroke-width: .15px;
      }
    ]]></style>
   </defs>
   <path class="b"
         d="m5.97032,13.41482c.45795.47119,1.30951.68394,1.78691.35434.27081-.18697.32311-.48072.45381-1.10357.46471-2.21461.39429-1.78038.55965-2.45128.25648-1.04065.35699-2.21963-.23557-3.11271-.29355-.44242-.80055-.79205-.95995-1.31-.1676-.54462.01967-1.30958.11054-1.8557.13234-.79535.33006-1.68241-.11732-2.35318-.22226-.33324-.57284-.55483-.91292-.76646-.47276-.2942-.82495-.5215-1.26494-.64345-.33878-.0939-.60937-.09599-.67058-.09727-.52942-.01103-.97495.15129-1.69743.53403-.70806.37511-1.71706.98043-2.55471,1.91706-.19419.21714-.43063.50682-.38771.84677.03301.26144.23495.46488.4256.6468.33056.31543.68362.6434,1.12865.74718.81199.18936,1.11472-.0623,1.63903.25405.36044.21747.51963.56133.61085.75836.39725.85809.16263,1.88251-.03508,2.7457-.11158.48718-.17793.74159-.11979,1.13913.05619.38416.28896.73887.61902.94332.07699.29418.17625.15999.38821.37805.18103.18624.65966,1.35417.86594,1.79263.15671.3331.23507.49964.36781.63622Z"/>

</g>
</svg>
