<?xml version="1.0" encoding="UTF-8"?>
<svg xmlns="http://www.w3.org/2000/svg"
     version="1.1"
     width="54.72980378mm"
     height="49.15810708mm"
     viewBox="0.00000000 0.00000000 155.13960348 139.34583211">

<g transform="scale(5.59901992)">   <defs>
      <style type="text/css"><![CDATA[
      .a {
        stroke: #000;
        stroke-miterlimit: 2.61313;
        stroke-width: 0.28346px;
      }
    ]]></style>
   </defs>
   <path class="a"
         d="M12.85205,3.74219Q13.62988,1.3457,17.52148.31836C22.041.06641,26.79492-.418,27.55078,3.05664c-1.4541,1.08008-2.67187,2.748-4.66895,2.48242q.17285-1.49707-1.03809-1.2832c-3.2207-.40234-6.79492.05273-8.9917-.51367Z"/>
   <path class="a"
         d="M12.59277,8.10742q.69141-2.82422,3.80371-2.56836c.86328,1.94531-4.27588,7.959-8.127,13.09766q-1.25317,1.71094.25928,1.37109H9.99854c-.77979,2.3125-6.97119,4.13086-9.85645,4.707v-.94141c.31738-.11328.63428-.22852.95117-.3418.68848-1.02539,2.39111-2.02148,4.23633-3.50977q3.63208-5.90625,7.26318-11.81445Z"/>
   <path class="a"
         d="M14.84082,12.81641C16.959,9.5625,19.00488,7.30859,20.89258,7.252c.17383-.31445.3457-.62891.51953-.94141h.60547c-.62793,2.9375-3.68555,6.67578-7.08984,10.5293q-1.125,1.45605-.17334,1.541,1.98853-.25781,3.97705-.51367,3.4585-.47168,4.8418,1.11328a7.277,7.277,0,0,1-3.02637,4.02344q-.73535-.12891-1.46973-.25781c-.28613-.74414-1.583-.88672-3.02637-.94141q-1.90137.16992-3.80371.3418a7.07281,7.07281,0,0,1-4.75537.34375c.42822-1.623,2.47656-3.51562,4.75537-5.82227a37.53824,37.53824,0,0,1,2.59375-3.85156Z"/>

</g>
</svg>
