<?xml version="1.0" encoding="UTF-8"?>
<svg xmlns="http://www.w3.org/2000/svg"
     version="1.1"
     width="47.81290575mm"
     height="20.44879289mm"
     viewBox="0.00000000 0.00000000 135.53259716 57.96505143">

<g transform="scale(4.29680440)">   <defs>
      <style type="text/css"><![CDATA[
      .b {
        stroke: #000;
        stroke-miterlimit: 10;
        stroke-width: .15px;
      }
    ]]></style>
   </defs>
   <path class="b"
         d="M16.12512,.8092c-.30225-.0575-.33435-.07654-1.74469-.383-1.40637-.3056-1.56628-.32831-1.78723-.34039-.3371-.01843-1.14691-.05444-2.08508,.29785-.17322,.06506-1.29095,.50085-2.04254,1.57446-.34015,.4859-.34644,.7326-.29791,.89362,.08319,.276,.35791,.40137,.76599,.59576,1.71411,.81641,1.49066,.80646,1.82977,.89362,.44702,.11493,.64722,.08392,2.08508,.04254,1.51196-.04352,.33588,.01825,2.08514-.04254,2.17493-.07556,2.18896-.10834,3.87231-.17023,.72729-.02673,2.43726-.08356,3.78723-.63831,.10065-.04138,.40674-.1709,.68085-.46808,.53882-.58411,.71558-1.55701,.383-1.82977-.18585-.15247-.49036-.05304-.68085,0-.76349,.21252-.71136-.03796-4.08429-.2334-1.83234-.10614-1.96112-.03882-2.76678-.19214Z"/>
   <path class="b"
         d="M4.63574,2.17089c-.20862,.59943-.09198,1.13831-.04254,1.4043,.23584,1.26941,.07092,2.40833-.04254,3.19147-.26111,1.80267-1.02466,2.06964-.72339,2.93616,.38873,1.11804,1.92389,1.43231,2,1.44684,.21954,.04193,1.33325,.25446,2-.383,.29584-.28284,.28973-.5285,.63831-1.87231,.36102-1.39172,.40259-1.26324,.51062-1.82983,.17889-.93823,.04242-1.17334,.04254-2.80847,.00018-2.21893,.25153-3.10248-.25531-3.4043-.18799-.11194-.49414-.08881-1.10638-.04254-.3913,.0296-.42676,.07379-1.23401,.21277-.84808,.14606-.93976,.11975-1.14899,.25531-.41412,.26831-.57343,.70715-.63831,.89362Z"/>
   <path class="b"
         d="M2.72088,9.31982c-1.47461,.47522-1.90594,.91473-2.04254,1.06384-.09802,.10699-.79333,.86609-.55322,1.36169,.05469,.11285,.18665,.27142,.85107,.42554,.8139,.18878,1.39502,.13153,1.95746,.12769,.89795-.0061,.90558,.12964,2.04254,.21277,1.17877,.08618,2.00494,.00122,2.63831-.04254,.95184-.06573,1.2428-.02283,5.02124,.12762,3.84955,.15326,5.77435,.22992,6.89368,.21277,1.25696-.01923,3.03766-.09247,5.19147-.34039,.38647-.36292,.44476-.63049,.42554-.80853-.0257-.23792-.19464-.3609-.12769-.51062,.06543-.14624,.26257-.10931,.59576-.25531,.06403-.02802,.36932-.16638,.59576-.42554,.26831-.30707,.42749-.78571,.29785-.89362-.10858-.09033-.34863,.13843-.93616,.38293-.00012,.00006-.34161,.14221-.97876,.29791-.96094,.23486-1.96106-.00977-2.29785-.08514-.41742-.09338-.04211,.02258-4.29785-.17017-2.82452-.12793-4.23682-.19189-4.59576-.29791-1.0719-.31653-1.98535-.80219-3.14893-.5957-.22357,.03967-.61023,.1322-1.14893,.08508-.70349-.06152-.97931-.30109-1.53192-.46808-.61359-.18542-1.26013-.09528-2.55322,.08508-1.20538,.16809-2.03473,.42584-2.29785,.51062Z"/>
   <path class="b"
         d="M20.25281,7.31982c-.5426-.73395-1.16223-.83551-1.82977-1.23401-1.06396-.63513-.71655-1.10931-2.17023-2.383-.75433-.66095-1.30853-1.13196-2.04254-1.06384-.51404,.04773-1.04065,.35284-1.31915,.80853-.08228,.13464-.19208,.36285-.12769,1.87231,.03363,.78864,.08972,1.33752,.17023,1.87238,.19025,1.26398,.36932,1.46783,.51062,1.57446,.31866,.24048,.70795,.18451,1.19147,.12769,1.08801-.12787,2.18726-.13916,3.27661-.25537,1.84778-.19714,2.51324-.17755,2.63831-.55316,.08337-.25037-.12244-.52875-.29785-.76599Z"/>
   <path class="b"
         d="M25.65704,3.49004c-.35492,.74286-.17175,1.48315-.04254,2.08514,.12689,.59113,.36963,1.72198,.42554,2.68085,.13342,2.28729-.25531,4.17004-.25531,4.17017-.04535,.21967-.14941,.68945,.08508,.89362,.23444,.20416,.69232,.04248,1.10638-.12762,1.57703-.64783,2.40753-.98901,3.23407-1.95746,.37341-.4375,.98602-1.17334,1.19147-2.29785,.02832-.15497,.133-.77777,0-1.57446-.13025-.78021-.33105-.78448-.76599-2-.41656-1.16431-.38275-1.58069-.89362-2.12769-.29803-.31909-.60083-.48932-.72339-.55316-.90057-.46936-2.22473-.49152-2.9787,.25531-.22089,.21881-.32922,.44061-.383,.55316Z"/>

</g>
</svg>
