<?xml version="1.0" encoding="UTF-8"?>
<svg xmlns="http://www.w3.org/2000/svg"
     version="1.1"
     width="40.56103596mm"
     height="31.49398311mm"
     viewBox="0.00000000 0.00000000 114.97609793 89.27430092">

<g transform="scale(5.59901992)">   <defs>
      <style type="text/css"><![CDATA[
      .a {
        stroke: #000;
        stroke-miterlimit: 2.61313;
        stroke-width: 0.28346px;
      }
    ]]></style>
   </defs>
   <path class="a"
         d="M9.7915,1.97168c2.34033-2.12207,4.43115-2.27783,6.355-1.0874C16.82813,6.29736,14.0332,8.26807,11.125,10.127A51.13827,51.13827,0,0,1,3.28027,15.6416Q2.575,14.90332,1.86865,14.166c2.22266-1.89062,5.85693-5.10059,8.07959-6.99023-.2085-1.86426-.88867-2.79639-.15674-5.2041Z"/>
   <path class="a"
         d="M12.92969.34082a2.87936,2.87936,0,0,1,.94141,1.94189C8.65137,6.37012,5.46,10.15625,8.61475,13.001a7.29642,7.29642,0,0,1-4.0791,2.7959c-2.4707-.98437-2.78467-3.10742-2.11816-5.748,2.69385-5.24219,6.146-8.6084,10.51221-9.708Z"/>
   <path class="a"
         d="M.29932,8.729q-.58887-.65918,1.02-1.32031Q1.55444,7.05933,1.79,6.71c5.39893-1.00684,10.87012-1.92139,18.5918,0a2.55748,2.55748,0,0,1-1.96191,2.48535q-4.94092-.156-9.8833-.311L.29932,8.729Z"/>

</g>
</svg>
