<?xml version="1.0" encoding="UTF-8"?>
<svg xmlns="http://www.w3.org/2000/svg"
     version="1.1"
     width="62.54486128mm"
     height="15.50629286mm"
     viewBox="0.00000000 0.00000000 177.29250061 43.95481809">

<g transform="scale(6.53780177)">   <defs>
      <style type="text/css"><![CDATA[
      .b {
        stroke: #000;
        stroke-miterlimit: 10;
        stroke-width: .15px;
      }
    ]]></style>
   </defs>
   <path class="b"
         d="m13.14938,1.12043c-.85278-.03937-1.40002-.06744-2.0766-.10211-2.27939-.11685-3.4191-.17526-4.05106-.23831-2.0029-.19983-3.00433-.29974-3.57446-.44254-.70218-.17584-1.4136-.41183-2.2468-.13617-.12296.04068-1.07327.35507-1.12341.95319-.03519.41956.39041.76593.5787.91916.58173.47342,1.24698.54309,1.56598.5787,1.03833.11588,2.05783.37729,3.09787.47659,1.71255.16351,1.20172.19336,3.74469.47659,1.99683.22241,1.88803.1568,3.98297.37448,2.75305.28604,3.41537.44864,5.54892.57874.07776.00473,1.06302.06326,2.383.06808,2.0845.0076,2.98889-.1261,3.71527-.42676.27158-.1124.42578-.20987.84644-.35623.76715-.26694,1.09988-.237,1.32764-.54468.14404-.19458.228-.49976.13617-.74893-.17389-.47183-.92014-.58566-1.63403-.68085-1.81323-.24179-2.71988-.36267-3.2681-.34042-.05658.00229-3.02209-.13464-8.95319-.40854Z"/>
   <path class="b"
         d="m15.43024.50767c-.52411-.12247-.97842.07678-1.1915.17023-.10849.04758-1.0744.4877-1.22552,1.36169-.03925.22696.03058.51443.17023,1.08936.15988.65829.23285.67874.40851,1.32767.24387.90082.20334,1.23102.44254,1.32767.33597.13577.71475-.3949.98724-.23831.24948.14337.02048.63913.3064.91916.26083.25546.85995.24301,1.19147-.03406.34058-.28461.22357-.70212.31424-2.01553.09354-1.35468.24405-1.28809.16238-1.79721-.12064-.75214-.60785-1.88675-1.56598-2.11066Z"/>

</g>
</svg>
