<?xml version="1.0" encoding="UTF-8"?>
<svg xmlns="http://www.w3.org/2000/svg"
     version="1.1"
     width="25.37289720mm"
     height="52.14627811mm"
     viewBox="0.00000000 0.00000000 71.92315280 147.81619038">

<g transform="scale(6.15867947)">   <defs>
      <style type="text/css"><![CDATA[
      .a {
        stroke: #000;
        stroke-linecap: round;
        stroke-linejoin: round;
        stroke-width: 0.01px;
      }
    ]]></style>
   </defs>
   <path class="a"
         d="M2.13392.17687C1.962.33311,1.75892.505,1.16126.97765a.93617.93617,0,0,0-.332.46875,1.82754,1.82754,0,0,1-.27344.54687c-.23437.32031-.24219.39844-.03906,1.60156.02344.14063.05469.582.07031.97266A7.04307,7.04307,0,0,0,.75113,5.81358a2.04131,2.04131,0,0,1,.08594.61329,3.247,3.247,0,0,0,.10938.80078c.1289.65625.13672.7539.03515.90625a2.463,2.463,0,0,0-.043,1.33593,2.45462,2.45462,0,0,1-.03125.82422,2.14753,2.14753,0,0,0-.03906.70313,2.16206,2.16206,0,0,1-.09375.74609c-.08594.35156-.16406.7461-.17969.88281a.92.92,0,0,1-.0625.293c-.02343.01953-.01562.11719.03125.21485a1.0974,1.0974,0,0,1-.04687.61328c-.0625.23047-.13281.52343-.15625.63672a.70836.70836,0,0,1-.19141.33593.74609.74609,0,0,0,0,.9336c.19141.15625.19141.24609,0,.40234-.14062.1211-.15625.22656-.15625,1.332s.01563,1.21094.15625,1.332c.19141.15625.19141.2461,0,.40235-.14062.12109-.15625.22656-.15625,1.293,0,1.07031.01563,1.17578.15625,1.293a.45308.45308,0,0,1,.16016.293,1.17286,1.17286,0,0,0,.17187.6211c.11719.24609.23438.34375.66016.53906.28906.13281.668.32813.85547.42578a.83763.83763,0,0,0,.44141.14844c.0625-.02344.17187.03125.25.11328.17187.19531.26562.19531.43359.00781a1.19862,1.19862,0,0,1,.49219-.24609.99835.99835,0,0,0,.52734-.30078,1.97294,1.97294,0,0,1,.56641-.4336,1.23313,1.23313,0,0,0,.44922-.36718c.03125-.082.07812-.14844.11718-.14844.15625,0,.64453-.49219.81641-.82422.28516-.543.48828-.53516.793.02344a2.26206,2.26206,0,0,0,.32422.44922,3.2964,3.2964,0,0,0,.69922.64843c.03906,0,.14843.1211.25.26172.23046.32422.418.39844,1.15625.47266a2.84623,2.84623,0,0,0,1.94921-.4336,1.41684,1.41684,0,0,0,.08594-1.85546,1.06372,1.06372,0,0,1-.22656-.67188,10.09239,10.09239,0,0,1-.03125-1.09766c0-.082-.03125-.418-.07813-.75-.03515-.32812-.082-.6875-.09765-.793a1.71527,1.71527,0,0,0-.125-.4336c-.05469-.13281-.07813-.2539-.05469-.27344.02344-.02342.00781-.1367-.03125-.25a4.51763,4.51763,0,0,1-.11719-.93358,6.92859,6.92859,0,0,0-.10937-1.02345.75648.75648,0,0,1-.03906-.36718c.03125-.043-.02344-.19532-.11329-.33594-.09375-.14063-.14843-.293-.11718-.33594a.36631.36631,0,0,0-.0625-.26953c-.10157-.17969-.09375-.25391.07031-.69531a1.68864,1.68864,0,0,0,.12888-.86721,8.33744,8.33744,0,0,1,.125-2.51172,4.7335,4.7335,0,0,0,.04687-1.5625A9.40812,9.40812,0,0,1,10.466,6.91905a2.686,2.686,0,0,0-.07813-.77734,1.29545,1.29545,0,0,1-.11328-.71484,5.32964,5.32964,0,0,0-.03906-.98047,1.75739,1.75739,0,0,0-.16406-.66016A1.37834,1.37834,0,0,1,9.923,3.09093a3.56782,3.56782,0,0,0-.125-.84375,1.95364,1.95364,0,0,1-.09375-.39453A2.9795,2.9795,0,0,0,9.13.76671a1.853,1.853,0,0,0-.59766-.043C8.13.74324,8.0597.77449,7.841,1.005a3.31528,3.31528,0,0,0-.56641,1.19141,1.50046,1.50046,0,0,1-.1875.375A2.607,2.607,0,0,0,6.8097,3.64558a.59238.59238,0,0,1-.10938.27735,1.86315,1.86315,0,0,0-.19532.91018,1.98382,1.98382,0,0,0,.08594.6211,1.22994,1.22994,0,0,1,.0625.457A3.04236,3.04236,0,0,0,6.63782,7.212,9.6787,9.6787,0,0,1,6.7472,9.2745c.01562,1.04688.03125,2.00391.03125,2.13281a4.76781,4.76781,0,0,1-.125,1.293,1.07134,1.07134,0,0,0-.03906.5.76745.76745,0,0,1-.00782.39844A1.25626,1.25626,0,0,0,6.591,14.048a4.30519,4.30519,0,0,1,.00781.91015,9.447,9.447,0,0,0,.16406,1.44922.8236.8236,0,0,1-.05468.44922,1.212,1.212,0,0,0-.05469.57032c.10156.52343.10156.78515,0,.9414a.23181.23181,0,0,0-.02344.27734c.03906.06641.04688.125.02344.125s-.00781.06641.03906.14844a.3281.3281,0,0,1-.14844.48828.76821.76821,0,0,1-.41015-.082c-.25782-.11328-.28907-.11328-.63672.03516l-.36719.16015-.19141-.20312a1.59465,1.59465,0,0,1-.19531-.23828,2.9044,2.9044,0,0,0-.17187-.6211,4.43851,4.43851,0,0,1-.16407-.59765A2.184,2.184,0,0,0,4.255,17.337a1.62156,1.62156,0,0,1-.125-.54687,1.07885,1.07885,0,0,0-.07031-.40235A.60622.60622,0,0,1,4.0675,15.962a2.70549,2.70549,0,0,0,.0625-.62891c0-.1875-.00781-.39843,0-.47265.01563-.34375.00781-.52344-.01562-1.35938a4.18644,4.18644,0,0,1,.03125-1.02343.67722.67722,0,0,0-.09374-.47263c-.14063-.30469-.14844-.44922-.10938-1.332.03125-.543.04688-1.03906.04688-1.09766-.00782-.05859-.02344-.80078-.03907-1.64453a11.31229,11.31229,0,0,0-.11718-1.73437,10.63446,10.63446,0,0,1-.07032-2.71485c.10157-.17187.08594-.1289.16407-.582a1.76154,1.76154,0,0,0-.17969-1.543A2.08277,2.08277,0,0,1,3.46985.83314,2.97949,2.97949,0,0,0,3.32142.35655L3.173.005H2.73939C2.39564.005,2.26673.04405,2.13392.17687Z"/>

</g>
</svg>
