<?xml version="1.0" encoding="UTF-8"?>
<svg xmlns="http://www.w3.org/2000/svg"
     version="1.1"
     width="18.62963490mm"
     height="71.49459932mm"
     viewBox="0.00000000 0.00000000 52.80846349 202.66183956">

<g transform="scale(3.04259138)">   <defs>
      <style type="text/css"><![CDATA[
      .a {
        stroke: #000;
        stroke-miterlimit: 10;
        stroke-width: 0.15px;
        fill-rule: evenodd;
      }
    ]]></style>
   </defs>
   <path class="a"
         d="M4.08156,16.80919c.0019-.2129.0097-.4263.0273-.6406a5.189,5.189,0,0,0,.0283-1.8057,46.20359,46.20359,0,0,0-1.7871-5.1992c-.6513-1.8062-2.7724-3.1011-2.1679-5.2232A5.35456,5.35456,0,0,1,3.24756.15829a2.23641,2.23641,0,0,1,2.0127.4629,3.29489,3.29489,0,0,1,1.1709,1.7129,7.83669,7.83669,0,0,0,.1133.9116c.4716,1.6758,1.45892,3.2217,1.997,4.8989a19.59486,19.59486,0,0,1,.958,4.1202,38.58324,38.58324,0,0,1-1.4502,13.5703c-1.2226,4.8081-1.7001,9.8315-2.6084,14.709a19.65381,19.65381,0,0,0-.2158,7.7265c.3418,1.628,1.1035,3.1035,1.042,4.7588a41.96037,41.96037,0,0,0,.6504,5.8081A8.88482,8.88482,0,0,0,7.59038,61.797c.30658.63182.88078,1.062,1.18358,1.69632.2255.4731.8896,1.3091.7343,1.8413-.2265.7773-.8945.5215-1.5146.7217-.8819.2846-1.5811.8579-2.2207.1015a8.99205,8.99205,0,0,1-.3252-1.0595c-.2598-.5445-.6201-1.087-.8955-1.6392a25.31073,25.31073,0,0,1-1.1172-2.8755,4.76252,4.76252,0,0,1-.5156-1.89262c-.0049-.51848.0156-1.03758,0-1.55608-.0489-1.6133-.667-3.1646-.66408-4.83892a53.32393,53.32393,0,0,1,.37788-6.602c.3203-2.56448-.0976-5.25438-.04488-7.83648.08688-4.2597.66308-8.4756.667-12.7026.001-1.0903.34958-1.9595.334-3.0376A14.61458,14.61458,0,0,1,3.96826,19.005,11.43361,11.43361,0,0,0,4.08156,16.80919Z"/>
   <path class="a"
         d="M17.28076,38.35749a4.20643,4.20643,0,0,1-.9639,2.5948,28.28051,28.28051,0,0,1-2.2578,2.1899,19.602,19.602,0,0,1-4.1094,3.0156,8.704,8.704,0,0,0-2.0888,1.9449,22.608,22.608,0,0,1-2.752,1.8769c-.4619.3408-.7793.8516-1.2549,1.1641-1.7861-1.6651.6836-3.1914,1.8399-4.5064a17.48944,17.48944,0,0,1,3.8486-3.7456,13.1535,13.1535,0,0,0,3.6025-3.7544c.7325-1.0166,2.1006-4.2588,3.712-2.268A2.27161,2.27161,0,0,1,17.28076,38.35749Z"/>

</g>
</svg>
