<?xml version="1.0" encoding="UTF-8"?>
<svg xmlns="http://www.w3.org/2000/svg"
     version="1.1"
     width="22.67286135mm"
     height="46.01601144mm"
     viewBox="0.00000000 0.00000000 64.26950161 130.43914998">

<g transform="scale(5.28493839)">   <defs>
      <style type="text/css"><![CDATA[
      .a {
        stroke: #000;
        stroke-miterlimit: 2.61313;
        stroke-width: 0.28346px;
      }
    ]]></style>
   </defs>
   <path class="a"
         d="M.78369,19.91113c-.397,1.0918.64648,1.5957,1.81641,0C4.77832,16.665,4.6084,11.05957,4.10352,5.11621,5.2417,3.5791,6.41064,1.84766,5.54443.14209,3.8291.15186,2.92676,1.09375,2.2085,2.50439c-1.27.74707-1.18115,1.44287-.92383,2.1709C-.22412,7.06787.02881,9.60693.53271,12.16748q.126,3.87231.251,7.74365Z"/>
   <path class="a"
         d="M6.60938,22.68164a39.34452,39.34452,0,0,1-.0625-4.46973q-.03076-3.62109-.313-7.24072-.84595-3.87158.56348-5.729C5.5957,3.92041,6.57764,2.36719,8.55176.709,9.7998.88525,9.873,3.42578,9.61719,6.627a70.16354,70.16354,0,0,1-.126,13.22168q-.47021.53613,1.56641,1.32227,1.62744.56543.501,1.13281a8.8465,8.8465,0,0,1-1.81641,1.57422c-1.89062.91309-2.97656.78711-3.69629.18945a4.84906,4.84906,0,0,1,.56348-1.38574Z"/>
   <path class="a"
         d="M3.16406.394A7.49021,7.49021,0,0,0,1.91113,3.91992c3.35156.86035,6.12793.77637,7.64258-1.38525C9.708.38135,6.85693.19336,3.16406.394Z"/>

</g>
</svg>
