<?xml version="1.0" encoding="UTF-8"?>
<svg xmlns="http://www.w3.org/2000/svg"
     version="1.1"
     width="12.56436144mm"
     height="26.93713685mm"
     viewBox="0.00000000 0.00000000 35.61560076 76.35719406">

<g transform="scale(5.79267105)">   <defs>
      <style type="text/css"><![CDATA[
      .b {
        fill-rule: evenodd;
        stroke: #000;
        stroke-miterlimit: 10;
        stroke-width: .15px;
      }
    ]]></style>
   </defs>
   <path class="b"
         d="M3.74403,13.06698c-1.044,.0625-2.0875,.084-3.1324-.1894C-.15637,11.54358,.05553,8.89508,.29863,6.20368c-.0214-.5879,.0201-1.1738,.501-1.7617,.3345-.9453,.6685-1.8887,1.0025-2.834,.2924,.168,.5849,.336,.8769,.5039,.084-.5879,.1675-1.1758,.2505-1.7636,1.2319-.5977,2.2344-.1563,3.1323,.7558-.8945,2.4824-.7871,7.2051-1.6284,6.8633-.1186,1.7363,.02,3.5605-.6894,5.0996h0Z"/>

</g>
</svg>
