<?xml version="1.0" encoding="UTF-8"?>
<svg xmlns="http://www.w3.org/2000/svg"
     version="1.1"
     width="68.03813257mm"
     height="77.22118865mm"
     viewBox="0.00000000 0.00000000 192.86403694 218.89482344">

<g transform="scale(7.75753200)">   <defs>
      <style type="text/css"><![CDATA[
      .a {
        stroke: #000;
        stroke-miterlimit: 10;
        stroke-width: 0.15px;
      }
    ]]></style>
   </defs>
   <path class="a"
         d="M4.83081,9.54488a1.37483,1.37483,0,0,0,.25532.82978c.18734.36454.26238.32.35106.57447a6.67133,6.67133,0,0,1,.09575.98936,3.547,3.547,0,0,0,.09574.47873,3.12329,3.12329,0,0,0,.25533.63829c.39678.76463.08277,4.19684.008,5.052a11.71094,11.71094,0,0,0-.03992,2.47989c.05537.0058.06769-.49506.383-.6383a.56914.56914,0,0,1,.70212.22341.47445.47445,0,0,1-.06617.52693c-.13108.129-.30349.07582-.44446.11136-.46716.1178-.58754,1.20927-.6383,1.9149-.11855,1.64787-.17782,2.4718.19149,2.93617a4.368,4.368,0,0,0,1.73932.9685,12.17737,12.17737,0,0,0,1.32088.46759,2.548,2.548,0,0,0-.60836-.82051,2.05614,2.05614,0,0,1,.75962-.19094.98387.98387,0,0,1,.64556.37188c.252.33893.08637.64985.29191.83114.11924.10517.35878.16264.88517-.03986-.14531.32562.28269.64532.63779.613s.6716-.24882,1.02535-.29354a2.81489,2.81489,0,0,0,.88322-.08412c.40453-.1942.47928-.75.81327-1.04972.27048-.24269.37194-.12848.87444-.36028a3.67737,3.67737,0,0,0,1.83734-1.6715c.0981-.22681.17559-.50791.34556-.52542.174-.01793.23636.2619.52279.402A1.1209,1.1209,0,0,0,19.001,24.13a1.46408,1.46408,0,0,0,.55769-1.17189c.01715-.43267-.15123-.45243-.2082-.95421-.09909-.87284.33186-1.5051.11818-1.6441-.12213-.07945-.28182.11483-.54869.02441-.23569-.07985-.24539-.27686-.37858-.27712-.27741-.00054-.28873.85417-.80221,1.04654-.21147.07924-.33463.00069-.51127.11857-.173.11547-.18437.35871-.20806.56538a2.71188,2.71188,0,0,1-1.22327,1.86649,5.21854,5.21854,0,0,1-2.15363.75865,9.87533,9.87533,0,0,1-4.06454-.22886,1.68492,1.68492,0,0,1-.979-.55128,1.43918,1.43918,0,0,1-.24806-.67795A35.51035,35.51035,0,0,1,8.3823,17.612c.28707-3.47616-.0667-4.27138-.26425-4.55651a3.2866,3.2866,0,0,1-.51063-1.10034c-.16185-.51426-.10044-.66539-.08567-.72405a1.7215,1.7215,0,0,1,.51542-.71448.21072.21072,0,0,0,.0683-.11422c.01029-.08208-.06494-.14622-.12821-.19949-.3479-.29293-.54611-.74059-.91573-1.00558a3.4592,3.4592,0,0,0-.46268-.33019C5.93033,8.59662,4.93986,9.00527,4.83081,9.54488Z"/>
   <path class="a"
         d="M6.10775,8.17173a1.46311,1.46311,0,0,0-.37917,1.03172,1.56011,1.56011,0,0,0,.41074.94781c.12894.15062.31893.32291,1.48905.85781.71785.32815.77922.324.89012.46728a3.45666,3.45666,0,0,1,.26977,1.51533,1.30563,1.30563,0,0,1-.03094.58292c-.07075.202-.19207.3012-.13571.40546.06724.12439.263.125.33673.24563.06268.10259.00564.23384-.05145.33964-.285.52812-.54708.94856-.53177.96323a5.82948,5.82948,0,0,0,2.116-2.30714,5.68219,5.68219,0,0,0,.6681-3.55057,3.77974,3.77974,0,0,0-.51986-1.37066A1.98234,1.98234,0,0,0,9.45624,7.27a1.7821,1.7821,0,0,0-.71685.0814A5.6541,5.6541,0,0,0,6.10775,8.17173Z"/>
   <path class="a"
         d="M7.54358,13.47041a8.603,8.603,0,0,0-3.92553,1.40425A7.78414,7.78414,0,0,0,.89978,18.6391a15.29849,15.29849,0,0,0-.50514,2.04408A10.95993,10.95993,0,0,0,.07549,23.013c.01553,1.17376.31475,1.01957.734,3.31915a2.38469,2.38469,0,0,0,.38558,1.00626c.26908.383.83971.921,1.24208.781.478-.16639.227-1.1185.93465-1.56338.26966-.16954.46114-.12874.62246-.35078a1.22259,1.22259,0,0,0,.03864-1.022c-.36228-1.257-.613-2.545-.98936-3.79788a7.17058,7.17058,0,0,1-.47872-2.04255c.0817-.66167.3625-.86194,1.5459-2.82228.68355-1.13231.67467-1.206.91154-1.39049.28913-.22523.79834-.50186,3.154-.40595,1.98051.08063,2.27751.30292,3.23464.07711a10.90927,10.90927,0,0,0,2.005-.91584A13.293,13.293,0,0,0,16.27078,11.93a2.29539,2.29539,0,0,0,.69066-.97964c.16015-.47613.19961-1.18822-.08309-1.33459-.27056-.14009-.63336.34288-1.83477,1.26956-1.29866,1.00168-1.16767.66329-2.20213,1.5a3.21266,3.21266,0,0,1-1.44875.82308,2.46755,2.46755,0,0,1-.90162.013A9.95687,9.95687,0,0,0,7.54358,13.47041Z"/>
   <path class="a"
         d="M17.85209,3.09807a12.84314,12.84314,0,0,0-1.40426,1.18085,2.30681,2.30681,0,0,0-.67021,1.43617c.00007.57472.33723.57233.56788,1.41779.20725.75965.0038,1.01358.28925,1.89807.15523.481.35.823.45138.80116.11928-.02575-.014-.52888.28724-.79787.19-.16972.36068-.07447.59328-.18974.45049-.22325.56915-.93278.57492-1.39182a10.21408,10.21408,0,0,0-.08937-1.8543A1.61886,1.61886,0,0,1,18.41541,4.96a1.16069,1.16069,0,0,1,.1914-.38662,7.14146,7.14146,0,0,1,1.79-1.60372,8.17,8.17,0,0,1,.88157-.54457c1.60493-.67978,3.27906.33585,3.48733-.07172.07925-.1551-.07956-.46584-.27219-.593-.20333-.13422-.416-.04517-.70535-.24872a.73312.73312,0,0,1-.18284-.1705c-.17525-.23845-.10283-.48909-.13618-.63672C23.37945.30757,22.36169-.06923,21.42656.13,20.749.27431,20.056.95361,18.6699,2.31221,18.30939,2.66557,18.18408,2.80641,17.85209,3.09807Z"/>
   <path class="a"
         d="M10.03294,22.15126c-.13878.17769-.65459.849-.46118,1.13283.05552.08149.14142.08984.2009.21274a.71812.71812,0,0,1-.087.60567c-.18155.30948-.436.33182-.41871.44238.02739.17506.69821.32859.90156.078a.53438.53438,0,0,0,.07116-.27115l.06916-.68459a1.19051,1.19051,0,0,1,.08324-.38643,1.14879,1.14879,0,0,1,.20624-.27984A16.7592,16.7592,0,0,1,12.37993,21.316a4.55859,4.55859,0,0,0,1.28534-1.33012,1.03059,1.03059,0,0,0,.13374-.60711.61351.61351,0,0,0-.38285-.45277c-.28419-.09727-.60629.16256-1.56407,1.11885A24.729,24.729,0,0,0,10.03294,22.15126Z"/>

</g>
</svg>
