<?xml version="1.0" encoding="UTF-8"?>
<svg xmlns="http://www.w3.org/2000/svg"
     version="1.1"
     width="43.78968690mm"
     height="30.10488109mm"
     viewBox="0.00000000 0.00000000 124.12827727 85.33666129">

<g transform="scale(7.55223773)">   <defs>
      <style type="text/css"><![CDATA[
      .b {
        stroke: #000;
        stroke-miterlimit: 10;
        stroke-width: .15px;
      }
    ]]></style>
   </defs>
   <path class="b"
         d="m5.42473.3563c-1.0201.31537-1.63013.84251-2.7234,1.78724-.39058.33751-.92705.97678-2,2.25532-.39379.46925-.73157.88744-.59575,1.14893.14922.28728.78201.21601.80851.21277.4996-.06119.79953-.36189,1.31915-.85107.1813-.17068,1.03896-.97587,1.78724-1.57446.96883-.77502,1.27363-.81918,1.48936-.80851.47033.02327,1.01311.33173,1.10638.76595.05616.26141-.05481.54881-.6383,1.19149-.6717.73985-1.12567,1.02098-1.95745,1.70213-1.25821,1.03035-1.57459,1.4968-1.74468,2-.06974.20633-.278.82243,0,1.10638.22003.22475.63779.13225,1.31915-.04255,1.45621-.37357,2.18431-.56036,2.80851-.80852,1.66769-.66302,1.5518-.8431,2.27962-.9358.61533-.07837,1.50411-.0523,2.15369-.03324.74715.02192,1.0827.06502,1.39647-.17989.07701-.0601.18481-.16262.59575-1.10638.3853-.8849.36624-.96867.34042-1.02127-.18348-.37394-1.22218-.22197-2.46808,0-3.18644.5677-4.37835.99649-4.55319.68085-.15617-.28195.57981-1.01231,1.48936-1.91489,1.20671-1.19748,1.77494-1.43886,1.78724-2.04255.01615-.79337-.94492-1.37487-1.06383-1.44682-1.086-.65709-2.35168-.2658-2.93617-.08511Z"/>
   <path class="b"
         d="m11.38218,3.54779c-.32555.39397-.06392.93719-.55319,1.44681-.17874.18617-.26083.1628-.59575.38298-.19382.12741-1.04629.68783-1.19149,1.2766-.075.30411.02986.65161,1.48936,2.21277,1.62178,1.73474,2.15322,2.01261,2.6383,2.17021.40578.13184,1.02576.3236,1.61702.04255.46056-.21893.68426-.62041.97872-1.14893.26288-.47182.59058-1.05999.59575-1.78723.00277-.39038-.08807-.72561-.93617-2.17021-1.32147-2.25092-1.7004-2.45815-1.91489-2.55319-.69029-.30589-1.72645-.35788-2.12766.12766Z"/>

</g>
</svg>
