<?xml version="1.0" encoding="UTF-8"?>
<svg xmlns="http://www.w3.org/2000/svg"
     version="1.1"
     width="41.60118531mm"
     height="43.12425170mm"
     viewBox="0.00000000 0.00000000 117.92462726 122.24199913">

<g transform="scale(5.28493839)">   <defs>
      <style type="text/css"><![CDATA[
      .a {
        stroke: #000;
        stroke-miterlimit: 2.61313;
        stroke-width: 0.28346px;
      }
    ]]></style>
   </defs>
   <path class="a"
         d="M12.84229,2.93994c-1.30664,1.31445-1.98047.88281-2.56445.20313C12.44775,1.34033,14.853-.02686,18.104.15869c1.32715.47656,1.66406,1.94531,1.55176,3.86523a29.47321,29.47321,0,0,1,1.55176,7.25586c1.14844,3.98242,2.12109,7.918-2.36133,10.44141-1.35156,1.47852-2.8877,1.81055-4.25.20313.80762-.49609,2.08984-1.31055,3.44043-2.16992.97266-1.32031.58105-2.83594.26953-4.33984-1.25977-.98242-1.5293-3.582-1.34863-6.916-.79785-1.59961-.81445-3.5918-.877-5.55859q-.271-1.08691-3.23828,0Zm-7.624,14.71289c.40527-.248.80957-.498,1.21484-.74609-.06738-.248-.13477-.49609-.20312-.74609q-2.52979.94922-2.63086-.543c.44434-1.24219.94629-2.48437.47266-3.72852V10.53369c2.2793-1.9668,3.92578-3.84375,1.14648-5.08594-.71973-1.01758,3.01367-2.30469,4.52051-3.457Q11.189,1.51611,11.29053.77C10.76416.14111,9.21338.42236,4.00439,3.95752Q1.27246,6.228,2.85693,6.87158a3.15351,3.15351,0,0,1-.47168,3.66211C1.34814,11.9126.51514,13.24658,1.103,14.26221A8.44047,8.44047,0,0,0,.8335,16.36377q-.33691.917-.6748,1.832c.95312,1.377,4.58008,1.17383,5.05957-.543Z"/>

</g>
</svg>
