<?xml version="1.0" encoding="UTF-8"?>
<svg xmlns="http://www.w3.org/2000/svg"
     version="1.1"
     width="18.16925019mm"
     height="36.65067652mm"
     viewBox="0.00000000 0.00000000 51.50334379 103.89172901">

<g transform="scale(5.24842214)">   <defs>
      <style type="text/css"><![CDATA[
      .a {
        stroke: #000;
        stroke-miterlimit: 10;
        stroke-width: 0.15px;
      }
    ]]></style>
   </defs>
   <path class="a"
         d="M.73713.591A2.42388,2.42388,0,0,1,2.28963.07543,1.41808,1.41808,0,0,1,3.29379.51026a1.26877,1.26877,0,0,1,.39493.54112,23.21369,23.21369,0,0,1,1.67449,3.6521A6.54091,6.54091,0,0,0,6.8813,7.49414c.11221.10578.28629.08911.3836.20472.0516.06058.02749.28127.07515.37388.03562.07031.191.19308.24416.26491a2.89056,2.89056,0,0,1,.63821,1.50863c.01143.62015.03217,1.22159.093,1.84472.178,1.81742-2.92821-.59383-3.34123-1.17744-.30137-.42612-.59354-.87093-.90655-1.29641-.46665-.636-.875-1.313-1.2882-1.98533A18.974,18.974,0,0,1,1.58887,5.32058C1.07,4.19206.02945,3.51764.07655,2.14349A2.04412,2.04412,0,0,1,.73713.591Z"/>
   <path class="a"
         d="M6.72318,5.04626c-.13413-.282-.28-.5596-.41223-.83816-.248-.52348-.58524-1.11056-.27942-1.67081.2627-.48016.68557-.25717,1.11082-.30465.25975-.02915.36427-.14981.60981-.05945a1.85012,1.85012,0,0,1,.52054.4259,4.18768,4.18768,0,0,1,.51865,1.16516,26.05944,26.05944,0,0,1,.56343,2.83613c.66717,2.54976.32788,5.477-.00131,8.07191-.15648,1.2372-.24877,2.46667-.4236,3.69992a1.89627,1.89627,0,0,1-.6793,1.30668,7.62381,7.62381,0,0,1-.40412-3.81049c.02982-.929-.02687-1.85038.00125-2.78529a23.60688,23.60688,0,0,0-.757-7.10359A5.70564,5.70564,0,0,0,6.72318,5.04626Z"/>

</g>
</svg>
