<?xml version="1.0" encoding="UTF-8"?>
<svg xmlns="http://www.w3.org/2000/svg"
     version="1.1"
     width="58.86033359mm"
     height="10.86515740mm"
     viewBox="0.00000000 0.00000000 166.84818024 30.79884938">

<g transform="scale(4.29680440)">   <defs>
      <style type="text/css"><![CDATA[
      .b {
        stroke: #000;
        stroke-miterlimit: 10;
        stroke-width: .15px;
      }
    ]]></style>
   </defs>
   <path class="b"
         d="M11.61608,.61254c-3.10681-.01196-5.76709-.64124-7.7121-.24036-.64978,.13391-1.29321,.38757-1.2933,.38757-.45383,.17883-.93616,.36902-1.43616,.76599C.83266,1.79723-.04786,2.49633,.0894,3.18529c.02826,.14197,.11603,.36511,.63831,.73413,1.00882,.71265,2.08051,.86829,2.58511,.92542,1.18976,.13464,2.09067,.04553,2.617,0,1.97491-.17065,1.7132,.01074,4.56384-.12756,2.97534-.14441,3.94012-.375,7.72339-.73413,1.39359-.13232,3.40833-.30469,5.87234-.44678,.04099-.09424,.14032-.28772,.35107-.44678,.06238-.04712,.30646-.22607,.63831-.22339,.15787,.00122,.25076,.04297,.76593,.28723,.58606,.27783,.56903,.27283,.60638,.28723,.4729,.18201,.90173,.10242,1.18088,.06384,.17249-.0238,1.01926,.01599,2.71274,.0957,1.37927,.06494,1.72577,.12622,1.91492,.41492,.18021,.27502,.18127,.70117,.00925,.99548-.29477,.50427-.914,.3075-1.25394,.82361-.22754,.34546-.24127,.87585,0,1.11707,.2171,.21704,.59894,.1582,1.24469,0,1.1987-.2937,1.79807-.44067,2.52127-.79785,.55038-.27185,1.5939-.85095,2.64893-1.91492,.87369-.8811,1.43362-1.4458,1.3085-2.07446-.1463-.73486-1.14017-1.11157-1.65955-1.30847-.70816-.26843-1.29236-.29053-2.45746-.28723-1.39966,.00391-2.25735,.04065-3.12766,.06372-1.84866,.04895-2.77298,.07349-3.79788-.03186-1.32684-.13635-1.45334-.30249-2.71277-.44678-.97861-.11218-1.64249-.09668-3.73404,0-3.29898,.15247-5.01868,.26978-7.65958,.38293-1.19617,.05127-1.79428,.0769-1.97333,.07617Z"/>

</g>
</svg>
