<?xml version="1.0" encoding="UTF-8"?>
<svg xmlns="http://www.w3.org/2000/svg"
     version="1.1"
     width="41.47356744mm"
     height="46.99938222mm"
     viewBox="0.00000000 0.00000000 117.56286231 133.22655961">

<g transform="scale(6.96665924)">   <defs>
      <style type="text/css"><![CDATA[
      .a {
        stroke: #000;
        stroke-miterlimit: 10;
        stroke-width: 0.15px;
      }
    ]]></style>
   </defs>
   <path class="a"
         d="M.436,3.18362A2.34333,2.34333,0,0,1,.47475,2.787c.11129-.34074.38884-.33422.69667-.69057.24269-.281.11751-.33981.46661-.87228A7.188,7.188,0,0,1,2.08838.64369c.31752-.38782.4137-.46916.54052-.51735A1.23068,1.23068,0,0,1,3.1291.08009,1.84592,1.84592,0,0,1,4.39892.42071c.3129.31582.06335.58479.33977.92557.358.4413.90137.14425,1.625.5625a2.42587,2.42587,0,0,1,.88358.95648c.2014.35205.08641.32954.46922,1.89492a1.031,1.031,0,0,1,.03882.53072c-.05973.24226-.20131.31495-.67915.81189-.25565.26588-.24771.279-.53908.57748a6.01281,6.01281,0,0,1-.52756.49934c-.23933.194-.26775.175-.4375.3125a2.98187,2.98187,0,0,0-.79166,1.10416,1.94108,1.94108,0,0,0-.21567.55594c-.06044.46045.18891.66426.049,1.04823-.0531.14572-.10422.1581-.19172.39474a2.69288,2.69288,0,0,0-.12078.48026c-.07695.40018-.141.60623-.16667.72917a4.27985,4.27985,0,0,0,.375,2.77083c.72343,1.14714,2.251,1.30207,3.79167,1.45833a5.91367,5.91367,0,0,0,2.4375-.1875,3.37331,3.37331,0,0,0,1.3125-.60417,1.99584,1.99584,0,0,1,.60385-.39006c.25039-.12152.34136-.1147.41439-.08843a.35955.35955,0,0,1,.16444.46344,1.04454,1.04454,0,0,1-.35353.40938,8.05253,8.05253,0,0,1-.63186.51385c-.764.502-1.43981,1.2339-2.364,1.80016a7.96814,7.96814,0,0,1-3.47916,1.0625c-1.28595.13126-1.24653-.15355-2.83334-.02084a2.62538,2.62538,0,0,1-1.22916-.10416c-.25608-.095-.22347-.1391-1.15275-.79245-.51748-.36382-.78417-.53055-.76392-.74922.01807-.19507.25193-.29582.20833-.5-.0265-.12408-.12511-.14435-.156-.2895a.53246.53246,0,0,1,.083-.36108,4.579,4.579,0,0,0,.24393-.8871c.11435-.50223-.05674-.56668-.02508-1.31649A9.81857,9.81857,0,0,1,.91859,13.008c.09774-.59435.13731-.73668.25761-1.43252.18483-1.06909.17836-1.236.10515-1.43788a1.812,1.812,0,0,1-.20525-.62,6.06614,6.06614,0,0,1,.07927-.69213,1.64,1.64,0,0,0,0-.5625c-.08289-.28086-.27494-.34458-.5-.625a2.28434,2.28434,0,0,1-.375-.79166,3.55359,3.55359,0,0,1-.1875-1.52084C.16434,4.653.39481,4.5459.40536,3.92961.40584,3.902.41066,3.59319.436,3.18362Z"/>
   <path class="a"
         d="M7.11369,11.17961c.64788-.56729.888-.70707,1.72917-1.41667.688-.58033,1.17836-1.036,1.52083-1.35416.57571-.5349,2.7606-2.59612,4.50512-4.15366.23545-.21021.933-.82146,1.34-.6179.1371.06857.22427.22112.384.50072a.97044.97044,0,0,1,.19928.64885.71286.71286,0,0,1-.15761.33032,1.23192,1.23192,0,0,1-.67224.40143c-.60718.15108-1.4127,1.11485-2.41106,2.07879a19.28275,19.28275,0,0,1-3.3542,2.64478c-.59749.36485-.48108.23963-1.64583.89583a31.46293,31.46293,0,0,1-3.15163,1.82034C5.30571,12.83987,6.43543,11.7735,7.11369,11.17961Z"/>

</g>
</svg>
