<?xml version="1.0" encoding="UTF-8"?>
<svg xmlns="http://www.w3.org/2000/svg"
     version="1.1"
     width="46.47168887mm"
     height="27.02918098mm"
     viewBox="0.00000000 0.00000000 131.73071352 76.61824607">

<g transform="scale(5.30581105)">   <defs>
      <style type="text/css"><![CDATA[
      .b {
        stroke: #000;
        stroke-miterlimit: 10;
        stroke-width: .15px;
      }
    ]]></style>
   </defs>
   <path class="b"
         d="m6.23935.68439c-.40678.27272-.67331.56934-1.3617,1.53191-1.0489,1.46666-.94197,1.49374-1.53191,2.25532-.72979.94211-1.72536,1.97464-1.91489,2.17021-.43354.44735-.72275.71836-.97872,1.23405-.02849.05739-.67104,1.37907-.21277,1.78723.3093.27547.96918.00046,1.2766-.12766.48937-.20396.89813-.50291,1.74468-1.40425,1.15804-1.23299,1.43669-1.78464,1.95745-1.74468.16088.01234.39094.16426.85106.46809.49842.32912.63412.48611,1.06383.80851.60473.4537,1.03809.77883,1.61702.93617.36377.09886.62813.08884,1.31915.04255,2.41043-.16148,3.82969-.34041,3.82979-.34042.91963-.11594.88698-.12088,1.61702-.21277,1.31419-.16541,2.38814-.27365,3.10638-.34042.00039.22026-.02618.54382-.17021.89362-.14959.3633-.31747.49162-.55319.85107-.34541.52671-.28372.70677-.55319,1.23404-.26051.50973-.5567.80817-1.06383,1.31915-.91395.92089-1.40299,1.03864-1.40426,1.48936-.00101.35793.30619.72129.6383.80851.41725.10958.83094-.22798,1.02128-.38297,1.08734-.88543,2.26525-1.66698,3.2766-2.6383,1.3418-1.2887,1.67611-1.56345,2.6383-2.55319.10531-.10833.87945-.91305,1.65957-2.12766.60565-.94297.72097-1.36394.59575-1.74468-.18794-.57145-.8397-.81501-.93617-.85106-.42969-.16058-.81676-.11013-1.48936.04255-1.2083.27428-1.75342.51879-2.51064.7234-.50517.13651-1.07437.20448-2.21277.34043-.31883.03808-.83235.09542-3.53191.25532-1.75443.10391-2.19282.11851-2.80851-.12766-.22869-.09144-.8386-.34313-1.3617-.93617-.12146-.1377-.44696-.53043-.89362-1.91489-.51149-1.58541-.39414-2.02971-.80851-2.25533-.63639-.3465-1.62301.31496-1.91489.51064Z"/>

</g>
</svg>
