<?xml version="1.0" encoding="UTF-8"?>
<svg xmlns="http://www.w3.org/2000/svg"
     version="1.1"
     width="39.26288640mm"
     height="36.05165603mm"
     viewBox="0.00000000 0.00000000 111.29645826 102.19361506">

<g transform="scale(7.75753200)">   <defs>
      <style type="text/css"><![CDATA[
      .a {
        stroke: #000;
        stroke-miterlimit: 10;
        stroke-width: 0.15px;
      }
    ]]></style>
   </defs>
   <path class="a"
         d="M2.81,4.27963A14.03269,14.03269,0,0,0,.41,8.135a3.9304,3.9304,0,0,0-.33191,1.6851,2.73715,2.73715,0,0,0,.28085,1.2A4.57108,4.57108,0,0,0,1.40574,12.169a1.53249,1.53249,0,0,0,.45957.33191A1.76269,1.76269,0,0,0,2.81,12.552c.76971-.05795.9485.36585,1.8383.51064a4.05575,4.05575,0,0,0,1.50638-.10212c1.23341-.22266,1.20578-.53681,3.02795-1.12285a3.84914,3.84914,0,0,0,1.26716-.59237,4.61333,4.61333,0,0,0,.73112-.7445c.6553-.77692,1.26888-1.56332,1.94453-2.32494a6.30317,6.30317,0,0,0,.84112-1.10158,2.1172,2.1172,0,0,0,.28561-1.33333.96335.96335,0,0,0-.24728-.53818,1.37782,1.37782,0,0,0-.46653-.26714l-.74212-.30389a3.64543,3.64543,0,0,0-1.3437-.35786c-.387-.00118-.585.18048-1.3282.66737-1.23175.807-1.1296.64142-1.64625,1.02352A10.36558,10.36558,0,0,0,6.51845,7.95367c-1.50156,1.86239-2.66154,3.851-2.3808,4.08767.13465.1135.65066-.13389.97543-.07257a.31147.31147,0,0,0,.19673-.0177.37794.37794,0,0,0,.14523-.16881A20.0481,20.0481,0,0,1,10.40638,6.3789a2.44158,2.44158,0,0,1,.8657-.52712.85141.85141,0,0,1,.92076.26307,1.10219,1.10219,0,0,1-.05633,1.0811A5.078,5.078,0,0,1,9.145,9.6564a11.02124,11.02124,0,0,1-3.93076.43829A3.10573,3.10573,0,0,1,2.52258,9.00941a2.18387,2.18387,0,0,1,.04068-2.05406A6.44643,6.44643,0,0,1,3.91432,5.305L5.97243,3.29452a2.50494,2.50494,0,0,0,.5535-.6861c.06613-.13975.10621-.29159.183-.42577.23349-.40792.766-.59053.95512-1.02084A.87349.87349,0,0,0,7.36961.19124.59353.59353,0,0,0,7.09614.078C6.62572.02366,6.27679.70815,5.593,1.49666c-.34661.39968-.22785.19025-1.25106,1.2C3.82122,3.2105,3.29005,3.73468,2.81,4.27963Z"/>

</g>
</svg>
