<?xml version="1.0" encoding="UTF-8"?>
<svg xmlns="http://www.w3.org/2000/svg"
     version="1.1"
     width="73.80682845mm"
     height="39.33504697mm"
     viewBox="0.00000000 0.00000000 209.21617260 111.50090069">

<g transform="scale(7.20515799)">   <defs>
      <style type="text/css"><![CDATA[
      .b {
        stroke: #000;
        stroke-miterlimit: 10;
        stroke-width: .15px;
      }
    ]]></style>
   </defs>
   <path class="b"
         d="m11.38182,8.46408c1.35196-.64999,3.61924-1.27235,4.8309-1.60493,2.06036-.56555,3.35182-.80103,3.92311-1.4641.05949-.06904.25943-.3148.56618-.35404.41015-.05246.7696.2952,1.09296.60797.09322.09016.1729.18377.19019.31408.02177.16401-.08987.31266-.19506.44035-.21395.25971-.42789.51942-.64184.77914-.35434.43015-.59312.58907-.76478.69051-.48324.28557-.96897.28223-1.13312.28741-1.95519.06171-8.4582,2.916-9.98324,3.69453-.00009.00005-.45028.22987-1.12315.39058-.60994.14568-1.13565.27125-1.42554,0-.16978-.15887-.17702-.47471-.19148-1.10638-.01583-.69128.1104-.85231.17021-.91489.08598-.08997.17918-.12772.59574-.21277.8653-.17666,1.1659-.15722,1.6383-.34042.18507-.07177.28241-.1304.51064-.25532.00008-.00005.28571-.15637,1.93995-.95171Z"/>
   <path class="b"
         d="m27.12272.09664c.167-.00858.48508-.02689.74468.17021.26499.20119.32397.51672.38469.76591.22734.93309.43626.76078.65786,1.63834.10249.40586.04182,1.19525-.07952,2.77402-.00955.12425-.03262.38545-.18474.45164-.16345.07112-.33582-.1439-.71446-.31077-.26257-.11571-.58925-.25967-.87234-.17021-.51914.16406-.51842.99519-.89259,1.75253-.01898.03841-.06991.13935-.06494.27235.00526.14101.07342.31974.21285.42193.27338.20036.62416-.03757.76595.14893.0742.0976.03311.23507.02858.24948-.06841.21754-.38631.29571-.49666.32499-1.13669.30165-1.55875,1.07104-2.96022,1.16646-.39574.02694-.49078-.0251-.79675.05797-.42996.11673-.78072.47427-1.2243.51586-.23835.02235-.47417-.05067-.70244-.12281-.93021-.29398-1.86044-.58795-2.79066-.88193-.16215-.05125-.33182-.10709-.44823-.23106-.27129-.28889-.11224-.76994.13575-1.07906.58458-.72871,1.54167-1.07141,2.47317-1.1426.80189-.06129,1.00441.12307,2.79021.20238.39561.01757.71954.02329.9277.02542.07954-.17509.12347-.32269.14894-.42553.04115-.16618.04361-.25403.11896-.33618.08673-.09456.20394-.09846.30125-.12724.42566-.12592.8103-.38678,1.08472-.73567.03661-.04655.07245-.09737.07998-.1561.0167-.13027-.15343-.23425-.23505-.28543-.60196-.37753-.92951-.32047-1.11582-.59341-.19077-.27947.00609-.554-.21277-.7234-.15816-.12242-.43552-.11417-.52741.00848-.10761.14362.1115.3475.11384.64483.00247.31381-.23791.55421-.81662,1.02085-.91158.73504-1.36737,1.10256-1.64214,1.09179-.84085-.03297-1.37581-1.06424-1.43022-1.16914-.20468-.39458-.25167-.78013-.2719-.95851-.02422-.2136-.06342-.55923.04255-.91489.15177-.50938.53459-.81542.80851-1.02128,1.59268-1.19691,2.62508-1.97278,4.31915-2.2766.8979-.16103.68991.04221,2.34042-.04256Z"/>
   <path class="b"
         d="m7.18655,6.586c-.31498.18208-.47886.44398-.53781.53555-.52724.81886-1.70961,2.06415-2.59543,2.69925-.15653.11223-.51216.35479-.63873.78854-.06974.23899-.04055.43534-.01923.59251.2056,1.51579.00726,1.80479.36568,2.68204.12621.30891.19234.46643.34042.61702.41317.42015.99001.39757,1.81787.438.43582.02129,1.01792.08805,2.18213.22158,1.67966.19265,2.3652.42306,2.83165.00594.05323-.0476.25089-.22437.31535-.50906.01861-.08218.05802-.31428-.20961-.88689-.24955-.53391-.37544-.80328-.63952-.95041-.34946-.1947-.67805-.02893-1.28735.10711-.0001.00002-1.96664.45543-3.40247-.36384-.18659-.10647-.37527-.25099-.42406-.46021-.05714-.24496.07972-.47247.14104-.56954.43484-.68826,1.15419-1.45115,1.35582-1.67097.91592-.99855.85893-1.37705,1.53567-2.33187.02241-.03161.17368-.24454.20677-.54345.01172-.10586.02576-.25099-.06036-.37231-.01965-.02769-.09535-.12575-.3394-.17819-.48602-.10444-.90501.12991-.93843.14922Z"/>
   <path class="b"
         d="m3.76102,12.18174c-.39501-.03957-.57042.08301-1.02128.17022-.32219.06232-.30047.01285-1.21276.04255-1.34477.04378-1.42871.15247-1.44682.21277-.04266.1421.18427.33559.48936.59574.28633.24414.33653.20739.65958.46809.36411.29382.39833.4196.59574.44681.13237.01824.1927-.02787.57447-.19149.44921-.19253.67382-.28879.85107-.31915.16939-.02901.12864.0041.85106,0,.42234-.0024.53321-.01427.65958-.08511.15186-.08513.37212-.28123.3617-.51064-.01285-.28313-.36997-.46163-.68085-.61702-.1419-.07092-.3681-.18144-.68085-.21277Z"/>

</g>
</svg>
