<?xml version="1.0" encoding="UTF-8"?>
<svg xmlns="http://www.w3.org/2000/svg"
     version="1.1"
     width="23.95393290mm"
     height="18.37269720mm"
     viewBox="0.00000000 0.00000000 67.90090464 52.08003726">

<g transform="scale(5.30581105)">   <defs>
      <style type="text/css"><![CDATA[
      .b {
        stroke: #000;
        stroke-miterlimit: 10;
        stroke-width: .15px;
      }
    ]]></style>
   </defs>
   <path class="b"
         d="m6.2603.40521c-.21793.07793-.51634.19788-1.14894.54256-1.09477.5965-1.90939,1.16806-2.36169,1.5-.94835.69597-.53313.50662-1.5,1.24467-.30827.23532-.72041.53694-.86171,1.05319-.02116.0773-.03568.20152-.06383.44681-.06331.55148-.08423.95695-.09575,1.14894-.08131,1.35579-.26189,1.5441-.06383,1.75533.17685.1886.48346.21194,1.05319.25531.2383.01814.41667.00967.60638,0,.60707-.03094.9106-.0464,1.08511-.19148.21147-.17581.17578-.41907.2234-1.24469.05602-.97112.08403-1.45667.25531-1.78723.13808-.26649.4644-.51808,1.11702-1.02127.63986-.49333,1.09721-.74728,1.56383-.92554.56038-.21407.80722-.19408.98936-.12766.17734.06468.30972.20268.57448.47871.28131.29329.44289.53464.63829.82979.28439.42955.31024.55424.31915.63831.02576.2428-.06441.38557-.12766.60638-.07178.25053-.11589.62585.03191,1.14893-.13835-.16887-.40749-.44719-.82979-.60637-.56767-.21399-1.08037-.08766-1.43617,0-.40935.10086-.71802.25566-1.14893.51064-.97801.57867-2.42093,1.43245-2.26596,1.94681.01375.04562.02858.05048.44681.38298.62445.49648.63123.51736.73404.57446.36826.2045.73241.18692,1.18085.15958.78326-.04778,1.35399-.29234,1.85107-.51064.96603-.42421,1.44904-.63632,1.65958-1.08511.08815-.18793.16217-.46771.41489-.57446.20248-.08553.40355-.01091.54256.03191.78995.24329,1.58122.07672,1.85106,0,.19348-.05501.83824-.23833,1.11702-.79787.16547-.33209.11998-.63208.03192-1.21277-.05658-.37309-.17708-1.11287-.70213-1.88298-.25406-.37263-.49078-.58803-.86169-.92552-.95689-.87067-1.23831-.75742-1.94681-1.46809-.68518-.68729-.60854-.98036-1.08511-1.14893-.53955-.19084-1.11653.01547-1.78723.25531Z"/>

</g>
</svg>
