<?xml version="1.0" encoding="UTF-8"?>
<svg xmlns="http://www.w3.org/2000/svg"
     version="1.1"
     width="55.65216029mm"
     height="51.09894707mm"
     viewBox="0.00000000 0.00000000 157.75412779 144.84741949">

<g transform="scale(5.79267105)">   <defs>
      <style type="text/css"><![CDATA[
      .b {
        fill-rule: evenodd;
        stroke: #000;
        stroke-miterlimit: 10;
        stroke-width: .15px;
      }
    ]]></style>
   </defs>
   <path class="b"
         d="M10.97717,3.13196c-.2134-.5171-.2134-1.03462,0-1.5532C15.54257-.01894,19.57437-.59014,22.43467,1.09686c.4439,.518,.3193,1.0356-.373,1.5532-.0176,.21428-.0357,.4282-.0533,.6426-1.9897-.0181-3.979-.0357-5.9687-.05332-2.3716,.52642-4.2549,.65142-5.0625-.10738h0Z"/>
   <path class="b"
         d="M.58558,22.57334c1.43891-2.26018,3.0171-4.57608,5.16891-7.123,1.88819-2.85208,4.481-5.97558,4.31689-8.03368-.0185-1.4995,.3902-2.07032,1.2256-1.7139,.4082-.9638,.8882-1.21342,1.439-.7495,.6743-.2143,1.1362-.0713,1.3852,.4282,.6812,2.732-.88469,5.3384-2.771,7.9268-2.2168,2.7412-4.4292,5.47408-6.5014,7.9263,.2661,.2675,.6743,.3212,1.2256,.1606,1.0034-1.0981,1.90911-1.1157,2.7709-.6426-.31979,1.857-2.4165,3.2134-6.288,4.0703-.8179,.2676-1.4214,.0352-1.812-.6963-1.0342-.1591-.6949-.8208-.1597-1.55322H.58558Z"/>
   <path class="b"
         d="M7.19348,21.93076c.99219-2.4487,3.52589-5.3618,5.96869-8.248,1.3965-2.3086,2.628-5.0703,3.7305-5.0342,.0703-1.999,.5679-2.7134,1.4922-2.1426h.6392c.2128-1.017,.71041-1.3203,1.4921-.9101h.7461c.2896,3.5698-4.3969,8.4634-9.0063,13.3359-.231,1.1602,.4619,1.3208,2.0786,.482,.438-.8042,2.75-1.357,5.3291-1.8746,2.7007-1.1103,5.0274-.9663,7.30081-.643,.25049,.9653,.375,1.82318-.37311,1.92818-.7993,1.19682-1.5991,2.21442-2.39789,2.83892-.56891,.1963-1.06641,.1074-1.49221-.2681-.1777-.2852-.0713-.57082,.3198-.8569,.0796-.5528-.5244-.7134-1.4389-.6963-2.0249,.60738-4.0503,1.2138-6.0752,1.8213-4.0659,1.459-8.75149,2.583-8.31349,.2675h0Z"/>

</g>
</svg>
