<?xml version="1.0" encoding="UTF-8"?>
<svg xmlns="http://www.w3.org/2000/svg"
     version="1.1"
     width="31.01593128mm"
     height="34.74655249mm"
     viewBox="0.00000000 0.00000000 87.91920212 98.49422041">

<g transform="scale(5.58584936)">   <defs>
      <style type="text/css"><![CDATA[
      .b {
        stroke: #000;
        stroke-miterlimit: 10;
        stroke-width: .15px;
      }
    ]]></style>
   </defs>
   <path class="b"
         d="m6.9052,2.46753c-.88486.52185-1.32729.78281-1.77129,1.13297-.18466.14563-.58588.53326-1.38829,1.30853-.10036.09695-.57504.56009-.9734,1.16489-.09821.14911-.22194.35263-.28723.63831-.02328.1019-.04544.24182-.03192.63828.01677.49182.02515.73776.09575,1.00534.07088.26862.15448.38202.49467.94147.72231,1.18784.79248,1.41187,1.13298,1.54788.06656.02658.44742.17874.78192,0,.28874-.1543.44908-.50497.46277-.79788.01515-.32416-.15402-.47638-.04788-.63828.1189-.18137.39029-.0806.49469-.23938.08847-.13455-.00865-.35562-.28725-.81381-.54437-.89526-.78966-1.0643-.75-1.38831.02679-.21887.1651-.35696.4149-.60638.2448-.24442.58759-.49646,1.16489-.71808.98486-.37805,1.12117-.0798,2.0266-.46277.35477-.15005.54605-.28561.79788-.20746.35713.11081.3553.5022.75.62234.18251.05554.38231.00513.78191-.09573.36632-.09247.54948-.1387.63831-.25534.20535-.26968-.01437-.74353-.23936-1.2287-.17436-.37601-.48186-1.01883-1.18085-1.53192-.15314-.11243-.39732-.28873-.76596-.41489-.55312-.1893-1.01408-.13834-1.10106-.12769-.33972.04156-.5806.15378-1.21277.52661Z"/>
   <path class="b"
         d="m.37861,9.44092c-.30554.47388-.30579.94778-.30319,1.14896.00464.35925.09544.61896.19148.89362.06558.18756.22403.59464.55852,1.05319.23747.32556.48601.54593.9734.97339.38246.33542.85411.74588,1.54787,1.19681.46642.30316.69962.45474,1.05319.59042.5143.19736.80247.18307,1.48404.2713,1.61763.20938,2.22227.57819,2.4415.28723.11243-.1492-.04358-.25024-.07979-.9415-.02225-.42484-.04665-.89038.15958-1.37234.16354-.38223.31285-.40253.31915-.63831.00784-.29346-.21558-.55573-.76596-.97339-.79204-.60104-1.06107-.61319-1.80319-1.11703-.21059-.14297-.60316-.46234-1.38831-1.10104-.80566-.6554-.87761-.73965-1.14893-.84576-.40852-.15979-.80959-.17035-1.61171-.1915-.51372-.01355-.68007.022-.82979.0798-.46379.17905-.70955.54919-.79787.68616Z"/>
   <path class="b"
         d="m8.62861,9.37711c-1.10391.97415-1.03862.92236-1.10107.97339-.65222.53284-.87628.54666-1.05318.92554-.07607.1629-.09859.34796-.14363.71808-.05476.44992-.04103.68866-.04787,1.32449-.00568.52875-.00998.92905-.04787,1.38828-.03891.47171-.10045.85019-.14362,1.08511.04994.02438.12259.06158.20744.11169.2039.12039.46344.27365.62234.52661.05247.08353.0183.05746.14362.38297.24971.64859.37117.71503.44681.73404.07343.01846.16924.00873.25531,0,.09984-.01013.18173-.03046.23936-.04785-.00339-.15622.03433-.26852.06383-.33511.15294-.34512.56158-.53604.89362-.52661.12379.00351.13698.03204.2234.01596.27734-.05164.42502-.39816.51065-.59042.53154-1.19351.75165-1.11334.9734-1.97873.12509-.48816.04721-.48312.15956-.92551.18927-.7453.5475-1.2999.82979-1.65958-.03368-.06552-.0842-.16504-.14362-.28723-.15024-.30893-.19572-.4303-.28723-.62234-.22021-.46222-.25661-.38867-.36702-.67023-.16406-.41837-.06612-.53583-.23936-.76596-.19209-.25516-.47958-.33264-.5585-.35104-.37074-.08643-.67908.0726-.90958.19147-.21835.11261-.35576.23224-.5266.383Z"/>
   <path class="b"
         d="m9.70463.55395c-.505.37012-.74066.81293-.79788.92551-.07648.15048-.36075.74698-.25531,1.5.05437.38828.17914.58099.41489,1.08511.27115.5798.465,1.19272.70213,1.78723.91634,2.29733,1.37637,3.45178,1.46808,3.73404.4487,1.38095.70058,2.17929.70213,3.31915.0009.65714-.01123,1.43326-.35106,2.36169-.30974.84622-.74518,1.40491-.58134,1.56253.0585.05627.20906.07648.9734-.35107,1.00288-.56097,1.50433-.84146,2.05852-1.45212.77379-.85263,1.08714-1.71744,1.18771-2.02527.12459-.38135.17119-.71213.2644-1.37366.18414-1.30692.27621-1.96039,0-2.42554-.10992-.18512-.30019-.41238-.28723-.75.0108-.28162.15691-.4805.20744-.5585.24239-.37418.2267-.96368-.19148-2.52127-.41501-1.54578-.62251-2.31866-1.02127-2.96811-.28015-.4563-.72568-1.16458-1.58888-1.72208-.4386-.28326-1.12895-.73041-1.94681-.57446-.46066.08783-.80772.33707-.95744.44681Z"/>

</g>
</svg>
