<?xml version="1.0" encoding="UTF-8"?>
<svg xmlns="http://www.w3.org/2000/svg"
     version="1.1"
     width="35.38710782mm"
     height="58.02592605mm"
     viewBox="0.00000000 0.00000000 100.31000530 164.48285425">

<g transform="scale(7.45723337)">   <defs>
      <style type="text/css"><![CDATA[
      .b {
        stroke: #000;
        stroke-miterlimit: 10;
        stroke-width: .15px;
      }
    ]]></style>
   </defs>
   <path class="b"
         d="m7.12842,6.44918c-.58858,1.71181-.89037,2.38919-1.17638,3.66443-.1495.66661-.17377,1.28445-.22231,2.52016-.01875.47742.0049.67987.10713.91486.34553.79422,1.4078.94351,2.26788.84138,1.55163-.18427,3.04771-.81473,4.26322-1.79657.36907-.29811.74566-.73683.60946-1.19128-.12457-.41565-.64337-.6002-1.06827-.51222s-.77835.37065-1.12607.6302c-.82629.61678-.96263.70915-1.29452.86595-.51035.24112-.93482.44165-1.19751.29643-.80517-.44511.30254-3.92123.45755-4.39874.58123-1.7905,1.70463-4.35455,1.77008-4.50337.33078-.75215.37398-1.60184.62086-2.38554.06487-.20592.23577-.73677,0-.96875-.05713-.05621-.11031-.0675-.53125-.1875-.54565-.15555-.54905-.16302-.58934-.16357-.55127-.00745-1.00141,1.37706-1.02782,1.45824-.54213,1.66635-1.29293,3.2588-1.86271,4.91591Z"/>
   <path class="b"
         d="m12.5458,11.64485c-.08139-.25308-.12339-.38078-.1875-.43749-.35992-.31846-1.36649-.05469-1.86229.52642-.61037.71539.00683,1.38023-.30882,2.98169-.22407,1.13681-.76905,1.93132-1.40162,2.90028-.43402.66484-.88578,1.34799-1.54507,1.79042-1.30771.87756-2.80322.62827-2.94534.60474-.87016-.14406-.91731-.46141-2.12436-.67855-.72906-.13117-1.58383-.28493-1.92908.17153-.21893.28946-.22422.78394-.00415,1.06285.24207.30678.62014.46796.98454.60912,1.76013.68185,3.76141,1.17401,5.50262.44519.67743-.28355,1.08215-.61555,1.75032-1.16991,1.48103-1.22874,3.10283-3.2812,2.77506-4.44753-.035-.12456-.13043-.37489-.01682-.60876.20025-.41219.79973-.25829,1.03125-.65625.19659-.33792-.15281-.59128.03125-1.125.13731-.39816.35765-.33224.4604-.70972.08916-.32755-.01069-.63805-.2104-1.25903Z"/>
   <path class="b"
         d="m11.4833,4.8011c.07846-.01598.54515-.11963.8125-.5.22591-.3214.13458-.59152.40625-.78125.2122-.14819.40353-.07809.5625-.28125.00945-.01207.16351-.21344.09375-.34375-.08401-.15694-.38478-.00928-.59375-.18749-.17891-.15259-.05544-.34354-.21875-.59376-.15943-.24426-.44431-.31848-.78125-.40624-.10474-.02729-.16751-.03646-.90625-.09376-.59027-.04578-.64542-.04732-.75-.03124-.17055.02619-.50265.0772-.78125.34374-.21051.2014-.1857.33983-.375.75-.38608.83652-.86377,1.05103-.75,1.4375.00336.01143.05989.19379.22786.29066.29613.17081.59266-.12361,1.02214-.19691.85578-.14606,1.19456.76414,2.03125.59374Z"/>

</g>
</svg>
