<?xml version="1.0" encoding="UTF-8"?>
<svg xmlns="http://www.w3.org/2000/svg"
     version="1.1"
     width="42.23784441mm"
     height="63.54301101mm"
     viewBox="0.00000000 0.00000000 119.72938673 180.12201494">

<g transform="scale(7.45723337)">   <defs>
      <style type="text/css"><![CDATA[
      .b {
        stroke: #000;
        stroke-miterlimit: 10;
        stroke-width: .15px;
      }
    ]]></style>
   </defs>
   <path class="b"
         d="m1.084,6.63501c.13995.43422.34399.42685.59898.94547.48294.98227.15491,1.83022.46351,1.92953.18612.05989.50443-.18444.56891-.43722.05782-.22665-.1111-.37131-.00641-.59403.07997-.17014.25021-.23821.28125-.25.01846-.00701.21442-.07802.40974.01384.19882.0935.23015.27728.30901.26741.08983-.01125.15614-.26311.16557-.56264.02382-.75624-.33527-1.17113-.44682-1.59361-.34532-1.30774,1.54744-3.19425,2.03125-2.96875.21843.10181.16559.64153.13756.92797-.10971,1.12081-.79913,1.91037-1.04381,2.19703-1.17682,1.37876-1.90527,2.68218-3.36218,5.28902-.72461,1.29654-.853,1.74333-.91907,2.02348-.14273.60519-.52644,2.23215.4375,3.6875.10085.15225,1.16588,1.71156,2.75,1.71875.88095.004,1.71817-.68564,3.39261-2.06491,1.60246-1.31998,1.4337-1.55361,2.37654-2.0207.58904-.29181,1.33641-.50048,1.54915-1.12247.15239-.44555-.00327-.90386-.05492-1.05263-.06087-.17535-.26492-.76311-.76338-.9268-.30716-.10087-.60059.00051-.76659.06719-1.23517.49615-2.01234,1.72145-3.17092,2.43281-1.04455.64136-2.5744.97256-3.03125.4375-.41246-.48306.12834-1.58004.65625-2.625.69277-1.37128,1.33922-2.11981,2.42106-3.49418,2.56183-3.25459,2.80481-3.97121,2.91791-4.60629.0768-.43127.29961-1.79218-.43668-3.0399-.20551-.34825-.44383-.75211-.90459-.97744-1.26173-.61703-2.98375.69536-3.80264,1.31945-.00008.00006-1.58199,1.20567-2.51346,3.35911-.29816.68931-.40662,1.2163-.24409,1.7205Z"/>
   <path class="b"
         d="m3.03102,18.94561c-.09322.05202-.34413.1887-.36082.39825-.02026.25435.31636.4679.38255.5099.41754.26489.89235.21809,1.02985.20249,2.45074-.27789,6.47006-1.60871,6.47006-1.60871.44255-.14654,1.20729-.38982,1.59384-.03128.24021.2228.2409.59127.24115.7374.0007.38617-.13908.88918-.85268,1.6539-.75885.81321-2.08894,1.83916-2.75223,2.5046-.0891.08939-.2739.28251-.22916.46215.04274.17159.23901.25179.41309.28296.77252.13831,1.81531-.41979,2.2011-.65525,1.14784-.70057,1.72177-1.05086,2.41623-1.73576.93306-.9202,2.63156-2.59531,2.36928-4.4313-.03401-.23812-.1228-.8055-.56467-1.24819-.46107-.46193-1.05133-.53236-1.77448-.61866-.99097-.11826-1.77228.06434-2.11581.16062-.91077.25525-.83324.48918-1.49718.65907-1.46564.37501-2.13109-.69135-3.28267-.26706-.64406.2373-.30356.5221-1.48018,1.3926-1.46881,1.08668-2.20322,1.63001-2.20728,1.63228Z"/>

</g>
</svg>
