<?xml version="1.0" encoding="UTF-8"?>
<svg xmlns="http://www.w3.org/2000/svg"
     version="1.1"
     width="35.16002962mm"
     height="36.04640856mm"
     viewBox="0.00000000 0.00000000 99.66621123 102.17889353">

<g transform="scale(7.65175192)">   <defs>
      <style type="text/css"><![CDATA[
      .a {
        stroke: #000;
        stroke-linecap: round;
        stroke-linejoin: round;
        stroke-width: 0.01px;
      }
    ]]></style>
   </defs>
   <path class="a"
         d="M4.9764.18671a.57923.57923,0,0,0-.1696.2665,2.401,2.401,0,0,1-.37553.75712c-.09085.11508-.103.212-.07268.48455a1.85638,1.85638,0,0,0,.06663.3937,4.72659,4.72659,0,0,1,.0424,1.45366c-.03029.1817-.07874,1.11447-.0848,1.56874a.80576.80576,0,0,0,.06663.3513.223.223,0,0,1-.03029.2665.79029.79029,0,0,0-.09691.36341c0,.40582-.17565.56935-.6602.61781a2.67,2.67,0,0,0-.3513.04845c-.11509.03635-.62387-.33313-.66021-.48455-.0424-.16353-.38764-.32707-.7026-.33313a6.68013,6.68013,0,0,0-1.22955.07268c-.03634.03635-.05451.12114-.0848.48456a4.6376,4.6376,0,0,1-.29679.36341c-.32707.3513-.321.33919-.32707,1.07813a1.86262,1.86262,0,0,0,.18171.94488,3.7743,3.7743,0,0,1,.2241.79346,1.76119,1.76119,0,0,0,.07874.41792,1.71414,1.71414,0,0,0,.62992.3513c.30285.11508.59358.3937.59358.58147a.91179.91179,0,0,0,.41187.43,1.41581,1.41581,0,0,0,.16354.02422,1.486,1.486,0,0,1,.73894.36948.93543.93543,0,0,0,.37553.24833,2.43792,2.43792,0,0,1,.642.44215c.41793.40582,1.24772.70261,1.5324.55118.103-.05451.15748-.03634.30284.0848a.56361.56361,0,0,0,.60569.09691.45835.45835,0,0,1,.30285.02423,1.93475,1.93475,0,0,0,.73894.02423,7.67637,7.67637,0,0,1,.98125-.01811,1.59152,1.59152,0,0,0,.57541-.03028,2.3964,2.3964,0,0,1,.53906-.0848,3.094,3.094,0,0,0,.75712-.16353c.1817-.07269.38158-.15143.45427-.18171a.62468.62468,0,0,1,.28467-.01817c.12114.02423.16354.00606.16354-.06663a.3321.3321,0,0,1,.109-.19988,2.59772,2.59772,0,0,1,.70866-.56329,2.9593,2.9593,0,0,0,.87219-.88431,1.5995,1.5995,0,0,0-.06056-.93276c-.09692-.41187-.18171-.54512-.3937-.636a.78016.78016,0,0,0-.8298.13326c-.29679.2665-.39976.40581-.40581.50878a.55841.55841,0,0,1-.12114.25439.58482.58482,0,0,0-.12114.29678c0,.27257-.218.51484-.642.72078a3.92113,3.92113,0,0,1-.50273.19988,1.82217,1.82217,0,0,0-.38764.15142.86456.86456,0,0,1-.533.109,1.42923,1.42923,0,0,0-.751.13931.91377.91377,0,0,1-.43-.06662,4.00223,4.00223,0,0,0-.4785-.13931.40387.40387,0,0,1-.36947-.38765,1.152,1.152,0,0,0-.34524-.636c-.06057-.06057-.09086-.13931-.06663-.17565s-.02423-.11508-.103-.17565c-.12719-.09086-.14536-.16354-.15748-.58147a13.74249,13.74249,0,0,0-.103-1.702.23067.23067,0,0,1,.0848-.25439c.103-.103.109-.14536.06057-.24833-.09691-.17565.03634-.35736.43-.56329a5.41874,5.41874,0,0,0,.533-.315.789.789,0,0,1,.321-.14537.77107.77107,0,0,0,.32707-.212.70687.70687,0,0,1,.32707-.212c.13325,0,.25439-.1696.35736-.49667a.78052.78052,0,0,1,.16354-.29073.31587.31587,0,0,0,.08479-.18171.67436.67436,0,0,1,.15748-.29679c.23016-.27256.1696-.533-.17565-.75711-.24831-.1695-.26043-.1695-.50876-.07863a.50847.50847,0,0,1-.4361.02423c-.16353-.06057-.24227-.0424-.64809.12114a1.695,1.695,0,0,1-.54512.15748.724.724,0,0,1-.2665-.48456,2.08513,2.08513,0,0,0-.0848-.33918.773.773,0,0,1-.02423-.48456,4.71333,4.71333,0,0,0,.0848-.73894c.00606-.2665.02423-.52695.03029-.57541A6.01107,6.01107,0,0,0,5.96973.24122C5.81831.01106,5.80619.005,5.47912.005,5.18839.01106,5.11573.03528,4.9764.18671ZM4.44945,8.2a.88689.88689,0,0,1-.109.49061,1.96925,1.96925,0,0,0-.07272,1.0115c.05451.09691-.14537.50878-.27862.5633-.12114.04239-.44215-.28468-.49667-.50878a.43716.43716,0,0,0-.13325-.22411,2.81816,2.81816,0,0,1-.48455-.88431c-.18777-.41793-.03634-.64809.33919-.527A1.35359,1.35359,0,0,0,3.80741,8.097C4.2314,8.02435,4.43733,8.05463,4.44945,8.2Z"/>
   <path class="a"
         d="M6.56331,7.879a.06513.06513,0,0,0,.06057.06057A.06069.06069,0,0,0,6.68444,7.879a.05722.05722,0,0,0-.05366-.06057h-.0069A.06069.06069,0,0,0,6.56331,7.879Z"/>

</g>
</svg>
