<?xml version="1.0" encoding="UTF-8"?>
<svg xmlns="http://www.w3.org/2000/svg"
     version="1.1"
     width="24.53260173mm"
     height="22.89783173mm"
     viewBox="0.00000000 0.00000000 69.54127231 64.90722619">

<g transform="scale(6.27936546)">   <defs>
      <style type="text/css"><![CDATA[
      .b {
        stroke: #000;
        stroke-miterlimit: 10;
        stroke-width: .15px;
      }
    ]]></style>
   </defs>
   <path class="b"
         d="m7.51596.13283c1.02316.16912,1.77988.6264,2.19656.8782.46753.28253.62741.45413.69672.53394.43045.4957.5369,1.1011.57546,1.77536.14432,2.5228-.81918,3.25717-.43749,4.59375.05124.17938.21973.69547-.03125,1.03125-.10825.14484-.26151.21194-.5625.34375-.44705.19577-.52158.1199-.84561.27945-.41153.20261-.4093.38306-.74075.50079-.35019.12439-.67004.03574-.81989.00101-1.26553-.29333-2.37814.48517-4.375.06251-1.2561-.26588-1.87543-.79823-2.56927-.84666-.04996-.00348-.23288-.01373-.341-.14301-.16132-.19287-.10965-.595.09698-.83981.25104-.29745.53806-.13422.78204-.42052.22781-.26734.03802-.48051.28125-.81251.17099-.2334.30103-.17755.62027-.47562.2659-.24826.27509-.37979.45172-.57343.41772-.45789,1.0799-.50436,1.20926-.51345.79407-.05576,1.06918.4363,1.86572.27471.38821-.07877.46661-.22482.48691-.27097.11816-.26865-.19785-.63989-.32139-.785-.72796-.85516-1.87872-.98111-2.34542-1.0257-.60272-.05756-.94174-.08994-1.16544.13391-.40207.40237.07495,1.1257-.33405,1.55066-.29837.31-.92303.31039-1.31134.05988C.05102,5.10505.06747,4.37144.07846,3.88283c.005-.22233.02307-.74708.34375-1.28126.26581-.44278.63434-.7168,1.28125-1.0625C3.23691.71961,4.59976.42444,4.95346.35157,6.09115.11722,6.68344-.00482,7.51596.13283Z"/>

</g>
</svg>
