<?xml version="1.0" encoding="UTF-8"?>
<svg xmlns="http://www.w3.org/2000/svg"
     version="1.1"
     width="64.66417023mm"
     height="27.74965656mm"
     viewBox="0.00000000 0.00000000 183.30001461 78.66047999">

<g transform="scale(5.74516346)">   <defs>
      <style type="text/css"><![CDATA[
      .a {
        stroke: #000;
        stroke-miterlimit: 10;
        stroke-width: 0.15px;
      }
    ]]></style>
   </defs>
   <path class="a"
         d="M6.42807,1.61018c-.81978,1.02528-1.00479.92241-2.5851,2.74469A18.021,18.021,0,0,0,1.577,7.291,13.83692,13.83692,0,0,0,.52382,9.68465,6.55234,6.55234,0,0,0,.077,11.823a1.79532,1.79532,0,0,0,.28723,1.27659,1.48487,1.48487,0,0,0,.92554.51064c.27412.03114.36793-.04886,1.14892-.28723a8.72,8.72,0,0,0,1.08512-.31916,3.17758,3.17758,0,0,0,1.0851-.89361c.43493-.57555.44079-1.03261.766-1.0851.24743-.04.38.20277.60638.12765.17371-.05764.24584-.26262.383-.67021.41107-1.22163.42876-1.30729.383-1.46808a1.10194,1.10194,0,0,0-.6383-.734c-.30661-.10326-.46947.06731-.67022-.06383A.775.775,0,0,1,5.343,7.16337c.15669-.1389.39356-.10268.734-.03191a8.51191,8.51191,0,0,1,1.75531.47872,12.84285,12.84285,0,0,0,2.39363.70213,7.21114,7.21114,0,0,0,2.68085.28723c.46785-.059.49257-.12872,1.46808-.28723a2.88382,2.88382,0,0,0,.95744-.25533,1.56858,1.56858,0,0,0,.734-.63829c.045-.08979.23319-.49981-.12767-1.37234a5.02526,5.02526,0,0,0-1.56382-1.94681,13.55879,13.55879,0,0,0-4.02127-2.39361,1.10609,1.10609,0,0,1-.57448-.28724c-.2363-.23906-.1346-.4598-.35106-.734a1.46643,1.46643,0,0,0-1.117-.60638C8.10278.09664,7.939.189,7.51318.557A7.51012,7.51012,0,0,0,6.42807,1.61018Z"/>
   <path class="a"
         d="M16.32169,8.91869a2.24269,2.24269,0,0,1-1.02128.09575,1.81942,1.81942,0,0,1-.734-.28724c-.32217-.22283-.39672-.45485-.766-1.14893-.70825-1.33137-.94291-1.43451-1.08511-1.46809-.29858-.07053-.48038.09684-.76594-.06383-.22875-.12871-.4204-.40956-.35108-.57446.09-.21407.56218-.09572,1.117-.15958,1.03813-.11949,1.10625-.732,2.52129-1.30852A6.2428,6.2428,0,0,1,17.08765,3.557a6.679,6.679,0,0,1,1.62765.09575,27.322,27.322,0,0,0,4.05319-.06382c1.58062-.07788,2.37091-.11683,3.06383-.22341,1.73039-.26617,2.93608-.54254,2.93617-.54255.71863-.16472,1.9484-.47069,2.59742-.01583a1.22921,1.22921,0,0,1,.33876.36688,1.46184,1.46184,0,0,1,.06382,1.02129,10.8614,10.8614,0,0,1-.41488,2.20212,4.82714,4.82714,0,0,1-.766,1.18086,10.646,10.646,0,0,1-1.46808,1.18085c-.87458.73683-.83124.98723-1.6915,1.62765-.44521.33144-1.12784.82942-1.5.60639a2.29028,2.29028,0,0,1-.383-.67021c-.26024-.53367-.25992-.61882-.25531-.67022.03607-.40223.4984-.55944.44681-.734-.05606-.18974-.65023-.16687-.95746-.15957-.194.00461-.96976-.03948-2.52127-.12766-1.00861-.05732-.96518-.13006-2.3617-.2234a8.1622,8.1622,0,0,0-1.62767-.03192C17.86,8.446,17.76144,8.52691,16.32169,8.91869Z"/>

</g>
</svg>
