<?xml version="1.0" encoding="UTF-8"?>
<svg xmlns="http://www.w3.org/2000/svg"
     version="1.1"
     width="21.16499448mm"
     height="67.87328670mm"
     viewBox="0.00000000 0.00000000 59.99530646 192.39674009">

<g transform="scale(5.79224922)">   <defs>
      <style type="text/css"><![CDATA[
      .cls-1 {
        stroke: #000;
        stroke-miterlimit: 10;
        stroke-width: .15px;
      }
    ]]></style>
   </defs>
   <path class="cls-1"
         d="M.62166,4.9114c-.00128-.16901-.00925-.42053-.04257-.72342-.02414-.21933-.06799-.52362-.27658-1.40424C.10368,1.94436,.04353,1.79879,.08974,1.48587c.02356-.15952,.09161-.58145,.40427-.78723,.09494-.06249,.10971-.03745,.29785-.12766,.35492-.1702,.42636-.31885,.63831-.42554,.1886-.09494,.40234-.07748,.8298-.04254,.48495,.03964,.79517,.06497,1.12766,.27658,.30441,.19373,.46793,.44202,.55319,.57446,.17328,.26917,.22827,.49149,.34042,.93619,.33255,1.31873,.25879,.9892,.31915,1.25531,.20218,.89139,.30328,1.3371,.36169,1.65958,.07697,.42496,.16562,.98801,.23404,1.65958-.05911,.03476-.15134,.10052-.21277,.21277-.13522,.24704-.02185,.53726,.04254,.70212,.08792,.2251,.19754,.3587,.27661,.46808,.31842,.44049,.42953,.88687,.51065,1.21277,.12994,.52197,.07404,.93933,.04254,1.23404-.11679,1.09308,.00748,2.19861,0,3.29788-.0108,1.59012-.01654,2.38516,.02127,2.89362,.14041,1.88892,.45834,2.42853,.53192,4.48935,.01471,.41226,.01086,.63943,.04254,1.21277,.04507,.81607,.11188,1.42795,.25534,2.61703,.37793,3.13242,.21829,1.44781,.36169,2.63831,.02246,.18634,.06424,.54144,.1915,1,.1185,.42703,.2179,.60724,.36169,.97873,.37454,.96759,.64362,1.66266,.42554,2.34042-.0271,.08417-.1528,.32562-.40427,.8085-.15067,.28934-.21906,.40976-.36169,.46808-.17822,.07288-.30582-.01617-.57446-.04254-.18173-.01785-.44797-.00897-.78723,.12766-.1994-.29129-.37003-.5228-.48938-.68085-.32697-.43298-.44873-.5527-.44681-.76596,.00204-.22845,.1431-.23965,.1915-.55319,.02307-.14954-.00302-.18582-.08511-.70212-.08105-.50964-.08508-.65955-.1915-.70215-.1254-.0502-.23029,.11368-.40424,.06384-.1492-.04276-.22366-.20679-.25534-.27661-.15372-.33871,.07574-.5083-.06381-.82977-.08682-.20004-.26727-.34534-.34042-.40427-.1358-.10938-.19095-.10947-.27661-.1915-.19177-.18362-.79938-2.38632-.42554-2.8085,.08911-.10062,.2052-.16125,.31915-.36169,.03793-.06671,.1405-.26303,.14896-.51065,.01007-.29456-.13049-.48669-.23404-.72339-.32739-.74838-.09552-1.64819-.0213-1.93619,.10559-.40976,.22687-.55533,.12769-.72339-.16974-.2876-.68109-.12579-.89365-.44681-.1077-.16266-.05011-.32507-.02127-.65958,.00455-.05273-.01218,.13324-.02127-1.29788-.01294-2.03513,.02158-2.29193-.02127-3.04254-.01498-.26242-.08786-.84869-.23404-2.02127-.34213-2.74457-.57303-4.14578-.5556-4.81281,.00055-.02121,.00705-.25937-.04016-.57019-.04611-.30365-.06659-.50461-.21274-.68085-.14868-.17929-.27988-.17712-.36172-.36169-.03278-.07391-.0484-.15692,0-.59576,.03189-.28922,.05188-.37274,.06384-.48935,.02081-.20273,.01654-.49631-.10638-.87234l-.44681-.25531Z"/>
   <path class="cls-1"
         d="M7.19612,13.69863c-.14572-.13019-.47491-.42435-.85107-.61703-.39841-.2041-.48627-.10831-1.19147-.38297-.51312-.19986-.60709-.30527-.65958-.38297-.22757-.33688-.1012-.78308-.06384-.91492,.02051-.07236,.08524-.27969,.383-.65958,.35889-.45786,.85004-1.08447,1.44681-1.06381,.19092,.00662,.20563,.073,.42551,.06381,.37286-.01556,.5061-.21381,.8298-.27658,.06125-.01187,.17505-.02777,.76596,.12766,.7486,.1969,1.12292,.29535,1.34042,.51065,.18588,.18399,.25867,.39218,.40424,.8085,.18796,.53763,.33365,.95432,.21277,1.44681-.11819,.48154-.42828,.77899-.68085,1.02127-.44055,.42261-.88721,.57861-1.12766,.65958-.39426,.13275-.56619,.10245-.63831,.08511-.23431-.0563-.34119-.19809-.59573-.42554Z"/>

</g>
</svg>
