<?xml version="1.0" encoding="UTF-8"?>
<svg xmlns="http://www.w3.org/2000/svg"
     version="1.1"
     width="25.29097559mm"
     height="30.89538483mm"
     viewBox="0.00000000 0.00000000 71.69102375 87.57748203">

<g transform="scale(5.79267105)">   <defs>
      <style type="text/css"><![CDATA[
      .b {
        fill-rule: evenodd;
        stroke: #000;
        stroke-miterlimit: 10;
        stroke-width: .15px;
      }
    ]]></style>
   </defs>
   <path class="b"
         d="M1.77204,14.60367c.2002-.2011,.4004-.4023,.60061-.6035,.67279-2.27191,2.81249-4.895,6.85059-7.9726,.2802-.3618,.7207-.7246,1.3222-1.0869,.1006,.12059,.20021,.2417,.3008,.3623,1.3857-.4248,1.5039-.001,1.44241,.5439-.14551,.79-.71681,.9341-1.20221,1.2075-2.1425,2.2188-4.374,4.2417-6.1894,6.4624-.1807,.4834-.3613,.9668-.541,1.4492-1.1026,.1221-2.126,.1631-2.584-.3623h0ZM.08944,12.30877C3.37065,6.24487,6.42244,2.32926,9.22324,.77367c.6005-.7246,1.041-.8853,1.3222-.48341,.1397-.06059,.2803-.12059,.4209-.18119,.24031,.3628,.4805,.7246,.7207,1.0869-.3808,.4234-.8418,.6851-1.3818,.7852-2.544,2.8989-5.0879,5.7983-7.6318,8.6972-1.1426,1.46-2.084,2.2647-2.584,1.6304H.08944Z"/>

</g>
</svg>
