<?xml version="1.0" encoding="UTF-8"?>
<svg xmlns="http://www.w3.org/2000/svg"
     version="1.1"
     width="73.88685042mm"
     height="24.80606580mm"
     viewBox="0.00000000 0.00000000 209.44309788 70.31641141">

<g transform="scale(5.59901992)">   <defs>
      <style type="text/css"><![CDATA[
      .a {
        stroke: #000;
        stroke-miterlimit: 2.61313;
        stroke-width: 0.28346px;
      }
    ]]></style>
   </defs>
   <path class="a"
         d="M.499,5.97363A52.74071,52.74071,0,0,1,13.76367.78516c1.82617-.73145,4.41992-.70361,7.123-.56738q-.53027.48633-1.06348.97266a3.26724,3.26724,0,0,1-3.02979,1.05371,31.1909,31.1909,0,0,0-6.05908,1.54053Q8.44043,4.39258,10.0791,5.001c7.57129.20166,15.25391.38916,21.04395.81055,3.68359-.39893,5.94922-.00732,6.14062,1.54053q-.57422,3.1604-4.749,5.02686-.20361-.3252-.40918-.64941a2.51108,2.51108,0,0,0-.7373-2.6748c-4.98828-1.76758-10.81543-2.2876-17.11279-2.1084a43.17085,43.17085,0,0,1-7.61523.08105C1.917,7.62207-.894,7.541.499,5.97363Z"/>

</g>
</svg>
