<?xml version="1.0" encoding="UTF-8"?>
<svg xmlns="http://www.w3.org/2000/svg"
     version="1.1"
     width="39.27994268mm"
     height="34.87547016mm"
     viewBox="0.00000000 0.00000000 111.34470358 98.85962963">

<g transform="scale(6.27936546)">   <defs>
      <style type="text/css"><![CDATA[
      .b {
        stroke: #000;
        stroke-miterlimit: 10;
        stroke-width: .15px;
      }
    ]]></style>
   </defs>
   <path class="b"
         d="m13.89829,4.07501c-.12954.98526-.39415,1.70093-.56249,2.15626-1.23245,3.33336-2.99994,5.03118-2.99994,5.03118-1.02179.98151-1.92154,1.44156-3.62506,2.31256-1.44577.73923-2.28735.97058-3.15625,1-.64597.02185-1.68051.05688-2.25-.59374-.2435-.27824-.41605-.69789-.5625-.65626-.09592.02725-.07886.22354-.25473.70224-.06775.18442-.08463.19437-.15524.37408-.16519.4205-.29636.75439-.24628.92368.12189.41208,1.45297.30591,2.84375.28126,2.89474-.05131,3.4711.29632,4.65625-.25.26816-.12361.44653-.23725,1.60577-1.20384,3.99924-3.33459,5.14813-4.71048,5.59479-5.26416.48996-.60736.74982-.92947,1.08228-1.44769,1.61697-2.52045,2.26935-5.49915,1.40465-6.80307-.09227-.13916-.37185-.56076-.75-.5625-.2911-.00134-.49303.24683-.78124.59375-1.41077,1.69818-1.61093,1.81729-1.75,2.375-.09552.38312-.00122.32742-.09376,1.03125Z"/>

</g>
</svg>
