<?xml version="1.0" encoding="UTF-8"?>
<svg xmlns="http://www.w3.org/2000/svg"
     version="1.1"
     width="84.54364630mm"
     height="96.82564350mm"
     viewBox="0.00000000 0.00000000 239.65131723 274.46642817">

<g transform="scale(4.96730009)">   <defs>
      <style type="text/css"><![CDATA[
      .a {
        stroke: #000;
        stroke-linecap: round;
        stroke-linejoin: round;
        stroke-width: 0.01px;
      }
    ]]></style>
   </defs>
   <path class="a"
         d="M39.93488.0898a1.97728,1.97728,0,0,1-.80557.39975.17809.17809,0,0,0-.15743.09086,1.42086,1.42086,0,0,1-.33313.3089,4.32728,4.32728,0,0,0-.62992.62386c-.18777.21805-.43.51484-.55119.65415a2.8602,2.8602,0,0,0-.35736.59357,2.30431,2.30431,0,0,1-.33313.533A5.9065,5.9065,0,0,0,35.58,5.09279a5.7309,5.7309,0,0,0-.62388,1.49606c.02424.12114-.01817.19988-.19987.38764a1.939,1.939,0,0,0-.44822,1.175,3.80012,3.80012,0,0,1-.04845.51484A11.22159,11.22159,0,0,1,33.987,9.82926a2.5294,2.5294,0,0,0-.09691.41792,1.3945,1.3945,0,0,1-.1272.40582.30716.30716,0,0,0-.06057.23016.27469.27469,0,0,1-.15142.33313c-.09085.04846-.15142.01817-.32706-.16959-.35737-.38159-.37554-.40582-.44217-.533a2.58466,2.58466,0,0,0-.3089-.3937,1.97448,1.97448,0,0,1-.35129-.54512,1.482,1.482,0,0,0-.18171-.3513.2912.2912,0,0,1-.07874-.1696,2.71378,2.71378,0,0,0-.212-.51483c-.15142-.30285-.26045-.44216-.38158-.48456-.18777-.07268-.25439-.15748-.25439-.33313a.51624.51624,0,0,0-.15748-.27256,2.32479,2.32479,0,0,1-.32708-.44821,3.85373,3.85373,0,0,0-.527-.642,3.303,3.303,0,0,1-.44821-.5209,1.31889,1.31889,0,0,0-.57542-.41187,2.32049,2.32049,0,0,1-.65414-.44215,2.1171,2.1171,0,0,0-1.00544-.527,1.56765,1.56765,0,0,1-.94488-.61781,2.72739,2.72739,0,0,0-.50272-.49666,8.42327,8.42327,0,0,0-2.37431-1.19927c-.50878-.15748-.61175-.17565-.854-.12114a.6505.6505,0,0,0-.41793.27256,2.8113,2.8113,0,0,1-.29073.33919c-.11508.11508-.1272.16354-.07269.2665.09691.17565.0848.23622-.06662.38765a2.88156,2.88156,0,0,0-.533.81768c0,.0424.06663.12114.14537.16959a.712.712,0,0,1,.218.27862,1.50447,1.50447,0,0,0,.27862.38764c.1696.18171.19988.24228.17565.4361a3.12707,3.12707,0,0,0-.03028.321c0,.04845,0,.25439.00606.45426a1.3059,1.3059,0,0,0,.05451.44822.21318.21318,0,0,1-.00606.19987.28183.28183,0,0,0,.02423.27256.511.511,0,0,1,.03034.38162,1.70944,1.70944,0,0,0-.05451.315c0,.06057.00606.15748.00606.212,0,.06057,0,.20594.006.321s0,.23622,0,.27256c-.006.03028-.01817.24227-.03028.46638-.00606.29679-.0424.43-.109.48455a.61839.61839,0,0,0-.1272.33919.5542.5542,0,0,1-.12719.33313.91219.91219,0,0,0-.09086.71472.31816.31816,0,0,1-.06057.27256,2.5403,2.5403,0,0,0-.27862,1.14475,3.73947,3.73947,0,0,1-.09085.49667,2.76947,2.76947,0,0,0-.06057.45427,4.75144,4.75144,0,0,1-.11508,1.15687.55806.55806,0,0,0-.03028.3089.57872.57872,0,0,1-.0424.3089,1.73341,1.73341,0,0,0-.0848.3089c-.01817.15143-.20593.44822-.27862.44822-.03028,0-.03634.04239-.01817.09085a.50669.50669,0,0,1-.09085.3089.46037.46037,0,0,0-.09691.27256c.0424.06057-.07268.29679-.18171.38764a1.92605,1.92605,0,0,0-.212.51484,6.22777,6.22777,0,0,1-.25439.67838.67287.67287,0,0,0-.0848.23016c.01817,0-.02423.11508-.08479.26045a1.08591,1.08591,0,0,0-.09086.55723c.03029.3513-.05451.61781-.21805.66626-.17565.05451-.23016.212-.212.59964.01211.28467-.01211.37552-.09691.46032a.46172.46172,0,0,0-.12114.3089,1.66039,1.66039,0,0,1-.12719.4785,1.70523,1.70523,0,0,0-.13931.57541c-.03029.56329-.27862,1.30223-.44216,1.30223-.07268,0-.17565.28468-.212.56935a.54292.54292,0,0,1-.08479.27256.79669.79669,0,0,0-.15143.26045c-.05451.12719-.12719.23016-.15748.23016-.03634,0-.103.07874-.15748.18171-.05451.09691-.07874.18171-.06057.18171a.98261.98261,0,0,1-.15142.321,1.48162,1.48162,0,0,0-.18171.50878.79709.79709,0,0,1-.212.44821,1.05549,1.05549,0,0,0-.212.36948,3.51973,3.51973,0,0,1-.34524.86613,4.48717,4.48717,0,0,1-.38765.69655.38072.38072,0,0,0-.04239.212.91257.91257,0,0,1-.09691.38159.59884.59884,0,0,0-.0848.27256.38272.38272,0,0,1-.18171.36947c-.109.03634-.2241.24227-.57541,1.00545a2.55748,2.55748,0,0,1-.321.55117,2.23571,2.23571,0,0,1-.92065.44216c-.18171.00606-.24834.04845-.38159.24833a.55277.55277,0,0,0-.13325.315c.01817.0424-.15142.26649-.36947.4906a2.37187,2.37187,0,0,0-.75106.99334c-.13325.29679-.23622.43-.35736.48455a.74377.74377,0,0,0-.46638.82979c.07269.32708.09691.36947.20594.36947a.3509.3509,0,0,1,.2241.11509.70574.70574,0,0,0,.27256.15142.4434.4434,0,0,1,.21845.58778q-.00846.01847-.01857.03608c-.05451.07874-.12114.13931-.15142.13931a1.00338,1.00338,0,0,0-.24833.33919,1.57632,1.57632,0,0,1-.26651.36947,4.01067,4.01067,0,0,0-.45427.78134,3.6525,3.6525,0,0,1-.52089.848,2.73906,2.73906,0,0,0-.41793.67837,6.84,6.84,0,0,1-.43.77529c-.07874.103-.12719.20593-.103.2241a2.80928,2.80928,0,0,1-.46638.84191.69613.69613,0,0,0-.13931.28468,1.68774,1.68774,0,0,1-.36947.50878,1.28842,1.28842,0,0,0-.33918.46032.40055.40055,0,0,1-.24834.40581.77373.77373,0,0,0-.30284.38765c-.07269.16353-.17565.315-.24228.33313a.24276.24276,0,0,0-.13931.13931,1.59053,1.59053,0,0,1-.33919.36341,1.03577,1.03577,0,0,0-.30284.36342.4491.4491,0,0,1-.0848.2241,2.45454,2.45454,0,0,0-.18171.43,1.68962,1.68962,0,0,1-.41792.636,1.72849,1.72849,0,0,0-.527.83585,1.569,1.569,0,0,1-.16354.41793c-.11508.2241-.20594.32707-.315.35736-.18776.04239-.321.16959-.46032.44821a1.44916,1.44916,0,0,1-.5209.62993c-.06057.02422-.11508.07874-.11508.12719a1.20657,1.20657,0,0,1-.29679.56935c-.03028,0-.07268.06663-.09085.15142a1.533,1.533,0,0,1-.3089.43,1.07712,1.07712,0,0,0-.27257.35736.269.269,0,0,1-.08479.16354.754.754,0,0,0-.12114.218,1.48242,1.48242,0,0,1-.27862.38158,1.22512,1.22512,0,0,0-.2665.424A.22732.22732,0,0,1,1.861,51.519a.3639.3639,0,0,0-.218.25439,2.81054,2.81054,0,0,1-.52695.67232,2.09818,2.09818,0,0,0-.44821.5754.44976.44976,0,0,1-.15143.24834.4618.4618,0,0,0-.15142.25439c0,.15142-.06057.23016-.22411.321a.26023.26023,0,0,0-.02422.44216.59743.59743,0,0,1,.15748.315c.02422.12719.08479.23016.15142.24833a1.07816,1.07816,0,0,1,.27862.212.54749.54749,0,0,0,.49072.18165c.19987,0,.33313-.03028.36341-.0848a.65593.65593,0,0,1,.212-.16353,3.95333,3.95333,0,0,0,.957-1.07208,1.45731,1.45731,0,0,1,.212-.43,1.37948,1.37948,0,0,0,.212-.424A3.6379,3.6379,0,0,1,3.654,52.06414a.93773.93773,0,0,0,.28468-.51484,2.05566,2.05566,0,0,1,.44821-.87219,4.915,4.915,0,0,0,.321-.52695,1.95183,1.95183,0,0,1,.70261-.55724c.04239-.01211.04239-.05451,0-.13325-.05452-.09085-.02423-.19988.13931-.527a1.88518,1.88518,0,0,0,.20593-.58752.46811.46811,0,0,1,.12114-.29679,4.61767,4.61767,0,0,0,.5754-1.08419,1.45748,1.45748,0,0,1,.22411-.36341,1.01293,1.01293,0,0,0,.20594-.321.85555.85555,0,0,1,.16353-.27256,3.259,3.259,0,0,0,.30285-.41187,1.32558,1.32558,0,0,1,.28467-.34524c.03634,0,.103-.103.15143-.22411a.77766.77766,0,0,1,.218-.3089,2.91639,2.91639,0,0,0,.58752-.87825,2.34623,2.34623,0,0,1,.315-.46033,1.28385,1.28385,0,0,0,.26651-.39975,2.83879,2.83879,0,0,1,.527-.62992,3.7409,3.7409,0,0,0,.58752-.67232,1.47732,1.47732,0,0,1,.25439-.34525,4.88206,4.88206,0,0,0,.66626-1.12053,1.58124,1.58124,0,0,1,.24228-.41186c.12719-.18171.315-.44822.40581-.59358s.2665-.38764.38764-.54512a1.62089,1.62089,0,0,0,.25439-.45427c.02423-.09085.06663-.16353.09691-.16353a3.731,3.731,0,0,0,.49061-.957.99656.99656,0,0,1,.19987-.29679,4.47407,4.47407,0,0,0,.315-.46032.63482.63482,0,0,1,.218-.25439,1.94246,1.94246,0,0,1,.6178.212,2.77073,2.77073,0,0,0,.73895.24228.428.428,0,0,0,.45426-.38764.659.659,0,0,1,.36342-.49061.39993.39993,0,0,0,.18171-.24228c.03634-.11508.09085-.212.11508-.212a2.9325,2.9325,0,0,0,.29073-1.30224c.03634-.7874-.15142-1.21138-.4785-1.09024-.08479.03634-.29073-.109-.29073-.19988a.284.284,0,0,1,.24228-.22411c.19382-.03634.19988-.04845.02422-.27861a.45077.45077,0,0,1-.11508-.41793c.04846-.24833.19382-.54512.27256-.54512.03029,0,.109-.1272.18171-.28468a1.46009,1.46009,0,0,1,.1696-.321,3.57039,3.57039,0,0,0,.43609-.92065.30707.30707,0,0,1,.07874-.18171,3.05222,3.05222,0,0,0,.34525-.82374A3.35616,3.35616,0,0,1,18.021,27.57a.88882.88882,0,0,0,.212-.321,1.104,1.104,0,0,1,.19988-.35736,1.98494,1.98494,0,0,0,.27862-.49666.55613.55613,0,0,1,.11508-.22411,1.02048,1.02048,0,0,0,.20594-.29073,2.16331,2.16331,0,0,1,.28467-.39975.36266.36266,0,0,0,.1272-.18776.8456.8456,0,0,1,.14536-.2665,1.49581,1.49581,0,0,0,.212-.45427,1.36547,1.36547,0,0,1,.18777-.41187.61737.61737,0,0,0,.12114-.28468.41075.41075,0,0,1,.11508-.24227.73748.73748,0,0,0,.24833-.49061,1.78157,1.78157,0,0,1,.19382-.50273,1.83474,1.83474,0,0,0,.18171-.424,1.93379,1.93379,0,0,1,.13325-.48455,3.38338,3.38338,0,0,0,.25439-1.10842,1.516,1.516,0,0,1,.19988-.66626,1.81371,1.81371,0,0,0,.18776-.46032,1.05566,1.05566,0,0,1,.19988-.36342c.321-.43.40582-.58146.36947-.67837-.03634-.103.06057-.3089.23017-.50273.06662-.07268.109-.16959.09085-.212a2.13459,2.13459,0,0,1,.41793-.80557,2.97668,2.97668,0,0,0,.424-.92065c-.01817-.01817.00606-.109.04846-.19382a4.21109,4.21109,0,0,0,.36947-1.39914,1.46984,1.46984,0,0,1,.23016-.59964,1.15279,1.15279,0,0,0,.13931-.33313,4.759,4.759,0,0,1,.25439-.94488,1.43843,1.43843,0,0,0,.103-.49666,1.78232,1.78232,0,0,1,.08479-.51484,2.88881,2.88881,0,0,0,.11508-.61175,1.09855,1.09855,0,0,1,.07874-.38158,1.89847,1.89847,0,0,0,.11509-.40582c.09085-.48455.16959-.75711.24227-.79951a4.00271,4.00271,0,0,0,.1272-1.22349c-.00606-.23017.11508-.41187.27256-.41187a.50691.50691,0,0,1,.24227.15142.49627.49627,0,0,0,.23622.15142.5605.5605,0,0,1,.46033.315.74258.74258,0,0,0,.29072.29073c.29679.15143.8722.71472.8298.81769a.10182.10182,0,0,0,.05451.11508.90315.90315,0,0,1,.30286.69654c-.0303.13931,0,.19988.19382.37553a2.072,2.072,0,0,0,.49061.321c.13931.06056.25439.1393.25439.16959a1.1601,1.1601,0,0,0,.24227.29679.727.727,0,0,1,.24228.38764.18173.18173,0,0,0,.11508.18171.50937.50937,0,0,1,.212.26044,2.81446,2.81446,0,0,0,.24834.43c.1393.19382.14536.218.06057.3513-.09086.13325-.0848.14536.06056.212.0848.03634.15143.09085.15143.12114a.48024.48024,0,0,0,.12719.17565,2.042,2.042,0,0,1,.38159.79951.87836.87836,0,0,0,.2241.27256c.13326.13931.23017.27862.212.3089-.02422.03029.0424.19382.13326.3513.33918.5633.29679.7874-.25439,1.21138-.13326.109-.34525.28468-.46034.38765a1.83039,1.83039,0,0,1-.4058.27256c-.109.04845-.19989.109-.19989.13931a.30909.30909,0,0,1-.07267.13931,3.16327,3.16327,0,0,0-.2544.33918,1.92248,1.92248,0,0,1-.29678.34525.16926.16926,0,0,0-.08481.16959c.01817.05451-.05451.18776-.16959.321-.11508.12719-.19382.24833-.1817.27256a3.53668,3.53668,0,0,1-.33919.87825.48629.48629,0,0,0-.08479.212.4094.4094,0,0,1-.07269.16959c-.12719.09692-.07268.30891.13326.51484a.86544.86544,0,0,1,.212.27862c0,.07874.46638.29679.642.30285.25439,0,.73894.61174.62992.78739-.09085.14537-.07268.20594.12114.424.212.23622.20593.19988.08479.52089-.103.27862-.212.34525-.745.4785a2.93772,2.93772,0,0,0-.79345.27862,1.54978,1.54978,0,0,1-.315.17565.66863.66863,0,0,0-.321.24833c-.02422.06056-.06057.11507-.08479.11507a5.55087,5.55087,0,0,0-1.01151.93277,2.428,2.428,0,0,1-.60569.46639c-.13931.06662-.27862.16959-.29679.23622-.02422.06662-.06057.12113-.09085.12113a4.1645,4.1645,0,0,0-.65415.96911,1.62577,1.62577,0,0,1-.80557.75106c-.20593.109-.2665.16959-.2665.29073a.85165.85165,0,0,1-.109.315.469.469,0,0,0-.09691.23622,1.806,1.806,0,0,1-.36948.99333c-.08479.06057-.103.12719-.07874.33313a1.701,1.701,0,0,0,.0848.36342c.0424.07268.01211.15747-.11508.30284a1.48253,1.48253,0,0,0-.35736.80557c-.006.09691-.03028.27862-.04845.3937a2.16369,2.16369,0,0,0-.0424.36341.66957.66957,0,0,1-.06663.27256,2.62547,2.62547,0,0,0-.103,1.04785,1.07773,1.07773,0,0,1-.07873.52089c-.0848.1272-.07874.16354.08479.4785.15142.30285.16354.3513.07874.43a.56233.56233,0,0,0-.09085.321,4.18864,4.18864,0,0,1-.02423.47244c-.01817.13325-.05451.48455-.07874.78739a2.62111,2.62111,0,0,1-.12114.67838c-.06057.11508-.06057.16959.01817.32707a.45068.45068,0,0,1,.06663.27256.61673.61673,0,0,0,.06057.30284c.07874.19383.07874.23016,0,.35736a1.16791,1.16791,0,0,0-.07268.62991c.01211.41187,0,.51484-.09692.62388a.548.548,0,0,0-.109.315,1.55693,1.55693,0,0,1-.06057.39369.49342.49342,0,0,0-.00606.29679.65648.65648,0,0,1-.06662.39976,5.09927,5.09927,0,0,0-.16354.49061,1.50419,1.50419,0,0,1-.11508.3089.85555.85555,0,0,0-.03028.4361c.02422.24228.06056.315.1817.36947a.64523.64523,0,0,0,.92671-.41793.57607.57607,0,0,1,.50272-.424c.04846,0,.103-.06057.1272-.13931a2.10126,2.10126,0,0,1,.36341-.49667,3.06549,3.06549,0,0,0,.59964-.76317c.17565-.29679.19988-.47849.103-.6602a.228.228,0,0,1,.212-.30284.23215.23215,0,0,0,.15748-.13326.6808.6808,0,0,1,.12113-.16959,2.2405,2.2405,0,0,0,.03029-.89641.32673.32673,0,0,1,.04845-.28468c.07874-.12114.09086-.26045.06057-.79952a5.34183,5.34183,0,0,1,.00606-1.25984,10.93193,10.93193,0,0,0,.06057-2.31374c-.03028-.29679-.03634-.72077-.02423-1.805v-.48455a4.66029,4.66029,0,0,1,.38159-2.18654.36235.36235,0,0,0,.09691-.23622,2.32313,2.32313,0,0,1,.38764-.90854,2.38771,2.38771,0,0,0,.4361-.7874,1.835,1.835,0,0,1,.15748-.43c.103-.218.18776-.315.32707-.35736a2.206,2.206,0,0,0,.50878-.36341c.17565-.16959.41793-.3937.533-.50272a1.22471,1.22471,0,0,1,.36947-.23622,1.50169,1.50169,0,0,0,.3937-.18777,2.0302,2.0302,0,0,1,.81768-.29073,1.48447,1.48447,0,0,0,.46033-.16959c.25439-.15143.38764-.13931.41792.03634a.49388.49388,0,0,0,.11509.19988.21222.21222,0,0,1,.07268.20593,1.39632,1.39632,0,0,0-.11508.49061c.006.04846.01211.12114.01817.16354a.75606.75606,0,0,0,.18776.26045c.15143.15143.1696.20594.12114.30891a.572.572,0,0,0-.03028.315.386.386,0,0,1-.09086.36341c-.11508.14537-.12114.16959-.03634.25439.07268.07268.09085.19988.07874.50272a2.01521,2.01521,0,0,1-.06663.48456c-.02422.03634,0,.13325.04846.20593a.20313.20313,0,0,1,.02423.24834c-.0424.08479-.0424.13325.01211.16353.13325.0848.109.49667-.05451.81768a1.45338,1.45338,0,0,0-.16354.62992.63759.63759,0,0,1-.08479.36948c-.06057.03634-.06057.04845,0,.07268.04845.01211.07874.18171.08479.47244a1.92794,1.92794,0,0,0,.0848.59357c.07874.13931.04845.37553-.05451.37553-.0848,0-.06663.12114.0424.22411a.23459.23459,0,0,1,.05451.2241,2.27589,2.27589,0,0,0-.07874.87826.42754.42754,0,0,1-.01817.27256.27362.27362,0,0,0,0,.27256c.05451.09691.04845.16353-.01817.29679a1.37134,1.37134,0,0,0-.06057.94487c.06662.09691.06662.13931,0,.27257a.33894.33894,0,0,0-.02423.30284.65031.65031,0,0,1,.03634.24228.69354.69354,0,0,0,.06663.29073c.07268.17565.06662.218-.01817.3513-.07874.12114-.0848.19382-.03634.40581.03634.14537.09085.35736.12113.47244a4.662,4.662,0,0,1,.06656,1.02968,1.38837,1.38837,0,0,0,.26045.80557,1.81624,1.81624,0,0,0,1.08418.56934,2.82245,2.82245,0,0,0,1.12053-.48455,3.06092,3.06092,0,0,1,.60569-.33313,2.98277,2.98277,0,0,0,.4785-.20593.90889.90889,0,0,1,.33313-.13325,3.21569,3.21569,0,0,0,1.00545-.28468,2.73415,2.73415,0,0,1,.43609-.17565.05593.05593,0,0,0,.06039-.05109l.00018-.00342a1.46276,1.46276,0,0,1,.35736-.27256,1.41243,1.41243,0,0,1,.71472-.24834,15.80613,15.80613,0,0,0,2.22894-.48455c.72077-.218,1.00545-.23016,1.26589-.04845.218.14536.43.45426.35736.52695-.02423.01817.01817.09085.09085.16353.07874.06663.12114.15142.09691.18171a.818.818,0,0,0-.06056.19382,1.97338,1.97338,0,0,1-.636,1.387,1.461,1.461,0,0,1-.8722.50273,3.01582,3.01582,0,0,0-.963.33918,2.28441,2.28441,0,0,1-1.18716.26045,2.99834,2.99834,0,0,0-.57541.05451,9.162,9.162,0,0,1-1.60509.12114,19.21279,19.21279,0,0,0-3.616.09085.28106.28106,0,0,1-.28468.00605c-.12113-.0545-.17565-.0545-.24833.00607a4.76326,4.76326,0,0,1-1.22349.27256,4.33311,4.33311,0,0,0-1.44154.66019,2.54413,2.54413,0,0,1-.59964.27863,1.99122,1.99122,0,0,0-.45426.14537c-.18778.08479-.527.22409-.76317.30889a2.19685,2.19685,0,0,0-.58753.32707c-.0848.0848-.19382.18777-.24227.23017a1.92608,1.92608,0,0,0-.2241.26045,1.42073,1.42073,0,0,1-.4664.33312c-.35734.15748-.3937.19988-.48455.58753-.06663.27862-.06057.29073.09085.3937a.96722.96722,0,0,0,.75107.01816,1.27028,1.27028,0,0,0,.33313-.23622.97134.97134,0,0,1,.36342-.22409.48244.48244,0,0,0,.2241-.11509,1.2049,1.2049,0,0,1,.25439-.1696,2.20736,2.20736,0,0,0,.36342-.26044,1.76492,1.76492,0,0,1,1.10235-.44822,2.323,2.323,0,0,0,.98728-.23016.81071.81071,0,0,1,.56935-.01817c.315.06057.36341.05451.56329-.07268.18777-.11508.29073-.13325.76317-.12114a15.70684,15.70684,0,0,0,2.5439-.02423,4.809,4.809,0,0,1,.69655-.09691,3.48338,3.48338,0,0,0,.90854-.19382,2.694,2.694,0,0,1,1.12052-.18171c.55118-.006.70261-.03028.87826-.13325a2.42975,2.42975,0,0,1,.5754-.19988,5.53942,5.53942,0,0,0,.62992-.16353,1.4935,1.4935,0,0,1,.41793-.09085.93.93,0,0,0,.37553-.13931,1.52,1.52,0,0,1,.54512-.17566,3.22429,3.22429,0,0,0,.99939-.35734c.36947-.18171.73288-.36342.81768-.39977a9.31936,9.31936,0,0,0,1.25984-.80556,1.72159,1.72159,0,0,0,.51484-.79952,1.38362,1.38362,0,0,1,.18776-.4361.28743.28743,0,0,0,.09691-.17565,2.04279,2.04279,0,0,1,.17565-.43,4.48516,4.48516,0,0,0,.212-.527c.01817-.09085.06664-.16354.09691-.16354.03635,0,.06057-.06662.06057-.14536a1.45741,1.45741,0,0,1,.11508-.40582,1.94809,1.94809,0,0,0-.01817-1.278.50149.50149,0,0,1-.0969-.23622c0-.23017-.65414-.87826-.97516-.96305a.45364.45364,0,0,1-.30285-.19988,1.20672,1.20672,0,0,0-.73288-.41793c-.07874,0-.29073.00606-.47244,0-.18171,0-.37553,0-.424.00606a2.25922,2.25922,0,0,0-.71472.18171,1.54052,1.54052,0,0,1-.51484.07874.97867.97867,0,0,0-.66626.212,5.24887,5.24887,0,0,1-.62386.36342.98013.98013,0,0,0-.40581.30284.43465.43465,0,0,1-.3089.19988c-.13931.03634-.33313.09085-.4361.12114-.47244.15142-.55724.04845-.52695-.64808a3.62738,3.62738,0,0,1,.07874-.68444,3.38752,3.38752,0,0,0,.09691-.54512c.01817-.218.0424-.46032.04845-.54512a.83138.83138,0,0,1,.0848-.27863,3.05481,3.05481,0,0,0,.218-1.65959,10.87194,10.87194,0,0,0-.09086-1.39309,2.63726,2.63726,0,0,1-.05451-.51483,3.48266,3.48266,0,0,0-.33918-1.93215.694.694,0,0,1-.12114-.33313.64132.64132,0,0,0-.06057-.315,3.37786,3.37786,0,0,1-.14537-.53907,2.13723,2.13723,0,0,0-.08479-.36947c-.04846-.11508.12113-.321.212-.26044a4.48618,4.48618,0,0,0,.70866.06056,6.45655,6.45655,0,0,1,.92065.0848c.15142.03634.36947.09086.48455.12114s.35736.09691.53906.14537a2.21272,2.21272,0,0,0,.49061.09691,1.43919,1.43919,0,0,1,.44216.12113,2.33827,2.33827,0,0,0,.56935.15748c.15748.01817.35736.04241.44215.05452a1.61876,1.61876,0,0,1,1.25378.5754.64265.64265,0,0,0,.24228.23622c.07268.03634.13931.09086.13931.1272a2.76241,2.76241,0,0,0,.79951.75711,1.36782,1.36782,0,0,1,.56329.89037,3.72327,3.72327,0,0,0,.16354.40581,1.42116,1.42116,0,0,1,.14537.58146,2.49792,2.49792,0,0,0,.16959.89643.718.718,0,0,1,.06057.35735,5.42172,5.42172,0,0,0-.02423,1.32041c.02423,0,.0848.109.13325.23622.0848.218.0848.2544,0,.37553s-.08479.13931.01817.212c.09691.07268.13326.17565.18171.56935.00606.0848.04846.3089.0848.49061a1.81538,1.81538,0,0,1,0,.81161.32377.32377,0,0,0,.05451.19383c.06663.11509.06057.15142-.03634.24833-.09086.09085-.103.14537-.05451.2241a2.07348,2.07348,0,0,1,.07268,1.02968,5.084,5.084,0,0,0-.03633.70866,1.1963,1.1963,0,0,1-.02424.26045c-.01816.09691-.0424.26044-.0545.3513a.60256.60256,0,0,1-.103.26044,2.36313,2.36313,0,0,0-.00607,1.09025,2.31766,2.31766,0,0,1-.27861.97515.87861.87861,0,0,0-.07268.36342,2.193,2.193,0,0,1-.09086.5209.99562.99562,0,0,0,0,.67837c.09086.37553.09086.3937-.06057.67232-.15747.29679-.19987.60569-.0848.642.09691.03029.11509.58752.01817.67838a.13876.13876,0,0,0-.02422.16352.19118.19118,0,0,1-.03028.212c-.08481.13326-.06057.35131.0848.70866a.42053.42053,0,0,1-.01817.36947.356.356,0,0,0-.03029.28467.64466.64466,0,0,1,.05451.27863c0,.25439.109.4906.24834.533a.2462.2462,0,0,1,.14536.14537c.01816.07268.13325.13931.30284.18171a.5998.5998,0,0,1,.36342.212c.109.16959.315.25439.67837.29679a.40337.40337,0,0,0,.4361-.15142c.17566-.18171.29678-.50273.2241-.57541-.01817-.02423,0-.09691.04846-.17565a1.4101,1.4101,0,0,0,.13325-.45427,2.1336,2.1336,0,0,1,.12114-.49061,2.38324,2.38324,0,0,0,.12113-.636c.01818-.26045.05452-.58147.07874-.71472a2.19906,2.19906,0,0,0,.05452-.36341,3.45742,3.45742,0,0,0-.01212-.92065,10.68559,10.68559,0,0,1-.09691-1.39915.94805.94805,0,0,1,.09691-.33313,1.17962,1.17962,0,0,0,.097-.55714c0-.424,0-.46032.00606-.9267a3.94339,3.94339,0,0,0-.03634-.61781,2.54417,2.54417,0,0,1,.00606-.642c.03634-.27256.03028-.39976-.02423-.4785a.2357.2357,0,0,1-.01817-.25439,3.47943,3.47943,0,0,0,.05451-1.169c-.07874,0-.17565-.33919-.12114-.43a1.42162,1.42162,0,0,0,.06057-.84191.49839.49839,0,0,1,.00606-.40582,4.82271,4.82271,0,0,0,.01817-1.41731,20.978,20.978,0,0,1-.1696-2.50756,4.72439,4.72439,0,0,0-.11508-1.04179,1.46631,1.46631,0,0,1-.06057-.533,1.28682,1.28682,0,0,0-.04239-.47244,6.60933,6.60933,0,0,0-.96911-2.33191,1.63955,1.63955,0,0,1-.24833-.39976,1.8537,1.8537,0,0,0-.86008-.67837c-.13931-.07268-.40582-.23016-.58752-.3513a2.50774,2.50774,0,0,0-.57541-.28467,6.002,6.002,0,0,1-.58146-.212,1.99176,1.99176,0,0,0-.45427-.14536.94233.94233,0,0,1-.35736-.15143,2.18563,2.18563,0,0,0-.89642-.39369,7.21254,7.21254,0,0,1-1.6172-.51484,3.77881,3.77881,0,0,0-1.12052-.36947,2.55986,2.55986,0,0,1-.47244-.11508,1.29968,1.29968,0,0,0-.36947-.09086,1.78078,1.78078,0,0,1-.84191-.38158,1.70353,1.70353,0,0,1,.29073-.854c.33313-.5754.533-1.66565.33313-1.79284a.2447.2447,0,0,1-.09086-.16354.45354.45354,0,0,0-.06056-.19988.61187.61187,0,0,1-.04241-.28467,1.26514,1.26514,0,0,0-.40581-.848.848.848,0,0,1-.18776-.26045c0-.218-.64809-.72683-.9267-.72683a2.57777,2.57777,0,0,1-.7753-.73894,4.75439,4.75439,0,0,1,.08481-1.29618c.06056-.16353.07268-.27862.03028-.34524a.40145.40145,0,0,1,.006-.30288,1.5954,1.5954,0,0,0,.06057-.34524,4.022,4.022,0,0,1,.05451-.48455,6.27445,6.27445,0,0,0,0-1.36281,3.59748,3.59748,0,0,1,.02423-.44821,1.05965,1.05965,0,0,0-.02423-.46033c-.04845-.109-.03028-.218.07269-.49061.07268-.19987.17565-.46638.22409-.59963a1.66872,1.66872,0,0,0,.09086-.47244,2.69154,2.69154,0,0,1,.15142-.69654,4.69956,4.69956,0,0,0,.18171-.76923,2.8054,2.8054,0,0,1,.08479-.49061c.03029-.103.0848-.3513.12114-.54512.03029-.19382.09086-.5209.12114-.72077.03634-.19988.07268-.51484.0848-.69655a3.90625,3.90625,0,0,1,.533-1.39309c.04846-.0848.1272-.23622.18171-.33313a4.39032,4.39032,0,0,1,.59357-.93884,5.74006,5.74006,0,0,0,.44215-.64809,1.80324,1.80324,0,0,1,.37553-.48455c.0848-.06057.27862-.23016.4361-.37553s.44821-.39976.642-.57541c.19382-.16959.38764-.34524.424-.38764a2.35364,2.35364,0,0,1,.17565-.18171c.14536-.1393.12719-.27256-.06057-.49061C40.92826.01106,40.898.005,40.44974.005,40.11663.005,39.97127.02923,39.93488.0898ZM33.40557,18.38772c.26045.00606.81769.19988.81769.27862,0,.02423.09085.07268.20593.11508a.5086.5086,0,0,1,.33919.45427.56729.56729,0,0,0,.24228.424c.12113.03634.19382.18777.30284.61781a.8208.8208,0,0,0,.1272.321,1.68387,1.68387,0,0,1,.212.84191,2.86923,2.86923,0,0,0-.06057.29679.4425.4425,0,0,1-.07874.19988,2.88226,2.88226,0,0,1-1.5324.23622c-.09085-.05451-.12113-.35737-.0545-.533.103-.27256-.29679-.99939-.6602-1.19927a.98471.98471,0,0,1-.45427-.81162.77047.77047,0,0,0-.07874-.212,2.29721,2.29721,0,0,1-.03029-.83586c.01817-.12113.26651-.29073.35736-.24833A1.318,1.318,0,0,0,33.40557,18.38772Z"/>
   <path class="a"
         d="M42.40009,2.48833a.06513.06513,0,0,0,.06057.06057.06069.06069,0,0,0,.06056-.06057.05723.05723,0,0,0-.05366-.06057h-.0069A.06069.06069,0,0,0,42.40009,2.48833Z"/>

</g>
</svg>
