<?xml version="1.0" encoding="UTF-8"?>
<svg xmlns="http://www.w3.org/2000/svg"
     version="1.1"
     width="18.53755900mm"
     height="29.08731439mm"
     viewBox="0.00000000 0.00000000 52.54744631 82.45221285">

<g transform="scale(4.77539523)">   <defs>
      <style type="text/css"><![CDATA[
      .b {
        stroke: #000;
        stroke-miterlimit: 10;
        stroke-width: .15px;
      }
    ]]></style>
   </defs>
   <path class="b"
         d="m4.86476.40365c-1.29828.90604-1.93292,1.65637-2.74469,2.36172-1.26453,1.09872-1.48218.80515-1.78723,1.40424-.63535,1.2478.08191,2.96725.25534,3.383.01022.02448.26212.56952.76596,1.65958.31781.68759.48172,1.04099.44681,1.53189-.01703.23953-.06805.32401-.12769.8298-.05002.42441-.06766.81903-.06381.95746.02002.72217.81241,1.27676,1.53192,1.85104,2.33182,1.86108,2.51144,2.82169,3.63828,2.80853.14609-.00171.79904-.00934,1.27661-.44684.37738-.34573.29721-.64108.57446-1.02127.68011-.93259,2.27795-.68484,2.29788-.95743.01938-.26495-1.5123-.19626-2.23404-1.14896-.48898-.64548-.18652-1.20587-.31915-2.42551-.21494-1.97678-1.16766-1.95959-1.59576-3.95746-.33191-1.54901.22485-1.63373-.06381-4.14893-.12201-1.06311-.34167-2.84802-1.08511-3-.21072-.04309-.39368.05933-.76596.31912Z"/>

</g>
</svg>
