<?xml version="1.0" encoding="UTF-8"?>
<svg xmlns="http://www.w3.org/2000/svg"
     version="1.1"
     width="35.49444060mm"
     height="51.33328324mm"
     viewBox="0.00000000 0.00000000 100.61417516 145.51159210">

<g transform="scale(5.42730939)">   <defs>
      <style type="text/css"><![CDATA[
      .a {
        stroke: #000;
        stroke-miterlimit: 10;
        stroke-width: 0.15px;
      }
    ]]></style>
   </defs>
   <path class="a"
         d="M8.53834,5.72962c.0224.34558.08841,1.42121.08508,2.46808a8.05514,8.05514,0,0,1-.12765,1.95743c-.235.89587-.52912.91031-.93616,2.04257a4.58962,4.58962,0,0,0-.383,1.95743,5.58129,5.58129,0,0,0,.55319,1.74469,11.63071,11.63071,0,0,1,.59576,2.68085c.26645,1.886-.14361,1.73272.04254,4.21277.09452,1.25918.24024,1.83169-.12765,2.42553a1.3514,1.3514,0,0,0-.29788.93616.71717.71717,0,0,0,.383.55319c.28675.10825.62006-.121.89362-.34042a7.70145,7.70145,0,0,0,1.74466-2.04254,16.59735,16.59735,0,0,0,1.27661-2.46808,15.63947,15.63947,0,0,0,1.06381-4.383,28.65676,28.65676,0,0,0-.34042-5.36169c-.13224-1.18549-.03379-2.38947-.1702-3.57446a3.53687,3.53687,0,0,1,.21277-1.87235,2.929,2.929,0,0,1,.51062-.8085c.4931-.55032.79721-.4516,1.10638-.85108.29645-.383.28275-.83691.25534-1.74469-.02505-.8298-.03756-1.24472-.34042-1.57446-.26614-.28979-.52545-.26956-.80853-.68085-.21408-.31106-.15164-.44744-.34043-.6383A1.278,1.278,0,0,0,12.24046.11259c-.39218.093-.52277.32251-1.53192,1.53192a11.29292,11.29292,0,0,1-.97873,1.10638c-.65821.59589-.86551.52958-1.10639.89362C8.36708,4.03193,8.44816,4.33933,8.53834,5.72962Z"/>
   <path class="a"
         d="M6.53834,10.79344a8.97679,8.97679,0,0,0-2.34042.21276,4.01768,4.01768,0,0,0-1.95746.89362,7.081,7.081,0,0,0-.68085.89362c-.61835.87457-.477.855-1.02127,1.617a1.93081,1.93081,0,0,0-.42554.766,5.152,5.152,0,0,0,0,.85105c-.00891.55871-.08041.64379,0,.766.18888.28692.80976.162,1.3617.08511a23.08,23.08,0,0,1,2.72342-.08511,17.05135,17.05135,0,0,1,2.63827.34042c2.19129.35413,2.19589.38727,3.27661.55319,4.00293.61463,3.07752.02793,5.06382.42554a2.31,2.31,0,0,0,1.65957-.12766,2.46828,2.46828,0,0,0,.85108-1.06384,6.04091,6.04091,0,0,0,.68084-2.04254c.18457-.99954.054-1.29718,0-1.40427a1.7079,1.7079,0,0,0-.72339-.68084,4.3072,4.3072,0,0,0-1.57449-.46808,12.70452,12.70452,0,0,1-1.78744-.58625,19.04676,19.04676,0,0,0-3.82956-.52014A37.86935,37.86935,0,0,0,6.53834,10.79344Z"/>

</g>
</svg>
