<?xml version="1.0" encoding="UTF-8"?>
<svg xmlns="http://www.w3.org/2000/svg"
     version="1.1"
     width="29.74736480mm"
     height="28.38248632mm"
     viewBox="0.00000000 0.00000000 84.32325780 80.45429237">

<g transform="scale(5.74516346)">   <defs>
      <style type="text/css"><![CDATA[
      .a {
        stroke: #000;
        stroke-miterlimit: 10;
        stroke-width: 0.15px;
      }
    ]]></style>
   </defs>
   <path class="a"
         d="M4.73473,1.35176a1.25194,1.25194,0,0,0-.52406.3977c-1.33432,1.45532-2.00148,2.183-2.31636,2.63422C.731,6.05076.14782,6.90449.07516,7.8943c-.00273.03711.0301.50348.09575,1.43619.12831,1.823.18621,2.31073.57446,2.64892.03978.03467.31375.172.86169.44681a6.17241,6.17241,0,0,0,1.0532.47873,2.476,2.476,0,0,0,1.56384-.44681,5.05953,5.05953,0,0,0,1.117-.79788A11.7319,11.7319,0,0,0,6.58579,9.905c.29511-.4195.47246-.65619.383-.82977-.08773-.1702-.34831-.11741-.766-.22342a2.65147,2.65147,0,0,1-1.24467-.734,2.16127,2.16127,0,0,1-.54256-1.46808,2.71368,2.71368,0,0,1,.63829-1.43619,2.79987,2.79987,0,0,1,1.02129-1.117c.44337-.22278.57123-.04441,1.7234-.25534.82849-.15168,1.03882-.2945,1.14894-.4787.1-.16724.10393-.3461.03191-.79789C8.78967,1.37419,8.69479.779,8.24537.42622a1.77783,1.77783,0,0,0-1.08511-.351c-.58622-.008-1.35384.25744-1.5.734-.05268.17176.00543.27292-.09574.383C5.39361,1.37812,5.10421,1.2238,4.73473,1.35176Z"/>
   <path class="a"
         d="M9.905,1.0326a3.23378,3.23378,0,0,1-1.85108.734c-.67856.10193-.95492-.02978-1.18085.22342a2.29141,2.29141,0,0,0-.25531.79785,3.84166,3.84166,0,0,0-.12767.766,1.14511,1.14511,0,0,0,.09575.734c.14208.20548.37337.24121.67021.31916.19185.05038.56408.20379,1.30852.51065a4.51671,4.51671,0,0,1,1.46808.82977,1.5258,1.5258,0,0,1,.44681.63831,1.49725,1.49725,0,0,1,.03192.766A2.18955,2.18955,0,0,1,9.93685,8.373a8.788,8.788,0,0,0-1.14892,2.45746A5.71511,5.71511,0,0,0,8.373,12.80921c-.00618.40162.03951.67338.22341.79786.22612.15307.44034-.066.92554.03192.3984.08041.42343.26233.766.28723a1.23046,1.23046,0,0,0,.79786-.25531,1.93465,1.93465,0,0,0,.51064-1.3085,14.69317,14.69317,0,0,1,.98936-2.58512,14.43036,14.43036,0,0,1,.86171-2.04257c.34944-.62851.418-.5899.63829-1.05319a5.72258,5.72258,0,0,0,.51064-2.29785,3.37284,3.37284,0,0,0-.35106-2.04257,6.166,6.166,0,0,0-1.65958-1.24466A3.9972,3.9972,0,0,0,11.24537.522a1.29115,1.29115,0,0,0-.70213,0C10.23118.62379,10.11153.83085,9.905,1.0326Z"/>

</g>
</svg>
