<?xml version="1.0" encoding="UTF-8"?>
<svg xmlns="http://www.w3.org/2000/svg"
     version="1.1"
     width="30.15745646mm"
     height="11.45350091mm"
     viewBox="0.00000000 0.00000000 85.48574852 32.46664685">

<g transform="scale(5.79267105)">   <defs>
      <style type="text/css"><![CDATA[
      .b {
        fill-rule: evenodd;
        stroke: #000;
        stroke-miterlimit: 10;
        stroke-width: .15px;
      }
    ]]></style>
   </defs>
   <path class="b"
         d="M1.1891,5.09136H.1295c-.01759-.2841-.0352-.5678-.0537-.8525,.0888-.2661,.1767-.53271,.2656-.7988,.4766-.1245,.9541-.2486,1.4307-.3731,.2099-.622,.5625-1.208,1.9082-1.5449C4.92539,.85456,6.8629,.46496,8.8219,.08356c.14159,.231,.14159,.4619,0,.6924,.74219,.3389,1.48429,.3027,2.22649,.2134,.9014,.0532,1.8028,.1064,2.7032,.1597,.5839,.0795,1.5195,1.1992,.4248,1.3852-.4248,.5151-.583,.8174-.583,1.3316-.8487,.1245-1.6963,.2319-2.545,.21329-.6884-.00089-1.3789,.06991-2.0674,.63921-2.70009,.436-5.5625,1.3584-7.7919,.373h0Z"/>

</g>
</svg>
