<?xml version="1.0" encoding="UTF-8"?>
<svg xmlns="http://www.w3.org/2000/svg"
     version="1.1"
     width="33.28683570mm"
     height="65.10555259mm"
     viewBox="0.00000000 0.00000000 94.35646731 184.55118203">

<g transform="scale(6.24784584)">   <defs>
      <style type="text/css"><![CDATA[
      .b {
        stroke: #000;
        stroke-miterlimit: 10;
        stroke-width: .15px;
      }
    ]]></style>
   </defs>
   <path class="b"
         d="m5.02596,4.83509c-.81519.71005-.89658,1.86908-1.18256,3.81946-.32419,2.21088-.4863,3.31631-.76593,4.28937-.36578,1.2728-.73724,2.05835-.76596,3.47235-.01453.71606.07773.6626.10211,1.63403.0108.43082.02405,1.69107-.35745,3.77872-.22977,1.25735-.48499,2.17059-.76596,3.16599-.81781,2.89725-1.46112,4.2352-1.12338,4.44254.26205.16089.92603-.47485,1.12338-.66382.83469-.79919,1.1449-1.71774,1.27661-2.09363.78189-2.23135,1.00146-1.68643,1.88937-4.18723.28195-.79416.12613-.4726,1.32764-4.95319.65128-2.42868.72357-2.6221.91916-3.52341.39569-1.82355.29498-1.93182.61276-2.70639.49603-1.20905,1.00369-1.58447,1.22552-2.8085.1254-.69189.08215-1.22839.05109-1.58298-.06433-.7338-.21402-2.4415-1.17447-2.80853-.3663-.13998-.74463-.04449-1.12341.05109-.00009.00003-.69632.17572-1.26852.67413Z"/>
   <path class="b"
         d="m8.74553,1.55668c-.31772.1127-.55225.26239-1.02127.56171-.25406.16214-.84958.54642-1.42978,1.12341-.59113.58789-1.72684,1.71735-1.78723,3.31915-.00375.09973-.01767.58118.1532,1.17447.19363.6723.76208,1.96588,1.53189,1.99149.47464.01578.83365-.45685,1.37872-1.17447,1.02036-1.34335.89667-2.05948,1.53192-2.29788.75876-.28476,1.21606.63147,2.19574.40851.72278-.16449,1.13342-.81332,1.68512-1.68509.52603-.83118,1.11304-1.7587.76596-2.39999-.08771-.16205-.2413-.31735-1.88937-.7149-2.20111-.53094-2.72223-.44571-3.1149-.3064Z"/>
   <path class="b"
         d="m11.86043.4333c-.30222.1449-.55621.26666-.81702.51062-.52682.49277-.67538,1.1041-.7149,1.27661-.07974.3479-.05722.5849.05109,1.48083.11838.97931.18472,3.78476.10211,5.46384-.03638.73978.00943.54263.20425,4.74893.10513,2.27005.15771,3.40506.1532,3.62555-.06235,3.04678-.62418,3.97934.10214,5.31064.46323.84909,1.34155,1.66086,1.88934,1.48083.3653-.12006.49261-.65125.7149-1.88934.32724-1.82263.95157-5.73254,1.22552-8.37448.33301-3.21143.22189-9.77051.25531-11.59149.00308-.16751.01382-.72348-.30637-1.27658-.33231-.57401-1.02362-1.14938-1.78723-1.12341-.35178.01196-.63708.14877-1.07236.35745Z"/>

</g>
</svg>
