<?xml version="1.0" encoding="UTF-8"?>
<svg xmlns="http://www.w3.org/2000/svg"
     version="1.1"
     width="35.25153330mm"
     height="37.60897049mm"
     viewBox="0.00000000 0.00000000 99.92560965 106.60811813">

<g transform="scale(6.24784584)">   <defs>
      <style type="text/css"><![CDATA[
      .b {
        stroke: #000;
        stroke-miterlimit: 10;
        stroke-width: .15px;
      }
    ]]></style>
   </defs>
   <path class="b"
         d="m10.96561,5.46703c-.15954.84549-.29533,1.56517-.76596,2.34894-.16499.27477-.46744.64276-1.07234,1.37872-.353.42949-.60342.73416-.91914,1.07234-.19121.2048-.64406.6765-1.63404,1.48085-.3518.28583-1.31,1.05127-2.80851,2.04254-1.03441.68427-1.15123.69885-1.78724,1.17447-.70327.52592-2.0555,1.53716-1.88936,1.88937.21188.44919,2.79924-.37268,2.91064-.40852,1.0885-.3502,3.10394-1.13216,5.46383-3.01276.9905-.78934,1.97098-1.87091,3.93192-4.03404,1.75852-1.93985,2.30527-2.71486,2.75745-3.72766.32986-.73885,1.29144-2.89262.39023-4.00883-.13572-.16809-.54396-.39279-1.36044-.84222C12.62374-.03783,12.34759.05543,12.24221.10532c-.27705.13123-.40975.61691-.66383,1.58298-.19297.73372-.29541,1.33763-.35744,1.73618-.2011,1.2919-.10719,1.25752-.25532,2.04256Z"/>

</g>
</svg>
