<?xml version="1.0" encoding="UTF-8"?>
<svg xmlns="http://www.w3.org/2000/svg"
     version="1.1"
     width="56.29993694mm"
     height="50.72728841mm"
     viewBox="0.00000000 0.00000000 159.59043238 143.79391749">

<g transform="scale(5.59901992)">   <defs>
      <style type="text/css"><![CDATA[
      .a {
        stroke: #000;
        stroke-miterlimit: 2.61313;
        stroke-width: 0.28346px;
      }
    ]]></style>
   </defs>
   <path class="a"
         d="M4.91406,15.646C13.21436,9.90967,16.58691,4.7749,19.18066,4.08936c2.10742-1.94531,2.999-1.88672,3.71777-1.541q-.73535,2.0127-1.46973,4.02344c-.66406.11328-1.32617.22852-1.98828.3418a23.39066,23.39066,0,0,1-7.60937,6.50586q-2.075,1.75781-4.15039,3.50977c-1.043,1.05859-.06152,1.51367,1.21094,1.88477,1.35449.39844,3.14111.28516,4.06348,1.19727q.3457,1.28613-1.3833,2.22656Q10.23145,22.10889,8.8916,21.98c-2.83936,1.05664-5.60547,1.39844-8.21387.17188C-1.144,19.34326,2.03223,17.52295,4.91406,15.646Z"/>
   <path class="a"
         d="M12.26367,6.74365q-1.77393-3.25488.95068-4.79492Q15.635-.2749,17.71.23779a18.25306,18.25306,0,0,0,.17383,6.16211q.51855.72949,1.03711,1.45508c-2.03516,3.2832-6.45215.99023-6.65723-1.11133Z"/>
   <path class="a"
         d="M13.81982,13.93311q.64819-.126,1.29639-.25586a7.35432,7.35432,0,0,1,3.89062-2.14062q.3457-.25488.69238-.51367.3457.25781.69141.51367c.43262,1.084-3.458,3.79492-4.66895,6.33594-.17578,1.25781.8623,1.71289,2.07617,2.05469a40.32038,40.32038,0,0,1,5.70508.084,4.80731,4.80731,0,0,1,3.11328-.59766,1.4469,1.4469,0,0,1,1.72852,0c-.3418,2.02539-2.30273,4.05078-4.49609,6.07813a1.28279,1.28279,0,0,1-.3457-1.541,1.31965,1.31965,0,0,1-.43164-1.19922,75.80608,75.80608,0,0,0-11.06738.51367c-3.80518-.66992-2.21924-4.32227,1.81592-9.332Z"/>

</g>
</svg>
