<?xml version="1.0" encoding="UTF-8"?>
<svg xmlns="http://www.w3.org/2000/svg"
     version="1.1"
     width="55.45310204mm"
     height="22.12605326mm"
     viewBox="0.00000000 0.00000000 157.18980337 62.71953655">

<g transform="scale(5.46952987)">   <defs>
      <style type="text/css"><![CDATA[
      .b {
        stroke: #000;
        stroke-miterlimit: 10;
        stroke-width: .15px;
      }
    ]]></style>
   </defs>
   <path class="b"
         d="m6.58587,1.94225c-.45291.19574-.75757.29034-.92551.35107-.42834.15488-.69052.35083-2.13831,1.56381-1.31207,1.0993-.81512.70242-1.46808,1.24469-.55325.45947-1.08408.88895-1.59576,1.59573-.19492.26923-.37802.56625-.38297.95746-.0014.11182-.00723.57462.31915.82977.24991.19537.55695.16138.86169.12766.12024-.01331.56918-.07291,1.11703-.41489.52808-.32962.76489-.68243.89362-.60638.07779.04596.02548.1951.06381.54257.02631.23843.08026.43433.12766.57446.02017-.00204.30988-.02676.47873.1915.17865.23096.05664.52017.03192.57446-.11816.25964-.37381.33902-.41489.35104.10956.08896.28098.21301.51062.31915.63983.29572,1.24954.22952,1.56384.1915,2.55325-.30899,3.09564-.4787,3.09573-.47873.45761-.14319,4.76401-1.47067,5.61703-1.75531,2.15228-.7182,2.51648-.83215,4.6915-1.56384.97604-.32834,1.78909-.60358,2.36169-.79785.07251.10464.16721.26627.22339.4787.0907.34293.01151.55548,0,.89362-.01913.56149.18042.5257.1915,1.08511.01181.59689-.20508,1.15927-.28723,1.37234-.12497.32404-.19211.38147-.1915.57446.00156.50266.45926.86041.54257.92554.06302.04926.46738.35577,1.02127.31915.3605-.02383.5723-.17899.92554-.383.75467-.43585.7005-.25464,1.69147-.76593.83929-.43304,1.25894-.64957,1.65958-1.05319.6015-.60599.84564-1.24265.89362-1.37234.19312-.522.21729-.96375.25534-1.65958.02536-.46396.01471-.84979,0-1.11703.11249-.0802.26102-.21414.31912-.41489.06268-.21658-.00888-.41071-.03189-.47873-.26297-.77774.27194-1.49307-.09576-2.20212-.06326-.12201-.06125-.06638-1.117-.86169-.8139-.61313-.94156-.74146-1.27661-.86172-.48849-.17535-.9086-.15076-1.24466-.12766-.67184.04617-1.1698.26544-2.13831.70215-.36069.16263-.26053.13235-1.6915.82977-.47705.23251-.71558.34875-.92554.44681-.17496.0817-.77676.36105-1.75531.76596-.78082.32309-1.17352.4856-1.6915.6702-.8566.3053-1.49442.47101-2.39362.70215-.73248.18829-1.69415.41675-2.84042.63831.05539-.2258.12061-.54224.15958-.92554.02155-.21198.04849-.47693.03192-.76596-.01666-.29053-.08673-.77023-.383-1.34042-.09402.06445-.22189.13724-.38297.19147-.30801.1037-.57935.0864-.73404.06384-.09412-.09076-.23642-.22522-.41489-.38297-.34485-.30481-.52032-.45828-.67023-.51065-.32751-.11444-.64209-.02066-.92554.06384-.14557.0434-.16672.06476-.70212.31912-.27802.13208-.56757.26965-.8298.383Z"/>

</g>
</svg>
