<?xml version="1.0" encoding="UTF-8"?>
<svg xmlns="http://www.w3.org/2000/svg"
     version="1.1"
     width="34.87044632mm"
     height="32.20910989mm"
     viewBox="0.00000000 0.00000000 98.84536546 91.30143300">

<g transform="scale(5.28493839)">   <defs>
      <style type="text/css"><![CDATA[
      .a {
        stroke: #000;
        stroke-miterlimit: 2.61313;
        stroke-width: 0.28346px;
      }
    ]]></style>
   </defs>
   <path class="a"
         d="M6.76807,3.05127Q5.74634,2.981,6.58252,2.1626C7.03174,1.5708,7.57373.7915,8.02344.19971c2.49512.64648,3.73438,2.29687,2.51074,5.56055q-.512.07031-1.02295.14063-.18677,1.002-.37207,2.00781c-.9248.25586-1.82617.48633-1.999,1.49609A10.30571,10.30571,0,0,1,4.53662,11.7876c-.93994,1.47852-1.85937,3.08008-2.92871,3.7832-.34033.60742-.68164,1.72852-1.30127,1.543-.85254-.48437,1.82861-3.49023,2.74268-5.23242q.62769-.63281,1.25488-1.26172,1.697-2.291,3.394-4.58008A2.174,2.174,0,0,0,7.605,4.07861a1.73849,1.73849,0,0,1-.83691-1.02734Z"/>
   <path class="a"
         d="M8.25586.15283c-.38965,1.77539-1.15723,3.75781,3.76563,2.99023,3.19238-.40039,4.38477-1.4375,4.60254-2.709a18.80611,18.80611,0,0,0-4.64844.373A6.89418,6.89418,0,0,0,8.25586.15283Z"/>
   <path class="a"
         d="M7.65137,11.03955c-.20166-.584.44873-1.25391,1.48779-1.96289q1.78931-2.1709,3.57959-4.34375h1.16211c-.58691,1.248-1.1416,2.79688-1.85937,2.84961-1.00488,1.30664-1.978,2.8457-3.11475,3.22266a1.46146,1.46146,0,0,1-1.25537.23438Z"/>
   <path class="a"
         d="M6.44287,11.1333c.71387-.33008,1.34912-.502,1.44092.41992a36.50529,36.50529,0,0,0,5.11328-.09375c.03125-.17187.0625-.3418.09375-.51367q.46436-.04687.92969-.09375c.03125-.16992.06152-.3418.09277-.51367,3.23145-.31836,5.793-.08789,3.67285,3.9707a1.40872,1.40872,0,0,1-1.90625.46875q-.41895-1.16895-5.2998-.6543A26.46015,26.46015,0,0,0,3.65332,15.5708q-1.06934.84082-.83643-.373c.43115-.80859,1.11133-1.72656,3.5332-3.41016.03076-.21875.062-.4375.09277-.6543Z"/>

</g>
</svg>
