<?xml version="1.0" encoding="UTF-8"?>
<svg xmlns="http://www.w3.org/2000/svg"
     version="1.1"
     width="45.24469476mm"
     height="10.27979684mm"
     viewBox="0.00000000 0.00000000 128.25255671 29.13973777">

<g transform="scale(13.40103097)">   <defs>
      <style type="text/css"><![CDATA[
      .a {
        stroke: #000;
        stroke-miterlimit: 10;
        stroke-width: 0.15px;
      }
    ]]></style>
   </defs>
   <path class="a"
         d="M.96453.10337C.73315.08433.51109.02781.35035.16021.1815.29929.24779.493.16244,1.17213c-.06681.53155-.14526.714-.02451.83739.14241.14551.43107.07524.51387.05622a40.9443,40.9443,0,0,1,4.21277-.06382c1.35919.005,2.716-.15925,4.07507-.144.09182.001.37515.00612.497-.16867a.49677.49677,0,0,0,.02369-.41077C9.334.93487,8.74169.84753,7.439.72532A29.37174,29.37174,0,0,1,4.50287.44872C4.37562.41832,3.16837.26726,2.90181.2628,2.25889.25205,1.60557.15612.96453.10337Z"/>

</g>
</svg>
