<?xml version="1.0" encoding="UTF-8"?>
<svg xmlns="http://www.w3.org/2000/svg"
     version="1.1"
     width="48.98126238mm"
     height="24.99867741mm"
     viewBox="0.00000000 0.00000000 138.84453241 70.86244008">

<g transform="scale(5.79267105)">   <defs>
      <style type="text/css"><![CDATA[
      .b {
        fill-rule: evenodd;
        stroke: #000;
        stroke-miterlimit: 10;
        stroke-width: .15px;
      }
    ]]></style>
   </defs>
   <path class="b"
         d="M8.84566,7.21202c-2.15621,1.3799-4.31151,2.0157-6.46781,0-.0703-1.0361,.9844-1.6015,3.1631-1.6953,1.9815-.542,3.8311-.5654,5.624-.3535,1.9688-.2832,3.9141-.519,5.6944-.42382,.2109-.18848,.4219-.37648,.6328-.56548,2.72951-.2832,5.6846-.6992,4.7803,1.1304-.3623,.4834-.5254,1.1685-1.6875,.8482-1.5235,.0234-3.0459,.0468-4.5694,.0703-1.8271,.6128-4.7802,.65958-7.16989,.9892h0Z"/>
   <path class="b"
         d="M1.32315,7.70672c1.959-1.5835,2.918,.1001,4.0772,1.1303,2.168,.2588,4.5107,.3999,7.2412,.2827,2.1318-.2431,4.2647-.3012,6.3975-.3535,1.9912-.542,3.6084-.707,4.85061-.4946-.129,1.9355-2.19151,3.2837-5.13191,3.8857-.4463-.0468-.8916-.1884-1.3359-.4238,.2812-.7773-.2813-1.084-1.6875-.918-5.7715,.6304-11.0088,.8072-14.3408-.6362C.24505,9.8024-.15234,8.95472,.19815,7.63592c.375,.0234,.75,.0473,1.125,.0708h0Z"/>
   <path class="b"
         d="M12.71185,5.23402c.3047-.4473,.5156-.895,.63281-1.3428-.49511-1.5556-.77731-3.0161,.42189-3.8149,.8193,.0473,1.6397,.0942,2.46,.1416,.4033,1.4194,1.2549,2.9394-.1407,3.956-1.40619,1.3897-2.53019,1.7427-3.374,1.0601h0Z"/>

</g>
</svg>
