<?xml version="1.0" encoding="UTF-8"?>
<svg xmlns="http://www.w3.org/2000/svg"
     version="1.1"
     width="22.99454749mm"
     height="8.39862674mm"
     viewBox="0.00000000 0.00000000 65.18145286 23.80702871">

<g transform="scale(6.18091459)">   <defs>
      <style type="text/css"><![CDATA[
      .b {
        stroke: #000;
        stroke-miterlimit: 10;
        stroke-width: .15px;
      }
    ]]></style>
   </defs>
   <path class="b"
         d="M1.2767,.61756c-.35345,.19116-.56445,.42383-.67023,.54254C.38815,1.40522-.02195,1.86548,.09585,2.30903c.02161,.08136,.09949,.18188,.25531,.383,.27618,.35651,.4588,.59222,.76593,.75,.04413,.02264,.22272,.11151,.57446,.15961,.61011,.08344,1.0976-.04364,1.32446-.09576,.30518-.07007,.09351,.00598,2.25-.11169,1.47009-.0802,1.61401-.11804,1.93085,.01593,.19427,.08215,.48859,.24371,.95746,.31915,.25763,.04144,.46082,.07416,.71808,.01599,.42212-.0954,.44104-.31134,.89362-.39899,.25641-.04968,.38885-.00714,.51068-.12762,.09662-.09552,.10651-.21436,.12762-.46277,.07861-.92584,.08472-.96887,.03192-1.06915-.10846-.20593-.32819-.3924-.57446-.44684-.25391-.05609-.37939,.06281-.49469-.03186-.17407-.14288,.05121-.46393-.12762-.73407-.10071-.1521-.2746-.19714-.62238-.28723-.42865-.11102-.77148-.11194-.82977-.11169-.43573,.00177-.59851,.08429-1.24469,.20746-.47253,.09009-.74866,.1427-1.10107,.15955-.56403,.02698-.62909-.0708-1.51593-.12762-.36774-.02356-.79767-.04938-1.35638,0-.5235,.04626-.8833,.08185-1.29254,.30316Z"/>

</g>
</svg>
