<?xml version="1.0" encoding="UTF-8"?>
<svg xmlns="http://www.w3.org/2000/svg"
     version="1.1"
     width="31.24058694mm"
     height="30.20149461mm"
     viewBox="0.00000000 0.00000000 88.55610890 85.61053590">

<g transform="scale(7.45243009)">   <defs>
      <style type="text/css"><![CDATA[
      .b {
        stroke: #000;
        stroke-miterlimit: 10;
        stroke-width: .15px;
      }
    ]]></style>
   </defs>
   <path class="b"
         d="M7.38467,2.69375c.07666,.16748-.38208,.47604-1.0531,1.11703-.65698,.62762-.54175,.64182-1.24475,1.34042-.9408,.93497-1.02344,.78656-1.65955,1.5-.54346,.60956-.52307,.7626-1.14893,1.40424-.1759,.18036-.13171,.12128-.92554,.89362-2.00989,1.95551-.66443,.74942-.92554,.98938-.21277,.19556-.36755,.31754-.35107,.47873,.01514,.14807,.16333,.21805,.5426,.44681,.75977,.45834,.83044,.57898,1.02124,.54254,.20911-.03995,.30115-.21869,.57446-.63831,.09424-.14468,.51733-.78964,.86169-1.21277,.62305-.76562,1.34033-1.27652,1.34045-1.27658,.19189-.13672,.40417-.27039,.63831-.54257,.23425-.27234,.32983-.49478,.44678-.70212,.22351-.39612,.47876-.63641,.98938-1.117,.18213-.17136,.36438-.32901,1.65955-1.27661,1.0603-.77576,1.08252-.77582,1.21277-.92554,.4978-.5723,.50244-.95105,.98938-1.18085,.39893-.18826,.58069-.02365,.92554-.25531,.39392-.26465,.6416-.81534,.47876-1.05319-.09045-.13214-.34753-.13065-.86169-.12766-.70154,.00409-1.14893,.06381-1.14905,.06381-.28943,.0386-.41406,.07227-.57446,0-.20471-.09219-.21863-.24463-.41479-.4787-.02332-.02777-.38196-.44525-.92554-.57446-.26086-.06201-.46118-.0307-.86169,.03192-.47498,.07428-.72705,.11365-.98938,.28723-.04248,.02814-.76819,.52353-.67029,1.21274,.07617,.53647,.59924,.82401,.67029,.86169,.65356,.34659,1.31458-.00452,1.40417,.1915Z"/>

</g>
</svg>
