<?xml version="1.0" encoding="UTF-8"?>
<svg xmlns="http://www.w3.org/2000/svg"
     version="1.1"
     width="46.17655927mm"
     height="56.09688891mm"
     viewBox="0.00000000 0.00000000 130.89417911 159.01470283">

<g transform="scale(6.53780177)">   <defs>
      <style type="text/css"><![CDATA[
      .b {
        stroke: #000;
        stroke-miterlimit: 10;
        stroke-width: .15px;
      }
    ]]></style>
   </defs>
   <path class="b"
         d="m4.62491,1.88123c-.06354.23413-.02533.71777.05103,1.68512.03528.44678.07361.81659.10217,1.07233.09656-.03821.73224-.2818,1.02124,0,.104.10144.15637.26428.07404,1.05334-.05115.48999-.1123.82013-.17615,1.19348-.22113,1.29327-.2066,1.5354-.05109,1.73615.14038.18121.37878.31085.61279.3064.35541-.00677.5744-.32043,1.0213-.91913,1.19226-1.59717,1.40668-1.73987,1.48083-2.29785.05878-.44244-.01306-.82629-.05109-1.0213-.11963-.61353-.35565-.96143-.51062-1.27661-.7356-1.49597.11078-2.7514-.56171-3.21698-.297-.20563-.67859-.11066-1.12341,0-.80267.19971-1.65576.82446-1.88934,1.68506Z"/>
   <path class="b"
         d="m9.2717,8.67273c-.00012.00006-.65326.26459-1.42975.51062-1.09686.34747-1.91394.60632-2.14471.3064-.12225-.15887.04993-.30554-.05109-.8681-.06885-.38342-.1839-.5108-.10791-.6496.12512-.22852.60193-.18469.8739-.16742.00012,0,.57764.03674,2.29785-.1532.54871-.06061,1.1488-.27869,2.34894-.71484.51929-.18872,1.17236-.44525,2.14471-.7149.94696-.26263,1.21039-.2641,1.27655-.1532.08905.14929-.20154.4646-.51062.81702-.5907.67352-1.1051,1.41089-1.68512,2.09363-.40424.47589-.79712,1.10022-1.58295,2.34894-2.58966,4.1153-3.88452,6.17291-3.88086,7.35321.00055.16925.02338.81433-.35748,1.07233-.05762.039-.16669.09784-.71484.10211-.70258.00549-1.05383.00824-1.22552-.1532-.15118-.14215-.2558-.41895-.05109-1.37872.28345-1.32874.76587-2.19568.76593-2.19574.91772-1.64917,1.84198-2.84906,1.8894-2.91064,1.21082-1.57214,3.6264-4.70868,3.31915-5.00427-.07428-.07147-.24536.08319-1.1745.45959Z"/>
   <path class="b"
         d="m4.49869,8.83759c-.19537-.14972-.36658-.02325-.89508-.06274-.78699-.05884-.92981-.3783-1.48083-.30634-.23102.03015-.44336.15625-.8681.40851-.49268.29254-1.24988.74225-1.17444,1.02124.05298.19604.49786.23621.76593.25531.75342.05365,1.99316.07495,3.82977-.1532.07373-.40735.11151-.94147-.17725-1.16278Z"/>
   <path class="b"
         d="m11.51853,13.2685c-.2146-.05237-.46808-.05408-1.99152.66382-1.8501.87183-2.02972,1.13513-2.09363,1.37872-.10547.40204.11182.72131.56171,1.48083,1.06213,1.79315.02753.3114,1.73621,3.16595,1.20703,2.01648,1.49463,2.37378,1.94043,2.75745.63757.54865,1.23846.84113,1.53192.97021.5434.23907,2.12109.93323,3.57446.3064.26263-.11328.09503-.08588,1.12341-.76593,1.45001-.95886,2.08588-1.2135,2.04254-1.53192-.02899-.21295-.33618-.26593-.91919-.51068-1.39282-.58472-2.31635-1.40619-2.85956-1.88934-.56635-.50378-.92419-.9491-1.22552-1.32764-.73798-.92712-.88171-1.37787-1.94043-3.01276-.90649-1.39984-1.14722-1.60376-1.48083-1.68512Z"/>

</g>
</svg>
