<?xml version="1.0" encoding="UTF-8"?>
<svg xmlns="http://www.w3.org/2000/svg"
     version="1.1"
     width="26.27595513mm"
     height="25.83505343mm"
     viewBox="0.00000000 0.00000000 74.48302756 73.23320646">

<g transform="scale(2.51584423)">   <defs>
      <style type="text/css"><![CDATA[
      .a {
        stroke: #000;
        stroke-miterlimit: 10;
        stroke-width: 0.15px;
      }
    ]]></style>
   </defs>
   <path class="a"
         d="M15.10478,24.918c2.97648-.4145,6.63858-.9003,9.02728-3.0673,1.836-1.6675.25-5.3848,2.711-6.2876,2.0986-.7696,2.6914.7265,2.6875,2.5503-.0059,3.7402-.7227,6.5371-4.1055,8.3642a22.45585,22.45585,0,0,1-8.27828,2.4883,23.44227,23.44227,0,0,1-4.57622-.1128,23.33076,23.33076,0,0,1-4.835-.606,8.39852,8.39852,0,0,1-3.9775-3.1523A51.95716,51.95716,0,0,1,.98946,20.505a5.89194,5.89194,0,0,1-.9023-2.95171c.14362-1.45459,1.14362-1.51069,2.4658-.75929,2.5166,1.4321,2.3799,4.958,4.7071,6.5982A11.50033,11.50033,0,0,0,15.10478,24.918Z"/>
   <path class="a"
         d="M2.94656,6.91017c-.1787-.1504-.2227-.4614-.2676-.8838-.1289-1.2109-.1465-2.875,1.1357-3.4755,1.2862-.6021,2.3672-1.3453,3.6045-2.0469a4.448,4.448,0,0,1,4.7998.688,1.39671,1.39671,0,0,1,.4004,1.6836c-.7802,1.6523-5.5752,1.7231-7.10058,2.851a6.31911,6.31911,0,0,1-1.81152,1.208C3.31956,7.04787,3.09006,7.03126,2.94656,6.91017Z"/>

</g>
</svg>
