<?xml version="1.0" encoding="UTF-8"?>
<svg xmlns="http://www.w3.org/2000/svg"
     version="1.1"
     width="40.98662032mm"
     height="64.73797503mm"
     viewBox="0.00000000 0.00000000 116.18258848 183.50920342">

<g transform="scale(3.68746871)">   <defs>
      <style type="text/css"><![CDATA[
      .a {
        stroke: #000;
        stroke-miterlimit: 10;
        stroke-width: 0.15px;
      }
    ]]></style>
   </defs>
   <path class="a"
         d="M24.35836,18.8163c.18172-.5332.3096-1.0855.4922-1.61771a8.57939,8.57939,0,0,1,.8711-1.53569,21.83562,21.83562,0,0,0,.6983-2.2895c.4179-.9619.9326-.2793,1.6845-.2842a3.95449,3.95449,0,0,0,1.31162-.1997c.39348-.1426.55848-.6103.82608-.9082a1.27888,1.27888,0,0,1,1.0362-.5718c.00972.1558.1103.2764.13572.4287a1.55329,1.55329,0,0,1-.01272.5498,10.635,10.635,0,0,1-.8271,1.648c-1.1934,2.439-2.7373,4.8218-4.1358,7.1924a10.706,10.706,0,0,0-.6338,1.4697,7.13244,7.13244,0,0,1-1.1445,2.5083c-1.7959,1.8066-2.5127,4.5581-3.8477,6.6831a13.91067,13.91067,0,0,0-1.5293,4.2412,27.2668,27.2668,0,0,1-1.3847,4.0347,3.62589,3.62589,0,0,0-.19438,1.7597c.05178.33349.22858.3702.36428.6006a3.978,3.978,0,0,1,.1719.8282,6.18511,6.18511,0,0,0,.247.7158,6.88173,6.88173,0,0,0,1.2266,2.08489c.8096.83741,2.4736.72121,3.4395.24561a17.99258,17.99258,0,0,0,2.1826-.9799c.6562-.4361,1.1426-1.1304,1.82612-1.5196.24708-.14111,1.29108-.312,1.10058.2222-.1601.44969-.8535.8423-1.1728,1.18069a5.75109,5.75109,0,0,1-1.334,1.12551,5.40154,5.40154,0,0,0-1.21678.8002,2.82157,2.82157,0,0,1-.68462.5625,6.55318,6.55318,0,0,1-1.2578.2349,7.8201,7.8201,0,0,1-.8652.25,2.86354,2.86354,0,0,0-1.06738.3872c-.24512.1611-.42382.3882-.67382.5503a2.10168,2.10168,0,0,1-1.5137.437,2.184,2.184,0,0,1-.8779-.7695,6.20394,6.20394,0,0,1-.544-.7319,4.46453,4.46453,0,0,1-.2773-.6231c-.208-.47411-.6514-.7768-.8789-1.25a10.21894,10.21894,0,0,1-.6699-1.478c-.14748-.4937-.0733-.9795-.1983-1.47511a7.19633,7.19633,0,0,1-.11418-2.20659,19.48374,19.48374,0,0,1,.664-4.2871,25.33986,25.33986,0,0,1,1.84768-3.9907,19.11709,19.11709,0,0,0,.9687-2.5732c.167-.4771.3008-.9663.4922-1.4346.1777-.4321.5078-.7744.6856-1.1914.1211-.2837.0634-.6035.1699-.897a5.50161,5.50161,0,0,1,.665-1.2265c.2608-.3716.4444-.7847.6944-1.1636a3.12385,3.12385,0,0,1,.6767-.6279,8.53873,8.53873,0,0,0,.8984-1.3458,9.92652,9.92652,0,0,0,.7588-1.6787c.2579-.4956.5655-.98091.7754-1.4922C24.26566,19.0794,24.31446,18.9481,24.35836,18.8163Z"/>
   <path class="a"
         d="M22.11716,1.1502c.2598-.393.6504-.4555,1.042-.6503.4424-.2198,1.2852-.74031,1.6738-.1587.4034.603-.5244.9502-.415,1.518.0967.5005.9727.21339,1.3115.4175.3584.2163.26862.8384.1397,1.1592a9.11255,9.11255,0,0,1-.8623,1.1929c-.1817.29879-.2696.4731-.6289.56879a3.58862,3.58862,0,0,1-.9034.07911c-.4541.0034-.76848-.1162-.8769-.58011a8.89042,8.89042,0,0,1-.68358-2.79489A1.64191,1.64191,0,0,1,22.11716,1.1502Z"/>
   <path class="a"
         d="M14.335,17.6683a19.232,19.232,0,0,1-2.2266,2.9995,9.00836,9.00836,0,0,0-1.9062,2.5684,71.4361,71.4361,0,0,0-3.6045,9.0918,40.05538,40.05538,0,0,1-1.5049,4.1958,10.0393,10.0393,0,0,0-.415,4.0937,3.08766,3.08766,0,0,0,3.6416,2.7466c1.3388-.4258,2.0703-2.0737,3.5752-2.2656a7.75674,7.75674,0,0,0-.6963,1.145,7.32825,7.32825,0,0,1-.9805,1.0957,20.01167,20.01167,0,0,1-1.8584,1.7529,4.54635,4.54635,0,0,0-1.1455,1.1773c-.5635.7475-1.665.9507-1.9209,1.8857a.9929.9929,0,0,1-.8027.7617c-.0371.0113-.07518.021-.1133.0293-1.5742.3409-2.1514-1.5854-2.8691-2.5756a7.38235,7.38235,0,0,1-1.4327-4.5918c.0127-2.1495-.0537-4.4908.9385-6.4512a44.03713,44.03713,0,0,0,3.332-7.0254,37.63435,37.63435,0,0,1,2.9795-6.0269c.9385-1.831,1.5996-4.1025,3.0557-5.6074a61.00164,61.00164,0,0,0,4.3105-4.4956,8.78293,8.78293,0,0,1,1.3565-1.5264,1.42547,1.42547,0,0,1,.7939-.373,4.46226,4.46226,0,0,0,1-.19921c.1924-.05859.40432-.21049.6348-.17479.2578.0405.3018.3027.3613.5029a2.84452,2.84452,0,0,1,.1397.6875c.0068.5498-.6739.98539-1.001,1.3716-.3311.3916-.5996.8315-.9551,1.2153-.2588.2798-.6172.4361-.8681.7207a7.54472,7.54472,0,0,0-.876,1.584C14.98336,16.5541,14.68166,17.1249,14.335,17.6683Z"/>

</g>
</svg>
