<?xml version="1.0" encoding="UTF-8"?>
<svg xmlns="http://www.w3.org/2000/svg"
     version="1.1"
     width="14.42814397mm"
     height="30.71616178mm"
     viewBox="0.00000000 0.00000000 40.89865728 87.06946328">

<g transform="scale(6.53780177)">   <defs>
      <style type="text/css"><![CDATA[
      .b {
        stroke: #000;
        stroke-miterlimit: 10;
        stroke-width: .15px;
      }
    ]]></style>
   </defs>
   <path class="b"
         d="m.59491,2.88601c-.06611-.1322.06471-.22009,0-.383-.09646-.2428-.44558-.19476-.51064-.383-.05233-.15143.12099-.33466.41489-.63831.20183-.2085.42226-.43317.79787-.67023.41936-.26465.648-.40894.95744-.38293.18678.01569.3321.08752.54256.19147.44883.22174.4624.37958.6383.383.44257.00861.69905-.98395.95744-.92554.08125.01837.06891.11945.2234.44678.19891.42139.32103.46918.41489.76599.04917.15546.05473.29724.06383.57446.02931.89288-.16619,1.07886,0,1.5.10335.2619.21993.29382.2234.51062.00404.25189-.15164.31342-.2234.67023-.04945.24585-.02187.4469,0,.60638.04101.29907.11269.37524.19149.67023.10881.40729.10116.74506.09575.92554-.00542.18073-.01651.5509-.15958.98932-.07233.22168-.13153.31714-.12766.51068.00582.29138.14868.51056.19149.57446.0797.11902.12697.14148.51064.4787.34588.30402.37767.34741.38297.41492.01315.16742-.15827.20929-.35106.57446-.07061.13373-.13757.26349-.15958.44678-.00945.07874-.04004.3335.09575.57446.13094.23236.27945.20856.35106.41492.0533.15356.03364.34717-.06383.4787-.10281.13873-.2466.14697-.47872.22345-.32188.10602-.30727.17645-.73405.38293-.19083.09235-.53143.25458-.98936.35107-.35336.07446-.66205.13538-.98936,0-.16004-.06622-.14027-.10309-.35107-.22339-.55559-.31702-.9944-.23273-1.02127-.383-.01526-.08533.16004-.20581.51064-.44678.32281-.22186.36761-.21405.44681-.31915.17112-.22705.19172-.56842.09574-.82977-.06416-.17468-.12913-.17401-.54255-.63831-.37713-.42352-.42364-.53705-.44681-.63831-.05514-.24103.01318-.45087.06383-.60638.10766-.33063.22557-.33612.38298-.67023.03968-.08423.35094-.76184.09574-1.05316-.04298-.04907-.05142-.02942-.31915-.22345-.17007-.12329-.2551-.18488-.28723-.22339-.23384-.28003-.10651-.7298-.09575-.76593.07261-.24402.17313-.23322.28723-.47876.18587-.40002.0995-.81708.06384-.98932-.09259-.44708-.26154-.44818-.31915-.89362-.04424-.34204.04257-.44043-.06383-.57452-.19965-.25165-.65057-.08832-.76596-.31909Z"/>

</g>
</svg>
