<?xml version="1.0" encoding="UTF-8"?>
<svg xmlns="http://www.w3.org/2000/svg"
     version="1.1"
     width="18.05814785mm"
     height="16.06515074mm"
     viewBox="0.00000000 0.00000000 51.18848114 45.53901087">

<g transform="scale(5.79224922)">   <defs>
      <style type="text/css"><![CDATA[
      .cls-1 {
        stroke: #000;
        stroke-miterlimit: 10;
        stroke-width: .15px;
      }
    ]]></style>
   </defs>
   <path class="cls-1"
         d="M.18674,1.9613c.23755,.47229,.98926,.82977,.98935,.82983,.42401,.20166,.99664,.59369,1.59573,1.43616,.14771,.50885,.33057,.70306,.47873,.78192,.02731,.01453,.08536,.04218,.15958,.0957,.17044,.12299,.27362,.27258,.33511,.383,.05304-.24274,.12573-.61871,.17554-1.08508,.0657-.61523,.0336-.84485,.12766-1.37238,.0863-.48407,.25998-1.11316,.367-1.10107,.07693,.00867,.12802,.34973,.11172,.62238-.01523,.25439-.07916,.28302-.04788,.43085,.05646,.26685,.29102,.29779,.35107,.52661,.05899,.22467-.10541,.42999-.1915,.57446-.16968,.28467-.29401,.76672-.06384,1.62762,.26001,.21545,.45001,.40796,.57446,.54254,.26938,.29126,.41354,.50763,.62234,.49469,.04605-.00287,.03677-.01324,.23938-.0957,.27188-.11066,.40985-.16553,.51062-.14362,.14569,.03168,.29337,.16534,.30319,.30316,.00961,.13483-.11969,.17535-.12766,.33508-.00699,.1405,.08606,.24921,.15958,.33514,.12473,.14575,.39767,.36816,.57446,.28723,.13504-.06183,.15579-.27399,.17554-.44684,.0386-.33783,.10706-.82074,.23935-1.45209,.0777-.04358,.19553-.09418,.28726-.04791,.09344,.04712,.07581,.15247,.17551,.25537,.14069,.14526,.40027,.16711,.44681,.0957,.02271-.03479-.01468-.07727-.09573-.27124-.05621-.13458-.07132-.1933-.09573-.25537-.09177-.23334-.32138-.52942-.47873-.71808,.07108,.18707,.06436,.36151-.01596,.41492-.10123,.06732-.30722-.06549-.41489-.20746-.13412-.17682-.12949-.38605-.12766-.49469,.00601-.35748,.00076-.77771-.01596-1.32446l-.70215-.57446c.0267,.29681-.01016,.36987-.04785,.383-.04904,.01709-.1008-.06702-.28723-.22339-.18781-.15747-.2287-.15051-.28723-.22345-.07596-.09467-.13562-.26672-.04788-.60638-.06226-.04218-.15997-.11176-.27127-.2074-.51184-.43988-.72812-.92969-.87766-.87769-.06644,.02307-.04526,.12726-.12769,.15955-.12103,.04742-.315-.11914-.43085-.27124-.25842-.33936-.14093-.62415-.35104-.75-.09677-.05798-.13486-.00543-.44681,0-.49869,.00867-.75165-.11945-.8298,0-.05359,.08191,.05377,.15985,0,.30316-.05008,.13348-.15894,.10754-.31915,.28723-.11139,.12494-.09433,.17737-.22339,.30322-.09726,.09485-.1579,.15399-.22342,.14362-.16702-.02649-.17807-.47504-.30319-.4787-.06799-.00201-.12909,.12848-.14362,.15955-.06528,.1394-.02429,.23853-.06381,.25531-.05466,.02325-.14282-.16217-.35107-.33508-.099-.08221-.20987-.17426-.36703-.20746-.2515-.0531-.56619,.05634-.65424,.25531-.03766,.08514,.00546,.09778-.01596,.33508-.02048,.22668-.06467,.26868-.06384,.41492,.00101,.17883,.06821,.31238,.11172,.39893Z"/>

</g>
</svg>
