<?xml version="1.0" encoding="UTF-8"?>
<svg xmlns="http://www.w3.org/2000/svg"
     version="1.1"
     width="68.73537127mm"
     height="27.89733000mm"
     viewBox="0.00000000 0.00000000 194.84042980 79.07905433">

<g transform="scale(5.79267105)">   <defs>
      <style type="text/css"><![CDATA[
      .b {
        fill-rule: evenodd;
        stroke: #000;
        stroke-miterlimit: 10;
        stroke-width: .15px;
      }
    ]]></style>
   </defs>
   <path class="b"
         d="M.88098,11.85225H.10458c.3882-1.1465,1.6582-2.1152,4.8701-2.6953,1.459-.2129,2.9175-.4258,4.376-.6387,2.5425-1.2168,4.0645-.5898,5.647-.0703,2.3701-.414,4.6641-.6738,6.8462-.709,3.9058-.6152,7.5293-1.6093,10.8701-2.9804l.8467,.56829v1.418c-1.2227,.85351-2.5166,1.58791-4.3052,1.49021-1.812,.6739-3.6235,1.1231-5.435,1.418-1.3526,.6621-3.1177,1.207-5.7876,1.4902-2.627,.4707-5.2193,.9102-6.7056,.4258-.9409,.2363-1.8823,.2832-2.8233,.1426-1.3881,.4238-2.7763,.8496-4.1645,1.2754-1.791,1.1172-3.3691,.5957-3.4585-1.1348H.88098Z"/>
   <path class="b"
         d="M24.52648,9.65305c1.4082-2.748,.313-5.0527-1.4824-7.2344,.2353-.92181,1.0351-1.1816,2.3999-.7812,.0229-.9922,.4233-1.5137,1.1997-1.56061,2.0303,1.94531,3.4468,8.80671,.353,8.584-.8237,.80271-1.6474,1.13481-2.4702,.99221h0Z"/>

</g>
</svg>
