<?xml version="1.0" encoding="UTF-8"?>
<svg xmlns="http://www.w3.org/2000/svg"
     version="1.1"
     width="51.84440590mm"
     height="26.58586927mm"
     viewBox="0.00000000 0.00000000 146.96058589 75.36154976">

<g transform="scale(5.79267105)">   <defs>
      <style type="text/css"><![CDATA[
      .a {
        stroke: #000;
        stroke-miterlimit: 10;
        stroke-width: 0.15px;
        fill-rule: evenodd;
      }
    ]]></style>
   </defs>
   <path class="a"
         d="M5.68183,7.86065c-1.6343,1.6602-3.1812,2.52539-4.5347,1.6426.1865-2.1269,3.7222-4.5859,8.22511-5.3515.07031-.1758.14063-.3536.21094-.5293a50.19552,50.19552,0,0,1,7.43408-1.4317,3.53028,3.53028,0,0,1,3.00537-.9004,6.02438,6.02438,0,0,1,4.48145-1.166,1.642,1.642,0,0,1,0,2.8086,11.00585,11.00585,0,0,1-5.43067.95309C17.56023,5.31965,12.92205,5.85485,9.1613,6.642a33.12872,33.12872,0,0,0-3.47947,1.2187Z"/>
   <path class="a"
         d="M.14563,9.13215c.9346-2.4355,2.6944-3.03711,4.4815,1.4844q.6855.0528,1.3706.10549c.123-.15819.2461-.31839.3691-.47659,2.14457.2207,3.76127.1328,4.2183-.6367,3.51856-.80671,7.09473-1.6074,6.90674-2.7012,1.9209-.3183,3.78857-.5547,4.00684,1.6953a2.1568,2.1568,0,0,1-1.00147,2.0664q-.73829-.31635-1.47656-.6367Q12.694,11.43879,6.36683,12.84115a3.115,3.115,0,0,1-2.7417-.582c-2.3911.998-3.9018.539-3.4795-3.127Z"/>
   <path class="a"
         d="M21.13005,12.57745q-.68555-1.98915-1.37109-3.9746c-.75586-.1601-1.01953-.9531-.791-1.9609q3.29517-1.4268,5.11426,1.5898c.20264,2.959-1.04541,4.07229-2.95215,4.3457Z"/>

</g>
</svg>
