<?xml version="1.0" encoding="UTF-8"?>
<svg xmlns="http://www.w3.org/2000/svg"
     version="1.1"
     width="62.52797462mm"
     height="63.61888878mm"
     viewBox="0.00000000 0.00000000 177.24463466 180.33697097">

<g transform="scale(6.27936546)">   <defs>
      <style type="text/css"><![CDATA[
      .b {
        stroke: #000;
        stroke-miterlimit: 10;
        stroke-width: .15px;
      }
    ]]></style>
   </defs>
   <path class="b"
         d="m16.21963,4.33505c-.34021.32104-.43655.52173-.46964.5965-.05251.11871-.17339.40259-.09286.73688.02319.09631.09288.38556.3125.47913.196.0835.41788-.02863.50803-.07574.94778-.4953,3.07559-1.9527,4.47043-2.45074,1.64043-.58575,3.89838-.42725,4.58405.23486.08395.08105.37314.39062.75.375.20961-.00867.35948-.12238.65065-.3493.04823-.0376.57687-.47479.92288-1.15271.06277-.12299.11891-.26971.0605-.39484-.05435-.11646-.18744-.16992-.30855-.21289-.41084-.14587-.82169-.29169-1.23253-.4375.10786-.04724.27718-.11639.49039-.18195.6707-.20612,1.12982-.17761,1.14583-.29169.01262-.09003-.26044-.19763-.39583-.25-1.38324-.53528-2.07486-.80292-2.96016-.86328-.24785-.01691-.51161-.03485-.86893-.00818-.89709.06702-1.47.34735-2.26709.69629-2.21223.96844-3.51643,1.31201-3.90382,2.17517-.03014.06714-.06506.16046-.14584.29169-.31523.51202-.67746.54303-1.25,1.08331Z"/>
   <path class="b"
         d="m24.08788,4.42734c-.62311.83801-.89709,1.17871-1.36603,1.83698-.56537.79364-.64078.94882-.62723,1.17494.0332.55431.56747.97444.97917,1.14583.41682.17352,1.06772.24179,1.29807-.0614.13211-.17389.07639-.32767.08997-.70868.01288-.36124.2594-.66611.49382-.94125.93803-1.10101,1.87608-2.20203,2.81413-3.30304.18619-.21857.38264-.46368.38173-.75073-.00163-.51404-.59135-.78998-1.08266-.94116-.70071.06659-1.2337.45441-1.72583.95764-.18518.18939-.34442.40222-.50305.61432-.28699.38367-.46617.59204-.75209.97656Z"/>
   <path class="b"
         d="m24.8863,8.64759c-.1935-.19431-.29152-.29398-.35417-.41669-.14857-.29102-.1209-.59045-.08885-.76154l-1.08788-.64188c-.0851-.05023-.22093-.1261-.40613-.13428-.21686-.00958-.384.07983-.4588.12105-.81552.44902-1.91982,2.58223-2.11313,2.95973-.07899.15427-.18869.37482-.17855.66527.00765.21904.08417.49822.56251,1.06249.218.25717.41463.44989,1.10417,1.06251.7144.63469.81876.70806.95832.93749.30395.49963.3276,1.00406.33333,1.16666.00903.25577-.00626,1.00281-1.45833,2.89586-.42579.55507-.64028.8347-1.10343,1.3134-2.46811,2.5509-5.62935,4.17282-7.39191,5.06229-.89226.45026-1.35202.68045-2.01985.92816-1.52463.56549-2.2292.53775-4.00563,1.11279-1.44295.4671-1.06628.51398-2.125.8125-1.339.37756-2.76862.5358-4.39584,1.29169-.28246.1312-.60576.29663-.58076.41425.05194.24445,1.57114.10739,1.67932.09726.96201-.09003,1.66068-.29828,1.68376-.30518,5.08009-1.51431,6.79712-1.54465,10.55103-3.35216,2.84787-1.37129,4.82747-2.78285,5.54929-3.31382.52428-.38568,2.86554-2.13153,5.25096-5.01785,0,0,2.33679-2.82748,2.30391-5.04332-.00999-.67375-.27412-1.13017-.27412-1.13017-.20726-.35818-.51773-.62344-.6842-.76569-.19853-.16962-.18785-.12601-.58333-.4375-.29567-.23288-.48885-.40472-.66667-.58331Z"/>

</g>
</svg>
