<?xml version="1.0" encoding="UTF-8"?>
<svg xmlns="http://www.w3.org/2000/svg"
     version="1.1"
     width="57.73710636mm"
     height="24.62258083mm"
     viewBox="0.00000000 0.00000000 163.66418357 69.79627879">

<g transform="scale(5.28493839)">   <defs>
      <style type="text/css"><![CDATA[
      .a {
        stroke: #000;
        stroke-miterlimit: 2.61313;
        stroke-width: 0.28346px;
      }
    ]]></style>
   </defs>
   <path class="a"
         d="M.90771,4.49121,1.15234,3.999a28.99776,28.99776,0,0,0,10.16406.86133,9.85092,9.85092,0,0,1,4.89844,0,51.47866,51.47866,0,0,0,7.22461-.61523c.49414,1.00586.61914,1.89063-1.83691,1.9082a58.03906,58.03906,0,0,1-9.67383,1.04492,22.64812,22.64812,0,0,1-10.96-.24609q-1.62231-.61523-.061-2.46094Z"/>
   <path class="a"
         d="M21.11328,6.15332c.46191-2.01172,1.6748-3.58984,5.57129-3.63086q1.83691.98438.73438,2.21484c-.46875,3.26172-5.32617,3.42578-6.30566,1.416Z"/>
   <path class="a"
         d="M26.5625,7.38379a4.75484,4.75484,0,0,1-.49023-5.04492q1.0415-.709,2.082-1.416Q29.8374-.832,30.78711,1.35254c.083,3.24414.083,6.28125-.49023,7.877q-.48926.30762-.97949.61523c-1.43066,1.54883-2.14453-.2207-2.75488-2.46094Z"/>
   <path class="a"
         d="M1.33594,12.92285A13.48681,13.48681,0,0,1,5.43848,9.22949c.81982-1.72266,4.19531-3.44531,7.65332-5.168A10.40983,10.40983,0,0,1,16.94922.9834c.78613.54492,1.01074,1.24219,0,2.27734Q14.31689,5.168,11.68359,7.0752A4.31884,4.31884,0,0,1,8.80615,8.67676,12.01951,12.01951,0,0,1,5.43848,10.8916c-2.19434,2.06055-3.37842,2.42969-4.10254,2.03125Z"/>

</g>
</svg>
