<?xml version="1.0" encoding="UTF-8"?>
<svg xmlns="http://www.w3.org/2000/svg"
     version="1.1"
     width="37.61660598mm"
     height="19.40593427mm"
     viewBox="0.00000000 0.00000000 106.62970869 55.00898924">

<g transform="scale(7.25368714)">   <defs>
      <style type="text/css"><![CDATA[
      .b {
        fill: #000;
        stroke: #000;
        stroke-linecap: round;
        stroke-linejoin: round;
        stroke-width: .15px;
      }
    ]]></style>
   </defs>
   <path class="b"
         d="M11.86774,1.76343c.6723-.63478,1.32647-1.39827,.85709-1.63066-.52476-.25981-1.44528,.42706-1.89113,.6677-.60034,.32402-1.16698,.69665-1.72615,1.08651-1.01326,.70643-1.93945,1.53982-2.76129,2.46136-.41893,.46975-.83816,1.00678,.00594,1.0842,.61897,.05677,1.17036-.21522,1.67908-.53807,.98325-.624,1.88663-1.46727,2.78001-2.21596,.11451-.09597,.58985-.47452,1.05645-.91508Z"/>
   <path class="b"
         d="M11.15675,4.07694c-.36014-.08621-.68398-.20469-1.08503-.32989-.87641-.27361-1.79399,.06339-2.54118,.53519-.47153,.29773-.76952,.76341-.92176,1.29254-.09444,.32823-.35065,1.23203-.15578,1.50502,.38525,.53912,1.54913,.42306,2.11816,.40824,1.03687-.027,2.08318,.01261,3.12836-.01139,.80519-.01849,1.16807-.37682,1.75274-.87532,.3763-.32078,.88255-.9104,1.10262-1.37603,.26414-.55889-.27047-.60863-.71967-.68039-.70991-.1134-1.41066-.28511-2.12525-.3693-.20094-.02367-.38122-.05749-.55322-.09866Z"/>
   <path class="b"
         d="M1.52691,3.02408c.57415-.41108,1.17586-.75445,1.51036-.99379,.0961-.06876,.16144-.14621,.26561-.20798,1.57632-.93472,1.61384,1.10585,1.87872,2.13574,.24371,.94759,.91834,1.94326-.19103,2.52543-.91184,.47851-1.57976,.76533-2.62459,.51618-.86361-.20594-1.92857-.86927-2.23674-1.77573-.27321-.80425,.53082-1.57922,1.39766-2.19985Z"/>

</g>
</svg>
