<?xml version="1.0" encoding="UTF-8"?>
<svg xmlns="http://www.w3.org/2000/svg"
     version="1.1"
     width="59.90061066mm"
     height="28.12354109mm"
     viewBox="0.00000000 0.00000000 169.79699776 79.72018932">

<g transform="scale(5.59901992)">   <defs>
      <style type="text/css"><![CDATA[
      .a {
        stroke: #000;
        stroke-miterlimit: 2.61313;
        stroke-width: 0.28346px;
      }
    ]]></style>
   </defs>
   <path class="a"
         d="M8.87061,7.96875c-.1875-.10742-.375-.21289-.563-.32031q2.13208-.99316,4.26367-1.99023A18.12551,18.12551,0,0,0,17.479,3.10938c-.74023-.31445-1.30908-.9668-2.73535.08008L9.59473,5.33984A3.84531,3.84531,0,0,0,6.61816,6.375Q3.92358,7.40918,1.228,8.44531q-2.13208.876-.08057,1.752,3.94263-.31641,7.88428-.63672,4.86694.041,9.73437.08008a11.6249,11.6249,0,0,0,2.89648.55664q2.29248,1.91309,4.58594,3.82422c.10742-.18555.21387-.37109.32129-.55664h1.0459q.36182-1.35645.72461-2.709-1.69043-1.87207-2.41406-.55859l-2.97656-.95508c-.02344-1.75586-1.55273-2.01953-3.29883-2.07031-2.335-.26758-4.50879-.40039-5.55078.39844l-5.22949.39844Z"/>
   <path class="a"
         d="M13.45654,9.87891c.375-.02539.75049-.05273,1.126-.07812q3.41895-2.0332,6.83789-4.0625,1.64941-.83789,3.29883-1.67383A21.478,21.478,0,0,0,29.063,1.75586c1.37207-.666,1.23633-1.14258.88574-1.59375-1.9502.55273-3.97168,1.05078-4.82715,2.46875-4.0625,1.32813-6.209,2.65625-7.48242,3.98242a16.74181,16.74181,0,0,0-4.18262,3.26563Z"/>

</g>
</svg>
