<?xml version="1.0" encoding="UTF-8"?>
<svg xmlns="http://www.w3.org/2000/svg"
     version="1.1"
     width="41.76005141mm"
     height="31.11280794mm"
     viewBox="0.00000000 0.00000000 118.37496008 88.19380139">

<g transform="scale(6.18091459)">   <defs>
      <style type="text/css"><![CDATA[
      .b {
        stroke: #000;
        stroke-miterlimit: 10;
        stroke-width: .15px;
      }
    ]]></style>
   </defs>
   <path class="b"
         d="M10.26734,1.00882c-.99615,.32629-1.4942,.48938-2,.5957-.4577,.09619-.97412,.17712-1.14893,.55322-.06213,.13367-.09589,.33643,0,.46814,.04193,.05762,.1723,.18921,.80853,.10632,.85999-.11206,1.29565-.44031,1.44678-.27661,.05359,.05798,.03571,.20178,0,.48938-.02295,.18457-.0423,.34045-.10638,.46814-.15851,.31567-.5661,.41028-.70209,.44678-.11597,.03113-.74396,.46753-2,1.34045-1.03259,.71765-1.54895,1.07654-2.21277,1.5957-1.36658,1.06885-1.50262,1.35071-2.27661,1.65955-.31317,.125-.61884,.20959-1.0213,.48938-.25885,.17993-.95996,.66724-.9787,1.36169-.00269,.09949-.01111,.4104,.19147,.59583,.18927,.17334,.41272,.09985,1,.08508,.87292-.02185,.91272,.1272,1.4043,.02124,.48236-.104,.41541-.24133,.91486-.36169,.6532-.15735,.8714,.05261,1.42554-.10632,.38519-.11047,.56213-.29285,.87238-.51074,.47778-.33557,.81415-.43372,2.08508-.85095,3.15723-1.03638,3.73914-1.30261,4.40424-.93628,.14215,.07825,.29333,.21533,.59576,.48938,.69885,.6333,1.12311,1.2428,1.46808,1.74475,.35864,.52185,1.76392,3.0957,2.76599,3.51062,.28131,.11646,.52686,.16724,.68085,.19153-.06995-.55994,.01959-.9729,.10638-1.23413,.16974-.51086,.51111-.98926,.5957-1.10632,.2998-.41516,.47571-.52246,.48938-.78723,.01703-.32996-.23425-.58899-.36169-.72339-.56555-.59644-1.01477-1.29395-1.55322-1.91492-.65527-.75574-1.05994-1.30725-1.80847-1.89368-.21753-.17041-.48682-.36157-.85107-.38293-.24493-.0144-.41235,.05505-1.0213,.27661-.29724,.10815-.59937,.203-.89362,.31909-.87305,.34448-1.42377,.40039-3.04254,.89368-1.54535,.47095-2.31805,.70642-2.88245,1.00659-.18866,.10034-.35077,.19958-.61737,.25256-.72003,.14294-1.21313-.24829-1.50018,.01746-.14447,.13379-.05005,.26111-.21277,.42554-.31036,.31372-1.02698,.22742-1.10638,0-.00946-.02722-.03107-.11694,.29791-.46814,.54932-.58643,1.19147-.9574,1.19147-.9574,0,0,1.04449-.8158,1.59576-1.23413,.70789-.53711,.81-.57629,2.80847-1.9574,2.11475-1.46143,.29266-.23743,2.383-1.72339,.00006,0,.62524-.44446,1.46808-1.34045,.49182-.52283,.73083-.86536,.63831-1.17017-.05005-.16492-.20062-.33008-.383-.38306-.23199-.06738-.45624,.06372-.53192,.10645-.05908,.03333-.8479,.29175-2.42554,.80847Z"/>

</g>
</svg>
