<?xml version="1.0" encoding="UTF-8"?>
<svg xmlns="http://www.w3.org/2000/svg"
     version="1.1"
     width="58.00045121mm"
     height="49.98744934mm"
     viewBox="0.00000000 0.00000000 164.41065987 141.69666986">

<g transform="scale(5.79267105)">   <defs>
      <style type="text/css"><![CDATA[
      .a {
        stroke: #000;
        stroke-miterlimit: 10;
        stroke-width: 0.15px;
        fill-rule: evenodd;
      }
    ]]></style>
   </defs>
   <path class="a"
         d="M16.01455,3.3469q.25275-.14133.5054-.28222-1.207-.73377.2808-1.24118.9258.0849,1.852.1694V3.2903c2.2613-.1318,5.3116-.1318,8.4751-.1128a1.63819,1.63819,0,0,0,1.1783-1.0156,1.74492,1.74492,0,0,0-.5611-1.01522A10.77349,10.77349,0,0,1,26.00535.075h-8.7559c-1.3867.1294-2.5483.4663-2.1328,2.2563q.449.50757.8979,1.0156Z"/>
   <path class="a"
         d="M14.27485,5.885c-.1123-1.2505.2422-1.9834,1.6279-1.5791q1.2627-.0849,2.5254-.1694-.16845,1.83327-.33689,3.6665-1.17841-.1977-1.23441,1.8613a30.32788,30.32788,0,0,1-6.9038,6.9942,15.45522,15.45522,0,0,1-3.0307,3.2153q-1.23495,1.0158,0,1.354.84225.05565,1.6836.1128.309.93012-1.1783,1.18408A6.80039,6.80039,0,0,1,3.89155,23.822a2.24193,2.24193,0,0,1-2.9746,0q-1.6839-1.43835,0-1.9741a18.75957,18.75957,0,0,0,5.2197-5.1328,43.71623,43.71623,0,0,0,6.6787-7.27642A5.14721,5.14721,0,0,1,13.938,7.2385q.16846-.67665.3369-1.3535Z"/>
   <path class="a"
         d="M20.28026,9.7771q-1.40266-1.5798.56149-1.5796.47685-.282.9541-.5639c.4292-.6978,1.1216-.4712,1.852-.1128,1.1446.5083,1.1055.8842.898,1.2412.12741,2.8271-2.0874,4.478-4.3779,6.0918-.9912,1.12988-1.9825,2.12688-2.9746,2.1997q-.6732.8745-1.3472,1.7485a24.09411,24.09411,0,0,0,4.6025-.6767q2.41335-.25425,4.8267-.5079,1.12275.5076,2.2451,1.0152.3648,2.0874-2.6377,3.4975a3.70743,3.70743,0,0,1-1.12249-.5078q.112-.67665-.44931-.6767-2.0199.2256-4.041.45108a35.76954,35.76954,0,0,1-5.8369.959q-2.8908.564-3.3115-.22558-1.09425-.5925-.6172-1.1845,5.0229-4.7388,10.0464-9.4766h.4487a2.40318,2.40318,0,0,1,.28081-1.6919Z"/>

</g>
</svg>
