<?xml version="1.0" encoding="UTF-8"?>
<svg xmlns="http://www.w3.org/2000/svg"
     version="1.1"
     width="49.66133819mm"
     height="21.75068663mm"
     viewBox="0.00000000 0.00000000 140.77229101 61.65552213">

<g transform="scale(5.64942628)">   <defs>
      <style type="text/css"><![CDATA[
      .b {
        stroke: #000;
        stroke-miterlimit: 10;
        stroke-width: .15px;
      }
    ]]></style>
   </defs>
   <path class="b"
         d="m.96411,6.71123C.35504,7.41411.00738,7.81532.08601,8.29986c.04276.26344.20839.74848,1.94193,1.43266,1.70673.67359,4.01617,1.34973,4.14831,1.01985.03695-.09225-.10178-.24962-.37684-.56164-.18166-.20608-.36558-.34995-.50844-.44602,1.88358-.01711,3.77541-.03489,5.63579-.33009,1.15923-.18394,2.2985-.47446,3.43582-.76457,1.0481-.26736.96238-.24819,2.57941-.65796,2.95213-.7481,3.42703-.82749,4.22058-1.31432.06129-.03761.56903-.43524,1.58449-1.23051,1.33865-1.04839,1.65914-1.32132,1.87664-1.84241.05642-.13518.39791-.95334.09665-1.71906-.43248-1.09921-1.92584-1.42023-2.82005-1.60009-4.203-.84538-8.47083,1.10024-8.38298,1.48936.00865.0383.05872.05815,1.21667.08941,2.75056.07425,3.73663-.00093,5.0288.41735.63506.20557,1.31421.53065,1.55098,1.15476.06366.1678.02554.32664.02552.32674-.04895.28643-.28264.4672-.41771.56493-.98474.71245-2.05693,1.08761-2.05702,1.08764-.84755.27122-1.26012.44031-1.60255.52938-.0001.00002-9.04033,2.35146-11.78723,1.82979-.14875-.02825-.60462-.11482-.70858-.40705-.0643-.18073.05244-.30958.16824-.73455.08464-.31067.17455-.64062.11579-.89463-.10698-.46249-.73691-.80351-1.25985-.86896-1.11023-.13895-2.03409.92721-2.82624,1.84136Z"/>

</g>
</svg>
