<?xml version="1.0" encoding="UTF-8"?>
<svg xmlns="http://www.w3.org/2000/svg"
     version="1.1"
     width="57.87661542mm"
     height="61.93051382mm"
     viewBox="0.00000000 0.00000000 164.05965911 175.55093369">

<g transform="scale(7.45243009)">   <defs>
      <style type="text/css"><![CDATA[
      .b {
        stroke: #000;
        stroke-miterlimit: 10;
        stroke-width: .15px;
      }
    ]]></style>
   </defs>
   <path class="b"
         d="M10.04782,1.09758c-.32905,.61639-.10266,1.34338-.06384,1.46808,.10551,.33881,.23654,.44525,.31915,.86169,.05766,.29065,.04794,.51166,.03191,.79785-.10542,1.8822-.23586,2.15704-.38298,2.36176-.06541,.091-.12625,.15723-.51064,.4787-.98843,.82666-1.6877,1.31024-2.71277,2.07446-1.04563,.7796-.91832,.724-1.2766,.95746-.71101,.46332-1.35909,.77777-1.30851,.92554,.04314,.12604,.53434-.04456,.67021,.15955,.21432,.32202-.70527,1.20117-.60638,1.30853,.10098,.10962,1.15012-.70941,1.81915-1.21277,1.18754-.89343,.78973-.50061,3.35107-2.32977,.6415-.45813,1.71594-1.23309,2.68085-2.29791,.31404-.34656,.6538-.76501,.79787-1.37231,.16713-.70453-.02557-1.25641,.06383-1.27661,.10314-.02332,.43385,.69446,.51064,1.5,.03012,.31592,.01585,.58948,0,.89362-.02449,.46973-.03979,.76318-.12766,1.08514-.18031,.66064-.57166,1.09491-.79787,1.34039-.54389,.59027-.71999,.42389-1.2766,1.0213-.45931,.49304-.39605,.66718-.89362,1.14893-.15933,.1543-.48821,.44855-.95744,.70215-.86938,.46985-1.60301,.46613-1.59575,.57446,.00686,.10229,.65363-.0058,1.5,.25531,.8681,.26782,1.13589,.67407,1.46809,.51062,.37801-.18604,.49323-.93939,.51064-1.05316,.05271-.34467-.01089-.51099,.12766-.63831,.18262-.16785,.4001,.02271,.79787-.09576,.43774-.13037,.55109-.47327,.73404-.41492,.18225,.05811,.24561,.45453,.2234,.76599-.06235,.87488-.82103,1.38068-.70213,1.53192,.06413,.0816,.28112-.07031,.95744-.25531,.57047-.15601,.69637-.12463,.89362-.28723,.1896-.15631,.21439-.30164,.41489-.73407,.10661-.22998,.02111-.01953,.57447-1.05322,.60155-1.12366,.64802-1.27039,.57447-1.37231-.1128-.15637-.36198-.00519-.98936-.09576-.42036-.06067-.85314-.12317-1.05319-.44678-.16024-.25922-.14035-.63611,0-.89362,.16499-.30273,.42956-.31769,.44681-.54254,.01506-.19629-.18246-.23822-.31915-.57446-.08965-.22058-.16578-.59894,0-.76599,.12365-.12463,.33825-.08771,.6383-.03192,1.37813,.25629,1.58057,.34839,1.78723,.22339,.27386-.16559,.30844-.56317,.35107-1.05316,.02876-.33063,.08121-.93365-.25532-1.46808-.17495-.27783-.37978-.41766-.35107-.67023,.02927-.25745,.27356-.3891,.2234-.4787-.07994-.14276-.71653,.16327-.8617-.03192-.09823-.13208,.10345-.39288,.03191-.44684-.09367-.07068-.51053,.32269-.57446,.383-.42235,.3985-.50147,.62488-.67022,.60638-.20372-.02228-.31834-.37738-.35106-.4787-.02148-.06653-.12388-.40491,0-.73407,.26433-.70233,1.33369-.76459,1.30851-1.0213-.0118-.12024-.25231-.16779-.79787-.31909-1.26805-.35168-1.16279-.4259-1.62766-.47876-.3134-.03564-.91457-.09723-1.59575,.15961-.38479,.14508-.8839,.33325-1.14893,.82977Z"/>
   <path class="b"
         d="M.63293,15.14012c-.4043,.54523-.49633,.54755-.54256,.76593-.00471,.02222-.08177,.41602,.15958,.73407,.20181,.26593,.51006,.32574,.82979,.383,.35372,.06329,.52483,.02899,1.11702,0,.96134-.04706,1.06609,.01624,1.69149-.06384,.36929-.0473,.66782-.1123,.8617-.15961,.11996,.22406,.32249,.61542,.54256,1.11707,.4471,1.01917,.90969,2.07361,1.21276,3.44678,.02835,.12848,.18491,.84686,.6383,1.56384,.13857,.21912,.33345,.48328,.6383,.54254,.18832,.03662,.33597-.02106,.54256-.0957,.38918-.14062,.79176-.24213,1.18085-.383,.91615-.33167,1.10834-.35071,1.5-.60638,.46507-.30359,.5064-.48053,.51064-.57446,.01227-.27185-.25403-.56335-.44681-.54254-.15556,.01678-.17135,.22699-.41489,.38293-.17986,.11517-.37564,.13135-.51064,.12769-.01623-.15363-.02997-.38806,0-.67023,.05247-.49408,.19083-.68164,.12766-1.02124-.04597-.24719-.12984-.20453-.28724-.57452-.27418-.64453-.06986-.89178-.35106-1.24463-.19386-.24323-.39217-.25269-.41489-.44684-.02409-.20575,.17622-.38715,.31915-.51062,.29773-.2572,.77172-.63068,1.46809-1.05322,.14823,.4516,.33205,1.01306,.54256,1.65961,.3117,.95734,.40031,1.23627,.57446,1.69147,.28364,.74146,.43163,1.12183,.73405,1.59576,.17855,.27985,.42558,.66101,.8617,1.05316,.20077,.18054,.69669,.61786,1.43617,.86169,.65009,.21436,1.15514,.16925,1.97872,.09576,.73071-.06525,1.87102-.17883,3.03191-.86169,.13811-.08124,.53345-.32166,.95744-.73407,.37193-.36176,.92703-1.01257,.79787-1.18085-.07858-.10242-.35346,.0481-.98936,.22345-.0001,0-.74828,.20636-1.56384,.28723-.6563,.06512-1.21272,.1203-1.88298-.09576-.64606-.20825-1.05833-.55908-1.14893-.63831-.25993-.22729-.5517-.56201-1.08511-1.85107-.33689-.81415-.57104-1.37994-.79787-2.23401-.32036-1.20612-.28118-1.68829-.70213-1.91492-.12653-.06812-.50989-.05603-1.2766-.03192-.57343,.01807-.78431,.05383-.98936,.19153-.23465,.15759-.21802,.28503-.44681,.54254-.38033,.4281-.86674,.57166-1.30851,.70209-.50439,.14893-.87343,.25787-1.24468,.09576-.1812-.0791-.22785-.16382-.41489-.19147-.20213-.02991-.33609,.04114-.82979,.28723-.63776,.31787-.76233,.3728-.95745,.41486-.27114,.05841-.4252,.09161-.60638,.03192-.40725-.13416-.37206-.54675-.82979-.86169-.26465-.18207-.52976-.21851-.79787-.25531-.66601-.09143-.84567,.15839-1.2766,0-.40612-.14923-.71042-.54163-.6383-.70215,.08868-.19745,.72884-.00482,.79787-.19147,.04346-.11749-.16474-.31689-.35107-.41492-.3688-.19397-.85929-.09973-1.14893,.15961-.06024,.05396-.04936,.05914-.28724,.41486-.10423,.15588-.30944,.46277-.51064,.73407Z"/>
   <path class="b"
         d="M6.21803,13.70396c-.02251,.01733-.26059,.20703-.25532,.51062,.00459,.26422,.19143,.4964,.41489,.57446,.18091,.06317,.3445,.01093,.47872-.03192,.31782-.1015,.31456-.24963,.6383-.38293,.30412-.12524,.45261-.0545,.54255-.19153,.08662-.13202,.05127-.3537-.06383-.4787-.10819-.11749-.23984-.09851-.79787-.09576-.68412,.00342-.80257-.0235-.95744,.09576Z"/>

</g>
</svg>
