<?xml version="1.0" encoding="UTF-8"?>
<svg xmlns="http://www.w3.org/2000/svg"
     version="1.1"
     width="66.56526292mm"
     height="16.89519402mm"
     viewBox="0.00000000 0.00000000 188.68890278 47.89189266">

<g transform="scale(5.79267105)">   <defs>
      <style type="text/css"><![CDATA[
      .b {
        fill-rule: evenodd;
        stroke: #000;
        stroke-miterlimit: 10;
        stroke-width: .15px;
      }
    ]]></style>
   </defs>
   <path class="b"
         d="M13.02297,6.74388c.3549-2.0376,8.9663-6.1113,10.999-6.1787,.0683-.1602,.1367-.3203,.2051-.4805,1.5932-.0688,2.0942,.229,1.5029,.89208-.0005,1.12162-.4561,1.51122-1.3667,1.16752-1.3208,.8237-2.6411,1.6479-3.9619,2.4717,1.5029,.9609,6.5581,.1372,9.8374,.206,.0908-.11422,.1816-.229,.2729-.34322,2.5352,.11232,2.191,1.02882,1.4346,2.05952-.2046,.023-.4097,.0459-.6147,.0684-.524,.5723-.9566,.5952-1.2979,.0688-3.5469,.9502-7.5205,1.0411-11.6138,.8926-2.2773,.2861-4.2129,.1714-5.3969-.8242h0Z"/>
   <path class="b"
         d="M.52147,8.18628c-.6187-.91652-.895-1.7412,1.23-1.9229,.0908-.18262,.1816-.3657,.2729-.5493,4.0757-.4057,9.0401-.4399,15.3028,.0689,2.7338-1.0708,3.0527,2.4189,1.5713,1.9223-6.126,.3213-12.252,.5269-18.377,.481H.52147Z"/>

</g>
</svg>
