<?xml version="1.0" encoding="UTF-8"?>
<svg xmlns="http://www.w3.org/2000/svg"
     version="1.1"
     width="34.14331546mm"
     height="41.89316375mm"
     viewBox="0.00000000 0.00000000 96.78422007 118.75232785">

<g transform="scale(5.18422646)">   <defs>
      <style type="text/css"><![CDATA[
      .a {
        stroke: #000;
        stroke-linecap: round;
        stroke-linejoin: round;
        stroke-width: 0.01px;
      }
    ]]></style>
   </defs>
   <path class="a"
         d="M7.9225.05245A.91071.91071,0,0,1,7.553.1009a1.17392,1.17392,0,0,0-.38764.05451.32038.32038,0,0,1-.20594.03635A.54814.54814,0,0,0,6.65055.319c-.11508.0848-.321.22411-.44821.315a3.65013,3.65013,0,0,0-.4361.36341.61516.61516,0,0,1-.28467.20594c-.06057,0-.13931.15748-.24834.50272a1.43378,1.43378,0,0,1-.51483.83586,1.26029,1.26029,0,0,0-.39976.54512,1.71649,1.71649,0,0,1-.13326.37553.68663.68663,0,0,0-.07268.30284,1.05084,1.05084,0,0,1-.03029.29679c-.03634.12114.01211.27862.212.69655a5.88512,5.88512,0,0,0,.39976.7026.6306.6306,0,0,1,.13931.25439.21861.21861,0,0,0,.12114.15142.37884.37884,0,0,1,.15748.23016,4.1906,4.1906,0,0,0,.56329.92065c.11508.13931.13931.35736.12719.96911,0,.04845.02423.30284.06057.56329A1.15615,1.15615,0,0,1,5.8571,9.144c-.103.19382-.46033.3089-1.05391.33919a4.23459,4.23459,0,0,0-1.18109.1393,1.5786,1.5786,0,0,1-.98728.02423,1.44137,1.44137,0,0,0-.3937-.06057,1.1259,1.1259,0,0,1-.32707-.01817c-.43-.06662-.44216-.06057-1.09025.9146a.89242.89242,0,0,1-.23622.29073,2.81513,2.81513,0,0,0-.51483.7874c0,.04845-.02423.218-.04846.37552a1.08872,1.08872,0,0,0,.02423.50878,5.90366,5.90366,0,0,1,.12719,1.47789,2.088,2.088,0,0,0,.36948,1.32646,1.1209,1.1209,0,0,1,.23621.321,1.06094,1.06094,0,0,0,.36342.3513c.16354.09691.29679.20594.29679.24228a1.354,1.354,0,0,0,.46032.27256l.46639.212.18776-.12114c.103-.06662.2665-.16959.36341-.2241.33919-.212.527-.43.533-.64809a1.81034,1.81034,0,0,0-.55723-.99939,3.30673,3.30673,0,0,1-.41187-.5633c-.18777-.32707-.19382-.36341-.1272-.60569a1.996,1.996,0,0,0,.03029-.64809c-.03029-.29678-.01817-.41792.05451-.527.08479-.13325.08479-.15142-.03029-.2665-.09691-.09691-.109-.15142-.06057-.24228.07269-.13931.15143-.16353.75712-.212a1.30666,1.30666,0,0,0,.62992-.15748.54.54,0,0,1,.26044-.11508.86753.86753,0,0,0,.29074-.09085A2.38889,2.38889,0,0,1,5.53,11.16084c.07874.06057.11508.18171.1272.47244a3.09263,3.09263,0,0,0,.103.64809c.0848.24227.0848.26045-.04845.40581-.07874.0848-.13325.19988-.11508.25439.01211.05451.06057.26651.109.46638a2.72391,2.72391,0,0,1,.0848.67232.65648.65648,0,0,0,.12114.4785.62093.62093,0,0,1,.13325.30284,1.934,1.934,0,0,0,.64809.75712,1.25276,1.25276,0,0,1,.29073.218,1.003,1.003,0,0,0,.95094.34525,7.62182,7.62182,0,0,1,1.82918.0424.46935.46935,0,0,1,.35162.563l-.00637.02453a.756.756,0,0,0-.06663.25439,4.41959,4.41959,0,0,1-.56329,1.21138.249.249,0,0,0-.103.16354.43743.43743,0,0,1-.13325.218,1.36044,1.36044,0,0,0-.24228.43,2.02281,2.02281,0,0,1-.59358.82979,1.41966,1.41966,0,0,0-.315.27862A1.92594,1.92594,0,0,0,7.79531,22.463a1.66545,1.66545,0,0,0,1.22349.43.54124.54124,0,0,1,.29679-.006.55921.55921,0,0,0,.29679-.01212c.12114-.03028.30285-.06057.40581-.07874a1.36509,1.36509,0,0,0,.38764-.12113c.103-.05452.20594-.0848.22411-.06663a.70732.70732,0,0,0,.315-.109,2.13539,2.13539,0,0,1,.46638-.18171.47219.47219,0,0,0,.29073-.218.81919.81919,0,0,1,.29673-.27862,1.66805,1.66805,0,0,0,.315-.20593,3.7811,3.7811,0,0,1,.527-.33313l.41187-.22411.33312.20594c.18777.109.46033.2665.60569.3513a3.64925,3.64925,0,0,1,.37554.24833,1.17043,1.17043,0,0,0,.60569.19988.67965.67965,0,0,1,.18777.06057,2.38834,2.38834,0,0,0,.43608.09085.78842.78842,0,0,0,.59964-.0424,1.02525,1.02525,0,0,1,.49667-.08479.66739.66739,0,0,0,.51483-.13931,1.34429,1.34429,0,0,1,.40582-.19382.397.397,0,0,0,.2544-.19988.45734.45734,0,0,1,.1817-.19988.23812.23812,0,0,0,.09086-.20594,1.04533,1.04533,0,0,1,.1817-.44216c.16959-.26045.17564-.27256.07873-.424-.05451-.08481-.13929-.212-.1817-.28468a.49693.49693,0,0,0-.32708-.16959c-.212-.03635-.2665-.01817-.4482.14535-.24833.218-.2241.20594-.41792.12114a.228.228,0,0,0-.27862.02423c-.17565.12114-.41793.03634-.59964-.19988-.07268-.103-.16959-.18171-.2241-.18171a3.85913,3.85913,0,0,1-1.08419-1.13869c-.09085-.22411-.09085-.26045-.00606-.43005a.96735.96735,0,0,0,.09691-.39369,1.56027,1.56027,0,0,1,.12114-.49061,1.547,1.547,0,0,0,.12114-.47244.8239.8239,0,0,1,.11508-.36947c.13931-.20594.103-.33313-.24227-.94488a3.70289,3.70289,0,0,1-.29679-.67232.64748.64748,0,0,0-.43-.53906.63817.63817,0,0,1-.27256-.24834c-.13931-.27862-.49667-.424-1.12053-.45427a1.33746,1.33746,0,0,0-.67838.06057.35868.35868,0,0,1-.25439.04846,7.5834,7.5834,0,0,0-1.72622-.04846c-.60569.07874-.8843.109-1.01756.109a.418.418,0,0,0-.25439.109c-.07874.07874-.1817.103-.43.0848-.1817-.01212-.34524-.01817-.36947-.02423-.12114-.00606-.321-.43-.36947-.7874a2.80761,2.80761,0,0,1,.07874-1.3628,2.67161,2.67161,0,0,0,.07874-.424.84169.84169,0,0,1,.46032-.62991.33422.33422,0,0,1,.3513.01211,1.88642,1.88642,0,0,0,.533.13325c.19988.01817.3937.03634.424.0424a3.52778,3.52778,0,0,0,.3937-.06057,3.52135,3.52135,0,0,1,.533-.06663,1.66787,1.66787,0,0,0,.41187-.06662.72511.72511,0,0,1,.36948-.03029,2.13476,2.13476,0,0,0,1.01756-.28467.76.76,0,0,1,.29073-.109,3.85232,3.85232,0,0,0,1.10236-.4906,1.51822,1.51822,0,0,1,.36341-.20594,3.23855,3.23855,0,0,0,.44821-.24833.87758.87758,0,0,1,.33919-.14537c.18171,0,.59963-.46032.75711-.8298a1.09219,1.09219,0,0,0,.103-.60569,1.02739,1.02739,0,0,0-.44821-.848c-.48455-.424-.60569-.50273-.7874-.527a1.38048,1.38048,0,0,1-.44821-.17565,1.14374,1.14374,0,0,0-.44216-.16353,1.19979,1.19979,0,0,1-.44821-.16354,1.76706,1.76706,0,0,0-.36341-.17565.61614.61614,0,0,1-.34525-.321,1.55632,1.55632,0,0,0-.424-.36947,2.09925,2.09925,0,0,1-.46032-.36947,1.17482,1.17482,0,0,0-.58147-.34524,1.44992,1.44992,0,0,1-.78134-.3937c-.13931-.16959-.15142-.218-.11508-.49667a2.42749,2.42749,0,0,0-.20594-1.45366.98961.98961,0,0,1-.12719-.321.58726.58726,0,0,0-.16354-.25439c-.09691-.09086-.34524-.35736-.56329-.59964C8.84315.20387,8.20112-.1232,7.9225.05245ZM9.28531,5.63692a4.7629,4.7629,0,0,0,1.4052.87219,1.31377,1.31377,0,0,1,.48455.38765c.04846.06662.11508.12113.15143.12113a3.77118,3.77118,0,0,1,.56329.30285,2.80653,2.80653,0,0,0,.72077.32707,1.12006,1.12006,0,0,1,.72077.41187l.1272.1696-.12115.16353a1.675,1.675,0,0,1-.95094.41793.91828.91828,0,0,0-.38764.09085,1.51693,1.51693,0,0,1-.41792.11508.88967.88967,0,0,0-.32708.09086.64274.64274,0,0,1-.2241.07874.41937.41937,0,0,0-.18777.06057.36587.36587,0,0,1-.24227.04845,5.813,5.813,0,0,0-.75712-.06057A3.08958,3.08958,0,0,1,9.11571,9.156a.42286.42286,0,0,0-.25439-.04845.702.702,0,0,1-.29073-.0424.70042.70042,0,0,1-.24228-.62992A1.26317,1.26317,0,0,0,8.27986,7.981,4.25709,4.25709,0,0,1,8.189,7.07848a1.67982,1.67982,0,0,1,.109-.86614c.06057-.12113.13325-.2241.16354-.2241s.06662-.06057.09085-.13931c.03634-.15748.29679-.46638.3937-.46638A1.39743,1.39743,0,0,1,9.28531,5.63692Zm3.63414,10.16955a.82293.82293,0,0,1,.09086.24228.35688.35688,0,0,0,.09691.1817.88086.88086,0,0,1,.11508.46639,1.871,1.871,0,0,0,.09085.50272c.06663.11508.06057.16959-.03028.33919-.103.19382-.103.2241-.01212.52089a1.5417,1.5417,0,0,1-.14536,1.4052c-.15143.33313-.43.60569-.58147.5633a1.12413,1.12413,0,0,0-.533.315.86174.86174,0,0,1-.78135.2665,1.30617,1.30617,0,0,0-.51483.06057.63881.63881,0,0,1-.66626-.13931c-.23622-.16959-.26651-.28467-.16354-.642a1.11917,1.11917,0,0,1,.62386-.69049.7895.7895,0,0,0,.38159-.62386,1.62848,1.62848,0,0,1,.49666-.79951.89928.89928,0,0,0,.23017-.30891.47331.47331,0,0,1,.11508-.218,1.50844,1.50844,0,0,0,.18776-.94487c-.00605-.33313.01212-.39976.15143-.533.103-.109.19382-.14537.27256-.12114a.35465.35465,0,0,0,.2241-.01817C12.70746,15.546,12.81649,15.60054,12.91945,15.80647ZM16.705,20.40366c.103.103.109.13931.04846.27862-.07874.16354-.45427.38764-.58147.34525a.29157.29157,0,0,1-.13325-.38765,1.12345,1.12345,0,0,1,.50272-.35735A.45775.45775,0,0,1,16.705,20.40366Z"/>

</g>
</svg>
