<?xml version="1.0" encoding="UTF-8"?>
<svg xmlns="http://www.w3.org/2000/svg"
     version="1.1"
     width="69.12029426mm"
     height="44.44982960mm"
     viewBox="0.00000000 0.00000000 195.93159525 125.99951606">

<g transform="scale(5.79267105)">   <defs>
      <style type="text/css"><![CDATA[
      .b {
        fill-rule: evenodd;
        stroke: #000;
        stroke-miterlimit: 10;
        stroke-width: .15px;
      }
    ]]></style>
   </defs>
   <path class="b"
         d="M3.91279,12.34232c-.6933-.20209-.9394-.67479-.7383-1.41749,.6934-.2251,1.209-.54051,1.545-.9453,1.74612-.45021,3.7168-.9004,6.1806-1.3506,9.27052-1.64261,15.56352-3.2851,19.8184-4.9287,.6494-.3374,1.2988-.6753,1.9482-1.0127,.5371-.1123,.8955,.0454,1.0752,.4727-.7099,1.4917-1.9306,2.7856-4.9717,3.376-2.7705,1.2436-6.5214,2.0654-10.5478,2.768-4.7695,1.0127-9.5391,2.0254-14.3096,3.03809h0Z"/>
   <path class="b"
         d="M.08369,12.95024c.2686-.7202,1.1651-1.1704,2.6875-1.3506,.5371-.2026,1.0752-.4052,1.6123-.6074-.3252,1.4629,.9512,1.936,2.95612,1.958,2.26758,.5615,2.332,1.439,2.082,2.3628-2.95312,.5327-4.35352-.1055-5.84472-.6748-2.1758-.1108-2.9356-.8545-3.4932-1.688H.08369Z"/>
   <path class="b"
         d="M25.07489,1.06694h1.8145c.1787-1.0351,.7168-1.2602,1.6123-.6748,.4023,1.148,.8271,2.2734,1.4101,3.2407,.8067-.2026,1.4336-.2251,1.8819-.0678,.0273,1.6235-1.9903,2.1401-4.2998,2.498-1.5225-1.665-2.3291-3.3306-2.419-4.9961h0Z"/>
   <path class="b"
         d="M14.05739,11.32964c.3583-.3828,.7167-.7651,1.0751-1.1475,.8956-.1572,1.4327,.2251,1.6124,1.1475-1.1875,1.1475-1.3887,2.2051-.6045,3.1733-1.7373,.5191-3.4844,1.1636-5.0391-.3374-.0674-.833,.1797-1.666,.4707-2.498,.8281-.1128,1.6572-.2251,2.4854-.3379h0Z"/>
   <path class="b"
         d="M18.55929,12.61232c.7832-.65229,1.5664-1.30519,2.3506-1.95749,.2685,.3828,.7168,.585,1.34372,.6074-.76952,2.3423,.42678,4.166,4.90428,2.6333,1.3614-.45021,1.0508,.29979,1.0752,.8101-.9902,1.4692-3.8007,1.9526-7.1211,2.1606-1.6357-.7881-2.7109-2.0258-2.5527-4.25391h0Z"/>
   <path class="b"
         d="M25.88161,21.65974c-.56352-.7422-.02442-1.4849,.67178-2.228,1.626-2.8526,.8887-4.19341,.4698-5.7388,1.0869-.2588,2.1162-.686,3.02342-1.4854,.94338,1.5752,1.63968,3.1509,.60448,4.7261-2.04,3.27-3.4502,4.1675-4.76948,4.7261h0Z"/>

</g>
</svg>
