<?xml version="1.0" encoding="UTF-8"?>
<svg xmlns="http://www.w3.org/2000/svg"
     version="1.1"
     width="39.54677063mm"
     height="49.60406722mm"
     viewBox="0.00000000 0.00000000 112.10100642 140.61000632">

<g transform="scale(6.53780177)">   <defs>
      <style type="text/css"><![CDATA[
      .b {
        stroke: #000;
        stroke-miterlimit: 10;
        stroke-width: .15px;
      }
    ]]></style>
   </defs>
   <path class="b"
         d="m6.7289.27646c-.76416.32629-2.11127,1.47144-2.23401,1.65961-.26312.40332-.06586.96222,0,1.14893.24182.68524.74188,1.08936.89362,1.21277.86499.70349,1.64636,1.50433,2.48932,2.23401,1.85779,1.60815,1.63696,1.75427,2.68085,2.48938.22327.15723.5957.50909,1.34045,1.21277.3418.32294.54517.52631.57446.82977.02734.28339-.10614.55988-.51062,1.0213-.57605.65717-1.14447,1.05377-1.46808,1.27655-1.94342,1.33783-1.9024,1.21893-2.74469,1.85107-.37952.28479-.60236.46991-1.0213.70215-.6358.35242-.91699.36639-1.53192.63831-.82422.36438-1.37561.80634-1.72339,1.08508-.56042.44922-.59631.59937-1.53192,1.59576-1.31738,1.40302-1.97888,1.88556-1.85107,2.10638.10638.18378.68323.05469,1.21277-.06384.22614-.0506.638-.14557,1.08514-.383.27698-.14709.6319-.38293,1.40424-1.27655,1.09186-1.26318,1.14191-1.67023,1.78723-1.91492.05231-.01984.39655-.07703,1.08508-.19147,1.18872-.19757,1.2887-.19714,1.53192-.25531.28082-.0672.75132-.21222,1.85107-.95746,1.69775-1.15051,6.5108-4.61139,6.82977-5.42554.07355-.18774.35657-.97296.06384-1.78723-.22083-.61438-.6673-.96124-.89362-1.14893-1.02496-.8501-4.30505-5.13531-5.93616-6.57452C9.39967.73312,8.48897-.03067,7.44594.08713c-.37207.04205-.71692.18927-.71704.18933Z"/>

</g>
</svg>
