<?xml version="1.0" encoding="UTF-8"?>
<svg xmlns="http://www.w3.org/2000/svg"
     version="1.1"
     width="16.84554808mm"
     height="31.10274868mm"
     viewBox="0.00000000 0.00000000 47.75121046 88.16528710">

<g transform="scale(6.05673917)">   <defs>
      <style type="text/css"><![CDATA[
      .a {
        stroke: #000;
        stroke-miterlimit: 10;
        stroke-width: 0.15px;
      }
    ]]></style>
   </defs>
   <path class="a"
         d="M3.89059.22467A5.75673,5.75673,0,0,0,2.10014,1.649C.80979,2.89271.73824,3.38547.79484,3.67148a.65772.65772,0,0,0,.25532.44681c.24717.15032.4999-.05737.748.06514.19747.09751.26029.3392.33342.68827a8.93621,8.93621,0,0,1,.2743,1.86485,7.41026,7.41026,0,0,1-.111,1.46685A8.64968,8.64968,0,0,1,1.7842,9.863c-.343.9057-.65462,1.64718-1.03916,2.58035C.132,13.931-.0194,14.33581.12648,14.451c.16582.13091.62824-.18135,1.05134-.5029,1.71728-1.30511,2.05938-2.21046,3.45123-3.629C5.97164,8.95081,6.65177,8.6529,7.09375,7.57525a6.86737,6.86737,0,0,0,.35436-1.39171c.01406-.07757.24086-1.09762.30556-1.68476.0608-.55168.31488-2.85723-1.15031-3.923A3.27522,3.27522,0,0,0,3.89059.22467Z"/>

</g>
</svg>
