<?xml version="1.0" encoding="UTF-8"?>
<svg xmlns="http://www.w3.org/2000/svg"
     version="1.1"
     width="33.35254497mm"
     height="18.59994591mm"
     viewBox="0.00000000 0.00000000 94.54271924 52.72424540">

<g transform="scale(6.49187847)">   <defs>
      <style type="text/css"><![CDATA[
      .b {
        stroke: #000;
        stroke-miterlimit: 10;
        stroke-width: .15px;
      }
    ]]></style>
   </defs>
   <path class="b"
         d="M3.83235,2.92871c-.27791,.19232-.71564,.48225-1.2766,.79787-1.00101,.56322-1.32758,.60801-1.75532,1.05319-.20435,.21269-.85613,.89103-.70213,1.62766,.12784,.61147,.7397,.92253,1.43616,1.2766,.4452,.22633,.92435,.46171,1.43617,.31915,.26337-.07336,.30219-.18183,.73405-.44681,.51473-.31583,.95348-.46478,1.2766-.57447,.41319-.14027,1.02024-.30138,1.78723-.35106,.15459-.09394,.38262-.22291,.67021-.35106,.36695-.16352,1.25201-.5465,2.42553-.51064,.27444,.00839,.66096,.04262,1.11703,.15957,.00706,.16665,.02312,.40989,.06383,.70213,.06554,.47063,.10146,.70969,.25532,.89362,.15007,.1794,.3326,.24807,.60638,.35106,.29961,.11271,.52279,.19667,.70213,.09574,.18696-.10522,.12362-.29731,.35107-.44681,.07498-.04928,.19994-.07608,.44681-.12766,.36581-.07643,.44898-.06053,.47872-.12766,.05227-.11797-.11147-.3772-.29053-.51305-.02859-.02169-.06602-.04665-.06054-.06142,.01977-.05325,.53363,.19922,.70213,.03191,.07732-.07677,.03486-.19521,0-.51064-.05961-.53937,.02601-.54176-.03191-.79787-.12686-.56092-.58948-.77906-.51064-.92553,.03529-.06555,.17444-.10824,.6383,0,.12611-.40006,.24352-1.01349,.06383-1.69149-.12781-.48225-.3555-.80687-.6711-1.25684-.24229-.34545-.6121-.81135-1.14804-1.29635-.00031,.05359-.00796,.22161-.12766,.31915-.15279,.1245-.3795,.04563-.51064,0-.31229-.10866-.49292-.34912-.57447-.47872-.221,.06656-.57617,.16596-1.02127,.25532-.91729,.18416-1.14165,.10988-1.69149,.31915-.55878,.21267-.93816,.52197-1.11703,.67021-.47586,.39437-.77934,.82164-.82978,.89362-.39318,.56107-.3857,.83103-.70213,.95745-.24934,.09961-.30994-.04564-.79787,.03191-.42429,.06744-.51852,.19954-.76596,.15957-.15755-.02545-.37519-.12034-.60638-.44681Z"/>

</g>
</svg>
