<?xml version="1.0" encoding="UTF-8"?>
<svg xmlns="http://www.w3.org/2000/svg"
     version="1.1"
     width="29.68439920mm"
     height="33.60753384mm"
     viewBox="0.00000000 0.00000000 84.14482439 95.26542881">

<g transform="scale(7.36351710)">   <defs>
      <style type="text/css"><![CDATA[
      .b {
        stroke: #000;
        stroke-miterlimit: 10;
        stroke-width: .15px;
      }
    ]]></style>
   </defs>
   <path class="b"
         d="M5.75974,3.19325c-.01096,.22379,.01923,.4248,.03253,.50314,.02053,.12091,.12888,.70372,.625,1.28125,.43817,.51007,.60323,.34599,.9375,.75,.42014,.50779,.58392,1.28011,.46864,1.93141-.12592,.71141-.54642,1.06163-.34396,1.39294,.07433,.12164,.22356,.18128,.52203,.30057,.21443,.0857,.21919,.04457,1.0205,.20758,.14863,.03024,.30369,.06035,.45024,.02124,.18104-.04831,.30471-.16752,.39309-.27013,1.68013-1.95069,1.4795-3.46111,1.47948-3.4612-.02684-.20205-.10007-.71391-.42753-1.24741-.32639-.53176-1.17563-1.52535-1.86533-2.10796-.05996-.05065-.16105-.15222-.18011-.28508-.04865-.33921,.44675-.44141,.69088-.68189,.24902-.2453,.15001-.73708-.05485-1.03473-.21295-.30941-.5635-.38682-.62029-.39848-.63685-.13079-1.2185,.41739-1.84531,1.00813-.54953,.51791-1.23819,1.18457-1.28253,2.09061Z"/>
   <path class="b"
         d="M8.63602,7.16514c-.47494,.37923-.62038,.91528-.6838,1.10786-.27402,.83214-1.01562,1.32227-1.97245,1.95464-1.51698,1.00259-3.87815,1.61128-4.65625,.78125-.17242-.18393-.28479-.45736-.53125-.46875-.35945-.01662-.80637,.53326-.70181,.90699,.0344,.12297,.12046,.19808,.16381,.23494,.53134,.45191,.80479,.65982,1.22158,.85033,.5194,.23742,1.09855,.31458,1.66948,.32798,1.5376,.03609,3.10762-.39351,4.32297-1.33607,.44463-.34483,1.58691-1.37819,1.93184-2.95651,.10812-.49475,.23537-1.49253-.10787-1.65268-.2166-.10106-.54936,.16465-.65625,.25Z"/>

</g>
</svg>
