<?xml version="1.0" encoding="UTF-8"?>
<svg xmlns="http://www.w3.org/2000/svg"
     version="1.1"
     width="26.72674703mm"
     height="45.71628127mm"
     viewBox="0.00000000 0.00000000 75.76078065 129.58952395">

<g transform="scale(5.79267105)">   <defs>
      <style type="text/css"><![CDATA[
      .b {
        fill-rule: evenodd;
        stroke: #000;
        stroke-miterlimit: 10;
        stroke-width: .15px;
      }
    ]]></style>
   </defs>
   <path class="b"
         d="M12.34574,.10216c1.0088,1.3399,1.0244,2.6001-1.1426,3.6851-.9365,.7661-1.873,1.5317-2.8095,2.2974-1.377,1.3432-1.0196,2.915,.5234,4.6425,1.4551,1.9063,1.9639,3.9795-.9043,6.6524-1.61329,1.6069-3.4668,2.3403-4.667,3.1821-.5898,1.6572-2.2842,2.0025-3.001,1.5562-.5234-.6704-.2851-1.1485,.7149-1.4356,1.38081-1.0693,2.7617-2.1382,4.1426-3.207,1.5166-1.4717,1.8984-2.9951,.6191-4.5947-2.46289-2.5005-1.7471-4.9019-.1426-7.2744C7.90145,3.72474,10.12404,1.61006,12.34574,.10216h0Z"/>

</g>
</svg>
