<?xml version="1.0" encoding="UTF-8"?>
<svg xmlns="http://www.w3.org/2000/svg"
     version="1.1"
     width="32.56843942mm"
     height="20.48790730mm"
     viewBox="0.00000000 0.00000000 92.31994918 58.07598524">

<g transform="scale(3.09600052)">   <defs>
      <style type="text/css"><![CDATA[
      .a {
        stroke: #000;
        stroke-miterlimit: 10;
        stroke-width: 0.15px;
      }
    ]]></style>
   </defs>
   <path class="a"
         d="M5.10047,6.22793c-1.2481.0562-3.1016-.63961-3.6299-1.8852a.98568.98568,0,0,1,.3681-1.3233c.335-.2417.7862-.1728,1.1104-.3535.374-.208.4912-.6167.7998-.8999a10.73418,10.73418,0,0,1,1.335-.9966,6.12,6.12,0,0,1,2.8916-.688,29.95384,29.95384,0,0,1,3.1494.0703,30.06348,30.06348,0,0,0,3.0849.2647c3.4209.0327,6.8291.3584,10.2334.6714a22.78142,22.78142,0,0,0,3.1465.1289c.4287-.0186,1.1153-.0752,1.4121.3179.627.8315-.5195.7861-.999.7749a15.53163,15.53163,0,0,0-4.9434.3745c-3.0185.9311-5.8437,2.2505-9.1601,2.4458C10.828,5.31143,8.05937,6.09513,5.10047,6.22793Z"/>
   <path class="a"
         d="M4.75567,5.66883a3.21075,3.21075,0,0,1,2.1651-.5429c.6826.1425,1.7275-.0542,2.289.4199a.98386.98386,0,0,1,.4776.9214,8.08579,8.08579,0,0,1-1.5586,3.9223,6.36249,6.36249,0,0,0-1.1612,3.3994,4.88715,4.88715,0,0,0-.0068,1.274c.084.2456.2022.2221.2988.4399a3.74758,3.74758,0,0,1,.2793,1.1748c.1094,1.1436-.1884,1.8213-1.2793,1.9756a11.90423,11.90423,0,0,1-1.539,0,8.69127,8.69127,0,0,1-1.4463-.3066,16.00225,16.00225,0,0,1-.1651-1.8057,23.3309,23.3309,0,0,0-.2519-2.7988,9.77678,9.77678,0,0,1,.2832-2.5581,11.63357,11.63357,0,0,1,1.6152-5.2388"/>
   <path class="a"
         d="M22.99987,3.81732c.0615-.59769-.1299-1.51079.2246-2.03569.4062-.6006,1.5742-.622,2.2353-.5381a4.30218,4.30218,0,0,1,2.0215.7984c.6768.6352.374,1.7002.2695,2.4995-.1279.9883-.2705,1.9995-.3623,2.9995-.121,1.3237-.2812,2.6382-.2783,3.9692.001.8296-.126,1.6065-.1426,2.4283a3.5434,3.5434,0,0,1-.4531,1.9682,2.81079,2.81079,0,0,1-.9795.607,2.679,2.679,0,0,1-.8535.2812,1.97731,1.97731,0,0,1-1.582-.8877c-.9463-1.2353-.7031-2.8374-.7031-4.3579a19.07958,19.07958,0,0,1-.0079-2.4995c.1182-.8555.337-1.6821.4434-2.5361C22.94317,5.61123,22.90507,4.72453,22.99987,3.81732Z"/>
   <path class="a"
         d="M6.43537,17.788a9.1598,9.1598,0,0,0-1.3896.3457,1.20546,1.20546,0,0,1-1.0196.0215c-.7158-.3067-1.2246-1.208-2.0586-1.2168-.6318-.0069-1.2177-.125-1.8349-.16411-.4365-1.20509,1.7305-1.147,2.2744-1.47609.5762-.3491.9277-.9726,1.5928-1.185a18.8944,18.8944,0,0,1,3.2236-.4287c1.002-.1265,2.0176-.1563,3.0186-.2823a65.44784,65.44784,0,0,1,8.0859-.3208c1.0225-.0009,1.8633-.2846,2.8965-.2856q1.80765-.0015,3.6142,0h2.8145c.4619,0,2.5322-.27,2.0059.7202-.1719.3237-.6875.2202-.9415.3394a6.409,6.409,0,0,1-.8925.4003,2.3748,2.3748,0,0,0-1.2862,1.254,2.955,2.955,0,0,0-.3213.8291,6.91478,6.91478,0,0,1-.0976.7451c-.249.5713-2.0567.2832-2.6817.2832-2.5566,0-5.0517.1933-7.5996.28319-2.75.09571-5.5283.14451-8.3027.14551A9.62691,9.62691,0,0,0,6.43537,17.788Z"/>

</g>
</svg>
