<?xml version="1.0" encoding="UTF-8"?>
<svg xmlns="http://www.w3.org/2000/svg"
     version="1.1"
     width="36.89457612mm"
     height="29.29879275mm"
     viewBox="0.00000000 0.00000000 104.58297092 83.05172302">

<g transform="scale(7.01067263)">   <defs>
      <style type="text/css"><![CDATA[
      .a {
        stroke: #000;
        stroke-miterlimit: 10;
        stroke-width: 0.15px;
      }
    ]]></style>
   </defs>
   <path class="a"
         d="M9.99342,1.397a2.53386,2.53386,0,0,0-1.92851.38941,1.23128,1.23128,0,0,0-.19815,1.77193,1.87956,1.87956,0,0,0,.49136.29392A6.84005,6.84005,0,0,1,10.1869,4.95939a2.3732,2.3732,0,0,1,.82527,1.90029,11.425,11.425,0,0,1-.571,1.69663c-.15368.57851.01273,1.34749.59113,1.50161.58451.15575,1.08991-.40907,1.43208-.90791A10.76612,10.76612,0,0,0,14.307,6.46375c.40465-1.02722.76121-1.93233.35962-2.76176a3.35846,3.35846,0,0,0-.959-1.04957,5.189,5.189,0,0,0-1.44812-.912A7.55013,7.55013,0,0,0,9.99342,1.397Z"/>
   <path class="a"
         d="M2.08634,4.969A9.52767,9.52767,0,0,0,.44087,6.9734,2.24555,2.24555,0,0,0,.0756,8.13373c.034,1.15957,1.83574,1.70688,1.943,1.74026a4.18378,4.18378,0,0,0,1.98686.055C6.17005,9.59922,8.54362,8.49956,8.431,7.80135c-.0396-.2455-.381-.40682-.51064-.46808-.24993-.1181-.43824-.09625-1.39474-.10551-.27767-.00268-.4165-.004-.44116-.00611A2.20857,2.20857,0,0,1,4.56121,6.5631a1.836,1.836,0,0,1,.31456-2.22026,3.1305,3.1305,0,0,1,2.3366-.48757c.46.0971.98761.26336,1.36165-.02139a1.364,1.364,0,0,0,.3263-.42464c.39527-.68557,1.4311-2.23682,1.11775-3.08593C9.741-.42751,8.025.73483,7.45115,1.04153A23.6078,23.6078,0,0,0,2.08634,4.969Z"/>
   <path class="a"
         d="M8.21825,6.52475c-.17082-.07085-.27488-.004-1.14894.34043-1.21508.47881-1.40637.50425-1.57446.766-.16727.26042-.03706.3274-.12766,1.234-.0576.57632-.13535.80077-.25532,1.82979-.06777.58126-.08106.83642.08511.97872.18419.15774.48514.08794.68085.04255a2.65056,2.65056,0,0,0,1.14893-.68085,6.19943,6.19943,0,0,0,1.234-1.19149,3.30892,3.30892,0,0,0,.46808-1.40425C8.73631,8.36326,8.87451,6.79694,8.21825,6.52475Z"/>

</g>
</svg>
