<?xml version="1.0" encoding="UTF-8"?>
<svg xmlns="http://www.w3.org/2000/svg"
     version="1.1"
     width="39.87068508mm"
     height="95.42817715mm"
     viewBox="0.00000000 0.00000000 113.01935884 270.50502663">

<g transform="scale(5.28493839)">   <defs>
      <style type="text/css"><![CDATA[
      .a {
        stroke: #000;
        stroke-miterlimit: 2.61313;
        stroke-width: 0.28346px;
      }
    ]]></style>
   </defs>
   <path class="a"
         d="M2.84863,10.09668A8.2425,8.2425,0,0,1,5.334,7.396,20.23129,20.23129,0,0,1,9.29785,2.26465a1.38142,1.38142,0,0,1,1.81348-.94482c.31445,1.58643.17969,2.55469-.94043,2.16016a2.34738,2.34738,0,0,1-1.6123,2.43066C8.02246,6.96973,7.43945,7.916,6.54395,8.07129q-2.1167,2.90259-3.69531,2.02539Z"/>
   <path class="a"
         d="M1.97559,12.59473q-2.21777-.57349-.40332-1.688.80566-1.62012,1.6123-1.3501c1.5-1.395,2.0752-.457,2.35156.13477,1.5,1.689,1.76855,3.12842,1.47754,4.45654q-.33545,1.48535-.67187,2.9707a33.79119,33.79119,0,0,0,.80664,11.81494c1.84082,5.2793,3.61328,13.98828,1.209,17.4873-1.05273.99023-2.64258,3.19629-3.15723,2.9707-.33887-1.08008.2666-2.16113,1.00781-3.24121q-.47021-5.165-.94141-10.33008c-2.00391-2.36914-2.69824-4.51758-1.47754-6.3457-.92871-3.04492-.69238-4.79248-.20117-15.19189q-.80713-.84375-1.6123-1.688Z"/>
   <path class="a"
         d="M4.25977,25.22021c-.43945-1.18311,1.22363-3.77539,2.95508-6.41357A59.94894,59.94894,0,0,1,15.61328,5.30322a38.04617,38.04617,0,0,1,3.627-4.25391Q20.147-.436,21.05469.50928q.50391,1.89038-.33594,2.43066a8.41382,8.41382,0,0,1-1.88086,1.688q-1.94824,3.37573-3.35937,2.70068a21.06287,21.06287,0,0,1-2.75391,5.26611q-.73975,1.89038-1.47852,1.62061C10.06348,17.02,6.9707,21.26416,4.25977,25.22021Z"/>
   <path class="a"
         d="M3.18457,33.66016a1.70943,1.70943,0,0,1,2.01563.81055c-3.0127,4.0957-2.45312,8.19141-.26953,12.28809.3584,1.96875.26953,3.54395-.80566,4.25293C.15039,48.11133-.74121,42.66406.96777,40.61523a12.81366,12.81366,0,0,1,2.2168-6.95508Z"/>

</g>
</svg>
