<?xml version="1.0" encoding="UTF-8"?>
<svg xmlns="http://www.w3.org/2000/svg"
     version="1.1"
     width="42.41683112mm"
     height="12.66599087mm"
     viewBox="0.00000000 0.00000000 120.23671308 35.90365922">

<g transform="scale(5.59901992)">   <defs>
      <style type="text/css"><![CDATA[
      .a {
        stroke: #000;
        stroke-miterlimit: 2.61313;
        stroke-width: 0.28346px;
      }
    ]]></style>
   </defs>
   <path class="a"
         d="M7.11426,1.897q-.25635-.43579-.51318-.87109A23.50777,23.50777,0,0,0,.811,3.42041C-.415,4.92285.24658,5.40527,1.17725,5.74219a12.968,12.968,0,0,0,5.49707.43555q.25708-.43506.51318-.87109A100.39341,100.39341,0,0,0,19.86719,3.13037h1.24609a5.14522,5.14522,0,0,0,0-2.9751,16.10286,16.10286,0,0,0-4.10449.36279C13.71,1.18994,10.4126,2.05371,7.11426,1.897Z"/>

</g>
</svg>
