<?xml version="1.0" encoding="UTF-8"?>
<svg xmlns="http://www.w3.org/2000/svg"
     version="1.1"
     width="22.82578857mm"
     height="41.10618402mm"
     viewBox="0.00000000 0.00000000 64.70303503 116.52154769">

<g transform="scale(5.79267105)">   <defs>
      <style type="text/css"><![CDATA[
      .b {
        fill-rule: evenodd;
        stroke: #000;
        stroke-miterlimit: 10;
        stroke-width: .15px;
      }
    ]]></style>
   </defs>
   <path class="b"
         d="M.24583,5.50913v-.94531c-.4971-.42379,.1289-.59179,1.3818-.832C4.46363,2.22403,7.27515,.79043,9.36693,1.67513c.5713-.0175,1.1416,.05469,1.7129,.7793-.2393,.4258-.4785,.8516-.7178,1.27739-.6826,1.18551-1.5664,2.166-2.543,3.05471-.8476,.7968-1.0322,1.9629-.5527,3.5,.4756,1.3535,.0674,3.4199-.2217,5.3886-.0556,.834,.0371,1.5918,.2764,2.2774-.3125,.3144-.626,.6289-.9395,.94529-.1836,.88871-1.10539,1.25781-2.7636,1.11131-.4981-.834-.4795-2.6308,.0556-5.3886,.0645-1.6954-.0097-3.0665-.3877-3.72271-.3896-1.40629-.5029-2.85159,1.3272-4.55469,.3496-.2598,.4785-.5195,.3867-.77731-.9395-.03909-1.8789-.07619-2.8193-.11139-.6446,.0918-1.2901,.11139-1.9346,.0547H.24583Z"/>
   <path class="b"
         d="M2.29173,2.06582V.78653c.3496-.05471,.7002-.1094,1.0498-.166,.8662-.3653,1.7314-.7774,2.5977-.38871,.1113,.29691,.2216,.59181,.332,.88871,.5156,.11129,.6631,.666,.4424,1.666-.5694,1.1699-1.7871,1.5566-3.0957,1.834-.4785,0-.7373-.3711-.7735-1.1114-.1845-.4804-.3691-.9629-.5527-1.44331h0Z"/>

</g>
</svg>
