<?xml version="1.0" encoding="UTF-8"?>
<svg xmlns="http://www.w3.org/2000/svg"
     version="1.1"
     width="58.15588398mm"
     height="47.68731801mm"
     viewBox="0.00000000 0.00000000 164.85142722 135.17664846">

<g transform="scale(6.38362226)">   <defs>
      <style type="text/css"><![CDATA[
      .b {
        stroke: #000;
        stroke-miterlimit: 10;
        stroke-width: .15px;
      }
    ]]></style>
   </defs>
   <path class="b"
         d="m11.05807,7.7587c-.09906.10959-.17139.1427-.25531.28726-.08514.14664-.11108.28549-.12762.41489-.05402.42294-.02191.86246,0,1.08511.2168.18173.52148.47946.44678.70212-.02905.08661-.10229.12225-.28723.22339-.82751.45248-.87939.56866-.89362.63831-.01935.09467.0509.22269.19153.47873.14069.25623.21106.38431.35101.44681.18964.08466.27026-.04752.5426,0,.14801.02582.29218.12396.57446.31915.38629.26715.38788.32321.54254.38297.2312.08936.4104.03464.76593-.03189.7652-.14322,1.41052-.26398,1.62769,0,.06079.07388.06995.15591.06384.41489-.02423,1.03177-.21338,1.60477-.09576,1.65958.10406.04849.38953-.33627.54254-.54257.33746-.4549.30707-.59113.54254-.76596.13068-.09702.18573-.08899.76599-.25531.52698-.15106.79047-.22659.89362-.28723.50677-.29807.70288-.84534.76593-1.02127.12946-.36133.1004-.57538.12769-1.08511.04309-.80475.15112-.93436.22339-1.62766.05475-.5253.18018-1.72815-.22339-3.03192-.21643-.69928-.42816-.92072-.44684-1.56381-.01385-.47757.09387-.6666,0-1.18088-.07178-.39322-.15686-.40387-.35101-1.05319-.17627-.5896-.06934-.7825-.28729-1.117-.12537-.19241-.20679-.21957-.35101-.47873-.1911-.34329-.2016-.57111-.28723-.57446-.16229-.00635-.25879.80624-.41492.79788-.09052-.00485-.16638-.28378-.19147-.44681-.03595-.23373.02252-.29343-.0351-.36545-.1153-.14417-.38995.0448-.89044.01437-.41571-.02526-.46783-.17816-.70215-.09573-.09473.03333-.12018.0687-.57446.4787-.28674.25876-.31299.27753-.35107.35107-.13019.25143.00116.37122-.12762.60638-.03094.05652-.06079.09024-.41492.38297-.22003.18185-.3241.18149-.35107.28726-.03638.14252.0882.29141.19147.41489.15887.18994.23932.18365.41492.35104.11279.10754.39789.37927.35107.63831-.02148.11902-.10046.16574-.35107.383-.32721.28369-.49084.42554-.57446.54254-.30774.43045-.01904.73621-.28723,1.02127-.28809.30624-.75537.09579-.92554.41489-.09216.17276-.0426.39828-.03192.44681.0451.20541.13672.21133.19153.383.10211.31989-.07928.72729-.28729.95743Z"/>
   <path class="b"
         d="m1.93045,15.86509c-.06659-.05585-.30194-.24448-.67023-.35104-.65784-.19034-1.12762.0582-1.18085-.06384-.05469-.12527.41394-.44781.82977-.73404.69147-.47592.8028-.43948,1.21277-.79788.26294-.22986.3233-.33768.57446-.4787.06946-.039.28687-.1554.82983-.25534.28644-.05273.74469-.13394,1.37231-.09573.47369.02884.51111.09326,1.14893.1915,1.00769.15521,1.05035.01535,1.85107.15958.7251.13058.76117.25806,1.5.38297.61829.10452,1.07611.09692,1.43616.09573,1.56238-.0051,1.39832.11069,3.28723.12769,2.31079.02078,3.46625.03119,3.79791-.06384.20447-.05859.92871-.27972,1.5957,0,.36096.15137.52478.37378.57446.44681.04858.07141.24365.35822.19153.70212-.02966.19559-.10931.21204-.35107.60638-.29944.48843-.28796.64386-.51062.79788-.19098.13214-.39087.15021-.51068.15958-1.23199.09647-1.84802.14471-2.23401.09573-1.01367-.1286-2.04303-.05078-3.06384-.09573-1.38531-.061-2.49799-.06195-4.72339-.06384-.71619-.00061-1.71149-.02167-3.70215-.06381-3.91956-.08298-1.01459-.09393-1.43616-.09576-.70148-.00302-1.17731.06003-1.5-.25531-.11304-.11047-.13409-.19583-.31915-.35107Z"/>
   <path class="b"
         d="m21.04745,16.69489c-.80511-1.01648-2.30872-.72113-2.39362-1.21277-.04932-.28546.41095-.65488.76599-.79788.48602-.19577.78754.02762,1.27655-.25531.24701-.14288.21594-.22638.47876-.35107.25519-.12109.4433-.11768.92554-.15958.55725-.0484.46149-.06644.86169-.09573.96088-.07031,1.44135-.10547,1.883.12766.11743.06198.51349.27103.70209.70215.05585.12762.09808.28516.06384,1.117-.02838.68942-.06067.66153-.06384,1.05319-.00464.57584.06158,1.08426.09576,1.34042.07703.57669.12878.62122.09576.86169-.07001.50955-.37732.85281-.47876.95746-.35468.36578-.76862.47052-1.05316.54254-.47198.11945-.94043.1055-1.11707.09576-.4679-.02576-.68402-.12061-.89362.03192-.21997.16006-.20233.42487-.35101.44681-.17896.0264-.37048-.33264-.44684-.47873-.17615-.3371-.50043-.95767-.35107-1.75534.11798-.63.41119-.72855.383-1.24466-.02545-.46524-.28662-.80383-.383-.92554Z"/>
   <path class="b"
         d="m2.85598,18.06724c.16876-.34113-.07111-.79132-.15961-.95746-.32965-.61874-.8479-.76834-.79785-.95743.05481-.20697.72131-.19971,1.14893-.1915,1.5014.02884,2.25214.04324,2.74469.12766,1.60828.2756,1.75873.60605,3.44684.89362.2019.03439.72241.08722,1.75531.1915,1.50085.15152,2.99426.38852,4.5.47873.8017.04803,1.39941.0585,2.17017.38297.56122.23627.97424.53799,1.23389.7543.13837.00388.35376.00909.61719.01166,1.4848.01453,1.6452-.08191,2.17023.03192.23541.05103,1.27771.27701,1.43616.92551.013.05316.06104.24982-.03192.44684-.26123.5538-1.36212.5293-2.20209.51062-.53143-.01181-.97083-.07288-1.27661-.12766-.01245.08643-.04724.22522-.15961.31915-.11621.09717-.25549.09628-.44678.09573-.8031-.00226-.74762.00665-.79785,0-.56586-.07474-.91431-.32101-1.27661-.47873-.59729-.25998-1.05359-.20145-1.85107-.19147-.50989.00638-1.6059-.09149-3.79785-.28723-1.50781-.13464-1.10907-.17084-3.35107-.41492-.94543-.10294-2.03455-.2601-4.21277-.57446-.15295-.02206-1.66693-.24536-1.65961-.47873.00464-.14655.60364-.11786.79791-.51062Z"/>

</g>
</svg>
