<?xml version="1.0" encoding="UTF-8"?>
<svg xmlns="http://www.w3.org/2000/svg"
     version="1.1"
     width="36.44894186mm"
     height="38.39672408mm"
     viewBox="0.00000000 0.00000000 103.31983229 108.84106357">

<g transform="scale(4.58657835)">   <defs>
      <style type="text/css"><![CDATA[
      .b {
        stroke: #000;
        stroke-miterlimit: 10;
        stroke-width: .15px;
      }
    ]]></style>
   </defs>
   <path class="b"
         d="m10.11031.60876c-.90039.31683-.83313.4509-2.74469,1.46811-1.19226.63446-1.51471.73996-2.01065,1.21277-.38849.37036-.20828.32245-1.02127,1.24466-.27045.30679-.46667.51205-.41489.73404.05069.21725.30948.32416.60638.44681.25061.10352.61728.1449,1.34042.22342.25061.02722.36151.03574.51062,0,.14325-.03433.22894-.08728.60638-.31915.34119-.20959.51303-.31384.57449-.28723.16617.07196.1304.51306.09573.79788-.15256,1.25381-.51059,1.94672-.51065,1.94681-.61218,1.18475-.93054,2.50003-1.43616,3.73404-1.15771,2.82544-1.24371,3.1575-1.91489,4.62766-.43689.95703-.40909.83524-.92554,1.94681-1.09473,2.35626-2.2572,5.13666-2.01065,5.26596.08353.04379.20743-.28024.70215-.54257.57681-.30588.94775-.1514,1.43616-.35104.30685-.12543.56039-.34988,1.05319-1.14896.93008-1.50812.96133-2.2236,1.6915-3.44681.40201-.67343.51111-.65521,1.14893-1.53189.57458-.78973,1.01132-1.52649,2.10638-3.73404.35022-.70599,1.64951-3.33997,3.15958-6.98938.00003-.00009.33795-.81674.76596-2.20212.93893-3.03915.58209-3.43506.44681-3.54257-.17212-.13678-.52133-.09305-1.21277,0-.69116.09302-1.25143.16843-2.04254.44681Z"/>
   <path class="b"
         d="m7.58901,18.19387c-.48889.0864-.87143.13669-1.05319.15958-2.48877.31351-3.39267.0351-4.34042.73404-.2059.15182-.36066.33527-.6702.70215-.82236.97467-1.72305,2.50781-1.37234,2.87231.17923.18628.54367-.07977,1.75531-.44681,1.23935-.37543,2.23395-.51389,3.12766-.63828.2406-.03348.99017-.0968,2.48938-.22342,1.29669-.10953,1.95007-.15543,2.8085-.47873.12234-.04608.56876-.21826,1.11703-.54254,1.24698-.73755,1.90042-1.59909,3.6702-3.73404,1.1503-1.38763,1.78751-2.12534,2.71277-2.96808,1.24481-1.13379,1.72653-1.28778,1.91489-1.34042.70465-.19693,1.33752-.10281,1.78723-.60638.19647-.22.2594-.4437.35107-.79788.48654-1.87988.72415-2.82471.44681-3.06384-.35748-.3082-1.11597-.04123-1.59573.12766-.81934.28842-.85352.60986-1.30853.60638-.80209-.00613-1.13641-1.00833-1.75531-.89362-.32565.06036-2.13043,2.40979-2.77658,3.383-1.26517,1.90552-1.0054,1.39835-2.01065,2.93616-.95093,1.45471-1.20911,1.94788-1.94681,2.64896-.48376.45972-1.03537.97305-1.88297,1.24466-.41541.13312-.97787.23251-1.46811.31915Z"/>

</g>
</svg>
