<?xml version="1.0" encoding="UTF-8"?>
<svg xmlns="http://www.w3.org/2000/svg"
     version="1.1"
     width="10.07568844mm"
     height="30.45467758mm"
     viewBox="0.00000000 0.00000000 28.56103808 86.32827811">

<g transform="scale(6.05673917)">   <defs>
      <style type="text/css"><![CDATA[
      .a {
        stroke: #000;
        stroke-miterlimit: 10;
        stroke-width: 0.15px;
      }
    ]]></style>
   </defs>
   <path class="a"
         d="M.2939,3.65691a6.12913,6.12913,0,0,0-.1875,1.8125,14.01154,14.01154,0,0,0,.69806,3.131,4.31037,4.31037,0,0,1,.2797,1.57231,3.77866,3.77866,0,0,1-.38778,1.38416,4.73976,4.73976,0,0,0-.61916,2.11395.58113.58113,0,0,0,.10308.34883.53812.53812,0,0,0,.41011.15817,1.76824,1.76824,0,0,0,1.18247-.4866,3.86856,3.86856,0,0,0,.82249-1.014A13.00474,13.00474,0,0,0,4.30414,8.63039c.03082-.17593.07964-.83762.17726-2.161.1155-1.56578.17326-2.34867.15625-2.625C4.53051,2.10378,3.79633.09759,3.01029.07519a.70807.70807,0,0,0-.38775.1359c-.574.34091-.61585,1.08084-.79739,1.63332A3.50145,3.50145,0,0,1,.2939,3.65691Z"/>

</g>
</svg>
