<?xml version="1.0" encoding="UTF-8"?>
<svg xmlns="http://www.w3.org/2000/svg"
     version="1.1"
     width="69.24564932mm"
     height="34.07436419mm"
     viewBox="0.00000000 0.00000000 196.28680388 96.58873400">

<g transform="scale(4.20066992)">   <defs>
      <style type="text/css"><![CDATA[
      .a {
        stroke: #000;
        stroke-miterlimit: 10;
        stroke-width: 0.15px;
        fill-rule: evenodd;
      }
    ]]></style>
   </defs>
   <path class="a"
         d="M18.45128,6.03769q-.0015-.0615-.0059-.126a1.03146,1.03146,0,0,0-.5791-.8969c-.7099-.4161-1.249-.0313-1.7695.3764-1.417,1.1104-2.9121,2.5366-4.792,2.666a8.47366,8.47366,0,0,1-2.19329-.0141,1.38173,1.38173,0,0,1-1.11141-1.4698c.1319-.5996,1.2139-.9067,1.7012-1.1621.2939-.1538.5264-.4062.8135-.5625a4.025,4.025,0,0,1,1.4541-.5239,6.98349,6.98349,0,0,0,1.8252-.1133c.8418-.3003,1.7441-.1328,2.4052-.8974a1.30358,1.30358,0,0,0,.1016-1.3809c-.374-.8418-1.375-.8804-2.1396-.873a16.164,16.164,0,0,0-3.1309.26168,12.54035,12.54035,0,0,0-2.1855.79392c-.5186.2202-1.0215.4605-1.5538.6529a3.168,3.168,0,0,0-1.0478.538c-.294.2657-.4727.6416-.7734.9131-.2979.26908-.4903.3282-.52639.7549a3.67926,3.67926,0,0,0,.31739,1.8325,1.44636,1.44636,0,0,1,.1845.6612,4.86773,4.86773,0,0,0,.0586,1.2397c.1348.4234.23051,1.0635.6524,1.3096a3.0789,3.0789,0,0,0,1.5195.123,5.98055,5.98055,0,0,0,1.624-.2055c.9297-.2544,1.9805-.1866,2.89261-.503a13.5297,13.5297,0,0,1,2.167-.6899c.34379-.0542.65629-.1821,1-.2686C16.62318,8.15679,18.49128,7.70269,18.45128,6.03769Z"/>
   <path class="a"
         d="M37.465,15.50939q-.34723-.1473-.69049-.3013c-.69041-.3115-1.44231-.5063-2.09761-.8755a15.77527,15.77527,0,0,1-1.3672-.8916c-.5029-.3554-1.1924-.457-1.7344-.76512-.7012-.398-1.3623-.89888-2.041-1.33548-1.3662-.8789-2.7383-1.7539-4.042-2.726a43.18077,43.18077,0,0,0-5.1172-3.5122c-.9033-.4908-3.9023-2.28132-4.997-1.5806-1.0498.6719,1.1933,2.1738,1.708,2.5537a35.036,35.036,0,0,0,5.9345,3.4619c.63091.2891,1.3125.4693,1.9375.77.917.4419,1.7549,1.1431,2.65241,1.6402.667.3696.94329.7431,1.59469,1.0947,1.0439.5635,2.1357,1.0303,3.207,1.5386,1.8389.8735,3.53031,2.0058,5.3291,2.9531,1.5811.832,3.3477,1.2075,4.8018,2.2905.4863.3628,1.0098.6504,1.5127.9878a6.89775,6.89775,0,0,1,.9101.8872,4.68148,4.68148,0,0,1,.4629.4785c.1153.1597.1241.4073.2784.5503a.66788.66788,0,0,0,.6396.1543c.4336-.2412.34671-1.3354.1045-1.66452-.1484-.20168-.3701-.29978-.5283-.51268-.1123-.1509-.18649-.3345-.3047-.4785C43.53918,17.69,40.36928,16.73987,37.465,15.50939Z"/>
   <path class="a"
         d="M2.93758,10.46929c-.2666-.3203-.0078-.7729-.2207-1.1015-.1728-.2661-.7451-.3711-1.041-.4551-.3799-.1079-.5332-.0195-.7441.3184a7.64455,7.64455,0,0,0-.7149,1.1567,1.07454,1.07454,0,0,0,.26561,1.4014,1.54413,1.54413,0,0,0,.85449.271c.5772.0761,1.875.3388,2.3653-.1011a.69374.69374,0,0,0,.0683-.8618C3.57038,10.732,3.18568,10.76769,2.93758,10.46929Z"/>
   <path class="a"
         d="M18.171,2.75987A23.48137,23.48137,0,0,0,20.64949,3.776,24.471,24.471,0,0,1,23.963,5.32629a14.49786,14.49786,0,0,0,1.6309.812c.5967.2485,1.2168.4131,1.8281.6509.39551.1538.7822.2983,1.1689.4741.1661.0752.3194.1831.4922.2519.291.1163.5879.1548.8848.2701a16.01076,16.01076,0,0,0,2.51861.7114c.36909.0786.74509.07618,1.11319.1416a3.315,3.315,0,0,0,1.085.1582c.0947-.812-.6709-1.1768-1.2627-1.5723-.2627-.1758-.502-.44332-.7871-.6064a3.90709,3.90709,0,0,1-.8955-.6572c-.2481-.253-.4072-.6441-.7256-.80572-.1387-.07078-.3789-.14358-.5352-.20168a3.74314,3.74314,0,0,0-.8847-.2314,12.57063,12.57063,0,0,1-2.7949-1.065,19.39238,19.39238,0,0,1-1.8663-.789,10.07368,10.07368,0,0,1-1.7861-.8775,7.5738,7.5738,0,0,0-1.2217-.8286c-.3652-.1787-.6679-.498-1.0205-.6684a7.259,7.259,0,0,0-2.6465-.1026c-.44139.0025-1.0693-.458-1.4931-.271-.4248.188-.3057,1.042-.1172,1.3711A3.66424,3.66424,0,0,0,18.171,2.75987Z"/>

</g>
</svg>
