<?xml version="1.0" encoding="UTF-8"?>
<svg xmlns="http://www.w3.org/2000/svg"
     version="1.1"
     width="19.36598082mm"
     height="30.68011282mm"
     viewBox="0.00000000 0.00000000 54.89568986 86.96723749">

<g transform="scale(6.92393914)">   <defs>
      <style type="text/css"><![CDATA[
      .b {
        stroke: #000;
        stroke-miterlimit: 10;
        stroke-width: .15px;
      }
    ]]></style>
   </defs>
   <path class="b"
         d="m5.48856.13239c-.11334.47093-.32786,1.15272-.76596,1.88298-.35969.59955-.51748.64401-.95745,1.34043-.44703.70759-.67311,1.2774-.98936,2.07447-.43304,1.09141-.10329.56999-.54255,1.94681-.04911.15393-.15192.46978,0,.73404.09624.16741.29005.30599.47872.31915.41348.02884.73446-.54942,1.14894-1.21277.49414-.79085,1.07912-1.52152,1.59575-2.29787.87682-1.31764,1.31765-1.97905,1.43617-2.10638.29719-.31926.57126-.5601.76596-1.02128.23437-.55514.21352-1.09744.15957-1.46808-.13787-.07434-.35635-.17388-.6383-.2234-.23394-.0411-.38774-.02601-.92553,0-.17167.0083-.43634.02032-.76596.03191Z"/>
   <path class="b"
         d="m3.70132,6.13239c-.49795-.17537-1.18964-.08958-1.40425.28723-.19756.34687.19703.61048.19149,1.40426-.00484.69412-.31172,1.22969-.44681,1.43617-.06537.09991-.3317.36584-.8617.89362-.58845.58599-.69812.68926-.82979.92553-.1226.22001-.41967.75313-.19149,1.11702.09818.15658.28704.27134.47872.28723.20592.01708.36876-.08379.47872-.15957.53266-.36711.87985-.87309,1.05319-1.11702.20024-.28179.41009-.53892.82979-1.05319.93639-1.14739,1.22688-1.21716,1.46809-1.85106.11672-.30675.29122-.78651.09574-1.30851-.02861-.07641-.25322-.6474-.8617-.8617Z"/>

</g>
</svg>
