<?xml version="1.0" encoding="UTF-8"?>
<svg xmlns="http://www.w3.org/2000/svg"
     version="1.1"
     width="55.48068834mm"
     height="44.45162693mm"
     viewBox="0.00000000 0.00000000 157.26807090 126.00459944">

<g transform="scale(5.59901992)">   <defs>
      <style type="text/css"><![CDATA[
      .a {
        stroke: #000;
        stroke-miterlimit: 2.61313;
        stroke-width: 0.28346px;
      }
    ]]></style>
   </defs>
   <path class="a"
         d="M17.23877,2.32471Q20.501-.43213,21.4165.293c.68359,1.17285-1.17285,3.76074-6.74316,8.41748q-3.958,3.991-7.91553,7.98193-2.16138,2.25,1.24609,2.17773a13.66382,13.66382,0,0,1,6.66943-1.30664q1.50293.72656.3667,1.74219-3.40869.76172-6.81641,1.52344a17.28871,17.28871,0,0,1-6.81641,1.45117Q.78467,21.627.16162,20.97461c-.26709-1.52441,2.21973-3.04785,4.54395-4.57129A81.233,81.233,0,0,0,17.23877,2.32471Z"/>
   <path class="a"
         d="M7.93066,3.99365a7.74425,7.74425,0,0,1,4.32422-2.39453,15.72208,15.72208,0,0,0,4.397,3.55566q-.21973.65332-.43945,1.30615c-2.79248,1.21875-5.7998,1.75391-8.28174-2.46729Z"/>
   <path class="a"
         d="M12.25488,18.72559c-.335-1.9375,1.67676-4.33789,3.37158-6.67676,1.75977-.9209,3.39844-1.67187,4.17773-1.23389a20.64015,20.64015,0,0,1-2.93164,4.71729q-.66064,1.92334,1.02539,1.81445,1.979-.18164,3.959-.36328a21.94662,21.94662,0,0,1,6.082-.79883q-.03662.65332-.07227,1.30664-1.76074,2.54-8.7959,4.78906.62256-1.63184-.80566-1.52344c-3.623.415-6.70508.46582-6.01025-2.03125Z"/>

</g>
</svg>
