<?xml version="1.0" encoding="UTF-8"?>
<svg xmlns="http://www.w3.org/2000/svg"
     version="1.1"
     width="43.99497439mm"
     height="37.80858148mm"
     viewBox="0.00000000 0.00000000 124.71012286 107.17397752">

<g transform="scale(4.24231132)">   <defs>
      <style type="text/css"><![CDATA[
      .b {
        stroke: #000;
        stroke-miterlimit: 10;
        stroke-width: .15px;
      }
    ]]></style>
   </defs>
   <path class="b"
         d="m24.05573,2.65591c-.26715-.15411-.4397-.32657-.54257-.44681-.14194-.16589-.22757-.2691-.22339-.41489.00589-.20468.18668-.41733.38297-.44681.22415-.03366.32254.19348.54257.15958.15564-.02399.18466-.14963.38297-.35107.21924-.22272.3093-.19659.92554-.57446.4689-.28751.37863-.27924.54254-.35104.12463-.0546.67841-.27908,1.24469-.06384.2753.10464.43884.28253.76596.63831.21545.23434.50568.55441.76596,1.05319.18155.34793.47443.90921.47873,1.65958.00266.46692-.1076.79904-.31915,1.43616-.16159.48669-.32367.82458-.54254,1.27661-.40469.83585-.60703,1.25378-.95746,1.69147-.38647.48273-.75595.76953-1.24469,1.14896-.56662.43985-.71637.46866-1.53192,1.02127-.70572.47821-.75601.56671-1.69147,1.24469-.22708.16458-.96368.69537-1.85107,1.27658-.64871.42487-1.5191.96909-2.58511,1.56384-.21381-.18268-.49518-.3775-.6702-.28723-.09314.04803-.09381.14468-.1915.44681-.07938.24545-.19943.60898-.41489.89362-.13535.1788-.27734.28558-.41489.38297-.77106.54605-1.65948.98935-1.65958.98938-.63586.31726-1.09412.63705-2.01065,1.27658-.45178.31525-.31882.2453-1.5,1.11703-1.16818.86212-1.5209,1.09485-1.75531,1.24466-.56207.35925-1.0434.62491-1.37234.79788-.72943-.45554-.86053-.759-.8298-.95746.0451-.29117.44122-.37314.57449-.86169.06668-.24448-.0069-.31784.03189-.54254.06967-.40356.4035-.64352.89362-1.0213.1821-.14038.43945-.32211.76993-.50507.14441.05389.35406.13632.60242.24976.4057.1853.50217.26486.63831.22342.1911-.0582.15897-.26309.41489-.60638.29938-.40161.64923-.53149.60638-.63831-.04364-.10883-.42197-.01199-.4451-.09189-.0177-.06113.1846-.18353.7023-.42801.44708-.21112.76398-.34177.76407-.3418,1.77475-.80957,2.0336-1.01617,2.26596-1.27661.24893-.27902.40359-.54816.86172-.95743.30359-.27121.52609-.41245.95743-.70215,1.15771-.77753.99313-.72589,1.56384-1.08508,1.03696-.65265,1.17163-.56592,2.01062-1.14896.4657-.32364.81085-.56686,1.18085-.98935.47372-.54092.69907-1.0455.92554-1.56384.45761-1.04727.61676-1.91916.73404-2.58511.11371-.64563.22205-1.51434.22342-2.55319Z"/>
   <path class="b"
         d="m2.89616,24.2623c.60468-.31595,1.10046-.56635,1.43616-.73404.75851-.37894,1.30679-.63904,2.13831-1.08508.55469-.29758.83521-.44891.98938-.57449.82675-.67337,1.3573-1.7594,1.08508-2.07446-.17361-.20096-.49713.11609-1.117-.06381-.66934-.19427-.84839-.7254-1.21277-.63831-.24088.05756-.26859.31497-.54257.6702-.28073.36395-.60587.53482-1.24466.86172-2.44937,1.25342-2.54227,1.24521-2.84042,1.53189-.14273.13724-.49081.49432-1.05319.98938-.19104.16818-.34906.30142-.44681.38297.077.22519.19778.5379.38297.89362.26266.50455.39401.75684.57446.76596.32639.01651.40799-.72556.98938-.95743.32312-.12888.65723-.04297.86169.03189Z"/>

</g>
</svg>
