<?xml version="1.0" encoding="UTF-8"?>
<svg xmlns="http://www.w3.org/2000/svg"
     version="1.1"
     width="67.15669463mm"
     height="25.28796340mm"
     viewBox="0.00000000 0.00000000 190.36541764 71.68239267">

<g transform="scale(5.79267105)">   <defs>
      <style type="text/css"><![CDATA[
      .b {
        fill-rule: evenodd;
        stroke: #000;
        stroke-miterlimit: 10;
        stroke-width: .15px;
      }
    ]]></style>
   </defs>
   <path class="b"
         d="M13.1844,10.44116c1.71-.9746,3.419-1.9472,5.12789-2.9219,.3604-.457,.7217-.6855,1.083-.6855,1.3868-1.2813,2.7715-2.877,4.1592-3.4375,.9112-1.043,1.8233-2.2891,2.7344-2.5195,.8926-1.1055,1.5566-1.0684,1.9941,.11519,.4756,1.08791-2.3925,3.43551-6.7802,6.35551-.77839,.5918-.7217,.8789,.1709,.8593,2.3369-.5722,4.6728-1.1445,7.0088-1.71681,.1328-.28709,.7968-.496,1.9941-.63079,1.4619-.457,2.165-.1524,2.1084,.916-.9502,.5547-1.8994,1.1074-2.84959,1.6602-2.67191,1.1562-6.10061,1.80459-9.68561,2.34759-3.332,.7793-7.2041,2.0508-7.06539-.3418h0Z"/>
   <path class="b"
         d="M.07989,11.58566c.0381-.5351,.0762-1.0683,.1143-1.6035,1.5761-.6894,3.1338-1.2617,4.5576-1.0312,5.51761,.0097,10.9111,.1445,16.125,.459,.7588,.8164-.4561,1.5703-4.5586,2.2324-.0566,.5254-1.3477,.8105-5.3555,.5723-1.7666-.0567-3.5332-.1133-5.2988-.1719-1.9521-.0625-3.7852-.2422-5.584-.4571H.07989Z"/>

</g>
</svg>
