<?xml version="1.0" encoding="UTF-8"?>
<svg xmlns="http://www.w3.org/2000/svg"
     version="1.1"
     width="41.87452390mm"
     height="17.05935832mm"
     viewBox="0.00000000 0.00000000 118.69941823 48.35721793">

<g transform="scale(5.79267105)">   <defs>
      <style type="text/css"><![CDATA[
      .a {
        stroke: #000;
        stroke-miterlimit: 10;
        stroke-width: 0.15px;
        fill-rule: evenodd;
      }
    ]]></style>
   </defs>
   <path class="a"
         d="M4.71351,5.44415Q6.68077,5.40889,8.65,5.37335q-1.54681,2.296-7.03021,2.8969c-3.1309-2.30861-.9932-4.7802,1.8984-7.2768q1.37115-1.8369,2.7412,0a3.33333,3.33333,0,0,1-1.1943,3.17919,1.65978,1.65978,0,0,0-.3516,1.27151Z"/>
   <path class="a"
         d="M8.65,4.10185c.53809-.2344,1.05379-.3975,1.05469-1.3423a4.03563,4.03563,0,0,1,2.3897,1.0596,4.16819,4.16819,0,0,0,1.6172-.6358c.3271-.8721,1.2168-1.3423,2.6709-1.272,1.456.7227,2.8877,1.4629,3.5859,2.7559q1.229.84809-.9141.8477-1.05465-.4593-2.10929-.9185a4.228,4.228,0,0,0-3.30371.63619,14.118,14.118,0,0,1-5.2022.84721Q7.84151,4.667,8.65,4.10185Z"/>
   <path class="a"
         d="M16.31211,2.19415c1.3125-1.5191,2.3672-1.35451,3.3047-.4239-.0537,1.9053.3164,4.7891-2.5312,6.0757q-.3867-.28275-.7735-.5644a6.74792,6.74792,0,0,0,0-5.0874Z"/>

</g>
</svg>
