<?xml version="1.0" encoding="UTF-8"?>
<svg xmlns="http://www.w3.org/2000/svg"
     version="1.1"
     width="80.20436214mm"
     height="44.00817002mm"
     viewBox="0.00000000 0.00000000 227.35093944 124.74754481">

<g transform="scale(5.58584936)">   <defs>
      <style type="text/css"><![CDATA[
      .b {
        stroke: #000;
        stroke-miterlimit: 10;
        stroke-width: .15px;
      }
    ]]></style>
   </defs>
   <path class="b"
         d="m5.54886,21.93278c1.84761.17662,2.40165.08015,4.91489.19148,1.99274.08827,1.75768.15393,2.48936.12767,1.55933-.05595,2.17674-.338,3.97873-.55319.96797-.1156.92702-.11649,2.93616-.17021.74986-.02005,2.34389-.1694,5.53192-.46809,2.57027-.24081,3.17087-.32024,4.42554-.34042,1.7986-.02895,2.33144-.02258,2.85106.08511.70589.1463,1.06911.32361,1.87234.34042.25381.00531,1.75517.03676,2.02127-.61702.1055-.2592-.07336-.40448.06383-.65958.25188-.46835,1.04135-.32556,1.10638-.59575.06494-.26981-.66295-.6588-.82979-.74467-.6329-.32574-1.22301-.4227-1.89362-.48936-1.03067-.10245-1.83347-.09178-2.17021-.08511-.42879.00848-1.23151.03285-2.76596.17021-2.27373.20354-1.72853.259-3.14893.36171-1.4015.10133-2.37767.07953-2.75876.66495-.08124.12479-.20918.39046-.51784.63292-.25238.19824-.49751.28038-.73218.35901-.42558.14259-.70197.2352-.90613.10909-.2298-.14195-.19052-.45132-.2766-.68086-.32086-.85571-2.46242-.81203-2.63829-.8085-3.20636.06427-6.41031-.23366-9.61702-.2766-1.07755-.01443-1.61631-.02164-2.08582-.09801-.0837-.01361-.75301-.12372-1.63759-.17859-.64528-.04002-.93952-.02177-1.08511.17021-.19852.2618.11037.58409-.12766.89362-.12469.16214-.36681.24994-.85106.42554-.35506.12875-.37433.10724-.6383.21275-.07298.02917-.35767.14503-.80851.42554-.6209.38631-.93136.57945-.91489.7234.02488.21761.55988.32709,2.02127.55319,1.23656.19131,1.85483.28697,2.19149.31915Z"/>
   <path class="b"
         d="m1.31482,8.40086c-.25211.18753-.38925.38762-.53191.59575-.19326.28195-.28487.51422-.46809.97873-.27857.70627-.25842.87628-.21277,1,.04427.11998.12171.20055.2766.36169.27747.28868.51196.42584.7234.57446.27512.19336.45292.37004.80851.7234.47699.474.49531.5946.91489.95746.17508.15141.30549.24594.55319.42552.29132.2112.66904.46941,1.12766.74469.11613-.04614.27929-.11571.46809-.21277.12955-.0666.57922-.30452,1.21276-.85106.32872-.28357.7515-.68866,1.19149-1.23405-.02386-.13411-.06691-.3286-.14893-.55319-.13226-.36212-.30207-.62782-.6383-1.0851-.43222-.58781-.78622-1.01183-.82979-1.06383-.00006-.00008-.44991-.537-1.46809-1.48936-.08582-.08028-.25123-.23181-.51064-.31915-.1077-.03625-.23728-.06337-.51064-.06383-.23472-.0004-.62206.00197-1.12766.14894-.32325.09396-.56392.16393-.82979.36169Z"/>
   <path class="b"
         d="m27.39992.76257c-.77589.46059-1.17844.7737-3.19148,2.40425-.66792.54102-1.00313.82082-1.06384,1.2766-.05113.38379.12419.62933-.04254,1.04256-.06026.14935-.11723.20172-.59575.70212-.67621.70714-.75563.80458-.82979.97873-.01573.03693-.30908.74673,0,1.04256.2243.21468.64449.09511.97873,0,.13943-.03967.62445-.1908,1.21275-.7234.30391-.27513.36223-.40479.65958-.74469.22415-.25624.62767-.59984,1.42554-1.2766,1.4006-1.18799,1.36215-1.06424,1.48936-1.25531.04446-.06677.13411-.20949.29787-.25533.23943-.06703.48172.11653.85106.40425.22992.17911.47263.37093.7234.70213.06703.08853.28804.3896.46809.85106.15273.39142.19785.698.25531,1.10638.09425.66991.09145,1.20854.21277,1.7234.03195.1356.08774.33418.21277.55319.08041.14084.09683.12788.17021.25533.21645.37587.15436.62881.29788.68085.11575.04196.26357-.08362.34042-.14893.21408-.1819.19287-.36676.38298-.44682.01512-.00638.1674-.06834.25531,0,.07095.05518.04501.15251.08511.40427.01173.07364.04742.29778.0851.29787.05971.00015-.02914-.56296.25533-.76596.19652-.14023.41071.00589.57446-.14893.13387-.12656.11186-.33873.10638-.48936-.00459-.12651.09622-.53825.29787-1.36171.16937-.6917.34041-.98857.48936-1.42552.1122-.32913.62325-1.9445-.02127-3.59575-.15923-.40794-.47174-1.17918-1.25533-1.74467-.71524-.51617-1.46046-.5993-2.19148-.68086-.44383-.04951-1.03233-.10957-1.74469.08511-.37894.10356-.67619.24731-1.19148.55319Z"/>
   <path class="b"
         d="m17.22971,13.44342c-2.76187,1.61516-4.07574,2.62984-6.38298,4.38298-.69347.52693-1.45125,1.10124-1.31915,1.48936.08574.25192.51303.32776,1.06383.42552.42072.07468.9117.1073,1.9149,0,1.2169-.13017,1.83778-.20308,1.93617-.53191.10065-.33638-.39679-.76898-.23404-.95744.04796-.05553.09837-.02635.24413-.07227.29004-.09137.34842-.28819.6282-.50221.10802-.08263.46317-.35429.65958-.25531.20074.10118.16212.55251.12766.91489-.10405,1.09399-.48543,1.43527-.2766,1.76596.13586.21515.32466.114,1.04256.44681.57961.26869.49982.35469.82979.46808.79701.2739,1.64723-.09557,2.06383-.2766.34605-.15038.28273-.17622.82979-.44681.97678-.48311,1.16843-.39563,1.41238-.62086.37193-.3434.25728-.85217.03442-2.78339-.26688-2.31264-.23494-2.73111-.70212-3.23404-.13159-.14166-.67876-.69476-1.51065-.80852-.39937-.05461-.73314.00998-1,.06383-.67651.13651-1.15543.41129-1.36169.53192Z"/>
   <path class="b"
         d="m33.67652,15.16682c-1.46117,1.38962-2.19174,2.08443-2.95744,2.57446-1.13914.72903-2.30624,1.21539-2.53192,2.23405-.02023.09131-.10974.49536.06383.61702.13882.09729.41522-.00757,1.1915-.55319.52032-.36572.78049-.54858,1.29787-1,.61679-.53816.81738-.56702,2.23404-1.46809,1.08453-.68983.84389-.59462,2.80852-1.91489.42976-.2888,1.52705-1.02303,2.89362-2,1.2355-.88329,2.06711-1.51891,1.93617-2.04256-.03831-.15323-.19576-.32201-.51064-.65958-.32803-.35167-.49205-.5275-.70213-.59575-.48656-.15807-1.00443.19987-1.36171.44682-.23769.16428-.53047.46637-1.10637,1.06383-.16512.1713-.24767.25694-.40427.42552-.63918.68808-1.93881,2.00476-2.85106,2.87234Z"/>

</g>
</svg>
