<?xml version="1.0" encoding="UTF-8"?>
<svg xmlns="http://www.w3.org/2000/svg"
     version="1.1"
     width="84.05650527mm"
     height="55.84537342mm"
     viewBox="0.00000000 0.00000000 238.27043983 158.30187081">

<g transform="scale(4.21580150)">   <defs>
      <style type="text/css"><![CDATA[
      .a {
        stroke: #000;
        stroke-miterlimit: 10;
        stroke-width: 0.15px;
      }
    ]]></style>
   </defs>
   <path class="a"
         d="M49.68362,6.91419c-.1992-.1108-.3628-.4609-.4595-1.1606a3.33916,3.33916,0,0,0-.5391-1.6372c-.4594-.7588-1.5966-1.8584-1.1191-2.8223.5273-1.061,2.5815-1.2285,3.5644-1.2187a7.94322,7.94322,0,0,1,.2212,4.2876C51.19382,5.35659,50.28762,7.25359,49.68362,6.91419Z"/>
   <path class="a"
         d="M53.61722,3.05439a11.33047,11.33047,0,0,1,.3515-1.2774c.2925-1.0171.9907-2.2226,2.02-1.1098.7769.8393.3228,2.2197.3228,3.2509a7.87925,7.87925,0,0,1-.395,3.4595,9.52356,9.52356,0,0,1-1.7368,2.564,14.60973,14.60973,0,0,1-5.3111,3.4409c-8.226,3.2705-16.476,6.0801-24.5049,9.8677-1.1088.5229-2.1118,1.2588-3.2426,1.7612-4.2471,1.8857-7.9854,4.6758-11.7451,7.3657-1.44,1.0303-2.9639,1.9346-4.4795,2.8467-.7974.48-1.5943.9609-2.3775,1.4629-.501.3213-1.291,1.0532-1.9604.6885-.2632-.1436-.1729-.4346-.4751-.5088-.1548-1.2554,1.8408-2.189,2.6772-2.8169q1.91025-1.43415,3.9072-2.7481a82.27062,82.27062,0,0,1,13.19-7.414c6.6929-2.7525,12.9692-6.5542,19.9004-8.8135,2.7866-.9077,5.7256-1.3242,8.4316-2.4878,2.0405-.8779,5.376-2.5713,6.2246-4.7988.4737-1.2373-.5346-2.7246-.7812-3.7881A2.3831,2.3831,0,0,1,53.61722,3.05439Z"/>

</g>
</svg>
