<?xml version="1.0" encoding="UTF-8"?>
<svg xmlns="http://www.w3.org/2000/svg"
     version="1.1"
     width="31.72372784mm"
     height="42.07437214mm"
     viewBox="0.00000000 0.00000000 89.92556778 119.26593183">

<g transform="scale(6.96665924)">   <defs>
      <style type="text/css"><![CDATA[
      .a {
        stroke: #000;
        stroke-miterlimit: 10;
        stroke-width: 0.15px;
      }
    ]]></style>
   </defs>
   <path class="a"
         d="M5.85748,6.57538a12.93764,12.93764,0,0,1,.701-1.71823A7.769,7.769,0,0,0,7.17,3.73163,3.5742,3.5742,0,0,1,7.6594,2.54471,3.26244,3.26244,0,0,1,8.10686,2.11c.438-.38449.61415-.44989.99966-.763.50874-.41315.41457-.47192.7822-.7404a2.23093,2.23093,0,0,1,1.25-.53125,1.73227,1.73227,0,0,1,1.676,1.174c.077.36793-.09477.60632-.426,1.26352a14.17487,14.17487,0,0,0-1.5,3.84375,3.29719,3.29719,0,0,1-.40625,1.21875,3.383,3.383,0,0,1-.65625.78125A11.30154,11.30154,0,0,1,7.79194,9.753a10.17487,10.17487,0,0,0-1.35762.88085,8.68,8.68,0,0,0-1.07684,1.19151c-.93709,1.14793-1.40433,1.8959-2.004,2.21571a2.8582,2.8582,0,0,0-.40227.253,3.25676,3.25676,0,0,0-.609.62251c-.63107.86346-.50207,1.8138-1.04724,2.065A.97983.97983,0,0,1,.17,16.63788c-.33384-.56779.26571-1.89484.96875-2.59375.08025-.07978.38933-.37751.3125-.53125-.075-.15018-.46328-.0528-.525-.20174-.05095-.123.16034-.318.19674-.352.40027-.37358.082-.33276,1.14945-1.69856.76509-.97891.97064-1.05369,1.77255-2.02894A10.01755,10.01755,0,0,0,5.85748,6.57538Z"/>
   <path class="a"
         d="M7.17,13.88788a9.05263,9.05263,0,0,0,.65625,1.5625s.27056.502.34375.46875c.06172-.028-.22612-.502-.03125-.8125.08913-.142.18039-.09232.53125-.34375.28828-.20659.28983-.28539.4375-.3125.18065-.03317.22281.07655.59375.15625.25014.05374.2537.00874.5.0625a2.57241,2.57241,0,0,1,.59375.21875c.28236.13478.30292.18732.59375.3125a1.23231,1.23231,0,0,0,.4375.125.58139.58139,0,0,0,.41909-.08881.42944.42944,0,0,0,.17467-.34869c-.01013-.12907-.09862-.1853-.25-.375a2.37144,2.37144,0,0,1-.27444-.42028c-.22842-.51522.4846-1.20631.30569-1.39222-.09771-.10154-.33093.08336-.51951-.042-.1967-.13078-.17254-.48458-.168-.58295a8.46518,8.46518,0,0,0-.80976-2.9677c-.24332-.70008-.44534-1.40591-.6337-2.12227-.15682-.59642-.34338-1.206-.99657-1.409A3.10079,3.10079,0,0,0,8.0392,5.49368a6.93924,6.93924,0,0,0-1.74536.22366,1.7664,1.7664,0,0,0-1.15253.95106A2.64919,2.64919,0,0,0,4.545,8.10667c.00884.2053.05134.33234.53124,1.28121.80414,1.58993,1.302,2.541,1.302,2.541a9.8177,9.8177,0,0,1,.56989,1.268C7.0523,13.48312,7.12435,13.72429,7.17,13.88788Z"/>

</g>
</svg>
