<?xml version="1.0" encoding="UTF-8"?>
<svg xmlns="http://www.w3.org/2000/svg"
     version="1.1"
     width="37.43831429mm"
     height="14.61043201mm"
     viewBox="0.00000000 0.00000000 106.12431665 41.41533106">

<g transform="scale(5.54094986)">   <defs>
      <style type="text/css"><![CDATA[
      .a {
        stroke: #000;
        stroke-miterlimit: 10;
        stroke-width: 0.15px;
      }
    ]]></style>
   </defs>
   <path class="a"
         d="M6.75969,1.62825a8.64934,8.64934,0,0,1-1.99507-.15646,13.96374,13.96374,0,0,0-1.45351-.35556,1.62539,1.62539,0,0,0-1.38593.40119,2.2192,2.2192,0,0,0-.34295.5569L.38535,4.53209a2.47324,2.47324,0,0,0-.30882.93469A1.574,1.574,0,0,0,.71074,6.72986a3.1951,3.1951,0,0,0,1.33966.56729c2.00572.42848,4.75336-.58071,7.1356-1.3378,2.137-.67915,2.13375-.67974,2.2111-.69268,2.679-.448,3.94017.69516,5.6875-.21875.29924-.1565,1.25171-.65468,1.34375-1.4375.05278-.44888-.24133-.72893-.0625-1.21875.13839-.379.3621-.35911.5625-.84375A1.19043,1.19043,0,0,0,18.98791.561.88384.88384,0,0,0,18.466.19143c-1.45764-.45309-3.62938.54378-5.11211.81409A38.466,38.466,0,0,1,6.75969,1.62825Z"/>

</g>
</svg>
