<?xml version="1.0" encoding="UTF-8"?>
<svg xmlns="http://www.w3.org/2000/svg"
     version="1.1"
     width="39.71989162mm"
     height="42.86431276mm"
     viewBox="0.00000000 0.00000000 112.59179920 121.50504586">

<g transform="scale(6.53780177)">   <defs>
      <style type="text/css"><![CDATA[
      .b {
        stroke: #000;
        stroke-miterlimit: 10;
        stroke-width: .15px;
      }
    ]]></style>
   </defs>
   <path class="b"
         d="m.19791,2.03411C.00776,2.35327.06258,2.61859.19791,3.77026c.22944,1.95251.14373,1.80139.27234,2.383.15654.70789.34624,1.21542.68085,2.11063.39299,1.05139.57122,1.31866.74894,2.11066.09224.41104.13033.72275.20425,1.32764.1249,1.02206.09685,1.40048.06808,1.63406-.02453.19922-.06454.50858-.20425.8851-.11977.32275-.16941.30844-.2383.54468-.12806.43921-.05532.82782,0,1.12341.0571.30508.08983.47998.20425.68085.18642.32727.43855.45825.98723.78299,1.12471.66565.9297.62683,1.22553.74893.57876.23886,1.07368.2836,1.70213.34042.30811.02786.21132.00357,1.25957.03403,1.16933.03397,1.3634.06631,1.73618-.03403.40245-.10834.66127-.27661,1.02127-.51065.61778-.40164,1.62548-1.22372,1.46383-1.56595-.05576-.11807-.22687-.12857-1.02127-.13617-1.63579-.01566-1.81556.02017-2.24681-.06808-.43066-.08813-1.23707-.25314-1.53191-.85107-.1237-.25085-.0975-.45654-.03404-1.02127.24329-2.16531.24184-2.55731.2383-2.72342-.01018-.47751-.09756-.88571-.27234-1.70212-.09791-.45737-.24709-1.07324-.68085-2.41702-.70346-2.17929-.94065-2.50983-1.05532-3.50638-.08775-.76263-.04338-1.39069,0-1.7702.1086-.03891.26848-.0762.44255-.03406.2565.0621.3979.26138.54468.44257.24243.29929.54974.5397.81702.81702.21963.22784.54784.55048.98724.91916-1.00407.23624-1.8323.29684-2.41702.30637-1.08549.01767-1.98916-.1301-2.0766.13617-.04549.13852.15022.32724.34043.51065.32231.31082.54436.32184.91915.61276.12667.09833.29918.25064.4766.47659.17902-.01151.87394-.05634,1.05532-.06808,2.53639-.16412,2.80487-.18491,3.26809-.20425.68251-.0285,1.65935-.04843,2.85957,0,.03745.008.29433.06613.34042.23828.0334.12473-.06048.24728-.17021.37448-.30186.34991-.4528.52487-.71489.68085-.38.22614-1.12988.84464-2.58723,2.24683.41187.07303,1.00079.12122,1.66808-.03406.16508-.03842.25714-.07117,1.25957-.47659,1.32638-.53644,1.43552-.58841,1.6-.68085.63115-.35471.50742-.42303,1.22553-.85107.77367-.46115.9942-.42767,1.49787-.85104.47269-.39734.68591-.76932.74894-.88513.12648-.23239.51591-.94797.2383-1.32764-.11356-.1553-.37229-.19644-.88511-.27234-.88392-.13083-1.32587-.19626-1.39574-.20425-.67255-.077-1.13043-.26544-1.97446-.61279-.6689-.27527-2.66927-1.09851-3.47234-2.21277-.072-.09988-.27315-.39468-.64681-.64679-.12931-.08725-.39426-.24695-.91914-.37448-.17333-.04211-.87685-.20264-2.14468-.06808-.12371.01312-.58873.06473-1.22553.20425-.24051.0527-.86211.19608-2.7234.91916C.50766,1.69946.33481,1.80435.19791,2.03411Z"/>

</g>
</svg>
