<?xml version="1.0" encoding="UTF-8"?>
<svg xmlns="http://www.w3.org/2000/svg"
     version="1.1"
     width="52.65586728mm"
     height="22.89948265mm"
     viewBox="0.00000000 0.00000000 149.26074376 64.91192663">

<g transform="scale(4.22277633)">   <defs>
      <style type="text/css"><![CDATA[
      .b {
        stroke: #000;
        stroke-miterlimit: 10;
        stroke-width: .15px;
      }
    ]]></style>
   </defs>
   <path class="b"
         d="m12.92114.26666c-.47305-.09812-.92285-.09335-1.80319-.07979-1.06744.01644-1.61221.02768-2.15424.17553-.23801.06492-.34924.11419-1.48404.67021-1.85193.90741-2.40585,1.19275-2.37769,1.53191.01022.12322.12384.24704.35107.49468.22144.24132.38211.3386.65427.54255.76971.57685.83078.80783,1.16489.82979.2175.01429.30609-.07609.62234-.20745.65845-.2735,1.2319-.27939,1.99469-.28723.43945-.00452.90408-.00611,1.5.14362.21286.05348.51312.12892.86169.30319.94263.47126,1.06952,1.08078,1.5,1.03724.43793-.0443.70935-.71579.84573-1.05319.19196-.47489.20041-.86318.20746-1.45213.01239-1.03534.01859-1.55301-.27127-1.93085-.35013-.45639-.89899-.57024-1.61172-.71809Z"/>
   <path class="b"
         d="m17.50094,1.67092c-.28339-.22754-.4425-.13643-1.38831-.43085-.33316-.10371-.65826-.23403-1.3085-.49468C13.34805.1617,13.11285-.02398,12.88925.12305c-.27893.18338-.2515.69479-.20746,1.51596.03323.62004.11316.69043.20746,1.45213.06079.49105.07776,1.02417.11169,2.09043.02017.63353.03024.9503.03192,1.30851.00314.66805-.01562,1.01407.04785,1.59574.0661.60567.15228.83398.23938,1.00532.14487.28494.32208.47086.54254.70213.29211.30645.43817.45967.62234.47872.28253.02922.47314-.23251.79788-.54255.746-.71227.95377-.48985,1.88297-1.30851.4418-.38925.66724-.59212.84573-.95745.1524-.31192.20297-.60394.20746-1.53192.005-1.03357.00781-1.61197-.12766-2.4734-.15756-1.00196-.24341-1.50862-.59042-1.78723Z"/>
   <path class="b"
         d="m4.78286,1.639c-.37814.15419-.69199.30859-1.00534.46277-.47723.2348-.71585.3522-.90958.47872-.15088.09854-.1709.12422-1.117.98936-.50058.45774-.64108.58416-.73404.84575-.0733.20624-.04926.30576-.15958.55851-.14056.32203-.29919.43452-.44681.6383-.32037.44228-.32864.95537-.33511,1.35638-.01019.63253.17532,1.09316.27127,1.32447.06104.14714.4903,1.18201.90958,1.13298.17041-.01993.16-.19797.44681-.38298.03561-.02297.52679-.32952,1.02127-.14362.2587.09726.38684.27988.63831.6383.16544.2358.29968.433.28723.70213-.00812.17546-.07547.31379-.12766.39894.21393.1593.51834.36049.90958.54255.10077.0469.53888.24681,1.22873.39894.55191.12171.97968.14992,1.117.15957,1.31146.09218,1.73941.29138,3.81384.52659.43524.04935,1.29016.11269,3,.23936,4.58011.33932,2.63779.11911,3.54254.20745.00009,0,1.54227.15058,3.23938-.31915.10953-.03031.35742-.10368.39893-.27128.04568-.18451-.17905-.4013-.73404-.81383-.64899-.48239-.95102-.63891-1.53192-1.02128-.88544-.58283-1.22739-.90619-1.5-.76596-.20624.10608-.15494.36538-.41489.5266-.30273.18776-.70728.04383-.87766-.01596-1.935-.67899-.91623-.06668-2.79257-.89362-1.80682-.7963-1.16739-.66594-3.01596-1.53192-.34756-.16282-.91232-.42141-1.34042-1.00532-.13535-.18462-.37143-.51551-.39893-.98936-.02798-.48221.17542-.84641.23935-.95745.47662-.82795,1.31445-.76894,1.38831-1.27659.01022-.07028.01321-.20237-.62234-1.00532-.55798-.70492-.83694-1.05738-1.08508-1.18085-.55844-.27788-1.13687-.1635-1.883-.01596-.55386.10952-.99933.29116-1.4202.46277Z"/>
   <path class="b"
         d="m18.55413,7.81453c-.98978.49105-1.75739.97345-2.69681,1.56383-.98114.61659-1.6246,1.02099-2.37766,1.73936-1.24191,1.18476-1.86279,1.77719-1.883,1.80319-.13391.17243-.40335.54865-.86169.67021-.17282.04583-.24725.02226-.43085.09575-.27408.10971-.42307.28831-.67023.57447-.435.50363-.65253.75544-.71808.79787-.49503.32031-1.06366.23284-1.22873.20745-.28723-.04418-.65384-.10058-.82977-.38298-.09473-.15205-.13428-.36982.03192-.94149.26526-.91246.67014-1.46801.6702-1.46809.89175-1.22363,2.03143-2.14544,2.28192-2.34574,1.19183-.95309,1.564-1.1944,2.84042-2.17021,1.27094-.97161,2.37628-1.85945,3.82977-2.68085.00009-.00005.61658-.34845,1.69595-.65179.84872-.23852,1.3132-.13874,1.59131-.0663.30515.07949.81287.21173.97339.62234.14398.36823-.06674.76731-.17554.9734-.17114.32414-.39624.52091-.62234.70213-.82803.66367-1.4201.9574-1.4202.95745Z"/>
   <path class="b"
         d="m20.97967,3.5539c-.39038.13393-.63788.3506-.89362.57447-.42401.37118-.73276.64147-.70215.9734.01349.14612.14215.29089.39896.57447.39902.44061.60248.66529.90958.71809.31808.05468.58932-.10222.71808-.17553.85999-.48963,1.79288-.84066,2.66489-1.30851,1.55057-.83191,2.22449-1.03495,2.64893-1.10106.07523-.01172.28323-.04103.75-.1117.90671-.13728.9057-.14533,1.00534-.14362.75772.01301.92532.48044,1.35638.35106.40768-.12237.72061-.67942.62231-1.10106-.02707-.11617-.08948-.23969-.78189-.73404-.68192-.48686-1.03113-.73196-1.43619-.81383-.25742-.05203-.46429-.04472-.87805-.0301-.25455.009-.65457.02313-1.0528.12584-.50348.12986-.62.30225-1.29254.67021-.71265.38989-.65866.23838-1.54788.68617-.94638.47657-1.02808.65853-1.54788.73404-.40298.05854-.55133-.02214-.94147.1117Z"/>
   <path class="b"
         d="m30.47433.36241c-.44409.13625-.7211.38029-.87766.51064-1.10052.91627-1.94534.95687-1.93085,1.3883.00284.0846.0354.08485.54254.62234.16196.17163.41647.48144.92554,1.10106.20093.24457.27493.33839.27127.47872-.00574.21973-.19617.33694-.54254.6383-.10828.09421-.40729.40323-1.00531,1.02128-.51343.53063-.55862.61591-.59042.71808-.17505.56239.21497,1.12455.28723,1.22872.44888.64702,1.19559.80589,1.46808.84575.9101.13309,1.68292-.30788,2.23404-.62234.94324-.5382,1.0723-.98351,1.75531-1.02128.45001-.02488.64273.15467,1.10107.01596.10449-.03162.61273-.19779.89362-.68617.26193-.45542.17593-.92987.09573-1.37234-.09445-.52102-.23215-.62175-.54254-1.53192-.14737-.43217-.37564-1.10153-.25531-1.16489.14621-.07699.64853.82414.86169.73404.15604-.06596.14746-.65897-.07971-1.15774-.38565-.84671-1.29495-1.18829-2.18625-1.52311-.22137-.08316-.93488-.33742-1.77127-.31915-.26694.00583-.46487.03764-.65427.09575Z"/>
   <path class="b"
         d="m27.01156,8.02198c.0639-.09406.25446-.39607.59042-.75.30151-.31763.52829-.47496.79788-.68617,1.15244-.90282,1.03906-1.18528,1.59576-1.37234.75677-.25428,1.45673.10288,1.56381.15957.18057.09558.56677.30003.73404.73404.02316.06006.11987.32634.04788.71809-.13727.74678-.75537,1.22963-1.86703,2.07447-.50461.38349-.88879.62856-1.00531.70213-.74344.46938-.82379.41906-1.61169.87766-1.09113.6351-1.29956.94387-2.0585,1.13298-.17969.04477-.29355.05875-.60638.14362-.69577.18876-1.17816.40136-1.30853.46277-.6109.28773-.53323.33808-.90958.49468-.34732.14453-1.12924.4699-1.88297.15957-.42239-.1739-.98633-.60937-.95746-1.10106.02081-.35435.34216-.61261.78192-.89362,1.01248-.64697,1.88159-.92188,2.69681-1.19681,2.53693-.85555,3.10181-1.2222,3.39893-1.65957Z"/>
   <path class="b"
         d="m20.26156,10.28794c1.82489.00962,2.98166-.57039,3.1915-.17553.06268.11794-.04584.15969-.11169.68617-.04379.35014-.00772.42703-.03192,1.08511-.02429.66033-.06696.7557-.12766.82979-.21268.25961-.6312.23937-.8891.22779-2.22302-.09982-3.50229-.04986-3.86115-.62592-.0675-.10837-.1008-.20816-.10083-.20825-.13217-.39617.10077-.62339.0798-1.03723-.02127-.41971-.27753-.51518-.20746-.68617.12564-.30653.99091-.10138,2.0585-.09575Z"/>

</g>
</svg>
