<?xml version="1.0" encoding="UTF-8"?>
<svg xmlns="http://www.w3.org/2000/svg"
     version="1.1"
     width="54.21273946mm"
     height="29.17490360mm"
     viewBox="0.00000000 0.00000000 153.67400201 82.70051642">

<g transform="scale(5.79267105)">   <defs>
      <style type="text/css"><![CDATA[
      .a {
        stroke: #000;
        stroke-miterlimit: 10;
        stroke-width: 0.15px;
        fill-rule: evenodd;
      }
    ]]></style>
   </defs>
   <path class="a"
         d="M6.04282,2.18C7.077-.09984,7.9979-.09694,8.90317.23126q.26661.5361.53321,1.0717A6.30866,6.30866,0,0,1,9.242,3.54376a2.53024,2.53024,0,0,1-1.06641,1.8027A2.99971,2.99971,0,0,1,7.06089,6.95384,3.34884,3.34884,0,0,1,5.849,8.90256c-.68115.6504-1.1665,1.2349-.29052,1.3638a3.437,3.437,0,0,1,1.939-1.0229c6.82272-3.3985,13.62012-6.7593,17.30472-5.16362v.92582c1.2216.3828,1.5893,1.4341,1.6479,2.7275q.0483.3165-.4848.439a10.90985,10.90985,0,0,1-2.5206.4868c-.3315-.89312-.7519-1.3809-1.5996-.97412q-1.6479.24318-3.2959.48732a11.55544,11.55544,0,0,0-2.1328.5845,19.50093,19.50093,0,0,1-4.896,2.0459,16.57168,16.57168,0,0,1-8.43408,2.728,1.33033,1.33033,0,0,1-1.8418.4868q-1.45459.34122-.96973-1.8506-.09668-.34125-.19384-.6821C2.14291,7.97584,4.493,2.93876,6.04282,2.18Z"/>

</g>
</svg>
