<?xml version="1.0" encoding="UTF-8"?>
<svg xmlns="http://www.w3.org/2000/svg"
     version="1.1"
     width="35.49109774mm"
     height="7.38424342mm"
     viewBox="0.00000000 0.00000000 100.60466122 20.93164435">

<g transform="scale(5.94520625)">   <defs>
      <style type="text/css"><![CDATA[
      .b {
        stroke: #000;
        stroke-miterlimit: 10;
        stroke-width: .15px;
      }
    ]]></style>
   </defs>
   <path class="b"
         d="m6.11953,1.16866c-.43692.09412-.28896.07901-1.04256.25531-1.1593.27121-1.73895.40683-2,.383-.47179-.04306-.82195-.19543-1.29787,0-.08768.03601-.14078.06787-.36171.21277C.06848,2.90447.06466,3.01754.07697,3.06228c.0128.04648.07097.12057.70213.17023.79295.06238,1.44104.0036,1.87233-.04257.60071-.0643.53175-.07755,1.36171-.1702.6236-.06961.95778-.09512,1.31915-.10638.19818-.0062.46394-.01398.8085,0,.57751.02341.77863.08368,1.7234.19147.34738.03961.60262.06369.82979.08511.81294.07666,1.43745.11478,1.65958.12766.44072.02557.66982.03156,1.7234.06384.43803.01343,1.14319.03522,2.04256.06384.09129-.03864.22429-.09628.38298-.17023.41179-.19186.61769-.28778.74467-.38297.36775-.27567.24828-.46622.70213-.93619.24231-.25092.28592-.20651.48936-.44681.16048-.18958.504-.59534.38298-.89362-.02324-.05728-.09111-.17838-.51065-.31915-.5108-.17142-.94566-.1716-1.12766-.1702-.87387.00677-1.31081.01019-1.8085.04254-.35371.02301-.83276.05777-1.40352.1102-.01846-.07916-.0538-.17615-.12686-.19904-.09061-.02841-.18631.0737-.32069.17395-.10907.08136-.27373.18393-.50868.26486-.2215-.0401-.57866-.07581-1.00195.01172-.3275.06772-.58376.18631-.75764.28433-.24316-.00034-.58377.00577-.99004.03476-.24861.01776-1.04071.08112-2.14594.31921Z"/>

</g>
</svg>
