<?xml version="1.0" encoding="UTF-8"?>
<svg xmlns="http://www.w3.org/2000/svg"
     version="1.1"
     width="55.57296019mm"
     height="21.54127729mm"
     viewBox="0.00000000 0.00000000 157.52960112 61.06195937">

<g transform="scale(5.59901992)">   <defs>
      <style type="text/css"><![CDATA[
      .a {
        fill: #000;
        stroke: #000;
        stroke-miterlimit: 2.61313;
        stroke-width: 0.28346px;
      }
    ]]></style>
   </defs>
   <path class="a"
         d="M1.377,6.52979Q1.916,5.05835,2.457,3.58691C2.7832,2.28809,3.96094,1.30762,6.37891.792c.75,1.10742.168,2.92969-.7832,4.95313-.36523.93408.53711.83447,1.61719.58789,3.3125-.45117,3.88477-.10156,7.60205-.14648,1.332.74268,1.67578,1.90479,0,3.03955a13.64087,13.64087,0,0,1-4.022.24609,16.20815,16.20815,0,0,0-3.62891.44141A9.16363,9.16363,0,0,1,2.75,10.40381Q.39746,10.69824.20117,9.42334C-.0625,8.4585.5918,7.49365,1.377,6.52979Z"/>
   <path class="a"
         d="M14.81494,6.08789c-.35547,1.55225-.61914,3.16357,1.42188,2.69678a18.68714,18.68714,0,0,1,6.71777-.04785,1.24952,1.24952,0,0,1,.0498,1.17676q-.44238,1.22461.6875.68652c3.02148-.74707,3.89453-1.80176,4.168-2.94238.47266-.998-.39258-1.5376-1.27539-1.0293q-.58887-.41821-1.17773-.83447a40.16563,40.16563,0,0,1-5.63965.04883C21.561,3.7373,24.05029,1.42383,23.05322.1543c-.375.06543-.75293.13086-1.12793.19629A4.77269,4.77269,0,0,0,19.32666.792a11.75474,11.75474,0,0,1-4.51172,5.2959Z"/>

</g>
</svg>
