<?xml version="1.0" encoding="UTF-8"?>
<svg xmlns="http://www.w3.org/2000/svg"
     version="1.1"
     width="38.61186471mm"
     height="40.13946355mm"
     viewBox="0.00000000 0.00000000 109.45101037 113.78114923">

<g transform="scale(3.85854722)">   <defs>
      <style type="text/css"><![CDATA[
      .b {
        stroke: #000;
        stroke-linecap: round;
        stroke-linejoin: round;
        stroke-width: .01px;
      }
    ]]></style>
   </defs>
   <path class="b"
         d="m14.80251.0529c-.04688.03906-.39844.07031-.77344.07813-.47266.00781-.74609.05469-.87891.14453-.10547.07031-.23438.10547-.28125.07031-.04688-.03125-.16797.01563-.26563.10547-.26953.25-.53516.35156-.73438.30469-.14453-.03906-.19922-.00781-.24219.11328-.0625.19922-.30078.32422-.67188.35938-.16016.01563-.48047.09375-.71094.18359-.23047.08594-.51172.15234-.61719.12891-.125-.02734-.19922,0-.19922.0625,0,.18359-.13672.32031-.32813.35156-.10156.01563-.32031.04688-.47266.0625-.15234.02734-.32031.11328-.375.1875-.18359.26953-.27344.34375-.35156.30078-.03906-.03125-.07031-.01563-.07031.03516,0,.03906-.07422.10156-.16016.125-.08984.03516-.14453.08203-.12109.12109.0625.10547-.19141.32031-.36719.32031-.08984,0-.17578.05469-.20313.12109-.02344.0625-.19141.16016-.36719.21484-.26953.07813-.30469.12109-.26953.27344.04688.19141-.15234.46875-.27344.39063-.10547-.0625-.69531.32031-.79297.51172-.04688.08203-.19141.18359-.3125.23047-.16797.05859-.24609.15234-.27734.32031-.03125.14453-.11328.26563-.21875.29688-.08594.02344-.16016.09766-.16016.16016,0,.14453-.59766.76172-.74219.76172-.0625,0-.16016.10156-.21484.23047-.05078.12891-.14453.25781-.19141.27344-.05859.02344-.12891.15234-.15234.27734-.02734.13672-.11328.26563-.19531.28906-.07813.02344-.27734.25781-.44531.51953-.28906.42578-.76172.80859-1.00781.80859-.05859,0-.28906.08984-.52734.19922-.38672.18359-.44141.25-.5625.60156-.07031.22266-.16797.39844-.21484.39844s-.0625.07422-.03125.17578c.10937.39453.12891.53906.05469.72266-.05469.15234-.02344.25391.16016.50391.12891.16797.23047.33594.23047.375,0,.03125.07422.13672.16016.22266.12891.12891.14453.19922.08203.32031-.06641.11328-.06641.20703,0,.32031.13672.25781.28906,1.20703.26172,1.65625-.03125.55859-.03906.79297-.02344,1.22266.00781.20313-.03125.64844-.07813,1-.09766.64844-.10547.85547-.08984,1.64063.00781.24219,0,.51172-.00781.60156-.00781.08594.00781.3125.03906.49609.04297.22266.02734.36719-.04688.4375-.10938.12109-.12891,1.72266-.01563,1.89844.03125.05469.07422.28906.08984.51953.03906.53516.03906.56641-.01563,1.10547-.02734.26172-.01172.51953.03906.61328.0625.11328.07031.21875.01563.3125-.09766.18359-.13672,1.25-.05469,1.59375.04688.19922.02344.28516-.10547.39063-.12109.11328-.14453.17578-.08203.29688.05078.07813.06641.19922.04297.25391-.02344.06641,0,.12109.05469.14453.05469.01563.09766.13672.10547.26563,0,.35156.11719.91016.18359.91016.03125,0,.13672.07422.22266.15234.12891.12109.16797.25.15234.50391-.00781.32031.01563.35938.29688.51953.17578.10547.34375.16797.375.14453.03906-.02344.12891.01563.19922.08984.10547.10938.16016.10938.35938.03125.13672-.05469.24219-.12891.24219-.16016,0-.07422.58203-.32031.87109-.36719.10547-.02344.23828-.08984.30469-.15234.0625-.06641.14453-.12109.17578-.12109s.05469-.07813.04688-.17578c-.00781-.10547.01563-.24609.05078-.32031.05469-.10547.03125-.16016-.08984-.22266-.22266-.12109-.26563-.38672-.12891-.77734.12109-.34375.12891-.48047.01563-.64844-.10156-.16797-.125-1.05469-.03125-1.28906.12891-.30859.14453-.65234.04688-.90234-.0625-.18359-.04688-.27344.08984-.50391.17578-.29688.22266-.67969.09766-.67969-.12891,0-.1875-.30469-.09766-.47266.09766-.17578.13672-1.17578.05469-1.42188-.03125-.09766-.00781-.21094.05859-.27344.13281-.14453.30859-.63281.21484-.63281-.14453,0-.16797-.32813-.03906-.52734.10938-.16797.11719-.25.03906-.43359-.04688-.11719-.08984-.33594-.08984-.48828,0-.14844-.03906-.36719-.08594-.48438-.05469-.14453-.04688-.26563.00781-.37109.05469-.10938.0625-.18359.00781-.21484-.20703-.12891-.23047-.34375-.0625-.55859.14844-.20313.16016-.25.07031-.47266-.17578-.43359-.17578-.67969-.00781-.84766.08594-.08984.15234-.18359.14453-.22656-.02344-.09375.17578-.73438.23828-.74219.03125,0,.12891-.02344.21875-.04688.08594-.01563.23047-.05078.32813-.05859.08594-.00781.19922-.04688.25391-.07813.12109-.07422.42578-.14453.55859-.13672.36328.03125,1.83984-.04688,1.92969-.11328.04688-.02344.15234.02344.23828.11328.11328.11328.24219.14453.50391.12891.34766-.01563.61719.0625.72266.22266.02344.04688.10156.09766.17578.10547.20703.03125.67969.35156.71875.49609.02344.07031.01563.39063-.03125.69531-.18359,1.36719-.19922,2.05469-.0625,2.30469.04688.09375.09375.44531.10156.78125.01563.51563.04688.65625.23438.92188.10938.16797.20703.34375.20703.39063,0,.05078.07031.14453.16016.22656.09375.07813.13672.18359.10156.26172-.03906.10547-.01563.12891.08203.08984.07031-.02344.17578-.00781.23047.04688.06641.05469.16016.10547.21875.12109.0625.01563.18359.10938.26953.22266.08203.11328.17578.18359.19141.16016.08203-.07813.51172.19922.60156.39063.04688.11328.11328.20313.13672.21094.23047.02344.34375.07813.49609.22266.10156.09766.20703.16797.24609.16797.07422,0,.48047.40625.58594.59375.07031.13281.08594.125.26953-.02734.10547-.09375.22656-.16797.26563-.16797.12109,0,.36719.30469.47266.58594.13672.375.42188.41406,1.04688.16016.26563-.10547.50391-.16797.54297-.14453.04297.02344.14453-.02344.23438-.11328.11719-.11719.15234-.22266.11719-.40625-.03125-.12891-.07813-.24219-.11719-.24219-.03125,0-.10547-.11719-.16016-.26172-.09766-.25781-.38672-.49609-.84766-.6875-.25781-.10547-.47266-.49609-.37891-.66406.03516-.05078-.03906-.16016-.14063-.25781-.34375-.28516-.60156-.83984-.58594-1.26172.00781-.21875-.01563-.38672-.04688-.38672-.02344,0-.09766-.10938-.15234-.23828-.05469-.13672-.16797-.28906-.25-.34375-.07031-.05469-.19922-.26563-.27734-.45703-.08203-.19922-.26563-.48047-.41797-.625-.19141-.19141-.24609-.30078-.21484-.42188.03906-.11328-.01563-.22656-.20703-.40234-.24219-.22266-.25-.25391-.21094-.70313.05859-.67188.22656-.94141.64063-1.05469.18359-.04688.42578-.12891.52734-.17578.24219-.12109.41016-.12109.60938-.02344.26563.125.86328.10156,1.00781-.04297.08203-.07813.20703-.11719.33594-.09375.10547.02344.27344,0,.35938-.04688.12891-.07422.19141-.05859.28906.03906.07031.07031.17578.10938.23047.08594.05078-.01563.19531.01563.3125.07422.15234.07813.21875.08594.24219.01563.04688-.12891.64063-.19141,1.0625-.10547.13672.02344.29688.05078.35938.03906.06641,0,.25-.00781.41016,0,.16016,0,.41406-.05469.57422-.11719.27344-.11328.30469-.11328.41797.02344.10156.12109.23828.13672.98438.11328.46875-.00781.89453-.02734.93359-.02734.60156-.00781.87891.20313.79297.59375-.11328.52734-.16016,1.09766-.09766,1.20703.05078.08203.03516.19141-.03125.30469-.05469.10547-.08594.21484-.07813.25.00781.03125-.02344.13281-.07422.22266-.04688.09375-.10156.28125-.11719.42188-.06641.53906-.10547.70703-.19531.80859-.05469.06641-.07813.17578-.04688.24219.02344.07031-.00781.26172-.07813.42188-.06641.16016-.12109.42578-.12891.58594,0,.16016-.03125.33594-.06641.39063-.03125.05469-.00781.22266.05078.375.08594.20313.09375.3125.03125.43359-.07031.12109-.04688.28125.11328.71094.17578.50391.18359.57031.07031.67969-.0625.07422-.09766.17578-.07031.24219.02344.07031.00781.21484-.04297.32813-.10938.29297-.10156,1.22266.00781,1.51172.11328.26172.27344.92578.3125,1.25391.00781.03516.08203.07422.16016.10547.13672.03906.33594.46484.44922.96094.07813.34375.26563.78906.33594.81641.03906.01563.17578-.08203.30469-.20313.38281-.375.64844-.44531,1.00781-.29297.17578.07031.53516-.27344.64063-.61719.125-.42578.23047-1.26563.15234-1.26563-.02734,0-.13672-.08594-.25781-.19922-.18359-.16797-.20703-.23047-.14453-.39063.08203-.21484.02344-.89063-.08594-1.10547-.05078-.08594-.03516-.16797.04688-.25391.14453-.13672.30469-1.20313.21484-1.39453-.03906-.07031-.05469-.20703-.03906-.29297.08984-.61719.07031-.85156-.0625-1.01953-.18359-.20703-.18359-.23828,0-.44531.16797-.19922.28516-.99219.17578-1.19922-.04297-.07422-.05859-.26563-.03516-.41797.01953-.15234.05078-.42578.06641-.60156s.04688-.44531.07813-.59766c.04297-.26563.05859-.43359.04297-.66406-.01953-.20703.23047-1.05469.33594-1.13672.0625-.04688.09375-.21484.07813-.46484-.01563-.375.15234-.85547.30469-.85547.04688,0,.07813-.12109.07813-.26172,0-.13672.08203-.40234.18359-.57813.17969-.3125.17969-.32031.03516-.60937-.20313-.39844-.25-.83203-.10547-.96484.12109-.12891.23047-.42578.23828-.67969.01172-.09766.11328-.26563.23438-.37891.12109-.10938.21484-.23828.21484-.28516,0-.1875.33594-.73047.52734-.85156.13672-.09375.19531-.19141.16797-.28516-.02344-.08984.02734-.21875.12109-.30469.20703-.19141.13672-.30469-.19141-.3125-.14453-.00781-.42578-.02344-.625-.03906-.19922-.00781-.46484.02344-.59766.07031-.37109.14453-1.48047.14453-1.82422,0-.16016-.0625-.34375-.09375-.41797-.07031-.0625.03125-.22266.00781-.35156-.03906-.18359-.08203-.29688-.07422-.63281.05469s-.42969.13672-.55078.05469c-.28906-.19922-1.27344-.32031-1.44922-.17578-.05469.03906-.53516.08984-1.07031.09766-.5625.01563-.98438.05469-1.01563.10156-.08203.12891-.48828.26563-.59375.20313-.04688-.03516-.24609-.06641-.4375-.07422-.73828-.04688-.875-.23047-.46484-.61719.15234-.14063.3125-.33594.35938-.42969.04688-.09766.23047-.25781.40625-.35156.17578-.10547.3125-.22656.28906-.28125-.05469-.14453.35156-.55859.69531-.69531.16016-.07422.29688-.10547.29688-.07422,0,.03516.12109-.05469.26563-.19922.13281-.14453.36719-.35938.50391-.48047.13281-.11719.39844-.35938.58203-.51953.17578-.16797.32813-.34375.32813-.39844,0-.21484.15234-.32813.44922-.33594.23828-.00781.30469-.03906.3125-.17578.01563-.19141.26172-.45703.57422-.61719.21484-.11328.50391-.12109,1.04688-.02344.13672.02344.37109.0625.50391.07813.13672.01953.26563.05859.28906.08203s.09766-.00781.16016-.07422c.06641-.0625.19922-.11719.29688-.11719.23047,0,.64844-.38672.71875-.65625.06641-.26563-.08594-.53516-.26172-.49609-.16797.04688-.26563-.03125-.48047-.39453-.19922-.31641-.28906-.35156-.51953-.17578-.08984.06641-.24219.12109-.33594.12109-.09766,0-.29688.12109-.44141.25781-.13672.14453-.33594.26172-.43359.26172-.09375.00781-.25391.07422-.35156.13672-.10156.07422-.23047.11328-.29688.08984-.05469-.01563-.22266.04688-.36719.16016-.14453.10938-.48047.31641-.74219.46094-.26563.14453-.50391.30469-.53516.34375-.03516.05078-.10547.16016-.16016.24219-.13672.19922-.29688.35938-.61719.60938-.13672.10938-.30469.29297-.36719.41406-.07422.12109-.21875.24609-.32031.27344-.11328.02344-.19922.07813-.19922.10938,0,.03516-.09766.10547-.21875.14453-.125.03906-.36719.22656-.55078.40234-.45703.4375-.61719.51953-.86328.40625-.24219-.11328-.28906-.22266-.33594-.79297-.03125-.46484-.16016-.84766-.32813-1.02344-.07422-.07813-.08203-.15234-.02344-.26172.0625-.10547.05469-.20313,0-.3125-.05078-.08984-.06641-.16016-.04297-.16016.02734,0,.01172-.07422-.03906-.16016-.04688-.08984-.10156-.28125-.12891-.42578-.02344-.14453-.05469-.34375-.07813-.45703-.04688-.25391-.04688-.30859-.00781-.58203.02344-.17578-.00781-.25-.14453-.3125-.23828-.10547-.35156-.36719-.27344-.64844.03516-.12109.02734-.21484-.00781-.21484-.03906,0-.09375-.08203-.125-.17578-.08984-.28125-.63281-.73828-1.08984-.90625-.23047-.08594-.44141-.16797-.46484-.17578-.02344-.01563-.08594.00781-.14453.04297Zm-2.35156,2.02344c.09766.0625.17578.13672.17578.17578,0,.03125.10547.12109.23438.19922s.35938.30469.51953.49609c.16016.19922.32031.39844.35938.44922.16016.19922.25.4375.25.70313,0,.16016.04688.30469.10938.34375.18359.10547.27344.42578.18359.67188-.07031.18359-.05469.25781.12891.47266.24219.28125.24219.3125.14453.72656-.05469.23438-.02344.38672.12891.76172.11719.29688.18359.58984.16797.79297-.01563.22266.01563.35938.10938.45313.16797.16797.11328.35938-.10938.42578-.08203.03125-.3125.19922-.49609.38281-.69531.67188-.76172.6875-1.30469.35938-.39844-.23828-.6875-.30469-.85547-.17578-.11328.07422-.19141.08203-.33594.01563-.10547-.04688-.19141-.11719-.19141-.16016,0-.03125-.07422-.0625-.16016-.0625-.08984,0-.16016.03125-.16016.07031,0,.15234-.28125.16797-.60938.04297-.22266-.08984-.44922-.11328-.64844-.08203-.16797.02344-.35156.04688-.39844.04688-.05859,0-.16797,0-.24219.00781-.47266.01953-1,0-1.38281-.03125-.23828-.01563-.48047,0-.53516.04297-.16797.125-.53516.13281-.82422,0-.15234-.06641-.3125-.11328-.35156-.10547-.34375.07031-.71484.04688-.81641-.05469-.10547-.09766-.13672-.10547-.19141-.02734-.08203.13672-.75391.26563-1.03125.20313-.53125-.12109-.53906-.12891-.64844-.69922-.05078-.23047-.01563-.44531.13281-.87891.10547-.3125.22656-.58984.25781-.61719.03906-.02344.08984-.11719.12109-.20703.03125-.09375.16016-.21484.28516-.26172.13672-.05078.35547-.12891.48047-.17578.13672-.05859.30469-.20313.37109-.32031.0625-.12891.14844-.23438.19141-.23438.04688,0,.07813-.04688.07813-.10938,0-.14453.42578-.57813.71875-.73047.27344-.13672.45703-.27734.81641-.625.21094-.19922.32031-.24609.48047-.22266.07422.00781.17578-.07813.77734-.63281.23828-.21484.46484-.39844.49609-.39844s.16016-.08984.28125-.19922c.16016-.15234.24609-.17578.35156-.12109.16016.08984.375.03125.54297-.13672.05469-.04688.15234-.07813.21484-.05469.06641.03125.22656-.05469.36719-.19922.17578-.18359.29688-.24219.41016-.20313.10547.03516.20703-.00781.30469-.10938.11719-.12891.23828-.15234.53516-.13672.21484.00781.47266.07031.56641.12891Zm12.28906,1.23047c.02344.06641-.01563.16797-.07813.23438-.12891.13281-.32031.09375-.38672-.07422-.02344-.0625.01563-.16797.08203-.23047.12891-.13672.32031-.09766.38281.07031Zm-3.02344,6.57031c.39063.14063.69531.19922,1.07031.19141.67188-.00781,1.07422-.04297,1.16797-.09766.09766-.0625.59375.14453.59375.25781,0,.03906.07031.07813.15234.07813.16016,0,.40625.19141.40625.32031,0,.03906-.04688.12109-.10938.17578-.05859.06641-.1875.26563-.28125.44922-.09766.18359-.19922.33594-.23047.33594-.03516,0-.10547.16797-.16016.375-.12891.48047-.32031.87109-.5625,1.16016-.10156.12109-.16797.25781-.14453.29688.03516.03906-.03906.16797-.14453.26953-.16797.16797-.26953.20313-.70313.19531-.32031,0-.59766.04688-.75781.125-.21094.11328-.27344.12109-.35938.03516-.09766-.09766-.58594-.11328-1.42578-.05078-.16797.01563-.56641-.05469-.75391-.125-.07813-.04297-.16797-.02734-.19922.02344-.03125.04688-.18359.14453-.34375.20703-.24609.10547-.3125.11328-.39844.01563-.13672-.12891-.35938-.12109-.60156.01563-.14453.08203-.24609.07422-.63281-.07031l-.46094-.17578-.37891.21484-.375.20703-.23828-.19141c-.22656-.19922-.24219-.19922-1.02344-.12109-.74609.08203-1.14453.10547-1.36328.08203-.26953-.02344-.16797-.51172.12891-.60937.19141-.0625.34375-.55859.27344-.90234-.05859-.28906.19922-.77734.44531-.85547.12109-.04297.16016-.12109.16016-.32031,0-.30469.20313-.55469.40234-.49609.07813.01563.19922-.03516.26953-.11328.07422-.08984.16797-.15234.22656-.16016.10938-.00781.34375-.03906.74219-.11328.13672-.01563.51172-.10938.83984-.20703.70703-.19141.95313-.22266,1.13672-.13672.08203.04297.29688.00781.51953-.0625.52734-.18359.96094-.20703,1.21875-.07422.15625.08203.24609.08984.30078.03516.05078-.05078.22656-.10547.39453-.12891.17578-.02344.38281-.09766.47266-.15234.19141-.13672.07813-.15234.72656.09766Zm-12.28906.26953c.08984.08984.23438.16016.32031.16016.48047,0,1.19922.5625,1.19922.92969,0,.10938.05078.25391.11328.32031.0625.05469.12891.15234.14453.20703.02344.07031.07031.0625.17578-.03125.17578-.18359.36719-.09766.42188.18359.02734.12891.07422.23047.10547.23047s.09766.08984.14453.19141c.07031.16016.05469.23438-.07422.40234-.08594.10938-.14063.23828-.10938.27734.02344.04297-.13672.25781-.35156.47266-.32031.32031-.46484.41016-.78516.45703-.20703.03906-.41406.0625-.44922.05469-.03125-.00781-.24609-.03906-.48047-.05469-.23047-.02344-.50391-.10547-.61328-.18359-.25781-.18359-.69531-.21484-.84766-.05469-.16016.14844-.30469.14844-.47266-.00781-.06641-.07422-.16797-.11328-.23438-.08984-.05469.02344-.14844.01563-.20703-.02344-.0625-.03906-.25391,0-.45703.08594-.33594.14453-.375.14453-.58203.02734-.20703-.12891-.22266-.12891-.39063.03906-.12109.11719-.25781.16797-.43359.15234-.14453-.00781-.30469.01563-.35938.04688-.16016.09766-.95313-.26563-1.04688-.48047-.06641-.14453-.05078-.22266.07813-.375.18359-.24219.18359-.35938.03125-.57031-.20703-.26953-.10938-.89453.24219-1.57422.11719-.23047.41406-.44141.49609-.35938.03125.02344.09375.00781.16016-.03906.10156-.08984.20703-.11328.82422-.19531.16016-.01563.38281-.0625.50391-.10938.16016-.06641.23828-.05859.33594.03906.09375.10547.19141.11328.47656.04688.28125-.0625.39453-.05469.47266.03125.06641.05859.12891.08984.15234.06641.01563-.02344.22656-.05859.45703-.07422.28906-.02344.47266-.08594.57422-.19922.1875-.19922.26563-.19922.46484,0Z"/>
   <path class="b"
         d="m22.15017.43571c.04688.12109.03125.22266-.04297.32031-.16016.21484-.14453.28906.04297.19141.11719-.0625.18359-.04688.31641.09766.12109.125.16016.14063.17578.05469.01953-.19922.03516-.27344.09766-.45703.08984-.25391-.0625-.39844-.38281-.39063-.25.00781-.26563.02344-.20703.18359Z"/>

</g>
</svg>
