<?xml version="1.0" encoding="UTF-8"?>
<svg xmlns="http://www.w3.org/2000/svg"
     version="1.1"
     width="23.42237968mm"
     height="21.49502291mm"
     viewBox="0.00000000 0.00000000 66.39416814 60.93082649">

<g transform="scale(4.30598027)">   <defs>
      <style type="text/css"><![CDATA[
      .b {
        stroke: #000;
        stroke-linecap: round;
        stroke-linejoin: round;
        stroke-width: .15px;
      }
    ]]></style>
   </defs>
   <path class="b"
         d="m10.43881.60931c.83752,0,1.61269-.09148,2.43222-.20525.52042-.07225,1.05993-.27058,1.56924-.32024,1.00188-.09768.89752.63223.89752,1.38368,0,1.87879.14607,3.85215-.97238,5.43998-.49561.7036-1.05349,1.32362-1.55154,1.98389-.44957.59601-1.22175,1.04264-1.83281,1.50077-.79727.59773-1.5336,1.25397-2.39303,1.74956-.84053.4847-1.68537.65614-2.57037.9666-.4173.14639-.68663.42658-1.13235.51873-.45018.09308-.87037.22654-1.31714.33281-.25665.06105-.77638.17676-1.03916.07529-.22811-.08808-.42635-.56031-.27252-.81564.39488-.65547,1.73159-.0401,2.0875-.68905.0961-.17522.04837-.36058.20452-.53374.17946-.19901.45349-.27118.69081-.37686.42723-.19026.89702-.33281,1.30936-.53856.87407-.43616,1.48573-1.00823,1.9314-1.85341.26926-.51063.48687-.68611.9471-.99794.32396-.21951.5475-.45593.64227-.83178.18123-.71873.29813-2.24488-.77233-2.05956-.99625.17247-2.13052.54811-3.13491.41173-.54279-.0737-1.08606-.10972-1.63209-.12986-.56165-.02071-1.08762.20714-1.6218.26178-.60584.06197-1.22731.08145-1.81777.15139-.41854.04957-.95979-.05091-1.01065-.52549-.02699-.2518.05949-.37658.22425-.55144.23933-.25399.22567-.24828.35866-.58508.20855-.52818.49704-.74357.90284-1.13444.48544-.46758.97353-.99123,1.49092-1.40931.72979-.58971,1.61865-.42553,2.47459-.57186.7604-.12999,1.44826-.65047,2.26208-.61528.88253.03817,1.75659-.03146,2.64558-.03146Z"/>

</g>
</svg>
