<?xml version="1.0" encoding="UTF-8"?>
<svg xmlns="http://www.w3.org/2000/svg"
     version="1.1"
     width="58.22762272mm"
     height="60.87074058mm"
     viewBox="0.00000000 0.00000000 165.05475497 172.54703252">

<g transform="scale(5.48057697)">   <defs>
      <style type="text/css"><![CDATA[
      .b {
        stroke: #000;
        stroke-miterlimit: 10;
        stroke-width: .1px;
      }
    ]]></style>
   </defs>
   <path class="b"
         d="m6.67781,4.73851c-1.71387,1.5018-3.02912,4.52056-3.87885,5.94562C1.49087,12.87789-.43682,15.6628.16255,18.3829c.621,2.81809,5.13172,3.31709,7.39153,2.56147,1.1984-.40072,2.85133-1.55871,1.82963-3.07493-.89186-1.32353-3.17991-.48176-4.50722-.75232-3.28862-.67035-2.45067-2.80138-.89507-5.10157.90378-1.33637,1.5868-2.8202,2.42873-4.18221.55955-.90519,1.8441-2.46032,1.66666-3.57532-.50634.00281-.99779.1716-1.399.48049Z"/>
   <path class="b"
         d="m14.44286.05252c-1.7441.48275-2.52,1.69488-1.92368,3.27371.60726,1.4906.94865,3.07607,1.00869,4.6845.23635,4.12677-.17359,8.26514-1.215,12.26534-.64304,2.17257-1.10693,4.39418-1.387,6.64254-.14,1.55812.88166,5.05883,3.16778,4.44286,1.89847-.51152,2.70807-4.63114,2.91819-6.20582.55327-3.5245.78796-7.09167.7012-10.65827-.20021-4.04931,1.23218-12.75759-3.27018-14.44486Z"/>
   <path class="b"
         d="m22.93223,6.41565c-1.38183-.73471-2.59782,1.00607-2.6542,2.14206-.109,2.19716,1.93037,1.05408,3.18.91546,3.164-.351,3.81858,3.72984,4.05009,6.13162.17494,1.87089-.0936,3.75667-.78383,5.50436-.32439.76043-2.90569,4.33971-.23925,3.89853,2.15861-.35715,2.624-5.00828,2.93978-6.56856.49377-2.43933,1.13888-4.61593.03342-7.01583-.60759-1.319-1.14907-3.649-2.53206-4.12278-1.27531-.50703-2.62382-.80579-3.99395-.88486Z"/>

</g>
</svg>
