<?xml version="1.0" encoding="UTF-8"?>
<svg xmlns="http://www.w3.org/2000/svg"
     version="1.1"
     width="21.99341857mm"
     height="52.54270421mm"
     viewBox="0.00000000 0.00000000 62.34359150 148.93995383">

<g transform="scale(4.76726996)">   <defs>
      <style type="text/css"><![CDATA[
      .b {
        stroke: #000;
        stroke-linecap: round;
        stroke-linejoin: round;
        stroke-width: .25px;
      }
    ]]></style>
   </defs>
   <path class="b"
         d="M2.17563,7.44204C1.47833,12.33839.70186,17.10922.125,22.07099c.95491.45067,2.14196.02682,2.87188-.73617s1.09892-1.794,1.41608-2.80115c.75529-2.39846,1.33031-4.85367,1.71861-7.33808.08995-.57549.18742-1.19072.5826-1.61865s1.20244-.51802,1.50919-.02286c.11379.18367.1376.40772.15007.62342.06587,1.13868-.10525,2.27729-.31245,3.3989-.76491,4.14072-2.03431,8.2464-1.91437,12.45547.00369.12934.01153.26725.08783.37175.28898.39581.94253-.18113,1.39137.01562.36745.16107.31934.73065.05082,1.02874s-.66624.45019-.95126.73255c-.41898.41506-.53479,1.06257-.44182,1.64496s.08475.54822.35418,1.07284c.09854.19187.4913.1773.70352.21591.13763.02504.58858-.11612.71107-.18367.61702-.34028.74775-.0536,1.15451-.62897.39555-.55951.79566-1.12761,1.02976-1.77158.28113-.77332.30751-1.61207.34162-2.43419.19807-4.77416.75846-9.53324,1.67476-14.22283.39782-2.03605.86516-4.10215.64133-6.16459-.05408-.4983-.15032-.99816-.36268-1.45218-.50836-1.08689-1.97949-1.31786-3.00993-1.93264-1.94762-1.16199-3.54463-3.48949-5.46789-1.28313-1.52192,1.74595-1.51875,4.24489-1.87819,6.40158h.00002Z"/>

</g>
</svg>
