<?xml version="1.0" encoding="UTF-8"?>
<svg xmlns="http://www.w3.org/2000/svg"
     version="1.1"
     width="67.11937279mm"
     height="19.11750176mm"
     viewBox="0.00000000 0.00000000 190.25964667 54.19130037">

<g transform="scale(4.38879466)">   <defs>
      <style type="text/css"><![CDATA[
      .b {
        stroke: #000;
        stroke-linecap: round;
        stroke-linejoin: round;
        stroke-width: .01px;
      }
    ]]></style>
   </defs>
   <path class="b"
         d="M21.40134.02201c-.07422.03125-.66406.11719-1.60156.23047-.29297.03906-.62109.13672-1.39844.41406-.6875.25-1.26563.37109-2.24219.47266-.59766.06641-1.05469.24219-2.67969,1.04297-1.78906.87891-2.33594,1.08594-3.16016,1.24609-.28516.05469-.78906.18359-1.11719.28906-.32813.09375-.65625.18359-.73828.18359-.07031,0-.16016.03125-.18359.07813-.02344.04297-.19922.11328-.38281.16016-.18359.05078-.48047.16016-.65625.24219-.17578.08594-.48047.17578-.67969.20703-.19922.02344-.51953.10547-.71094.16797-.37891.12109-1.12891.56641-1.12891.67188,0,.03125-.09766.09766-.21484.14453-.12891.04688-.37109.19922-.54688.32813s-.52734.34375-.78125.48047c-.25.12891-.64063.36719-.86719.51953-.22266.15234-.46094.28125-.52734.28125-.05469,0-.33594.14063-.59766.31641-.27344.17969-.53125.32031-.5625.32031-.03906,0-.125.13672-.19922.29688-.0625.16797-.16797.35938-.23047.43359-.13672.14453-.23438.78125-.16797,1.04688.10938.44141,1.07813,1.22266,1.61328,1.32031.08984.00781.34375.05469.5625.10547.22266.03906.70313.10938,1.07813.16016.375.05469.86328.14063,1.08203.19922.22266.05469.64063.12891.93359.15234.28906.02344.79297.10938,1.12109.19922.44141.12109.84766.16016,1.625.16016.57422,0,1.3125.03125,1.64063.07813.32813.05078.82422.08984,1.09375.08984.27344,0,.76172.05469,1.08203.12891.67969.15234,2.0625.19922,2.70313.10156.23828-.03906.91016-.07813,1.48047-.09375.57422-.01563,1.18359-.07422,1.35938-.12109.38281-.10547,2.88672-.28906,3-.21484.03906.02344.14453.01563.21484-.03516.08203-.03906.50391-.10938.94531-.16016.44141-.04688,1.14453-.13281,1.55859-.20703.41797-.0625,1.01563-.13672,1.32031-.16016.3125-.01563.90625-.05469,1.32031-.07813.41797-.03125,1.04688-.12891,1.39844-.21875.35547-.08594.875-.20703,1.16016-.26172,1.61719-.3125,2.24219-.44141,2.60156-.54297.22266-.06641.60156-.14453.83984-.16797.51953-.06641,1.08984-.18359,1.64062-.35156.22266-.07422.45703-.12891.51953-.13672.07031-.00781.34375-.09766.60156-.19141,1.08594-.42578,1.46875-.5625,2.02344-.73047.36719-.10938.67188-.25391.82422-.40625.13672-.12891.27734-.21094.35156-.18359.21484.08594.18359.28516-.13672,1.03125-.15234.33594-.24609.71094-.26563.96875-.01563.39844-.00781.42188.28125.61328.42578.27344,1.03125.33594,1.67969.16797.59375-.14453,1.35938-.48828,1.35938-.59766,0-.03906.35156-.42578.78516-.84766.72656-.72266,1.375-1.61719,1.375-1.90625,0-.05469.10547-.36719.23438-.69531.28516-.72656.35938-1.19141.28516-1.87109l-.05469-.53516-.56641-.53906c-.44922-.42188-.69531-.58984-1.13672-.75781-.30469-.11328-.87891-.33594-1.28125-.49609-.39063-.16016-.91797-.35938-1.16016-.44141-.23828-.08594-.74219-.26953-1.11719-.42188-.37891-.14453-.85938-.30469-1.08203-.35938-.21484-.05078-.50391-.16016-.64063-.24219-.4375-.26563-2.13672-.58984-3.03125-.57422-.18359,0-.54297-.03516-.80859-.08203-.26172-.03906-1.61719-.07813-3-.07813-2.00781.00781-2.66406-.02344-3.23828-.12891-.47266-.08984-1.24219-.13672-2.19922-.15234-.81641-.00781-1.71484-.03125-2-.05469-.28906-.02734-.55469-.03516-.60156-.00781ZM25.79978,4.35014c.61719.02344,1.17578.07031,1.24219.10156.0625.03125.87109.06641,1.79297.08203.91797.00781,1.74219.04688,1.8125.09375.08203.03906.27344.07422.42578.07422.50391,0,.89453.28516.66406.48047-.53516.44531-1.6875.99219-2.05469.97266-.06641,0-.25.04297-.40234.10547-.15234.05469-.58203.19922-.95313.32031-.36719.11328-.87891.3125-1.13281.44922-.25781.125-.59375.23047-.73828.23047-.15234,0-.41406.0625-.58203.13672-.17578.07031-.48828.16016-.71484.19141-.21484.03125-.64453.12109-.95703.19141-.30469.08203-.73828.15234-.96094.16797-.21484.00781-.64844.06641-.96094.10547-.51953.07813-.82422.13672-1.71875.33594-.19922.04688-.44922.09375-.55859.10156-.11328.00781-.28906.04297-.40234.07422-.11328.02344-.42969.07031-.71875.08594-.28906.02734-.91406.12109-1.40234.21094-1.32031.24609-1.73438.27734-2.94922.26172-.78516-.01563-1.23438-.05469-1.51953-.15234-.22656-.07031-.53906-.17578-.69141-.22266-.32813-.11328-.52734-.41797-.45313-.70313.09375-.35938.87891-1.03125,1.76563-1.50391.45703-.24219.99219-.54688,1.20313-.67188.34375-.21094.74219-.34375,1.26172-.41016.12109-.01563.35156-.10156.51953-.18359.16797-.08594.5625-.18359.86328-.21484.3125-.03125.64844-.06641.76172-.08203.35938-.03906.96875-.19922,1.20703-.32031.12891-.07031.44922-.11719.76953-.11719.29688,0,.70313-.04297.90234-.08984.63281-.15234,1.6875-.22266,2.64063-.18359.50391.02344,1.42578.05469,2.03906.08203Z"/>

</g>
</svg>
