<?xml version="1.0" encoding="UTF-8"?>
<svg xmlns="http://www.w3.org/2000/svg"
     version="1.1"
     width="60.84231043mm"
     height="47.36072190mm"
     viewBox="0.00000000 0.00000000 172.46637599 134.25087384">

<g transform="scale(6.07147487)">   <defs>
      <style type="text/css"><![CDATA[
      .b {
        fill: #000;
        stroke: #000;
        stroke-linecap: round;
        stroke-linejoin: round;
        stroke-width: .25px;
      }
    ]]></style>
   </defs>
   <path class="b"
         d="M26.38501.22082c1.57898-.461,2.18002.81799,1.772,2.20001-.17099.58099-.853,1.93402-1.63202,1.854-.85501-.08899-.24197-1.10101-.63995-1.54102-.54605-.60303-.99103.56897-1.121.95801-.15002.45203-.24603.48798-.53003.83301-.80798.98297-1.61197,1.96002-2.26297,3.04999-.427.71503-1.82404,1.71802-.07004,1.95197.49704.06604,1.53802-.02698,1.82098.41907.46906.73895-.43195.87799-.90598,1.02197-.76199.23199-1.49503.71503-2.241.90796-.47702.12402-1.46399-.16498-1.76602.00903-.58096.336-.08499,1.05701-1.09195,1.03601-.18301-.74597.77499-1.198.58698-1.92499-.13199-.50903-.896.45001-.92899.51593-.20801.41205-.26501.91406-.52701,1.34808-.35803.59198-1.36099,1.63196-1.24899,2.39197.15796,1.08295.89297.00397,1.14597-.44598.46103-.82007,2.56802-2.849,3.427-1.80701.17102.20801-.03696.46198.25604.71301.24194.20697.60797.13599.89294.19.60403.11298,1.26605.26099,1.92804-.04401.31396,3.39099-5.25198,1.95996-6.83899,3.16895-1.08405.82605-2.58801,1.02802-2.354-.83197.095-.74597.65497-1.53699.979-2.25897.32397-.71899.625-1.328.836-2.09607.16098-.58594.44-1.5.23199-2.17194-.22101-.711-.80301-1.06-.59399-1.97601.22998-1.00403,1.91095-1.81702,2.82199-1.17102.61398.435.673,1.80499,1.47299,1.81903.841.01398,1.23798-1.11304,1.61499-1.68701.59198-.89697,1.26102-1.73199,1.82803-2.66101.31497-.51593.85995-.87799,1.12595-1.41205.43805-.88196.91904-2.03992,2.01202-2.35895h.00002Z"/>
   <path class="b"
         d="M13.4,11.77483c.698.29199,1.49603.53198,1.03503,1.24194-.328.50403-1.26401.13806-1.75101.34503-1,.42401-.96899,1.55804-1.30099,2.42804-.25601.672-1.26901,1.54095-1.72101,2.14099-.52298.69397-1.34698,1.01599-1.92099,1.64001-.60901.65997-1.25201.92297-2.013,1.39795-1.02802.64105-1.81201.62402-2.95599.82605-.51102.08997-1.09399.26099-1.62601.16199-.52499-.09802-.92499-.47107-1.021-1.00903,0-.00195,2.80899-.15198,3.07498-.185.94901-.12,2.23199-.573,2.90402-1.28302,1.38797-1.46899,4.33896-2.72998,3.53696-5.33398-.39899.18701-.75696.54504-1.20596.638-.12704-.35095-.405-.508-.42401-.896-.01703-.32904.24799-.633.36502-.92499.22098-.55402.45197-1.26398.37799-1.87598-.52399.14294-.76904.47595-.819,1.00598-.68002-.22699-.02304-.77399.06299-1.03497.18399-.56097.08899-1.138.228-1.72809.11902-.50098,2.44702-.86499,2.87402-.98596.59698-.17096,2.00299-.42999,2.60199-.26501.02301.41705.10596,1.08203-.052,1.46301-.14902.35901-.504.48199-.74399.75403-.76401.862-.18301,1.19501.49396,1.479h0Z"/>
   <path class="b"
         d="M13.39996,11.77483c.69702.29205,1.49606.53204,1.03506,1.242-.328.50403-1.26404.138-1.75101.34503-1,.42401-.96899,1.55798-1.30099,2.42798-.25601.672-1.26904,1.54102-1.72101,2.14099-.52301.69403-1.34702,1.01703-1.92102,1.64008-.60898.65997-1.25201.92395-2.01297,1.39795-1.02805.64105-1.81204.62396-2.95602.82605-.51102.08997-1.09399.26093-1.62701.16193-.52399-.09802-.92398-.47095-1.01999-1.00897,0-.00195,2.80899-.15204,3.07498-.185.94901-.12,2.23203-.573,2.90405-1.28302,1.38797-1.46893,4.33899-2.72998,3.53696-5.33398-.39902.18701-.75696.54504-1.20596.638-.12704-.35101-.40503-.508-.42401-.896-.01703-.32904.24799-.633.36499-.92499.22-.55402.452-1.26398.37701-1.87604-.52298.14301-.76801.47601-.81802,1.00604-.67999-.22699-.02301-.77405.06299-1.03503.18405-.56091.08902-1.138.228-1.72803.11902-.50098,2.44702-.86499,2.87402-.98596.59698-.17096,2.00201-.42999,2.60199-.26501.022.41699.10599,1.08203-.05197,1.46301-.14902.35901-.504.48199-.74402.75397-.76401.862-.18301,1.19507.49396,1.479h-.00001Z"/>

</g>
</svg>
