<?xml version="1.0" encoding="UTF-8"?>
<svg xmlns="http://www.w3.org/2000/svg"
     version="1.1"
     width="27.25149374mm"
     height="22.44473515mm"
     viewBox="0.00000000 0.00000000 77.24833401 63.62283909">

<g transform="scale(5.59901992)">   <defs>
      <style type="text/css"><![CDATA[
      .a {
        fill: #000;
        stroke: #000;
        stroke-miterlimit: 2.61313;
        stroke-width: 0.28346px;
      }
    ]]></style>
   </defs>
   <path class="a"
         d="M.37012,10.67676a1.93654,1.93654,0,0,0,2.94727-.30469c.43359-3.1709.85352-6.36768,2.21875-7.88428.61328-1.04492.8418-1.90039.23047-2.334-3.40625.877-5.5625,3.626-5.39648,10.52295Z"/>
   <path class="a"
         d="M9.17334,1.91455c1.23633-.04395,1.64453.5166.22852,2.41113a6.13278,6.13278,0,0,0-.26758,2.33447,1.69585,1.69585,0,0,1-.15234,1.2627,4.83482,4.83482,0,0,1-3.86572,2.832C4.21,8.82227,6.499,5.17627,9.17334,1.91455Z"/>
   <path class="a"
         d="M10.93311,3.78955q0-1.51025,1.07227-1.49219.82031-1.20557,1.64453-.72754-.13477,2.23828-.26855,4.47754c-.25488.15381-.50879.30615-.76465.46045q-.03809.55371-.07715,1.10938c-1.10449,1.626-2.07324,2.85156-2.56348,2.64063-.51172-.31836-.2168-.99512.19141-1.72266.06445-2.01758-.06055-4.47021.76563-4.74561Z"/>
   <path class="a"
         d="M.1416,10.64063V8.53516c3.98828-1.207,7.17236-1.49609,8.9165-.15234a8.76593,8.76593,0,0,1,3.90234,1.22461c-.02148,1.03906-.25586,2.01563-7.07861.99414a35.72545,35.72545,0,0,0-5.74023.03906Z"/>

</g>
</svg>
