<?xml version="1.0" encoding="UTF-8"?>
<svg xmlns="http://www.w3.org/2000/svg"
     version="1.1"
     width="69.34958446mm"
     height="58.46959539mm"
     viewBox="0.00000000 0.00000000 196.58147705 165.74054630">

<g transform="scale(4.55014536)">   <defs>
      <style type="text/css"><![CDATA[
      .b {
        fill: #000;
        stroke: #000;
        stroke-miterlimit: 10;
        stroke-width: .25px;
      }
    ]]></style>
   </defs>
   <path class="b"
         d="M16.78279,7.74467c.40632,1.53865.11422,3.16838-.24145,4.71952-1.28199,5.59096-3.44751,11.11233-7.24805,15.40863-1.28012,1.4471-2.72737,2.73534-4.17072,4.01968-.7316.65101-1.47495,1.31003-2.35359,1.74252-.56638.27879-1.183.46016-1.71133.80567s-.97331.91762-.92969,1.54739c.00634.0915.02679.18963.09531.25059.09061.08061.22878.06727.34761.04303,1.19623-.24399,2.17554-1.07276,3.09791-1.8726,1.81713-1.57576,3.63427-3.15152,5.4514-4.72728,1.38475-1.20081,2.77963-2.41225,3.89795-3.86444.80925-1.05085,1.4615-2.21236,2.09835-3.3758,1.52229-2.78102,2.97808-5.62763,3.94467-8.65638.47687-1.49427.83257-3.03019,1.00059-4.59105.09986-.92768.33027-1.25127-.54275-1.50759-.79462-.2333-1.93463-.06092-2.73621.05811Z"/>
   <path class="b"
         d="M19.25467,3.93051c.12842,5.8765-1.37156,11.78029-4.28942,16.88283-.65972,1.15367-1.40056,2.29187-1.71257,3.5837,1.87008-1.54854,3.23052-3.61101,4.56239-5.6411,1.10019-1.67695,2.21719-3.39061,2.73853-5.32731.46545-1.72909.43252-3.5535.77855-5.31038.21848-1.10931.92228-2.63997.68555-3.7779-.24872-1.19558-1.82574-.6493-2.76303-.40984Z"/>
   <path class="b"
         d="M24.71838,8.74418c.64279.27076,1.33038.45827,1.90507.85352,1.02263.70333,1.60483,2.00688,2.76482,2.44833.41191-.65746.35303-1.5251.0422-2.23595s-.8407-1.29935-1.36164-1.87427c-.77362-.85378-1.54723-1.70757-2.32085-2.56135-.98021-1.08179-2.18-2.25638-3.63531-2.14166-.34419.02713-.70007.14104-.92576.40232-.17667.20453-.25425.47528-.30792.74018-.24702,1.21925-.146,1.71789.79256,2.41657.97706.72734,1.91306,1.47475,3.04683,1.95231Z"/>
   <path class="b"
         d="M27.99626,17.10742c.32863,1.43301.40442,2.91096.63968,4.36223.19704,1.2155.50552,2.40975.81358,3.60196.19442.75245.40855,1.54107.94925,2.0993.74042.76444,1.89653.9084,2.9573.99417.21573.01744.45297.02849.62621-.10125.23334-.17474.2428-.51587.22149-.8066-.30931-4.21986-2.44967-8.08308-3.29111-12.22975-.35401-1.74455-.5745-3.71777-1.95207-4.8452-1.0053-.82275-2.38441-.97227-3.67827-1.08837-.25565-.02294-.56286-.02307-.70717.1892-.15675.23058-.00657.54315.16837.76046.89485,1.11143,1.63189,1.57422,1.90715,2.99102.2704,1.3918,1.02511,2.67539,1.3456,4.07283Z"/>
   <path class="b"
         d="M29.50197,9.17867c-.10393.09262-.21534.19981-.2251.33868-.00875.12452.06771.23763.14519.3355.2734.34532.60447.64488.97532.8825,1.03445-.73355,2.0689-1.46709,3.10335-2.20064.93356-.66201,1.87117-1.32734,2.69426-2.12252,1.34948-1.30372,2.42542-2.97896,4.12096-3.78265.17215-.0816.38004-.15202.54579-.0581.32269.18285.11196.67844-.13898.95156-1.2611,1.3726-2.82059,2.42983-4.36469,3.47394-4.11478,2.7824-8.22956,5.5648-12.34433,8.34721-2.83688,1.91829-5.78967,3.96443-7.34872,7.01354-.5718,1.1183-.93781,2.37603-.81626,3.62614s.78697,2.48484,1.88688,3.09125c.82268.45357,1.79451.52546,2.73187.58764,1.13697.07542,2.2859.15033,3.41023-.03482,1.49836-.24674,2.92208-.95043,4.44058-.96205.6965-.00533,1.39082.13661,2.08591.09201s1.43538-.32785,1.76383-.94207c.13107-.24511.18243-.55665.04234-.79672-.17236-.29538-.56015-.37845-.90214-.38136-.91779-.00783-1.79429.34284-2.67156.61263-2.40229.73879-4.98319.8893-7.45507.43476-1.4157-.26033-2.99742-.91544-3.37527-2.3044-.14215-.52253-.08549-1.08226.06106-1.60357.39791-1.41549,1.41662-2.56871,2.49324-3.57013,1.70199-1.58311,3.61688-2.91697,5.52455-4.24505,2.35372-1.63861,4.70743-3.27721,7.06115-4.91582,1.2002-.83555,2.40234-1.67234,3.67179-2.39839,1.55491-.88932,3.22771-1.62469,4.55054-2.83248s2.25552-3.05471,1.7869-4.78359c-.07043-.25983-.17877-.52269-.38571-.69487-.4027-.33505-1.00361-.2112-1.50106-.04698-2.11516.69827-3.67138,1.68254-5.21674,3.21921-2.00248,1.99122-4.24151,3.79036-6.35011,5.66964Z"/>

</g>
</svg>
