<?xml version="1.0" encoding="UTF-8"?>
<svg xmlns="http://www.w3.org/2000/svg"
     version="1.1"
     width="35.60693048mm"
     height="12.91015744mm"
     viewBox="0.00000000 0.00000000 100.93293671 36.59563341">

<g transform="scale(6.45746798)">   <defs>
      <style type="text/css"><![CDATA[
      .a {
        stroke: #000;
        stroke-linecap: round;
        stroke-linejoin: round;
        stroke-width: 0.01px;
      }
    ]]></style>
   </defs>
   <path class="a"
         d="M3.85775.15642a.4136.4136,0,0,1-.33313.15143A.48643.48643,0,0,0,3.137.49561a1.85061,1.85061,0,0,1-.4785.33313,5.245,5.245,0,0,0-.55118.3089c-.13931.09691-.35736.24228-.49061.33313a1.8289,1.8289,0,0,0-.38764.3513,5.043,5.043,0,0,1-.50272.54512,1.04047,1.04047,0,0,0-.27862.36342A.84089.84089,0,0,1,.27206,2.985,1.11816,1.11816,0,0,0,.08429,4.1237a1.34436,1.34436,0,0,0,.7026.79345c.29679.15143.41187.18171.55118.14537a.8044.8044,0,0,1,.75106.103,1.48674,1.48674,0,0,0,.49061.16353.618.618,0,0,1,.26045.02423.6538.6538,0,0,0,.321-.01211c.16354-.04846.25439-.03029.59358.14536a1.175,1.175,0,0,0,.59358.17565c.103-.00605.34524-.03028.53906-.04845a1.21188,1.21188,0,0,0,.4361-.09691,1.9241,1.9241,0,0,1,.424-.15748,3.44034,3.44034,0,0,0,.56935-.19382.864.864,0,0,1,.321-.0848,3.07722,3.07722,0,0,0,.60569-.109c.27862-.07269.642-.15143.80557-.18171a2.17428,2.17428,0,0,0,.47244-.1272.33585.33585,0,0,1,.321-.00605.27587.27587,0,0,0,.25439.01817.41923.41923,0,0,1,.15143-.05451c.02423-.00606.18776-.03029.36341-.06663a1.94933,1.94933,0,0,1,.49667-.0424,1.96207,1.96207,0,0,0,.56935-.06057,2.11792,2.11792,0,0,1,.64816-.0485.70971.70971,0,0,0,.44215-.06057c.103-.05451.18777-.0848.18777-.06663s.12719-.03028.29073-.109a.606.606,0,0,1,.4361-.09691,2.48368,2.48368,0,0,0,.321.08479.79143.79143,0,0,1,.38764.34525l.22411.3089.38159-.03634a1.0535,1.0535,0,0,0,.54512-.16354.55617.55617,0,0,1,.24227-.12114.13735.13735,0,0,0,.11508-.08479A.86339.86339,0,0,1,15.17206,4.16c.12719-.09085.23622-.19988.23622-.25439a1.19371,1.19371,0,0,1,.12113-.33313.63431.63431,0,0,0,.0848-.45427,1.98594,1.98594,0,0,0-.40581-.79345,1.58067,1.58067,0,0,0-.44216-.05452,1.57555,1.57555,0,0,1-.49666-.07874,1.74707,1.74707,0,0,0-1.01756.103.23934.23934,0,0,1-.19988.01817,1.36116,1.36116,0,0,0-.82374.09086,1.18977,1.18977,0,0,1-.33919.07874.44639.44639,0,0,0-.26045.09691.93788.93788,0,0,1-.3937.12113,1.46377,1.46377,0,0,0-.69654.18777.20074.20074,0,0,1-.23622.01817.54087.54087,0,0,0-.321-.02423.5862.5862,0,0,1-.33313-.03634.36937.36937,0,0,0-.3513.02423,3.58673,3.58673,0,0,1-1.0963.28467,10.5355,10.5355,0,0,0-1.74439.11508c-.2665.07874-.44215-.07874-.44215-.40581.006-.12114,0-.27862,0-.34524a1.6126,1.6126,0,0,1,.03634-.27256c.03028-.12114-.01211-.23622-.17565-.48456a1.29483,1.29483,0,0,1-.218-.48455A1.40122,1.40122,0,0,0,5.2145.27756L4.92982.005H4.45738C4.03945.005,3.97889.02317,3.85775.15642ZM3.60336,2.25817a.94233.94233,0,0,1,.32707.29679.251.251,0,0,0,.15748.14536.36788.36788,0,0,1,.17565.15748c.09691.17566-.01817.33313-.36947.51484-.27256.13325-.32707.14537-.5209.07874a1.12151,1.12151,0,0,0-.424-.03634.55618.55618,0,0,1-.32707-.02423A.9523.9523,0,0,1,2.289,2.70638a1.17631,1.17631,0,0,1,.65414-.58146C3.26417,2.04618,3.29446,2.05224,3.60336,2.25817Z"/>

</g>
</svg>
