<?xml version="1.0" encoding="UTF-8"?>
<svg xmlns="http://www.w3.org/2000/svg"
     version="1.1"
     width="18.60373207mm"
     height="21.78633296mm"
     viewBox="0.00000000 0.00000000 52.73495655 61.75647976">

<g transform="scale(5.41829972)">   <defs>
      <style type="text/css"><![CDATA[
      .b {
        stroke: #000;
        stroke-linecap: round;
        stroke-linejoin: round;
        stroke-width: .25px;
      }
    ]]></style>
   </defs>
   <path class="b"
         d="m5.16448.75309c-1.04701.75903-2.147,1.98703-2.50201,2.41599-.51398.62204-1.09799,1.03104-1.66298,1.61404-.321.33099-.68402.767-.81601,1.20996-.15401.51804-.02501.99203.64201.84396.44197-.0979.99399-.9809,1.32999-1.27094.31299-.271.871-.37302,1.237-.616.26901-.17801.68198-.84802,1.16199-.466.508.405-.14499,1.01602-.39499,1.30002C2.80447,7.3191.11449,9.00111.30349,11.24412c.40099.12195.32498-.17502.586-.33801.33699-.20999.63498-.39001,1.05798-.55899.84801-.33997,1.71701-.47104,2.60002-.70001.666-.17297,1.65398-.41098,2.33897-.20303.51302.15604.76602.746,1.30301.85806.02802.00595,1.07199-1.88306,1.16101-2.13208.25296-.69995.50198-1.70694-.20898-2.23398-.43005-.31894-1.09702-.46695-1.62802-.46899-.59001-.00192-.96899.53403-1.427.53601-1.21101.00705.34099-2.20395.49699-2.70099.20399-.65396,1.14497-2.68103.29602-3.108-.41801-.20999-1.05602.08203-1.71501.55899h0Z"/>
   <path class="b"
         d="m5.16448.75309c-1.04701.75903-2.14699,1.98703-2.502,2.41599-.51398.62204-1.09799,1.03101-1.66299,1.61404-.321.33099-.68402.767-.81599,1.20996-.15401.51804-.02502.99203.64201.84396.44296-.09793.99397-.9809,1.32999-1.27097.31297-.27097.871-.37299,1.237-.61597.269-.17801.68196-.84802,1.16197-.46603.50801.405-.14499,1.01605-.39499,1.30008C2.80448,7.3191.11449,9.00111.30349,11.24412c.401.12192.325-.17499.58598-.33801.33701-.20999.63499-.38998,1.05801-.55899.849-.33997,1.717-.47104,2.60001-.70001.666-.17297,1.65399-.41098,2.33897-.20306.51302.15607.76602.74603,1.30301.85806.02802.00598,1.07202-1.88303,1.16202-2.13205.25198-.69995.50098-1.70694-.20999-2.23401-.43005-.31891-1.09702-.46692-1.62802-.46896-.59001-.00195-.96898.534-1.42699.53598-1.21101.00705.34097-2.20392.49699-2.70099.20398-.65396,1.14499-2.681.29601-3.10797-.418-.20999-1.056.08203-1.71501.55899h0Z"/>

</g>
</svg>
