<?xml version="1.0" encoding="UTF-8"?>
<svg xmlns="http://www.w3.org/2000/svg"
     version="1.1"
     width="36.37573530mm"
     height="42.35612252mm"
     viewBox="0.00000000 0.00000000 103.11230352 120.06460118">

<g transform="scale(4.07980845)">   <defs>
      <style type="text/css"><![CDATA[
      .b {
        stroke: #000;
        stroke-linecap: round;
        stroke-linejoin: round;
        stroke-width: .01px;
      }
    ]]></style>
   </defs>
   <path class="b"
         d="M6.21029.23841c-.07813.16797-.10938.35156-.07813.54297.05469.34375.05469.30469-.01563,1.03125-.0625.60156-.14453.73828-.46484.73828-.28125,0-.44922.19141-.625.72656-.14063.44141-.21484.53516-.48828.6875-.32813.18359-.76563.22656-1.02344.08984-.10156-.05078-.19922-.02344-.35156.08594-.10938.09766-.26953.16797-.35156.16797-.09375,0-.21484.13672-.35156.39453-.10547.21484-.26563.41406-.34375.4375-.15234.05859-.33594.35938-.33594.57813,0,.17578.48047.61328.80859.72656.16016.0625.67969.10547,1.22266.10547.80078,0,.98438.02344,1.27344.16797.67188.34375.87109.78906.53516,1.21484-.08984.11328-.16016.25781-.16016.32031s-.07031.20703-.16016.32031-.16016.25391-.16016.32031c0,.0625-.07031.20703-.16016.32031-.08594.10938-.16016.25391-.16016.32031,0,.0625-.0625.19922-.15234.30078-.07813.10547-.27734.46484-.44531.79297-.16016.32813-.37891.67969-.46484.78516-.19141.19922-.44922.64063-.92969,1.54297-.17578.33594-.41406.75391-.52734.91406-.11328.17578-.19922.41406-.19922.57422,0,.51172-.51172,1.22266-.87891,1.22266-.16797,0-.40234.25-.40234.43359,0,.07813-.17578.67188-.39063,1.3125-.36719,1.10547-.44922,1.46484-.41797,1.92578.00781.1875.01563.1875.15234.06641.08203-.08203.23438-.3125.33594-.53516.30469-.64844.46484-.60938.75391.18359.10156.28516.24609.58203.3125.65625.18359.17578.44531.15234.54297-.06641.04688-.10156.24609-.26953.44141-.35938.50391-.24609.48438-.49609-.05078-1.00781-.22266-.20703-.39844-.42188-.39844-.48828,0-.05469.12109-.24609.26172-.42188.13672-.17578.41797-.57031.61719-.88281.26563-.41406.44922-.59766.69531-.71875.32031-.16016.74609-.6875.99219-1.23047.12891-.28906.28125-.33594.48047-.13672.13672.13672.16016.22266.11328.49609-.02344.18359-.08203.71094-.11328,1.17578s-.07813.89453-.11328.96094c-.02344.0625-.07031.35156-.09375.63672-.02344.28906-.08203.75391-.12109,1.04297-.10156.60547-.12891,2.42188-.03906,2.99219.03125.23047.02344.51172-.03125.67969-.08984.29297-.14453.93359-.23438,2.67188-.03906.77344-.08594,1.03906-.17578,1.09375-.16797.10547-.19141.10547-.42188-.07813-.14453-.11328-.32031-.16016-.61719-.16016-.22266,0-.48047-.03906-.56641-.08203-.11328-.0625-.22656-.04688-.46484.08203-.17578.08594-.36719.16016-.43359.16016-.20703,0-.91797.83984-1.01563,1.19922-.05469.20703-.19922.44141-.375.60156-.22266.19922-.27344.29297-.22266.42969.08594.28906.57422.71094.91016.80859.17578.04688.375.13672.44141.19922.16016.16797.48047.15234.86328-.04688.23828-.12891.39844-.15234.61719-.11328.22266.04297,1.31641.07422,2.20703.05859.0625-.00781.24609-.00781.39844-.00781.33594,0,.38281,0,.98438-.01953.25,0,1.41016-.00781,2.57813,0h2.39844c1.07031-.00781,4.53516-.00781,4.60156,0,.04688.01172.23828-.02344.4375-.07031s.47266-.10547.60156-.12891c.39063-.0625.87109-.21484,1-.32031.0625-.04688.24609-.15234.39844-.23047.15234-.07031.48828-.33594.73828-.58594.35156-.33594.46094-.50391.46094-.67969,0-.13281.08203-.29297.21094-.40625.11719-.10547.28516-.25781.375-.33594.25391-.23047.48047-.34375.67969-.35156.14453,0,.17578-.04688.17578-.23438,0-.26172.19922-.51953.34375-.42969.04688.03125.0625,0,.03125-.08203-.02344-.07031,0-.17578.05859-.23828.05469-.05469.13281-.18359.16016-.28125.03125-.09375.09375-.17578.13281-.17578.04297,0,.07422-.07031.07422-.16016,0-.16016.26172-.91016.39063-1.10156.03906-.06641.19141-.13672.33594-.16797l.27344-.05859-.25781-.13672c-.14453-.07031-.32813-.13281-.42188-.13281-.23438,0-.92969-.37109-.98438-.52344-.08203-.19141-.44922-.14063-.75391.09766-.30469.25-.64844.57813-.80859.77734-.11719.14453-.16797.15234-.33594.04688-.07031-.04688-.13281-.28125-.17578-.65625-.11719-1.16797-.13281-1.27344-.21484-1.52734-.10547-.33594-.23047-1.02344-.29688-1.57813-.02344-.23828-.09375-.59766-.16016-.79688-.35156-1.12109-.42969-1.40234-.42969-1.49609,0-.08203-.19141-.10547-.83203-.10547-.80078,0-.84766-.00781-1.07422-.22266-.27734-.26563-.41406-.51172-.51953-.9375-.08594-.41406-.14453-1.15234-.09375-1.36719.04688-.22266.24609-.29688.39844-.14453.10547.11328.12109.10547.12109-.08984,0-.10938-.03125-.19141-.07422-.16797-.125.08203-.3125-.03906-.40625-.26172-.05469-.15234-.07422-.58594-.04688-1.33594.02344-.60938.04688-1.27344.04688-1.47266,0-.66406-.12891-2.44141-.18359-2.56641-.09766-.20313.15234-.41797.35156-.30469.08594.03906.22266.0625.30469.03125.07813-.02344.36719.03125.65625.12891.4375.15234,1.24609.3125,1.57422.3125.04688,0,.14453,0,.19922.00781.05078,0,.57813.03125,1.16016.05469.92969.04688,1.08984.08203,1.18359.20703.06641.08984.11328.18359.11328.22656,0,.10156,1.05469.07031,1.39844-.05078.19531-.07031.46484-.09375.69922-.07031.3125.03906.39063.02344.42969-.08984.06641-.16797.44922-.36719.71094-.36719.11328,0,.21875-.04688.24219-.10156.01563-.05078.03906-.85938.05469-1.78516.02344-1.33594.00781-1.6875-.07031-1.70313-.22656-.03516-.40234-.01563-.74609.07031-.19922.04688-.57422.10547-.83984.12891-.26172.01563-.60547.07031-.75781.10938-.15234.04297-.41016.09766-.5625.11328-.14844.02344-.36719.06641-.47656.08984-.37891.07031-5.69922.03906-5.85156-.04297-.07813-.04688-.23828-.07813-.36719-.07813s-.42188-.07031-.66406-.16016c-.23828-.08984-.52734-.16016-.64063-.16016-.10938,0-.50391-.11328-.87891-.23828-.375-.12891-.76563-.24219-.87109-.24219s-.41016-.07031-.67969-.15234c-.26563-.08594-.64844-.19922-.84766-.24609-.19922-.05078-.47266-.12891-.60938-.16797s-.35938-.07422-.50391-.07422c-.27344,0-.64844-.29297-.64844-.50391,0-.0625-.12891-.32813-.28125-.58203-.59766-1.02344-.67969-1.21484-.67969-1.625,0-.34375-.03125-.41406-.24609-.58203-.12891-.10547-.375-.30469-.54297-.44922-.38672-.32031-.53125-.32031-.69922-.00781ZM20.53842,7.17981c.06641.20313-.08594.89844-.20703.97656-.29688.17578-.55859-.32031-.39063-.73438.19141-.45703.48828-.57813.59766-.24219ZM21.33139,7.797c.11328.29688-.25391.60156-.46484.38281-.10156-.09375-.10938-.15625-.03125-.29297.15234-.30469.40234-.34375.49609-.08984ZM10.26107,7.797c1.01563.03906,1.21484.11328,1.39844.49609.23438.49609.46484,1.375.43359,1.67188-.05078.44141.00781,1.82422.07813,2.18359.05859.24219.12891.64063.16797.88281.09766.58984.19141,1.00781.35156,1.4375.06641.19922.12891.46484.12891.58594,0,.11719.06641.33594.13672.48047.12891.23828.17578.45313.34375,1.49609.11328.70313.19922,1.0625.34375,1.33594.07422.14063.13672.30859.13672.39063,0,.07031.14453.55078.32031,1.07031s.32031,1,.32031,1.07422c0,.07031.07031.26953.16016.44531.08594.17969.16016.42578.16016.5625s.125.49609.27734.80078c.39453.77344.67188,1.65625.72266,2.25391.01563.27344.05469.60938.07813.74609.02344.125.00781.28516-.03125.35156-.15234.23047-1.80078.375-5.26563.44531-2.61328.05859-2.46875.14453-2.54297-1.47656-.07031-1.73047-.00781-7.53125.08984-7.80078.03125-.08984.08594-.75391.11719-1.48047.05859-1.25.16016-2.25.25781-2.60156.12109-.38281.18359-1.88672.14453-3.19922,0-.08594.01563-.35156.03906-.58984.03125-.25781.00781-.55469-.04688-.73047-.08203-.24609-.08203-.33594.03906-.56641.18359-.35156.27344-.41016.55859-.35156.13672.02344.61719.0625,1.08203.08594ZM4.30014,12.31653c.0625.20313-.04688.38672-.43359.73828-.31641.28516-.51172.32031-.59766.09375-.03125-.09375.20703-.46094.625-.93359.14063-.16016.34375-.11328.40625.10156ZM2.77279,15.23841c.11328.10938.11328.15234-.03125.42969-.08984.17578-.16016.36328-.16016.41016,0,.17578-.5625.94531-.72266.98438-.08594.02344-.23047.0625-.30859.08594-.08203.02344-.21094-.00781-.27344-.07031-.10547-.10547-.10547-.16016,0-.48047.08594-.25781.28125-.51172.70313-.92188.32031-.30859.60156-.56641.625-.56641s.10156.05469.16797.12891Z"/>
   <path class="b"
         d="M25.06186,23.42982c0,.03906.05469.07813.125.07813.06641,0,.09766-.03906.07422-.07813-.02344-.04688-.08203-.08203-.12891-.08203-.03906,0-.07031.03516-.07031.08203Z"/>

</g>
</svg>
