<?xml version="1.0" encoding="UTF-8"?>
<svg xmlns="http://www.w3.org/2000/svg"
     version="1.1"
     width="39.00711058mm"
     height="26.57140118mm"
     viewBox="0.00000000 0.00000000 110.57136712 75.32057173">

<g transform="scale(4.28563383)">   <defs>
      <style type="text/css"><![CDATA[
      .b {
        fill: #000;
        stroke: #000;
        stroke-linecap: round;
        stroke-linejoin: round;
        stroke-width: .01px;
      }
    ]]></style>
   </defs>
   <path class="b"
         d="M21.40344.05339c-.21484.03906-.61328.10547-.87891.16016-.26172.04688-.66406.10547-.88672.12109-.22656.01563-.57031.07813-.76172.14453-.19141.0625-.47266.11719-.625.125-.26172.01953-.64453.11328-1.53516.41797-.24609.08594-.60547.17578-.80078.19922-.75781.10547-1.44531.28125-1.82031.47266-.22656.10547-.71484.25781-1.10547.32813-.38281.07031-.87891.16797-1.10547.20703-.21484.03906-.61328.08203-.87891.09766-.625.03125-1.3125.15234-1.52734.26953-.09766.05078-.28125.08203-.41797.05859-.13281-.01563-.40625.02344-.60547.07813-.26563.08203-.43359.08984-.65625.02344-.16797-.03906-.42578-.05469-.57813-.03125-.33594.04688-.72656-.10156-.89453-.35156-.29688-.44141-.36719-.48828-.87109-.56641-.37109-.05859-.57813-.05859-.73828.00781-.10938.04688-.26172.07813-.32031.07031-.22266-.03906-.80469.20703-.93359.39453-.07422.10156-.27344.25391-.44922.33594-.39063.16797-.80859.54297-.87891.78125-.03125.09766-.08984.17578-.12891.17578s-.19922.16797-.35938.37891c-.18359.23828-.46484.47656-.74609.62891C.05969,5.02995.005,5.07683.005,5.42058c0,.17578.03125.3125.07031.3125.11328,0,.5625.64844.52344.75391-.01953.04688.19922.52734.49609,1.04688.62109,1.14453.67188,1.25781.71875,1.71875.01563.20313.15234.59375.30469.88281.14453.28516.34375.73438.44531,1,.10547.26172.26563.56641.37109.67969.09375.10938.27734.42969.39844.71875s.25781.55078.3125.60156c.25391.23047.76563,1.0625.88672,1.46094.08203.25781.23438.53906.34375.64063.11328.09766.25.21875.28906.25781.04688.03906.12891.12109.19141.17578.05469.05469.24219.23047.40234.38281.35156.35156.63672.48047,1.03906.48047.16797,0,.60547.10547.97656.23828.36719.12891.79688.24219.95703.24219.17578,0,.37891.07031.50391.16797.23438.18359.80859.22266,1.76953.12109.26563-.02344.66406-.06641.87891-.08984.22656-.02344.55469-.07031.73828-.12109.21484-.04688.39844-.05469.51953-.00781.21484.08984,1.39844.25,2.12109.28906.26172.01563.55859.0625.64453.11328.3125.16797.51172.09375.92969-.33594.58203-.58594.90234-.83984,1.35156-1.07422.51172-.25391.69531-.41406,1.48828-1.26172.08203-.08984.23828-.23438.35156-.32031.48047-.36719.83984-.73047.88672-.89844.03516-.09375.12891-.19922.21094-.22266.07813-.02344.17578-.12109.19922-.20703.03125-.08203.07813-.15234.12109-.15234.03906,0,.26953-.19922.51953-.44141.23828-.23828.47266-.4375.51172-.4375s.08594-.08203.12109-.17578c.02344-.10547.14844-.25781.28516-.34375.12891-.08984.24219-.1875.24219-.21094,0-.07813.36719-.44531.54297-.54297.09766-.05469.17578-.16797.17578-.26563,0-.09375.13672-.30078.3125-.46094.16797-.16016.33594-.37891.36719-.47266.02344-.08984.08984-.16797.12891-.16797s.07031-.03906.07031-.08984c0-.05469.14453-.35156.32813-.65625.17578-.3125.30469-.62891.28906-.70313-.02344-.07813.01563-.21484.07813-.3125.06641-.08594.13672-.30469.15234-.46484.02734-.16016.05859-.40625.08203-.53516.02344-.13672.03906-.33594.03906-.46484,0-.20703,0-.27734-.00781-.83203,0-.14063.03125-.34375.08203-.45313.04688-.14453.03906-.28125-.04297-.47266-.05469-.14453-.07813-.3125-.04688-.36719.03906-.05859.03906-.21875.00781-.35938-.02344-.13672-.03125-.33594,0-.44922.02344-.11328.03125-.28906.01563-.40234-.03906-.31641-.02344-.89453.03125-1.18359.09766-.48828-.19922-.75781-1.19141-1.09375-.58984-.19141-.79297-.16797-1.42969.16797-.16797.08594-.25781.09375-.41797.02344-.11328-.05469-.20703-.13672-.21484-.18359,0-.04688-.00781-.21484-.01563-.36719-.01563-.27344-.03125-.28125-.33594-.28906-.17578-.00781-.49609.01563-.72266.04688ZM19.07531,4.74089c.09766.08984.10547.16016.05078.25781-.16797.28906-.37891.48047-.65625.61719-.16797.07031-.30469.18359-.30469.23828,0,.19922-.375.51953-.76953.64844-.35938.11328-.42969.17578-.62891.54297-.21094.39063-.35547.51953-.95313.85547-.12891.07422-.25.19141-.25781.26563-.03125.19922-.18359.35938-.50391.52734-.16016.07813-.375.23828-.48828.35938-.10938.12109-.41406.32031-.67969.45703-.26172.12891-.49609.26172-.51953.29688-.02344.03125-.17578.15234-.33594.25391-.16016.11328-.49609.39453-.74219.61719-.25.23047-.48047.41406-.52734.41406-.17969,0-.71484-.33594-.80078-.50391-.05859-.09375-.09766-.30859-.08203-.46875.01563-.32031-.22266-.88281-.48828-1.13672-.08594-.08203-.13672-.19141-.10938-.25781.02344-.05469-.03516-.27734-.12891-.48828-.09766-.20703-.19922-.51172-.23438-.66406-.03125-.15234-.07813-.35156-.10938-.44531-.07422-.22656.14453-.43359.46484-.43359.23828,0,.58984-.08984,1.05469-.27344.14453-.05469.60156-.08594,1.16016-.07813.53516.00781.98438-.01563,1.07813-.0625.08984-.05078.45703-.10547.81641-.12109.71484-.03125,1.51953-.32031,1.85547-.65625.13672-.13672.23438-.16016.48047-.12109.21094.03125.38672.00781.55469-.07813.13281-.07422.41406-.18359.62891-.25781.21094-.07031.40234-.16016.42578-.19141.07031-.09766.35156-.23047.49609-.23828.07031,0,.19141.05469.25391.125ZM18.57922,8.36589c0,.02344.01953.27344.02734.53516.00781.27344.03906.52734.07031.58594.03125.04688.02344.14453-.01563.22266-.04688.08203-.04688.22266,0,.375.03906.13672.08594.33594.11328.44922.01563.11328.0625.34375.09375.51953.03906.19922.02344.42578-.03906.61719-.05469.16016-.09766.48047-.09766.71875.01563.73047-.55078,1.75391-1.42188,2.57813-.14453.13281-.35938.38281-.48047.55078-.12891.16797-.44922.43359-.71875.58203l-.48828.27344-.24219-.19922c-.12891-.10547-.42188-.24219-.64844-.28906-.48828-.10156-.64844-.23828-.64844-.55859,0-.12891-.02344-.23438-.05469-.23438-.03906,0-.12891-.10938-.19922-.23828-.07031-.13672-.26563-.3125-.41797-.40625-.23047-.13672-.30078-.25-.42188-.64063-.08203-.25781-.17578-.47266-.22266-.47266-.25781-.00781-.40234-.32031-.27344-.57813.03906-.07031.33594-.26953.67188-.45313.32813-.17578.64844-.36328.69531-.41016.22266-.18359.84766-.63281,1.26563-.89453.23828-.15234.66406-.50391.93359-.76953.27344-.26172.59375-.53516.72266-.59766.27734-.14453.94141-.74609,1.39844-1.25781.12891-.14453.36719-.14453.39844-.00781Z"/>

</g>
</svg>
