<?xml version="1.0" encoding="UTF-8"?>
<svg xmlns="http://www.w3.org/2000/svg"
     version="1.1"
     width="19.84646409mm"
     height="41.26159290mm"
     viewBox="0.00000000 0.00000000 56.25765785 116.96201649">

<g transform="scale(4.81510443)">   <defs>
      <style type="text/css"><![CDATA[
      .b {
        stroke: #000;
        stroke-linecap: round;
        stroke-linejoin: round;
        stroke-width: .25px;
      }
    ]]></style>
   </defs>
   <path class="b"
         d="M7.72357,6.06315c.89357-.77251.9705-2.2131.41054-3.25314s-1.61596-1.72711-2.71205-2.16734C4.61871.32001,3.71924-.04011,2.88953.20697,1.86632.51168,1.1816.77276.77657,1.5379c-.25649.48453-.32005,1.04544-.36073,1.59216-.10056,1.35147-.08887,2.71128.03489,4.06083.10185,1.11061.27713,2.25046-.02067,3.32523-.08702.31406-.2137.61811-.26779.93949-.04243.25208-.03922.50936-.03484.76495.06293,3.67652.34242,7.34931.83653,10.99302.70968.02596.49696-.11205.70968.02596s.36869.34615.55705.5159c.49055.44208,1.30629.57951,1.80618.14802.41431-.35761.49116-.96007.53993-1.50519.30681-3.42948.61362-6.85895.92043-10.28843.16163-1.80664.32205-3.64116-.01771-5.4229.38273-.02743.77371-.04862,1.14976-.13126.29813-.06552.86777-.49253,1.09429-.49253Z"/>
   <path class="b"
         d="M8.31927,14.8395c-.33462.30208-.51921.7369-.82574,1.06744-.22923.24718-.51919.42825-.80544.60629-1.35294.84152-2.73949,1.69706-4.29512,2.04144-.48537.10745-1.07303.23652-1.23201.70754-.1083.32085.041.66593.18717.97139.08363.17477.17272.35639.32725.47326.32067.24252.77592.1174,1.15348-.02076,2.73213-.99979,5.08075-2.46617,7.98987-3.49881.22573-.08013.43284-.22609.57712-.41738.55494-.73589-.44897-1.36814-.92686-1.79467-.583-.52034-1.52116-.70316-2.14971-.13573h-.00001Z"/>

</g>
</svg>
