<?xml version="1.0" encoding="UTF-8"?>
<svg xmlns="http://www.w3.org/2000/svg"
     version="1.1"
     width="29.44499124mm"
     height="25.79885481mm"
     viewBox="0.00000000 0.00000000 83.46608960 73.13068289">

<g transform="scale(5.41829972)">   <defs>
      <style type="text/css"><![CDATA[
      .b {
        stroke: #000;
        stroke-linecap: round;
        stroke-linejoin: round;
        stroke-width: .25px;
      }
    ]]></style>
   </defs>
   <path class="b"
         d="m12.01112.125c.62898.23196,1.97897-.13098,2.46799.26797.26299.21402.47899,1.55099.59299,2.01901.474,1.93799.03101,4.00903-.29199,5.93604-.15001.88797-.127,1.98596-.431,2.82596-.311.85904-1.136,1.44299-1.616,2.198-.311-.866-.364-2.26498-.50601-3.16901-.13098-.83597-.017-1.78299-.017-2.63098,0-.95697.22501-1.92102.10001-2.866-.062-.46399-.55701-2.36603-1.10001-1.39697-.414.73697.57901,1.56799.83,2.18497.308.759.45601,1.87799.22501,2.67499-.46199,1.59799-1.84999,3.366-3.519,4.03104-.17599.07001-.38701.26398-.522.39301-.189-.55801.095-.884-.485-1.11902-.397-.16199-1.66798.14801-2.2.19797-1.177.11002-1.931.40701-2.87401-.43799C1.58909,10.272.11109,9.07999.12611,7.48999c.01099-1.267,1.41101-3.23901,2.21199-4.18097C3.33909,2.13501,5.73609.42102,7.45409,1.01398c.864.30099.89702,1.73999,1.063,2.47202-.72501.379-1.55798.57999-2.23898,1.02298-.59203.38501-.81201.88803-1.34203,1.33502-.24998-1.121-1.12799-.96802-1.39099.034-.57899,2.20599,1.19701,2.94403,2.88899,3.608.806.31601,2.62801.35602,3.024-.69302.32701-.86597-.77998-2.25995-1.12999-3.01898-.283-.612-.31801-.41602-.207-1.05798.08299-.479.45901-.827.414-1.39398-.05099-.63306-.60699-1.81305-1.136-2.091.70201-.42505,6.446-1.61105,6.40501-.50803"/>
   <path class="b"
         d="m12.01112.125c.62898.23196,1.97897-.13004,2.46799.26797.26199.21402.478,1.55099.59299,2.01901.474,1.93799.03101,4.00903-.293,5.93604-.149.88797-.12599,1.98596-.42999,2.82596-.311.85904-1.136,1.44299-1.616,2.198-.311-.866-.36499-2.26498-.50601-3.16901-.13098-.83597-.017-1.78299-.017-2.63098,0-.95697.22501-1.92102.10001-2.866-.062-.46399-.55701-2.36603-1.10001-1.39697-.414.73697.57901,1.56799.83,2.18497.308.759.45601,1.87799.22501,2.67499-.46199,1.59799-1.84999,3.366-3.519,4.03104-.17599.07001-.38701.26398-.522.39301-.189-.55801.095-.883-.485-1.11902-.397-.16199-1.66798.14899-2.2.19797-1.177.11105-1.931.40701-2.875-.43799C1.58909,10.272.11109,9.07999.1251,7.48999c.01199-1.267,1.41202-3.23901,2.213-4.18097C3.33909,2.13501,5.73609.42102,7.45409,1.01501c.86302.29996.89702,1.73895,1.063,2.47098-.72501.37997-1.55798.58102-2.23898,1.02402-.59203.38397-.81201.88699-1.34203,1.33398-.25099-1.121-1.12799-.96802-1.39099.034-.57899,2.20703,1.19701,2.94403,2.88899,3.608.806.31601,2.62801.35602,3.024-.69302.32701-.86597-.77998-2.25995-1.12999-3.01898-.283-.612-.31801-.41602-.207-1.05798.08299-.479.45799-.827.41299-1.39398-.04999-.63306-.60599-1.81305-1.13499-2.091.70201-.42505,6.446-1.61005,6.40501-.50803"/>

</g>
</svg>
