<?xml version="1.0" encoding="UTF-8"?>
<svg xmlns="http://www.w3.org/2000/svg"
     version="1.1"
     width="50.44861751mm"
     height="33.47503026mm"
     viewBox="0.00000000 0.00000000 143.00397947 94.88989504">

<g transform="scale(5.06538161)">   <defs>
      <style type="text/css"><![CDATA[
      .b {
        stroke: #000;
        stroke-linecap: round;
        stroke-linejoin: round;
        stroke-width: .01px;
      }
    ]]></style>
   </defs>
   <path class="b"
         d="M15.85454.07097c-.15234.05469-.36719.16016-.48047.23047-.11328.07422-.35938.17578-.55078.22266-.19531.05078-.44141.15234-.54688.21875-.09375.0625-.26172.10156-.35938.07813-.12891-.03125-.26172.02344-.44922.16797-.23828.19922-.25391.25-.26172.73828-.00781.28516.03125.66406.07031.83984.05078.17578.11328.87891.13672,1.55859.07422,1.75391.09766,2.05469.19141,2.64063.05078.28906.08984.76953.08984,1.07031,0,.36328.07031.77734.20703,1.23438.18359.60547.20703.77344.16016,1.41406-.02344.39453-.0625,1.16797-.08984,1.72266-.02344.55078-.07813,1.18359-.125,1.40625-.05078.22266-.06641.57422-.03516.80078.02734.21484.06641.625.08203.91016.04688.91406.16016,1.34375.41406,1.66406.20313.25.29688.30469.59375.32031.18359.01563.50391-.01563.70313-.0625.44141-.11328,1.34375-.67969,1.41016-.89063.03125-.08594.07813-.14844.10938-.14844.15234,0,.25781-.46484.17578-.76953-.13281-.51172-.27734-2.65625-.27734-4.07031.00781-3.34766.10938-10.07422.15234-10.29687.08594-.42578-.07422-.76172-.42578-.91406-.42188-.17578-.58203-.19141-.89453-.08594Z"/>
   <path class="b"
         d="M19.73345.15691c-.14453.10547-.16016.19922-.15234.94531.01563,1.08594.18359,1.60156.64844,1.95312.41406.32031.6875.28516,1.03906-.11328.25781-.28906.27344-.29687.83984-.29687.32031,0,.67969-.03125.79297-.07031.14453-.03906.25-.02344.32813.0625.12891.12109.12891.11328-.07813,1.06641-.07422.33594-.21094.60547-.42578.89453-.18359.23047-.20703.92578-.03906,1.3125.14453.33594.51953.74219.73438.80078.25781.05469.55859-.24219.73047-.70703.24609-.67188.93359-.96484,1.40625-.59766.11328.08594.23828.16016.28906.16016.04688,0,.23047.125.39844.27734.44922.41016.55859.79297.51953,1.84766-.03906,1.06641-.07813,1.35547-.26953,1.71484-.16797.32031-.26563.65625-.28906,1-.02344.44531-.25781,1.19141-.41016,1.3125-.23047.19141-.42188.53516-.42188.75,0,.28125.32031.71094.65625.89844.27734.14063.30469.14844.57422.02344.20703-.10547.32813-.25.47266-.5625.35938-.80859.53516-1.3125.53516-1.54297,0-.13672.07422-.39844.16016-.59375.08984-.19141.16016-.41406.16016-.49219,0-.08203.06641-.32031.13672-.53125.25781-.71875.18359-3.22266-.11328-3.79688-.05469-.12109-.17578-.25781-.25391-.30469-.08984-.04297-.17578-.14453-.20703-.23438-.06641-.20703-1.19531-1-1.85156-1.29297-.30078-.13672-.57422-.28906-.60547-.33594-.02344-.05078.02344-.26563.11328-.48828.42969-1.05078.62109-1.91406.48438-2.25-.03906-.12109-.58203-.46484-1.09375-.69531-.25781-.12109-.52734-.14453-1.61719-.13672-.72656,0-1.42188.03906-1.55078.08203-.16797.0625-.34375.05469-.61719-.00781-.67969-.16797-.85547-.17578-1.02344-.05078Z"/>
   <path class="b"
         d="M7.54985,2.40691c-.14453.0625-.43359.25391-.64063.42969-.20703.16797-.48047.37109-.61719.44141-.23828.12891-.83984.53516-1.74219,1.19141-.25781.18359-.55859.47266-.67188.64063-.12109.16797-.28125.34375-.35937.38281-.25781.13672-.47266.69531-.54688,1.41016-.03906.375-.05469.78125-.02344.90234.07422.36719-.18359,1.07422-.55859,1.51953-.18359.22656-.50391.61719-.71094.86328C.79594,11.25456.08501,12.50847.04594,13.07878c-.08203,1.07813-.03906,1.83203.11328,2.14453.08594.16797.18359.42188.21484.56641.0625.32031.61719.90234,1.35156,1.44922.48047.35938.60156.40625.9375.40625.20703,0,.47656.03906.60547.08984.12109.04688.49609.11719.82422.16016.33594.03906,1.00781.21484,1.51953.39844,1.24219.44141,1.74609.52734,2.09766.34375.51953-.26953.78516-.53516.78516-.79297,0-.13281.07031-.42969.16016-.66406.14063-.375.14844-.44531.04688-.67969-.06641-.16797-.25781-.35938-.51172-.52734-.22656-.14453-.54688-.42188-.71484-.63281-.16797-.20703-.41406-.46875-.55078-.58984-.34375-.30469-.80859-1.08984-.91797-1.55078-.05078-.21875-.17578-.67578-.28906-1.01953-.17578-.54297-.19141-.71875-.16016-1.4375.08594-1.67969.28125-2.40234.96094-3.60938.45313-.80859,1.10938-1.64844,1.54297-1.99219.09766-.07031.3125-.32813.48047-.55859.16797-.22656.4375-.57031.60938-.75391.47656-.53516.41406-.96484-.21094-1.33594-.40625-.23828-.96094-.26953-1.39063-.08594Z"/>

</g>
</svg>
