<?xml version="1.0" encoding="UTF-8"?>
<svg xmlns="http://www.w3.org/2000/svg"
     version="1.1"
     width="38.67968724mm"
     height="29.19323347mm"
     viewBox="0.00000000 0.00000000 109.64322679 82.75249146">

<g transform="scale(3.03403411)">   <defs>
      <style type="text/css"><![CDATA[
      .b {
        stroke: #000;
        stroke-linecap: round;
        stroke-linejoin: round;
        stroke-width: .25px;
      }
    ]]></style>
   </defs>
   <path class="b"
         d="M26.85061,3.56025c-.58263-.96626.18823-2.52186-.36957-3.43525-1.78273.34823-3.89565,2.36895-5.53658,2.89107.26923,1.64361.73164,3.47976,1.05115,5.201.39879,2.1483-.07436,2.12465-1.96204,3.3373-4.00178,2.57075-8.39566,5.25267-12.85526,7.44186-1.13712.55821-4.23764,2.31884-3.42355,4.17487.73674,1.6797,3.52825-.25948,4.48012-.96504.92044-.68227,1.40782-1.80369,2.37533-2.49829,1.76148-1.2646,3.87403-2.14826,5.68893-3.36284,2.54325-1.70201,7.61769-3.8231,10.47245-5.01839,2.10433-.88108,2.63621-1.06805,3.05456-3.50279.13203-.76837-.13178-3.76831-.48241-4.41028-.81984-1.50106-1.04209.38035-2.49313.14678Z"/>
   <path class="b"
         d="M.94481,24.87788c-.62275.8274-.48864.47425-.81981,1.41758,2.14862.66414,5.17931.01878,7.33979-.35485,2.53016-.43756,4.8669-.64273,7.33232-1.08774,3.74259-.67553,11.32996-3.89883,14.53804-.96445,1.46353,1.33867,1.43431,4.05498,3.97045,3.03864,2.28419-.91538,3.05776-4.87169,2.5652-6.97021-.67496-2.87563-4.58259-1.24164-6.74686-.57997-2.70198.82607-5.85082,1.07551-8.71,1.52285-3.09241.48384-6.52581.7506-9.70921.984-1.66571.12213-3.5154.40685-5.17196.60497-1.57794.18872-2.92368.54486-4.50492.57832-.01833.56614-.28694,1.26595-.08305,1.81084v.00002Z"/>

</g>
</svg>
