<?xml version="1.0" encoding="UTF-8"?>
<svg xmlns="http://www.w3.org/2000/svg"
     version="1.1"
     width="46.55029253mm"
     height="17.77478640mm"
     viewBox="0.00000000 0.00000000 131.95353264 50.38520252">

<g transform="scale(5.41829972)">   <defs>
      <style type="text/css"><![CDATA[
      .b {
        stroke: #000;
        stroke-linecap: round;
        stroke-linejoin: round;
        stroke-width: .25px;
      }
    ]]></style>
   </defs>
   <path class="b"
         d="m18.59537,1.75893c.60303-.03201,2.16003.53601,2.58704-.09201.20599-.30402.13596-.99799.05997-1.358.465-.241,1.026-.186,1.54004-.15799.11099.44098.13495.87997.21298,1.32901.40201-.07303.83401-.173,1.19998-.25.27698,1.03201-1.267,1.52502-1.92401,1.94901-1.922,1.24197-3.55997,3.08698-5.68198,3.953-.88101.35898-2.06499.56601-2.75499,1.242-.16101-.79599.39299-1.50403.48299-2.27701,1.336.37598,2.48102.18799,3.565-.72403.50601-.42596,2.55301-1.83499,2.578-2.33701-.91998-.078-2.16199.16504-3.13803.25702-.62097.05902-2.24196-.17398-2.71097.24899-.35599.32001-.29201,1.75302-.40302,2.18399-.17999.70203-.49799,1.50101-.60797,2.242.17197-.03799.42398.061.601.02499.20998.909-1.71501.69-2.30602.78302-.97803.15402-1.94101.33298-2.95799.38101-.92801.04498-1.79303.03198-2.58801-.42603-.78799-.453-1.76801-.77701-2.436-1.26297-.50298-.36804-.09999-.48804-.877-.56601-.438-.04501-.83099.14697-1.26797.09003-.45102-.05905-1.40802-.67105-1.57303-1.19101-.40198-1.27103,1.02002-1.58902,1.68301-2.233.657-.63702.91699-1.08203,1.76399-1.492,1.19002-.57703,2.726-.71603,3.93901-.94803.62001-.11801,2.06699-.134,2.44301.539.278.49704-.07603,1.85001-.54701,2.099-.09698.05103-1.33801-.64197-1.55099-.68997-.63501-.14203-1.07101-.01498-1.69601.09897-.44698.08102-1.224.11404-1.386.61801-.039.12299.306,1.46399.35201,1.53003.54401.77399,3.23599,1.03897,4.20502.94696,1.14-.10901,1.073-.43799.70099-1.44296-.26201-.70404-.87-1.30103-.89601-2.07303-.03398-.992.28101-.901-.43999-1.526.89101-.19199,1.78899.00504,2.66499.159-.10799-1.07599.563-1.005,1.42902-.96698-.01802.25598.12898.45502.13898.69199.51402.12799.825.495,1.39699.647,1.50801.40201,2.68802.08099,4.19901,0h-.00003Z"/>
   <path class="b"
         d="m18.5954,1.75896c.60303-.03204,2.16003.53595,2.58704-.09204.20599-.30402.13599-.99802.05997-1.358.465-.24097,1.026-.186,1.54001-.15799.11102.44098.13397.87997.21301,1.32898.40201-.073.83401-.173,1.19998-.24997.27698,1.03201-1.267,1.52499-1.92398,1.94901-1.922,1.24197-3.56,3.08694-5.68201,3.953-.88101.35901-2.06499.56598-2.75499,1.242-.16101-.79602.39299-1.50403.48299-2.27704,1.336.37604,2.48102.18802,3.565-.724.50601-.42599,2.55301-1.83496,2.57797-2.33701-.91995-.078-2.16199.16501-3.13797.25702-.62102.05899-2.242-.17398-2.71101.24899-.35597.32001-.29199,1.75299-.40302,2.18399-.17998.70203-.49797,1.50101-.60796,2.242.17197-.03799.42398.061.601.02499.20996.90897-1.71501.69-2.30602.78302-.97803.15399-1.94101.33298-2.95799.38101-.92801.04501-1.79303.03198-2.58801-.42603-.78799-.45303-1.76802-.77701-2.435-1.26401-.504-.367-.101-.487-.87802-.56497-.43799-.04501-.83099.14697-1.26797.09-.451-.05902-1.40802-.67105-1.57301-1.19098-.40199-1.27103,1.02-1.58902,1.68301-2.23203.657-.638.91699-1.08301,1.76398-1.49301,1.19002-.577,2.72601-.716,3.93903-.948.621-.11801,2.06697-.134,2.44299.539.27802.49701-.076,1.84998-.547,2.099-.097.05103-1.33801-.64197-1.55-.69-.636-.142-1.07201-.01498-1.69701.099-.44698.08099-1.22398.11404-1.386.61801-.039.12299.306,1.46402.35201,1.53.54401.77399,3.23599,1.03897,4.20502.94702,1.14-.10904,1.073-.43802.69998-1.44302-.261-.70401-.86899-1.30099-.89502-2.073-.03398-.992.28102-.901-.43997-1.526.89101-.19202,1.78899.005,2.66499.159-.10799-1.07599.56299-1.005,1.429-.96701-.01801.25601.129.45502.13899.69199.51401.12802.826.49503,1.397.64706,1.508.40198,2.688.08093,4.19899,0h0v.00002Z"/>

</g>
</svg>
