<?xml version="1.0" encoding="UTF-8"?>
<svg xmlns="http://www.w3.org/2000/svg"
     version="1.1"
     width="50.39312465mm"
     height="40.67539994mm"
     viewBox="0.00000000 0.00000000 142.84666947 115.30037664">

<g transform="scale(2.33537960)">   <defs>
      <style type="text/css"><![CDATA[
      .b {
        stroke: #000;
        stroke-linecap: round;
        stroke-linejoin: round;
        stroke-width: .25px;
      }
    ]]></style>
   </defs>
   <path class="b"
         d="M5.9419,4.24372c-1.98265,1.73268-2.01972,4.72693-2.75197,7.25614-.09606.33179-.20467.69677-.06124,1.01099.10129.22189.31104.37364.44764.57572.60474.89465-.44855,1.98176-.62048,3.04785-.16865,1.04581.55095,2.03864.59126,3.09719.03883,1.01958-.55227,1.96069-.6625,2.97504-.01173.10793-.01491.22723.05128.3133.12591.16372.38364.09028.57042.00213,1.07809-.50879,2.15617-1.01759,3.23426-1.52638.14846-.07006.30261-.14459.40315-.27436.12606-.16272.14505-.38106.1663-.5858.14851-1.4313.63805-2.80207,1.1238-4.15659,1.51636-4.22842,3.09696-8.56785,6.06862-11.93654,1.06325-1.2053,2.28371-2.26013,3.49997-3.31083-.7928.68489-2.78284-.014-3.67953-.03416-.98705-.02219-1.34986.40707-2.08176.98293-1.86079,1.46406-4.46683.96202-6.29922,2.56337Z"/>
   <path class="b"
         d="M17.37545,6.8684c.27211.7185.80541,1.41369,1.56004,1.55801,1.03293.19755,1.93164-.67453,2.62141-1.46838.29802.63846-.19421,1.50092-.8955,1.56904.14471.65625,1.00867.91135,1.64398.69227s1.10482-.74515,1.60298-1.1962,1.12683-.86349,1.79203-.76804c.55913.08023,1.03953.51053,1.60439.51068.68669.00019,1.18815-.61145,1.74831-1.00865s1.2103-1.29499,1.729.22174c.33377-.37223,1.08935-.0342,1.03429.46271-.02034.18352-.12502.35156-.13307.53602-.01434.32856.3486.61394.66451.5225s.4703-.52655.28269-.79666c.8451.72978,1.92975,1.50979,2.97871,1.12708.98466-.35925,1.54619-1.65331,2.59428-1.66477.33917.41826-.45298.96568-.34195,1.49261.03456.16401.1543.29521.27359.41295,1.33151,1.31422,3.23456,2.02801,5.10191,1.91362.38416-.02353.8012-.09833,1.0543-.38828.19318-.22131.25516-.53023.43042-.76598.31359-.42181.8875-.41504,1.22615-.76985.24477-.25644.2065-.74897.447-.95971.18996-.16645,2.11321-.52516.90013-1.18188-.36996-.19891-.82321-.06908-1.22149.06436-.30723-.19674-.00724-.68065.32848-.82347s.78168-.27803.81037-.64173c.02821-.3577-.38471-.5675-.72619-.67768,1.49841-.31674,3.03396-.4574,4.56498-.41817.3393.00869.68103.02604,1.01635-.02647.5566-.08717,1.06979-.36269,1.62563-.45461s1.23126.07752,1.44371.59931c.12236.30052.11525.72419.42001.83558.20461.07479.4206-.05331.61482-.15197.69945-.35531,1.56907-.35367,2.26718.00428.19309.099.39233.25534.4026.47209.00573.12095-.05001.23532-.10437.34351-.8654,1.72264-1.7308,3.44528-2.5962,5.16793.67268.03713,1.34536.07425,2.01803.11138.34341.01895.72328.05421.95721.30634.18873.20342.23334.49982.24364.77712.0547,1.47282-.97225,3.1474-2.44429,3.07471.64668.73834.67503,1.86574.32432,2.78244s-1.01796,1.67106-1.67508,2.40013c-.10344.11477-.21357.23391-.35987.2836-.50466.17138-1.08957-.5562-1.50996-.2286.38861,1.0428.8856,2.04517,1.48038,2.98574.0677.10706.14566.22053.26592.26031.21492.07109.50086-.07748.56638-.29415.46698-1.54437,2.05652-2.18427,3.63852-2.60962.12372-.03326.24536-.09619.37163-.07452.29842.05122.3985.42258.43518.72314.14975,1.22722.29951,2.45444.44926,3.68166.13717,1.12406.26963,2.29585-.108,3.36343-.42202,1.1931-1.41616,2.0786-2.11504,3.13367-1.16091,1.7526-1.69597,4.17638-3.62866,5.00343-.48934.2094-1.09791.3474-1.30534.83757-.09296.21966-.08087.47046-.15705.69648-.09966.29567-.33839.5196-.56839.73045-.75271.69004-1.50541,1.38008-2.25812,2.07011-.22081.20242-.49386.42003-.78603.35397-.26946-.06093-.42494-.33579-.54734-.58345-.85998-1.73996-1.71996-3.47991-2.57994-5.21987-.4057-.82083-.82247-1.70099-.71517-2.6103.14695-1.24534,1.2126-2.15061,2.20031-2.9232.91482-.71558,1.8446-1.43998,2.91878-1.88167.03223-.15214-.08267-.3193-.23626-.34369-.18921.26956-.51308.57318-.79629.40507-.08341-.04951-.14048-.13244-.19456-.21296-1.95231-2.90647-3.53529-6.06073-4.69889-9.36302-.05867-.16651-.11703-.34421-.07806-.5164.05709-.25228.29989-.41098.52238-.54289.54954-.32581,1.13764-.6622,1.77629-.64528s1.30674.5491,1.21719,1.18166c.47375-.01003.34197-.73428.30902-1.20699-.02221-.31856.08192-.63022.15738-.94052.46951-1.93082-.09872-2.89818-.85798-5.02086-.07355-.20562-1.27125-.64719-1.29299-.86448-.01604-.16027.06606-.31139.1231-.46203.70424-1.85976-2.07371-1.86829-1.46569-3.39428.2401-.60259.61824-1.1497,1.09707-1.58728.4651-.42504,1.08837-.49323.90884-1.09717-.16538-.55635-1.45945-.8257-1.96147-.53439s-.28767.54372-.59297,1.03735c-.3053.49363-.70626.99791-1.27606,1.10837-.38074-.06287-.34378-.62289-.20179-.98172s.18835-.91551-.1907-.98791c-.26668-.05094-.51114.23012-.77902.18592-.40579-.06696-.37276-.71641-.70839-.9541-.33198-.23511-.7729.06016-1.06804.34012-.58876.55848-.754,1.48476-1.76628,1.67545-.2305-.47759-.461-.95517-.6915-1.43276-.04238-.0878-.09052-.18164-.17775-.2252-.42615-.21281-.56739.94514-1.01265.77593.17757-.91929-.73785-1.7389-1.66218-1.88801s-1.85348.14887-2.77808.29632c-.59314.0946-1.23133.1204-1.76307-.15891-.5458-.28669-1.35235-1.34215-1.62039-.78695-.21362.44249-.59512.5198-.94823.57024-.44716.06388-.34626-.45722-.47033-.55987-.76019-.62891-1.83946-.84949-2.78545-.56929s-1.73102,1.05299-2.02606,1.99446c-.14227.45397-.17847.94394-.39203,1.36905-.38317.76276-1.3616,1.16646-2.17116.89583-.13812-.27258.18065-.55747.47243-.64827s.65018-.15586.76738-.43807c.10154-.24452-.04212-.51638-.18448-.73962-.59757-.93704-1.25778-1.83414-1.97474-2.68333-.43051-.50991-2.44247,2.22717-2.58396,2.54353-.59451,1.32926-.32379,2.58337.17969,3.91282l-.00002.00004Z"/>
   <path class="b"
         d="M42.65088,25.92758c-.02667-.10734-.06752-.23381-.17422-.26292-.06355-.01734-.13016.00752-.19128.03207-1.72307.69215-2.81265,1.26914-3.65688,2.92302-1.43157,2.80451-.1038,6.54798-.79903,9.61902-.31863-.34212-.65801-.69769-1.10395-.83806s-1.02526.02617-1.17576.4688c-.5484-1.11605.44842-2.44259.19931-3.66088-.1149-.56195-.4831-1.03347-.84035-1.48221-.70998-.89181-1.41996-1.78362-2.12994-2.67543-.20974.63781-.41949,1.27562-.62923,1.91343-.60555-1.19604-1.39632-1.88279-2.5057-1.13014-1.10274.74815-1.87567,2.38431-1.2125,3.54015s1.75061,2.01056,2.49134,3.1183c.87912,1.3147,1.22697,2.97407.94984,4.53114-.02592.14563-.05829.29353-.13528.41983-.34898.57247-1.32656.24871-1.5845-.37014s-.07326-1.31968.00677-1.98534-.01737-1.46443-.59908-1.79778c-.18906-.10834-.41654-.15723-.5715-.31041-.36386-.35968-.09552-.96642.15776-1.41096.49906-.87592.88851-1.89778.65378-2.87819s-1.32506-1.79291-2.25722-1.409c-.50089.20629-.82922.68231-1.12856,1.13381-.47267.71293-1.1063,1.35242-1.51819,2.08596-.54737.97483-.80404,2.26345-1.17628,3.31936-.1704.48337-.37611,1.00939-.82791,1.25139-.82047.43946-1.83593-.45573-1.89614-1.38453s.47751-1.77665.96587-2.56899.96491-1.70016.76976-2.61023c-.08549-.39868-.2957-.76162-.38681-1.15905-.13405-.58476-.00308-1.21031-.16762-1.78723s-.8716-1.08031-1.34709-.7145c-.2751.21165-.36028.6388-.68273.76726-.20404.08129-.43336.01121-.65299.01218-.91867.00408-1.33557,1.13038-1.50296,2.03369-.87656.6041-1.64642,1.36256-2.26353,2.23002-.64351.90458-1.55727,2.0871-2.57446,1.64246-1.12874-.4934-.68401-2.27512-1.39043-3.28431-.5859-.837-1.77596-.90987-2.79761-.90089-.54977-.51728-.55521-1.42567-.21822-2.10114s.94037-1.17232,1.52646-1.64805c.6154-.49952,1.23079-.99904,1.84619-1.49855.29684-.24095.60897-.50397.71966-.86991.05289-.17484.05572-.36333.12272-.53326.35023-.88827,2.15905-.85421,1.99291-1.79447-.10283-.58192-.90312-.65107-1.48911-.57477.03628-.61691-.06311-1.24144-.28911-1.81662-.25078.09411-.50156.18822-.75234.28233-.03592-.62937-.56278-1.72798-1.19307-1.71582s-1.36514.89298-1.90879,1.32837c-1.05061.84137-2.3499,1.38515-3.18836,2.43809s-1.26118,2.5479-.69823,3.7705c-.92978-.95482-2.57594-.9738-3.67017-.213S.11582,29.54398.12511,30.87668c.00929,1.3327.52072,2.61901,1.20726,3.76131.41564.69155.90314,1.34909,1.51803,1.87151.70794.60147,1.55905,1.00379,2.39207,1.41489,1.68871.83339,3.34533,1.73,5.00147,2.62637,2.30393,1.24697,4.61794,2.50038,6.70779,4.08012,2.12942,1.60965,4.09254,3.59281,6.64145,4.38557.68784.21393,1.43817.33256,2.12364.11116.70596-.22801,1.2666-.79114,1.97399-1.01466.86206-.2724,1.7874-.00243,2.68451.10954,4.07017.50801,7.72254-2.23692,11.47978-3.88237,2.35347-1.03068,4.86933-1.65123,7.22781-2.67042,1.06051-.45829,2.1485-1.05536,2.6901-2.07584.43503-.81966.45011-1.80876.24747-2.71432-.43878-1.96078-1.90115-3.66233-3.7737-4.39087-.672-.26145-1.4581-.39504-2.09509-.05713-.63691.33786-.94769,1.29992-.43568,1.80743-1.00087-.99207-.48211-2.89827-.85237-4.12444-.46421-1.53734-1.80979-2.56527-2.21279-4.18694h.00002Z"/>
   <path class="b"
         d="M30.81632,36.03846c-.06113-.3085-.38319-.54103-.69526-.50199-.34945.04372-.59145.35913-.79224.64846-.19261.27753-.39483.60154-.31481.92975.05101.20922.20839.37334.35958.52668.3389.34373.67779.68746,1.01669,1.03119.07417-.49921.28254-.97785.59741-1.37227.16424-.20573.35929-.39289.46925-.63208s.10963-.55695-.08752-.7314c-.21626-.19135-.62762-.19292-.68756-.47539"/>
   <path class="b"
         d="M13.31954,1.99187c.0028.06469.00349.13602-.03802.18572-.03716.0445-.09822.05931-.15505.07075-.38359.07726-.77472.11709-1.16601.11875.0431-.58917.08619-1.17834.12929-1.7675.00856-.11708.02094-.2435.09943-.33079.08491-.09442.2227-.11607.34923-.12683.22035-.01873.44202-.02197.66283-.00967.05176.00288.10884.00908.14388.04728.03447.03758.03631.09385.03558.14484-.00622.43501-.05903.86933-.15724,1.29315.09892.11458.08952.22306.09607.3743h.00001Z"/>

</g>
</svg>
