<?xml version="1.0" encoding="UTF-8"?>
<svg xmlns="http://www.w3.org/2000/svg"
     version="1.1"
     width="36.84608100mm"
     height="38.90807530mm"
     viewBox="0.00000000 0.00000000 104.44557868 110.29064825">

<g transform="scale(6.07147487)">   <defs>
      <style type="text/css"><![CDATA[
      .b {
        fill: #000;
        stroke: #000;
        stroke-linecap: round;
        stroke-linejoin: round;
        stroke-width: .25px;
      }
    ]]></style>
   </defs>
   <path class="b"
         d="M11.302.13352c1.33197-.151.76202,1.74603,1.02597,2.44904.17502.46295.56403.828.77603,1.29095.77103,1.68497.39603,3.73596-.64801,5.22504-.53601.76392-1.125,1.39697-1.23798,2.40396,1.155.05704,1.83301-.09604,2.776-.45297,1.29498-.492,3.91699-1.52502,2.82297.961-.866,1.97003-2.642,3.616-4.66595,4.32703-3.62601,1.27194-6.74005,2.01492-10.58701,1.57599-.89801-.10306-.427-.00702-.85501-.57007-.21402-.28094-.358-.60803-.58401-.90497.59802.56403,1.88202.48001,2.64099.53397,1.66003.11899,3.27502-.14694,4.89001-.47296,1.439-.289,2.69202-.55203,4.00201-1.34097.513-.30798,3.30399-1.53201,2.841-2.42404-.70599-1.35797-6.698,2.75595-5.88004-.29401.15103-.56299.59702-1.15799.78604-1.69595.21497-.612.43695-1.24799.698-1.86505.34799-.81995.40399-1.51398.354-2.51401-.03204-.65097-.22501-1.26895-.28604-1.879-.05597-.57297.186-1.36194.01004-1.91196-.14703-.45798-.724-.48605-.54901-1.14499.173-.64804,1.01495-.80103,1.57599-.92004"/>
   <path class="b"
         d="M11.30203.13355c1.33194-.151.76199,1.74603,1.02594,2.44904.17502.46295.56403.82797.77603,1.29095.77103,1.68497.39606,3.73599-.64801,5.22504-.53601.76392-1.12497,1.39697-1.23798,2.40298,1.155.05801,1.83301-.09506,2.776-.453,1.29498-.49103,3.91699-1.52405,2.82297.96201-.86597,1.97003-2.64197,3.616-4.66595,4.32703-3.625,1.27194-6.74005,2.01489-10.58701,1.57599-.89801-.10306-.427-.00702-.85501-.57007-.21402-.28195-.35803-.608-.58398-.90497.59799.56403,1.88199.47998,2.64099.53397,1.66.11902,3.27499-.14697,4.89001-.47296,1.439-.289,2.69199-.55203,4.00201-1.341.51297-.30795,3.30396-1.53198,2.84097-2.42401-.70599-1.35797-6.698,2.75595-5.88004-.29404.15103-.56296.59702-1.15796.78604-1.69592.215-.612.43695-1.24799.698-1.86502.34802-.81998.40399-1.51401.35397-2.51404-.03198-.651-.22498-1.26898-.28598-1.87897-.056-.573.18597-1.36304.00998-1.91199-.14697-.45798-.72397-.48602-.54898-1.14499.173-.64804,1.01498-.80103,1.57596-.92004"/>
   <path class="b"
         d="M10.08203,2.48545c-.233.24408-.57404.4881-.64401.85104,1.98999.47601.08301,1.42905-.60104.09503-.63895-1.24805,1.97702-3.63406,1.90204-1.228"/>
   <path class="b"
         d="M10.08203,2.48551c-.233.24402-.57401.48807-.64401.85101,1.98999.47507.08301,1.42905-.60101.095-.63898-1.24805,1.97699-3.63403,1.90201-1.229"/>

</g>
</svg>
