<?xml version="1.0" encoding="UTF-8"?>
<svg xmlns="http://www.w3.org/2000/svg"
     version="1.1"
     width="76.81766485mm"
     height="28.44245296mm"
     viewBox="0.00000000 0.00000000 217.75088100 80.62428686">

<g transform="scale(2.44191113)">   <defs>
      <style type="text/css"><![CDATA[
      .b {
        stroke: #000;
        stroke-linecap: round;
        stroke-linejoin: round;
        stroke-width: .01px;
      }
    ]]></style>
   </defs>
   <path class="b"
         d="M26.17789.29504c-.16797.16797-.35547.30859-.41797.30859-.16016,0-.67969.3125-.92969.55469-.11719.10938-.39844.36719-.62891.56641-.82422.70313-1.45703,1.32031-1.58594,1.53516-.07031.12891-.19922.25-.28906.27344-.14063.04688-.54297.375-.95703.79297-.09766.09375-.44922.33594-.78516.55078-.34375.20703-.625.39844-.625.43359,0,.03125-.13672.14453-.30469.24609-.16016.11328-.32813.24219-.375.28906-.22266.25391-1.12109.83984-1.28906.83984-.18359,0-.8125-.27344-.91016-.39063-.02344-.02734-.11328-.05859-.19922-.05859-.08984-.00781-.32813-.04688-.52734-.08594-.32031-.07422-.39453-.05859-.57813.08594-.11328.09766-.32031.25781-.47266.35938-.14453.10547-.39063.35547-.54297.54688-.15234.19922-.42578.47266-.60156.60547-.46094.37109-.98047.89844-1.67188,1.70703-.65625.76563-1.05469,1.19922-1.27734,1.39063-.07422.0625-.69531.6875-1.37891,1.375-.6875.69531-1.27734,1.26563-1.30859,1.26563-.04297,0-.08984.07031-.12109.16016-.02344.08594-.15234.21484-.28906.29297-.12891.08203-.24609.19531-.26953.26563-.02734.0625-.19531.20703-.37109.32031-.18359.11328-.375.29688-.4375.41406-.06641.12891-.15234.22656-.20313.22656-.04688,0-.23047.15234-.39844.34375-.17578.18359-.35938.36719-.40625.41406-.44922.44141-.84766.83984-.96094.96875-.07422.08203-.28125.28125-.45703.43359-.67969.58984-2,1.92578-2.04688,2.07813-.02344.08984-.08203.16016-.12109.16016s-.09375.08203-.12891.17578c-.03125.10547-.125.34375-.21484.54688-.17578.38281-.18359.42969-.24609,1.14063-.05859.64063-.09766.74609-.36328.85938-.17578.07031-.26953.07031-.40625,0-.26563-.14453-.53516-.03516-.79297.31641-.19922.28125-.23047.40234-.23828.89063,0,.3125-.02344.58984-.03906.625-.02734.03125.0625.26172.19141.50391.11719.24609.20703.46875.18359.49609-.02344.01563,0,.08594.04688.14063.18359.20312.71094.94531.94531,1.29687.11719.19922.27734.38281.35156.41016.07031.02344.17578.125.23047.23828.05859.11328.16797.21484.25.23828.07813.02734.16797.12109.19141.21094.03125.08594.17578.21484.32813.28516.14453.07422.28906.19531.3125.27344.02344.07422.15234.15234.26953.17578.12891.03125.25781.11328.28125.19141.02344.08203.19922.23438.375.32813.18359.10547.43359.28125.5625.39453.20703.19141,1.03906.58203,1.23047.58203.04688,0,.16016.05469.23828.12109.08984.0625.52344.35156.96094.64063.44141.28516.83984.55078.89062.58984.04688.03906.23828.15234.42188.24219.17578.09375.32813.20703.32813.24609s.07031.09766.16016.12109c.09766.03125.22266.11328.30469.19141.07031.07031.39844.23828.71094.36719.32031.12109.58594.25781.58594.28906,0,.03906.14063.10547.32031.15234.17578.04688.31641.11328.31641.14453,0,.05469.81641,0,1.41016-.10547.30469-.05469.35156-.09375.55859-.51172.44922-.87109.19141-1.83984-.72656-2.71875-.28125-.26563-.57031-.58594-.64063-.70313-.07031-.12109-.3125-.35547-.51953-.50781-.21484-.14844-.41797-.31641-.43359-.375-.10938-.26953.47266-.42969.85547-.23828.14453.0625.86719.16797,1.08203.14453.23047-.02344.32031-.01563.80859.01563.38281.03125.54297.07813.625.19141.20703.29688.27734.34375.54297.34375.28906,0,.56641-.25781.75-.69531.05078-.12891.22656-.29688.37891-.38672.33594-.17578.44531-.35938.47656-.78125.04297-.48828.59375-1.57031.89063-1.76172.05469-.03125.10156-.12891.10156-.21484,0-.08203.08203-.25.1875-.375.09375-.12109.26172-.42578.36719-.66406.10156-.24219.23047-.55469.28516-.67969.05859-.13672.26563-.58594.45703-1,.19141-.41797.41797-.99219.49609-1.28125.21484-.80078.375-1.20703.51953-1.35156.15234-.16016.42578-.71094.44922-.90625.00781-.07031.12109-.28516.23828-.47656.63281-.9375,1.27344-2.37109,1.25-2.78516-.01563-.35156-.04688-.43359-.24219-.74609-.27734-.46094-.41406-.50391-.98828-.28516-.27344.09375-.54688.21484-.60156.26172-.0625.03906-.45703.12109-.87891.17578-.83203.10547-2.07422.35938-2.44141.50391-.12891.05078-.26563.07422-.30469.04297-.07813-.05078-.48047.0625-1.04688.30078-.51953.21875-.71875.64844-.73828,1.55469-.00781.40625-.04688.69531-.10938.77344-.15234.17578-.33594.88281-.38672,1.44922-.01563.25781-.07031.52734-.10938.60938-.03906.07813-.05859.30078-.03125.50391.05469.375.07031.34375-.48047.81641-.13672.11719-.32813.19922-.48047.19922-.25781,0-1.17578-.40234-1.43359-.625-.16016-.14453-.83984-.39844-1.29297-.49609-.78516-.16797-.81641-.28906-.22656-.91016.08203-.08203.26563-.20313.41016-.25781.75781-.32813,1.70313-1.09766,2.49609-2.03125.14844-.18359.48828-.55078.75-.82422.25781-.27344.55859-.61719.67969-.76953.11328-.15234.46484-.53516.77734-.84766.32031-.32031.63281-.6875.70313-.82422.07031-.14453.16016-.25391.19141-.25391.12109,0,.80859-.70313,1.25781-1.27344.45313-.57422,1.87109-2.02344,2.48828-2.54297.16797-.14453.35938-.25.42969-.22656.06641.01953.34375.05859.61719.07422s.56641.07031.64844.12109c.08594.04688.28906.10156.44922.125.14844.03516.51953.12109.82031.21875.57813.16797,1.24219.30469,1.70703.33594.15234.00781.48828.09375.74219.19141.25781.09375.54297.17578.65625.17578.10547,0,.40234.05469.65625.11328.25781.0625.66406.14063.90234.16797.24219.03125.49609.08594.5625.11719.0625.03516.39844.08203.73438.10547s.67969.07813.75391.12109c.08594.04688.21484.04688.35938,0,.14453-.05078.27344-.05078.36719,0,.08203.04688.48828.10156.90625.125.75781.05078,1.91797.20313,3.19922.41016.375.0625.96875.11328,1.32031.11328.375,0,.78906.03906,1,.10938.19922.07422.69531.14453,1.10156.16797.41797.03125.80859.08203.88281.12109.07031.03906.41406.08594.75.11328.34375.03125.72656.10156.85547.17578.13672.0625.38672.11719.55469.11719.17578,0,.61328.05078.98047.11328.37109.0625.92969.13672,1.24219.16016.32031.01563.65625.07031.75.12891.09766.04688.25781.07031.35156.04688.09766-.02344.35547.00781.57031.08203.22266.0625.65625.10938.96094.10938.69531-.00781,1.71875.11328,1.94141.23438.08984.04688.25781.08594.35938.08594.17969,0,.5625.09766,1.26563.3125.12109.03906.25781.03906.30469.00781.09375-.05469.96094.09766,1.13672.20703.05469.03516.34375.07422.64063.08203.28516.00781.59766.04688.67969.09375.08594.05078.51172.08984.94922.10547.5625.01563.90625.0625,1.13672.16797.17578.08203.38281.12891.44922.09766.13672-.05078,1.40625.15234,2.36719.375.36719.08594.76172.14453.87109.11328.10547-.02734.30469-.01172.44922.03906.13672.03906.48828.09375.76953.10938.28516.01953.71875.06641.95703.09766.24219.03125.51172.04688.60156.04688.44922-.01563,1.86328.17578,2.01563.27344.09766.0625.25.11328.33594.11328.08984,0,.23828.03125.34375.07031.49609.18359.84766.27344,1.25781.29688,1.60546.10156,2.00781.15234,2.36718.26953.15234.05078.55859.10547.89453.12891,1.48047.08203,2.78516.26563,3.61719.50391.15234.05078.32031.05859.39063.01563.08203-.04688.25781-.01563.48828.08984.27344.12109.58594.16797,1.19141.19141.54688.01563.89063.0625,1,.13672.09766.0625.36328.13672.57813.17578.22266.03125.47266.09375.55859.14453.13672.07031,1.12891.21484,2.38281.33594.21094.02344.44141.07031.52344.10938.07031.04297.26172.07422.42188.07422s.36719.03906.45703.08594c.08594.05078.26172.08984.39063.08984.12109,0,.51172.11328.85547.25391.69141.28906.94531.55469,1.05078,1.10547.03125.15234.16797.51172.29297.80078.37891.80078.69141,1.72656.625,1.83984-.03906.05469-.26953.13672-.51953.16797-.24609.03125-.52734.12109-.60938.19922q-.16016.14453.04297.25c.10156.05469.38281.10156.61328.10938.24219.00781.51953.06641.63281.14453.30469.19141.80078.41016.95313.41016.07813,0,.20703-.06641.29688-.14453.28516-.27344.55078-.40234.85547-.40234.16016-.00781.375-.04688.46484-.10156.17578-.08984.69531-.16016,1.23047-.16016.80078-.00781.98438-.28125,1.03906-1.59375.03906-.96875.08203-1.4375.17578-2.16016.03125-.23828.06641-.55078.07422-.67969.00781-.13672.05469-.39844.09375-.59766.05078-.20313.10547-.52344.12891-.72266.10547-.78906.54297-2.24609.76172-2.51172.03906-.04688.23828-.46484.44531-.92578.30469-.67188.37891-.92188.36719-1.24219-.02344-.67969-.23047-.74219-2.76563-.87891-.48047-.02344-1.09766-.0625-1.35938-.08984-.26563-.02344-.67969-.05469-.92188-.07031-.83203-.04688-2.34375-.28906-2.83203-.44141s-1.55859-.32031-2.32031-.36719c-.59766-.03125-1.72656-.18359-1.80859-.23047-.04688-.02344-.53516-.08203-1.09375-.12109-.57031-.03906-1.27344-.11328-1.58594-.15234-.30078-.04688-.79688-.07813-1.09375-.08594-.29688,0-.74609-.05859-1-.12891-.25781-.07422-.85547-.19141-1.34375-.27344-.48047-.07813-1.05859-.18359-1.28125-.22266-.21484-.04688-.48828-.08203-.60156-.08984-.10938,0-.26953-.00781-.35156-.00781-.07813-.00781-.24609-.05469-.35938-.10938-.11328-.05859-.42188-.14453-.6875-.20313-.26563-.05469-.55078-.11719-.64063-.14453-.08594-.02344-.42969-.08594-.75781-.14063-.32813-.06641-1.01563-.22656-1.51953-.35156-.50781-.13672-.98438-.25-1.05859-.25-.07031,0-.29688-.07031-.50391-.16016-.22266-.09766-.63281-.17578-1.02344-.19922-.35938-.02344-.88672-.07422-1.17578-.11328s-.56641-.04688-.64063-.00781c-.0625.03906-.19922.02344-.32031-.03906-.10938-.05469-.33594-.10547-.49609-.10547s-.41406-.03906-.55859-.07813c-.27344-.08984-1.49609-.27344-1.98438-.29688-.76172-.04688-2.27344-.21484-2.85547-.32031-.35938-.07031-.89844-.14453-1.19922-.16016-.29688-.02344-.96094-.09375-1.46484-.16797-.50391-.0625-1.12109-.14453-1.35938-.17578-.24219-.03125-.48828-.08594-.53906-.12109-.05469-.03125-.46875-.11719-.91797-.18359-.45703-.0625-1.05469-.15234-1.34375-.19141-.28125-.04688-.69531-.09375-.92188-.11328-.38281-.03125-.75-.07813-2.11719-.27734-.32813-.05078-.69141-.12109-.80078-.16016-.30469-.12109-1.28125-.25781-1.36719-.20703-.04297.03125-.19531-.01953-.33594-.10547-.34375-.21484-.96875-.32813-1.97656-.375-.46484-.02344-1.03125-.08203-1.26563-.12109-.22266-.03906-.46484-.05469-.51953-.03906-.04688.02344-.39844-.13672-.77734-.35938-.375-.21875-.74219-.40234-.81641-.40234-.17578,0-.54297-.16797-.54297-.24609,0-.03516-.26172-.15234-.57422-.27344-.32031-.11328-.70313-.26563-.85547-.32813-.15234-.07031-.53125-.15234-.83984-.19141-.3125-.03125-.64063-.08984-.73047-.12109-.625-.22266-2.16016-.90234-2.52734-1.12109-.24609-.14063-.52734-.28516-.625-.31641-.09375-.02734-.23047-.12109-.3125-.20313-.13281-.15234-.56641-.33594-1.22266-.51953-.20703-.05469-.51172-.19141-.67969-.30469-.17578-.10938-.48828-.21484-.71875-.23828-.38672-.03906-.41797-.03125-.69531.27344Z"/>

</g>
</svg>
