<?xml version="1.0" encoding="UTF-8"?>
<svg xmlns="http://www.w3.org/2000/svg"
     version="1.1"
     width="19.72817353mm"
     height="47.95763627mm"
     viewBox="0.00000000 0.00000000 55.92236957 135.94288892">

<g transform="scale(3.49229315)">   <defs>
      <style type="text/css"><![CDATA[
      .b {
        stroke: #000;
        stroke-linecap: round;
        stroke-linejoin: round;
        stroke-width: .01px;
      }
    ]]></style>
   </defs>
   <path class="b"
         d="M10.45502.0347c-.21875.03125-.57813.0625-.80078.0625-.32813.00781-.54297.08984-1.24219.48047-.78125.43359-1.07031.52734-1.86328.60156-.14453.01563-.19141.25391-.20703,1.03125-.00781.44922-.08984,1.23828-.16797,1.76172-.08984.51953-.16016,1.0625-.16016,1.19922s-.03125.35156-.07031.48828c-.04297.13672-.11328.51953-.16016.84766-.05078.32813-.16016.91797-.25,1.32031-.08594.39063-.19922.96875-.24609,1.27734-.12891.875-.15234,1.00781-.23438,1.52344-.04688.26172-.10938.80469-.15234,1.20703-.03906.39844-.14453.97656-.23828,1.27734-.08984.30469-.19922.88281-.25,1.28906-.03906.41016-.10938.82422-.16016.94531-.03906.11328-.09375.4375-.10938.72656-.02344.28906-.07422.57031-.12109.61719-.03906.05469-.08594.27344-.10547.49609-.03125.35938-.10156.76953-.38281,2.19922-.04688.24219-.13672.85547-.19922,1.35938-.11328.96875-.38281,2.45703-.53516,3-.05078.17578-.12109.46484-.15234.64063-.07422.36719-.27344,1.12891-.41797,1.60156-.04688.17578-.08594.35156-.07031.39063s-.00781.16797-.05469.28125c-.32813.87109-.59375,1.66406-.64844,1.98438-.10547.56641-.28906,1.22266-.43359,1.55859-.07031.16016-.10547.34375-.08594.40625.02344.05859-.01953.44922-.08984.86719-.07031.41406-.16016.97266-.19141,1.23828-.03125.27344-.08203.52734-.10547.56641-.03125.05078-.08594.53906-.12891,1.08984-.03906.54297-.10938,1.13672-.14844,1.30469-.22656.87891-.27344,1.23828-.26563,1.94141.01563.98438.04688,1.08203.35156,1.22656.22266.10156.3125.10156.65625.01563.22266-.0625.46484-.12891.55078-.15234.08203-.01563.15234-.04688.16016-.05469.16797-.30469.52734-.74609.72266-.86719.13281-.08594.35938-.30078.48828-.48438.13281-.17578.33594-.43359.44531-.57813.11328-.14453.27344-.38281.35156-.53516.17578-.34375.53906-.76953.91406-1.0625.34375-.27344.58984-.71484.81641-1.41797.08594-.28906.26172-.66406.39063-.83984.48047-.67188.80078-1.23047.83203-1.46484.01563-.13672.18359-.48828.38281-.79297.28125-.42188.37891-.66406.44922-1.10938.04688-.3125.18359-.77734.30469-1.03906.3125-.71484.64844-1.77734.69531-2.25781.04688-.42578.08984-.56641.39844-1.48047.14453-.40625.21094-.48828.53125-.66406.38281-.20703,1.19922-.76563,1.27734-.88672.02344-.03906.17578-.16016.32813-.26563.37891-.26172.50391-.38281.90625-.79297.18359-.18359.4375-.39844.56641-.46094.12891-.06641.42578-.27344.65625-.46484s.55078-.375.71094-.41016c.15234-.02344.28125-.07813.28125-.11719,0-.03125.15234-.22656.34375-.41797.18359-.19141.39844-.42969.47266-.52734.07813-.08594.21484-.16797.30469-.16797.08594,0,.16016-.03906.16016-.07813,0-.05078.08594-.12109.19922-.17578.10156-.05078.17578-.11328.16016-.15234-.02344-.03516.01563-.11328.07813-.17578.19141-.19531.14453-.44922-.13672-.70703-.27734-.24609-.34375-.26953-.42188-.16016-.07031.12891-.84766.54688-1.25781.6875-.20703.06641-.62891.27344-.94141.46484-.3125.18359-.77734.46484-1.03906.61719-.26563.15234-.82422.51953-1.26563.81641-.94531.64844-1,.67188-1.16797.50391-.15234-.15234-.16797-.59375-.04688-1.51953.03906-.35156.09375-1.01563.10938-1.48047s.07422-1,.11328-1.19922c.04688-.20313.08984-.84766.08984-1.44141,0-.58984.02344-1.51172.0625-2.03906.05469-.83203.04688-.99219-.07422-1.19922-.07813-.14453-.14844-.52344-.18359-.92188-.0625-.80078-.07813-.98438-.19141-2.03906-.14453-1.3125-.16016-2.51953-.03125-2.64844.08984-.08984.27344-.09766.81641-.05469.46484.03125.75.01563.87109-.05078.09766-.04688.47266-.10938.83203-.13281.36719-.03516.84766-.11328,1.06641-.19531.22266-.07813.51172-.16797.64453-.19922.12891-.02344.32813-.13672.44141-.24609l.44141-.44141c.34375-.32813.62891-1.22266.55078-1.69531-.03125-.18359-.0625-.51953-.07813-.73828-.02734-.46875-.05078-.53516-.51563-1.31641-.19922-.32813-.35938-.65625-.36719-.72266-.04688-.51953-.25391-.65625-1.07031-.67969-.33594-.01563-.75391-.0625-.92969-.10156-.41406-.11328-1.25391-.15234-1.75781-.08984Z"/>

</g>
</svg>
