<?xml version="1.0" encoding="UTF-8"?>
<svg xmlns="http://www.w3.org/2000/svg"
     version="1.1"
     width="57.09559678mm"
     height="49.20857386mm"
     viewBox="0.00000000 0.00000000 161.84584739 139.48881894">

<g transform="scale(5.18422646)">   <defs>
      <style type="text/css"><![CDATA[
      .b {
        stroke: #000;
        stroke-linecap: round;
        stroke-linejoin: round;
        stroke-width: .01px;
      }
    ]]></style>
   </defs>
   <path class="b"
         d="m17.24225.08334c-.32031.03906-.57813.12109-.67969.21484-.43359.40234-1.71484.74609-2.14453.58594-.08984-.03125-.35938-.03125-.59375,0-.36719.04688-.46875.10156-.75.40625-.17578.18359-.39453.41797-.47266.50391-.07813.08984-.24609.33594-.35938.5625-.24219.46094-.87891,1.24609-1.09766,1.35156-.07813.03906-.20703.20703-.27734.36719-.08203.17578-.24219.35156-.41797.44922-.15234.07813-.35938.26953-.47266.42969-.39844.59375-.59766.83984-.71875.90625-.15234.09375-.80078-.15234-1.03125-.39453-.16016-.15234-.47266-.375-1.39453-.99219-.10938-.07031-.29297-.16016-.42188-.19141-.12109-.02344-.21484-.07813-.21484-.12109,0-.03906-.19531-.19922-.41797-.35938-.96094-.64844-1.07031-.74219-1.19922-1-.07422-.15234-.16797-.29297-.19922-.32031-.04297-.02344-.15234-.18359-.26563-.35156s-.28906-.32031-.39844-.34375c-.11328-.02344-.3125-.09375-.45703-.15234-.22266-.09375-.30469-.09375-.60938.00781-.19922.06641-.40625.18359-.48047.25781-.0625.07031-.32031.34375-.56641.60938-.24609.25391-.44922.51172-.44922.57422s-.17578.42578-.39844.80859c-.21484.38281-.39844.74219-.39844.80859,0,.05469-.08984.25391-.19531.4375-.19141.32813-.19141.34375-.07813.81641.07031.26563.14453.57031.16797.67188.05469.22656,1.04688,1.23438,1.38281,1.41016.12891.0625.28906.11719.35938.11719.15234,0,.71484.5625.88281.89063.14453.27734.48047.59766.69531.67188.23828.07813.24609.375.03906.86328-.13672.29688-.28125.48828-.43359.55859-.125.07422-.39063.32813-.58203.57813-.19922.25391-.41797.51953-.48047.58984-.33594.35156-.36719.88281-.07031,1.20313.23828.25391.51172.28516.85547.10156.21484-.10938.34375-.13672.4375-.07813.08984.03906.19531.03906.28906-.01563.08984-.04297.28125-.08203.42578-.08203.24609,0,.28516-.03906.48828-.42969.10938-.24219.27734-.48047.375-.53125.08594-.04688.16016-.0625.16016-.03125,0,.02344.16797-.09375.38281-.26953.51172-.42578.70313-.52344.87891-.43359.07422.03906.35547.07813.61719.08594.26563,0,.59375.03516.71875.05859.3125.0625,1,.41406,1,.50391,0,.03906.08203.08594.1875.12109.10156.02344.42969.22266.73438.44531.3125.23438.625.40234.74219.40234.11328,0,.39453.08594.61719.19922.46484.21484.73828.24609,1.16016.14453.15234-.04297.49609-.06641.76172-.05078.78125.04297,1.23047.04297,1.32031-.01563.03906-.02344.23047-.0625.41406-.08594.48047-.05859,1.02344-.58594,1.02344-.99219,0-.35938.09766-.49609.34375-.51953.51953-.05859.73047-.37891.67188-1.05078-.01563-.26172-.10156-.70313-.19141-.98047-.13672-.46484-.18359-.53125-.50391-.69922-.19922-.10156-.45703-.19141-.56641-.19141-.28906,0-.94531-.30469-1.19922-.55078-.41797-.41016-1.02734-.75391-1.35547-.77734-.42188-.02344-.46875-.03125-.58984-.16016-.18359-.17578-.16797-.23047.19141-.58203.17578-.17578.32031-.35156.32031-.39453,0-.03906.12891-.13281.28125-.22266.15234-.07813.27734-.16797.27734-.19141s.08984-.14453.19922-.27344c.11328-.125.20313-.26172.20313-.29297,0-.04297.09375-.09766.22266-.12109.39844-.09766.63281-.26563,1.25781-.87109.33594-.33594.76563-.70703.94141-.81641.18359-.12109.375-.25781.41797-.29688.04688-.04688.24609-.20703.45313-.35156.21094-.14453.57813-.45703.81641-.6875.24219-.24219.46484-.44141.50391-.45703.04297-.01563.21094-.23047.37109-.48047.26953-.41406.28516-.45703.19922-.74219-.12109-.38672-.63281-.85156-.92969-.83984-.12109.00781-.44531.03906-.72656.07813Z"/>
   <path class="b"
         d="m5.70709,14.18881c-.15234.05469-.32031.08594-.37109.07031-.05469-.02344-.16797.03906-.25391.12891-.09766.09375-.23438.16797-.3125.16797-.33594,0-.95313.80078-.80859,1.0625.05859.08984.03906.20703-.04688.36719-.06641.13672-.12109.3125-.12109.40234,0,.08594-.07031.32031-.15234.50391-.27734.64063-.34375,1.07813-.19922,1.35938.08984.17578.10547.29688.04688.41797-.10938.24609-.03125,1.11719.15234,1.54297.10547.23828.13672.44531.10547.625-.03125.16797,0,.35156.07813.50391.07422.13281.12891.33594.12891.44531,0,.22656.23438.76953.32813.76953.03125,0,.12109.17578.19141.39063.10547.32813.20703.44922.60156.72266.25391.17578.50391.32422.55078.32422s.19922.12109.33594.27344c.16797.19141.3125.27344.45703.27344.12109-.00781.60938.17578,1.08594.40625.81641.38281.89844.40234,1.32031.35938.25-.03125.58594-.125.76172-.20703.16797-.08594.38281-.13672.48047-.11328.12891.03516.23828-.03906.45703-.26953.24609-.27344.34375-.32031.61328-.32031.20703,0,.36719.04688.43359.12891.12891.16016.28906.3125.94141.87109.48047.41406.54688.44922.85156.41406.34375-.03125.58203.05078.69531.24219.04688.07031.14453.10156.24609.07031.16797-.03906.32031-.00781,1.53516.34375.44922.12891.73047.15234,1.33594.12891.42578-.01563.84375-.07031.92188-.11328.11328-.05469.19922-.04687.32813.04297.09766.07031.38281.13281.64844.14453.29688.01563.52734.07031.61719.14844.14844.12891.53516.10547.72656-.04688.0625-.04688.26172-.07813.45703-.0625.19141.00781.57422-.06641.86328-.15234.32813-.10547.64063-.15234.83984-.13672.23047.03125.44141-.01563.73438-.15234.23438-.10547.57031-.19141.75391-.19141s.41406-.05469.51172-.12891c.10156-.07031.39063-.14453.64063-.16797.42969-.03125.97656-.22266.97656-.33594.00781-.17578.19141-.26953.56641-.30469.23828-.01563.48047-.07813.55078-.13281.19922-.17969.74609-.42578,1.06641-.48047.26953-.05078.62891-.25.93359-.51172.5625-.48828.67188-.57813.71484-.58594.51953-.0625.93359-.32031,1.04688-.63281.05469-.15234.12109-.32031.13672-.375.02344-.05469-.09766-.23828-.27344-.40625-.16797-.17578-.36719-.41016-.44922-.53125-.11719-.16797-.20703-.20703-.49609-.20703-.19922,0-.35938.03125-.35938.08203,0,.07031-.36719.28516-1.32031.75-.67188.32031-1.00781.44922-1.44531.51953-.1875.03125-.51172.17578-.73047.3125-.35938.23438-.41406.25-.69531.16797-.16797-.04688-.39844-.05469-.51953-.02344-.11328.03125-.49609.07031-.84766.07813-.35156.01953-.73828.05078-.84766.07422-.12891.03125-.30469.00781-.43359-.0625-.19922-.10547-.26172-.09766-.63281.03906-.42188.16797-.85547.19141-1.08594.0625-.08203-.03906-.16016-.05469-.18359-.03125s-.33594-.01563-.6875-.08984c-.36328-.07031-.69922-.10938-.75391-.09375s-.16797,0-.25391-.04688c-.08984-.05078-.21875-.08984-.28125-.09766-.15234-.00781-.67188-.16016-1.42578-.42578-.39844-.13281-.62891-.26172-.73438-.42188-.08984-.12109-.32813-.29688-.52734-.39844-.20703-.09766-.43359-.28125-.50391-.40234-.07422-.12891-.16797-.23047-.21875-.23047-.04688,0-.16797-.07422-.26953-.16016-.10547-.08984-.20703-.16016-.25-.16016-.03125,0-.09375-.11328-.14453-.25-.04688-.14453-.21484-.375-.36719-.52734s-.27734-.34375-.27734-.4375c0-.08984-.09766-.33984-.21875-.54687-.19922-.35156-.26172-.39844-.67188-.51953-.25391-.0625-.47266-.16797-.48828-.21484-.03906-.12109-.33594-.01563-.62891.23047-.25781.21875-1.25.60938-1.37109.53516-.03125-.02344-.10156.05078-.16016.16016-.04688.11328-.11719.21094-.16016.21094-.03125,0-.125.125-.19922.27734-.07031.15234-.16016.28125-.19922.28125-.03125,0-.17578.18359-.3125.39844-.32031.52344-.47266.60938-.71094.40234-.09766-.08984-.24219-.17578-.3125-.19922-.12109-.04297-.28125-.25781-.58594-.78516-.10156-.17578-.13281-.42578-.13281-.89453,0-.42578-.05078-.76953-.13672-1-.13672-.36328-.14453-.53125-.08203-1.1875.01563-.22266-.02344-.48828-.125-.75781-.08984-.23438-.15234-.53516-.15234-.67969s-.03516-.3125-.07422-.35938c-.04688-.05859-.15234-.19531-.24609-.3125-.10547-.14453-.3125-.26563-.57031-.34375-.48828-.14453-.57422-.14453-.94922-.00781Z"/>

</g>
</svg>
