<?xml version="1.0" encoding="UTF-8"?>
<svg xmlns="http://www.w3.org/2000/svg"
     version="1.1"
     width="57.15272366mm"
     height="42.67617772mm"
     viewBox="0.00000000 0.00000000 162.00769725 120.97186439">

<g transform="scale(5.59901992)">   <defs>
      <style type="text/css"><![CDATA[
      .a {
        fill: #000;
        stroke: #000;
        stroke-miterlimit: 2.61313;
        stroke-width: 0.28346px;
      }
    ]]></style>
   </defs>
   <path class="a"
         d="M11.83887,1.9502C13.19824.85938,14.65186-.44531,15.15381.42773a32.95694,32.95694,0,0,1-.53906,8.375c-.49072,4.28613-.6626,10.38281-1.97119,10.03223-.99219,2.18359-1.8418,2.87793-2.59766,2.55371a7.053,7.053,0,0,1,.35938-2.19531c.373-2.91895.582-5.91992.7168-8.95752.20313-3.00635.38867-6.14795.7168-8.28564Z"/>
   <path class="a"
         d="M8.74707,7.27979a3.4706,3.4706,0,0,1,2.6875-.49268c.0918.47852.04688.94043-.93945,1.29883a4.32232,4.32232,0,0,1-1.748,1.0752c-1.0293.93262-2.05859,1.7832-3.08984,2.59766-1.31445,1.53809-2.52539,3.001-2.2832,3.94141,1.21094.93848,3.08008.4834,4.74609.26855.76367-.44922,1.002-.26953,1.166,0-.88086,1.10449-1.59766,1.38867-2.24023,1.29883q-.13477.4248-.26953.85156a8.20948,8.20948,0,0,1-1.74609.08887,2.27263,2.27263,0,0,1-1.92578.67188,3.3434,3.3434,0,0,1-2.95508-.31348C.03027,15.96875,1.3291,13.6543,3.59668,11.53516A10.92991,10.92991,0,0,1,8.74707,7.27979Z"/>
   <path class="a"
         d="M13.9873,11.49023c.87354.70215,1.85986.582,3.09229-1.34375A20.22583,20.22583,0,0,1,21.64795,6.877c1.56641-.67871,2.53711-1.39551,2.19336-2.19482q-.69434-.87231-2.2832.58252a18.56574,18.56574,0,0,0-7.5708,6.22559Z"/>
   <path class="a"
         d="M23.75146,6.25c-.96289-1.65723.127-2.3291,2.15039-2.55322a1.84589,1.84589,0,0,1,1.56836-.67139c.76758,2.12158-2.38867,5.90332-4.88281,9.40527-.80859,1.13574-1.73437,2.35449-.7168,2.14941A5.79647,5.79647,0,0,1,26.75342,13.46c1.75977-1.04785,2.15039-.15332,2.01563.62793-.08984.01465-.17969.0293-.26953.04492.01563.31348.0293.627.04492.94043q.15527,1.45459-.76172,1.11914a1.872,1.872,0,0,1-1.56836-.26855,15.81049,15.81049,0,0,0-3.3125.17969,3.99731,3.99731,0,0,1-1.92578.582,10.74031,10.74031,0,0,1-3.67383.89551q-.5376-.8291.89648-1.29883c1.77734-2.55273,3.38867-5.106,4.92578-7.65869a3.01377,3.01377,0,0,0,.627-2.37354Z"/>

</g>
</svg>
