<?xml version="1.0" encoding="UTF-8"?>
<svg xmlns="http://www.w3.org/2000/svg"
     version="1.1"
     width="32.02119256mm"
     height="58.27655503mm"
     viewBox="0.00000000 0.00000000 90.76872067 165.19336152">

<g transform="scale(4.07980845)">   <defs>
      <style type="text/css"><![CDATA[
      .b {
        stroke: #000;
        stroke-linecap: round;
        stroke-linejoin: round;
        stroke-width: .01px;
      }
    ]]></style>
   </defs>
   <path class="b"
         d="M10.70813.07531c-.00781.04297-.25391.1875-.54297.32813-.28906.14453-.55859.32813-.61719.40234-.05469.07031-.20703.18359-.33594.23828-.13672.05859-.26172.16797-.29688.25781-.02344.08594-.22266.33594-.42969.55078-.21484.22266-.41797.47266-.44141.55078-.03125.08984-.07813.16016-.10938.16016-.04297,0-.11328.10547-.16797.24219-.05859.12891-.12891.23828-.16016.23828-.07422,0-.13672.36719-.20313,1.11328-.03125.39844-.00781.61719.13672,1,.14453.41406.16797.63281.15234,1.50391-.00781.58203.01563,1.02344.05469,1.02344.14453,0,.25.44141.29688,1.19922.03906.78516.12891,1.38672.25781,1.80078.03906.12891.0625.61719.05469,1.08203-.00781.46094.01563.89453.04688.96484.07422.12891.12891.96875.22656,3.19531.03125.67969.08594,1.28516.11719,1.33594.03516.05469.02734.17578-.02344.26172-.0625.12109-.05469.20703.00781.33594.11328.20703.16797.52734.16016.96094,0,.75781.00781,1.12109.04297,1.85547.04688.85547-.04297,1.20703-.30469,1.29688-.17578.04688-1.18359,1.03125-1.18359,1.14453,0,.03906-.14453.22266-.32031.40625s-.32031.35938-.32031.40234c0,.03125-.10547.17578-.24219.31641-.125.14453-.23828.28906-.23828.32031,0,.04297-.17578.25-.39063.47266-.21875.22656-.41797.48047-.44922.57031-.02344.08594-.08203.16016-.12109.16016s-.09375.07031-.12109.16016c-.03125.08594-.23047.34375-.44531.56641-.21875.22266-.39453.43359-.39453.47266,0,.03125-.10156.17578-.23047.3125-.13672.14063-.26563.32813-.28906.41406-.03125.08203-.07813.15234-.11719.15234-.04297,0-.09766.07031-.12109.16016-.03125.08984-.13672.24609-.23438.34375-.10156.10547-.20703.27344-.23047.38281-.03125.11328-.12109.28906-.20703.38672-.08984.10156-.18359.25391-.20703.33594-.03516.08594-.08203.15234-.12109.15234s-.09766.07031-.12109.16016c-.03125.08594-.22266.34375-.44141.55859-.21484.21484-.40625.47266-.4375.55859-.02344.08984-.08203.16016-.12109.16016s-.09375.07422-.12109.16016c-.03125.08984-.13281.25-.23828.35156-.10547.10547-.40625.625-.67188,1.16016-.38281.75391-.48828,1.05078-.48828,1.32813v.35938h.47266c.44922,0,.47266-.00781.56641-.23828.05859-.12891.12891-.23828.16016-.23828s.10547-.10547.16016-.24219c.05469-.12891.12891-.23828.16016-.23828s.10547-.11328.16016-.24219c.05469-.13672.12891-.23828.16016-.23828s.10547-.11328.16016-.24219c.05469-.125.12891-.23828.16797-.23828.03125,0,.07813-.07422.11328-.15234.02344-.08984.15234-.27344.28516-.41797.12891-.13281.23438-.27734.23438-.30859,0-.03516.10156-.17578.23047-.3125.13672-.14453.26563-.32813.28906-.41797.03125-.07813.07813-.15234.11328-.15234.03906,0,.08594-.10156.10938-.23047.02344-.12109.19141-.375.36719-.55859.1875-.19531.32813-.37109.32813-.41016s.14453-.21484.32031-.39844.32031-.36719.32031-.41016c0-.03906.12109-.19141.27344-.34375.14453-.16016.29688-.375.32031-.48047.07031-.29297,2.26172-2.48047,2.63281-2.64063.16797-.0625.35938-.17578.42188-.24609.14453-.13672.19141-.14453.34375-.04688.12891.08594.19141.42188.17578,1.0625,0,.42578-.00781.71875-.01563,1.32031,0,.12891-.03125.96094-.07031,1.86328-.03906.90625-.08984,2.19922-.10547,2.89844-.02344.6875-.07031,1.29297-.10156,1.35938-.04297.05469-.09766.44531-.12891.86328-.02344.41406-.07422,1.10547-.10547,1.51953-.03125.41797-.08594.81641-.12891.89453-.03906.07422-.07031.21094-.07031.30469,0,.08984-.07422.3125-.16016.48828-.13672.25781-.14453.34375-.07031.48828.08594.16797.07813.24219-.17969,1.07422-.10156.35156-.08594.98047.03516,1.10156.17578.17578.4375.28906.6875.28906.25391,0,.64844-.14453.64844-.24219,0-.03125.10156-.10156.23828-.16016.12891-.05469.25781-.16797.28125-.24609.03125-.08984.26172-.375.52734-.64063.25781-.26172.49609-.57422.51953-.69531.07422-.27344.50391-1.16016.60938-1.22266.10938-.07422.70313-1.83203.70313-2.08984,0-.23828.15234-.625.24609-.625.03516,0,.08203-.13281.10547-.30078.14453-.83203.34375-2.04297.41797-2.50391.02344-.16016.00781-.37109-.04297-.46484-.07031-.12891-.0625-.22656.05078-.42578.07031-.14453.16797-.50391.19922-.80859.03125-.29297.10156-.79688.15234-1.11719.04688-.3125.09375-.92188.10938-1.33594.02734-.53125.08203-.90625.21094-1.23438.125-.35938.15234-.50391.08594-.64844-.05469-.11719-.0625-.26953-.01563-.41406.03906-.12109.11328-.38281.16016-.58594.04688-.19922.12891-.47266.16797-.60547.03906-.13672.07031-.54688.07031-.92188,0-.45703.05078-.80859.15234-1.07813.12891-.35156.15234-.67188.16016-2.11328.00781-1.51172.03516-1.72656.16797-2,.08984-.16797.23438-.32813.32031-.35938.08984-.02344.16016-.08203.16016-.12109s.07422-.08594.16016-.12109c.08203-.02344.32813-.21484.53516-.42188.21875-.20703.53906-.44141.71484-.52734.18359-.08203.375-.23438.42188-.33594.05078-.10547.12109-.19141.16016-.19141s.18359-.11328.32813-.24219c.28906-.27344.35156-.28906.49609-.12891.08984.08984.19141.02344.66406-.42188.3125-.28906.79297-.65625,1.06641-.80859.82813-.46484.78906-.39844.56641-.84766-.16016-.32813-.18359-.51953-.19141-1.16797,0-.60156-.02344-.78516-.10547-.78516-.0625,0-.51953.12891-1.02344.28906l-.91016.28906v.31641c0,.17188-.04297.39453-.08984.48047-.17578.32813-1.44141,1.58594-1.59375,1.58594-.03125,0-.17578.10547-.30859.23047-.14453.13672-.32813.26563-.41016.28906-.07813.02344-.17578.12109-.19922.20703-.03125.08984-.14453.19922-.25.25-.10156.04688-.19141.10938-.19141.14453,0,.03125-.08594.09375-.19922.14063-.21484.09766-.43359.05859-.44922-.09375-.00781-.04688-.02344-.35938-.03906-.6875-.05469-1.25781-.17578-2.53516-.26953-2.88281-.05859-.19922-.12891-.80469-.16016-1.35938-.05859-.89453-.12891-1.40625-.26563-1.75781-.02344-.06641-.0625-.47266-.08984-.89844-.04688-.97266.00781-1.05469.66406-.99219.25.02734.72266.06641,1.05078.08984s.65625.0625.71875.09766c.0625.03125.42578.07813.80078.10938s.83203.08984,1.01563.12891c.19141.04688.375.04688.44141.00781.10156-.07031,3.36719-.01563,3.88672.0625l.25391.04297v-.76953l-1.10938-1.04688c-.85547-.80859-1.33594-1.18359-2.06641-1.63281-.51953-.32031-1-.63281-1.0625-.67969-.0625-.05469-.21484-.12109-.33594-.15234-.12109-.02344-.26563-.09766-.32813-.16016-.05469-.0625-.33594-.23047-.625-.36719-.27734-.14453-.56641-.32813-.64063-.41016-.07031-.08594-.20703-.15234-.30078-.15234-.19531,0-1.15234-.45313-1.19531-.56641-.01563-.03906-.10938-.07031-.22266-.07031-.10547,0-.55859-.17578-1.00781-.39453-.45703-.21484-.98438-.46484-1.18359-.54297-.19141-.07813-.47266-.26563-.61719-.39844-.19141-.20313-.32813-.26563-.53516-.26563-.15234,0-.28906.03125-.30469.07031Z"/>
   <path class="b"
         d="M20.43078,28.16516c0,.23828.01563.34375.03125.21484.01563-.11719.01563-.3125,0-.4375-.01563-.12109-.03125-.01563-.03125.22266Z"/>

</g>
</svg>
