<?xml version="1.0" encoding="UTF-8"?>
<svg xmlns="http://www.w3.org/2000/svg"
     version="1.1"
     width="14.32453698mm"
     height="36.48740975mm"
     viewBox="0.00000000 0.00000000 40.60505148 103.42886163">

<g transform="scale(5.63365949)">   <defs>
      <style type="text/css"><![CDATA[
      .b {
        stroke: #000;
        stroke-linecap: round;
        stroke-linejoin: round;
        stroke-width: .25px;
      }
    ]]></style>
   </defs>
   <path class="b"
         d="M.51253,1.47187c-.29434.63857-.27347,1.37192-.23912,2.07422.17293,3.53492.54176,7.09555.03546,10.5983-.12615.87278-.30488,1.77428-.06717,2.62348.23771.8492,1.05906,1.61555,1.92351,1.44128.18734-.03777.37521-.12508.48041-.28463.1876-.28452.0498-.65843-.0345-.98864-.16759-.65654-.09506-1.34747-.02145-2.02105.23584-2.15817.472-4.3163.70753-6.4745.19833-1.81729.61245-2.5171,1.44649-3.99187C6.49542,1.35101,1.98041-1.71269.51253,1.47187Z"/>
   <path class="b"
         d="M6.94982,14.34797c-.1322.25671-.38311.42709-.62389.58645-.71161.47098-1.42322.94195-2.13483,1.41293-.1977-.67171-.39539-1.34341-.59309-2.01512-.07212-.24503-.14492-.5015-.097-.75239.04385-.22956.18434-.42811.33336-.60815.46668-.56379,1.7836-1.87248,2.64276-1.3564.57126.34314.76003,2.1747.47269,2.73267h0Z"/>

</g>
</svg>
