<?xml version="1.0" encoding="UTF-8"?>
<svg xmlns="http://www.w3.org/2000/svg"
     version="1.1"
     width="35.73355015mm"
     height="47.25293059mm"
     viewBox="0.00000000 0.00000000 101.29198044 133.94528875">

<g transform="scale(3.97809871)">   <defs>
      <style type="text/css"><![CDATA[
      .b {
        stroke: #000;
        stroke-miterlimit: 10;
        stroke-width: .15px;
      }
    ]]></style>
   </defs>
   <path class="b"
         d="M2.44268,1.35179c-.4707.3204-.58929.18845-1.02124.51065-.28864.21533-.45013.4342-.63379.68314-.2323.31485-.5835.79092-.68536,1.44452-.0553.35489-.01917.64703.04254.97873.30353,1.63123,1.4292,4.56677,1.47174,5.00406.00653.06726.021.21799.04767.43106.01746.13934.56067,2.6319,1.03381,4.18188.64563,2.11505.73517,2.32971.9787,3.14896.2005.6745.34357,1.21442,1.23407,5.23404.40338,1.82065,1.40216,5.99524,2.12762,8.1702.4975,1.49155.71289,1.9794,1.23407,2.25534.74689.39542,1.63074.09561,1.78723.04254.53809-.18253.86719-.49866,1.23401-.85107.43005-.41315.68542-.81244,1.06384-1.40424.22198-.34711.33484-.52557.42554-.76596.22144-.58676.18896-1.10519.17023-1.36169-.2677-3.66357-.55322-5.53183-.55322-5.53192-.14337-.93829-.62048-3.65012-.72339-4.25531-.30261-1.77963-.16571-2.27814-.34039-3.87234-.0498-.45459-.08295-.61514-.93622-4.29788-.65601-2.83121-.61182-3.22498-1.617-6.29788-.29144-.8909-.53149-1.52933-1.03442-2.23566-.34698-.48727-1.10425-1.03378-2.6189-2.12677-.15851-.11441-.47363-.33591-.72968-.23331-.20319.08139-.20819.30234-.46808.42554-.20776.09851-.31158.008-.55316.04254-.38776.05545-.42377.33203-.93622.68085Z"/>
   <path class="b"
         d="M13.3789.16033c-.61414-.04697-1.15948-.08868-1.91492-.08511-.82782.00391-1.72638.013-2.80853.25531-.44806.10031-.69537.18863-1.617.51065-3.36255,1.1749-4.04559,1.3884-4.04254,1.74466.00232.2731.40656.49188,1.14893.89365.38025.20581.59583.26532,1.44684.68085.57812.28229.63147.32944.68085.38297.4588.49728.16504,1.09793.55316,1.36169.18079.12286.45502.08011,1.00342-.00546.55627-.08679.95477-.22668.96002-.22852.70892-.24884,1.56451-.3035,3.14294-.4043,1.69434-.10822,1.53247.01682,3.53192-.08511,1.0603-.05405,4.1543-.24191,4.89362-.25531,2.68121-.04858,3.88849.18756,4-.17023.06671-.21414-1.64465-1.42648-2.25531-1.91489-.51788-.41422-.47253-.51672-.85107-.80853-.55963-.4314-1.07294-.52658-1.91486-.72339-2.01044-.46994-1.57562-.5097-2.89368-.76596-1.26025-.24503-2.22388-.31873-3.06378-.38297Z"/>
   <path class="b"
         d="M9.6441,6.88634c-.49261.10077-.81677.20551-1.24396.3378-1.44275.44684-4.4978,1.05444-4.85107,1.53192-.06036.08163-.29901.42468-.25531.85107.06195.6048.63361.80853,1.17133,1.39236.99689,1.08234.50342,1.97928,1.16913,2.30975.9339.46362,2.9494-1.09836,3.66956-1.99106.1059-.13126.41443-.53424.96582-.79337.39746-.18677.75232-.21951.90698-.23077,1.76569-.1286,4.75537.2067,4.75549.2067,1.80042.2019,3.37756-.00134,6.53192-.40784.12433-.01602.73193-.09952,1.42554-.44324.6073-.30093,1.59991-.95969,1.48938-1.48935-.04639-.22223-.24573-.22403-.63831-.55319-.82037-.68784-.68054-1.29248-1.19153-1.53192-.5318-.24921-.97357.26962-2.03345.55869-.76379.20831-1.22626.12759-2.51971.03705-.00012,0-3.28516-.24036-7.87292.02499-.29547.01709-.81952.05551-1.47888.1904Z"/>

</g>
</svg>
