<?xml version="1.0" encoding="UTF-8"?>
<svg xmlns="http://www.w3.org/2000/svg"
     version="1.1"
     width="54.72604563mm"
     height="47.05334364mm"
     viewBox="0.00000000 0.00000000 155.12896755 133.37956406">

<g transform="scale(2.98848727)">   <defs>
      <style type="text/css"><![CDATA[
      .b {
        stroke: #000;
        stroke-linecap: round;
        stroke-linejoin: round;
        stroke-width: .01px;
      }
    ]]></style>
   </defs>
   <path class="b"
         d="M33.473.15735c-.66406.21484-.94141.51172-1.1914,1.26172-.26172.80859-.32813,1.51953-.20703,2.25781.0625.32813.09375.83984.07813,1.15234-.03125.75781-.03125.77344.10547,1.63672.16015.95313.28906,1.44922.52734,1.96094.10547.21484.24219.50391.29688.64063.32031.76953.56641,1.22266.78516,1.47266.14453.16016.35938.42969.48828.60938.125.17578.44531.54297.69531.8125.25391.27344.46484.53125.46484.57031s.09375.12109.20703.18359c.40625.21484,1.04688,1.35156.75781,1.35156-.02344,0-.15234.08984-.27734.19922-.12891.11328-.26563.19922-.29688.19922-.03906,0-.18359.10547-.32813.22656-.14453.12891-.46484.32813-.70313.44531-.24219.12891-.49609.28125-.57031.33594-.16797.14453-1.375.67578-1.55078.67578-.07031,0-.23828.0625-.38281.13281-.14453.07422-.38672.16016-.53906.19141-.46875.10547-1.20703.38672-1.78125.67578-.30469.14844-.58594.27734-.63281.27734s-.48828.18359-.97656.41016c-.88672.40625-2.02344.86328-2.67969,1.07813-.19141.05469-.49609.17578-.67969.26563-.17578.07813-.47266.20703-.64844.26953-.17578.06641-.78516.29688-1.35938.51953-1.34375.51563-1.64844.61719-2.32031.77734-.30469.07422-.79297.22266-1.08203.33594-.28516.10547-.62109.23438-.75781.28125-.12891.04688-.45703.18359-.71875.30469-.82422.38281-1.34375.57422-1.76172.65625-.21484.03906-.47266.11719-.55859.16797-.21094.10938-.70703.29297-2.92188,1.08594-.23828.08203-.81641.32031-1.28125.52734-.46094.21094-.91797.38672-1.01563.40234-.09375.01563-.36719.13281-.59766.26953-.23438.13672-.83984.44922-1.34375.6875-1.12109.55469-1.73828.86719-2.51953,1.28125-.32813.17578-1.14453.60156-1.81641.95313-.67188.34375-1.32031.69531-1.44141.78516-.12109.07813-.33594.19141-.48047.23828-.32031.11328-1.19141.71875-1.58203,1.10547-.25781.25391-.37891.42969-.71484,1.03125-.07031.12891-.11719.55859-.14063,1.25391-.03516.98438-.01953,1.09766.17578,1.67969.11719.35547.32031.81641.4375,1.03516.28906.50391.99219,1.21484,1.3125,1.32031.20703.0625,3.07422.17578,4.15234.16797.16016,0,.48828.0625.71875.14844.58594.21875,1.02344.30469,1.83203.35547.44141.03125.84766.10938,1.12109.21484.33594.13672.61719.18359,1.34375.19922.50391.00781,1.11328.05469,1.35156.10547.23438.04688.71484.08594,1.06641.08594.41927,0,.65625-.07943.71094-.23828.08594-.24219.14453-.27344.65625-.36719.21484-.04297.33594-.11328.41406-.27344.06641-.12109.09766-.24219.06641-.26563-.02344-.03125-.05859-.14453-.06641-.25391-.03125-.28906-.35156-.78516-.93359-1.48047-.63281-.73828-.9375-.95313-1.90625-1.28125-.41406-.14453-.89453-.32813-1.05469-.40625-.16797-.08984-.39063-.15234-.51953-.15234-.28906,0-1.89844-.30469-2.34375-.44141-.19922-.0625-.5625-.15234-.80078-.19141-.96094-.16016-1.9375-.53516-2.07031-.80078-.11328-.20703-.12109-.18359.14844-.52734.48828-.61719,2.37109-1.90234,3.46484-2.375,1.10547-.48047,1.75391-.80078,1.99219-.99219.21484-.17578.64844-.39063,1.5625-.80078.25391-.11328.64453-.29688.86328-.40625.22266-.11328.65625-.28906.95703-.39453.79297-.24609,1.37109-.48047,1.49609-.58203.28125-.24219.84375-.57031.96875-.57031.08984,0,.24219-.07031.35156-.16016.11328-.08594.25-.16016.29688-.16016s.64844-.23828,1.32813-.52734c.67969-.28516,1.32813-.55859,1.44141-.58984.10938-.03125.38281-.12109.59766-.19922.70703-.23438.95313-.29688,1.21094-.3125.13281,0,.29297-.05078.35938-.10547.0625-.04688.34375-.16797.63281-.26563.28516-.08594.62109-.23828.75-.33594.12109-.08594.45703-.20703.74609-.26953.28516-.05859.89453-.28906,1.34375-.51172.45313-.21875.87891-.40234.93359-.40234.05859,0,.42578-.125.81641-.27734s.81641-.28125.94531-.28125.33594-.05469.47266-.12109c.125-.07031.35156-.14453.49609-.16016.65625-.08594,1.40625-.26953,1.76563-.42188.21484-.09766.47266-.17578.57813-.17578.10156,0,.26172-.03125.36719-.07422.50391-.19141,1.03125-.32031,1.46484-.35938.26172-.02344.74219-.15234,1.07031-.28906.32813-.125.64844-.23828.71875-.23828.06641,0,.30469-.08984.53125-.19141.21484-.10547.54297-.24219.71875-.29688.46484-.14453.66406-.30469.88672-.74219.25781-.48047.44141-.64844.92969-.80859.21484-.08203.47266-.24219.58984-.38672.12109-.14063.3125-.30859.42578-.38281.25391-.15234,2.00781-1.89453,2.00781-1.99219,0-.03906.07031-.08594.15234-.12109.07813-.02344.17578-.13281.19922-.23828.03125-.11328.08984-.19922.12891-.19922s.18359-.20703.3125-.46484c.125-.24609.3125-.55078.41406-.66406.10547-.11328.29688-.39844.42578-.64063.125-.23828.33594-.56641.45313-.72656.12891-.16797.3125-.47266.40234-.67969.08594-.21094.20703-.44141.26172-.50391.05859-.06641.1875-.32031.28125-.5625.10547-.23828.24219-.52734.3125-.63672.23828-.36328.50391-1.07422.52734-1.41016.00781-.19141.13672-.54297.30469-.83984.26563-.48047.28125-.55859.26563-1.11328-.02734-.71094-.21875-1.20703-.69922-1.77344-.375-.45703-.67969-.63281-.94922-.57031-.23438.06641-.72266.35938-.83984.51172-.12109.16016-.49609.90625-1.06641,2.11328-.26953.56641-.54297,1.12891-.60547,1.23828-.33594.57813-1.44141,2.92188-1.50391,3.20313-.08984.35938-2.42578,2.64063-2.70703,2.64063-.04688,0-.30078-.21875-.3125-.26563-.19141-.96094-.26172-4.03125-.11719-4.85547.03125-.15234.0625-.39453.07813-.51953.01563-.13672.10547-.49609.19922-.80078.1875-.61719.16797-1.14453-.05469-2.12109-.0625-.28906-.12891-.64844-.13672-.80078-.02344-.35156-.11719-.63672-.20703-.63672-.03125,0-.34375-.35547-.67969-.78516-.60938-.76953-.98438-1.06641-1.39844-1.10547-.11328-.00781-.41016-.07031-.66406-.14453-.5625-.15234-.60938-.15234-1.21875.04297h.00002Z"/>
   <path class="b"
         d="M40.63316,17.66126c-.375.07813-.64063.23047-.64063.36719,0,.23047-.19141.52734-.375.56641-.33594.08984-2.10156,1.32031-2.66406,1.85547-.375.37109-.80078.97656-1.18359,1.69922-.10547.19922-.3125.47656-.44922.62109-.41406.41016-1.40625,1.70313-1.60547,2.09766-.3125.59766-.9375,1.34375-2.35937,2.78516-.37891.38281-.96875,1.01563-1.32031,1.40625-.35156.38281-.875.87109-1.16016,1.07031-.28906.20313-.625.45703-.76172.57813-.24609.21484-1.07813.79297-1.88672,1.30469-.96094.59766-1.83203,1.6875-1.83203,2.28516,0,.10547-.12109.37891-.25781.60156-.23047.35938-.26172.47266-.25391.92969.00781.51172.01563.51953.35938.82422.44141.375,1.16797.69531,1.75.76563.24219.03125.52344.09766.61719.15234.09766.05469.47266.12109.83984.14453.36719.01563.85547.08594,1.08984.15234.23828.05469.47266.09375.52734.07031s.23828.02344.41406.09766c.60938.26172,3.15234.40625,3.8164.22266.22656-.0625.74609-.15234,1.13672-.19922.39844-.03906.86328-.09766,1.03906-.11328.17578-.02344.39453-.03906.48047-.03906.08984,0,.375-.03906.64063-.08594.26563-.04297.56641-.09766.67969-.10547.81641-.11328,1-.14453,1.05469-.17578.08203-.04688,1.16016-.19141,2.02734-.25781.35156-.03125.6875-.08594.74219-.11719.08984-.06641,1.18359-.14453,1.85547-.13672.15234,0,.64063-.03125,1.07422-.07422.71875-.07031.82422-.0625,1.09375.08203.44922.22266.65625.67188.61719,1.30469-.02344.39844-.09766.61328-.42578,1.20703-.70313,1.28125-1.07813,2.47266-1.07813,3.46484,0,.95703.38281,1.61328.94531,1.61328.35938,0,1.82031-.67969,2.07031-.95703.375-.43359.96094-1.06641,1.22266-1.34375.43359-.45703.89063-1.11328,1.13672-1.64062.12891-.26563.36719-.64844.54297-.85547.17578-.21094.32031-.44141.32031-.52344,0-.07031.05078-.23047.11328-.34375.18359-.35938.36719-.8125.36719-.91016,0-.04688.14453-.33594.32031-.64844.17578-.30469.30469-.57422.28906-.59375-.02344-.02344.04688-.28516.16016-.58203.21484-.60938.23828-1.01563.07031-1.48047-.0625-.17578-.12109-.40625-.12109-.51953-.00781-.51172-.03906-.53516-.70313-.50391-.33594.01563-1.07031.10547-1.62109.19922-.88281.14453-1.08203.16016-1.52344.07422-1.32031-.25-1.78125-.28125-3.26953-.22656-.28906.01563-.73828-.02344-1-.08594-1.02344-.23438-1.64844-.24219-3.64844-.05078-.35938.03516-.59375.01953-.71875-.04688-.10547-.05469-.40234-.12891-.67188-.16797-.26563-.03125-.625-.09375-.80078-.14453-.17578-.04688-1.16797-.10156-2.19922-.13672-1.76953-.04688-2.12109-.09375-2.25781-.29297-.08984-.14453.08984-.37109.43359-.54688.25391-.125,1.87891-1.63672,2.76563-2.56641.08984-.09766.53516-.55078.84766-.86328.80859-.82422,2.12891-2.25,2.12891-2.3125,0-.02344.14453-.20703.32031-.40625.39063-.44922,1.08594-1.44141,1.16016-1.68359.07031-.23828.54297-1.13281.91797-1.75781.16797-.28906.38672-.77734.48047-1.08203.09766-.30859.21094-.64453.25781-.75781.14453-.3125.14453-1.34375.01563-1.87891-.13672-.53906-.44922-1.12109-.65625-1.22656-.19922-.10156-.96875-.16797-1.29688-.10156h.00001Z"/>

</g>
</svg>
