<?xml version="1.0" encoding="UTF-8"?>
<svg xmlns="http://www.w3.org/2000/svg"
     version="1.1"
     width="39.94887862mm"
     height="46.55432604mm"
     viewBox="0.00000000 0.00000000 113.24088843 131.96499407">

<g transform="scale(4.28563383)">   <defs>
      <style type="text/css"><![CDATA[
      .b {
        fill: #000;
        stroke: #000;
        stroke-linecap: round;
        stroke-linejoin: round;
        stroke-width: .01px;
      }
    ]]></style>
   </defs>
   <path class="b"
         d="M23.34704.11926c-.16016.05859-.47266.12891-.67969.15234-.59375.08203-1.16797.25781-1.55469.48047-.19141.11328-.45313.19922-.57422.19922s-.42578.06641-.67969.15234c-.25.08203-.65625.19141-.89453.25-.24219.05469-.60156.16016-.80078.21484-.19922.0625-.42578.12891-.49609.14453-.08203.01563-.19922.0625-.27344.10547-.08594.04688-.23828.04688-.41406,0-.3125-.08984-.59375-.06641-1.37891.11719-.34375.08984-.62891.10547-.85547.06641-.29297-.05859-.39063-.03516-.75781.17578-.23438.125-.52734.32031-.64844.42188-.12891.10547-.32813.19141-.44922.19141-.11328,0-.29688.05859-.39063.12891-.10547.07422-.44141.20703-.76172.3125-.60547.19922-1.23047.44922-1.58984.64844-.14453.07031-.39453.11328-.6875.10547-.25781-.01172-.54688.03125-.64844.08594-.12891.0625-.33594.08203-.58594.05469-.28125-.03906-.48047-.00781-.6875.08984-.25781.11328-.96875.60938-1.16016.80078-.03125.03125-.25391.26172-.49609.51172-.51172.53516-.63281.60547-.98438.58203-.22266-.02344-.56641-.28516-.57422-.44531,0-.08984-.43359-.23438-.67969-.23438h-.49609c-.20313,0-.35156.08984-.6875.41797-.24219.23047-.54688.51172-.68359.62109-.22266.17969-.26172.27344-.32422.73047-.01172.02344-.15234.10938-.32813.19141-.3125.13672-.60938.50391-.97656,1.19922-.17578.34375-.19141.92188-.03516,1.5625.07422.28516.12891.62891.12891.75781,0,.14453.08203.32813.19922.45703.11328.12109.33594.45703.49609.75781.16797.29688.41797.64844.55469.78516.13672.12891.35156.41797.47266.63281.21484.38281.55859.76563.6875.76563.125,0,.3125.25781.3125.43359,0,.19922.16016.38281.79688.92969.54688.46094.71484.63672.76172.79688.02344.07422.13672.17969.23828.22656.11328.04688.20313.12891.20313.17578s.19141.16797.42188.26953c.22266.10547.47266.27344.53516.37109.06641.10156.24219.30469.38672.44531.13281.14453.25391.29688.26172.32813.01563.21094.07422.33594.25.60156.10938.16016.23828.39063.28516.51172.14453.38281.37109,1.18359.36328,1.28906,0,.05469.01563.10156.04688.10156.10547,0,.30469.44922.35938.80078.0625.42578.34375,1.13672.67969,1.76172.33594.61328.60938,1.18359.73828,1.55859.16016.48047.62109,1.14453.90234,1.3125.13672.07813.47266.19141.74219.24609.43359.08984.54688.08203.96094-.03906.25781-.07813.51953-.19141.59375-.25391.07031-.06641.23047-.12891.35938-.15234.58984-.09766.80859-.20703,1.47266-.80859.39844-.35938.58203-.50391.64063-.50391.03125,0,.13281-.07422.23047-.15234.10547-.08984.22266-.17578.26563-.18359.09375-.03125.23828-.69531.23047-1.10547,0-.15234-.04688-.39844-.11328-.55859-.0625-.15234-.18359-.49609-.26953-.76172-.08984-.26172-.18359-.53516-.21875-.59766-.04688-.12109.03516-.27344.70703-1.29688.13281-.20703.30078-.39844.36719-.42578.11719-.03906.42188-.4375,1.09375-1.45313.21094-.32031.44922-.60156.51953-.625.07422-.02344.16016-.12109.1875-.20703.03125-.08203.14844-.21094.27734-.27344.29688-.15234.34375-.32813.21875-.82422-.07422-.28125-.17969-.46484-.33594-.58984-.24219-.1875-.80078-.37891-1.15234-.38672-.24219,0-.79297.39453-1.28125.90625-1.28125,1.34375-1.52734,1.57422-1.98438,1.79688-.44141.22656-.49609.24219-.65625.12891-.21484-.15234-.50391-.70313-.44141-.85547.01953-.05469.01172-.25391-.03125-.42969-.07813-.36328-.01563-.53906.28125-.76953.10547-.08203.18359-.21484.18359-.29688,0-.07813.0625-.20703.14453-.28906.07031-.07813.12109-.14063.09375-.16016-.0625-.02344.32031-.67188.40234-.67188.10547,0,.63281-.57422.6875-.73438.02344-.07813.12891-.16797.23828-.19141.12891-.03125.24219-.15234.3125-.33594.16016-.35938,1.21094-1.39453,1.65625-1.625.18359-.08594.47266-.26563.625-.38281.67188-.50391,1.32813-.89063,1.51953-.89063.11328,0,.33594-.07031.49609-.16016.26563-.14063.3125-.14063.42578-.03125.0625.06641.11719.18359.11719.25781.00781.07031.06641.28125.12891.45703.16797.4375.18359.67969.06641.92578-.08984.18359-.08203.25781.10156.64063.17578.35938.20703.55859.22266,1.23828.02734.77734.09766,1.05859.33984,1.29688.07813.08203.07813.14453.01563.27344-.05859.09375-.06641.28906-.03516.45703.02734.16016.06641.55859.08984.88672.01563.32813.04688.64844.07031.70313.01563.05469-.03906.25-.13281.42578-.12109.23828-.17578.50391-.19531.97656-.03906,1.11719-.19141,1.55078-.89453,2.50391-.39844.54297-.60156,1.03906-.54297,1.35938.03906.20703.01563.30469-.11328.42969-.08594.08984-.20703.16016-.27344.16016-.125,0-.53516.67969-1.14844,1.9375-.24219.48828-.54688.97656-.69922,1.12109-.87891.83984-1.16016,1.14063-1.16016,1.27734,0,.05078-.0625.21875-.14844.37891-.24219.46875-.38672.83203-.44922,1.125-.03125.15234-.12891.41797-.21484.58594-.15234.3125-.13672.77344.03906.99219.10156.13672.45313.12891.64844-.01563.08594-.06641.22266-.12109.29297-.12109.16016,0,.48047-.47266.50391-.74609.02734-.19922.28906-.69531.37891-.69531.02344,0,.15234-.15234.27734-.34375.12891-.18359.25781-.35156.28125-.375.03125-.02344.19141-.29688.35938-.61719.21875-.42188.36719-.59766.54297-.67969.33984-.13672.76953-.57422.76953-.78516,0-.10938.16016-.32422.44141-.58203.24609-.22266.55859-.60938.69531-.84766.14453-.25.28125-.46484.32031-.47266.03125-.01563.0625-.07813.0625-.13672,0-.0625.09766-.21484.20703-.33594.67188-.73438,1.02734-1.07812,1.23438-1.19141.23047-.14453.42969-.47266.35938-.58984-.07031-.12109.16797-.51563.43359-.71484.14063-.10938.24609-.26172.24609-.36719s.16797-.35938.39844-.60938c.28906-.30078.46484-.58984.64063-1.04688.12891-.35156.32813-.75.44141-.89453s.19922-.35156.19922-.45703c0-.11328.05859-.27344.12109-.375.07031-.09766.12109-.21875.11328-.27344-.01953-.05469.02344-.24609.07031-.41406.04688-.17578.07031-.34375.05469-.37891-.08594-.125.3125-1.35156.44141-1.35156.11328,0,.25781-.63281.20703-.92578-.07813-.48047-.0625-.63281.12109-1.16797.09766-.28125.17578-.58594.19141-.67969.00781-.10547.0625-.23438.12109-.29688.07031-.09766.07031-.18359.00781-.38281-.09766-.28906-.02344-.66406.18359-.97656.08594-.14453.09766-.21094.00781-.37109s-.08984-.23047.00781-.41406c.0625-.12109.10547-.35156.09766-.52734,0-.16797.01563-.35156.03906-.39453.12109-.19141.07813-.82422-.05469-.97266-.16016-.17578-.22656-.42578-.21875-.78516.00781-.14453-.04688-.35156-.11719-.46484-.07422-.11328-.10547-.19922-.07422-.19922s.01563-.05469-.03906-.12109c-.04688-.0625-.10547-.19141-.11328-.29688-.01563-.10156-.05469-.41406-.08594-.70313-.03516-.28906-.10547-.58203-.16016-.67188-.06641-.07813-.08984-.19141-.06641-.25391.02344-.06641-.05469-.27344-.16797-.47266-.23828-.40234-.95703-.92188-1.28516-.92188-.25,0-.57813-.15234-.63281-.28516-.05859-.15234.50391-.82422.74219-.89063.11328-.02344.28125-.09375.36719-.15234.08984-.0625.21875-.10938.29688-.10938.07422,0,.16016-.07422.18359-.16016.02344-.08984.08203-.16016.11328-.16016.03906,0,.11328-.11328.16797-.24219.05469-.13672.13672-.23828.17578-.23828s.03125-.06641-.00781-.15234c-.04688-.08203-.0625-.16797-.03906-.19141s-.01563-.13672-.08984-.25c-.07813-.10938-.10938-.20703-.07813-.20703s.01563-.05469-.03906-.11328c-.12109-.15234-1.35547-.15234-1.77734,0ZM20.99547,5.24035c.07031.0625.12891.14453.12891.16016,0,.16797-.37891.70313-.73047,1.03906-.23828.23438-.51172.50391-.60547.625-.25.30469-.32031.28906-.89844-.19922-.23047-.20703-.66406-.16797-1.20703.10156-.28906.14453-.57031.32813-.625.41016-.05469.07031-.29688.23047-.51953.34375-.42578.21484-.55859.32031-1.07813.86328-.16016.17578-.37109.39063-.46484.48047-.08984.09766-.19141.26563-.22656.38281-.02344.12891-.07813.22656-.11719.22656-.04297,0-.17578.16797-.29688.375-.12109.21484-.27344.42969-.32813.48828-.05469.05469-.10547.13672-.10547.17578s-.14453.22266-.32031.41406c-.16797.19531-.375.41797-.44531.49609-.07422.08984-.21094.33594-.28906.5625-.08984.22266-.22266.48047-.29688.56641-.17578.19141-.72656,1.13672-.72656,1.24219,0,.03906-.05469.125-.12891.19141-.09375.10156-.16016.10938-.29688.03125-.23047-.12109-.45313-.375-.45313-.51953s-.22656-.57813-.37109-.73047c-.0625-.05469-.10938-.14063-.10938-.18359,0-.03906-.14453-.14453-.32031-.23047-.17578-.08984-.32031-.19141-.32031-.23047,0-.04297-.19141-.16797-.43359-.28906-.30469-.15234-.46484-.29688-.53516-.46484-.05469-.12891-.18359-.32031-.28906-.42578-.10156-.10156-.18359-.26953-.18359-.38281,0-.23828.42578-.6875.78516-.83984.13672-.05469.25391-.13672.25391-.17578s.19531-.17578.43359-.29688c.83203-.42188,1.20703-.64844,1.44922-.85547.13672-.12109.35156-.26953.48047-.33594.13281-.07031.25391-.15234.27734-.18359.10547-.14453,1.15234-.53516,1.61719-.60156.12891-.01563.47266-.17578.77734-.35156.30078-.18359.63672-.32813.74219-.32031.30469.00781.76172-.07031.92188-.14844.07813-.05078.26953-.08203.42969-.07422.38672.00781,1.72266-.51172,2.43359-.94531.17578-.10938.36719-.18359.42188-.16016.05078.01953.09766.00781.09766-.03125,0-.08594.36719-.23047.67969-.26953.50391-.06641.67188-.05078.79297.07031Z"/>

</g>
</svg>
