<?xml version="1.0" encoding="UTF-8"?>
<svg xmlns="http://www.w3.org/2000/svg"
     version="1.1"
     width="34.28138137mm"
     height="30.81944128mm"
     viewBox="0.00000000 0.00000000 97.17555593 87.36222813">

<g transform="scale(5.63365949)">   <defs>
      <style type="text/css"><![CDATA[
      .b {
        stroke: #000;
        stroke-linecap: round;
        stroke-linejoin: round;
        stroke-width: .25px;
      }
    ]]></style>
   </defs>
   <path class="b"
         d="M.12974,9.13383c.11824,3.16614,2.77638,6.18241,5.94406,6.24717.75099.01535,1.49602-.12091,2.23353-.26337,1.75134-.3383,3.55819-.74245,4.98033-1.8191,1.22922-.93059,2.06278-2.28612,2.75448-3.66399.71916-1.43258,1.32933-3.04418.98135-4.60891-.45234-2.03404-2.39295-3.39316-4.33985-4.13579C10.77302.16103,8.63082-.16672,6.6802.44708c-.177.0557-.35952.12402-.48277.26274-.23624.26591-.16084.70419.06928.97541s.57214.41592.90105.55132c-.12341.30216-.49268.47898-.80545.38566.34508.1149.36158.64646.10825.90743s-.6435.32112-1.00429.36717c.84044.61689,1.95561.84364,2.97022.60393.16258-.03841.32902-.09182.44925-.20781.25078-.24192.20286-.67817-.00939-.95452s-.54193-.43156-.8587-.57673c1.29897.59529,3.27245-.63783,4.70574.31217,1.02601.68005,1.77602,2.42461.74407,3.39383-.59852.56214-1.48703.69919-2.30579.63692-1.6116-.12255-.22592-4.08049,2.03169-3.52459,3.08972.76079,1.95109,4.83257.90436,6.79867-.11401.21414-.24515.43371-.45504.55537-.22461.13019-.4996.12588-.7591.11788-1.46359-.04513-2.92719-.09026-4.39078-.13539-.19355-.00597-.39767-.01504-.56111-.1189-.51205-.32539-.18227-1.14858-.4272-1.70363-.16393-.37149-.62552-.5816-1.01332-.46123s-.64932.5549-.5741.95392c.06585.34933.35169.6574.30386,1.00965-.06155.45332-.61624.64396-1.07359.65479s-.97177-.04194-1.31505.26045c-.24538.21616-.3494.57868-.63538.73727-.53544.29692-1.10273-.33399-1.37235-.88369-.14351-.29259-.27972-.64503-.12239-.93042.13459-.24414.43057-.33809.69419-.42874.52484-.18049,1.04442-.44469,1.38053-.88635s.44181-1.09387.13083-1.55357c-.50621-.74831-1.93731-.91676-1.82888-1.81368.0294-.24319.18584-.45015.34473-.6366.95301-1.11827,2.20927-1.97555,3.598-2.45532.23017-.07952.47771-.15804.63126-.34703.89572-1.10246-1.08026-1.13754-1.5839-.96642-.82934.28177-1.72423,1.14014-2.33253,1.73216C1.12002,4.65232.04436,6.84744.12974,9.13383Z"/>

</g>
</svg>
