<?xml version="1.0" encoding="UTF-8"?>
<svg xmlns="http://www.w3.org/2000/svg"
     version="1.1"
     width="25.56779422mm"
     height="23.62490729mm"
     viewBox="0.00000000 0.00000000 72.47560267 66.96825723">

<g transform="scale(4.86841469)">   <defs>
      <style type="text/css"><![CDATA[
      .b {
        stroke: #000;
        stroke-miterlimit: 10;
        stroke-width: .15px;
      }
    ]]></style>
   </defs>
   <path class="b"
         d="M6.94026.36991c-1.20184.80432-4.27185,3.0976-5.36169,4.43619-.73291.90015-1.03253,1.52042-1.21277,2.04254-.13049.37799-.31909.94162-.28723,1.6915.03796.89453.36792,1.54169.57446,1.94681.34534.6774.74658,1.12222.92554,1.3085.40063.41705.7677.66275,1.117.89362.3999.26431.80902.53473,1.37238.73404.4693.16605,1.0575.1958,2.23401.25534.00012,0,.58527.02963,1.78723-.12766.13324-.01743.40106-.05591.63831-.25534.13025-.1095.20905-.23199.25531-.31915.12463-.08469.31995-.20636.57446-.31915.25159-.11151.45062-.16537,1.18085-.31912,1.0863-.2287,1.20502-.22717,1.37238-.383.07458-.06943.23315-.23932.51062-.41489.14008-.08865.21783-.12009.28723-.15958.32336-.1839.42926-.52094.60638-.92554.44922-1.02594.68134-.94409.67023-1.34042-.01373-.48822-.3667-.63702-.28723-1.117.03918-.23691.14703-.33258.31915-.60638.38794-.61707.53455-1.23532.57446-1.5.08154-.54013-.08398-.94522-.41492-1.75534-.3634-.88956-.47058-.6853-1.24469-2.13828-.13751-.25806-.39142-.74741-.89362-1.21277-.36414-.3374-.58002-.40387-.76593-.383-.23962.02692-.54462.21188-.54254.44681.00122.13705.10645.24164.15955.28723-.14203.07227-.36176.17819-.63831.28723-.45349.1788-.65216.20523-1.08508.35107-.52576.17712-.81079.27316-1.117.47873-.47418.3183-.72418.7146-.89362.98935-.42041.68185-.53986,1.35593-.57446,1.78723.14825.19058.35504.47202.57446.8298.54651.89111,1.0824,2.11066.89362,2.23404-.16998.11108-.8739-.70139-.95746-.79788-.48651-.56161-.76599-1.11685-.92554-1.5.47302-.54468.84167-.94952,1.08508-1.21277.28717-.31058.4942-.52588.60638-.89362.07245-.23749.06946-.42093.06384-.76596-.01044-.64157-.13892-.73056-.12762-1.3085.00653-.3334.05054-.36746.03186-.6702-.01978-.32086-.04364-.70782-.25531-.8298-.23602-.13605-.61346.11057-.82977.25531Z"/>

</g>
</svg>
