<?xml version="1.0" encoding="UTF-8"?>
<svg xmlns="http://www.w3.org/2000/svg"
     version="1.1"
     width="46.08229227mm"
     height="24.30258463mm"
     viewBox="0.00000000 0.00000000 130.62696319 68.88928074">

<g transform="scale(5.24899505)">   <defs>
      <style type="text/css"><![CDATA[
      .b {
        stroke: #000;
        stroke-linecap: round;
        stroke-linejoin: round;
        stroke-width: .01px;
      }
    ]]></style>
   </defs>
   <path class="b"
         d="m23.12964.10658c-.14453.0625-.40234.12109-.57813.12891-.78906.05469-1.16016.26172-1.78125,1.03906-.08984.10938-.19141.12891-.5625.08594-.39063-.04688-.51953-.02344-.91797.16016-.25781.12109-.51953.29688-.58594.41016-.07031.10156-.19141.20703-.27734.23047-.08203.03125-.21094.15234-.28906.28906-.08203.12891-.19922.25391-.28125.28125-.07813.02344-.14453.10156-.14453.18359,0,.07813-.10938.27734-.23828.44531-.13672.16797-.26563.40234-.28906.51172-.02344.11328-.12109.37891-.20703.58594-.10547.23047-.14453.42188-.10547.51953.03125.08203.07422.34375.08203.59375.01563.24609.08594.56641.16016.70313.07031.14453.10156.32031.07813.39844-.02344.08203.00781.27344.08203.43359.26172.63281.08594,1.30469-.41797,1.57422-.38281.21094-.83203.51953-.96094.65625-.58203.64062-.65625.70312-.77344.65625-.07422-.02344-.24219-.00781-.36719.04688-.13672.05859-.33594.09766-.44922.09766s-.39063.07031-.625.16016c-.22266.08594-.51172.18359-.64844.22266-.12891.04297-.36719.10547-.51953.15234-.51953.16016-1.23047.03906-1.32031-.23047-.05469-.16797-.67188-.5625-.87891-.5625-.08203,0-.32813-.19141-.56641-.41406-.50781-.49609-.5625-.55859-.74609-.75391-.07813-.08594-.22266-.20703-.32813-.26953-.09375-.06641-.26172-.18359-.35938-.26563-.10547-.07031-.25781-.13672-.34375-.13672-.27344,0-.41016-.08594-.57813-.36719-.11719-.18359-.26172-.29688-.46875-.35156-.20313-.04688-.33594-.15234-.39453-.28125-.04688-.10938-.14453-.19922-.20703-.19922-.69531,0-.95313-1.0625-.44141-1.83203.19141-.28516.23438-.42188.20313-.63281-.03516-.21484.00781-.30078.20703-.51172.21484-.22266.23047-.27734.18359-.61328-.09766-.70703-.13672-.89063-.19922-.89063-.04297,0-.12109-.05469-.19141-.11719-.06641-.07422-.28125-.15234-.48047-.19531-.60156-.10938-1.39453-.49219-1.48828-.72656-.10547-.25391-.57031-.55859-.84766-.55859-.3125,0-.91406.32031-1.03516.55859-.16016.29688-.50391.64063-.64453.64063-.16016,0-.75391.30469-.75391.39063,0,.03125-.08594.10547-.19922.15234-.11328.05078-.19922.15234-.19922.21875,0,.07031-.08984.20703-.18359.30078-.28125.26563-.32031.51953-.12109.86719.16016.29297.46484.45313.64063.34375.21484-.13672.64844-.17578.88672-.07422.15234.05469.51172.09766.89453.08984.625-.02344.83984.02344,1.08203.23828.51172.44922.49609.41016.34375.69531-.07422.13672-.17578.37109-.22266.49609-.08984.25-.25781.45703-.75391.96094-.38281.38281-.63281.82422-.58203,1.04688.02344.12109.19141.29688.46094.47266.24219.16016.49609.38281.57813.50391.17578.27344.48047.54297.73437.65625.11328.04688.26563.19141.33594.32031.16797.28906.72266.55078,1.33594.64844.24219.03125.52734.12891.64063.20703.11328.08984.35938.19141.53516.25.18359.05469.41797.18359.51953.28516.24219.23438,1.06641.69141,1.26563.69141.18359,0,1.04688.86328,1.04688,1.04688,0,.46484.92969.46484,1.35938,0,.14453-.14453.32031-.25.44141-.25.10547,0,.51172-.16797.89453-.375.40234-.20703.84375-.38281,1.02734-.39844.41406-.03516.67188-.07422.91797-.13672.11328-.02344.3125-.06641.44141-.08984.35156-.07031.38281-.07813.57422-.18359.09766-.05469.28125-.09375.41797-.09375.125,0,.24609-.03516.26172-.07422.05078-.13672,1.30469-.67969,1.54688-.65625.125.00781.32813-.02344.4375-.0625.11328-.03906.33594-.09766.50391-.12891.25781-.03906.32031-.09375.49609-.42969.26563-.53906.66406-1.13672.87891-1.32812.37109-.34766.73047-1.98438.50781-2.37891-.13672-.25391-.14453-2.07813,0-2.49609.21484-.64844.35156-.82422.60547-.77344.03125.00781.23438-.11328.43359-.27344s.46484-.30469.57422-.33594c.26563-.0625.80078-.32813.97656-.48828.15234-.12891.38281-.17578.94531-.18359.40625-.01563.67188-.23047.75781-.64063.05859-.26172-.16797-.67969-.47266-.87891-.22266-.14453-.94922-.14453-1.26953-.00781Z"/>

</g>
</svg>
