<?xml version="1.0" encoding="UTF-8"?>
<svg xmlns="http://www.w3.org/2000/svg"
     version="1.1"
     width="40.61339252mm"
     height="47.31882441mm"
     viewBox="0.00000000 0.00000000 115.12454035 134.13204258">

<g transform="scale(4.21706711)">   <defs>
      <style type="text/css"><![CDATA[
      .b {
        stroke: #000;
        stroke-linecap: round;
        stroke-linejoin: round;
        stroke-width: .25px;
      }
    ]]></style>
   </defs>
   <path class="b"
         d="M7.67294,1.42745c-.07428-.57211-.31729-1.29323-.89413-1.30237-.30992-.00491-.57107.21736-.79973.42662-.9386.85898-1.87719,1.71795-2.81579,2.57693-.30327.27754-.61463.56607-.78283.94118-.34486.76912-.00437,1.64967.21414,2.46375.38838,1.44695.37617,2.96703.36132,4.46512-.03356,3.38584-.06712,6.77168-.10068,10.15753-.00313.31576-.01115.6493-.17684.91811-.30018.487-1.09267.91768-.75875,1.3822.16359.22758.49844.22018.77702.18943,1.38861-.15327,2.95164-.40576,3.74673-1.55448.3656-.52821.5086-1.17471.63752-1.80403.37075-1.80979.68927-3.63029.95503-5.45845-.73351-.30185-1.28704.7974-2.05945.97775-.65999.1541-1.31848-.49854-1.32495-1.17625-.01314-1.37615,1.2751-1.4839,2.19799-1.92525,1.08801-.52032,1.1054-.88263,1.18541-2.13278.19443-3.03835.02957-6.12895-.362-9.14499v-.00002Z"/>
   <path class="b"
         d="M7.2177,23.92761c-.47807-.11354-.98322-.22659-1.45356-.0844-.33057.09994-.61074.31701-.91416.48193-.77273.42002-1.69649.5011-2.46119.93557-1.61857.91959-2.01137,3.03618-2.23415,4.88436-.06389.53008-.06317,1.19354.40774,1.44516.22615.12084.49987.10203.75248.058,1.16294-.20273,2.23282-.89345,2.89627-1.86986,1.75151,1.27443,3.98837,1.7387,6.15414,1.70124s4.29338-.53967,6.40108-1.03926c3.66948-.86979,7.47392-1.80399,10.40832-4.17273-.50158-.41042-1.00316-.82084-1.50475-1.23126-.10843-.08872-.22554-.1812-.36491-.19552-.10561-.01085-.20977.02505-.31016.05959-6.17664,2.12519-11.7068.46879-17.77714-.97282h-.00001Z"/>

</g>
</svg>
