<?xml version="1.0" encoding="UTF-8"?>
<svg xmlns="http://www.w3.org/2000/svg"
     version="1.1"
     width="60.86441283mm"
     height="54.73918553mm"
     viewBox="0.00000000 0.00000000 172.52905780 155.16621759">

<g transform="scale(4.00475145)">   <defs>
      <style type="text/css"><![CDATA[
      .b {
        stroke: #000;
        stroke-linecap: round;
        stroke-linejoin: round;
        stroke-width: .25px;
      }
    ]]></style>
   </defs>
   <path class="b"
         d="M20.52937,2.48856c-.1662-.51217-.3874-1.02486-.77561-1.39801s-.97662-.57876-1.48081-.3897c-.61872.23201-.91126.96752-.89109,1.628s.27436,1.28818.41976,1.93278c.37796,1.67554.01545,3.41634-.05587,5.1325-.06912,1.66341.13773,3.32608.14354,4.99092.01063,3.04801-.65136,6.10829-.21949,9.12557.18322,1.28009.56095,2.52665.73602,3.80788.16408,1.20079.14835,2.41801.1323,3.62985-.03066,2.31584-.06132,4.63167-.09198,6.94751-.0023.17373-.00091.36019.09823.50288.17392.2503.54105.23916.84347.20118.50029-.06283,1.00057-.12566,1.50086-.18849.20516-.02577.42636-.05905.57294-.20489.15678-.15599.18426-.39652.19752-.61729.07132-1.18752-.01241-2.37836-.10189-3.56466-.65004-8.6186-1.21948-17.04461-.72228-25.68477.11303-1.96426.31252-3.94632-.30565-5.85127l.00003.00002Z"/>
   <path class="b"
         d="M3.58063,22.96061c-.65999.8839-1.29659,1.80867-1.64019,2.85691s-.36322,2.24842.17748,3.20993c.22215.39505.65956.77568,1.08274.61341.3191-.12237.45955-.4935.72136-.71318.38322-.32155.96057-.27315,1.39551-.5203.37225-.21152.59195-.60901.79603-.98539,2.87976-5.31124,6.56238-10.50744,11.93496-13.27106.36282-.18663.75827-.38722.93256-.75613.20641-.43688.01237-.98657-.35383-1.30179-2.3665-2.03709-6.07695,1.76188-7.70019,3.11653-2.73929,2.28603-5.21172,4.89212-7.34643,7.75107Z"/>
   <path class="b"
         d="M.26566,32.33962c.3268,1.04607.52218,1.66347,1.13409,2.57266.13673.20315.86016.57383,1.07194.69676.20418.11852,1.12554.02074,1.12554.02074.63629.05721,1.61945-.16877,2.19745-.4409.38359-.1806.76442-.3603,1.14251-.53909.5171-.24454,1.03421-.48907,1.55131-.73361.18121-.0857.3678-.17536.49998-.32606.12346-.14076.18845-.32263.24014-.50258.18314-.63752.23282-1.31304.14491-1.97049-.02481-.18555-.06719-.38265-.20273-.51177-.23513-.224-.61384-.13895-.92749-.05477-.63464.17033-1.3098.27607-1.94577.11076s-1.22238-.65616-1.33225-1.30401c-.06194-.36525.02845-.74102-.01122-1.10935s-.28921-.77028-.65966-.76816c-.22234.00128-.4134.14681-.59928.26883-.85014.55803-2.53942.15499-3.08698.73779-.58281.62032-.55854,3.16169-.3425,3.85324h.00001Z"/>
   <path class="b"
         d="M12.49436,28.48064c-1.35473,1.06212-2.61853,1.13098-3.44232,1.78213s-1.48452,1.66656-1.30219,2.70066c.04275.24248.13902.48833.33149.64189.29532.23561.71948.19056,1.08983.11593,3.60978-.72744,6.73153-3.11391,8.95341-6.05039.47834-.63219.93921-1.34984.92101-2.14239-.09545-4.15762-5.70522,2.2889-6.55123,2.95217Z"/>
   <path class="b"
         d="M23.54567,2.0019c-.77051.42864-1.59763,1.11043-1.49938,1.98665.08307.74085.84994,1.2546,1.59388,1.30277s1.63261-.71902,2.30707-1.03661,2.04269-.70929,2.78705-.75036c.12565-.00693.29882.62659.32158.75036.08426.45815-.00951.88207-.16079,1.12554-.48815.78563-1.35829,1.21766-2.22161,1.70647s-1.83781.73606-2.78256,1.03892c-2.79623.89638-5.42114,2.32399-7.69323,4.18409.22714.90224.79192,1.97103,1.71881,1.89043.36915-.0321.69024-.25273,1.00454-.44898,3.08605-1.92701,7.02538-2.02244,10.18221-3.83116,2.13181-1.22143,3.8105-3.21429,4.65199-5.52262.26825-.73584.45337-1.54832.22248-2.29672-.24505.84708-.62606,1.65467-1.124,2.38243.33952-1.13588.02865-2.44256-.78601-3.30386-2.11623-2.23737-6.31708-.40399-8.52204.82265h.00001Z"/>
   <path class="b"
         d="M20.23238,18.25956c-.27068,1.25649-.49464,2.52305-.67126,3.79617-.06912.49823-.13041,1.01043-.01416,1.49981.12133.51075.42858.95921.78144,1.3479,1.57811,1.73839,3.99616,2.38729,6.2743,2.95516,2.16398.53942,4.41161,1.08197,6.60168.66083.59013-.11348,1.19866-.29611,1.77978-.14305s1.07538.8232.78867,1.35134c-.07249.13353-.19167.2651-.16172.41405.02458.12227.14196.20071.25253.25841,1.08425.56585,2.43158.42168,3.53921-.09692s2.02108-1.36904,2.89234-2.22735c.37323-.36768.77413-.84949.63131-1.35356-.15935-.5624-.8628-.72733-1.44359-.79346-3.86738-.44038-7.19264-.48883-10.97992-1.41744-1.88427-.46201-4.34144-1.40641-6.11242-2.20762-1.68069-.76037-2.92377-2.69652-4.15819-4.04428v.00002Z"/>

</g>
</svg>
