<?xml version="1.0" encoding="UTF-8"?>
<svg xmlns="http://www.w3.org/2000/svg"
     version="1.1"
     width="44.37987897mm"
     height="21.26176388mm"
     viewBox="0.00000000 0.00000000 125.80123872 60.26964755">

<g transform="scale(5.22562553)">   <defs>
      <style type="text/css"><![CDATA[
      .b {
        stroke: #000;
        stroke-linecap: round;
        stroke-linejoin: round;
        stroke-width: .25px;
      }
    ]]></style>
   </defs>
   <path class="b"
         d="M5.10838.17341c-.88749-.27509-2.89725.68094-3.50096,1.38723C.50938,2.84527-.08218,3.62696.19136,5.1134c.27354,1.48644.90819,2.89774,2.40266,3.1233.68913.10402,2.00416-.13121,2.68981-.25611.77544-.14126,1.72195-.4972,1.76608-1.28416.01634-.2915-.10792-.58108-.06812-.87032s.39565-.56088.61132-.36408c.08344.07614.11098.19425.13433.30476.11853.56107-.45186,1.55954.3556,1.68322.92693.09307.58012-1.03405,1.79164-1.4785-.09683.41368-.19365.82735-.29048,1.24103,2.67982-.52387,5.24274-.57617,7.92257-1.10004.56114-.1097,1.44956-.57049,1.5994-.01871.09204.33893-.13517.67851-.16644,1.02832-.03428.38353.16712.74231.31203,1.09906.41166,1.0135.37777,2.19899-.09114,3.18731,1.06321-.00599,1.9398-.3513,2.53721-1.1483.64415-.85937,1.05713-1.89034,1.1844-2.95675.03658-.30653.05038-.6176.12904-.91611.09765-.37059.29124-.7072.46848-1.04699.38219-.73269.6898-1.64617.26143-2.35286-.57692-.95177-1.97143-.81807-3.06227-.59727-4.53497.91792-9.19062,1.23777-13.80903.94863-1.97378-.12402.07703-2.59555-1.7615-3.16543h0Z"/>

</g>
</svg>
