<?xml version="1.0" encoding="UTF-8"?>
<svg xmlns="http://www.w3.org/2000/svg"
     version="1.1"
     width="43.58725162mm"
     height="50.85330642mm"
     viewBox="0.00000000 0.00000000 123.55435946 144.15105561">

<g transform="scale(4.56138284)">   <defs>
      <style type="text/css"><![CDATA[
      .b {
        fill: #000;
        stroke: #000;
        stroke-linecap: round;
        stroke-linejoin: round;
        stroke-width: .01px;
      }
    ]]></style>
   </defs>
   <path class="b"
         d="M20.02404,7.4651h0c1.34743-1.21823,3.97814-3.39823.385-3.59058,1.86073-.76941,2.05323-3.33411,4.17063-3.84706.70579-.19235,2.11738.89765,2.37405,1.4747.44914,1.09-.385,2.18-.8983,2.8853-2.05324,2.69293-4.9406,4.03941-7.44298,6.15529-.5133.3847-2.11738.96178-1.66825,1.7953s1.73241-.3206,2.3099.3847c.44914.44883-.25665,2.5006-.51332,3.01353-.8983,1.47472-4.0423,1.09-5.71055.83352-3.529-.51293.06416-3.97528-2.88738-4.29588-.76995-.06413-2.3099.44883-3.01568.89765-.83413.51295-.96246,1.66707-1.79659,2.11588-1.0266-2.18,2.95154-3.91116,4.4273-4.42411,2.05324-.83352,4.23481-1.7953,4.81228,1.21823.57746-.89765,1.53992-1.21823,2.43822-1.79528,1.21911-.76942,1.98908-1.92354,3.01568-2.8212h0s0,.00001,0,.00001Z"/>
   <path class="b"
         d="M20.02404,7.4651h0c1.34743-1.21823,3.97814-3.39823.385-3.59058,1.86073-.76941,2.05323-3.33411,4.17063-3.84706.70579-.19235,2.11738.89765,2.37405,1.4747.44914,1.09-.385,2.18-.8983,2.8853-2.05324,2.69293-4.9406,4.03941-7.44298,6.15529-.5133.3847-2.11738.96178-1.66825,1.7953s1.73241-.3206,2.3099.3847c.44914.44883-.25665,2.5006-.51332,3.01353-.8983,1.47472-4.0423,1.09-5.71055.83352-3.529-.51293.06416-3.97528-2.88738-4.29588-.76995-.06413-2.3099.44883-3.01568.89765-.83413.51295-.96246,1.66707-1.79659,2.11588-1.0266-2.18,2.95154-3.91116,4.4273-4.42411,2.05324-.83352,4.23481-1.7953,4.81228,1.21823.57746-.89765,1.53992-1.21823,2.43822-1.79528,1.21911-.76942,1.98908-1.92354,3.01568-2.8212h0s0,.00001,0,.00001Z"/>
   <path class="b"
         d="M11.29779,14.71042h0c-2.37405,0-4.23479.7694-6.41636.83352-1.9249.12823-4.29895.76942-4.87643,2.8853,1.92492.89765,5.38976-1.15413,7.57131-.44883-1.15495,1.02588-2.24573,2.37235-3.27233,3.52646-1.15495,1.21825-2.1174,2.30825-.385,3.14178,1.15495.57706,3.65733.25648,4.68395-.64117,1.28327-1.15413.70581-3.71883-1.28327-3.20588-.38498-1.34648,1.09078-2.30823,1.73243-.96178.32081.89765-.06418,2.62883,0,3.5906.12833,2.69293.44914,5.25764.76995,7.95059,1.15495.3206,3.20819.3847,4.10646-.51295,1.02662-1.02588.25665-2.62883-.06416-4.03941-.76995-3.59058-.38498-7.95059-.57746-11.79764-.8983-.12824-2.05324,0-2.82319.3847,0,0,.83411-.7053.83411-.7053Z"/>
   <path class="b"
         d="M11.29779,14.71042h0c-2.37405,0-4.23479.7694-6.41636.83352-1.9249.12823-4.29895.76942-4.87643,2.8853,1.92492.89765,5.38976-1.15413,7.57131-.44883-1.15495,1.02588-2.24573,2.37235-3.27233,3.52646-1.15495,1.21825-2.1174,2.30825-.385,3.14178,1.15495.57706,3.65733.25648,4.68395-.64117,1.28327-1.15413.70581-3.71883-1.28327-3.20588-.38498-1.34648,1.09078-2.30823,1.73243-.96178.32081.89765-.06418,2.62883,0,3.5906.12833,2.69293.44914,5.25764.76995,7.95059,1.15495.3206,3.20819.3847,4.10646-.51295,1.02662-1.02588.25665-2.62883-.06416-4.03941-.76995-3.59058-.38498-7.95059-.57746-11.79764-.8983-.12824-2.05324,0-2.82319.3847"/>

</g>
</svg>
