<?xml version="1.0" encoding="UTF-8"?>
<svg xmlns="http://www.w3.org/2000/svg"
     version="1.1"
     width="9.03002147mm"
     height="24.08879526mm"
     viewBox="0.00000000 0.00000000 25.59695279 68.28321656">

<g transform="scale(3.87780914)">   <defs>
      <style type="text/css"><![CDATA[
      .b {
        stroke: #000;
        stroke-miterlimit: 10;
        stroke-width: .15px;
      }
    ]]></style>
   </defs>
   <path class="b"
         d="M.24523,1.83178c-.16333.44458-.16772.79883-.17017,1.48926-.00293.84619.1001,1.45068.17017,1.91479.15869,1.05029.21533,1.81934.29785,2.93628.08203,1.11157.10229,2.11523.12769,3.36157.01831.89893.01636,1.41357.12769,2.21289.10693.76855.17407,1.24927.42554,1.82983.09814.22632.85156,1.96509,1.91479,1.95728.25171-.00195.55078-.19971,1.14893-.5957.65845-.43579,1.07446-.71118,1.4043-1.19141.28662-.41724.39478-.82373.51074-1.48926.21631-1.24023.43848-2.5144.25513-4.46826-.10254-1.09399-.20264-1.01904-.29785-2.21265-.10596-1.32983.00513-1.58716-.12769-2.68091-.11328-.93286-1.30908-4.61597-2.08496-4.80859-.11157-.02783-.44336-.00415-1.10645.04272-.69141.04907-1.03711.07349-1.19141.12769C.70104.59057.30333,1.67358.24523,1.83178Z"/>

</g>
</svg>
