<?xml version="1.0" encoding="UTF-8"?>
<svg xmlns="http://www.w3.org/2000/svg"
     version="1.1"
     width="73.28914865mm"
     height="49.86553182mm"
     viewBox="0.00000000 0.00000000 207.74874816 141.35111577">

<g transform="scale(3.51934769)">   <defs>
      <style type="text/css"><![CDATA[
      .b {
        fill: #000;
        stroke: #000;
        stroke-linecap: round;
        stroke-linejoin: round;
        stroke-width: .01px;
      }
    ]]></style>
   </defs>
   <path class="b"
         d="M50.29622,3.96557h0c.30454.24373.54817.48745.8527.60932.7918.42652,1.6445.48745,2.4363.73118,1.58359.54839,2.92356,1.5233,3.71536,3.04658.48726,1.03584,1.09634,1.64515,1.27906,2.74193.06091.48745.54817,1.09677.42635,1.58422-.12182.54839-.54817.48745-.85271.91398-.24363.42652-.18271.91398-.48725,1.3405-.36545.54839-.97453.91398-1.40088,1.27957-.66998.73118-1.27906,2.37634-2.31449,2.62007-1.15724.30466-.8527-1.58423-1.09634-2.37634-.42635-1.27956-.48726-2.86379-.97452-4.08243-.54817-1.21864-1.94904-1.64516-2.74084-2.62006-1.03542-1.21864-1.58359-1.3405-3.28901-1.5233-.54817-.06093-1.76632-.36559-2.25358-.18279-1.52269.60932.18272,2.55913-.54817,3.6559-.48726.73118-1.46178,1.1577-2.13177,1.70609-1.52269,1.46236-3.47173,2.55913-5.35987,3.53404-1.6445.85304-3.41082.60932-5.23805.91398-2.25358.36559-4.62897.85304-6.76074,1.3405-2.3754.48745-4.32444.48745-6.63893,1.64515-1.5836.79211-2.98447,1.94981-4.56807,2.74192-1.33997.60932-2.74084,1.1577-4.0808,1.76702-.91361.48745-2.92356,1.21864-2.19268,2.4982.73089,1.21864,3.47173,1.82795,4.8117,1.70609,2.61902-.36559,4.93351-1.52329,7.67435-.79211,2.92356.79211-2.13177,2.4982-2.92356,2.80286-3.47173,1.52329-6.82165,1.94981-10.53701,1.76702-1.33997-.06093-2.19267-.54838-3.16719-1.1577-.97452-.54838-2.31449-.85304-1.82723-2.13261.30454-.79211,1.09634-1.27956,1.5836-1.88888.66998-.79211,1.15724-1.70609,1.76632-2.43727,1.33997-1.52329,2.92356-2.86379,4.81169-3.59498,2.74084-1.03584,5.35987-2.07168,7.97889-3.22938,3.53264-1.52329,7.43073-2.98565,11.14608-3.77777,1.5836-.30466,3.10628-.24373,4.68988-.24373,1.33997-.06093,7.79617-.73118,6.09075-3.29031-.24363-.30466-.60907-.36559-.8527-.67025s-.24363-.85304-.54817-1.09677c-.91361-.85304-1.6445.36559-2.55812.9749-.79179.60932-2.61902,2.31541-3.77627,1.64516-.18272-.12187-.73089-.91398-.79179-1.21864-.18273-.91398.24363-.91398.91361-1.40143.79179-.67025,1.52269-1.1577,2.07086-1.94981.54817-.79211.42635-1.09677,1.70541-1.03584,2.00995.12187,3.65445-1.1577,5.23805-2.37634,2.67993-2.07168,7.06528-2.80286,10.11065-.97491.18273.12187.42635.30466.60908.48745h0v.00002Z"/>
   <path class="b"
         d="M50.29622,3.96557h0c.30454.24373.54817.48745.8527.60932.7918.42652,1.6445.48745,2.4363.73118,1.58359.54839,2.92356,1.5233,3.71536,3.04658.48726,1.03584,1.09634,1.64515,1.27906,2.74193.06091.48745.54817,1.09677.42635,1.58422-.12182.54839-.54817.48745-.85271.91398-.24363.42652-.18271.91398-.48725,1.3405-.36545.54839-.97453.91398-1.40088,1.27957-.66998.73118-1.27906,2.37634-2.31449,2.62007-1.15724.30466-.8527-1.58423-1.09634-2.37634-.42635-1.27956-.48726-2.86379-.97452-4.08243-.54817-1.21864-1.94904-1.64516-2.74084-2.62006-1.03542-1.21864-1.58359-1.3405-3.28901-1.5233-.54817-.06093-1.76632-.36559-2.25358-.18279-1.52269.60932.18272,2.55913-.54817,3.6559-.48726.73118-1.46178,1.1577-2.13177,1.70609-1.52269,1.46236-3.47173,2.55913-5.35987,3.53404-1.6445.85304-3.41082.60932-5.23805.91398-2.25358.36559-4.62897.85304-6.76074,1.3405-2.3754.48745-4.32444.48745-6.63893,1.64515-1.5836.79211-2.98447,1.94981-4.56807,2.74192-1.33997.60932-2.74084,1.1577-4.0808,1.76702-.91361.48745-2.92356,1.21864-2.19268,2.4982.73089,1.21864,3.47173,1.82795,4.8117,1.70609,2.61902-.36559,4.93351-1.52329,7.67435-.79211,2.92356.79211-2.13177,2.4982-2.92356,2.80286-3.47173,1.52329-6.82165,1.94981-10.53701,1.76702-1.33997-.06093-2.19267-.54838-3.16719-1.1577-.97452-.54838-2.31449-.85304-1.82723-2.13261.30454-.79211,1.09634-1.27956,1.5836-1.88888.66998-.79211,1.15724-1.70609,1.76632-2.43727,1.33997-1.52329,2.92356-2.86379,4.81169-3.59498,2.74084-1.03584,5.35987-2.07168,7.97889-3.22938,3.53264-1.52329,7.43073-2.98565,11.14608-3.77777,1.5836-.30466,3.10628-.24373,4.68988-.24373,1.33997-.06093,7.79617-.73118,6.09075-3.29031-.24363-.30466-.60907-.36559-.8527-.67025s-.24363-.85304-.54817-1.09677c-.91361-.85304-1.6445.36559-2.55812.9749-.79179.60932-2.61902,2.31541-3.77627,1.64516-.18272-.12187-.73089-.91398-.79179-1.21864-.18273-.91398.24363-.91398.91361-1.40143.79179-.67025,1.52269-1.1577,2.07086-1.94981.54817-.79211.42635-1.09677,1.70541-1.03584,2.00995.12187,3.65445-1.1577,5.23805-2.37634,2.67993-2.07168,7.06528-2.80286,10.11065-.97491.18273.12187.42635.30466.60908.48745h0v.00002Z"/>
   <path class="b"
         d="M31.47579.00501h0c.06091.85304.30454.79211-.18273,1.46236-.24363.36559-.8527.60932-1.15724.91398-.85271.91398-1.76632,1.76702-2.67993,2.62007-.7918.79211-1.6445,1.64516-2.61902,2.43727-.36545.24373-.97452.85304-1.52269,1.03584-.66998.24373-1.6445.06093-2.3754.24373,1.15725-.36559,1.88813-1.5233,2.67993-2.37634.30454-.30466.60907-.85304.91361-1.09677.42635-.24373.91361-.36559,1.33997-.60932,1.88813-1.21864,3.47173-2.74193,4.99442-4.32615L31.47579.005h0Z"/>
   <path class="b"
         d="M31.47579.00501h0c.06091.85304.30454.79211-.18273,1.46236-.24363.36559-.8527.60932-1.15724.91398-.85271.91398-1.76632,1.76702-2.67993,2.62007-.7918.79211-1.6445,1.64516-2.61902,2.43727-.36545.24373-.97452.85304-1.52269,1.03584-.66998.24373-1.6445.06093-2.3754.24373,1.15725-.36559,1.88813-1.5233,2.67993-2.37634.30454-.30466.60907-.85304.91361-1.09677.42635-.24373.91361-.36559,1.33997-.60932,1.88813-1.21864,3.47173-2.74193,4.99442-4.32615"/>
   <path class="b"
         d="M32.87666,2.44228h0c1.82722,1.03584-2.98447,3.59497-3.65446,4.38709-.66998.67025-1.5836,1.21864-2.25358,1.94981-.97452,1.09677-1.15724,2.55913-3.04538,1.58423.7918-.42652,1.52269-1.76702,2.19267-2.43727.66998-.67025,1.33997-1.3405,2.13177-1.94981.91361-.73118,1.94904-1.21864,2.92356-1.94981.48726-.42652,1.27906-1.88888,2.00995-1.64516,0,.18279.06091.42652,0,.60932l-.30454-.54839h0Z"/>
   <path class="b"
         d="M32.87666,2.44228h0c1.82722,1.03584-2.98447,3.59497-3.65446,4.38709-.66998.67025-1.5836,1.21864-2.25358,1.94981-.97452,1.09677-1.15724,2.55913-3.04538,1.58423.7918-.42652,1.52269-1.76702,2.19267-2.43727.66998-.67025,1.33997-1.3405,2.13177-1.94981.91361-.73118,1.94904-1.21864,2.92356-1.94981.48726-.42652,1.27906-1.88888,2.00995-1.64516,0,.18279.06091.42652,0,.60932"/>
   <path class="b"
         d="M30.68399,21.94043h0c-1.33997-.12186-2.98447.79211-3.95899,1.40143-.54817.36559-.73089.79211-1.15725,1.3405-.54817.73118-1.21815,1.27956-1.76632,1.94981-.66998.73118-3.65446,3.8387-3.2281,4.69175.60907,1.3405,5.6644.36559,6.82165,0,.97452-.36559,1.70541-1.1577,2.67993-1.52329.36545-.12187.66998.06093,1.09634-.18279.36545-.24373.48726-.79211.79179-1.1577-.66998-.06093-.91361-.60932-1.70541-.60932-.91361-.06093-2.31449.79211-3.2281.42652-.91361-.36559-.48726-1.58422-.12182-2.19354.36545-.60931,2.00995-1.52329,2.61902-.67025.54817.73118-.97452,1.76702-.7918,2.62006,1.40088.24373,2.3754.79211,3.77627.91398,1.46178.12186,2.74084-.91398,4.14171-1.21864,2.86265-.67025,6.33439-1.88889,8.22252-4.44802,2.80175,1.40143-1.40088,5.42292-2.49721,6.5197-1.27906,1.21864-2.67994,2.19354-4.14171,3.10752-2.92356,1.76702-5.54259,3.89963-8.16161,6.03224-.48726.36559-1.03543.67025-1.70541.73118-.24363.06093-.66998-.06093-.91361,0-.24363.06093-.48726.48746-.73089.48746,2.74084,0,5.29896-2.37634,7.43072-3.77777,1.21815-.79211,2.49721-1.52329,3.77627-2.43727,1.09634-.73118,1.94904-1.46236,2.80174-2.43727.42635-.42652.8527-.91398,1.33997-1.27956,1.15724-.91398,2.4363-1.46236,3.41082-2.62006.66998-.79211,1.52269-1.40143,2.19267-2.13261.73089-.79211,1.27906-2.07168,1.82723-3.10752.36545-.67025.8527-2.31541.42635-3.10752-.7918-1.52329-3.65446.97491-4.68988,1.58423-1.21815.73118-2.4363,1.76702-3.59355,2.62006-1.21815.91398-2.80175,2.37633-4.44626,2.13261-1.5836-.24373-2.61902-1.70609-3.59355-2.681-.42635-.36559-1.15725-1.21864-1.6445-1.40143-.54817-.12186-1.09634.36559-1.5836.42652h.30455Z"/>
   <path class="b"
         d="M30.68399,21.94043h0c-1.33997-.12186-2.98447.79211-3.95899,1.40143-.54817.36559-.73089.79211-1.15725,1.3405-.54817.73118-1.21815,1.27956-1.76632,1.94981-.66998.73118-3.65446,3.8387-3.2281,4.69175.60907,1.3405,5.6644.36559,6.82165,0,.97452-.36559,1.70541-1.1577,2.67993-1.52329.36545-.12187.66998.06093,1.09634-.18279.36545-.24373.48726-.79211.79179-1.1577-.66998-.06093-.91361-.60932-1.70541-.60932-.91361-.06093-2.31449.79211-3.2281.42652-.91361-.36559-.48726-1.58422-.12182-2.19354.36545-.60931,2.00995-1.52329,2.61902-.67025.54817.73118-.97452,1.76702-.7918,2.62006,1.40088.24373,2.3754.79211,3.77627.91398,1.46178.12186,2.74084-.91398,4.14171-1.21864,2.86265-.67025,6.33439-1.88889,8.22252-4.44802,2.80175,1.40143-1.40088,5.42292-2.49721,6.5197-1.27906,1.21864-2.67994,2.19354-4.14171,3.10752-2.92356,1.76702-5.54259,3.89963-8.16161,6.03224-.48726.36559-1.03543.67025-1.70541.73118-.24363.06093-.66998-.06093-.91361,0-.24363.06093-.48726.48746-.73089.48746,2.74084,0,5.29896-2.37634,7.43072-3.77777,1.21815-.79211,2.49721-1.52329,3.77627-2.43727,1.09634-.73118,1.94904-1.46236,2.80174-2.43727.42635-.42652.8527-.91398,1.33997-1.27956,1.15724-.91398,2.4363-1.46236,3.41082-2.62006.66998-.79211,1.52269-1.40143,2.19267-2.13261.73089-.79211,1.27906-2.07168,1.82723-3.10752.36545-.67025.8527-2.31541.42635-3.10752-.7918-1.52329-3.65446.97491-4.68988,1.58423-1.21815.73118-2.4363,1.76702-3.59355,2.62006-1.21815.91398-2.80175,2.37633-4.44626,2.13261-1.5836-.24373-2.61902-1.70609-3.59355-2.681-.42635-.36559-1.15725-1.21864-1.6445-1.40143-.54817-.12186-1.09634.36559-1.5836.42652"/>

</g>
</svg>
