<?xml version="1.0" encoding="UTF-8"?>
<svg xmlns="http://www.w3.org/2000/svg"
     version="1.1"
     width="52.70321775mm"
     height="51.50589687mm"
     viewBox="0.00000000 0.00000000 149.39495202 146.00102143">

<g transform="scale(4.30598027)">   <defs>
      <style type="text/css"><![CDATA[
      .b {
        stroke: #000;
        stroke-linecap: round;
        stroke-linejoin: round;
        stroke-width: .15px;
      }
    ]]></style>
   </defs>
   <path class="b"
         d="m10.77189,27.5319c.55734-.04557,1.10696-.18547,1.61792-.41277.43124-.19184.88283-.52203.90125-.99365.00952-.24357-.08985-.52984.08003-.70465.11301-.11628.32123-.07445.48334-.07107.32727-.1723.73978-.11702,1.06188.06477s.56733.47363.77771.77784c.50608.7318.8522,1.57363,1.00722,2.44977.06364.35969.08884.75561-.10479,1.06535-.11229.17962-.28631.30984-.43836.45732-.50038.48534-.77222,1.197-.72283,1.89233.00981.13811.03148.27795.00557.41396-.09248.48539-.71959.66108-1.20451.56622s-.94078-.35533-1.43485-.34787c-.87936.01327-1.52923.84673-2.37834,1.07577-.83003.2239-1.68989-.16028-2.46369-.53489-.55355-.26799-1.10994-.53762-1.6126-.89198-.86775-.61171-1.56224-1.46643-2.50198-1.96045-.32654-.17166-.67906-.29748-.98135-.50895s-.5574-.53654-.56065-.90544c-.00199-.22536.08611-.46858-.02371-.66539-.12933-.23176-.48769-.29967-.54428-.55897-.0355-.16267.07032-.31878.11097-.48026.10245-.40707-.24239-.73301-.48008-1.01314-.12779-.15061-.28049-.30799-.3535-.49535-.09565-.24545-.12942-.40259-.28556-.61531-.16042-.21854-.28823-.43816-.37828-.69564-.19768-.56526-.2237-1.17979-.23798-1.77294-.01119-.46492-.02238-.92985-.03358-1.39477-.00496-.20603-.00725-.42344.09346-.60325.0734-.13105.19417-.22798.28832-.34502.57803-.71857-.01964-1.798.18438-2.69736.0711-.31342.23939-.59523.41453-.8647.64431-.99134,1.41684-1.89925,2.29225-2.69395,2.47013-2.24239,5.69766-3.54143,8.08218-5.87464.45771-.44786.88689-.93579,1.42633-1.28087.27157-.17373.58564-.32715.72642-.61717.11257-.2319.08994-.50783.17874-.74983.08743-.23827.27464-.42389.45631-.60113,1.03037-1.0053,2.06364-2.0115,3.17984-2.92244.47276-.38582.96141-.75246,1.46792-1.09288.25617-.17217.51686-.33762.78216-.49538.07936-.04719.16501-.08876.2422-.13863.06671-.0431.1171-.10579.18343-.15212.06047-.04224.13294-.0712.20658-.06696.10012.00576.16004.06897.21176.14646.05976.08955.1264.16876.19783.25336.14483.17156.2891.34375.42411.52323.04183.05561.08594.11316.14828.14408.10033.04978.22021.01874.32697-.01508.27084-.08582.5488-.18574.83128-.15525s.57002.23984.57921.5238c.00405.12499-.04513.24555-.10354.35613-.53331,1.00957-1.75931,1.38242-2.71316,2.00997-1.19469.786-2.00094,2.02186-2.89743,3.13603-2.74115,3.40671-6.49267,5.82471-9.74265,8.74998-.68526.61679-1.36657,1.2816-1.73081,2.12857-.2933.68202-.35521,1.43317-.30539,2.16724.02894.4265.05232.85642.13442,1.27685.03374.17276.06376.42124.18451.5604.17676.20372.42525.21611.45575.55269.02378.26233-.03417.52876.00647.78901.03017.19316.11322.37346.19537.55086.35262.76148.70524,1.52296,1.05786,2.28444.11563.2497.23549.50547.43315.69692.19396.18787.38636.28428.64691.35522.33337.09077.63374.27911.96693.37056.42827.11754.73956.08721,1.18219.05102Z"/>
   <path class="b"
         d="m13.89322,23.12968c-.18163.32911-.36326.65823-.54489.98734-.17541.31783-.35659.67855-.25845,1.02806.21473.76477,1.48307.7366,1.78023,1.47326.09026.22375.06754.47422.07402.7154.03083,1.14744.76325,2.18435,1.68646,2.86644s2.02634,1.06778,3.11085,1.44383c.47974.16635.95948.33269,1.43921.49904.67114.23271,1.34919.46702,2.05522.54508.93507.10338,1.87605-.07145,2.80057-.24553.39527-.07443.79054-.14885,1.18581-.22328.18237-.03434.37294-.07235.51726-.18901.23575-.19055.30962-.56019.58962-.67632.31704-.13149.6592.15315,1.00212.13859.42592-.01809.68256-.46227,1.0199-.72291.29678-.2293.69462-.32252,1.06238-.24893.14905.02983.30238.08555.44879.04469.13822-.03858.23848-.15499.32925-.26613.4672-.57208.91459-1.16033,1.34114-1.76332.34909-.4935,1.00605-1.18749,1.08188-1.80925.05627-.4614-.35733-.58128-.70796-.69507-.50245-.16305-.93545-.50356-1.23029-.93952-.12246-.18108-.22651-.48781-.48768-.51446-.28851-.02944-.61084.33194-.8458.4612-1.9348,1.0644-4.13103,1.691-6.33886,1.64796-2.20783-.04304-4.42136-.77853-6.12072-2.1887-.34411-.28555-.67038-.59987-1.06233-.8151-.28314-.15549-.60228-.26081-.83875-.47873-.28529-.2629-.61913-.43894-.82486-.76785-.05592-.0894-.1037-.18493-.17356-.26392-.26636-.30117-.73792-.26504-1.13533-.20406-.13113.02012-.26846.0428-.37356.12377-.07639.05885-.12835.14312-.17786.22587-.17908.29936-.23525.50618-.4038.81159Z"/>
   <path class="b"
         d="m16.16975,8.0608c.15481.32419.4131.61611.43855.97446.02204.31038-.137.60144-.20745.90452-.10555.45408-.01036.92792.08484,1.38428.19812.94965.39623,1.8993.59435,2.84896.02706.12972.05745.26615.14672.36407.22108.24249.61845.10353.91069-.04571,2.08766-1.06614,4.30982-1.86858,6.597-2.38222.3364-.07555.70818-.14041,1.01028.02575.19587.10773.3315.29795.44606.48991.26222.43939.44963.99483.22277,1.45348-.18111.36616-.57502.56767-.94324.74458-.58099.27913-1.16198.55825-1.74296.83738-.3605.1732-.72268.34736-1.05194.57438-.26769.18456-.51126.40249-.78076.5844-.34856.23527-.73532.40693-1.11979.57732-1.14539.50763-2.29078,1.01527-3.43618,1.5229-.5727.25382-1.14539.50763-1.71809.76145-.2683.11891-.53259.24651-.80027.36668-.22538.10118-.50819.33343-.78028.24099-.30581-.10389-.41871-.51533-.6052-.74375-.27289-.33424-.54578-.66848-.81867-1.00272-.27416-.3358-.20972-.63466-.16201-1.04265.05722-.48935.08146-.98256.07315-1.47516-.01695-1.00493-.16955-2.00772-.4552-2.97145-.22855-.7711-.5449-1.56642-.38366-2.35435.10632-.51957.41083-.97339.70881-1.4121.7529-1.1085,1.53644-2.33326,2.63033-3.14099,1.61226-1.19049.78934,1.17677,1.14216,1.9156Z"/>
   <path class="b"
         d="m25.84826,3.73473c-.57147.56903-.61853,1.46348-.63015,2.26985-.01685,1.16915-.0337,2.33831-.05055,3.50746-.00406.28168-.00942.57036-.11149.83293-.13399.34472-.41771.60441-.65292.88983-.85021,1.03172-1.08174,2.43401-1.15194,3.76907-.01085.20643-.01825.41661.03392.61663.0898.34427.34603.62322.45848.96077.12715.38168.05917.79749-.01004,1.19379-.07432.4256-.14864.85121-.22301,1.27707-.05629.32237-.17654.66133-.25487.99088-.04347.18287-.1864.52602-.08189.70647.31734.54665,1.07012-.7255,1.23729-.88873.51498-.50285,1.02033-1.01612,1.49521-1.55736.15571-.17747.30908-.35879.4906-.50975.21593-.17957.46629-.31176.70833-.45417.8532-.50201,1.69601-1.29943,1.65191-2.28837-.01955-.43841-.21454-.84659-.34521-1.26554-.4193-1.34433-.17303-2.80648.2362-4.1539s.97914-2.65305,1.21729-4.04098c.13639-.79488.15229-1.62632-.03046-2.41533-.11265-.48635-.52708-1.8429-1.13579-1.94578-.51428-.08692-.70738.79835-.94219,1.13117-.48795.69165-1.33307.8008-1.90873,1.374Z"/>

</g>
</svg>
