<?xml version="1.0" encoding="UTF-8"?>
<svg xmlns="http://www.w3.org/2000/svg"
     version="1.1"
     width="58.72748050mm"
     height="8.55782065mm"
     viewBox="0.00000000 0.00000000 166.47155430 24.25841063">

<g transform="scale(3.87780914)">   <defs>
      <style type="text/css"><![CDATA[
      .b {
        stroke: #000;
        stroke-miterlimit: 10;
        stroke-width: .15px;
      }
    ]]></style>
   </defs>
   <path class="b"
         d="M.52208,2.38234c-.27441.28955-.45557.42212-.44678.63843.00757.18945.15527.31104.38281.5105.90723.79541.69409.73242,1.18091,1.08521.46655.33813.70972.5144,1.08521.63818.60474.19946,1.12964.12329,1.34033.09595,1.29761-.16895,2.62036.03052,3.92554-.06396,1.84692-.13379,1.61768.06421,7.24463.12769,3.93115.04443,3.51758-.05811,5.23413.03198,1.61377.08472,6.82935.1311,7.34033.0957.14185-.07104.34277-.18994.54272-.38306.34375-.33203.48438-.68945.57446-.92554.05713-.14966.20679-.57935.19141-1.14893-.00977-.36304-.01685-.62036-.19141-.82983-.23804-.28564-.64233-.30835-.82983-.31909-.38843-.02197-2.06226-.23779-2.64893-.15942-.55908.07471-2.20264-.00342-5.4895-.15967-1.0166-.04834-10.44873-.9646-10.81909-.95752-.46582.00903-4.11084-.29468-4.24463-.31909-.13525-.08325-.35303-.19678-.63818-.25537C3.47106-.07689,1.01061,1.8672.52208,2.38234Z"/>
   <path class="b"
         d="M31.73473,1.96754s-.40771,0-1.37231.0957c-1.08398.10767-1.56201.23193-1.94678.57446-.29688.2644-.36572.50488-.38306.57446-.05713.22876-.01001.41504.12769.82983.26025.78442.39038,1.17651.54272,1.34033.22632.24316.50635.36914,1.08496.51074,1.27832.31274,2.29785.28711,2.29785.28711,1.91113-.04785,9.41284-.15503,10.21289-.25513.13892-.01733.43066-.05298.54248-.25537.16284-.29443-1.2356-1.63135-1.75537-2.26587-.59595-.72754-.43481-1.302-1.02124-1.59595-.30078-.15063-.58472-.12085-.86157-.0957-.92285.0835-5.17554.2561-7.46826.25537Z"/>

</g>
</svg>
