<?xml version="1.0" encoding="UTF-8"?>
<svg xmlns="http://www.w3.org/2000/svg"
     version="1.1"
     width="48.30918098mm"
     height="51.39138077mm"
     viewBox="0.00000000 0.00000000 136.93945204 145.67635196">

<g transform="scale(5.41829972)">   <defs>
      <style type="text/css"><![CDATA[
      .b {
        stroke: #000;
        stroke-linecap: round;
        stroke-linejoin: round;
        stroke-width: .25px;
      }
    ]]></style>
   </defs>
   <path class="b"
         d="m20.20808,4.40847c.134-.16699.07101-.35602.457-.21802.11502,1.26801-.88699,2.46802-.674,3.51105,1.241-.76202,1.95399-2.03705,2.23701-3.41101.21899-1.06201.84898-3.16101-.20502-3.901-1.702-1.19501-3.604,1.96997-3.92999,3.30798-.39099,1.60101-.97101,3.30902-1.83099,4.71802-.42502-1.401-.27701-1.896-1.42302-2.84698-.98799-.81909-1.09599-.95502-1.16499-2.29303-.142-2.755-2.631-3.42999-4.95399-2.17603-1.55602.841-2.22801,2.73505-3.8,3.55902.905-.47498,2.96399-1.15698,4.017-.94202,1.61902.33099,2.67999,2.95398,2.92502,4.36401.39099,2.25-.75902,4.151-2.43503,5.46899-1.76398,1.388-4.12999.35803-5.827,1.61902-1.32199.98297-3.647,2.79199-3.465,4.56702,1.09799-.53204,2.30002-1.09503,3.39301-1.64105,1.23099-.61395,1.948-.65302,3.38101-.94696,1.18298-.24207,3.21399-1.03906,3.73898.61194.875,2.75006-2.34801,5.61902-1.13599,8.46808.595,1.39899,2.603-.37006,3.561-.59503,1.53699-.36298,3.22998-.05005,4.763-.34003,1.371-.25897,3.82797-.62799,4.44998-2.04395-1.47998-.23804-3.383-.396-4.90001-.21503-1.196.14294-2.202.57202-3.14699-.47198-.91501-1.01105-1.40799-2.90002-1.399-4.23499.01701-2.599,3.08299-2.03204,5.10899-2.24103.97-.09998,2.12801-.36401,2.966-.729.50301-.21997.951-.64801,1.543-.56799.43001.05798.53799.51001.87199.58698.93303.21704,1.246.12402,1.58801-.81696.858-2.36597-.823-2.80005-2.69701-2.48303-1.729.29401-4.979,2.52399-6.511,1.02399.114-.46893.38-.77795.70601-1.12701.728-.77795,1.534-1.44495,1.974-2.44196.453-1.02802.81702-2.24603.989-3.35803.05099-.33197.05-.69995.11299-1.02698.07901-.41498-.05099-.56305.12201-.383"/>
   <path class="b"
         d="m20.20808,4.40854c.13402-.16705.07101-.35608.457-.21808.11501,1.26801-.88699,2.46802-.674,3.51099,1.24098-.76196,1.95399-2.03699,2.23701-3.41095.21898-1.06207.84898-3.16101-.20502-3.901-1.70198-1.19507-3.60399,1.96997-3.931,3.30896-.39,1.59998-.96999,3.30804-1.83,4.71704-.42502-1.40106-.27701-1.89606-1.42299-2.84705-.98801-.81897-1.09601-.95398-1.16501-2.29303-.14198-2.75494-2.63199-3.42993-4.95399-2.1759-1.55602.841-2.22801,2.73492-3.8,3.55896.905-.47498,2.96399-1.15698,4.01701-.94196,1.619.33093,2.67999,2.95398,2.92499,4.36395.39099,2.25006-.75902,4.151-2.43501,5.46899-1.76399,1.38794-4.12997.35797-5.82698,1.62-1.32201.98199-3.64702,2.79102-3.46501,4.56604,1.097-.53204,2.3-1.09503,3.39299-1.64099,1.231-.61401,1.94803-.65308,3.38101-.94702,1.183-.24304,3.214-1.03906,3.739.612.875,2.75-2.34801,5.61896-1.136,8.46796.595,1.39899,2.60301-.36993,3.56102-.59497,1.53699-.36304,3.22998-.05005,4.763-.34003,1.371-.25891,3.82799-.62799,4.44998-2.04395-1.48-.23798-3.383-.396-4.90001-.21503-1.196.14301-2.202.57294-3.14699-.47198-.91501-1.01105-1.408-2.90002-1.399-4.23505.017-2.599,3.08299-2.03198,5.10899-2.24097.97-.09998,2.12801-.36395,2.96602-.72894.50299-.22009.95097-.64807,1.54298-.56812.43002.05804.53799.50909.87199.58704.93301.21704,1.246.12396,1.58801-.81702.858-2.36597-.82201-2.79999-2.69701-2.48297-1.72902.29401-4.979,2.52399-6.511,1.02399.114-.46893.38-.77899.70601-1.12695.728-.77802,1.534-1.44501,1.974-2.44202.453-1.02795.81702-2.24597.989-3.35803.05099-.33203.05002-.69995.11301-1.02692.07899-.4151-.05099-.56311.12199-.38312"/>

</g>
</svg>
