<?xml version="1.0" encoding="UTF-8"?>
<svg xmlns="http://www.w3.org/2000/svg"
     version="1.1"
     width="40.10947419mm"
     height="19.64039415mm"
     viewBox="0.00000000 0.00000000 113.69613647 55.67352600">

<g transform="scale(4.30598027)">   <defs>
      <style type="text/css"><![CDATA[
      .b {
        stroke: #000;
        stroke-linecap: round;
        stroke-linejoin: round;
        stroke-width: .15px;
      }
    ]]></style>
   </defs>
   <path class="b"
         d="m2.93988,12.30066c.14992.06777.31844.09738.50119.11759.35532.0393.7182.02702,1.06966.09827.71359.14466,1.30131.46434,2.04088.28424.74473-.18136,1.26595-.56089,2.07985-.4802.71221.07061,1.26532.34579,2.03418.14771,1.54979-.39927,2.45147-1.98228,3.79222-2.79531.62523-.37914,1.09233-.37438,1.78807-.48956.80208-.13278,1.4148-.67157,2.19773-.78971.67628-.10205,1.43948-.06889,2.11938-.07668,1.02429-.01174,1.34547.16394.90283-.82127-.23372-.52019-.23834-1.45612-.66762-1.82984-.37692-.32813-1.35402-.34825-1.84437-.33172-.71134.02398-1.07806.38762-1.80685.39234-.90935.00589-1.5076-.49372-2.39265-.54933-1.43237-.09001-2.82772.38351-4.1562.80033-.75656.23737-1.40454.53209-2.20374.5341-.84521.00212-1.01027-.35761-1.34224-1.05892-.66699-1.40902-.96985-3.18198-1.83794-4.39728-.2029-.28406-.30621-.62968-.50728-.58794-1.13444-.20967-1.9092,1.43843-2.65138,2.0406C1.25912,3.1543.11253,4.0098.07574,5.1772c-.03227,1.02393,1.00427,1.16688,1.41292,2.0024.18523.37873.40143.88331.14107,1.27694-.3404.51464-.8664.2613-.62922,1.11617.14859.53555.45719.99884.79785,1.43068.17321.21957.35411.43297.52659.65312.08679.11078.17231.22289.25236.33866.10293.14885.22491.24325.36256.30548Z"/>
   <path class="b"
         d="m19.54259,1.17394c-.74516-.1255-2.72017,1.2583-3.2869,1.78793,1.31096.53652,2.5253-.38534,3.74573-.38688-.0169-.47196-.55648-.62797-.45883-1.40105Z"/>
   <path class="b"
         d="m24.09532.075c.9739.31237,1.62916,1.37732,2.0038,2.31268.2922.72953.5049,3.11125-.65751,3.16986-.16604-.99106-.559-1.73985-.95354-2.6567-.21546-.5007-.6369-2.19037-.39275-2.82583Z"/>

</g>
</svg>
