<?xml version="1.0" encoding="UTF-8"?>
<svg xmlns="http://www.w3.org/2000/svg"
     version="1.1"
     width="37.30376933mm"
     height="46.48492946mm"
     viewBox="0.00000000 0.00000000 105.74292321 131.76830688">

<g transform="scale(4.07980845)">   <defs>
      <style type="text/css"><![CDATA[
      .b {
        stroke: #000;
        stroke-linecap: round;
        stroke-linejoin: round;
        stroke-width: .01px;
      }
    ]]></style>
   </defs>
   <path class="b"
         d="M23.84484.1176c-.11328.07813-.375.3125-.58203.51953-.21094.21484-.41797.38281-.45703.38281-.03125,0-.21484.14453-.40234.32031-.18359.17578-.36719.32031-.40625.32031-.11328,0-1.88672,1.80859-1.94531,1.98438-.03125.07813-.19922.22266-.38281.30469-.34375.15234-1.10547.83203-1.10547.98438,0,.04688-.16016.24609-.35938.45313-.19922.20313-.35938.39453-.35938.43359,0,.03125-.10547.17578-.23047.3125-.13672.14453-.26563.32813-.28906.41406-.03125.08203-.08984.15234-.12891.15234s-.07031.08984-.07031.19922c0,.24219-.28906.84375-.40234.84375-.10938,0-.46094.375-.51953.55859-.02344.08594-.07813.16016-.10938.16016-.03516,0-.17969.24609-.32813.55859-.15234.30469-.29688.5625-.32813.5625-.02734,0-.09766.10156-.15234.23828-.05859.12891-.12891.23828-.16797.23828-.03516,0-.08203.07422-.11328.16016-.02344.08984-.19141.30469-.36719.48828-.16797.17578-.3125.35938-.3125.40234,0,.03906-.12891.19922-.28125.35938-.16016.16016-.35938.44141-.44531.61719-.09766.17578-.25781.40625-.36328.51172-.10156.10156-.19141.22266-.19141.26172s-.17578.25781-.39844.48047c-.21484.22266-.40234.44141-.40234.48047,0,.03125-.10156.17578-.23828.32031-.12891.14453-.23828.28906-.23828.32813,0,.03125-.25781.32031-.5625.63281-.3125.3125-.55859.59766-.55859.64063,0,.03906-.19141.26953-.43359.51172-.23828.23828-.51172.58203-.60547.76563-.09766.19141-.26563.43359-.37109.53516-.10156.10547-.19141.22656-.19141.26563s-.25391.32813-.55859.64063c-.3125.3125-.55859.59766-.55859.64063,0,.03906-.17969.25391-.40234.48047-.21484.22266-.39844.4375-.39844.47656,0,.04297-.17578.25781-.40234.48047-.21484.22656-.39844.44922-.39844.48828s-.48828.5625-1.07422,1.15234c-.80469.80078-1.14063,1.19141-1.32422,1.5625-.17969.34375-.49609.73438-1.08203,1.32422-.46484.45703-.83984.875-.83984.91406,0,.04688-.16016.24609-.35938.44922-.33594.32813-.35938.38281-.35938.77344,0,.54688-.08203.65625-.44141.63281-.32813-.02344-.43359.05469-.67188.52734-.14453.28125-.16797.47266-.16797,1.29688v.96094l.44141.4375c.23828.24219.4375.46484.4375.51563,0,.10156.41016.51953.61719.62891.27344.14453.49609.11328.70313-.09375.16016-.16797.25-.19141.49609-.15234.16797.02344.36719.07813.44141.10938.34375.17969.61719.08203,1.0625-.36719.34375-.33594.44141-.48828.44141-.67969,0-.42188-.48828-.80078-1.03906-.80078-.47266,0-.60156-.09375-.75391-.56641-.15234-.46484-.07031-.82422.19922-.91016.08203-.02734.25781-.15234.40234-.28906.13672-.12891.27734-.23438.3125-.23438.03125,0,.17578-.10938.31641-.23828.14453-.13672.28906-.23828.32031-.23828.04297,0,.12109-.05078.1875-.11328.05469-.06641.33594-.22656.60547-.36719.28125-.13672.58594-.32813.67969-.42578.09766-.09375.33594-.23828.53516-.32813.70703-.28906,1.43359-.64063,1.43359-.6875,0-.07813.71094-.39844.88672-.39844.08984,0,.28906-.06641.45703-.15234.16016-.08203.39063-.16797.51172-.20313.12109-.02344.26563-.09375.32031-.15625.11328-.10547.57813-.37109.66406-.37109.08203,0,.76172.71484.76172.79297,0,.10547.38281.48828.48047.48828.14063,0,.48438.41406.53516.64844.02344.12891.07031.23047.10156.23047.03516,0,.10547.10547.15234.23438.06641.15234.22656.28516.49609.40625.21875.10547.39453.20703.39453.24219,0,.23047,1.26953.33594,1.48828.11719.07031-.0625.21484-.13672.33594-.16016.11719-.02344.42969-.10938.6875-.19922.32813-.10547.51953-.12891.61328-.07031.08203.03906.36328.07031.63281.07031.75391,0,.88672-.19141.99219-1.44141.04688-.48438-.30469-1.55078-.59766-1.83984-.12109-.10938-.28125-.35938-.35547-.54297-.07813-.18359-.16797-.33594-.19922-.33594-.03906,0-.08594-.07031-.12109-.16016-.02344-.08594-.19141-.30469-.35938-.48047s-.33594-.39063-.35938-.48047c-.03125-.08594-.07813-.16016-.11328-.16016-.03125,0-.10156-.09375-.14844-.20703-.15234-.32813.0625-.58984.46875-.58984.25,0,1.74609-.78516,1.99219-1.05078.12891-.125.27344-.23047.32031-.23047.05078,0,.21094-.12891.36719-.28125.15234-.15234.3125-.27734.34766-.27734.03906,0,.18359-.11328.32813-.24219.14063-.13672.27734-.23828.31641-.23828.16797,0,1.05859-.99219,1.28125-1.44141.14453-.28125.30469-.55859.36719-.61719.06641-.0625.11328-.14063.11328-.18359,0-.03906.12109-.19922.27344-.35156s.36719-.45703.48047-.67188c.23047-.45703.60547-1.53515.60547-1.73437,0-.07422.06641-.24219.13672-.38672.07813-.14844.16797-.54297.19922-.93359.11328-1.39453.24219-1.76172.60938-1.76172.12891,0,.4375.16016.50391.26563.11328.16016.79297-.38281.79297-.63281,0-.07813.03125-.24609.07031-.38281.27344-.90625.28125-.9375.16797-1.19141-.10547-.26563-.13672-.45703-.20703-1.32813-.02344-.28125-.09766-.57031-.16016-.625-.06641-.0625-.13672-.20703-.16016-.32813-.03125-.12109-.13672-.38281-.24219-.59375-.16797-.33594-.17578-.39063-.07031-.48047.625-.52734.63281-.54297.53516-.79688-.05469-.15234-.0625-.29688-.01563-.38672.04688-.08594.03125-.24609-.04688-.46875-.06641-.1875-.09766-.37109-.08203-.40234.02344-.03906-.02344-.25391-.10938-.49609-.08984-.23047-.16016-.49609-.16016-.57422,0-.08203-.08984-.23438-.19922-.34375-.23438-.23438-.19531-.41016.10938-.48828.32813-.08203.43359-.23438.375-.57031-.02344-.16016-.05469-.39844-.0625-.52734-.02344-.19141-.0625-.23047-.26563-.24609-.125-.01563-.41406-.05078-.63672-.07422-.32031-.04688-.44141-.02344-.60156.08984ZM20.80578,4.98089c.12891.0625.24609.19141.27734.28125.02734.08594.08203.16016.12109.16016s.09766.07031.12109.16016c.02344.08594.10547.21484.17578.28516.07031.06641.23047.41797.36719.77734.23438.64844.28906,1.28125.14453,1.56641-.03906.07422-.04688.36328-.03125.64844.07813.99219.05469,2.67969-.03906,3.01563-.05859.19141-.12891.48047-.16797.64063-.03516.16797-.12891.44922-.21094.625-.41406.95313-.63672,1.39844-.67969,1.39844-.03125,0-.11719.15234-.20703.33594-.07813.18359-.32031.51172-.52734.73047-.21484.22266-.38281.42969-.38281.46094,0,.09766-.91406,1-1.12891,1.11328-.10547.05469-.22656.15234-.25781.20703-.03125.06641-.17578.16797-.3125.24219-.13281.07031-.32813.20703-.42188.30469-.08984.08594-.32813.23047-.52734.3125-.19141.07813-.86719.39844-1.49609.70313-.625.30469-1.19141.55078-1.25781.55078-.0625,0-.12109.03125-.12109.0625,0,.06641-.46094.29688-1.01563.49609-.14453.05859-.26172.12891-.26172.16016,0,.02734-.17578.13672-.40234.24219-.21484.10156-.39844.20703-.39844.23828,0,.02344-.28125.18359-.63281.35156l-.625.3125-.44531-.14453c-.41016-.125-.46484-.125-.57813-.01563-.14453.14453-.16797.86328-.03125,1.11328.17578.33594-.0625.72656-.63281,1.01563-.19141.09766-.51172.33594-.71094.53516-.19141.19922-.45703.37891-.59375.41016-.125.02344-.23047.07031-.23047.10156,0,.10547-.40625.24219-.72656.24219-.33594,0-1.21875.39063-1.43359.64063-.0625.07031-.28125.21484-.47266.32031-.19922.09375-.40625.22266-.46094.28516-.12109.12109-.3125.07422-.37891-.08594-.03906-.11328.52734-.76172.66406-.76172.09766,0,.64844-.55859.64844-.64844,0-.09375,2.9375-3.03125,3.03125-3.03125.10547,0,.48828-.38281.48828-.48047,0-.03906.19922-.27734.44141-.52734.24609-.24609.48828-.52734.53516-.61719.14453-.26172.20703-.34375.81641-.91016.16016-.14453.28906-.30469.28906-.34375s.16016-.23438.35156-.43359c.19922-.19141.42969-.50391.52734-.67969.08984-.18359.19922-.32813.23828-.32813.09766,0,.48047-.38281.48047-.48828,0-.03906.08984-.10938.19141-.16797.11328-.04688.24219-.19141.29688-.3125.05078-.125.12109-.23047.16016-.23047.03125,0,.08203-.07031.11328-.15234.02344-.08594.15234-.27344.28906-.41406.125-.13672.23047-.28125.23047-.32031,0-.04297.19922-.26563.44141-.51172.23828-.24219.4375-.47266.4375-.52344,0-.17578.34375-.74219.60156-1.00781.14453-.14063.28906-.33594.32031-.42969.02344-.08984.07813-.16016.12109-.16016.03906,0,.09375-.07422.11719-.16016.03125-.09766.17578-.28906.32031-.44141.15234-.14453.38281-.49609.52734-.77344.13672-.27344.28125-.52344.32031-.53125.03906-.01563.07422-.07813.07422-.14063,0-.06641.07031-.1875.16016-.27344.07813-.08203.24609-.33594.35938-.55859.10938-.22656.25391-.42578.3125-.44922.0625-.02344.125-.14453.15234-.26563.02344-.125.09375-.27734.16016-.33594.05469-.0625.13281-.20703.16016-.32031.03125-.10938.11719-.27734.19922-.375.07813-.08594.21484-.3125.28516-.48828.08984-.19141.23438-.35156.36328-.40625.23047-.09766.72656-.97656.72656-1.28906,0-.18359.14453-.48047.27344-.56641.10938-.08203.10156-.08203.36719.05469ZM2.75891,27.21917c.05469.15234-.16016.37109-.3125.3125-.16797-.0625-.21094-.25391-.07422-.38281.12891-.13672.32031-.09766.38672.07031Z"/>

</g>
</svg>
