<?xml version="1.0" encoding="UTF-8"?>
<svg xmlns="http://www.w3.org/2000/svg"
     version="1.1"
     width="41.40833008mm"
     height="42.89781172mm"
     viewBox="0.00000000 0.00000000 117.37792184 121.60015080">

<g transform="scale(4.30598027)">   <defs>
      <style type="text/css"><![CDATA[
      .b {
        stroke: #000;
        stroke-linecap: round;
        stroke-linejoin: round;
        stroke-width: .15px;
      }
    ]]></style>
   </defs>
   <path class="b"
         d="m11.67539.22549c-.66113.11119-1.33935-.09226-2.0301.06337-1.01234.22809-2.06792.61717-3.04972.92539-.80197.25177-.83513.53989-1.08092,1.27919-.25684.77253-1.10342,1.31114-1.59952,1.95449-.35946.46614-1.29032,1.43623-.40717,1.69195.45297.13116,1.03782-.08392,1.49157-.10798.48733-.02584.9859-.00009,1.47286-.00019,1.0629-.00021,2.14803-.16473,3.18654-.36967.75936-.14985,1.9583-.45836,2.43776.34129.41624.69422-.10074,1.76241-.27274,2.45764-.20525.82962-.54661,1.27436-1.06663,1.95397-1.06138,1.38713-2.8418,2.63612-4.31999,3.52652-.65012.39161-1.39394.67649-2.04944,1.06198-.6339.3728-1.00312.8731-1.4067,1.48324-1.08263,1.63674-2.33035,3.30605-2.73588,5.28514-.19587.95588-.24056,2.09362-.03974,3.04681.16023.76052.68389,1.29453,1.37325,1.66644.76109.4106,1.70337.48595,2.45857.80558,1.06602.45118,1.90342.73379,3.08225.81504.57152.03939,1.15089.08243,1.72619.0444.22702-.28088,1.07495-.03312,1.48507-.10853.3989-.07335.67439-.27077.92836-.59139.566-.71454.3753-1.414.39489-2.23375.01843-.77135.95822-1.4042.42192-2.23786-.30627-.47609-1.05942-.38083-1.45261-.08198-.5332.40525-.74449.98226-1.50457,1.03774-.54182.03955-1.17954-.0839-1.74-.10562-1.12594-.04364-2.72282-.50307-3.06862-1.73989-.22168-.79289.10432-1.53581.40096-2.24924.2488-.59837.75718-.79149,1.08106-1.32476.15305-.252.15549-.55958.37324-.78628.25835-.26897.76799-.44801,1.08818-.65838.72275-.47484,1.45246-.85108,2.15202-1.34201,1.07246-.75262,2.16907-1.46166,3.22906-2.22661.73374-.52952,1.44005-1.23854,1.80739-2.07022.66649-1.50899,1.67-3.0096,1.75053-4.67078.01729-.35669.00119-.94329.13747-1.25974.20337-.47221.44484-.65168.3959-1.23707-.0576-.68889-.57164-1.60588-.9795-2.11349-.63077-.78503-1.51825-1.58341-2.47267-1.9386-.56573-.21054-.90663-.14736-1.46041-.01423-.04595.01105-.09198.02033-.13809.02809Z"/>
   <path class="b"
         d="m19.09884,21.39935c-.43255-.02637-.98774-.04504-1.39438-.16433-.55389-.16248-1.08243-.54422-1.6136-.78618-.65918-.30027-1.23495-.707-1.72141-1.24424-.25869-.2857-.46382-.62102-.72375-.90287-.55477-.60156-.82982-1.2082-1.7304-1.26745-.03757-.00247-.07397-.00396-.10881-.00455-.6479-.01098-1.45411.36896-1.6314,1.04268-.17511.66543.39515,1.40211-.10562,1.95668-.21918.24274-.52361.23705-.67327.58993-.18448.43497.0891.80049.18764,1.21463.23108.97118.54628,1.50693,1.26603,2.25908.62281.65084,1.47138.94395,2.26717,1.31104-.02962-.01036-.09835-.03462-.12864-.04859.54141.30125.97205.74565,1.51712,1.05095.50608.28346.86008.68477,1.34224.96341,1.38599.80095,2.82726.49554,4.26237.31032,1.02538-.13234,2.10918.05388,3.13691-.04886.41361-.04135,1.44521-.02572,1.74767-.3155.38429-.36818.05326-.97266.17722-1.42846.08902-.32733.28974-.36127.47839-.60661.21782-.28326.16992-.43465.26095-.76749.14261-.52148.6195-.58526.89302-1.03354.19887-.32592.3205-1.20331.37103-1.57838.05498-.40809-.14545-1.00966-.52368-1.1762-.01241-.00546-.0249-.01042-.03747-.0149-.29397-.10468-.53702.02199-.82399.14255-.26622.11184-.47972.27499-.72881.40912-.34025.18322-.83211.2058-1.2191.23152-1.14903.07636-2.28628.26583-3.43303.10845-.44264-.06075-.87141-.17544-1.31039-.20221Z"/>

</g>
</svg>
