<?xml version="1.0" encoding="UTF-8"?>
<svg xmlns="http://www.w3.org/2000/svg"
     version="1.1"
     width="45.80043282mm"
     height="69.53340043mm"
     viewBox="0.00000000 0.00000000 129.82802347 197.10253938">

<g transform="scale(3.67920472)">   <defs>
      <style type="text/css"><![CDATA[
      .c {
        stroke: #000;
        stroke-linecap: round;
        stroke-linejoin: round;
        stroke-width: .01px;
      }
    ]]></style>
   </defs>
   <path class="c"
         d="m6.42585.09049c-.20703.0625-.44922.16016-.51953.22266-.07422.0625-.43359.24609-.80859.42188-.375.17188-.77734.37891-.89844.47266-.35156.26563-1.16016.76172-1.25391.76172-.04688,0-.16016.0625-.24219.13672-.07813.07813-.28516.23047-.44531.34375-.16016.10938-.41016.29688-.54297.40625-.14453.11328-.42578.29688-.625.41797-.20703.11719-.53516.39063-.73828.61328C.03131,4.25065-.00775,4.32877.00788,4.61783c.03125.375.11328.44531.58594.51953.25391.03906.36719.01563.46484-.08203.07031-.07031.30078-.23828.50391-.375.20703-.14453.45313-.33594.55859-.4375.19922-.21094.64063-.25781,1.11328-.12109.16016.04688.36719.03906.55859-.00781.33594-.09766.625-.12109,1.87891-.16797.73828-.02344.89063-.00781,1.08203.10938.11719.08984.28516.15234.36719.15234.07031,0,.32813.19141.55859.42578.45703.46484.77734.69531.97656.69531.19141,0,.51953.36719.51953.57813,0,.11719.10547.24609.29688.38281.48828.32813.91406.78516.98438,1.04688.03906.13672.05469.43359.03906.65625-.01563.21484,0,.45703.03906.53516.04297.07422.08984.34375.11328.60938.03125.25391.05469.54297.07422.63281.01563.08594-.00781.26953-.04297.41406-.04688.17578-.03125.34375.05078.52734.09375.24219.09375.3125-.03516.66406-.07813.21875-.22266.53906-.30859.71484-.09766.16797-.16797.40625-.16797.51953,0,.10938-.08203.32813-.17969.48047-.09375.15234-.17578.35156-.17578.44531-.00781.09766-.07813.23438-.16016.3125-.07031.08203-.11719.20703-.10156.29688.02344.07813-.00781.19141-.06641.25391-.0625.05859-.08594.12891-.0625.15234.02344.03516-.04688.24219-.16016.47266-.11328.23438-.28125.64063-.38281.90625-.09766.26172-.21484.55078-.25781.63672-.04688.08984-.08594.23438-.09375.32031,0,.08984-.08203.25781-.18359.36328-.48047.53516-.47266.52734-.32813.94922.04688.13672.13281.25.18359.25.18359,0,.75781.47266.88672.71875.07031.13672.15234.23047.18359.20703.09766-.05469.22266.05859.35938.32813.07422.13672.20313.27344.28125.29688.08984.03125.25781.24219.375.47266.25781.48047.55469.82422.84766.97656.11328.0625.30469.26172.43359.45703.12891.19141.28125.39844.33594.46094.0625.06641.17578.19922.25391.29688.07422.09766.36328.33594.63281.53516.26563.19922.52734.44141.58594.54688.04688.10156.16016.24609.23828.32813.08984.07813.15234.21484.15234.29297,0,.08984.03125.16016.08203.16016.03906,0,.10156.09766.125.21875.03516.125.16797.33594.30469.47656.13672.13672.40234.41016.58594.60156.72656.76172,1.44531,1.40625,1.60547,1.46484.09766.02344.17578.07813.17578.12109,0,.03906.12891.14063.28125.23828.30469.18359.41797.28125,1.17578.9375.26563.23047.51172.42188.55078.42188.03516,0,.15234.08984.25781.18359.10547.10547.44141.35938.76172.57031.36719.24609.58984.45313.62109.57422.02344.10547.12109.20703.21094.24219.17578.05469.46094.47656.46094.6875,0,.22266-.64063,1.32813-.91797,1.58984-.14453.13672-.28906.34375-.3125.46484-.02344.11328-.16797.34375-.32813.51172-.15234.16797-.28125.375-.28125.46484,0,.32031-.30469.75-.67188.95313-.4375.23047-.88672.75781-1.04688,1.20703-.0625.18359-.12109.34375-.12109.35938,0,.09766.45703.00781.74609-.13672.36719-.19141,1.10938-.91797,1.29297-1.26953.05859-.11328.25781-.3125.44141-.44141s.39063-.30469.46484-.40234c.17578-.22266.45703-.36719.60156-.31641.17578.07031.39063.58203.30078.75-.0625.11328-.05469.60156.02344,1.41016.01172.08594.05859.23828.11328.34375.08203.13281.08984.28516.03125.55859-.03906.20703-.05469.98438-.03906,1.73438.01563.74609.02344,1.41797.01563,1.48047-.03906.76172-.02344,1.13672.06641,1.42578.07031.24609.07813.39844.02344.50391-.06641.10938-.05078.19922.03906.34375.13672.19922.13672.19141.13672,2.56641,0,1.04297-.03125,1.45703-.12891,1.73828-.11328.34375-.11328.39844,0,.67188.10547.24609.11328.38281.03906.78125-.04688.27344-.10156.60156-.11719.74609-.01953.13672-.06641.30469-.09766.35938-.07031.11328-.11328.52734-.10547,1.14453.00781.6875.12891,1.23047.28125,1.29688.05469.01563.15234.17578.22266.34375.06641.16797.19531.32813.27344.35156.07813.03125.19141.12891.23047.23047.08984.19141.70703.53516.95313.53516.08203-.00781.29688-.19141.47266-.40625.17578-.22266.44922-.47266.60938-.55078.14844-.08203.375-.28906.48828-.45703.10938-.17578.31641-.44141.46094-.59375.13672-.14844.30469-.32813.37891-.40625.22266-.24609.26172-.69531.125-1.625-.07031-.48047-.11719-.94922-.11719-1.03906s.03125-.66406.05469-1.28125q.0625-1.34375,0-1.79688c-.0625-.52344-.0625-.63281.04688-1.09766.08984-.34375.08203-.49609-.00781-.83984-.05469-.23047-.12109-.625-.13672-.86328-.00781-.24219-.03125-.60156-.04688-.80078s.00781-.45703.04688-.58594c.05078-.14063.04297-.30078-.02344-.47656-.12109-.32813-.24609-1.19531-.23828-1.64063.00781-.19141-.06641-.55469-.15234-.80078-.22266-.67969-.25-.89453-.16016-1.66406.03906-.38281.08594-1.03906.10547-1.46484.02344-.42188.07031-1.05469.11719-1.40625.12109-.90625.21875-2.60156.18359-3.28906-.01563-.28906-.07813-.39063-.41406-.73438-.49609-.49609-.51953-.76172-.14453-1.34766.14453-.21484.39844-.60547.56641-.87109.17578-.26172.37109-.61328.42578-.78125.0625-.17969.19922-.41797.30469-.54688.18359-.21484.38281-.59766,1.12891-2.19141.18359-.39844.42969-.83984.55859-.98438.12891-.15234.27344-.48828.35938-.80078.07031-.30078.19922-.63672.28125-.75781.13672-.20703.21484-.60156.21484-.97656-.00781-.27344-.00781-1.17578,0-1.80078.01563-.91016-.04688-1.27734-.32813-1.83984-.16016-.33594-.24609-.64063-.24609-.86328,0-.19141-.07422-.48828-.17578-.67969-.09766-.18359-.20313-.51953-.24219-.73828-.03125-.22266-.07813-.48438-.09766-.58203-.02344-.10547-.125-.375-.23828-.60156-.32031-.65625-.46484-1.16797-.51953-1.85547-.03125-.35156-.08203-.67969-.10547-.71875-.02344-.04688-.07031-.27344-.09375-.50391-.04297-.38281-.02344-.44141.16797-.64063.11719-.12109.375-.44922.56641-.73438.19141-.28906.44141-.60156.54297-.70703.10547-.10156.19531-.21484.19531-.25391s.16797-.16797.38281-.27344c.32031-.16797.83203-.59766,1.58984-1.35156.21094-.20703.1875-.19141.73047-.65625.28906-.23828.49609-.35938.64844-.35938.125,0,.33594-.02344.47266-.04688.27734-.05859.375.02344.89453.76563.0625.08984.56641.24219.80859.24219.16016,0,.29688-.08984.49609-.34375.3125-.37891,1.10938-1.91406,1.08594-2.07422-.01563-.05469.01563-.23828.06641-.39844.11719-.39844.01563-.82422-.28125-1.13672-.12891-.13672-.29688-.35938-.375-.49609-.16016-.28906-.50391-.51172-.77734-.51172-.09766,0-.41406.12109-.70313.26563-.28906.14063-.76953.35156-1.08203.45313-.94141.32813-1.48047.73828-2.70313,2.08203-.32031.35156-.45703.55859-.42188.66406.04688.19141-.21875.45703-.46484.45703-.11328,0-.3125.11719-.48047.27734-.16016.15234-.32031.28125-.35938.28125-.04297,0-.25.16797-.45703.375-.21484.21484-.50391.47266-.64844.57031-.13672.10156-.35156.34375-.48047.51953-.11719.18359-.24609.34375-.27734.35938-.03516.01563-.21094.34375-.39453.71875-.35156.73047-.60547,1.13672-.76563,1.24219-.05859.03125-.08203.10938-.05859.16797.03906.09375-.20703.40625-.78906,1.02344-.28125.28906-.47266,1.12891-.49609,2.14453-.01172.39063-.08203.93359-.17969,1.26953-.08594.32031-.14063.65625-.125.73828.02344.08594-.00781.23047-.08203.33594-.0625.09375-.14453.34375-.17578.53516-.03125.19922-.08594.41406-.12109.48047-.03906.07031-.02344.18359.04297.26953.0625.08984.09375.24219.0625.37109-.02344.11719,0,.29297.04688.39063.06641.12109.07422.21484.00781.32031-.0625.12891-.02344.27344.20313.69531.15234.29688.27734.58594.27734.64063s.11328.19922.25.32813c.32813.30469.64844.9375.71875,1.42188.08984.57031.26563,1.24219.39063,1.5039.09766.20313.09766.25781-.03125.48828-.07031.13672-.13672.37891-.12891.53125,0,.14844-.03906.49609-.08594.75781-.04688.26563-.10547.82422-.13672,1.25-.03125.4375-.10156.82422-.16016.89453-.0625.07031-.15234.30469-.20703.51953-.16016.58594-1.08203,1.85547-1.34375,1.85547-.11328,0-.60156-.55078-.89844-1.00781-.15625-.23828-.47656-.55078-.79688-.78516-.48828-.35156-.76953-.6875-.76953-.94922,0-.05859-.08594-.22656-.19922-.375-.11328-.15234-.19922-.32813-.19922-.41016,0-.07031-.13672-.22266-.30469-.32813-.42578-.28125-1.10547-.99219-1.41797-1.46484-.14063-.22266-.33594-.47266-.42969-.55078-.08984-.08984-.29688-.39063-.46484-.67969-.16016-.28906-.40625-.66406-.55859-.83203-.14453-.16016-.26563-.32813-.26563-.36719,0-.03125-.25391-.35156-.56641-.69531-.3125-.35547-.61719-.74609-.6875-.875-.06641-.13281-.22656-.35156-.34766-.48047-.11719-.13281-.34375-.42188-.49609-.63672-.27734-.41016-1.78906-1.98438-2.10938-2.20313-.09766-.0625-.25-.26953-.33594-.45313-.09766-.18359-.24219-.38672-.32031-.44141-.26563-.19141-.26563-.29688.02344-.86328.16016-.3125.26563-.60156.23828-.64063-.03125-.04688.12109-.375.32813-.74219.57813-1.01172.59375-1.04297.59375-1.23438,0-.09375.10547-.29688.23047-.4375.3125-.36328.63281-1.01953.67188-1.39453.02734-.16797.09766-.47266.16797-.66406.07422-.19141.12891-.49609.12109-.67969,0-.17578.03125-.51953.08203-.75.05469-.27344.05469-.48047.01563-.57031-.08984-.16016-.06641-.48047.04688-.67969.12891-.23047-.07813-.96875-.36719-1.29688-.13672-.15234-.25-.32813-.25-.38281s-.125-.35156-.27734-.64844c-.16016-.30469-.26563-.59766-.24219-.67969.04688-.14453-.19922-.43359-.64063-.76172-.14453-.10938-.22266-.25391-.25391-.46875-.05859-.44922-.24219-.83203-.44141-.9375-.10156-.05469-.44922-.10547-.76563-.11328-.57031-.01563-.59375-.02344-.82422-.30078-.13672-.16797-.29688-.29688-.37109-.29688-.07031,0-.23828-.07422-.38281-.16016-.23828-.15234-.52734-.19141-1.71875-.28125-.24219-.01563-.61719.02344-.83203.08203Z"/>

</g>
</svg>
