<?xml version="1.0" encoding="UTF-8"?>
<svg xmlns="http://www.w3.org/2000/svg"
     version="1.1"
     width="30.94045181mm"
     height="48.03473993mm"
     viewBox="0.00000000 0.00000000 87.70515250 136.16148303">

<g transform="scale(5.79267105)">   <defs>
      <style type="text/css"><![CDATA[
      .a {
        fill: #000;
        stroke: #000;
        stroke-miterlimit: 2.61313;
        stroke-width: 0.28346px;
      }
    ]]></style>
   </defs>
   <path class="a"
         d="M.23145,7.87012c.71094-.81836,1.49512-1.61523,4.541-1.74414l2.7041-.82031c2.08008-.88086,3.8916-1.46289,4.74512-.97461-.13184,1.37109-.53906,2.55078-2.85645,2.41016q-1.93945.41016-3.87793.82031a4.82036,4.82036,0,0,1-5.25586.30859Z"/>
   <path class="a"
         d="M8.752,7.46c1.09668-1.07812,2.00977-2.1543,6.02148-3.23047.377.61523.48145,1.23047-1.32715,1.8457q-1.45312,1.333-2.9082,2.666c-1.335,1.02539-1.26758,2.42773-.56152,4.00049,1.81152,2.55469,1.89648,5.85254-.10156,10.05078a2.61941,2.61941,0,0,1-2.44922.40918q.17871-1.94678.35742-3.89648a19.65258,19.65258,0,0,0-.96973-5.53809C5.623,10.35645,6.67773,8.54395,8.752,7.46Z"/>
   <path class="a"
         d="M5.58887,1.15137q.791-1.64063,1.582-.61523a5.97693,5.97693,0,0,0,.50977,1.8457c.499,1.38477,1.14648,2.748-.71387,4.41016q-.68848,1.333-1.37793.20508c-.15332-.51172-.30566-1.02539-.459-1.53711-.80176-1.916-1.793-3.92773.459-4.30859Z"/>

</g>
</svg>
