<?xml version="1.0" encoding="UTF-8"?>
<svg xmlns="http://www.w3.org/2000/svg"
     version="1.1"
     width="46.15525381mm"
     height="19.23203866mm"
     viewBox="0.00000000 0.00000000 130.83385863 54.51598410">

<g transform="scale(3.97809871)">   <defs>
      <style type="text/css"><![CDATA[
      .b {
        stroke: #000;
        stroke-miterlimit: 10;
        stroke-width: .15px;
      }
    ]]></style>
   </defs>
   <path class="b"
         d="M.45946,3.49912C.18614,4.17966.05943,6.96061.07652,7.79697c.01917.93939.05908,1.33496.25531,1.78723.09784.22552.21252.48987.46808.72345.4198.38379.94104.42975,1.48932.46808,1.82489.1275,2.73737.19128,3.19153.04254.86853-.28436,1.42834-.76654,1.87231-1.14893.45825-.39471.59943-.62653.68085-.80853.2196-.49091.13202-.90472.08514-1.44678-.11658-1.34753.20959-1.27258.08508-2.34045-.05237-.44885-.17499-1.50067-.89362-2.42554-.29089-.37433-.30829-.25031-1.23401-1.19147-.79041-.80359-.81232-.9292-1.14899-1.10638-.55835-.29382-1.35114-.39728-2-.08508-.28107.13519-.43195.29877-1.10638,1.23401C.98094,2.66422.56084,3.24674.45946,3.49912Z"/>
   <path class="b"
         d="M10.16161,8.05234c-.92255-.01422-2.01215-.07434-2.97876-.12769-2.99579-.16534-4.48755-.35931-4.9787.42554-.10931.17468-.12964.45691-.17023,1.0213-.02771.38513-.08008,1.22699.25531,2.17017.16589.46667.7196,1.52582.85107,1.65961.26276.26733.62463.33557.89362.38293.31409.0553.55835.04456.59192.04291,4.59613-.22913,7.28033-.7663,7.28046-.7663,3.16382-.63312,3.48157-.77075,6.38293-1.31915,1.87988-.35529,2.81976-.53296,3.19153-.55316,3.15082-.17108,4.85229.84406,6.21277-.25531.30487-.2464.52948-.58978.9787-1.27661.29565-.45209,1.43634-2.19617,1.01807-2.63879-.13525-.14313-.36761-.08038-1.48615.21326-2.17432.5708-2.32776.60431-2.55316.63831-1.02484.15454-1.85663.06549-2.46814,0-1.10712-.11853-1.27429-.29755-2.25531-.383-.97937-.08533-1.71045.01489-2.25531.08514-2.68213.34589-5.62372.72528-8.51062.68085Z"/>
   <path class="b"
         d="M32.5446,6.47788c-.12537-.11835-.43988-.16565-1.06384-.25537-.82941-.11926-1.39911-.12665-1.57446-.12762-.53143-.00293-.8042-.00256-1.14893.08508-.44611.11346-.74829.29761-.89362.383-1.69397.99548-2.93555.83356-3.27661,1.74469-.14929.39893-.06702.84589-.04254.9787.07849.42615.24573.58807.46808,1.0213.55322,1.07806.29755,1.5957.72339,1.82977.23639.12994.56897.02991,1.23407-.17023.59247-.17828.81458-.32092,1.65955-.68085.22845-.09735.08374-.03217,1.48938-.59576,1.26898-.50879,1.38849-.56256,1.57446-.72339.53235-.46039.72626-1.03455.85107-1.40424.13007-.38519.53394-1.58105,0-2.08508Z"/>

</g>
</svg>
