<?xml version="1.0" encoding="UTF-8"?>
<svg xmlns="http://www.w3.org/2000/svg"
     version="1.1"
     width="47.78315207mm"
     height="17.42534099mm"
     viewBox="0.00000000 0.00000000 135.44834772 49.39472023">

<g transform="scale(5.20532351)">   <defs>
      <style type="text/css"><![CDATA[
      .g {
        stroke: #000;
        stroke-width: .15px;
      }
    ]]></style>
   </defs>
   <path class="g"
         d="M7.416,3.70846c.08722.00964.13632-.00003.46246-.06345.24466-.04758.36743-.07141.38925-.07312.11591-.00912.32153-.0253.54456.05679.21439.07889.24329.17441.41116.18628.15149.01071.2691-.05704.32095-.08566.73004-.40292,2.58295-.85886,3.20142-.97031.11746-.02118.30283-.05017.52658,0,.25397.05695.3269.16422.63831.32712.21808.11411.47717.24963.81384.27927.15179.01337.49036.04315.79785-.14362.10968-.06662.27258-.27313.59839-.68616.13605-.17249.21497-.27896.36389-.42444.17664-.17255.27307-.26462.43384-.31793.06433-.02133.12622-.03223.33069-.09567.12854-.03989.18335-.06015.23151-.11295.02509-.02753.03363-.04767.09222-.20593.08636-.23322.08856-.24542.11169-.27127.07599-.08499.13263-.04324.26874-.13126.12579-.08136.19122-.19135.23114-.25644.06036-.09836.09314-.21069.12616-.32129.03064-.10272.06213-.20517.09442-.3074-.16034.0228-.32324.02713-.48456.01279-.12445-.01105-.24896-.03314-.37354-.02377-.06232.0047-.12445.01743-.18164.04251-.05725.02505-.1095.06287-.14734.11261-.05243.06906-.0752.15787-.13153.22382-.03619.04233-.08459.07297-.13586.09473s-.10565.0351-.16003.04724c-.73456.16422-1.49756.12421-2.24866.07623-.16772-.01071-.33679-.02176-.50323.00177-.14105.01993-.31934.06134-.4537.20035-.15704.16245-.09146.30093-.23279.44354-.11926.12033-.27164.12836-.49469.15158-.67114.06992-.53214.12662-.98935.15161-.57669.03152-1.0304-.04599-1.48917-.12711-.60452-.1069-.62396-.17126-.91116-.16006-.46722.01822-.63733.19717-1.11032.35098-.33362.10849-.34763.05151-1.67029.13089-.80838.04852-1.23935.08646-1.71429.21631-.35443.09689-.6962.25507-.97562.49365-.10889.09299-.19513.21228-.23315.26025-.17624.22238-.26437.33359-.27368.49466-.00812.1405.04691.25217.08777.33508.0166.03369.08536.16772.23703.2973.09692.08279.34665.29611.59277.23727.15668-.03745.14511-.14532.34308-.24734.1214-.06256.27405-.06915.57446-.07977.44754-.01584.52847.03003.72263-.04526.05179-.02008.11829-.05136.26141-.10458.1524-.05667.22858-.08499.29257-.0975.18661-.0365.34381-.00375.47073.02393.21161.04617.19586.08743.34308.10373Z"/>
   <path class="g"
         d="M2.98781,2.95846c-.22049.17242-.39371.30563-.49466.383-.39224.30051-.5582.42007-.71555.65054-.0401.05875-.12106.186-.1683.36655-.02789.10657-.0416.21866-.02264.32721.01181.06772.04514.21112.16156.2793.07657.04483.16476.03452.33801.01202.15134-.01965.26111-.04916.28723-.05585.32932-.08432.47031.10266,1.02374.12894.28275.01343.43484-.02643.4827-.03995.09686-.02737.27481-.07977.42468-.22467.11459-.11078.08789-.15488.24707-.44675.08124-.14893.10849-.17471.367-.61438.05881-.10004.10236-.17584.11804-.28873.02487-.17889-.03973-.31686-.05154-.34393-.06158-.14111-.18265-.25858-.33066-.30087-.08365-.0239-.1723-.0238-.25894-.01611-.12674.01126-.21851.02127-.25937.02826-.3414.05829-.46753-.05225-.76538.00385-.09305.01752-.22757.05594-.383.15158Z"/>
   <path class="g"
         d="M.16988,4.81618c-.13559.28308-.09384.68613-.06754.92084.04385.39139.13324.65958.18021.78699.08847.23999.13611.36444.26434.48062.11514.10431.24182.15353.48059.24631.20593.08002.36511.12256.37848.12616.65985.17749,1.37143,1.02176,2.51715,1.36368.35416.10568.70544.15015.94318.18024.27142.03436.53909.0434,1.06332.06009.91263.02905,1.05478.00113,1.20901-.09192.0618-.03729.32156-.20325.43616-.53268.14352-.41254-.04675-.77625-.077-.83185-.08563-.15747-.12924-.13394-.41321-.45526-.2305-.2608-.34573-.3912-.43091-.56293-.16409-.33087-.04953-.41281-.24344-.81149-.09766-.20074-.20978-.3508-.27036-.42651-.06308-.07886-.14111-.16574-.28836-.30038-.25009-.2287-.5061-.41809-.66739-.52161-.80774-.51837-2.1709-.76144-3.18439-.71051-.34857.01752-.55997.07019-.74997.15677-.05701.02597-.04861.02609-.71796.50433-.04913.03513-.14923.10504-.2453.22922-.00006.00009-.06738.0871-.11664.18991Z"/>
   <path class="g"
         d="M9.52812,9.23339c-.13708-.01822-.34946-.03693-.60675-.01801-.51697.03799-.60019.18262-1.00928.18622-.17365.00153-.42615-.06705-.93115-.20425-.37277-.10126-.47537-.15109-.57343-.24124-.21542-.198-.27261-.46573-.29166-.55173-.03217-.14536-.02344-.26913-.00601-.51666.01944-.2757.04926-.27658.07809-.61276.01251-.1459.01544-.24545.04205-.42654.0141-.09589.03619-.22412.10812-.36646.02814-.05566.04712-.0925.08371-.13046.11148-.11557.27567-.12659.34299-.13019.76974-.04117,2.37109-.0217,3.18024-.13391.15305-.02121.31931-.05322.5498-.02866.32327.03445.61435.20993.93127.28226.45465.10379.92621-.00995,1.38754-.07788.49411-.07275.26785.00662,2.25198-.06592.00012,0,1.76306-.06445,3.33557.06851.09143.00772.16968.03113.23541.05075.0614.01834.09857.03473.13733.06354.04071.03024.07458.0705.09399.11737.01801.0437.02307.09167.02429.13895s-.00128.09467.00262.14178c.00385.04712.01453.09473.03967.13477.01135.0181.02399.03726.0481.05148.03088.01825.08246.02921.11542.00824.05377-.03418.00903-.12198.06409-.26483.01819-.04724.04022-.10217.08411-.11166.05042-.01089.10223.04221.12018.06009.21234.21191.67542.37491.8891.40027.04675.00555.1153-.0029.25232-.01981.052-.00641.0824-.01791.10413-.04404.04169-.05017.02106-.12982.0108-.16736-.03528-.12903-.11371-.19101-.17804-.27084-.09229-.1145-.12122-.22308-.17053-.40836-.05804-.21793-.05219-.39191-.04675-.55521.0011-.03317.01941-.18896.05609-.50061.01172-.09949.01483-.1235.02802-.16022.05522-.15372.16711-.1955.32843-.3284.26935-.22186.24493-.34204.50464-.49261.09143-.05301.16681-.08005.21228-.09613.37079-.13098.56549-.01578,1.01324-.04004.24854-.01346.17249-.04813.75696-.13217.33978-.04886.51233-.07275.64191-.04605.06567.01355.20673.0499.70776.45056.35529.28412.3045.28192.68488.58875.13666.11023.28192.22238.46655.41049.22101.22519.27521.33182.30042.43857.04034.17087.00079.32565-.01807.39648-.03723.13965-.09906.24231-.15619.3244-.16156.23224-.34705.38858-.60071.58875-.37054.29239-.55585.4386-.77496.57672-.27405.17276-.48737.2771-.72095.39047-.19379.09406-.75372.3591-1.57996.6308-.57941.19052-.86908.2858-1.07532.30038-.41455.02933-.82861.11331-1.24359.09012-.04083-.00229-.11914-.00888-.19226.03604-.05658.03476-.06995.07574-.16815.18021-.00006.00006-.02643.02814-.09375.09222-.17914.17059-1.92792.10083-2.64569.11203-.00012,0-1.26447.01974-1.80914-.07361-.10724-.01837-.22729-.04651-.22742-.04654-.35229-.0824-.26654-.09979-.50464-.14417-.59396-.11072-1.60001-.09061-1.94043-.04205-.03467.00494-.12119.01855-.16818-.03003-.05725-.05923-.00311-.15637-.07211-.24634-.02515-.03281-.05325-.04715-.10211-.07208-.04175-.02133-.14783-.07547-.27036-.04807-.02411.0054-.11536.02884-.18021.10815-.14322.17523-.00085.43155-.13217.52866-.01404.01038-.04541.01694-.10812.03003-.00009.00003-.27765.0563-.48328-.0387-.07721-.03568-.07224-.05435-.14752-.08746-.07736-.03403-.14178-.04034-.2283-.04807-.07645-.00684-.18393-.01016-.31351.00623-.00165.02579-.00937.09103-.05896.14398-.07571.08084-.21744.09921-.30637.03003-.05823-.04532-.07364-.11246-.07809-.13818Z"/>
   <path class="g"
         d="M19.65678,2.60711c-.07172.02438-.21722.09219-.50824.22781-.14917.06952-.43451.20355-.78571.3967-.11536.06342-.28467.15826-.43579.32941-.06055.06857-.11151.14609-.14557.23099-.01715.04272-.05591.14725-.0434.26843.01733.16776.12549.27936.24261.39697.13153.13205.21173.16727.39648.30038.10132.073.24969.18677.42065.34549.01477-.16095.0495-.36646.14404-.38754.11078-.02469.19446.22806.39648.40851.26886.24017.60858.2283,1.40729.20987.00012,0,.53027-.01224,1.33765-.02728.00012,0,1.60046-.02982,2.48163-.26068.17242-.0452.25372-.10153.3064-.16821.0799-.1011.05017-.17041.14417-.2583.09821-.09183.18268-.06491.22827-.15622.02734-.05475.02295-.11652.01801-.18622-.00586-.08255-.02576-.14307-.03003-.15619-.08136-.25101-.10413-.67899-.2583-1.0213-.0495-.10992-.21393-.28705-.54071-.63678-.64478-.69009-.81293-.77142-.97028-.81082-.20221-.05063-.36365-.04224-.59491.01187-.39429.09225-.75397.29095-1.12866.44455-.36786.15079-.74878.30197-1.26038.36002-.26965.03058-.48633.02457-.82172.13855Z"/>

</g>
</svg>
