<?xml version="1.0" encoding="UTF-8"?>
<svg xmlns="http://www.w3.org/2000/svg"
     version="1.1"
     width="28.12628950mm"
     height="31.06688693mm"
     viewBox="0.00000000 0.00000000 79.72799731 88.06370731">

<g transform="scale(6.07147487)">   <defs>
      <style type="text/css"><![CDATA[
      .b {
        fill: #000;
        stroke: #000;
        stroke-linecap: round;
        stroke-linejoin: round;
        stroke-width: .25px;
      }
    ]]></style>
   </defs>
   <path class="b"
         d="M10.53084.95803c.38901.03598.54401.67003.388,1.24699-.95596.05104-2.38696-.26999-3.25797.12804-1.11099.507-1.11099,1.68498-1.42398,2.68195-.70001,2.23706-.51505,4.78905-1.565,6.92502.25296-.06194,3.823-1.73801,3.79898-.99597.05502-1.70004-.08301-3.43102.04102-5.12402.07901-1.05598,1.09396-2.97902,2.16299-3.27498,2.13098-.59097.49597,3.629.33496,4.97104-.23697,1.96194-.427,3.36198,1.09604,4.55495.73901.57803,1.672,1.01404-.18298,1.14305-1.30301.091-2.39105-.73102-3.74802-.29004-1.67902.54498-3.19803,1.08-5.07004,1.289-.99496.11198-3.23495.601-2.95599-.88699.30804-1.64502,2.56503-1.049,3.16003-2.21701.28598-.56302.32001-2.45302.40298-3.09602.15698-1.22496.21301-2.354.565-3.496.448-1.45395.79599-2.26295,2.12802-2.85995,1.39896-.62602,3.15799-1.33899,4.78595-1.53206.035.68806.12003,1.48102-.11395,2.10205"/>
   <path class="b"
         d="M10.53087.95803c.38901.03598.54404.67003.38803,1.24698-.95599.04999-2.38699-.26999-3.258.12805-1.11099.507-1.11099,1.68398-1.42398,2.681-.70004,2.23799-.51505,4.78998-1.564,6.92596.25195-.06194,3.82199-1.73801,3.79797-.99698.05502-1.69904-.08301-3.43002.04102-5.12402.07901-1.05498,1.09396-2.97803,2.16397-3.27498,2.13101-.58998.49503,3.62901.33398,4.97098-.23697,1.96301-.42697,3.36305,1.09705,4.55502.73801.57796,1.67102,1.01401-.18402,1.14404-1.30298.091-2.39102-.73207-3.74698-.29105-1.68002.54599-3.19904,1.08-5.07104,1.29001-.99496.11197-3.23495.59999-2.95599-.88805.30804-1.64397,2.56503-1.04796,3.16003-2.21596.28598-.56303.32001-2.45303.40298-3.09703.15802-1.22397.21399-2.35301.565-3.49594.44797-1.453.79602-2.26201,2.12799-2.85902,1.39902-.62602,3.15903-1.33899,4.78598-1.53204.03503.68805.12,1.48102-.11395,2.101"/>

</g>
</svg>
