<?xml version="1.0" encoding="UTF-8"?>
<svg xmlns="http://www.w3.org/2000/svg"
     version="1.1"
     width="26.68462632mm"
     height="50.67240941mm"
     viewBox="0.00000000 0.00000000 75.64138579 143.63838148">

<g transform="scale(6.53780177)">   <defs>
      <style type="text/css"><![CDATA[
      .b {
        stroke: #000;
        stroke-miterlimit: 10;
        stroke-width: .15px;
      }
    ]]></style>
   </defs>
   <path class="b"
         d="m.88403,4.22018c-.31091.28375-.48206.48627-.5957.76593-.09949.2449-.11353.44727-.12769.68088-.06006.98923-.09021,1.48383-.08508,1.617.03247.84918.18066,1.47839.29785,2,.23792,1.0585.41614,2.12961.63831,3.1915.58228,2.78302.67444,3.29111.76599,3.91489.13989.95303.21423,1.73907.25525,2.25531.10242.1178.2406.28931.38293.51065.03296.0513.25537.39948.34045.63831.29224.82095-.59485,1.59714-.29785,1.95743.07581.09192.29163.10385.72339.12766.45642.02518.75488.04163,1.02136-.12766.20532-.1304.23376-.27072.42542-.55319.17908-.26392.41968-.47742.89368-.89362,1.07971-.94806,1.36572-.95935,1.53186-1.40424.13977-.37433.06799-.71652,0-1.0213-.56812-2.54691-.85217-3.82034-.97864-4.1702-.8562-2.3696-1.05542-2.1377-1.27588-3.30359-.1886-.99747-.20117-2.00504-.2135-2.99429-.0072-.58023.00012-1.55548-.25537-2.8085-.14014-.68762-.29175-1.12634-.68079-1.36169-.42786-.25882-.93225-.1441-1.19153-.08511-.54431.12381-.8877.43716-1.57446,1.06384Z"/>
   <path class="b"
         d="m9.13281,2.50339c-.16492.26907-.63501.14844-1.65308.18488-.05127.00183-.55908.05786-1.57446.1702-1.3551.14993-1.61255.18991-1.78723.42554-.29077.39221-.06885.94363-.29785,1.02127-.06323.02145-.1178-.0079-.63831-.34042-.42419-.271-.44446-.28757-.51062-.29785-.43359-.06744-.67285.4711-.93616.38297-.24658-.08249-.36914-.66568-.19739-1.11914.12219-.32257.35559-.49417.83569-.79575.26196-.16455,1.29041-.90634,2.25525-1.40427.51282-.26462.82068-.42349,1.27661-.55319.82507-.23468,4.07886-.00586,5.57446.08511-.03625.18454-.11426.46692-.29785.76596-.14343.23361-.3573.58197-.72339.72339-.58228.22495-1.11133-.26663-1.31909-.04254-.16882.18207.15723.52649-.00659.79385Z"/>
   <path class="b"
         d="m9.4751,8.52926c-.63696-.2316-1.24756.14517-2.33569.83984-1.36609.87207-2.57837,1.64597-2.55322,2.72339.01392.59552.40002,1.03552.42554,1.06384.33606.37271.6001.28036,1.61694.72339.73914.32199,1.05042.56714,1.23413.42554.22302-.17191-.02783-.69348.17017-.8085.26123-.15176.86169.66141,1.2406.48026.09973-.0477.06384-.10678.24878-.31003.27808-.30563.44568-.26703.5957-.46811.19592-.2626.203-.72101,0-.9787-.2113-.26831-.52051-.15421-.63831-.383-.0697-.13541-.03223-.31296.34045-.97873.46399-.82889.58203-.86838.5957-1.10638.0282-.49139-.43408-1.03854-.9408-1.22281Z"/>

</g>
</svg>
