<?xml version="1.0" encoding="UTF-8"?>
<svg xmlns="http://www.w3.org/2000/svg"
     version="1.1"
     width="66.48933022mm"
     height="22.10323599mm"
     viewBox="0.00000000 0.00000000 188.47373351 62.65481322">

<g transform="scale(5.32845630)">   <defs>
      <style type="text/css"><![CDATA[
      .b {
        stroke: #000;
        stroke-linecap: round;
        stroke-linejoin: round;
        stroke-width: .25px;
      }
    ]]></style>
   </defs>
   <path class="b"
         d="M6.19743,2.84359c-.77944.32178-1.64619.78352-1.81134,1.61044-.10135.50748.10309,1.03423.41034,1.45066.63219.85683,1.99742,1.30552,2.76026.56263.2371-.2309.3813-.54199.60791-.78318.27628-.29406.65593-.46539,1.02898-.61913.88309-.36394,1.7886-.67072,2.69765-.96386,2.2431-.72333,4.61036-1.37171,6.9312-.96134,1.03143.18238,2.01402.56864,2.98854.95259,1.32184.52078,2.64368,1.04157,3.96552,1.56235,1.19091.4692,2.40141.94953,3.4029,1.74667.85191.67808,1.67348,1.62821,2.76155,1.58782.43144-.01602.84588-.19561,1.27761-.19823.35413-.00215.69901.11502,1.05264.13399s.75689-.097.91096-.41586c.14781-.30591.01241-.66762-.13081-.97571-.32519-.69956-.70279-1.39446-1.27314-1.91392-.50099-.45629-1.12348-.75266-1.73603-1.04246-1.07892-.51045-2.16826-1.02458-3.33133-1.29271-.75291-.17357-1.53562-.24389-2.25219-.53291-.72548-.29262-2.12878-.59336-2.79192-1.00831-1.26138-.7893-1.92929-1.46146-3.40999-1.59271-1.48718-.13183-2.86119.28864-4.32413.36026-3.35785.1644-6.63772,1.05421-9.73517,2.33296v-.00004Z"/>
   <path class="b"
         d="M.17763,5.69013c-.26643.95935.51893,1.94863,1.45035,2.30049.93142.35186,1.96249.24763,2.95724.20482,1.65898-.07139,3.3259.04329,4.95947.34121,1.40536.2563,2.78551.64751,4.19979.84888,1.89107.26927,3.83016.1973,5.6907.62981.85772.19939,1.6949.50527,2.57076.5965,1.55768.16225,3.15371-.36314,4.68278-.02458.82818.18337.77132-.79495,2.20537.50032.62948.56856,1.92189.74104,2.6382.28672.44473-.28206.59665-1.22906.87755-1.67452.74082-1.17482,1.58934-1.8842,2.24654-3.10777.21447-.39929.38629-.36294.42845-.81422s-.2903-.99872-.68582-1.22008c-.25753-.14413-1.04475-.56427-1.33985-.56778-.68268-.00813-.73305.00661-1.29219.39837-.25562.1791-.45495.42712-.63059.68512-.67718.99473-1.09025,2.22484-2.06952,2.92419-.37887.27057-.81988.44167-1.26664.57266-3.25211.95351-6.69911-.12407-10.04212-.6806-.96076-.15994-1.92852-.27652-2.88728-.44804-2.72168-.48691-5.34747-1.41252-7.89421-2.48902-1.22897-.51948-2.58658-1.20903-3.9406-.91581-1.04136.22551-2.52077.43771-2.85838,1.65333Z"/>

</g>
</svg>
