<?xml version="1.0" encoding="UTF-8"?>
<svg xmlns="http://www.w3.org/2000/svg"
     version="1.1"
     width="26.96720278mm"
     height="34.02735568mm"
     viewBox="0.00000000 0.00000000 76.44251023 96.45543369">

<g transform="scale(5.41829972)">   <defs>
      <style type="text/css"><![CDATA[
      .b {
        stroke: #000;
        stroke-linecap: round;
        stroke-linejoin: round;
        stroke-width: .25px;
      }
    ]]></style>
   </defs>
   <path class="b"
         d="m9.65609.63137c.76196-.20801,1.53699-.40399,2.26996-.492,1.74103-.20898,1.92801,1.93103,1.98303,3.18701.03601.83197.28201,1.54199-.38199,2.16998-.27802.263-.465.33203-.677.60699-.18204.23596.077.68799-.48499.58502-.09003-.01599-.47104-.68903-.60605-.80304-.40097-.34296-.49799-.37097-1.021-.42596-.99097-.10602-1.96201.31097-2.909.22803-1.164-.10101-.85898-.72504-1.284-1.513.67303-.03308,1.36502.03998,2.04004-.00702,1.03198-.073,1.35498-.11902,1.31198-1.13599-1.11002-.05902-2.04602.362-3.13098.30701-.45401-.02405-.30103,1.38397-.18301,1.612.44098.84192,1.35699.88794,1.97696,1.45398,1.12903,1.02802.91702,4.104.56003,5.42297-.18802.69299-.78098,1.13501-1.21597,1.66803-.42804.52301-.67206,1.12-1.12003,1.63098-1.00699,1.14899-2.31299,2.039-3.79797,2.45398-.677.18805-2.03902.13403-2.52701-.45898-.55002-.66693-.347-2.39996.08096-3.10596.31102-.51404,2.12204-3.02509,2.767-3.00403-.37695.89301-1.44899,2.203-1.09097,3.14197.37302.98303,2.05402,2.04303,2.97998,1.21906.69702-.62103.57803-1.30505.42001-2.09302-.189-.935-.24698-1.83301-.24802-2.81201-.00397-1.82397,1.30301-3.211-1.08298-3.97705-.508-.16394-1.00803-.23694-1.44302-.56995-.40997-.31403-.60898-.88702-1.06699-1.13397-.63-.33807-.741-.21204-1.05-.94904-.18999-.45197-.34998-.94397-.437-1.42798C.08007,1.2474.85407,1.17238,1.76906,1.03731c.84299-.12396,1.72803-.20593,2.60403-.15192.96298.05798,1.94797.23297,2.90799.258.815.021,1.57501-.29401,2.375-.51202h.00001Z"/>
   <path class="b"
         d="m9.65609.63131c.76199-.20801,1.53702-.40405,2.26999-.49207,1.74103-.20898,1.92801,1.93109,1.98203,3.18701.03702.83197.28302,1.54205-.38101,2.16998-.27798.26306-.465.33203-.67697.60706-.18204.23602.07697.68793-.48499.58496-.09003-.01593-.47104-.68896-.60605-.80298-.40097-.34296-.49799-.37097-1.02197-.42596-.99002-.10608-1.96103.31097-2.90802.22797-1.164-.10101-.86002-.72498-1.284-1.513.673-.03302,1.36502.03998,2.04004-.00696,1.03198-.07306,1.35498-.11902,1.31198-1.13605-1.11002-.05896-2.04602.36206-3.13101.30701-.45401-.02399-.30103,1.38397-.18301,1.61206.44101.84192,1.35699.888,1.97696,1.45398,1.12903,1.02802.91702,4.10394.56003,5.42291-.18799.69305-.78098,1.13507-1.21594,1.66809-.42807.52295-.67206,1.11993-1.12006,1.63098-1.00699,1.14893-2.31296,2.039-3.79797,2.453-.677.18896-2.039.13495-2.52699-.45807-.55003-.66693-.34802-2.39996.08098-3.10699.311-.51294,2.12204-3.02393,2.767-3.00299-.37695.89301-1.44901,2.20306-1.09097,3.14197.37299.98303,2.05399,2.04303,2.97998,1.21808.69699-.62.57803-1.30402.41998-2.09204-.189-.935-.24695-1.83295-.24799-2.81201-.004-1.82397,1.30301-3.21094-1.08298-3.97699-.50803-.16394-1.00803-.237-1.44403-.57001-.40897-.31396-.608-.88702-1.06599-1.13397-.63-.33801-.741-.21198-1.04999-.94904-.19099-.45197-.34998-.94397-.437-1.42798C.08008,1.24727.85408,1.17232,1.76909,1.03725c.84299-.12396,1.72803-.20599,2.60403-.15302.96298.05908,1.94797.23407,2.90796.25903.815.021,1.57504-.29395,2.375-.51196h.00001Z"/>

</g>
</svg>
