<?xml version="1.0" encoding="UTF-8"?>
<svg xmlns="http://www.w3.org/2000/svg"
     version="1.1"
     width="13.82738932mm"
     height="38.02886142mm"
     viewBox="0.00000000 0.00000000 39.19568497 107.79840721">

<g transform="scale(6.97694063)">   <defs>
      <style type="text/css"><![CDATA[
      .b {
        fill: #000;
        stroke: #000;
        stroke-linecap: round;
        stroke-linejoin: round;
        stroke-width: .25px;
      }
    ]]></style>
   </defs>
   <path class="b"
         d="M1.39113,3.17119c.63895-.14502.923.66498.479,1.05194-.32101.28107-1.35104.28998-1.74103.22803-.07602-1.60504.91901-1.67804,1.76001-2.854C2.42012.85418,3.29509.06115,4.26011.1292c.37.72296-1.00903.91699-1.453,1.22095-.62903.43201-1.224,1.05701-1.41599,1.82104h.00001Z"/>
   <path class="b"
         d="M1.39116,3.17113c.63898-.14496.923.66498.479,1.052-.32101.28101-1.35104.28998-1.74103.22797-.07599-1.60492.91901-1.67798,1.76001-2.85394C2.42015.85412,3.29414.06109,4.26011.12908c.37.72211-1.00897.91705-1.453,1.22107-.62897.43195-1.22397,1.05695-1.41595,1.82098h0Z"/>
   <path class="b"
         d="M4.66008,3.55816c-.27698,1.13-.14197,2.289-.47296,3.37402-.04999.16394-1.13403.10693-1.29901.59595.39197.19507.83801.29803,1.25201.36102.47696.07697.19,2.49103.17099,2.80304-.03403.56494-.20499,1.25098-.13303,1.81091.12402.96802.53604.22607,1.11902.823.50601.51904-.07397,1.41705-.55402,1.65106-.63995.31-2.41199.58899-2.974.01898-.396-.40198.18701-1.11096.048-1.56897-.08798-.29102-.40097-.35101-.504-.59601-.457-1.09198.46204-1.02301.85303-1.74506.306-.56702.31299-1.39294.362-2.01892.08997-1.13599-.203-2.69403.19196-3.77106.19702-.539.94305-2.16693,1.63504-1.95197.009.17297.05099.42297.008.59094"/>
   <path class="b"
         d="M4.66014,3.5581c-.27698,1.13-.14203,2.289-.47302,3.37299-.04996.16504-1.13397.10803-1.29898.59711.392.19495.83801.29797,1.25201.36096.47699.07697.19,2.49103.17102,2.80298-.03406.565-.20499,1.25098-.13303,1.81097.12396.96796.53601.22601,1.11902.82404.50598.51801-.07397,1.41595-.55405,1.64996-.64099.31-2.41196.58905-2.974.01898-.396-.40295.18704-1.11096.048-1.56897-.08798-.29095-.401-.35101-.50397-.59705-.45703-1.09088.46198-1.02203.853-1.74396.306-.56696.31296-1.39301.362-2.01898.09-1.13599-.203-2.69397.19199-3.77106.19699-.539.94302-2.16693,1.63501-1.9519.009.17297.05099.42297.00803.59094"/>

</g>
</svg>
