<?xml version="1.0" encoding="UTF-8"?>
<svg xmlns="http://www.w3.org/2000/svg"
     version="1.1"
     width="26.48332624mm"
     height="41.34628044mm"
     viewBox="0.00000000 0.00000000 75.07083534 117.20211386">

<g transform="scale(3.57206990)">   <defs>
      <style type="text/css"><![CDATA[
      .b {
        stroke: #000;
        stroke-linecap: round;
        stroke-linejoin: round;
        stroke-width: .25px;
      }
    ]]></style>
   </defs>
   <path class="b"
         d="M18.43924.26872c-8.25874,1.91767-6.14227,15.15412-5.7209,21.29482.15231,2.21967-.13626,4.5684.22043,6.70148.37167,2.2227,2.1018,3.84171,4.30441,3.4181,2.19737-.4226,3.54719-2.25837,3.39535-4.56849-.23298-3.54473-1.01335-8.29993-1.05394-11.85453-.03846-3.36846.42873-6.3806,1.16826-9.61849.47567-2.08262-.27196-6.35196-2.31361-5.3729h0Z"/>
   <path class="b"
         d="M3.71105.26408C-.87006-1.02685.67948,7.8005.58383,10.04708c-.16153,3.79369-.34503,6.87085-.43843,10.66216-.04708,1.9113-.03592,4.05706.29015,6.01653.24258,1.45777.89986,5.46795,2.91044,5.92826,1.97116.45129,2.37937-4.04387,2.32248-5.61633-.11183-3.0913.34411-5.55032.19867-8.45578-.17367-3.46954.96659-7.78192.14198-11.17183-.41484-1.70539-.58375-6.12314-2.15226-7.15679-.22126.29657-.37166.06342-.14581.01078Z"/>

</g>
</svg>
