<?xml version="1.0" encoding="UTF-8"?>
<svg xmlns="http://www.w3.org/2000/svg"
     version="1.1"
     width="43.92610958mm"
     height="55.93559980mm"
     viewBox="0.00000000 0.00000000 124.51489453 158.55763262">

<g transform="scale(4.21706711)">   <defs>
      <style type="text/css"><![CDATA[
      .b {
        stroke: #000;
        stroke-linecap: round;
        stroke-linejoin: round;
        stroke-width: .25px;
      }
    ]]></style>
   </defs>
   <path class="b"
         d="M9.71792,20.96868c6.62686-3.67277,12.06592-9.11703,17.40959-14.48821.50356-.50615,1.01637-1.02515,1.32649-1.66825.60425-1.25304.33985-2.73184.06281-4.0951-2.25398,2.54728-4.50796,5.09455-6.76194,7.64183-.97087,1.0972-1.94462,2.19731-3.03807,3.1724-1.09495.97642-2.30086,1.81937-3.50897,2.6517-2.55932,1.76325-5.14272,3.49201-7.75147,5.18131-.75073.48614-2.7973,1.66178-1.3123,2.63366.94281.61704,2.7863-.59285,3.57386-1.02934Z"/>
   <path class="b"
         d="M21.95003,2.46112c-.39128-.75468-.80372-1.53502-1.48093-2.04885-.38354-.29101-1.01123-.44352-1.28939-.05057-.10905.15405-.12888.35368-.1234.54234.01923.66237.26335,1.44804-.21871,1.90271-.20059.1892-.50081.27788-.6347.51894-.1517.27312-.02258.61075.10741.89484.70581,1.54247,1.41163,3.08494,2.11744,4.62741.33315.72807.67413,1.46827,1.20794,2.06503s1.29974,1.03909,2.09893.99039c.99894-.06087,1.83874-.90578,2.09347-1.87361s.006-2.01295-.46868-2.89403c-.49438-.91763-1.21124-1.63171-1.8995-2.3918-.59928-.66183-1.0486-1.39311-1.50988-2.2828Z"/>
   <path class="b"
         d="M.68997,25.67573c-.19129.19445-.38732.39606-.48836.64941-.17729.44457-.02404.95739.22674,1.36506.93705,1.52323,2.97113,1.93681,4.75825,1.86983s3.61588-.4607,5.33598.02874c.41211-.86704.63272-1.82447.64159-2.78442-1.65754-1.28631-3.95011-1.19849-6.01899-1.54749-.39524-.06667-.88237-.26084-.8785-.66164.00193-.19942.13564-.3705.26603-.5214.57374-.664,1.21279-1.27154,1.90493-1.811.44851-.34958.97864-.82872.81688-1.37388-.13102-.44156-.69075-.63223-1.13798-.51834-1.04454.26674-1.86201,1.68108-2.58312,2.4147-.94743.96387-1.89564,1.92696-2.84346,2.89045v-.00002Z"/>
   <path class="b"
         d="M14.42104,22.70954c-.81231.41451-1.66599.78354-2.34429,1.39312s-1.16177,1.53166-.9717,2.4236c.04436.20816.13431.4217.31301.53731.20764.13434.47735.10378.72155.06475,4.66449-.74555,9.01816-2.75442,13.30339-4.74189-1.82418,2.48542-4.15626,4.59657-6.81116,6.16389-1.01889.60151-2.09801,1.13359-2.95762,1.94663-.76688.72533-1.32319,1.64148-1.84091,2.56137-.80755,1.43486-1.54514,2.9091-2.20926,4.41572.61471-.17308,1.26567-.21621,1.89784-.12574.99034-3.05168,3.71668-5.14448,6.20842-7.16556,3.10376-2.5175,6.05832-5.21892,8.84301-8.08539.2614-.26907.52785-.54969.66188-.90007.11594-.30309.12362-.63516.12988-.95961.01198-.62048.02395-1.24095.03593-1.86143.0025-.12952-.0033-.27808-.1036-.36009-.1054-.08617-.26046-.05494-.39168-.01869-2.68656.74211-5.30974,1.71354-7.83164,2.90028,1.72473-3.98871,5.31167-7.00293,6.75363-11.10235l-3.17656-.96398c-.15438-.04685-.89894,4.00837-1.05947,4.43811-.49988,1.33817-1.45316,2.63968-2.32351,3.75789-1.83587,2.35872-4.18318,4.32276-6.84715,5.68212h0Z"/>

</g>
</svg>
