<?xml version="1.0" encoding="UTF-8"?>
<svg xmlns="http://www.w3.org/2000/svg"
     version="1.1"
     width="73.68839768mm"
     height="37.56117931mm"
     viewBox="0.00000000 0.00000000 208.88047156 106.47266199">

<g transform="scale(6.07147487)">   <defs>
      <style type="text/css"><![CDATA[
      .b {
        fill: #000;
        stroke: #000;
        stroke-linecap: round;
        stroke-linejoin: round;
        stroke-width: .1px;
      }
    ]]></style>
   </defs>
   <path class="b"
         d="M22.767,5.31127c-.39606-1.99608-5.117-2.68004-2.53-4.53905.65897-.47394,2.03497-.56598,2.84595-.66895,1.91101-.24106,1.703.31296,2.09399,2.23193,2.28802.07901,12.638.423,7.99002,4.819-.86298.81703-2.17499.98807-3.26697,1.45407-1.06903.45697-2.00803,1.19502-3.061,1.617-2.66702,1.07098-6.634,1.31192-9.54199,1.15898-.26605-2.87999,4.936-2.67198,6.75299-2.92998.81-.11507,3.98196-.00504,4.31897-.63205.56503-1.05298-2.155-1.291-2.82098-1.23497-1.349.11296-2.95001.67094-4.11002,1.25694-.936.47304-1.659,1.41698-2.70297,1.39102-2.09302-.05298-1.76404-1.771-.01303-2.75005,1.08401-.60591,2.34302-.94893,3.49503-1.3589"/>
   <path class="b"
         d="M22.76703,5.31128c-.39606-1.99606-5.117-2.68002-2.53-4.53906.65897-.47394,2.03494-.56601,2.84595-.66895,1.91101-.242,1.703.31296,2.09399,2.23196,2.28802.07898,12.638.423,7.99002,4.81898-.86298.81703-2.17499.98807-3.26697,1.45406-1.06903.45697-2.00803,1.19504-3.061,1.61702-2.66702,1.07097-6.63403,1.31192-9.54199,1.159-.26605-2.88002,4.936-2.67201,6.75299-2.92999.80896-.11508,3.98196-.00504,4.31897-.63205.56503-1.05299-2.15497-1.291-2.82098-1.23497-1.34903.11296-2.95001.67094-4.11099,1.25694-.93503.47304-1.65802,1.41698-2.702,1.39101-2.09299-.05296-1.76404-1.77098-.01303-2.75003,1.08401-.60593,2.34299-.94891,3.495-1.3589"/>
   <path class="b"
         d="M20.93397,8.27025c-1.31497,1.09698-1.86298,2.22398-3.61496,2.77301-2.27402.71198-4.61005.616-6.97101.92496-3.20905.42-6.84503,2.04404-10.298,1.62.63901-.23097,1.95801-.51796,2.56299-.91301.67502-.44096.827-1.13596,1.677-1.45599,1.80298-.67892,3.94501-.49998,5.92102-.62396,2.43497-.15398,4.06-1.22397,6.33099-1.94104,1.798-.56801,2.19199-.05894,4.008.01302.03696.177-.01999.35501.01801.52705"/>
   <path class="b"
         d="M20.934,8.27025c-1.31497,1.097-1.86298,2.224-3.61496,2.77303-2.27402.71196-4.61005.61499-6.97101.92494-3.20905.42001-6.84503,2.04405-10.29803,1.62001.63901-.23097,1.95804-.51897,2.56302-.91299.67502-.44099.82697-1.13597,1.677-1.457,1.80298-.67793,3.94498-.49898,5.92099-.62297,2.435-.15399,4.06003-1.22397,6.33102-1.94104,1.798-.56801,2.19199-.05894,4.008.013.03696.17702-.01999.35503.01801.52707"/>
   <path class="b"
         d="M31.56299,8.63929c1.31503,1.17499-.06,2.44394-1.27802,3.00299-.66797.30702-1.45898.18298-1.97995.54697-.48703.34201-.73804,1.20602-1.13602,1.67203-.67099.78598-1.60098,2.265-2.289,2.86096-1.31302,1.13501-4.116.60603-5.90997.60603-1.19003,0-4.23605.45598-5.18701-.17999-1.397-.93298-1.31601-2.75099.19196-3.39604,1.13-.48398,2.81903-.29396,4.026-.68105,1.86703-.59694,3.74805-1.19594,5.67105-1.88489-.04001-.06406-.01205-.56609-.01404-.67102-.15201-.02507-.32898.00497-.45398-.06404,1.50699-.21902,3.21198-.17203,4.55698-.842.522-.26097.99399-.96298,1.45703-1.123,1.064-.36897,2.789-.18498,2.52899,1.26199"/>

</g>
</svg>
