<?xml version="1.0" encoding="UTF-8"?>
<svg xmlns="http://www.w3.org/2000/svg"
     version="1.1"
     width="18.42544166mm"
     height="33.62454437mm"
     viewBox="0.00000000 0.00000000 52.22959426 95.31364594">

<g transform="scale(3.49704522)">   <defs>
      <style type="text/css"><![CDATA[
      .b {
        stroke: #000;
        stroke-linecap: round;
        stroke-linejoin: round;
        stroke-width: .01px;
      }
    ]]></style>
   </defs>
   <path class="b"
         d="M1.36263.46203c-.10938.25391-.22266.62109-.24609.82422-.02344.19922-.08203.48828-.12109.64063-.16016.57422-.23828,3.34375-.12891,4.47656.08203.76953.08203,1.37109.00781,2.24219-.07031.89453-.10156,1.10156-.24609,1.75781-.07422.32813-.13672.69141-.13672.80078,0,.11328-.03125.26563-.07031.33594-.08203.14453-.08984,1.22656-.07422,5.14453.00781,1.6875-.01563,2.19922-.12891,2.71875-.07031.35547-.14844.875-.16797,1.16016-.05469,1.03516-.0625,4.92969-.00781,5.12109.03516.11328.12109.41016.19531.65625.18359.64062.26172.6875,1.125.73437.41016.02734.80859.08203.89844.12891.45313.24219.75781-.48047.78125-1.83984.01953-.50391.03516-1.03125.04297-1.16016.00781-.13672-.00781-1.16016-.05078-2.27734-.03906-1.44922-.03125-2.15234.03516-2.44141.04688-.22266.11719-1.17578.16016-2.12109.05469-1.36719.10156-1.89453.26172-2.59766.11328-.48828.25781-1.21094.32812-1.60156.21484-1.23828.39063-2.12891.60156-3.11328.11719-.53516.61328-1.26953,1.25391-1.84766.29688-.25391.67969-.67188.85547-.91797.17578-.24219.48828-.625.70703-.83984.61328-.64844.87109-1.16016.87109-1.74609,0-.42188-.04688-.57422-.32813-1.08594-.30469-.5625-.39453-.6875-.85547-1.28906-.19141-.24219-1.07422-.73438-1.98438-1.12891-.27344-.11328-.61719-.29688-.76172-.40625-.375-.28125-.74219-.38672-1.14453-.33594-.27734.03906-.4375.00781-.87109-.20313C1.88216.11828,1.62826.005,1.60482.005c-.01563,0-.12891.20703-.24219.45703Z"/>
   <path class="b"
         d="M13.50716,14.56359c-.07813.08984-.3125.25781-.51172.37109-.76563.4375-1.89453,1.36719-2.99219,2.44531-.625.625-1.26953,1.22656-1.44922,1.33594-.78125.52734-1.15625.75391-1.52734.92969-.55859.25391-.64063.35938-.51953.71094.10547.32031.59375.76953.83984.76953.08984,0,.25.05469.34375.125.17578.12109.21875.11328.88281-.29297.38281-.23438.95703-.625,1.27734-.875.625-.46094,1.28906-.92578,1.90625-1.30859.19922-.12891.4375-.35547.53516-.49609.09375-.14453.27344-.30469.39063-.34375.12109-.04297.37891-.23438.5625-.42578.51953-.51953,1.18359-1.10547,1.26172-1.10547.03906,0,.16016-.125.27344-.28516.16016-.24219.18359-.32813.10938-.51953-.10156-.28906-.65234-.92969-.94922-1.07422-.28125-.15234-.25781-.15234-.43359.03906Z"/>

</g>
</svg>
