<?xml version="1.0" encoding="UTF-8"?>
<svg xmlns="http://www.w3.org/2000/svg"
     version="1.1"
     width="29.42985776mm"
     height="22.78318218mm"
     viewBox="0.00000000 0.00000000 83.42324343 64.58224537">

<g transform="scale(3.50959183)">   <defs>
      <style type="text/css"><![CDATA[
      .b {
        stroke: #000;
        stroke-linecap: round;
        stroke-linejoin: round;
        stroke-width: .25px;
      }
    ]]></style>
   </defs>
   <path class="b"
         d="M13.51003.68138c-.35782.14595-.787.43165-.68098.80325.05738.20113.25539.3211.41147.46033.69123.61662.61706,1.70435.97447,2.55892.07385.17657.20412.36826.39551.36827.08481,0,.1642-.03947.23808-.08134,1.03982-.58938,2.26783-2.52939,2.13655-3.78132-.15944-1.52049-2.56739-.69834-3.47511-.3281h0Z"/>
   <path class="b"
         d="M11.61475,1.18076c.08375.23956.10224.50158.05294.75053-.60262.19228-1.23644.28641-1.86894.27757.06255-.28255.12511-.5651.18766-.84765l1.35529-.19655c.10872-.01577.16954-.02069.27305.0161Z"/>
   <path class="b"
         d="M7.17336,3.35728c-.40271.45572-.95438.77762-1.54927.90398.44623.30714.89247.61428,1.3387.92142-.79067.54487-1.59684,1.09742-2.51335,1.3839-.39506.12348-.91267.34492-.84054.7525.00322.13647.14256.2532.27749.23244-.81356.78479-1.54649,1.65312-2.18352,2.58692-.69258,1.01522-1.27947,2.12989-1.49487,3.33983s-.02355,2.52992.71643,3.51113c.44705.59279,1.20698,1.06367,1.91176.83012.371-.12294.81044-.41409,1.09417-.14529.14386.1363.16443.36975.31436.49935.14893.12873.37083.11176.5654.08182,1.92862-.29671,3.72873-1.13652,5.45439-2.0474,1.25519-.66255,2.5785-1.47007,3.07871-2.79833.21631-.57438.25566-1.21404.11138-1.8106-2.08854,1.90955-5.07215,2.79518-7.86429,2.33438-.18165-.02998-.37358-.0709-.50549-.19933-.11848-.11536-.16866-.28269-.20367-.44431-.17888-.82568-.07195-1.71048.29846-2.46977.33375-.68414.8707-1.26396,1.12946-1.97983.22755-.62952.22431-1.32372.44783-1.95468.51252-1.44683,2.13527-2.25223,3.66929-2.30488.47849-.01642,1.13863-.13946,1.12442-.61803-.02998-1.00884-1.65737-.32021-2.12415-.3441-.88916-.04551-1.47052-1.14679-2.25308-.26121l-.00002-.00003Z"/>
   <path class="b"
         d="M13.45459,11.59906c.7594.9807,1.02812,1.63883,1.44914,2.80553.22103.61251,1.08543,1.09792,1.72926,1.19542.24759.0375.49763-.03611.73376-.11948.57081-.20154,1.11954-.46554,1.63325-.78576.22248-.13869.44671-.29689.57003-.52825.14112-.26476.12805-.58312.09007-.88073-.19466-1.52557-.94013-2.92866-1.81782-4.19155-.48658-.70013-1.02605-1.38538-1.2936-2.19492s-.20241-1.79626.40874-2.39077c.33158-.32255.78279-.49476,1.13312-.79684s.58389-.84719.31333-1.2224c-.07489-.10386-.18011-.18166-.28781-.25092-1.16383-.74845-2.83636-.57714-3.8243.3917-.23889.23427-.44994.58213-.31298.8874.10492.23386.37032.3412.60807.43698.91703.36943,1.45382,1.39852.21508,1.59088-.95342.14806-1.75313-.30501-2.57458.48202-1.65071,1.58153.25991,4.32439,1.22724,5.57169Z"/>
   <path class="b"
         d="M19.64202,2.99738c-.7866-.41118-1.95413-.36787-2.34766.42771-.33172.67063.05804,1.44947.30351,2.15624.68235,1.96469.17971,4.21164-.98059,5.9377s-2.90947,2.98308-4.76804,3.91654c-.499.25062-1.04759.51906-1.2798,1.02689s.13854,1.2786.68639,1.17053c.24381-.0481.42762-.24704.65439-.34867.1456-.06525.2947-.08759.44624-.08237,1.13493.03914,2.90136-.14611,3.9381-.60956,2.44336-1.09227,3.90275-1.85808,5.70741-3.659.33939-.33868.48473-.82392.43694-1.301-.12484-1.24616.18185-1.56414.41588-1.63265.1412-.04134.24413-.14865.26296-.29456.14543-1.12665.7526-2.25871.4382-3.34052-.3715-1.27825-2.78332-2.77627-3.91394-3.36729h.00001Z"/>

</g>
</svg>
