<?xml version="1.0" encoding="UTF-8"?>
<svg xmlns="http://www.w3.org/2000/svg"
     version="1.1"
     width="34.50748944mm"
     height="41.06258239mm"
     viewBox="0.00000000 0.00000000 97.81644868 116.39782303">

<g transform="scale(3.85854722)">   <defs>
      <style type="text/css"><![CDATA[
      .b {
        stroke: #000;
        stroke-linecap: round;
        stroke-linejoin: round;
        stroke-width: .01px;
      }
    ]]></style>
   </defs>
   <path class="b"
         d="m10.05344.13067c-.32813.06641-.70313.12891-.83984.13672-.12891.01563-.28125.03125-.32813.03125-.04688.00781-.18359.09766-.29688.20313-.18359.15234-.20703.23047-.18359.55859.01563.23047-.01563.43359-.07813.51172-.05859.08203-.11328.20703-.11328.28906,0,.07813-.08984.30469-.19922.48828-.11328.19141-.18359.35938-.16016.38281s-.04688.21484-.16016.42578c-.11328.20703-.19922.50391-.19922.64453,0,.19531-.08203.34766-.28906.57031-.16016.16797-.33594.39844-.39844.51953-.06641.12891-.15234.22266-.19531.22266-.03906,0-.08594.06641-.11719.15234-.02344.08203-.18359.30469-.35938.49609-.17969.19141-.32031.38672-.32031.41797,0,.03906-.12109.32813-.26563.64063-.27344.58984-.49609.80469-.94531.93359-.19922.05469-.26172.03906-.42188-.13672-.29688-.32031-.73047-.4375-1.16797-.32813-.19141.05078-.43359.16016-.51953.25-.08984.07813-.25781.20703-.37109.26953-.11719.07422-.26953.24219-.34375.37891-.07031.13672-.21484.39063-.32813.55859-.10156.17578-.19141.43359-.19141.55859.00781.29688.14453.69141.24219.69141.03906,0,.18359.17578.32031.39844.13281.22266.27734.39844.3125.39844.14844,0,.51172.96094.65234,1.72266.16016.87891.13672,1.05469-.13281,1.125-.11328.02734-.20313.12109-.23438.25781-.05469.25781-.64063.65625-1.65625,1.12109-.87891.39844-.94141.53516-.46094.98438.23047.21484.38281.29297.46094.25391.07422-.02344.22656-.04688.35156-.04688.12109,0,.21875-.02344.21875-.0625,0-.03516.16797-.12109.38281-.20313.20703-.07813.44922-.19141.54297-.24609.09766-.05859.22656-.08984.29688-.05859.07422.02734.19141-.02344.28906-.11719.09375-.09766.25391-.16797.35938-.16797.13672,0,.21484-.07422.28906-.24219.05469-.13672.19141-.32031.30469-.40625.10938-.08984.26172-.28906.33594-.45703.14063-.30469.24609-.42188.70313-.78516.13672-.10938.25391-.25391.25391-.31641,0-.06641.12891-.25.28125-.41016.60156-.63281.79297-1.60156.49609-2.44141-.07031-.20703-.11328-.42969-.08984-.49609.02734-.05469-.01563-.23828-.07813-.39844-.15234-.35938-.12109-.45703.21484-.64844.29688-.17578.72266-.59766.65625-.66406-.02344-.02344.01563-.12891.08203-.23047.07031-.10547.10156-.22656.07813-.25781-.04688-.07813.16016-.34375.61719-.81641.16016-.16797.35156-.40625.41406-.52734.07422-.12109.27344-.36719.44922-.54297.18359-.17578.38281-.42578.44922-.54297.0625-.12109.18359-.28906.26172-.37109.08203-.07813.25-.40625.36719-.71875.12891-.32031.29688-.61719.37891-.65625.07813-.03906.14453-.12109.14453-.17578s.10156-.27344.23828-.48047c.12891-.20703.23047-.46484.22266-.55859-.00781-.10547.09766-.38281.23438-.625.16797-.29688.23047-.51172.20703-.64844-.02344-.10938.01563-.30469.07031-.42969.12891-.25781.10547-.51953-.03906-.50391-.05469.00781-.36719.0625-.69531.125Z"/>
   <path class="b"
         d="m13.61204,1.89239c-.08594.02344-.23047.09766-.32031.15234-.08594.0625-.22266.11328-.30078.11328-.08203,0-.24219.0625-.35156.13281-.30469.20313-.90625.79297-.90625.89844,0,.04688-.21484.29688-.47266.55859-.51172.50391-.72656.90625-.72656,1.32813,0,.21484.03125.27344.22266.3125.23438.05469.60156.45703.61719.6875.01563.19922.24609.41016.38281.35156.07422-.02344.19922.03125.28906.12109.12891.12891.16797.27344.16797.60938,0,.32813.04688.50391.16797.67188.08984.11719.18359.36719.20703.55078.07422.55078-.32813.81641-1.11719.75-.08203-.00781-.24219.05859-.35547.14453-.11719.09766-.26953.14453-.35156.12109-.23828-.07813-.6875.16797-1.16797.65625-.25391.26563-.56641.53516-.6875.61719-.12109.07031-.27734.25391-.35156.40625-.07031.15234-.19141.29688-.25391.32031-.07422.02344-.20313.16016-.28906.29688-.08203.14453-.24219.40625-.34375.58203-.10547.17578-.29688.41016-.42578.51953-.16016.13672-.23828.29688-.26172.51172-.02734.16797-.10547.37109-.19531.44922-.10156.09766-.16797.3125-.20703.65625-.03125.27344-.12891.625-.21484.76953-.08203.14453-.15234.32813-.15234.40625,0,.08203-.08984.3125-.19922.52734-.10547.21875-.23438.5625-.28125.77734-.03906.21484-.15234.52734-.23828.70313-.08984.17578-.16016.35938-.16016.41797,0,.0625-.06641.19922-.13672.30469-.08203.10938-.14453.28516-.15234.39844s-.08984.39844-.19141.64063c-.09766.23828-.19922.57422-.24219.73438-.03125.16797-.10156.35156-.14844.41797-.07422.08594-.08203.16016-.01172.27734.05859.12109.06641.21875,0,.32031-.03906.08984-.07813.26563-.07813.40234,0,.125-.03125.32031-.07031.42188-.05078.12891-.04297.25781.03125.375.0625.12891.07813.28906.03125.48047-.0625.29688.07813,1.06641.29688,1.59375.0625.14453.10938.32031.10938.39844,0,.28906.55469,1.85547.65625,1.85547.08984,0,.38672.60938.38672.80078,0,.08984.03125.16016.07031.16016s.28906.20703.54297.45703c.25781.24609.51953.46484.58594.47266.0625.00781.27734.07031.48047.13672.19922.0625.49609.10938.65625.09375.35938-.02344,1.0625-.51953,1.125-.77734.01563-.10156.09766-.30859.16016-.46094.12109-.27344.11328-.3125-.03906-.64063-.08594-.19922-.16016-.44922-.15234-.55078,0-.10547-.15234-.46484-.34375-.80078s-.375-.69531-.40625-.80859-.16016-.29688-.28906-.41016c-.28125-.26953-.73438-1.00781-.67969-1.10156.02344-.03906-.03906-.27344-.15234-.51172-.10547-.24219-.19141-.50391-.19922-.59375-.03906-.61328-.03906-1,.02344-1.34375.03906-.22266.07813-.58203.09375-.80078.06641-.87891.22656-1.35156.48828-1.45313.08984-.03516.11328-.11328.08203-.27344-.02344-.15234.00781-.28125.12891-.43359.11719-.15234.15234-.26953.10938-.44531-.03125-.18359.04297-.44141.28906-1.01563.17578-.42578.33594-.84766.35156-.9375.03125-.17578.14453-.64844.25781-1.07813.03906-.16016.10938-.36328.16016-.44922.04688-.09766.10156-.25781.125-.35938.02734-.10547.09766-.35156.16797-.55469.07422-.19141.13672-.49609.15234-.67969.02734-.46484.21875-.69531.78516-.94922.28125-.12891.71094-.33594.96094-.46484.4375-.21875.47266-.22656.69531-.10547.39844.20703.44141.36719.21484.9375-.10156.27734-.21484.63281-.23828.78125-.09766.63281-.18359,1.01172-.28906,1.20313-.05469.10156-.11328.375-.12891.59766-.03125.48047-.15234,1.00781-.24609,1.07422-.16016.10156-.34375.45313-.34375.64063,0,.10156-.07422.30078-.16016.44531-.10547.16797-.17578.45703-.19922.80859-.08203,1.15234-.13672,1.52734-.29688,2.00781-.14453.43359-.15234.55078-.07422.86328.05078.20313.08203.39453.05859.42578-.01563.03125.04688.22266.14453.41406.19141.37891.32813.79297.29297.91406-.00781.03125.02734.10156.06641.16016.08594.10156.40625,1.03906.40625,1.19141,0,.16797.67969,1.21484.94531,1.44141.41406.35938.41406.36719.32813.58984-.03906.11328-.05469.3125-.03125.43359.03125.15234.00781.25391-.10547.36719-.07813.07813-.23047.28125-.32813.44141-.09375.16797-.20703.30078-.23828.30078-.09766,0-.27344.41016-.30469.67969-.07422.64063-.03906.79297.23047,1.01172.25781.21484.27344.21484,1.25781.18359.65625-.02734,1.15234-.08203,1.48047-.18359.26953-.08203.67969-.17969.91797-.21094.47266-.0625.44922-.04688.96875-.50391.51172-.44531.66406-.51953.91016-.40625.11328.05469.23438.16797.25781.26172.0625.18359.61719.96875.84766,1.19531.08203.07813.14453.20703.14453.29297,0,.28125.74219.73828,1.23828.76953.17578.00781.55469.07813.83984.15234.57031.14453.67188.15234,1.20313.07813.19922-.03125.46875-.05469.59766-.0625.13672-.00781.35156-.09766.47266-.19922.12891-.09766.30469-.17578.39844-.17578.09766,0,.23438-.06641.29688-.14453.07422-.07422.29688-.28906.49609-.48047.46484-.44141.59375-.97656.375-1.55078-.125-.34375-.39063-.47266-.75-.37891-.12891.04297-.26563.05078-.29688.02734-.03125-.01953-.23047.00781-.44922.05469-.72656.16016-.98828.16016-1.30859-.02344-.17578-.09766-.33594-.24219-.36328-.32813-.02344-.08984-.16797-.36719-.31641-.625-.15234-.25-.27344-.51172-.27344-.58594,0-.23828.17578-.49219.42188-.62891.14453-.08203.37109-.24219.51563-.35938.14063-.12109.39844-.33594.58203-.48047.17578-.14453.32031-.3125.32031-.37891,0-.0625.12891-.375.29688-.69531.28516-.58203.72656-1.09375,1.18359-1.39063.3125-.19922.35938-.23438.63281-.47266.125-.11328.26172-.19922.29297-.19922.10547,0,.3125-.45703.26563-.58594-.02344-.0625.00781-.23828.07031-.39063.10547-.25.09766-.30469-.07031-.64844-.09766-.20703-.28125-.48047-.40625-.60156-.12109-.11719-.32813-.34375-.46484-.49219-.21094-.24219-1.10547-.75391-1.60156-.91406-.08594-.02344-.30469-.24609-.48047-.49609-.17578-.24609-.39844-.51172-.48828-.58203-.19922-.16016-.42969-.57813-.42969-.79297,0-.08203-.04297-.18359-.08984-.23438-.07813-.07813-.16016-.42969-.16797-.74219-.00781-.19922-.20703-1.05469-.375-1.55078-.09766-.29688-.12891-.53125-.08984-.60938.04297-.07031.02734-.18359-.04688-.28125-.11328-.15234-.27344-.64063-.3125-.95703-.07031-.5625-.80859-1.75391-1.12891-1.83203-.10156-.03516-.19141-.08984-.19141-.12891,0-.04688-.0625-.08203-.15234-.08203-.07813,0-.24609-.08594-.375-.19922s-.28125-.24609-.34375-.29688c-.09375-.07813-.34375-.07031-1.40625.06641-.28906.03125-.64844-.09766-.71484-.26563-.03125-.0625.06641-.21484.21875-.36719.35156-.34375.57422-.69531.55078-.89453-.01563-.09766.07031-.30469.18359-.47266.15234-.22656.21484-.44141.24219-.80078.01563-.27344.05469-.55859.08594-.63281.0625-.16797-.14453-.59766-.51172-1.07031-.14453-.18359-.35156-.54688-.46484-.78516-.13672-.28906-.30469-.51172-.48047-.625-.15234-.09375-.28516-.23047-.3125-.29688-.03906-.13281-1.27734-.64453-1.51953-.62891-.08594.00781-.23047.03125-.32031.04688Zm3.24219,9.51953c.08594.11328.16016.26563.16016.32813,0,.07031.05469.19141.12891.26563.13281.15234.18359.34375.23828.91016.01563.17578.0625.51953.11328.76172.04688.23828.11719.71094.16016,1.04688.03125.33594.10156.67969.15234.77734.04688.08594.08594.35156.08594.57422,0,.45703.16797.9375.35938,1.00781.07422.03125.18359.16016.25.28906.17578.34375,1.14453,1.28125,1.48828,1.4375.32813.15234.45313.42578.3125.69922-.09766.16797-1,.67188-1.08203.58984-.01563-.02344-.09766.00781-.16797.06641-.30469.25391-.65625.59766-.6875.67188-.01563.04688-.18359.18359-.375.30078-.19141.12109-.37109.28125-.39453.35547-.02344.0625-.21484.19922-.41406.29297-.19922.08984-.44922.24219-.55078.32813-.09766.08984-.26563.24219-.37891.32813-.10156.09766-.38281.28906-.62109.42578-.39453.22266-.46484.23828-.64844.15234-.12109-.05078-.23438-.17578-.25781-.28125-.03125-.10547-.07813-.18359-.11328-.18359-.03125,0-.10156-.10547-.16016-.23047-.04688-.12891-.14063-.25781-.20703-.28125-.15234-.05469-.35156-.53516-.35156-.83203,0-.13672-.07813-.32031-.20703-.45703-.13672-.14453-.18359-.26172-.14453-.35156.03906-.07031.05469-.28125.04688-.47266-.07031-1.375-.01563-2.21484.16016-2.35156.10547-.08594.11328-.17578.03125-.64844-.05469-.29688-.07031-.57422-.03906-.63281.10547-.16797-.00781-1.14844-.16797-1.46094-.20703-.41016-.19922-.51953.05859-1.02734.35938-.69531.58203-1.28516.53516-1.42969-.04297-.13672.32031-.94531.47266-1.03125.03906-.03125.20703-.04297.35938-.02344.16016.00781.35156-.01953.42969-.05859.25781-.13672.81641-.20703,1.05078-.12891.11719.04297.28516.16016.375.27344Zm3.92578,10.41016c.37109.30078.29688,1.27734-.10938,1.62109-.55469.46484-.90625.73828-1.08984.83203-.10938.05859-.39063.23438-.625.38672-.39063.26172-1.18359.57422-1.34375.51953-.04688-.00781-.17578.04688-.30078.125-.12109.08203-.28906.12891-.37109.10547-.10938-.02344-.24609.05469-.44531.27344-.24219.26172-.33594.3125-.60938.3125-.32031,0-.625-.11328-.72656-.26563-.08203-.12891.14453-.51953.35938-.625.09375-.04688.28906-.20703.41406-.34375.23438-.24609.49609-.41406,1.17578-.74219.16797-.08203.34375-.25.41797-.40234.07813-.16797.19922-.27734.34375-.3125.12109-.03125.26563-.10938.32031-.18359.04688-.07031.26172-.21484.47266-.32813.44531-.23047.48047-.24609.78125-.51953.12891-.10938.28906-.19922.37109-.19922.07031,0,.24609-.08594.39844-.19922.32813-.24219.33594-.24219.56641-.05469Z"/>

</g>
</svg>
