<?xml version="1.0" encoding="UTF-8"?>
<svg xmlns="http://www.w3.org/2000/svg"
     version="1.1"
     width="47.67539827mm"
     height="24.80081224mm"
     viewBox="0.00000000 0.00000000 135.14288271 70.30151358">

<g transform="scale(2.59879414)">   <defs>
      <style type="text/css"><![CDATA[
      .b {
        stroke: #000;
        stroke-linecap: round;
        stroke-linejoin: round;
        stroke-width: .25px;
      }
    ]]></style>
   </defs>
   <path class="b"
         d="M6.21865,1.03475c-.45852.30412-.34222,1.03236-.43052,1.57544-.32257,1.98375-1.79336,3.73823-3.69034,4.40215-.8678.30372-2.04463.68996-1.96935,1.60629.03002.36539.27788.66934.49018.96825,1.06803,1.50376,1.42838,3.48876.95704,5.27197-.10632.40225-.95473,1.17017-.84115,1.57043.09313.32817,1.0473.23479,1.2697.49345,1.27161,1.47899,1.74452,3.60647,1.21923,5.48489.89477.09849,1.78954.19698,2.68432.29548.26528.0292,1.28571.73983,1.51145.59747.20248-.1277.47756-1.77074.5719-1.99075,2.30265-5.36978,3.70374-10.01622,6.0064-15.386.44471-1.03706.89865-2.16388.64086-3.2625C13.98071-.14099,8.56905-.52418,6.21865,1.03475Z"/>
   <path class="b"
         d="M21.35673,3.57092c-.98191,1.21171-1.28967,2.8223-1.50327,4.36722-.68919,4.98494-.73367,10.03374-.77698,15.06591-.003.34906.01711.74942.29025.96676.29905.23796.73003.12872,1.11218.12456,1.53583-.01672,2.82927,1.82527,4.28577,1.33776.79748-.26692,1.75173-1.27346,1.78528-2.11375s-.75829-1.55687-.89955-2.38588c-.35344-2.07415.05578-4.1938.46379-6.25791.55053-2.78514,1.24567-5.8896,1.10139-8.7984-.15189-3.06205-3.486-5.47009-5.85887-2.30627Z"/>
   <path class="b"
         d="M45.52908,5.68163c-1.16621,1.44687-1.43639,3.39678-1.66355,5.24119-.39209,3.18351-.78417,6.36703-1.17626,9.55054-.15258,1.23887-.34832,4.938.30041,6.0044.57748.94927,1.75077-.18557,2.76136.27629.92093.42089,2.1811.04137,2.73152-.80851.26281-.4058.22144-.93009.16561-1.41033-.18497-1.59097.75484-3.18925.95622-4.77823.32027-2.52712.53663-4.77766,1.45163-7.15498.80798-2.09925,1.38324-5.28427-.0825-7.27584-1.32263-1.79712-4.1501-1.25035-5.44444.35547Z"/>

</g>
</svg>
