<?xml version="1.0" encoding="UTF-8"?>
<svg xmlns="http://www.w3.org/2000/svg"
     version="1.1"
     width="23.16584352mm"
     height="29.84054072mm"
     viewBox="0.00000000 0.00000000 65.66689597 84.58734173">

<g transform="scale(6.45746798)">   <defs>
      <style type="text/css"><![CDATA[
      .a {
        stroke: #000;
        stroke-linecap: round;
        stroke-linejoin: round;
        stroke-width: 0.01px;
      }
    ]]></style>
   </defs>
   <path class="a"
         d="M3.82086.03015A1.39686,1.39686,0,0,0,3.22122.7388.725.725,0,0,0,3.306.9932a.59682.59682,0,0,1,.0424.40581,1.26143,1.26143,0,0,0,.01211.45427,8.15,8.15,0,0,1,.103,1.58691c0,.5754.03634.70866.26045.9267a1.033,1.033,0,0,1,.2241.26651c0,.11508.19988.12114.41793.00605.12719-.06056.24833-.103.2665-.08479.05452.05451.27862-.09086.35736-.23622a1.94225,1.94225,0,0,0,.09691-.58752c.01212-.24833.02423-.61175.03634-.79951A1.52932,1.52932,0,0,1,5.22,2.42868a.25541.25541,0,0,0-.00605-.321,1.00437,1.00437,0,0,1-.03029-.66021C5.2382,1.393,5.08678.99321,4.96564.87207A.2827.2827,0,0,1,4.87476.63584a.31223.31223,0,0,0-.103-.25439C4.70517.30271,4.62033.18763,4.584.13311,4.5174.02409,4.11159-.03042,3.82086.03015Z"/>
   <path class="a"
         d="M2.664,6.46258a.467.467,0,0,1-.25439.01212.96566.96566,0,0,0-.82374.50272,1.00826,1.00826,0,0,1-.315.30285c-.26045.07874-.533.34524-.49667.47849a.36252.36252,0,0,1-.08479.27256,2.391,2.391,0,0,0-.24228.424c-.07268.15142-.15748.315-.18777.36341A5.5701,5.5701,0,0,0,.02923,10.4238L.005,11.15063l.19988.34525a.99411.99411,0,0,0,.41187.43609,2.87125,2.87125,0,0,0,1.18716.315,1.76946,1.76946,0,0,1,.54512.07269.745.745,0,0,0,.29679.04845,1.02863,1.02863,0,0,1,.41187.103c.2241.103.23016.103.38158-.01211.11508-.09086.18777-.109.29073-.06663a1.11159,1.11159,0,0,0,.64809-.03634,1.307,1.307,0,0,1,.82374.01211.58787.58787,0,0,0,.7026-.14536.56875.56875,0,0,1,.30891-.109,2.47041,2.47041,0,0,0,.46638-.11508,1.52262,1.52262,0,0,1,.40581-.09691.54951.54951,0,0,0,.26045-.06057c.09085-.04845.16354-.03028.33313.06663.22411.13931.315.29073.45427.72683a.94092.94092,0,0,0,.20595.37542.70075.70075,0,0,0,.75106-.05451,1.2346,1.2346,0,0,1,.24833-.212,3.02,3.02,0,0,0,.60569-1.07813.82786.82786,0,0,1,.1272-.29679c.103-.16959.11508-.23622.06057-.3513a1.305,1.305,0,0,1-.06663-.43c0-.41187-.05451-.55118-.24227-.64809-.15143-.07874-.20594-.07874-.424,0a1.696,1.696,0,0,1-.37553.09085.85678.85678,0,0,0-.36947.27257,2.57431,2.57431,0,0,1-1.1811.62991,1.1064,1.1064,0,0,0-.37552.109c-.212.09691-.30285.109-.41187.06057a.5988.5988,0,0,0-.424.01211,3.96359,3.96359,0,0,1-1.02967.1272.68237.68237,0,0,0-.25439.06057.88321.88321,0,0,1-.73289-.1272c-.109-.109-.109-.12719.0424-.46032a2.49585,2.49585,0,0,0,.17565-.5633,1.14754,1.14754,0,0,1,.0848-.35735.46324.46324,0,0,0,.04845-.26046.54177.54177,0,0,1,.02419-.27255.34555.34555,0,0,0-.06663-.3513.35612.35612,0,0,1-.06662-.35736c.04845-.11508.03634-.218-.06057-.43a.81187.81187,0,0,1-.09085-.36342.29678.29678,0,0,0-.07874-.2241,2.43268,2.43268,0,0,1-.212-.33313c-.07874-.15142-.2241-.25439-.7026-.49061A2.17936,2.17936,0,0,0,2.664,6.46258Zm.02423,2.00484c.09691.109.212.24228.26044.29073a1.3142,1.3142,0,0,1,.27256.61781c0,.07874,0,.19382.00606.26045a3.0287,3.0287,0,0,1-.06663.43.87357.87357,0,0,0,.04846.6602c.12114.33919.12114.34524.00606.46032-.15143.15143-.15143.14537-.60569-.06662-.95094-.45427-1.19322-.642-1.07813-.86008a.47676.47676,0,0,0,.03634-.27862.79893.79893,0,0,1,.12114-.44821c.109-.20594.13325-.315.09085-.38764s-.01211-.19988.11508-.45427A1.2118,1.2118,0,0,1,2.14309,8.316.46149.46149,0,0,1,2.68822,8.46742Z"/>

</g>
</svg>
