<?xml version="1.0" encoding="UTF-8"?>
<svg xmlns="http://www.w3.org/2000/svg"
     version="1.1"
     width="41.27929689mm"
     height="7.53982316mm"
     viewBox="0.00000000 0.00000000 117.01218210 21.37271760">

<g transform="scale(3.07954025)">   <defs>
      <style type="text/css"><![CDATA[
      .b {
        fill: #000;
        stroke: #000;
        stroke-miterlimit: 10;
        stroke-width: .1px;
      }
    ]]></style>
   </defs>
   <path class="b"
         d="M.14379,4.74083c-.49556,1.42733,1.0773,1.20622,2.26553,1.26923,1.77992.09436,4.14721.27375,5.94555.27388,4.12896.0003,7.55361.00592,11.62033-.38675,3.66588-.35397,8.17151-.17925,11.77935.76852,2.50446.65794,3.41276-.16031,4.5042-2.05972.71391-1.24241,1.33531-2.85238,1.67695-4.17964-3.64936-.91742-7.49107.08234-11.28846.46987-4.64107.47363-9.33681.05038-13.99821.26332-2.5295.11555-5.41738.56341-7.77096-.28248.05972.32236-2.23928,1.27589-2.71775,1.56261C1.09031,3.08088.55774,3.54819.1437,4.74079l.00009.00004Z"/>

</g>
</svg>
