<?xml version="1.0" encoding="UTF-8"?>
<svg xmlns="http://www.w3.org/2000/svg"
     version="1.1"
     width="45.08849135mm"
     height="27.81672654mm"
     viewBox="0.00000000 0.00000000 127.80995127 78.85065613">

<g transform="scale(5.32845630)">   <defs>
      <style type="text/css"><![CDATA[
      .b {
        stroke: #000;
        stroke-linecap: round;
        stroke-linejoin: round;
        stroke-width: .25px;
      }
    ]]></style>
   </defs>
   <path class="b"
         d="M1.83804.12671c-.39074.00821-.79557.02696-1.14416.20367C.34529.50709.06847.88621.13491,1.27135c.03877.22473.18486.41624.34677.57684.99814.98999,2.56256,1.04774,3.96839,1.04388-.72335.75301-1.61122,1.32472-2.40696,2.00078s-1.52625,1.50595-1.76584,2.52225c-.06855.29077-.09397.60152.00194.88445.07375.21757.2144.4054.35892.58398.62462.7719,1.37583,1.45718,2.26472,1.89973.68224.33967,1.42771.52878,2.1666.7155,1.23335.31167,2.4667.62333,3.70005.935,1.20424.30431,3.99284.701,5.22557.85326,1.8659.23046,2.39076.28671,3.46949.83268,1.42725.72237,2.28358.65023,3.83957.27904.7079-.16887.96765-.18591,1.61909-.51034.35627-.17743.63847-.843.82162-1.19637.20568-.39683.12809-.91411-.14754-1.26598-.75641-.96558-2.1608-.98096-3.13641-.88818-3.77063.35858-7.59181-.65687-11.05731-2.18541-.42902-.18923-.86161-.39609-1.19711-.72366s-.56256-.80039-.48432-1.26272c.06198-.36623.30044-.67429.53111-.96542.41548-.52436.83095-1.04871,1.24643-1.57307.27462-.34659.56498-.74515.51219-1.18417-.05351-.44499-.57845-.69997-.9278-.43618,1.02517-1.08656-1.06438-1.71139-1.98172-1.64168C5.29681.70277,3.65189.08859,1.83804.12671Z"/>

</g>
</svg>
