<?xml version="1.0" encoding="UTF-8"?>
<svg xmlns="http://www.w3.org/2000/svg"
     version="1.1"
     width="21.03923964mm"
     height="44.35081290mm"
     viewBox="0.00000000 0.00000000 59.63876518 125.71882354">

<g transform="scale(2.59879414)">   <defs>
      <style type="text/css"><![CDATA[
      .b {
        stroke: #000;
        stroke-linecap: round;
        stroke-linejoin: round;
        stroke-width: .25px;
      }
    ]]></style>
   </defs>
   <path class="b"
         d="M11.11632.56979c-1.90945.26062-3.24068.60045-4.76385,1.52134-.94113.56899-2.16132,1.16524-2.72577,2.10911-.83622,1.39833-1.49236,2.82177-2.1834,4.29726-.7245,1.54693-1.67361,2.88496-1.18329,4.52126.36446,1.21628,1.71252,1.93648,2.93474,2.2805,1.22222.34402,2.59979,1.66067,3.54518.81308,1.64608-1.47581,1.69154-3.98771,2.48998-6.04928.5956-1.53782.30432-1.95961,1.66787-2.88717.32696-.22242,2.0317-.63105,2.42578-.66381.88857-.07388.62959.59659.77061,1.477s.25687,1.41279.56667,2.06466c.77866-.14714,1.7173.08818,2.0553.80492s-.43673,1.75562-1.14963,1.40959c-.82717-.4015-.91674-2.10931-1.79171-1.82678-.40951.13223-.51152.65447-.54431,1.08355-.10822,1.41589-.21643,2.83177-.32465,4.24766-.03671.4803-.06349,1.00127.20317,1.40242.30662.46127.90345.61926,1.45143.69991,1.17737.17328,2.38295.15335,3.55394-.05875.57932-.10493,1.2102-.29994,1.50546-.8093.27274-.47051.06028-1.06014.13592-1.59869.41735-2.97139,2.0204-6.00496,2.80715-9.11228C24.44355-1.13175,15.68776-.05417,11.11632.56979Z"/>
   <path class="b"
         d="M8.05631,37.24646c-1.28247,1.19447-2.88063,1.98256-4.33729,2.95706s-2.84462,2.23959-3.33826,3.9212c-.10425.35514-.16591.73466-.08045,1.09479.09753.41104.37419.75261.64288,1.0786.52444.63626,1.07221,1.29131,1.81313,1.6531,1.77826.86834,3.92229-.2814,5.219-1.77632s2.17352-3.36444,3.70391-4.61909c1.23836-1.01525,2.83141-1.56131,3.96562-2.69173s1.54521-3.29522.21885-4.19245c-.47264-.31972-1.2089-.73295-.91785-1.22376.73882-.28997,1.60817-.75853,2.33451-.43858,1.95122.8595,1.4993-.98772,1.22053-1.73084-.23009-.61336-.98225-.81308-1.62719-.92799-1.35764-.24189-2.71528-.48378-4.07293-.72567-.24459-.04358-.50774-.08497-.73253.02082-.28901.13602-.42103.46707-.52715.76835-.44308,1.25794-.81009,2.58308-1.35739,3.80019-.52289,1.16283-1.16273,2.21602-2.12739,3.03232Z"/>
   <path class="b"
         d="M3.69735,17.14943c-.67311,1.3322-.69331,2.89949-.52207,4.38223.04634.4013.10954.81273.31436,1.16093.62005,1.0541,2.71254.2826,3.92591.12989,1.60823-.2024,3.39118.2024,4.99941,0,.67902-.08546,2.75873-.19302,3.31655.20347s-.6058,1.21671-1.26075,1.41524c-.16997.05152-1.25662-.23986-1.40406-.14083-.65174.43772-1.89727.40584-2.84678.31882-.78333-.07179-1.55674.01582-2.32377.19025-3.69148.8395-1.77893,2.53017-1.92099,4.11426-.0326.36347-1.02569,2.08991-.77131,2.35156.18914.19456,1.74779.08208,2.01905.08904,3.60098.09251,4.98283-.26168,7.62286.16301,1.06487.1713,2.16308.34166,3.21212.09105,2.55408-.61016,3.94025-3.60146,3.64893-6.2112-.19662-1.76136-.96936-3.43203-1.05651-5.20218-.06608-1.34226.25888-2.74293-.21481-4.00056-.7174-1.90468-2.93969-2.71926-4.93678-3.11184-.36602-.07195-.76294-.13384-1.09795.0302-.94402.46226-.6402,2.088-1.22322,2.85452-.7844,1.03128-2.71303.8663-3.76698.48852-2.53592-.90898-3.99312-2.72065-5.71319.68363h-.00002Z"/>

</g>
</svg>
