<?xml version="1.0" encoding="UTF-8"?>
<svg xmlns="http://www.w3.org/2000/svg"
     version="1.1"
     width="56.37280816mm"
     height="38.20902965mm"
     viewBox="0.00000000 0.00000000 159.79693581 108.30909136">

<g transform="scale(3.02162081)">   <defs>
      <style type="text/css"><![CDATA[
      .b {
        fill: #000;
        stroke: #000;
        stroke-miterlimit: 10;
        stroke-width: .25px;
      }
    ]]></style>
   </defs>
   <path class="b"
         d="M49.38289,10.35385c.54248-.50172,1.08495-1.00344,1.62743-1.50516.59673-.5519,1.21006-1.1268,1.53159-1.8743.56365-1.31037-.00806-3.00356-1.24961-3.70089s-2.97982-.30156-3.79942.86505c-.96676,1.37608-.60155,3.30377-1.28872,4.83956-.25255.56444-.63927,1.05607-1.02203,1.54126-.93738,1.18821-1.87476,2.37643-2.81214,3.56464-.37871.48004-.77487.9747-1.31935,1.25131-.68219.34657-1.48591.29863-2.24924.34491-3.25614.19741-6.1175,2.20718-9.2935,2.95376-1.19056.27986-2.42684.38214-3.57738.79756-4.60762,1.66367-6.69022,7.81758-11.48043,8.83832-2.09567.44656-4.26469-.2265-6.40494-.12916-3.18455.14483-6.21895,2.14301-7.61726,5.01602-.43042.88435-.50015,2.27816.44832,2.53041.67924.18065,1.29055-.42498,1.74192-.96511,1.24306-1.48751,2.6453-2.99391,4.5059-3.52778,1.69039-.48503,3.48863-.09028,5.2235.19613,2.60377.42985,5.49022.54822,7.65281-.96826,1.1991-.84085,2.03375-2.09231,2.92684-3.25461,2.67517-3.48155,6.23948-6.44517,10.47634-7.56969,1.60537-.42609,3.27131-.58099,4.88406-.97805,2.33514-.5749,6.22195-1.6546,8.04051-3.29415.64251-.57926.68279-1.25129.965-2.02889.26413-.72777,2.0898-2.51058,2.08981-2.94288Z"/>
   <path class="b"
         d="M42.14672.14188c.32436-.02367.66626-.0442.95876.0984.6864.33462.69144,1.36341.28791,2.01307-.40353.64966-1.07148,1.08897-1.53593,1.69633-.74114.96919-.89168,2.25292-1.33628,3.39-.46444,1.1878-1.25159,2.21474-1.91367,3.30421-1.26595,2.08312-2.08763,4.43631-2.39408,6.8564-.04865.38417-.09504.79564-.34503,1.09078-.5106.60282-1.47345.35794-2.20517.06281.06064-2.99793.39133-6.24811,2.42526-8.44596.46666-.50427,1.01433-.9406,1.39382-1.51372.66117-.99853.7241-2.26354,1.05088-3.4165.35983-1.26958.31902-2.74007.6954-3.93079.4342-1.37362,1.60614-1.10927,2.91815-1.20503h-.00002Z"/>

</g>
</svg>
