<?xml version="1.0" encoding="UTF-8"?>
<svg xmlns="http://www.w3.org/2000/svg"
     version="1.1"
     width="33.69160918mm"
     height="56.76969599mm"
     viewBox="0.00000000 0.00000000 95.50379908 160.92195311">

<g transform="scale(4.18276782)">   <defs>
      <style type="text/css"><![CDATA[
      .b {
        stroke: #000;
        stroke-linecap: round;
        stroke-linejoin: round;
        stroke-width: .01px;
      }
    ]]></style>
   </defs>
   <path class="b"
         d="m6.19535.02961c-.50391.15234-.83984.48828-.83984.84766,0,.07031.18359.45313.40625.84766.38281.64844.45703.72656.84766.91016.44141.21094.49609.28125.65625.875.04688.17578.16016.55078.25781.83984.20703.62891.23828,1.18359.10156,1.72656-.04688.22266-.10156.65625-.11719.96094-.01172.30469-.06641.62891-.12891.72656-.05859.09766-.10547.23047-.10547.30469,0,.07031-.07031.26172-.15234.42188-.19922.40234-.34375,1.19531-.24609,1.37109.10938.21484-.09766.45313-.53516.61328-.21875.08203-.45703.19141-.54688.25-.08594.05469-.21484.10156-.27734.10156-.07422,0-.21094.10547-.30469.24219-.19922.26172-.72266.55859-.89063.49609-.05469-.01563-.125,0-.16016.03906-.04688.08203-.76563.45703-1.38281.72656-.33594.15234-.39063.16016-.50391.05078-.17578-.17578-.22266-.44922-.12891-.70313.05078-.12109.08984-.32031.08984-.44922s.05469-.28125.12109-.35156c.17578-.17578.15234-.25781-.13672-.43359-.28906-.16016-.86328-.23047-.86328-.10156,0,.04688-.08984.10156-.20313.13281-.125.03516-.22266.13672-.27734.32031-.05078.15234-.12109.27344-.16016.27344-.08203,0-.21875.35156-.27344.72656-.03125.16016-.13672.46484-.23828.67188-.22656.43359-.26563,1.04297-.08203,1.21875.06641.0625.09766.14063.07422.18359-.02344.03906.10938.19141.30078.35156.30469.24609.37891.27734.59375.21484.18359-.05469.29688-.03906.42578.04688.10938.08203.24609.10547.38281.06641.12109-.02344.29688-.05078.39844-.05078.09766.01172.19922-.03906.22656-.10156.02344-.05469.19141-.17578.375-.25781.18359-.07813.44141-.22266.55859-.32813.12891-.10156.28125-.18359.34375-.18359.06641,0,.25781-.08594.42578-.19141.16797-.11328.42969-.24609.57422-.3125.15234-.0625.43359-.22266.63281-.36719.95313-.66406,1.20703-.81641,1.45703-.85547.14453-.02344.30469-.00781.35156.02344.15234.11328.42188.71094.48047,1.08203.03125.18359.10937.42188.17578.51953.17578.27734-.10547.65625-.92969,1.19141-.75.49609-1.01563.75781-1.07813,1.07031-.02344.11328-.12109.28906-.20703.39453-.09766.10156-.16797.26172-.16797.34375,0,.07813-.06641.26172-.13672.40625-.25781.48828-.37891,2.56641-.17578,3.0625.39844.98438.51172,1.48828.50391,2.35547,0,.58203-.03125.74219-.22656,1.11719-.125.24219-.30859.55469-.41406.69531-.10547.13672-.19141.28906-.19141.32813,0,.04297-.06641.16016-.15234.26563-.08203.10547-.16797.35938-.19922.56641-.05078.32813-.03516.38672.10156.46484.10547.05859.22656.05859.30469.01563.08203-.03906.19141-.05469.24219-.03906.11719.03906.91016-.39063,1.07031-.58203.16016-.19531.54297-.37109.71094-.3125.08203.02344.17578.125.20703.22266.02734.09766.12109.25781.21875.35156.16016.17578.19922.32031.40625,1.54297.06641.32813.16797.74609.25.92188.08594.20703.15234.58984.17578,1.07813.03125.76953.07031.95313.29688,1.58594.07031.18359.10938.42187.07813.52734-.02344.11328.01563.28906.11328.44922.14453.23047.15234.28516.05469.51172-.0625.14453-.07813.29688-.04688.35156.04688.08594.03906.375-.03125,1.25391-.01953.17969-.03516.66406-.04297,1.08203-.00781.46484-.0625.86328-.13672,1.03906-.14844.36719-.14844.73828.01172.97656.10156.16016.10938.21484.01563.35156-.15234.22656-.14453.65625.01563.71094.07031.02734.19141.14453.26953.27344.10547.19141.18359.24219.40234.23047.14453,0,.35156-.04688.46484-.10156.15625-.08203.23828-.08984.38281-.00781.19141.10156.42969.10156.71875.01563.12891-.03906.27344-.00781.46484.11328.19922.10938.34375.14063.46484.10156.08594-.03125.33594-.04688.55078-.03125.25781.01563.48047-.02344.67969-.12891.35938-.18359,1.30469-.18359,1.83984,0,.29688.10547.39453.10547.60938.01563.14453-.0625.29688-.07813.34375-.05469.07813.05469.99219.04688,2.26172-.00781.20313-.00781.39453-.05469.42578-.11328.03125-.05469.21484-.14453.39844-.19141.28906-.07812.42578-.11328.71484-.14453.02344-.00781.13281-.07813.23828-.16797.24219-.20703,1.23047-.71875,1.38281-.71875.06641,0,.12109-.03125.12109-.08203,0-.03906.14453-.14844.32031-.23828.18359-.09766.34375-.21484.36719-.28125.02344-.0625.17578-.16016.32813-.21484.51172-.18359.73047-.92969.33594-1.16797-.13672-.08984-.24609-.07031-.65625.07031-.26953.09766-.62109.26563-.78125.37109-.16016.10156-.33594.16797-.40234.14453-.17578-.07422-.52734-.69141-.58984-1.02734-.03516-.16016-.08984-.29297-.12109-.29297-.05469,0-.25781-.41797-.28906-.60156-.00781-.04688-.07813-.22266-.16016-.39844-.16016-.37109-.22266-1.23438-.10938-1.625.04688-.19141.03906-.32813-.05859-.51953-.07031-.14453-.16016-.32031-.19922-.40234-.12891-.26172-.46484-1.375-.46484-1.54297,0-.21484-.28516-.48047-.48828-.44922-.07813.01563-.21484-.01563-.30469-.0625-.26953-.14453-.72656.22266-.98047.77734-.12109.25391-.39453.64844-.60156.87891s-.55859.61719-.78516.86328c-.21484.25-.48828.49609-.59766.55078-.11328.06641-.28906.19531-.39453.28125-.10156.09766-.23047.16797-.27734.16797-.05078,0-.15234.07422-.23438.16016-.16016.19141-.24609.19922-.39844.03906-.12891-.11719-.12109-.44531.00781-.87891.03906-.13672.05469-.28906.03906-.33594-.02344-.05469.00781-.23047.05469-.38281.05078-.15234.11328-.41797.12891-.57813.01563-.16797.05859-.36719.08203-.4375.08594-.28906.09375-1.23438.01563-1.51172-.06641-.21875-.05859-.33594.01563-.47266.11328-.21875.17578-.88281.08594-.88281-.14063,0-.23828-.39063-.16016-.67188.05078-.16016.05859-.32813.03516-.36719s-.06641-.30469-.08203-.58203c-.03906-.59375.11328-.91406.53516-1.17578.44922-.27344.78516-.32813,1.25-.21094.22266.05859.45703.07422.51172.04297.05469-.04297.16016-.05078.23047-.03516.16797.05859.67969-.17578,1.05859-.47656.25391-.21094.29297-.28906.29297-.57031,0-.23047-.04688-.36719-.17578-.48828-.27734-.24609-.66406-.35156-.93359-.25391-.19922.07031-.29688.04688-.60156-.12891-.23828-.14453-.39063-.29688-.45703-.47266-.05469-.14453-.19922-.32813-.31641-.41406-.28125-.1875-.65625-1.01563-.67188-1.49609-.01172-.18359-.07422-.45703-.15234-.60938-.09766-.17578-.12891-.35156-.09766-.50391s.00781-.28125-.0625-.35156c-.08984-.08984-.09766-.17578-.04297-.40234.06641-.20703.05859-.30859-.01563-.39844-.05469-.0625-.10156-.21484-.11719-.33594-.00781-.12109-.06641-.35938-.11328-.53516-.05469-.17578-.11328-.44922-.13672-.60156s-.12891-.35938-.23047-.46484c-.10547-.10156-.19141-.24609-.19141-.31641,0-.17969-.43359-.86719-.66406-1.07422-.25781-.21484-.90625-.54297-1.08984-.54297-.26563,0-.54297-.16797-.64063-.375-.07813-.1875-.05469-.23438.32813-.60156.23438-.21484.57813-.46484.75391-.54297.36719-.16016.84766-.15234,1.02344.01563.0625.05469.35156.24609.64063.42188.28516.17578.52734.34375.52734.37891,0,.03906.03906.0625.07813.0625.05078,0,.21875.05469.38672.12891.16016.07813.36719.14453.46094.15234.08984.00781.21094.03906.25781.07031.05469.03125.17578.07422.27344.08984.09375.02344.20703.07031.24609.10938.04688.05078.15234.05078.25781.00781.10938-.03906.30078-.03906.46875.00781.23438.06641.34766.05078.59375-.07813.17578-.08984.33594-.13672.36719-.11328.02344.02344.19922-.10938.38672-.3125.54297-.58203.69531-.73438.83984-.87891.22266-.20703.29297-.32031.40625-.63281.10547-.3125.0625-.50391-.16016-.74219-.28906-.3125-.95313-.3125-1.23047-.00781-.10547.10938-.19531.23828-.19531.28516,0,.19531-.33594.39453-.66016.39453-.28125,0-.43359-.06641-.77734-.32031-.30469-.23047-.50391-.32031-.70313-.32031-.15234,0-.39453-.07031-.53906-.16016-.13281-.08594-.53516-.20703-.87891-.28125-.55078-.10156-.64063-.10156-.85547.00781-.13672.07422-.32813.10547-.43359.08203-.20703-.05469-.45313-.45703-.38281-.63281.02344-.07031-.01563-.23828-.09375-.38281-.07422-.15234-.13672-.45703-.13672-.71094-.00781-.25-.05859-.48828-.11328-.54688-.09766-.09375-.16016-.64844-.10547-.85547.01953-.04688.04297-.22266.05078-.39844.09375-1.16016.11719-1.40235.14453-1.72266.0625-.64453.11719-.94922.20703-1.11719.04688-.09766.12109-.37891.16797-.625.09375-.60938.16016-2.33594.08594-2.33594-.03906,0-.125-.12891-.19922-.28125-.09375-.20703-.18359-.27734-.32031-.27734-.10938,0-.27734-.07422-.39063-.15234-.24219-.19141-.46484-.15234-.84766.13281-.36719.28125-.5625.75391-.73047,1.78516-.03125.20703-.10938.46484-.18359.57031-.07813.11719-.10156.23828-.0625.30078.07813.12891-.05469.45703-.20703.51172-.12891.05078-.35156-.14844-.35156-.31641,0-.07422.03906-.19531.07813-.27344.09766-.17578-.18359-.74609-.72656-1.48047C8.30472.65071,6.77738-.14617,6.19535.02961Zm3.86328,4.55078c.16797.10547.25391.61719.29688,1.75.03125.67578.07813,1.15234.15234,1.28125.05469.12109.08594.32813.07031.46484-.02344.15234.00781.33594.07813.44141.06641.10156.14453.32813.16797.48828.06641.36719.39453.94922.69922,1.25391.26172.27344.24609.38281-.10547.60938-.13672.08594-.33594.21484-.44141.27734-.10156.06641-.19922.17578-.22266.25-.11328.34375-1.19141,1.16797-1.36719,1.04688-.18359-.12891-.43359-.52734-.43359-.69531,0-.19922-.38281-.83984-.49609-.83984-.03906,0-.12891-.12891-.19141-.28125-.0625-.16016-.19922-.32813-.3125-.375-.23828-.11328-.30469-.26563-.16016-.41797.06641-.05469.08984-.125.06641-.14844-.02734-.03516.02344-.15234.10156-.27344.08203-.12109.13672-.25781.12891-.28906-.01563-.0625.20703-.54297.29688-.61328.02344-.02734.12109-.20313.21484-.40234.08984-.19922.28906-.60938.43359-.91797.15234-.30469.26172-.625.25391-.71484-.00781-.18359.10547-.42188.32813-.66406.15234-.17578.15234-.19141.03125-.51172-.10156-.25391-.10938-.36719-.03906-.50391.14453-.26953.27344-.33594.44922-.21484Zm.88672,10.32031c.48047.32813.73047.59766.73047.81641,0,.07813.03125.16016.07031.19141.10547.05469.40625.87109.48047,1.29688.07813.40625-.02344.58984-.41016.74219-.60547.23438-1,.44922-1.28516.69531-.16016.14453-.35156.26563-.41797.26563-.0625,0-.16797.12891-.23047.28125-.06641.15234-.16016.27734-.20703.27734-.05078,0-.24219.15234-.43359.33594-.81641.79297-.92969.86328-1.13672.72266-.11328-.07422-.42969-.69922-.42969-.83984,0-.06641-.06641-.27344-.14453-.46484-.22656-.51953-.17578-2.47266.05469-2.47266.03906,0,.14453-.21484.23828-.48047.16016-.44141.20313-.48047.48828-.55859.29688-.08203.64063-.34375.64063-.49609,0-.12109.64844-.53516.76172-.48828.0625.02344.17578-.01563.23828-.08984.17578-.17578.45703-.09375.99219.26563Zm1.71875,4.53516c.13672.13672.13672.12109.17969.71094.03125.58594.29297,1.3125.51953,1.48047.10938.08203.38281.88281.34375.99219-.10547.26563-.50391.20703-.66406-.09375-.04297-.08203-.23438-.25-.42578-.37891-.19141-.125-.44531-.32031-.56641-.41406-.21875-.17578-1.05859-.48047-1.20703-.43359-.16797.04297-.44141-.07813-.48828-.23047-.07422-.23438.07813-.44922.4375-.59375.17578-.07031.32031-.16016.32031-.20703s.09766-.12891.22656-.18359c.23828-.10547.34375-.17578.62109-.43359.19922-.18359.44141-.33594.52734-.34375.03516,0,.11328.05859.17578.12891Zm-2.55078,3.39063c.22656.12891.49609.27344.61719.32031.38281.16016.65625.60938.67188,1.11328.01563.52734.07813.84766.23047,1.13672.06641.11328.11328.41406.11328.67969-.00781.60156.05469,1.02344.20703,1.3125.11328.20703.12891.35938.11328.87891-.00781.11328.00781.48828.03906.83984.02344.35156.04688.67188.04688.71875.00781.04297-.02344.54688-.0625,1.12109-.04688.71094-.11328,1.12109-.19922,1.29688-.08203.15234-.13672.44141-.13672.6875,0,.33594-.04688.50391-.19922.73438-.20703.30469-.40234,1.03516-.3125,1.17969.0625.10156-.19922.67969-.33594.73438-.22266.08594-.36719-.19141-.3125-.625.04688-.39063.04688-.58203.03906-1.28906-.00781-.62109.04297-1.13281.12891-1.24609.04688-.0625.07031-.29688.04688-.51172-.03125-.43359-.03906-.76172-.03125-1.08203.02344-.52734-.04688-1.03125-.16797-1.30859-.07031-.16797-.11328-.33594-.08594-.37891.02344-.03906.00781-.07031-.03516-.07031-.16016,0-.16797-.26563-.01563-.55859.14453-.28125.14453-.34766.05078-.92969-.06641-.35156-.09766-.65625-.07422-.69531.08203-.13672-.66406-1.84766-.96094-2.19141-.07813-.08984-.17578-.28906-.21484-.44141-.03125-.14453-.07031-.30469-.07813-.34375-.00781-.04688-.01563-.28906-.00781-.54297.00781-.34375.04688-.49609.16797-.61719.20703-.20703.27734-.19922.75781.07813Zm6.74609,9.34766c.05469.03906.10938.14063.13281.23047.01953.09375.08203.25391.14453.35938.06641.10547.14453.28906.17578.41797.02734.13281.13672.31641.25.42188.10156.09766.19141.25.19141.32813,0,.08984.12109.24219.27344.34375.17578.12109.34375.35156.48828.66406.11719.27344.33594.60156.48438.74609.15234.14063.25.30078.22656.36719-.03125.09375-.83203.51172-1.15234.60547-.12109.03516-.53516.03516-.9375.00781-.26172-.01563-.82422-.19141-1.15234-.36719-.125-.0625-.26172-.10156-.30078-.07813-.03516.02344-.1875.00781-.33594-.03125-.35547-.09766-.80078-.17578-.95313-.17578-.33594,0-.95313-.24219-1-.39453-.06641-.19141.11328-.48047.42969-.71875.12891-.09766.29688-.3125.37109-.48047.07813-.16797.20703-.32813.27734-.35156.08203-.02344.18359-.14453.23438-.26563.05469-.125.16797-.27734.25391-.34375.09766-.0625.25781-.19141.35938-.29688.11328-.09375.24219-.17578.29688-.17578.08984,0,.48047-.35156.80078-.71875.14453-.16797.27344-.19922.44141-.09375Z"/>

</g>
</svg>
