<?xml version="1.0" encoding="UTF-8"?>
<svg xmlns="http://www.w3.org/2000/svg"
     version="1.1"
     width="44.00628478mm"
     height="24.81481803mm"
     viewBox="0.00000000 0.00000000 124.74215889 70.34127347">

<g transform="scale(5.79267105)">   <defs>
      <style type="text/css"><![CDATA[
      .a {
        fill: #000;
        stroke: #000;
        stroke-miterlimit: 2.61313;
        stroke-width: 0.28346px;
      }
    ]]></style>
   </defs>
   <path class="a"
         d="M5.93848,10.41162c-3.375-.83789-3.19922-2.91113-2.0293-5.33057A13.485,13.485,0,0,1,9.0166,2.25146C12.791,3.1167,11.93848.582,10.32617.14551,7.1377.75537,4.05957,1.73975,1.748,5.34424c-1.98535,2.57715-2.26953,4.72754-.06543,6.252,2.59277,1.01953,3.43164-.07422,4.25586-1.18457Z"/>
   <path class="a"
         d="M9.21289,1.13232q1.14551-1.24951,2.55371.13184c.49707.60059.5293,2.1377.65527,3.48779a3.38046,3.38046,0,0,0,1.96387,2.56689,11.01529,11.01529,0,0,1,3.4707.6582,7.96391,7.96391,0,0,1,3.53613.06543c0,.32813-.2627.48242-.78613.46q-.06592.561-.13086,1.11914a27.64514,27.64514,0,0,1-4.32227.72363q-1.57031.55957-5.5-.72363A10.21611,10.21611,0,0,1,9.0166,3.76465a4.28593,4.28593,0,0,1,.19629-2.63232Z"/>

</g>
</svg>
