<?xml version="1.0" encoding="UTF-8"?>
<svg xmlns="http://www.w3.org/2000/svg"
     version="1.1"
     width="37.33236113mm"
     height="30.13728460mm"
     viewBox="0.00000000 0.00000000 105.82399596 85.42850211">

<g transform="scale(5.59901992)">   <defs>
      <style type="text/css"><![CDATA[
      .a {
        stroke: #000;
        stroke-miterlimit: 2.61313;
        stroke-width: 0.28346px;
      }
    ]]></style>
   </defs>
   <path class="a"
         d="M.999,6.24951c-.103-2.3999.43506-3.83691,2.19531-3.44287C5.07324,4.18506,3.40479,6.98,2.4458,9.49219c-.36719,1.626.93018,2.31543,2.69434,2.74316-1.13086.88184-2.59473.93164-4.78955-.84766C.04443,9.6748.96289,7.96191.999,6.24951Z"/>
   <path class="a"
         d="M.4502,4.80225a3.85182,3.85182,0,0,1,3.39258-3.542q3.991,1.522,4.58984,3.8418,1.1228,2.06982,2.24512,4.14111c.00635,2.10352-1.02783,2.25488-2.09521,2.34375q-1.1228,1.02246-1.64648-.14844a44.66489,44.66489,0,0,1-2.74414-4.1416c-.78271-.49268-1.14844-1.312-1.68115-1.59424C1.374,5.73145.75684,5.54.4502,4.80225Z"/>
   <path class="a"
         d="M11.57568,4.90234C10.686,3.42676,12.22461,2.1709,14.26953.96094q-.07471-.22485-.14941-.44873c.09961-.11621.2002-.23291.2998-.34961,1.17969.35791,1.62891,1.72168,1.74609,3.54248.06152,3.41553.48926,7.1748-1.79687,8.38184a7.24514,7.24514,0,0,1-2.39453,0q.09961-1.47363.19922-2.94336c-.98975-.78174-.93994-2.395-.59814-4.24121Z"/>
   <path class="a"
         d="M.15088,15.03027q.09961-1.522.19971-3.043Q8.657,10.83887,16.96387,9.69238a1.82442,1.82442,0,0,1,1.19727,3.19238,5.08122,5.08122,0,0,1-2.09473.19922q-3.64307.44971-7.28467.89844A20.02155,20.02155,0,0,1,.15088,15.03027Z"/>

</g>
</svg>
