<?xml version="1.0" encoding="UTF-8"?>
<svg xmlns="http://www.w3.org/2000/svg"
     version="1.1"
     width="45.70226344mm"
     height="15.11826649mm"
     viewBox="0.00000000 0.00000000 129.54970236 42.85490467">

<g transform="scale(3.38065749)">   <defs>
      <style type="text/css"><![CDATA[
      .b {
        stroke: #000;
        stroke-linecap: round;
        stroke-linejoin: round;
        stroke-width: .25px;
      }
    ]]></style>
   </defs>
   <path class="b"
         d="M11.9626,1.08639c-1.22245.65707-2.12775,2.12884-1.67024,3.43911.47431,1.35837,2.16527,1.92429,3.58915,1.71758s2.69551-.96957,4.03517-1.4944c4.00429-1.56874,8.81136-.87551,12.20925,1.7607.27779.21552.56365.47075.62996.81603.13615.70889-.68153,1.20013-1.37149,1.41231-6.91502,2.12648-14.41568-.63005-21.58967.30449-.55063-.76235.12686-1.86798.98183-2.25963.85497-.39165,1.84653-.38194,2.71639-.7393.47772-.19626.9504-.56796.99872-1.08216.08363-.89-1.84177-2.48799-2.73444-2.53512C5.52516,2.20257,2.05763,5.80021.125,9.57187c.50599.80561,5.73732,2.4177,6.67185,2.59568,5.85059,1.11424,11.53679-.56124,17.4917-.46105,5.27647.08877,7.47325-1.34594,11.67732-3.41913,1.53021-.75461,2.51628-1.46853,2.15543-3.1361-.28839-1.33268-1.56101-2.19714-2.78364-2.8008C31.33022.37187,27.34448.14189,22.9755.30952c-3.39486.13026-7.94287-.87328-11.0129.77686h0Z"/>

</g>
</svg>
