<?xml version="1.0" encoding="UTF-8"?>
<svg xmlns="http://www.w3.org/2000/svg"
     version="1.1"
     width="60.67986144mm"
     height="78.61809154mm"
     viewBox="0.00000000 0.00000000 172.00591805 222.85448789">

<g transform="scale(7.37785852)">   <defs>
      <style type="text/css"><![CDATA[
      .b {
        fill: #000;
        stroke: #000;
        stroke-linecap: round;
        stroke-linejoin: round;
        stroke-width: .01px;
      }
    ]]></style>
   </defs>
   <path class="b"
         d="M18.86478.05818c-.05078.05078-.15234.08984-.23438.09766-.19922.01563-.98438.43359-.98438.52734,0,.08984-.50391.35156-.81641.43359-.13281.03125-.32031.19141-.47656.41406-.14453.20703-.35547.47266-.46484.59375-.11328.11719-.32813.46484-.48047.76563-.29688.58594-.35156,1.19531-.13672,1.35156.0625.04297.16797.1875.23047.32031.07422.12891.29688.41797.50391.63281.25.26563.35547.43359.3125.51953-.02344.07422-.07031.19141-.09375.28125-.03125.12891-.01563.13672.12891.05469.08594-.04688.19141-.125.22266-.17578.02344-.04688.17578-.13672.32031-.19922s.32813-.19922.39844-.3125c.12109-.18359.12109-.23828-.00781-.77344-.07813-.32031-.19141-.68359-.25391-.80078-.09766-.19922-.08984-.24219.05469-.38672.08594-.08594.19141-.16016.23828-.16016.10547,0,.48047.17969.48828.23438.00781.02344.02344.17578.04297.32813.01563.15234.07031.39063.10938.52734.05078.13672.06641.30469.03125.375-.02344.08203-.01563.13672.02734.13672.13281,0,.33594.51953.25391.66406-.04688.08203-.04688.18359,0,.27344.09766.19141-.24609.77344-.53516.90234-.13672.05469-.28906.23438-.40234.47266-.14063.28906-.26953.42578-.55859.57422-.20703.10547-.58984.41016-.85547.67188-.26563.26563-.65625.57031-.87109.68359-.21875.10938-.66406.46875-1,.79688-.33594.33594-.71484.67188-.84766.75391-.12891.08594-.26563.19922-.29688.25391-.07422.11328-.80859.53906-1.08203.625-.125.03906-.21484.00781-.32031-.11328-.19141-.21484-.6875-.35156-.89453-.23828-.12109.05469-.18359.04688-.28125-.04688-.07031-.06641-.125-.16797-.125-.22656,0-.10156-.40234-.28516-.72266-.32813-.72656-.10156-1.07031-.18359-1.10156-.26172-.03125-.09766-1-.03906-1.21094.0625-.0625.03125-.19141.03125-.27734,0-.09766-.03906-.26562-.08594-.375-.10938-.34766-.07422-.34766-.26563-.01172-.57813.16016-.15234.44141-.35938.61719-.44922.17578-.08594.34375-.19922.36719-.24609.03516-.03906.12109-.08203.20313-.08984.30859-.03125.60547-.23047.55859-.39063-.01563-.07813.03125-.21484.12109-.30469.07813-.07813.15234-.23047.15234-.32813,0-.10156.09375-.36719.20703-.59766q.21484-.41797.07031-.80078c-.07031-.20703-.15234-.51172-.17578-.66406-.02344-.16016-.16016-.41016-.3125-.58594-.15234-.16016-.26953-.32813-.26953-.36719s-.18359-.25391-.41016-.48828c-.32813-.33594-.4375-.40625-.58984-.36719-.12109.03125-.23438,0-.3125-.07813-.08203-.07422-.19141-.10547-.28906-.07422-.09375.03125-.24609,0-.35156-.0625-.3125-.21094-1.73438.03906-1.92188.33594-.03125.04688-.16797.14453-.30078.21484-.20313.10547-.28125.10547-.47266.03125-.12891-.05469-.23438-.12109-.23438-.15234,0-.02344-.07031-.09375-.16016-.14453-.125-.08594-.19922-.07031-.4375.09766-.16016.10547-.35938.21484-.44922.23828-.08594.03516-.22266.19531-.3125.36328-.08594.16797-.22266.32813-.29688.35156-.07813.02344-.22266.22266-.32422.4375-.09766.22656-.28906.48047-.41797.57031-.13672.09375-.23828.22266-.23828.28516,0,.06641-.12109.34766-.26563.625C.10306,7.33162-.00241,7.64412.00541,7.78083c.02734.35938.49609,1.03125.92969,1.3125.21484.13281.40625.30859.43359.39844.03125.07813.09375.15234.16016.15234.05469,0,.16016.04688.21484.10547.05469.0625.24609.15625.40625.20703.16797.05469.32813.16016.35156.22266.03516.08984.12891.10547.41797.07422.19922-.03516.41406-.01953.48047.02344.07813.04688.19141.03906.32031-.02344.10938-.06641.34375-.12891.50391-.16016.23828-.04297.32813-.02734.46484.10938.08594.08984.16016.21875.16016.28125,0,.20703-.21094.54297-.47266.78516-.13672.11719-.25.29297-.25.38281,0,.09766-.07813.29688-.16797.44922-.14453.22266-.17578.42969-.19922,1.16797-.07031,2.03125-.02344,3.56641.12891,3.93359.05469.12891.09375.35156.08594.49609-.00781.17578.05859.32031.19922.48047.11328.12109.28125.375.37109.55859.08594.19531.19141.34766.23047.34766.03125,0,.10547.14844.15234.33594.05469.17578.14453.40625.19922.49609.05859.09375.12891.27734.16016.42188.03906.19141.12891.29688.34375.39844.19141.09766.32031.23438.375.38672.17969.52734.89844,1.14453,1.41016,1.19922.19141.02344.85547.43359.90234.55859.04297.10547-.13281.35156-.25391.37109-.03125,0-.35938.01563-.73828.03125-.375.02344-1.10937.05469-1.63672.08594-.53125.02344-1.23438.05859-1.5625.07422-.84766.03125-1.50391.10156-1.61719.16797-.05469.03906-.24609.07031-.42188.07813-1.50391.08203-1.67188.16016-1.60938.80078.02344.23828,0,.39063-.07813.47266-.16797.16016-.06641.28906.18359.24609.30469-.05469.65625.16016.80859.49609.11719.25781.16797.29688.40625.29688.15234,0,.3125.03906.35938.08984.05078.04688.17578.10938.28906.13281.11328.03516.25781.15234.32813.28125.09766.16016.21484.25.41797.28906.14844.02344.375.14453.48828.24609.11719.11328.24609.19922.28516.19922.10547,0,.32031.43359.32031.64063,0,.12891.03906.15234.19141.11328.18359-.03906.44922.12891.44922.29688,0,.03906.08984.02344.18359-.05078.17578-.10938.20703-.10938.35156.01953.08984.07813.19922.22266.25.30859.07031.12891.19922.1875.55078.23438.73438.08594.79297.10156,1.41797.39844.32422.15234.62891.28125.67969.28125.04688,0,.16016.07031.23828.15234.25.24609.43359.32031.59375.23828.07031-.04688.17578-.05469.21484-.03125.04688.03125.27344.07422.49609.08984.22266.02344.47266.07031.53516.10156.17578.09766.64844.09766.81641,0,.09766-.04688.17578-.03125.26563.05078.125.125.28516.15625.28516.05469,0-.14453.35938-.23438.63281-.16016.22266.0625.28906.04688.42578-.08984.10938-.125.19141-.15234.28516-.09375.09766.04688.27344.03125.53906-.05859.41406-.14063.94922-.15625,1.53516-.0625.24609.04688.38281.02344.52734-.07031.12891-.08203.28125-.11328.42188-.08203.27344.06641.30469.06641.67578,0,.14844-.02344.36719-.04688.47656-.0625.22656-.03125.64063-.28125.64063-.38672,0-.03125.15234-.10156.34375-.14844.18359-.05859.39453-.16016.45703-.25.0625-.08594.19141-.16797.28125-.18359.49609-.10547.99219-.33594,1.22266-.58594.22266-.23047.3125-.26953.50391-.23047.12891.02344.23047.00781.23047-.03125s.14453-.24219.32031-.44141.32031-.39844.32031-.42969c0-.04297.11328-.11328.24219-.16797.13672-.05859.23828-.12891.23828-.16016,0-.15234.26563-.32031.48828-.32031.3125,0,.44922-.13672.55859-.57813.16797-.65625.17969-.83984.03516-1.05469-.08203-.11328-.16797-.18359-.21094-.16016-.07031.03906-.42969-.07813-1.29297-.43359-.17578-.07031-.37109-.13281-.44141-.14063-.64844-.08203-.96875-.13672-1.14453-.20313-.11328-.04688-.72656-.09375-1.35938-.11719-.63281-.01563-1.3125-.05859-1.51172-.08203-.3125-.03125-1.64063-.04688-2.24219-.02344-.10938.00781-.28516.05469-.39844.11328-.11328.05469-.32813.07813-.48047.05469-.15234-.01563-.38281-.03125-.51953-.03125-.60938.01563-1.48828.02344-1.96094.02344-.28516,0-.69531,0-.91797.00781-1.72266.02344-2.40234-.16016-2.23438-.60938.06641-.16016.25781-.22266.42578-.125.19922.10156,1.3125.16016,1.42188.0625.05078-.03906.29688-.08984.55469-.11328.28906-.02344.49609-.07813.53516-.15234.0625-.10938.36719-.21484.96094-.32031.25391-.03906.29688-.07031.29688-.26953,0-.3125-.39453-.67188-.65625-.60938-.20313.04688-.89844-.26953-1.625-.75781-.17578-.12109-.40234-.24219-.48828-.27344-.09766-.03125-.25781-.17578-.35938-.32813-.10547-.15234-.23438-.28125-.28125-.28125s-.23047-.10156-.39844-.23828c-.17578-.12891-.40234-.29688-.50391-.375-.30469-.23438-.72266-.65625-.80859-.82422-.04688-.08984-.13672-.16016-.19922-.16016-.05859,0-.21875-.11328-.35156-.24219-.20313-.19922-.23438-.28516-.19531-.48047.02734-.14063.00781-.23828-.03906-.23828s-.11328-.07813-.13672-.18359c-.03125-.09766-.125-.32813-.21484-.51953-.12891-.27344-.14453-.39453-.07813-.52734.0625-.14453.03906-.28906-.11328-.65625-.10547-.25781-.24219-.71484-.28906-1.00781-.07813-.47266-.07813-.57813.03906-.82422.07422-.15234.11328-.32813.08984-.40234-.08984-.22266.03906-.51172.25391-.56641.16797-.03906.19531-.08984.16016-.24219-.03906-.16016.11328-.42969.25-.42969.16016,0,1.55078.86328,1.58984.99219.03516.08594.1875.28906.34766.44531.15625.16797.36719.38672.45313.48828.09766.10547.30469.29688.46484.43359.48047.39063,1.00781.91016,1.00781,1,0,.03906.16797.25781.36719.48828.21094.23047.34375.45703.32031.51953s.02344.18359.11328.27344c.26172.26172.38281.58203.40625,1.07813.03516.73047-.03906.87891-.42188.84766-.17578-.02344-.17578.02344-.01563.27344.07031.11328.09375.19922.0625.19922-.21484.01563.60156.23047.84766.22266.42578-.00781.63281.08203.6875.28906.04297.16797.06641.17578.37891.09766.46094-.12109.53516-.18359.51953-.42578-.01563-.13672.03125-.23828.125-.29688.5625-.32813.88281-.93359.76953-1.45313-.03906-.16797-.03906-.35938-.00781-.42578.09766-.18359.03906-1.03125-.07031-1.16797-.09766-.11328-.23438-.64844-.28125-1.07813-.08984-.85547-.12891-.96094-.47266-1.16016-.17578-.10547-.40625-.32031-.51172-.47266-.17578-.25781-.17578-.28906-.0625-.51172.0625-.12891.17578-.25781.23828-.28125s.19922-.19922.29688-.39063c.09375-.19141.22266-.37891.27734-.41016.06641-.03125.11328-.10938.11328-.17578,0-.15234.22266-.35938.34375-.3125.05859.01563.18359-.05469.28125-.16797.09375-.10938.22266-.19922.28906-.19922.0625,0,.15234-.04688.18359-.10156.03125-.06641.26172-.21094.50391-.32813.23828-.12109.50391-.28906.58203-.37891.09766-.10156.19922-.13281.33594-.10156s.21094,0,.26563-.10547c.12891-.23047.58203-.67969.94531-.92578.18359-.12109.36719-.3125.41406-.41797.05469-.11328.12109-.19922.16016-.19922.0625,0,.43359-.32813,1.19922-1.06641.27344-.25391.65625-.83984.65625-1,0-.07031.07422-.29297.16016-.48828.08984-.19141.16016-.42969.16016-.53516,0-.10156.07031-.40625.16797-.66406.11328-.33594.13672-.51953.08984-.62109-.09766-.17969-.00781-.80078.14063-1.04297.08984-.13672.08984-.21484.01953-.38281-.05859-.11328-.09766-.3125-.09766-.44922,0-.36719-.42578-.91016-.89453-1.16016-.12891-.0625-.22656-.15234-.22656-.19141s-.10156-.14453-.23828-.23828c-.17578-.12891-.27344-.14453-.375-.08984-.08984.03906-.20313.05078-.27344.00781-.08203-.04688-.16016-.03906-.21484.01563ZM3.72806,5.4449c.0625.05469.25391.11719.42969.14453.40234.0625.67188.24609.73828.51172.05469.21484.10156.27734.56641.77344.27344.29688.28125.40234.02344.58594-.07031.04688-.17578.23047-.22266.40625-.12109.39453-.29688.47266-.58203.26563-.17969-.12891-.29688-.15234-.61719-.11328-.33594.03906-.44922.00781-.75391-.16797-.22266-.12891-.41406-.32031-.50391-.51172-.07813-.16016-.19141-.38281-.23828-.49609-.15234-.28906.04688-.73438.40625-.92578.18359-.10547.25781-.19531.23438-.28125-.05859-.16016.17578-.41797.30078-.34375.05859.03125.15234.09375.21875.15234ZM12.68119,25.09334c.10156,0,.31641.03125.47656.07813s.43359.12109.60938.15234c.17578.03906.48047.10547.67969.15234s.61719.07813.92969.08594c.58203,0,1.10938.16016,1.26953.37891.07422.09375.10547.07813.20313-.08984.13281-.26172.35938-.33594.58203-.18359.09766.0625.34375.13672.55078.16797.46484.07031.65625.23047.54688.44922-.08203.15234-.85938.55859-1.07422.55859-.0625,0-.16016.0625-.19922.14453-.04688.07813-.25.28906-.45703.45703-.32813.26953-.48828.33594-1.26172.49609-1.21094.24609-3.36328.24609-3.49609,0-.06641-.10547-.11328-.10547-.37109-.01563-.24609.08594-.33594.08594-.46094,0-.13672-.08203-.19141-.08203-.30469,0-.15234.10938-.51953.0625-.83203-.10547-.16797-.08984-.33594-.10547-1.51953-.09766-.50391,0-.74609-.11719-.74609-.36719,0-.07031-.05469-.30469-.125-.52734-.12109-.35156-.16016-.39062-.32813-.35937-.22656.03906-.45703-.15234-.39453-.32031.02344-.0625-.00781-.22266-.07031-.35156-.15234-.28906-.06641-.48828.26953-.625.17578-.07813.27344-.07813.40234-.00781.09375.04688.20703.0625.25391.03906.04297-.03125.17578.00781.28906.08203.15234.10156.30469.125.57813.09375.19922-.02344.4375-.01563.52734.01563.08594.04297.22266.03516.30078-.00781.09766-.04688.23438-.04688.37109,0,.18359.06641.24609.05859.35156-.07031.10938-.12109.19922-.14453.51172-.10547.57422.07422,1.0625.04297,1.29688-.08594.10938-.06641.26172-.09766.32813-.06641.0625.02734.20703.04297.3125.03516Z"/>

</g>
</svg>
