<?xml version="1.0" encoding="UTF-8"?>
<svg xmlns="http://www.w3.org/2000/svg"
     version="1.1"
     width="56.70287058mm"
     height="31.90051035mm"
     viewBox="0.00000000 0.00000000 160.73251195 90.42666216">

<g transform="scale(4.30598027)">   <defs>
      <style type="text/css"><![CDATA[
      .b {
        stroke: #000;
        stroke-linecap: round;
        stroke-linejoin: round;
        stroke-width: .15px;
      }
    ]]></style>
   </defs>
   <path class="b"
         d="m28.72481,17.1303c.37218-.44797.88189-.76638,1.28947-1.18521.66048-.67872,1.02233-1.58559,1.36823-2.46721.20574-.52437.41427-1.06191.42993-1.62498s-.19965-1.16637-.6768-1.46575c-.51697-.32436-1.18997-.21969-1.77182-.03552-1.56351.4949-2.93618,1.46807-4.48024,2.0207-1.54812.55409-3.21938.66858-4.79708,1.13178-1.41281.41479-2.75908,1.11055-4.22454,1.25382-2.07543.20291-4.16283-.72736-6.21966-.38379-.8474.14155-1.67475.49795-2.53098.4273-.75429-.06224-1.43929-.45021-2.07781-.85657-.96851-.61637-1.89607-1.29702-2.77489-2.03564-.38093-.32016-.75285-.65113-1.11474-.99267-.3049-.28776-.71748-.55742-.93211-.92346-.37181-.6341.07504-.97872.61442-1.21014,1.74075-.74686,3.12492-2.26001,4.96238-2.72012,1.47917-.37039,3.25687-.07788,4.34301-1.14813.19352-.19068.35632-.41982.59047-.5576.33857-.19922.7573-.17098,1.14985-.18588,1.96348-.07456,3.65013-1.3402,5.4769-2.06387.11001,0,.28048-.10696.38654-.14404.1298-.04537.26053-.08809.39206-.12816.15901,0,.3683-.10564.52516-.14396.17512-.04277.35142-.08069.52862-.11382.35258-.06591.70867-.11275,1.06618-.1416.36424-.02952.7301-.02754,1.09509-.01591.20564.00655.63807.12123.83434.054.27965-.09623-.11547-.5473-.1545-.70666-.06081-.24826.00081-.47956.23319-.61042.36915-.20785.94872.03679,1.33362.11388,1.28412.25719,2.55206.58755,3.81904.91719.71874.187,1.45608.38256,2.05772.81798,1.08005.78166,1.50999,2.16156,1.8741,3.44411.15001.52839.29829,1.1038.09377,1.61357-.22356.55725-.80452.87564-1.35899,1.10602-1.69143.70279-3.72216.97593-5.29489.03711-.67672-.40396-1.23459-1.01252-1.971-1.29329-.77172-.29423-1.63161-.1883-2.4478-.06199-.12096.01872-.24186.03779-.3627.05723-1.72633.2776-3.44095.62795-5.13785,1.04959-.8064.20037-1.60627.4426-2.41188.63511-.40017.09563-.79537.26779-1.18495.40104-.39933.13658-.79866.27315-1.19799.40973.27238.40715.80099.57533,1.2667.60506.46816.02988.93577-.04015,1.3981-.10505,3.34982-.47022,6.6171-1.39305,9.87213-2.31326.86828-.24547,1.73656-.49093,2.60484-.7364,2.15784-.61003,4.33101-1.22296,6.56457-1.42202,1.07062-.09542,2.20319-.08222,3.14787.43054,1.74135.94519,2.24112,3.19779,2.31664,5.17768.0609,1.59647-.03657,3.21864-.51917,4.74052-.11546.36411-.35383.69031-.61222.97164-.3279.35702-.7719.5839-1.21773.7742-.84569.36099-1.76389.63567-2.42805,1.2716-.32087.30724-.56541.68445-.86079,1.01627s-.66587.62899-1.10515.69519c-.09432.01422-.20043.01421-.27317-.04749-.04327-.0367-.07143-.09287-.12362-.11513-.06276-.02676-.13364.00571-.19399.03753-.20334.10719-.40668.21439-.61002.32158-.16145.08511-.32612.17136-.50572.20379-.52284.09443-1.00398-.27689-1.40569-.6246-.14595-.12633-.30272-.27319-.31734-.46567-.01628-.21437.16007-.40427.36083-.48118s.42233-.06843.63732-.06958.44091-.01632.62249-.13144c.32055-.20322.38714-.6879.18365-1.00828-.10922-.17197-.28155-.30738-.34373-.50138-.0848-.26456-.07187-.44251.20037-.4979Z"/>

</g>
</svg>
