<?xml version="1.0" encoding="UTF-8"?>
<svg xmlns="http://www.w3.org/2000/svg"
     version="1.1"
     width="24.65176586mm"
     height="26.44963841mm"
     viewBox="0.00000000 0.00000000 69.87903792 74.97528452">

<g transform="scale(5.26879979)">   <defs>
      <style type="text/css"><![CDATA[
      .b {
        stroke: #000;
        stroke-linecap: round;
        stroke-linejoin: round;
        stroke-width: .25px;
      }
    ]]></style>
   </defs>
   <path class="b"
         d="M1.09948,1.7208c-.27732.17357-.23679.7274,0,.95316.49945.47619.53516.55397.97449.67461.41862.11495.65963.26574,1.11227.31746.64309.07348,1.17814.2769,1.82541.27778.54737.00074,1.2079-.19025,1.74029-.31746s1.71212-.95239,1.29476,1.04692c-.08469.40571.03022.81185-.00118,1.22511-.06419.84478.37561,1.63625.56985,2.46089.35685,1.51497.06488,1.86726-.31005,3.37785-.08204.33053-.38306,1.28571-.22657,1.58818.29164.5637,2.22761.00696,2.80595-.25445,1.26074-.56986,1.18054-.6001,1.54262-1.93543s.09687-2.82684-.70331-3.95552c-.32528-.45881-.73278-.85955-1.01395-1.34664-.58543-1.01418-.5265-2.36524.14499-3.3246.188-.2686.43114-.50462.56135-.8055C12.35298-.46099,8.01001.1979,7.15453.29299c-1.94089.21572-4.39375.38803-6.05505,1.42781Z"/>
   <path class="b"
         d="M1.09948,9.93591c-.27519.36961-.24993,1.18856-.26378,1.64916-.01598.53163.30125,1.03164.72287,1.35587s.93771.49863,1.45054.63963c1.15133.31655,2.34122.49257,3.53489.5229.16175.00411.32861.00466.4785-.05627.30996-.12599.78055-.88013.76696-1.21444s-.17221-1.40495-.31746-1.70636c-.95864-.01401-1.64698.34225-2.57938.11905-.23803-.05698-1.12744.03934-1.26034-.16619-.19275-.29806.2937-.75769.59263-.94908.98517-.63077,1.46387-1.29337,2.53557-1.97222,1.79337-1.13598,3.58674-2.27196,5.3801-3.40793.3402-.2155.70489-.46182.82489-.84624.14223-.45566.2833-1.09609.04141-1.5076-.22587-.38425-.91431-.64973-1.35935-.67432-.6681-.03691-.80206.90361-1.2565,1.39474-1.15448,1.24771-2.73758,1.81726-4.18889,2.6923-1.80513,1.08838-3.82347,2.4089-5.10266,4.12701h0Z"/>
   <path class="b"
         d="M1.84852,11.91124c-.46959-.30075-1.15366-.20192-1.51893.21944-.09656.11139-.17295.24423-.19704.38967-.07447.44959.41563.84905.86881.80103s.81594-.42131.99945-.83845c.05546-.12606.09863-.26895.05581-.39984s-.20561-.22758-.32367-.15669"/>

</g>
</svg>
