<?xml version="1.0" encoding="UTF-8"?>
<svg xmlns="http://www.w3.org/2000/svg"
     version="1.1"
     width="60.76645955mm"
     height="48.45724373mm"
     viewBox="0.00000000 0.00000000 172.25138771 137.35908364">

<g transform="scale(3.49229315)">   <defs>
      <style type="text/css"><![CDATA[
      .b {
        stroke: #000;
        stroke-linecap: round;
        stroke-linejoin: round;
        stroke-width: .01px;
      }
    ]]></style>
   </defs>
   <path class="b"
         d="M36.06439.12147c-.36719.17578-.51172.35156-.6875.88672-.39453,1.16797-.81641,2.07813-1.24219,2.625-.24609.32813-.55078.67188-.67969.78125-.12109.10547-.375.37891-.55078.60938-.41016.51953-1.15234,1.23828-1.89063,1.82422-.30078.23828-.62891.57422-.72656.73438-.09375.16797-.20703.30469-.24609.30469-.04297,0-.25.23438-.45703.51172-.21484.28906-.64063.72266-.94531.96875-.3125.25781-.6875.60156-.83984.76172-.16797.18359-.45703.375-.71875.46875-.24219.08984-.57031.29688-.71875.44922-.5625.55078-1.16797,1.0625-1.43359,1.19922-.14453.07422-.41797.27344-.60156.43359-.17578.16797-.49609.39844-.69531.51953-.20703.12109-.50391.32813-.65625.47266-.55078.49609-.71094.61719-1.04688.76563-.18359.08203-.48828.28906-.66406.45703-1.11328,1.08203-1.6875,1.58594-1.91016,1.67969-.14453.06641-.37109.24219-.48828.40234-.32813.42188-.88281.99219-.97656.99219-.04297,0-.09766.07031-.12891.15234-.02344.08594-.20703.24609-.39844.36719-.20313.10938-.41016.30469-.47266.42188-.06641.12109-.45703.57813-.88281,1.01563-.72656.75391-1.23828,1.45703-1.36719,1.85938-.02344.10156-.07813.18359-.10938.18359-.03516,0-.17578.17578-.3125.39063-.14453.21484-.34375.44922-.45703.51953-.11328.07422-.19922.16797-.19922.22266,0,.13672-.70313,1.28906-.96094,1.57812-.13672.14453-.29688.35938-.35938.48828-.32813.63281-1.92969.98438-3.29688.72656-.21484-.04688-.66406-.07813-.99219-.08594-.58203-.00781-.96875-.06641-1.67188-.25-.51172-.12891-1.05469-.17578-1.83984-.16016-.77734.01563-1.60156.29688-2.44141.82422-.26172.16797-.51953.30469-.57422.30469-.17578,0-.88672.79297-1.10547,1.23047-.13672.28906-.23047.64844-.26953,1.06641-.13672,1.3125.02344,1.83203.81641,2.61328.44531.44141.61328.54688,1.21484.76172.61719.22266.77734.25,1.54297.23828,1.02344,0,1.33594-.07031,1.73828-.39063.16797-.13672.34375-.23828.39063-.23828.08594,0,1.40625-.52734,1.44922-.57813.00781-.01563.05469-.10156.10156-.19141.05859-.10547.28906-.24609.57813-.35156.26172-.09766.48047-.20703.48047-.23828,0-.03516.14063-.12109.30859-.20313.17578-.07813.44922-.25391.60156-.39844.16016-.14453.39844-.35156.54297-.46484s.33594-.26172.42578-.35156c.08594-.07813.32813-.28906.53516-.45703s.39844-.36719.42578-.44531c.03906-.13672.19922-.25781.95703-.75391.17578-.11328.40234-.26563.49609-.33594.16797-.12109.19141-.11328.5625.25.42188.40625.62891.51953.99219.51953.27734,0,.67188.18359.73438.35156.02344.0625.22266.21484.44922.33594.22266.12891.42188.26953.4375.32031.07422.19141-.88672,2.77344-1.33594,3.59766-.79688,1.43359-1.89453,2.58594-2.87891,3.01563-.43359.20313-.45703.21875-.57422.65625-.12891.43359-.12891.48047.00781.82422.17578.46484.27734.54688.79688.60938.22656.02344.5625.10547.74609.16797.42188.14453,1.00781.16797,1.72656.0625.37109-.04688.9375-.04688,1.64062,0,1.30469.08984,1.02344.08984,4.40234.04297,1.51953-.02734,3.35938-.01953,4.09375.01563.76172.03906,1.58594.03125,1.92188-.01563,1-.12891,1.77344-.16016,1.96484-.08984.12109.04688.43359.01563.96094-.10547.42578-.09375.96094-.21484,1.17578-.25391.22656-.04688.54688-.12109.72266-.16797.39063-.10547,1.21484-.11328,1.52734-.01563.12891.03906.39063.10938.58984.16797.57813.16016,1.75391.55859,1.90625.64063.80078.4375,2.4375.82422,3.20703.74219.33594-.03906.57422,0,1.07813.16016.36328.11328.85156.25,1.08984.28906.80859.15234,6.86328.23047,7.09766.10156.04688-.03125.42969-.39063.85547-.78906l.76563-.74609v-.41406c0-.6875-.13672-1.02344-.55078-1.42578-.20703-.19922-.42578-.42969-.47266-.52734s-.29688-.25-.55078-.34375c-.25781-.09766-.53516-.24219-.625-.32031-.08594-.07031-.39063-.23828-.67969-.35156-.51172-.21484-.57422-.22266-2.96094-.28906-2.94141-.07813-4.71094-.0625-5.20703.05469-1,.24219-7.10547.37891-8.15234.1875-.28906-.05859-.82422-.11328-1.19922-.12109-.375-.01563-.92969-.07422-1.24219-.12109-.30078-.05469-.6875-.09375-.83984-.10156-.35938,0-.93359-.21094-.99219-.35547-.02344-.05469.05078-.21484.15234-.34375.11328-.125.20313-.26953.20313-.3125,0-.04688.08594-.18359.19922-.30078.10938-.12109.19922-.24219.19922-.28125,0-.04688.21484-.33594.71094-.95313.35156-.42969.46484-.60547.51172-.80078.03516-.10938.20313-.42969.37891-.71094.34375-.53516.94922-1.77344,1.09375-2.24609.04688-.15234.08984-.51172.09766-.79297s.03906-.56641.07813-.64063c.03906-.07031.05859-.39844.03125-.72656-.03125-.73047.05859-.89063.49609-.92969.16797-.00781.44141-.07031.59375-.13672.16016-.0625.51172-.18359.79297-.26172.41406-.11328.54297-.12109.79688-.03906.21875.07031.39453.07813.65625.01563.38672-.08984,1.20313-.49609,1.36328-.67969.04688-.06641.39844-.26562.78125-.44922,1.83203-.86328,2.17578-1.06641,2.71484-1.57031.20703-.19141.46875-.375.58203-.39844s.42578-.16016.70313-.29688c2.23438-1.125,3.06641-1.58984,3.35156-1.86328.60156-.55078,1.10547-1,1.19531-1.05469.04688-.03125.14844-.16797.22266-.3125.07031-.14453.19922-.29688.28125-.34375.08594-.03906.27734-.30469.4375-.57813.16016-.27734.32031-.55859.35938-.62109.17578-.29688.60156-1.18359.67188-1.40234.04297-.13672.08203-.74219.08984-1.35938l.01563-1.12109.3125-.50391c.17578-.27734.44141-.67969.57422-.87891.34375-.48828.48047-.81641.48828-1.10547,0-.30859-.36719-1.26172-.57422-1.46094-.90625-.86719-1.03906-.96094-1.41797-1.00781-.48828-.06641-1.34375.01563-1.89453.18359-.30469.09375-.46484.19141-.53516.33594-.13672.26172-.72266.80078-.87109.80078-.05859,0-.15234.05469-.21094.11719-.04688.06641-.29688.25-.54297.41797-.46484.30469-1.05469.85547-1.05469.97656,0,.03906-.11328.10938-.25.17578-.23047.09375-.28906.07813-.67188-.12891-.23828-.12891-.47266-.19922-.52734-.16797-.61719.3125-.75391.42969-.80078.6875-.04688.22266-.02344.30469.12109.44141.10547.09375.24609.34375.32031.56641.07813.21484.19141.51953.25391.67188.12891.32813.21875,1.13672.20313,1.76172-.02734.69531-.875,2.88672-1.24219,3.19141-.07031.0625-.12891.23047-.12891.39844,0,.39453-.20703,1.13672-.33594,1.21484-.125.08984-.3125.08984-.44531.01172-.16016-.10547-.34375-.96875-.33594-1.57813,0-.3125-.03516-.86328-.07422-1.23828-.03906-.37891-.07813-.95313-.07813-1.28125-.00781-.32813-.05859-.83203-.12109-1.10547-.12891-.60547-.05469-1.07031.19141-1.33594.21484-.23047.18359-.4375-.13672-.85547-.33594-.4375-.48047-.49609-.92578-.34375-.45703.15234-.60938.12109-.83984-.19922-.10547-.13672-.23438-.24219-.29688-.24219s-.23047.14453-.375.32813c-.73047.90625-.89844,1.10547-1.21094,1.47266-.18359.21875-.67969.73828-1.09375,1.16016-.42578.41797-.87891.92188-1.01563,1.12109s-.40234.51953-.58594.71875-.45313.53516-.58984.76172c-.14453.21484-.32813.45703-.40234.51953-.07813.0625-.3125.32813-.51172.60156-.19922.26172-.47266.58984-.60547.71875-.13672.13672-.37891.42188-.53125.63281-.38281.52734-.62891.76563-.91797.89453-.13672.05469-.3125.17578-.39844.27344-.08984.09375-.28906.23828-.44922.32813-.16016.07813-.45703.32813-.64844.54297-.19922.22266-.44922.44141-.55078.48828-.10547.04688-.28906.22266-.41797.38281-.12109.16016-.48828.49609-.82422.73828-.33594.23828-.73438.54297-.88672.67969-.35156.29297-.73047.53516-1.28906.80469-.23047.11328-.48047.29688-.55078.41016-.25781.39063-1.71094,1.16016-2.78516,1.46484-.26172.07813-.61719.19922-.77734.26953-.26172.11328-.30078.11328-.41406,0-.11328-.10156-.10547-.16016.09766-.51172.11719-.22266.26953-.41406.33594-.4375.125-.04297.33594-.35156.56641-.85938.07813-.15625.32813-.48438.55078-.71094.23438-.23047.45703-.52734.49609-.64844.05078-.125.15234-.26172.23438-.3125.07813-.03906.15234-.125.15234-.19141,0-.0625.10156-.22266.23047-.35156.12891-.13672.25391-.3125.28125-.39063.03125-.08984.26953-.30469.53516-.48828.28125-.18359.64063-.52734.83203-.78516.19141-.25391.41406-.52734.49609-.60547.42188-.41797.83984-.77734.89453-.77734.11328,0,.96875-.79297.96875-.88672,0-.10547.64844-.71484.76172-.71484.0625,0,.19141-.10156.29297-.23828.09766-.12891.24219-.25781.3125-.28125.08203-.02344.16797-.12109.19141-.19922.03516-.08984.14453-.18359.26563-.20703.19141-.05078.56641-.29688.75781-.50391.36328-.37891.96094-.86328,1.39453-1.12891.17578-.11328.42188-.32813.54297-.49609.12109-.16016.32813-.33594.44922-.39063.12891-.05078.23047-.12109.23047-.15234,0-.05859.60156-.45703.96094-.64063.11328-.05469.32813-.21484.48828-.35156.29688-.25781.98438-.71484,1.69531-1.12891.23047-.13672.54297-.3125.69531-.39844.14453-.08984.35938-.24219.46484-.34375.10547-.09766.375-.28906.60156-.42578.56641-.32813.92578-.59375,1.23047-.87109.14453-.13672.30469-.24219.35938-.25.05859,0,.30469-.23047.54297-.51172.24219-.26953.53125-.53516.64063-.58203.11328-.04297.52734-.40234.92188-.79297.79297-.79297.91797-.9375.91797-1.0625,0-.04297.18359-.26563.41016-.49609.57422-.59375,1.0625-1.58594,1.22266-2.50391.01563-.08984.07422-.30469.12109-.48047.15234-.57031.17578-1.09766.08594-1.65625-.13281-.80859-.22266-.88281-1.20703-1-1.51953-.19141-1.52734-.19141-1.88672-.03125ZM25.26361,26.0785c.08984.09766.09766.20313.00781.66406-.18359.95313-.26563,1.30469-.35156,1.45703-.03906.08984-.08203.23828-.08203.34375s-.08594.375-.19922.60938c-.10938.23828-.19922.50391-.19922.59766,0,.17578-.60156,1.53906-.76172,1.73828-.05469.0625-.11719.25391-.14844.41406-.03516.16797-.14453.40234-.25.51172-.11328.12109-.19922.24219-.19922.27344,0,.10547-.90625,1.07813-1.10547,1.18359-.10156.0625-.26953.08984-.375.0625-.09766-.02344-.80078-.04688-1.55859-.05469-1.24219-.00781-1.39453-.02344-1.53125-.16016-.14844-.15234-.14844-.16016.01172-.45703.08594-.16016.31641-.55078.51953-.85547.19141-.3125.35156-.59766.35938-.64063,0-.04688.05469-.16016.12109-.23828.0625-.08984.25391-.34375.42969-.55859.16797-.22656.42578-.63281.57031-.92188.14063-.28906.39844-.6875.56641-.88672.19922-.24219.3125-.45703.3125-.60156,0-.12891.07031-.34375.16016-.47266.08594-.13281.16016-.30078.16016-.38281,0-.08594.04688-.24609.10938-.35938.06641-.12109.13672-.3125.16016-.43359.05859-.25391.30469-.39844.92969-.52734.23828-.04688.78516-.16016,1.19922-.23828.95313-.20313,1-.20313,1.14453-.06641ZM9.64642,27.49647c.08203.13672,0,.29688-.17578.35156-.07813.03125-.15234.07813-.15234.12109,0,.10938-.38281.46094-.66406.61328-.30078.15234-.64063.38672-.99219.67188-.28516.25-1.65625.71484-2.07031.71484-.34375,0-1.35938-.57031-1.43359-.80078-.04688-.16016.08203-.48047.19531-.48047.03906,0,.15625-.13672.27734-.3125.28125-.39844.41797-.45703,1.49609-.56641.50391-.05859.98438-.13672,1.06641-.18359.21484-.10547,1.05469-.27344,1.47656-.28906.19531,0,.37109-.02344.38672-.03906.0625-.05859.52734.10156.58984.19922Z"/>

</g>
</svg>
