<?xml version="1.0" encoding="UTF-8"?>
<svg xmlns="http://www.w3.org/2000/svg"
     version="1.1"
     width="33.80285973mm"
     height="31.36042961mm"
     viewBox="0.00000000 0.00000000 95.81913907 88.89566772">

<g transform="scale(2.46727558)">   <defs>
      <style type="text/css"><![CDATA[
      .b {
        stroke: #000;
        stroke-linecap: round;
        stroke-linejoin: round;
        stroke-width: .25px;
      }
    ]]></style>
   </defs>
   <path class="b"
         d="M9.57142,13.59303c-.19653.37216-.27252.98837.14019,1.07086.50616.10117.85478-.87693,1.30546-.6253.28704.16026.14887.59442-.01081.88178-1.29981,2.3391-1.65491,5.18607-.96949,7.77279s2.40371,4.88428,4.69126,6.27281c.61992.37629,1.30387.69426,2.0288.71374.82475.02217,1.6058-.34134,2.34362-.71056,2.74271-1.3725,5.3889-2.93783,7.91258-4.68059.38787-.26785.78754-.5564,1.00204-.97613.43892-.85892-.04311-1.87175-.21547-2.82079-.28917-1.59221.38431-3.28792,1.59281-4.36416s2.89221-1.55037,4.50515-1.41928c.27792.02259.56569.06613.79634.22282.548.3723.5365,1.16909.46541,1.82777-.42974,3.98183-.08562,9.09356-2.71759,12.11224-2.7014,3.09832-7.86913,3.32964-11.87328,4.25911-3.61429.83897-7.22858,1.67795-10.84288,2.51692-.74864.17378-1.52376.34835-2.27877.20474-.77293-.14702-1.4421-.61161-2.08523-1.06485-2.32679-1.63979-4.8616-3.613-5.19828-6.43958-.12876-1.08097.09081-2.16972.30927-3.23618.45854-2.23844.91708-4.47688,1.37562-6.71532.30797-1.50341.7977-2.36443,1.65462-3.63753,1.49926-2.22737,2.17671-4.00764,3.8188-5.63241,1.2906-1.27698,3.41879-2.69969,5.21966-2.93034.96918-.12413,1.44133-.29924,1.95572.53147.93253,1.50601-.76579,2.13045-1.67794,2.79263-1.36036.98756-2.47334,2.60714-3.2476,4.07332v.00002Z"/>
   <path class="b"
         d="M10.7177,4.53063c-1.22802,1.19403-.92799,2.59908.04034,4.0119.49703.72517,1.40714,1.07401,2.28499,1.12201s1.74647-.16053,2.60808-.3353c1.99804-.4053,4.03163-.63518,6.06972-.68614.86947-.02174,1.75811-.00798,2.57986.27694,1.53134.53095,3.60047,1.25031,4.80791,2.33152.92771.83072,1.50957,1.36612,1.69583,3.20036.39084,3.84876.09704,7.79897,1.74522,11.29886.1746.37077.40918.74088.7766.92242.83338.41178,1.76369-.33529,2.32939-1.07289,3.66445-4.77796,3.86614-11.63028,1.49227-17.16397-1.09912-2.56215-2.74306-4.95073-5.02702-6.54953C28.96032-.32562,25.62054.20403,22.02293.1337c-3.65981-.07155-8.67258,1.83716-11.30523,4.39693Z"/>
   <path class="b"
         d="M13.1686,20.08034c-.42104.44302-.85668.92256-.97529,1.52212-.15279.77236.28434,1.57536.92289,2.03593s1.4424.63075,2.22759.68872c3.96656.29288,7.97381-2.29383,9.34014-6.02914.0797-.21789.16192-.45361.35136-.58754.21607-.15275.50966-.12923.75484-.22877.61225-.24855.66324-1.06829.81187-1.71213.25704-1.11344,1.05579-2.00564,1.70635-2.9451s1.18716-2.11264.82927-3.19787c-.46277-1.40323-2.32463-1.96099-3.69371-1.40525-1.22644.49783-1.70687,1.51521-2.49895,2.47101-.7591.916-1.74651,1.63919-2.62884,2.43309-2.47183,2.22409-4.85684,4.54463-7.14751,6.95493h-.00001Z"/>
   <path class="b"
         d="M11.45926,28.10268c-.40686.90661-.24537,2.11818.56688,2.69065.63471.44734,1.50861.415,2.23114.13055s1.87861-.77789,2.49954-1.24417c1.05735-.79399,1.63182-1.51394,2.79898-2.13536.49762-.26494,1.02827-.51936,1.592-.51403s1.16379.35123,1.27424.90406c.094.47045-.13567,1.07278.24181,1.36888.8818-.29927,1.51095-1.10347,1.86355-1.96534s.47632-1.7965.67086-2.70715c.0834-.39041.22501-.8323.59524-.98165.262-.1057.55692-.02766.83928-.01816.61366.02065,1.22607-.32141,1.53031-.85474.36193-.63446.27176-1.45624-.08411-2.09412s-.9414-1.11687-1.55874-1.50728c-.22279-.14089-.45846-.27494-.71897-.3152-.50866-.07862-.99434.20908-1.42876.48512-2.41205,1.53271-4.82409,3.06542-7.23614,4.59814-1.68132,1.06838-4.81479,2.23829-5.67711,4.1598Z"/>

</g>
</svg>
