<?xml version="1.0" encoding="UTF-8"?>
<svg xmlns="http://www.w3.org/2000/svg"
     version="1.1"
     width="30.54730831mm"
     height="43.30168067mm"
     viewBox="0.00000000 0.00000000 86.59083091 122.74499757">

<g transform="scale(5.33209547)">   <defs>
      <style type="text/css"><![CDATA[
      .b {
        stroke: #000;
        stroke-linecap: round;
        stroke-linejoin: round;
        stroke-width: .01px;
      }
    ]]></style>
   </defs>
   <path class="b"
         d="m14.95545.07138c-.07813.04688-.22266.07813-.31641.0625-.10547-.00781-.36328.03906-.57813.10547-.36719.10156-.39844.14063-.58984.56641-.10547.25781-.26563.48047-.34766.50391-.08594.03125-.18359.17578-.23047.34375-.03906.16016-.12891.36719-.18359.45703-.0625.08594-.13672.32031-.16016.51953-.01563.19922-.17578.64844-.34375,1s-.3125.67188-.3125.71875c-.01563.18359-.21484.67969-.28125.67969-.03125,0-.11719.14453-.19141.32813-.16016.39453-.23828.48047-.60547.67188-.32813.16797-.47266.33594-.48047.55469,0,.07813-.12109.26172-.27344.40625-.14453.13672-.32813.36719-.39844.51172-.07422.13672-.22656.29688-.32813.34375-.11328.05078-.21875.15234-.24219.22656-.02344.07031-.21484.20703-.42969.30078-.25781.12109-.43359.26563-.52734.44922-.08984.16797-.28125.33594-.48828.43359-.3125.15234-.36328.16016-.47266.04688-.06641-.07031-.12109-.23828-.12109-.375,0-.16016-.12109-.45703-.3125-.76172-.19922-.32813-.30469-.58203-.28906-.71875.01953-.12109-.04688-.35156-.125-.51172-.08984-.16797-.15234-.40234-.14453-.51953.01563-.28125-.25-.86719-.55078-1.21094-.22656-.26172-.37891-.30078-1-.25391-.13672.00781-.39453.17578-.54688.35938-.44531.52734-.53516.6875-.58984.97656-.03516.19922-.01563.39844.03906.50391.07031.13672.0625.20703-.03906.36719-.11328.16797-.11328.21484-.00781.41797.0625.11719.21484.32031.33594.45313.11719.12891.22266.29688.23047.37109.00781.13281.51172.87109.60156.87109.02344,0,.10938.12891.18359.28906.07813.14844.18359.26953.23828.24609.04688-.01563.22656.02344.375.10547.16016.07813.42578.125.625.10938.48828-.02344.59375.10547.43359.57031-.08203.25391-.18359.39844-.34375.48828-.12891.0625-.23438.16797-.23438.22266,0,.25781-1,1.39063-1.35938,1.54297-.45703.19922-.94141.58594-1.04688.83984-.04688.12891-.15234.27344-.22266.32813-.07422.05859-.17969.19141-.22656.32031-.05469.12109-.21484.28906-.35156.36719-.13672.08984-.33594.29688-.44141.48047-.10938.17578-.26172.34375-.35156.36719-.07813.02734-.17578.12109-.19922.21094-.03125.07813-.08594.16016-.12891.16016-.03906.00781-.10937.01563-.16016.02344-.04688,0-.14063.15234-.20703.32813-.0625.17578-.17578.46484-.25391.64063-.28125.60547-.51172,1.44531-.47266,1.67969.03906.19922-.12109.73438-.25.83984-.125.10156-.3125.83203-.23828.96875.03906.07813.07031.19922.07031.26953,0,.07422.12891.25781.28125.41797l.28125.28516.33594-.14844c.19141-.08203.375-.13672.42188-.12891.03906.01563.22656.04688.40234.0625.17578.02344.46094.05469.63672.08203.46484.05469.67188.03906.83203-.05078.08203-.03906.44922-.09375.81641-.125.37109-.02734.69922-.06641.72266-.08203.09375-.05469.375.20703.46875.44922.05859.12891.14453.23828.21094.23828.05469,0,.19141.09766.29688.20703.14844.16016.27734.21094.63672.22656.28125.01563.55469.09375.72266.19922.15234.08984.34375.16797.42188.16797.22656,0,.85547.23047,1,.36719.13672.12891,1.41797.23438,1.6875.14453.08203-.02344.23438-.23047.34375-.46484.21094-.44531.25781-.6875.12109-.6875-.03906,0-.15234-.14453-.23828-.32031-.12109-.23047-.16797-.52734-.20313-1.13672-.03906-.80469.01172-1.13281.25-1.60547.08984-.18359.09766-.29688.02344-.53516-.10547-.35547.01563-1.23438.23438-1.63281.20703-.40234.40625-1.25.40625-1.80078.00781-.44922.03906-.56641.29688-.94531.15234-.23047.26953-.48828.26172-.56641-.02344-.25781.00781-.32813.23438-.59375.14453-.16016.3125-.54297.44531-.98438.12109-.39844.26563-.83203.32031-.95703.18359-.42578.27344-.78516.33594-1.28125.05078-.44141.23438-.92188.35938-.92188.02734,0,.04297-.13281.04297-.30078-.01563-.27344.0625-.5625.18359-.65625.03125-.02344.17578-.28906.32813-.58594.14453-.30469.33594-.58203.41406-.625.08203-.03906.14453-.11719.14453-.17578,0-.05469.08984-.22266.19141-.38281.10547-.15234.23438-.41406.27344-.57422.04688-.16797.19141-.42578.32813-.58594.14453-.16016.24609-.36719.24609-.49609,0-.12109.07422-.32813.16016-.45703.08984-.13281.16016-.30078.16016-.38281,0-.07813.07422-.36719.16797-.64063.14453-.41406.16016-.58984.10547-1.09375-.03125-.32813-.04688-.71484-.03906-.83984.03125-.45703-.80078-.92188-1.21094-.67969Zm-5.46875,11.24609c.13281.12891.10938.375-.07422.75391-.05469.10938-.08594.30078-.07031.4375.02344.12891.05469.39453.07813.57031.03125.23828.00781.40625-.09375.59766-.08203.15234-.16797.47266-.20313.71484-.03125.23828-.09375.58203-.14844.75781-.05078.17578-.10547.48047-.11328.67969s-.08203.47266-.14453.60156c-.07031.13672-.12109.36719-.11328.51953s-.01563.35156-.0625.44141c-.03906.08594-.08984.47656-.10547.87891-.0625,1.6875-.14453,1.81641-.94141,1.42969-.35156-.16016-.57813-.20703-.97656-.20703-.50391,0-.53516-.01563-.83203-.3125-.16797-.17578-.33594-.40625-.35938-.51172-.02344-.10938-.07422-.18359-.11328-.16016-.03125.01563-.16797-.04688-.3125-.15234-.14453-.10156-.39063-.21484-.55078-.24609-.32813-.06641-.74609-.25781-.83203-.39453-.17578-.26953.17578-1.18359.49609-1.28516.20703-.06641.91016-.89844,1.0625-1.26563.07422-.16016.16797-.29688.22656-.29688.04688,0,.375-.28516.72656-.63672.35156-.35547.75-.70703.88672-.77734.14453-.0625.35938-.20703.48047-.3125.12891-.10547.27344-.19141.33594-.19141.05469,0,.14453-.11328.19141-.24219.07422-.20703.28125-.47656.63281-.8125.15234-.15234.375-.38672.51953-.54688.16797-.19141.25-.19922.41016-.03125Z"/>

</g>
</svg>
