<?xml version="1.0" encoding="UTF-8"?>
<svg xmlns="http://www.w3.org/2000/svg"
     version="1.1"
     width="49.41784988mm"
     height="51.85684841mm"
     viewBox="0.00000000 0.00000000 140.08210332 146.99580266">

<g transform="scale(4.31933435)">   <defs>
      <style type="text/css"><![CDATA[
      .b {
        stroke: #000;
        stroke-miterlimit: 10;
        stroke-width: .1px;
      }
    ]]></style>
   </defs>
   <path class="b"
         d="M32.2802.07113c-1.77116.81646-3.89711,3.13073-4.45281,4.93448-.86892,2.82049-1.56468,5.8432-3.10943,8.39564-.4879.80618-5.11552,7.49358-1.63023,6.70338,1.51697-.34393,3.149-3.36475,4.08642-4.52867,1.10582-1.37302,1.73621-3.00301,2.40903-4.61186.78398-1.87467,1.33197-3.85045,1.85419-5.80835.35296-1.32331,1.24259-3.35519.84283-5.08462Z"/>
   <path class="b"
         d="M17.34839,7.5852c.03074-.1067.00029-.17647-.09136-.20931-.98778.29607-1.96081.77841-2.79901,1.41399-1.25368.95064-1.10443,1.7645-.24393,2.88857.71643.93588.78483,1.95634,1.2598,3.02609.47273,1.06472,1.19163,2.02393,1.96,2.8864,1.26485,1.41975,3.62475,3.55873,5.69422,3.1168,4.13981-.88406.66439-4.44441-.8449-6.19146-1.05482-1.22099-2.33498-2.19917-3.08062-3.74949-.63098-1.31191-1.07708-2.30983-1.85419-3.1816Z"/>
   <path class="b"
         d="M18.88974,1.22714c-1.81907-.19345-3.60093,2.6218-4.31639,4.04824-1.10363,2.20036-2.59394,3.64643-4.11303,5.6324-1.54622,2.02145-3.10829,3.99306-4.50303,6.1156-.83785,1.27505-1.3836,2.67361-2.19203,3.9545-1.00174,1.58718-1.47277,3.18237-2.21294,4.91579-.9625,2.2541-2.88273,5.82462.09359,7.4366,2.86364,1.55096,5.31932-.00524,7.99043-1.15601,1.46096-.62941,3.36867-.76281,4.62868-1.78186,1.49281-1.20732-.00231-1.90369-1.25167-1.61625-2.68918.61871-5.29645,1.99787-7.75457-.33821-1.77509-1.68696-.22603-3.48927.73296-5.31071,1.28238-2.43567,2.0387-5.00228,3.70151-7.19422,1.78467-2.35258,3.66001-4.93917,5.62172-7.16143,1.45821-1.65188,3.60347-4.34312,3.9601-6.66065.07381-.47968-.27388-1.04223-.38534-.8838Z"/>
   <path class="b"
         d="M14.33785,23.67525c1.12913,2.65669,3.74197,4.9091,6.69819,3.84875,1.34013-.48068,2.81586-2.16465,3.81405-3.17837.97336-.9885,1.89498-4.0932,3.55994-3.73851.67058,1.37484-1.73921,4.63931-2.60533,5.68802-1.37395,1.66362-2.60068,3.04896-4.31651,4.33538-2.30954,1.73155-4.67972,2.56983-7.31883,1.35366-2.18467-1.00675-3.89268-2.40694-4.81671-4.65543-.61475-1.49591-1.66974-4.73199-.65514-6.23531.22121-.32777.73022-.60367.99231-.93678.27914-.35477.42718-.79734.69851-1.13167.58312-.71852,1.7934-1.19391,2.52869-.36134.59134.66959.21746,1.73781.38046,2.58759.14121.7362.73165,1.69764,1.04037,2.42402Z"/>

</g>
</svg>
