<?xml version="1.0" encoding="UTF-8"?>
<svg xmlns="http://www.w3.org/2000/svg"
     version="1.1"
     width="39.98891322mm"
     height="38.48994741mm"
     viewBox="0.00000000 0.00000000 113.35444856 109.10539938">

<g transform="scale(5.96793335)">   <defs>
      <style type="text/css"><![CDATA[
      .b {
        fill: #000;
        stroke: #000;
        stroke-linecap: round;
        stroke-linejoin: round;
        stroke-width: .25px;
      }
    ]]></style>
   </defs>
   <path class="b"
         d="M10.88787.125c-1.18298.68103-2.09601,1.40601-2.40698,2.76501-.30499,1.33301-.18701,2.65002-.91302,3.87897-.70898,1.19806-1.89795,2.02307-2.81299,3.05603-.74805.84406-1.25903,1.84802-1.98602,2.70502-1.12897,1.32898-4.20001,3.59198-1.67102,5.27496.98199.65302,2.02106.27203,3.008-.13599,1.27509-.526,2.42603-.86298,3.83002-.72394,1.3891.13696,2.76703.79193,4.17096.73096,1.32513-.05798,2.20007-.92102,3.27399-1.49103-.69189-1.10297-3.18091-.18896-4.24493-.56598-.82593-.29297-1.271-.99597-1.87195-1.59595-.23108-.2301-.70502-1.07507-.89502-1.16205-.98102-.44598-1.79901,1.69501-2.02606,2.27997-.23395.60504-.13892.98206-.97198.98401-.72101.00098-1.50891-.646-1.86401-1.22101-.711-1.15094.08002-1.99896,1.07007-2.76801,1.14294-.8869,2.04095-1.91998,3.02496-2.96796.854-.90997,1.32397-2.03699,2.12-2.992.823.62903,1.88306,1.47601,2.19202,2.49701.19196.63794-.01001,1.35596.14697,1.98798.31903,1.28802,1.55103,2.04901,2.84009,1.47205.0069-.64508-.5321-1.45209-.0481-1.99603.2851-.32001,1.177-.466,1.56903-.65607.92902-.45093,2.42505-1.20691,2.44702-2.39294-.57904-.10596-1.242.58301-1.664.92297-.58801.47101-1.92004,1.56708-2.70203,1.35907-.83997-.224-.79596-1.20001-.79596-1.85504,0-.612.14594-1.47198-.08704-2.03503-.25201-.60797-.97699-.88098-1.40802-1.42792-.258-.32703-.388-.789-.578-1.15503-.37891-.73499-.73297-1.83997-.74597-2.60498"/>

</g>
</svg>
