<?xml version="1.0" encoding="UTF-8"?>
<svg xmlns="http://www.w3.org/2000/svg"
     version="1.1"
     width="42.18347418mm"
     height="40.08666975mm"
     viewBox="0.00000000 0.00000000 119.57525933 113.63148293">

<g transform="scale(6.45746798)">   <defs>
      <style type="text/css"><![CDATA[
      .b {
        stroke: #000;
        stroke-linecap: round;
        stroke-linejoin: round;
        stroke-width: .01px;
      }
    ]]></style>
   </defs>
   <path class="b"
         d="m.70284.15975c-.10938.08594-.26172.29297-.33594.44531-.07813.15234-.19141.3125-.24609.34375-.17578.10547-.14453.71484.04688.88281.12109.10156.16016.23047.16016.53516,0,.22266.05469.51172.12109.63281.0625.125.13672.38281.16797.57422s.10156.44922.16797.57813c.0625.125.10156.42188.09375.72656-.00781.28125.01953.55859.05859.61719.07031.10938.07813.25391.13672,1.35156.00781.28906.04688.55859.07813.61719.03125.04688,0,.33594-.07031.63672-.16016.6875-.20312,1.59375-.08203,1.90625.05469.12891.07422.38281.04687.55859-.02344.17578-.03125.51953-.02344.76172.00781.23828.01562.54297.00781.67969,0,.12891-.00781.3125,0,.39844.00781.26563.01562.86328.01562,1.13672,0,.13672-.04687.30469-.10937.35938-.12109.12891-.19922.43359-.25.94531-.01563.18359-.10938.58203-.20703.89453l-.16797.5625.16797.21484c.09766.11328.20703.28125.25781.375.04688.08984.19141.19922.32812.25781.19922.07031.29297.0625.54297-.06641.16797-.08594.39844-.26172.52734-.39844.61719-.67188,1.49609-.71875,1.97656-.10547.12891.15234.19922.18359.38281.14453.16797-.03906.32031,0,.51953.11328.375.22266.90625.33594,1.08203.23828.08594-.04688.22266-.03906.36719.01563.17578.06641,1.21484.09766,2.30469.05859.10156,0,1.23047.30078,1.51172.40625.15234.0625.32031.03906.66406-.07812.3125-.11328.72656-.17578,1.27734-.19531.69141-.02344.85938-.05469,1.05078-.19922.13672-.10156.27734-.15234.32813-.12891.20703.13672.44531.11328.75781-.07031.17578-.10547.53906-.21484.79297-.23828.44141-.05859.64063-.16016.71094-.37109.01563-.05469.10547-.10156.19141-.10938.08203-.00781.23438-.05859.32813-.10547.09766-.05469.26563-.09375.37891-.09375.11719,0,.23828-.06641.28516-.16016.05078-.08203.23438-.20313.42578-.25781.51953-.15234,1.01563-.84766,1.03906-1.44922.00781-.24609-.03125-.35156-.21484-.51172-.12891-.10156-.28125-.17578-.34375-.15234-.06641.02734-.24219.05078-.40234.05078-.20703,0-.33594.0625-.50391.23828-.125.13672-.39844.32031-.60547.41797-.21875.08594-.43359.21484-.49609.26953-.05859.06641-.15234.11328-.21484.11328-.05859,0-.20313.11328-.3125.24609-.25781.30469-.92188.57031-1.12891.44922-.10547-.05469-.27344-.03906-.59375.0625-.48828.16016-.71875.1875-2.28516.22656-.83203.02344-1.12891.00781-1.48047-.10547-.30469-.09375-.48828-.12109-.58594-.0625-.08594.03906-.23828.05469-.34375.03125-.12109-.03125-.26172-.00781-.35938.0625-.14453.09766-.25.08984-.85547-.04688-.38281-.08594-.91406-.18359-1.17578-.22266-.94531-.12109-1.12109-.21094-1.26563-.57031-.20703-.51953-.05469-1.51953.32813-2.25391.25-.48047.29688-.65625.29688-1.04688,0-.41016-.02344-.48828-.20703-.625-.11328-.08203-.37109-.16797-.57813-.18359-.33594-.02344-.39063-.00781-.55078.20703-.10547.13672-.375.44141-.60156.67969-.23047.23828-.42188.47266-.42188.51172s-.06641.11328-.15234.15234c-.19922.11328-.41797-.05469-.45703-.35938-.00781-.12891-.03906-.34375-.0625-.47266-.03125-.15234.02344-.44141.14453-.77734l.18359-.53516-.16797-.42187c-.12109-.3125-.16016-.58594-.14453-1.02734.00781-.32813.00781-.91016.00781-1.29297,0-.53906.03906-.77734.16016-1.00781.07813-.16016.15234-.43359.15234-.59375s.01563-.32031.03906-.35938c.02344-.03125.00781-.26563-.03906-.49609-.05859-.3125-.05078-.53516.01563-.76953.08594-.3125.07813-.375-.15234-.82422-.21484-.42969-.23828-.54297-.19922-.94922.03906-.39453.02344-.48828-.11328-.63281-.23828-.25781-.43359-.66406-.375-.82422.04688-.16016-.05859-.27344-.49609-.50391C1.51143-.04337.95284-.059.70284.15975Z"/>
   <path class="b"
         d="m9.88643,2.18319c-.08594.02344-.27734.12891-.41406.23828-.26563.19141-.26563.19922-.23047.78516.02344.52734.04688.625.27734.87891.13672.16016.25.37891.25.48828,0,.11328.13672.44141.29688.73828.4375.79688.65234,1.24609.66406,1.34375,0,.05469.15625.25391.35156.45313.46094.46484.53516.79297.26953,1.25-.17578.3125-.46484.48828-.78906.48828-.21875,0-.57813.51953-.89844,1.30469-.36719.87891-.32813.99219.39063,1.29297.48828.21094.52344.21875.72266.08203.32813-.21484,1.04688-.96094,1.18359-1.23047.07031-.13672.16016-.25.19141-.25.03906,0,.12891-.12109.19922-.27344.19141-.40625.33594-.45313.87109-.28516.50781.15234,1.41797.82422,1.63281,1.19141.13672.22266.96094.64844,1.27344.64844.08594,0,.23828.05469.32813.11719.23047.16016.83203.36328,1.08594.36328.17578,0,.25-.05859.34375-.28125.14453-.35156.08984-.67188-.21484-1.20703-.20703-.37109-.26953-.42578-.60547-.50391-.61719-.15234-1.44922-.58594-1.50391-.78516-.02734-.09766-.11328-.19922-.20313-.22266-.23047-.08203-.94922-.98438-.89453-1.13672.02344-.06641.28125-.23438.55078-.35156.41016-.18359.51953-.28125.5625-.45703.10156-.44922.58203-1.0625.92578-1.17578.07422-.02344.19141-.19141.26563-.375.07031-.1875.19141-.42578.26953-.53906.07422-.10938.19531-.35156.26563-.53516l.12109-.32813-.28125-.25391-.28906-.25-.64063.08984c-.35156.04688-.70313.11719-.77344.15234-.07422.03906-.20703.23828-.30469.44531-.22266.47266-.76172,1.20313-.96875,1.3125-.08594.04688-.16016.13672-.16016.19922,0,.28125-.82422.97656-1.00781.85938-.26953-.17969-1.39063-2.13672-1.39063-2.42578,0-.07031-.04688-.23828-.11328-.36719-.0625-.12109-.19922-.43359-.30469-.6875-.16016-.39453-.23047-.48047-.51953-.60938-.42969-.19922-.58984-.23047-.78516-.19141Z"/>

</g>
</svg>
