<?xml version="1.0" encoding="UTF-8"?>
<svg xmlns="http://www.w3.org/2000/svg"
     version="1.1"
     width="19.02375794mm"
     height="14.78766986mm"
     viewBox="0.00000000 0.00000000 53.92558727 41.91776014">

<g transform="scale(3.03403411)">   <defs>
      <style type="text/css"><![CDATA[
      .b {
        stroke: #000;
        stroke-linecap: round;
        stroke-linejoin: round;
        stroke-width: .25px;
      }
    ]]></style>
   </defs>
   <path class="b"
         d="M17.01853.1262c-1.53329.0419-2.51218-.23478-3.34826.9258-.46171.64091-.50724,2.84128-.53856,3.60505,1.13274.14236,2.23299-.10782,3.29032-.29709.28315-1.39373,1.28014-2.81191,1.22427-4.22891-.4122.40107-.44894-.01972-.85202.00096"/>
   <path class="b"
         d="M8.28967.99006c-1.71591-.15191-5.39158.73421-5.50681,2.66202,1.69888.43211,3.04348-.10317,4.61462-.56057,1.66494-.4847,3.29156-.39326,5.07919-.72304,2.21268-.40821,2.68259-1.2573.51104-1.92523-1.63477-.50283-3.26935.17473-4.69803.54683"/>
   <path class="b"
         d="M.61467,6.79781c2.37542,2.92247,7.08649,2.51307,10.05507,3.79209,2.37303,1.02242-.81623,4.81653,2.40655,2.19302,2.49231-2.02887,6.51694-7.28798.96185-6.41665-3.20603.50288-5.57433-.26564-8.40512-2.06254-1.63637-1.03872-1.8615-1.87056-3.77875-.75683-1.1582.67279-2.45796,2.72577-1.2396,3.2509h0Z"/>

</g>
</svg>
