<?xml version="1.0" encoding="UTF-8"?>
<svg xmlns="http://www.w3.org/2000/svg"
     version="1.1"
     width="39.77622586mm"
     height="37.92804382mm"
     viewBox="0.00000000 0.00000000 112.75145773 107.51255792">

<g transform="scale(5.41829972)">   <defs>
      <style type="text/css"><![CDATA[
      .b {
        stroke: #000;
        stroke-linecap: round;
        stroke-linejoin: round;
        stroke-width: .25px;
      }
    ]]></style>
   </defs>
   <path class="b"
         d="m10.58223,1.51527c.707-1.36005,2.95901-2.203,3.45401-.19897.203.82501-.25101,1.28595-.86502,1.74097-.53497.396-1.017,1.10699-1.58099,1.41504,1.12-.974-.808-1.43903-1.483-1.284-.522.11798-1.88498.68298-2.242-.005-.53098-1.03003,2.33801-4.27301,2.793-1.66803"/>
   <path class="b"
         d="m10.58225,1.51527c.70599-1.35999,2.95898-2.20294,3.45399-.19897.20299.82501-.25102,1.28497-.86501,1.74097-.535.396-1.01703,1.10706-1.58102,1.4151,1.12003-.97406-.80797-1.43903-1.48299-1.2851-.522.11902-1.88499.68304-2.24199-.00397-.53099-1.03003,2.338-4.27301,2.79298-1.66803"/>
   <path class="b"
         d="m12.17423,5.94929c1.49899.68896.688,2.87195-.53101,3.56702-.39598-.30804-.98198-.69702-1.528-.75-.37399.49799-.66199.71399-.28998,1.30798.25598.40802-.01102.31598.543.37299.52899.05402,1.202-.53601,1.604-.755.38998-.211.99599-.49701,1.44897-.35901.675.20404.45901.78705.903,1.15704.91801.76599,2.375-.83405,3.08202-1.33203.58801-.414,1.259-.74701,1.80597-1.21698.60202-.51801.96703-1.30798,1.37701-1.96204.666,1.84503-2.34601,2.91101-3.39499,3.75897-.59.47504-1.59801.89404-2.06801,1.49103-.381.48297-.198.32605-.071.83301.19301.76501.341,1.40997.07602,2.21899-.18701.57104-.47601.77301-.90802,1.14301-.52899.45203-.78497,1.005-1.22699,1.48401.073-.96301,1.01401-2.42798.70299-3.36902-.321-.97095-1.89299-.70203-2.58699-.495-1.84.55103-3.52.33502-5.39398.32104-.38602-.00201-1.15802-.14807-1.50803.01099-1.48599.677-.46597,2.40894.12701,3.34198.84399,1.32803,2.45,1.04001,3.63998.54901.446-.18399.64801-.41901.97501-.04501.21001.23801.52299,1.96402.489,2.32098-1.091.40802-2.028.013-3.04198-.30399-1.00702-.31396-2.00002-.38696-2.86502-1.07196-.58301-.46204-.923-1.18604-1.571-1.57001-.533-.31708-1.237-.28204-1.632-.86005-.55598-.81396.12201-1.53198.737-1.896.94101-.55695,3.168-2.59399.95801-3.18695.05801-.87805.71599-1.69702,1.65102-1.56604,1.19998.16803,2.17798,1.02496,3.43997.76202,2.175-.45502,2.33-3.75104,4.44603-3.93799.02197.06195.02397.12598.004.19"/>
   <path class="b"
         d="m12.17424,5.94929c1.49898.68903.688,2.87195-.53102,3.56702-.396-.30798-.98199-.69702-1.528-.75-.37399.49695-.66197.71399-.28999,1.30798.256.40796-.011.31604.543.37299.52902.05402,1.20201-.53595,1.60402-.75494.38998-.21106.99599-.49701,1.44897-.35907.675.20404.45901.78705.903,1.15704.918.76599,2.375-.83405,3.082-1.33203.58899-.414,1.259-.74695,1.806-1.21698.60201-.51801.96701-1.30798,1.37701-1.96204.66599,1.84503-2.34599,2.91107-3.395,3.75806-.59001.47595-1.59801.89502-2.06801,1.49194-.38098.48303-.198.32599-.07098.83301.19301.76508.34097,1.41003.076,2.21906-.187.57098-.47601.77295-.90802,1.14301-.52899.45197-.78497,1.00494-1.22697,1.48398.07298-.96304,1.01399-2.42801.70297-3.36905-.32199-.97095-1.89299-.70294-2.58699-.49493-1.84.55096-3.52.33496-5.394.32092-.38599-.00195-1.158-.14801-1.50801.01099-1.48599.67706-.46597,2.40906.12701,3.34204.84399,1.32806,2.45,1.04004,3.63998.54904.44598-.18402.64801-.41901.97501-.04602.21001.23898.52299,1.965.489,2.32196-1.091.40802-2.028.013-3.04199-.30399-1.00699-.31396-2-.38699-2.86501-1.07196-.58301-.46201-.923-1.186-1.571-1.57001-.533-.31702-1.237-.28204-1.632-.86096-.55598-.81305.12201-1.53101.737-1.89508.94-.55695,3.168-2.59399.95801-3.18695.058-.87805.71599-1.69702,1.65102-1.56598,1.19998.16797,2.17798,1.0249,3.43997.7619,2.175-.45496,2.33002-3.75098,4.44603-3.93793.02298.06201.02397.12598.00398.18994"/>

</g>
</svg>
