<?xml version="1.0" encoding="UTF-8"?>
<svg xmlns="http://www.w3.org/2000/svg"
     version="1.1"
     width="47.22996589mm"
     height="67.38780202mm"
     viewBox="0.00000000 0.00000000 133.88028411 191.02059586">

<g transform="scale(4.56959085)">   <defs>
      <style type="text/css"><![CDATA[
      .b {
        stroke: #000;
        stroke-linecap: round;
        stroke-linejoin: round;
        stroke-width: .01px;
      }
    ]]></style>
   </defs>
   <path class="b"
         d="m7.01281.19792c-.0625.12109-.22266.33594-.35156.47266s-.28125.35938-.33594.48828c-.05469.13672-.16797.26563-.25.28906-.26953.08594-.49609.50391-.47656.89453,0,.19922.04688.42578.08594.51172.05469.10547.05469.20313,0,.3125-.05469.11328-.04688.24219.04688.48047.07422.17578.11328.43359.09766.57813-.03125.16797.02344.375.17578.65625.12109.22266.26563.60547.3125.84766.19922.86328.28125,1.07813.47266,1.26953.11719.12109.17578.24219.14453.35156-.02734.08984-.00781.22656.03125.29688.04688.08984.04688.24219,0,.39063-.05859.19531-.03125.3125.10156.57031.16797.30469.16797.32813.05078.55078-.11328.18359-.12109.30469-.05859.65625.05078.24219.08203.57031.07422.73828-.00781.16016.02344.36719.07031.45313.06641.12109.05859.21875-.03906.40234-.27344.52734.15234,1.66406.73438,1.98438.32031.17578.34375.17578.53906.04688.10938-.07422.26172-.10547.33594-.08203.08594.03516.25391-.07813.52734-.34375.34375-.33594.40625-.45313.42969-.74219.01563-.19141.10547-.51953.19531-.73047l.16797-.38281-.16797-.46484c-.08984-.26172-.1875-.71875-.21875-1.01563-.02344-.30469-.09375-.62109-.16016-.71875-.05469-.08984-.09375-.24609-.09375-.35938.00781-.10547-.01563-.53516-.05078-.95313-.04688-.56641-.09375-.79297-.20703-.89453-.10156-.10547-.13672-.22656-.11328-.47266.02734-.18359.01172-.39063-.03125-.46484-.04688-.07813-.03906-.28125.00781-.50391.08203-.32031.06641-.42188-.07031-.75781-.10547-.22656-.16797-.5625-.16797-.80859,0-.23438-.03906-.52734-.09766-.65625-.05469-.13672-.07813-.35938-.04688-.53516.08984-.49609.05469-.91406-.12109-1.45703-.19141-.60938-.375-.91406-.51953-.85547-.05469.02344-.15234-.00781-.20703-.06641-.05469-.05469-.24219-.11719-.41016-.15234-.26172-.03906-.30859-.02344-.40625.17578Z"/>
   <path class="b"
         d="m10.6925.19011c-.02344.01563-.12891.05078-.22266.05859-.10547.00781-.20703.02344-.24219.03125-.02344,0-.11719.12891-.20703.26172-.20703.36328-.28906,1.30469-.13672,1.76172.06641.19141.15234.625.19141.96875.05078.33594.14453.75.21094.90234.09375.24219.10156.35156.02344.60938-.08203.26563-.07422.375.04688.70313.12109.33594.12891.43359.03906.67188-.07031.19922-.07813.35156-.02344.50391.04688.14453.04688.32813,0,.51172-.0625.23438-.03906.38672.09766.76172.10938.28906.16016.57422.13672.75-.01953.15234.00781.42578.04688.60156.04688.17578.08594.39844.08594.49609s.08984.34375.1875.55859c.15625.32813.17578.41016.08594.625-.09766.22266-.09766.45703-.00781,1.19922.04688.41797.23828,1.35156.30469,1.45703.09375.14453-.08984.28125-.43359.3125-.19141.01563-.58984.03906-.87891.05469s-.60156.08203-.69531.12891c-.09766.04688-.17578.07031-.17578.03906,0-.02344-.05859,0-.12891.05859-.08984.07031-.30469.09375-.64844.08594-.28906-.01563-.6875.01563-.89453.0625-.3125.07422-.44141.06641-.88281-.07813-.27734-.08984-.55859-.19922-.61328-.25-.06641-.04688-.26563-.10156-.44922-.10938-.19141-.01563-.41406-.04688-.50391-.06641-.16797-.03906-.96094-.39844-1.16016-.52734-.0625-.03906-.21484-.09375-.32813-.11719-.14453-.03516-.25391-.15234-.39063-.44922-.10547-.21484-.23438-.40234-.29688-.40234-.05469,0-.16797-.0625-.25781-.14844-.07813-.08203-.23828-.16797-.35938-.20313-.10938-.02344-.20703-.08594-.20703-.125,0-.1875-.38281-.23438-.71094-.10547-.18359.07031-.32813.16016-.32813.19141s-.21875.32813-.48047.65625L.005,13.23308l.23828.45313c.13672.25.24219.49609.24219.55469,0,.13281,1.03906.70313,1.34375.72656.15234.00781.35938.10547.48047.21484.12109.11328.26953.21094.33594.21094.30469.00781.66406.09375.76563.18359.06641.04688.13672.07031.16797.04688.02734-.02344.15234.00781.28125.07031.18359.09766.39063.11328.80859.08984.35156-.03125.63281-.00781.73438.04688.08984.05078.28906.09766.44141.10547s.53516.03906.83984.07031c.64844.07422.79297.07422,1.12109,0,.13672-.03125.48828-.0625.78125-.07813.37109-.02344.63281-.08984.80859-.19922.20313-.12109.36328-.15234.625-.12891.34375.03125.94531.26172.94531.36719,0,.03125.08594.15234.19922.27344.11328.11719.19922.26953.19922.33594,0,.23047.24219.56641.47266.67188.12891.04688.25781.14453.28125.20703s.09375.11328.16016.11328c.0625,0,.30859.17578.54297.39844.23047.21484.44922.39844.48828.39844.03125,0,.14453.19531.23828.41797.23438.52734.18359.92969-.14453,1.19922-.11719.10547-.27734.24219-.35156.30469-.07031.0625-.27734.22266-.44531.35156-.40234.30469-.44922.36719-.35547.53516.11328.21094-.125.41016-.42969.35938-.24219-.03906-.375-.16016-.375-.35156,0-.04688-.03516-.09375-.06641-.09375-.15234,0-.25391-.44922-.24609-1.08203.00781-.72656-.13672-1.44531-.32813-1.64063-.19141-.19141-1.03125-.23047-1.12891-.05469-.17578.30469-.51953.70313-.63281.73828-.07031.02344-.20703.18359-.3125.35938-.15234.26953-.16797.35156-.08594.64063.0625.23828.0625.35938-.01563.49219-.05859.10547-.08984.25-.07422.32031.00781.08203-.01563.20313-.0625.28906-.08984.16016.01563.83203.17578,1.09766.07813.14453.19141,1.00781.23828,1.87109.00781.20703-.03125.43359-.10156.55078-.10547.16797-.11328.28906-.04688.63281.0625.35156.04688.48047-.05859.71094-.09375.18359-.11328.32813-.0625.41016.03906.07031.03906.22266.00781.33594-.08984.27734-.25781,1.97656-.28125,2.76563-.00781.35547-.04688.76953-.10156.92188-.22656.71094-.27344.96094-.23438,1.12891.06641.22266-.16016.77344-.32813.82422-.07813.01563-.38281.03125-.6875.03125-.44141,0-.64063.03906-1.01563.21484-.41016.19922-.48828.21484-.70313.12109-.13672-.04688-.26563-.16016-.28906-.23438-.02344-.07031-.16797-.18359-.32813-.23828-.23047-.07813-.32813-.19141-.52734-.60938-.13672-.27734-.28906-.48828-.33594-.46875-.12891.04688-.24219-.05859-.38281-.32813-.06641-.13672-.25781-.45703-.41797-.71484-.16016-.26172-.28906-.54297-.28906-.61328,0-.08203-.09375-.24219-.20703-.35547-.13672-.14063-.18359-.24609-.15234-.34375.03125-.07031.06641-.23828.08203-.375.00781-.12891.0625-.24609.11719-.26172.18359-.06641.39453-.32813.44922-.55469.10547-.48047.23828-.71094.67969-1.14453.25-.23828.51172-.55859.58594-.70313.07031-.13672.16797-.25391.20703-.25391s.09375-.07422.12109-.16016c.0625-.20313.39844-.37891.83203-.44922.26953-.03906.33594-.08984.38281-.26563.12891-.55859.3125-.71875.86328-.77344.13672-.01563.28125-.03125.32031-.03906.04688-.01172.13672.01563.20703.03906.16016.0625.24219-.10547.27344-.52734.01563-.28906,0-.3125-.28906-.40234-.23047-.0625-.39063-.0625-.61719,0-.16016.04688-.46875.11328-.6875.13672-.35156.04688-.67969.26563-.78125.51172-.01563.03125-.17578.16797-.36328.30469-.19141.13672-.59766.47266-.90234.75-.3125.28125-.60156.53125-.63281.55469-.03906.02344-.11719.15234-.19141.28516-.07031.13672-.18359.28906-.24609.34766-.07422.0625-.12891.16797-.12891.24609,0,.07031-.09766.24609-.22656.375-.32422.36719-.49219.60938-.49219.71484,0,.05469-.05078.14844-.10547.20703-.05469.05469-.22266.34375-.36719.64844-.16016.32031-.48828.75781-.79297,1.07813-.53516.5625-.73438.99219-.58594,1.28125.05078.08594.05078.19141,0,.26953-.05469.10547-.03125.1875.08984.30469.08594.08984.23047.3125.32031.50391.16016.33594.67188.9375.80859.9375.03125,0,.125.10547.20703.23828.07031.12891.17578.24219.23047.24219.21094,0,1.60938,1.36719,1.67969,1.64063.03516.11719.12109.19922.27344.22266.15234.03125.25.12109.30469.28906.0625.17578.15234.24609.35156.28516.14453.03516.40625.13672.58594.22656.17578.09375.39063.16016.47656.14453.19531-.03516.35547-.23438.35547-.44922,0-.08984.03125-.32031.07031-.51953s.07031-.48828.05469-.64063c-.00781-.15234,0-.32813.01563-.375.06641-.16016.57813-.27344.76953-.17578.08984.04688.26563.0625.39063.03906.12891-.02344.35156.00781.50391.0625.3125.12891.41016.37891.32813.79297-.03125.13672-.08594.47266-.11719.73438-.04297.26563-.12891.68359-.20313.92188-.07031.23828-.14063.54297-.16797.67188-.01563.12109-.05469.28906-.07813.36719-.02344.08203.00781.29687.07031.48047.06641.18359.09766.38281.07422.44141-.01563.0625.03125.18359.10938.26953.37109.42578,1.25,1.28906,1.30469,1.28906.04297,0,.08984.07422.12109.15234.05469.18359.33594.23047.82422.15234.18359-.03125.43359-.02344.53516.01563.25.09766,1.12109-.17578,1.34375-.41406.12109-.12109.23438-.14453.60938-.12109.24609.02344.58203.10156.73438.18359.14453.07813.3125.15234.35156.15234.17578.01563.44141.13672.44141.19922,0,.09766.82422.55859.99219.55859.07031,0,.30469.16016.50391.36328.19922.19922.41797.35156.47266.32812.0625-.02734.15234.00781.20703.05469.05469.05469.32031.14453.58594.19141.38281.0625.51172.0625.64453-.03125.15234-.09766.19531-.09766.28906.00781.06641.05469.29688.17578.51953.25391.38672.13672.42578.13672.71484.00781.27734-.11719.35156-.125.72656-.02344.28125.07422.44141.08203.48828.03516.07813-.08203.19141-.10547.58984-.13672.07422,0,.15234-.07422.1875-.16016.03906-.13672.67969-.41797,1.22266-.54687.09375-.02344.17578-.07031.17578-.10938,0-.07422.44922-.52734.98438-1.00781.16016-.14453.36719-.26563.45703-.26563.10156,0,.21484-.09375.30078-.24609.22656-.41016.29688-.48047.45703-.50391.08984-.00781.28125-.18359.42578-.37891.15234-.19141.35938-.38281.46094-.42188.10547-.04688.19531-.11328.19531-.14453,0-.14453.58203-.625.84766-.69531.32813-.08984.48828-.04688.54297.13672.05469.17578,0,1.59766-.07031,1.86328-.05078.20703.05469.38281.32813.53516.0625.03906.125.12109.13281.18359.03516.19922.14453.3125.29688.3125.08203,0,.20703.05469.28125.12891.10156.10156.16797.10938.32031.04688.10938-.04688.24609-.07031.30469-.04688.17578.0625.35156-.21875.59766-.9375.17578-.51953.21484-.72656.15234-.87109-.11328-.3125-.09766-1.16797.03906-1.36719.09766-.15234.09766-.25781,0-.82422-.0625-.35938-.11719-.83984-.125-1.07422-.01172-.3125-.04297-.42969-.14453-.46094-.19141-.05859-.20313-.15234-.13672-.99219.05469-.67188.03906-.80078-.10547-1.10547s-.15234-.38281-.0625-.73438c.0625-.28125.07031-.47266.01563-.63281-.04688-.12891-.0625-.25-.03906-.27344.09375-.09375.0625-1.32813-.04297-1.69531-.0625-.22266-.10938-.52734-.10938-.67969s-.03125-.32031-.08203-.38281c-.05469-.05859-.08594-.24219-.07813-.41016.01563-.24609-.02344-.33594-.25781-.55078-.23828-.21484-.27734-.29688-.23828-.49609.05469-.27344-.08203-.6875-.30469-.90625-.07813-.07813-.15234-.23047-.16016-.33594-.00781-.10938-.01563-.29297-.02344-.42188-.00781-.12109-.08203-.33594-.15234-.48047s-.12891-.32813-.12109-.39844c.02344-.25781-.00781-.32813-.16016-.37891-.20703-.0625-.3125-.36719-.375-1.11719-.02344-.35547-.10547-.73828-.16016-.85938-.0625-.11719-.11328-.30078-.11328-.40625,0-.09766-.03906-.22266-.08594-.27344-.07422-.07031-.12109-.22266-.14453-.4375-.00781-.03125-.07813-.07422-.16016-.10547-.08594-.02344-.17578-.11328-.19922-.18359-.07422-.20703-.66406-.21484-.98438-.01563-.30469.18359-.51953.49609-.55078.78516-.01563.23047-.07422.49609-.15234.74219-.03125.08203-.13672.17578-.24219.19922-.10156.02344-.21484.11328-.23828.19141-.02344.08984-.11328.17578-.19922.20313-.24219.07813-.73828.50391-.90625.78125-.19141.32031-.17578.30469-.3125.32813-.05469.00781-.19141.09766-.29297.20313-.12109.11719-.24219.16797-.35547.13281-.10156-.02344-.24609.03516-.39063.16016-.12891.10547-.30469.19141-.38281.19141-.08203,0-.16797.06641-.19141.14453-.03516.08984-.14453.20313-.25781.26563-.11328.05469-.24609.18359-.29688.28125-.05469.09375-.41406.44531-.81641.78906-.39063.34375-.75.6875-.78906.76953-.14453.30469-1.00781.35938-1.00781.07031,0-.16016-1.21875-1.26172-1.44141-1.3125-.16797-.03125-.28125-.125-.39063-.35156-.24219-.46875-1.28125-1.46094-1.57813-1.50391-.0625-.00781-.27734-.19141-.48047-.40625-.19141-.20703-.45313-.49609-.57422-.625-.12891-.13672-.25-.28125-.28125-.33594-.07813-.12891.41016-.625.77734-.77734.17578-.07031.36719-.19922.42188-.28516.12891-.18359.72266-.50391.80859-.44922.03125.01563.25781-.14453.48828-.35938.23438-.21484.45703-.39063.49609-.39063.13672,0,.28125-.44922.25781-.80078-.01563-.19922-.03125-.51953-.05078-.72266-.00781-.19922-.0625-.4375-.11719-.53516-.05859-.09375-.09766-.35156-.09766-.57422,0-.27344-.03906-.42578-.12109-.47266-.14063-.08203-.20703-.30469-.25391-.90234-.03125-.34766-.00781-.48047.09375-.58594.07422-.07031.16016-.11328.20313-.08984.09375.05859.64844-.19141.90234-.40625.17578-.15234.26563-.17578.375-.11328.16016.08984.21875.05078.54688-.35156.05469-.07031.19141-.15234.30859-.17578.11328-.03125.41016-.26172.65625-.52734.25-.25781.57031-.54297.71484-.63281.26953-.17578.51172-.625.48828-.91016-.00781-.08984.00781-.25781.03906-.36719.04688-.17969.00781-.26563-.26563-.54688-.20703-.21484-.32813-.41406-.33594-.55078,0-.28906-.79297-.9375-1.04688-.87109-.09766.03125-.24219.00781-.32813-.03125-.43359-.24219-1.00781.50391-.65625.85547.0625.0625.09766.16797.07031.23047-.02344.05469.02734.14453.12109.19141.08984.05078.18359.16016.20703.25781.03516.09375.12891.23828.21094.32031.19141.19141.19141.58203,0,.76563-.08203.08203-.16797.21875-.20313.30469-.0625.19922-.62891.53516-.79688.47266-.07422-.02344-.12891-.00781-.12891.03906,0,.12891-.6875.41797-1.03125.42578-.16016,0-.34375.05469-.41797.11719-.13672.11328-.30469.16016-.77344.23438-.14453.01563-.35547.08594-.44922.16016-.16797.10156-.19922.10156-.32031-.00781-.16016-.16016-.16016-.20703-.00781-.57031.10547-.25391.10547-.35938-.01563-1.01563-.14453-.78125-.16016-1.07813-.06641-1.4375.04297-.15234.01953-.3125-.0625-.48047-.12891-.25-.26563-.97656-.21484-1.13672.00781-.04688.01563-.16797.01563-.28125-.00781-.42188-.00781-1.25391,0-1.51953,0-.15234-.03125-.48828-.08984-.74219-.07031-.39453-.0625-.51172.04297-.71484.09375-.17578.10156-.29297.04688-.46094-.04688-.12891-.06641-.24219-.04688-.26563.10156-.10547.03906-.86328-.08203-.98438-.12109-.11328-.12109-.14453.00781-.35938.11328-.18359.12109-.25781.04688-.29688-.125-.07813-.48828-1.0625-.4375-1.19922.01563-.04688-.00781-.09766-.05078-.09766-.09375,0-.26953-.46875-.20703-.56641.02344-.03906-.0625-.23828-.19922-.44922-.13672-.20703-.24609-.41406-.24609-.48047,0-.05469-.03516-.10156-.07422-.10156s-.10547-.08203-.13672-.17578c-.02344-.09766-.10938-.23438-.17578-.29688-.13672-.14453-.63281-.32813-.6875-.26563Zm13.45703,24.16016c.07813.22656.25391,1,.26953,1.21875,0,.0625.07422.20703.16016.3125.08203.10156.14453.24609.14453.30859,0,.07422.05859.18359.12891.26563.07422.07813.16016.25781.19141.40625.03906.14453.14453.48047.23438.73828.09375.26172.16797.55859.16797.66406,0,.10156.0625.32031.15234.48828.07813.16016.125.33594.10938.39063-.01563.04688.02344.19922.08984.33594.07031.13672.14453.46484.16797.72656.01563.26563.07031.54688.10938.625.08203.14453.1875,1.03125.21094,1.73828.00781.21484.03906.45313.0625.51953.02344.0625.0625.32031.08984.55859.01563.24219.07031.52734.10938.64063.13672.375-.03125.66406-.90234,1.55859-.46484.47266-.83984.89844-.83984.9375s-.12109.12109-.25781.18359c-.14453.05469-.32031.18359-.38281.28125-.0625.09375-.21484.22266-.33594.28516-.12109.06641-.35938.25-.52734.41797-.57031.55078-1.12109.87891-1.77734,1.0625-.19922.05078-.50391.16016-.6875.24219-.17578.08594-.39844.15234-.48828.15234-.09766,0-.18359.03906-.19922.08594-.02344.08203-.25.13672-.75391.19141-.13281.00781-.4375-.04688-.67969-.13281-.23828-.08984-.53516-.17969-.67188-.1875-.25391-.02344-.87891-.30078-.96094-.4375-.02344-.03906-.11719-.08203-.20703-.08203-.07813,0-.30469-.14453-.48828-.32031-.19141-.17578-.36719-.32031-.39063-.32031-.03125,0-.17578-.10938-.32031-.23828-.15234-.13672-.35938-.29688-.47266-.35938-.26172-.14453-.85547-1.32031-.92578-1.83984-.04297-.32031-.10547-.45703-.33594-.6875-.16797-.15234-.35547-.36719-.41797-.46484-.0625-.10547-.21484-.25781-.34375-.34375l-.21484-.15234-.25.18359c-.13672.10547-.42188.35156-.64063.55859-.21484.21875-.41406.38672-.46094.38672-.04297,0-.16016.11719-.27344.26953-.19922.25781-.19922.28906-.12891.81641.15234.99219.19922,1.44922.16797,1.54688-.03906.10937-.4375.32422-.60547.32422-.06641,0-.21875-.08594-.33594-.19922-.12109-.10938-.24219-.19922-.27344-.19922-.08203,0-.30469-.56641-.30469-.79297-.00781-.10156.04688-.29297.11328-.42969.07031-.12891.12891-.44141.12891-.6875.00781-.66406.18359-1.59375.34375-1.76953.07813-.08984.39844-.23047.71094-.32813s.70313-.24609.87109-.32813c.23438-.12109.35938-.13672.57031-.07813.14063.04688.31641.04688.375.01563.05469-.04297.23047-.06641.39844-.06641.16016,0,.35938-.03906.44922-.07813.08594-.04688.18359-.07422.20703-.03906.02344.02344.19922.03906.38281.03906.20313-.00781.51563.07031.74609.18359.22266.10547.56641.21484.75781.23828.1875.02734.38672.06641.43359.09766.08203.04688.63281.10547,1.05469.10547.86719,0,.83984.01563.98438-.48047.28125-.94531.21875-1.05078-.62891-1.08203-.59375-.02344-.89063-.07031-1.03516-.16016-.03906-.02344-.20703.00781-.375.08203-.21484.08594-.35156.10156-.50391.04688-.11328-.03906-.39844-.09766-.64063-.12891-.23828-.02344-.52734-.10156-.625-.16797-.23828-.16016-.96484-.19141-1.18359-.05469-.08594.05469-.35938.11328-.59766.12109-.24219.00781-.52734.0625-.65625.11719-.16016.08203-.25781.08984-.375.02344-.12891-.0625-.21094-.05469-.33594.04297-.39453.26953-.92969-.00781-.83203-.42578.03125-.12109.07031-.41406.08594-.65625.01563-.23828.07422-.55859.11328-.71094.04688-.15234.07031-.29688.04688-.3125-.01563-.02344.00781-.11328.04688-.19922.06641-.11328.06641-.24219-.00781-.46484-.08594-.25391-.08594-.35156,0-.53516.05859-.12109.11328-.30469.12891-.41797.0625-.49609.18359-1.26172.23047-1.47656.05859-.25781.06641-.37109.05859-.68359-.02344-.67188.23047-1.62891.46484-1.75781.10156-.05469.19141-.03125.32813.08594.10156.09766.31641.23438.47656.3125.32031.16797.80078.66406.98438,1.03125.07422.12891.20313.25781.28906.28906.08984.02344.16016.08203.16016.11328,0,.16016.49609.76563.78516.96094.45313.3125,1.38281,1.04688,1.60547,1.27734.11328.12109.30469.21875.44141.22656s.40625.03125.60938.04688c.34375.02344.87891-.18359.87891-.33594,0-.03125.15234-.12891.33594-.20703.32813-.14453,1.02344-.76953,1.02344-.91406,0-.03906.10547-.10938.23047-.15234.12891-.04688.28125-.16797.33594-.26953.05859-.09766.1875-.25.28906-.32813.09766-.08203.18359-.20313.18359-.25781,0-.0625.19141-.30469.42578-.53516.32031-.32813.51172-.44922.83984-.54297.3125-.08203.45703-.16797.53516-.32031.10547-.20703.41797-.40234.64063-.40234.05469,0,.12891-.07031.16016-.15234.05469-.19141.50391-.48438.64844-.42969.05469.01563.13672.12891.17578.24609Z"/>

</g>
</svg>
