<?xml version="1.0" encoding="UTF-8"?>
<svg xmlns="http://www.w3.org/2000/svg"
     version="1.1"
     width="11.02943899mm"
     height="58.57811779mm"
     viewBox="0.00000000 0.00000000 31.26448278 166.04820791">

<g transform="scale(5.28647590)">   <defs>
      <style type="text/css"><![CDATA[
      .c {
        stroke: #000;
        stroke-linecap: round;
        stroke-linejoin: round;
        stroke-width: .01px;
      }
    ]]></style>
   </defs>
   <path class="c"
         d="m1.90905.205c-.1.1-.2.3-.3.3s-.2.1-.3.2c-.1,0-.2.1-.3.1s-.3.1-.3.2c-.1.2-.2.4-.4.5C.00905,2.005-.09095,2.305.10905,2.805c.1.2.2.5.2.7s.1.4.1.5c.2.3.5.9.4,1.2,0,.2,0,.3.1.4.1,0,.1.1.1.2s.2,1.3.4,1.6c.2.4.2.9.1,1.1-.2.3-.2,1.7,0,2.2.1.3.2.5.1,1v.8s0,.2-.1.4-.1.4,0,.6c.1.3.1,1.1-.1,1.7-.1.6-.1.9,0,1.2,0,.1.1.4.1.7s.1.6.1.6c0,0,0,.4-.1.7-.2.9-.2,1.3-.1,1.8.1.3.1.5,0,.7s-.1.3,0,.4.1.3.1.8v.8c.1.1,0,.3,0,.6-.1.3-.1.5,0,.7,0,.2.1.3,0,.4,0,.1-.1.4-.2.6-.1.3-.2.6-.2.7,0,.3-.1.5-.1.7,0,.4-.2,1.1-.5,1.8q-.4.8-.4,2,0,.4.2.7c.4.4,1.1.4,1.4,0,0-.1.2-.1.6-.1.1,0,.2-.1.2-.2s.1-.2.2-.2.2-.2.3-.4c.1-.1.2-.3.3-.4s.2-.2.2-.4,0-.3.1-.4c.2-.2.3-.5.3-.7,0-.1.1-.3.2-.4.2-.2.2-.3.2-.5v-1.1c.1-.2.1-.4.1-.5,0,0,0-.2.1-.3.1-.1.1-.3,0-.6-.1-.3-.1-.4.1-.8s.2-.9.3-1.9c0-.7.1-1.1,0-1.4v-2.1c0-.2,0-.4.1-.5,0,0,0-.1,0-.2s0-.3.1-.5.1-1,.1-1.7c0-1.1.1-1.4.1-1.5.3-.2.3-.3.2-.6-.1-.1-.1-.4-.1-.5,0-.2,0-.3-.1-.3-.2-.1-.6-.8-.5-1,.1-.1,0-.3-.1-.6-.1-.2-.2-.6-.2-.9s-.1-.6-.2-.7c0-.2-.1-.7-.2-1.1,0-.5-.1-.9-.1-1,0,0,0-.1.1-.2s.1-.4-.1-.8c-.1-.2-.1-.5-.1-.6s-.1-.3-.1-.4c-.1-.2-.1-.4,0-.9.1-.2.1-1,.1-2.1v-.6c0-.1-.1-.4-.1-.6q-.2-.4-.3-.6c-.1-.1-.1-.3-.1-.3C3.40905.305,2.90905.005,2.40905.005c-.2,0-.3.1-.5.2Z"/>
   <path class="c"
         d="m5.70905,4.505s0,.1.1.2.1.1.1-.1c0-.1-.1-.2-.2-.1,0-.1,0,0,0,0Z"/>

</g>
</svg>
