<?xml version="1.0" encoding="UTF-8"?>
<svg xmlns="http://www.w3.org/2000/svg"
     version="1.1"
     width="43.13093749mm"
     height="49.67365921mm"
     viewBox="0.00000000 0.00000000 122.26098959 140.80719109">

<g transform="scale(4.30598027)">   <defs>
      <style type="text/css"><![CDATA[
      .b {
        stroke: #000;
        stroke-linecap: round;
        stroke-linejoin: round;
        stroke-width: .15px;
      }
    ]]></style>
   </defs>
   <path class="b"
         d="m12.36778,13.97157c.00088-.29543.05492-.56689.09018-.86046.13815-1.15043.09784-2.32786.02873-3.47887-.03309-.5511-.11265-1.09793-.14287-1.64823-.02352-.42827-.22778-.67334-.36867-1.0563-.14114-.38362-.19953-.81146-.33355-1.2025-.07832-.22854-.0908-.4666-.19354-.6832-.04639-.09781-.20942-.28395-.14128-.40121.08679-.14936.71794-.03575.87997-.03587.64569-.00048.88441.14988,1.26097.64201.09888.12923.20328.25107.30013.38043.12338.16478.07833.3073.16834.48105.10652.2056.40329.32957.55728.50538.19173.21889.5697.4297.85893.46006.41674.04374.69785-.31539.97224-.56277.30799-.27768.57985-.59833.7577-.97295.15338-.32308.45982-.49153.45534-.8848-.00649-.57033.03132-1.29852-.09625-1.86309-.16273-.72017-.59337-1.45917-1.13268-1.92562-.22662-.19601-.59825-.41727-.89548-.51455-.37608-.12309-.67411-.27125-1.08923-.27114-.16783-.02159-.29964.04429-.31581.23596-.01888.22378.17327.20843.35641.22515.33379.03048.40399.12139.69875.29121.25261.14554.52882.23409.77881.38997.27147.16928.8414.502.78278.89677-.04999.33665-.22579.17447-.34255.03031-.14402-.1778-.30111-.32849-.47149-.48471-.21511-.19723-.32736-.3647-.59686-.44712-.29077-.08892-.53675-.11087-.84134-.14466-.50753-.0563-1.03025-.14033-1.54978-.09944-.7085.05577-1.40873-.0303-2.08794.22115-.55619.20591-1.15689.33936-1.70139.57963-.37458.16529-.80126.31363-1.07629.57549-.257.24469-.34037.06764-.65241.02903-.19141-.02368-.3867.06814-.57407.10211-.20763.03765-.46478-.02163-.53997.17381-.05995.15583.04646.43194.04927.59535.00997.5806-.55136.16711-.72774.61537-.03095.07867.01382.20023-.01119.28139-.03289.10673-.1386.22532-.19492.32606-.10011.17906-.14464.28883-.1553.49709-.02689.52581.43626.55571.75164.84498.11361.10421.20777.27719.28419.40913.13353.23052.3062.28376.5044.46755.20878.1936.31895.41914.42134.68831.1101.28944.26949.54323.40014.82049.19766.41945.08366,1.16031-.0028,1.58602-.05627.27706-.03594.5735-.0354.86178.00059.3142.11986.42627.21417.68638.12972.35777.12014.93036.08338,1.30417-.04404.44786-.22909,1.0554-.10181,1.5025.06569.23076.30941.36353.37414.60499.06015.22438-.03134.48429-.06161.7028-.0844.60927-.26626,1.22158-.26624,1.84037.00004.79063-.00855,1.71115.35071,2.44177.12579.25581.2059.36797.22775.64906.02965.38145.18364.84836.43092,1.15767.13479.1686.20672.27061.32124.44841.11622.18044.3199.34977.52618.40413.36084.09508.76703.21649,1.13841.10345.42815-.13033.90092-.24568,1.3108-.41227.46821-.1903.87268-.63727,1.12749-1.06172.30869-.5142.27979-1.10596.27846-1.68792-.00197-.86192.01075-1.63416-.28622-2.44039-.34379-.93336-.15662-2.09896-.75452-2.91895Z"/>
   <path class="b"
         d="m6.59532,28.94016c.04124-.00141.08154.00078.11974.01095.23099.06149.32462.27344.46783.48023.27861.40231-.13711.45275-.27557.82953-.11055.30084.03955.19847-.30548.36475-.29661.14294-.2379.34402-.35572.60137-.23264.50812-.68708.78862-1.24046.68102-.42963-.08354-.73799-.08241-1.15773.06018-.32992.11208-.6912.24339-1.02786.08971-.75391-.34414-1.14234-1.09828-1.65981-1.70131-.29882-.34822-.69091-.77044-.91165-1.17872-.1472-.27227-.18387-.62854-.17132-.93238.03218-.77883.39395-1.66036.75078-2.35798.35206-.6883.6282-1.43165.87123-2.16457.05215-.15727.13287-.30662.18268-.46266.06079-.19046.04696-.37996.09323-.57291.08009-.33388.38353-.56142.58473-.82072.29635-.38191.17108-.64807.07688-1.06876-.05272-.23547-.1965-.85685.0668-1.01597.05539-.03347.12346-.03585.18816-.0373.43418-.0097.79454-.28539,1.21025-.28539.21494-.01842.40539.02406.59967-.09831.26617-.16766.1999-.49477.41507-.66634.27965-.22299.87253-.16314,1.21364-.35345.6598-.36812,1.41553-.8227,2.01853-1.2694.97888-.72513,1.87889-1.51195,2.91713-2.15008.36389-.22366.88208-.62296,1.25838-.83184.2511-.13939.51737-.05604.76218-.16649.19837-.0895.34674-.31707.48749-.47881.19597-.22519.25563-.42515.39641-.68809.17608-.32888.42461-.6652.68169-.93307.29913-.31169.33121-.73686.65629-1.02402.13212-.11671.18313-.20948.22682-.37514.07371-.27948.18692-.55385.25734-.83615.07107-.28492.07511-.58349.14081-.87028.1193-.52072.42617-.90209.70311-1.34402.37562-.50884.73071-1.04431,1.31702-1.34616.29529-.15202.55225-.32971.78225-.5724.24069-.25398.42004-.59502.6151-.88228.41035.01763.53633.19566.67419.54562.06712.17039.20864.31633.26013.49224.06777.23154.0851.50367.13781.74525.07905.36222.06712.73863.06634,1.10804-.00066.30952-.15632.32354-.35137.53686-.3006.32875-.37641.64228-.43295,1.09769-.02369.19082.00461.42407-.07159.60435-.05843.13823-.19158.19045-.25174.31995-.06683.14385-.11706.36784-.15908.51815-.05852.20933.01479.56367-.09396.74436-.0815.13543-.17036.08879-.31374.13467-.17916.05734-.25591.19935-.32626.36393-.18982.4441-.22597.90852-.38713,1.35158-.13024.35804-.49955.69463-.72519.98981-.63091.82534-1.4181,1.46756-1.94815,2.37097-.21346.36382-.32615.58691-.64377.87115-.60485.54128-1.24056.94942-1.91099,1.40686-.83179.56753-1.73868,1.07793-2.49671,1.75578-.47724.42677-.88749.81592-1.47093,1.07332-.6864.30283-1.16361.82714-1.73202,1.26238-.01387.01062-.03073.02162-.05021.03303-.21324-.03992-.41521.24433-.58027.35067-.18203.11727-.39183.15988-.57135.27172-.10225.0637-.26351.16279-.27279.30105-.01509.22478.10913.16709.2681.24987.12557.06539.28087.12371.30276.28394.03529.25828-.18406.21377-.30408.36455-.08953.11248-.05034.26783-.15162.37731-.13198.14267-.33076.11646-.50822.12317-.42086.01592-.88361-.21296-1.30006-.13737-.3859.07005-.34174.5325-.29407.84597.09762.64195.20822,1.28794.70921,1.75671.28702.26856.62206.56571.98539.77039.29719.16742.73874.25479.98867.48333Z"/>
   <path class="b"
         d="m24.58562,19.88105c-.06254.24949.25444.24863.37723.4033.11829.14901.21438.44309.238.62728.03586.27958-.03775.57447-.00333.85331.06397.51829.27102,1.15448.46446,1.63275.16093.3979.23066.76177.32694,1.17817.18161.7855.67428,1.51383.78567,2.32284.08459.61438.27843,1.29624.90924,1.51538.75645.26279.69767,1.30954.52493,1.95487-.1375.51367-.38393.75405-.8332.98521-.49952.25701-.92555.60185-1.35499.97006-.36362.31176-1.18438.37415-1.63136.22101-.30958-.10607-.63599-.49696-.89726-.71263-.11143-.09198-.18664-.22064-.29205-.31115-.12245-.10515-.27093-.16596-.38093-.30423-.6133-.77094-.61388-1.82015-.74547-2.74163-.06689-.46843-.03618-.96366-.39256-1.31221-.15247-.14912-.42692-.37309-.64759-.4063-.32456-.04885-.36868.28826-.39033.56151-.02652.33473.12242.61579.27336.90125.25657.48521.57026.88358.6334,1.47521.03913.3667.00305.88622-.11446,1.24204-.1279.38727-.49005.566-.85953.66874-.436.12123-.8445.21745-1.29936.2154-.50259-.00227-.97716.09052-1.4697-.06731-.45939-.1472-.7093-.52082-1.10416-.75297-.09802-.05763-.25259-.05978-.33304-.13506-.10247-.09588-.1414-.32486-.21027-.44471-.12508-.21766-.24994-.37201-.27855-.62138-.02896-.25249.04088-.49968.01869-.74707-.05358-.59732-.02446-1.1063.02814-1.70638.05893-.67235.29039-1.49244.65355-2.07285.2068-.33051.28596-.69476.50662-1.02313.4554-.67771.35133-1.53281.49964-2.29754.0652-.33621.14856-.58322.28871-.87546.16764-.34956.14747-.75674.14704-1.14152-.00045-.40503.04523-.79219.04557-1.1941.00016-.18631.2317-1.20835-.24731-.87797-.15125.10432-.23859.48201-.42699.62914-.21345.16669-.47288.22403-.68955.40186-.27326.22427-.64607.49437-.87304.76187-.19493.22974-.09871.25479-.06282.39654.01716.06775.12628.0539.12027.16749-.00585.1105-.19393.19598-.28171.24003-.15651.07854-.36374.06593-.46027.24359-.11017.20277.06546.28023-.1737.43076-.19654.12369-.59477.08047-.81761.10251-.62568.06189-1.46682.2398-1.8771-.37748-.36017-.54189-.26052-1.27629.07255-1.78625.6008-.91989,1.49955-1.83026,2.35709-2.5011.69481-.54354,1.28604-1.20785,2.0375-1.70869.45143-.30088.91992-.57425,1.40104-.8127.49986-.24774.88576-.53657,1.43522-.6703.49962-.1216.84259.07802,1.32825.06873.41723.60418-1.23137.38585-1.47207.37548-.27848-.012-.76638.14557-.29374.2862.2813.0837.7515-.01511,1.05957.03036.84158.1242,1.67579.34423,2.28635.98726.55054.57982.8796,1.39695,1.20513,2.10315.23936.51927.41607,1.07711.62916,1.59805.16284.3981.07009.67254.26073,1.05081Z"/>

</g>
</svg>
