<?xml version="1.0" encoding="UTF-8"?>
<svg xmlns="http://www.w3.org/2000/svg"
     version="1.1"
     width="32.68237341mm"
     height="30.95085651mm"
     viewBox="0.00000000 0.00000000 92.64290817 87.73472497">

<g transform="scale(3.26270380)">   <defs>
      <style type="text/css"><![CDATA[
      .b {
        stroke: #000;
        stroke-linecap: round;
        stroke-linejoin: round;
        stroke-width: .01px;
      }
    ]]></style>
   </defs>
   <path class="b"
         d="M10.31645.0683c-1.81641.45703-3.03125,1.01953-3.48047,1.57813-.13672.17578-.16797.28906-.12891.55078.02344.18359.08203.83203.12891,1.44141.12109,1.6875.23828,2.83984.40625,4,.16797,1.16797.16016,3.17578-.00781,3.91016-.16797.72266-.05469,1.77734.25781,2.38672.17578.35156.58203.62891.84766.58984.10156-.02344.46484-.00781.80078.03125.6875.08203.93359,0,1.36719-.42188.21484-.21484.24609-.29688.24609-.67188,0-.32031.05859-.54297.21875-.85547.20703-.39453.22266-.48828.26953-1.9375.06641-1.64844.15234-2.50391.34375-3.16797.20313-.71094.40234-2.96094.42578-4.81641q.03125-1.75-.16797-2.09375c-.29688-.50391-.85547-.69922-1.52734-.52344Z"/>
   <path class="b"
         d="M16.82817.99018c-.33594.17578-.95313.77734-.95313.92969,0,.03125-.23047.14844-.51172.26953-.80859.34375-.87109.44141-.99219,1.58594-.05469.53516-.11328,1.51172-.12891,2.17578-.01563.81641-.0625,1.32031-.15234,1.56641-.125.375-.32031,1.6875-.30859,2.11328.00781.26953-.09766.83984-.26563,1.4375-.12891.46484-.3125,2.24219-.25,2.35547.03516.03906.00781.23828-.04688.42969-.08594.33594-.07813.375.11328.63281.23047.30469.81641.625,1.13672.625.29297,0,.78125-.26563,1.02344-.55469.14453-.16797.23828-.42969.33594-.98047.21484-1.17969.4375-2.11328.73438-3.06641.15234-.48828.27344-.97656.27344-1.08594,0-.11328.07031-.41797.16016-.67188.08594-.25781.16016-.54688.16016-.64844,0-.09766.10938-.44141.23828-.76172.16016-.39063.27344-.83203.32031-1.3125.03906-.39844.12891-.91797.19141-1.16016.07422-.23828.12891-.56641.12891-.72656,0-.16797.0625-.375.16016-.49609.28125-.35938.35938-.91406.20703-1.50391-.07031-.28906-.12891-.65625-.12891-.81641,0-.20703-.04688-.32031-.17578-.40625-.26172-.19531-.83984-.15234-1.26953.07031Z"/>
   <path class="b"
         d="M22.37895,1.79096c-.6875.34375-.74219.47266-.74219,1.51953,0,.63281-.04297,1.00781-.12891,1.24609-.08984.22656-.14453.67969-.16016,1.25-.00781.49609-.03906.9375-.0625.97656-.03516.03906-.12109.4375-.21094.88672-.125.64063-.15234.96094-.10938,1.48828.03906.50391.02344.80078-.07422,1.13672-.23047.87891-.375,1.57422-.375,1.85547,0,.15234-.08984.64844-.19922,1.10547-.25781,1.0625-.25781,1.67969-.00781,2.23047.23828.50391.46094.66406,1.02344.71094q.42188.03906,1.23047-.54297c.76953-.55859,2.375-1.43359,3.15234-1.70313.19922-.07422.53516-.22656.76172-.35156.21484-.12109.50391-.25.62109-.28125.64844-.16016,1.16016-.77734,1.06641-1.28906-.06641-.34375-.22656-.47266-.87109-.71875-.47266-.17578-.66406-.19922-1.53906-.19922-1.27734,0-1.26172.01563-1.21484-1.07422.05469-1.16016.19141-2.46094.33594-3.24609.07422-.375.16016-1.09766.19922-1.60938.04297-.50391.11328-1.15234.16016-1.42969.10547-.59375.06641-.80078-.21484-1.17578-.26563-.34766-1.33594-.89844-1.84766-.95313-.30469-.03125-.45703,0-.79297.16797Z"/>
   <path class="b"
         d="M25.07426,21.19721c-.32813.05859-2.44531.22656-3.51953.27344-.64063.03125-1.80859.19141-2.0625.28906-.12109.04688-.46484.20703-.76953.35938s-.64844.26953-.76563.26953c-.12109,0-.79297.14453-1.48828.32813-2.07422.53125-2.90625.65625-3.63281.53906-.22266-.03516-.61719-.00781-1.05469.07031-.64063.12109-.76172.12109-1.68359-.01563-.53516-.07422-1.28516-.16797-1.66406-.19922-.375-.03125-.89453-.12109-1.16016-.19141-.25391-.07422-.58203-.12891-.71875-.12891-.12891,0-.36719-.03906-.51953-.08203-.15234-.04688-.61719-.13281-1.03125-.20703-.41797-.0625-.85547-.17578-.98438-.23828-.12891-.06641-.46484-.19531-.74609-.28125-.27734-.08984-.70313-.25-.93359-.35156-.84766-.40234-1.20703-.22656-1.81641.87891-.49609.90625-.57422,1.14453-.48828,1.49609.03906.14453.10547.41797.15234.59375.12109.44531.63281.87891,1.12891.93359.19922.02344.55859.08203.80078.12109.23828.04688.78125.12891,1.19922.17578.41406.05469.87109.14453,1.01562.19922.56641.24219,1.30469.375,2.14453.40234.55078.02344,1.01563.07813,1.23828.16016.99219.36719,3.04688.38281,7.83984.08594,1.67188-.10156,1.73828-.11328,2.48047-.39844.54297-.21875.83203-.28906,1.00781-.25781.13672.03125.51953-.00781.85547-.07813,1.01563-.21094,2.79297-.04297,3.49609.32813.54297.27734,1.50391.46094,1.83203.35156.32031-.11328.72266-.64844.89063-1.18359.19141-.64063.64453-1.24219,1.25391-1.64844.56641-.375.83984-.71094.97656-1.19922.07031-.28125.0625-.36328-.10547-.67969-.22266-.44141-.48828-.55469-1.29297-.55469-.3125-.00781-.67578-.03906-.80078-.07813-.38672-.12109-.69531-.14453-1.07422-.08203Z"/>

</g>
</svg>
