<?xml version="1.0" encoding="UTF-8"?>
<svg xmlns="http://www.w3.org/2000/svg"
     version="1.1"
     width="66.20205716mm"
     height="50.95409097mm"
     viewBox="0.00000000 0.00000000 187.65941772 144.43680962">

<g transform="scale(5.31256553)">   <defs>
      <style type="text/css"><![CDATA[
      .a {
        stroke: #000;
        stroke-linecap: round;
        stroke-linejoin: round;
        stroke-width: 0.01px;
      }
    ]]></style>
   </defs>
   <path class="a"
         d="M16.31647.12614a.62487.62487,0,0,0-.103.35736.58251.58251,0,0,1-.212.46638,1.1698,1.1698,0,0,0-.212.2665.58784.58784,0,0,1-.12113.18777,2.83734,2.83734,0,0,1-.36342.38158.43135.43135,0,0,0-.12114.26045.54291.54291,0,0,1-.1817.3089c-.22411.218-.23622.44821-.03635.57541.25439.16959.33919.29073.33919.49061a3.64324,3.64324,0,0,0,.3089,1.07813,1.15457,1.15457,0,0,1,.09086.41187,4.72788,4.72788,0,0,0,.109.69654A2.96247,2.96247,0,0,1,15.86825,7.031a9.161,9.161,0,0,0-.01211,2.126.24277.24277,0,0,1-.04845.23622.92065.92065,0,0,0-.09086.55118c.01212.4361-.07874.62992-.2665.55724a3.23974,3.23974,0,0,1-.61175-1.44155,2.49856,2.49856,0,0,0-.07874-.51484,2.82943,2.82943,0,0,1-.0848-.30284,3.4419,3.4419,0,0,0-.5754-.848,3.45175,3.45175,0,0,1-.212-.29073c-.09691-.13931-.20593-.24833-.24227-.23622A1.31394,1.31394,0,0,1,12.961,6.607a.334.334,0,0,0-.27256-.08479c-.12114.03634-.29679-.06057-.55724-.29679a1.02215,1.02215,0,0,0-.3937-.20594,2.58089,2.58089,0,0,1-.56329-.28467,2.08831,2.08831,0,0,0-1.33252-.321.71723.71723,0,0,1-.47244-.0848.7255.7255,0,0,0-.3089-.11508A1.70744,1.70744,0,0,1,8.594,5.0504a1.8294,1.8294,0,0,0-.69048-.18171c-.19382-.01212-.41187-.02423-.48456-.02423a1.15775,1.15775,0,0,0-.92065.5209.29159.29159,0,0,1-.16959.18776.80973.80973,0,0,0-.2968.22411.58312.58312,0,0,1-.424.20593.71554.71554,0,0,0-.47245.23016c-.12114.11508-.315.29679-.4361.40582a.89546.89546,0,0,0-.24833.33918.59583.59583,0,0,0,.212.59964,2.02079,2.02079,0,0,0,1.15687.24833c.13931-.07874.52089.06663,1.23561.46638a5.3264,5.3264,0,0,0,.67232.33313,1.6406,1.6406,0,0,1,.38764.18171,1.50469,1.50469,0,0,0,.51484.18171,1.22614,1.22614,0,0,1,.81162.41187.39775.39775,0,0,0,.23622.16959,1.26932,1.26932,0,0,1,.72683.26045.68186.68186,0,0,0,.424.16353c.39369.04846.52089.109.56934.26045a.37021.37021,0,0,0,.22411.18171,2.58313,2.58313,0,0,1,.89642.92065,5.11269,5.11269,0,0,0,.739,1.04784c.109.07874.1393.15748.14536.39976a.52408.52408,0,0,0,.13325.43.61635.61635,0,0,1,.17565.58752c-.03028.14537.00606.19382.27257.3937.36341.2665.72077.38159.89642.28468a.3086.3086,0,0,1,.42087.11549l.00313.00564c.0424.0848.01817.15748-.12114.33313-.15748.19382-.17565.26651-.14536.44821a.80023.80023,0,0,0,.20593.36948,1.6953,1.6953,0,0,1,.218.26044c.09691.1696.75106.19382,1.01151.0424.2241-.13325.36341-.36947.30891-.51484a.90853.90853,0,0,1,.29678-.55723,1.27762,1.27762,0,0,0,.29678-.71472c.09086-.533.09692-.56935.15143-.64809a8.04136,8.04136,0,0,0,.13932-1.47183,1.70519,1.70519,0,0,1,.07267-.46638.53348.53348,0,0,0-.0424-.46638c-.103-.23016-.103-.24833.01817-.58146a.76774.76774,0,0,0,.07268-.4785.72131.72131,0,0,1,.09086-.46032,1.88679,1.88679,0,0,0,.11508-1.04179A1.85565,1.85565,0,0,1,18.0548,7.77a.52654.52654,0,0,1,.15748-.206,5.1657,5.1657,0,0,0,.12719-2.21683c-.05451-.103-.05451-.218-.006-.48455a1.756,1.756,0,0,0-.04846-.90248,1.44144,1.44144,0,0,1-.06057-.64809.17743.17743,0,0,0,.01212-.16353A1.61669,1.61669,0,0,1,18.182,2.7427a2.33111,2.33111,0,0,0-.13931-.62992,2.37563,2.37563,0,0,1-.15142-.751C17.861.8954,17.80647.78637,17.58236.71369c-.03634-.01212-.05451-.109-.04846-.212.01208-.14539-.01817-.206-.12113-.26047A.56363.56363,0,0,1,17.225.0898C17.19472.02923,17.04935.005,16.801.005,16.49817.005,16.40126.02923,16.31647.12614Z"/>
   <path class="a"
         d="M27.97,7.5398a.50179.50179,0,0,1-.27862.05451.84737.84737,0,0,0-.66626.34524.29488.29488,0,0,1-.19988.16354.97235.97235,0,0,0-.71471.6602,2.42487,2.42487,0,0,0,.14537,1.34464.68009.68009,0,0,1,.103.321.796.796,0,0,0,.109.37553,6.8385,6.8385,0,0,1,.49666,1.49606,1.92486,1.92486,0,0,0,.09086.36341,1.83148,1.83148,0,0,1-.103.96911,2.818,2.818,0,0,1-1.1811.7026,2.11405,2.11405,0,0,0-.49666.20593,1.66393,1.66393,0,0,1-.58752.26651.83177.83177,0,0,0-.29679.15748.48366.48366,0,0,1-.22411.12114c-.0424,0-.07874.02422-.07874.05451,0,.07874-.29678.17565-.69654.218-.19988.02422-.41793.04845-.48456.05451a.93337.93337,0,0,0-.28467.12114c-.09085.06057-.19382.09085-.22411.07268-.03028-.02423-.15748.03028-.28467.11508a.80961.80961,0,0,1-.50273.15142.99684.99684,0,0,0-.61174.212,1.039,1.039,0,0,1-.45426.19987.7694.7694,0,0,0-.27257.0424.61421.61421,0,0,1-.26651.03634.39046.39046,0,0,0-.24226.109,1.16379,1.16379,0,0,1-.76317.24833,1.00846,1.00846,0,0,0-.45427.15142,1.07178,1.07178,0,0,1-.39976.15143.89364.89364,0,0,0-.3937.16353.81046.81046,0,0,1-.55118.15143c-.24227,0-.33918.02422-.39369.103a.55342.55342,0,0,1-.4785.23017,2.27452,2.27452,0,0,0-.98122.23016.65779.65779,0,0,1-.3089.09085,3.61526,3.61526,0,0,0-1.13264.45427,1.40021,1.40021,0,0,1-.3937.14537,1.67629,1.67629,0,0,0-.66021.16353,7.53109,7.53109,0,0,1-1.69593.212,2.58235,2.58235,0,0,0-.60569.12719,3.41607,3.41607,0,0,1-.68443.15142.711.711,0,0,0-.44216.14537.25777.25777,0,0,1-.212.09085,2.309,2.309,0,0,0-.82374.18171,4.86493,4.86493,0,0,1-1.066.20594,1.6459,1.6459,0,0,0-.6602.218.90191.90191,0,0,1-.3937.14537,1.86767,1.86767,0,0,0-1.0539.60569.65931.65931,0,0,1-.2665.15143.296.296,0,0,0-.17566.0848.92929.92929,0,0,1-.24833.14537,1.52076,1.52076,0,0,0-.36947.23016,2.24282,2.24282,0,0,1-.27256.21805c-.06057.0424-.212.14536-.32707.23016a3.62136,3.62136,0,0,1-.51484.29679,1.313,1.313,0,0,0-.44216.33918,1.05975,1.05975,0,0,1-.35735.27861,1.13362,1.13362,0,0,0-.56935.58148c-.03634.09691-.09086.16959-.11508.16959-.09691,0-.29074.41186-.32708.69049-.04845.33313-.09085.46032-.16353.46032a1.24525,1.24525,0,0,0-.53907.56329,1.85457,1.85457,0,0,1-.28467.55118c-.26045.38764-.27256.43-.19382.55117.04845.07269.1393.218.20593.32708a.50512.50512,0,0,0,.27256.218c.0848.01816.27256.06056.424.09691a6.91113,6.91113,0,0,0,.71472.15142,1.25252,1.25252,0,0,0,.51484-.05451,3.9745,3.9745,0,0,1,.43609-.103,9.48467,9.48467,0,0,1,1.30224.00606.60056.60056,0,0,0,.36342-.06663,2.81734,2.81734,0,0,1,.38158-.14537.38836.38836,0,0,0,.23622-.18776c.07874-.17565.20593-.23016.33919-.15748a.22246.22246,0,0,0,.23622-.03635.33034.33034,0,0,1,.23622-.05451.44246.44246,0,0,0,.2665-.05451.83379.83379,0,0,1,.27256-.09086.69922.69922,0,0,0,.27256-.12719.38741.38741,0,0,1,.26651-.09691c.09085.03634.19382-.01818.84191-.46032a1.61293,1.61293,0,0,1,.79951-.18776,1.05329,1.05329,0,0,0,.67837-.36342c.23622-.27256.44216-.03635.35736.41187-.03634.18171-.01817.22411.1272.3089a1.10523,1.10523,0,0,1,.29073.29074,1.09808,1.09808,0,0,0,.39975.32707c.315.14536.39369.27256.26045.41187-.0848.07874-.07268.08479.109.04845a.41011.41011,0,0,0,.24228-.109,1.00311,1.00311,0,0,1,.27862-.17565c.212-.09691.25439-.09691.41187-.01817s.2241.07874.56935,0c.218-.04846.49061-.103.60569-.12114a.75264.75264,0,0,0,.30284-.11508,2.31419,2.31419,0,0,1,.78135-.54512,2.61174,2.61174,0,0,0,.51483-.27256,1.07452,1.07452,0,0,1,.30285-.17565.29859.29859,0,0,0,.15142-.0848,4.41638,4.41638,0,0,1,.56935-.33313c.51484-.27256.60568-.26651.79346.01817a1.15836,1.15836,0,0,0,.79344.315,2.62607,2.62607,0,0,1,.51484.12114,2.92518,2.92518,0,0,0,.9691.09691c.35132-.00606.75107-.00606.89037-.00606a1.00359,1.00359,0,0,0,.38159-.06663A1.78942,1.78942,0,0,1,20.199,25.226a1.9845,1.9845,0,0,0,1.02362-.424c.27862-.26045.41793-.33313.5633-.30285a1.58143,1.58143,0,0,0,.59357-.17565,2.30475,2.30475,0,0,1,.4361-.1817,1.73212,1.73212,0,0,0,.20594-.18777.704.704,0,0,1,.30284-.20593c.05451,0,.09691-.02423.09691-.04846,0-.13325.27862-.18171.5209-.09085.54512.19988.56934.19988.81768.07874a1.0073,1.0073,0,0,1,.36947-.11508,1.85267,1.85267,0,0,0,.44215-.06663,4.39424,4.39424,0,0,1,.64809-.09085,1.58531,1.58531,0,0,0,.41188-.06057,1.39257,1.39257,0,0,1,.35129-.07268,1.50567,1.50567,0,0,0,.38765-.0848c.06057-.03029.109-.04846.109-.03029,0,.0848.56935-.15748.67232-.29073a.73049.73049,0,0,1,.25439-.19382.68686.68686,0,0,0,.23622-.12719,3.60776,3.60776,0,0,1,1.1387-.321,2.5976,2.5976,0,0,0,.56935-.20593,1.26908,1.26908,0,0,1,.46638-.15748.23382.23382,0,0,0,.19988-.09086.48921.48921,0,0,1,.23622-.18171,1.5859,1.5859,0,0,0,.39975-.2665,1.27322,1.27322,0,0,1,.30285-.218.38864.38864,0,0,0,.18776-.212.36024.36024,0,0,1,.23622-.22411,2.3525,2.3525,0,0,0,.67838-.3937.87093.87093,0,0,0,.19382-.30284,2.33692,2.33692,0,0,1,.41792-.54512c.48456-.48456.58752-.81163.35736-1.16293-.09085-.13931-.103-.20593-.05451-.315.07874-.16959.20593-.2241.3513-.14536a.34244.34244,0,0,0,.19382.03634c.0424-.01212.15142-.0424.24228-.06057.16959-.03634.24227-.19382.43609-.963a.70713.70713,0,0,0,.02423-.49667.25876.25876,0,0,1,.03029-.29679.351.351,0,0,0,.06662-.24227,3.05029,3.05029,0,0,1-.05451-.47244,5.6223,5.6223,0,0,0-.15142-1.14476,1.21185,1.21185,0,0,1-.02423-.39975,1.21923,1.21923,0,0,0-.1272-.50273.96225.96225,0,0,1-.12113-.53906,8.42889,8.42889,0,0,0,.13325-2.39854c-.02423-.3089-.06057-.44215-.13931-.51484a1.08839,1.08839,0,0,1-.22411-.26044.32958.32958,0,0,0-.20593-.16354,1.18639,1.18639,0,0,1-.29073-.06663.84184.84184,0,0,0-.89643.25439.64816.64816,0,0,1-.41792.23622c-.09086,0-.1696.02423-.1696.06057a.76306.76306,0,0,1-.16353.24228c-.09691.09691-.24228.2665-.33313.36341a.66629.66629,0,0,0-.1696.24834c0,.03634-.12113.11508-.27256.18171a.69412.69412,0,0,0-.27256.16959c0,.07268-.16353.12719-.27256.09085a.49246.49246,0,0,1-.15748-.25439,1.02652,1.02652,0,0,0-.14536-.315,1.36722,1.36722,0,0,1-.27256-.60569c0-.06662-.03029-.12114-.06663-.12114-.03029,0-.09691-.09085-.14537-.19987a1.86083,1.86083,0,0,0-.55723-.64809c-.02423,0-.09691-.07874-.15143-.18171a.76285.76285,0,0,0-.30284-.26651,3.33876,3.33876,0,0,1-.98728-.93276C28.23041,7.43683,28.182,7.41866,27.97,7.5398Zm3.2465,5.14837c.29074.33313.33313.50878.34525,1.30224a3.12351,3.12351,0,0,0,.109.98121,1.67081,1.67081,0,0,1,.06057.7874,4.11419,4.11419,0,0,0,.01212,1.08419,4.29528,4.29528,0,0,1,.02422,1.169c-.06057.103.1272.37553.3513.49667.26045.13931.29679.24833.12114.41187a.80371.80371,0,0,0-.18171.29679.582.582,0,0,1-.2665.315c-.212.13325-.49667.4361-.49667.52695,0,.02423-.05451.06663-.12113.0848a.89557.89557,0,0,0-.26045.17565.78459.78459,0,0,1-.43.17565,1.14429,1.14429,0,0,0-.44216.16353.55606.55606,0,0,1-.24227.12114.52883.52883,0,0,0-.218.0848,7.60524,7.60524,0,0,1-3.38581.16353,3.6621,3.6621,0,0,0-.36342-.09691.62241.62241,0,0,1-.25439-.12113.35268.35268,0,0,0-.212-.09086,1.88427,1.88427,0,0,1-.5209-.218,2.14908,2.14908,0,0,0-.65414-.24227c-.23016-.02423-.27256-.00606-.34525.12719a.4762.4762,0,0,1-.19382.18777.448.448,0,0,0-.19382.23016,4.94287,4.94287,0,0,1-.75711.97516.74535.74535,0,0,0-.15143.25439c-.05451.16354-.21805.22411-.4785.16354-.103-.02423-.26045-.04846-.34524-.06057a4.50706,4.50706,0,0,1-1.09025-.3937,8.78194,8.78194,0,0,0-.83584-.44821,4.15513,4.15513,0,0,1-.83585-.48455.2141.2141,0,0,0-.18171-.09086.44656.44656,0,0,1-.26651-.12114.86978.86978,0,0,0-.66626-.321.53931.53931,0,0,1-.29678-.03634c-.109-.06057-.15143-.04846-.27257.08479a.64605.64605,0,0,1-.23016.17565c-.218.03635-.3513.11509-.3513.20594a6.06261,6.06261,0,0,1-.51484,1.32646,3.05,3.05,0,0,1-.90248.92671.3993.3993,0,0,0-.19382.109c-.06057.05452-.218.1696-.33918.25439a.73944.73944,0,0,0-.23017.19988,1.52927,1.52927,0,0,1-.58146.527.8161.8161,0,0,0-.29679.12114l-.19382.12114L13.26984,24.16a1.637,1.637,0,0,1-.218-.19382,5.42911,5.42911,0,0,1-.19988-1.03574,2.01746,2.01746,0,0,0-.08479-.424c-.36948-1.02967-.3937-1.35675-.15748-1.76862a.68643.68643,0,0,1,.29073-.29073,8.51936,8.51936,0,0,1,.86008-.05451c1.03573-.03634,1.0539-.0424,1.63537-.41187a1.63122,1.63122,0,0,1,.47849-.23016,2.81713,2.81713,0,0,0,1.30829-.36947c0-.109.29074-.212.7874-.29074a1.51894,1.51894,0,0,0,.75712-.34524,2.91671,2.91671,0,0,1,1.09024-.38764.5466.5466,0,0,0,.33313-.17565,1.50327,1.50327,0,0,1,.4785-.27256,2.35933,2.35933,0,0,0,.52695-.24834.96259.96259,0,0,1,.38158-.15748,2.668,2.668,0,0,0,.30891-.03028c.0848-.01212.19383-.03029.24227-.03634a.53286.53286,0,0,0,.212-.0848.48784.48784,0,0,1,.24229-.0848.45879.45879,0,0,0,.23621-.09085.51868.51868,0,0,1,.2544-.09085c.07873,0,.15748-.02423.17565-.06057a1.22974,1.22974,0,0,1,.38158-.15748,2.13157,2.13157,0,0,0,.48456-.20594.31424.31424,0,0,1,.24226-.07874,1.24776,1.24776,0,0,0,.46034-.12719,2.54755,2.54755,0,0,1,.41793-.15748A18.86833,18.86833,0,0,0,27.31581,15.226a.60825.60825,0,0,1,.26045-.13931.73518.73518,0,0,0,.27862-.18171.7278.7278,0,0,1,.24228-.18171c.02422,0,.08479-.06662.12113-.15142a.39211.39211,0,0,1,.22411-.19382,2.22852,2.22852,0,0,0,.72077-.35736.259.259,0,0,1,.15142-.0848c.0424,0,.15748-.09691.25439-.218.29074-.3513.46639-.50878.61175-.54512a.24621.24621,0,0,0,.1696-.1817.3921.3921,0,0,1,.18776-.218c.0848-.03634.15142-.09086.15142-.11508a.30109.30109,0,0,1,.09691-.13931c.109-.11512.23017-.06661.43.16956ZM9.65386,21.398c.20594.05451.26045.15748.27257.50272a2.4204,2.4204,0,0,1-.13326.848,1.18858,1.18858,0,0,0-.06662.43c.01211.321-.12114.48455-.30891.38158a2.187,2.187,0,0,0-1.26589.14537c-.23016.103-.36947.13325-.4361.09691a1.79393,1.79393,0,0,0-.83585.15748,1.48163,1.48163,0,0,1-.78134.01817,2.09494,2.09494,0,0,1-.79951-.36947c-.06663-.11508.15142-.41793.36947-.50878a1.1053,1.1053,0,0,0,.29073-.17565.28536.28536,0,0,1,.16354-.0848,1.26208,1.26208,0,0,0,.34524-.13931.82447.82447,0,0,0,.4361-.49061c.01211-.03028.11508-.06662.23016-.07874a1.01407,1.01407,0,0,0,.50878-.12114,3.65138,3.65138,0,0,1,.70866-.2241,1.23644,1.23644,0,0,0,.38158-.22411.79158.79158,0,0,1,.636-.25439C9.41764,21.32532,9.5509,21.36166,9.65386,21.398Z"/>
   <path class="a"
         d="M22.42789,18.45435c-.06663.04845-.09691.08479-.06057.08479.07874,0,.23622-.109.20593-.14536C22.55508,18.38167,22.48846,18.40589,22.42789,18.45435Z"/>
   <path class="a"
         d="M21.804,18.70268a.45744.45744,0,0,0,.1817,0c.03634-.01817-.006-.03028-.109-.03028C21.7798,18.6724,21.74346,18.68451,21.804,18.70268Z"/>
   <path class="a"
         d="M7.73382,22.567c0,.05451.03029.09085.06663.07874a.07984.07984,0,0,0,0-.15748C7.76411,22.47614,7.73382,22.51248,7.73382,22.567Z"/>

</g>
</svg>
