<?xml version="1.0" encoding="UTF-8"?>
<svg xmlns="http://www.w3.org/2000/svg"
     version="1.1"
     width="13.50814450mm"
     height="32.97013432mm"
     viewBox="0.00000000 0.00000000 38.29072815 93.45872619">

<g transform="scale(6.53780177)">   <defs>
      <style type="text/css"><![CDATA[
      .b {
        stroke: #000;
        stroke-miterlimit: 10;
        stroke-width: .15px;
      }
    ]]></style>
   </defs>
   <path class="b"
         d="m.27011,3.87155c.03327.84763.06718,2.25487,0,4-.11026,2.86455-.47412,6.15283.21277,6.34042.24586.06714.47791-.3035,1.10638-.25531.37949.0291.47895.17834.76595.21277.54961.06593,1.01439-.38191,1.61703-.97873.57624-.57068,1.18159-1.17018,1.53191-2.17021.18427-.526.22671-.95938.25532-1.82979.06161-1.87451-.02148-3.32486-.04255-3.70213-.20644-3.69659-.08472-5.12439-.7588-5.36514-.21445-.0766-.61421-.07047-.95239.07764-.33314.14589-.35903.32118-.67179.5641-.67267.52245-1.1652.18718-1.61702.63831-.28834.2879-.17905.51559-.42554,1.10638-.24163.57915-.6228,1.02222-1.02128,1.36169Z"/>

</g>
</svg>
