<?xml version="1.0" encoding="UTF-8"?>
<svg xmlns="http://www.w3.org/2000/svg"
     version="1.1"
     width="63.64019748mm"
     height="41.55661735mm"
     viewBox="0.00000000 0.00000000 180.39744146 117.79827496">

<g transform="scale(3.67920472)">   <defs>
      <style type="text/css"><![CDATA[
      .c {
        stroke: #000;
        stroke-linecap: round;
        stroke-linejoin: round;
        stroke-width: .01px;
      }
    ]]></style>
   </defs>
   <path class="c"
         d="m23.48541.04441c-.35156.03906-1.24609.05469-2,.03125-1.34375-.03125-2.26563.02344-3.03906.19922-.21484.04688-.65625.12109-.96875.16016-.76172.10547-2.29688.48047-3.15234.78516-.66406.23047-1.50391.47266-2.03906.57422-.26563.05859-.64063.15234-.83984.20703-.19922.06641-.70313.15234-1.12109.20313-.41406.04688-.87891.13281-1.02344.19922-.14453.0625-.33594.10938-.42578.10938-.08594,0-.32813.08984-.54297.20313-.21484.10156-.40625.17578-.42969.14453-.02734-.02734-.16797.03125-.3125.11719-.15234.09766-.34375.16016-.43359.16016-.16797-.01563-1.58984.67969-1.77734.87109-.05469.05859-.125.10547-.16016.10547-.03125,0-.17578.11328-.32422.24219-.15234.13281-.51563.35156-.80078.48438-1.16016.54688-1.47266.76953-2.30469,1.67188-.19141.21094-.61719.5625-.67969.5625-.03906,0-.21484.3125-.40234.69531-.18359.39063-.39844.78516-.48828.87891-.16797.19141-.26953.83203-.18359,1.17578.08203.32031.50391.6875.80078.6875.28125,0,1.41016-.50391,1.41016-.62891,0-.04297.07031-.09766.15234-.12891.08594-.02344.27734-.16016.42188-.29688.39844-.375,1.17578-.70313,1.67969-.70313.27344,0,.53516-.05469.73047-.16016.15625-.08984.34375-.16016.40625-.16016.21484,0,1-.52734,1.24609-.83984.25781-.32031,1.25-.92188,1.52344-.92188.08594,0,.42188-.14063.75781-.31641.33594-.17969.69531-.32031.80859-.32031s.29688-.05078.41406-.11328c.12109-.0625.35547-.13672.52344-.16797.16016-.03125.36719-.12891.46094-.20703.09766-.08203.28906-.15234.42578-.15234.38281,0,2.86328-.72266,3.375-.98438.12891-.06641.59375-.15234,1.03125-.19922.65625-.07422,1.67969-.24219,2.08203-.33594.22266-.05859.59766.01563.71094.125.10547.10547.11328.15234.02344.3125-.10938.23438-.90234.92188-1.04688.92188-.09766,0-.92188.58203-1,.71094-.03125.03125-.16016.12891-.30469.19922-.13672.07422-.3125.21094-.375.29688-.0625.09766-.25.25-.39063.34375-.15234.09766-.5625.36719-.90625.60938-.58984.41406-1,.6875-1.78516,1.16797-.31641.19141-.36719.19922-.65625.10938-.26953-.08594-.31641-.08594-.51172.06641-.19141.15234-.28516.16016-1.23828.12891-.71875-.02734-1.09766-.00781-1.21484.05469-.10547.05469-.25781.11328-.34375.12891-.63281.10156-1.00781.18359-1.08203.22266-.04688.03125-.25391.07031-.46484.08984-.20703.02344-.53516.08594-.73438.14844-.19922.06641-.52734.12109-.74609.13672-.30859.00781-.39844-.01563-.50391-.16016-.20703-.30078-.51953-.23047-.87891.20313-.17578.21484-.375.47656-.45703.59766-.07031.12109-.25391.28125-.39844.35156-.13672.07422-.29688.19922-.35156.27344-.05469.07813-.21484.18359-.35938.24609-.14453.05859-.28125.12891-.30469.16016-.04688.06641-.625.54688-.88672.73828-.10547.07031-.35156.22266-.55469.32813-.26172.14453-.36719.24609-.40625.41406-.04688.26563.03125.54297.20703.72266.0625.07031.12109.16797.12109.22266,0,.04688.14453.22266.32031.39063.17578.16016.32031.34375.32031.41016,0,.15234.24609.28516.53516.28516.20703,0,.50391.12891,1.07813.44141.17578.10547.41016.14453,1.00781.19141.06641.00781.32813.23438.60156.49609.27344.27344.63281.58594.79297.69531.16797.10547.30469.22656.30469.25781s.14844.10547.34375.16016c.6875.21484,1.71875.73438,1.78906.90234.06641.13672.25781.22656.79297.36719.39453.10547.96875.32031,1.27344.48828.60547.3125,1.26172.53906,1.75781.59375.27344.03125.44922.15234.53906.36719.02344.06641,1.04688.5625,1.14844.5625.16016,0,1.44922.69531,1.67578.89453.13281.12109.26953.22266.30859.22266.07422,0,1.38672.61719,2.08984.97656.27344.13672,1.38281.83984,2.13672,1.35938.11719.08203.25391.14453.29297.14453.04297,0,.12891.04688.1875.10547.05469.05469.32031.22266.58203.36719.26563.15234.67969.39844.92188.56641.23828.16016.64844.39453.90234.51172.25.12109.45703.25.45703.28906,0,.11328.81641.45703,1.22266.51172.25781.03906.48047.14453.70313.33594.17578.15234.42578.29688.54688.32813.10938.02344.48828.19922.82422.39453.34375.18359.70313.36719.79688.39844.10547.02344.45703.19922.78516.375,1.18359.64063,1.13672.625,1.49609.57031.35938-.05859.42578-.00781.91406.57422.10938.13672.40625.38281.67188.54297.25391.16797.51172.35156.57422.41016.05469.0625.3125.16797.5664.23047.48047.13672,1,.375,1.65625.76953.80078.47266,1.04297.55859,1.70703.58984.35156.01563.71094.07422.80469.12891.09766.04688.20313.07422.23438.04688.03906-.02344.26172-.05469.50391-.08594.23047-.02344.58984-.07422.79297-.10547.19922-.03125.45313-.02344.56641.01563.16797.06641.28906.02734.65625-.18359.25391-.14453.45703-.28516.45703-.32031,0-.11719.39844-.23828.62891-.19922.52344.10547,1.30469-.41406,1.57031-1.03125.12109-.29688.16016-1.22266.05469-1.38281-.03125-.05078-.13672-.12891-.23828-.18359-.09766-.05859-.375-.25-.625-.43359-.34375-.25781-.49609-.44141-.66406-.81641-.16797-.36719-.39063-.63281-.91016-1.13672-.41797-.38281-.70703-.71875-.70703-.81641-.02344-.40625-.125-.58984-.49609-.85547-.375-.27734-1.48828-.75-1.77344-.75-.3125,0-1.23438-.32031-1.33594-.46484-.05859-.07422-.30469-.20703-.54688-.28906-.41406-.14453-.94922-.41406-1.03906-.52734-.02344-.03125-.19141-.15234-.375-.26563-.18359-.10938-.35156-.24609-.38281-.29297-.02734-.04297-.10547-.08203-.17578-.08203-.12891,0-.45703-.19141-1.45703-.85547-.76172-.50391-1.46484-.80078-2.16797-.90234-.28906-.05078-.64844-.12891-.80078-.19531-1.10547-.42969-1.41406-.58203-1.70313-.83203-.18359-.14844-.53516-.36719-.77734-.46875-.23828-.11328-.55078-.28125-.67969-.38672-.13672-.10156-.64063-.375-1.11328-.59766-.47656-.23438-1-.55469-1.16797-.71484-.46875-.44531-.78125-.66406-1.13281-.78125-.20313-.06641-.50391-.28906-.76172-.54687-.35938-.36719-.47266-.4375-.71094-.4375-.16797,0-.48828-.10547-.74609-.23438-.24609-.125-.80859-.40625-1.24609-.62109-.44141-.21094-1.02344-.53906-1.30469-.73047-.28125-.18359-.55078-.33594-.60156-.33594-.16797,0-.92578-.41406-.96484-.52734-.06641-.16797.02344-.32031.23828-.42188.30469-.13672.67969-.10547,1.07031.10938.82422.44141.90625.45703,1.76172.48047.71875.02344.87891,0,1.16016-.14453.21484-.10938.51953-.17578.96094-.19922.35156-.01563.83203-.09375,1.0625-.18359.24219-.08984.46484-.12891.50391-.10547.04688.02734.35938.08203.69531.11328s.70703.08984.81641.12109c.15234.03906,1.64063.10156,2.92188.11719.32031.01172,1.90234-.17578,2.17578-.24609.18359-.04688.36719-.0625.41406-.03125.08984.04688,1.10547.04688,2.28906,0,.3125-.01563,1.0625-.04688,1.67969-.06641.61719-.02344,1.26563-.07813,1.44141-.125.17578-.04297.44531-.11328.59766-.14453.26563-.07422.79297-.06641,2.48047,0,.375.01563.76953.07813.87891.13672.1875.10156,1.30469.14063,2.16016.08594.15234-.00781.44141.02344.64063.07422.19922.04688.54688.11719.76953.16016.64844.10156.72656.14063.93359.50391.19531.32813.24219.64453.24219,1.62109,0,.32813-.29688,1.05859-.59375,1.48047-.07813.11328-.16797.32812-.19141.48047-.02344.14453-.11719.43359-.20703.625-.16797.38281-.14453.77344.05469,1.10156.14453.23438.59375.25.99219.04297.15234-.08984.38672-.17578.51953-.21094.58594-.14063,1.53125-.86328,1.92188-1.45313.40625-.625.94531-1.60937,1.01563-1.88281.03906-.11719.12109-.25391.18359-.30859.0625-.05859.12109-.16797.12109-.24219,0-.07813.12891-.28125.28125-.43359.14844-.15625.27734-.35156.27734-.42969,0-.07422.14453-.38281.32031-.6875.25-.42578.32031-.625.32031-.92188,0-.21484.0625-.50391.16016-.67969.20703-.41406.28125-.93359.16797-1.26172-.11328-.32031-.74219-1.01953-.94531-1.03516-.33594-.02344-.48828-.05469-.56641-.10156-.03906-.02344-.32031-.06641-.60938-.08984-.48828-.03125-1.53516-.27734-1.73438-.40625-.21484-.12891-2.19922-.30469-3.39063-.28906-2.37891.02344-2.88281.00781-3.40234-.07031-.38281-.06641-.59766-.05859-.80859.01563-.3125.09375-.98438.03906-2.23047-.19922-.44922-.08203-.71875-.09766-1.08203-.03516-.26172.04297-.56641.08203-.67969.08203-.10938,0-.27734.09375-.38281.19922-.16797.18359-.19922.19141-.35938.08203-.35156-.23438-2.11328-.38672-2.85547-.25781-.19922.03125-.57813.07031-.83984.07813-.26563.00781-.66406.07422-.89844.13672-.30469.08984-.44531.09766-.57422.03125-.10547-.05469-.63281-.07813-1.46484-.0625-1.82422.03125-2.23047.05469-2.50391.16016-.12891.04688-.44922.12891-.69531.18359-.43359.08984-.49609.08203-1-.11328-.64844-.24609-1.35938-.29297-1.82422-.11719-.21484.08594-.375.10156-.49609.05469-.12891-.04688-.29688-.03125-.51172.03906-.27344.09766-.33594.09766-.43359,0-.0625-.0625-.09375-.16797-.07031-.22266.05469-.13672.44922-.42578.81641-.60156.16016-.07031.45313-.23047.65625-.35938.92578-.58984,1.34375-.86328,1.64063-1.07813.17578-.12891.55078-.32813.83984-.44922.28516-.12109.64453-.32813.79688-.47266s.41016-.34375.5625-.4375c.15234-.09766.42188-.35547.59766-.5625.18359-.22266.48828-.47266.70703-.57422.20703-.09766.375-.20703.375-.24219,0-.03125.07813-.08594.18359-.11719.19141-.05859.20703-.07422.91016-.73047.61719-.57422.6875-.75.48828-1.20703-.22266-.49609-.45313-.61719-1.22266-.61719-.42578-.00781-.71875-.04688-.87891-.13672-.32813-.16797-.84766-.21484-1.60156-.13281Z"/>

</g>
</svg>
