<?xml version="1.0" encoding="UTF-8"?>
<svg xmlns="http://www.w3.org/2000/svg"
     version="1.1"
     width="43.40740813mm"
     height="27.86807768mm"
     viewBox="0.00000000 0.00000000 123.04468920 78.99610369">

<g transform="scale(5.27674582)">   <defs>
      <style type="text/css"><![CDATA[
      .b {
        stroke: #000;
        stroke-linecap: round;
        stroke-linejoin: round;
        stroke-width: .25px;
      }
    ]]></style>
   </defs>
   <path class="b"
         d="M4.18329,6.25715c-.19179.3915-.05744,1.01607.03014,1.44314.05784.282.74964.70202.92799.92799.52195.66131.52593.97687,1.31198,1.27998.73351.28286,1.20656.59016,1.95309.83659.62202.20533,1.20935.51533,1.72983.91304.269.20555.55835.44751.89612.42468.20557-.0139.39256-.11908.57483-.21521,1.83681-.96869,2.64807-.84536,3.50585-.70951,1.63649.25919,3.36696-.50823,4.52763-1.69064.33942-.34577.2889-.72243.41248-1.19092.16802-.63697-.17407-1.11257-.47999-1.69598-1.04532-1.9935-2.60932-3.09999-4.83194-3.45596s-4.63501-.30539-6.86039.03293c-.05061-.34831.11425-.71898.40682-.91466-.18027-.22476-.36053-.44953-.5408-.67429.2261-.30964.58477-.51895.96557-.5635.31498-.03685.63111.03405.94638.06831,1.26546.13754,2.5092-.3138,3.73935-.64097s2.6048-.51837,3.72414.08777c.39506.21393.752.52433,1.19255.61239.46046.09204.93408-.0756,1.40295-.05008.69216.03768,1.86261.4149,2.25533.98611s.72472,1.03326.92799,1.69598c.2642.86136.3748,2.15171.224,3.03996-.14153.83365-.73791,2.16512-1.37598,2.71997-2.20797,1.91998-4.49358,4.39919-7.7439,4.92794-1.09153.17756-2.22253.41723-3.32796.38588-1.12125-.0318-2.30271.02992-3.42396-.00188-.62617-.01776-1.24798-.29467-1.82398-.76799-.44903-.36899-1.24459-.50932-1.72798-.83199-.77687-.51857-1.78839-.92522-2.45154-1.583-.2474-.24539-.49718-.52128-.55514-.86489-.04827-.28615.044-.58704-.0333-.86675-.05948-.21524-.21214-.39094-.31066-.59134-.36216-.73667-.2796-1.65561.18268-2.33395C2.13153,4.6514,5.23742,2.03636,7.70139,1.20437c.24674.38044-.70494,1.10493-1.12056,1.28624-.38207,0-.92043.475-.95873.82076,1.18707-.03016.2117.93755-.11703,1.25281-.61916.5938-.94399.92179-1.32178,1.69297Z"/>
   <path class="b"
         d="M10.03368,5.88721c-.74001.43264-1.51221,1.09216-1.47041,1.94834,1.23875.53852,2.32572,1.4213,3.10689,2.52324.09751.13755.19984.2862.35693.34743.27628.10769.56701-.09934.79142-.29317.58793-.50783,1.17585-1.01565,1.76378-1.52348.18038-.15581.37026-.32652.42844-.55767.03883-.15428.01361-.31888.04974-.47382.15102-.6477,1.156-.67045,1.48442-1.24878.18488-.32556.09372-.752-.12628-1.05494s-.54639-.50824-.86729-.70108c-.41703-.25061-.85162-.49766-1.33248-.57174-.6379-.09828-1.20097.29202-1.74257.51309-.83592.34121-1.6575.63359-2.44259,1.09258Z"/>

</g>
</svg>
