<?xml version="1.0" encoding="UTF-8"?>
<svg xmlns="http://www.w3.org/2000/svg"
     version="1.1"
     width="27.10829879mm"
     height="53.64166309mm"
     viewBox="0.00000000 0.00000000 76.84241396 152.05510051">

<g transform="scale(4.30598027)">   <defs>
      <style type="text/css"><![CDATA[
      .b {
        stroke: #000;
        stroke-linecap: round;
        stroke-linejoin: round;
        stroke-width: .15px;
      }
    ]]></style>
   </defs>
   <path class="b"
         d="m11.65007,7.55322c.23574-.0976.44642-.24977.68882-.33187.19425-.06579.40021-.08333.5944-.1459.31363-.10107.49283-.29379.77284-.4383.3979-.20535.82133-.03178,1.20638.12612.61514.25226,1.58358.43134,1.90099,1.0839.23977.49296-.04513.87085-.15548,1.36223-.05976.26611-.07789.53668-.15115.80111-.09913.35778-.31155.67291-.50933.98621-.36611.57995-1.05121,1.04236-1.17329,1.75006-.04823.27962-.06558.62437.02152.89777.0707.22125.32402.59589.53121.71109.2265.12593.52387.0183.74308.18379.3093.23349.46228.63601.59246.98425.28357.75857.92366,1.42436,1.04298,2.23187.07713.52197-.15896.87902-.34988,1.34235-.16005.3884-.26611.81158-.42672,1.20198-.20357.49482-.2517.96164-.3535,1.49337-.10384.54239-.25846,1.07649-.34385,1.62667-.20753,1.33708-.50553,2.69707-.50553,4.0588,0,.25536-.06771.49644-.02794.78996.10278.75851.27259,1.63058-.04963,2.36269-.13832.31426-.31652.66431-.54457.92013-.22126.2482-.31676.30338-.25125.64387.05226.27164.18469.49211.02246.74479-.20997.32703-.68078.68925-1.03573.84307-.21095.09142-.43957.15345-.65277.21986-.36428.11346-.56476.3966-.88339.60454-.49675.32417-1.00069.66775-1.60419.52971-.62825-.14371-1.20522.09551-1.85849.10012-.4596.00325-.91328-.08142-1.37532-.08093-.32822.00035-.86363.13964-1.16436-.0053-.20104-.09689-.35268-.26752-.5857-.36655-.23763-.10099-.42815-.13004-.70298-.13293-.39101-.0041-.64052.00468-.99323-.16455-.31426-.15078-.63119-.31064-.95994-.41992-.27578-.09167-.42803-.18366-.61642-.39566-.15784-.17762-.67645-.47371-.61293-.72151.07313-.28527.53184-.13604.40839-.56244-.06017-.20782-.39829-.44553-.10542-.65424.1478-.10533.45264.02228.6202.04836.31183.04853.58143.09006.88527.16144.27087.06363.57266.0337.85014.07766.25151.03985.45399.15924.69083.23986.52222.17775,1.049-.00383,1.58002-.05966.61768-.06495,1.21578-.22728,1.80564-.42436.53931-.18019.96097-.52532,1.42822-.83113.47891-.31344.92102-.75976,1.21678-1.24939.2379-.39386.1594-.74598.1594-1.1931,0-.52096.02432-1.03506.00009-1.55562-.01611-.34616-.02666-.883-.02666-1.1956,0-.93201.1073-1.86535.10627-2.79395-.00099-.897-.0654-1.77179-.10036-2.65337-.02487-.62736.04113-1.2271-.69655-1.32772-.56952-.07768-.74072.43953-1.25001.57908-.5828.1597-1.17753.31083-1.77799.39841-.40478.05904-.83105-.08701-1.1859-.27313-.2741-.14377-.7586-.38454-.96799-.62414-.46089-.52735.0887-1.1215.46483-1.47446.34638-.32505,1.05181-.60037,1.02419-1.10105-.01218-.22072-.13709-.47712.01938-.69282.13279-.18306.48975-.23136.6993-.33894.36564-.18771.86126-.63016,1.0613-1.04192.13074-.26912.23446-.55868.38186-.82298.15517-.27824.35401-.51438.49493-.80506.095-.19595.48272-.64644.44975-.85848-.0761-.48933-.7982.27176-.90226.42481-.38956.57296-.92823,1.17711-1.511,1.57144-.45226.30603-1.13789.04987-1.6639.10511-.42708.04484-.749.44985-1.16794.35756-.36902-.08129-.64561-.28937-1.06267-.29119-.18172-.00079-.31534.05035-.48562.08637-.29802.06303-.61986-.01819-.94024-.0568-.64215-.07738-1.21331-.09161-1.70753-.5714-.30787-.29888-.27127-.66637-.37647-1.05539-.13603-.50302-.31349-1.1771-.16921-1.68425.39555-1.39038,1.68771-2.34422,2.41573-3.47535.40418-.62797,1.2034-1.17063,1.82345-1.56985.44291-.28517.84607-.61091,1.28487-.89644.41121-.26759.79684-.51064,1.17074-.8248.31378-.26364.56736-.60136.87514-.87179.40104-.35237.87119-.62269,1.30423-.9356.41774-.30185.81974-.63364,1.2961-.85906.85794-.406,1.70744-.97898,2.60789-1.25975.69876-.21788,1.4123.50311,1.90987,1.00155.36696.3676.59451.74888.69688,1.27509.05997.30829.16493.96686.01037,1.257-.19172.35992-.68788.18293-1.00684.29098-.20294.06819-.38078.20578-.52456.36171-.02341.02539-.04692.05343-.05265.08749-.00411.02441.00142.04929.00691.07342.04381.19233.08552.34452.00747.53287-.06449.15565-.16309.28713-.20388.45399-.06477.26495.1459.46235-.15376.64146-.17615.10529-.39447.12652-.58498.18274-.39547.1167-.89647.17463-1.25664.3862-.2208.1297-.42749.31511-.64372.4601-.15304.10262-.31562.19592-.45118.32207-.10111.09409-.55043.26336-.40237.49087.13337.20494.78707-.1404.91768-.22176.18281-.11387.28047-.07714.47463-.15753Z"/>

</g>
</svg>
