<?xml version="1.0" encoding="UTF-8"?>
<svg xmlns="http://www.w3.org/2000/svg"
     version="1.1"
     width="39.15954091mm"
     height="29.93589231mm"
     viewBox="0.00000000 0.00000000 111.00341020 84.85762752">

<g transform="scale(3.02162081)">   <defs>
      <style type="text/css"><![CDATA[
      .b {
        fill: #000;
        stroke: #000;
        stroke-miterlimit: 10;
        stroke-width: .25px;
      }
    ]]></style>
   </defs>
   <path class="b"
         d="M5.91743,1.86892c-.68942.2272-1.39214.49261-1.91588.99638s-.8266,1.30587-.55091,1.97909c.45428,1.1093,1.97731,1.15973,3.16648,1.03395,4.65564-.49243,9.32598-.84502,14.00265-1.05713,1.70276-.07723,3.45435-.12892,5.06069.44281,1.08895.38758,2.09059,1.05551,3.23401,1.22259s2.54154-.43588,2.66689-1.58786c.13317-1.22391-1.16192-2.07424-2.29877-2.53891C22.1887-.53969,13.1839-.5258,5.91743,1.86892Z"/>
   <path class="b"
         d="M7.2314,8.12381c-.10934-.77697-.23409-1.5921-.71018-2.21479s-1.42741-.95429-2.06184-.49507c-.64693.46827-.63109,1.42186-.54944,2.21778.32669,3.1847.65339,6.3694.98008,9.5541.20426,1.99116.41894,4.06657,1.29165,5.89527.50957,1.06776.76645,1.94087,1.64483.92445.49711-.57524.75164-1.86851.87759-2.61864.31096-1.85193-.14937-3.8587-.40723-5.6917-.35504-2.52381-.71031-5.04759-1.06547-7.5714h.00001Z"/>
   <path class="b"
         d="M23.90304,7.7958c-.02319-1.65913-.46295-3.43318-1.72805-4.50254s-3.50401-1.02619-4.33744.40722c-.65513,1.12674-.2478,2.54087.06626,3.80658.68843,2.7745.83947,5.669.5952,8.5176-.25644,2.9906-.94381,5.95049-.90183,8.95183.01342.95924.4432,2.22652,1.3942,2.1231.68729-.07475,1.03595-.84916,1.24457-1.51015,1.77597-5.62705,3.74932-11.83725,3.66709-17.79364Z"/>
   <path class="b"
         d="M35.97122,3.69005c-.10662-.34025-.26255-.71735-.59674-.83932-.30161-.11008-.63441.03368-.90568.20573-1.14081.72352-1.86552,1.95977-2.33293,3.22969-.602,1.63558-.84578,3.40269-.7092,5.14075.09324,1.18647.36023,2.35174.52234,3.53073.50756,3.69138-.01921,7.43906.00407,11.16529.00382.61136.07081,1.31724.57306,1.66375.51551.35565,1.26672.12047,1.67867-.35186s.56594-1.11164.69265-1.72615c.81513-3.95324.87062-7.93367,1.27994-11.93003.35271-3.44366.85811-6.69207-.20619-10.08858h.00001Z"/>
   <path class="b"
         d="M.20905,23.86686c-.05495.12221-.10595.25714-.07432.38739.06671.27471.42324.33631.70515.33887,2.60502.02363,5.20513-.21077,7.80923-.28448,6.62432-.18749,13.22904.66473,19.80289,1.50442,2.08785.26668,4.23008.52983,6.27769.04151.69533-.16583,1.48335-.55147,1.56191-1.2639.10401-.94316-1.05533-1.45341-1.98196-1.64638-9.46879-1.97187-19.32902-2.81033-28.96061-1.98646-2.15943.18471-4.15258.71342-5.13999,2.90904h.00001Z"/>
   <path class="b"
         d="M5.61232,12.29256c-1.36739.45401-2.63205,1.49067-2.95432,2.89857.9038.49341,1.99013.46336,3.01827.42052,2.31005-.09623,4.62011-.19247,6.93016-.2887,1.42787-.05948,2.8569-.11905,4.27812-.26946,1.33398-.14118,2.66078-.36235,4.00055-.42853,2.11095-.10428,4.24043.18144,6.24981.83854.89159.29157,1.83248.66012,2.73905.41942,1.03037-.27357,1.69626-1.24538,2.26937-2.14664.23439-.3686.47495-.83161.27078-1.21787-.16861-.31898-.5643-.4266-.91706-.49862-4.58387-.93585-9.30312-1.19534-13.9622-.77938-1.91529.171-3.81893.64124-5.73972.69277-2.062.05532-4.17961-.30574-6.18279.35937h-.00002Z"/>

</g>
</svg>
