<?xml version="1.0" encoding="UTF-8"?>
<svg xmlns="http://www.w3.org/2000/svg"
     version="1.1"
     width="27.77041091mm"
     height="44.36864946mm"
     viewBox="0.00000000 0.00000000 78.71919654 125.76944060">

<g transform="scale(5.59901992)">   <defs>
      <style type="text/css"><![CDATA[
      .a {
        fill: #000;
        stroke: #000;
        stroke-miterlimit: 2.61313;
        stroke-width: 0.28346px;
      }
    ]]></style>
   </defs>
   <path class="a"
         d="M4.96777,3.62012A5.17725,5.17725,0,0,1,9.32568.16064V7.59229A4.53251,4.53251,0,0,0,9.646,10.92334c-.34375,2.98926-.68359,6.38477-1.02539,10.05859-1.25977,1.71289-2.522,1.47656-3.77979.96094a51.84771,51.84771,0,0,1,.38281-7.17578Q5.001,11.02,4.77637,7.272,4.873,5.446,4.96777,3.62012Z"/>
   <path class="a"
         d="M4.13574,2.65918q.416-.44824.832-.897c1.27734-.7002,3.23682.19434,5.061.769.51074-.79443,1.17383-.08838,1.85938.83252-.35352,1.41992-.97363,2.14648-2.17969,1.3457-3.42822-.23535-5.73291-.79053-5.57275-2.05029Z"/>
   <path class="a"
         d="M1.18848,13.42236Q.74023,13.23047.292,13.0376c1.3125-.90625,9.17041-2.97754,11.53076-2.24219,1.2627-.25781,2.33105-.36523,2.0498.57666Q7.53271,12.39673,1.18848,13.42236Z"/>

</g>
</svg>
