<?xml version="1.0" encoding="UTF-8"?>
<svg xmlns="http://www.w3.org/2000/svg"
     version="1.1"
     width="18.86018438mm"
     height="52.60442141mm"
     viewBox="0.00000000 0.00000000 53.46191640 149.11490347">

<g transform="scale(3.56472663)">   <defs>
      <style type="text/css"><![CDATA[
      .b {
        stroke: #000;
        stroke-linecap: round;
        stroke-linejoin: round;
        stroke-width: .25px;
      }
    ]]></style>
   </defs>
   <path class="b"
         d="M.65813,6.44431c3.93353,11.0643,2.27461,23.21287,2.85471,34.94127,1.54078-.16413,3.39286-.5648,3.88398-2.03441.12953-.3876.95098-.83086.95967-1.23944.07433-3.4943-.66288-6.96122-.58854-10.45552.14921-7.01417.26166-12.33592-1.90991-19.00905-.60832-1.86884-.77538-5.68615-3.10153-5.51384-1.43342.10618-.05578-1.68115.06245-3.00832C-.36569.78095-.19881,4.03391.65813,6.44431Z"/>
   <path class="b"
         d="M.92516,41.70011c.5031.05667.93586-.33007,1.29143-.69047,2.74159-2.77884,5.36653-5.67274,7.8658-8.67139.90385-1.08444,7.02303-7.52355,3.91889-7.6665-2.57174-.11843-6.269,5.84389-7.57959,7.53263-2.24943,2.89848-4.23135,6.03638-5.49654,9.49574h.00001Z"/>

</g>
</svg>
