<?xml version="1.0" encoding="UTF-8"?>
<svg xmlns="http://www.w3.org/2000/svg"
     version="1.1"
     width="67.34606130mm"
     height="65.77410129mm"
     viewBox="0.00000000 0.00000000 190.90229820 186.44635523">

<g transform="scale(5.63365949)">   <defs>
      <style type="text/css"><![CDATA[
      .b {
        stroke: #000;
        stroke-linecap: round;
        stroke-linejoin: round;
        stroke-width: .25px;
      }
    ]]></style>
   </defs>
   <path class="b"
         d="M14.94456.71136c-.44587.21339-.85103.50244-1.24286.80378-.88583.68127-1.71695,1.43365-2.48276,2.24751,1.73327-.19042,3.49093-.15763,5.21589.09731.15427-.29972.20592-.65109.14443-.98253.8973-.21184,1.75212.45489,2.37832,1.13158.24537.26515.49766.55042.84041.66461.61823.20597,1.25493-.21095,1.77358-.60546.14346-.10912.292-.22432.37052-.38657.20173-.41689-.14007-.88219-.46231-1.21484-1.90221-1.96367-3.71913-3.10319-6.53522-1.7554h0Z"/>
   <path class="b"
         d="M22.74433,7.2912c-.50813.561-.81878,1.36122-.60242,2.08655.16573.55559.60405.98046,1.02547,1.37864,2.16178,2.04254,4.35282,4.10682,6.9495,5.55683.68622.38319,1.44795.73066,2.22836.63741.78041-.09325,1.53393-.79882,1.4003-1.57334-.1081-.62659-.70653-1.02991-1.25489-1.35178-1.72034-1.00981-3.47755-1.9568-5.26696-2.83846-.5288-.26055-1.07491-.52611-1.46762-.96577s-.59686-1.10429-.33205-1.63097c.78434-1.55997,6.93455-1.50586,4.63006-3.36332-1.93643-1.56079-5.94092.55294-7.30976,2.0642h.00001Z"/>
   <path class="b"
         d="M9.99847,8.54634c.91626.19648,1.84314.39658,2.68446.80928,1.2707.62334,2.26096,1.6871,3.22051,2.72753.35032-.39961.70064-.79922,1.05096-1.19883.11314-.12906.23226-.27229.24023-.44373.00992-.21339-.15351-.39094-.30774-.53875-1.35799-1.30153-2.91854-2.43751-4.70125-3.03759-2.296-.77287-4.83906-.92365-7.20022-1.48125-1.43659-.33925-3.12509-.39217-4.30215.75754-1.4121,1.37929.13999,1.09007,1.50029,1.15853,2.6402.13287,5.23743.69457,7.81489,1.24728h.00002Z"/>
   <path class="b"
         d="M4.44866,12.1417c-1.15126.54149-2.31359,1.24065-2.90803,2.36548s-.36706,2.76478.76866,3.33815c.63146.3188,1.38034.2519,2.08377.17732,8.13197-.86213,16.26393-1.72426,24.3959-2.58638.09199-.00975.18578-.01998.27013-.05796.35311-.159.32121-.72038.03134-.97717s-.70786-.29264-1.09441-.31603c-2.31472-.14011-4.62944-.28023-6.94415-.42034-.92578-.05604-2.13458-.39046-2.13839-1.31793-.00131-.32043.16232-.61981.1942-.93865.06248-.62488-.41284-1.21059-.99361-1.44952s-1.23838-.19659-1.85576-.08164c-1.36729.25457-2.66963.85081-3.75578,1.71947-.3917.31326-.78888.75178-.70435,1.24616.17987,1.05204,2.05712.81173,2.48133,1.79111-2.15133.11406-4.31252.04157-6.45138-.21638-.27716-.03343-.58086-.08403-.76059-.29765-.25655-.30492-.11254-.80094.19088-1.05927s.71211-.34474,1.09955-.43794c2.14191-.51526,4.16882-1.503,5.89447-2.87245-.05242.0416-1.98221.01153-2.26443.08018-.72503.17637-1.38861.43494-2.15412.57919-1.85958.35042-3.67221.92656-5.38522,1.73226h0Z"/>
   <path class="b"
         d="M5.60575,19.7907c-1.0775.08333-2.18866.69299-2.53009,1.71835-.10983.32982-.12937.71155.05047,1.00904.31615.52295,1.04249.55139,1.649.62606s1.34015.45708,1.24626,1.06091c-.09279.59669-.95901.87625-.96345,1.48009-.00525.71259,1.1968,1.0312,1.0919,1.73604-.0318.21364-.18529.38552-.28521.57701s-.13034.46269.04135.59376c.12923.09865.31417.0705.46651.0137.71369-.26611,1.15627-1.10968.96963-1.84815-.09348-.36986-.32277-.74581-.19569-1.10551.09294-.26304.34914-.42442.56607-.59983.77134-.62368,1.16301-1.59074,1.52403-2.51491.89737-2.29717-1.84273-2.88485-3.63078-2.74657h0Z"/>
   <path class="b"
         d="M15.41162,22.57492c.2684.55533.73412,1.02811.84348,1.63512.05375.29834.0154.60501-.03231.90438-.16737,1.05013-.44918,2.08198-.83886,3.07139.04029.22807.3508.27026.57866.22879.9731-.17711,1.81586-.8889,2.21783-1.79262.60573-1.36181.05555-4.2204-.62972-5.51485-1.0635-2.00894-2.98346-.27932-2.13908,1.46779Z"/>
   <path class="b"
         d="M23.87271,22.02958c.06691.37033.35681.66491.45476,1.02826.15773.58507-.20576,1.16512-.42979,1.72814-.24989.628-.33259,1.32165-.23734,1.99079.02421.1701.06295.34578.17078.47955.13566.16829.3539.24001.55036.33018.87019.39936,1.47112,1.39319,1.28573,2.33252-.18591.94191-1.04014,1.60396-1.41063,2.48968-.03874.09262-.0726.19306-.05445.2918.0596.32423.52954.30593.84276.20313.64075-.21029,1.31823-.44522,1.74156-.97018.47746-.5921.52189-1.42006.45425-2.17767-.14225-1.59334-.68287-3.15475-.59686-4.75212.03966-.73656.21271-1.4647.19982-2.2024-.04379-2.49912-3.32565-2.73501-2.97095-.77168Z"/>

</g>
</svg>
