<?xml version="1.0" encoding="UTF-8"?>
<svg xmlns="http://www.w3.org/2000/svg"
     version="1.1"
     width="27.10383269mm"
     height="43.89069678mm"
     viewBox="0.00000000 0.00000000 76.82972398 124.41460778">

<g transform="scale(4.30422480)">   <defs>
      <style type="text/css"><![CDATA[
      .b {
        fill: #000;
        stroke: #000;
        stroke-linecap: round;
        stroke-linejoin: round;
        stroke-width: .01px;
      }
    ]]></style>
   </defs>
   <path class="b"
         d="M16.65344.12093c-.42578.15234-.70313.32031-.94531.57031-.09375.10156-.23047.18359-.30469.18359-.0625,0-.23047.16797-.35938.36719-.12891.20703-.4375.53516-.69531.74219-.60156.48828-.75781.76953-.75,1.34375.00781.59375.0625,1.20313.11719,1.29688.02344.03906,0,.19141-.05469.33594-.05469.15234-.09766.50391-.08984.77734.00781.32031-.03125.61719-.10156.80078-.07422.16797-.16016.56641-.19141.89453-.12109,1.07813-.38672,2.07813-.5625,2.07813-.03125,0-.13672.13672-.23047.29688-.09766.16797-.22266.33594-.28906.36719-.0625.03516-.11328.11328-.11328.16016,0,.05859-.125.41016-.28516.77734-.16016.375-.32813.83984-.36719,1.03906-.04297.20313-.10547.47266-.15234.60938-.04297.13672-.07422.35156-.07422.48047s-.07813.35938-.18359.50391c-.3125.48828-.60156,1.00781-.90234,1.64844-.08203.17578-.3125.48828-.51172.70313-.35547.375-.91406,1.24609-1.16797,1.81641-.07422.15234-.28906.44922-.47266.64844-.19141.20703-.38672.49609-.42578.65625-.03906.15234-.14453.34375-.23047.42188-.25781.25781-.84766.67188-.96094.67188-.0625,0-.19922.05859-.30469.12891-.10156.07031-.40625.13672-.70313.15234-.80859.03906-1.03125.14453-1.33594.625-.32813.50391-.70313.87109-1.03125,1.00781-.13672.0625-.34375.26172-.48828.48828-.20703.32031-.23438.40625-.16016.58984.03906.12109.07813.23438.07813.24219,0,.01563-.125.15234-.27734.3125s-.28125.34375-.28125.41406-.05469.23828-.12891.36719c-.0625.13672-.13672.32813-.16016.41797-.01563.09375-.09375.23047-.17578.29687-.08594.07031-.19141.19922-.23828.29297-.05859.09766-.23438.21875-.39453.27344-.16797.05469-.35156.15234-.40625.22266-.11328.14453-.33594.63281-.33594.73047,0,.16016.60156.71875.76172.71875.09375,0,.26953.08594.39063.19922s.28125.19922.35156.19922.35156.07422.61719.15234c.26172.08984.73438.19922,1.03906.25.3125.04688.75.12891.98438.16797.28125.04688.52734.04688.71094,0,.22266-.06641.34375-.05078.57813.0625.72656.36719,1.58984.36719,2.01563,0,.09375-.07813.20703-.15234.24609-.15234.03125,0,.06641-.0625.06641-.14453.00781-.29297.31641-.81641.77344-1.26172.59375-.59375.83984-1.10547.87109-1.78516.02734-.52734-.03125-.71094-.32813-1.03125-.14844-.16016-.26953-.21484-.52734-.25-.125-.01563-.14453-.28516-.02344-.46875.16016-.25.19141-1.06641.03906-1.25-.05469-.07031-.21484-.12891-.34375-.12891-.26953,0-.66406-.18359-.72656-.34375s.03125-.26953.34375-.40625c.15234-.06641.40625-.28125.55859-.48828.15234-.19922.46484-.59375.67969-.87109.22656-.28125.57031-.76953.76172-1.08984.19922-.32031.55859-.80859.80078-1.07031.23828-.27344.51172-.64063.58984-.83203.08984-.18359.17578-.33594.21094-.33594.03125,0,.10156-.15234.16016-.34375.13281-.47266.4375-1.25.58984-1.53906.07422-.13281.12891-.27734.12891-.33594,0-.04688.08594-.19922.19922-.32813.28125-.33594.76172-1.05469.76172-1.14844,0-.04297.07031-.21094.15234-.37109.38281-.75.48828-1.0625.40625-1.21484-.0625-.11328-.03906-.19922.11328-.375.25391-.3125.41406-.64063.61328-1.28125.16016-.51953.28125-.82422.58594-1.47266.07813-.16016.16016-.51953.17578-.80078.02344-.27734.07813-.63672.13672-.78906.08594-.28125.10156-.35156.16016-.875.01563-.16016.10156-.33594.19922-.41406.22266-.17578.60156-.92969.625-1.23047.02344-.3125.56641-1.83203.67188-1.86719.04688-.01563.07813-.07031.07813-.11719,0-.14453.49609-1.17578.57031-1.17578.03906,0,.07031-.12891.07031-.28906,0-.21484-.05469-.34375-.24609-.51953-.28125-.26563-.44141-.28125-.94531-.10547Z"/>

</g>
</svg>
