<?xml version="1.0" encoding="UTF-8"?>
<svg xmlns="http://www.w3.org/2000/svg"
     version="1.1"
     width="42.62128166mm"
     height="44.15899028mm"
     viewBox="0.00000000 0.00000000 120.81624709 125.17514785">

<g transform="scale(4.30598027)">   <defs>
      <style type="text/css"><![CDATA[
      .b {
        stroke: #000;
        stroke-linecap: round;
        stroke-linejoin: round;
        stroke-width: .15px;
      }
    ]]></style>
   </defs>
   <path class="b"
         d="m4.06621,2.88918c-1.0362.08597-1.11181-1.09026-1.94699.15554-.50613.75497-.69158,1.3666-1.2904,2.06913-1.36289,1.59894-.70837,3.4566.6189,4.80812-.10916,1.41188.39837,2.66467.10042,4.15413-.31687,1.58405-.67317,3.27141-.9021,4.90653-.26601,1.89993-1.05706,6.10859,1.10053,7.3174.49441.27699,1.28893.1777,1.83896.34262.43049.12934.96598.37631,1.42223.33109.3395-.03365.23697-.15237.46976-.28494.29079-.1656.8352-.35394,1.17014-.43681.46574-.11522.92709-.01813,1.35812-.2625.67003-.37986.98437-1.43568,1.15979-2.09972.54358-2.0578-2.14256-1.55954-2.8712-3.15035-.57317-1.25138-1.08073-3.79519-.69689-4.98843.26472-.82294.26395-1.84326.39345-2.71198.06178-.41444.06761-.78848.08781-1.22471.02769-.59814.19536-.9089.32804-1.42198.38766-1.49906-.01629-3.51637-.64177-4.92831-.26351-.59484-1.18458-2.5947-1.6988-2.57482Z"/>
   <path class="b"
         d="m22.96646.35165c.009,1.35271.51084,2.55906.61703,3.92011.05988.76748-.03308,1.40212.23649,2.14146.20975.57526.47054,1.02933.53903,1.63768.15332,1.36203.03326,2.75421.1873,4.11139.13328,1.17425.42142,2.136.80417,3.32008.18854-.33351-.0147-.96326.45891-1.04373.61312-.10418.50048.7273.49534,1.12499,1.31093-.26014,1.07969,2.34408,1.03679,3.16327-.03121.59584-.04297,1.19432-.19447,1.77151-.14368.54741-.63715.88003-.76976,1.289-.69059,2.12974,2.08213,3.742,1.53299,5.7771-.43256,1.60305-1.40781.09663-2.48258.27776.07375.09855.11855.37104.2183.49683-.47592.00843-.89741-.31278-1.37326-.39189.15405.91827.34537,1.1386-.86877,1.01732-.71798-.07172-1.0622-.29514-1.541-.82067-.37815-.41506-1.05815-1.02678-1.32676-1.54217-.37567-.72081-.3326-1.76852-.43781-2.53753-.29351-2.14537-.28682-4.43684-.77296-6.55176-.61506-2.6758-.21614-5.52659-.82986-8.19188-.27254-1.18359-.08178-2.62473-.52763-3.75578-.13574-.34435-.32387-.69394-.58472-.96655-.1764-.18435-.38581-.31901-.62904-.39783-.04303-.01394-.09256-.02541-.13147-.00219-.28713.17155-.24394.67624-.49905.89965-.29101.25485-.75808.24751-1.1198.24342-1.00355-.01135-1.68323.26251-2.66964.52626-.92041.2461-1.86377.53595-2.79918.60924-1.41846.11112-2.98043,1.04336-4.36106.77226-1.15134-.22608-2.54113-1.61423-1.98901-2.87198.28543-.65022,1.70881-1.28507,2.33265-1.41107,1.24064-.25059,2.51563-.59975,3.77703-.78751,1.35105-.20111,2.5257-.58995,3.86593-.77505,2.13085-.29428,3.98232-1.05744,6.18223-1.05173.7332.0019,3.32534-.62342,3.62367,0Z"/>

</g>
</svg>
