<?xml version="1.0" encoding="UTF-8"?>
<svg xmlns="http://www.w3.org/2000/svg"
     version="1.1"
     width="56.31819803mm"
     height="58.29416505mm"
     viewBox="0.00000000 0.00000000 159.64218627 165.24334156">

<g transform="scale(4.38879466)">   <defs>
      <style type="text/css"><![CDATA[
      .b {
        stroke: #000;
        stroke-linecap: round;
        stroke-linejoin: round;
        stroke-width: .01px;
      }
    ]]></style>
   </defs>
   <path class="b"
         d="M27.52578.18957c-.15234.19531-.22656.89844-.29688,2.88281-.02344.54297-.10547,1.07031-.27344,1.80078-.04688.19922-.08594.55859-.08594.80469,0,.57813.20703.89063.82422,1.25781.42188.23828.51953.26172,1.07813.26172.50391,0,.66406.03516.94531.19531.4375.25391.48047.39844.23047.76563-.20703.32031-.94531.95313-1.11328.95313-.04688,0-.26172.14453-.47656.32031-.21094.17578-.41797.32031-.45703.32031s-.25.12109-.45703.26172c-.20703.14453-.625.41016-.93359.57813-.30469.17578-.60938.35938-.66406.41406-.05859.05859-.14453.10547-.19531.10547-.04688,0-.30078.16797-.57422.36719-.42578.3125-.9375.65625-2.32812,1.54297-.17578.11328-.46484.32031-.64844.45703-.17578.14453-.60938.40234-.96094.57813-.34375.16797-.87891.46094-1.19141.65625-.84766.51953-1.33594.77344-2.02344,1.04688-.33594.13672-.96094.40625-1.375.60938-.41797.19922-.88281.41406-1.01563.46875-.14453.06641-.26563.14453-.26563.18359,0,.04297-.13672.16016-.3125.27344-.16797.11328-.49609.41016-.73438.65625-.24219.24609-.69531.66406-1.01563.92969-.32031.26172-.71484.62109-.88281.80469-.16016.1875-.42188.47266-.57422.64063-.57813.61719-1.28906,1.50391-1.38281,1.72266-.05078.10156-.11328.18359-.14453.18359-.09766,0-.77734.71094-1.15234,1.19141-.17578.23047-.51953.63281-.76172.89453-.23828.27344-.49609.58594-.55859.71094-.0625.12109-.19922.32031-.30469.44922s-.3125.43359-.46484.67188c-.16016.24219-.67188.82422-1.14453,1.28906-.46094.46484-.94922.97656-1.08594,1.13672-.12891.16797-.41797.48047-.625.69531-.92578.95313-1.79297,2.33594-2.49609,3.99219-.08594.19141-.22266.44141-.32031.55078-.14453.18359-.44531.67969-.82422,1.375-.07813.15234-.23047.57813-.33594.92969-.18359.64844-.18359.65625-.03125,1.02344.09766.23437.22266.39453.35938.44922.21875.09375.78516.0625,1.28906-.06641.55859-.14063,2.91406-2.56641,3.41797-3.51953.09375-.17578,1.19922-1.62891,1.58984-2.09375.05469-.06641.35156-.49609.65625-.96094.51172-.78516.80078-1.11328,2.50391-2.87891.35938-.36719.76172-.81641.88672-1,.20313-.27344.63281-.75391,1.08203-1.17578.05469-.05859.55859-.55469,1.12109-1.10547.55078-.55078,1.11719-1.09766,1.24609-1.20703.13672-.10547.47266-.44922.75391-.75391.27734-.30469.71094-.69531.95703-.87891.25-.18359.80859-.6875,1.25-1.11328.83203-.81641,1.25391-1.15234,1.71875-1.35156.15234-.0625.44141-.25391.64063-.42969s.50391-.39453.67969-.48828c.17578-.08984.51953-.33594.76172-.55469.94922-.84766,1.41406-1.13281,2.32031-1.42188.23828-.07422.51172-.19922.59766-.28125.16797-.15234.90625-.41406,2.19922-.79297.44922-.125,1-.35938,1.32031-.55078.30469-.18359.60156-.33594.65625-.33594.16797,0,1.07422-.30469,1.34375-.45703.53516-.29297,1.38672-.86328,1.6875-1.15234.18359-.16016.48047-.39063.66406-.50391.17578-.10938.875-.75781,1.54688-1.4375,1.46875-1.48047,1.52734-1.53516,1.69531-1.86328.07031-.14453.23047-.41797.35938-.60156.44141-.65625.69531-1.47266.90234-2.89453.09766-.69141.06641-.83984-.30859-1.60156-.28125-.57422-.70703-.97656-1.37109-1.28906-.62109-.29297-.84766-.33594-1.29297-.19141-.15234.04688-.46484.09766-.69922.11328-.24609.00781-.51953.08594-.6875.19141-.39063.23828-.48047.12109-.60547-.80859-.16797-1.30469-.20313-1.35156-1.14453-1.77734-.51953-.23828-.80859-.25391-1.21094-.08594-.40625.16797-.62109.15234-.93359-.08203-.33594-.24609-.35156-.24609-.54297,0Z"/>

</g>
</svg>
