<?xml version="1.0" encoding="UTF-8"?>
<svg xmlns="http://www.w3.org/2000/svg"
     version="1.1"
     width="34.37708569mm"
     height="43.45169382mm"
     viewBox="0.00000000 0.00000000 97.44691787 123.17013848">

<g transform="scale(3.31398109)">   <defs>
      <style type="text/css"><![CDATA[
      .b {
        stroke: #000;
        stroke-linecap: round;
        stroke-linejoin: round;
        stroke-width: .25px;
      }
    ]]></style>
   </defs>
   <path class="b"
         d="M.22172,32.32023c-.09658.62459-.18908,1.2938.08341,1.86405.13535.28325.35132.51866.56412.74945.56261.61019,1.12521,1.22037,1.68782,1.83056.09999.10845.20754.22167.34958.26149.14366.04028.29663-.00207.43715-.05224,1.86356-.6654,2.93556-2.60928,3.57097-4.48328,1.36195-4.01677,1.48699-8.34613,2.5364-12.45564.41164-1.61198.96433-3.18506,1.38463-4.7948,1.03876-3.97836,1.25409-8.16976.62851-12.23362-.05773-.37505-.12673-.76027-.33026-1.08053-.31467-.49515-.88981-.74814-1.43194-.97238-.80921-.33471-1.63061-.6694-2.49839-.78694s-1.80092.00384-2.51203.5149c-1.12622.8094-.73013,2.48047-.93486,3.8522-.23304,1.5614-.66877,2.86785-.78755,4.41183-.14803,1.92419-.32806,3.84654-.51786,5.76701-.37655,3.81004-.82076,7.61339-1.33238,11.40765-.27907,2.0696-.57819,4.13649-.89732,6.2003v-.00002Z"/>
   <path class="b"
         d="M5.37084,19.61781c-.72872-.18218-1.56993-.09043-2.1194.42174-.44571.41547-.63441,1.03372-.75987,1.62998-.4795,2.27889-.24482,4.81162,1.14359,6.68126.44301.59656.98814,1.10843,1.53011,1.61677.96325.90349,1.93479,1.81339,3.05785,2.50827.75231.46548,1.56292.82825,2.37657,1.17553.66742.28487,1.35339.5639,2.07725.61514.69496.0492,2.41775.17131,3.09525.00889,3.18549-.76363,4.52584-.79169,7.69997-1.60125.43238-.11028,1.79468-.5232,2.10634-.84254s.64372-1.34372.30487-1.63405c1.20185-.65687,2.11243-1.51698,3.39642-1.99374-.77519-.86262-.45627-2.20889-.09245-3.3101-3.46324.42001-5.42842,1.0018-8.91682,1.04013-1.01261.01113-3.88711.16218-4.88671,0-.85828-.13925-2.74398-.90674-3.56957-1.17955-1.52687-.50454-1.72386-1.26943-2.99072-2.28865-1.2917-1.0392-1.69517-2.40847-3.4527-2.84785l.00002.00003Z"/>

</g>
</svg>
