<?xml version="1.0" encoding="UTF-8"?>
<svg xmlns="http://www.w3.org/2000/svg"
     version="1.1"
     width="35.56424808mm"
     height="28.01591021mm"
     viewBox="0.00000000 0.00000000 100.81201358 79.41513553">

<g transform="scale(3.41505846)">   <defs>
      <style type="text/css"><![CDATA[
      .b {
        stroke: #000;
        stroke-linecap: round;
        stroke-linejoin: round;
        stroke-width: .25px;
      }
    ]]></style>
   </defs>
   <path class="b"
         d="M4.69086,7.59556c-1.34415.91987-4.11677,1.52583-4.48948,3.11138-.26719,1.13667.21581,2.30074.68833,3.36851.26121.59027.53209,1.19493.98771,1.65217.64592.64822,2.21739.94357,2.89182,1.42967,1.95731,1.41075,4.43846,1.68799,6.6527,3.09218.75736-.20016,1.55236-.42132,2.1066-.97491s.74382-1.55415.18555-2.10367c-.25873-.25468-.62117-.36675-.96626-.4795-2.19275-.71638-4.26465-1.80113-6.10266-3.19506-.91305-.69245-1.84472-1.62989-1.78116-2.77406,2.14794-.96449,4.29827-1.93081,6.50579-2.75295,1.06244-.39568,2.13698-.76034,3.22708-1.07251.73379-.21014,2.39397-.27129,2.88459-.90323.97921-1.26126.56608-2.47867-.6684-2.6299-1.6064-.19679-4.44803.22492-5.89433.82477-4.62452,1.918-4.62452,2.30987-6.22787,3.40712h-.00001Z"/>
   <path class="b"
         d="M22.93197.22832c-.52551-.11121-2.31035-.17253-2.80892.02738-1.22979.4931-1.34643.81227-2.00022,1.96469s-.75607,2.65761-.0673,3.78948c.15925.26171.36236.50483.62759.65815.48234.27882,1.0836.21998,1.63042.11331s1.11097-.25279,1.65255-.1221.68517.08189.55187.62283c-.05199.21095-.23909,2.46197.41402,2.09894.35427-.19692.5479-.65749.78628-.98529s.37705-.78013.7572-.92072c.32581-.1205.70123.06279.91115.33957s.29209.6269.36908.96564c-.24841.13207-.38008.45063-.29739.71955.60294.5716,1.69954.26158,2.12153-.4541s.29378-1.64419-.07261-2.38986c-.69002-1.40434-1.90932-2.4601-2.5525-3.90812-.51455-1.15842-.54259-2.20611-2.02274-2.51935h-.00001Z"/>
   <path class="b"
         d="M25.20554,14.37781c-.14243-.05154-.25167-.16505-.37259-.25626-.53775-.40562-1.31066-.35415-1.92165-.07062s-1.03441.86339-1.62007,1.19611c-1.61895.91975-2.80639,1.01288-4.47905,2.57882-.86124.80629-2.28471.66444-3.29001,1.28187s-1.83764,1.70345-1.72962,2.87825c.04337.47168.29185.97644.74671,1.1086,1.02409.29755,1.66467-1.41008,2.73108-1.40203.24937.00188,1.17037-.21039,1.17037-.45976,0-.87953.54119-.74695,1.25743-1.14206.36452-.20108.80777-.15374,1.22401-.1614,1.8513-.03411,3.45175-1.23647,4.8835-2.41061,1.629-1.33589,3.22919-2.70689,4.79909-4.11175.30761-.27527.62771-.57297.74311-.9693.22345-.76741-.39205-1.50242-.95873-2.06614-1.02167-1.01631-3.9427-2.00302-4.41804-.03285-.22383.92772,1.19698,1.66935,1.59849,2.38815.18883.33806.75895,2.05729-.36403,1.65098Z"/>

</g>
</svg>
