<?xml version="1.0" encoding="UTF-8"?>
<svg xmlns="http://www.w3.org/2000/svg"
     version="1.1"
     width="23.89474571mm"
     height="27.54539884mm"
     viewBox="0.00000000 0.00000000 67.73311270 78.08141672">

<g transform="scale(4.30598027)">   <defs>
      <style type="text/css"><![CDATA[
      .b {
        stroke: #000;
        stroke-linecap: round;
        stroke-linejoin: round;
        stroke-width: .15px;
      }
    ]]></style>
   </defs>
   <path class="b"
         d="m14.68614.1542c.07178.05852.04895.22234.10918.30055.10712.13909.27671.19486.42179.28373.35271.21608.47947.67749.42624,1.09264-.05663.44162-.22988.84957-.27483,1.29946-.03696.36996-.00902.77706-.06716,1.145-.04934.31231-.23514.59891-.31044.91173-.08142.33823-.10725.647-.21427.98222-.22935.71843-.44605,1.45029-.64315,2.19597-.11599.43882-.34803.80736-.50023,1.22906-.19508.54049-.60998.94789-.82971,1.47177-.14164.33769-.11822.67743-.22934,1.01142-.13985.42033-.5574.74534-.79944,1.11577-.353.54025-.68196,1.10151-1.03323,1.63525-.35855.54482-.95644.96391-1.42674,1.40214-.7976.74323-1.39571,1.61048-2.53823,1.79853-.54745.09011-1.60499-.0046-1.76634-.66933-.21456-.88392.91524-1.71739,1.48965-2.19532.67295-.55992,1.33923-1.08146,1.90993-1.7524.36351-.42735.74236-.83707,1.0592-1.30953.11091-.16538.25029-.33169.31831-.51445.10326-.27742.06237-.59941.14481-.89962.29591-1.07752.67981-2.32344.63449-3.44654-.01976-.48953-.27036-.48002-.75618-.46288-.66542.02346-1.37038.20726-2.0477.30467-.93504.13449-1.8716.15766-2.71966.63062-.55495.30949-1.11497.49871-1.73177.6736-.65656.18617-2.80407,1.02026-3.16789-.00973-.10871-.30776-.07813-.87888.02312-1.18223.12014-.35992.30728-.70093.4339-1.07096.10243-.29933.19305-.61877.33742-.9016.27006-.52909.53715-.94622,1.02529-1.29026.72978-.51436,1.50814-.96723,2.2706-1.43112,1.55002-.94305,3.18115-1.39754,4.97626-1.41636.6806-.00713,1.31443.01252,1.97221-.15467.74546-.18948,1.48913-.13816,2.21541-.41979.26695-.10356.51456-.25311.78423-.35135.20457-.07452.33464-.14425.50425-.00598Z"/>

</g>
</svg>
