<?xml version="1.0" encoding="UTF-8"?>
<svg xmlns="http://www.w3.org/2000/svg"
     version="1.1"
     width="28.04190738mm"
     height="32.08658338mm"
     viewBox="0.00000000 0.00000000 79.48883782 90.95406288">

<g transform="scale(5.59901992)">   <defs>
      <style type="text/css"><![CDATA[
      .a {
        fill: #000;
        stroke: #000;
        stroke-miterlimit: 2.61313;
        stroke-width: 0.28346px;
      }
    ]]></style>
   </defs>
   <path class="a"
         d="M.3916,1.87061c1.13867-.9209,2.668-.8584,4.46875-.124C4.75879,5.59033,4.68652,9.46191,4.69629,13.417c-.13867.332-.52539.45508-.99414.45605a5.73051,5.73051,0,0,0-2.23437,2.02832A19.4745,19.4745,0,0,0,.14355,11.84473q.29-5.07056.248-9.97412Z"/>
   <path class="a"
         d="M1.83887.29736c-.86914.62109-.66211,1.33789.125,2.07031C3.0791,3.80518,5.7002,4.25439,8.58545,4.478q2.77441-.33252,3.0625-2.15234-.78516-.12451-1.57324-.248a5.33121,5.33121,0,0,0-.04-1.3252,3.98475,3.98475,0,0,0-1.2832.166A15.7661,15.7661,0,0,0,1.83887.29736Z"/>
   <path class="a"
         d="M6.30957,7.45752A5.97381,5.97381,0,0,1,7.59326,5.47119c.53711-.01367,1.07617-.02734,1.61328-.041a7.95774,7.95774,0,0,1-.207,2.27539c.22852,1.34619,1.59375,2.15967,3.47656,2.73291v.70313q.78809.16553,1.57227.33105c.18066,2.37988-3.2207,1.46387-5.959,1.15918-1.87744-1.29687-3.063-2.80078-2.731-4.76025a3.56082,3.56082,0,0,0,.95117-.41406Z"/>

</g>
</svg>
