<?xml version="1.0" encoding="UTF-8"?>
<svg xmlns="http://www.w3.org/2000/svg"
     version="1.1"
     width="27.95969380mm"
     height="10.08194411mm"
     viewBox="0.00000000 0.00000000 79.25594025 28.57882362">

<g transform="scale(6.53780177)">   <defs>
      <style type="text/css"><![CDATA[
      .b {
        stroke: #000;
        stroke-miterlimit: 10;
        stroke-width: .15px;
      }
    ]]></style>
   </defs>
   <path class="b"
         d="m1.32409,1.05922c-.17249.1012-.29016.00586-.59583.08514-.07202.01868-.54358.14099-.63818.46808-.04065.14056.00525.26019.08508.46808.11182.29114.20947.54553.42554.68085.44055.27594.96948-.19598,1.27661.08508.15454.14136.0708.30664.25525.46808.2218.19409.55884.14417.68091.12769.80139-.10834,4.25513-.16309,5.06384,0,.703.14178,1.05444.21271,1.40417.42554.24365.14832.44434.37213.72339.34039.23059-.02625.40063-.20612.50684-.35089.16394.01544.39612.05731.64209.18073.26245.13171.39209.28162.42554.25531.03564-.02802-.05322-.24371-.61938-1.08844.36865-.07739.53552-.22968.61938-.3584.13147-.20172.05579-.34052.21277-.68085.14233-.30847.2616-.31824.25537-.46808-.00635-.15472-.16028-.24799-.72339-.63831-.29846-.20685-.51807-.35895-.80859-.46808-.50378-.18921-2.05151-.2735-3.57446-.42554-.69971-.06989-1.82178-.14026-3.14893-.04254-.88879.06543-1.63013.1886-2.17017.29785-.02209.23615-.08936.51593-.29785.63831Z"/>

</g>
</svg>
