<?xml version="1.0" encoding="UTF-8"?>
<svg xmlns="http://www.w3.org/2000/svg"
     version="1.1"
     width="44.06524677mm"
     height="39.32312132mm"
     viewBox="0.00000000 0.00000000 124.90942402 111.46705722">

<g transform="scale(6.07147487)">   <defs>
      <style type="text/css"><![CDATA[
      .b {
        fill: #000;
        stroke: #000;
        stroke-linecap: round;
        stroke-linejoin: round;
        stroke-width: .25px;
      }
    ]]></style>
   </defs>
   <path class="b"
         d="M8.00854,1.13315c1.33002-.23703,2.37503-.85699,3.81104-.91104,1.729-.06497,6.92599-.70999,5.48001,2.44705-.71701,1.55701-1.73904,1.172-2.91104.56198-2.39597-1.24698-6.58896-1.052-7.38699,2.13297,2.92801.15506,7.12698.64005,9.66104-.75995.20697-.11499.60596-1.54904,1.20596-1.91501.67801-.41302,1.741-.67599,2.51102-.51498.26599,1.27197-.29898,2.75299-.72104,3.95297-.17499.496-.69894,1.10901-.79996,1.52603-.172.70898-.16199,1.92795-.02103,2.65491.19101.98212,1.06201,1.80307,1.09702,2.81104.06097,1.71704-2.297,3.59604-3.138,5.11502-1.599-.44197-1.63397-4.29797-1.63397-5.702,0-2.27496.75696-4.57999,1.11398-6.77197-2.36902,1.87698-5.59103,2.479-8.68402,2.22101-1.51401-.12598-2.48398.13202-3.55197,1.453-1.98004,2.44897.66,1.43195,1.27197,3.05298-.77496.46796-1.73999.54395-2.58401.88-.83096.328-1.37497.79599-2.47998.60895-.57599-1.08496,1.02301-2.40497,1.48599-3.30695.71103-1.38806,1.763-2.82401,2.25702-4.29001.36099-1.07205-.19803-3.37997.52802-4.215.60001-.68896,2.50397-2.29102,3.23801-.90497"/>
   <path class="b"
         d="M8.00857,1.13312c1.32904-.23703,2.375-.85699,3.81104-.91101,1.72897-.06494,6.92599-.70996,5.48001,2.44705-.71698,1.55701-1.73904,1.172-2.91101.56201-2.396-1.24701-6.58899-1.05301-7.388,2.133,2.92899.155,7.12799.63998,9.66202-.76099.20697-.11404.60596-1.54803,1.20596-1.91403.67801-.41299,1.741-.67599,2.51102-.51498.26599,1.27197-.29895,2.75296-.72104,3.95297-.17499.496-.69894,1.10901-.79996,1.52603-.172.70798-.16199,1.92795-.02103,2.65494.19104.98206,1.06201,1.80301,1.09702,2.811.061,1.71704-2.29703,3.59602-3.138,5.11502-1.599-.44197-1.63397-4.29797-1.63397-5.702,0-2.27496.75699-4.57999,1.11499-6.77298-2.37,1.87802-5.59204,2.48001-8.68503,2.22202-1.51398-.12598-2.48398.13199-3.55197,1.453-1.98004,2.44897.65997,1.43097,1.27197,3.05298-.77499.46799-1.73996.54398-2.58398.87903-.83099.32797-1.375.79697-2.47998.60901-.57602-1.08405,1.02197-2.40402,1.48599-3.30603.711-1.38803,1.76297-2.82401,2.25699-4.29099.35999-1.07108-.198-3.379.52802-4.21402.60001-.69003,2.50299-2.29102,3.23804-.905"/>
   <path class="b"
         d="M10.76959,8.87717c1.78796-.84006,2.65399.737,1.85397,2.24796-.48401.91101-2.02698,3.34402-3.09998,3.71103-.06-.89401.45297-1.77704.737-2.56805-1.39203-.08395-3.19202.47205-4.50101-.01093.521-1.18402,2.08899-2.89301,3.28397-3.48605.78604-.38895,4.19403-.59198,3.98502.73102"/>
   <path class="b"
         d="M10.76962,8.8772c1.78799-.84009,2.65399.73697,1.854,2.24701-.48401.91193-2.02701,3.34494-3.10001,3.71194-.06104-.89401.45297-1.77701.73697-2.56897-1.392-.08307-3.19199.47296-4.50098-.01001.52097-1.18402,2.08798-2.89304,3.28397-3.48605.78604-.38895,4.19403-.59296,3.98505.73007"/>

</g>
</svg>
