<?xml version="1.0" encoding="UTF-8"?>
<svg xmlns="http://www.w3.org/2000/svg"
     version="1.1"
     width="21.08721693mm"
     height="21.64422004mm"
     viewBox="0.00000000 0.00000000 59.77480200 61.35371546">

<g transform="scale(2.22507533)">   <defs>
      <style type="text/css"><![CDATA[
      .b {
        stroke: #000;
        stroke-linecap: round;
        stroke-linejoin: round;
        stroke-width: .01px;
      }
    ]]></style>
   </defs>
   <path class="b"
         d="M13.19013.09279c-.04688.05859-.29688.35547-.56641.65625-.26563.29688-.48047.57031-.48047.60938,0,.03125-.09766.16016-.21484.29688-.91406.98438-2.21875,2.36719-2.57813,2.72656-.40625.42578-.42188.45703-.375.76172.0625.39063.13672.48828.45703.61328.19922.08984.25391.08203.375-.02344.07031-.07031.23047-.16016.34375-.20703.28125-.10547.64844.12109.78516.48047.29297.79297.51172,1.27344.57422,1.27344.03125,0,.10547.07031.15234.16016.0625.11719.05469.22266-.04688.41406-.25781.51172-2.25781,2.67188-2.83203,3.07031-.42578.28906-1.5625,1.41797-2.16797,2.16016-.18359.22656-1.74609,1.67188-2.64844,2.46484-.87109.76172-1.74609,1.35938-2.10547,1.44141-.12891.03125-.4375.25391-.67969.49609-.23828.23047-.54297.51172-.66406.60547-.21484.17969-.28125.33984-.47266,1.19531-.07031.32031-.05469.40625.08984.69531.17578.35156.53516.73438.98438,1.08594.35156.26563.99219.44922,2.38281.69922.28906.04688.73438.16797,1,.26953.26563.10547.75391.22656,1.08203.27344,1.08594.15234,2.10938.26953,2.48438.28906.20313,0,.46484.04688.60156.10156.12891.04688.43359.10547.67188.12891.88672.08594,1.09766.14453,1.82422.50391.83984.41406,1.14453.73438,1.45703,1.51953.10156.25781.28516.60938.41406.78516.12109.17578.29688.47266.38672.65625.18359.36719.44531.58984.88672.73438.26172.08984.39063.16797.77734.49609.19141.16016,1.11719-.16016,1.47656-.51953.11328-.11328.24219-.20703.28125-.20703s.11328-.08203.15234-.18359c.08984-.18359.83203-.66406,1.54297-1.00781.19922-.08984.57031-.30469.81641-.46484.25-.16797.625-.41797.83984-.5625.20703-.13281.49609-.34375.625-.45313.44141-.37109.71875-.57813,1.03906-.76953.17578-.10547.44922-.28906.60156-.41406.15234-.12109.36719-.29688.48047-.38672.4375-.35156.94141-.84766,1.02344-1.00781.12891-.23828.09375-.46484-.14453-1.23047-.32031-1.02344-.625-1.49609-1.23047-1.92188-.28125-.19922-.65625-.46094-.82422-.58203-1.59375-1.16016-2.88281-1.73828-4.51172-2.01563-.41797-.06641-.96875-.17578-1.23438-.24219-.26172-.05469-.58984-.125-.71875-.14453-.26563-.03906-.83984-.39063-.94531-.58203-.07031-.12109.45703-1.17578.9375-1.87109.24609-.37109.32031-.49609.91797-1.64063.43359-.83203.83203-1.46484,1.58594-2.51953.22266-.30469.88672-.96094.98438-.96094.04688,0,.19922-.10547.34375-.23828,1.70313-1.5625,1.91016-1.68359,2.74219-1.625.3125.02344.63281.00781.72266-.03906.10938-.05859.33594-.01953.86328.14844.73438.24219,1.19922.29688,1.28516.15234.02734-.03906.19531-.10938.36328-.16016.50391-.13281,1.11719-.88672,1.23828-1.51953.01563-.09375.09766-.26953.16797-.375.35156-.55078.48047-3.05469.18359-3.64063-.10156-.19141-.57422-.3125-.89453-.21484-.13672.03906-.61719.07031-1.05859.0625-.4375,0-.90234.03125-1.02344.08203-.125.04688-.32031.08594-.4375.08594-.12109,0-.48828.10547-.81641.23438-.32813.125-.81641.30078-1.08203.39063-.71094.23828-1.72656.67969-1.95703.83984-.10547.07031-.24219.13672-.28906.13672-.13672,0-1.00781.39844-1.16797.53516-.07422.0625-.28906.15234-.48047.19141s-.60938.18359-.92969.32813l-.57422.25-.30469-.19922c-.16016-.11328-.42969-.28125-.58984-.37891-.16016-.09375-.32031-.25391-.35547-.35156-.02344-.09375-.14844-.39844-.27734-.66406-.13672-.28906-.23438-.63281-.23438-.81641,0-.56641-.08594-.81641-.32813-.93359-.26953-.14453-.59766-.15234-.70313-.02734l.00003-.00004Z"/>

</g>
</svg>
