<?xml version="1.0" encoding="UTF-8"?>
<svg xmlns="http://www.w3.org/2000/svg"
     version="1.1"
     width="42.84444025mm"
     height="17.92502613mm"
     viewBox="0.00000000 0.00000000 121.44880516 50.81111593">

<g transform="scale(2.33976102)">   <defs>
      <style type="text/css"><![CDATA[
      .b {
        stroke: #000;
        stroke-linecap: round;
        stroke-linejoin: round;
        stroke-width: .01px;
      }
    ]]></style>
   </defs>
   <path class="b"
         d="M24.15917.12324c-4.53516.17578-4.88672.19922-5.03906.35156-.09766.09766-.35156.15234-.92969.19141-.42969.03516-.8125.09766-.84766.14453-.0625.11328-.71875.21094-1.39063.21875-.35156.00781-.50391.03906-.53516.11719-.05469.14453-.54297.28906-.96094.28906-.16797,0-.35938.04688-.42188.11328-.06641.0625-.32031.14453-.57031.17578-.27344.03125-.50391.10156-.55078.17578-.06641.08594-.28906.14453-.64844.17578-.41797.03906-.60156.09375-.72656.22266-.10547.10547-.28125.17578-.42578.17578-.13672,0-.28906.05078-.35156.10547-.0625.0625-.39063.13672-.79297.16797-.53516.03906-.72656.08594-.84766.20703s-.26563.16016-.55859.16016c-.28125,0-.41797.03906-.44922.11328-.04688.12891-.44141.28906-.6875.28906-.08984,0-.20703.04688-.26563.10938-.0625.05859-.25391.12891-.42969.16016-.18359.02344-.32813.08984-.32813.12891,0,.13672-.35156.27344-.65625.24609-.20703-.00781-.34375.03516-.46484.15234-.08984.08984-.21484.16016-.28125.16016-.0625,0-.19141.07422-.27734.16016-.08984.08984-.23438.16016-.32813.16016-.12109,0-.15234.03906-.12109.13672.07813.25781-.23047.50391-.625.50391-.10938,0-.20703.03906-.20703.08203,0,.04688-.09766.125-.21484.18359-.12109.04688-.3125.19922-.42578.32031-.59766.67969-.63281.70313-.80078.61328-.08594-.04688-.16016-.11719-.16016-.16016,0-.15234-.38281-.07813-.58984.12109-.12109.11328-.27344.19922-.33594.19922-.05859,0-.11328.03125-.11328.07422,0,.03906-.07031.10156-.16016.125-.10938.03516-.16016.12109-.16016.27344,0,.19922-.05469.30469-.39844.70313-.11328.13672-.09766.57813.03125.70313.05469.06641.12891.25781.16016.44141.03125.19141.12891.41016.23828.50391.28125.26563.37109.48828.37109.92969,0,.22266.03125.40625.07813.40625.03906,0,.12109.14453.16797.32031.0625.21484.14453.32031.24219.32031.22266,0,.39062.22266.39062.51953,0,.20703.07031.34375.32031.59375.18359.18359.38281.32813.44922.32813.0625,0,.26172.14453.4375.32031.18359.17578.35938.30078.40234.27734.03125-.02344.17578.05859.30859.17578.40234.37109.44141.39453.66406.45703.12109.02344.21875.08984.21875.12891,0,.04688.07031.07813.16016.07813.08594,0,.23047.07422.32031.16016.08594.08984.21484.16016.27734.16016.06641,0,.19141.07422.27344.15234.08594.08984.17578.13672.19922.11328.05469-.06641.52734.13672.52734.22266,0,.03906.19141.07422.43359.07422.25391,0,.48047.03906.54297.10156.05469.06641.30469.13672.54297.16797.24219.03125.52344.11328.61719.17578.09766.06641.32813.10547.51953.09766.70313-.03906,1.25781.01563,1.36719.12891.08984.08594.32813.11719,1.01953.10938.71094-.00781.91797.01563.98828.11328.13672.18359,1.61719.09766,1.81641-.10547.12891-.125.28125-.15234,1.02344-.15234.68359,0,.90625.02734,1,.12109.10547.10547.34766.11328,1.94531.03906,1-.04688,1.91406-.08594,2.02344-.09375.57813-.03906,1.12109.02344,1.24219.15234.10938.10156.29688.125.96875.125.65234,0,.87109.02734.96484.12109.09766.10547.32031.12109,1.25781.11328,1.79297-.02344,7.75-.25781,7.92578-.3125.08984-.02344.20313-.09766.24219-.16016.04688-.0625.28125-.12891.55078-.15234.25781-.01563.51172-.08594.57813-.14453.05469-.0625.32813-.13672.58984-.16797.26563-.03125.48047-.08594.48047-.12891,0-.03906.09766-.11719.20703-.17578.24219-.10156.85547-.70313.89844-.85547.01563-.05469.13672-.22266.27734-.36719.43359-.44922.45703-.49609.45703-.82422,0-.18359.05469-.36719.12891-.44922.18359-.18359.13672-1.39063-.0625-1.58984-.08203-.08203-.14453-.20703-.14453-.29688,0-.08594-.05859-.21484-.12109-.28125-.0625-.07031-.14453-.21484-.17578-.33594-.02344-.11719-.09766-.26172-.16016-.31641-.05469-.05859-.12891-.20313-.16016-.32031-.02344-.12109-.09766-.26563-.16016-.32031-.05469-.05859-.10547-.22656-.10547-.37109,0-.14844-.07031-.34375-.16016-.44531-.19141-.22656-.19922-.34375-.03125-.51172.09766-.09766.16016-.10547.28125-.05078.07813.05078.15234.12109.15234.16016,0,.05078.14453.08203.3125.08203.17578,0,.36719.04688.42188.10156.05859.06641.19922.13672.32031.16016.12109.03516.26563.11328.33594.17578.06641.06641.19141.12109.28125.12109.08594,0,.20703.05078.26172.11328.06641.05469.19531.13672.28906.16016.19922.0625.57813.41406.57813.52734,0,.04688.08594.07813.19922.07813.13672,0,.32031.12109.56641.37891.19922.21484.40234.41406.44141.46484.04688.03906.24609.23828.44141.4375.19922.19922.38281.38281.41406.41797.03125.03125.15234.15234.28125.26172.11719.12109.21484.29688.21484.40234,0,.10938.07031.26953.16016.35938.12891.12891.16016.26172.16016.71094,0,.39063-.03906.59375-.12109.67969-.0625.06641-.12109.19922-.12109.30469,0,.19922-.10938.375-.55859.86328-.15234.16797-.33594.39453-.39844.48828-.06641.09766-.23438.29688-.37891.44922-.14063.15234-.23828.32031-.21484.375.06641.16797-.38281.60938-.71875.69531-.16016.05078-.41797.19922-.57031.34375-.20703.21094-.35938.27344-.69531.3125-.23047.03125-.42969.08984-.44531.13672-.05859.16016-.26563.3125-.37891.27344-.05469-.02734-.18359.03125-.26953.11719-.09766.09766-.22656.16797-.28906.16797s-.19141.07422-.28125.16016c-.08594.08984-.23047.16016-.32031.16016-.08594,0-.16016.03906-.16016.08203,0,.04688-.09375.12891-.21484.18359-.12109.04688-.28906.16016-.35938.23047-.08203.08203-.21484.14453-.29688.14453-.08594,0-.18359.07422-.20703.16016-.02344.08984-.08984.16016-.12891.16016s-.07031.0625-.07031.13672c0,.26172-.13672.36719-.55469.42969-.22266.03516-.46094.12109-.53516.1875-.0625.07031-.16016.125-.19922.125s-.07031.12891-.07031.28125c0,.30469.30078.67969.55859.67969.07813,0,.20703.0625.28906.13672.20703.21484,1.24609.16797,1.46875-.05469.20313-.20313.80859-.22656.99219-.04297.07422.08203.27344.12109.57031.12109.35938,0,.48047-.03125.58984-.16797.12109-.15234.23438-.16797,1.67188-.19922,1.39453-.03125,1.55469-.04688,1.69922-.19141.14844-.15234.39844-.14453.39844.00781,0,.03906.30469.07031.67969.07031.55859,0,.70313-.02344.83203-.15234.12109-.11719.32813-.16016,1-.20703.46484-.03125.84766-.08984.84766-.12109,0-.07813.51172-.23828.78516-.23828.09375,0,.24609-.07422.33594-.16016.08594-.08984.21484-.16016.28125-.16016.0625,0,.19141-.07422.27734-.16016.08984-.08984.26563-.16016.40234-.16016.13281,0,.30859-.07031.39844-.16016s.23047-.16016.32031-.16016c.08594,0,.16016-.03906.16016-.07813,0-.05078.09375-.12891.22266-.1875.12109-.04688.35156-.23047.51172-.39063.16016-.16797.33594-.30469.39453-.30469.14453,0,.47266-.38281.47266-.55859,0-.23047.22266-.39844.51953-.39844.19922,0,.27734-.04297.32031-.16016.02344-.08984.08594-.16016.125-.16016.04297,0,.07422-.06641.07422-.13672,0-.13672.38281-.76172.50391-.80859.03125-.01563.05469-.11328.05469-.21484,0-.10547.05469-.24219.12109-.3125.0625-.06641.12109-.15234.12109-.19922,0-.04297.04688-.12891.10156-.1875.18359-.19141.32031-.57422.44141-1.22266.16797-.95313.20703-1.80859.08594-1.88672-.05469-.03125-.125-.29688-.16016-.59375-.03906-.28516-.11719-.57422-.17578-.64063-.0625-.0625-.14453-.26953-.16797-.47656-.03125-.20313-.08594-.36328-.11719-.36328-.04297,0-.12109-.11719-.17578-.26172-.05859-.13672-.14453-.29688-.19531-.34375-.03906-.05078-.13281-.16797-.19922-.27344-.25391-.36719-.80859-.87891-.96094-.87891-.20703,0-.62109-.41797-.6875-.67969-.02344-.11328-.07813-.19922-.10938-.19922-.04297,0-.09766-.07422-.12109-.16016-.02344-.08984-.12109-.16016-.19922-.16016-.08984,0-.25781-.08984-.37891-.20313-.39063-.34375-.41406-.35938-.57422-.35938-.08984,0-.20703-.04688-.26563-.10156-.05469-.05859-.22266-.15234-.35938-.21094-.14453-.05469-.26172-.13281-.26172-.17578,0-.03906-.07422-.07031-.16016-.07031-.08984,0-.22656-.0625-.3125-.15234-.08203-.07813-.24219-.16797-.35938-.19922-.11328-.02344-.21094-.08984-.21094-.12891,0-.04688-.07031-.07813-.16016-.07813-.08594,0-.23047-.07422-.31641-.16016-.08984-.08984-.23438-.16016-.3125-.16016-.08984,0-.21094-.05859-.27344-.12109s-.27344-.13672-.45703-.16797-.375-.10547-.4375-.16016c-.05859-.0625-.23438-.11328-.39453-.11328-.30469,0-.52734-.16797-.52734-.40625,0-.12109-.05469-.15234-.3125-.15234-.17578,0-.36719-.04688-.42188-.10547-.05859-.05469-.22656-.15234-.35938-.20703-.14453-.05469-.26563-.13672-.26563-.17578s-.07031-.07031-.16016-.07031-.23047-.07422-.3125-.15234c-.08594-.08984-.17578-.13672-.19141-.12109-.0625.0625-.69531-.12891-.69531-.20703,0-.05078-.16016-.08203-.35156-.08203-.19922,0-.41016-.04688-.46484-.10156-.05469-.05859-.22266-.15234-.35938-.21094-.14453-.05469-.26563-.13672-.26563-.17578s-.16016-.07031-.35156-.07031c-.19922,0-.40625-.04688-.46484-.10547-.05469-.05469-.22266-.15234-.35938-.20703-.14453-.05469-.26172-.13672-.26172-.17578s-.14453-.07422-.3125-.07422c-.17578,0-.37109-.04688-.42578-.10156-.05469-.05859-.22266-.15234-.35938-.20703-.14453-.05859-.26563-.13672-.26563-.17578,0-.04297-.07031-.07422-.16016-.07422-.08594,0-.23047-.07031-.31641-.16016-.09766-.09375-.19531-.14453-.23438-.12891-.09375.06641-.64844-.10156-.64844-.19141,0-.04688-.21484-.07813-.47266-.07813-.32813,0-.51953-.04297-.59766-.12891-.10547-.09766-.30469-.12109-1.13672-.09766-.90234.01563-1.01563.00781-1.11328-.125-.09375-.12109-.20703-.14453-.71094-.13672-.43359.00781-.625-.02344-.71094-.11328-.15234-.15234-1.76953-.14453-5.57813.00781ZM24.88183,1.27558c.26953.26563.28516.33594.10938.51172-.15234.16016-.23047.16016-.38281.00781-.07031-.07031-.26563-.12109-.51953-.12109-.64063,0-.85547-.39063-.29688-.55078.50391-.15234.82422-.10156,1.08984.15234ZM27.88964,1.6584c.08594.05859.26953.36328.26953.44922,0,.01563-.05469.09766-.125.16016-.16797.17578-.44922.16016-.67188-.03125-.10547-.08984-.21094-.16016-.24219-.16016-.12891,0-.14453-.24219-.03125-.35938.12891-.12109.64063-.16016.80078-.05859ZM33.60058,2.3498s.03125.125.07031.26953c.05859.19141.05078.28125-.03906.375-.15234.15234-.23047.15234-.38281-.00781-.25-.24609-.05859-.81641.23047-.70313.06641.03125.12109.05469.12109.06641ZM29.5537,2.5959c.08594.12891.18359.13672.75781.09766.55469-.03516.6875-.01953.79297.08594.11328.11328.27344.12891.86328.11328.58594-.02344.75391,0,.85547.10156.07422.06641.11328.17578.08984.24219-.02344.0625-.00781.16016.03906.21484.05469.05469.13672.16016.19141.23438.07422.08594.20703.10938.60156.08594.41406-.02344.49609-.05469.49609-.17578,0-.07813-.07422-.16797-.15234-.19922-.39063-.12109-.18359-.51953.27344-.51953.39844,0,.53516.17578.46875.62891-.04688.34766-.02344.41016.17578.60938.12891.12891.3125.23438.41797.24219.10547,0,.21484.05469.25391.11719.08203.12891.10547.13672.47266.15234.43359.01563.61719.41797.25.52734-.28125.08984-.27344.60156.00781.60156.08594,0,.22266.07031.3125.16016.19141.19141.64063.21484.64063.03906,0-.0625-.07422-.19141-.16016-.28125-.08984-.08594-.16016-.19141-.16016-.23047,0-.09375.23047-.32813.32031-.32813.10156,0,.4375.32813.53516.51953.10938.21875.05469,1.16797-.07422,1.25781-.17578.10156-.45313.07031-.59766-.08203-.09766-.08594-.24219-.125-.43359-.10938-.25391.02344-.34375-.02734-.74219-.41016-.48828-.48047-.48828-.47266-.37109-.70313.09766-.16797,0-.67188-.125-.67188-.17578-.01563-.42578-.13672-.45703-.24219-.03125-.0625-.11328-.08594-.19922-.0625-.08984.01563-.21875-.02344-.29688-.10547-.10547-.10938-.28125-.14844-.70313-.15625-.44141-.01172-.58594-.04297-.66406-.15234-.06641-.08203-.16016-.12109-.23438-.08984-.07031.02344-.19141-.02344-.27734-.11328-.12109-.11719-.27344-.16016-.59375-.16016-.28125,0-.48047-.03906-.55859-.11719-.08203-.08203-.33594-.13672-.74609-.16016-.42969-.02344-.64844-.07422-.71094-.16016-.12109-.16016-.15234-.15234-.38281.07813-.12109.12109-.17578.25781-.15234.34375.03125.14453-.15234.41797-.29688.41797s-.30469-.24219-.26563-.40234c.04297-.13281.00781-.16016-.25391-.16016-.26563,0-.29688.02734-.25781.16016.04297.16016-.11719.40234-.26953.40234-.04297,0-.14453-.07422-.23438-.16016-.125-.12891-.15234-.22266-.10938-.44141.04688-.26953.03906-.27734-.20313-.27734-.31641,0-.39063.17578-.17578.39063.22656.22266.21094.35938-.07031.64844-.36719.375-.52734.23828-.60156-.50391-.02344-.23438-.10156-.44141-.19922-.53516-.12891-.12891-.14453-.20313-.07813-.32031.10156-.20313.30469-.25,1.125-.27344.44141-.00781.67578-.04688.69922-.11328.01563-.05469.07813-.14453.13281-.20703.15234-.14453.89063-.03906,1.03516.15234ZM23.96776,2.68574c.03906.16797.09766.19141.44141.19141.28906,0,.42969-.04297.55078-.16016.09766-.09766.26563-.16016.44141-.16016.26953,0,.59766.21484.59766.39844,0,.03906.07422.15234.16016.24219.09766.09375.13672.20703.10547.28516-.03125.08203.00781.17578.08594.24219.21094.15234.30469.64844.15234.79297-.25391.25391-.88672.04688-.76563-.25.02344-.07031,0-.16016-.06641-.19141-.16016-.10547-.23828-.00781-.15234.16016.10547.19922-.09375.39844-.39844.39844-.26563,0-.48047-.18359-.48047-.40625,0-.16016-.07813-.18359-.375-.10547-.10547.03125-.18359.11328-.18359.19141,0,.15234-.19922.40234-.32031.40234-.03906,0-.12891-.06641-.20703-.14453-.21875-.21484-.97656-.19141-1.21094.03906-.22266.22266-.45313.23438-.66406.02344-.19922-.19922-.29297-.19922-.39844-.00781-.03906.08984-.14453.17578-.23047.20703-.16016.05078-.57031-.10156-.57031-.21484,0-.03125-.05469-.0625-.11719-.0625-.06641,0-.12109.03125-.12109.07031,0,.13672-.45703.24219-1.28125.27344-.45703.02344-.84766.07031-.85547.11328-.08984.24609-.19141.28516-.61719.26953-.35156-.01563-.47266.01563-.60547.15234-.12109.12109-.26563.16016-.5625.16016-.21484,0-.39844.03125-.39844.07031,0,.04297-.02344.1875-.05469.32813l-.05078.26563.81641-.05469c.625-.05078.85547-.09766.96094-.20313.12109-.11719.375-.14844,1.69531-.20703.85547-.03125,1.71094-.05469,1.90234-.04688.19531.00781.85938-.02344,1.46484-.0625,1.08203-.08203,1.50391-.03516,1.50391.16016,0,.03906.64063.04688,1.43359.02344,1.22266-.03516,1.44922-.02344,1.55078.08594.08984.08203.28125.12109.64844.12109.42578,0,.55859.03125.6875.16016.09766.09375.19141.14453.23438.12891.10156-.06641.64844.10938.64844.20703,0,.05469.23828.07031.76563.04688.67969-.03906.79297-.02344.92188.10547.08594.08594.26172.15234.39063.15234.13672,0,.30469.0625.38281.14453.07422.07031.19922.125.27344.10938.07031-.01563.17578.03125.23828.10547.05859.07031.15234.17578.21875.24609.05469.06641.13281.25.16797.40234.05469.23828.03125.3125-.16797.53516-.22656.24609-.26563.25391-1.05859.30469-.44531.03125-1.125.05469-1.51172.0625-.58984.00781-.72656.03125-.86328.16797-.19141.19141-.27344.19922-.43359.03906-.14844-.14844-.17578-.14844-.36719.04297-.20703.20703-.4375.19922-.64844-.00781-.14063-.14453-.23047-.16016-.77344-.12891-.33594.02344-.92969.03906-1.3125.04688-.57813,0-.71875.02344-.84766.15234s-.32813.16016-1.13672.20703c-.65625.04297-1.01563.09766-1.08984.16797-.10938.10547-.33594.14453-1.51172.24219-.30078.02344-.57422.07813-.59766.12891-.07422.10156-.54688.23047-.85547.23047-.14453,0-.26563.03125-.26563.07031,0,.13672-.50391.23438-1.48047.28906-.52734.03125-.98438.08984-1.00781.13672-.07813.12891-.73438.21484-1.6875.21484-.65625.00781-.87891-.01563-.97656-.11328-.13672-.13281-.28906-.15625-.28906-.03906,0,.03906-.07031.11328-.16016.16016-.11719.06641-.18359.05859-.29297-.05469-.12109-.12109-.28125-.14453-.97656-.13672s-.85547-.01563-.97656-.13672c-.07031-.07031-.16016-.11719-.18359-.09375-.07422.07813-.84766-.07422-.96875-.18359-.05469-.06641-.23047-.11328-.39063-.11328-.15234,0-.32813-.05469-.40234-.12109-.0625-.0625-.20703-.12109-.32031-.12109-.23047,0-.60547-.14844-.60547-.25391,0-.03125-.19141-.0625-.43359-.0625-.41406,0-.6875-.12891-.6875-.32813,0-.16797.79297-.875.98438-.875.12109,0,.32031-.11719.51172-.30078.30469-.29688.34375-.3125,1.01563-.37109.44141-.03125.74609-.09375.81641-.16797.0625-.0625.24609-.13672.40625-.16797s.34375-.10938.42578-.19141c.10547-.10156.35156-.14453,1.07813-.19141.60156-.03125.97656-.09766,1.05078-.16016.05469-.05469.24609-.12891.42188-.16016.21875-.03125.32813-.08594.32813-.16797,0-.0625-.03125-.12109-.07031-.12109s-.10547-.07031-.12891-.16016c-.03906-.13281-.12109-.16016-.56641-.16016-.39453,0-.54688.03516-.65625.14453-.08984.08984-.32031.16797-.5625.19922-.25391.03516-.47266.11328-.56641.21094-.12891.125-.27344.16797-.60938.16797-.23828,0-.4375.03125-.4375.07813,0,.08203-.50391.24219-.77734.24219-.10547,0-.25781.07031-.34375.16016-.08984.08594-.21484.16016-.28125.16016-.0625,0-.19141.07031-.27734.16016-.12891.125-.26563.15625-.75391.15625-.43359,0-.63281-.03125-.71875-.11719-.16797-.16797-.07422-.35938.19922-.41797.12891-.02344.23047-.07031.23047-.10938,0-.12109.46484-.3125.76172-.3125.16016,0,.34375-.05078.39844-.11328.06641-.0625.30469-.13672.52734-.16797.29688-.03906.46484-.12109.63281-.28906.12109-.125.32813-.26953.47266-.32031.28125-.09375.32813-.26953.09766-.35156-.27344-.08594-.26563-.27734.03125-.56641.16016-.15234.3125-.27344.35156-.27344.16797,0,.32813.27344.32813.53516v.28906l.58984-.04688c.5625-.03906.61719-.0625.88281-.34375l.28516-.30469h.73047c.53516-.00781.75-.03906.77344-.11328.01953-.0625.13672-.21484.26563-.34375.19141-.19141.26563-.22266.38281-.15234.08984.04297.16797.12109.18359.17578.03516.08203.08203.08203.24219.00781.11328-.04688.28125-.07031.375-.04688.21484.05859.21484-.08594.00781-.29688-.19141-.19141-.19922-.26953-.03906-.42969s.32031-.08984.44141.19141c.125.30469.32031.33594,1.45313.24609.64063-.04688.97656-.10156,1.05859-.18359.0625-.07031.26172-.14453.4375-.17578.27344-.03906.32813-.07813.32813-.23047,0-.17578.19141-.51953.35156-.63281s.83203-.07031.96094.06641c.13672.125.06641.38281-.12891.44531-.05469.02344-.07031.09766-.03906.17578.05859.13672.12891.14453.82422.08984.81641-.05859,1.07422-.18359,1.07422-.51953,0-.21875.4375-.64844.59766-.59375.06641.03125.14453.13672.16797.24219ZM12.24901,2.98652c.28125.06641.34375.25781.15234.44922-.32813.32813-.98438.10547-.78516-.26563.10547-.20703.21484-.28516.33594-.25391.04688.01563.18359.04688.29688.07031ZM35.95214,3.32246c.04688.12891-.15234.35156-.3125.35156-.12109,0-.35938-.21484-.35938-.31641,0-.04297.05469-.12109.12109-.19531.09375-.09375.16797-.10156.32031-.03125.10156.05078.20703.13672.23047.19141ZM11.47167,3.48261c.10547.26563-.22266.57031-.50391.47266-.32813-.10156-.28906-.46484.05469-.58203.25-.08203.38672-.05078.44922.10938ZM38.03417,3.4748c.0625.07422.10156.17578.07813.24219-.09766.23047-.52734.23047-.625,0-.04688-.12891.15234-.35938.3125-.35938.05469,0,.16016.05469.23438.11719ZM10.03417,4.19746c.05469.15234-.16016.36719-.3125.30859-.16797-.0625-.21094-.25391-.07422-.38281.12891-.13672.32031-.09375.38672.07422ZM29.83886,4.23652c.06641.03906.11328.16797.12109.29688,0,.25391.00781.26172.44922.26172.3125,0,.32813-.00781.28906-.20703-.07422-.39844.42969-.58594.74219-.27344.12109.12109.26563.16016.59375.16016.25391,0,.47656.04297.54297.10547.05469.0625.19922.13672.32031.16016.24609.0625.40625.29688.3125.44922-.07422.10156-.37891.13281-1.86719.14844-.75781.01953-.85547.03516-.90234.16797-.11328.35547-.42578.25781-.51172-.14844-.03906-.21094-.09766-.27344-.24219-.28125-.09375-.00781-.21484-.0625-.25391-.12891-.11328-.17578-.08203-.52734.05469-.66406.14453-.14453.18359-.15234.35156-.04688ZM41.47167,4.83418c.06641.07422.10547.17969.08203.24219-.09766.23047-.53125.23047-.625,0-.04688-.12891.15234-.35938.3125-.35938.05469,0,.16016.05469.23047.11719ZM34.59276,5.07636c.0625.0625.15234.12109.19922.12109.03906,0,.17578.08594.29688.19922.12109.10938.23828.19922.27344.19922.14063,0,.14063.25781,0,.39844-.19531.19531-.27344.20313-.43359.03516-.07422-.07422-.24219-.12109-.39063-.11328-.40234.02344-.43359.01563-.67188-.19922-.12109-.11328-.26563-.23438-.32031-.28125-.15234-.12891-.03516-.3125.24609-.39063.38281-.11328.66406-.10547.80078.03125ZM39.15136,5.7248c.12109.12109.14453.16797.16016.42188.00781.06641.12109.14453.25781.18359.42969.11328.41406.41016-.02344.53906-.30469.08594-.45703,0-.46484-.28906-.01563-.20703-.04688-.22266-.39453-.27344-.61328-.0625-.71094-.46094-.15625-.63281.35156-.10156.48438-.09375.62109.05078ZM8.09667,6.01386c.08594.14063.07813.19922-.0625.33594-.24219.23828-.75391.07813-.75391-.23438,0-.22266.22266-.35156.49609-.26953.13672.03906.28125.10938.32031.16797ZM43.63183,6.92402c.17578.16797.16016.23047-.11328.51172-.26172.27344-.33594.28906-.51172.11328-.26953-.27344-.07031-.75391.3125-.75391.10547,0,.25.05859.3125.12891ZM39.44042,7.18965c.17578.16797.39844.32813.50391.35938.42578.10156.26563.52734-.19141.52734-.16797,0-.32813-.09766-.59375-.36719-.19922-.20313-.35938-.41016-.35938-.47266,0-.10547.20703-.35938.28906-.35938.02344,0,.17578.13672.35156.3125ZM41.29589,7.37324c.02344.0625.15234.08594.35938.07813.21094-.01563.36719.01563.44922.09766.07031.07031.16797.125.21484.125.05078,0,.23438.14453.41016.32031.26953.27344.36719.32031.65625.32031.23828,0,.38281-.04688.48047-.16016.15625-.19141.31641-.19922.48438-.03906.13672.13672.28906.16016.28906.03906,0-.03906.10547-.125.24219-.19922.22266-.10938.24609-.10938.39844.03906.08984.08984.16016.19531.16016.23438,0,.10938-.23047.32813-.35156.32813-.06641,0-.12891.10938-.16016.23828-.03125.18359-.12109.28125-.3125.35938-.23828.09766-.26563.13672-.23047.35156.01563.13672.0625.25.09375.25s.09766.08984.14453.19922c.07422.15234.0625.21484-.03125.32031-.15234.15234-.46484.16016-.60938.01563-.05469-.0625-.19922-.13672-.32031-.16016-.22266-.05469-.62109-.39844-.62109-.53516,0-.04688-.26563-.07813-.59375-.07813-.63281,0-.84766-.10547-.84766-.40234,0-.10156-.03906-.13672-.12109-.11328-.07031.03516-.23828-.07813-.4375-.26953-.36328-.36719-.35547-.5625.01563-.63281.17578-.03125.22266-.08594.20703-.20703-.01563-.10547-.08984-.16797-.20703-.17578-.17578-.01563-.32813-.15234-.33594-.29688,0-.03125.05469-.11328.125-.17578.13672-.13672.38672-.0625.44922.12891ZM7.5537,7.55683c.22266.23047-.07422.51172-.42578.39844-.32813-.10156-.20703-.51953.15234-.51953.08203,0,.19922.05469.27344.12109ZM4.37011,7.89277c.07813.3125.31641.50391.6875.54297.375.03906.48828.16016.36719.39063-.12891.25-.22266.28906-.59375.23438-.26953-.03125-.36719-.00781-.50391.12891-.08594.08594-.21484.14063-.28516.11719-.14453-.05469-.17578-.19141-.23438-.96875-.03906-.45313-.02344-.59766.08203-.69531.16016-.16797.40625-.03906.48047.25ZM32.59276,10.11543c.11328.11328.23047.30469.26172.42578.02734.11719.09766.26172.15234.32031.18359.17578.25781.61328.20313,1.16797-.07422.66406-.25.82422-.67188.59766-.25-.13672-.28906-.22266-.21875-.46484.03125-.11719.04297-.39844.01563-.62891l-.03906-.41797h-.30469c-.34375,0-.55078-.16797-.55078-.44141,0-.20703.19141-.4375.36719-.4375.06641,0,.18359-.07422.27344-.16016.20703-.20703.26953-.19922.51172.03906ZM42.9912,10.35761c.05859.14844-.16016.36719-.3125.30859-.16797-.0625-.20703-.25391-.07031-.38281.12891-.13672.32031-.09375.38281.07422ZM30.27245,10.36543c.07031.0625.12891.16016.12891.20703,0,.03906.05469.0625.11719.03125.12891-.04688.44141.20703.44141.35156,0,.03906-.12891.20703-.28906.36719-.21484.22656-.27734.35156-.26172.54688.02344.42188,0,.58984-.13672.71875-.25781.25781-.67188.0625-.67188-.30469,0-.17578-.02344-.18359-.36719-.14453-.27344.02344-.43359.10547-.64063.30469-.3125.30469-.36719.32031-.54297.14453-.10547-.10547-.23438-.11328-.64844-.07031-.28906.03125-.51953.08594-.51953.11719,0,.15234-.54688.24219-1.70703.27344-.97266.03125-1.27734.0625-1.375.16016-.0625.0625-.19141.13672-.28125.16797-.16797.05469-.47656-.08203-.47656-.19922,0-.10547-.49609,0-.625.13281-.14453.13672-.29688.13672-.44922-.01563-.16797-.16797-.49609-.15234-.6875.04297-.14453.14063-.26563.16016-1.03125.16016-.69531,0-.90625-.02734-1.00781-.12891-.10547-.11328-.27344-.12109-1.18359-.08203-.58594.03516-1.72266.07422-2.52734.08984-.81641.01563-1.69141.05469-1.95313.08594-.41016.05078-.46484.07422-.43359.21094.07422.26172-.15234.38281-.70313.38281-.35938,0-.54297-.03906-.64063-.12891-.10156-.11328-.23047-.12109-.71094-.07813-.80078.07031-1.27344-.15234-.96875-.46484.12109-.11328.87891-.21484,1.39844-.19141.15234.00781.44922.00781.66406,0,.32813-.01563.37891-.03906.37891-.18359,0-.13672-.04297-.16016-.16797-.12891-.10547.03125-.22656-.01563-.32813-.12109-.13672-.13672-.25-.15234-.92969-.14453-1.23828.02344-1.4375.00781-1.56641-.11719-.06641-.06641-.20703-.12109-.32031-.12109s-.29688-.08984-.41016-.19922c-.23828-.25-.23047-.23438-.07031-.40234.15234-.14453.08594-.375-.08203-.3125-.0625.02734-.19141-.03125-.28516-.125-.21875-.21875-.44922-.16016-.32031.07031.05469.12109.04688.18359-.04688.28125-.20313.20703-.27344.18359-.81641-.27344-.14453-.12891.01563-.38281.27734-.44922.11328-.03125.27344-.11719.35156-.19922.1875-.18359.26563-.19141.44141-.01563.07422.07422.20703.14453.29688.14453.08594.00781.20703.07813.26172.16016.06641.07813.1875.15234.28125.16016.16797.01563.3125.16016.3125.33594,0,.05469.07813.18359.18359.28125.18359.18359.22266.18359,1.30469.16016.95313-.03516,1.14453-.01953,1.24609.09375.15234.15234.53125.16797,2.29688.13672,1.11328-.02344,1.25-.00781,1.34375.12109.08203.10156.14453.11719.28125.0625.10547-.03906.39844-.05469.66406-.03125.26172.02344,1.02344.01563,1.67969-.00781,1.20703-.05859,2.39063-.10547,5.03906-.19922,1.12109-.05078,1.45703-.08203,1.52734-.17578.05078-.06641.26563-.14453.49609-.1875.23438-.03125.47266-.125.57031-.22266.20703-.20703.4375-.21484.64844-.00781.08594.08984.24609.16016.35938.16016.10938,0,.26953-.07031.35938-.16016.08984-.08594.26563-.16016.39844-.16016.13672,0,.3125-.07031.40234-.16016.08594-.08594.21484-.16016.27734-.16016.06641,0,.19531-.07031.28125-.16016.19141-.19141.27344-.19922.43359-.03906.0625.0625.13672.12109.16797.12109.03906,0,.23047-.20313.51953-.54688.11328-.125.19922-.11719.35156.03516ZM46.91308,11.08418c.05469.14453-.01563.32813-.15234.38281-.11328.03906-.35938-.14453-.35938-.26953,0-.04297.05469-.12109.11719-.19531.13672-.13281.32031-.09375.39453.08203ZM6.38573,11.31465c.17578.37891-.11328.63281-.38672.35938-.19141-.19141-.19922-.34375-.03906-.51172.16016-.14844.3125-.09375.42578.15234ZM45.2412,11.40449c.10938.12109.10938.14453,0,.30469-.06641.08594-.16016.24609-.21875.34375-.04688.10156-.11719.18359-.15625.18359-.03516,0-.06641.10156-.06641.23047,0,.33594-.19141.50391-.4375.39453-.20313-.08984-.23438-.14453-.21094-.40234.01563-.14453,0-.16797-.35156-.56641-.19922-.22656-.19922-.41016.00781-.48828.13672-.04688.35156.02344.35156.12109,0,.03906.07422.07031.16016.07031.08984,0,.16016-.03125.16016-.0625,0-.08984.3125-.24219.49609-.25.07422-.00781.19141.04688.26563.12109ZM47.3037,12.89277c.03125.09375-.07031.375-.17578.46484-.02344.02344-.12891.20703-.22266.41406-.21875.45703-.43359.60156-.61719.41797-.16797-.16016-.16016-.24219.03125-.43359.09766-.09766.14453-.19922.12109-.23828-.04688-.08203.07031-.35547.23047-.53906.05078-.05469.13672-.15234.19531-.22266.10938-.13672.36719-.05469.4375.13672ZM9.5537,12.88496c.45313.20703.27734.50391-.34375.58203-.45703.05859-1.00781-.05469-1.07422-.22266-.08594-.21484.09766-.32813.64063-.375.29688-.02344.55078-.05859.55859-.05859.00781-.00781.10547.02344.21875.07422ZM5.31151,13.15449c.24219.24219-.10938.53125-.49609.41016-.35938-.11328-.20703-.52734.18359-.52734.10547,0,.24219.05469.3125.11719ZM30.67089,13.1623c.23438.22656.14453.54688-.19922.72266-.20703.10156-.23828.10156-.39063-.05078-.20703-.20703-.20703-.26172.08594-.55078.28125-.28125.33594-.29688.50391-.12109ZM7.10448,13.33808c.17578.12109.26563.5625.12891.69922-.16016.16016-.24219.15234-.43359-.04297-.12109-.11719-.26172-.16016-.55078-.16016-.25781,0-.44141-.04688-.51953-.125-.07422-.06641-.12891-.13672-.12891-.15234s.05469-.08984.12891-.15234c.13672-.13672,1.18359-.18359,1.375-.06641ZM27.99901,13.91621c.08984.16016-.07813.39844-.27734.39844-.20313,0-.37109-.23828-.28125-.39844.14453-.26563.41406-.26563.55859,0ZM17.93651,14.12324c.19141.05859.23828.25.09766.39453-.16797.15625-.78516.15625-.94531-.01172-.16016-.15625-.16016-.23047.00781-.39063.12109-.12891.38281-.12891.83984.00781ZM27.23339,14.20527c.10938.28516-.22656.50391-.625.39844-.39063-.09766-.3125-.42188.12109-.51953.32031-.07031.4375-.03906.50391.12109ZM46.1123,14.44355c.16797.16016.16016.30469-.00781.48047-.08203.07031-.14453.19141-.15234.25781-.02344.14844-.18359.25391-.32031.19922-.17578-.06641-.19141-.26563-.03125-.40234.11328-.09375.12891-.16797.07031-.26953-.04688-.10547-.03125-.17578.05859-.26563.15234-.16016.23047-.16016.38281,0ZM25.47167,14.51777c.24219.24609-.04688.51953-.54297.51953-.52734,0-.66406-.41016-.17578-.55469.375-.10938.58203-.10156.71875.03516ZM44.75292,15.08418c.07031.0625.12891.17578.12891.23828,0,.06641.07031.18359.16016.27344l.16016.16016-.16016.32813c-.09766.17578-.21875.33594-.28125.36719-.12109.03906-.16797.34375-.05469.34375.03125,0,.11719-.07031.19922-.16016.09375-.10938.23047-.16016.46484-.16016.21484,0,.36719-.04688.42969-.125.04688-.07422.27344-.16016.48828-.19531.21484-.03906.44922-.08594.51953-.11719.12891-.05078.39453.14453.39453.28516,0,.04297-.08984.16797-.20313.28906-.10938.12891-.26172.29688-.33594.39063-.19141.22656-.44531.35547-.69531.35547-.16797,0-.20703.03906-.20703.19141,0,.23047-.19141.44531-.39844.44531-.21094,0-.40234-.21484-.40234-.44531,0-.16016-.03906-.19141-.23828-.19141-.12891,0-.30469.0625-.39453.14844-.09375.09766-.32031.16016-.71094.20313-.35938.03906-.57422.09375-.60938.16797-.0625.16797-.55078.26953-1.08594.22266-.3125-.03125-.48047-.01563-.48047.03906,0,.05078-.05469.13672-.12109.21094-.10156.09375-.16797.10156-.32031.03125-.10938-.05078-.19922-.12109-.19922-.16016,0-.11328-.15234-.07422-.32031.09375-.12891.12891-.26172.16016-.75.16016-.43359,0-.63281-.03125-.72266-.125-.17578-.16797-.16016-.22656.12109-.50391.28125-.28125.33594-.29688.50391-.12891.12891.13672.60938.16797.60938.03906,0-.16016.35156-.25,1.07813-.27344.57031-.01563.77734-.05469.88281-.15234.07031-.07813.21484-.13281.32813-.13281.10156,0,.19141-.03516.19141-.08203,0-.03906.125-.20703.27734-.36719.23438-.23047.32031-.28125.48828-.24219.16016.04297.25.01172.39453-.14063.10156-.11328.20703-.28125.23828-.37109.02344-.08594.08984-.16016.12891-.16016.11328,0,.08594-.16016-.04688-.28516-.06641-.07422-.12109-.17578-.12109-.23438,0-.16016.22266-.35938.39844-.35938.08203,0,.20703.05859.27344.12891ZM44.51073,18.20527c.05078.11719-.20703.42969-.34375.42969-.13281,0-.32031-.23828-.27734-.35156.04688-.13672.35938-.28125.48828-.23047.04688.02344.10938.08594.13281.15234ZM43.5537,18.76386c.15234.14453.07031.35156-.25.64844-.23047.21484-.21484.21484-.375.05469-.18359-.17578-.16016-.23828.15234-.55078.32031-.32031.3125-.32031.47266-.15234ZM37.76073,18.87715c0,.03906.0625.125.13672.20703.125.12891.27734.92969.20703,1.12109-.05469.16797-.41797.27734-.59375.19141-.07813-.04688-.14844-.09766-.16016-.10547,0-.00781-.02344-.30469-.04688-.66406-.03125-.52734-.01563-.67188.08984-.77344.125-.12891.36719-.10547.36719.02344ZM39.47167,19.56465c.07422.0625.12891.15234.12891.19141,0,.08984-.23047.32031-.32031.32031s-.32031-.23047-.32031-.32031.23047-.32031.32031-.32031c.03906,0,.12891.05469.19141.12891Z"/>
   <path class="b"
         d="M25.20214,3.5959c0,.08984.05469.16016.11719.16016.06641,0,.12109-.07031.12109-.16016s-.05469-.16016-.12109-.16016c-.0625,0-.11719.07031-.11719.16016Z"/>
   <path class="b"
         d="M14.79979,6.07636c0,.12891.05469.16016.24219.16016.33594,0,.33594-.27344,0-.29688-.19531-.01563-.24219.01563-.24219.13672Z"/>
   <path class="b"
         d="M42.3037,8.37324c-.19922.04688-.18359.26172.01563.26172.10547,0,.16016-.05469.16016-.16016,0-.08594-.00781-.15234-.01563-.15234-.01563.00781-.08594.02734-.16016.05078Z"/>
   <path class="b"
         d="M43.83886,9.0373c0,.08594.05078.16016.10547.16016.15234,0,.21484-.08203.16016-.21094-.0625-.16797-.26563-.13281-.26563.05078Z"/>

</g>
</svg>
