<?xml version="1.0" encoding="UTF-8"?>
<svg xmlns="http://www.w3.org/2000/svg"
     version="1.1"
     width="60.94985794mm"
     height="19.16930072mm"
     viewBox="0.00000000 0.00000000 172.77128619 54.33819431">

<g transform="scale(3.90319653)">   <defs>
      <style type="text/css"><![CDATA[
      .b {
        stroke: #000;
        stroke-linecap: round;
        stroke-linejoin: round;
        stroke-width: .01px;
      }
    ]]></style>
   </defs>
   <path class="b"
         d="M38.73608.07531c-.02344.03125-.87891.06641-1.88672.07422-1.73438.01563-2.60938.09375-3.16016.28516-.35156.12109-.96094.21875-1.64844.26563-.33594.01563-1.07813.12109-1.64063.23047-1.00781.18359-2.98438.37891-3.87109.37891-.91016,0-1.09766.00781-1.83984.07813-.41797.03906-1.60938.08984-2.64063.11328s-2.3125.10156-2.83984.16797c-.52734.0625-1.49609.15234-2.16016.19922-.65625.03906-1.63281.12891-2.16016.19141-.54297.06641-1.23047.09766-1.58984.07422-.34375-.02734-1.01563,0-1.48047.05469s-.92969.08594-1.02344.07813c-.70703-.0625-2.37891.03516-2.69922.14453-.09375.03906-.30078.05078-.46875.02344-.37891-.03906-.65625.12891-.83984.52344-.15234.31641-.52344.51172-1.67188.87109-1.11328.34375-1.83203.73438-2.39453,1.32031-.80078.82422-1.4375,1.61328-1.49609,1.83984-.03125.10938-.23047.47266-.45703.79688-.39844.59375-.69531,1.28125-.59766,1.42578.02344.04688-.00781.18359-.07422.3125-.07031.13672-.08594.27344-.04687.33594.03906.0625.03906.16797-.00781.24609-.08594.16797-.00781.76172.13672,1.05078.0625.11719.11328.27734.11328.35938,0,.07813.125.3125.26953.51172.22656.30469.41797.44141,1.06641.75.42969.21094,1.05469.5625,1.38281.77734.55078.35937.63281.39062.9375.34375.61328-.08594,1.31641-.42969,1.6875-.80859.19141-.19922.56641-.48047.83984-.62891.57422-.32031,1.03906-.73828,1.71875-1.52344.45703-.53516.97656-1.49609.97656-1.80469,0-.16797.12109-.71484.28906-1.32031.0625-.22656.10938-.50391.10938-.61719,0-.3125.23438-.83984.38672-.88672.07813-.02734.62109-.08203,1.21484-.12891,1.64063-.12891,2.45703-.22266,3.12109-.35156.32813-.06641,1.16797-.15234,1.86328-.19922.88672-.06641,1.32031-.12109,1.4375-.21094.20313-.14453.59375-.15234.91406-.03125.21484.08203,1.42188.09766,2.0625.02344.17578-.01563.67969-.0625,1.12109-.10156,1.46484-.12891,2.55078-.25,3.30469-.37891.40625-.0625.76562-.10156.80859-.07813.03906.02344.24609.00781.45313-.03906.21875-.05078.51953-.09766.67188-.11328.15234-.00781.57031-.0625.92188-.11328.35156-.04688,1.16016-.10156,1.80078-.125,1.34375-.04297,2.21484-.09766,2.71875-.16797.64844-.08984,3.0625-.19531,4.12109-.17969,1.02344.01953,1.28516.01172,1.67969-.03906.60547-.07031,1.87891-.03906,2.32813.06641.09375.02344.36719-.02734.59766-.09766.24219-.07031.67188-.13672.96875-.13672.67188-.00781.89063-.16016,1.15234-.80859.10547-.26172.24219-.51953.3125-.56641.14453-.10547.60156-1.10547.60156-1.3125,0-.08594.03906-.23828.08594-.34375.07422-.16016.05469-.25781-.08594-.53516l-.17578-.33594-.41016.05469c-.51953.08203-4.26172.08984-4.54297.01563-.11328-.03125-.23438-.03125-.26563,0ZM6.40014,5.18859c.10547.10547.12891.34375.12109,1.44141,0,1.22266-.01563,1.32813-.17578,1.52734-.44922.56641-.55859.80078-.69531,1.4375-.08203.37109-.17578.71484-.21875.75391-.03906.03906-.42188.22266-.84766.39063-.75.3125-.80859.32031-1.67969.32031-1.35938-.00781-1.80078-.25391-1.6875-.97656.06641-.39844.18359-.65625.59375-1.26172.16016-.24219.33594-.5625.39844-.70703.22266-.56641,1.76172-2.07031,2.39844-2.35156.20313-.07813.50781-.22266.68359-.30078.17578-.08203.46094-.20313.63672-.26563s.32813-.12109.33594-.12891.07422.04688.13672.12109Z"/>

</g>
</svg>
