<?xml version="1.0" encoding="UTF-8"?>
<svg xmlns="http://www.w3.org/2000/svg"
     version="1.1"
     width="17.67264981mm"
     height="52.65459872mm"
     viewBox="0.00000000 0.00000000 50.09567125 149.25714520">

<g transform="scale(3.87780914)">   <defs>
      <style type="text/css"><![CDATA[
      .b {
        stroke: #000;
        stroke-miterlimit: 10;
        stroke-width: .15px;
      }
    ]]></style>
   </defs>
   <path class="b"
         d="M1.78815,2.41424c-.29028.10498-.50366.16895-.80859.34033-.26489.14868-.55225.3103-.72339.55322-.27979.39722-.18774.92603-.04248,1.48926.27686,1.07324.62134,1.78394,1.06372,2.76611.74683,1.65845.89014,2.1311.97876,2.46802.12354.46924.19824.89282.29785,1.74463.14233,1.21826.28101,2.40283.29785,4.25537.00928,1.02539-.021,1.96802-.17017,4.12769-.21313,3.08643-.33496,4.85181-.63843,7.31909-.07861.63867-.54004,4.38989-.76587,5.91479-.03491.2356-.08008.62524-.17017,1.4043-.11426.98755-.1123,1.06812-.08521,1.19165.16675.76025.85913,1.20728,1.36182,1.53174.50317.32471.85889.55444,1.27661.46826.27563-.05688.54272-.24365,1.02124-1.02148.70337-1.14355,1.00122-2.16309,1.06372-2.38281.26831-.94336.38501-1.6897.51074-2.5957.29053-2.09326.42554-3.53198.42554-3.53198.36255-3.86206.45679-3.5625.63818-5.91504.07129-.92358.00732-.32983.21289-5.48926.13989-3.51074.22339-5.1394-.34058-6.72339-.09961-.27979-.27246-.70679-.42798-1.37305-.36597-1.56665-.05127-1.94751-.38037-2.9248-.25732-.76392-.44263-.51074-1.54419-2.19043-.8916-1.35938-1.07104-1.98413-1.60474-2.02246-.30591-.02197-.29492.17969-1.44678.59595Z"/>
   <path class="b"
         d="M9.4903,35.52044c-.09155.396-.76099.31836-1.57446.8938-.63843.45166-.55811.73438-1.19165,1.23389-.08301.06543-.95312.7395-1.74463.76611-2.0918.07056-3.94604-4.36865-3.23413-5.02148.21924-.20117.55664.07178,1.4895-.08496.74658-.12549.91064-.36426,1.43091-.51221,1.77222-.50415,3.59888,1.20508,4.31372,1.87378.35522.33228.5686.60059.51074.85107Z"/>
   <path class="b"
         d="M6.0008.11614c-.65063-.15161-1.24976.15405-1.53198.2981-.5647.28809-.88989.67383-1.1062.93604-.40161.48657-.86865,1.052-.80859,1.65967.03906.396.28979.6875,1.53198,1.57446,1.10547.78955,1.84253,1.3103,3.19141,2,2.08057,1.06372,2.49268.93213,2.69189.81689.50757-.2937.65088-1.06885,1.05273-1.02979.177.01733.19263.17163.55322.34058.20972.09814.52197.24438.76611.12744.20923-.10034.26953-.34644.38281-.80835.09961-.40674.16162-.65967.08521-.93628-.12427-.44946-.54004-.69678-.72339-.80835-1.48022-.90015-3.95654-2.40649-5.16406-3.60596-.14282-.14185-.44238-.45288-.92114-.56445Z"/>
   <path class="b"
         d="M8.21491,19.49114c.21558-.1333.43677-.44824.50928-2.22607.03955-.96826-.0022-1.45825-.08496-1.91479-.10522-.58057-.19531-1.07812-.46826-1.14893-.26758-.06934-.56494.30957-1.1062.97876-.49512.61206-1.15649,1.31421-1.57446,1.91479-1.96509,2.82349-3.43237,4.55786-3.57446,6.12769-.01758.19482-.02563.50708,0,.85107.021.2793.12988,1.73511.57104,1.84302.21924.05347.53174-.22241,1.5564-2.01318.86646-1.51416,2.23608-4.10083,3.02271-4.11768.05981-.00122.33374.00757.67944-.09521.21924-.06519.39624-.1543.46948-.19946Z"/>

</g>
</svg>
