<?xml version="1.0" encoding="UTF-8"?>
<svg xmlns="http://www.w3.org/2000/svg"
     version="1.1"
     width="44.37573710mm"
     height="62.08625788mm"
     viewBox="0.00000000 0.00000000 125.78952240 175.99252780">

<g transform="scale(3.76363151)">   <defs>
      <style type="text/css"><![CDATA[
      .b {
        stroke: #000;
        stroke-linecap: round;
        stroke-linejoin: round;
        stroke-width: .25px;
      }
    ]]></style>
   </defs>
   <path class="b"
         d="M.14635,2.16386c-.16877.8842.7074,1.54852,1.06145,2.37613,1.0083,2.35698,3.10341,4.10598,4.46314,5.65246,2.36312,2.68768,4.34377,4.56614,5.7664,7.85006.54069,1.24809-.58149.48457,1.4372,3.68632.08415.13347.29678,1.00194.30699,1.1594.05018.77399,2.21838-.55724,2.40646-.62994,1.02089-.39463,1.07944-.62297,2.10033-1.0176.03194-1.46051-1.29906-3.24323-1.71427-4.64385-.41632-1.40436-.83263-2.80872-1.24895-4.21308-.25232-.85114-.50773-1.70981-.93516-2.48789-.44852-.81648-1.07314-1.52014-1.69231-2.21615-1.91128-2.14849-3.81626-4.30277-5.73392-6.44556C5.41701.17631,5.22408-.1536,3.84958.36895,2.57606.85312,1.33936,1.51019.14635,2.16386Z"/>
   <path class="b"
         d="M21.09629,10.87045c-.47416.40045-.96072.84944-1.11993,1.4493s.17531,1.36831.79246,1.434c.38157.04061.73483-.18562,1.05171-.40204,3.57175-2.43942,7.1435-4.87884,10.71525-7.31826.3346-.22852.69947-.50401.75384-.90541.22797-1.68309-4.63373,1.31133-5.23145,1.62393-2.28064,1.19276-4.99516,2.45755-6.96186,4.11847h-.00002Z"/>
   <path class="b"
         d="M15.58798,15.7802c.13022,1.49928.26044,2.99857.39065,4.49785.0134.15427.03326.32275.14446.43052.12215.11838.31154.12305.48162.12049.67158-.01012,1.34317-.02023,2.01475-.03035.10534-.00159.21905-.00599.3019-.07108.10243-.08047.12318-.22477.13621-.35438.09264-.92122.18528-1.84245.27792-2.76367.23389-2.32589-1.92053-1.91361-3.74751-1.82938Z"/>
   <path class="b"
         d="M13.84401,26.07821c-.0144,1.30123-.47981,3.03176-1.00141,4.22396-.86636,1.98022-1.87345,3.25074-2.23929,5.28504.01021.40508.48444.66764.8856.61048s.73309-.33017,1.04193-.59248c1.33091-1.13037,2.67033-2.27094,3.75747-3.63739.86218-1.0837,2.88309-3.86199,2.5895-5.3583-.18177-.92636-.89403-.52875-1.85609-.47881-.28825.01496-1.708.0223-3.17771-.0525Z"/>
   <path class="b"
         d="M4.51429,40.8874c-.1249.34224-.06727.75051.11946,1.06334.16447.27553.45409.44887.67233.68411.52831.56946.57538,2.32904,1.04325,2.94912.67461.89408,2.00235.12758,3.09916-.09934.54239-.11221,1.0834-.29626,1.5148-.64363s.73987-.88006.71248-1.43326c-.04121-.83245-.77367-1.43902-1.17459-2.16974-.52045-.94859-.46595-2.12769-.10971-3.14935s.98425-1.92224,1.59488-2.81545c.22428-.32807.42925-.82125.12135-1.0725-.19272-.15726-.47614-.10551-.71508-.03637-2.72479.78838-5.91552,4.08482-6.87834,6.72307h.00001Z"/>
   <path class="b"
         d="M10.60331,42.41646c-.43454-.01999-.5599.31178-.91354.56508s-.54833.76705-.3286,1.14247c.13803.23584.39828.36722.64441.48594,1.80279.86953,3.64983,1.75215,5.6394,1.97069,1.44739.15898,2.9118-.04221,4.33474-.35116,2.47275-.53689,5.14118-1.64181,6.10768-3.98032-.49884-.25601-1.04057.21769-1.44899.60184-1.92335,1.80905-4.17942,1.8267-6.63316,1.59051-2.44446-.2353-4.98155-1.91371-7.40194-2.02505Z"/>
   <path class="b"
         d="M21.91945,32.86227c-.0875.34866.11341.7022.33802.98287s.49076.55302.56746.90421-.15391.79716-.51284.7775c-.34292-.01878-.51817-.40294-.73785-.66692-.42483-.51051-1.59416-.92399-2.23836-.76242s-.79241.84719-1.33299,1.23303c.63689.37542,1.04225.87494,1.57528,1.65871.11069.16275,1.01038.05771,1.13855.20707.33258.38757-.06244.61168-.33857,1.04129s-.71855.71935-1.14775.99612c1.36135.33849,2.28605,1.19597,3.81601,1.67826,1.3379.42174,1.72002,2.43925,1.23474,3.75543,1.37682-.54319,2.80512-2.37084,2.85634-3.85006s-1.05006-2.05252-1.31281-4.16257c-.10731-.86174-.70234-2.47447-1.35233-3.15446-.65722-.68754-1.65797-.59041-2.55288-.63807l-.00002.00002Z"/>

</g>
</svg>
