<?xml version="1.0" encoding="UTF-8"?>
<svg xmlns="http://www.w3.org/2000/svg"
     version="1.1"
     width="11.18869022mm"
     height="27.96223910mm"
     viewBox="0.00000000 0.00000000 31.71591944 79.26303038">

<g transform="scale(5.28493839)">   <defs>
      <style type="text/css"><![CDATA[
      .a {
        stroke: #000;
        stroke-miterlimit: 2.61313;
        stroke-width: 0.28346px;
      }
    ]]></style>
   </defs>
   <path class="a"
         d="M1.06006,3.55029A1.60588,1.60588,0,0,1,2.21338,1.86475,4.494,4.494,0,0,1,3.68213.17725a1.333,1.333,0,0,1,.41943,1.582A2.249,2.249,0,0,1,4.1543,3.8667q-.13184.63281-.2627,1.26563.15674,3.16113.31543,6.32422c.43555.70117,1.1875.877,1.625,1.47461a2.46959,2.46959,0,0,1-.83887.89648q-.13184.73828-1.521.42188a2.46449,2.46449,0,0,1-3.0415.1582,2.3398,2.3398,0,0,1,.05225-2.37109C.44824,10.05029.04639,7.855.37793,6.08154a4.51977,4.51977,0,0,1,.68213-2.53125Z"/>

</g>
</svg>
