<?xml version="1.0" encoding="UTF-8"?>
<svg xmlns="http://www.w3.org/2000/svg"
     version="1.1"
     width="55.45749497mm"
     height="43.45444579mm"
     viewBox="0.00000000 0.00000000 157.20234014 123.17799115">

<g transform="scale(4.30598027)">   <defs>
      <style type="text/css"><![CDATA[
      .b {
        stroke: #000;
        stroke-linecap: round;
        stroke-linejoin: round;
        stroke-width: .15px;
      }
    ]]></style>
   </defs>
   <path class="b"
         d="m8.05708,1.00641c-.18903.14679-.38091.29652-.51959.49158-.13964.1964-.21869.42964-.34874.63263-.38069.5941-1.07536.7926-1.7175.95941-.3445.08949.01312.4866.13242.65068.15904.21873.34233.41969.49932.63956.23932.33519.48075.6728.78114.95457.69045.64763,1.62659.94552,2.50782,1.29132,1.22125.47922,2.39308,1.08427,3.49093,1.80247.13073.08552.26617.17905.33484.31937.10637.21734.02189.47849-.09026.69291-.61913,1.18369-1.94174,1.78253-3.14562,2.36143-2.28966,1.10101-4.49489,2.44156-6.28931,4.24011S.52973,20.13144.13478,22.64117c-.07294.46352-.10954.95484.07321,1.38701.13379.31637.37428.57411.61817.816,1.32191,1.31111,2.89162,2.37153,4.60141,3.10848.53066.22873,1.07872.42768,1.64933.51886,1.98502.31721,3.91669-.68614,5.67703-1.65679.18842-.10389.38204-.21211.51556-.38083.35965-.45448.1204-1.16851-.33449-1.52764-.45489-.35913-1.05163-.46646-1.61531-.60125-1.13776-.27206-2.23193-.69813-3.32193-1.12288-.42403-.16524-.85984-.33782-1.18882-.65228-.72206-.6902-.72198-1.8232-.67123-2.82078.01455-.28601.03116-.58052.15382-.8393.09537-.20121.24943-.36837.41042-.52219,1.27832-1.22139,3.04493-1.74654,4.67441-2.4326.34131-.1437.69104-.30473.93048-.58725.19377-.22864.29953-.51919.47698-.76073.24573-.33448.61219-.55479.95935-.78225.71619-.46927,1.38909-1.00459,2.00735-1.59695.38424-.36815.74709-.75792,1.10628-1.15055.75123-.82119,1.49447-1.66585,2.02183-2.64594s.82755-2.11893.63316-3.21479c-.14264-.80415-.53885-1.53745-.92931-2.25476-.1534-.28181-.31173-.56988-.55321-.78131-.68212-.59715-1.65222-.36737-2.47391-.40539-.98047-.04536-1.66769-.60188-2.5846-.84858-.77739-.20916-1.50522-.50494-2.27417-.72653-1.03-.29683-1.84855.23226-2.6395.84648Z"/>
   <path class="b"
         d="m12.36294,18.61012c-.15152.25505-.21782.53676-.28807.8214-.09864.39964-.52777.40455-.79689.68123-.17637.18132-.28173.44347-.47359.59919-.17038.13828-.41304.15141-.58988.28082-.24439.17884-.30633.51542-.31212.8182-.02181,1.14182.51062,2.28155,1.40031,2.99757.33963.27333.72371.48518,1.10656.69373,1.326.72235,2.68037,1.42939,4.14595,1.79293,1.00501.2493,2.04274.33195,3.07497.41373,5.0916.4034,10.42262.76975,15.10803-1.26349.66088-.28679,1.35712-.67893,1.60283-1.35616.25184-.69412-.05367-1.46356-.43641-2.09502s-.85852-1.23968-.98477-1.9672c-.03937-.22687-.04421-.46377-.13563-.6751-.20862-.48224-.81399-.68014-1.33455-.60883s-.98687.34545-1.46184.57011c-.86714.41014-1.79771.66578-2.72281.91942-1.20482.33034-2.41725.66209-3.66131.77631-1.28656.11813-2.58181.00133-3.86849-.11543-.81227-.07371-1.63106-.14865-2.41204-.38378-1.51822-.45709-2.78945-1.48394-4.00554-2.50131-.81473-.68159-2.17539-1.7099-2.95469-.39833Z"/>

</g>
</svg>
