<?xml version="1.0" encoding="UTF-8"?>
<svg xmlns="http://www.w3.org/2000/svg"
     version="1.1"
     width="48.84893058mm"
     height="15.39631085mm"
     viewBox="0.00000000 0.00000000 138.46940779 43.64304013">

<g transform="scale(5.48057697)">   <defs>
      <style type="text/css"><![CDATA[
      .b {
        stroke: #000;
        stroke-miterlimit: 10;
        stroke-width: .1px;
      }
    ]]></style>
   </defs>
   <path class="b"
         d="m14.06106.17053c-1.38278.36622-2.79179.62499-4.21446.774-1.622.24267-3.0893.34242-4.739.50556-1.34206.04515-2.64252.477-3.745,1.24362-1.17752,1.12484-.42138,2.726.92921,3.29687,1.64342.69469,5.29787.66686,6.3487-.96892-1.05659-.18977-2.28639.33192-3.28412.137-1.8712-.36551-1.07759-2.00816.64321-2.177,2.22414-.21828,4.40823-.29852,6.63264-.61156,1.69875-.32425,3.44568-.29994,5.13475.07145,1.20865.3115,2.26454,1.0482,2.9741,2.07505.77784.88665,1.99993,1.862,3.26884,1.44143,2.81527-.93305.01019-4.49142-1.44344-5.31095C21.24841-.09602,15.9253-.00077,14.06106.17053Z"/>
   <path class="b"
         d="m22.11968,3.24042c-.40375-.107-1.88108,1.96845-2.75015,2.30245-1.36527.42095-2.79485.59423-4.22115.51166-2.88707-.06417-5.76893-.27665-8.63419-.63661-1.48075-.22657-2.97956-.31307-4.47654-.25834-1.49274.14225-3.10294,1.0564-.92681,1.91781,1.71426.67857,4.71873.67742,6.5654.757,2.93965.16375,5.88797.07227,8.81182-.27341,2.3514-.31448,4.74281.05028,6.78285-1.38224,1.76406-1.23869,1.45216-3.31543-1.15123-2.93832Z"/>

</g>
</svg>
