<?xml version="1.0" encoding="UTF-8"?>
<svg xmlns="http://www.w3.org/2000/svg"
     version="1.1"
     width="29.99888876mm"
     height="34.08457040mm"
     viewBox="0.00000000 0.00000000 85.03621759 96.61771669">

<g transform="scale(5.31256553)">   <defs>
      <style type="text/css"><![CDATA[
      .a {
        stroke: #000;
        stroke-linecap: round;
        stroke-linejoin: round;
        stroke-width: 0.01px;
      }
    ]]></style>
   </defs>
   <path class="a"
         d="M3.73405.05169a1.36726,1.36726,0,0,0-.34524.19988,1.01253,1.01253,0,0,1-.3089.19382,1.04418,1.04418,0,0,0-.315.25439,1.60643,1.60643,0,0,1-.36342.30285c-.29073.14536-.64809.56329-.64809.745,0,.26044-.34524.70865-.84191,1.08418a1.86986,1.86986,0,0,0-.7874,1.09025.801.801,0,0,0-.06057.72077c.103.29679.25439.33313,1.35675.30284A5.45642,5.45642,0,0,1,2.8558,5.085a1.10554,1.10554,0,0,1,.26045.3937c.15748.35736.15142.54512-.06057,1.10842a3.66791,3.66791,0,0,0-.00606,1.66565.82222.82222,0,0,1-.06057.745c-.16959.41792-.16959.58146-.03028,2.04723a2.09151,2.09151,0,0,1,0,.642,3.2221,3.2221,0,0,0-.02423,1.18716c.03634.636.03028.69049-.11508.97516a.99679.99679,0,0,0-.1272.321,2.93747,2.93747,0,0,1,.05452.46032,3.24452,3.24452,0,0,0,.09085.58752,1.41137,1.41137,0,0,1-.09691.86614.94586.94586,0,0,0-.05451.45427c.01817.109.06057.39976.09691.642a2.12806,2.12806,0,0,0,.16959.636c.109.18776.12114.19382.59358.212.26045.01211.7874.02423,1.16292.03028.72683.01212.70261.01818.89037-.29073a1.25324,1.25324,0,0,1,.51484-.19988l.45427-.109.45426.23622c.47244.24228.50273.24833,1.81708.315a6.09311,6.09311,0,0,1,.848.11508,1.86964,1.86964,0,0,0,1.1811-.09085,12.49678,12.49678,0,0,1,1.45366-.03634c1.2235.01211,1.28407.006,1.5324-.1272a.64938.64938,0,0,1,.3089-.103c.03029.01212.06663-.006.0848-.04845a2.08119,2.08119,0,0,1,.59358-.30891c.81768-.33313.84191-.34524.87825-.51483a1.76974,1.76974,0,0,1,.12114-.33919c.212-.44215.212-.55724.00605-.86614-.29679-.43609-.37553-.48455-.86008-.49061a1.67826,1.67826,0,0,0-.56935.07874c-.12114.06663-.19988.06663-.43.00606a.61911.61911,0,0,0-.36947-.02423,4.78332,4.78332,0,0,1-1.56874-.103.7677.7677,0,0,0-.37553-.05451c-.16959.0424-.23622-.00605-.55723-.41792l-.13931-.18171-.26045.13931c-.23622.12114-.2665.12719-.39976.03634a.63844.63844,0,0,1-.20593-.33919c-.05451-.18777-.109-.26046-.24833-.3089-.24834-.0848-.33313-.25439-.19383-.3937.06057-.06057.218-.24833.34525-.41187a3.9929,3.9929,0,0,1,.321-.36947A2.50585,2.50585,0,0,0,10.96,11.72938a1.74756,1.74756,0,0,1,.23622-.52089,2.59469,2.59469,0,0,0,.2665-.61781c.02423-.11508.05451-.2665.07268-.33313a.72316.72316,0,0,0-.3089-.55723c-.15748-.06057-.54512.109-.80557.3513a.86364.86364,0,0,1-.35736.23622,1.962,1.962,0,0,0-.55118.424c-.41792.40582-.45426.43-.72077.43H8.33125a.33586.33586,0,0,0-.24834.09691.917.917,0,0,1-.27861.19382l-.20594.09692-.00606.49666A1.17463,1.17463,0,0,1,7.18043,13.068a.5087.5087,0,0,0-.15748.27862.78257.78257,0,0,1-.36947.51484c-.17565.09691-.3513-.03029-.49061-.34525a.72888.72888,0,0,1-.07874-.43,2.21089,2.21089,0,0,0,.03634-.49667,1.84338,1.84338,0,0,1,.04846-.50272.46042.46042,0,0,0-.03028-.3937,2.14219,2.14219,0,0,1-.0848-.76923c.00606-.29678.00606-.59963.00606-.66626S6.072,9.82154,6.09019,9.44s.0303-.86619.0303-1.07818a1.42539,1.42539,0,0,1,.07269-.51484c.07874-.14536.08479-.18776.13325-1.0115a4.87957,4.87957,0,0,1,.09085-.75711,2.92437,2.92437,0,0,0,.0848-.51484,5.1448,5.1448,0,0,1,.11508-.636,2.82581,2.82581,0,0,0,.09691-.50878,1.02041,1.02041,0,0,1,.06663-.315c.0424-.07874.03634-.18776-.03029-.36947a2.06074,2.06074,0,0,1-.09085-.33313,1.44,1.44,0,0,0-.18776-.37553,1.94,1.94,0,0,1-.218-.533C6.2114,2.22,6.13872,2.111,5.98729,2.111a.54272.54272,0,0,1-.27256-.15142.55606.55606,0,0,0-.27862-.15143A1.427,1.427,0,0,1,4.61836,1.469c-.07874-.1272-.07874-.15748.02423-.32708l.109-.18776L4.53959.5544C4.24889.00929,4.12775-.06339,3.73405.05169Z"/>

</g>
</svg>
