<?xml version="1.0" encoding="UTF-8"?>
<svg xmlns="http://www.w3.org/2000/svg"
     version="1.1"
     width="25.59728174mm"
     height="18.36103599mm"
     viewBox="0.00000000 0.00000000 72.55930821 52.04705380">

<g transform="scale(4.96095387)">   <defs>
      <style type="text/css"><![CDATA[
      .b {
        stroke: #000;
        stroke-linecap: round;
        stroke-linejoin: round;
        stroke-width: .25px;
      }
    ]]></style>
   </defs>
   <path class="b"
         d="M13.66864,1.90689c.25716-.13525.53114-.28751.65531-.55019.22165-.46888-.18799-1.04088-.68769-1.17974s-1.02885.02534-1.51649.20194c-2.63419.95394-5.10279,2.30652-7.55928,3.65358-1.04434.57268-2.08869,1.14537-3.13303,1.71805-.5451.29892-1.14498.66805-1.27756,1.27543-.10224.46838.1213.96367.4707,1.29193s.80768.51466,1.26639.654c1.4046.42666,2.92309.47179,4.35055.12929.8955-.21486,1.79964-.58181,2.70656-.42189.84331.1487,1.53394.72716,2.26953,1.16556s1.68322.74194,2.42735.31821c.54433-.30995.83712-.95439.8586-1.58042s-.19104-1.23738-.45867-1.80373c-.42828-.9063-1.18041-1.83855-2.18251-1.81391-.59492.01463-1.12022.36996-1.68419.5599-.99981.33672-2.22614.19434-3.2145-.10789.49094-.97644,1.83479-1.16609,2.76725-1.50808,1.36689-.50132,2.65492-1.32532,3.94168-2.00205h0Z"/>

</g>
</svg>
