<?xml version="1.0" encoding="UTF-8"?>
<svg xmlns="http://www.w3.org/2000/svg"
     version="1.1"
     width="56.14220174mm"
     height="29.36225550mm"
     viewBox="0.00000000 0.00000000 159.14333086 83.23160945">

<g transform="scale(4.74488590)">   <defs>
      <style type="text/css"><![CDATA[
      .b {
        stroke: #000;
        stroke-linecap: round;
        stroke-linejoin: round;
        stroke-width: .25px;
      }
    ]]></style>
   </defs>
   <path class="b"
         d="M10.39083.45153c-.93046.29606-1.29707.33862-1.71131.54133-.69281.33905-1.41232.55519-2.12037.92294-.78877.40968-1.74005.86874-2.38075,1.48833-.36961.35743-.81307.59191-.46029,1.13291.242.37111.59346.82054.89894,1.14861.47506.51018.93024.69302,1.52774.23127.66398-.51313,1.14843-1.1666,1.8961-1.59953,1.30512-.7557,2.77555-1.2515,4.26408-.85594.52111.13848,1.06143.24604,1.56667.45332.67758.27798,1.20757.83005,1.79454,1.2486,1.02219.7289,2.3902.53105,2.93884-.69503.31209-.69745.48965-1.33591-.10263-1.89716-.55914-.52984-1.26566-.83779-1.92946-1.20078-.62777-.34329-1.37435-.48498-2.04038-.77761-.80549-.35391-1.92693-.51928-2.80786-.4537-.26627.01982-.46002.06318-1.33389.31244h.00003Z"/>
   <path class="b"
         d="M5.74091,3.5437c.60825.63313-.18485,1.89132-.52152,2.5129-.51288.94692-.28907,1.93742-.09413,2.9171.1083.54426.41958,1.04098.65606,1.54526.21596.46053.37646,1.0263.75196,1.39647.3485.34356.83738.19612,1.16608.47864.18226.15665.18675.36537.12431.60354-.02872.10953-.12373.17424-.13231.29728-.01042.14938.13798.23004.09223.39642-.04253.15464-.26259.20125-.34866.30508-.12119.14619-.12551.34196-.27373.47717-.17832.16267-.50894.15116-.72602.21674-.19789.05978-.27218.20849-.42823.28355-.52057.25038-.86992-.45717-1.41405-.30297-.50544.14324-.43621.57771-.27672.94018-.84221.42551-2.00132-.55497-2.52532-1.15623-.30366-.34844-.67637-.7081-.93452-1.09212-.27374-.40719-.46912-.93771-.56951-1.42076-.26968-1.29764-.20539-2.63726.21602-3.79227.45828-1.25605,1.51246-2.38453,2.41844-3.34161.63102-.66661,2.15175-2.04991,2.81963-1.26437h-.00001Z"/>
   <path class="b"
         d="M8.45138,13.4931c.39582-.0124.76949-.01438,1.17816.02718.36344.03695.78855-.00307,1.16947.07122.77215.1506,1.47955.41497,2.2817.49487.39404.03925.85318.00186,1.24066.08434.40793.08684.81726.19651,1.25325.18212.9036-.02982,1.77612-.27706,2.69394-.23171,1.12577.05563,1.98298.43001,2.96508.93376.27628.14171.37825.20128.0343.38107-.39194.20487-.93336.20785-1.35483.37831-.9079.36718-1.82104.52458-2.74616.83554-.78527.26395-1.58642.48012-2.40897.58581-.9984.12828-2.07415.26395-3.0696.11668-.90667-.13413-1.80605-.27568-2.716-.35371-.59876-.05134-1.21833-.01296-1.80999-.10011-.75079-.11058-1.97706-.37223-2.37992-1.12473-.76884-1.43609,1.91331-1.97718,2.78211-2.14013.32178-.06035.62551-.11109.88682-.14051h-.00002Z"/>
   <path class="b"
         d="M30.58261,5.23071c-.11717.24411-.44142.49166-.62929.69291-.20222.21661-.54735.49398-.66932.7612-.21262.46581.3137.49416.36254.88429.03787.30253-.46083.7177-.63527.99887-.59406.95749-1.35144,1.64856-2.29482,2.25677-1.36733.88154-2.70115,1.97071-4.25744,2.46914-.73002.2338-1.48274.43807-2.207.66291-.41463.12872-2.1508.24245-2.17678.75454.23677.07391.55522.018.82125.07182.34291.06937.69132.08164,1.03851.11475.2833.02701.57857.11698.86597.11281.40745-.00591.83247-.12344,1.2341-.19374,1.8108-.31693,3.26149-1.65015,4.80361-2.58819,1.41321-.85962,2.60794-2.06219,3.8519-3.0409.65368-.5143,1.09141-1.241,1.65908-1.85017.38012-.40791,1.03734-1.19053,1.06459-1.78479.02752-.60022-.73532-.8508-1.24983-.91784-.35291-.04598-.77577-.13941-1.09372.03087-.19627.10512-.20172.32262-.48808.56475Z"/>
   <path class="b"
         d="M28.41628,4.73366c-.51971.18763-1.08304.32274-1.55185.49582-.54854.20251-1.10337.46189-1.65871.68384-.79271.3168-1.56577.61074-2.31885,1.00442-.76497.3999-1.47609.80421-2.1574,1.30561-.72578.53413-1.55147.99978-2.12443,1.64099.49072.16659,1.21285-.186,1.71301-.32872.91026-.25974,1.72043-.74014,2.60602-1.05545,1.72214-.61317,3.32742-1.09811,5.16391-1.10215,1.34162-.00295,2.71614.76274,3.82834-.37895.38-.39008,1.00924-1.06216,1.02672-1.63737.00807-.26555.018-.2561-.24593-.3636-.25158-.10247-.54709-.1791-.81022-.25614-1.18539-.34707-2.56428-.27362-3.4706-.0083h-.00001Z"/>

</g>
</svg>
