<?xml version="1.0" encoding="UTF-8"?>
<svg xmlns="http://www.w3.org/2000/svg"
     version="1.1"
     width="17.44218325mm"
     height="15.96457854mm"
     viewBox="0.00000000 0.00000000 49.44237282 45.25392766">

<g transform="scale(5.37310802)">   <defs>
      <style type="text/css"><![CDATA[
      .b {
        stroke: #000;
        stroke-linecap: round;
        stroke-linejoin: round;
        stroke-width: .25px;
      }
    ]]></style>
   </defs>
   <path class="b"
         d="M5.62456,1.86253c-1.12914-.00192-2.25076.48512-3.02024,1.31147-.08966.09628-.18024.21366-.16509.34434.02726.23516.339.29281.57571.28921,1.08472-.01649,2.16944-.03298,3.25416-.04946.73585-.01119,1.55734.01021,2.08042.52789.31983.31653.46543.76405.60023,1.19337.13516.43047.23942.97824-.1072,1.26708-.40131.33442-1.15059.06465-1.43718.50141-.17266.26314-.06245.65724-.27485.88949-.17451.19082-.4752.17369-.73101.13595-1.77435-.26182-3.50763-.80005-5.11818-1.58935-.22922-.11234-.46002-.23262-.64035-.4133-.23563-.2361-.36687-.55831-.44103-.88351-.26566-1.16498.19015-2.46386,1.12556-3.20735.37855-.30088.81941-.51132,1.25603-.71915C3.72878.91452,5.49331-.11406,6.81759.17537c.60275.13173.85704.52602.5345,1.07865-.3803.65159-1.07034.60963-1.72753.60851Z"/>

</g>
</svg>
