<?xml version="1.0" encoding="UTF-8"?>
<svg xmlns="http://www.w3.org/2000/svg"
     version="1.1"
     width="67.93596027mm"
     height="14.10032718mm"
     viewBox="0.00000000 0.00000000 192.57438113 39.96946856">

<g transform="scale(3.52389248)">   <defs>
      <style type="text/css"><![CDATA[
      .b {
        stroke: #000;
        stroke-linecap: round;
        stroke-linejoin: round;
        stroke-width: .01px;
      }
    ]]></style>
   </defs>
   <path class="b"
         d="M14.24719.07142c-.0625.03906-.46484.08984-.87891.11328-.41797.03125-1.00781.10156-1.3125.17578-.60938.12891-1.61719.49609-1.80859.64844-.0625.05469-.35156.19141-.63281.3125-.58203.23828-1.04688.51953-1.45703.87109-.16016.13672-.60547.51953-.99219.84766-.375.32813-.74219.69531-.80469.81641-.06641.125-.25.3125-.41797.42188-.63281.42578-1.82422,1.46484-2.15234,1.88281-.60547.75781-1.08594,1.23047-2.14453,2.09375C.36047,9.32142.01672,9.76674.005,10.3683c0,.76563.85156,1.16797,1.875.87109.28516-.08594.6875-.12109,1.25391-.10547,1.48047.03516,2.63281-.0625,3.06641-.24609.21484-.09766.59766-.20703.83984-.25.94922-.14844,2-.53516,2.96484-1.07813.11328-.0625.32031-.17578.45703-.23828.33594-.15234.70313-.51563,1.14453-1.12109.48828-.66406.99219-1.19141,1.47266-1.54297.22266-.16016.45703-.35547.51172-.43359.14453-.19141.96094-.81641,1.3125-.99219.47266-.25,1.26172-.71094,1.90234-1.12891.50391-.32813.63281-.46484.79297-.80078l.19141-.40625-.17578-.23047c-.19922-.25-.55859-.41016-.95313-.41797-.14063-.00781-.39063-.0625-.55859-.13672-.16016-.07031-.35156-.13672-.41406-.15234-.48047-.09375-.79297-.21484-.83203-.32031-.07422-.20703.24609-.42188.54297-.36719.17578.03906.70313-.27734.80859-.47266.10938-.21484.08594-.51172-.05859-.69531-.08594-.10938-1.71094-.13672-1.90234-.03125ZM11.39953,2.28627c.02344.06641-.02344.17578-.10547.25781-.80859.75781-1.04688,1.01563-1.08594,1.14453-.03516.07813-.08203.15234-.12109.15234s-.18359.16016-.32813.35938-.34375.38281-.44922.40625c-.10156.03125-.18359.11328-.18359.19141,0,.24219-.30469.54688-.78516.77734-.24609.12109-.51953.28906-.59766.36719-.17578.17578-.40234.08203-.57813-.25391-.10938-.22656-.10156-.25.21094-.625.17578-.20703.40625-.55078.51953-.76172.39063-.75781,1.42188-1.53516,2.65625-1.98047.62109-.22656.76563-.23438.84766-.03516Z"/>
   <path class="b"
         d="M18.62219.79017c-.26172.32031-.32813.81641-.20703,1.73828.07031.59766.07031.91797,0,1.45313-.0625.44141-.07422.81641-.03125,1.01953.0625.27734.10156.32813.39844.40625.20703.0625.44922.07031.67188.03125.49609-.09375,1.59375-.10938,2.35156-.03906.40234.03125.86328.02344,1.24219-.03906.32813-.05078.83203-.11328,1.11719-.12891.28906-.02344.625-.07031.74609-.11328.13672-.04688.28906-.04688.35938-.00781.23828.12891,1.19141.24219,1.48047.16797.16016-.03125.29688-.04688.3125-.03906.01563.01563.67188.04688,1.46484.08203.78906.02344,1.49609.05469,1.55859.0625s.39844-.05469.74219-.13672c.92969-.21484,4.83203-.22266,5.53906-.01563.83203.25781,1.71094.36719,3.11719.40625,1.76953.05078,1.98438.08203,2.39453.32031.27734.16797.44531.20313.94141.20313.33594,0,.96094.07813,1.39453.17578.4375.09375,1.04688.18359,1.35156.18359.3125,0,.69531.05469.86328.10938.16797.05859.35938.08203.42578.05859.07031-.02344.18359-.01563.26172.02344.08203.04688.35938.09375.63281.12891.27344.02344.58203.07813.69531.11719.12109.05078.34375.08203.51172.08203.25,0,.36719-.05859.61719-.3125.39063-.39063.61719-.66406.90234-1.08203.29688-.42188.49609-.58984,1.12109-.97266.48828-.29688.55078-.3125,1.19922-.32031,1.40234-.01563,1.35938-.00781,1.61719-.28906.28906-.32031.30469-.64063.03906-.90234-.15234-.15234-.23828-.1875-.38281-.12891-.11328.03906-.34375.02344-.625-.05078-.35156-.09375-.78516-.10938-2.16016-.0625-.94531.02344-1.77734.0625-1.83984.08203-.07031.02344-.46484-.05078-.87891-.15234-.61719-.15234-.90625-.17578-1.48047-.15234-.39063.02344-.95313,0-1.23828-.05078-.28906-.04688-.91406-.10156-1.40234-.11719-.48047-.02344-1.51172-.09766-2.28125-.16797-.76563-.07422-1.86328-.14453-2.4375-.16016-1.25781-.03906-2.50391-.15234-3.33594-.28906-.47266-.07813-.76172-.07813-1.19922-.01563-.32031.04688-1.26563.07813-2.10547.0625-1.26563-.01563-1.57813-.03906-1.83985-.16016-.24219-.10156-.48047-.13281-.92188-.11719-.32813.00781-1.19141.02344-1.91797.03125-1.10547.00781-1.35938-.01563-1.57031-.12891-.24609-.13672-.49609-.15234-2.51172-.12109-.23828,0-.67188-.03906-.95703-.09375-.77734-.15234-1.43359-.25-1.89844-.28906-.23047-.01563-.45313-.04688-.49609-.07031-.03906-.02734-.32031-.01563-.62109.03125-.44141.05469-.57813.04688-.70703-.03906-.39844-.29688-.48828-.34375-.64844-.39453-.125-.03906-.22266.00781-.375.18359Z"/>

</g>
</svg>
