<?xml version="1.0" encoding="UTF-8"?>
<svg xmlns="http://www.w3.org/2000/svg"
     version="1.1"
     width="42.39189791mm"
     height="21.85560134mm"
     viewBox="0.00000000 0.00000000 120.16599901 61.95285278">

<g transform="scale(2.92386147)">   <defs>
      <style type="text/css"><![CDATA[
      .b {
        stroke: #000;
        stroke-linecap: round;
        stroke-linejoin: round;
        stroke-width: .01px;
      }
    ]]></style>
   </defs>
   <path class="b"
         d="m39.89172.04615c-.26172.01563-.54297.08594-.64063.15234-.08594.05469-.32422.10938-.52734.10938-.19922,0-.50391.04297-.67969.08984s-.375.07813-.4375.07031c-.44922-.03906-.69141-.00781-1.01563.13672-.64844.27344-.92969.35938-1.38672.43359-.79297.11719-1.23828.20703-1.4375.28516-.11328.05078-.36328.06641-.5625.03516-.55078-.08203-1.02344-.04297-1.70313.14453-.76953.19922-1.00781.22266-1.22266.10156-.12891-.0625-.19531-.0625-.25781,0-.08594.08984-.78516.23438-1.09375.23438-.08984,0-.41016-.02734-.72266-.05859-.3125-.02344-.82422,0-1.16016.05078-.32813.05469-1.14453.10156-1.80078.11719-.71094.00781-1.26953.05078-1.375.10547-.16016.08594-.74219.07813-.88672-.01563-.03906-.02344-.3125.00781-.60938.07031-.75.16016-1.74219.16016-2.39063.00781-.30469-.07031-.59375-.10156-.64063-.07031-.03906.02344-.32031.07813-.60938.10938-.28516.03516-.86328.10547-1.27734.15234-.41797.05078-.82422.12891-.92188.1875-.11328.0625-.66406.10156-1.64844.10938-.81641.00781-1.85547.01563-2.32031.02344-.46094,0-1.16016.04297-1.55078.08984-.88672.09375-.98438.03906-1.28125-.70313-.22266-.54688-.49609-.89063-.75-.94531-.07422-.01563-.3125-.10547-.51953-.19141-.21875-.09766-.43359-.16797-.48047-.16797-.17578.00781-.76172.59766-.92969.93359-.08594.1875-.19922.36328-.24609.38672-.12891.07813-.48047.81641-.48047,1,0,.08594-.08984.23828-.19922.33594-.18359.16016-.39453.59766-.34375.75.03125.14453-.10547.42578-.24219.47266-.07031.02344-.22266.17578-.32813.34375-.23047.35938-.19141.82422.11328,1.28125l.19922.3125-.17578.35938c-.12891.26953-.27344.41406-.53516.55078-.19922.10547-.50391.28906-.67969.41797-.16797.11719-.35156.21484-.41016.21484-.16797,0-.33594.26563-.38281.60156-.04688.27734-.02344.35938.15234.54297.12109.12891.26563.20703.33594.18359.07031-.01563.33594-.05469.57422-.08984.25-.02344.58594-.09375.76172-.15234.28125-.09375,1.18359-.10938,1.69531-.02344.32031.05078.82422.32031.86328.46484.02344.07422.06641.35938.08203.63281.03125.43359-.00781.64063-.35156,1.66406-.21875.64844-.43359,1.35938-.48828,1.58203-.12109.53125-.33594.875-.64063,1.03516-.23047.11719-.26563.11719-.55859-.05078-.28125-.16016-.35547-.16797-.64063-.07813-.17578.04688-.35938.16797-.41016.26953-.05469.09766-.16797.22656-.24609.28125-.08203.05469-.24219.29688-.35156.51953-.12109.23438-.27344.48047-.34375.5625-.48828.52734-1.40234,1.77344-1.48047,2.03906-.03125.08594-.12109.21484-.21094.29688-.08594.07813-.15625.20703-.15625.29297,0,.08203-.12109.26563-.25781.41016-.28906.28906-1.02344.77734-1.17578.77734-.16797,0-.48828.38281-.48828.58984,0,.12891.11328.3125.28125.48828.24609.23828.33594.28125.66406.27344.26172,0,.49609-.07422.77344-.23437.22656-.12891.49609-.29688.625-.35938.13672-.07813.48828-.13672.96094-.16016.39844-.01563.93359-.08594,1.17578-.15234.23828-.07031.53516-.12891.66406-.12891.12109,0,.30469-.05469.40625-.125.10547-.06641.3125-.12891.46484-.13672.14453-.01563.33594-.06641.43359-.11328.125-.07031.23828-.07031.46094-.00781.24219.08203.33594.07422.51563-.03125.14844-.08984.28516-.10547.44531-.05469.12891.03906.29688.03125.375-.00781.16016-.08984.80859-.12891.92969-.05859.03906.02344.41797-.07812.83203-.23828.41797-.16016.9375-.32031,1.15234-.35156.22266-.03516.48828-.08203.60156-.11328.10938-.02344.35938-.0625.55859-.07031s.51953-.06641.71875-.12109c.80859-.22266.9375-.25781,1.35938-.28125.24219-.01563.64063-.10156.875-.19922.23828-.08984.56641-.16016.71875-.16016.16016.00781.43359-.05469.60938-.12891.17578-.07813.57422-.17578.87891-.20703.3125-.03906.67188-.09766.80078-.12109.13281-.02344.36719-.03906.52734-.03906.16016.00781.39844-.03125.51953-.07813.12891-.05078.32031-.10547.43359-.12109.62109-.08203.93359-.15234,1.09375-.25.09766-.0625.28906-.11719.44141-.11719.14453,0,.35938-.05859.48047-.12109.125-.0625.3125-.08984.42969-.05469.13672.03125.23438.01563.28125-.05859.03125-.05469.21484-.10938.40625-.11719.44922-.02734.92188-.13672,1.22656-.28906.34375-.17578.73438-.25.88672-.16016.10547.05469.26563.00781.63281-.19141.40625-.22656.57422-.27344.98438-.27344.26172,0,.70313-.05469.96875-.12891.26953-.0625.56641-.125.67188-.125.09375-.01172.53516-.13672.97266-.28125.64844-.22656,1.91406-.48828,2.41797-.50391.05469,0,.19141-.08984.30469-.19141.13672-.12891.35156-.21094.66406-.25781.24609-.03125.48047-.05469.51953-.04688.0625.01563,1.30469-.57813,1.65625-.79297.20703-.12891.55078-.14453.85547-.03906.12891.03906.20703.16016.26563.39063.04688.18359.11719.44141.15625.57813.16016.52734.1875,1.19141.05078,1.51172-.08203.19141-.11328.41406-.08203.60547.04297.25.01563.33594-.18359.57031-.39844.46484-.39844.625-.00781,1.07031.11328.13672.23438.18359.375.16797.37109-.04688.79297-.30469.89844-.54297.04688-.12109.11719-.22266.16016-.22266.03125,0,.19922-.20313.35938-.44922.16797-.25.40625-.51953.54297-.60156.48047-.28516,1.55078-1.29297,1.64063-1.54297.07813-.19922-.05469-.92969-.19141-1.08594-.25-.29688-.28906-.47266-.14453-.61719.23047-.24219.36719-.76172.86328-3.42578.01563-.08594.07422-.32031.12109-.51172s.09375-.48047.11328-.64063c.04688-.48828.20703-1.3125.32813-1.6875.07031-.23047.10156-.55859.07813-.91797-.11328-1.64844-.14453-1.94531-.28125-2.27344-.07031-.19922-.16797-.54297-.19141-.75-.03125-.21875-.11328-.53906-.17578-.71484-.12109-.35156-.05469-.55859.29688-.94141.34375-.37109.48047-.64063.42969-.82422-.11719-.42578-.22266-.53906-.46875-.51953-.13672.00781-.46484.02344-.72266.03906Zm-5.35938,4.77344c.12891.15234.35938.43359.51172.61719s.3125.38281.34375.44141c.03125.05469.08203.67188.09766,1.36719.03906,1.375.0625,1.53516.20703,1.92188.08203.19141.08203.29297.00781.45313-.16797.36719-.67188.54688-1.97656.67969-.35156.03516-.92578.16016-1.27734.27344s-.80078.24609-1,.30469c-.41016.10938-.82422.28906-1.67969.71094-.58594.28906-.625.29688-1.40234.28125-.45703-.00781-.90234.02344-1.03906.07813-.54297.21875-1.19141.28125-2.83984.30469-.96094.01563-1.19141.03906-1.35938.16016-.10547.07031-.29688.13672-.42578.13672-.12109,0-.32813.05469-.45703.12109-.22266.10938-.67188.10938-1.19922,0-.32031-.07422-1.28516.10938-1.96875.35938-.08594.03906-.41406.02344-.72656-.03125-.44922-.07422-.60938-.07422-.79297.00781-.125.05469-.35156.07813-.49609.05469-.18359-.03125-.39063.02344-.71875.17578-.40625.19141-.56641.21484-1.57422.24609-.61719.02734-1.1875.07422-1.26563.12109-.08203.03906-.25781.04688-.39844.01563-.14453-.03125-.28906-.04688-.33594-.03906-.04297.01563-.24219.03906-.44141.05469s-.57813.05078-.83984.07422c-.26563.02344-.64844.0625-.85547.07813-.21094.01563-.48047.08984-.60938.15234-.42969.22656-.99219.17578-1.09375-.08594-.02734-.08203.02344-.23438.11719-.35938.08984-.12109.16016-.27344.16016-.33984,0-.14844.625-1.40625.76953-1.55078.0625-.05469.14453-.25391.19922-.4375.04688-.1875.17578-.48828.28125-.68359.18359-.30859.19922-.40625.16797-1.03125-.05078-.91797.03906-1.10938.67188-1.41406.48828-.23438.57422-.24219,1.40625-.08203.18359.03125.35156,0,.58594-.11719.17578-.08984.47266-.17578.66406-.20313.19141-.01563.42969-.07031.52734-.125.10156-.05078.23047-.07422.30469-.05078.0625.02344.18359.01563.26172-.03125.08203-.03906.33594-.09375.57813-.11328.23047-.01563.75-.125,1.14453-.23828.52734-.15234.87891-.20703,1.31641-.19922,1.16016.03125,1.60938.00781,1.71484-.08203.0625-.05469.17578-.10938.25391-.125.08984-.01953.3125-.09766.51172-.16797.61719-.22656.90625-.28125,1.45703-.27344.33594.00781.60938-.03125.71875-.10547.10547-.0625.3125-.10156.46484-.08594s.48047-.01563.72266-.06641c.47656-.09375.91797-.125,2.31641-.16797.69141-.01563.96875-.05469,1.12109-.15234.15234-.10156.27344-.11719.48828-.07031.16797.03906.34375.03906.39844,0,.06641-.03906.19531-.07031.28906-.07031.09766,0,.29688-.07422.44922-.16016.15234-.08984.39063-.16016.54297-.15234.15234,0,.45703-.04297.67188-.08984.22656-.04688.51172-.09375.64063-.09375.13672,0,.39844-.05078.59375-.11328.19141-.0625.45313-.11328.59766-.10547.13672.01563.44141-.02344.67188-.07813.23438-.05469.44922-.08984.47266-.06641.02344.03516.15234-.00781.28125-.07031s.25391-.10547.28516-.07813c.03516.02344.11328.00781.17969-.03516.14063-.08594.32422.00781.60547.35156Z"/>

</g>
</svg>
