<?xml version="1.0" encoding="UTF-8"?>
<svg xmlns="http://www.w3.org/2000/svg"
     version="1.1"
     width="51.63135620mm"
     height="19.10281928mm"
     viewBox="0.00000000 0.00000000 146.35662838 54.14974262">

<g transform="scale(3.07954025)">   <defs>
      <style type="text/css"><![CDATA[
      .b {
        fill: #000;
        stroke: #000;
        stroke-miterlimit: 10;
        stroke-width: .1px;
      }
    ]]></style>
   </defs>
   <path class="b"
         d="M12.27831,2.86288c-2.74417.50922-5.43373-.41992-8.2023.06565-1.21404.21294-3.65532.80645-3.99883,2.3637-.27249,1.23554,1.56827,1.96588,2.61556,2.46182,3.26347,1.5454,7.2175.35756,10.70663.36145,2.40478.00268,4.64942-.68528,7.00901-1.04084,2.29251-.34545,4.60362-.55182,6.87326-1.02424,3.02796-.63022,6.17445-1.46128,9.29041-1.22464.7002.05319,2.35561.67991,3.02238.10889.85415-.73155-.3538-.99098-.64562-1.78001,1.96432-1.28056,1.24812-1.91048-.73574-1.7314-2.53205.2286-5.07068.52821-7.61757.71711-4.8269.35799-9.73896.1671-14.50428.65682-1.40934.14483-3.90706.24291-3.81291.06569Z"/>
   <path class="b"
         d="M47.47083.23659c-.74703-.24715-3.87337-.41058-4.1917.60108-.17662.56125,1.14018,1.32545.55346,1.8012-.58754.4764-1.1045-.99531-1.71903-1.07228-.6893,1.1301.63537,1.93937.08178,2.98056-.51662.00052-1.22844-.45711-1.65758-.11054-.60571.48916-.2497,1.24497.29675,1.45618.33369.129,1.32125-.39241,1.8431-.27197.69505.1604.87339.38515,1.34984.95124.75827.90099,1.25967,2.3166,2.61907,1.24747,1.43867-1.13144.20538-2.22786-.03049-3.51339-.23578-1.28514.69302-2.74725.85484-4.06949l-.00005-.00004Z"/>
   <path class="b"
         d="M10.04595,4.8326c-1.37414-.97459-3.58583-.13908-4.89138.62387-1.68396.98406-1.88561,2.80762-2.07135,4.62875-.16286,1.59703.28711,4.92529,2.50412,5.13417,1.19523.11261,2.53932-1.64702,3.1455-2.47864.70897-.97269.78418-1.54604.31366-2.72247-.63606-1.59041-1.13404-1.69974.0083-3.00927.32819-.37624,1.60149-2.53344.99116-2.1764Z"/>
   <path class="b"
         d="M20.68252,12.58021c-2.67645.38359-5.62181-.97939-8.07589-1.69459-1.11458-.32482-2.79265-1.15017-3.92955-.39159-1.5316,1.02195-.46632,2.96248.26908,4.12524,2.12636,3.36203,6.04942,2.47596,9.63158,2.82012,4.47246.42965,9.00083-.73544,13.50305-.94886,2.48228-.11767,4.3659.16555,5.82692-1.83536,1.25003-1.71194,3.40705-1.99122,5.32856-2.70175,1.03414-.38242,2.57201-.57811,2.77375-1.84193-2.67278-1.69053-6.87218.49452-9.59585,1.15614-3.4083.8279-7.50837.96616-11.02764,1.05006-1.49592.03568-4.08441-.07239-4.704.26263v-.00009Z"/>

</g>
</svg>
