<?xml version="1.0" encoding="UTF-8"?>
<svg xmlns="http://www.w3.org/2000/svg"
     version="1.1"
     width="39.35326383mm"
     height="15.25691079mm"
     viewBox="0.00000000 0.00000000 111.55253654 43.24790828">

<g transform="scale(5.79267105)">   <defs>
      <style type="text/css"><![CDATA[
      .a {
        fill: #000;
        stroke: #000;
        stroke-miterlimit: 2.61313;
        stroke-width: 0.28346px;
      }
    ]]></style>
   </defs>
   <path class="a"
         d="M.18115,3.21045Q.666,1.0542,1.96729.95264q.07617-.999,1.377-.76758a3.55082,3.55082,0,0,1,.30664,2.51172C3.6167,3.29443,3.58252,3.894,3.54834,4.4917q.71484-.17871,1.42871-.35937c2.71484-1.53125,3.51367-1.13672,3.77637-.20508A13.52024,13.52024,0,0,1,5.48779,5.97754C3.85107,6.98145,2.20947,7.91895.436,6.85156.0249,6.07324.15771,4.56982.18115,3.21045Z"/>
   <path class="a"
         d="M9.0083,4.4917a1.51241,1.51241,0,0,1-.81641-2.35937H9.36572C9.85791.812,10.7085,1.29248,11.61084,2.03076c.88477.06641,1.70117.20313,2.04.82031a16.72387,16.72387,0,0,0,2.501-.71875.87822.87822,0,0,1-.15332.97461c-2.92578,1.43359-5.1543,1.729-6.99023,1.38477Z"/>
   <path class="a"
         d="M16.15186,5.62012c2.6084.76074,2.71-1.7417,2.959-4.05029-.3916-.498-.78223-.8418-1.17383-.10352-2.31934-.24219-2.249.59766-1.83691,1.58984a1.99956,1.99956,0,0,1,.35742,1.48633,1.144,1.144,0,0,0-.30566,1.07764Z"/>

</g>
</svg>
