<?xml version="1.0" encoding="UTF-8"?>
<svg xmlns="http://www.w3.org/2000/svg"
     version="1.1"
     width="51.90836667mm"
     height="19.85171259mm"
     viewBox="0.00000000 0.00000000 147.14184057 56.27253663">

<g transform="scale(7.30148393)">   <defs>
      <style type="text/css"><![CDATA[
      .b {
        stroke: #000;
        stroke-linecap: round;
        stroke-linejoin: round;
        stroke-width: .01px;
      }
    ]]></style>
   </defs>
   <path class="b"
         d="m16.92688.27167c-.15234.16016-.28125.3125-.28125.34375,0,.03906-.15234.14453-.33594.23828-.42578.21484-.74609.55078-.85547.89844-.05078.14063-.21094.44531-.35156.67188-.38672.61328-.5625.92578-.58594,1.05469-.03906.21484-.41406.28906-.44141.07813-.00781-.03906-.01563-.11719-.02344-.17578-.00781-.04688.01563-.16797.06641-.25391.04688-.08984.08594-.23438.09375-.32031.01563-.08984.03906-.30469.07422-.48047.02344-.17578.01563-.35938-.01563-.41797-.04297-.05469-.28906-.11719-.5625-.14063-.44531-.05859-.52734-.03516-.96875.19922-.32813.17578-.51172.32813-.57422.48828-.05469.12891-.12891.23047-.16797.23047s-.16797.14453-.28906.32813c-.26953.41797-.59766.60156-.76563.43359-.09766-.08984-.10547-.18359-.04297-.44141.12109-.46484-.00781-.71875-.45313-.90234-.34375-.14453-.35156-.14453-.69922.02344-.78125.38281-1.14844.64063-1.34375.94922-.10156.17969-.23047.34766-.28516.36328-.16016.0625-.29688-.08984-.3125-.36328-.01563-.14844-.02344-.30859-.03125-.35938-.01563-.16797-.625-.50391-.89844-.50391-.15234.00781-.38281-.01563-.51953-.04688-.20703-.04688-.28906-.00781-.56641.25781-.19141.17578-.35938.42188-.41016.60547-.04688.16016-.17578.41016-.28516.54297-.11328.13672-.21094.27344-.21094.3125,0,.15234-1.32813.99219-1.75,1.12109-.30469.08984-.51953-.07813-.44141-.35156.10547-.34375.44922-.81641.78516-1.08984.19141-.14844.375-.35938.39844-.45313.02344-.09766.09766-.22656.15234-.28125s.16797-.33594.25-.625c.07813-.28516.21484-.61328.29297-.72656.19531-.28906.05859-.48828-.375-.51172-.40625-.02344-.88672.21484-1.47266.75781-.29297.27344-.57422.48047-.65625.48047-.10938,0-.94141.87109-.94141.98438,0,.19141-.48047.88672-.9375,1.36719C.02063,4.72479.005,4.82245.005,5.57245Q.005,6.47088.51672,6.80682c.13672.08594.24219.11328.32813.0625.13672-.07813.71875,0,1.28906.17578.19922.06641.375.07422.45703.03125.0625-.03906.22266-.08594.35156-.10156.36719-.05469,1.16016-.375,1.44531-.58594.14453-.10938.37891-.23047.50391-.26172.21875-.06641.27344-.03906.45703.15234.12109.11719.38281.30469.59375.39844.21484.10547.47656.28906.59766.41797.15234.16016.30469.23047.46484.23047.13672,0,.32031.05469.42578.12109.20703.15234.67969.20703.98047.11719.15234-.04688.27344-.02344.39453.05859.12891.08594.22266.10156.34375.04688.09375-.04688.24609-.07031.33594-.05469.18359.03125.56641.03906,1.375.03906.40234,0,.64063-.03906.77734-.12891.10938-.07813.33594-.12891.50391-.12891.16797.00781.39844.01953.52734.02734.12109,0,.35156-.05078.51953-.12109.59375-.24219,1.625-.34375,2.13672-.20703.04688.00781.16797-.01953.28125-.06641.38281-.16016.77344-.26172,1.00781-.26172.125,0,.30078-.05859.39063-.12891.09766-.07422.23828-.09766.35938-.07422.15234.03516.28906-.01563.50391-.18359.33594-.26953.54297-.35938,1.21484-.50391.32813-.07031.57031-.18359.74609-.35156.6875-.63281.17578-1.60547-.72656-1.375-.22656.05469-.39453.05469-.57031-.00781-.14453-.05469-.3125-.09766-.38281-.09766-.06641,0-.21484-.07031-.32813-.16016-.11328-.08594-.27344-.16016-.35938-.16016-.14453,0-.16016.04297-.12109.27344.03125.20703,0,.30469-.12109.41797-.42188.38281-.64844.51172-.93359.51172-.11328,0-.28125.03125-.35938.07813-.16797.08984-.37109.03906-.42578-.12109-.0625-.15234.29688-.61328.64844-.83203.17578-.10156.38281-.32031.46484-.48047.07813-.15625.26172-.39844.39063-.54297.48828-.51953,1.02344-1.10156,1.00781-1.10156-.00781,0,.03906-.13672.11328-.30469.07031-.16797.10156-.33594.07813-.36719-.02344-.04297.01563-.20313.08203-.36328.0625-.15234.11719-.35156.11719-.42969,0-.19922-.4375-.44141-.85547-.45703-.29688-.00781-.38281.02344-.62109.26563ZM7.71594,3.77557c.28906.27734.04297.73438-.3125.57422-.27734-.12891-.30078-.28906-.07813-.51172.23047-.22266.23047-.23047.39063-.0625Zm2.73047.72656c.02344.07031-.05078.26563-.16016.44141-.11328.16797-.18359.34375-.16016.38281.0625.11328-.12891.47266-.28906.51953-.20703.0625-.44922-.07813-.60156-.36719-.10938-.22266-.10938-.26563.00781-.44141.06641-.10156.15234-.19141.19531-.19141.03906,0,.22266-.12891.39844-.28125.33594-.26953.51172-.29297.60938-.0625Z"/>

</g>
</svg>
