<?xml version="1.0" encoding="UTF-8"?>
<svg xmlns="http://www.w3.org/2000/svg"
     version="1.1"
     width="47.53831254mm"
     height="50.78315157mm"
     viewBox="0.00000000 0.00000000 134.75425982 143.95230139">

<g transform="scale(6.07147487)">   <defs>
      <style type="text/css"><![CDATA[
      .b {
        fill: #000;
        stroke: #000;
        stroke-linecap: round;
        stroke-linejoin: round;
        stroke-width: .1px;
      }
    ]]></style>
   </defs>
   <path class="b"
         d="M5.43971,3.45638c-.61703-.23499-2.078-.07199-2.50198-.50598-.45602-.466-.11002-1.46899-.35501-2.02798C1.79872-.87461.64372.42443.23073,1.9454c-.36505,1.34601-.10004,2.61899.12695,3.88098.18503,1.02701-.22998,1.52304.89404,2.06702.633.306,2.436.09799,2.91599-.34698.75299.91397.78598,3.21597.95401,4.29398.246,1.582.159,3.25604.159,4.88101,0,1.61499-.07599,2.86301.52399,4.30103.32703.785.88303,1.77997,1.64102,2.146-.00104-.21301.19501-.63.18796-.88998.00903.33597,4.66302,1.46698,5.17404,1.37595,1.62601-.28897,4.02597-2.72598,4.91199-4.05496.89999-1.35001,1.62897-2.88,2.34-4.40201.65601-1.40399,2.22397-3.56201,2.07501-5.17203-.66901,1.42505-1.276,2.90002-2.035,4.26199-.84299,1.51401-2.017,2.25705-3.21799,3.367-2.14505,1.98102-5.63803,1.74506-5.90402-1.80698-1.54099.31403-2.61301,2.056-3.18198-.20099-.47104-1.86398.672-4.33801.53098-6.30002-.06-.82498-.871-3.45901.62201-3.37097.96997.05798.99701,1.74796,1.88998,2.03699,1.09.353,1.716-.73001,1.91098-1.54999.47803-2.00299-.62296-4.06604-1.133-5.84204-1.64096.78-1.44498,2.88104-3.63397,2.995-1.28998.06604-2.297-.93198-3.81403-.159"/>
   <path class="b"
         d="M5.43968,3.45635c-.61703-.23499-2.078-.07199-2.50198-.50598-.45599-.466-.11002-1.46902-.35501-2.02798C1.79869-.87464.64369.42535.23067,1.94537c-.36499,1.34698-.10098,2.61899.12698,3.88098.18503,1.02701-.22995,1.52301.89404,2.06702.63297.30701,2.436.09799,2.91595-.34702.75305.914.78601,3.216.95404,4.29404.246,1.58197.159,3.25601.159,4.88098,0,1.61499-.07602,2.86301.52399,4.30103.32703.785.88303,1.78,1.64102,2.146-.00104-.21301.19501-.63.18796-.88998.00903.33597,4.66302,1.46698,5.17404,1.37598,1.62601-.289,4.02597-2.72601,4.91199-4.05402.89999-1.35101,1.629-2.88,2.34-4.40302.65601-1.40399,2.22397-3.56198,2.07401-5.172-.668,1.42599-1.27499,2.90002-2.034,4.26199-.84299,1.51505-2.017,2.25702-3.21799,3.367-2.14505,1.98102-5.63803,1.74503-5.90402-1.80695-1.54099.314-2.61301,2.05597-3.18198-.20102-.47104-1.86401.672-4.33801.53098-6.30002-.05997-.82498-.87097-3.45901.62201-3.37.96997.05701.99698,1.74698,1.88998,2.03601,1.09.353,1.716-.72998,1.91098-1.54999.478-2.00299-.62296-4.06601-1.13297-5.84204-1.64099.78003-1.44501,2.88101-3.634,2.995-1.28998.06702-2.297-.93195-3.81503-.159"/>

</g>
</svg>
