<?xml version="1.0" encoding="UTF-8"?>
<svg xmlns="http://www.w3.org/2000/svg"
     version="1.1"
     width="28.97349080mm"
     height="23.85471469mm"
     viewBox="0.00000000 0.00000000 82.12955761 67.61967607">

<g transform="scale(5.41829972)">   <defs>
      <style type="text/css"><![CDATA[
      .b {
        stroke: #000;
        stroke-linecap: round;
        stroke-linejoin: round;
        stroke-width: .25px;
      }
    ]]></style>
   </defs>
   <path class="b"
         d="m12.98381,1.81598c.62001-.65399,1.49002-.91998,2.049-1.69098-.07997.10999.02303,1.12-.02498,1.375-.23601,1.26404-1.11401,2.14294-1.87701,3.13696-.52399.68298-1.12,1.27203-1.73801,1.922-.319.33502-.752.56506-1.116.84705-.53299.414-1.08099.56995-.81198,1.26099.22899.591,1.03998,1.10498,1.634,1.21698.29198.05499,2.72198-.33997,2.737-.31097.01498.02899-.70102,1.00403-.77402,1.06494-1.166.96704-3.776,1.71802-5.186.88507-.39999-.23602-.69699-.61102-1.08299-.88007-.43098-.29993-.97398-.55994-1.26399-1.01892-.25002-.39807-.22701-.95605-.50902-1.33008-.45399-.60193-.56398-.22797-1.09499.10803-.401.25305-1.367.69702-1.164,1.36707.15199.50195,1.62599.2959,2.09799.14697.29401-.09302.56-.35803.78201-.41406.34201-.08801.758.02502,1.116-.052.173,1.15198-.694,1.53503-1.655,1.78302-1.13901.29401-2.15401.68304-3.27501,1.05304-.26601.08801-.89699.08594-1.17998.026-.71802-.15405-.54402-.91406-.35904-1.48602.22601-.69897.80302-.96301,1.24402-1.50598.436-.539.84201-1.13202,1.384-1.60303.66299-.57703,1.205-1.07898,1.73199-1.74603.31599-.40094.746-.77893,1.26801-.87793.157-.03003.30699-.104.461-.14606.26799.45703.76199.90302,1.10202,1.28607.33099.37195.51797.81995.78598,1.18799.597.81799,1.14999-.03802,1.70102-.53308,1.60197-1.43994,2.69299-3.08398,3.21397-5.20294"/>
   <path class="b"
         d="m12.98381,1.81598c.62001-.65399,1.49002-.91998,2.049-1.69-.07997.10901.02303,1.11902-.02498,1.37402-.23601,1.26404-1.11401,2.14294-1.87701,3.13696-.52399.68298-1.12,1.27203-1.73801,1.922-.31998.33502-.752.56396-1.116.84705-.53299.414-1.08099.56995-.81198,1.26099.22899.58997,1.03998,1.10498,1.634,1.21698.29198.05499,2.72198-.341,2.737-.31097.01498.02899-.70102,1.00403-.77402,1.06494-1.166.96704-3.776,1.71704-5.186.88507-.39999-.23602-.698-.61102-1.08299-.88007-.43098-.29993-.97398-.55994-1.26399-1.01892-.25002-.39807-.22701-.95605-.50902-1.33008-.45399-.60297-.56398-.22797-1.09499.10803-.401.25305-1.367.69702-1.164,1.36707.15199.50195,1.62599.2959,2.09799.14697.29401-.09302.56-.35803.78201-.41406.34201-.08698.758.02502,1.11499-.052.17401,1.15198-.69299,1.53503-1.65399,1.78302-1.13901.29401-2.15401.68304-3.27501,1.05304-.26601.08801-.89699.08594-1.17998.026-.71802-.15503-.54402-.91406-.35904-1.48602.22601-.69897.80302-.96301,1.24402-1.50598.436-.539.84201-1.13202,1.384-1.60303.66299-.57703,1.20599-1.07898,1.73199-1.74701.31599-.39996.746-.77795,1.26801-.87695.157-.03003.30699-.104.461-.14606.26799.45807.76199.90302,1.10202,1.28607.33099.37195.51797.81995.78598,1.18799.597.81799,1.14999-.03802,1.70102-.53308,1.60197-1.43994,2.69299-3.08398,3.21397-5.20294"/>

</g>
</svg>
