<?xml version="1.0" encoding="UTF-8"?>
<svg xmlns="http://www.w3.org/2000/svg"
     version="1.1"
     width="41.75704261mm"
     height="19.69544840mm"
     viewBox="0.00000000 0.00000000 118.36641647 55.82956327">

<g transform="scale(5.59901992)">   <defs>
      <style type="text/css"><![CDATA[
      .a {
        stroke: #000;
        stroke-miterlimit: 2.61313;
        stroke-width: 0.28346px;
      }
    ]]></style>
   </defs>
   <path class="a"
         d="M6.56494,1.96289A3.124,3.124,0,0,0,5.1958.85449C1.98877,1.8584-.38037,3.43262.24121,7.04834c2.17383,3.55078,4.34668,2.88672,6.51953,1.043a10.52436,10.52436,0,0,1-.1958-6.12842Z"/>
   <path class="a"
         d="M10.41748,1.42822l-.39453.96484.02588.52148.9751.78223.07861,1.252-.28955.39111v.33887h.52686l.13135.3916-.31592.18213-.71143.13037.05273,1.48682.44824.05176.71094.46973c-1.26562.69434-4.53125.9834-6.13379-.56152-.53906-2.49854,1.16016-4.62207,4.89551-6.40137Zm0,0a1.20764,1.20764,0,0,1,1.88477.14307,6.82157,6.82157,0,0,1-.35645,4.70752l-.31641-.522-.10547-1.22559-1.10645-3.103Z"/>
   <path class="a"
         d="M14.584,9.65576c-.68945-3.31348-.46191-5.92187,1.10938-7.49756C17.35547.19141,19.07129-.63428,20.9082,1.0498c.49023,4.21729-1.05371,6.28174-3.52051,7.36768C15.68945,10.03076,15.06055,9.9624,14.584,9.65576Z"/>

</g>
</svg>
