<?xml version="1.0" encoding="UTF-8"?>
<svg xmlns="http://www.w3.org/2000/svg"
     version="1.1"
     width="68.45738075mm"
     height="23.92192489mm"
     viewBox="0.00000000 0.00000000 194.05237519 67.81017745">

<g transform="scale(4.71207350)">   <defs>
      <style type="text/css"><![CDATA[
      .b {
        stroke: #000;
        stroke-linecap: round;
        stroke-linejoin: round;
        stroke-width: .25px;
      }
    ]]></style>
   </defs>
   <path class="b"
         d="M11.54353,3.52075c-.50207.27196-1.00141.82596-.77266,1.34913.1424.32568.52863.48605.88398.47797s.692-.14913,1.02501-.27344c2.67986-1.00036,5.60768-1.01151,8.45487-1.287,2.862-.27692,5.69006-.83133,8.54491-1.17425,3.00998-.36155,6.04824-.4873,9.0778-.37573.37315.01374.76005.02879,1.10525-.11357.66553-.27446,1.45858-1.22739,1.10864-1.85652-.02883-.05184-.54042-.05188-.58839-.08677-.0634-.04611-.76913-.08969-3.1917-.01623-2.71958.08247-3.85809-.00327-7.23875.52308-2.65396.41321-5.30793.82641-7.96189,1.23962.32535.19412.34171.70683.09263.9923s-.67067.36531-1.04458.30429c-1.58939-.25939-2.74732-1.30757-4.46695-.97292-1.61873.31502-3.56581.47792-5.02816,1.27004h-.00001Z"/>
   <path class="b"
         d="M33.17906,1.96078c-.25372.12439-.53044.33628-.49815.61699.06512.56625,1.17005.43817,1.26712.99982-4.2458,1.26403-8.44271,2.69228-12.57819,4.28048-.08623.38933.24843.75061.60447.93017.84208.42469,1.84828.26828,2.77378.08691,3.5054-.68694,7.02717-1.6139,10.07654-3.47429.54718-.33383,1.12759-.77561,1.20188-1.41227.01585-.13582.00692-.2742.03141-.40873.05872-.32261.29691-.57687.49783-.83601.20086-.25906.38043-.58395.29534-.90048-.25641-.95377-3.15083-.13812-3.67203.11741Z"/>
   <path class="b"
         d="M7.43245,10.85626c-.96015.21697-4.43918.92854-4.43918.92854-.47251-.6497-.90032-.62322-1.544-.56273s-1.32547.52137-1.32427,1.16788c.46061.39799.92122.79597,1.38183,1.19396.13946.1205.28165.24276.45025.31722.22269.09836,1.8559.36294,2.09934.36434,3.74256.02152,6.01991-1.26358,9.62097-2.28316,3.01207-.85281,6.02415-1.70563,9.03622-2.55844.44571-.12619.89996-.25628,1.28368-.51577s.6919-.67522.70122-1.13835c.00448-.22292-.07842-.46805-.27575-.57184-.14411-.0758-.31704-.06149-.47894-.04407-2.61892.2819-5.00906,1.10321-7.55658,1.67887-3.3654.76048-5.58939,1.26306-8.95479,2.02355Z"/>
   <path class="b"
         d="M22.40156,8.68121c.03403.15687.06868.32184.17326.4436.2093.2437.59056.2106.90441.14209.99409-.217,1.95617-.58001,2.84584-1.07377.11104-.06163.22599-.13017.28935-.24023.10021-.17406.04213-.39279-.02104-.58344-.53553-1.61627-1.26873-3.16693-2.17806-4.60646-.10108-.16001-.22748-.33402-.4151-.35892-.13916-.01847-.27297.05202-.39567.12023-.73805.41027-1.4761.82053-2.21439,1.23093-.30415.16903-.65098.2228-.95908.32977.80788,1.51074,1.6007,2.89161,1.97049,4.59619h0Z"/>

</g>
</svg>
