<?xml version="1.0" encoding="UTF-8"?>
<svg xmlns="http://www.w3.org/2000/svg"
     version="1.1"
     width="61.49462639mm"
     height="34.07700455mm"
     viewBox="0.00000000 0.00000000 174.31547332 96.59618805">

<g transform="scale(2.98165739)">   <defs>
      <style type="text/css"><![CDATA[
      .b {
        stroke: #000;
        stroke-linecap: round;
        stroke-linejoin: round;
        stroke-width: .25px;
      }
    ]]></style>
   </defs>
   <path class="b"
         d="M15.50633.46321c-1.34247-.84787-2.68869.03813-3.2921,1.11812-.85665,1.53325.09815,3.24344.79891,4.60479.84563,1.6428,1.08932,3.73899,1.16276,5.55481.08809,2.17795-1.52605,4.92212-2.48372,6.77673-1.1011,2.13237-2.43019,4.90636-4.86809,5.68351-1.34694.42938-2.38871.79275-2.62105,2.42425-.18011,1.26472.75321,1.87693,1.87174,2.28205,2.69281.97531,4.78619-.66693,6.46821-2.64025,2.13469-2.50438,3.41708-5.66257,4.32173-8.79814.84407-2.92561.22556-6.05193.08875-9.00529-.07365-1.58982-.05541-3.20135-.08875-4.78404-.02167-1.0289.05984-1.91807-.73696-2.66712-.15511-.14581-.36225-.32895-.62143-.54942Z"/>
   <path class="b"
         d="M9.69455,4.30396c-2.71205-.34433-3.9614,5.55363-4.77273,7.2373-.74569,1.54746-1.80762,2.93412-2.44209,4.55967-.67713,1.73487-1.25499,3.4726-1.65826,5.29979-.49018,2.22095-.54992,4.78462-.6722,7.06875-.11871,2.2174.11762,3.67818,2.55645,3.79607,2.8319.13689,4.11881-1.98389,3.60758-4.74592-.24536-1.32565-.74752-2.66123-.74366-4.01567.00431-1.51299.79734-3.01337,1.30167-4.41551,1.14466-3.18244,1.82494-6.47666,3.73978-9.31723.73592-1.0917,2.20856-2.34483,2.13256-3.76641-.05723-1.07032-.83567-1.99664-1.91774-1.89079-.37659.03684-.86208.2791-1.13136.18995Z"/>
   <path class="b"
         d="M15.43567,9.29523c.74186.32281,1.24479.87836,2.0585.74693.97982-.15826,1.41179-1.17989,2.23653-1.59287.90323-.45228,2.22775-.28521,3.24396-.38101,1.51541-.14285,3.05893-.26564,4.58056-.33857,3.3451-.16032,6.88255-.71815,10.19309-.22152,3.82662.57405,7.36838.6596,11.20961.46711,2.02578-.10151,4.06162-.06147,6.05078-.26641,1.2097-.12463,2.68079-.13666,3.17499-1.52206.19341-.54218.19062-1.58287.06881-2.1489-.23618-1.09746-1.22535-1.21101-2.28453-1.30566-3.02925-.27069-6.1562-.77769-9.19206-.84795-5.02659-.11633-10.18926-.10457-15.21411.26362-4.72271.34605-9.15961,2.05218-13.9686,1.34935-2.44477-.3573-5.79163-1.86072-7.71909.55978-1.95983,2.46114,3.21509,3.5333,4.55312,4.66109.3471.29256.81971.37148,1.00844.57705v.00002Z"/>

</g>
</svg>
