<?xml version="1.0" encoding="UTF-8"?>
<svg xmlns="http://www.w3.org/2000/svg"
     version="1.1"
     width="39.62957644mm"
     height="46.89269729mm"
     viewBox="0.00000000 0.00000000 112.33583867 132.92411722">

<g transform="scale(3.73216082)">   <defs>
      <style type="text/css"><![CDATA[
      .b {
        stroke: #000;
        stroke-linecap: round;
        stroke-linejoin: round;
        stroke-width: .25px;
      }
    ]]></style>
   </defs>
   <path class="b"
         d="M18.03258,10.24605c-2.82065,4.55499-7.30841,9.07046-9.10068,14.51656,1.78178-.84517,2.95999-2.56285,4.05263-4.20455,1.6441-2.47025,3.2882-4.94051,4.9323-7.41076.64115-.96333,1.28739-1.93299,2.09681-2.75998.56565-.57792,1.20666-1.08148,1.73839-1.69075,1.53037-1.75354,1.99518-4.16781,2.40306-6.45921.11206-.62952.20333-1.3479-.19732-1.84689-1.68497-2.09518-5.31452,8.86941-5.92519,9.85558Z"/>
   <path class="b"
         d="M21.26911,24.39644c-.0019.37329.0024.7721.21063,1.08191.1201.17869.29891.31166.41943.49006.15989.23667.20349.53122.23164.81544.13259,1.33844.01497,2.69289.1581,4.03025.14313,1.33736.5971,2.71991,1.6304,3.58091s2.74951.98092,3.65083-.01739c.24087-.26679.42314-.60314.7381-.77633.24295-.13359.54593-.15725.75357-.34098.23454-.20753.89104-.87814.90551-1.19099.10676-2.30744-1.02185-4.26626-1.38292-6.54777-1.02389-6.46964-.82789-13.06006-.83519-19.61022-.00156-1.40276-.04221-2.90318-.84838-4.05113s-2.68053-1.63728-3.60852-.58535c-.3003.3404-.45597.78145-.59735,1.2128-2.40339,7.33311-1.38746,14.34937-1.42585,21.9088h0Z"/>
   <path class="b"
         d="M14.77057,28.58008c-.55851,1.34829-.9209,2.79847-1.74225,4.00478.69322.2398,1.32768.64758,1.83374,1.17859.40048.42022.72782.92123,1.20778,1.24775.63688.43326,1.45173.49801,2.2217.4759,1.962-.05633,4.10909-.74592,5.0493-2.46889.41068-.75259.53647-1.70652.13709-2.46517s-1.40651-1.20183-2.17266-.81702c-.69896.35106-1.01955,1.23163-1.73201,1.55441-.28123.12741-.68709.10995-.81435-.17135-.14385-.31797.17725-.63699.44352-.86293,1.01328-.85992,3.60613-7.23582.74313-6.98675-.4624.04023-.7402,1.03943-1.06123,1.31379-.57984.49555-1.18418.6091-1.81694,1.01115-1.10618.70285-1.80179,1.79068-2.29683,2.98576v-.00002Z"/>
   <path class="b"
         d="M8.29017,25.2926l-1.61164,3.17982c.71658.22835,1.46763.34819,2.21968.35418.10707.00085.21909-.0018.31319-.05289.21548-.117.23404-.42838.14309-.65608s-.2589-.42064-.33297-.65438c-.13847-.43696.07106-.94719-.13791-1.35516-.12477-.24359-.37322-.39518-.55454-.60019s-.28372-.54512-.08964-.73809"/>
   <path class="b"
         d="M2.00554,30.12373c-.51898.12916-1.06956.24255-1.47291.59373s-.57446,1.03592-.19934,1.41715c.17182.17461.41755.25026.6525.31961,1.15279.34027,2.30558.68054,3.45837,1.02081.30435.08984.61278.18035.92996.19041.36126.01146.71636-.08182,1.06964-.15821,2.17313-.46991,4.42658-.31471,6.64435-.15721-.21552-.47841.05377-1.01991.25748-1.50347s.30127-1.13931-.1214-1.45023c-.53579-.39414-1.50136.0998-1.8667-.45603-.10979-.16702-.11751-.38222-.20952-.55966-.21332-.4114-.7877-.47321-1.23461-.35061s-.86409.37369-1.32747.39749c-1.25974.06418-2.01025-.93853-3.33912-.61066-1.06524.26283-2.11474,1.02651-3.24122,1.30687h-.00001Z"/>

</g>
</svg>
