<?xml version="1.0" encoding="UTF-8"?>
<svg xmlns="http://www.w3.org/2000/svg"
     version="1.1"
     width="44.47123560mm"
     height="115.09106407mm"
     viewBox="0.00000000 0.00000000 126.06020957 326.24242120">

<g transform="scale(1.83705163)">   <defs>
      <style type="text/css"><![CDATA[
      .c {
        stroke: #000;
        stroke-linecap: round;
        stroke-linejoin: round;
        stroke-width: .25px;
      }
    ]]></style>
   </defs>
   <path class="c"
         d="M66.87232,1.63l.66855,2.19666s.95507.66855.95507,1.43261v2.29217c0,1.14609-.28652,1.91014-.81181,2.57869s-.7163,1.3371-1.76688,1.62362-2.96072.85956-3.24724.95507-2.57869.95507-3.15174,1.05058-1.52811,1.05058-2.76971.57304-2.19666-.38203-2.48319-.38203-3.72478-.09551-4.10681-.19101-2.48319-.19101-2.48319-.19101l-2.19666-.28652-2.10116-.09551-2.48319.19101-2.38768.28652-2.6742.80151-3.05623.91762-1.91014.66855-1.52811.76406-2.57869.66855-1.43261,1.24159-2.00565,1.43261-2.19666,1.43261-2.00565,1.91014-1.71913,1.3371-.95507,1.52811-1.3371,1.24159v1.24159l-1.62362,1.14609-1.81464,2.19666-1.14609,2.38768-.85956,2.48319-.66855,2.86521v2.19666l-.66855,1.52811-.95507,3.15174-.85956,2.96072-.95507,2.76971-.57304,2.86521v5.53941l-.85956,1.43261v2.10116l.57304,3.15174-.09551,3.15174-.47754,1.81464v4.48883l.66855,3.53376v2.6742l.57304,3.24724.19101,3.53376v3.15174l.38203,8.11811.56884,2.61298,1.25104,2.71059,1.25104,3.33611,1.04253,2.39783.93828,2.91909-.10425,3.75312-.31276,2.08507.05221,5.82465-.24986,4.24756.49971,5.99655.74957,6.49628.49971,5.7467.99943,5.24698.49971,4.74727.99943,4.74727,1.49914,5.49684-.49971,3.9977-.49971,1.99886-.19075,1.76433-.73022-2.70181-.21907-1.6795-.29209-2.26369-.21907-2.33672-.36511-1.82555-.58418-1.60649-.58418-1.82555-.36511-2.19066-.14604-2.92088-.51115-1.53346-.36511-2.19066-.73022-2.48274-2.31403-9.14536-1.12344-6.29126-.44938-6.06657-.67406-4.94314v-5.84189l-1.13578-3.8197-.70235-4.04438v-2.92094l-.59465-4.08447v-3.57845l-.65727-3.28634-.51121-2.48301v-4.30875l-.29212-3.57845v-14.38685l.7303-2.92119-.21909-3.87057-.87636-1.67968-.87636-1.31453.65727-2.19089.21909-2.55604-.29212-2.48301.29212-2.92119.94939-2.19089,1.41342-3.28634.8505-3.79754.36515-3.65148.51121-2.62907.21909-2.40998.65727-2.04483.7303-1.2415.94939-1.46059,1.09545-1.38756,1.16848-1.31453,1.09545-1.46059,1.2415-1.53362,1.38756-1.60665,1.82574-1.2415,2.11786-1.60665,1.60665-1.46059,1.9718-1.46059,1.75271-1.38756,1.82574-1.46059,1.75271-.87636,2.55604-1.02242,2.77513-1.2415,2.49056-.87636,2.91363-.43818,3.14028-.14606,2.7021-.14606,3.35937.43818,2.40998-.07303h2.55604l2.99422.14606,1.9718.14606,2.48301-.07303,1.67968-.29212,1.53362-.36515,1.16848-.36515.45827-1.46619-.16557-1.73851-.49672-1.40736-.74508-1.15901-.91065-1.07622-.66229-.89566-.33114-.76006,1.32458-.74508h1.49015l1.73851.49672,1.94957,1.00842v-.00014Z"/>

</g>
</svg>
