<?xml version="1.0" encoding="UTF-8"?>
<svg xmlns="http://www.w3.org/2000/svg"
     version="1.1"
     width="45.30901187mm"
     height="33.63787399mm"
     viewBox="0.00000000 0.00000000 128.43491097 95.35136651">

<g transform="scale(8.46433857)">   <defs>
      <style type="text/css"><![CDATA[
      .b {
        stroke: #000;
        stroke-miterlimit: 10;
        stroke-width: .15px;
      }
    ]]></style>
   </defs>
   <path class="b"
         d="m5.18244,1.3595c.03354.08441-.34186.78748-.29788.97873.02316.10071.87799,1.51166.91492,1.68085.06857.31409.00912.3696.08508.46808.05444.07059.17178.10477.40427.17023.33643.09473.33557.05402.42554.10638.17953.10449.14609.24515.38297.617.15475.24292.25305.39267.40427.40427.09442.00723.18353-.0448.36169-.14893.13315-.07779.19971-.1167.23404-.17023.12823-.19995-.06625-.435.04257-.55319.07074-.07684.17575-.00223.40424-.02127.28149-.02347.55072-.17242.70215-.36169.09045-.11307.05853-.14008.19147-.51065.11868-.33081.24545-.59177.34042-.78723.2066-.42523.26508-.45938.29788-.65958.03943-.2406-.00525-.43411-.04254-.59573-.06885-.29834-.18372-.49612-.34042-.76596-.20435-.35187-.39603-.57742-.51065-.70215-.29132-.31699-.44937-.37912-.53192-.40424-.10898-.03314-.19501-.03473-.42554-.02127-.64658.03775-.9743.05936-1.19147.19147-.09848.05991-.29263.17804-.40427.40427-.04025.08157-.0694.18204-.12766.38297-.03815.13156-.06628.24182-.08511.31915-.41135-.00708-.82269-.01419-1.23404-.02127Z"/>
   <path class="b"
         d="m3.22498,4.10419c-.1937.06473-.78027.22467-1,.31915-.19287.08292-.68097.29584-.93616.36169-.12845.03314-.1651.0705-.53192.31915-.57599.39044-.66962.4231-.68085.53192-.02045.19806.26068.3696.51065.53189.51041.33136.96631.74084,1.46808,1.08511,1.16266.79773,2.10944,1.46002,3.06381,1.91489.27274.12997.78003.37567,1.42554.61703.09729.03638.2551.09412.46808.14893.43512.11197.67459.17358.93619.10638.38904-.09995.59796-.42596.68085-.36169.06601.05118-.07721.2496.02127.40427.05701.08957.14749.08969.31915.14893.0657.02267.60077.21194.61703.44681.01086.15668-.21625.23083-.1915.34042.03467.15338.51562.16776.65958.17023.69312.01196,1.26636-.11847,1.97873-.29788.25406-.064.58731-.14969.9787-.25531-.01541-.07477-.02859-.18869,0-.31915.04236-.19315.15433-.32214.25534-.42554.30118-.30826.48184-.3652.97873-.74469.3157-.24112.2374-.21402.44681-.36169.25378-.17896.38925-.23315.40424-.36169.01855-.15915-.16327-.29767-.19147-.31915-.23193-.1767-1.59445-.2283-2.06384-.23404-.67178-.00821-1.7746-.02167-2.70212-.34042-.53293-.18317-.92978-.48383-1.72342-1.08511-.23099-.17499-2.26431-1.72803-2.97873-2.02127-.14679-.06024-.27084-.08084-.29785-.08511-.33948-.05383-.48306.06595-.74469.08511-.56625.0415-.7608-.45599-1.17023-.31915Z"/>

</g>
</svg>
