<?xml version="1.0" encoding="UTF-8"?>
<svg xmlns="http://www.w3.org/2000/svg"
     version="1.1"
     width="92.23272845mm"
     height="30.54592887mm"
     viewBox="0.00000000 0.00000000 261.44707243 86.58695031">

<g transform="scale(5.18422646)">   <defs>
      <style type="text/css"><![CDATA[
      .b {
        stroke: #000;
        stroke-linecap: round;
        stroke-linejoin: round;
        stroke-width: .01px;
      }
    ]]></style>
   </defs>
   <path class="b"
         d="m48.85751.12865c-.16016.14453-.6875.28906-.79297.21875-.02344-.00781-.19922.09375-.39063.24609-.22656.17578-.45703.28906-.65625.30469-.20313.02344-.50391.16016-.83984.38281-.29688.19922-.59375.35938-.66406.35938-.08203,0-.25781.12109-.40234.25781-.25391.25391-.48828.39844-1.02344.65625-.13672.07031-.28125.16016-.30469.20703-.0625.11328-1.11719.64063-1.26953.64063-.16016,0-1.25,1.0625-1.25,1.22266,0,.06641-.0625.18359-.13672.26563-.07813.07031-.14453.17578-.15234.22266,0,.05078-.01563.15234-.01563.22656-.00781.07813-.09375.20703-.19141.29297-.14453.14453-.16797.24219-.16016.78516.03906,1.80859-.01563,2.29688-.29688,2.67188-.10156.13672-.16016.26563-.14063.28906.02344.02344-.01953.19141-.09766.36719-.10547.25781-.12109.40625-.07031.61719.03906.15234.07031.38281.0625.51953-.00781.26172-.44922,1.11328-.72656,1.40625-.25.25781-1.02734.74609-1.08984.6875-.02344-.03125-.18359.02734-.35156.10547-.16797.08984-.35938.16016-.42578.16016-.15234,0-.67188.29688-.92578.52734-.35938.32813-.87891.51172-1.46484.51172-.30469,0-.61719.03906-.69531.08203-.12109.0625-.18359.04688-.29688-.07422-.13672-.13672-.34375-.19922-.98438-.27734-.15234-.02734-.45703-.08203-.67969-.12891-.60156-.13672-.78516-.14453-.98438-.07422-.12891.05078-.26953.03516-.48047-.07031-.26172-.12109-.89453-.16016-1.53516-.09766-.35156.04297-1.60156-.07031-1.75-.16016-.11328-.05469-.34375-.07031-.61719-.03906-.33594.03125-.55859,0-.89844-.10938-.25391-.08984-.58203-.17969-.74219-.19531-.15234-.01563-.35938-.07812-.46484-.125-.09375-.05859-.32813-.11328-.51172-.13672s-.41406-.09766-.51953-.16016c-.10547-.06641-.24609-.11328-.32031-.09766-.07031.00781-.26953-.03906-.42969-.11719-.16797-.08203-.53125-.17969-.80078-.21875-.95313-.13672-1.14453-.16797-1.34375-.23828-.19141-.07422-.65625-.16016-1.70703-.32031-.61328-.09766-.98828-.22266-1.04688-.35938-.02344-.06641-.10156-.12109-.18359-.12109-.07813,0-.34375-.11328-.58203-.24609-.9375-.53125-1.14453-.63281-1.20313-.59375-.0625.03906-.63672-.38281-.73438-.54297-.08984-.13672-.01563-1.33594.09766-1.64063.0625-.17578.07813-.41797.03906-.67969-.03125-.23438-.07422-.54297-.08203-.69531-.05469-.58594-.34375-1.28906-.71875-1.73047-.08984-.10156-.26563-.33594-.39844-.51172-.17578-.22266-.32031-.32813-.52344-.35938-.14844-.02344-.38281-.10547-.51953-.16797-.3125-.14453-1.26953-.82422-1.30469-.92188-.01563-.03906-.13281-.125-.25391-.19141-.12891-.0625-.25-.18359-.27344-.26172-.03125-.08203-.25391-.24219-.51172-.35938-.40625-.1875-.54297-.24219-.97656-.36328-.0625-.01563-.22266-.03906-.35938-.05469-.12891-.00781-.38281-.05469-.55859-.10547-1.16016-.30078-2.19922-.35938-2.69531-.14063-.26563.10938-.3125.10938-.41797.00781-.07813-.08984-.28906-.12109-.71094-.12109-.49609,0-.63281-.03125-.82422-.18359-.19141-.14453-.32031-.17578-.79297-.16797-1.18359.00781-2.55859.45703-2.81641.90234-.07813.12891-.24609.29688-.38281.375C.12704,2.76146-.0253,2.94505.00985,3.21849c.03125.29688.44531.82422.64453.82422.08203,0,.20313.03125.28125.07813.12891.06641.26563.08203.84766.08203.08984,0,.43359.03125.76172.07813.32813.05078.69531.09766.81641.11328.125.00781.28516.07813.36719.15234.07813.07813.23828.13672.35938.13672.11328,0,.29688.03906.39844.08594.16016.07422.24219.06641.40234-.03906.16016-.11328.23047-.12109.39844-.03906.12109.05469.29688.0625.43359.03125.28125-.08203.58984-.0625,1.07031.05469.25781.06641.51172.06641.80078.01563.41016-.07031.46484-.0625.97656.19141.29688.14453.53516.29688.53516.33594,0,.04297.16016.12891.35938.21094.21094.07031.43359.21484.51172.32031.08203.10156.29688.23828.47266.3125.18359.07031.35156.20703.375.29297.03516.08203.23438.26563.44922.39453.21484.13281.39453.26953.39453.30078,0,.04297.07031.14453.15625.25.08984.10547.16016.27344.16016.375,0,.10547.08984.3125.1875.44922.10156.14453.28516.44922.40625.6875.19922.39063.21484.47266.13672.72656-.04688.16797-.08984.37891-.08984.47266,0,.09766-.05469.28906-.125.42578-.15234.29688-.28125,1.09375-.19531,1.25391.03516.05859.03516.25,0,.43359-.07031.35156-.03125.39844.75391.96875.38281.27734,1.27344.61328,1.40625.52734.08203-.04688.91406.15234,1.51953.375.17578.06641,1.17578.07422,2.16016.02344.20313-.01563.52344.02344.71484.07422.18359.05469.35938.07813.38281.05469s.12109,0,.21484.04688c.24219.12891,1.26563.38672,1.34375.33594.04297-.02344.25.01563.46484.08984.28125.09375.43359.10547.54297.04688.08203-.03906.19531-.04688.25781-.00781s.13672.05469.16016.03906c.05469-.03125.64063.05859,1.03906.15234.11328.03125.29688.06641.41797.08984.10938.01563.28516.07031.39063.12891.10547.04688.375.10156.61719.10938.23828.01563.45313.05859.48828.09766.14063.19922.49609.33594.82422.3125.19141-.00781.39063-.04297.4375-.07422.05859-.03125.23438.01563.40234.10547.35938.19141.86328.20703,1.03906.03906.10938-.11328.14453-.11328.375.02344.36719.21875.65625.28125,1.36719.29688.35938.00781.81641.07031,1.03125.15234.22656.07031.48828.13672.60156.13672.12109,0,.58594-.00781,1.04688-.00781.46485,0,.95313-.03125,1.08203-.06641.19141-.05469.32031-.03125.625.12891.62891.32031,1.22266.35938,1.51172.10547.19141-.18359.20703-.19141.92578-.32813.27344-.05859.49609-.12891.49609-.16016,0-.03906.26563-.14453.58594-.24219.75-.22266,1.48047-.54297,1.75781-.77344.12891-.10547.37891-.21094.55469-.23438.17578-.03125.41406-.14453.52734-.24609.12891-.12109.26953-.17578.36719-.15234.18359.04688.64063-.17578.95313-.46484.11719-.11328.32813-.26172.46094-.32813.12891-.07031.42578-.3125.65625-.54297.23438-.23047.59375-.55859.79297-.73828.26563-.23828.39063-.42188.46484-.67969.04688-.19922.16016-.50391.24609-.67969.16797-.34375.17578-.50391.11328-1.32031-.12891-1.42188-.12109-1.69531.08203-2.05469l.18359-.35156-.15234-.40625c-.18359-.52344-.13672-1.16797.11719-1.45703.08984-.10547.27344-.33594.39453-.51172.17578-.24219.41406-.41016,1-.69531.97656-.47266,1.81641-.96094,2.01563-1.16016.08594-.08984.21484-.16016.28906-.16016.15234,0,.4375-.21875,1.07813-.81641.27344-.25781.55078-.48047.63281-.50391.07813-.02344.19922-.16797.27344-.32031.27734-.59375-.11328-1.07422-.96875-1.18359-.26563-.03516-.37891-.00781-.51172.10938Z"/>

</g>
</svg>
