<?xml version="1.0" encoding="UTF-8"?>
<svg xmlns="http://www.w3.org/2000/svg"
     version="1.1"
     width="18.38725454mm"
     height="48.48289090mm"
     viewBox="0.00000000 0.00000000 52.12129109 137.43185873">

<g transform="scale(8.33348647)">   <defs>
      <style type="text/css"><![CDATA[
      .c {
        stroke: #000;
        stroke-linecap: round;
        stroke-linejoin: round;
        stroke-width: .01px;
      }
    ]]></style>
   </defs>
   <path class="c"
         d="m3.44944.12084c-.2.1-.6.3-1,.5-.3.2-.7.4-.7.4-.1,0-.3.4-.2.5,0,.1,0,.3-.2.8-.3.6-.3.8-.3,1.1,0,.2-.1.5-.1.6q-.1.3.1.9c.5,1,.5,1.1.8,1.3.2.2.3.3.3.5,0,.1.1.3.1.4.1.1.1.2.1.2,0,0,0,.2.1.4.1.3.2.4.1,1.1,0,.4-.1.8-.2.9-.1.2-.1.3,0,.4.1.1.1.3,0,.5,0,.1-.1.4-.1.5s-.1.3-.1.4-.1.2-.1.3c0,.3-.1.6-.3,1.1-.2.5-.7,1.6-.8,1.6,0,0-.1.1-.2.3-.1.2-.2.3-.3.4-.4.3-.6.9-.3,1.2.1.1.5.1.8-.1.1-.1.5-.1,1-.2.7,0,.8-.1,1-.2.1-.1.3-.3.4-.3.2-.2.8-.9.9-1.1,0-.1.2-.3.3-.4.3-.3.6-1,.5-1.2,0-.1,0-.2.1-.3.2-.2.4-.7.5-1.5.2-1,.2-1.3.3-3.4,0-.4.1-1.1.2-1.4s.1-.7.1-.8v-.5c0-.1-.1-.6-.1-1.1s-.1-1-.1-1.1c-.1-.1-.1-.3-.1-.4,0-.2-.1-.3-.2-.4-.1,0-.2-.1-.2-.2-.1-.5-.2-.6-.2-.6,0,0-.2-.2-.3-.4C4.54944.12084,3.94944-.17916,3.44944.12084Z"/>

</g>
</svg>
