<?xml version="1.0" encoding="UTF-8"?>
<svg xmlns="http://www.w3.org/2000/svg"
     version="1.1"
     width="59.09545714mm"
     height="20.09594016mm"
     viewBox="0.00000000 0.00000000 167.51471260 56.96489715">

<g transform="scale(3.74380148)">   <defs>
      <style type="text/css"><![CDATA[
      .b {
        stroke: #000;
        stroke-linecap: round;
        stroke-linejoin: round;
        stroke-width: .01px;
      }
    ]]></style>
   </defs>
   <path class="b"
         d="M11.65603.23423c-.18359.30469-.3125.36719-.84766.42578-.38281.04688-.48828.10156-1.11719.63672-.74609.64063-.96094.77734-1.32813.85547-.16797.03516-.28906.13672-.40234.34766-.08594.16797-.23047.30859-.32031.33594-.88672.17578-1.03125.23047-1.28516.48828-.14453.14844-.33984.26953-.42578.26953-.30469,0-.88672.3125-1.03125.55078-.17578.29688-.60938.59375-1.26562.89063-.27734.12891-.625.36719-.79297.55078-.16797.17578-.47656.44141-.6875.57813-.20703.125-.47266.36719-.58984.51953-.3125.41406-.64844,1.19922-.78516,1.84766-.11328.54297-.52734,1.30469-.71094,1.30469-.10547,0-.06641.42969.05469.58984.07422.09766.12109.33594.12109.57031,0,.56641.23047,1.22266.60547,1.72656.38672.50391,1.47266,1.33594,2.25781,1.71875.40625.19922.61719.35156.70312.52734l.12891.24219.20703-.25c.16797-.19922.34375-.28516.78516-.40625.6875-.17578,1.03125-.34375,1.67969-.82422.69531-.51172.76172-.53516,1.41797-.53516.87891,0,1.91797-.37891,2.56641-.9375.30469-.24609.57422-.35938,1.52734-.60938.39063-.09375.40234-.10938.54297-.55859.13672-.41406.16797-.45703.45703-.53516.35156-.09766.42578-.16797.35156-.35938-.03906-.08984-.10938-.12109-.22266-.09766-.38281.09766-1.76172.57031-2.70313.9375-.48828.19141-.80859.17578-.89844-.05078-.05469-.13281-.02344-.16797,1.16797-1.24609.41797-.38281.80859-.80078.86328-.9375.07422-.19141.17969-.26172.43359-.33594.39844-.10938.44922-.16797.44922-.64844,0-.41406.11719-.58203.47266-.66406.19922-.03906.23828-.10156.35938-.57422.24609-1.00781.64844-1.47266,1.36719-1.57422.19922-.03516.49609-.12109.66406-.1875.22266-.09375.51172-.125,1.18359-.10938.76953.01563.9375,0,1.22266-.14453.37109-.19141.80078-.21484,1.11328-.05469.29688.14063,2.58594.11719,2.95313-.03516.21484-.09375.32031-.09375.67969,0,.63281.16797,3.12891.12891,3.48047-.05469.23828-.12891.26953-.12891.55859.00781.16797.08203.43359.18359.58594.22266.36719.08984,1.94141.21094,4.07813.30469,5.18359.23438,5.55078.25781,5.85547.41797.08203.03906.21875.21484.3125.39063.16016.32031.16797.32813.50391.28125.22266-.03125.47266-.01563.67969.0625.32031.10547.35938.10547.78516-.08594.32031-.15234.625-.21875,1.12891-.24219.38281-.02344.89453-.09375,1.13281-.16016.24219-.0625.51563-.13672.60156-.16016.08984-.01563.22266-.13281.29688-.25391.09375-.17578.25391-.27344.66406-.40234.29688-.09375.625-.23047.72656-.29297.21484-.14453.85547-1.21094.76172-1.26563-.19141-.12109-1.67969-.39844-2.41016-.45703-1.13672-.07813-3.03125-.33594-4.67969-.63281-.74219-.13281-1.63281-.27734-1.96094-.31641-1.28516-.16016-1.73438-.24219-2.19922-.41016-.35938-.12891-.78125-.18359-1.71875-.23828-1.83203-.09766-3.55078-.22656-4.32031-.3125-.375-.04688-1.3125-.12109-2.07813-.16016-.76953-.04688-1.625-.10547-1.89063-.12891-.36719-.03125-.55859-.00781-.73438.08203-.30469.16016-.27344.16016-.48828-.03516-.28906-.23828-.79297-.26953-2.65625-.16797-1.76953.09766-2.77734.23438-3.09766.40234-.16016.08594-.23047.07031-.53516-.10547-.3125-.19141-.38281-.19922-.75781-.12891-.23438.05078-.57813.08203-.76953.08203s-.58594.08594-.87109.19922c-.28906.10547-.57813.17578-.63281.15234-.0625-.02344-.18359-.22266-.27344-.44141-.13281-.32031-.19922-.39063-.36719-.39063-.10547,0-.24609-.05469-.32031-.12109q-.15234-.16016-.3125.12109ZM8.88259,4.03501c.25391.12891.26953.18359.375,1,.07031.58984.23047.6875.41406.25391.16797-.375.61719-.4375.92969-.125.19141.19922.16797,1.23047-.03906,1.49609-.16797.21484-.91406.53516-1.23438.53516-.21484,0-.28516.16797-.28516.73437,0,.43359-.14453.625-.48047.625-.17578,0-.24219.04688-.30469.23047-.08203.23438-2.39063,2.64844-2.53516,2.64844-.17578,0-1.10547-.6875-1.41797-1.04688-.35938-.42578-.70312-.98438-.70312-1.16016,0-.05469.16797-.29688.36719-.52734.45703-.50391.75391-1.12891.83203-1.73828.11328-.94141.44141-1.41406,1.28125-1.85547.34375-.17578.82422-.50391,1.05469-.71875.23438-.21484.45703-.39063.48828-.39063.03906,0,.17578.05469.29688.13281.21484.12109.23047.12109.44141-.03906.26172-.20703.23047-.20703.51953-.05469Z"/>

</g>
</svg>
