<?xml version="1.0" encoding="UTF-8"?>
<svg xmlns="http://www.w3.org/2000/svg"
     version="1.1"
     width="50.14798184mm"
     height="44.57856412mm"
     viewBox="0.00000000 0.00000000 142.15181820 126.36442567">

<g transform="scale(4.86841469)">   <defs>
      <style type="text/css"><![CDATA[
      .b {
        stroke: #000;
        stroke-miterlimit: 10;
        stroke-width: .15px;
      }
    ]]></style>
   </defs>
   <path class="b"
         d="M13.35689,3.82651c.02191-.14981.04428-.3616.04254-.61703-.00146-.21701-.00302-.32751-.04254-.42554-.12674-.31439-.45023-.38242-.42554-.51062.01797-.09323.20236-.12646.29788-.14896.64575-.15207,1.18726-.74521,1.12766-.89362-.08997-.224-1.6062.42383-1.89362-.02127-.1123-.17395-.01456-.48004.14728-.64459.23465-.23859,2.41974-.28604,3.23569-.27029,1.16858.02258,1.05344-.16864,2.40427-.21277,2.16812-.0708,2.19113.43073,4.38593.54538.2356.0123.85016.03864,1.33746.45462.12335.10529.37613.32742.42554.68085.05002.35767-.13708.64362-.23404.78723-.33493.49615-.85901.69806-1.31915.85107-1.04871.34869-1.57303.52307-2.59573.59573-1.1864.08432-1.90817-.02499-2.93619-.10638-.93994-.07443-2.28827-.1376-3.95743-.06381Z"/>
   <path class="b"
         d="M13.22924,7.32651c-.2218.05826-.54007.1214-.92554.12766-.14798.00241-.47855-.00079-1.18085-.15958-.50333-.1138-1.52151-.38077-1.5-.51065.00833-.05023.16583-.04208.70212-.09573,1.00934-.10095,1.12582-.19717,1.18085-.25531.21078-.22269.05933-.4566.1915-.98938.05112-.20605.14398-.45395.54254-1.02127.46994-.66891,1.01254-1.44125,2.04257-2.23404.78745-.60608,1.18219-.90991,1.75531-.89362.26016.00739.64505.18588,1.40427.54254.87537.41125,1.31616.62048,1.46808.79788.66415.7756.46814,1.96533.41489,2.23404-.09213.46503-.2099.45926-.38297,1.21277-.1326.57721-.11353.79837-.28723,1.18085-.04892.1077-.18359.38333-.63831.86169-.15698.16513-.63586.65292-1.81915,1.40427-1.01508.64453-1.36484.73138-1.53192.76596-.1171.02423-1.19186.23682-1.43616-.1915-.10059-.17633-.01385-.42606.15958-.92554.20667-.59518.35947-.70349.35104-.98935-.00616-.20856-.09796-.50681-.51062-.86169Z"/>
   <path class="b"
         d="M12.46328,9.46481c-.72696.39148-1.23746.88663-1.24469.89362-.51614.50058-1.56467,1.44223-2.55319,2.1702-.63437.46719-1.17172.79312-1.46808,1.43619-.16586.35989-.25528.76584-.25531.76593-.03647.16559-.05673.45306-.09576,1.0213-.03268.47595-.03268.57452.03192.70212.11111.21942.36212.42348.57446.38298.22928-.04373.33661-.35789.41489-.54256.28775-.67886.91525-1.14404,2.17023-2.07446.8981-.66583.84546-.43387,1.24469-.8298.66708-.66159.71548-1.21146,1.49173-1.70642.08301-.05292.29214-.15796.71039-.36804.81293-.40833.99802-.45798,1.24469-.70212.06525-.06458.59384-.58777.44681-.92554-.02725-.06259-.08627-.13852-1.18085-.35107-.5278-.10248-.75906-.13242-1.05319-.06381-.18555.04327-.32648.10953-.47873.1915Z"/>
   <path class="b"
         d="M3.81432,16.67755c-.25766.20168-.62921.52808-1.37231,1.18086-.50601.44452-.92194.82004-1.21277,1.08511.11588.08722.54083.41467.47873.54254-.07422.1528-.80127-.06732-.89365-.09573-.22339.10638-.44681.21275-.6702.31914.09518.07672.23724.21065.35107.4149.04764.08551.27985.50217.15958.92554-.138.48572-.63629.61551-.57449.86169.03146.12537.17712.15733.35107.25533.2442.13757.5383.40202.76596.95744-.0491-.0098-.22153-.03784-.383.06383-.16946.1067-.29071.33353-.22339.54256.0499.15491.18173.23283.22339.25531-.39804.16521-.4967.32713-.51062.44681-.02039.17519.14157.2533.12766.47873-.01581.25595-.23621.34364-.1915.47873.02353.07112.10873.11967.54257.19148.40317.06673.60474.1001.89362.09575.48407-.00728.48929-.09346.82977-.09575.77371-.00519,1.17075.43701,1.37234.25533.09818-.08849.02267-.21017.03192-.67021.00906-.45145.01831-.91129.25531-1.05319.26898-.16106.72629.15021.8298.2234.24255-.09763.64163-.26654,1.117-.51064,1.61841-.83102,1.77109-1.32668,3.35107-2.23405.77002-.44223,1.20679-.59616,1.91489-1.18085.41949-.34637,1.0914-.9012.95746-1.24467-.11246-.28833-.75754-.33734-1.21277-.25533-.54422.09805-.90283.39885-1.08511.54256-1.02679.80945-1.27988.43489-2.71277,1.3085-1.43036.87209-1.47195,1.42444-2.55319,1.7234-.21271.05881-.7525.18713-1.40427.28725-.4577.0703-.8429.10709-1.117.12766-.14893-.06482-.52039-.25217-.73404-.67021-.2179-.42638-.24231-1.03546.06381-1.37234.15109-.16628.25464-.12529.57449-.31915.35556-.2155.42792-.38756.79785-.76595.59103-.60458.71783-.48404,1.24469-1.05319.34949-.37755.30814-.44618.63831-.79788.41922-.44656.80624-.67714,1.14893-.89362,1.60361-1.01297,2.4054-1.51944,2.45746-2.20212.02484-.32571-.11047-.74713-.383-.86169-.23654-.09943-.52744.05292-.6702.12766-.33768.17682-.52423.43542-.56299.48795-.51877.7027-1.4021.83737-3.01151,2.09714Z"/>
   <path class="b"
         d="M20.28243,9.4967c-.07837-.04391-.24371-.08246-.57446-.15958-.23096-.05383-.29761-.06064-.35107-.12766-.13745-.17224.00992-.49442.03192-.54254.12131-.26526.31686-.38947.57446-.57446.00009-.00006.25632-.18408.95743-.76596.20648-.17139.50104-.43393.8298-.79788.16214.043.37924.09229.63831.12766.1795.02451.72751.08984,1.43616,0,.62433-.07916,1.14264-.24951,1.53192-.41489.0787.1098.1835.28146.25531.51065.02649.08459.1152.38995.06384.79785-.04807.38174-.18472.5824-.44681,1.08511-.18533.35553.10095-.16287-.57446,1.21277-.43826.89261-.65738,1.33893-.73407,1.46808-.50986.85855-1.06577,1.4458-1.27658,1.65958-.47736.48413-.58072.46869-1.3085,1.18085-.27875.27277-.35513.36462-.86172.89362-.52338.54654-.9516.99368-1.3085,1.34042-.74533.72409-1.36301,1.18831-2.32977,1.9149-.41006.30818-.97189.71777-1.65958,1.18085-.02618.11972-.0784.29459-.1915.47873-.30292.49321-.80319.66338-1.02127.73404-.19257.06239-1.10046.35657-1.6915-.15958-.05408-.04723-.43921-.39282-.38297-.79787.04202-.30251.31003-.49277.82977-.86171.30542-.21681.4046-.24176.70212-.44681.3656-.25197.63141-.50069.79788-.67021.0517-.14267.14548-.34476.31915-.54254.18512-.21082.37573-.31966.54254-.4149.14053-.08025.34412-.17986.60638-.25533.21445-.19513.55237-.49185.98938-.82977.57559-.44507.82523-.5766,1.21277-.92554.24353-.21927.5809-.55981.92551-1.05319.00519-.1123.02432-.28409.09576-.47873.02985-.0813.08228-.20337.28723-.51062.1326-.19879.19293-.27103.31915-.44681.11584-.16132.10938-.16223.54254-.8298.25403-.39151.29129-.44522.35107-.57446.10706-.23148.16183-.43616.1915-.57446-.02142-.54626-.17502-.74905-.31915-.8298Z"/>
   <path class="b"
         d="M10.35689,21.72012c-.05099-.00078-.13824.04492-.35107.67021-.26675.78371-.19073.89108-.15958.92552.08725.09644.21783.05769.54257.06383.40875.00772.51312.07497.92551.12767.30844.03941.7572.06662,1.34045,0,.05423-.10495.15198-.25084.31912-.31915.16092-.06577.29681-.0231.57449.03192.47021.09319.70529.13977.82977.09573.26059-.09221.36368-.39691.54254-.92552.19308-.57071.10098-.63759.28726-1.14894.18927-.51962.34485-.6165.28723-.82979-.07568-.28015-.38464-.26323-.89362-.57446-.66904-.4091-.9761-.9525-1.65958-1.37234-.0741-.04552-.22165-.13199-.41492-.12766-.21304.00478-.36624.11734-.51062.2234-.32196.23654-.47943.5332-.54257.67021-.07327.159-.09558.26814-.15958.57446-.14276.68352-.21606,1.02332-.28723,1.30852-.22327.89487-.34399.92601-.38297.92552-.12106-.00153-.15521-.31712-.28723-.31914Z"/>
   <path class="b"
         d="M15.9739,23.02862c-.03046.01123-.42059.15533-.95743.1915-.28207.019-1.20447.08112-1.43619-.35107-.1019-.19008.0394-.27127-.06381-.73404-.06699-.30037-.1524-.38219-.12766-.57446.00717-.05562.0423-.26616.31915-.51064.58911-.5202,1.69083-.68025,2.32977-.76596.55261-.07413,1.20718-.15276,1.94681-.2234.0791.06264.25464.18402.51065.2234.30856.04745.54855-.05276.63828-.09575.0661.02844.45917.18991.89362,0,.38394-.16783.53989-.49632.57449-.57446.07169.05309.19223.13736.35104.2234.08142.0441.90213.47371,1.91489.28723.43552-.08018.47217-.19434.47873-.2234.04282-.19006-.38644-.36121-.35104-.51064.04355-.18385.74213-.1306,1.40424-.15958.34378-.01505.2493-.03351,2.20215-.38298,1.60495-.28722,2.03345-.34001,2.29785-.06383.20499.21411.21481.52513.22342.79787.01797.56856-.22647.97984-.47873,1.40425-.19412.32661-.57925.95804-1.3085,1.37234-.05182.02943-.28986.13664-.76596.35106-.84317.37973-.89709.38329-1.08511.51065-.52344.35457-.41623.53745-.82977.73404-.37805.17972-.74146.15704-1.21277.12766-.28561-.01781-.73856-.04607-.76596-.19148-.01929-.10236.18365-.20201.6702-.47873.66684-.37927,1.048-.59767,1.37234-.86169.18817-.15317.4606-.40584.73404-.79788-.33975.03014-.79843.07251-1.34042.12766-.65338.06648-2.16891.22691-4.18085.51065-2.40338.33894-3.60504.50841-3.95746.63829Z"/>

</g>
</svg>
