<?xml version="1.0" encoding="UTF-8"?>
<svg xmlns="http://www.w3.org/2000/svg"
     version="1.1"
     width="36.75728039mm"
     height="24.18878280mm"
     viewBox="0.00000000 0.00000000 104.19381031 68.56669128">

<g transform="scale(4.53625016)">   <defs>
      <style type="text/css"><![CDATA[
      .b {
        stroke: #000;
        stroke-linecap: round;
        stroke-linejoin: round;
        stroke-width: .25px;
      }
    ]]></style>
   </defs>
   <path class="b"
         d="M5.79616,7.40274c-.21447.28242-.40638.64403-.28649.97777.166.46212.77931.53882,1.26977.51525.76914-.03697,1.53575-.12648,2.29271-.26772.5643-.10529,1.24955-.38368,1.26363-.95755.30011-.01039.59748.17785.71648.45355s.05203.62121-.16137.83248c-.18296.18113-.44462.25658-.65364.40689s-.36244.45322-.20957.66037c.10148.13752.29115.16907.46145.18347,1.8776.15869,3.80952-.476,5.22718-1.71729.29439-.25777.56913-.73531.27536-.99379-.06691-.05887-.15261-.09092-.23623-.12175-3.19579-1.17821-7.29868-3.51918-9.9593.02832h.00002Z"/>
   <path class="b"
         d="M14.75766.87327c-1.58035-.25256-4.35601-.44709-5.93636-.69965.12341.90832.11109,1.83497-.03642,2.73969,1.19641.6088,2.62242.46381,3.93934.72411,1.32908.2627,1.97676.88265,2.89018,1.88322.31287.34272,1.18361.80478,1.3368,1.24282.27749.79349.11558,1.66302.11742,2.50363s.2616,1.79981,1.02336,2.15526c.58856.27463,1.30983.08536,1.82913-.3047s.87907-.95058,1.22754-1.49867c.33474-.5265.66948-1.053,1.00422-1.5795.41346-.65032.84463-1.40549.63776-2.14783-.13561-.48663-.52264-.85772-.90994-1.18206-2.54624-2.13225-3.84306-3.31215-7.12303-3.83632Z"/>
   <path class="b"
         d="M1.95864,3.36492c-.93491,1.51126-1.35161,3.27766-1.73455,5.01297-.08029.36382-.15857.75074-.03373,1.10177.22525.63338,1.01642.90971,1.28639,1.52536.25479.58105-.02823,1.29773.24486,1.87041.10369.21744.27859.39128.46905.54082.80472.63179,1.78398.99626,2.796,1.14638,2.67074.39617,5.79149.60591,8.48589.23266,2.30323-.31907,4.22663-1.07052,5.54734-2.98426.51968-.75303.84533-1.84317.24345-2.53228-.67562-.77354-1.98195-.42424-2.75871.24768s-1.35189,1.60668-2.2783,2.05009c-.50393.2412-1.07144.31446-1.5932.5142-.28955.11084-.5761.27957-.78906.50205-.27359.28581.04351,1.51713-1.03442.15286-1.03881-1.31476-2.94736-.85912-4.14719-1.85227-.95588-.79122-1.74488-2.61435-.8663-3.49062,1.09478-1.09191.27726-2.24552,1.06021-3.20819.43505-.53492,1.61126-.66907,1.92851-1.28124.31724-.61214-.25829-1.75669-.64605-2.32676-.67693-.99521-2.29602-.1176-3.15319.19242-1.27439.46093-2.3216,1.44566-3.027,2.58595Z"/>

</g>
</svg>
