<?xml version="1.0" encoding="UTF-8"?>
<svg xmlns="http://www.w3.org/2000/svg"
     version="1.1"
     width="25.91264400mm"
     height="20.09242817mm"
     viewBox="0.00000000 0.00000000 73.45319476 56.95487657">

<g transform="scale(3.41505846)">   <defs>
      <style type="text/css"><![CDATA[
      .b {
        stroke: #000;
        stroke-linecap: round;
        stroke-linejoin: round;
        stroke-width: .25px;
      }
    ]]></style>
   </defs>
   <path class="b"
         d="M.7293,10.81517c-.32835.17226-.71996.48625-.57217.82632.08897.20473.33378.28229.55024.33683,5.81199,1.46444,11.62398,2.92888,17.43597,4.39332,1.20604.30388,2.9051.34596,3.24028-.85176-.57088-.67809-1.50576-.896-2.37076-1.08964-3.75818-.84133-7.45577-1.9532-11.05468-3.32418-.2732-.10407-.59088-.26761-.60939-.55937-.01002-.15792-.22898-1.40874-.14353-1.54192,1.65566-2.58047,4.53664-3.45249,7.4577-4.38386.80536-.25679,1.64463-.44065,2.38234-.85352,1.53991-.86188,2.13156-3.20859.02841-3.61642-1.53722-.29809-4.11507,2.05179-5.2411,2.85139-3.69019,2.62041-7.07284,5.69835-11.10331,7.81281Z"/>

</g>
</svg>
