<?xml version="1.0" encoding="UTF-8"?>
<svg xmlns="http://www.w3.org/2000/svg"
     version="1.1"
     width="56.60356968mm"
     height="29.55135088mm"
     viewBox="0.00000000 0.00000000 160.45109392 83.76767804">

<g transform="scale(4.41901914)">   <defs>
      <style type="text/css"><![CDATA[
      .b {
        stroke: #000;
        stroke-linecap: round;
        stroke-linejoin: round;
        stroke-width: .25px;
      }
    ]]></style>
   </defs>
   <path class="b"
         d="M9.55639.40484c-1.90603-.04804-3.41824.24833-5.32088.12497-.60124-.03898-1.21132-.11559-1.80125.00686-.76719.15925-1.42712.64058-2.00955,1.16471-.12277.11048-.2492.23319-.28721.39392-.10038.42449.42345.80534.85936.78942,3.86375-.1411,6.79326.02143,10.19968-.1988,1.39268-.09004,2.78903-.104,4.18455-.11794,4.587-.04581,8.80399-.08792,13.39099-.13373.65615-.00655,1.69834-.01425,2.31646.20599.33276.11857.64296.30014.98518.38773.35755.09152.73573.07593,1.09829.00688.52706-.10038,1.05177-.32761,1.38967-.74438s.44203-1.04871.14775-1.49734c-.38019-.57959-1.21743-.63674-1.88945-.46687-.18102.04576-.36411.10385-.55021.08862-.20722-.01696-.39471-.12266-.58663-.20265-.60058-.25029-2.26042.11765-2.91107.11716-5.08577-.00381-8.13279-.13203-13.20869-.07544-1.52955.01705-4.14825.19774-6.00701.15089h.00002Z"/>
   <path class="b"
         d="M11.9648,6.02543c-.56816.26886-1.45253.58227-1.75793,1.13166-.1063.19122-.3836.70242-.30178.90533.09614.23841.06456.31528.32142.30497s.49698-.12254.73123-.2284c1.37653-.62208,2.82154-1.0925,4.30048-1.39999.62979-.13094,1.34173-.28202,1.67871-.82995.28079-.45656-2.03766-.74797-2.39727-.70058-1.17419.15473-1.50636.30987-2.57487.81696h.00001Z"/>
   <path class="b"
         d="M19.53485,4.76034c-.6403.1625-1.02696.96484-.75513,1.56692.19152.42419.61518.68469.9509,1.00704.11505.11047.22306.23159.36.31338.29816.17809.67263.13905,1.01703.09427.36666-.04768.73332-.09536,1.09997-.14303.72529-.09431,4.06629-.80275,2.40908-1.76209-.59807-.34622-1.37779-.83435-2.05019-.91634-.90123-.10989-2.14726-.38452-3.03166-.16014h0Z"/>
   <path class="b"
         d="M16.61282,8.38736c-.48962.15772-.6835.80523-.49648,1.28442s.64283.80167,1.1119,1.0128c1.22413.55099,2.6508.517,3.94237.15104s2.47193-1.04133,3.61137-1.75108c.18367-.11441.39384-.30713.30922-.50629-.02951-.06946-.09055-.11963-.14936-.16693-.28987-.23314-.57974-.46629-.86961-.69943-.08923-.07177-.19187-.14771-.30567-.13497-.31556.03535-.3087.65246-.62616.64542-.26073-.00578-.25848-.38596-.28081-.64579-.03236-.37662-.30763-.69783-.63553-.88591s-.70573-.26563-1.07625-.34048c-.20521-.04146-.41414-.08313-.62247-.06243-.91835.09126-1.06336,1.0003-1.51332,1.60351-.70698.94776-1.51522.21139-2.3992.49612Z"/>
   <path class="b"
         d="M16.77015,12.43119c.22339.03046.46926.09136.59122.28099.22227.34561-.12598.76723-.43855,1.03396-.69447.59264-1.36369,1.21487-2.00525,1.86442-.17469.17686-.3505.46952-.17377.64433.08849.08753.22728.09293.35165.08799,1.56033-.06203,2.66524-.27306,4.20244-.54784.55641-.09946,1.54661,0,1.93107-.32169-.04641-1.0058-.39991-1.51272.21909-2.30683.15365-.19712,1.01304-.95606.90863-1.18314-.04698-.10217-.14347-.17132-.23711-.23359-1.79114-1.19108-4.62141-1.98995-6.78654-1.70197-.75298.10015-1.4168.64264-1.54339,1.41542-.3643,2.22385,2.20759.86257,2.98052.96795h-.00001Z"/>
   <path class="b"
         d="M23.23019,12.97217c-.06444.02087-.10364.08437-.13721.1432-.44486.77952-.88125,1.56387-1.30909,2.35287.21528.04706.41494.16307.56243.32679.24954-.42012.67272-.70059,1.02905-1.03511.26693-.25061.67032-.71672.60315-1.12055-.03885-.23356-.47672-.75516-.74833-.6672Z"/>
   <path class="b"
         d="M29.33312,12.43765c-.25926.21943-.53874.47727-.55989.81626-.02529.40544.37608.75242.78225.75891s.77925-.25793,1.00592-.59503c.10043-.14937.21997-.33728.39916-.32037.17956.01694.26402.22743.4066.33787.30346.23505.72872-.03796,1.00967-.2995.31894-.29691.63799-.59392.94459-.90356.39823-.40217.77488-.82505,1.15131-1.2477.4952-.556.99039-1.11199,1.48559-1.66799.09981-.11206.20417-.23372.22366-.38251.01947-.14862-.09077-.32278-.23995-.30959-.2531.02239-.30629.34932-.60551.34541-.3074-.00402-.48179-.37751-.75281-.46904-.65866-.22244-1.16317.47742-1.63805.87934l-3.61253,3.0575h-.00001Z"/>
   <path class="b"
         d="M22.10527,17.03161c-.40812.03108-.9211.10977-1.02988.50435-.08256.29945.15613.61151.44626.72246s.61311.07343.92126.03431c.60726-.07709,1.21452-.15419,1.82177-.23128.72743-.09235,1.45798-.18532,2.16393-.38358,1.15128-.32332,2.20511-.917,3.2462-1.5053.80115-.45271,1.6023-.90542,2.40344-1.35813.21273-.12021.43608-.25089.55357-.46513s.07367-.53617-.15061-.6331c-.37782-.16329-.76987.41992-1.15594.27722-.09763-.03609-.17431-.11502-.27081-.15404-.21928-.08866-.45928.04855-.65577.18022-.71211.47723-1.42422.95445-2.13633,1.43168-.61306.41084-.73815.20145-1.3658.10608-.5653-.0859-.86967.2309-1.37387.49395-1.05764.55178-2.22766.88968-3.41743.98029h.00001Z"/>
   <path class="b"
         d="M3.18846,6.77219c-.0849-.10858-.18136-.21973-.31352-.25884-.36165-.10703-.60427.34379-.83383.64304-.25877.33733-.65176.5392-.98096.80823s-.61525.67673-.52187,1.0915c.04489.19939.17151.36899.29494.5319.52395.69152,1.0479,1.38305,1.57185,2.07457.20523.27087.41472.54595.69029.74481.22757.16421.49236.27024.7621.34764.55239.15849,1.66469.04937,1.40301-.8059-.19382-.63348-.68256-.82109.03924-1.17071.7082-.34304.41823-.94305-.7069-1.7793-.66853-.49689-.89198-1.57163-1.40436-2.22693h.00001Z"/>
   <path class="b"
         d="M11.07447,15.60685c2.82916.73732,3.4997.98906,5.74151,1.35252.56588.09174,1.15368.15657,1.70585.00248.15964-.04455.35375-.09933.47265.01613.11175.10851.07608.29265.03224.44212-.10712.36522-.22421.74752-.49635,1.01361-.44465.43475-1.14714.42482-1.76675.37189-2.49264-.21296-4.96471-.66594-7.37091-1.35064-.72661-.20676-1.45927-.4403-2.08344-.8659-.90893-.61977-1.50795-1.58853-2.07996-2.52825-.24978-.41036-.50536-.91871-.28451-1.34533.10285-.19867.29697-.34259.38018-.55025.11479-.28647-.00937-.61332.03746-.91836.04912-.31997.30457-.59836.61915-.67476s.66925.05382.85966.31562c.09699.13336-.32522.6223-.37587.73641-.1444.32526-.19755.24128-.107.59875.11541.4556.75218.88649,1.03956,1.22936,1.30002,1.55105,2.61926,1.87907,3.67651,2.15461h.00002Z"/>

</g>
</svg>
