<?xml version="1.0" encoding="UTF-8"?>
<svg xmlns="http://www.w3.org/2000/svg"
     version="1.1"
     width="27.77118576mm"
     height="42.84951040mm"
     viewBox="0.00000000 0.00000000 78.72143835 121.46315210">

<g transform="scale(4.56959085)">   <defs>
      <style type="text/css"><![CDATA[
      .b {
        stroke: #000;
        stroke-linecap: round;
        stroke-linejoin: round;
        stroke-width: .01px;
      }
    ]]></style>
   </defs>
   <path class="b"
         d="m3.27493.06013c0,.05078-.09766.11328-.21875.13672-.44531.10547-1.65625,1.57813-1.81641,2.21875-.02344.10938-.11719.23047-.20703.25391-.09375.03125-.27344.24219-.39844.46484-.12891.23047-.32812.51172-.44141.63281-.26563.28516-.25391.42969.0625.62109.27344.17578.85156.17578,1.14453.01953.21094-.12109.57031.10938.75391.46094.07813.16797.16016.57813.19922,1,.03125.39453.10547.83984.16797.97656.05469.14453.08984.26563.0625.26563-.02344,0,.05859.16797.18359.375.21094.35156.21875.42578.22656,1.50391.00781.61719.03906,1.16797.07031,1.22266.03125.05859.07422.33594.09766.64062.0625,1.01563.10156,1.41797.14453,1.61719.02344.11328.05469.29688.07031.40625.01563.11328.05469.25781.09766.3125.03125.05859.07813.66406.10156,1.35156.05859,1.66406.05859,1.51172-.00781,3.35938-.04688,1.39453-.07813,1.68359-.20703,1.96094-.24609.50391-.58203,2.44141-.46484,2.64844.04297.08203.03125.19141-.03906.30469-.0625.09766-.12109.44141-.13672.77734-.00781.32813-.05469.65625-.09375.73438-.09766.18359-.16797,1.34375-.08203,1.34375.03125,0,.10547.08984.15234.19922.15234.32031.77734.58594,1.55859.64844l.69141.05859.08594-.23437c.04688-.12891.12891-.27344.18359-.3125.14453-.11719.48828-1.01563.47266-1.22266-.00781-.10547.03125-.28125.09766-.39844.0625-.12109.09375-.32031.07031-.44141-.02344-.12891.00781-.29688.08984-.41797.07031-.10156.125-.25391.125-.32813,0-.39844.51172-.83984.96094-.82422.17578.01172.91406-.00781,1.67969-.03125.15234,0,.44141.01563.64063.05859.69531.10938,1.23047.10938,1.47266-.00781.17578-.09766.26953-.09766.42188-.03516.11328.05078.23438.06641.28125.04297.03906-.02734.19141-.06641.32813-.07422.14453-.01563.44141-.0625.65625-.10938.22266-.05859.55859-.11328.76172-.13672.19922-.01563.44531-.08203.54297-.12891.39844-.20703.57422-1.01563.25391-1.18359-.08594-.04688-.16016-.06641-.16016-.04688,0,.07031-.67188-.29688-.76563-.41797-.06641-.08594-.16016-.10547-.35938-.0625-.43359.09375-2.42578.04688-2.79297-.06641-.32813-.10156-.97656-.21484-1.38281-.24609-.21094-.02344-.44141-.07422-.52344-.11328-.07813-.03906-.19141-.07031-.25391-.07031-.72656.03906-.89453-.09766-.96094-.74609-.0625-.625.02344-.91797.32813-1.07031.29688-.16016.41797-.15234.80859.04688.28125.14453.375.16016.58203.08984.42578-.15234,1.08203-.12891,1.60156.0625.54297.20703.82422.21484,1.28125.0625.28516-.09375.375-.08594.90234.08203.48047.16016.60156.23047.70313.4375.13672.26563.3125.44922.69922.69141.21484.13281.24609.14063.55859.01563.36719-.14453,1.33594-.77734,1.33594-.88281,0-.03125.18359-.14063.40625-.24609.43359-.20703.71484-.60156.71484-1,0-.12109.03125-.27344.07031-.35156.10547-.19141-.23828-.5625-.53516-.58594-.12109,0-.32031-.02344-.45703-.03906-.12891-.02344-.41406-.05469-.64063-.07031-.21484-.01563-.52734-.04297-.67969-.06641-.15234-.01563-.53516-.05469-.83984-.07813-.3125-.02344-.72656-.07422-.91797-.12109-.19531-.03906-.37891-.0625-.40234-.04688-.03125.02344-.26953.05469-.52734.07031-.35938.03125-.54297.00781-.79297-.10938-.17578-.08984-.39063-.15234-.48047-.15234-.08594,0-.40625-.03516-.71094-.08203s-.67188-.07813-.82422-.07031c-.14453.00781-.30469-.02344-.35938-.08203-.05469-.05469-.18359-.09375-.28906-.09375-.23047,0-.86328-.36328-.92578-.53125-.08203-.19922.08594-.41406.55078-.70313.23047-.15234.47266-.35156.51953-.4375.04688-.09766.18359-.19531.30469-.22656.12109-.02344.32813-.11719.45703-.19922.13672-.07813.29688-.14453.36719-.14453s.15234-.05469.17578-.12109c.03125-.0625.18359-.18359.35156-.26953.16797-.08203.48047-.32031.69531-.52734.21875-.20313.48828-.41797.60938-.48047.12109-.06641.32031-.23438.44922-.375.125-.14453.42188-.40234.65625-.57031.22266-.16797.41406-.34375.41406-.38281,0-.03125.11328-.12891.24219-.19141.13281-.07422.28516-.21875.33594-.32031.04688-.10547.18359-.22656.30078-.26563.15234-.05469.23438-.15234.26563-.32813.03125-.16016.12891-.27734.25391-.34375.10547-.04688.21875-.15234.24219-.23047.02344-.08203.11328-.16797.19141-.19141.08203-.02734.20703-.19531.28906-.37109.07813-.17578.20703-.36719.28906-.41406.07031-.05469.21484-.23047.30859-.39844.09766-.16016.21094-.29688.25-.29688.08594,0,.32031-.51172.35156-.77734.00781-.09375.07031-.26563.14453-.36719.0625-.10547.16016-.34375.21484-.51953.04688-.18359.12109-.33594.15234-.33594.03906,0,.14453-.15234.23047-.34375.14453-.28906.15234-.39453.08984-.69922-.04688-.19922-.09766-.44531-.10547-.55859s-.07813-.32031-.16016-.46484c-.07813-.16016-.125-.39844-.11719-.56641.02344-.27344-.02344-.34375-.41797-.73438-.625-.61719-1.07813-.96094-1.20703-.91406-.0625.02344-.32813-.03125-.57813-.12891-.25391-.08594-.53516-.15234-.62109-.11719-.09766.02344-.24219,0-.32813-.04297-.10547-.0625-.22656-.05469-.40234.01563-.40625.16797-1,.92188-.90234,1.15234.02344.06641-.08984.27344-.23047.46484-.15234.19922-.32031.52734-.37891.72656l-.09375.36328.35156.32031c.36719.33594.83203.47656,1.21484.38281.25-.06641.29688-.02344.65625.56641.3125.51953.32031.57813.16016,1.21875-.03125.10938-.07031.48828-.10547.83203-.03125.39844-.08594.64453-.14063.67188-.05859.01563-.10547.125-.10547.23828,0,.28125-.05469.35156-.41797.60156-.35156.23047-.65625.58203-.73438.83203-.03125.09375-.12891.19922-.20703.22266-.08203.02344-.17578.12109-.19922.20703-.03516.09766-.23438.25-.46484.35938-.50391.22656-.71094.39453-.91406.73047-.14453.23828-.375.45312-1.01563.92578-.12891.09766-.35938.29688-.52734.43359-.16016.14453-.70313.46484-1.19922.71094-.76172.375-.92969.43359-1.08984.35938-.22266-.09375-.46094-.44531-.39063-.55859.02344-.04688.00781-.15234-.03906-.23828-.05859-.11328-.05859-.21875.00781-.35547.0625-.13281.0625-.23828.00781-.34375-.05859-.10938-.04688-.20703.02344-.35156.12109-.23047.04688-.46484-.25-.82422-.16797-.19922-.19922-.3125-.19141-.72656.00781-.27344-.02344-.67188-.07031-.88672-.11328-.48828-.19141-1.25781-.17578-1.67188,0-.16797-.04688-.47266-.11328-.67188-.07031-.19531-.10156-.42578-.07813-.50391.02344-.08203-.00781-.25781-.08203-.39453-.07813-.16016-.14453-.51172-.16016-.91797-.00781-.36328-.05469-.73047-.10156-.80859-.04297-.08984-.12109-.60156-.16797-1.15234-.08984-.88672-.12891-1.05469-.37109-1.48047C4.38431.33356,4.11478.09528,3.65774.02888c-.25781-.03906-.38281-.03125-.38281.03125Z"/>

</g>
</svg>
