<?xml version="1.0" encoding="UTF-8"?>
<svg xmlns="http://www.w3.org/2000/svg"
     version="1.1"
     width="29.51516759mm"
     height="40.47468083mm"
     viewBox="0.00000000 0.00000000 83.66509914 114.73142558">

<g transform="scale(6.53780177)">   <defs>
      <style type="text/css"><![CDATA[
      .b {
        stroke: #000;
        stroke-miterlimit: 10;
        stroke-width: .15px;
      }
    ]]></style>
   </defs>
   <path class="b"
         d="m.1622,12.97381c-.0155-2.08911-.07867.54523-.08508-3.14893-.00439-2.52161-.00659-3.78241.04254-4.93616.03931-.9234.11151-2.1731.25531-3.65955.12201-.04871.26434-.09454.42554-.12769.41675-.08563.77716-.04865,1.0213,0,.36865-.18414.65771-.3512.85107-.46808C3.31198.24719,3.52005.03875,3.86435.0802c.16559.01996.19427.07739.51062.12769.33942.05396.42188.00616.55322.08508.21472.12903.26178.41742.29785.63831.05804.35565-.01422.52277-.04254.93616-.01239.18103-.00519.2453.04254.97876.02954.4538.05273.90808.08514,1.36169.06622.92584.03156,1.21143.08508,2.85107.03931,1.20514-.02185,2.41296.04254,3.617.00726.13519.02533.43976-.08508.80853-.11707.39093-.26764.48358-.42554.80847-.30414.62573-.05438.91754-.25531,1.61707,0,.00012-.17664.61493-.63831,1.10638-.90125.95941-2.81946,1.20923-3.57446.42554-.33838-.35126-.28516-.74628-.29791-2.46814Z"/>
   <path class="b"
         d="m5.99204,14.25042c-.17853-.08789-.41931-.20825-.68085-.42554-1.08203-.89899-.91473-2.12457-1.53192-2.29785-.18805-.0528-.43774-.00476-1.06384.51062C1.73135,12.84771-.02432,14.62957.46011,15.44195c.13049.21881.61182.35858,1.57446.63824.31183.09058.55255.14673,1.02124.25537.14026.03253.91412.21185,1.57446.34039,1.0918.21252,2.29529.36823,4.08514.55322,3.29681.3407,3.9115.29779,4,.04254.04187-.12079-.11395-.33588-.42554-.76599-.30841-.42566-.55988-.77283-.9787-1.06378-.46362-.32208-.89117-.40778-1.65961-.55322-.48901-.09259-.43237-.04169-1.53192-.17023-1.29706-.15161-1.70734-.26117-2.12762-.46808Z"/>

</g>
</svg>
