<?xml version="1.0" encoding="UTF-8"?>
<svg xmlns="http://www.w3.org/2000/svg"
     version="1.1"
     width="32.73373406mm"
     height="25.27727844mm"
     viewBox="0.00000000 0.00000000 92.78853875 71.65216565">

<g transform="scale(5.33209547)">   <defs>
      <style type="text/css"><![CDATA[
      .a {
        stroke: #000;
        stroke-linecap: round;
        stroke-linejoin: round;
        stroke-width: 0.01px;
      }
    ]]></style>
   </defs>
   <path class="a"
         d="M15.85371.10206a.44375.44375,0,0,1-.33313.04846.72735.72735,0,0,0-.22411-.03029c-.03028.01212-.11508.03029-.18171.04846s-.20593.04239-.315.06057c-.12719.01817-.212.07268-.23621.15142-.04846.15748-.49061.33919-.73289.3089a.23373.23373,0,0,0-.28468.109,1.01634,1.01634,0,0,0-.06662.72077.72743.72743,0,0,1,.06057.27256c0,.13931.06057.2241.30284.40581.212.16354.34525.22411.4361.19988a.27885.27885,0,0,1,.24833.07268.77445.77445,0,0,0,.28468.1696.65525.65525,0,0,1,.28467.24833c.109.18776.109.19988-.01211.4785a.79782.79782,0,0,0-.0848.40581c.02423.07874-.0424.18776-.24227.38764a1.21217,1.21217,0,0,0-.30891.4361,2.19851,2.19851,0,0,1-.13325.35736.4285.4285,0,0,0-.05451.25439c.0424.06662-.44821.64809-.67837.80556a.74042.74042,0,0,0-.23017.27862.40539.40539,0,0,1-.18776.218.781.781,0,0,0-.2665.27862,1.86285,1.86285,0,0,1-.45427.44215,1.299,1.299,0,0,0-.39976.424.60078.60078,0,0,1-.23016.25439c-.06663.01817-.12114.06057-.12114.09085a.82342.82342,0,0,1-.15748.23622,3.30662,3.30662,0,0,0-.315.50272,1.01337,1.01337,0,0,1-.38764.44216,1.32623,1.32623,0,0,0-.55724.60569.99785.99785,0,0,1-.315.33313c-.15142.11508-.3513.28467-.44821.37553a1.48972,1.48972,0,0,1-.38764.23016.51716.51716,0,0,0-.3089.24833.96581.96581,0,0,1-.24228.27257c-.14536.09691-.16354.09085-.38158-.04846a1.90753,1.90753,0,0,1-.40582-.41793,4.29281,4.29281,0,0,0-.29679-.39975,3.51638,3.51638,0,0,1-.32707-1.32041,1.09978,1.09978,0,0,0-.18159-.539.67473.67473,0,0,1-.13325-.43,1.07007,1.07007,0,0,0-.15142-.52089,1.14343,1.14343,0,0,1-.15142-.38158,3.35621,3.35621,0,0,0-.24834-.854A3.10527,3.10527,0,0,1,6.14448,5.838C6.0718,5.46249,5.563,5.23232,4.8483,5.25655c-.53906.01211-.68443.01817-.93882.01211-.0848,0-.19382.00606-.24833.01212-.1696.02423-.49667.36947-.66021.70866a.87894.87894,0,0,1-.3937.43609,2.52966,2.52966,0,0,0-.38764.25439,4.16532,4.16532,0,0,0-.76317.83586,2.81257,2.81257,0,0,1-.33313.44215,2.43428,2.43428,0,0,0-.32707.49667,2.03663,2.03663,0,0,1-.212.36341c-.03634.03029-.17565.18777-.315.34525L.021,9.44787l-.01211.57541c-.01211.56329-.00606.57541.17565.76317a.7199.7199,0,0,1,.18171.2665.35914.35914,0,0,0,.12114.18777c.06662.06057.12113.09085.12113.06662,0-.07874.36948.1696.46033.30891.06663.109.14537.13931.33313.13931a1.03115,1.03115,0,0,1,.35736.06056c.08479.04846.1817.03635.34524-.03634a1.2392,1.2392,0,0,1,.45427-.09085.37486.37486,0,0,0,.26045-.05451,1.01816,1.01816,0,0,1,.62386-.26651.658.658,0,0,0,.3513-.07268.89568.89568,0,0,1,.39976-.09085.53065.53065,0,0,0,.32707-.109c.12114-.09691.18171-.109.29073-.06057.109.05452.19382.03634.38764-.06057a.64634.64634,0,0,1,.33313-.09085,1.66241,1.66241,0,0,1,.33313.41187c.18777.29679.28468.3937.424.41793a.44771.44771,0,0,1,.28467.20593,1.53991,1.53991,0,0,0,.41793.36947,1.38636,1.38636,0,0,1,.3937.33313,2.18286,2.18286,0,0,0,.47849.39976,1.20711,1.20711,0,0,0,.69655.28467,1.83941,1.83941,0,0,1,.47244.0848c.16959.07268.19382.06663.38158-.14536a.82922.82922,0,0,1,.26651-.218c.03028,0,.07874-.06663.09691-.15748a5.62911,5.62911,0,0,1,1.07207-1.20533c.13325-.13325.22411-.26045.20593-.28467-.08479-.0848.103-.29073.33313-.35736.13326-.0424.25439-.12114.27257-.18171a.7288.7288,0,0,1,.26044-.24227,1.7876,1.7876,0,0,0,.49667-.54513,1.82512,1.82512,0,0,1,.49061-.55117.95489.95489,0,0,0,.321-.29679.78243.78243,0,0,1,.27861-.26651.7569.7569,0,0,0,.27862-.29073A9.74735,9.74735,0,0,1,14.812,7.334a1.645,1.645,0,0,0,.28467-.3937,1.53907,1.53907,0,0,1,.27256-.36947,5.07366,5.07366,0,0,0,.75106-1.23561,3.34216,3.34216,0,0,1,.26651-.45427,3.934,3.934,0,0,0,.2665-.424c.07268-.13325.19988-.3513.27862-.4785A.90384.90384,0,0,0,17.047,3.3122c-.02423-.37553-.01212-.44215.12719-.642a2.0855,2.0855,0,0,0,.218-1.07813c0-.03634-.006-.23016-.01211-.424a1.1003,1.1003,0,0,0-.36947-.87826C16.7683.00515,16.7683.00515,16.39883.00515A1.463,1.463,0,0,0,15.85371.10206ZM4.30924,8.01844a1.40674,1.40674,0,0,0,.218.26651.46078.46078,0,0,1,.1393.24227.42274.42274,0,0,0,.09086.218.22608.22608,0,0,1,.01817.26045.34158.34158,0,0,0,.03028.3513c.1272.27862.02423.43-.27256.41187a1.45734,1.45734,0,0,0-.55723.13931l-.34525.15142-.29073-.15142a.966.966,0,0,1-.48455-.48455l-.19382-.33919.12719-.212c.07269-.11508.15142-.20595.18171-.20595a2.14966,2.14966,0,0,0,.59963-.59963.55552.55552,0,0,1,.5633-.24228A.45987.45987,0,0,1,4.30924,8.01844Z"/>

</g>
</svg>
