<?xml version="1.0" encoding="UTF-8"?>
<svg xmlns="http://www.w3.org/2000/svg"
     version="1.1"
     width="42.90388315mm"
     height="46.37209190mm"
     viewBox="0.00000000 0.00000000 121.61733166 131.44844439">

<g transform="scale(4.30598027)">   <defs>
      <style type="text/css"><![CDATA[
      .b {
        stroke: #000;
        stroke-linecap: round;
        stroke-linejoin: round;
        stroke-width: .15px;
      }
    ]]></style>
   </defs>
   <path class="b"
         d="m1.68503,26.53519c-.44885.95887-.9317,1.90183-1.44735,2.8265-.09715.17422-.1989.37031-.15003.5637.05939.23504.31363.36055.5475.42441,1.7593.4804,3.50665-.81287,4.66121-2.22458,2.09711-2.56417,3.33526-5.8188,3.47273-9.12847.01004-.24169.02663-.51189.20496-.67534.16441-.15068.4099-.15777.6211-.2294.51935-.17615.79589-.72186,1.14772-1.14254.48566-.5807,1.16602-.9569,1.82533-1.3289,3.60893-2.03625,7.06296-4.33345,10.51321-6.62832.24414-.16239.49719-.33415.64107-.58963.10788-.19155.14474-.4141.22522-.61868.32489-.8259,1.25507-1.19634,1.99155-1.69157,1.36834-.92011,2.2326-2.54635,2.22956-4.19528-.00085-.45851-.07303-.9385-.34575-1.3071-1.32386-1.78929-4.11334,1.58841-4.95396,2.47217-3.5102,3.69033-7.99239,6.28095-12.40767,8.81973-1.74283,1.00212-3.48565,2.00424-5.22848,3.00636-.42103.24209-.84668.4876-1.19691.82406-.18731.17994-.35046.38354-.53495.56636-.26472.26232-.57107.47962-.84646.73016-.36951.33618-.58823.82507-.76501,1.29229-.11087.293-.19466.62106-.0869.91522.06309.17224.18575.31461.28987.46563.35521.51521.50014,1.14235.63792,1.75279.10805.47871.21669.9626.21236,1.45333-.01227,1.38953-.66871,2.38857-1.25782,3.6471Z"/>

</g>
</svg>
