<?xml version="1.0" encoding="UTF-8"?>
<svg xmlns="http://www.w3.org/2000/svg"
     version="1.1"
     width="62.56917859mm"
     height="19.72264262mm"
     viewBox="0.00000000 0.00000000 177.36146965 55.90674495">

<g transform="scale(3.50959183)">   <defs>
      <style type="text/css"><![CDATA[
      .b {
        stroke: #000;
        stroke-linecap: round;
        stroke-linejoin: round;
        stroke-width: .25px;
      }
    ]]></style>
   </defs>
   <path class="b"
         d="M4.52344,5.74234c-1.62721.06367-3.59258.31938-4.25088,1.80885-.15252.34509-.20994.75197-.05983,1.0981.23456.54087.87421.76375,1.45197.88102,2.09788.4258,4.26692.23128,6.39543.0036,10.22305-1.09352,20.36966-2.91297,30.62739-3.60986,2.88078-.19572,6.12422-.17472,8.19081,1.84181.58478.57062,1.10178,1.31363,1.90057,1.48538,1.47186-.68781,1.99816-2.69295,1.37424-4.19301s-2.12674-2.49103-3.6968-2.90861-3.22312-.34653-4.84608-.27245c-4.59133.20956-8.88245.59141-13.39437,1.36945-4.98357.85937-10.00318,1.50984-15.04117,1.94934-2.87885.25114-5.76373.43339-8.6513.54637h.00002Z"/>
   <path class="b"
         d="M6.20225,14.00515c.87154.58881,3.66394,1.77179,4.71564,1.78599,9.9145.13392,15.83416-.74065,24.93175-1.88441,2.71401-.34121,6.75175-.84605,9.31594-1.79854.41444-.15395.84481-.3326,1.11862-.67971.42644-.54062.34756-1.31615.17725-1.98332-.40155-1.57304-1.40118-3.20043-2.99662-3.50082-.61766-.11629-1.33992.49257-1.95167.63676-2.90104.68379-4.24975,2.26471-7.07938,3.20108-1.98569.6571-4.57517.51492-6.64847.79097-4.38991.58449-11.57325,1.48678-11.78452-.28639-.31139-2.61347-1.51241.22121-1.51241.22121-.6158.1815-3.43083-.4116-3.31696-1.04341.19459-1.07965,1.79526-1.65298,1.6347-2.73821-.07668-.5183-.58013-.89193-1.09705-.97742s-1.04271.05746-1.53937.22432c-1.19694.40214-2.34413.95213-3.40719,1.63351-.61439.3938-1.52243.74489-1.59523,1.47103-.2553,2.54643-.20527,4.08944,1.03499,4.92735h-.00002Z"/>
   <path class="b"
         d="M20.62049.2058c-.46513-.11998-.99634-.13279-1.38723.1464-.16634.11881-.29542.28246-.40829.45289-.57714.87149-.77113,1.98733-.52196,3.00248.03157.12862.07052.25708.13826.37087.13337.22405.36439.37004.59358.49437.93937.50957,1.99807.79745,3.06613.83376.48573.01651,1.017-.03638,1.36932-.3712.67268-.6393.69675-2.34091.1989-3.09048-.56573-.85178-2.10029-1.59444-3.04871-1.83908h0Z"/>

</g>
</svg>
