<?xml version="1.0" encoding="UTF-8"?>
<svg xmlns="http://www.w3.org/2000/svg"
     version="1.1"
     width="49.34284091mm"
     height="47.12697045mm"
     viewBox="0.00000000 0.00000000 139.86948763 133.58820477">

<g transform="scale(5.79267105)">   <defs>
      <style type="text/css"><![CDATA[
      .b {
        fill: #000;
        fill-rule: evenodd;
        stroke: #000;
        stroke-miterlimit: 2.61313;
        stroke-width: .28346px;
      }
    ]]></style>
   </defs>
   <path class="b"
         d="M13.15856,3.45782c-1.70581.159-2.37085-.14429-1.995-.91077C12.83093.93499,15.354-.29838,22.0061.29177c.98511.02753,1.79602.17181,1.38782,1.12766-.20227.69388-.40491,1.38785-.60718,2.08173-2.1322.44815-4.35925.52017-6.72229.04337l-2.90588-.0867h0Z"/>
   <path class="b"
         d="M11.2069,8.402c-1.1134-1.19962-.89624-2.16824.65063-2.90582.72278-.66501,1.44568-1.33002,2.16846-1.99503,2.09631,1.41647,1.96606,3.94672.8241,6.9826-3.07678,3.73239-6.16199,7.45541-10.40894,10.01846-1.49573,2.3205-2.91248,2.49393-4.29358,1.69147.1571-2.23398,2.84656-4.28683,6.24536-6.28867,2.92322-2.50101,5.61987-5.00229,4.81396-7.50302h0Z"/>
   <path class="b"
         d="M17.75585,10.05007c1.37305-2.46191,2.77478-4.57483,4.38037-4.25027,1.05493-.49152,1.12732.46259-.04321,1.82153-1.35034,2.16144-2.85754,4.11279-4.55408,5.81158.22546,1.11316-.60059,2.22607-2.34192,3.33951-.02893.27469-.05786.54935-.08679.82401,1.85022-.50656,3.80127-.91132,6.11511-.95413.47693-.26022,1.12744,0,1.95178.78064,1.80249,1.79236.32507,3.58502-1.25769,5.37793-.24536-.56381-.49194-1.59079-.7373-.30362-.36145-.41922-.7229-.83847-1.08423-1.25769-3.37415-2.01883-7.51978-.84161-11.70996.52045-.75183.47903-1.4021.24658-2.03845-.08679.67944-.40479,1.35901-.80954,2.03845-1.21436.0144-.21686.02881-.43365.04333-.65051,3.10815-3.25275,6.21643-6.50552,9.32458-9.75827h0Z"/>

</g>
</svg>
