<?xml version="1.0" encoding="UTF-8"?>
<svg xmlns="http://www.w3.org/2000/svg"
     version="1.1"
     width="51.15927674mm"
     height="30.36041476mm"
     viewBox="0.00000000 0.00000000 145.01846714 86.06103256">

<g transform="scale(3.87780914)">   <defs>
      <style type="text/css"><![CDATA[
      .d {
        stroke: #000;
        stroke-miterlimit: 10;
        stroke-width: .15px;
      }
    ]]></style>
   </defs>
   <path class="d"
         d="M24.39908.51844c.15601.06421.21191.23999.43164.27393.17871.02759.31763-.06177.53198-.19165.63208-.38306.94214-.58472,1.06372-.5105.21045.12817-.31836.84717-.02124,1.53174.2019.46509.59497.47656.66504.83691.0874.4502-.4375.88843-.89917,1.29077,0,0-1.64233,1.4314-2.97876,2.91504-.22974.25513-.6001.77832-1.34033,1.80835-3.24121,4.5105-3.37988,5.32812-3.4043,5.87256-.02246.49976.04419.92261-.21265,1.48926-.33789.74512-.94458,1.09692-1.91504,1.65967-.22437.13013-.47852.26099-.6814.16357-.19922-.0957-.29004-.38306-.38232-.67432-.08691-.27417-.06543-.37964-.19263-.55225-.06934-.09399-.13428-.14185-.21167-.27759,0,0-.07935-.13892-.12378-.31958-.20142-.81836.12378-1.95703.12378-1.95703.19873-.69604.42554-1.17017.42554-1.17017h0c.00439-.00952.93457-2.1853,2.1355-4.47412.40112-.7644.62573-1.14697.94971-1.69604.6377-1.08032,1.05762-1.71069,1.76587-2.34033.46875-.41675,3.93555-3.81616,4.27051-3.67822Z"/>
   <path class="d"
         d="M27.10733,2.15393c.78345,1.51685,1.55322,6.61719,1.55322,6.61719.19507,1.29199.37183,1.26636,2.36157,8.53174.0647.23657.22729.8606.00439,1.54956-.36743,1.13574-1.6853,2.15063-2.7915,1.89722-.53076-.12158-.8584-.49951-1.30615-1.01611-.25732-.29688-.80029-.92285-.94922-1.83496-.09668-.59253.07178-.69922-.02124-1.42554-.07642-.59692-.2478-.97559-.42554-1.42554-.5249-1.32959-.79199-2.49316-1.25537-4.5105-.09717-.42285-.16895-.76611-.21094-.97144.12256-.15576.26611-.38989.29614-.68823.0332-.32935-.09741-.48096-.31934-1.02124-.31738-.77295-.46338-1.46924-.57446-2-.04102-.1958-.06982-.35742-.08765-.46289,0,0-.04297-.27271-.06128-.49463-.03516-.42603.17798-1.59937,1.12769-2.5105.2251-.21606.45386-.43115.82983-.57446.39697-.09058.72681-.10815.95752-.10645.30371.0022.45947.03833.5957.12769,0,0,.16919.11084.27661.31909Z"/>
   <path class="d"
         d="M9.10611,16.96277c-.43457.18481-.82129.49536-1.59448,1.1167-.5686.45679-.61572.54126-.63843.63843-.15942.68018.99194,1.47168,1.4043,1.75513.25586.17578,1.12939.74976,2.45752.95752.67725.10596,1.19849.07788,1.46802.06396,0,0,3.08179-.1604,5.80859-.19165,1.67505-.01904,5.9519.08105,8.93604.06396,2.12183-.01221,3.21021-.01538,4.56396.12769,1.6665.17627,2.49976.26416,2.77661.35107.53564.16797.95459.3667,1.5.22339.73999-.19434,1.14014-.86743,1.21265-.9895.33447-.56274.32593-1.10596.31909-1.53198-.00659-.40918-.01489-.93213-.31909-1.43604-.40283-.66748-1.0896-.91211-1.69141-1.11694-1.24097-.42236-2.31299-.32837-2.42554-.31934-7.41235.59399-14.875-.19458-22.30859,0-.28198.00732-.83667.01855-1.46924.2876Z"/>
   <path class="d"
         d="M7.70303,16.93055c-.68652-.1228-5.33423.04688-5.58521.15967-.25952.1167-.39307.33252-.44678.41479-.57983.88745-1.56909,1.05933-1.5957,1.69165-.00342.08154.00708.21729.57446.89355.87573,1.04395,1.32764,1.56836,2.01074,1.69141.06519.01172.35278-.00269.92554-.03198.83765-.04297,1.25659-.06421,1.72339-.0957,2.27783-.15332,2.6145-.0813,2.96167-.13281,0,0,.13281-.02368.26172-.05859.88232-.23853,1.88208-1.32617,2.0105-1.46802.46387-.51172.69604-.76758.70215-.92554.04224-1.07568-2.91553-2.02637-3.54248-2.13843Z"/>

</g>
</svg>
