<?xml version="1.0" encoding="UTF-8"?>
<svg xmlns="http://www.w3.org/2000/svg"
     version="1.1"
     width="17.58600697mm"
     height="48.81436087mm"
     viewBox="0.00000000 0.00000000 49.85012609 138.37144192">

<g transform="scale(2.94535979)">   <defs>
      <style type="text/css"><![CDATA[
      .b {
        stroke: #000;
        stroke-linecap: round;
        stroke-linejoin: round;
        stroke-width: .01px;
      }
    ]]></style>
   </defs>
   <path class="b"
         d="M5.51827.23883c-.78906.27344-1.25391.58594-1.35938.91406-.02344.07813-.22266.26172-.42969.41406-.25.17578-.48828.44922-.65625.75391-.14453.25391-.38672.63281-.53125.83203-.19922.28125-.28516.52734-.38281,1.03906-.0625.36719-.12109.81641-.12109,1,0,.17578-.05469.50391-.11719.71875-.06641.21875-.12109.46484-.12109.55469,0,.09375-.07031.30469-.16016.48047s-.16016.42188-.16016.55859c0,.3125.22266.75.48047.9375.26563.19141,1.13672.21484,1.3125.03906.16797-.16797.54297-.24219.92578-.17578.22656.03906.41016.00781.67188-.11328l.37109-.16016.50391.25781c.48047.24609.52734.25391,1.57422.26953,1.51172.01563,2.14453.07422,2.55859.22656.20313.07031.54688.14063.76172.16016.71875.0625.96094.125,1.24609.32813.27344.18359.36328.19922,1.64063.22266,2.03516.04688,2.25781-.05469,3.03516-1.375.39063-.66406.34375-.89844-.27344-1.47266-.69531-.64844-1.27344-1.11328-1.78516-1.44141-.29688-.19141-.51172-.40625-.61719-.60547-.27734-.54688-.86328-1.11328-1.41406-1.37891-.28125-.13672-.51172-.27734-.51172-.32813,0-.09375-.84766-.94922-.95313-.94922-.03906,0-.22266-.12891-.40625-.28125-.34375-.28906-2.35938-1.32031-2.58594-1.32031-.07031,0-.30469-.07031-.51953-.15234-.21484-.08594-.51953-.15234-.66406-.14453-.15234,0-.32813-.01563-.39063-.03906-.06641-.02344-.48047.07813-.92188.23047Z"/>
   <path class="b"
         d="M1.47139,11.14508c-.10547.28906-.3125.35938-.60938.21484-.33594-.16016-.44531-.09375-.66406.41016C.01436,12.18414-.00126,12.32086.00655,13.27399c.00781.58203.05859,1.40625.11328,1.83984.10547.76563.12109.8125.59766,1.55078.27344.41406.53906.88672.59375,1.03906.12891.38281.63281,1.10547.85547,1.22266.09766.05859.48047.39453.85547.74609.54688.51953.76172.67969,1.11328.79297.65625.19922,1.26563.53516,1.45703.78125.13672.1875.15234.26563.07813.52344-.04688.16797-.05469.40625-.01563.54297.03125.12891.05469.76563.05469,1.42969-.00781.65625.02734,1.34375.07422,1.52344.04688.17578.10156.71094.13672,1.19922.10156,1.80859.19922,2.6875.32813,2.87891.07031.10547.14453.41406.16016.69531.14063,2.16797.29297,3.45703.46875,4.16797.06641.25781.12109.59375.12109.75391,0,.32813.23438,1.27734.51953,2.07813.11328.32031.19922.64063.19922.70313,0,.07422.07422.32813.16797.58594.08984.24609.17969.52734.19531.61719.03906.24609.26172,1.0625.46875,1.71875.10547.32813.22656.77734.27344,1,.03906.21484.17578.75781.28906,1.19922s.23047.90625.25391,1.03906c.10547.57031.36328,1.44141.49609,1.67188.08203.14453.30469.32813.54688.44922.22266.11328.53516.30469.6875.42578.16797.125.45313.24609.67969.28516.20703.04297.55078.11328.75781.17578.34375.09766.41797.08984.80078-.07031.24219-.09766.54297-.17578.6875-.17578s.43359-.04688.64063-.11328c.20703-.0625.58594-.17578.84766-.25391.51953-.15234.64063-.26563,1.09766-.9375.35156-.52734.375-.75781.22266-2.13672-.04688-.41406-.09375-.91016-.10156-1.09375-.01172-.18359-.07422-.39453-.12891-.46484-.06641-.07422-.13672-.33594-.17578-.58594-.08984-.60547-.18359-1.07813-.33594-1.63672-.07422-.25781-.12891-.61719-.12891-.80859s-.08984-.70703-.19922-1.13672c-.11328-.44141-.25781-1.29688-.32813-1.91406-.06641-.61328-.15234-1.24609-.19141-1.39844-.05078-.15234-.08203-.49609-.08203-.76172-.00781-.26172-.0625-.76563-.12891-1.11719-.0625-.35156-.15234-1.16016-.19141-1.80078-.04688-.64063-.13672-1.32031-.19141-1.51953-.0625-.19922-.16797-.83203-.24609-1.40234-.07422-.57422-.20313-1.39844-.28125-1.83984-.14453-.76563-.28125-1.90234-.35156-2.83984-.03906-.55859.15234-.97656.52734-1.11719.47266-.19531.70313-.41016.9375-.86719.125-.25391.36719-.67188.52734-.93359q.29688-.48047.25391-1.21484l-.03125-.73828-.46484-.42188c-.25391-.23438-.57422-.48828-.70313-.57031-.13672-.08594-.67969-.50391-1.20703-.93359-.53516-.43359-1.23438-.91406-1.57031-1.08203-.32813-.16797-.71875-.40625-.86328-.52734-.21484-.19141-.32813-.23047-.69531-.23047-.29688,0-.58203-.06641-.89453-.21094-.29688-.13672-.66406-.22266-1.02344-.24609-.40234-.03125-.66406-.10547-.91406-.25-.32031-.18359-.75-.32031-1.58203-.49609-.19531-.03906-.44141-.125-.5625-.18359-.12891-.0625-.35938-.13672-.51953-.16797s-.44922-.17578-.625-.32813c-.18359-.15234-.56641-.39063-.84766-.51953-.27734-.13672-.58984-.33594-.69531-.44141-.24609-.25391-.76953-.51953-1.03906-.51953-.17578,0-.24219.05078-.30469.24219Z"/>

</g>
</svg>
