<?xml version="1.0" encoding="UTF-8"?>
<svg xmlns="http://www.w3.org/2000/svg"
     version="1.1"
     width="26.32098910mm"
     height="16.78174985mm"
     viewBox="0.00000000 0.00000000 74.61070218 47.57035684">

<g transform="scale(3.19713885)">   <defs>
      <style type="text/css"><![CDATA[
      .b {
        stroke: #000;
        stroke-linecap: round;
        stroke-linejoin: round;
        stroke-width: .01px;
      }
    ]]></style>
   </defs>
   <path class="b"
         d="M15.14953.19641c-.12109.15234-2.28906,1.25-2.48047,1.25-.23438,0-1.92969.77344-2.21094,1.00781-.125.10156-.26172.19141-.30078.19141-.10547,0-.83984.33594-1.60156.72656-.33594.16797-.65625.3125-.71875.3125-.08984,0-1.21094.54297-1.91406.92188-.11328.0625-.58984.27734-1.07031.48828-.48047.20703-1.12891.55078-1.44141.75781s-.94531.61719-1.40625.91406c-.46484.30078-.85547.58203-.875.62891-.01563.04297-.18359.25-.35938.44922-.48047.51953-.61328.87891-.69531,1.83203l-.07031.83203.45312.92188c.25.49609.51172.94922.58594,1,.0625.05469.24609.25391.39844.45313s.35156.42578.44141.50391c.34375.30469,1.32031.72266,1.51172.64844.05469-.02344.20703,0,.33594.05859.23828.08594.34375.10938,1.95313.38281,2.80078.48047,2.94141.48828,3.87109.21484.91797-.27344,3.54297-.56641,4.04688-.45703.16016.03516.65625.05078,1.11328.04297.45703-.01563.88672.00781.96875.04688.125.07031.6875.18359,1.55859.32031.34375.04688.45703.03125.80078-.14453,1.0625-.53516,1.48047-1.01562,1.48047-1.71875,0-.25.07031-.53906.20703-.82422.17578-.36719.27344-.47266.54297-.58594.44922-.19141,1.40234-.48828,1.71484-.51953.45313-.0625.87891-.36719,1.14063-.83203.23438-.40625.24219-.44922.13672-.75781-.11719-.37891-.39063-.59375-1.38281-1.10547-.625-.32031-.66406-.32813-1.51953-.35156-.48047-.00781-.97656-.05859-1.09766-.10547-.10938-.04688-.56641-.14453-1-.20703-.71094-.11328-1.22266-.23047-2.38281-.58594-.21484-.0625-.69531-.13281-1.05469-.14844-.70703-.04297-1.90625-.36328-1.96094-.53906-.07422-.18359.03125-.30469.4375-.51172.85938-.42188,1.55469-.87109,2.05859-1.3125.28906-.24609.79297-.67188,1.12109-.94141.55859-.46484.84766-.81641,1.17578-1.42578.10938-.21484.10938-.3125.03906-.55859-.10547-.34375-.46484-.82422-.625-.82422-.05469,0-.19922-.08203-.32813-.18359-.19922-.16797-1.04688-.45703-1.33594-.45703-.0625,0-.18359.08984-.26172.19141Z"/>

</g>
</svg>
