<?xml version="1.0" encoding="UTF-8"?>
<svg xmlns="http://www.w3.org/2000/svg"
     version="1.1"
     width="47.62044824mm"
     height="38.82158845mm"
     viewBox="0.00000000 0.00000000 134.98705110 110.04554500">

<g transform="scale(5.59901992)">   <defs>
      <style type="text/css"><![CDATA[
      .a {
        stroke: #000;
        stroke-miterlimit: 2.61313;
        stroke-width: 0.28346px;
      }
    ]]></style>
   </defs>
   <path class="a"
         d="M10.76074,6.22949c.625-2.51611,1.30078-4.73828,2.335-4.89844A3.4805,3.4805,0,0,1,15.69824.145q1.645,1.03271.53516,2.37256C15.15723,6.39795,9.46191,12.62988,7.20215,13.96c-.96094.82031-2.08984,1.67871-.34375,1.875,2.4209.43359,4.68555.86719,6.39063,1.30078q-.03809,1.53076-2.832,1.99023c-.02539.127-.05078.25488-.07617.38281a36.16776,36.16776,0,0,1-9.18457-.99609c-1.62988-.55859-.938-1.33789-.38281-2.10352q3.84595-3.12012,7.38574-6.54443a7.7576,7.7576,0,0,1,2.60156-3.63525Z"/>
   <path class="a"
         d="M10.7998,16.37012c-.35352-2.64258,1.41211-4.25586,4.63086-5.166a2.29324,2.29324,0,0,1,1.7207-.80322q.46.4585.91895.91846a23.84938,23.84938,0,0,1-2.25781,2.334q-.86133.63281.26855.957a11.05242,11.05242,0,0,1,2.44922,1.0332c2.25781.23438,5.2168.1582,5.43359,1.30078a3.96342,3.96342,0,0,1-.38281,1.83691c-.2041.02539-.4082.05176-.6123.07715-.02539-.20508-.05176-.4082-.07715-.61328h-.22852a4.40652,4.40652,0,0,1-3.25391,1.22461c.03906-.20312.23047-.4082.57422-.61133q.55518-.48047-.11426-.65039a16.5607,16.5607,0,0,0-3.21387-.07715,1.21281,1.21281,0,0,1-1.68457.15332c-2.59668-.0127-4.33105-.47266-4.1709-1.91406Z"/>
   <path class="a"
         d="M5.8623,1.79053q-1.51025.65039-.26758,1.91309a3.59672,3.59672,0,0,0,3.78906,1.875,7.23715,7.23715,0,0,0,2.10449,0Q13.479,4.00977,13.01855,2.8999a1.69938,1.69938,0,0,0-1.22461-.07617c-.52246-.20215-.88086-.34863-.99414-.65039C9.3252.50146,8.34375.09375,7.585.25977A2.40127,2.40127,0,0,0,5.8623,1.79053Z"/>

</g>
</svg>
