<?xml version="1.0" encoding="UTF-8"?>
<svg xmlns="http://www.w3.org/2000/svg"
     version="1.1"
     width="49.55309176mm"
     height="46.37260862mm"
     viewBox="0.00000000 0.00000000 140.46546849 131.44995148">

<g transform="scale(4.30598027)">   <defs>
      <style type="text/css"><![CDATA[
      .b {
        stroke: #000;
        stroke-linecap: round;
        stroke-linejoin: round;
        stroke-width: .15px;
      }
    ]]></style>
   </defs>
   <path class="b"
         d="m12.79237.11166c-.7503-.08737-1.28929.39561-1.91131.71772-.61106.31643-.99983.57349-1.48787,1.08782-1.00702,1.06127-1.92193,2.02933-1.84409,3.55711,2.37355.12935,5.69563-.45262,6.67631,2.36717.19046.54765.13072,1.24458-.29688,1.61601-.3779.32826-.68413.45221-.98752.88498-.20765.29621-.36921.63208-.62621.89528-1.13694,1.16434-2.98461,1.34025-4.29681,2.24149-.60726.41707-1.15172.89176-1.76113,1.31732-.6303.44015-1.6348.87622-2.08144,1.48862-.59601.24318-1.16628,1.05265-1.65047,1.4948-.49482.45184-1.06637.84359-1.43065,1.41438-.57657.90343-.96005,2.08582-1.01486,3.14771-.08314,1.61082,1.02561,2.45736,1.65503,3.6254.78753,1.32202,1.91968,2.33513,3.36362,2.78635,1.73223.54131,3.58952.7026,5.19378-.02692,1.17481-.53423,1.91442-1.24222,2.38285-2.43999.2677-.68452.88643-1.75029.11767-2.30425-.64846-.46727-1.59854.06217-2.27112.25489-.80792.2315-1.65101.37272-2.50678.28674-.40279-.04047-.76369-.24859-1.15604-.33024-.45696-.09509-.94986-.09349-1.36093-.31132-.93219-.49399-1.07858-.98074-1.32964-1.89645-.25864-.94333-.27593-1.10782.47817-1.91003.7978-.8487,1.58866-1.66069,2.57087-2.30287.90825-.59383,1.95174-1.09469,2.94231-1.50317.7336-.30251.96749-.64344,1.74064-.6404.38025.00149.8113.05627,1.1733-.05564.60807-.18798,1.06507-.72111,1.54365-1.11294.76968-.63017,1.62618-1.08266,2.4472-1.66922,1.23496-.8823,2.37501-1.98346,2.4728-3.56467.07032-1.13701-.24337-2.38827-.55194-3.45749-.13804-.4783-.10565-1.0393-.29385-1.49468-.15602-.37752-.49167-.68238-.67842-1.03524-.37695-.71224-.91114-1.62261-1.60889-2.07476-.75449-.48892-2.08836-.87661-2.99734-1.02639-.35097-.05783-.97317-.09537-.614-.02713Z"/>
   <path class="b"
         d="m13.32954,16.94289c-1.04198.01064-.77478.54165-.90038,1.4026-.09751.66843-.1282,1.38181-.18277,2.04991-.48367-.2006-.55642-.49036-.79694.15845-.15112.40765-.14691,1.04991-.14921,1.48693-.00543,1.02939.75894,2.03055,1.44743,2.77886.39427.42853.94416.55629,1.41725.89698.38991.28079.73307.64017,1.11807.91026.39719.27864.81629.38564,1.15326.76093.40422.45019.47477.69886,1.08315.93998.71347.28277,1.36918.63085,2.12487.67152.56159.03023,1.10888.08197,1.6731.04949.17281-.27523,1.48311.11918,1.90376.12957.76655.01893,1.5162.05969,2.28398.05969,1.6721,0,3.27068-.79975,4.4749-1.98289.43109-.42355.74652-.78344.84038-1.36257.05889-.36336-.03817-.35477.23257-.72504.34672-.47417.75408-.89466,1.0668-1.40643.37774-.61817.39809-1.06936.36702-1.74637-.03053-.66523.34366-1.11923-.47578-1.44722-.58474-.23404-1.31893-.18795-1.93966-.37414-.50066-.15017-1.08503-.34831-1.63242-.31691-.14623.60049.55513,1.06504.41165,1.60227-.14997.56153-1.59142,1.09954-2.04545,1.35661-.62148.35188-1.3442.53038-2.00274.80714-.67077.2819-1.2063.1626-1.92321.16419-.29961.00066-.61763.02989-.89836-.05798-.30393-.09513-.52284-.44017-.8323-.54313-.76367-.25408-1.67974.0884-2.46428-.16884-.90371-.29632-1.5596-.92163-2.26722-1.51254-.55766-.46569-1.23585-.90471-1.72959-1.38178-.64192-.62026-.50567-1.45261-.50902-2.24477-.00147-.34657.07869-.70611-.22727-.89056-.18796-.11331-.89154-.00753-.6216-.0642Z"/>
   <path class="b"
         d="m11.9438,25.15938c.12165-.6223.97611-.81414,1.51633-.77263.53743.04129.7081.19671.94001.65773.20171.40098.35975.66723.2186,1.11932-.10891.34881-.33516.63514-.43423.98617-.31778,1.12591-1.54556,2.37717-2.66489,2.80942-.33363.12884-.72711.17154-1.07488.27021-.34091.09672-.68754.23088-1.04292.2223-.82097-.01981-1.54992-.50853-2.36223-.57947-.80196-.07004-1.41499-.35181-2.1646-.60965-.23661-.08139-.9933-.315-1.0766-.63743-.10324-.39959.55916-.60282.84419-.73173.7969-.36041,1.46953-.88771,2.28118-1.22665,1.06688-.44552,2.23287-.74052,3.36075-.95514.3253-.0619.69233-.13561,1.00256-.252.2489-.09339.5162-.33128.65674-.30046Z"/>

</g>
</svg>
