<?xml version="1.0" encoding="UTF-8"?>
<svg xmlns="http://www.w3.org/2000/svg"
     version="1.1"
     width="51.08356717mm"
     height="33.58132124mm"
     viewBox="0.00000000 0.00000000 144.80384316 95.19118182">

<g transform="scale(5.41829972)">   <defs>
      <style type="text/css"><![CDATA[
      .b {
        stroke: #000;
        stroke-linecap: round;
        stroke-linejoin: round;
        stroke-width: .25px;
      }
    ]]></style>
   </defs>
   <path class="b"
         d="m23.50307,2.85434c.53499.02701.66399.55402.616,1.04102-.088.91299-.53401.375-1.05598.772-.59602.45502-.26202,1.10403-.40302,1.76498.802.29202,2.16602-.95801,2.58899-1.51196.582-.76303,1.08701-1.74203,1.231-2.69601.09401-.62198.30702-1.689-.245-1.98499-.799-.427-1.145.44397-1.548.931-.524.63397-1.02899.71399-1.69299,1.15598-.38799.258-1.011.82401-1.244,1.229-.47501.82199-.63,1.845-.655,2.77798-.04001,1.492-.42801,1.17603-1.735,1.49301-2.33501.569-4.17,1.59799-6.321,2.436-1.57498.61401-2.98999,1.776-4.44301,2.65903-1.30098.78998-2.64699,1.66595-2.79599,3.26895.369.01804.752.00504,1.121.01901.424,1.46902-2.71999,1.53101-2.895.68799-.23801-1.14398,1.588-2.17398,2.242-2.85995.41-.43002,2.39301-2.79199,3.06299-2.54904-.74199-.26801-1.82498.24301-2.48099.58704-.862.45096-1.78601.785-2.664,1.20596-.569.27301-1.466.82504-1.71901,1.39001-.04399.10004,2.367-.33798,2.136.677-.17.74698-1.73799.92798-2.33699,1.02499-.681.10999-1.95001.39499-2.118-.34497-.283-1.24899,2.11699-2.95203,3.04199-3.36804,1.535-.69098,2.94699-1.815,4.54599-2.396.854-.31,1.621-.61395,2.44-.88297.83502-.27402,1.534-.681,2.39001-.91202,1.00099-.26999,2.02499-.62799,2.98999-1.00702,1.89999-.745,3.993-1.06799,5.936-1.67996-.498,1.78699-.133,3.93997.07401,5.798.09799.87799.25198.64801.75101,1.23401.36798.43198.32399.884.97299,1.01996.46399-1.00397-.20201-2.017-.36301-2.974-.19101-1.13898-.129-2.30701-.129-3.47,0-.84601-.10001-1.77399.019-2.60599.09401-.64999.62102-1.383.686-1.84299"/>
   <path class="b"
         d="m23.50307,2.85437c.53497.02704.66397.55399.61598,1.04102-.089.91299-.53401.375-1.056.772-.59601.45502-.26201,1.10403-.403,1.76498.802.29199,2.166-.95801,2.589-1.51196.58199-.763,1.08597-1.74203,1.231-2.69604.093-.62198.30701-1.689-.24602-1.98398-.79797-.42801-1.14398.44299-1.547.93002-.52498.63297-1.02898.71399-1.69299,1.15598-.388.25797-1.011.82404-1.24501,1.229-.474.82199-.629,1.845-.65399,2.77802-.03999,1.49197-.42801,1.17596-1.735,1.49298-2.33501.569-4.17,1.59799-6.32098,2.43597-1.57501.61401-2.99002,1.776-4.44403,2.65903-1.29997.79001-2.64598,1.66599-2.795,3.26898.36903.01801.75203.005,1.12102.01901.424,1.46899-2.72,1.53101-2.895.68796-.23799-1.14398,1.58798-2.17395,2.24202-2.85992.40999-.43005,2.39299-2.79199,3.06297-2.54904-.74199-.26801-1.82498.24301-2.48099.58701-.86201.45099-1.78601.78503-2.664,1.20599-.569.27402-1.466.82602-1.71899,1.39001-.04501.10001,2.36699-.33801,2.136.677-.17001.74698-1.73799.92798-2.33701,1.02499-.68102.10999-1.95001.39499-2.118-.345-.283-1.24896,2.116-2.95203,3.04199-3.36801,1.53502-.69098,2.94699-1.815,4.54601-2.396.854-.31,1.62099-.61398,2.44-.88199.83501-.27499,1.53397-.68201,2.38901-.91299,1.00198-.26999,2.026-.62799,2.991-1.00702,1.89998-.745,3.99199-1.06799,5.936-1.67999-.49902,1.78699-.13402,3.94.07397,5.798.09802.87799.252.64804.75102,1.23401.368.43201.32399.884.97198,1.01999.46501-1.00397-.201-2.017-.362-2.974-.19101-1.13901-.12898-2.30701-.12898-3.47,0-.84601-.10002-1.77399.01898-2.60599.09401-.65002.62102-1.38303.68602-1.84299"/>

</g>
</svg>
