<?xml version="1.0" encoding="UTF-8"?>
<svg xmlns="http://www.w3.org/2000/svg"
     version="1.1"
     width="29.71604912mm"
     height="7.91098598mm"
     viewBox="0.00000000 0.00000000 84.23452624 22.42489800">

<g transform="scale(5.54215716)">   <defs>
      <style type="text/css"><![CDATA[
      .c {
        stroke: #000;
        stroke-linecap: round;
        stroke-linejoin: round;
        stroke-width: .01px;
      }
    ]]></style>
   </defs>
   <path class="c"
         d="M.07347,1.30844c.08674.17647.26941.28332.4487.36407,1.18416.53337,2.54805.35068,3.84448.42808,1.53514.09165,3.02589.56084,4.55777.69643.954.08444,1.91454.03865,2.87148.07788.13582.00557.27724.01444.39535.08173s.20404.21136.16035.34007c-.08418.24792-.52193.21823-.59476.46972.25011.24189.62954.31093.97346.25816s.66135-.21197.96775-.37684c.48205-.25938.96649-.54961,1.2964-.98642.09445-.12505.17672-.26588.19543-.42147.03074-.25566-.12007-.50697-.32597-.66161s-.45988-.22915-.71015-.28973c-1.56744-.389-3.29423-.55367-4.89749-.7425-1.80098-.21211-3.61003-.35553-5.42194-.42984C2.93349.07924,1.93663-.04932,1.04388.03085.5184.07804-.22517.70067.07347,1.30844Z"/>

</g>
</svg>
