<?xml version="1.0" encoding="UTF-8"?>
<svg xmlns="http://www.w3.org/2000/svg"
     version="1.1"
     width="19.68035193mm"
     height="15.28521250mm"
     viewBox="0.00000000 0.00000000 55.78685071 43.32817550">

<g transform="scale(4.71207350)">   <defs>
      <style type="text/css"><![CDATA[
      .b {
        stroke: #000;
        stroke-linecap: round;
        stroke-linejoin: round;
        stroke-width: .25px;
      }
    ]]></style>
   </defs>
   <path class="b"
         d="M8.31789,1.96926c.22667-.13372.46432-.27861.58817-.51081.23339-.43756-.06555-1.01369-.51277-1.22799s-1.33385-.07832-2.09702.19545c-1.24987.44836-1.75226.91411-2.8355,1.68208-1.32673.9406-2.7362,1.99187-3.21478,3.54619-.13629.44263-.18541.93608.00222,1.3595.29315.66151,1.05341.9589,1.74614,1.16784,2.17823.657,3.38065.47274,5.65573.49101.62792.00504,2.33023.58429,2.90682.33558s1.07677-.75975,1.14844-1.38359c.07794-.67845-.37218-1.3355-.96171-1.68022s-1.29319-.4313-1.97573-.45342c-.73458-.02381-4.56042.40617-4.83625-.5625-.21301-.74805,3.76608-2.59329,4.38624-2.95914v.00002Z"/>

</g>
</svg>
