<?xml version="1.0" encoding="UTF-8"?>
<svg xmlns="http://www.w3.org/2000/svg"
     version="1.1"
     width="18.03629082mm"
     height="39.22247827mm"
     viewBox="0.00000000 0.00000000 51.12644254 111.18192208">

<g transform="scale(5.59901992)">   <defs>
      <style type="text/css"><![CDATA[
      .a {
        fill: #000;
        stroke: #000;
        stroke-miterlimit: 2.61313;
        stroke-width: 0.28346px;
      }
    ]]></style>
   </defs>
   <path class="a"
         d="M4.6333,19.71143a5.4838,5.4838,0,0,0,3.47754-2.40234q.37793-7.90137.75781-15.80322C9.58545.2627,6.88818-.66406,6.65771,1.18945A3.63426,3.63426,0,0,0,4.00146,2.707c-.46533,3.73438-1.04736,7.63135.37891,8.7876a31.74991,31.74991,0,0,1,0,6.95215q-.37793.88623.25293,1.26465Z"/>
   <path class="a"
         d="M2.7373,11.61963q-1.01074.75879-2.02344,1.51758C-.8291,7.36328.86621,4.18164,4.38037,2.4541Q5.36182,4.666,3.81152,5.86719,1.75781,7.606,2.7373,11.61963Z"/>

</g>
</svg>
