<?xml version="1.0" encoding="UTF-8"?>
<svg xmlns="http://www.w3.org/2000/svg"
     version="1.1"
     width="36.46090019mm"
     height="43.04530916mm"
     viewBox="0.00000000 0.00000000 103.35372149 122.01826518">

<g transform="scale(8.46433857)">   <defs>
      <style type="text/css"><![CDATA[
      .b {
        stroke: #000;
        stroke-miterlimit: 10;
        stroke-width: .15px;
      }
    ]]></style>
   </defs>
   <path class="b"
         d="m4.63687,8.78707c-.45404.28177-.80826.55319-1.06381.76596-.40906.34058-.5668.53207-.61703.78723-.02606.13245-.01648.24805,0,.44681.03677.44351.15881.58221.1915.61703.02869.03052.15067.1604.23404.12766.10941-.04294.01562-.31226.08511-.59573.08624-.35184.32028-.30258.93616-.95746.24326-.25864.38132-.45197.70215-.61703.12772-.06573.24106-.10464.31912-.12766-.08725-.10483-.2045-.21216-.31912-.19147-.10272.01855-.13464.12756-.21277.12766-.06381.00009-.15079-.07248-.25534-.383Z"/>
   <path class="b"
         d="m1.8071,11.5743c-.05103.11819-.13464.29959-.25531.51065C.87409,13.27037-.02289,13.73046.08368,13.93602c.0329.06345.1264.03522,1.04257-.06384.73474-.07944,1.01593-.09818,1.42554-.25531.20755-.07962.16327-.08551.42551-.1915.18607-.0752,2.65497-.56085,3.06384-.68085.19864-.05829.73779-.21106,1.42554-.29788.60278-.07611.72552-.02652.8085.04257.23294.19397.19858.5802.1915.65958-.0632.70981-.7532,1.05658-.68085,1.1702.10992.17261,1.63394-.73508,2.25531-1.12766.26779-.16919.51111-.33319.65958-.63831.14728-.30273.05539-.44467.23404-.87234.1431-.34256.22946-.31711.36169-.65958.082-.21234.05444-.23672.17023-.78723.12375-.58835.18594-.70645.10638-.78723-.09082-.09222-.26331-.03125-.80853.10638-.26852.06778-.54239.11475-.8085.1915-.88098.25412-1.9061.39014-3.40424.72339-.53738.11955-4.3761,1.19604-4.74469,1.10638Z"/>
   <path class="b"
         d="m3.69006,2.30837c.04688.18448.11496.48526.15958.86169.10858.91577-.04376,1.2482.1915,1.78723.06259.1434.22748.50876.60638.76596.67685.45947,1.49219.20428,1.62766.15958.35107-.25531.70212-.51065,1.05319-.76596-.03104.3129-.0621.62582-.09314.93872.14252.15692.3797.36453.69952.4017.20648.02399.34436-.03503.92554-.31915.85297-.41699,1.09671-.5542,1.5-.63831.24207-.05048.44534-.06174.57446-.06381,1.10138-1.3291,1.26819-1.72672,1.18085-1.81915-.07883-.0834-.33612.11176-.89362.28723-.31882.10034-1.03406.32547-1.75531.1915-.68616-.12744-1.59647-.62048-1.56384-1.18088.00491-.0845.04407-.39001.57446-.70212-.00421-.24188-.02252-.50967-.06381-.79788-.07141-.49844-.1929-.92767-.31915-1.27658-.12021.12354-.30893.28894-.57446.41489-.27048.1283-.48502.15131-.70215.1915-.32837.06079-.61252.16818-1.18085.38297-.36942.13962-1.05618.45233-1.94681,1.18088Z"/>
   <path class="b"
         d="m9.85751,2.60778c-.61978.41766-.90143.75366-.90149.75375-.45532.54321-1.02164,1.23618-1.65839,2.06509.14853.2478.29709.49564.44562.74344-.10077.11642-.26837.28897-.51062.44681-.21957.14304-.34412.17212-.86172.38297-.73868.3009-.83331.38354-.89362.44681-.1344.14099-.28424.38065-.31915.79788.10919.03656.23758.07129.383.09573.20804.03497.39288.03922.54254.03192.10638.07446.21277.14896.31915.22342.15948-.08267.39508-.21054.67023-.383.66843-.41891.85571-.65292,1.43616-1.08511,1.00928-.7515,2.10114-1.92032,2.26596-2.39362.22125-.63535.42566-1.22238.15958-1.75531-.0307-.06149-.26791-.52188-.63831-.54254-.15137-.00845-.27234.05948-.43893.17175Z"/>

</g>
</svg>
