<?xml version="1.0" encoding="UTF-8"?>
<svg xmlns="http://www.w3.org/2000/svg"
     version="1.1"
     width="33.37379695mm"
     height="19.91767113mm"
     viewBox="0.00000000 0.00000000 94.60290119 56.45954970">

<g transform="scale(4.30422480)">   <defs>
      <style type="text/css"><![CDATA[
      .b {
        fill: #000;
        stroke: #000;
        stroke-linecap: round;
        stroke-linejoin: round;
        stroke-width: .01px;
      }
    ]]></style>
   </defs>
   <path class="b"
         d="M13.0001.03844c-.03125.04297-1.16797.18359-1.4375.19141-.08203,0-.25.05078-.36328.10547-.13281.07422-.42188.09766-.80469.08984-.61719-.02344-1.14453.07031-1.36328.24609-.16016.12891-1.46875.67188-1.62891.67188-.14453,0-1.21875.5625-1.76953.92969-.21484.14453-.51953.40625-.66406.57422-.14453.17578-.36719.36719-.50391.41797-.12891.05469-.23047.125-.23047.16016,0,.03125-.10547.10156-.23438.16016-.12891.04688-.25391.14063-.27734.20703-.02734.05469-.23438.19922-.45703.32031-.50391.24609-1.34375,1.0625-1.57813,1.51172-.08594.17578-.24609.40625-.35938.51953-.10156.11328-.21484.27344-.24609.35938-.05078.16016-.22656.35938-.625.69531-.21484.18359-.28125.48047-.44141,1.84766-.05469.53125.10547,1.08984.35156,1.20312.09766.03906.18359.10938.18359.14063,0,.03516.07422.08984.17187.11328.08594.03125.21484.17578.27734.32813.06641.15234.15234.27344.19141.27344.05078,0,.27344.17578.50391.39844.30469.28906.45703.38281.58594.35156.17578-.04688.36719.09766.51172.375.16016.29687.50391.40234,1.05469.32031.28125-.03906.5625-.03906.63281,0,.07031.03516.20703.04297.30469.01953.11328-.03516.30469.03906.56641.19922.32813.19922.44141.23047.63281.17578.12891-.03125.25781-.03906.28906-.01563.02344.02344.35156.08594.72656.13281.73047.10547,2.23438.03516,2.50391-.11719.10547-.05078.23438-.05078.41016.00781.32813.12109.95703.03906,1.51953-.17578.44531-.18359.88672-.28125,1.51953-.35938.51172-.05859,1.16797-.26562,1.375-.42578.39453-.30469,1.22266-.64063,1.58594-.64844.10938,0,.34375-.08594.51953-.19922.51953-.3125,1.16797-.60156,1.36719-.60156.09766,0,.23828-.07813.30469-.16797.15234-.22266.76563-.62891.95313-.62891.15625,0,.59766-.28906.75-.48828.05469-.07422.28125-.25.49609-.38672.26563-.17578.42578-.34375.48047-.51172.08594-.26172.58203-.85547.71094-.85547.09766,0,.40234-.71094.41016-.96094v-.67969c.00781-.04688.03125-.25391.05469-.46094.03906-.32031,0-.48828-.25-1.08203-.36719-.85547-.66406-1.38281-.86328-1.52734-.08594-.06641-.34375-.28906-.56641-.50391-.43359-.41797-1.12109-.82422-1.33594-.80078-.07422.01563-.32813-.04688-.5625-.14453-.23828-.08594-.54297-.16016-.67188-.16016-.13281,0-.36719-.08594-.51953-.19141-.32813-.22266-.73438-.32813-1.10156-.29688-.15234.00781-.35156-.03906-.48047-.11719-.19922-.12891-.55078-.22656-1.17578-.32031-.12891-.01563-.34375-.05078-.46484-.06641s-.26563-.07031-.32031-.10938c-.09766-.07422-.58203-.10547-.64844-.04297ZM13.1915,2.09704c.6875.14453.76172.18359.86719.40625.05469.12891.33594.32031.78906.55078.66406.32813.72266.38672.96875.83203.28125.52344.27344.71484-.03125.78516-.51953.13672-1.29688.69531-1.55078,1.12891-.20313.34375-.20313.44141.02344.63281.23828.21484,1.375.75781,1.67969.80859.14453.02344.32031.07031.39063.10938.17578.09766.26563.41016.16797.60938-.03906.07813-.07813.26172-.08594.40625-.01563.15234-.16016.51172-.34375.80078-.48828.82422-.57813.89453-.99219.89453-.41016,0-.64063-.17578-.73047-.53516-.03125-.125-.11719-.32031-.20703-.4375-.07813-.12109-.19141-.33594-.23828-.48047-.28125-.83984-1.69141-1.40234-2.67188-1.06641-.64063.21875-1.53906-.05469-1.69922-.51172-.04688-.125-.18359-.30469-.3125-.38281-.11719-.07031-.24609-.16797-.26953-.20703-.02344-.03125-.14453-.02344-.25781.01563-.11719.04688-.21484.0625-.21484.03125s-.07813.02344-.17578.11328c-.10547.08594-.35156.23828-.56641.32813-.21094.09375-.40234.22266-.42578.28516-.02344.06641-.12109.14453-.19922.16797-.08984.03516-.20703.1875-.28125.34375-.07031.1875-.25391.39453-.48828.55469-.35938.25391-.375.25391-.59766.12109-.21875-.12109-.64844-.59375-.82422-.89063-.03516-.0625-.07422-.38281-.08984-.71094-.02344-.51953,0-.64063.16797-.9375.11328-.18359.19922-.4375.19922-.56641,0-.53516.58594-1.60938.95313-1.75391.55078-.21484.96875-.07031.96875.32813,0,.10547.03906.19141.07813.19141.05078,0,.12891.10547.18359.22656.11328.26953.39453.60547.80078.95313.25.21484.36719.26172.67969.26172.21875,0,.42578-.03906.48047-.09375.05859-.05859.24219-.16797.41016-.26563,1.08594-.55859,1.10156-.57422,1.24609-.99219.07422-.21484.17578-.43359.24219-.48828.14063-.12109.51953-.92578.51953-1.12891,0-.08594.08594-.24609.19922-.35156.22266-.23047.48047-.24609,1.23828-.08594Z"/>

</g>
</svg>
