<?xml version="1.0" encoding="UTF-8"?>
<svg xmlns="http://www.w3.org/2000/svg"
     version="1.1"
     width="60.84862476mm"
     height="28.05179250mm"
     viewBox="0.00000000 0.00000000 172.48422613 79.51689213">

<g transform="scale(6.07147487)">   <defs>
      <style type="text/css"><![CDATA[
      .b {
        fill: #000;
        stroke: #000;
        stroke-linecap: round;
        stroke-linejoin: round;
        stroke-width: .1px;
      }
    ]]></style>
   </defs>
   <path class="b"
         d="M6.58025,7.73245c1.81802-1.67599-1.30902-2.26797-2.56396-1.40701-.64401.44299-3.57501,3.81-3.96204,1.00204-.09497-.69702,1.42801-1.59802,1.92099-2.02905,1.30502-1.142,1.95404-1.21198,3.62201-1.37296,1.15903-.112,3.64102-.74902,4.60098.14096,1.64001,1.522-.254,2.58804,2.12503,3.66,1.65402.74603,3.01501,1.66504,4.578,2.367,1.55298.69702,3.375,1.388,4.10696-.35696.65903-1.57401-.685-3.45999-.39499-5.255.43704-2.71301,4.63605-6.22803,7.12103-3.36603,2.19696,2.53299-1.97702,6.62698-3.64404,8.15201-3.11798,2.854-6.38995,4.17899-10.66895,3.67398-2.10501-.24796-8.57202-2.01996-7.03806-5.409"/>
   <path class="b"
         d="M6.58025,7.73248c1.81802-1.67599-1.30899-2.26797-2.56396-1.40704-.64401.44302-3.57602,3.80902-3.96204,1.00208-.09497-.69705,1.42801-1.59805,1.92099-2.02905,1.30502-1.14197,1.95404-1.21198,3.62201-1.37296,1.15903-.11203,3.64102-.74902,4.60001.14096,1.64099,1.522-.25302,2.58801,2.12601,3.66,1.65402.746,3.01401,1.66504,4.578,2.36703,1.55298.69696,3.37497,1.38797,4.10696-.35703.65903-1.57401-.68497-3.45999-.39499-5.25497.43704-2.71301,4.63602-6.22803,7.12-3.36603,2.198,2.53296-1.97598,6.62698-3.64301,8.15201-3.11798,2.854-6.38995,4.17902-10.66995,3.67398-2.104-.24799-8.57104-2.02097-7.03705-5.409"/>

</g>
</svg>
