<?xml version="1.0" encoding="UTF-8"?>
<svg xmlns="http://www.w3.org/2000/svg"
     version="1.1"
     width="29.07173957mm"
     height="29.09262544mm"
     viewBox="0.00000000 0.00000000 82.40800704 82.46738606">

<g transform="scale(6.07147487)">   <defs>
      <style type="text/css"><![CDATA[
      .b {
        fill: #000;
        stroke: #000;
        stroke-linecap: round;
        stroke-linejoin: round;
        stroke-width: .25px;
      }
    ]]></style>
   </defs>
   <path class="b"
         d="M7.45896.14662c.871-.02997,1.56702,2.13501,1.25403,2.84601-.08203.18597-.444.48401-.66299.547-.71304.20502-.42801-.04602-.77402-.31-.58701-.448-.871-.755-1.81799-.56598-1.13.22699-.98001,1.38794-1.452,2.36798-.492,1.01996-.694,1.75-.89999,2.83099-.121.63696-.22803,1.263-.33301,1.92499-.22104,1.38403-.08405.81,1.10297.92499.116,1.22803-2.52396,2.85602-3.65796,2.56006-.06702-1.45203-.25903-3.24603.23697-4.60101.28003-.76404.82303-1.39203,1.14902-2.13605.26898-.61395.22498-1.15497.35397-1.83698C2.30497,2.85463,5.06598-.15941,7.37598.14662"/>
   <path class="b"
         d="M7.45899.14662c.87097-.03003,1.56699,2.13501,1.25397,2.84595-.08197.18604-.44397.48407-.66296.547-.71304.20508-.42801-.04596-.77502-.30994-.58701-.44806-.87-.755-1.81699-.56604-1.13004.22705-.98001,1.388-1.452,2.36804-.49203,1.01996-.69403,1.74994-.89999,2.83093-.121.63702-.22803,1.263-.33401,1.92505-.22003,1.38403-.08401.81,1.104.92499.116,1.22797-2.52399,2.85602-3.65799,2.56006-.06705-1.45306-.25903-3.24707.237-4.60107.28-.76392.823-1.39197,1.14899-2.13593.26898-.61401.22498-1.15503.35397-1.83704C2.30497,2.85463,5.06598-.15941,7.37598.14662"/>
   <path class="b"
         d="M4.62497,5.42463c1.155-.07703,1.52499-2.33002,2.66199-2.24304.89703.06799.02103,2.63501-.07199,3.19904-.241,1.46399-.76602,2.90802-.83102,4.39301.64801-.07605,1.63205-1,2.20901-1.33905-.17398.69104-1.29599,2.14105-1.92197,2.63104-.47604.37402-1.03101.59399-1.62701.66797-.68701.08502-1.11002.12103-1.33801-.42297-.15698-.37701-.06-1.27203-.08102-1.68604-.02798-.54596.10205-1.16797,0-1.70398-.10596-.56201-.63095-.89197-.58496-1.46399.048-.61096.57697-.64899,1-1.05103.37598-.35797.629-.90894,1.00198-1.22498"/>
   <path class="b"
         d="M4.62497,5.42463c1.155-.07703,1.52499-2.33008,2.66199-2.24298.897.06793.02103,2.63495-.07199,3.19897-.241,1.46399-.76599,2.90796-.83102,4.39301.64801-.07605,1.63205-1.00006,2.20905-1.33905-.17401.69104-1.29605,2.14099-1.92203,2.63104-.47598.37402-1.03094.59399-1.62701.66797-.68698.08502-1.10999.12103-1.33801-.42303-.15695-.37695-.05997-1.27197-.08099-1.68597-.02798-.54596.10205-1.16901,0-1.70398-.10599-.56201-.63095-.89197-.58499-1.46399.04803-.61102.57703-.64905,1-1.05103.37604-.35797.629-.909,1.00198-1.22498"/>
   <path class="b"
         d="M11.71,4.04463c-2.68002,1.211-2.66806,3.35596-2.66806,5.92798,0,1.03699-.04697,2.39203.91806,3.06799,1.24097.867,2.82599.29999,3.48798-.94098-.56302-.46399-1.565-.50702-1.979-1.159-.30499-.48199-.18399-1.32001-.26099-1.85999-.112-.78003-.05499-1.43103.005-2.29401.05698-.78503-.19501-1.77405.07999-2.49805"/>
   <path class="b"
         d="M11.71,4.04463c-2.68002,1.211-2.66806,3.35596-2.66806,5.92798,0,1.03699-.04794,2.39203.91806,3.06793,1.24097.86707,2.82596.30005,3.48798-.94098-.56302-.46399-1.56601-.50696-1.979-1.15894-.30499-.48199-.18399-1.32001-.26099-1.86005-.112-.77997-.05499-1.43097.005-2.29395.05698-.78503-.19504-1.77405.07999-2.49805"/>

</g>
</svg>
