<?xml version="1.0" encoding="UTF-8"?>
<svg xmlns="http://www.w3.org/2000/svg"
     version="1.1"
     width="32.24043127mm"
     height="27.38764548mm"
     viewBox="0.00000000 0.00000000 91.39020355 77.63430530">

<g transform="scale(3.49229315)">   <defs>
      <style type="text/css"><![CDATA[
      .b {
        stroke: #000;
        stroke-linecap: round;
        stroke-linejoin: round;
        stroke-width: .25px;
      }
    ]]></style>
   </defs>
   <path class="b"
         d="M22.3901,5.49282c-.38775.72895-.12432,1.62522-.25318,2.44076-.19645,1.24324-1.27782,2.17958-1.59844,3.39672-.10832.4112-.128.84947-.30751,1.23494-.44385.95309-1.63955,1.2276-2.67017,1.43547-2.75758.55619-5.44709,1.44901-7.98984,2.65234.15348.53402.79835.7237,1.34417.82769,4.1824.79687,7.43549,1.9752,11.68884,1.7843.46615-.02092,1.93048-.42743,2.35212-.22755,1.11277.52752,1.51618,1.63038.52057,2.35517s-2.84211.66356-4.19194.70632c-4.7175.14942-9.12202-2.45475-13.82797-2.09255-1.43378.11035-2.87595.45378-4.29417.21596-.71836-.12046-1.40293-.38672-2.08157-.6513-.53757-.20959-1.19123-.73768-.87167-1.21809.23949-.36005.80884-.26003,1.167-.50232.25169-.17027.36111-.48313.56317-.7101.19403-.21796.46545-.34818.72928-.47286,4.12134-1.94749,8.24269-3.89498,12.36403-5.84247-.85542-1.9262-.67854-4.37315.63288-6.02305,1.31142-1.6499,3.65941-2.64439,5.47481-3.71505.70863-.41792,1.44371-.84431,2.26032-.94412.81655-.0998,1.74288.21449,2.10993.95067,1.01211,2.02995-2.45269,3.14337-3.12065,4.39912h-.00001Z"/>

</g>
</svg>
