<?xml version="1.0" encoding="UTF-8"?>
<svg xmlns="http://www.w3.org/2000/svg"
     version="1.1"
     width="71.49131998mm"
     height="25.26814619mm"
     viewBox="0.00000000 0.00000000 202.65250292 71.62619483">

<g transform="scale(6.53780177)">   <defs>
      <style type="text/css"><![CDATA[
      .b {
        stroke: #000;
        stroke-miterlimit: 10;
        stroke-width: .15px;
      }
    ]]></style>
   </defs>
   <path class="b"
         d="m3.01124,4.03694c-.26752-.11115-.66864-.28308-1.14893-.51068C.17036,2.72456.07826,2.45631.07508,2.31349c-.00299-.13434.07104-.23041.63831-.70209C1.7151.77851,2.2267.35896,2.75593.2071c.51337-.14728.94519-.13641,1.21277-.12762.65692.02161.99615.18018,1.5957.31915.23474.05444.61462.13025,1.97876.19147,2.56323.11499,4.59564.06384,4.59576.06384,3.05237-.07684,2.41925.05969,6.44678,0,1.58069-.02344,3.68848-.07428,6.19147-.19147-.01849.24158-.03131.84045.31915,1.46808.26923.48212.6297.76074.82983.89362-.35187.05029-.91278.18304-1.46814.57446-.20856.14703-.37689.30267-.51062.44678-.37708-.00067-.92932-.0011-1.59576,0-1.96985.00336-4.65594.00787-6.9574.06384-4.39056.10675-4.54266.3316-7.65961.31915-2.03448-.00812-3.68542-.11078-4.72339-.19147Z"/>
   <path class="b"
         d="m8.30909,6.71778c.07031-.17603-.0094-.07129.06384-1.59576.05829-1.21405.11975-1.50781.31915-1.78723.18341-.25702.33813-.2981,1.08508-.70215,1.62909-.88123,1.59558-1.06586,2.0426-1.08508.80829-.03473,1.6828.53595,1.9787,1.27661.21515.53845.06305,1.01306-.12769,1.72339-.2287.85156-.51605,2.05341-.76593,3.57446.2934.03436.73669.08282,1.27661.12769,1.6994.1413,3.00244.13489,3.76593.12762,1.71246-.0163,6.02301-.08771,11.80853-.25531-.4104.28687-.87531.66266-1.34045,1.14893-.27283.28522-.50513.56604-.70209.82977-.38446.03119-.96033.07684-1.65961.12769-1.93121.14044-3.31659.21283-4.08508.25531-4.15167.22955-3.63727.32532-5.68085.383-4.37225.12335-9.95343-.59967-10.14893-.95746-.26147-.47852.00433-1.07861.06378-1.21277.50677-1.1441,1.69977-.96039,2.10638-1.9787Z"/>
   <path class="b"
         d="m14.50062,5.12202c.23993-.31775.13879-.55188.51062-1.0213.15912-.20087.53094-.67029.95746-.63824.33246.02496.41852.33356.89362.76593.13354.12152.23206.19299,1.40424.82977,1.31976.71698,1.57666.83374,1.59576,1.08514.0257.33795-.40076.6261-.70215.82977-.1778.12018-.75201.48102-1.91486.57446-1.13806.09143-2.03314-.13818-2.42554-.25531-1.2265-.36615-2.52325-1.12061-2.42554-1.46808.09851-.3501,1.50562.09351,2.10638-.70215Z"/>
   <path class="b"
         d="m22.03254,4.16456c-.66943.25568-.4624.96198-1.46814,1.53192-.62726.35547-1.20929.36487-1.21277.57446-.00256.15356.30859.23071.95746.57446.52075.27588.69141.42285.95746.57446.75891.4325,2.3197.9176,3.63831.25537.51801-.26013.82898-.61212,1.0213-.82983.40424-.45758,1.02551-1.37494.76593-1.72339-.17157-.23029-.57996-.01367-1.26898.00323-1.78564.04382-2.42987-1.32758-3.39056-.96069Z"/>
   <path class="b"
         d="m30.77717,4.86671c-1.02124.10638-2.04254.21277-3.06378.31915-.18463-.03998-.54852-.14545-.89362-.44684-.4632-.4046-.59869-.90564-.63831-1.08508-.97791-.02618-1.25977.32202-1.34045.44678-.14038.21716-.12274.45605.31915,1.97876.21667.7467.36572,1.21741.57446,1.85107.50024,1.51874.56818,1.62006.70215,1.72339.65479.50494,1.70428.14423,2.68085-.19147.63776-.21924,1.13629-.39838,1.46808-.89362.10706-.15979.26282-.45117.31915-1.4043.03302-.5589.03198-1.34747-.12769-2.29785Z"/>

</g>
</svg>
