<?xml version="1.0" encoding="UTF-8"?>
<svg xmlns="http://www.w3.org/2000/svg"
     version="1.1"
     width="26.52420260mm"
     height="39.05775932mm"
     viewBox="0.00000000 0.00000000 75.18676509 110.71488142">

<g transform="scale(5.41829972)">   <defs>
      <style type="text/css"><![CDATA[
      .b {
        stroke: #000;
        stroke-linecap: round;
        stroke-linejoin: round;
        stroke-width: .25px;
      }
    ]]></style>
   </defs>
   <path class="b"
         d="m7.50245,1.97454c-.02698.24896-.005.51099.063.73401.078-.00305.245-.04297.31599-.07605-.04199-.59296,1.01602-.83997,1.48001-.98499.68701-.21497,1.45599.08502,1.987.51404.44901.36194.89299.76599,1.15999,1.28503.19002.36993.571.94794.66101,1.34192.09999.43604.237.87402.36,1.25403.37601,1.164.174,2.87695.11301,4.10498-.05002,1.00403.11899,1.87201-.04201,2.89099-.10901.69501-.03,1.30804.03299,1.99902.17,1.84302-.11899,3.729-1.19099,5.27002-.873-1.17804-.448-2.505-.315-3.84503.14401-1.44098-.16499-2.99799-.23599-4.45599-.02301-.47101-.116-.91602-.138-1.39001-.026-.53296-.16-.995-.129-1.52795.03101-.53601.09999-1.04004.034-1.58801-.11501-.95001-.57901-2.03503-1.078-2.88-.12601-.21399-.62401-1.07001-.994-.59399-.27699.35693.41701.68396.632.94702.403.49396.45001,1.31396.11299,1.75598-.422.55396-1.422,1.026-2,1.39301-1.51399.96399-3.53697,1.58698-5.32997,1.69-.68903.03998-1.91002.15997-2.49501-.28503-.36699-.27997-.298-.37097-.257-.78198.02301-.22803.15399-.513.18701-.77502.04099-.32196-.004-.63501.11298-.94995.18002-.48505.543-.74707.75902-1.25.07298-.17206.16-.75.27399-.896.48399-.61707,1.717.05298,2.269-.35205-.164.40802-.64899.83203-.89999,1.21704-.21901.33594-.739.96198-.582,1.39496.285.78503,3.086.63898,3.866.60101,1.37399-.06604,4.069-.258,2.46201-2.06201-.448-.50403-.457-1.92102-1.185-1.75598-.16699-.862.55199-1.19501.65599-1.867-.287-.01202-.651-.06403-.93401-.00897-.478.09399-.85498.46301-1.30099.62402-.522.18896-1.147.50995-1.71199.50098-.39401-.00702-1.451-.03906-1.623-.505-.17999-.48804,1.04599-.77301,1.47601-.82202.56799-.065.935-.22601,1.49498-.04004.537.17804.916.63501,1.53001.51001,1.17099-.23596-.54501-1.69098-1.03101-1.96594-1.069-.60504-2.14801.18591-3.091.68201C2.34245,1.35851-.11655,2.95751.14445,3.92052c.42801,1.56598,3.93002.54803,4.819.47601.461-.03802.922.13196,1.38303.09399.57498-.047.82397-.48401,1.35797-.50598"/>
   <path class="b"
         d="m7.50245,1.97551c-.02698.24799-.005.51001.063.73303.078-.00305.245-.04297.31599-.07501-.04199-.59399,1.01602-.841,1.48001-.98602.68701-.21399,1.45599.086,1.987.513.44901.36298.89299.76801,1.15999,1.28607.19002.36993.571.94794.66101,1.34192.09999.43604.237.87402.36,1.255.37601,1.164.174,2.87598.11301,4.104-.05002,1.00403.11899,1.87201-.04201,2.89099-.10901.69501-.03,1.30804.03299,1.99902.17,1.84302-.11899,3.729-1.19099,5.271-.873-1.17902-.448-2.50598-.315-3.84601.14401-1.44098-.16499-2.99799-.23599-4.45599-.02301-.47101-.116-.91602-.138-1.39001-.026-.53296-.16-.995-.129-1.52795.03101-.53601.09999-1.04004.034-1.58801-.11501-.95001-.57901-2.03503-1.078-2.88-.12698-.21399-.62401-1.07001-.994-.59399-.27699.35693.41701.68396.632.94702.403.49396.45001,1.31396.11299,1.75598-.422.55396-1.422,1.026-2,1.39398-1.51399.96301-3.53697,1.586-5.32997,1.68903-.68903.03998-1.91002.15997-2.49501-.28503-.36801-.27997-.298-.37097-.257-.78198.02301-.22803.15399-.513.18701-.77502.04099-.32196-.004-.63501.11298-.94995.18002-.48505.543-.74707.75801-1.25.07399-.17206.16101-.75.27499-.896.48399-.61707,1.71602.05298,2.269-.35205-.164.40802-.64899.83203-.89999,1.21704-.21901.33594-.739.96198-.582,1.39496.285.78503,3.086.63898,3.866.60101,1.37399-.06604,4.069-.258,2.46201-2.06201-.448-.50293-.457-1.92102-1.185-1.75598-.16699-.862.55199-1.19501.65599-1.867-.287-.01202-.651-.06403-.93401-.008-.478.09302-.85498.46204-1.30099.62305-.522.18896-1.147.50995-1.71199.50098-.39401-.00702-1.451-.03906-1.623-.50403-.17999-.48901,1.04501-.77399,1.47601-.823.56799-.065.935-.22601,1.49498-.04004.537.17804.916.63501,1.53001.51105,1.17099-.237-.54501-1.69202-1.03101-1.96698-1.069-.60504-2.14801.18591-3.09201.68201C2.34245,1.35851-.11754,2.95751.14445,3.92052c.42801,1.56598,3.93002.54803,4.819.47601.461-.03802.922.13196,1.38303.09399.57498-.04602.82397-.48401,1.35797-.50598"/>
   <path class="b"
         d="m2.71147,4.31951c-.47202-.06702-.95401.04303-.86702.59302.50301.02301.90001.03101,1.26201-.26904-.021-.23193-.202-.35895-.46201-.39099"/>
   <path class="b"
         d="m2.71147,4.31951c-.47202-.06702-.95401.04303-.86702.59302.50301.02399.90001.03198,1.26201-.26904-.021-.23193-.202-.35895-.46201-.39099"/>
   <path class="b"
         d="m8.58146,2.17656c-1.04501-.28406-1.5.47498-1.339,1.46295.573.11603,1.21199.224,1.46602-.47998.10597-.29401.03398-1.00598-.04402-1.24603-.019.13098-.01299.26202-.015.396"/>
   <path class="b"
         d="m8.58146,2.17656c-1.04501-.28406-1.5.47498-1.339,1.46295.573.11603,1.21199.224,1.46602-.47998.10597-.29401.03398-1.00598-.04402-1.24603-.019.13098-.01299.26202-.015.39703"/>

</g>
</svg>
