<?xml version="1.0" encoding="UTF-8"?>
<svg xmlns="http://www.w3.org/2000/svg"
     version="1.1"
     width="43.53338767mm"
     height="45.65306463mm"
     viewBox="0.00000000 0.00000000 123.40178305 129.41025929">

<g transform="scale(5.59901992)">   <defs>
      <style type="text/css"><![CDATA[
      .a {
        stroke: #000;
        stroke-miterlimit: 2.61313;
        stroke-width: 0.28346px;
      }
    ]]></style>
   </defs>
   <path class="a"
         d="M11.30273,19.25732c2.59131-1.377-.56006-3.45313,2.31006-2.73047q1.22607-.41895,2.45117-.83984c1.23633,1.23828,2.81836,2.47461,2.66016,3.71094a7.51218,7.51218,0,0,0,3.15137,2.24023A1.9091,1.9091,0,0,1,21.105,22.689a9.41672,9.41672,0,0,1-3.36133-1.25977A5.35547,5.35547,0,0,1,13.894,20.728a5.90992,5.90992,0,0,0-2.59131-1.4707Z"/>
   <path class="a"
         d="M5.28174,4.62451A4.99888,4.99888,0,0,1,6.97363,1.40967C8.50488,1.79443,8.019.53564,8.64209.14355Q9.447.17871,10.25244.21338c1.03955,4.47217-.15039,12.01025-.77,18.76465-1.79395,2.82813-2.97949,2.61914-4.20068,2.58984a6.399,6.399,0,0,1,.21-3.2207q.13989-4.51465.27979-9.03174a39.8062,39.8062,0,0,1-.48975-4.69092Z"/>
   <path class="a"
         d="M12.28271,4.13428a1.3872,1.3872,0,0,1,2.1709-.7002,2.46277,2.46277,0,0,1,2.24023,1.33057,12.72042,12.72042,0,0,1-7.42139,8.47119,57.70227,57.70227,0,0,0-4.55127,5.32227c-.97021,1.12891.29932.76563,1.12061.69922,1.95264-.39844,3.94092-.92578,5.3208.77148A25.36254,25.36254,0,0,1,.94043,22.96826C-.57666,21.82568.21729,20.16748,2.061,18.27881a62.0806,62.0806,0,0,1,9.45215-9.104c1.07422-2.252,1.56445-4.0957.76953-5.04053Z"/>

</g>
</svg>
