<?xml version="1.0" encoding="UTF-8"?>
<svg xmlns="http://www.w3.org/2000/svg"
     version="1.1"
     width="24.82298569mm"
     height="25.24926836mm"
     viewBox="0.00000000 0.00000000 70.36432830 71.57267948">

<g transform="scale(5.79267105)">   <defs>
      <style type="text/css"><![CDATA[
      .a {
        fill: #000;
        stroke: #000;
        stroke-miterlimit: 2.61313;
        stroke-width: 0.28346px;
      }
    ]]></style>
   </defs>
   <path class="a"
         d="M4.1709,3.5708c1.74609-.41406,2.167-.832,2.292-2.27148C5.002-.269,1.49219.58057.89648,2.772A11.94024,11.94024,0,0,0,.71,10.6665c1.54687,1.22266,3.67187,1.8457,3.835-.36914C2.38574,7.94775,3.0752,5.74854,4.1709,3.5708Z"/>
   <path class="a"
         d="M5.38672,3.86963C4.13184,3.09229,3.38379,2.12549,3.75.74463,4.20215-.17725,4.873.11572,5.57422.58252c.374-.05664.748-.11523,1.12207-.17187C6.97656.02,7.36719.18408,7.77246.42627A13.893,13.893,0,0,1,11.374,7.52783q-.44531,4.59961-2.38574,4.291c-1.2041-.25-1.31152-1.25586-1.2627-2.36914.48828-1.19922-.09668-2.41406-.98242-3.63281A3.32139,3.32139,0,0,1,5.38672,3.86963Z"/>
   <path class="a"
         d="M.61621,12.16846V10.5708q1.68457-.23437,3.36816-.46875a8.0332,8.0332,0,0,1,5.4248.07617q1.147.08789,2.292.17383a1.0848,1.0848,0,0,1,.04688,1.459q-.561-.0791-1.123-.1582a75.03893,75.03893,0,0,1-10.00879.51563Z"/>

</g>
</svg>
