<?xml version="1.0" encoding="UTF-8"?>
<svg xmlns="http://www.w3.org/2000/svg"
     version="1.1"
     width="44.00208036mm"
     height="16.76765941mm"
     viewBox="0.00000000 0.00000000 124.73034009 47.53044365">

<g transform="scale(4.30598027)">   <defs>
      <style type="text/css"><![CDATA[
      .b {
        stroke: #000;
        stroke-linecap: round;
        stroke-linejoin: round;
        stroke-width: .15px;
      }
    ]]></style>
   </defs>
   <path class="b"
         d="m2.48279,4.93582c-.01947.04943-.04193.09983-.06857.15117-.26077.50255-.8317.85425-1.19869,1.25344-.31456.34216-.86113.78794-1.04324,1.20315-.38506.87797.45783.86659,1.04406,1.05653.47561.1541.91848.41529,1.43907.49445.63046.09587,1.40486.07599,2.07045.04283,1.33873-.06669,2.79235-.26967,4.10109-.52738,1.39348-.2744,2.8352-.38818,4.19981-.67729,1.44948-.30709,2.80675-.70487,4.2739-.56331,1.40398.13547,2.83159.88548,4.19245.45623.48064-.1516,2.19019-.65232,2.57094-.11683.34076.47925-.88638,1.7726-1.15891,2.10059-.40542.48793-.61401,1.50915.35646,1.02827.67322-.33359,1.38754-1.12742,1.93921-1.64303.72215-.67496,1.37331-1.41318,1.82533-2.28318.46541-.89578,1.22126-1.55955,1.48308-2.56535.23884-.91751.92546-3.84663-.45633-4.22087-.67646-.18321-1.63278.18526-2.29343.2977-1.16803.19879-2.41774.68787-3.50141,1.26974-.61688.33123-1.33249.28859-1.9971.36669-.73356.0862-1.50667-.10669-2.23752-.00259-.70258.10008-1.36704.50767-2.09137.56125-.91455.06765-1.95191-.03355-2.85542-.1663-1.59502-.23437-2.94008.30341-4.53225.39535-1.53166.08844-3.16262-.11995-4.61119.33291-.26519.08291-.39118.11555-.63057.27703-.0904.06098-.07147.17816-.18104.23927-.10845.06047-.28935.04575-.37756.09827-.33943.20209-.24836.03478-.31506.42699-.04826.28375.18526.38052.0538.71429Z"/>

</g>
</svg>
