<?xml version="1.0" encoding="UTF-8"?>
<svg xmlns="http://www.w3.org/2000/svg"
     version="1.1"
     width="54.95571089mm"
     height="38.62156978mm"
     viewBox="0.00000000 0.00000000 155.78001600 109.47844493">

<g transform="scale(3.39456573)">   <defs>
      <style type="text/css"><![CDATA[
      .b {
        stroke: #000;
        stroke-linecap: round;
        stroke-linejoin: round;
        stroke-width: .25px;
      }
    ]]></style>
   </defs>
   <path class="b"
         d="M25.88886,12.10819c.5902-3.05633.65338-6.18663.71472-9.29883.0166-.84202-.02218-1.80977-.67827-2.3378-.68053-.5477-1.67538-.34271-2.51124-.08888-.59205.17979-1.24286.42219-1.51026.98018-.13314.27782-.16929.5949-.16418.90293.14529,8.76505-1.88005,14.19917-2.9244,21.28968-.15246,1.03514-.25366,2.21931.44013,3.00252.69395.78339,1.88111.82552,2.92753.80906.14507-.00228.30379-.00962.41206-.10621.09412-.08397.12673-.21531.15459-.33832.58012-2.56096,1.36321-5.15875,1.66687-7.76893.12084-1.0387.28673-2.03795.53239-3.05758.29737-1.23426.94006-2.71667.94006-3.98784v.00002Z"/>
   <path class="b"
         d="M15.39245,7.61495c-.848-.94212-1.9036-1.69637-3.06967-2.19334-3.73634,2.84023-7.54693,5.75873-10.12406,9.68117-.36193.55087-.71332,1.13579-1.25644,1.50925-.33399.22965-.77669.43792-.8147.84146-.04361.4629.47379.74857.89376.94808.41997.19951.88888.62349.68727,1.04245-.10525.21871-.35719.32174-.51897.50267-.30697.34331.31142.79892.60102,1.157s1.17281.83969,1.59315,1.02784c2.17921.97544,3.38211,1.77986,5.56132,2.7553.40459.1811.96243.32656,1.22257-.03235-.20365-.57507-.92368-.72368-1.51001-.89216-.81148-.23317-1.56334-.67085-2.16681-1.26135,3.68475.37718,7.03371,2.49942,10.727,2.78105.44435.03388.91569.04834,1.28881.292s.56974.81807.26312,1.14146c.39919.22432.71482.59364.87419,1.02291-1.97961-.13074-1.4844.36017-5.93882-.39223-.78522-.13263-1.59378-.10564-2.36799-.29206-1.00954-.24308-1.95032-.70612-2.88151-1.16563-1.63848-.80853-4.12279-1.56304-5.32058-2.94276-.54943-.63287-.52595-.97624-1.2342-1.27333.11696.83563.71557,1.51124,1.2872,2.13187.70515.76559,1.42366,1.54219,2.31761,2.07531,1.2056.719,2.63396.9404,4.02226,1.14792,3.23082.48293,6.46165.96585,9.69247,1.44878.45509.06802,1.07017.03789,1.1844-.40785.05817-.22699-.05749-.46305-.04552-.69707.02295-.4486.56024-.75381.99007-.62333s.70383.58848.71935,1.0374-.18464.88124-.45074,1.24312c-.2336.31769-.53566.63569-.53319,1.03.72636.38635,1.67735-.03099,2.13296-.71603s.5281-1.55103.52538-2.37374c-.00223-.67225-.04965-1.36223-.32801-1.97415-.43729-.96128-1.38574-1.59616-2.36666-1.98739s-2.02968-.58866-3.01585-.96647c-.79522-.30466-1.54486-.7248-2.35471-.98811-.82699-.26889-1.70366-.36981-2.51926-.67147-1.05358-.38968-2.70482-.92045-3.66866-1.49741-1.33917-.80164-2.07081-1.53858-3.6043-1.82909.23973,1.62834,2.75223,2.02415,3.16003,3.61873-.31426-.11278-.61221-.26597-.90911-.41871-1.8118-.93207-3.79257-2.0593-4.3814-4.00985.73681.3296,1.47362.6592,2.21043.9888-.65987-1.39621-.18567-1.96348.67583-3.07893.78238-1.01301,1.61748-1.98847,2.53219-2.88482.90023-.88215,1.87646-1.69249,2.9442-2.36493.33003-.20784,2.99003-1.80615,3.2746-1.49001h-.00002Z"/>
   <path class="b"
         d="M31.50209,4.85484c-.49147.29322-.90427.69985-1.16266,1.21049-.20936.41375-.36462.88807-.27056,1.34456.1562.75806.9455,1.82438,1.63193,2.18198.39705.20685.71949.30835,1.23447-.46648.24004-.36115.33842-.77237.51692-1.16749.16124-.35693.46607-.63233.8173-.80562,1.24326-.6134,2.53324-1.13202,3.85505-1.55003.76421-.24167,1.58291-.45067,2.35859-.24885.41683.7438.08764,1.44038-.30266,2.13139-1.74101,3.08237-3.99349,6.27102-5.54923,9.45093-.10412.21282-.21065.44322-.17314.67715.07544.47045.64783.65381,1.12091.71044,1.24518.14906,2.57168.11208,3.65642.74138.24297.14096.48336.33592.54625.60968.09679.42131-.2566.80117-.58558,1.08159-4.23348,3.60863-8.92963,5.86667-13.35401,9.23852-.75166.57285-2.17842,1.19633-2.04277,2.13161,1.91133-.24541,3.7779-.83531,5.48313-1.73286.31158-.164.62767-.34144.97715-.38427.25032-.03068.50416.00986.75589-.00522.72062-.04319,1.33774-.53257,1.81304-1.07595s1.39408-.88403,1.94655-1.34873c.73792-.62069,2.3478-1.23645,3.19552-1.69594,1.89856-1.02907,2.49521-1.65219,4.24892-2.65871.8913-.51155,1.73574-1.10491,2.4806-1.81293.42848-.40728.85396-.90681.89642-1.50264.01561-.2191.05211-.65187.08724-1.05848.05711-.66081-.1258-1.33162-.55456-1.83768-1.37215-1.61955-3.51948-2.58156-5.47852-3.47285,1.93598-2.26824,3.38611-4.90786,4.89096-7.47407.48094-.82015.88862-1.68544,1.14594-2.60072.06446-.22927.10646-.46732.05614-.69797-.06774-.31053-.25256-.61972-.53176-.77161-5.23533-2.84803-10.84013,1.14718-13.70992,2.85934l.00004.00004Z"/>

</g>
</svg>
