<?xml version="1.0" encoding="UTF-8"?>
<svg xmlns="http://www.w3.org/2000/svg"
     version="1.1"
     width="39.20629483mm"
     height="40.96378068mm"
     viewBox="0.00000000 0.00000000 111.13588672 116.11786284">

<g transform="scale(4.30598027)">   <defs>
      <style type="text/css"><![CDATA[
      .b {
        stroke: #000;
        stroke-linecap: round;
        stroke-linejoin: round;
        stroke-width: .15px;
      }
    ]]></style>
   </defs>
   <path class="b"
         d="m19.39357.07579c-1.12716-.03094-2.02461.85312-3.02185,1.23684-1.18906.45753-2.47568.5941-3.46559,1.42875-.96383.81267-2.14964.70874-3.2282,1.26571-.57664.29778-1.18089.41177-1.80778.61278-.69677.22342-1.27566.51997-1.91863.84517-.59825.30258-1.22982.53936-1.79961.89765-.29929.1882-1.30659.59315-1.19963.95012.80003.09879-.10362.63493-.30748.78094-.45592.32651-.87351.89436-1.22683,1.32303-.64167.77852-1.55547,1.2708-1.29854,2.41279.1569.6974.87021.24525,1.39349.18835.68823-.07484,1.27845-.19022,1.84388-.60638.22376-.16469.33025-.32224.5951-.39995.38045-.11164.83227-.00136,1.22518-.04557.72522-.08159,1.69726-.53267,2.25984-.98355.29643-.23757.54665-.53467.84179-.77506.45947-.37424.90361-.2939,1.4573-.42748.392-.09457.7791-.31743,1.11741-.53771.49725-.32377.72458-.34161,1.34824-.4533,1.22533-.21945,2.55486-.60278,3.70916-1.04036.48073-.18224.5522-.31083.68048.26707.0753.33921-.02206.53162-.01763.82914.00514.34521.20191.5088.22252.89249.02892.53848-.18082.4749-.63509.65423-.50463.19921-1.60233.49668-1.91968.93896-.49977.69652.77817.5672,1.19745.5883.73305.03688,1.25478-.08987,1.93917-.33047.94145-.33096,1.59193-.81632,1.6966-1.85603.03834-.38088.03026-.60264.30443-.9015.32421-.3534.63995-.41893.7859-.91227.18138-.61313.23192-1.38649.52416-1.95465.17836-.34675.56096-.56033.68261-.92389.11033-.32974-.00768-.67734-.08282-.97833-.09411-.37693-.13787-.74783-.21328-1.13525-.1375-.70648-.09553-1.32215-.88254-1.62403-.33477-.12841-.76517-.18233-.7995-.22653Z"/>
   <path class="b"
         d="m22.40091,8.14093c1.11216.05435,1.40229,1.26705,1.4581,2.15881.07828,1.25058-.00222,2.11394-1.00245,2.95453-.26825.22544-.54099.44559-.80779.67276-2.00426,1.70651-3.96518,3.57803-6.1922,5.01915-.44105.2854-3.01654,2.12466-3.26907.83205-.13527-.6924,1.22193-1.34721,1.68267-1.63707.67836-.42677,1.5171-.79006,2.09493-1.29899.4531-.39907.97124-.87789,1.34383-1.35502.61208-.78382.319-1.42747-.72905-1.27568-.93934.13605-1.52268.58864-2.34404.97099-.74539.34698-1.36502.30343-2.16826.33906-.85227.03781-1.34502.49403-2.05824.87573-.36698.1964-.71758.31699-1.10813.40295-.59116.13012-.96594.48884-1.48694.80048-.48601.29071-1.00305.56253-1.46272.90524-.36294.2706-.83178.82959-1.26456.97179-.36963.12145-.93779-.0408-1.33024-.03648-.34504.00379-1.09042.24485-1.40816.08083-1.19865-.61874,1.01306-2.68075,1.43486-3.10359.28216-.28286.65948-.6539.79782-1.01362.13517-.35148-.04963-.64581.2191-.93134.33694-.35801,1.08208-.5989,1.53271-.78029.70012-.28182,1.26287-.78625,1.93791-1.09683.91733-.42204,1.87678-.53871,2.81689-.8989.86463-.33127,1.76456-.46829,2.60453-.80077,1.67785-.66413,3.34897-1.28391,5.01554-1.95234,1.10092-.44156,2.00096-.84065,3.17231-.89565.43208-.02029.84787-.06528.52067.09219Z"/>
   <path class="b"
         d="m13.62349,20.234c.59736-.16172,1.20293-.2457,1.8058-.37578.43172-.09315.79696-.26856,1.22207-.43279.94017-.36321,1.97143-.99842,2.97304-1.12406.88703-.11127,1.65701-.50083,2.5259-.63844.26605-.04214.66775-.10833.6607-.13544.94455.00199,2.02154.1989,2.55525,1.07257-.01795.89421.73685,2.46128.13532,3.34625-.28011.4121-.81545.76057-1.14304,1.14012-.48006.55619-1.01101,1.037-1.59529,1.49451-.38537.30176-.75724.61075-1.10387.95599-.45301.45119-.94966,1.22169-1.34699.21616-.24223-.61302.485-.90184.69695-1.29911.09741-.18258.22076-.72293.20687-.95737-.06024-1.01656-1.68746-.27012-2.28567-.13662-2.35096.52467-4.6074,1.15176-6.87175,1.94895-1.89908.66859-4.01958,1.33947-6.02993,1.46735-.72481.0461-1.76839.40964-2.12971-.45063-.31353-.74648.17553-1.16891.68783-1.60891.49478-.42496.7509-.93919.80923-1.57662.02739-.29926.05074-.88239.3182-1.07707.31803-.2315.98551-.09873,1.35333-.20904.35645-.10689.66981-.28427,1.04515-.35946.13555-.02716.35532-.02203.47459-.06673.18014-.06751.35008-.2689.53311-.35535.67958-.32096,1.56247-.15145,2.29934-.27267.74968-.12332,1.48242-.37055,2.20356-.56579Z"/>

</g>
</svg>
