<?xml version="1.0" encoding="UTF-8"?>
<svg xmlns="http://www.w3.org/2000/svg"
     version="1.1"
     width="75.35552538mm"
     height="17.25891583mm"
     viewBox="0.00000000 0.00000000 213.60619316 48.92298811">

<g transform="scale(5.79267105)">   <defs>
      <style type="text/css"><![CDATA[
      .a {
        fill: #000;
        stroke: #000;
        stroke-miterlimit: 2.61313;
        stroke-width: 0.28346px;
      }
    ]]></style>
   </defs>
   <path class="a"
         d="M2.35156,2.3125C1.23633.3457,2.49023.01758,4.82227.43359q6.501-.14648,13.002-.291c1.66309.71289,2.42383,2.08984.4082,2.72266a7.36285,7.36285,0,0,1-3.14453-.375A72.7868,72.7868,0,0,1,2.35156,2.3125Z"/>
   <path class="a"
         d="M4.30664,2.22656C4.667.666,3.32129.2793,1.2002.42383-.02734.54492.03906,1.48438.29,2.53906A9.39639,9.39639,0,0,1,2.26563,4.92578,43.86346,43.86346,0,0,0,23.46,7.86914c2.42871-.23242,2.19336-1.41211.917-1.6875a3.11783,3.11783,0,0,0-1.51855.33789C13.44434,6.4668,8.67773,4.42969,4.30664,2.22656Z"/>
   <path class="a"
         d="M20.32715.78516c-1.207-.06641-2.00391.27344-1.89844,1.51563,2.48438,3.11523,5.3916,5.00781,8.91895,5.10938C31.22949,8.666,37.08594,8.959,36.7168,5.873q-1.7915-1.40918-6.1123-.79492c-2.67383-.0918-5.08887-.28906-5.69336-1.21094Q23.24707.60645,20.98242.375q-.32812.20508-.65527.41016Z"/>
   <path class="a"
         d="M13.09766,3.81055c-.45312-1.5332-.22559-2.58984.8252-3.06836a4.35513,4.35513,0,0,1,3.92676.30469c.2373.00586.47363.01367.71094.01953A5.459,5.459,0,0,1,19.0752,3.8418,4.54568,4.54568,0,0,1,13.335,7.00586a4.66156,4.66156,0,0,0-.2373-3.19531Z"/>

</g>
</svg>
