<?xml version="1.0" encoding="UTF-8"?>
<svg xmlns="http://www.w3.org/2000/svg"
     version="1.1"
     width="33.59746778mm"
     height="49.94350272mm"
     viewBox="0.00000000 0.00000000 95.23691227 141.57209830">

<g transform="scale(5.41829972)">   <defs>
      <style type="text/css"><![CDATA[
      .b {
        stroke: #000;
        stroke-linecap: round;
        stroke-linejoin: round;
        stroke-width: .25px;
      }
    ]]></style>
   </defs>
   <path class="b"
         d="m6.16026,4.70346c.03801-1.56201,1.76601-2.23901.411-3.58801C5.73725.28543,3.99625-.11752,2.92526.27847c-1.18401.43896-4.097,3.97693-1.35001,3.88196,1.455-.04999,3.25999-.84998,4.315.40698"/>
   <path class="b"
         d="m6.16026,4.70346c.03801-1.56201,1.76601-2.23901.411-3.58801C5.73725.28543,3.99625-.11759,2.92526.27841c-1.18399.43903-4.097,3.97699-1.35001,3.88202,1.455-.05096,3.25999-.85101,4.315.40704"/>
   <path class="b"
         d="m8.85726,9.99447c-.01102-1.23102.68298-2.45203,1.26199-3.49402.37399.41998-.582,2.33002-.69501,3.14899-.157,1.12598-.202,2.34503-.03099,3.47302.222,1.47498.27499,2.91498.27299,4.47699-.002,1.83698.89099,2.87598,1.08801,4.60199.97098-.44299,1.211-1.79797,1.83798-2.58301,1.142-1.43298,2.91701-4.25397,4.83102-4.52997.28897,1.16901-1.68802,2.02301-2.36702,2.76801-.74701.81897-1.121,1.80597-1.91299,2.57495-.726.70502-1.347,1.026-1.718,2.10706-.339.99194.22699,3.09296-1.039,3.43097-.931.25-1.991-.93597-2.39301-1.60498-1.121-1.86804-.88699-4.34003-1.36099-6.40302-.334-1.46002-.412-4.112-1.686-4.95203-.991-.65295-3.498-.84601-4.69701-.86395-.53799-.00903.838-2.15802.964-2.32806,1.196-1.61194,3.61502-3.02795,5.31799-1.55597.71001.61298.931,1.60797,2.056,1.73303"/>
   <path class="b"
         d="m8.85726,9.99441c-.011-1.23102.68201-2.45197,1.26199-3.49402.37401.41998-.582,2.33008-.69499,3.14905-.15701,1.12598-.20201,2.34497-.03101,3.47296.222,1.47504.27499,2.91504.27299,4.47699-.00201,1.83704.89101,2.87604,1.08801,4.60205.96999-.44299,1.211-1.79803,1.83798-2.58301,1.14201-1.43298,2.916-4.25403,4.83102-4.53003.28899,1.16797-1.68802,2.02301-2.36702,2.76801-.74702.81903-1.121,1.80603-1.91301,2.57501-.726.70496-1.34698,1.02606-1.71799,2.10699-.339.99097.22699,3.09302-1.039,3.43097-.93098.25006-1.991-.93597-2.39301-1.60498-1.12102-1.86798-.888-4.341-1.36099-6.40302-.33499-1.45996-.412-4.11298-1.686-4.95197-.99101-.65295-3.498-.84601-4.69701-.86499-.53799-.00806.838-2.15704.964-2.32703,1.19598-1.612,3.614-3.02795,5.31799-1.55597.71001.61298.931,1.60797,2.056,1.73297"/>

</g>
</svg>
