<?xml version="1.0" encoding="UTF-8"?>
<svg xmlns="http://www.w3.org/2000/svg"
     version="1.1"
     width="48.40025167mm"
     height="44.74081433mm"
     viewBox="0.00000000 0.00000000 137.19757395 126.82438136">

<g transform="scale(4.30598027)">   <defs>
      <style type="text/css"><![CDATA[
      .b {
        stroke: #000;
        stroke-linecap: round;
        stroke-linejoin: round;
        stroke-width: .15px;
      }
    ]]></style>
   </defs>
   <path class="b"
         d="m20.82144,7.26152c-1.40284,0-2.73979-.15769-4.12324-.15769-1.30089,0-2.56649.15769-3.8419.15769-1.29353,0-2.6598-.07367-3.85864.42068-1.03541.42696-1.05455,1.41057-1.34305,2.33884-.68224,2.19509-.35348,4.80294-.13141,7.02875.11665,1.16919.23711,2.39794.31537,3.59079.07652,1.16614.54245,1.986,1.28726,2.86123.32945.38713.58367.45848,1.05625.52258.52428.07112.71504.36055,1.23072.47633,1.48533.33349.4228,1.58506-.39618,2.1306-.89915.59894-2.04267,1.06159-2.99609,1.42067-.6979.26284-1.25796,1.18766-1.9428,1.31186-.55345.10037-1.06389-.35308-1.50953-.64524-.5604-.3674-1.07654-.77108-1.59416-1.2166-.45796-.39418-.68815-.76974-1.06855-1.19365-.32896-.36658-1.02217-.25955-1.32323-.58065-.32401-.34559-.1249-1.9701-.10292-2.45805.10385-2.30564.07483-4.70022.05308-7.00541-.01026-1.08756.10604-1.99537-.2622-3.03318-.30945-.87212-.15829-2.00644-.15829-2.94783,0-.56294-.03769-1.13906.00018-1.70064.0452-.67014.36731-1.2379.47166-1.87019.12237-.7415-.2528-1.71909.05378-2.26549.23401-.41707.45916-.94756.71366-1.3423.29246-.45364.78712-.61068,1.26939-.76935.61345-.20184,1.11582-.40024,1.70521-.66181,1.51395-.67191,2.96825.08492,4.56851-.06246,1.35322-.12463,2.61813-.50829,3.89746-.92246.5839-.18903,1.12439-.09113,1.69385-.15627.66929-.07656,1.28052-.31521,1.96028-.36374.35958-.02567.71007-.04395,1.07105-.05995.58638-.02598,1.10393-.083,1.66356.05845.37256.09417.71701.22655,1.11177.22073.00134.02458-.01038.03786-.03519.03984.55553.16845,1.11386.41619,1.68602.47382.8459.0852,1.74105-.0276,2.58082-.05444.97904-.03129,2.12544.11071,2.81523.85176.79804.85733,1.31567,2.31545.30146,3.28402-1.16959,1.11696-2.85702,1.58522-4.37771,1.88312-.96657.18935-2.04566.25593-2.44146.39567Z"/>
   <path class="b"
         d="m22.08341.91935c-.28935.25994-.55541.54102-.79818.84324.0042.30217-.22145.80801-.30777,1.17192-.10842.45707-.16522.98399-.12059,1.46807.09044.98092.24704,2.03612.50364,2.9785.23163.85068.4497,1.6144.53793,2.48481.08255.81445-.10795,1.61753-.02989,2.42116.1102,1.13448.41364,2.2979.25486,3.43934-.1264.90863-.26139,1.76692-.20532,2.72324.04657.7943.24636,1.52381.20899,2.32682-.02536.54483-.05269,1.0553.02206,1.58682.18571,1.32059.26301,2.63316.81165,3.85996.14948.33424.28689.84003.53563,1.11082.2162.23536.66052.31073.94864.43737.91391.40172,1.72207.92467,2.72981.92207.5493-.00141,1.22475-.03332,1.71079-.33561.56354-.3505,1.18461-.6887,1.76254-1.05014.96251-.60195.8147-1.29666,1.01938-2.32068.16748-.83791.2393-2.10582-.3397-2.78702-.26514-.31194-.58791-.51311-.93707-.73362-.17073-.10782-.34276-.16955-.4877-.32934-.23069-.25432-.17554-.4677-.24215-.7894-.07519-.36311-.30066-.71655-.35089-1.09476-.05996-.45141-.11519-.88521-.17375-1.33512-.07673-.58957-.03532-1.30085-.26269-1.84195-.25775-.6134-.22537-.83369-.17422-1.53406.21267-2.91181.2856-5.96363-.20929-8.84511-.11329-.65965-.13098-1.37321-.33861-2.00783-.13321-.40714-.41123-1.3177-.67873-1.60477-.52953-.56828-.77492-.76201-1.58859-.96865-.60197-.15288-2.0405-.05874-2.63979-.10852-.37902-.03148-.75609-.08754-1.16098-.08754Z"/>

</g>
</svg>
