<?xml version="1.0" encoding="UTF-8"?>
<svg xmlns="http://www.w3.org/2000/svg"
     version="1.1"
     width="65.75507503mm"
     height="53.68610726mm"
     viewBox="0.00000000 0.00000000 186.39231117 152.18103392">

<g transform="scale(5.37310802)">   <defs>
      <style type="text/css"><![CDATA[
      .b {
        stroke: #000;
        stroke-linecap: round;
        stroke-linejoin: round;
        stroke-width: .25px;
      }
    ]]></style>
   </defs>
   <path class="b"
         d="M24.47054.33973c-.34664-.25527-.87041-.30687-1.19457-.0236-.149.1302-.24064.31266-.36677.46511s-.31641.28218-.51.24124c-.14749-.03119-.25984-.15382-.40327-.20023-.32818-.10618-.65439.24968-.66525.59444s.1808.65839.34921.95941c.46882.83798.80374,1.75069.98822,2.69302.39307-.29524.97848-.30201,1.37827-.01593.22645.16204.51168.41564.73117.24454.20057-.15635.04188-.40099.14007-.57817.13578-.245.2728-.20958.4209-.3935.3498-.4344.37967-.78595.27287-1.3781-.14473-.80247-.46543-2.11079-1.14085-2.60823Z"/>
   <path class="b"
         d="M30.12629,1.37185c.09802.28132.12114.58835.06634.88117-.41999.02562-.44456-.72136-.84326-.85585-.1725-.05819-.35808.02145-.52257.09945-.42649.20225-.85298.4045-1.27947.60674-.13171.06246-.26896.12939-.35507.247-.09995.13652-.11324.31882-.09223.48671.06544.52285.41233.9588.66383,1.42184s.40159,1.06845.08913,1.49274c-.1133.15384-1.14438.83062-1.30333.93663C17.96154,12.41644,8.6253,15.09185.83534,21.8296c-.42393.36667-.84261.92991-.67083,1.44111.08003.23815.33449.38151.58357.41437,1.91177.25227,3.28759.38212,4.8626.0375,1.78836-.3913,3.31977-.86713,4.93071-.92707,2.49353-.09277,6.29452-1.1006.71995-.76601-1.87303.11243-4.23019-1.30675-5.79804-2.22972,3.80577-2.60046,7.78708-4.94395,11.90783-7.00929,1.45651-.73001,2.93021-1.42522,4.38939-2.14987,2.96222-1.4711,5.7972-2.27288,8.69628-4.7718.69279-.59716,1.51525-1.13423,1.07211-2.08708-.37018-.79597-1.12031-1.59975-1.40261-2.4099h0Z"/>
   <path class="b"
         d="M32.37427,11.9444c1.07168-1.10031,1.7057-2.6651,2.02122-4.1683.10151-.48362.28225-.58254.07205-1.02976s-.60214-.68643-1.09181-.61995c-.19555.02655-1.61534,1.03248-2.19368.71533-.91793-.50337-.6218-.07635-1.62545.40813-.64128.30955-1.37687.7582-1.38949,1.47017-.00357.20167.05432.41322-.02327.59941-.22622.54289-1.27891.30005-1.44123.86535-.09692.33755.24803.63908.57721.76145s.71484.19037.91897.47614c.33966.4755-.07604,1.113-.47809,1.53705-1.66664,1.75781-3.44521,3.40949-5.32135,4.94171-.50363.4113-1.01452.81422-1.50064,1.24608-1.5337,1.36255-2.80025,2.99414-4.05728,4.61545-.21358.27547-.4277.67678-.19861.93949.07407.08494.18124.13236.28572.17462,1.2787.51725,2.60261.17823,3.95275-.10411.54727-.11445,1.2922-.31759,1.6691.09538.29867.32725-.01738,1.61448-.09538,2.05061-.09154.51184.10263.76723.01109,1.27907.55299-.54063,1.22095-.96309,1.9464-1.23103.36939-.13643.75842-.23571,1.08964-.44868s.60257-.57609.57051-.96856c-.01401-.17148-.08434-.33579-.08764-.50781s.09651-.36963.268-.38358c.11055.16381.2211.32762.33164.49142.93295-.89819.99746-2.34516,1.00054-3.6402.00037-.15547-.00549-.32753-.11237-.44044-.12454-.13158-.33205-.1279-.51214-.10814-.97172.10659-2.16058.01464-3.1227.18762s-1.73727.60391-2.63893.22626c-.15498-.06491-.31784-.15557-.37631-.31309-.09931-.26756.90481-1.04909,1.13251-1.22114.87301-.65965,1.06049-.61931,1.97689-1.17929.98341-.60093,1.88295-1.50536,2.76622-2.24479,1.82033-1.52389,4.01893-2.77064,5.67589-4.47186h.00002Z"/>

</g>
</svg>
