<?xml version="1.0" encoding="UTF-8"?>
<svg xmlns="http://www.w3.org/2000/svg"
     version="1.1"
     width="37.73580779mm"
     height="26.16325326mm"
     viewBox="0.00000000 0.00000000 106.96764118 74.16353284">

<g transform="scale(5.32845630)">   <defs>
      <style type="text/css"><![CDATA[
      .b {
        stroke: #000;
        stroke-linecap: round;
        stroke-linejoin: round;
        stroke-width: .25px;
      }
    ]]></style>
   </defs>
   <path class="b"
         d="M5.03984,3.55901c-.32362.32206-.64585.66432-.81505,1.08839s-.15373.95181.1525,1.29045c.54102.5983,1.5201.27964,2.24245-.07939.83514-.41509,1.67027-.83018,2.50542-1.24527.33745-.16773.68333-.34172.93615-.62116s.3948-.69252.2526-1.0415c1.50501-.42299,2.40266.40777,3.67119,1.32143.64346.46346,1.29099,1.32448,1.52656,2.08167s.56909,1.34741-.20008,1.54031c-.58632.14706-1.17428-.18836-1.686-.51012-.61158-.38456-1.25917-.81063-1.5336-1.47892-.18212-.44347-.25302-1.04001-.70954-1.18633-.52533-.16838-1.01736.46-1.56627.4049-.17089-.01715-.32686-.10006-.48573-.16533-.87748-.36052-1.87188-.19098-2.80425-.01594-.78358.1471-1.60446.31122-2.21715.82137s-.91587,1.48625-.43348,2.12101c.29102.38294.78589.55391,1.12216.89779.25164.25733.40951.60656.70427.81308.19966.13988.44281.19997.67974.25731.55472.13426,1.10946.26852,1.66418.40277.1702.04119.36018.09712.44205.25192.15751.29779-.21458.59746-.53486.70191-.81397.26548-1.72503.28649-2.51348-.04726s-1.431-1.04808-1.5773-1.89166c-.14895-.85883.18758-1.82827-.27589-2.56651-.48326-.76975-1.6806-.83373-2.40892-.29003S.14176,7.91802.12571,8.82675c-.01325.75003.15803,1.53189.63803,2.10837.24244.29116.55208.51751.86071.73728,1.61378,1.14919,3.44955,2.24789,5.42583,2.1091.97252-.0683,1.89587-.43495,2.80095-.79727,1.83562-.73483,3.67124-1.46967,5.50687-2.20451,1.04669-.41902,2.09339-.83802,3.1391-1.25949.35835-.14443.72709-.29597.99973-.56972.57846-.58083.55219-1.55621.20484-2.29873s-.94878-1.32897-1.46149-1.9686c-.64764-.80797-1.16593-1.71925-1.87328-2.47551C15.22271.98428,13.5957.22509,11.92303.13407,9.16787-.01585,6.89143,1.71634,5.03984,3.55901Z"/>

</g>
</svg>
