<?xml version="1.0" encoding="UTF-8"?>
<svg xmlns="http://www.w3.org/2000/svg"
     version="1.1"
     width="35.83142344mm"
     height="41.22675406mm"
     viewBox="0.00000000 0.00000000 101.56934231 116.86323100">

<g transform="scale(3.50959183)">   <defs>
      <style type="text/css"><![CDATA[
      .b {
        stroke: #000;
        stroke-linecap: round;
        stroke-linejoin: round;
        stroke-width: .25px;
      }
    ]]></style>
   </defs>
   <path class="b"
         d="M5.17779,2.54057c-1.12453.58414-2.24772,1.32151-2.82544,2.44936-.19504.38077-.31898.84331-.13767,1.2308.1543.32978.49142.52775.80917.70552.45078.25218.90157.50437,1.35235.75655.61942.34652,1.50089.65152,1.94648.09906.20249-.25106.22885-.60658.41683-.86868.17819-.24846,1.29063-1.03749,1.57413-1.15198,3.52727-1.42439,6.49601-1.54966,10.29883-1.64442,1.34932-.03362,2.71857.02161,4.01061.41203.39079.11809.79265.28083,1.04212.60398.31086.40267.31281.98004.1262,1.45328-.55757,1.41402-2.34815,1.81363-3.86612,1.89189-2.83364.14609-5.68844-.12495-8.44397-.80167-.81591-.20038-1.79973-.3944-2.39591.19757-.29598.2939-.4174.73266-.39108,1.14894.06581,1.04076.97956,1.87066,1.97681,2.17565s2.06786.1967,3.10476.08552c1.9949-.2139,3.9898-.4278,5.98471-.6417,1.88581-.2022,3.67801-.7808,5.49961-1.30896,1.9523-.56605,3.0542-1.67891,2.94036-3.57211-.04179-.695-.29891-2.33303-.7835-2.83297-.65418-.67489-1.99603-1.46572-2.91319-1.67127C21.19569.51553,18.29433.08987,14.88075.12728c-3.36286.03685-6.71734.86241-9.70296,2.4133h0Z"/>
   <path class="b"
         d="M1.76893,21.39412c.52458-.3164.78216-.92462,1.16198-1.40527s1.08815-.8529,1.5853-.49495c.76809.55304.08928,2.08589.9058,2.56455.76775-3.07705,1.9565-6.04877,3.52276-8.8064.52063-.91666,1.08391-1.81209,1.51926-2.77218.26209-.57799.48026-1.20264.41962-1.83437-.06064-.6317-.46716-1.26739-1.08379-1.4173-1.69275-.41153-1.68029,1.68739-2.21688,2.57417-.57081.94332-1.97552,1.08871-2.49639,2.09275-1.51448,2.91935-2.59016,6.56676-3.31766,9.499Z"/>
   <path class="b"
         d="M.125,28.77108c.3908-.22954.851.2056,1.00561.63163s.23174.94246.62226,1.17248c.14569-.86517.50122-1.69424,1.02755-2.39618.25505.26987.46834.57914.62995.91346.74213-1.26906,1.27185-2.662,1.56054-4.1035.05339-.26657.09786-.54755.014-.80616s-.33701-.48261-.60566-.44097c-.5655.08767-.64364,1.13771-1.214,1.09112-.3637-.02971-.57437-.53628-.93825-.50883-.48219.03638-.49014.90862-.96616.99371-.13062-.62825.14075-1.26024.3552-1.86503s.36653-1.31208.03122-1.85919c-.03357-.05478-.07566-.10996-.13671-.12996-.13558-.04441-.2533.10308-.30985.23407-.83823,1.94145-.74361,4.95434-1.07569,7.07333v.00002Z"/>
   <path class="b"
         d="M19.03428,23.41994c.15786-.26458.2954-.63182.08014-.85224-.26948-.27594-.74115.02184-.919.36408s-.29182.77671-.64862.92318c-.24875.10211-.52946.02178-.79306-.03129-.39266-.07905-.81518-.09114-1.1791.07619s-.64923.54902-.60717.94734c.02712.25678.18085.51577.09099.75783-.1505.40541-.74029.31618-1.14986.45493-.38346.1299-.63107.49531-.82971.8481-.56866,1.00991-.97299,2.1121-1.1923,3.25017-.15694.81442-.18703,1.75222.36648,2.3699.71838.80166,1.99135.64794,3.04515.42828.46862-.09768.93724-.19536,1.40585-.29304.49925-.10407,1.01893-.21749,1.4167-.53665s.62677-.9111.37452-1.35433c-.31267-.54938-1.1268-.54565-1.70017-.27951s-1.06576.71749-1.68105.8624c-.15442.03637-.33107.04793-.45803-.04722-.57242-.429,3.94596-7.16362,4.37823-7.88814l.00002.00002Z"/>
   <path class="b"
         d="M27.82859,25.30908c.10748-.38536.2125-.80974.04519-1.17314s-.74063-.5374-.96645-.20715c-.1764.25797-.16619.75931-.47667.72372.04763-.33479-.26324-.67242-.60081-.65255s-.60668.39165-.5201.71854c-.32759-.15043-.37126-.58436-.43951-.93832s-.3555-.76946-.69344-.64402c.16402.77689.02527,1.61365-.38071,2.29603-.14019-.77754-.34964-1.65597-1.0417-2.03711-.76963-.42386-1.8849.16422-1.96991,1.03872-.11338,1.16644,1.27855,2.26605.77354,3.3236-.31048.65019-1.14249.80166-1.83973.98331-.62658.16324-1.23027.41409-1.78802.74298-.15853.09348-.3237.20578-.3847.37941-.0577.16424-.00854.34465.04075.51161.27543.93284.55085,1.86569.82628,2.79853.68702-.16972,1.38735-.34498,1.98627-.72193s1.08999-.99706,1.12565-1.70384c.01462-.28984-.04621-.58635.02556-.86754s.35362-.54541.62855-.4525c.505.17066.3755,1.23541.90585,1.1818.17525-.01772.29674-.17442.42402-.29618.66905-.64008,1.75426-.4288,2.63344-.13831.87906.29045,2.06669,1.00031,2.67356.08476-.03824.02577-.60687-1.11593-1.8079-1.76137-.77978-.41905.59424-2.37604.82099-3.18905Z"/>

</g>
</svg>
