<?xml version="1.0" encoding="UTF-8"?>
<svg xmlns="http://www.w3.org/2000/svg"
     version="1.1"
     width="41.90206494mm"
     height="40.31109751mm"
     viewBox="0.00000000 0.00000000 118.77747249 114.26763269">

<g transform="scale(4.75185159)">   <defs>
      <style type="text/css"><![CDATA[
      .b {
        stroke: #000;
        stroke-linecap: round;
        stroke-linejoin: round;
        stroke-width: .25px;
      }
    ]]></style>
   </defs>
   <path class="b"
         d="M15.01886,2.19087c2.60182,1.72817,3.19402,2.54722,3.67106,4.9127-1.7313.14708-2.93646-1.63198-4.47141-2.4462-1.47051-.78002-2.88721-.4851-4.6513.08072-.6622.42042.09773-1.0303-.7004-1.29348s-1.68104-.16848-2.36332.32221c-.39212.28201-2.24666-.08011-2.69723-.2541-.62578-.24164.07803-1.51338.51898-2.0189C5.52356.12002,7.09219-.0511,8.8896.25327c1.79741.30437,2.23452.68386,4.18732,1.18703.71132.18328,1.33007.34415,1.94194.75057Z"/>
   <path class="b"
         d="M7.73045,11.87223c-1.0296,2.31607-1.84155,5.08838-.59555,7.29559.50325.89147.50052,2.74135,1.41224,3.20691,1.57346.80347,3.21784,1.07626,5.28908.32524.52969-.19206.73037-.851.99556-1.34812.41043-.76937.8338-1.63183.61875-2.4769-.31856-1.25179-1.79267-1.74485-2.75105-2.61085-1.13141-1.02236-1.85039-3.32854-.36779-2.97191,3.62487.87193,4.17154-1.36772.24201-4.15525-3.70676-2.6295-4.36476,1.65895-4.84325,2.73529Z"/>
   <path class="b"
         d="M18.23992,16.91778c.02783,1.23955.51578,2.4408.49441,3.68047s-1.04069,2.08053-2.07154,2.76945-2.66296.87675-3.14575-.26526c-.91914-2.17415-1.01209-4.48593-.81757-6.83836.16966-2.05178-.07145-3.17707-.0919-6.10285-.008-1.14481-1.62674-1.63581-2.19566-2.62929s-.31009-2.63569.82517-2.78353c.75997-.09897,1.39871.53076,1.90432,1.10671,3.85236,4.38835,4.90708,2.53601,5.09852,11.06264v.00002Z"/>
   <path class="b"
         d="M24.36761,1.83356c.92638.63511.3704,2.00456-.05394,3.04449s-1.28734,1.82686-2.12359,2.57668c-1.18963,1.06666-2.72089,2.63913-4.31854,2.61642-1.90212-.83589,3.16641-6.09887,5.70351-7.99118.21065-.15711.56211-.12014.79256-.24641Z"/>
   <path class="b"
         d="M15.67801,3.89406c1.25494.30491,1.72632.67309,1.97836,1.64407.57113,2.20029.67274,4.88533-.75672,6.52128-.43031.49247-1.24466.26275-1.40076-.37233-.1132-.46052-.19347-.99438-.47895-1.36234-1.21003-1.55963-2.84274-3.74502-3.23906-5.63929-.10093-.48241.29263-.93917.78542-.94706,1.03962-.01664,2.07843.02977,3.11172.15567h-.00001Z"/>
   <path class="b"
         d="M4.84247,8.03032c1.47696-.27787,1.77113-.36902,2.704.47419-1.07439,1.88812-1.2468,2.19679-2.91379,3.58979-.61829.51666-1.27113.98867-2.07462,1.04896s-2.39369.36089-2.43173-.44395c-.02836-.60005.40034-1.11764.83336-1.534,1.48885-1.43159,1.76155-1.42535,2.87604-2.75403.12949-.15438.80871-.3437,1.00674-.38096Z"/>

</g>
</svg>
