<?xml version="1.0" encoding="UTF-8"?>
<svg xmlns="http://www.w3.org/2000/svg"
     version="1.1"
     width="9.84726165mm"
     height="37.20527754mm"
     viewBox="0.00000000 0.00000000 27.91348229 105.46380471">

<g transform="scale(4.31933435)">   <defs>
      <style type="text/css"><![CDATA[
      .b {
        fill: #000;
        stroke: #000;
        stroke-miterlimit: 10;
        stroke-width: .1px;
      }
    ]]></style>
   </defs>
   <path class="b"
         d="M5.89796.39198c-.76988-1.19333-2.57258,1.06528-2.86859,1.75579-.54914,1.28096-.14354,3.11855-.20912,4.52737-.07314,1.57121-.00935,3.10586-.00498,4.69894.00457,1.66665-.62205,3.07095-.79211,4.69861-.15804,1.51266-.35753,2.62183-1.15842,3.97404-.65256,1.10177-1.49508,3.413.09908,4.06456,1.14956.46985,3.34312.35587,3.99464-.88844.49512-.94561.23633-2.2305.28659-3.27005.06088-1.25911.13826-2.51439.289-3.7567.34624-2.85346,1.17288-5.44972.77034-8.36255-.20425-1.47799-.21376-2.9488-.21376-4.45797,0-.90785.27885-2.32646-.19267-2.98361Z"/>

</g>
</svg>
