<?xml version="1.0" encoding="UTF-8"?>
<svg xmlns="http://www.w3.org/2000/svg"
     version="1.1"
     width="53.39342971mm"
     height="21.83365811mm"
     viewBox="0.00000000 0.00000000 151.35147457 61.89072629">

<g transform="scale(5.59901992)">   <defs>
      <style type="text/css"><![CDATA[
      .a {
        fill: #000;
        stroke: #000;
        stroke-miterlimit: 2.61313;
        stroke-width: 0.28346px;
      }
    ]]></style>
   </defs>
   <path class="a"
         d="M4.35205,6.19189c1.375-1.93213,1.0625-3.73291-.40625-4.36377q-.835.35449-1.67383.71094C1.188,2.97754.28955,3.46777.69971,4.31445Q.54736,6.64868.395,8.98291a.98161.98161,0,0,0,0,1.31934,20.0814,20.0814,0,0,0,4.92188.15137,6.11737,6.11737,0,0,0,4.10938.20313c3.416-.0166,4.97314-.96484,5.68408-2.334q-.02637-.65918-.86328-.91406-1.166.71191-2.33447,1.42188a29.79853,29.79853,0,0,0-6.748-.76172q-1.52344.17725-.8125-1.877Z"/>
   <path class="a"
         d="M13.08057,5.48145q1.21655-.73682,2.436-1.47168,1.39453-.27832,1.77539,1.67334c-.22266.78027-.27539,1.49121.86133,1.72559a11.22465,11.22465,0,0,1,5.68359.8125c-3.73633,1.90332-7.123,1.4082-10.45361,1.21875a9.65944,9.65944,0,0,1-.30273-3.9585Z"/>
   <path class="a"
         d="M14.14551,9.896c2.00391-.59082,4.66016-2.2998,7.61133-4.51611a8.18941,8.18941,0,0,0,3.34961-2.2832c1.43945.123,1.69141-1.2998,1.77539-2.94238a1.9322,1.9322,0,0,0-1.21875.709c-1.60742-1.10547-2.97656.04785-4.3125,1.52344-.94922-.02051-1.42187,1.14844-1.82617,2.48633-1.03125,1.979-4.75391,3.55127-5.37891,5.02295Z"/>

</g>
</svg>
