<?xml version="1.0" encoding="UTF-8"?>
<svg xmlns="http://www.w3.org/2000/svg"
     version="1.1"
     width="24.84560140mm"
     height="46.76051010mm"
     viewBox="0.00000000 0.00000000 70.42851395 132.54944516">

<g transform="scale(5.54215716)">   <defs>
      <style type="text/css"><![CDATA[
      .c {
        stroke: #000;
        stroke-linecap: round;
        stroke-linejoin: round;
        stroke-width: .01px;
      }
    ]]></style>
   </defs>
   <path class="c"
         d="M5.16255,2.07191c.07152-.36313.11454-.74703.32098-1.05422.13096-.19488.31936-.34437.51745-.47042C6.71241.09458,7.5922-.08638,8.42454.04879c.46135.07492.93611.26652,1.19254.65729.28353.43207.23574.99608.14647,1.5051-.41911,2.3898-1.51438,4.64545-1.70596,7.06415-.04851.61243-.0382,1.22899-.10424,1.83977-.09168.84799-.329,1.67254-.56532,2.49208-.13991.4852-.28118.97389-.51152,1.42326-.33587.65524-.85279,1.21035-1.14155,1.88768-.06918.16227-.1251.3441-.07369.51284.0609.19992.25306.32568.43152.43442.352.21447.704.42895,1.056.64342.87563.53352,1.79484,1.08154,2.8175,1.15597.75474.05493,1.85615-.58991,2.43694.16381.28387.36839.31914.86889.29206,1.33318-.016.27435-.05102.55254-.16317.80343-.13449.30088-.37158.54391-.62389.75593-1.68532,1.41621-4.30119,1.58968-6.15876.4084-.6366-.40483-1.22845-.96504-1.97828-1.04813-.63627-.07051-1.27026.22346-1.90708.15822-1.0758-.11022-1.80956-1.2442-1.8559-2.32464s.4168-2.10987.87-3.09179c.64741-1.40269,1.29482-2.80538,1.94224-4.20807.49934-1.08187,1.41717-2.26888.95102-3.44397-1.00042-2.52191.91814-4.69787,1.39107-7.09921v-.00002h.00001Z"/>

</g>
</svg>
