<?xml version="1.0" encoding="UTF-8"?>
<svg xmlns="http://www.w3.org/2000/svg"
     version="1.1"
     width="31.76240890mm"
     height="28.04811381mm"
     viewBox="0.00000000 0.00000000 90.03516318 79.50643065">

<g transform="scale(3.07954025)">   <defs>
      <style type="text/css"><![CDATA[
      .b {
        fill: #000;
        stroke: #000;
        stroke-miterlimit: 10;
        stroke-width: .1px;
      }
    ]]></style>
   </defs>
   <path class="b"
         d="M13.1902,1.67356c-2.40919-.21082-5.56961,3.67267-7.12024,5.22386-2.04926,2.05003-4.46048,5.19856-5.45332,7.96609-.99712,2.77951-.73713,7.51278,1.25124,9.81944,2.56812,2.97917,7.51853-.87893,9.34581-3.18079,1.72236-2.16969,3.38348-4.06439,4.50074-6.66741.27357-.6374,1.10013-1.89552.60449-2.66231-.48946-.75719-2.08852-.7431-2.48522.00679.40772.50031.74976,1.23316.47402,1.9036-.37555.9131-1.3411.49962-1.62242,1.35265,1.93496,1.14675-2.08368,3.1119-2.7805,3.83384-.62473.64726-1.2918,1.54042-2.22302,1.31316-1.1138-.27189-1.44334-1.78718-1.29331-2.75672.44297-2.86228,3.55461-7.1269,6.08277-8.51669,1.2515-.688,4.99902-2.17039,2.55696-3.98745-.79573-.59208-1.9923-.4777-1.58471-1.8101.11789-.38528,2.13557-2.16684-.25329-1.83796Z"/>
   <path class="b"
         d="M14.766,10.4717c.86427-1.15912,1.82528.9006,2.76091.53461,1.09875-.42974.26592-2.01807-.14725-2.63519.48098-.47986,1.35624-.52051,1.65537-1.18101.30597-.6755-.10137-1.83363-.04407-2.60471.49733-.19612.97537-.02569,1.48701-.15443.53941-.13575.80667-.43376,1.28419-.61989,1.30006-.5068,1.13806-.11356,1.43374,1.26365.52924-.37568.92866-1.51746,1.74191-1.43737.97347.09588.76602,1.33704,1.2531,1.86005.50325-.36028.73644-1.32774,1.07972-1.81508.47752-.67788,1.15968-.79227.76126-1.74238-.42-1.00162-2.58745-1.72123-3.54855-1.84522-1.82649-.2356-3.73308.4866-5.19315,1.52931-1.27251.90873-3.17581,2.03844-3.60624,3.52939-.37083,1.28441-1.07977,3.69022-.91794,5.31826Z"/>
   <path class="b"
         d="M24.35199,6.26961c-.43441,1.295-.06487,2.98497-.26566,4.33342-.20101,1.34971-.53067,2.09778-1.40891,3.18455-1.72798,2.13817-4.22466,3.66242-6.36183,5.31498-1.18152.91366-2.74729,1.66908-3.24362,3.16094,1.78887.308,4.12402-2.85943,5.39961-3.91281.87521-.72273,1.9081-1.24726,2.82418-1.9702.8212-.64804,1.60404-2.08031,2.63987-2.20853.24607.58252.20572,1.22598-.09583,1.79475,1.81581.06729,2.52232-3.36021,3.26256-4.5458.52081-.83417,1.42435-1.26261,1.85595-2.13774.38424-.77916.0829-1.32839.12148-2.09471.10059-1.99719.53046-2.84861-1.50929-1.38197-.8372.60198-3.28665.37356-3.2185.46321v-.00009Z"/>

</g>
</svg>
