<?xml version="1.0" encoding="UTF-8"?>
<svg xmlns="http://www.w3.org/2000/svg"
     version="1.1"
     width="21.51716504mm"
     height="46.88960299mm"
     viewBox="0.00000000 0.00000000 60.99351921 132.91539448">

<g transform="scale(6.18595529)">   <defs>
      <style type="text/css"><![CDATA[
      .c {
        stroke: #000;
        stroke-linecap: round;
        stroke-linejoin: round;
        stroke-width: .01px;
      }
    ]]></style>
   </defs>
   <path class="c"
         d="m3.58.08164c-.2.1-.4.3-.6.9-.2.3-.4.6-.5.7-.1.1-.2.3-.2.4,0,.2-.5,1-.8,1.2-.2.2-.3.7-.1,1.2.1.5,0,.7-.3,1.4-.1.2-.1.3,0,.5s.1,1.8-.1,2.6v.5c.1.1-.1.9-.3,1.3-.1.3-.1.5-.1.8.1.3.1.4,0,.6-.1.1-.1.3-.1.5,0,1-.1,1.5-.2,1.6-.1.1-.1.2-.1.8,0,.5,0,.7-.1.8-.1.1-.1.4,0,.9.1.2.1.4.1.6.1.3.3.5.8.7.3.1.5.2.6.1.2-.1.4,0,.4.2s.4.2,1,.1c.2-.1.5-.1.6-.1s.3-.1.4-.2c.1-.1.3-.2.5-.3.2,0,.3-.1.3-.2,0-.3.9-.9,1.2-.8.2.1.3.5.1.8,0,.2-.1.5-.1.7s0,.5-.1.8c-.1.5-.1,1.2.1,1.3,0,0,.1.2.1.4,0,.3.2.6.4.6,0,0,.3-.1.6-.2.3-.1.5-.2.6-.2,0,0,.2-.2.3-.6.2-.3.3-.6.4-.6s.2-.2.3-.3c.1-.1.1-.2.2-.2,0,0,.1-.1.2-.2.1-.1.1-.2-.1-.4-.1-.1-.2-.3-.2-.4s0-.3-.1-.4-.1-.3,0-.4c.1-.2,0-.6-.3-.9-.1-.1-.2-.2,0-.4.1-.1.1-.4.1-.7s0-.6.1-.7c.1-.1.1-.2.1-.3-.1-.1-.1-1.6-.1-2.6,0-.4.2-1.2.3-1.3,0,0,.1-.2.1-.4s.1-.5.1-.6q.1-.3,0-.7c-.3-.2-.3-.5,0-1,.1-.1.1-.3.1-.4s.1-.3.2-.4c.3-.5.4-1.4.3-1.7-.1-.3-.1-1.1.1-1.6.1-.3.1-.4,0-.6-.1-.1-.2-.2-.2-.3v-.6q-.1-.6-.6-1.1c-.3-.1-.3-.2-.3-.6q-.1-.5-.4-.6c-.5-.2-.9.2-.6.7.1.2,0,.4-.2.5-.2,0-.3.1-.3.1,0,0-.1.2-.2.3-.1.2-.2.3-.2.6,0,.2-.1.4-.2.4-.4.2-.5.5-.5.7s-.2,1.1-.4,1.1c0,0-.1.1-.1.3s.1.4.2.6c.2.2.3.4.4.8q.2.6.3.8c.1.1.1.3.1.5,0,1,.1,2.4.1,2.6.1.2.1.6,0,1v.4c0,.1.1.2,0,.4s0,.3,0,.4c.1.1,0,.2-.1.4s-.2.4-.2.8q0,.7-.3,1c-.1.1-.3.3-.3.4-.1.1-.2.2-.4.3-.1,0-.2,0-.4-.2l-.3-.2-.5.2c-.3.1-.5.2-.5.2,0,0-.2-.1-.3-.2-.2-.1-.3-.3-.4-.3s-.2-.2-.3-.4-.2-.3-.2-.3c0,0-.1-.1-.2-.3-.1-.3-.1-.4,0-.6.1-.2.1-.3,0-.5-.2-.4-.2-.5.1-1,.1-.2.2-.5.2-.5,0,0,0-.2.1-.4s.1-.6.1-.7c0-.4.1-.8.3-1.2.1-.1.1-.3.1-.4s0-.2.1-.4c.2-.3.5-1.1.5-1.3,0-.1.1-.2.1-.3.1-.1.2-.3.2-.4s.1-.4.2-.6c.2-.3.3-.8.2-1.2v-.2c0-.3.1-1,.1-1.2v-.4c-.1-.2,0-.6.2-.6.1,0,.1-.2-.1-.5-.1-.2-.2-.5-.3-.7,0-.5-.3-.7-.8-.5Z"/>

</g>
</svg>
