<?xml version="1.0" encoding="UTF-8"?>
<svg xmlns="http://www.w3.org/2000/svg"
     version="1.1"
     width="44.07407635mm"
     height="40.15154362mm"
     viewBox="0.00000000 0.00000000 124.93444356 113.81545519">

<g transform="scale(4.30598027)">   <defs>
      <style type="text/css"><![CDATA[
      .b {
        stroke: #000;
        stroke-linecap: round;
        stroke-linejoin: round;
        stroke-width: .15px;
      }
    ]]></style>
   </defs>
   <path class="b"
         d="m12.63486,16.59559c-.09818.31232-.0629.72254.0548,1.00467.13445.32228.34475.56023.39205.90956.05876.43396-.20423.54139-.52459.74414-.75689.479-.45891,1.36298-.1192,2.01662.34131.65673.62748,1.54489,1.31036,1.9516.17605.10485.32973.09052.51121.2369.14072.1135.24449.26207.38262.37475.33144.27035.77626.35898,1.18245.47833,1.07058.31458,2.0917.70451,3.08975,1.13056.98306.41964,2.3155.41327,3.34127.10124,1.31534-.40011,2.60489-.76809,3.80709-1.48036.36417-.21576.74873-.26545,1.0772-.52845.24502-.19618.4296-.37884.54949-.67349.0971-.23863.1984-.54557.18037-.80759-.01662-.2415-.13463-.45863-.09398-.72148.0484-.313.23595-.292.3709-.5333.10414-.1862.00937-.4548.00815-.64584-.00223-.34714.07568-.34535.35502-.5134.21795-.13112.45937-.27936.42629-.56394-.02961-.25466-.27728-.37144-.52772-.38284-.20578-.45725-.3999-.71397-.97675-.74799-.57953-.03418-1.33893-.27641-1.77864.09258-.505.42377-.90036.93768-1.54381,1.10026-.78725.1989-1.59202.33818-2.389.50046-.82315.1676-1.67576.43981-2.5041.55071-.33998.04552-.4714-.08964-.75471-.24358-.26578-.14441-.55989-.22885-.84136-.34684-.31704-.13291-1.01528-.37999-1.23022-.6477-.21673-.26993.00752-.58824-.03265-.88079-.03392-.24707-.22893-.45877-.36888-.65057-.38116-.52237-.79427-.95675-1.36033-1.25669-.29003-.15367-.35635-.06264-.5862-.23192-.13353-.09834-.35772-.14649-.51847-.14879-.41484-.00594-.77087.43938-.88839.81319Z"/>
   <path class="b"
         d="m2.65319,24.43762c-.49791-.27448-.82156-.77012-1.24686-1.12899-.20385-.17202-.37425-.25975-.50953-.51767-.15091-.28773-.19525-.61046-.3373-.89393-.25522-.50932-.53595-.74081-.47643-1.34318.02489-.25196-.00794-.47493-.00173-.72673.00743-.30114.17041-.55644.31453-.81384.26193-.46781.58849-.91824.81546-1.412.0982-.21362.27689-.47956.344-.72238.06746-.24406.02456-.46227.14906-.69001.20808-.38063.60405-.6669.94181-.91642.36462-.26937.69574-.62776,1.07335-.86424.66285-.41511,1.51023-.89218,1.97593-1.51256.26798.00328.48072-.20367.72076-.31364.26946-.12345.53708-.17465.78483-.35126.28656-.20428.53699-.44066.82986-.63707.45929-.30803.98069-.48932,1.36472-.86142.63063-.61104,1.66729-.88761,2.22732-1.62144.24628-.32271.49763-.67372.69729-1.01548.21945-.37562.25523-.5656.2114-1.02044-.03533-.36662-.04149-.80898-.27334-1.11845-.29066-.38799-.59496-.28369-1.0113-.24153-.87563.08866-1.8334-.0471-2.66594-.25181-.32569-.08008-.70309-.16755-1.00376-.31448-.34292-.16757-.47084-.39239-.6985-.68365-.19712-.25219-.35772-.52919-.61181-.73622-.18429-.15016-.67116-.26274-.36792-.55626.23474-.22722.73975-.11718,1.0125-.28978.26155-.16552.32745-.5294.41392-.80692.18793-.60312.51013-1.28838,1.2242-1.34927.37218-.03174.64258-.01987.97181-.1718.35504-.16384.69585-.37877,1.0981-.42422.1898-.19223.74242.1754,1.00365.18818.38834.01901.6272.12859.97915.24404.65419.21461,1.43412.08607,2.06154.32062.33791.12632.62091.31444.92655.50177.3409.20895.77347.36312,1.00396.70446.40104.59392.61315,1.37255.70569,2.05551.1267.93508-.03591,1.79972-.25091,2.6973-.09651.40292-.00962.77193.03209,1.19183.03832.38579.07137.83314-.00073,1.2232-.13772.74511-.51593,1.50241-1.00359,2.08869-.57196.68763-1.49271,1.29749-2.27252,1.72167-.49472.2691-1.04617.31231-1.55383.58836-.4298.23371-.73614.54614-1.19345.71523-.34607.12796-.49967.35581-.79755.56293-.37017.2574-.43683.25136-.79905.11775-.2754-.10159-.50178-.14693-.72969.06982-.27022.25698-.22077.41979-.62041.15347-.23595.17085-.44732.58583-.64414.81974-.30774.36574-.6845.71854-1.01101,1.06841-.30305.32474-.79777.26324-1.15093.56383-.2835.2413-.63771.54299-.51851.97066.17729.15016.18981.64764.28914.87132.117.26347.30282.43686.54992.61055.54215.38106,1.10502.2719,1.76415.30588.40286.02077.5032.2784.87981.40075.27902.09065.57629.21888.85972.29012.33105.08321.72192.0111,1.04416-.04004.26557-.04215.81743-.26856,1.07551-.16581.30175.12014.2756.45621.36646.67536.14301.34488.88984.26504.88415.62675-.00319.20229-.20866.43749-.27986.62779-.06278.16779-.16375.33074-.31291.40846-.25871.13479-.23616.01197-.41189.2974-.23002.3736-.43779.59286-.23877.9792.15525.30139.28994.70374.00728,1.02835-.18232.20937-.41501.13406-.66816.17917-.28559.05089-.55542.21846-.84672.27681-.52107.10437-1.08173.05664-1.60755.15369-1.10488.20393-2.38503.16766-3.4876-.06747-.43461-.09269-.75431-.51264-1.04268-.82777-.22463-.24548-.49536-.47473-.7296-.71119-.09367-.09456-.15021-.13719-.22731-.1797Z"/>

</g>
</svg>
