<?xml version="1.0" encoding="UTF-8"?>
<svg xmlns="http://www.w3.org/2000/svg"
     version="1.1"
     width="26.30192646mm"
     height="13.56015522mm"
     viewBox="0.00000000 0.00000000 74.55661719 38.43820392">

<g transform="scale(3.49229315)">   <defs>
      <style type="text/css"><![CDATA[
      .b {
        stroke: #000;
        stroke-linecap: round;
        stroke-linejoin: round;
        stroke-width: .01px;
      }
    ]]></style>
   </defs>
   <path class="b"
         d="M12.92051.19671c-.20703.09766-.5625.30469-.78516.45703-.48828.34375-1.08594.65625-1.75.90625-.27344.10156-.70703.31641-.95313.48438-.5625.37109-.65625.42578-1.35938.75391-.30469.13672-.71484.375-.89844.52734-.18359.14453-.47266.32813-.64063.41016-.16797.07813-.46094.23828-.65234.36719-.19531.11719-.75391.42188-1.24219.67188-.88672.44531-1.72656,1-1.72656,1.13672,0,.03906-.29688.21484-.65625.39844-.35938.17578-.70313.39844-.76172.48047-.16016.23047-.52734.39844-.86328.39844-.39063,0-.60938.34375-.59375.96094,0,.23828,0,.49609-.01563.55859-.05469.37891.01563.55469.30469.72266.27344.16016.42578.17578,1.46484.19141,1.07813.01563,1.19141.03125,1.55859.22266.3125.16016.61719.23438,1.36328.30469.53516.05469,1.0625.16016,1.19922.22266.25391.13672,1.19141.26563,1.80078.25.19922,0,.44531-.00781.55859-.00781s.39844.05469.64063.13672c.23828.07031.67188.125.95703.11719,1.26563-.01563,1.51563-.00781,2.07422.08203.42969.0625.64844.07031.78516.00781.10156-.04688.35938-.08984.56641-.08984s.51953-.03906.69531-.08594.63281-.08203,1.02344-.07422c.38672,0,.83203.00781,1,.00781.16016-.00781.48047-.00781.69922,0,.55859,0,.63672,0,1.35938-.02344.35156-.00781.82422-.00781,1.03906.00781.83203.03516.91797.02734,1.15234-.20703.23828-.24609.56641-1.02344.56641-1.36719,0-.23047.28125-1.19141.39453-1.32813.125-.16797.16016-.56641.0625-.83984-.09766-.26563-.10547-.26563-.49609-.22266-.21484.01563-.47266,0-.56641-.04297-.12891-.0625-.22656-.04688-.38672.05859-.125.08594-.28516.11719-.42969.09375-.12109-.02344-.39453-.00781-.61719.03125-.40625.08203-1.71875.16797-2.51953.17578-.85547.01172-2.82422-.10938-3.18359-.19141-.20703-.03906-.50391-.10938-.67188-.14453-.16016-.03125-.44922-.14844-.64063-.26172-.18359-.11328-.55078-.28906-.80859-.39063-.25391-.10547-.50391-.25-.54297-.32031-.12109-.22656.34375-.73047,1.16016-1.25.21484-.14453.41406-.28906.4375-.32813.06641-.07813.85938-.59766,1.19531-.76563.13281-.07422.25391-.16797.25391-.21094,0-.03906.09766-.10156.22266-.125.21094-.05859.37109-.17969.9375-.71484.21484-.19922.26563-.32031.30469-.69531.03906-.44141.03125-.48047-.23438-.79297-.14844-.17578-.26953-.36719-.26953-.42188,0-.05859-.07422-.17578-.16016-.27344-.20703-.22266-.83203-.21484-1.35156.03125Z"/>

</g>
</svg>
