<?xml version="1.0" encoding="UTF-8"?>
<svg xmlns="http://www.w3.org/2000/svg"
     version="1.1"
     width="27.56126246mm"
     height="37.42904980mm"
     viewBox="0.00000000 0.00000000 78.12643805 106.09811374">

<g transform="scale(3.49704522)">   <defs>
      <style type="text/css"><![CDATA[
      .b {
        stroke: #000;
        stroke-linecap: round;
        stroke-linejoin: round;
        stroke-width: .01px;
      }
    ]]></style>
   </defs>
   <path class="b"
         d="M9.18748.16608c-.27734.11328-.58203.25781-.66406.33594-.17578.16016-.75781.50391-1.23047.72656-.18359.08984-.51953.28906-.74609.44141-.23047.16016-.46094.28906-.52734.28906-.10938,0-1.58203,1.45313-2.15234,2.11719-.17578.21094-.67969.77734-1.10938,1.25781-.44141.48047-.84766.97656-.92188,1.10547-.07031.11719-.22266.40625-.34375.62109-.12109.21875-.3125.46484-.42188.55469-.1875.13672-.21094.19141-.16016.44531.04688.23438.14063.35156.44531.57813.21875.15234.48828.28125.60156.28125s.3125.05469.45703.125c.30078.16016,1.30078.17578,1.58984.02344.32813-.16797.46484-.32813.46484-.55078,0-.12109.09766-.34375.22266-.50391.12109-.16016.32813-.47266.45703-.69531.13672-.23047.375-.57813.54297-.77734s.42578-.54297.57813-.76563c.58984-.90625.71875-1,1.58984-1.21875.54688-.125.83984-.16797.9375-.10938.23828.125.33594.58984.27344,1.30469-.03516.35938-.05859.8125-.05078,1.01563.00781.36719-.29688,1.26172-.51172,1.51172-.12109.14453-.39063.73438-.36719.82422.01563.09375-.23047.53516-.30469.53516-.03906,0-.09375.11328-.12891.23828-.03125.13672-.17578.38672-.32813.57031-.15234.17578-.4375.62891-.63672,1-.20313.36719-.40234.6875-.44141.71094s-.23047.39844-.44141.82422c-.41406.87109-.85547,1.64062-1.11719,1.9375-.25.28516-.75391,1.23047-.75391,1.40625,0,.08594-.14453.43359-.32031.77734-.39844.78125-1.01563,2.26172-1.44141,3.46875-.09375.27344-.22266.54688-.28516.59375-.06641.04688-.11328.14453-.11328.20703,0,.06641-.04688.21875-.11328.32813-.0625.12109-.19141.46484-.28516.77734-.09766.30469-.22656.64063-.28906.73438-.0625.09766-.11328.25-.11328.33594,0,.09766-.125.43359-.27734.76172-.15234.32813-.28125.69531-.28125.80859,0,.11719-.04688.3125-.10547.42188-.0625.12109-.16797.33594-.23828.48047-.12109.23438-.12109.36719-.04688,1.08203.05469.59766.05469.90234-.00781,1.14063-.13672.47266-.05078,1.05859.18359,1.28906.19922.20703.26953.21875.91016.15234.23047-.01563.54297,0,.67969.04688.14453.05078.80859.09766,1.46484.10547,1.00781.00781,1.28125.03906,1.6875.19141.41797.14453.64063.16797,1.44141.16016.89453-.01563,2.55859.06641,2.93359.13672.27344.04688,2.53125-.12109,2.6875-.19922.08203-.05078.36328-.05078.72266,0,.39063.04688.63281.03906.74219-.01563.08984-.05078.64844-.09766,1.25-.11328.60547-.00781,1.23828-.0625,1.41406-.10547.17578-.04688.39453-.08594.48047-.08594.26563,0,1.42578-.26562,1.64063-.36719.12109-.05859.44922-.08984.80078-.08203.32813.00781.66406-.01563.74219-.05469.08203-.03906.40234-.08984.71484-.10547.53516-.03125.94141-.18359.94141-.35156,0-.03906.12109-.11328.27344-.16797.41406-.13672.69531-.87891.48047-1.29688-.20313-.38281-.49609-.48047-1.33594-.41406-1.05078.08594-1.16797.07813-1.65625-.08203-.78516-.25391-4.64062-.32813-5.73047-.10156-.51953.10938-.73438.11719-1.07813.04688-.24219-.03906-.76953-.09766-1.17578-.12109-.41016-.01563-1.05859-.0625-1.44141-.10938-.38281-.04297-.89453-.08203-1.13672-.08203-.52734,0-1.81641-.41406-2.01563-.64844-.19141-.22266-.15234-.42188.46484-2.51953.0625-.23047.17578-.48047.23047-.55859.06641-.08984.12109-.23438.12109-.32031,0-.16797.24219-.73047.57031-1.3125.07813-.15234.14844-.375.14844-.48828,0-.12109.07422-.30469.16016-.41406.08984-.11328.16016-.25.16016-.30469,0-.05859.20313-.51953.44922-1.03125.25-.50781.55078-1.13672.67188-1.40234.99219-2.07813,1.43359-2.9375,1.69531-3.29687.16797-.23047.29688-.44531.28906-.48047-.01563-.03906.03125-.20703.11328-.38281.46094-1.12109.87891-2.29688.92578-2.64063.04297-.22266.10547-.47266.15234-.55859.20703-.38281.33594-.83203.375-1.32813.03516-.28906.12891-.73438.22656-1,.15234-.40625.17578-.64063.17578-1.71094.00781-1.13672-.01563-1.30469-.21484-1.96094-.35547-1.13672-.85938-2.60938-.97656-2.84766-.19141-.35938-.875-.90625-1.37109-1.08984-.72656-.26953-1.25391-.28516-1.87109-.05469Z"/>

</g>
</svg>
