<?xml version="1.0" encoding="UTF-8"?>
<svg xmlns="http://www.w3.org/2000/svg"
     version="1.1"
     width="34.44324107mm"
     height="35.64078188mm"
     viewBox="0.00000000 0.00000000 97.63442147 101.02899868">

<g transform="scale(3.07954025)">   <defs>
      <style type="text/css"><![CDATA[
      .b {
        fill: #000;
        stroke: #000;
        stroke-miterlimit: 10;
        stroke-width: .1px;
      }
    ]]></style>
   </defs>
   <path class="b"
         d="M16.29048.35668c-1.41977-.93446-3.96354.40932-3.94927,2.10781.01068,1.27139,1.19419,2.97757,1.44749,4.32663.77177,4.10993,1.39624,8.43306,1.18862,12.76678-.04679.97641-.24144,1.90326-.61708,2.83426-.41248,1.02234-1.49255,2.11516-1.3328,3.28851,2.89839.59355,5.14614-5.15912,5.48441-7.25331.68999-4.27162.6035-9.30312-.41218-13.51066-.33087-1.37068-.67191-3.85767-1.80919-4.56003Z"/>
   <path class="b"
         d="M11.69443,24.12477c-2.34588.05596-4.34774-1.85642-6.4632-2.59757-1.05481-.36954-2.24365-.79114-3.32471-.22549-1.18645.6208-2.09734,2.12736-1.79964,3.40977.70526,3.03807,5.44986,4.09475,7.96362,4.78085,3.41613.93238,6.82954,2.10876,10.25557,2.96944,1.73438.4357,3.90961.40158,5.63067-.19102,2.28559-.78699,6.24766-2.84355,7.67729-4.82971-2.75101-1.92505-7.0792-.92304-10.22962-1.86797-3.25543-.97641-7.25716-1.73936-9.70998-1.44831Z"/>

</g>
</svg>
