<?xml version="1.0" encoding="UTF-8"?>
<svg xmlns="http://www.w3.org/2000/svg"
     version="1.1"
     width="42.24141622mm"
     height="46.88931365mm"
     viewBox="0.00000000 0.00000000 119.73938963 132.91464333">

<g transform="scale(3.77184801)">   <defs>
      <style type="text/css"><![CDATA[
      .b {
        stroke: #000;
        stroke-linecap: round;
        stroke-linejoin: round;
        stroke-width: .25px;
      }
    ]]></style>
   </defs>
   <path class="b"
         d="M25.98826,6.41c.37783-.95205.61485-2.15186.5902-3.17584-.0395-1.64086-2.14332-3.06112-3.78398-3.10827s-3.31959,1.77802-4.11383,3.21439c-.29018.52479-.49726,1.10987-.49328,1.70953.00726,1.09389.37838,2.62351.8907,3.59004.87856,1.65748.98958,3.68445,1.48656,5.47326,1.74893,6.29495,2.12309,12.29242,1.86464,18.82069,1.30748-.93348,2.68443-1.95499,3.24636-3.46002.40406-1.08222.32957-2.27613.24949-3.42854-.23624-3.39966-.10214-7.08796-.73833-10.4335-.59427-3.12505-.45222-6.04264.80148-9.20173h0Z"/>
   <path class="b"
         d="M9.72622,9.53343c.57735-1.94379,1.46303-4.10709.48923-5.88568-.48715-.88976-1.3642-1.4919-2.24442-1.99609-.45642-.26144-.94763-.51245-1.47361-.50842s-1.08611.34934-1.15326.87103c-.10255.79664.86957,1.74052.25367,2.25609-.33222.2781-.825.0875-1.24499-.01885-.91754-.23235-1.96485-.61193-2.62083.71346.28699.73229,1.19657.95481,1.80924,1.44803.77589.62462,1.04815,1.67112,1.24136,2.64827.70997,3.59076.966,7.26371.89125,10.92322-.0461,2.25671-.21702,4.52047.00735,6.76647.25968,2.59941,1.05413,5.14422,2.31944,7.42968.22125.39963.50785.82928.95598.91779.49156.0971.97575-.28606,1.16741-.74901s.16216-.98359.12949-1.48357c-.11103-1.69899-1.71658-22.1313-.52732-23.33242h.00001Z"/>
   <path class="b"
         d="M1.3662,17.1926c-.38212-.04334-.83525-.06429-1.07785.23411-.17391.21391-.17046.51672-.15847.79214.05808,1.33459.11616,2.66918.17424,4.00377.73712.34759,1.16782-.82441,1.71359-1.42964.61777-.68507,1.94875.24141,2.87042.27996,3.39589.14204,6.41516-.39871,9.73024-1.14871,1.30105-.29435,3.26227-.61536,4.59483-.67571,2.12498-.09624,4.337.32096,6.44539.60291s3.80902-.38579,5.3005-1.90246c.41662-.42365.75915-1.00571.63608-1.58701-.22695-1.07192-1.67136-1.2358-2.76401-1.15426-4.52781.33788-8.0681,1.1542-12.52351,1.94611-4.80466.85399-10.1316.03879-14.94144.03879h-.00001Z"/>

</g>
</svg>
