<?xml version="1.0" encoding="UTF-8"?>
<svg xmlns="http://www.w3.org/2000/svg"
     version="1.1"
     width="21.86065098mm"
     height="41.45843919mm"
     viewBox="0.00000000 0.00000000 61.96713635 117.52000168">

<g transform="scale(5.54215716)">   <defs>
      <style type="text/css"><![CDATA[
      .c {
        stroke: #000;
        stroke-linecap: round;
        stroke-linejoin: round;
        stroke-width: .01px;
      }
    ]]></style>
   </defs>
   <path class="c"
         d="M.07296,4.9586c-.07504.29162-.12083.62336.04395.87538.20815.31835.64719.36615,1.02721.38215.9272.03903,1.85439.07807,2.78159.1171.31612.01331.64315.02933.92599.17114.90109.45179.70399,1.41313.72516,2.21487.03441,1.30318.36377,2.66503.54023,3.95782.36658,2.68558.73316,5.37117,1.09974,8.05674.02108.15445.05379.32813.18435.4133.09856.06429.22619.05848.34253.04088.81202-.12284,1.47849-.6847,2.09787-1.22401.46199-.40226.93992-.8264,1.1688-1.3946.20836-.51728.18573-1.09699.11759-1.65047-.14133-1.14795-.68818-1.89965-.99782-2.94893-.22456-.76094-.30704-1.5291-.53501-2.28472-.24149-.80039-.62161-1.55441-.81144-2.37123-.10268-.44182-.14708-.89477-.19124-1.34621-.05105-.52195-.09371-1.08456.17359-1.53577.20648-.34855.56625-.5731.91489-.77943s.71246-.41953.93699-.75672.26005-.83866-.03395-1.11737c-.33258-.3153-.86736-.19944-1.30749-.07172-1.03.29889-2.07351.55123-3.12627.75601-.43618.08484-.88879.16127-1.32121.05894-.68785-.16279-1.20598-.8587-.66511-1.45813.49779-.5516,1.03448-1.04399,1.47694-1.6475.15696-.21409.31258-.46624.26285-.72699-.03977-.20853-.20564-.37209-.38793-.48088C5.17901.0073,4.75879-.04838,4.38133.05795c-.29856.0841-.56137.26116-.81212.44373C1.99496,1.64785.56941,3.02941.07296,4.9586Z"/>

</g>
</svg>
