<?xml version="1.0" encoding="UTF-8"?>
<svg xmlns="http://www.w3.org/2000/svg"
     version="1.1"
     width="39.81685223mm"
     height="59.44717290mm"
     viewBox="0.00000000 0.00000000 112.86669568 168.51167166">

<g transform="scale(5.54215716)">   <defs>
      <style type="text/css"><![CDATA[
      .c {
        stroke: #000;
        stroke-linecap: round;
        stroke-linejoin: round;
        stroke-width: .01px;
      }
    ]]></style>
   </defs>
   <path class="c"
         d="M19.97048,3.65617c.16531-.19572.22765-.4563.2765-.70779.11147-.57382.17816-1.17493.01735-1.73692s-.59462-1.07834-1.1694-1.18477c-.40109-.07427-.81041.05416-1.18996.20359-.69895.27517-1.38886.64512-1.85028,1.23786-.56522.72608-.71601,1.69591-.68976,2.61568s.20906,1.83011.22795,2.75006c.01256.61174-.06692,1.27122-.47424,1.72781-.3262.36565-.81226.54265-1.2877.66125-2.50273.62432-5.21468.00441-7.67389.78269-1.02895.32564-1.96643.88309-2.89343,1.43576-1.03265.61566-2.14629,1.33087-2.49876,2.48029-.47241,1.54057-.40858,3.0666-.46753,4.66186-.03557.96253-.15536,1.91983-.22387,2.88057-.13034,1.82787-.07444,3.66896.16655,5.48555.1163.87668.22445,1.97893.70832,2.74096.41905.65995,1.3751.90854,2.06254.5363.08775-.04751.17339-.10592.227-.19007.05952-.09343.07323-.208.08328-.31833.08829-.96964.00806-1.94296-.07553-2.90985-.06883-.79625-.17113-1.69575.0664-2.46784.16244-.52802.42352-1.01949.63154-1.53127.50989-1.25447.69062-2.61532.69304-3.96245.00121-.67244-.05695-1.33728-.10927-2.00674-.04377-.56005-.12267-1.2545.05203-1.79466.13988-.4325.30878-.93742.6741-1.22969.44221-.35378.95661-.60856,1.48244-.81242,2.79456-1.08342,5.90087-.79269,8.89691-.70813.77346.02183,1.61573.00671,2.22118-.47512.62326-.496.82069-1.35186.88742-2.14559.13934-1.65742-.11445-3.33861.13571-4.98295.09602-.63118.73462-.61092,1.09336-1.03566,0,0,0,.00002,0,.00002Z"/>

</g>
</svg>
