<?xml version="1.0" encoding="UTF-8"?>
<svg xmlns="http://www.w3.org/2000/svg"
     version="1.1"
     width="49.55726121mm"
     height="16.34057165mm"
     viewBox="0.00000000 0.00000000 140.47728205 46.31973993">

<g transform="scale(5.59901992)">   <defs>
      <style type="text/css"><![CDATA[
      .a {
        stroke: #000;
        stroke-miterlimit: 2.61313;
        stroke-width: 0.28346px;
      }
    ]]></style>
   </defs>
   <path class="a"
         d="M1.00537,5.41895c1.96.46436,4.9126.22363,5.5-.959a52.58355,52.58355,0,0,1,6.00439-2.01807A2.564,2.564,0,0,0,13.7207,1.231c-6.07031.51758-11.35547,2.32568-12.71533,4.188Z"/>
   <path class="a"
         d="M.14795,6.07422C.41748,4.66211,2.249,4.1748,6.15234,4.91406v.70654a4.50569,4.50569,0,0,1,3.53174,0,74.67848,74.67848,0,0,1,8.62793.85791q-.353.50391-.70605,1.00977C11.06641,8.14453,1.55859,8.99414.14795,6.07422Z"/>
   <path class="a"
         d="M16.59717,1.88672c.53418,1.24414,3.54688.67236,4.6416,2.37158q.17725.80713.35254,1.61475a5.5271,5.5271,0,0,0,3.28027-2.72461c.33887-1.07861-.50293-1.56543-1.51367-1.96777C22.38037-.00488,20.23584.12207,18.16064.17139c-1.02832.67334-1.8877,1.3125-1.56348,1.71533Z"/>
   <path class="a"
         d="M9.68408,6.62988c-.58887-.40332.13428-1.312.20166-1.96777A5.47371,5.47371,0,0,1,12.459,3.14844h1.66553A6.94846,6.94846,0,0,1,9.68408,6.62988Z"/>

</g>
</svg>
