<?xml version="1.0" encoding="UTF-8"?>
<svg xmlns="http://www.w3.org/2000/svg"
     version="1.1"
     width="36.67330194mm"
     height="30.49327294mm"
     viewBox="0.00000000 0.00000000 103.95583686 86.43764509">

<g transform="scale(4.30598027)">   <defs>
      <style type="text/css"><![CDATA[
      .b {
        stroke: #000;
        stroke-linecap: round;
        stroke-linejoin: round;
        stroke-width: .15px;
      }
    ]]></style>
   </defs>
   <path class="b"
         d="m22.67924,3.40831c-.83834.36288-1.79634.58104-2.6406.82598-.70369.20416-1.62954.24299-2.2925.56309-.56078.27077-1.01104.84429-1.60542,1.04083-1.34804.44574-3.20436.18948-4.62436.19112-.61269.00071-1.62673.14981-1.50718-.72348.06916-.50521.43531-.66354.8071-.89194,1.01281-.62219,2.31042-1.38908,3.48656-1.70254.80287-.21397,1.68505-.15314,2.48062-.38081.55135-.15778,1.09889-.51163,1.62921-.73766.57265-.24407,1.15374-.5415,1.76213-.74235.48074-.1587.94808-.32892,1.44589-.43222.56295-.11681,2.10105-.73595,2.40159.0446.15166.39389-.11348.78448-.30799,1.08669-.21462.33347-.26756.4842-.33228.88912-.10376.64915-.13314.723-.70277.96956Z"/>
   <path class="b"
         d="m11.38069,5.15624c-.88025-.02319-1.63807.54461-2.19688,1.14836-.42552.45974-.95378.72963-1.39068,1.19168-.90237.9543-1.02218,2.33787-1.16737,3.5913-.04105.35436.04555.66644.10827,1.00077.07234.38563.05094.78428.05136,1.18298.00105.99037-.30405,1.63429-.84844,2.44906-.37421.56006-.8273,1.03996-1.26781,1.54891-.38139.44064-.46914.91359-1.14883.78604-.24091-.04521-.54588-.23774-.78604-.23684-.32858.00124-.27002.21311-.54232.36767-.20079.11397-.53498.16219-.76775.26215-.21674.09308-.43513.16035-.67824.12495-.04332-.23669-.27924-.41802-.45029-.56306-.89766.82039,1.19711,1.66737,1.75229,1.77389.75633.14511,1.6597.32558,2.42009.12692.77805-.20328,1.565-.24455,2.32357-.43286.91457-.22704,1.99399-.54536,2.77385-1.09733.68189-.48262.93557-1.50461,1.37182-2.21001.45045-.72836.96988-1.45689,1.29259-2.2101.3788-.88409.99726-1.81623,1.24588-2.73564.29975-1.1085.41663-2.37064.36534-3.50918-.0169-.37506-.06676-.5157.11942-.84637.14597-.25926.42356-.67348.70794-.77727-.54956-.64993-.98962-1.08071-1.88403-.96924-.59849.07459-1.16057.11383-1.40374.03321Z"/>

</g>
</svg>
