<?xml version="1.0" encoding="UTF-8"?>
<svg xmlns="http://www.w3.org/2000/svg"
     version="1.1"
     width="53.99289748mm"
     height="50.63136470mm"
     viewBox="0.00000000 0.00000000 153.05077078 143.52195526">

<g transform="scale(6.07147487)">   <defs>
      <style type="text/css"><![CDATA[
      .b {
        fill: #000;
        stroke: #000;
        stroke-linecap: round;
        stroke-linejoin: round;
        stroke-width: .1px;
      }
    ]]></style>
   </defs>
   <path class="b"
         d="M20.00812,7.68603c-1.16995,2.09802-2.49197,4.13504-4.04898,5.96304-1.26401,1.48401-2.94501,3.617-4.59399,4.66699-.797.50702-1.98102.98196-1.94299,2.099,2.04102.74701,4.724-1.82004,6.13602-3.05603,1.259,1.31903-.22501,3.64999,2.69998,3.47104,1.617-.09906,2.62201-1.54001,3.823-2.41898.79401-.58206,1.42197-1.21002,2.51001-1.21002-1.06799.77298-1.892,1.66196-2.91904,2.42297-1.17795.87305-2.32895,2.33899-3.646,2.98196-1.41995.69308-3.47195,1.35205-5.02496.74103-.70801-.27896-1.25504-1.37198-1.90903-1.49103-.77701-.142-1.67297.89301-2.43097,1.08609-1.117.28296-2.82001.53696-3.935.54596-.16205-1.31302,3.11197-4.121,4.10599-4.94699,2.69901-2.241,5.17499-5.37201,6.90298-8.43903,1.00699-1.78799,2.444-3.27597,3.57901-4.98398,1.01801-1.53101,1.535-3.32205,3.229-4.28604.70599-.39993,1.85101-.71695,2.61499-.78198-.67203,1.49203-1.51001,3.03604-2.40997,4.41605-.776,1.18896-2.05801,1.99698-2.74005,3.21994h0Z"/>
   <path class="b"
         d="M20.00815,7.686c-1.16998,2.09802-2.492,4.13504-4.04901,5.96301-1.26401,1.48401-2.94498,3.61703-4.59399,4.66702-.79697.50702-1.98099.98196-1.94299,2.099,2.04102.74701,4.724-1.82004,6.13605-3.05603,1.25897,1.31903-.22501,3.64999,2.69995,3.47107,1.617-.09909,2.62201-1.54007,3.823-2.41901.79401-.58206,1.42197-1.21002,2.51004-1.21002-1.06802.77295-1.89203,1.66199-2.91904,2.42294-1.17798.87308-2.32895,2.33902-3.646,2.98199-1.41998.69308-3.47195,1.35205-5.02499.74008-.70801-.27802-1.255-1.37103-1.909-1.49011-.77701-.14197-1.673.89304-2.431,1.08612-1.117.28293-2.82001.53693-3.93497.54599-.16205-1.31305,3.11197-4.12103,4.10599-4.94705,2.69901-2.24097,5.17499-5.37195,6.90298-8.439,1.00699-1.78799,2.444-3.276,3.57898-4.98401,1.01801-1.53098,1.535-3.32202,3.22903-4.28598.70599-.39996,1.85101-.71698,2.61499-.78201-.67203,1.49203-1.51001,3.03604-2.40997,4.41602-.776,1.189-2.05804,1.99701-2.74005,3.21997h0Z"/>
   <path class="b"
         d="M4.97116,10.50406c.03.90897-.608,1.43701-.38101,2.39294,2.056.1001,4.59698-.78595,6.52002.17609-.16901,1.21396-2.51404,1.60999-3.621,1.85199-1.08902.237-2.22.26096-3.31403.53601-.91599.22897-1.87399.63898-2.89398.409-2.28799-.51706-.87601-2.31003.151-3.20206.52499-.45596,3.27798-3.14096,3.80496-1.76096"/>
   <path class="b"
         d="M4.97116,10.50403c.03003.90897-.608,1.43701-.38101,2.39297,2.056.10007,4.59702-.78601,6.52002.17606-.16901,1.21396-2.51401,1.60999-3.62097,1.85199-1.08905.237-2.22003.26096-3.31403.53598-.91602.229-1.87402.63898-2.89401.40903-2.28799-.51706-.87601-2.31003.151-3.20203.52499-.45599,3.27798-3.14099,3.80499-1.76102"/>

</g>
</svg>
