<?xml version="1.0" encoding="UTF-8"?>
<svg xmlns="http://www.w3.org/2000/svg"
     version="1.1"
     width="41.36319407mm"
     height="53.93377162mm"
     viewBox="0.00000000 0.00000000 117.25001879 152.88316819">

<g transform="scale(3.87780914)">   <defs>
      <style type="text/css"><![CDATA[
      .b {
        stroke: #000;
        stroke-miterlimit: 10;
        stroke-width: .15px;
      }
    ]]></style>
   </defs>
   <path class="b"
         d="M15.54516.27995c-.23755.25903-.17603.68555-.12769,1.02148.07812.54175.3418.97632,1.02148,1.72339.44336.4873,1.07422,1.11987,1.91479,1.78711.03784-.15771.12622-.42651.35107-.67017.18335-.19873.5105-.43823.63818-.35107.1311.0896-.10791.41431.06396.73413.13721.25562.37671.20996.44678.41479.11401.33301-.44653.66797-.35107.92554.04834.13037.22827.11108.86182.22339.75195.13306.79541.20728,1.02124.15967.30444-.06421.49438-.26709.86157-.67017.49316-.54126.73975-.81201.79785-1.24487.08154-.60767-.25806-1.09668-.38281-1.27661-.29761-.42871-.65942-.63379-1.21289-.92554-1.13745-.59961-1.7063-.89941-2.26587-1.11694-1.927-.74927-3.17822-1.23584-3.63843-.73413Z"/>
   <path class="b"
         d="M24.60912,4.39713c-.14893-.14453-.33301-.32715-.63843-.47876-.43188-.21436-1.28003-.45239-1.69141-.03198-.35864.36646-.19458,1.03833-.15967,1.18091.13892.56934.9104,1.68408,1.18091,2.58521.35913,1.19604.43652,1.13306.60645,1.81909.27393,1.1062.05786,1.21118.35107,1.85107.1438.31396.52075,1.13623,1.27661,1.27661.54272.10083,1.0022-.20166,1.18091-.31934.66431-.43726.87939-1.1355,1.02124-1.5957.07764-.25244.33081-1.15942.06372-2.29785-.26685-1.13745-.90259-1.86523-1.30859-2.32983-.58716-.67212-.65576-.46851-1.88281-1.65942Z"/>
   <path class="b"
         d="M24.22606,14.25871c.27271-.50024.19458-.97607.15967-1.46802-.03516-.49438-.14258-2.00537.41479-3.22339.18408-.4021.59961-1.3103,1.53198-1.56372.59863-.16284,1.34888-.03882,1.81909.41479.38184.36841.23901.62622.60645,2.0105.37476,1.41187.6731,1.70825.5105,2.3938-.03174.13379-.02686.0542-.47852,1.05322-.39307.86987-.59082,1.30908-.63843,1.53174-.16846.78589.07568.9895-.19141,1.56396-.14551.31274-.33057.49487-.63843.79785-.53271.52393-.97241.95654-1.46802.92554-.40234-.02515-.69922-.42139-1.27661-1.21289-.77148-1.05737-1.30469-1.78833-1.06299-2.40112.14941-.37891.44604-.33423.71191-.82227Z"/>
   <path class="b"
         d="M11.56322,5.55363c.56689.12817,1.10059-.11255,2.5459-.93311,1.66943-.94775,2.78662-1.35376,3.06372-1.78735.23486-.36743.09106-.56543.35107-.86157.39307-.44775.93848-.24243,1.11694-.60645.14111-.28784-.05957-.70288-.28711-.92554-.28906-.28296-.67993-.31201-.89355-.31909-1.81323-.06079-3.70215.73389-3.70215.73389-.92041.38721-2.11108.94971-3.44678,1.75537-.12964.19263-.12549.29395-.0957.35107.07764.14844.35278.04297.63818.22339.03394.02148.31006.20093.31909.44678.01294.35962-.55371.6438-.67017.70215-.40527.20312-.59888.11523-.73413.31934-.08398.12671-.07715.30786-.06372.67017.01099.29419.01636.44141.07446.48608.21143.16309.63989-.37891,1.35913-.34326.19214.00952.27271.05371.4248.08813Z"/>
   <path class="b"
         d="M9.32177,2.96085c-.24585-.24683-.89429.04395-1.97876.54272-1.25366.57642-1.95898.90088-2.71265,1.65942-.26196.26367-.99854,1.05176-1.37231,2.26587-.14673.47681-.30298,1.00928-.03198,1.34058.2395.29248.68994.27808,1.4043.25537.57935-.01855,1.07593-.03442,1.5957-.31934.54395-.2981.57764-.59741,1.14893-1.11694.31494-.28638.81934-.66357,1.5957-.95752-.02588-.24707-.0481-.58667-.03174-.98926.06616-1.61719.68066-2.38184.38281-2.68091Z"/>
   <path class="b"
         d="M2.42821,7.71622c-.33179.20068-.46045.33862-.54248.44678-.28979.38232-.32007.82397-.31934,1.18091.00269,1.25024.3894,2.354.41504,2.42554.3606,1.00537,1.052,2.62915,2.42554,4.18091.43091.48682.82837.85303,1.30859.82959.1875-.00903.29932-.07324,1.18066-.7019.92725-.66138,1.06128-.77417,1.11719-.9895.08813-.34009-.104-.60742-.41504-1.14893-.85083-1.4812-1.31372-2.28687-1.18091-3.0957.09937-.6062.44067-.64868.44702-1.27661.00781-.77881-.51099-1.35498-.67041-1.53198-.08228-.09131-.90527-.97607-2.13818-.92554-.67114.02759-1.15356.31958-1.62769.60645Z"/>
   <path class="b"
         d="M10.85375,15.95036c-.49756-.31201-.91455-.45386-1.37231-.60645-1.32617-.44189-2.60522-.86816-3.31909-.22339-.58862.53174-.59277,1.61084-.28735,2.32983.19019.44775.48853.69214,1.08521,1.18066.521.42651,1.48682,1.10693,2.87231,1.46826.51587.13452.77393.2019,1.11694.15942.81982-.10132,1.75073-.72559,1.91504-1.56372.25903-1.32153-1.53174-2.44434-2.01074-2.74463Z"/>
   <path class="b"
         d="M13.47069,21.02482c-1.18384-.24634-2.58032-.53687-2.9043-1.46826-.16553-.47583-.01782-1.02368.12769-1.56372.14453-.53638.2168-.80469.41504-.95752.55469-.42798,1.39038.28931,3,.54272.26855.04224.25513.02393,2.29785,0,2.39136-.02783,3.48779-.01514,3.53076.22681.03955.22192-.85864.34644-.97754.92212-.12964.62744.78809,1.20361.63818,1.43604-.17334.26904-1.36255-.56421-2.07446-.0957-.43555.28662-.26636.78003-.76587,1.08521-.29541.18042-.58057.14624-1.37231.06372-1.93237-.20142-1.73706-.1543-1.91504-.19141Z"/>
   <path class="b"
         d="M21.25805,17.92887c-.08813.09521-.21777.22998-.38306.38306-.68701.63599-1.09766.76099-1.08496,1.02124.00708.14502.19629.26685.57446.51074.29541.19043.62305.40161,1.08496.5105.47241.11133.85059.06055,1.08521.03198,2.26758-.27588,3.22217.05127,3.57666-.56079.14404-.24878.17456-.62769.18921-.81152.02783-.34692.05054-.63135-.06372-.82983-.26758-.46436-1.19995-.3103-2.80859-.25537-.83813.02856-1.57153.02051-2.17017,0Z"/>
   <path class="b"
         d="M3.91308,20.45719c-.30005.78174-.44995,1.17261-.59131,1.62085-.29224.92676-.48071,1.52417-.54248,2.32959-.07031.91553-.12964,1.68848.38306,2.26611.30273.34106.83374.64648,1.37231.57446.20288-.0271.3623-.10205.76587-.38306.98511-.68604,1.47778-1.02905,1.69141-1.5.26123-.57593-.03687-.66626.25537-1.5957.22266-.70776.40771-.69409.51074-1.27661.11084-.62671-.07324-.8125.0957-1.4043.09961-.34912.17944-.33911.44678-.89355.28149-.5835.5354-1.10986.54248-1.75537.0022-.19702-.0105-1.14624-.47852-1.34033-.28516-.11841-.53613.12769-1.11719.41479-1.31714.65063-1.69336.20947-2.32983.73413-.22461.1853-.48755.8623-1.00439,2.20898Z"/>
   <path class="b"
         d="M.09838,35.70548c-.01733.1333-.06592.49731.06396.92554.06763.2229.17456.57495.5105.79785.42847.28442.92334.15527,1.02124.12769.07275.13477.17773.35303.25537.63843.08423.30933.06958.45239.16528.49854.14917.07202.34497-.19995.79224-.53052.34058-.25171.77979-.57642,1.34033-.63818.38135-.04199.4126.08154.76611,0,.50122-.11572.78418-.44897.86157-.54272.12817-.15552.31958-.3877.25537-.6062-.03809-.12939-.13281-.14233-.41479-.35107-.45557-.3374-.50684-.52539-.70215-.51074-.18896.01416-.3252.19751-.41504.31909-.22485.3042-.1355.50806-.31909.63843-.16382.11646-.44116.09985-.61597-.02197-.24634-.17188-.104-.42383-.37329-.90356-.18018-.32104-.34497-.38818-.31934-.57446.02368-.17358.18579-.25391.38306-.41504.34668-.2832.43213-.51343.67017-.82959.23828-.31641.66064-.76025,1.46802-1.30859-.02905-.15552-.08838-.38794-.22339-.63843-.23755-.44092-.52588-.59717-.73389-.82959-.44409-.49609-.40942-1.21265-.38306-1.75537.07007-1.44434.94458-2.12671.61206-2.56201-.1355-.17749-.27075-.05103-1.05884-.27856-.80664-.23291-1.03027-.4624-1.34033-.35083-.3396.12207-2.15942,8.88599-2.26611,9.7019Z"/>
   <path class="b"
         d="M13.11962,21.98209c.04712.49243-.00122.40161-.03174,2.45752-.02026,1.36182-.00269,1.65039.22876,1.94214.35889.45215.9397.5437,1.36694.61108.73193.11548,1.2771-.07861,2.04248-.35107.43506-.15479.56006-.2522.63843-.38306.21436-.35767-.01465-.80469-.15967-1.27661-.21509-.70068-.0957-.97119-.12769-2.13818-.07324-2.68433-.11084-4.06152-.95752-4.62769-.92798-.62061-2.66626-.15845-3.0957.70215-.11133.2229-.10596.53149-.0957,1.14893.01465.87744.12549,1.22705.19141,1.91479Z"/>
   <path class="b"
         d="M12.89623,7.84391c-.43726,1.90552-.87598,7.37988-.44678,8.26587.17358.35815.61743,1.27441,1.44434,1.43066.50977.09644.96118-.13477,1.74707-.53687.79004-.4043.94507-.70264.9895-.7981.12012-.2583.07373-.41748.03198-1.05298-.0813-1.23584-.11548-1.8645.19141-2.3938.19922-.34351.31885-.28345.47876-.63818.1626-.36084.09277-.54248.0957-1.46802.00293-.93066.07544-1.25317-.15967-1.43628-.15723-.12231-.36694-.11646-.5105-.0957-.07935-.56299-.07959-1.02075-.06396-1.34058.02441-.50024.09058-.72119-.03174-1.02124-.18481-.45312-.63086-.66553-.76611-.73389-.76807-.38745-1.77979-.1709-2.36157.38281-.33936.323-.46973.70093-.63843,1.43628Z"/>
   <path class="b"
         d="M13.42968,27.10954c-.17627.27393-.14771.53418.00928,1.54297.28931,1.85962.32812,1.85132.41479,2.55298.11279.91431.07349,1.14722.25537,1.75537.09839.32861.23291.76758.54248,1.24463.21021.32397.76172,1.14771,1.85107,1.53198,1.06055.37402,1.98853.10498,2.29785,0-.2019-.08911-.60156-.30566-.76587-.73389-.22705-.59204.14819-1.18994.38281-1.56396.28589-.45557.63599-.73828.86182-.89355-.09741-.20142-.23145-.48584-.38306-.82983-.2478-.56226-.5896-1.3374-.88184-2.27197-.3999-1.27881-.28638-1.51123-.6936-2.12964-.20972-.3186-.48901-.73047-1.00952-.92822-.50317-.19116-.95801-.07837-1.53198.06396-.63843.1582-1.10132.27319-1.34961.65918Z"/>
   <path class="b"
         d="M29.17284,19.46085c-.229-.20654-.49414-.42334-.79785-.63818-.41992-.29712-.82251-.52588-1.18091-.70215-.03516.1355-.08521.34595-.12769.60645-.12402.76074-.04492,1.09888-.15942,1.14893-.11768.05151-.42969-.2063-1.30859-1.65967-.03955.13306-.09692.33203-.15942.57446-.75122,2.90991-.33618,4.60474-.28735,7.4043.04712,2.70752-.26758,5.33862,0,7.65942.16772,1.45483.47729,2.03247.92017,2.36792.33716.25537.77026.38403.83521.75977.07324.42358-.41553.68262-.28735,1.08521.05103.16016.14087.18164.60645.54248.73682.57104.85156.78052,1.08521.73413.27905-.05542.44531-.40332.5105-.54248.10303-.22021.11938-.41553.12769-.67041.03418-1.04419-.12012-1.4917.0957-1.62744.13647-.08569.25488.05713.51074-.03198,0,0,.25366-.08813.44678-.41504.41211-.69702-.10742-3.15918-.12769-3.25513-.12598-.59814-.20947-1.91895-.31909-4.56396-.00171-.04126-.0332-.97485-.0957-2.84033-.06812-2.03125-.09546-2.84839-.15967-3.9895-.04712-.83667-.09546-1.5166-.12769-1.94678Z"/>

</g>
</svg>
