<?xml version="1.0" encoding="UTF-8"?>
<svg xmlns="http://www.w3.org/2000/svg"
     version="1.1"
     width="43.75235169mm"
     height="17.55087743mm"
     viewBox="0.00000000 0.00000000 124.02236588 49.75056529">

<g transform="scale(5.63365949)">   <defs>
      <style type="text/css"><![CDATA[
      .b {
        stroke: #000;
        stroke-linecap: round;
        stroke-linejoin: round;
        stroke-width: .25px;
      }
    ]]></style>
   </defs>
   <path class="b"
         d="M14.33061.34663c-.01638-.10343-3.29776-.11519-3.28138-.01175-.38819-.2464-.83242-.24224-1.28433-.15754C6.54554.7807,3.33204,1.41531.125,2.08106c.1151.73697,1.09216.89924,1.83785.88147,3.42906-.0817,6.85811-.1634,10.28717-.2451,1.40363-.03344,2.99452.00871,3.9398,1.04686,1.24115,1.36309.8708,3.953,2.52502,4.76663,1.29501.63696,2.92524-.5646,3.14004-1.9917s-.59853-2.82519-1.62582-3.83882c-.84954-.83824-1.86473-1.50794-2.96968-1.959-1.81937-.74271-.96369-.38127-2.92877-.39477Z"/>
   <path class="b"
         d="M11.10501,7.47539c2.36017.00682,4.65342-.70502,6.9535-1.23423.82158-.18903,1.73976-.4173,2.17945-1.13661.55683-.91094.05068-2.07667-.45593-3.01647-2.34296,1.27316-4.8607,2.22417-7.46029,2.81791-1.19975.27402-2.55579.44563-3.5778-.23992-.5048-.33861-.86486-.85002-1.31567-1.25775-1.3342-1.20668-3.5703-1.52126-5.26687-1.11714.57927,3.47902,5.96734,5.17561,8.94361,5.18421Z"/>

</g>
</svg>
