<?xml version="1.0" encoding="UTF-8"?>
<svg xmlns="http://www.w3.org/2000/svg"
     version="1.1"
     width="25.34501153mm"
     height="24.86144873mm"
     viewBox="0.00000000 0.00000000 71.84409236 70.47336438">

<g transform="scale(3.87780914)">   <defs>
      <style type="text/css"><![CDATA[
      .b {
        stroke: #000;
        stroke-miterlimit: 10;
        stroke-width: .15px;
      }
    ]]></style>
   </defs>
   <path class="b"
         d="M7.55674,2.5907c-.52368.43506-.43604.37744-1.23535,1.04761-.83472.69971-1.52759,1.26318-1.9939,1.63892.93555-.5083,1.24634-.52197,1.34033-.41479.06787.07739.00244.19507,0,.57446-.00146.23975.02246.50708.06396.67017.03809.14966.17529.54272.79785.89355-.14697.44312-.42603.72241-.67041.70215-.27515-.02271-.44458-.41992-.5105-.57446-.27856-.65283-.00928-1.1604-.25537-1.30859-.15234-.0918-.30518.07275-.70215.12769-.39722.05518-.73755-.04126-.95752-.12769-.25244.26367-.53589.65576-.67017,1.18091-.17236.67529-.0083,1.21948.19165,1.88306.17773.58984.26685.88477.5105.98926.4292.18384,1.0271-.31689,1.56396-.79785,1.34473-1.20459,2.12866-2.12549,2.68066-2.71265.77979-.82935,1.8894-1.97998,3.57446-2.9043,1.24805-.68457,2.20679-.9082,2.26611-1.56396.04907-.54126-.53955-1.09668-.79785-1.34033-.20264-.19116-.48999-.45508-.8938-.47876-.26733-.01562-4.30249,2.51562-4.30249,2.51562Z"/>
   <path class="b"
         d="M.36997,10.03259c-.24365.77881-.28027,1.4021-.28711,1.53198-.05298,1.02002.17261,1.83838.35083,2.32959.01807-.06958.09546-.33545.35107-.47852.03931-.02197.27246-.15234.38306-.06396.12769.10205-.07422.36255.03198.70215.08667.27686.34644.50537.47998.46045.15747-.05298.07568-.46436.19019-.49243.13965-.03418.55566.50659.44678.9895-.09302.4126-.52124.57104-.44678.76587.04639.12158.26367.19312.38306.12769.1665-.09131.03491-.39111.22339-.57446.15479-.15063.46851-.16675.60645-.03198.19434.1897.05176.68994-.22363.86182-.21118.13159-.43945.03223-.47852.12769-.05273.12915.32886.39624.44678.47876.26074.18262.55762.39038.95728.41479.26587.01611.34521-.06299.73413-.15967.90869-.22559,1.2478.01538,1.5-.22339.06567-.06226.271-.29492,0-1.37231-.39722-1.57861-1.02954-1.84033-1.24463-3.12769-.10815-.64771-.05811-1.24048-.03198-1.53174.10986-1.21899.479-1.65601.19141-2.13843-.10376-.17383-.14868-.11206-1.24463-.70215-.81616-.43945-1.03394-.60425-1.37231-.54248-.08423.01538-1.5625,1.42065-1.94678,2.64893Z"/>
   <path class="b"
         d="M11.89121,11.78796c-.72021-.48804-1.08008-.73218-1.4043-1.18091-.28442-.3938-.37744-.69678-.67017-.76587-.35767-.08447-.66504.26294-1.11694.63818,0,0-1.16187.96436-2.64893,1.46802-1.12207.37988-1.66919.19189-1.91504.63843-.20337.36938.04956.71826.28735,1.5.61963,2.03687-.08203,3.00537.60645,3.54248.32544.25391.4519.01392,1.97852.12769.86646.06445,1.01099.15576,2.42554.28711.9209.08545,1.35107.09253,1.81934-.12744.42993-.2019.68481-.49805.82983-.67041,1.91406-2.27515,2.87134-3.4126,2.48926-4.18066-.31128-.62573-1.10278-.20679-2.68091-1.27661Z"/>
   <path class="b"
         d="M13.32749,10.44739c.14282.96777.11133,1.22803.06372,1.43628-.13867.6062-.37427.59619-.63818,1.24463-.47876,1.17554-.02954,2.0061-.60645,2.42554-.22705.16504-.39795.11011-.60645.35107-.23682.27368-.37109.75439-.19141.98926.19165.25024.6499.10376,1.91479-.12744,1.84717-.33765,1.87012-.20776,2.36182-.44702.91992-.44751,1.41162-1.1792,1.69141-1.5957.65332-.97217.81006-1.8877.9895-2.93604.177-1.03442.1543-1.78687.12744-2.68091-.05151-1.70874-.3186-2.2688-.5105-2.58521-.14502-.23926-.36646-.59521-.79785-.86157-.62891-.38818-1.27783-.32275-1.94678-.25537-.5415.05444-1.33374.14453-1.94678.70215-.15234.13843-.46777.43335-.51074.86157-.02197.21875.0354.3894.05884.46094.18652.5708.30688,1.38647.54761,3.01782Z"/>

</g>
</svg>
