<?xml version="1.0" encoding="UTF-8"?>
<svg xmlns="http://www.w3.org/2000/svg"
     version="1.1"
     width="34.32799751mm"
     height="53.44494687mm"
     viewBox="0.00000000 0.00000000 97.30764924 151.49738394">

<g transform="scale(6.07147487)">   <defs>
      <style type="text/css"><![CDATA[
      .b {
        fill: #000;
        stroke: #000;
        stroke-linecap: round;
        stroke-linejoin: round;
        stroke-width: .25px;
      }
    ]]></style>
   </defs>
   <path class="b"
         d="M7.615.72335c2.81802.01703-.14398,3.18298-.271,3.96399,1.75699.28601,3.69498-.14398,5.45401.19202.99701.19104,1.22198.216,1.784,1.16803.44702.75702.38901,1.85797.67102,2.68695-.80701.026-1.66101-.54401-2.51001-.71497-1.702-.34503-3.60303-.276-5.33701-.43604-1.72299-.15796-3.97299-.81598-5.61499.00806,1.61301-.80902,5.78799-3.65405,1.96198-4.76801-.25497-1.27502,3.83102-4.185,4.18698-1.76801"/>
   <path class="b"
         d="M7.61503.72329c2.81802.01703-.14398,3.18298-.271,3.96399,1.75696.28607,3.69498-.14398,5.453.19202.99799.19098,1.22299.21606,1.78497,1.16803.44702.75702.38901,1.85797.67102,2.68695-.80801.02606-1.66101-.54401-2.50998-.71497-1.70203-.34497-3.60306-.276-5.33704-.43604-1.72296-.15796-3.97296-.81598-5.61499.00806,1.61301-.80902,5.78799-3.65399,1.96201-4.76801-.25601-1.27502,3.83102-4.18506,4.18698-1.76801"/>
   <path class="b"
         d="M3.56803,10.19936c.05798-1.01398,1.02496-.97302,1.48495-1.63403,1.60104.05505,1.42902,3.78705,1.42902,5.12506,0,2.41199-1.13901,4.86401-.78497,7.12396.62296.02802,1.26999.02502,1.89398,0,.16-2.12799,1.04602-4.08099.99597-6.29797-.01999-.87201-.33499-2.16101-.008-2.862.09201-.19501,1.69803-1.91699,1.78604-1.95801,2.98996-1.38702.44299,9.40399.51401,10.78497,3.952,1.20599,1.65695-8.42896,5.02298-6.63599-.164,2.85797-.91501,5.46503-1.01202,8.29901-2.616-.19202-5.48096,1.17499-7.92899,1.98401-2.07397.685-4.70801.93396-6.836.44.14899-1.237,2.24197-1.60101,2.74701-2.91205.44101-1.14294-.008-2.77795.048-3.98096.06201-1.34302.18396-2.78302.319-4.15503.12198-1.23596.439-2.94397.32901-4.15198"/>
   <path class="b"
         d="M3.56803,10.1993c.05798-1.01398,1.02499-.97302,1.48499-1.63403,1.60098.05505,1.42902,3.78705,1.42902,5.125,0,2.41199-1.13901,4.86407-.78497,7.12402.62296.02899,1.26999.026,1.89395,0,.16-2.12799,1.04602-4.08093.996-6.29797-.01999-.87103-.33499-2.16101-.008-2.862.09201-.19501,1.69699-1.91699,1.78601-1.95801,2.98996-1.38702.44299,9.40399.51401,10.78497,3.95203,1.20599,1.65698-8.42896,5.02298-6.63599-.164,2.85797-.91501,5.46503-1.013,8.29907-2.61499-.19208-5.47998,1.17493-7.92899,1.98395-2.073.685-4.70703.93396-6.83502.44.14899-1.23706,2.242-1.60107,2.74701-2.91199.44101-1.14307-.008-2.77808.048-3.98004.06201-1.34393.18399-2.784.319-4.15594.12201-1.23608.439-2.94403.32901-4.15204"/>

</g>
</svg>
