<?xml version="1.0" encoding="UTF-8"?>
<svg xmlns="http://www.w3.org/2000/svg"
     version="1.1"
     width="21.22860140mm"
     height="20.39253256mm"
     viewBox="0.00000000 0.00000000 60.17556466 57.80555817">

<g transform="scale(4.13772564)">   <defs>
      <style type="text/css"><![CDATA[
      .b {
        stroke: #000;
        stroke-linecap: round;
        stroke-linejoin: round;
        stroke-width: .25px;
      }
    ]]></style>
   </defs>
   <path class="b"
         d="M13.26498,3.70794c.44651-.34933.91045-.73581,1.08532-1.27509.26642-.82162-.28487-1.75595-1.07424-2.10657s-1.72642-.20949-2.50506.16438-1.4332.95755-2.08676,1.52227c-1.67905,1.4508-3.42414,2.82516-5.22803,4.11744-.89113.63838-1.81864,1.27886-2.42579,2.19157-.67471,1.0143-.88592,2.27082-.90487,3.48888-.00296.19052.00217.39405.10973.55132.11654.17041.32711.24766.52814.29461.73024.17055,1.49192.07357,2.24138.04803,1.66872-.05688,3.34893.25119,4.88892.89637.30758.12886.62811.27414.95973.23886.23401-.0249.44839-.13812.65294-.25447.70915-.4034,1.38179-.87096,2.00699-1.39513.59649-.5001,1.20037-1.24957.9246-1.97747-.18122-.47833-.6809-.74443-1.1432-.96337-1.18894-.56306-2.44184-1.02125-3.61331-1.60638.62661-.6717,1.58991-1.06074,2.35557-1.57172,1.10809-.7395,2.17902-1.5429,3.22792-2.36352Z"/>

</g>
</svg>
