<?xml version="1.0" encoding="UTF-8"?>
<svg xmlns="http://www.w3.org/2000/svg"
     version="1.1"
     width="61.36930799mm"
     height="11.35806575mm"
     viewBox="0.00000000 0.00000000 173.96020233 32.19612295">

<g transform="scale(4.75185159)">   <defs>
      <style type="text/css"><![CDATA[
      .b {
        stroke: #000;
        stroke-linecap: round;
        stroke-linejoin: round;
        stroke-width: .25px;
      }
    ]]></style>
   </defs>
   <path class="b"
         d="M19.13596,2.06488c-4.68738-.00398-7.85467-1.01886-12.53934-1.17855-1.22368-.04171-3.08167.48085-4.14033,1.09597S-.13173,2.52306.16173,3.71176c.46776,1.89473,1.8068,1.21495,3.75585,1.3149,9.4984.4871,16.56132-.24355,25.07063.32959,1.24224.08367,2.30785.97962,3.53704,1.17781s3.474.28669,3.45029-.9595c-.03129-1.64387,1.10413-3.90333.07828-5.01504-1.1262-1.22046-5.04464.49725-6.68538.69213-4.19357.49811-5.97036.81684-10.23248.81323Z"/>

</g>
</svg>
