<?xml version="1.0" encoding="UTF-8"?>
<svg xmlns="http://www.w3.org/2000/svg"
     version="1.1"
     width="19.51655415mm"
     height="44.93888943mm"
     viewBox="0.00000000 0.00000000 55.32245943 127.38583813">

<g transform="scale(4.30598027)">   <defs>
      <style type="text/css"><![CDATA[
      .b {
        stroke: #000;
        stroke-linecap: round;
        stroke-linejoin: round;
        stroke-width: .15px;
      }
    ]]></style>
   </defs>
   <path class="b"
         d="m3.61425.07519c-.38738-.00772-.67906.2184-.82374.53189-.22052.47784-.02197.61505-.48455.90832-.73049.46312-1.16017.89595-1.66076,1.6017-.45838.64624-.92204,1.27026-.18054,1.94882.57326.5246.75142,1.19432.82624,1.98433.04433.46809-.09702.78147.09441,1.21656.15201.3455.35789.66464.51128,1.01506-.29436,1.58771.36503,3.25962.36092,4.84536-.00216.8315.1727,1.74588.30168,2.5728.16828,1.07882.17723,2.1423.13442,3.27718-.04536,1.20217.14383,2.3597.14537,3.53693.00083.63618.02533,1.27815,0,1.91366-.02518.63193-.25359.42876-.53301.86172-.41513.64323.40993,2.00765.76451,2.51968.34627.50003,1.2598.77527,1.90304.68088.4407-.06467.86385-.36315,1.30803-.48706.41046-.1145.91034-.18636,1.30855-.38764.84365-.42642,1.66147-1.1176,2.2975-1.84018.39956-.45393.7604-.86052,1.04091-1.38226.14764-.27461.68869-.8157.68252-1.11241-.00396-.19058-.37205-.58328-.53603-.66544-.42575-.21333-.59177.17947-.96522.39816-.51831.30352-1.8621.78341-2.46278.58017-.79789-.26997-.44705-2.84889-.44705-3.55562,0-.70373-.05153-1.40041-.20711-2.06727-.15538-.66602-.10334-1.3048-.13225-2.00865-.04688-1.14135.06933-2.26774.00017-3.41844-.02386-.39691-.17495-.66701-.27995-1.01523-.11809-.3916-.11016-.81953-.20477-1.21121-.19818-.82049.09379-1.22438.32959-1.94882.16243-.49904-.38505-1.31138-.39761-1.88107-.00402-.1825-.00669-.37207.06862-.53934.27283-.60102,1.76077-1.39067,2.272-1.84515.42103-.37423.79806-.13041,1.20286-.36392.15028-.08669.30022-.17076.45292-.25282.12452-.06692.2309-.15212.35032-.22579.08595-.05302.19921-.10232.27484-.16989.10973-.09803.2045-.32785.26104-.46627.07976-.19526.12179-.34132.12179-.54893,0-.17688.03245-.34596.03248-.52106.00003-.15692-.01469-.31618.00812-.44678.03151-.18036-.03673-.23374-.15019-.37354-.08375-.10319-.14539-.21769-.23347-.31822-.22145-.25276-.53535-.35554-.76938-.58324-.16025-.15591-.30809-.28686-.50973-.38801-.1662-.08337-.34377-.13609-.52574-.17187-.09106-.0179-.15583-.00567-.25059-.00778-.13876-.00308-.25374-.07426-.38913-.09839-.23418-.04174-.49451-.04565-.7326-.04405-.1459.00098-.29759.03428-.44765.03648-.17718.0026-.3546.00006-.53181.00006-.19663,0-.40469-.01983-.59903-.00812-.15564,0-.31631.0015-.46912,0-.24346-.00238-.49636-.10061-.73411-.02235-.13408.04414-.2525.01425-.39055.01423-.19784-.00004-.38301-.04058-.58034-.0406-.1308,0-.30041-.02411-.42529-.0266Z"/>
   <path class="b"
         d="m4.67197,19.85994c.37771-.33686.74387-.71898,1.18082-.96816.65206-.37185,1.15413-.98366,1.84643-1.32369.2526-.12407.47771-.26126.70741-.42379.11-.07783.43706-.28332.51368-.22278.24492-.25962.57056-.43144.82352-.68465.29792-.29822.60265-.58637.94165-.8406.51959-.38967.99678-.80991,1.49629-1.21877.1656-.13555.33623-.2316.47352-.39204.13824-.16155.15708-.1831.04306-.36864-.17294-.28142-.2947-.60534-.44916-.89489-.0837-.15691-.13782-.32947-.15472-.50622-.01468-.15351.00935-.27959-.07257-.39829-.05563-.08061-.18307-.2928-.26934-.35573-.16297-.11889-.37399.00778-.54003.06069-.1994.06353-.41197.09688-.59758.1918-.21585.11039-.28037.23544-.39603.43336-.17022.2913-.47996.61523-.75344.80815-.35806.25259-.78921.43659-1.16145.67847-.31687.20591-.64711.39838-.92454.65767-.44301.41404-.84231,1.01772-1.42684,1.23535-.39901.08078-.7663.30422-1.13731.45556-.3531.14404-.71068.31102-1.03726.50887-.15553.09423-.30582.18833-.47861.23577-.09079.02492-.13678.01791-.22284.01714-.22261-.00201-.27267.18405-.40716.311-.00899.18647.18322.37203.25932.54282.06455.14487.10877.30391.17172.45125.199.4658.43787.88205.68875,1.32518.11222.0197.37785.32038.53011.41459.12189.07543.30863.13367.35263.27059Z"/>

</g>
</svg>
