<?xml version="1.0" encoding="UTF-8"?>
<svg xmlns="http://www.w3.org/2000/svg"
     version="1.1"
     width="91.64268757mm"
     height="47.02227526mm"
     viewBox="0.00000000 0.00000000 259.77457140 133.29150599">

<g transform="scale(1.23123841)">   <defs>
      <style type="text/css"><![CDATA[
      .b {
        stroke: #000;
        stroke-linecap: round;
        stroke-linejoin: round;
        stroke-width: .25px;
      }
    ]]></style>
   </defs>
   <path class="b"
         d="M196.19322,1.9955s2.77937,19.00879-22.72034,22.25211c0,0-82.06749,14.37365-107.10432,29.21124,0,0-63.05762,37.55791-64.44838,48.68398,0,0-3.7094,7.88274-.46394,5.56303,0,0,54.247-49.14385,82.9943-56.09871,0,0,46.82928-8.34647,68.62172-14.83738,0,0,12.05394-4.17548,23.64607-5.56731,0,0,32.4567-5.0991,33.84637-21.32444,0,0,1.39183-7.4188-1.85362-4.17527,0,0-5.10123,11.59-6.49091,4.63514,0,0,0-10.66211-4.17334-10.19817l-1.85362,1.85577v.00002Z"/>

</g>
</svg>
