<?xml version="1.0" encoding="UTF-8"?>
<svg xmlns="http://www.w3.org/2000/svg"
     version="1.1"
     width="59.83329931mm"
     height="27.01022022mm"
     viewBox="0.00000000 0.00000000 169.60623038 76.56443265">

<g transform="scale(2.33672436)">   <defs>
      <style type="text/css"><![CDATA[
      .b {
        stroke: #000;
        stroke-linecap: round;
        stroke-linejoin: round;
        stroke-width: .01px;
      }
    ]]></style>
   </defs>
   <path class="b"
         d="M70.60773.07183c-.21484.03125-1.07813.08203-1.91797.09766-3.71875.10156-5.13672.14453-6.55859.20703-.83203.03906-1.60938.0625-1.72266.0625-.10938,0-.70313.03516-1.32031.06641-.61328.03125-1.62109.05469-2.23828.04688-.64844-.01563-1.44141.03125-1.87891.09766-.41797.0625-.85156.10938-.96094.10938-.11328,0-.54297.00781-.96094.00781-.41406,0-.86328.00781-1,.00781-.27344,0-1.33594.18359-2.44141.42578-.41406.08594-.91016.19141-1.08594.22266-.18359.03906-.83203.11328-1.44141.16016-.61328.04688-1.26953.12109-1.47266.16797-.19922.04688-.6875.11328-1.09375.15234-.41016.03906-.78516.09766-.83203.12891-.16797.10156-1.63281.26172-2.41016.26172-1.26172,0-2.32031.07422-2.86328.20313-.56641.125-1.47266.19141-3.52734.24609-.83984.03125-1.48828.08984-1.76172.16797-.23828.06641-.54297.12109-.6875.11328-.14453,0-.38281.04688-.53515.10938-.15234.06641-.28906.09766-.3125.08203-.03125-.03125-.56641.05469-1.88672.29688-.23047.03906-.49609.10938-.57813.15234-.07813.04688-.29297.07813-.48438.07813-.36328.00781-1.85938.29688-2.625.51172-.24219.06641-.78516.21875-1.19922.32813-1.36328.35938-1.71484.46484-2.20313.61719-.26172.07813-.62109.18359-.79688.22266s-.67969.16016-1.12109.28125c-.43359.11328-.99219.22266-1.24219.24609-.65234.06641-1.52734.27344-1.79688.43359-.12891.07813-.40234.16016-.59375.19141s-.58984.13672-.87891.22266c-.28906.09766-.55078.16797-.58594.16016-.07813-.01563-.87891.26563-1.22266.44922-.17578.08984-.67969.29688-1.12109.45703-.97656.36719-1.39844.57422-1.91797.95313-.21875.16016-.76172.52734-1.19922.8125-.96094.625-1.11328.74609-2.06641,1.66406-.39844.39453-.91016.82422-1.13672.96875-.21484.13672-.59766.46484-.83984.72266-.23828.25391-.6875.70313-.99219.99219-.94922.91016-1.39844,1.42188-2.49609,2.82031-1.33594,1.71484-2.10937,3.25781-2.23828,4.46484-.02344.28906-.09766.66406-.15234.83984s-.10547.37891-.11328.44141c-.125,1.38281-.125,1.49609.02344,2.32031.19531,1.0625.25,1.28125.47266,1.84766.12109.28906.21875.57422.21875.63281,0,.11719.51953.91797.74219,1.14453.07422.07813.12109.18359.08984.22266-.02734.04688.0625.18359.19922.32031.13672.12891.24609.26953.24609.32031,0,.12109.17578.27734.38672.34375.09375.03125.19922.14453.22266.25391.03125.10547.12109.23438.20703.28125.08203.04688.28125.28125.43359.51953.15234.24219.3125.43359.35156.43359s.22266.15234.41406.32813c.19531.18359.47266.38281.625.44531.15234.07422.32813.19531.38281.27344.05859.08203.16797.15234.24219.15234.07813,0,.21484.05469.32031.12109.09375.07031.3125.11719.47266.11719.16797-.00781.46094.03516.66406.08203.19922.04688.48828.07031.63672.04688.15234-.03125.53906-.0625.83984-.08594.61719-.05078,1.08984-.16016,1.41797-.32813.11328-.06641.27344-.11328.34375-.11328.08203,0,.35156-.10547.61719-.23828.25391-.12891.51172-.24219.55859-.24219.05469,0,.19141-.09375.3125-.20703.12891-.12109.42578-.32813.66406-.46484.23828-.13672.64844-.42188.90234-.64063.53125-.44531,1.94531-1.89453,1.94531-1.98437,0-.03125.15234-.22266.34375-.42188.49609-.54297,1.98438-2.95313,2.19141-3.5625.05078-.14844.13672-.51172.18359-.79688.05078-.28906.13672-.67969.19531-.88281.07031-.24609.08594-.53516.03906-.92578-.14453-1.35156-.06641-4.12109.12891-4.43359.02344-.03906.00781-.29688-.05078-.55859-.07813-.41797-.07031-.54297.05078-.94531.29297-.95313.77344-1.53516,1.26172-1.53516.24219,0,.72656-.10547,1.49609-.32813.9375-.27344,1.30469-.32813,2.33594-.35156.55859-.01563,1.08203-.0625,1.16016-.10547.08203-.03125.39844-.07031.70313-.08594.69531-.01563,2.96875-.30469,3.24219-.40234.39063-.14453.6875-.19922,1-.17578.17578.00781.82422-.03906,1.4375-.10938,1.59375-.18359,1.67187-.19531,2.59375-.24219.45703-.02344,1.08594-.08594,1.39844-.12891.3125-.04688,1.50391-.10156,2.64844-.11719,2.54297-.04297,5.30469-.28125,5.90625-.50391.11719-.05078.35938-.08203.52734-.07422.16797,0,.34375-.01563.39063-.04688.04688-.02344.41016-.07031.79297-.09766,1.19141-.0625,2.28906-.17578,2.66406-.26172.52734-.12109,1.08594-.10547,1.42188.03906.23438.09766.46484.11328,1.05859.08203,1.87891-.12109,3.75-.30469,4.07813-.41016.19922-.0625.57031-.13672.82422-.16797.38281-.03906.48828-.08594.55469-.23047.10156-.22656.28516-.3125.90234-.43359.26563-.05469.58984-.12891.71875-.16797.13672-.03906.49609-.09766.80078-.12109.3125-.03125.97656-.11719,1.48047-.19922,2.0625-.34375,2.46484-.39844,2.96094-.44141.28516-.02344.65625-.09375.82422-.15625.16016-.06641.39063-.12109.50391-.12109.10938,0,.52734-.09766.93359-.20703.40234-.11328.9375-.21875,1.17578-.23438.24219-.00781.64844-.07813.91406-.15234.25391-.07031.78516-.16797,1.17578-.20703.38281-.03906.77734-.11328.87109-.16016.08984-.04688.19922-.0625.24219-.03906.11719.07031,1.10938-.29688,1.14844-.43359.04297-.12891.05078-.39063.03516-1.20703-.02734-.71875.05469-1.12109.35938-1.87891.375-.96094.67188-1.53906.97656-1.92188.44531-.55859.78125-1.09375.80469-1.28906.01172-.09375.05078-.23828.08984-.30859.10547-.17578-.0625-.67188-.24609-.77734-.08203-.04688-.22656-.05469-.33594-.03125-.11328.03125-.29688,0-.43359-.07422-.25-.125-.3125-.125-.92188-.03125ZM10.76007,17.06401c.10547.10547.12109.30469.08984,1.22266-.08203,2.20313-.09766,2.28125-.45703,3-.38281.77734-1.23047,1.64844-1.92578,2.00781-.39453.19531-.48828.21875-.94531.16016-.28125-.02344-.60156-.09375-.71094-.16016-.11328-.05469-.28906-.11719-.40234-.14063-.29688-.06641-.85547-.57031-1.04688-.95313-.22266-.44141-.16016-1.32813.13672-1.92188.29688-.56641.80078-1.21484,1.09375-1.40625.14453-.08984.47266-.3125.73828-.49609.57422-.41016,1.73437-1.03125,1.93359-1.03906.08203,0,.37891-.08203.66406-.18359.64844-.23438.67969-.24219.83203-.08984Z"/>

</g>
</svg>
