<?xml version="1.0" encoding="UTF-8"?>
<svg xmlns="http://www.w3.org/2000/svg"
     version="1.1"
     width="68.18887738mm"
     height="25.53558548mm"
     viewBox="0.00000000 0.00000000 193.29127610 72.38428362">

<g transform="scale(2.96133084)">   <defs>
      <style type="text/css"><![CDATA[
      .b {
        stroke: #000;
        stroke-linecap: round;
        stroke-linejoin: round;
        stroke-width: .25px;
      }
    ]]></style>
   </defs>
   <path class="b"
         d="M40.95185,16.93743c-.42207.21727-.86798.43881-1.34248.42473-.79068-.02346-1.40558-.67748-2.14204-.96619-1.33018-.52145-2.78164.20035-4.11529.71287-2.35154.90369-4.89128,1.17171-7.39701,1.43182-8.58443.89111-17.00805.95992-25.83003,1.13126.6128,1.64361,2.37126,2.78313,4.12181,2.67101.61426-.03934,1.23925-.21511,1.83473-.05932s1.11129.85035.79408,1.37783c.33072.53645,1.04487.71512,1.67064.64059.62577-.07453,1.20833-.34739,1.81529-.51694.975-.27235,2.00206-.27548,3.01438-.27668,2.33584-.00277,3.1878-.37828,5.52364-.38105,1.02095-.00121,3.59727.34898,4.43496-.23464,3.49337-.6088,3.69453-.44653,6.36107-.69314,14.5915-1.3495,24.32323-7.31258,33.51362-15.25048.67518-.58317,1.3549-1.19975,1.75287-1.99823s.10616-.85702-.43244-1.56826c-.2885-.38098-.42293-1.61809-.891-1.5217s-.82731.64552-.62502,1.07848c-.9211.25316-1.95763.49407-2.78785.02157-1.0956-.62353-.414-1.43695-.92546-2.6277-.23505-.54724-2.91444.13158-3.46617.3559-1.039.42244-2.16043.91738-2.67898,1.91191-.76307,1.46351.12329,3.19595.82971,4.68763.23789.50234.46147,1.04161.40903,1.59498-.16205,1.70966-4.63588,3.29223-5.93253,4.01874-2.47915,1.38908-4.98285,2.73435-7.50953,4.03499v.00002Z"/>

</g>
</svg>
