<?xml version="1.0" encoding="UTF-8"?>
<svg xmlns="http://www.w3.org/2000/svg"
     version="1.1"
     width="18.35881235mm"
     height="17.06828163mm"
     viewBox="0.00000000 0.00000000 52.04076566 48.38246224">

<g transform="scale(4.31933435)">   <defs>
      <style type="text/css"><![CDATA[
      .b {
        stroke: #000;
        stroke-miterlimit: 10;
        stroke-width: .1px;
      }
    ]]></style>
   </defs>
   <path class="b"
         d="M9.71544.14919c-1.60567-.7067-4.22277,2.56477-5.39819,3.43217C3.01893,4.53946-.81243,5.89889.22652,7.95226c1.03431,2.04421,4.34618,1.72328,6.21356,1.83035,1.26925.07277,1.67084.891,2.79146,1.27601,1.44884.49776,3.01091-1.10464,2.73481-2.49856-.27761-1.40152.27631-3.02037-1.21266-3.47639-.85728-.26256-1.84866.24844-2.6809.34247-.73495.08304-1.55294.0465-2.29025.00464-.43864-.83025,2.504-2.08605,3.10224-2.68057.47599-.47303,2.01351-2.17543.83067-2.60102Z"/>

</g>
</svg>
