<?xml version="1.0" encoding="UTF-8"?>
<svg xmlns="http://www.w3.org/2000/svg"
     version="1.1"
     width="36.65744935mm"
     height="12.04565529mm"
     viewBox="0.00000000 0.00000000 103.91089923 34.14517810">

<g transform="scale(4.51181935)">   <defs>
      <style type="text/css"><![CDATA[
      .b {
        fill: #000;
        stroke: #000;
        stroke-linecap: round;
        stroke-linejoin: round;
        stroke-width: .01px;
      }
    ]]></style>
   </defs>
   <path class="b"
         d="M4.39749,4.88176c.93066.2102,1.73882-.02996,2.69636-.19841,3.4225-.6021,6.68963-1.92634,10.0393-2.91775,1.95916-.57986,3.85967-.45201,5.87617-.53938.19648,1.82762-1.40052,2.05567-2.72105,2.23716-3.28163.45102-6.41655.89754-9.64806,1.72118-1.81129.46165-3.67041.6583-5.48294,1.19702C3.95628,6.73853,1.14392,7.94968.005,7.43921c.06348-1.99126,3.46251-3.55082,4.9759-4.51586.89216-.5689,1.87284-1.29531,2.87229-1.72063.96024-.40863,2.08889-.51592,3.08927-.8339.8933-.28395,1.64589-.76017,2.02508.25035.22379.5964.06184,1.87702-.46111,2.25793-.65698.47853-1.50475.12992-2.05058-.2582-.74374-.52884-.75611-.85011-1.76602-.48662-.84416.30384-1.7758.42061-2.56435.92039-.82853.52511-1.17346,1.06493-1.72796,1.8291h-.00003Z"/>

</g>
</svg>
