<?xml version="1.0" encoding="UTF-8"?>
<svg xmlns="http://www.w3.org/2000/svg"
     version="1.1"
     width="67.85848383mm"
     height="31.15423162mm"
     viewBox="0.00000000 0.00000000 192.35479724 88.31116260">

<g transform="scale(3.49704522)">   <defs>
      <style type="text/css"><![CDATA[
      .b {
        stroke: #000;
        stroke-linecap: round;
        stroke-linejoin: round;
        stroke-width: .01px;
      }
    ]]></style>
   </defs>
   <path class="b"
         d="M50.44593.01051c-.0625.04297-.22266.07422-.36719.07422h-.25781l.15234.25391c.11328.19922.15234.41016.14453.82422-.00781.42578.05078.71094.20703,1.16016.12109.32813.23438.67188.24219.76172.03906.33594.23047,1.125.3125,1.27734.04688.08984.09375.26563.10938.40234.01953.12891.05078.46484.07422.73438.03906.42578.02344.53516-.12109.76953-.3125.51172-1.03906.94141-2.23828,1.33594-.38672.12109-1.34375.48828-2.13672.80859-.78516.32031-1.64844.65625-1.91406.75-.63672.23438-.84766.33594-1.55859.75391-.71094.41406-1.23047.64844-1.45703.64844-.18359,0-2.07031.78906-2.48047,1.03906-.14063.08594-.33594.16016-.42188.16016-.19922,0-.87109.25391-1.47266.55859-.25391.12891-.71094.3125-1.01563.41016-.30469.09375-.69531.25391-.87109.35156-.17578.10156-.49609.19922-.72266.23047-.21484.02344-.50391.08984-.63672.12891-.12891.03906-.40234.12891-.60156.19141s-.61719.22266-.9375.35938c-.32031.13672-.61328.25-.67188.25-.04688,0-.19141.08594-.32031.19141-.19922.17578-.28516.19141-.67188.15234-.30078-.03125-.53516-.00781-.74219.07031-.48828.19922-1.71875.46484-1.94531.41797-.22266-.05078-.93359.13281-2.15234.55859-1.69531.59375-2.97266.81641-3.80469.65625-.26563-.04688-.49609-.00781-1.12109.18359-1.03906.32813-1.65625.38281-2.17578.21484-.40234-.13281-.42578-.13281-1.03125.05859-.34766.10938-.91406.23828-1.26563.29297-1.56641.22656-1.78516.27344-2.19922.45703-.69531.3125-1.12109.42578-1.64844.42578-.38281,0-.66406.07031-1.35938.34375-.57813.23047-1.06641.36719-1.43359.40625-.55859.05078-.76563.11328-2,.53516-.35156.12109-.91797.26563-1.25391.32031-.44922.06641-.81641.19531-1.36328.47266-.40625.20703-1.19141.60938-1.74219.89063-.55078.27734-1.10547.58203-1.23828.67969-.12891.09375-.44141.28516-.69141.42969-.48828.28906-1.32031,1.03125-1.54297,1.39453-.28125.44531.08984,1.50391.57812,1.61328.11719.02344.35938.08984.53516.12891.4375.11328,1.21484.14453,1.59766.0625.17578-.03906.91406-.19141,1.64063-.33594,1.08984-.22266,1.41016-.26172,1.80078-.21484.90234.11328,1.41797.08203,2.08203-.13672.34375-.10938.67969-.23828.73438-.28516.13672-.11328.86328-.27344,2.22266-.49609.74609-.12109,1.25781-.27344,1.57813-.47266.10156-.06641.26953-.12109.38281-.12109s.56641-.16797,1.02344-.36719c.44922-.19922.87891-.36719.96094-.36719.07813,0,.18359-.04297.23047-.08984.13672-.13672,1.10547-.30469,2.18359-.38281,1.17969-.08984,1.625-.16797,1.97656-.35156.14453-.08203.53906-.21094.88281-.28906.34375-.08984.75-.19922.90234-.25.60938-.19922.87109-.25391,1.55859-.32422,1.12891-.11328,1.58594-.19531,1.83984-.32813.27344-.14453.83984-.34766,1.44141-.50391.22266-.06641.70313-.22656,1.08203-.36328.42969-.15234.89453-.25391,1.26172-.28516.41016-.02734.71094-.09766.98438-.23438.21484-.10938.58594-.24609.81641-.3125.47266-.125,1.70313-.60547,2.14453-.84766.16016-.08594.375-.16016.48047-.16016.10156,0,.33594-.0625.51172-.15234.66406-.30859,1.08594-.48828,1.19141-.48828.05469,0,.15234-.05469.20703-.11719.05469-.06641.25-.16016.43359-.20703.26953-.06641,1.375-.5625,1.80859-.80859.0625-.03516.24609-.12109.39844-.19141.15234-.07422.36719-.17969.48047-.23438s.375-.12891.59766-.16016c.21875-.03125.52344-.12109.68359-.20703.14844-.08203.53516-.25781.83984-.39063.30859-.13672.69531-.32031.85547-.41016.16016-.07813.34375-.15234.39844-.15234s.32813-.10156.60938-.23828c.27734-.12891.625-.24219.75781-.25.32031-.01563.81641-.18359,1.5625-.51953.32031-.15234.61328-.26953.65625-.26953.16016,0,1.47656-.41016,1.71094-.53125.13672-.07031.41406-.17578.63281-.23828.20703-.0625.49609-.22266.64063-.34375.13281-.12891.52734-.34375.85547-.48828s.65625-.3125.72656-.375c.07031-.06641.25781-.14453.41797-.19141.26172-.07422,1.19922-.64844,1.53516-.95313.08594-.08203.28516-.20703.4375-.28125.24219-.12109.91406-.61719,1.04297-.76563.02344-.02734.29297-.19531.59766-.37109.3125-.18359.71094-.46094.89844-.64063.27734-.25391.34375-.375.42188-.78906.13672-.69531.06641-1.24219-.26953-2.15234-.38672-1.01563-.44922-1.25781-.48828-1.80078-.07422-1.00781-.07422-1-.74609-1.36719-.33594-.18359-.77734-.44922-.97656-.59375-.64063-.44531-1.89453-1.0625-2.00781-.99219Z"/>
   <path class="b"
         d="M45.29358.48317c-.35156.16797-.87109.35938-1.16016.41797-.35938.07031-.58203.16797-.73438.30859-.12109.12109-.33594.28125-.47266.36328-.19922.11719-.28125.23828-.35938.57422-.09766.35938-.09766.44922,0,.60156.0625.09375.15234.3125.20703.47266.04688.16797.13672.32813.19141.35938.05859.03906.14453.14453.19141.23828.09766.17578.69141.50391.91406.50391.11328,0,.85547.35156,1.34375.64063.0625.03125.32031.12891.57422.19922.25.07422.61719.23438.81641.36719.35156.21875.41016.23438.91406.1875,1.07031-.10547,1.34375-.39453,1.32031-1.41016-.01563-.76953-.17578-1.10547-.92188-1.89453-.30469-.32813-.63281-.74609-.71875-.92188-.28906-.57422-.91406-1.19922-1.27344-1.28125-.125-.02344-.40625.06641-.83203.27344Z"/>

</g>
</svg>
