<?xml version="1.0" encoding="UTF-8"?>
<svg xmlns="http://www.w3.org/2000/svg"
     version="1.1"
     width="56.95787488mm"
     height="43.01355358mm"
     viewBox="0.00000000 0.00000000 161.45544172 121.92810930">

<g transform="scale(5.63365949)">   <defs>
      <style type="text/css"><![CDATA[
      .b {
        stroke: #000;
        stroke-linecap: round;
        stroke-linejoin: round;
        stroke-width: .25px;
      }
    ]]></style>
   </defs>
   <path class="b"
         d="M18.62074,6.98301c.04633.10349.09827.21343.19595.271.11859.0699.26843.04238.40197.00897.62674-.15679,1.2324-.39754,1.79576-.71379.12376-.06948.24909-.14581.33178-.26116.13458-.18772.13035-.43927.10342-.66877-.18367-1.56481-1.95291-5.77981-4.0643-5.47896-2.71605.38701.65745,5.55156,1.23542,6.8427Z"/>
   <path class="b"
         d="M9.70878,16.15226c.44193.35217.77751.86309.75293,1.42017-.76277.01522-1.52617-.00243-2.28743-.05268-1.28946-.08512-2.57275-.26377-3.83632-.53466-.47673-.1022-.97725-.23196-1.31961-.57908-.9601-.97342-1.65493-3.16962-.16941-3.46462,1.50214-.2983,3.59239,1.7824,4.91426,2.31117.5917.23668,1.21654.4108,1.7504.75881.06673.0435.13204.09057.19517.14088h.00001Z"/>
   <path class="b"
         d="M6.82519,9.54181c-1.02296.27428-2.06932.55923-2.93689,1.16669-.56346.39454-1.03431.91431-1.61892,1.27678s-1.35641.54619-1.95372.20506c-.19397.81532-.24057,1.66546-.13688,2.4971.61709.41879,1.48044.15418,2.06646-.30708.58602-.46126,1.02409-1.09396,1.63129-1.52698.61209-.43651,1.35477-.64164,2.0814-.83457,5.34159-1.41822,10.76746-2.61376,15.88929-4.69001,1.00303-.40661,2.0624-.9081,2.58117-1.85798.87125-1.59524-.1811-3.52161-1.20191-5.02554-.83481.16532-1.66963.33064-2.50446.49596.3302.91157.66039,1.82314.99058,2.73471.11602.32029.23285.6712.12349.99382-.11927.35188-.47048.56333-.8006.73381-2.06779,1.06782-4.28208,1.48031-6.49206,2.06892-2.57385.68552-5.14552,1.37952-7.71824,2.06932h.00001Z"/>
   <path class="b"
         d="M14.89889,14.40157c-.42922.26242-3.68147,1.27708-3.91882,1.72065-.23735.44357-.16326,1.09562.28529,1.32344.19473.09891,3.62078.62878,3.83918.63078,4.49711.04116,5.28134.10213,9.77845.1433-.86108.91361-1.20795,1.28164-2.06903,2.19525-.2305.24456-.47617.59512-.30523.88446.17412.29473.61171.23977.93662.132,1.32721-.44023,2.574-1.1217,3.66114-2.00113.55281-.44719,1.08183-.97116,1.3177-1.64193s.09923-1.51657-.48052-1.92825c-.82967-.58916-1.94619-.04257-2.93195.20992-.79536.20373-1.62724.1987-2.44824.19241-2.16751-.01661-4.335-.03321-6.50251-.04982-.29301-.41782.17215-.94582.59848-1.2263,1.28833-.84759,2.67753-1.54171,4.1289-2.06302,1.06114-.38115,2.37031-.93267,2.41068-2.05947.00883-.24642-.05134-.49075-.13542-.72255-.24745-.68214-.77769-1.32518-1.49475-1.43815-1.02601-.16135-1.09948.73899-1.58515,1.29533-.63025.72198-.26978,1.16941-1.11416,1.68521-1.89152,1.15545-2.07959,1.56167-3.97066,2.71786h0Z"/>

</g>
</svg>
