<?xml version="1.0" encoding="UTF-8"?>
<svg xmlns="http://www.w3.org/2000/svg"
     version="1.1"
     width="17.38730843mm"
     height="40.71120168mm"
     viewBox="0.00000000 0.00000000 49.28688454 115.40184740">

<g transform="scale(5.59901992)">   <defs>
      <style type="text/css"><![CDATA[
      .a {
        fill: #000;
        stroke: #000;
        stroke-miterlimit: 2.61313;
        stroke-width: 0.28346px;
      }
    ]]></style>
   </defs>
   <path class="a"
         d="M6.12012,19.35059c-.32031.73438-.668,1.33887-1.19531,1.041-.543-1.2041.01953-2.50879.61719-3.81738a4.95019,4.95019,0,0,1-.65625-2.31348q-.46289-.23-.92432-.46191v-1.0791q-.13623-2.083-.27051-4.16406a27.06334,27.06334,0,0,1,.1543-6.70752Q4.44287,1.48193,5.04,1.11523A2.63065,2.63065,0,0,1,8.124.34473a10.22672,10.22672,0,0,1,.38672,4.81836q-.05859,1.15723-.11719,2.31348c.77148,7.89063-.166,11.38574-2.27344,11.874Z"/>
   <path class="a"
         d="M.29834,11.40918A2.11293,2.11293,0,0,0,.37549,13.2207c1.34961-.42383,2.44141-1.68262,2.96875-4.78027A27.53318,27.53318,0,0,0,4.231,2.11768c-.83594-.30811-1.53027.23145-2.15918,1.15674C1.11768,3.37646.94189,4.5918.72217,5.7417.24072,5.86035.26123,8.59229.29834,11.40918Z"/>

</g>
</svg>
