<?xml version="1.0" encoding="UTF-8"?>
<svg xmlns="http://www.w3.org/2000/svg"
     version="1.1"
     width="14.66808129mm"
     height="36.51833009mm"
     viewBox="0.00000000 0.00000000 41.57878479 103.51661118">

<g transform="scale(6.53780177)">   <defs>
      <style type="text/css"><![CDATA[
      .b {
        stroke: #000;
        stroke-miterlimit: 10;
        stroke-width: .15px;
      }
    ]]></style>
   </defs>
   <path class="b"
         d="m4.43498.09875c-.42627.07782-.54211.29785-1.14893.68085-.46069.29077-.87305.46649-1.27649.63831-.61438.26172-.68152.22479-.93628.383-.29321.18213-.65295.50989-.93616,1.14893-.01794.39191-.0321.78912-.04248,1.19153-.0271,1.05426-.02527,2.07629,0,3.06378.2124.02271.53796.04858.93616.0426.78162-.01178,1.21436-.13702,1.31909.04254.04382.07507.04211.22388-.21277.55316-.62415.05676-1.24817.11346-1.87231.17023.01453.24133.03357.61133.0426,1.06384.02087,1.03876-.0365,1.2124,0,1.91486.01672.32111.08203.78149.21277,1.70215.12073.84991.18176,1.1377.34033,1.48938.09863.21881.23218.50842.51074.80847.12415.13367.68628.73907,1.44678.76599.05774.00208.23706-.01282.5957-.04254.4054-.03357.61121-.05109.76599-.08514.36621-.08057.62292-.23022.80847-.34039.3136-.18622.94226-.55951,1.19153-1.23407.14087-.3811.10657-.71228.08508-.93616-.09253-.96179-.69946-9.43127-.89355-11.27661-.07568-.71954-.15588-1.30975-.21277-1.70209-.1676-.04761-.42651-.09686-.72351-.0426Z"/>

</g>
</svg>
