<?xml version="1.0" encoding="UTF-8"?>
<svg xmlns="http://www.w3.org/2000/svg"
     version="1.1"
     width="72.18424320mm"
     height="27.77379317mm"
     viewBox="0.00000000 0.00000000 204.61679055 78.72893556">

<g transform="scale(5.26879979)">   <defs>
      <style type="text/css"><![CDATA[
      .b {
        stroke: #000;
        stroke-linecap: round;
        stroke-linejoin: round;
        stroke-width: .25px;
      }
    ]]></style>
   </defs>
   <path class="b"
         d="M9.13752,2.43866c-.44743.44311-.92995.9009-1.15949,1.15949-2.25751,2.54321-4.34947,4.51795-6.60465,7.06326-.7462.8422-1.54536,1.94072-1.13834,2.98974.32904.84804,1.35757,1.23987,2.26323,1.15497.90566-.0849,1.73027-.53131,2.55536-.91429,1.28885-.59823,2.64117-1.0596,4.0269-1.37386.06132-.58451.12264-1.16903.18395-1.75354.03693-.35206.01351-.80749-.3196-.92728-.17754-.06384-.37308.00391-.54697.07713-.72875.30687-1.41233.72078-2.022,1.22432-.1875.15486-.42731.32904-.65047.23241-.36621-.15858-.1491-.71435.12031-1.00876,2.31573-2.53059,5.20479-4.55185,7.1444-7.38106.46071-.67201.86766-1.56325.45308-2.26464-.94987-1.60698-3.97669.40542-3.88971,1.93411.05678.99797.90145,1.91778,1.37324,2.77235.61666,1.11696,1.1154,1.62706,1.75957,2.7284.48164.82346.77937,1.89476,1.60448,2.24263.52979.22336,2.87483.90283,3.44627.96624,1.70512.18921,2.70757.12023,4.44472.22546,3.05337.18496,7.37227-1.02996,10.27439-1.9969,1.89889-.63269,2.44722-1.00464,4.34785-1.80232.68398-.28706,1.42344-.53422,1.90653-1.09712-.13991-.37021-.8272-.27617-.92904-.6586-.10876-.40846.57978-.55307.74844-.94066.16519-.37961.12983-.67592-.2829-.64367s-1.46247.67934-1.79707.92312c-1.50663,1.09766-3.12663.98472-4.96236,1.30862-4.21978.74453-8.64482,1.47687-12.71666.14235-.55025-.18034-1.45601-.24225-1.8713-.64577-.4041-.39265-.81802-1.23178-1.06287-1.73924-.47591-.98633-.50823-1.44844-1.0552-2.7302-.15143-.35485-.4175-.65704-.71224-.906-.64399-.54397-1.59068-.61547-2.39631-.36728s-1.28774.42063-1.92225.97563c-.19963.24608-.42005.35458-.6133,1.03095h.00001Z"/>

</g>
</svg>
