<?xml version="1.0" encoding="UTF-8"?>
<svg xmlns="http://www.w3.org/2000/svg"
     version="1.1"
     width="43.06658575mm"
     height="47.23017523mm"
     viewBox="0.00000000 0.00000000 122.07849662 133.88075499">

<g transform="scale(4.18648958)">   <defs>
      <style type="text/css"><![CDATA[
      .b {
        fill: #000;
        stroke: #000;
        stroke-miterlimit: 10;
        stroke-width: .25px;
      }
    ]]></style>
   </defs>
   <path class="b"
         d="M7.2113,19.95244c-.37254.86139.97889,1.38511,1.65132,1.07963.608-.27621,1.53064-1.26619,2.135-1.54711,1.55985-.72504-.12298,2.61275-.12298,3.59265,0,1.41243.55872,3.40826-1.07474,3.84155-1.55478.41242-3.69819.41823-5.27844.19946-1.01155-.14004-1.50821.06735-2.40308.58512-.94006.54392-.84547.95538-.54722,1.88065-.5216.44798-1.85788-.10985-1.32149,1.2164.44706,1.10536,2.02787.84442,2.91641.8547.76091.0088,1.48573.27555,2.26284.17689,1.08129-.13728,2.08602-.5731,3.18749-.68673,1.63999-.16919,3.23685-.40483,4.85732-.63985,1.26443-.18338,2.36.04676,3.58417-.16685,1.7354-.30282,3.90074-.54018,5.65185-.20049,1.19472.23176,3.58169,1.00687,4.82921.80434,1.14634-.18611,2.11391-1.54225,1.01103-2.78975-1.04007-1.17645-3.49658-1.52091-4.95586-1.72533-2.20315-.30862-4.58031-.30266-6.72243.72948.45035-1.50236,2.32566-2.26231,3.09673-3.63283.48306-.85859,1.05627-2.02937,1.00703-3.03565-.02029-.41463-.13891-1.25612-.67443-1.33319-.56933-.08194-.6236.76506-.9769,1.11228-.6938.68185-.97347,1.50183-1.56567,2.27733-.394.51597-1.31572.92915-1.8575.45794-.44181-.38426-.33019-2.64657-.42235-3.27838-.23976-1.64366.44765-2.41297,1.31298-3.78837.53767-.8546,2.7163-3.07909,1.64144-3.85071-1.04169-.74782-1.78059.45554-2.01872-1.13984-.15158-1.01553-.32064-2.24232-.07185-3.25586.26946-1.09776,1.53676-1.66051,2.66761-1.67808.97537-.01516,2.20813.37915,2.80488-.7602.31436-.60019-.07666-2.16111-.41725-2.79391-.36243-.67337-1.41019-1.62165-2.07358-1.83193-1.60449-.50858-2.52523-.71346-4.0565-.2135-2.63859.86149-6.19348,2.8534-6.9024,5.86631-.4237,1.80071-.15288,3.42679-.30422,5.23324-.12471,1.48855-.23359,2.75202.00016,4.24523.1552.99143.22835,1.78931-.25827,2.64257-.19859.34822-.37672.38287-.50224.79349-.09566.31291-.10639.79612-.08935.75932v-.00002Z"/>
   <path class="b"
         d="M24.78833,15.98962c-.99806.56123-3.90665,1.65703-3.16962,3.42911.10929.26277.50926,1.05095.75992,1.18335.52613.27789.83118-.18605,1.36698-.45312,1.03151-.51416,2.07608-.98026,2.65376-2.06585.3817-.71731.35381-.82608-.24593-1.23563-.30437-.20785-.63813-.75483-1.36509-.85785h-.00002Z"/>

</g>
</svg>
