<?xml version="1.0" encoding="UTF-8"?>
<svg xmlns="http://www.w3.org/2000/svg"
     version="1.1"
     width="116.37940371mm"
     height="72.58922782mm"
     viewBox="0.00000000 0.00000000 329.89441436 205.76479946">

<g transform="scale(5.18422646)">   <defs>
      <style type="text/css"><![CDATA[
      .b {
        stroke: #000;
        stroke-linecap: round;
        stroke-linejoin: round;
        stroke-width: .01px;
      }
    ]]></style>
   </defs>
   <path class="b"
         d="M41.00503.0428c-.06641.02344-.18359.10938-.26563.19922-.07813.07813-.17578.12891-.21484.10547-.09766-.05859-.72266.51172-.72266.64453,0,.05859-.07031.16797-.15234.25-.08594.07813-.17578.28125-.20703.45703-.03125.16797-.16797.42969-.30469.57422-.26172.3125-.32813.67969-.16016,1.01563.07422.13672.11328.48047.11328.83984.00781,1.16797.08203,2.03906.19922,2.33594.12891.3125.13672.55469.05078,1.07422-.06641.33594-.05078.4375.07813.66406.13672.22266.14453.30078.07422.48828-.05859.14063-.07422.39063-.05078.66406.03125.23828.06641.53516.08203.67188.0625.61328.11719.93359.19922,1.07813.04688.08984.0625.19922.03906.24219-.03125.04688-.0625.26172-.07813.49219-.02344.42578-.14453.58594-.35156.46484-.07422-.03906-.1875-.03125-.25781.00781-.24609.12891-1.08594.08203-1.44922-.08594-.25391-.12109-.28516-.19922-.34375-.83203-.03125-.3125-.10156-.55469-.23047-.72266-.24219-.32422-.54297-.93359-.49609-.98047.02344-.02734-.00781-.13672-.0625-.25781-.05859-.11328-.13672-.38281-.16797-.60938-.03516-.21484-.11328-.50391-.17969-.62891-.0625-.12109-.13281-.39453-.14844-.60156-.05078-.51953-.06641-.58594-.17578-.78516-.05859-.09375-.09766-.27734-.09766-.40625,0-.13672-.04688-.25781-.11328-.28125-.05469-.02344-.16797-.25391-.24609-.51172-.07422-.25391-.19141-.60938-.25781-.78516-.0625-.17578-.12891-.375-.14453-.4375-.01563-.06641-.07813-.25-.15234-.41016-.10938-.26953-.09375-.57422.07422-.96875.03125-.07031-.00781-.21484-.08203-.33594-.10938-.16797-.11719-.27734-.04688-.73438.06641-.42188.05469-.58984-.03125-.80078-.05469-.14453-.08984-.27734-.0625-.30469.02344-.02344-.04297-.14063-.14453-.26953-.10547-.12891-.23438-.30469-.28125-.38672-.07031-.125-.11328-.125-.32813-.03906-.12891.05859-.32813.07422-.43359.05078-.17578-.04297-.21484-.01172-.36719.36719-.12891.29688-.16016.45313-.10156.55859.05469.10547.00781.30469-.18359.77734l-.27344.63281.22266.375c.16016.29688.20703.45703.17578.67969-.03125.25391-.00781.33594.17578.51953l.21875.21484-.17578.28906c-.08984.16016-.14453.34375-.12109.40625.02344.07422.00781.28906-.04688.49609-.08984.33594-.08203.40234.10938.77734.11328.22266.19141.42578.16016.44922-.05469.0625.14453.85547.27344,1.05469.07813.13672.07813.24219-.01563.55078-.11328.37891-.11328.39453.07031.60938.13672.16797.19922.36719.24219.80859.03906.49609.08594.625.25391.78516.16797.15234.19922.23047.15234.45313-.02344.15234-.01563.27344.01563.27344.11328,0,.35938.48047.3125.60938-.02344.0625.00781.13281.0625.16016.14453.05469.21094.21484.13672.34375-.09375.16016-1.13672.39844-1.6875.39063-.36719-.00781-.58203.03125-.72656.12891-.17578.10938-.27344.12109-.58594.04688-.20703-.04688-.51172-.07813-.67188-.08594h-.61719c-.17578,0-.42969-.07422-.58203-.16797-.23047-.14453-.51953-.20313-1.05469-.22656-.06641,0-.27344.02344-.46484.05078-.63281.08594-.94531-.12109-.70313-.48047.09375-.15234.09375-.20313,0-.32813-.06641-.08203-.11328-.23438-.11328-.32031,0-.29688-.26563-.45703-.80859-.48828-.32813-.01563-.51953,0-.55859.0625-.03125.04688-.17578.09766-.32813.11328-.14453.00781-.48828.07031-.76953.13672-.4375.10156-.51953.10156-.61719,0-.10156-.10547-.13281-.09766-.24609.00781-.15234.16016-.19141.16016-.70313,0-.77734-.25-.92188-.33594-.97656-.57031-.02344-.11719-.09766-.375-.16016-.55859-.08203-.23828-.08984-.39844-.03125-.54297.07813-.21094.03125-.29688-.33594-.6875-.25-.26563-.38672-.69922-.29688-.92969.04688-.14453.04688-.29688-.01563-.48047-.04688-.15235-.07422-.32031-.04688-.375.02344-.05469-.06641-.21484-.1875-.35156-.11719-.14453-.30078-.48047-.39844-.75391-.09375-.27734-.24609-.67969-.33594-.89453-.08594-.22266-.18359-.60938-.20703-.86328-.01563-.25781-.06641-.46484-.10547-.46484-.12891,0-.25391-.6875-.23828-1.30469.00781-.64844-.12891-1.09375-.34375-1.09375-.06641,0-.19141-.07422-.29688-.15234-.14453-.11328-.22266-.13672-.33594-.07422-.08984.03906-.21484.06641-.28906.03906-.07031-.01563-.17578.01563-.23047.07422-.05859.05469-.15234.08594-.21875.0625-.0625-.03125-.125-.01563-.125.01563-.00781.04297-.02344.16016-.03125.26563-.01172.10547-.05859.20703-.10547.23828-.04688.02344-.17578.24219-.29688.47266-.12891.25781-.29688.46484-.44141.53516-.27734.14453-.39844.34375-.54297.88281-.20703.79688-.26172,1.125-.22266,1.33594.02344.11719-.03125.44531-.12109.74219q-.16797.51953-.01563.82422c.08984.16016.14453.33594.12891.39063-.01563.05859,0,.16016.04688.24219.04688.09375.04688.19922,0,.28125-.05469.09375-.01563.26953.12891.58984s.19141.53516.15234.70313c-.03906.23438-.01563.27344.35938.51953.22266.14453.40625.28125.41406.3125,0,.03516.01953.16016.04297.29688.01563.12891.03906.34375.04688.47266s.07813.30469.16016.38281c.19922.19922.18359.27344-.16797.625-.32813.33594-.44141.36719-.74609.24609-.10156-.03906-.32422-.10938-.50391-.15625-.27734-.07422-.34375-.13672-.54297-.5625-.12891-.25391-.23828-.625-.24609-.82422-.01563-.19141-.06641-.42969-.12109-.51953-.04688-.09375-.08984-.3125-.08984-.48047,0-.17578-.03906-.35156-.08594-.39844-.03906-.03906-.09766-.19922-.11328-.34375s-.09375-.30469-.16797-.35156c-.19922-.15234-.29688-.91406-.14453-1.15235.12109-.17578.08984-.49609-.04688-.49609-.03906,0-.11328-.12891-.16016-.28906-.08594-.25781-.07813-.3125.05469-.50391.14453-.18359.15234-.23047.05078-.38281-.09766-.13672-.09766-.21094-.02344-.35156.07813-.13672.07031-.24219,0-.48047-.08203-.24219-.08984-.44922-.01563-.95313.04688-.35156.07031-.6875.04688-.75391-.02344-.0625-.00781-.31641.04688-.55859.07422-.35938.07422-.48047-.03125-.67188-.22266-.44141-.32031-.48047-1.32031-.51953-.35938-.01563-.53516.00781-.60156.08594-.04688.06641-.25391.28906-.46094.50781-.28906.29297-.43359.39063-.61719.39063-.12891,0-.32813.03125-.43359.07031-.27734.11328-.61328.72266-.61328,1.14453-.00781.19141-.05859.43359-.11328.54297-.09766.16797-.09766.24219.00781.49609.0625.16797.10547.39453.08984.50391-.02734.10547.02344.38672.10156.61719.08203.23438.12891.48828.10547.57031-.03125.08594.03125.22266.16016.35156.32031.32031.33594.51953.07031,1-.20703.36719-.22266.45313-.15234.66406.05078.125.10547.25391.13672.27734.21484.17578.46484,1,.41797,1.37109-.03516.23828-.01953.34375.08594.41406.11328.07813.18359.28125.22266.60938.01953.18359-.05469.25391-.34375.32813-.17578.04688-.42969.0625-.55859.03906-.19141-.04688-.28125-.00781-.50391.22266-.20703.21875-.3125.27344-.47266.24219-.16797-.03516-.23047.00781-.39063.28516-.09766.17578-.26563.36328-.35938.40234-.16016.07031-.18359.14453-.18359.51953,0,.39063.02344.45703.28516.71875.3125.3125.57031.36719,1.13672.25.19922-.05078.36719-.01563.66406.11719.21484.10547.39063.22656.39063.26563s.06641.04688.14453.01563c.27344-.10547.6875-.10547.89844,0,.13281.07422.36719.09766.64844.07422.39844-.03516.46875-.01953.75781.19922.60938.46484.67188.52734.71875.6875.03516.07813.10547.19922.16016.26172.06641.05859.11328.17969.11328.25781,0,.08984.07031.19141.16797.23828.20703.11328.63281.5625.63281.66406,0,.04297.18359.25781.40625.47266.26563.25781.39453.43359.35938.51172-.02344.07422-.04688.19141-.04688.28125,0,.3125-.26172.45703-.85547.46484-.29688,0-.64063.01563-.76172.03906-.49609.10547-.66406.10547-1.125.00781-.39453-.07813-.50391-.07813-.59375,0-.04688.05469-.28125.10547-.50391.10547-.3125,0-.48047.04688-.69531.19922-.20703.14453-.32813.18359-.42578.13672-.13281-.07422-.33594-.05859-.79688.0625-.15234.03906-.46484.0625-.69922.04688-.375-.01563-.42969.00781-.75781.30469-.41797.38672-.89844.64063-1.12891.61719-.28125-.03125-.55078.08594-.82422.36719-.13672.14453-.38281.3125-.53516.36719-.18359.06641-.30469.16797-.33594.28906-.02344.10547-.07422.18359-.11328.18359-.03125,0-.13672.06641-.23047.14453-.08984.07031-.29688.23828-.46484.375-.16797.12891-.35938.30469-.44141.38672-.07031.08594-.16797.18359-.21484.23047l-.22266.22266c-.08984.08984-.25781.26563-.375.39453-.12891.13281-.26563.24609-.30469.24609-.09766,0-.57031.32813-.64844.44922-.03125.04688-.16797.13672-.29687.19141-.16016.0625-.30469.21484-.41406.44922-.09766.21484-.24219.36719-.34766.39844-.16797.03906-.27734.26563-.4375.87109-.03125.12891-.13672.38672-.22266.5625-.08984.17578-.1875.41406-.21875.53516-.02344.12109-.10156.27344-.18359.34375-.07031.07813-.13672.28125-.14453.48047-.00781.28125-.0625.39844-.29688.64063-.26172.26953-.27734.3125-.20703.58984.05859.21875.05078.41016-.02344.65625-.0625.19141-.11328.44141-.12109.55078,0,.11328-.00781.33594-.01563.49609-.00781.1875-.07813.37109-.17578.46484-.08594.08984-.16016.21875-.16016.28125s-.0625.17578-.15234.25391c-.19922.19531-.24609.45703-.14453.73828.06641.16797.06641.33594,0,.61719-.07031.30859-.0625.39844.03516.49609.11719.125.08594.46094-.09766.8125-.10547.21094-.10547.76953.00781,1.28125.06641.32813.51172.80078.89844.96094.19141.07031.27734.16797.30859.32812.05078.26172.11328.28125.37891.11328.17578-.12109.44531-.09766.44531.03906,0,.16797.64063.22266,1.13672.10938.50391-.10938.83984.1875.6875.625-.05469.16016-.03906.26563.05859.41016.07031.10938.11719.23047.10938.26172-.03906.23438.04297.42578.28125.6875.15234.16016.29688.41016.32813.54688.03125.125.07813.23828.12109.23828.03906,0,.125.05469.19922.13672.08594.07813.29688.13672.59766.15234.25781.00781.53125.05469.60938.09375.25781.13672.70313-.125.73828-.42188.02344-.25.07813-.76953.08594-.84766.00781-.02344.09766-.17578.19922-.33594.16016-.24219.18359-.32813.12891-.57813-.03906-.16797-.04688-.42188-.02344-.57422s0-.41016-.04688-.57031c-.07422-.21484-.08203-.41406-.02734-.73437.12891-.71094.16797-.83203.29688-.89453.08203-.05078.12109-.19531.12109-.41016,0-.41406.18359-.96094.39844-1.17578.08203-.07813.21094-.35156.28125-.60156.11328-.36719.16797-.44531.34375-.48438.12109-.02734.28906-.06641.375-.08984.16797-.04688.60156-.44922.60156-.55859,0-.04297.13672-.21875.30469-.40234.38281-.40625,1.10938-.82422,1.4375-.82422.3125,0,.75391-.25391.89844-.51953.05469-.10156.21484-.23047.35156-.27734.12891-.05078.32031-.16016.42188-.25.09766-.09766.29688-.18359.44141-.19922s.28906-.08984.32031-.15234c.03906-.0625.22266-.15234.40625-.20703.41016-.10547,1.17578-.53125,1.23438-.67969.02344-.06641.19141-.15234.375-.21094.17578-.05469.375-.14453.43359-.19922.05469-.05469.19141-.10156.30078-.10156.11328,0,.21875-.05859.24219-.12109.05469-.14453.51953-.30469.69531-.23438.17578.06641.23438.28125.27344.99219.05469,1.09766.0625,1.16016.16797,1.27344.0625.0625.08594.18359.0625.28125-.02344.08594,0,.29297.04688.46094.07422.25.06641.32813-.04688.49609-.19141.29688-.17578.82422.03125.89063.08984.03125.21875.16016.28906.28516.0625.12891.15234.21875.19922.1875.05078-.02734.21875-.05859.37891-.07422.58984-.04688,1-.12109,1.09375-.19922.05469-.04688.32813-.16016.60938-.26563,1.02344-.35938,1.22266-.64844,1.19922-1.72656-.01563-.375.02344-.76953.07031-.89453.08203-.18359.08203-.28906,0-.46484-.07813-.20703-.07031-.28125.12109-.60156.12109-.20703.19141-.42188.16797-.49609-.05469-.13672.21484-.71875.43359-.91797.25391-.25781.58984-.37891.78125-.30469.10547.03906.23438.04688.28125.01563.05469-.03125.35156-.0625.65625-.07031.3125-.00781.69531-.03516.86328-.05859.24219-.03125.34375-.00781.46484.11328q.19141.19141.39844-.01563c.12891-.12891.22656-.16016.41797-.12109.14453.02344.44922.05469.6875.05469.23047.00781.54297.05859.67969.10547.26563.10547.46484.10547,1.20703-.02344.5625-.09766,1.28906-.05469,1.44922.07813.09766.08203.17578.06641.41797-.0625.30078-.16797.53516-.17578,1.6289-.0625.26563.03125.52734.01563.61719-.04297.12891-.0625.19141-.04688.32031.08984.12891.14453.17578.15234.33594.07031.09766-.05469.54297-.10938.98438-.13281,1.47266-.05859,2-.13672,2.55078-.37109.28125-.11719.32813-.11719.55078-.00781.24219.12891.98438.09766,1.27344-.05469.17578-.08984.85547.14453.9375.32031.03125.07031.05469.35156.04688.625,0,.27734.02344.50391.05469.50391.12891,0,.25.46094.16016.62109-.125.24219-.10938.37109.07422.57813.08594.10156.19922.33594.24609.51172.12109.49609.14453.54297.23438.48828.03906-.02344.16016,0,.25391.05469.10547.05469.3125.11328.46484.11328.15234.00781.38281.03906.51172.0625.16797.03906.26563.01563.375-.09375.08203-.08984.28906-.22656.46484-.30469.33594-.16016.38281-.22656.49609-.66406.04688-.20703.02344-.39453-.09766-.71875-.16797-.47266-.23047-.85156-.16016-.95313.12109-.16797.74609-.41797.875-.34375.07031.03125.26953.09375.44531.11719.25.05078.33594.03516.45703-.10156.08984-.09766.25-.19141.35938-.21484.11328-.03516.30469-.16016.44141-.28906.22266-.23438.24609-.24219.81641-.19141,1.0625.08594,1.375.09375,1.47266.02344.125-.09766,1.16797-.14453,1.29297-.06641.05859.04297.28125,0,.51563-.09375.49219-.19141,1.03125-.22656,1.41406-.08984.22266.07422.39063.07422.79297-.01563.42969-.08594.55078-.08594.72656.00781.12109.06641.44922.11328.72656.12109.75391,0,.96094.03125,1.25.15234.21484.08594.28125.08594.43359-.02344.11719-.08203.21484-.09766.30859-.05078.08203.04297.40234.09766.72266.11328.4375.03125.625.00781.76563-.08594.14453-.08984.25-.10547.41016-.04297.12891.04297.58203.07422,1.02344.08203.60938,0,.90234.03906,1.23047.16797.34375.12891.46484.14453.55469.07031.0625-.05469.20703-.10156.32031-.10938.11719-.00781.25391-.01563.30859-.02734.05078,0,.11328-.07813.14453-.16797.05078-.14063.74609-.55859.9375-.55859.03906,0,.3125-.15234.60156-.34375.4375-.28906.55078-.40625.75-.82422.27344-.57422.28125-.60156.07031-.77734-.08594-.07031-.15625-.18359-.15625-.25391,0-.18359-.27344-.28125-.83203-.30469-.32813-.01563-.5625.00781-.65625.08203-.12109.08594-.17578.07813-.32813-.01953-.12891-.08594-.23438-.10156-.32813-.05469-.07422.03906-.18359.05469-.23438.03906-.05469-.02344-.17578.01563-.26953.08203-.09766.07031-.21094.11328-.26563.09375-.04688-.01563-.28125-.04688-.51172-.07031s-.45703-.0625-.49609-.08984c-.03906-.02344-.14453-.00781-.23047.04297-.11328.05469-.18359.05469-.26563-.02344-.05469-.05078-.19141-.10547-.30469-.11328-.67969-.05469-1.33594-.10547-1.4375-.09766-.06641.00781-.3125.00781-.54688,0-.25391,0-.50391.05078-.61328.12109-.16016.10547-.19531.10547-.30469-.00781-.08984-.08984-.17578-.10547-.3125-.04688-.19141.07031-1.20703.05469-1.33594-.02344-.03906-.03516-.09766-.01953-.12891.03125-.07813.12891-.92578.33594-1.32031.32813-.26172-.00781-.93359-.01563-1.12109-.00781-.32422.00781-.97266-.05859-1.36719-.13672-.24609-.05469-.42188-.05469-.51953,0-.07031.03906-.41406.08594-.74219.08594-.47266.01563-.67188.05859-.89063.19531q-.32813.20703-.51953.0625c-.12891-.08984-.18359-.09766-.32031-.00781-.08594.0625-.39063.15234-.67969.20703-.28516.04688-.57422.12891-.64844.16016-.07813.03906-.18359.02344-.27734-.03906-.10547-.08203-.19141-.08984-.32031-.03125-.12109.05469-.24219.04688-.41797-.05078-.13672-.07031-.41406-.125-.63281-.11719-.94141.00781-1.30078-.18359-1.23047-.67188.00781-.07422-.01563-.13672-.0625-.13672-.04297,0-.12109-.12891-.16016-.28906-.08203-.29688-.01563-.55859.18359-.69531.16797-.11328.71875-.23438,1.23047-.26563.28906-.02344.66406-.08594.84766-.15234.41016-.14063,1.08203-.15234,1.28906-.01563.13672.08984.57813.10547.96094.04297.04688-.01172.22266.07813.39844.19141.39453.23828,1.03906.33594,1.3125.18359.11328-.05859.24219-.08984.28125-.07422.04688.01563.19141-.05469.32813-.16797.14453-.125.29688-.19141.39844-.16797.12109.02344.23438-.0625.46484-.35938.19922-.26172.38281-.41406.53516-.4375.15234-.03516.24219-.11328.27344-.24219.03125-.10547.10938-.23047.19141-.28125.13672-.08594.13672-.10156-.00781-.40625-.19141-.39063-.42578-.54297-.87109-.59375-.45703-.04688-1.44141-.03125-1.53125.02734-.03125.02344-.16797,0-.29297-.05859-.16016-.0625-.27344-.07031-.38672-.00781-.11719.06641-.26172.03906-.60547-.07813-.29688-.10547-.49609-.12891-.59375-.08984-.17578.09766-1.35156.05859-1.61719-.04688-.10938-.03906-.24609-.05469-.30078-.03906-.05859.02344-.19141-.02734-.30469-.09766-.19922-.12891-.23438-.12891-.51172,0-.23438.10547-.33594.11328-.46484.04688-.08984-.04688-.23828-.08594-.32813-.08594-.16797,0-.40625-.19141-.40625-.32813,0-.14453.78906-.87109.94141-.87109.08984,0,.19922-.05859.25781-.12109.05469-.0625.23828-.16016.40625-.19922.16797-.05078.35156-.13672.41797-.19922.23047-.23438.66406-.44141.91016-.44141.14453,0,.44141-.11328.67188-.25.23438-.125.5625-.28516.74609-.34375.70313-.22266,1.04688-.32031,1.11719-.29297.11328.02344.55469-.16797.72266-.32813.08594-.08203.18359-.14453.22266-.14453.12891,0,.05469-.45703-.09766-.60156-.08594-.07813-.17578-.19922-.19922-.28125-.04688-.14844-.71094-.4375-.83203-.36719-.03906.03125-.125,0-.19141-.0625-.0625-.06641-.18359-.12109-.26172-.12109-.39453-.00781-1.11328-.21484-1.26563-.36719-.11328-.11328-.32031-.11328-.97656.00781-.19922.03906-.28906,0-.50391-.20703-.23828-.24219-.28125-.25781-.63281-.19922-.81641.11719-1.23828.07031-1.85547-.22656-.51172-.23828-.64844-.39063-.67969-.76563-.01563-.17969-.08594-.43359-.16016-.57031-.11328-.21484-.11328-.26172,0-.48047.13672-.25391.12109-.89453-.02344-1.17578-.03906-.07813-.10547-.35156-.12891-.59766-.03125-.25-.10938-.49609-.17578-.55469-.25391-.20703-.28906-.375-.09375-.56641.14063-.14453.16797-.25.14844-.65625-.00781-.27344-.00781-.57813-.00781-.6875.02734-.45703.01953-.53516-.07813-.92188-.08984-.35938-.10547-.59766-.08203-1.18359.01172-.09375.01172-.375,0-.61328-.00781-.51563.08984-.96094.27344-1.24219.09766-.14453.11328-.23828.05469-.34375-.04688-.07813-.07813-.41406-.07031-.73438,0-.57813,0-.59375-.26563-.80859q-.28516-.24219-.46875-.17578ZM33.99721,4.42561c.02344.0625-.01953.16797-.08203.23047-.12891.13672-.32031.09766-.38281-.07031-.02344-.0625.01563-.16797.07813-.23047.12891-.13672.32031-.09766.38672.07031ZM35.44253,14.19515c.24219-.06641.89844.16797,1.03125.36719.07422.09375.16797.14453.24219.12109.22266-.08984.67969.10156.82422.34375.07031.13281.18359.23828.23047.23828.05859,0,.15234.04688.20703.10547.05859.0625.1875.15234.28125.19922.09766.05469.24219.20703.32031.33594.07031.13672.19922.26172.28125.28906.23047.07031.375.44531.41406,1.10156.05859.92969-.0625,1.00781-1.19141.76953-.21484-.04688-.56641-.08984-.77734-.08984-.21484.00781-.44531.00781-.51953,0-.07813,0-.27734,0-.4375.00781-.18359,0-.35156-.04688-.44141-.13281-.07813-.08203-.28125-.19531-.44141-.25-.25391-.08594-.32813-.08594-.50391.03125-.11719.08203-.375.14453-.58984.14453-.22656.00781-.43359.05469-.50391.12891-.08984.08594-.28125.12109-.75391.10156-1.14453-.02344-1.34375-.02344-2.51172.01172-.88672.03125-1.27734.07813-1.67188.20703-.49609.16016-.52734.16016-.80078.02344-.26953-.13672-.29297-.13672-.42188-.00781-.08203.07813-.19141.12109-.25781.09375-.07031-.02344-.29297-.00781-.51172.04297-.30469.0625-.45703.05469-.74219-.04297-.19141-.07031-.38672-.14844-.43359-.18359-.03906-.03906-.23828-.07031-.4375-.07031-.20313,0-.49609-.0625-.67578-.13672-.32422-.13672-.94141-.16016-1.40625-.05469-.18359.04688-.34375.03906-.48047-.03125-.26953-.12891-1.12109-.16797-1.32031-.05859-.08594.05078-.20703.06641-.27734.02344-.06641-.03125-.24219-.07813-.38672-.10156-.15234-.02344-.35156-.11328-.4375-.19141-.09766-.08203-.19531-.15234-.21875-.16797-.01563-.01563-.02344-.24219-.01563-.50391.01563-.28125-.00781-.47266-.05469-.47266-.16016,0-.48828-.41016-.48828-.60938s.32031-.58984.48828-.58984c.04688,0,.19922-.08203.32813-.17969.47266-.32422,1.72656-.54297,2.10156-.35156.20313.10547.32813.11328,1.45703.15234.49609.01563.92969.05078.95313.08203.03125.02344.18359-.01563.34375-.09766.23047-.12109.44141-.15234,1.02344-.13672.43359.00781.77734.05859.84766.11328.06641.05469.17578.07031.25.04688.08594-.03125.23047.01563.375.12109.19141.14453.25781.15234.38281.07031.08984-.04688.19141-.17578.24219-.27734.04688-.09766.18359-.19922.30469-.23438.11719-.03125.28516-.10156.36719-.14844.10156-.07422.23047-.08203.48047-.02734.54297.12891.56641.12891.75.13672.09766.00781.22266.06641.29688.12891.10547.10547.12891.10547.23828,0,.20313-.19922.79297-.42578.96875-.35938.08984.03125.34375.04688.5625.02344.92578-.08203,1.34375-.07422,1.45312.04688.10547.10547.16797.09766.53516-.01563.625-.19922.64063-.19922.79297-.12109.08984.04297.23438.05859.33594.03516ZM42.71596,14.59358c.07031.0625.12891.15234.12891.18359,0,.14453-.37109.51172-.60938.61719-.44922.19141-.6875-.03125-.47266-.44922.23438-.44141.69531-.61719.95313-.35156ZM23.38784,20.24202c.29688,0,.89453.07031,1.33594.16016l.80078.15234.36719-.16797c.35156-.16797.375-.16797.63281-.03906.16797.08594.32813.10938.47266.07031.49609-.13672,1.38281-.15234,1.62891-.01563.23438.12109.55469.10156.875-.06641.27734-.14844.78125-.16016,1.04688-.02344.23828.13672.64063.16016,1.0625.07422.67969-.14453.86328-.14453,1.1914-.00781.20313.08594.39453.10938.52344.07813.10938-.03125.45313-.10156.75781-.16016.3125-.04688.61719-.12109.69531-.16016.08984-.04688.18359-.02344.3125.08203.15234.11719.24219.12891.50391.07031.17578-.03906.41797-.04688.52734-.01563.11328.03125.28125.04688.37109.03906.09375-.00781.22266.04297.29297.10547.06641.07031.28125.13672.47266.15234s.43359.07031.52734.12891c.09766.05469.21875.07031.25781.04688.04688-.02344.26172.04688.48047.16797.22266.12109.42188.19141.44531.16797.03516-.02344.15234,0,.28125.07031.27344.13672.55078.64063.55078.98438,0,.23438-.19922.51953-.30859.45703-.03516-.02344-.23438.04688-.44922.15234-.30469.14453-.43359.16797-.55078.10547-.09766-.05078-.32813-.06641-.60156-.02734-.25.03516-.67969.06641-.96875.07422-.3125,0-.55859.04688-.63281.10938-.0625.05859-.16797.08203-.23828.05078-.12891-.05859-.43359-.09766-.96875-.12109-.15234-.00781-.40625-.07813-.55859-.15234-.19922-.09375-.50391-.14453-1.04297-.15234-.41406-.00781-1.04688-.02344-1.39844-.03125-.39063-.01563-.71875.01563-.84766.08203-.12109.05469-.23047.07031-.26563.04688-.02344-.02344-.50391-.05859-1.07031-.06641-.78516-.01563-1.08984-.05469-1.28906-.16016-.17578-.08594-.33594-.10938-.48047-.07031-.26172.07031-.93359.0625-1.23047-.00781-.20703-.05469-.55859.00781-1.05469.19141-.08203.03125-.28125.01563-.44141-.03906-.15234-.05469-.45703-.12891-.66406-.15234-.21484-.03125-.45703-.12109-.53516-.19922-.38281-.38672-1.19141-.55469-1.77734-.36719-.17578.04688-.25391.02344-.42188-.14453-.11328-.11328-.18359-.25-.16016-.28906s-.01563-.16797-.08984-.28125c-.17578-.26953-.03125-.65625.28125-.73438.10938-.02344.26953-.11328.35156-.19922.11328-.11328.17578-.12891.30469-.05859.08594.05078.40625.08984.69531.08984ZM17.0519,20.53109c.15234.10156.24609.36719.22266.61328-.01563.12891-.03125.32813-.03125.44141,0,.28125-.0625.34375-.51953.57422-.28906.14453-.55078.20313-.91406.21875-.27734.00781-.56641.04688-.63672.07813-.08203.04688-.18359.03906-.26563,0-.10547-.05469-.14453-.03125-.18359.08984-.04688.15234-.12891.19141-.33594.16797-.05469-.00781-.10547.01563-.10547.05469,0,.08203-.71875.41797-.87891.41797-.05469,0-.3125.17578-.57422.39844-.26563.21484-.51563.39844-.55469.39844s-.07031.06641-.07031.14453c0,.08203-.04688.21875-.11328.30469-.18359.25781-.18359.71094-.01563.90234.08984.09766.16797.15234.19141.12891.02344-.01563.10547,0,.18359.05078.11328.05469.25.03906.51172-.08203.38672-.16797.41797-.16797.85938-.01563.49219.16797.45313.49609-.06641.54297-.26172.01563-.71094.18359-1.15234.44141-.0625.03125-.3125.15234-.53516.25391-.23047.11328-.42578.23438-.42578.27344,0,.10547-.60547.51172-.78125.53516-.07422.00781-.3125.09766-.53516.19141-.21875.10547-.57813.25781-.80078.33594-.21875.08984-.41016.18359-.42578.22656-.01563.03906-.09375.15234-.18359.25391-.07813.09766-.15234.19922-.15234.23438,0,.02344-.13672.10938-.29688.18359-.16797.07031-.41406.23047-.55859.36719-.13672.12891-.39063.29688-.55859.375-.20313.09766-.37109.27344-.49609.49609-.10547.19141-.42578.58594-.72266.87891-.29297.29688-.60547.63281-.67969.76172-.07813.12109-.23047.23828-.33594.26563-.10938.03125-.19141.10938-.19141.18359,0,.18359-.42969.85547-.61719.95703-.08594.04297-.19922.05078-.25391.01172-.11328-.06641-.35938-1.16797-.28906-1.28125.01563-.03125-.01563-.27344-.08594-.52734-.06641-.26563-.09766-.5625-.07422-.67188.15234-.60938.25781-1.625.19922-1.92188-.04688-.25391-.02344-.42969.10547-.74219.08984-.23438.16797-.53906.17578-.67969.01563-.14453.07422-.32813.13672-.40234.17578-.20703.30469-.55859.25391-.6875-.02344-.0625.02734-.18359.11328-.27344.08984-.08594.18359-.23047.21484-.32813.02734-.08594.12109-.18359.20313-.20703.08594-.02344.23828-.16797.33594-.30469.10156-.14063.30859-.38281.46094-.54297s.35547-.375.44141-.48828c.17578-.20703.61719-.50391,1.16016-.78125.19922-.10547.44922-.28125.55859-.41016.11328-.12109.35156-.29688.53906-.38281.19141-.09766.51172-.28125.71875-.41016.20703-.13672.44141-.23828.51172-.23828.07813,0,.26563-.07422.40625-.16016.16797-.09766.39453-.15234.58594-.13672.17578.00781.44141-.03906.58203-.09375.1875-.07422.3125-.08984.43359-.03516.12891.05859.26563.02344.58594-.15234.27734-.15234.50391-.21484.67188-.19141.23828.02344,1.10156-.11719,1.25391-.21484.03906-.02344.28906-.05469.55078-.0625.26563-.00781.59375-.06641.72266-.12109.13672-.05469.46484-.11328.74219-.13672.28125-.02344.52734-.0625.55469-.08594.0625-.06641.125-.05859.23047.01563ZM4.03628,34.58577c.27734.14453.35938.32031.19922.47266-.08984.09375-.16797.10156-.35156.03125-.32031-.10547-.44141-.32813-.27344-.49609.15234-.15234.14453-.15234.42578-.00781Z"/>
   <path class="b"
         d="M31.77846,17.32015c-.03125.02734-.05469.08984-.05469.13672s.03906.03906.09766-.01563c.04688-.04688.07031-.11328.05469-.13672-.02344-.02344-.07422-.01563-.09766.01563Z"/>
   <path class="b"
         d="M24.28237,10.94515c0,.03906.04297.08203.08203.08203.04688,0,.07813-.04297.07813-.08203,0-.04688-.03125-.07813-.07813-.07813-.03906,0-.08203.03125-.08203.07813Z"/>
   <path class="b"
         d="M13.32534,17.6639c0,.04297.03906.08203.07813.08203.04688,0,.07813-.03906.07813-.08203,0-.04688-.03125-.07813-.07813-.07813-.03906,0-.07813.03125-.07813.07813Z"/>

</g>
</svg>
