<?xml version="1.0" encoding="UTF-8"?>
<svg xmlns="http://www.w3.org/2000/svg"
     version="1.1"
     width="54.41260798mm"
     height="17.05600721mm"
     viewBox="0.00000000 0.00000000 154.24047448 48.34769069">

<g transform="scale(3.37756093)">   <defs>
      <style type="text/css"><![CDATA[
      .b {
        stroke: #000;
        stroke-linecap: round;
        stroke-linejoin: round;
        stroke-width: .25px;
      }
    ]]></style>
   </defs>
   <path class="b"
         d="M13.77762,3.30939c-.54494.07582-1.82459.51577-2.35011.35289s-1.00372-.5958-1.05646-1.14345c-.04703-.48832.25372-.95952.65418-1.24289s.88811-.4114,1.36765-.51494c5.41213-1.1686,10.28319-.33814,15.81784-.49436,1.36294-.03847,3.46963.29519,4.83306.3083,2.36888.02276,4.48123.65689,6.82619,1.67342,1.37182.59467,2.4157,1.76356,3.44555,2.8475.77475.81545,1.51727,1.69619,1.92638,2.74396.40911,1.04777.43946,2.29803-.16441,3.24701-.33924.53311-2.1682,1.18128-2.69233,1.53424-1.20238.80972-.53823.40111-1.8106,1.03463-.33752.16805-.91212.61775-1.27624.5199s-.89094-.50782-.84475-.88202c.06284-.50906.2345-.53611.67484-.79916.78483-.46885,1.17351-1.39236,1.37775-2.28347.12502-.54548.19692-1.13361-.01418-1.65189-.2012-.49399-.60429-.88947-1.05062-1.18152-3.61872-2.36786-6.73885-4.00202-10.97198-5.05104-2.23704-.55437-5.36352-.61958-7.61221-.24568-2.61869.43542-4.44776.8624-7.07955,1.22857Z"/>
   <path class="b"
         d="M11.32552,3.65641c.32068-.12424.65597-.25876.87485-.52402s.26797-.70427.01101-.93283c-.15729-.13991-.3823-.16759-.59237-.18125-1.37591-.08946-2.74243-.03124-4.10091.20472-1.88491.32741-3.31936.29337-5.20427.62078-.66809.11605-1.91063.86646-2.13158,1.50754-.13015.37762-.01352.79083.10319,1.17282.3851,1.26038.77021,2.52077,1.15531,3.78115.14383.47074.29288.95198.58761,1.34621.52249.69888,1.43472,1.01571,2.30714,1.03337s1.72671-.22208,2.57085-.44311c4.78343-1.2525,9.68861-1.36658,14.631-1.51768,1.6376-.05007,4.04061.25989,5.63874.62078,1.72684.38995,2.62032.28396,4.35793.62268,2.68637.52366,5.65874-.01244,8.03135,1.35194.34589.1989.67402.43657,1.04981.57066.93749.3345,1.96517-.02989,2.89269-.39115.95431-.37169,2.10088-1.06355,1.91295-2.0703-.1549-.8298-1.13278-1.1893-1.9668-1.31959-3.22906-.50444-6.51775.13365-9.78597.13031-6.21692-.00635-12.23184-2.32863-18.44358-2.5826-3.09031-.12635-6.20121.26638-9.16315,1.1568-.53541.16095-1.1362.3332-1.63053.07212-1.73795-.9179,1.08801-1.97955,1.57231-2.16721,1.77412-.68742,3.54827-1.37475,5.32242-2.06214Z"/>

</g>
</svg>
