<?xml version="1.0" encoding="UTF-8"?>
<svg xmlns="http://www.w3.org/2000/svg"
     version="1.1"
     width="47.97908266mm"
     height="35.36841492mm"
     viewBox="0.00000000 0.00000000 136.00370176 100.25691478">

<g transform="scale(2.02424596)">   <defs>
      <style type="text/css"><![CDATA[
      .b {
        stroke: #000;
        stroke-linecap: round;
        stroke-linejoin: round;
        stroke-width: .25px;
      }
    ]]></style>
   </defs>
   <path class="b"
         d="M9.61884,27.77244c-2.25979.90176-5.06717-.02165-6.71608,2.69332-1.03489,1.70397-2.56341,3.14516-2.77776,5.12722,7.23147.8663,17.43112-5.10735,24.78431-8.00963,5.30932-2.09557,8.18306-3.88406,13.10861-6.76839,4.26443-2.49719,8.48407-5.21894,13.03449-6.88423-3.1769,1.53162-6.09096,3.60666-8.57747,6.10783,3.31086-.73815,6.38401-2.266,9.41943-3.78022,2.23669-1.11577,4.79165-2.70499,4.85061-5.20384.25181.29724.2513.77784-.00116,1.07453-.53452.04917-1.06904.09834-1.60357.14751.47816.52317,1.17431.84059,1.88284.8585-3.96984,8.30885-11.77926,13.24981-19.37426,18.46684-7.595,5.21702-14.79958,10.919-21.8007,17.80115,1.42892,0,3.08159-1.33143,4.49864-1.61536,2.01005-.40275,3.42424-1.28191,4.30885-3.13123.32392.3026.64784.6052.97176.9078,1.16942-1.61164,2.6211-3.01788,4.2691-4.13547,1.81125-1.22829,3.83694-2.09862,5.74656-3.16759,2.45577-1.37469,3.16248-2.56598,5.41039-4.25934,1.47106-1.10815,4.49193-2.72403,5.96299-3.83218,3.07782-2.31853,5.96667-5.2512,8.54842-8.11182s6.02781-5.74875,5.47208-9.51921c-.03272-.22198.08823-.47535.28563-.58202.20673-.11172.4574-.00172.69191.0134,1.09373.07051,3.37384-2.05431,2.87117-3.02824-.89301-1.73021,1.83231-1.55108,2.17671-4.2418-2.14703.056-2.41039-.1943-4.03781,1.20726.84253-1.90768,1.68506-3.81537,2.5276-5.72305-1.94949-.3798-3.68789,1.14413-5.21919,2.40899-2.79159,2.30588-3.55327,3.14473-6.72156,4.89745-1.51661.839-5.44064,2.67866-6.99399,3.44736-.93739.46388-1.9096.62609-2.88127.97109-2.62534.93214-5.01992,3.19696-7.40199,4.64436-5.31069,3.22691-9.80741,5.72851-15.68788,7.73756-6.5884,2.25092-5.37847,1.22726-11.02741,3.48143v.00002Z"/>
   <path class="b"
         d="M29.99085,35.31538c-.00506.84985.00083,1.74409.41905,2.48394.20729.3667.50466.67287.75638,1.01061.53201.7138.26952,2.06274.34311,2.94995.06163.743.53893,1.00766.59424,1.75116s.32093,1.52981.94132,1.94329c.17574.11712.42166.19519.58839.06557.16875-.1312.15176-.38699.23224-.58501.1303-.32059.52559-.46504.86844-.41803s1.28519.12408,1.57529.31275c.16278-1.05497-.61548-2.7936.24265-2.15872,1.71081,1.26571.8308-1.26312,1.18982-1.3978s.99288.49323,1.19075.82168c.66415-1.0442.40346-2.92443.28737-4.15648-.44172-4.68794-.78969-7.2852-1.23619-13.17424-.05774-.76155-.11284-2.49572-.50232-3.15268-.19079-.32182-1.10082-.49427-1.46232-.59065-.28728-.0766-.59109-.01167-.8812.05338-.68674.15398-1.39288.31628-1.97035.7186s-1.00175,1.10839-.86089,1.79795c.06412.31389.23874.60553.2449.92585.00865.44907-1.18864,1.05821-1.48864,1.39249-1.23144,1.37215-1.03771,1.72598-1.03724,3.56412.00049,1.94743-.0348,3.89488-.0348,5.84231v-.00004Z"/>

</g>
</svg>
