<?xml version="1.0" encoding="UTF-8"?>
<svg xmlns="http://www.w3.org/2000/svg"
     version="1.1"
     width="49.44970300mm"
     height="48.87236131mm"
     viewBox="0.00000000 0.00000000 140.17233837 138.53579137">

<g transform="scale(4.80997826)">   <defs>
      <style type="text/css"><![CDATA[
      .a {
        stroke: #000;
        stroke-linecap: round;
        stroke-linejoin: round;
        stroke-width: 0.01px;
      }
    ]]></style>
   </defs>
   <path class="a"
         d="M12.90437.23919c-.29678.20594-.39369.3513-.76922,1.15687-.09691.19988-.09691.24228-.00606.60569a3.319,3.319,0,0,1,.109.56935,1.09125,1.09125,0,0,0,.32708.60569,1.04342,1.04342,0,0,1,.23016.56935.49249.49249,0,0,0,.06057.26045,2.13333,2.13333,0,0,1,.0848.62992,3.752,3.752,0,0,0,.05451.69049,1.85055,1.85055,0,0,1-.05451.84191,4.83792,4.83792,0,0,1-.17565.67231,2.38152,2.38152,0,0,0-.12114.36948c-.03634.14536-.07874.3089-.09086.35735a.93689.93689,0,0,0-.02422.18777,1.1335,1.1335,0,0,1-.16354.32707,1.11736,1.11736,0,0,0-.17565.6602,4.95378,4.95378,0,0,1-.30285,1.45972,4.04583,4.04583,0,0,0-.14536.60569,2.431,2.431,0,0,1-.38764,1.09024c-.11509.09691-.15748.23017-.22411.636a3.77324,3.77324,0,0,1-.16354.70866,1.26248,1.26248,0,0,0-.07874.38158,1.02812,1.02812,0,0,1-.103.38159,1.408,1.408,0,0,0-.12114.527c-.01212.18171-.02423.37553-.03029.424,0,.04846.01817.33313.0424.636a1.30665,1.30665,0,0,0,.22411.7874.55326.55326,0,0,1,.15142.38158.17549.17549,0,0,0,.06057.18171.35194.35194,0,0,1,.109.18776,1.17064,1.17064,0,0,0,.28468.39976,1.116,1.116,0,0,0,.62386.36341c.46638.12114.55724.11509.60569-.03028.04846-.15748.33313-.315.86008-.48455.49061-.15748.55724-.24228.58752-.69655a.96434.96434,0,0,0-.1817-.69654,1.96366,1.96366,0,0,1-.26039-.97527,2.09991,2.09991,0,0,0-.23016-1.01757.84237.84237,0,0,1-.0848-.45426,6.134,6.134,0,0,0-.06057-1.55057,2.19,2.19,0,0,1-.02423-1.02968c.01817-.15142.04846-.41187.05451-.5754a2.40765,2.40765,0,0,1,.11509-.54513,4.08571,4.08571,0,0,0,.15749-.76922,1.78066,1.78066,0,0,1,.40581-1.0963.18663.18663,0,0,0,.08479-.15143.53868.53868,0,0,1,.09692-.24833.39231.39231,0,0,0,.06056-.3089,1.54233,1.54233,0,0,1,.109-.58752,3.84725,3.84725,0,0,0,.18171-1.2235,7.56763,7.56763,0,0,1,.07874-.87825.69432.69432,0,0,0,.04845-.27862c.00606-.11508.03029-.33919.05451-.49061a.65952.65952,0,0,0-.03028-.424,2.966,2.966,0,0,1-.1272-.62992c-.03634-.2665-.07268-.58146-.08479-.69655a3.106,3.106,0,0,1-.03029-.39369A3.6237,3.6237,0,0,0,14.22478.59049a.564.564,0,0,0-.2665-.29679A.49461.49461,0,0,1,13.73421.112C13.63121-.06971,13.25568-.0152,12.90437.23919Z"/>
   <path class="a"
         d="M1.49921.76614a1.4483,1.4483,0,0,0-.25439.38764.322.322,0,0,1-.17565.20594c-.06057.02423-.11508.07874-.11508.1272a1.28789,1.28789,0,0,1-.28467.55723A.2689.2689,0,0,0,.621,2.29854a.36413.36413,0,0,1-.11508.34524.81749.81749,0,0,0-.18167.49667,1.55867,1.55867,0,0,1-.15142.51484,2.078,2.078,0,0,0,.0848,1.811.2191.2191,0,0,1,.03634.218c-.06057.09691,0,.3513.14536.56935a.76933.76933,0,0,1,.103.35736.94868.94868,0,0,0,.09085.36947,1.25985,1.25985,0,0,1,.109.36342,2.47685,2.47685,0,0,0,.24228.61174,2.00987,2.00987,0,0,1,.212.55118c0,.07874.02422.16354.06057.18171a1.326,1.326,0,0,1,.17565.54512.68182.68182,0,0,0,.11508.218.97324.97324,0,0,1,.13325.315c0,.05451.07874.13931.17565.19382a1.11639,1.11639,0,0,1,.46638.66626.67951.67951,0,0,0,.11508.24834,1.461,1.461,0,0,1,.14537.424,1.73387,1.73387,0,0,0,.19382.50272.47518.47518,0,0,1,.11508.23017,2.47156,2.47156,0,0,0,.45427.84191.4151.4151,0,0,1,.15142.43,2.03316,2.03316,0,0,0,.47244.957,1.30891,1.30891,0,0,1,.23622.3937,1.02216,1.02216,0,0,0,.15748.315c.06663.08479.103.18776.07874.218a1.26229,1.26229,0,0,0,.23622.46638,2.05709,2.05709,0,0,1,.27256.47849.36244.36244,0,0,0,.12114.17565A.38509.38509,0,0,1,5.2,16.51407c.01818.36341.0424.45427.16354.56329a.426.426,0,0,1,.13325.24228c0,.06662.02423.12114.05452.12114s.07268.06057.09691.13325a1.96873,1.96873,0,0,0,.44215.854,1.02077,1.02077,0,0,1,.38764.55724.887.887,0,0,0,.13931.30284.711.711,0,0,1,.212.46639,1.74928,1.74928,0,0,0,.18171.49666,2.15849,2.15849,0,0,1,.18171.41187c0,.05451.09085.18171.36947.51484a.849.849,0,0,0,.745-.01817.28748.28748,0,0,0,.09691-.17565.93472.93472,0,0,1,.212-.3089c.38159-.41793.40582-.49667.41793-1.47183a2.5094,2.5094,0,0,0-.1272-1.20533,1.62571,1.62571,0,0,1-.13931-.527.50936.50936,0,0,0-.1817-.3937.71342.71342,0,0,1-.18171-.26045,3.53238,3.53238,0,0,0-.27256-.58752c-.14537-.28467-.315-.61174-.37553-.72683a1.81971,1.81971,0,0,0-.14536-.24227,1.571,1.571,0,0,1-.26045-.55724.92833.92833,0,0,0-.03634-.315,1.79534,1.79534,0,0,0-.57541-.89642,1.30364,1.30364,0,0,1-.27862-.38764.53414.53414,0,0,0-.36341-.36342.528.528,0,0,1-.33919-.321,1.50741,1.50741,0,0,0-.18171-.321,1.559,1.559,0,0,1-.17565-.46638A5.59648,5.59648,0,0,0,4.982,10.60855,1.83793,1.83793,0,0,1,4.64881,9.585a.91407.91407,0,0,0-.0606-.41187A3.12226,3.12226,0,0,1,4.07946,7.8709a7.11476,7.11476,0,0,0-.424-1.175,1.40388,1.40388,0,0,1-.12114-.79346c.01818-.38764,0-.49666-.09691-.62992a2.90954,2.90954,0,0,1-.218-.43609,2.10791,2.10791,0,0,0-.16354-.34525.80044.80044,0,0,1-.07874-.34524,1.367,1.367,0,0,0-.13325-.45427c-.109-.17565-.11508-.212-.03634-.51484A2.35159,2.35159,0,0,0,2.644,1.76557a1.23119,1.23119,0,0,1-.1272-.46032A.41027.41027,0,0,0,2.37144.97212a.40173.40173,0,0,1-.14537-.212c0-.07874-.29073-.218-.45427-.218A.69576.69576,0,0,0,1.49921.76614Z"/>
   <path class="a"
         d="M28.36161,10.35423a.90946.90946,0,0,1-.3089.05451.88217.88217,0,0,0-.3937.15748,2.77479,2.77479,0,0,1-.38764.23622,5.83764,5.83764,0,0,0-1.04179.79951c-.12114.13326-.15748.13931-.27256.07269a.50087.50087,0,0,0-.24834-.05451.444.444,0,0,1-.24227-.07269.982.982,0,0,0-.37553-.11508,4.60864,4.60864,0,0,1-.57541-.12719,1.66973,1.66973,0,0,0-1.47183.25439c-.50272.44821-.636.75711-.43.98122a2.228,2.228,0,0,0,.7026.5754.79213.79213,0,0,1,.321.26651c.05451.1817.32707.48455.4361.48455a.652.652,0,0,1,.27256.18776c.15142.15143.212.17565.315.1272.1817-.07874.37553.02423.533.28467a5.54715,5.54715,0,0,0,.39369.53907c.28468.35736.29074.38764.19383,1.10236-.03029.24833-.06663.642-.07269.87825-.01817.44821-.07268.59358-.27862.78134a.36235.36235,0,0,0-.12719.19988.94559.94559,0,0,1-.22411.321c-.12719.1272-.3089.315-.39975.41793a.57952.57952,0,0,1-.28468.18776.17424.17424,0,0,0-.15142.12114.274.274,0,0,1-.19988.15748c-.32707.07269-.67837.23622-.70866.33313a.58948.58948,0,0,1-.27256.20594,2.12234,2.12234,0,0,0-.50272.36947,1.29126,1.29126,0,0,1-.50878.321.52035.52035,0,0,0-.28468.15747.93275.93275,0,0,1-.321.24228c-.15748.09085-.45427.25439-.65415.36342a1.6774,1.6774,0,0,1-.50272.212.58489.58489,0,0,0-.29679.12114.57016.57016,0,0,1-.28468.12113,1.06234,1.06234,0,0,0-.35129.11509.5187.5187,0,0,1-.24833.09085c-.03028-.03634-.33919.16354-.51484.32707a.36036.36036,0,0,1-.18776.07269,4.72392,4.72392,0,0,0-1.15687.46032c-.0848.0424-.33919.17565-.57541.29679-.46638.24228-.79345.61175-.72683.82374.02423.06057.05452.11508.07874.12114.02423,0,.15143.01211.28468.01817a3.55784,3.55784,0,0,1,.424.06057c.15142.03028.321-.03029.94488-.3513a9.674,9.674,0,0,1,1.01755-.46639c.13932-.04239.26045-.12113.27862-.1817a.258.258,0,0,1,.16959-.14537c.40581-.109.81163-.23622.90248-.27862a3.325,3.325,0,0,1,.70866-.23622,2.41487,2.41487,0,0,0,.99333-.44821,2.60345,2.60345,0,0,1,.424-.29679,7.8961,7.8961,0,0,1,1.24166-.46638,1.89045,1.89045,0,0,0,.73895-.48455,3.452,3.452,0,0,1,.77528-.46033c.70866-.34524.72077-.35735.7874-.61174a.49467.49467,0,0,1,.30284-.37553.79437.79437,0,0,0,.30285-.27256.9618.9618,0,0,1,.6602-.55724c.23622-.06663.321-.12114.321-.20593a2.59176,2.59176,0,0,1,.527-.77529,2.15571,2.15571,0,0,0,.321-.72683,1.40859,1.40859,0,0,1,.33313-.40581,1.401,1.401,0,0,0,.33313-.41187,1.309,1.309,0,0,1,.11508-.3513,4.45224,4.45224,0,0,0,.20593-1.23561c0-.15142-.01211-1.03573-.01817-1.24167v-.9691c0-1.15082-.03028-1.32041-.24833-1.44155a.53853.53853,0,0,1-.212-.212C28.62206,10.28761,28.54937,10.27549,28.36161,10.35423Z"/>
   <path class="a"
         d="M22.58332,15.86a.20183.20183,0,0,1-.16354.02423.44747.44747,0,0,0-.25439.06663c-.09691.04845-.19382.07874-.212.06057a4.92144,4.92144,0,0,0-1.19321.006,1.46188,1.46188,0,0,1-.65415.09691.98906.98906,0,0,0-.6178.18777,1.89162,1.89162,0,0,1-1.23561.23016c-.3937-.00606-.49667.01211-.60569.109a1.33857,1.33857,0,0,1-.39976.22411,3.44742,3.44742,0,0,0-.43.18776c-.0848.0424-.17565.06663-.18777.04846a1.49731,1.49731,0,0,0-.65414.218c0,.03028-.06057.07268-.13325.09085a1.53644,1.53644,0,0,0-.34525.19988,2.59172,2.59172,0,0,1-.48455.26045,1.58394,1.58394,0,0,0-.47244.28467,2.0456,2.0456,0,0,1-.527.30285,3.548,3.548,0,0,0-.636.33313,2.48323,2.48323,0,0,1-.58146.29073.77777.77777,0,0,0-.4361.29679c-.218.29679-.321.36341-.47244.32707-.09691-.02423-.18776.01817-.315.13931a1.50338,1.50338,0,0,1-.50878.27862,1.87435,1.87435,0,0,0-.56935.321,1.2301,1.2301,0,0,1-.39369.24228.75059.75059,0,0,0-.24228.09085,2.70929,2.70929,0,0,1-.57541.23622,2.09862,2.09862,0,0,0-.7571.48465,5.38363,5.38363,0,0,1-.848.54512.89525.89525,0,0,0-.33313.29679.53444.53444,0,0,1-.28467.24227,2.78432,2.78432,0,0,0-.47244.24834,1.17989,1.17989,0,0,1-.38159.1817,3.60425,3.60425,0,0,0-1.02967.62992.90663.90663,0,0,1-.315.19382c-.103.02423-.15142.07874-.15142.16354a1.34631,1.34631,0,0,1-.3937.50272,2.29285,2.29285,0,0,0-.3937.4361c0,.03029-.06663.09085-.15143.13325a.26178.26178,0,0,0-.15142.18777c0,.20593-.13325.38764-.41187.5754-.15748.103-.28467.22411-.29073.27256-.00606.15143-.09085.35736-.15142.35736-.09086,0-.06663.27862.04845.50878a.59041.59041,0,0,0,.25439.27256c.0848.03029.30285.11508.48456.18171a1.39024,1.39024,0,0,0,.35735.103.79453.79453,0,0,1,.30285.05451,1.03449,1.03449,0,0,0,.41793.05451.52188.52188,0,0,1,.35735.09086,1.16064,1.16064,0,0,0,.62386.13931,25.83522,25.83522,0,0,0,3.79769-.11509.7535.7535,0,0,1,.33313-.07268c.11508,0,.43609-.01211.72077-.03028.854-.0424,1.169-.04846,1.42337-.0424a2.12243,2.12243,0,0,0,.8298-.109,1.93394,1.93394,0,0,1,.54512-.03634,2.3984,2.3984,0,0,0,.67838-.06057c.20593-.06057.32707-.07268.40581-.02422a.47462.47462,0,0,0,.33313,0c.17565-.04846.23016-.0424.32707.05451.09086.09085.15143.09691.3937.05451a.73869.73869,0,0,1,.3937.00606.72658.72658,0,0,0,.61175-.02423,2.76681,2.76681,0,0,1,.94488-.06663c.636.01817.76922.0424.98122.16354.28467.16354.315.212.34524.62386.03028.38159.16354.51484.57541.58146.28467.0424.33313.03635.49061-.09691a.63576.63576,0,0,1,.26045-.15142c.0848,0,.20594-.09691.69655-.56329a2.26291,2.26291,0,0,1,.46637-.33313,1.89607,1.89607,0,0,0,.424-.30285,4.571,4.571,0,0,1,.44821-.36947c.50273-.3513.65415-.65414.54513-1.0963-.03029-.11508-.07268-.28467-.09086-.37553a.29154.29154,0,0,0-.23016-.2241,6.40737,6.40737,0,0,0-1.55663-.22411c-.16959.02423-.23015,0-.38158-.14536-.13931-.14537-.212-.17565-.33919-.14537a.76308.76308,0,0,0-.24226.103,1.11414,1.11414,0,0,1-.90248-.05451c-.30285-.13326-.33313-.13326-.53907-.04846a.43663.43663,0,0,1-.3937.02423.31919.31919,0,0,0-.23622-.03029,1.14576,1.14576,0,0,1-.67231.02423.35644.35644,0,0,0-.34525.03029.44294.44294,0,0,1-.38158.03634.66282.66282,0,0,0-.40582.006.39022.39022,0,0,1-.3937-.04845.3682.3682,0,0,0-.40581-.03634,27.23105,27.23105,0,0,1-3.96727-.0424,5.11221,5.11221,0,0,0-1.02968-.14537c-.16354-.01817-.46638-.04845-.66626-.06662a3.24494,3.24494,0,0,1-.66626-.14537,4.29718,4.29718,0,0,0-.527-.15142c-.3089-.05451-.41793-.17565-.37553-.41794.06663-.37553.212-.636.41187-.71471a1.3764,1.3764,0,0,0,.60569-.636c.06057-.14537.18777-.24228.47244-.38159a4.41779,4.41779,0,0,0,.67232-.424,2.33585,2.33585,0,0,1,.46032-.3089c.103-.0424.18777-.09691.18777-.12114,0-.03027.09691-.109.20593-.1817a.6613.6613,0,0,0,.24834-.23016,1.521,1.521,0,0,1,.24227-.33919.66653.66653,0,0,1,.43-.26044.9119.9119,0,0,0,.38159-.14538.81642.81642,0,0,1,.37553-.12718,1.6822,1.6822,0,0,0,.69048-.29075,2.99335,2.99335,0,0,1,.71472-.33313.57946.57946,0,0,0,.315-.16959c.06662-.09691.16959-.12719.424-.14537a1.54179,1.54179,0,0,0,.50273-.103.46829.46829,0,0,1,.23622-.05452.64125.64125,0,0,0,.30284-.04845,4.20809,4.20809,0,0,1,1.18716-.13325,1.06,1.06,0,0,0,.46032-.11508c.07874-.05452.16959-.09086.19382-.07269a.62074.62074,0,0,0,.27256-.03027.48006.48006,0,0,1,.321-.00606.22569.22569,0,0,0,.18776,0c.07873-.0424.30285-.01817.86008.09691a.40687.40687,0,0,0,.34525-.103l.18775-.1393.27862.19987c.2665.18777.28467.18777.3937.09086.06663-.05451.103-.11508.09085-.1272a.3877.3877,0,0,1,.0303-.19382.66765.66765,0,0,1,.65414-.33919c.16354.03635.27256-.03028.642-.39369a1.73576,1.73576,0,0,1,.963-.32708.586.586,0,0,0,.27257-.006c.103-.03029.11508-.06057.06662-.15143a.15138.15138,0,0,1,.03029-.20593,1.0293,1.0293,0,0,0,.15142-.40582c.07268-.36341.03634-.41792-.29679-.533C22.759,15.79334,22.69234,15.78728,22.58332,15.86Z"/>
   <path class="a"
         d="M17.441,19.60313a.12787.12787,0,0,0,.109.109c.13326,0,.109-.17565-.01817-.19988C17.44706,19.49411,17.42283,19.51834,17.441,19.60313Z"/>
   <path class="a"
         d="M17.126,19.92415a.06514.06514,0,0,0,.06057.06057.06069.06069,0,0,0,.06057-.06057.05723.05723,0,0,0-.05368-.06057h-.00689A.06071.06071,0,0,0,17.126,19.92415Z"/>

</g>
</svg>
