<?xml version="1.0" encoding="UTF-8"?>
<svg xmlns="http://www.w3.org/2000/svg"
     version="1.1"
     width="49.66448747mm"
     height="27.30292910mm"
     viewBox="0.00000000 0.00000000 140.78122603 77.39413921">

<g transform="scale(4.30598027)">   <defs>
      <style type="text/css"><![CDATA[
      .b {
        stroke: #000;
        stroke-linecap: round;
        stroke-linejoin: round;
        stroke-width: .15px;
      }
    ]]></style>
   </defs>
   <path class="b"
         d="m30.07632.37458c-.36958.25453-.66003.60663-1.00344.8955-.60087.50544-1.34656.80411-1.99549,1.24616-1.34116.9136-2.1857,2.37087-3.11658,3.7001-.13914.19868-.2869.4009-.49469.52602-.15618.09405-.33644.13837-.51366.18115-.96008.23176-1.92224.45494-2.88631.66949-2.38224.53017-4.79106,1.00944-7.23082,1.07067-1.3656.03427-2.73489-.06271-4.09664.04526s-2.74504.43895-3.85215,1.23915c-.56418.40778-1.03927.92429-1.51013,1.437-.76345.83131-1.5269,1.66263-2.29036,2.49394-.61391.66847-1.27256,1.56849-.90517,2.3984.30266.6837,1.14268.91277,1.87807,1.04782,1.0791.19818,2.16317.36927,3.25085.51305.53913.07127,1.11966.1288,1.59796-.12999.33601-.1818.58728-.50469.94223-.64598.58429-.23257,1.23004.09186,1.85805.12495.79323.0418,1.58486-.38774,2.35843-.20732.30356.0708.58492.23332.89524.26267.25253.02388.5039-.04251.74887-.1083.69573-.18686,1.39311-.37604,2.06559-.63671.34778-.13481.68887-.28828,1.01465-.47032.15752-.08802.8127-.38949.80893-.59103-.00639-.34125.1218-.59002.50382-.68667.32931-.08331.71603-.0726.94859-.3202.27852-.29654.15075-.80901-.14432-1.08909s-.70251-.39852-1.08047-.54902c-.71505-.28473-1.36728-.71055-2.08254-.99475s-1.54341-.41618-2.24398-.0975c-.52348.23812-.92015.70201-1.4477.93095-.32476.14094-.68188.18518-1.03331.22793-.8826.10735-1.76519.21469-2.64779.32204-.08303-.29985.35352-.44515.66465-.44603,2.71931-.0077,5.42313-.37719,8.11733-.74599,1.12314-.15374,2.24628-.30748,3.36942-.46123.38534-.05275.7779-.10761,1.12855-.27587.38301-.1838.69116-.49087,1.04495-.72606,1.00114-.66553,2.33384-.73661,3.25894-1.50433.65021-.53959,1.00641-1.34912,1.54833-1.99739s1.4646-1.14873,2.2157-.76171c.30262.15593.5834.45037.918.38765.53647-.10055.48343-.86509.52973-1.40894.084-.98672.91856-1.73181,1.27981-2.65386.20167-.51475.24715-1.1104.02101-1.6149-.41698-.93018-1.58984-1.14928-2.39213-.59673Z"/>

</g>
</svg>
