<?xml version="1.0" encoding="UTF-8"?>
<svg xmlns="http://www.w3.org/2000/svg"
     version="1.1"
     width="77.79718488mm"
     height="16.87772022mm"
     viewBox="0.00000000 0.00000000 220.52745975 47.84234887">

<g transform="scale(3.60807742)">   <defs>
      <style type="text/css"><![CDATA[
      .b {
        stroke: #000;
        stroke-linecap: round;
        stroke-linejoin: round;
        stroke-width: .01px;
      }
    ]]></style>
   </defs>
   <path class="b"
         d="M18.47877.06486c-.20313.03125-.53906.11328-.76172.17578-.21484.06641-.79297.20313-1.28125.29688-.48047.10547-1.04688.23047-1.25391.29688-.20703.0625-.41016.11328-.45703.11328-.17578,0-1.55859.63672-1.625.74219-.03125.0625-.3125.27344-.62891.46484-.3125.19141-.71484.46484-.88281.60547-.16797.13672-.48047.3125-.6875.38672-.51172.18359-2.71094,1.22266-3.0625,1.44531-.15234.09766-.42578.21875-.60156.27344s-.67969.27344-1.12109.48828c-.44531.21484-.85547.39062-.91016.39062-.0625,0-.76953.34375-1.57422.76172-.80078.41406-1.53906.75781-1.625.75781-.21875,0-1.19141.48828-1.50391.75391-.32031.27344-.47266.64063-.36719.87109.0625.13672.05469.24219-.02734.38672-.15234.26953-.13281.50391.04297.71875.125.16016.25391.19922.89453.24609.84766.07422,1.02344.09766,1.46484.21875.17578.03906.34375.0625.38281.03906.05469-.03125,1.03125-.11328,1.47266-.11328.08594,0,.47266.13672.84766.3125.42578.20703.89453.35938,1.27344.41797.32813.04688.67188.11719.77344.16016.10547.03906.27344.07031.37891.07031.10938,0,.46875.11328.8125.24609.71484.28906.78516.30469,1.70703.38672.375.03125.82422.11719,1,.19922.60547.27344,2.53516.41406,3.67969.28125.39844-.05078,1.15234-.10547,1.67969-.11328.52734-.01563,1.07031-.04688,1.19922-.08203.13672-.02344,1.21484-.0625,2.41797-.07813,1.30859-.01563,2.23828-.0625,2.33594-.11328.08594-.04688.23828-.07813.34375-.07031.10156.00781.42969-.01563.72656-.04688.30469-.03516,1.05469-.07422,1.67969-.08203,1.14453-.02344,1.69531-.11328,2.81641-.45703.3125-.08594.88672-.19141,1.28125-.22266.39844-.03125.78906-.10547.87891-.14453.21484-.11328.85547-.19141,1.52734-.19141.30469,0,.61719-.02344.69531-.03906.15234-.05078.48047-.625.40234-.70313-.02344-.02734-.07422-.36328-.09766-.74609l-.04688-.70313-.28906-.15234c-.27344-.15234-.30469-.15234-.83984-.02344-.30469.07813-.65625.13672-.79297.13672-.125,0-.4375.05469-.67969.11719-.23828.06641-.61328.12109-.83984.12109-.21484,0-.54297.03906-.71875.08203-.17578.03906-.66406.09375-1.08203.11719-.41406.02344-.83984.06641-.94141.08984-.30469.0625-2.16016.19922-3.37109.23828-.62891.02344-1.22266.07422-1.31641.10547-.08984.03125-.47266.04688-.85156.03125-.375-.00781-.83203-.02344-1.01563-.02344-.60547,0-.71875-.39063-.19922-.69531.27344-.16016.81641-.85547.92188-1.17578.03906-.13672.25391-.625.48047-1.08203l.40625-.82422.01563-1.01562c.00781-.55078.02344-1.04688.03906-1.08594.02734-.11328-.08594-.82422-.18359-1.16016-.17578-.57813-.73438-1.89063-.89453-2.08984-.09766-.12109-.29688-.24609-.44922-.29688-.3125-.09375-1.0625-.10156-1.59766-.01563ZM13.78736,4.35392c.32813.03906,1.72266.82422,1.88281,1.05469.26172.39453.72656.79297.94141.83984.16016.03516.30469.16016.48047.44141.41016.625.45703.80859.28125,1.04688-.19922.27344-.78516.66406-1.60156,1.06641l-.66406.32031-.89453-.05078c-2.12109-.11719-2.55078-.16016-2.84766-.27734-.11328-.05078-.51172-.15234-.88672-.25-1.3125-.3125-1.80078-.45703-2.08203-.59766-.55859-.28906-.50391-.42578.35156-.83203.35156-.17969.83984-.48047,1.07422-.68359.23828-.20703.47266-.36719.52734-.36719s.19141-.10156.3125-.23047c.10938-.12891.42969-.34375.71094-.48047.28125-.13672.63281-.35938.79297-.51172.51953-.48047.80078-.625,1.10938-.56641.15234.03125.38672.0625.51172.07813Z"/>
   <path class="b"
         d="M38.16627.91251c-.33594.14453-.51953.57813-.45703,1.07422.12891,1,.12109,1.23047-.07813,1.59766-.16797.30469-.32031.42578-.9375.77734-1.07422.60938-1.10547.61719-2.17578.61719-1.19922,0-1.33594-.04297-1.52734-.39453-.12891-.23828-.18359-.27734-.43359-.26953-.24609,0-.3125.04688-.54297.40625-.25.38672-.25781.44922-.27344,1.21484-.01563.88281.08203,1.20313.43359,1.42578.27734.18359,1.42969.25,4.46484.26563,1.51953.00781,3.08594.04688,3.47656.07813.40234.03906,1.24219.08203,1.88281.09766.64063.00781,1.32031.05469,1.51953.09375.39844.08984,1.28906.19922,1.375.18359.08203-.01563,1.23047.21094,1.54297.30469.13672.03906.47266.09766.76172.12109.75.07031,1.60938.19141,1.69531.24609.17578.11328,1.19922.35547,2.11328.50391.23047.04297.73438.21875,1.11719.39453.73047.32031,1.81641.61328,1.96094.52734.03906-.02344.17578.02344.29688.10547.12109.07813.3125.18359.42578.23047.10938.04688.32813.19922.47656.32813.45703.39844,2.09766,1.0625,2.625,1.0625.16797,0,.34375.09766.58594.32031.50391.47266.94922.71094,1.42969.76953.37891.03906.46484.01563.66406-.14453.44141-.35156.52734-.46484.52734-.71094,0-.28125-.11719-.41016-1.08594-1.16016-.55078-.43359-1.87109-1.23438-2.03125-1.23438-.02344,0-.25-.13281-.48828-.30078-.60156-.41797-1.6875-.875-2.35156-.97656-.79297-.12891-1.23438-.28906-2.27344-.81641-.49609-.25781-.95313-.46484-1.00781-.46484-.04688,0-.18359-.07031-.28906-.16797-.10156-.09766-.58203-.36719-1.07031-.60938-.48047-.23828-.98438-.51953-1.12109-.62109-.22266-.16797-.54297-.35547-1.46484-.83984-.20703-.11328-.63672-.37891-.95703-.58594s-.61719-.375-.65625-.375c-.24219,0-1.44141-.70313-1.73047-1.00781-.20703-.22656-.39063-.35156-.51172-.35156-.23047,0-1.12891-.28125-1.55859-.48828-.17578-.08203-.46484-.18359-.64844-.23438-.17578-.03906-.60938-.23047-.96094-.41406-.34375-.18359-.80859-.40234-1.03125-.48828-.48828-.19141-1.35938-.23438-1.71094-.08984Z"/>
   <path class="b"
         d="M55.82252,13.24064c.05469.02344.125.01563.15234-.00781.03125-.02344-.01953-.04688-.10547-.03906-.08984,0-.11328.02344-.04688.04688Z"/>

</g>
</svg>
