<?xml version="1.0" encoding="UTF-8"?>
<svg xmlns="http://www.w3.org/2000/svg"
     version="1.1"
     width="40.00863440mm"
     height="34.67132005mm"
     viewBox="0.00000000 0.00000000 113.41024319 98.28092808">

<g transform="scale(4.99959192)">   <defs>
      <style type="text/css"><![CDATA[
      .b {
        stroke: #000;
        stroke-linecap: round;
        stroke-linejoin: round;
        stroke-width: .01px;
      }
    ]]></style>
   </defs>
   <path class="b"
         d="M19.5257,5.09976c-1.54743.85655-1.31402-.95468-1.00106-1.93499C19.04428,1.537,19.43324-.03868,17.17462.00592c-2.52599.04988-2.38772,1.56213-1.86048,3.4895.62664,2.29074-.41569,3.87116-2.34141,5.03666-1.79002,1.08337-3.7012,1.46251-5.68718,2.02702-1.59946.45465-2.88545,1.23698-4.22248,2.16494-1.00908.70035-4.43744,3.2167-2.44844,4.32688,1.12419.62748,3.5569.95494,4.76746.48998,1.22432-.47025,1.30409-1.53185,1.59197-2.62283-.42259-.19738-.9621-.19309-1.27039-.51195,1.08475-1.24879,3.95452-1.57242,5.49608-2.15499,1.59368-.60226,3.3022-1.14124,4.80213-1.93761,1.21032-.64262,7.21036-3.75366,6.63874-5.31173-.69169-1.88532-2.3777.29305-3.11492.09797Z"/>
   <path class="b"
         d="M14.9215,16.56129c.05877-.99256.43942-2.00237.77395-2.93816-1.25535-.93758-3.75502,1.17959-4.76667,1.85832-.75984.50979-3.17523,1.72456-3.05984,2.84282.14611,1.4159,3.95937,1.46952,5.01436,1.20239,1.79575-.45469,1.98218-1.9385,2.0382-2.96537Z"/>

</g>
</svg>
