<?xml version="1.0" encoding="UTF-8"?>
<svg xmlns="http://www.w3.org/2000/svg"
     version="1.1"
     width="16.38785832mm"
     height="46.93797734mm"
     viewBox="0.00000000 0.00000000 46.45381987 133.05247935">

<g transform="scale(5.57207354)">   <defs>
      <style type="text/css"><![CDATA[
      .a {
        stroke: #000;
        stroke-linecap: round;
        stroke-linejoin: round;
        stroke-width: 0.01px;
      }
    ]]></style>
   </defs>
   <path class="a"
         d="M4.69856.05162A1.75365,1.75365,0,0,0,3.60832.81479c-.01817.07269-.06057.1272-.0848.1272a1.48014,1.48014,0,0,0-.28467.32707,1.88407,1.88407,0,0,1-.39976.43c-.09691.05451-.16959.13931-.16959.18777a2.32,2.32,0,0,1-.424.81162,1.209,1.209,0,0,0-.32707.69655.88242.88242,0,0,1-.06057.25439c-.04845.05451.12114.33918.315.52089.20594.19988.33919.18776.59358-.05451.19988-.18171.35736-.11508.49061.20593.0848.19988.07874.26651-.00606.67232a5.26592,5.26592,0,0,1-.218.72077,1.40815,1.40815,0,0,0-.12113.37553.57461.57461,0,0,1-.12114.26045.54091.54091,0,0,0-.12114.2665,3.22055,3.22055,0,0,1-.109.50273,1.91178,1.91178,0,0,0-.08479.54512c.006.08479.02423.24833.03028.36341a1.43715,1.43715,0,0,0,.13931.45427,4.70125,4.70125,0,0,1,.23622.60569,1.50387,1.50387,0,0,0,.25439.51484,4.98358,4.98358,0,0,1,.78134.91459,3.10958,3.10958,0,0,0,.24834.39976.94347.94347,0,0,1,.17565.3937c.04845.35736.09085.50272.1817.59963a2.12009,2.12009,0,0,1,.212.54512,3.84232,3.84232,0,0,0,.26651.69049,2.24333,2.24333,0,0,1,.18171.4361c.01817.109.06057.19988.08479.19988.09691,0,.24834.36947.24834.59963a.85512.85512,0,0,0,.08479.38764,1.09429,1.09429,0,0,1,.12114.37553,6.00951,6.00951,0,0,0,.24833.99939,1.82016,1.82016,0,0,1,.06663.60569,5.62789,5.62789,0,0,0,.01817.75712,1.81057,1.81057,0,0,1-.03028.69654,5.5161,5.5161,0,0,1-1.09025,1.90793.96684.96684,0,0,0-.24833.30284c-.05451.11508-.12114.212-.15142.212a.955.955,0,0,0-.23017.1817,1.53677,1.53677,0,0,1-.44215.28468,3.376,3.376,0,0,0-1.0115.67837.74773.74773,0,0,1-.34525.22411,1.82156,1.82156,0,0,0-.49061.27861,1.18692,1.18692,0,0,1-.36345.206,1.43162,1.43162,0,0,0-.32708.12114.73965.73965,0,0,1-.29678.08479c-.33919,0-.77529.14537-.83586.28468-.03634.07874-.09085.13931-.12719.13931-.15748,0,.02422.69654.20593.76317a1.03687,1.03687,0,0,0,.4361-.12114,2.05886,2.05886,0,0,1,.43-.15748,1.30178,1.30178,0,0,0,.33919-.13325,3.11746,3.11746,0,0,1,.43609-.17565,6.205,6.205,0,0,0,1.272-.41793,2.48867,2.48867,0,0,1,.47849-.18171.24713.24713,0,0,0,.1696-.11508,1.18219,1.18219,0,0,1,.321-.23622A2.90379,2.90379,0,0,0,4.741,21.8565a5.81834,5.81834,0,0,1,.61175-.55118,2.43415,2.43415,0,0,0,.745-.75106,1.85626,1.85626,0,0,1,.18171-.27862.24152.24152,0,0,0,.08479-.13325,1.74,1.74,0,0,1,.24834-.36341,4.472,4.472,0,0,0,.43-.68443,2.69411,2.69411,0,0,1,.23016-.40582.86644.86644,0,0,0,.12114-.26044.47637.47637,0,0,1,.15748-.26651.12933.12933,0,0,0,.08479-.109.27593.27593,0,0,1,.07874-.16354.80368.80368,0,0,0,.15748-.3089c.0424-.12114.103-.22411.13326-.22411s.103-.103.16353-.2241a.64655.64655,0,0,0,.06663-.47244,3.45449,3.45449,0,0,1-.01817-.636,5.84572,5.84572,0,0,0,.02423-.59357.94621.94621,0,0,1,.06057-.321c.05451-.09085.03634-.18171-.07874-.40581a1.37295,1.37295,0,0,1-.12114-.86008c.00605-.315.01817-.69655.02422-.848a2.08507,2.08507,0,0,0-.23621-1.02362.77642.77642,0,0,1-.103-.24833,1.737,1.737,0,0,0-.3089-.59358c-.04846-.0424-.07269-.103-.05452-.13325a.80422.80422,0,0,0-.103-.34525,1.76429,1.76429,0,0,0-.38159-.58146.5696.5696,0,0,1-.15142-.26045c0-.04239-.03029-.08479-.06663-.08479-.09085,0-.315-.533-.27256-.64809a1.20559,1.20559,0,0,0-.23622-.69655A.95116.95116,0,0,1,6.031,8.04673a1.37361,1.37361,0,0,0-.27861-.46032A.566.566,0,0,1,5.57673,7.326c0-.09691-.05452-.17565-.34525-.48455a.8201.8201,0,0,0-.25439-.20594c-.03634,0-.09085-.11508-.12719-.25439-.0848-.3089-.01212-.62386.29678-1.22955.11509-.23622.218-.45427.23017-.48455.00605-.03634.0424-.18171.08479-.33313a3.91027,3.91027,0,0,1,.24228-.636,1.65416,1.65416,0,0,0,.18171-.54512c0-.103-.00606-.3089-.01212-.46638a1.51241,1.51241,0,0,1,.12114-.55724A1.92412,1.92412,0,0,0,5.91.57252.80293.80293,0,0,1,5.81909.28784.29222.29222,0,0,0,5.72824.094,2.04007,2.04007,0,0,0,4.69856.05162Z"/>

</g>
</svg>
