<?xml version="1.0" encoding="UTF-8"?>
<svg xmlns="http://www.w3.org/2000/svg"
     version="1.1"
     width="39.63291507mm"
     height="19.76443678mm"
     viewBox="0.00000000 0.00000000 112.34533011 56.02512710">

<g transform="scale(4.99959192)">   <defs>
      <style type="text/css"><![CDATA[
      .b {
        stroke: #000;
        stroke-linecap: round;
        stroke-linejoin: round;
        stroke-width: .01px;
      }
    ]]></style>
   </defs>
   <path class="b"
         d="M6.84294,4.77776c-.2865.06472-.56666.1346-.8347.21864C5.5339,4.54675,6.51107.02201,5.89545.00532c-.99326-.02693-1.99981,1.64648-2.72588,2.26239-.79356.67318-2.02482,1.13663-2.72343,1.86409-1.02751,1.06994-.0805,4.80936,1.00876,5.85057,4.12309,3.94122,9.27646-2.85313,13.09721-3.84166.72703-.1881,2.36585-.51767,2.94395.19086.56012.6865-.24189,1.69626-.40355,2.36281,1.05496-.28777,2.34109.00532,3.43568-.39883,1.67096-.61697,1.92876-2.12155,1.93746-3.75814.01111-2.08932-.34305-3.65222-2.74878-3.56824-1.97931.0691-3.80041.83022-5.60376,1.57662-1.6549.68495-3.29694,1.06042-4.96787,1.65982-.7405.26562-1.54363.40076-2.30229.57214h.00001-.00002Z"/>

</g>
</svg>
