<?xml version="1.0" encoding="UTF-8"?>
<svg xmlns="http://www.w3.org/2000/svg"
     version="1.1"
     width="31.74247687mm"
     height="56.02417221mm"
     viewBox="0.00000000 0.00000000 89.97860286 158.80863919">

<g transform="scale(5.29745843)">   <defs>
      <style type="text/css"><![CDATA[
      .a {
        stroke: #000;
        stroke-linecap: round;
        stroke-linejoin: round;
        stroke-width: 0.01px;
      }
    ]]></style>
   </defs>
   <path class="a"
         d="M9.95062.09455a.70215.70215,0,0,1-.22411.0666A.75115.75115,0,0,0,9.49029.252a.93475.93475,0,0,1-.29073.103c-.04845,0-.09085.02422-.09085.06057,0,.09085-.315.2241-.51484.212A1.17494,1.17494,0,0,0,8.10932.779a3.25553,3.25553,0,0,1-.57541.24228A3.31048,3.31048,0,0,0,7.0433,1.209a.93773.93773,0,0,1-.321.11508,3.53964,3.53964,0,0,0-1.00545.49667.8991.8991,0,0,1-.33313.212,1.06811,1.06811,0,0,0-.49667.38764.71582.71582,0,0,1-.3089.27862.87188.87188,0,0,0-.33924.24831,3.20632,3.20632,0,0,1-.2665.27862,3.32543,3.32543,0,0,0-.55118.54512c-.05451.07874-.14537.212-.20594.29074a3.183,3.183,0,0,0-.29678.86613c0,.03029.01211.18171.03028.32708a.76844.76844,0,0,1-.01817.36947,1.8041,1.8041,0,0,0-.01211.89642c.04239.20594.03634.27862-.03029.34524a.45436.45436,0,0,0,.05451.48456c.03029.03028.103.12719.1696.20593a.51635.51635,0,0,1,.12114.24834c0,.109.34524.44821.55723.55117a1.22217,1.22217,0,0,1,.33921.3937c.16353.26045.23016.32708.36341.32708.15143,0,.61781.27256.61781.36341a1.48565,1.48565,0,0,0,.23016.28468,1.27963,1.27963,0,0,0,.69654.44215.5562.5562,0,0,1,.24228.12114,1.01574,1.01574,0,0,0,.35736.16354,1.73509,1.73509,0,0,1,.44215.16353,1.51187,1.51187,0,0,0,.51484.13931,3.8708,3.8708,0,0,1,.95094.1272,4.39115,4.39115,0,0,0,1.43548,0,1.59148,1.59148,0,0,1,.33919-.07874c.0848-.01212.27256-.04846.424-.0848a2.51678,2.51678,0,0,1,.47244-.06663,1.91805,1.91805,0,0,0,.60569-.19382,1.18011,1.18011,0,0,1,1.08419-.09085.72782.72782,0,0,0,.83585-.05451.75406.75406,0,0,1,.23017-.1696,2.02007,2.02007,0,0,0,.76922-.52089.65265.65265,0,0,1,.26651-.218.54228.54228,0,0,0,.2665-.26045.91157.91157,0,0,1,.27862-.30284,1.85443,1.85443,0,0,0,.58752-.81769,1.60192,1.60192,0,0,1,.20594-.424,1.081,1.081,0,0,0,.16959-.50878,1.33105,1.33105,0,0,1,.0848-.40581.9049.9049,0,0,0,.06662-.3513,1.15534,1.15534,0,0,1,.06663-.33919c.06662-.12114.06662-.09691.08479-.90854.00606-.3937.03635-.58146.09086-.59963.103-.03029.09085-.23622-.02423-.30285a.29279.29279,0,0,1-.11508-.20593.918.918,0,0,0-.11508-.3089.87026.87026,0,0,1-.1272-.29074.36717.36717,0,0,0-.13325-.19987,7.37989,7.37989,0,0,1-.91459-.9146c-.18171-.218-.58147-.424-.68443-.35735a.70339.70339,0,0,1-.29679-.103.62633.62633,0,0,0-.41187-.09086,3.18862,3.18862,0,0,1-.315.06057,1.59841,1.59841,0,0,0-.212.0424.83669.83669,0,0,1-.25439-.01817c-.212-.04845-.25439-.12719-.28468-.56935a1.49463,1.49463,0,0,0-.09085-.4361c-.03634-.07268-.05451-.13325-.03634-.13325.12114,0-.212-.218-.60569-.3937-.4361-.19988-.46639-.20593-.79346-.13931a.90823.90823,0,0,1-.62386-.03634A1.26808,1.26808,0,0,0,9.95062.09455Zm1.24167,1.62931a.30114.30114,0,0,1,.09691.13931c0,.103-.24834.36341-.47244.49666a1.49161,1.49161,0,0,0-.315.26045c-.04846.06057-.16354.19382-.25439.29073a.89262.89262,0,0,0-.19988.29073.51784.51784,0,0,1-.22411.218c-.24227.1272-.533.38765-.533.48456a.54653.54653,0,0,1-.15143.24833c-.43609.49667-.5754.75106-.5754,1.06,0,.12719.3937.24833.53906.17565a.71739.71739,0,0,1,.636.109.78331.78331,0,0,0,.34524.1272,2.45769,2.45769,0,0,0,.97516-.45427.60772.60772,0,0,1,.27862-.15142,2.885,2.885,0,0,0,.7874-.67838,4.61981,4.61981,0,0,1,.72688-.64806,2.08914,2.08914,0,0,1,.56329-.09085c.33313-.01211.44821-.0424.53907-.14537l.12113-.12719.36342.16354a1.26731,1.26731,0,0,1,.50272.33918.992.992,0,0,0,.218.24228,1.466,1.466,0,0,1,.49667.56329c0,.06057.01211.22411.02423.36947a1.36633,1.36633,0,0,1-.0424.45427,5.531,5.531,0,0,0-.07874.848,5.24694,5.24694,0,0,1-.09086.87825c-.109.35736-.25439.67837-.315.67837a.61736.61736,0,0,0-.18776.15748,1.05476,1.05476,0,0,1-.79345.35736,1.49143,1.49143,0,0,1-.84192-.25439,2.43925,2.43925,0,0,0-.60569-.24227.27237.27237,0,0,1-.17565-.03029.1812.1812,0,0,0-.212.0424,5.35861,5.35861,0,0,1-.49667.34524,1.06279,1.06279,0,0,0-.51483.54513c-.1272.30284-.15748.321-.58147.38764a2.72177,2.72177,0,0,1-1.20532-.12114,2.07471,2.07471,0,0,0-.54512-.109A2.1998,2.1998,0,0,1,7.873,8.61062a1.07735,1.07735,0,0,1-.26651-.218.888.888,0,0,0-.24227-.15748,2.73911,2.73911,0,0,1-.86008-.848A1.04765,1.04765,0,0,0,6.14075,7.048a1.06458,1.06458,0,0,1-.33313-.27862,3.37152,3.37152,0,0,1-.109-.87219,1.3443,1.3443,0,0,0-.06057-.424c-.32707-.41793-.3513-.47244-.24228-.62992a1.01724,1.01724,0,0,0,.109-.55118A1.32745,1.32745,0,0,1,5.741,3.48647a1.09154,1.09154,0,0,1,.5754-.58752,1.61872,1.61872,0,0,0,.72077-.58752c.06663-.1272.15748-.15748,1.1811-.45427a1.3528,1.3528,0,0,1,.424-.06057,10.53683,10.53683,0,0,0,1.51422-.03634,2.542,2.542,0,0,0,.56935-.09691A.47412.47412,0,0,1,11.19229,1.72386Z"/>
   <path class="a"
         d="M15.317,10.98487c-.103.1272-.218.25439-.25439.29679-.0424.03634-.15748.13931-.25439.22411a1.13453,1.13453,0,0,1-.22411.18171,1.51791,1.51791,0,0,0-.23621.38764,1.20677,1.20677,0,0,0-.1696.75711,13.18626,13.18626,0,0,1,.00606,2.0109.37119.37119,0,0,0,.00606.24227c.05451.14537-.03029.41187-.13326.41187-.03028,0-.03634.06057-.01817.13325a2.243,2.243,0,0,1,.06663.33919.90543.90543,0,0,0,.06057.25439.28154.28154,0,0,1-.03634.19382,2.52344,2.52344,0,0,0-.0848.71472,1.75635,1.75635,0,0,0,.13325.90248,1.17614,1.17614,0,0,1,.12114.3937.45285.45285,0,0,0,.05451.26044,1.76076,1.76076,0,0,1-.01817.957.37763.37763,0,0,0,.01817.321.44537.44537,0,0,1,.01817.32707.34813.34813,0,0,0,0,.24834,1.02536,1.02536,0,0,1,.02423.39975c-.01817.15143-.01211.24834.03029.24834.11508,0,.1393.19988.03634.3513a.51644.51644,0,0,0-.06057.38158c.03634.20594.01211.26045-.17565.47244a.55843.55843,0,0,0-.20594.4361c.00606.11508.00606.33919.00606.50878,0,.62386.01211.81768.05451.81768.07268,0,.18777.24228.24833.51484a3.38555,3.38555,0,0,1,.01818,1.06,1.33736,1.33736,0,0,0,.05451.7874.75809.75809,0,0,1,.05451.3513,1.55609,1.55609,0,0,0,.16354.51484,1.29416,1.29416,0,0,1,.15142.46638c-.04846.07268.07268.30284.23622.4361a.6674.6674,0,0,0,.76317-.103,4.14968,4.14968,0,0,1,.49061-.33313.93788.93788,0,0,0,.47244-.49667c.2241-.48455.20593-.5754-.1696-.83585-.46032-.315-.5754-.49667-.58752-.90248-.01211-.18777-.01817-.36947-.02422-.39976a3.4091,3.4091,0,0,1,.03634-.424,4.46052,4.46052,0,0,0,.03634-.848,3.11115,3.11115,0,0,1,.0848-1.07813c.04845-.09085.07268-.16354.05451-.16354s.00606-.07874.05451-.16959a.26383.26383,0,0,0,.03029-.26045,1.03035,1.03035,0,0,1-.06056-.35735c-.00606-.55724-.00606-.86009.006-1.21139a.95475.95475,0,0,0-.06057-.45426.58063.58063,0,0,1-.09086-.22411,3.62985,3.62985,0,0,0-.109-.41793c-.07269-.23622-.07269-.30284-.00606-.424a4.03846,4.03846,0,0,0,.09085-1.41732,8.26659,8.26659,0,0,1,.109-1.50817,1.85481,1.85481,0,0,0,.09691-1.03573,3.66569,3.66569,0,0,1-.00606-.99939,4.4615,4.4615,0,0,0,.03634-1.278,1.35631,1.35631,0,0,1,.18171-.87219.72233.72233,0,0,0,.09085-.30285,1.36464,1.36464,0,0,0-.82979-.97516C15.523,10.76682,15.47452,10.79105,15.317,10.98487Z"/>
   <path class="a"
         d="M5.58964,11.34223a2.67152,2.67152,0,0,0-.99333.61175,3.152,3.152,0,0,0-.69654.93882.79525.79525,0,0,1-.18171.33313,1.1931,1.1931,0,0,0-.18171.27862.75188.75188,0,0,1-.13931.218c-.15748.18776-.19382.40581-.08479.49061a1.34693,1.34693,0,0,0,.27256.12113.39666.39666,0,0,0,.3937-.03028,1.90645,1.90645,0,0,0,.76922-.67837c.218-.41187.37553-.55724.64809-.58147a1.488,1.488,0,0,0,.424-.109,1.70957,1.70957,0,0,1,.47243-.1272,2.00121,2.00121,0,0,0,.5633-.19382c.23622-.13931.25439-.16959.25439-.41792,0-.24228-.02423-.28468-.20594-.40582a1.3698,1.3698,0,0,1-.315-.30284C6.377,11.17869,6.056,11.13024,5.58964,11.34223Z"/>
   <path class="a"
         d="M10.25952,11.72382a3.32531,3.32531,0,0,0-.86008.95093,2.02223,2.02223,0,0,1-.3513.46033,1.899,1.899,0,0,0-.28468.33313c-.08479.16959-.15142.636-.09085.636.03029,0,.103.11508.16959.25439a1.02012,1.02012,0,0,0,.16354.29679,1.02105,1.02105,0,0,1,.07874.35736.98564.98564,0,0,0,.15143.4724,1.4423,1.4423,0,0,1,.18171.39975.90374.90374,0,0,0,.109.27862,1.22889,1.22889,0,0,1,.27257.75712.96921.96921,0,0,0,.32707.89642c.25439.15142.315.38764.2241.89036-.09085.50878-.08479.61175.0424.82374s.1272.22411.02423.50878c-.07268.20594-.09085.32708-.04845.40582a6.9466,6.9466,0,0,1,.06662,1.62325c-.00606.03028.01212.30284.03634.60569a4.07787,4.07787,0,0,1-.03634,1.33858c-.06057.315-.06057.38764.02423.51483a.55658.55658,0,0,1,.06663.38765,4.67382,4.67382,0,0,0,.006,1.19926c.04846.32708-.01817.54513-.20593.642-.15143.08479-.30891-.05451-.30891-.26651a.73435.73435,0,0,0-.321-.55118,1.42742,1.42742,0,0,0-.86008.46033c-.0424.0848-.18171.424-.30891.75106-.25439.64809-.424.84191-.58752.67837-.06662-.07268-.07874-.14537-.04239-.315a1.22664,1.22664,0,0,0,.01817-.41793.65853.65853,0,0,1,.0909-.436c.16959-.315.212-.66021.09691-.77529-.109-.109-.09691-.109-.29073-.03028a1.82993,1.82993,0,0,0-.56935.43c-.04846.05451-.14537.16959-.218.24833a.65927.65927,0,0,0-.13325.35736,2.01818,2.01818,0,0,1-.38159.96911,1.26751,1.26751,0,0,0-.218.38158c-.06056.15142-.12719.27862-.15747.27862-.1272,0-.36948.848-.24834.848a1.22508,1.22508,0,0,1,.22411.30284.86841.86841,0,0,0,.23016.30285c.16959,0,.4361-.24834.59358-.55118.16959-.34525.321-.53907.41792-.53907.0848,0,.24834.18777.212.24834-.06663.09691.07268.24833.29073.32707a.33475.33475,0,0,0,.38764-.03634,5.0673,5.0673,0,0,0,.80557-.84191A.46505.46505,0,0,1,9.23,28.44087c.16959-.103.1817-.103.29678.01211a.25978.25978,0,0,1,.0848.23622c-.06057.24834.43.218.72683-.0424a2.92191,2.92191,0,0,0,.58752-.71471,1.68461,1.68461,0,0,1,.38159-.49667.33354.33354,0,0,0,.03634-.4361.223.223,0,0,1,.03028-.2665,3.44461,3.44461,0,0,0,.3089-.78134.49346.49346,0,0,1,.09086-.18777.71255.71255,0,0,0,.05451-.3513.66608.66608,0,0,1,.06057-.36947c.06057-.07268.05451-.11508-.01817-.23622-.05451-.07874-.0848-.15748-.06663-.17565a.95189.95189,0,0,0,.09691-.38158c0-.03634-.01817-.18171-.03634-.32708a1.00869,1.00869,0,0,1,.09086-.53906,1.45208,1.45208,0,0,0,.12113-.49061,1.00112,1.00112,0,0,1,.11509-.41187A.90154.90154,0,0,0,12.319,22.178c0-.06057.00606-.16353.00606-.23016a5.619,5.619,0,0,0-.0848-.92065.73737.73737,0,0,1,.11508-.3513.89521.89521,0,0,0,.03634-.92671c-.12113-.315-.12113-.49666-.006-.49666.03634,0,.03634-.04846,0-.11509a.18407.18407,0,0,1-.03634-.1393,2.25553,2.25553,0,0,0,.09691-.86614,2.672,2.672,0,0,1,.02422-.424,4.7476,4.7476,0,0,0,.00606-1.15081c-.01817-.36947-.03028-.7026-.03028-.745,0-.03634-.00606-.12114-.00606-.18171-.00606-.14536-.06663-1.15081-.0848-1.41731a1.14516,1.14516,0,0,0-.20593-.4785.99778.99778,0,0,1-.19382-.35736.80284.80284,0,0,0-.24834-.33313c-.34524-.33918-.36947-.38764-.46032-1.01756-.01817-.12114-.04846-.2241-.07269-.2241s-.07874-.06663-.11508-.14537C10.95607,11.427,10.61082,11.45731,10.25952,11.72382Z"/>
   <path class="a"
         d="M5.32314,13.765a2.86177,2.86177,0,0,0-.76317.69048c0,.02423-.01212.12114-.02423.22411a3.21672,3.21672,0,0,0,.07268.64809,1.4339,1.4339,0,0,1,.02423.745,1.03137,1.03137,0,0,0-.0424.32707,1.78949,1.78949,0,0,1,.06663.40581,2.92656,2.92656,0,0,0,.12114.55118c.07268.1696.06662.20594-.03634.32708a.40248.40248,0,0,0-.11509.39975.5823.5823,0,0,1-.06662.27256.46014.46014,0,0,0-.06663.212,1.351,1.351,0,0,1-.04845.33314,3.50307,3.50307,0,0,0,.103,1.85947.867.867,0,0,1,.01818.38158,2.971,2.971,0,0,0-.00606.62386,1.43453,1.43453,0,0,1,0,.47244,1.80091,1.80091,0,0,0,.13931.79951,1.21854,1.21854,0,0,1,.05451.24228,3.28454,3.28454,0,0,0-.00606,1.04785.61669.61669,0,0,1,0,.33313c-.02422.07268-.07874.24227-.11508.37552-.05451.20594-.11508.26651-.40581.424-.315.16959-.3513.212-.43.48455-.16354.54512-.27862.75712-.4785.88431a.59976.59976,0,0,0-.30284.4785.94115.94115,0,0,1-.51484.424c-.09691,0-.29679-.14537-.29679-.22411,0-.01817.109-.25439.24228-.52089a3.35026,3.35026,0,0,0,.2665-.64809c.01211-.0848.05451-.29073.09691-.45427a3.07993,3.07993,0,0,0,.09086-1.04179.39747.39747,0,0,0-.51484-.18776,1.16461,1.16461,0,0,0-.33313.67837,2.68,2.68,0,0,1-.30285.62992,4.42857,4.42857,0,0,0-.321.61781,3.55826,3.55826,0,0,1-.24228.47849,4.075,4.075,0,0,0-.24833.47244.464.464,0,0,1-.16354.22411.19586.19586,0,0,0-.0848.1817c0,.14537-.13931.33919-.23622.33919-.03028,0-.11508.14537-.18776.315a1.3156,1.3156,0,0,1-.18776.3513.87027.87027,0,0,0-.06663.33313c-.01817.27862-.00606.30285.15748.38159a.42675.42675,0,0,0,.41187.006c.25439-.08479.28467-.109.321-.29678a1.1408,1.1408,0,0,1,.2544-.36948c.12719-.1393.29073-.315.36341-.3937.15748-.16959.218-.1817.34524-.05451.07269.07269.07269.1272.02423.29073a.60762.60762,0,0,0,.0848.68444c.11508.12113.18776.14536.3089.109a.87549.87549,0,0,0,.44215-.46638c.00606-.02423.01212-.06663.01818-.09691.006-.05452.23016-.15143.49061-.212.212-.05452.37552-.20594.56934-.533a1.03472,1.03472,0,0,1,.24834-.315.23321.23321,0,0,1,.29679.12114c.03634.103-.07874.38764-.15748.38764-.03634,0-.04846.03634-.03029.07268a.80736.80736,0,0,1-.07874.321c-.12114.28467-.09691.642.04846.72683a.81984.81984,0,0,0,.28467.06662c.14537.01212.24228-.06057.58147-.41792a1.71907,1.71907,0,0,0,.38158-.4785c-.01817-.03028.04846-.1272.15142-.22411a.63661.63661,0,0,0,.18777-.26044.49764.49764,0,0,1,.12114-.23017c.13931-.16353.13931-.15748.06057-.30284-.04846-.09085-.03635-.14537.04845-.23016a.72966.72966,0,0,0,.15748-.27256.61384.61384,0,0,1,.15142-.26651.73554.73554,0,0,0,.16354-.34524.78682.78682,0,0,1,.18776-.37553.36378.36378,0,0,0,.13326-.33919.48884.48884,0,0,0-.3937-.47244c-.22411-.07874-.33313-.218-.29679-.39975a1.274,1.274,0,0,0,.02423-.15748c.00605-.02423.06057-.05451.12113-.07874.15143-.04846.23622-.27256.29679-.7874a5.74431,5.74431,0,0,0-.103-1.87764,3.87109,3.87109,0,0,1-.03029-.72683,10.44053,10.44053,0,0,0,.0848-2.20472.53889.53889,0,0,1,.01817-.30283,4.30392,4.30392,0,0,0,.103-.88431,4.63362,4.63362,0,0,1,.03028-.854.26921.26921,0,0,0-.05451-.27861,1.12633,1.12633,0,0,1-.17565-.34525c-.07874-.212-.07269-.26044.01211-.41188a1.19535,1.19535,0,0,0,.04846-.77528,1.487,1.487,0,0,1,.01817-.4785c.0424-.28467.03634-.38158-.03029-.47849a.533.533,0,0,1-.09085-.23017,1.99789,1.99789,0,0,0-.636-.59963C5.65627,13.5954,5.49273,13.662,5.32314,13.765Z"/>

</g>
</svg>
