<?xml version="1.0" encoding="UTF-8"?>
<svg xmlns="http://www.w3.org/2000/svg"
     version="1.1"
     width="35.20616267mm"
     height="67.91666315mm"
     viewBox="0.00000000 0.00000000 99.79700719 192.51975302">

<g transform="scale(5.40924245)">   <defs>
      <style type="text/css"><![CDATA[
      .a {
        stroke: #000;
        stroke-linecap: round;
        stroke-linejoin: round;
        stroke-width: 0.01px;
      }
    ]]></style>
   </defs>
   <path class="a"
         d="M16.38114.06556C16.02984.1867,15.91476.26544,15.83.429c-.04846.09086-.11509.1696-.14537.1696-.09085,0-.40581.33313-.45427.47849a.994.994,0,0,1-.27862.321c-.12719.103-.2241.20593-.20593.218a2.36544,2.36544,0,0,1-.52695.854,1.035,1.035,0,0,0-.23017.3513,2.88568,2.88568,0,0,1-.48455.86614c-.02423,0-.08479.09086-.13931.19382a1.80379,1.80379,0,0,0-.06057.77529c.01212.315.03029.64809.03029.73894.00606.09085.0424.17565.0848.19382.15748.06057.3513.56329.41792,1.07207a1.47769,1.47769,0,0,0,.04846.27257.55024.55024,0,0,1-.0424.29678.637.637,0,0,0-.01817.43c.05451.23622.0424.27862-.1696.62992-.28467.46639-.848,1.03574-.97516.98728a2.066,2.066,0,0,1-.49061-1.03573.55374.55374,0,0,0-.03634-.29679.32778.32778,0,0,1,.00606-.29073c.06057-.1272.04845-.1696-.06663-.29073-.07268-.07874-.25439-.29074-.40581-.47244a2.02828,2.02828,0,0,0-2.14415-.854.56461.56461,0,0,1-.34524.01212.12.12,0,0,0-.16851.02016L9.02205,6.08a1.04967,1.04967,0,0,1-.3513.18777,1.80085,1.80085,0,0,0-.37553.1817,2.62054,2.62054,0,0,1-.3089.18171,5.219,5.219,0,0,0-.86614.55724,2.17189,2.17189,0,0,1-.93277.45426A1.35618,1.35618,0,0,1,5.83,7.03706c.02422-.01817-.01817-.07874-.0848-.13325a.43394.43394,0,0,1-.13931-.218A1.815,1.815,0,0,0,5.00627,5.6682c-.33313-.3089-.49061-.3937-.67838-.34524a.72061.72061,0,0,1-.17565.01211.4985.4985,0,0,0-.28467.13325,2.58716,2.58716,0,0,1-.4361.27256c-.30284.14537-.40581.27862-.59358.745a2.67078,2.67078,0,0,1-.28467.527c-.33313.41792-.49667.68443-.46638.73288a.515.515,0,0,1-.07874.27862.45441.45441,0,0,0-.03029.47244,2.86177,2.86177,0,0,1,.11508.56935,1.07111,1.07111,0,0,0,.13931.48455,1.71283,1.71283,0,0,1,.3089.84191.52844.52844,0,0,1-.424.50272c-.06662,0-.12114.02423-.12114.06057,0,.03029-.103.109-.23016.17565a1.48271,1.48271,0,0,0-.48455.51484,1.91,1.91,0,0,1-.37553.46033.21854.21854,0,0,0-.12114.15142.67917.67917,0,0,1-.18776.29073,1.867,1.867,0,0,0-.27256.35736.64379.64379,0,0,1-.20594.23016c-.17565.09691-.15142.20594.103.47244a.56072.56072,0,0,0,.55118.24228c.16959,0,.315-.02423.315-.04846,0-.03028.103-.11508.23016-.18776a2.08628,2.08628,0,0,0,.28467-.20594,3.4768,3.4768,0,0,1,.27862-.23016,1.17832,1.17832,0,0,0,.32707-.38764c.14537-.321.48456-.62386.69049-.62386.321,0,.40582.1393.45427.72683a1.07285,1.07285,0,0,0,.14537.424.519.519,0,0,1,.09691.315.446.446,0,0,0,.05451.27256A4.19417,4.19417,0,0,1,4.05538,15.317,13.25005,13.25005,0,0,0,4.26132,18.303a4.108,4.108,0,0,1,.0908,1.284c.00606.62992.01211,1.19321.01211,1.24167s0,.14536-.00605.212.00605.44821.03028.848c.06663,1.37492.06057,1.47183-.06057,1.60508-.13325.14536-.15142.3513-.07874,1.02967.03029.28468.05452.55724.04846.60569-.00606.09691-.00606.12114,0,1.07813a3.056,3.056,0,0,1-.05451.72078.34944.34944,0,0,0-.00606.23622.58945.58945,0,0,1,.00606.3089.59442.59442,0,0,0-.00606.29073.37275.37275,0,0,1-.06663.3089c-.06057.103-.09691.19988-.07874.22411.01817.01817.00606.09085-.03634.15748a.23022.23022,0,0,0,0,.24833c.04846.09085.0424.16354-.03028.30285a1.10534,1.10534,0,0,0-.09086.40581,1.1247,1.1247,0,0,1-.11508.64809.65175.65175,0,0,0-.09085.28467,2.0475,2.0475,0,0,1-.3089.83586c-.05452.05451-.26651.315-.4785.58146a1.76711,1.76711,0,0,0-.49667,1.32041,1.49828,1.49828,0,0,1-.103.3937,1.5876,1.5876,0,0,0-.07874.642c.00605.4361.02422.48455.15748.5754a.84493.84493,0,0,0,.69654.05452c.1272-.03634.24833-.15748.41187-.41793a1.47982,1.47982,0,0,1,.37553-.43.35227.35227,0,0,0,.17565-.19988.754.754,0,0,1,.35736-.321,2.10327,2.10327,0,0,0,.48455-.37553,4.20875,4.20875,0,0,1,.8298-.66626,1.02391,1.02391,0,0,0,.20593-.27256.90775.90775,0,0,1,.30286-.309,1.95484,1.95484,0,0,0,.41187-.29073c.15142-.13325.36947-.315.47849-.39975a1.30462,1.30462,0,0,0,.30285-.33313.84283.84283,0,0,1,.3513-.29074,3.02755,3.02755,0,0,0,.91459-.82374.82208.82208,0,0,1,.30891-.212l.30284-.15748.15142.1696c.0848.09085.24834.26044.35736.37552a1.04875,1.04875,0,0,1,.22411.30285.42615.42615,0,0,0,.18776.19382.78349.78349,0,0,1,.23016.24228,2.31356,2.31356,0,0,0,.87826.67231,3.34051,3.34051,0,0,1,.58146.43005c.19382.1817.321.26044.39976.23621.06662-.01817.218.05452.39975.19383a.9534.9534,0,0,0,.33313.18776.51517.51517,0,0,1,.25439.02423,4.29938,4.29938,0,0,0,.53907.09085,1.38432,1.38432,0,0,1,.45426.11508,2.87913,2.87913,0,0,0,.47244.18171.90227.90227,0,0,1,.44822.25439c.08479.13931.08479.16959-.07874.48455a1.46431,1.46431,0,0,1-.27862.41793.414.414,0,0,0-.13325.25439,1.46554,1.46554,0,0,1-.12114.36947.93109.93109,0,0,0-.09691.35736.93491.93491,0,0,1-.0848.315c-.17565.321.13931.53906.64809.44821.15142-.02423.25439-.11508.46638-.3937a2.92089,2.92089,0,0,1,.61175-.69049,2.16652,2.16652,0,0,0,.3513-.52695,2.40283,2.40283,0,0,1,.30285-.46638c.02422,0,.09085-.07874.14536-.17565a.50007.50007,0,0,1,.212-.212.62131.62131,0,0,0,.22411-.23017c.06663-.109.18171-.29073.25439-.41187a2.59164,2.59164,0,0,0,.16959-.30284,3.095,3.095,0,0,0,.27256-.76923,3.75194,3.75194,0,0,1,.29679-.89036c.109-.13326-.01817-.48456-.20593-.58147a2.395,2.395,0,0,1-.47244-.38159c-.16354-.15748-.32707-.27861-.36342-.26651-.15748.04846-.62386-.2665-.82979-.56328-.19383-.27862-.28468-.33313-.54513-.315a1.23335,1.23335,0,0,1-.642-.37553c-.12718-.11508-.24833-.19988-.27256-.1817a2.34362,2.34362,0,0,1-.52089-.17564,1.74124,1.74124,0,0,0-.71472-.18778.83741.83741,0,0,1-.43-.103,4.83806,4.83806,0,0,0-.60569-.2665c-.54512-.19382-.67837-.38159-.50878-.7026a.23921.23921,0,0,0,.00606-.23016.18448.18448,0,0,1,.02422-.22411.45685.45685,0,0,0,.09086-.20594,2.61329,2.61329,0,0,1,.218-.54512,1.7063,1.7063,0,0,0,.212-.64809.85861.85861,0,0,1,.09691-.3937.8396.8396,0,0,0,.09085-.78134.4712.4712,0,0,1,0-.321,3.13438,3.13438,0,0,0,.07874-.69049,3.33925,3.33925,0,0,1,.15143-.98122,2.83977,2.83977,0,0,0,.1393-.93882,2.46948,2.46948,0,0,0-.36946-1.41732.82319.82319,0,0,0-.58146-.43c-.14537,0-.56329.44216-.70867.75711a2.8471,2.8471,0,0,1-.56935.79952.46548.46548,0,0,0-.15141.18776,5.05159,5.05159,0,0,1-.66021.93277,5.10006,5.10006,0,0,0-.68443,1.22955,1.59794,1.59794,0,0,0,.01212,1.25984,2.66111,2.66111,0,0,1,.16354.43609c.01211.06663.03634.21805.05451.33313a.92166.92166,0,0,0,.09085.27862A3.18549,3.18549,0,0,1,10.3,25.91645a2.81539,2.81539,0,0,1-.15143,1.1811.77343.77343,0,0,1-.6602.36947,1.24159,1.24159,0,0,0-.65415.20594l-.47849.24227-.23016-.11508a.48728.48728,0,0,0-.315-.07268c-.14537.07874-.44216-.03634-.68443-.26045-.19383-.17565-.218-.23016-.18777-.38764.03029-.14537.01212-.19382-.09085-.24833a.63749.63749,0,0,1-.19382-.66626.22823.22823,0,0,0,.01817-.23017.37712.37712,0,0,1,.03028-.315.49852.49852,0,0,0,.01212-.45426,1.36153,1.36153,0,0,1-.02423-.79346,5.431,5.431,0,0,0,.05451-.642,1.92018,1.92018,0,0,1,.06057-.46638.203.203,0,0,0-.01211-.17566.3386.3386,0,0,1,.02422-.29073A2.68341,2.68341,0,0,0,6.896,21.828a1.90517,1.90517,0,0,1,.12114-.49061c.103-.315.12114-.46638.07874-.54512a8.41522,8.41522,0,0,1,.07268-2.13809A8.26875,8.26875,0,0,0,7.28367,17.043a2.91163,2.91163,0,0,1,.08479-.72077c.04846-.0848.0424-.1696-.02423-.32708-.07268-.1817-.07268-.2241.00606-.33918.05451-.09086.06663-.1696.03029-.22411a.68669.68669,0,0,1-.01817-.33313.55413.55413,0,0,0-.06057-.39976c-.0848-.13325-.0848-.15748.00605-.28467a1.792,1.792,0,0,0,.06057-1.03573,2.05588,2.05588,0,0,1-.07268-.27256c-.01211-.06663-.04846-.218-.07874-.33313a1.75222,1.75222,0,0,1-.03634-.48456,1.064,1.064,0,0,0-.03634-.36341.22576.22576,0,0,1,0-.18776c.06057-.09692-.01817-.36948-.19988-.70866a.54565.54565,0,0,1-.0848-.27256,1.05392,1.05392,0,0,0-.15142-.3937,1.985,1.985,0,0,1-.16959-.39976c0-.15748.16959-.29073.44215-.34524a1.309,1.309,0,0,1,1.16293.52089,2.61262,2.61262,0,0,0,.43609.38159,3.66257,3.66257,0,0,1,.72078,1.03573,2.93331,2.93331,0,0,0,.27861.4361.63784.63784,0,0,1,.13931.27861,2.6058,2.6058,0,0,0,.09086.30285.385.385,0,0,1,.00605.27256.87254.87254,0,0,0-.02422.33919.55005.55005,0,0,1-.05452.33313,1.18238,1.18238,0,0,0-.13325.3513,2.47822,2.47822,0,0,1-.24833.61175,1.88688,1.88688,0,0,0-.19988.50878.86309.86309,0,0,1-.15142.36947,1.38314,1.38314,0,0,0-.18777.55723c-.03028.30891-.02422.30891.19988.43a.56082.56082,0,0,0,.78111-.13756q.013-.01854.02446-.03809a3.12977,3.12977,0,0,1,.3937-.47849,1.06767,1.06767,0,0,0,.26045-.33919,2.33331,2.33331,0,0,1,.49061-.854,1.872,1.872,0,0,0,.47849-.745,2.78953,2.78953,0,0,1,.47244-.79952,3.6121,3.6121,0,0,0,.212-.33918A1.11519,1.11519,0,0,1,12.317,12.355a.13106.13106,0,0,0,.0411-.18072l-.00476-.007c-.0848-.15748.16354-.4361.39976-.46033.46032-.05451.56934-.103.69048-.30284a.70707.70707,0,0,1,.23017-.23622.98705.98705,0,0,0,.46638-.44822,2.03544,2.03544,0,0,1,.69654-.7026c.06663-.01817.109-.06057.09086-.09085s.03028-.1272.109-.22411a1.65772,1.65772,0,0,0,.20594-.33313.75047.75047,0,0,1,.23016-.2665c.08479-.05451.14536-.13931.12719-.18171a.45976.45976,0,0,1,.103-.27862,2.439,2.439,0,0,0,.22411-.40581,1.677,1.677,0,0,1,.212-.36341,7.89407,7.89407,0,0,0,.636-1.066.94769.94769,0,0,0,.13931-.37553.26572.26572,0,0,1,.03634-.18171.23718.23718,0,0,0,0-.212c-.03634-.06662-.01817-.13931.06663-.24833a.25748.25748,0,0,0,.06057-.3089,1.21027,1.21027,0,0,1-.03634-.41187,2.91455,2.91455,0,0,0-.04846-.65415,1.93366,1.93366,0,0,1-.01211-.87219.58333.58333,0,0,0-.0848-.41187.50678.50678,0,0,1-.09085-.27862c.01817-.01817-.03634-.14537-.11508-.27862a1.6867,1.6867,0,0,1-.01212-1.278,1.58828,1.58828,0,0,0,.06057-.49666A.7228.7228,0,0,1,16.77484.4532a.332.332,0,0,0-.01211-.33313C16.67793-.01924,16.64765-.02529,16.38114.06556Z"/>

</g>
</svg>
