<?xml version="1.0" encoding="UTF-8"?>
<svg xmlns="http://www.w3.org/2000/svg"
     version="1.1"
     width="23.38572199mm"
     height="17.52722562mm"
     viewBox="0.00000000 0.00000000 66.29021962 49.68342278">

<g transform="scale(3.49229315)">   <defs>
      <style type="text/css"><![CDATA[
      .b {
        stroke: #000;
        stroke-linecap: round;
        stroke-linejoin: round;
        stroke-width: .01px;
      }
    ]]></style>
   </defs>
   <path class="b"
         d="M9.60856.06721c-.17578.0625-.66406.26953-1.07813.46484-.41797.19922-.90625.38281-1.08203.41406-.17578.03125-.52734.15234-.77344.25781-.25781.10156-.51953.19141-.60156.19141-.07813,0-.50391.17578-.95313.39063-.74219.35938-.89453.47266-2.03906,1.55859-.67188.64844-1.35938,1.38672-1.52734,1.63281-.16797.25-.48828.67188-.70313.9375-.45703.54297-.65625,1.07031-.80078,2.12891-.09766.71875-.04688,1.15234.25781,2.3125.23047.84766.39844,1.13281,1.04687,1.78906.95313.94531,1.6875,1.45703,2.58203,1.77734l.79297.28125,2.83984.01563c3.51953.01563,5.48828-.05859,6.12109-.21875.25391-.07031.56641-.125.67969-.125.32813-.00781,1.22266-.35156,1.64844-.64063.21484-.15234.69531-.5625,1.07031-.92188.375-.35156.80078-.72656.94531-.83203,1.00781-.70313,1.26172-3.71875.49609-5.86328-.08984-.25391-.16016-.52734-.16016-.60938,0-.21484-.53516-1.01563-1.08203-1.59766-.39844-.44141-.61328-.58594-1.55078-1.04688-.60156-.29688-1.26172-.64063-1.48828-.75391-.85547-.44922-2.78516-1.25391-3-1.25391-.0625,0-.26172-.07422-.4375-.15234-.46484-.21094-.84375-.25-1.20313-.13672ZM9.08122,4.5633c.19922.10156.45703.19141.57031.19141.10938,0,.48438.10547.83984.23047.35156.13672,1.05469.38672,1.55859.57031,1.85547.67188,2.3125.98438,2.74219,1.89453.30469.66406.27344.99219-.22266,2.12109-.3125.71875-.46484.95313-1.09375,1.65625-.40234.4375-.80859.83203-.90625.85547-.09375.02344-.32031.00781-.48828-.03906-.17578-.04297-.6875-.13672-1.15234-.21094-2.03906-.30078-2.40625-.35938-3.20703-.46094-.75391-.10547-.92969-.16016-1.47266-.46484-1.22266-.69531-1.80078-1.43359-1.80078-2.32812,0-.50391.27344-1.38281.59375-1.92969.30469-.52734.91016-1.23828,1.15234-1.36719.12109-.0625.39063-.26172.60547-.45703.65625-.57422,1.50781-.67969,2.28125-.26172Z"/>
   <path class="b"
         d="M9.96013,7.30549c-.46094.06641-.73438.25-1.01563.66406-.18359.28906-.21484.42578-.23828,1.01563-.03125.83984.10547,1.15234.625,1.42578.64844.34375,1.26172.20703,1.93359-.44141.6875-.65625.80859-.88672.76953-1.46484-.03906-.55078-.21484-.84766-.63281-1.04688-.33594-.16016-.94531-.22266-1.44141-.15234Z"/>

</g>
</svg>
