<?xml version="1.0" encoding="UTF-8"?>
<svg xmlns="http://www.w3.org/2000/svg"
     version="1.1"
     width="28.20142824mm"
     height="38.30294425mm"
     viewBox="0.00000000 0.00000000 79.94115144 108.57528132">

<g transform="scale(6.12458075)">   <defs>
      <style type="text/css"><![CDATA[
      .b {
        stroke: #000;
        stroke-miterlimit: 10;
        stroke-width: .15px;
      }
    ]]></style>
   </defs>
   <path class="b"
         d="M6.55389.14932c.55868.17119,1.10616.37893,1.63777.62145.12756.05819.25653.11995.35842.21627.13888.13129.21468.31414.28661.4912.04446.10944.08948.22119.0976.33904.0307.44555-.27403.72398-.49596,1.05824-.29465.4438-.58287.892-.87427,1.33794-.32686.50021-.65867,1.00667-1.08585,1.42857-.39086.38603-.51256.48927-1.05712.53513-1.52834.1289-3.09078.10376-4.62876.14228-1.77921.04456.25288-2.80911.73028-3.26527.62611-.59824,1.25222-1.19648,1.87833-1.79473.10783-.10303.21604-.20638.33617-.29475.17855-.13135.38017-.22726.5804-.32235.73574-.34942,1.45764-.73164,2.2364-.49302Z"/>
   <path class="b"
         d="M8.35392,17.5866c.85487.13191,1.8258.08881,2.59963-.33309.98263-.53573-.21995-.4747.07796-1.04989.11907-.2299.43044-.14128.62946-.10925.2831.04556.35556.05685.57356-.15775.37459-.36874.07435-.52589-.02475-.88635-.07854-.28568.0027-.44379-.21288-.68201-.21554-.23817-.42146-.36952-.00619-.47264.26148-.0649.65155-.01722.85271-.23372.2132-.22946.16528-.65665-.09484-.81857-.07806-.04859-.15611-.09718-.23417-.14577-.20037-.12473-.30311-.10221-.51622-.01721-.20646.08234-.43898.01866-.6524-.04345-1.20694-.35123-2.59656-.57442-3.54592-1.46567-.19816-.18603-.39633-.37207-.59449-.5581-.19733-.18525-.39622-.3723-.55053-.59466-.22268-.32088-.29418-.67624-.22927-1.05918.02238-.13202.0463-.26813.11884-.38068.03511-.05447.08142-.10312.10237-.16444.01494-.04374.01583-.09087.01605-.1371.00213-.44115-.02995-.90903.16417-1.32045.14861-.31496.45271-.48881.56211-.821.06376-.19361.22863-.1835.36674-.30269.0922-.07957.21794-.26089.26489-.36905.03887-.08956.00183-.18446.07264-.27037.04997-.0606.12404-.09766.20043-.11593.02863-.00685.0597-.01225.08065-.03295.0798-.0798.04644-.2206.07299-.31934.03499-.13011.10843-.20188.19658-.30482.01805-.02108.03634-.04252.04781-.06779.01287-.02834.01647-.06.01731-.09112.00203-.07501-.01116-.15041-.03855-.22027-.02482-.06333-.0609-.12159-.08929-.18342-.15892-.34614.16833-.89192-.19714-1.14505-.17065-.11819-.40174-.06563-.60132-.00854-.2064.05903-.39516.15006-.60975.17717-.33213.04197-.66426.08394-.99639.12592-.25098.03172-.53853.00949-.71957.20151-.19651.20844-.34078.55385-.4812.80315-.07056.12527-.13957.2538-.17206.39386-.0443.19093-.01822.39213-.05531.5846-.05984.31052-.27658.56781-.37483.86839-.07885.24124-.0758.50139-.15578.74189-.08574.25783-.28623.42818-.35791.7031-.00835.03203-.01578.06483-.0321.09363-.02115.03732-.05565.06514-.08075.09993-.02541.03522-.04054.07663-.05536.11746-.0569.15671-.1138.31342-.1707.47015-.07999.2203-.19181.45141-.29381.66403-.20036.41763-.46222.86551-.58008,1.30911-.05678.2137-.18383.39631-.2265.60535-.06626.32463-.14404.66183-.16866.99273-.01983.2665.08843.5027.0709.77483-.00842.13074.00864.24175.03909.3458.12115.41401.31617.8015.52113,1.17841.13283.24425.26632.48954.43401.71131.19845.26245.44371.48939.72074.66692.13126.08411.27033.15778.38859.25937.29541.25375.47401.58284.80192.80744.36532.25022.80738.36409,1.2188.52363.63704.24703,1.22503.55747,1.90662.66265Z"/>
   <path class="b"
         d="M2.66122,3.21113c.80881-.0396,1.62067.04882,2.42825-.03071.3832-.03774.76859-.11295,1.15037-.06279.109.01432.22126.04103.30553.11164.05904.04948.09994.11696.13558.18525.30182.57832.27896,1.31325-.0582,1.87171-.35886.59439-.99841,1.26683-1.76289,1.13551-.5923-.10176-.87913-.73126-1.37854-.99966-.54784-.29436-1.13626-.48344-1.67921-.80136-.17323-.10143-.36142-.21247-.49877-.36102-.6227-.6735.77805-1.00839,1.18839-1.0383.05648-.00412.11298-.00751.16949-.01028Z"/>

</g>
</svg>
