<?xml version="1.0" encoding="UTF-8"?>
<svg xmlns="http://www.w3.org/2000/svg"
     version="1.1"
     width="16.49467352mm"
     height="53.13629217mm"
     viewBox="0.00000000 0.00000000 46.75655989 150.62255378">

<g transform="scale(4.26632357)">   <defs>
      <style type="text/css"><![CDATA[
      .b {
        stroke: #000;
        stroke-miterlimit: 10;
        stroke-width: .15px;
      }
    ]]></style>
   </defs>
   <path class="b"
         d="M3.32622,.80648c1.3589-.46969,1.6807-1.30079,2.9546-.14739,.5864,.5307,1.2124,.85639,1.8701,1.2836,.6455,.4195,1.1353,.88379,1.626,1.4712,.7788,.9351,1.9536,2.667,.1768,3.3843-1.1397-1.061-2.0806-2.3686-3.3985-3.2568-1.042-.7022-1.9765-.7456-3.2417-.85891-.7011-.06149-1.4028-.28519-2.0923-.32809-.4297-.02691-.7807,.0644-1.1367-.2051C.22172,1.58579,2.78572,.99299,3.32622,.80648Z"/>
   <path class="b"
         d="M9.19542,9.49839c.1645,.8389-.814,1.2559-1.3833,1.6206-.6729,.4307-1.0328,.9986-1.5894,1.4502-.2827,.2295-.438,.544-.5395,.9009-.16659,.5859,.33,2.0771-.5757,2.2285-.8614,.1441-.7481-.6196-.7554-1.2119-.0039-.3086,.0757-.4087,.1738-.6816,.1031-.2881,.0489-.6065,.1543-.8941,.58941-1.6064,1.6299-2.6836,3.0908-3.4429,.233-.1211,.56161-.29,.8267-.3354,.3491-.0601,.5142-.0078,.5977,.3657Z"/>
   <path class="b"
         d="M4.56992,20.89979c.5034,.8784,.916,1.7944,1.081,2.7964,.30471,1.8506,.1553,3.3081-.3515,5.0815-.1319,.46779-.168,.80179-.3872,1.2285-.20659,.4029-.4248,.6475-.5498,1.127-.2525,.9609-.17579,2.1489-.0713,3.1435,.1254,1.19879,1.0346,.9737,1.9824,.8555,1.2803-.1602,1.375-.2749,1.376-1.6309,0-2.1933,.0254-4.208,.5805-6.332,.4497-1.7202,1.2749-3.5151,.626-5.2749-.7095-1.9224-2.022-3.7651-2.8672-5.6675-.2495-.5625-.376-1.52341-.7715-1.9956-.456-.54781-1.0698-.3359-1.69769-.0869-.64061,.2564-1.77881,.4985-1.88431,1.2285-.0894,.6157,.4331,1.4468,.709,1.958,.6421,1.2012,1.5234,2.3501,2.2256,3.5689Z"/>

</g>
</svg>
