<?xml version="1.0" encoding="UTF-8"?>
<svg xmlns="http://www.w3.org/2000/svg"
     version="1.1"
     width="46.04438492mm"
     height="35.52588867mm"
     viewBox="0.00000000 0.00000000 130.51951306 100.70331446">

<g transform="scale(2.74024787)">   <defs>
      <style type="text/css"><![CDATA[
      .b {
        stroke: #000;
        stroke-linecap: round;
        stroke-linejoin: round;
        stroke-width: .01px;
      }
    ]]></style>
   </defs>
   <path class="b"
         d="M33.11921.1119c-.25781.11328-1.17578,1-1.17578,1.12891,0,.05469-.09766.17578-.21094.28516-.10938.10547-.26172.29688-.32813.43359-.0625.12891-.18359.3125-.26172.39844-.08203.08984-.24219.34766-.35938.57813-.11328.23047-.24219.44141-.28125.46484-.04688.02344-.07813.125-.07813.22266s-.05859.25-.12109.32813c-.06641.08984-.12109.22266-.12109.29688,0,.07813-.07031.26953-.16797.42969-.17578.28906-.17578.46484-.00781,1.10547.08984.32813.19922.44922.67188.69531.25781.13672.45703.16016,1.44141.16016,1.45313,0,1.70313.08203,2,.61719.11719.20703.21484.42188.22266.48047,0,.17578-.38281.54297-.6875.65625-.17578.05469-.48828.26953-.69531.48047-.40234.38281-.61719.75781-.77735,1.36719-.05469.19922-.12891.42188-.16797.49609-.03906.07813-.07031.18359-.07031.23828s-.08984.28125-.19141.50391c-.26563.5625-.37109.92188-.37109,1.27344,0,.16016-.05469.38281-.125.48828-.20313.30469-.09766.51172.55859,1.14453.4961.48828.63281.57422.86328.57422.15234,0,.3125.03906.35938.08984.16016.16016,2.32813-.04297,2.51953-.23438.12891-.12891.61719-.12109.86719.02344.10938.06641.30859.11328.44531.12109.13672,0,.29688.04688.34375.11328.12109.14453.6875.44531.83203.44531.3125,0,.875.40234,1.43359,1.01953.17578.19141.54297,1.19141.54297,1.46875,0,.11328.05859.27344.12109.36328.16797.21484.16797,2.00781,0,2.22266-.0625.08594-.12109.21484-.12109.28906,0,.07031-.07031.27734-.16016.46094-.08594.17578-.16016.39453-.16016.47266,0,.08203-.05469.21484-.11719.29688-.06641.08984-.12109.21484-.12109.28906,0,.07031-.23438.58984-.51953,1.16016-.51953,1.03125-.77734,1.35156-1.32031,1.67969-.15234.08594-.33594.19922-.42578.24609-.07813.05859-.26172.20703-.40625.34375-.13672.13672-.28906.25-.32813.25-.12891.00781-.66406.53516-.79297.78125-.14453.28125-.79297.86719-1.29688,1.16797-.50391.30469-.73438.48047-1.27734.94531-.24219.21484-.46484.38281-.51172.38281-.04297,0-.26563.19531-.50391.42578-.25781.24609-.68359.54297-1.04297.71875-.33594.16797-.63281.33594-.65625.37891-.03125.04688-.20703.14844-.39844.23828s-.375.19922-.39844.23828c-.08984.13672-1.01172.57813-1.36328.64844-.95703.19531-1,.22656-1,.625,0,.16016-.05469.35937-.11719.44141-.06641.08594-.12109.32813-.12109.53516s-.03125.40625-.08203.43359c-.10938.07031-.09375.30859.05078.75781.09375.28125.23047.48047.48828.69531.19922.16797.57422.51953.83984.77734l.48047.47266.51953-.01563c.375-.01563.64063-.07422.91016-.21875.21484-.10156.44922-.19141.52734-.19141.08203,0,.30469-.08594.49609-.19922.18359-.11328.43359-.19922.53906-.19922.22266,0,1.8125-.75391,1.95703-.92969.05859-.0625.21094-.17578.34375-.23047.13672-.06641.41016-.25.60938-.40234.39844-.30859.38281-.30078.87891-.4375.47266-.12891,2.09766-.90625,2.23438-1.07422.05469-.07031.15234-.125.19922-.125.05469,0,.21484-.12891.36719-.28125.15234-.15234.3125-.28125.36719-.28125.05859,0,.20313-.07813.32813-.18359.12109-.09375.33594-.23047.46484-.29688.13672-.0625.38281-.22266.55859-.35938s.41797-.3125.53906-.38281c.11719-.08203.28516-.27344.375-.44141.08594-.16016.28125-.42188.44141-.56641.15625-.15234.28516-.3125.28516-.35156,0-.05078.16797-.27344.38672-.50391.75-.84766.97266-1.12891.97266-1.22656,0-.05469.21875-.32813.48047-.59766.26563-.28125.48047-.53516.48047-.57813,0-.03906.28906-.35938.64063-.71094s.64063-.67969.64063-.72656c0-.05859.07031-.18359.16016-.28906.23828-.28125.54297-.71875.63281-.92188.03906-.08594.11719-.19141.16016-.22266.14844-.08594.42969-.71875.82422-1.83984.09375-.28125.20703-.89453.28516-1.64063.03125-.28906.10547-.59766.16016-.69531.14453-.26563.12891-1.87109-.02344-2.07031-.09766-.12109-.11328-.51172-.12109-2.09766,0-1.78516-.01563-1.96875-.16016-2.25391-.08594-.17969-.16016-.37109-.16016-.43359,0-.07422-.10156-.24219-.23047-.38281-.12109-.14453-.28906-.38672-.35938-.52344-.07422-.14844-.21484-.27734-.32813-.30859-.11328-.02734-.27344-.15234-.36719-.28125-.08984-.12891-.25-.25781-.35156-.28125-.10547-.02344-.26563-.13672-.37109-.23828-.09375-.10547-.22266-.19141-.26953-.19141-.16797,0-.35938-.28906-.35938-.54688,0-.30078-.37109-.75781-.79297-.97266-.16016-.08203-.36719-.24219-.46484-.35547-.10547-.10938-.23047-.20703-.28906-.20703-.05469,0-.19922-.10156-.32031-.22266-.35156-.36719-.29297-1.13672.15234-2.02344.10547-.21094.19141-.44922.19141-.53906,0-.09375.04297-.19141.08203-.21484.12891-.07813.09766-1.4375-.04688-1.87109-.12109-.375-.75391-1.12891-.94531-1.12891-.05469,0-.23828-.14453-.40625-.32031s-.51563-.4375-.74609-.57422c-.23828-.14453-.58984-.40234-.77734-.57031-.18359-.16016-.36719-.29297-.39844-.29297s-.28125-.11328-.53516-.24219C38.18952.00643,38.1739-.00139,35.66218.00643c-1.65625,0-2.38281.03516-2.54297.10547Z"/>
   <path class="b"
         d="M22.34186,1.47908c-.05469.06641-.17578.16797-.27344.22656-.58984.33594-.75781.45313-1.125.78906-.32031.29688-.52734.60938-.94531,1.44141-.51953,1.02344-.53516,1.08594-.53516,1.66406-.00781.36719-.04688.67969-.12109.80078-.16016.27734-.16016,1.74219,0,1.94922.17578.23438.16797,3.13672,0,3.36328-.0625.08594-.12109.23828-.12109.33594,0,.10156-.03125.20703-.07813.23047-.03906.02344-.08203.12891-.08203.23047,0,.09766-.03906.21875-.08594.26563-.08203.07813-.13672.25391-.32813,1.0625-.11328.45703-.17578,5.81641-.07422,6.04297.04297.08594.11328.32031.16797.51953.05078.19922.14453.46094.20313.59766.0625.12891.125.34375.15234.48047.14063.80859.19141,1.01563.26953,1.09766.15234.15234.12891,5.32031-.02344,5.58203-.16016.27344-.16016,1.64844,0,1.92188.0625.10938.11328.28906.12109.39063,0,.36719.29688,1.12891.63281,1.64844.10938.17578.22266.35937.24609.40625.12109.27344.60938.69141,1.03906.90625.37891.19141.60938.24609.94531.24609h.45703l.49609-.52734c.27734-.29688.50391-.57422.50391-.63281,0-.04688.08594-.17578.19922-.27734.11328-.10547.19922-.23438.19922-.28125,0-.11328.49609-.60156.60938-.60156.03906,0,.25391-.18359.47266-.40625.22266-.22266.47656-.44141.58203-.48047.11328-.03906.17578-.13672.17578-.25391,0-.10547.04688-.23438.09766-.28125.15234-.15234.23047-1.03125.30469-3.375.07813-2.49609.16016-3.48828.30859-3.75391.16016-.28906.13672-2.33594-.03125-2.58984-.10156-.16797-.11719-.55469-.10156-2.94531.02344-2.85547.01563-2.77734.39063-3.63281.44922-1.05469.625-2.20703.67969-4.55078.03125-1.14453.0625-1.55078.15234-1.67969.14453-.19922.15234-.71484.02344-.95313-.05469-.09766-.12891-.40625-.16016-.69531-.10156-.90625-.16016-1.19922-.23047-1.25-.03906-.02344-.07422-.15234-.07422-.28516,0-.12891-.14453-.54688-.32813-.91406-.24609-.49609-.46094-.80859-.88672-1.22266-.55078-.55078-.55859-.55078-1.08594-.60938-.29688-.02344-1.01172-.0625-1.58594-.08594-.87891-.03516-1.0625-.02344-1.15234.08594Z"/>
   <path class="b"
         d="M9.47858,3.35799c-.15234.08203-.32813.20313-.41016.27344-.07813.07422-.18359.12891-.23828.12891s-.32813.21484-.60156.48047c-.26953.26172-.62891.52734-.79688.59766-.16016.07422-.41016.25-.53906.40234-.125.14453-.42969.39844-.67969.55859-.26172.17578-.49609.41016-.58203.59375-.08984.16797-.28125.39844-.44141.51172-.15234.11719-.30469.29688-.32813.39063-.03125.10547-.17578.3125-.32031.46484-.13672.15234-.30469.40625-.35938.55859-.0625.15234-.19922.42578-.3125.59375-.10938.17578-.33594.55859-.49609.86328-.15234.29688-.35156.625-.4375.71875-.09766.10547-.21875.3125-.27344.46484s-.18359.36719-.28125.48047c-.09375.11328-.22266.32813-.27734.48047-.06641.15234-.19141.40625-.28906.56641-.09766.15234-.25781.53516-.35156.83984-.09766.30469-.25.69531-.32813.875-.19922.45313-.49609,1.29297-.71094,2.03906-.05859.19922-.15234.42969-.20313.51953-.18359.30469-.22266.72656-.21484,2.16016.02344,2.98438.12891,5.63281.24219,5.73438.04688.05078.09375.17578.09375.27344,0,.10156.03125.19922.07422.22266.03906.02344.08594.14453.10938.26563.06641.34375.18359.74219.36719,1.22266.09766.24219.16797.51172.16797.60938,0,.21484.44141,1.10938.64844,1.32031.08203.07813.15234.19141.15234.23047,0,.04688.16016.25781.35156.46484s.44922.58984.57813.85547c.23047.50391.85547,1.23828,1.03906,1.23828.0625,0,.18359.07422.27344.16016.08594.08984.32031.24219.51172.34375.19141.09766.50391.28125.69531.41016.36719.23828.69531.35938,1.23047.42188.17578.02734.35156.07422.39453.11328.04688.03906.27734.07422.52734.07422.24609,0,.48828.03906.54297.09375.14453.14453,1.12891.23438,2.99219.27344,1.67969.03906,2.12891-.02344,2.50391-.35938.08984-.08203.28906-.19531.44141-.25.15234-.05469.49609-.3125.75781-.55859.26563-.25781.54688-.48047.61719-.50391s.23047-.19141.34375-.375c.11328-.17969.23828-.32031.28125-.32031.10156,0,.64063-.48047.64063-.57813,0-.04688.08594-.18359.19922-.32031.18359-.21484.19922-.29688.19922-1.05469,0-.59375-.03125-.85547-.12109-.97656-.0625-.07813-.12109-.22266-.12109-.32031,0-.08594-.03125-.19141-.0625-.23828-.03906-.04297-.12109-.20313-.17578-.35156-.15234-.41016-.70312-.96094-.96094-.96094-.10938,0-.23828-.03125-.27734-.07422-.08984-.07813-.54688-.14453-1.60156-.23047-.39063-.03125-.80078-.10547-.89453-.16016-.09766-.04688-.39453-.09766-.65625-.09766-.52734,0-.6875-.0625-1.15234-.46094-.16016-.13672-.33594-.25781-.38672-.25781-.03906,0-.41406-.32813-.83203-.72656-.72656-.71484-.78906-.80078-1.44531-2.08203-.10547-.20703-.19141-.44531-.19141-.52734,0-.08594-.05859-.22266-.12109-.3125-.0625-.07813-.12109-.23047-.12109-.32813,0-.09375-.03125-.19922-.07813-.22266-.04297-.02344-.08203-.34375-.08203-.71094,0-.45703-.03906-.70703-.11719-.81641-.14453-.19141-.16797-1.47266-.02734-1.61719.05859-.05469.12109-.28906.16016-.51172.10547-.75391.15234-.97656.26563-1.22266.05469-.13672.14453-.40234.19922-.60156.04688-.19922.17578-.52734.28906-.74219.10156-.21094.19141-.44141.19141-.53125,0-.07813.05469-.19141.12109-.24609.07031-.05469.21484-.29688.32813-.52734.10156-.22656.24609-.45703.3125-.51172.0625-.05859.11719-.14453.11719-.19141,0-.11328,1.40234-1.48828,1.66406-1.63281.09766-.05859.35156-.15234.5625-.22656.375-.125.81641-.46094.81641-.62891,0-.05078.08594-.17578.19922-.28125.10938-.10547.19922-.24219.19922-.29688,0-.0625.12891-.23828.28125-.39844s.27734-.32031.27734-.35156c0-.09766.41797-.52344.60938-.61719.08594-.04688.20703-.24219.26563-.43359.05469-.19141.14063-.42188.19141-.52734.05469-.12891.05469-.22266-.00781-.35938-.05078-.09766-.10547-.375-.12891-.61719-.08984-.91797-.13672-1.11719-.33594-1.25391-.10547-.06641-.19141-.16797-.19141-.23438,0-.30078-1.14453-1.05469-1.64063-1.07031-.12891,0-.32813-.05469-.44141-.12109-.32031-.18359-2.03906-.15234-2.38281.03906Z"/>

</g>
</svg>
