<?xml version="1.0" encoding="UTF-8"?>
<svg xmlns="http://www.w3.org/2000/svg"
     version="1.1"
     width="17.57326385mm"
     height="45.15914791mm"
     viewBox="0.00000000 0.00000000 49.81395376 128.01021408">

<g transform="scale(4.33073682)">   <defs>
      <style type="text/css"><![CDATA[
      .b {
        stroke: #000;
        stroke-linecap: round;
        stroke-linejoin: round;
        stroke-width: .25px;
      }
    ]]></style>
   </defs>
   <path class="b"
         d="M.17955,6.77018c.67842,2.37449.79788,2.43739.89043,4.53697.10879,2.46783.56963,4.99484.67842,7.46267.04872,1.10525-.19874,2.23824.38162,3.18012.54737.88836,1.17342.75365,1.35685,1.78086.21201,1.18724.9438,2.4681.47396,3.39979-.28206.55931-.56442.09177-.64356.71315-.11595.91044,1.1869,1.9231,1.99287,1.48406s.3357-1.37271.29681-2.28968,1.12869-3.07052,1.06004-3.98574c-.30172-4.02255,2.58649-5.30019,4.50408-8.83008.23201-.42708.35182-1.10157-.10101-1.2781-.19336-.07538-.41008-.00963-.60628.05797-1.55376.53532-3.07017,1.17905-4.53454,1.92494.09932-1.50797-.29439-2.748-.19508-4.25598.05376-.81629.39484-1.91427.0848-2.67129s.59362-1.82326-1.95047-1.73846c.55122-1.22965.59902-2.40215,1.18724-3.51933.58346-1.10625,2.56462-.91049,3.45734-1.58237C5.32857-2.45976-.49967,4.3929.17955,6.77018Z"/>

</g>
</svg>
