<?xml version="1.0" encoding="UTF-8"?>
<svg xmlns="http://www.w3.org/2000/svg"
     version="1.1"
     width="18.06035830mm"
     height="16.97790294mm"
     viewBox="0.00000000 0.00000000 51.19472601 48.12631942">

<g transform="scale(2.96880325)">   <defs>
      <style type="text/css"><![CDATA[
      .b {
        stroke: #000;
        stroke-linecap: round;
        stroke-linejoin: round;
        stroke-width: .01px;
      }
    ]]></style>
   </defs>
   <path class="b"
         d="M15.35167.15771c-.15234.08984-.58203.28906-.95313.44141-.375.15234-.75.35156-.83984.42969-.09375.08984-.65625.41797-1.24609.73047-.59375.32031-1.30469.75-1.57031.95703-.26953.21875-.70313.50391-.95703.65625-.26563.14453-.63281.42578-.83203.63281-.20313.19922-.63281.58594-.96094.85547-.32813.26563-.81641.72266-1.08203,1-1.55859,1.6875-2.19922,2.42578-2.19922,2.51953,0,.05859-1.45703,1.55469-2.39063,2.45703-.22656.21484-.50391.54297-.625.71875-.35156.52344-1.12891,1.45703-1.34375,1.625-.18359.14453-.41406.82422-.32813.96094.01563.03125.05469.23047.08203.44141.13281.98047.52734,1.11719,3.16797,1.10937.76563,0,1.58984.03125,1.82031.07422.23438.03125.50781.03125.60156,0,.61719-.24219,1.08203-.27344,2.65625-.21875.76953.02734,1.08203.07422,1.55859.24219.32813.12109.81641.22266,1.08203.23828.26172.01563.69531.06641.96094.12109.48047.08594,1.32031.07031,1.58203-.03125.16797-.07422.69531-.84766.69531-1.03125,0-.07422.06641-.37891.15234-.67187.36719-1.33594-.16797-2.25781-1.67188-2.82422-1.29688-.49609-1.35938-.51172-3.39844-.83984-.89063-.14453-1.19922-.27344-1.28125-.51563-.0625-.21484.51172-1.27734.91406-1.67188.6875-.67969,1.32813-1.18359,1.77344-1.38281.26563-.12109.58594-.28906.71484-.38281.125-.08984.54297-.27344.93359-.41797.38281-.13281.74609-.27734.80078-.32031.05469-.03906.28906-.125.51953-.18359.23047-.05469.625-.18359.86328-.27734.24219-.09766.60938-.23438.81641-.29688.20703-.06641.625-.30469.91406-.52734.46094-.35938.55078-.47266.64453-.81641.06641-.22656.16797-.51953.23438-.67188.14453-.32031.07813-1.18359-.09766-1.54297-.0625-.12109-.10938-.28906-.10938-.37109,0-.18359-.80859-1.25391-1-1.32813-.20313-.07031-.29688-.05469-.60156.11328Z"/>

</g>
</svg>
