<?xml version="1.0" encoding="UTF-8"?>
<svg xmlns="http://www.w3.org/2000/svg"
     version="1.1"
     width="12.83683227mm"
     height="48.85650509mm"
     viewBox="0.00000000 0.00000000 36.38781520 138.49094070">

<g transform="scale(4.98973131)">   <defs>
      <style type="text/css"><![CDATA[
      .a {
        stroke: #000;
        stroke-linecap: round;
        stroke-linejoin: round;
        stroke-width: 0.01px;
      }
    ]]></style>
   </defs>
   <path class="a"
         d="M5.531.15037a2.02276,2.02276,0,0,1-.424.315A1.19846,1.19846,0,0,0,4.7739.7137a2.07388,2.07388,0,0,1-.69049.36947A4.07777,4.07777,0,0,0,2.70851,2.2824a.48767.48767,0,0,1-.3089.23016,1.14124,1.14124,0,0,0-.49061.39976,1.36328,1.36328,0,0,1-.38764.36341.69388.69388,0,0,0-.27256.26045c-.06663.109-.19988.3089-.30891.44821a1.76628,1.76628,0,0,0-.2665.48455,3.5566,3.5566,0,0,1-.212.47244,1.79613,1.79613,0,0,0-.18171.56935.73858.73858,0,0,1-.15748.41793.41969.41969,0,0,0-.11507.33313c0,.212.01817.24227.26045.34524a1.765,1.765,0,0,0,.527.1272c.26045.01211.54512-.07874.54512-.18171,0-.02423.06663-.07874.15142-.11508a1.94409,1.94409,0,0,0,.5633-.72077c.06662-.11509.06662-.18171.006-.36948a.77319.77319,0,0,1-.06057-.28467c.01212-.03634.03029-.22411.04846-.424A1.97387,1.97387,0,0,1,2.59343,3.415a3.137,3.137,0,0,0,.4785-.424,2.54956,2.54956,0,0,1,1.22349-.68443,1.52527,1.52527,0,0,0,.44821-.15748.60721.60721,0,0,1,.58752-.0848,3.029,3.029,0,0,1,.39976.12114.24965.24965,0,0,0,.24228-.03634.42956.42956,0,0,1,.2241-.0848A.67651.67651,0,0,0,6.488,1.88258a.81.81,0,0,1,.23017-.18171,1.51845,1.51845,0,0,0,.3089-.24227c.23622-.212.26045-.26651.26045-.49667-.00606-.18171-.03635-.27862-.109-.321A3.44477,3.44477,0,0,1,6.79087.28967L6.51225.005h-.424C5.72485.005,5.65213.02923,5.531.15037Z"/>
   <path class="a"
         d="M3.89567,5.38959a4.79733,4.79733,0,0,0-.86008.76317.80365.80365,0,0,0-.19383.4785,1.36387,1.36387,0,0,1-.23016.58146c-.02423,0-.06057.09086-.07874.19382-.01817.109-.07874.3513-.13325.533a5.40354,5.40354,0,0,0-.15748.636,3.34374,3.34374,0,0,1-.26045,1.04784.66946.66946,0,0,0-.05451.48456,1.77394,1.77394,0,0,1,.03029.39975.30389.30389,0,0,0,.05451.19382,1.08966,1.08966,0,0,1,.05451.69655,1.44284,1.44284,0,0,0-.0848.3937c-.06662.58146-.109.751-.21805.88431a1.56131,1.56131,0,0,0-.14536.71471,5.90925,5.90925,0,0,0,.02423,1.54451,3.65118,3.65118,0,0,1,.05451.96911c0,.06663.01211.44821.03634.848.03634.69654.0424,1.52634.02423,3.725-.00606.55117.006,1.15687.03028,1.35674a.686.686,0,0,1-.04845.48456.214.214,0,0,0-.02423.24227,30.673,30.673,0,0,1,.12114,3.36765,3.10509,3.10509,0,0,0,.01817.51483c.01817.16354.03634.34525.03634.3937.00606.07874.2241.27862.47244.424a.23.23,0,0,1,.09691.16959.35972.35972,0,0,0,.58752.23622c.0424-.0424.212-.18171.38158-.3089a2.42826,2.42826,0,0,0,.3937-.36948c.04846-.07268.13931-.20593.19988-.29073a1.00043,1.00043,0,0,0,.1272-.41187,1.03017,1.03017,0,0,1,.08479-.3937,1.38643,1.38643,0,0,0-.02422-.88431c-.103-.20593-.103-.19987.00605-.31495a.15526.15526,0,0,0,.0424-.19988.867.867,0,0,1-.01211-.41188,1.611,1.611,0,0,0-.0848-.89037,1.31,1.31,0,0,1-.03634-.55723,1.63945,1.63945,0,0,0-.00606-.51483,1.66643,1.66643,0,0,1,.04846-.81768,2.09524,2.09524,0,0,0,.06057-.49061c.00605-.23622.01211-.46034.01211-.50273a1.21529,1.21529,0,0,0,.00606-.15142,1.38135,1.38135,0,0,1,.03634-.2544c.01817-.103.0424-.56329.05451-1.02968s.03634-.91459.05451-.98727a.416.416,0,0,0-.05451-.27862c-.04845-.07874-.07874-.15142-.06057-.16959a7.05519,7.05519,0,0,0,.06057-1.9261,4.63346,4.63346,0,0,0-.12719-.70873.79173.79173,0,0,1-.05452-.38158,3.39945,3.39945,0,0,0,.09691-.96911,2.07617,2.07617,0,0,1,.07269-.58146.30285.30285,0,0,0-.01212-.26045.22761.22761,0,0,1,.00606-.2665,2.66824,2.66824,0,0,0,.109-1.10236,3.90952,3.90952,0,0,1,.0848-.78134.83288.83288,0,0,0,.02423-.49667.52641.52641,0,0,1,.109-.53906c.07269-.06663.0848-.15748.06057-.321A4.52119,4.52119,0,0,1,4.94351,7.031a1.26257,1.26257,0,0,0-.04845-.8298.2918.2918,0,0,1,.01211-.212.47786.47786,0,0,0-.34967-.5783l-.01374-.00317A.91443.91443,0,0,0,3.89567,5.38959Z"/>

</g>
</svg>
