<?xml version="1.0" encoding="UTF-8"?>
<svg xmlns="http://www.w3.org/2000/svg"
     version="1.1"
     width="46.80935743mm"
     height="34.37813503mm"
     viewBox="0.00000000 0.00000000 132.68794454 97.44983240">

<g transform="scale(2.56732576)">   <defs>
      <style type="text/css"><![CDATA[
      .b {
        stroke: #000;
        stroke-linecap: round;
        stroke-linejoin: round;
        stroke-width: .01px;
      }
    ]]></style>
   </defs>
   <path class="b"
         d="M27.10051.02104c-.08594.01563-.22266.11328-.29297.20703-.08203.08984-.17578.19922-.21875.24219-.17578.16016-.45313.44531-.53516.54297-.04688.05469-.16797.15234-.25391.21484-.09766.06641-.25.30469-.34766.51953-.55078,1.28906-.67188,1.91406-.42969,2.35938.13672.26563.10156.40234-.27344,1.28906-.23828.55859-.25391.64844-.22266,1.32031.03906.76953.07031.96875.27344,1.61719.13281.42969.13281.49609-.14453,1.70313-.05078.19922-.12109.60156-.16016.89453-.04297.30469-.11328.80859-.15234,1.12109-.05078.32031-.12109,1.0625-.16016,1.64844-.04688.59375-.12109,1.13672-.16016,1.21484-.04688.08984-.08203.90625-.08203,1.92188,0,1.58203-.01563,1.80859-.15234,2.07031-.50391.97656-.58203,1.22656-.52734,1.60156.03125.19922.08984,1.79297.12109,3.52734.16016,7.38281.22266,9.50391.28906,9.60938.03125.05469.09375.26953.12891.46875.18359.9375.23047,1.21094.31641,1.83984.14453.9375.41797,1.41016,1,1.74609.53125.30469.9375.33594,1.15234.07813.08984-.08594.15234-.21484.15234-.26953,0-.05859.05859-.16016.12891-.22656.11328-.10938.15234-.10938.43359.03516.19141.09375.46875.16016.71875.16016.38281,0,.41406-.01563.87891-.48828.26563-.26563.50391-.57031.52734-.67969.05859-.22656,0-.80078-.13281-1.35547-.05859-.26172-.11328-1.57422-.14453-3.75781-.05078-3.25-.05859-3.375-.24219-3.86328-.14453-.40234-.17578-.60938-.14453-1,.06641-.73047.16797-1.35938.25781-1.49609.03906-.06641.10547-1.08984.13672-2.28125.11719-3.77734.25391-5.70312.45313-6.39844.05859-.17578.12891-.46484.17188-.64063.03906-.17578.14063-.49609.23047-.70313.16797-.39453.23828-1.25781.10547-1.25781-.04297,0-.11328-.09375-.16797-.20703-.08203-.18359-.05859-.26563.16797-.65625.25391-.44922.26172-.48047.31641-1.73828.07422-1.71875.16016-2.30078.49609-3.23828.07422-.19922.16797-.51172.21094-.6875.04688-.18359.13281-.35156.19141-.375.0625-.02344.24609.07031.41406.23047.16797.15234.35938.27344.42578.27344.07031,0,.28906.08594.48047.19922.45313.26172,1.36719.28125,1.83984.04688.16797-.08594.49609-.18359.73438-.21484.24219-.03125.49609-.08984.57031-.12109.19922-.10156.40625.12891.30078.33594-.04688.08203-.10938.15234-.14844.15234-.04297,0-.08984.10547-.11328.23047-.03125.12891-.11328.25781-.19922.28125-.08203.03125-.21094.17578-.28125.32031-.13672.28906-.28906.49609-.59375.81641-.10156.10547-.18359.21484-.18359.25781,0,.04688-.10156.19141-.23047.32422-.28906.3125-.82422,1.27344-1,1.80859-.08203.21875-.16797.43359-.19922.48047-.15234.18359-.34375,1.32031-.34375,1.96094.00781.51172.0625,1.23828.13281,1.56641.05078.20313.39453.59375.53906.59375.05469,0,.22266.07031.36719.16016.38281.23047,1.25391.22266,1.67188-.01563.16797-.09766.35156-.22656.40625-.28125.05859-.05469.14453-.10547.19531-.10547.04688,0,.36719-.15625.71094-.35938.34375-.19922.69531-.35938.78125-.35938.08203,0,.3125-.08594.49609-.19922.19531-.11328.48047-.23828.63281-.28906.15234-.04688.42578-.15234.60156-.23047.80859-.375,1.22266-.55078,1.55859-.66406.375-.12891.69531-.25781,1.88281-.73828.98828-.40625,1.60547-.54297,1.75781-.38281.0625.06641.12109.22266.12109.35938,0,.12891.10938.48047.24609.76953.14453.29688.30469.64063.35938.77734.05859.125.17578.41406.28125.63672.09766.21875.23438.53125.29688.67969.07031.15234.18359.41016.26172.5625.07422.15234.30469.64844.50391,1.10156.34766.76953.37109.86719.37109,1.49609,0,.54688-.03125.76172-.16797,1.02734-.16797.32031-.92188,1.10938-1.54688,1.61328-.16797.12891-.39063.32812-.49609.44141-.10938.11328-.22266.22266-.25391.25391-.10547.11328-.45703.46484-.63281.64063-.10156.10547-.26172.26563-.35938.35938-.10547.09766-.23047.22656-.28906.28125-.16797.16797-.44531.44922-.63281.64063-.10156.10547-.26172.26563-.35938.35938-.10156.09766-.23047.22266-.28516.28125-.05859.05469-.19531.19141-.30469.30469-.10547.10938-.22656.22266-.25781.25391-.36719.375-.83203.78516-.88672.78516-.03125,0-.16016.07813-.27344.17578-.32031.28906-.55859.46484-.63281.46484-.03906,0-.14844.07813-.25391.18359-.25.23047-.43359.38281-.71875.56641-.13672.08984-.32813.24219-.42578.34375-.10547.09766-.23828.18359-.30469.18359-.0625,0-.18359.06641-.26172.13672-.38672.36719-1.75391,1.14453-2.00781,1.14453-.07422,0-.1875.08203-.25.16797-.0625.09766-.15234.20703-.19922.24219-.42578.36719-.60156.55078-.60156.61328,0,.05078-.04688.13672-.10156.19141-.34375.36328-.45703.70703-.45703,1.47266,0,.70313.01563.77734.19922.96094.19141.19141.23438.19922.94531.16797.74219-.03906,1.38281-.13672,1.89453-.28125.57813-.16797,1.3125-.42969,1.47266-.53516.28125-.17578,1.16797-.44922,1.32031-.39844.07813.02344.20703.18359.28906.35156.10156.23047.19922.32031.375.35938.33594.0625.70313.0625.70313-.01563,0-.03125.11328-.18359.24219-.33594.125-.15234.23828-.35938.23828-.45703,0-.15234,1.05469-2.14453,1.19922-2.26172.02344-.02734.11328-.1875.19141-.37109.12109-.27734.37891-.65625.58594-.84766.47266-.44531.76563-.70313.83203-.70313.03906,0,.18359-.09766.30469-.22266.26953-.25.35938-.32031.67969-.53125.13672-.08594.32813-.23828.42188-.34375.10547-.09375.23438-.18359.28125-.18359s.14453-.0625.21484-.14453c.07422-.07813.23438-.21484.37109-.30078.27734-.17578.4375-.30469.77344-.60938.13672-.12891.27344-.22266.32031-.22266.03906,0,.16016-.08984.27344-.20313.10938-.10938.23047-.19922.26953-.19922.04297,0,.20313-.11719.35156-.26172.33594-.32031.70703-.61719.77734-.61719.03125,0,.09766-.11328.15234-.23828.05469-.13672.12891-.24219.16797-.24219s.12891-.12109.19922-.26172c.07422-.13672.19922-.3125.28125-.38672.08594-.07031.15234-.16797.15234-.21484,0-.03906.10938-.19922.24609-.34375.25781-.28125.47266-.71094.47266-.96875,0-.08594.13672-.39844.30469-.6875.16797-.29688.35156-.67969.40625-.86328.1875-.57031-.04688-2.28125-.41406-3.08984-.13672-.29688-.22266-.66406-.26563-1.07813-.03906-.48047-.10156-.72266-.29297-1.06641-.13672-.23828-.27344-.45313-.29688-.48047-.03125-.02344-.12891-.19922-.21875-.39844-.08594-.19922-.23828-.44922-.33594-.55078-.08594-.10547-.16797-.25781-.16797-.34375,0-.08203-.03125-.14453-.07031-.14453-.03125,0-.17578-.20703-.3125-.46484-.23828-.45703-.24609-.49609-.25391-1.54297-.00781-.59375-.03516-1.41016-.05859-1.81641-.04688-.71094-.05469-.75391-.32031-1.01563-.15234-.15234-.33594-.28125-.41406-.28125-.07422,0-.28906-.09375-.48828-.20703-.50391-.29688-1.60156-.75391-1.80078-.75391-.3125,0-1.4375.48828-1.59766.6875-.04297.05859-.3125.17969-.60156.27344-.28906.09766-.69531.25781-.91406.36719-.22266.10547-.45313.19141-.51953.19141-.07031,0-.23047.06641-.36719.14453-.96875.57813-.98438.58594-1.12109.44922-.11719-.12109-.10938-.14453.00781-.33594.16797-.26563.98438-1.05469,1.08203-1.05469s.55859-.47266.74219-.76172c.16797-.26172.25781-.375.47266-.60938.07422-.07813.13672-.20703.13672-.26953,0-.06641.08984-.19922.19922-.3125.11328-.11328.32813-.41016.48047-.66406.32813-.54297.36719-.99219.14453-1.64844-.14453-.41406-.21484-.52734-.60156-.95313-.125-.13281-.22266-.28516-.22266-.34375,0-.05469-.04688-.11719-.11328-.14453-.0625-.02344-.19922-.19141-.30078-.36719-.10547-.17578-.26563-.35156-.35547-.39844-.22266-.09766-4.22266-.11328-4.55078-.00781-.67188.19922-.92578.25391-1.48047.32031-1.20703.15234-1.80078.27734-2.35156.51172-.16797.07031-.36719.12891-.44922.12891-.07813,0-.27734.125-.44531.27734s-.35938.29688-.43359.32031c-.0625.02344-.17578.12109-.23828.20703-.15234.22656-.41016.48047-.63281.63281-.08984.06641-.16797.17578-.16797.25781,0,.19141-.28906.47266-.43359.41406-.13281-.04688-.44531-.79297-.53516-1.26172-.18359-.96875-.3125-1.42578-.42969-1.50391-.04297-.03516-.1875-.06641-.3125-.06641-.23438,0-.84766-.29688-.84766-.40625,0-.03125-.07422-.08203-.15234-.11328-.08984-.02344-.18359-.12109-.21094-.20703-.03125-.10547-.11719-.15234-.28516-.15234-.13672,0-.30469-.03125-.37891-.07422-.17578-.08594-.80469-.14844-1.01563-.10156Z"/>
   <path class="b"
         d="M15.10051,3.71635c-.17578.03906-.46094.10547-.63672.16016-.17969.04688-.42578.12109-.5625.16016-.12891.03125-.44922.14453-.69531.23047-.25781.09766-.53516.16797-.64063.16797-.18359,0-.41406.06641-1.30469.38672-.97656.34375-1.21484.49609-1.32813.83203-.07031.23828-.07813.35156,0,.51172.05078.11719.07422.27734.05078.35938-.06641.19141-.37891.27344-.58594.16016-.09375-.04688-.32813-.08984-.52734-.08984-.3125,0-.40625.04297-.6875.32031-.17578.16797-.32031.35156-.32031.40234,0,.10156-1.41797,1.51953-1.51953,1.51953-.07422,0-.14453.04688-.57813.41406-.09375.08203-.23047.14453-.32031.14453-.07813,0-.14063.03125-.14063.08203,0,.125-.49609.55859-.70703.61328-.26172.06641-.90234.71484-1.19141,1.20313-.21484.36719-.35156.56641-.55859.78125-.05859.06641-.10547.15234-.10547.19922,0,.16797-.41406.80859-.76563,1.17578-.19531.20313-.35547.39453-.35547.42578s-.15625.23047-.35938.44922c-.19922.20703-.35938.4375-.35938.51953,0,.07813-.04688.26172-.11328.40625-.19141.46484-.28516.82422-.28516,1.10547,0,.14453-.03125.375-.08203.51172-.03906.13672-.10938.64063-.16016,1.12891-.04688.48047-.11719,1.16797-.16797,1.51953-.18359,1.39844-.08594,2.39844.35938,3.64062.30469.83984.39453,1.125.54688,1.71875.04688.17578.18359.59375.3125.92188.125.32422.25391.76563.27734.98047.03125.21094.17578.61719.32031.91406.15234.29688.27344.57422.27344.63281,0,.05469.0625.11719.14453.14453.07813.02344.19141.11719.25391.21484.06641.09375.24219.29688.38672.4375.13281.15234.25391.30469.25391.33984,0,.03125.12109.125.26563.21484.13281.07813.32031.21484.40625.29688.16797.14844,1.53516.76563,1.96875.87891.15234.03906.45703.11328.67969.14453.21484.03906.48828.10938.60156.15234.87891.3125,1.30859.29297,3.19922-.12109.32813-.07422.87109-.16016,1.19922-.19141.70313-.08203,1.23828-.18359,1.51953-.29688.30469-.12891.76172-.26563.86328-.26563.10547,0,.58594-.23047,1.80859-.86328.69531-.36719.85547-.41406,1.27344-.41406.38281,0,.58203-.05859,1.02344-.28125.30469-.15234.58984-.28125.63281-.28125.04688,0,.14453-.0625.23047-.14063.23047-.21875.51172-.41797.58594-.41797.05469,0,.27734-.16797.49609-.36719.14063-.13672.51172-.3125,1.08594-.51172.82422-.28906.96094-.52734.96094-1.69531,0-.68359-.07422-.875-.51953-1.29688-.22656-.21875-.27344-.22656-.74609-.18359-.55078.03906-.73438-.05078-.73438-.37109,0-.33594-.10547-.39063-.60938-.35156-.69531.05859-1.25391.21875-1.40625.41016-.08203.08594-.17578.21484-.22656.26172-.0625.07422-.375.10547-1.03906.10547-1.04688,0-1.01563-.01563-1.59766.57422-.33594.33594-1.05078.70703-1.37109.70703-.10938,0-.45313.10938-.75781.25391l-.55078.25781-1.44141.00781h-1.44141l-.4375-.25c-.25-.13281-.54688-.26953-.66406-.30469-.12109-.02344-.28906-.11719-.37891-.20703-.07813-.07813-.29297-.22266-.46875-.32031-.17969-.08594-.37109-.23828-.41797-.33594-.04688-.09375-.16016-.24609-.24609-.33594-.08203-.08594-.17969-.25391-.20313-.36719s-.09375-.27344-.15234-.35938c-.14063-.23047-.33594-.82422-.39063-1.24219-.03125-.19922-.12109-.54297-.19141-.75781-.30469-.85547-.32031-.9375-.25-1.08984.05078-.07813.16016-.16797.25781-.19922.09766-.02344.21484-.09375.27344-.14453.04688-.04688.19141-.16016.30859-.23828.54688-.40234.65625-.64063.41016-.88672-.21484-.21875-.65625-.44141-.86328-.44141-.26563,0-.49609-.21484-.42578-.39063.32031-.76953.44141-1.22656.44141-1.63281,0-.43359.16797-.9375.30469-.9375.03906,0,.19141-.12109.35156-.26172.16016-.13672.35938-.3125.45313-.37891.09766-.0625.19531-.18359.21875-.26172.03906-.12109.35156-.50391.66406-.80859.26172-.25781.625-.61719.69531-.70313.04688-.05859.16797-.16016.26563-.22656.08594-.0625.16797-.16016.16797-.21484,0-.16016.74219-.82422.92578-.82422.04688,0,.375-.16016.71875-.35938.35547-.19922.68359-.35938.74609-.35938.05469,0,.32813-.11328.59766-.25.95313-.49609,2.10547-.6875,3.03516-.51172.18359.03906.39844.01563.55859-.03906.56641-.22266,1.46484-.67969,1.60938-.81641.08594-.07813.18359-.14453.22266-.14453.03125,0,.16016-.10156.28125-.23047.125-.12109.36719-.30469.55078-.39453.17578-.08594.35938-.25391.41797-.375.11719-.26172.125-1.57422.00781-1.95313-.25-.77344-.33594-.95703-.59375-1.23828-.15234-.16797-.28125-.34375-.28125-.38281,0-.05078-.16016-.23438-.35938-.42578-.30469-.27734-.42969-.34375-.78516-.39063-.53516-.06641-1.44531-.04688-1.85547.03125Z"/>

</g>
</svg>
