<?xml version="1.0" encoding="UTF-8"?>
<svg xmlns="http://www.w3.org/2000/svg"
     version="1.1"
     width="20.93536854mm"
     height="26.92577968mm"
     viewBox="0.00000000 0.00000000 59.34437837 76.32498988">

<g transform="scale(4.22440051)">   <defs>
      <style type="text/css"><![CDATA[
      .a {
        stroke: #000;
        stroke-linecap: round;
        stroke-linejoin: round;
        stroke-width: 0.01px;
      }
    ]]></style>
   </defs>
   <path class="a"
         d="M10.8477.01932a.61742.61742,0,0,0-.212.09691,2.98121,2.98121,0,0,1-.41793.24228C9.8907.5281,9.54546.81883,9.54546.92786a.55078.55078,0,0,1-.109.19987,4.05034,4.05034,0,0,0-.3089.6057,3.43456,3.43456,0,0,1-.49061.78134c-.16354.1817-.28467.34524-.2665.36947.01211.02423-.01212.08479-.06057.12719a1.71293,1.71293,0,0,0-.33919.73289.86921.86921,0,0,1-.24228.39976.89628.89628,0,0,0-.24227.38158,1.414,1.414,0,0,1-.3937.68443.74168.74168,0,0,0-.17565.25439,1.73967,1.73967,0,0,1-.18171.33919,2.52814,2.52814,0,0,0-.2665.6178,1.67513,1.67513,0,0,1-.69655.97517,2.38341,2.38341,0,0,0-.65414.44821.72805.72805,0,0,0-.14537.29073,1.7064,1.7064,0,0,1-.24833.49667,1.16539,1.16539,0,0,0-.20594.424A.873.873,0,0,1,4.282,9.4257a1.21319,1.21319,0,0,0-.27256.41187,1.88678,1.88678,0,0,1-.36341.5209,1.69867,1.69867,0,0,0-.35736.51483c-.02423.103-.13325.212-.33313.33313-.27862.16354-.5209.46638-.49061.61175.02423.14537-.02423.20594-.23016.26045-.24834.06662-.29679.11508-.90854.78134-.41793.45427-.58752.7874-.52695,1.02362A2.15385,2.15385,0,0,1,.30262,14.889a.22274.22274,0,0,0-.08479.18777.585.585,0,0,1-.12114.29679c-.109.13325-.11508.17565-.04846.28467a1.06992,1.06992,0,0,0,.69049.36342,1.93164,1.93164,0,0,0,1.02967-.13931.7526.7526,0,0,1,.72683-.07269c.19988.1272.24228.11509.4785-.103.424-.40582.315-.36947,1.43549-.533a2.58177,2.58177,0,0,0,.65414-.18171c.41187-.212.59964-.06057.48456.36947a1.99473,1.99473,0,0,1-.59964.99334,1.10091,1.10091,0,0,0-.3089.33918,1.13751,1.13751,0,0,1-.18776.29073.70762.70762,0,0,0-.13326.45427c-.01211.29073.00606.35736.14537.49667.14537.14537.17565.15142.40581.09085a1.83051,1.83051,0,0,0,1.06-1.36886,2.38769,2.38769,0,0,1,.4361-.9691,1.12841,1.12841,0,0,0,.17565-.315,1.354,1.354,0,0,1,.87825-.70866,3.35115,3.35115,0,0,0,.58146-.22411,1.14054,1.14054,0,0,1,.70866-.109,2.10408,2.10408,0,0,0,.636-.05451.72649.72649,0,0,1,.30284-.06057.61677.61677,0,0,0,.24228-.03029,3.94268,3.94268,0,0,1,.58146-.103,2.04948,2.04948,0,0,0,1.12659-.37552,1.18823,1.18823,0,0,1,.3513-.1696c.16354,0,.38159-.321.35736-.527a1.104,1.104,0,0,0-.60569-.70866c-.0848-.01817-.23017-.05451-.315-.07268a.52841.52841,0,0,0-.3937.09085c-.18777.109-.26045.12114-.35736.06663a1.19818,1.19818,0,0,1-.3513-.72077.68623.68623,0,0,0-.0424-.24834,2.17179,2.17179,0,0,1,.01817-.95093.292.292,0,0,0,.05451-.13931,6.77155,6.77155,0,0,1,.93277-1.8837c.103-.11508.23016-.26045.29073-.33313a1.03142,1.03142,0,0,1,.23016-.19988,1.47064,1.47064,0,0,0,.35736-.44821,4.36555,4.36555,0,0,1,.86614-1.21138,3.52351,3.52351,0,0,0,.45427-.37553,1.30386,1.30386,0,0,1,.35735-.27256c.1272,0,.29074-.35736.22411-.48455A.54694.54694,0,0,1,13.967,4.883c0-.16354-.321-.33313-.53906-.27862a4.40223,4.40223,0,0,0-.99939.99333,1.60062,1.60062,0,0,1-.212.25439c-.08479.09086-.23622.24834-.32707.3513a.66469.66469,0,0,1-.24228.18777,3.41167,3.41167,0,0,0-.79345.81768,2.69111,2.69111,0,0,1-.25439.33313c-.07268.0848-.19382.212-.26045.28468-.23016.25439-.32707.16959-.56329-.50273a2.89855,2.89855,0,0,0-.27256-.62386.16092.16092,0,0,1-.0424-.18171,3.99084,3.99084,0,0,0,.01211-1.14475.78936.78936,0,0,0-.13325-.23016c-.11508-.109-.11508-.12114-.03028-.27862a2.1597,2.1597,0,0,0,.11508-.98728A1.5169,1.5169,0,0,1,9.915,2.73282a2.75454,2.75454,0,0,0,.43-.55118,4.5467,4.5467,0,0,1,.37553-.57541,7.15843,7.15843,0,0,0,.424-.62386A.67734.67734,0,0,0,11.2596.38273C11.21112.06172,11.10209-.03519,10.8477.01932Zm-2.55,5.9176a.46126.46126,0,0,1,.0848.29073,1.81258,1.81258,0,0,0,.103.49667,2.72731,2.72731,0,0,1,.12114.45427c.01211.08479.04845.28467.07874.44821a4.28627,4.28627,0,0,1,.03634.77528,1.54263,1.54263,0,0,0,.0424.60569,1.60474,1.60474,0,0,1,.08479.533,2.86659,2.86659,0,0,0,.05451.533c.03635.109-.00605.18776-.23016.40581a1.27509,1.27509,0,0,1-.32707.27256,2.37986,2.37986,0,0,0-.46033.70866.4519.4519,0,0,1-.24227.212.748.748,0,0,0-.32708.36342,2.85584,2.85584,0,0,1-.39975.55724c-.26045.28467-.28468.29073-.50273.24833a4.07939,4.07939,0,0,0-.50272-.06057,1.8575,1.8575,0,0,1-.45427-.07874c-.77528-.27256-.78134-.27256-1.10236-.11508-.33918.17565-.52089.13325-.6178-.14537-.07268-.20593.09691-.62992.44215-1.10841a2.70877,2.70877,0,0,0,.30891-.58147.54583.54583,0,0,1,.24227-.3513c.0848-.04239.15143-.109.15143-.15748a.65081.65081,0,0,1,.17565-.27256.90022.90022,0,0,0,.212-.43A.7384.7384,0,0,1,5.554,9.0744c.13931-.12719.30285-.27862.36342-.33919a.35292.35292,0,0,0,.11508-.24227c0-.14537.14536-.36342.46032-.68443a3.91709,3.91709,0,0,0,.56935-.963c-.00605-.11508.01212-.14537.13326-.18777a2.1885,2.1885,0,0,0,.51483-.424,2.1972,2.1972,0,0,1,.4361-.38764.34978.34978,0,0,1,.15139.09082ZM9.079,11.56985c.07874.07268.07874.13931.01212.43609-.103.46639-.13931.55118-.28468.59964-.15748.04845-.3937-.01211-.43-.12114a.48336.48336,0,0,1,.11508-.29073,2.21821,2.21821,0,0,0,.24228-.41187c.07268-.16959.17565-.29679.24833-.30285a.80628.80628,0,0,1,.09691.09086Z"/>

</g>
</svg>
