<?xml version="1.0" encoding="UTF-8"?>
<svg xmlns="http://www.w3.org/2000/svg"
     version="1.1"
     width="40.43813736mm"
     height="44.70414566mm"
     viewBox="0.00000000 0.00000000 114.62782284 126.72039271">

<g transform="scale(4.13392926)">   <defs>
      <style type="text/css"><![CDATA[
      .b {
        stroke: #000;
        stroke-linecap: round;
        stroke-linejoin: round;
        stroke-width: .25px;
      }
    ]]></style>
   </defs>
   <path class="b"
         d="M1.04558,20.89831c-.63357.86269-1.00344,1.92741-.90474,2.9932.17902,1.93314,1.69081,2.75191,3.10322,2.61623,10.26716-.98627,10.89945-2.83285,16.11147-1.28457.32449.09639.67253.23583.82926.53586.21418.41001-.00328.91518-.26107,1.29927-.85463,1.27333-.9552,1.73139-1.79135,3.14677,2.56037,1.5612,7.13112-2.83181,9.17553-6.61924.25471-.47186.46626-1.10862.09583-1.49633-.20655-.21618-1.48136-.58672-1.7776-.62716-2.67702-.36543-4.39948-.41254-7.0765-.77798,2.02655-3.05353,4.63095-5.18741,7.45119-7.52761.28165-.23371-.1083-1.31993-.44836-1.18464-4.54748,1.80912-8.21855,3.40354-10.1678,7.86658-.21264.48687-1.42403,1.64579-1.87324,1.92945-.35367.22332-.79236.2506-1.21011.27154l-4.53531.29694c-.80188.04018-1.81142-.26355-1.37386-.93672,4.05912-6.2448,9.44579-10.95335,15.17487-16.23649.58612-.5405,2.24813-2.12323,3.01645-3.09941,1.79538-2.2811-2.4551-2.2329-3.89072-1.4593-1.73074.93264-4.93109,3.90134-6.2448,5.30808C9.57001,11.13613,5.42086,14.94083,1.04558,20.89831Z"/>

</g>
</svg>
