<?xml version="1.0" encoding="UTF-8"?>
<svg xmlns="http://www.w3.org/2000/svg"
     version="1.1"
     width="53.16967561mm"
     height="43.24924334mm"
     viewBox="0.00000000 0.00000000 150.71723653 122.59631497">

<g transform="scale(4.31223773)">   <defs>
      <style type="text/css"><![CDATA[
      .a {
        stroke: #000;
        stroke-linecap: round;
        stroke-linejoin: round;
        stroke-width: 0.01px;
      }
    ]]></style>
   </defs>
   <path class="a"
         d="M6.92647.11637c-.212.09691-.30284.109-.41187.06057A.26646.26646,0,0,0,6.25416.17088a.2205.2205,0,0,1-.24228-.006A1.1907,1.1907,0,0,0,5.17.26179a.86749.86749,0,0,1-.29068.0908c-.06663,0-.18171.09691-.27256.23622-.1272.19382-.23622.26651-.66021.424-.71471.27862-.75711.30891-.93276.533-.23622.30891-.39976.39976-.58752.315-.13325-.06057-.23622-.03634-.76317.19382a1.62355,1.62355,0,0,0-.642.36342.362.362,0,0,1-.212.16353.5245.5245,0,0,0-.24227.19383,1.91311,1.91311,0,0,1-.27862.33313.64663.64663,0,0,0-.20594.34524.50954.50954,0,0,1-.05451.22411.25212.25212,0,0,0,.01817.24227.49223.49223,0,0,1,.05452.26045c-.01818.06057.02422.11508.09691.13931a.26086.26086,0,0,1,.16353.18171c.02423.09691.06663.12719.14537.109.13931-.03634.424.23016.424.39976a.54943.54943,0,0,0,.24228.46032.389.389,0,0,1,.18171.20594c.06662.16353.16959.23016.70865.43609.09086.03029.15748.13931.20594.30891.03634.14536.06663.27256.06663.29073a2.59741,2.59741,0,0,0,.20593.40581,1.5452,1.5452,0,0,1,.19988.51484,2.26745,2.26745,0,0,0,.17565.75711.31423.31423,0,0,1,.03634.22411.19536.19536,0,0,0,.06057.18776.33051.33051,0,0,1,.09691.16959.34136.34136,0,0,0,.12719.18777.19658.19658,0,0,1,.0848.23622.65929.65929,0,0,0,0,.4361,3.49655,3.49655,0,0,1,.05451.36341,1.54614,1.54614,0,0,0,.0848.33919,1.521,1.521,0,0,1,.05451.45427,2.28631,2.28631,0,0,0,.07269.55117,1.57512,1.57512,0,0,1,.04239.46639,1.2589,1.2589,0,0,0,.09086.52089c.07874.20594.09691.34524.06057.41187a.69215.69215,0,0,0-.03029.315c.01212.11508.03634.36341.04846.54512a4.65892,4.65892,0,0,0,.15738,1.00538.45174.45174,0,0,1,.03028.2665.23765.23765,0,0,0,.05451.18777.25784.25784,0,0,1,.03635.26044,1.24058,1.24058,0,0,0,0,.43.92131.92131,0,0,1-.00606.39975.98326.98326,0,0,0,.05451.77529c.09085.20593.109.29678.06057.39975-.04846.109-.03028.16354.103.29679.12114.12114.15142.19988.12719.29678a2.35687,2.35687,0,0,0-.00605,1.03574,1.19012,1.19012,0,0,1,.01817.58146.36691.36691,0,0,0,.006.29074c.03634.06662.04846.13325.03029.15142a1.0482,1.0482,0,0,0-.09086.636,2.06568,2.06568,0,0,1-.11508.89037.32365.32365,0,0,0,.04846.26045,1.03371,1.03371,0,0,1,.109.79951.86571.86571,0,0,0-.06057.36341.71922.71922,0,0,1-.27861.69655c-.16354.0848-.18777.07874-.49061-.1272a1.54751,1.54751,0,0,0-.53907-.24833c-.19382-.02423-.24833,0-.46638.19988-.13931.13325-.315.29679-.3937.36341-.15142.13931-.59358.61781-.82374.89643-.07874.09085-.1272.20593-.109.24833a1.12245,1.12245,0,0,1-.06057.37553,1.27719,1.27719,0,0,0-.06057.47244,2.32057,2.32057,0,0,0,.15142.59357,1.99938,1.99938,0,0,0,.636.67838,2.7,2.7,0,0,0,1.45971.23622,4.3233,4.3233,0,0,1,.86614.06057,1.67032,1.67032,0,0,0,1.00545-.0848,2.40191,2.40191,0,0,1,.78739-.14537c.27257-.01817.5209-.03634.55118-.0424a.67569.67569,0,0,1,.218.03029,1.01353,1.01353,0,0,0,.527-.0848,1.16074,1.16074,0,0,1,.84191-.0424,2.313,2.313,0,0,0,1.21744.02423.65564.65564,0,0,1,.315-.05451,23.46528,23.46528,0,0,0,3.24045-.07268A3.86708,3.86708,0,0,1,14.219,27.003a1.25923,1.25923,0,0,0,.48456,0,1.61121,1.61121,0,0,1,.59963-.1272,2.01221,2.01221,0,0,0,.76317-.34524.20753.20753,0,0,1,.18776-.0424.50946.50946,0,0,0,.30285-.07874c.17565-.109.27862-.11508,1.19927-.0848.55723.01212,1.066.02423,1.13264.02423a8.7,8.7,0,0,0,1.1811-.16354,1.77991,1.77991,0,0,1,.41187-.09085,19.05957,19.05957,0,0,0,2.46516-.50878A4.95944,4.95944,0,0,1,24.3098,25.41a1.8966,1.8966,0,0,0,.79952-.18171,1.61432,1.61432,0,0,1,.50272-.16354,1.18,1.18,0,0,0,.38764-.11508,1.06851,1.06851,0,0,1,.34525-.12113,3.07775,3.07775,0,0,0,.98122-.19988c.3089-.12114.32707-.12114.55723-.01817a.57019.57019,0,0,1,.35736.5754,2.57591,2.57591,0,0,0,.05451.41187,2.03379,2.03379,0,0,1,.03029.54512c-.07874.87826-.03029,1.58692.11508,1.58692.09085,0,.23016.19987.19988.29678-.0424.14537.1817.26045.56935.27862a2.13438,2.13438,0,0,1,.50272.0848.92049.92049,0,0,0,.45427.01211c.29073-.05451.30284-.06662,1.175-.95093a3.30407,3.30407,0,0,0,.77528-1.16293c.07268-.218.07268-.26045-.01817-.34524a.33146.33146,0,0,1-.09691-.15748,1.24331,1.24331,0,0,0-.40581-.24228c-.48456-.218-.46033-.19988-.4785-.40581a2.39568,2.39568,0,0,0-.15142-.47244c-.18171-.424-.13325-.58752.23622-.77529a2.718,2.718,0,0,1,.51484-.18776.42865.42865,0,0,0,.32707-.23622c.109-.18776.109-.18776-.07268-.533-.16354-.321-.218-.36947-.61781-.55723-.44821-.218-.55118-.321-.55723-.58147a6.8393,6.8393,0,0,0-.1272-1.169.74039.74039,0,0,1-.01817-.44215.75805.75805,0,0,0,.0424-.35736,2.64136,2.64136,0,0,1-.01817-.33313c0-.04846,0-.19382-.00606-.321a.45563.45563,0,0,1,.19382-.40581,2.09272,2.09272,0,0,1,.6602-.48455.89776.89776,0,0,0,.35736-.27257,1.13031,1.13031,0,0,1,.38159-.29678c1.07207-.5633,1.12658-.60569,1.16292-.93277.02423-.24227-.35735-.73288-.56934-.73894a.92346.92346,0,0,0-.67232.33919.82866.82866,0,0,1-.44821.29678.82281.82281,0,0,0-.33919.15748.22954.22954,0,0,1-.1272.07874.72258.72258,0,0,0-.218.0848c-.27257.15142-.38159-.00606-.3937-.56329-.01212-.33919.0424-.59358.12719-.62386.03634-.01212.03634-.07269-.00606-.16354a.55034.55034,0,0,1-.01817-.315,1.95893,1.95893,0,0,0,.09086-.95093.38719.38719,0,0,1,.0424-.29679.27175.27175,0,0,0,.01817-.28468.23956.23956,0,0,1-.00606-.23016.74761.74761,0,0,0,.06057-.25439c0-.0848.00606-.26045.00606-.3937a3.945,3.945,0,0,0-.06057-.636c-.03634-.218-.07268-.47849-.0848-.5754a.92369.92369,0,0,0-.0848-.3089,1.40716,1.40716,0,0,1-.05451-.72683c.01817-.02423-.00606-.12114-.05451-.218a.51874.51874,0,0,1-.06057-.3089.381.381,0,0,0-.03634-.24228,1.3883,1.3883,0,0,1-.07268-.39976,1.19676,1.19676,0,0,0-.05452-.34524.16118.16118,0,0,1,.01818-.14534.20121.20121,0,0,0-.006-.19382.234.234,0,0,1,.01817-.24833,1.79834,1.79834,0,0,0,.03028-.98122c-.03634-.13325-.06662-.25439-.07268-.27256a.59453.59453,0,0,0-.07874-.15748c-.03634-.07268-.04846-.14537-.02423-.16959.01817-.02423.00606-.06663-.0424-.09086-.09085-.05451-.13325-.29679-.15142-.82374a1.05742,1.05742,0,0,1,.23016-.79345,1.47017,1.47017,0,0,1,.5209-.26651,7.11435,7.11435,0,0,0,1.387-.70866A2.42406,2.42406,0,0,1,32.7834,4.011a2.089,2.089,0,0,0,.315-.09692.59588.59588,0,0,1,.61175.24834c.0848.12114.23016.15142.56329.13931.23622-.01212.66626-.38765.61175-.52695a.31728.31728,0,0,1,.03028-.218.4281.4281,0,0,0-.01211-.34525.83167.83167,0,0,1-.06057-.3089.19352.19352,0,0,0-.07268-.15748.3.3,0,0,1-.11508-.15142.65645.65645,0,0,0-.12114-.19382.40224.40224,0,0,1-.109-.24834c0-.16353-.14536-.26044-.46032-.321a1.86157,1.86157,0,0,1-.44821-.15142,2.28093,2.28093,0,0,0-.54512-.14537,1.83643,1.83643,0,0,1-.43-.09691,2.629,2.629,0,0,0-.5754-.06057,1.27986,1.27986,0,0,1-.67837-.1272A4.77291,4.77291,0,0,0,30.53034.9523,3.26313,3.26313,0,0,1,29.852.66762,2.3646,2.3646,0,0,0,28.4285.389c-.38158,0-.81768.01817-.9691.03634a2.08178,2.08178,0,0,0-.963.41793.56311.56311,0,0,1-.39976.16959c-.03634.00606-.11508.103-.17565.218-.06662.11508-.13931.212-.16353.212a3.97927,3.97927,0,0,0-.49667.80556,1.1894,1.1894,0,0,0-.03634.745,1.29492,1.29492,0,0,1,.12114.70261c0,.16959.02422.23016.11508.26044.06662.02423.12719.05452.12719.07874.00606.02423.01817.109.03029.19382.006.0848.03028.29679.05451.46639a.89981.89981,0,0,0,.16959.47244c.1272.14536.38765.44215.642.751.09691.109.109.1696.06056.25439a.25739.25739,0,0,0-.02422.18171.55013.55013,0,0,1,.06662.19382c.01212.07268.03634.20594.05452.29073a.23784.23784,0,0,1-.05452.24834c-.04845.05451-.07874.109-.06057.12113a.60732.60732,0,0,1,.05452.1696.33577.33577,0,0,0,.08479.17565A2.06773,2.06773,0,0,1,26.94456,8.59a1.00917,1.00917,0,0,0,.103.51484,1.782,1.782,0,0,1,.19382.76922,1.083,1.083,0,0,0,.06663.29074,1.03,1.03,0,0,1-.03635.3937.74753.74753,0,0,0,.00606.52089,2.31971,2.31971,0,0,1,.103.62386,17.02367,17.02367,0,0,0,.23016,2.33191.2816.2816,0,0,1-.05451.26651c-.12114.12113-.12114.13325.03028.59357a4.14,4.14,0,0,1,.15748.8722c.05452,1.1811.109,1.51423.26045,1.66565.09085.09085.109.15142.06663.23016a1.56113,1.56113,0,0,0-.0848.40581c-.01817.16354-.03634.32708-.04846.36342a.37037.37037,0,0,0,.06057.19988.2129.2129,0,0,1-.01817.27861c-.07874.1272-.07874.14537.03029.24228.103.0848.109.11508.03634.2665a.5598.5598,0,0,0-.03029.40582,2.45611,2.45611,0,0,1,.04846.533.63261.63261,0,0,0,.11508.44215,1.359,1.359,0,0,1,.01817,1.02967c-.09085.30891-.40581.50273-.88431.53907a1.5562,1.5562,0,0,0-.49666.109.52.52,0,0,1-.38765.03635.86677.86677,0,0,0-.33918-.02423,3.24792,3.24792,0,0,0-.66021.23622,2.27943,2.27943,0,0,1-.5754.07268,19.55606,19.55606,0,0,0-2.55.35736,1.02228,1.02228,0,0,0-.32708.18776c-.13325.109-.18776.1272-.28467.07874-.103-.05451-.218-.04845-.83585.0424-.11509.01817-.26651.03634-.33313.0424a1.02506,1.02506,0,0,0-.27256.103,1.10514,1.10514,0,0,1-.36342.09691,2.37553,2.37553,0,0,0-.76317.13325,2.75487,2.75487,0,0,1-1.0115-.00606.41886.41886,0,0,1-.28468-.103c-.09085-.15142,0-.78739.11508-.78739.02423,0,.04846-.03635.04846-.07874a1.80467,1.80467,0,0,1,.07268-.25439,2.78493,2.78493,0,0,0,.09691-.3513.65014.65014,0,0,1,.15142-.28468.25931.25931,0,0,0,.07874-.23016.54682.54682,0,0,1,.06057-.29073,1.76711,1.76711,0,0,0,.16354-.72078.81845.81845,0,0,1,.02423-.54512.884.884,0,0,0,.06662-.424,1.784,1.784,0,0,1,.09691-.58752,1.07987,1.07987,0,0,0,.07874-.29073c-.01817,0,.00606-.06057.0424-.13326a1.766,1.766,0,0,0,.09691-.55117q.03634-.69958.34525-.83586a.48851.48851,0,0,0,.19987-.23622c.05452-.14536.1272-.19381.41187-.27256a1.71871,1.71871,0,0,0,.66021-.38158c.17565-.15748.3937-.34524.49061-.41793.16353-.1272.16959-.13325.08479-.41793-.09085-.315-.24833-.44821-.47849-.41792a3.40512,3.40512,0,0,0-.957.58752.61372.61372,0,0,1-.46034.19382c-.109-.0424-.15142-.19382-.15142-.4785a1.21512,1.21512,0,0,0-.03634-.33919.252.252,0,0,1,.0424-.24227,2.33454,2.33454,0,0,0,.109-1.10236,1.94693,1.94693,0,0,1,.03028-.25439,2.71431,2.71431,0,0,0,.03635-.39369,4.05926,4.05926,0,0,1,.02422-.65415,1.47356,1.47356,0,0,0-.03028-.46638.19484.19484,0,0,1,.03028-.23623c.09086-.09085.04846-.3089-.13325-.6602a.42058.42058,0,0,1-.04845-.28467.508.508,0,0,0-.06057-.30285c-.04846-.09691-.07874-.18171-.06663-.18171.01817,0,.00606-.07268-.03028-.16959a1.12063,1.12063,0,0,1-.06057-.39369,1.4319,1.4319,0,0,0-.0848-.44821.56947.56947,0,0,1-.0424-.40582.61919.61919,0,0,0,0-.33312,1.52229,1.52229,0,0,1,.0848-.86614.34972.34972,0,0,0,.05451-.19988,5.563,5.563,0,0,1-.09085-.848,1.46262,1.46262,0,0,0-.06057-.4361c-.01817-.01816.00606-.109.05451-.19987.06663-.1272.17565-.19382.4361-.27256.36341-.11509.68443-.38159.68443-.57541a.95056.95056,0,0,1,.16959-.33919,1.89714,1.89714,0,0,0,.38159-1.07207.83159.83159,0,0,1,.09693-.58136.275.275,0,0,0,.06057-.15748c.006-.06663.03028-.18777.04845-.27257.02423-.11508-.01211-.19987-.14536-.3513a.414.414,0,0,1-.14537-.315,2.30842,2.30842,0,0,0-.32707-.94487A.97113.97113,0,0,0,19.81558.9522a1.76721,1.76721,0,0,1-.3937-.29679A.87276.87276,0,0,0,18.689.37076a.75372.75372,0,0,1-.36947-.05451,1.08241,1.08241,0,0,0-.36341-.0848A4.32757,4.32757,0,0,1,17.4655.20117c-.3937-.0424-.533-.01211-.70261.14536a1.51239,1.51239,0,0,1-.64808.33313c-.01818-.01817-.1272.00606-.24228.06057a.44641.44641,0,0,1-.24833.05452,1.53939,1.53939,0,0,0-.72078.3089,1.95785,1.95785,0,0,1-.58752.315c-.6178.26045-.81162.47849-.79345.87219.00605.11508.01817.38765.03028.59964a1.05124,1.05124,0,0,1-.09691.62386l-.12114.23622.15143.13931a.84349.84349,0,0,1,.19382.27256.70411.70411,0,0,0,.15142.24833.87619.87619,0,0,1,.16959.32707,1.07216,1.07216,0,0,0,.25439.3937.69969.69969,0,0,1,.218.33919c.01212.14537.07269.23622.37553.56935a.28077.28077,0,0,1,.05451.23622.84359.84359,0,0,0,.39976.69654c.02423.00606.06057.109.07874.22411a1.42585,1.42585,0,0,0,.30284.65415.28355.28355,0,0,1,.0848.18776.25855.25855,0,0,0,.06057.16354,1.13976,1.13976,0,0,1,.13931.33918c.07874.24228.07268.29679-.01211.4361-.09086.15142-.09086.1696.01211.24833a.582.582,0,0,1,.17565.49667c0,.07874.01817.13931.0424.13931.09085,0,.17565.27862.11508.38159a.364.364,0,0,0-.01211.24227,3.20062,3.20062,0,0,1,.11508.8298c.01817.24833.0424.50878.05451.57541a7.58353,7.58353,0,0,0,.19382.91459.609.609,0,0,1,.01817.47244.27357.27357,0,0,0,.01817.32707c.0848.15748.09086.26045.03029,1.09024a.39855.39855,0,0,1-.09691.24834c-.06663.0424-.05452.07874.04845.18171.16354.16353.16354.3513-.01817.61174-.11508.1696-.13325.24228-.09085.38765a2.50226,2.50226,0,0,1,.04845.54512c0,.20593.01817.49061.03634.642.0424.29073.07874.90854.109,1.78679a3.465,3.465,0,0,0,.06662.642.23528.23528,0,0,1-.07874.22411,1.10944,1.10944,0,0,0-.15748.424,1.86381,1.86381,0,0,1-.09085.37553,2.8823,2.8823,0,0,0-.09085.54512,1.57138,1.57138,0,0,1-.1696.66626,2.22253,2.22253,0,0,0-.20593.61781,2.87362,2.87362,0,0,1-.19382.67231,1.19421,1.19421,0,0,0-.1272.3937c0,.14537-.19988.37553-.32707.37553a3.00052,3.00052,0,0,1-.3937-.06057c-.30285-.05451-.33313-.04845-.84191.19988l-.52695.26045-1.272-.00606a6.47024,6.47024,0,0,1-1.40521-.07874,3.46252,3.46252,0,0,0-1.47182.01211,7.4845,7.4845,0,0,1-2.3622.03634.58309.58309,0,0,0-.25426-.06054.44428.44428,0,0,1-.218-.05452c-.14536-.09085-.12114-.52089.04846-1.02967a1.34739,1.34739,0,0,0,.109-.56329,1.63819,1.63819,0,0,1,.03634-.90854c.06057-.05451.06663-.12114.02423-.24833a.29806.29806,0,0,1,.03634-.315.89471.89471,0,0,0,.12114-.3513,1.23257,1.23257,0,0,1,.09691-.34525.69135.69135,0,0,0,.02423-.41792c-.02423-.15143-.05451-.321-.06057-.36948a2.26532,2.26532,0,0,0-.09691-.33313,1.3882,1.3882,0,0,1,.28467-1.52028,7.88813,7.88813,0,0,0,.76317-.64809c.1272-.103.26045-.22411.30285-.26045.04845-.0424.15748-.15142.24228-.24227.09085-.09691.19987-.20594.24227-.24834a1.573,1.573,0,0,0,.20594-.2241,1.723,1.723,0,0,1,.44215-.46033,2.59925,2.59925,0,0,0,.4361-.99939c0-.04845-.12114-.16959-.27256-.27256-.29073-.19988-.4361-.19988-.636,0a1.03366,1.03366,0,0,1-.32707.18777c-.13325.04845-.218.11508-.212.17565.01817.18776-.01212.23016-.27862.36947-.15142.07874-.27256.17565-.27256.212,0,.20593-.62386.67232-.77529.57541a.36631.36631,0,0,1-.109-.218,1.07482,1.07482,0,0,0-.09085-.27862.55671.55671,0,0,1,.03634-.38159c.08479-.24227.08479-.29678.00605-.44215a1.05716,1.05716,0,0,1-.06662-.40581.97924.97924,0,0,0-.03029-.36948,1.29133,1.29133,0,0,1,0-.4906,1.11867,1.11867,0,0,0-.04239-.59964,2.69636,2.69636,0,0,1-.09086-.77528,1.66729,1.66729,0,0,0-.05451-.5633,1.963,1.963,0,0,1-.20594-.89642,2.17833,2.17833,0,0,0-.12113-.59963c-.06663-.15748-.07874-.26045-.03634-.33313a.23018.23018,0,0,0,.01211-.18777.37146.37146,0,0,1-.01817-.2241.336.336,0,0,0-.04846-.23622.71844.71844,0,0,1-.09691-.321,3.55285,3.55285,0,0,0-.30286-1.45372.35551.35551,0,0,1-.0848-.23016.66951.66951,0,0,0-.103-.30285,1.58336,1.58336,0,0,1-.15137-.43609c-.02423-.15748-.06057-.33919-.07268-.40582a1.62464,1.62464,0,0,0-.09691-.29073c-.07269-.15142-.06663-.18776.06057-.36341a4.76255,4.76255,0,0,1,.34524-.40581c.11508-.11509.44821-.46033.75106-.76923a4.4108,4.4108,0,0,1,.64807-.5875.397.397,0,0,0,.1817-.19988,1.3923,1.3923,0,0,1,.44216-.59358.93374.93374,0,0,0,.26044-.33313,1.41022,1.41022,0,0,1,.29074-.38764.18646.18646,0,0,0,.09085-.218.20759.20759,0,0,1,.07876-.22417c.09691-.0848.103-.11509.03028-.218a.25677.25677,0,0,1-.04845-.19382C8.5679.87954,8.08334.34653,7.59879.13454,7.2172-.035,7.27172-.035,6.92647.11637ZM5.8968,2.35137c.08479.13931-.15748.52695-.48455.76923a1.01959,1.01959,0,0,0-.30285.29073,1.32162,1.32162,0,0,1-.46638.50878c-.13325.06663-.321.03634-.321-.06057a.4419.4419,0,0,0-.12719-.1817.59626.59626,0,0,1-.14537-.23622,1.45429,1.45429,0,0,0-.12117-.29679c-.09085-.18171-.09085-.19382.0424-.315.3513-.321.61175-.4785.745-.44216a.66889.66889,0,0,0,.33919-.05451C5.30322,2.22418,5.82412,2.23629,5.8968,2.35137Z"/>

</g>
</svg>
