<?xml version="1.0" encoding="UTF-8"?>
<svg xmlns="http://www.w3.org/2000/svg"
     version="1.1"
     width="54.15065373mm"
     height="32.60783575mm"
     viewBox="0.00000000 0.00000000 153.49787652 92.43161945">

<g transform="scale(4.36982859)">   <defs>
      <style type="text/css"><![CDATA[
      .a {
        stroke: #000;
        stroke-linecap: round;
        stroke-linejoin: round;
        stroke-width: 0.01px;
      }
    ]]></style>
   </defs>
   <path class="a"
         d="M25.00344.05663a.44193.44193,0,0,1-.24227.08479c-.33919.03029-.49667.103-.61781.30285a1.11029,1.11029,0,0,1-.28467.315,5.54375,5.54375,0,0,0-.59964.53906,2.43463,2.43463,0,0,1-.92671.69049.65023.65023,0,0,0-.24228.1635c-.33919.321-.50878.44215-.56935.40581-.03029-.01817-.09691.01817-.14537.09085a1.2764,1.2764,0,0,1-.37553.27256,7.55687,7.55687,0,0,0-1.46575,1.02968c-.19383.16959-.36342.19382-1.272.18776a5.23814,5.23814,0,0,0-1.06.04846,2.46776,2.46776,0,0,1-.7874.16354,3.13356,3.13356,0,0,0-1.3628.18776,1.63157,1.63157,0,0,1-.26651.32707c-.2241.22411-.29678.27256-.424.23622-.12114-.03028-.19382.01212-.39975.22411a2.62019,2.62019,0,0,0-.33919.424.45977.45977,0,0,1-.19382.20594.55187.55187,0,0,0-.22411.27861.88462.88462,0,0,1-.27862.33919,2.31,2.31,0,0,0-.47244.56935,4.66359,4.66359,0,0,1-.3513.49061,1.2297,1.2297,0,0,0-.34524.51484c.00606.0424.01211.14536.01817.23016.00606.09085.0424.15142.09691.15142a.83332.83332,0,0,1,.27256.09086.28241.28241,0,0,0,.3513.00605,1.06013,1.06013,0,0,1,.52695-.05451,2.52743,2.52743,0,0,0,.86009-.01211c.26044-.03634.3513-.02423.48455.06662a1.07133,1.07133,0,0,0,.23016.12114,2.13924,2.13924,0,0,1,.81768.3937c.05452.09086.03634.14537-.08479.26651a.494.494,0,0,1-.27862.15142c-.06663,0-.12114.03028-.12114.06662a5.21139,5.21139,0,0,1-1.599,1.21139,1.11929,1.11929,0,0,0-.424.26044,1.47632,1.47632,0,0,1-.49061.30891,2.21678,2.21678,0,0,0-.55723.33918,1.18849,1.18849,0,0,1-.424.26651c-.09085.01817-.33313.07268-.533.12114-.19988.04239-.55118.103-.7874.12719a1.87874,1.87874,0,0,0-.54512.12114,1.47878,1.47878,0,0,1-.48456.11508.74152.74152,0,0,0-.38764.103.60761.60761,0,0,1-.15142.1817,5.60087,5.60087,0,0,1-1.00545.72683.35232.35232,0,0,0-.24228.26651c-.07874.23016-.13325.27862-.35735.29679-.0848.00605-.19988.01817-.24834.01817a7.17909,7.17909,0,0,0-1.175.93882,1.83284,1.83284,0,0,1-.76317.46638,2.46682,2.46682,0,0,0-.70866.48455.92562.92562,0,0,1-.3089.20594,1.06373,1.06373,0,0,0-.41187.38158.93319.93319,0,0,1-.38158.36342,1.12321,1.12321,0,0,0-.33313.24227c-.07269.09086-.20594.24834-.30891.35736a1.11889,1.11889,0,0,0-.19987.27862,1.13245,1.13245,0,0,1-.4361.44215.41027.41027,0,0,0-.17565.18777.81869.81869,0,0,1-.38765.29679,1.37829,1.37829,0,0,0-.76317.67837,1.089,1.089,0,0,1-.24833.33919c-.11508.07874-.11508.08479,0,.41187a1.094,1.094,0,0,0,.3089.47849c.17565.13326.26045.15143.77529.16354.321.00606.73288.02423.91459.0424a2.26951,2.26951,0,0,0,.58752-.03634,1.04616,1.04616,0,0,1,.54512.01211,1.57475,1.57475,0,0,0,.97517-.02423c.12719-.06662.19987-.06662.46032.00606a4.85514,4.85514,0,0,0,.88431.109,4.33207,4.33207,0,0,1,1.22955.14537.69843.69843,0,0,0,.40582.01211.70972.70972,0,0,1,.26044-.03028,7.3212,7.3212,0,0,0,1.13265.103,3.60129,3.60129,0,0,0,.60569-.0424,3.48322,3.48322,0,0,1,.47244-.0424,1.50956,1.50956,0,0,0,.36341-.05451c.12114-.03029.33313-.07874.46638-.11508a.76284.76284,0,0,1,.51484.03028,2.51125,2.51125,0,0,0,.48455.11508c.11508.01212.3089.0424.424.06663a9.27166,9.27166,0,0,0,1.02967.03634,8.21805,8.21805,0,0,0,1.54451-.103,2.20593,2.20593,0,0,1,.46638-.03634.83992.83992,0,0,0,.30891-.07268.45326.45326,0,0,1,.29073-.0424,1.84593,1.84593,0,0,0,.3513.0848.59416.59416,0,0,0,.54512-.14537,1.24294,1.24294,0,0,1,.49667-.18776,3.12237,3.12237,0,0,1,1.11447.09085.76393.76393,0,0,0,.36341.06663,7.05244,7.05244,0,0,0,1.41126-.24228,1.57276,1.57276,0,0,1,.848-.06663c.03634.02423.17565-.01211.30285-.07874a1.892,1.892,0,0,1,.62386-.14536,2.5606,2.5606,0,0,0,.62386-.1272.6589.6589,0,0,1,.36342-.05451.70648.70648,0,0,0,.27861.02423,10.37764,10.37764,0,0,0,1.25984-.26045c.11508-.03028.2665-.06662.33313-.07874.07268-.01211.2665-.04845.43-.07874a1.00448,1.00448,0,0,1,.37553-.03028,1.75076,1.75076,0,0,0,.49667-.103l.43-.12114.24833.1272c.321.16959.55118.13325,2.11992-.33313a3.60089,3.60089,0,0,1,.87825-.15748,1.349,1.349,0,0,0,.69655-.1696,4.4919,4.4919,0,0,1,1.30223-.41187,1.63737,1.63737,0,0,0,.533-.1817.98.98,0,0,1,.61175-.212.37887.37887,0,0,0,.24228-.103,1.8883,1.8883,0,0,1,.36341-.23622c.24228-.109.3089-.212.59357-.86614a5.73983,5.73983,0,0,1,.93884-1.13264c.26649-.27256.39975-.48456.35735-.55724a.60265.60265,0,0,1,.01816-.30284.41375.41375,0,0,0-.04845-.38765c-.0848-.12719-.1393-.14536-.36946-.13325a4.30432,4.30432,0,0,0-1.169.212,1.15207,1.15207,0,0,1-.58146.07874.62647.62647,0,0,0-.4361.06057,1.16924,1.16924,0,0,1-.38158.13931.80466.80466,0,0,0-.33919.14537c-.09085.09085-.14537.09691-.38764.0424a.64807.64807,0,0,0-.5209.04845,1.64875,1.64875,0,0,1-.38158.12114,10.875,10.875,0,0,0-1.36886.27256.34786.34786,0,0,1-.24228-.01817c-.12719-.04846-.212-.03029-.39976.06057a.55675.55675,0,0,1-.52695.04845.77985.77985,0,0,0-.315-.04845,1.38089,1.38089,0,0,1-.38159.05451c-.19382.01817-.50272.0424-.68442.06057s-.49061.0424-.68443.05451a1.06554,1.06554,0,0,0-.5209.14537.86611.86611,0,0,0-.36947.52089c0,.14537-.27862.39976-.3937.35736-.18776-.07268-.2241-.24833-.14537-.72683.103-.6602.03028-.7026-.424-.2241-.33918.36341-.36341.37552-.54512.321a3.04839,3.04839,0,0,0-1.50816.11508,1.08354,1.08354,0,0,1-.69655.109,2.008,2.008,0,0,0-.6178.02422,1.2099,1.2099,0,0,1-.30284.05452c-.03029,0-.36948-.01212-.745-.02423-.50879-.01211-.70866-.0424-.78134-.109-.06662-.06662-.09086-.24227-.09691-.65414-.006-.53907,0-.56935.16354-.7026a.579.579,0,0,1,.34523-.14537.65392.65392,0,0,0,.54513-.49667,2.9243,2.9243,0,0,0-.16959-.97516c-.07268-.13931-.06662-.18776.01211-.34524.05451-.103.12113-.18171.15748-.18171.0424,0,.04846-.0424.02422-.109a1.46615,1.46615,0,0,1,.05452-.80557.72991.72991,0,0,0,.02422-.46638,1.27167,1.27167,0,0,1-.04845-.28468c.03028-.26045.06662-.69049.06057-.7874a7.44884,7.44884,0,0,0-.103-1.30223,1.11776,1.11776,0,0,1-.03029-.36342,5.4851,5.4851,0,0,0,.03029-.58752,1.20618,1.20618,0,0,1,.0848-.50878c.04845-.04845.05451-.11508.01211-.2241-.04846-.12114-.03028-.19383.109-.38765a1.017,1.017,0,0,1,.32708-.321,1.091,1.091,0,0,0,.41792-.61175c0-.13325.22411-.32707.38765-.32707a.84193.84193,0,0,0,.41187-.26045,5.1087,5.1087,0,0,1,1.175-.8722,5.57316,5.57316,0,0,0,.7026-.47244,1.25626,1.25626,0,0,1,.27862-.212c.03028,0,.08479-.06662.12113-.14536a1.38026,1.38026,0,0,1,.44822-.36342,1.68,1.68,0,0,0,.50272-.39975,1.17933,1.17933,0,0,1,.321-.30285c.103-.06663.19382-.15142.19382-.19382a.51287.51287,0,0,1,.109-.23016c.103-.15143.11508-.19988.15142-.61781a.57642.57642,0,0,1,.0848-.29679c.05451-.05451.04846-.12719-.01817-.29678A.46485.46485,0,0,1,25.591.632c.07268-.19382-.04845-.39975-.30284-.52695-.0848-.04845-.16354-.09085-.18171-.09691C25.08824-.004,25.03978.02028,25.00344.05663ZM14.7067,14.12683a.322.322,0,0,1-.07874.23622c-.06663.07874-.103.15748-.09086.17565.01817.01817-.01211.13325-.06662.26045a2.02332,2.02332,0,0,0-.109.53906,1.023,1.023,0,0,1-.17564.54512c-.09085.1272-.14538.25439-.12719.28468.05451.09691-.03635.29679-.17565.36947a1.2221,1.2221,0,0,1-.40582.09085,3.94961,3.94961,0,0,1-1.36886-.01817.36313.36313,0,0,0-.24833-.03634,13.25132,13.25132,0,0,1-2.7983-.103,1.43538,1.43538,0,0,0-.527-.0424c-.32707.01212-.43-.006-.51483-.09085a.2377.2377,0,0,1-.07874-.20593,1.217,1.217,0,0,1,.745-.39976,1.109,1.109,0,0,0,.4179-.16956,1.73225,1.73225,0,0,1,.75712-.40582c.17565-.04845.47849-.13325.67837-.18776a1.9075,1.9075,0,0,0,.50877-.212.51246.51246,0,0,1,.218-.109.48957.48957,0,0,0,.212-.15142c.19988-.212.533-.29679,1.24167-.315,1.0115-.03028,1.26589-.07268,1.50817-.23622.09692-.06662.14536-.06662.27862.00606A.48973.48973,0,0,1,14.7067,14.12683Z"/>

</g>
</svg>
