<?xml version="1.0" encoding="UTF-8"?>
<svg xmlns="http://www.w3.org/2000/svg"
     version="1.1"
     width="33.55459657mm"
     height="30.81807824mm"
     viewBox="0.00000000 0.00000000 95.11537733 87.35829360">

<g transform="scale(3.61514258)">   <defs>
      <style type="text/css"><![CDATA[
      .b {
        stroke: #000;
        stroke-linecap: round;
        stroke-linejoin: round;
        stroke-width: .01px;
      }
    ]]></style>
   </defs>
   <path class="b"
         d="M16.49056.06107c-.12109.05469-.28125.28906-.42969.63281-.16797.375-.32031.58203-.49609.6875-.30469.18359-.35547.27344-.75391,1.57813-.30469.97266-.42188,1.42969-.66406,2.51953-.04688.23828-.16016.64844-.24609.89453-.08984.25781-.13672.49609-.11328.53516s0,.22656-.05469.41797c-.06641.19922-.09766.39844-.07422.46484.06641.18359-.375,1.47656-.64063,1.91016-.11719.19141-.15234.35156-.11719.57422.02344.1875,0,.37109-.06641.45703-.13672.19922-.51953,1.3125-.51953,1.51953,0,.09766-.11328.50391-.23828.90625-.13672.40625-.23438.88672-.23438,1.0625.00781.18359-.04688.49609-.12891.69531-.07813.19922-.14063.51172-.14844.69531-.00781.28906.03125.38672.24609.60156.25.23828.27344.25.52734.16016.14453-.05469.35938-.09766.47266-.09766.12109,0,.3125-.04688.44141-.10938.11719-.06641.52734-.19141.90234-.29688.91406-.23828,1.01563-.29688,1.06641-.54297.02344-.11328.08594-.41016.125-.64844.22656-1.15234.27344-1.35156.41016-1.76953.16016-.48047.19922-.63281.32813-1.39063.04688-.26563.16797-.73828.27734-1.03906.11328-.3125.23438-.71484.26563-.89844s.09766-.38281.14453-.4375c.04688-.05859.10156-.32813.12891-.60938.02344-.27344.09375-.59375.16797-.69531.07031-.10547.125-.25.125-.3125s.12891-.49609.28125-.96094.28125-.92578.28125-1.02344.08594-.41406.19141-.70313c.22266-.60156.39844-1.36719.53516-2.33594.08984-.60938.08984-.73828-.03906-1.15234-.36719-1.22266-.41797-1.27344-1.20703-1.33594-.32813-.02344-.64063,0-.74609.04688Z"/>
   <path class="b"
         d="M6.4515.45169c-.79297.14453-1.14453.625-.89453,1.21094.11719.28516.33594.32031.79688.10156.52734-.23828,1.44141-.3125,1.5625-.125.10938.17578-.16797.55859-.65625.89453-.51172.35938-1.44922,1.28125-1.67969,1.66406-.09766.15234-.28125.41406-.40234.57422-.39844.52344-.63281,1.01953-.57422,1.25.12891.56641.12891,1.13672-.00781,1.57422-.07422.25781-.11328.55469-.08203.66406.03125.12109,0,.27344-.07813.38672-.08203.125-.12109.35156-.11328.65625.00781.24609-.03906.71094-.11328,1.02344-.07031.32031-.14063.91797-.16797,1.33594-.02344.41406-.09375.91797-.16016,1.10938-.0625.19531-.14063.50391-.17578.70703-.08594.59766-.31641,1.38281-.50391,1.67969-.19141.32031-.19922.55078-.05469,1.23047.08203.40234.13672.48828.30469.54297.12109.04297.23047.12109.25391.18359.08203.21875-.16797.33594-.84766.39453-1.42969.10938-1.76563.17578-1.85547.32813-.04688.07813-.14453.19922-.20703.26953-.0625.07422-.12891.30469-.14453.53125-.00781.21484-.11328.58203-.22266.82422-.11328.23828-.21875.48438-.23438.56641-.01563.07031-.07031.25391-.10938.40625-.15234.48828-.11328.58594.36719.90625.25391.16797.55078.32031.66406.34375.11328.01563.3125.07031.44922.11328.13281.04688.31641.07813.42188.07813.09766,0,.30469.0625.47266.15234.25391.12891.53516.20703,1.05469.29688.06641.01563.28906.0625.49609.10938.26563.06641.42578.06641.52734.00781.11328-.0625.23438-.05469.41797,0,.18359.07422.30469.07422.44922,0,.13281-.05469.24609-.0625.34375-.00781.08594.04297.61328.08203,1.17578.08203h1.21484c.09766,0,.23828-.00781.32031-.00781.07031-.00781.24609-.00781.375-.00781h.5625c.17578,0,.69531.00781,1.16016.03125.46094.01563.92578.00781,1.03906-.01563.27734-.08203,1.24609.03906,1.67969.19922.20703.07422.59766.13672.91016.13672.29688,0,.65625.03906.80078.09375.3125.11328,1.33594.10547,1.80078-.02344.41406-.10938,1.69531.05078,2.36719.29688.22266.08203.59375.15234.83203.16797.24219.00781.47266.03906.51172.0625.03906.02734.20703.05859.36719.06641,1.57813.10156,1.90625.15234,2.08984.26172.23828.16016.625.30469.99219.37109.35156.0625.64844-.21875.71875-.69922.10547-.66016.19922-.83984.61719-1.10156.32031-.20703.40625-.32031.48047-.58594.04688-.18359.19141-.54297.32031-.80469.28516-.58594.29297-.75391.03125-1.03516-.16797-.18359-.28125-.21484-.77734-.25391-.32031-.01563-.87109-.08984-1.22266-.15234-1.52734-.28125-2.09766-.35156-2.28906-.3125-.12109.02344-.33594-.00781-.48828-.07031-.15234-.06641-.51172-.14453-.79297-.17578-.27734-.03516-.64453-.11328-.82031-.16797-.16797-.06641-.49609-.11328-.73828-.11328-.45703,0-.71875-.16016-.63281-.39453.08984-.23047.5625-.78906.80078-.94922.13672-.08984.45703-.20703.71875-.25781.73828-.15234.96875-.29688,1.08203-.67188.04688-.18359.12891-.4375.16797-.57422s.07031-.30469.07031-.38672c0-.07031.08203-.28516.17578-.46875.08984-.18359.20313-.44922.23438-.57813.03125-.13672.16016-.49609.26953-.80078.44141-1.13281.83203-2.35938,1-3.125.10547-.44141.22656-.88281.28125-.99219.05469-.11328.12891-.35156.16016-.54688.03125-.18359.12891-.52734.21484-.75781.08984-.22656.21875-.63281.28125-.89844.0625-.26172.18359-.58984.26563-.73438.07813-.13672.17578-.42578.19922-.64063.03125-.20703.10156-.45703.16016-.54297.04688-.08984.12109-.28906.15234-.44141.02344-.15234.07031-.35156.08594-.4375.12109-.49609.12891-.71484.01563-1.06641-.0625-.20703-.13281-.47266-.16797-.58984-.08594-.38672-1.07813-1.17578-1.48047-1.18359-.28516,0-.87109.30078-.92578.48828-.07422.22266-.3125.32422-.54297.23828-.28125-.11328-.77734.23047-.77734.53516-.00781.12109-.05469.30469-.12109.41797-.0625.10938-.10938.28516-.11719.39844,0,.35156-.41797,1.59375-.96094,2.86328-.13672.32031-.26563.76953-.28906.99219-.02344.22656-.09766.57813-.16016.77734-.05469.19922-.11328.51172-.11328.6875s-.07031.51953-.16016.76172c-.08594.23828-.16016.51953-.16016.61328,0,.09766-.04688.22656-.10156.28125-.25.24609-.36719.50391-.29688.625.11328.17578.09766.45313-.03906.71094-.06641.12891-.12891.32813-.15234.44922-.02344.125-.17578.49609-.33594.83203s-.29688.75-.30469.92578c-.00781.18359-.09375.48828-.18359.67969-.09766.19922-.21484.59375-.26563.88281-.05469.28516-.19922.71875-.32031.95703-.125.24219-.26172.58594-.30859.76172-.20313.71094-.29688.74219-2.16797.71094-1.70703-.02344-2.27344-.07031-3-.23047-.26563-.05859-.83984-.09766-1.28125-.08984-.71875.00781-1.87891-.16797-2.02344-.30469-.02344-.02344-.03906-.54297-.03906-1.15234.00781-1.05469.08594-1.69531.30078-2.375.05859-.17578.16016-.60547.23438-.96094.07031-.35156.16797-.78906.20703-.98047.04688-.1875.07813-.47266.07813-.64063,0-.16016.04297-.44141.08984-.61719.24609-.9375.3125-1.375.35156-2.39844.02344-.61719.08203-1.34375.12891-1.625.04688-.27344.07031-.60156.04688-.71875-.02344-.12109.03906-1.15234.13672-2.29688.20703-2.33594.20703-2.30469-.32813-2.89844-.19141-.20703-.44141-.375-.6875-.45313-.41797-.14453-1.36719-.16016-2-.03516Z"/>

</g>
</svg>
