<?xml version="1.0" encoding="UTF-8"?>
<svg xmlns="http://www.w3.org/2000/svg"
     version="1.1"
     width="117.08201262mm"
     height="41.04962817mm"
     viewBox="0.00000000 0.00000000 331.88602035 116.36113804">

<g transform="scale(4.13392926)">   <defs>
      <style type="text/css"><![CDATA[
      .b {
        stroke: #000;
        stroke-linecap: round;
        stroke-linejoin: round;
        stroke-width: .25px;
      }
    ]]></style>
   </defs>
   <path class="b"
         d="M70.87985.125c.12016,1.40531.82427,2.1861,1.92197,3.10085,1.64655-.64033,2.20549-.45537,3.93343-1.28065,1.07838-.51504,2.75193-1.49062,3.29274-.42492.46063.9077-.39388,1.86694-1.08198,2.61701-5.96124,6.49804-13.29808,9.34515-20.92074,12.11723-7.62266,2.77208-15.86903,4.0583-23.82592,5.63224-10.79065,2.13448-21.34454,4.45127-32.22238,6.08427-.68156.10232-1.55587.10854-1.85197-.5138.39566-.77248,2.58489-2.08062,3.43022-2.27736,2.73289-.63607,4.58512-1.10195,7.318-1.73803,3.43603-.79973,7.02657-1.42662,10.51963-1.92098,2.59282-.36695,4.70827.12449,7.25095-.50173,2.07124-.51012,4.0622-1.29767,6.09685-1.93836,4.31757-1.35955,9.23579-1.62607,13.63734-2.68251,7.46314-1.79127,14.24854-5.06572,20.92051-8.8594-1.53891-2.07131-2.6052-3.63827-4.63795-5.22775,1.0977-1.37213,2.63808-1.83191,4.47806-2.02801.22069-.02352,1.52908-.09296,1.74125-.15809h0Z"/>

</g>
</svg>
