<?xml version="1.0" encoding="UTF-8"?>
<svg xmlns="http://www.w3.org/2000/svg"
     version="1.1"
     width="53.22380962mm"
     height="25.11475726mm"
     viewBox="0.00000000 0.00000000 150.87064874 71.19147856">

<g transform="scale(4.41467152)">   <defs>
      <style type="text/css"><![CDATA[
      .b {
        stroke: #000;
        stroke-linecap: round;
        stroke-linejoin: round;
        stroke-width: .01px;
      }
    ]]></style>
   </defs>
   <path class="b"
         d="M25.14953.12111c-.47266.19141-1.51953.22266-4.39063.13672-1.10547-.03906-1.36328-.02344-1.5625.07813-.23828.12891-2.03906.33594-2.76563.32813-.20313-.00781-.47266.05078-.60156.11328-.13672.0625-.61719.17578-1.08203.25391-.46094.07422-1.01563.16797-1.23828.21094-.36719.0625-.96094.10938-2.76172.19922-2,.10547-3.03906.25391-4.31641.64063-.37891.10938-.90625.23828-1.17578.27734-.81641.13672-3.01953,1.19531-3.37891,1.63281-.05469.07422-.24609.16797-.41406.20703-.24219.06641-.33594.14453-.42578.35547-.0625.15234-.22266.35156-.35938.45313-.33594.25-.625.76172-.65625,1.15234-.01563.17578-.01563.74609-.01563,1.25781.00781.88672.02344.96094.28125,1.47266.32813.67188,1,1.24609,1.60547,1.39844.22656.04688.57031.18359.76953.28906.33594.16797.47266.18359,1.60938.19141.67969.00781,1.45313.05469,1.72656.11328.3125.0625.64063.07813.91797.03906,1.73828-.26563,2.625-.33594,3.83203-.32031,1.57031.01563,3.17969-.05469,3.30469-.13672.05859-.03906,1.03125-.07031,2.17578-.07031,1.14453-.00781,2.49609-.03516,3-.06641,2.73828-.14453,5.29688-.03906,6.12109.25.17578.0625.57813.16016.88672.22266.78516.15234,1.41016.48828,2.05078,1.11328.70313.67969,1,1.28516.86328,1.76563-.05469.17578-.16797.45703-.25781.63281-.21484.41797-.39844,1.16797-.35156,1.375.03906.15234.47266.43359.67188.43359.04297,0,.21875-.10547.39453-.23047.22266-.16016.33594-.3125.375-.48828.02344-.16016.16016-.35938.33594-.51172.80078-.69141,1.16797-1.21875,1.56641-2.24219.12109-.30469.33594-.67969.48828-.83984.41797-.4375.61719-.83203.61719-1.18359,0-.25391.0625-.40625.33594-.75.28906-.36328.35156-.49609.39063-.90625.03125-.27344.15234-.83203.27344-1.24609.19922-.69141.21484-.80859.13672-1.24219-.05078-.26172-.06641-.57422-.04297-.69531.05859-.27344-.23828-.77734-.63672-1.08984-.57031-.45313-1.46484-.83203-2.40234-1.01563-.11719-.02344-.29688-.11719-.38281-.20703-.14453-.14453-.16797-.23047-.12109-.58203.03906-.38672.02344-.44141-.24609-.80859-.16797-.22656-.50391-.55469-.75391-.73828-.52734-.39844-1.54297-.90234-1.81641-.90234-.10156,0-.29297-.05469-.42969-.12891-.12891-.0625-.51172-.15234-.85547-.19141-.33594-.03906-.67969-.08984-.76953-.11328-.08984-.01563-.32031.03516-.51953.11328ZM23.95031,3.48048c.20703.20703.19922.36719-.04297.60156-.13281.14453-.27734.19922-.51172.19922-.32813,0-.58984.18359-.6875.48828-.07813.23828-.75781.60938-1.67969.91016-.48047.16016-.98438.35156-1.12109.42578-.29297.15234-.6875.24609-1.47656.34375-.32813.04688-.85156.13672-1.16016.20703-.53906.12109-.58594.12109-1.20313-.04688-.35156-.10547-.91016-.21484-1.23828-.25-.32813-.03906-.83203-.125-1.12109-.19141-.28516-.07031-.74219-.11719-1.01563-.125-.67969,0-.87109-.20313-.65625-.67188.12891-.28125.72266-.48828,3.20703-1.16016.34766-.09766.80078-.16797,1.01953-.16797.21484,0,.49609-.04297.62109-.08984.32031-.12891,3.51953-.47266,5.02344-.54297.70703-.03125,1.41797-.06641,1.58594-.07422.19922-.00781.34375.03516.45703.14453Z"/>

</g>
</svg>
