<?xml version="1.0" encoding="UTF-8"?>
<svg xmlns="http://www.w3.org/2000/svg"
     version="1.1"
     width="35.20398448mm"
     height="38.93556150mm"
     viewBox="0.00000000 0.00000000 99.79080435 110.36858893">

<g transform="scale(6.45746798)">   <defs>
      <style type="text/css"><![CDATA[
      .a {
        stroke: #000;
        stroke-linecap: round;
        stroke-linejoin: round;
        stroke-width: 0.01px;
      }
    ]]></style>
   </defs>
   <path class="a"
         d="M1.01647.14531a.70646.70646,0,0,0,.0606.68443,5.6201,5.6201,0,0,0,.43.48455,4.60547,4.60547,0,0,1,.92671,1.15687A.96768.96768,0,0,0,2.67,2.8164a3.77719,3.77719,0,0,1,.43.58753l.18776.34524-.12114.12114a.32147.32147,0,0,1-.47849.03028,2.3855,2.3855,0,0,0-.89037-.2665H1.4526a1.74787,1.74787,0,0,0-1.00545.218l-.44215.212.01817.34524.01817.34525.50878-.01817a1.62932,1.62932,0,0,1,1.18715.31495.47863.47863,0,0,0,.37553.12114.34236.34236,0,0,1,.315.0848,2.2594,2.2594,0,0,0,.79345.35736,2.08936,2.08936,0,0,1,.92065.23016c.15748.13325.40582.36341.61781.55724a.4611.4611,0,0,0,.23016.1393.92759.92759,0,0,1,.33919.18171,1.0325,1.0325,0,0,0,.36341.18171,1.15028,1.15028,0,0,1,.30285.06663c.24833.08479.46032-.03029.81768-.4361.19988-.23622.315-.321.44821-.33313a.82455.82455,0,0,0,.32708-.09691,1.00525,1.00525,0,0,1,.41792-.06663,9.016,9.016,0,0,1,2.47122.27256A.58689.58689,0,0,1,10.853,6.826a2.65159,2.65159,0,0,0,.38159.81768c.09085.1272.11508.315.13325.93882.01817.424.0424.99939.06057,1.278a1.82338,1.82338,0,0,1-.03029.61781,1.74632,1.74632,0,0,0-.08479.50878c-.02423.424-.04846.49061-.218.58146-.09086.04846-.15143.02423-.29073-.103a2.03033,2.03033,0,0,1-.24228-.28467,1.25737,1.25737,0,0,0-.44216-.30285c-.31495-.15141-.39975-.2241-.44215-.38158a.47219.47219,0,0,0-.19382-.25439.36533.36533,0,0,1-.17565-.18171c-.01817-.07268-.06057-.1272-.09085-.1272a.68176.68176,0,0,1-.22418-.1392,2.97582,2.97582,0,0,0-1.30829-.43c-.5633-.08479-.75106-.04239-1.066.22411a.69449.69449,0,0,1-.3089.16354.291.291,0,0,0-.18171.09085.47428.47428,0,0,1-.19988.1272.89623.89623,0,0,0-.27861.19987,2.22758,2.22758,0,0,1-.32708.27256.64794.64794,0,0,0-.23016.26651,1.1078,1.1078,0,0,1-.16959.28467,4.74823,4.74823,0,0,0-.59964,1.06,2.83055,2.83055,0,0,0-.06662.64809c0,.38764.01817.45427.1817.66021a1.0496,1.0496,0,0,1,.26045.70865.35989.35989,0,0,1-.11508.38159.41814.41814,0,0,1-.62992-.01211c-.15748-.13326-.19988-.14537-.321-.07874a3.552,3.552,0,0,1-1.42337.19987c-.62386.01212-.76317.03029-.86614.1272a.45929.45929,0,0,1-.33313.103.47739.47739,0,0,0-.3937.15748c-.33918.315-.29679.87219.06663.89642a2.02465,2.02465,0,0,1,.40581.0848.9698.9698,0,0,0,.57541.01211A4.05191,4.05191,0,0,1,2.664,15.8692h.34524a1.36251,1.36251,0,0,1,.41187.06662c.14537.06056.22411.05451.49667-.06057.30284-.12719.33313-.12719.50878-.04241a.77337.77337,0,0,0,.29073.09692,2.227,2.227,0,0,1,.47244.12719c.27862.09692.38764.109.49667.06057a3.84473,3.84473,0,0,1,1.39309,0,4.6275,4.6275,0,0,0,.86613.06057c.38159-.00606.76317-.00606.848-.00606,1.36281.00606,1.32646,0,1.77468.18778a2.792,2.792,0,0,0,.54512.17565.60717.60717,0,0,1,.23622.06661,1.00728,1.00728,0,0,0,.36947.06663.88822.88822,0,0,1,.39976.07874.30648.30648,0,0,0,.25439.03028,2.09674,2.09674,0,0,1,.49666-.09691,1.31726,1.31726,0,0,1,1.04179.27862.6479.6479,0,0,0,.30285.12719,1.33487,1.33487,0,0,0,.848-.37552,1.93441,1.93441,0,0,1,.18171-.32708,1.32814,1.32814,0,0,0,.18777-.533c.03634-.30891.03028-.33313-.20594-.6057a2.14707,2.14707,0,0,1-.28467-.39369c-.05452-.18777-.44822-.22411-.61781-.06057a.61361.61361,0,0,1-.30284.14536,2.98767,2.98767,0,0,0-.90248.29679.80141.80141,0,0,1-.71472.05451,1.29589,1.29589,0,0,0-.49667-.03634,3.12012,3.12012,0,0,1-1.272-.14536,1.32952,1.32952,0,0,1-.3937-.40582l-.19987-.30284.07268-.41793a2.85282,2.85282,0,0,1,.61175-1.32041c.09691-.04845.17565-.01817.424.18171a.93234.93234,0,0,0,.48455.24228.89445.89445,0,0,1,.33919.07268c.13325.06057.17565.04846.30284-.07268a.47611.47611,0,0,0,.15143-.22411,1.59355,1.59355,0,0,1,.14536-.37553.725.725,0,0,0,.11508-.424.41369.41369,0,0,1,.06663-.27862A1.50882,1.50882,0,0,0,12.876,11.066a1.78943,1.78943,0,0,1,.12114-.75712,2.95674,2.95674,0,0,0,.13325-1.12053,10.74712,10.74712,0,0,1,.07268-1.13264.691.691,0,0,0,.00606-.33313,1.09277,1.09277,0,0,1-.04846-.30284,2.22041,2.22041,0,0,0-.38764-.75106c-.20593-.3089-.43-.66626-.49667-.7874-.17565-.32707-.38764-.57541-.50272-.58752a2.61936,2.61936,0,0,1-.34524-.13325c-.13325-.06663-.47244-.212-.75712-.321a2.96922,2.96922,0,0,0-1.30223-.218c-.43-.01211-.84191-.02422-.90854-.01817-.06662,0-.36341.01212-.66626.02423a5.15138,5.15138,0,0,0-.83585.09085.60351.60351,0,0,1-.40582.00606A.7622.7622,0,0,0,6.26794,4.664.60041.60041,0,0,1,5.959,4.567a.33528.33528,0,0,0-.25439-.05451.221.221,0,0,1-.22418-.07893c-.06057-.06663-.19382-.212-.29679-.321a2.37949,2.37949,0,0,1-.29679-.43A.53684.53684,0,0,0,4.681,3.42216a.96672.96672,0,0,1-.29679-.321C4.11161,2.7014,4.0571,2.63478,3.90568,2.55a.58478.58478,0,0,1-.218-.35736,2.06,2.06,0,0,0-.71472-1.066A5.791,5.791,0,0,1,2.28239.47238L1.85841.006H1.48894C1.15581,0,1.1013.01811,1.01647.14531ZM7.21272,11.35665a.45186.45186,0,0,0,.38764.02423,1.045,1.045,0,0,1,.93276.29073c.09086.13325.09086.17565,0,.46032a2.98538,2.98538,0,0,0,.02423,2.21077c.0424.103.02423.16354-.07268.26045-.109.109-.16959.12114-.4361.0848a8.25705,8.25705,0,0,0-.86008-.03634,1.40641,1.40641,0,0,1-.68443-.09086,1.91439,1.91439,0,0,1-.4361-.81768,1.3396,1.3396,0,0,0-.18776-.34524,1.343,1.343,0,0,1-.20594-.4361c-.01211-.0848-.03634-.24833-.06057-.36342-.03634-.1817-.01211-.24833.14537-.44821a1.41668,1.41668,0,0,0,.18776-.27256,2.7,2.7,0,0,1,.20594-.27256.7496.7496,0,0,1,.4361-.27862C6.95227,11.25368,7.031,11.25974,7.21272,11.35665Z"/>

</g>
</svg>
