<?xml version="1.0" encoding="UTF-8"?>
<svg xmlns="http://www.w3.org/2000/svg"
     version="1.1"
     width="30.35153686mm"
     height="26.87180644mm"
     viewBox="0.00000000 0.00000000 86.03582992 76.17209576">

<g transform="scale(5.31256553)">   <defs>
      <style type="text/css"><![CDATA[
      .a {
        stroke: #000;
        stroke-linecap: round;
        stroke-linejoin: round;
        stroke-width: 0.01px;
      }
    ]]></style>
   </defs>
   <path class="a"
         d="M13.00836.19882a3.63537,3.63537,0,0,0-.32707.4785,1.29848,1.29848,0,0,1-.29679.38764c-.12114.07874-.14537.14537-.14537.37553a1.58947,1.58947,0,0,1-.07268.47849.47177.47177,0,0,0,.01212.3937,1.87378,1.87378,0,0,1,.14536.73289,1.53914,1.53914,0,0,0,.59358.963c.26046.24833.28467.3937.109.6178a1.02664,1.02664,0,0,1-.6481.29679,1.911,1.911,0,0,0-.72683.37553A2.1115,2.1115,0,0,1,11.052,5.541a2.12238,2.12238,0,0,0-.67837.3089,1.24144,1.24144,0,0,1-.33313.212.21593.21593,0,0,0-.1272.09691.76211.76211,0,0,1-.36947.15142,3.24332,3.24332,0,0,0-.7026.26651,2.3035,2.3035,0,0,1-.5209.212,1.60394,1.60394,0,0,0-.642.23016,2.41881,2.41881,0,0,1-.5027.21808,1.92445,1.92445,0,0,0-.58752.3089.71347.71347,0,0,1-.24228.17565.70734.70734,0,0,0-.2241.11508.58582.58582,0,0,1-.24834.103,1.006,1.006,0,0,0-.3089.103c-.109.05451-.24833.12719-.315.15748a3.65941,3.65941,0,0,1-.40581.13931.99223.99223,0,0,0-.32708.14536,2.04569,2.04569,0,0,1-.41792.24228,3.31994,3.31994,0,0,0-.67838.43,3.915,3.915,0,0,1-.50878.3513,3.87526,3.87526,0,0,0-1.387.98728,3.22667,3.22667,0,0,0-.51484.58752.79417.79417,0,0,1-.17565.23016,2.08931,2.08931,0,0,0-.315.44216,2.5345,2.5345,0,0,1-.3513.49061.5801.5801,0,0,0-.14536.36341A.4463.4463,0,0,0,.198,13.1a1.04576,1.04576,0,0,0,.45427.28467.62209.62209,0,0,1,.315.17565c.03634.06663.14536.103.3513.109a2.06454,2.06454,0,0,1,1.06.24833.98916.98916,0,0,0,.51483.20594.61391.61391,0,0,1,.18777.09085.34369.34369,0,0,0,.27256.04846,2.58247,2.58247,0,0,1,.4361-.06057c.16959-.00606.35735-.01817.424-.01817a1.99167,1.99167,0,0,1,.73894.06057c.1696.05451.25439.03634.636-.13326a1.80492,1.80492,0,0,1,.67231-.18776c.12114,0,.22411-.02423.22411-.05451,0-.11508.45427-.25439.86614-.27256.321-.00606.44821-.0424.54512-.13326a4.30028,4.30028,0,0,1,1.85341-.56329c.06663.0424.16354-.00606.33313-.15142a1.245,1.245,0,0,1,.39976-.24228,7.80052,7.80052,0,0,0,.98728-.33918c.15748-.0848.58146.218.62992.44215a.45146.45146,0,0,0,.16353.26045.86494.86494,0,0,1,.24228.32707,1.66266,1.66266,0,0,0,.97516.75711.65193.65193,0,0,1,.28468.09086.7357.7357,0,0,0,.34524.03634.69872.69872,0,0,1,.48455.109,1.23523,1.23523,0,0,0,.98728.07269.9922.9922,0,0,0,.31609-1.36713l-.00109-.00174c-.09086-.12719-.18171-.23016-.212-.23016-.06663,0-.23622-.32707-.23622-.46032a.85814.85814,0,0,0-.212-.33313.87717.87717,0,0,1-.212-.34525.28545.28545,0,0,0-.07268-.1817,2.32987,2.32987,0,0,1-.17565-.87826,1.39433,1.39433,0,0,0-.41187-.81162c-.103-.06663-.17565-.06057-.3937.01211a.8338.8338,0,0,1-.36341.05451c-.05451-.01817-.09691-.01211-.09691.02423a4.81609,4.81609,0,0,1-1.04785.64809.81683.81683,0,0,0-.29072.23016,1.43545,1.43545,0,0,1-.83585.36342.36887.36887,0,0,0-.28468.09691.6594.6594,0,0,1-.36341.12719.92316.92316,0,0,0-.39977.12114.84046.84046,0,0,1-.29073.12114.95971.95971,0,0,0-.32708.18171.77855.77855,0,0,1-.43.1817.44224.44224,0,0,0-.25439.06663.30061.30061,0,0,1-.14536.07268c-.04846.01212-.16354.0424-.26651.07874a2.33514,2.33514,0,0,1-.82979.20594,2.0193,2.0193,0,0,0-.47244.05451,1.01159,1.01159,0,0,1-.315.03029.64074.64074,0,0,0-.3089.12113c-.14537.0848-.27862.13931-.29679.12114-.02423-.01817-.103.00606-.18171.05451a1.54075,1.54075,0,0,1-.854.13931,1.4832,1.4832,0,0,1-.41187-.24833,1.15476,1.15476,0,0,0-.34525-.212,1.09507,1.09507,0,0,1-.33313-.23017c-.13931-.12719-.34524-.29073-.45427-.36947-.28467-.19987-.34524-.33918-.19987-.48455a2.57258,2.57258,0,0,0,.30273-.47234,1.93172,1.93172,0,0,1,.43-.53906,1.23962,1.23962,0,0,0,.29679-.30891.792.792,0,0,1,.218-.23622,3.29548,3.29548,0,0,0,.37553-.3089c.35736-.33313.5633-.44215.75712-.39975.09691.01817.1696.00605.1696-.03029a3.17648,3.17648,0,0,1,1.0963-.58146,1.42845,1.42845,0,0,0,.69048-.26045,4.45924,4.45924,0,0,1,1.41126-.50272.49926.49926,0,0,0,.28468-.06057,3.41326,3.41326,0,0,1,1.25984-.54512c.24226,0,.58752-.14537.58752-.24228s.24833-.19988.527-.218a1.01914,1.01914,0,0,0,.39975-.09691c.212-.11508.95094-.47244,1.19322-.58146a2.85184,2.85184,0,0,0,.56934-.315c.09692-.06057.19987-.103.2241-.0848.03028.01212.109-.05451.18172-.15748a2.15129,2.15129,0,0,1,.38158-.34524A5.1784,5.1784,0,0,0,16.164,3.833a1.27664,1.27664,0,0,0-.13324-.8722c-.09691-.14536-.12719-.15748-.41793-.12719a1.79868,1.79868,0,0,0-.40581.07874c-.13325.07268-.69049-.315-.7874-.53907a.88243.88243,0,0,1-.03028-.424.48548.48548,0,0,0-.05451-.38159c-.06057-.09691-.07269-.16959-.03636-.23016A1.15873,1.15873,0,0,0,14.35905.9196.78257.78257,0,0,0,14.135.3018L13.91084.005h-.36946C13.21431.01106,13.15979.02923,13.00836.19882Z"/>
   <path class="a"
         d="M4.61959,1.01045c-.37553.38764-.55723.6602-.55723.86008a.63824.63824,0,0,1-.09691.3089c-.07874.109-.09086.22411-.06663.49667.02423.315.01211.38158-.103.527a.96849.96849,0,0,0-.18171.38158c-.04239.22411-.41792.78135-.527.78135a.97708.97708,0,0,0-.23621.29073,1.25166,1.25166,0,0,1-.43609.43609,1.90288,1.90288,0,0,0-.321.212,3.4882,3.4882,0,0,1-.73894.533,1.95973,1.95973,0,0,0-.8722.84191.45282.45282,0,0,1-.23016.321c-.29073.14537-.28467.32707.02423.636l.2665.2665L.69466,7.7639a.64258.64258,0,0,1,.22411-.14536A1.40288,1.40288,0,0,0,1.258,7.346a.9846.9846,0,0,1,.33918-.2544.27485.27485,0,0,0,.1696-.09691,1.36349,1.36349,0,0,1,.321-.218,2.25874,2.25874,0,0,0,.41793-.26651.61749.61749,0,0,1,.29073-.14536.83686.83686,0,0,0,.34526-.15143A.93355.93355,0,0,1,3.43239,6.062c.03634,0,.103-.07874.14536-.17565A5.22441,5.22441,0,0,1,4.70434,4.8687a.24081.24081,0,0,0,.11508-.14537,2.88658,2.88658,0,0,1,.34524-.49666A1.41838,1.41838,0,0,0,5.625,3.14248a1.48243,1.48243,0,0,1,.19382-.73894c.20594-.41793.20594-.45427.0424-1.03574-.06663-.24227-.12114-.321-.29073-.40581a1.29909,1.29909,0,0,0-.315-.109A.581.581,0,0,1,5.02535.78634C4.92239.73183,4.86182.76817,4.61959,1.01045Z"/>
   <path class="a"
         d="M4.69828,6.607c.01817.03029.04846.06057.06663.06057.01211,0,.02423-.03028.02423-.06057a.06226.06226,0,0,0-.06377-.06071l-.00286.00014C4.69222,6.54646,4.68011,6.57069,4.69828,6.607Z"/>

</g>
</svg>
