<?xml version="1.0" encoding="UTF-8"?>
<svg xmlns="http://www.w3.org/2000/svg"
     version="1.1"
     width="39.13749190mm"
     height="37.12233272mm"
     viewBox="0.00000000 0.00000000 110.94091212 105.22869800">

<g transform="scale(5.40924245)">   <defs>
      <style type="text/css"><![CDATA[
      .a {
        stroke: #000;
        stroke-linecap: round;
        stroke-linejoin: round;
        stroke-width: 0.01px;
      }
    ]]></style>
   </defs>
   <path class="a"
         d="M14.79165.12149a.83716.83716,0,0,1-.71471.315.58839.58839,0,0,0-.50879.20593.781.781,0,0,1-.36341.20594,1.47467,1.47467,0,0,0-.7026.3937,7.63529,7.63529,0,0,1-1.36281,1.0963,2.91273,2.91273,0,0,0-.56935.39975,1.31378,1.31378,0,0,1-.31495.23016c-.03029,0-.103.12114-.15748.26651a.80177.80177,0,0,1-.35736.43,1.57147,1.57147,0,0,0-.41793.43.9773.9773,0,0,1-.32707.33919,1.314,1.314,0,0,0-.30285.19987c-.07268.06663-.1817.1696-.24227.22411a1.15192,1.15192,0,0,1-.23017.15142c-.29679.1272-.51483.30285-.54512.44216-.0848.424-.0848.60569.02423.73288.09691.12114.12114.1272.32707.04846a.5432.5432,0,0,1,.38764-.01817c.13931.04845.22411.03028.46639-.09086A2.27544,2.27544,0,0,1,9.4858,5.93a6.64018,6.64018,0,0,0,.73288-.16353c1.00545-.29073,1.15082-.32708,1.36281-.28468a1.657,1.657,0,0,0,.99939-.12114,3.40872,3.40872,0,0,1,1.78073-.12113,1.72633,1.72633,0,0,0,.39976.12113.77147.77147,0,0,1,.69048.50273l.13931.30284-.20593.3513a1.05087,1.05087,0,0,1-.50273.50878,1.79578,1.79578,0,0,0-.46638.34525,1.00653,1.00653,0,0,1-.30284.23622,5.62619,5.62619,0,0,0-.76923.51483c-.3513.26045-.73289.54513-.848.62992a.7553.7553,0,0,1-.315.15143,1.73065,1.73065,0,0,0-.47849.218,1.0476,1.0476,0,0,1-.424.17565,2.59394,2.59394,0,0,0-.854.56935,4.33128,4.33128,0,0,1-.4785.36947,6.5882,6.5882,0,0,0-.53906.39975,3.38948,3.38948,0,0,1-.93882.50878.57037.57037,0,0,0-.19382.18171.9701.9701,0,0,1-.38765.24833,1.82254,1.82254,0,0,0-.533.3513c-.71472.67232-.82374.75106-1.06.80557a1.45845,1.45845,0,0,0-.80557.76923,1.37222,1.37222,0,0,1-.19382.32707,3.29976,3.29976,0,0,1-.73895.64809,2.40707,2.40707,0,0,0-.46638.3513,2.135,2.135,0,0,1-.46638.34525.7459.7459,0,0,0-.29073.23622,7.54826,7.54826,0,0,1-1.18716,1.15081,1.01038,1.01038,0,0,0-.28467.32707,2.81458,2.81458,0,0,1-.81163.79952c-.02423,0-.09691.103-.15142.2241a1.77878,1.77878,0,0,1-.34524.46638c-.38765.38765-.67232.97517-.49061,1.01756a1.54658,1.54658,0,0,0,.87219-.01817c.24833-.09085.321-.212.39976-.66626.04845-.24227.12113-.34524.56329-.78134a4.20936,4.20936,0,0,1,.69049-.5754,3.34565,3.34565,0,0,0,.60569-.48456,5.08144,5.08144,0,0,1,.59358-.49061c.09085-.04845.16353-.11508.16353-.14536a.69354.69354,0,0,1,.29073-.20594,2.91446,2.91446,0,0,0,.527-.38158,5.14282,5.14282,0,0,1,.55118-.4361,1.94262,1.94262,0,0,0,.424-.38159,1.4649,1.4649,0,0,1,.533-.38764,2.0002,2.0002,0,0,0,.50878-.33313,3.46946,3.46946,0,0,1,.963-.56935,1.23805,1.23805,0,0,0,.38159-.32707,2.17844,2.17844,0,0,1,.55118-.43,4.39093,4.39093,0,0,1,1.169-.44216,1.18977,1.18977,0,0,0,.3937-.24833,6.14206,6.14206,0,0,1,.65415-.424,8.53118,8.53118,0,0,0,1.39914-1.1387,1.578,1.578,0,0,1,.46639-.23622,1.146,1.146,0,0,0,.3937-.18171,2.22878,2.22878,0,0,1,.50272-.315c.27256-.14536.76923-.41792,1.10236-.60569a3.40076,3.40076,0,0,1,.71471-.34524.82948.82948,0,0,0,.33313-.24228,2.15526,2.15526,0,0,1,.56329-.38764A2.65518,2.65518,0,0,0,17.34154,7.42c.12719-.13325.49061-.49666.81768-.81162A13.20635,13.20635,0,0,0,20.0551,4.66417a1.16348,1.16348,0,0,0,.28467-.87825,4.21881,4.21881,0,0,1,.103-.81163.59946.59946,0,0,0-.03634-.59358.73452.73452,0,0,0-.1696-.26044,4.17075,4.17075,0,0,1-.87825-.79952,1.95341,1.95341,0,0,0-.8298-.47243.94063.94063,0,0,1-.315-.18171A.78854.78854,0,0,0,17.86856.4849a1.39828,1.39828,0,0,1-.41187-.15142,1.28393,1.28393,0,0,0-.4361-.14537,2.629,2.629,0,0,1-.50878-.06662c-.321-.06057-.39971-.05449-.56329.03028A.94293.94293,0,0,1,15.143.08515C14.9249-.02994,14.87039-.02388,14.79165.12149Z"/>

</g>
</svg>
