<?xml version="1.0" encoding="UTF-8"?>
<svg xmlns="http://www.w3.org/2000/svg"
     version="1.1"
     width="60.48057313mm"
     height="57.23019265mm"
     viewBox="0.00000000 0.00000000 171.44095811 162.22728713">

<g transform="scale(4.22440051)">   <defs>
      <style type="text/css"><![CDATA[
      .a {
        stroke: #000;
        stroke-linecap: round;
        stroke-linejoin: round;
        stroke-width: 0.01px;
      }
    ]]></style>
   </defs>
   <path class="a"
         d="M39.30872.05714c0,.11508-.44215.4785-.66626.55118a2.09274,2.09274,0,0,0-.52089.321c-.17565.13326-.37553.29074-.45427.33919a4.71054,4.71054,0,0,0-.49061.43c-.18775.18777-.4361.41793-.54512.50878a1.8767,1.8767,0,0,0-.29073.30285c-.04845.07268-.16353.24833-.25439.38158a.9431.9431,0,0,1-.27256.28468,1.01653,1.01653,0,0,0-.29073.27256,2.12286,2.12286,0,0,1-.6057.642,1.26044,1.26044,0,0,0-.26044.218,1.06763,1.06763,0,0,1-.3089.23016.67263.67263,0,0,0-.30285.29088.74263.74263,0,0,1-.20594.26045,3.04584,3.04584,0,0,0-.34524.30285,2.83641,2.83641,0,0,1-.36341.3089.9078.9078,0,0,0-.27256.34524,1.06349,1.06349,0,0,1-.4785.48456,6.84728,6.84728,0,0,0-.57541.424.84813.84813,0,0,1-.26044.18776,1.19769,1.19769,0,0,0-.30891.26045,3.733,3.733,0,0,1-.48455.39976.65158.65158,0,0,0-.22411.1817,3.11269,3.11269,0,0,1-.55723.43,3.92017,3.92017,0,0,0-1.01756.90853,3.88947,3.88947,0,0,1-.73894.745,2.425,2.425,0,0,0-.71472.73894,2.14488,2.14488,0,0,1-.3513.424c-.11508.09691-.321.29073-.46638.424-.13931.13325-.29679.27256-.33919.315-.04846.03634-.36947.35736-.71472.70866a6.06176,6.06176,0,0,1-.745.67837c-.06056.01817-.109.05452-.109.07874a5.40626,5.40626,0,0,1-.53906.59964,5.4802,5.4802,0,0,0-.64809.751,2.15906,2.15906,0,0,1-.24228.36948.61743.61743,0,0,0-.14537.2665,1.197,1.197,0,0,1-.315.39976,1.75508,1.75508,0,0,0-.33313.3937.22806.22806,0,0,1-.06056.12719.64174.64174,0,0,0-.13326.23016,3.11932,3.11932,0,0,1-.46638.59964,2.58254,2.58254,0,0,0-.38764.46032.64008.64008,0,0,1-.0848.218,3.54325,3.54325,0,0,0-.16353.36947,1.25681,1.25681,0,0,1-.218.35736.48815.48815,0,0,0-.13931.25439.76146.76146,0,0,1-.15142.30286,2.36537,2.36537,0,0,0-.24835.47849,2.27256,2.27256,0,0,1-.32707.73289.58417.58417,0,0,0-.13931.212c-.05451.11508-.12114.212-.15142.212a1.93056,1.93056,0,0,0-.30285.44821,3.506,3.506,0,0,1-.34524.5209.29219.29219,0,0,0-.09086.19382.83509.83509,0,0,1-.25439.36341c-.49666.46639-.642.49667-.78134.16354a1.6519,1.6519,0,0,1-.12114-.745.63548.63548,0,0,0-.06056-.315,1.32156,1.32156,0,0,1-.05452-.81163c.03029-.15142.03029-.28467,0-.30284A1.26738,1.26738,0,0,1,17.625,19.633a4.91446,4.91446,0,0,0-.09086-.80557.6615.6615,0,0,1,.05452-.46032c.09085-.17565.08479-.19988-.11509-.58146-.16353-.315-.19987-.4361-.15748-.54513a2.59676,2.59676,0,0,0-.04845-1.06,1.97522,1.97522,0,0,1-.1272-.70865,2.10017,2.10017,0,0,0-.03028-1.175.50378.50378,0,0,1-.01817-.45427,1.12728,1.12728,0,0,0,.01211-.7026,2.22966,2.22966,0,0,1,.03029-1.01757,1.07057,1.07057,0,0,0,.03635-.51483c-.02423-.13931-.05451-.7874-.06057-1.43549A4.34644,4.34644,0,0,0,16.73462,7.919a1.70224,1.70224,0,0,1,.0848-1.06.8752.8752,0,0,0-.1696-.92671.955.955,0,0,0-.23016-.18171,1.58008,1.58008,0,0,0-.27862.12114,1.09975,1.09975,0,0,1-.37552.12114c-.15748,0-.44216.12114-.44216.18777a1.1649,1.1649,0,0,1-.24833.27861,5.92106,5.92106,0,0,0-.72683.739A1.8836,1.8836,0,0,0,14.33,7.489a1.06059,1.06059,0,0,1-.1696.48455,1.54828,1.54828,0,0,0-.25439.65415,1.39359,1.39359,0,0,1-.212.51483c-.06057,0-.06662.24834-.00606.36948.0424.07268.00606.19987-.12719.45426a3.65394,3.65394,0,0,1-.25439.4361.46705.46705,0,0,0-.07268.22411.59561.59561,0,0,1-.1696.321c-.15748.16354-.16959.212-.15748.61781.01212.43.00606.44821-.17564.61175a.63414.63414,0,0,0-.23016.43,3.62112,3.62112,0,0,1-.33313.81162,1.65153,1.65153,0,0,0-.29679.86008,1.93313,1.93313,0,0,1-.54512,1.19322.66325.66325,0,0,0-.23623.36341,2.83293,2.83293,0,0,1-.73289.99333,2.56665,2.56665,0,0,0-.45426.745.92817.92817,0,0,1-.30285.34525.54542.54542,0,0,0-.27256.36341c-.05451.19988-.12113.27862-.41187.45427-.41792.25439-.51484.3937-.46033.66626a.91127.91127,0,0,1-.24833.68443.55487.55487,0,0,0-.103.1272c-.03633.07874-.36341.315-.4058.28467-.02423-.01211-.13325.13931-.24228.33919a1.66082,1.66082,0,0,1-.32707.44821.962.962,0,0,0-.24833.29679.56309.56309,0,0,1-.212.24833.48754.48754,0,0,0-.19382.19382c-.06057.09691-.23017.38159-.38159.642a2.01536,2.01536,0,0,1-.41793.533.83551.83551,0,0,0-.27861.30892,4.12235,4.12235,0,0,1-.36342.49666,7.73892,7.73892,0,0,0-.76923,1.10841c-.06057.109-.13325.19987-.15748.19987-.05451,0-.16959.212-.19987.36948a2.00459,2.00459,0,0,1-.40582.50878,5.64625,5.64625,0,0,0-.89642.99939.61146.61146,0,0,1-.15142.19382,1.6824,1.6824,0,0,0-.24834.33313,3.304,3.304,0,0,1-.424.56935,1.388,1.388,0,0,0-.32707.54512,1.53491,1.53491,0,0,1-.33313.745.62791.62791,0,0,0-.13326.41794.56818.56818,0,0,1-.09691.18169c-.07874.1272-.09085.19382-.04239.27862a.54435.54435,0,0,1-.212.58146.60223.60223,0,0,0-.18776.45427,1.852,1.852,0,0,1-.0848.424.74051.74051,0,0,0-.01817.34524A1.34743,1.34743,0,0,1,.272,32.819a2.56725,2.56725,0,0,0-.11508.56935,1.21252,1.21252,0,0,1-.06057.33918.206.206,0,0,0,.02423.18171.159.159,0,0,1-.03029.212c-.12114.11509-.11508.17566.03029.45427.06057.1272.103.24833.08479.2665-.02422.01817.0424.11509.14537.212a1.77155,1.77155,0,0,1,.25439.321,1.23851,1.23851,0,0,0,.16354.23622,4.81676,4.81676,0,0,1,.33918.48456c.36947.58147.59964.78739.86008.78739a2.30833,2.30833,0,0,1,.65415.18778c.67232.29072.79346.315,1.169.23016a.65846.65846,0,0,0,.44822-.24228.98476.98476,0,0,1,.36341-.26044,2.55289,2.55289,0,0,0,.6178-.46639,8.8197,8.8197,0,0,1,1.36887-1.03573.661.661,0,0,1,.23016-.109,3.94261,3.94261,0,0,0,.90248-.52695c.13325-.12114.527-.41793.75711-.57541a2.34292,2.34292,0,0,0,.636-.636.5721.5721,0,0,1,.19382-.2241c.09691-.0424.3089.17565.41793.424a1.75011,1.75011,0,0,0,.29073.41793,1.64336,1.64336,0,0,1,.33918.62386c.07269.22411.15143.44216.17565.49061a1.80685,1.80685,0,0,1-.48455,1.08419,3.0956,3.0956,0,0,0-.86614.98122c-.13931.30284-.14536.3513-.07268.54512.17565.45427.24833.60569.29679.60569a2.86951,2.86951,0,0,0,.7874-.854.6766.6766,0,0,1,.5754-.43c.103.006.13326-.01819.13326-.13931,0-.17565.18776-.36948.45426-.45427a1.087,1.087,0,0,1,.94488.38158c.25439.24834.69655.49061.81769.44216a.64812.64812,0,0,1,.3089.06057.827.827,0,0,0,.44821.06057.41984.41984,0,0,1,.37553.08479.66139.66139,0,0,0,.19382.12114,3.42,3.42,0,0,1,.36947.15748.97644.97644,0,0,0,.64809.12114,7.57922,7.57922,0,0,1,1.07207-.03634,5.33267,5.33267,0,0,0,.57541-.03029c.13325-.01211.47244-.05451.75711-.09085.99939-.11508,1.278-.17565,1.42338-.30285a1.34781,1.34781,0,0,1,.636-.30284.83108.83108,0,0,0,.38159-.27862,4.76934,4.76934,0,0,1,.76923-.62386,4.45776,4.45776,0,0,0,1.272-1.169,3.981,3.981,0,0,1,.59357-.70261c.321-.33313.62387-.65414.66626-.7026a.27255.27255,0,0,1,.18777-.09691c.12114,0,.36947-.212.36947-.321a.86555.86555,0,0,0-.0848-.218.32219.32219,0,0,1-.03634-.27256,2.0699,2.0699,0,0,1,.30285-.642,1.524,1.524,0,0,0,.2665-.642.47984.47984,0,0,1,.11508-.23622,1.01853,1.01853,0,0,0,.26045-.71471.69851.69851,0,0,1,.04845-.36342.49517.49517,0,0,0,.03029-.315,1.9743,1.9743,0,0,1,.09691-.93882.52352.52352,0,0,0,.03028-.30284.62355.62355,0,0,1,.01817-.315.55846.55846,0,0,0-.01211-.35736,1.49289,1.49289,0,0,1-.06662-.39976.93954.93954,0,0,0-.09692-.38764.416.416,0,0,1-.01817-.40581,1.10918,1.10918,0,0,0-.01211-.745,3.10411,3.10411,0,0,1-.11508-.45427c-.1272-.69049-.16959-.90248-.24228-1.175a2.36809,2.36809,0,0,1-.0424-.67837c.02423-.41792-.02422-.56935-.26044-.76317a1.22784,1.22784,0,0,0-.92671.09691,3.18508,3.18508,0,0,0-.56935.89037.71215.71215,0,0,0,.04846.49667.644.644,0,0,1,.09085.3089,1.47435,1.47435,0,0,0,.14536.46638,1.13092,1.13092,0,0,1,.12114.43,1.24654,1.24654,0,0,0,.0848.39975,4.16782,4.16782,0,0,1,.15748.83585,4.89466,4.89466,0,0,0,.103.68443,3.68558,3.68558,0,0,1-.01212,1.64748c-.04845.33313-.103.75106-.12114.93277-.02421.33918-.18775.79345-.28466.79345-.02423,0-.04846.1272-.04241.28468a2.03593,2.03593,0,0,1-.2241,1.02361.9811.9811,0,0,0-.23621.46639c-.01817.109-.13327.23622-.321.36947a2.04713,2.04713,0,0,0-.58752.642c-.02423.16959-.14538.3089-.44215.50878a2.24258,2.24258,0,0,0-.533.49667.98091.98091,0,0,1-.218.2665,1.00278,1.00278,0,0,0-.26045.218c-.19988.19382-.24227.212-.47244.18776a5.014,5.014,0,0,1-.50878-.09691.47138.47138,0,0,0-.46032.05452,1.34564,1.34564,0,0,1-.38159.15142,4.38144,4.38144,0,0,0-.50878.12719,3.42224,3.42224,0,0,1-.424.11508.93891.93891,0,0,0-.2241.04846c-.17565.06663-.60569-.16959-1.14476-.61781a2.38534,2.38534,0,0,0-.6057-.3089,1.79083,1.79083,0,0,1-.43-.29073,2.68452,2.68452,0,0,0-.54512-.36947.72659.72659,0,0,1-.29679-.23622,4.18929,4.18929,0,0,0-.33313-.40581,1.87589,1.87589,0,0,1-.34524-.55118l-.12114-.30285.1272-.212a1.48375,1.48375,0,0,1,.23622-.29679,7.59141,7.59141,0,0,0,.75711-1.3507,2.70555,2.70555,0,0,1,.46638-.58146,3.86439,3.86439,0,0,0,.46638-.52695c.06663-.11508.15143-.20594.18171-.20594s.05451-.0424.05451-.09691a2.335,2.335,0,0,1,.5633-.84191.56137.56137,0,0,1,.2665-.09085c.1272,0,.44215.25439.44215.36341,0,.11508.6481.41187.99939.46033a2.9579,2.9579,0,0,0,.41793.03028c.0303-.00606.19383-.03634.36343-.07268a.69134.69134,0,0,0,.60569-.49667,1.30082,1.30082,0,0,1,.212-.33919c.109-.109.15142-.11508.25439-.06056a.30476.30476,0,0,0,.212.03028c.14537-.05451.09085-.19988-.09085-.23622-.28468-.06057-.36948-.18776-.36343-.56935.00606-.26045-.01211-.3513-.09691-.3937a2.43647,2.43647,0,0,1-.44821-.957,4.07432,4.07432,0,0,0-.25439-.636c-.24833-.51483-.25439-.92065-.01817-1.19926a3.81359,3.81359,0,0,0,.33919-.50273c.09691-.16353.27861-.44821.40581-.62992a1.729,1.729,0,0,0,.27256-.52088,3.5228,3.5228,0,0,1,.45427-.72683,7.68332,7.68332,0,0,0,.58146-.87219,2.74781,2.74781,0,0,1,.27256-.45427.75423.75423,0,0,0,.13931-.27862,1.955,1.955,0,0,1,.22411-.424,1.7002,1.7002,0,0,0,.18171-.315,2.46391,2.46391,0,0,1,.23621-.45427,3.38585,3.38585,0,0,0,.27257-.57541c.01817-.09085.06662-.16353.103-.16353a2.18181,2.18181,0,0,0,.66021-.72683,1.11279,1.11279,0,0,1,.43-.40582c.29073-.17565.35735-.24833.35735-.37554a1.62,1.62,0,0,1,.55118-.90247.70914.70914,0,0,0,.23622-.30284.92112.92112,0,0,1,.46639-.59358c.12113-.03028.19987-.13931.36341-.48455a1.63582,1.63582,0,0,1,.24833-.44821,1.05206,1.05206,0,0,0,.22411-.3089,1.77289,1.77289,0,0,1,.7874-.77529,1.38057,1.38057,0,0,0,.43-.38158.441.441,0,0,1,.24227-.20595.82847.82847,0,0,0,.36342-.3513,8.124,8.124,0,0,1,.76317-1.02361,3.22452,3.22452,0,0,0,.321-.40582,3.58011,3.58011,0,0,1,.82979-.66626,2.0663,2.0663,0,0,0,.62386-.72076c.07874-.17565.15748-.26046.27862-.2968a.695.695,0,0,0,.3089-.25438.8334.8334,0,0,1,.321-.27256.77459.77459,0,0,0,.28468-.1696.39234.39234,0,0,1,.15748-.103,1.25727,1.25727,0,0,0,.27861-.212,1.00179,1.00179,0,0,1,.315-.212c.0424,0,.13931-.07874.218-.17565a1.19624,1.19624,0,0,1,.29679-.24833,4.01406,4.01406,0,0,0,.98728-.79346,8.37516,8.37516,0,0,1,1.52613-1.5202.63011.63011,0,0,0,.29073-.24228c.06057-.09085.12719-.16959.15748-.16959a2.801,2.801,0,0,0,.7026-.60569c.65415-.67232.854-.848.9691-.848a4.35448,4.35448,0,0,0,.72683-.33313,4.28562,4.28562,0,0,1,.90248-.38764c.24834-.04846.29679-.03634.44216.0848a.69395.69395,0,0,0,1.07207-.26651.79641.79641,0,0,0-.109-.89036c-.25439-.218-.3089-.37553-.19382-.54513.09085-.13931.08479-.16959-.103-.55723L39.88413.02685,39.5934.00868C39.41775-.00343,39.30872.01474,39.30872.05714ZM13.65165,14.7512a.53812.53812,0,0,1,.109.315c.00605.12114.01211.27862.01211.34525a.81451.81451,0,0,0,.0848.26044,1.44742,1.44742,0,0,1,.07874.51484,2.94664,2.94664,0,0,0,.07874.94488,4.17572,4.17572,0,0,1,.06662.66626,5.086,5.086,0,0,0,.07269.76923.4959.4959,0,0,1,0,.35735.2595.2595,0,0,0,.03634.27257.61023.61023,0,0,1,.07874.33918.74869.74869,0,0,0,.0424.29679,2.33264,2.33264,0,0,1,.19382.90854,2.80186,2.80186,0,0,0,.18171.77528,1.3054,1.3054,0,0,1,.12719.50273.583.583,0,0,0,.06057.31495.79419.79419,0,0,1,.05451.41793.672.672,0,0,0,.09086.4361,1.1728,1.1728,0,0,1,.12113.34524,1.12,1.12,0,0,0,.23017.38159,2.798,2.798,0,0,1,.54512.91459,6.13519,6.13519,0,0,0,.19988,1.0539c.08479.24228.03634.3937-.30891.854a1.11548,1.11548,0,0,0-.1817.34524.55449.55449,0,0,1-.15143.26651,1.17242,1.17242,0,0,0-.218.424,1.45476,1.45476,0,0,1-.30284.52089c-.16959.18777-.23016.30891-.22411.43.01212.1272-.03634.20594-.17565.315a1.26618,1.26618,0,0,0-.29073.40582,2.14792,2.14792,0,0,1-.29679.50272,4.19813,4.19813,0,0,0-.38764.60569,2.71793,2.71793,0,0,1-.80557.93882c-.07874,0-.23622-.1817-.23622-.27862a.73294.73294,0,0,0-.20593-.29678.94166.94166,0,0,1-.27862-.55724,5.112,5.112,0,0,0-.54512-1.381c-.19382-.23017-.218-.36342-.19988-1.42338a16.06965,16.06965,0,0,0-.03634-2.8952c-.03634-.06057-.04846-.13325-.03029-.15142a3.09617,3.09617,0,0,0,.0848-.69655,6.19941,6.19941,0,0,1,.03028-.79951,7.73475,7.73475,0,0,0-.04845-1.93216c-.05451-.06056-.17565-.07268-.527-.04239l-.45427.04239-.34524.36342a2.48426,2.48426,0,0,0-.38159.47849.47028.47028,0,0,1-.16958.19988,2.97038,2.97038,0,0,0-.55724.99939,1.39618,1.39618,0,0,1-.13325.321c-.43.77528-.44821.81163-.38159.95093a1.667,1.667,0,0,1-.16353.87826,1.56287,1.56287,0,0,0-.05451.43609,1.70911,1.70911,0,0,1-.11509.76317A3.3172,3.3172,0,0,0,7.94,28.22177a1.26045,1.26045,0,0,1,.08479.58146,3.18949,3.18949,0,0,0,.07874.69049.471.471,0,0,1,.01212.27256.95561.95561,0,0,0,.321.89037.42548.42548,0,0,1,.109.23016c.01211.19382.01211.19382.2665.75712a2.60442,2.60442,0,0,0,.29073.56935.77535.77535,0,0,1,.1696.13325.17934.17934,0,0,1,.05274.24808l-.00429.00631a.56223.56223,0,0,1-.62386.27863.56444.56444,0,0,1-.27862-.44822.16626.16626,0,0,0-.06662-.12719,1.80108,1.80108,0,0,0-.76923.321,2.3147,2.3147,0,0,1-.51484.19987A13.06179,13.06179,0,0,0,5.82,33.249a.44446.44446,0,0,1-.29073-.03633c-.109-.04846-.19988-.07269-.19988-.05452a3.98457,3.98457,0,0,1-1.19927-.751,13.14456,13.14456,0,0,1-.957-1.67777,1.70932,1.70932,0,0,1,.109-1.15687.74947.74947,0,0,0-.07874-.80558c-.103-.13931-.109-.17564-.02422-.45426a1.43728,1.43728,0,0,1,.29678-.51483,2.56253,2.56253,0,0,0,.33919-.48456,1.40908,1.40908,0,0,1,.3089-.41188,2.03938,2.03938,0,0,0,.35736-.45425,6.589,6.589,0,0,1,.636-.92066,7.31145,7.31145,0,0,0,.76317-1.1387c.03634-.09086.09085-.16354.12114-.16354.03634,0,.103-.103.15142-.23016A6.40458,6.40458,0,0,1,7.304,22.68576a2.20753,2.20753,0,0,0,.3513-.4361,5.43986,5.43986,0,0,1,.99334-1.0539,2.71742,2.71742,0,0,0,.50272-.745.62864.62864,0,0,1,.24228-.26045.46929.46929,0,0,0,.20593-.19988A.2541.2541,0,0,1,9.757,19.833a.77469.77469,0,0,0,.25439-.27862.68843.68843,0,0,1,.24228-.27256.4827.4827,0,0,0,.19382-.24833A1.20423,1.20423,0,0,1,10.708,18.664a1.45294,1.45294,0,0,0,.27861-.44216,2.07931,2.07931,0,0,1,.32708-.52089,4.71109,4.71109,0,0,0,.46638-.6602,3.77677,3.77677,0,0,1,.56935-.72683c.18171-.17565.3089-.3513.29679-.3937-.03635-.09691.16959-.53907.24227-.53907.03029,0,.11508-.12719.19382-.29073C13.28824,14.66035,13.46389,14.55738,13.65165,14.7512Z"/>

</g>
</svg>
