<?xml version="1.0" encoding="UTF-8"?>
<svg xmlns="http://www.w3.org/2000/svg"
     version="1.1"
     width="50.93802722mm"
     height="18.26730329mm"
     viewBox="0.00000000 0.00000000 144.39127096 51.78135703">

<g transform="scale(2.14904900)">   <defs>
      <style type="text/css"><![CDATA[
      .b {
        stroke: #000;
        stroke-linecap: round;
        stroke-linejoin: round;
        stroke-width: .01px;
      }
    ]]></style>
   </defs>
   <path class="b"
         d="M31.57824.08498c-.08203.05078-.46484.15234-.84766.23438-.38672.07813-.92188.25391-1.18359.39063-.27344.13672-.84375.33594-1.25781.44141-.98438.25391-1.16016.33594-2.08984.92578-.42188.27344-1.01563.59375-1.31641.71484-.30469.125-.80859.39844-1.13672.60547-.32031.21875-.875.52734-1.22656.69531-.63672.3125-1.16016.64063-1.75781,1.11328-.17578.13672-.48047.32031-.67188.41016-.19922.07813-.50391.28516-.6875.45313-.46484.43359-.65625.54688-1.24219.73828-.27734.08594-.81641.32031-1.19141.50391-.38281.19141-.92969.42188-1.21484.51953-.48828.16016-.57031.22266-1.16016.90234-.60156.6875-.67969.75391-1.44141,1.11328-.44922.20703-1.01563.41406-1.26172.46484-.60156.10938-.81641.23047-1.29688.75-.28906.30469-.53516.48047-.82422.58594-.22266.07813-.60156.28516-.82422.46484-.23047.17578-.76953.57422-1.18359.89453-.41797.3125-1.32813,1.13672-2.02344,1.83203-1.10547,1.09375-1.34375,1.28906-1.84766,1.52734-.32031.14453-.63281.32812-.69922.39844-.0625.08203-.38281.26563-.71094.41797-.77734.35156-.94531.51172-1.00781.95313-.02344.19141-.13672.44531-.23047.56641-.25781.30469-.58594.97656-.72266,1.47266-.22266.83203-.34375,1.22266-.42969,1.44922-.11328.29297-.11328,1.05469,0,1.27734.21484.41797.39844.53516.83984.53516.32031,0,.47266.04297.64844.19531.56641.46875,1.125.58203,1.64063.32031.30859-.16016,1.33594-.42578,2.83203-.71484.86328-.17578,1.23047-.20703,1.67969-.17578.30859.03125.6875.01563.83984-.02344.15234-.04688.50391-.12109.78906-.16016.28906-.04688.76953-.16016,1.07422-.25391.52734-.16016.60547-.16016,1.39844-.06641.47266.05859.90625.09766.96875.09766.60938-.02344,2.32031-.20703,2.80078-.29688.32812-.0625,1.12109-.13672,1.75781-.16797.64063-.02344,1.37891-.10547,1.64063-.16797.35156-.08984.73828-.10547,1.44141-.08203.93359.04297,1.76563-.04688,2.28906-.24609.28516-.11328,1.48828-.11328,3.26953-.00781.81641.04688,1.71484.07813,2,.07031.28906,0,.77734.05078,1.08203.12109.3125.0625.90234.17578,1.32031.25.41406.0625.99219.18359,1.27734.26953.28906.08984.67969.17578.88281.19922.19922.03516.60547.16016.91016.29688s.67969.25.84766.25c.36719,0,1.05469-.3125,1.48047-.67188.28906-.24219.43359-.28906,1.19922-.42578,1.28906-.21484,2.5625-.57422,3.76172-1.05469.26172-.10547.60547-.19141.75781-.19141s.37109-.05859.48047-.12109c.44922-.26563,1.43359-.70313,1.86328-.83984.38672-.12109,1.49609-.69531,2.30469-1.19141.51953-.32031,1.02344-.73047,1.50391-1.24219.35938-.375.67188-.61328.96875-.74219.625-.28125.84766-.47266,3.39844-2.89062.49609-.46094.82422-1.10938.92969-1.80469.11328-.78516.29688-1.08984.67969-1.08984.26563,0,1.97656.74609,2.67188,1.16797.41797.25,1.28125.71094,1.92188,1.02344,1.26953.63281,2.19141,1.25781,2.51172,1.72266.10938.16016.3125.375.4375.46094.14453.11328.32813.41797.53125.88281.46094,1.08594.77344,1.48047,1.71875,2.15234q.44141.30859,1.19922.30078c1.01562,0,1.86328-.24609,2.08203-.60547.07813-.13672.16797-.37891.19922-.53516.02344-.16016.10156-.53125.17578-.82422.12109-.52344.12109-.5625-.04688-1.12109-.48828-1.60938-1.37109-3.35938-2.10546-4.19922-.23047-.26563-.55859-.64844-.73828-.85547-.23047-.28906-.46875-.46484-.95703-.69922-.35156-.16797-.82422-.45313-1.05078-.62891-.21484-.16797-.60547-.42578-.86328-.5625-.25391-.13672-.58984-.36719-.75781-.51172-.35938-.32813-.48047-.38281-2.76172-1.39844-1.63281-.73047-1.91797-.82422-2.59766-.92969-1.16016-.16797-3.44922-.98438-5.33594-1.91016-.67578-.33594-.99219-.44922-1.36328-.47266-.26172-.02344-.78125-.13672-1.16016-.25-1.34375-.41406-2.36719-.60547-3.18359-.60547-.67188,0-1.19141-.16797-1.75-.57813-.52734-.38281-2.14453-1.17578-2.51172-1.23047-.22656-.03906-.40234,0-.73047.15234-.23047.10938-.55859.23047-.72656.25391-.81641.12891-.67188.97656.47266,2.80078.61719.99219.74219,1.25781.95313,1.99219.09375.35938.24609.82422.33594,1.04688.09375.21875.22266.64844.29297.96094.13672.57813.60938,1.39063,1.05078,1.80078l.21484.19922,1.64063-.02344c.94922-.00781,1.77344.01563,1.94922.0625.33594.09766.51563.32031.44922.59375-.13672.55859-.48047,1.3125-.67969,1.48828-.12891.11328-.32813.33594-.44922.50391-.11719.16016-.35156.36719-.51953.44922-.16016.08594-.39063.29297-.50391.46094-.13672.20313-.46484.46484-.99219.78516-.47266.28906-1.07031.75391-1.48828,1.13672-.48047.46484-.75.66406-.88672.66406-.28906,0-.75.20703-1.24609.56641-.24219.16797-.51563.3125-.61719.3125-.09766,0-.58594.08984-1.08984.19141-1.72656.36719-4.49609.44922-5.82422.16797-.52734-.10938-3.16016-.24609-3.87891-.20703-.66406.04688-.84766.03906-1.71875-.07031-1.17578-.13672-2.11328-.14453-2.73828-.02734-.28516.05859-.93359.09766-1.4375.08984-.75391-.00781-1,.01563-1.46484.16797-.49609.16797-.72656.18359-2.28125.19922-.94141.00781-1.96875.05859-2.27734.11328-.86719.14453-1.85156.39844-2.1875.55859-.16016.08984-.49609.17578-.73438.19922-.23828.02734-.67188.12109-.96094.22656-.32813.10938-.73438.18359-1.11719.19141-.32813.00781-.80078.03906-1.05078.07813-.36719.05078-.46484.03516-.57422-.07813-.12891-.12891-.12109-.16797.20703-.78516.19141-.35938.44922-.82422.56641-1.03125.12109-.20703.32031-.67969.44922-1.03906.12109-.36719.32031-.83203.43359-1.03125.10938-.20313.23828-.5625.28516-.80078.05078-.24219.14453-.51953.22656-.63281.25391-.35938,1.74219-1.42578,2.16016-1.54297.20703-.06641.51172-.21094.67969-.32031.16016-.11328.44922-.22656.64063-.25781.18359-.03125.78125-.26953,1.33594-.52734.55078-.25391,1.03906-.47266,1.08594-.47266.03906,0,.23438-.08594.43359-.19141s.63281-.26172.96875-.35156c.33594-.09766.78125-.26563.99219-.375.21484-.11328.44531-.19922.51953-.19922.17578,0,.97656-.36328,1.42969-.65625.20313-.12109.45703-.22656.57031-.22656.19922,0,.81641-.20703,2.11719-.71094.35547-.13672.94531-.30469,1.32031-.375.63281-.12109.72266-.12109,1.18359,0,.70703.17578.80859.16797,1.43359-.16016,1.02344-.55469,1.67188-.63281,2.25-.29688.70313.41797,1.92578.23828,2.29297-.32813.07422-.10547.16797-.39063.21875-.64063.08594-.40625.07813-.48047-.08203-.80859-.09375-.19922-.33594-.60547-.52734-.90234-.71875-1.09766-.70313-1.38281.15234-2.56641.22266-.3125.25391-.63281.07813-.96875-.21484-.42578-.60547-.58594-.94141-.39453ZM51.08215,10.16702c.71094.26172.73438.48047.11719,1.07031-.18359.17578-.41406.48047-.52734.67969-.10156.20313-.30469.49609-.44531.65625-.32813.36719-1.53906,1.05078-1.74609.98438-.27344-.08594-.27344-.34375,0-.85547.17578-.33594.27344-.66406.3125-1.05469.07813-.67969.32031-1.27344.57422-1.41797.51563-.26953,1.09766-.29688,1.71484-.0625Z"/>
   <path class="b"
         d="M26.1759,9.72561c-.58203.10547-.84766.22656-1.19141.53516-.20703.1875-.23828.60156-.09375,1.13672.10156.38672.71875,1.05859,1.35156,1.46484.23828.16016.50391.36719.58203.47266.08984.10156.29688.26172.48047.35156.18359.09766.51953.29688.75391.45703.40625.26953.46875.28516,1.32813.33594.64453.03906,1.09375.10938,1.59766.27734.6875.21875.71094.21875,1.40235.11328.38281-.05469,1.18359-.11328,1.77344-.11328,1.03125-.00781,1.66406-.10156,1.90625-.29297.0625-.05859.09375-.32031.09375-.76953,0-.60938-.02344-.71094-.20703-.95313-.12891-.17578-.26563-.26172-.39844-.26172-.27344,0-.75391-.21094-.99219-.44141-.33594-.3125-1.52344-1.07031-2.24219-1.43359-.48828-.23828-.89453-.38281-1.4375-.47656-.41797-.07422-.89063-.16797-1.05078-.21094-.16016-.04688-.55859-.07813-.87891-.07813-.32813-.00781-.82422-.05469-1.11328-.12109-.62109-.13672-.89453-.13672-1.66406.00781Z"/>

</g>
</svg>
