<?xml version="1.0" encoding="UTF-8"?>
<svg xmlns="http://www.w3.org/2000/svg"
     version="1.1"
     width="41.86720526mm"
     height="24.75763774mm"
     viewBox="0.00000000 0.00000000 118.67869595 70.17905970">

<g transform="scale(6.12458075)">   <defs>
      <style type="text/css"><![CDATA[
      .b {
        stroke: #000;
        stroke-miterlimit: 10;
        stroke-width: .15px;
      }
    ]]></style>
   </defs>
   <path class="b"
         d="m13.3849,4.39423c.1794.00202.35879.00481.53815.00844.05447.0011.11166.00293.15869.03045.07513.04396.10165.13905.111.22558s.00968.1787.05598.25249c.24915.3967,1.75463-.76794,1.99294-.96261.43694-.35692.82785-.76611,1.2175-1.17414.22668-.23737.45337-.47474.68005-.71211.10488-.10983.21569-.23233.22775-.38372.0136-.1707-.09848-.27248-.17639-.406-.1188-.2036-.20143-.41896-.34651-.60876-.58988-.77167-1.77844-.53623-2.62975-.56254-1.68098-.05196-3.36357-.0229-5.04343.05122-1.59664.07045-3.30354.04656-4.85657.45519-.62179.16361-1.2065.44178-1.8277.60703-.26268.06988-.541.06546-.79686.13627-.24595.06807-.44932.26569-.62922.4363-.06941.06582-.13888.13172-.20347.20228-.10226.11173-.46968.6992-.56638.85536-.20827.3363-.33692.73456-.6215,1.01914-.24532.37085-.9718,1.24174-.3465,1.54689.16365.07986.35157.09392.53357.08816.33898-.01073.67235-.08502,1.00333-.15899,1.53672-.34346,3.03895-.75743,4.61597-.80397,2.30118-.06792,4.60683-.16795,6.90935-.14196Z"/>
   <path class="b"
         d="m5.47236,9.67675c1.38713.19574,2.79247.20102,4.19056.19523.6937-.00288,1.40065-.00971,2.05963-.22642.47521-.15628.80991-.36379,1.30113-.45841.84722-.1632,1.60113-.51698,2.42669-.7401.34699-.09378.68085-.23596.98891-.42113.06547-.03936.13383-.08544.16089-.15688.04085-.10786-.03106-.22887-.1244-.29662s-.20703-.1018-.30438-.16366c-.18213-.11573-.28941-.31518-.41291-.49213-.38733-.55497-1.00657-.9425-1.67502-1.04826-.26888-.04254-.5439-.04148-.81066-.09572-.26105-.05308-.51256-.15877-.77846-.17501-.22328-.01363-.44113.03662-.66129.06353-.21957.02684-.4066-.0158-.62033-.019-.44127-.00659-.88627.06933-1.33393.05006-.95188-.04097-1.89328-.21786-2.81616-.44754-.76681-.19084-1.555-.43451-2.13177-.97466-.21525-.20159-.39538-.44059-.52986-.70305-.06139-.11981-.06609-.20824-.15269-.32158-.01477-.01933-.02975-.03888-.04883-.05398-.02894-.0229-.06523-.034-.10058-.04461-1.24793-.37478-2.63795.87487-3.16875,1.92637-.27026.53535-.62775,1.02707-.4292,1.65195.65579,2.06261,3.1008,2.68766,4.9714,2.95163Z"/>
   <path class="b"
         d="m15.39274,9.4841c-.00098-.03172-.00503-.06017-.01364-.08319-.05093-.13627-.23139-.20365-.33529-.29148-.15775-.13335-.21454-.30322-.35338-.45493-.3932-.42965-.73096-.90421-.99498-1.42401-.06444-.12687-.12451-.25591-.18457-.38491-.04604-.09889-.09207-.19778-.13811-.29667-.08033-.17256-.16251-.36403-.11074-.5472.03761-.13309.13987-.2365.23832-.33363.17461-.17228.34922-.34456.52383-.51685.38512-.37999.77482-.76359,1.23704-1.04478.58029-.35302,2.05033-.79923,2.42783.05903.03107.07065.05192.14624.09223.21206.08595.14038.24615.2158.35989.3348.12907.13504.19176.31851.25077.49575.1221.36671.2442.73341.3663,1.10012.03214.09654.07622.20551.17283.23741.12688.04188.15126.20574.15729.33922s-.01214.2695.01893.39945c.05028.21027.22651.39751.19028.61064-.01565.09211-.06998.1723-.12295.24926-.18268.26539-.36536.53077-.54804.79616-.12218.1775-.30122.29806-.43714.46528-.10008.12313-.20018.24627-.30364.36657-.24319.28274-.50458.54921-.76574.81544-.13681.13946-.27362.27893-.41043.41839-.0973.09919-.19654.19986-.3186.26626-.21148.11503-.46451.11402-.70522.11014-.19343-.00312-.3031-.04933-.31611-.25404-.01058-.16647-.02117-.33294-.03175-.49942-.02471-.38865.06645-.76131.05478-1.14486Z"/>

</g>
</svg>
