<?xml version="1.0" encoding="UTF-8"?>
<svg xmlns="http://www.w3.org/2000/svg"
     version="1.1"
     width="67.36638297mm"
     height="94.82873053mm"
     viewBox="0.00000000 0.00000000 190.95980663 268.80585864">

<g transform="scale(6.22744503)">   <defs>
      <style type="text/css"><![CDATA[
      .a {
        stroke: #000;
        stroke-miterlimit: 10;
        stroke-width: 0.15px;
      }
    ]]></style>
   </defs>
   <path class="a"
         d="M24.2,5.93944c-.01373-.41506.13793-.47314.61309-1.63488a9.93943,9.93943,0,0,1,.76637-1.89039,12.71588,12.71588,0,0,1,2.248-2.19694c.09928-.03907.7609-.29951,1.124,0,.33307.27466.13464.78912.45982.97075.26025.14534.48084-.13194.76636,0,.46023.2127.41177,1.17559.4087,1.22619C30.55,3.01723,29.2435,4.54951,29.3091,4.81542,29.37926,5.1,30.41094,6.29067,30.382,6.55253A2.61416,2.61416,0,0,1,29.71784,7.932a2.09675,2.09675,0,0,1-.51093.51093c-.36275.23612-.63738.20963-1.63489.30655-.98954.09609-.9434.144-1.124.10215A6.71763,6.71763,0,0,1,24.2,5.93944Z"/>
   <path class="a"
         d="M15.62928,15.80256a6.25671,6.25671,0,0,1,1.00926-1.48423,7.1007,7.1007,0,0,1,1.43057-1.17507,15.94172,15.94172,0,0,1,3.2698-1.58384,30.30287,30.30287,0,0,1,3.16766-1.07291c.59771-.16435,3.5271-.844,3.67854-1.22618.10818-.273-.03008-.59072-.30654-1.22619-.14837-.341-.22632-.51362-.40874-.61309-.22086-.12041-.44253-.05343-1.07291.15328C25.30234,7.93318,23.987,8.548,23.638,8.64724c-.47531.13516-.78156-.10246-1.02183.10223-.20918.17819-.09034.40488-.30655.562-.21434.15575-.43725.01-.81744.05112a44.53989,44.53989,0,0,0-5.46675,3.423c-1.55622,1.30125-1.84825,1.7238-2.04362,2.09478-.20069.38109-.7264,3.13757-.97072,4.13833a9.93975,9.93975,0,0,1-1.43057,3.16765c-.71831,1.04593-1.35378,1.50717-1.22618,1.686.14878.20851,2.4347-1.10617,2.53151-1.19681a6.38928,6.38928,0,0,0,.58506-.64246,10.074,10.074,0,0,0,1.58377-3.32081C15.43727,17.16256,15.10764,16.89609,15.62928,15.80256Z"/>
   <path class="a"
         d="M11.88708,19.01871c.13883-.9889.06784-1.109.25547-1.37946.20472-.29513.42056-.34134.45981-.61309.04581-.31706-.22388-.42064-.20435-.71528.02777-.419,1.68282-.95669,2.1969-.66414,1.292.73531.35923,9.25913-.66417,11.69982a23.45918,23.45918,0,0,1-3.16765,5.16016c-.35149.48174-7.06952,7.62566-8.78763,9.09421C.43884,42.91434.14214,43.136.08507,43.08254c-.13344-.12513,1.08013-1.72319,2.40129-3.11653,1.06988-1.12837,7.16883-6.33283,9.45183-10.57583a11.76406,11.76406,0,0,0,1.124-2.91218c.23212-.98067.18407-4.44136-.10219-4.70038-.359-.32484-.80334-.23159-1.07291-.66417A6.04629,6.04629,0,0,1,11.88708,19.01871Z"/>

</g>
</svg>
