<?xml version="1.0" encoding="UTF-8"?>
<svg xmlns="http://www.w3.org/2000/svg"
     version="1.1"
     width="20.57634352mm"
     height="18.38602244mm"
     viewBox="0.00000000 0.00000000 58.32660007 52.11793439">

<g transform="scale(4.13392926)">   <defs>
      <style type="text/css"><![CDATA[
      .b {
        stroke: #000;
        stroke-linecap: round;
        stroke-linejoin: round;
        stroke-width: .25px;
      }
    ]]></style>
   </defs>
   <path class="b"
         d="M.60266,9.77325c-.26349.38743-.52749.82597-.4696,1.29092.06836.54908.49519,1.2325,1.03957,1.33148.68692.1249,2.4544.10593,2.99748,0,2.51365-.49031,3.77902.00937,6.36965-1.06161.89559-.37024,1.82962-1.138,2.66062-1.63662.22121-.13273.44178-.30105.5277-.5443.22133-.62656-.5457-1.13927-1.19168-1.29511s-1.45573-.3572-1.58214-1.00956c-.05079-.26213.03529-.53177.1502-.77278.41306-.86636,1.18121-1.49854,1.82366-2.21159.64241-.713,1.19724-1.63744,1.02405-2.58139-.5649-3.07896-5.39561.87418-6.48703,1.62118-2.68613,1.83844-5.0315,4.17719-6.86248,6.86938Z"/>

</g>
</svg>
