<?xml version="1.0" encoding="UTF-8"?>
<svg xmlns="http://www.w3.org/2000/svg"
     version="1.1"
     width="58.12974330mm"
     height="10.08308847mm"
     viewBox="0.00000000 0.00000000 164.77721684 28.58200974">

<g transform="scale(3.49229315)">   <defs>
      <style type="text/css"><![CDATA[
      .b {
        stroke: #000;
        stroke-linecap: round;
        stroke-linejoin: round;
        stroke-width: .01px;
      }
    ]]></style>
   </defs>
   <path class="b"
         d="M30.65754.09041c-.26563.0625-.67188.11328-.91406.12109-.23047,0-.73438.03125-1.11719.07813-.37891.03906-1.17578.12109-1.76953.16797s-1.38281.12109-1.76172.15234c-.375.03125-1.42969.12109-2.35938.19141-1.04688.08984-1.86328.19141-2.16016.28906-.26172.07813-.84766.16797-1.30469.19922-.44531.02344-.94922.09766-1.11719.15234-.16016.05469-.65625.14453-1.09766.19922-1.03906.12109-1.80078.23438-2.4375.36719-.28906.06641-.82422.12891-1.20313.15234-.375.02734-.91016.12109-1.19922.21094-.29688.09375-.93359.19922-1.48047.24609-.52734.03906-1.10156.13672-1.27734.19922-.17578.07422-.53906.16016-.80078.20313-1.21875.16797-3.18359.6875-3.72266.98047-.10938.05859-.34375.15234-.51953.21094-.83203.25391-2.39063.91797-2.81641,1.19141-.36719.23828-.51953.39844-.70312.75781-.13672.25-.30469.47266-.375.49609-.07031.02734-.23047.15234-.34375.28906-.16797.19922-.19922.29688-.15234.49609.12891.58594.29688.66406,1.55078.72656,1.10547.05859,3.48047-.13281,3.99219-.30859.20703-.08203.60938-.12891,1-.12891.35156,0,.83203-.05859,1.05078-.12109.22266-.07031.92578-.16016,1.57422-.19922.64063-.04688,1.32031-.13672,1.49609-.19922.17578-.06641.55078-.13672.82422-.16016.28125-.03125.63281-.09766.78516-.14453s.46094-.09766.67969-.10547c1.03906-.04688,2.79688-.19922,3.55859-.32031.46484-.0625,1.41797-.15234,2.12109-.19141.70313-.03125,1.69531-.10156,2.19922-.15234.50391-.04688,1.48047-.14453,2.16016-.21484.67969-.0625,2.12109-.13672,3.19922-.15234,1.08203-.02344,2.67969-.07813,3.55859-.12891.88281-.04688,2.23438-.10938,3-.15234.76953-.03125,1.54688-.09375,1.72266-.15234.17578-.04688.93359-.10156,1.67969-.11719,2.55859-.07422,3.59766-.13672,3.91797-.25.17578-.05469.73828-.14453,1.25-.19141.50391-.03906,1.08594-.13672,1.29688-.20703.21484-.07422.75781-.17578,1.21484-.24219.90234-.11719,1.57422-.34375,2.3125-.78906.56641-.34375.75-.50391.89453-.78516.22656-.44141.09766-1.15234-.22266-1.21484-.10547-.01563-.35938-.07422-.57813-.11328-.23047-.04688-.48828-.04688-.64453-.00781-.20313.05469-.34766.03906-.63281-.09766-.3125-.13281-.47266-.15234-.87109-.10938-.35547.03906-.57813.01563-.77734-.06641-.16797-.07031-.71094-.14453-1.40234-.17578-.61328-.03125-1.24609-.08594-1.39844-.12891-.15234-.04688-.58203-.10938-.96094-.14844-.375-.04297-.87891-.11328-1.11719-.16016-.24219-.04297-.73828-.09766-1.09766-.12109-.35938-.01563-1.03125-.11328-1.48047-.19922-.51172-.10547-1.0625-.16797-1.46484-.15234-.35156.00781-1.23047-.00781-1.95703-.03125-1.00781-.04297-1.43359-.02734-1.80078.0625Z"/>

</g>
</svg>
