<?xml version="1.0" encoding="UTF-8"?>
<svg xmlns="http://www.w3.org/2000/svg"
     version="1.1"
     width="61.77206295mm"
     height="45.73769698mm"
     viewBox="0.00000000 0.00000000 175.10190941 129.65022697">

<g transform="scale(5.57207354)">   <defs>
      <style type="text/css"><![CDATA[
      .a {
        stroke: #000;
        stroke-linecap: round;
        stroke-linejoin: round;
        stroke-width: 0.01px;
      }
    ]]></style>
   </defs>
   <path class="a"
         d="M24.78384.114C24.584.18065,24.4386.20488,24.378.16854a.30271.30271,0,0,0-.20594-.02423,3.83524,3.83524,0,0,1-.48455.06663,3.51742,3.51742,0,0,0-.72683.15142,2.21492,2.21492,0,0,1-.58752.11508A1.88932,1.88932,0,0,0,21.88864.532,4.98406,4.98406,0,0,1,21.071.62281a5.43763,5.43763,0,0,0-.67231.06662,1.37458,1.37458,0,0,1-.33313.06663c-.1272.01211-.38765.05451-.56935.09085-.18171.03029-.52695.07269-.76317.0848a2.54077,2.54077,0,0,0-.50273.06057A7.00115,7.00115,0,0,1,16.80083,1.18a3.50627,3.50627,0,0,0-1.23561.15143.81278.81278,0,0,1-.35736.04845,2.94763,2.94763,0,0,0-.71471.07269,1.20436,1.20436,0,0,1-.59964.04239,10.31925,10.31925,0,0,0-1.35069-.07268,11.937,11.937,0,0,1-1.34463-.05451,1.73327,1.73327,0,0,0-.51484.06662,2.039,2.039,0,0,1-1.48394-.08479,1.39987,1.39987,0,0,0-.636-.1696,1.79913,1.79913,0,0,1-.56935-.109,1.70265,1.70265,0,0,0-.848-.07874,2.67127,2.67127,0,0,0-1.19921.36945,7.06647,7.06647,0,0,1-1.52029.636.46168.46168,0,0,0-.25439.15142,2.39457,2.39457,0,0,1-.45426.32707A1.413,1.413,0,0,0,3.3,2.81541,4.58151,4.58151,0,0,1,2.87,3.3a1.32208,1.32208,0,0,0-.3937.56935.61473.61473,0,0,1-.30285.40582c-.13325.09085-.24227.18776-.24227.218s-.09691.09691-.212.14537a1.18959,1.18959,0,0,0-.51484.60569,4.57962,4.57962,0,0,1-.26651.48455,4.61994,4.61994,0,0,0-.39983.848,1.9207,1.9207,0,0,1-.218.51484.80326.80326,0,0,0-.11508.36947,1.62564,1.62564,0,0,1-.1272.49061.391.391,0,0,0,0,.45427,2.25533,2.25533,0,0,1,.1272.6178,4.28534,4.28534,0,0,0,.34524,1.49,1.35169,1.35169,0,0,1,.15142.39976,3.66861,3.66861,0,0,0,.36342.957,1.30352,1.30352,0,0,1,.14537.36342,2.40533,2.40533,0,0,0,.78739,1.3204.79247.79247,0,0,1,.23622.56935.605.605,0,0,0,.09086.315.4678.4678,0,0,1,.09085.218,2.034,2.034,0,0,0,.18776.4785,4.97893,4.97893,0,0,1,.424,1.58085c.09085.54512.03634.87219-.16354,1.07207a.57357.57357,0,0,0-.11686.80268q.01517.02031.03206.03923a.39707.39707,0,0,0,.59964.14537,1.39165,1.39165,0,0,1,.30284-.12114c.15143,0,.533-.33919.739-.65415A5.30555,5.30555,0,0,1,4.9415,17.352c.15748-.16959.33919-.36947.39976-.45426.05451-.0848.19988-.28468.315-.44822a.784.784,0,0,0,.212-.54512,1.53,1.53,0,0,1,.0848-.62992,2.471,2.471,0,0,0,.01211-.82979,1.98261,1.98261,0,0,0-.34524-.98122,1.17613,1.17613,0,0,1-.14537-.424,2.30209,2.30209,0,0,0-.18776-.58752,2.06548,2.06548,0,0,1-.1696-.5754.4555.4555,0,0,0-.06057-.25439,3.34239,3.34239,0,0,1-.24833-.81163,1.13629,1.13629,0,0,0-.18171-.55118,1.7939,1.7939,0,0,1-.1817-.424,1.36812,1.36812,0,0,0-.19383-.4361.278.278,0,0,1-.07889-.15749A3.76687,3.76687,0,0,0,3.936,8.65423a1.60166,1.60166,0,0,1-.19987-.56329.64.64,0,0,0-.1696-.61781,1.15744,1.15744,0,0,1-.218-.43,2.30211,2.30211,0,0,0-.12719-.424,1.68258,1.68258,0,0,1-.07874-.50272,1.36133,1.36133,0,0,0-.12114-.55118c-.14536-.27862-.09691-.424.18171-.56935.23016-.12114.25439-.11508.45427.05451a.72456.72456,0,0,0,.848.09085c.212-.12719.23017-.12719.4361-.03028a2.75549,2.75549,0,0,0,.7874.13325,2.98774,2.98774,0,0,1,.68443.0848,2.226,2.226,0,0,0,.67837.02423,4.865,4.865,0,0,0,1.25984-.14537,3.70207,3.70207,0,0,1,.636-.09691,5.72727,5.72727,0,0,0,.5754-.04846c.11509-.01211.315-.04239.4361-.05451a3.07538,3.07538,0,0,0,.36342-.07874,2.66091,2.66091,0,0,1,.44215-.06662,2.05694,2.05694,0,0,0,.99939-.20594A1.24773,1.24773,0,0,1,12.67,4.578a2.15442,2.15442,0,0,0,.57541-.03028,3.93339,3.93339,0,0,1,.6178-.06057,2.1048,2.1048,0,0,0,.98122-.103c.19382-.09085.27862-.09085.66626-.02423a2.30569,2.30569,0,0,0,1.1811.02423,1.46082,1.46082,0,0,1,.3937-.109,1.60436,1.60436,0,0,0,.38158-.09692,2.74446,2.74446,0,0,1,.50273-.09691,1.98862,1.98862,0,0,0,.58752-.1393.57683.57683,0,0,1,.33313-.06663,1.20151,1.20151,0,0,0,.46638-.0424,1.83368,1.83368,0,0,1,.50878-.04845.89536.89536,0,0,0,.43-.1272c.321-.16354.44821-.18776,1.35069-.20593a2.57865,2.57865,0,0,0,.77528-.1272.75154.75154,0,0,1,.56942-.04843,2.213,2.213,0,0,0,1.2235-.14537,2.67613,2.67613,0,0,1,.89642-.23016,1.22371,1.22371,0,0,0,.41187-.11508,1.73015,1.73015,0,0,1,1.1811-.03029.819.819,0,0,1,.52695.77529,1.73644,1.73644,0,0,0,.16959.64808,1.42008,1.42008,0,0,1,.14537.39976,1.49685,1.49685,0,0,0,.03028.2665c.01818.0848.04846.24228.06663.35131a4.26117,4.26117,0,0,0,.11508.527,1.73064,1.73064,0,0,1,.05451.47849.409.409,0,0,0,.09691.321.34324.34324,0,0,1,.09692.321,2.9239,2.9239,0,0,0-.06663.46638,7.26084,7.26084,0,0,1-.14537.84191c-.09691.40581-.109.56935-.06057.69049a.53461.53461,0,0,1-.02422.39369.44416.44416,0,0,0-.02423.35736,1.4333,1.4333,0,0,1,.01211.57541,3.48272,3.48272,0,0,0-.03634.58146c.00606.06663.01212.24228.01212.38764a2.1279,2.1279,0,0,0,.08479.54513,4.93612,4.93612,0,0,1,.27862,2.31979,4.97488,4.97488,0,0,0,.0848.96911,4.72435,4.72435,0,0,1-.02421,1.7141.64854.64854,0,0,1-.3513.37553c-.33919.19382-.55724.37553-.55724.47244a.47907.47907,0,0,1-.11508.20594c-.09691.109-.109.16959-.05451.35735a1.03069,1.03069,0,0,0,.18776.36342c.15748.16959.38159.15142,1.04179-.0848a4.36272,4.36272,0,0,1,.60569-.18171,5.00471,5.00471,0,0,0,.54512-.12113c.19988-.04846.41793-.103.49061-.109a1.28074,1.28074,0,0,0,.90248-.78134,1.64485,1.64485,0,0,1,.24228-.43.60636.60636,0,0,0,.13931-.22411c.00606-.04845.01817-.17565.03028-.28467a.64983.64983,0,0,1,.06057-.23016.1655.1655,0,0,0-.01817-.14537c-.03634-.06662-.01817-.16354.07269-.30284a.5897.5897,0,0,0,.07268-.50878c-.02423-.1696-.04846-.745-.05451-1.278a7.00822,7.00822,0,0,0-.09691-1.24167,5.59861,5.59861,0,0,1-.11509-1.36886,3.06483,3.06483,0,0,0-.06057-.58752.9435.9435,0,0,1-.00605-.41187.73475.73475,0,0,0-.03634-.41187.8989.8989,0,0,1-.04846-.35736.36447.36447,0,0,0-.06662-.23016.40211.40211,0,0,1-.07269-.25439.18671.18671,0,0,0-.05451-.18171A.13939.13939,0,0,1,30.756,8.5514a7.31728,7.31728,0,0,0,.0424-1.02361,4.95975,4.95975,0,0,1,.05451-1.09025c.05452-.13931.0424-.23622-.06662-.55118a1.05465,1.05465,0,0,1-.0848-.59963,2.1727,2.1727,0,0,0-.03634-.73894c-.04846-.28468-.103-.58147-.11508-.65415a.8022.8022,0,0,0-.09086-.25439.371.371,0,0,1-.04845-.20594,1.271,1.271,0,0,0-.32707-.58752c-.06663,0-.23017-.33918-.23017-.47849a.41188.41188,0,0,0-.1817-.25439.89437.89437,0,0,1-.24834-.33919,1.33387,1.33387,0,0,0-.24227-.39975.8561.8561,0,0,1-.17565-.23622.94726.94726,0,0,0-.28468-.20594,1.64337,1.64337,0,0,1-.36346-.25449,1.76859,1.76859,0,0,0-.92671-.321,2.6254,2.6254,0,0,0-1.0963-.04847c-.07874.03634-.18777.02423-.36947-.06057A2.60276,2.60276,0,0,0,25.1836.005,2.15343,2.15343,0,0,0,24.78384.114Z"/>
   <path class="a"
         d="M22.04,4.73545c-.212.23016-.03634.53907.3089.55118.15748.01211.19988-.01211.18777-.07874a2.14653,2.14653,0,0,1-.03029-.28468c-.00606-.15747-.03634-.20593-.17565-.25439A.21965.21965,0,0,0,22.04,4.73545Z"/>
   <path class="a"
         d="M16.4677,5.78935a.72626.72626,0,0,1-.35736.05452,1.67475,1.67475,0,0,0-.93276.34524.3765.3765,0,0,1-.212.109,2.18829,2.18829,0,0,0-.51484.212,2.4318,2.4318,0,0,1-.49061.212.14707.14707,0,0,0-.12114.109,2.20835,2.20835,0,0,1-.527.59364,5.02545,5.02545,0,0,0-.44821.56935c-.16354.23622-.41793.5754-.55724.75711a1.63813,1.63813,0,0,0-.47849,1.175c-.03029.64809.15142.93277.5754.90248a.44535.44535,0,0,1,.29679.09086.39545.39545,0,0,0,.19988.103.67659.67659,0,0,1,.25439.11508c.15748.103.27862.109,1.27195.09086a13.42472,13.42472,0,0,0,1.42341-.07874.79037.79037,0,0,1,.43609-.00606,1.7052,1.7052,0,0,1,.424.89037,1.77388,1.77388,0,0,0,.27256.86614,2.434,2.434,0,0,1,.23622.80556,2.51777,2.51777,0,0,1-.79346,2.659,2.34238,2.34238,0,0,1-.78134.69049,1.03551,1.03551,0,0,0-.40581.3089c-.03029.07268-.07874.13931-.103.13931a3.22983,3.22983,0,0,0-.38764.33313,1.85335,1.85335,0,0,1-.40581.33313c-.03029,0-.0848.06662-.1272.14536a.5009.5009,0,0,1-.23622.22411c-.19382.07268-.29679.2241-.62992.89036-.18776.37553-.212.46639-.16353.636a1.65431,1.65431,0,0,0,.50272.76923,2.20175,2.20175,0,0,1,.27256.19988,2.95444,2.95444,0,0,0,.55118.30284,5.89825,5.89825,0,0,1,.81163.44216,1.22534,1.22534,0,0,0,.6178.2665,1.29774,1.29774,0,0,1,.38764.06663,2.92259,2.92259,0,0,0,.957.04239,3.33015,3.33015,0,0,1,1.02968.40582,4.358,4.358,0,0,0,1.4052.5754.34776.34776,0,0,1,.212.07874,3.57169,3.57169,0,0,0,1.8413-.1817c.28468-.15143.35131-.35736.2544-.73895-.03029-.12114-.07874-.32707-.109-.46032a3.45949,3.45949,0,0,0-.16959-.5209.70854.70854,0,0,0-.44216-.43,2.6116,2.6116,0,0,1-.51483-.33313,9.78353,9.78353,0,0,0-.848-.60569,8.80962,8.80962,0,0,1-.79346-.55723,1.14688,1.14688,0,0,0-.37553-.18777,4.16418,4.16418,0,0,1-1.066-.48455,2.59885,2.59885,0,0,0-.424-.3089,1.3018,1.3018,0,0,1-.424-.36342c-.06663-.20593.46638-.89036.963-1.22955a3.12623,3.12623,0,0,0,.8298-.8298c.03634-.09691.09085-.17565.12113-.17565a5.07428,5.07428,0,0,0,.59358-1.7141,1.7795,1.7795,0,0,1,.19988-.8722,1.38918,1.38918,0,0,0,.17565-.71471,1.4135,1.4135,0,0,1-.01211-.315,1.69525,1.69525,0,0,0-.13319-.61182.97966.97966,0,0,1-.103-.47244c.03028-.07874-.04846-.3089-.24228-.69049a8.5715,8.5715,0,0,0-.73894-1.34463.35161.35161,0,0,1-.109-.1696,5.10023,5.10023,0,0,0-1.12053-.76317,1.285,1.285,0,0,0-.41792-.08479.85957.85957,0,0,1-.59358-.19988c-.06663-.109.06057-.27256.27256-.33919A2.76546,2.76546,0,0,0,17.67907,6.819a.33092.33092,0,0,1,.09691-.18777c.23017-.2241-.18776-.77528-.642-.848-.15142-.01817-.315-.04846-.36341-.06057A.69832.69832,0,0,0,16.4677,5.78935Z"/>
   <path class="a"
         d="M26.52217,9.62943a.06514.06514,0,0,0,.06057.06057.0607.0607,0,0,0,.06057-.06057.05723.05723,0,0,0-.05368-.06057h-.00689A.0607.0607,0,0,0,26.52217,9.62943Z"/>
   <path class="a"
         d="M26.825,15.26236a.05976.05976,0,0,0,.05451.06057.12991.12991,0,0,0,.09691-.06057c.01817-.03634-.00606-.06057-.05451-.06057C26.86742,15.20175,26.825,15.226,26.825,15.26236Z"/>

</g>
</svg>
