<?xml version="1.0" encoding="UTF-8"?>
<svg xmlns="http://www.w3.org/2000/svg"
     version="1.1"
     width="49.94286940mm"
     height="39.34318316mm"
     viewBox="0.00000000 0.00000000 141.57030348 111.52393780">

<g transform="scale(4.98973131)">   <defs>
      <style type="text/css"><![CDATA[
      .a {
        stroke: #000;
        stroke-linecap: round;
        stroke-linejoin: round;
        stroke-width: 0.01px;
      }
    ]]></style>
   </defs>
   <path class="a"
         d="M13.67607.06557A.51911.51911,0,0,1,13.34294.108a2.95472,2.95472,0,0,0-1.32646.07269,1.29448,1.29448,0,0,1-.38764.15142c-.12114.03028-.37553.07874-.5633.11508a2.61582,2.61582,0,0,0-.56935.18776A1.18861,1.18861,0,0,1,10.0601.756a.88216.88216,0,0,0-.61175.29679.691.691,0,0,1-.43.103,1.15632,1.15632,0,0,0-.82374.3089,4.02228,4.02228,0,0,0-.99939,1.07813,1.21462,1.21462,0,0,1-.29073.56935c-.26045.28468-.37553.44821-.37553.533a1.32023,1.32023,0,0,1-.17565.38764,2.2815,2.2815,0,0,0-.33919,1.06c-.03634.27862-.03028.3089.109.36947.16353.07268.70865-.01211.70865-.109,0-.03029.09691-.103.212-.15748a.49994.49994,0,0,0,.24223-.206,2.00548,2.00548,0,0,1,.35736-.39975,2.3086,2.3086,0,0,0,.34524-.37553c.01817-.0424.1272-.0848.25439-.103a1.20021,1.20021,0,0,0,.68443-.33919,3.68548,3.68548,0,0,1,1.19322-.3513.58286.58286,0,0,0,.27861-.12719,1.05934,1.05934,0,0,1,.64809-.14537A8.80863,8.80863,0,0,0,12.77359,2.991a.75124.75124,0,0,1,.3089-.04845,2.88439,2.88439,0,0,0,.3937-.03634.29848.29848,0,0,1,.33919.103c.13325.13326.14537.18171.12114.59964-.0424.79951-.04846.83585-.16959.92065a.36494.36494,0,0,0-.1272.19988.30112.30112,0,0,1-.12114.17565,5.66069,5.66069,0,0,0-.533.49061,4.99839,4.99839,0,0,1-.56329.50272c-.07874.03634-.13931.109-.13931.15748a4.34765,4.34765,0,0,1-.99939.99939.24581.24581,0,0,0-.15748.12719.32945.32945,0,0,1-.1817.13326,1.05884,1.05884,0,0,0-.30285.212,2.79436,2.79436,0,0,1-.49667.3513.69651.69651,0,0,1-.6178.09085,2.59888,2.59888,0,0,1-.50878-.15142A2.18646,2.18646,0,0,0,8.43079,7.667a4.07128,4.07128,0,0,1-1.44155-.418,1.74,1.74,0,0,0-.44215-.19382,1.29547,1.29547,0,0,1-.50272-.24228,1.23545,1.23545,0,0,0-.24228-.15142A2.83539,2.83539,0,0,1,5.263,6.20122a1.26171,1.26171,0,0,0-.43609-.35736,3.03929,3.03929,0,0,1-1.175-.61175A.60823.60823,0,0,0,3.08254,5.111a.90581.90581,0,0,1-.5209-.02423,1.3568,1.3568,0,0,0-.50878-.03634.89062.89062,0,0,1-.36947.03029,1.04425,1.04425,0,0,0-.4361.07268.84973.84973,0,0,1-.33918.0848,1.534,1.534,0,0,0-.7874.636c-.09086.18777-.15748.75712-.0848.75712.0848,0,.212.39975.16354.48455A.31915.31915,0,0,0,.22973,7.352a2.15173,2.15173,0,0,1,.09086.49666,4.77679,4.77679,0,0,0,.04845.4785c.01211.0848.03029.18171.03634.22411,0,.03634.109.08479.23622.109a.61908.61908,0,0,0,.49061-.11508.80023.80023,0,0,1,.33919-.12114.62174.62174,0,0,1,.17565.26045.91408.91408,0,0,0,.28467.33313c.16354.09691.212.09691.636.01211a3.97157,3.97157,0,0,0,.50878-.12719c.11508-.07269.25439.17565.22411.39975-.02423.18171-.00606.24834.11508.3513A.432.432,0,0,1,3.561,9.902c0,.06662.03634.12719.07874.13325a.88365.88365,0,0,1,.13325.01817.87071.87071,0,0,0,.13326.02423c.03634,0,.12113.09691.1817.20593a.42612.42612,0,0,0,.23622.20594c.06057.00605.29073.05451.50878.109a5.84787,5.84787,0,0,0,.60569.12114,1.51339,1.51339,0,0,1,.45427.1272,1.90506,1.90506,0,0,0,.93882.16959c.49061.02423.93277.16959,1.00545.32707A7.124,7.124,0,0,1,7.916,12.59731c-.00606.09691-.00606.24834-.00606.33313.00606.0848.00606.26651.00606.41187a1.06956,1.06956,0,0,0,.06663.37553.47292.47292,0,0,1-.02423.36947.50857.50857,0,0,0-.03634.3513,2.477,2.477,0,0,1,.09085.46033,4.17974,4.17974,0,0,0,.13325.636,2.34661,2.34661,0,0,1,.103.45427c.01211.09691.03634.24834.05451.33312a8.89253,8.89253,0,0,1,.12114,1.06,1.33436,1.33436,0,0,0,.1272.44216.43534.43534,0,0,1,.06662.25439,2.02576,2.02576,0,0,0,.41187.8843,1.20164,1.20164,0,0,1,.44216.78135,1.7202,1.7202,0,0,0,.2665.71471,1.36075,1.36075,0,0,1,.212.527c-.02423.03634.06057.103.19382.15748a1.08893,1.08893,0,0,1,.26045.13931c.01817.01817.16959.14537.33313.28468a2.35992,2.35992,0,0,0,1.25984.55117.63171.63171,0,0,1,.29679.02423.279.279,0,0,0,.24833-.01211c.11508-.05451.18776-.0424.34524.03634a.459.459,0,0,0,.27256.06663.28913.28913,0,0,1,.19988.06057c.11508.07873.16354.07267.46033-.06057a.98723.98723,0,0,1,.36341-.11509c.01212.01818.09086-.01211.1696-.06662a.57385.57385,0,0,1,.29073-.09691.85372.85372,0,0,0,.51484-.26651,2.535,2.535,0,0,1,.41186-.2665,3.95261,3.95261,0,0,0,.46639-.30286c.15142-.13324.50272-.43609.84191-.72682l.26044-.22411-.03634-.4482a.98137.98137,0,0,1,.15143-.7874,6.18483,6.18483,0,0,1,.40581-.60569,1.1955,1.1955,0,0,0,.23622-.38159,1.68582,1.68582,0,0,1,.109-.29678.34742.34742,0,0,0,.06057-.23017c-.05451-.09691.0424-.24833.21805-.34524a.375.375,0,0,0,.20594-.25439,3.1066,3.1066,0,0,1,.18776-.47244,1.56861,1.56861,0,0,0,.15142-.61781,1.29136,1.29136,0,0,1,.05451-.37552.54133.54133,0,0,0-.006-.29679.93869.93869,0,0,1,.01211-.43.554.554,0,0,0-.05451-.4785c-.109-.23623-.109-.28467-.03634-.46638a1.183,1.183,0,0,0,.08479-.39977,1.06814,1.06814,0,0,1,.0848-.3513.31494.31494,0,0,0,.03029-.29073.50107.50107,0,0,1-.02423-.26045.326.326,0,0,0-.05451-.24833.502.502,0,0,1,.03028-.6178c.15748-.19987.16959-.49667.03634-.9691a2.04718,2.04718,0,0,1-.08479-.636.926.926,0,0,0-.04846-.43,1.93,1.93,0,0,1-.12114-.34524c-.03634-.17565-.01211-.22411.20594-.44215a.85092.85092,0,0,1,.3513-.24228,2.61721,2.61721,0,0,0,.90853-.34525,1.62229,1.62229,0,0,1,.39976-.17565c.58752-.09691.72683-.1393.83585-.2544a.46886.46886,0,0,1,.16354-.13325.78386.78386,0,0,0,.23622-.16959,1.83307,1.83307,0,0,1,.51484-.37553c.02422,0,.29073-.12114.59357-.2665a2.82381,2.82381,0,0,1,.54513-.24228,1.58685,1.58685,0,0,0,.35735-.24228,4.30285,4.30285,0,0,1,.745-.44215,1.3447,1.3447,0,0,0,.79952-.6602.29611.29611,0,0,1,.16959-.18171,1.81079,1.81079,0,0,0,.44215-.35736,1.822,1.822,0,0,1,.43-.35736.428.428,0,0,0,.212-.2241.55159.55159,0,0,1,.33918-.30285c.35736-.15142.80557-.59963.80557-.80557a.39635.39635,0,0,1,.1272-.2665,1.87049,1.87049,0,0,0,.30284-.4785c.16354-.33313.17565-.39975.11508-.60569-.14536-.52089-.60569-.56935-.98727-.109a.977.977,0,0,1-.533.35736,3.06522,3.06522,0,0,0-1.26589.68443.74485.74485,0,0,1-.39975.53906.94768.94768,0,0,0-.29679.27256.28865.28865,0,0,1-.16354.15142.92728.92728,0,0,0-.29073.20594,1.47838,1.47838,0,0,1-.34524.26046.87363.87363,0,0,0-.29073.30284.679.679,0,0,1-.25439.27862.43349.43349,0,0,0-.18171.15748,4.0939,4.0939,0,0,1-1.08419.73289.52568.52568,0,0,0-.24227.23622.766.766,0,0,1-.33919.3089c-.1272.05451-.23016.12114-.23016.14536a6.196,6.196,0,0,1-1.67777.88431,5.08429,5.08429,0,0,0-1.21138.55724c-.315.19988-.315.20593-.854.16353a1.24807,1.24807,0,0,0-.8722.11509,2.42406,2.42406,0,0,1-.3937.15748.7836.7836,0,0,0-.2665.18776,1.91376,1.91376,0,0,1-.36947.27256,1.374,1.374,0,0,0-.29679.212.40785.40785,0,0,1-.19988.11508.56962.56962,0,0,0-.26045.15143,2.4138,2.4138,0,0,1-1.5324.72077,1.85756,1.85756,0,0,0-.76317.38764.97092.97092,0,0,0-.07874.37553c0,.25439.01817.30285.25439.527.315.30285.38159.32707.64809.212a1.04834,1.04834,0,0,1,.38159-.07874A.39333.39333,0,0,0,14.197,10.968c.12719-.13325.6178-.04845.642.109,0,.03634.01211.09085.01211.12719.00606.03029.0424.13931.07874.24228a1.61019,1.61019,0,0,1,.09691.39976,1.2261,1.2261,0,0,0,.07269.29678,1.77446,1.77446,0,0,1,.06662.44822,10.59079,10.59079,0,0,0,.11508,1.33857,2.6566,2.6566,0,0,1,.04846.50273c.00606.16959.03634.315.06057.315.07874,0,.2241.39975.2241.60569a.64925.64925,0,0,1-.19987.49061,2.30931,2.30931,0,0,0,.02422,1.0539,2.27521,2.27521,0,0,1,.03029.54512c-.01817.09691-.04846.315-.06057.48455-.02423.33919-.13325.61175-.26045.66021a.7326.7326,0,0,1-.35736-.09691.47823.47823,0,0,1-.33918-.39976c-.05452-.212-.1272-.3089-.3937-.51484a3.12792,3.12792,0,0,1-.93882-1.01756,6.71964,6.71964,0,0,0-.44216-.62386c-.08479-.103-.13931-.218-.12114-.26045s.04846-.11508.06663-.16353a.21394.21394,0,0,0-.0848-.19383,1.10513,1.10513,0,0,1-.3513-.7026,1.09563,1.09563,0,0,0-.17565-.46638,3.0696,3.0696,0,0,1-.2665-.59358c-.06663-.20593-.15143-.43-.18171-.49061a.83781.83781,0,0,1-.01211-.424.76548.76548,0,0,0-.02423-.44215,2.40515,2.40515,0,0,1-.11508-.59964,7.44781,7.44781,0,0,0-.109-.81768,3.29268,3.29268,0,0,1,.03634-1.593.166.166,0,0,0-.02422-.13325.28117.28117,0,0,1,.03028-.24228.28013.28013,0,0,0,.03029-.24227c-.109-.17565.103-.50878.56935-.87826.12113-.103.29678-.24227.37552-.321a.56788.56788,0,0,1,.218-.13325,1.89294,1.89294,0,0,0,.3513-.13326.68486.68486,0,0,0,.38765-.33918.77651.77651,0,0,1,.29073-.30285,1.5212,1.5212,0,0,0,.62386-.6602.45932.45932,0,0,1,.20593-.23016.60943.60943,0,0,0,.25439-.27862,2.08972,2.08972,0,0,1,.212-.34525,2.30309,2.30309,0,0,0,.48455-.73288A10.24156,10.24156,0,0,1,15.71723,3.088a1.53178,1.53178,0,0,1,.19382-.36341,2.73114,2.73114,0,0,0,.51484-1.4476c.02423-.218-.3089-.82374-.44821-.82374A1.0548,1.0548,0,0,1,15.6506.33206c-.16353-.07874-.2665-.09691-.33918-.06057a.19621.19621,0,0,1-.218-.02423A2.36825,2.36825,0,0,0,14.1788.05951,1.59579,1.59579,0,0,1,13.876.011C13.84567-.00712,13.76087.01711,13.67607.06557Z"/>

</g>
</svg>
