<?xml version="1.0" encoding="UTF-8"?>
<svg xmlns="http://www.w3.org/2000/svg"
     version="1.1"
     width="19.01686100mm"
     height="45.53542658mm"
     viewBox="0.00000000 0.00000000 53.90607236 129.07681430">

<g transform="scale(2.93145265)">   <defs>
      <style type="text/css"><![CDATA[
      .b {
        stroke: #000;
        stroke-linecap: round;
        stroke-linejoin: round;
        stroke-width: .01px;
      }
    ]]></style>
   </defs>
   <path class="b"
         d="M3.14229,1.58728c-.04836.1059-.0979.22078-.07495.33491.0281.13973.15395.23372.25731.33185.64292.61037.55877,1.62998.5808,2.51622.03592,1.44528.48133,2.85745.51217,4.30284.02742,1.28534-.26626,2.53475-.26719,3.81073-.00117,1.59761-.42426,3.28735-.75093,4.84361-.67698,3.22522-1.59985,6.39593-2.1785,9.64228-.6942,3.8946-.88624,7.85891-1.07687,11.8103-.05185,1.07481-.10371,2.14969-.1362,3.22526-.01641.54316.02222,1.18622.48063,1.47803.24793.15782.56405.16642.85356.11585,1.23643-.216,2.11534-1.39013,2.42477-2.60655.30943-1.21642.17655-2.49413.13983-3.74874-.0347-1.18565.01854-2.37278.12442-3.55421.05568-.62132.14253-1.28174.54539-1.75802.33337-.39412.83249-.60016,1.31165-.79215l7.17552-2.87511c1.82864-.7327,3.71967-1.50713,5.06561-2.94561.10217-.1092.20396-.22776.24058-.37275.08062-.31926-.2004-.63893-.51858-.72374s-.65413-.00036-.97246.08389c-.89765.23757-1.7953.47515-2.69295.71272-.5751.15221-1.15555.30645-1.68367.58029-.73868.38302-1.33997.98111-2.02027,1.46021-1.47135,1.0362-3.33757,1.49618-5.12193,1.26242,1.68312-3.90821,1.06695-8.47215,2.52136-12.47111.394-1.08333.93824-2.11892,1.18047-3.24593.32094-1.49323.09178-3.05068.27488-4.56699.07057-.58445.26641-1.24381.806-1.47919.39815-.17368.85531-.05657,1.28964-.06339.79159-.01243,1.55949-.4848,1.92754-1.18573s.32096-1.60126-.11822-2.25996c-.2998-.44966-.75085-.7727-1.19404-1.08199C10.5648,1.33261,8.90748.27712,7.07115.06204c-1.55617-.18226-3.23601.00813-3.92885,1.52524,0,0-.00001,0,0,0Z"/>

</g>
</svg>
