<?xml version="1.0" encoding="UTF-8"?>
<svg xmlns="http://www.w3.org/2000/svg"
     version="1.1"
     width="34.89457275mm"
     height="31.48174825mm"
     viewBox="0.00000000 0.00000000 98.91372356 89.23959355">

<g transform="scale(4.12381070)">   <defs>
      <style type="text/css"><![CDATA[
      .a {
        stroke: #000;
        stroke-linecap: round;
        stroke-linejoin: round;
        stroke-width: 0.01px;
      }
    ]]></style>
   </defs>
   <path class="a"
         d="M18.85457.09585a2.11191,2.11191,0,0,1-.95093.53907,2.22583,2.22583,0,0,0-.50878.14536c-.17565.07269-.321.11509-.321.09086s-.03634.00606-.08479.07268a.31694.31694,0,0,1-.20594.12114,3.21747,3.21747,0,0,0-.957.58146,1.83836,1.83836,0,0,1-.45427.29073,2.49653,2.49653,0,0,0-.49667.33313.56357.56357,0,0,1-.24227.15748.56592.56592,0,0,0-.26045.17565,1.17388,1.17388,0,0,1-.33313.23622,1.344,1.344,0,0,0-.38158.39976,2.53207,2.53207,0,0,1-.38765.46033A10.7363,10.7363,0,0,0,12.06478,4.899a2.45315,2.45315,0,0,1-.27256.34525,2.54391,2.54391,0,0,0-.5633,1.3628,1.45265,1.45265,0,0,0,.62992.636,2.13527,2.13527,0,0,1,.26651.08479,1.87348,1.87348,0,0,0,.95093.00606.498.498,0,0,1,.38764.03029q.28164.09993.38159.03634a.96371.96371,0,0,1,.44215.00605A2.06867,2.06867,0,0,0,15.57779,7.34c.19987-.12114.218-.12114.43609-.03029a.71523.71523,0,0,0,.38765.05452,1.11025,1.11025,0,0,1,.69654-.00606.91476.91476,0,0,1,.212.76317,1.16079,1.16079,0,0,0,.00606.3937.51582.51582,0,0,1-.03634.33313.488.488,0,0,0-.04846.29679,3.63881,3.63881,0,0,1,.09086.80557,6.08442,6.08442,0,0,0,.01211.9267,3.97742,3.97742,0,0,0,.09085.70261c.0848.20593.0424.6178-.06662.68443-.07269.04239-.06663.07268.03634.17565.09691.09691.109.16353.06662.46032-.04239.321-.07268,1.16293-.103,3.09508-.01817.99939-.06663,1.14476-.46033,1.41732-.23016.16354-.25439.16959-.38764.07874a1.96665,1.96665,0,0,0-.64809-.13931c-.38159-.03028-.533-.07268-.62386-.16354-.12114-.12113-.3937-.14536-.8298-.07268-.2241.03634-.36947-.00606-.79345-.24228a.32715.32715,0,0,0-.30285-.03634.47575.47575,0,0,1-.37553-.06057,2.66473,2.66473,0,0,0-.87825-.16959c-.58146-.04845-.67232-.0424-.87825.06663a.74762.74762,0,0,1-.48455.07874.726.726,0,0,0-.53907.11508.79882.79882,0,0,1-.38158.12113,1.19157,1.19157,0,0,1-.27257-.315c-.15747-.23622-.1817-.321-.15142-.49667a2.05383,2.05383,0,0,0,.0424-.30285,1.41636,1.41636,0,0,1,.07874-.3089.568.568,0,0,0-.03028-.52695.80691.80691,0,0,1-.07874-.33919.49964.49964,0,0,0-.03029-.26044c-.13325-.44821-.12719-.66626.02423-.87826a.90669.90669,0,0,0,.06057-.8843,1.27122,1.27122,0,0,1-.05451-.533,2.43952,2.43952,0,0,0,.01817-.44821c-.01212-.1272-.01212-.36342.00605-1.30224a.61186.61186,0,0,1,.09086-.26045A.31531.31531,0,0,0,9.539,9.89593a.77938.77938,0,0,1,.02422-.33918A7.73813,7.73813,0,0,0,9.648,7.51557a3.43468,3.43468,0,0,0-.14537-.51484,4.58679,4.58679,0,0,1-.14536-.46638.95905.95905,0,0,0-.18777-.33919c-.1393-.16353-.17565-.17565-.43609-.14536a1.5954,1.5954,0,0,0-.72078.32707,2.55673,2.55673,0,0,0-.527.4361.745.745,0,0,1-.28467.218c-.17565.07268-.22411.06056-.59358-.109a3.40336,3.40336,0,0,0-1.1811-.33919A1.82837,1.82837,0,0,1,4.9721,6.4677a.41625.41625,0,0,0-.315-.03634.59687.59687,0,0,1-.62992-.0848,4.16487,4.16487,0,0,0-.35736-.30284c-.25439-.19382-.424-.47244-.36947-.61175a1.0843,1.0843,0,0,1,.315-.27862c.2665-.17565.29679-.1817.854-.16353a1.77906,1.77906,0,0,1,.94488.20593,3.07871,3.07871,0,0,1,.59358.40581l.23622.218.103-.12719c.09692-.1272.1696-.13325.90248-.14537.76317-.01817.80557-.02422.98122-.17565a.707.707,0,0,1,.29679-.15748c.18777,0,.33313-.23016.38764-.62386.07269-.56329.109-.90854.109-1.04179V3.14248a1.64667,1.64667,0,0,0-.09085-.49061.80411.80411,0,0,0-.57541-.46638,1.01233,1.01233,0,0,1-.321-.0848,1.67483,1.67483,0,0,0-1.07813-.15142c-.61175.07268-.76923.06662-.98122-.0424C5.808,1.816,5.73531,1.82207,5.384,1.9311c-.04846.01211-.17565.03028-.27862.0424a.9273.9273,0,0,0-.33313.103A1.62923,1.62923,0,0,1,4.4149,2.24a1.77907,1.77907,0,0,0-.51484.32707,5.53743,5.53743,0,0,1-.7874.52695A6.003,6.003,0,0,0,1.53787,4.51134a2.53911,2.53911,0,0,1-.46638.4361.28654.28654,0,0,0-.1696.20593.65279.65279,0,0,1-.1817.321A.90348.90348,0,0,0,.53848,5.747a1.07065,1.07065,0,0,1-.24834.315c-.16353.16354-.23622.27862-.212.33919A.52309.52309,0,0,1,.0418,6.704c-.06662.18777-.06057.212.16959.4785.1272.15748.33919.4361.46639.62992a2.97856,2.97856,0,0,0,.424.50878,1.39323,1.39323,0,0,0,.80557.36341.68654.68654,0,0,1,.315.03029,6.1939,6.1939,0,0,0,1.0115.24227,4.40923,4.40923,0,0,1,.55118.12114,2.34051,2.34051,0,0,0,.61175.09085,1.16471,1.16471,0,0,1,.46638.06663.80628.80628,0,0,0,.34525.06663c.03028-.02423.12719.03634.212.12114.13325.13325.15142.18776.109.3513a11.48744,11.48744,0,0,0-.0364,1.76852c.00606.16354-.00606.69655-.02423,1.1811s-.03634.957-.03634,1.06a4.0714,4.0714,0,0,0,.06663.636,11.37447,11.37447,0,0,1,.15142,1.21138c.01817.15142.03634.33919.05451.424.06057.29073.1696.99939.18171,1.21138a1.20756,1.20756,0,0,0,.22411.49667l.19987.28468-.103.2665a2.191,2.191,0,0,1-.30891.51484,1.18062,1.18062,0,0,0-.212.30284.68794.68794,0,0,1-.14536.23622.99381.99381,0,0,0-.18171.38764c-.04846.27256.11508.533.52089.84191a.93253.93253,0,0,0,.66626.23017,3.92733,3.92733,0,0,1,.533.04845,2.63709,2.63709,0,0,0,.34524.04846.60183.60183,0,0,1,.36948.17565.553.553,0,0,0,.3089.16353.82306.82306,0,0,1,.30284.0848.26737.26737,0,0,0,.25439.03029.32546.32546,0,0,1,.44216.09691.58558.58558,0,0,0,.7874.01211.566.566,0,0,1,.45427-.15748,1.523,1.523,0,0,0,.43609-.06663,1.3451,1.3451,0,0,1,.5209-.03028c.93276.07874,1.19321.07874,1.31435.00606a.74455.74455,0,0,1,.36947-.05452,7.91429,7.91429,0,0,0,1.84736.04846c.218-.02423.50272-.04846.636-.05451a1.012,1.012,0,0,0,.37553-.0848c.103-.05451.16959-.05451.34524.01817a1.00906,1.00906,0,0,0,.47244.06057c.14537-.01817.41187-.0424.59358-.05451a1.72382,1.72382,0,0,0,.8298-.22411,1.00287,1.00287,0,0,1,.32707-.11508,1.61762,1.61762,0,0,0,.3937-.13325,1.34119,1.34119,0,0,1,.48455-.12114,2.02581,2.02581,0,0,0,.62386-.13931c.315-.11508.46033-.13931.53907-.09691.08479.0424.18776.02423.41187-.08479a1.40867,1.40867,0,0,1,.3937-.15143,1.01261,1.01261,0,0,0,.30284-.08479,2.59817,2.59817,0,0,1,.50878-.1272A1.27474,1.27474,0,0,0,22.519,19.684a.57854.57854,0,0,1,.32708-.11508.65874.65874,0,0,0,.38764-.18171.791.791,0,0,1,.28467-.18171.15307.15307,0,0,0,.12114-.09085.42879.42879,0,0,1,.18777-.16354.2736.2736,0,0,0,.02422-.47849.39552.39552,0,0,1-.1393-.17565.74858.74858,0,0,0-.0848-.22411.53439.53439,0,0,1-.07268-.2241c0-.04846-.0848-.14537-.18171-.218a.35083.35083,0,0,0-.3513-.0848,2.3996,2.3996,0,0,1-1.175-.103c-.19382-.103-.29679-.55723-.32708-1.47788-.01817-.36947-.04239-.9146-.06056-1.21138a3.391,3.391,0,0,1,.06056-1.30224c.05452-.28467.1272-.66626.15143-.848.03028-.1817.07268-.41187.09691-.50272a4.22888,4.22888,0,0,0,.06057-.66626c.01817-.69049.0424-2.28346.03028-2.46516a1.49423,1.49423,0,0,1,.07874-.5209,5.59414,5.59414,0,0,0,.06663-.82374,4.20432,4.20432,0,0,1,.07875-.81166.76619.76619,0,0,0,.03028-.37553c-.02423-.23016-.06057-.29073-.33919-.49667-.16959-.13325-.38764-.30284-.49061-.38158a2.76317,2.76317,0,0,0-.36947-.24228c-.2241-.11508-.29073-.24833-.20593-.40581a.44819.44819,0,0,1,.49061-.218.57158.57158,0,0,0,.54512-.47244c.00606-.0848.01211-.17565.01817-.20594a3.04907,3.04907,0,0,0,.103-.70865,2.96488,2.96488,0,0,0-.54512-1.00545.74334.74334,0,0,1-.218-.39976,1.08982,1.08982,0,0,0-.18777-.44821.76015.76015,0,0,1-.14536-.29679A1.46926,1.46926,0,0,0,20.3264.435a3.14725,3.14725,0,0,1-.321-.29679C19.89031.02317,19.81762.005,19.38153.005,18.99994.005,18.8788.02317,18.85457.09585Zm-1.599,3.295a1.033,1.033,0,0,0,.29073.24834c.15748.11508.36947.27861.4785.36947a2.53661,2.53661,0,0,0,.46638.29073,1.68851,1.68851,0,0,1,.4361.27862l.15748.15748-.12114.19382a.88278.88278,0,0,1-.29679.28467,3.53984,3.53984,0,0,0-.321.19988c-.20593.14537-.28467.13325-.66626-.103a2.0322,2.0322,0,0,0-.5754-.24833,1.67316,1.67316,0,0,1-.3513-.103.225.225,0,0,0-.20594.00606c-.16959.09085-.71471-.23622-.854-.51484-.05452-.103-.03029-.17565.13325-.424a1.63289,1.63289,0,0,1,.75711-.67232c.315-.17565.34525-.18171.50273-.103.09079.04857.16953.1091.16953.13938Z"/>
   <path class="a"
         d="M6.35311,6.14671a.09567.09567,0,0,0,.09441.09691H6.45c.103,0,.0848-.13325-.02423-.1696C6.3834,6.06191,6.35311,6.09219,6.35311,6.14671Z"/>
   <path class="a"
         d="M13.71226,12.3187a2.40782,2.40782,0,0,0-.57541.32707c-.18171.13931-.40581.3089-.49061.38159a1.341,1.341,0,0,1-.26045.15748.29264.29264,0,0,0-.13325.15748.57716.57716,0,0,1-.28467.23016,2.5668,2.5668,0,0,0-.44821.28467,1.9714,1.9714,0,0,0-.5633,1.15687.49549.49549,0,0,0,.22411.47244.89492.89492,0,0,0,.49667.24228,1.72326,1.72326,0,0,1,.49061.15142,2.05723,2.05723,0,0,0,.636.14537,2.29651,2.29651,0,0,0,1.81707-.33313,1.85281,1.85281,0,0,1,.3937-.18171,1.11741,1.11741,0,0,0,.48456-.58752.42258.42258,0,0,1,.05451-.19382.201.201,0,0,0-.03029-.218c-.04845-.07268-.06662-.14537-.04845-.16959a2.9894,2.9894,0,0,0-.3513-1.10236,1.49433,1.49433,0,0,0-.64809-.68443,4.87963,4.87963,0,0,0-.49061-.3089C13.96665,12.25207,13.84551,12.28236,13.71226,12.3187Z"/>
   <path class="a"
         d="M16.88,12.42167a.932.932,0,0,0-.2665.19382c-.02423.03634.06057.00605.19382-.07269C17.21315,12.30053,17.26161,12.22179,16.88,12.42167Z"/>

</g>
</svg>
