<?xml version="1.0" encoding="UTF-8"?>
<svg xmlns="http://www.w3.org/2000/svg"
     version="1.1"
     width="57.81355798mm"
     height="56.73967644mm"
     viewBox="0.00000000 0.00000000 163.88093845 160.83690634">

<g transform="scale(4.12381070)">   <defs>
      <style type="text/css"><![CDATA[
      .b {
        stroke: #000;
        stroke-linecap: round;
        stroke-linejoin: round;
        stroke-width: .15px;
      }
    ]]></style>
   </defs>
   <path class="b"
         d="m5.42406,27.639c.003.022.007.044.011.065.239,1.34131.34585,2.70283.319,4.065-.08211,1.10695-.56407,2.14623-1.356,2.924-.47117.56312-.97609,1.0971-1.512,1.599-.542.466-1.163.825-1.73,1.258-.255.194-1.592.892-.869,1.334.19121.06059.39697.05708.586-.01.331-.07.519-.504.744-.727.24753-.25911.54254-.46824.869-.616.65948-.30725,1.27302-.70472,1.823-1.181.27942-.3195.50809-.68004.678-1.069.69-1.121,2.217-1.401,2.929-2.564.22712-.30766.38227-.66238.454-1.038.05731-.43887.04176-.88419-.046-1.318-.12086-1.0379-.06746-2.0887.158-3.109.03091-.63791-.06389-1.27567-.279-1.877-.23613-1.31442-.28729-2.65541-.152-3.984.02718-1.2583-.10112-2.51515-.382-3.742-.1276-.86145-.07275-1.7401.161-2.579.10271-.40121.16898-.81087.198-1.224-.04013-.33832.00989-.68124.145-.994.164-.269.501-.354.659-.63.14133-.31306.32616-.60461.549-.866.23383-.28632.5182-.52731.839-.711.49819-.14182.98224-.32928,1.446-.56.1996-.14358.41626-.26181.645-.352.592-.227,1.145-.546,1.743-.757.635-.18252,1.29335-.27079,1.954-.262,1.562-.088,3.112-.354,4.679-.346.899.004,1.787-.039,2.684-.084,2.679-.138,5.321-.236,7.999-.134.573.022,1.151-.075,1.725-.025.72334.1416,1.47179.07964,2.162-.179.863-.454,2.211-.208,2.481-1.421.09146-.27801.12913-.57089.111-.863-.049-.199-.355-.385-.527-.463-.31428-.09156-.61695-.21907-.902-.38-.481-.365-2.104-1.044-2.185-1.708-.176-1.434,2.363-1.241,3.208-1.243.26199.01949.51887.0827.76.187.10481.0459.21867.06744.333.063.292-.0005.57631-.09363.812-.266.21093-.30037.32089-.66003.314-1.027.039-.58-.291-.738-.828-.75-.93167.05278-1.85447.2101-2.751.469-.82074.06715-1.61332.33054-2.311.768-.717.551-1.595.844-2.293,1.413-1.859,1.513,2.263,2.412,2.35,3.718.015.224.103.329.344.263.147-.041.583-.037.648.161.071.22-.161.136-.266.164-.30707.13637-.6344.2215-.969.252-.938-.039-1.869-.171-2.811-.18-.529-.005-1.054-.073-1.58-.125-.46659-.00018-.93275-.02823-1.396-.084-.38123-.06944-.76866-.09893-1.156-.088-.94136-.04201-1.88425-.036-2.825.018-.517.04-1.048.024-1.56.094-.39.053-.775.076-1.156.16-.46.102-.924.016-1.382.105-.55322.05802-1.11066.06405-1.665.018-.98107.05325-1.95535.19483-2.911.423-.04893.01046-.09916.01349-.149.009-.44842-.00692-.88747.12858-1.254.387-.31884.18322-.66284.31866-1.021.402-1.40693.46285-2.67645,1.26877-3.694,2.345-.361.319-.721.643-1.099.936-.442.342-.813.669-1.287.973-.281.18-.625.302-.706.692-.01083.05839-.04379.11034-.092.145-.403.219-.422.638-.497,1.006-.089.438-.094.894-.172,1.335-.065.375-.211.737-.269,1.113-.099.635-.104,1.278-.162,1.917-.034.384-.178.752-.204,1.138.04334.46791.1441.9287.3,1.372.05117.56603.05485,1.13535.011,1.702.06657,1.52756.25889,3.04703.575,4.543Z"/>

</g>
</svg>
