<?xml version="1.0" encoding="UTF-8"?>
<svg xmlns="http://www.w3.org/2000/svg"
     version="1.1"
     width="48.20488769mm"
     height="48.00515803mm"
     viewBox="0.00000000 0.00000000 136.64385296 136.07761432">

<g transform="scale(4.22440051)">   <defs>
      <style type="text/css"><![CDATA[
      .a {
        stroke: #000;
        stroke-linecap: round;
        stroke-linejoin: round;
        stroke-width: 0.01px;
      }
    ]]></style>
   </defs>
   <path class="a"
         d="M15.703.03993a.759.759,0,0,1-.321.07874.8723.8723,0,0,0-.23016.15143.90355.90355,0,0,1-.37553.1817.90663.90663,0,0,0-.36342.18777A.45875.45875,0,0,1,14.1706.791c-.04846,0-.09086.01817-.09086.04846,0,.02422-.09085.09691-.20593.15748a.67149.67149,0,0,0-.27862.27256,1.64419,1.64419,0,0,1-.43.424,2.017,2.017,0,0,0-.35736.315,1.22993,1.22993,0,0,1-.23622.28467c-.2665.26651-.3937.47244-.33918.55724a.23837.23837,0,0,1-.03029.18171.699.699,0,0,0,.02423.6602.71286.71286,0,0,1,.13325.3513c.01817.1272.0424.33919.05451.47244a4.50981,4.50981,0,0,0,.0848.48455c.03028.13326.07268.30891.0848.3937.01817.0848.04845.25439.07268.37553a.31953.31953,0,0,1-.11508.37553c-.1272.13325-.20594.15748-.527.15748a.94958.94958,0,0,0-.7874.321c-.0424.06057-.23622.0848-.98122.1272a3.411,3.411,0,0,0-1.55663.39976c0,.03028-.103.08479-.2241.12113a1.1865,1.1865,0,0,0-.3513.18777,1.42449,1.42449,0,0,1-.33313.19988.99645.99645,0,0,0-.321.218c-.06057.06662-.13325.109-.16354.09085-.03634-.01817-.09085.03028-.13325.11508-.03634.0848-.09085.15748-.12114.15748s-.04845.03634-.04239.07268c.02422.18171-.02423.23622-.315.38765a2.0427,2.0427,0,0,0-.4361.27256.50951.50951,0,0,1-.17565.11508c-.02423,0-.04846.05451-.04846.12114,0,.15142-.27861.44821-.36341.39369-.03634-.01817-.06057-.01211-.06057.01818s-.07874.09085-.18171.13325c-.09691.0424-.1817.09691-.1817.12719,0,.02423-.05452.06663-.12114.0848s-.12114.07268-.12114.12114c0,.109-.3937.49061-.65415.62992-.07874.04239-.12114.09691-.103.12113a.2364.2364,0,0,1-.07873.17565c-.06057.06663-.16354.19988-.23017.28468-.06057.09085-.14536.19382-.17565.23622a2.44987,2.44987,0,0,0-.19382.27862,1.33415,1.33415,0,0,1-.3089.32707,1.2271,1.2271,0,0,0-.30285.34524.98462.98462,0,0,1-.315.33313.47212.47212,0,0,0-.218.29074,1.7834,1.7834,0,0,1-.24834.49666,1.39738,1.39738,0,0,0-.2241.4785.34488.34488,0,0,1-.0848.20593.94275.94275,0,0,0-.18776.61781c.06056.103-.0424.29073-.20594.36341-.18171.0848-.41187.49061-.34524.60569a.99892.99892,0,0,1-.24834.78135.98973.98973,0,0,0-.07268.36947,2.38314,2.38314,0,0,1-.15142.61174,1.20226,1.20226,0,0,0-.09691.533.9425.9425,0,0,1-.09691.48456.45155.45155,0,0,0-.07874.2665.56076.56076,0,0,1,.03028.25439.78419.78419,0,0,0,.0848.36342.27244.27244,0,0,1,.03028.315,1.60673,1.60673,0,0,0-.09085.34525,2.22756,2.22756,0,0,1-.24228.56328c-.212.37554-.212.38764-.12719.59964a.69066.69066,0,0,1,.05451.34524c-.02423.103.00606.16353.12114.23622.21805.14536.32707.53906.35736,1.29012a1.59861,1.59861,0,0,0,.14536.66626,1.13319,1.13319,0,0,1,.11508.4785.4423.4423,0,0,0,.15748.39975c.1696.17565.36342.50272.315.55118-.05451.06057.21805.56935.46033.86008a1.04508,1.04508,0,0,1,.24227.424,1.45813,1.45813,0,0,0,.15143.43,1.84188,1.84188,0,0,1,.15142.37552c0,.0424.06057.109.13325.14537a1.199,1.199,0,0,1,.27862.24229.46178.46178,0,0,0,.2665.17565c.16354,0,.69049-.55724.73289-.78134a.27765.27765,0,0,1,.16353-.218c.06663-.02423.109-.06057.09086-.08481a1.62259,1.62259,0,0,1,.20593-.66626c.09086-.19381.103-.37553.06057-1.03573a4.57035,4.57035,0,0,1,.05451-.6602,1.182,1.182,0,0,0,.00606-.56329.22672.22672,0,0,1-.02423-.16959.65733.65733,0,0,0-.15142-.54513c-.09085-.109-.103-.16353-.05451-.25439a.27689.27689,0,0,0,.03028-.19988.65764.65764,0,0,1,.01817-.25439.51672.51672,0,0,0-.07268-.41187,1.36993,1.36993,0,0,1-.212-.92671A.73106.73106,0,0,0,3.789,20.694a1.40885,1.40885,0,0,1-.103-.5209.96581.96581,0,0,0-.0848-.424A4.5743,4.5743,0,0,1,3.365,18.48925c-.00606-.2665-.03028-.34524-.109-.43-.07269-.06662-.07269-.103.00605-.212a.23121.23121,0,0,0,.03029-.23622,3.90927,3.90927,0,0,1,.03028-1.18715c.02423-.03029.01212-.12114-.01817-.19988a.379.379,0,0,1,.03029-.3089,1.3511,1.3511,0,0,0,.109-.43005,1.29573,1.29573,0,0,1,.15748-.49061.48783.48783,0,0,0,.09691-.39369,1.16148,1.16148,0,0,1,.47244-.96911c.09085-.09085.15748-.19382.13931-.22411a1.07109,1.07109,0,0,1,.08479-.41187c.06663-.19987.13326-.41187.14537-.47849.03029-.12114.12114-.20594.50878-.4361.27256-.16354.45427-.32707.47244-.424a5.30279,5.30279,0,0,1,.83585-.9146c.12114-.12113.20594-.24833.18777-.29678-.03634-.103.12114-.26651.25439-.26651a2.0192,2.0192,0,0,0,.52089-.424,1.92817,1.92817,0,0,1,.50273-.424.41738.41738,0,0,0,.23016-.13931,2.59511,2.59511,0,0,1,.48455-.38158,1.07447,1.07447,0,0,0,.212-.15142c.01817-.01817.24834-.13931.51484-.27256a3.63778,3.63778,0,0,0,.56329-.315.361.361,0,0,1,.19382-.07269.14785.14785,0,0,0,.13326-.07268c.01817-.0424.109-.06663.2241-.06057a.50358.50358,0,0,0,.28468-.05451.38885.38885,0,0,1,.19382-.07874c.05451-.00606.218-.04846.36341-.0848A.62873.62873,0,0,1,11.5479,7.611a.73775.73775,0,0,0,.533.02423c.09086-.04846.14537-.03029.27256.103a.46983.46983,0,0,1,.11509.62992.84816.84816,0,0,0-.09086.41186.86905.86905,0,0,1-.109.40582c-.109.18171-.11508.24227-.05451.55723a.67031.67031,0,0,1-.0848.62387,1.92324,1.92324,0,0,0-.19988.50878,1.99063,1.99063,0,0,1-.13325.41792,1.32338,1.32338,0,0,0-.109.47244.85855.85855,0,0,1-.07874.36947,3.43382,3.43382,0,0,0-.321.95094c.02423,0,.07874.06662.11508.15142.06057.13325.05451.16959-.04846.25439a.3881.3881,0,0,0-.12113.25439.75575.75575,0,0,1-.11509.33313,1.57712,1.57712,0,0,0-.15747.43c-.03029.13325-.05452.27862-.06663.32708a.19479.19479,0,0,1-.09085.12719.1312.1312,0,0,0-.03635.13931.24748.24748,0,0,1-.07874.218,1.302,1.302,0,0,0-.16959.29679c-.03028.09085-.14537.38158-.25439.64809-.103.2665-.212.56935-.23622.67231a1.37735,1.37735,0,0,1-.28467.43.65764.65764,0,0,0-.25439.527.78418.78418,0,0,1-.24228.61781.1381.1381,0,0,0-.05451.16354c.02423.06662-.01817.15748-.103.24227a.62926.62926,0,0,0-.24833.58147,1.18113,1.18113,0,0,1-.29074.73894.07577.07577,0,0,0-.01817.103c.07269.11508-.03028.24227-.28467.33918a1.17208,1.17208,0,0,0-.61175.61781.29683.29683,0,0,0,.09691.27862,1.9644,1.9644,0,0,1,.24228.34524.57281.57281,0,0,0,.19988.22411.782.782,0,0,0,.66626-.19383.61645.61645,0,0,1,.26044-.17565.888.888,0,0,0,.24228-.08479,1.44519,1.44519,0,0,1,.44215-.07874A1.10144,1.10144,0,0,0,10.173,21.548c.03634-.02423.15748-.12719.27256-.2241.27862-.23622.73894-.3937.90248-.30891.09085.04846.19382.0424.41187-.03028a1.75369,1.75369,0,0,1,1.25378.03634c.18171.109.24227.11508.55723.06057.69049-.109.73895-.13324.963-.36947a.629.629,0,0,1,.36342-.23622.6329.6329,0,0,0,.315-.14537c.2665-.218.44215-.29073.60569-.24833a.73168.73168,0,0,0,.46032-.12113.82372.82372,0,0,1,.45427-.13325.66752.66752,0,0,0,.33313-.04846.61066.61066,0,0,1,.40581-.01817.935.935,0,0,0,.44821,0c.29679-.08479.41793.03029.36342.33919-.06057.3513-.46033.92065-.642.92065-.03029,0-.04846.05451-.04846.12114a.49392.49392,0,0,1-.15142.27862.49951.49951,0,0,0-.15142.27256c0,.13931-.18171.47849-.25439.47849a.79311.79311,0,0,0-.13931.315,1.44089,1.44089,0,0,1-.40582.72077.32316.32316,0,0,0-.109.18777.46689.46689,0,0,1-.11508.23622,4.0476,4.0476,0,0,0-.24833.41187,1.96179,1.96179,0,0,1-.315.44821c-.109.109-.16354.218-.13931.27862.03028.09085-.03634.19988-.26045.46032a1.274,1.274,0,0,1-.19382.15143c-.315.212-.36947.27861-.38764.49666a.6266.6266,0,0,1-.12114.321.334.334,0,0,0-.09691.13931,1.06939,1.06939,0,0,1-.20594.2665c-.19988.218-.321.533-.25439.64809.02423.03029-.01211.109-.07874.16959a1.632,1.632,0,0,0-.218.321,1.82259,1.82259,0,0,1-.14536.24228.62659.62659,0,0,0-.109.19382.79032.79032,0,0,1-.3089.28467c-.19988.103-.62992.55118-.52695.55118.01817,0,0,.06057-.03634.13325a.87473.87473,0,0,0-.06663.35736.50555.50555,0,0,1-.109.35736.58774.58774,0,0,0-.12115.18776.35434.35434,0,0,1-.1272.16354,1.24222,1.24222,0,0,0-.03634,1.066c.09692.103.07875.27861-.03028.27861-.03028,0-.03633.03029-.01817.06663a.10786.10786,0,0,0,.12719.03028.18149.18149,0,0,1,.1696.05452c.103.109.33918.11508.67231.01817a2.73723,2.73723,0,0,1,.4966-.07866,2.63747,2.63747,0,0,0,.424-.06057,1.70642,1.70642,0,0,1,.3513-.06057,2.37453,2.37453,0,0,0,.82374-.29072.67011.67011,0,0,1,.22411-.09692c.218-.06662.37553.03635.37553.24227,0,.13931.16959.15748.218.02423.02423-.05451-.02423-.15142-.12114-.24228a.6171.6171,0,0,1-.15748-.18776,2.00369,2.00369,0,0,1,.3513-.57541c.02423-.006.13325-.01817.24833-.03028a.46575.46575,0,0,0,.315-.16959A1.82641,1.82641,0,0,1,17.514,29.84a.80462.80462,0,0,0,.24834-.0848c.3513-.19987.957.15748,1.19321.69655a1.24017,1.24017,0,0,1,.13325.40581c-.01212.03029.03028.109.0848.16354a.25422.25422,0,0,1,.07874.218c-.03635.15748.66626.46032,1.21138.52695a.55732.55732,0,0,1,.27256.0848c.01817.03028.103.04845.18776.04239a.71629.71629,0,0,1,.3513.103c.109.06663.218.109.23622.0848.01817-.01817.109.01211.19988.06662.15748.09086.18171.0848.46033-.06662a1.3445,1.3445,0,0,0,.41187-.33313,1.34763,1.34763,0,0,1,.93276-.51484.54812.54812,0,0,0,.30285-.03028.42532.42532,0,0,1,.31495-.006c.15748.04845.23017.03027.41793-.09086a2.104,2.104,0,0,1,.53907-.24227c.17565-.05451.315-.12114.315-.15748,0-.0303.09085-.09692.19987-.14538a1.02441,1.02441,0,0,0,.34525-.27256c.25439-.315.3089-.3634.36341-.33313.05451.03635.60569-.49061.60569-.58146,0-.02423.0848-.09691.19382-.15142a1.48235,1.48235,0,0,0,.25439-.15748,2.947,2.947,0,0,1,.30891-.18777,1.75135,1.75135,0,0,0,.533-.58146c.33918-.50878.34524-.65415.01211-.848-.24833-.14536-.36342-.11508-.72077.1696a.93308.93308,0,0,1-.30891.18776,2.49513,2.49513,0,0,0-.87825.527.5614.5614,0,0,1-.34524.19382,10.16607,10.16607,0,0,1-1.593-.01817c-.11508-.01211-.26045-.02423-.315-.03028a.422.422,0,0,1-.23016-.1272,1.9989,1.9989,0,0,0-.35736-.24227,1.09944,1.09944,0,0,1-.29073-.19383,1.65819,1.65819,0,0,0-.28468-.25439,1.05193,1.05193,0,0,1-.29678-.33918,1.02875,1.02875,0,0,0-.29679-.33313,1.623,1.623,0,0,1-.38159-.45427,1.15013,1.15013,0,0,0-.321-.38159.51517.51517,0,0,1-.23017-.24227.577.577,0,0,0-.47849-.38765c-.19382-.01211-.51484.0848-.51484.16354a.63291.63291,0,0,1-.27256.14537c-.15142.06057-.27256.13325-.27256.16353a1.34738,1.34738,0,0,1-.27256.33919,1.628,1.628,0,0,0-.27256.315,1.62384,1.62384,0,0,1-.3513.21805c-.41793.218-.58147.33919-.6057.44821a1.31054,1.31054,0,0,1-.54512.65415.98714.98714,0,0,0-.38764.29073,1.48781,1.48781,0,0,1-.424.33313,2.47561,2.47561,0,0,0-.73289.39975c-.315.26651-.49061,0-.4361-.67231a9.73481,9.73481,0,0,0,.02423-1.31435c-.01211-.22411.13325-.533.25439-.533.03634,0,.04846-.04846.03029-.109-.02423-.07268.03028-.212.15142-.36947.12114-.16959.17565-.30284.15143-.38764a.68622.68622,0,0,1,.26045-.55118.36256.36256,0,0,0,.12719-.18776,2.15639,2.15639,0,0,1,.49061-.61781.2754.2754,0,0,0,.09691-.2241.18266.18266,0,0,1,.06057-.18777.52233.52233,0,0,0,.11508-.24833.60893.60893,0,0,1,.16959-.3089c.11508-.109.13932-.18171.103-.25439-.07269-.1272.01211-.28468.31495-.61781.06057-.06662.1272-.109.15143-.09691.05451.02423.33918-.27862.36341-.38764a.295.295,0,0,1,.09691-.14537.985.985,0,0,0,.18777-.51483c.00605-.04846.01817-.12114.02422-.16354,0-.0424.07874-.11508.16354-.15748.19988-.103.3513-.49061.23622-.60569a.87314.87314,0,0,1-.23622-.55118.21973.21973,0,0,1,.33313-.09085c.09085.0424.212.03028.50878-.07269.34524-.11508.41186-.16353.533-.38764.09691-.16959.12719-.29073.09691-.3513-.07874-.13325-.00606-.2665.22411-.40581.16959-.109.19382-.14537.14536-.27256-.07874-.19988.03634-.321.3937-.41187.27862-.06663.3089-.09691.46638-.40582l.16354-.33313-.13325-.04845a1.4996,1.4996,0,0,1-.321-.19382.547.547,0,0,0-.424-.1272,1.29426,1.29426,0,0,1-.41793-.05451,1.21829,1.21829,0,0,0-.80557.02423.251.251,0,0,1-.19382.03634.7479.7479,0,0,0-.59358.212,1.34029,1.34029,0,0,1-.90853.25439.603.603,0,0,0-.39976.103.66469.66469,0,0,1-.26045.11508.474.474,0,0,0-.19382.06663,1.05623,1.05623,0,0,1-.27256.09691q-.21774.04676-.43.11508a1.42062,1.42062,0,0,1-.66626.0424c-.27256-.03634-.37553-.03029-.44215.03028a.29081.29081,0,0,1-.18171.09085c-.05451.00606-.22411.01819-.36947.02423a1.75471,1.75471,0,0,0-.46638.11508c-.11509.05452-.29679.14537-.41187.19988-.18777.09086-.23017.09086-.49061,0-.24834-.07874-.315-.07874-.41793-.01211a2.12362,2.12362,0,0,1-.61175.109c-.2665.01817-.50878.03634-.54512.04846a.95752.95752,0,0,1-.59358-.218c-.0424-.103.01817-.321.23016-.7874a2.41705,2.41705,0,0,0,.23622-.97516,1.1436,1.1436,0,0,1,.30285-.68443.2628.2628,0,0,0,.09691-.16354.97133.97133,0,0,1,.24228-.32707,1.17414,1.17414,0,0,0,.34524-.95094.58752.58752,0,0,1,.15748-.51483.21162.21162,0,0,0,.0848-.15143,2.414,2.414,0,0,1,.27256-.72683.3467.3467,0,0,0,.03634-.218c-.01817-.15142.00606-.20593.24228-.70865a1.8073,1.8073,0,0,0,.15748-.50878.46363.46363,0,0,1,.15747-.321.19757.19757,0,0,0,.103-.20594.3776.3776,0,0,1,.103-.28467.80371.80371,0,0,0,.15748-.73894.46731.46731,0,0,1,.04845-.37553c.17566-.26651.23017-.28468.57541-.16354a4.35214,4.35214,0,0,0,.4785.13931.53834.53834,0,0,1,.25439.13325c.05451.04846.12719.07269.15748.05451.03634-.02422.13325.00606.2241.06057a1.133,1.133,0,0,0,.4361.12114,2.59208,2.59208,0,0,1,.44821.06057.5712.5712,0,0,0,.321-.01817.24176.24176,0,0,1,.37553.13931.68862.68862,0,0,0,.26044.24833c.18171.09086.212.09086.35736.00606.14537-.09085.17565-.0848.424.05451a1.24689,1.24689,0,0,0,.44822.15748,2.411,2.411,0,0,0,.91459-.15748,2.4606,2.4606,0,0,1,.82374-.05451,7.08341,7.08341,0,0,0,1.81707-.05451.93637.93637,0,0,1,.57541.01817A1.25046,1.25046,0,0,0,23.68,10.246a1.04324,1.04324,0,0,1,.27861.05451.41644.41644,0,0,0,.35131.00606.23063.23063,0,0,1,.24833-.00606c.09085.04845.17565.03634.37553-.06663a1.4503,1.4503,0,0,1,.73894-.16959c.07268-.00606.09691-.03634.07268-.09691-.01817-.04846.03634-.15748.12114-.24228.12114-.12114.17565-.13931.27256-.09085.06057.03634.11508.0848.11508.109a.35535.35535,0,0,0,.04846.12114c.0424.06057.12719.0424.38764-.07268a2.23555,2.23555,0,0,1,.52695-.16959,1.062,1.062,0,0,0,.4785-.27862c.49061-.44821.751-.61781.92671-.61781a.54017.54017,0,0,0,.36947-.19988,3.22662,3.22662,0,0,1,.60569-.424,1.4485,1.4485,0,0,0,.50272-.39976,1.30478,1.30478,0,0,1,.56329-.51483.97517.97517,0,0,0,.28468-.36947.96724.96724,0,0,1,.30284-.36948,2.10872,2.10872,0,0,0,.81769-1.066.41663.41663,0,0,1,.12719-.23622c.09691-.09691.1272-.218.13931-.533.01817-.35736,0-.43-.12719-.58146a.4749.4749,0,0,0-.43-.18171c-.18171-.01211-.30285-.04846-.35131-.11508a.13057.13057,0,0,0-.17387-.06215l-.01389.00764a.58982.58982,0,0,1-.26045.0424c-.08479-.00606-.46638-.02423-.848-.0424s-.81163-.04846-.95094-.07269a.6816.6816,0,0,0-.6602.14537.91843.91843,0,0,1-.7874.27862c-.27256-.03634-.315-.01212-.68443.424a.17051.17051,0,0,1-.1696.06663.39272.39272,0,0,0-.26044.09085.36705.36705,0,0,1-.30285.09691.86839.86839,0,0,0-.38158.05451,1.03728,1.03728,0,0,1-.45427.06057.86111.86111,0,0,0-.45427.0848,6.73291,6.73291,0,0,1-1.13264.44215.30559.30559,0,0,0-.16354.07269.26121.26121,0,0,1-.212.04845.36821.36821,0,0,0-.315.13325.74517.74517,0,0,1-.3937.18777,1.29391,1.29391,0,0,0-.66626.19988,4.56691,4.56691,0,0,1-1.04179.61174,1.48664,1.48664,0,0,0-.62992.27257,1.766,1.766,0,0,1-.79345.3513.36421.36421,0,0,0-.22411.07268,1.696,1.696,0,0,1-.48455.15142,1.99122,1.99122,0,0,0-.963.49061A.83289.83289,0,0,1,16.969,7.88384a.81011.81011,0,0,0-.41187-.103c-.28467-.01211-.72077-.212-.72077-.33313,0-.103-.02423-.14536-.16354-.27256a.74292.74292,0,0,1-.24228-.745,3.29433,3.29433,0,0,0,.07874-.58146,2.263,2.263,0,0,1,.103-.81768,1.838,1.838,0,0,0,.01212-.89643c-.03029-.30284-.01817-.41792.05451-.533a.58.58,0,0,0,.06057-.59964c-.109-.15142-.01817-.29679.315-.49061L16.327,2.3478l-.02423-.58147a4.75511,4.75511,0,0,0-.07268-.76317,2.74322,2.74322,0,0,1-.06057-.424c-.01817-.41793-.03029-.46033-.0848-.424-.03028.01817-.09691-.01212-.14536-.06057C15.8423-.00246,15.75751-.02064,15.703.03993ZM30.179,4.85518c.23622.08479.27862.19382.1272.37553a.67747.67747,0,0,0-.11509.212,1.348,1.348,0,0,1-.23621.33918,1.86075,1.86075,0,0,0-.27862.39976c-.01817.06663-.06057.12114-.09086.12114a.26292.26292,0,0,0-.13325.07874,1.6333,1.6333,0,0,1-.26045.18776.89525.89525,0,0,0-.23016.19988.904.904,0,0,1-.28467.19988,1.05218,1.05218,0,0,0-.25439.16354,3.869,3.869,0,0,1-1.89582.84191.46292.46292,0,0,0-.28467.06057.4475.4475,0,0,1-.26045.06056,1.50583,1.50583,0,0,0-.43.06057,5.80576,5.80576,0,0,1-1.41732.16354,2.50026,2.50026,0,0,0-.53906.06663,1.38888,1.38888,0,0,1-.7874.07268.51484.51484,0,0,0-.315.06057c-.13931.06662-.20593.07268-.30284.01817a1.10783,1.10783,0,0,0-.28468-.0848.39258.39258,0,0,1-.24833-.14536.51116.51116,0,0,0-.36342-.15748c-.43609-.0424-.46032-.22411-.06057-.44822a.81411.81411,0,0,0,.27257-.218.553.553,0,0,1,.47243-.18777.8083.8083,0,0,0,.37553-.15748,2.44848,2.44848,0,0,1,.46033-.24227,1.07025,1.07025,0,0,0,.321-.1696,1.56739,1.56739,0,0,1,.76923-.34524.20756.20756,0,0,0,.18777-.0424c.21805-.22411.38158-.27862.58146-.212.15142.05451.212.05451.24228,0a1.31375,1.31375,0,0,1,.66626-.22418,1.12158,1.12158,0,0,0,.3089-.08479A.18267.18267,0,0,1,26.024,5.788a1.48683,1.48683,0,0,0,.44821-.06662,4.80951,4.80951,0,0,1,.61781-.109.4557.4557,0,0,0,.27256-.11508.335.335,0,0,1,.20593-.1272,1.22063,1.22063,0,0,0,.24834-.09085.39635.39635,0,0,1,.23622-.03028.426.426,0,0,0,.29073-.07269,7.74256,7.74256,0,0,1,1.55057-.38158A.88719.88719,0,0,1,30.179,4.85518Z"/>
   <path class="a"
         d="M30.288,22.4081a.06552.06552,0,1,0,.09086-.01816l0,0a.06172.06172,0,0,0-.0865.01165Z"/>

</g>
</svg>
