<?xml version="1.0" encoding="UTF-8"?>
<svg xmlns="http://www.w3.org/2000/svg"
     version="1.1"
     width="17.24514710mm"
     height="43.78779080mm"
     viewBox="0.00000000 0.00000000 48.88385716 124.12287026">

<g transform="scale(2.74024787)">   <defs>
      <style type="text/css"><![CDATA[
      .b {
        stroke: #000;
        stroke-linecap: round;
        stroke-linejoin: round;
        stroke-width: .01px;
      }
    ]]></style>
   </defs>
   <path class="b"
         d="M3.2993.23176c-.22266.10938-.48828.27734-.58594.36719-.16797.14453-.63672,1.03906-.63672,1.20703,0,.03906-.16797.39453-.36328.79297-.19922.39063-.35938.75781-.35938.81641,0,.12109-.28516.6875-.54297,1.0625-.29688.44141-.57422,1.17578-.57422,1.51172,0,.09766-.05859.28125-.12891.41797-.09766.19141-.11328.46484-.09766,1.375.02344.95313.06641,1.21484.21875,1.61719.30859.78906.61328,1.02344,1.04688.80078.13672-.07422.3125-.11328.39063-.08203.19141.05469.41016.54297.41016.90234,0,.16797.04688.35547.10156.40234.07422.07813.11328.80078.15234,2.71875.09766,4.20703.15234,5.57031.23438,5.64844.03906.04688.07031.27344.07031.51172,0,.23438.04688.50391.09766.60156.14844.26953.23047,1.36719.30078,4.375.04297,1.51953.08984,2.96875.12109,3.21484.04688.42578.03125.50391-.23047,1.02344-.34375.66406-.35938.92969-.08203,1.43359.21875.40625.21875.47266.06641,3.32031-.02734.54297-.00781.94531.03906,1.03906.07813.16016.11328.59375.21484,2.57031.02344.48828.08984.92578.13672.99219.05469.0625.12109.46875.15234.91797s.09375,1.16797.14453,1.60938c.03906.4375.10938,1.14453.15234,1.55859.08594.98438.21484,1.3125.62109,1.66406.91406.80859,1.16016.84766,1.69141.3125.375-.38281.8125-1.18359.8125-1.49609,0-.11328.05859-.28125.12109-.36719.16797-.21875.16797-3.09766,0-3.39453-.18359-.30859-.15234-.77344.05469-.95703.10547-.08984.38672-.34375.63281-.5625.25-.22266.48828-.39844.53516-.39844.15234,0,1.48047-1.40234,1.80078-1.88672.16797-.26563.38672-.59375.48047-.74609.09766-.15234.28906-.38281.41797-.51953.25391-.26563,2.59766-4.88672,2.59766-5.14453.00781-.07813.11328-.28906.24219-.46484.125-.17578.38281-.62109.56641-1,.18359-.375.42578-.78906.51953-.93359.10547-.13672.19141-.28125.19141-.3125,0-.02344.12109-.19141.26563-.35156.13672-.16797.34375-.43359.45703-.59375.10938-.16016.33594-.47266.50391-.67969.16016-.21484.29297-.41406.29297-.44922,0-.03125.11328-.19141.24219-.35156.72656-.85547.87891-1.07031.87891-1.24609,0-.10547.03906-.21484.08203-.24219.13281-.08594.08594-1.16797-.06641-1.4375-.51953-.89844-.55078-.92188-1.50391-.92188-.45313,0-.75781-.03906-.91797-.12891-.12891-.0625-.30469-.09375-.39453-.07031-.16797.05469-.47656.53516-.47656.74219,0,.07422-.09766.3125-.20313.53906-.10938.21484-.19922.42969-.19922.46094,0,.14453-.88672,1.89844-.96094,1.89844-.03906,0-.15234.17578-.24609.39063-.08984.21484-.23438.45703-.32031.53516-.08203.07422-.15234.1875-.15234.24219s-.08594.20703-.19922.33594c-.11328.13672-.19922.26172-.19922.28906,0,.03125-.12109.23828-.26563.46875-.14453.23438-.35938.61719-.48828.85938-.12891.23828-.28125.49609-.33594.55859s-.375.66406-.71094,1.33594c-.32813.67188-.63281,1.23828-.67188,1.25391-.10547.06641-.57031.98438-.57031,1.12109,0,.20703-.32813.71094-.64453,1.01563-.17969.16016-.3125.34375-.3125.41016,0,.0625-.06641.17578-.14453.24609-.08203.08203-.23437.3125-.33594.53516-.19141.41016-.38672.5625-.49609.38672-.03125-.05859-.06641-.43359-.06641-.83984,0-.40234-.03125-.76172-.07813-.78516-.11328-.0625-.11328-4.09766,0-4.16016s.11328-6.73437,0-6.80078c-.04688-.03125-.08203-.82422-.08203-2.10156-.00781-1.63281-.03125-2.09766-.11719-2.25781-.16797-.29688-.16797-8.02344,0-8.32031.0625-.11328.10938-.3125.11719-.44922,0-.26953.3125-.61328.64063-.71094.11328-.02344.27344-.08594.36719-.13672.13672-.0625.28125-.02344.73828.21094.3125.16016.64063.28516.72656.28516.08984,0,.18359.03516.21094.08203.02344.03906.25391.07813.50391.07813.24609.00781.54297.05859.65234.12109.26563.15234.64844.15234.92969,0,.12891-.0625.28906-.12109.35938-.12109.07422,0,.19141-.07031.27344-.16016.07813-.08594.19141-.16016.25391-.16016.14453,0,.48047-.36719.61719-.67188.0625-.13281.20703-.50391.32813-.80469.12109-.3125.25-.64063.28906-.74609s.07031-.35156.07031-.55859c.00781-.21094.05859-.46484.12109-.57813.0625-.10938.11328-.375.12109-.58203,0-.3125-.05859-.47266-.28125-.81641-.16016-.23438-.40625-.51953-.55859-.63281-.14453-.11328-.29688-.28906-.32031-.38281-.07422-.22656-.86719-1.05859-1.24219-1.30469-.34375-.21484-.66406-.28125-1.75781-.32813-.80859-.03906-.84766-.03906-1.12109.16016-.15234.11328-.38281.27344-.51953.34375-.12891.07813-.45703.35156-.73828.61719-.55078.51953-.67188.52734-.87891.09375-.07031-.15234-.22266-.32031-.34375-.36719s-.32031-.19922-.44922-.32813c-.11719-.12891-.26172-.23047-.32031-.23047-.04688,0-.13281-.05859-.19141-.11328C5.01805.22395,4.43602-.00262,4.06883.0052c-.20313.00781-.53125.10547-.76953.22656Z"/>

</g>
</svg>
