<?xml version="1.0" encoding="UTF-8"?>
<svg xmlns="http://www.w3.org/2000/svg"
     version="1.1"
     width="34.74385667mm"
     height="43.07519079mm"
     viewBox="0.00000000 0.00000000 98.48649149 122.10286803">

<g transform="scale(4.63129774)">   <defs>
      <style type="text/css"><![CDATA[
      .b {
        stroke: #000;
        stroke-linecap: round;
        stroke-linejoin: round;
        stroke-width: .25px;
      }
    ]]></style>
   </defs>
   <path class="b"
         d="M10.74759,4.0356c-.13297.78872-.01806,1.59485.05476,2.39137.27968,3.05939-.06726,6.13752-.41379,9.19005-.07065.6223-.14238,1.2497-.33782,1.84472-.52393,1.59513-1.86116,2.77042-2.73455,4.20435-.1107.18174-.21755.38302-.19825.59495.02704.29683.28711.51168.53262.68069.69595.47909,1.44647.87886,2.23237,1.18909.15466.06105.31441.11939.48065.12269.75772.01505,1.07871-.99881,1.7511-1.34846.43943-.22851,1.02892-.11617,1.3535.25794s.35264.97356.06442,1.37635c.64846.24488,1.89196-1.71814,2.16395-2.94111-1.46507.23883-1.65334-.0368-1.93933-.40479-.42739-.54993-1.12715-.88743-1.36817-1.54087-.27071-.7339-.05657-1.56295.29814-2.26014s.8447-1.32087,1.17384-2.03049c.91666-1.97632.46865-4.28212.64571-6.45347.2169-2.65985,1.39611-5.2199,1.25174-7.88467-.01621-.29911-.07154-.63672-.31986-.80426-.32619-.22007-.76257-.01505-1.09287.1988-1.31972.85444-3.31494,1.93748-3.59815,3.61724v.00002Z"/>
   <path class="b"
         d="M5.45478,6.73947c-.40318.02396-.81485.04978-1.18874.20254-.40836.16685-.74161.47264-1.06537.77226-.95258.88157-1.90516,1.76315-2.85773,2.64472-.13757.12731-.28613.32356-.18416.48084.0655.10102.20195.12223.32191.13245,1.88231.16044,3.79393-.02972,5.60774-.55785,1.67392-.48739,3.43585-1.26463,5.08831-.70883.24076-.15523.06402-.56032-.20272-.66476s-.57308-.05438-.84354-.14878c-.46452-.16213-.6939-.74421-.55712-1.21681s.56348-.82057,1.0309-.97414c.28777-.09454.62785-.14905.79023-.40475.21212-.33403-.06753-.81229-.44908-.9171s-.78743.06376-1.10946.29368c-.64437.46007-.88848.8176-1.6876.90665-.88963.09913-1.79984.10677-2.69357.15988Z"/>
   <path class="b"
         d="M14.78552,4.66123c-.28388.07403-.58078.16812-.77489.38811-.20996.23796-.2574.57387-.29581.88888-.07928.65019-.15855,1.30039-.23783,1.95058-.00723.05927-.01358.12326.01591.17518.03196.05625.09758.08331.15981.101.89656.25487,1.83826-.62784,2.72597-.34368.63679.20384.94628.91747,1.09812,1.56862s.24819,1.36659.71814,1.84219c.13658.13822.3063.25185.49778.28496.37346.06457.74279-.19871.91892-.5343s.20023-.728.2097-1.10688c.01288-.51523.00538-1.03098-.02249-1.54562-.0422-.77921-.22762-1.69568-.94309-2.00722-.2084-.09075-.48107-.15466-.53567-.3753-.06304-.2547.23105-.44795.48467-.5152.59583-.158,1.24976-.11783,1.79744-.40072.1796-.09277.35199-.23276.40412-.42807.08162-.30578-.17755-.61842-.47973-.7125-.63315-.19711-1.78816.22604-2.4547.27702-1.10543.08455-2.21145.21263-3.28637.49295Z"/>
   <path class="b"
         d="M14.22082,16.83521c-.63173.84373-.91486,2.03596-.41652,2.96473.35908.66923,1.04503,1.08766,1.56292,1.64317.57423.61594.93598,1.395,1.28834,2.15982.08194.17786.16501.38123.09189.5629-.06318.15697-.22386.24764-.37029.33243-.75602.43776-1.41913,1.03511-1.9332,1.74146,2.02261-.33261,3.92995-1.33176,5.35497-2.80515.72201-.74652,1.34687-1.68591,1.34145-2.72444-.00493-.94414-.5247-1.79873-1.02753-2.59786-.55311-.87903-1.53803-3.36616-2.70392-3.52578-.98457-.1348-2.64751,1.52671-3.18811,2.24872Z"/>

</g>
</svg>
