<?xml version="1.0" encoding="UTF-8"?>
<svg xmlns="http://www.w3.org/2000/svg"
     version="1.1"
     width="55.29302488mm"
     height="59.65602497mm"
     viewBox="0.00000000 0.00000000 156.73614714 169.10368843">

<g transform="scale(2.79105180)">   <defs>
      <style type="text/css"><![CDATA[
      .b {
        stroke: #000;
        stroke-linecap: round;
        stroke-linejoin: round;
        stroke-width: .01px;
      }
    ]]></style>
   </defs>
   <path class="b"
         d="M23.20113.07542c-.67969.16016-.86328.23438-1.19141.44922-.37891.23828-.73828.30469-2.26563.39063-.60938.03125-.89453.08984-1.32031.26563-.29688.12891-.71875.29688-.94531.36719-1.07813.38281-1.29297.48047-1.59766.69531-.40234.28906-.55859.5625-.63281,1.03906-.04688.32813-.03125.40234.14453.60938.11328.13672.34375.28125.50391.32813.16797.04688.45703.14453.64844.20703.23828.08984.71875.13672,1.55859.16016.9375.02344,1.32813.07422,1.70313.19141.59375.20313,1.41016.60156,1.54688.76953.05469.0625.29297.20703.52734.32031.28125.12891.47266.27344.55078.43359.06641.125.16797.25391.23438.27734.17578.06641.78906.92188.85547,1.19141.03906.14453.19141.625.34375,1.06641.26953.78125.35156,1.16797.41406,2.03906.08203,1,.10547,1.26563.18359,1.76953.04297.28516.12109.60547.16797.70313.16797.30469.21875,1.60547.09766,2.26172-.01563.11328-.38281.16797-1.28125.18359-.81641.01172-.99219.04297-1.4375.23438-.67188.28906-.90625.46484-1.39453,1.07813-.46484.57031-.6875.92188-.92578,1.43359-.09766.19141-.22656.39844-.28906.46484-.18359.18359-.67969.96094-.67969,1.05469,0,.05469-.18359.47266-.41797.9375-.50391,1.00781-.61328,1.07813-1.26953.78906-.24219-.10156-.49609-.18359-.57813-.19141-.17578,0-1.24609-.375-1.36719-.47266-.05469-.04688-.25391-.10156-.44922-.13281-.19922-.02344-.4375-.10547-.54297-.16797-.10156-.06641-.58203-.25781-1.0625-.42578-.54297-.19141-1.06641-.44922-1.375-.66406-.27344-.19141-.67578-.42969-.89844-.53516-.21484-.10547-.75781-.39063-1.19922-.64844s-1.10547-.59375-1.48047-.75391c-.75781-.31641-.96875-.46094-1.14453-.80469-.0625-.12891-.21484-.28906-.32813-.35156-.10938-.05859-.20703-.13672-.20703-.17969,0-.03125-.19922-.14844-.44141-.26172-.24609-.10547-.64844-.36719-.90234-.58594-.25-.22266-.65625-.49609-.89453-.61328-.38672-.19141-.46484-.21094-.69922-.12891-.18359.07031-.30078.07031-.41406.01563-.08984-.04688-.22266-.08984-.3125-.08984-.19141,0-.92969.69922-1.30469,1.23438-.25391.375-.53516.66406-1.19141,1.23047-.26563.23438-.27344.25781-.18359.51172.05469.14453.12109.44141.14453.66406.03125.21875.09375.45703.15234.51953.05469.06641.21484.32031.35156.5625.3125.55859.57422.83984.98438,1.03906.17578.09766.33594.21484.35938.28125.02344.05469.30469.26172.61719.44531.31641.19531.71094.46484.87891.60938.16016.14453.32813.26563.36719.26563s.25.14453.45703.32031c.21484.17578.60547.42188.87109.55078.26563.12109.625.32031.79297.42969.16797.12109.39063.21875.48828.21875.09375,0,.26953.07031.38281.16016.11328.08594.41797.25391.67188.375.25781.11328.53516.27344.625.34375.08594.08203.29688.16016.47266.18359.16797.03125.44531.14453.61328.26563.17578.11719.44922.23828.60938.27734.35156.07422,1.87891.69141,1.94531.78516.03906.05469.51172.15234,1.05469.20703.11328.01563.25391.05078.30469.08203.05469.03125.23828.05469.40625.05469.21875-.00781.54297.10547,1.00781.32031.49609.24219.80859.34375,1.13672.35938.54297.03125.87109.07422,1.44922.19141.23828.05078.67188.10547.96094.12109.28516.02344.59766.05469.69531.07422.42188.09375,1.41406,1.46094,1.50391,2.0625.20703,1.49609.16016,3.34375-.10547,4.29688-.09375.33594-.39844,1.23828-.51953,1.51953-.04688.11328-.08984.24609-.10547.30469-.00781.0625-.07813.17578-.15234.25391-.07031.08203-.10938.18359-.08594.23438.05469.08594-.67969,1.66406-1.00781,2.16797-.23438.35938-.44141.80469-.64063,1.38281-.15234.44922-.15234.47266-.01563.86328.19141.52734.41406.66406,1.27344.75391.17578.02344.39844.05469.49609.07813.22266.05469.71875-.24609,1.17578-.71094.17578-.18359.53516-.45703.78906-.60156.25781-.14453.5625-.38281.67969-.53516.28906-.36719.76172-.6875.92188-.625.32031.12109.75.89844.86328,1.53516.03906.25.11328.63281.16016.85938.13672.69531.22266,1.10156.3125,1.55859.03906.23828.10547.81641.12891,1.27344.01563.45313.0625.88672.10156.95703.03516.07422.05078.27344.02734.44922-.01953.17578-.04297.42578-.05078.55859-.01563.12891-.04688.3125-.07031.40234-.02344.08594-.07422.35938-.09766.59766-.03906.44922-.08594.69922-.32813,1.76172-.07031.32813-.12891.73438-.12891.89453,0,.16797.01172.35156.01172.40234,0,.05469-.01953.27734-.03516.50391-.05469.64063.10547,1.11719.51953,1.57422.20313.22656.48828.46484.64063.54297.15234.08203.47266.32813.70703.55469.35938.35156.40625.42969.33594.56641-.08984.16797-.15234.19141-1,.3125-.30469.04688-.80078.12109-1.08984.16797-.28906.03906-.74219.08203-1.01563.08203-.26563,0-.74609.05469-1.0625.11719-.32031.07422-.69141.12109-.82422.12109-.27344-.00781-1.32813.11328-2.12891.23047-1.00781.16016-1.21484.07422-1.32031-.55859-.08984-.53516-.48047-1.25391-.71875-1.32031-.10547-.02344-.45703,0-.77734.04688-.47266.08203-.73438.19531-1.375.57031-.44141.26172-.85547.47266-.92188.47266-.07031,0-.39063.14453-.71094.32031-.3125.17578-.625.29297-.67969.26953-.12109-.03906-.81641.3125-1.05859.53516-.08594.08203-.35938.33594-.60547.57031-.46484.4375-.69531.83203-1.10547,1.80859-.21484.51172-.23828.65625-.21484,1.19922.03125.72656.25391,1.24609.58984,1.39063.12109.05078.63281.09766,1.13672.09766.81641.00781.98438-.01563,1.48047-.20703.48828-.1875.66406-.21094,1.32031-.19531.56641.00781.87891-.02344,1.22266-.13281.48828-.16016.97656-.15234,1.65625.01563.20313.05469.54688.125.76953.16797.22266.04687.55078.13672.71875.20703.16797.07031.44141.14453.59375.16016.15234.00781.58984.07031.97656.13672.40625.07031.79688.09375.95703.0625.14453-.03125.71484-.04688,1.26563-.02344.55078.02344,1.19922.03125,1.44141.03125,1.64063-.02344,2.35156-.01563,2.83984.00781.3125.01563.75781-.02344,1.00781-.07813.25391-.06641.81641-.09766,1.32031-.08984.51172.00781,1.03125-.03125,1.26953-.09375.35938-.09766,1.08203-.12109,2-.07422.61719.03125,2.80859-.07812,3.23438-.16016.23047-.04688.50391-.07031.59766-.04688.08984.02344.35156.00781.57031-.03906.66406-.14453,1.73438-.28906,2.75781-.35938.57031-.04297,1.04297-.11328,1.13672-.16797.04688-.03516.35938-.07422.69531-.08203.33594-.01563.73828-.07813.89063-.14453.34375-.13672,1.42969-.36719,1.91797-.41406.19922-.01563.80859-.07422,1.35938-.11328.55469-.04688,1.21875-.10547,1.48047-.12891.26563-.02344.60156-.07031.73828-.11719.14063-.05078.28516-.06641.32813-.04297.03906.02344.20703-.00781.375-.0625.19141-.07422.48828-.09766.77344-.07422.25781.02734.55469.01172.68359-.04688.23047-.08594,1.40625-.24609,2.18359-.28906.86328-.05469,1.24609-.10938,1.59766-.23828.19922-.07813.66406-.19922,1.03906-.27344.78516-.15234.97656-.23828,1.35547-.63672.24609-.25781.27734-.34766.30859-.81641.02734-.44922,0-.58594-.17578-.9375-.10938-.22266-.20703-.51172-.20703-.64063,0-.4375-.89453-1.05469-1.55078-1.0625-.13672,0-.53516.05469-.88672.12891-.76953.16016-1.11328.19922-1.80078.19141-.99219,0-1.16016.00781-1.98438.07031-.44922.03125-.86328.03906-.92188.00781-.04688-.02344-.41406,0-.81641.06641-.39063.05469-1.23828.11719-1.87891.14063-.64063.02734-1.19141.05078-1.23828.05078-.04297,0-.28125-.01563-.51953-.05078-.24219-.03125-1.03516-.07031-1.76172-.09375-.97656-.02344-1.36719-.06641-1.49609-.15234-.10547-.0625-.18359-.09766-.18359-.07031,0,.02344-.09766-.01172-.21484-.06641-.12891-.0625-.37109-.09375-.5625-.07031-.25391.02344-.44531-.02344-.83984-.21875-.61328-.29297-.71094-.36719-.96875-.75-.19141-.28125-.19141-.32031-.09375-.67969.12891-.48047.54297-1.16797,1.09375-1.80078.24219-.27344.54688-.67969.66406-.89453.12891-.22656.39453-.55469.59375-.74609.19141-.18359.41406-.42188.48047-.52734.65625-.98438.91016-1.33594,1.14453-1.58203.54297-.57813.86328-.98438.86328-1.12109,0-.08203.12109-.28125.26953-.44141.14453-.16797.34766-.44922.43359-.63281.08984-.17578.22266-.375.29688-.42969.20703-.16797.73438-1,1.13672-1.76172.32031-.60547.35156-.71875.32813-1.16016-.02344-.45313-.08984-.64063-.42578-1.20703-.21484-.35938-1.03906-.86328-1.51172-.91016-.34375-.04297-.39844-.02734-.51953.14844-.16797.25-.98438,1.05078-1.07422,1.05078-.03906,0-.32422.26172-.64453.58203s-.86719.77734-1.22656,1c-.35156.23438-.6875.51172-.75.625-.05859.11328-.19922.25781-.3125.32031-.11328.05469-.54297.42969-.96094.83203-.41406.39844-.88672.80859-1.03906.89453-.15234.09766-.35156.24219-.44141.32031-.33594.29687-1.14453.86328-1.79297,1.25781-.63672.38281-.70313.40625-1.19922.39844-.3125,0-.73438-.07813-1.03906-.17578-.47266-.16016-.54297-.21484-.75-.57422-.28906-.49609-.46484-1.05859-.50781-1.63281-.01563-.25-.0625-.71875-.11719-1.04688-.05078-.32813-.10547-.78516-.12109-1-.01563-.22656-.0625-.54688-.11328-.72266-.03906-.17578-.09375-.60547-.11719-.96094-.02344-.35156-.07422-.76563-.12109-.91797-.03906-.15234-.08203-.42578-.08203-.60156s-.07031-.80859-.15625-1.39844c-.09766-.65625-.17188-1.69531-.19531-2.64063-.02344-.85547-.07813-1.81641-.125-2.12109-.06641-.40625-.06641-.67188.00781-.95703.04688-.22656.10156-.84766.125-1.40234.01563-.54297.07422-1.05469.11328-1.13672.09766-.18359.32031-1.24609.3125-1.51172-.00781-.36719.3125-1.25391.49609-1.38281.22266-.16016.39063-.0625.71094.41797.45703.66406,1.87891,1.97266,2.625,2.41406.19141.11328.44141.28125.55078.36719.12109.09766.41016.25781.64063.35156.22266.09766.41797.21094.41797.25,0,.03125.07813.08594.16797.10938.09375.03516.375.25781.62891.51563.64063.62109.69141.65625,1.43359,1.05469.38281.19922.75.46484.87109.61719.10547.14063.34375.32031.52734.40625.18359.08203.47266.28125.64844.44141s.42578.35156.54688.41406c.30078.16016,1.19141.76172,1.77344,1.18359.26563.19922.55078.35938.64063.35938.08984.00781.23828.06641.33594.12891.32813.23438,1.44922.29688,2.14453.11328.17578-.04688.51953-.19922.75781-.34375.24219-.15234.57031-.3125.72266-.35938.40625-.12891,1.09375-.80859,1.3125-1.29688.16797-.375.16797-.45703.08594-.90625-.17578-.90234-.87109-1.86328-1.64063-2.23828-.15234-.07813-.40625-.26563-.55859-.41406-.15234-.15234-.49609-.44141-.76172-.64063-.26172-.20313-.61328-.46484-.78125-.59375-.67188-.51172-.92188-1.03125-.67969-1.46484.04688-.09375.375-.46094.72656-.81641.35156-.35156.74219-.79688.87109-1,.12109-.19141.32813-.44531.44922-.56641s.25391-.25391.29688-.30469c.56641-.56641,1.90234-1.81641,2.01563-1.87891.07813-.03906.25391-.18359.38281-.32031.13672-.13672.52734-.50391.86328-.80859,1.13672-1.02344,1.83203-1.73438,2.10547-2.16797.18359-.28906.26172-.35156.48828-.35156.10156,0,.26953-.12109.42188-.3125.13672-.17578.32031-.34375.41016-.36719.07813-.03125.20703-.15234.26953-.28125.06641-.125.28906-.45313.50391-.73438.53906-.71094.65625-1.07422.61719-1.88672-.03125-.58594-.0625-.71484-.26953-.99219-.37109-.49609-.66406-.67188-1.22656-.73828-.50391-.04688-1.0625.06641-2.05469.41016-.82422.29297-2.32031,1.38281-2.66406,1.94141-.09766.15234-.28906.43359-.44141.61719-.14453.17578-.29688.41406-.33594.51953-.03906.09766-.19922.375-.35938.61719-.16016.23047-.28906.46484-.28906.50391,0,.08594-.58984,1.08594-.96484,1.64063-.12891.18359-.23438.36719-.23438.41406s-.12891.22656-.28906.38281c-.51953.54688-1.05469,1.45703-1.58203,2.70703-.17578.42188-.70313.98438-.98438,1.04688-.12109.03125-.32813.13672-.46484.23047-.42969.32031-.87109.50391-1.39844.57813-.87891.13672-1.44922.00781-1.96875-.43359-.19922-.16797-.54297-.41406-.76953-.55078-.63672-.41016-.80469-.57813-.75-.77734.03125-.09375.08594-.35938.12891-.58984.07031-.42578.20703-.72266.48828-1.07422.11719-.14453.17578-.36719.20703-.80078.03125-.51953.00781-.6875-.21484-1.375-.26563-.83203-.52344-1.26172-1.04297-1.80859l-.32813-.33594-.76563.03516c-.42578.02344-.88281,0-1.01563-.04297-.5625-.17578-.83203-.23047-1.28906-.26172-.26563-.02344-.78516-.06641-1.16016-.09766-.375-.02344-.74609-.03906-.82422-.03125s-.39844-.05469-.70313-.14453c-.73047-.22266-.80859-.35938-.70313-1.28906.03906-.375.10938-.78125.14844-.90234.04297-.12109.12891-.56641.20313-1,.07031-.42578.16016-.86328.20703-.97656.03906-.11328.09375-.77734.12109-1.48047.0625-1.64844.0625-1.48828.01563-2.88672l-.04297-1.20703-.33594-.625c-.36719-.70313-.62891-.92969-1.42969-1.21484-.53516-.19531-1.28906-.24219-1.64844-.10547-.41797.15234-.50391.01563-.55859-.84766-.06641-1.01563-1.05078-2.70313-1.9375-3.3125C24.63863.41136,23.75972-.0027,23.59957.00511c-.0625.00781-.24609.03906-.39844.07031Z"/>

</g>
</svg>
