<?xml version="1.0" encoding="UTF-8"?>
<svg xmlns="http://www.w3.org/2000/svg"
     version="1.1"
     width="24.39057848mm"
     height="46.17787464mm"
     viewBox="0.00000000 0.00000000 69.13862441 130.89787376">

<g transform="scale(5.27086925)">   <defs>
      <style type="text/css"><![CDATA[
      .b {
        stroke: #000;
        stroke-linecap: round;
        stroke-linejoin: round;
        stroke-width: .01px;
      }
    ]]></style>
   </defs>
   <path class="b"
         d="M2.65929,24.23829c-.64452.28643-1.90223,1.06725-2.3358.17793-.41317-.84746-.35619-1.92632-.20825-2.83209.35846-2.19477.81857-4.37657,1.48588-6.49787.20151-.64057.48573-1.2597.64848-1.91393.11153-.44834.09253-.89008.13838-1.34376.03527-.34893.24768-.65478.38503-.98165.32236-.76716.61917-1.5514,1.07429-2.25288.4849-.74739,1.08066-1.418,1.45397-2.23536.17331-.37946.36061-.74036.58666-1.09246.15122-.23554.23109-.4122.19148-.7096-.02372-.17806-.03488-.4685-.17728-.59913-.25011-.22942-.50458.05421-.75265.15575-.27578.11288-.69693.27008-.99241.21822-.36309-.06372-.7091-.22315-.97979-.47864-.57837-.54588-.13302-1.17227.56918-1.26635.70809-.09487,1.57305.0714,1.91698-.72498.15028-.34797.14049-.75527.3027-1.0838.13186-.26705.36019-.46337.61852-.60544.64171-.3529.97347-.10661,1.43608.35966.27875.28096.59431.35994.76712.73205.13878.29882.29701.64891.35354.97783.11632.67675-.34375,1.38158-.66471,1.94329-.35526.62175-.71904,1.24784-.96436,1.92029-.54006,1.4804-1.42487,2.81795-1.94053,4.30154-.33655.96827-.85049,1.85112-1.24712,2.79342-.34779.82626-.65507,1.67519-.92297,2.52644-.1654.52556-.19655,1.04691-.28792,1.5784-.11392.66259-.09749,1.40542-.2976,2.02134-.15746.48465-.11745,1.28681.15692,1.72939.30743.4959.91999-.29643,1.1621-.58355.46626-.55296.57033-1.16563.76727-1.83929.1593-.5449.63507-.81269,1.19218-.78718.60534.02773,1.03725.50594,1.53429.80165.43917.26128.7978.11404,1.24473-.0001.21835-.05576.43263-.06874.65902-.14921.48376-.17197.94004-.4184,1.40181-.64039.41269-.19839,1.24165-.85947,1.71777-.58987.49447.28.57272,1.4035.31818,1.84529-.36416.63206-1.02376,1.39093-1.59825,1.82738-.78064.59308-1.84888,1.00895-2.80386,1.22417-.67729.15264-1.39067.2798-2.0625.07292-.33437-.10297-.67863-.24041-1.02062-.30901-.20081-.04028-.58797-.124-.78755-.05696-.28854.09692-.4462.5816-.51815.85699-.12101.46318.11665.85077-.41084,1.06981-.3689.15319-.74139.27617-1.10941.43972,0,0,0,.00002,0,.00002Z"/>

</g>
</svg>
