<?xml version="1.0" encoding="UTF-8"?>
<svg xmlns="http://www.w3.org/2000/svg"
     version="1.1"
     width="61.60573656mm"
     height="33.92874581mm"
     viewBox="0.00000000 0.00000000 174.63040055 96.17593947">

<g transform="scale(5.57207354)">   <defs>
      <style type="text/css"><![CDATA[
      .a {
        stroke: #000;
        stroke-linecap: round;
        stroke-linejoin: round;
        stroke-width: 0.01px;
      }
    ]]></style>
   </defs>
   <path class="a"
         d="M9.76376.0414A5.41707,5.41707,0,0,0,8.67352.3927,5.12074,5.12074,0,0,1,7.63173.73189.92509.92509,0,0,0,7.2986.88331a.89329.89329,0,0,1-.28467.14537.70866.70866,0,0,0-.218.07268,1.67,1.67,0,0,1-.424.109.95113.95113,0,0,0-.50272.218.741.741,0,0,1-.27862.17566.6101.6101,0,0,0-.24833.15747,2.25749,2.25749,0,0,1-.4785.29679,2.34505,2.34505,0,0,0-.5754.38765c-.15748.15142-.30285.24227-.3513.218a1.431,1.431,0,0,0-.8298.48456c-.03634.13931-.16354.27862-.4785.53906a.81256.81256,0,0,0-.24833.3089.60523.60523,0,0,1-.22411.27257c-.13325.103-.1817.17565-.16959.29678a1.32538,1.32538,0,0,1-.23016.76317c-.14537.15143-.109.44216.12114.87826a1.43514,1.43514,0,0,1,.1817.46638c-.01817.0424,0,.07874.03635.07874s.09691.11508.1393.25439a3.58659,3.58659,0,0,0,.61175,1.10841,3.1026,3.1026,0,0,1,.25439.29679c.06663.09086.18171.23622.25439.315a1.21981,1.21981,0,0,1,.321.59964.3213.3213,0,0,0,.09085.18776.42418.42418,0,0,1,.09086.24228.54887.54887,0,0,0,.16353.315c.1696.16959.27862.55723.18777.69048a.583.583,0,0,0-.01212.30285.88258.88258,0,0,1-.14536.69654.34.34,0,0,0-.1272.29074.96166.96166,0,0,1-.24833.32707,1.16035,1.16035,0,0,0-.24228.29679c0,.03028-.06662.08479-.15142.12113s-.15142.11509-.15142.16354c0,.13325-.34525.45427-.4785.45427-.12719,0-.321.14537-.64809.49061a2.0134,2.0134,0,0,1-.41792.33313c-.11509.06057-.212.13325-.212.15748,0,.09085-.52089.34524-.64809.315C.636,14.687.56334,14.72942.43614,14.893c-.09085.12113-.15142.23622-.13325.26044.02423.01817-.01211.12114-.07268.22411A1.892,1.892,0,0,0,.0061,16.068c-.02423.17565.35736.53906.533.50878a4.0201,4.0201,0,0,0,1.01755-.55121,2.04786,2.04786,0,0,1,.36342-.27256,2.90775,2.90775,0,0,0,.45426-.36344A5.99356,5.99356,0,0,1,3.719,14.28725a2.0861,2.0861,0,0,0,.98122-.83585,3.23328,3.23328,0,0,1,.41187-.47849,4.89934,4.89934,0,0,0,.76922-.8298.91506.91506,0,0,1,.33313-.26651,1.84046,1.84046,0,0,0,.45427-.3513c.18777-.2241.3513-.58146.30891-.6602a3.19,3.19,0,0,1,.69048-.81163c.09691-.06056.13931-.37552.12114-.90853-.00606-.13325-.00606-.29073-.00606-.3513.00606-.05451.01212-.13931.01212-.18171a2.85367,2.85367,0,0,0-.06663-.40581c-.03634-.18171-.07268-.39976-.08479-.48456a1.39651,1.39651,0,0,0-.07874-.30284A.47812.47812,0,0,1,7.55906,7.128a.37187.37187,0,0,0-.03634-.315.85487.85487,0,0,1-.09086-.29679.18193.18193,0,0,0-.12113-.15748.59372.59372,0,0,1-.23623-.23015,1.04627,1.04627,0,0,0-.29074-.29679,1.56609,1.56609,0,0,1-.60569-.642,2.358,2.358,0,0,0-.29073-.46639A1.301,1.301,0,0,1,5.639,4.16616a2.51054,2.51054,0,0,0-.1272-.49061c-.07874-.18171-.07268-.20594.06663-.34525a.48994.48994,0,0,1,.38764-.15142.44056.44056,0,0,0,.321-.09691,1.25127,1.25127,0,0,1,.82374-.33313,1.4588,1.4588,0,0,0,.424-.06057A4.49357,4.49357,0,0,1,9.5154,2.45811c.81163.07874.854.0848,1.04785.22411a.90785.90785,0,0,0,.47243.1393,3.31033,3.31033,0,0,1,.61175.12114,2.12449,2.12449,0,0,1,.81769.46638,1.05262,1.05262,0,0,0,.03634.16354,2.22086,2.22086,0,0,1,.02422.69655c-.04239.49061-.01817.56935.22411.67837a.67213.67213,0,0,0,.86008-.16959,3.50744,3.50744,0,0,1,.46033-.39976,3.31676,3.31676,0,0,0,.87219-.92065.37137.37137,0,0,1,.11508-.212A.727.727,0,0,0,15.2089,2.979a.54655.54655,0,0,1,.13325-.24833.19316.19316,0,0,0,.06662-.17565.40078.40078,0,0,1,.04846-.22411,1.76464,1.76464,0,0,0,.06057-.55117,1.0193,1.0193,0,0,0-.212-.69655A3.52928,3.52928,0,0,0,14.373.15042,27.85268,27.85268,0,0,0,11.33856.03535,5.2731,5.2731,0,0,1,10.24832.01717,1.30854,1.30854,0,0,0,9.76376.0414Z"/>
   <path class="a"
         d="M10.14535,7.46717a1.50146,1.50146,0,0,0-.47244.424c0,.03028-.06663.08479-.15142.12114a1.02753,1.02753,0,0,0-.36342.62386A2.31025,2.31025,0,0,1,8.7462,9.151c-.2241.23016-.44821.46638-.50878.52089-.05451.06057-.07874.12719-.06057.15142.02423.01817.00606.09691-.03634.16354a2.08294,2.08294,0,0,0,.03029,1.20532c.09691.09691.09691.46033,0,.5209s0,.7026.15142.99939a.5372.5372,0,0,1,.06057.28467c-.02423.07874.03634.18171.16959.30891a1.29644,1.29644,0,0,1,.27862.36341c.03634.09085.09085.16959.12114.16959.09085,0,.36341.30891.321.36947-.01817.03029.04846.15748.15748.27257a1.21047,1.21047,0,0,1,.22411.3937.32807.32807,0,0,0,.24228.2665,1.27087,1.27087,0,0,1,.36341.27256,1.08323,1.08323,0,0,0,.34524.2665.92687.92687,0,0,1,.29679.18777.59794.59794,0,0,0,.27256.12719c.09086.01817.24834.0424.34525.06057.103.01212.44821.03634.76923.05451a2.76545,2.76545,0,0,1,.7026.0848,3.58533,3.58533,0,0,0,.37553.15142c.24833.0848.27256.0848.56934-.06662a1.82589,1.82589,0,0,1,.93883-.17565,2.41356,2.41356,0,0,1,.81768.06057.90777.90777,0,0,0,.43.03028,4.38525,4.38525,0,0,1,.62386-.0424,2.64256,2.64256,0,0,0,.745-.13325,1.04576,1.04576,0,0,1,.55724-.09085,3.672,3.672,0,0,0,1.58691-.16354,1.83347,1.83347,0,0,1,.424-.13931,1.46113,1.46113,0,0,0,.424-.15142,1.86375,1.86375,0,0,1,1.09025-.19382c.09691.0424.15748.04845.18171.00605a1.92478,1.92478,0,0,1,.848-.3513,3.809,3.809,0,0,0,.54513-.15142,3.37877,3.37877,0,0,1,.75711-.06662,2.31208,2.31208,0,0,0,1.1811-.24834,4.14864,4.14864,0,0,1,.75711-.14536,2.83321,2.83321,0,0,0,.70866-.16354,2.49951,2.49951,0,0,1,.9691-.218.22626.22626,0,0,1,.103.109c.03634.109-.07874.45426-.15142.45426-.03029,0-.05451.07269-.05451.1696a2.47063,2.47063,0,0,1-.23622.93882,1.74353,1.74353,0,0,0-.1272.39975.533.533,0,0,1-.09085.23017.34364.34364,0,0,0-.07874.1817.59905.59905,0,0,1-.03634.18777c-.04846.14537.09085.32707.44821.56935.30284.212.73894-.04846,1.10236-.65415a3.29163,3.29163,0,0,1,.49666-.64809c.13931-.12114.30285-.27862.36947-.34524s.19988-.19382.29074-.28468a2.779,2.779,0,0,1,.64809-.56329c.03634,0,.06056-.0424.06056-.09085a.40733.40733,0,0,1,.12114-.212.52023.52023,0,0,0,.12114-.15748,2.92752,2.92752,0,0,1,.212-.38765,1.65469,1.65469,0,0,0,.212-.46032.71717.71717,0,0,1,.109-.29679,2.46558,2.46558,0,0,0,.29073-1.02362.87146.87146,0,0,0-.20593-.636,3.057,3.057,0,0,0-.27257-.37554,2.97951,2.97951,0,0,0-1.51422.15749,2.13706,2.13706,0,0,1-.4361.15748,1.82624,1.82624,0,0,0-.53907.24833.54314.54314,0,0,1-.34524.13931.83446.83446,0,0,0-.70866.212.42431.42431,0,0,1-.44215.13931,2.64986,2.64986,0,0,0-1.01151.218,4.21547,4.21547,0,0,1-1.51422.27862,6.70324,6.70324,0,0,0-.95094.09085c-.527.15748-.67837.17564-.89642.11508a.5685.5685,0,0,1-.41793-.30285c-.03028-.0969-.26045-.01817-.45427.16354a.5338.5338,0,0,1-.2665.14536.78079.78079,0,0,0-.29679.109,1.00552,1.00552,0,0,1-.6178.0969,1.12808,1.12808,0,0,0-.73289.13326c-.33313.16959-.29073.16959-1.58691.12113a8.00961,8.00961,0,0,1-2.57419-.28467,3.82772,3.82772,0,0,0-.642-.17565,3.488,3.488,0,0,1-1.22955-.64809,1.34674,1.34674,0,0,0-.37553-.27862.80389.80389,0,0,1-.3089-.25439.54805.54805,0,0,0-.20594-.218c-.07874-.0424-.14536-.09085-.14536-.109a4.14226,4.14226,0,0,0-.424-.4785,3.57422,3.57422,0,0,1-.67231-.9691,3.3009,3.3009,0,0,1-.25439-.61781,3.7787,3.7787,0,0,0-.36948-1.15687c-.16959-.36947-.24833-.47244-.43-.55723a1.32755,1.32755,0,0,0-.23016-.09691A1.12258,1.12258,0,0,0,10.14535,7.46717Z"/>
   <path class="a"
         d="M.25441,10.62888c-.01817.03029-.006.06057.02423.06057a.06634.06634,0,0,0,.06663-.06057c0-.03634-.01212-.06057-.02423-.06057C.30287,10.56831.27259,10.59257.25441,10.62888Z"/>
   <path class="a"
         d="M23.301,12.26425a.06514.06514,0,0,0,.06057.06057.0607.0607,0,0,0,.06057-.06057.05723.05723,0,0,0-.05368-.06057h-.00689A.0607.0607,0,0,0,23.301,12.26425Z"/>

</g>
</svg>
