<?xml version="1.0" encoding="UTF-8"?>
<svg xmlns="http://www.w3.org/2000/svg"
     version="1.1"
     width="41.47641460mm"
     height="42.71861321mm"
     viewBox="0.00000000 0.00000000 117.57095358 121.09216617">

<g transform="scale(4.99959192)">   <defs>
      <style type="text/css"><![CDATA[
      .b {
        stroke: #000;
        stroke-linecap: round;
        stroke-linejoin: round;
        stroke-width: .01px;
      }
    ]]></style>
   </defs>
   <path class="b"
         d="M2.75154,12.285c1.55336-1.60638,3.55616-2.74113,5.30066-4.11326,1.4121-1.11068,2.74423-2.31924,4.21855-3.36426,2.53214-1.79483,5.31922-3.71883,8.32134-4.65369,2.10925-.65683,2.80828.98107,1.42175,2.56322-1.07406,1.22558-2.67944,2.06091-3.98532,3.00186-1.63932,1.1812-3.48221,1.92124-5.30057,2.75905-1.57516.72576-2.88562,1.86349-4.25859,2.8953-.77191.5801-1.6699,1.05426-2.30639,1.79892-.66528.77939-.20687,1.48601.43037,2.1413-.73839.93359-2.26213,1.8715-3.24178,2.65415-.09501.0759-1.84362-.1099-2.04992-.16822-.70543-.19945-1.21103-.65219-1.2876-1.41401-.15721-1.56456,1.77594-3.10599,2.73749-4.10037h.00001Z"/>
   <path class="b"
         d="M2.15625,20.97905c-.44594-.93629,1.04237-2.53305,1.67257-3.23437,1.57143-1.74877,4.11114-2.73471,5.96062-4.18949,2.10004-1.65185,4.20022-2.99727,6.56884-4.24148,1.71169-.89912,3.46792-2.15097,5.3642-2.67241,1.51274-.41598,2.28381.30997,1.4412,1.72192-.47655.79855-1.15212,1.07762-1.91272,1.48895-1.00155.54164-1.77473,1.25613-2.5198,2.12796-.62893.73593-3.21777,3.32539-1.91122,3.82408,1.00179.38236,3.02032-.96354,3.48087.38862.25546.75002-.73459,2.04997-1.05808,2.64974-.72683,1.34761-1.25746,3.03538-2.56575,3.94273-1.15572.80154-2.66935,1.06871-4.00237,1.43011-.11137-1.09628,3.35519-4.28707,1.2601-4.34658-1.92805-.05477-3.63575,1.11078-5.51263,1.18144-1.83935.06925-3.67136,1.06695-5.51427.48627-.40349-.12715-.63907-.32131-.75156-.55749Z"/>

</g>
</svg>
