<?xml version="1.0" encoding="UTF-8"?>
<svg xmlns="http://www.w3.org/2000/svg"
     version="1.1"
     width="18.25040917mm"
     height="23.85283667mm"
     viewBox="0.00000000 0.00000000 51.73340169 67.61429359">

<g transform="scale(4.84970482)">   <defs>
      <style type="text/css"><![CDATA[
      .b {
        stroke: #000;
        stroke-linecap: round;
        stroke-linejoin: round;
        stroke-width: .25px;
      }
    ]]></style>
   </defs>
   <path class="b"
         d="M5.17786,2.00227c-.18075-.48856-.54268-.9457-1.04608-1.07964-.61729-.16425-1.27645.21012-1.64202.73393-.36558.52381-.50195,1.16905-.63018,1.79482-.53134,2.59284-1.0627,5.18568-1.59404,7.77852-.17226.84059-.29741,1.84551.32352,2.43773.07356.07016.16066.13362.26149.1465.33674.04301.45781-.41601.62332-.71239.18438-.33014.57811-.53011.95346-.48427.15736.01922.31989.07687.46966.02489.21852-.07583.29737-.33848.34438-.56494.41511-1.99985.69972-4.01231.94414-6.03881.17776-1.47381,1.59801-2.40042.99237-4.03633Z"/>
   <path class="b"
         d="M8.14649.67409c-.45621.34331-.73672.87371-.91671,1.41555-.74232,2.2347.0022,4.81241-.97809,6.95343-.33096.72284-.85499,1.38618-.93608,2.17703-.01745.17018-.00683.35996.10992.48501.23183.2483.64266.05727.91258-.14899.466-.35609.91524-.73408,1.34575-1.13233.20695-.19144.41352-.39282.53971-.64491.12896-.25763.16501-.54985.22146-.83237.37133-1.85839,1.44296-3.48559,1.89389-5.33553.58954-2.41863-.0908-4.51845-2.19243-2.93689h0Z"/>

</g>
</svg>
