<?xml version="1.0" encoding="UTF-8"?>
<svg xmlns="http://www.w3.org/2000/svg"
     version="1.1"
     width="39.18685425mm"
     height="46.21171262mm"
     viewBox="0.00000000 0.00000000 111.08082517 130.99381259">

<g transform="scale(4.33978808)">   <defs>
      <style type="text/css"><![CDATA[
      .a {
        stroke: #000;
        stroke-linecap: round;
        stroke-linejoin: round;
        stroke-width: 0.01px;
      }
    ]]></style>
   </defs>
   <path class="a"
         d="M11.44893.07006c-.109.03634-.19988.07874-.19988.103,0,.03029-.12114.12114-.26651.20594a1.44646,1.44646,0,0,0-.40581.38158,2.15972,2.15972,0,0,1-.27862.37553.66658.66658,0,0,0-.16959.30285,2.61883,2.61883,0,0,1-.20594.49061,3.11573,3.11573,0,0,0-.20593.49061,1.14482,1.14482,0,0,1-.19382.33313A3.803,3.803,0,0,0,9.2321,3.141a2.57519,2.57519,0,0,1-.38159.51484,2.55281,2.55281,0,0,0-.29679.49061,1.28211,1.28211,0,0,1-.20593.3513,1.03123,1.03123,0,0,0-.26651.56329,1.14615,1.14615,0,0,1-.09691.41793,1.08887,1.08887,0,0,0-.09085.39975A.8063.8063,0,0,1,7.76027,6.23a.77026.77026,0,0,0-.1272.34525c.02423.01817.00606.09691-.0424.16959A3.68207,3.68207,0,0,0,7.621,8.48311a.9825.9825,0,0,1,.11508.321.67645.67645,0,0,0,.18171.29073c.103.109.23016.24228.28467.30285a.42685.42685,0,0,1,.09086.315c-.01212.11508.01211.212.04845.212s.109.09691.16354.212c.07874.1696.18776.26045.47244.38764a2.99724,2.99724,0,0,0,1.52634.27862,5.77175,5.77175,0,0,1,.80557.06057c.15142.04846.19382.22411.19382.77529a1.79085,1.79085,0,0,1-.1272.84191,1.40725,1.40725,0,0,0-.0424.48455,1.76752,1.76752,0,0,1-.19382.90854.63861.63861,0,0,0-.05451.321.52836.52836,0,0,1-.07874.32707,1.15427,1.15427,0,0,0-.07268.88431,1.87,1.87,0,0,1,.03634.48456c-.01211.13325-.03634.37552-.04846.54512a3.019,3.019,0,0,1-.08479.52089.34562.34562,0,0,0,.02423.32708,3.5143,3.5143,0,0,1,.09691,1.31435,1.23572,1.23572,0,0,1-.07269.41792,15.42724,15.42724,0,0,0-.00605,3.089.8.8,0,0,1-.0424.6178c-.11508.34524-.11508.3513.00605.59358a1.15267,1.15267,0,0,1,.109.5754c-.01817.38765-.01817.6057-.01211.81163.00605.0848.00605.22411.00605.315a2.98689,2.98689,0,0,0,.1272,1.29618,2.9573,2.9573,0,0,1,.13931.40581c.01817.07268.07268.28468.12113.46638a1.13345,1.13345,0,0,1,.06057.4361,3.70725,3.70725,0,0,0,.533,1.20533.61857.61857,0,0,1,.13325.38158c-.06057.15748.41187.56329.98728.848.33313.16959.49061.16354,1.11447-.03029a.49953.49953,0,0,0,.36342-.52089.78419.78419,0,0,1,.636-.745.14486.14486,0,0,0,.12114-.09085.23929.23929,0,0,1,.13325-.12114c.12114-.03634.25439-.37553.29073-.73894a.81243.81243,0,0,0-.37552-.75712,1.375,1.375,0,0,1-.29679-.45427A3.53564,3.53564,0,0,0,14.756,26.03a1.20808,1.20808,0,0,1-.17565-.36341,7.78631,7.78631,0,0,0-.32707-1.24167.92079.92079,0,0,1-.0848-.3937,2.89088,2.89088,0,0,0-.212-.87219.71974.71974,0,0,1-.05452-.28468,2.19054,2.19054,0,0,0-.41187-.89642.39255.39255,0,0,1,.0011-.55516q.01394-.01388.02919-.0263c.12719-.13931.14537-.19988.12114-.48456a1.55045,1.55045,0,0,0-.09086-.45426c-.04239-.06663-.05451-.13931-.03634-.15748s-.03028-.109-.109-.20594a.96011.96011,0,0,1-.18171-.49666c-.0424-.321-.03028-.36342.20594-.99334a.61957.61957,0,0,0-.03029-.50272.85988.85988,0,0,1-.06663-.34525c.01818-.01816.00606-.08478-.03028-.14535a.28075.28075,0,0,1,.03028-.27862.95538.95538,0,0,0,.06057-.40581.8991.8991,0,0,1,.06057-.3937,1.47392,1.47392,0,0,0,.00606-.82374,4.77582,4.77582,0,0,1,.01817-1.56874,1.47027,1.47027,0,0,0,.103-.38159.75463.75463,0,0,1,.04845-.24227.57052.57052,0,0,0-.04845-.26651c-.06663-.1817-.06663-.24833-.01212-.3089a1.44928,1.44928,0,0,0,.07874-.59358,7.39646,7.39646,0,0,1,.13326-1.47788.56113.56113,0,0,0,0-.37553.36549.36549,0,0,1-.00606-.3089,1.7427,1.7427,0,0,0,.07268-.46033,1.13034,1.13034,0,0,1,.06057-.3937,2.37542,2.37542,0,0,0,.06663-.59357c0-.26045.01211-.56935.01817-.68444.02423-.24227-.103-.39975-.47244-.58146a1.43943,1.43943,0,0,0-.75711-.15748.83773.83773,0,0,0-.56935.17565c-.61175.38764-.96305.321-1.43549-.2665a1.911,1.911,0,0,0-.36342-.38764c-.03028,0-.07874-.06057-.109-.13931-.03029-.07269-.1272-.30285-.212-.51484a2.52217,2.52217,0,0,1-.15748-.4785.55611.55611,0,0,0-.12114-.24227A.50092.50092,0,0,1,9.77116,4.849c.04846-.07268.07874-.13325.05451-.13325-.01817,0,.00606-.0848.06057-.18171.05452-.103.11508-.18171.14537-.18171s.11508-.11508.18171-.26044a.93793.93793,0,0,1,.29678-.35736l.17566-.103.47849.35736a3.97569,3.97569,0,0,1,.58752.50878,1.10408,1.10408,0,0,0,.35736.28467,1.8066,1.8066,0,0,1,.38764.26651.90632.90632,0,0,0,.26651.1817c.103.03029.15748.11509.109.1696a1.79932,1.79932,0,0,0,.29679.315A2.17034,2.17034,0,0,1,13.793,6.82351a1.10354,1.10354,0,0,0,.34524.57541,1.448,1.448,0,0,1,.1696.13931c.06057.06662.218.09691.47244.103.30284.01212.40581-.01211.50878-.109.19382-.18171.39975-.67232.33313-.79345A.7459.7459,0,0,1,15.61,6.3753a1.704,1.704,0,0,0-.00605-.527.92613.92613,0,0,1-.01817-.29679c.01817-.03028-.01212-.109-.06057-.18171a.2104.2104,0,0,1-.03635-.23016c.03635-.06663.00606-.18171-.103-.36947a1.49995,1.49995,0,0,1-.17565-.4785,3.69844,3.69844,0,0,0-.424-1.65959,1.82675,1.82675,0,0,1-.14536-.38159c0-.04239-.01817-.07874-.04846-.07874a1.10926,1.10926,0,0,1-.24227-.30284,2.13477,2.13477,0,0,0-.34525-.40581,4.88745,4.88745,0,0,1-.81768-.79952,1.20918,1.20918,0,0,0-.22411-.29678c-.25439-.27257-.6602-.43-.83585-.33313A.518.518,0,0,1,11.83051.058.90185.90185,0,0,0,11.44893.07006Z"/>
   <path class="a"
         d="M18.69905,5.61819a1.95457,1.95457,0,0,1-.48456.09691,2.46119,2.46119,0,0,0-.90853.218,1.88492,1.88492,0,0,1-.30285.17565c-.29679.15142-.41792.27861-.424.43609a.28219.28219,0,0,1-.0848.18171,1.58553,1.58553,0,0,0-.18171.27862c-.09085.17565-.09085.212-.01211.36947a.45989.45989,0,0,0,.24833.212c.0848.02423.15143.06663.15143.09691,0,.03634.05451.06057.12114.06057a1.02282,1.02282,0,0,1,.40581.29679,4.46406,4.46406,0,0,0,1.36886.81768,1.91535,1.91535,0,0,1,.64809.315,4.42045,4.42045,0,0,0,1.15687.23017,1.95635,1.95635,0,0,1,.91459.44821,2.07067,2.07067,0,0,0,.39976.24833c.34524.14537.3937.33919.38764,1.48394a4.56628,4.56628,0,0,1-.13931,1.61114,5.64331,5.64331,0,0,0-.08479,1.01151,7.19239,7.19239,0,0,1-.04846.848,3.8004,3.8004,0,0,0-.07268.64809,4.55046,4.55046,0,0,1-.09691.745.33567.33567,0,0,0-.02423.20594c.01817.02422-.01212.13931-.06663.24227A3.73,3.73,0,0,0,21.48523,18.58c.05451.103.04845.19988-.04846.642a1.687,1.687,0,0,0-.01211.46032,6.53225,6.53225,0,0,1-.03634,1.387c-.01818.15143-.0424.61175-.05452,1.02968-.02422.81163-.02422.80557-.03028,1.46577,0,.24228-.00606.53907-.01212.65415-.01211.11508.00606.23016.0424.25439a2.81727,2.81727,0,0,1,.06057.75711,3.68812,3.68812,0,0,0,.07269.83586.91984.91984,0,0,1,0,.49666,1.26693,1.26693,0,0,0,.07874.81768,2.06758,2.06758,0,0,0,.218.51484.50346.50346,0,0,1,.09691.1272,2.199,2.199,0,0,0,.83586.49061,6.00656,6.00656,0,0,0,1.93821.103c.64809-.12113.88431-.321.94488-.78739.03027-.27256.03027-.27256-.41187-.71472-.43-.424-.93882-1.19927-.8722-1.31435a1.21192,1.21192,0,0,0-.13325-.4361,2.01047,2.01047,0,0,1-.18171-.7026,2.11014,2.11014,0,0,0-.109-.5754,4.45074,4.45074,0,0,1-.30285-1.65354c-.06057-1.02362-.07874-1.29012-.11508-1.51423a2.45566,2.45566,0,0,1-.03634-.30284c.00606-.03635.01817-.17565.03634-.315a5.97511,5.97511,0,0,0-.06662-.90854,3.45236,3.45236,0,0,1-.01212-1.73228,1.01468,1.01468,0,0,0,.07874-.45426,8.54076,8.54076,0,0,1-.103-1.31435c.00606-.103.03635-.34525.06663-.54513a3.209,3.209,0,0,0,.06663-1.272.39337.39337,0,0,1,0-.33313,2.16971,2.16971,0,0,0,.09691-.59357,1.956,1.956,0,0,1,.109-.58752.19568.19568,0,0,0,.02423-.23017.36387.36387,0,0,1-.01211-.24227,2.21215,2.21215,0,0,0,.09085-.58752V11.142a1.15334,1.15334,0,0,1,.33313-.73289.91148.91148,0,0,0-.04846-1.11447c-.09691-.09085-.11508-.212-.11508-.72683a1.16831,1.16831,0,0,0-.12719-.424A3.77533,3.77533,0,0,0,22.533,6.74464a4.49076,4.49076,0,0,1-1.30223-.66626,1.02336,1.02336,0,0,0-.34525-.212,1.72551,1.72551,0,0,1-.40581-.11508,2.9125,2.9125,0,0,0-.75711-.12114c-.24834-.00606-.55724-.02423-.69049-.0424A.733.733,0,0,0,18.69905,5.61819Z"/>
   <path class="a"
         d="M3.55677,7.617c0,.03028-.103.09085-.2241.12719a2.50745,2.50745,0,0,0-.80557.36947c0,.02423-.103.0848-.23622.13326a1.86946,1.86946,0,0,0-.79346.81162,2.57813,2.57813,0,0,1-.36341.50273,2.49318,2.49318,0,0,0-.34525.45426.88474.88474,0,0,1-.16353.22411.22506.22506,0,0,0-.07269.15142c-.006.06057-.01211.1696-.01817.24228a.70428.70428,0,0,1-.16959.32707c-.14537.1696-.16959.25439-.17565.61175a1.38759,1.38759,0,0,1-.07874.49667.602.602,0,0,0-.06057.315c.00606.13325-.00606.47243-.03028.76317-.02423.32707-.01817.533.01817.533.103,0,.24833.62992.27256,1.2235a1.53877,1.53877,0,0,0,.15142.79346c.06663.11508.109.2241.0848.24227a.55035.55035,0,0,0,.09085.29679,5.01311,5.01311,0,0,1,.4361,2.16837.386.386,0,0,0-.02423.26045,2.80271,2.80271,0,0,1,.06057.55724,2.04126,2.04126,0,0,0,.18171.9691,4.22367,4.22367,0,0,1,.17565,1.33252c.01817.23017.0424.54512.06662.69655.01817.15142.0424.36947.05452.48455a8.672,8.672,0,0,1-.00606,1.63537c-.03029.3513-.04846.78739-.0424.9691s.01211.67232.00606,1.09025c-.01212,1.82313-.00606,1.85947.24227,1.90792a2.67436,2.67436,0,0,1,.315.0848A1.103,1.103,0,0,0,2.8784,28.162a1.36375,1.36375,0,0,0,.29073-.71472,1.20984,1.20984,0,0,1,.07268-.34524,13.90949,13.90949,0,0,0,.103-1.97456,8.56419,8.56419,0,0,1,.0848-1.18109,32.74021,32.74021,0,0,0-.03029-3.57358c-.01817-.2665-.0424-.64809-.06057-.848-.01211-.19988-.02422-.59963-.02422-.88431a2.45039,2.45039,0,0,0-.0848-.72683,1.12624,1.12624,0,0,1-.07268-.41791.52952.52952,0,0,0-.03635-.28468.62809.62809,0,0,1-.07874-.2544,1.1343,1.1343,0,0,0-.09085-.315c-.0424-.06662-.05451-.13931-.03634-.16353.01817-.01817-.01211-.0848-.06663-.14537a.4772.4772,0,0,1-.109-.24833,1.25136,1.25136,0,0,0-.103-.34525,3.82606,3.82606,0,0,1-.321-1.22349,2.21585,2.21585,0,0,0-.04846-.47244,6.04464,6.04464,0,0,1-.109-.86614v-.212c-.01212-1.01756.00605-1.22955.12719-1.45972A1.163,1.163,0,0,0,2.406,11.148a1.78809,1.78809,0,0,1,.3937-.75106,3.02219,3.02219,0,0,0,.35736-.46638,1.64262,1.64262,0,0,1,.39975-.46033c.06663-.01817.12114-.06057.12114-.09085s.05451-.07268.1272-.09086a1.29909,1.29909,0,0,0,.315-.20593,2.02863,2.02863,0,0,1,.36948-.25439A.513.513,0,0,0,4.744,8.52539c.06662-.20593.06057-.23016-.09691-.40581a1.84066,1.84066,0,0,0-.92065-.55724C3.63551,7.56245,3.55677,7.58668,3.55677,7.617Z"/>
   <path class="a"
         d="M16.73661,19.73079a.06551.06551,0,1,0,.09085-.01817.06171.06171,0,0,0-.08649.01163Z"/>

</g>
</svg>
