<?xml version="1.0" encoding="UTF-8"?>
<svg xmlns="http://www.w3.org/2000/svg"
     version="1.1"
     width="54.13792145mm"
     height="36.21007524mm"
     viewBox="0.00000000 0.00000000 153.46184445 102.64279050">

<g transform="scale(4.42923155)">   <defs>
      <style type="text/css"><![CDATA[
      .a {
        stroke: #000;
        stroke-linecap: round;
        stroke-linejoin: round;
        stroke-width: 0.01px;
      }
    ]]></style>
   </defs>
   <path class="a"
         d="M18.08.04605a1.0165,1.0165,0,0,1-.37553.25439,1.6,1.6,0,0,0-.40581.24833.5214.5214,0,0,1-.39976.29074c-.11508,0-.17565.05451-.25439.20593a1.264,1.264,0,0,1-.37553.3937c-.43.28467-.50878.35736-.46638.424a2.46646,2.46646,0,0,1-.53906.61781,4.30949,4.30949,0,0,0-.60569.66626.73245.73245,0,0,1-.26045.24833,2.07982,2.07982,0,0,0-.32707.24228.37093.37093,0,0,1-.16354.109c-.03029,0-.09691.06663-.15142.15143-.09086.1393-.09086.16959-.00606.33313a.37686.37686,0,0,1,.06057.24227c-.01817.03634.00606.06057.05451.06057a.39054.39054,0,0,1,.212.11508c.06663.06663.1272.103.14537.09086.01817-.01817.13931.02422.2665.09691a2.659,2.659,0,0,0,.36947.15142,3.36125,3.36125,0,0,1,1.16293.642c0,.03029.03634.05451.0848.05451a.61263.61263,0,0,1,.2665.15143.63785.63785,0,0,0,.27862.15142,5.40515,5.40515,0,0,1,1.02362.53906.41807.41807,0,0,1,.07268.19383c.01211.07874.0424.20593.06057.27256.03028.09691-.01211.1817-.16959.34524a2.09768,2.09768,0,0,0-.30891.39976c-.05451.103-.12113.18776-.14536.18776a5.82255,5.82255,0,0,0-.8298.6602c-.15748.14537-.38158.26045-.44215.22411-.06663-.0424-.64809.51484-.75712.73289a.50843.50843,0,0,1-.212.2241,2.68363,2.68363,0,0,0-.46638.4361,9.23428,9.23428,0,0,1-1.1811,1.1811c-.14536.11508-.321.25439-.37553.3089a.39326.39326,0,0,1-.15142.109,1.62033,1.62033,0,0,0-.33919.27256,2.82475,2.82475,0,0,1-.46032.35736,2.50331,2.50331,0,0,0-.41793.33919.9731.9731,0,0,1-.33313.24227.66733.66733,0,0,0-.26045.18171,1.98967,1.98967,0,0,1-.41792.315,6.23479,6.23479,0,0,0-.83586.57541c-.02422.03028-.19987.212-.38158.41187a2.954,2.954,0,0,1-.56935.48455,5.44848,5.44848,0,0,0-1.15081.8298,2.61959,2.61959,0,0,1-.46639.37553c-.109.05451-.19987.12113-.19987.14536a5.16642,5.16642,0,0,1-.9146.99333,3.4932,3.4932,0,0,0-.82979.84192,1.13277,1.13277,0,0,1-.34525.33313.57222.57222,0,0,0-.24833.2241.5688.5688,0,0,1-.28468.21805,3.10357,3.10357,0,0,0-.64809.48455,5.28342,5.28342,0,0,1-.70865.55724,1.03287,1.03287,0,0,0-.321.23622c0,.03028-.0848.103-.18171.16353a.48874.48874,0,0,0-.218.212.60072.60072,0,0,1-.27256.23016,1.22694,1.22694,0,0,0-.38764.36341c-.0848.13326-.18171.24228-.212.24228s-.1272.109-.20594.23622a.75585.75585,0,0,1-.28467.27862,2.80683,2.80683,0,0,0-.5209.424c-.38764.37553-.38764.38159-.29678.52695.05451.0848.07874.1696.05451.18777-.01817.02422.01211.04239.07874.04845a3.58811,3.58811,0,0,1,.36341.03029,1.155,1.155,0,0,0,.56329-.09691,1.92367,1.92367,0,0,1,.56935-.12114,4.29119,4.29119,0,0,0,1.34464-.27256c.67232-.49061.91459-.636,1.02967-.636a.82363.82363,0,0,0,.37553-.23016c.13931-.12114.36342-.315.50273-.424.24227-.18776.2665-.19382.39975-.103a.6026.6026,0,0,0,.20594.09085,3.90723,3.90723,0,0,0,.78739-.50878,1.11484,1.11484,0,0,1,.27257-.16354,1.187,1.187,0,0,0,.29073-.16959c.103-.0848.315-.13325,1.04179-.24228a11.70569,11.70569,0,0,0,1.84731-.5814,1.119,1.119,0,0,0,.26651-.20593,1.37141,1.37141,0,0,1,.751-.41187,3.54034,3.54034,0,0,0,.58147-.13931,2.75619,2.75619,0,0,1,.83585-.18777,1.87624,1.87624,0,0,0,.98728-.53906c.08479-.16354.26044-.26651.99939-.59358.11508-.04845.29073-.13325.38158-.18171A2.88909,2.88909,0,0,1,15.1,17.284a5.52438,5.52438,0,0,0,1.43549-.48456,4.9841,4.9841,0,0,1,.75711-.30284,4.44284,4.44284,0,0,0,.69655-.27256c.2665-.1272.73288-.33313,1.02967-.45427.30285-.12114.6602-.27256.80557-.33919a1.37434,1.37434,0,0,1,.39976-.11508,1.282,1.282,0,0,0,.40581-.13931,2.09266,2.09266,0,0,1,.62386-.18776,1.68631,1.68631,0,0,0,.47244-.103.36139.36139,0,0,1,.47244.13325c.06057.109.02423.16354-.26651.44821a3.091,3.091,0,0,1-.58752.46033,3.72388,3.72388,0,0,0-1.066,1.09024.37163.37163,0,0,1-.12114.18171,1.16276,1.16276,0,0,0-.58752.16959.75216.75216,0,0,1-.3089.1272c-.06057,0-.09086.01817-.07269.0424.02423.01817-.01817.12719-.08479.24227-.09691.15143-.103.19382-.03634.16354.12113-.0424.34524.18171.34524.33919,0,.09085.0424.12113.14537.12113.15142,0,.33918-.1393.33918-.24833,0-.03634.09086-.09691.20594-.14536a.768.768,0,0,0,.25439-.15748.6916.6916,0,0,1,.24227-.15143c.11509-.04845.20594-.109.20594-.13325a1.42783,1.42783,0,0,1,.315-.28467,5.13855,5.13855,0,0,0,.56329-.50878c.13325-.14537.29679-.321.36947-.3937a7.78423,7.78423,0,0,1,1.066-.71472,8.87047,8.87047,0,0,0,1.5324-1.381,3.23907,3.23907,0,0,1,.41792-.3937,2.568,2.568,0,0,0,.58147-.58752c0-.07874.315-.20594.69654-.28468a2.2902,2.2902,0,0,0,.55118-.19382.94809.94809,0,0,1,.3937-.11508.77149.77149,0,0,0,.33313-.07874,3.024,3.024,0,0,1,.87825-.40581c.09691,0,.12114-.03029.09691-.12114-.0424-.16354.07874-.30285.29073-.33313a2.113,2.113,0,0,0,.67232-.18171,5.42032,5.42032,0,0,1,1.32646-.29679,4.57066,4.57066,0,0,0,1.19322-.37553.72648.72648,0,0,1,.27256-.08479.901.901,0,0,0,.34524-.18171.94335.94335,0,0,1,.315-.18171,2.16981,2.16981,0,0,0,.76923-.65414,2.93227,2.93227,0,0,0,.17565-.527,3.76462,3.76462,0,0,1,.533-1.15082.72108.72108,0,0,0,.11509-.65414.69847.69847,0,0,0-.27256-.25439c-.19988-.109-.212-.109-.60569.01817-.39976.12719-.40582.12719-.73289.01211a1.067,1.067,0,0,0-.67233-.05451,1.54876,1.54876,0,0,0-.46032.15142.53239.53239,0,0,1-.26651.0848.65433.65433,0,0,0-.27861.09085c-.07874.05451-.1696.09085-.19383.07874a.42531.42531,0,0,0-.19382.06663c-.07873.0424-.15748.06057-.17565.0424s-.109.00605-.19988.05451-.1817.06662-.20593.04845c-.01817-.01817-.0848.00606-.13931.05452a4.9839,4.9839,0,0,1-1.066.55723,1.41258,1.41258,0,0,0-.46638.33919,1.05308,1.05308,0,0,1-.424.30284.59517.59517,0,0,0-.27256.09691c-.0848.05452-.15142.07874-.15142.06057,0-.02422-.07874,0-.17566.04846a.749.749,0,0,1-.854-.02423c-.34524-.17565-.56935-.3937-.50878-.49061a.855.855,0,0,0-.12114-.34524,2.25936,2.25936,0,0,1-.1817-.636,1.73271,1.73271,0,0,0-.09691-.46638c-.03635-.06663-.04846-.12114-.03028-.12114s.00606-.05451-.03028-.12719a1.42453,1.42453,0,0,1-.14537-.50878,1.63343,1.63343,0,0,0-.3089-.61781c-.08481-.11508-.13932-.23622-.12114-.26045.01211-.02422-.02423-.09085-.0848-.14536a.93777.93777,0,0,1-.18776-.27862c-.07874-.19382,0-.38159.41791-.96911a1.71271,1.71271,0,0,0,.27862-.54512,1.71054,1.71054,0,0,1,.1272-.37553.38515.38515,0,0,0,.0483-.25429.34325.34325,0,0,1,.06663-.25439c.09691-.15142.09691-.17565-.06057-.54512a1.13291,1.13291,0,0,0-.218-.38764c-.03028,0-.109-.0848-.17565-.19382-.11508-.19382-.16354-.21805-.55724-.27256a.43553.43553,0,0,0-.38764.09691.61226.61226,0,0,1-.212.12719,2.04211,2.04211,0,0,0-.59963.4361,2.84556,2.84556,0,0,1-.78134.44821.81883.81883,0,0,1-.642.00606,7.87092,7.87092,0,0,1-1.76866-1.29012c-.27256-.26651-.55723-.53907-.636-.59358S19.6547.52455,19.54567.44581,19.30945.31255,19.261.33073a.71257.71257,0,0,1-.34525-.103A1.28638,1.28638,0,0,0,18.504.07634a1.395,1.395,0,0,1-.28467-.05452C18.12839-.00846,18.08.00365,18.08.04605Zm2.90732,8.77646a1.78181,1.78181,0,0,0,.24227.46033.64813.64813,0,0,1,.15143.27862c-.01212.02422.03634.07268.12113.109a1.29871,1.29871,0,0,1,.35131.3937,3.88865,3.88865,0,0,0,.43.54512.83034.83034,0,0,1,.218.29679c0,.16354-.1817.33313-.46638.44215a1.924,1.924,0,0,0-.4361.22411.52741.52741,0,0,1-.2241.109,8.91527,8.91527,0,0,0-1.42337.69049,2.13946,2.13946,0,0,1-.55724.24228c-.01817-.02423-.15142.04845-.29679.15142a1.15678,1.15678,0,0,1-.321.18777,1.08884,1.08884,0,0,0-.27256.109,2.99311,2.99311,0,0,1-.48455.18776,4.826,4.826,0,0,0-.95093.35736.20993.20993,0,0,1-.26651.00606c-.12113-.06057-.19382-.0424-.56328.14536a3.669,3.669,0,0,1-1.23561.46639.35846.35846,0,0,0-.24834.08479,2.6008,2.6008,0,0,1-1.07812.43.45576.45576,0,0,0-.36948.14537.43987.43987,0,0,1-.2665.15748.72454.72454,0,0,0-.23016.06057.6533.6533,0,0,1-.19988.06057,2.27541,2.27541,0,0,0-.34524.09085c-.3937.1272-.4785.1272-.60569,0-.15748-.15748-.07874-.32707.19382-.41793a2.07417,2.07417,0,0,0,.533-.37552,5.30083,5.30083,0,0,1,.81769-.69049c.103-.06663.25439-.17565.34524-.24833a2.18031,2.18031,0,0,1,1.50817-.44822c.12114,0,.23016-.07874.424-.315.14536-.16959.40581-.44821.58145-.6178a2.02439,2.02439,0,0,0,.41187-.56329.88307.88307,0,0,1,.29073-.37553,5.7553,5.7553,0,0,0,1.381-1.1387,2.70884,2.70884,0,0,1,.72683-.527c.24833-.1272.59963-.32707.78134-.44821,1.06-.6903,1.20532-.72059,1.33252-.26632Z"/>
   <path class="a"
         d="M18.716,18.03507c-.09691.01817-.18171.07269-.17565.11508.006.03635.01211.1272.01817.19383.006.09085.04845.12113.16353.12113.13325,0,.15143-.02422.1272-.13325a.36661.36661,0,0,1,.02423-.24227c.03028-.06057.04845-.103.04239-.103C18.90367,17.99268,18.81887,18.01085,18.716,18.03507Z"/>

</g>
</svg>
