<?xml version="1.0" encoding="UTF-8"?>
<svg xmlns="http://www.w3.org/2000/svg"
     version="1.1"
     width="39.00466781mm"
     height="13.47955386mm"
     viewBox="0.00000000 0.00000000 110.56436317 38.20979673">

<g transform="scale(6.22744503)">   <defs>
      <style type="text/css"><![CDATA[
      .a {
        stroke: #000;
        stroke-miterlimit: 10;
        stroke-width: 0.15px;
      }
    ]]></style>
   </defs>
   <path class="a"
         d="M.66126,4.07187c.39534-.29.92014-.04486,1.48165.05112.57479.09823,5.41037-1.43514,6.64181-1.83928C10.3622,1.766,11.151,1.50717,12.10564,1.26188,14.0315.767,16.96152-.17688,17.368.13789c.33079.25618.31939.808.30654,1.43054-.00318.15424-1.23385,3.26273-1.58381,3.16765-.19976-.05426-.12887-.4145-.35764-.76637-.23281-.35807-.77993-.71352-2.29909-.6642a13.83,13.83,0,0,0-3.78072.86856c-1.18862.348-9.30665,2.20457-9.554,1.83927A3.73043,3.73043,0,0,1,.66126,4.07187Z"/>

</g>
</svg>
