<?xml version="1.0" encoding="UTF-8"?>
<svg xmlns="http://www.w3.org/2000/svg"
     version="1.1"
     width="26.28001668mm"
     height="62.22090165mm"
     viewBox="0.00000000 0.00000000 74.49459285 176.37422827">

<g transform="scale(4.98973131)">   <defs>
      <style type="text/css"><![CDATA[
      .a {
        stroke: #000;
        stroke-linecap: round;
        stroke-linejoin: round;
        stroke-width: 0.01px;
      }
    ]]></style>
   </defs>
   <path class="a"
         d="M5.90824.1141a4.2332,4.2332,0,0,1-1.06.38158,5.36364,5.36364,0,0,0-1.21138.62387,2.666,2.666,0,0,1-.73289.50272c-.04846,0-.1272.06663-.18171.15142a.69386.69386,0,0,1-.3513.22411,1.8311,1.8311,0,0,0-.38764.15748.38969.38969,0,0,1-.2665.05451c-.212-.06057-.75712.30285-.88431.58146a.71814.71814,0,0,1-.26651.321,1.17612,1.17612,0,0,0-.43.88431,1.0966,1.0966,0,0,1-.06662.44821c-.0848.25439-.0848.30285-.00606.47244a.58411.58411,0,0,0,.62386.3513c.315,0,.73894-.16959.73894-.29679,0-.13325.23622-.56329.321-.56935a.536.536,0,0,1,.13931,0A2.31543,2.31543,0,0,0,2.371,4.17223a3.90322,3.90322,0,0,1,1.2659-.57541,3.71884,3.71884,0,0,0,1.19321-.34524,1.79892,1.79892,0,0,1,.24833-.11508,3.32719,3.32719,0,0,1,.3513.24833c.27256.19988.36947.24228.56935.23016a1.10189,1.10189,0,0,0,.3513-.07268c.19382-.09085.424.06057.67838.45427l.24227.37553V5.105a4.02926,4.02926,0,0,0,.06057.81769,5.49924,5.49924,0,0,1,.06663,1.06,4.92476,4.92476,0,0,0,.14536,1.605.4871.4871,0,0,1-.02422.33918,4.85131,4.85131,0,0,0,0,1.53845,3.17424,3.17424,0,0,1,.02422.45428,6.34009,6.34009,0,0,1-.109,1.42337,1.58339,1.58339,0,0,0-.06663.45427,3.68832,3.68832,0,0,1-.07874.67837,4.05917,4.05917,0,0,0,0,1.53846A15.13927,15.13927,0,0,1,7.271,17.449a1.76979,1.76979,0,0,0,.02423.56935.28769.28769,0,0,1,0,.2241,5.12013,5.12013,0,0,0-.43,1.33252c0,.13931-.01817.49061-.03029.79346a11.07907,11.07907,0,0,0-.01817,1.95032,1.24416,1.24416,0,0,1,0,.424,12.93734,12.93734,0,0,0-.15142,1.32646,1.31952,1.31952,0,0,1-.109.36341,4.12379,4.12379,0,0,0-.09691,1.4476,3.40708,3.40708,0,0,1-.27862,1.30224.6948.6948,0,0,0,.11508.69654c.12114.12114.12114.1696,0,.81769a4.57057,4.57057,0,0,0-.17565,1.87764,2.48668,2.48668,0,0,1-.03029,1.06,6.28712,6.28712,0,0,0-.08479.75711c-.01212.18171-.05451.69049-.09691,1.13265l-.07874.79951.17565.17565a.96361.96361,0,0,0,.642.33918.49672.49672,0,0,1,.3089.16961.69858.69858,0,0,0,.26651.19987c.07874.01817.13931.06662.13931.09691,0,.09691.424-.00606.7026-.16354a.88807.88807,0,0,0,.321-.315,3.0591,3.0591,0,0,1,.22411-.38158,6.67645,6.67645,0,0,0,.47849-1.55057.54813.54813,0,0,1,.06663-.20594,4.78258,4.78258,0,0,0-.01815-1.94427.678.678,0,0,1-.01817-.50878,3.13865,3.13865,0,0,0,.0848-.71471,2.50107,2.50107,0,0,1,.109-.7026,2.08956,2.08956,0,0,0,.09085-.72683,1.91313,1.91313,0,0,1,.07874-.66626.801.801,0,0,0,.07269-.34524,1.78167,1.78167,0,0,1,.09691-.54512,2.87785,2.87785,0,0,0,.103-.98728,3.406,3.406,0,0,1,.03635-.77528,2.4828,2.4828,0,0,1,.86008-.90855,2.54268,2.54268,0,0,0,.533-.55723,1.76275,1.76275,0,0,1,.82979-.66625c.09691,0,.4785-.41188.62386-.66626a.91514.91514,0,0,1,.41793-.35737.82243.82243,0,0,0,.33313-.24228c.01211-.05451.14537-.15748.28468-.23622a1.78731,1.78731,0,0,0,.67231-.848c.03029-.07268.07874-.13326.109-.13326s.05451-.06662.05451-.14536a.60994.60994,0,0,1,.11508-.29072,1.8489,1.8489,0,0,0,.22411-.41187.64235.64235,0,0,0,.03634-.527,1.85688,1.85688,0,0,1-.07269-.36343c0-.11507-.11508-.212-.50272-.41793a.74792.74792,0,0,0-.40581-.11508.8967.8967,0,0,1-.34525-.02422c-.2241-.06662-.424-.03029-1.26589.23622a1.10829,1.10829,0,0,1-.30285.06056,1.19434,1.19434,0,0,0-.38764.18171,1.27015,1.27015,0,0,1-.35736.18171,1.70015,1.70015,0,0,0-.37552.14536c-.27256.13931-.30285.14537-.3937.05452-.07269-.07874-.09086-.15748-.05451-.34525a2.04535,2.04535,0,0,0,.03028-.53906c-.00606-.03634-.00606-.22411-.00606-.40581v-.48456a1.26709,1.26709,0,0,1,.05451-.36947,1.59625,1.59625,0,0,0,.01818-.48455,1.58014,1.58014,0,0,1,0-.4785,1.84977,1.84977,0,0,0,.01211-.49061c-.02423-.19988-.00606-.29679.06663-.36947a.63527.63527,0,0,0,.12113-.30284,1.88989,1.88989,0,0,1,.09086-.37553,8.75644,8.75644,0,0,0,.15748-1.85342,8.33324,8.33324,0,0,1,.12719-1.09024,8.905,8.905,0,0,0,.12114-1.29012,5.02038,5.02038,0,0,1,.07874-.93277.33756.33756,0,0,0-.00606-.25439A13.31873,13.31873,0,0,1,11.208,5.92268c.01817-.3513.03029-.72078.03029-.81769a10.6261,10.6261,0,0,0-.24228-1.6717.25041.25041,0,0,1-.03634-.1696.51126.51126,0,0,0-.05451-.27256.81334.81334,0,0,1-.07874-.29679.26181.26181,0,0,0-.07268-.1817c-.04846-.05452-.15748-.18171-.24228-.27257-.0848-.09691-.23016-.27861-.33313-.41187a4.21481,4.21481,0,0,0-.72683-.73894C9.35462,1.01658,9.19714.9015,9.10629.82881a3.42281,3.42281,0,0,0-1.87765-.636A.57832.57832,0,0,1,6.87129.13227,1.04169,1.04169,0,0,0,5.90824.1141Z"/>

</g>
</svg>
