<?xml version="1.0" encoding="UTF-8"?>
<svg xmlns="http://www.w3.org/2000/svg"
     version="1.1"
     width="20.19554195mm"
     height="39.47434172mm"
     viewBox="0.00000000 0.00000000 57.24722073 111.89585319">

<g transform="scale(6.22744503)">   <defs>
      <style type="text/css"><![CDATA[
      .a {
        stroke: #000;
        stroke-linecap: round;
        stroke-linejoin: round;
        stroke-width: 0.01px;
      }
    ]]></style>
   </defs>
   <path class="a"
         d="M7.76107.06587a.79366.79366,0,0,0-.321.33919,2.39994,2.39994,0,0,1-.38765.49061.87226.87226,0,0,0-.29678.50272,1.18867,1.18867,0,0,1-.19382.44822.84583.84583,0,0,0-.14537.2665,1.01861,1.01861,0,0,1-.13931.27256.79641.79641,0,0,0-.14537.49061,1.624,1.624,0,0,1-.19987.69655,1.618,1.618,0,0,0-.1817,1.32646c.06057.13325.14537.33313.18776.44215a1.5125,1.5125,0,0,0,.30891.44216A1.24635,1.24635,0,0,1,6.6466,6.85567a.42216.42216,0,0,0,.03634.41793,3.60609,3.60609,0,0,1,.25439,1.62325c.02423.77528.01212.86008-.09691,1.0115a.62579.62579,0,0,0-.12114.27862.52441.52441,0,0,1-.109.26045,2.30392,2.30392,0,0,0-.33919.87219,3.57416,3.57416,0,0,1-.12719.48456,5.21783,5.21783,0,0,1-.65415,1.19321A3.46715,3.46715,0,0,0,4.66,13.8938a1.51212,1.51212,0,0,1-1.169.848c-.13325,0-.46638.16353-.46638.23016,0,.02423-.07268.09085-.16354.14537-.13931.07874-.25439.08479-.65414.03634a2.71338,2.71338,0,0,0-.60569-.01817,2.98938,2.98938,0,0,1-.48456.07268c-.315.02423-.38764.05451-.52695.218a2.33569,2.33569,0,0,0-.2665.40581c-.05451.11508-.15748.28468-.218.38159a.9991.9991,0,0,0,0,.87219.29584.29584,0,0,1,.0424.212c-.03634.09691.33918.43.56329.49667.07268.02423.13325.06663.13325.09691s.11508.05451.26045.05451a1.38825,1.38825,0,0,1,.315.01212c.103.03028.33313-.07269.72077-.315a2.19115,2.19115,0,0,1,.4361-.23622c.03634,0,.12719-.07874.20593-.18171a.92048.92048,0,0,1,.424-.27256,1.03053,1.03053,0,0,0,.49061-.33919,1.70589,1.70589,0,0,1,.38158-.33918,2.71816,2.71816,0,0,0,.44821-.33313,1.17,1.17,0,0,1,.4361-.26651c.13931-.03028.23016-.12719.44216-.47244.14536-.23622.32707-.58146.41187-.76317a2.55725,2.55725,0,0,1,.37552-.58752,3.39648,3.39648,0,0,0,.424-.62386c.109-.20594.27862-.54512.38764-.75106a1.776,1.776,0,0,0,.19382-.53906c.00606-.15142.25439-.46638.36947-.46638a1.378,1.378,0,0,0,.30285-.5633,2.29192,2.29192,0,0,1,.212-.50272,1.54687,1.54687,0,0,0,.212-.65415,2.80246,2.80246,0,0,1,.26045-1.09024,2.96119,2.96119,0,0,0,.29073-.94488,4.93866,4.93866,0,0,0,.06057-.848A1.74193,1.74193,0,0,1,8.99682,6.153c.07874-.12114.06663-.16354-.15748-.50878A1.60912,1.60912,0,0,1,8.591,5.12942a4.41891,4.41891,0,0,0-.13325-.848.98822.98822,0,0,1-.03634-.45426.3522.3522,0,0,0,.02422-.19988c-.01211-.06663-.03634-.26045-.05451-.424A4.04509,4.04509,0,0,0,8.27,2.60365a1.07486,1.07486,0,0,1-.06057-.36947.64285.64285,0,0,1,.50273-.212.61707.61707,0,0,0,.33313-.1272c.16959-.13325.18776-.3513.05451-.6602a4.17086,4.17086,0,0,1-.14537-.424C8.87554.53226,8.8332.4838,8.46973.19913A.60527.60527,0,0,0,7.76107.06587Z"/>

</g>
</svg>
