<?xml version="1.0" encoding="UTF-8"?>
<svg xmlns="http://www.w3.org/2000/svg"
     version="1.1"
     width="27.98482761mm"
     height="48.78056023mm"
     viewBox="0.00000000 0.00000000 79.32708963 138.27563598">

<g transform="scale(3.49229315)">   <defs>
      <style type="text/css"><![CDATA[
      .b {
        stroke: #000;
        stroke-linecap: round;
        stroke-linejoin: round;
        stroke-width: .01px;
      }
    ]]></style>
   </defs>
   <path class="b"
         d="M18.14697.06217c-.53516.04297-.60547.07422-.69531.25-.05469.10938-.10547.28906-.10547.39844,0,.47266-.16797.79297-.58984,1.16016-.29688.25781-.5625.59375-.84766,1.10547-.23437.40625-.53516.91016-.67969,1.13672-.79297,1.22266-1.11328,1.78125-1.32031,2.29297-.12891.3125-.32031.66406-.42578.77734-.10156.11328-.23047.32813-.27734.47266-.05859.15234-.21875.44141-.37891.65625-.15234.20703-.38281.63281-.51172.94141-.12109.3125-.33594.70703-.46484.875-.125.16797-.31641.44531-.42188.62109-.10547.17969-.32813.48047-.50391.68359-.35938.41406-.64063.92578-.77734,1.4375-.12109.44141-.4375,1.10547-.65625,1.32813-.24609.27344-1.11719,1.96094-1.76563,3.43359-.15234.35156-.41016.92578-.5625,1.27734-.16016.35547-.32813.81641-.375,1.04297-.12891.57422-.35938,1.05469-.67969,1.40625-.28906.32031-.54297.77734-.625,1.11328-.02344.10938-.30469.6875-.61328,1.27734-.32031.59375-.65625,1.3125-.76172,1.60156-.46484,1.28906-.96875,2.28906-1.34375,2.70313-.09766.10547-.42578.35938-.71875.5625-.90625.59766-1.3125,1.16016-1.77734,2.39063-.28906.75391-.33594,1.32031-.16016,2.01563.19922.81641.36719.96875,1.48047,1.32031,1.25391.40625,2.52734.63281,3.23828.56641.33594-.02344.89063,0,1.40234.07422.46094.0625,1.07031.15234,1.35938.19141.28906.04688,1.0625.07813,1.73438.08984h1.21875l.78125.32422c1.42578.59375,1.625.76172,1.625,1.38672,0,.32813-.23828.86328-.45703,1.03125-.07813.05469-.27734.25781-.4375.44922-.48047.53516-.38672,1.13281.17578,1.13281.23828,0,.51953-.19141,1.375-.97266.28125-.25.79297-.60938,1.14453-.79297.35156-.19141.82422-.48828,1.05469-.67188.22266-.17578.64062-.46484.92187-.64063.48047-.30469.98438-.72656,1.98438-1.67188.23828-.23047.55859-.48828.70313-.56641.18359-.11328.33594-.32031.50391-.67188.13672-.28125.32813-.64063.4375-.80078.10547-.16016.19531-.38672.19531-.50391,0-.12109.05469-.36719.13281-.55469.16797-.42188.07422-.83203-.23828-1.0625-.19141-.14453-.35156-.16797-1.08984-.17578-.46875-.00781-1.03906-.05469-1.25391-.11328-.35938-.09375-.42578-.08594-.72656.07422-.40234.19922-1.12891.22266-1.76953.05469-.53516-.14453-.80078-.32031-.86328-.56641-.08203-.3125.19141-.98438.50391-1.26563.15234-.14453.55078-.52734.87109-.86328.59375-.60938.71094-.6875,1.35156-.86328.50391-.14453,1.41016-.80078,1.61719-1.16797.24609-.46484.32031-.51953.64063-.51953.23047,0,.34375-.06641.59766-.32031.16797-.18359.37891-.46484.46484-.64063.08984-.16797.32031-.44141.51172-.60156.19922-.16797.40234-.40625.44922-.55859.04688-.14453.20703-.35938.35156-.47266.19141-.14453.3125-.33594.43359-.71094.26172-.76172.23828-1.05859-.11328-1.39453-.42578-.39063-.65625-.34375-.91406.19531-.10938.22266-.29297.48438-.40625.57422s-.32813.39844-.47266.70313c-.51953,1.03906-.71875,1.25-1.75,1.82422-1.34375.76172-1.85156,1.07422-2.08984,1.28906-.11328.10547-.34375.23828-.51172.3125-.19922.08594-.6875.51172-1.32031,1.15234-.55078.55859-1.09766,1.07031-1.20703,1.125-.11328.05859-.43359.25781-.72266.44141-.28516.18359-.80469.48828-1.15625.67188-.58594.29688-.69922.32813-1.32031.34375-.45703.01563-.88281-.02344-1.28125-.12891-.32813-.07813-.78516-.17578-1.00781-.19922-.48047-.0625-.80859-.25391-.87109-.51172-.05859-.19922.80469-2.10156,1.03125-2.28906.07813-.0625.21484-.26172.30469-.4375.08594-.18359.26172-.47266.38281-.64844s.32813-.64844.47266-1.03906c.14453-.40234.45703-1.05078.6875-1.44922.48047-.80078.91797-1.77734.91797-2.02344,0-.08984.10547-.28125.23438-.42578.12109-.14453.28906-.39063.36719-.54297.19141-.36719.73438-1.16016.88672-1.28906.06641-.05469.20313-.24609.28906-.42188.09766-.18359.25-.44141.34375-.57031.21484-.27734.92188-1.65625.92188-1.78125,0-.05078.09375-.20313.21484-.33594.21484-.25781.76172-1.27344.86328-1.61719.03125-.09766.19922-.42578.36719-.71094.17578-.28906.3125-.57813.3125-.64063,0-.06641.09766-.25.20703-.40234.11328-.15234.23438-.34375.27344-.42969.03125-.08984.19141-.35156.35156-.59375.16016-.23047.34375-.61328.41797-.84766.0625-.23828.20703-.54297.3125-.69531.10156-.14453.26953-.40625.36719-.58594.09375-.17578.23828-.39844.32031-.50391.07813-.10156.19922-.375.27734-.59766.07422-.23438.27344-.6875.44141-1.01563s.43359-.89063.59375-1.24219.375-.72656.47656-.83984c.25-.26953,1.40234-2.80078,1.40234-3.07813,0-.40234-.28125-.73047-.82422-.95313-.54297-.23047-1.21484-.375-1.60938-.35156-.13672.00781-.51953.03125-.84766.05469Z"/>

</g>
</svg>
