<?xml version="1.0" encoding="UTF-8"?>
<svg xmlns="http://www.w3.org/2000/svg"
     version="1.1"
     width="59.40706342mm"
     height="14.69310657mm"
     viewBox="0.00000000 0.00000000 168.39794683 41.64972819">

<g transform="scale(3.31680322)">   <defs>
      <style type="text/css"><![CDATA[
      .b {
        stroke: #000;
        stroke-linecap: round;
        stroke-linejoin: round;
        stroke-width: .01px;
      }
    ]]></style>
   </defs>
   <path class="b"
         d="M25.48491.07995c-.10938.04297-.42969.12109-.71875.19531-.28906.0625-.82422.21484-1.19922.32813-.375.11719-.95313.26172-1.28125.31641-.32813.05859-.75781.16016-.95703.24219-.20313.07031-.46484.16797-.60156.21484-.12891.05078-.65625.12109-1.16016.14453-1.375.08984-2.12109.20703-3.12109.53516-.19922.06641-.67969.19922-1.07813.30469-.98438.25781-1.82422.53516-2.39453.79297-.25391.11328-.62891.25391-.83984.32031-.35156.10156-.81641.27734-2.6875,1.00781-.4375.16797-1.11719.42187-1.51953.55859-1.32813.47266-1.95313.73828-2.33594.97656-.58203.375-1.16016.625-1.44141.625-.59766,0-1.4375.34375-2.74219,1.10156-.19922.12109-.57422.28906-.83203.37891-.63281.21484-.67969.3125-.42578.86328.1875.39844.19531.46484.08984.65625-.0625.12109-.08984.24609-.07031.28906.07813.11719.78906.40625,1.27734.51953.26563.05469.75391.18359,1.08203.27734.96875.28125,1.65625.40234,2.67969.48047,1.45703.10547,2.26953.20703,2.75781.35156.24219.08203.71484.18359,1.04297.24219.32813.0625.75781.15234.95703.19922.20313.03906.70703.13672,1.12109.20703,2.64844.42578,3.88672.44922,5.00781.10547.13672-.03906.69531-.09766,1.24219-.12109.77344-.03906,1.05469-.07813,1.30859-.20703.21875-.12109.44922-.16016.73047-.15234.39844.01563.59766-.02344,1.51172-.27344.375-.10156.69531-.11719,1.48047-.07813,4.44531.19922,10.96875.26953,11.96094.12891.35156-.05859,1.6875-.12109,2.96484-.15234,2.74609-.06641,2.69922-.05078,2.65625-.80859-.02344-.42578-.03906-.45703-.30469-.58594-.19141-.09375-.48438-.13281-.93359-.14453-.35938,0-.75391-.03906-.86328-.07813-.12891-.04688-1.11328-.08984-2.32813-.08984-2.06641-.00781-2.64063.05078-3.15234.28125-.14453.06641-1.33594.08984-4,.08984-2.86328.00781-3.88281.03125-4.12109.10156-.23828.08203-.85547.09766-2.51953.06641-1.20703-.02344-2.47266-.06641-2.80078-.08984-.71094-.05469-.93359.03906-.84766.38281.02344.11328.10547.25781.16797.32813.33594.32813,0,.37891-.51953.07422-.19922-.11328-.55859-.24219-.80078-.28125-2.40625-.35938-2.97656-.39844-3.80078-.23047-.60547.12891-1.55859.0625-2.07813-.13672-.21484-.08984-.6875-.17578-1.03906-.20703-.37109-.02344-.88281-.13672-1.20313-.25781-.30078-.10938-.67188-.23828-.80469-.28906-.17578-.05469-.5625-.05469-1.32031.01172-1.70703.14844-1.78516.14844-1.81641-.01172-.01563-.09375.04688-.17578.19922-.23047.375-.14453,2.20703-.99219,4.16797-1.91797.44922-.21875.85547-.39453.90234-.39453.05078,0,.28906-.10156.53906-.23047.24609-.12891.73438-.35938,1.07031-.51953.33594-.16797.78516-.42578.98438-.57813.19922-.16016.60938-.39063.90234-.51953.29688-.13672.60156-.27344.67188-.3125.48828-.26172,1.80859-.73437,2.54688-.91797.23828-.06641.59766-.15234.79688-.21094.20313-.04688.59375-.13281.88281-.19141.28516-.05469.71875-.15234.95703-.22266.24219-.0625.85156-.13672,1.35547-.16797.75781-.03906,1.02344-.08984,1.59766-.30469l.6875-.26172h8.41797l.42969.19141c.24219.10156.54688.23828.67188.29297.13672.05859.45703.14453.72266.19531.26172.05469.55859.125.66406.16797.10156.03906.26953.07031.38281.07031s.46484.08984.78516.19141c.32031.11328.80859.22656,1.09375.25.37109.03906.66406.14453,1.07422.35938.3125.16797.84766.39844,1.19922.51953.56641.19922.80078.30469,1.55859.71875.11328.05859.30469.14453.42578.19141.14453.05859.27344.20313.36719.42578.08203.19141.26563.48828.41016.66406.14063.17578.34375.50391.4375.73438.22656.50391.41797.63281,1.08203.73828.28516.03906.61328.10156.74219.13672.26563.0625.99219-.22656,1.19141-.47266.17578-.22656.18359-.80078.01563-1.09766-.07031-.11719-.23047-.26953-.35156-.34375-.11719-.07031-.35156-.28906-.52734-.48047-.53516-.60547-1.27344-1.50391-1.34375-1.64062-.15234-.29297-.83203-.91797-1.19141-1.10156-.20703-.11328-.83984-.35156-1.40234-.54297-1.83203-.625-2.44531-.875-2.83203-1.13672-.24609-.16797-.51953-.27344-.79688-.3125-.23438-.03125-.52734-.08203-.66406-.12109-.44922-.12891-1.12109-.24609-1.83984-.32031-.89844-.09375-1.35156-.16797-3.36328-.56641-.63672-.12891-1.56641-.17578-1.65234-.08984-.05078.05078,0,.16016.14844.32813.47266.53516.875.90625,1.08203,1.01563.27344.14453.35938.41016.19141.58594-.15234.14453-.11328.16797-1.20703-.59375-.76172-.52734-1.02344-.67969-2.03906-1.20703-.69141-.35938-1.05078-.42188-1.52344-.27344Z"/>
   <path class="b"
         d="M48.44585,8.64245c-.0625.03906-.55078.07813-1.07813.07813s-1.10547.04297-1.28125.08984-.67969.12109-1.12109.16016c-.4375.03906-1.03125.09375-1.3125.11719-.28516.02734-.64453.01172-.79688-.03125-.9375-.26953-.95313-.26953-1.28125-.10156-.55078.28516-.56641.3125-.51172,1.23047.03906.69531.07031.83984.22266,1,.25.26563.85547.26563,1.67969-.00781.53906-.18359.76953-.21484,1.48047-.20703.46484,0,1.02344.03906,1.24219.07813.22266.03906.62891.11328.91797.15234.96094.13672,1.24219.20703,1.83203.51172.64844.32813.80078.33594,1.6875.11328.48047-.12891.64063-.3125.64063-.74609,0-.35156-.08594-.4375-.64844-.67969-.64844-.26953-.73438-.39844-.45313-.69531.21484-.22266.38281-.57422.38281-.78516,0-.19922-.44141-.35938-.97656-.35938-.28125,0-.55859.04297-.625.08203Z"/>

</g>
</svg>
