<?xml version="1.0" encoding="UTF-8"?>
<svg xmlns="http://www.w3.org/2000/svg"
     version="1.1"
     width="30.89621671mm"
     height="43.36131400mm"
     viewBox="0.00000000 0.00000000 87.57986383 122.91394758">

<g transform="scale(4.98973131)">   <defs>
      <style type="text/css"><![CDATA[
      .a {
        stroke: #000;
        stroke-linecap: round;
        stroke-linejoin: round;
        stroke-width: 0.01px;
      }
    ]]></style>
   </defs>
   <path class="a"
         d="M13.21175.06557A.508.508,0,0,1,13.0785.2715a4.95935,4.95935,0,0,0-.62992.7874,10.171,10.171,0,0,1-.46638.98122,1.44467,1.44467,0,0,1-.26045.36342c-.13325.12113-.315.60569-.24833.66626.01817.02422.006.09691-.03029.16959a.98483.98483,0,0,0-.09085.33919c-.00606.11508-.03029.32707-.04846.47244a.74387.74387,0,0,0,.0848.48455.43312.43312,0,0,1,.03028.46638c-.07874.23622-.05451.75711.03635.75711.109,0,.25439.33919.2665.62992a3.22614,3.22614,0,0,0,.12114.67232c.13931.46033.33313,1.1387.41187,1.45366.06662.24833.19988.7026.38764,1.30223a3.04126,3.04126,0,0,1,.11508.72683,1.8575,1.8575,0,0,0,.16959.73289,1.595,1.595,0,0,1,.15143.636c0,.16353.02423.46032.0424.66626.04239.33918.03634.38158-.09691.50272a.62607.62607,0,0,1-.67838.13325c-.13931-.0424-.3089-.07874-.37553-.09085a.75609.75609,0,0,1-.24227-.07874.3212.3212,0,0,0-.19988-.03634.60683.60683,0,0,1-.30285-.06057,3.37112,3.37112,0,0,0-.745-.15748,1.36681,1.36681,0,0,0-.848.06057,2.53162,2.53162,0,0,1-.533.15142,1.69338,1.69338,0,0,0-.36342.109.89761.89761,0,0,1-.39975.06057c-.13326-.01211-.26651-.02423-.30285-.02423a1.144,1.144,0,0,0-.27256.03029c-.11508.01817-.32707.0424-.46032.05451a1.14489,1.14489,0,0,0-.32708.06663,3.63388,3.63388,0,0,1-.70866.06662,4.29735,4.29735,0,0,0-.68443.05452,3.68369,3.68369,0,0,1-.94488-.16354.87252.87252,0,0,1-.05451-.27256c-.01817-.1272-.0424-.315-.06057-.41187-.01817-.103-.04845-.27862-.06057-.3937a2.4383,2.4383,0,0,0-.27256-.90854c-.14536-.27862-.14536-.24833-.1817-1.99878-.00606-.04845.01211-.40581.03028-.7874s.03634-.73894.03634-.78739c-.01211-.70261-.06662-2.13809-.09085-2.30163a.53537.53537,0,0,1,.04845-.33313,1.22063,1.22063,0,0,0,.12114-.28467A.63566.63566,0,0,1,4.302,4.50528a3.45347,3.45347,0,0,0,.35736-.59357A2.10152,2.10152,0,0,0,4.9259,2.664c-.01817-.17565-.36948-.29679-.76923-.25439a.91975.91975,0,0,0-.83585.424,1.31836,1.31836,0,0,1-.28468.3089,2.90875,2.90875,0,0,0-.69049,1.15687,2.33033,2.33033,0,0,1-.24227.54512,1.22759,1.22759,0,0,0-.15143.321.69108.69108,0,0,1-.13325.26044,1.25115,1.25115,0,0,0-.05451.47244,2.30825,2.30825,0,0,1-.103.70866,4.16763,4.16763,0,0,0-.15142.93882c-.03029.36342-.06057.82374-.07268,1.02362a2.4003,2.4003,0,0,1-.07269.45427,4.582,4.582,0,0,0-.09691,1.00545,4.44235,4.44235,0,0,1-.07268.69654,2.9772,2.9772,0,0,0,.04846,1.37492.36634.36634,0,0,1-.01212.24228,1.32419,1.32419,0,0,0-.06662.81768c.08479.321.006.49667-.33919.77528-.14537.1151-.26648.25438-.26648.3089a.54313.54313,0,0,1-.13325.24227,1.20378,1.20378,0,0,0-.2665.55118,1.20636,1.20636,0,0,1-.109.26045c-.15748.30284.1272,1.11447.3937,1.12053a.307.307,0,0,1,.18171.07874,1.03625,1.03625,0,0,0,.78134.30284,5.28242,5.28242,0,0,1,.53907-.01817h.7874a7.859,7.859,0,0,1,1.52028.03029.75654.75654,0,0,0,.43-.04846c.18776-.07874.25439-.07874.56935,0a4.89726,4.89726,0,0,0,1.41732.22411,1.18094,1.18094,0,0,1,.78134.01817A.36157.36157,0,0,0,7.7,17.06732a.30654.30654,0,0,1,.22411.04845,1.166,1.166,0,0,0,.76317.0848c.07874-.04846.16353-.03029.321.06057a.37037.37037,0,0,0,.36342.06662.328.328,0,0,1,.27256,0,.22433.22433,0,0,0,.17565.03029,2.932,2.932,0,0,1,.60569-.06057,2.79015,2.79015,0,0,0,.59963-.06057.94719.94719,0,0,1,.35131.03634,3.2183,3.2183,0,0,0,1.28406.09691.93913.93913,0,0,1,.51484.0848c.16959.07268.27257.09085.35131.04845a.28988.28988,0,0,1,.36946.13931.53706.53706,0,0,1-.06663.26045,1.21442,1.21442,0,0,0-.103.39976,3.5492,3.5492,0,0,1-.61174,1.30829c-.09691.109-.26651.321-.38159.47244a.91241.91241,0,0,1-.25439.27256c-.03028,0-.109.12719-.17565.29073a.81543.81543,0,0,1-.424.45427,2.158,2.158,0,0,0-.49667.3937,2.86375,2.86375,0,0,1-.45427.39975c-.38764.26045-.40581.29073-.212.49667a2.4267,2.4267,0,0,1,.30285.3937c.109.18171.11508.23622.05451.321a.74267.74267,0,0,1-.55118.16353.86733.86733,0,0,0-.29073.09086c-.16354.08479-.18171.07874-.32707-.06663a1.302,1.302,0,0,1-.24228-.36947c-.0848-.20594-.09691-.212-.19988-.12114a.80684.80684,0,0,1-.75711.14537,1.844,1.844,0,0,0-1.01151-.01212.8939.8939,0,0,0-.29678.36342l-.13326.28467.13931.24833a1.47094,1.47094,0,0,0,.70866.70261.84241.84241,0,0,0,.636.05451c.20593-.03029.56935-.06663.79951-.07874a2.65819,2.65819,0,0,0,1.10841-.28468,1.22531,1.22531,0,0,1,.34525-.11508,1.04607,1.04607,0,0,0,.3513-.23622,1.63823,1.63823,0,0,1,.424-.27256,5.26934,5.26934,0,0,0,1.39915-.98122,3.49542,3.49542,0,0,1,.41792-.32707A.945.945,0,0,0,13.878,22.04c0-.03029.07268-.0848.16959-.1272a1.79936,1.79936,0,0,0,.67232-.66626c.07268-.12113.16354-.2241.19382-.2241a1.20678,1.20678,0,0,0,.27862-.3513,4.0135,4.0135,0,0,1,.41187-.527,2.67693,2.67693,0,0,0,.3513-.46639,1.493,1.493,0,0,1,.27256-.36341,1.10606,1.10606,0,0,0,.19382-.212c.04846-.07269.22411-.3089.38159-.527a1.77547,1.77547,0,0,0,.34524-.69049c.02423-.15748.09691-.44821.15143-.64809a3.52722,3.52722,0,0,0,.12113-.50878A.31834.31834,0,0,1,17.5,16.54632c.07874-.04845.05451-.36947-.0424-.53906a.47634.47634,0,0,1-.03634-.30285,3.3809,3.3809,0,0,0,.01817-1.12658.75255.75255,0,0,1-.07268-.27257.54781.54781,0,0,0-.11508-.27861c-.06057-.06663-.17565-.212-.26651-.321a1.248,1.248,0,0,0-.321-.28467,3.74051,3.74051,0,0,0-1.12053-.16354c-.19382,0-.44215-.109-.4785-.20594s.07874-.38764.15143-.38764c.03028,0,.109-.109.17565-.24227a2.224,2.224,0,0,1,.315-.44822,1.0821,1.0821,0,0,0,.20593-.29073,2.51351,2.51351,0,0,1,.41187-.87825.35042.35042,0,0,0,.1272-.32707.36741.36741,0,0,1,.06662-.26651c.06057-.06057.0848-.19987.0848-.43609-.00606-.19383.00606-.53907.02423-.76923a1.42909,1.42909,0,0,0-.03029-.533.2255.2255,0,0,1-.00605-.20593,2.96708,2.96708,0,0,0-.24834-1.19927,1.0834,1.0834,0,0,1-.103-.36342A2.681,2.681,0,0,0,15.9434,5.862a5.95814,5.95814,0,0,1-.527-1.92,2.75424,2.75424,0,0,0-.109-.636,6.23356,6.23356,0,0,1-.27862-.98728.41063.41063,0,0,0-.103-.20594.46947.46947,0,0,1-.09086-.28467.73844.73844,0,0,0-.13931-.3937c-.08479-.12114-.18776-.30284-.24227-.3937a1.49468,1.49468,0,0,0-.1696-.26045A1.70913,1.70913,0,0,1,14.09.48955C13.90224.12008,13.75081.005,13.4722.005,13.32683.005,13.21175.03528,13.21175.06557Z"/>
   <path class="a"
         d="M8.15423,2.62764c-.04846.02423-.09085.03634-.09085.01817a.90144.90144,0,0,0-.25439.109c-.22411.11508-.29679.20593-.5209.6602a3.43338,3.43338,0,0,0-.27862.75106,2.791,2.791,0,0,1-.424,1.10841.55189.55189,0,0,0-.14537.38159.9436.9436,0,0,1-.07268.33918.31813.31813,0,0,0-.02423.20594c.01817.04845-.03633.16354-.12113.26045a.38483.38483,0,0,0-.11508.33918.47684.47684,0,0,1-.03635.27862c-.05451.09691-.0424.18171.03029.37553a.68692.68692,0,0,1,.03635.50272,1.31548,1.31548,0,0,0,.13325,1.00545.77108.77108,0,0,1,.12114.32707c-.01817.01817-.00606.0848.03028.15143a.328.328,0,0,1,.01212.27256c-.0848.2241.09691.64809.43609,1.01756a1.21814,1.21814,0,0,1,.28468.41187.51467.51467,0,0,0,.18171.24833c.103.0848.24227.19988.3089.26045a.26026.26026,0,0,0,.212.07874.301.301,0,0,1,.212.03028.38.38,0,0,0,.315-.00605,5.65347,5.65347,0,0,1,.58147-.15748c.38158-.07874.424-.109.83585-.527.06057-.06056.212-.212.33919-.33313a.577.577,0,0,0,.2241-.41187,1.852,1.852,0,0,0-.218-.91459.34977.34977,0,0,1-.11508-.2241.61527.61527,0,0,0-.06662-.22411.93922.93922,0,0,1-.05452-.3089A1.7902,1.7902,0,0,0,9.711,8.07273a1.41976,1.41976,0,0,1-.18777-.64809c0-.16959-.01817-.39975-.03028-.51483-.03634-.26651-.0848-.65415-.1272-.98728-.02423-.13931-.04845-.33919-.06662-.4361A1.70583,1.70583,0,0,1,9.287,4.76566a.80611.80611,0,0,0-.0424-.4361A.81.81,0,0,1,9.19,3.97228a.942.942,0,0,0-.14536-.41793.91716.91716,0,0,1-.15748-.4361.516.516,0,0,0-.09086-.30284.38132.38132,0,0,0-.33313-.218A.64351.64351,0,0,0,8.15423,2.62764Z"/>

</g>
</svg>
