<?xml version="1.0" encoding="UTF-8"?>
<svg xmlns="http://www.w3.org/2000/svg"
     version="1.1"
     width="44.46570152mm"
     height="16.53738073mm"
     viewBox="0.00000000 0.00000000 126.04440926 46.87765389">

<g transform="scale(5.79267105)">   <defs>
      <style type="text/css"><![CDATA[
      .b {
        fill: #000;
        fill-rule: evenodd;
        stroke: #000;
        stroke-miterlimit: 2.61313;
        stroke-width: .28346px;
      }
    ]]></style>
   </defs>
   <path class="b"
         d="M4.76886,7.12265c-.0343.72449-.57629.70892-1.19116.58813-1.16357.23529-2.28271.33313-3.30261.12958-.76709-1.1449,1.88965-1.66315,5.03516-2.09259,2.00781-1.25256,3.67712-1.58875,5.25183-1.66809,1.45239-.27301,2.85999-.63501,4.16882-1.19232C15.98101.86093,18.50274.47824,21.06549.14828c1.44373,1.16193-.19861,3.89709-2.00317,5.43848v-.97449c-.64124-.7146-1.97656-.60773-3.62756-.12817-3.50134.60669-6.24438,2.10394-10.66589,2.63855h0Z"/>

</g>
</svg>
