<?xml version="1.0" encoding="UTF-8"?>
<svg xmlns="http://www.w3.org/2000/svg"
     version="1.1"
     width="23.93528204mm"
     height="19.62036934mm"
     viewBox="0.00000000 0.00000000 67.84800939 55.61674239">

<g transform="scale(4.25546386)">   <defs>
      <style type="text/css"><![CDATA[
      .b {
        stroke: #000;
        stroke-linecap: round;
        stroke-linejoin: round;
        stroke-width: .01px;
      }
    ]]></style>
   </defs>
   <path class="b"
         d="M8.28453,7.57299c-1.39699.11822-2.92874-.00597-1.90506-1.47948.84341-1.21395,2.81847-1.16819,4.04641-1.84275.55535-.30508,1.15588-.42999,1.18347-1.10988.02384-.58766-.4739-1.51057-.76597-2.02982-1.24208-2.20821-2.69766-.61997-4.03019.54039-1.40341,1.22207-3.28522,1.47014-4.479,2.90087C1.42739,5.63911-.66908,7.92478.22019,9.45187c.5437.93365,2.1642,1.28047,3.15061,1.47465,1.30209.25632,2.67008.03916,3.98393.17121,1.43515.14424,3.01265.27846,4.11094,1.22411.46085.3968.65747.85904,1.26277.7161.39058-.09223.78167-.42851,1.18443-.5589.5195-.16819,1.24121-.19103,1.6575-.58456,1.19571-1.13035-.84218-2.69995-1.53845-3.45787-1.12306-1.22252-2.52211-1.31472-4.11789-1.08024-.30769.04521-.95279.15936-1.62951.21662h.00001Z"/>

</g>
</svg>
