<?xml version="1.0" encoding="UTF-8"?>
<svg xmlns="http://www.w3.org/2000/svg"
     version="1.1"
     width="11.93648515mm"
     height="52.41153896mm"
     viewBox="0.00000000 0.00000000 33.83566743 148.56815216">

<g transform="scale(4.98973131)">   <defs>
      <style type="text/css"><![CDATA[
      .a {
        stroke: #000;
        stroke-linecap: round;
        stroke-linejoin: round;
        stroke-width: 0.01px;
      }
    ]]></style>
   </defs>
   <path class="a"
         d="M3.93593.04667c-.05451.00605-.15142.109-.212.2241a.62531.62531,0,0,1-.15142.212c-.02423,0-.09691.09086-.16354.19382a4.16875,4.16875,0,0,1-.72077.8722,3.49893,3.49893,0,0,0-.50878.636,1.81,1.81,0,0,1-.19988.32708,2.37508,2.37508,0,0,0-.25439.32707A2.62981,2.62981,0,0,1,.72577,3.814C.2715,4.00788.005,4.2865.005,4.56512c0,.13931.03028.23622.09085.25439A.23317.23317,0,0,1,.217,4.95882c.06057.19382.39976.321.79951.28467a1.68069,1.68069,0,0,0,.49667-.09085.14306.14306,0,0,1,.20164.01648l.01036.01381c.12114.12113.1272.08479-.08479.50878a2.19685,2.19685,0,0,0-.18171.44821,2.1801,2.1801,0,0,1-.17565.46032A1.95873,1.95873,0,0,0,1.1013,7.91459a1.49039,1.49039,0,0,0,.66626.745.94651.94651,0,0,1,.35736.39976.92407.92407,0,0,0,.23622.32707,1.16323,1.16323,0,0,1,.19382.4361,8.32151,8.32151,0,0,1,.18171,2.56207c.006.38764-.06663,2.24712-.09691,2.46516a.82692.82692,0,0,0,.01817.38765.44235.44235,0,0,1,0,.3089.69074.69074,0,0,0,.006.39975,3.34345,3.34345,0,0,1,.05452,1.20533.61846.61846,0,0,0,.04239.36947,1.018,1.018,0,0,1,.00606.67838,2.77816,2.77816,0,0,1-.11508.43609.90912.90912,0,0,0,.11508.36947c.16354.37553.15142.50273-.07268.62387-.20594.103-.27256.28467-.218.5754a7.81473,7.81473,0,0,1,.02423,1.03573c-.01212.44216.01211,1.07208.0424,1.41126.06056.5633.05451.62387-.06057.84191a2.9824,2.9824,0,0,0-.26045,1.29013,1.57454,1.57454,0,0,1-.0848.90853,3.5,3.5,0,0,0-.13325.80557c-.01211.66626-.03634.79951-.13931.957a2.32425,2.32425,0,0,0-.18776,1.00545c.00605.20594.14536.41187.533.79346.18776.18776.39975.25439.53906.16959.09691-.04846.40581.05451.40581.13325a.63616.63616,0,0,0,.26651.14537c.19988.07874.30284.08479.38764.0424a.51421.51421,0,0,1,.23016-.05452,3.84016,3.84016,0,0,0,1.10236-.32707A2.02259,2.02259,0,0,1,5.535,29.138a.86269.86269,0,0,0,.28467-.1817,2.44324,2.44324,0,0,1,.33313-.38764,2.06459,2.06459,0,0,0,.33313-.39976.58146.58146,0,0,1,.15143-.22411.42432.42432,0,0,0,.12719-.41187c-.01211-.13325-.02423-.3089-.03028-.38158-.00606-.15142-.35736-.38764-.62386-.41793a1.40509,1.40509,0,0,1-.3998-.14541,4.719,4.719,0,0,0-.55724-.212,1.42705,1.42705,0,0,1-.533-.27256c-.18777-.16959-.19383-.19382-.16354-.52089a1.68606,1.68606,0,0,1,.103-.46638,1.094,1.094,0,0,0,.08479-.27256,2.29013,2.29013,0,0,1,.109-.424,5.23177,5.23177,0,0,0,.15142-.73894c.03634-.24833.09691-.62992.1272-.84191a1.03988,1.03988,0,0,0,0-.49061c-.0424-.07874-.03029-.17565.03028-.33313a.80842.80842,0,0,0,.03634-.56329,1.6233,1.6233,0,0,1-.01211-.5633,1.97276,1.97276,0,0,0,.01817-.54512c-.01212-.18171-.02423-.37553-.02423-.4361.00606-.05451.01211-.13931.01211-.1817.00606-.06663-.02422-.3513-.08479-.8722a.90544.90544,0,0,0-.07269-.2665,2.05827,2.05827,0,0,1,.09086-1.07813,1.15534,1.15534,0,0,0,.14536-.98122,10.22807,10.22807,0,0,1-.109-1.41732c-.01211-.56935-.0424-1.15081-.06057-1.30223a.89448.89448,0,0,1,.05451-.50879.521.521,0,0,0,.06057-.28467.27708.27708,0,0,1,.03029-.16959c.04845-.0848.04845-.12114,0-.13931a1.97673,1.97673,0,0,1-.07874-.77529,4.76607,4.76607,0,0,0-.0848-.91459c-.17565-.4361-.00606-1.75045.23016-1.75045.03634,0,.06057-.03634.06057-.08479a.57888.57888,0,0,1,.1272-.24228.3289.3289,0,0,0,.08479-.27256c-.03028-.109.09086-.30285.3513-.53907a.38117.38117,0,0,0,.103-.2241c0-.14537.1272-.33919.44216-.66626.218-.23016.23016-.26651.25439-.69655A1.04738,1.04738,0,0,0,6.383,5.59476a.47739.47739,0,0,1-.13931-.20594c0-.06663-.07269-.16354-.24834-.3513a3.83949,3.83949,0,0,0-.49061-.34524c-.62991-.38159-.854-.95094-.41187-1.03574a.65069.65069,0,0,0,.27862-.15142,3.31557,3.31557,0,0,0,.43-.98122c.07874-.43-.32707-.67232-.81768-.47849a.45294.45294,0,0,1-.25439.04239c-.03028-.01817-.12114.00606-.20594.06057-.13325.0848-.15142.0848-.24227,0a.3723.3723,0,0,1-.09691-.13325,2.69422,2.69422,0,0,1,.43-.69654A1.39037,1.39037,0,0,0,4.88687.6039a.373.373,0,0,0-.0848-.315C4.74756.23443,4.66276.14358,4.62037.09512A.95621.95621,0,0,0,3.93593.04667Z"/>

</g>
</svg>
