<?xml version="1.0" encoding="UTF-8"?>
<svg xmlns="http://www.w3.org/2000/svg"
     version="1.1"
     width="35.71298987mm"
     height="53.08159653mm"
     viewBox="0.00000000 0.00000000 101.23367670 150.46744039">

<g transform="scale(4.50476232)">   <defs>
      <style type="text/css"><![CDATA[
      .a {
        stroke: #000;
        stroke-linecap: round;
        stroke-linejoin: round;
        stroke-width: 0.01px;
      }
    ]]></style>
   </defs>
   <path class="a"
         d="M5.21394.12614C5.19577.19276,5.14737.24728,5.117.24728s-.05451.05451-.05451.11508A1.389,1.389,0,0,1,4.72937.8348c-.533.56329-.56329.60569-.50878.69048.04846.07874-.09085.41793-.17565.41793-.06057,0-.25439.3937-.25439.51484a.328.328,0,0,1-.09085.17565.55853.55853,0,0,0-.12114.28467.63548.63548,0,0,1-.109.29074.68137.68137,0,0,0-.08479.68443c.06057.14536.07268.24227.03028.315a.27084.27084,0,0,0-.01211.20593,5.73169,5.73169,0,0,1,.14536.98122c0,.04846,0,.18776.00606.30285,0,.11508.00606.43.00606.69654-.00606.2665,0,.58146,0,.69654s-.00606.33313-.00606.48456a1.999,1.999,0,0,0,.05451.46032,2.451,2.451,0,0,1,.09086.321,1.6359,1.6359,0,0,0,.06662.26045,7.34358,7.34358,0,0,1,.0848,1.10841v.29679a1.03823,1.03823,0,0,1-.0848.33313,1.2383,1.2383,0,0,0-.19988.59358c.02423.01817.01212.08479-.02422.14536-.0424.0848-.03029.1696.04239.30285a2.2263,2.2263,0,0,1,.09086,1.12658.21587.21587,0,0,0,.00605.218.22667.22667,0,0,1-.03028.24834.206.206,0,0,0-.03028.24227,2.06363,2.06363,0,0,1,.12719.76317c.01817.15143.0424.35736.06663.46638.03634.15143.01817.218-.07874.29679-.0848.07874-.103.13326-.06663.20594.03029.06057.0424.12114.02423.13931s.00606.09691.06057.17565a.51545.51545,0,0,1-.06057.67231l-.15748.14537.09691.35736a5.64,5.64,0,0,1,.12719.6178.71433.71433,0,0,0,.1272.35736.21023.21023,0,0,1,.04846.212,2.81845,2.81845,0,0,0-.06057.40582c-.01212.15143-.04846.48456-.0848.73288a4.19061,4.19061,0,0,0-.05451.99939v.90854c-.00606.33313-.00606.6602,0,.72683.01211.13325,0,.92065-.01212,1.21138a2.70643,2.70643,0,0,0,.06663.87825,2.109,2.109,0,0,1,.00606,1.07813,3.5836,3.5836,0,0,0-.04846,1.34465,2.37132,2.37132,0,0,1-.04845.82979.47561.47561,0,0,0-.05452.21805.77878.77878,0,0,1,.0848.218c.0424.15748.03028.218-.06663.315s-.16959.11508-.41187.07874a.75879.75879,0,0,0-.49061.06662.57.57,0,0,1-.37552.06663,4.10237,4.10237,0,0,0-1.76863.4906c-.17565.15142-.20594.321-.13325.72077.04239.23017.02422.27256-.15748.4785a.70082.70082,0,0,0-.20594.44821,1.317,1.317,0,0,1-.11508.55118.52713.52713,0,0,0,.09085.29679,1.15163,1.15163,0,0,1,.12114.33918.09316.09316,0,0,0,.09086.09086c.12113,0,.38158.29679.46032.527.0424.14536.09691.19988.19382.19382a1.76741,1.76741,0,0,1,.71472.13325,1.94781,1.94781,0,0,0,.527.103c.33313.01817.40581.00606.50272-.103.109-.11508.29679-.11508.29679,0,0,.03029.06663.05451.15142.05451a1.36048,1.36048,0,0,1,.3937.09691.95024.95024,0,0,0,.5209.06057.78161.78161,0,0,1,.527.09691,1.08035,1.08035,0,0,1,.27256.18171.15657.15657,0,0,0,.12719.04845.533.533,0,0,1,.23017.09085.56329.56329,0,0,0,.34524.07269.75023.75023,0,0,1,.46638.11509,3.11509,3.11509,0,0,0,1.47789.34524c.2665-.00606.963-.01211,1.54451-.01211.58146-.00607,1.32041.006,1.63537.03028.315.01817.73894.03634.93882.03028.4361-.01211.72077-.01211.86614-.006.05451,0,.43-.03634.82374-.0848a6.10007,6.10007,0,0,1,.76317-.06663,14.473,14.473,0,0,0,2.57418-.07874c1.33858-.14536,1.64143-.14536,2.017.01212a3.7286,3.7286,0,0,0,.56935.18171.67456.67456,0,0,1,.30891.12718c.1817.18171.47849.13326.73894-.12113.16959-.15748.20593-.23016.16354-.3089-.03635-.06664-.01817-.19382.06662-.3937.13931-.321.09691-.29679.84191-.47849.22411-.06057.29679-.109.35736-.24834a.49256.49256,0,0,1,.18776-.24227c.06663-.03635.103-.103.0848-.14537-.01817-.04846.06057-.19988.16959-.34524.22411-.29679.34525-.6057.28468-.70866a.80383.80383,0,0,1-.02423-.33313c.01817-.22411.00606-.27256-.12114-.35736-.218-.13931-.3513-.29073-.315-.34524.01817-.03029-.02422-.06663-.09085-.09086-.06663-.01817-.12114-.06662-.12114-.09691s-.12719-.11508-.28467-.18171c-.3089-.13325-.38764-.212-.33919-.33313.01817-.04845-.06057-.11508-.20593-.17565a1.03878,1.03878,0,0,1-.29074-.16959c-.16353-.19988-.5754-.36341-.5754-.23016,0,.03028-.13325.103-.29073.15142a.61259.61259,0,0,1-.4785.03029.40147.40147,0,0,0-.30285-.00606.21651.21651,0,0,1-.218.00606.23131.23131,0,0,0-.218,0,.16516.16516,0,0,1-.15143.02422.7819.7819,0,0,0-.33918.1272,3.971,3.971,0,0,1-1.0963.39975c-.13326,0-.44821-.29678-.50273-.46638-.02422-.07874-.13325-.14536-.29679-.19382-.1393-.0424-.36341-.12719-.49666-.18171a1.85534,1.85534,0,0,0-.636-.12113c-.52695-.01212-.56329-.03029-.71471-.29679a1.39,1.39,0,0,0-.24834-.32708.34637.34637,0,0,1-.12719-.218.284.284,0,0,0-.06663-.17565.77485.77485,0,0,1-.09085-.29678,2.63216,2.63216,0,0,0-.12114-.49061.57.57,0,0,1-.0424-.424,1.41188,1.41188,0,0,0,.0424-.41187c-.06057-.93276-.06057-1.01756.04846-1.12053a.73624.73624,0,0,0,.1393-.3937,2.48934,2.48934,0,0,0,0-.848c-.02422-.19988-.04239-.424-.04239-.50273.00605-.07268.00605-.16959.01211-.212,0-.03634-.01817-.17565-.03634-.30284a.498.498,0,0,1,.05451-.36342.23515.23515,0,0,0,.0424-.2241.29312.29312,0,0,1-.00606-.20594.352.352,0,0,0-.06662-.3089.87505.87505,0,0,1-.109-.33919,3.82414,3.82414,0,0,0-.01817-.41792,1.52058,1.52058,0,0,1,.01817-.424,1.12266,1.12266,0,0,0-.109-.54512,3.05639,3.05639,0,0,1-.1696-.7874,2.15248,2.15248,0,0,0-.14536-.90248.993.993,0,0,1-.05478-.38768,2.02765,2.02765,0,0,0-.06663-.527c-.04846-.15142-.09085-.315-.103-.36342a1.843,1.843,0,0,0-.27862-.81768,1.18086,1.18086,0,0,1-.16353-.29073c0-.02423-.11508-.27862-.24834-.56935a2.27187,2.27187,0,0,1-.26044-.77529.65487.65487,0,0,0-.103-.36947,4.6361,4.6361,0,0,1-.2665-.38158,3.1365,3.1365,0,0,0-.82374-.89037,1.89088,1.89088,0,0,0-.77529-.06662l-.61175.01211-.12719.27256A6.33528,6.33528,0,0,1,8.533,13.5421c-.36341.38765-.54512,1.06-.32707,1.21744.09691.07269.14536.43.13325,1.00545a1.45,1.45,0,0,0,.15748.7026.557.557,0,0,1,.11508.24833c.02423.11509.11508.20594.30285.30891.30284.15748.41792.315.36947.49666a.39307.39307,0,0,0,.04845.25439.89159.89159,0,0,1,.0848.39976c0,.15142.00606.46033.01211.69654,0,.23017-.006.642-.01211.90854-.01817.38159,0,.5209.0848.642a.33813.33813,0,0,1,.04845.33919.401.401,0,0,0-.01817.23016.78411.78411,0,0,1,.05451.321c.01817.44821.24834,1.16293.36947,1.16293.109,0,.212.30284.23622.67231.01817.32708.00606.424-.08479.51484-.07874.07268-.109.20594-.11508.44216-.00606.19382-.03635.34524-.07269.35735a.1114.1114,0,0,0-.07268.103.30885.30885,0,0,1-.09085.17565.14775.14775,0,0,0-.03474.20605l.00445.00595a.65188.65188,0,0,1,.04846.29679.80508.80508,0,0,0,.12719.39369.56768.56768,0,0,1,.07874.533c-.04845.25439-.0424.33313.02423.40581.103.09691.06057.41793-.07874.69655a.75887.75887,0,0,0-.04846.43609c.03635.218.01817.28468-.08479.38765a.43008.43008,0,0,1-.24228.12719c-.06663,0-.12719.01816-.13931.0424a.78131.78131,0,0,1-.2241.19381,1.08619,1.08619,0,0,1-.636.16354,3.4021,3.4021,0,0,0-.6178.09086c-.22411.06662-.36948.02422-.41793-.12719a.245.245,0,0,0-.15748-.15143c-.14537-.04846-.30285-.34524-.24228-.44821a.92634.92634,0,0,0,.02423-.35737,7.21782,7.21782,0,0,1,.01817-1.62324.39811.39811,0,0,0,.01817-.27256,4.43007,4.43007,0,0,1-.01211-.84191c.01211-.41793.03028-1.07207.03634-1.45971a3.40108,3.40108,0,0,1,.07268-.7874,25.29944,25.29944,0,0,0,0-3.20411c-.01211-.315-.02423-.7026-.02423-.86008a.94839.94839,0,0,0-.09691-.4361.85092.85092,0,0,1-.08479-.50272,2.50778,2.50778,0,0,0-.06057-.62386,4.88126,4.88126,0,0,1-.09691-.75106,3.14528,3.14528,0,0,0-.1272-.745.52663.52663,0,0,1-.02422-.49061,2.89742,2.89742,0,0,0,.15747-.98122,4.35624,4.35624,0,0,1,.09086-.7026,4.89413,4.89413,0,0,0,.01817-1.12053c-.02423-.47849-.0424-1.33858-.04846-1.90187a6.99,6.99,0,0,0-.05451-1.066,1.0747,1.0747,0,0,1-.02423-.68444A1.09006,1.09006,0,0,0,6.92187,7.891a4.0844,4.0844,0,0,1-.07874-.90854c-.01211-.45427-.03634-.99333-.05451-1.19321-.02411-.19978-.03625-.51474-.03625-.69645a2.101,2.101,0,0,0-.06057-.527,2.29372,2.29372,0,0,1-.06057-.56935,5.8298,5.8298,0,0,0-.18171-1.29618c-.03028-.16959-.07268-.36947-.09085-.45426A2.71033,2.71033,0,0,0,6.292,1.94316a6.10163,6.10163,0,0,1-.04845-.72683C6.22545.34419,6.00137.005,5.45622.005,5.3048.005,5.24423.03528,5.21394.12614Z"/>

</g>
</svg>
