<?xml version="1.0" encoding="UTF-8"?>
<svg xmlns="http://www.w3.org/2000/svg"
     version="1.1"
     width="46.53536496mm"
     height="9.86410783mm"
     viewBox="0.00000000 0.00000000 131.91122650 27.96133901">

<g transform="scale(5.79267105)">   <defs>
      <style type="text/css"><![CDATA[
      .b {
        fill: #000;
        fill-rule: evenodd;
        stroke: #000;
        stroke-miterlimit: 2.61313;
        stroke-width: .28346px;
      }
    ]]></style>
   </defs>
   <path class="b"
         d="M1.21578,3.60858C-.02946,4.14941-.19194,2.88831.72847,2.58667c1.86328-1.55536,3.98364-1.82861,6.28052-1.22455,1.58765-.2926,3.37476-.38977,5.25171-.39807.87476-.39087,2.44495-.39447,4.3313-.22278,1.35303-.47021,2.70691-.56128,4.06067-.59778,1.52026,1.7674,2.69543,3.42957,1.46179,4.36511-.74011.37097-.97473.15784-.70386-.64014-.25281-.05042-.50537-.10114-.75793-.15161-.16272-.39514-.46936-.57117-.92029-.52869-.64978-.06287-1.29956-.1261-1.94922-.18933-5.52246.20325-11.42395.84497-16.56738.60974h0Z"/>

</g>
</svg>
