<?xml version="1.0" encoding="UTF-8"?>
<svg xmlns="http://www.w3.org/2000/svg"
     version="1.1"
     width="60.82251085mm"
     height="54.94309564mm"
     viewBox="0.00000000 0.00000000 172.41025213 155.74419107">

<g transform="scale(3.49229315)">   <defs>
      <style type="text/css"><![CDATA[
      .b {
        stroke: #000;
        stroke-linecap: round;
        stroke-linejoin: round;
        stroke-width: .01px;
      }
    ]]></style>
   </defs>
   <path class="b"
         d="M48.16456.36107c-.32813.20703-.81641.55859-1.08203.78516-.26953.22266-.91016.71094-1.4375,1.08594-.52344.375-1.13672.84766-1.36328,1.06641-.23047.20703-.64453.54297-.93359.75781-.90625.65625-1.6875,1.26563-2.06641,1.60938-.19922.17578-.38281.32813-.41406.32813s-.25781.17578-.50391.39063c-.25.21484-.6875.51953-.98438.67969-.67969.36719-.74219.41797-1.00781.83203-.13672.21875-.32031.38672-.51172.46484-.16016.07031-.42578.19922-.57813.28125-.15234.08594-.55078.29297-.87891.46094-.33594.17969-.67969.42578-.78516.5625-.09375.13672-.40625.35938-.67969.49609-.69531.35156-1.13281.6875-1.36719,1.03906-.15234.21484-.3125.34375-.64063.46484-.38281.14453-1.59766,1.00781-2.19141,1.56641-.12109.11328-.58984.50391-1.0625.86328-.46484.36328-1.14453.89844-1.51953,1.1875-.91406.71875-1.61719,1.20703-2.19531,1.51953l-.47656.25391-1.04297-.10156c-1.62109-.15234-1.95703-.21875-2.29297-.44141-.37891-.25-.69922-.69531-1.20313-1.66406-.35156-.66406-.38281-.77734-.38281-1.27344,0-.39844.05469-.67188.19141-1.01563.20703-.47266,1.16016-1.80859,1.96094-2.72656,1.09766-1.25781,1.16016-1.41016.83984-1.87891-.75-1.12109-1.41406-1.72266-1.91797-1.72266-.28906,0-1.08984.49609-1.3125.81641-.09766.14453-.36328.41016-.57813.58594s-.56641.55859-.78516.84766c-.22266.29688-.52734.61328-.67969.71875s-.51953.51172-.81641.90234c-.29297.39453-1,1.16797-1.55859,1.73047-.91016.90234-1.05469,1.07813-1.33594,1.6875-.35938.75-.60938,1.03125-2.58203,2.89453-.83203.78516-1.22656,1.21875-1.35156,1.48047-.21094.43359-.73828,1.15234-1.11328,1.49609-.14453.12891-.39453.44141-.54297.67969-.16016.24219-.44141.60156-.625.80078-.54297.58594-2.70312,3.44922-3.46484,4.59375-.14453.22266-.38281.53516-.52734.6875s-.34375.4375-.44141.64063c-.09375.19922-.3125.50391-.48047.67969-.35938.39063-.84766,1.26172-1.04688,1.87109-.07031.24609-.23047.67188-.35156.94531-.11328.26953-.23828.70313-.28906.95703-.14453.76953-.41406,1.12891-.98438,1.32031-.36719.12109-.58984.39453-.6875.83203-.19922.83984.00781,3.05859.36719,4.01562.35547.9375,1.625,2.11328,2.59375,2.39453.23828.07031.81641.28516,1.28125.48828l.83984.36719h1.64063c1.49219.00781,1.67969-.00781,2.07812-.16797.23828-.09766.64063-.22656.88672-.29688.32031-.08594.60156-.25391,1.00781-.60156.73047-.60547.80859-.64453,1.36328-.64453.49609,0,.86328.13281,1.61328.58984.25.15234.64844.35156.89063.44141.44531.17578.56641.25391,1.64453,1.08594,1,.77734,1.48047,1.08203,2.07422,1.33594.625.26563.69531.29688,1.42188.73828.42578.25391.55469.38281.70703.69531.28516.63281.46875.75,1.10938.75.48047,0,.58594-.02344.90625-.25391.19141-.14453.83984-.49609,1.42188-.78516.89063-.42969,1.17578-.53516,1.6875-.59766.42578-.05078.76172-.15234,1.07422-.32031.24609-.12891.57422-.24219.72656-.24219s.38672-.0625.52734-.13672c.28125-.14063.69922-.22266,1.77734-.33594.39844-.03906.86328-.125,1.03125-.19922.16797-.07031.41797-.12891.54297-.12891.12891,0,.37109-.07031.54688-.16016.17578-.08594.38281-.16016.48047-.16016.08594,0,.3125-.13281.50391-.30078.18359-.16797.46875-.39453.63672-.48828.39453-.24219.47266-.45703.37891-.98438-.12891-.67188-.22656-.71094-1.43359-.66406-.55078.03125-1.16016.08594-1.34375.13672-.23828.05469-.40625.05469-.625-.01563-.18359-.06641-.46875-.08203-.78125-.05078-.32813.04297-.69922.01563-1.08203-.07031-.32031-.06641-.70313-.12109-.83984-.12109-.14453,0-.45703-.09375-.69531-.20703s-.67969-.28906-.96875-.39063c-.28906-.10547-.74219-.32813-1-.50781-.25391-.17578-.84766-.50391-1.30469-.72656-.6875-.33594-.91016-.40625-1.25391-.40625-.36719,0-.55469-.06641-1.35938-.49609-1.12109-.60156-1.64063-1.05078-1.95313-1.66406-.30469-.60156-.60938-.84766-1.12109-.92188-.36719-.04688-.46484-.03125-.89453.19141-.26563.14453-.70313.42578-.98438.63281-.46484.34375-.79297.57031-1.54297,1.03125-.16016.09766-.51953.23438-.80859.30469-.28906.07422-.6875.22656-.87891.33594-.51563.29688-1.81641.74609-2.1875.74609-.44531,0-1.26172-.22656-1.62891-.44141-.16797-.10547-.63281-.35938-1.03516-.56641-.39063-.21094-.94922-.5625-1.23828-.78516-.67969-.53516-1.51953-1.44141-1.51953-1.64844,0-.08984.23047-.49609.51172-.91016.28125-.41797.6875-1.07422.89453-1.46484.21094-.38672.51172-.89063.67969-1.10547.16016-.22266.41016-.625.54688-.89453.13281-.27344.41406-.70313.62891-.96094.21875-.25781.45703-.57422.54688-.70313.13672-.22656.50391-.69531,1.10938-1.47266.57813-.72656.90625-1.18359,1.04297-1.44922.07813-.15234.28516-.46484.46875-.67969.1875-.22266.42578-.52734.53125-.67969.10156-.15234.38281-.48828.61328-.74219.23438-.25781.42578-.50391.42578-.54688,0-.21484,1.56641-1.67188,1.80078-1.67188.19141,0,1,.73047,1.16016,1.05078.08594.17578.32031.42188.50391.55859.39844.28906.67188.63281.92578,1.17578.22656.47266.19141.69531-.14453,1.02344-1.08594,1.08984-1.19922,1.42578-.65625,1.96094.40234.39844.64063.39844,1.39453.02344.32031-.16797.75781-.38281.97656-.49609.22266-.10547.67188-.45703,1-.77734.76563-.73438.98438-.8125,1.92578-.67969.40234.05859.90625.08203,1.17578.05078.66406-.07422,1.64063-.44141,2.03906-.76953.875-.69531,2.05078-2.82422,2.25781-4.08594.03125-.19531.10547-.44141.16016-.5625.12891-.23047.61719-.69531,1.23828-1.16797.24219-.18359.60938-.47266.81641-.64063.21094-.16797.57031-.45313.80078-.64844.23438-.18359.58594-.48828.78516-.66406s.80859-.64453,1.35938-1.04688c.55078-.39844,1.28906-.98438,1.64063-1.29688.35156-.32031.90234-.71094,1.23828-.87891.32813-.16797.77734-.44141,1-.60156.21875-.16797.61719-.42188.88281-.56641.26172-.15234.66406-.44141.87891-.64063.22266-.20703.59766-.50391.84766-.66406.23828-.16016.625-.46484.83984-.67188.47266-.44531.92969-.81641,1.23047-.98438.27344-.15234,1.41016-1.03906,1.97656-1.54297.24219-.21484.64063-.51172.89063-.67188.24609-.16016.56641-.39063.70313-.51953.14453-.13672.58984-.41016,1-.60938.66406-.33594.78125-.42188.99219-.77344.22266-.37891.59766-.77734,1.51172-1.63281.60547-.57813.84766-1,.84766-1.49609,0-.77734-.3125-.85547-1.19922-.30469Z"/>

</g>
</svg>
