<?xml version="1.0" encoding="UTF-8"?>
<svg xmlns="http://www.w3.org/2000/svg"
     version="1.1"
     width="46.56757221mm"
     height="10.90470325mm"
     viewBox="0.00000000 0.00000000 132.00251900 30.91090919">

<g transform="scale(5.79267105)">   <defs>
      <style type="text/css"><![CDATA[
      .b {
        fill: #000;
        fill-rule: evenodd;
        stroke: #000;
        stroke-miterlimit: 2.61313;
        stroke-width: .28346px;
      }
    ]]></style>
   </defs>
   <path class="b"
         d="M.15317,5.18395c.1261-1.73517,1.40723-2.55914,3.84412-2.47296.3407-.71375,1.31604-.55554,2.3822-.27264,2.41821-.92328,7.32703-.98505,10.99072-1.72125,2.58411-.23779,4.7262-1.12732,5.20386-.06665.09351.59216.25745,3.89648-.72314,4.38489.01733-.5589-.1499-1.15332.01306-1.71716-.48499-.01929-.99109-.01953-1.51367-.00598-.54431.73083-5.58374.38843-9.09802.79773-1.19116.34442-2.38257.46252-3.57349.08447-2.50854.45667-5.01782.82233-7.52563.98956H.15317Z"/>

</g>
</svg>
