<?xml version="1.0" encoding="UTF-8"?>
<svg xmlns="http://www.w3.org/2000/svg"
     version="1.1"
     width="129.12705570mm"
     height="66.16368995mm"
     viewBox="0.00000000 0.00000000 366.02948075 187.55060654">

<g transform="scale(5.40924245)">   <defs>
      <style type="text/css"><![CDATA[
      .a {
        stroke: #000;
        stroke-linecap: round;
        stroke-linejoin: round;
        stroke-width: 0.01px;
      }
    ]]></style>
   </defs>
   <path class="a"
         d="M63.16249.0461c-.19988.0848-.30891.20594-.57541.59358a4.37017,4.37017,0,0,1-.38159.47849,2.49062,2.49062,0,0,0-.25439.29679.60853.60853,0,0,1-.38158.18777,1.19556,1.19556,0,0,0-.54512.26044c-.321.26045-.66021.40582-.78135.33313-.06662-.03634-.14536,0-.2665.13326a1.59016,1.59016,0,0,1-.8298.44215,1.77648,1.77648,0,0,0-.52089.22411,1.12967,1.12967,0,0,1-.51484.17565.64093.64093,0,0,0-.55723.3937.22269.22269,0,0,1-.212.109c-.103-.00606-.18776.04846-.29678.20594-.19382.27256-.33313.424-.41793.44821-.0424.01817-.04846.109-.02423.25439.02423.1817.05451.2241.13325.18776.24834-.103.30891-.0848.527.12114a.88773.88773,0,0,0,.30284.218.92985.92985,0,0,1,.27863.14536,1.2812,1.2812,0,0,0,.44821.17565c.30285.04846.54512.09086.81768.13931a.50494.50494,0,0,0,.38159-.06662c.15142-.103.15748-.103.34524.09691a1.26114,1.26114,0,0,1,.35736.72077c0,.23622-.79951.93882-.92671.81163-.01817-.01817-.09691,0-.16959.04239a1.71492,1.71492,0,0,1-.56935.07269,1.35,1.35,0,0,0-.66626.12114c-.49667.24833-.82374.23621-1.0539-.0424-.09086-.103-.36947-.13326-.36947-.03634,0,.12113-.22411.1817-.41187.109a.4032.4032,0,0,0-.38765.01817c-.22409.109-.39975.06057-.80557-.212a.81658.81658,0,0,0-.533-.15142,4.92882,4.92882,0,0,1-1.31435-.16354c-.46033-.13931-.7874-.15142-.93277-.04846a.65334.65334,0,0,1-.642-.006c-.24833-.1272-.321-.28468-.20594-.44216.04845-.07268.07268-.16353.05452-.19382-.04846-.07874.533-.66626.66019-.66626.05451,0,.13325-.07268.18171-.16959a2.31574,2.31574,0,0,1,.3937-.424,1.32156,1.32156,0,0,0,.52077-1.19318,2.11738,2.11738,0,0,1,.0848-.62992c.09691-.17565.109-.81162.01817-.84191a2.39235,2.39235,0,0,1-.27256-.15748.801.801,0,0,0-.71472-.16353.4921.4921,0,0,1-.33309-.01816,1.50915,1.50915,0,0,0-.92671,0,.50331.50331,0,0,1-.39369.03028c-.23017-.07874-.30285-.06662-.636.109a1.79082,1.79082,0,0,1-.60569.16353c-.18777.01212-.41793.03634-.5209.05451A2.72163,2.72163,0,0,0,47.6386,2.59a1.15852,1.15852,0,0,1-.36947.15748,1.08116,1.08116,0,0,0-.38764.26045,6.62165,6.62165,0,0,1-.98122.76923.40828.40828,0,0,0-.12719.16353,1.92278,1.92278,0,0,1-.44821.41793c-.69049.49061-1.06.8298-1.06.96305,0,.19382.36947.07268,1.6293-.533a2.05351,2.05351,0,0,1,.3937-.14536,3.51621,3.51621,0,0,1,1.01756.04845,1.08235,1.08235,0,0,0,.27257.0424.45409.45409,0,0,1,.17565.03028.412.412,0,0,0,.33313-.07268c.20593-.12114.28467-.12114,1.26589-.04845a1.30268,1.30268,0,0,1,.39976.09085c.07268.03634.14536.05451.16353.03634.05452-.05451.38765.14537.43.25439.06663.18171-.24833.56329-.80557.97516a.35592.35592,0,0,0-.03634.15748.97183.97183,0,0,1-.88431.72683.74474.74474,0,0,0-.39369.212c-.15143.15143-.27257.19383-.78135.28468a1.73325,1.73325,0,0,1-.75711.04845c-.1272-.04845-.218-.03634-.424.07269a.838.838,0,0,1-.36948.109,4.93439,4.93439,0,0,0-1.36886.642c-.09085.07269-.24833.19383-.3513.26651-.09691.07268-.48455.43-.854.79951a8.1848,8.1848,0,0,1-1.21138,1.0539,1.67276,1.67276,0,0,0-.3513.62386,1.26277,1.26277,0,0,1-.36341.44216,1.30088,1.30088,0,0,0-.36342.41793,1.341,1.341,0,0,1-.3937.41792c-.41793.32708-.71472.69049-.71472.854a.30555.30555,0,0,1-.13325.212,6.73785,6.73785,0,0,0-.73894.73894,1.356,1.356,0,0,0-.23622.35736.57481.57481,0,0,1-.18171.24228.1492.1492,0,0,0-.07874.1817c.02423.0848-.03634.18171-.19988.33919-.13325.11508-.33919.3089-.46032.43a.922.922,0,0,0-.23017.2665c0,.103-.6602.73289-.72683.69049-.03634-.01817-.15142.03029-.26044.12114-.103.0848-.26045.212-.34525.27256-.29073.23016-.68443.57541-.854.745a3.9186,3.9186,0,0,1-.93882.64809.12466.12466,0,0,0-.103.07874.67988.67988,0,0,1-.26045.19382,1.46091,1.46091,0,0,0-.36341.27256,3.15575,3.15575,0,0,1-.99939.56935.97984.97984,0,0,0-.321.28468.77769.77769,0,0,1-.59357.3937,1.21367,1.21367,0,0,0-.41793.17565.78292.78292,0,0,1-.27256.14536c-.11508-.03028-.36947.15143-.56329.39976a1.12054,1.12054,0,0,1-.48456.36947,4.054,4.054,0,0,0-.51484.24833,2.37648,2.37648,0,0,1-.46638.23017,8.46788,8.46788,0,0,0-1.45366.79345.92388.92388,0,0,1-.51483.26651.36242.36242,0,0,0-.212.14536,1.75651,1.75651,0,0,1-.89037.35736.33311.33311,0,0,0-.19383.07268,2.70242,2.70242,0,0,1-.424.23622l-.48455.24228a7.27456,7.27456,0,0,1-1.23561.39975.14466.14466,0,0,0-.11508.09086,3.909,3.909,0,0,1-1.22349.60569c-.19988.05451-.61781.19988-.92671.3089a4.05921,4.05921,0,0,1-.66626.20594.53435.53435,0,0,0-.27256.18776c-.11508.1272-.19382.17565-.27862.14537a.52173.52173,0,0,0-.315.08479,2.03059,2.03059,0,0,1-.75106.21805,2.14579,2.14579,0,0,0-.957.46638,5.02166,5.02166,0,0,1-.4361.36947.466.466,0,0,1-.44821.12114,1.24959,1.24959,0,0,0-.9691.13326.87788.87788,0,0,1-.36948.15142.386.386,0,0,0-.23621.08479,2.74943,2.74943,0,0,1-1.1387.39976,1.29768,1.29768,0,0,0-.854.36947.80545.80545,0,0,1-.58146.21805.80025.80025,0,0,0-.37553.12114,1.975,1.975,0,0,1-.848.19988,2.01308,2.01308,0,0,0-.90853.23016,3.059,3.059,0,0,1-1.175.37553,1.93466,1.93466,0,0,0-1.05391.33313,1.4929,1.4929,0,0,1-.58146.23622,4.29671,4.29671,0,0,0-.51484.103,3.35661,3.35661,0,0,1-.62992.07874c-.24227.006-.39975.03634-.41187.07873-.04845.14537-.424.315-.83585.38159A.9966.9966,0,0,0,5.42184,30.7a1.75191,1.75191,0,0,1-.81768.27862.5412.5412,0,0,0-.26045.13931.992.992,0,0,1-.745.16354,1.0685,1.0685,0,0,0-.81768.35735,1.72708,1.72708,0,0,1-.36947.30285,1.16046,1.16046,0,0,0-.24834.18171c-.11508.103-.28467.25439-.37552.33313a.55811.55811,0,0,1-.25439.15142c-.0424,0-.09692.04845-.12114.11508a.85286.85286,0,0,1-.29073.28468,1.622,1.622,0,0,0-.27257.218,2.515,2.515,0,0,1-.37552.29679.79968.79968,0,0,0-.46033.739c-.0424.29678.07874.39975.47244.40581.27862,0,.28467-.00606.39976-.2665a.73435.73435,0,0,1,.38158-.3937,3.39259,3.39259,0,0,0,.4785-.30285,4.47128,4.47128,0,0,1,1.58085-.67837,5.2103,5.2103,0,0,0,1.53846-.56935,11.21565,11.21565,0,0,1,1.09024-.424,7.43148,7.43148,0,0,0,1.33252-.533,1.01567,1.01567,0,0,1,.40581-.11509.27935.27935,0,0,0,.19988-.04239,2.28483,2.28483,0,0,1,.8722-.26045,1.22566,1.22566,0,0,0,.36341-.04846,3.2834,3.2834,0,0,1,.56935-.07268.95676.95676,0,0,0,.38159-.06057,1.49727,1.49727,0,0,1,.6178-.29073,1.30391,1.30391,0,0,0,.39976-.15748.76827.76827,0,0,1,.35735-.1272.872.872,0,0,0,.40582-.17565,1.41382,1.41382,0,0,1,.44215-.20593,1.69471,1.69471,0,0,0,.4785-.18171,2.06309,2.06309,0,0,1,.44215-.18171,2.07519,2.07519,0,0,0,.71472-.40581.61924.61924,0,0,1,.27861-.13931,2.18847,2.18847,0,0,0,.51484-.212,1.57221,1.57221,0,0,1,.65415-.212,1.03239,1.03239,0,0,0,.51484-.15748,1.13414,1.13414,0,0,1,.70865-.15142c.59358,0,.72683-.04846.89643-.29074a.85778.85778,0,0,1,.81162-.45426,1.40293,1.40293,0,0,0,.49061-.0848.8023.8023,0,0,1,.33919-.07268.66233.66233,0,0,0,.36947-.1272,5.07409,5.07409,0,0,1,1.29012-.50878,2.04965,2.04965,0,0,0,.76317-.38158,3.56121,3.56121,0,0,1,.64809-.36948c.49667-.24833.62386-.29073.79346-.25439a.56688.56688,0,0,0,.44215-.07268,1.4716,1.4716,0,0,1,.44216-.12114c.16353-.00605.23016-.04845.35736-.23622a.85516.85516,0,0,1,.212-.23622.66838.66838,0,0,0,.29073-.109.91852.91852,0,0,1,.30284-.09085,1.67568,1.67568,0,0,0,.92065-.29679,1.75711,1.75711,0,0,1,.527-.32708,4.769,4.769,0,0,0,.61174-.32707.47544.47544,0,0,1,.23017-.11508,2.75755,2.75755,0,0,0,.58146-.32707c.27256-.17565.58752-.36947.69049-.424a1.7612,1.7612,0,0,0,.33313-.21805c.65414-.58146,1.01756-.82374,1.0963-.745.02423.01818.12719-.03028.23622-.11508a4.16268,4.16268,0,0,1,.61175-.3513,1.37217,1.37217,0,0,0,.40581-.24227,1.31928,1.31928,0,0,1,.33919-.27256,1.96135,1.96135,0,0,1,.93886-.3572,1.103,1.103,0,0,0,.36341-.13931c.11509-.06663.23622-.11508.27256-.09691.03634.01211.13931-.05451.22411-.14537.7026-.72683.69049-.72077,1.07207-.87825a1.7372,1.7372,0,0,0,.53907-.36947,1.82031,1.82031,0,0,1,.52089-.37553,1.26256,1.26256,0,0,0,.51484-.41793.75236.75236,0,0,1,.47244-.35735,1.55019,1.55019,0,0,0,.6602-.44822,2.65593,2.65593,0,0,1,.50272-.41187.49149.49149,0,0,0,.212-.218.95664.95664,0,0,1,.34525-.30285,1.28156,1.28156,0,0,0,.37553-.29073,3.36345,3.36345,0,0,1,.55723-.55724,1.14288,1.14288,0,0,0,.424-.58146c.01817-.19988.13931-.29679.43609-.34524a.39481.39481,0,0,0,.34525-.24228,4.97843,4.97843,0,0,1,.76923-1.13264.95123.95123,0,0,0,.47243-.61175c0-.23622.07874-.37553.4361-.73894a6.14424,6.14424,0,0,0,.54512-.68443,1.31779,1.31779,0,0,1,.37553-.41793,6.86463,6.86463,0,0,0,1.02968-.636,1.01445,1.01445,0,0,1,.77528-.16353,2.73321,2.73321,0,0,0,.636.03634,2.36813,2.36813,0,0,1,.59963.03028.25371.25371,0,0,0,.18171-.01817.3728.3728,0,0,1,.29073.00606.24977.24977,0,0,0,.29679-.03029,1.20651,1.20651,0,0,1,1.06.06663c.13931.07874.25439.16959.25439.19988s.0848.103.18776.16353a1.14686,1.14686,0,0,1,.45427.8722c-.02423.29679-.12719.46032-.533.854-.321.315-.38158.41187-.35735.55118a1.303,1.303,0,0,1-.39976.62992,2.25859,2.25859,0,0,0-.27256.212.62531.62531,0,0,1-.27256.14537,3.27655,3.27655,0,0,0-.56331.27862,4.56229,4.56229,0,0,1-.68442.315,2.00058,2.00058,0,0,0-.78135.49666.80417.80417,0,0,1-.47243.11508,1.85362,1.85362,0,0,0-.745.19988,7.20958,7.20958,0,0,1-1.04179.39976,1.37469,1.37469,0,0,0-.54512.24833,2.30786,2.30786,0,0,1-.87825.41793c-.21805.01817-.848.44215-.848.56935a.74.74,0,0,1-.12114.28467,2.29631,2.29631,0,0,0-.212.37553.65675.65675,0,0,1-.20593.26045c-.07268.03634-.1272.103-.1272.14536a1.17539,1.17539,0,0,1-.24227.37553c-.27862.33919-.315.57541-.109.71472.24228.16959.45427.12114.75712-.1696a1.69858,1.69858,0,0,1,.64809-.39369,8.028,8.028,0,0,0,.76317-.32708,1.8778,1.8778,0,0,1,.44215-.17565c.02423.00606.103-.0848.16959-.19988a.5671.5671,0,0,1,.29074-.25439.98459.98459,0,0,0,.28467-.12113,5.0861,5.0861,0,0,1,.68443-.26045,4.28446,4.28446,0,0,0,.77529-.32708,2.16436,2.16436,0,0,1,.48455-.218c.28467-.07269.62386-.32708.62386-.46033,0-.13931.28468-.3937.38764-.3513a2.41945,2.41945,0,0,0,.77529-.41793c.37553-.24833.82374-.52089.98727-.60569a3.75167,3.75167,0,0,0,.69655-.52695c.218-.19988.44821-.41793.51484-.47849a3.67322,3.67322,0,0,1,.424-.27862,1.61465,1.61465,0,0,0,.81163-.854c.15142-.321.20593-.38764.39975-.44821.20594-.06662.22411-.09085.18777-.25439a.37389.37389,0,0,1,.251-.46539l.00338-.001a.47508.47508,0,0,0,.24833-.27862.84217.84217,0,0,0,.06057-.2241.528.528,0,0,1,.06662-.1696.78966.78966,0,0,0,.09086-.26044.612.612,0,0,1,.13325-.24228.74759.74759,0,0,0,.16354-.315,6.06255,6.06255,0,0,1,.27861-.67232c.19383-.41792.26045-.50272.4361-.56935a6.94054,6.94054,0,0,1,1.41126-.33313,3.59686,3.59686,0,0,0,.3937-.07268,5.02434,5.02434,0,0,1,.60569-.0424,2.195,2.195,0,0,0,.52695-.05451.29191.29191,0,0,1,.218.02423.292.292,0,0,0,.25439.01211.49428.49428,0,0,1,.33919.00606.596.596,0,0,0,.4361-.01817,2.99434,2.99434,0,0,1,.73894-.09086,5.41,5.41,0,0,0,.848-.09085,1.93324,1.93324,0,0,1,.58752-.03634c.33918.04845.95093-.06663.99939-.18777a.22041.22041,0,0,1,.38158-.08479c.17565.17565.15143.28467-.09691.50272a2.99927,2.99927,0,0,0-.72077.957.59825.59825,0,0,1-.09691.30285.80587.80587,0,0,0-.09691.44215.48087.48087,0,0,1-.315.55724,1.8798,1.8798,0,0,0-.56329.41793,2.46059,2.46059,0,0,1-.53907.424.78018.78018,0,0,0-.41792.44215,1.38977,1.38977,0,0,1-.27257.36342,1.71544,1.71544,0,0,0-.27256.32707.86833.86833,0,0,1-.1817.24833l-.17565.20594.14536.19382a.54521.54521,0,0,1,.12114.315c-.02423.12114.04846.13931.45427.12114.533-.02423,1.45971-.01212,1.81707.01817a1.17291,1.17291,0,0,0,.61175-.04846.35029.35029,0,0,1,.30284-.03028,1.08144,1.08144,0,0,0,.66021-.06663.232.232,0,0,1,.19988.00606.21317.21317,0,0,0,.23016-.01211,1.55493,1.55493,0,0,1,.50272-.06663c.321,0,.38159.01817.50878.16354a.33208.33208,0,0,1,.09691.3513,3.611,3.611,0,0,0-.04845.39975c-.01817.38159-.07269.43-1.24773,1.21139a3.89981,3.89981,0,0,0-1.02361.92065.908.908,0,0,1-.61175.38764,1.22,1.22,0,0,0-.7026.43.85051.85051,0,0,1-.43.23622c-.4361.07268-.48456.09085-.67232.27256a.83.83,0,0,1-.25439.18171,1.00208,1.00208,0,0,0-.3089.18169,1.45556,1.45556,0,0,1-.82375.26652.86936.86936,0,0,0-.4361.23621,1.22206,1.22206,0,0,1-.45426.26045c-.12114.01818-.218.06056-.218.09086s-.11509.109-.25439.16959c-.14536.06663-.32707.14537-.41187.1817a3.28216,3.28216,0,0,0-.35736.19989,1.05669,1.05669,0,0,1-.45427.14536c-.41186.02423-.48455.04846-.66626.218a.62957.62957,0,0,0-.19382.37553c-.01817.18171.00606.218.17566.29679a1.17738,1.17738,0,0,0,1.01755-.09691,1.28709,1.28709,0,0,1,.3513-.16354,7.55173,7.55173,0,0,0,1.10832-.4543.69789.69789,0,0,1,.24833-.09085.45134.45134,0,0,0,.23622-.17565,2.02561,2.02561,0,0,1,.99334-.49061,1.74709,1.74709,0,0,0,.52089-.218c.212-.12114.424-.24228.47244-.2665a15.7103,15.7103,0,0,1,1.42337-.67232,1.74173,1.74173,0,0,0,.49061-.30285c.26651-.24227.50273-.38158.54513-.33918.04845.04845.46638-.212.848-.5209a7.053,7.053,0,0,1,.81163-.55723,6.05411,6.05411,0,0,0,1.12053-.93882c.90853-.90854,1.00545-1.03574,1.169-1.46578a2.47571,2.47571,0,0,1,.212-.46032,1.05752,1.05752,0,0,0-.00605-.8298,2.32933,2.32933,0,0,0-.58147-.82374,1.04733,1.04733,0,0,1-.24833-.29679,2.622,2.622,0,0,0-1.46577-.78739,2.51308,2.51308,0,0,1-.61176-.22411.70339.70339,0,0,0-.3513-.11508.4357.4357,0,0,1-.26651-.05451c-.45426-.23622-.20592-1.066.41187-1.36281.64809-.321.76318-.38764.9146-.56329.0848-.09691.218-.24228.29073-.321a2.3721,2.3721,0,0,0,.41793-.745A.873.873,0,0,1,62.781,6.945c.1272-.0848.15748-.0848.29073.00606a.59529.59529,0,0,0,.27256.09691.49156.49156,0,0,1,.44821.29073.73718.73718,0,0,0,.76317.26045A2.05834,2.05834,0,0,0,65.016,7.2418l.3089-.30285.36342.01818a1.63336,1.63336,0,0,0,.89642-.18777,1.1132,1.1132,0,0,1,.3937-.04845.56549.56549,0,0,0,.62992-.36948.57149.57149,0,0,0-.1272-.6602c-.0969-.11508-.16959-.15748-.24833-.13325a.475.475,0,0,1-.28468-.02423c-.13325-.04845-.212-.03634-.44214.0848a3.90115,3.90115,0,0,1-1.64749.43,1.8672,1.8672,0,0,0-.79951.18776.26671.26671,0,0,1-.30284.01817,1.52968,1.52968,0,0,1-.57541-.6602,1.12582,1.12582,0,0,0-.11509-.27862,3.50564,3.50564,0,0,1,.08481-1.55057c.07268-.07268-.36947-.52695-.6602-.68443-.33919-.1817-.27862-.3089.3089-.7026a2.12225,2.12225,0,0,0,.41187-.315c.01211-.02423.13325-.18776.26649-.35736A2.22254,2.22254,0,0,0,63.98623.464c.01817-.25439,0-.32708-.0848-.36947A1.11848,1.11848,0,0,0,63.16249.0461Z"/>

</g>
</svg>
