<?xml version="1.0" encoding="UTF-8"?>
<svg xmlns="http://www.w3.org/2000/svg"
     version="1.1"
     width="27.46317595mm"
     height="47.93030676mm"
     viewBox="0.00000000 0.00000000 77.84835340 135.86550169">

<g transform="scale(4.31223773)">   <defs>
      <style type="text/css"><![CDATA[
      .a {
        stroke: #000;
        stroke-linecap: round;
        stroke-linejoin: round;
        stroke-width: 0.01px;
      }
    ]]></style>
   </defs>
   <path class="a"
         d="M12.04087.0051a5.0734,5.0734,0,0,1-.61781.0424A4.77349,4.77349,0,0,0,10.563.14441a1.305,1.305,0,0,1-.69652.01212C9.388.07779,9.5091.04145,8.3704.58653a1.84765,1.84765,0,0,0-.41793.2726A.62154.62154,0,0,1,7.268.99238,4.06338,4.06338,0,0,0,6.62.90153C6.40187.88941,6.196.8773,6.15963.87124a8.52439,8.52439,0,0,0-1.28407.27256.73182.73182,0,0,1-.44821.03029A.42858.42858,0,0,0,4.173,1.15592a6.58994,6.58994,0,0,1-.83585.05451,3.51237,3.51237,0,0,0-.89643.0848c-.109.05451-.1817.04239-.39975-.06057-.24834-.12114-.27862-.12114-.61781-.03634a2.46922,2.46922,0,0,1-.62386.08479.76574.76574,0,0,0-.58146.13325A.9091.9091,0,0,0,.024,2.18559a2.30066,2.30066,0,0,0,.68443.34525,1.20916,1.20916,0,0,1,.45427.642c0,.18171.19987.2241.95093.212a4.73491,4.73491,0,0,0,.79951-.06057,1.28788,1.28788,0,0,1,.89643.18777c.16353.16353.16959.2241.04845.3513a.20577.20577,0,0,0-.07874.13931,1.00934,1.00934,0,0,1-.06662.27256.42385.42385,0,0,0,.03028.424,1.46955,1.46955,0,0,1,.12719.3513c.01212.0848.03029.20594.0424.27862a.48717.48717,0,0,0,.06663.19988.9344.9344,0,0,1,.06663.2665c.04239.36947.05451.41187.12113.45427a.51554.51554,0,0,1,.18171.46032.46312.46312,0,0,0,.0848.30891.74471.74471,0,0,1,.12114.27256,1.56265,1.56265,0,0,0,.15142.3937,1.54983,1.54983,0,0,1,.15142.43609c0,.07874.02423.13931.05451.13931a.28633.28633,0,0,1,.218.30891.48178.48178,0,0,0,.05451.28467.86733.86733,0,0,1,.09086.29073,1.28974,1.28974,0,0,0,.15748.62386,1.87583,1.87583,0,0,1,.13325.45427c.01211.13931.03634.34525.04846.46033a3.2307,3.2307,0,0,0,.12719.54512,4.38816,4.38816,0,0,1,.07268,2.132.43863.43863,0,0,0,.03634.315c.04846.11508.07269.22411.05452.23622a.43914.43914,0,0,0,.07268.218c.06663.13325.07874.2241.03634.29073a.28572.28572,0,0,0,.03029.27256.36207.36207,0,0,1,.03028.30285,1.78058,1.78058,0,0,0-.03634.533c.00606.33918-.05451.78739-.11508.78739-.01212,0-.24834.0848-.527.18777a1.39076,1.39076,0,0,1-1.50817-.1272,4.99832,4.99832,0,0,1-.48456-.30284.40115.40115,0,0,0-.15748-.0848,1.18459,1.18459,0,0,1-.3513-.27862,1.022,1.022,0,0,0-.27256-.24227c-.02423,0-.0848-.06663-.12719-.15143a.25772.25772,0,0,0-.25439-.15142c-.30891,0-.77529.29073-.77529.48455a2.79461,2.79461,0,0,1-.38158.8722c-.0424.0424-.13931.16354-.22411.27256s-.212.27862-.28467.36947a.58045.58045,0,0,0-.13931.30891c0,.07873-.01212.23621-.02423.35129a.48363.48363,0,0,0,.03028.27257c.03029.03634.12114.15747.212.2665.08479.103.19382.19382.23622.19382a.34753.34753,0,0,1,.27256.33313c0,.20594.09691.23622.27861.09691.12114-.09691.18777-.109.27256-.06057a.45177.45177,0,0,0,.19383.04846c.1393-.01817.19987.006.33313.13325l.13931.12114.34524-.13325a2.07451,2.07451,0,0,1,.59358-.13931.66055.66055,0,0,0,.44215-.17565.74405.74405,0,0,1,.27862-.16354,1.47,1.47,0,0,0,.34524-.11508,4.48843,4.48843,0,0,1,.5209-.18777,1.05448,1.05448,0,0,0,.36947-.16959c.27256-.2665.38158-.33313.53906-.34524a1.74893,1.74893,0,0,0,.26045-.05452c.13325-.05451.315.1272.26045.26045a1.70614,1.70614,0,0,0,.0424,1.00545c.06662.19988.1393.4361.16959.52089a.44942.44942,0,0,1,0,.25439.31578.31578,0,0,0,0,.23622,1.4024,1.4024,0,0,1,.00606.49061.989.989,0,0,0,.03028.55118.499.499,0,0,1,.06057.23016,4.47727,4.47727,0,0,0-.06057.62387c-.02423.33313-.04845.73894-.06057.90853a1.11044,1.11044,0,0,0,.03029.3937.193.193,0,0,1,0,.18171.2676.2676,0,0,0,0,.20593.39807.39807,0,0,1-.04846.30891,3.0877,3.0877,0,0,0-.109,1.06,15.37112,15.37112,0,0,1-.1272,2.18048,2.43974,2.43974,0,0,0-.05451.45427c-.00606.16354-.03029.45427-.05451.636a5.12916,5.12916,0,0,0-.09086,1.52028.20375.20375,0,0,1-.0424.23016c-.08479.12114-.08479.15748.01212.40582.05451.14536.13325.2665.16959.2665a1.90357,1.90357,0,0,1,.43.24228,1.39448,1.39448,0,0,0,.50878.24227,1.13983,1.13983,0,0,1,.44216.18777c.218.13931.33918.17565.46032.15142a3.24419,3.24419,0,0,1,.50273-.0424,7.98183,7.98183,0,0,0,.80557-.09085c.2665-.0424.49666-.07874.51483-.07268a.41421.41421,0,0,0,.18171-.06663.45823.45823,0,0,1,.29679-.03634.30909.30909,0,0,0,.23016-.03029,1.61093,1.61093,0,0,1,.75712-.13325.9066.9066,0,0,0,.38158-.09085.60505.60505,0,0,1,.48455-.01817,2.47046,2.47046,0,0,0,1.28407-.18171,2.66623,2.66623,0,0,1,.3937-.0848,2.9238,2.9238,0,0,0,.95093-.2665c.07874-.04846.13931-.07268.13931-.05451s.1272,0,.29073-.04846a7.026,7.026,0,0,1,1.88976,0c.103.06057.41187-.0848.6178-.29073a.98879.98879,0,0,0,.24834-.49667,1.01357,1.01357,0,0,0-.109-.751,3.01949,3.01949,0,0,0-.9267-1.25984,1.111,1.111,0,0,0-.33313-.07874,1.4935,1.4935,0,0,1-.53907-.218c-.41187-.23621-.50272-.23621-.87219.01211a1.4512,1.4512,0,0,1-.4785.212,4.60025,4.60025,0,0,0-.50878.1393.80119.80119,0,0,1-.36342.06663,2.68869,2.68869,0,0,1-.52089-1.06c-.01817-.11508-.06057-.3937-.09085-.62386a5.7913,5.7913,0,0,0-.11509-.60569c-.03634-.103-.109-.33313-.16353-.49667a2.80753,2.80753,0,0,1-.18172-.99939,5.08986,5.08986,0,0,0-.109-1.01755,3.623,3.623,0,0,1-.04846-1.01756c.07269-.11508.28469-.19988.37553-.14537.13326.07874.3937-.07268.86615-.49666a.71612.71612,0,0,1,.23016-.1696,6.79527,6.79527,0,0,0,1.10849-1.13268,1.09524,1.09524,0,0,1,.23621-.3089,7.57944,7.57944,0,0,0,1.04179-1.08419,1.48081,1.48081,0,0,1,.37553-.38158c.14537-.103.26045-.23622.26045-.29073a1.73962,1.73962,0,0,1,.212-.4361A2.74926,2.74926,0,0,0,17.904,16.0983a1.0997,1.0997,0,0,0-.05452-.58752,1.692,1.692,0,0,0-.6602-.82979c-.103-.0424-.28467-.109-.39976-.15748a3.0812,3.0812,0,0,0-.51483-.12114,1.98214,1.98214,0,0,1-.51484-.15142,1.15481,1.15481,0,0,0-.92671-.03029c-.109.07269-.18776.07874-.41792.02423-.23622-.05451-.29679-.04845-.37553.03028a.59906.59906,0,0,1-.38765.09692,2.068,2.068,0,0,0-.56934.09085,3.283,3.283,0,0,1-.61781.12719,1.6094,1.6094,0,0,0-.52089.12114c-.24228.1272-.38765.07874-.54513-.1817a.38025.38025,0,0,1-.06662-.41187,2.18949,2.18949,0,0,0-.02423-.95094c-.01211-.0848-.03634-.29073-.05451-.45427a8.688,8.688,0,0,0-.24834-1.52028,1.86694,1.86694,0,0,1-.09085-.4361.49073.49073,0,0,0-.07874-.26045A1.372,1.372,0,0,1,10.769,9.896a2.47857,2.47857,0,0,0-.04846-.6602A4.989,4.989,0,0,1,10.58724,8.188a.75314.75314,0,0,0-.05451-.27256c-.02423-.01817,0-.103.05451-.18776a1.31318,1.31318,0,0,0,.09691-.67232c.00606-.5209.09085-.8298.2665-.93277.06057-.03634.06663-.08479.02423-.19987a.48492.48492,0,0,1-.02423-.29074,1.11149,1.11149,0,0,0-.03634-.39975,1.05443,1.05443,0,0,1,.01212-.84191.5326.5326,0,0,0,.07268-.39976,1.33917,1.33917,0,0,1,.43-.98727c.13931-.06663.2665-.0424.93882.16353.33919.109.4785.25439.52089.56329.03635.24834.23622.43005.41187.37553a.89071.89071,0,0,1,.29074-.03634c.11508.01212.212-.04845.36341-.218a1.42923,1.42923,0,0,1,.3513-.315,2.17084,2.17084,0,0,0,.36947-.27256,1.981,1.981,0,0,1,.27256-.21805,2.05187,2.05187,0,0,0,.29679-.38158,1.63862,1.63862,0,0,1,.315-.38159,1.102,1.102,0,0,0,.321-.53906.41636.41636,0,0,1,.15142-.21805c.315-.27256.15142-.56935-.4361-.80557a1.45022,1.45022,0,0,1-.48455-.27256,1.42621,1.42621,0,0,0-.92671-.218.98819.98819,0,0,1-.3937-.04845A8.39846,8.39846,0,0,0,12.04087.0051ZM9.21231,2.70653c.4361.103.49667.16353.424.424-.06662.23016-.13931.34524-.54512.81768a2.17849,2.17849,0,0,0-.18776.424,1.83313,1.83313,0,0,1-.23019.46632,2.95242,2.95242,0,0,0-.29073.46638.82822.82822,0,0,0-.01211.92671A5.367,5.367,0,0,1,8.51576,7.655a2.33558,2.33558,0,0,0,.09086.65415.34941.34941,0,0,1,.04845.212.8748.8748,0,0,0,.24228.51484.24465.24465,0,0,1,.04846.23622.39073.39073,0,0,0,.06662.3089,2.51218,2.51218,0,0,1,.22411,1.34463,3.91189,3.91189,0,0,0,.06057.76923,7.8673,7.8673,0,0,1,.12719,1.41126,1.57809,1.57809,0,0,1-.02423.45427.812.812,0,0,0,.25439.56329,3.581,3.581,0,0,1,.32708,1.04179c.01211.11508.03634.35736.04845.53907a3.74416,3.74416,0,0,0,.05451.39369,2.48544,2.48544,0,0,1-.03028.58753,2.29361,2.29361,0,0,0-.01211.93276,4.24951,4.24951,0,0,1,.03634.62992,1.08754,1.08754,0,0,0,.06057.44821,1.79937,1.79937,0,0,1,.09085.52089,4.211,4.211,0,0,0,.109.71472.72061.72061,0,0,1,.02423.46032c-.04845.103-.03634.20594.03634.40582a3.81928,3.81928,0,0,1,.15143,1.20532.56139.56139,0,0,0,.06662.28468,1.96315,1.96315,0,0,1,.12114.751,5.72791,5.72791,0,0,0,.09691,1.42943,7.64225,7.64225,0,0,1,.01817,1.387,3.88274,3.88274,0,0,0,.103.87825,3.65418,3.65418,0,0,1,.04845.60569,1.387,1.387,0,0,0,.13931.72683.52092.52092,0,0,1-.218.78134,2.79207,2.79207,0,0,0-.36948.24228c-.09691.08479-.18776.11508-.24227.08479a5.5145,5.5145,0,0,0-.76317-.04845,2.32179,2.32179,0,0,1-1.25378-.22411,1.96028,1.96028,0,0,1-.28468-.43,1.02809,1.02809,0,0,1-.16354-.66626.93673.93673,0,0,0-.11508-.55723,1.14268,1.14268,0,0,1-.0606-.87823.298.298,0,0,0-.05451-.24833.206.206,0,0,1-.03028-.24228,1.25894,1.25894,0,0,0,.05451-.39975,5.68694,5.68694,0,0,1,.05451-.77529c.03029-.2665.07874-.76922.09691-1.12052a14.64505,14.64505,0,0,1,.15143-1.702,1.454,1.454,0,0,0,.00605-.72077.42379.42379,0,0,1-.01211-.28467.82248.82248,0,0,0,0-.3513,4.39763,4.39763,0,0,1-.04846-.61175c0-.19382-.00605-.533-.01211-.745a1.98961,1.98961,0,0,1,.06663-.55118c.05451-.13931.04845-.24833-.06663-.61175a3.11759,3.11759,0,0,1-.12114-.50878c.01212-.03634.05451-.24833.09691-.47244a1.13571,1.13571,0,0,1,.13325-.45427c.1272-.07874.19382-.53906.1696-1.22349A3.19565,3.19565,0,0,0,7.99487,14.257a.99043.99043,0,0,1-.103-.56935,1.30816,1.30816,0,0,0,0-.43609.802.802,0,0,1-.02422-.29073,1.7655,1.7655,0,0,0,.05451-.44216c.01211-.2241.0424-.62992.06057-.89642a3.94541,3.94541,0,0,0,0-1.33252,2.925,2.925,0,0,1-.15143-.848,1.57242,1.57242,0,0,0-.103-.66626,1.178,1.178,0,0,1-.0424-.65415c.03028-.15748.03634-.28467.00606-.28467a1.48454,1.48454,0,0,1-.315-.75106A.48289.48289,0,0,0,7.31639,6.813a1.18788,1.18788,0,0,1-.09691-.47244,1.39882,1.39882,0,0,0-.11509-.533c-.06056-.13325-.14536-.3513-.18776-.48455C6.85,5.07472,6.61379,4.463,6.45631,4.08744a1.74338,1.74338,0,0,0-.33313-.424c-.29074-.25439-.36948-.38764-.321-.50878.04845-.1272.315-.23016.56935-.218a2.27479,2.27479,0,0,0,.56334-.09086,2.85524,2.85524,0,0,1,.48455-.09086.81792.81792,0,0,0,.315-.06662C8.15235,2.51267,8.35829,2.51267,9.21231,2.70653Zm3.51906,13.76731a4.426,4.426,0,0,0,.57541.04846c.69049.03028.86614.12114,1.12659.58146a1.152,1.152,0,0,1,.18776.49667.41982.41982,0,0,0,.09085.25439.84235.84235,0,0,1,.1272.54512c.00606.36342-.00606.41793-.16354.57541a.88052.88052,0,0,1-.29679.212.68321.68321,0,0,0-.26044.2665,2.37073,2.37073,0,0,1-.33919.39976,1.134,1.134,0,0,0-.29679.40581c-.05451.1272-.14536.24834-.212.26651-.06057.02422-.11508.06057-.11508.09085,0,.16354-.59964.29073-.60569.13325a2.42956,2.42956,0,0,0-.1696-.92671.54279.54279,0,0,1-.07268-.35735,3.067,3.067,0,0,0-.06051-1.09026,1.70617,1.70617,0,0,1-.06057-.424,2.26528,2.26528,0,0,0-.09085-.50878,2.5164,2.5164,0,0,1-.09085-.58752c0-.36342.12113-.50878.38764-.44821C12.49515,16.42539,12.64658,16.46173,12.73137,16.47384Z"/>

</g>
</svg>
