<?xml version="1.0" encoding="UTF-8"?>
<svg xmlns="http://www.w3.org/2000/svg"
     version="1.1"
     width="28.72739390mm"
     height="29.54249512mm"
     viewBox="0.00000000 0.00000000 81.43199948 83.74250063">

<g transform="scale(3.49229315)">   <defs>
      <style type="text/css"><![CDATA[
      .b {
        stroke: #000;
        stroke-linecap: round;
        stroke-linejoin: round;
        stroke-width: .01px;
      }
    ]]></style>
   </defs>
   <path class="b"
         d="M10.51966.06782c-.28906.03125-.63281.10547-.77734.16016-.21484.09766-.375.09766-.98047.00781-1.02734-.14453-1.41016-.07031-2.10547.38281-.32031.21875-.86328.54688-1.20703.73828s-.77734.48047-.95313.63281c-.27344.24609-.32031.34375-.35156.6875-.08203.82422.44922,1.04688,1.89453.79297.41797-.07422,1.17578-.15234,1.67969-.17969.84766-.03906.95313-.03125,1.27344.13672.23047.11328.58203.19922,1.00781.23438.46484.04688.75391.11719.95313.23828.33594.21484.60547.53516.60547.73828,0,.30859-.65625.86328-2.125,1.75-.30469.19141-.70703.48047-.89063.64844-.19141.17578-.39063.3125-.45313.3125-.06641,0-.23438.10938-.37891.24609-.4375.41797-1.04688.84766-1.42969,1.02344-.19922.09766-.66406.37109-1.04297.61719-.375.24219-.97266.57813-1.34375.75391-.35937.17578-.82422.42188-1.02344.56641-.19922.13672-.83984.46484-1.41406.72656-.58594.26563-1.12109.53906-1.20703.60938-.32813.29688-.32813.74609.00781,1.10547.17578.19141.23047.20703.60547.16797,1.50391-.17578,1.92188-.24219,2.41797-.37891.60547-.16797,1.42187-.19141,4.11719-.125,1.13672.02344,1.64063.07031,2.16016.19922.37891.08594,1.05859.18359,1.52344.20703.46094.02344,1.03906.09766,1.27734.16016.24219.0625.65625.16797.92188.23047.26172.06641.78125.16016,1.16016.21094.86328.11719,1.10938.22266,1.71094.74219.27344.23438.60156.50391.73438.60156.36328.24609.48047.57422.32031.87891-.17578.33594-.51172.60156-1.05469.81641-.26563.10547-.64063.30469-.83984.43359-.625.42188-1.35156.74219-2.47266,1.08594-1.39063.43359-1.51172.48047-2.80078,1.16797-.58984.3125-1.25391.63281-1.46484.70313-.21484.07422-.82031.34375-1.35938.61719-.91016.44922-1.02344.48047-1.73438.54297-.47266.04297-.89453.12891-1.12109.23438-.19922.08594-.66406.28516-1.03906.4375-1.33594.5625-1.44141.60938-1.64063.80859-.25391.25781-.27344.69531-.03906.92969.18359.18359.34375.19922.71094.07031.20703-.07031.32031-.0625.64844.08203.55078.23828.78516.21484,1.98437-.19531.58984-.19922,1.20703-.35938,1.39844-.35938.18359,0,.58594-.05469.89844-.11719.30469-.06641.67969-.12109.82422-.12109s.46094-.06641.71875-.15234c1.09766-.35938,2.87891-.80859,3.22266-.80859.08984,0,.42578-.10547.73828-.23828.94141-.38672,1.67188-.64063,2.05469-.73047.49609-.10938,1.28125-.42188,2.07422-.83984.375-.19141.71875-.35156.76563-.35156s.28125-.12891.51953-.28906c.24219-.16016.73047-.42188,1.08203-.58203.58203-.27344,1.07813-.67969,1.07813-.89453,0-.04297.16797-.11328.36719-.16016.24219-.06641.50391-.22656.77734-.46484.23047-.20703.56641-.47266.75391-.59375.53516-.34375.90234-1.13672.99219-2.15234l.0625-.78906-.27344-.49609c-.15234-.27344-.39063-.61719-.53516-.75391-.41406-.39844-2.375-1.14453-3.01563-1.14453-.26563,0-2.05469-.66406-2.23828-.83203-.07422-.0625-.29688-.19141-.51563-.27734-.22266-.09766-.41406-.24219-.46094-.35547-.13672-.29297.08594-.94141.59766-1.72656.24219-.36719.46484-.78516.49609-.91797.02344-.13672.18359-.55469.33594-.92969.26563-.625.28906-.74219.28906-1.44141,0-.54297-.03906-.86328-.14453-1.11719-.07813-.20313-.23828-.625-.35156-.94531-.23828-.67969-.75391-1.35938-1.30469-1.73438-.40625-.28125-1.26172-.57813-2.39844-.83203-.41797-.09766-.99219-.25-1.28125-.32813-.53516-.16016-1.02344-.1875-1.99219-.08203Z"/>

</g>
</svg>
