<?xml version="1.0" encoding="UTF-8"?>
<svg xmlns="http://www.w3.org/2000/svg"
     version="1.1"
     width="22.21653677mm"
     height="33.17484600mm"
     viewBox="0.00000000 0.00000000 62.97601940 94.03892115">

<g transform="scale(2.91749335)">   <defs>
      <style type="text/css"><![CDATA[
      .a {
        stroke: #000;
        stroke-linecap: round;
        stroke-linejoin: round;
        stroke-width: 0.01px;
      }
    ]]></style>
   </defs>
   <path class="a"
         d="M13.185.15642A1.18831,1.18831,0,0,1,12.446.45927a.54264.54264,0,0,0-.26044.14536.28806.28806,0,0,1-.315.09691.34725.34725,0,0,0-.34525.103.70914.70914,0,0,0-.1817.23016,1.06866,1.06866,0,0,1-.57541.46033.53074.53074,0,0,0-.25439.16354.78353.78353,0,0,1-.22411.19987c-.13325.07269-.1817.19383-.17565.41793V2.664a1.03168,1.03168,0,0,0,.51484.83586,1.89689,1.89689,0,0,1,.27862.17565c.04845.04845.17565.15142.28467.23622a.72969.72969,0,0,1,.23017.27256.25991.25991,0,0,0,.15748.15142.78908.78908,0,0,1,.27256.27862c.07874.12719.18776.23622.24227.23622a1.2267,1.2267,0,0,1,.642.36947.53794.53794,0,0,0,.26044.17565.70917.70917,0,0,1,.47244.2665c.06057.16354-.75711,1.07813-1.09024,1.2235-.109.04846-.19988.109-.19988.13325a1.68108,1.68108,0,0,1-.2665.321c-.48456.52089-.57541.67232-.6057,1.03573a1.222,1.222,0,0,0,.43,1.0963,2.10932,2.10932,0,0,1,.5633.90248,1.17528,1.17528,0,0,0,.17565.33919.61269.61269,0,0,1,.14536.36947c-.03634.13325.11509.38764.36342.62992.13325.12719.16959.19988.13931.315-.03029.12113-.00606.16353.13325.23622a.62125.62125,0,0,1,.37553.48455c.07874.34524-.24228.642-.67838.642a1.28524,1.28524,0,0,0-.62386.09691,1.84426,1.84426,0,0,1-.98122-.0424.62627.62627,0,0,0-.53906.02423.488.488,0,0,1-.44821.03634c-.20594-.06057-.24228-.05451-.35736.06057-.103.103-.16959.12114-.35736.09086a3.67593,3.67593,0,0,0-.98122-.00606,1.4361,1.4361,0,0,0-.67232.15748.78006.78006,0,0,1-.39975.11508.49286.49286,0,0,0-.23622.03028.497.497,0,0,1-.28468-.07268,2.0799,2.0799,0,0,0-.67231-.2241.29683.29683,0,0,1-.19382-.11509c-.06663-.08479-.1272-.09691-.33313-.06662a1.12658,1.12658,0,0,0-.37553.12719.62893.62893,0,0,1-.636,0,.9761.9761,0,0,0-1.01756.103.77784.77784,0,0,1-.35736.15748,3.52074,3.52074,0,0,0-.76317.30285c-.56329.27256-.6602.33918-.81768.58752a1.20476,1.20476,0,0,1-.33919.36947c-.09691.04845-.16959.11508-.16959.14536,0,.07874-.32707.24228-.48455.24228a1.32673,1.32673,0,0,0-.5209.3937c-.34524.35736-.38764.424-.38764.636,0,.13326.02423.24228.05451.24228a.7647.7647,0,0,1,.24834.16354l.19382.15748.58146-.109a3.28191,3.28191,0,0,0,.76317-.21805c.15142-.09085.19988-.09691.33313-.02422a1.96365,1.96365,0,0,0,.73289.16353c.08479-.00605.29073-.00605.45427,0a10.00962,10.00962,0,0,0,1.272-.06662,5.7149,5.7149,0,0,0,1.8413-.30891.318.318,0,0,1,.20593-.02422,1.05812,1.05812,0,0,0,.4361-.12114,1.05484,1.05484,0,0,1,.38764-.1272,11.40251,11.40251,0,0,0,1.36886.109,2.22161,2.22161,0,0,0,.48456-.06663,1.9789,1.9789,0,0,1,.424-.06057,1.86089,1.86089,0,0,0,.3937-.05451,1.43057,1.43057,0,0,1,.48455-.00606,6.109,6.109,0,0,0,1.90187.02423,5.69734,5.69734,0,0,1,1.00545-.11508,4.22609,4.22609,0,0,0,.73288-.06663c.23622-.103.9146.79952.80557,1.07208a.44472.44472,0,0,0,.0424.26045,2.45377,2.45377,0,0,1,.17574,1.05382.21182.21182,0,0,1-.30284.12113.60648.60648,0,0,0-.3513.0424,1.05973,1.05973,0,0,1-.48456.04846,9.44386,9.44386,0,0,0-1.708,0,4.73329,4.73329,0,0,1-1.48394.16354c-.95093,0-1.12659-.03029-1.45366-.22411-.13931-.07874-.27257-.13325-.29074-.11508s-.109-.00606-.20593-.05451a4.70625,4.70625,0,0,0-1.25984-.29074,3.16867,3.16867,0,0,1-.49666-.09691c-.24227-.06662-.34525-.07268-.44216-.01817a.3.3,0,0,1-.30284,0,.272.272,0,0,0-.315.02423c-.09691.06057-.16959.07268-.23017.03634a.64036.64036,0,0,0-.60569.03634c-.16353.18777-.28466.212-.56329.09086a1.59737,1.59737,0,0,0-1.23561.103,1.15836,1.15836,0,0,1-.40582.13326c-.103,0-.218.08479-.36947.27256a1.21692,1.21692,0,0,1-.33313.30284.35945.35945,0,0,0-.17565.20594,1.72245,1.72245,0,0,1-.3513.424c-.27256.26045-.27256.26045-.29679.73289l-.02422.47244.2241.16353a3.0331,3.0331,0,0,1,.32707.28468.99727.99727,0,0,0,.69049.17565c.60569-.01817,1.44155-.06663,1.47789-.09086.02423-.01817.07874-.006.12719.02423a.20537.20537,0,0,0,.20594-.03028c.103-.06663.17565-.06663.43.01211a2.33379,2.33379,0,0,0,.3937.0848,10.00407,10.00407,0,0,0,1.09024-.103,1.222,1.222,0,0,1,.67838-.01211.244.244,0,0,0,.25439-.0424.42628.42628,0,0,1,.38764-.0424.56094.56094,0,0,0,.28467.02423A10.01845,10.01845,0,0,1,9.575,21.19815a1.94055,1.94055,0,0,1,.87825.12719c.06664.05452.13931.05452.28467.00606a1.42451,1.42451,0,0,1,.46639-.0424.74037.74037,0,0,0,.46638-.09691.47773.47773,0,0,1,.38158-.07874.60361.60361,0,0,0,.37554-.06057.6779.6779,0,0,1,.40581-.07268.47983.47983,0,0,0,.33918-.04846c.103-.06662.18777-.07268.43-.01817a1.13447,1.13447,0,0,0,.58751-.01211,1.31141,1.31141,0,0,1,.47244-.03028,3.573,3.573,0,0,1,.9146.44215c.01818.09691.05452.36341.07269.55724a1.14255,1.14255,0,0,0,.09691.3513.42393.42393,0,0,1,.03634.25439,2.41344,2.41344,0,0,0-.06057.37552,3.19858,3.19858,0,0,1-.09085.527,6.50151,6.50151,0,0,0-.07268.99939,2.11407,2.11407,0,0,1-.109.94487,1.80386,1.80386,0,0,0-.14537.527c-.03634.3513-.1817.745-.27256.745-.03028,0-.05451.07268-.05451.16959a1.06123,1.06123,0,0,1-.13931.43c-.07874.14537-.18776.34524-.24227.44215a.7547.7547,0,0,1-.15143.218,1.65474,1.65474,0,0,0-.23016.33313,1.27969,1.27969,0,0,1-.37553.41793c-.11508.06663-.20593.14537-.20593.17565a2.5959,2.5959,0,0,1-.79951.745,1.20682,1.20682,0,0,0-.35131.27862c0,.09085-.26044.20593-.43609.19382-.09691-.00606-.1696.01211-.1696.04845,0,.103-.29678.26045-.56329.28468a6.30934,6.30934,0,0,1-.96305.01817.69368.69368,0,0,0-.47244.12719.95022.95022,0,0,1-.62386.15143,4.1451,4.1451,0,0,0-.70866.09085,1.36522,1.36522,0,0,1-1.02361-.07268,8.31321,8.31321,0,0,0-1.62931-.78134,1.14246,1.14246,0,0,0-.77529.59963,1.00955,1.00955,0,0,1-.20593.3089.42479.42479,0,0,0-.09086.30285c-.00605.24228.00606.25439.32708.44821.52089.29679.79345.36947,1.0539.27862.18776-.07268.24833-.06663.55118.06057a1.06226,1.06226,0,0,1,.40581.24833c.04846.09691.13325.11508.54512.11508.46638,0,.49667-.00606.66021-.18171a.50388.50388,0,0,1,.37552-.18776c.109-.00606.48456-.01817.83586-.02423.3513-.01211.73288-.03634.848-.05451s.35735-.04845.533-.06663a1.23107,1.23107,0,0,0,.47244-.12719c.07874-.05451.16354-.0848.18171-.06663a1.4776,1.4776,0,0,0,.46638-.20593,1.94666,1.94666,0,0,1,.636-.23622.76158.76158,0,0,0,.33918-.09085.936.936,0,0,1,.4361-.09086,2.93937,2.93937,0,0,0,.48455-.01817,4.06233,4.06233,0,0,0,1.066-.49061,1.08853,1.08853,0,0,1,.51484-.12114c.33919-.01817.80557-.218.80557-.33918a2.60676,2.60676,0,0,1,.83585-.642.95935.95935,0,0,0,.34524-.218c.23017-.2241.7874-.72682,1.04785-.94487.109-.09086.30285-.26651.44215-.38765a1.27965,1.27965,0,0,1,.29073-.23016,1.1642,1.1642,0,0,0,.218-.41187,2.3559,2.3559,0,0,1,.30284-.55723,2.06137,2.06137,0,0,0,.45427-.97517.64707.64707,0,0,1,.13325-.27256c.11508-.13931.13325-.23016.12114-.53906-.01817-.29679,0-.3937.103-.52695a.55384.55384,0,0,0,.12719-.23017,1.4283,1.4283,0,0,1,.19382-.38764,2.54359,2.54359,0,0,0,.24228-.52089c.07874-.29679.16959-.67232.19382-.81769a1.93881,1.93881,0,0,1,.09085-.29073.40169.40169,0,0,0,.03635-.23016,2.45323,2.45323,0,0,1-.02423-1.09024,1.11928,1.11928,0,0,0-.00606-.78134A.232.232,0,0,1,21.483,19.678a5.43887,5.43887,0,0,0,.06056-.86008,2.25,2.25,0,0,0-.07873-.9691,2.82971,2.82971,0,0,1-.07268-1.19927c.04845-.07268-.01817-.29073-.26045-.87825a1.13716,1.13716,0,0,1-.14537-.65415.77947.77947,0,0,0-.0848-.49667c-.12114-.27861-.12114-.29678-.02422-.51483a.39548.39548,0,0,0,.02422-.40582.43526.43526,0,0,1-.03634-.24227c.02423-.03634,0-.14537-.05451-.25439-.05452-.103-.0848-.19988-.06663-.218s.00606-.0848-.03028-.15142a3.48651,3.48651,0,0,1-.09086-1.39915,1.44087,1.44087,0,0,0-.15142-.80557,2.16,2.16,0,0,1-.16959-.58752,1.02091,1.02091,0,0,0-.19988-.642.52756.52756,0,0,1-.109-.22411,1.54753,1.54753,0,0,0-.11508-.33919,2.60823,2.60823,0,0,1-.15142-.41792.85179.85179,0,0,0-.18776-.321.54041.54041,0,0,1-.15143-.29073,1.43768,1.43768,0,0,0-.15142-.424,1.39856,1.39856,0,0,1-.15142-.41187.73656.73656,0,0,1,.36341-.57541,1.2377,1.2377,0,0,0,.3089-.3089,1.02527,1.02527,0,0,1,.38765-.3089c.90248-.45427,1.34463-1.01151,1.3204-1.65354-.01211-.38764-.09085-.55118-.321-.68443a5.22566,5.22566,0,0,1-.69655-.55724,1.313,1.313,0,0,0-.28467-.19382.71516.71516,0,0,1-.26045-.2241.90238.90238,0,0,0-.3513-.24834,1.50264,1.50264,0,0,1-.37553-.212,1.418,1.418,0,0,0-.47244-.19988,1.5862,1.5862,0,0,1-.45427-.18171,5.87325,5.87325,0,0,0-.56935-.28467,2.24783,2.24783,0,0,1-.53914-.28485.15409.15409,0,0,0-.15748-.05452c-.04846.01817-.1817-.06057-.29678-.17565-.22411-.23016-.2544-.23622-.38158-.15748-.12114.07874-.533-.14536-.79953-.43l-.218-.2302h-.99939C13.28794.005,13.28189.005,13.185.15642Z"/>

</g>
</svg>
