<?xml version="1.0" encoding="UTF-8"?>
<svg xmlns="http://www.w3.org/2000/svg"
     version="1.1"
     width="26.63931053mm"
     height="38.84240016mm"
     viewBox="0.00000000 0.00000000 75.51303209 110.10447623">

<g transform="scale(3.45707363)">   <defs>
      <style type="text/css"><![CDATA[
      .b {
        stroke: #000;
        stroke-linecap: round;
        stroke-linejoin: round;
        stroke-width: .01px;
      }
    ]]></style>
   </defs>
   <path class="b"
         d="M21.20133.0842c-.11328.04688-.36328.05469-.5625.03125-.25391-.03125-.48047-.00781-.71875.08203-.19922.07031-.50391.16797-.67969.21484s-.53516.16797-.80078.26563c-.87109.32031-1.28125.4375-1.80078.52734-.60547.09375-2.49609.78125-3.08594,1.12109-.22656.125-.47266.23047-.54688.23047-.07813,0-.48438.17578-.91016.39063-.42578.20703-.95313.41016-1.17578.44141-.21484.03906-.84766.25391-1.39844.48828-.69922.29688-1.15234.4375-1.50391.47266-.38672.03125-.77734.16797-1.5625.52734-.58203.25391-1.25391.51172-1.49609.56641-.23828.05078-.82422.28906-1.28906.52734-.8125.42578-.87109.44141-1.55859.45703-1.04688.03125-1.79297.28906-2.03125.71094-.11328.20313-.10547.24219.07031.58594.11328.19922.32031.45703.46484.56641.24219.18359.29687.20313.48828.10547.36719-.17578.74609-.23047.92969-.14453.08594.03906.27734.23047.40625.41797.34375.46094.55078.54297,1.04688.41406.21875-.05469.57813-.19141.79297-.30469.89453-.44531,1.01563-.39063,1.09766.55469.03906.38281.08594.87891.10938,1.10156.08984.87891.10547,1.15234.09766,1.96094,0,.46484,0,.95313.00781,1.09766.00781.35156-.16016.48438-.6875.54297-.25781.03125-.66406.08594-.90625.12891-.56641.09375-.85547.00781-1.52734-.45703-.42188-.28906-.61328-.36719-.97656-.41016-.42188-.03906-.46094-.03125-.6875.20313-.13672.13281-.24609.30078-.24609.38281,0,.07813.12891.39844.28906.72656l.28516.58594.49609.15234c.26563.07813.6875.27734.92969.4375.42188.28125.54297.32813,1.39844.53906.22656.05469.49609.14063.61719.20703.12109.05469.32031.10156.44141.10156.11719,0,.26953.03516.31641.06641.20313.12891.38672,1.13672.37109,2.01563-.03516,1.64844-.08984,2.59766-.17578,2.82422-.05078.12109-.08203.50391-.08203.83984,0,.34375-.03906.78516-.08594.97656-.11328.42188-.04297,1.87109.10938,2.16797.21875.44531,1.21875.85547,1.5625.64063.11719-.08203.27734-.74609.25391-1.07422-.04688-.51172-.03125-3.11328.01563-3.77734.03125-.39844.05859-2.16016.05078-3.91797-.01172-1.76172-.01172-3.28906,0-3.39844.03125-.85938-.03516-2.07422-.15234-3.08203-.15234-1.27344-.16016-1.48828-.06641-2.07813.06641-.37891.15234-.61719.27344-.73828.17578-.17578.80859-.40625,1.3125-.47266.15234-.02344.39063-.07031.51953-.10938.13672-.03516.47266-.08984.75-.12109.28125-.02344.64063-.09766.80078-.15234.64844-.23047.87109-.28906.99219-.23828.19141.07031.41016.8125.52734,1.83203.15234,1.19922.16797,1.4375.16797,1.84766-.00781.21484.03125.50391.08203.62891.04688.12891.12109.58594.16016,1.01172.03125.42188.11719.87891.19141,1.02344.10547.19922.14453.58203.16797,1.87109.0625,2.44922.0625,3.07813.01563,8.57422-.01563,2.25781-.00781,2.44141.12891,2.92188l.12891.4375.55078.02734c.74219.02344.79297-.03516.91797-1.15234.10547-.94531.11328-1.53516.05859-4.67188-.03125-1.85547.03906-4.65625.125-5.09766.02734-.12891.12891-.19922.37891-.27344.18359-.04688.55859-.15625.83984-.24609.32813-.10547.79297-.16797,1.375-.18359.64844-.02344.96094-.0625,1.17578-.17578.28125-.13672.3125-.18359.44141-.74609.21484-.96484.03125-1.35156-.73828-1.52734-.27734-.0625-.40625-.03906-.90234.16016-.32031.13672-.71875.26563-.89453.29688-.17969.02344-.54688.17578-.81641.32813-.69141.375-.92969.23828-.90625-.51172.00781-.16797.00781-1.60938,0-3.20703,0-1.64844.02344-2.96094.07422-3.04297.07031-.125,0-.32813-.28906-.78906-.16016-.26563.01563-.39453.96094-.73828.48047-.17578.92578-.36719,1-.42969.27734-.25,2.30078-.9375,2.74219-.9375.24219,0,.57031-.19141,1.35156-.78516.57813-.4375.65625-.67969.44141-1.28516q-.11328-.33594.15234-.63281c.36719-.41016.44531-.59375.44531-.99219,0-.51172-.17578-.64063-.63672-.45703Z"/>
   <path class="b"
         d="M14.97477,27.7717c-.07031.07422-.375.10547-.91797.11328-.89844.00781-1.15234.03906-1.61719.21484-.17578.06641-.49609.16797-.71875.22656-.21875.05469-.48047.14844-.57031.20703-.19922.12891-1.46875.66406-1.57422.66406-.06641,0-.17578.07813-.55078.41406-.27344.25-.46484.3125-1.44141.51172-.55078.10547-.74609.18359-.91406.35938-.30078.32031-.27734.58594.11328.97656l.32813.32813.86328.03125c1.16016.03516,1.04297.03516,2.34375-.00781.64063-.01562,1.25-.07031,1.36328-.10937.23047-.09766,1.34375-.19922,2.31641-.21875.78516-.01563,1.625-.15625,1.9375-.33594.16797-.08594.26562-.09375.375-.03125.21094.10547,1.63281.10547,2.52734-.01563.40234-.04688,1.02734-.08594,1.39453-.07813,1.03125.01563,1.60547-.33594,1.60547-.98438,0-.22656-.70313-.83203-.98047-.85547-.09766-.00781-.32031-.02734-.49609-.04297-.63281-.03906-.80859-.07813-1.00781-.20703-.12109-.07813-.44922-.19141-.74609-.24609-.28906-.06641-.69531-.21875-.89453-.34375-.80078-.48828-1.00781-.5625-1.83203-.61719-.60938-.03906-.83203-.02344-.90625.04688Z"/>

</g>
</svg>
