<?xml version="1.0" encoding="UTF-8"?>
<svg xmlns="http://www.w3.org/2000/svg"
     version="1.1"
     width="67.83192735mm"
     height="30.22216521mm"
     viewBox="0.00000000 0.00000000 192.27944446 85.66916383">

<g transform="scale(3.49229315)">   <defs>
      <style type="text/css"><![CDATA[
      .b {
        stroke: #000;
        stroke-linecap: round;
        stroke-linejoin: round;
        stroke-width: .01px;
      }
    ]]></style>
   </defs>
   <path class="b"
         d="M16.80713.20422c-.23438.11328-.57031.3125-.73828.44922-.17578.13672-.60547.375-.96484.52734-.36328.15234-.80859.39063-.99219.54297-.36328.29688-.9375,1.3125-1.02344,1.81641-.09766.54297.30078,1.19922.89453,1.44922,1.17578.50391,1.97656.71094,3.33594.85547.3125.03125.96094.13672,1.44141.23047.48438.09766,1.07813.21875,1.31641.25781.76172.15234,2.19531.49609,2.33594.56641.26563.12891.37109.50391.45703,1.57813.08203.99219.12109,1.27734.34375,2.65625.11328.67969.04297.80469-.55078,1.03125-.25781.08594-.64063.25391-.86328.35938-1.20703.58984-2.95313,1.19141-4.46484,1.55078-.38281.08984-.83203.23438-1,.32031-.26563.12891-1.03906.39453-2.73438.90625-.28906.08594-.69922.24609-.92188.35938-.21484.10938-.63281.23047-.91016.26953-.3125.05078-.67969.16797-.92969.3125-.23047.13672-.47266.24219-.53516.24219-.06641,0-.48828.19141-.95313.42188-.45703.22656-1.04688.48047-1.3125.5625-1.26953.39063-1.77344.57422-2,.72656-.48828.35938-1.44531.76953-1.77344.76953-.22656,0-.51563.10156-.95313.33594-.35156.18359-.94531.50391-1.32813.70313-.79297.40625-1.71094,1.17578-1.87109,1.56641-.16016.38672-.13672.90625.04688,1.21875.08594.13281.35156.375.58203.52734.23437.15234.47266.32813.53125.39844.05469.0625.34375.25.62891.41797.44922.23828.64063.29297,1.27344.35937.71094.0625.78516.05469,1.6875-.19922.51172-.15234,1.22656-.33594,1.57813-.41016.35156-.07813.75-.19922.87891-.26172.13672-.06641.6875-.27344,1.23828-.46484.55469-.18359,1.21875-.42578,1.48047-.53516.26563-.11328.76953-.28125,1.12109-.37891.35156-.09375.83984-.26172,1.07813-.36719.52344-.23828,1.42578-.57422,1.88281-.6875.50391-.12891,1.55078-.53516,2.125-.82422.98438-.49609,2.3125-.98438,3.51563-1.28125.28516-.07031.75-.23047,1.03906-.35938.94141-.41406,4.81641-1.55859,5.67969-1.67969.23828-.03125.65625-.12109.91797-.18359.26563-.0625.64844-.14453.86719-.17578.20703-.02344.63672-.13672.95703-.25.73828-.25391,2.67188-.75,2.9375-.75.11328,0,.35938-.07422.55078-.16016.19141-.08984.43359-.16016.53516-.16016.23438,0,.69922-.10547,1.83203-.40625.48828-.12891,1.11328-.27344,1.40234-.3125.28906-.04297.87109-.16797,1.30469-.28125.42188-.11328.85547-.19922.94141-.19922.08984,0,.42578-.08984.73828-.19141.32031-.10547.84766-.27344,1.17578-.37109.32813-.09375.92578-.27734,1.32031-.40625.39844-.12891.90234-.25781,1.11719-.28125.22656-.03125.58594-.15234.80859-.27734.22656-.12891.50391-.23438.60938-.23438.11328,0,.32031-.08594.47266-.19922.46484-.32813.65625-.41406,1.15234-.51953.30469-.0625.64844-.20703.94922-.41016.25781-.17578.67188-.36719.91406-.4375.24609-.07422.80859-.32031,1.24609-.5625.44922-.23047.96875-.47656,1.16016-.55078.52734-.18359,2.08203-1.12109,2.44922-1.46484.17578-.16797.48828-.50391.6875-.74219.20703-.24219.50391-.58594.66406-.76172.16016-.18359.3125-.45313.33594-.59766.03125-.15234.16016-.44141.28906-.64844l.23828-.38281-.13672-.39453c-.19922-.59766-.72656-.96875-1.40625-.96875-.13672,0-.375-.13281-.64844-.35938-.36719-.30469-.64844-.42969-1.75-.80078-2.03516-.6875-2.99219-.91797-3.83203-.91797-.17578,0-.53125-.07422-.78516-.16016-.39844-.13672-.69531-.16016-2.0625-.17578-.94531-.00781-1.73828.02344-1.94531.07031-.27344.07422-.42578.06641-.74609-.02344-.30859-.09375-.51172-.10156-.96484-.03906-1.28906.18359-2.97656.26563-3.50391.16797-.35547-.07031-.99219-.08203-2.07422-.03906-.85547.02344-2.44922.04688-3.54297.04688-1.20703-.00781-2.12891.02344-2.35938.07813-.20703.05078-1.00781.09766-1.77734.09766-1.23047,0-1.45703-.01563-1.90234-.16797-.27344-.09766-.69922-.17578-.92969-.17578-.23828,0-.53516-.03906-.64844-.08203-.12109-.04688-.65625-.14844-1.19141-.23828-.52734-.08594-1.23828-.24609-1.56641-.35938Q19.31103.005,18.23681.005c-.89453,0-1.03906.02344-1.42969.19922ZM32.27978,7.82922c.88672.07813,1.04688.12891,1.16016.34375.10156.19141-.12891.40625-.72266.67969-.23828.11328-.59766.28906-.80078.39063-.62109.32031-1.72656.46484-2.07813.28125-.44141-.24219-.59375-1.51953-.21484-1.78516.09375-.0625,1.27734-.02344,2.65625.08984Z"/>

</g>
</svg>
