<?xml version="1.0" encoding="UTF-8"?>
<svg xmlns="http://www.w3.org/2000/svg"
     version="1.1"
     width="10.96231694mm"
     height="49.39475389mm"
     viewBox="0.00000000 0.00000000 31.07423870 140.01660977">

<g transform="scale(3.16106396)">   <defs>
      <style type="text/css"><![CDATA[
      .b {
        stroke: #000;
        stroke-linecap: round;
        stroke-linejoin: round;
        stroke-width: .01px;
      }
    ]]></style>
   </defs>
   <path class="b"
         d="M.13724.10059C.00833.26856-.03073.78809.03958,1.4209c.08984.73828.60937,2.10547,1.12109,2.9375.48828.79297.85547,1.63281,1.08203,2.47266.19141.72656.35156,1.21484.45313,1.36719.02734.03906.14453.36719.26563.71875.22266.69531.55078,1.46484.96094,2.28125.35938.71094.42188,1.47266.48047,5.60156.03125,1.82031.0625,3.44531.07813,3.59766.0625.64063.0625,1.01562,0,1.11328-.03125.05469-.05469,1.00781-.04688,2.12109.00781,2.23047-.12891,5.97266-.26563,7.16797-.02344.19922-.0625.84766-.09375,1.4375-.02344.59375-.06641,1.10547-.08203,1.12891s-.04688.40625-.07031.83984-.12109,1.25781-.20703,1.83203c-.08984.56641-.19531,1.27344-.24219,1.55859-.0625.48828-.14453.86719-.3125,1.51953-.03906.15234-.19922.78516-.35156,1.40234-.15234.61719-.33594,1.28125-.39844,1.47266-.16016.42969-.16016.67188-.00781,1.18359.14063.48828.49609.79297,1.00781.87109.19141.03125.42187.08984.51172.13672.27734.14453.71094.14453,1.07813-.01563.55469-.23438.84766-.30469,1.76172-.44922.46484-.07031.97656-.16797,1.14453-.20703.16797-.04688.55859-.10547.86328-.12891.96875-.07813,1.19141-.48047.98438-1.77734-.07422-.42188-.15234-1.09375-.19141-1.49609-.03516-.40625-.08984-.77344-.12109-.83203-.09766-.14844-.19922-.61328-.32031-1.4375-.05469-.41797-.14453-.92188-.19141-1.12109-.08203-.35938-.23438-1.64063-.29688-2.51172-.02344-.25781-.04688-.49609-.07031-.51953-.07422-.12891-.04297-2.71094.07813-5.6875.02344-.73047.0625-1.96875.08203-2.76172.01563-.79297.04688-1.65625.07813-1.91797.02344-.26563.05469-.67969.07031-.92188.01953-.23828.07422-.73438.12891-1.09375.07422-.45703.08203-.75391.02344-.96875-.04688-.16797-.0625-.66406-.04688-1.10547.01563-.42969.03125-.83203.03125-.87109,0-.19141-.08594-.77734-.13672-.85547-.14844-.24219-.375-5.76953-.25391-6.20703.05469-.19531.04688-.48828-.01563-.92969-.09766-.61719-.18359-2.65625-.16016-3.67969.00781-.3125-.04688-.60938-.16016-.89844-.14453-.35156-.23047-.45313-.51953-.58984-.25-.12109-.42578-.15234-.625-.12109-.22266.05078-.375-.00781-.90234-.29688-.34375-.19141-.83984-.42969-1.08984-.53516-.375-.15234-.47266-.23047-.54297-.44531-.04688-.14453-.17578-.32813-.28125-.39453-.28125-.18359-.40625-.48828-.47266-1.08594-.03125-.28906-.07031-.61719-.08594-.74609-.04688-.39844-.44922-.86328-1.19141-1.35156C2.25833.00684,2.19974-.00097,1.22708.00684.54349.00684.18411.03809.13724.10059Z"/>

</g>
</svg>
