<?xml version="1.0" encoding="UTF-8"?>
<svg xmlns="http://www.w3.org/2000/svg"
     version="1.1"
     width="9.45596152mm"
     height="28.45785556mm"
     viewBox="0.00000000 0.00000000 26.80425205 80.66788001">

<g transform="scale(4.41467152)">   <defs>
      <style type="text/css"><![CDATA[
      .b {
        stroke: #000;
        stroke-linecap: round;
        stroke-linejoin: round;
        stroke-width: .01px;
      }
    ]]></style>
   </defs>
   <path class="b"
         d="M5.02056.06196c-.03906.09375-1.54297.98438-2.19922,1.29297-.39453.19531-.41016.21094-.45703.57031-.02344.15234-.10547.50391-.17578.79297-.07422.28516-.13672.61328-.14453.72656-.01563.11328-.07813.28906-.15234.39844-.07031.10547-.13672.28125-.13672.39453,0,.10938-.07031.32031-.16797.47266-.11719.19922-.16797.4375-.19141,1-.02344.39844-.07031.84766-.11328.99219-.04688.14063-.05469.52734-.03125.84766.02344.375.00781.64844-.04688.75781-.05469.09766-.11328.43359-.12891.75391-.01563.3125-.07813.75-.12891.97656-.05469.21484-.10156.54297-.10938.71875s-.05078.44922-.09766.59766c-.04688.15234-.12891.69141-.18359,1.19531-.04688.50391-.12891.98438-.17578,1.07031-.18359.35156-.30469,1.10547-.35156,2.17578-.04688,1.03125-.03125,1.15234.12109,1.49609.18359.41016.70313.90625,1.00781.96094.32813.0625,1.16797-.08984,1.39844-.25781.12109-.08594.35938-.33594.52734-.55078.16016-.22266.34375-.41406.39453-.44141.05469-.01563.17578-.24609.26953-.51172.14453-.39063.17578-.58203.13672-.99219-.02344-.27734-.03906-.57422-.03906-.66406.03125-.61328-.01563-1.46875-.08203-1.82422q-.13281-.64453.14453-2.61328c.16797-1.23438.22656-1.48047.48828-2.35938.09766-.3125.23438-.9375.32031-1.40234.08203-.46484.19922-1.00781.27344-1.20703.07031-.20703.15234-.55078.17578-.76172.03125-.21484.10156-.48828.16797-.60547.05469-.12109.09375-.32031.08594-.44141-.00781-.12891.02344-.29688.07422-.38281.04688-.08984.10938-.35938.13672-.60156.05469-.39844.14063-.78516.38281-1.625.13672-.46094.02344-.6875-.45703-.86328-.44922-.16797-.49609-.17578-.53516-.08594Z"/>

</g>
</svg>
