<?xml version="1.0" encoding="UTF-8"?>
<svg xmlns="http://www.w3.org/2000/svg"
     version="1.1"
     width="34.68059645mm"
     height="28.20403190mm"
     viewBox="0.00000000 0.00000000 98.30719042 79.94839698">

<g transform="scale(4.96730009)">   <defs>
      <style type="text/css"><![CDATA[
      .b {
        fill: #000;
        stroke-width: 0px;
      }
    ]]></style>
   </defs>
   <path class="b"
         d="M7.26934,10.54019c.00732-.04492.04834-.19629.15479-.41992.0376-.07812.146-.29004.2832-.55762.29541-.57715.72168-1.40967.854-1.71631.18262-.42529.38623-.89893.48535-1.4585.08008-.45312.03662-.90479-.04297-1.72461-.02197-.23145-.05566-.50732-.12451-1.05811l-.08691-.66846c-.02051-.15332-.03223-.23877-.05029-.41455-.08008-.77148-.12451-1.19629-.00488-1.49365.06738-.16846.26904-.58057.68701-.76758.04053-.01807.09668-.04297.60596-.10303.41797-.04932.70703-.08301.90479-.08301.10938,0,.18652.01074.23633.0332.31152.14111.4502.48584.57227.78955.05078.12744.20703.51514.16895,1.3667-.02441.56592-.12598,1.13232-.30176,1.68457-.27637.86133-1.26953,2.4248-1.74658,3.17676l-.08057.12646c-.25098.39551-.37012.60303-.45947.7583-.0498.0874-.09033.1582-.14014.23682-.01807.02881-.08105.12598-.18115.2666-.12207.1709-.20703.27686-.30273.39551l-.25635.32617c-.21729.28223-.72656.94336-.88525,1.08301-.07227.06348-.22168.19434-.28906.22168Z"/>
   <path class="b"
         d="M10.93493.14999h0c.0968,0,.16565.00891.2045.02643.28464.12836.41147.444.53412.74924.04971.12372.20093.50012.16409,1.33554-.02484.56335-.12537,1.12344-.2988,1.66473-.27438.85617-1.26767,2.41879-1.74503,3.16974l-.07373.11603c-.25119.39581-.37067.60413-.46008.76001-.04996.08707-.09018.15729-.13959.2356-.01764.02802-.07999.12399-.17899.26297-.12158.17062-.20602.27557-.30142.39423-.05505.06848-.11368.14139-.18466.23318l-.06238.08096c-.19925.25897-.72858.94693-.88422,1.08386-.02496.02197-.06268.05515-.1019.08862.02139-.05728.0495-.12424.0849-.19821.03821-.0799.14975-.29761.28964-.57077.30212-.59.71591-1.39801.84872-1.70645.18243-.42346.38919-.90341.49054-1.47491.082-.4624.03793-.91779-.04211-1.74448-.02246-.2326-.05591-.50864-.12469-1.06055-.04349-.34863-.069-.53632-.08743-.67178-.02048-.15073-.03207-.2359-.05011-.40952-.08478-.81613-.11771-1.18832-.00992-1.45798.064-.1601.25519-.55136.64819-.72687.0347-.01547.08713-.03891.58441-.09729.39154-.04599.70081-.08231.89594-.08234M10.93493,0c-.19931,0-.49094.03372-.91345.08334-.50433.05923-.5733.08487-.62805.10931-.46405.20721-.67169.67148-.72632.80817-.1236.30914-.08405.72,0,1.52914.03442.33124.04559.34421.13788,1.08435.06854.54977.10187.82474.12427,1.05643.08142.84113.12054,1.27054.0437,1.70386-.09827.55408-.30402,1.03186-.48059,1.44177-.19342.44913-1.01703,2.02332-1.13593,2.27182-.07776.16248-.20459.4729-.1311.52429.00717.005.01593.00732.02603.00732.07837,0,.23721-.13974.35648-.24469.18542-.16315.80664-.97934.96619-1.1857.19543-.25278.29639-.36099.48956-.63211.10162-.14267.16559-.24124.18372-.26999.13831-.2193.20667-.37634.59943-.99524.46527-.73318,1.54004-2.40009,1.83496-3.32037.09036-.28207.27032-.89966.30579-1.70389.03601-.81656-.10352-1.22076-.17474-1.39807-.12799-.31854-.27197-.67691-.61163-.83008-.06146-.02771-.1474-.03967-.26617-.03967h0Z"/>
   <path class="b"
         d="M10.21905,14.74527c-.16992,0-.32227-.00684-.45654-.01367-1.00195-.04883-1.50244-.07324-1.83105-.37402-.55078-.50293-.4917-1.38086-.45654-1.90527.04639-.69531.27295-1.16309.64795-1.93848.11475-.23633.42432-.64941,1.04102-1.47314.06787-.09033.20996-.27881.3042-.27881.06787.01416.09717.12939.13086.26318.05273.20898.12549.49512.37109.7251.09277.08594.26514.17676.6084.3584.13916.07422.34473.18262.55078.26758.44824.18555.82812.23242,1.10645.2666.25098.03027.4873.04297.70898.04297.49023,0,.98242-.05859,1.46289-.1748.86133-.20898,1.45605-.54785,1.81152-.75.11816-.06836.13965-.08398.62695-.44971l1.04102-.7793c.72168-.53857,1.00293-.74854,1.32422-1.14941.21387-.26709.34082-.53418.4248-.71045.03711-.08008.08008-.17041.09961-.18652-.00781.05127.00977.44971-.12988.87061-.07031.21045-.12695.30078-.31543.59961-.09082.14355-.21094.33447-.37695.60791l-.22949.38672c-.11914.20264-.20898.35498-.37988.61621-.19824.30078-.4082.57617-.41602.58496h0c-.00098,0-.23242.2207-.46191.46094-.05273.05273-.12891.13184-.19824.21191-.13379.1543-.23633.29004-.33594.42188-.20801.27441-.4043.53223-.84766.92676-.60938.54102-1.15625.86816-1.51758,1.08398-.71484.42578-1.30859.6709-1.99609.95508-.50781.20801-.76074.3125-1.08496.39062-.39648.0957-.79785.14258-1.22656.14258Z"/>
   <path class="b"
         d="M19.63498,6.84616c-.0119.13934-.04169.30951-.10046.48587-.06744.20242-.11844.28329-.30811.58417-.09079.14401-.21127.33511-.37695.60892-.09705.16037-.16895.28265-.2326.3909-.11755.19995-.20645.35114-.37607.60922-.19211.29233-.39972.56418-.39755.56418h0c-.01279.01221-.24316.2323-.48279.48242-.03348.03415-.11557.11795-.1893.20349-.13498.15668-.23895.29349-.34042.42719-.20526.27036-.39911.52573-.83609.91437-.60477.53778-1.14728.86139-1.50629,1.07553-.71155.42444-1.30402.66858-1.99002.95126-.51837.21362-.76059.31122-1.07031.38614-.39075.09448-.78571.14041-1.20737.14041-.16913,0-.32071-.00693-.45404-.0134-.98245-.04767-1.47556-.07159-1.78467-.3541-.52347-.47842-.46628-1.33408-.43213-1.84534.04547-.68088.26941-1.14359.64069-1.91064.1113-.22998.4194-.6412,1.03357-1.46085.14978-.19992.21573-.24582.23074-.25388.02353.02194.0513.13159.07159.21167.05521.21783.1308.51617.39267.76089.09857.09213.2634.17932.62494.37061.13791.07297.34631.1832.55603.27005.45898.18994.84634.23746,1.13135.2724.23254.02853.47241.043.71298.043.49777,0,.99619-.0596,1.48138-.17715.87024-.21085,1.47119-.55347,1.83026-.75818.12439-.07095.15289-.09235.62866-.44958.22632-.16992.55551-.41711,1.04691-.78381l.04056-.03027c.68646-.51221.97061-.72421,1.29745-1.13205.16766-.20923.28247-.41696.36539-.58344M19.71307,6.41724c-.08997,0-.19073.45709-.56055.91855-.32104.4006-.60144.60666-1.31067,1.13593-1.52313,1.13663-1.48859,1.12546-1.66016,1.2233-.3808.2171-.95868.54099-1.79126.74271-.26941.06528-.79315.17294-1.44608.17294-.21866,0-.45184-.01208-.69473-.04187-.27045-.03317-.65094-.0795-1.09222-.26215-.20337-.0842-.40601-.19141-.54364-.26422-.33893-.17932-.50836-.26898-.59229-.34741-.41656-.38928-.30084-.95328-.52429-1.00485-.0097-.00223-.01947-.0033-.02933-.0033-.12943,0-.27017.18405-.36386.30911-.62061.82828-.93091,1.2424-1.04852,1.48544-.37335.77136-.60791,1.25586-.65533,1.966-.03497.52332-.09613,1.43893.48059,1.96603.349.31897.85889.34372,1.8786.39319.13547.00656.28949.01358.46127.01358.34479,0,.76117-.0282,1.24265-.14462.32739-.07916.58679-.18494,1.09222-.39322.69916-.28812,1.2887-.53107,2.0097-.96115.38715-.23093.92603-.55597,1.52911-1.09225.66156-.58835.77954-.87878,1.19049-1.35574.08392-.09738.1792-.19241.19531-.20923.23285-.24326.46716-.46652.46716-.46652,0,0,.21625-.28156.41888-.58984.26282-.3999.33386-.54584.61163-1.00485.51392-.8493.59125-.89978.69904-1.22333.151-.45319.13763-.9342.0437-.96115-.00247-.0007-.00497-.00107-.00745-.00107h0Z"/>
   <path class="b"
         d="M.91436,16.01968c-.43018,0-.68115-.0791-.79102-.24902-.08984-.13867-.05371-.30176.09717-.90137.23828-.9502.35791-1.42383.3916-1.52441.12598-.37109.49561-1.24805.78418-1.67285.14941-.21973.2373-.32031.33838-.43555.08252-.09473.17334-.19922.31104-.38184.15967-.21289.229-.32812.43506-.6709l.28027-.46387c.41455-.68213.62207-1.02295.78271-1.25684.33057-.47998.59668-.771.85352-1.05273l.21924-.24365c.56885-.64697.90967-1.27588,1.3042-2.00439.15283-.28174.3125-.57666.49561-.89062.24951-.42725.41162-.79297.55469-1.11523.22607-.50977.42139-.9502.87744-1.44922.19678-.21533.71924-.7876,1.07861-.7876.03857,0,.07275.00635.10498.01953.22021.09033.43262,1.85791.17578,2.57031-.14111.39307-.37988.70605-.90576,1.37695-.26807.34229-.46045.56445-.61475.74316-.24951.28857-.40039.46289-.61426.83887-.11768.20654-.17969.44824-.23926.68213-.09277.3623-.18018.7041-.45605.9248-.12109.09668-.24219.18262-.36084.26611-.29199.20703-.56787.40234-.80762.72754-.22217.30127-.39551.64209-.5625.97119-.0918.18066-.18359.36133-.28271.53516l-.09814.1582c-.24951.40039-.31689.50879-.25488.65137.0708.16309.28516.26367,1.13525.26367.72363-.00391,1.40771-.06543,2.04834-.17578,1.06055-.18262,1.53564-.26465,1.67041-.30859l.11816-.03906c.13965-.04785.24951-.08496.33105-.08496.03906,0,.06934.00879.09619.02734.06738.62207-.97559,2.82129-1.14502,2.98633-.16211.1582-.61133.55859-1.28857.85938-.29004.12793-.56494.19922-1.1123.3418l-.20654.05371c-.53906.14062-.89453.2334-1.37012.29785-.20361.02734-.49121.07129-.81055.11914-.71338.1084-1.60059.24316-2.06738.27246-.16064.01074-.33105.02148-.49561.02148Z"/>
   <path class="b"
         d="M8.92715.9946c.02838,0,.05334.00458.06888.01001.19595.15298.37497,1.83112.14157,2.4794-.13757.38217-.3736.69199-.89438,1.35629-.26727.34091-.45856.56207-.61249.74008-.24414.28232-.40543.46884-.62305.85101-.12265.21539-.18576.46216-.2468.70081-.08939.34958-.17383.67975-.43005.88449-.12024.0961-.2402.18091-.35785.26419-.29706.2103-.57764.40894-.8241.7435-.22626.30713-.40079.65082-.56958.98318-.091.17917-.18173.35803-.27765.52609l-.10284.16565c-.25665.41241-.33411.5369-.25674.71552.08478.19574.30893.30905,1.20383.30905l.07068-.00024c.66263-.00424,1.33234-.06375,1.99219-.17719,1.05515-.18146,1.53671-.26425,1.67953-.31076l.11984-.04001c.12747-.04312.23755-.08035.30664-.08035.01593,0,.02725.00192.03317.00192.00317,0,.00482-.00055.00479-.00226.11969.31281-.90451,2.63458-1.13977,2.88516-.16022.15601-.6044.55057-1.26685.84412-.2865.12695-.56247.19861-1.11279.34146l-.19318.05035c-.53662.14005-.89111.23257-1.36194.29568-.20517.0275-.49423.07144-.81592.12033-.71036.10797-1.59442.24234-2.05716.27185-.15945.01016-.32819.021-.49124.021-.40179,0-.633-.06827-.7276-.21481-.06912-.10712-.04343-.24548.10687-.84323.23056-.91724.3576-1.42249.3898-1.51758.121-.35751.49396-1.24106.77536-1.65515.14627-.21521.23251-.3139.33237-.42813.08377-.09589.17578-.2012.315-.38647.16367-.2178.23383-.33469.44214-.68158l.27734-.45956c.41351-.68036.62106-1.02185.78012-1.25259.32812-.47592.59222-.76541.84766-1.04535.07468-.08185.14764-.16183.21997-.24408.5744-.65326.91708-1.28595,1.31387-2.01855.15231-.28128.31168-.57556.49429-.8884.25165-.43112.41458-.79855.55835-1.12277.2327-.52469.41647-.93912.86469-1.42941.1907-.20859.69724-.76266,1.02301-.76266M8.92715.8446c-.39194,0-.90808.56464-1.13382.81155-.75671.82779-.80078,1.47952-1.44177,2.57767-.64917,1.11218-1.00616,1.99063-1.79126,2.88351-.31708.3606-.64697.67746-1.07849,1.30334-.16138.2341-.3692.57602-.78479,1.25983-.44672.73505-.4964.84302-.71124,1.12894-.30615.40747-.37891.41934-.65149.8204-.3009.44281-.67645,1.34592-.7934,1.69138-.034.1004-.15375.57663-.39319,1.52911-.1532.60934-.19562.79352-.0874.96115.14862.23026.48715.28345.85364.28345.1662,0,.3382-.01096.50073-.0213.67865-.04324,2.22058-.30435,2.88348-.39319.53552-.07178.92889-.18234,1.57288-.34952.55872-.14505.83807-.21756,1.13586-.34952.73718-.32666,1.2019-.76782,1.31073-.87378.19293-.1879,1.46539-2.87436,1.13593-3.10196-.04123-.02847-.08682-.04037-.13879-.04037-.11758.00003-.26767.06091-.4729.12775-.13257.04318-.64178.13074-1.66016.30585-.28137.04837-1.02783.16873-1.96606.17474-.02377.00015-.04697.00024-.06976.00024-.85974,0-1.01807-.1076-1.06616-.21869-.05231-.12079.03253-.22958.34955-.74271.28232-.49408.50186-1.03961.84039-1.49915.32965-.44745.74042-.64832,1.15482-.97946.48499-.38757.42529-1.12195.71356-1.62827.34363-.60345.52899-.68723,1.22324-1.57275.51056-.65128.76892-.98535.91748-1.39804.23712-.65872.08771-2.53986-.21844-2.66507-.04221-.01724-.08679-.02515-.13315-.02515h0Z"/>

</g>
</svg>
