<?xml version="1.0" encoding="UTF-8"?>
<svg xmlns="http://www.w3.org/2000/svg"
     version="1.1"
     width="58.21655125mm"
     height="43.59547127mm"
     viewBox="0.00000000 0.00000000 165.02331203 123.57768102">

<g transform="scale(3.20450789)">   <defs>
      <style type="text/css"><![CDATA[
      .b {
        stroke: #000;
        stroke-linecap: round;
        stroke-linejoin: round;
        stroke-width: .01px;
      }
    ]]></style>
   </defs>
   <path class="b"
         d="M41.33238.10281c-.12891.05469-.32813.24219-.44531.41797-.21875.32813-.71484.69531-1.39453,1.04688-.21484.11328-.74219.51953-1.16797.91016l-.78516.71484-.29297.80469c-.16016.44922-.28906.88281-.28906.96875,0,.08984-.10547.44141-.23828.77734-.28125.72656-.43359.88672-1.60156,1.6875-.46484.32031-.99219.70313-1.18359.85547-.25.19141-.43359.27344-.63281.27344-.16016,0-.48047.05469-.70313.12891-.41797.13281-.42578.13281-.89062-.08203-.39844-.18359-.52734-.20703-.90234-.16016-.23828.03125-.65625.14453-.91797.25-.40234.16797-.55469.19141-.85156.13281-.19922-.03125-.62891-.0625-.95703-.0625-.32813-.00781-.99219-.0625-1.48047-.12109-.71094-.08594-1.00781-.08594-1.57813-.00781-.40625.06641-.83984.08203-1.03906.04297-.19141-.03516-.63281-.07422-.98438-.08203-.64844-.01563-1.67188-.24609-2.14453-.48828-.16016-.08594-.42969-.12891-.78906-.12109-.625.01563-.92969-.10938-1.10547-.42969-.16016-.30469-.48047-.44141-1.03906-.44141-.46484,0-.50391.01563-.86328.35156-.21094.19141-.53906.43359-.73828.52734-.19922.10547-.44922.25781-.56641.35547-.39453.33594-2.44141.8125-3.73828.88672-.60547.03125-1.03906.09375-1.32031.19922-.30078.12109-.61328.16016-1.13281.16016-1.28906,0-1.57813.19141-2.16797,1.42578-.33594.71875-.44922,1.23047-.27344,1.33594.32813.19922,1.09766.30859,2.28125.32031.70313.00781,1.54297.05469,1.86328.10156.32031.05469,1.10938.09766,1.75781.10547,1.28906.00781,1.73047.11719,1.96875.48828.06641.09375.19922.59766.29688,1.10156s.23828,1.05859.32813,1.21875c.28906.58203.17578.71875-.67188.81641-.60156.0625-1.17578.07813-3.82422.11719-.81641.00781-2.0625.21875-2.77734.45703-.26172.07813-.4375.08594-.78906.02344-.50391-.09375-.76172-.07813-1.83203.12891-.44922.07813-.92969.23828-1.27344.41406-.30469.15234-.80859.34375-1.12109.42578-.67188.16797-2,.86328-2.51172,1.32031-.63281.55078-.99219,1.28125-.71094,1.45703.08594.05469.40625.125,1.63281.34375.51953.08594,2.49609.10156,4.26953.03125,1.09766-.04688,1.40234-.03125,1.76172.07031.48047.14453,1.70313.25,2.66406.22656.64063-.01563.89453-.09766,1.34375-.43359.21484-.16016.22266-.16016.54297-.01563.28125.12891.375.13672.74609.04688.22266-.04688.74219-.08594,1.13281-.07813,1.33594.02344,4.05859-.15234,4.43359-.28125.21484-.07813.56641-.12109.96094-.11328.53516.01563.67188-.01563,1.16016-.23828.59766-.28125.74219-.30469,1.03906-.16797.22266.10547.33594.35156.39063.85547.05078.39844.22656.625.53906.69531.35938.08203.75781-.15234,1.38281-.77344.39844-.41016.79297-.70703,1.28125-.96875.62891-.34375.72656-.375.94141-.30469.46484.16016,1.60156.19922,2.03906.0625.32031-.09375.49609-.10156.76172-.04688.64844.15234,2.23828-.12109,2.89453-.48047.23438-.12891.66406-.26953.97656-.32031.77734-.12891,1.44141-.3125,1.97656-.53516.38281-.16016.48828-.17578.66406-.09766.30469.13672.33594.41797.12109,1.02734-.44141,1.25391-.50391,1.59766-.40234,2.19922.06641.39844.06641.71875,0,1.12109-.03906.30078-.10938.84766-.15234,1.19922-.03906.35156-.14063.85547-.23047,1.11719-.12891.38672-.16016.69141-.16016,1.5625,0,.58984-.03125,1.23828-.07813,1.4375-.06641.25-.06641.45703-.00781.68359.04688.17578.14844.62109.22266,1,.13672.64453.15234.6875.47266.90234.18359.12109.46484.39062.63281.60156.16797.20703.375.42969.46094.48438.08984.06641.28906.25781.44141.41797.29688.32031.76953.63281.94531.63281.0625,0,.36719.10938.67969.24609.47266.20703.63281.24219.94922.20703.37109-.04688.41016-.03125.77734.29688.32031.28906.49609.36719,1.08984.51953.38281.09766.80469.23438.94141.29688.12891.07422.41016.17578.61719.24219.375.10938.51953.24609.41406.40625-.10156.15234-.98047.67969-1.375.83203-.22266.08203-.58984.28125-.82422.43359-.23828.16016-.64063.32813-.93359.39063-.51953.12109-2.65625.39844-3.04297.39063-.49609,0-2.23047-.26172-2.55078-.375-.60938-.22266-.96875-.13672-.96875.23047,0,.21875.25781.50781.88281.97656.74219.57031.8125.59375,1.71094.67969,1.03125.10547,2.01563.08203,2.67969-.0625.28906-.05469.74219-.11328,1.01563-.11328.39063,0,.55078-.03906.79297-.20703.45703-.30469,1.84766-.91016,2.46484-1.07031.67969-.18359.85547-.29687,1.24609-.82422.16797-.23438.40625-.48828.51953-.5625.11328-.07031.38281-.29297.60938-.49609.22266-.19922.48828-.35938.58203-.35938.39453,0,1.06641-.58203,1.65625-1.4375.34375-.49609,1.13672-1.38672,1.92969-2.16016.52734-.51953,1.19141-1.81641,1.19141-2.32031,0-.21094.07031-.625.16797-.92969.12891-.42188.15234-.63281.10547-.98438-.07422-.53516-.05859-.71875.07813-1.24609.0625-.22656.13672-.67188.16016-1,.04688-.59375.04688-.61719-.23828-1.08203-.32813-.54297-.44922-.95703-.59375-2-.05469-.39844-.15234-.81641-.21484-.94141-.13672-.26563-1.25781-1.01563-1.51953-1.01563-.32031,0-.73047.21484-1.16797.62109-.22656.21875-.54688.48047-.70703.58594-.16016.10156-.6875.56641-1.17578,1.03125-.73438.70313-.89453.89453-.97656,1.19922-.13281.49609-.13281,1.07422,0,1.67969.05859.28906.10547.69531.09766.92188-.00781.21484.02344.64063.0625.94141.06641.44141.05859.58594-.03906.77734-.0625.12891-.12109.34375-.12109.47266,0,.61719-.50391.95313-1.29297.86328-.23438-.03125-.71484-.07813-1.06641-.12109-.35156-.03906-.71875-.10938-.81641-.16016-.09375-.05469-.42969-.38281-.74219-.73438-.51953-.59375-.55859-.67188-.55859-1,0-.21484-.07422-.50391-.16797-.69531-.11328-.22656-.15234-.41016-.12109-.57813.17578-.93359.19141-1.48047.07813-2.20703-.0625-.41406-.13281-.88672-.16016-1.04688-.03125-.19922,0-.38281.12109-.61719.19922-.39844.23438-1.47266.04688-1.97656-.0625-.17578-.11719-.39844-.11719-.48828,0-.40625.67969-.90234,1.53516-1.11719.41406-.11328.58203-.21094.99219-.59375.26953-.24609.75-.60156,1.07813-.77734.64063-.35938,1.35156-.91797,2.08984-1.64453.25391-.25.49609-.45703.53516-.45703.19141,0,.57813-.44922.72656-.85547.09766-.25.30469-.625.47266-.83203l.30469-.38672.05469-.99219c.05859-1.07031.01953-1.26953-.31641-1.71094-.23438-.30469-.46484-.33594-.95313-.11328-.48828.21875-.76172.59375-1.40234,1.89844-.51953,1.0625-.57422,1.22266-.53516,1.54297.03906.39063-.07031.55859-.55859.82422-.14453.07031-.36719.28906-.50391.48047-.69531.96875-2.3125,2.30469-2.79297,2.30469-.08594,0-.42188-.18359-.75781-.40234-.45703-.3125-.66406-.51172-.88281-.86328-.15234-.24609-.30469-.55859-.32813-.67969-.07031-.26172-.83203-.91016-1.14453-.98438-.11719-.02344-.36719-.07813-.55078-.12891-.18359-.04688-.43359-.0625-.54297-.03125-.18359.05078-1.39453.625-2.19922,1.05078-.25.125-.66406.23047-1.32031.32422-.52734.07422-1.1289.20313-1.34375.28125-.44922.17578-1.16016.27344-1.44922.19922-.39844-.10156-.34375-.60547.14453-1.20703.3125-.375.60547-1.20703.60547-1.6875,0-.19922.12109-.63281.29688-1.07031.26563-.66406.32031-.75391.57813-.85938.16016-.07031.38281-.20703.5039-.30078.26172-.22656.74219-.38672,1.66406-.57031.375-.07031.84766-.21484,1.05469-.32031.19922-.10156.54297-.22266.76172-.26953.42969-.09766,1.72656-.83984,2.25391-1.29688.19141-.16797.57031-.41016.83984-.53516.49609-.23438.80078-.51953,1.32813-1.24219.96875-1.33594,1.23438-1.72656,1.375-2.04688.09766-.19922.39453-.71094.67188-1.14453.58594-.89453.85938-1.48828.85938-1.83984,0-.19141-.08203-.32031-.35547-.55859-.57422-.51172-1.03906-.64844-1.53516-.43359ZM22.66832,9.32547c.15234.14453.15234.15234.03906.37891-.11719.22266-.22266.29297-.44531.29297-.45703,0-.48828-.42969-.03906-.67188.26953-.15234.29297-.15234.44531,0ZM25.03551,11.83719c.24219.12891.34766.66406.34766,1.74609v.97656l-.32031.46484c-.22656.30078-.41797.48828-.59375.55078-.39063.13672-1.10547.12891-1.55078-.03125-.33594-.11328-.48047-.12109-1.08203-.04297-.89453.12109-1.21484.12109-1.38281-.00781-.23047-.16797-.47266-1.19922-.41797-1.76563.10547-.96094.25-1.17578.875-1.28906.17578-.02344.61328-.17578.97656-.32813.58203-.23828.73438-.27344,1.34375-.26172.38281.00781.71875-.01172.74219-.04297.08203-.07813.90234-.05469,1.0625.03125Z"/>

</g>
</svg>
