<?xml version="1.0" encoding="UTF-8"?>
<svg xmlns="http://www.w3.org/2000/svg"
     version="1.1"
     width="25.20199708mm"
     height="28.08129281mm"
     viewBox="0.00000000 0.00000000 71.43871086 79.60045974">

<g transform="scale(3.65894339)">   <defs>
      <style type="text/css"><![CDATA[
      .b {
        stroke: #000;
        stroke-linecap: round;
        stroke-linejoin: round;
        stroke-width: .25px;
      }
    ]]></style>
   </defs>
   <path class="b"
         d="M2.57582,4.1761C.42263,6.677-.42948,10.27424.4941,13.44248c.35647,1.22283.9539,2.3614,1.60212,3.45784.65435,1.10681,1.41522,2.22764,2.55869,2.8156,1.14347.58796,2.76486.4345,3.44955-.65381.50225-.79831.3708-1.85863-.03484-2.71011-.7049-1.47964-2.13392-2.55146-2.6897-4.09332-.63109-1.75077.05712-3.79828,1.3916-5.09544,1.33448-1.29717,3.20586-1.92344,5.05891-2.09575.26664-.02479.54989-.03793.78698.08655.54495.28612.52221,1.06144.42204,1.66874-.38352,2.32514-.76705,4.65028-1.15057,6.97542-.12213.74041-.25345,1.50511-.66492,2.13266-.4296.65521-1.11831,1.08965-1.80207,1.4722-1.5015.84008-3.08643,1.53097-4.72387,2.0592-.71665.23119-1.62793.76671-1.36234,1.47134.13764.36517.55192.54034.93462.61672,1.19154.23782,2.41762-.09616,3.57082-.47889,1.60334-.53213,3.17198-1.1639,4.72382-1.83149,1.85127-.79641,3.79448-1.74481,4.80548-3.48818.65005-1.12095.83385-2.44322,1.00512-3.72765.31856-2.38899.63712-4.77798.95568-7.16696.06129-.4596.12143-.9357-.01147-1.37992-.28526-.95349-1.32469-1.43097-2.25424-1.78657-1.19161-.45585-2.38685-.90222-3.58599-1.33923-1.59015-.57931-4.11777.0828-5.69708.53827-1.99821.57628-3.84599,1.70604-5.20662,3.2864Z"/>
   <path class="b"
         d="M7.61926,14.65409c-.02742.41264-.05052.84813.13525,1.21761.38289.76152,1.41124.86948,2.26302.83828.77776-.02849,1.62111-.11643,2.18805-.64962.67232-.6323.72914-1.66331.74085-2.58618.02178-1.71603.04355-3.43206.06533-5.14809.00437-.3442.00645-.70041-.13067-1.01615-.25155-.57924-.89091-.8683-1.47589-1.10617-.79904-.32492-1.63851-.6561-2.49658-.56804-.22613.02321-.45935.08072-.62963.23128-.48859.43202-.17635,2.36891-.26213,3.02577-.24786,1.89811-.27062,3.85067-.3976,5.76131Z"/>

</g>
</svg>
