<?xml version="1.0" encoding="UTF-8"?>
<svg xmlns="http://www.w3.org/2000/svg"
     version="1.1"
     width="10.16983100mm"
     height="28.74972912mm"
     viewBox="0.00000000 0.00000000 28.82785786 81.49531271">

<g transform="scale(4.84970482)">   <defs>
      <style type="text/css"><![CDATA[
      .b {
        stroke: #000;
        stroke-linecap: round;
        stroke-linejoin: round;
        stroke-width: .25px;
      }
    ]]></style>
   </defs>
   <path class="b"
         d="M3.05229.73846c-.2447.24521-.39285.57262-.48044.90779-.19798.75766-.10723,1.55608-.12785,2.33891-.05294,2.0099-.84057,3.91512-1.38655,5.85017C.4302,12.05838.11541,14.36935.12522,16.67918c.73242-.28598,1.46484-.57195,2.19726-.85794.12473-.0487.25577-.10201.33748-.20808.06302-.08181.08892-.18541.11324-.28578,1.11298-4.59308,2.10773-9.2148,2.98295-13.85906.05115-.27141.10133-.5556.02077-.82-.29099-.95385-2.22917-.40636-2.72464.09012h0Z"/>

</g>
</svg>
