<?xml version="1.0" encoding="UTF-8"?>
<svg xmlns="http://www.w3.org/2000/svg"
     version="1.1"
     width="53.96850139mm"
     height="8.20692382mm"
     viewBox="0.00000000 0.00000000 152.98154273 23.26370127">

<g transform="scale(3.49229315)">   <defs>
      <style type="text/css"><![CDATA[
      .b {
        stroke: #000;
        stroke-linecap: round;
        stroke-linejoin: round;
        stroke-width: .01px;
      }
    ]]></style>
   </defs>
   <path class="b"
         d="M24.50761.07832c-.17578.04297-.78516.06641-1.35938.06641-.85547-.00781-1.15234.02344-1.67969.17578-.91406.25391-1.02734.27344-1.47266.16016-.33594-.08203-.43359-.07422-.65625.03906-.23438.12109-.33594.12891-.96875.03906-.53516-.07031-.76953-.07031-.98438,0-.16797.05859-.67188.08984-1.22266.08203-1.12109-.02344-2.51953.05469-2.85547.15234-.12891.03906-.77734.05469-1.44141.03906-2.52734-.08984-6.09766-.02344-6.30469.10547-.04688.03125-.34375.05469-.64844.07031-.3125.00781-.76563.0625-1.00781.13672-.23828.0625-.71094.17578-1.03906.25391-.77734.17578-.99219.26563-1.70312.75391C.48417,2.60957.08964,3.03925.01932,3.40644c-.07422.37109.14453.79297.55078,1.08203.54297.375,1.79297.89453,2.25781.91797,3.23828.20313,3.72656.21875,4.03906.12109.33594-.09375,1.51953-.15234,4.60156-.19922.92578-.01563,1.78906-.05469,1.91797-.08203.57813-.10938,3.45703-.28516,3.67969-.21484.16016.03906.38672.02344.67969-.04688.35938-.09766.54688-.10547,1-.03125.39453.0625.69531.0625,1,.00781.50391-.08984,2.28125-.15234,7.44141-.25781.71875-.00781,2.44922.08984,2.91797.17578.26563.05078.92969.12109,1.48047.16016,1.3125.09766,2.29688.20703,2.64063.3125.15234.04688.5625.08984.90625.08984.42969,0,.75781.04688,1.07813.16797.25.09375.94531.3125,1.53516.48047.83203.24609,1.16016.30859,1.44922.26953.23047-.02344.46484,0,.64063.07422.15234.0625.61719.14063,1.03125.16797l.76172.05469.59766-.30469c.44922-.23828.67969-.41406.9375-.75.625-.80078.61328-.74609.63281-2.52344.01563-.89453-.01953-1.71094-.05859-1.85547-.13672-.42969-.23047-.46094-1.50391-.48047-.64063-.00781-1.87109-.03906-2.72656-.0625-.85547-.03125-2.16797-.0625-2.92188-.08594-2.51172-.05859-3.03906-.08984-3.71875-.20313-.375-.05469-1.23828-.10938-1.92188-.11719-1.75-.01563-2.87891-.08203-3.14063-.18359-.32031-.12891-1.39453-.10547-1.79297.03125-.28906.10156-.38281.10156-.71875,0-.21094-.06641-.40234-.11328-.42578-.11328-.02344.00781-.18359.03906-.35938.07031Z"/>

</g>
</svg>
