<?xml version="1.0" encoding="UTF-8"?>
<svg xmlns="http://www.w3.org/2000/svg"
     version="1.1"
     width="21.53109375mm"
     height="44.98135996mm"
     viewBox="0.00000000 0.00000000 61.03304694 127.50624477">

<g transform="scale(3.60807742)">   <defs>
      <style type="text/css"><![CDATA[
      .b {
        stroke: #000;
        stroke-linecap: round;
        stroke-linejoin: round;
        stroke-width: .01px;
      }
    ]]></style>
   </defs>
   <path class="b"
         d="M11.29167.09432c-.35938.16797-.87891.70313-1.03906,1.08594-.05859.15234-.21875.42578-.34375.625-.44922.64844-.64844,1.46484-.64844,2.58203,0,1.32813-.32813,1.95313-1.12109,2.14453-2.15234.53906-2.42188.64063-2.55078,1.01563-.11328.32031-.03906.95313.14453,1.21875.375.56641.45313.67188.63672.87891.11328.12109.34766.25781.51563.30469.61328.16016.80469.54297.60547,1.19141-.04688.15234-.10938.48047-.15234.71875-.14453.94531-.66406,3.11328-.89453,3.71484l-.24219.62109-.01563,2.33594-.00781,2.32813-.25391.48828c-.17578.34375-.35156.55469-.60938.72266-1.51953.99219-1.64062,1.08594-1.96875,1.54297-.18359.26172-.61328.76563-.96484,1.12891-.35547.35938-.64063.67188-.64063.70313,0,.02344-.14453.27734-.3125.57422-.16797.28906-.36719.73828-.44922,1-.07031.26563-.19141.64063-.26953.83984-.21875.53906-.32813.91406-.32813,1.12109,0,.10547-.08984.34375-.20313.53516-.17578.28906-.19922.40234-.15234.73047.04297.33594.10547.42969.43359.71875.21484.18359.43359.33594.48047.33594s.25391.15234.46484.34375c.20703.19141.48047.38281.59766.44141.30469.125,1.02344.11719,1.39453-.01563.16797-.06641.58203-.12891.91797-.15234,1.47266-.08203,1.39453-.63281-.32031-2.20313-.21484-.20703-.25391-.29297-.25391-.60547,0-.19922.0625-.51953.15234-.70312.07813-.19531.20703-.47266.26953-.63281.07422-.16016.28906-.48047.48828-.70313.19922-.22656.42578-.49609.48828-.60156.12891-.18359.90625-.52734,1.21484-.52734.08203,0,.22656.05469.3125.12109.08203.0625.28906.11719.44922.11719.20703,0,.375.06641.55859.22656.14453.125.46484.35938.70703.51172.39063.24609,1.19922,1.03906,1.19922,1.17578,0,.03125.11719.11719.25391.20703.34375.19922.42578.29688.75391.96094.15234.30469.36719.70313.47266.87891.27734.44922.26172.89453-.02734,1.26563-.125.16016-.30859.49609-.39844.75-.16016.43359-.27344.55859-1.17578,1.375-1.10547.99219-1.18359,1.14453-.80859,1.58594.17578.20703.24219.22266.70313.21484.94531-.02344,2.02734-.18359,2.58594-.38281.47266-.16016.58203-.24219.73438-.49609.09766-.16797.29688-.36719.44922-.44141.33594-.17578,1.40625-1.39063,1.46484-1.66406.02344-.11719.14453-.40625.26172-.64844.29688-.57422.34375-.77344.37109-1.67969.03125-.91016-.02734-1.16016-.45703-2.18359-.25781-.59766-.39453-.82422-.61719-.99219-.16016-.10938-.67969-.60547-1.16797-1.09375-1.01563-1.02734-1.32031-1.26563-1.85547-1.48047-.51953-.20703-1.39844-.70313-1.51953-.86328-.15234-.19531-.12891-.64844.05469-1.16797.08984-.25.16016-.53125.16016-.625,0-.22656.46484-1.80078.61719-2.10547.07031-.12891.15234-.41406.18359-.64063.32031-2.02344.44141-2.60547.56641-2.87109.15234-.29688.19531-.45703.59375-2.41406.48047-2.40234.67188-2.89063,1.21484-3.07422.29688-.10156.35938-.10156.64063.01563.19922.09766.51953.14453.94531.14453.35156,0,.76563.00781.91797.00781.19141.00781.44141-.08594.78516-.29688.625-.38281.70313-.51172.57422-.94922-.33594-1.11328-.67188-1.37891-2.35156-1.84766-.56641-.16016-1.00781-.54688-1.01563-.89844-.00781-.24609-.21484-3.64844-.26953-4.32031-.01953-.23047-.08984-.50391-.15234-.59766-.07422-.09766-.12891-.26563-.12891-.37891,0-.23047-.50391-.98828-.77734-1.16797-.375-.24609-.54297-.26953-.87109-.125Z"/>

</g>
</svg>
