<?xml version="1.0" encoding="UTF-8"?>
<svg xmlns="http://www.w3.org/2000/svg"
     version="1.1"
     width="25.14094287mm"
     height="69.88052708mm"
     viewBox="0.00000000 0.00000000 71.26557313 198.08655699">

<g transform="scale(6.22744503)">   <defs>
      <style type="text/css"><![CDATA[
      .b {
        stroke: #000;
        stroke-miterlimit: 10;
        stroke-width: .15px;
      }
    ]]></style>
   </defs>
   <path class="b"
         d="M.73425,4.5917c1.80606-.30864,2.22026-1.8514,3.52527-1.83927,.95872,.00891,1.65241,.58667,1.91592,.84303,.21958,.21356,.73527,.78258,.99626,2.3757,.21076,1.28643-.32011,6.31936-.30655,7.74031,.02441,2.55008-.09915,5.50163-.07662,6.20752,.0278,.87039,.73347,3.88324,.76636,5.97764,.00587,.3748-.41824,5.47584-.22052,5.67072,.05643,.05561,.163,.072,.37379,.10253,.41795,.06047,.70028,.10141,.94314,.01138,.30883-.11443,1.28901-1.58212,1.6625-2.33596,.45641-.92124,.80266-3.69287,.61309-4.59818-.12061-.576-.13917-.79304-.19429-1.22486-.01617-.12663-.02844-.27085-.03564-.46114-.03018-.80097,.08133-1.057,.15327-1.91594,.1302-1.55413-.35185-4.09039-.61309-5.36455-.17665-.86171-.39252-1.91456-.45982-3.14206-.05264-.96045,.16908-4.9308,.22992-6.20758,.06163-1.29331,.11054-1.52509,.07662-2.22243-.04212-.86683-.08478-1.60445-.45982-2.45237-.25044-.56635-.57218-1.29379-1.3028-1.60939-.36836-.15911-2.7487-.03735-3.21873,.20439-.72719,.37398-.65665,.79308-1.43053,1.07291-.27556,.09969-.49956,.12431-.86856,.3321-.25251,.14217-.41095,.2789-.65773,.49437C.42091,3.75649-.03367,4.3255,.09562,4.54059c.02429,.04041,.11376,.14085,.63863,.05112Z"/>
   <path class="b"
         d="M8.2702,12.91955c.45952,.40406,.92903,.53698,1.02179,.56198,.26321,.07102,.7264,.19601,1.1751,0,.47243-.20633,.58155-.61676,.76636-.56198,.24364,.07222,.15821,1.74355-.25547,2.29909-.19417,.26074-.59367,.79727-1.17507,.81741-.52942,.01834-.91227-.40182-1.43057-.97068-.45914-.5039-.64898-.95242-.71525-1.12403-.09505-.24615-.24941-1.62882-.05112-1.686,.13662-.03937,.23904,.29031,.66421,.66421Z"/>

</g>
</svg>
