<?xml version="1.0" encoding="UTF-8"?>
<svg xmlns="http://www.w3.org/2000/svg"
     version="1.1"
     width="24.31831777mm"
     height="45.12403663mm"
     viewBox="0.00000000 0.00000000 68.93374256 127.91067209">

<g transform="scale(5.28647590)">   <defs>
      <style type="text/css"><![CDATA[
      .a {
        stroke: #000;
        stroke-linecap: round;
        stroke-linejoin: round;
        stroke-width: 0.01px;
      }
    ]]></style>
   </defs>
   <path class="a"
         d="M1.11948.15036A1.70673,1.70673,0,0,1,.78635.28967a1.0117,1.0117,0,0,0-.33313.212,1.08777,1.08777,0,0,0-.35131.533l-.09691.315.19988.40581a1.03784,1.03784,0,0,0,.46033.54513.6491.6491,0,0,1,.35735.41792,1.40114,1.40114,0,0,0,.35131.50878c.3089.27862.37552.3937.39369.68443a3.08179,3.08179,0,0,0,.67232,1.1387,3.16267,3.16267,0,0,1,.27256.38765,3.82552,3.82552,0,0,0,.33313.45426,8.25722,8.25722,0,0,1,.76317,1.04179,2.91719,2.91719,0,0,0,.53907.54512,1.98591,1.98591,0,0,1,.46032.4785c.04846.18171-.08479.41187-.48455.86008a2.44178,2.44178,0,0,0-.33919.4361,1.00556,1.00556,0,0,1-.18776.27256c-.18776.212-.18776.22411-.12114.46638a1.59486,1.59486,0,0,0,.642.75712.66506.66506,0,0,0,.83586-.06663c.19988-.27862.315-.30285.53906-.103.22411.19382.3937.24228.92065.26045a.68113.68113,0,0,1,.47244.12114c.103.103.103.11508-.01211.33313a1.07345,1.07345,0,0,0-.12114.315,4.281,4.281,0,0,1-.642.71471c-.5209.51484-.62992.64809-.59964.75712a1.2177,1.2177,0,0,1,.05452.212.236.236,0,0,0,.109.14536.54916.54916,0,0,1,.16354.23017,1.44264,1.44264,0,0,0,.68443.55117.85642.85642,0,0,1,.27862.12114.85733.85733,0,0,0,.36341.12114,1.47142,1.47142,0,0,1,.49667.212,3.54323,3.54323,0,0,0,.78134.39976.73092.73092,0,0,1,.43.60569.76.76,0,0,0,.15142.35736.7597.7597,0,0,1,.15142.33918.60368.60368,0,0,0,.13326.29679.803.803,0,0,1,.14536.36947,1.29428,1.29428,0,0,0,.11508.38765.90928.90928,0,0,1,0,.81162,2.80067,2.80067,0,0,0-.13325.66626,2.09209,2.09209,0,0,1-.07874.51484,1.41656,1.41656,0,0,0-.01817.4361c.03028.32707.02423.36341-.14537.52089-.09691.09086-.25439.22411-.34524.29073a2.96456,2.96456,0,0,0-.28467.24228c-.69049.73289-1.05391,1.06-1.19927,1.09024a1.034,1.034,0,0,0-.23016.07874,2.35682,2.35682,0,0,1-.58753.06663,2.21064,2.21064,0,0,0-.58146.06663,2.02659,2.02659,0,0,1-1.1811.02422,4.29445,4.29445,0,0,0-1.69593-.03634,2.43126,2.43126,0,0,1-.642.00606,1.90633,1.90633,0,0,0-.93277.29679,1.09451,1.09451,0,0,0-.47849.64809.332.332,0,0,1-.218.23016c-.1696.06662-.18171.09085-.18171.38764a.82021.82021,0,0,0,.04846.34524,2.28442,2.28442,0,0,0,.76922.01211c.13326-.01816.4361-.04846.66626-.06662.23622-.02422.54513-.05452.69655-.06662s.30284-.0303.33313-.0303a.89444.89444,0,0,1,.24227.05452c.55118.18776.62992.19987.76318.13325a5.98411,5.98411,0,0,1,1.73227-.24228,1.02065,1.02065,0,0,0,.38159-.06057.22012.22012,0,0,1,.24227,0,.896.896,0,0,0,.854-.18775.86144.86144,0,0,1,.34524-.212,1.221,1.221,0,0,0,.28468-.12114.45117.45117,0,0,1,.218-.0848.28562.28562,0,0,0,.1817-.09692,1.69984,1.69984,0,0,1,.35736-.23621.939.939,0,0,0,.3513-.29679c.03634-.08479.09691-.15748.1272-.15748a2.12494,2.12494,0,0,0,.64809-.58147,1.03169,1.03169,0,0,1,.23016-.315,5.69045,5.69045,0,0,0,.49666-.67837,1.50937,1.50937,0,0,0,.30891-.77528,1.67375,1.67375,0,0,1,.14536-.55118.88789.88789,0,0,0,.09086-.527,7.09944,7.09944,0,0,1,.32707-1.7565,1.28611,1.28611,0,0,0-.1272-.62992,2.72418,2.72418,0,0,1-.14536-.54512,2.93566,2.93566,0,0,0-.27256-.90854,1.93252,1.93252,0,0,1-.15142-.41793,1.45618,1.45618,0,0,0-.18766-.4119,1.09961,1.09961,0,0,1-.14537-.27256.57457.57457,0,0,0-.12113-.218,8.2897,8.2897,0,0,1-.62386-.963.54635.54635,0,0,0-.22411-.23017c-.25439-.07874-.2665-.24833-.03029-.62992a1.81269,1.81269,0,0,0,.26651-.67837,1.55814,1.55814,0,0,1,.11508-.45427A2.21547,2.21547,0,0,0,9.84748,9.2782c-.13931-.24228-.33918-.29074-1.50211-.36342a3.5818,3.5818,0,0,1-.75711-.103.81882.81882,0,0,0-.2907-.07878c-.24833-.03028-.39975-.13325-.44215-.29678-.05451-.23017.02423-.38159.29679-.53907A1.308,1.308,0,0,0,7.51556,7.564a1.00248,1.00248,0,0,1,.28468-.29073c.103-.05451.1817-.13931.1817-.18777a.64052.64052,0,0,1,.218-.27256,1.6558,1.6558,0,0,0,.33313-.424c.06663-.12114.14537-.22411.17565-.22411s.11509-.109.18171-.24227a1.1348,1.1348,0,0,1,.3513-.38764,1.70759,1.70759,0,0,0,.3089-.24228,1.57955,1.57955,0,0,1,.34525-.25439,1.49884,1.49884,0,0,0,.41792-.38764.80935.80935,0,0,1,.27862-.27256.63951.63951,0,0,0,.23622-.27256c.13931-.27862.315-.38765.50273-.32708.55723.18777.58146.18171,1.0115-.18776a3.64182,3.64182,0,0,1,.533-.41187c.07268-.03029.13931-.103.13931-.15748a2.63325,2.63325,0,0,0-.01817-.76317,2.226,2.226,0,0,1-.07874-.3513c-.03029-.19988-.05452-.23017-.15748-.20594-.15748.0424-.35736-.15142-.35736-.3513,0-.15748-.24228-.43-.4785-.52089a.538.538,0,0,0-.33918,0,.4299.4299,0,0,1-.27862,0c-.1272-.06663-.57541.19987-.8298.50272a.75432.75432,0,0,1-.25439.19988c-.06662.02423-.12114.07874-.12114.12719a2.29775,2.29775,0,0,1-.38764.527,2.86992,2.86992,0,0,0-.424.57541.36989.36989,0,0,1-.16354.19382,1.33011,1.33011,0,0,0-.29073.41187,1.89313,1.89313,0,0,1-.58133.67229,2.82126,2.82126,0,0,0-.527.527.99266.99266,0,0,1-.34524.32707,1.268,1.268,0,0,0-.57541.527,3.27785,3.27785,0,0,1-.61174.82374.25832.25832,0,0,1-.19988-.01211,4.516,4.516,0,0,1-.59964-1.49,1.15036,1.15036,0,0,0-.14536-.40581,1.84386,1.84386,0,0,1-.20594-.424,3.398,3.398,0,0,0-.29679-.56338,3.819,3.819,0,0,1-.315-.59963,1.66326,1.66326,0,0,0-.33313-.49667,2.882,2.882,0,0,1-.41187-.59358c-.13931-.27861-.24834-.41187-.37553-.46032a1.25031,1.25031,0,0,1-.36337-.3089A.58369.58369,0,0,0,2.64582.65309a.64025.64025,0,0,1-.315-.18171A1.50915,1.50915,0,0,0,1.5374.005,1.379,1.379,0,0,0,1.11948.15036Z"/>

</g>
</svg>
