<?xml version="1.0" encoding="UTF-8"?>
<svg xmlns="http://www.w3.org/2000/svg"
     version="1.1"
     width="52.26822582mm"
     height="55.01418965mm"
     viewBox="0.00000000 0.00000000 148.16188729 155.94574050">

<g transform="scale(3.65894339)">   <defs>
      <style type="text/css"><![CDATA[
      .b {
        stroke: #000;
        stroke-linecap: round;
        stroke-linejoin: round;
        stroke-width: .25px;
      }
    ]]></style>
   </defs>
   <path class="b"
         d="M20.06076,6.36314c-2.67821,4.61222-5.92147,8.89597-9.63418,12.72497-3.05142,3.147-5.61156,6.37952-9.05674,9.5167-.84027.76515-1.33429,1.96242-1.23137,3.09419.14636,1.60944,1.74396,3.0867,3.35898,3.02815,3.85089-.1396,6.55309-1.06848,9.44559-2.25532,1.81827-.74606,3.4901-1.80866,5.2099-2.75998-.56484-1.59608-2.63142-2.12325-4.29335-1.79999s-3.16553,1.22939-4.82556,1.56225c-.29959.06007-.6541.08516-.86698-.13403-.31961-.32908-.05454-.87092.21771-1.24014,2.21732-3.00713,5.53582-5.51018,7.83018-8.45895,1.96433-2.5246,2.6567-4.67149,4.64441-7.17772,1.94221-2.44887,3.9678-5.65208,6.10175-7.82182.45353-.46114.93339-.93432,1.14371-1.54597.4066-1.18244-.46138-2.5828-1.67469-2.88507-1.68045-.41865-2.46422.77909-3.30186,1.91006-1.0613,1.43295-2.15545,2.672-3.06749,4.24265v.00002Z"/>
   <path class="b"
         d="M19.67713,30.70315c-.26033,1.88596.16594,3.42271.45218,5.30491.06236.41003.16414.84198.46151,1.13109.5085.49439,1.33666.36594,2.01981.17542,2.94266-.82066,5.73596-2.17379,8.20401-3.9742-.02473,3.21555-2.57086,5.94975-2.82835,9.15507,1.7128-.93314,2.21192-3.1387,3.4786-4.62192,1.21882-1.42716,3.07116-2.10195,4.71155-3.01376,1.12862-.62735,2.18898-1.3929,3.06777-2.33899.70766-.76185,1.15983-1.11633,1.12162-2.15539-.03204-.87177-.53658-1.93116-.92886-2.8711-.38922-.93262-1.3314-1.4003-2.32873-1.23713s-1.91775.62333-2.82049,1.07759c-2.66966,1.34339-4.00325,2.36278-6.67291,3.70617-.12066.06072-1.58943.44719-1.72159.41923-.3085-.06528-.31692-.4995-.25126-.80792.64406-3.0253.7533-4.40581,1.21286-7.46458.15839-1.05425,1.19256-3.31634.42222-4.0533-.42325-.40491-1.69562-.55103-2.27998-.59111-.85187-.05842-1.91915-.05308-2.36443.67555-.92888,1.51999-1.90791,3.84796-2.1111,5.31996-.3079,2.23064-.53653,3.93376-.84444,6.1644h0Z"/>

</g>
</svg>
