<?xml version="1.0" encoding="UTF-8"?>
<svg xmlns="http://www.w3.org/2000/svg"
     version="1.1"
     width="44.21121634mm"
     height="55.75488175mm"
     viewBox="0.00000000 0.00000000 125.32314363 158.04534913">

<g transform="scale(4.24666441)">   <defs>
      <style type="text/css"><![CDATA[
      .b {
        stroke: #000;
        stroke-linecap: round;
        stroke-linejoin: round;
        stroke-width: .25px;
      }
    ]]></style>
   </defs>
   <path class="b"
         d="M14.81685,6.42432c.10743-1.10461.31001-2.20981.22688-3.31652s-.50135-2.25072-1.39389-2.91032c.00571.94365-1.39489,1.1274-2.24954.7273s-1.77873-1.06581-2.64318-.68736c-.16036.0702-.31462.18721-.36342.35532-.20627.71054,1.39277.73322,1.41651,1.47272.01604.49967-.736.71198-.81682,1.20533-.06758.41255.35461.71298.65465,1.00409.70766.6866.8684,1.86889.36975,2.7195-.22581.38519-.56123.69269-.83048,1.04887-.68925.91178-.90974,2.0887-1.02772,3.22557-.29382,2.83148-.07638,5.69093-.22008,8.53399-.27304,5.40191-1.83199,10.93793-.25936,16.11306.12619.41527.30299.86213.68722,1.06398.41308.217.91517.07524,1.3585-.07029,1.47996-.48583,2.95992-.97167,4.43989-1.4575-1.25152-4.23526-2.17923-8.56617-2.77235-12.94246-.12457-.91915-.17399-2.00681.5332-2.607.73743,1.07773,1.0039,2.46612.71785,3.74028-.12269.5465-.33267,1.15581-.03883,1.63265.34332.55713,1.21813.54787,1.73128.14176s.74572-1.06481.92225-1.69496c1.68069-5.99963-1.02127-11.34498-.44231-17.29801Z"/>
   <path class="b"
         d="M16.94458,12.24637c2.06582-1.36191,4.37548-2.35276,6.78599-2.91123.23066.74782-.09114,1.58032-.62759,2.15011s-1.25768.92484-1.97225,1.24394c-3.38106,1.50984-6.97667,2.48222-10.40832,3.87325-3.43165,1.39102-6.78481,3.27702-9.06973,6.19083-1.0157,1.29526-1.82492,2.9514-1.42211,4.54736.3657,1.44891,1.70076,2.51858,3.15165,2.87633,1.45089.35775,2.99167.09848,4.40276-.39335,1.83559-.63978,3.58978-1.72846,4.60907-3.38368.39548-.64221.67672-1.40494.53068-2.14488s-.83866-1.40316-1.58635-1.30414c-.57052.07556-.99866.53558-1.47725.85518s-1.21501.46511-1.56315.00686c-.44407-.58453.21832-1.36533.8394-1.75664,3.28344-2.06873,7.1745-2.88531,10.8182-4.22099,3.6437-1.33569,7.32435-3.46476,8.88443-7.01818.50802-1.15713.75943-2.49888.31886-3.68332-1.04413-2.80705-4.84067-1.87142-6.89793-.91563-2.48633,1.15513-4.51908,3.34681-5.31636,5.98818Z"/>
   <path class="b"
         d="M18.88095,22.69297c-.55794-.49341-1.07798-1.04968-1.74057-1.38988-1.3777-.70735-3.12246-.31061-4.36565.6129-1.3694,1.01726-2.25944,3.02014-1.3218,4.44524.73289,1.1139,2.20717,1.39562,3.50681,1.69366s2.77012.90373,3.08841,2.19856c.24354.99072-.30268,2.0173-.21226,3.0335.04103.46105.35103.99751.81019.93896.17425-.02222.32441-.12897.46641-.23236,1.16723-.84988,2.33446-1.69976,3.50168-2.54964.65115-.47412,1.37782-1.29331.93346-1.96512-.18871-.28529-.58074-.53468-.46836-.85774.08459-.24317.3975-.29763.65425-.31676,1.31646-.09805,2.67897-.33949,3.74369-1.11996,2.88294-2.11331-1.57199-1.59523-2.91928-1.81949-2.08889-.3477-4.08793-1.26657-5.67699-2.67187h.00001Z"/>

</g>
</svg>
