<?xml version="1.0" encoding="UTF-8"?>
<svg xmlns="http://www.w3.org/2000/svg"
     version="1.1"
     width="40.48126526mm"
     height="41.01534165mm"
     viewBox="0.00000000 0.00000000 114.75001272 116.26399165">

<g transform="scale(3.49229315)">   <defs>
      <style type="text/css"><![CDATA[
      .b {
        stroke: #000;
        stroke-linecap: round;
        stroke-linejoin: round;
        stroke-width: .01px;
      }
    ]]></style>
   </defs>
   <path class="b"
         d="M9.54777.12533c-.26563.05469-.80078.14063-1.1875.19141-.39063.04688-.91016.16797-1.15625.26953-.25.10547-.59375.23438-.76172.28906-.38281.12109-.65625.48047-.91406,1.21484-.19922.57031-.19922.61719-.14844,1.97656.0625,1.50391.125,1.79297.48438,2.07422.27344.21484,1,.23828,2.03516.05469.375-.0625.96484-.14453,1.30469-.16797.44531-.03125.6875-.09766.87109-.21484.54297-.37109,1.29688-2.14453,1.47266-3.49609.19922-1.48047.14844-1.80078-.35547-2.13672-.30859-.21484-.86328-.23047-1.64453-.05469Z"/>
   <path class="b"
         d="M15.41105.32455c-.12891.04688-.34375.28516-.55469.59766l-.33594.51953.09766.57031c.08984.54297.18359.77734.77734,1.90234.18359.34375.23047.54688.23047.9375,0,.43359-.04688.58203-.41406,1.32031-.28125.54297-.69141,1.16016-1.21875,1.82422-1.24609,1.55859-1.65625,2.09375-1.80859,2.39063-.07031.15234-.35938.51172-.62891.80078-.27344.28906-.9375,1.05469-1.47266,1.70313-.54297.65625-1.00781,1.18359-1.03906,1.18359-.03516,0-.27344.26563-.53906.58594-.26172.3125-.67969.79297-.92578,1.05469-.25781.26563-.59375.71094-.76172,1s-.45703.67969-.64063.87891c-.17578.20313-.46875.61719-.64844.9375-.20703.375-.67969.97656-1.39063,1.76172-.59766.64453-1.15234,1.30859-1.23047,1.46094-.08203.15234-.28125.44141-.44141.64063-.78516.95313-1.83203,2.85547-2.18359,3.96094-.33594,1.07813-.36719,2.01563-.08984,2.98438.15234.51172.68359,1.51953.90625,1.72656.21484.19141,2.19922.98437,2.93359,1.16797,1.09766.27344,1.89063.32031,2.71484.15234.39844-.07031.86328-.16016,1.03906-.19141s.625-.13672,1-.23828c.375-.09766.86328-.21875,1.07813-.26562.47266-.10547,1.69922-.51953,2.03516-.69531.13281-.06641.36719-.28906.52734-.50391.35938-.47266,1.19922-1.13672,1.4375-1.13672.10547,0,.36328.12891.57031.28125.86328.61328,2.45703,1.30078,4.67188,2.00781.72656.23047,1.53516.49609,1.80078.58984,1.96875.71484,2.07813.73828,4.20703.80859,1.08984.03906,2.77734.12109,3.76172.18359,2.59766.16797,3.63672-.00781,3.91015-.66406.16016-.39063.03906-.69531-.42578-1.03906-1.02344-.76953-2.78125-1.55859-4.10937-1.84766-.20703-.04688-.5625-.15234-.78516-.24219-.21484-.07813-.88672-.30078-1.48047-.48438-1.3125-.41797-1.67188-.58594-2.28906-1.09766-.25391-.20703-.67188-.51953-.91016-.67969-.6875-.45703-1.71875-1.44922-2.48828-2.40234-.55859-.70313-.74219-1.00781-.96094-1.56641-.14453-.375-.35938-.89453-.48828-1.15234-.125-.24609-.35156-.85547-.51172-1.33594-.29297-.92578-.51953-1.28125-.90234-1.42969-.19141-.08984-.32031-.07422-.76953.0625-.29297.09375-.65625.16797-.80078.16797-.26172,0-.59766.16016-1.79688.83984-1.35156.76172-2.21094,1.86328-2.57031,3.29688-.10938.45313-.08594.6875.29688,2.83984.10547.59766.16797,1.14453.14453,1.21484-.02344.07422-.12891.14453-.22266.16016-.08984.01563-.50391.11328-.91406.20703-1.19141.28125-1.65625.16016-2.09375-.53516-.32813-.51172-.41797-1-.32813-1.86328.09375-.88672.39844-1.80859,1.07813-3.20703.64844-1.34375,1.23828-2.32813,1.67188-2.79297.47266-.49609.92969-1.07422,1.33594-1.67969.19141-.28906.71875-.87891,1.16016-1.32031.44922-.44141.88672-.94531.98438-1.12891.08594-.17578.375-.55859.63281-.84766,1.08594-1.21484,1.56641-1.80859,1.75781-2.14453.11328-.19922.37109-.60547.57813-.91016.38281-.57813.87891-1.38672,1.28516-2.12891.13672-.24219.32031-.55078.41016-.6875.14453-.23438.28906-.67188.48047-1.49609.03906-.16797.17578-.51172.30469-.76953.76563-1.51953,1.04688-3.17578.72656-4.26953-.32813-1.10547-.55859-1.49609-1.07813-1.81641-.25-.15234-.41016-.16797-2.17969-.20313-1.14063-.01563-1.98828,0-2.11719.05078Z"/>

</g>
</svg>
