<?xml version="1.0" encoding="UTF-8"?>
<svg xmlns="http://www.w3.org/2000/svg"
     version="1.1"
     width="26.61197705mm"
     height="29.03302382mm"
     viewBox="0.00000000 0.00000000 75.43548113 82.29838008">

<g transform="scale(6.12458075)">   <defs>
      <style type="text/css"><![CDATA[
      .b {
        stroke: #000;
        stroke-miterlimit: 10;
        stroke-width: .15px;
      }
    ]]></style>
   </defs>
   <path class="b"
         d="m4.02292,3.8369c.31433-.14198.61432-.30127.92269-.49244.58557-.36301,1.17113-.72602,1.7567-1.08903.39666-.2459,1.1759-.59978,1.15255-1.14629-.01813-.42444-.38843-.94378-.8243-1.01782-.28649-.04866-.55056.01668-.81945.12715-.07067.02904-.14082.06204-.19959.11087-.13265.11023-.18972.2838-.26659.43819-.16144.32426-.48767.34913-.74792.55564-.53249.42255-1.11352.77703-1.68658,1.14063-.46764.29671-1.0093.65317-1.38247,1.06797-.13385.14879-.2343.32762-.38395.46051-.09446.08388-.20538.14657-.31358.21177-.30182.18188-.58899.38805-.85784.61588-.12358.10473-.43336.39295-.23034.56031.06368.0525.14994.06692.23213.07439.68128.06193,1.21992-.24099,1.74762-.62292.43107-.31199.89248-.5937,1.39125-.78364.17602-.06703.34482-.13673.50967-.21119Z"/>
   <path class="b"
         d="m6.68388,5.82772c.39797-.91933.50512-1.94195.8851-2.86887.044-.10733.09192-.21427.11363-.32821.03439-.18053.00092-.36629-.03252-.547-.03287-.17763-.06912-.36296-.18088-.50488-.08966-.11386-.22038-.18879-.35566-.24078-.30707-.11802-.65429-.12848-.9679-.02915-.25498.08076-.49405.2407-.62147.47586-.05807.10717-.0912.22568-.13253.34036-.24352.6758-.77337,1.22303-.99248,1.90713-.19339.60381-.45862,1.17943-.63948,1.78711-.03641.12232-.07203.24613-.08039.37348-.04048.61659.51781,1.06082,1.05281,1.22036.34979.10431.71848.12383,1.08315.13964.11202.00486.22651.00914.33392-.02305.25759-.0772.21498-.25024.21482-.468-.00034-.45228.14021-.81894.31988-1.234Z"/>
   <path class="b"
         d="m9.5773,13.27547c.40414.16225.89223.09351,1.23583-.17406.08925-.0695.17222-.15292.27931-.18936.07515-.02557.15632-.02575.23425-.04089.238-.04625.43875-.24569.48657-.48338.04687-.233-.01804-.53302.18096-.66298.02904-.01896.06265-.03277.08458-.05964.02662-.03261.03061-.07758.03347-.11958.01459-.21385.02152-.45219-.11845-.61454-.02847-.03303-.06327-.06334-.07615-.105-.01257-.0407-.00169-.08476.01243-.12495.08216-.23399.34932-.37054.30729-.64316-.01731-.11225-.09116-.2169-.19603-.26051-.01608-.00669-.03468-.01381-.04068-.03016s.01803-.00644.02882.00723c-.29292-.10443-.56845-.25154-.84273-.3981-.20301-.10847-.40601-.21695-.60902-.32542-.10883-.05815-.21765-.1163-.32648-.17445-.28306-.15125-.56612-.3025-.84918-.45375-.47949-.25621-.83829-.60997-1.27736-.9284-.42141-.30563-.96093-.56715-1.07954-1.07403-.03853-.16467-.04297-.36825-.18979-.45218-.05951-.03402-.13125-.03914-.19405-.06661-.08636-.03777-.15195-.11976-.16984-.21231-.01366-.07063-.00162-.14727-.03275-.21213-.01968-.041-.05456-.07243-.08967-.10136-.51664-.42581-1.142-.5398-1.6882-.14112-.47749.34852-.80535.85139-1.15052,1.32126-.05103.06946-.10206.13893-.15308.2084-.04325.05889-.08648.11779-.12972.17669-.05409.07369-.10819.14738-.16228.22107-.08307.11316-.16661.22709-.22828.3532-.1006.2057-.10572.39983-.11521.6219-.00619.14473-.07387.32718-.01429.47249.05556.1355.21592.20291.27864.33523.08482.17894.26982.54083.44383.62815.00161.01022-.0216.03116-.0443.01518.16691.0987.25765.28402.36693.44419.07442.10908.16056.20957.24651.30981.23243.27108.48838.52455.78295.72805.30784.21267.66136.27561.9328.55432.08255.08476.1567.18016.25596.24455.10587.06867.23492.09828.33398.17644.08549.06745.142.16603.2267.23447.06987.05645.15516.08948.23741.12559.20237.08884.37677.22251.57649.30791.23576.10081.50777.14598.75782.1969.4913.10004.98605.17712,1.45408.36503Z"/>

</g>
</svg>
