<?xml version="1.0" encoding="UTF-8"?>
<svg xmlns="http://www.w3.org/2000/svg"
     version="1.1"
     width="23.27692590mm"
     height="55.83534535mm"
     viewBox="0.00000000 0.00000000 65.98185295 158.27345593">

<g transform="scale(2.74024787)">   <defs>
      <style type="text/css"><![CDATA[
      .b {
        stroke: #000;
        stroke-linecap: round;
        stroke-linejoin: round;
        stroke-width: .01px;
      }
    ]]></style>
   </defs>
   <path class="b"
         d="M2.85543.11926c-.125.05859-.40625.17578-.60547.27344-.41797.17578-.79297.57422-.79297.83203,0,.08984-.07031.23828-.15234.32813-.16797.17578-.80859,1.42578-.80859,1.56641,0,.05078-.07812.24219-.17578.42578C.05075,4.05676-.09379,6.02551.082,6.9591c.14453.80859.75781,2.14453,1.13672,2.48828.22266.21094.23828.25781.23828.82422,0,.32813-.03125.625-.07813.64844-.04297.02344-.08203.16797-.08203.30469-.00781.14453-.05469.34375-.12109.45703-.07031.12891-.10938.4375-.11719.85547,0,.35938-.04297.67969-.08203.70313-.04688.03125-.07813.48047-.07813,1.08203,0,.94141.01563,1.04688.19922,1.36719.10938.19141.19922.42188.19922.51953,0,.08594.03125.19141.08203.23828.04688.05078.09375,1.67969.11719,4.23438.06641,7.05469.11328,8.59765.24219,8.78125.16797.25.16797,2.42578,0,2.66406-.16016.24219-.21094,2.24219-.20313,8.64844,0,1.99219-.07813,4.29688-.15625,4.37891-.05078.04688-.08203.27734-.08203.52734-.00781.23828-.05469.52734-.12109.64063-.08594.15234-.10938.51953-.11719,1.47656,0,.73047-.03516,1.32031-.08203,1.37109-.03906.03906-.09375,1.22266-.11328,2.87109-.02344,1.54297-.04688,3.04688-.04688,3.35938-.01563.76953.10547,1.79297.24219,2.0625.05469.12109.19141.24219.28516.26563.34375.08984,1.75391-.07813,1.9375-.23047.12891-.10547.33594-.58594.33594-.77734,0-.07031.07031-.19922.16797-.28125.15234-.14453.40625-.19922,1.47266-.32813.32813-.03906.46484-.10938.74219-.375.18359-.18359.41016-.48047.49609-.65625.16797-.35156.21875-.99219.08203-1.12891-.08203-.07813-.21094-.60547-.29688-1.21484-.02344-.18359-.08203-.35938-.11328-.38281-.03906-.02344-.07031-.20703-.07031-.41797,0-.20703-.05859-.44531-.12109-.52734-.08594-.12109-.12109-.39063-.12109-1.0625v-.89844l.48047-.48047c.26563-.26172.48047-.51953.48047-.57422,0-.04688.33594-.44141.74609-.86328.40625-.42578.80469-.87891.90234-1.00781.25-.375.59375-1.06641.59375-1.19922,0-.07422.08594-.28906.19922-.48828.10938-.20313.19922-.41016.19922-.46484,0-.0625.12891-.36719.28125-.67969s.27734-.60156.27734-.64844.12891-.33594.28125-.64063.28125-.60938.28125-.67969c0-.0625.14453-.38281.32031-.71094.17578-.32031.32031-.64844.32031-.72266,0-.19141.98047-2.16016,1.33594-2.67969.10156-.15234.36719-.64844.58984-1.09375.21484-.45703.43359-.84766.48047-.87109.03906-.03516.19922-.3125.35938-.625.15234-.32031.33594-.64063.41016-.71094.0625-.07422.20703-.3125.30859-.52344.10547-.20703.33594-.58203.51563-.82422.17578-.23828.31641-.47656.31641-.52734,0-.04688.07422-.15234.16797-.23828.08984-.08203.23438-.3125.32813-.51953.08984-.21094.22656-.44141.3125-.51953.08203-.07422.15234-.17578.15234-.22656,0-.04688.76953-.86328,1.70313-1.82422,1.89844-1.94141,2.53125-2.64063,2.69922-2.97656.0625-.125.26953-.35156.45313-.50391.18359-.14844.36328-.35156.39453-.44531.04688-.16797.3125-.48828,1.25391-1.51953.25-.28125.45703-.58594.45703-.66406,0-.08984.05469-.23438.12109-.32031.07031-.08984.11719-.33594.11719-.63281,0-.32813.05078-.55859.15234-.72656.20313-.32813.28906-.92188.17578-1.14453-.10156-.19141-.63672-.48828-.87891-.48828-.08594,0-.18359-.03906-.20703-.08203-.02344-.04688-.19922-.07813-.38281-.07813-.1875-.00781-.42578-.05859-.53906-.12109-.10938-.0625-.41406-.11328-.67969-.12109-.48047,0-.48828.00781-.89453.41797-.23438.23828-.51953.64844-.65625.93359-.19141.40234-.45703.73047-1.25,1.53125-.55078.55859-1,1.05469-1,1.10156,0,.05078-.125.21094-.27734.34375-.15234.14453-.28125.30469-.28125.35938,0,.05859-.17578.29688-.39844.53906-.21875.23828-.40234.47266-.40234.50391,0,.03906-.78906.86328-1.75,1.82422-.96875.96484-1.77734,1.83203-1.80078,1.93359-.02344.09766-.13672.23438-.25781.3125-.10938.07422-.25391.25-.31641.38281-.06641.14453-.25781.45703-.43359.69922-.17578.23828-.32031.48047-.32031.52734s-.08984.16797-.19922.26953c-.11328.10547-.19922.23438-.19922.28906,0,.04688-.05859.13672-.12891.19922-.07422.05859-.23438.3125-.35938.5625-.12891.25391-.26563.48047-.3125.51172-.04688.02344-.13672.18359-.20703.34375-.06641.16016-.1875.36719-.27344.45703-.08203.08594-.3125.51172-.51172.93359-.20703.42578-.41016.80078-.44922.82422-.04688.03125-.21484.3125-.36719.625-.16016.32031-.33594.63281-.39063.69531-.06641.0625-.39453.67188-.73828,1.35156s-.66406,1.25-.71875,1.26563c-.12891.04688-.21484-.41797-.11328-.60938.05859-.10156.08984-1.28906.08984-3.50391.00781-2.75.02344-3.375.11719-3.54297.16797-.28906.16797-3.3125,0-3.60156-.15625-.26953-.17578-5.91015-.02344-6.18359.15234-.25391.22656-1.40625.30469-4.57422.04688-1.54688.09766-3.25.12109-3.78516l.04688-.99219-.34375-.52734c-.47266-.71875-.54297-.86328-.54297-1.04688,0-.08984-.03125-.17578-.07422-.20313-.03906-.02344-.10938-.21484-.16016-.41406-.09375-.36719-.08594-.38281.14453-.625.13672-.14453.25-.29688.25-.34375s.07813-.19141.18359-.32031c.45703-.55078.9375-1.82422.9375-2.46484,0-.30078.04688-.54297.11719-.64844.16797-.21484.16016-1.375-.00781-1.76563-.07031-.16797-.17578-.39063-.22266-.50391s-.16016-.3125-.25781-.44141c-.08594-.13672-.22266-.36719-.29297-.52734-.07422-.15234-.21094-.35156-.30469-.44141-.08984-.07813-.27344-.35156-.39453-.58984-.25391-.51172-.81641-1.12109-1.01563-1.12109-.07813,0-.24609-.05469-.375-.12109C4.3359-.03309,3.19137-.03309,2.85543.11926Z"/>

</g>
</svg>
