<?xml version="1.0" encoding="UTF-8"?>
<svg xmlns="http://www.w3.org/2000/svg"
     version="1.1"
     width="47.30541796mm"
     height="49.97498305mm"
     viewBox="0.00000000 0.00000000 134.09409152 141.66140847">

<g transform="scale(3.65894339)">   <defs>
      <style type="text/css"><![CDATA[
      .b {
        stroke: #000;
        stroke-linecap: round;
        stroke-linejoin: round;
        stroke-width: .25px;
      }
    ]]></style>
   </defs>
   <path class="b"
         d="M23.02746,9.6362c-5.17446,5.6353-11.63781,9.4756-18.02917,15.06888-.87537.76607-1.58859,1.83388-1.63044,2.99637-.01379.38304.06642.78778.3189,1.07617.36923.42174,1.02411.48836,1.55503.30861s.96725-.55823,1.38759-.92906c3.1632-2.79059,6.42564-6.06656,9.97503-8.34582,6.87397-4.41418,11.25625-8.83965,15.40113-14.37632.34205-.4569.68793-1.05616,1.25803-1.02896.44158.02107.77316.40274,1.18158.57193.84331.34936,1.85525-.36716,2.03807-1.26147s-.28157-1.81737-.94253-2.44693c-2.39707-2.28317-4.00947-.77362-6.09016,1.24401-2.09862,2.03503-4.31081,4.82224-6.42306,7.12259Z"/>
   <path class="b"
         d="M2.04123,31.76713c3.54609.33956,6.44255.07558,9.95736-.50422.89326-.14735,1.95661-.48471,2.15105-1.36892.15424-.70143-.38241-1.40649-1.04126-1.69235s-1.40585-.25509-2.12315-.21925c-1.33457.06668-2.66914.13336-4.00371.20004-.27946.01396-.58018.0225-.81432-.13071-.18664-.12213-.29858-.32673-.43098-.50622-2.93108-3.97334-8.5787,3.75397-3.69498,4.22162h-.00001Z"/>
   <path class="b"
         d="M12.95371,29.01209c-.45788.71707-.91496,1.45752-1.10043,2.28785s-.05299,1.78009.54479,2.38551c.53577.54262,1.34363.72023,2.1061.73153.79313.01176,1.69818-.20484,2.06858-.90627.2259-.42778.19847-.93758.21718-1.42097.0914-2.36107,1.39525-4.49313,2.79823-6.39435s2.97393-3.74737,3.7502-5.97905c.12103-.34795.2078-.77479-.03546-1.05146-.17047-.19387-.44776-.24416-.70311-.28289-1.25771-.19077-3.87951-.53689-3.57009.87817.24568,1.12353-.55675,1.80144-1.14144,2.65978-1.62285,2.38239-3.38029,4.65806-4.93454,7.09215h-.00001Z"/>
   <path class="b"
         d="M16.81528,30.60897c-.34854.09725-.70602.19881-.9956.41579-.5953.44605-.75084,1.37894-.33246,1.994.6003.8825,1.95624,1.03497,2.94414.63097,3.51499-1.43744,4.65969-1.8826,6.63113-2.26417,1.25209-.24234,1.38353-.85941,2.13154-1.89234,1.59076-2.19668-2.45034-1.31502-3.3022-.95044-2.22435.95198-4.74632,1.416-7.07655,2.06619Z"/>
   <path class="b"
         d="M22.77308,33.80216c-.35948.95879-1.04067,2.66274-.52915,3.54977.4499.78019,1.37129,1.2089,2.27144,1.23775.39214.01257.78032-.04124,1.15887-.14173.61435-.16309.86806-.86971.52533-1.40502-.25136-.3926-.3191-1.50241-.31034-1.96887.02229-1.18711.85639-1.54312,1.87907-2.14633.34103-.20115.70595-.37617.98446-.65757.28393-.28687.45652-.6627.62346-1.03018.4379-.96395.8758-1.9279,1.3139-2.89228,1.43833-3.16651-2.70109-3.72853-4.22854-1.35015-.78919,1.22885-1.18477,2.27129-2.01012,3.53301-.80796,1.23514-1.15672,1.88028-1.67837,3.27161h-.00001Z"/>

</g>
</svg>
