<?xml version="1.0" encoding="UTF-8"?>
<svg xmlns="http://www.w3.org/2000/svg"
     version="1.1"
     width="38.88090027mm"
     height="37.29125085mm"
     viewBox="0.00000000 0.00000000 110.21365111 105.70749637">

<g transform="scale(5.77949253)">   <defs>
      <style type="text/css"><![CDATA[
      .a {
        stroke: #000;
        stroke-linecap: round;
        stroke-linejoin: round;
        stroke-width: 0.01px;
      }
    ]]></style>
   </defs>
   <path class="a"
         d="M17.22281.28362a1.93771,1.93771,0,0,0-.49666.424A.68123.68123,0,0,1,16.496.956a1.2362,1.2362,0,0,0-.26044.23017,3.09817,3.09817,0,0,1-.25439.29073.60748.60748,0,0,0-.1696.29679,2.27886,2.27886,0,0,1-.533.848,1.127,1.127,0,0,0-.212.24833.80456.80456,0,0,1-.321.26045c-.11509.04845-.20594.109-.20594.13325a11.003,11.003,0,0,1-1.10842,1.605,2.59231,2.59231,0,0,1-.41187.27862.78916.78916,0,0,0-.27862.2665.77775.77775,0,0,1-.24833.26045.841.841,0,0,0-.27862.30284.95859.95859,0,0,1-.321.34525,3.74268,3.74268,0,0,0-.48455.3937,2.71238,2.71238,0,0,1-.44821.3513,1.06145,1.06145,0,0,0-.29073.212,3.9053,3.9053,0,0,1-.89643.62992,1.27017,1.27017,0,0,0-.38158.27862,7.46373,7.46373,0,0,1-1.169,1.14475,2.15,2.15,0,0,0-.46638.33313,5.7646,5.7646,0,0,1-.56935.43,1.47352,1.47352,0,0,0-.321.26651,1.32922,1.32922,0,0,1-.40582.29678,1.13874,1.13874,0,0,0-.58146.533.92082.92082,0,0,1-.315.29679,1.66841,1.66841,0,0,0-.36341.26045c-.09086.0848-.212.19988-.27257.25439a3.39977,3.39977,0,0,0-.67837.82374c-.05451.13325-.22411.28467-.56329.51484a1.32572,1.32572,0,0,1-.8298.32707,1.07175,1.07175,0,0,0-.6602.13931.33119.33119,0,0,1-.22411.0424,3.05426,3.05426,0,0,0-1.15081.81768c-.03029.03028-.22411.218-.424.41793-.38159.37552-.46033.5754-.33919.90853.03028.0848.07268.23017.09691.321.04845.2241.44821.40581,1.0115.46032a1.32346,1.32346,0,0,1,.23622.18171c.1696.15748.26651.19382.7026.27256a2.10324,2.10324,0,0,1,.424.17565,4.13509,4.13509,0,0,0,1.04784.37553A1.69134,1.69134,0,0,1,4.049,18c.17565.12719.29679.16959.38159.14537a.35392.35392,0,0,1,.25439.04239,1.47823,1.47823,0,0,0,.55723.09691c.66626.01212,1.06-.24227,1.06-.69654a1.06617,1.06617,0,0,1,.14537-.40581,1.2038,1.2038,0,0,0,.15142-.636,2.00045,2.00045,0,0,1,.03634-.43c.01817-.02423-.05451-.14536-.15142-.27256a1.06381,1.06381,0,0,1-.27256-.64809.46631.46631,0,0,0-.19382-.33313,3.754,3.754,0,0,1-.315-.26045,2.39522,2.39522,0,0,0-.44821-.29073c-.36947-.18776-.45427-.3513-.321-.60569a.66574.66574,0,0,1,.23622-.26045,5.17548,5.17548,0,0,0,.745-.58752c.103-.09085.30285-.24227.44216-.33918a1.497,1.497,0,0,0,.39975-.40582,1.38035,1.38035,0,0,1,.30285-.33313,1.154,1.154,0,0,0,.27861-.321,2.30571,2.30571,0,0,1,.29074-.36947c.29073-.27862,1.00544-.90854,1.18109-1.04785.09086-.07268.27256-.23016.3937-.34524a3.298,3.298,0,0,1,.39977-.327,3.61873,3.61873,0,0,0,.3937-.29073,4.2516,4.2516,0,0,1,1.0963-.71471c.24228-.07874.56329-.3513,1.85947-1.56269a17.387,17.387,0,0,0,1.9685-2.04118,4.102,4.102,0,0,1,.49666-.5754c.1272-.11508.44216-.41793.69655-.67232a3.89125,3.89125,0,0,1,.77528-.62386,3.79864,3.79864,0,0,0,.75106-.61781,2.66738,2.66738,0,0,1,.81162-.636c.47244-.21805.62387-.39976.61175-.73894C19.052.641,19.052.641,18.67041.48955a1.7434,1.7434,0,0,1-.424-.218A.79885.79885,0,0,0,17.78.005,2.1204,2.1204,0,0,0,17.22281.28362Z"/>

</g>
</svg>
