<?xml version="1.0" encoding="UTF-8"?>
<svg xmlns="http://www.w3.org/2000/svg"
     version="1.1"
     width="64.16865153mm"
     height="22.97914922mm"
     viewBox="0.00000000 0.00000000 181.89542509 65.13776288">

<g transform="scale(3.49229315)">   <defs>
      <style type="text/css"><![CDATA[
      .b {
        stroke: #000;
        stroke-linecap: round;
        stroke-linejoin: round;
        stroke-width: .01px;
      }
    ]]></style>
   </defs>
   <path class="b"
         d="M47.51239.03665c-.02344.02344-1.48047.07422-3.24219.10547-4.40625.08594-4.54297.08594-5.35938.13672-.39063.02344-1.28125.10938-1.96094.20703-.71094.08594-1.64453.16016-2.19922.15234-1.16797-.00781-2.39844.0625-2.51953.13672-.17578.10156-2.20703.27734-2.71875.23047-.38672-.03125-.70313-.00781-1.22656.12109-.39063.09375-.94141.16797-1.22266.16797-.33594,0-.61719.04688-.77734.13672-.20703.10938-.46875.125-1.50391.11719-.74219-.00781-1.58984.03906-2.11719.11328-1.28906.17578-3.25.34375-4.09766.35156-.40625,0-1.07031.0625-1.48047.15234-1.45703.29688-4.53516.26563-7.41406-.07031l-.84766-.09766-.63281.32031c-.35156.17578-.70312.38281-.77734.47266-.16016.16797-.35156.95703-.46484,1.87891-.10156.80859-.16016.94531-.70313,1.64063-.24609.32813-.55859.72656-.67969.88672s-.48047.54297-.80078.85547c-.32031.30469-.71875.77734-.89453,1.04297-.17578.26172-.54297.71875-.81641,1.02344-.28125.29297-.50391.56641-.50391.60547,0,.04297-.24609.27344-.55859.52734-.81641.66406-1.07422,1.05859-1.44141,2.21875-.64844,2.01563-.63281,1.87891-.39844,3.20703.07813.45703.14063.59375.44531.92969.42578.46875,1.05859.80469,1.51172.80469.18359,0,.53125.05859.76953.12891.91016.27344,2.63281.00781,4.3125-.66406,3.0625-1.23047,4.49609-2.27734,5.81641-4.28906.51953-.79688,1.74219-3.22266,1.94141-3.85547.05859-.17578.1875-.55078.28906-.83984.09766-.28516.25781-.78125.35156-1.09375.25-.875.22656-.86328,2.32031-.86328,1.73047,0,3.38281-.11328,4.80078-.32031.41406-.06641,1.03125-.13672,1.35938-.16016,2.87891-.23438,5.57813-.53906,6.08203-.6875.15234-.04297.58203-.11328.95703-.15234.37891-.04297,1.00781-.11328,1.40234-.16016.77344-.08984,2.39844-.19141,4.96094-.32031.87891-.03906,2.01563-.12109,2.51953-.16016,2.91797-.26563,5.00781-.30469,5.52734-.10547.28906.11328.75781.14453,2.71094.17578,3.83984.06641,3.42578.08203,3.64844-.17578.30469-.35156.26563-.80859-.14453-1.55859-.17578-.33594-.42188-.73047-.54297-.85547-.12109-.13672-.39453-.53125-.60938-.88281-.51172-.84766-.82422-1.23047-1.10938-1.375-.22656-.12109-1.875-.25391-1.96094-.16016ZM10.43036,6.82181c.40234.09375.80859.19141.92188.22266.12109.03125.25391.16016.34375.34375.12891.25781.13672.35156.05469.80078-.05469.28125-.25391.92969-.45703,1.44141-.40625,1.05469-.93359,1.81641-1.87109,2.67969-.63281.58984-.69531.625-1.42188.73438-.51953.08203-.61719.08203-.83984-.04688-.14453-.08984-.32813-.3125-.44922-.54297-.16797-.33594-.19922-.51172-.19922-1.12109,0-.66406.02344-.78516.34375-1.55859.625-1.53125,1.12891-2.40234,1.59766-2.77734.37891-.30469.46484-.34375.83984-.34375.23438,0,.74609.07031,1.13672.16797Z"/>

</g>
</svg>
