<?xml version="1.0" encoding="UTF-8"?>
<svg xmlns="http://www.w3.org/2000/svg"
     version="1.1"
     width="64.80686810mm"
     height="18.20965462mm"
     viewBox="0.00000000 0.00000000 183.70446786 51.61790872">

<g transform="scale(3.49229315)">   <defs>
      <style type="text/css"><![CDATA[
      .b {
        stroke: #000;
        stroke-linecap: round;
        stroke-linejoin: round;
        stroke-width: .01px;
      }
    ]]></style>
   </defs>
   <path class="b"
         d="M40.21355.10266c-.23047.05469-.55859.08594-.73438.0625-.17969-.02344-.44922,0-.60156.04688-.27344.08203-.82422.14453-2.71875.3125-2.20313.19141-2.44141.25-2.53125.60938-.05469.20703.08984,1.77344.21094,2.32813.04688.18359.10156.64844.125,1.03906.05078.70313.61719,3.71875.77734,4.10547.03906.10938.10547.53516.13672.94922.04688.69531.07031.76953.28125.95313.22266.19141.26172.19141,1.01563.15234.81641-.03906,1.02344.02344,1.02344.30469,0,.22266-.58594,1.32813-.76172,1.44531-.20703.13672-.94922.09766-1.71875-.08594-.23828-.0625-1.19141-.15234-2.12109-.19922-.91797-.05078-1.78125-.12891-1.91797-.17578-.25781-.08203-.92969-.19141-1.80078-.28906-.28906-.03906-.60156-.10547-.69531-.16016-.09766-.05469-.45703-.15234-.80078-.20703-.34375-.06641-.82422-.18359-1.0625-.28125-.34766-.12891-.61719-.16797-1.26563-.16797-.75391,0-.87891-.02344-1.55859-.28906-.40234-.16016-.91406-.36719-1.13672-.47266-.21875-.09375-.70313-.23828-1.08203-.30859-.375-.08203-1.02344-.21875-1.4375-.30469-.41797-.09766-1.03516-.17578-1.35938-.19141-.32813-.00781-.97656-.05859-1.44141-.11328-.46484-.04688-1.19922-.12109-1.64063-.16016-.44141-.03125-1.12109-.13672-1.51953-.23047-.39063-.08984-.83203-.16797-.97656-.16797s-.55859-.07422-.91797-.15234c-.69141-.16016-1.21875-.25781-2.58594-.44922-.44141-.0625-1.01563-.17578-1.28125-.24609-.26172-.07422-.78125-.13672-1.16016-.14453-.77344-.00781-.76563-.01563-2.23828,1.03125-.46484.33594-1.01563.70313-1.22266.82422-.21875.12109-.76953.42969-1.24219.69531-1.0625.59375-1.91016,1.35938-1.98437,1.78516-.02344.16797-.09375.45313-.16016.64844-.15234.48438-.14453.70313.08203,1.18359.16016.33594.26172.44531.58203.60547.21875.11328.55469.25.74609.29687.49609.13672,3.03125.11328,4-.03125.41406-.0625,1.26172-.16016,1.87891-.20703,1.35938-.10547,2.70313-.25781,5.03906-.57031.3125-.03906,1.13672-.0625,1.83984-.05469.71484.00781,1.32813-.01563,1.38672-.04688.04688-.03516.58984-.08984,1.19141-.12891.60547-.03906,1.39844-.12891,1.75-.19141.35938-.06641,1.22656-.12109,1.92188-.13672.70313-.00781,1.77344-.07422,2.39063-.13672.66406-.0625,1.45703-.09766,1.94531-.07031.46484.03125.91797.01563,1.04688-.03516.17578-.0625.29688-.04688.53516.06641.24219.10156.5625.14453,1.39453.16016,1.35156.02344,1.95703.0625,2.71875.17578.32813.04688,1.04688.12109,1.60156.16797,2.10156.17578,2.15234.18359,3.84765.89453.28516.12109.52734.03906.98438-.33594.21484-.17578.67188-.47266,1.01563-.64844.34375-.18359.90234-.57422,1.23828-.87109.33594-.30469.83203-.66406,1.09766-.80859.26953-.14453.62891-.39063.81641-.55078.60547-.55078,1.10156-.87891,1.32031-.87891.10938,0,.38281.05469.58203.125.20703.07422.46484.10547.55859.08203.28125-.07422.92188-.64063,1.32813-1.19141.30469-.41016.47266-.54688.9375-.77734.3125-.15234.76172-.43359,1-.61719.23828-.17578.57422-.39063.75-.46875.17969-.07422.68359-.3125,1.12109-.51563.44141-.20703,1.05859-.45312,1.375-.55078.32031-.09375.60156-.20703.63281-.25391.03125-.05078.32031-.21094.64063-.36328.44141-.19922.64844-.35156.82422-.58984.39063-.54297.44141-.79297.28906-1.48828-.12891-.58594-.13672-.60156-.66406-1.02344-.29688-.24219-.85547-.58594-1.25781-.76953-.69531-.32031-.74219-.32813-1.28516-.28516-.99219.08594-1.42578.29297-2.17188,1.03125-.61328.61328-.70313.74219-1.33594,2.01563-.375.74219-.71875,1.50391-.76563,1.67969-.03906.17578-.27344.55859-.51953.87109-.24219.30469-.51172.66406-.60156.80859-.16797.27344-.48047.45703-.61719.375-.25391-.16797-.46875-.96875-.54297-2.01562-.02344-.375-.07813-.86328-.12891-1.07813-.03906-.25-.04688-1.11328,0-2.22656.07422-1.97656.00781-2.59766-.29297-3.00781-.14453-.19922-.18359-.20703-.92969-.20703-.43359,0-.96875.04688-1.19141.09766Z"/>

</g>
</svg>
