<?xml version="1.0" encoding="UTF-8"?>
<svg xmlns="http://www.w3.org/2000/svg"
     version="1.1"
     width="35.26442354mm"
     height="35.49462953mm"
     viewBox="0.00000000 0.00000000 99.96212847 100.61468062">

<g transform="scale(3.48269277)">   <defs>
      <style type="text/css"><![CDATA[
      .b {
        stroke: #000;
        stroke-linecap: round;
        stroke-linejoin: round;
        stroke-width: .01px;
      }
    ]]></style>
   </defs>
   <path class="b"
         d="M20.85424.51673c-.56641.27734-1.16016.52734-1.29688.55078-.14063.03125-.39844.14453-.56641.25781-.56641.375-2.54297.71875-4.64063.80469-.79297.03516-1.39063.09766-1.61328.16797-.33594.11328-2.35547,1.08203-2.80078,1.34766-.11328.0625-.41797.20703-.67969.31641-.26563.11328-.57031.29688-.67969.40234-.11328.09375-.43359.29688-.72266.4375-1.26172.63281-2.88672,2.03516-3.15234,2.72265-.16016.41406-.46094.89453-.78125,1.23828-.12109.13672-.27344.41016-.33594.60156-.28906.89453-.53125,1.46484-.67969,1.63281-.08984.09375-.21875.34375-.28125.55078-.06641.21484-.19922.49609-.3125.64063-.24609.32813-.48047.77344-.81641,1.61328-.15234.37891-.375.83203-.51172,1.02734-.23047.33594-.35156.63672-.78516,1.89453C.01437,17.28234-.00126,17.41906.00655,18.73156c.00781,1.26563.03125,1.48828.21484,2.12109.11328.39063.30469.88672.42578,1.10938.12891.21875.27344.57813.32031.79297.10547.41797.51172,1.28125.64844,1.36719.04688.03516.18359.20313.29688.38672.11719.18359.30078.42969.41406.55078.11328.11328.25.25.28906.29688.04688.04688.30469.23047.57422.39844.26563.17578.625.44141.80078.59375.32031.28516,1.16797.85547,1.28125.85547.03125,0,.27734.10547.54297.23047.26563.12891.66406.27344.87891.32031.22656.05859.61719.19922.89063.33594.26172.12891.55078.23438.63672.23438.08984,0,.37109.05469.61719.11719.25781.06641,1,.13672,1.64844.16016.6875.02344,1.38281.09766,1.65625.16797.55859.15234,1.55078.15234,2.08984,0,.20703-.0625.77344-.17578,1.25391-.25391.78516-.12891.92969-.17578,1.39063-.49609.73047-.48828,1.04297-.63281,1.47266-.69531.76953-.12109,1.33594-.39453,2.17578-1.07422.80859-.64063,1.83203-1.65625,2.51172-2.46484.63281-.76563,1.3125-2.33594,1.48047-3.42188.11328-.69531.09766-1.69531-.03125-1.84766-.11328-.13672-.99219-.15234-1.07813-.02344-.02734.04688-.20313.16016-.38672.23828-.17578.08203-.45313.23828-.60547.35156s-.42578.24219-.60156.28906-.46484.18359-.64063.30469c-.48828.34375-1.66406.86328-2.16016.95703-.23828.05078-.64844.12891-.89453.17969-.25.04688-.85547.23828-1.34375.42969-.48047.18359-1.24219.40234-1.67188.48047-.44141.07813-.91406.19141-1.05859.24609-.17578.07422-.64453.11328-1.48828.11328-1.29297.00781-2.04688-.0625-3.02344-.32031-.32813-.07813-.71875-.16797-.87109-.19141-.42188-.07031-1.09375-.56641-1.50391-1.11328-.20703-.26953-.60938-.70313-.89453-.94922-.6875-.60156-1-1.19922-1.13672-2.16016-.12109-.88281-.04688-1.86328.16797-2.16016.18359-.25781.48047-.96875.48047-1.16797,0-.21875,1.35156-2.06641,1.56641-2.15234.06641-.02344.28906-.28906.51172-.59375.41797-.57422.63281-.74219.83203-.66406.19922.08203.23438.32813.08203.77734-.16797.51953-.32813.84766-.51953,1.05469-.20313.22656-.33594,1.15234-.27344,1.85547.04688.47266.10547.63281.32813.95313.15234.20703.27344.47266.27344.58594,0,.22266.26953.48828.99219.97656.52734.34375.84766.39063,1.28516.18359.42578-.20313.59375-.44922.88281-1.27344.26172-.75391.26953-.81641.29297-2.17578.01563-1.3125.03516-1.42578.19141-1.61719.09766-.10938.19531-.28516.22656-.39063.08594-.25781.32813-.36719.48047-.20703.07031.0625.125.18359.125.25391,0,.07422.07422.24219.16016.375.08984.12891.16016.34766.16016.48047,0,.12891.07422.45703.15234.72266.13672.42969.22656,1.3125.28906,2.77344.00781.28125.04688.65625.08203.83984.03906.21875.02344.42578-.03516.57813-.08594.19922-.07031.26172.10547.51953.11328.16797.22266.35938.24609.43359.02734.07031.16797.21484.32031.30859.24219.15234.32031.16016.53906.08984.51172-.16797.78906-.54297.99219-1.33594.0625-.25.19922-.63281.30859-.84766.14453-.30469.21094-.58594.24219-1.16016.03125-.41797.08594-1.01563.12891-1.32031.05469-.43359.04688-.6875-.05078-1.12109-.0625-.3125-.15234-.71875-.19922-.91797-.16016-.82422-.38281-1.25-.91797-1.75391-.57813-.53516-.89844-.64844-1.42578-.51172-.23828.0625-.32813.05469-.41406-.02344-.09766-.09766-.08203-.19141.125-.65625.12891-.29688.28906-.57422.35156-.625.21875-.16016,1.11328-.19141,2.28906-.07813.63281.0625,1.33594.10938,1.5625.10938.22266,0,.47656.04297.57422.08984.08594.04688.44922.09766.79297.09766,1,.02344,2.54297.35156,2.98438.62891.20703.13672.48047.24219.60547.24219.33594.00781.76172.17578,1.11328.44531.42188.32031,1.03125.32031,1.60156.01172.22266-.12109.65234-.33594.95703-.48828.3125-.15234.85547-.53125,1.21094-.83984.55078-.48047.66406-.625.74219-.92969.09766-.38281.04688-1.13672-.09766-1.51953-.04688-.12891-.07813-.3125-.07031-.41016.01563-.09375-.11328-.38281-.28906-.63672-.42188-.64063-.70313-1.15234-.77344-1.39453-.03516-.10938-.32031-.625-.63281-1.15234-.84766-1.41406-1.87109-2.35156-2.60938-2.36719-.15234,0-.49609-.05469-.75781-.12109-.26563-.0625-.71484-.11719-1-.11719-.48047,0-.60938.03906-1.5625.51172h.00002Z"/>
   <path class="b"
         d="M18.62377,10.08313c-.45703.08984-.60938.32031-.60156.87109.00781.25.03125.53906.06641.64844.03906.13672.01563.29688-.08203.48047-.10156.22656-.12891.44922-.10938,1.02344.02344.77734.00781.875-.30469,1.9375-.25.82422-.45703,1.90234-.45703,2.32813,0,.90234.64844,1.36719,1.32813.94531.32031-.19531.51172-.46484.70313-.95313.07422-.19922.33594-.67188.57031-1.04688.30078-.47266.47656-.85938.56641-1.24219.14453-.63281.19141-2.41406.07813-3.23047-.07813-.57031-.51172-1.54688-.75-1.67188-.22266-.12109-.67188-.16016-1.00781-.08984h-.00002Z"/>

</g>
</svg>
