<?xml version="1.0" encoding="UTF-8"?>
<svg xmlns="http://www.w3.org/2000/svg"
     version="1.1"
     width="22.38441060mm"
     height="45.23324939mm"
     viewBox="0.00000000 0.00000000 63.45184463 128.22021363">

<g transform="scale(5.29745843)">   <defs>
      <style type="text/css"><![CDATA[
      .a {
        stroke: #000;
        stroke-miterlimit: 10;
        stroke-width: 0.15px;
      }
    ]]></style>
   </defs>
   <path class="a"
         d="M4.706,7.81011a1.25117,1.25117,0,0,0,.80946-.39933c.78445-.99364-.14946-2.555.609-3.52051C6.7927,3.03963,8.31487,2.938,9.22492,2.42453c.812-.45811,1.27776-1.85743.11081-2.31081C8.7064-.13079,7.28089.84805,6.77658,1.2188a9.91853,9.91853,0,0,0-1.8064,2.41634,4.42267,4.42267,0,0,0-.76971,2.68263c-.00446.35682-.21075,1.12962.08822,1.37923A.57624.57624,0,0,0,4.706,7.81011Z"/>
   <path class="a"
         d="M6.13568,8.13145c-1.01191,3.32222,3.26237,4.38969,3.23067,7.36388-.02176,2.04178-2.02919,3.79347-3.67072,4.7046-.86863.48213-1.58368,1.14244-2.468,1.57479a4.18213,4.18213,0,0,1-1.61732.49822c-.34754.02249-.75919-.06987-1.05648.15986a1.23821,1.23821,0,0,0-.3125,1.56251c.24354.24754.78334.191,2.37212-.50679a15.70734,15.70734,0,0,0,4.75288-2.68073,13.98124,13.98124,0,0,0,3.3125-4.81248c.9324-1.9272,1.3986-2.89082,1.1875-3.93752-.15126-.75-.87167-1.81248-2.3125-3.93748a3.64829,3.64829,0,0,1-.875-2.25,13.08088,13.08088,0,0,1,.31249-1.31243c.1834-.895.37489-3.0599-1.10649-2.95165a1.681,1.681,0,0,0-1.09416.65c-.5.62265-.00838,1.31163.25442,1.91342a2.96315,2.96315,0,0,1-.115,2.27126c-.1994.437-.49509.8091-.65323,1.26239C6.22658,7.84758,6.17873,7.99013,6.13568,8.13145Z"/>

</g>
</svg>
