<?xml version="1.0" encoding="UTF-8"?>
<svg xmlns="http://www.w3.org/2000/svg"
     version="1.1"
     width="47.75553319mm"
     height="18.30321857mm"
     viewBox="0.00000000 0.00000000 135.36997246 51.88310095">

<g transform="scale(5.79267105)">   <defs>
      <style type="text/css"><![CDATA[
      .b {
        fill: #000;
        fill-rule: evenodd;
        stroke: #000;
        stroke-miterlimit: 2.61313;
        stroke-width: .28346px;
      }
    ]]></style>
   </defs>
   <path class="b"
         d="M1.81288,8.13999c-.10913.21063-.2179.42151-.32703.63214-.42273-.19135-.84534-.383-1.26831-.57428.15552-.21234.31079-.42493.46606-.63733-.17065-1.00452.49976-1.76392,2.01086-2.2782.36621-1.5979,1.32178-2.11487,2.86731-1.55103-.05322.50739-.10669,1.01477-.15991,1.52185.90381.03625,1.80762.07263,2.71143.10864,3.54492-1.34589,8.37305-3.84106,10.63501-4.03772C20.29103-.0184,21.2383-.07571,21.91481.45103c1.32861,1.39917,1.50513,2.58777,1.15796,3.67963-.33875,1.00037-.7699,2.00385-1.29346,3.01013-2.55286-3.94611-4.79028-4.75262-6.11487-2.32806-4.47681,1.63269-8.63025,4.48694-13.85156,3.32727h0Z"/>

</g>
</svg>
