<?xml version="1.0" encoding="UTF-8"?>
<svg xmlns="http://www.w3.org/2000/svg"
     version="1.1"
     width="62.57671338mm"
     height="33.96381269mm"
     viewBox="0.00000000 0.00000000 177.38286779 96.27532585">

<g transform="scale(3.65894339)">   <defs>
      <style type="text/css"><![CDATA[
      .b {
        stroke: #000;
        stroke-linecap: round;
        stroke-linejoin: round;
        stroke-width: .25px;
      }
    ]]></style>
   </defs>
   <path class="b"
         d="M42.25218,1.63178c-.5957.22823-1.24309.27059-1.87559.35354-.87251.11442-1.7343.31041-2.57047.58458-.26153.08575-.52697.18275-.73621.36153-.79523.67945-.11359,2.55666-.08919,3.60234.03909,1.67475-1.43835,2.6036-1.25369,4.2686.02823.25453.09638.51707.27024.70509.15321.16568.37122.25494.58738.31972,1.50565.45125,3.26717-.15503,4.17616-1.43735,1.10432-1.55787.5075-3.4927.61914-5.54991,1.05694.04965,2.11672.17088,3.17021.07225,1.05342-.09862,2.12517-.44307,2.87341-1.1911,1.24089-1.24055,1.3943-3.03551-.4869-3.50969-1.70609-.43004-3.21269.85651-4.68449,1.4204Z"/>
   <path class="b"
         d="M31.76703,8.58999c1.2638-.34463,2.54163-.63785,3.82925-.87868,1.62259-.30348,3.56546-.4191,4.64711.82787.21658.24968.38698.5566.39868.88692.02268.64049-.53513,1.14667-1.0924,1.4632-1.58318.89925-2.29902.35983-4.09505.65878-6.35634,1.05802-13.7322,2.05313-19.91639,3.33551-3.62335.75135-7.61002,1.88918-9.49816,5.07165-1.0368,1.74754-1.26234,3.86088-2.13123,5.6977-.09916.20963-.22677.43347-.44636.50801-.19293.06549-.4029-.00336-.59481-.07178-.69278-.247-1.38555-.494-2.07833-.741-.21297-.07593-.4408-.16316-.56517-.35197-.15813-.24005-.09596-.5571-.02708-.83618.91071-3.6902,2.37302-7.05509,5.60768-9.05105,1.1705-.72226,2.36203-1.73862,3.69178-2.09008,3.77795-.99855,7.63207-1.67629,11.48074-2.35285,4.37653-.76935,4.35978-.74676,8.73631-1.51611.58014-.10198,1.48515-.40498,2.05343-.55994Z"/>

</g>
</svg>
