<?xml version="1.0" encoding="UTF-8"?>
<svg xmlns="http://www.w3.org/2000/svg"
     version="1.1"
     width="17.54192817mm"
     height="51.50430443mm"
     viewBox="0.00000000 0.00000000 49.72512076 145.99646752">

<g transform="scale(3.49229315)">   <defs>
      <style type="text/css"><![CDATA[
      .b {
        stroke: #000;
        stroke-linecap: round;
        stroke-linejoin: round;
        stroke-width: .01px;
      }
    ]]></style>
   </defs>
   <path class="b"
         d="M7.60363.0798c-.82422.07813-1.32813.27734-1.58984.64844-.57813.82422-1.09766,1.34375-1.86719,1.85547-.4375.29688-.96484.71875-1.16797.92578-.19922.21875-.55078.48047-.77344.60156-.53516.26563-.75391.56641-1.19922,1.625C.53332,6.85324-.02137,9.12667.00597,9.88058c.02344,1.08594.19141,2.16016.44531,2.91016.32813.9375.47266,1.20703.88281,1.60156.41406.40625.62109,1.00781.66406,1.96484.03125.58594.00781.9375-.09766,1.32031-.07031.28906-.16797.67969-.20703.88281-.05078.19922-.13672.58203-.19922.84766-.15234.61328-.05859,1.03906.32813,1.45703l.26172.29297h1.92969l.36719-.35938c.44922-.42969.63281-.77734.86328-1.58203.15234-.55469.16797-.80078.15234-2.37891-.02344-2.72656.28906-6.42188.65625-7.75.35938-1.30469.75781-1.88672,1.20703-1.77734.52734.13672.73047,1.17578.64844,3.39453-.03125.82031-.09766,1.78125-.13672,2.13281-.04688.35156-.12109,1.03516-.15234,1.51953-.03906.48047-.125,1.51563-.19922,2.28125-.0625.76953-.12109,1.9375-.12891,2.60156,0,1.60547-.13281,4.69531-.23047,5.23828-.03906.24219-.12891,1.12109-.19922,1.96094-.06641.83203-.18359,1.92969-.27344,2.43359-.08594.49609-.13672.95703-.11328,1.01563.02734.0625-.01563.49609-.08594.96484-.17578,1.15234-.17578,1.13672-.32031,1.50391-.0625.17969-.12109.52344-.12891.76172,0,.23828-.05469.79297-.11719,1.23828-.25781,1.71484-.28125,1.89844-.28125,2.32031,0,.25-.05859.79297-.12891,1.22656-.16016.96094-.12109,2.38281.08203,2.85547.14063.33594.39063.64063.62109.76563.23438.12891,1.42578.32031,1.60938.26563.09766-.03125.48828-.27344.87109-.53516.67188-.46484.70313-.49609.89844-1.00781.28516-.76953.44531-1.57031.44531-2.20703,0-.3125.05859-1.17578.12891-1.92188.0625-.75.16797-1.99219.23047-2.76172.05859-.76563.14453-1.59766.19531-1.83984.04688-.23828.13281-.92578.20703-1.51953.16797-1.42188.26172-2.10938.41406-3.07813.18359-1.20703.81641-4.51172.94531-4.92188.05469-.19922.13672-.51953.16016-.71875.03125-.19922.17578-.86328.32031-1.48047s.375-1.625.51953-2.23828c.13672-.61719.32813-1.48047.43359-1.92188.20703-.88672.33594-1.59766.40625-2.32031.03125-.26172.09766-.67969.16016-.91797.0625-.28125.12109-1.25781.15234-2.73047.03906-2.23828.03906-2.30078-.15234-3.10156-.11328-.44922-.19922-.89844-.19922-.99219,0-.26563-.29688-1.14453-.51953-1.57031-.10547-.19922-.38672-.78906-.60938-1.3125-.36719-.82813-.48047-1.00781-.91016-1.42969C10.80285.28683,10.15832-.01004,9.03722.00558c-.41016.00781-1.04688.04297-1.43359.07422Z"/>

</g>
</svg>
