<?xml version="1.0" encoding="UTF-8"?>
<svg xmlns="http://www.w3.org/2000/svg"
     version="1.1"
     width="57.14039777mm"
     height="48.94374280mm"
     viewBox="0.00000000 0.00000000 161.97285293 138.73812015">

<g transform="scale(6.61217861)">   <defs>
      <style type="text/css"><![CDATA[
      .a {
        stroke: #000;
        stroke-linecap: round;
        stroke-linejoin: round;
        stroke-width: 0.01px;
      }
    ]]></style>
   </defs>
   <path class="a"
         d="M18.30362.04248a1.0582,1.0582,0,0,0-.23625.14536.70562.70562,0,0,1-.3937.07269h-.4603a3.875,3.875,0,0,1-.424-.01817c-.16353-.01817-.29073,0-.315.03634a.45071.45071,0,0,1-.27256.07874,1.948,1.948,0,0,0-.47244.103c-.20593.07874-.26044.07874-.36947.01212a.209.209,0,0,0-.218-.02423.51017.51017,0,0,1-.24227.04846A2.8226,2.8226,0,0,0,14.06372.624c-.05451.03029-.12113.0424-.13325.02423a1.54173,1.54173,0,0,0-.37553-.04846c-.24227-.01211-.37553.00606-.43609.06663a.62144.62144,0,0,1-.28468.12114,1.53317,1.53317,0,0,0-.34524.109,1.2776,1.2776,0,0,1-.86608-.04244A.85784.85784,0,0,0,11.108.81774c-.321.05451-.59358.09086-.957.13325a1.80728,1.80728,0,0,0-.3937.09086.31149.31149,0,0,1-.2665-.01212A7.60378,7.60378,0,0,0,8.18252.95708C7.00752.945,6.98326.945,6.953,1.07216a.70046.70046,0,0,1-.27862.27862c-.13325.0848-.24227.18171-.24227.22411a.45426.45426,0,0,1-.15748.212c-.20594.18776-.50273.48455-.69655.7026a1.36877,1.36877,0,0,1-.3513.27862c-.103.05451-.18776.12114-.18776.15142a3.579,3.579,0,0,1-.96911.91459c-.06662,0-.12114.02423-.12114.05452a.29518.29518,0,0,1-.09691.15142c-.25439.25439-.64809-.05451-.72077-.56329-.04845-.36948-.212-.58147-.40581-.5209a2.95289,2.95289,0,0,0-.65415.43,1.90808,1.90808,0,0,1-.41793.32708,1.1698,1.1698,0,0,0-.2665.212.93157.93157,0,0,1-.29073.212c-.103,0-.23016.18776-.23622.33919,0,.11508-.103.27861-.33313.51483A1.32038,1.32038,0,0,0,.357,5.66935a1.16793,1.16793,0,0,1-.12114.3513.8431.8431,0,0,0-.06057.72077c.0424.218.09085.50272.109.636.01212.13325.06057.44821.09691.69654.06057.39976.06057.48455-.02422.64809a.42056.42056,0,0,0-.0545.327,1.03281,1.03281,0,0,1,0,.4361.85273.85273,0,0,0,0,.4361,2.288,2.288,0,0,1,.03029.65414c-.02423.45427-.01212.55724.09085.72683.09086.14537.109.22411.06663.30285a.65153.65153,0,0,0,.00605.424,1.97781,1.97781,0,0,1-.06056,1.04179,1.36405,1.36405,0,0,0-.06663.212.61637.61637,0,0,1-.03028.13326.3241.3241,0,0,0,.02422.212A.80141.80141,0,0,1,.36911,14.04c-.03028.16353-.06663.38764-.07874.48455a1.93984,1.93984,0,0,1-.1272.424,6.53635,6.53635,0,0,0-.15142,1.72621c0,.04846.00606.26651.00606.4785a1.93057,1.93057,0,0,0,.0848.59359,1.27149,1.27149,0,0,1,.09085.38764,1.29869,1.29869,0,0,0,.37553.68442.28461.28461,0,0,1,.06662.23622.3.3,0,0,0,.09691.27862.42638.42638,0,0,1,.1272.24833.1781.1781,0,0,0,.09085.15748.24568.24568,0,0,1,.12114.14537,1.82383,1.82383,0,0,0,.67838.6602.46408.46408,0,0,1,.2241.16354c.01817.05451.12114.08479.26651.08479a1.093,1.093,0,0,1,.44821.11508.39708.39708,0,0,0,.30284.06057.44449.44449,0,0,1,.218-.05451,2.099,2.099,0,0,0,.86008-.46638.61173.61173,0,0,1,.19382-.13931c.03634,0,.13326-.07874.50273-.41793a1.78156,1.78156,0,0,1,.25439-.1817c.07874-.03635.12113-.103.103-.15748-.01817-.04846.06663-.18777.212-.33313a.99194.99194,0,0,0,.24833-.33313.683.683,0,0,1,.18171-.29074.84519.84519,0,0,0,.1817-.28467.85342.85342,0,0,1,.24228-.29679c.27862-.25439.38159-.61175.16959-.61175a.55188.55188,0,0,0-.24833.0848c-.103.06663-.19988.07874-.4361.03028a.86317.86317,0,0,0-.69654.1272c-.218.103-.44821.218-.51484.26045a1.14471,1.14471,0,0,1-.3937.07874,2.57249,2.57249,0,0,0-.4361.04845.40583.40583,0,0,1-.30284-.03028.50689.50689,0,0,0-.27862-.06057c-.16354.01817-.61175-.424-.62992-.61781a.64362.64362,0,0,0-.09691-.38764.81031.81031,0,0,1-.01817-.61779,1.31291,1.31291,0,0,0,.09085-.34525,5.11657,5.11657,0,0,1,.11509-.58146.8592.8592,0,0,0,.03028-.43.15532.15532,0,0,1,.0424-.18777.29967.29967,0,0,0,.09085-.16353.90689.90689,0,0,1,.11508-.26046,9.92795,9.92795,0,0,0,.59964-1.35675.3995.3995,0,0,1,.03634-.17565.369.369,0,0,0-.02423-.25438c-.04845-.09085-.03634-.17565.0424-.33313.05451-.12115.11508-.218.13931-.218a1.34113,1.34113,0,0,0,.0424-.41187,4.44049,4.44049,0,0,1,.0424-.55723c.01817-.0848.05451-.54513.07268-1.02968.02423-.48455.04845-1.08418.06057-1.33252s.02423-.539.03028-.636c.01212-.23017-.05451-1.805-.07268-1.87765A.80843.80843,0,0,1,3.98508,5.627a.31065.31065,0,0,1,.20593.02423.65978.65978,0,0,0,.28467.06058.56537.56537,0,0,1,.29074.08479,5.82568,5.82568,0,0,0,1.60508.43,1.39438,1.39438,0,0,0,.28468-.05456.36307.36307,0,0,1,.27256.03634,1.82131,1.82131,0,0,0,.533.0848,3.28976,3.28976,0,0,1,.89037.103c.01211.01817.11508-.00606.218-.04846A.36547.36547,0,0,1,8.873,6.32353a.33222.33222,0,0,0,.24228.01817.69559.69559,0,0,1,.58752.0424,2.94249,2.94249,0,0,0,.69654.212,1.22848,1.22848,0,0,1,.218.04846.58609.58609,0,0,0,.36947-.0424c.13931-.06057.24228-.07268.30891-.03028.06056.03028.12719.0424.15748.01817.03028-.01817.103.01211.15142.06662a.7166.7166,0,0,0,.36341.109,1.24333,1.24333,0,0,1,.315.05451.74194.74194,0,0,0,.315-.01817.4948.4948,0,0,1,.35736.03028.30488.30488,0,0,0,.27862.02423.472.472,0,0,1,.2241-.02423.73381.73381,0,0,0,.32708-.09085c.212-.09691.30284-.109.39975-.06057.09086.04846.17565.03634.36342-.06057a.97271.97271,0,0,1,.28467-.109,1.21387,1.21387,0,0,0,.29679-.06663.466.466,0,0,1,.36947-.01817.76162.76162,0,0,0,.66625-.14536A.50093.50093,0,0,1,16.45627,6.16a.95239.95239,0,0,0,.5633-.24834.36584.36584,0,0,1,.218-.07874.97091.97091,0,0,0,.40582-.1817,1.12555,1.12555,0,0,1,.38159-.18171.38794.38794,0,0,0,.2241-.09691.46975.46975,0,0,1,.18776-.109,2.87492,2.87492,0,0,0,.30285-.11508.60274.60274,0,0,1,.315-.06662c.05451.01817.09691.00605.09691-.03029a1.90508,1.90508,0,0,1,.7874-.46032,1.32116,1.32116,0,0,0,.41187-.24228.4667.4667,0,0,1,.218-.15142,3.10919,3.10919,0,0,0,.75106-.46638.268.268,0,0,1,.14537-.07874.43682.43682,0,0,0,.19988-.13931,2.06607,2.06607,0,0,1,.5754-.41187,1.64685,1.64685,0,0,0,.38764-.28468,1.09269,1.09269,0,0,1,.36948-.2241c.16353-.05451.24227-.11508.24833-.19382a1.2505,1.2505,0,0,1,.04845-.26651.47421.47421,0,0,0-.04845-.34524.446.446,0,0,1-.06057-.27862c.02423-.06663,0-.07874-.0848-.05451a.24025.24025,0,0,1-.23622-.103,2.31677,2.31677,0,0,0-.18776-.20593,1.8728,1.8728,0,0,1-.212-.19383,1.16269,1.16269,0,0,0-.58752-.24227A.17253.17253,0,0,1,21.76817.63a.14849.14849,0,0,0-.13931-.06663.42216.42216,0,0,1-.23622-.12114.79133.79133,0,0,0-.45427-.15146A1.81337,1.81337,0,0,1,20.369.13939c-.1272-.06057-.24834-.103-.26045-.0848a.56386.56386,0,0,1-.14536.04849,1.50817,1.50817,0,0,0-.17565.0424,1.34242,1.34242,0,0,1-.30284-.0424A2.18832,2.18832,0,0,0,18.9396.04857a1.27929,1.27929,0,0,1-.3937-.03029A.322.322,0,0,0,18.30362.04248ZM16.51683,1.73841a.321.321,0,0,0,.3513-.00605.60841.60841,0,0,1,.3937-.03635,1.20053,1.20053,0,0,0,.27256.03029.70057.70057,0,0,1,.23017.07874.35573.35573,0,0,0,.23621.06057A1.21648,1.21648,0,0,1,18.449,2.017c.29679.13931.424.17565.50272.1272a1.62159,1.62159,0,0,1,.88431.16959.40626.40626,0,0,0,.23622.06663.42987.42987,0,0,1,.41187.36341c0,.1272-.19988.36341-.30285.36341-.06662,0-.15748.06663-.40581.29074a1.0685,1.0685,0,0,1-.79951.34524,1.66809,1.66809,0,0,0-1.02968.43c-.1817.13931-.30284.19382-.3937.16959a.51319.51319,0,0,0-.34524.11509,4.46145,4.46145,0,0,1-.55118.29678c-.315.14537-.3513.15143-.47849.06057-.12114-.08479-.13931-.08479-.212.01817a2.47231,2.47231,0,0,1-1.26589.28468,1.45969,1.45969,0,0,0-.54512.0848,3.61857,3.61857,0,0,1-1.36281.04845c-.218-.01817-.62992-.0424-.91459-.05451A2.02305,2.02305,0,0,1,11.211,5.1a1.41952,1.41952,0,0,0-.4482-.09688,9.72209,9.72209,0,0,1-1.39309-.23017c-.26651-.05451-.61175-.12113-.76923-.14536a1.132,1.132,0,0,1-.36341-.109,1.15761,1.15761,0,0,0-.33313-.13325c-.5633-.15142-.55118-.47849.01211-.47849a2.13827,2.13827,0,0,0,.30285-.03634A5.223,5.223,0,0,1,8.94569,3.816a1.84145,1.84145,0,0,0,.745-.12719.77378.77378,0,0,1,.30285-.09086,1.31526,1.31526,0,0,0,.3937-.11508,2.94436,2.94436,0,0,1,.32707-.13325.45027.45027,0,0,0,.12114-.09691.192.192,0,0,1,.16959-.06057,1.20769,1.20769,0,0,0,.636-.218,2.45858,2.45858,0,0,1,.46032-.19988,2.23942,2.23942,0,0,0,.59358-.33313c.15748-.13325.321-.2241.36947-.20593a.2938.2938,0,0,0,.22411-.06057.50084.50084,0,0,1,.218-.09691.31351.31351,0,0,0,.16959-.09085c.06663-.06663.15748-.07874.32707-.05452a.97974.97974,0,0,0,.424-.03028.44154.44154,0,0,1,.29073-.01211,1.14068,1.14068,0,0,0,.49667-.03029,2.00879,2.00879,0,0,1,.51483-.06057.469.469,0,0,0,.27256-.05451A.45458.45458,0,0,1,16.51683,1.73841Z"/>
   <path class="a"
         d="M23.54285,7.60756a1.811,1.811,0,0,0-.38764.24833.64712.64712,0,0,1-.13326.15142,5.86632,5.86632,0,0,1-1.23558.963c-.218.109-.25439.15748-.35735.5209a2.92245,2.92245,0,0,0-.09691.72077,4.26391,4.26391,0,0,1-.06663,1.18715,2.54988,2.54988,0,0,0-.00606,1.13265.23244.23244,0,0,1,.00606.218.773.773,0,0,0-.05451.30284,1.5889,1.5889,0,0,1-.09086.6602,2.31157,2.31157,0,0,0-.06057.6057,1.2599,1.2599,0,0,1-.14536.751.61627.61627,0,0,0-.103.45427.44473.44473,0,0,1-.06057.3513.26294.26294,0,0,0-.05451.19988.30573.30573,0,0,1-.03028.23016,1.41607,1.41607,0,0,1-.87826.49061c-.37552-.00606-.5754-.04845-.6602-.13931a.68278.68278,0,0,0-.218-.13325c-.06662-.01817-.12114-.06057-.12114-.09085a.77157.77157,0,0,0-.34524-.09086,1.35148,1.35148,0,0,1-.963-.49061c-.20593-.19987-.2665-.29679-.23016-.37552a3.40073,3.40073,0,0,0,.109-.86009c.01212-.1817.03634-.52089.05451-.751a1.0416,1.0416,0,0,1,.09086-.45427,2.03765,2.03765,0,0,0,.01817-1.02968.7433.7433,0,0,1,0-.44215.39673.39673,0,0,0-.01211-.321c-.07269-.18776-.06663-.23016.06056-.39975.11509-.15143.1272-.218.07874-.32708a.83479.83479,0,0,1,.109-.745c.09691-.13325.12114-.218.0848-.321a.63053.63053,0,0,1-.03635-.19988c.01817-.06663-.1817-.218-.24227-.18171-.02423.01817-.103,0-.1696-.03634-.08479-.0424-.15748-.04845-.19987-.01211a4.65548,4.65548,0,0,1-.46639.23016,2.36556,2.36556,0,0,0-.52695.29679,1.5242,1.5242,0,0,1-.33313.2241c-.109.04846-.33313.15748-.49061.23017-.34524.16959-.50272.41187-.41792.65414a.61831.61831,0,0,1,.00605.315c-.2241.71472-.25439.87825-.19382,1.03573a.26226.26226,0,0,1-.03028.30285.9903.9903,0,0,0-.109.43,1.42352,1.42352,0,0,1-.08479.41187.39549.39549,0,0,0-.03029.24833.34677.34677,0,0,1-.05451.26651c-.07874.11508-.0848.218-.0424.5754a1.97256,1.97256,0,0,1,.00606.59964.4344.4344,0,0,0,.00606.2665c.06056.103-.07874.28468-.218.28468-.1272,0-.55724.47244-.59358.64809a.65618.65618,0,0,1-.72683.38764c-.22411-.0848-.24228-.0848-.19988.02423a.2168.2168,0,0,1-.07874.19381.7307.7307,0,0,0-.15142.27862.35269.35269,0,0,1-.52089.2241.67117.67117,0,0,1-.36342-.49667.51833.51833,0,0,0-.16354-.23015c-.25439-.24227-.3089-.45427-.25439-.963a1.41858,1.41858,0,0,0-.01211-.56935,1.89815,1.89815,0,0,1,.06057-.98123c.03634-.16959.0848-.4482.103-.6299a1.42456,1.42456,0,0,1,.09691-.44822,2.25568,2.25568,0,0,0,.19987-.90249c-.01211-.109-.03634-.52694-.06056-.92669a4.03853,4.03853,0,0,0-.103-.83586c-.0424-.07875-.03029-.1817.0424-.35736.09085-.23622.09085-.24833-.03029-.36341a.4174.4174,0,0,1-.12114-.26651.81854.81854,0,0,0-.08479-.321c-.07269-.13931-.12114-.16354-.27256-.13931-.103.01212-.18777.04846-.18777.07268,0,.03029-.13325.09692-.30284.15143a.98706.98706,0,0,0-.3513.1817.37534.37534,0,0,1-.17565.13326,4.05,4.05,0,0,0-.98728.96305.95713.95713,0,0,1-.218.32707c-.12114.12719-.19988.2665-.17565.29679a.60062.60062,0,0,1-.09691.315c-.09085.18776-.109.28467-.06663.38158a.38813.38813,0,0,1-.03028.321,3.12691,3.12691,0,0,0-.0848,1.04784,1.951,1.951,0,0,1-.09085.79952c-.06663.20593-.07268.315-.03029.39975a.19338.19338,0,0,1-.02422.23016.49815.49815,0,0,0-.09086.24834.87738.87738,0,0,1-.06662.28467.36664.36664,0,0,0,.006.34525,1.99987,1.99987,0,0,1,.12114.7026v.212c0,.07874-.00606.2665-.00606.43,0,.46033.1272,1.00545.24834,1.04179a.55641.55641,0,0,1,.24227.424c0,.0424.05452.09691.11509.12114a.25112.25112,0,0,1,.15748.14537c.05451.1817.2241.29679.67231.46638a1.938,1.938,0,0,0,1.52634.03028.73164.73164,0,0,1,.35736-.103.14655.14655,0,0,0,.16354-.05452c.06057-.08479.26045-.13931.61175-.17565a.81441.81441,0,0,0,.26044-.08479.261.261,0,0,1,.19382-.0424c.09691.06057.50878-.24228.72683-.533a1.39323,1.39323,0,0,1,.38159-.3513.68752.68752,0,0,0,.24228-.16959c.19987-.27862.38764-.19383.77528.34524a3.55726,3.55726,0,0,0,.32707.38764.50033.50033,0,0,1,.14537.218c.07268.16959.7026.60569.77528.533.02422-.01817.103.00606.18171.05451a1.02018,1.02018,0,0,0,.36947.1272c.12114.01211.27862.03634.34524.04239a2.19989,2.19989,0,0,1,.2544.06057.42358.42358,0,0,0,.32707-.05451,1.45084,1.45084,0,0,1,.321-.12114c.46031-.08479.55723-.103.58146-.13931a1.39564,1.39564,0,0,1,.59963-.33918.07934.07934,0,0,0,.10116-.04856l.00184-.00595a1.0959,1.0959,0,0,1,.70866-.44216,1.34329,1.34329,0,0,0,.3513-.0848c.11508-.06057.32707.09086.2665.19382-.01817.02423,0,.11509.04846.18777a2.02177,2.02177,0,0,1,.04845.93882.47352.47352,0,0,1-.1393.27256,3.958,3.958,0,0,0-.33919.43c-.15142.22411-.19382.33313-.16354.45427.0424.212.23622.33919.38764.26045.06057-.03634.1272-.04846.14537-.03029a2.70494,2.70494,0,0,0,.88431-.23622,1.2423,1.2423,0,0,0,.34524-.51483,1.618,1.618,0,0,1,.25439-.4361,1.119,1.119,0,0,0,.25439-.3089,1.369,1.369,0,0,1,.27256-.33919.24933.24933,0,0,0,.11509-.16959,1.35392,1.35392,0,0,1,.27256-.3937,1.30812,1.30812,0,0,0,.30284-.51484c.06663-.27256.19988-.45427.33313-.45427a2.27119,2.27119,0,0,0,.46033-.91459,1.84452,1.84452,0,0,1,.19988-.49667,1.35161,1.35161,0,0,0,.19382-.92065,2.49236,2.49236,0,0,0-.07874-.67232.22774.22774,0,0,1-.01212-.20593,4.20976,4.20976,0,0,0,.16354-.87825c.02423-.18171.07268-1.47183.0848-2.30769a1.46335,1.46335,0,0,0-.09691-.62992.59819.59819,0,0,1-.06663-.38764,3.08933,3.08933,0,0,0,.03634-1.00544.27813.27813,0,0,1,.01211-.218c.05452-.11508.0424-.19988-.04239-.38765a.76841.76841,0,0,1-.07269-.45426c.03029-.18777.01817-.22411-.109-.28468a.4005.4005,0,0,1-.19382-.20593l-.04846-.13326Z"/>

</g>
</svg>
