<?xml version="1.0" encoding="UTF-8"?>
<svg xmlns="http://www.w3.org/2000/svg"
     version="1.1"
     width="54.16952493mm"
     height="39.09369260mm"
     viewBox="0.00000000 0.00000000 153.55135107 110.81680067">

<g transform="scale(4.67561906)">   <defs>
      <style type="text/css"><![CDATA[
      .a {
        stroke: #000;
        stroke-linecap: round;
        stroke-linejoin: round;
        stroke-width: 0.01px;
      }
    ]]></style>
   </defs>
   <path class="a"
         d="M32.16571.06306c-.09691.04846-.1696.109-.1696.13326a3.957,3.957,0,0,1-.36341.49061,2.76848,2.76848,0,0,1-.86008.79345,8.28857,8.28857,0,0,0-1.20533,1.10236,1.95449,1.95449,0,0,1-.50878.38764c-.0848.01817-.15142.06057-.15142.0848a5.42488,5.42488,0,0,1-.92065.89036c-.212.11509-.27256.09691-.4785-.13325a.7083.7083,0,0,0-.27862-.212.43083.43083,0,0,1-.212-.15142,1.64637,1.64637,0,0,0-.43609-.29679,3.79215,3.79215,0,0,0-1.39309-.25439,1.57867,1.57867,0,0,1-.46639-.09086.73467.73467,0,0,0-.27861-.05451,2.25944,2.25944,0,0,1-.44822-.08479,2.49067,2.49067,0,0,0-1.278-.06663,1.46439,1.46439,0,0,1-.66021.02423,7.13041,7.13041,0,0,0-.93276-.09086c-.36342-.01211-.84191-.04845-1.06-.07874a2.97973,2.97973,0,0,0-1.39915.22411.42.42,0,0,1-.212.03028.99454.99454,0,0,0-.36341.109,3.24782,3.24782,0,0,1-.56935.18171,6.29536,6.29536,0,0,0-1.36281.46638c-.3089.13325-.44821.16959-.527.12719a.28217.28217,0,0,0-.28467.03634.93425.93425,0,0,1-.27256.09086,1.82,1.82,0,0,0-.44822.212,2.35267,2.35267,0,0,1-.61174.24833c-.13326.02423-.24834.06057-.24834.0848a.81872.81872,0,0,1-.315.15142,4.35514,4.35514,0,0,0-1.41126.79951,1.3209,1.3209,0,0,1-.58146.34525l-.33919.109-.3089-.15748c-.3089-.15748-.41187-.29679-.33919-.47849.01818-.06057-.02422-.15748-.12719-.26045a.64927.64927,0,0,1-.18776-.44215,6.22077,6.22077,0,0,0-.22411-1.3083,3.19447,3.19447,0,0,1-.103-1.01756c.00606-.03634-.00605-.27256-.02423-.51483-.02422-.38159-.04845-.46639-.18776-.59358a.55614.55614,0,0,0-.236-.14532,1.17677,1.17677,0,0,0-.7026.44216,4.58349,4.58349,0,0,1-.54512.533,3.32952,3.32952,0,0,0-.424.38765,1.8153,1.8153,0,0,1-.58146.533,3.61567,3.61567,0,0,0-.78134.71471.35842.35842,0,0,0-.09085.18776,1.45489,1.45489,0,0,1-.5209.86009c-.33919.3089-.3937.46032-.26045.71471a1.14873,1.14873,0,0,1,.0848.34525.93906.93906,0,0,0,.0848.35735.56378.56378,0,0,1,.06662.212.13838.13838,0,0,0,.0848.12114,2.46064,2.46064,0,0,1,.46033.89643,2.01563,2.01563,0,0,0,.15747.46032,2.2,2.2,0,0,1,.17566.73289l.02422.38764-.28467.2665a2.84642,2.84642,0,0,1-.51484.3937c-.12114.06663-.22411.13931-.22411.1696,0,.02422-.06662.07874-.14536.11508a.71028.71028,0,0,0-.25439.3089.58129.58129,0,0,1-.20594.27862,1.63725,1.63725,0,0,0-.3513.26044c-.13931.12114-.32707.28468-.41187.36342a.50894.50894,0,0,0-.19987.38158.74281.74281,0,0,1-.2362.13936.6066.6066,0,0,0-.33919.36947.66217.66217,0,0,1-.15748.27257,1.06781,1.06781,0,0,0-.24833.30284,1.14977,1.14977,0,0,1-.23622.30285.93924.93924,0,0,0-.218.25439,3.44952,3.44952,0,0,1-.212.29073,5.01956,5.01956,0,0,0-.38765.745,3.923,3.923,0,0,1-.33918.56935.91642.91642,0,0,0-.17565.28467A3.65356,3.65356,0,0,1,.9,15.587a.25112.25112,0,0,0-.09691.15748,2.28836,2.28836,0,0,1-.20594.47244.928.928,0,0,0-.17565.62992.72137.72137,0,0,1-.06057.41793.48354.48354,0,0,0-.06057.25439.65257.65257,0,0,1-.06662.321.49791.49791,0,0,0-.04846.33918.74762.74762,0,0,1,0,.37553c-.03028.15142-.06662.39976-.07874.55118s-.0424.424-.06057.60569a4.67606,4.67606,0,0,0-.01822,1.07814.545.545,0,0,1-.01817.26045.89263.89263,0,0,0,.07874.41187,3.00622,3.00622,0,0,1,.14537.58146,1.81775,1.81775,0,0,0,.26044.8298,2.95564,2.95564,0,0,1,.18777.47244c0,.03028.109.13325.24227.218a.52339.52339,0,0,0,.45427.12113c.11508-.02422.212-.06662.212-.09691s.06057-.07268.1272-.09085c.22411-.07268.54512-.44821.50878-.59358a1.59634,1.59634,0,0,1-.03028-.48455c.006-.05451.006-.21805.006-.36342A3.9984,3.9984,0,0,1,2.45047,20.39c.06662-.109.109-.218.09085-.23621a.48388.48388,0,0,1,.06057-.26651A.79323.79323,0,0,0,2.66246,19.53a.80455.80455,0,0,1,.03028-.34524c.03029-.1272.0848-.33919.12114-.47244a3.41,3.41,0,0,0,.07874-.46638,1.943,1.943,0,0,1,.36947-.87825.35916.35916,0,0,0,.09086-.15748,1.96978,1.96978,0,0,1,.11508-.64809.25154.25154,0,0,0,.006-.23622c-.06662-.12114.0848-.61175.19382-.61175.03029,0,.03635-.0424.01818-.09691a.28359.28359,0,0,1,.04845-.23016,1.32057,1.32057,0,0,0,.11508-.39976,3.61388,3.61388,0,0,1,.20594-.93882,2.21182,2.21182,0,0,0,.26054-.71471,1.35972,1.35972,0,0,1,.212-.46638,2.94832,2.94832,0,0,0,.424-.99333.76044.76044,0,0,1,.20593-.33313,1.75143,1.75143,0,0,0,.30285-.44821.87018.87018,0,0,1,.28467-.35736c.07874-.03634.14537-.09085.14537-.11508,0-.09691.4785-.29679.69655-.29679a.52.52,0,0,0,.3089-.09085.51455.51455,0,0,1,.58146.00605.72107.72107,0,0,0,.46638.05452c.25439-.03029,1.11447-.09691,1.33858-.09691.04846,0,.3513,0,.66626.00605a7.82628,7.82628,0,0,0,.848-.03028,8.21919,8.21919,0,0,1,1.54451,0,17.92748,17.92748,0,0,0,2.27134.00605c.315-.01817.636-.03028.71472-.03028a3.88161,3.88161,0,0,0,.642-.218,2.89215,2.89215,0,0,1,.67837-.212h.98122a5.83338,5.83338,0,0,0,1.12053-.0848.8622.8622,0,0,1,.40581-.03634A1.3046,1.3046,0,0,0,19.70062,9.53a6.181,6.181,0,0,1,1.12052-.13325A3.36112,3.36112,0,0,0,21.6146,9.306a1.41706,1.41706,0,0,1,.41793-.09691,1.81014,1.81014,0,0,0,.51483-.15142c.1272-.06663.24228-.109.26045-.09086a.63445.63445,0,0,0,.27862-.07268.82754.82754,0,0,1,.4361-.06057.49125.49125,0,0,0,.29073-.02423,1.93885,1.93885,0,0,1,.46638-.09085c.64809-.06057.73289-.07874.88431-.17565a2.3037,2.3037,0,0,1,.86614-.27862,2.23643,2.23643,0,0,0,.39975-.0848.18841.18841,0,0,1,.212.07269.59092.59092,0,0,0,.50273.2241.83534.83534,0,0,1,.37553.06663,4.99046,4.99046,0,0,0,2.26528.18171,1.7039,1.7039,0,0,0,1.381-.64809,1.5292,1.5292,0,0,1,.44215-.35736.54228.54228,0,0,0,.24832-.12114.565.565,0,0,1,.26652-.12114c.14536,0,.18776-.07874.212-.424.01817-.24833-.00606-.315-.13931-.44821a1.38475,1.38475,0,0,0-.81768-.41793A5.58415,5.58415,0,0,1,30.27,6.06548a2.07158,2.07158,0,0,1-.35735-.16353.86026.86026,0,0,0-.55724-.1272c-.3089.00606-.33919-.00606-.59963-.25439-.30285-.29679-.32708-.38764-.15143-.58752a.58577.58577,0,0,0,.12114-.18171,7.26913,7.26913,0,0,1,.957-.9691c.17565-.15143.54513-.49667.82374-.76923a3.10706,3.10706,0,0,1,.84191-.65415,1.00491,1.00491,0,0,0,.34525-.218,3.44685,3.44685,0,0,1,.48455-.55723c.29679-.30285.47244-.533.45427-.58752a.42034.42034,0,0,1,.09077-.27258c.14537-.22411.15142-.38159.01212-.55118A.44781.44781,0,0,0,32.16571.06306Zm-13.86427,4.682a.96011.96011,0,0,0,.38764.07268c.79346-.00606,2.69533.0424,3.07085.07874.18171.01817.58147.0424.87826.04845a2.81412,2.81412,0,0,1,.60569.06057,4.34372,4.34372,0,0,0,.636.07874,3.97556,3.97556,0,0,1,1.37492.25439,1.39218,1.39218,0,0,1,.52695.24228c.04846.12114-.13325.41187-.315.50878a.64646.64646,0,0,0-.2241.23622,2.43264,2.43264,0,0,1-1.48394,1.00545c-.11509.01817-.424.103-.68444.1817a1.89057,1.89057,0,0,1-.52695.11509c-.05451-.03029-.218-.01212-1.272.18776a7.37439,7.37439,0,0,1-.93882.11508,1.99043,1.99043,0,0,0-.73894.109.41251.41251,0,0,1-.27256-.0424,1.08626,1.08626,0,0,0-.82374.04845.86169.86169,0,0,1-.50878.02423,1.18666,1.18666,0,0,0-.46033.00606.26273.26273,0,0,1-.25439-.02423.97063.97063,0,0,0-.36341-.07874,3.9326,3.9326,0,0,1-.636-.103,5.24217,5.24217,0,0,0-1.278-.20593,1.31741,1.31741,0,0,1-.60569-.16354c-.16353-.09085-.39975-.212-.52695-.27862a1.61138,1.61138,0,0,0-.527-.14536,1.68375,1.68375,0,0,1-.53907-.14537,1.39123,1.39123,0,0,0-.51483-.12114c-.25439,0-.46033-.109-.46033-.24227,0-.14537.24834-.27862.76317-.41793a1.11633,1.11633,0,0,0,.41187-.218.55784.55784,0,0,1,.25439-.15142.85667.85667,0,0,0,.26651-.09086,1.48025,1.48025,0,0,1,.43609-.11508,2.3318,2.3318,0,0,0,.50273-.11508A1.89961,1.89961,0,0,1,15.17,5.29017a1.84257,1.84257,0,0,0,.41792-.07874A1.10405,1.10405,0,0,1,16.03,5.15086a1.04156,1.04156,0,0,0,.49061-.15142,1.08221,1.08221,0,0,1,.48455-.15143,1.10388,1.10388,0,0,0,.39976-.07874A1.2435,1.2435,0,0,1,18.30144,4.74506Z"/>
   <path class="a"
         d="M7.28392,10.87465c0,.03028.03028.0424.06057.02423.03634-.01817.06057-.04846.06057-.06663,0-.01211-.02423-.02423-.06057-.02423A.06634.06634,0,0,0,7.28392,10.87465Z"/>

</g>
</svg>
