<?xml version="1.0" encoding="UTF-8"?>
<svg xmlns="http://www.w3.org/2000/svg"
     version="1.1"
     width="48.05657817mm"
     height="45.17589977mm"
     viewBox="0.00000000 0.00000000 136.22337601 128.05769581">

<g transform="scale(4.36982859)">   <defs>
      <style type="text/css"><![CDATA[
      .a {
        stroke: #000;
        stroke-linecap: round;
        stroke-linejoin: round;
        stroke-width: 0.01px;
      }
    ]]></style>
   </defs>
   <path class="a"
         d="M26.49339.1518c-.38765.12719-.39976.1393-.58753.52089a1.47748,1.47748,0,0,1-1.30223.96305.2869.2869,0,0,0-.19989.06057,1.35664,1.35664,0,0,1-.27861.21805,1.60889,1.60889,0,0,0-.6602.89036.69769.69769,0,0,0,.07267.30285,3.639,3.639,0,0,1,.09086.89036c.01211.41793.03028.83586.04241.92671a1.15984,1.15984,0,0,1-.02423.3513,3.59558,3.59558,0,0,0-.09086.54512,1.82549,1.82549,0,0,1-.08479.46638.72564.72564,0,0,0-.00606.36948c.09085.50272-.13325.87219-.957,1.58085-.17565.15142-.41187.36341-.527.46638a.67.67,0,0,1-.34525.19988,3.85006,3.85006,0,0,0-1.09024.75711.89205.89205,0,0,1-.315.17565.65943.65943,0,0,0-.30286.18777.54862.54862,0,0,1-.23016.18776,1.82262,1.82262,0,0,0-.38158.29073,1.1957,1.1957,0,0,1-.45427.27862,1.98275,1.98275,0,0,0-.50271.26045,1.30266,1.30266,0,0,1-.54513.23622,1.18432,1.18432,0,0,0-.45427.17565.59673.59673,0,0,1-.2241.11508.13317.13317,0,0,0-.109.07874,1.78047,1.78047,0,0,1-.46638.315,1.7367,1.7367,0,0,0-.46638.321.56952.56952,0,0,1-.20593.16959c-.15748.07874-.18171.07874-.29679-.03634a.48016.48016,0,0,1-.12114-.29073c.00606-.09086-.00606-.30285-.01211-.46639a1.09925,1.09925,0,0,1,.0303-.41186c.03634-.08479.01211-.16959-.09691-.321a.4853.4853,0,0,1-.103-.46638,10.0839,10.0839,0,0,0,.1272-1.16293c-.00606-.03634-.01817-.1272-.02423-.212a.95662.95662,0,0,0-.0848-.27256.22.22,0,0,1,0-.24228c.06057-.11508.06663-.218.01212-1.7565a4.55569,4.55569,0,0,0-.16354-1.60509,2.87713,2.87713,0,0,1-.19988-.93882,1.62017,1.62017,0,0,0-.103-.54512,2.56744,2.56744,0,0,0-.52089-.27256,2.017,2.017,0,0,0-.67837.4785,2.482,2.482,0,0,0-.09691.52089.96945.96945,0,0,1-.33313.73894,2.56444,2.56444,0,0,0-.38765.53907,1.89576,1.89576,0,0,1-.2665.424.969.969,0,0,0-.218.43,3.82439,3.82439,0,0,1-.24228.65415c-.109.23016-.315.67837-.45426.98728a6.914,6.914,0,0,1-.46033.87219.65231.65231,0,0,0-.03634.83585,1.30641,1.30641,0,0,1,.109.57541,1.71547,1.71547,0,0,0,.14537.72077.8387.8387,0,0,1,.09691.49061.69428.69428,0,0,0,.01817.33919,1.09927,1.09927,0,0,1,.00606.43,1.8305,1.8305,0,0,0,.01817.57541,5.4461,5.4461,0,0,1,.07268.71471c.01211.23017.03634.54512.06057.69655.05451.37553-.103.60569-.57541.86008-.20593.109-.47244.25439-.59357.321-.1272.06663-.33919.1696-.4785.23017a2.72052,2.72052,0,0,0-.47244.28467.88112.88112,0,0,1-.3089.18171A5.32347,5.32347,0,0,0,8.25,16.86281a2.0401,2.0401,0,0,1-.46032.18776.939.939,0,0,0-.35736.17565,4.55339,4.55339,0,0,1-.533.49061,4.23175,4.23175,0,0,0-.58146.57541,1.62521,1.62521,0,0,1-.30285.321c-.7026.55118-.90248.75711-1.08418,1.12053a1.42311,1.42311,0,0,1-.5209.60569,1.84917,1.84917,0,0,0-.69049,1.00544,2.25318,2.25318,0,0,1-.46032.5633c-.92671.93882-1.19927,1.26589-1.1387,1.3628.07268.11508-.109.4785-.28468.56329a.27152.27152,0,0,0-.17565.24834c0,.18776-.07874.34524-.33313.6602a1.43648,1.43648,0,0,0-.23622.37553.69667.69667,0,0,1-.23016.2665.85018.85018,0,0,0-.321.81769.6504.6504,0,0,1-.15143.53906,1.46332,1.46332,0,0,0-.212.54512,1.64156,1.64156,0,0,1-.12719.46033c-.19988.39975.32707,1.31435.67837,1.18109a.90417.90417,0,0,1,.41187.14537.81112.81112,0,0,0,.3513.14537.58215.58215,0,0,1,.27256.03634.43591.43591,0,0,0,.41794-.01815c.13931-.07269.20593-.07874.29679-.02423A3.14489,3.14489,0,0,0,3.992,29.18257a3.12863,3.12863,0,0,0,.4785-.18171,2.5884,2.5884,0,0,1,.67232-.212.59738.59738,0,0,0,.27256-.109A5.08443,5.08443,0,0,1,6.95987,28.159a5.05213,5.05213,0,0,0,.81768-.33919,4.935,4.935,0,0,1,.60569-.2665,16.34147,16.34147,0,0,0,3.30708-2.21683c.16959-.1696.23016-.17565.3937-.01212.109.109.12113.18777.109.73895a3.36354,3.36354,0,0,1-.07268.73894.90333.90333,0,0,0,.04845.7026.98175.98175,0,0,1,.09086.38159,1.07035,1.07035,0,0,0,.39975.82374,1.47569,1.47569,0,0,0,.72683.12113c.45427.02423.76317-.2241.92671-.75711a4.79374,4.79374,0,0,1,.20593-.51484,6.58626,6.58626,0,0,1,.50273-.87825c.06057-.103.109-.19988.09691-.2241a1.84831,1.84831,0,0,1,.14536-.38159,2.7041,2.7041,0,0,0,.1696-.56935c.01211-.12114.05451-.3513.09085-.52089a1.94751,1.94751,0,0,0,.06057-.48456,1.19834,1.19834,0,0,1,.03028-.33313c.01818-.08479.04846-.26044.06663-.3937s.04846-.32707.06663-.424a5.70085,5.70085,0,0,0,.03028-1.12053,4.51492,4.51492,0,0,1,.04846-.81162.77065.77065,0,0,0-.01212-.45427,6.46613,6.46613,0,0,1,.01212-1.9382c.06057-.103.06057-.206,0-.46033a1.09156,1.09156,0,0,1-.00606-.5754.64325.64325,0,0,0-.01813-.45433.48173.48173,0,0,1-.06057-.22411,2.94727,2.94727,0,0,0,.06663-.56935,2.38372,2.38372,0,0,1,.11508-.67232.39307.39307,0,0,0,.05451-.27256c-.01817-.07268-.06057-.24833-.0848-.38158a2.59726,2.59726,0,0,0-.17565-.48455,1.06308,1.06308,0,0,1-.12719-.30285,1.6078,1.6078,0,0,1,.54512-.6602c.15142-.12114.32707-.26651.3937-.33313a3.84322,3.84322,0,0,1,.51484-.33313,5.5496,5.5496,0,0,0,.54512-.33919,1.02406,1.02406,0,0,1,.38158-.14537,1.34906,1.34906,0,0,0,.75106-.44215,1.08081,1.08081,0,0,1,.39976-.24228,1.14623,1.14623,0,0,0,.40581-.2665.98381.98381,0,0,1,.3089-.23622,2.76008,2.76008,0,0,0,.64809-.49667,1.34787,1.34787,0,0,1,.67232-.33313c.17565-.01817.29073-.103.61175-.44821a2.12317,2.12317,0,0,1,.49061-.424c.04239-.00606.14536-.01817.212-.02423a1.33547,1.33547,0,0,0,.7874-.69049,1.16989,1.16989,0,0,1,.50878-.533,9.39385,9.39385,0,0,0,1.62929-1.53239,2.376,2.376,0,0,0,.72683-1.169,4.52643,4.52643,0,0,1,.22411-.60569.78828.78828,0,0,0,.0848-.26045,1.46711,1.46711,0,0,1,.15143-.38764,1.37967,1.37967,0,0,0,.15142-.40581.62555.62555,0,0,1,.103-.26045.956.956,0,0,0,.109-.41792,1.95726,1.95726,0,0,1,.20594-.70261,4.58993,4.58993,0,0,0,.218-.52089,1.79336,1.79336,0,0,1,.12114-.29679.80318.80318,0,0,0,.05451-.533,1.80952,1.80952,0,0,0-.09691-.45427A1.54864,1.54864,0,0,1,27.3777.709a1.03476,1.03476,0,0,0-.103-.44821c-.07269-.103-.315-.27256-.36947-.25439C26.89314.01249,26.71143.07308,26.49339.1518ZM11.84172,16.7659c.00606.02423.01211.16354.01817.315a4.32669,4.32669,0,0,0,.06057.47244.46616.46616,0,0,1-.0848.41187c-.11508.17565-.12719.24227-.06662.36341a1.65823,1.65823,0,0,1,.06662.49667,2.75523,2.75523,0,0,0,.06663.58752,7.18339,7.18339,0,0,1,.218,1.60508,2.94605,2.94605,0,0,0,.03028.59963.84.84,0,0,1-.01817.50273,1.465,1.465,0,0,0-.0848.40581,1.55617,1.55617,0,0,1-.04239.33919c-.01817.06662-.05452.19382-.07269.28467-.06662.29679-.94487.69655-1.30223.59358a.41509.41509,0,0,0-.26045.00606,1.86167,1.86167,0,0,1-.65415.05451c-.04845,0-.34524.0424-.6602.09691a2.54636,2.54636,0,0,1-.90854.0424,2.87069,2.87069,0,0,0-.59357-.01817c-.22411.03634-.30285.006-.66626-.21805a7.70085,7.70085,0,0,0-.68443-.3937,2.98877,2.98877,0,0,1-.848-.75711,1.32479,1.32479,0,0,1,.12719-.24834,1.25229,1.25229,0,0,0,.14537-.69654c.00606-.45427.01817-.49667.16959-.60569a1.04739,1.04739,0,0,0,.26045-.30285,5.35834,5.35834,0,0,1,.77529-.99939.55538.55538,0,0,0,.15747-.19988c0-.03634.103-.109.22411-.15748a4.41525,4.41525,0,0,0,.76923-.64809A5.709,5.709,0,0,1,9.40078,17.626a9.04931,9.04931,0,0,1,1.37492-.68443c.1696-.05451.43-.15142.57541-.212C11.6055,16.62053,11.81749,16.63265,11.84172,16.7659Z"/>
   <path class="a"
         d="M22.64119,13.69508c-.19382.20593-.49667.50878-.66626.68443a2.38663,2.38663,0,0,0-.40581.49666c-.09691.18171-.212.30285-.65415.62992a1.67227,1.67227,0,0,0-.81162,1.55663,1.218,1.218,0,0,1,.03028.3513,1.526,1.526,0,0,0-.01211.33313c.006.15142.006.32707,0,.3937s0,.28467.006.48455.02423.71472.03029,1.15081a3.44357,3.44357,0,0,0,.13325,1.12053,3.45254,3.45254,0,0,1,.13931,1.169.764.764,0,0,0,.09085.30284,3.79851,3.79851,0,0,1,.27862,1.12053,1.64591,1.64591,0,0,0,.27256.76317.73838.73838,0,0,1,.109.424,1.6625,1.6625,0,0,0,.24833.76317,1.344,1.344,0,0,0,.55118.70866,2.80247,2.80247,0,0,1,.44215.3513,1.1874,1.1874,0,0,0,.75712.35736.32275.32275,0,0,1,.218.03634,1.20529,1.20529,0,0,0,.33919.0848.68168.68168,0,0,1,.38159.16959.82824.82824,0,0,0,.40581.19988,1.33277,1.33277,0,0,1,.38158.13325.98224.98224,0,0,0,.78135-.07874.47637.47637,0,0,1,.27861-.04845c.13326.04845.49667-.1272.66021-.3089a.81315.81315,0,0,1,.50272-.30891,3.84575,3.84575,0,0,0,.93889-.37555,1.00263,1.00263,0,0,1,.33313-.1393,1.48634,1.48634,0,0,0,.23622-.02423,1.03429,1.03429,0,0,0,.49061-.5209.49378.49378,0,0,1,.24833-.212.70331.70331,0,0,0,.29679-.2665.76535.76535,0,0,1,.53907-.36342,1.45426,1.45426,0,0,0,.55723-.68443c.00605-.07268.01816-.15142.01816-.17565a1.69192,1.69192,0,0,1,.18778-.2241.56242.56242,0,0,0,.18775-.3513,1.19619,1.19619,0,0,0-.24226-.84191c-.13932-.13931-.23017-.1696-.56935-.18777a.92915.92915,0,0,0-.55724.07874.22108.22108,0,0,1-.28467.01817.45684.45684,0,0,0-.18777-.06662.76415.76415,0,0,1-.24227-.09086,1.23021,1.23021,0,0,0-.46639-.12114c-.15142-.01211-.43609-.03028-.636-.04239a5.80869,5.80869,0,0,1-1.64748-.51484c-.27862-.13931-.56329-.44821-.56329-.60569a.55887.55887,0,0,0-.17565-.27256,3.51446,3.51446,0,0,1-.642-1.5324,1.30521,1.30521,0,0,0-.15142-.5209,1.88666,1.88666,0,0,1-.32707-.848,2.535,2.535,0,0,0-.09086-.424c-.03635-.09085-.04846-.16353-.03028-.16353s-.01211-.06057-.06057-.13326a.19639.19639,0,0,1-.03028-.23622c.04239-.07874.02422-.16353-.06057-.30284-.06663-.109-.109-.218-.09086-.24833.01817-.02423,0-.09691-.03028-.15748a1.02468,1.02468,0,0,1-.0848-.321c-.01817-.11508-.03634-.23622-.0424-.2665a.32581.32581,0,0,1,.12114-.33313c.109-.109.109-.13326.03029-.36342-.04846-.13325-.07269-.24228-.05452-.24228.01212,0-.01211-.07874-.06662-.1817a.84124.84124,0,0,1-.09086-.28468,1.41822,1.41822,0,0,0-.41187-.72683C23.20448,13.23472,23.041,13.28318,22.64119,13.69508Z"/>

</g>
</svg>
