<?xml version="1.0" encoding="UTF-8"?>
<svg xmlns="http://www.w3.org/2000/svg"
     version="1.1"
     width="17.82706601mm"
     height="65.51780725mm"
     viewBox="0.00000000 0.00000000 50.53349597 185.71982677">

<g transform="scale(6.15888107)">   <defs>
      <style type="text/css"><![CDATA[
      .a {
        stroke: #000;
        stroke-linecap: round;
        stroke-linejoin: round;
        stroke-width: 0.01px;
      }
    ]]></style>
   </defs>
   <path class="a"
         d="M3.97831.14589a1.05788,1.05788,0,0,0-.30284.25439,1.991,1.991,0,0,1-.48456.55724c-.16353.15142-.33313.321-.37552.36947-.04846.04846-.23622.24833-.41793.44821a2.0895,2.0895,0,0,0-.33919.424,7.56983,7.56983,0,0,1-.3937,1.22956c-.09691.23016-.06057.36341.103.41187.18777.06057.25439.24833.13325.36947-.09691.09085-.09085.109.06663.218a1.38679,1.38679,0,0,1,.41187.79345,1.34207,1.34207,0,0,0,.103.4361,1.0736,1.0736,0,0,1-.00606.93276c-.07268.103-.07874.18777-.03634.39976a.578.578,0,0,1-.07874.51484c-.09086.15748-.19382.26045-.29679.27862a1.05971,1.05971,0,0,0-.2665.09691.97331.97331,0,0,1-.29074.07268.51316.51316,0,0,0-.29073.14537.33022.33022,0,0,1-.315.1393c-.03028,0-.04845.01817-.04845.05452,0,.03028-.0848.103-.18777.15748-.23622.12113-.6602.533-.6602.642,0,.15748.36341.4361.56329.43a2.62415,2.62415,0,0,0,.8722-.18777.51714.51714,0,0,1,.745.20594c.14536.23016.41792.33313.89036.32707a3.53814,3.53814,0,0,1,1.55057.20594c.51484.218.61781.41792.36947.7026A3.32266,3.32266,0,0,0,4.475,11.454a.79859.79859,0,0,1-.16354.23017c-.15142,0-.61174.62386-.527.70865.01817.01818-.01817.13326-.07874.25439a3.72549,3.72549,0,0,0-.5512,1.34475c0,.12719.02423.23622.05452.23622.08479,0,.1393.2241.09691.35736a.25107.25107,0,0,1-.14537.15748c-.19988.06056-.3513.79345-.3089,1.48394a3.312,3.312,0,0,1-.03029.3937,4.25524,4.25524,0,0,0,0,1.24166A3.868,3.868,0,0,1,2.8275,18.886a.38846.38846,0,0,0,.13931.424,1.39424,1.39424,0,0,1,.24228.29073,3.294,3.294,0,0,1-.03029,1.21138,1.04946,1.04946,0,0,0,.03029.44215.41692.41692,0,0,1-.02423.36948c-.0848.15142-.09691.29073-.0848.93276a2.88243,2.88243,0,0,1-.03634.60569A2.63931,2.63931,0,0,0,3.18486,24.416a.43313.43313,0,0,1-.01817.27256.5185.5185,0,0,0-.00606.30285c.03634.09691-.01211.24833-.16354.56329a2.56911,2.56911,0,0,0-.23622.65415c-.00605.12113-.04845.23016-.08479.24227-.0424.01212-.05451.16354-.02423.46033a1.929,1.929,0,0,1-.27862,1.29012A1.982,1.982,0,0,0,2.08856,29.31a2.8698,2.8698,0,0,1-.04846.39975c-.0424.11508.25439.38159.46033.41794.39975.06662.51483.006,1.00544-.50273.25439-.2665.49667-.527.53907-.56935a4.61878,4.61878,0,0,1,.37553-.33918,1.13533,1.13533,0,0,0,.3089-.34525.696.696,0,0,1,.18171-.27256.99809.99809,0,0,0,.18776-.24833,1.81926,1.81926,0,0,1,.13325-.4361c.06057-.15748.13931-.28467.1696-.28467s.04845-.06057.0424-.13931a1.0795,1.0795,0,0,1,.16353-.44216,1.27644,1.27644,0,0,0,.25439-.99333,3.67561,3.67561,0,0,1-.01211-1.09024,16.06187,16.06187,0,0,0,.07874-2.51362.973.973,0,0,1,.03634-.3513,3.16138,3.16138,0,0,0,0-1.19321,6.12377,6.12377,0,0,1-.02423-.6663,7.12661,7.12661,0,0,1,.09086-1.45366,3.08118,3.08118,0,0,0,.07268-.59964c.01211-.28467.03634-.71471.04845-.94487a10.22221,10.22221,0,0,0,0-1.66565,6.58771,6.58771,0,0,1-.04845-.7874,1.47761,1.47761,0,0,0-.11508-.73289,1.3562,1.3562,0,0,1-.13325-.636.956.956,0,0,1,.2241-.84191,4.24075,4.24075,0,0,1,.4785-.58753.97.97,0,0,0,.23016-.29073c0-.03634.06663-.09085.14537-.12719a.52.52,0,0,0,.212-.19988.96277.96277,0,0,1,.24833-.24833,2.79056,2.79056,0,0,0,.64809-.9146.40382.40382,0,0,1,.02423-.2241A1.81008,1.81008,0,0,0,8.2,8.83756a1.808,1.808,0,0,0-.33919-.98728c-.07268-.06662-.2241-.19988-.33918-.29679A3.319,3.319,0,0,0,6.813,7.14162a1.95866,1.95866,0,0,0-1.23561-.20593c-.8722.01817-.96911-.03029-.80557-.36947.05451-.11508.12719-.212.16353-.218.03635,0,.16354-.00606.27862-.01212.18777-.01211.212-.03028.19988-.16959a.98721.98721,0,0,0-.16354-.38158c-.109-.16354-.1393-.26045-.103-.32708s.01817-.17565-.06663-.33918A.85912.85912,0,0,1,5.002,4.50081c.03029-.29073.01817-.38764-.04845-.43a.40456.40456,0,0,1-.15143-.49667c.18171-.68443.17565-.52089.09086-2.29557a2.06618,2.06618,0,0,0-.1757-.99943C4.54161-.03581,4.32961-.07821,3.97831.14589Z"/>

</g>
</svg>
