<?xml version="1.0" encoding="UTF-8"?>
<svg xmlns="http://www.w3.org/2000/svg"
     version="1.1"
     width="33.87537044mm"
     height="57.32033093mm"
     viewBox="0.00000000 0.00000000 96.02477362 162.48288373">

<g transform="scale(6.22744503)">   <defs>
      <style type="text/css"><![CDATA[
      .a {
        stroke: #000;
        stroke-linecap: round;
        stroke-linejoin: round;
        stroke-width: 0.01px;
      }
    ]]></style>
   </defs>
   <path class="a"
         d="M2.24562.06566a1.09349,1.09349,0,0,0-.26045.17565.4118.4118,0,0,1-.29073.12114c-.103,0-.1696.02423-.14537.05451.01817.03029-.12114.20594-.3089.38765s-.36342.35735-.3937.38158A1.59871,1.59871,0,0,0,.45883,1.804,1.12376,1.12376,0,0,0,.798,2.62168c.11509.109.13931.27862.12114.8298A9.63517,9.63517,0,0,0,.93731,4.75371c.02423.23016.05452.53907.06663.67837a1.25749,1.25749,0,0,0,.09085.38159,1.74154,1.74154,0,0,1,.09691.44215,1.85931,1.85931,0,0,0,.09086.47244.49349.49349,0,0,1-.30891.59964c-.09691.0424-.1817.09691-.1817.12719s-.06663.0848-.14537.12114A1.56328,1.56328,0,0,0,.18627,8.4a1.002,1.002,0,0,1-.11508.33919c-.15143.29679-.06663.36341.50272.38158a3.96,3.96,0,0,1,.69049.07874c.21805.06057.27861.11508.40581.37553a1.07986,1.07986,0,0,1,.12114.84191,3.6196,3.6196,0,0,0,.04845,1.36281,5.84321,5.84321,0,0,1,.09086,1.33857,6.17646,6.17646,0,0,0,.06057,1.15082A1.87435,1.87435,0,0,1,2.07,15.002a2.69007,2.69007,0,0,0,.04845.9146A21.30294,21.30294,0,0,1,2.282,18.92688c.01211.66626.03634,1.32041.05451,1.45366s.0424.3937.04845.57541a1.46,1.46,0,0,0,.09086.46638.28107.28107,0,0,1,.00606.28467c-.05452.12114-.05452.1696.02422.24834.07874.07268.0848.12719.03029.24227-.05451.12114-.03634.19382.103.4361a4.9849,4.9849,0,0,0,.39369.54512,3.32067,3.32067,0,0,1,.36948.52695.7999.7999,0,0,0,.3089.34525.39527.39527,0,0,1,.20593.18776.46256.46256,0,0,0,.25439.212.87571.87571,0,0,1,.25439.13325.96376.96376,0,0,0,.61781.29679.6371.6371,0,0,1,.27862.03634.23638.23638,0,0,0,.18776-.01817c.09085-.05451.218-.01817.59358.15143a2.10848,2.10848,0,0,0,1.19927.28467,1.171,1.171,0,0,1,.65414.15142.54432.54432,0,0,0,.315.109c.0848-.03029.1272,0,.321.23622a.192.192,0,0,0,.19988.06057.58578.58578,0,0,1,.315.02422,3.53968,3.53968,0,0,0,.64809.09692c.24834.01211.61175.04239.81163.06056a.99417.99417,0,0,0,.424-.02422,2.092,2.092,0,0,1,.73289-.24228A5.03116,5.03116,0,0,0,12.815,25.6682a.99989.99989,0,0,0,.33313-.23016,2.05356,2.05356,0,0,1,.33919-.26651.699.699,0,0,0,.26045-.31495c.0424-.11509.103-.20594.13325-.20594A7.41683,7.41683,0,0,0,14.8985,23.627a1.9929,1.9929,0,0,0,.27862-.37553.26117.26117,0,0,1,.13931-.1393c.09691-.03635.11508-.13326.08479-.55118a.41643.41643,0,0,0-.20593-.24228c-.18171-.109-.33313-.12114-1.47183-.1272a6.27614,6.27614,0,0,1-2.36219-.2665,3.81938,3.81938,0,0,0-1.54452-.09085,1.74408,1.74408,0,0,1-1.21138-.17565c-.218-.109-.49667-.23017-.61175-.27256a2.739,2.739,0,0,1-.51483-.26045,5.85207,5.85207,0,0,0-.5209-.30285c-.12719-.05451-.23016-.12719-.23016-.15142a.677.677,0,0,0-.15748-.21805.76072.76072,0,0,1-.18171-.33313.43075.43075,0,0,0-.109-.2241.89833.89833,0,0,1-.15142-.19383.59473.59473,0,0,0-.25439-.23016,1.64985,1.64985,0,0,1-.28468-.19988,3.3245,3.3245,0,0,0-.27862-.23016.45852.45852,0,0,1-.18776-.27256,1.89536,1.89536,0,0,0-.1696-.45427,2.46019,2.46019,0,0,1-.18776-.49061,1.008,1.008,0,0,0-.218-.37553c-.103-.103-.16353-.2241-.14536-.27256a.28893.28893,0,0,0-.03029-.20593.20194.20194,0,0,1,.01817-.23016,5.41528,5.41528,0,0,0,.00606-1.599,5.03509,5.03509,0,0,1-.02423-.87825,1.01521,1.01521,0,0,0-.0424-.27256,4.17965,4.17965,0,0,1,.03029-1.41732.88924.88924,0,0,0,.03634-.33919,2.16493,2.16493,0,0,1-.06057-.36947c-.02423-.1817-.05451-.41187-.06663-.50878-.01817-.103-.04239-.29073-.05451-.424a1.882,1.882,0,0,0-.19988-.79951c-.07874-.1272-.07268-.15748.103-.424.212-.315.212-.33918.103-.59357a.44764.44764,0,0,1,0-.41187,1.15485,1.15485,0,0,1,1.272-.957,1.52276,1.52276,0,0,1,.6178.06057.22367.22367,0,0,0,.23622.01212.348.348,0,0,1,.23622-.00606A3.0339,3.0339,0,0,0,7.70289,7.661a6.15505,6.15505,0,0,1,1.14476-.09691c.50272.01817.73894.13931.89642.46032.07268.15142.15748.27256.18776.27256s.07874.07269.109.16354c.15142.424.20593.62992.17565.67837-.04846.07269.18776.26651.2665.218.03635-.02423.13326.00606.218.06057a.28013.28013,0,0,0,.34525.01817.76672.76672,0,0,1,.27861-.06057c.0424.01212.1696-.07268.27862-.1817A1.9945,1.9945,0,0,1,12.179,8.721c.04845,0,.13325-.24228.15142-.43a.46882.46882,0,0,1,.06663-.18171.46653.46653,0,0,0,.06057-.15748,4.12631,4.12631,0,0,1,.56935-.86614c.06056,0,.18776-.3089.20593-.50878a.40215.40215,0,0,1,.12114-.23622c.0848-.06057.09085-.109.04845-.23016a.34064.34064,0,0,1-.01211-.24228.74739.74739,0,0,0-.12719-.7026A2.71315,2.71315,0,0,0,11.79131,4.572a1.41176,1.41176,0,0,1-.41187-.09691,1.615,1.615,0,0,0-.5209-.03634,1.269,1.269,0,0,1-.58146-.06057c-.18777-.09691-.29679-.09085-1.00545.06057a5.32244,5.32244,0,0,1-.81768.09691,3.82748,3.82748,0,0,0-1.44155.24228,1.75838,1.75838,0,0,1-1.12658.16959.429.429,0,0,0-.41187.0424,2.73231,2.73231,0,0,1-.3513.13931A3.07679,3.07679,0,0,1,4.305,5.11713a.72217.72217,0,0,1-.30285-.61781,2.44912,2.44912,0,0,0-.1272-.87825,2.14393,2.14393,0,0,1-.02422-.89642.32591.32591,0,0,0-.02423-.23017,1.79717,1.79717,0,0,1-.0848-.28467,1.53957,1.53957,0,0,0-.12114-.315,1.02171,1.02171,0,0,1-.09085-.4361.48406.48406,0,0,0-.09085-.33919.348.348,0,0,1-.103-.2241A.55778.55778,0,0,0,3.21472.6229.56064.56064,0,0,1,3.09358.39274c0-.103-.43609-.3937-.58146-.38765A1.02809,1.02809,0,0,0,2.24562.06566Z"/>

</g>
</svg>
