<?xml version="1.0" encoding="UTF-8"?>
<svg xmlns="http://www.w3.org/2000/svg"
     version="1.1"
     width="26.39587373mm"
     height="47.23578991mm"
     viewBox="0.00000000 0.00000000 74.82287656 133.89677700">

<g transform="scale(5.48693194)">   <defs>
      <style type="text/css"><![CDATA[
      .a {
        stroke: #000;
        stroke-linecap: round;
        stroke-linejoin: round;
        stroke-width: 0.01px;
      }
    ]]></style>
   </defs>
   <path class="a"
         d="M5.63949.2604a2.449,2.449,0,0,0-.38764.33919.68206.68206,0,0,1-.12114.15748,1.12984,1.12984,0,0,0-.17565.24833,3.70562,3.70562,0,0,1-.38764.642c-.06057.06057-.16959.1817-.24228.2665a.80723.80723,0,0,0-.15142.23016.56275.56275,0,0,1-.13931.22411A3.3308,3.3308,0,0,0,3.883,4.373a.88628.88628,0,0,0,.321.61174,3.20228,3.20228,0,0,1,.40582.53907,2.03307,2.03307,0,0,0,.20593.33919.82766.82766,0,0,1,.109.32707,2.12934,2.12934,0,0,0,.16959.533A1.46232,1.46232,0,0,1,5.161,7.86788a1.98315,1.98315,0,0,0-.0424.75712,2.538,2.538,0,0,1,.01211.64809,1.55027,1.55027,0,0,0,.17569,1.04784.33.33,0,0,1,.0848.27862,1.59616,1.59616,0,0,1-.533.33919l-.49061.23016-.24228-.14537a.96.96,0,0,0-.36341-.13325.85214.85214,0,0,1-.37553-.15142,1.39825,1.39825,0,0,0-.3089-.16354,1.38276,1.38276,0,0,1-.32707-.218c-.3937-.30284-.44821-.46638-.48456-1.42337a1.0048,1.0048,0,0,0-.16353-.60569c-.13326-.19382-.1696-.212-.4361-.20594s-.3089.03029-.59963.33919a3.40493,3.40493,0,0,0-.44218.5693,5.36847,5.36847,0,0,0-.46032,1.42337c-.0424.15143-.09691.36948-.1272.48456a2.45509,2.45509,0,0,0,.03634.9691c.01817.11508.0424.33313.04846.48455a1.16137,1.16137,0,0,0,.67231.97517c.13326.03634.38159.11508.54513.16959a2.64978,2.64978,0,0,0,1.34463.218,2.91213,2.91213,0,0,0,1.73833-.50878c.533-.315.78134-.15748.848.5209a2.93844,2.93844,0,0,1,.00606.5633.91088.91088,0,0,0,.0424.34523.50909.50909,0,0,1,0,.39977.617.617,0,0,0-.00606.41792,1.36291,1.36291,0,0,1,.03634.7995,6.22,6.22,0,0,0-.109,1.31435,3.36807,3.36807,0,0,0,.09691.54513.54148.54148,0,0,1-.0848.61174,1.37961,1.37961,0,0,0-.25439.76317.83851.83851,0,0,1-.14537.32708.55707.55707,0,0,0-.12719.32707,1.0499,1.0499,0,0,1-.41793.73894.37318.37318,0,0,1-.20593.04846,3.24154,3.24154,0,0,0-.80557.75106c-.13325.15142-.26045.24227-.3089.2241s-.18777.06057-.321.17565a3.59629,3.59629,0,0,1-.49667.36342,2.44077,2.44077,0,0,0-.38158.27256.38627.38627,0,0,1-.17565.11508c-.03029,0-.06057.06057-.06057.13932a1.0536,1.0536,0,0,1-.109.35736c-.12719.24227-.109.30284.18777.6178.21805.23016.87825.48455,1.01756.3937a.25208.25208,0,0,1,.18776-.01817.3982.3982,0,0,0,.26651-.07874,1.12481,1.12481,0,0,1,.442-.11507c.15142-.01212.56935-.02423.92065-.0424a3.65749,3.65749,0,0,0,.71472-.06663.23756.23756,0,0,1,.19988.03635.34982.34982,0,0,0,.19987.05451c.03634-.01212.14537-.03029.24228-.04846a.79721.79721,0,0,0,.26045-.09085.37987.37987,0,0,1,.1817-.07874,1.36864,1.36864,0,0,0,.55724-.18171,1.3503,1.3503,0,0,1,.81768-.29073c.13325.01211.3937.03028.58147.0424a3.17761,3.17761,0,0,1,.46032.06057.73746.73746,0,0,0,.40581-.0848.69383.69383,0,0,1,.61175-.03634,3.55285,3.55285,0,0,1,.4361.14536,2.39825,2.39825,0,0,0,1.25984-.16353,1.21994,1.21994,0,0,1,.315-.1272,1.47714,1.47714,0,0,0,.73288-.54512,1.242,1.242,0,0,1,.51484-.44215,1.0599,1.0599,0,0,0,.52089-.49061.68851.68851,0,0,0,.09691-.41187c-.1393-.533-.16959-.58147-.39369-.68443s-.23622-.09691-.35736.02422-.13931.12114-.3089.03635c-.16354-.0848-.18777-.0848-.218,0a1.662,1.662,0,0,1-.87826.424c-.06662-.02423-.11508-.01817-.109.01211a.21592.21592,0,0,1-.12719.26045c-.09692.04846-.16354.0424-.30891-.0424-.17565-.109-.18776-.103-.43.03634a1.33709,1.33709,0,0,1-.49666.15143,1.05338,1.05338,0,0,0-.36948.07874A.237.237,0,0,1,9.3584,21.72a1.83066,1.83066,0,0,0-.47244-.0848,1.74077,1.74077,0,0,1-.41187-.06057c-.01817-.01817-.103.00606-.19382.04846a2.0486,2.0486,0,0,1-.61175.12113c-.44216.0424-.46638.03635-.70866-.1393a.79415.79415,0,0,1-.40581-.78135.70572.70572,0,0,1,.09691-.47244.28787.28787,0,0,0,.07268-.23016c-.03634-.09691.20593-.36341.6602-.72683A.61219.61219,0,0,0,7.608,19.1337a1.41666,1.41666,0,0,1,.41793-.69655A6.77334,6.77334,0,0,1,9.2434,17.32878a3.45121,3.45121,0,0,0,.90854-.89037,2.727,2.727,0,0,1,.48455-.77528,2.75952,2.75952,0,0,0,.5633-.54513.52281.52281,0,0,0,.103-.27861.57118.57118,0,0,1,.18171-.33919.67025.67025,0,0,0,.18171-.23622.51882.51882,0,0,1,.07268-.19382.79774.79774,0,0,0,.0848-.19988c.01817-.109.212-.38764.2665-.38764.12114,0,.23622-.19987.27256-.48454a1.134,1.134,0,0,1,.17565-.47244,2.605,2.605,0,0,0,.46033-.8298,1.65782,1.65782,0,0,1,.19988-.44215,1.9162,1.9162,0,0,0,.35735-.95094,3.51483,3.51483,0,0,0-.03634-1.60508,1.14946,1.14946,0,0,1-.13325-.424c-.01211-.11509-.03028-.27862-.04845-.36342-.01212-.0848-.03029-.17565-.03029-.19988a3.0341,3.0341,0,0,0-.79345-.70866,1.52864,1.52864,0,0,0-1.12053.0424,1.23042,1.23042,0,0,1-.30891.103,1.71658,1.71658,0,0,0-.58752.4361,2.37141,2.37141,0,0,1-.46032.38764,3.98168,3.98168,0,0,0-1.02968.957.74168.74168,0,0,1-.40581.28468,4.0415,4.0415,0,0,0-.72077.2241,2.28654,2.28654,0,0,1-.62386.18171.73714.73714,0,0,1-.26651-.60569,1.16553,1.16553,0,0,0,.03634-.4361,4.85786,4.85786,0,0,1,0-.93882,3.45492,3.45492,0,0,1,.13931-.98122c.04846-.103.04846-.2665,0-1.169a1.49392,1.49392,0,0,0-.12719-.527A1.16437,1.16437,0,0,1,6.9599,4.3367c.01817-.3089,0-.43-.06057-.44821a.599.599,0,0,1-.18171-.24833.55867.55867,0,0,0-.212-.24833.30593.30593,0,0,1-.16354-.13931,2.18125,2.18125,0,0,1-.04239-.963,1.47375,1.47375,0,0,0,.06662-.424c.01212-.27862.0424-.35736.16354-.46033C6.94173,1.072,7.05075.27857,6.6934.27857A.41513.41513,0,0,1,6.46323.16349C6.227-.07273,6.03319-.0485,5.63949.2604Zm4.97878,10.04842a.56059.56059,0,0,1,.0848.23016,1.638,1.638,0,0,0,.03028.24833.92145.92145,0,0,1-.09691.66626c-.04845.06057-.0424.13326.04846.315a.53963.53963,0,0,1,.03634.5209,1.2136,1.2136,0,0,1-.13325.36341.33108.33108,0,0,0-.05451.1696.65084.65084,0,0,1-.1272.27256,1.06031,1.06031,0,0,0-.16354.41792,1.82636,1.82636,0,0,1-.33313.89037.73308.73308,0,0,0-.15142.2241.50565.50565,0,0,1-.17565.212,1.45719,1.45719,0,0,0-.33919.43,1.27582,1.27582,0,0,1-.28467.37553.91826.91826,0,0,0-.29073.55723.32621.32621,0,0,1-.12114.218.7638.7638,0,0,0-.18776.15142c-.04846.04846-.15143.15748-.23622.24228s-.24834.24228-.35736.3513c-.315.3089-.58752.49061-.67838.45427-.16353-.06057-.20593-.23016-.11508-.48455a.95921.95921,0,0,0-.05451-.72683.9167.9167,0,0,1,.0909-.32708,1.43528,1.43528,0,0,0,.02423-1.04179.227.227,0,0,1-.01817-.26044.35312.35312,0,0,0-.00606-.321.30256.30256,0,0,1-.01211-.30284c.05451-.103.0424-.18777-.05451-.424a.71327.71327,0,0,1-.03634-.6602,2.88492,2.88492,0,0,0,.09691-.49061c0-.32707.55118-1.06.79951-1.066a1.06277,1.06277,0,0,0,.41793-.218,4.57173,4.57173,0,0,1,.89642-.56935,1.67537,1.67537,0,0,0,.40581-.31495c.14537-.15748.23016-.19988.321-.1696a.332.332,0,0,0,.23016-.02423A.51722.51722,0,0,1,10.61827,10.30882Z"/>

</g>
</svg>
