<?xml version="1.0" encoding="UTF-8"?>
<svg xmlns="http://www.w3.org/2000/svg"
     version="1.1"
     width="17.03133858mm"
     height="49.67297711mm"
     viewBox="0.00000000 0.00000000 48.27786737 140.80526277">

<g transform="scale(6.15888107)">   <defs>
      <style type="text/css"><![CDATA[
      .a {
        stroke: #000;
        stroke-linecap: round;
        stroke-linejoin: round;
        stroke-width: 0.01px;
      }
    ]]></style>
   </defs>
   <path class="a"
         d="M3.39923.083a1.91647,1.91647,0,0,1-.44216.15143A.586.586,0,0,0,2.66028.3495a1.072,1.072,0,0,1-.2665.1817c-.09691.05452-.17565.12114-.17565.15143s-.07269.07874-.16354.09691A1.6705,1.6705,0,0,0,1.352,1.258c-.09085.09691-.19382.20594-.22411.24228-.109.11508-.69654.71472-.86613.88431a.65868.65868,0,0,0-.218.67232,1.22391,1.22391,0,0,0,.62992.50272,2.01826,2.01826,0,0,0,.5754-.06057A4.36443,4.36443,0,0,1,2.43618,3.3295a.15539.15539,0,0,1,.04845.27256,1.83714,1.83714,0,0,0-.38764.41187,4.93449,4.93449,0,0,1-.55724.67231c-.03028.01818-.03634.13931-.01817.27257.02423.12719.04846.28467.05452.34524a.2665.2665,0,0,0,.09691.16354.327.327,0,0,1,.09691.23016,1.0145,1.0145,0,0,0,.07268.29679,1.67075,1.67075,0,0,1,.212.82374.28225.28225,0,0,0,.02423.218,2.18047,2.18047,0,0,1,.35736.848c-.02423.03029,0,.15143.04845.26045s.13325.35736.19382.55118a1.59315,1.59315,0,0,0,.212.47244c.06057.07268.09692.15142.0848.17565a7.56848,7.56848,0,0,0-.05451.92065l-.02423.87219-.24833.49667a2.53956,2.53956,0,0,0-.24833.62992.8186.8186,0,0,1-.11509.32707,2.33025,2.33025,0,0,0-.19382.54512,1.071,1.071,0,0,1-.24833.527c-.09691.09691-.15748.19382-.13931.2241s-.00606.0848-.04845.13325a3.16314,3.16314,0,0,0-.46639.90854,2.8189,2.8189,0,0,1-.5754,1.04785,2.36072,2.36072,0,0,0-.59964,1.78073c-.01817.43-.006.58752.05451.65414a.18008.18008,0,0,1,.04846.17565.13811.13811,0,0,0,.03634.14537.21762.21762,0,0,1,.09086.12719.92745.92745,0,0,0,.2241.48456c.06663.06662.109.13931.09085.16959-.01817.02423.04846.13325.14537.24228a.72947.72947,0,0,1,.18171.25439c0,.03028.03028.05451.07268.05451a2.33937,2.33937,0,0,1,.73289.49667.51578.51578,0,0,0,.26044.16959.69275.69275,0,0,1,.27862.18171c.09691.103.19988.16959.23016.15142a1.39184,1.39184,0,0,1,.59964.23016.97566.97566,0,0,0,.81162.14537c.58752-.109.8298.07268.68444.50878a2.47786,2.47786,0,0,0-.09086.46032c-.01211.21805.00606.26651.15142.35736a1.03644,1.03644,0,0,0,1.15687-.212,5.92317,5.92317,0,0,0,.88431-1.13264c.05452-.11508.1272-.20594.15748-.20594a1.66846,1.66846,0,0,0,.36947-.62992,1.08489,1.08489,0,0,1,.16354-.3089.94738.94738,0,0,0,.17565-.60569,2.25508,2.25508,0,0,1,.15142-.92671,1.10871,1.10871,0,0,0,.09086-.36947,3.1518,3.1518,0,0,1,.04839-1.163.54547.54547,0,0,0-.04845-.40581.906.906,0,0,1-.09691-.34524,1.85429,1.85429,0,0,0-.18777-.54512.95527.95527,0,0,1-.14536-.51484.25244.25244,0,0,0-.03029-.212.805.805,0,0,1-.103-.28468.61313.61313,0,0,0-.14536-.3089.38565.38565,0,0,1-.11508-.218c0-.13325-.315-.47849-.41187-.44215a.29479.29479,0,0,1-.17565-.03634c-.12114-.07269-.36947.06662-.67232.36341a1.79511,1.79511,0,0,1-.3937.22411.73431.73431,0,0,0-.28467.16959c0,.03028-.09086.103-.19382.16959-.27257.15748-.55118.44216-.50273.50878.01817.03634-.02423.109-.09085.17565-.15142.13931-.24834.44821-.17565.5633a.26494.26494,0,0,1,.01817.19382,1.29022,1.29022,0,0,0,.06662.45427,4.57949,4.57949,0,0,1,.1272.48455c.06057.315-.11508.49061-.35736.36947a2.50459,2.50459,0,0,1-.77528-.89642,2.92859,2.92859,0,0,0-.23017-.40582,1.76574,1.76574,0,0,1-.218-.49666c-.06057-.18777-.14537-.43-.19383-.533-.07268-.13931-.07873-.218-.03028-.29679a.21272.21272,0,0,0-.02423-.24228c-.07268-.11508-.06057-.17565.12114-.55723a2.75978,2.75978,0,0,1,.46638-.68443.95163.95163,0,0,0,.26651-.37553.2614.2614,0,0,1,.103-.17565,1.72774,1.72774,0,0,0,.28468-.47244,2.834,2.834,0,0,1,.37553-.61781,4.02359,4.02359,0,0,0,.59963-1.16292.46824.46824,0,0,1,.09086-.19988.44128.44128,0,0,0,.09085-.22411A1.37967,1.37967,0,0,1,4.974,9.82861a1.15,1.15,0,0,0,.13931-.53906.79038.79038,0,0,1,.0848-.38159c.07268-.109.09085-.30284.07874-.90248a4.81552,4.81552,0,0,0-.07874-.88431A.21068.21068,0,0,1,5.186,6.91524a.77418.77418,0,0,0-.13325-.67232c-.09085-.09085-.09691-.13931-.04845-.23016a.716.716,0,0,0,.00605-.4361A1.17413,1.17413,0,0,1,4.98615,5.189a.53728.53728,0,0,0-.06663-.26045.78266.78266,0,0,1-.09691-.3089,1.00755,1.00755,0,0,0-.11508-.3513,1.64706,1.64706,0,0,1,.12714-1.60513A1.3335,1.3335,0,0,0,4.98,2.31194c.00606-.11509.19988-.41793.2665-.41793a1.579,1.579,0,0,0,.03634-.533A1.38967,1.38967,0,0,0,5.14967.64023.58744.58744,0,0,0,4.99825.44035,1.167,1.167,0,0,1,4.756.301,1.46927,1.46927,0,0,0,3.39923.083Z"/>

</g>
</svg>
