<?xml version="1.0" encoding="UTF-8"?>
<svg xmlns="http://www.w3.org/2000/svg"
     version="1.1"
     width="12.02490319mm"
     height="49.85899201mm"
     viewBox="0.00000000 0.00000000 34.08635153 141.33259268">

<g transform="scale(4.98973131)">   <defs>
      <style type="text/css"><![CDATA[
      .a {
        stroke: #000;
        stroke-linecap: round;
        stroke-linejoin: round;
        stroke-width: 0.01px;
      }
    ]]></style>
   </defs>
   <path class="a"
         d="M5.32749.27953c-.109.218-.17565.28468-.3513.33313A1.13567,1.13567,0,0,0,4.534.91551c-.15142.16353-.25439.2241-.32707.19987a.144.144,0,0,0-.16959.06057,3.6102,3.6102,0,0,1-1.07208.527,2.81525,2.81525,0,0,0-1.02967.57541,4.34335,4.34335,0,0,1-.82374.81768c-.03029,0-.103.103-.15748.23017a.7796.7796,0,0,1-.36947.36947A.70725.70725,0,0,0,.28208,3.95a.36424.36424,0,0,1-.16359.18171c-.109.06056-.11508.07268-.02422.16353.321.33313.33313.36342.23622.61781a.51952.51952,0,0,1-.20594.27256c-.09691.03028-.11508.103-.11508.39975a.74539.74539,0,0,0,.04846.35736.68964.68964,0,0,1,.23016.15142.59466.59466,0,0,0,.27256.15143.41513.41513,0,0,1,.20593.08479c.09691.06663.13326.06663.27862-.01817.15748-.09085.19382-.08479.5209.02423.46638.16354.51483.29073.29678.83585a2.38284,2.38284,0,0,0-.15748.53907,1.84381,1.84381,0,0,1-.09691.38161c-.23016.61175-.212.78135.09691,1.066a.77178.77178,0,0,1,.24228.315.14967.14967,0,0,0,.0848.12114.50417.50417,0,0,1,.18171.212c.09085.16959.08479.19382-.06663.41187a1.38012,1.38012,0,0,0-.17565.36947.79352.79352,0,0,1-.0424.18777,1.52213,1.52213,0,0,0,.315.67837c.03028,0,.103.15748.16354.34524a1.37149,1.37149,0,0,0,.24833.48456c.07268.07268.12114.16959.109.212a.585.585,0,0,0,.05452.30284,1.12728,1.12728,0,0,1-.04846.88431.4461.4461,0,0,0-.06057.27862.28894.28894,0,0,1-.03028.20594.36269.36269,0,0,0,0,.3089.511.511,0,0,1-.03029.4361.71953.71953,0,0,0-.07268.29073c.01817.02423.00606.07874-.02423.12719a.33025.33025,0,0,0,.02423.26651.40461.40461,0,0,1,.00606.36341c-.06057.14537-.06057.19382.006.26045.109.11508.04846.54512-.109.76923a1.07965,1.07965,0,0,0-.15142.60569c-.01212.23622-.03029.53906-.04846.67231a1.28524,1.28524,0,0,0,.05451.80557.18731.18731,0,0,1-.01817.17565,1.88019,1.88019,0,0,0-.08479.44216c-.01817.18171-.06057.33918-.09691.3513-.09692.03028-.07874.12719.05451.29679.15142.19382.15142.23622.00605.36341-.09691.07874-.109.15142-.08479.40581A2.93923,2.93923,0,0,1,2.087,22.29647a4.18081,4.18081,0,0,0-.25439,1.30223,8.1112,8.1112,0,0,1-.04846,1.39309,3.4093,3.4093,0,0,0-.03634.66626,4.71422,4.71422,0,0,1,.01817.72078.78566.78566,0,0,1-.07268.24227,2.10339,2.10339,0,0,0-.11508.72078.876.876,0,0,0,.41187.50272.33008.33008,0,0,1,.16354.12114.51093.51093,0,0,0,.33918.12114c.29073.01817.60569.13325.60569.218,0,.03029.0424.01212.09691-.03634a.38742.38742,0,0,1,.13326-.103c.02422,0,.26044-.01212.52695-.01819.56329-.01816.82979-.12719.99939-.41791a1.71184,1.71184,0,0,1,.16353-.2544.75313.75313,0,0,0-.03028-.55723,1.33813,1.33813,0,0,1-.103-.35737c-.01817-.13325-.04845-.321-.06662-.41791-.01212-.103-.02423-.28468-.02423-.41187.00606-.315.00606-.62386-.00606-.7874a.90143.90143,0,0,1,.11508-.58146c.0424-.02423.07269-.16354.07269-.315A3.8191,3.8191,0,0,1,5.0549,22.993a1.21052,1.21052,0,0,0-.0424-.49061.882.882,0,0,1-.03634-.38764.72158.72158,0,0,0-.03635-.3513,1.942,1.942,0,0,1-.08479-.49061A.72863.72863,0,0,0,4.80049,20.97c-.06663-.103.13325-.55118.24227-.55118.0424,0,.05451-.06663.03634-.15748a1.53144,1.53144,0,0,1,.06057-.47244,4.198,4.198,0,0,0,.1272-1.278,8.357,8.357,0,0,1,.0424-1.30224,6.60834,6.60834,0,0,0,.11508-1.35069.41683.41683,0,0,1,.06057-.315.63566.63566,0,0,0,.09691-.29678.83686.83686,0,0,1,.315-.61781c.13325-.0424.13931-.13931.01817-.23016a.5263.5263,0,0,1-.1272-.3089,2.15055,2.15055,0,0,0-.09085-.43.98291.98291,0,0,1,.00606-.4785,4.819,4.819,0,0,0,.02422-1.0539c-.02422-.41793-.0424-.86614-.03634-.99334a.71827.71827,0,0,0-.0848-.37552.26556.26556,0,0,1-.06056-.20594.653.653,0,0,0-.07269-.321A.56919.56919,0,0,1,5.61819,9.48c.13325-.109.15748-.17565.15748-.41187A1.74372,1.74372,0,0,0,5.73933,8.735c-.01817-.02423,0-.09691.0424-.15748.06662-.0848.06056-.15142-.01818-.38764a1.49408,1.49408,0,0,0-.46638-.70866C4.90953,7.07537,5.061,6.73013,5.806,6.294a2.51446,2.51446,0,0,0,.30891-.212.29119.29119,0,0,1,.16963-.07872c.04845,0,.0848-.02423.0848-.06057,0-.03028.07268-.07874.15748-.09691.09085-.02423.1393-.07268.12113-.11508a.31166.31166,0,0,1,.06057-.20593,1.28983,1.28983,0,0,0,.01817-1.03574.80776.80776,0,0,0-.424-.59357.6063.6063,0,0,0-.82374,0c-.16959.09691-.19988.103-.27862.01817a.34964.34964,0,0,0-.17565-.09086A1.926,1.926,0,0,1,4.68542,3.732c-.19382-.06663-.29073-.07268-.38158-.03028a.22423.22423,0,0,1-.17565.03028.49591.49591,0,0,0-.27862.06057A.61031.61031,0,0,1,3.153,3.7562c-.212-.212-.04846-.527.46638-.87825.19382-.1272.53906-.38159.76923-.55724a2.34449,2.34449,0,0,1,.58146-.3513.93617.93617,0,0,0,.23016-.09691A1.19491,1.19491,0,0,1,5.703,1.75136a1.317,1.317,0,0,1,.27256.03028c.15748.03635.19382.01818.30284-.15142a1.18959,1.18959,0,0,0,.1211-.26045,1.114,1.114,0,0,1,.109-.28467c.14537-.3089.09086-.50878-.212-.81768A.61157.61157,0,0,0,5.74538.007C5.46677.007,5.45465.013,5.32749.27953ZM3.12274,8.093c.0424.11509-.12114.27862-.23622.23622A.1792.1792,0,1,1,3.12274,8.093Zm-.218,2.556c.09691.13931.09086.18171-.04845.321-.14537.14536-.24834.11508-.38159-.12114-.09085-.15142-.09691-.18171-.01211-.2665a.31136.31136,0,0,1,.43638.05889l.00572.00775ZM4.2736,11.8543c.1272.12113.1272.109-.11508.35735-.18776.19382-.2241.212-.34524.14537-.29073-.15142-.2665-.30285.06663-.4785.26645-.14537.27858-.14537.39364-.02423ZM3.06217,16.14864c.0424.11508-.12114.27861-.23622.23621a.1792.1792,0,1,1,.23622-.23621Z"/>

</g>
</svg>
