<?xml version="1.0" encoding="UTF-8"?>
<svg xmlns="http://www.w3.org/2000/svg"
     version="1.1"
     width="36.37955190mm"
     height="46.58385329mm"
     viewBox="0.00000000 0.00000000 103.12319381 132.04880006">

<g transform="scale(5.72644806)">   <defs>
      <style type="text/css"><![CDATA[
      .a {
        stroke: #000;
        stroke-linecap: round;
        stroke-linejoin: round;
        stroke-width: 0.01px;
      }
    ]]></style>
   </defs>
   <path class="a"
         d="M12.10142.02173A4.81574,4.81574,0,0,1,11.417.08836c-.58752.03028-.67838.04845-.83585.1817a.34042.34042,0,0,1-.36342.103A3.1472,3.1472,0,0,0,9.00028.39724,2.71761,2.71761,0,0,1,8.34614.476a2.34146,2.34146,0,0,0-.5633.05451A3.2074,3.2074,0,0,1,6.093.55474.70722.70722,0,0,0,5.5539.53657a1.34045,1.34045,0,0,0-.37553.12719,1.65776,1.65776,0,0,1-.81768.1696,3.79977,3.79977,0,0,0-.75712-.0848,1.66469,1.66469,0,0,1-.745-.12114c-.07268-.07874-.109-.07874-.25439,0a1.82891,1.82891,0,0,0-.3513.25439,2.17938,2.17938,0,0,1-.55118.4361c-.03028,0-.06662.05451-.09085.11508a.36023.36023,0,0,1-.212.18171c-.103.03028-.18171.08479-.18171.11508a1.4718,1.4718,0,0,1-.212.33313c-.24228.321-.2665.50878-.07268.67837.2665.24834.44821.32708.6178.28468a1.8708,1.8708,0,0,1,.95094.09691,1.0261,1.0261,0,0,1,.109.424,1.29965,1.29965,0,0,1-.11508.70866,4.33791,4.33791,0,0,0-.27862,1.0539,1.35757,1.35757,0,0,1-.09085.3089.5831.5831,0,0,0-.06057.2544.51122.51122,0,0,1-.0848.26044,1.5734,1.5734,0,0,0-.11508.50273,2.77072,2.77072,0,0,1-.16354.6602c-.15142.34524-.15142.533,0,.72683a.56046.56046,0,0,1,.12114.23016.79364.79364,0,0,0,.18171.27256l.18171.19988.59357-.07268a5.10059,5.10059,0,0,1,.745-.06057.81345.81345,0,0,0,.63-.2423A2.16909,2.16909,0,0,1,4.924,7.83514c.03029.01817.109-.01211.17565-.07268a.73137.73137,0,0,0,.0424-.72683c-.06057-.16959-.09691-.19382-.28468-.19382a2.34589,2.34589,0,0,1-.6966-.07874c-.23016-.30284-.27256-.47849-.13325-.6178a1.31555,1.31555,0,0,0,.18776-.321,1.55663,1.55663,0,0,1,.218-.36341.38817.38817,0,0,0,.11508-.212c-.02423-.16353,0-.218.15143-.28467.12113-.05451.14536-.09691.11508-.24228a.59273.59273,0,0,1,.07268-.38158,1.158,1.158,0,0,0,.11522-.30287A.52023.52023,0,0,1,5.142,3.80124a.50519.50519,0,0,0,.13325-.2241.91.91,0,0,1,.09086-.26651.27271.27271,0,0,0,.03028-.29679c-.09085-.16353.03634-.39975.2665-.49666a.71489.71489,0,0,1,.26045-.06057.35432.35432,0,0,0,.212-.05451,3.82968,3.82968,0,0,1,1.169-.1272,3.25687,3.25687,0,0,1,.527.03634c.27862.04846.37553.03029,1.10841-.218A2.79927,2.79927,0,0,1,9.3032,2.0145a1.85727,1.85727,0,0,0,.41792-.12113.76955.76955,0,0,1,.37553-.06663.71233.71233,0,0,0,.36947-.05451.78125.78125,0,0,1,.38765-.06057.4839.4839,0,0,0,.29678-.03029.27406.27406,0,0,1,.37789.08618l.00976.01682c.0424.09691-.07269.321-.27862.533a1.80026,1.80026,0,0,0-.47244.66626c-.06663.20593-.06057.23016.18171.55118a4.38182,4.38182,0,0,0,.43.49061.75092.75092,0,0,1,.212.28467,2.86547,2.86547,0,0,0,.24833.44216c.11508.17565.19382.34524.1696.38158-.01817.03029.03634.15748.12719.27862a.81439.81439,0,0,1,.18171.44821,1.86824,1.86824,0,0,0,.18171.58752,1.4,1.4,0,0,1-.103,1.50211,1,1,0,0,0-.26045.854c.0424.23623.1272.29073.49061.35131.20594.03028.27862.0121.36342-.07874a.82357.82357,0,0,1,.26044-.17565.53964.53964,0,0,0,.23622-.23016c.0424-.09691.11508-.24228.16354-.32708.23016-.41187.321-.65414.29073-.76922a.2168.2168,0,0,1,.09085-.23622.38179.38179,0,0,0,.1272-.25439.52709.52709,0,0,1,.17565-.30891A.86255.86255,0,0,0,14.57871,6.43a3.27586,3.27586,0,0,1,.23622-.56935c.218-.424.3089-.82374.19987-.86008-.06057-.02423-.11508-.33919-.103-.58146.00605-.1272.00605-.642,0-.84191a.715.715,0,0,0-.12114-.33313,3.436,3.436,0,0,1-.27256-.47244,4.98367,4.98367,0,0,0-.33919-.57541,3.25733,3.25733,0,0,1-.29679-.49667,1.01162,1.01162,0,0,0-.20593-.30284c-.13931-.07874-.22411-.29679-.25439-.62992a1.35963,1.35963,0,0,0-.06663-.36341,2.03474,2.03474,0,0,0-.94488-.3937A1.227,1.227,0,0,0,12.10142.02173Z"/>
   <path class="a"
         d="M8.867,3.80124a.56759.56759,0,0,0-.22411.22411.8472.8472,0,0,1-.218.26044,1.0574,1.0574,0,0,0-.20594.1696,4.33094,4.33094,0,0,1-.78134.70866l-.33919.24227v.51484c0,.28468.00606.61175.00606.72683a5.18223,5.18223,0,0,1-.06663,1.2235c-.06057.40581-.06057.49061.02423.65414.07874.15142.0848.28468.0424.77529a10.68874,10.68874,0,0,0-.03029,1.16292c.03635,1.05391.03029,1.1811-.03634,1.35069a.399.399,0,0,0-.03028.23622c.02423.03029-.01817.13931-.09086.23622-.12113.16354-.12719.18777-.03634.3513a1.61838,1.61838,0,0,1,.0424.89037,1.40176,1.40176,0,0,1-.35736.22411c-.24833.12113-.35735.14536-.49666.103a1.06255,1.06255,0,0,0-.4361.00606.782.782,0,0,1-.33919.02423.25159.25159,0,0,0-.19382.03028.95388.95388,0,0,1-.46638,0A4.7139,4.7139,0,0,0,2.91313,13.886l-.36947.0969-.30891-.16959a1.48828,1.48828,0,0,0-1.7141.24833,1.4332,1.4332,0,0,1-.33313.218c-.13935.06055-.18175.11509-.18175.24834a.25985.25985,0,0,0,.11508.23622.3351.3351,0,0,1,.15748.19382c.109.35736.29073.65415.40581.65415a.60275.60275,0,0,1,.24834.07268,2.06942,2.06942,0,0,0,1.08418.02423c.0848-.06057.18171-.06663.36948-.02423a1.15087,1.15087,0,0,0,.3513.03028.33256.33256,0,0,1,.19987.03029,2.00466,2.00466,0,0,0,1.00545.04845,10.29762,10.29762,0,0,1,1.63537-.14536,1.57117,1.57117,0,0,0,.533-.09086.30552.30552,0,0,1,.321,0c.27862.109.33313.26651.15748.44216a.82333.82333,0,0,0-.23016.6178.5113.5113,0,0,1-.103.27256,2.186,2.186,0,0,0-.218.41793,2.799,2.799,0,0,1-.28467.50878,1.00758,1.00758,0,0,0-.17565.315.5921.5921,0,0,1-.1272.23016c-.06662.0848-.109.18171-.08479.212a.50606.50606,0,0,1-.06057.28467,1.3703,1.3703,0,0,0-.09086.41187,4.44191,4.44191,0,0,1-.08479.58146c-.06057.27256-.06663.41793-.02423.47244.06057.06663.07874.15143.103.44216,0,.05451.11508.13931.24227.18776a.64361.64361,0,0,1,.36342.33918,1.10986,1.10986,0,0,0,.23622.32708,1.03261,1.03261,0,0,1,.24227.32707.8046.8046,0,0,0,.27862.315c.0848.03635.15748.09691.15748.12719,0,.12114.45427.49062.60569.49062a.55691.55691,0,0,1,.27862.0848,1.13171,1.13171,0,0,0,.50272.08479,1.02125,1.02125,0,0,0,.67232-.17565,1.298,1.298,0,0,1,.37553-.17565c.04845,0,.12114-.06662.15748-.14536a1.29586,1.29586,0,0,1,.46638-.36948A3.16649,3.16649,0,0,0,11.33828,20.046a1.38566,1.38566,0,0,1,.16959-.50272,1.34968,1.34968,0,0,0,.19988-.67837.31219.31219,0,0,1,.04846-.16354.50759.50759,0,0,0-.00606-.38158,2.96586,2.96586,0,0,1-.0848-.34525.5878.5878,0,0,0-.07268-.212.57946.57946,0,0,1-.06663-.16959.93417.93417,0,0,0-.19988-.26651.94113.94113,0,0,1-.24833-.69654.33215.33215,0,0,0-.109-.19988.82388.82388,0,0,1-.18171-.30285.59444.59444,0,0,0-.218-.27861c-.56935-.30285-.03028-.92066.84191-.957a1.94674,1.94674,0,0,0,.55724-.103,2.69256,2.69256,0,0,1,.60569-.11508,1.83658,1.83658,0,0,0,.51484-.09086,2.51265,2.51265,0,0,1,.848-.14536.72278.72278,0,0,0,.26651-.07874,4.21221,4.21221,0,0,1,1.30223.12719.55564.55564,0,0,0,.33313-.09085.8412.8412,0,0,1,.26045-.11508c.11508,0,.27256.18776.23016.29073a.22048.22048,0,0,0,.06057.18776,1.799,1.799,0,0,1,.1696.20594c.07268.103.29073.13931.60569.09691.12719-.01817.55118-.56935.50272-.65415a1.61465,1.61465,0,0,1,.23621-.8298c.19989-.15142.09692-.53906-.30285-1.13264-.25439-.38158-.70865-.533-.86008-.28467a1.71731,1.71731,0,0,1-.45427.30284,1.98692,1.98692,0,0,0-.50272.32708,1.3071,1.3071,0,0,1-.75711.38158.42254.42254,0,0,0-.24228.04846.4225.4225,0,0,1-.24228.04845.5432.5432,0,0,0-.30284.07269.34757.34757,0,0,1-.36342.03028.33763.33763,0,0,0-.28467-.01211,2.41562,2.41562,0,0,1-.56329.07268c-.66021.01817-.745.03028-.89643.11508a.32.32,0,0,1-.18776.0424,1.97831,1.97831,0,0,0-.54512.04845,2.66513,2.66513,0,0,1-.65415.05452,2.15213,2.15213,0,0,0-.41187-.02423,2.26026,2.26026,0,0,1-.55723-.09086c-.25439-.07874-.32708-.12719-.38765-.28467a5.42425,5.42425,0,0,1-.11521-1.19321c0-.04846.01817-.56935.03029-1.15081s.0424-1.169.06057-1.30224.04239-.4361.05451-.66626a2.42291,2.42291,0,0,1,.212-1.01756c.0424-.0424.03028-.12114-.03634-.24228A2.55168,2.55168,0,0,1,9.56964,6.4542a.35534.35534,0,0,0-.04845-.36342c-.09691-.16959-.109-.315-.09691-.9267.01211-.39976.03028-.86614.05451-1.03573.03028-.28468.01817-.315-.103-.35131A.76615.76615,0,0,0,8.867,3.80124Zm-.73894,12.4409c0,.03634,0,.23621-.00606.44215-.00606.3089.01211.38158.109.4361a.61667.61667,0,0,1,.19988.26044,1.03584,1.03584,0,0,0,.18777.30285.6156.6156,0,0,1,.13931.27256,2.16505,2.16505,0,0,0,.1817.44821,1.31024,1.31024,0,0,1,.15143.38159c0,.05451.03028.09691.06662.09691a2.284,2.284,0,0,1,.69655.76317,1.23433,1.23433,0,0,1-.01817.93276,1.21067,1.21067,0,0,1-.41187.33313l-.315.15748-.26648-.13325a2.29871,2.29871,0,0,1-.75106-.58147A3.25938,3.25938,0,0,1,7.2922,19.319c-.13931-.30285-.14536-.32708-.05451-.57541a1.57747,1.57747,0,0,0,.09691-.8298.40137.40137,0,0,1,.03029-.2665,1.1798,1.1798,0,0,0,.06056-.4785.55827.55827,0,0,1,.09692-.43.49733.49733,0,0,0,.11508-.24833c0-.14537.27861-.39976.38764-.35736A.15353.15353,0,0,1,8.12809,16.24214Z"/>

</g>
</svg>
