<?xml version="1.0" encoding="UTF-8"?>
<svg xmlns="http://www.w3.org/2000/svg"
     version="1.1"
     width="57.08785687mm"
     height="46.15949060mm"
     viewBox="0.00000000 0.00000000 161.82381925 130.84580080">

<g transform="scale(4.28563383)">   <defs>
      <style type="text/css"><![CDATA[
      .a {
        stroke: #000;
        stroke-linecap: round;
        stroke-linejoin: round;
        stroke-width: 0.01px;
      }
    ]]></style>
   </defs>
   <path class="a"
         d="M22.497.0973a3.34369,3.34369,0,0,1-1.02969.13325,1.59554,1.59554,0,0,0-.24227,0c-.04846,0-.22411.01211-.3937.02423a1.50585,1.50585,0,0,0-.48456.109.44656.44656,0,0,1-.35735.04846.51338.51338,0,0,0-.27257,0A1.895,1.895,0,0,1,19.202.47282a2.84464,2.84464,0,0,0-.46033.03635c-.01817.01211-.30284.07874-.62386.14536a1.54461,1.54461,0,0,0-.80557.30285c-.11508.109-.24227.17565-.27256.15142-.09085-.05451-.424.13931-.58752.34524a1.09386,1.09386,0,0,0-.18776.49667,1.67651,1.67651,0,0,1-.424.91459.78738.78738,0,0,0-.18776.34525.76624.76624,0,0,1-.27256.3937c-.11508.08479-.212.18776-.212.2241a1.62137,1.62137,0,0,1-.1696.33919,1.82863,1.82863,0,0,0-.212.43,2.3858,2.3858,0,0,1-.40581.54512c-.4361.46638-.66626.87825-.62386,1.10236.02422.12114-.02423.212-.24834.44821a1.71031,1.71031,0,0,0-.28467.33919c-.01212.06057-.01817.08479-.109.39975a.982.982,0,0,1-.20593.38159c-.39976.36341-.39976.36341-.37553.68443a1.73652,1.73652,0,0,0,.13931.73894c.07268.13326.07268.15143.09691.75106a3.342,3.342,0,0,0,.09085.66626c.0424.15142.09086.33919.109.424a.715.715,0,0,0,.09085.22411.826.826,0,0,1,.07874.36341c.01211.15748.02423.315.03028.35131a.85359.85359,0,0,1-.17565.59963.33.33,0,0,0-.109.33313.73756.73756,0,0,1-.06057.41187,3.04761,3.04761,0,0,0-.15142.50272c-.03029.15143-.06663.33919-.0848.424a3.72143,3.72143,0,0,0,.1272,1.50817.25.25,0,0,1-.03029.18776,2.28111,2.28111,0,0,0-.05451,1.01151c.0424.109.02423.20593-.06663.38158a.85483.85483,0,0,0-.02422.81768.22791.22791,0,0,1,.03634.25439.21655.21655,0,0,0-.00606.21805c.03634.05451.0424.103.01817.103-.01817,0,.04846.09691.15142.212a.91775.91775,0,0,1,.18777.27862.85115.85115,0,0,0,.12719.24833.7996.7996,0,0,1,.13931.28468.76748.76748,0,0,0,.07874.2241c.0424.07269.06057.14537.0424.16354s.02423.09085.09085.15748c.18171.18171.15748.40581-.05451.62386-.103.103-.17565.19988-.15748.212.01817.01817-.01817.13326-.08479.25439a3.38922,3.38922,0,0,1-.93883.92065,4.11533,4.11533,0,0,0-.97516.97517c-.04845.09691-.11508.16959-.14536.16959s-.09691.07874-.14537.17565a.48568.48568,0,0,1-.43.27862,1.05967,1.05967,0,0,0-.57541.28467c-.19987.19382-.55723.40582-.642.37553-.03634-.01817-.103.0424-.14536.13325a.75079.75079,0,0,1-.2544.24228c-.09085.04846-.16959.11508-.16959.15142,0,.03029-.13325.12114-.29073.19382a2.43007,2.43007,0,0,0-.46033.27256.67886.67886,0,0,1-.25439.13326c-.04845,0-.08479.02422-.08479.05451a1.85342,1.85342,0,0,1-.7026.41187,1.25751,1.25751,0,0,0-.41793.14536,1.17012,1.17012,0,0,1-.47244.13931,1.1643,1.1643,0,0,0-.48455.27256,2.57739,2.57739,0,0,1-.73289.3937,1.34967,1.34967,0,0,0-.47849.23622,3.02006,3.02006,0,0,1-.95094.64809.925.925,0,0,0-.45427.33313c-.26044.321-.36341.38764-.67837.41187a1.14606,1.14606,0,0,0-.3513.0848,2.08034,2.08034,0,0,1-.424.13325c-.16353.0424-.35735.09085-.424.109s-.19988.04239-.29679.06056c-.533.103-.854.55724-.67232.957a.69568.69568,0,0,0,.32708.30284c.25439.11508.2665.11508,1.0963.06057.315-.01817.88431-.03634,1.25984-.03634A2.17869,2.17869,0,0,0,3.4177,30.4a1.31244,1.31244,0,0,1,.636-.35736,1.61267,1.61267,0,0,0,.83585-.23622,2.23443,2.23443,0,0,1,.79951-.38159,2.09933,2.09933,0,0,0,.78134-.34524,1.27182,1.27182,0,0,1,.33313-.17565,1.81693,1.81693,0,0,0,.33919-.12719,1.64549,1.64549,0,0,1,.30284-.11509,1.87954,1.87954,0,0,0,1.19927-.45426c.22411-.17565.32708-.218.44216-.19383.109.03029.18776,0,.29073-.11508a.98551.98551,0,0,1,.38158-.218.87172.87172,0,0,0,.35736-.19382,1.53449,1.53449,0,0,1,.75106-.38764,3.04579,3.04579,0,0,0,1.01756-.321,2.38122,2.38122,0,0,0,.45427-.33313,2.21907,2.21907,0,0,1,.424-.321,3.13648,3.13648,0,0,0,.44821-.35736,2.07781,2.07781,0,0,1,.60569-.3937,1.63952,1.63952,0,0,0,.89643-.70866,2.18788,2.18788,0,0,1,.533-.751c.04239-.00606.103-.01212.14536-.01817a1.38181,1.38181,0,0,0,.3513-.26651,1.6444,1.6444,0,0,1,.321-.25439,4.739,4.739,0,0,0,.56329-.50272c.28467-.27256.67231-.61781.86008-.76923.18171-.14537.32708-.28467.3089-.3089-.01211-.02423.02423-.103.0848-.18171a1.6658,1.6658,0,0,0,.28468-.67837.31466.31466,0,0,1,.109-.19382.18189.18189,0,0,0,.06663-.19383.26877.26877,0,0,1,.09691-.26044c.11508-.11508.16959-.12114.50272-.0848a2.50429,2.50429,0,0,1,.46637.0848.74508.74508,0,0,0,.56329-.09086.69539.69539,0,0,1,.5633.04846,1.188,1.188,0,0,0,.35736-.02423c.16959-.03028.34524-.06057.39369-.06057a1.93166,1.93166,0,0,0,.848-.315,1.19144,1.19144,0,0,1,.66626-.20593c.54512-.03029.62386-.05451.80557-.22411.09086-.08479.19989-.13931.24833-.12114a.79608.79608,0,0,0,.34525-.04239,1.44726,1.44726,0,0,1,.39975-.06057.44744.44744,0,0,0,.26045-.07269.37663.37663,0,0,1,.3513-.03028,1.97851,1.97851,0,0,0,.38764.05451c.17565-.00606.59358-.2241.59358-.315,0-.08479.3513-.23622.60569-.2665a.9663.9663,0,0,0,.41187-.15142c.103-.07269.212-.11509.24834-.09692.03634.02423.06662.01818.06662-.01817a1.75174,1.75174,0,0,1,.65415-.35735,2.03678,2.03678,0,0,0,.87825-.22411,1.04885,1.04885,0,0,1,.72683-.12719,1.00233,1.00233,0,0,0,.46638-.03635c0-.103.55118-.39975.81768-.44215.17565-.02423.29679-.07874.33313-.15142a.75566.75566,0,0,1,.58147-.23017,3.02012,3.02012,0,0,0,.69049-.2665,3.57189,3.57189,0,0,1,.90853-.32707,2.19713,2.19713,0,0,0,.49667-.12114.7914.7914,0,0,1,.315-.0848,1.72792,1.72792,0,0,0,.46032-.12114.90209.90209,0,0,1,.36342-.09085,1.49882,1.49882,0,0,0,.76923-.38764,2.34008,2.34008,0,0,1,1.0115-.36947c.05451,0,.09691-.02423.09691-.05452a.74522.74522,0,0,1,.14537-.23016,1.45454,1.45454,0,0,0,.23622-.83585.894.894,0,0,1,.15142-.37553.6723.6723,0,0,0-.01817-.81163,1.14262,1.14262,0,0,1-.15143-.36341.8842.8842,0,0,0-.25439-.33919c-.14536-.13325-.3513-.34524-.46638-.47244a1.28894,1.28894,0,0,0-.38158-.28467c-.24834-.0848-.32708-.26045-.19988-.44821a.54562.54562,0,0,1,.18776-.18777.149.149,0,0,0,.0848-.13325,2.26492,2.26492,0,0,1,.44822-.7874.32.32,0,0,0,.0969-.2241,4.55317,4.55317,0,0,1,.22411-.96305c.103-.38764.09085-.46033-.07874-.642a.49108.49108,0,0,0-.34524-.17565.71922.71922,0,0,1-.30285-.07269,4.82767,4.82767,0,0,0-1.34463-.3089,3.85087,3.85087,0,0,0-.75712.13931.86922.86922,0,0,1-.5754-.03029c-.24228-.07874-.34525-.08479-.44215-.03634a.90275.90275,0,0,1-.28468.07874.304.304,0,0,0-.2241.13931,2.115,2.115,0,0,1-.218.29073c-.16959.17565-.19382.36947-.11508.92065.02423.16354.05451.44216.06662.61175a1.87986,1.87986,0,0,0,.15748.56935.74427.74427,0,0,1,.109.315c-.03029.07874.23016.37553.636.745.109.09691.16354.19382.13931.24833a.33217.33217,0,0,0,.02423.212c.09691.1817-.01817.33313-.3513.44215a5.01679,5.01679,0,0,1-1.12658.18776.88266.88266,0,0,0-.30285.0848,4.4919,4.4919,0,0,1-1.066.40581c-.11508.01212-.29073.0424-.3937.06057-.09691.01817-.36947.0424-.60569.05452a3.20426,3.20426,0,0,0-.68443.11508,2.78747,2.78747,0,0,1-.67231.12113,1.96921,1.96921,0,0,0-.54513.09086c-.06662.0424-.12719.05451-.12719.03028,0-.01817-.0424-.00605-.09691.03634a5.28159,5.28159,0,0,1-1.72016.30891,1.47811,1.47811,0,0,0-.51484.08479,2.70562,2.70562,0,0,1-.90854.18171c-.09691.01211-.321.03634-.49061.06057a.84608.84608,0,0,1-.43-.01817c-.09691-.05451-.19382-.0424-.43.0424a2.33457,2.33457,0,0,1-.72077.11508,3.29676,3.29676,0,0,0-.69655.07874.59017.59017,0,0,1-.52695-.03634c-.218-.09691-.24833-.09691-.37553-.01212-.12113.09086-.15142.0848-.37552-.03028a1.17219,1.17219,0,0,0-.43-.11508c-.103.00605-.2665.00605-.36947.00605h-.38764a.90231.90231,0,0,1-.70866-.43609c-.08479-.16354-.08479-.19382,0-.321a.61958.61958,0,0,0,.09691-.27256,1.07647,1.07647,0,0,1,.33313-.62992.82141.82141,0,0,1,.218-.03634.61946.61946,0,0,0,.27256-.09691,1.04,1.04,0,0,1,.59964-.15142.309.309,0,0,0,.212-.12114c.0848-.103.23016-.16354.642-.25439a1.24329,1.24329,0,0,0,.23016-.14537,2.82064,2.82064,0,0,1,1.10842-.36947.46541.46541,0,0,0,.26045-.09085,1.60577,1.60577,0,0,1,.745-.23017,2.23721,2.23721,0,0,0,.45426-.06056,2.50414,2.50414,0,0,1,.53907-.06057c.15748.006.24228-.0424.44215-.24228a.72113.72113,0,0,1,.44216-.27256,2.699,2.699,0,0,0,1.31416-.412,2.70824,2.70824,0,0,1,.66626-.24833,2.30265,2.30265,0,0,0,.5754-.19383,1.4833,1.4833,0,0,1,.642-.16353.764.764,0,0,0,.45426-.103,2.39455,2.39455,0,0,1,1.0539-.47244,1.62351,1.62351,0,0,0,.751-.28467c.321-.18777.51484-.26651.60569-.24228.13326.03028.315-.06057.533-.27862.06057-.06057.13931-.09691.16354-.07874.03028.01212.06663-.01211.0848-.06057a1.27891,1.27891,0,0,1,.636-.24227c.0424,0,.1393-.103.212-.22411.16354-.2665.30285-.47244.59964-.87219a1.53028,1.53028,0,0,0,.23016-.36948,2.92634,2.92634,0,0,1,.29679-.51483c.24228-.36342.30284-.50273.29679-.69655a.97528.97528,0,0,0-.04846-.32707,2.59333,2.59333,0,0,0-1.02967-.11508.78909.78909,0,0,0,.18776.19382c.15142.13325.1696.18776.12114.28467a.48929.48929,0,0,1-.61781.15748c-.15142-.08479-.19987-.14536-.18776-.27256,0-.01817-.06663-.0424-.15142-.04845a1.006,1.006,0,0,1-.35736-.13325l-.19988-.1272-.43.218a2.78315,2.78315,0,0,0-.54512.33313.23906.23906,0,0,1-.20594.0848,1.584,1.584,0,0,0-.54512.12719,1.56569,1.56569,0,0,1-.51483.1272.06637.06637,0,0,0-.09237.01664l-.00455.00758a.60342.60342,0,0,1-.61174.18777.42623.42623,0,0,0-.40582.05451,1.77481,1.77481,0,0,1-.5754.13931,1.40018,1.40018,0,0,0-.46638.103,1.91538,1.91538,0,0,1-.49061.1817c-.46639.1272-.40582.16354-.89037-.56329-.4785-.71471-.54512-.8298-.55118-.93882a4.17236,4.17236,0,0,0-.27256-.636c-.218-.43609-.25439-.55723-.19988-.67231a.21964.21964,0,0,0-.02423-.24834.44923.44923,0,0,1-.08479-.23621.69244.69244,0,0,0-.12114-.30891.73991.73991,0,0,1-.12114-.28467A2.05506,2.05506,0,0,0,24.18683.75144a1.30212,1.30212,0,0,1-.35129-.38158C23.69017.02461,23.09053-.09652,22.497.0973ZM20.82525,5.706a.75752.75752,0,0,1,.15749.65415c-.06057.103-.40581.25439-.48456.20594a.44842.44842,0,0,0-.21805.02422A.871.871,0,0,1,19.523,6.342c-.05451-.09691-.02422-.15748.18171-.35736.17564-.17565.27861-.23622.35736-.212a.55144.55144,0,0,0,.321-.04845C20.6375,5.60908,20.692,5.60908,20.82525,5.706Z"/>

</g>
</svg>
