<?xml version="1.0" encoding="UTF-8"?>
<svg xmlns="http://www.w3.org/2000/svg"
     version="1.1"
     width="14.15561825mm"
     height="49.26441563mm"
     viewBox="0.00000000 0.00000000 40.12617180 139.64721113">

<g transform="scale(4.98973131)">   <defs>
      <style type="text/css"><![CDATA[
      .a {
        stroke: #000;
        stroke-linecap: round;
        stroke-linejoin: round;
        stroke-width: 0.01px;
      }
    ]]></style>
   </defs>
   <path class="a"
         d="M2.88233.08979a1.25508,1.25508,0,0,0-.36344.30288c-.09691.12114-.2665.321-.37553.4361a2.78745,2.78745,0,0,0-.28467.37553,1.0497,1.0497,0,0,1-.26045.29073,2.30824,2.30824,0,0,0-.6178.89036.39963.39963,0,0,0,.12113.218.448.448,0,0,1,.12114.27862c0,.12719.04846.17565.30285.27862.40581.16959.43.29679.16959.76923l-.19988.36947.16354.315c.28467.55117.3513.76922.315,1.02361a.43988.43988,0,0,0,.03634.32708,1.44282,1.44282,0,0,1,.05451.854.43881.43881,0,0,1-.20593.25439,1.94034,1.94034,0,0,0-.51484.75712.623.623,0,0,0,.15142.19987c.103.103.19382.13931.27256.11508a.42023.42023,0,0,1,.45427.26651c.07269.14536.07874.27256.02423.73894-.03028.315-.07268.59964-.0848.636a.77662.77662,0,0,0,.03029.28467,1.5841,1.5841,0,0,1,.006.44821,4.80017,4.80017,0,0,0,.00606.83586c.09086,1.03573.09086,1.08418-.02423,1.31435a1.36545,1.36545,0,0,0-.07268.78739,4.097,4.097,0,0,0,.06057.58752c.01211.01818-.01817.09692-.07268.17566a.94743.94743,0,0,0-.03634.745.28284.28284,0,0,1,.006.24227,1.789,1.789,0,0,0-.03634.56935,1.16113,1.16113,0,0,1-.12114.71472c-.103.16959-.12114.26044-.07874.36947a2.072,2.072,0,0,1,.01817.58752c-.01817.24833-.04239.66626-.04845.93882A3.34072,3.34072,0,0,1,1.683,19.157a.672.672,0,0,0-.0424.41792,3.26349,3.26349,0,0,1,0,1.45366,1.51571,1.51571,0,0,0-.09691.47244,4.36394,4.36394,0,0,0-.01212,1.10236.3839.3839,0,0,1-.01817.25439c-.03028.103-.06662.23622-.07874.30284a3.75364,3.75364,0,0,1-.59963.79346c-.56935.61175-.71472.75711-.76317.75711-.03634,0-.06057.14537-.06057.315a.5477.5477,0,0,0,.17565.49061,1.14371,1.14371,0,0,0,.73289.36342c.11508-.03029.33918-.315.315-.39976a.68855.68855,0,0,1,.24833-.424c.103-.0424.18776.01211.27256.1817a2.7081,2.7081,0,0,1-.0424,1.19927c-.03634.27862-.03028.3937.03634.49667.04846.07268.07269.16354.04846.19383-.07268.12719.212.54512.47244.7026a1.29314,1.29314,0,0,0,.33313.15143c.06662,0,.19988-.109.636-.50273a1.77669,1.77669,0,0,1,.44821-.29679c.16354-.06057.19988-.109.23622-.321a1.74249,1.74249,0,0,0-.06662-.60569c-.04846-.19988-.109-.41187-.12114-.47244a.7546.7546,0,0,0-.06663-.17565,1.75629,1.75629,0,0,1-.08479-.58147v-.1817c-.03634-.86614-.04846-2.00484-.02423-2.08964a.50749.50749,0,0,1,.218-.19988,4.79981,4.79981,0,0,0,.93276-.78134,5.07625,5.07625,0,0,1,.96911-.78134,5.85648,5.85648,0,0,0,.58146-.40581c.18777-.14537.4785-.36342.65415-.4785a2.535,2.535,0,0,0,.38158-.29679c.0424-.04845.22411-.23016.40582-.40581l.33313-.321v-.53906c0-.46033-.01817-.56329-.12114-.67837-.103-.109-.16354-.1272-.38764-.103a.53.53,0,0,0-.35131.13931,1.75238,1.75238,0,0,1-.49061.53906.49268.49268,0,0,0-.20593.212.74479.74479,0,0,1-.26045.25439c-.08479.03635-.15142.103-.15142.13931,0,.1272-.321.43-.75711.72077a3.38964,3.38964,0,0,0-.66626.58753,1.74586,1.74586,0,0,1-.527.45426l-.28468.14537-.212-.212a.71582.71582,0,0,1-.218-.3089.32369.32369,0,0,0-.09085-.18171,2.11677,2.11677,0,0,1-.103-1.066,1.06422,1.06422,0,0,0-.07268-.46638A.36229.36229,0,0,1,3.07,18.521a2.65533,2.65533,0,0,0,.05451-.53906,4.46735,4.46735,0,0,1,.212-1.46578.16184.16184,0,0,0,.03635-.16353c-.0848-.13325-.07874-.315.00605-.65415a1.87534,1.87534,0,0,0,.06057-.6178,4.72524,4.72524,0,0,1,.03029-1.32041.42165.42165,0,0,0-.00606-.321.28888.28888,0,0,1,0-.29678,23.43263,23.43263,0,0,0,.06058-3.21026,4.77074,4.77074,0,0,1,.13931-1.29618.88905.88905,0,0,0,.06662-.50272c-.01817-.27256,0-.39976.06663-.46638a.29467.29467,0,0,0,.09085-.15142.29516.29516,0,0,1,.09691-.15143c.0848-.09085.0848-.109-.006-.19987a.27088.27088,0,0,1-.06662-.2786,2.38341,2.38341,0,0,0,.03635-.35738A.42.42,0,0,1,4.1361,6.1891a3.55947,3.55947,0,0,0,.80556-.83585,3.76813,3.76813,0,0,1,.5209-.62992,3.2114,3.2114,0,0,0,.48455-.57541.54721.54721,0,0,1,.12114-.2241,1.86265,1.86265,0,0,0,.30285-.854A.73842.73842,0,0,1,6.43772,2.773a1.73462,1.73462,0,0,0,.0848-.527,2.79444,2.79444,0,0,1,.07874-.58146c.09085-.29679-.0424-.52695-.47244-.81163a1.144,1.144,0,0,1-.25439-.2241A.95621.95621,0,0,0,5.511.42292,3.84611,3.84611,0,0,1,5.02645.2291.44364.44364,0,0,0,4.61458.18667c-.103.03635-.19988.05452-.218.03635a.87185.87185,0,0,0-.34525.05454c-.30289.07874-.32106.07874-.63-.09689A2.29365,2.29365,0,0,0,3.08824.005C3.07613.005,2.98527.0474,2.88233.08979Zm1.6293,2.94366a.55575.55575,0,0,1,.2847.49667c0,.26045-.41793.7874-.57541.73289-.04845-.02423-.09085-.05452-.09691-.07874,0-.01818-.00605-.27862-.00605-.56935-.00606-.40582.01211-.55118.07873-.59358.109-.06667.13927-.06667.31492.01211Z"/>

</g>
</svg>
