<?xml version="1.0" encoding="UTF-8"?>
<svg xmlns="http://www.w3.org/2000/svg"
     version="1.1"
     width="13.58095090mm"
     height="15.32446281mm"
     viewBox="0.00000000 0.00000000 38.49722412 43.43945319">

<g transform="scale(4.98973131)">   <defs>
      <style type="text/css"><![CDATA[
      .a {
        stroke: #000;
        stroke-linecap: round;
        stroke-linejoin: round;
        stroke-width: 0.01px;
      }
    ]]></style>
   </defs>
   <path class="a"
         d="M4.28816.0898a.98014.98014,0,0,1-.37553.2241,3.4,3.4,0,0,0-.55724.27862A.91454.91454,0,0,1,3.095.73183a2.69731,2.69731,0,0,0-.642.51484,1.2,1.2,0,0,1-.19987.23016c-.12114.12114-.20594.16354-.29074.13325-.06662-.01817-.12113-.01211-.12113.01817a1.22,1.22,0,0,1-.39976.23016c-.315.13326-.41793.212-.50878.38765-.103.19987-.16354.26044-.50878.50878-.15748.109-.0848.19988.315.37553A1.84924,1.84924,0,0,0,2.37417,3.0698c.24834-.1696.40582-.16354.46639.03028.04239.13931-.05452.33313-.27862.55118a1.89684,1.89684,0,0,0-.30285.424,2.10683,2.10683,0,0,1-.2665.41187.96448.96448,0,0,0-.18171.28468c-.01817.07874-.06663.13931-.09691.13931a.06165.06165,0,0,0-.05451.06662,11.41331,11.41331,0,0,1-1.02968,1.708.89065.89065,0,0,0-.20593.37553,1.06756,1.06756,0,0,1-.16354.35736c-.06662.08479-.109.18171-.08479.218a.52833.52833,0,0,1-.0848.29073.67141.67141,0,0,0-.0848.36341c.03034.1212.24834.23627.47244.24839a2.07012,2.07012,0,0,1,.6602.12113.50128.50128,0,0,0,.36342.01212,3.56436,3.56436,0,0,1,.47849-.09086.94926.94926,0,0,0,.4785-.18776l.18171-.15142.212.13325c.20593.12114.24228.12719.73894.06057a4.25462,4.25462,0,0,1,.854-.03029c.86613.09086,1.21744.02423,1.52634-.29678.17565-.18777.2665-.23622.36947-.20594a1.36668,1.36668,0,0,0,.79345-.25439,2.868,2.868,0,0,0,.4361-.86008c.01212-.04846.04846-.212.07874-.36342a2.51538,2.51538,0,0,0,.06057-.48455c0-.18776-.03028-.2241-.26045-.33919-.23622-.12113-.27256-.12113-.43609-.03634A3.6181,3.6181,0,0,1,4.89988,5.438c-.13325-.04846-.36341-.12114-.50272-.16354-.23016-.06057-.27862-.103-.38158-.33313-.11509-.25439-.11509-.27862-.01817-.46032a2.78787,2.78787,0,0,1,.61174-.76923,11.50876,11.50876,0,0,0,1.3386-1.54451,1.04631,1.04631,0,0,0,.13325-.321A.3545.3545,0,0,1,6.19,1.6525.86315.86315,0,0,0,5.89326.47744a.32912.32912,0,0,1-.206-.18171C5.66308.223,5.61462.19276,5.56011.21093A.19969.19969,0,0,1,5.37234.12614C5.28149.02317,5.19064.005,4.79088.005,4.43958.005,4.31238.02923,4.28816.0898Z"/>

</g>
</svg>
