<?xml version="1.0" encoding="UTF-8"?>
<svg xmlns="http://www.w3.org/2000/svg"
     version="1.1"
     width="64.65635703mm"
     height="47.35743547mm"
     viewBox="0.00000000 0.00000000 183.27785405 134.24159746">

<g transform="scale(3.67920472)">   <defs>
      <style type="text/css"><![CDATA[
      .a {
        stroke: #000;
        stroke-linecap: round;
        stroke-linejoin: round;
        stroke-width: 0.01px;
      }
    ]]></style>
   </defs>
   <path class="a"
         d="M11.1664.09131a1.06713,1.06713,0,0,1-.315.09085.25164.25164,0,0,0-.18776.15143.3766.3766,0,0,1-.18777.18776,1.69944,1.69944,0,0,0-.39975.29679,2.732,2.732,0,0,1-.9146.57541.34978.34978,0,0,0-.17565.09085,4.48684,4.48684,0,0,1-.854.56329A5.5057,5.5057,0,0,0,6.6964,3.07131a1.69027,1.69027,0,0,1-.50878.33313c-.13325.03634-.23622.09085-.23622.11508a.96271.96271,0,0,1-.28467.22411,4.8724,4.8724,0,0,0-.8298.67231c-.02423.03029-.13325.13326-.23016.23622-.103.09691-.20594.20594-.23622.23017-.03029.03028-.15142.17565-.26651.32707a2.9093,2.9093,0,0,1-.533.56935,4.86286,4.86286,0,0,0-.67838.67837,3.95786,3.95786,0,0,1-.76317.77529,1.45487,1.45487,0,0,0-.636.47244.36211.36211,0,0,1-.17565.1817.47917.47917,0,0,0-.212.23622.389.389,0,0,1-.1817.20594.49775.49775,0,0,0-.17565.27862.58827.58827,0,0,1-.28468.36947c-.11508.06662-.20593.15748-.20593.20593a.32.32,0,0,1-.12114.18777.913.913,0,0,0,0,.94488c.09085.07268.15748.09085.23016.04845a.20558.20558,0,0,1,.212.00606,1.23642,1.23642,0,0,0,.70866-.07269.21843.21843,0,0,1,.19382.00606c.07268.0424.14537.01817.26651-.09691a.55837.55837,0,0,1,.23622-.15142.26884.26884,0,0,0,.16353-.1272c.07268-.109.15142-.13325.56329-.14536a1.7966,1.7966,0,0,0,.81769-.17565,2.04276,2.04276,0,0,1,.41187-.15748.60192.60192,0,0,0,.23016-.09691.99642.99642,0,0,1,.36341-.1272,2.59289,2.59289,0,0,0,.55118-.16959,2.17514,2.17514,0,0,1,.3937-.15142.61229.61229,0,0,0,.212-.12114c.11509-.09086.18171-.103.26651-.05452a.40586.40586,0,0,0,.25439.01818,1.61005,1.61005,0,0,1,.16354-.05452.35679.35679,0,0,0,.11508-.05451.95269.95269,0,0,1,.37552-.0424,1.14277,1.14277,0,0,0,.61175-.15142A2.07164,2.07164,0,0,1,7.8896,8.2742a1.27971,1.27971,0,0,0,.33919-.17565A.914.914,0,0,1,8.59221,7.935a2.15977,2.15977,0,0,0,.92065-.0848c.03635-.02422.14537,0,.24228.04846.16354.08479.46033.09691.533.01817.07874-.07268.39976.103.48455.27256a.40309.40309,0,0,1,.02423.38159.39517.39517,0,0,1-.17565.24227.57639.57639,0,0,0-.212.26045,1.61618,1.61618,0,0,1-.19382.315,2.92089,2.92089,0,0,0-.64809,1.02967,1.15128,1.15128,0,0,1-.218.4361.80519.80519,0,0,0-.18777.34524.37514.37514,0,0,1-.1817.27862c-.06663.02423-.12114.07268-.12114.109a1.414,1.414,0,0,1-.212.36947,1.23654,1.23654,0,0,0-.212.41187,1.18536,1.18536,0,0,1-.11508.34524,1.487,1.487,0,0,0-.14536.46638,1.84025,1.84025,0,0,1-.15143.50878c-.06662.15143-.16959.39976-.2241.55118a1.61576,1.61576,0,0,1-.20594.41187,1.0378,1.0378,0,0,0-.15142.43.921.921,0,0,1-.12719.38765.32041.32041,0,0,0-.09086.19382,3.464,3.464,0,0,1-.24833.84191c-.06057.16353-.15142.46638-.20594.66626a3.96514,3.96514,0,0,1-.24833.65414.72787.72787,0,0,0-.12114.33919c.01817.02423-.006.103-.05451.16354a.50213.50213,0,0,0-.09085.2665,1.97789,1.97789,0,0,1-.212.56329,2.42086,2.42086,0,0,0-.212.51484.497.497,0,0,1-.09691.24228c-.04845.07268-.07268.13325-.04845.13325.01817,0-.00606.06663-.06057.15142a.56438.56438,0,0,0-.09691.24834,1.43459,1.43459,0,0,1-.14537.38158,2.64583,2.64583,0,0,0-.36341.963.70735.70735,0,0,1-.09691.33919.65618.65618,0,0,0-.0848.2665,1.33376,1.33376,0,0,1-.13931.38159,1.44231,1.44231,0,0,0-.15748.81162,1.66645,1.66645,0,0,1-.0848.48455,3.58736,3.58736,0,0,0-.218,1.19322,2.12673,2.12673,0,0,1-.09691.98727,1.56293,1.56293,0,0,0-.02423.9146,5.23126,5.23126,0,0,1,.08479.68443.81863.81863,0,0,0,.212.49666,1.10659,1.10659,0,0,0,.27256.29679c.03028,0,.08479.06663.12719.14537.06663.15748.1696.218.38764.24833.14537.01817.44822.19988.44822.27256s.43609.16354.69654.14537c1.07207-.06663,1.21138-.12114,1.77468-.67838a1.98729,1.98729,0,0,1,.46638-.37552c.04845,0,.16353-.103.25439-.23017a4.41034,4.41034,0,0,1,.321-.38158c.24228-.25439.30285-.34525.30285-.44821a1.11874,1.11874,0,0,1,.3089-.56935c.1272-.15748.15748-.23622.109-.315a.57833.57833,0,0,1-.05452-.218c0-.23622-.56935-.41187-.848-.26045-.07874.0424-.14537.02423-.26651-.06662A.44386.44386,0,0,0,8.2954,25.827a.61816.61816,0,0,1-.55118-.15142,1.22353,1.22353,0,0,1-.38765-.41187,1.99845,1.99845,0,0,0-.17565-.29679.2931.2931,0,0,1-.07874-.16354A.20443.20443,0,0,0,6.9871,24.658c-.17565-.09691-.23016-.3513-.20593-.9146a2.729,2.729,0,0,1,.29073-1.24772.32705.32705,0,0,0,.05451-.23016.93945.93945,0,0,1,.05451-.38159c.04846-.15748.13931-.49666.19383-.745a2.55557,2.55557,0,0,1,.18776-.58752,1.36105,1.36105,0,0,0,.11508-.45427,2.50253,2.50253,0,0,1,.11508-.56329,1.89639,1.89639,0,0,0,.09691-.46032.70129.70129,0,0,1,.1272-.38159.92.92,0,0,0,.15142-.29679,2.34618,2.34618,0,0,1,.218-.78134,1.287,1.287,0,0,0,.13325-.3089c.01817-.09085.06663-.16354.09691-.16354.03634,0,.06057-.05451.06057-.12719a.61007.61007,0,0,1,.05451-.23016.18964.18964,0,0,0,.00606-.18777.18118.18118,0,0,1,0-.17565,2.26654,2.26654,0,0,0,.07874-.46032,1.74417,1.74417,0,0,1,.35736-1.01151,1.35591,1.35591,0,0,0,.19988-.4361.47576.47576,0,0,1,.11508-.27256.32374.32374,0,0,0,.08479-.27861.30275.30275,0,0,1,.05452-.24834.23743.23743,0,0,0,.06057-.218.48762.48762,0,0,1,.212-.47244.47876.47876,0,0,0,.13325-.321.9663.9663,0,0,1,.15142-.41187c.07268-.09691.12114-.19988.103-.23016-.01817-.02423.06057-.15748.17565-.28468a1.25679,1.25679,0,0,0,.212-.27862c0-.06057.18171-.23016.24228-.23016.103,0,.24833.19988.212.29073a.22366.22366,0,0,0,.0848.19988c.103.09691.11508.18171.109.59358-.00606.315.01211.49666.06663.54512a.69426.69426,0,0,1,.08479.32707c.00606.13931.01817.43.03029.64809.00605.218.01817.44216.01817.49667,0,.06057,0,.15142.00606.19988,0,.04845.01211.33313.01817.62991a1.654,1.654,0,0,0,.09691.642.59908.59908,0,0,1,.04845.52089,1.97126,1.97126,0,0,0,.01212.90248,1.42549,1.42549,0,0,1-.00606.8298c-.109.33313-.09085.79345.03634.88431.0848.06662.109.16959.109.50272a2.6436,2.6436,0,0,1-.04846.58146.32635.32635,0,0,0,.05451.29678c.07268.109.0848.218.05451.47851a1.68558,1.68558,0,0,1-.08479.43.50915.50915,0,0,0,.06057.33313,1.63379,1.63379,0,0,1,.11508.47244,5.50565,5.50565,0,0,0,.103.60569,8.96562,8.96562,0,0,1,.17565,1.55057,1.44251,1.44251,0,0,0,.06056.41791,1.90572,1.90572,0,0,1,.06663.54513,2.79169,2.79169,0,0,0,.109.72683.583.583,0,0,1,.03634.41792,1.58006,1.58006,0,0,0,.109.92065,3.68956,3.68956,0,0,1,.14537,1.1387c.006.13931.03028.25439.05451.25439.11508,0,.26045.54513.2241.86009a1.79523,1.79523,0,0,0,.06057.62387c.19382.67837.28468.93882.32708.93882a1.418,1.418,0,0,1,.20593.40581c.09086.23016.20594.50878.25439.62386a3.11623,3.11623,0,0,1,.24228.78739c.01211.11509.04845.315.07874.44822a.839.839,0,0,1,.02423.30284c-.01817.04239.03634.12719.12113.19988a.64631.64631,0,0,1,.18171.30891.9053.9053,0,0,0,.14537.29679,2.23862,2.23862,0,0,1,.6178,1.22955c0,.13325.02423.24227.05451.24227s.07269.04846.09086.103a1.52574,1.52574,0,0,0,.9691.46033,1.45027,1.45027,0,0,0,.90854-.29073.62549.62549,0,0,1,.218-.15143c.109,0,.3513-.30284.45427-.5754a.921.921,0,0,1,.1817-.321,2.00922,2.00922,0,0,0,.30285-.39976,1.34163,1.34163,0,0,0,.24833-.64809.81806.81806,0,0,1,.18777-.50878.92581.92581,0,0,1,.20593-.212c.09086,0,.25439-.33919.27256-.55118.01817-.17566-.006-.23623-.09085-.2665a.57979.57979,0,0,1-.218-.26045,2.90044,2.90044,0,0,1-.16959-1.13264,1.94234,1.94234,0,0,0-.06057-.315A.64719.64719,0,0,1,18.901,30.509c.04845-.17565.03028-.27861-.11509-.6178a1.54678,1.54678,0,0,1-.1393-.48455.29247.29247,0,0,0-.03029-.20594,1.22432,1.22432,0,0,1-.07268-.44215,1.37485,1.37485,0,0,0-.07269-.44216,2.69866,2.69866,0,0,1-.1393-.51484c-.0424-.218-.103-.50272-.13931-.636s-.07874-.33919-.09691-.45427a2.356,2.356,0,0,0-.13931-.70866.6412.6412,0,0,1-.03029-.29679.51053.51053,0,0,0-.06057-.33313,2.51253,2.51253,0,0,1-.109-1.10235c0-.09086-.02423-.16354-.05451-.16354-.109,0-.25439-.37553-.22411-.56935a2.77548,2.77548,0,0,0-.19382-1.0539,1.54121,1.54121,0,0,1-.09691-.36947,1.32755,1.32755,0,0,0-.109-.40582,1.40443,1.40443,0,0,1-.07269-.56935c.01817-.49666.00606-.46638.14537-.54512.09691-.04845.20593-.01817.52695.15142a2.056,2.056,0,0,0,.47244.19988,1.20023,1.20023,0,0,1,.36341.1272,1.47494,1.47494,0,0,0,1.16293.14536c.06663-.0424.14537-.06057.16959-.03634a.98336.98336,0,0,0,.62386-.05451,1.13943,1.13943,0,0,1,.424-.07874,3.12523,3.12523,0,0,0,.77528-.18776,3.55649,3.55649,0,0,1,1.54452-.27862.29542.29542,0,0,0,.23621.01211,2.70836,2.70836,0,0,1,1.03574,0c.07874.0424.15142.02423.27256-.07268a.92558.92558,0,0,1,.29073-.14537,2.1675,2.1675,0,0,0,.38158-.103c.16354-.06057.27862-.07269.34525-.03029a.21335.21335,0,0,0,.18171.00606,2.35011,2.35011,0,0,1,.55723-.05451,6.85463,6.85463,0,0,0,1.53846-.14537.23083.23083,0,0,1,.19987.00606c.06057.03634.218.01211.46033-.06057a1.81882,1.81882,0,0,1,.59358-.09691.88778.88778,0,0,0,.34524-.0424,1.49607,1.49607,0,0,1,.98728-.01817,1.617,1.617,0,0,0,.76922.103c.33919.006.66626.006.72683,0,.05452-.00606.15748-.01212.22411-.01212h.44215c.03635,0,.23622-.01211.4361-.03028a3.51705,3.51705,0,0,0,1.16293-.17565.38609.38609,0,0,1,.26045.02422c.103.05452.1817.04846.36946-.02422a.60434.60434,0,0,1,.30285-.06663c.03028.02423.0969.01211.15747-.01817a.25627.25627,0,0,1,.23016,0,.60434.60434,0,0,0,.39976-.01211,3.51931,3.51931,0,0,1,.92066-.12114c.03633,0,.2241-.01212.40581-.03029a3.42333,3.42333,0,0,1,.424-.02422,16.96534,16.96534,0,0,0,1.93821-.03029c.18171-.02423.44215-.06057.5754-.06662a1.56948,1.56948,0,0,0,.33918-.05452c.06664-.03028.16961.01817.2968.13931.16354.14537.22411.1696.315.12114s.16959-.03028.32707.06057a.6757.6757,0,0,0,.7026.0424c.07269-.05451.26045-.06663.66627-.04846.3089.01817.636.02423.73288.01817a2.101,2.101,0,0,1,.78134.05452c.61781.15142.86614.51483.92671,1.34463a1.55075,1.55075,0,0,0,.0848.46032.843.843,0,0,1,.03634.35131c-.0424.424-.0848.77528-.12114.98121-.01817.103-.04846.29074-.06663.41187a1.47554,1.47554,0,0,1-.1817.4785.5273.5273,0,0,0-.109.40581.44877.44877,0,0,1,.03029.15748.69146.69146,0,0,0,.07874.18171c.09085.18171.07873.51484-.01817.54512-.03635.01212-.06663.07874-.06663.13931a.81112.81112,0,0,1-.30285.54512.54678.54678,0,0,0-.20593.50273c.04845.12113.58146.07874.72683-.05452a5.43147,5.43147,0,0,1,.87825-.75711c.03634,0,.01817-.0424-.03028-.09691a.28456.28456,0,0,1-.09691-.14537c0-.09691.1817-.23622.2665-.20593.0545.02423.14537-.07268.25439-.26045a2.10348,2.10348,0,0,1,.315-.40581c.07873-.06057.12718-.15142.109-.19382-.01817-.04846.03634-.14537.11508-.218a.64539.64539,0,0,0,.18777-.34524,1.74071,1.74071,0,0,1,.17565-.46033,1.6042,1.6042,0,0,0,.16959-.53906.76327.76327,0,0,1,.0848-.33313,1.33142,1.33142,0,0,0,.19382-.80557.274.274,0,0,1,.02423-.24835.59855.59855,0,0,0,.13325-.4058,2.8696,2.8696,0,0,1,.41794-.93882.91185.91185,0,0,0,.13325-.36948.84492.84492,0,0,1,.109-.34524,4.15564,4.15564,0,0,0,.27862-.3937,1.08046,1.08046,0,0,1,.25439-.315c.0424,0,.15748-.2241.19382-.39369.01212-.03636.07874-.26651.15748-.51484a2.006,2.006,0,0,0,.1272-.51484,1.148,1.148,0,0,1-.01817-.24228,1.51619,1.51619,0,0,0-.23622-.75711,2.03087,2.03087,0,0,1-.321-.79951c.109-.18171-.67232-.76317-.88431-.65415a.49946.49946,0,0,1-.24227.02423c-.33919-.0424-.50273-.07874-.53907-.1272a11.38181,11.38181,0,0,0-1.67171-.01817,2.467,2.467,0,0,1-.44822-.06056,1.38664,1.38664,0,0,0-.48455-.02423,2.97066,2.97066,0,0,1-.52089.05451,2.41566,2.41566,0,0,0-.46638.05451c-.06662.03029-.14536,0-.2241-.07874-.11508-.11508-.12114-.14536-.05451-.27256a2.19065,2.19065,0,0,1,.7026-.61175c.12719-.07874.19382-.16353.19382-.25439,0-.17565.15748-.56329.2241-.56329a2.19182,2.19182,0,0,0,.44821-.963,2.77284,2.77284,0,0,0-.33918-1.33858c-.15748-.27861-.49667-.60569-.62386-.60569a.495.495,0,0,1-.24834-.103,6.75934,6.75934,0,0,0-1.0963-.54513,1.7847,1.7847,0,0,0-.84191-.15142,2.13948,2.13948,0,0,1-.65414-.07874c-.109-.04845-.19988-.07268-.19988-.05451a.44915.44915,0,0,1-.19382-.07268,1.06638,1.06638,0,0,0-.4361-.09691.72724.72724,0,0,1-.38159-.0848.36559.36559,0,0,0-.33918-.03634,1.09132,1.09132,0,0,1-.86008-.06663c-.07269-.103-.09086-.103-.27257-.01211a.54068.54068,0,0,1-.47244.03634,1.99751,1.99751,0,0,0-.527-.03634c-.13325.01817-.33918.0424-.46032.06057a3.79123,3.79123,0,0,0-.66626.1817,2.60431,2.60431,0,0,1-.64809.15748.66812.66812,0,0,0-.34524.09086,1.24132,1.24132,0,0,1-.40582.12114c-.14536.01211-.33918.04239-.44215.06056-.09691.01818-.34525.0424-.53907.05452a6.12569,6.12569,0,0,0-1.02361.13325,3.77044,3.77044,0,0,1-1.066.0848.37412.37412,0,0,0-.218.05451,1.243,1.243,0,0,1-.43.09085,2.36287,2.36287,0,0,0-.64809.14537,1.50523,1.50523,0,0,1-.49061.12719,2.527,2.527,0,0,0-.49061.0848,2.85314,2.85314,0,0,1-.32707.0848,1.749,1.749,0,0,0-.636.2241.52054.52054,0,0,1-.2665.09086,3.03748,3.03748,0,0,0-.96911.43,1.26716,1.26716,0,0,1-.48455.15142,1.85664,1.85664,0,0,0-.58752.17565,1.79618,1.79618,0,0,1-.4785.18171.98316.98316,0,0,0-.38764.15748.63063.63063,0,0,1-.21805.11508,2.46074,2.46074,0,0,0-.73288.38764.41508.41508,0,0,1-.26045.09691.90109.90109,0,0,0-.3089.0848.43379.43379,0,0,1-.24228.05451,3.17989,3.17989,0,0,0-.75711.3089,3.92918,3.92918,0,0,1-.69655.315c-.09085-.06057-.424.15142-.53906.33919a3.22042,3.22042,0,0,1-1.21138.83585,1.94649,1.94649,0,0,0-.50273.30285,2.49811,2.49811,0,0,1-.44821.315,1.685,1.685,0,0,0-.34524.23016.26837.26837,0,0,1-.212.0848c-.07874-.02423-.17565.04845-.321.23016a1.65254,1.65254,0,0,1-.26045.28467,1.34917,1.34917,0,0,0-.2241.18171c-.47244.44215-.6057.55118-.65415.55118a1.08,1.08,0,0,0-.25439.315,4.66877,4.66877,0,0,1-.43.56935,3.23789,3.23789,0,0,0-.29073.37553c-.0848.15748-.38159.321-.47244.2665a3.65368,3.65368,0,0,1-.48456-1.4052,11.38912,11.38912,0,0,1-.13325-2.07147.54309.54309,0,0,0-.0424-.27861,2.28643,2.28643,0,0,1-.08479-.53907,1.80639,1.80639,0,0,0-.0848-.54512,1.35853,1.35853,0,0,1-.09085-.33919c-.00606-.05451-.00606-.13931-.01212-.18171,0-.03634,0-.3089.00606-.59357a1.55339,1.55339,0,0,0-.09085-.72077.48355.48355,0,0,1-.05452-.35736c.02423-.0848.04846-.19382.06057-.24228a.31374.31374,0,0,1,.07874-.14536c.09691-.09692.0848-.12114-.09085-.321-.24228-.27256-.34524-.54512-.26045-.69655a.649.649,0,0,0,.02423-.3513,2.75679,2.75679,0,0,1-.01211-.79345,1.11637,1.11637,0,0,0-.09086-.53907.55579.55579,0,0,1-.0424-.47244.43887.43887,0,0,0,.01818-.27256,1.269,1.269,0,0,1-.09086-.3513c-.02423-.15142-.09085-.43609-.14536-.636a8.96351,8.96351,0,0,1-.18171-.93882c-.14537-.957-.18171-1.05391-.53907-1.39309a1.9103,1.9103,0,0,0-.78739-.30285.29705.29705,0,0,1-.17566-.0848c-.07268-.07268-.07268-.14536,0-.49666a1.24677,1.24677,0,0,0,.03029-.56329,1.90527,1.90527,0,0,1-.03029-.533c.01818-.30891.00606-.38764-.08479-.45427a.94869.94869,0,0,1-.212-.24228.62817.62817,0,0,0-.23031-.19979.29047.29047,0,0,1-.16353-.212c-.01817-.09691-.06057-.16353-.103-.14536A.55576.55576,0,0,1,11.99011.0913,1.02584,1.02584,0,0,0,11.1664.09131ZM9.80965,3.08948a.45288.45288,0,0,0,.28468.0848.83356.83356,0,0,1,.38764.12114c.25439.12719.315.19382.38764.424a.56692.56692,0,0,1,.03634.35736,2.17185,2.17185,0,0,1-.79345.49666.46625.46625,0,0,0-.26045.22411.36749.36749,0,0,1-.2665.20594.747.747,0,0,0-.321.20593.68172.68172,0,0,1-.49667.212,2.32894,2.32894,0,0,0-.533.12114,1.96246,1.96246,0,0,1-.5633.07874,1.413,1.413,0,0,0-.48455.06057c-.23622.11508-.6178.13931-.71471.03634a.28512.28512,0,0,1-.09691-.15748,2.19959,2.19959,0,0,1,.4906-.77528,2.54711,2.54711,0,0,0,.23017-.18171,4.06935,4.06935,0,0,1,.321-.26045,1.8018,1.8018,0,0,0,.38765-.4361c.08479-.15142.17565-.27256.20593-.27256a.68317.68317,0,0,0,.19988-.15748A2.07572,2.07572,0,0,1,9.2403,3.0592a.8185.8185,0,0,0,.26651-.05452C9.56132,2.95017,9.59766,2.95623,9.80965,3.08948Zm23.198,8.831a3.038,3.038,0,0,1,.636.06662.30724.30724,0,0,0,.25439-.006.41953.41953,0,0,1,.33313.006,2.09942,2.09942,0,0,0,.55118.06057c.18171-.00606.61176-.00606.95094,0a3.80308,3.80308,0,0,0,.745-.02423.35068.35068,0,0,1,.27862.06057.38194.38194,0,0,0,.2665.06057.20271.20271,0,0,1,.218.0848c.05451.06057.13931.103.18171.0848a.32117.32117,0,0,1,.19987.03634,1.25671,1.25671,0,0,0,.38765.09085,1.063,1.063,0,0,1,.34524.06663,2.2283,2.2283,0,0,0,.56935.07268c.27256.01211.69654.04845.94489.07268a1.80456,1.80456,0,0,0,.59357-.00605.58031.58031,0,0,1,.41187.06662c.38764.17565.56934.38764.56934.68443a1.70426,1.70426,0,0,0,.0848.38159c.07268.20593.07268.26044,0,.3937a1.99246,1.99246,0,0,1-.52695.642,2.87849,2.87849,0,0,1-1.23561-.0424,3.91516,3.91516,0,0,0-1.04179-.20593,1.74254,1.74254,0,0,1-.36947-.06057.76831.76831,0,0,0-.27862.0424,2.62305,2.62305,0,0,1-.50878.08479,6.35322,6.35322,0,0,0-1.12053.14537,4.417,4.417,0,0,1-1.30223.13931,3.17558,3.17558,0,0,0-.84191.09691.42329.42329,0,0,1-.36947.02423.35978.35978,0,0,0-.33919.03028,5.04808,5.04808,0,0,1-1.56874.13325c-.19988-.00606-.41793-.00606-.48455-.00606a5.47084,5.47084,0,0,0-1.24167.15748,7.57636,7.57636,0,0,1-2.25317.27862,4.35476,4.35476,0,0,0-1.21138.13325,1.63132,1.63132,0,0,1-.59358.09691,1.827,1.827,0,0,0-.56329.07874.50863.50863,0,0,1-.27256.03029.85635.85635,0,0,0-.37553.04845,1.87888,1.87888,0,0,1-.30285.0848,2.042,2.042,0,0,0-.36341.07268,4.92161,4.92161,0,0,1-.72683.09086c-.24833.006-.5209.02423-.60569.03028-.24834.01817-.29073,0-.33313-.12719-.04846-.14537.04845-.321.3089-.57541a.75559.75559,0,0,0,.20594-.2665,2.54825,2.54825,0,0,1,.751-.73289c.05451,0,.09691-.02423.09691-.05451s.06057-.07874.13931-.103a1.02231,1.02231,0,0,0,.315-.23016,3.43147,3.43147,0,0,1,.3937-.33919c.22411-.15748.25439-.18171.4785-.36341a.52249.52249,0,0,1,.212-.12114,1.06276,1.06276,0,0,0,.30284-.1272,3.25912,3.25912,0,0,1,1.28407-.2665.97271.97271,0,0,0,.60569-.17565.92858.92858,0,0,1,.33919-.15748.20371.20371,0,0,0,.15748-.09691,1.25236,1.25236,0,0,1,.69654-.23622,1.31847,1.31847,0,0,0,.27256-.0848,1.59369,1.59369,0,0,1,.40581-.06057,3.305,3.305,0,0,0,.48456-.03634c.103-.01817.33313-.0424.52695-.05451a1.50019,1.50019,0,0,0,.41187-.06663,4.73838,4.73838,0,0,1,.46638-.1817c.38159-.13326.3937-.13326.67837-.03029a2.51043,2.51043,0,0,0,.77528.10907Z"/>

</g>
</svg>
