<?xml version="1.0" encoding="UTF-8"?>
<svg xmlns="http://www.w3.org/2000/svg"
     version="1.1"
     width="36.42196187mm"
     height="47.46365790mm"
     viewBox="0.00000000 0.00000000 103.24341243 134.54259263">

<g transform="scale(4.30598027)">   <defs>
      <style type="text/css"><![CDATA[
      .b {
        stroke: #000;
        stroke-linecap: round;
        stroke-linejoin: round;
        stroke-width: .15px;
      }
    ]]></style>
   </defs>
   <path class="b"
         d="m5.73802,9.0975c-.55777-1.16168-4.22683-3.10322-3.1481-4.33197.29396-.33484.96782-.42056,1.31381-.71858.35406-.30497.4002-.68016.67594-1.00276.3296-.38561.66906-.40546,1.06887-.69992.53815-.39635.55982-.85278,1.08443-1.29559.55072-.46485,1.19068-.78407,1.80677-.30281.46191.36082.38129,1.01215,1.02841,1.17189.08579-1.1822.52246-2.17007,2.02912-1.74033.62685.17879,1.80982,2.08245,1.49065,2.88902-.21563.54492-1.04576.74041-1.38125,1.30663-.33493.56527-.47479,1.44073-.6338,2.07658-.40993,1.6392-.04258,3.33009-.3607,4.96615-.34487,1.7736.11884,3.71878.46932,5.46456.20625,1.02735,1.18195,3.00554.15312,3.76291-.65467.48193-2.74232.59993-3.36985.05212-.72986-.63713-.83419-2.61583-1.0659-3.55207-.39159-1.58224-.54955-3.14482-.54868-4.83553.00064-1.24913-.17319-2.38716-.61216-3.21032Z"/>
   <path class="b"
         d="m4.07644,12.42066c-.0509-.76867.16105-1.23809.87482-1.57382.49975-.23507,1.73188-.00757,1.55858-.77213-1.06296-.57629-1.82578-1.00103-2.7149.05275-.80352.95233-1.30113,2.19615-1.96826,3.25516-.80949,1.28499-1.61029,1.76849-1.68103,3.32316-.04374.96124-.15331,1.87447.04022,2.84646.18838.94614.57859,1.32011,1.16013,2.0488.96229,1.20578,1.22518,2.31866,2.99281,2.27576,1.52118-.03691,2.06095-.78177,2.99514-1.81672.43515-.48208.91303-.8001.76528-1.59591-.13982-.75313-.64424-.687-1.22634-1.13002-.75881-.5775-1.66521-1.68879-2.29538-2.45549-.89469-1.08853-1.34267-2.12997-.06378-3.0345.93607-.66207,3.17038-1.06866,2.78523-2.72206-.70521-.03606-1.29911-.09202-1.88674.26657-.36159.22065-1.18318,1.31916-1.33575,1.03199Z"/>
   <path class="b"
         d="m11.59728,3.93786c1.0069.93788,1.43284,1.76353,2.07689,2.97787.47929.90371.72655,1.91141,1.44282,2.68483.78124.84358,1.60804,1.61356,2.40785,2.40229.98385.97022,2.03166,1.90528,3.16943,2.71271,1.1429.81107,2.0986,1.69939,2.5364,3.1053.48691,1.56363-.77697,2.81732-2.36133,2.73481-1.03812-.05406-1.89708-.39847-2.69545-1.07339-.75034-.63432-1.64068-1.08763-2.38314-1.72458-1.18123-1.01337-2.13986-2.22225-2.99062-3.50056-1.33765-2.00988-2.45503-3.58093-2.80064-6.10387-.17415-1.27134-.20172-4.82067,1.5978-4.21541Z"/>
   <path class="b"
         d="m19.47934,23.69253c.42875-.00142.79621-.14733,1.21051-.2471.30953-.07453.62181-.11355.91283-.23337.45771-.18845.73073-.27053,1.00362-.72387.20872-.34674.17499-.66773.28206-1.03439.10566-.36185.25882-.74796.61449-.30148.2335.29313.22225.69158.29986,1.05127.14394.66718.20597,1.33004-.35346,1.8383-.47603.43248-1.04204.81235-1.55292,1.20891-.42444.32946-.84692.72327-1.32801.9692-.5251.26842-1.163.35966-1.72407.51447-.93025.25667-1.75453.19365-2.68165.09054-.83322-.09267-1.59427.11057-2.39856.21787-.30601.04082-.9137.20167-1.19016-.0321-.37655-.31841.02367-.77137.23408-1.02441.33767-.40609.57446-.88907.99877-1.2246.47104-.37249,1.12531-.50875,1.67161-.75003.38591-.17044.72302-.45699,1.14959-.52214.33856-.05171.71639-.02579,1.05974-.01404.59039.02021,1.11875.28542,1.7159.21698.14048-.0161.26891-.07295.07578,0Z"/>
   <path class="b"
         d="m3.43688,27.78057c-.06609.08028-.13166.16141-.19707.24323-.36057.45101-.79085.83991-1.11395,1.32221-.25966.3876-.24639,1.0148.14991,1.32866.25958.20558.80937.27725,1.11641.23871.43196-.05422.84993-.46702,1.27101-.64246.38092-.1587.77294-.26865,1.1802-.13199.42.14094.67961.50849,1.05241.70865.9675.51947,2.02514.33842,3.03705-.02559.48976-.17618.94633-.42828,1.39423-.68895.45271-.26347.74084-.63232,1.12553-.96912.57779-.50584,1.14157-.63205,1.13718-1.47109-.00341-.65219.21161-1.08496-.03193-1.72283-.14264-.3736-.21945-.85259-.53418-1.13879-.17552-.15961-.41059-.19189-.61652-.29731-.26735-.13685-.5316-.26467-.8294-.3203-1.02593-.19165-1.83306-.02848-2.7609.44132-.50118.25377-1.0528.44402-1.58986.60697-.51309.15568-1.00934.19476-1.502.45239-.21452.11218-.37874.32557-.58062.46463-.24813.17092-.48653.35599-.71381.55379-.36837.3206-.68676.67506-.99369,1.04787Z"/>
   <path class="b"
         d="m7.79324,18.32995c-.2975-.04431-.50249.16672-.71377.34279-.39412.32845-.78031.66431-1.17405.99021-.38033.31481-.71696.61159-1.02596.99032-.29215.35809-.45153.82039-.71295,1.17543-.21821.29636-.49997.50925-.62145.90268-.08394.27187-.15531.58854-.21009.86804-.08748.44642-.05643,1.00335-.00529,1.45159.04215.36947.28728.61266.6354.75051.27668.10956.62889.06643.92033.09183.48319.04211,1.01391.0755,1.50013.02946.79221-.07501,1.5682-.34604,2.32151-.57307.88737-.26744,1.82814-.12305,2.7313-.33981.4587-.11009.94127-.14334,1.39042-.28047.43954-.13419.84738-.35192,1.26842-.52922.88444-.37246,1.98379-.26002,2.92534-.4352.776-.14438,1.53422-.34965,2.28662-.58432.46765-.14586.93427-.27892,1.33259-.55881.56298-.3956,1.34943-.78587,1.13362-1.64866-.0788-.31502-.45918-.72344-.71566-.90407-.19706-.13878-.45295-.20504-.66183-.37388-.56448-.45628-1.04042-1.00166-1.54276-1.52083-.40038-.4138-.81873-.72035-1.29455-.9944-.31604-.18202-.53285-.42067-.90831-.48692-.76817-.13552-1.53635-.15029-2.31617-.19216-.73682-.03957-1.50359.14912-2.22576.27776-1.43426.2555-2.76099.87975-4.10173,1.39611-.14263.05493-.31733.11034-.21538.1551Z"/>

</g>
</svg>
