<?xml version="1.0" encoding="UTF-8"?>
<svg xmlns="http://www.w3.org/2000/svg"
     version="1.1"
     width="53.48212345mm"
     height="12.22455129mm"
     viewBox="0.00000000 0.00000000 151.60290561 34.65222328">

<g transform="scale(4.52464543)">   <defs>
      <style type="text/css"><![CDATA[
      .a {
        stroke: #000;
        stroke-linecap: round;
        stroke-linejoin: round;
        stroke-width: 0.01px;
      }
    ]]></style>
   </defs>
   <path class="a"
         d="M.912.10953A2.89433,2.89433,0,0,0,.24571.40632L.00949.57591l.00606.55724A2.172,2.172,0,0,0,.20331,2.25368a.20361.20361,0,0,1,.02423.24837,1.54657,1.54657,0,0,0-.0848.424.8886.8886,0,0,0,.3089.78135.96753.96753,0,0,0,.87826-.07269l.29073-.15748L2.11729,3.98a4.33977,4.33977,0,0,0,1.20533.9691,2.67669,2.67669,0,0,1,.4361.26045.74006.74006,0,0,0,.27256.15142,1.40555,1.40555,0,0,1,.34524.15748.68542.68542,0,0,0,.36342.12114.44253.44253,0,0,1,.2665.05451.86733.86733,0,0,0,.29073.09086.60231.60231,0,0,1,.28468.14536A1.95021,1.95021,0,0,0,6.236,6.2937a1.57614,1.57614,0,0,1,.30285.16353,1.60387,1.60387,0,0,0,.7026.33919,1.02944,1.02944,0,0,1,.3089.07874,1.31126,1.31126,0,0,0,.72683.03028,2.86782,2.86782,0,0,1,.3937-.03028A9.331,9.331,0,0,0,9.61575,6.857a2.08416,2.08416,0,0,0,.46032-.06057.15044.15044,0,0,1,.13931.01817.21536.21536,0,0,0,.19988-.01211.99778.99778,0,0,1,.27862-.0848,1.91025,1.91025,0,0,0,.8298-.20593.774.774,0,0,1,.33313-.12114,2.11952,2.11952,0,0,0,.53906-.212c.218-.11509.54512-.27862.72683-.36342.18171-.07874.47244-.2241.636-.3089.16959-.09086.46638-.24833.66626-.3513a1.69564,1.69564,0,0,0,.38158-.23622,2.23678,2.23678,0,0,1,.38159-.23016,1.1708,1.1708,0,0,0,.39975-.27257,2.32978,2.32978,0,0,1,1.01756-.46638.75893.75893,0,0,1,.18777.35736,2.11525,2.11525,0,0,0,.28467.58752c.109.13931.26651.36342.3513.49667.43.66626.50273.75711.61175.75711a4.7051,4.7051,0,0,1,1.08419.36342,1.24917,1.24917,0,0,1,.35736.30284.37355.37355,0,0,0,.27256.18171.41641.41641,0,0,1,.26044.12114.65167.65167,0,0,0,.36947.15142.78666.78666,0,0,1,.34525.09691c.09691.07874.24833.109.72077.13931a2.48069,2.48069,0,0,1,.52695.09691.42466.42466,0,0,0,.38159.01211.28732.28732,0,0,1,.27862-.01211.22171.22171,0,0,0,.23622,0,.23835.23835,0,0,1,.1817-.03029.261.261,0,0,0,.19382-.04239,4.66879,4.66879,0,0,1,1.25984-.0848,3.44244,3.44244,0,0,0,1.60508-.18171,1.99728,1.99728,0,0,1,.59358-.15748c.05451.01212.103-.00605.103-.0424a.34969.34969,0,0,1,.09085-.15142c.0848-.07874.15748-.0848.36341-.03028a2.09632,2.09632,0,0,0,.96911-.24834,4.39465,4.39465,0,0,1,.66626-.27861,1.37072,1.37072,0,0,0,.60569-.3513,3.78826,3.78826,0,0,1,.75712-.51484,2.76844,2.76844,0,0,0,.67837-.46638,1.92208,1.92208,0,0,1,.99333-.5633,1.0669,1.0669,0,0,1,.642.06663l.36342.11508.14537-.15748c.07874-.0848.17565-.13931.212-.12114.103.06663.21805-.15142.19988-.38764a1.06769,1.06769,0,0,0-.35131-.87219,1.55553,1.55553,0,0,0-.29073-.22411.26575.26575,0,0,1-.12114-.07874,4.61176,4.61176,0,0,0-.37552-.28467,3.48483,3.48483,0,0,1-.41187-.315.39337.39337,0,0,0-.15143-.109.92378.92378,0,0,1-.25439-.17565A.82236.82236,0,0,0,31.027,1.7086a2.12619,2.12619,0,0,1-.69655-.13326.66094.66094,0,0,0-.29073.02423c-.19382.05451-.25439.04846-.38764-.04845-.109-.0848-.18171-.09691-.25439-.05452a.749.749,0,0,1-.424-.006,2.25648,2.25648,0,0,0-1.16292.07874.32482.32482,0,0,1-.30285.02422.38556.38556,0,0,0-.32707.01212.71935.71935,0,0,1-.49061-.00606,2.987,2.987,0,0,0-1.11447-.09691,1.21122,1.21122,0,0,1-.47244-.09085,1.11163,1.11163,0,0,0-.854-.03634,1.63606,1.63606,0,0,1-.70865.103c-.0848-.006-.20594-.006-.27257-.006-.06662.006-.44821.01817-.848.03634-1.10842.05451-1.1387.05451-1.28407.01211a1.92758,1.92758,0,0,0-.47244-.103c-.03028,0-.37553.01212-.75711.02423a3.73638,3.73638,0,0,0-.8298.09086c-.13325.07268-.321.04239-.321-.05452,0-.03028-.09086-.109-.19382-.17565a1.264,1.264,0,0,0-1.01757-.01817,3.79071,3.79071,0,0,1-1.57479.0424,13.472,13.472,0,0,0-2.42277.00606,2.44272,2.44272,0,0,1-.60569-.0424,3.33052,3.33052,0,0,0-.48455-.07874c-.11508-.01211-.36341-.03634-.54512-.06057a3.70548,3.70548,0,0,0-.52695-.03634.8893.8893,0,0,1-.37553-.07874C10.918.98783,10.82109.95755,10.80292.98178A1.438,1.438,0,0,1,10.0337.94544a1.377,1.377,0,0,0-.58147-.103C9.15542.82425,8.81018.80605,8.683.794A.42071.42071,0,0,1,8.39831.697C8.34985.61831,8.15.61226,7.48977.66677a.74193.74193,0,0,1-.3089-.03634.1992.1992,0,0,0-.17565.00605.3074.3074,0,0,1-.2665-.04243A.7176.7176,0,0,0,6.28445.53957,3.53646,3.53646,0,0,1,5.90286.582c-.06057-.00606-.15748-.00606-.212-.00606A6.9326,6.9326,0,0,1,3.48007.47905,3.18555,3.18555,0,0,0,2.70481.32758a4.94463,4.94463,0,0,1-.848-.218A1.11958,1.11958,0,0,0,.912.10953Zm28.2676,3.13752c.0848.13325.07268.15142-.24833.49061a2.5235,2.5235,0,0,0-.36342.47244.85644.85644,0,0,1-.424.32707,1.233,1.233,0,0,0-.36342.22411,1.1698,1.1698,0,0,1-.212.2665c-.15748.15748-.24833.20594-.33313.18171-.06663-.02423-.12114-.01211-.12114.02423,0,.103-.19382.25439-.27862.2241-.04845-.01817-.08479-.00605-.08479.02423s-.07269.07874-.16354.09691a.86582.86582,0,0,0-.24228.09691,3.88932,3.88932,0,0,1-1.30223.0424.3318.3318,0,0,0-.24228,0,.35315.35315,0,0,1-.29073-.02423,1.83193,1.83193,0,0,0-.51484-.08479c-.34524-.01212-.92065-.04846-1.0115-.06057a.91482.91482,0,0,1-.212-.15748c-.30285-.26651-.20594-.212-1.04785-.636A3.068,3.068,0,0,1,21.17229,4.41a1.158,1.158,0,0,0-.38158-.20594.573.573,0,0,1-.33919-.24833c-.218-.35736-.0848-.43.81768-.44215a3.20948,3.20948,0,0,0,.78135-.07269.41977.41977,0,0,1,.30284-.01211,2.7703,2.7703,0,0,0,.67232.01817c.2665-.01817.55118-.03029.636-.02423a6.21024,6.21024,0,0,0,1.40521-.109,1.09578,1.09578,0,0,1,.5754.03028,1.08334,1.08334,0,0,0,.62386.02423,4.69562,4.69562,0,0,1,1.12053-.1272c.30285.00606.79952.01212.98728.00606a.75612.75612,0,0,0,.23016-.05451C28.73741,3.11982,29.119,3.1501,29.17957,3.24705ZM5.63636,3.34392c.13931.01212.41793.02423.6178.03634a.80312.80312,0,0,1,.4785.12114.35458.35458,0,0,0,.19988.103.48207.48207,0,0,1,.23016.09085.86351.86351,0,0,0,.3937.0848c.14537,0,.41793.01817.59963.03634a7.01389,7.01389,0,0,0,1.12053.0424,2.51236,2.51236,0,0,1,.30285,0,3.39315,3.39315,0,0,0,.45427-.03634,2.74225,2.74225,0,0,1,.81768-.03634,5.86347,5.86347,0,0,0,1.4052-.109,3.44236,3.44236,0,0,1,.69049-.06662c.47244-.00606.60569.00605.68443.08479.16959.1696-.01817.41793-.424.56935-.18171.07268-.41187.1696-.50878.218a2.08,2.08,0,0,1-.58752.12114c-.22411.01817-.5209.04845-.65415.06057-.4361.05451-.90854.09691-1.02968.09691a.35519.35519,0,0,0-.19382.06662.90783.90783,0,0,1-.36947.0848c-.15748.01212-.37553.03634-.48455.04846A1.01368,1.01368,0,0,1,8.895,4.87027a2.187,2.187,0,0,0-.55724-.15142c-.533-.04845-.66626-.06663-.7026-.103a.25381.25381,0,0,0-.18171.01817.75553.75553,0,0,1-.49061-.05451,3.424,3.424,0,0,1-1.066-.46032,1.39487,1.39487,0,0,0-.37553-.27256c-.3937-.22411-.49667-.36948-.35736-.50879.05451-.05451.1272-.07874.16354-.05451A1.281,1.281,0,0,0,5.63636,3.34392Z"/>

</g>
</svg>
