<?xml version="1.0" encoding="UTF-8"?>
<svg xmlns="http://www.w3.org/2000/svg"
     version="1.1"
     width="58.56246351mm"
     height="50.42890995mm"
     viewBox="0.00000000 0.00000000 166.00388843 142.94801992">

<g transform="scale(5.48693194)">   <defs>
      <style type="text/css"><![CDATA[
      .a {
        stroke: #000;
        stroke-linecap: round;
        stroke-linejoin: round;
        stroke-width: 0.01px;
      }
    ]]></style>
   </defs>
   <path class="a"
         d="M15.01937.05657a2.53662,2.53662,0,0,0-.43.20593.91463.91463,0,0,1-.32707.13326,1.833,1.833,0,0,0-.69049.56329.70719.70719,0,0,0-.15748.55118,1.793,1.793,0,0,1-.04846.45427c-.02422.03634.0424.17565.15143.3089a.76425.76425,0,0,0,.848.30284.42928.42928,0,0,1,.27862-.03028,3.30149,3.30149,0,0,0,.92671.09085c.15142,0,.32707.00606.3937.00606s.321.01211.56329.01211c.35736.01212.46033.03635.52695.1272a.18446.18446,0,0,1,.02423.2241,1.47762,1.47762,0,0,0-.07874.39976,2.43778,2.43778,0,0,1-.51484,1.13264.261.261,0,0,0-.09085.27256.64331.64331,0,0,1-.09691.41187,1.49944,1.49944,0,0,0-.17565.67232.59608.59608,0,0,1-.15142.22411c-.218.218-.41187.50878-.37553.56329.01817.03028-.04846.16959-.15143.321a5.13653,5.13653,0,0,0-.29678.52089c-.103.23622-.1696.29073-.321.2665-.02423-.00605-.01817.0424.01211.109.04846.09085.03029.16353-.08479.33313a.83735.83735,0,0,0-.15143.33313.93952.93952,0,0,1-.16353.3513c-.7026,1.0115-.90248,1.30829-.957,1.39915a8.23854,8.23854,0,0,1-.76923,1.12658,1.93821,1.93821,0,0,0-.28468.4361,2.27758,2.27758,0,0,1-.321.46638,5.30536,5.30536,0,0,0-1.00545,1.25984,1.3444,1.3444,0,0,1-.33919.46032,2.11716,2.11716,0,0,0-.3937.47244,7.358,7.358,0,0,1-.79345,1.12053c-.47244.55724-.54512.65415-.54512.72077a.9025.9025,0,0,1-.1696.26045,5.529,5.529,0,0,0-.36947.51484,2.2721,2.2721,0,0,1-.23622.33313,2.28915,2.28915,0,0,0-.2665.3513,2.3069,2.3069,0,0,1-.848.87219,2.27735,2.27735,0,0,0-.71471.739,4.27667,4.27667,0,0,1-.218.49061,1.58029,1.58029,0,0,0-.1818.539.79139.79139,0,0,1-.06663.3513.70489.70489,0,0,0-.01211.58752.60384.60384,0,0,0,.35736.48455c.26044.15748.29073.15748.72683.103a5.08856,5.08856,0,0,1,.60569-.04845c.08479,0,.50878.01211.95093.01817.67838.01211.81769.03634.92065.12719.1696.15142.59964.09691,1.01151-.12719a4.901,4.901,0,0,0,1.19926-.79346,3.47438,3.47438,0,0,1,.33314-.3513.65324.65324,0,0,0,.23016-.46032c.0424-.36948-.09086-.45427-.75106-.46033a2.50146,2.50146,0,0,1-.66626-.0848,1.6542,1.6542,0,0,0-.3513-.08479,2.60576,2.60576,0,0,1-1.78076-.86609c-.06057-.13931-.04846-.218.09085-.5209a6.13556,6.13556,0,0,1,.86614-1.3204,9.05822,9.05822,0,0,0,.98728-1.16293,1.98743,1.98743,0,0,1,.25439-.32707.287.287,0,0,0,.09691-.19988,2.04953,2.04953,0,0,1,.73288-1.07813,5.5446,5.5446,0,0,0,1.29013-1.5748,5.27541,5.27541,0,0,1,.37552-.46032,4.22442,4.22442,0,0,0,.44821-.59358,7.46288,7.46288,0,0,1,.45427-.6602,4.54225,4.54225,0,0,0,.69655-1.0963.753.753,0,0,1,.18171-.29073.8911.8911,0,0,0,.1817-.23622,1.65334,1.65334,0,0,1,.18171-.26651.8409.8409,0,0,0,.18171-.315,5.1952,5.1952,0,0,1,.3937-.76922,4.25192,4.25192,0,0,0,.3937-.79346,5.60139,5.60139,0,0,1,.751-1.54451,9.34268,9.34268,0,0,0,.533-.90854,3.29567,3.29567,0,0,1,.27256-.49666c.04846-.05452.07874-.1272.06057-.15143-.01817-.03028.01817-.13325.0848-.23622a.75492.75492,0,0,0,.11508-.2665A3.28659,3.28659,0,0,1,18.92,2.74584a.85537.85537,0,0,1,.3513-.01212.78023.78023,0,0,0,.41193-.03029c.29073-.15748.5209.19382.33919.533a1.85415,1.85415,0,0,0-.04849,1.10843.65506.65506,0,0,1,.0424.315A.32715.32715,0,0,0,20.0708,4.89a.60212.60212,0,0,1,.06057.41187c-.01211.15143-.02422.321-.02422.37553.006.13931.006.27256.006.36342A2.90159,2.90159,0,0,0,20.307,6.913c.13326.3937.13931.44821.06057.61175-.07874.16959-.07268.20593.07269.50272a.87737.87737,0,0,1,.12719.36342c-.01817.02423.05451.15142.15142.27256a.92872.92872,0,0,1,.18171.29679.86926.86926,0,0,0,.212.29679c.19382.20593.24228.29678.218.43a4.75045,4.75045,0,0,0,.29679.66626,4.45688,4.45688,0,0,0,.642.97516c.18777.19382.40582.44821.49061.55723a.45325.45325,0,0,0,.28468.19383,1.4023,1.4023,0,0,1,.29073.04239c.27256.06663.44215-.09085.50878-.47849a1.11442,1.11442,0,0,0,.01211-.46638c-.109-.29074.18171-.49667.49061-.33919a.69861.69861,0,0,0,.90248-.22411c.212-.23016.16354-.46032-.13931-.62991a.98722.98722,0,0,0-.33313-.13326.73775.73775,0,0,1-.16353,0,1.11568,1.11568,0,0,1-.35737-.642.23528.23528,0,0,0-.09085-.18776.97956.97956,0,0,1-.18777-.33919.96407.96407,0,0,0-.41793-.49667,3.40942,3.40942,0,0,1-1.0539-1.23561c-.02423-.13325-.07268-.2241-.55723-.957a2.14255,2.14255,0,0,1-.50273-1.58085.88493.88493,0,0,0-.15142-.59964c-.09085-.13325-.13931-.2665-.11508-.321.0424-.109.11508-.321.18776-.58147a.71332.71332,0,0,1,.30294-.34527c.37553-.25439.3937-.38764.07874-.6602a.66406.66406,0,0,1-.26654-.3695.878.878,0,0,0-.2665-.69049C21.07022.747,21.03994.747,20.80372.83788c-.23622.0848-.2665.0848-.424-.02423A4.05055,4.05055,0,0,0,19.453.29882c-.05449-.01209-.20592-.04839-.33912-.08477a1.386,1.386,0,0,0-.33313-.06057c-.04845.00606-.62386.01211-1.272.02423a5.532,5.532,0,0,1-1.381-.06057,1.07173,1.07173,0,0,0-.33313-.0848c-.07269,0-.23017-.01211-.34525-.02423A1.1766,1.1766,0,0,0,15.01937.05657Z"/>
   <path class="a"
         d="M28.92.49872a.86928.86928,0,0,0-.40581.23622.92356.92356,0,0,1-.30891.20594c-.1817,0-.67837.90853-.58752,1.07813a.56722.56722,0,0,1,.03029.25439,1.3495,1.3495,0,0,0-.02423.24227,4.53579,4.53579,0,0,1-.00606.69655,1.66336,1.66336,0,0,0,.03029.321.54908.54908,0,0,1-.07268.46032c-.07269.12114-.103.23622-.07269.28468a.1857.1857,0,0,1,.00606.16959,2.46313,2.46313,0,0,0,0,.98728.33728.33728,0,0,1-.00606.25439.48586.48586,0,0,0,.00606.33313.4364.4364,0,0,1-.02423.37552.41813.41813,0,0,0-.00605.38765,1.48275,1.48275,0,0,1,.07873.51483,4.71849,4.71849,0,0,0,.03635.60569A4.504,4.504,0,0,1,27.60563,8.936a2.17228,2.17228,0,0,0,.07268.57541,4.24369,4.24369,0,0,1,.103.54512,3.39042,3.39042,0,0,1-.00606.848,7.67438,7.67438,0,0,0,0,1.18109c.01817.28468.03029.58147.03029.66626a1.71807,1.71807,0,0,0,.08479.3937c.07874.212.07874.26045,0,.38159-.04845.07268-.07873.15748-.06056.1817a14.72446,14.72446,0,0,1,.09691,1.79285,1.27379,1.27379,0,0,1-.05452.3937.55433.55433,0,0,0-.03028.27862,10.57447,10.57447,0,0,1,0,1.5324.54823.54823,0,0,0,.04845.3089c.06663.20593.06663.26044,0,.36341-.07268.09691-.06662.16354.01818.4361.05451.18171.103.35736.11508.38764a1.43724,1.43724,0,0,0,.16353.29073,2.36272,2.36272,0,0,1,.17565.29074.42464.42464,0,0,0,.24229.09085c.27862.04845.59358-.15142.59358-.36947a.94655.94655,0,0,1,.05451-.28468c.03028-.07874.11508-.34524.18776-.59357s.1817-.61781.24227-.81769a2.174,2.174,0,0,0,.09086-.848,1.07987,1.07987,0,0,1,.07268-.636c.07874-.11508.103-.33313.103-.99939a3.05521,3.05521,0,0,1,.14538-1.21744,3.67986,3.67986,0,0,0,.13324-1.4476c-.006-.103,0-.57541.00606-1.24167v-.48455c-.00606-.39976-.00606-1.95638,0-2.21077a3.02125,3.02125,0,0,0-.03029-.3937c-.03634-.19988-.103-.80557-.109-.93882,0-.03634.01817-.4361.03635-.89037a2.51445,2.51445,0,0,0-.06067-1.08414c-.09691-.23621-.09691-.26044.00606-.44821a.42994.42994,0,0,0,.06057-.27861,2.13111,2.13111,0,0,1-.06663-.5633,3.03107,3.03107,0,0,0-.13931-.99939.7865.7865,0,0,1-.03028-.34524.45935.45935,0,0,0-.0424-.27862,2.9295,2.9295,0,0,1-.09085-.87219,4.09486,4.09486,0,0,0-.09086-.89643C29.58624.54112,29.30156.45633,28.92.49872Z"/>
   <path class="a"
         d="M11.92429,1.86759a4.45688,4.45688,0,0,0-.48455.29678,4.13257,4.13257,0,0,1-.59964.33919,1.66655,1.66655,0,0,0-.49666.33313,3.237,3.237,0,0,1-.93882.89037.17456.17456,0,0,0-.16354.12114.74874.74874,0,0,1-.27862.27861,5.31184,5.31184,0,0,0-1.08419,1.06c0,.03029-.09085.09691-.19382.14537a1.10768,1.10768,0,0,0-.35735.25439c-.0848.09085-.22411.23016-.30285.30284-.16959.15748-.23622.22411-.70866.70866a5.12725,5.12725,0,0,1-.6602.55724,2.26332,2.26332,0,0,0-.53907.50878,1.41417,1.41417,0,0,1-.26044.30284,6.62167,6.62167,0,0,0-.79346.77529,1.4801,1.4801,0,0,0-.36341.58146c0,.1696-.28468.40581-.4361.36947-.11508-.03028-.16354.00606-.27862.22411a1.72863,1.72863,0,0,0-.15748.46032.661.661,0,0,1-.11508.30285c-.05451.05451-.15142.16354-.218.23622a.23618.23618,0,0,1-.218.103c-.07874-.03029-.09085-.01212-.06057.103.02423.109-.01817.22411-.14536.41793a1.07491,1.07491,0,0,0-.18777.40581.83139.83139,0,0,1-.212.37553,3.28245,3.28245,0,0,0-.60569,1.21138c.01817.03029-.03634.13931-.12114.23622a3.75553,3.75553,0,0,0-.49061.90854.73371.73371,0,0,1-.109.22411.53592.53592,0,0,0-.09691.23016,1.21507,1.21507,0,0,1-.12114.315c-.17565.33918-.15748.59963.0424.75711a.33224.33224,0,0,0,.29073.09086.83934.83934,0,0,1,.24222-.0365c.3513.01817.49061-.13325.55117-.6178a1.37924,1.37924,0,0,1,.14537-.45427.81568.81568,0,0,0,.12114-.29679,5.7606,5.7606,0,0,1,.745-1.57479,1.33666,1.33666,0,0,0,.19988-.41793,1.65237,1.65237,0,0,1,.212-.47244,1.16868,1.16868,0,0,0,.18171-.36947,1.65073,1.65073,0,0,1,.35735-.51484,1.12588,1.12588,0,0,0,.30285-.3937A4.85138,4.85138,0,0,1,4.64389,9.39632,3.681,3.681,0,0,0,5.05576,8.827a1.65936,1.65936,0,0,1,.27255-.37555,6.04849,6.04849,0,0,0,.96911-1.01151.62229.62229,0,0,1,.24833-.23016,2.47032,2.47032,0,0,0,.51484-.424,3.40573,3.40573,0,0,1,.64809-.5209,1.10562,1.10562,0,0,0,.62386-.59963,1.93138,1.93138,0,0,1,.80557-.7874,1.28331,1.28331,0,0,0,.315-.24228,1.992,1.992,0,0,1,.36342-.27861c.19987-.13326.36341-.27862.36341-.33919,0-.20594.0848-.30285.44821-.48455a1.93544,1.93544,0,0,0,.44216-.29074.75467.75467,0,0,1,.26044-.1817c.09691-.0424.18171-.09691.18171-.1272s.11508-.109.26045-.17565a2.57518,2.57518,0,0,0,.89036-.81162c0-.04846-.06662-.103-.14536-.12114a2.2573,2.2573,0,0,1-.23017-.06663A.93632.93632,0,0,0,11.92429,1.86759Z"/>
   <path class="a"
         d="M17.38762,17.53681a.1397.1397,0,0,1-.13325.01817.19152.19152,0,0,0-.15142.04846.81191.81191,0,0,1-.40581.09085,2.83359,2.83359,0,0,0-2.17444,1.12659c-.14536.14536-.30284.29073-.34524.33313-.3937.36947-.46032.5754-.29073.89036.103.19382.23622.23017.77528.23622a2.64707,2.64707,0,0,0,.99939-.109,2.02307,2.02307,0,0,1,.82374-.17565.46764.46764,0,0,0,.25439-.03029,2.3653,2.3653,0,0,1,.47244-.08479,1.16186,1.16186,0,0,0,.34525-.06663,5.30885,5.30885,0,0,1,.81162-.06663c.41187-.01211.92065-.04239,1.1387-.06662a4.20626,4.20626,0,0,1,.54512-.03029,7.00867,7.00867,0,0,0,.848.01817c1.95638.00606,1.93821.01212,2.08358-.41792a2.21925,2.21925,0,0,1,.27862-.51484.4694.4694,0,0,0,.14536-.321,1.47563,1.47563,0,0,0-.6602-.45426.81284.81284,0,0,1-.26045-.07874,2.10838,2.10838,0,0,0-1.22955.04845c-.26651.103-.28468.103-.636-.0121a3.01015,3.01015,0,0,0-.94488-.1272,2.57711,2.57711,0,0,1-.7026-.06662.88689.88689,0,0,0-.3513-.05452,2.27344,2.27344,0,0,1-.48455-.06662.74191.74191,0,0,0-.34524-.03029.28158.28158,0,0,1-.20594-.03028A.23229.23229,0,0,0,17.38762,17.53681Z"/>
   <path class="a"
         d="M22.17258,23.47258a.06634.06634,0,0,0,.06663.06057c.03028,0,.0424-.03028.02423-.06057-.01818-.03634-.04846-.06057-.06663-.06057C22.1847,23.412,22.17258,23.43624,22.17258,23.47258Z"/>
   <path class="a"
         d="M21.90608,25.88929c-.0424.06663.109.19988.16353.14537a.171.171,0,0,0,.0424-.12114C22.112,25.82266,21.95453,25.80449,21.90608,25.88929Z"/>

</g>
</svg>
