<?xml version="1.0" encoding="UTF-8"?>
<svg xmlns="http://www.w3.org/2000/svg"
     version="1.1"
     width="47.17672089mm"
     height="39.08450620mm"
     viewBox="0.00000000 0.00000000 133.72927132 110.79078106">

<g transform="scale(4.29680440)">   <defs>
      <style type="text/css"><![CDATA[
      .a {
        stroke: #000;
        stroke-linecap: round;
        stroke-linejoin: round;
        stroke-width: 0.01px;
      }
    ]]></style>
   </defs>
   <path class="a"
         d="M13.79449.04785a1.29507,1.29507,0,0,0-.46032.13931.32145.32145,0,0,1-.24834.06057A2.9516,2.9516,0,0,0,11.66852.811a.43136.43136,0,0,1-.25439.13931,1.07929,1.07929,0,0,0-.37553.15142,1.11669,1.11669,0,0,1-.38764.15143c-.18171,0-.75712.26044-.75712.34524,0,.16959-.59963.64809-.76923.61781-.19987-.03029-.41187.16353-.46638.43609a.333.333,0,0,1-.18776.24834c-.0848.03634-.15142.09691-.15142.13325a2.49206,2.49206,0,0,1-.50273.72077.82428.82428,0,0,0-.25439.56329c-.01817.29074-.13325.44821-.321.44821-.05452,0-.07269.03635-.04846.09692.01817.05451-.02423.15142-.11508.24227a.56619.56619,0,0,0-.15142.20594,1.4925,1.4925,0,0,1-.212.32707,1.24253,1.24253,0,0,0-.212.36947A3.02679,3.02679,0,0,1,6.01136,7.0133c-.12719.15748-.16959.27256-.14536.3513a.24233.24233,0,0,1-.0848.24228.3328.3328,0,0,0-.103.30284.61052.61052,0,0,1-.13325.40581c-.13931.20594-.15142.28468-.16354.99939-.00605.59358-.03634.80557-.103.89037a1.04126,1.04126,0,0,0,.07874.90854.59237.59237,0,0,1,.11508.26044.19209.19209,0,0,0,.06057.14537,1.98521,1.98521,0,0,1,.38158.86008c-.02423.06663-.01817.0848.03029.05451.06662-.03634.43609.29679.43609.3937,0,.01817.06663.06663.15143.103a.67994.67994,0,0,1,.25439.29073,1.14065,1.14065,0,0,0,.89047.52688,1.16856,1.16856,0,0,1,.46033.1696c.17565.13325.25439.14536.86614.14536.73894,0,.75711-.00606.98727-.39975.1272-.212.1272-.218.01817-.424a.60255.60255,0,0,1-.07268-.34524.27967.27967,0,0,0-.09085-.27256,2.52853,2.52853,0,0,1-.28468-.49667c-.08479-.19988-.19382-.424-.23016-.50272a1.11757,1.11757,0,0,1-.06057-.3937.917.917,0,0,0-.0424-.33919.52455.52455,0,0,1,.06663-.33313c.06662-.15142.09085-.27862.05451-.33313A.3035.3035,0,0,1,9.3851,9.963a.3683.3683,0,0,0,.02423-.32707.54532.54532,0,0,1-.02428-.29068,1.23693,1.23693,0,0,0,.06057-.24833,3.23884,3.23884,0,0,1,.09085-.3937,4.12781,4.12781,0,0,0,.0848-.69655,2.30947,2.30947,0,0,1,.0848-.59358.38321.38321,0,0,0,.03634-.2241c-.01817-.02423.01817-.109.0848-.18777.09691-.12719.103-.15748.03028-.33918-.0848-.19382-.07874-.20594.1272-.4361A1.09347,1.09347,0,0,0,10.227,5.808c.01817-.1817.25439-.55723.33919-.55723.02423,0,.06057-.07269.07874-.15748a.51227.51227,0,0,1,.218-.25439.51413.51413,0,0,0,.218-.20594.73259.73259,0,0,1,.54512-.32707.27622.27622,0,0,0,.218-.04846.266.266,0,0,1,.20593-.05451.44464.44464,0,0,0,.26045-.0424.31654.31654,0,0,1,.28467-.01211.28072.28072,0,0,0,.26045,0,2.91441,2.91441,0,0,1,.73289-.05451,5.963,5.963,0,0,0,1.58691-.01817.18668.18668,0,0,1,.212.06662c.06663.06663.14537.109.18171.09691a1.537,1.537,0,0,1,.7026.36342.81514.81514,0,0,0,.36341.18776,1.277,1.277,0,0,1,.46639.24834.97043.97043,0,0,0,.3089.212.80222.80222,0,0,1,.29073.2665c.06663.103.16959.24833.22411.321.09085.12719.09085.15142,0,.29073a1.26466,1.26466,0,0,1-.39976.30285,2.83128,2.83128,0,0,0-.46638.30284c-.61781.56935-.66626.65415-.5209.95094.04846.09691.06663.16959.04846.16959s-.00606.05451.03028.12114a.247.247,0,0,0,.21819.1212.48.48,0,0,1,.29679.15747c.0848.09086.15142.13931.15142.11509s.07269,0,.15748.06057a.43846.43846,0,0,0,.29073.06662.30659.30659,0,0,1,.212.02423.60132.60132,0,0,0,.38158-.06668.85707.85707,0,0,1,.37553-.07874.86024.86024,0,0,0,.41793-.15142,1.76014,1.76014,0,0,1,.41187-.18776.99674.99674,0,0,0,.3089-.12114.55476.55476,0,0,1,.3089-.0848A2.74764,2.74764,0,0,0,21.19,7.22529a3.86792,3.86792,0,0,1,.7026-.56935.121.121,0,0,0,.05451-.109.54259.54259,0,0,1,.15748-.24834.59156.59156,0,0,0,.18171-.43609c.03634-.5209.06663-.67838.13325-.745a.30507.30507,0,0,0,.07269-.19383,1.947,1.947,0,0,1,.08479-.35735.83014.83014,0,0,0-.13325-.76923,1.54066,1.54066,0,0,1-.41187-.642.84326.84326,0,0,0-.19988-.34525,2.33468,2.33468,0,0,1-.3089-.46032c-.0424-.103-.09691-.18777-.12114-.18777a1.83616,1.83616,0,0,1-.33919-.23016.98489.98489,0,0,0-.79951-.27862.5882.5882,0,0,1-.52089-.2241,2.1697,2.1697,0,0,0-.848-.53907,2.27489,2.27489,0,0,1-.88431-.43c0-.0424-.04845-.05451-.12719-.03634A.24959.24959,0,0,1,17.6527.35079,1.00891,1.00891,0,0,0,16.6049.19927a.846.846,0,0,1-.76923-.08479A7.24224,7.24224,0,0,0,13.79449.04785Z"/>
   <path class="a"
         d="M14.50315,7.65533a1.31574,1.31574,0,0,0-.28467.23016,1.30663,1.30663,0,0,1-.82374.35736c-.18777.03634-.26045.09691-.50273.44821a4.29775,4.29775,0,0,1-.94488,1.13264c-.1393.04846-.20593.19988-.35735.80557a1.722,1.722,0,0,1-.19988.54513.16228.16228,0,0,0-.03634.212.1978.1978,0,0,1,.02423.16959.11843.11843,0,0,0,.03028.13931.57754.57754,0,0,1,.05451.53906c-.06057.14537-.05451.18171.03634.24834a1.30778,1.30778,0,0,1,.103.99939,9.00745,9.00745,0,0,0,0,1.85341,1.89034,1.89034,0,0,1-.09085.86008c-.0848.19988-.09086.29074-.0424.38159a.45358.45358,0,0,1,.01211.315.35883.35883,0,0,0,.06663.36341,3.17536,3.17536,0,0,1,.15748,1.42338v.24227c0,.09691.00606.35736.00606.59358.00605.23016.01211.527.01211.64809v.36341a2.41522,2.41522,0,0,1-.09691.642.59118.59118,0,0,1-.50878.30284.50647.50647,0,0,0-.23016.05451,1.44458,1.44458,0,0,1-.81769-.01211.61109.61109,0,0,0-.35735.03029c-.11509.06056-.16354.05451-.29679-.0424a1.428,1.428,0,0,0-.67232-.23622c-.0848-.00606-.27256-.03029-.424-.04846s-.315-.03028-.36342-.03028H7.54376a1.33621,1.33621,0,0,0-.41793.0424.48571.48571,0,0,1-.315.006,3.09869,3.09869,0,0,0-.59358-.05451c-.212.00606-.43.00606-.48455.00606a7.03257,7.03257,0,0,0-1.25984.07874,2.17675,2.17675,0,0,1-.79346.01817,2.30456,2.30456,0,0,1-.6178-.09691.245.245,0,0,0-.24834-.01212c-.12719.07269-.29073.07874-.87825.0424a1.35113,1.35113,0,0,0-.68443.09086,1.55421,1.55421,0,0,1-.27862.103c-.07268-.03634-.36341.13931-.55723.33919-.24834.26045-.47244.7874-.3937.94488a3.08463,3.08463,0,0,1,.02423.68443l-.01212.59358.212.212c.20594.20593.20594.218.109.36947-.103.15142-.09691.15748.12719.38764a3.46356,3.46356,0,0,0,.59358.45427c.38159.22411.40581.23016,1.00545.09085a1.31253,1.31253,0,0,1,.80569.06661.238.238,0,0,0,.212-.00606.77444.77444,0,0,1,.41793,0A.56875.56875,0,0,0,4.0187,25.493a.8781.8781,0,0,1,.7874-.01211c.13931.07268.15748.07268.82374-.212a.50083.50083,0,0,1,.41792,0,1.75182,1.75182,0,0,0,.44822.09691,1.24781,1.24781,0,0,1,.3089.06057,1.27684,1.27684,0,0,0,.424-.01211c.66626-.109.8722-.109,1.01151-.01817a.662.662,0,0,0,.59963.02423.27752.27752,0,0,1,.32707.04845.26862.26862,0,0,0,.30285.06057,2.22294,2.22294,0,0,1,.54512-.08479,9.6384,9.6384,0,0,0,1.21138-.11509,4.42581,4.42581,0,0,1,1.12053-.01817,1.07,1.07,0,0,0,.56935-.09085c.212-.09085.29073-.103.41187-.04846a.279.279,0,0,0,.24833.01212.9798.9798,0,0,1,.43,0c.24834.03634.35131.03027.46033-.0424a.48831.48831,0,0,1,.39976-.04241,1.20506,1.20506,0,0,0,.32707.02423,4.84932,4.84932,0,0,1,1.51423-.06057,1.48663,1.48663,0,0,0,.51483-.01817,5.30758,5.30758,0,0,1,1.86553.06057.437.437,0,0,0,.30285.0424.37722.37722,0,0,1,.28467.05452.23743.23743,0,0,0,.212.0424.73067.73067,0,0,1,.30285-.02423,7.19485,7.19485,0,0,0,1.12053.00606,2.34815,2.34815,0,0,1,.7874.04845c.66626.26651,1.07813.3089,1.387.15143.18776-.09692.26045-.109.36341-.05452a1.55348,1.55348,0,0,0,.8722.05452c.09085-.04846.20593-.03635.47244.06056.68443.24228,1.16292.34525,1.19321.26651A2.34108,2.34108,0,0,1,27.4589,25.384a1.67735,1.67735,0,0,1,.45427.0424,6.57773,6.57773,0,0,0,1.12053.14536,1.33064,1.33064,0,0,0,.86614-.321,1.081,1.081,0,0,1,.27861-.19382,1.58111,1.58111,0,0,0,.43-.36341,1.67863,1.67863,0,0,1,.36948-.33919c.13931-.06662.16353-.109.12113-.18776a.39858.39858,0,0,1-.006-.25439.79253.79253,0,0,0-.11508-.50878c-.14537-.321-.25439-.41187-.49061-.4361a1.96457,1.96457,0,0,1-.424-.218,5.52866,5.52866,0,0,0-1.45366-.69049c-.109.06663-.533-.23622-1.18109-.86008a3.00868,3.00868,0,0,0-.87825-.62992,1.36593,1.36593,0,0,0-.9994.07269,2.289,2.289,0,0,1-.51483.15748.66637.66637,0,0,0-.27256.07874,1.0849,1.0849,0,0,1-.70866.17564.22673.22673,0,0,0-.1696-.02422c-.03028.01817-.109-.01817-.17565-.0848s-.12719-.103-.14536-.09086a.31005.31005,0,0,1-.13931.05451c-.06663.01211-.21805.05451-.3513.08481a.7188.7188,0,0,1-.3937,0c-.4361-.16354-.79346-.92066-.58146-1.24774.09085-.13324.09085-.15142-.03635-.25439a.47714.47714,0,0,1-.15747-.34524,1.28542,1.28542,0,0,0-.13326-.6178.23427.23427,0,0,1-.01211-.24227c.0424-.07268.03028-.13325-.0424-.212-.09691-.11509-.109-.20594-.15748-1.5748a7.21352,7.21352,0,0,0-.06662-.89037,1.89657,1.89657,0,0,1-.06057-.43609c-.01817-.212-.04846-.46639-.06663-.5633a1.87945,1.87945,0,0,1-.03028-.36341c.006-.103.01817-.33313.02422-.51484a2.23991,2.23991,0,0,1,.06057-.46638c.06663-.17565-.08479-.45428-.33313-.642-.17565-.1272-.25439-.1393-.71471-.1272-.28468.01213-.64809.03029-.81163.05451a1.88548,1.88548,0,0,0-1.00545.51485.372.372,0,0,1-.16353.14537,1.2282,1.2282,0,0,0-.41187.58146.91113.91113,0,0,1-.1696.23622.24707.24707,0,0,0-.103.16959,2.66685,2.66685,0,0,1-.20594.49061,3.54162,3.54162,0,0,0-.24227.5633,1.81669,1.81669,0,0,1-.15143.40581.64612.64612,0,0,0-.09085.33313.657.657,0,0,1-.09691.34524c-.07268.13931-.11508.26651-.09691.28468s.006.07873-.02423.13931c-.03634.07268-.01817.16959.06663.32707.12113.22411.12113.23016.006.424-.07268.12114-.09691.23017-.06662.28468a.20692.20692,0,0,1,0,.16959.56893.56893,0,0,0,.006.321.83675.83675,0,0,1,.01212.36342.25016.25016,0,0,0,.0424.20594,3.7495,3.7495,0,0,1,.04845,1.39914.716.716,0,0,0,.00606.4361c.07874.30285.01211.45426-.24228.54512-.15748.05452-.20593.0424-.30284-.05451-.06663-.06662-.1272-.13932-.1272-.16959a7.36317,7.36317,0,0,1-.04845-.8298,3.93589,3.93589,0,0,0-.03029-.99939,1.88741,1.88741,0,0,1-.03028-.854.14483.14483,0,0,0-.01817-.16354.50892.50892,0,0,1-.0848-.2665c-.01211-.109-.03634-.3513-.05451-.533a3.46065,3.46065,0,0,1-.03029-.51483,4.16984,4.16984,0,0,0-.01817-.84191.89334.89334,0,0,1,.02423-.35736.30461.30461,0,0,0-.01211-.26044,1.07518,1.07518,0,0,1-.109-.66021c.00606-.16959.00606-.36947.00606-.45427a.66936.66936,0,0,1,.06662-.27256,12.5868,12.5868,0,0,0,.07874-1.72622,11.28855,11.28855,0,0,1,.0848-1.81707c.03634-.11508.07874-.2665.09085-.33313s.0424-.18776.06057-.27256a2.67847,2.67847,0,0,0,.06057-.30285,1.61854,1.61854,0,0,1,.03634-.212.744.744,0,0,0-.11508-.3089.601.601,0,0,1-.09085-.29073c.04845-.04846-.4361-.5209-.533-.5209a.52152.52152,0,0,1-.2241-.16959C15.06644,7.75224,14.70305,7.58265,14.50315,7.65533Z"/>

</g>
</svg>
