<?xml version="1.0" encoding="UTF-8"?>
<svg xmlns="http://www.w3.org/2000/svg"
     version="1.1"
     width="31.64687924mm"
     height="39.12990173mm"
     viewBox="0.00000000 0.00000000 89.70765338 110.91945208">

<g transform="scale(6.22744503)">   <defs>
      <style type="text/css"><![CDATA[
      .a {
        stroke: #000;
        stroke-miterlimit: 10;
        stroke-width: 0.15px;
      }
    ]]></style>
   </defs>
   <path class="a"
         d="M.09955,5.44023c-.22493-.28379,1.16781-1.72471,1.242-1.80093A15.36055,15.36055,0,0,1,3.94982,1.59,8.05144,8.05144,0,0,1,6.37176.22374c.4877-.12684,3.67226-.25906,3.85027,0,.33341.48524-.33412,1.59454-.86942,2.48406a4.57128,4.57128,0,0,0-.6831,1.30411,5.7252,5.7252,0,0,0-.06212,1.42832c-.04861,1.44137.19994,3.1916.55891,3.29136.6071.16871,1.20463-.73929,1.36621-.621.1844.135-.22007,1.5914-1.36621,2.29774-.38865.23951-2.99028.81442-3.35344,1.05572-.62952.41828-.57541.85759-1.17994,1.11781a1.52881,1.52881,0,0,1-1.242,0,1.82028,1.82028,0,0,1-.74519-1.36622A4.0644,4.0644,0,0,1,2.832,9.2284,5.19312,5.19312,0,0,1,3.453,7.738c.38835-.608,4.99525-4.80727,4.84389-5.0923-.15256-.28729-1.11606-.10872-3.043.24841A17.84789,17.84789,0,0,0,2.211,4.13612c-.16607.25775-.13677.43138-.37263.68311a1.78015,1.78015,0,0,1-.74455.42632C.695,5.3975.21162,5.58164.09955,5.44023Z"/>
   <path class="a"
         d="M9.53889,8.17269c.31627-.38038.339-.30947.86942-.86942.89774-.94768,1.0985-1.43132,1.30413-1.36623a11.49391,11.49391,0,0,1,0,2.91875c-.245.488-.46016.35914-.74522.86942-.29712.53183-.13157.794-.49679,1.49043-.08177.15591-1.098,1.349-1.55253,1.17993-.34048-.12665-.57286-1.69182-.37263-2.42195A4.696,4.696,0,0,1,9.53889,8.17269Z"/>
   <path class="a"
         d="M2.15627,15.86011c-.06926-.15481.07709-.43061,1.23461-1.41521a16.22546,16.22546,0,0,1,2.98088-2.23565,15.39483,15.39483,0,0,1,5.2786-1.242,5.27228,5.27228,0,0,1,1.30413.1242c.97221.14463,1.15564.29068,1.242.37261.36088.34238-.06672,2.8327-.59311,3.68639a12.89457,12.89457,0,0,0-.77314,1.34379c-.36271.798-.37753,1.23344-.55891,1.242-.19514.00924-.63064-.498-.49679-.99362.09329-.34542.99819-1.67314.80731-2.11143a1.44494,1.44494,0,0,0-.55891-.621c-.64441-.42-4.52417-.3206-5.1544,0-.25913.13183-2.13534,1.5479-2.60826,1.73884C3.42332,16.087,2.30027,16.18185,2.15627,15.86011Z"/>

</g>
</svg>
