<?xml version="1.0" encoding="UTF-8"?>
<svg xmlns="http://www.w3.org/2000/svg"
     version="1.1"
     width="16.55353875mm"
     height="43.20232867mm"
     viewBox="0.00000000 0.00000000 46.92338913 122.46323489">

<g transform="scale(4.77010110)">   <defs>
      <style type="text/css"><![CDATA[
      .a {
        stroke: #000;
        stroke-linecap: round;
        stroke-linejoin: round;
        stroke-width: 0.01px;
      }
    ]]></style>
   </defs>
   <path class="a"
         d="M7.352.0898c-.06057.109-.49666.36341-.54512.321-.01817-.02422-.09085,0-.16354.04846a.64634.64634,0,0,1-.321.09085,2.05511,2.05511,0,0,0-.9146.49667,1.53441,1.53441,0,0,1-.56329.50272.81913.81913,0,0,0-.29073.1696,2.25684,2.25684,0,0,1-.315.24833.703.703,0,0,0-.23622.27862.43583.43583,0,0,1-.19382.21805c-.06663.01817-.103.07268-.0848.12113.0424.11508-.12719.26651-.29679.26651-.103,0-.17565.05451-.24227.17565a1.25031,1.25031,0,0,1-.3089.3513,1.03329,1.03329,0,0,0-.315.38158,1.46985,1.46985,0,0,1-.29074.41187.82007.82007,0,0,0-.20593.25439c0,.03029-.04846.06663-.11508.09086a.96881.96881,0,0,0-.28468.3937,1.34847,1.34847,0,0,1-.212.36341.83047.83047,0,0,0-.19988.27256,1.14782,1.14782,0,0,1-.29679.33919c-.1393.07268-.34524.28467-.34524.3513A.32363.32363,0,0,0,.6652,6.3587c.06663.103-.006.27862-.1817.44821a1.599,1.599,0,0,0-.27257.7026.269.269,0,0,1-.109.13931C.02923,7.68516.005,7.79419.005,8.03041c0,.2665.01817.33313.11508.36341a.35614.35614,0,0,1,.18171.218A.39681.39681,0,0,0,.532,8.85415a.95.95,0,0,1,.34525.2665.50693.50693,0,0,0,.321.212,1.2662,1.2662,0,0,1,.36342.09086,1.72472,1.72472,0,0,0,1.07813,0,1.48962,1.48962,0,0,1,.3513-.09086c.05451,0,.103-.02423.103-.05451a1.38348,1.38348,0,0,1,.81163-.23622.50143.50143,0,0,1,.212.527c-.04845.11508-.03028.16959.06663.26045a.25276.25276,0,0,1,.09691.218,2.96835,2.96835,0,0,0-.00606.89036c.02423.23017.0424.55724.04846.72683a1.77936,1.77936,0,0,0,.05451.36947,1.062,1.062,0,0,1-.09691.46033,1.48525,1.48525,0,0,0-.11508.53906.38454.38454,0,0,1-.09086.29679.37779.37779,0,0,0-.07268.36947.46412.46412,0,0,1-.0424.36342,1.63954,1.63954,0,0,0-.11508.70866c-.01817.321-.03634.65414-.05451.73894-.07874.49061-.0848.60569-.03634.60569.103,0,.13325.19988.04845.32707a1.18952,1.18952,0,0,0-.09691.4785,2.139,2.139,0,0,1-.06662.50272.43708.43708,0,0,0,.03028.36342.539.539,0,0,1-.12114.61175,1.06525,1.06525,0,0,0,0,.75711.29747.29747,0,0,1-.02423.22411,1.80144,1.80144,0,0,0-.103.50272c-.01817.212-.04846.46032-.06057.56329-.07874.48455.03028,1.54451.15748,1.54451.02423,0,.07268.06663.109.14537a.21659.21659,0,0,1-.01211.25439c-.06663.0848-.06057.12114.03634.218.11508.11508.11508.12114-.00606.315a.40266.40266,0,0,0-.06662.40581,1.67533,1.67533,0,0,1,.06057.43c0,.12114.01817.23016.04845.24228a1.1218,1.1218,0,0,1,.37553.56329.17663.17663,0,0,0,.11508.18171.2541.2541,0,0,1,.15748.15748c.02423.06057.07268.11508.11508.11508a.5001.5001,0,0,1,.218.12114.48371.48371,0,0,0,.22411.12114.37341.37341,0,0,1,.19382.11508,1.63747,1.63747,0,0,0,.54512.21805c.41187.09691.44215.09691.69049,0a2.24133,2.24133,0,0,1,.67231-.11509c.33313-.006.43-.03028.49667-.12719.04846-.06663.1272-.16354.16959-.218a.77394.77394,0,0,0,.1272-.23016c.04845-.16354.30284-.33313.424-.29073.22411.09085.73289-.35736,1.21139-1.06a.94271.94271,0,0,1,.2665-.28468c.09085-.04845.11508-.12114.103-.27862a2.13143,2.13143,0,0,1,.02422-.47244c.07269-.36341-.13325-.81162-.39369-.86008a2.1145,2.1145,0,0,0-.72683.03635c-.09086.02422-.33313-.06663-.33313-.1272,0-.03028-.04846-.06663-.103-.09085a1.40287,1.40287,0,0,1-.41187-.5633,1.132,1.132,0,0,0-.13325-.25439,2.73118,2.73118,0,0,1-.23017-.54512,3.962,3.962,0,0,0-.16959-.46638,1.20325,1.20325,0,0,1-.02423-.75106,1.08811,1.08811,0,0,0,0-.48455,1.15573,1.15573,0,0,1,0-.4785,2.19442,2.19442,0,0,0,.04846-.33313c0-.06662-.00606-.315-.00606-.55118a2.7532,2.7532,0,0,1,.06057-.68443c.06057-.218.05451-.28467-.03634-.41792a1.61143,1.61143,0,0,1-.14537-.79951,1.23391,1.23391,0,0,0-.02422-.424,2.91389,2.91389,0,0,1,.01211-1.67171,3.02464,3.02464,0,0,0,.15748-.94487,1.50055,1.50055,0,0,1,.06662-.41187,2.46443,2.46443,0,0,0,.11509-.636,3.16843,3.16843,0,0,1,.08479-.36341A.75787.75787,0,0,0,7.60642,10.12.35582.35582,0,0,1,7.667,9.88382a1.2256,1.2256,0,0,0-.09691-.90248.99366.99366,0,0,1-.05451-.30284A.40455.40455,0,0,0,7.455,8.44833a2.22136,2.22136,0,0,1-.27256-.73894.42623.42623,0,0,0-.06663-.20594.36309.36309,0,0,1-.05451-.23016c.01817-.03028-.02423-.08479-.09085-.12114a.37415.37415,0,0,1-.15748-.212A.8168.8168,0,0,0,6.498,6.607a1.28323,1.28323,0,0,0-1.29618-.03028,1.626,1.626,0,0,1-.36947.15142.355.355,0,0,0-.1696.09691.73138.73138,0,0,1-.3089.12114c-.109.01211-.28467.0424-.3937.05451-.24227.0424-.38764-.09691-.37553-.3513a1.75341,1.75341,0,0,0-.1817-.76923A1.173,1.173,0,0,1,3.409,4.9535c.03634-.09086.0848-.16354.109-.16354.03028,0,.07874-.09085.12114-.20594a1.056,1.056,0,0,1,.29678-.38764,1.07647,1.07647,0,0,0,.30285-.3937.50739.50739,0,0,1,.20594-.2665,2.91216,2.91216,0,0,0,.43-.315c.24833-.218.321-.24833.47243-.218a1.81868,1.81868,0,0,0,.745-.00606,1.68632,1.68632,0,0,1,.80557,0c.1272.05452.18777.18171.18777.39976a1.81968,1.81968,0,0,0,.14536.68443,1.06509,1.06509,0,0,1,.07269.4785c-.00606.19382.01211.3513.0424.3513s.103.103.15747.23016a.90712.90712,0,0,0,.55118.55724.5885.5885,0,0,0,.66626-.28468c.0424-.09085.12114-.25439.1696-.36341A.68376.68376,0,0,0,8.951,4.63855a.32152.32152,0,0,1,.07874-.33313,1.09131,1.09131,0,0,0,.30284-.62992,1.5539,1.5539,0,0,1,.12114-.4361.80853.80853,0,0,0,.09691-.3089.495.495,0,0,1,.06663-.24228A1.12963,1.12963,0,0,0,9.69,2.2824a1.11845,1.11845,0,0,1,.03634-.3513.5552.5552,0,0,0-.11508-.44216c-.09085-.15142-.14537-.30284-.12114-.33918.03634-.06663,0-.11509-.4361-.53907C8.9026.45927,8.69667.26545,8.60581.16854,8.45439.01711,8.40593.005,7.92138.005,7.5398.005,7.38837.02923,7.352.0898Z"/>

</g>
</svg>
