<?xml version="1.0" encoding="UTF-8"?>
<svg xmlns="http://www.w3.org/2000/svg"
     version="1.1"
     width="36.83523684mm"
     height="18.93257492mm"
     viewBox="0.00000000 0.00000000 104.41485404 53.66712969">

<g transform="scale(5.00686927)">   <defs>
      <style type="text/css"><![CDATA[
      .a {
        stroke: #000;
        stroke-linecap: round;
        stroke-linejoin: round;
        stroke-width: 0.01px;
      }
    ]]></style>
   </defs>
   <path class="a"
         d="M18.2204.07022a2.8832,2.8832,0,0,0-.50878.70865,2.55017,2.55017,0,0,1-.49065.67235,1.42348,1.42348,0,0,1-.46033-.02423.95737.95737,0,0,0-.49666,0,.3613.3613,0,0,1-.18777.03029c-.01211-.01817-.109.01211-.19988.06057a.29321.29321,0,0,1-.28467.03028A3.672,3.672,0,0,0,14.338,1.29975a6.85164,6.85164,0,0,0-1.33252.109A8.12977,8.12977,0,0,1,11.9152,1.439a2.96273,2.96273,0,0,0-.9691.06057,1.01718,1.01718,0,0,1-.48455.03634,4.12351,4.12351,0,0,0-1.15082.0424,2.73541,2.73541,0,0,1-.951-.01813.6319.6319,0,0,0-.3937.006,4.40562,4.40562,0,0,1-.848.07874,2.59575,2.59575,0,0,0-.90854.103,2.81078,2.81078,0,0,1-1.3628.06663,1.43544,1.43544,0,0,0-.43-.05452c-.07268.01212-.29073.0424-.48455.07269a6.72125,6.72125,0,0,1-1.62931-.01817c-.38159-.0424-.41793-.03635-.59358.11508a.6754.6754,0,0,1-.36341.15748.25222.25222,0,0,0-.24834.13325A2.43685,2.43685,0,0,1,.825,2.58381a1.40267,1.40267,0,0,0-.2665.46639,1.30217,1.30217,0,0,1-.27256.46032c-.109.12114-.19382.25439-.17565.29679a.673.673,0,0,1-.05452.321c-.06662.19987-.06662.26044-.006.3513a.32269.32269,0,0,1,.04845.24833.47877.47877,0,0,0,.28468.4785,1.55679,1.55679,0,0,1,.745,1.12658,2.94386,2.94386,0,0,0,.41792,1.04179c.26045.37553.27256.79951.07269,1.78073a.4098.4098,0,0,0,.103.38764,2.52739,2.52739,0,0,0,.93883.83586,1.13339,1.13339,0,0,1,.315.20593c.11509.1272.1696.13325.99939.1272a5.95343,5.95343,0,0,0,.94488-.05452,9.75655,9.75655,0,0,1,1.69594-.11508,5.99547,5.99547,0,0,0,.7874-.06057,5.31428,5.31428,0,0,1,.66626-.09085,2.68942,2.68942,0,0,0,1.06-.2665,5.26448,5.26448,0,0,1,1.63537-.19382,10.05222,10.05222,0,0,0,1.08419-.07874,1.79857,1.79857,0,0,1,.69654.00605,2.91055,2.91055,0,0,0,1.39915-.07268,1.91354,1.91354,0,0,1,1.06-.14537,2.118,2.118,0,0,0,1.10236-.06662c.12719-.04846.43609-.14537.68443-.218s.52089-.15748.60569-.19382a2.97184,2.97184,0,0,1,.79345-.01212c.59358.03635.67232.03029.854-.08479a1.335,1.335,0,0,1,.59963-.14537,1.24169,1.24169,0,0,0,.71472-.23016.89547.89547,0,0,0,.49061-.636c0-.04845-.02423-.09085-.05452-.09085s-.07268-.04846-.09691-.11508c-.03028-.103-.30284-.25439-.6178-.33919a1.04451,1.04451,0,0,1-.34525-.27256c-.23016-.25439-.23016-.2241-.01817-.848a1.15751,1.15751,0,0,0,.07874-.72683,1.03845,1.03845,0,0,1,.01212-.40581.6775.6775,0,0,0,.01211-.32707c-.05451-.07874.04846-.35736.1272-.35736.06662,0,.18776-.41187.14536-.49061a4.87246,4.87246,0,0,1-.06057-.81163,4.44963,4.44963,0,0,0-.06057-.81768.33619.33619,0,0,1,.03029-.24227.26162.26162,0,0,0-.02423-.315A.68055.68055,0,0,1,19.88,1.54808a.948.948,0,0,0-.11508-.3937.80576.80576,0,0,1-.109-.41187A.761.761,0,0,0,19.28037.052,2.54733,2.54733,0,0,0,18.2204.07022ZM16.797,2.82609c.09691.109.24228.27256.33313.36341a1.15613,1.15613,0,0,1,.27256.72683.51745.51745,0,0,0,.04846.22411.98856.98856,0,0,1,.07268.38159,1.50444,1.50444,0,0,0,.1272.4906,3.12623,3.12623,0,0,1-.15748,2.03513c-.1272.23622-.36947.29679-1.03573.26044a.95666.95666,0,0,0-.5633.06663.65633.65633,0,0,1-.30284.07874,3.34429,3.34429,0,0,0-.49667.07874c-.23622.05451-.29679.0424-.44215-.06057a1.53575,1.53575,0,0,0-1.1811-.03028c-.48455.12113-.76317.12113-.88431,0a.32194.32194,0,0,1-.09691-.12721,3.24469,3.24469,0,0,1,.57541-.90248.81036.81036,0,0,0,.24227-.3089.4713.4713,0,0,0,.03029-.4482c-.13931-.41793-.56935-.5209-2.30769-.5633a7.21583,7.21583,0,0,0-1.08418.02423.21908.21908,0,0,1-.19382-.00606A2.49409,2.49409,0,0,0,8.61414,5.055c-.103.0424-.18171.09086-.18171.11508a.92964.92964,0,0,1-.18171.22411,1.13046,1.13046,0,0,0-.218.36341,2.07216,2.07216,0,0,1-.15142.38159.68267.68267,0,0,0-.07268.48455c.04845.36342.15748.44216.50272.3937a7.76291,7.76291,0,0,1,.7874-.04845,2.05455,2.05455,0,0,0,.73894-.109.509.509,0,0,1,.424-.0424,1.80189,1.80189,0,0,0,1.12053-.01211c.30284-.12719.43-.103.47849.103.0848.33918-.19382.64809-.46032.50878a.29055.29055,0,0,0-.19382-.03029c-.0424.01212-.18777.0424-.315.06057s-.30285.04846-.37553.06663a.74109.74109,0,0,1-.38764-.06057.81485.81485,0,0,0-.315-.06663,3.13514,3.13514,0,0,1-.47244.06057c-.218.01817-.51484.04846-.66626.06663s-.37553.03028-.49667.03028a1.28,1.28,0,0,0-.3937.06057,2.17338,2.17338,0,0,1-.41187.09691,2.56184,2.56184,0,0,0-.56329.17565.78949.78949,0,0,1-.57541.09086,2.72,2.72,0,0,0-.55116-.02425,1.71117,1.71117,0,0,1-.51483-.04846,2.43162,2.43162,0,0,0-.963-.12113c-.47244-.01211-.67232-.07269-.68443-.22411,0-.02423-.01212-.45427-.03029-.95093-.05451-1.93216-.103-2.41066-.2665-2.61659-.109-.13931-.109-.16354-.02423-.32707a.46047.46047,0,0,1,.1332-.1817c.02423,0,.15748-.01817.29679-.03028a.771.771,0,0,1,.51484.109,2.19082,2.19082,0,0,0,1.39914.06663A.46492.46492,0,0,1,5.79162,3.559a.32391.32391,0,0,0,.2241-.05452,1.73534,1.73534,0,0,1,1.1811.0424l.26045.12114.24833-.12719A1.18918,1.18918,0,0,1,8.48089,3.45a4.40709,4.40709,0,0,0,.95093-.03028,8.229,8.229,0,0,1,.86614-.09691c.33313-.02423.47244-.06057.55723-.14537a.418.418,0,0,1,.1696-.12114c.02423,0,.47849-.01817,1.0115-.0424a15.00113,15.00113,0,0,1,2.02907.00606,2.61461,2.61461,0,0,0,1.10235-.0424c.12114-.04845.23622-.07874.25439-.06057a.922.922,0,0,0,.33919-.07268.85977.85977,0,0,1,.34525-.06663c.01817.01818.09085-.00605.16353-.05451C16.46389,2.58381,16.6032,2.6141,16.797,2.82609Z"/>

</g>
</svg>
