<?xml version="1.0" encoding="UTF-8"?>
<svg xmlns="http://www.w3.org/2000/svg"
     version="1.1"
     width="39.20776415mm"
     height="68.04729277mm"
     viewBox="0.00000000 0.00000000 111.14006789 192.88999638">

<g transform="scale(5.05518526)">   <defs>
      <style type="text/css"><![CDATA[
      .a {
        stroke: #000;
        stroke-linecap: round;
        stroke-linejoin: round;
        stroke-width: 0.01px;
      }
    ]]></style>
   </defs>
   <path class="a"
         d="M20.46606.01511a1.39549,1.39549,0,0,1-.321.08479,2.10288,2.10288,0,0,0-.89642.35736c-.16354.09691-.3937.218-.49667.27256a.75821.75821,0,0,0-.3089.3089,2.59221,2.59221,0,0,1-.89643.75106,4.27579,4.27579,0,0,0-1.0963,1.28407A2.7258,2.7258,0,0,1,15.37827,4.364c-.09691.06662-.24833.17565-.33919.24227s-.315.218-.49061.33919a3.28181,3.28181,0,0,0-.62386.58146,2.182,2.182,0,0,1-.71471.59358,1.27958,1.27958,0,0,0-.50273.3937.46692.46692,0,0,1-.43.25439c-.03634-.00606-.16353.09691-.28467.23016a.80209.80209,0,0,1-.29679.24228.45226.45226,0,0,0-.212.13325c-.07269.07874-.23622.25439-.37553.3937a1.15507,1.15507,0,0,0-.212.26045c.01211,0,0,.05451-.03634.12114a.64678.64678,0,0,1-.321.18776,1.12316,1.12316,0,0,0-.34524.14537c-.12114.103-.48456.28467-.48456.24227,0-.07268-.52695.29679-.6602.46638a4.96,4.96,0,0,1-1.22955.89643,1.67152,1.67152,0,0,0-.50273.3937,4.012,4.012,0,0,1-.58752.49061,1.01638,1.01638,0,0,0-.28467.20593,2.68494,2.68494,0,0,1-.7026.41793c-.20594.02423-.33919.103-.93277.53906a1.23942,1.23942,0,0,1-.33918.19382.56074.56074,0,0,0-.23017.12114,3.70929,3.70929,0,0,1-.67837.315,2.03113,2.03113,0,0,0-.72077.38764.75993.75993,0,0,1-.58752.23622c-.38159.0424-.41187.06057-.76923.39976a2.46356,2.46356,0,0,1-.51484.3937c-.103.02423-.18171.12719-.27862.36341a1.41727,1.41727,0,0,1-.24227.40582,1.85948,1.85948,0,0,0-.29679.424c-.23622.424-.20594.51484.23622.745a.67223.67223,0,0,0,.59357.09085,3.17506,3.17506,0,0,1,.49061-.06057,2.5248,2.5248,0,0,0,1.09025-.16959,2.59129,2.59129,0,0,1,.49061-.19988c.212-.06057.29073-.12114.33919-.24833.04845-.12114.13325-.18776.32707-.24228a2.30479,2.30479,0,0,0,.46032-.212,1.36926,1.36926,0,0,1,.49667-.16959,1.617,1.617,0,0,0,.67837-.28468,1.61353,1.61353,0,0,1,.59964-.27256,2.71223,2.71223,0,0,0,.636-.24227,1.88467,1.88467,0,0,1,.533-.20594c.23016.01817.25439.00606.65415-.29073a2.76567,2.76567,0,0,1,1.09024-.61781,2.632,2.632,0,0,0,.848-.27861.37888.37888,0,0,1,.23622-.05452.37688.37688,0,0,0,.24228-.06057c.16959-.08479.18776-.08479.30284.03029.15748.15748.15142.23016-.02423.6178a4.45282,4.45282,0,0,1-.81768,1.20533c-.23016.23622-.24228.2665-.40581,1.14476a2.0601,2.0601,0,0,0-.02423.48455c.00606.15142.01211.3513.00606.45427,0,.09691-.00606.24833-.00606.33313a1.5805,1.5805,0,0,0,.13931.49061c.11508.24833.13325.36341.09085.44215a2.39228,2.39228,0,0,0,.1272,1.10842,1.09888,1.09888,0,0,1,.01817.48455,1.26208,1.26208,0,0,0,.06057.62386,5.17336,5.17336,0,0,1,.14531.81155,2.29089,2.29089,0,0,0,.09086.533,2.89883,2.89883,0,0,1,.09085.67232c.01211.3089.04846.84191.07874,1.19321a2.06653,2.06653,0,0,1-.04851,1.10847.3271.3271,0,0,0-.00605.29073.668.668,0,0,1,.00605.4361,2.36094,2.36094,0,0,0-.03028.527,2.261,2.261,0,0,1-.00606.75711c-.01817.13325-.0424.38159-.04845.55118a.7318.7318,0,0,1-.11508.43.41457.41457,0,0,0-.103.23016,2.68325,2.68325,0,0,1-.24228.96911,2.675,2.675,0,0,0-.16959,1.73833.47486.47486,0,0,1,.07268.27256c-.00605.07874.01212.13932.03634.13932.03029,0,.09086.06056.14537.13931.09691.15142.0848.22411-.15142.8298a5.24419,5.24419,0,0,0-.19988,1.90791A2.54076,2.54076,0,0,0,9.48486,35.127a2.03953,2.03953,0,0,1,.18776.46033c-.06663,0,.18777.39975.37553.58752a.71429.71429,0,0,1,.20593.27862c0,.0424.07874.12719.18171.1817.103.06057.18171.13326.18171.16354,0,.0848.36341.27862.78134.41793a2.46357,2.46357,0,0,1,.93276.58146c.05452.04846.109.0848.12114.07874a.94456.94456,0,0,1,.24834.1272,1.56738,1.56738,0,0,0,1.30223.01211,2.73093,2.73093,0,0,1,.58752-.1272.48057.48057,0,0,0,.32707-.12113c.07269-.07269.15143-.109.18171-.09086.103.06663.636-.16353.76923-.33313a1.91585,1.91585,0,0,1,.81163-.50272,1.18505,1.18505,0,0,0,.38158-.26651c.424-.424.55118-.86613.29679-1.0115a1.9337,1.9337,0,0,1-.60569-.73894.95081.95081,0,0,0-.29679-.38159.75146.75146,0,0,1-.27256-.3513c-.07268-.16353-.15748-.33313-.18171-.38158a2.58366,2.58366,0,0,1-.41187-1.34464.70614.70614,0,0,0-.12719-.52089c-.14537-.19988-.14537-.24228.01817-.89037a9.22621,9.22621,0,0,0,.25439-1.57479,4.65986,4.65986,0,0,1,.109-.70866.85908.85908,0,0,0,.03029-.43.29614.29614,0,0,1,.01211-.23622,7.04313,7.04313,0,0,0,.24228-1.35069,1.29038,1.29038,0,0,1,.09691-.424.80292.80292,0,0,0,.04845-.47849,1.87042,1.87042,0,0,1,.09691-1.0963c.109-.18171.11508-.218.03634-.39976a1.35659,1.35659,0,0,1-.05451-.62992,18.55268,18.55268,0,0,0,.01212-2.39248c-.02423-.0848-.09086-.315-.14537-.51484-.06057-.19987-.12719-.43-.15142-.51483-.09691-.29679-.11508-.45427-.06663-.53907a.3814.3814,0,0,0-.00606-.27256,4.71007,4.71007,0,0,1-.16959-1.03573V18.095a1.14126,1.14126,0,0,0-.12114-.37553,1.334,1.334,0,0,1-.12113-.50878,1.52017,1.52017,0,0,0-.05452-.41792.31845.31845,0,0,1-.006-.22411.37917.37917,0,0,0-.03635-.29073,1.08362,1.08362,0,0,1-.08479-.32707,1.57241,1.57241,0,0,0-.15748-.424.79769.79769,0,0,1-.12114-.47849.91447.91447,0,0,0-.02423-.35735.71129.71129,0,0,1,.03634-.46639.62786.62786,0,0,0,.06057-.30284c-.06057-.06662.212-.49667.41187-.65415a2.38826,2.38826,0,0,0,.51484-.78134,5.06687,5.06687,0,0,0,.3089-.71471.82883.82883,0,0,1,.15748-.29679,3.70635,3.70635,0,0,0,.30285-.49667.80644.80644,0,0,1,.19382-.28467,2.432,2.432,0,0,0,.41187-.81768c.05451-.1696.16354-.46033.24833-.65415.14537-.321.15142-.35736.06057-.45428a2.553,2.553,0,0,1-.24228-.37553c-.11508-.2241-.1817-.27862-.38158-.321a1.77874,1.77874,0,0,0-1.18716.24833,1.09991,1.09991,0,0,1-.39369.19988,3.385,3.385,0,0,0-1.10842.33918c-.36341.22411-.533.26651-.79345.19988-.34525-.09085-.3937-.23622-.212-.59357a1.43886,1.43886,0,0,1,.848-.68444.741.741,0,0,0,.36342-.28467A1.62112,1.62112,0,0,1,15.3904,7.023a2.4625,2.4625,0,0,0,.55724-.32707.83416.83416,0,0,1,.18171-.24228.62124.62124,0,0,0,.1817-.27256c0-.15142.46033-.55724.67232-.60569a1.03621,1.03621,0,0,0,.3513-.15748.50381.50381,0,0,1,.19988-.11508.56346.56346,0,0,0,.212-.12114.62045.62045,0,0,1,.315-.12114A.94594.94594,0,0,0,18.5461,4.788c.17565-.15142.3513-.29073.38765-.315a.84862.84862,0,0,0,.17565-.212c.09691-.14537.28467-.27256,1.04179-.71472a4.80344,4.80344,0,0,0,.76317-.72682,4.09638,4.09638,0,0,0,1.066-2.017,1.45077,1.45077,0,0,0-.642-.67231A1.8937,1.8937,0,0,0,20.46606.01511Z"/>
   <path class="a"
         d="M17.70411,35.16335a.06514.06514,0,0,0,.06057.06057.06069.06069,0,0,0,.06057-.06057.05721.05721,0,0,0-.05367-.06055h-.0069A.06068.06068,0,0,0,17.70411,35.16335Z"/>

</g>
</svg>
