<?xml version="1.0" encoding="UTF-8"?>
<svg xmlns="http://www.w3.org/2000/svg"
     version="1.1"
     width="17.19602783mm"
     height="39.23763815mm"
     viewBox="0.00000000 0.00000000 48.74458541 111.22477525">

<g transform="scale(6.18595529)">   <defs>
      <style type="text/css"><![CDATA[
      .a {
        stroke: #000;
        stroke-linecap: round;
        stroke-linejoin: round;
        stroke-width: 0.01px;
      }
    ]]></style>
   </defs>
   <path class="a"
         d="M4.92865.03429a1.65744,1.65744,0,0,0-.533.36947c0,.03028-.07874.103-.18171.16354a7.85436,7.85436,0,0,0-.67231.56329,7.88847,7.88847,0,0,1-.71472.59963,2.53972,2.53972,0,0,0-.8298.8177,4.02188,4.02188,0,0,1-.51483.636,2.29261,2.29261,0,0,0-.47244.636,2.00638,2.00638,0,0,1-.25439.43,1.06914,1.06914,0,0,0-.17565.49061,2.13416,2.13416,0,0,1-.15143.56329.34471.34471,0,0,0-.03026.36945.27141.27141,0,0,1-.01817.321.60828.60828,0,0,0-.06663.44215,1.01126,1.01126,0,0,1-.04845.49667c-.07269.17565-.07269.3089,0,.90248a2.34986,2.34986,0,0,1-.1696,1.496.72093.72093,0,0,0,.03635.37553.57921.57921,0,0,1,0,.49061c-.06057.1696-.06663.26045-.02423.30285a.83117.83117,0,0,1,.109.32707,3.20473,3.20473,0,0,0,.1272.45427.4425.4425,0,0,1,.00605.39976,3.0361,3.0361,0,0,0-.103.68443,1.10646,1.10646,0,0,0,.07268.67231.38317.38317,0,0,1,.01817.424,3.12314,3.12314,0,0,0-.09691.83585,2.75945,2.75945,0,0,1-.07268.73894.29892.29892,0,0,0-.03634.218.80451.80451,0,0,1-.06057.34525.62546.62546,0,0,0-.03635.3937c.03029.07874.03635.15142.01818.16959a1.95786,1.95786,0,0,0,0,.86008,2.13067,2.13067,0,0,1,.13325.41793c.103.45427.33918.56329,1.13264.52695.27256-.01211.38764-.642.33919-1.914-.00606-.15749.03634-.79953.09085-1.3931a1.10457,1.10457,0,0,1,.26045-.5754,1.139,1.139,0,0,0,.11508-.41187,2.01446,2.01446,0,0,1,.13325-.533c.09691-.19988.09691-.23016,0-.51485-.07874-.218-.09085-.32707-.0424-.41187a4.67561,4.67561,0,0,0,.27259-1.46574c.01817-.54512.07874-.73894.26651-.84191.16353-.0848.39975.12114.58752.5209a.87094.87094,0,0,0,.20593.32707,4.54572,4.54572,0,0,1,.71472,1.09024,4.12061,4.12061,0,0,0,.41187.62386.87543.87543,0,0,1,.20593.29074,2.16779,2.16779,0,0,0,.39976.751.872.872,0,0,1,.17565.39976,1.85611,1.85611,0,0,0,.13325.4361,1.8978,1.8978,0,0,1,.11508.48455,1.72125,1.72125,0,0,0,.05451.33313,1.79559,1.79559,0,0,1-.16959.3937,2.1899,2.1899,0,0,0-.19382.50878.33481.33481,0,0,1-.07268.20593c-.0424.0424-.04846.1272-.01212.25439a.613.613,0,0,1,.02423.28468c-.03634.12114.02423.19988.23016.29073a.43089.43089,0,0,0,.62387-.14537,1.50357,1.50357,0,0,1,.39975-.33313c.1272-.06662.23016-.14536.23016-.1817a1.138,1.138,0,0,1,.23017-.29679,3.61046,3.61046,0,0,0,.66626-.92666c.18776-.33313.19382-.35736.103-.527a.90366.90366,0,0,1-.05451-.56329A1.82051,1.82051,0,0,0,7.6119,13.202a3.66335,3.66335,0,0,1-.18777-.77528,4.30148,4.30148,0,0,0-.62991-1.41126,4.64747,4.64747,0,0,1-.5209-1.42338.86325.86325,0,0,0-.12721-.37549,1.493,1.493,0,0,1-.14537-.3513,2.07452,2.07452,0,0,0-.20593-.65414,1.46038,1.46038,0,0,1-.1272-.44821.6834.6834,0,0,0-.18171-.38159.76305.76305,0,0,1-.1817-.29679c0-.15142-.18171-.44821-.27256-.44821A1.09391,1.09391,0,0,1,4.67428,6.388c-.424-.3937-.69049-.5209-1.02968-.49667a1.12754,1.12754,0,0,0-.424.109c-.19988.13326-.34524,0-.37553-.33918a3.70337,3.70337,0,0,0-.09691-.49061,2.501,2.501,0,0,1,.097-1.25376.53437.53437,0,0,1,.218-.218c.06663-.01817.12114-.07268.12114-.12114a1.64414,1.64414,0,0,1,.15143-.38771c.15748-.30285.33919-.46638.45427-.39976.07268.04846.48455-.12719.48455-.20593,0-.03634.06663-.109.15142-.16354.14537-.09085.17565-.09085.4785,0a2.18642,2.18642,0,0,0,.59963.09085.60976.60976,0,0,1,.37553.06663.967.967,0,0,0,.76923.17565A.99557.99557,0,0,0,7.39987,2.342c.19988-.22411.23622-.3089.23016-.52089a1.83473,1.83473,0,0,0-.16354-.59358A2.356,2.356,0,0,1,7.303.83986,3.633,3.633,0,0,0,6.54584.06457,7.6081,7.6081,0,0,0,4.92865.03429Z"/>

</g>
</svg>
