<?xml version="1.0" encoding="UTF-8"?>
<svg xmlns="http://www.w3.org/2000/svg"
     version="1.1"
     width="48.78552317mm"
     height="38.87368469mm"
     viewBox="0.00000000 0.00000000 138.28962339 110.19308369">

<g transform="scale(4.85881581)">   <defs>
      <style type="text/css"><![CDATA[
      .a {
        stroke: #000;
        stroke-linecap: round;
        stroke-linejoin: round;
        stroke-width: 0.01px;
      }
    ]]></style>
   </defs>
   <path class="a"
         d="M2.64432.03528a.45749.45749,0,0,0,.18171,0C2.86237.01711,2.82.005,2.717.005,2.6201.005,2.58376.01711,2.64432.03528Z"/>
   <path class="a"
         d="M25.25476.86508a.60343.60343,0,0,0-.4058.32707,1.76918,1.76918,0,0,0-.20594.49667,1.23256,1.23256,0,0,1-.218.46033.79738.79738,0,0,0-.17564.34524.75943.75943,0,0,1-.12719.321.62263.62263,0,0,0-.09692.20593,1.29339,1.29339,0,0,1-.109.3937l-.13325.38764.18171.321a3.1604,3.1604,0,0,0,.28467.44215,1.11,1.11,0,0,1,.27862.79346,1.12261,1.12261,0,0,0,.11508.533.78776.78776,0,0,1,.12113.29679,2.78075,2.78075,0,0,0,.12114.43609,1.49458,1.49458,0,0,1,.06662.636,1.13678,1.13678,0,0,0,.02423.424.282.282,0,0,1,0,.212.25654.25654,0,0,0,.02423.23017.97027.97027,0,0,1,.09085.41792,3.03461,3.03461,0,0,0,.06663.533,6.33293,6.33293,0,0,1,.11508.636,11.93173,11.93173,0,0,0,.3089,1.45366,1.20109,1.20109,0,0,1,.07269.751,1.04589,1.04589,0,0,0-.00606.41793.81139.81139,0,0,1-.315.80557.52631.52631,0,0,0-.17565.29073,3.29263,3.29263,0,0,1-.49061.95093.17121.17121,0,0,0-.05451.13326,1.01321,1.01321,0,0,1-.109.32707,5.22111,5.22111,0,0,0-.24833.58146,1.80152,1.80152,0,0,1-.23622.46033c-.06057.05451-.25439.24227-.44215.41793a2.33939,2.33939,0,0,0-.424.47849,3.79194,3.79194,0,0,1-1.066.80557.97741.97741,0,0,0-.33313.27862,1.87928,1.87928,0,0,1-.49667.37553c-.23015.12113-.37553.24227-.4058.34524-.0424.11508-.16354.19988-.4664.32707-.2241.09691-.50877.22411-.636.28468a1.36835,1.36835,0,0,1-.48456.12719,1.01741,1.01741,0,0,0-.38159.0848c-.15748.103-.19381.109-1.88369.03028a.39373.39373,0,0,1-.212-.08479,5.66577,5.66577,0,0,0-1.69594-.109c-.58752-.006-2.1078.06057-2.16231.09086a.21888.21888,0,0,1-.18777-.02423,7.34839,7.34839,0,0,0-2.22288-.1272c-.06057,0-.33919-.01211-.62386-.02422a8.6633,8.6633,0,0,0-2.15021.29073,2.809,2.809,0,0,1-.60569.0848c-.23016.006-.47849.01817-.54512.01817a.72917.72917,0,0,0-.27256.103.662.662,0,0,1-.33919.09086.88242.88242,0,0,0-.35736.04845,2.13138,2.13138,0,0,1-.37552.09087,3.302,3.302,0,0,0-1.11448.43.70743.70743,0,0,1-.424.13931,2.79839,2.79839,0,0,0-1.23561.23621,4.55179,4.55179,0,0,1-.86614.2544c-.46638.07873-.49666.09085-.67837.41186A1.07212,1.07212,0,0,1,.482,21.713a1.67549,1.67549,0,0,0-.41187.24833.66735.66735,0,0,0,.00605.58752c.1696.20593.8298.14537,1.05391-.09085a.21676.21676,0,0,1,.19382-.07874.61031.61031,0,0,0,.32707-.05452.51623.51623,0,0,1,.26651-.06662c.04239.04845.53906-.212.66626-.34525.08479-.09085.17565-.109.51483-.09085a.9899.9899,0,0,0,.67838-.13325,2.17355,2.17355,0,0,0,.35735-.24228.19009.19009,0,0,1,.212-.03634,5.0874,5.0874,0,0,0,1.30829.01211,3.99082,3.99082,0,0,0,.58146-.15748,1.79182,1.79182,0,0,1,.82374-.09086,1.26978,1.26978,0,0,0,.76923-.09691.6.6,0,0,1,.69654.02423c.13931.09691.17565.09691.44822.006a1.94845,1.94845,0,0,1,.99939-.07874.88094.88094,0,0,0,.533-.04845.28288.28288,0,0,1,.30285-.03028,3.668,3.668,0,0,0,1.79284.20594,22.27412,22.27412,0,0,0,3.56147-.23016c.54512-.1696.73893-.19988.90852-.13932a2.59993,2.59993,0,0,0,.36342.07874,3.78412,3.78412,0,0,1,.86615.16959c.08478.04846.27861-.01211.90852-.30284a1.97334,1.97334,0,0,1,.39976-.14537.78821.78821,0,0,0,.26045-.0848,5.73864,5.73864,0,0,1,.62386-.2241,1.95076,1.95076,0,0,0,.55723-.25439.40273.40273,0,0,1,.16354-.103,1.22738,1.22738,0,0,0,.29679-.23622,1.32483,1.32483,0,0,1,.48455-.3089,1.17092,1.17092,0,0,0,.38159-.1696,2.359,2.359,0,0,1,.73288-.39975c.06663.06057.56935-.18777.745-.36947A1.18338,1.18338,0,0,1,24.104,18.218a2.06329,2.06329,0,0,0,.29073-.32707,3.76045,3.76045,0,0,1,.55723-.5633,1.31707,1.31707,0,0,0,.32708-.3089c0-.03028.09691-.11508.212-.18776s.19988-.15143.18171-.18171c-.01817-.02423.02422-.11508.08479-.19382a3.28491,3.28491,0,0,0,.55118-1.03573.97963.97963,0,0,1,.20594-.424c.2665-.34524.33918-.49061.33918-.64809a1.66531,1.66531,0,0,1,.39976-.77528c.09691-.05451.09691-.06663.00606-.19382a.217.217,0,0,1-.03634-.25439.22061.22061,0,0,0,.03028-.16354.82524.82524,0,0,1,.04846-.33313,1.34789,1.34789,0,0,0,.04239-.60569.8469.8469,0,0,1,.03029-.47244,1.65465,1.65465,0,0,0,.06662-.58146c0-.36947.01817-.45427.12114-.55118a.9636.9636,0,0,0,.15143-.77529A.59457.59457,0,0,1,27.6836,9.381c.01211-.0848.01817-.35736.02423-.60569a2.98953,2.98953,0,0,1,.07268-.69655,2.65246,2.65246,0,0,0,.07874-.45427.92364.92364,0,0,1,.24228-.751c.25439-.33313.35736-.64809.27256-.80557a.46444.46444,0,0,1,.03028-.3513,1.09724,1.09724,0,0,0,.01817-.60569c-.03635-.19988-.07268-.48456-.08479-.62992a1.68226,1.68226,0,0,0-.05452-.33919.2893.2893,0,0,1,.06057-.19988,2.12726,2.12726,0,0,0-.13325-1.60508c-.0848-.09691-.13931-.218-.12114-.26045s-.03634-.14536-.11508-.23016c-.14536-.15748-.14536-.15748-.37553-.05451a1.19751,1.19751,0,0,0-.26044.15142,1.34844,1.34844,0,0,1-.321.13931c-.43.14537-.60569.315-.55724.55118a.30249.30249,0,0,1-.06056.29073c-.12114.12114-.17565.12114-.29679,0a.14775.14775,0,0,1-.03475-.206l.00446-.00595c.04846-.09691.03029-.16959-.07874-.34525a2.18163,2.18163,0,0,0-.212-.30284c-.103-.109-.103-.1272.0424-.36342l.12114-.19987L25.812,1.21022C25.63635.84085,25.55762.78634,25.25476.86508Z"/>

</g>
</svg>
