<?xml version="1.0" encoding="UTF-8"?>
<svg xmlns="http://www.w3.org/2000/svg"
     version="1.1"
     width="13.30247475mm"
     height="15.25121912mm"
     viewBox="0.00000000 0.00000000 37.70787206 43.23182513">

<g transform="scale(4.09348480)">   <defs>
      <style type="text/css"><![CDATA[
      .a {
        stroke: #000;
        stroke-linecap: round;
        stroke-linejoin: round;
        stroke-width: 0.01px;
      }
    ]]></style>
   </defs>
   <path class="a"
         d="M5.8378.09585a1.3923,1.3923,0,0,1-.77528.3937c-.109,0-.24228.0848-.41187.26651a2.4116,2.4116,0,0,1-.38159.33313,1.224,1.224,0,0,0-.321.3937.91447.91447,0,0,1-.315.36947,2.67372,2.67372,0,0,0-.8298.62386,3.43491,3.43491,0,0,1-.50272.41187c-.1272.06663-.16959.12114-.14537.19988.03634.12114-.17565.43-.55118.81768a1.1361,1.1361,0,0,0-.315.533.89218.89218,0,0,1-.212.3937,2.24232,2.24232,0,0,0-.52687,1.1811,1.62884,1.62884,0,0,1-.03028.41187A5.47389,5.47389,0,0,0,.3139,7.62459a.47219.47219,0,0,1-.15748.27862C.005,8.04252.005,8.05463.005,9.01163c0,.95093,0,.97516.13931,1.066a3.67658,3.67658,0,0,1,.33919.28468l.19382.19382.14536-.15748c.12114-.13325.17565-.15143.26651-.103a.38814.38814,0,0,1,.15142.16354c.03028.08479.06057.07874.18776-.06057.13326-.14537.22411-.18777.35736-.16354a.52074.52074,0,0,0,.212-.04845c.0848-.03029.321-.103.5209-.16354A2.53493,2.53493,0,0,0,3.088,9.7748a.82312.82312,0,0,1,.28467-.13931c.0424,0,.16354-.12114.26651-.27256A.65258.65258,0,0,1,4.0813,9.0298c.38764-.103.57541-.18171.61175-.27256a.48967.48967,0,0,1,.19988-.17566,4.414,4.414,0,0,0,.56329-.45426,2.729,2.729,0,0,1,.50272-.40582,1.48189,1.48189,0,0,0,.34525-.25439c.12719-.12113.34524-.32707.47849-.45427a1.20919,1.20919,0,0,1,.29679-.2241c.03634,0,.11508-.09691.18777-.218a.85146.85146,0,0,1,.424-.34524.71508.71508,0,0,0,.46032-.67838,1.237,1.237,0,0,1,.27257-.66626.36138.36138,0,0,0,.12113-.2241A1.54061,1.54061,0,0,1,8.733,4.21455a.76042.76042,0,0,0,.15142-.47244,1.59456,1.59456,0,0,1,.01817-.46638,1.29905,1.29905,0,0,0,.00606-.46032A.7549.7549,0,0,1,9.08431,2.131c.17565-.109.15748-.35736-.02423-.527a.45535.45535,0,0,1-.15142-.30284,1.24568,1.24568,0,0,0-.25439-.7026A.74846.74846,0,0,0,8.29085.45321.7588.7588,0,0,1,7.83658.20488L7.64276.005H6.75845C6.01951.005,5.86809.01711,5.8378.09585ZM5.4865,2.70638a2.64157,2.64157,0,0,0,.19988.38764.532.532,0,0,1,.103.36948c-.03029.11508.01817.24833.15142.46638a1.382,1.382,0,0,1,.218.71471,1.653,1.653,0,0,0,.1212.53907c.07874.12719.07268.15748-.11508.43a1.16268,1.16268,0,0,1-.77529.53906,2.54292,2.54292,0,0,0-.636.36948c-.3513.27256-.3513.27256-.72077.23621a1.72654,1.72654,0,0,1-.957-.40581.28986.28986,0,0,1,.03029-.18171,1.51841,1.51841,0,0,0,.06662-.39369,1.18318,1.18318,0,0,1,.17565-.533,1.76058,1.76058,0,0,0,.26045-.69655A2.18724,2.18724,0,0,1,3.724,4.22058a1.23661,1.23661,0,0,0,.09691-.36947.588.588,0,0,1,.12114-.2907A.55821.55821,0,0,0,4.06313,3.306a.7494.7494,0,0,1,.47244-.45427.8866.8866,0,0,0,.37553-.24228c.23622-.23016.2665-.24228.38764-.16354A.60415.60415,0,0,1,5.4865,2.70638Z"/>

</g>
</svg>
