<?xml version="1.0" encoding="UTF-8"?>
<svg xmlns="http://www.w3.org/2000/svg"
     version="1.1"
     width="35.81836051mm"
     height="59.83562581mm"
     viewBox="0.00000000 0.00000000 101.53235607 169.61273994">

<g transform="scale(5.62889704)">   <defs>
      <style type="text/css"><![CDATA[
      .a {
        stroke: #000;
        stroke-linecap: round;
        stroke-linejoin: round;
        stroke-width: 0.01px;
      }
    ]]></style>
   </defs>
   <path class="a"
         d="M9.73242.28362a1.64168,1.64168,0,0,1-.90248.51484,5.81053,5.81053,0,0,0-2.57419.90247c0,.03029-.11508.11509-.25439.18777a1.44935,1.44935,0,0,0-.29073.17565A8.13431,8.13431,0,0,1,4.71124,2.67c-.04846,0-.16354.09691-.46638.37553a2.457,2.457,0,0,1-.49667.34524,2.50551,2.50551,0,0,0-.88431.82374c0,.09086-.03028.12114-.44821.50878a2.3958,2.3958,0,0,0-.424.60569,2.16417,2.16417,0,0,1-.58147.71472,2.184,2.184,0,0,0-.33918.321c.06057,0-.18777.45426-.29074.53906-.04845.0424-.07874.109-.06056.14537a.52766.52766,0,0,1-.1272.28467.75531.75531,0,0,0-.15142.32707,1.35972,1.35972,0,0,1-.09086.33919,3.90144,3.90144,0,0,0-.30284.97516,1.71208,1.71208,0,0,1-.0424.27256,2.11536,2.11536,0,0,0,.3937,1.13265,2.26449,2.26449,0,0,1,.29073.49666c.13325.27862.22411.3937.32707.41793a.53227.53227,0,0,1,.27256.27256.96842.96842,0,0,0,.59964.527,2.39568,2.39568,0,0,1,.61175.26045c.04845.03028.24227.12114.424.20593.45427.212.93276.66626.89037.83586-.05452.19988.11508.3937.55118.642a1.43252,1.43252,0,0,0,.82979.24228c.23622.01211.57541.0424.75712.07268a2.31823,2.31823,0,0,0,.52089.02423c.218-.03634.41793.12114.3513.27862a1.64036,1.64036,0,0,0,.02423,1.04784,1.94776,1.94776,0,0,1,.12719.53907,1.69849,1.69849,0,0,0,.103.48455,1.40753,1.40753,0,0,1,.0848.38764c-.00606.06663-.00606.14537-.00606.18171a3.21744,3.21744,0,0,0,.09691.81768,4.45482,4.45482,0,0,1,.06663.7874A4.70633,4.70633,0,0,0,7.552,20.7741c.13931.35131.14537.3937.06663.55118a1.3395,1.3395,0,0,0-.06057.642c.01817.2665.0424.68443.06057.93276a3.71488,3.71488,0,0,0,.07874.636.81794.81794,0,0,1-.02423.46032,1.94143,1.94143,0,0,0,.15142,1.381,1.01241,1.01241,0,0,1,.12114.854,3.80549,3.80549,0,0,0-.0424.56329.36469.36469,0,0,1-.22411.38159,5.76387,5.76387,0,0,1-2.08357-.27256.74082.74082,0,0,0-.75712-.03029c-.218.109-.33918.315-.46032.79346a.5959.5959,0,0,1-.12114.27256,1.90656,1.90656,0,0,0-.32707.97516.46579.46579,0,0,0,.35736.5209A3.304,3.304,0,0,0,5.54107,29.284a1.48747,1.48747,0,0,1,.75711-.03634,1.69713,1.69713,0,0,0,.62386,0,2.36027,2.36027,0,0,1,.66626-.01817,9.887,9.887,0,0,0,1.58691.00606,8.30046,8.30046,0,0,0,1.01151-.06057,6.40538,6.40538,0,0,1,.62991-.15142,4.38546,4.38546,0,0,0,.636-.15143c.07874-.04845.315.1696.315.28468,0,.15748.33919.38764.848.58146a3.06425,3.06425,0,0,1,.636.3089c.28468.25439.8722-.12719,1.07813-.7026.109-.3089.13931-.62992.05451-.62992a2.44368,2.44368,0,0,1-.38764-.33313,1.55661,1.55661,0,0,0-.424-.33313,2.35458,2.35458,0,0,1-.44216-.1817,1.65489,1.65489,0,0,0-.59357-.18171.90472.90472,0,0,1-.3513-.06663,1.22157,1.22157,0,0,0-.45427-.05451c-.18171,0-.36342.00606-.39976.00606a1.12465,1.12465,0,0,1-.59963-.20594,1.19124,1.19124,0,0,0-.424-.2241c-.39975-.15143-.59963-.37553-.59963-.66626a2.36834,2.36834,0,0,0-.1272-.51484A1.97569,1.97569,0,0,1,9.46,25.35311a.84017.84017,0,0,0-.04846-.32707c-.03634-.05452,0-.18777.103-.38765a1.271,1.271,0,0,0,.14536-.49061,3.10522,3.10522,0,0,1,.07874-.55118,4.62128,4.62128,0,0,0,.0848-.636,3.141,3.141,0,0,1,.1272-.90854,1.80166,1.80166,0,0,0,0-.848c-.02423-.11509-.06663-.38159-.0848-.58752a2.02767,2.02767,0,0,0-.09691-.50879.21273.21273,0,0,1-.0424-.15748c.01817-.01211.01211-.103-.01817-.19382a.426.426,0,0,1,.01817-.27861,1.49438,1.49438,0,0,0-.01211-.79952.99245.99245,0,0,1,0-.38764,1.12779,1.12779,0,0,0-.06673-.62368,1.90683,1.90683,0,0,1-.097-.6542,2.04654,2.04654,0,0,0-.13325-.71471,2.465,2.465,0,0,1-.13931-.51484,3.152,3.152,0,0,0-.212-.848c-.15748-.44821-.03029-.963.24833-1.03573.0848-.01817.15142-.06057.15142-.08479a1.994,1.994,0,0,1,.7026-.30285.23291.23291,0,0,0,.15748-.1272,1.01451,1.01451,0,0,1,.30285-.24227c.22411-.11508.23016-.11508.46638.01211a.63236.63236,0,0,0,.47244.07874,1.517,1.517,0,0,0,.83585-.51484c.02423-.06056.06057-.11508.09086-.11508s.103-.09085.15748-.19988a1.082,1.082,0,0,1,.14536-.2241,8.895,8.895,0,0,0,.7874-.96305c0-.02423.06663-.07874.15748-.11508a.5311.5311,0,0,0,.218-.25439.496.496,0,0,1,.17565-.24833.23432.23432,0,0,0,.11508-.20594.36969.36969,0,0,1,.07874-.2241,2.0126,2.0126,0,0,0,.38159-1.21139c.03634-.56935.03634-.5754-.12114-.67837a.80443.80443,0,0,0-.79951.09085.72471.72471,0,0,1-.27862.11508.47912.47912,0,0,0-.23622.1272.33875.33875,0,0,1-.25439.09085c-.103-.02422-.25439.0424-.52089.23622-.0424.03029-.23017.20594-.41187.38159-.29074.28467-.32708.34524-.33313.5754a1.09571,1.09571,0,0,1-.09086.424.44739.44739,0,0,0-.04845.27862.22347.22347,0,0,1-.06663.212.30554.30554,0,0,0-.06663.2665.448.448,0,0,1-.02422.26045,1.11737,1.11737,0,0,0-.07874.33313c-.04846.39975-.321.48455-.46033.14536-.103-.24227-.27862-.33918-.6602-.35735a1.52351,1.52351,0,0,1-.38764-.04846,3.653,3.653,0,0,0-1.36887-.2241c-.58146-.01817-.65414-.09691-.47849-.50878a2.207,2.207,0,0,1,.20593-.38159.22185.22185,0,0,0,.05452-.19382c-.03635-.09085-.01212-.1272.29073-.3513a1.69822,1.69822,0,0,0,.33918-.49667,1.52218,1.52218,0,0,0,.15748-.89036A1.43413,1.43413,0,0,0,8.5816,7.1037c-.58146-.58146-.97516-.642-1.55662-.22411a2.42577,2.42577,0,0,0-.81163.81769,8.32468,8.32468,0,0,1-.55723.66626c-.29679.29073-.44821.533-.41187.67231a.272.272,0,0,1-.05452.218.50718.50718,0,0,0-.08479.24228,6.86632,6.86632,0,0,1-.7874,1.86553.14092.14092,0,0,0-.03028.15142.28912.28912,0,0,1-.212.30284,1.11083,1.11083,0,0,1-.28467-.212.88891.88891,0,0,0-.321-.212c-.09691,0-.27862-.109-.9267-.53906a2.50257,2.50257,0,0,1-.40582-.30891,1.22042,1.22042,0,0,0-.18776-.27861A3.35482,3.35482,0,0,1,1.592,9.67782a1.58165,1.58165,0,0,1-.16959-.89037,1.90565,1.90565,0,0,1,.27256-1.1387,6.264,6.264,0,0,1,.3513-.67837,1.09664,1.09664,0,0,0,.14536-.33313.68638.68638,0,0,1,.34525-.50273A.95261.95261,0,0,0,3.11221,5.65c.03635-.103.09086-.19382.12114-.19382s.09086-.09691.13931-.212c.0848-.19988.43-.4785.52695-.424.02423.01817.05452-.00605.07269-.05451a3.42017,3.42017,0,0,1,.745-.4361,3.37739,3.37739,0,0,0,.73894-.44215,2.335,2.335,0,0,1,.91459-.43.29846.29846,0,0,0,.19384-.09689,1.442,1.442,0,0,1,.87826-.3513c.19382-.01817.47849-.04846.62991-.07874a15.01716,15.01716,0,0,1,2.27135.01211c.23621.01817.58752.04846.78739.06663.19988.01211.46033.03634.57541.0424a1.22506,1.22506,0,0,1,.3937.109,2.83175,2.83175,0,0,0,1.37492.38159.58719.58719,0,0,1,.27256.109.6831.6831,0,0,0,.24228.13325.313.313,0,0,1,.17565.17565,1.12515,1.12515,0,0,0,.45426.46638,1.04482,1.04482,0,0,1,.23017.28468c.103.16354.23016.34524.27861.41187.09086.11508.12114.3089.09691.70866a.66849.66849,0,0,0,.41793.65414c.27256.11509.68443-.11508.87825-.48455a.74783.74783,0,0,1,.35736-.37553.41258.41258,0,0,0,.25439-.27256,1.04152,1.04152,0,0,1,.11508-.29073c.03634-.06663.14537-.315.23622-.54512a2.52848,2.52848,0,0,1,.29679-.56329.56254.56254,0,0,0,.13931-.24228.1815.1815,0,0,1,.07268-.12114c.03634-.01211.04846-.15748.03029-.33313a1.6066,1.6066,0,0,0-.3513-.87219.31352.31352,0,0,1-.09086-.1696,1.94487,1.94487,0,0,0-.49666-.7874c-.53907-.56329-.62387-.636-.75106-.636a1.76857,1.76857,0,0,1-.48455-.16354A4.33594,4.33594,0,0,0,15.008.39257c-.26651-.04845-.55118-.09691-.636-.11508-.15142-.03634-.36341-.06663-.69654-.11508-.09691-.012-.1878-.04841-.1938-.07867C13.46953.0474,13.306.03528,13.11217.05346c-.18776.01211-.41187.02422-.49666.01817a2.02387,2.02387,0,0,0-1.1811.1393A.82841.82841,0,0,1,10.4653.18671,4.32739,4.32739,0,0,0,10.06555.005,2.86369,2.86369,0,0,0,9.73242.28362ZM6.09827,11.11943c.0424.11508-.12114.27862-.23622.23622a.1792.1792,0,1,1,.23622-.23622Z"/>

</g>
</svg>
