<?xml version="1.0" encoding="UTF-8"?>
<svg xmlns="http://www.w3.org/2000/svg"
     version="1.1"
     width="12.96659049mm"
     height="48.26000276mm"
     viewBox="0.00000000 0.00000000 36.75573574 136.79994133">

<g transform="scale(4.96730009)">   <defs>
      <style type="text/css"><![CDATA[
      .a {
        stroke: #000;
        stroke-linecap: round;
        stroke-linejoin: round;
        stroke-width: 0.01px;
      }
    ]]></style>
   </defs>
   <path class="a"
         d="M3.80582.042c-.07874.01212-.15142.103-.19988.24834a2.46767,2.46767,0,0,1-.23016.45427,1.12274,1.12274,0,0,0-.17565.38764.352.352,0,0,1-.11508.23622.14652.14652,0,0,0-.05453.16353A.50117.50117,0,0,1,2.97,1.81062a.807.807,0,0,0-.09691.315,1.30739,1.30739,0,0,1-.18171.43.7546.7546,0,0,0-.15142.3513.261.261,0,0,1-.0424.19382.33984.33984,0,0,0-.05451.19988c.09085.28468.20593.73289.28467,1.06.04846.218.11508.46033.14537.54512a3.0226,3.0226,0,0,1,.12719.97517,1.24138,1.24138,0,0,0,.04846.38158c.04845.12114.03028.22411-.07874.46638-.12114.27256-.1272.34525-.06663.533a1.8597,1.8597,0,0,1,.04846.58146c-.01212.19988-.01817.53907-.01817.75712.00605.50272.00605.75711.00605,1.0539a.83974.83974,0,0,0,.06057.34524c.06057.12114.06663.26045.02423.66021-.01817.15142-.02423.47849-.02423.72683.00606.24833.00606.58752.00606.75711-.00606.16354-.01211.32707-.01211.36342a7.29863,7.29863,0,0,0,.109,1.21743.37874.37874,0,0,1-.00606.29679,1.102,1.102,0,0,0-.07874.29679c-.02422.29679-.07874.49061-.13931.50878-.03634.01212-.03634.07874,0,.18171a.72469.72469,0,0,1,.0424.321.423.423,0,0,0,.09691.29073,1.187,1.187,0,0,1,.19382.41187c.06057.24227.06057.315-.01211.43a.212.212,0,0,0-.02423.25439.23953.23953,0,0,1,.00606.23016.63124.63124,0,0,0-.05451.25439c0,.16959-.05452.70866-.103,1.02968a3.84217,3.84217,0,0,0-.03028.48455,5.77814,5.77814,0,0,1-.03029.75711,11.742,11.742,0,0,0-.03028,1.1811,1.38695,1.38695,0,0,1-.06057.33313c-.03634.13325-.07874.28467-.0848.33313a.515.515,0,0,1-.36341.46032c-.14537.07269-.29074.11509-.321.09086-.09691-.06057-.20594-.30285-.16959-.36342A.33578.33578,0,0,0,1.91,21.30173a.32393.32393,0,0,1,.06057-.33313A.46324.46324,0,0,0,2.0493,20.69c-.03029-.0848.09691-.24832.2241-.29073.05451-.01816.05451-.06056,0-.16354a.21129.21129,0,0,1,.01212-.27256.21335.21335,0,0,0,.04239-.212A1.76025,1.76025,0,0,1,2.3582,18.988a.55169.55169,0,0,0-.07874-.38764c-.103-.18777-.103-.23016-.02423-.51483a1.29061,1.29061,0,0,0,.05451-.70261c-.07874-.55117-.23622-.77528-.47849-.69049a.59911.59911,0,0,1-.18777.03634.20583.20583,0,0,0-.1393.07874.335.335,0,0,1-.1696.09086,1.7963,1.7963,0,0,0-.58146.60569c0,.03635-.06057.09086-.13931.12719a1.62643,1.62643,0,0,0-.44821.59964.68975.68975,0,0,1-.07268.16959.24435.24435,0,0,0-.01818.23016.42225.42225,0,0,1-.02422.315.39962.39962,0,0,0,.00605.38159,1.13686,1.13686,0,0,1,.05452.5754c-.0424.57541-.03635.739.06056.92065a1.51441,1.51441,0,0,1-.01817.94488.48951.48951,0,0,0-.06662.25439c0,.09691,0,.23016-.00606.29679a4.53556,4.53556,0,0,0,.09691.57541c.04846.24833.103.56329.11508.69655.03029.321.19382.69655.32708.73288a3.10317,3.10317,0,0,1,.29073.11508,2.22768,2.22768,0,0,0,1.36886-.15142.36161.36161,0,0,1,.19988-.12114c.04845,0,.09085-.02422.09085-.04846,0-.03028.11508-.11508.25439-.19382a3.24623,3.24623,0,0,0,.7026-.54512,1.235,1.235,0,0,1,.4785-.30285.84081.84081,0,0,1,.27862.19382c.11508.109.29073.27257.3937.36342a.42323.42323,0,0,1,.19382.424.81743.81743,0,0,1-.0848.38765.2217.2217,0,0,0-.0424.19987.38867.38867,0,0,1-.01211.27256,2.76414,2.76414,0,0,1-.3089.78135.61253.61253,0,0,0-.06663.35735c.01211.315-.00606.36342-.18776.46033a.26677.26677,0,0,0-.13326.24833.769.769,0,0,1-.06662.30285c-.11508.20593-.07269.27256.20593.38764.23017.09691.29073.103.4361.03028a1.93616,1.93616,0,0,0,.6602-.97516.7596.7596,0,0,1,.16354-.3513.49032.49032,0,0,0,.13931-.27862,1.60786,1.60786,0,0,1,.109-.41187,1.97715,1.97715,0,0,0,.09691-.36947.60578.60578,0,0,1,.13931-.30284,1.36215,1.36215,0,0,0,.19988-.636,3.27116,3.27116,0,0,1,.18776-.73289,1.57833,1.57833,0,0,0,.22411-.72077.23346.23346,0,0,1,.03634-.17565,1.17312,1.17312,0,0,0,.09086-.25439A.62068.62068,0,0,1,6.81,22.03466a.41178.41178,0,0,0,.12719-.16959,1.91732,1.91732,0,0,1,.13326-.44215.82807.82807,0,0,1,.15142-.28468,1.05129,1.05129,0,0,0,.05451-.41792,1.78787,1.78787,0,0,1,.07268-.53907C7.48838,19.9208,7.28245,19.2,7.07046,19.2a3.95665,3.95665,0,0,0-1.62931.75711c-.23017.18777-.37553.26651-.44821.24228a.14408.14408,0,0,0-.16354.04846.71072.71072,0,0,1-.24228.18776c-.18776.09691-.20593.09085-.321-.02423a.32577.32577,0,0,1-.12114-.33313c.00605-.03634.02423-.1817.03028-.33313a6.02427,6.02427,0,0,1,.09086-.642.79565.79565,0,0,0,.00605-.50272c-.05451-.09691-.04845-.16354.01817-.30285a1.22087,1.22087,0,0,0,.12114-.40581.45555.45555,0,0,1,.09086-.25439c.04239-.01212.03634-.07874-.01818-.18171-.07268-.13931-.06662-.20593.03029-.49667a1.589,1.589,0,0,0,.0848-.60569,1.761,1.761,0,0,1,.06662-.55118c.0848-.25439.0848-.30284.00606-.45426-.0848-.15748-.07874-.19382.02423-.39976.07874-.15142.103-.2665.06662-.33919-.04845-.09691-.0424-.24833.02423-.86008a2.05749,2.05749,0,0,0-.00606-.7026.618.618,0,0,1,.05452-.4361c.05451-.109.08479-.19382.06056-.19382-.01817,0,.00606-.06057.05452-.13931a.21685.21685,0,0,0,.03027-.24231.4011.4011,0,0,1,.09691-.424c.06057-.05451.06663-.15748.02423-.40581a1.79475,1.79475,0,0,1,.15748-1.32646.42276.42276,0,0,0,.02423-.35736.576.576,0,0,1,.03028-.424,1.91571,1.91571,0,0,0,.109-.97517.59992.59992,0,0,1,.02422-.36341,2.16262,2.16262,0,0,0,.06065-.49058.768.768,0,0,1,.05451-.33313,2.29622,2.29622,0,0,0,.09692-.69655,7.80409,7.80409,0,0,0-.09086-.9691,8.92361,8.92361,0,0,1-.06662-2.06541c.03028-.18776,0-.27862-.19988-.5754a1.50683,1.50683,0,0,1-.23622-1.24167c.05451-.19382.04845-.24228-.03634-.32707A.40671.40671,0,0,1,4.92633.89C4.90816.55079,4.87182.39332,4.80519.36909A.836.836,0,0,1,4.55082.16921C4.38121-.00038,4.18133-.03067,3.80582.042Z"/>

</g>
</svg>
