<?xml version="1.0" encoding="UTF-8"?>
<svg xmlns="http://www.w3.org/2000/svg"
     version="1.1"
     width="52.36423529mm"
     height="14.62799035mm"
     viewBox="0.00000000 0.00000000 148.43410052 41.46513880">

<g transform="scale(6.18595529)">   <defs>
      <style type="text/css"><![CDATA[
      .a {
        stroke: #000;
        stroke-linecap: round;
        stroke-linejoin: round;
        stroke-width: 0.01px;
      }
    ]]></style>
   </defs>
   <path class="a"
         d="M14.29939.12614a.39729.39729,0,0,1-.19988.15748.98315.98315,0,0,0-.34524.3089,1.28044,1.28044,0,0,1-.36342.33919c-.321.14536-.48455.53906-.3089.73894a3.41985,3.41985,0,0,1,.28467.4361.96211.96211,0,0,0,.23017.321,3.48372,3.48372,0,0,1,.82374.90854.19055.19055,0,0,0,.05451.14537,1.29259,1.29259,0,0,1,.33919.7026,2.3986,2.3986,0,0,1-1.33253.72683,2.04024,2.04024,0,0,0-.45426.12114,1.23048,1.23048,0,0,1-.39976.09691,1.85522,1.85522,0,0,0-.7026.212,1.74621,1.74621,0,0,1-1.08419-.13325.23257.23257,0,0,1-.07874-.19988,11.00193,11.00193,0,0,0,.103-1.79285,2.71667,2.71667,0,0,0-.09691-1.22349c-.13931-.34525-.09691-.4361.2665-.61781.28468-.14536.3513-.30284.13931-.315a.53612.53612,0,0,1-.19988-.04845c-.04239-.02423-.14536.03028-.24227.13931-.212.2241-.27256.23016-.44821.04845a3.01751,3.01751,0,0,0-.40582-.3089A3.59559,3.59559,0,0,1,9.37508.4835C9.19947.30179,9.12073.25939,9.042.30179A.65867.65867,0,0,1,8.73914.326a.52791.52791,0,0,0-.424.12113,2.32158,2.32158,0,0,1-1.2235.24834,1.41366,1.41366,0,0,0-.527.11508.93325.93325,0,0,1-.30284.103,1.90824,1.90824,0,0,0-.424.12113,3.37783,3.37783,0,0,1-.6602.15143c-.29679.02423-.38158.06057-.52089.21805-.13326.14536-.20594.1817-.30891.14536a1.21486,1.21486,0,0,0-.2241-.03634c-.04846.00606-.18171.00606-.29679.00606a.545.545,0,0,0-.30285.07874,3.86728,3.86728,0,0,1-1.27195.527,1.74718,1.74718,0,0,0-.52695.16354c-.07874.04845-.16353.07268-.19382.05451s-.212.103-.39975.2665A1.91894,1.91894,0,0,1,.55012,2.973C.17459,3.076.005,3.26973.005,3.59681c0,.212.03028.29679.11508.33918a1.2622,1.2622,0,0,1,.27862.3937c.212.41187.49061.76317.62386.76317a2.15425,2.15425,0,0,1,.51484.25439,1.29085,1.29085,0,0,0,.75711.26045,2.90329,2.90329,0,0,1,.7026.14537,2.92815,2.92815,0,0,0,.79346.15748,3.92949,3.92949,0,0,1,.67232.08479c.13325.03029.37552.07269.53906.09086a2.8054,2.8054,0,0,1,.49061.08479.47531.47531,0,0,0,.27256.01212c.0424-.03029.103-.0424.1272-.02423s.11508-.01211.19382-.06663c.08479-.05451.18776-.07874.2241-.05451a9.162,9.162,0,0,0,1.2659.3089,7.01883,7.01883,0,0,1,.82374.23017c.48455.18776,1.07207.15142,1.21744-.06663.13325-.212.2665-.2241.62991-.06057a1.4522,1.4522,0,0,0,1.066.13325,1.28281,1.28281,0,0,1,.44821-.05451.77871.77871,0,0,0,.45427-.09085c.17565-.09086.2665-.109.34524-.06057.07874.0424.18171.01817.3937-.07874a1.563,1.563,0,0,1,.73895-.19382,1.29347,1.29347,0,0,0,.44821-.18171,1.62335,1.62335,0,0,1,.79951-.28467.79844.79844,0,0,0,.33313-.15748.44775.44775,0,0,1,.35736-.12114.784.784,0,0,0,.34524-.03634.32237.32237,0,0,1,.36342.0424c.13931.09085.29679.11508.84191.12113.5754.01212.70866.03029.87825.13931a1.94923,1.94923,0,0,0,1.14475.4361,2.4251,2.4251,0,0,0,.73289-.09691,3.531,3.531,0,0,1,.78134-.06663c.38159-.00605.96911-.02422,1.30224-.03634.92065-.03634,1.39914-.218,1.63536-.62386a.91427.91427,0,0,1,.24228-.29073c.04846-.01817.09085-.06057.09085-.09086,0-.09691-.36341-.26044-.50878-.23016-.06662.01817-.18776.04846-.25439.06057-.07268.01817-.2665.07874-.424.13325a1.08455,1.08455,0,0,1-.79951.07874,2.91122,2.91122,0,0,0-.68443-.07874,2.39063,2.39063,0,0,1-.66021-.09085,1.77541,1.77541,0,0,0-.56935-.0848c-.77528-.01817-1.0963-.24227-1.61113-1.0963a2.68473,2.68473,0,0,0-.34525-.43.66346.66346,0,0,1-.19988-.27862c0-.04845-.12113-.17565-.27256-.29073-.2665-.19988-.29679-.24833-.27861-.41187a.5317.5317,0,0,0-.103-.24227,2.42141,2.42141,0,0,1-.37553-.77529A2.02456,2.02456,0,0,0,16.29208.2715a.399.399,0,0,1-.19382-.17565C16.068.02317,15.91658.005,15.214.005,14.42658.005,14.36.01106,14.29939.12614Zm-7.238,1.97455a1.0411,1.0411,0,0,1,.26045.33919,4.24233,4.24233,0,0,0,.48455.79951c.07268.09691.11508.19382.09691.22411a2.43508,2.43508,0,0,0,.315.87219.223.223,0,0,1,.03028.2665c-.09085.1696-.24227.19988-.52089.103a.61973.61973,0,0,0-.36341-.03634.32.32,0,0,1-.27257-.03634.92141.92141,0,0,0-.26044-.0848A1.03888,1.03888,0,0,1,6.48,4.42052a1.61943,1.61943,0,0,0-.79952-.12114,1.8909,1.8909,0,0,1-.76922-.103.97508.97508,0,0,0-.44216-.12719.80208.80208,0,0,1-.32707-.218,1.03345,1.03345,0,0,0-.27256-.212A.462.462,0,0,1,3.6998,3.518c-.09692-.09691-.109-.15142-.06663-.23622.06057-.11508.19382-.17565.67232-.315a1.5134,1.5134,0,0,0,.40581-.18171,1.13162,1.13162,0,0,1,.35736-.14536,1.085,1.085,0,0,0,.3937-.16354.83116.83116,0,0,1,.46032-.14537,4.45391,4.45391,0,0,0,1.02968-.26044A.36266.36266,0,0,1,7.06138,2.10069Z"/>

</g>
</svg>
