<?xml version="1.0" encoding="UTF-8"?>
<svg xmlns="http://www.w3.org/2000/svg"
     version="1.1"
     width="32.03573160mm"
     height="31.56771272mm"
     viewBox="0.00000000 0.00000000 90.80992285 89.48329796">

<g transform="scale(3.64727927)">   <defs>
      <style type="text/css"><![CDATA[
      .a {
        stroke: #000;
        stroke-linecap: round;
        stroke-linejoin: round;
        stroke-width: 0.01px;
      }
    ]]></style>
   </defs>
   <path class="a"
         d="M16.53746.03847a8.87718,8.87718,0,0,0-.86613.55117,1.01816,1.01816,0,0,0-.26649.23017c-.01211.03634-.12719.09085-.26045.12719-.13325.03029-.28467.06663-.33313.07874a.961.961,0,0,0-.527.30285c-.08479.09085-.17565.13931-.23016.12114-.05451-.02423-.09085-.00606-.09085.04845,0,.15142-.218.35736-.44821.41793-.12114.03028-.218.08479-.218.12114a1.77477,1.77477,0,0,1-.44821.46638.45049.45049,0,0,0-.13326.23622c-.04239.16353-.03634.17565.4785.56329a2.117,2.117,0,0,0,.56329.27256.56823.56823,0,0,1,.4785.3937,1.38211,1.38211,0,0,1,.15142.424.586.586,0,0,0,.09085.26045.43282.43282,0,0,1,.03029.36947.54468.54468,0,0,0,.01211.36342,1.68032,1.68032,0,0,1,.09086.49666.64636.64636,0,0,1-.19988.636,3.11832,3.11832,0,0,1-.59964.58752c-.12113.07874-.27256.36947-.23622.46032.0424.103-.34524.5209-.6178.66021a.39328.39328,0,0,0-.22411.27862.4322.4322,0,0,1-.2665.30284,1.68933,1.68933,0,0,0-.41187.34524,2.52035,2.52035,0,0,1-.69654.65415,1.283,1.283,0,0,0-.58147.41793,1.61983,1.61983,0,0,1-.84191.424c-.218-.07874-.33919-1.30223-.16353-1.63536a2.54638,2.54638,0,0,0,.13325-.77529c0-.03634-.00606-.37553-.01817-.75711A4.11754,4.11754,0,0,1,9.91122,6.689,1.61132,1.61132,0,0,0,9.99,6.33165a.5047.5047,0,0,1,.103-.30284.084.084,0,0,0,.03634-.103,1.00146,1.00146,0,0,1,.11508-.41187,2.96456,2.96456,0,0,0,.1696-.5754c.01817-.11509.06057-.321.09691-.45427a2.95,2.95,0,0,0,.0848-.642,1.03657,1.03657,0,0,1,.09085-.50272.7117.7117,0,0,0,.13325-.43,1.34312,1.34312,0,0,0-.23622-.69654.25083.25083,0,0,1-.09085-.23622.24559.24559,0,0,0-.06663-.21805.31712.31712,0,0,1-.09691-.18171c0-.0424-.12719-.13931-.27862-.212a.74312.74312,0,0,0-.6178-.07268c-.62386.12113-.78134.12719-.90854.03634a.53226.53226,0,0,0-.2665-.0848c-.07269,0-.20594-.00606-.29073-.00606a5.31829,5.31829,0,0,0-1.15082.11508A.459.459,0,0,1,6.483,1.33474a4.07142,4.07142,0,0,0-1.93821-.27256c-.86614,0-.90248.00606-1.01756.1272a.74748.74748,0,0,1-.58752.12114.91163.91163,0,0,0-.424.02422,1.15555,1.15555,0,0,1-.26045.0424c-.06057-.006-.13325.06057-.16354.14537a1.44856,1.44856,0,0,1-.636.66626c-.14537.04845-.5209.45427-.4785.52089A1.11218,1.11218,0,0,1,.735,3.2245c-.03635.0424-.103.11508-.14537.16959a1.06754,1.06754,0,0,0-.103.46033,1.19609,1.19609,0,0,1-.08478.44205.76087.76087,0,0,0-.02423.61175A6.27074,6.27074,0,0,1,.36551,6.4527a2.12885,2.12885,0,0,0-.03634.51484,4.13367,4.13367,0,0,1-.103.91459,1.60535,1.60535,0,0,0-.03633.50276.99776.99776,0,0,1-.02422.41187c-.0424.06662-.01817.1817.06057.36341.103.23622.109.28468.03634.39976A1.31834,1.31834,0,0,0,.1959,10.208a5.58742,5.58742,0,0,1-.01817,1.09024,7.85763,7.85763,0,0,0-.02423.92065,3.94309,3.94309,0,0,1-.12719.90854.761.761,0,0,0,.03028.45427,4.74858,4.74858,0,0,1,.11508.68443,3.09439,3.09439,0,0,0,.06663.43.40782.40782,0,0,1-.02423.26044A.33917.33917,0,0,0,.208,15.2231a.27287.27287,0,0,1-.01211.23622.30265.30265,0,0,0,.03634.321.57581.57581,0,0,1,0,.636A.3959.3959,0,0,0,.1959,16.804a.343.343,0,0,1,.00606.27862c-.0424.07268-.03029.16959.03634.32707a1.05323,1.05323,0,0,1,.05451.79346,1.98079,1.98079,0,0,0-.0424.99939,2.4902,2.4902,0,0,1,.02423.60569,4.81318,4.81318,0,0,0,.0848,1.56268,3.0359,3.0359,0,0,1,.09691.4361.40729.40729,0,0,0,.12114.212.48208.48208,0,0,1,.12113.29679c0,.22411.16354.61175.25439.61175a2.229,2.229,0,0,1,.46639.2665c.44821.29073.745.38159.854.24834a.67021.67021,0,0,1,.2665-.15143,1.102,1.102,0,0,0,.3937-.27861c.19988-.212.20594-.212.16354-.64809-.02423-.24228-.03634-.4785-.03634-.527a3.99863,3.99863,0,0,0-.04846-1.50817,1.41354,1.41354,0,0,1-.15748-.73288,1.38588,1.38588,0,0,0-.1393-.51484c-.15143-.29073-.14537-.21805-.0424-.72683a6.45463,6.45463,0,0,0,.14536-1.10841.63783.63783,0,0,1,.06663-.26045.1542.1542,0,0,0-.03631-.21194c-.109-.109-.109-.14537-.02423-.36947a4.29273,4.29273,0,0,0,.09085-.86009c.01817-.6178.01212-.70865-.09085-.79951-.09085-.08479-.109-.1817-.09691-.49666a1.693,1.693,0,0,1,.09085-.527,1.49375,1.49375,0,0,0,0-.92065.46549.46549,0,0,1-.01211-.39369,1.23889,1.23889,0,0,0,.03634-.44216c-.01211-.11508-.02423-.2665-.02423-.33313s-.00605-.20593-.00605-.30284a2.13034,2.13034,0,0,1,.03634-.57536,1.16966,1.16966,0,0,0-.03029-.6602,2.06,2.06,0,0,1,.03634-1.02362,5.77729,5.77729,0,0,0,.109-1.21744,7.45145,7.45145,0,0,1,.06057-1.02362A2.75282,2.75282,0,0,0,3.15165,6.059,4.21635,4.21635,0,0,1,3.47877,4.7568a1.01856,1.01856,0,0,0,.14536-.3089c.05451-.212.321-.315.81163-.315a1.81533,1.81533,0,0,0,.60569-.0848.714.714,0,0,1,.56329.00606.951.951,0,0,0,.55724.03028c.109-.03634.2665-.07268.3513-.09085.08479-.01212.28467-.05451.44215-.0848a.58876.58876,0,0,1,.46638.03029c.103.05451.18777.11508.18777.1393a1.02013,1.02013,0,0,1-.0424.64809c-.07268.06663-.07268.11508-.02423.212a.2395.2395,0,0,1,.00606.23016.20524.20524,0,0,0,.00606.212.28051.28051,0,0,1,.02422.19382,2.57685,2.57685,0,0,0,.18777,1.03573c.07268.12114.07268.15748-.03029.3513a.56767.56767,0,0,0-.07874.41793,1.02454,1.02454,0,0,1-.01211.40581A17.34615,17.34615,0,0,0,7.658,10.91059c.06057.19382.06663.27862.01212.38158a.22823.22823,0,0,0-.01817.23017.34877.34877,0,0,1,0,.27256.80029.80029,0,0,0-.01214.3998.89378.89378,0,0,1,.02423.28468,1.22085,1.22085,0,0,0-.06663.73288c.04846.109.0424.16354-.03028.23017a.92342.92342,0,0,0-.0424.75711c.07268.06663.06057.11508-.0424.29073-.13931.24228-.15142.36947-.03028.52695a1.43647,1.43647,0,0,1-.02424.90248,1.56634,1.56634,0,0,0-.05451.46639,1.37876,1.37876,0,0,1-.13931.79345c-.06057.03634-.06057.07874-.01211.19382a.694.694,0,0,1-.01212.47244,2.18335,2.18335,0,0,0-.04845.51484.68115.68115,0,0,1-.06663.37553.98934.98934,0,0,0-.09691.38764,6.29036,6.29036,0,0,1-.02423.91459.64376.64376,0,0,1-.06057.26651c-.01817.01817.01212.07268.06057.12113s.07269.11509.05452.14537a.84941.84941,0,0,0-.03029.58752c.05451.30285.01817.41187-.25439.69049a1.52425,1.52425,0,0,0-.25439.3937c-.06663.14536-.13325.26044-.15748.26044-.07874,0-.17565.32708-.15142.49667a.53583.53583,0,0,0,.11508.26651.30116.30116,0,0,1,.09691.1393c0,.12114.52089.24228.87825.20594a6.00734,6.00734,0,0,1,1.23561,0,1.42408,1.42408,0,0,0,.48455-.03029,1.92477,1.92477,0,0,1,.5209-.07874,4.42641,4.42641,0,0,0,.58146-.05451.36375.36375,0,0,1,.3937.103,1.44234,1.44234,0,0,0,1.29618.16354.25148.25148,0,0,1,.18776,0,4.43219,4.43219,0,0,0,.84191.08479c.69049.03029.76923.04846.99334.19988.13931.09691.28467.20594.32707.24228a.35117.35117,0,0,0,.15142.08479,1.727,1.727,0,0,1,.51484.14537c.18776.06663.29073.07268.37553.03028a.715.715,0,0,1,.26045-.06056c.109,0,.16959-.04846.2241-.18171a.65444.65444,0,0,1,.24834-.27862c.25439-.12719.6602-.52089.6602-.62992,0-.18171.19988-.37553.56329-.55118a.98981.98981,0,0,0,.58146-.55723,4.388,4.388,0,0,1,.35736-.533,1.54786,1.54786,0,0,0,.23622-.32707.94639.94639,0,0,1,.13931-.212,3.55281,3.55281,0,0,0,.212-.33918,1.582,1.582,0,0,1,.37553-.44821c.109-.07269.19989-.15748.19989-.18777a1.58355,1.58355,0,0,1,.27861-.33919A2.37875,2.37875,0,0,0,20.111,18.815a1.36725,1.36725,0,0,1,.20594-.424,2.48043,2.48043,0,0,0,.24832-.33918,5.28106,5.28106,0,0,1,.70261-.89037,1.77478,1.77478,0,0,0,.23621-.424,3.84323,3.84323,0,0,1,.89037-1.28407,4.00324,4.00324,0,0,0,.83587-1.13263,3.07049,3.07049,0,0,1,.27862-.3937,1.46526,1.46526,0,0,0,.19988-.37553,1.41075,1.41075,0,0,1,.47243-.7026.63135.63135,0,0,0,.23017-.23016,1.76762,1.76762,0,0,1,.2241-.315.671.671,0,0,0,.03634-.64809c-.05451-.14537-.11508-.16959-.36341-.12114a1.85591,1.85591,0,0,0-.33313.29073c-.16354.16354-.3937.36947-.50878.47244a1.3454,1.3454,0,0,0-.29073.321,1.51633,1.51633,0,0,1-.17565.24833,1.65356,1.65356,0,0,0-.4361.67232.7712.7712,0,0,1-.16354.315c-.2665.25439-.33313.34524-.29073.40581.01817.03634-.0424.15142-.13931.24833-.23622.23622-.45427.58752-.40581.66021.01817.03634-.0424.13931-.13325.24227-.09691.09691-.27256.28468-.3937.41793a2.29553,2.29553,0,0,0-.33313.46032.519.519,0,0,1-.19988.24834.4466.4466,0,0,0-.17565.24227.99463.99463,0,0,1-.27256.37553,2.80491,2.80491,0,0,0-.58146.7874,10.50932,10.50932,0,0,1-1.05391,1.42338.68339.68339,0,0,0-.12114.212c-.04239.13325-.533.3937-.62386.33313a.71431.71431,0,0,1-.19988-.57541c.00606-.13931,0-.77528-.006-1.4052-.00606-.636.006-1.21744.02423-1.30224a2.71061,2.71061,0,0,0,.06662-.30284,1.93831,1.93831,0,0,1,.11508-.36948,1.66479,1.66479,0,0,0,.0848-.51483,1.16144,1.16144,0,0,1,.27256-.76317c.0424-.0424.212-.24228.36947-.44216.36342-.45427.65415-.80557.75712-.91459a1.14155,1.14155,0,0,0,.16959-.3089,1.53572,1.53572,0,0,1,.20594-.3513.90348.90348,0,0,0,.14537-.28468.3711.3711,0,0,1,.17565-.23622.66246.66246,0,0,0,.34524-.43.9219.9219,0,0,1,.29678-.56329.81069.81069,0,0,0,.24834-.24228,2.04094,2.04094,0,0,1,.38159-.37553c.18777-.13325.2241-.18776.19381-.30284-.03027-.12114.0424-.218.424-.58752A3.08545,3.08545,0,0,0,22.20068,9.13a.66168.66168,0,0,1,.1696-.24228c.34524-.3937.4361-.50878.4361-.58752a.34171.34171,0,0,1,.109-.18776c.05451-.06057.109-.1272.109-.15748.00606-.02423.01212-.07269.01818-.109a1.69448,1.69448,0,0,1,.30284-.35736q.29982-.30891.39976-.27256c.12719.05452.35735-.109.51483-.36947a1.0703,1.0703,0,0,1,.30891-.3089.559.559,0,0,0,.24833-.25439,2.17283,2.17283,0,0,0,.00609-1.11454,1.026,1.026,0,0,1-.07874-.36342c0-.20593-.09086-.40581-.15143-.34524-.01817.02423-.13325.00606-.25439-.03634-.27861-.09691-.39975-.03029-.56329.3089a.63806.63806,0,0,1-.51484.38764c-.09691,0-.28467.23622-.24227.30891a.6912.6912,0,0,1-.0848.30284,1.90769,1.90769,0,0,0-.14536.50878c-.03029.27862-.09692.45427-.16354.45427-.02423,0-.06663.06663-.0848.15142-.02423.0848-.06662.15142-.09691.15142s-.0848.109-.12114.24228-.09085.24228-.12114.24228a1.02766,1.02766,0,0,0-.23621.30284,4.20749,4.20749,0,0,1-.43.55118.97345.97345,0,0,0-.24227.33313.784.784,0,0,1-.19382.27862c-.30891.3089-.47244.58146-.46033.75711a.18289.18289,0,0,1-.06057.18777,1.61522,1.61522,0,0,0-.33313.26044,1.94923,1.94923,0,0,1-.34524.26651.88773.88773,0,0,0-.24228.25439,1.6508,1.6508,0,0,1-.23622.29679.10611.10611,0,0,0-.0424.13325c.02423.0424-.01817.13931-.09691.218a.57742.57742,0,0,0-.15142.212,1.79952,1.79952,0,0,1-.26045.321.94826.94826,0,0,0-.24227.36341,1.14493,1.14493,0,0,1-.27256.3937,1.66319,1.66319,0,0,0-.27256.33313c0,.02423-.07874.0848-.17565.13931-.16354.07874-.18777.07874-.27257,0a.59667.59667,0,0,1,.02423-.56935.42653.42653,0,0,0,0-.24833,1.40508,1.40508,0,0,1,0-.45427,1.61077,1.61077,0,0,0-.06662-.8298.43964.43964,0,0,1,.04239-.34524c.06663-.17565.07874-.26651.03029-.35736a.95181.95181,0,0,1-.01817-.66626c.03634-.103.05451-.19382.03634-.19382s.00606-.06057.04846-.13931a1.77656,1.77656,0,0,0,.12113-.49667c.02423-.19987.07269-.55118.103-.78134.05451-.33919.04846-.44215-.03028-.58752a.50146.50146,0,0,1-.03635-.37553.371.371,0,0,0-.03634-.33313c-.07874-.11508-.07268-.15142.01212-.28467.07268-.109.08479-.18171.0424-.26045a.21651.21651,0,0,1,.00605-.218.47951.47951,0,0,0,.03029-.2665.63115.63115,0,0,1,.01817-.28468.28213.28213,0,0,0,0-.212.30747.30747,0,0,1,.03634-.26045.38977.38977,0,0,0,.02423-.37552A4.39431,4.39431,0,0,1,17.87,3.59388a.41964.41964,0,0,1,.07269-.32707c.109-.103.21805-.09691.89642.05451.33313.07268.38159.06663.57541-.03634a.76736.76736,0,0,0,.44821-.62386,1.82627,1.82627,0,0,1,.1211-.61782,2.12254,2.12254,0,0,0-.39976-.86008A1.35487,1.35487,0,0,1,19.29335.632c0-.09691-.28468-.33313-.54512-.46032a1.31052,1.31052,0,0,0-.60569-.0848A5.48948,5.48948,0,0,1,16.85242.01424.64938.64938,0,0,0,16.53746.03847ZM14.47206,8.7907a.38091.38091,0,0,1,.09691.35736c-.01817.08479-.06663.7026-.06057.81768.00606.212,0,.59358-.01817.848a.92278.92278,0,0,0,.03028.37553.4644.4644,0,0,1-.0424.33313,2.47166,2.47166,0,0,0-.02422,1.169c.109,0,.09085.19382-.03634.33313a.4716.4716,0,0,0-.11509.41793c.01817.13325.03635.424.05452.642s.03028.41793.03634.45427c0,.03028-.02423.20593-.05451.38764-.04846.2665-.0424.3513.03028.41793a.781.781,0,0,1-.03028.65414.88942.88942,0,0,0-.03635.38765,6.33889,6.33889,0,0,1,.02423,1.02967,2.17162,2.17162,0,0,0,.06663.64809c.06662.16959.06662.24228-.03029.527a.86572.86572,0,0,0-.06662.40581,1.86332,1.86332,0,0,1-.315,1.36887,1.393,1.393,0,0,1-.527.08479c-.23622,0-.55118.01212-.7026.01817a1.19271,1.19271,0,0,1-.44216-.06662.27636.27636,0,0,0-.30284-.01212c-.07269.0424-.13326.06663-.13326.05452a.94249.94249,0,0,0-.27861.02422,1.18311,1.18311,0,0,1-.54513-.04845.88473.88473,0,0,0-.81768.03634.39976.39976,0,0,1-.424.04845.69443.69443,0,0,1-.38765-.81768.58154.58154,0,0,0,0-.32707,1.00747,1.00747,0,0,1,.01212-.39976c.09085-.44215.0848-.87825-.01817-.94488-.06057-.03634-.0848-.19382-.09086-.55117a1.93529,1.93529,0,0,0-.07874-.636c-.05451-.103-.04845-.15142.01212-.20594a.322.322,0,0,0,.05451-.23621c-.01817-.1272.03028-.212.19382-.37553a1.21215,1.21215,0,0,0,.33919-1.29012.982.982,0,0,1-.03029-.6057c.01817-.103.0424-.25439.05452-.33918a.95745.95745,0,0,1,.3089-.57541.24144.24144,0,0,0,.12119-.15143.822.822,0,0,1,.29679-.26651,2.27733,2.27733,0,0,0,.44215-.34524c.103-.109.22411-.23016.2665-.2665a6.37948,6.37948,0,0,0,.66021-.745,4.32681,4.32681,0,0,1,.29073-.3513.80453.80453,0,0,0,.19382-.29679c0-.09691.218-.33313.44215-.4785a.86037.86037,0,0,0,.25439-.27862.51354.51354,0,0,1,.20594-.20593c.07874-.02423.16959-.16354.24833-.36947a.97666.97666,0,0,1,.44821-.61781C14.254,8.66956,14.34484,8.66351,14.47206,8.7907Z"/>

</g>
</svg>
