<?xml version="1.0" encoding="UTF-8"?>
<svg xmlns="http://www.w3.org/2000/svg"
     version="1.1"
     width="32.66970012mm"
     height="15.57326617mm"
     viewBox="0.00000000 0.00000000 92.60696746 44.14477091">

<g transform="scale(6.18595529)">   <defs>
      <style type="text/css"><![CDATA[
      .a {
        stroke: #000;
        stroke-linecap: round;
        stroke-linejoin: round;
        stroke-width: 0.01px;
      }
    ]]></style>
   </defs>
   <path class="a"
         d="M9.56886.17459C9.478.26545,9.29024.44715,9.15093.58041a2.63768,2.63768,0,0,0-.36947.46638c-.06662.12719-.13931.23016-.16353.23016-.03029,0-.11509.0848-.19382.19382a.90171.90171,0,0,0-.109.81769.40878.40878,0,0,1-.03028.40581c-.17565.37553-.29679.41792-.96911.3089a4.62041,4.62041,0,0,1-.86614-.212.70829.70829,0,0,0-.47244-.07874,1.94921,1.94921,0,0,1-.49061.03634c-.16353-.00606-.43-.01211-.58146-.01211a1.72385,1.72385,0,0,1-.61175-.14537c-.32707-.14537-.32707-.14537-.59963-.03634A1.78031,1.78031,0,0,1,3.306,2.67a1.27462,1.27462,0,0,0-.3937.212,2.13231,2.13231,0,0,1-.8722.49667c-.04845-.01817-.12114.05451-.17565.17565A.66034.66034,0,0,1,1.598,3.833c-.09691.03634-.27862.11508-.41187.17565-.13325.05451-.36342.15748-.51484.2241C.41687,4.34175.005,4.687.005,4.79a1.14527,1.14527,0,0,0,.0848.24228c.06662.15748.16959.23016.59357.424.59358.26045.8298.27256,1.04785.03634a.47781.47781,0,0,1,.24228-.15748.51384.51384,0,0,0,.23016-.0848A2.19222,2.19222,0,0,1,3.2515,5.23211a.59437.59437,0,0,0,.30285-.07874c.27862-.14536.38158-.15142.55724-.02422.12113.08479.16353.08479.39369.006A1.00274,1.00274,0,0,1,5.12309,5.123a7.51534,7.51534,0,0,0,2.25923.03634.487.487,0,0,1,.33918.02423,1.65443,1.65443,0,0,0,.533.06057c.48455-.03634.62992.19382.44216.72077a.4442.4442,0,0,0-.02423.35736.25847.25847,0,0,1,.03028.19382.79838.79838,0,0,0,.19988.56329c.18171.14537.78134-.03634.93882-.27862a3.58662,3.58662,0,0,1,.34525-.41187,1.29491,1.29491,0,0,0,.29678-.43609c0-.23017.15748-.34525.49667-.35736.17565-.00606.41793-.03029.53907-.04846a.819.819,0,0,1,.43.04846c.23622.09691.212.103.745-.22411a2.13274,2.13274,0,0,1,.35735-.1817.69362.69362,0,0,0,.19383-.0848c.07268-.03634.14536-.05451.16353-.03634A1.16579,1.16579,0,0,0,13.742,4.796a1.39916,1.39916,0,0,1,.38764-.30891,2.23969,2.23969,0,0,0,.83586-.636.89792.89792,0,0,0-.14537-.1696c-.09691-.09691-.13931-.19382-.11508-.27256.03029-.13325-.14537-.26044-.4785-.33918a.41761.41761,0,0,1-.26044-.218c-.05451-.103-.103-.18171-.12114-.18171a1.39107,1.39107,0,0,0-.23622.1272.48461.48461,0,0,1-.27256.09085.51128.51128,0,0,0-.27256.05451A1.59133,1.59133,0,0,1,12.028,2.882a.89392.89392,0,0,0-.37553-.04845.47112.47112,0,0,1-.50214-.43791l-.00059-.0103V2.12492c.00606-.04846.01212-.24228.02423-.424a.802.802,0,0,0-.097-.51482,1.05279,1.05279,0,0,1-.109-.46033.4797.4797,0,0,0-.12114-.38764.5941.5941,0,0,1-.15142-.218c-.03634-.097-.103-.11513-.50272-.11513C9.76874.01106,9.71423.02317,9.56886.17459Z"/>

</g>
</svg>
