<?xml version="1.0" encoding="UTF-8"?>
<svg xmlns="http://www.w3.org/2000/svg"
     version="1.1"
     width="61.22885224mm"
     height="14.58886469mm"
     viewBox="0.00000000 0.00000000 173.56205721 41.35430090">

<g transform="scale(6.15867947)">   <defs>
      <style type="text/css"><![CDATA[
      .a {
        stroke: #000;
        stroke-linecap: round;
        stroke-linejoin: round;
        stroke-width: 0.01px;
      }
    ]]></style>
   </defs>
   <path class="a"
         d="M17.88187.03512A2.38836,2.38836,0,0,0,16.79163.5439c-.321.35736-.33313.424-.212.82979a1.20168,1.20168,0,0,1,.0848.45427c-.03634.09691-.35736.24228-.43.19988a2.44972,2.44972,0,0,0-.56329.06057,1.59921,1.59921,0,0,1-.75712.01817A2.37679,2.37679,0,0,0,14.49,2.046c-.09691,0-.55118-.01211-.99939-.03028a20.45587,20.45587,0,0,0-3.28285.03634A1.28,1.28,0,0,1,9.481,2.046a5.65919,5.65919,0,0,0-1.5627-.03633,5.70221,5.70221,0,0,1-.84191-.06057,4.183,4.183,0,0,0-1.1387-.0061A1.71839,1.71839,0,0,1,5.114,1.93093a3.69864,3.69864,0,0,0-.76922-.13325,5.27984,5.27984,0,0,0-.96911-.03634,3.916,3.916,0,0,0-1.0115.59357c-.22411.15143-.59964.3937-.83586.54513a5.25787,5.25787,0,0,0-.45427.30284,1.349,1.349,0,0,1-.212.13325c-.212.109-.51484.38765-.51484.46639,0,.03028-.06662.07268-.14536.09691-.0848.01817-.15142.07874-.15142.13325-.00606.06057-.01817.2241-.03635.36947-.02422.23622-.006.28467.13326.40581a.9891.9891,0,0,0,.97516.06057l.32707-.109.46033.15142c.26044.0848.59357.212.745.27862.2665.12114.44821.12719,1.23561.06057.03634-.00606.36341.01817.72683.05451.36947.03028.75105.06057.848.06663.103,0,.46639.01817.81769.03634a7.99584,7.99584,0,0,0,1.605-.00608,9.75293,9.75293,0,0,1,1.484-.01211h1.21138c.58147-.00606,1.41126-.01212,1.8413-.01212a2.49551,2.49551,0,0,0,.96911-.103,6.0081,6.0081,0,0,1,1.67171-.23621A4.35492,4.35492,0,0,1,16.15569,5.032c.18171.01817.52695.04845.75711.07268.41188.03029.75107.1272.76317.20594a.55725.55725,0,0,0,.1696.37552.54332.54332,0,0,1,.13325.19988c.00606.03634.01211.09691.01817.13325a1.524,1.524,0,0,0,.28468.38159c.25439.27862.3089.3089.53906.3089.24228,0,.28467-.03028.61175-.38158a1.669,1.669,0,0,0,.38764-.55724c.09691-.50272.44821-.963.642-.84191a3.12465,3.12465,0,0,0,1.11447-.06057,3.60513,3.60513,0,0,1,.40582-.06057,1.26105,1.26105,0,0,0,.36947-.12114,1.9703,1.9703,0,0,1,.68443-.15142,2.80743,2.80743,0,0,0,.66626-.11508.91714.91714,0,0,1,.3937-.04845,1.23659,1.23659,0,0,0,.9691-.212c.109-.09691.218-.15748.24834-.13931a5.28742,5.28742,0,0,0,.94488-.41792A7.82854,7.82854,0,0,1,27.3791,3.112a.85022.85022,0,0,0,.33313-.14537,1.41378,1.41378,0,0,1,.26651-.212c.13325-.0848.16353-.14537.15748-.34524a.75262.75262,0,0,1,.03634-.28468c.02423-.02423-.06057-.14536-.18775-.27256a.53677.53677,0,0,0-.46034-.23016,1.05808,1.05808,0,0,0-.41793.09691A1.85447,1.85447,0,0,1,26.519,1.834a3.79817,3.79817,0,0,0-.67231.09691,6.04451,6.04451,0,0,1-1.15082.09085c-.48455.00606-1.02967.01817-1.21138.01817-.642.01212-2.338-.03634-2.78618-.08479-.62386-.06057-.73288-.1272-.963-.61781-.103-.2241-.23016-.47849-.27861-.56329s-.13931-.25439-.212-.37553C19.02663-.00122,18.89337-.03757,17.88187.03512Z"/>

</g>
</svg>
