<?xml version="1.0" encoding="UTF-8"?>
<svg xmlns="http://www.w3.org/2000/svg"
     version="1.1"
     width="43.50835983mm"
     height="18.86066840mm"
     viewBox="0.00000000 0.00000000 123.33087534 53.46323211">

<g transform="scale(6.18595529)">   <defs>
      <style type="text/css"><![CDATA[
      .a {
        stroke: #000;
        stroke-linecap: round;
        stroke-linejoin: round;
        stroke-width: 0.01px;
      }
    ]]></style>
   </defs>
   <path class="a"
         d="M18.86622.0898a1.22354,1.22354,0,0,1-.72683.43609.97321.97321,0,0,0-.7026.44216,1.60889,1.60889,0,0,1-.46638.38158c-.40582.212-.38765.19383-.40582.40582a2.19359,2.19359,0,0,1-.5754,1.00544c-.13931.04846-.23622.212-.26651.46033a.988.988,0,0,1-.12719.34524.67484.67484,0,0,0-.11508.26651.79518.79518,0,0,1-.20594.30284,1.94039,1.94039,0,0,0-.28467.36342.62685.62685,0,0,1-.18777.218.363.363,0,0,0-.11508.26044.37881.37881,0,0,1-.11508.26651,1.453,1.453,0,0,0-.45427.46032c0,.03634-.09085.09691-.20593.14537a.77913.77913,0,0,0-.29679.23622.5887.5887,0,0,1-.23622.19382,1.6763,1.6763,0,0,0-.3937.218.62693.62693,0,0,1-.57541.15142,3.56466,3.56466,0,0,1-.59358-.103,5.61523,5.61523,0,0,0-1.93821-.212,1.70436,1.70436,0,0,1-.78739-.03028c-.06057-.03029-.11509-.0424-.13326-.03029a2.95212,2.95212,0,0,1-1.35069-.11508.57591.57591,0,0,0-.66626.03029A1.98357,1.98357,0,0,1,5.56524,6.195a1.273,1.273,0,0,0-.38158-.103,2.11234,2.11234,0,0,1-.48455-.1393A1.48279,1.48279,0,0,0,3.68154,5.862c-.15142.07874-.19382.07268-.36341-.02423A1.20046,1.20046,0,0,1,2.83358,4.905a2.37791,2.37791,0,0,0-.09086-.49061.23429.23429,0,0,1,.04846-.30284,1.32422,1.32422,0,0,0,.17565-.3937,9.36321,9.36321,0,0,0,.218-1.64748l.0424-.44822-.30285.0424c-.30284.03634-.86008.30285-.86008.40582a5.35758,5.35758,0,0,1-.70866.82979.953.953,0,0,0-.19988.25439.83016.83016,0,0,1-.13325.218C.90748,3.518.88325,3.621.88325,4.0389a1.40973,1.40973,0,0,1-.08479.59358.86716.86716,0,0,0-.09086.3937.78436.78436,0,0,1-.109.41187.829.829,0,0,0-.13931.321.9242.9242,0,0,1-.33313.6057C.02317,6.41927.005,6.492.005,6.85537c0,.33313.01817.43.09691.46032a.66958.66958,0,0,1,.212.29679c.06057.14536.15143.2665.19988.2665a.58625.58625,0,0,1,.27256.17565c.16959.1696.20594.17565.533.14537a5.66153,5.66153,0,0,0,.59358-.09085,2.70509,2.70509,0,0,1,.66626-.0424,8.10267,8.10267,0,0,0,1.21138-.01817,1.43863,1.43863,0,0,1,.53906.03028,10.87967,10.87967,0,0,0,2.39854.18171,2.27116,2.27116,0,0,1,.636.07874.971.971,0,0,0,.39369.05451,1.0549,1.0549,0,0,1,.38765.04846,1.49187,1.49187,0,0,0,.3937.08479c.15748.01212.38764.03634.52089.05451.75711.0848.90854.07874,1.15687-.05451a.49554.49554,0,0,1,.51484-.0424,2.12449,2.12449,0,0,0,1.21138-.02422.48985.48985,0,0,1,.3513.04845c.14537.07874.218.0848.315.03634a.20242.20242,0,0,1,.25439.01817A1.892,1.892,0,0,0,14.057,8.515a.99575.99575,0,0,1,.4361-.09691,2.936,2.936,0,0,0,.71471-.01817c.11509-.01817.46033-.04846.75712-.06663.30284-.02423.61175-.04845.69654-.05451a3.25577,3.25577,0,0,0,.97517-.44821c0-.02423.01817-.09691.03028-.16354.06057-.24228.07268-.51484.03028-.51484a.847.847,0,0,1-.26044-.16959c-.19988-.15748-.23622-.16354-.81163-.15142a1.74718,1.74718,0,0,1-.76923-.0848.56319.56319,0,0,0-.38764-.04845c-.41793.07874-.636-.13326-.47244-.45427.05451-.09691.11508-.18171.13931-.18171a.995.995,0,0,0,.25439-.20593,2.36487,2.36487,0,0,1,.46033-.32708c.16353-.08479.2665-.18171.29073-.28467a1.79414,1.79414,0,0,1,.36947-.49061,1.975,1.975,0,0,0,.33313-.38764c0-.03635.13931-.14537.30285-.24834A.93947.93947,0,0,0,17.5337,3.73a.79522.79522,0,0,1,.25439-.3089,3.34188,3.34188,0,0,0,.79345-.8298,3.80967,3.80967,0,0,1,.28468-.40581,4.18452,4.18452,0,0,0,.39975-.739A3.48981,3.48981,0,0,1,19.7263.647a.54644.54644,0,0,0,.20593-.43V.005H19.4174C19.0237.005,18.89045.02317,18.86622.0898Z"/>

</g>
</svg>
