<?xml version="1.0" encoding="UTF-8"?>
<svg xmlns="http://www.w3.org/2000/svg"
     version="1.1"
     width="25.80235264mm"
     height="37.23558353mm"
     viewBox="0.00000000 0.00000000 73.14058034 105.54970778">

<g transform="scale(4.85881581)">   <defs>
      <style type="text/css"><![CDATA[
      .a {
        stroke: #000;
        stroke-linecap: round;
        stroke-linejoin: round;
        stroke-width: 0.01px;
      }
    ]]></style>
   </defs>
   <path class="a"
         d="M7.26259.08628a1.44153,1.44153,0,0,0-.4058.27862c-.12114.12114-.16354.13931-.2665.0848C6.46915.38913,6.22687.47392,6.22687.589c0,.06663-.37553.28468-.4361.24834A3.88778,3.88778,0,0,0,4.8156,1.861c-.12114.2241-.13325.28467-.06661.36947a.18207.18207,0,0,1-.103.3089c-.103.03634-.109.05451-.03029.23622.05452.13931.06663.23016.02423.30284a.25769.25769,0,0,0,0,.24834.92947.92947,0,0,1,.03029.40581A13.47261,13.47261,0,0,0,4.6763,5.71921a8.22092,8.22092,0,0,1,.16353,1.30223c-.03029.51484-.05451.7026-.12114.77529-.06057.07268-.05451.18776.01212.54512a1.36053,1.36053,0,0,1,.03634.533A.14286.14286,0,0,0,4.749,9.002c.01211.02423.03634.40582.04845.848a9.15706,9.15706,0,0,0,.0848,1.07813,1.37061,1.37061,0,0,1,.03634.45427,1.76458,1.76458,0,0,0,.01817.86008,1.19837,1.19837,0,0,1,.07874.3513.67642.67642,0,0,0,.09085.29679.446.446,0,0,1,.0424.37553,1.8466,1.8466,0,0,0,.20594,1.07207,1.41387,1.41387,0,0,1,.12113.3937,2.19413,2.19413,0,0,0,.321.957,2.09149,2.09149,0,0,0,.41187.54512c.3513.28468.44821.38765.41187.44821-.04845.07874.2665.424.38764.424a1.94048,1.94048,0,0,1,.315.08479.61.61,0,0,0,.68443-.218.21391.21391,0,0,1,.19382-.0848c.18171.07268.78135-.36947,1.29013-.94488a2.5352,2.5352,0,0,1,.23622-.218,1.4738,1.4738,0,0,0,.30284-.38158.90531.90531,0,0,1,.29679-.32708,1.03287,1.03287,0,0,0,.3513-.48455,2.5511,2.5511,0,0,1,.36947-.57541,4.63758,4.63758,0,0,0,.81163-.9691c.13931-.33919.51484-.29679.7026.07874a4.01635,4.01635,0,0,0,.22411.35736,1.7408,1.7408,0,0,1,.23621.83585.41573.41573,0,0,0,.06057.23016.8973.8973,0,0,1,0,.76923,1.46668,1.46668,0,0,0-.15748.3513c-.01817.09085-.06662.16354-.09691.16354-.03634,0-.06057.03634-.06057.08479a.29123.29123,0,0,1-.07874.1696c-.16959.1817-.29073.424-.25439.533a1.68014,1.68014,0,0,1-.424.8843.2457.2457,0,0,0-.12114.14537.237.237,0,0,1-.13931.14538.51622.51622,0,0,0-.212.23621,1.2992,1.2992,0,0,1-.37553.37553,1.36893,1.36893,0,0,0-.35735.30285.70962.70962,0,0,1-.30891.21805c-.11508.0424-.212.09691-.212.12114s-.09085.07873-.19382.12114a1.337,1.337,0,0,0-.4785.3089,2.88173,2.88173,0,0,1-.52089.30284,6.65008,6.65008,0,0,0-.59358.315.87008.87008,0,0,1-.36341.13931,3.10432,3.10432,0,0,0-.92671.15748,3.50449,3.50449,0,0,1-1.46577.06057,4.168,4.168,0,0,0-1.31435.03634.22554.22554,0,0,1-.23016-.01211,3.81949,3.81949,0,0,0-1.02968-.212,2.07,2.07,0,0,1-.44821-.09691.5744.5744,0,0,0-.27862-.04846c-.218.00606-.33313-.06663-.78134-.50272a3.63606,3.63606,0,0,0-.45427-.3937,2.94093,2.94093,0,0,1-.29679-.22411c-.23621-.212-.34524-.218-.60569-.03634-.212.14537-.38158.44215-.25439.44215.09086,0,.1696.27862.103.3937-.04845.09086-.03634.13326.07874.20594a5.294,5.294,0,0,1,.51484.46032c.65414.636.81768.75106,1.169.854a4.3987,4.3987,0,0,0,1.22955.17565c.103-.03634.53907.13931.53907.218a3.19108,3.19108,0,0,0,.71471.04845c.38765.00606.8722.01212,1.07208.01212a12.66632,12.66632,0,0,0,2.11992-.13326,3.40444,3.40444,0,0,1,.48455-.09085,1.81025,1.81025,0,0,0,.424-.103A1.73946,1.73946,0,0,1,9.52789,21.134c.33313.01212.45427-.006.56935-.09691a.49177.49177,0,0,1,.25439-.11508.1338.1338,0,0,0,.12718-.07268c.01213-.03634.103-.07874.206-.09086.41792-.04845.56935-.09691.65413-.23016a.48373.48373,0,0,1,.22411-.18171c.22411-.07268.44821-.27861,1.02362-.93882.1817-.20593.41792-.46638.52089-.56935a1.38963,1.38963,0,0,0,.26651-.38764c.04239-.103.09691-.19382.12113-.19382.03029,0,.109-.103.18171-.2241.103-.17566.11508-.24834.06663-.36342-.0424-.09691-.0424-.15748.01211-.212a10.00628,10.00628,0,0,0,.86008-1.95638,2.638,2.638,0,0,1,.15142-.51484,3.159,3.159,0,0,0,.0848-1.64142.87032.87032,0,0,1,.103-.79952c.12114-.16353.12114-.17565.01817-.43609a2.645,2.645,0,0,0-.745-.87825.64728.64728,0,0,1-.15748-.18171c-.06663-.09691-.16959-.18171-.22411-.18171a.30708.30708,0,0,1-.1817-.07874,1.45185,1.45185,0,0,0-.61175-.26045.65843.65843,0,0,1-.2665-.07874.23163.23163,0,0,0-.24228.03635.33044.33044,0,0,1-.23622.05451.3358.3358,0,0,0-.212.02423c-.18171.103-.44216.38158-.44821.49666a.963.963,0,0,1-.15748.30285,2.069,2.069,0,0,0-.23017.3937c-.04845.109-.103.19987-.13325.19987a2.35824,2.35824,0,0,0-.321.57541c-.29679.636-.37553.73289-.642.82374-.12719.04846-.24833.17565-.40581.4361a2.10994,2.10994,0,0,1-.33313.45427,1.49254,1.49254,0,0,0-.27256.36341c-.16959.29679-.35736.49667-.46033.49667a.355.355,0,0,0-.16959.09691.6117.6117,0,0,1-.75106-.03029c-.11508-.08479-.27861-.20593-.36341-.2665-.3089-.218-.40581-.533-.43-1.39915a12.89846,12.89846,0,0,0-.17565-2.30768,6.594,6.594,0,0,1-.109-.9691,2.58216,2.58216,0,0,0-.06057-.55724.582.582,0,0,1,.01818-.315A4.91654,4.91654,0,0,0,6.80227,8.354a3.31606,3.31606,0,0,1,.103-.59357A.49977.49977,0,0,0,6.93556,7.5a.3805.3805,0,0,1,.0424-.23016A10.02924,10.02924,0,0,0,6.92341,4.629,3.91108,3.91108,0,0,1,6.99,3.29644a1.83043,1.83043,0,0,0,.03634-.3937.68893.68893,0,0,1,.32708-.642c.19987-.12114.218-.12114.36341-.02423a.72646.72646,0,0,1,.23623.29679,2.40563,2.40563,0,0,0,.29679.43,1.75722,1.75722,0,0,1,.218.26045,1.8755,1.8755,0,0,1-.37553.55724c-.03634,0-.0424.04239-.02423.09691.02423.06057-.03028.15748-.15142.27256a.73621.73621,0,0,0-.20594.3089c-.00605.07874-.02422.16354-.03028.19988a.39378.39378,0,0,0,.41187.44215c.16354.00606.26649-.06662.642-.43.24834-.24227.62992-.59963.848-.79951a1.7366,1.7366,0,0,0,.39976-.45427,1.2109,1.2109,0,0,1,.1393-.33313A4.10351,4.10351,0,0,0,10.4,2.26074l.13931-.58146L10.36979,1.437c-.0969-.13931-.218-.3089-.26651-.38158a1.9761,1.9761,0,0,0-.47849-.4846.45187.45187,0,0,1-.16354-.109A.97266.97266,0,0,0,8.74654.23165,1.13446,1.13446,0,0,1,8.29228.165,1.32365,1.32365,0,0,0,7.92281.062,1.20613,1.20613,0,0,1,7.65024.00754.70244.70244,0,0,0,7.26259.08628Z"/>

</g>
</svg>
