<?xml version="1.0" encoding="UTF-8"?>
<svg xmlns="http://www.w3.org/2000/svg"
     version="1.1"
     width="25.95617959mm"
     height="23.14126030mm"
     viewBox="0.00000000 0.00000000 73.57654311 65.59732061">

<g transform="scale(4.96730009)">   <defs>
      <style type="text/css"><![CDATA[
      .a {
        stroke: #000;
        stroke-linecap: round;
        stroke-linejoin: round;
        stroke-width: 0.01px;
      }
    ]]></style>
   </defs>
   <path class="a"
         d="M6.77912.03174a3.63752,3.63752,0,0,1-.4361.212,2.69649,2.69649,0,0,0-.52089.27861.60582.60582,0,0,1-.24226.13329,2.992,2.992,0,0,0-1.53847,1.278,1.79721,1.79721,0,0,1-.30285.36948,1.27732,1.27732,0,0,0-.26045.43609,1.61627,1.61627,0,0,1-.25439.46033.90466.90466,0,0,0-.17565.2665.48863.48863,0,0,1-.218.212,1.56492,1.56492,0,0,0-.36947.3937,3.85762,3.85762,0,0,1-.33313.424.68927.68927,0,0,0-.1817.30284,3.43555,3.43555,0,0,1-.47244.89037A6.31911,6.31911,0,0,0,.8918,6.93664a1.37322,1.37322,0,0,1-.09693.28466,2.16932,2.16932,0,0,0-.12114.29678A3.22743,3.22743,0,0,1,.49808,7.936a2.65392,2.65392,0,0,0-.24221,1.0539,5.43617,5.43617,0,0,1-.13931.65415,3.00959,3.00959,0,0,0-.09691,1.10841,3.67755,3.67755,0,0,0,.0848.78135.61662.61662,0,0,1,.06056.2665c0,.1272.16354.3513.46639.6602.315.315.88431.58147,1.08418.50273a.18865.18865,0,0,1,.17565.06662.85056.85056,0,0,0,.36948.14537.63219.63219,0,0,0,.49666-.06057,2.125,2.125,0,0,1,.55118-.15748,1.49272,1.49272,0,0,0,.54512-.19382,3.145,3.145,0,0,1,.88431-.44216c.04846,0,.09086-.02422.09086-.05451s.06056-.07874.13325-.103a2.27776,2.27776,0,0,0,.51483-.424,2.5204,2.5204,0,0,1,.51484-.424.63511.63511,0,0,0,.218-.12113.24153.24153,0,0,1,.13325-.0848,2.13038,2.13038,0,0,1,.41187.36341,1.248,1.248,0,0,0,.49061.36341.40176.40176,0,0,1,.23622.109,1.88856,1.88856,0,0,0,.98728.55118,2.31767,2.31767,0,0,1,.49061.06056,2.04036,2.04036,0,0,0,.54512.04846.98086.98086,0,0,1,.18171-.04241c.02423-.00605.18777-.06056.36341-.12718a2.048,2.048,0,0,1,.50274-.1151,1.704,1.704,0,0,0,.45426-.0969,6.19827,6.19827,0,0,0,1.27194-.62991c0-.03029.06057-.07269.13326-.09692a.80979.80979,0,0,0,.39975-.28467c.22411-.24228.315-.36341.315-.41793a3.49948,3.49948,0,0,1,.45427-.50272,2.26547,2.26547,0,0,0,.45427-.54512,1.47826,1.47826,0,0,1,.20593-.44216,3.342,3.342,0,0,0,.33919-.92065c.07268-.315.16354-.6602.19988-.76317a.71945.71945,0,0,0-.0424-.50272,2.22137,2.22137,0,0,1-.09085-.62386,2.54128,2.54128,0,0,0-.46033-1.65354,2.64735,2.64735,0,0,1-.3937-.54512c-.23016-.41187-.46638-.69655-.59358-.69655a.90144.90144,0,0,1-.31495-.23016c-.50878-.49061-.58752-.55723-.67232-.55723a.84147.84147,0,0,1-.30285-.15748.49369.49369,0,0,0-.3513-.1272.41919.41919,0,0,1-.33318-.13316,4.46833,4.46833,0,0,0-1.284-.73289,1.235,1.235,0,0,1-.3513-.212,1.32262,1.32262,0,0,0-.35736-.212A1.006,1.006,0,0,1,8.55383.801,1.92689,1.92689,0,0,0,7.86335.056,3.89962,3.89962,0,0,0,6.77912.03174ZM6.07046,3.19951a2.97,2.97,0,0,1,.83586.19988A4.88333,4.88333,0,0,1,8.58408,4.62288c0,.09691-.15748.25439-.27256.27256a.14642.14642,0,0,0-.1272.15143.50374.50374,0,0,1-.09691.23622,1.205,1.205,0,0,0-.16353.29678.734.734,0,0,1-.22411.29077.94556.94556,0,0,0-.2665.33918.74127.74127,0,0,1-.212.27256.4926.4926,0,0,0-.15748.25439,3.02472,3.02472,0,0,1-.24227.533,1.6062,1.6062,0,0,0-.19382.54513,3.39389,3.39389,0,0,1-.09691.50878c-.212.75106-.26651.95094-.315,1.07813a.97072.97072,0,0,1-.72683.34525.642.642,0,0,0-.33309.06058.47038.47038,0,0,1-.47244,0c-.37556-.15147-.55118-.40586-.69656-1.0176a3.93668,3.93668,0,0,0-.17565-.56935,2.12287,2.12287,0,0,1-.19382-.80557c0-.0848.01212-.50878.03029-.93882a3.92454,3.92454,0,0,1,.2665-1.75651,2.94421,2.94421,0,0,0,.18777-.636c0-.26651.315-.62386.745-.84191C5.08319,3.12077,5.1801,3.12077,6.07046,3.19951Zm4.58508,2.70138a1.48552,1.48552,0,0,1,.32708.46033,3.26407,3.26407,0,0,0,.17565.47849c.07874.16354.19987.45427.27861.636a3.44594,3.44594,0,0,0,.28468.527,1.87948,1.87948,0,0,1,.3089,1.09025.96934.96934,0,0,1-.19988.38158.823.823,0,0,0-.15748.24227c0,.07269-.24833.33313-.3937.41187a1.31046,1.31046,0,0,1-.45426.03634c-.18171-.01211-.3937-.02422-.47244-.02422a.83351.83351,0,0,1-.67232-.4361c-.0424-.109-.12114-.29679-.16959-.41187a3.459,3.459,0,0,1-.212-1.42337c.00606-.26651.01212-.69655.01212-.957a1.43061,1.43061,0,0,1,.0848-.636c.04845-.09086.13325-.29679.19382-.45427a.9536.9536,0,0,1,.2241-.37553c.109-.07874.15142-.07268.33919.0424A3.28593,3.28593,0,0,1,10.65554,5.90089Z"/>

</g>
</svg>
