<?xml version="1.0" encoding="UTF-8"?>
<svg xmlns="http://www.w3.org/2000/svg"
     version="1.1"
     width="44.59363184mm"
     height="49.94868966mm"
     viewBox="0.00000000 0.00000000 126.40708383 141.58689908">

<g transform="scale(4.56959085)">   <defs>
      <style type="text/css"><![CDATA[
      .a {
        stroke: #000;
        stroke-linecap: round;
        stroke-linejoin: round;
        stroke-width: 0.01px;
      }
    ]]></style>
   </defs>
   <path class="a"
         d="M2.86647.06627a.20979.20979,0,0,1-.16354.02422A1.721,1.721,0,0,0,1.68538.37517a.73091.73091,0,0,1-.2968.16959A3.36141,3.36141,0,0,0,.37708,1.73192c-.06663.218.32707.321.69654.17565a1.08419,1.08419,0,0,0,.26651-.30285C1.431,1.4533,1.54,1.3261,1.57635,1.3261A10.239,10.239,0,0,1,3.5509,1.29582c.218.01817.54512.04845.72683.05451.3513.02423.69049.15748.745.3089.06057.15143-.20594.41187-.64809.62387a3.9441,3.9441,0,0,0-1.15081.7026c-.12114.12719-.18777.15748-.30891.12719a.3723.3723,0,0,0-.33918.12114.71589.71589,0,0,1-.26045.15748.35911.35911,0,0,0-.18776.12114c-.06057.06662-.09086.12114-.06663.12114.03028,0-.00606.09691-.07874.218-.15142.25439-.15748.32707-.03634.32707s.51484-.19382.51484-.25439.36341-.24833.41187-.20594c.01817.01817.07874-.00605.1393-.06057a.47.47,0,0,1,.18777-.109c.0424-.01211.212-.07874.36947-.14537a1.76873,1.76873,0,0,1,.37553-.13325.16627.16627,0,0,0,.12719-.06662,5.48919,5.48919,0,0,1,1.41732-.636c.11508-.01817.30285-.03634.40581-.04845a1.59921,1.59921,0,0,0,.54513-.24221,1.04807,1.04807,0,0,1,.64809-.218.6483.6483,0,0,0,.40581-.097A.518.518,0,0,1,7.74228,1.847a1.178,1.178,0,0,0,.24228-.06057c.07268-.03029.16959.02423.32707.17565a.83023.83023,0,0,0,.29679.218,1.23542,1.23542,0,0,1,.3513.212,1.036,1.036,0,0,0,.40581.212c.14537,0,.36342.212.60569.59964.16354.26044.16354.27861.09086.53906a1.4082,1.4082,0,0,1-.33313.5209,2.44106,2.44106,0,0,0-.36342.46032,2.51467,2.51467,0,0,1-.33918.45427,2.64626,2.64626,0,0,0-.62992.9691.45169.45169,0,0,1-.05451.20594.28286.28286,0,0,0,.00605.24228,2.21043,2.21043,0,0,1,.07874.58146c.02423.60569.0848.80557.28468.957.09691.07268.26044.20594.36341.29679a1.21666,1.21666,0,0,0,.38764.23016.86056.86056,0,0,1,.45427.636,2.50451,2.50451,0,0,1-.90853,1.7565,2.50029,2.50029,0,0,0-.642.69655.4742.4742,0,0,1-.212.212.74635.74635,0,0,0-.27862.3089,2.94674,2.94674,0,0,1-.56329.60569c-.79951.66626-.98728.848-1.07813,1.02362a2.09926,2.09926,0,0,1-.29073.3937c-.11508.11508-.36342.38764-.55118.60569-.3513.3937-.55724.55724-.642.50878-.03029-.01817-.07874.0424-.109.13931a2.18358,2.18358,0,0,1-.36341.47244c-.86008.88431-1.10236,1.1811-1.06,1.29012.01817.04845-.06057.17565-.20594.3089a2.59853,2.59853,0,0,0-.40581.55118,4.94533,4.94533,0,0,1-.29679.51484,1.82517,1.82517,0,0,0-.20593.40581,1.56391,1.56391,0,0,1-.19382.37553.81547.81547,0,0,0-.14537.29073.443.443,0,0,1-.14536.23016,1.23107,1.23107,0,0,0-.35131.739.25929.25929,0,0,1-.07874.23016.65011.65011,0,0,0-.15142.28467,5.84048,5.84048,0,0,1-.19382.55118.99724.99724,0,0,0-.11508.41793c.01817.01817-.02423.1272-.09085.23622-.06663.11508-.109.23016-.0848.2665s-.01817.15143-.0848.26045c-.11508.18776-.14536.321-.23622,1.1387a1.39455,1.39455,0,0,1-.12114.49667c-.07268.08479-.09085.23622-.07268.6178a3.17427,3.17427,0,0,1-.02423.424,1.4127,1.4127,0,0,0,.06057.59358.84909.84909,0,0,1,.06057.37553.51111.51111,0,0,0,.05451.28468,4.56876,4.56876,0,0,1,.15143.59357,4.16928,4.16928,0,0,0,.36947.98728,3.24113,3.24113,0,0,1,.30284.75711,5.15239,5.15239,0,0,0,.18171.99334c.16354.48455.19382.533.321.533a.53161.53161,0,0,1,.2665.09691.29372.29372,0,0,0,.22411.06057.59649.59649,0,0,1,.27862.02423c.15142.04846.2241.03634.30284-.03634a.82423.82423,0,0,1,.27256-.13931.4367.4367,0,0,0,.28468-.2665c.05451-.12114.13325-.22411.16959-.22411.04846,0,.05451-.06662.03028-.18776a1.073,1.073,0,0,1,.03635-.43,2.35727,2.35727,0,0,0-.38162-1.52643,3.04875,3.04875,0,0,1-.23622-.44821.67839.67839,0,0,0-.13325-.2241,2.36787,2.36787,0,0,1-.25439-1.1811,1.50206,1.50206,0,0,0-.12114-.527,1.00316,1.00316,0,0,1-.09085-.212,1.58142,1.58142,0,0,0-.06663-.18171c-.06662-.13325-.06057-.23016.03029-.54512a5.71527,5.71527,0,0,0,.12719-.59358,2.91742,2.91742,0,0,1,.18777-.81768,1.71543,1.71543,0,0,0,.07873-.48455c.00606-.19988.01818-.44822.02423-.54513a1.65735,1.65735,0,0,1,.33919-.72683.36147.36147,0,0,0,.06057-.23016.62179.62179,0,0,1,.0848-.315,1.22076,1.22076,0,0,0,.11508-.39975,1.81683,1.81683,0,0,1,.50272-.99939c.07874-.05452.14537-.1272.14537-.16354a2.04855,2.04855,0,0,1,.2241-.4361,1.26464,1.26464,0,0,0,.23622-.61175,2.97438,2.97438,0,0,1,.75711-1.66565c.1696-.15748.23622-.2665.23622-.39975,0-.212.02423-.24834.6057-.78134a3.303,3.303,0,0,0,.527-.58147c.04239-.09691.09691-.16959.13325-.16959a1.22613,1.22613,0,0,0,.27256-.33313,2.167,2.167,0,0,1,.55118-.55118,1.40966,1.40966,0,0,0,.33313-.2665.89018.89018,0,0,1,.28467-.218,1.193,1.193,0,0,0,.58752-.59964,5.10605,5.10605,0,0,1,1.04785-1.066,2.68931,2.68931,0,0,1,.30284-.24228,6.98166,6.98166,0,0,0,.97517-1.1811,1.36247,1.36247,0,0,1,.218-.321.27389.27389,0,0,0,.09691-.15143,1.96285,1.96285,0,0,1,.16353-.39975,1.86148,1.86148,0,0,0,.11508-1.30224,1.75623,1.75623,0,0,1-.05451-.54512,1.256,1.256,0,0,0-.19988-1.0963,2.30382,2.30382,0,0,0-.3937-.45427.63774.63774,0,0,1-.2241-.29679c-.06057-.16353-.04846-.20593.18171-.46638a2.37651,2.37651,0,0,1,.96305-.79345,2.53129,2.53129,0,0,1,.81162-.22411,2.8219,2.8219,0,0,0,.44821-.06663.583.583,0,0,1,.23622.109,1.39053,1.39053,0,0,0,.58147.15748,1.77543,1.77543,0,0,1,.52089.103,1.53323,1.53323,0,0,0,.33313.109,1.98927,1.98927,0,0,1,.27256.06663,1.43988,1.43988,0,0,0,.27256.06057.43405.43405,0,0,1,.24228.12113,1.0963,1.0963,0,0,0,.35736.18171,2.60907,2.60907,0,0,1,.46638.218.64331.64331,0,0,0,.23016.12114,1.454,1.454,0,0,1,.59358.321,2.00186,2.00186,0,0,0,.7874.321,1.12886,1.12886,0,0,1,.321.13325.80636.80636,0,0,0,.29077.11514.77427.77427,0,0,1,.29679.109c.0848.05451.16354.08479.18171.06662s.07874-.00605.13325.01817a1.44493,1.44493,0,0,0,.38159.0848,1.64655,1.64655,0,0,1,.3513.07268,1.5409,1.5409,0,0,0,.44215.06057,2.32527,2.32527,0,0,1,.67232.15143,2.08364,2.08364,0,0,0,.73289.15748,3.23369,3.23369,0,0,1,.79344.15748,2.48533,2.48533,0,0,0,.78134.1393,3.52445,3.52445,0,0,1,.66626.07874,2.05793,2.05793,0,0,0,.99334.07269.43008.43008,0,0,1,.3513.02423c.15748.05451.27256.06662.33918.02422a.23994.23994,0,0,1,.23622.01817,1.66086,1.66086,0,0,0,.88431.06057.27821.27821,0,0,1,.23016.00606c.109.05451.18171.03028.41187-.13325.27256-.19988.27862-.212.27862-.527,0-.35736.03029-.32708-.5754-.527a1.11889,1.11889,0,0,0-.66626-.03029A2.54691,2.54691,0,0,1,25.059,6.52886c-.14537-.07268-.23622-.0848-.315-.0424-.07874.03634-.20594.01817-.44216-.07268A.88266.88266,0,0,0,23.89,6.335c-.13325.0848-.45426.02423-.87825-.15142a3.47092,3.47092,0,0,0-.745-.218c-.50878-.06663-.55118-.07269-.65414-.1696a1.14886,1.14886,0,0,0-.92671-.23016.98792.98792,0,0,1-.72077-.12719,1.09715,1.09715,0,0,0-.43-.13931c-.0848.03028-.19988-.0424-.73289-.44821a.55393.55393,0,0,0-.23016-.1272,1.15108,1.15108,0,0,1-.29679-.11508c-.12114-.06663-.37553-.18776-.56329-.27256-.41187-.17565-.46639-.30285-.32708-.78134.09086-.30285.09086-.3513,0-.5633a3.80333,3.80333,0,0,0-1.02967-1.0539,4.49525,4.49525,0,0,1-.642-.2665,2.6261,2.6261,0,0,0-.71472-.26651c-.15142,0-.69049-.006-.957-.006a4.11669,4.11669,0,0,0-1.64748.73288c-.23016.23017-.36342.212-.69655-.07268a1.10919,1.10919,0,0,0-.36947-.24228.87553.87553,0,0,1-.3089-.19987c-.1272-.109-.32707-.27257-.44821-.35736a1.03483,1.03483,0,0,1-.29073-.33313c-.14537-.33919-.321-.40582-1.06-.39976-.83586.00606-.99334.03029-1.21138.1696a1.07091,1.07091,0,0,1-.48456.12719,2.08138,2.08138,0,0,0-.40585.04849C7.06391.89606,6.9246.82944,6.755.69619a1.09619,1.09619,0,0,0-.35736-.212.46753.46753,0,0,1-.218-.09085A2.59457,2.59457,0,0,0,5.21049.21163.95613.95613,0,0,1,4.90765.13289,1.13252,1.13252,0,0,0,4.199.05415a1.136,1.136,0,0,1-.80561.03634A.51343.51343,0,0,0,2.86647.06627Z"/>
   <path class="a"
         d="M9.75318,17.76456a1.55686,1.55686,0,0,0-.44216.23622.66392.66392,0,0,1-.27862.16959.13317.13317,0,0,0-.109.07874,1.26268,1.26268,0,0,1-.35736.29679,9.118,9.118,0,0,0-1.593,1.278.4889.4889,0,0,1-.24227.19988,1.02963,1.02963,0,0,0-.36947.3089,5.02992,5.02992,0,0,1-.36342.44215,2.62432,2.62432,0,0,0-.47849.7874c-.04846.11508-.15748.32707-.23622.46638a.77324.77324,0,0,0-.09691.636,3.08612,3.08612,0,0,0,.16959.67837c.12114.30285.56329.82374.7026.82374a1.45513,1.45513,0,0,1,.35736.18171.81725.81725,0,0,0,.61175.16354,1.1728,1.1728,0,0,0,.46032-.12114.20629.20629,0,0,1,.26651-.03029,1.47587,1.47587,0,0,0,.46032.07874l.33313.01212.19382-.29073c.16354-.24228.18777-.32708.15748-.5209a2.81983,2.81983,0,0,0-.91459-1.18715,2.442,2.442,0,0,1-.44216-.55724c-.103-.23016-.103-.24228.01212-.43a.48583.48583,0,0,0,.07874-.29073c-.02423-.06663.05451-.18171.25439-.36947a2.13743,2.13743,0,0,1,.33313-.27256,1.26118,1.26118,0,0,0,.24227-.18778c.29074-.26045.527-.37553.69655-.33312a.6072.6072,0,0,1,.35736.47244,1.09731,1.09731,0,0,0,.07874.29073,4.78113,4.78113,0,0,1,.2241.86008,1.66913,1.66913,0,0,0,.81768.8722,2.01747,2.01747,0,0,1,.33313.09691,4.24267,4.24267,0,0,0,1.74439-.06057.7004.7004,0,0,1,.59358-.1272c.0848.0424.218.01818.5209-.09085.23016-.07874.50878-.18171.62386-.218.11508-.0424.29073-.12114.38764-.16959a2.17073,2.17073,0,0,1,1.02967-.19382.378.378,0,0,0,.32708-.07269c.109-.06662.218-.109.23622-.09085.01817.02423.109,0,.20593-.04845a.80779.80779,0,0,1,.3089-.09086,9.29187,9.29187,0,0,0,1.58692-.17565c.27256-.04845.3089-.0424.43609.09086a.4913.4913,0,0,1,.14537.218,1.29141,1.29141,0,0,1-.26651.70866.5654.5654,0,0,0-.15748.28468c0,.218-.18776.3937-.71471.64809a4.358,4.358,0,0,0-.69655.41187,1.61193,1.61193,0,0,1-.43.2665c-.13325.06057-.41187.18171-.60569.27862a1.69683,1.69683,0,0,1-.51483.17565.523.523,0,0,0-.27257.09085.48194.48194,0,0,1-.23016.09086,1.87062,1.87062,0,0,0-.44821.15142,1.714,1.714,0,0,1-.50878.15142,1.37185,1.37185,0,0,0-.46031.15748,1.86644,1.86644,0,0,1-.5633.18777,1.03881,1.03881,0,0,0-.38159.103.28921.28921,0,0,1-.19987.06057,1.63635,1.63635,0,0,0-.49667.06663c-.2241.05451-.47849.11508-.56329.13325s-.23016.0424-.32707.05451a1.53357,1.53357,0,0,0-.56935.13931.202.202,0,0,1-.23017-.01817,2.13338,2.13338,0,0,0-1.14475.0848,4.16473,4.16473,0,0,1-.60569.11508,2.48959,2.48959,0,0,0-.642.16959,3.31975,3.31975,0,0,1-1.99273.17565,4.62238,4.62238,0,0,0-1.15082-.06662,4.71559,4.71559,0,0,1-.90853-.03634c-.13325-.06057-.47849.11508-.55723.28467-.04846.103-.03634.16959.04845.28467.1272.1696.33312.23622.78134.2544a1.26988,1.26988,0,0,1,.533.15142,1.241,1.241,0,0,0,.3937.15142,1.09563,1.09563,0,0,1,.52089.14537.52994.52994,0,0,0,.3089.01211,1.644,1.644,0,0,1,.51484.01211.99939.99939,0,0,0,.75712-.05451.2216.2216,0,0,1,.27256-.02423c.109.06057.15142.04846.27256-.08479a.574.574,0,0,1,.533-.1696.89857.89857,0,0,0,.321-.07874.51129.51129,0,0,1,.27257-.05451.26347.26347,0,0,0,.18169-.0424,2.253,2.253,0,0,1,.79346-.11508,3.87986,3.87986,0,0,0,.59964-.09691,2.28359,2.28359,0,0,1,.642-.06662.75524.75524,0,0,0,.39976-.04846,3.752,3.752,0,0,1,.58752-.14537c.54512-.09085.66626-.11508.90854-.15747a2.53241,2.53241,0,0,0,.51482-.19383,2.05647,2.05647,0,0,1,.54513-.16959A2.22466,2.22466,0,0,0,15.3437,25.578a1.45611,1.45611,0,0,1,.75106-.28467c.03028.01817.1272-.02423.218-.09691a.38142.38142,0,0,1,.29073-.09691,3.02944,3.02944,0,0,0,1.21138-.59358,1.673,1.673,0,0,1,.51484-.27862,2.69631,2.69631,0,0,0,.69654-.3937c.33919-.29073.55724-.41187.62387-.36947.03028.01817.16959-.12114.30891-.29679a1.60582,1.60582,0,0,1,.3634-.36341,2.89337,2.89337,0,0,0,.49061-.97517.53465.53465,0,0,1,.12114-.218c.06057-.0848.103-.1696.0848-.18777-.04846-.04845.09086-.29073.28467-.49061a3.06008,3.06008,0,0,0,.66021-1.50211c0-.19988-.03029-.24834-.24227-.38764a.46081.46081,0,0,0-.527-.0848,4.3871,4.3871,0,0,0-1.02362.41793,2.02443,2.02443,0,0,1-.47244.18776.80852.80852,0,0,0-.29073.09691,1.52794,1.52794,0,0,1-.37553.1272c-.103.01817-.33919.07268-.52089.12113s-.39976.103-.48456.12114a.85049.85049,0,0,0-.30284.1696c-.24832.2241-.36342.25439-1.09024.30284a3.6193,3.6193,0,0,0-.77529.103,1.327,1.327,0,0,1-.48455.09085.86751.86751,0,0,0-.53907.14537.79632.79632,0,0,1-.33313.17565c-.109.03028-.321.09691-.47244.15142a2.92047,2.92047,0,0,1-.75711.1272,3.97667,3.97667,0,0,0-.80556.12113c-.2665.07874-.35131.0848-.50272.02423-.19988-.08479-.38764-.321-.33313-.41792a4.00054,4.00054,0,0,0-.51485-1.07224.58493.58493,0,0,1-.09085-.28467,6.57487,6.57487,0,0,0-.27256-1.47183,1.45627,1.45627,0,0,1-.05452-.34525c0-.15747-.01211-.16353-.34524-.15747A3.31464,3.31464,0,0,0,9.75318,17.76456Z"/>

</g>
</svg>
