<?xml version="1.0" encoding="UTF-8"?>
<svg xmlns="http://www.w3.org/2000/svg"
     version="1.1"
     width="15.96575454mm"
     height="20.09662196mm"
     viewBox="0.00000000 0.00000000 45.25734171 56.96685682">

<g transform="scale(5.00686927)">   <defs>
      <style type="text/css"><![CDATA[
      .a {
        stroke: #000;
        stroke-linecap: round;
        stroke-linejoin: round;
        stroke-width: 0.01px;
      }
    ]]></style>
   </defs>
   <path class="a"
         d="M1.65478.07018A8.551,8.551,0,0,0,.60087,1.14832a.6817.6817,0,0,0-.14536.315.87158.87158,0,0,1-.0545.26647A5.2118,5.2118,0,0,0,.086,3.17133C-.023,4.42511-.023,4.522.09209,4.71584a.716.716,0,0,1,.0848.45427c-.01211.15142-.03028.4785-.0424.73289a2.5669,2.5669,0,0,1-.06662.527.44467.44467,0,0,0,.04845.27862c.04846.11508.07268.2241.04846.24833A5.7181,5.7181,0,0,0,.086,7.95629c0,.04845.01211.3089.02422.57541a2.28519,2.28519,0,0,0,.0848.60569.22215.22215,0,0,1,.00606.23622A1.03425,1.03425,0,0,0,.183,9.85818a6.56978,6.56978,0,0,1,.03028.66626.77759.77759,0,0,0,.49061.78134,1.45362,1.45362,0,0,0,.73289.03634c.27256-.02423.69654-.06057.9267-.07874a1.50738,1.50738,0,0,0,.69655-.1817,1.77234,1.77234,0,0,1,.60569-.18777,3.61258,3.61258,0,0,0,1.02968-.29679,2.91087,2.91087,0,0,1,.424-.15748,1.85678,1.85678,0,0,0,.53906-.28467,1.159,1.159,0,0,1,.34525-.19988.51585.51585,0,0,0,.15748-.03028c.13325-.04846.23621.06056.27256.27861a.89039.89039,0,0,0,.69049.79952.6515.6515,0,0,0,.27861-.00606c.09691-.06663.212-.3089.1696-.37553-.05451-.09085.08479-.3089.38158-.60569a1.055,1.055,0,0,0,.28468-.3937,2.24483,2.24483,0,0,1,.109-.3937A4.56247,4.56247,0,0,0,8.808,7.078a.66636.66636,0,0,1-.03029-.3089A.735.735,0,0,0,8.71715,6.436c-.09691-.23622-.09691-.24228.06057-.4785a1.0691,1.0691,0,0,0,.15748-.33313.558.558,0,0,1,.06663-.218.40106.40106,0,0,0,0-.315,6.04128,6.04128,0,0,1-.13931-1.55057,1.336,1.336,0,0,0-.09087-.70863c-.04846-.07874-.07874-.14536-.06057-.14536s0-.1272-.04846-.28468A.92612.92612,0,0,1,8.602,2.075c.103-.16354-.23622-.39976-.54512-.3937-.20593.01211-.636.25439-.636.35736a3.08135,3.08135,0,0,1-.68444.95093c-.43609.44821-.58752.67838-.58752.89643a.55845.55845,0,0,1-.16959.36947.53021.53021,0,0,0-.15142.50272c.00605.17565.01211.47244.02422.65415a6.3386,6.3386,0,0,0,.19995,1.18109c.00606.03029.04846.18171.09086.32708A6.21018,6.21018,0,0,1,6.2338,8.453c-.0424.14536-.39976.24227-.957.26044a3.50023,3.50023,0,0,0-1.21138.23017,4.66623,4.66623,0,0,1-1.702-.0424,1.0435,1.0435,0,0,1-.2604-.34525c-.11508-.2241-.12114-.27861-.04846-.38764A.78936.78936,0,0,0,2.14541,7.502a1.521,1.521,0,0,1-.03029-.7874,3.12382,3.12382,0,0,0,.00606-.98122,1.02927,1.02927,0,0,1,.05451-.61174,1.39262,1.39262,0,0,0,.11508-.39976,1.01376,1.01376,0,0,1,.06057-.26045c.02423-.01817,0-.12719-.04845-.24833a.52055.52055,0,0,1-.02423-.4361.45352.45352,0,0,0,.01211-.33313.688.688,0,0,1,.01817-.44215,1.09279,1.09279,0,0,0,.0424-.3937A8.08425,8.08425,0,0,1,2.18778.68194C2.18173.22162,2.12722.09442,1.90311.00962A.32141.32141,0,0,0,1.65478.07018Z"/>
   <path class="a"
         d="M5.23441,1.324a2.59184,2.59184,0,0,0-.848.7874,1.644,1.644,0,0,1-.3513.321,2.14067,2.14067,0,0,0-.73288,1.29618c.006.27861.006.642-.01212.90248a.54541.54541,0,0,0,.36946.49666c.109.02423.19382-.01817.30285-.13325a2.7812,2.7812,0,0,0,.55118-.6602,5.73964,5.73964,0,0,1,.70866-1.06A.77582.77582,0,0,0,5.42213,2.929.67031.67031,0,0,1,5.622,2.608a1.14307,1.14307,0,0,0,.26045-1.28407C5.76136,1.13618,5.59177,1.13618,5.23441,1.324Z"/>

</g>
</svg>
