<?xml version="1.0" encoding="UTF-8"?>
<svg xmlns="http://www.w3.org/2000/svg"
     version="1.1"
     width="24.48799470mm"
     height="57.49719402mm"
     viewBox="0.00000000 0.00000000 69.41479008 162.98421934">

<g transform="scale(4.96730009)">   <defs>
      <style type="text/css"><![CDATA[
      .a {
        stroke: #000;
        stroke-linecap: round;
        stroke-linejoin: round;
        stroke-width: 0.01px;
      }
    ]]></style>
   </defs>
   <path class="a"
         d="M10.44294.04057a.77863.77863,0,0,0-.30285.18777,7.18837,7.18837,0,0,1-.98122.73894,3.87315,3.87315,0,0,0-.67232.95094c-.103.19382-.212.39369-.23622.44215a1.70187,1.70187,0,0,0-.2241.66626A2.55962,2.55962,0,0,0,8.432,4.10476a1.87123,1.87123,0,0,1,.206.47244,4.85369,4.85369,0,0,0,.30284.73289,2.01635,2.01635,0,0,1,.212.5754.28266.28266,0,0,0,.09086.218.67678.67678,0,0,1,.1817.32707.42149.42149,0,0,1-.07874.50878c-.08479.13326-.23621.3937-.32707.58147a.88781.88781,0,0,1-.36341.44821.94214.94214,0,0,0-.533.53906.62443.62443,0,0,1-.321.33313c-.33313.18171-.527.35736-.527.48456a.91171.91171,0,0,1-.212.33918,1.5246,1.5246,0,0,0-.24228.33313.58572.58572,0,0,1-.3937.23622,2.62755,2.62755,0,0,0-.87219.69655,1.99785,1.99785,0,0,1-.44216.49666c-.41187.36342-.71471.66021-.9691.93277-.07268.07874-.17565.18776-.23016.23622a4.112,4.112,0,0,0-.75712.97516,1.75342,1.75342,0,0,1-.33918.69049,1.669,1.669,0,0,0-.18171.75106,1.09012,1.09012,0,0,1-.11508.3513,1.00759,1.00759,0,0,0-.12114.38764,1.26777,1.26777,0,0,1-.09085.3513,1.22839,1.22839,0,0,0-.06057.39976,4.68513,4.68513,0,0,1-.09086.71471,9.11622,9.11622,0,0,0-.14536,1.43549v.54512a1.13134,1.13134,0,0,0,.15748.72077c.13325.23016.14536.29073.09085.48456-.19382.64808-.212.83585-.09085,1.01756.08479.12719.08479.18776.01817.49061a2.55015,2.55015,0,0,1-.14537.46638A3.3784,3.3784,0,0,0,1.939,23.39v.51484c0,.09691,0,.315.00606.49061a3.23879,3.23879,0,0,1-.0848.66626,7.48813,7.48813,0,0,0-.27256,1.46577,2.72,2.72,0,0,1-.08479.59358,1.41412,1.41412,0,0,0-.07874.45427c-.04846.59963-.06057.68443-.109.75711a.62235.62235,0,0,0,.06057.3513c.103.26651.103.27862-.02423.44821-.07268.103-.18776.26045-.26044.35736-.103.13931-.11508.19988-.06057.29679.04845.09691.03028.212-.0848.52695a3.0475,3.0475,0,0,1-.25439.56329c-.06057.09086-.24833.44821-.41793.79346-.28467.58752-.30284.642-.23622.83585.103.30285.15143.32707.533.28468.30285-.03635.35736-.06663.49667-.26045a.942.942,0,0,0,.15142-.29679.37247.37247,0,0,1,.12114-.18171c.15748-.14536.36947-.55723.32707-.62992-.01817-.03028.00606-.11508.05452-.18776a3.34357,3.34357,0,0,0,.19382-.424.72894.72894,0,0,1,.15142-.28468,2.00626,2.00626,0,0,0,.20593-.50878,1.67673,1.67673,0,0,1,.24228-.53906,2.51526,2.51526,0,0,0,.58146-.9146.877.877,0,0,1,.13326-.33918,5.51537,5.51537,0,0,0,.44215-.87826,3.71655,3.71655,0,0,1,.18776-.65414c.04846-.12114.06663-.22411.04846-.22411-.02423,0,.00606-.06662.05451-.14536A.38506.38506,0,0,0,4.0226,26.049a.42081.42081,0,0,1,.06663-.27862.614.614,0,0,0,.09691-.29073,1.09973,1.09973,0,0,1,.12114-.37553.63254.63254,0,0,0,.09691-.34525.31971.31971,0,0,1,.05451-.212,1.08821,1.08821,0,0,0,.11508-.321c.01817-.11509.04846-.26651.06663-.33313.01211-.06663.06662-.33919.11508-.6057a4.43942,4.43942,0,0,1,.18776-.72077,1.62226,1.62226,0,0,0,.103-.51484,1.43821,1.43821,0,0,1,.07268-.46032.27009.27009,0,0,0-.00606-.315,1.13661,1.13661,0,0,1-.08479-.57541c0-.6602,0-1.44154-.01212-1.7141a6.46226,6.46226,0,0,1,.07269-.79951,1.349,1.349,0,0,0,.006-.73895.72152.72152,0,0,1-.03028-.35735,4.49979,4.49979,0,0,0,.0424-.49061.68545.68545,0,0,1,.09085-.40582c.07268-.06662.09691-.25439.103-.79951a4.34264,4.34264,0,0,0-.03634-.80557c-.03029-.06662.00605-.18171.109-.33313a.86038.86038,0,0,0,.11508-.76317c-.03634-.13325.00606-.24833.24834-.60569a3.26123,3.26123,0,0,0,.3937-.82374,1.24473,1.24473,0,0,1,.72077-.92671,1.49489,1.49489,0,0,0,.43-.33313,2.95912,2.95912,0,0,1,1.28406-.751,1.29739,1.29739,0,0,0,.424-.32708,1.96559,1.96559,0,0,1,.48455-.3937.48029.48029,0,0,0,.23017-.206.61166.61166,0,0,1,.27256-.24833.66466.66466,0,0,0,.27862-.24834.3535.3535,0,0,1,.18171-.18171c.06057-.02422.109-.06662.109-.09691a.371.371,0,0,1,.109-.16353,1.09445,1.09445,0,0,0,.1817-.28468.84387.84387,0,0,1,.39976-.35735c.24833-.13326.33919-.218.36342-.35131A.465.465,0,0,1,11.8481,6.897c.11508-.07269.212-.14537.212-.1696a6.05152,6.05152,0,0,1,.55118-.854,2.77371,2.77371,0,0,0,.46035-.9934c.03029-.29678.06663-.36341.25439-.46638a.316.316,0,0,0,.18171-.24227c0-.07874.01817-.23017.03029-.32708.01211-.103.03028-.23016.03028-.28467a.37469.37469,0,0,1,.09691-.18777,1.27715,1.27715,0,0,0,.18171-.62991.65258.65258,0,0,1,.06057-.19988A8.22394,8.22394,0,0,0,13.92566.68866c-.09085-.18776-.25439-.2241-.72683-.15142A1.58633,1.58633,0,0,0,12.94444.725a1.727,1.727,0,0,0-.46033.94488c-.06056.25439-.16959.3513-.321.29073a1.24077,1.24077,0,0,1-.36947-.751c-.0424-.27862-.27256-.7874-.35736-.7874a1.19975,1.19975,0,0,1-.26045-.212C10.96383-.00182,10.82452-.03211,10.44294.04057Z"/>

</g>
</svg>
