<?xml version="1.0" encoding="UTF-8"?>
<svg xmlns="http://www.w3.org/2000/svg"
     version="1.1"
     width="59.09901416mm"
     height="46.78114257mm"
     viewBox="0.00000000 0.00000000 167.52481022 132.60796103">

<g transform="scale(5.52403126)">   <defs>
      <style type="text/css"><![CDATA[
      .a {
        stroke: #000;
        stroke-linecap: round;
        stroke-linejoin: round;
        stroke-width: 0.01px;
      }
    ]]></style>
   </defs>
   <path class="a"
         d="M29.61213.08977a1.13318,1.13318,0,0,0-.33922.19382c-.06662.06057-.24833.2241-.40581.35736s-.35736.315-.44821.39975a3.74374,3.74374,0,0,1-.64809.3937,2.31792,2.31792,0,0,0-.533.315,1.04783,1.04783,0,0,1-.321.19988c-.14537.07268-.26651.15142-.26651.18171a.94022.94022,0,0,1-.50272.26044,1.80342,1.80342,0,0,0-.636.3513,1.22133,1.22133,0,0,1-.33312.14537,1.55968,1.55968,0,0,0-.36948.15748,3.904,3.904,0,0,1-1.32041.66626.64792.64792,0,0,0-.36947.19382,3.733,3.733,0,0,1-.95093.68443,1.79211,1.79211,0,0,0-.41793.212,1.65462,1.65462,0,0,1-.32707.1696c-.03029,0-.09691.05451-.15143.12719a.50879.50879,0,0,1-.19382.13931,1.95412,1.95412,0,0,0-.66626.39976c-.09085.08479-.23016.20593-.3089.2665a4.89353,4.89353,0,0,1-1.39309.51484.96966.96966,0,0,0-.50272.23622.78662.78662,0,0,1-.3089.19382.21857.21857,0,0,0-.15143.12114.81636.81636,0,0,1-.29073.24227c-.218.12114-.88431.56935-1.13264.75712a.45391.45391,0,0,1-.16354.09085,1.1814,1.1814,0,0,0-.29073.17565,2.74612,2.74612,0,0,1-.43.24833,1.481,1.481,0,0,0-.33919.218,1.65335,1.65335,0,0,1-.41792.24834.66826.66826,0,0,0-.26651.15748c0,.07874-.40581.2241-.51483.18776-.25439-.09691-.40582-.81163-.212-.98122.06663-.04845.103-.11508.0848-.13931-.01817-.03028.01817-.13931.07268-.24833a2.34042,2.34042,0,0,0,.212-.68443,4.94124,4.94124,0,0,0-.17565-.67838.262.262,0,0,1,.05452-.32707.96053.96053,0,0,0,.19987-.62386,1.89632,1.89632,0,0,1-.04845-.27862c-.0424-.33313-.06663-.41187-.17565-.527a1.40314,1.40314,0,0,1-.18777-.321c-.13325-.29678-.23016-.41187-.424-.48455a.3326.3326,0,0,0-.28467,0,.379.379,0,0,1-.19382.05451c-.15748-.01817-.22411.01212-.40582.18777a1.13876,1.13876,0,0,1-.424.24227c-.4361.11509-.75106.3513-1.48394,1.09025-.745.75711-.93883.96305-.93883,1.02362a1.53487,1.53487,0,0,1-.30284.38158,2.09792,2.09792,0,0,0-.30283.3573,1.653,1.653,0,0,1-.1817.2665,2.22852,2.22852,0,0,0-.30891.64809,1.33309,1.33309,0,0,1-.1756.41191c-.02422,0-.06057.09086-.07874.19382a3.98749,3.98749,0,0,1-.3513,1.01756,4.59041,4.59041,0,0,0-.23622.67838c-.06057.29073-.02422.65414.06663.65414.02423,0,.09691.0848.15748.18777a1.01049,1.01049,0,0,0,.33313.30284,2.24224,2.24224,0,0,1,.37553.24834,3.25109,3.25109,0,0,0,.24227.218c.13326.109.04846.26044-.2665.47849a4.66864,4.66864,0,0,0-.37553.27862.53583.53583,0,0,1-.18776.103.33057.33057,0,0,0-.1696.09691.49184.49184,0,0,1-.218.109,1.19161,1.19161,0,0,0-.84191.46638,1.3818,1.3818,0,0,1-.44821.38159,1.24945,1.24945,0,0,0-.36341.24833,3.26389,3.26389,0,0,1-.45427.36947c-.16354.11509-.41187.29074-.53906.38765a1.52031,1.52031,0,0,1-.3937.2241,1.04308,1.04308,0,0,0-.38159.26651,2.22142,2.22142,0,0,1-.92065.53906.1471.1471,0,0,0-.12114.109.41178.41178,0,0,1-.18776.19382.38411.38411,0,0,0-.18171.18776.251.251,0,0,1-.15748.14537c-.06057.02422-.11508.06057-.11508.09085a.5633.5633,0,0,1-.15142.18776.5293.5293,0,0,0-.15143.22411.94035.94035,0,0,1-.2241.3089c-.41793.43-.58752.642-.57541.71472a1.31565,1.31565,0,0,1-.46638.70866.67188.67188,0,0,0-.24228.3513.67791.67791,0,0,1-.212.321.93713.93713,0,0,0-.24833.33313.72628.72628,0,0,1-.14537.24227,1.65085,1.65085,0,0,0-.05451.45427c-.01817.3937-.00606.46032.09085.49061.3513.11508.44822.17565.4785.29679.04846.20593.30285.29073.642.21805a1.31213,1.31213,0,0,0,.739-.39976,3.14465,3.14465,0,0,1,.957-.52089c.19382-.05451.30284.01817.82979.56934a4.15989,4.15989,0,0,0,.68443.56935,1.25775,1.25775,0,0,1,.38159.315,1.63855,1.63855,0,0,0,.76923.642.72434.72434,0,0,1,.29073.15143c0,.02422.109.07267.24833.11508a.599.599,0,0,1,.34525.24227.60146.60146,0,0,0,.29073.24227,2.27764,2.27764,0,0,1,.41187.218.5233.5233,0,0,0,.30284.11508.29727.29727,0,0,1,.19988.02423c.1696.09691.52695-.13325.65415-.41793a1.41523,1.41523,0,0,1,.24833-.36341l.13931-.13325-.13325-.24228a2.09477,2.09477,0,0,0-.40581-.56935c-.67838-.61175-.69655-.636-.75106-1.1387a1.017,1.017,0,0,0-.36342-.59963,1.78235,1.78235,0,0,1-.37552-.55724,2.318,2.318,0,0,0-.32708-.52695,1.03686,1.03686,0,0,1-.30284-.55723.76283.76283,0,0,0-.097-.27853,2.47225,2.47225,0,0,1-.12114-.315c-.04846-.28468-.15142-.3937-.35736-.3937a.68236.68236,0,0,1-.27256-.0424,2.516,2.516,0,0,0-1.10236.46638c-.50272.46638-.86614.50273-.79951.07874.01211-.06662.03634-.2241.05451-.34524a1.04127,1.04127,0,0,1,.45427-.86614,3.81892,3.81892,0,0,0,.46638-.37553.63773.63773,0,0,1,.28468-.19988c.05451,0,.13325-.08479.18776-.1817.05451-.103.12114-.18171.15142-.18171s.06663-.05451.09086-.11508a.39629.39629,0,0,1,.20593-.18777,9.74037,9.74037,0,0,0,1.33858-.78739,2.64372,2.64372,0,0,1,.75711-.51484,4.06184,4.06184,0,0,0,.53907-.29073.88414.88414,0,0,1,.34524-.16354.57637.57637,0,0,0,.27862-.15748,2.27667,2.27667,0,0,1,.40581-.27862,1.968,1.968,0,0,0,.32708-.20593c.08479-.09086.09085-.09086.29678-.11508a.996.996,0,0,0,.36342-.1696,5.18658,5.18658,0,0,1,.45427-.2665c.12114-.06057.37553-.19988.56935-.3089.424-.25439.59963-.23017.68443.09085a.5188.5188,0,0,1,.03028.2665.69973.69973,0,0,0,.06663.27862c.09085.19988.09085.3089.02423.8722-.06057.55723-.06057.65414.01817.7874a3.03135,3.03135,0,0,1,.23016.59963c.07268.24833.18171.60569.24833.7874a2.96719,2.96719,0,0,1,.14537.69654c.01818.19988.04241.46638.06057.58752.01817.1272.0424.321.05451.424a5.71,5.71,0,0,0,.13931.854,2.35822,2.35822,0,0,1,.05451.47244,1.92739,1.92739,0,0,0,.0848.53906c.03634.06663.05451.12114.03634.12114a1.07925,1.07925,0,0,0,.17565.30285.708.708,0,0,1,.16959.424c-.01817.06663,0,.12114.03634.12114a1.80889,1.80889,0,0,1,.41793.35736c.32707.33918.6602.52089.81768.45427a1.74543,1.74543,0,0,0,.49061-.72078,1.092,1.092,0,0,0-.103-.82374.53333.53333,0,0,1-.04846-.39975.5384.5384,0,0,0-.02423-.36342c-.04239-.103-.06662-.20593-.04845-.21805a.44166.44166,0,0,0-.06663-.212.85725.85725,0,0,1-.09691-.32707,1.50966,1.50966,0,0,0-.15142-.77528,2.22666,2.22666,0,0,1-.15142-1.06v-.38159a2.89912,2.89912,0,0,0-.09086-.49061,4.53382,4.53382,0,0,1-.109-.61175,1.4638,1.4638,0,0,0-.1272-.47849,1.54443,1.54443,0,0,1-.12114-.60569,2.0072,2.0072,0,0,0-.08479-.533.299.299,0,0,1-.03634-.218.42958.42958,0,0,0-.06057-.27256c-.07874-.15748-.07874-.18777,0-.3089a.25389.25389,0,0,0,.03028-.30285.41036.41036,0,0,1-.01817-.315A.84292.84292,0,0,0,13.531,11.828c-.103-.38764-.04845-.527.23622-.64809a.663.663,0,0,0,.28468-.218,1.39074,1.39074,0,0,1,.15142-.18171,1.90322,1.90322,0,0,0,.48455-.52089.62453.62453,0,0,1,.30285-.26045,1.30844,1.30844,0,0,0,.424-.33918,2.31144,2.31144,0,0,1,.533-.424,3.499,3.499,0,0,0,.51484-.3513,2.61728,2.61728,0,0,1,.5754-.36947,1.20786,1.20786,0,0,0,.34525-.20594c0-.07874.39975-.23622.7026-.28467a1.64669,1.64669,0,0,0,.4785-.15142.65542.65542,0,0,1,.2665-.11508.93816.93816,0,0,0,.315-.212.9482.9482,0,0,1,.32707-.212.982.982,0,0,0,.321-.11508.55991.55991,0,0,1,.30284-.07874.81787.81787,0,0,0,.36342-.12719c.15748-.0848.50878-.24834.77528-.36342a5.88012,5.88012,0,0,0,1.39915-.81768.665.665,0,0,1,.20593-.13325.55072.55072,0,0,0,.19383-.13931,4.33239,4.33239,0,0,1,1.21138-.527.84354.84354,0,0,0,.321-.15143.85829.85829,0,0,1,.30891-.15142,1.41825,1.41825,0,0,0,.37552-.14537c.15748-.07268.3937-.17565.52091-.218a.79433.79433,0,0,0,.30283-.15748,1.86383,1.86383,0,0,1,.44822-.23017,2.54731,2.54731,0,0,0,.64809-.39975c.23621-.218.29678-.24834.41792-.24228A.55185.55185,0,0,0,27.783,3.215a.57476.57476,0,0,1,.23622-.12114c.0424,0,.13931-.07874.21805-.1817a1.39661,1.39661,0,0,1,.36947-.29679,2.2429,2.2429,0,0,0,.79952-.62992c.02422-.05451.06057-.103.09086-.103.09691,0,.29073-.24833.424-.53906A1.37309,1.37309,0,0,1,30.17546.9679a.62763.62763,0,0,0,.09082-.66A1.49067,1.49067,0,0,0,29.84835.005C29.83624.011,29.73327.04737,29.61213.08977ZM12.0592,6.14062a1.36573,1.36573,0,0,1,.01212.43,1.92137,1.92137,0,0,1-.35736.95094,2.345,2.345,0,0,0-.11508,1.4476c.04845.09085.07268.1817.04845.19988a3.64314,3.64314,0,0,0-.04845.6602c-.01817,1.00545-.01817,1.00545-.58752,1.29618-.2665.13325-.29073.13931-.38159.0424a.34223.34223,0,0,1-.07268-.32708c.01817-.12719.01211-.23622-.01211-.24833a2.2973,2.2973,0,0,1-.424-.67232,1.64586,1.64586,0,0,0-.27256-.424c-.18776-.20594-.19382-.25439-.03634-.61175a.85427.85427,0,0,0,.0848-.36947c-.05451-.13931.23016-.56935.65414-.99939a1.99709,1.99709,0,0,0,.64809-.92671,1.1,1.1,0,0,1,.46033-.5754A.32841.32841,0,0,1,12.0592,6.14062Z"/>

</g>
</svg>
