<?xml version="1.0" encoding="UTF-8"?>
<svg xmlns="http://www.w3.org/2000/svg"
     version="1.1"
     width="12.89814587mm"
     height="47.53356462mm"
     viewBox="0.00000000 0.00000000 36.56166150 134.74081035">

<g transform="scale(5.00686927)">   <defs>
      <style type="text/css"><![CDATA[
      .a {
        stroke: #000;
        stroke-linecap: round;
        stroke-linejoin: round;
        stroke-width: 0.01px;
      }
    ]]></style>
   </defs>
   <path class="a"
         d="M5.13648.26545A2.97815,2.97815,0,0,0,4.11286.853c-.19987.18171-.44215.38159-.533.44821A5.95829,5.95829,0,0,0,2.67132,2.24a.69625.69625,0,0,1-.16354.23017c-.70866.73288-1.15687,1.33857-1.08418,1.45967.01817.03029-.02423.12114-.103.20594a1.98113,1.98113,0,0,0-.41793.59963.32964.32964,0,0,1-.16354.19988.66033.66033,0,0,0-.212.32707,1.54793,1.54793,0,0,1-.218.41793.26607.26607,0,0,0-.08479.218.21645.21645,0,0,1-.09086.19988c-.1272.10305-.17566.38167-.07269.38167a.70679.70679,0,0,1,.24228.15748c.1817.15142.18776.15142.3513.0424a1.50707,1.50707,0,0,0,.533-.55724A.25412.25412,0,0,1,1.34485,5.965a2.58189,2.58189,0,0,0,.854-.93882,3.73757,3.73757,0,0,1,.4361-.636,4.09631,4.09631,0,0,0,.40581-.51484A3.69353,3.69353,0,0,1,3.592,3.26968c.20593-.18171.4361-.39976.51484-.4785A.61955.61955,0,0,1,4.44,2.62765a.68056.68056,0,0,0,.315-.13931,3.2649,3.2649,0,0,1,.98727-.48456c.1272-.03634.32708-.08479.44216-.11508a2.32913,2.32913,0,0,0,.99939-.55118A1.483,1.483,0,0,0,7.14738.88326C7.08681.63492,7.02624.532,6.899.45326,6.80819.3987,6.72945.33208,6.72945.30784c0-.03029-.04846-.07268-.103-.09691A6.59024,6.59024,0,0,0,5.82091.005C5.80274.01106,5.4999.12614,5.13648.26545Z"/>
   <path class="a"
         d="M6.30546,3.3363a2.799,2.799,0,0,1-.51483.07874,1.7649,1.7649,0,0,0-.47244.09086,1.08586,1.08586,0,0,1-.321.06662c-.17565,0-.44821.16354-.44821.27256a.65649.65649,0,0,1-.15142.24834.87526.87526,0,0,0-.15142.212c0,.02423-.09692.103-.20594.18171a.96037.96037,0,0,0-.27256.27256.35792.35792,0,0,1-.19988.17565,2.20365,2.20365,0,0,0-.71471.72683.59658.59658,0,0,1-.15143.23622.56458.56458,0,0,0-.15142.3089.339.339,0,0,1-.0848.22411.63536.63536,0,0,0-.12113.218c-.02423.07269-.06663.13326-.09691.13326-.02423,0-.06663.11508-.09086.25439a.81787.81787,0,0,1-.24227.45426c-.18171.18171-.19383.218-.14537.40582a.95147.95147,0,0,0,.16354.33313c.09085.109.13325.11508.34524.06662.26045-.06057.69049-.44215.69654-.62386a2.39033,2.39033,0,0,1,.47244-.90248,1.66882,1.66882,0,0,0,.30285-.35736,1.12675,1.12675,0,0,1,.35736-.3513.72185.72185,0,0,0,.29073-.25439,2.01645,2.01645,0,0,1,.98122-.5754,2.52456,2.52456,0,0,0,.79951-.37553A.18176.18176,0,0,1,6.36,4.82025a.688.688,0,0,0,.87825-.33919c.103-.18171.0848-.27862-.16354-.79345C6.87481,3.26968,6.75973,3.21517,6.30546,3.3363Z"/>
   <path class="a"
         d="M5.20311,6.64943a1.16088,1.16088,0,0,0-.44821.4361c-.1272.18171-.26651.38159-.321.4361-.05451.06057-.14537.16959-.19988.24228-.06057.07874-.19382.24833-.29679.38158a2.95248,2.95248,0,0,0-.27861.424.75325.75325,0,0,1-.1696.22411.568.568,0,0,0-.11508.321.81233.81233,0,0,1-.18171.41187,1.00384,1.00384,0,0,0-.25439.70866,3.8814,3.8814,0,0,1-.04845.39369A8.4566,8.4566,0,0,0,2.853,11.93106,8.21212,8.21212,0,0,1,2.76214,13.197a.97769.97769,0,0,0,.06057.33919c.06057.212.06663.321.01817.41187a.42808.42808,0,0,0,.01212.34524.98764.98764,0,0,1,.03634.4361,4.96137,4.96137,0,0,0-.109.745c0,.06663.00606.40582.01212.75712.01211,1.30223-.03029,1.78678-.18171,1.93821-.17565.17565-.17565.26044.0424.64809.15748.28467.19988.41187.16353.51483a1.57878,1.57878,0,0,0-.06662.321c-.00606.09691-.02423.24833-.03029.33313a1.42441,1.42441,0,0,0,.01817.3513.83968.83968,0,0,1-.006.36947,1.1797,1.1797,0,0,0,.006.4361,6.27974,6.27974,0,0,1-.03634,2.05329,1.45992,1.45992,0,0,0-.05451.45427c.01817.103.03634.38764.04846.636a2.40479,2.40479,0,0,0,.19987,1.066c.0424.06663.06057.14537.03635.16354-.03635.03634.03028.19988.2665.6602.04846.09691.06663.1696.0424.1696s.00606.05451.06662.12113.1272.109.14537.09086a.93416.93416,0,0,1,.33313.17565c.25439.16959.32707.19382.51484.15748.315-.06663.43-.12114.43-.218a.40576.40576,0,0,1,.12719-.212.31847.31847,0,0,0,.09691-.315.92111.92111,0,0,1,.06057-.3937,5.19091,5.19091,0,0,0,.23622-.96911c.01212-.07268.0424-.20593.06057-.30284.01817-.09086.0424-.3937.05451-.67838s.0424-.65414.06663-.81768c.02423-.16959.04846-.44215.06057-.60569a2.90793,2.90793,0,0,1,.14536-.8722.2.2,0,0,0,.00606-.17565,3.86492,3.86492,0,0,1,.0424-1.29617,2.89023,2.89023,0,0,0,.01821-1.32031c-.03634-.315-.06057-.75106-.06057-.96911a4.87635,4.87635,0,0,0-.02423-.636c-.01817-.13325-.05451-.45427-.07268-.72077a2.60778,2.60778,0,0,0-.13931-.67838.78124.78124,0,0,1-.02423-.58146,3.0295,3.0295,0,0,0,.07269-.533c0-.0848.02423-.38159.04845-.66626a2.0507,2.0507,0,0,0-.00605-.66626.47893.47893,0,0,1,.04845-.3937.77427.77427,0,0,0,.09085-.30284c-.01817-.07269-.01817-.07874.06057-.54513a6.45877,6.45877,0,0,0,.07874-.81768A6.40933,6.40933,0,0,1,6.02079,9.69a1.543,1.543,0,0,0,.07268-.36341,2.29578,2.29578,0,0,1,.14537-.76923.376.376,0,0,0-.03029-.315A.42186.42186,0,0,1,6.1601,7.988a1.71576,1.71576,0,0,0,.05451-.37553,1.62758,1.62758,0,0,1,.05451-.41187c.02423-.05451-.03028-.18776-.13931-.34524-.14536-.19382-.2241-.24833-.3513-.24228a.63854.63854,0,0,1-.26044-.03023A.60275.60275,0,0,0,5.20311,6.64943Z"/>

</g>
</svg>
