<?xml version="1.0" encoding="UTF-8"?>
<svg xmlns="http://www.w3.org/2000/svg"
     version="1.1"
     width="38.89843031mm"
     height="51.02733532mm"
     viewBox="0.00000000 0.00000000 110.26333273 144.64450033">

<g transform="scale(4.96730009)">   <defs>
      <style type="text/css"><![CDATA[
      .a {
        stroke: #000;
        stroke-linecap: round;
        stroke-linejoin: round;
        stroke-width: 0.01px;
      }
    ]]></style>
   </defs>
   <path class="a"
         d="M7.16662.16716a2.76779,2.76779,0,0,0-.27257.3089c-.04845.07269-.17565.218-.27256.32708a3.15571,3.15571,0,0,0-.636.957,1.80957,1.80957,0,0,1-.19382.48455,3.70868,3.70868,0,0,1-.59964.89037,2.26187,2.26187,0,0,0-.218.33313,2.7955,2.7955,0,0,1-.28467.40581,5.78622,5.78622,0,0,0-1.0963,1.61719c-.24834.49061-.321.58147-.61175.76923-.22411.14537-.315.23622-.29073.30285.04845.11508-.103.34524-.45427.70866-.15142.15748-.321.33313-.37553.39369-.04845.06057-.24227.24834-.424.424s-.41793.41793-.533.53906a1.44983,1.44983,0,0,1-.36947.29074,1.13064,1.13064,0,0,0-.52695.60569.5918.5918,0,0,0,.0424.27861c.12113.29679.26044.33313,1.19321.33313a2.44446,2.44446,0,0,1,.93882.07874,1.48361,1.48361,0,0,0,.957-.01817.89507.89507,0,0,1,.37553-.08479A7.46777,7.46777,0,0,0,4.756,10.02177c.01818-.01817.0848-.00605.15143.03029a2.76026,2.76026,0,0,0,.7026.09085,6.54569,6.54569,0,0,1,.81163.0848.5815.5815,0,0,0,.39369-.00606,1.32939,1.32939,0,0,1,.321-.0848c.0848-.01211.27256-.03634.424-.06057.15143-.01817.35736-.04845.45427-.06662a3.81108,3.81108,0,0,1,.61781-.03029.24746.24746,0,0,1,.13931.1272c.04845.09085.02422.18776-.11509.46032-.14536.28468-.16353.37553-.11508.50273a2.11351,2.11351,0,0,1,.07269.49061,2.03916,2.03916,0,0,0,.20593.745,2.59293,2.59293,0,0,1,.19382.49666.736.736,0,0,0,.15748.27257.69571.69571,0,0,1,.17565.43609.42817.42817,0,0,0,.15143.3513c.12113.09086.2241.37553.39369,1.10236a1.00469,1.00469,0,0,0,.07874.212c.0848.13931-.03028.35736-.2241.4361a5.21084,5.21084,0,0,1-1.49.06057,7.1781,7.1781,0,0,0-.99939.09085c-.89642.15143-1.14476.16354-1.32041.07269a2.24232,2.24232,0,0,0-1.23561-.05452,3.20411,3.20411,0,0,0-1.07207.97517.86567.86567,0,0,0,.12719.93276c.28468.424.35131.4785.65415.50878a4.93717,4.93717,0,0,1,.62388.14539,2.79751,2.79751,0,0,0,1.86553-.09086.69731.69731,0,0,1,.37553-.02422.32735.32735,0,0,0,.23016.006.55817.55817,0,0,1,.3513.02423.956.956,0,0,0,.72078-.05451,2.00027,2.00027,0,0,1,1.04178.04845.56836.56836,0,0,1,.20594.18171c.03634.109-.05451.33313-.13931.33313-.06663,0-.24833.44821-.24833.61781a2.78607,2.78607,0,0,1-.33313.83585c-.04846.0848-.15143.27256-.23622.424-.07874.15143-.218.37553-.30285.50273a2.984,2.984,0,0,0-.28467.60569,4.98892,4.98892,0,0,1-.30891.71471,1.27246,1.27246,0,0,0-.1393.963.90368.90368,0,0,1-.23622.963.41092.41092,0,0,0-.09691.27256,1.59911,1.59911,0,0,0,.1817.7026,2.41062,2.41062,0,0,1,.20594.424c.09085.21805.2241.50272.29679.636.06662.13325.16959.321.218.424a1.9225,1.9225,0,0,0,.26651.3513.61448.61448,0,0,1,.16354.24832,1.26595,1.26595,0,0,0,.2665.36342,1.74031,1.74031,0,0,1,.315.41186,1.36489,1.36489,0,0,0,.7874.6057,3.29144,3.29144,0,0,1,.44215.16959,2.304,2.304,0,0,0,.60569.09086,1.36053,1.36053,0,0,0,.80557-.109,3.48592,3.48592,0,0,1,.47244-.18171.80594.80594,0,0,0,.27256-.15142,1.49329,1.49329,0,0,0,.3937-.62992.94824.94824,0,0,1,.212-.32708,1.00144,1.00144,0,0,0,.212-.30285.58655.58655,0,0,1,.12114-.2241.80336.80336,0,0,0,.14537-.33919.69867.69867,0,0,1,.07874-.26045,1.03634,1.03634,0,0,0,.14536-.56935,2.15789,2.15789,0,0,1,.06057-.424,8.11279,8.11279,0,0,0,.0848-1.23562,10.29412,10.29412,0,0,1,.0848-1.28407.78913.78913,0,0,0,.01817-.44215,1.178,1.178,0,0,1-.00606-.43,1.64236,1.64236,0,0,0-.01211-.527,1.66149,1.66149,0,0,1-.0424-.44216.6283.6283,0,0,0-.15142-.45427,2.9615,2.9615,0,0,1-.4361-.963c-.06057-.29075-.38159-.68445-.50878-.636a1.57456,1.57456,0,0,1-.27862.06663.63914.63914,0,0,0-.56329.4058,1.756,1.756,0,0,1-.50273.527,1.28679,1.28679,0,0,0-.52089.60569,3.17018,3.17018,0,0,0-.218,1.32646,1.42042,1.42042,0,0,1,.212.30891,3.00468,3.00468,0,0,0,.36947.48455,1.19778,1.19778,0,0,1,.40582.86614v.46638c.00605.23621-.103,1.46577-.15143,1.68988a.28622.28622,0,0,1-.218.24833,1.16664,1.16664,0,0,1-.24228-.13932,1.78278,1.78278,0,0,1-.533-.82979,3.48162,3.48162,0,0,0-.28479-.45433,1.77741,1.77741,0,0,1-.24834-.46638.287.287,0,0,0-.13931-.19988c-.13931-.0424-.32707-.36342-.48455-.79951a1.90376,1.90376,0,0,0-.33313-.56935,1.00179,1.00179,0,0,1-.212-.30285.75485.75485,0,0,1,.20593-.26045,2.71368,2.71368,0,0,0,.43-.61174,3.93867,3.93867,0,0,1,.33919-.55118.45325.45325,0,0,0,.11508-.19382,4.4027,4.4027,0,0,1,.49061-.96911.11755.11755,0,0,0,.05451-.103.66714.66714,0,0,1,.14538-.25439,1.92078,1.92078,0,0,0,.424-1.1387.76536.76536,0,0,1,.62992-.66626c.09086-.01211.30891-.03634.49061-.06057a1.74957,1.74957,0,0,0,.44215-.09691.22062.22062,0,0,1,.16354-.03028.51529.51529,0,0,0,.25439-.02423,1.15508,1.15508,0,0,1,.53907.00606,2.49561,2.49561,0,0,0,.424.06057,3.78679,3.78679,0,0,1,1.16293.06057.772.772,0,0,0,.60569.04845c.18776-.09691.33313.0424.50272.48455.29679.77529.58752.72683,1.65354-.28467a1.64394,1.64394,0,0,1,.321-.25439,2.89439,2.89439,0,0,0,.40581-.35736,1.51235,1.51235,0,0,0,.52089-.854,2.98663,2.98663,0,0,1,.26651-.54512c.33918-.55724.36341-.72078.14536-.92671-.2241-.218-.52695-.23016-1.0963-.0424a1.142,1.142,0,0,1-.58752.09085.667.667,0,0,0-.2241-.03634c-.12114.02423-.64809.07874-.92065.09691a5.31781,5.31781,0,0,0-.60569.07269,3.352,3.352,0,0,1-.72683.04239,2.86029,2.86029,0,0,0-.61781.03634.89131.89131,0,0,1-.39975-.00605,1.09625,1.09625,0,0,0-.50273.01211,7.359,7.359,0,0,1-.81162.07874,3.28621,3.28621,0,0,0-.77529.109c-.23016.08479-.2665.08479-.3513.00605a.18777.18777,0,0,1-.05451-.1817,1.17494,1.17494,0,0,0-.14537-.46639,3.03531,3.03531,0,0,1-.29073-.854c-.02423-.1272-.0424-.315-.103-1.29618a3.542,3.542,0,0,0-.12113-.7874,1.39254,1.39254,0,0,1-.09086-.45427,1.2416,1.2416,0,0,0-.07874-.41792,2.50782,2.50782,0,0,1-.23016-.94488.35531.35531,0,0,1,.23016-.09691,4.52786,4.52786,0,0,0,.44821-.09086,18.24484,18.24484,0,0,1,3.65232-.25439c.19988.00605.59358-.00605.87825-.02423s.82374-.0424,1.19927-.05451a3.43272,3.43272,0,0,0,1.46577-.3089c.58147-.212.79346-.315.854-.424a.40572.40572,0,0,1,.17565-.17565.7014.7014,0,0,0,.23016-.26651.72841.72841,0,0,1,.36341-.32707c.28468-.11508.37553-.21805.40582-.46638A1.69122,1.69122,0,0,1,21.364,6.963a1.56132,1.56132,0,0,0,.20594-.43,3.92608,3.92608,0,0,1,.1817-.51483c.41187-.99334.46033-1.14476.4361-1.45366a2.9363,2.9363,0,0,1-.02423-.3937c0-.04846,0-.33313.00606-.62386l.01212-.533-.37553-.3513a2.9776,2.9776,0,0,0-.70866-.51484,1.23326,1.23326,0,0,0-.76923-.1272,1.49072,1.49072,0,0,0-.69049.18171,1.048,1.048,0,0,1-.41187.15142c-.08479,0-.16959.02423-.18776.06057a.71742.71742,0,0,1-.27862.12114,2.75472,2.75472,0,0,0-1.19321,1.18716.44936.44936,0,0,1-.22411.315.46517.46517,0,0,0,.03029.78739.91073.91073,0,0,0,.79345-.08479,2.30107,2.30107,0,0,1,1.06-.24228c.38765-.03634.53907.07268.49061.36342a1.93268,1.93268,0,0,1-.30284.89642,3.96766,3.96766,0,0,0-.34525.60569,1.16923,1.16923,0,0,1-.34524.50272,1.1915,1.1915,0,0,0-.46638.65415c-.06663.2665-.34525.39976-.7874.37553a2.1923,2.1923,0,0,0-.67232.06057,2.56936,2.56936,0,0,1-1.56874.0969,2.35352,2.35352,0,0,1-.7026-.19382,1.39543,1.39543,0,0,1,.212-.59358,2.43,2.43,0,0,0,.3513-1.52029c0-.6178-.00605-.642-.18776-.91459a1.80588,1.80588,0,0,0-.7874-.7026,2.49659,2.49659,0,0,1-.45427-.18171,1.29071,1.29071,0,0,0-.48455-.15142.68953.68953,0,0,1-.315-.07874.17766.17766,0,0,0-.24228.00606.71336.71336,0,0,1-.36341.08479.73272.73272,0,0,0-.45427.15143.73931.73931,0,0,1-.321.15142,2.05614,2.05614,0,0,0-.96911.36341,3.38153,3.38153,0,0,1-.8722.54513,1.35936,1.35936,0,0,0-.39369.28467c-.1696.16354-.46033.424-.636.58752a1.262,1.262,0,0,0-.321.38159,2.00475,2.00475,0,0,1-.61174.62386c-.1272,0-.4785.43609-.64809.79951a1.60565,1.60565,0,0,1-.23622.41793,2.3062,2.3062,0,0,1-.83586-.04846A1.09432,1.09432,0,0,0,5.5494,8.023a.61247.61247,0,0,1-.321-.06662,1.83874,1.83874,0,0,0-.55117-.09086c-.34525,0-.533-.11508-.48456-.29679.01212-.05451.0424-.20593.06663-.33918a1.92347,1.92347,0,0,1,.321-.89037,3.35358,3.35358,0,0,0,.36342-.41187c.13931-.18171.27862-.36341.315-.40581a2.42012,2.42012,0,0,0,.18171-.44821,2.63024,2.63024,0,0,1,.29678-.59964,1.143,1.143,0,0,0,.212-.3513A.5887.5887,0,0,1,6.143,3.88615a.87918.87918,0,0,0,.24833-.28467,3.69127,3.69127,0,0,1,.35736-.48455,1.13254,1.13254,0,0,0,.2665-.3937.7954.7954,0,0,1,.13931-.30891,3.09159,3.09159,0,0,0,.22409-.41192,1.22893,1.22893,0,0,1,.30284-.3937,1.30573,1.30573,0,0,0,.45427-1.06C8.09939.31858,8.0691.27618,7.80262.14293,7.42707-.04483,7.39073-.04483,7.16662.16716Zm3.56752,5.84492a.54709.54709,0,0,1,.23621.09085.40633.40633,0,0,0,.23622.06663A1.291,1.291,0,0,1,12.30894,7.4294c.03029.55723-.0424.72077-.34524.80556a2.01313,2.01313,0,0,1-.49667.05452,3.64649,3.64649,0,0,0-.51484,0A4.46063,4.46063,0,0,1,9.862,8.235c-.28467-.03634-.636-.08479-.7874-.103-.4361-.04846-.527-.07874-.56935-.18171-.04845-.12114.11508-.43.27256-.527a1.01218,1.01218,0,0,0,.27256-.36342A3.74212,3.74212,0,0,1,10.03762,6,1.649,1.649,0,0,1,10.73414,6.01208Z"/>
   <path class="a"
         d="M4.72569,10.45179a.193.193,0,0,0,.09691.1272c.109.03634.09085-.15142-.02423-.19382C4.73175,10.36094,4.71362,10.37911,4.72569,10.45179Z"/>

</g>
</svg>
