<?xml version="1.0" encoding="UTF-8"?>
<svg xmlns="http://www.w3.org/2000/svg"
     version="1.1"
     width="51.90114619mm"
     height="66.03774983mm"
     viewBox="0.00000000 0.00000000 147.12135884 187.19362069">

<g transform="scale(5.52403126)">   <defs>
      <style type="text/css"><![CDATA[
      .a {
        stroke: #000;
        stroke-linecap: round;
        stroke-linejoin: round;
        stroke-width: 0.01px;
      }
    ]]></style>
   </defs>
   <path class="a"
         d="M21.14053.11626a1.56884,1.56884,0,0,1-.533.0848C20.43794.16472,20.0927.298,19.063.78252a5.05334,5.05334,0,0,1-1.20532.40581,1.28909,1.28909,0,0,0-.72683.38765,5.39,5.39,0,0,1-.642.50878,1.23174,1.23174,0,0,0-.38158.33313,3.11335,3.11335,0,0,1-.8298.81162A.67042.67042,0,0,0,14.908,3.599c-.03634.109-.11508.19988-.61175.67232a13.757,13.757,0,0,0-1.48394,1.64142,1.97726,1.97726,0,0,1-.36341.46033,7.58342,7.58342,0,0,0-.66626.69049,1.86166,1.86166,0,0,0-.46639.67837,2.28608,2.28608,0,0,1-.35735.52089c-.1272.13931-.35736.41793-.50878.62387-.15143.19987-.315.41792-.37553.47849a.89417.89417,0,0,0-.13931.24228.25416.25416,0,0,1-.15753.15747c-.06057.02423-.11508.06057-.11508.09085a.75752.75752,0,0,1-.20594.24834,1.43433,1.43433,0,0,0-.3089.43609,1.53248,1.53248,0,0,1-.24228.40582,4.67085,4.67085,0,0,0-.60569.73288,1.747,1.747,0,0,0-.18776.33919.71322.71322,0,0,1-.19988.23622.50176.50176,0,0,0-.18777.26651.27382.27382,0,0,1-.09691.19382,2.302,2.302,0,0,0-.62387.70866.672.672,0,0,1-.17565.24834,1.27352,1.27352,0,0,0-.27861.30284,1.10787,1.10787,0,0,1-.34525.33313.89084.89084,0,0,0-.27256.3089c-.09085.15143-.27862.44821-.41793.66021a3.07915,3.07915,0,0,0-.32707.59357c-.12719.38159-.39976.33919-.61175-.08479a1.9989,1.9989,0,0,0-.24227-.35736.514.514,0,0,1-.12114-.38764.54372.54372,0,0,0-.15142-.4361.62523.62523,0,0,1-.15143-.218c0-.02423-.06662-.07874-.14536-.11508a.504.504,0,0,1-.20594-.19988,1.23092,1.23092,0,0,0-.89036-.43c-.72683.02423-.73289.03029-1.19927.49061-.29073.28468-.36342.38764-.37553.53907a.96424.96424,0,0,1-.30285.55117,1.97167,1.97167,0,0,0-.3089.51484,1.803,1.803,0,0,1-.28467.4785c-.03634,0-.0424.01817-.02423.0424.02423.01817.00606.09691-.03634.16353a.92736.92736,0,0,0-.103.69655,7.32385,7.32385,0,0,1,.14541,1.76247,5.1914,5.1914,0,0,0,.07268.848,5.72961,5.72961,0,0,1,.06057.848c.01211,1.06.17565,1.87765.38764,1.95033a1.8038,1.8038,0,0,1,.212.92671,2.20871,2.20871,0,0,0,.109.5754.6639.6639,0,0,1,.04239.36342.70228.70228,0,0,0,.03029.36341,3.678,3.678,0,0,1,.04845.7874c-.02422.70866-.02422.98728-.01817,1.60508a6.47068,6.47068,0,0,1-.20595,1.83517A.48616.48616,0,0,0,.868,29.3348a9.5761,9.5761,0,0,1-.006,1.708,1.27514,1.27514,0,0,0,.11508.73289,1.10384,1.10384,0,0,1,.109.46032.48551.48551,0,0,0,.103.321.62714.62714,0,0,1,.11508.30285c0,.16353.0848.24833.45427.44821s.60569.27256.73289.2241a1.07571,1.07571,0,0,1,.315-.04845.87061.87061,0,0,0,.315-.06663c.15143-.07874.24228-.03634.424.212.19382.26651.3089.30285.64809.19988.23016-.06662.68443-.3937.68443-.49061a3.50683,3.50683,0,0,1,.16353-.38158,2.93931,2.93931,0,0,0,.1696-.47244.17956.17956,0,0,1,.07874-.14537c.08479-.02423.09691-.3089.01817-.43a.25353.25353,0,0,1,0-.23016,3.19541,3.19541,0,0,0,.07874-.48455,4.32507,4.32507,0,0,1,.12719-.71472,5.54646,5.54646,0,0,0,.12114-.99939,2.39944,2.39944,0,0,0-.15748-1.15081,2.12532,2.12532,0,0,1-.17565-.90854,3.09875,3.09875,0,0,0-.25439-1.11447,1.19612,1.19612,0,0,1-.09085-.30285,1.07578,1.07578,0,0,0-.09086-.29678c-.03028-.06057-.04239-.1272-.02422-.14537.01817-.02423-.05452-.15142-.16354-.28467a4.158,4.158,0,0,1-.36947-.58147c-.23622-.46638-.3089-.52695-.68443-.61175a1.92609,1.92609,0,0,1-.424-.14536.83749.83749,0,0,1-.09085-.78134.49272.49272,0,0,0,.03634-.33313,1.35407,1.35407,0,0,1-.04845-.218,1.83874,1.83874,0,0,0-.1272-.30285.61849.61849,0,0,1-.03028-.66626c.07874-.09691.109-.23016.15748-.69654.06057-.65415.06662-.84191.02422-.90854a.40529.40529,0,0,1,.00606-.25439.34735.34735,0,0,0-.07268-.3513c-.23016-.30285.00606-.60569.26045-.33919a.90579.90579,0,0,0,.38764.19988.5052.5052,0,0,0,.65-.2967L4.363,18.9593c.0848-.19988.16354-.29073.62386-.69655a.43711.43711,0,0,0,.13325-.30284.96753.96753,0,0,1,.30891-.642.24633.24633,0,0,0,.11508-.15143,1.123,1.123,0,0,1,.12114-.3089c.103-.212.109-.25439.03028-.4361-.07268-.17565-.07268-.218.00606-.29679a.15347.15347,0,0,1,.19382-.03634c.15748.0848.46638-.09691.55118-.32707a.96136.96136,0,0,1,.27862-.36342,7.216,7.216,0,0,0,1.53834-1.69595,1.00837,1.00837,0,0,1,.16354-.27256,6.177,6.177,0,0,0,.38158-.55118,3.19917,3.19917,0,0,1,.41187-.54512,1.044,1.044,0,0,0,.23017-.28468.62383.62383,0,0,1,.2241-.23016.15424.15424,0,0,0,.109-.13325,1.47336,1.47336,0,0,1,.43-.68443.64742.64742,0,0,0,.17565-.218c0-.03029.07268-.09691.15748-.14537a.96609.96609,0,0,0,.29678-.35735,3.39858,3.39858,0,0,1,.25446-.4119c.06057-.07874.19988-.25439.30285-.3937a5.38563,5.38563,0,0,1,.60569-.66021,1.65918,1.65918,0,0,0,.39976-.50878,2.78667,2.78667,0,0,1,.29679-.3937c.109-.12113.26044-.29073.33313-.37552a.46173.46173,0,0,1,.23016-.16354c.04845,0,.09085-.02423.09085-.05451a.27578.27578,0,0,1,.07874-.13931,2.03653,2.03653,0,0,0,.24228-.321,2.74155,2.74155,0,0,1,.4361-.58752c.03028-.01817.12719-.09691.20593-.16354a.49716.49716,0,0,1,.218-.12719c.0424,0,.109-.07874.15142-.18171a.42787.42787,0,0,1,.20594-.218,1.7191,1.7191,0,0,0,.6178-.67231.88808.88808,0,0,1,.321-.30891,2.2129,2.2129,0,0,1,.79951-.15748c.03634.01818.16959-.03634.29679-.12719a2.32915,2.32915,0,0,1,.8298-.28468c.71471-.15142.76317-.15142,1.09024-.02422a3.2558,3.2558,0,0,0,.50272.13325c.23017.03634.26045.02423.4785-.212a1.0557,1.0557,0,0,1,.67232-.36342,1.429,1.429,0,0,1,.77528-.03028,1.87175,1.87175,0,0,0,.52695.03028,2.62347,2.62347,0,0,1,.45427-.01817c.15142.00606.50272.01817.7874.03029a2.29346,2.29346,0,0,1,.642.08479.67616.67616,0,0,0,.30285.06663.758.758,0,0,1,.61174.321c.15143.17565.15143.17565.79346.09085.20593-.02423.49667-.27862.49667-.4361a.37534.37534,0,0,1,.109-.19382,4.067,4.067,0,0,0,.52695-.86008,5.77853,5.77853,0,0,0,.09691-.87825,2.71018,2.71018,0,0,1-.09085-.424.5507.5507,0,0,0-.26045-.46638c-.09679-.06057-.333-.23021-.53894-.37557a1.17837,1.17837,0,0,0-.90854-.30284C24.5324.1829,24.23561.16473,24.169.16473A1.50584,1.50584,0,0,1,23.7874.06781a.79425.79425,0,0,0-.424-.05452,7.83474,7.83474,0,0,1-1.46577.00606A1.99146,1.99146,0,0,0,21.14053.11626Z"/>

</g>
</svg>
