<?xml version="1.0" encoding="UTF-8"?>
<svg xmlns="http://www.w3.org/2000/svg"
     version="1.1"
     width="32.43228138mm"
     height="41.83478766mm"
     viewBox="0.00000000 0.00000000 91.93403973 118.58678997">

<g transform="scale(6.48198371)">   <defs>
      <style type="text/css"><![CDATA[
      .a {
        stroke: #000;
        stroke-linecap: round;
        stroke-linejoin: round;
        stroke-width: 0.01px;
      }
    ]]></style>
   </defs>
   <path class="a"
         d="M5.75891.02454c-.424.05451-.50878.09691-.93882.533a5.02682,5.02682,0,0,1-.49667.46639,2.44571,2.44571,0,0,0-.28468.47849,3.44138,3.44138,0,0,1-.75711,1.14476l-.27256.2665-.01817.49667c-.01817.47244-.01212.50272.109.533.13931.03634.4785-.103.4785-.19382a.52919.52919,0,0,1,.12114-.18777,3.96351,3.96351,0,0,0,.3089-.46032c.22411-.3937.49667-.69049.62992-.69049.06057,0,.15142-.1272.24833-.34524a.94952.94952,0,0,1,.59964-.62387c.29678-.14536.41792-.15142.53906-.03028.0848.0848.0848.12114-.00606.34524a.495.495,0,0,0-.03631.40585,1.44872,1.44872,0,0,1-.05451.7026,4.6891,4.6891,0,0,0-.09691.59963,3.82007,3.82007,0,0,1-.2665.957,2.19932,2.19932,0,0,0-.103.72683c.01817.53907-.02423.642-.32708.71472-.1393.03028-.321.0848-.40581.109a.4172.4172,0,0,1-.29679-.01211.62257.62257,0,0,0-.40581.01211,1.88977,1.88977,0,0,1-.41793.07269,1.25581,1.25581,0,0,0-.37552.0848,8.419,8.419,0,0,1-1.39915.3089c-.3089.03029-.61781.1696-.61781.27861,0,.09691-.47849.29679-.72077.29679A.38133.38133,0,0,0,.132,7.17165c-.1272.16354-.17565.56935-.06663.56935.03029,0,.07874.07268.09691.15748a.499.499,0,0,0,.636.26045,2.77441,2.77441,0,0,1,.59963-.07874A1.53922,1.53922,0,0,0,1.943,7.98332a4.06862,4.06862,0,0,1,1.42338-.212c.33313-.01211.7026-.03634.81768-.05451s.3513-.0424.51484-.06057a2.78949,2.78949,0,0,0,.56935-.12719.4496.4496,0,0,1,.49061.03028c.24227.12114.44215.34525.38764.43a.63155.63155,0,0,0,.103.30891,1.69446,1.69446,0,0,1,.15142.47244,4.51664,4.51664,0,0,0,.29679,1.30223,2.515,2.515,0,0,1,.11508.54512,1.81438,1.81438,0,0,0,.29073.8722.34746.34746,0,0,1,.07874.25439.13367.13367,0,0,0,.03029.14536,2.194,2.194,0,0,1,.39369.83586.57951.57951,0,0,0,.1696.315c.09085.06057.13325.16959.14536.37553a3.97921,3.97921,0,0,1-.01211.9267c-.02423.28468-.04846.66626-.05451.848-.03029.46638-.06057.52089-.49667.79345a1.84152,1.84152,0,0,0-.50878.44822,1.79632,1.79632,0,0,1-.78134.58146,2.4757,2.4757,0,0,0-.24833.03028.73573.73573,0,0,1-.642-.30284,4.61393,4.61393,0,0,1-.07874-1.43549.496.496,0,0,0-.00605-.29679.41044.41044,0,0,1,0-.29679c.13931-.2665-.36947-.79345-.76923-.79345-.28468,0-.33919.03634-.4361.29073a.82344.82344,0,0,1-.24227.3089,2.66061,2.66061,0,0,0-.38765.44821,1.09619,1.09619,0,0,0-.24833.68443,1.48156,1.48156,0,0,0,.03634.50273,2.77143,2.77143,0,0,1,.09085.33919,3.19465,3.19465,0,0,0,.54513.91459,3.48636,3.48636,0,0,0,1.53239.67232.24814.24814,0,0,1,.20594.04845,2.161,2.161,0,0,0,.94488.15748,1.173,1.173,0,0,0,.30284-.09691,1.06181,1.06181,0,0,1,.3937-.07268.829.829,0,0,0,.4785-.16354,1.02388,1.02388,0,0,1,.3089-.15748c.0424,0,.1272-.07268.18776-.16959a2.98658,2.98658,0,0,1,.35131-.40582,3.271,3.271,0,0,0,.91459-1.58691.27239.27239,0,0,1,.0424-.212,2.17668,2.17668,0,0,0,.37553-.58146c.02422-.07268.06662-.13325.09085-.13325.07874,0,.19988-.33919.17565-.46639a.43079.43079,0,0,1,.04846-.26044c.06056-.1272.04845-.24228-.0424-.66626-.06663-.28468-.1272-.56935-.14537-.636A1.93071,1.93071,0,0,0,9.702,12.314a1.07075,1.07075,0,0,1-.1272-.44216,1.0599,1.0599,0,0,0-.3089-.68443c-.109-.109-.109-.13325-.03029-.321.04846-.11509.07269-.22411.05452-.24228a.28123.28123,0,0,1-.04846-.13931,2.84,2.84,0,0,0-.19382-.69654.5274.5274,0,0,1-.05451-.321.86765.86765,0,0,0-.12114-.40581A.81573.81573,0,0,1,8.751,8.61929a.86862.86862,0,0,0-.09085-.424c-.218-.49061-.23622-.61781-.1272-.75712a1.56545,1.56545,0,0,1,1.10842-.321,2.79246,2.79246,0,0,0,1.20532-.05452,1.165,1.165,0,0,1,.54512-.04846,2.73475,2.73475,0,0,0,.72683-.03634,7.11547,7.11547,0,0,1,.80557-.07874A2.27128,2.27128,0,0,0,14.04476,6.572c.09691-.04846.13325-.11508.13325-.26045,0-.315-.11508-.50272-.61175-.99939-.424-.424-.48455-.46638-.78739-.51484a3.32454,3.32454,0,0,0-.41793-.0424,3.17592,3.17592,0,0,0-.72683.16354,7.0723,7.0723,0,0,1-1.50211.218.91414.91414,0,0,0-.36342.0848,1.3408,1.3408,0,0,1-.58752.06662,1.82482,1.82482,0,0,0-.533.0424.25828.25828,0,0,1-.38159-.18167.90568.90568,0,0,0-.11508-.2665c-.07874-.11508-.05452-.29679.12113-1.04785a4.71524,4.71524,0,0,0,.12114-.60565c.01212-.103.0424-.34524.06663-.54512a5.33164,5.33164,0,0,0,.02423-1.06A1.22913,1.22913,0,0,0,8.2483.933C7.87277.32735,7.8183.285,7.48513.26678A1.33324,1.33324,0,0,1,6.9824.14565,2.878,2.878,0,0,0,5.75891.02454Z"/>

</g>
</svg>
