<?xml version="1.0" encoding="UTF-8"?>
<svg xmlns="http://www.w3.org/2000/svg"
     version="1.1"
     width="30.25447335mm"
     height="33.14924596mm"
     viewBox="0.00000000 0.00000000 85.76070237 93.96635128">

<g transform="scale(3.64727927)">   <defs>
      <style type="text/css"><![CDATA[
      .a {
        stroke: #000;
        stroke-linecap: round;
        stroke-linejoin: round;
        stroke-width: 0.01px;
      }
    ]]></style>
   </defs>
   <path class="a"
         d="M14.9533.049a1.17492,1.17492,0,0,0-.321.09085.7961.7961,0,0,1-.212.06663c-.0727.01213-.24229.05452-.3755.09087a3.60458,3.60458,0,0,1-.44821.103,1.28481,1.28481,0,0,0-.739.70866c-.04239.1393-.15142.24833-.41187.41187a3.68629,3.68629,0,0,1-.45426.2665.16945.16945,0,0,0-.09691.15142.49392.49392,0,0,1-.18171.27256c-.09691.09086-.16959.18171-.15142.20594.01211.01817-.03029.11508-.09086.212a.32367.32367,0,0,0,.05451.45427,1.4611,1.4611,0,0,1,.43.78134.9716.9716,0,0,0,.12113.36947c.06663,0,.212.37553.19382.49667a.46539.46539,0,0,0,.0848.26044c.12114.18777.15142.34525.16354.92065a2.30753,2.30753,0,0,0,.05451.4785c.02423.02423.01817.09085-.01211.15142-.0424.07874-.01817.19382.09085.43a1.51327,1.51327,0,0,1,.15142.47244,2.30948,2.30948,0,0,0,.09691.48456c.04846.1817.12114.45426.15143.60569s.07268.32707.08479.3937a7.83948,7.83948,0,0,1,.18777,1.16292.79162.79162,0,0,0,.08479.29073.96036.96036,0,0,1,.06663.61175.89883.89883,0,0,1-.103.36947c-.03028.01212-.04845.12114-.03634.24228.01211.1272.02423.33919.03634.47244.02423.29679-.18171.75106-.35736.79345-.06662.01212-.27256.0424-.45426.06057-.527.04846-.745.07269-.96911.109-.11508.01817-.39976.04845-.636.06057-.23016.01211-.533.0424-.66626.06662a7.843,7.843,0,0,1-1.39308.103,1.68871,1.68871,0,0,1-.93276-.12719,3.49838,3.49838,0,0,0-1.82314-.09691.73886.73886,0,0,1-.47848.03634,2.94568,2.94568,0,0,0-.61176-.03634,1.39036,1.39036,0,0,1-.50878-.0424,1.98169,1.98169,0,0,0-.54511-.0848,2.36758,2.36758,0,0,1-.59358-.07874,1.235,1.235,0,0,0-.46638-.02423c-.27257.03029-.30285.05451-.39976.26651a.69765.69765,0,0,1-.35736.3513,1.251,1.251,0,0,0-.3513.24833.34972.34972,0,0,1-.19382.12114c-.0424,0-.09691.07268-.11508.16354a1.44749,1.44749,0,0,1-.45427.642c-.49061.46032-.67232.66626-.64809.71471.02423.03029-.03028.1696-.11508.30891a1.89744,1.89744,0,0,0-.18171.44215c-.02422.09691-.05451.24833-.07268.33313a.5989.5989,0,0,0,.07874.58146.9933.9933,0,0,0,.79345-.006,1.54536,1.54536,0,0,1,.527-.09086A2.4101,2.4101,0,0,0,1.943,16.857a1.00864,1.00864,0,0,1,.38159.02423A1.2295,1.2295,0,0,0,2.9545,16.863a5.904,5.904,0,0,1,.95093-.0848c.27862,0,.62992.006.78134.006a1.6362,1.6362,0,0,1,.7026.103c.18777.06057.27862.06662.38159.01211a.22868.22868,0,0,1,.25439-.00606,2.04363,2.04363,0,0,0,1.14476-.09086,1.33384,1.33384,0,0,1,.46032-.09691,2.33242,2.33242,0,0,0,.61175-.13325,1.86248,1.86248,0,0,1,.62992-.12113,2.226,2.226,0,0,0,.94488-.06663,1.33069,1.33069,0,0,1,.81162.01817.98714.98714,0,0,0,.424,0,6.91368,6.91368,0,0,1,1.11448-.13932,2.05813,2.05813,0,0,0,.36341-.03634,2.074,2.074,0,0,1,.642.09691.42546.42546,0,0,1,.18777.48456.26676.26676,0,0,0,.01817.2665,1.746,1.746,0,0,1,.0848.53907,2.12565,2.12565,0,0,0,.02422.41187.91265.91265,0,0,1-.08479.33313c-.07269.212-.09086.33918-.05452.41187.03029.06056.0424.12113.02423.1393a3.19213,3.19213,0,0,0-.08479.90248c.01211.24834-.0424.55724-.103.57541-.05451.01817-.05451.07268-.01212.18171a.90132.90132,0,0,1,.0424.315.52334.52334,0,0,0,.03634.23622.26094.26094,0,0,1-.04239.218.206.206,0,0,0-.03029.24228.63163.63163,0,0,1-.00606.38764.92452.92452,0,0,0-.01211.4785c.0424.14537.03634.218-.01817.27862a.71905.71905,0,0,0-.07874.37553,3.00985,3.00985,0,0,1-.109.93882,1.25883,1.25883,0,0,0-.06057.38764,3.78977,3.78977,0,0,1-.09086.59358c-.07268.2665-.07268.29073.06663.46032a.90894.90894,0,0,0,.93882.23016c.321-.06662.34524-.07874.424-.3089a1.23337,1.23337,0,0,0,.04846-.46032c-.03029-.16354-.01212-.24228.06057-.30285a2.20661,2.20661,0,0,0,.32707-.33919,3.025,3.025,0,0,0,.39976-.745,3.5473,3.5473,0,0,1,.27861-.45426,1.253,1.253,0,0,0,.212-.424,3.518,3.518,0,0,1,.23622-.93276.83846.83846,0,0,0,.09085-.34525,2.21658,2.21658,0,0,1,.03028-.38764c.01817-.11508.04846-.34524.06663-.50878a.86887.86887,0,0,1,.11508-.3937c.17565-.19382.24228-.47244.25439-1.15687.01212-.38158.02423-.73894.02423-.7874a4.14867,4.14867,0,0,0-.07874-.73288.708.708,0,0,0-.06663-.22411.83962.83962,0,0,1,.0848-.36947,1.02362,1.02362,0,0,0,.09085-.3089c-.04845,0,.15748-.38764.23622-.44216a4.00861,4.00861,0,0,1,1.24773.09086,2.43678,2.43678,0,0,0,1.31435.109c.27256-.06057.3513-.05451.46032.01817a1.05079,1.05079,0,0,0,.34525.12114,9.45344,9.45344,0,0,1,.97516.18777.88856.88856,0,0,1,.23016.36947c.16354.3937.23622.46032.49667.45426a.7433.7433,0,0,0,.83585-.44821c.1272-.20593.17565-.34524.15142-.43609-.03028-.11509.01817-.19383.212-.37553a.77437.77437,0,0,0,.24833-.33919.67179.67179,0,0,1,.0848-.2665,1.13466,1.13466,0,0,0,.16959-.78134c-.05451-.09086-.0424-.15143.03028-.26045.0848-.12114.0848-.15142,0-.29679a.27361.27361,0,0,1-.04239-.24228c.06056-.109-.02423-.39975-.19383-.64809a.68675.68675,0,0,0-.50272-.32707.29291.29291,0,0,1-.16354-.07874,1.465,1.465,0,0,0-.90853-.24228c-.37553.0424-.7026-.07268-.75106-.25439-.05451-.2241-.22411-.23622-.58146-.03634a.9546.9546,0,0,1-.59358.16354.557.557,0,0,0-.3513.06663c-.06663.06662-.109.06056-.25439-.01212a1.14647,1.14647,0,0,0-.46638-.0848c-.24834.00606-1.49-.04239-1.599-.06056a1.51272,1.51272,0,0,1-.24227-.76318,1.201,1.201,0,0,0-.103-.45426l-.11508-.27256.14536-.35736A1.27008,1.27008,0,0,0,16.843,10.158a.23258.23258,0,0,1,.06663-.20594,1.57128,1.57128,0,0,0,.06662-.93882.432.432,0,0,1,.01817-.28467.54049.54049,0,0,0-.03028-.44821,1.115,1.115,0,0,1-.06663-.60569.57954.57954,0,0,0-.09691-.527c-.12114-.15142-.13325-.212-.07874-.33313a5.46026,5.46026,0,0,0-.012-1.47785.376.376,0,0,1,.06057-.19988c.09085-.17565.15142-.19988.533-.27256a.88139.88139,0,0,0,.424-.23622,1.85161,1.85161,0,0,1,.38764-.29073,1.40569,1.40569,0,0,0,.27256-.18171,2.04414,2.04414,0,0,1,.29679-.212,2.22242,2.22242,0,0,0,.45427-.424,2.33039,2.33039,0,0,1,.28468-.30891,1.1606,1.1606,0,0,0,.19382-.321l.13931-.30285-.12114-.3089a2.40825,2.40825,0,0,0-1.175-1.12053,2.2411,2.2411,0,0,1-.61781-.43A2.266,2.266,0,0,0,16.16468.13987,2.412,2.412,0,0,1,15.5711.06113C15.38939-.01155,15.3228-.01155,14.9533.049Z"/>
   <path class="a"
         d="M21.46447.53963c0,.03028.0424.06056.09086.06056s.09085-.03028.09085-.06056c0-.03635-.0424-.06057-.09085-.06057S21.46447.50328,21.46447.53963Z"/>

</g>
</svg>
