<?xml version="1.0" encoding="UTF-8"?>
<svg xmlns="http://www.w3.org/2000/svg"
     version="1.1"
     width="64.92364258mm"
     height="36.55661261mm"
     viewBox="0.00000000 0.00000000 184.03556857 103.62503366">

<g transform="scale(4.85881581)">   <defs>
      <style type="text/css"><![CDATA[
      .a {
        stroke: #000;
        stroke-linecap: round;
        stroke-linejoin: round;
        stroke-width: 0.01px;
      }
    ]]></style>
   </defs>
   <path class="a"
         d="M22.59908.04348a2.65759,2.65759,0,0,1-.55118.00606.98106.98106,0,0,0-.56935.07874.67072.67072,0,0,1-.4361.06662A.671.671,0,0,0,20.57.2797a.62639.62639,0,0,1-.38159.0848c-.11508-.02423-.19988.01817-.3937.19988-.3937.36947-.745.59963-.81768.52695-.01817-.01817-.103.07268-.18777.20593a1.62278,1.62278,0,0,1-.315.36947.51187.51187,0,0,0-.1817.28468c-.01817.18776-.03634.212-.18777.23016-.06057.00606-.14536.103-.19382.20594a.452.452,0,0,1-.18776.2241c-.13325.0424-.26045.41793-.20594.59358a.56415.56415,0,0,1,.03029.23622c-.01817.15142.30284.29073.67231.29073.33919,0,.44216-.04846.7874-.36947a1.31407,1.31407,0,0,1,.41187-.24228,2.032,2.032,0,0,0,.79346-.54512.91253.91253,0,0,1,.87825-.29679c.87825.17565,1.13264.26651,1.35069.47244.06057.05451.16959.15142.24228.212.103.0848.12114.1272.06662.22411-.07874.14536-.20593.212-.50878.2665a.70488.70488,0,0,0-.37553.212.90007.90007,0,0,1-.315.24228c-.12719.05451-.19987.15142-.27861.36947a.70465.70465,0,0,0-.06663.36342.38972.38972,0,0,1-.03028.24833.34337.34337,0,0,0-.00606.33313c.09085.20593.04845.26045-.44821.62992-.35736.27256-.46638.321-.72683.33313a3.079,3.079,0,0,0-.45427.06057,4.325,4.325,0,0,1-.55723.109,2.45956,2.45956,0,0,0-.45427.18171,1.81383,1.81383,0,0,1-.72683.19382,5.51429,5.51429,0,0,0-.98728.15748.48815.48815,0,0,0-.16354.09085.83341.83341,0,0,1-.31495.109c-.13931.01817-.24834.06662-.24834.09691a1.79242,1.79242,0,0,1-.69654.34524,2.48154,2.48154,0,0,1-.424.04846,3.25267,3.25267,0,0,0-1.01756.1817.76454.76454,0,0,1-.34524.06057.23842.23842,0,0,0-.18171.03029,3.48024,3.48024,0,0,1-.98727.12114.46873.46873,0,0,0-.26651.09085.21919.21919,0,0,1-.20593.06057.24584.24584,0,0,0-.23622.09085.42053.42053,0,0,1-.321.11508,1.22378,1.22378,0,0,0-.41793.0848,3.70055,3.70055,0,0,1-1.10841.25439,1.26738,1.26738,0,0,0-.3937.0848,1.37076,1.37076,0,0,1-.66625.321c-.15142.02423-.315.06057-.36341.07269a.55107.55107,0,0,1-.15749.03028,5.397,5.397,0,0,0-1.07812.75712,1.74833,1.74833,0,0,1-.78741.46032.14942.14942,0,0,0-.11507.0848.51954.51954,0,0,1-.29074.15748,1.06054,1.06054,0,0,0-.33918.15142.16742.16742,0,0,1-.16354.05451c-.05451-.01817-.103.01817-.12719.09691a.519.519,0,0,1-.24228.22411.64563.64563,0,0,0-.2665.23622.56051.56051,0,0,1-.23017.23016,1.51967,1.51967,0,0,0-.40581.424,1.2929,1.2929,0,0,1-.33919.36948,1.35255,1.35255,0,0,0-.34513.24835,5.78628,5.78628,0,0,1-.957.68443c-.321.20593-.636.53906-.636.67232,0,.14536-.23016.37553-.56329.56935a.99455.99455,0,0,0-.28468.218c0,.03028-.109.12719-.24227.23016a2.47845,2.47845,0,0,0-.424.41187c-.09691.12719-.212.27256-.25439.321A.34215.34215,0,0,0,.128,15.961c-.006.05451-.03634.218-.06057.36948a1.1799,1.1799,0,0,0,0,.75712,1.97675,1.97675,0,0,1,.109.3937.905.905,0,0,0,.7874.60569,5.11706,5.11706,0,0,1,.527.11507,3.49582,3.49582,0,0,0,1.51423.24227c.218-.03027.69654-.06056,1.066-.07268a3.913,3.913,0,0,0,.75106-.07267,1.22559,1.22559,0,0,1,.29679-.07268,4.57476,4.57476,0,0,0,.58146-.12114,2.84666,2.84666,0,0,1,.48455-.09691c.06663.006.29679.01211.51484.01817a1.71455,1.71455,0,0,0,.66626-.08481c.72683-.28467.73289-.28467,1.08419-.23016.36947.05451.44821.03028,1.12658-.3089a.9382.9382,0,0,1,.93277-.07269,4.239,4.239,0,0,1,.91459.86615c0,.103.44821.50272.533.46637a1.09709,1.09709,0,0,1,.43.15143,2.18379,2.18379,0,0,0,.64809.19987,2.27533,2.27533,0,0,1,.40581.07269.63764.63764,0,0,0,.36342-.06057c.13931-.05451.37553-.15748.52695-.218a3.07369,3.07369,0,0,1,.6178-.15142.83052.83052,0,0,0,.53907-.212c.2241-.19987.27256-.1817.533.15748.24833.32708.44215.51484.527.51484.12719,0,.39975.26045.49061.47244.11508.27256.315.44215.48455.40581a.99465.99465,0,0,1,.43.109,1.18991,1.18991,0,0,0,.642.12719c.37553-.01817.49667.05451.55724.32708.09085.38764.49667.6178,1.07813.62386a.87512.87512,0,0,1,.33919.08479c.09085.04846.1817.06663.20593.04846a.525.525,0,0,1,.26045-.03028,1.56252,1.56252,0,0,0,.49666-.07269,6.02561,6.02561,0,0,1,.70261-.15142,6.82111,6.82111,0,0,0,.75711-.16354,1.36481,1.36481,0,0,1,.43-.09085,2.22633,2.22633,0,0,0,.51484-.13325c.23016-.07874.62386-.19382.87219-.25439a1.68813,1.68813,0,0,0,.60569-.24228,3.88421,3.88421,0,0,1,.66626-.3937,2.74029,2.74029,0,0,0,.69655-.46032,2.07171,2.07171,0,0,1,.54512-.35736,1.14246,1.14246,0,0,0,.48455-.33919.53554.53554,0,0,1,.28468-.218.47953.47953,0,0,0,.26044-.17565,4.88067,4.88067,0,0,1,.79346-.79345c.11508-.0848.19382-.17565.17565-.19988s.06663-.15142.18776-.27862a5.08211,5.08211,0,0,0,.36948-.47849,4.30273,4.30273,0,0,1,.32707-.424.995.995,0,0,0,.19988-.4361c.04845-.33918.212-.67231.34524-.71471a.24276.24276,0,0,0,.13931-.13931,1.7174,1.7174,0,0,0-.01816-.848.30789.30789,0,0,1-.00606-.315c.06057-.15142.05451-.19382-.06057-.3513-.109-.14536-.12113-.20593-.06662-.30284a.39682.39682,0,0,0-.109-.53907,2.73489,2.73489,0,0,1-.34524-.52695c-.13325-.2665-.21805-.36947-.38159-.4361a1.38348,1.38348,0,0,1-.35735-.2241c-.109-.103-.21805-.13325-.48456-.13931a2.41305,2.41305,0,0,1-.40581-.02423c-.321-.0848-.58752.07874-1.04179.636-.109.13325-.2665.321-.3513.424a1.17724,1.17724,0,0,0-.18776.28467c-.01817.06057-.06057.109-.09086.109s-.05451.03634-.05451.0848a.61257.61257,0,0,1-.15142.2665c-.0848.103-.13931.22411-.11508.27256.0424.11508-.15748.50878-.38765.75711-.09691.103-.16353.19988-.15142.218.01817.01212-.006.09086-.04845.1696a.78771.78771,0,0,0-.09086.2241.19444.19444,0,0,1-.26044.14537c-.07269-.01817-.14537.03634-.218.14536-.13325.19988-.37553.44216-.45427.44216a.55852.55852,0,0,0-.20594.13931c-.08479.07268-.24833.19988-.36341.28467a1.0612,1.0612,0,0,0-.27256.28468.68521.68521,0,0,1-.24228.23016,2.45853,2.45853,0,0,0-.67231.642,1.12825,1.12825,0,0,1-.34525.18171,1.939,1.939,0,0,0-.4361.22411.17363.17363,0,0,1-.17565.04239.23083.23083,0,0,0-.20593.09086.37393.37393,0,0,1-.20594.12114,1.40212,1.40212,0,0,0-.642.3513.73829.73829,0,0,1-.23016.19382,1.02248,1.02248,0,0,0-.23016.16353c-.109.109-.18777.09691-.424-.04239a.84052.84052,0,0,0-.27256-.12114,1.86172,1.86172,0,0,1-.40581-.19988,7.28082,7.28082,0,0,0-.72069-.36324,1.63676,1.63676,0,0,1-.46033-.2665.54923.54923,0,0,0-.36947-.109c-.38764-.01817-.35736-.00606-.43-.1696a.24167.24167,0,0,1-.01212-.23016c.06663-.109.01818-.34523-.15747-.745a2.49591,2.49591,0,0,1-.17566-.636,1.80121,1.80121,0,0,0-.07268-.38158.96732.96732,0,0,1-.03634-.33313.83223.83223,0,0,0-.07874-.40581c-.07874-.12114-.07268-.18171.12114-.636a1.56528,1.56528,0,0,0,.0848-1.381,2.1602,2.1602,0,0,1-.13931-.41187.585.585,0,0,0-.848-.48456.624.624,0,0,0-.27256.15748c-.03634.109-.20594.24834-.54512.44821a1.01918,1.01918,0,0,0-.30891.23017.60165.60165,0,0,1-.14536.19382.84867.84867,0,0,0-.18777.27256c-.01817.06662-.06662.12115-.09691.12115-.03634,0-.04845.04845-.02422.11508a.8241.8241,0,0,1-.103.40581,4.668,4.668,0,0,0-.19988.53907c-.0424.13325-.09085.28467-.11508.33313a.34663.34663,0,0,0,.109.26044c.1272.14537.13931.18777.07874.34525a.36886.36886,0,0,0,.04846.3937,1.7521,1.7521,0,0,1,.17565.848,2.02193,2.02193,0,0,0,.12114.533c.12113.27862.08479.44216-.13326.55118-.33918.16959-.46032.16354-.91459-.05451-.3513-.1696-.45427-.24834-.52089-.41793a1.99957,1.99957,0,0,0-.33919-.47244c-.28467-.30284-.3513-.40581-.3513-.56935a4.27212,4.27212,0,0,0-.0848-.90853,2.89336,2.89336,0,0,1,.36947-1.272,2.10873,2.10873,0,0,0,.27862-1.42944c-.03028-.36947-.06662-.50878-.16353-.59357-.0848-.07874-.15143-.09691-.218-.06057a.22569.22569,0,0,1-.20594-.01212c-.0848-.04239-.13931-.02422-.25439.09691-.09691.103-.17565.13931-.2665.11509a.2316.2316,0,0,0-.24834.109c-.06662.07874-.15142.18171-.18776.22411a.20344.20344,0,0,1-.18777.05451c-.15143-.0424-.46638.27256-.62387.6178a.82327.82327,0,0,1-.218.315.527.527,0,0,0-.17566.27862,2.23653,2.23653,0,0,1-.16353.37553.73366.73366,0,0,0-.109.30284,2.87607,2.87607,0,0,1-.12113.50273,1.06267,1.06267,0,0,0-.06057.51484,4.34256,4.34256,0,0,1-.02423,1.18109c-.01817.15748-1.01756.33919-1.23561.218a2.19956,2.19956,0,0,0-1.43549.00606,1.49459,1.49459,0,0,1-.47244.12719.72237.72237,0,0,0-.36341.12114,1.04573,1.04573,0,0,1-.86008.01817,1.26355,1.26355,0,0,0-.48456-.03634c-1.496.12114-1.65353.12114-1.93821-.02423a1.35274,1.35274,0,0,0-.3513-.13931,1.16878,1.16878,0,0,1-.59358-.37552,1.10071,1.10071,0,0,1,.29679-.80557c.38159-.3937.52695-.5633.52695-.62992a3.195,3.195,0,0,1,.59358-.69049,6.01689,6.01689,0,0,1,.46638-.3937c.19988-.15748.48456-.39975.62992-.54512.24228-.23622.321-.27862.39976-.24228.01817.01212.09691-.07874.17565-.19987a2.19373,2.19373,0,0,1,.48455-.44216,1.31907,1.31907,0,0,0,.33908-.27254c0-.09085.2241-.30285.38764-.36947a2.19984,2.19984,0,0,1,.35736-.0848,1.25,1.25,0,0,0,.71471-.321c.1272-.18171.33919-.27257.46639-.20594.07268.0424.14536.02423.24833-.06057a.52833.52833,0,0,1,.212-.11508.91826.91826,0,0,0,.39976-.35736c0-.09691.3089-.18171.72077-.19382a2.41642,2.41642,0,0,0,.77528-.14536,9.32362,9.32362,0,0,1,.89643-.26651,2.00606,2.00606,0,0,0,.5754-.19382.33916.33916,0,0,1,.18777-.0848,1.54136,1.54136,0,0,1,.72077-.0424,1.12405,1.12405,0,0,0,.80557-.2059.99581.99581,0,0,1,.424-.09085,6.55914,6.55914,0,0,0,1.19321-.02423c.11509-.01817.30891-.0424.43-.05451.33313-.03634.59964-.103.59964-.15143a1.65469,1.65469,0,0,1,.66626-.321,4.58389,4.58389,0,0,1,.57541-.0848,2.36135,2.36135,0,0,0,1.066-.30284.74973.74973,0,0,1,.321-.15143,3.60842,3.60842,0,0,0,.50272-.1817c.23622-.11509.26651-.11509.4361-.03029.16959.09085.20593.09085.4361-.00606.1393-.05451.40581-.1817.59357-.27861a4.92954,4.92954,0,0,1,1.61114-.62387c.39976-.09085.83585-.1817.96911-.20593a2.00214,2.00214,0,0,0,.98122-.51484,2.14951,2.14951,0,0,1,1.12052-.59964,1.26846,1.26846,0,0,1,.36948.28467.66225.66225,0,0,0,.52089.26651,1.07572,1.07572,0,0,1,.72683.24227c.03634.07269.16354.103.45427.12114a1.76494,1.76494,0,0,1,.58146.109.97379.97379,0,0,0,.36342.09085,5.3803,5.3803,0,0,1,1.45365.4785,2.00354,2.00354,0,0,0,.533.18776.46631.46631,0,0,1,.28468.16354c.08479.09691.1817.19382.218.23016.03634.03028.16959.15748.29073.27256a5.26834,5.26834,0,0,0,.55723.44215,1.91233,1.91233,0,0,1,.44821.424,1.096,1.096,0,0,0,.15143.2241,3.396,3.396,0,0,1,.23622.29679c.103.15142.23016.27862.28467.28468a.42474.42474,0,0,1,.20594.16353.57138.57138,0,0,0,.25439.18171c.12719.03634.3937.35736,1.33857,1.599a.80262.80262,0,0,1,.16354.32708c0,.06662.02423.11508.05451.11508s.0848.0848.1272.18171a.691.691,0,0,0,.20593.27256.42673.42673,0,0,1,.13931.28467c.01817.20594.03634.35736.109.90854a1.4189,1.4189,0,0,0,.19382.55118c.08479.12114.13931.24227.12114.26044-.14537.14537.50878.59964.76317.53907a1.12814,1.12814,0,0,0,.55723-.7026.52568.52568,0,0,1,.07874-.25439,3.44648,3.44648,0,0,0,.46033-1.02362.97207.97207,0,0,1-.06057-.29073c-.01212-.1272-.02423-.25438-.03029-.27861a1.07723,1.07723,0,0,1,.06057-.32708.85831.85831,0,0,0-.05451-.67838,1.49311,1.49311,0,0,1-.103-.49666.62818.62818,0,0,0-.01817-.29073,4.10385,4.10385,0,0,1-.08479-.44216.88159.88159,0,0,0-.36948-.72683,1.20074,1.20074,0,0,1-.315-.38158,1.83113,1.83113,0,0,0-.33918-.45427,3.47635,3.47635,0,0,1-.76923-1.33252,1.33377,1.33377,0,0,0-.2665-.49061c-.103-.12114-.22411-.25439-.26651-.3089a.34662.34662,0,0,0-.23016-.09086.69617.69617,0,0,1-.52695-.2665,2.08333,2.08333,0,0,0-.79346-.5209,1.4025,1.4025,0,0,1-.76317-.41187,1.10684,1.10684,0,0,0-.3937-.26044c-.06662-.00606-.18776-.01817-.27256-.03029a5.4195,5.4195,0,0,0-.54512-.04845c-.87825-.06057-.91459-.06663-1.01756-.19988a.80817.80817,0,0,0-.62365-.26041,1.43426,1.43426,0,0,1-.50878-.18776c-.321-.18171-.34525-.18171-1.04179-.17565-.96911.01817-1.02362.01211-1.13264-.09691a.14307.14307,0,0,1-.04064-.19821l.01035-.01379a.33211.33211,0,0,0,.02423-.2241,1.104,1.104,0,0,1-.06057-.30285c-.06663-.72683-.15748-.92065-.50272-1.0963a1.31259,1.31259,0,0,1-.3937-.36341,1.27175,1.27175,0,0,0-.35737-.34525,2.92943,2.92943,0,0,1-.38158-.24833,6.9054,6.9054,0,0,0-1.484-.86614,2.21863,2.21863,0,0,0-.90853-.15142A5.50269,5.50269,0,0,0,22.59908.04348Zm5.82675,13.73707c.13931-.02422.20593.03029.315.24228.06662.1272.109.24833.09085.26045-.01817.01817,0,.103.0424.18776.05451.1272.0424.22411-.09691.59358a3.70555,3.70555,0,0,0-.18171.59963,1.60283,1.60283,0,0,1-.02423.19382c0,.02423-.08479.0848-.18776.13931a.82431.82431,0,0,0-.29073.30286,1.99774,1.99774,0,0,1-.81768.636.33835.33835,0,0,0-.14537.09087c-.04846.04845-.109.07873-.13931.06057-.02423-.01817-.07874.05451-.12114.15142a.40552.40552,0,0,1-.18171.212,1.43114,1.43114,0,0,0-.34524.26045,2.76269,2.76269,0,0,1-.527.37553,2.52353,2.52353,0,0,0-.46033.30284c-.32707.30285-.43609.36342-.55117.29678a.583.583,0,0,0-.56935.13325c-.212.19382-.47244.24834-1.14476.26045-.48455.00606-.68443-.01211-.73894-.07268-.103-.09691-.103-.109-.02423-.25439a2.53694,2.53694,0,0,1,.87825-.48456,4.34311,4.34311,0,0,0,1.06-.54512.6585.6585,0,0,1,.16959-.23622c.09086-.09691.19383-.21805.23017-.26044s.19382-.19383.34524-.33313a1.4194,1.4194,0,0,0,.28468-.30285c0-.03028.07268-.09691.16959-.15142a11.044,11.044,0,0,0,1.67776-1.71411,6.71655,6.71655,0,0,1,.47244-.51484,1.47275,1.47275,0,0,0,.28468-.34524c0-.09691.26044-.18776.37553-.13325A.32523.32523,0,0,0,28.42583,13.78055Z"/>

</g>
</svg>
