<?xml version="1.0" encoding="UTF-8"?>
<svg xmlns="http://www.w3.org/2000/svg"
     version="1.1"
     width="31.24121687mm"
     height="64.59549561mm"
     viewBox="0.00000000 0.00000000 88.55783369 183.10540925">

<g transform="scale(6.48198371)">   <defs>
      <style type="text/css"><![CDATA[
      .a {
        stroke: #000;
        stroke-linecap: round;
        stroke-linejoin: round;
        stroke-width: 0.01px;
      }
    ]]></style>
   </defs>
   <path class="a"
         d="M8.30672.08758C8.22193.136,8.13713.16632,8.119.14816a.82838.82838,0,0,0-.2726.0969,1.05475,1.05475,0,0,1-.32707.1211A1.131,1.131,0,0,0,7.1862.48733,1.15165,1.15165,0,0,1,6.847.60847a.3715.3715,0,0,0-.218.13931,1.10341,1.10341,0,0,1-.33919.25439.72748.72748,0,0,0-.29679.23622,3.36549,3.36549,0,0,1-.75711.8298,1.38072,1.38072,0,0,0-.36341.41792c-.12114.18171-.30891.47244-.424.64809a1.38,1.38,0,0,0-.2241.47244.62636.62636,0,0,1-.13326.27862c-.103.109-.12719.33919-.07873.67837a5.23049,5.23049,0,0,0,.90247,1.04179,1.30956,1.30956,0,0,1,.24834.38764,1.035,1.035,0,0,0,.212.33919.5475.5475,0,0,1,.14537.19988A9.3,9.3,0,0,1,4.75136,7.5618a.2769.2769,0,0,0-.07874.1272,1.43912,1.43912,0,0,1-.28468.38159c-.27256.25439-.39975.33313-.49666.3089a.55045.55045,0,0,0-.34525.12719.94472.94472,0,0,1-.34524.15748.72626.72626,0,0,0-.27256.0848,2.09873,2.09873,0,0,1-.37553.12719.89627.89627,0,0,0-.315.13326.6617.6617,0,0,1-.315.109,1.57087,1.57087,0,0,0-.73288.35736,3.20908,3.20908,0,0,1-.327.24839c-.72077.48455-1.0539,1.12053-.73894,1.4052.29679.27257.28467.26651.71471.18777a1.64835,1.64835,0,0,0,.64809-.24228c.18171-.12719.28468-.16353.40582-.13931A.74018.74018,0,0,0,2.274,10.881a.49566.49566,0,0,1,.4785-.00606,1.42727,1.42727,0,0,0,1.07207-.03028,1.56359,1.56359,0,0,1,1.07813-.13931.52331.52331,0,0,0,.48455-.03028,1.31928,1.31928,0,0,0,.30891-.18777c.06057-.05451.16353-.06662.33313-.0424a2.41875,2.41875,0,0,0,1.30223.00606c.22411-.09691.26045-.09691.62992-.00606a1.45862,1.45862,0,0,0,.47244.06663,7.667,7.667,0,0,1,1.25378-.103c.424.01212.533.0848.70866.45427.20593.45427.2665.50878.66626.61175.424.109.66626.33313.59963.53906a2.0715,2.0715,0,0,0,.09086,1.06c.11508.315.11508.321,0,.43-.09691.09086-.11509.15748-.07874.33313a1.02149,1.02149,0,0,1-.1272.61781c-.13931.321-.15748.41793-.103.55723a.73432.73432,0,0,1,.03635.34525,1.52835,1.52835,0,0,0-.03029.315c0,.07874.00606.19988.00606.27256a3.24407,3.24407,0,0,1-.12114.92671.7474.7474,0,0,0-.03029.34524.41464.41464,0,0,1-.04845.3089,1.20865,1.20865,0,0,0-.1272.34525c-.01817.11508-.04845.25439-.06056.30284s-.0424.19988-.06663.33313a1.90764,1.90764,0,0,1-.15142.45427,2.88538,2.88538,0,0,0-.22411.80557,1.27762,1.27762,0,0,1-.109.29073.34119.34119,0,0,0-.06057.23016,1.153,1.153,0,0,1-.12114.39976.97987.97987,0,0,0-.12114.3937,1.13233,1.13233,0,0,1-.06662.40581,2.64074,2.64074,0,0,0-.09692.48455,4.96326,4.96326,0,0,1-.103,1.33858,6.86357,6.86357,0,0,0-.1696.84191.33142.33142,0,0,0,.06663.29679c.09085.0848.09085.11508.01817.23016-.07268.109-.07268.16354,0,.36947a.899.899,0,0,1,.04846.424.729.729,0,0,0,.09085.424,1.25808,1.25808,0,0,1,.11508.636,1.25715,1.25715,0,0,0,.11508.64809.86622.86622,0,0,1,.11508.36341.79377.79377,0,0,0,.30285.58752.98742.98742,0,0,0,.90248.00606.33241.33241,0,0,1,.15748-.09087c.09691,0,.321-.26044.39975-.46031a2.02062,2.02062,0,0,0,.15143-1.387,2.72976,2.72976,0,0,1,.09085-1.12053,5.84539,5.84539,0,0,0-.01817-1.45366,2.83652,2.83652,0,0,1,.07874-1.30224,11.51945,11.51945,0,0,0,.01211-1.93821A1.8,1.8,0,0,1,12.54045,19.7c.03635-.07268.06057-.15748.0424-.1817s-.00605-.0848.02423-.13326a.19291.19291,0,0,0,0-.1817.88771.88771,0,0,1,.00606-.38159c.03028-.16354.06662-.44215.08479-.62992a1.81083,1.81083,0,0,1,.09086-.44215.52158.52158,0,0,0,.06057-.23017,1.8013,1.8013,0,0,1,.14536-.44821,1.13608,1.13608,0,0,0,.12114-.56935,2.4091,2.4091,0,0,1-.00606-.751,4.44021,4.44021,0,0,1,.15748-.72078,1.82277,1.82277,0,0,0,.103-1.00544c-.07874-.55118-.0848-.81769-.01817-.89643.28468-.3089.315-.41792.30285-1.10235-.00606-.36947-.02423-.77529-.0424-.90854s-.04846-.33919-.06663-.45427a2.73541,2.73541,0,0,0-.16959-.69049A.70641.70641,0,0,1,13.34,9.5303a.97474.97474,0,0,0,.01211-.34524c-.01817-.06663-.0424-.22411-.06057-.33919a1.8385,1.8385,0,0,0-.13931-.45427,4.31028,4.31028,0,0,1-.218-.58752,1.58434,1.58434,0,0,0-.26044-.527c-.47244-.55118-.8298-1.10236-.75712-1.169.02423-.03029-.2241-.26651-.45427-.424-.13325-.09085-.15748-.09085-.30284-.00605a2.55133,2.55133,0,0,0-.86614,1.10841,2.00834,2.00834,0,0,0-.17565.72077c.06057.33313-.29073.55724-.67232.4361-.54512-.16959-.59357-.17565-.79951-.12114a.45576.45576,0,0,1-.33922-.006.21252.21252,0,0,0-.25439.02423,1.923,1.923,0,0,1-.84191.18777.229.229,0,0,0-.16959.02422A.46162.46162,0,0,1,6.526,7.901c-.03634-.09085.0848-.23622.745-.92671a2.507,2.507,0,0,0,.39976-.49666c.02423-.06057.06662-.11508.09691-.11508s.05451-.05452.05451-.12114a.36633.36633,0,0,1,.11508-.22411c.103-.08479.103-.109.03029-.1817-.11508-.12114-.109-.16354.06662-.37553.16354-.19382.16354-.22411,0-.79346a2.99078,2.99078,0,0,1-.09691-.3937c.01212-.32707.06057-.48455.19382-.58752.07874-.06057.20594-.15748.27862-.218A3.395,3.395,0,0,0,8.7186,3.213c.09691-.08479.26651-.2241.38159-.3089A1.898,1.898,0,0,0,9.506,2.35892c.109-.212.26045-.49667.33919-.636a.7442.7442,0,0,0,.11508-.3089.17131.17131,0,0,1,.05451-.14536c.1272-.13326.06057-.61175-.12114-.90248-.05451-.0848-.103-.15748-.109-.1696a.53612.53612,0,0,0-.1454-.04242A.50142.50142,0,0,1,9.43331.06335,2.30408,2.30408,0,0,0,8.30672.08758Zm-.218,1.70805a.36237.36237,0,0,1,.09691.23622c0,.24227-.15143.50878-.25439.44821a1.26263,1.26263,0,0,0-.27257.12114c-.19987.09691-.2665.109-.321.05451-.28468-.34525-.29679-.36947-.23622-.4785a2.6274,2.6274,0,0,1,.854-.47244c.0242-.006.08477.03639.13323.09086Z"/>
   <path class="a"
         d="M5.70225,12.03786a1.0059,1.0059,0,0,1-.35735.0848,2.0249,2.0249,0,0,0-.90248.47849,1.58571,1.58571,0,0,0-.23622.33313,1.90946,1.90946,0,0,1-.17565.26045.24159.24159,0,0,0-.0848.13325c0,.03029-.05451.06663-.11508.09086a.16658.16658,0,0,0-.12114.13931c-.00606.05451-.00606.14536-.00606.19382a1.04905,1.04905,0,0,0,.22411.642c.07874.06057.23016.07874.56329.05451a3.00727,3.00727,0,0,1,.77529.05451,2.15758,2.15758,0,0,0,.95093.02423,3.37516,3.37516,0,0,0,.47244-.19382,2.83357,2.83357,0,0,1,.54512-.19988,1.39314,1.39314,0,0,0,.71472-.45427l.16353-.16959-.218-.36341c-.12113-.19988-.25439-.36342-.29678-.36342-.07269,0-.24228-.13325-.61175-.47849A1.10966,1.10966,0,0,0,5.70225,12.03786Z"/>

</g>
</svg>
