<?xml version="1.0" encoding="UTF-8"?>
<svg xmlns="http://www.w3.org/2000/svg"
     version="1.1"
     width="27.82140077mm"
     height="66.64343401mm"
     viewBox="0.00000000 0.00000000 78.86388635 188.91049578">

<g transform="scale(4.96730009)">   <defs>
      <style type="text/css"><![CDATA[
      .a {
        stroke: #000;
        stroke-linecap: round;
        stroke-linejoin: round;
        stroke-width: 0.01px;
      }
    ]]></style>
   </defs>
   <path class="a"
         d="M10.51294.01873A6.55539,6.55539,0,0,1,9.46509.30941a1.70841,1.70841,0,0,0-.90853.44216,1.4609,1.4609,0,0,1-.44216.30284,1.37539,1.37539,0,0,0-.33918.1272,2.50013,2.50013,0,0,0-.73289.745.4496.4496,0,0,1-.20593.20593,1.709,1.709,0,0,0-.37553.32708c-.32708.37553-.51484.56935-.745.79951a2.41,2.41,0,0,0-.3513.424,2.29447,2.29447,0,0,1-.212.29073,1.21185,1.21185,0,0,0-.16959.26045c-.05451.09691-.12114.17565-.15142.17565a3.59986,3.59986,0,0,0-.61781.8722.50782.50782,0,0,0-.07874.3089,1.22969,1.22969,0,0,1-.11508.45427,6.441,6.441,0,0,0-.751,2.6287.38828.38828,0,0,1,.05451.14536c-.04846.04846.14536.37553.24227.40582.06057.02422.11508.06056.11508.08479,0,.07874.36342.03029.45427-.06057A3.47717,3.47717,0,0,0,4.37734,8.135a2.08622,2.08622,0,0,1,.20593-.5754,1.98,1.98,0,0,0,.18777-.5633A.66371.66371,0,0,1,5.06783,6.439c.09085-.03029.12719-.11508.15748-.38159.08479-.76317.36341-1.33252.7026-1.43549A.1765.1765,0,0,0,6.043,4.47659c0-.09086.11508-.25439.3513-.50878A2.922,2.922,0,0,1,7.04844,3.562a.26118.26118,0,0,0,.14536-.09085,2.13833,2.13833,0,0,1,.77529-.3937,2.9923,2.9923,0,0,0,.50878-.14536.89521.89521,0,0,1,.48455-.09086.54361.54361,0,0,0,.29073.0424c.24228-.01211.48456.05451.48456.13325,0,.03029.15747.05452.3513.05452a1.69812,1.69812,0,0,1,.58752.103,5.32417,5.32417,0,0,0,1.066.29679,1.19043,1.19043,0,0,1,.36342.1272.94631.94631,0,0,0,.34524.13931,6.5633,6.5633,0,0,1,.69049,1.47182,1.9383,1.9383,0,0,0,.07268.3937.695.695,0,0,1-.00606.57541c-.11508.29679-.33313.41793-.56934.33313a.33216.33216,0,0,0-.212-.03028c-.05451.06056.03634.29678.11508.28467.29679-.03634.33313.15142.12114.59358a3.32983,3.32983,0,0,0-.16959.3937,2.03353,2.03353,0,0,1-.55724.751c-.07874.02423-.13931.06057-.13931.09086a2.27763,2.27763,0,0,1-.53906.53906,2.17537,2.17537,0,0,0-.49667.3937,1.33365,1.33365,0,0,1-.3089.18171.83392.83392,0,0,0-.32707.26045.954.954,0,0,1-.30891.29073,2.18085,2.18085,0,0,0-.68443.91459.41548.41548,0,0,1-.1393.218.77928.77928,0,0,0-.30891.7026c.03029.33313.06057.36947.25439.36342a2.67929,2.67929,0,0,1,.50273.08479c.41187.103.642.07269.73288-.103a1.50858,1.50858,0,0,1,.1696-.24833,1.04726,1.04726,0,0,0,.17565-.33919.54123.54123,0,0,1,.218-.29678.40114.40114,0,0,0,.1817-.18171.384.384,0,0,1,.18171-.16959c.19988-.09086.19382-.22411-.02423-.315-.25439-.103-.27862-.22411-.07874-.41187a1.25575,1.25575,0,0,0,.23016-.315.98113.98113,0,0,1,.41187-.32708,1.01493,1.01493,0,0,0,.33919-.2241c0-.02423.04846-.06057.109-.07874a1.54908,1.54908,0,0,0,.60569-.59358.74546.74546,0,0,1,.2241-.25439.9419.9419,0,0,0,.23622-.321,1.7796,1.7796,0,0,1,.27862-.41187.99092.99092,0,0,0,.20594-.30284,1.05913,1.05913,0,0,1,.32707-.33313c.16353-.09691.25439-.19382.25439-.27862a1.46912,1.46912,0,0,1,.19988-.45427,1.55494,1.55494,0,0,0,.212-.527,1.0905,1.0905,0,0,1,.13931-.424c.46638-.86008.47849-.89642.50272-1.278a1.02255,1.02255,0,0,1,.15142-.55724.60941.60941,0,0,0,.1272-.29678.71133.71133,0,0,1,.06057-.24834,1.465,1.465,0,0,0-.15748-.94488,1.55378,1.55378,0,0,1-.26651-.75711,1.07576,1.07576,0,0,0-.16353-.36947c-.09086-.13931-.16354-.26045-.1696-.2665,0,0-.09085-.01818-.20593-.03635a.93405.93405,0,0,1-.3937-.212,1.75614,1.75614,0,0,0-.76923-.49666C13.35363.13373,13.25066.07925,13.25066.049a12.1994,12.1994,0,0,0-1.99878.01817c-.04845,0-.23016-.01817-.3937-.0424A.90629.90629,0,0,0,10.51294.01873Z"/>
   <path class="a"
         d="M15.27973,11.5571a13.53945,13.53945,0,0,0-1.67777.527A3.35717,3.35717,0,0,0,12.51778,13.774a2.81031,2.81031,0,0,1-.70866,1.2356c-.07268.07874-.12114.18777-.103.23017.0424.109-.23016.58752-.4785.83585-.103.109-.2665.29073-.36947.41187-.2241.2665-.35735.315-.533.19988a.22023.22023,0,0,0-.28468-.01211c-.20593.109-.3937.006-.54512-.30285a1.28212,1.28212,0,0,1-.12114-.33919,7.23,7.23,0,0,0-.40581-.89642c-.48456-.963-.82374-1.3628-1.21744-1.42943a1.7281,1.7281,0,0,1-.848-.52695.22959.22959,0,0,0-.18171-.103.42419.42419,0,0,1-.38764-.12114,3.11521,3.11521,0,0,0-.963-.67231,3.47874,3.47874,0,0,1-.58752-.15748,2.48275,2.48275,0,0,0-1.169-.1272,4.17258,4.17258,0,0,0-.78134.07268.42648.42648,0,0,1-.17565.05452,1.2168,1.2168,0,0,0-.55118.34524,1.21263,1.21263,0,0,1-.50878.4785.79734.79734,0,0,0-.29073.12113.94939.94939,0,0,1-.41793.12114c-.29073,0-.38159.11508-.32707.41187a.36807.36807,0,0,1-.11509.3937.72859.72859,0,0,0-.16959.24228.88348.88348,0,0,1-.01817.13325,3.07282,3.07282,0,0,1-.19382.58752c-.109.2665-.06663.50272.109.59963a1.12116,1.12116,0,0,0,.75712.00606,1.44583,1.44583,0,0,1,.77528-.109,1.10712,1.10712,0,0,1,.33919.19382c.16959.14536.24228.16353.68443.16959a1.21951,1.21951,0,0,1,.68443.1272,4.04224,4.04224,0,0,1,.89037.65414,1.31182,1.31182,0,0,0,.38158.26651,1.80945,1.80945,0,0,1,.58752.49666c.19382.24834.27256.30891.48456.33919.527.09085.78134.321.79951.71472A4.61871,4.61871,0,0,0,7.24216,19.946a1.09006,1.09006,0,0,1,.15748.33313,1.59473,1.59473,0,0,0,.3513.56935,1.45826,1.45826,0,0,1,.2665.79345.40893.40893,0,0,0,.03634.24228.24863.24863,0,0,1-.03028.29073.23517.23517,0,0,0-.0424.22411.40406.40406,0,0,1,0,.24227.408.408,0,0,0,.01817.27256.369.369,0,0,1-.01211.3089.97988.97988,0,0,0-.03029.424A3.538,3.538,0,0,1,7.975,24.68247a1.47384,1.47384,0,0,0,.0424.51484,1.3905,1.3905,0,0,1,0,.81768c-.01817.01817.00606.103.04846.19382a.64121.64121,0,0,1,0,.55724A4.12665,4.12665,0,0,0,7.975,28.03194a3.69924,3.69924,0,0,1-.09085.957.6012.6012,0,0,0-.04845.321,1.72429,1.72429,0,0,1,.103.58146,9.21343,9.21343,0,0,0,.00606,1.07813,3.15871,3.15871,0,0,1-.03028.64809.53747.53747,0,0,0,.03028.33919.481.481,0,0,1,.03634.315.21541.21541,0,0,0,.01211.19988.32979.32979,0,0,1-.00605.27256,8.03128,8.03128,0,0,0,.00605,1.90792.22491.22491,0,0,1-.00605.20594.428.428,0,0,0,.03634.33313.83831.83831,0,0,1,.05451.43c-.01817.103-.04845.3513-.06662.53906a2.08713,2.08713,0,0,1-.11509.55724.56967.56967,0,0,0-.06662.23016.94828.94828,0,0,1,.03634.26044c.01817.3392.36947.81163.60569.81768a1.481,1.481,0,0,0,.3937-.15142c.29679-.14537.3089-.16959.38764-.50272a3.77534,3.77534,0,0,1,.27862-.72683,1.8357,1.8357,0,0,0,.20594-.47243,2.494,2.494,0,0,1,.45426-.91459c.09086-.05452.109-.17566.12114-.81163a7.99856,7.99856,0,0,0-.18776-1.99878.19521.19521,0,0,1,.03028-.16354,1.538,1.538,0,0,0,.09086-.37553,1.88941,1.88941,0,0,1,.25439-.82374,5.71508,5.71508,0,0,1,.94487-.93882c.03029-.006.07874-.01211.12114-.01817.03634,0,.09086-.07874.11508-.16959a1.11173,1.11173,0,0,1,.24834-.38764c.109-.12114.25439-.27862.321-.3513a2.42966,2.42966,0,0,0,.29073-.5633,1.85838,1.85838,0,0,1,.315-.55118.43548.43548,0,0,0,.15143-.19382c0-.03028.06662-.07268.15142-.09691a.16407.16407,0,0,0,.152-.17531l-.00058-.00639a.42217.42217,0,0,1,.11508-.26045,2.01654,2.01654,0,0,0,.218-.29073.81314.81314,0,0,1,.33313-.28468.66712.66712,0,0,0,.36342-.39975,2.0143,2.0143,0,0,1,.62992-.70261c.5754-.46638.854-.89642.79951-1.22955-.03634-.23622-.19382-.43-.34525-.43a1.39729,1.39729,0,0,0-.6602.29679,1.74571,1.74571,0,0,1-.33919.41187,5.58921,5.58921,0,0,0-.45426.51484.57363.57363,0,0,1-.22411.19382,1.41643,1.41643,0,0,0-.33313.38158,4.25512,4.25512,0,0,1-.45427.55724c-.12719.109-.52089.48455-.87825.8298a6.33354,6.33354,0,0,1-.70866.62991c-.03028,0-.0424.0424-.02423.09086.02423.05451-.04845.17565-.1817.3089-.17565.17565-.23017.19988-.33313.15142a.395.395,0,0,1-.15748-.18776c-.03635-.12114.06057-.36342.14536-.36342.03029,0,.04846-.1393.04846-.3089-.00606-.29679-.01817-.315-.33919-.58752-.44215-.37553-.43-.3513-.41793-.75711a1.01056,1.01056,0,0,0-.03028-.38159c-.01817-.01817-.01211-.09691.01817-.17565a.55046.55046,0,0,0-.03634-.38158,1.12873,1.12873,0,0,1-.02423-.963,1.04939,1.04939,0,0,0,.12114-.49061,2.93594,2.93594,0,0,1,.04845-.49667,5.06327,5.06327,0,0,0,0-.93276,3.71542,3.71542,0,0,1,.02423-1.06c.0424-.18777.07874-.38159.0848-.43,0-.04846.01211-.13325.01817-.18777a.50018.50018,0,0,1,.12114-.23016,2.11064,2.11064,0,0,0,.25439-.46638,1.001,1.001,0,0,1,.1817-.32707c.01818,0,.05452-.0848.07874-.18171a.75867.75867,0,0,1,.18777-.33919.50488.50488,0,0,0,.15142-.25439,1.3767,1.3767,0,0,1,.41187-.6602.6039.6039,0,0,0,.19382-.29679.87253.87253,0,0,1,.3513-.533,3.15119,3.15119,0,0,0,.79952-1.25378,1.58374,1.58374,0,0,1,.33313-.51484,1.208,1.208,0,0,0,.27256-.36947.40589.40589,0,0,1,.12113-.19988,6.91315,6.91315,0,0,0,.96305-1.36886,1.17631,1.17631,0,0,1,.23017-.39975,7.09749,7.09749,0,0,1,.73288-.72078c.1272-.09085.16354-.26044.14537-.64809-.01212-.1817-.19382-.44821-.29679-.43C15.54017,11.50864,15.413,11.53287,15.27973,11.5571ZM6.49721,16.74181a.30416.30416,0,0,1,.06662.25439c-.01211.09085-.03028.18171-.03028.19988-.01211.0848-.19382.109-.33313.04845-.16354-.07874-.29073-.30284-.22411-.40581A.78147.78147,0,0,1,6.3579,16.651C6.38213,16.6449,6.4427,16.6873,6.49721,16.74181Z"/>

</g>
</svg>
