<?xml version="1.0" encoding="UTF-8"?>
<svg xmlns="http://www.w3.org/2000/svg"
     version="1.1"
     width="35.72011839mm"
     height="15.78470213mm"
     viewBox="0.00000000 0.00000000 101.25388135 44.74400440">

<g transform="scale(6.18595529)">   <defs>
      <style type="text/css"><![CDATA[
      .a {
        stroke: #000;
        stroke-linecap: round;
        stroke-linejoin: round;
        stroke-width: 0.01px;
      }
    ]]></style>
   </defs>
   <path class="a"
         d="M4.85654.21271A1.02719,1.02719,0,0,1,4.584.49738.54044.54044,0,0,0,4.366.776c-.04846.14537-.18171.2665-.50879.48455a2.20816,2.20816,0,0,0-.91461,1.07813.32853.32853,0,0,1-.24228.24228A3.8655,3.8655,0,0,0,1.54947,3.99222c.01212.04846-.0424.15142-.12719.23016a1.63557,1.63557,0,0,0-.26045.321,6.29572,6.29572,0,0,1-.60569.90854,1.70771,1.70771,0,0,0-.218.315.65122.65122,0,0,1-.212.24228c-.103.05451-.12114.1272-.12114.45427,0,.41793.00606.43.27862.4785a.476.476,0,0,1,.26045.15747.43522.43522,0,0,0,.61549.00249l.00837-.00854A.382.382,0,0,1,1.45866,6.942a2.44159,2.44159,0,0,0,.53906-.13931.98246.98246,0,0,1,.38159-.09086c.03028.02423.14536-.006.24833-.05451a2.5702,2.5702,0,0,1,.76317-.28467,3.03194,3.03194,0,0,0,.527-.14537c.23017-.07874.48456-.16354.56935-.18171a1.79062,1.79062,0,0,0,.4361-.218l.27862-.1817.2665.11508a.56074.56074,0,0,1,.3513.30284,1.54062,1.54062,0,0,0,.48456.49061,1.385,1.385,0,0,0,.90248.3513,2.19788,2.19788,0,0,0,.62386-.00605,1.94643,1.94643,0,0,1,.533-.01817,3.5942,3.5942,0,0,0,.87825.01212c.16959-.01817.47244-.0424.67837-.06057a1.732,1.732,0,0,0,.50273-.09691,1.13709,1.13709,0,0,1,.52089-.03028c.38158.04239.38764.04239.62992-.17565a.836.836,0,0,1,.36341-.21805c.06663,0,.12114-.02423.12114-.06057a.98683.98683,0,0,1,.53907-.27862,1.50436,1.50436,0,0,0,.751-.3089.619.619,0,0,1,.24834-.13931.54676.54676,0,0,0,.24227-.1272.75384.75384,0,0,1,.26651-.13931c.06057-.01211.12719-.103.15748-.23622a.634.634,0,0,0-.07874-.51483c-.13326-.28468-.13326-.30891-.0424-.48456a.71549.71549,0,0,1,.218-.25439,1.23944,1.23944,0,0,0,.30284-.424,1.23164,1.23164,0,0,1,.29073-.41793,2.95726,2.95726,0,0,0,.41793-.3513c.16959-.15748.3513-.32707.40581-.36947s.0848-.103.06663-.13325a1.44555,1.44555,0,0,1,.3937-.72683c.19988-.109.15748-.40581-.09691-.642-.26649-.25449-.46031-.309-.70859-.18787-.109.04846-.37553.17565-.59963.28468-.4785.23016-.67232.212-.82374-.07268-.18782-.33919-.3877-.54513-.49063-.49672a.801.801,0,0,1-.19988.04845,2.31663,2.31663,0,0,0-.97516.89643,1.18946,1.18946,0,0,1-.30891.3937,1.35812,1.35812,0,0,0-.30284.36341.88891.88891,0,0,1-.40582.32707,4.06161,4.06161,0,0,0-.72682.54513c-.27862.27256-.35736.38158-.35736.527a.42045.42045,0,0,0,.321.49061l.24834.103.38764-.26044a2.591,2.591,0,0,1,.44215-.26045.74944.74944,0,0,0,.218-.15748c.09086-.0848.25439-.23622.3513-.32707a1.99979,1.99979,0,0,1,.86009-.50273.41676.41676,0,0,1,.16353.19382.26354.26354,0,0,1,0,.321.47436.47436,0,0,1-.19382.19988.3535.3535,0,0,0-.18171.18171.81334.81334,0,0,1-.27861.27861.74788.74788,0,0,0-.27862.29074c-.0848.20594-.27862.35735-.89037.67837a1.69273,1.69273,0,0,0-.56935.41794c-.12719.20593-.212.23016-.751.23621a1.42,1.42,0,0,1-.72683-.14537,2.29748,2.29748,0,0,0-.45427-.17565.73828.73828,0,0,1-.33313-.27861A4.92362,4.92362,0,0,0,7.77,3.78628a.65408.65408,0,0,1-.19382-.39369,3.89525,3.89525,0,0,0-.23622-.66626,2.55646,2.55646,0,0,1-.18777-.47244.64628.64628,0,0,0-.14536-.24228.94543.94543,0,0,1-.18171-.527A1.37488,1.37488,0,0,0,6.23146.49133,1.44313,1.44313,0,0,1,5.856.21876.58087.58087,0,0,0,5.31081.01283C5.002.01283,4.97163.02494,4.85654.21271ZM3.81476,3.57429a.39609.39609,0,0,1,.14536.19382,1.08369,1.08369,0,0,0,.1272.25439A.39439.39439,0,0,1,4.16,4.289a.26262.26262,0,0,0,.02423.19988c.08479.16353-.06663.33313-.3089.3513-.11509.01211-.33313.03634-.48456.05451a.829.829,0,0,1-.77528-.2665c-.04846-.09692-.03634-.15143.05451-.26651a2.26509,2.26509,0,0,0,.218-.40581.5504.5504,0,0,1,.3513-.36947C3.55431,3.441,3.65728,3.441,3.81476,3.57429Z"/>

</g>
</svg>
