<?xml version="1.0" encoding="UTF-8"?>
<svg xmlns="http://www.w3.org/2000/svg"
     version="1.1"
     width="42.30603358mm"
     height="15.74010174mm"
     viewBox="0.00000000 0.00000000 119.92266032 44.61762061">

<g transform="scale(6.27500687)">   <defs>
      <style type="text/css"><![CDATA[
      .a {
        stroke: #000;
        stroke-linecap: round;
        stroke-linejoin: round;
        stroke-width: 0.01px;
      }
    ]]></style>
   </defs>
   <path class="a"
         d="M16.77435.01711c-.12719.03634-.18171.0848-.38764.34524-.16354.21805-.16959.39976-.01211.53907a.33413.33413,0,0,1,.12113.218.691.691,0,0,0,.18777.315,1.06928,1.06928,0,0,1,.35736.90248.5892.5892,0,0,0-.03029.24227,1.92971,1.92971,0,0,1-.315.79952,3.34337,3.34337,0,0,1-.38764.315c-.15748.103-.4361.29074-.62386.424a2.22514,2.22514,0,0,1-.5633.28467c-.12719.02423-.33918.07874-.47243.11508a4.16852,4.16852,0,0,1-.66626.12114c-.23017.03029-.55724.0848-.72683.12114a5.34924,5.34924,0,0,1-.69655.0848,6.24663,6.24663,0,0,0-.636.07268,5.16877,5.16877,0,0,1-.87826.04846A2.82238,2.82238,0,0,1,9.5181,4.63863a.72254.72254,0,0,0-.36947-.13325c-.24833-.00606-.50878-.13931-.54512-.27256a1.48185,1.48185,0,0,1,.09691-.745A5.99176,5.99176,0,0,0,8.83367,2.761c.03634-.38158.03029-.39976-.16353-.62386-.19383-.212-.218-.22411-.57541-.22411-.212,0-.38159.02423-.38159.05452,0,.07874-.16959.13325-.58146.18776a2.607,2.607,0,0,0-.69049.20593,1.52283,1.52283,0,0,1-.43.15748,1.41,1.41,0,0,0-.36947.11509,16.21166,16.21166,0,0,1-1.98666.79335,2.84494,2.84494,0,0,0-.848.29679,2.14961,2.14961,0,0,1-.36342.212c-.18171.09085-.43.212-.54512.27256-.11508.06663-.43.218-.69654.33919a1.46038,1.46038,0,0,0-.77529.62386,3.2423,3.2423,0,0,0-.37553.636c-.06662.19987-.06662.24227.03634.36947.14537.18171.33919.25439.90248.32707a3.33357,3.33357,0,0,0,1.30224,0,7.62009,7.62009,0,0,1,.9691-.07874c.33313-.00606.78135-.02423.9994-.04845a.87236.87236,0,0,1,.527.04845,1.83078,1.83078,0,0,0,1.06-.03634A.32983.32983,0,0,1,6.12023,6.383a.2149.2149,0,0,0,.19987.01212.94294.94294,0,0,1,.3937.00605c.1696.03029.3937.06663.50878.07269a.43566.43566,0,0,1,.28468.13325c.07874.103.17565.11508.89036.12719a3.75293,3.75293,0,0,1,1.39309.15748,1.01283,1.01283,0,0,0,.43.01817c.26651-.02422.34525-.01211.48456.09691.14536.11509.19382.12114.43.06057a2.95364,2.95364,0,0,1,.4361-.07268,2.16858,2.16858,0,0,0,.50272-.109c.25439-.0848.36341-.09691.45427-.04846a1.98519,1.98519,0,0,0,.1817.0848,2.71248,2.71248,0,0,0,1.15082.109c.30284-.02423.76923-.0424,1.03573-.03634.45427.01211.50272,0,.60569-.13325a3.6797,3.6797,0,0,1,1.09024-.58752.11648.11648,0,0,0,.09691-.04846,1.59028,1.59028,0,0,1,.35736-.212,2.46731,2.46731,0,0,0,1.10842-.93882,6.7331,6.7331,0,0,0,.72683-1.41732.51459.51459,0,0,1,.11508-.26044.52927.52927,0,0,0,.09691-.3513,1.38882,1.38882,0,0,1,.01211-.315,1.03953,1.03953,0,0,0-.11508-.33313,2.71555,2.71555,0,0,1-.22411-.92065,1.04191,1.04191,0,0,0-.29073-.636,2.53809,2.53809,0,0,1-.315-.34524.98129.98129,0,0,0-.66626-.43A2.07,2.07,0,0,0,16.77435.01711Z"/>

</g>
</svg>
