<?xml version="1.0" encoding="UTF-8"?>
<svg xmlns="http://www.w3.org/2000/svg"
     version="1.1"
     width="67.26095213mm"
     height="29.24716422mm"
     viewBox="0.00000000 0.00000000 190.66087428 82.90534944">

<g transform="scale(6.48198371)">   <defs>
      <style type="text/css"><![CDATA[
      .a {
        stroke: #000;
        stroke-linecap: round;
        stroke-linejoin: round;
        stroke-width: 0.01px;
      }
    ]]></style>
   </defs>
   <path class="a"
         d="M2.64344.12975a4.26146,4.26146,0,0,0-.28468.36341c-.16959.25439-.36341.46033-.43.46033a1.88778,1.88778,0,0,0-.41792.72077.30074.30074,0,0,1-.0848.19988,2.23187,2.23187,0,0,0-.18776.29073c-.12114.24227-.19988.30284-.315.26044-.0424-.01817-.07874,0-.07874.03029,0,.03634-.06057.0848-.13326.109a.60225.60225,0,0,0-.20593.109,2.78781,2.78781,0,0,1-.37553.27256.78586.78586,0,0,0-.11508.424c-.04845.49667.07268.62386.61781.65415.315.01211.39369,0,.51483-.11508a.43081.43081,0,0,1,.36947-.11508.74152.74152,0,0,0,.38159-.0848c.0848-.05451.17565-.0848.212-.06663.06663.0424.35736-.07268.48455-.19382.0848-.07874.38159-.07268.9146.01817a4.74576,4.74576,0,0,0,1.21141-.006c.218-.01817.424-.03635.45427-.03029.03634.00606.16959.02423.30284.03634s.3513.0424.48456.06057a3.395,3.395,0,0,0,.3937.02423,1.23851,1.23851,0,0,1,.48455.03634,5.65363,5.65363,0,0,0,.7874.06663c.3513.01211.77528.03634.93882.06057a2.17548,2.17548,0,0,0,1.06-.06663,2.35447,2.35447,0,0,1,.642-.12114,2.14344,2.14344,0,0,0,.57541-.09691A2.435,2.435,0,0,1,11.432,3.346c.25439-.01817.60569-.04845.76922-.06662a4.51687,4.51687,0,0,1,.64809-.03029A2.91588,2.91588,0,0,0,13.564,3.1643c.29073-.07269.3937-.07874.49666-.02423a1.23672,1.23672,0,0,0,.76923,0,.218.218,0,0,1,.218.01211,1.64737,1.64737,0,0,0,.51484.07874,1.24188,1.24188,0,0,0,.66626-.12113.98163.98163,0,0,1,.3937-.12114,2.7704,2.7704,0,0,0,.58146-.06663,1.89392,1.89392,0,0,1,.636-.03634,1.20557,1.20557,0,0,0,.41792,0,3.93511,3.93511,0,0,1,.68443-.01817,1.60574,1.60574,0,0,0,.64809-.06057,1.48287,1.48287,0,0,1,.99939.01817.44559.44559,0,0,1,0,.25439,10.11082,10.11082,0,0,0,.02423,1.87159c.02423.05451-.03634.212-.14536.36947a1.00544,1.00544,0,0,0-.18171.48455c0,.11508-.00606.26045-.00606.32707a3.59851,3.59851,0,0,0,.19988,1.3083.43362.43362,0,0,1,.09085.50272,1.13554,1.13554,0,0,0-.006.79951,1.22472,1.22472,0,0,1,.109.49061,1.59064,1.59064,0,0,0,.11508.54512.97293.97293,0,0,1,.103.26651,3.82278,3.82278,0,0,0,.23622.54512,2.43075,2.43075,0,0,1,.212.47849c-.01211,0,.01817.07269.07268.15748a.93169.93169,0,0,0,.33919.24834.88467.88467,0,0,1,.315.20593,1.34165,1.34165,0,0,0,.424.26651c.32708.14536.70261.45427.70261.58146,0,.07268.24227.16959.59963.23622a.92878.92878,0,0,0,.51484-.03634,2.40927,2.40927,0,0,1,.52089-.109,2.07041,2.07041,0,0,0,.45427-.09085,3.01134,3.01134,0,0,0,1.1811-1.48394.2912.2912,0,0,1,.07874-.1696,1.44927,1.44927,0,0,0,.1817-.43c.09086-.28467.09691-.38764.0424-.52695a.8764.8764,0,0,0-.67231-.46032,1.12545,1.12545,0,0,1-.37553-.09691A.48192.48192,0,0,0,25.587,9.306a3.096,3.096,0,0,1-.76317-.212.74489.74489,0,0,1-.41792-.50272,1.125,1.125,0,0,1,.41187-.43c.03028,0,.103-.109.16353-.24834.12114-.2665.29679-.41792.47244-.41792a3.25177,3.25177,0,0,0,.89643-.61175.41621.41621,0,0,1,.16353-.11508.41545.41545,0,0,0,.1696-.109A3.6038,3.6038,0,0,1,27.24054,6.32c.43-.218.44821-.22411.59964-.1272.28467.18777.79345-.02423.80556-.33313a1.01266,1.01266,0,0,1,.15143-.33313c.07874-.13325.25439-.46638.38764-.73894a1.42748,1.42748,0,0,0,.2241-.78134c-.02422-.315-.09085-.38159-.39975-.3937-.33313-.01817-.424,0-.5209.09691a.33237.33237,0,0,1-.15748.09085.69939.69939,0,0,0-.24227.18171c-.09691.103-.19988.16959-.22411.15142a.14184.14184,0,0,0-.13325.06663,2.27978,2.27978,0,0,1-.41793.3089,2.01158,2.01158,0,0,0-.66626.636.68757.68757,0,0,1-.15142.212,2.97852,2.97852,0,0,0-.19988.23016,2.21824,2.21824,0,0,1-.7026.48455c-.23622.109-.33919.19383-.33919.27256a1.21913,1.21913,0,0,1-.50272.77529c-.17565.13931-.3937.321-.48455.39976-.212.1817-.28468.15748-.49667-.14537a.731.731,0,0,1-.15142-.49667,3.66765,3.66765,0,0,0-.0848-1.25378,1.37444,1.37444,0,0,1-.07268-.424c-.01211-.18777-.03634-.4361-.05451-.55118a4.32938,4.32938,0,0,1,0-1.12053.935.935,0,0,0-.07874-.5754,1.357,1.357,0,0,1-.09691-.64809c.02422-.36342.01817-.37553-.20594-.57541a1.94912,1.94912,0,0,0-1.0115-.49061A3.12225,3.12225,0,0,1,20.92925.78389a1.3138,1.3138,0,0,0-.93276-.05451.83043.83043,0,0,1-.49667.03634,1.27311,1.27311,0,0,0-.28467-.0424.98586.98586,0,0,1-.26651-.05451.93473.93473,0,0,0-.48455-.00606,10.53079,10.53079,0,0,1-1.387.11508,2.73387,2.73387,0,0,1-.739-.12113,1.33034,1.33034,0,0,0-.41187-.05452A.78764.78764,0,0,1,15.64763.5719.75519.75519,0,0,0,15.363.60824a8.49642,8.49642,0,0,1-1.19321.07268A7.1076,7.1076,0,0,0,12.2921.86263a2.44937,2.44937,0,0,1-.5633.06663c-.27256.01211-.55117.02423-.6178.03028-.06663,0-.36342-.006-.66626-.02423a2.90606,2.90606,0,0,0-.81768.04846,2.09272,2.09272,0,0,1-.4361.07874,1.90026,1.90026,0,0,0-.212.02423,1.58063,1.58063,0,0,1-.3513-.0848A3.91964,3.91964,0,0,0,7.84633.86869a2.41093,2.41093,0,0,1-.58753-.103.24422.24422,0,0,0-.17565-.0242c-.03028.01817-.109-.01817-.16959-.07874A1.48827,1.48827,0,0,0,6.05348.372a2.57546,2.57546,0,0,1-.4361-.09085A2.1506,2.1506,0,0,0,5.07832.20849a1.34144,1.34144,0,0,0-.69049.08479c-.212.09691-.26045.09691-.37553.02423A.56407.56407,0,0,0,3.75791.22666.32722.32722,0,0,1,3.558.14792a.91183.91183,0,0,0-.43-.12114C2.813-.01562,2.76458-.00351,2.64344.12975Z"/>

</g>
</svg>
