<?xml version="1.0" encoding="UTF-8"?>
<svg xmlns="http://www.w3.org/2000/svg"
     version="1.1"
     width="27.89501616mm"
     height="45.88394443mm"
     viewBox="0.00000000 0.00000000 79.07246328 130.06467979">

<g transform="scale(4.96730009)">   <defs>
      <style type="text/css"><![CDATA[
      .a {
        stroke: #000;
        stroke-linecap: round;
        stroke-linejoin: round;
        stroke-width: 0.01px;
      }
    ]]></style>
   </defs>
   <path class="a"
         d="M10.51863.08A9.43182,9.43182,0,0,1,9.0044.31617C8.956.31011,8.6955.31011,8.429.31011H7.03589c-.2665,0-.7026.03029-.96911.06057-.2665.03634-.53906.06663-.59963.06663A3.46342,3.46342,0,0,0,4.97048.5645c-.29073.09691-.41187.109-.50272.06057a1.20857,1.20857,0,0,0-.77529,0,2.09168,2.09168,0,0,0-.77528.75106,1.81147,1.81147,0,0,1-.28467.3937,2.52831,2.52831,0,0,0-.321.40581c-.06663.109-.13931.19988-.16959.19988a1.55194,1.55194,0,0,0-.30891.25439,3.949,3.949,0,0,1-.38158.3513c-.14537.109-.27862.34525-.23622.41793.01817.03028-.03634.12719-.12114.218-.18171.19987-.15748.40581.07268.62992.17565.16353.33919.15142.96305-.04846.26045-.07874.3937-.09691.4785-.05451A4.994,4.994,0,0,0,4.21945,4.017a2.87235,2.87235,0,0,1,.30284-.0909,1.6727,1.6727,0,0,0,.43-.218.81569.81569,0,0,1,.69049-.15748c.43.02423.527.09085.49061.321-.07268.37553-.3513.65414-.963.95093a3.95415,3.95415,0,0,0-.636.36947,2.62581,2.62581,0,0,1-.51484.30285,1.23038,1.23038,0,0,0-.424.29679,2.23266,2.23266,0,0,1-.97516.43,1.29589,1.29589,0,0,0-.45427.30284c-.26044.25439-.52089.48456-.76922.69655-.06057.04845-.23017.16353-.36948.25439C.88206,7.56623.767,7.68131.767,7.72977a1.40423,1.40423,0,0,1-.23622.37553C.29457,8.384.28851,8.39609.37331,8.596a1.05809,1.05809,0,0,0,.56329.53906A1.61794,1.61794,0,0,0,1.42115,9.129a5.29148,5.29148,0,0,1,.69049-.04845c.66626.00606.80557.12114.59358.48455a.88916.88916,0,0,0-.12114.29073.38238.38238,0,0,1-.12114.19988,1.21039,1.21039,0,0,0-.19988.47244,3.06,3.06,0,0,1-.15142.49061,1.20722,1.20722,0,0,0-.09691.28468,1.23325,1.23325,0,0,1-.212.38158.8051.8051,0,0,0-.18777.38764,1.38337,1.38337,0,0,1-.12719.44821,2.04849,2.04849,0,0,0-.14537.7874,2.00164,2.00164,0,0,1-.08479.62386.88659.88659,0,0,0-.06663.33919,1.64709,1.64709,0,0,1-.14536.533,4.96148,4.96148,0,0,0-.39973,1.3204,1.54711,1.54711,0,0,1-.12114.47244,2.61346,2.61346,0,0,0-.14537.73894c-.01817.24833-.04845.60569-.06662.7874-.02423.1817-.04846.43-.06057.54512a1.61941,1.61941,0,0,1-.09085.41187.40737.40737,0,0,0-.0424.23622c.02423.01817.01211.08479-.02423.15142a.32042.32042,0,0,0,.00606.29679.49418.49418,0,0,1-.02423.44821.65327.65327,0,0,0-.03634.50878,1.8381,1.8381,0,0,1,.0424.5209.83678.83678,0,0,0,.02422.33918.521.521,0,0,1-.04239.3089,1.45261,1.45261,0,0,0,.00605.83586,2.77954,2.77954,0,0,1,.06057.3089.998.998,0,0,0,.0848.27862.56062.56062,0,0,1,.03634.2665,1.99949,1.99949,0,0,0,.212,1.32647c.19382.19382.25439.3513.18171.48455-.07874.15142.06057.44821.26045.55118a.59874.59874,0,0,1,.1817.15142c.03029.05451.15748.0848.321.0848.26045,0,.27256-.00606.38764-.27256a.93529.93529,0,0,1,.3452-.41793,1.98079,1.98079,0,0,0,.41187-.36947c.103-.1272.29073-.33919.43-.4785a2.57478,2.57478,0,0,0,.8117-1.46573,1.036,1.036,0,0,1,.212-.40581,1.65922,1.65922,0,0,0,.212-.32708.66332.66332,0,0,0-.18777-.21805c-.103-.08479-.16959-.18776-.14536-.218.04239-.07269-.1272-.43-.20594-.43a5.55917,5.55917,0,0,1-.424-1.30224,1.46088,1.46088,0,0,0-.09691-.57541.55849.55849,0,0,1-.0424-.2665.82507.82507,0,0,0-.04846-.34524.33.33,0,0,1,.01817-.33313.64987.64987,0,0,0,.04846-.62387A3.12936,3.12936,0,0,1,3.105,16.791a5.83859,5.83859,0,0,1,.18171-1.58086,5.68328,5.68328,0,0,0,.09691-1.20534c0-.321.0848-.58147.20594-.62992.06057-.02423.07874-.1272.06057-.41187a1.32066,1.32066,0,0,1,.04845-.50272.77071.77071,0,0,0,.07874-.212c.00606-.04845.0424-.212.07874-.36341s.07268-.32707.0848-.3937a2.31237,2.31237,0,0,1,.3513-.71472.65332.65332,0,0,0,.09085-.62991c-.04845-.103-.01211-.19988.16354-.49667.13931-.23016.27862-.38159.35736-.3937A5.96545,5.96545,0,0,1,5.73367,9.135c.15143-.01211.4785-.03634.739-.06057.37552-.03028.47849-.02422.55723.05451.0848.09086.0848.11509.00606.27257a.91533.91533,0,0,0-.09085.33918.79638.79638,0,0,1-.1272.36342,1.48255,1.48255,0,0,0-.03028,1.12053.48194.48194,0,0,1,.05451.26044c-.09691.09086-.06663.48456.04845.70866a.49331.49331,0,0,1,.07269.315,3.3556,3.3556,0,0,0-.06057.70866,1.691,1.691,0,0,1-.13931.82374,1.14474,1.14474,0,0,0-.1272.3089,2.39719,2.39719,0,0,0,.15748.80557c.12114.315.15143.50878.09691.59963a.60988.60988,0,0,0,.06057.37553.774.774,0,0,1,.06057.533,1.58938,1.58938,0,0,0,.03029.61781.929.929,0,0,1,.01817.54512.61663.61663,0,0,0,.03634.44215,2.33562,2.33562,0,0,1,.06057.96911,1.71288,1.71288,0,0,0,.08479.94488c.103.2241.103.27861.03029.45426a2.40612,2.40612,0,0,0,.09691,1.20533,2.72393,2.72393,0,0,1,.06057.65415,2.02437,2.02437,0,0,0,.06662.60569,1.33812,1.33812,0,0,1,.06057.48455,1.02594,1.02594,0,0,0,.0848.49061.19939.19939,0,0,1,.03028.21805,1.44913,1.44913,0,0,0,.23622.81162.69777.69777,0,0,0,.36342.13326c.33919.04845.55118-.07874.55118-.321a.72019.72019,0,0,1,.33918-.55118.68131.68131,0,0,0,.24834-.23016,1.43614,1.43614,0,0,1,.14536-.19988,1.76742,1.76742,0,0,0,.20594-.36341c.00606-.01818.0424-.15143.0848-.30285a3.5525,3.5525,0,0,0,.09691-.3937,3.15173,3.15173,0,0,1,.12113-.38764,1.22,1.22,0,0,0-.01211-.89642.38446.38446,0,0,1-.07268-.212.35432.35432,0,0,0-.05451-.212.42758.42758,0,0,1-.03635-.28467.34318.34318,0,0,0-.09085-.315,2.97894,2.97894,0,0,1-.315-1.68988,2.33162,2.33162,0,0,1,.03634-.30285A3.955,3.955,0,0,0,9.52531,17.548c-.03634-.68443-.0424-.69655-.20594-.90855a.359.359,0,0,1-.103-.315,1.30778,1.30778,0,0,0-.07269-.49061,1.92865,1.92865,0,0,1-.08479-.40581,1.69114,1.69114,0,0,0,.0424-.20593A.37766.37766,0,0,1,9.18,15.0162a.13336.13336,0,0,0,.00605-.16354,1.52307,1.52307,0,0,1-.08479-.36947,2.13511,2.13511,0,0,0-.11509-.642c-.02422-.03634.01212-.15748.07269-.28467.11508-.22411.12114-.36948.01817-1.00545a1.23121,1.23121,0,0,1-.00606-.47244,2.45352,2.45352,0,0,0-.02423-1.19927.27609.27609,0,0,1,.03634-.19988A.89458.89458,0,0,0,9.14368,10.31a3.7796,3.7796,0,0,0-.27256-1.0539A2.23666,2.23666,0,0,1,8.756,8.96538c-.06057-.23016.07874-.37553.47244-.49667.15748-.04845.44216-.14536.62386-.218a4.37764,4.37764,0,0,1,.69655-.19382c.19988-.03028.59357-.09691.87825-.14536.28467-.05452.58752-.109.67232-.12114a.2807.2807,0,0,1,.25443.0666c.09085.0848.08479.12114-.05452.38765a2.33908,2.33908,0,0,0-.1817.50272,1.83986,1.83986,0,0,1-.11508.3513c-.30891.61175-.33919.97516-.12114,1.36281.09691.16959.12114.27861.09085.36341-.07874.18171-.07268.25439.0424.36341a1.0918,1.0918,0,0,1,.13931.75712.19293.19293,0,0,0,0,.18171,3.24381,3.24381,0,0,1,.07874.6178c.02423.527.03028.533.27862.80557.2241.24833.24227.28467.17565.41187-.0848.15748-.07269.28467.05451.636.09085.24228.09085.27862-.00606.47244-.07268.15748-.0848.24228-.03634.32708a4.03877,4.03877,0,0,1,.09085.82979c.01212.3937.0424.93882.06057,1.21139a1.37656,1.37656,0,0,1-.04845.66626,1.37259,1.37259,0,0,0-.09691.46637,1.7145,1.7145,0,0,1-.03634.34524,3.40624,3.40624,0,0,0-.06663.60569c-.03634.51484-.02423.58752.09691.79346a.43377.43377,0,0,1,.07268.424,1.76759,1.76759,0,0,0-.04845.50273.69614.69614,0,0,1-.212.65414c-.13326.12114-.14537.30286-.0424.59358a.62539.62539,0,0,0,.58752.49667c.3937,0,.55118-.15143.854-.78739a1.64616,1.64616,0,0,1,.41187-.642c.0848-.03634.1272-.09691.103-.15142a.97.97,0,0,1,.27256-.72077.83018.83018,0,0,0,.18171-.26045,3.0292,3.0292,0,0,1,.212-.48455,2.00416,2.00416,0,0,0,.212-.60569.88089.88089,0,0,1,.0848-.3513,1.487,1.487,0,0,0,.06662-.56934.99411.99411,0,0,1,.06057-.50878c.06056-.08481.05451-.1696-.01211-.4361a.70393.70393,0,0,1,.22411-.83585.60025.60025,0,0,0,.17564-.51484c0-.321,0-.36947.00605-.70866a5.34513,5.34513,0,0,0-.03633-.87219c-.01818-.07874-.04241-.20594-.05451-.29074s-.05452-.27256-.09085-.424a5.34215,5.34215,0,0,1-.09087-.79951,1.6761,1.6761,0,0,0-.109-.66021.2883.2883,0,0,1-.03029-.31495,1.55134,1.55134,0,0,0,.03029-.739.26538.26538,0,0,1,.01211-.20593c.06057-.09086-.01211-.315-.18171-.533a1.109,1.109,0,0,1-.12113-.79346.79774.79774,0,0,0-.15143-.6602c-.04845-.04845-.07268-.109-.05451-.13931a2.27445,2.27445,0,0,0,.03029-.848,2.55294,2.55294,0,0,1-.45427-.78134.96383.96383,0,0,0-.0848-.24227c-.05451-.09086-.03634-.18171.07874-.41187.35736-.745.3937-.8298.33919-.92065-.04846-.09691.103-.49061.19382-.49061.09691,0,.0424-.13326-.11508-.27256A.35685.35685,0,0,0,14.47379,4.98a1.5745,1.5745,0,0,1-.94487.24833,1.24476,1.24476,0,0,0-.527.11509.97838.97838,0,0,1-.80557.06662,3.2032,3.2032,0,0,0-.75712-.07268,1.55164,1.55164,0,0,1-.80557-.1272c-.20593-.11508-.23016-.11508-.41187-.02422a1.85934,1.85934,0,0,1-.59963.12719c-.22411.01817-.642.0424-.92671.06057-.50879.03634-.82374-.02423-.90853-.15748-.01817-.03634-.13931-.07268-.26651-.0848a.45465.45465,0,0,1-.27852-.09691c-.04845-.08479.03635-.29678.12114-.29678a3.68574,3.68574,0,0,0,.67838-.636,1.37542,1.37542,0,0,1,.29678-.27256,5.74965,5.74965,0,0,0,.49061-.424,5.95355,5.95355,0,0,1,.46033-.40581,2.2713,2.2713,0,0,0,.44821-.54512,2.04762,2.04762,0,0,1,.24833-.37553.48864.48864,0,0,0,.15748-.12719,2.05117,2.05117,0,0,1,.4361-.27256,1.20636,1.20636,0,0,0,.69044-.87823.584.584,0,0,0,0-.51483C11.14249-.023,11.03953-.0533,10.51863.08Z"/>

</g>
</svg>
