<?xml version="1.0" encoding="UTF-8"?>
<svg xmlns="http://www.w3.org/2000/svg"
     version="1.1"
     width="18.14962727mm"
     height="39.86260111mm"
     viewBox="0.00000000 0.00000000 51.44779132 112.99639771">

<g transform="scale(3.67920472)">   <defs>
      <style type="text/css"><![CDATA[
      .a {
        stroke: #000;
        stroke-linecap: round;
        stroke-linejoin: round;
        stroke-width: 0.01px;
      }
    ]]></style>
   </defs>
   <path class="a"
         d="M5.41619.10973c-.04845.08479-.212.14536-.67837.24227a.7005.7005,0,0,0-.27256.14537,1.59648,1.59648,0,0,1-.3937.23622,3.6132,3.6132,0,0,0-1.15082.92065c-.08479.109-.19987.24228-.25439.3089a.35163.35163,0,0,0-.109.16959.94943.94943,0,0,1-.212.26651,1.03324,1.03324,0,0,0-.212.27256c0,.03028-.04846.07268-.103.09085a.52965.52965,0,0,0-.212.26651,7.54392,7.54392,0,0,1-.5209.93882,4.30891,4.30891,0,0,0-.29679.44821,2.55528,2.55528,0,0,0-.33914,1.0781,1.93035,1.93035,0,0,1-.14537.36344.9248.9248,0,0,0-.109.50273.402.402,0,0,1-.0848.36341c-.22411.212-.27256.39976-.29073,1.13264-.0424,1.811-.04846,1.69594.09085,1.84736.16354.17565.13931.04846.16354,1.02968A2.61814,2.61814,0,0,0,.395,11.739a3.62776,3.62776,0,0,1,.24834,1.11448,1.95387,1.95387,0,0,0,.12113.50878,1.243,1.243,0,0,1,.09691.33918.45938.45938,0,0,0,.17565.25439.841.841,0,0,1,.36948.745c-.00606.15143-.01212.34525-.01212.4361a4.3891,4.3891,0,0,0,.13931.99939.33261.33261,0,0,1,0,.24228.43283.43283,0,0,0,.06057.35735c.09691.19988.109.44216.02423.527-.01212.01817.006.07268.0424.12113a.41674.41674,0,0,1,.06057.26045.95978.95978,0,0,0,.07268.37553.4.4,0,0,1,.03028.30285.41414.41414,0,0,0,.03634.32707,3.04834,3.04834,0,0,1,.1272,1.35069,2.46986,2.46986,0,0,0,.06663.636,6.03638,6.03638,0,0,1,.23016,1.272,2.50972,2.50972,0,0,0,.05451.45426,2.67847,2.67847,0,0,1,.06057.30285,3.34132,3.34132,0,0,0,.16354.66626,2.64147,2.64147,0,0,1,.07874.45427c.01211.16353.03634.37553.05451.46638a1.22016,1.22016,0,0,1-.48455.79346,1.17982,1.17982,0,0,0-.18777.16959,3.92466,3.92466,0,0,1-.26045.29679,1.93662,1.93662,0,0,0-.53906,1.06,2.56667,2.56667,0,0,1-.24833.65414,1.602,1.602,0,0,0-.17565.33919.60718.60718,0,0,1-.1272.20594.91126.91126,0,0,0-.109.9267,1.93911,1.93911,0,0,0,1.09024.01817,2.0083,2.0083,0,0,1,.46638-.09085,4.397,4.397,0,0,0,.58752-.09691,3.51009,3.51009,0,0,1,.65415-.07874,1.92776,1.92776,0,0,0,.44215-.04846.95043.95043,0,0,1,.34525.0848,1.25564,1.25564,0,0,0,.52089.0848A5.22343,5.22343,0,0,1,7.1,28.84973a1.87779,1.87779,0,0,0,.54512.09691c.218.00605.49061.03028.60569.04239.11509.01817.3937.05452.61781.07874a.771.771,0,0,1,.61175.27256.8796.8796,0,0,0,.79345.36948.4748.4748,0,0,1,.55724.321,1.18327,1.18327,0,0,0,.70866.65415.32222.32222,0,0,0,.35735-.0848.51988.51988,0,0,1,.17565-.12114c.02423,0,.06057-.06662.07874-.15142.02423-.0848.06057-.15142.0848-.15142a2.17725,2.17725,0,0,0,.67232-.73289,2.06226,2.06226,0,0,1,.28467-.37553.16429.16429,0,0,0,.0848-.13325.49853.49853,0,0,1,.13931-.23622,1.20473,1.20473,0,0,0,.218-.41187c.12114-.39975.26044-.71471.321-.71471a2.43361,2.43361,0,0,0-.07268-.99939,1.70212,1.70212,0,0,1-.09691-.3937.61019.61019,0,0,0-.13931-.3089.96086.96086,0,0,1-.18171-.36342c-.06662-.2241-.13325-.30284-.424-.49061a1.767,1.767,0,0,0-.94488-.38764.72183.72183,0,0,1-.3513-.06057,5.36311,5.36311,0,0,0-.93276-.23016,1.36153,1.36153,0,0,1-.69655-.49061A.19563.19563,0,0,0,9.88,23.7074c-.33918.02423-.55118-.315-.47244-.76923.03029-.16959.06057-.34524.06663-.3937,0-.04845.03634-.2665.07874-.48455a3.4286,3.4286,0,0,0,.02423-.8722,1.60185,1.60185,0,0,1,.04845-.75711,1.307,1.307,0,0,0,.06068-.52088,1.19768,1.19768,0,0,1,.04846-.50273.72638.72638,0,0,0,.05451-.33313.62717.62717,0,0,1,.06057-.3089,1.05072,1.05072,0,0,0,.0424-.60569,2.62483,2.62483,0,0,1,.05451-.87825,2.13135,2.13135,0,0,0,.07268-.5209,3.22825,3.22825,0,0,1,.03634-1.24166,3.639,3.639,0,0,0,.11509-1.06,10.15034,10.15034,0,0,1,.13325-1.93216,1.24456,1.24456,0,0,0,.03028-.424,1.017,1.017,0,0,1,.07268-.71472,1.06213,1.06213,0,0,0,.09086-.47244c-.01212-.15142-.03029-.642-.03634-1.09024-.01212-.44821-.02423-.86008-.03029-.90854V8.40161a1.49952,1.49952,0,0,0-.11508-.7026A1.534,1.534,0,0,1,10.2496,6.6451a1.44473,1.44473,0,0,0,0-.81768,5.0189,5.0189,0,0,1-.1393-1.07207c.04239-.109.18776-.13931.34524-.07874a.39932.39932,0,0,0,.50272-.57541c-.17565-.34524-.47849-.2665-.87825.23622-.109.13325-.17565.12114-.34524-.06057-.14537-.15142-.16354-.15748-.46638-.09691a1.232,1.232,0,0,1-.44216.01211.70653.70653,0,0,0-.27862-.02422c-.29679.05451-.315-.01212-.33313-1.10842A5.71229,5.71229,0,0,0,8.03278,1.315,3.36441,3.36441,0,0,0,7.203.47917,3.51914,3.51914,0,0,1,6.779.09153,2.48117,2.48117,0,0,0,5.41619.10973Zm.18779,4.585a1.66243,1.66243,0,0,1,.36948,1.44154.45666.45666,0,0,0,.15142.29073c.16959.18171.19382.18777.533.15748a1.154,1.154,0,0,1,.41792.01212,2.08734,2.08734,0,0,1,.26651.47244,2.17574,2.17574,0,0,1,.218,1.06c.01211.3513.03634.75711.04845.89642a1.00622,1.00622,0,0,1-.02423.39975.6084.6084,0,0,0,.03029.36342.66921.66921,0,0,1,.02423.41793,1.57953,1.57953,0,0,0,.01211.58146,23.534,23.534,0,0,1,.1272,2.65293,2.74684,2.74684,0,0,0,.05451.68443c.09085,0,.109.19382.03634.3513a1.35439,1.35439,0,0,0-.06663.52695c.01212.19988.03634.6602.04846,1.02967a2.80134,2.80134,0,0,0,.24833,1.28407,1.89963,1.89963,0,0,1,.109.6602,1.523,1.523,0,0,1-.06057.77529,2.90892,2.90892,0,0,0-.12114.97516c-.0424,1.21744-.15142,2.70744-.22411,3.05874-.01817.08479-.06057.27256-.09085.41792-.07874.3937-.14537.41793-.957.3937-1.1387-.03634-1.36886-.20593-1.43549-1.06-.01817-.212-.0848-.69048-.15142-1.06a7.55246,7.55246,0,0,1-.11508-.93882,5.35013,5.35013,0,0,0-.13931-1.29617,3.38563,3.38563,0,0,1-.0848-.48456,2.60287,2.60287,0,0,0-.23016-.81768A.75432.75432,0,0,1,4.55,17.47477a.57211.57211,0,0,0,0-.32708c-.02423-.04239-.03634-.09691-.01817-.12113a1.35767,1.35767,0,0,0-.09691-.3937,2.48735,2.48735,0,0,1-.12114-.46638A.53085.53085,0,0,0,4.229,15.9242a2.3655,2.3655,0,0,1-.24834-1.0115,2.08512,2.08512,0,0,0-.15748-.636,2.38218,2.38218,0,0,1-.15748-.66626c-.01817-.19988-.03634-.43-.04239-.51484a.77538.77538,0,0,0-.0848-.28467,2.36268,2.36268,0,0,1-.103-.59358,2.056,2.056,0,0,0-.06662-.52089,8.12813,8.12813,0,0,1-.14537-.84191,3.54933,3.54933,0,0,0-.30285-1.15687,1.2116,1.2116,0,0,1-.15142-.41793c.01817-.02423-.01211-.07874-.06057-.12114a1.33191,1.33191,0,0,1-.24227-.72077,1.05131,1.05131,0,0,0-.15143-.43.87616.87616,0,0,1-.15142-.56935.96769.96769,0,0,0-.29073-.78134c-.26651-.25439-.29073-.34525-.1272-.64809a3.31148,3.31148,0,0,1,.218-.36947,6.21781,6.21781,0,0,1,1.46577-.72078,1.756,1.756,0,0,0,.51484-.19987A1.34607,1.34607,0,0,1,4.877,4.53117C5.392,4.5373,5.45253,4.54941,5.604,4.69473Z"/>

</g>
</svg>
