<?xml version="1.0" encoding="UTF-8"?>
<svg xmlns="http://www.w3.org/2000/svg"
     version="1.1"
     width="42.74753153mm"
     height="23.30108707mm"
     viewBox="0.00000000 0.00000000 121.17405649 66.05035449">

<g transform="scale(5.10555451)">   <defs>
      <style type="text/css"><![CDATA[
      .a {
        stroke: #000;
        stroke-linecap: round;
        stroke-linejoin: round;
        stroke-width: 0.01px;
      }
    ]]></style>
   </defs>
   <path class="a"
         d="M10.8507.0667a.22223.22223,0,0,1-.16959.01212.60254.60254,0,0,0-.3089.09691.51571.51571,0,0,1-.33313.09085.291.291,0,0,0-.27862.109A3.20166,3.20166,0,0,1,9.173.84805a1.47525,1.47525,0,0,0-.39976.61174.31975.31975,0,0,1-.103.19988.90184.90184,0,0,0-.18777.26045.51157.51157,0,0,1-.4361.28467.88749.88749,0,0,0-.45426.55118.69848.69848,0,0,1-.06663.27862c-.04846.09691-.0424.13931.03634.19988a.441.441,0,0,1,.12114.27256c.03028.24228.02423.23622.23016.27256a.87188.87188,0,0,1,.36947.23016c.11509.109.26045.24228.321.29679a2.59515,2.59515,0,0,1,.3089.43,1.79512,1.79512,0,0,0,.37553.4361.54125.54125,0,0,1,.212.212.57829.57829,0,0,0,.45427.27862,1.06312,1.06312,0,0,1,.36342.23622c.50878.50272.62991.57541.94487.58146a10.43473,10.43473,0,0,1,1.08419.0848.72341.72341,0,0,0,.79346-.39976,2.10649,2.10649,0,0,1,.20593-.33313.62648.62648,0,0,0,.0848-.424,1.11511,1.11511,0,0,1,.09085-.533,2.79205,2.79205,0,0,0,.26651-1.42337c.01817-.49667-.03635-.69049-.24228-.89037a.25454.25454,0,0,1-.103-.23016c.03036-.06658-.04838-.19378-.23-.38158a3.80684,3.80684,0,0,1-.52695-.79951,2.46081,2.46081,0,0,0-.38764-.60569c-.07269-.04845-.24228-.19382-.38765-.315a.65323.65323,0,0,0-.62386-.212A1.61211,1.61211,0,0,0,10.8507.0667Z"/>
   <path class="a"
         d="M21.31095,6.84437a1.20728,1.20728,0,0,1-.38159.15142.71089.71089,0,0,1-.6178.00606.55448.55448,0,0,0-.46638-.02423.55756.55756,0,0,1-.43-.00606.58335.58335,0,0,0-.47243,0,1.165,1.165,0,0,1-.30891.06663.59907.59907,0,0,0-.27256.08479.79747.79747,0,0,1-.36341.09692.93177.93177,0,0,0-.36947.07268c-.24228.09691-.36342.04845-.46639-.20594-.08479-.19987-.12113-.218-.23016-.109a.14241.14241,0,0,0-.00606.18171c.0848.15748-.02422.32707-.30284.47244a.52128.52128,0,0,1-.44821.05451,2.21764,2.21764,0,0,0-.44821-.06057c-.1272,0-.61175-.00606-1.07208-.01817-.751-.01817-.87219-.00606-1.04784.103a.57069.57069,0,0,1-.39976.08479.69547.69547,0,0,0-.41187.0848.45146.45146,0,0,1-.26045.07268,3.35237,3.35237,0,0,0-1.0963-.09691,4.918,4.918,0,0,1-.73288-.06057.802.802,0,0,0-.37553.01212.445.445,0,0,1-.36947-.03029A1.32631,1.32631,0,0,0,8.967,7.862a.47841.47841,0,0,1-.5754,0c-.07268-.06663-.20594-.0848-.4361-.07269-.38158.01818-.4361.01818-.6178.01818-.07874,0-.30285.01211-.50273.02422a1.05111,1.05111,0,0,1-.539-.0606A1.62539,1.62539,0,0,0,5.78111,7.656c-.62386-.05451-.69654-.07268-.76317-.16959-.09089-.11505-.206-.12114-.35134-.00605a.25672.25672,0,0,1-.19382.04846.3019.3019,0,0,0-.18777.03028.26253.26253,0,0,1-.24227,0c-.09691-.04845-.22411-.03028-.48456.06057a1.77193,1.77193,0,0,1-.56935.103.5128.5128,0,0,0-.59357.3937c-.103.24833-.15748.29679-.44216.41792a.87557.87557,0,0,0-.50878.41793c-.103.15748-.25439.36342-.33918.46638a.9552.9552,0,0,0-.30285.70866,1.10584,1.10584,0,0,1-.06663.36342.32254.32254,0,0,1-.40581.17565c-.0848-.04846-.13325-.03634-.218.05451-.05451.06057-.08479.13931-.06057.17565a.218.218,0,0,1-.01817.16959c-.08479.14537.03634.3937.17565.3513a.96251.96251,0,0,1,.4361.11509,1.06442,1.06442,0,0,0,1.21138.00605l.40582-.218.15142.15143c.23016.23016.315.25439.90853.23622C4.01856,11.69,3.99433,11.69,4.76356,11.69c.03634,0,.20593.01212.36341.03029a.834.834,0,0,0,.46639-.06057.79569.79569,0,0,1,.46638-.05451,3.15855,3.15855,0,0,0,.41187.03028,7.838,7.838,0,0,0,1.702-.13325,1.45033,1.45033,0,0,1,.91459-.16959.38624.38624,0,0,0,.30891,0,.21908.21908,0,0,1,.19382-.00606.14261.14261,0,0,0,.14536.01211.641.641,0,0,1,.24228-.02422.6801.6801,0,0,0,.41187-.15143.70259.70259,0,0,1,.50272-.14536.75485.75485,0,0,0,.41793-.0848.30451.30451,0,0,1,.2241-.06057,4.52192,4.52192,0,0,0,1.36887.01817,2.64719,2.64719,0,0,1,.854-.109c.03634,0,.12114.00606.18171.00606.05451,0,.36947-.01212.69654-.03029.5209-.03028.61781-.05451.78134-.18776a.59812.59812,0,0,1,.29679-.15143.55044.55044,0,0,0,.25439-.08479.62076.62076,0,0,1,.34525-.06663A.94239.94239,0,0,0,16.68961,10.2a.74135.74135,0,0,1,.29073-.0848c.06662,0,.12114-.02423.12114-.06057,0-.13325.25439-.19988.49666-.11508a1.62816,1.62816,0,0,0,.49061.06662C18.44611,9.988,18.858,9.982,19.07,9.988c.33313.00606,1.33252-.0424,1.56874-.07268a.70058.70058,0,0,1,.46033.0848,1.48045,1.48045,0,0,0,.36947.14536c.25439.04846.3089.19382.16959.46033-.06663.13325-.13931.23622-.16959.23622s-.07269.06662-.09086.15142a.364.364,0,0,1-.1817.218.51994.51994,0,0,0-.212.19988c-.03634.06662-.13325.23622-.218.36947-.34525.58146-.33313.52089-.19988.79951.12719.27862.29679.35736.70866.3513.17565,0,.212-.02423.218-.14536A.40557.40557,0,0,1,21.626,12.544a1.42673,1.42673,0,0,0,.25439-.32707c.07874-.12114.16353-.22411.19382-.22411.02423,0,.09691-.09085.15142-.19382a1.62624,1.62624,0,0,1,.25439-.3513,5.81547,5.81547,0,0,0,.4785-.65415,2.11781,2.11781,0,0,1,.3937-.49666c.03634,0,.04845-.06057.02422-.13931a.38334.38334,0,0,1,.05452-.26651,1.68957,1.68957,0,0,0,.15142-1.04784.30746.30746,0,0,1,.03634-.26045,1.07615,1.07615,0,0,0-.03027-1.00545c-.1696-.315-.218-.3513-.636-.50272a1.95554,1.95554,0,0,1-.38159-.17565,1.171,1.171,0,0,0-.751-.04846.47617.47617,0,0,1-.29073-.00605C21.42607,6.8141,21.32916,6.8141,21.31095,6.84437Z"/>

</g>
</svg>
