<?xml version="1.0" encoding="UTF-8"?>
<svg xmlns="http://www.w3.org/2000/svg"
     version="1.1"
     width="23.26475848mm"
     height="48.37154310mm"
     viewBox="0.00000000 0.00000000 65.94739374 137.11624298">

<g transform="scale(4.96128568)">   <defs>
      <style type="text/css"><![CDATA[
      .a {
        stroke: #000;
        stroke-linecap: round;
        stroke-linejoin: round;
        stroke-width: 0.01px;
      }
    ]]></style>
   </defs>
   <path class="a"
         d="M9.03879.02238a.34538.34538,0,0,0-.18777.109.54057.54057,0,0,1-.533.13325C8.22716.21014,8.2211.22832,8.25744.42213c.06663.38159-.28467.73894-.5754.58146a1.85768,1.85768,0,0,0-.4785-.103C6.53728.8279,6.47671.84,6.25261,1.09441c-.12114.12719-.19988.24228-.18171.26045A1.42064,1.42064,0,0,1,5.7559,1.9a1.31871,1.31871,0,0,0-.16959.25439.97139.97139,0,0,1-.23017.28467,2.38484,2.38484,0,0,0-.32707.38764A2.1258,2.1258,0,0,1,4.7444,3.178a.3131.3131,0,0,0-.09691.20593,2.11848,2.11848,0,0,0,.19386.6724,2.44816,2.44816,0,0,1,.20593.97516,4.20273,4.20273,0,0,0,.11508.7874,1.83905,1.83905,0,0,0,.72683.98122c.24834.12114.30285.2241.1696.35736a.36376.36376,0,0,1-.32708.06662.43124.43124,0,0,0-.29073.03634.77159.77159,0,0,1-.35736.07874,5.21972,5.21972,0,0,0-.6602.103c-.36341.0848-.65415.09085-.73289.01211a3.88358,3.88358,0,0,1-.006-1.12665,1.69957,1.69957,0,0,0,.07268-.4603A2.56616,2.56616,0,0,1,3.957,5.11627a2.41705,2.41705,0,0,0,.09085-1.53846A10.06769,10.06769,0,0,1,3.842,1.76071c.02422-.15748-.01212-.23016-.24228-.46638-.24833-.25439-.29073-.27862-.56935-.27862A1.12419,1.12419,0,0,1,2.61239.95514a.206.206,0,0,0-.24227.03028.26814.26814,0,0,1-.19988.05452c-.09085-.06057-.3513.08479-.41793.23622a.38829.38829,0,0,1-.18776.1817c-.07268.01817-.1272.06057-.1272.09086s-.09085.07874-.19987.109c-.15748.0424-.18777.07874-.17565.18777a.46674.46674,0,0,1-.06663.27256,1.64721,1.64721,0,0,0-.15748.36947c-.05451.212-.0424.27256.12719.62386a1.46881,1.46881,0,0,1,.18171.58146.43367.43367,0,0,0,.103.33313.627.627,0,0,1,.13933.33315c.01211.32708.01817.34525.09085.38765A.94351.94351,0,0,1,1.71,5.47359a2.27966,2.27966,0,0,0,.24228,1.04179.5811.5811,0,0,1,.04846.321.69762.69762,0,0,0,.34524.67837c.37553.29074.38159.47244.00606.57541a.93821.93821,0,0,0-.38159.23622,1.74022,1.74022,0,0,1-.86008.36947,1.04631,1.04631,0,0,0-.321.13325c-.64808.36342-.93276.90248-.70865,1.33858a.61054.61054,0,0,0,.59963.28467c.15142-.06056,1.11447-.34524,1.272-.38764a3.78837,3.78837,0,0,0,.45427-.15748c.48455-.19382.58752-.20593.75711-.09691a1.03253,1.03253,0,0,0,.62387.09086c.60569-.00606.59963-.01212.642.103.0424.109-.05451.28468-.30285.55724-.07874.09085-.3089.40581-.50878.70866-.19988.29679-.38764.5754-.41793.61175a2.53046,2.53046,0,0,0-.15142.24833,1.92061,1.92061,0,0,1-.23622.35736,1.55521,1.55521,0,0,0-.218.53906,1.95249,1.95249,0,0,1-.16353.49667.5287.5287,0,0,0-.0848.218,1.00674,1.00674,0,0,1-.26045.3513c-.41187.43-.52089.61175-.55118.96305a1.28558,1.28558,0,0,1-.218.60569A6.33286,6.33286,0,0,0,.9772,16.267a2.82028,2.82028,0,0,1-.23016.424,1.78407,1.78407,0,0,0-.18171.3513,1.449,1.449,0,0,1-.212.38159A3.19646,3.19646,0,0,0,.226,19.29546c.09086.73289.218.92671.67838,1.02968a1.52544,1.52544,0,0,1,.48455.18776.66.66,0,0,0,.27256.11508,1.50884,1.50884,0,0,1,.38158.1272,2.92173,2.92173,0,0,0,1.75045-.00606.71177.71177,0,0,1,.24834-.06057.34834.34834,0,0,0,.32707-.28467.44433.44433,0,0,1,.218-.19988c.103-.0424.1817-.09085.1817-.11508a1.32483,1.32483,0,0,1,.38159-.21805,2.74639,2.74639,0,0,0,.49667-.29073c.17565-.16354.30284-.22411.37552-.17565.109.07268.19383.28467.13931.37553a.67788.67788,0,0,0,.01212.36341,2.66891,2.66891,0,0,1,.06662.51484c0,.35736-.07874,1.49606-.103,1.53845-.02423.03634-.00606.12114.17565.94488a6.803,6.803,0,0,1,.12719.81163,3.33853,3.33853,0,0,0,.1272.66626,2.05008,2.05008,0,0,1,.09085.51483.92237.92237,0,0,0,.09085.41793,1.471,1.471,0,0,1,.109.3089,3.95188,3.95188,0,0,0,.14536.527c.13931.43.321.60569,1.03574,1.00544.533.30285.65414.3089,1.3628.06663.103-.03029.30285-.09086.45427-.12114a1.56771,1.56771,0,0,0,.81768-.48455,1.31043,1.31043,0,0,1,.28468-.23017c.03028,0,.04845-.05451.04845-.11508a.70367.70367,0,0,1,.15748-.3089.66922.66922,0,0,0,.16354-.49061.64754.64754,0,0,0-.05451-.34524,2.94991,2.94991,0,0,1-.23622-.30891,1.11551,1.11551,0,0,0-.30285-.321,3.79583,3.79583,0,0,1-.66626-.95094.92464.92464,0,0,0-.16959-.19987.5261.5261,0,0,1-.16354-.33313,1.881,1.881,0,0,0-.09691-.41187,8.979,8.979,0,0,1-.3937-1.93216.59582.59582,0,0,0-.09085-.24833,1.30631,1.30631,0,0,1-.07874-.82374c.03634-.07268,0-.22411-.1272-.50273a1.99273,1.99273,0,0,1-.1817-.533.85053.85053,0,0,0-.0848-.28468.4732.4732,0,0,1-.03634-.33313,4.50238,4.50238,0,0,0,.01817-.76317c-.03634-.72077-.03634-.65414.03634-.93882a6.79232,6.79232,0,0,0,.0848-.90854,3.41567,3.41567,0,0,1,.08479-.78739,1.42261,1.42261,0,0,0,.01817-.54513,3.05338,3.05338,0,0,1,.0424-.81768,1.41793,1.41793,0,0,0,.04846-.47244.43048.43048,0,0,1,.06057-.25439.74529.74529,0,0,0,.08479-.315c0-.07874,0-.44215-.00605-.80557,0-.36947-.00606-.76317-.00606-.87825a9.57158,9.57158,0,0,1,.06057-1.169c.0424-.17565.35736-.30285.58146-.23017a3.36156,3.36156,0,0,0,1.34479.19383,1.3412,1.3412,0,0,1,.636.05451.87735.87735,0,0,0,.48455.05451.56138.56138,0,0,1,.26045-.01211c.103.06057.3089-.20594.527-.68443.29679-.642.33919-.8298.218-1.00545a.626.626,0,0,1-.09691-.321.32144.32144,0,0,0-.103-.25439c-.06057-.03634-.28467-.19382-.50272-.3513-.218-.15142-.45427-.321-.533-.37553a1.63091,1.63091,0,0,0-.77528-.11508,2.9308,2.9308,0,0,1-.76923-.09691c-.18171-.103-.22411-.103-.64809-.05451-.47244.05451-.59358-.02423-.45427-.30285a.84624.84624,0,0,0,.09086-.20593,3.53389,3.53389,0,0,1,.13325-.60569c.03634-.13325.07874-.27256.08479-.30285a3.08924,3.08924,0,0,1,.29074-.69654,2.17507,2.17507,0,0,0,.18776-.54512,5.25948,5.25948,0,0,1,.16358-.56933.834.834,0,0,0,.07874-.25439.53515.53515,0,0,1,.109-.25439.49487.49487,0,0,0,.103-.29074V1.92425a1.57583,1.57583,0,0,0-.07874-.424.86848.86848,0,0,1-.03029-.46638.87406.87406,0,0,0-.01211-.41793,1.3044,1.3044,0,0,1-.06057-.315c0-.103-.05451-.15748-.2241-.212A3.6799,3.6799,0,0,0,9.03879.02238ZM6.828,9.78611c.15143.15143.15143.27862,0,.61781A3.259,3.259,0,0,0,6.63419,11.482v.3937c.00606.16354,0,.4361,0,.60569-.00605.16354,0,.54512.00606.848.00606.29679.01211.60569.01211.67837a1.52622,1.52622,0,0,0,.13931.46638c.14537.32708.14537.34525.0424.44821a1.19491,1.19491,0,0,0-.33313.64809,2.68218,2.68218,0,0,0-.01211.86008c.02422.39976.01211.51484-.06057.59358a.39272.39272,0,0,1-.46638.02423c-.109-.06057-.14537-.04846-.24834.09691-.07268.09085-.212.25439-.315.36341-.1817.19383-.19987.20594-.53906.17566a1.44048,1.44048,0,0,1-1.06-.55118.88723.88723,0,0,0-.321-.29679.86644.86644,0,0,1-.41187-.92671,1.42969,1.42969,0,0,1,.14537-.45427,1.5373,1.5373,0,0,0,.13931-.50272,3.16115,3.16115,0,0,1,.36341-1.01151,5.78831,5.78831,0,0,0,.32708-.73288.566.566,0,0,1,.12719-.23622c.06663-.0848.109-.18171.0848-.218-.01817-.03028.01817-.109.09085-.18171a.42555.42555,0,0,0,.12114-.17565.27578.27578,0,0,1,.07874-.13931,6.901,6.901,0,0,0,.34524-.61174A1.81864,1.81864,0,0,1,5.30161,11.04c.07269-.03029.13325-.0848.13325-.109a1.17328,1.17328,0,0,1,.19988-.26045,3.61391,3.61391,0,0,0,.37553-.55118c.1272-.24227.22411-.34524.33313-.36947a2.00246,2.00246,0,0,0,.212-.05451C6.67659,9.65286,6.70688,9.665,6.828,9.78611Z"/>

</g>
</svg>
