<?xml version="1.0" encoding="UTF-8"?>
<svg xmlns="http://www.w3.org/2000/svg"
     version="1.1"
     width="26.81225760mm"
     height="33.32194853mm"
     viewBox="0.00000000 0.00000000 76.00324068 94.45598742">

<g transform="scale(6.15888107)">   <defs>
      <style type="text/css"><![CDATA[
      .a {
        stroke: #000;
        stroke-linecap: round;
        stroke-linejoin: round;
        stroke-width: 0.01px;
      }
    ]]></style>
   </defs>
   <path class="a"
         d="M10.53047.08763A4.57832,4.57832,0,0,1,9.44023.22694,2.3356,2.3356,0,0,0,8.8951.28145a2.58623,2.58623,0,0,0-.47243.12719A1.39582,1.39582,0,0,1,8.0108.47527a1.44174,1.44174,0,0,0-.527.14537A3.46,3.46,0,0,1,7.04771.8084a1.05168,1.05168,0,0,0-.321.18776.61751.61751,0,0,1-.29073.14537,4.219,4.219,0,0,0-.76923.37553c-.35736.20593-.73894.41793-.848.47849a.794.794,0,0,0-.46638.77529,1.22794,1.22794,0,0,1-.15142.7026c-.04846.06057-.0424.13325.03028.27256.17565.33919.4361.3513,1.3083.05451a4.76984,4.76984,0,0,0,.72077-.29679c.0848-.06056.27256-.17565.424-.26044a2.86008,2.86008,0,0,0,.47244-.33919c.19382-.18171.33313-.218.75106-.18776a1.11921,1.11921,0,0,0,.37553-.06663,1.10945,1.10945,0,0,1,.65414.00606c.53907.09085.57541.109.61781.218a.51686.51686,0,0,1-.25439.47244,1.69152,1.69152,0,0,0-.5209.68443,1.68073,1.68073,0,0,1-.61175.62386c-.04239,0-.09691.06662-.11508.15142-.02422.0848-.06662.15142-.09691.15142-.03634,0-.06057.16354-.06057.35736a1.7719,1.7719,0,0,1-.06057.51484c-.04845.12719-.03634.16353.06057.218a.37412.37412,0,0,1,.15748.212.27013.27013,0,0,0,.13326.18171c.1817.05451.44821.33918.41187.43609-.02423.05452.02422.15143.103.22411.20594.19382.36342.44215.315.51484a.25742.25742,0,0,0,.02423.1817,6.30945,6.30945,0,0,1,.0424,1.811,2.11311,2.11311,0,0,1-.22411,1.12053,3.55934,3.55934,0,0,1-1.20537,1.23565c-.15143.0848-.3513.20593-.44216.27256a3.15028,3.15028,0,0,1-1.04784.3513,1.26253,1.26253,0,0,0-.36947.0848c-.1272.04845-.38765.12719-.57541.18776a1.54872,1.54872,0,0,0-.4785.218.78985.78985,0,0,1-.29073.15142,2.07588,2.07588,0,0,0-.41187.18777,1.03905,1.03905,0,0,1-.424.13931,2.21153,2.21153,0,0,0-.99939.12113,4.23067,4.23067,0,0,1-.636.18777,1.55958,1.55958,0,0,0-.54512.218c-.16959.15142-.23016.16959-.69654.23016A.95447.95447,0,0,0,.264,14.509c-.27862.23622-.321.34524-.18171.50878.29073.35736.28467.35736.59358.25439a3.59932,3.59932,0,0,0,.43609-.16354.40871.40871,0,0,1,.22411-.05451,1.00926,1.00926,0,0,0,.36341-.09691,2.86165,2.86165,0,0,1,.6057-.15142,2.17661,2.17661,0,0,0,.58146-.18777.80066.80066,0,0,1,.55118-.13325,3.06357,3.06357,0,0,0,1.702-.47849,4.07743,4.07743,0,0,1,.87825-.35736,2.29429,2.29429,0,0,0,.61175-.15142,4.07009,4.07009,0,0,1,.73289-.18171,2.51384,2.51384,0,0,0,.97516-.43,1.868,1.868,0,0,1,.3937-.23016c.218-.103.315-.18777.36341-.33313a.53836.53836,0,0,1,.33313-.315,1.491,1.491,0,0,0,.35736-.212.63762.63762,0,0,1,.15142-.12113,1.67215,1.67215,0,0,0,.218-.35736c.09691-.18171.24833-.47244.34525-.636A1.69961,1.69961,0,0,0,10.7,10.154a.70748.70748,0,0,1,.18777-.38764,3.42614,3.42614,0,0,0,.58146-1.16293.76514.76514,0,0,1,.0848-.30284,2.83678,2.83678,0,0,0,.18776-1.19321c.01817-.33313.05451-.82374.09086-1.09025a3.34255,3.34255,0,0,0-.109-1.57479,1.01149,1.01149,0,0,0-.321-.29679,1.296,1.296,0,0,1-.35735-.321.3751.3751,0,0,1-.06663-.44215.51278.51278,0,0,1,.24228-.33313,1.28258,1.28258,0,0,0,.38764-.46639,2.45849,2.45849,0,0,1,.33919-.48455.333.333,0,0,0,.12719-.19382,2.24939,2.24939,0,0,1,.13931-.40581A1.17191,1.17191,0,0,0,12.3354.97177a1.79993,1.79993,0,0,0-.53907-.90854A2.90147,2.90147,0,0,0,10.53047.08763Z"/>

</g>
</svg>
