<?xml version="1.0" encoding="UTF-8"?>
<svg xmlns="http://www.w3.org/2000/svg"
     version="1.1"
     width="52.82234808mm"
     height="30.87981886mm"
     viewBox="0.00000000 0.00000000 149.73267014 87.53331720">

<g transform="scale(4.86841469)">   <defs>
      <style type="text/css"><![CDATA[
      .a {
        stroke: #000;
        stroke-linecap: round;
        stroke-linejoin: round;
        stroke-width: 0.01px;
      }
    ]]></style>
   </defs>
   <path class="a"
         d="M11.987.0906a1.31954,1.31954,0,0,0-.76922.55724,1.33559,1.33559,0,0,1-.57541.39975,3.0847,3.0847,0,0,0-.64809.3937,4.11043,4.11043,0,0,1-1.03573.73286.81153.81153,0,0,0-.424.36947,1.01143,1.01143,0,0,1-.33313.34524,6.32908,6.32908,0,0,0-.69654.50878,8.11241,8.11241,0,0,1-.80556.58151,2.64417,2.64417,0,0,0-.48455.36947,2.63952,2.63952,0,0,1-.43.35736,1.65675,1.65675,0,0,0-.43.44215,3.36875,3.36875,0,0,1-.56935.636,2.54266,2.54266,0,0,0-.5209.59963,2.26448,2.26448,0,0,1-.424.527c-.745.70866-.95094.92671-1.02362,1.10842a.77283.77283,0,0,1-.16959.26044,2.1208,2.1208,0,0,0-.26651.44216,5.558,5.558,0,0,1-.33918.6178c-.09691.13931-.24228.35736-.32708.48455a1.36567,1.36567,0,0,0-.19987.44822c-.07874.38764-.103.43-.33919.5754a1.77946,1.77946,0,0,0-.60569,1.0963c0,.14537-.07269.27862-.26651.50878a.87624.87624,0,0,0,.09086,1.387,2.324,2.324,0,0,0,1.32646.35735,2.04324,2.04324,0,0,1,.54512.05452c.11508.03634.3513.11508.527.16959a3.408,3.408,0,0,0,.66626.12114,1.81061,1.81061,0,0,1,.50273.07874,5.96072,5.96072,0,0,0,1.93821-.06057,1.98365,1.98365,0,0,0,.56329-.53907,3.19864,3.19864,0,0,1,.56329-.59357A1.49728,1.49728,0,0,0,7.39,12.9858c.07874-.15748.16959-.29073.19988-.29073a2.3176,2.3176,0,0,0,.424-.36947c.27862-.27256.39976-.35736.49061-.32707.16959.05451.40581-.1272.48455-.36948.05452-.16959.13931-.24227.41793-.38158a.80174.80174,0,0,0,.51484-.58146c.03634-.13326-.14537-.3937-.27862-.3937a.44514.44514,0,0,1-.19988-.0848,1.00527,1.00527,0,0,0-.315-.12114,1.4272,1.4272,0,0,1-.424-.20593C8.48015,9.703,8.44987,9.703,7.62613,9.709a2.2963,2.2963,0,0,1-1.066-.103.68533.68533,0,0,1-.25448-.19986.86141.86141,0,0,1,.11508-.38159,1.9948,1.9948,0,0,0,.14537-.35741,1.35654,1.35654,0,0,1,.18171-.327,1.47051,1.47051,0,0,0,.212-.41187c.01817-.07874.0424-.20593.06057-.29073a.36311.36311,0,0,1,.16959-.218,1.04189,1.04189,0,0,0,.29679-.34524,3.78471,3.78471,0,0,1,.40581-.55118,1.00073,1.00073,0,0,0,.24834-.35736,1.99556,1.99556,0,0,1,.39368-.48462c.212-.22411.50273-.55724.642-.73894a5.59186,5.59186,0,0,1,1.22959-1.17506c.29679-.18776.64809-.59963.6178-.72077-.04845-.18776.1696-.34524.41187-.30284.1696.02422.30285-.01817.66626-.19988a3.95511,3.95511,0,0,0,1.56874-1.09631c.321-.38764.44822-.73289.34525-.92671a.3655.3655,0,0,1-.04846-.19382c.01212-.0424-.109-.13931-.26044-.212a.56969.56969,0,0,0-.50878-.07267.60293.60293,0,0,1-.321.01817A1.45911,1.45911,0,0,0,11.987.0906Z"/>
   <path class="a"
         d="M16.85679.76292a3.10755,3.10755,0,0,1-.43.12114,2.90949,2.90949,0,0,0-.66626.23622,2.3628,2.3628,0,0,1-.54512.212,2.21331,2.21331,0,0,0-1.04179,1.01756c-.09086.17565-.19988.38764-.24834.47244-.11508.19987-.11508.38764.00606.48455a1.01333,1.01333,0,0,1,.1696,1.066c-.04846.11508-.07269.24227-.04846.27256a1.74188,1.74188,0,0,1,.03028.40581,5.12738,5.12738,0,0,0,.07269,1.43549,1.93833,1.93833,0,0,1,.08479.54512,3.18069,3.18069,0,0,1-.00605.73894,1.46035,1.46035,0,0,0,.03028.424,5.23719,5.23719,0,0,1,.09086.56329c.01817.18171.04239.43.06056.54512s.03029.25439.03635.30285a3.22359,3.22359,0,0,0,.08479.39975,1.05164,1.05164,0,0,1,.03029.57541.54219.54219,0,0,0,.00605.37553,1.50881,1.50881,0,0,1,.09086.39975,2.38874,2.38874,0,0,0,.19988.65415,2.22967,2.22967,0,0,1,.1817.46032,2.94726,2.94726,0,0,0,.39976.92065.2865.2865,0,0,1,.109.15143,2.56884,2.56884,0,0,0,.38159.76317,1.1694,1.1694,0,0,1,.17565.424c.03028.22411.38764.75106.50878.75106.07268,0,.29073.4361.26045.52089-.01212.03634.04845.09691.13325.13326a.49132.49132,0,0,1,.19382.16353.60154.60154,0,0,0,.2665.212.826.826,0,0,1,.30285.25439,2.13372,2.13372,0,0,0,1.07207.71472,1.33758,1.33758,0,0,1,.32708.12719,4.78279,4.78279,0,0,0,.73894.26045,2.93843,2.93843,0,0,0,1.55057.00606c.11508-.01212.321-.03634.45427-.04846a1.10409,1.10409,0,0,0,.36341-.08479,1.54585,1.54585,0,0,1,.48455-.04846,1.22329,1.22329,0,0,0,.848-.26045,1.66363,1.66363,0,0,1,.75711-.28467A1.24992,1.24992,0,0,0,24.961,16.941c.26651-.16353.33313-.1817.44216-.12719.16354.0848.38764.00606.79345-.28468a4.09114,4.09114,0,0,1,.55724-.321c.15748-.07268.29679-.17565.315-.24834a.60537.60537,0,0,1,.29073-.24227c.13931-.06663.43-.22411.64809-.35736a3.24027,3.24027,0,0,1,1.272-.57541.3641.3641,0,0,0,.25439-.05451,8.304,8.304,0,0,1,.99334-.39975,2.57168,2.57168,0,0,0,.20593-.57541c.07874-.34524-.109-.59358-.50878-.68443-.41187-.09691-.4361-.09691-.64809.06057-.17565.13325-.18171.13325-.38159.02423a.93107.93107,0,0,0-.34524-.109,2.39361,2.39361,0,0,0-.92671.16354,4.00871,4.00871,0,0,1-1.10841.3937.60574.60574,0,0,0-.27862.09085.64683.64683,0,0,1-.25439.09085c-.06662,0-.218.00606-.33313.01212a2.005,2.005,0,0,1-.53906-.12114c-.25439-.103-.3513-.11508-.44822-.06057a1.4675,1.4675,0,0,1-.93882.01211c-.12719-.08479-.15142-.07874-.315.06057-.15748.13326-.2241.14537-.6178.1272-.4361-.01817-1.1387-.26045-1.1387-.38159,0-.03028-.06663-.08479-.14537-.12113a.42669.42669,0,0,1-.20593-.27257,4.10443,4.10443,0,0,0-1.03573-1.3204,1.8435,1.8435,0,0,1-.52695-.65415,1.44286,1.44286,0,0,0-.30286-.46638c-.2241-.20594-.26045-.40581-.12113-.60569.06662-.09691.0848-.27862.06057-.81768a4.97113,4.97113,0,0,0-.11508-1.387.63065.63065,0,0,1-.03635-.3089.39827.39827,0,0,0-.04846-.26045A3.191,3.191,0,0,1,19.18879,5.651a4.57189,4.57189,0,0,0-.09085-.957,1.91035,1.91035,0,0,1-.04859-.58762,2.9493,2.9493,0,0,0-.30284-1.39309,2.10423,2.10423,0,0,1-.15143-.52089.84159.84159,0,0,0-.24833-.52695,1.06376,1.06376,0,0,1-.218-.315.867.867,0,0,0-.02423-.13325,1.12082,1.12082,0,0,1-.01817-.1635c-.01817-.18171-.27862-.29679-.72683-.315A1.70946,1.70946,0,0,0,16.85679.76292Z"/>

</g>
</svg>
