<?xml version="1.0" encoding="UTF-8"?>
<svg xmlns="http://www.w3.org/2000/svg"
     version="1.1"
     width="58.31075906mm"
     height="113.76266567mm"
     viewBox="0.00000000 0.00000000 165.29029574 322.47681195">

<g transform="scale(3.67920472)">   <defs>
      <style type="text/css"><![CDATA[
      .a {
        stroke: #000;
        stroke-linecap: round;
        stroke-linejoin: round;
        stroke-width: 0.01px;
      }
    ]]></style>
   </defs>
   <path class="a"
         d="M37.55342.005a.36926.36926,0,0,1-.17565.05451c-.3937.06057-.53907.12114-.67232.29679-.25439.33919-.315.38159-.533.35736C36.05736.7076,35.83932.68338,35.694.67126a1.94394,1.94394,0,0,1-.3513-.05451,2.84552,2.84552,0,0,0-1.54451.59358,4.45283,4.45283,0,0,1-.533.33918,1.31482,1.31482,0,0,0-.5209.45427,1.05319,1.05319,0,0,1-.39975.38159A7.54992,7.54992,0,0,0,30.812,3.40293a3.54375,3.54375,0,0,0-.41187.527,1.57082,1.57082,0,0,1-.72077.67837c-.26651.13326-.29074.16354-.424.57541a1.82339,1.82339,0,0,1-.26044.46638,3.37763,3.37763,0,0,0-.51484,1.08419,2.56289,2.56289,0,0,1-.212.50878,2.0564,2.0564,0,0,0-.212.58752,2.04993,2.04993,0,0,1-.29073.95093,1.55148,1.55148,0,0,0-.19988.27862,4.69557,4.69557,0,0,0-.321,1.484,5.05376,5.05376,0,0,0,.212,1.30223c.03028.04846.13931.212.23622.36342a1.17179,1.17179,0,0,1,.18171.39975,1.83728,1.83728,0,0,0,.24833.75106c.02423,0,.07268.07268.109.16353a6.03687,6.03687,0,0,0,1.01151,1.387,2.7451,2.7451,0,0,1,.56329.73288,6.9356,6.9356,0,0,0,1.03573,1.46578,2.52577,2.52577,0,0,1,.29679.36341.73038.73038,0,0,0,.24228.22411.95941.95941,0,0,1,.30284.38158c.1272.27862.50878.73289.61175.73289.03029,0,.103.09085.15748.19382a2.41718,2.41718,0,0,0,.30889.43c.109.12719.18778.24833.17566.27862-.03028.0424.03635.1817.44822.9267a1.074,1.074,0,0,1,.12113.315.34464.34464,0,0,0,.13931.19988,1.89487,1.89487,0,0,1,.321.44216,2.89094,2.89094,0,0,0,.90853.99333.39069.39069,0,0,1,.19988.20593,1.67535,1.67535,0,0,0,.48456.64809.93188.93188,0,0,1,.27861.315,7.42006,7.42006,0,0,0,.82374,1.15687,1.78435,1.78435,0,0,1,.30284.424,2.23634,2.23634,0,0,0,.2544.38158,3.29878,3.29878,0,0,1,.4361.71472,1.81156,1.81156,0,0,0,.40581.55118,1.51173,1.51173,0,0,1,.25439.3937,2.51481,2.51481,0,0,0,.73894.93882.68173.68173,0,0,1,.36342.58146.58721.58721,0,0,0,.11508.30285.34978.34978,0,0,1,.09085.15142c0,.03028.03634.05451.07874.05451a.391.391,0,0,1,.3089.24228c.04846.24833.11509.424.16354.424a2.95507,2.95507,0,0,1,.4785.96911c0,.06662.02423.12113.06057.12113.03028,0,.07874.07269.09691.16354a.72824.72824,0,0,0,.12719.2665,1.21014,1.21014,0,0,1,.16354.59964,2.49608,2.49608,0,0,0,.18171.50272l.16352.35736-.103.33919a3.89074,3.89074,0,0,0-.12114.79952,6.04021,6.04021,0,0,1-.15747,1.272,1.73293,1.73293,0,0,0-.05451.38763,1.51752,1.51752,0,0,1-.11509.35736.91827.91827,0,0,0-.09691.424c.06057.23623-.854,1.01756-1.0963.92671a.43631.43631,0,0,0-.27256.06057.47417.47417,0,0,1-.27256.06057,1.274,1.274,0,0,0-.46032.103,3.89422,3.89422,0,0,1-1.13265.32707c-.15142.01211-.44821.03634-.66626.04846a10.61182,10.61182,0,0,1-1.24166.03634c-.29679,0-.69655.01817-.87826.03028a6.23,6.23,0,0,1-1.18109.01211,1.58191,1.58191,0,0,0-.75712.0848,1.62528,1.62528,0,0,1-1.07813-.00606,3.55334,3.55334,0,0,0-.6178-.09085,1.95343,1.95343,0,0,1-.854-.16354,2.05009,2.05009,0,0,0-.72077-.06662,2.64846,2.64846,0,0,0-1.11447.15748c-.2665.09085-.29679.09085-.51484-.02423a.69813.69813,0,0,1-.26044-.18776,7.49147,7.49147,0,0,0-2.04724-.20594,7.39814,7.39814,0,0,1-.75711-.09085c-.19988-.03029-.48456-.07269-.62992-.09086a1.8016,1.8016,0,0,1-.48455-.14536,3.40237,3.40237,0,0,0-.44216-.18171c-.12719-.0424-.23016-.09691-.23016-.12114s-.09691-.07874-.212-.12114c-.29679-.103-.40582-.23016-.33313-.36947a1.51028,1.51028,0,0,1,.69654-.60569c.0848,0,.15142-.02423.15142-.05451a1.30417,1.30417,0,0,1,.65415-.24833A.63126.63126,0,0,0,24.319,35.638a1.32876,1.32876,0,0,1,.37553-.08478,1.65007,1.65007,0,0,0,.33919-.04846.18769.18769,0,0,1,.19382.04846c.06057.06057.103.07268.11508.03028s.27256-.06662.71471-.07268a1.95149,1.95149,0,0,1,.90248.103.56613.56613,0,0,0,.33313.07268.37359.37359,0,0,1,.26045.05451,1.96686,1.96686,0,0,0,.86614.27256.72979.72979,0,0,1,.33313.07873,2.30268,2.30268,0,0,0,1.1387,0c.19989-.06056.24227-.0545.33313.04241.07874.0848.17565.109.3937.0969a.79131.79131,0,0,1,.38764.06057c.0848.05451.13325.05451.24228-.01817a.33611.33611,0,0,1,.23622-.0545.22132.22132,0,0,0,.2241-.0848c.07268-.08481.15142-.11509.218-.08481a2.21959,2.21959,0,0,0,1.04785-.07268,5.10611,5.10611,0,0,0,1.60508-1.0963c.15142-.1393.29073-.26044.3089-.27256a1.594,1.594,0,0,0,.19382-.33919,1.23079,1.23079,0,0,1,.24228-.3937A.96594.96594,0,0,0,35.5,33.59078a2.02363,2.02363,0,0,0,.11508-.76923,1.69777,1.69777,0,0,1,.36947-.67232c.33919-.46032.36341-.50272.34524-.78134a3.129,3.129,0,0,0-.0545-.41187,1.05135,1.05135,0,0,1-.03634-.16353c-.01211-.11509-.44821-.5209-.52089-.49667-.0424.01817-.13931-.02423-.212-.09691a.30955.30955,0,0,0-.23016-.103.54341.54341,0,0,1-.28468-.07268,1.68015,1.68015,0,0,0-1.12052-.00606,1.367,1.367,0,0,1-1.21138-.20593,4.548,4.548,0,0,0-2.72562-.66021c-.315,0-.78133.00606-1.02968.00606s-.59963,0-.77528-.00606c-.24227-.006-.34524.01817-.39975.09086a.8679.8679,0,0,1-.6602.23622,1.63391,1.63391,0,0,0-.46638.08479,6.2726,6.2726,0,0,1-1.00545.14537,8.97071,8.97071,0,0,0-1.34464.212,3.0654,3.0654,0,0,1-.55723.12114c0-.01212-.06057.01211-.13325.06057a1.34969,1.34969,0,0,1-.39976.12719c-.14536.02423-.27862.07874-.29679.1272a.2813.2813,0,0,1-.15748.12114.69879.69879,0,0,0-.26044.15748.68368.68368,0,0,1-.212.13325,14.25573,14.25573,0,0,0-1.8413,1.87158,1.44887,1.44887,0,0,1-.33918.37553.9316.9316,0,0,0-.315.64809.41153.41153,0,0,0,.09691.25439.20929.20929,0,0,1,.06662.18777c-.03028.07268.01817.09085.23622.09085a1.66451,1.66451,0,0,0,1.07813-.49667,1.06426,1.06426,0,0,1,1.1387-.36947c.11508.04846.23622.01211.60569-.17565A2.162,2.162,0,0,1,23.58,32.9245a3.46373,3.46373,0,0,0,.92065-.26045.62171.62171,0,0,1,.54512.02423,1.06056,1.06056,0,0,0,.58752.05451,12.6594,12.6594,0,0,0,1.32646-.27256.564.564,0,0,1,.26045.06057,1.55475,1.55475,0,0,0,.8722,0,3.512,3.512,0,0,1,1.20532.218,5.5524,5.5524,0,0,0,1.09024.09085c.50273.01211,1.00545.03634,1.12053.06057a4.022,4.022,0,0,0,.54513.05451,3.34226,3.34226,0,0,1,.4906.06057,1.11851,1.11851,0,0,0,.41187-.03028c.27257-.07269.70261.00605.75106.1393.0424.12719-.07268.27861-.3089.3937a1.00513,1.00513,0,0,1-.67837.07269,1.40338,1.40338,0,0,0-.5633.01211.22263.22263,0,0,1-.15142.03029,2.05235,2.05235,0,0,0-.46638.02422,2.166,2.166,0,0,1-.81769-.04239.76581.76581,0,0,0-.69654.03634,1.33481,1.33481,0,0,1-.86614.1817c-.09085-.03028-.2665-.07874-.38764-.12113-.12114-.03636-.28467-.08481-.36341-.103a6.5493,6.5493,0,0,0-1.50212,0c-.15142.02424-.32707.05451-.3937.05451a.586.586,0,0,0-.23622.0848.193.193,0,0,1-.2241.01817.90981.90981,0,0,0-.30891-.05451c-.109.00605-.41792-.01211-.68443-.03635-.72683-.06662-.8843-.06055-.95093.05452a.83756.83756,0,0,1-.61175.2968,2.70767,2.70767,0,0,0-1.14475.54512,3.61628,3.61628,0,0,0-.90248.82978.18962.18962,0,0,1-.13326.09086,2.97729,2.97729,0,0,0-.81768.854,4.30815,4.30815,0,0,1-.27256.36342,3.00653,3.00653,0,0,0-.24228.33313c-.06662.11508-.23016.3513-.35735.52089a1.71294,1.71294,0,0,0-.23017.35736,1.86463,1.86463,0,0,1-.20593.35736c-.28468.43-.37553.72077-.29679.90248a.28614.28614,0,0,1,.01817.23016,1.26444,1.26444,0,0,0-.00606.53906.56886.56886,0,0,0,.424.39976,1.04623,1.04623,0,0,1,.36341.11508,1.70219,1.70219,0,0,0,.44216.12721,2.2946,2.2946,0,0,1,.9691.44821,2.2869,2.2869,0,0,0,1.25984.33313,3.79641,3.79641,0,0,1,1.68988.27862,1.237,1.237,0,0,0,.67837.17565,2.33227,2.33227,0,0,1,.636.09691.80094.80094,0,0,0,.44215.04845,4.48843,4.48843,0,0,1,1.15687.00606c.18171.02423.54512.04845.79951.06057a3.41938,3.41938,0,0,1,.69655.09691,7.42867,7.42867,0,0,0,1.68382.14536,5.5043,5.5043,0,0,0,1.47183.00606.18933.18933,0,0,1,.16959.01211c.07268.0424.18777.01818.37553-.06056a2.36757,2.36757,0,0,1,.95093-.18777c.13326-.01211.3937-.03634.57541-.06057s.41793-.05451.51484-.06662a1.16088,1.16088,0,0,0,.37553-.11508.93285.93285,0,0,1,.30284-.103,4.23559,4.23559,0,0,0,1.01756-.29073c.1696-.06663.50878-.20594.76923-.30285a10.03723,10.03723,0,0,0,1.45972-.70866,2.46392,2.46392,0,0,0,.67837-.7026c.02423-.06057.05451-.11508.07874-.11508a2.09058,2.09058,0,0,0,.87825-.15142.71842.71842,0,0,0,.3089-.26651,1.50331,1.50331,0,0,1,.61175-.50878,2.70229,2.70229,0,0,0,.73289-.6602,6.0741,6.0741,0,0,1,.642-.69655.76923.76923,0,0,0,.26045-.3937c.01211-.07874.05451-.24833.07874-.38158a2.66427,2.66427,0,0,1,.15142-.45427,5.20112,5.20112,0,0,0,.40581-1.066,1.21163,1.21163,0,0,1,.15748-.38764,2.6364,2.6364,0,0,0,.29073-.98122.818.818,0,0,1,.103-.30284.88513.88513,0,0,0,.103-.3513c.01817-.24228.12719-.54512.19988-.54512a1.85215,1.85215,0,0,0,.47244-.7874,4.40006,4.40006,0,0,1,.15142-.45427,1.44984,1.44984,0,0,0,.18171-.66626.33124.33124,0,0,1,.04238-.22411.98233.98233,0,0,0,.09692-.27256,5.62982,5.62982,0,0,1,.13326-.64809.85214.85214,0,0,0,.03028-.29073,2.50523,2.50523,0,0,1-.109-.77528,4.64431,4.64431,0,0,0-.20594-1.272,1.45836,1.45836,0,0,1-.103-.36342,6.224,6.224,0,0,0-.212-1.26589.71292.71292,0,0,1-.06057-.24228.38635.38635,0,0,0-.16353-.24228,1.388,1.388,0,0,1-.38159-.36947c-.24227-.30284-.3937-.49061-.55118-.66626a1.02694,1.02694,0,0,1-.19987-.41792,1.07411,1.07411,0,0,0-.33919-.55724,3.3241,3.3241,0,0,1-.30285-.35736,1.06909,1.06909,0,0,0-.27861-.17565A.77921.77921,0,0,1,41.563,21.822a1.09863,1.09863,0,0,0-.18776-.34524,1.75148,1.75148,0,0,1-.19988-.32708.77219.77219,0,0,0-.17565-.23016.54975.54975,0,0,1-.16354-.2665,5.13669,5.13669,0,0,0-1.52028-1.8837.56544.56544,0,0,1-.24833-.33313A.56686.56686,0,0,0,38.801,18.091a1.37924,1.37924,0,0,1-.36341-.38159,3.91384,3.91384,0,0,0-.64809-.76923,3.5432,3.5432,0,0,1-.62992-.957.52269.52269,0,0,0-.20593-.23016,1.24169,1.24169,0,0,1-.321-.38159,1.57266,1.57266,0,0,0-.3937-.44821.939.939,0,0,1-.28467-.27256,6.31242,6.31242,0,0,0-.854-.87825.73459.73459,0,0,1-.19988-.23622c0-.03029-.103-.109-.2241-.16959a2.46931,2.46931,0,0,1-.854-.79346c-.29679-.41187-.58752-.69049-.66626-.642-.0969.05451-.24833-.1272-.212-.26045.03029-.12719-.16959-.29679-.53906-.44821-.22411-.09691-.24834-.1272-.50878-.73894-.03635-.103-.19383-.45427-.33919-.7874a1.60947,1.60947,0,0,1-.24227-.83586c.01211-.12719,0-.2241-.03635-.2241-.0848,0-.14537-.1696-.16959-.49667a1.09584,1.09584,0,0,0-.109-.424,2.56653,2.56653,0,0,1-.15143-.61175,2.86125,2.86125,0,0,0-.15748-.64809c-.13931-.2665-.11508-.3937.13932-.68443a4.59557,4.59557,0,0,0,.6178-.957,1.80607,1.80607,0,0,1,.424-.72077,1.09238,1.09238,0,0,1,.33918-.09086,1.14158,1.14158,0,0,0,.35131-.12114c.07268-.04845.15142-.07268.17565-.05451.01817.02423.11508.01212.20593-.03028a3.1727,3.1727,0,0,1,.45427-.12114c.24833-.0424.3089-.03634.424.06663a.5876.5876,0,0,0,.49667.15142.28454.28454,0,0,1,.212.05451c.06663.04846.1272.07874.1272.05451a.83311.83311,0,0,1,.3089.1272c.24228.12114.34524.14536.44215.09691a.64539.64539,0,0,1,.30891-.02423c.103.01817.50878.03634.90853.04846s.79346.02422.8722.03028a1.86215,1.86215,0,0,0,1.01756-.40581.95679.95679,0,0,1,.27256-.20594.83037.83037,0,0,0,.19988-.27256c.11508-.18776.14536-.29679.103-.36947a.48021.48021,0,0,1,.03029-.34524.68627.68627,0,0,0,.05451-.32708A.38389.38389,0,0,1,39.201,2.131a.59346.59346,0,0,0-.0424-.40582,3.3849,3.3849,0,0,1-.13931-.642.95262.95262,0,0,0-.14536-.47244A.32039.32039,0,0,1,38.777.45932,2.20826,2.20826,0,0,0,37.55342.005ZM32.296,15.60155c.13931.1393.14537.19987.05451.38158-.07268.13325-.16959.22411-.24833.22411a.827.827,0,0,1-.3513-.3937.48511.48511,0,0,1,.33313-.33313A.40726.40726,0,0,1,32.296,15.60155Zm1.82313,1.58085c.12114.19988-.212.41187-.51484.33313-.36341-.09086-.14536-.48455.24834-.4361a.50971.50971,0,0,1,.26648.103Z"/>
   <path class="a"
         d="M18.51655,34.40825a1.6548,1.6548,0,0,0-.33313.48455c-.03634.11508-.09691.212-.12719.212-.07269,0-.212.28467-.26651.54512a1.29622,1.29622,0,0,1-.13931.36341.48418.48418,0,0,0-.08479.25439.7926.7926,0,0,1-.07874.33313,2.34607,2.34607,0,0,0-.1272.40582,3.60189,3.60189,0,0,1-.3937,1.10841,2.12394,2.12394,0,0,0-.2241.57541.78711.78711,0,0,1-.05452.26044,4.42438,4.42438,0,0,0-.16353.56935.89688.89688,0,0,1-.3513.61781c-.14537.12114-.24228.24227-.218.2665a.55982.55982,0,0,1-.0424.27862c-.04846.12719-.07268.23622-.04846.23622.01818,0-.01211.06663-.06056.13931a2.12409,2.12409,0,0,0-.19383.89642c.01817.02423-.04845.13931-.15142.25439a.80824.80824,0,0,0-.18171.29679.66047.66047,0,0,1-.1817.29679,2.927,2.927,0,0,0-.54513,1.0963.84016.84016,0,0,1-.15142.37553,2.74956,2.74956,0,0,0-.27862.72077,3.43875,3.43875,0,0,1-.212.62993.50028.50028,0,0,0-.08479.218,4.27138,4.27138,0,0,1-.5209,1.01756.72343.72343,0,0,0-.11508.3937.64417.64417,0,0,1-.22411.49666,1.01769,1.01769,0,0,0-.24833.37553,1.84039,1.84039,0,0,1-.18776.58752,1.02245,1.02245,0,0,1-.18171.25439.37341.37341,0,0,0-.09691.25439.42784.42784,0,0,1-.11508.27863.79459.79459,0,0,0-.24834.49667,1.03683,1.03683,0,0,1-.11507.34524,2.01849,2.01849,0,0,0-.16354.61175.946.946,0,0,1-.19987.58752,1.948,1.948,0,0,0-.3937.98728,1.54962,1.54962,0,0,1-.0848.35735,13.14339,13.14339,0,0,0-.78134,1.85947,2.14318,2.14318,0,0,1-.25439.57541,1.19268,1.19268,0,0,0-.18171.54512,3.29454,3.29454,0,0,1-.24833.80557,2.81866,2.81866,0,0,0-.34524.94488,2.30267,2.30267,0,0,1-.315.86614c-.15748.218-.20594.39975-.13325.53906.04845.0848.03634.14537-.04846.25439a1.233,1.233,0,0,0-.16959.33313,1.21632,1.21632,0,0,1-.20594.3513,1.39991,1.39991,0,0,0-.29679.745.908.908,0,0,1-.05451.27257c-.03028.07874-.09085.26044-.13325.41187a3.49208,3.49208,0,0,1-.19988.51483.94033.94033,0,0,0-.109.29679.65121.65121,0,0,1-.109.26045.70314.70314,0,0,0-.103.44821.55244.55244,0,0,1-.11507.43,1.02884,1.02884,0,0,0-.24227.68443c.01816.04846-.07269.18777-.20594.32707-.2665.27257-.44821.58752-.3937.67232.02423.03634-.04845.218-.15748.41187a1.3786,1.3786,0,0,0-.20593.80558,1.29981,1.29981,0,0,1-.1696.72683c-.08479.14537-.3089.56329-.49666.93276a8.24709,8.24709,0,0,1-.424.76317,1.17811,1.17811,0,0,0-.18776.37552c-.05451.16961-.13931.29679-.212.315-.09691.03028-.11508.0969-.11508.38159a2.11288,2.11288,0,0,1-.11508.64808,1.07408,1.07408,0,0,0-.0848.38158.43677.43677,0,0,1-.24833.48455c-.15748.09692-.23017.19988-.33313.50273a2.94271,2.94271,0,0,0-.1272.50273.893.893,0,0,1-.12719.33313,1.25284,1.25284,0,0,0-.15143.33313,1.61421,1.61421,0,0,1-.17565.58146,1.26587,1.26587,0,0,0-.103.4785,2.7829,2.7829,0,0,1-.3513,1.1387.93155.93155,0,0,0-.12113.37552,1.23175,1.23175,0,0,1-.09691.39976.6374.6374,0,0,0-.06057.3089,1.38149,1.38149,0,0,1-.14537.49666,3.60933,3.60933,0,0,0-.2665,1.32041.67267.67267,0,0,1-.11509.35736.36916.36916,0,0,0-.103.13931c-.00606.02423-.03029.16353-.06057.315a5.44621,5.44621,0,0,0-.09086.5754,1.17464,1.17464,0,0,1-.15142.46638.63538.63538,0,0,0-.12114.29074,2.32921,2.32921,0,0,1-.12719.49665,1.25415,1.25415,0,0,0-.09086.45427.25055.25055,0,0,1-.02422.19382,2.02136,2.02136,0,0,0-.07269.957c.04846.0848.03635.18171-.05451.38159a1.07781,1.07781,0,0,0-.109.35736.76085.76085,0,0,1-.02423.24833,7.09677,7.09677,0,0,0-.19382,1.1811A4.19718,4.19718,0,0,1,.267,85.60125a.557.557,0,0,0-.04845.29074,1.31483,1.31483,0,0,1-.06663.44822c-.18171.58145-.19382.94487-.0424,1.08418a.82607.82607,0,0,0,1.1673-.04659l.0017-.00186c.22411-.218.23622-.25438.24834-.61781a4.317,4.317,0,0,1,.13931-1.54451.811.811,0,0,0,.103-.321.89016.89016,0,0,1,.08483-.29676.80289.80289,0,0,0,.09086-.28468c0-.06057.03028-.29074.06056-.50879a.83116.83116,0,0,0-.03642-.56333c-.08479-.16959-.07874-.19988.06663-.49061A2.24956,2.24956,0,0,0,2.278,81.955a.86878.86878,0,0,1,.09085-.26651,2.4069,2.4069,0,0,0,.09691-.67837,1.84615,1.84615,0,0,1,.09085-.62992.98635.98635,0,0,0,.09691-.41188c.05452-.78134.07874-.957.1696-1.11447a6.55065,6.55065,0,0,0,.34524-1.19927,2.55526,2.55526,0,0,0,.01817-.58146c-.03028-.28468-.01817-.35736.07874-.45427a1.157,1.157,0,0,0,.35736-.61781,7.88,7.88,0,0,1,.81163-2.132.3358.3358,0,0,0,.04845-.19988.692.692,0,0,1,.1272-.3513,1.01411,1.01411,0,0,0,.15748-.424,1.569,1.569,0,0,1,.30284-.72078,1.607,1.607,0,0,0,.15142-.3937,2.0216,2.0216,0,0,1,.53907-.93882,3.41275,3.41275,0,0,0,.38158-.50273.89182.89182,0,0,1,.61179-.46637c.06057,0,.07874-.09085.07268-.3513a1.50373,1.50373,0,0,1,.15748-.71472,1.68768,1.68768,0,0,0,.16354-.90853,2.64879,2.64879,0,0,1,.26045-1.29618c.06057-.15142.12719-.32708.14536-.39976a1.31958,1.31958,0,0,1,.27862-.3937c.13325-.14536.22411-.29679.20594-.34524a.85022.85022,0,0,1,.15142-.40581,1.76219,1.76219,0,0,0,.20593-.49667.564.564,0,0,1,.06658-.25439,4.64963,4.64963,0,0,0,.24228-.86614,2.34753,2.34753,0,0,1,.11508-.37553,2.34566,2.34566,0,0,0,.12719-.50272,3.31271,3.31271,0,0,1,.24228-.71472c.109-.23623.24833-.56329.30284-.72683a9.02312,9.02312,0,0,1,.49061-1.22955,3.58038,3.58038,0,0,0,.23622-.56329.99282.99282,0,0,1,.14537-.29073.71364.71364,0,0,0,.1272-.36947.74324.74324,0,0,1,.26044-.5633.5504.5504,0,0,0,.15748-.27861c.03634-.13931.09691-.24834.12114-.24834.03028,0,.06663-.07874.0848-.18171a1.15378,1.15378,0,0,1,.25439-.40581c.11508-.12114.20593-.25439.19382-.29073-.02423-.05451.07874-.29073.34524-.82374a.28121.28121,0,0,0,.03029-.24228.26111.26111,0,0,1-.03029-.17566,5.38237,5.38237,0,0,0,.06663-.58145,3.52748,3.52748,0,0,1,.15142-.81163.88667.88667,0,0,0,.0848-.36947c-.01817-.03028.03634-.11508.11508-.18776a.77168.77168,0,0,0,.19382-.41187,1.49573,1.49573,0,0,1,.16959-.4785.77345.77345,0,0,0,.09086-.65414c-.03029-.09086.01211-.212.15142-.424a11.6335,11.6335,0,0,0,.63-1.09632,1.91717,1.91717,0,0,1,.26045-.40581,1.71806,1.71806,0,0,0,.27861-.60569.43763.43763,0,0,1,.15748-.218c.09691-.07268.13326-.17565.14537-.38159a1.28273,1.28273,0,0,1,.13931-.49666.83991.83991,0,0,0,.12719-.315,2.6383,2.6383,0,0,1,.48456-.957,2.32865,2.32865,0,0,0,.424-1.11448,2.32927,2.32927,0,0,1,.16959-1.09024,2.59685,2.59685,0,0,0,.1696-.48455,5.44281,5.44281,0,0,1,.35735-.87825c.17565-.36948.35736-.76317.41187-.87826.06057-.11508.1272-.25439.15748-.30284a3.20547,3.20547,0,0,0,.16354-.48455,4.17494,4.17494,0,0,1,.24833-.66626,1.21306,1.21306,0,0,0,.13931-.44216.45609.45609,0,0,1,.15143-.3089.85713.85713,0,0,0,.218-.52695,2.35678,2.35678,0,0,1,.11509-.48457.52132.52132,0,0,0,.06056-.23016.36868.36868,0,0,1,.09086-.212.43417.43417,0,0,0,.09085-.26045,1.95933,1.95933,0,0,1,.20594-.59357,1.676,1.676,0,0,0,.1817-.46638,1.0224,1.0224,0,0,1,.09691-.39975,2.377,2.377,0,0,0,.14537-.56936.60139.60139,0,0,1,.11508-.33313,6.22811,6.22811,0,0,0,.4361-.62385,1.51715,1.51715,0,0,0,.33919-.8177c.01817-.41792-.06663-.55118-.44216-.66626a3.23686,3.23686,0,0,0-.36341-.09085A1.29556,1.29556,0,0,0,18.51655,34.40825Z"/>

</g>
</svg>
