<?xml version="1.0" encoding="UTF-8"?>
<svg xmlns="http://www.w3.org/2000/svg"
     version="1.1"
     width="55.66681674mm"
     height="23.10466849mm"
     viewBox="0.00000000 0.00000000 157.79568986 65.49351705">

<g transform="scale(4.86841469)">   <defs>
      <style type="text/css"><![CDATA[
      .a {
        stroke: #000;
        stroke-linecap: round;
        stroke-linejoin: round;
        stroke-width: 0.01px;
      }
    ]]></style>
   </defs>
   <path class="a"
         d="M5.72609.133a6.70205,6.70205,0,0,0-1.3083.93276.71662.71662,0,0,1-.29073.19988.71421.71421,0,0,0-.28467.19382c-.11508.103-.35736.315-.53907.46033a2.6548,2.6548,0,0,0-.79341.8904,2.39971,2.39971,0,0,1-.22411.3513c-.08479.09691-.07874.12114.07874.28468.09691.09691.18777.16959.19988.15142.04846-.04845.36341.14537.49061.3089a.60714.60714,0,0,1,.12114.41187,1.45379,1.45379,0,0,0,.11508.527.54278.54278,0,0,1,.07268.35736.26771.26771,0,0,0,0,.20594c.1272.35736.16354.51483.12114.58146a1.30444,1.30444,0,0,0-.02423.4361,1.30572,1.30572,0,0,1-.03028.46032.22062.22062,0,0,0,.03028.23017.3512.3512,0,0,1,.0424.30284.85218.85218,0,0,0-.03028.24228,1.798,1.798,0,0,1-.5209.88431.55593.55593,0,0,0-.218.24833,1.78454,1.78454,0,0,1-.82374.60569,1.39134,1.39134,0,0,0-.3937.26045,6.02837,6.02837,0,0,1-1.00544.70866c-.36947.23016-.55118.51483-.49667.78134.02423.11508.13325.23016.36342.38764a.77333.77333,0,0,0,.73894.17565,1.001,1.001,0,0,1,.59963.05451c.33313.1696.3089.49061-.05451.67838-.103.04845-.16959.109-.15142.12719.01817.02423,0,.09691-.04846.16354a.80085.80085,0,0,0,.00606.64809.74921.74921,0,0,0,.69049-.04846c.11508-.06662.23622-.11508.27861-.09691.0424.01212.13931-.08479.23017-.218.08479-.13931.17565-.24833.20593-.24833.03634,0,.07269-.05451.09691-.11508a.95053.95053,0,0,1,.35736-.30285,2.41852,2.41852,0,0,1,1.42943-.23622c.18171.02423.54512.06057.80557.07269a6.483,6.483,0,0,1,.848.12114,3.58641,3.58641,0,0,0,.46638.08479,1.57144,1.57144,0,0,1,.24228.03634,1.06258,1.06258,0,0,0,.3937-.03634,3.79136,3.79136,0,0,1,1.0539-.13931,2.12792,2.12792,0,0,0,.70866-.13325.21684.21684,0,0,1,.24227-.03028.46031.46031,0,0,0,.29073.00605c.103-.02422.30891-.07874.45427-.11508a1.2359,1.2359,0,0,1,.84191-.03634,2.85251,2.85251,0,0,0,.739.06663,5.5145,5.5145,0,0,0,1.39309-.20594c.15142-.03028.62991-.103,1.06-.15748a9.99215,9.99215,0,0,0,1.3083-.27256,1.56442,1.56442,0,0,1,.848-.12719,4.42131,4.42131,0,0,0,1.56874-.20594c.54513-.11508.87826-.13325.98122-.04845a1.97576,1.97576,0,0,0,.44216.13325,4.4556,4.4556,0,0,0,1.42337-.02423c.11508-.01211.321-.03634.45427-.04846.13325-.01817.35736-.06056.50272-.09691a.60585.60585,0,0,1,.32708-.03028,1.01732,1.01732,0,0,0,.71471,0c.55724-.18171.73289-.20594.92065-.15142a.7326.7326,0,0,0,.315.02422c.07268-.01211.22411-.04239.33919-.06056s.37553-.07269.57541-.12114a3.22171,3.22171,0,0,1,1.39308-.0848,4.84524,4.84524,0,0,0,1.33252.03028c.27862-.03634,1.02968-.08479,1.82919-.12113a1.6507,1.6507,0,0,0,1.29012-.5209,7.34206,7.34206,0,0,1,.61781-.43A1.05638,1.05638,0,0,0,31.8556,9.17a.8242.8242,0,0,1,.29073-.315c.23016-.16959.25439-.20594.26045-.46033.00605-.32707-.06057-.38158-.56935-.46032a5.01012,5.01012,0,0,0-1.6172.15748,3.04978,3.04978,0,0,1-.87219.17565,1.6519,1.6519,0,0,0-.424.109.67989.67989,0,0,1-.33313.05452,2.38917,2.38917,0,0,0-.95093.05451c-.38764.07268-.49061.07268-.61781.00605a.83388.83388,0,0,0-.38158-.05451c-.1272.01212-.40582.0424-.62386.06663a2.04815,2.04815,0,0,0-.48456.09085,4.22543,4.22543,0,0,1-1.15081.12114c-.29073-.01817-.957-.01817-1.3628-.00606-.13326.00606-.36948.00606-.527.00606a2.58249,2.58249,0,0,0-.54512.06663,7.74981,7.74981,0,0,1-2.05329.09085c-.61175-.00605-.79346-.03028-.92671-.11508a.39816.39816,0,0,0-.2665-.07874,25.855,25.855,0,0,1-2.88915.212,5.00671,5.00671,0,0,0-.51484-.00606c-.11508.00606-.48455.01818-.81768.03029a2.78536,2.78536,0,0,0-.69654.07268,1.458,1.458,0,0,1-.81163.07268,2.37375,2.37375,0,0,0-1.04784.02423,1.11255,1.11255,0,0,1-.58147-.03634,1.48747,1.48747,0,0,0-.44821-.06663c-.01817.01818-.09691.00606-.17565-.02422a5.15006,5.15006,0,0,0-1.95638-.06663,5.34174,5.34174,0,0,1-1.88364-.05451.72337.72337,0,0,0-.27256-.06057.699.699,0,0,1-.533-.2665c-.03634-.09692.27256-.55118.41187-.6057a.1781.1781,0,0,0,.09085-.15748.46953.46953,0,0,1,.1696-.27861c.09085-.0848.212-.19988.27256-.25439a.20826.20826,0,0,0,.07868-.17565c-.01817-.04846.02423-.13931.09085-.20594s.109-.13931.09086-.16959c-.0424-.06057.18776-.43.2665-.43a.06634.06634,0,0,0,.06057-.06663,1.47817,1.47817,0,0,1,.16354-.34524,1.98468,1.98468,0,0,0,.17568-.34529c.006-.03028.06057-.16959.11508-.30284a1.39793,1.39793,0,0,0,.103-.28468A.50225.50225,0,0,1,8.20336,4.7a.304.304,0,0,0,.00606-.23016.1905.1905,0,0,1,.03028-.212c.06663-.109.07269-.16353,0-.36341a.54624.54624,0,0,1-.03028-.32707,1.04586,1.04586,0,0,0,.01817-.3937c-.01817-.1696-.03634-.36947-.0424-.45427a2.977,2.977,0,0,0-.65414-1.19927c-.09691-.109-.15748-.2241-.13931-.26045.02422-.03028.006-.05451-.03029-.05451-.09691,0-.29073-.35736-.26044-.47849C7.11918.66,7.05861.54491,6.94353.42983A.71694.71694,0,0,0,6.75576.27235a1.08387,1.08387,0,0,1-.28467-.1272C6.11979-.03655,6.07133-.04261,5.72609.133Z"/>

</g>
</svg>
