<?xml version="1.0" encoding="UTF-8"?>
<svg xmlns="http://www.w3.org/2000/svg"
     version="1.1"
     width="48.07884704mm"
     height="48.60876871mm"
     viewBox="0.00000000 0.00000000 136.28650238 137.78859249">

<g transform="scale(5.77949253)">   <defs>
      <style type="text/css"><![CDATA[
      .a {
        stroke: #000;
        stroke-linecap: round;
        stroke-linejoin: round;
        stroke-width: 0.01px;
      }
    ]]></style>
   </defs>
   <path class="a"
         d="M10.16279.05346a4.53948,4.53948,0,0,0-.636.23016c-.23016.103-.55723.22411-.71471.27256a1.87718,1.87718,0,0,0-.636.36347c-.33313.28467-.38764.315-.54512.29679a.48038.48038,0,0,0-.23622.109.52232.52232,0,0,1-.27256.12719c-.07268,0-.14536.07269-.20593.218a3.32419,3.32419,0,0,1-.34525.53907c-.13931.17565-.36341.47849-.49666.66626s-.32708.44215-.43.56329a1.28194,1.28194,0,0,0-.40582.854c.04846.20593.24834.49061.34525.49061A1.54548,1.54548,0,0,0,6.26824,4.372a.60132.60132,0,0,1,.3089-.19383c.17565,0,.36947-.29073.82374-1.22349.50878-1.0539.62992-1.13264,1.45971-.957A1.91819,1.91819,0,0,1,9.8297,2.452a5.77317,5.77317,0,0,0,.48455.33313,8.5262,8.5262,0,0,1,.72683.54513c.82374.68443.83586.69048,1.21743.67837a1.93758,1.93758,0,0,0,.527-.07874.56233.56233,0,0,1,.46638.03634c.36343.13325.61175.12114.739-.0424a.60011.60011,0,0,0,.08479-.5754.98037.98037,0,0,1-.08479-.321c-.00605-.11508-.02423-.27862-.03028-.36341a2.526,2.526,0,0,0-.20593-.5209.939.939,0,0,1-.15748-.50272c.02423-.103-.04241-.20594-.33313-.48455C12.8521.75,12.71884.66522,12.50079.66522A1.8972,1.8972,0,0,1,11.7679.42294,8.18153,8.18153,0,0,0,10.43535.005C10.40507.01106,10.27787.02923,10.16279.05346Z"/>
   <path class="a"
         d="M13.86356,5.323a5.65722,5.65722,0,0,0-.46032.54512,5.04323,5.04323,0,0,1-.37553.46638,2.36422,2.36422,0,0,0-.29073.38159.47928.47928,0,0,1-.19382.212.39785.39785,0,0,0-.18777.16354c-.07268.11508-.06662.14536.06663.26044a1.20309,1.20309,0,0,1,.38158.78135c.01212.13931.0424.36341.06057.49666a2.43125,2.43125,0,0,1-.00606.81769,8.48367,8.48367,0,0,0,.00606,2.21682.45843.45843,0,0,1,0,.46639c-.11508.28467-.321.34524-.60569.16959a.96382.96382,0,0,0-.44215-.13325h-.44216a2.50425,2.50425,0,0,0-.424.03634,1.55246,1.55246,0,0,1-.27256.03028,7.37068,7.37068,0,0,0-1.09025.03029.35064.35064,0,0,1-.33313-.07874c-.15142-.12114-.15142-.12114-.34524-.00606-.19382.12114-.19382.12114-.315,0-.109-.109-.11508-.13931-.03028-.48455a8.16161,8.16161,0,0,0-.04234-2.2592.28442.28442,0,0,1,.03634-.32707.35422.35422,0,0,0,.05451-.315,2.45192,2.45192,0,0,1-.01817-.98122A.88055.88055,0,0,0,8.588,7.35809c-.03634-.16959-.07874-.3937-.09085-.50878a1.10821,1.10821,0,0,0-.0848-.29679.27852.27852,0,0,1,.00606-.23016.25252.25252,0,0,0-.03028-.27256,1.06467,1.06467,0,0,1-.13326-.36947c-.02422-.1272-.06662-.212-.09691-.19382s-.13325-.01817-.23622-.07269c-.15142-.09085-.19987-.09691-.321-.03028a.543.543,0,0,0-.26651.36947,1.1676,1.1676,0,0,1-.11508.27256c-.39975.78134-.40581.79346-.36341,1.01756a.3255.3255,0,0,1-.109.37553.55152.55152,0,0,0,.07269.81768,1.166,1.166,0,0,1,.19382.19988c0,.01212.03028.17565.06662.3513a4.70678,4.70678,0,0,1,.07874.61175,1.073,1.073,0,0,0,.18777.54512,1.71445,1.71445,0,0,1,.212,1.07813v.33313a.68595.68595,0,0,1-.0848.36342.44339.44339,0,0,0-.05451.30284c.0424.26651-.15748.49061-.54512.59964-.17565.04845-.57541.16353-.89037.25439s-.75105.212-.9691.27256a6.97481,6.97481,0,0,0-.70866.23016c-.73289.29073-.90248.34524-.96911.32707-.03634-.01211-.103.03029-.13931.09691-.13931.27257-.27256.27257-.73288,0a2.33923,2.33923,0,0,1-.49667-.36947.99152.99152,0,0,0-.27256-.23622c-.16959-.109-.23016-.11508-.50272-.06057a.9834.9834,0,0,1-.35736.03635c-.109-.06663-.47244.24833-.58752.51483-.18777.43-.27256.72078-.23016.7874a5.20409,5.20409,0,0,1,.103.93882,1.16252,1.16252,0,0,1-.07874.24834c-.103.2665.00606.51483.38159.82979A4.61661,4.61661,0,0,1,1.5015,17.86077c.09691.25439.15748.30891.6602.60569.424.24834.58147.37553.67232.54513a2.17465,2.17465,0,0,0,.34524.44821c.19382.18776.53907.533.89643.89036.04845.04846.16353.15143.25439.22411.09085.07874.315.26045.49061.41187a1.05745,1.05745,0,0,0,.47243.27256A.83924.83924,0,0,1,5.705,21.501a1.08736,1.08736,0,0,0,.61175.315,1.27237,1.27237,0,0,1,.66021.33313,5.07343,5.07343,0,0,0,1.387.82979,1.63411,1.63411,0,0,0,.65414.15748,1.01,1.01,0,0,1,.5633.15143,2.54885,2.54885,0,0,0,1.20532.27861,1.1852,1.1852,0,0,1,.424.06663c.18776.103.26044.11508.79951.13325a2.26473,2.26473,0,0,0,.59357-.03634.24062.24062,0,0,1,.26045.0424c.13325.08479.15142.08479.18171,0a.91521.91521,0,0,1,.72077-.30285,2.18253,2.18253,0,0,0,.62992-.12114.99021.99021,0,0,1,.59358-.08479,2.38374,2.38374,0,0,0,1.81707-.9146,3.50792,3.50792,0,0,1,.99333-.99939,1.87742,1.87742,0,0,0,.53907-.34524c.18171-.24228.66626-.8298.7874-.95093a2.03872,2.03872,0,0,0,.25439-.321.57185.57185,0,0,1,.21805-.19382.48878.48878,0,0,0,.212-.218,2.97909,2.97909,0,0,1,.30284-.38764,2.3332,2.3332,0,0,0,.315-.4361,4.44091,4.44091,0,0,1,.36342-.53907,2.19308,2.19308,0,0,0,.50878-1.18109,6.23087,6.23087,0,0,0,.2241-1.77468,1.88452,1.88452,0,0,1,.05452-.62992c.04239-.06057.19987-.09691.44215-.11508a1.74891,1.74891,0,0,0,.6178-.14536,1.13947,1.13947,0,0,1,.315-.12114c.13326,0,.66626-.53907.61781-.61781a.63806.63806,0,0,1-.03634-.27256c.01211-.16959-.01212-.212-.13931-.26044a1.98315,1.98315,0,0,1-.36342-.212.69677.69677,0,0,0-.39975-.15748,2.70348,2.70348,0,0,1-1.03574-.1393.72277.72277,0,0,0-.56934-.0424.47022.47022,0,0,1-.52091-.0848.55414.55414,0,0,0-.55117-.103,6.70391,6.70391,0,0,1-1.37492.09691c-.90853.03029-2.30768.12114-2.46517.1696a3.1973,3.1973,0,0,1-.49061-.09691,1.86827,1.86827,0,0,0-.55723-.07874c-.28468.07268-.49061-.32708-.45427-.86615.03028-.38764.103-2.16837.103-2.42277a8.56969,8.56969,0,0,0-.07874-.93882.642.642,0,0,1,.03634-.23016,1.37973,1.37973,0,0,0-.02423-.48455,3.60643,3.60643,0,0,1-.0848-.56935.672.672,0,0,0-.05451-.29073c-.02423-.02423-.00606-.12114.0424-.218a1.67356,1.67356,0,0,0,.16354-.93277c-.04846-.16353-.07874-.1817-.315-.19382C14.15429,5.03224,14.11193,5.05647,13.86356,5.323ZM7.93385,14.32965c.47849-.01818.55723-.01212.6602.09085.13931.13931.09085.26045-.18171.49061-.33313.28467-.46032.69049-.28467.93276.06662.09086.17565.12114.50272.13325.36947.01818.56935.03635.7874.06057a.27174.27174,0,0,1,.13931.1272c.04845.09691.01817.16354-.15142.36947a1.28119,1.28119,0,0,0-.212.3089c0,.03029-.07874.09086-.1817.14537-.18777.09691-.26045.25439-.0848.18776.14537-.05451.321.06663.50878.36947a1.50256,1.50256,0,0,0,.35736.38765c.32707.19987.33919.315.06662.62992-.26044.30284-.28467.39975-.16353.68443.15142.36947.41187.49061,1.0539.49061.26045,0,.47244.20593.38159.36947a.41638.41638,0,0,1-.4785.15142.63176.63176,0,0,0-.3937.09691l-.2665.13325-.20594-.12719c-.14536-.09086-.23016-.109-.30284-.06663-.0848.04846-.1696.00606-.3937-.20593a4.84319,4.84319,0,0,0-1.169-.77529,1.14537,1.14537,0,0,1-.48455-.38764.75188.75188,0,0,0-.37553-.30285,1.57145,1.57145,0,0,1-.49666-.35735.93853.93853,0,0,0-.39976-.27862c-.13931,0-.41187-.2665-.64809-.62992a4.44538,4.44538,0,0,0-.8722-.88431c-.02422,0-.103-.09691-.17565-.212-.11508-.18776-.12719-.24228-.06056-.3937A2.751,2.751,0,0,1,5.86237,14.899c.15748,0,.72683-.38158.72683-.4906,0-.03029.07269-.09086.15748-.13326.13325-.07268.19382-.07268.39976,0A2.32461,2.32461,0,0,0,7.93385,14.32965Zm8.67955.14536a.89736.89736,0,0,0,.41793.09691.33766.33766,0,0,1,.218.02423.90394.90394,0,0,0,.41793.00606.61379.61379,0,0,1,.58146.12113c.15143.09692.27862.19988.27862.23622a2.75249,2.75249,0,0,0,.103.3937,1.86537,1.86537,0,0,1,.07268.47244,1.005,1.005,0,0,0,.09691.41187.59471.59471,0,0,1,.03029.46638.90365.90365,0,0,0-.02423.33919,2.26246,2.26246,0,0,1,.03029.533c0,.51484-.07269.69049-.34525.87219-.0848.05452-.15142.13326-.15142.1696a.60506.60506,0,0,1-.103.218.72211.72211,0,0,0-.11508.23016,5.177,5.177,0,0,1-1.2416,1.25379c-.24833.19382-.51483.41793-.59963.49667-.48455.46032-.61175.56329-.67837.56329a1.94033,1.94033,0,0,1-.43-.212,1.81738,1.81738,0,0,0-.44215-.212.507.507,0,0,1-.24228-.15143c-.15142-.15142-.15142-.15142-.04239-.33918.14536-.25439.29678-.32708.48455-.24228a1.05839,1.05839,0,0,0,.16959.06662,4.02623,4.02623,0,0,0-.2241-.636c-.01212-.00606-.07874-.04846-.15748-.0848a1.03887,1.03887,0,0,1-.29074-.41792l-.15142-.33919.32708-.49061c.43-.636.47243-.72077.46032-.95094a1.54125,1.54125,0,0,1,.00606-.26044,1.77158,1.77158,0,0,0-.13325-.65415c-.09086-.18171.00605-.33919.31495-.49667.32708-.16353.321-.1393.28468-1.06-.01211-.27256.01211-.35735.12114-.47243.16344-.16345.49658-.15134.95691.04854Z"/>
   <path class="a"
         d="M10.13251,6.51618c-.23017.27862-.23622.315-.19383.82374.03029.32707-.05451.48455-.26044.49667a.4159.4159,0,0,0-.26045.16959c-.103.13325-.12114.24833-.11508.65415a2.3626,2.3626,0,0,0,.07268.60569.58337.58337,0,0,1,.06057.25439.47977.47977,0,0,0,.09085.25439.51917.51917,0,0,1,.09086.26045c0,.28467.41792.59963,1.50211,1.14475.27256.13325.3513.14537.47244.09086a.20434.20434,0,0,0,.13931-.19988,3.39692,3.39692,0,0,1,.03634-.4785c.03634-.2665.02423-.36947-.05451-.49061-.05451-.07874-.07874-.16353-.06057-.18776a1.65893,1.65893,0,0,0-.19382-.67838,3.11669,3.11669,0,0,1-.22411-.81768.66435.66435,0,0,0-.07268-.24833.3909.3909,0,0,1-.00606-.3937c.0424-.13325.1272-.37553.18171-.54512l.09691-.315-.23622-.25439a1.31891,1.31891,0,0,0-.76923-.424C10.38693,6.23756,10.2597,6.3587,10.13251,6.51618Z"/>

</g>
</svg>
