<?xml version="1.0" encoding="UTF-8"?>
<svg xmlns="http://www.w3.org/2000/svg"
     version="1.1"
     width="13.56143823mm"
     height="22.84675757mm"
     viewBox="0.00000000 0.00000000 38.44187621 64.76242850">

<g transform="scale(3.67920472)">   <defs>
      <style type="text/css"><![CDATA[
      .a {
        stroke: #000;
        stroke-linecap: round;
        stroke-linejoin: round;
        stroke-width: 0.01px;
      }
    ]]></style>
   </defs>
   <path class="a"
         d="M7.03709.02152A1.95411,1.95411,0,0,1,6.171.40311c-.3089.03028-.46032.17565-.67837.61174a.8606.8606,0,0,1-.47244.47244.94842.94842,0,0,0-.30284.19988c.04239.0848-.24228.40581-.38765.4361-.09691.01817-.16959.05451-.16959.0848a1.61246,1.61246,0,0,1-.30285.36341,1.82466,1.82466,0,0,0-.30284.36341c0,.02423-.05451.06663-.12114.0848-.06663.02423-.109.06663-.0848.09691.01817.03029-.08479.17565-.23016.315-.15142.14537-.25439.29679-.24227.35736.01211.05451-.05452.16354-.13931.24228a1.86808,1.86808,0,0,0-.65415.83585c-.07874.218-.15748.32707-.27256.38158a.82551.82551,0,0,0-.424.41187.64687.64687,0,0,1-.19383.24228.46978.46978,0,0,0-.1817.30285A1.06735,1.06735,0,0,1,.859,6.59331a.99272.99272,0,0,0-.15142.34524.34252.34252,0,0,1-.09691.19988.53483.53483,0,0,0-.11508.29073,4.01918,4.01918,0,0,1-.09085.527,3.97438,3.97438,0,0,0-.09086.60569,2.35852,2.35852,0,0,1-.16959.642A1.30262,1.30262,0,0,0,.005,9.6884a10.39783,10.39783,0,0,1,.13325,1.11447,2.2107,2.2107,0,0,0,.18777.94488c.04239.07268.07874.15748.06662.18171a4.22439,4.22439,0,0,0,.59358,1.50817c.27862.56329.52089,1.10841.54512,1.19927a4.65407,4.65407,0,0,0,1.06,1.13264c.03634,0,.09691.09085.14537.19988a.85413.85413,0,0,0,.1817.28467,1.38189,1.38189,0,0,1,.218.315c.06663.12719.15142.23016.19382.23016a1.08536,1.08536,0,0,1,.33313.18777,1.02494,1.02494,0,0,0,.53907.20593c.4361.03634.86614.16959.86614.27256,0,.02423.09085.06663.19987.09086a9.90584,9.90584,0,0,0,1.79891,0c.11508-.01818.321-.04846.45427-.07269a.93672.93672,0,0,0,.41187-.17565.745.745,0,0,1,.23016-.14536.42568.42568,0,0,0,.17565-.12114c.07268-.07268.15142-.109.17565-.09086.12114.07269.70866-.28467,1.06-.64808a4.82785,4.82785,0,0,1,.527-.48456c.12114-.07874.17565-.18776.23622-.46638.07874-.36341.07268-.36947-.07874-.49061a.70033.70033,0,0,1-.19988-.26045A.79751.79751,0,0,0,9.89,14.34015a2.62273,2.62273,0,0,1-.35736-.43,2.27588,2.27588,0,0,1,.56329-1.01757c.07874-.02422.1272-.11508.15142-.26044a2.91076,2.91076,0,0,1,.09692-.36947.46241.46241,0,0,0-.01818-.34525.39041.39041,0,0,1,.03635-.41792.35646.35646,0,0,0,.04239-.38765.30621.30621,0,0,1-.01211-.29679.17834.17834,0,0,0,.02423-.15747,4.24408,4.24408,0,0,1-.16354-1.25379,4.93582,4.93582,0,0,0-.0848-.78739c-.03634-.11508-.09691-.321-.1393-.46639-.0424-.1393-.09086-.25439-.11509-.25439a2.01587,2.01587,0,0,1-.23621-.43,1.17066,1.17066,0,0,1-.1696-.62386A.64134.64134,0,0,0,9.47809,6.545a3.81721,3.81721,0,0,1-.13931-1.10235,6.392,6.392,0,0,1-.03029-.93883,2.41842,2.41842,0,0,0-.06057-.60569c-.03644-.15159-.09091-.41811-.12725-.5998a1.93823,1.93823,0,0,0-.15142-.49667.542.542,0,0,1-.05452-.3089.83041.83041,0,0,0-.12113-.4361,1.34955,1.34955,0,0,1-.15143-.44215c0-.07874-.02422-.13931-.04845-.13931-.0848,0-.26045-.44216-.25439-.636a.6183.6183,0,0,0-.109-.47244A.90983.90983,0,0,0,7.661.19717a.92882.92882,0,0,1-.34524-.109C7.16429.00941,7.06132-.01482,7.03709.02152ZM5.98319,4.62477c.18776.103.28467.36947.32707.87825.01817.26651.04846.5633.06663.66626a4.55129,4.55129,0,0,0,.212,1.07813,1.97993,1.97993,0,0,1,.09085.59964,2.25862,2.25862,0,0,0,.37553,1.21138,4.93034,4.93034,0,0,1,.64809,1.95638,1.84524,1.84524,0,0,0,.109.45427,2.31483,2.31483,0,0,1,.06662.7874c-.01817.8298-.01817.8298-.09691.92065a.439.439,0,0,0-.09691.16959c-.03028.13931-.12719.1696-.33919.12114a1.55463,1.55463,0,0,1-.642-.3089c0-.01817-.07874-.05451-.17565-.07268a.30511.30511,0,0,1-.212-.14537c-.03634-.11508-.24228-.24833-.854-.55118a2.39052,2.39052,0,0,1-.96911-.86614,1.068,1.068,0,0,0-.33919-.46638,1.02643,1.02643,0,0,1-.33313-.745,1.72205,1.72205,0,0,0-.1151-.44821,1.0845,1.0845,0,0,1-.11508-.3513c-.02423-.12114-.06663-.22411-.09691-.22411-.05451,0-.15142-.23622-.13325-.321a.20581.20581,0,0,0-.07874-.13931c-.06663-.07268-.09086-.24834-.09691-.73894-.00606-.35736,0-.67838.00605-.70866.00606-.03634.01212-.26651.01212-.51484-.00606-.4361.13325-1.02968.23016-1.02968.03029,0,.06663-.05451.09085-.12113a2.04213,2.04213,0,0,1,1.00545-.60569,1.11078,1.11078,0,0,0,.46033-.24228,1.89265,1.89265,0,0,1,.29073-.23016A1.03663,1.03663,0,0,1,5.98319,4.62477Z"/>

</g>
</svg>
