<?xml version="1.0" encoding="UTF-8"?>
<svg xmlns="http://www.w3.org/2000/svg"
     version="1.1"
     width="32.80348051mm"
     height="41.32619203mm"
     viewBox="0.00000000 0.00000000 92.98624159 117.14515321">

<g transform="scale(4.29680440)">   <defs>
      <style type="text/css"><![CDATA[
      .b {
        stroke: #000;
        stroke-miterlimit: 10;
        stroke-width: .15px;
      }
    ]]></style>
   </defs>
   <path class="b"
         d="M.35189,3.1709c-.04596,.67346,.17139,.9447,.41486,1.81915,.31488,1.13116,.31653,1.98987,.31915,3.35107,.00165,.85901-.14783,1.87054-.44678,3.89362-.32495,2.1991-.4809,2.75232-.54254,4.14893-.01172,.26538-.04205,1.06085,0,2.10638,.0899,2.23474,.3692,2.0957,.31909,3.31915-.06537,1.5968-.58514,2.90778-.03632,3.68115,.05786,.08154,.26581,.35187,.35547,.46777,.46429,.60016,.69641,.90027,.82983,.98938,.52954,.35382,1.18604,.23419,1.5957,.15955,.31854-.05804,.64429-.11737,.89362-.38293,.27032-.2879,.3006-.65826,.31915-.86169,.07336-.80304,.31897-1.58783,.35107-2.39362,.06012-1.50983,.09314-.22852,.22339-3,.1969-4.18988,.03394-5.25586,.41492-7.69153,.08704-.55652,.11591-.63098,.19147-1.18085,.14221-1.03491,.34955-2.60492,.19153-4.46808-.11353-1.33832-.27783-1.21252-.41492-2.84045-.08649-1.02698-.04791-1.39227-.25531-2.10632-.0462-.159-.62231-2.08331-1.46808-2.10638-.21539-.00586-.24377,.11713-.89362,.41486-.66449,.3045-.8111,.25665-1.117,.41492C.77364,1.33057,.4034,2.41639,.35189,3.1709Z"/>
   <path class="b"
         d="M6.76674,14.91559c-.08508-.13855-.31201-.34766-.76593-.76593-.72382-.66699-.94305-.72931-1.117-.70215-.21124,.03296-.3266,.19324-.51068,.41492-.88824,1.0697-1.14319,.87988-1.56378,1.5957-.31818,.54156-.40186,1.04095-.47876,1.5-.14532,.86755,.05054,.95374-.09576,1.72345-.14508,.76324-.34717,.72833-.57446,1.69147-.14648,.62067-.17206,1.09924-.19147,1.5-.03345,.6897-.05011,1.03455,.09576,1.34039,.30011,.62909,.98737,.86908,1.14893,.92554,.93762,.32745,1.29742-.22516,2.48938,0,.66296,.12524,.57056,.2998,1.43616,.51068,.58832,.14337,.9212,.13342,2.07446,.19147,1.39905,.07043,1.2572,.1026,2.01062,.12769,1.33942,.04462,1.35242-.07147,3.12769-.09576,1.97888-.02704,2.96826-.04059,3.31915,.03192,.21368,.04419,.72833,.16302,1.34039,0,.2666-.07104,.4165-.15948,.86169-.41492,1.61658-.92743,1.745-.9682,1.91492-1.24469,.05334-.08685,.36255-.60712,.25531-1.27655-.01685-.10522-.13489-.84198-.70215-1.14899-.30048-.1626-.53693-.10181-1.21277-.06378-.06616,.00372-.59729,.0025-1.65955,0-1.56781-.00366-1.74622-.08459-2.42554,.03186-.13995,.02399-.01068,.00653-1.08508,.25537-1.13611,.26306-1.38068,.30573-1.72345,.28723-.40442-.02185-.36346-.09735-1.08508-.22345-.77435-.13531-.91205-.06415-1.59576-.15955-.95984-.13397-1.45221-.2027-1.88293-.57446-.3667-.31653-.49976-.70038-.76599-1.46808-.31281-.90204-.39374-1.68298-.41486-1.91492-.10748-1.18103,.11835-1.51788-.22345-2.07446Z"/>

</g>
</svg>
