<?xml version="1.0" encoding="UTF-8"?>
<svg xmlns="http://www.w3.org/2000/svg"
     version="1.1"
     width="26.77163880mm"
     height="35.44827342mm"
     viewBox="0.00000000 0.00000000 75.88804325 100.48323522">

<g transform="scale(5.10555451)">   <defs>
      <style type="text/css"><![CDATA[
      .a {
        stroke: #000;
        stroke-linecap: round;
        stroke-linejoin: round;
        stroke-width: 0.01px;
      }
    ]]></style>
   </defs>
   <path class="a"
         d="M3.93027.05318a.35915.35915,0,0,1-.17565.07268A5.5169,5.5169,0,0,0,2.17982,1.422c-.68443.69049-.78134.854-.82374,1.4052a5.54389,5.54389,0,0,0,.11513,2.51362,2.8831,2.8831,0,0,1,.16354.82979,1.30265,1.30265,0,0,0,.05451.30285,1.55315,1.55315,0,0,1,.06057.44821.69151.69151,0,0,0,.04845.3089,1.02414,1.02414,0,0,1,.0848.321,1.47174,1.47174,0,0,0,.06663.29679,2.56922,2.56922,0,0,1,.06057.33919,4.48787,4.48787,0,0,0,.09085.49666.678.678,0,0,1,.01211.3937.70433.70433,0,0,0-.006.37553.7114.7114,0,0,1,.01817.3089.44472.44472,0,0,0,.0424.26045.31547.31547,0,0,1,.00605.30285,1.0984,1.0984,0,0,0,.17565.84191c.06663.07874.103.17565.0848.20593s.03634.12114.12114.19988c.13931.12719.14536.16354.08479.34524a1.60967,1.60967,0,0,0-.06056.321c0,.46638-.26045,1.24167-.41187,1.24167-.03029,0-.109.103-.17565.23016a.96553.96553,0,0,1-.39976.37553,2.78346,2.78346,0,0,0-.90854.76317.9283.9283,0,0,1-.32707.26044.76959.76959,0,0,0-.3513.67232,2.58184,2.58184,0,0,0,.49061.98122.45666.45666,0,0,0,.23622.109.43808.43808,0,0,1,.24227.14536,1.05652,1.05652,0,0,0,.58752.23622c.424.07874.46639.07268.636-.03028a.52426.52426,0,0,1,.37553-.07269.52449.52449,0,0,0,.39975-.09085c.18777-.11508.212-.11508.33919-.03029a.85893.85893,0,0,0,.35736.12114,4.30072,4.30072,0,0,1,.89037.18777,4.91892,4.91892,0,0,0,1.3628.103l.93882-.01211.18171-.212c.29073-.33313.38764-.35736.848-.25439a1.16128,1.16128,0,0,0,.46032.05451,2.48555,2.48555,0,0,1,.92671-.02423.44954.44954,0,0,0,.23622.00606,2.08271,2.08271,0,0,1,.636.06663,5.15664,5.15664,0,0,0,.7874.109.49415.49415,0,0,1,.40581.14537c.14537.14536.14537.17565.11509.745-.01817.32707-.03635.68443-.04846.79345a.99914.99914,0,0,0,.49667.77529.3687.3687,0,0,0,.36947-.01817c.103-.05452.18776-.11509.18776-.14537s.11508-.109.26045-.17565a1.42691,1.42691,0,0,0,.4361-.37553,5.92551,5.92551,0,0,1,.3937-.46638,1.51626,1.51626,0,0,0,.37553-.81163,1.474,1.474,0,0,1,.1393-.36947,1.87689,1.87689,0,0,0,.15143-.38158,1.24782,1.24782,0,0,1,.212-.32708.77223.77223,0,0,0,.19988-.41792,1.45272,1.45272,0,0,1,.103-.424,1.65472,1.65472,0,0,0,.05452-1.0963.81846.81846,0,0,1-.0848-.321.26251.26251,0,0,0-.06663-.19383.5971.5971,0,0,1-.14536-.23016,2.97171,2.97171,0,0,0-.36342-.52089c-.15142-.18171-.3513-.41793-.44215-.527-.18171-.212-.44821-.35736-.55724-.29074-.03634.02423-.13325-.00605-.2241-.06056a.254.254,0,0,0-.29073-.0424.22784.22784,0,0,1-.26045-.01817c-.06057-.04846-.13325-.07269-.15142-.05452a1.5322,1.5322,0,0,1-.39976.05452c-.60569.03634-.76923-.18777-.73894-1.02968.00605-.19988.01211-.41793.01211-.48455s0-.18777-.00606-.27256a1.23936,1.23936,0,0,1,.04846-.36947.46505.46505,0,0,0-.01211-.34525,1.76949,1.76949,0,0,1-.05452-.56935c.01212-.24227.01817-.56329.02423-.71471a1.31547,1.31547,0,0,1,.0848-.43.696.696,0,0,0,.08479-.27256c.00606-.06057.00606-.15748.00606-.20594a1.28133,1.28133,0,0,0-.04845-.3089.508.508,0,0,1-.00606-.30285.20676.20676,0,0,0,0-.16959.74173.74173,0,0,1-.03653-.30888,1.25646,1.25646,0,0,0-.06663-.41793,2.10916,2.10916,0,0,1-.109-.55118,1.28316,1.28316,0,0,0-.06663-.424,1.38816,1.38816,0,0,1-.07268-.38159,3.02657,3.02657,0,0,0-.20594-.73288,4.82032,4.82032,0,0,1-.19987-.50273,1.72926,1.72926,0,0,0-.109-.27256c-.05451-.109-.17565-.3937-.27256-.62386-.19988-.49667-.34524-.7026-.59358-.83585-.15748-.07874-.23622-.07874-.55723-.01212a.996.996,0,0,0-.78134.50273,2.04576,2.04576,0,0,1-.29074.424.92266.92266,0,0,0-.218.40581,1.49832,1.49832,0,0,1-.1817.47244,1.72415,1.72415,0,0,0-.18171.46638,2.44057,2.44057,0,0,1-.12719.47244,7.63075,7.63075,0,0,0-.3272,1.23561c-.03028.1696.0424.35736.32708.86614.14536.26045.16353.32707.11508.53907a.66593.66593,0,0,0,.03634.46032,3.32745,3.32745,0,0,1,.15142.45427,4.877,4.877,0,0,0,.29679.69654c.315.61175.33313.72683.2241,1.12053a.85261.85261,0,0,0,.00606.67838,3.68592,3.68592,0,0,1,.14537.89642,2.02428,2.02428,0,0,1-.06663.424.35755.35755,0,0,0,.03029.19382c.08479.25439-.212.642-.44822.58147a.80418.80418,0,0,0-.321.03028c-.15748.0424-.24228.0424-.32707-.01817a.19468.19468,0,0,0-.19988-.03028.20674.20674,0,0,1-.15748.01817.92.92,0,0,0-.36947.11508c-.30285.14536-.58752.16959-.69049.06662a.78016.78016,0,0,1-.109-.56935.29808.29808,0,0,0-.03634-.23621.767.767,0,0,1-.05451-.39976c.05451-.55724.09085-.92671.11508-1.25378a1.32235,1.32235,0,0,1,.12114-.50272A.22359.22359,0,0,0,5.62014,9.726.61844.61844,0,0,1,5.608,9.35051a2.6017,2.6017,0,0,0,.0424-.533A.95523.95523,0,0,1,5.711,8.42382c.06057-.09692.06057-.23622.02423-.54513-.03029-.23622-.05452-.46638-.05452-.51483s0-.26045.00606-.47244a.9664.9664,0,0,0-.09085-.50273.3196.3196,0,0,1-.03029-.3089.44516.44516,0,0,0,.01212-.24833A2.98583,2.98583,0,0,1,5.493,4.71093a2.49913,2.49913,0,0,0-.13931-.99333,1.72111,1.72111,0,0,1-.12719-.5633,4.719,4.719,0,0,0-.20594-1.29011.489.489,0,0,1-.0303-.29679,1.6807,1.6807,0,0,0-.103-.95093C4.74189.31968,4.52384.05923,4.40271.04712,4.35421.041,4.24521.029,4.16043.01078A.322.322,0,0,0,3.93027.05318Z"/>

</g>
</svg>
