<?xml version="1.0" encoding="UTF-8"?>
<svg xmlns="http://www.w3.org/2000/svg"
     version="1.1"
     width="14.39937834mm"
     height="34.88402993mm"
     viewBox="0.00000000 0.00000000 40.81717035 98.88390304">

<g transform="scale(3.99403596)">   <defs>
      <style type="text/css"><![CDATA[
      .a {
        stroke: #000;
        stroke-linecap: round;
        stroke-linejoin: round;
        stroke-width: 0.01px;
      }
    ]]></style>
   </defs>
   <path class="a"
         d="M5.9441.05951A2.21542,2.21542,0,0,1,5.4717.108a.7011.7011,0,0,0-.40582.103c-.05451.04842-.12113.07261-.15142.05448C4.866.23516,4.6601.41687,4.38751.74394A2.88768,2.88768,0,0,1,4.08466.9741c-.13931.103-.23622.212-.218.24228.04239.06663-.321.424-.65415.642-.1272.0848-.23016.17565-.23016.20594,0,.16959-.73895.6602-.99939.6602a1.55051,1.55051,0,0,0-.39976.315,6.65488,6.65488,0,0,1-.8601.68442c-.5209.34524-.55724.38159-.636.66626A1.61069,1.61069,0,0,0,.14162,5.54707c.07268.14537.52089.34524.6178.28468a8.348,8.348,0,0,1,1.811-.06057c.109.03028.18776.12719.28467.34524a1.81471,1.81471,0,0,1,.109,1.06.63618.63618,0,0,0,.06662.45427c.09086.14536.103.315.15142,1.78679a13.02537,13.02537,0,0,1-.115,1.33853.62851.62851,0,0,0,.03634.32708,11.87872,11.87872,0,0,1,.04846,2.58024c0,.24833.03028.34524.13325.44821a.30114.30114,0,0,1,.09086.34525,4.36185,4.36185,0,0,0-.06663,1.50211,4.46022,4.46022,0,0,1,.03028,1.15687,1.87142,1.87142,0,0,0,.00606.48455.73694.73694,0,0,1-.01817.41793,22.58456,22.58456,0,0,0-.09085,3.33133,1.45636,1.45636,0,0,1-.03635.48455,1.05588,1.05588,0,0,0-.04845.67232.39193.39193,0,0,1-.01817.32707,3.46706,3.46706,0,0,0-.15748,1.31435c.12719.44216.23622.54512.61175.58752.3513.0424.54512.00606.54512-.09085a.75265.75265,0,0,1,.16959-.23622,1.75082,1.75082,0,0,0,.39976-.79951,2.71138,2.71138,0,0,1,.29679-.55118c.37553-.55724.56329-1.03573.47849-1.2235a.51772.51772,0,0,1-.03634-.28467,6.25281,6.25281,0,0,0,.23622-1.702c-.01211-.33919.00606-.43.09691-.51484.11508-.109.11508-.36947.02423-1.64748-.04846-.69655-.04846-.848.01817-.92671a.32688.32688,0,0,0,.0424-.2241.43128.43128,0,0,1,.06662-.29074,1.24455,1.24455,0,0,0,.109-.48455,1.40387,1.40387,0,0,1,.04845-.40581.77722.77722,0,0,0-.00605-.315.57207.57207,0,0,1,0-.32707.21331.21331,0,0,0-.00606-.18171c-.0424-.07268-.02423-.14537.05451-.24228.103-.13325.12114-.39975.06663-1.02362a.669.669,0,0,1,.01817-.212.54383.54383,0,0,0-.05451-.27862c-.07269-.14536-.06663-.1817.03634-.3089.09691-.12719.11508-.25439.11508-.87219.00606-.3937.00606-.89643,0-1.11447A3.88283,3.88283,0,0,1,6.34386,9.799c.03634-.2241.02423-.30284-.04845-.38158-.09086-.09086-.07874-.27256.01211-.27256.05451,0,.05451.03028.0848-.957a5.18577,5.18577,0,0,1,.06662-.84191c.01817-.01817.00606-.07268-.03028-.12113-.23622-.27862.08479-.83586.33919-.58753a.82458.82458,0,0,0,.38764.1272A.45317.45317,0,0,0,7.6401,6.607a.69867.69867,0,0,1,.27862-.18776.31406.31406,0,0,0,.18776-.15143,1.51886,1.51886,0,0,1,.36342-.315.899.899,0,0,0,.2665-.212.69156.69156,0,0,1,.15142-.20593A.79541.79541,0,0,0,9.03925,5.335a.7727.7727,0,0,1,.14536-.19382,1.1413,1.1413,0,0,0,.212-.37553.84811.84811,0,0,1,.1272-.25439A2.05684,2.05684,0,0,0,9.85694,3.736a.57208.57208,0,0,1,.09691-.26044c.03634-.04846.05451-.103.03634-.1272-.02423-.01817-.00606-.09085.03029-.16353a.69228.69228,0,0,0,.07874-.18777,1.48754,1.48754,0,0,1,.07874-.27862c.103-.29073-.02423-.67837-.22411-.69048a.21822.21822,0,0,1-.218-.27862c.0424-.13325-.2665-.26045-.50878-.20594-.212.0424-.23016.06663-.27256.28468a.84675.84675,0,0,1-.59358.5754c-.36341.03029-.47244-.03028-.61175-.33313a3.46315,3.46315,0,0,0-.29073-.49666A4.25287,4.25287,0,0,1,6.9193.5804C6.91324.45321,6.7073.26545,6.42869.13219A1.50775,1.50775,0,0,0,6.12584.005,1.33821,1.33821,0,0,0,5.9441.05951Z"/>

</g>
</svg>
