<?xml version="1.0" encoding="UTF-8"?>
<svg xmlns="http://www.w3.org/2000/svg"
     version="1.1"
     width="32.38419405mm"
     height="13.77958227mm"
     viewBox="0.00000000 0.00000000 91.79774263 39.06025235">

<g transform="scale(4.26612454)">   <defs>
      <style type="text/css"><![CDATA[
      .a {
        stroke: #000;
        stroke-linecap: round;
        stroke-linejoin: round;
        stroke-width: 0.01px;
      }
    ]]></style>
   </defs>
   <path class="a"
         d="M2.57021.114a1.56411,1.56411,0,0,0-.642.90854,1.601,1.601,0,0,1-.33918.56935,1.03626,1.03626,0,0,0-.23017.30285.96067.96067,0,0,1-.23622.28467,2.58666,2.58666,0,0,0-.424.56329c-.15748.30891-.16959.36947-.11508.60569a1.70694,1.70694,0,0,1,.03028.86614A1.89094,1.89094,0,0,1,.317,4.578a.71041.71041,0,0,0-.27257.5754,2.955,2.955,0,0,0,.1272,1.45972A.567.567,0,0,1,.1959,7.031c-.06057.18776.01817.35735.315.66626a1.98387,1.98387,0,0,0,.83585.48455,1.1947,1.1947,0,0,1,.3513.09691c.321.13931.67232.17565.7874.07874a7.07265,7.07265,0,0,1,1.64748-.09691c1.96244-.02423,2.04723-.03029,2.344-.1696a2.7052,2.7052,0,0,1,1.12053-.12113C8.082,7.96376,8.62714,7.93953,8.8149,7.9153a1.1621,1.1621,0,0,1,.6178.04846,1.93238,1.93238,0,0,0,.95094.07268c.2665-.0424,2.48939-.02422,3.81585.03029a2.79446,2.79446,0,0,0,.54513-.05451,3.03243,3.03243,0,0,1,.60569-.03635c.15142.01817.45426.03635.67231.04846a2.99972,2.99972,0,0,1,.60569.09085,7.01886,7.01886,0,0,0,1.13265.24834,2.17141,2.17141,0,0,1,.93276.47849.94716.94716,0,0,0,.65415.3089,2.81487,2.81487,0,0,0,1.65959-1.29012,1.2973,1.2973,0,0,1,.29073-.34524c.02423,0,.04846-.06057.04846-.13931a.55152.55152,0,0,1,.09691-.27256.38783.38783,0,0,0,.06057-.30285,3.24216,3.24216,0,0,1-.09086-.44821,1.29963,1.29963,0,0,0-.20593-.24227,3.51726,3.51726,0,0,1-.28468-.321,2.28784,2.28784,0,0,0-.9691-.58752,1.1264,1.1264,0,0,0-.424.03028,12.88373,12.88373,0,0,1-2.57418.07269,8.76407,8.76407,0,0,0-1.5748-.0424c-.39976.006-.78134.006-.848,0a3.30394,3.30394,0,0,0-1.23561.26045,2.22972,2.22972,0,0,1-1.12658.19987,5.61349,5.61349,0,0,0-.79346.05452,1.63524,1.63524,0,0,1-.44821-.05452,7.03546,7.03546,0,0,0-.9691-.08479c-.315,0-.61781-.00606-.66626-.01212a2.57252,2.57252,0,0,0-.51484.06057,7.83942,7.83942,0,0,1-2.48936-.07874A.42968.42968,0,0,0,6.00447,5.541a2.03715,2.03715,0,0,1-.55117-.06057,7.22475,7.22475,0,0,0-.72078-.11508,2.82578,2.82578,0,0,1-1.30223-.6057,1.60522,1.60522,0,0,1-.19382-.32707c-.06663-.15748-.05452-.212.05451-.3937a1.35178,1.35178,0,0,0,.15748-.45427,1.499,1.499,0,0,1,.04845-.29073,3.49076,3.49076,0,0,0-.109-.90853,1.01276,1.01276,0,0,1,.06057-.43.438.438,0,0,0,.02423-.41187,1.63722,1.63722,0,0,1-.09086-.41793C3.34549.62886,3.04264.005,2.84882.005A1.02126,1.02126,0,0,0,2.57021.114Z"/>

</g>
</svg>
