<?xml version="1.0" encoding="UTF-8"?>
<svg xmlns="http://www.w3.org/2000/svg"
     version="1.1"
     width="15.79060926mm"
     height="30.84453935mm"
     viewBox="0.00000000 0.00000000 44.76080366 87.43330446">

<g transform="scale(7.37785852)">   <defs>
      <style type="text/css"><![CDATA[
      .a {
        stroke: #000;
        stroke-linecap: round;
        stroke-linejoin: round;
        stroke-width: 0.01px;
      }
    ]]></style>
   </defs>
   <path class="a"
         d="M4.1237.34419a1.31308,1.31308,0,0,1-.4361.45427c-.12719.06662-.23016.1393-.23016.16959a7.007,7.007,0,0,1-.62386.68443A5.79212,5.79212,0,0,0,1.67065,3.15459a1.67707,1.67707,0,0,1-.30285.62992.69755.69755,0,0,0-.15142.29073,2.72349,2.72349,0,0,1-.212.50878,2.21654,2.21654,0,0,0-.212.533.65158.65158,0,0,1-.20594.3089,1.15859,1.15859,0,0,0-.27861.44216.60734.60734,0,0,1-.18171.315C.01106,6.24362.005,6.3163.005,7.49134V8.73906l.18171.18777a4.52657,4.52657,0,0,0,1.13264,1.0115.75133.75133,0,0,1,.321.24228c.06056.11508.04239.15748-.20594.39976-.36341.3513-.52089.44215-.76317.47243a.39872.39872,0,0,0-.30285.16354,1.685,1.685,0,0,1-.19987.25439c-.06057.06057-.103.12114-.09086.1272s.09086.06662.18171.1393a.80658.80658,0,0,0,.76317.02423.637.637,0,0,1,.23622-.06662,1.3163,1.3163,0,0,0,.45427-.321,7.19952,7.19952,0,0,1,1.26589-1.0115c.03029,0,.09691-.0848.14537-.18777A5.6248,5.6248,0,0,1,4.12976,9.14488c.03028-.00606.08479-.01212.11508-.01817.109-.01212.28467-.36947.33313-.67232A1.69674,1.69674,0,0,1,4.71122,7.982a1.22219,1.22219,0,0,0,.109-.35736.63165.63165,0,0,1,.12114-.29073.54989.54989,0,0,0,.09086-.3089V6.64943a.49614.49614,0,0,1,.212-.36947c.19988-.18777.212-.218.17565-.44821A1.00109,1.00109,0,0,1,5.48045,5.323a1.23071,1.23071,0,0,0,.09085-.38159,2.8524,2.8524,0,0,1,.11508-.83585.89613.89613,0,0,0,.09691-.23622.37884.37884,0,0,1,.15748-.23016c.109-.06057.12114-.1272.12114-.87826,0-.73288-.01211-.81768-.11508-.87219a.422.422,0,0,1-.15748-.16959,4.71085,4.71085,0,0,1-.16959-.848,1.56042,1.56042,0,0,0-.315-.49667L5.002.005H4.66882L4.33569.01106ZM3.518,2.85175c.12114.12114.12719.14536.24227.76923a6.90767,6.90767,0,0,0,.18777.75711,1.4132,1.4132,0,0,1,.09085.65415c-.01817.15142-.0424.44215-.05451.64808a.98435.98435,0,0,1-.09085.45427.30507.30507,0,0,0-.07269.19382,2.15061,2.15061,0,0,1-.212.54513,2.21177,2.21177,0,0,0-.212.56935,1.75212,1.75212,0,0,1-.36947.91459l-.17565.19382L2.555,8.38776c-.35736-.19382-.75106-.75711-.69655-.99939A7.98872,7.98872,0,0,0,1.913,6.58886,5.3446,5.3446,0,0,1,1.9735,5.8802a1.40513,1.40513,0,0,0,.103-.60569,1.63409,1.63409,0,0,1,.11508-.51484c.06057-.13325.18171-.47849.27257-.77528a1.98909,1.98909,0,0,1,.38158-.78134C3.33024,2.65793,3.32419,2.65793,3.518,2.85175Z"/>

</g>
</svg>
