<?xml version="1.0" encoding="UTF-8"?>
<svg xmlns="http://www.w3.org/2000/svg"
     version="1.1"
     width="86.38726705mm"
     height="76.36610522mm"
     viewBox="0.00000000 0.00000000 244.87736857 216.47093360">

<g transform="scale(4.85881581)">   <defs>
      <style type="text/css"><![CDATA[
      .a {
        stroke: #000;
        stroke-linecap: round;
        stroke-linejoin: round;
        stroke-width: 0.01px;
      }
    ]]></style>
   </defs>
   <path class="a"
         d="M10.6927.108a.48873.48873,0,0,1-.218.212c-.103.06057-.1817.15142-.1817.21805a.558.558,0,0,1-.12114.27256.55271.55271,0,0,0-.12114.27862.42215.42215,0,0,1-.13325.24833c-.11508.109-.13931.19988-.15142.60569-.01818.56329.109.86008.43.99333a.84034.84034,0,0,1,.36341.40582,3.01181,3.01181,0,0,0,.29073.45427.57768.57768,0,0,1,.13325.29073.59134.59134,0,0,0,.0424.1817c.01212.00606.15143.109.30891.218.45426.321.54512.51484.533,1.169a1.80218,1.80218,0,0,1-.34524.92065c-.07268.05451-.07874.09691-.03029.18776.07874.15142,0,.29679-.23016.41793-.103.05451-.1817.07874-.1817.06057,0-.02423-.06057.00605-.13326.05451a.43578.43578,0,0,1-.6057-.06052c-.07874-.0848-.2241-.24228-.33313-.35736-.18171-.19988-.18776-.212-.103-.43609.18777-.533.06663-.8722-.5754-1.56269a.85649.85649,0,0,1-.24834-.49666c0-.06057-.09691-.17565-.218-.26045a3.8475,3.8475,0,0,1-.53907-.43c-.03028-.0424-.218-.23016-.40581-.43-.33313-.33919-.35736-.3513-.66626-.3513-.30285,0-.32708.01211-.60569.315a1.01822,1.01822,0,0,0-.321.59357c-.06057.4361-.0848.533-.17565.62387a2.33831,2.33831,0,0,0-.52089.95093c0,.20593.16959.54512.2665.54512a1.6322,1.6322,0,0,1,.38159.19382c.23621.14537.33918.24834.38764.41187a.767.767,0,0,0,.17565.28468.5919.5919,0,0,1,.17565.25439.32718.32718,0,0,0,.24833.20593,1.80651,1.80651,0,0,1,.50878.36947,3.37541,3.37541,0,0,1,.76317,1.08419l.12114.22411-.34524.3937c-.19382.212-.46033.527-.59358.69654s-.33919.41187-.45427.54512c-.50272.55118-.56935.642-.58146.745-.01212.15748-.24833.38764-.61781.59964-.28467.16353-.33918.17565-.49061.109a.527.527,0,0,0-.43609.01817c-.218.07268-.27256.1272-.315.29073a.9239.9239,0,0,0,.04845.61175c.03029.07874-.02423.16354-.212.33313-.13325.1272-.41187.38159-.60569.56935-.19988.18777-.4785.43-.62992.54512a1.86433,1.86433,0,0,0-.39976.43,1.18984,1.18984,0,0,1-.2665.33313.69107.69107,0,0,0-.18776.24834c-.0424.14536-.1696.218-.47244.28467a1.16946,1.16946,0,0,0-.424.29073c-.23016.23017-.25439.27862-.24227.52695a.49583.49583,0,0,0,.52089.533.57238.57238,0,0,1,.64809.4785.92515.92515,0,0,0,.23016.34524,1.49746,1.49746,0,0,1,.315.53907.64789.64789,0,0,0,.13325.28467c.02423,0,.0848.07269.13326.16354a1.812,1.812,0,0,0,.43609.41793,1.00684,1.00684,0,0,1,.424.44821.87762.87762,0,0,0,1.04784.48455.94048.94048,0,0,0,.32708-.30285l.15142-.23622-.109-.3513a1.36781,1.36781,0,0,1-.0848-.41187A4.08845,4.08845,0,0,1,6.895,18.17573a3.07956,3.07956,0,0,0,.7874-.44215,1.81091,1.81091,0,0,1,.60569-.527.6839.6839,0,0,0,.26045-.23621c.07268-.13326.30284-.27862.90853-.57541a8.70742,8.70742,0,0,1,.88431-.39976c.22411,0,.33919.46638.1696.69655-.07269.09691-.07269.13325.00605.24833.09691.15142.06663.3513-.11508.70866-.06057.12719-.09691.26045-.07268.29679a1.7119,1.7119,0,0,1,.09085.55723.60682.60682,0,0,0,.06663.24228,2.16233,2.16233,0,0,1,.08479,1.02967c-.03634.23622-.109.26651-.55723.23017-.26651-.01817-.38764-.00606-.38764.0424,0,.03634.09085.06662.19987.06662.44822,0,.99939.212,1.04785.39976a4.79615,4.79615,0,0,0,.41187.95093.41755.41755,0,0,1,.07874.29679,1.66754,1.66754,0,0,0,.24228.957.79512.79512,0,0,1,.13931.30891c0,.09085.30284.39369.70865.7026.23017.17565.3937.44821.33313.54512a1.194,1.194,0,0,1-.2665.16959c-.1272.05451-.23016.13325-.23016.16354a2.70294,2.70294,0,0,1-.86614.76317,2.86177,2.86177,0,0,0-.84191.73894c-.01212.03634-.09086.07874-.18171.0848a.47469.47469,0,0,0-.26045.12114.5796.5796,0,0,1-.24833.13325c-.07874.01817-.14537.05451-.14537.0848a.762.762,0,0,1-.15142.218,3.93625,3.93625,0,0,0-.27862.36948c-.06662.109-.15142.19987-.1817.19987a.87159.87159,0,0,0-.212.315,1.56414,1.56414,0,0,1-.24228.36948.45864.45864,0,0,0-.11508.27256,1.27672,1.27672,0,0,1-.61781.92065,1.09762,1.09762,0,0,0-.41187.41187c-.04845.103-.11508.19382-.14536.19382-.03634,0-.06663.05451-.06663.12719a.73535.73535,0,0,1-.09085.28468,6.26209,6.26209,0,0,0-.27256.67837,2.682,2.682,0,0,1-.24228.54512.43933.43933,0,0,0-.09085.23622.80433.80433,0,0,1-.07269.26651,2.415,2.415,0,0,0-.23016.73894,1.787,1.787,0,0,1-.3513.76923c-.07268.04845-.09085.33918-.03634.745a.89139.89139,0,0,1-.02423.424,1.10982,1.10982,0,0,0-.0848.33313c-.00605.11508-.03028.33919-.05451.49061a1.60766,1.60766,0,0,0,.02423.4906.56093.56093,0,0,1,.01211.29679.20638.20638,0,0,0,.00606.18776.3769.3769,0,0,1-.03028.315c-.04846.11508-.07269.22411-.05452.23622a.53769.53769,0,0,1,.0424.212,1.13537,1.13537,0,0,0,.18171.43.57049.57049,0,0,1,.13931.32708.18068.18068,0,0,0,.01817.15747.58216.58216,0,0,1-.01212.30285,5.20543,5.20543,0,0,0-.08479.64809c-.03029.41793-.02423.44216.15142.642a1.092,1.092,0,0,0,1.07813.27863,1.69621,1.69621,0,0,0,.92671-1.06.44364.44364,0,0,1,.19988-.23622,2.0563,2.0563,0,0,0,.76922-1.13264,1.14323,1.14323,0,0,1,.1272-.41792.5396.5396,0,0,0,.07874-.40582,2.74063,2.74063,0,0,1-.109-.73288,2.1958,2.1958,0,0,0-.15748-.62387c-.17565-.38763-.218-.86008-.2665-2.92548-.01817-.76923-.0424-1.01151-.12114-1.12659-.09691-.15142-.07874-.3513.03634-.3513.03635,0,.04846-.07268.02423-.18171a.70052.70052,0,0,1,.01817-.321.25043.25043,0,0,0-.05451-.27256c-.109-.1272-.109-.14538,0-.4361a1.338,1.338,0,0,1,.20594-.3937.25983.25983,0,0,0,.06056-.24833c-.09085-.3513.72078-1.24167,1.39309-1.54452.15748-.06662.26651-.14536.24834-.17565s.03634-.12113.12719-.19382c.0848-.07874.22411-.19988.30285-.27256a.88468.88468,0,0,1,.315-.18171,1.00548,1.00548,0,0,0,.58752-.38158.42214.42214,0,0,1,.2241-.18777,3.38769,3.38769,0,0,0,.49061-.27861,1.29339,1.29339,0,0,1,.39976-.19988c.05451,0,.14536-.07874.20593-.17565a1.50775,1.50775,0,0,1,.69655-.58753c.09085-.02422.41187-.12113.72077-.218.533-.16959.55724-.1817.64809-.41793a.77878.77878,0,0,0,.06663-.3634.92359.92359,0,0,1,.12719-.46638c.14537-.315.20594-.642.12114-.72078-.01817-.01817-.00606-.08479.02423-.13931a1.02687,1.02687,0,0,0,.03028-.79952A.65223.65223,0,0,1,15.623,21.507a2.84108,2.84108,0,0,0-.27862-.69049,1.91781,1.91781,0,0,1-.24228-.62386c.01817-.04845-.06662-.18776-.20593-.33919a.96972.96972,0,0,1-.30285-.98122c.06057-.26044.04846-.3089-.11508-.59963a3.4826,3.4826,0,0,1-.34524-1.49,1.77679,1.77679,0,0,0-.0848-.36947.18681.18681,0,0,1,.02423-.20594.59938.59938,0,0,0,.05451-.35735.59128.59128,0,0,1,.13325-.48456c.26651-.3937.29073-.50272.14537-.7026a.72928.72928,0,0,1-.14537-.315,1.64335,1.64335,0,0,0-.08479-.30284c-.06057-.16354-.03635-.3513.04845-.3513.07874,0,.18777-.29679.18777-.49667a1.85476,1.85476,0,0,1,.43609-.82374.11381.11381,0,0,0,.04846-.103.6673.6673,0,0,1,.14536-.25439,1.02431,1.02431,0,0,0,.18171-.321c.09086-.32708.24228-.60569.33919-.636a.94451.94451,0,0,0,.2665-.18171c.13931-.12719.16354-.20593.18777-.66626.0424-.71471-.04846-.87825-.47244-.87825-.23016,0-.30285.04846-.66021.46033-.05451.06057-.13325.13931-.16353.17565a2.20981,2.20981,0,0,0-.56935.73894c.07268.18171-.109.43-.38159.533a.546.546,0,0,0-.3513.29073,1.3996,1.3996,0,0,1-.44821.533,2.99445,2.99445,0,0,0-.36947.44215,1.87214,1.87214,0,0,1-.69049.62992,3.01174,3.01174,0,0,0-.40581.25439.91.91,0,0,1-.28468.15142.663.663,0,0,0-.28467.18171,2.96452,2.96452,0,0,1-.8722.51484,2.13272,2.13272,0,0,0-.46638.30284,1.81256,1.81256,0,0,1-.51484.30285.24142.24142,0,0,0-.1817.11508A.33515.33515,0,0,1,8.706,15.117a1.40075,1.40075,0,0,0-.3513.20594c-.76318.5754-1.13265.79345-1.32647.79345-.13325,0-.18171.05451-.218.25439-.03634.16354-.12113.218-.43609.26651-.14537.01817-.26045.06056-.26045.08479,0,.04846-.24228.15748-.49667.21805-.12719.03029-.20593-.00606-.38158-.16959-.12114-.109-.28468-.26045-.36342-.33313-.13325-.11508-.13931-.14537-.07268-.315a.662.662,0,0,0-.0424-.51484c-.15142-.4361-.103-.57541.23622-.75711a1.22932,1.22932,0,0,0,.3937-.33919,3.507,3.507,0,0,1,.69654-.69049,2.43249,2.43249,0,0,0,.23017-.24227.49738.49738,0,0,1,.30284-.18777c.09086,0,.23016-.109.40582-.315a1.948,1.948,0,0,1,.89642-.7026,3.25087,3.25087,0,0,0,.745-.49667A4.3105,4.3105,0,0,1,9.56006,11.18a3.23027,3.23027,0,0,0,.76317-.55724,1.055,1.055,0,0,1,.38764-.23016c.103-.02423.18777-.06663.18777-.09691a.44193.44193,0,0,1,.12719-.18171,1.81316,1.81316,0,0,0,.27256-.45427,1.13406,1.13406,0,0,1,.34525-.46032,1.22645,1.22645,0,0,0,.34524-.3937c.0848-.15748.19382-.27862.27862-.29679a.65569.65569,0,0,0,.40581-.45427.39631.39631,0,0,1,.17565-.218l.13931-.06056-.15142-.07874c-.218-.11509-.24228-.18171-.13931-.38159a.34907.34907,0,0,0,.01817-.3513c-.07268-.17565-.03028-.41793.218-1.11447a1.51386,1.51386,0,0,0,.0848-.34525.30708.30708,0,0,1,.07874-.1817.61812.61812,0,0,0,.13325-.26045,9.03911,9.03911,0,0,0,.01817-1.93821,1.908,1.908,0,0,0-.33919-.62992.184.184,0,0,1-.04845-.16959,1.05533,1.05533,0,0,0-.06663-.43,1.70733,1.70733,0,0,1-.0848-.4785.20392.20392,0,0,0-.07268-.18171.91456.91456,0,0,1-.218-.3089.64646.64646,0,0,0-.29679-.321C11.9162.526,11.86774.44726,11.86774.19893V.005h-.56935C10.80778.005,10.723.01711,10.6927.108Z"/>
   <path class="a"
         d="M16.40437,3.24545a1.29456,1.29456,0,0,1-.26651.0424,2.18742,2.18742,0,0,0-.53906.12113.88672.88672,0,0,1-.34524.07269c-.03029-.01817-.11509.02422-.18777.09691a.87729.87729,0,0,1-.26045.15748c-.07268.01817-.18776.17565-.29073.37553-.19382.39369-.19382.424-.07874.6602a2.25,2.25,0,0,1,.12114.2665.80539.80539,0,0,0,.321.26651.64192.64192,0,0,0,.61175.103c.3513-.07268.34524-.07268,1.24772.34525a1.92368,1.92368,0,0,1,.87219.69654,4.00374,4.00374,0,0,0,.55724.56329c.103.05452.18171.1272.18171.15748a2.6026,2.6026,0,0,0,.59357.58752,1.04989,1.04989,0,0,1,.22411.29074,2.4742,2.4742,0,0,0,.315.41792.41846.41846,0,0,1,.13931.24834c0,.06057.12114.19987.2665.315a.96675.96675,0,0,1,.4361.69654,2.35053,2.35053,0,0,0,.56329.81768c.06663,0,.218.35736.1696.39976-.01817.01817.01817.0848.07874.14537a.5111.5111,0,0,1,.109.41187.94117.94117,0,0,0,.103.46032.97644.97644,0,0,1,.12719.38764,4.90127,4.90127,0,0,0,.13931.69049,2.87957,2.87957,0,0,0,.67838,1.21744,1.23975,1.23975,0,0,1,.1817.40581,4.32332,4.32332,0,0,0,.93882,1.56874.56415.56415,0,0,1,.23622.26651,1.15652,1.15652,0,0,0,.29679.36341,1.21353,1.21353,0,0,1,.36947.50878,1.9939,1.9939,0,0,0,.315.5209,1.126,1.126,0,0,1,.19988.27256,5.13386,5.13386,0,0,0,1.0115,1.00544.69143.69143,0,0,1,.26651.26651c.16354.26044.212.30284.41793.3513a2.20006,2.20006,0,0,1,.72682.33919,3.14837,3.14837,0,0,0,.848.79345,3.355,3.355,0,0,1,.424.13931,3.19186,3.19186,0,0,0,2.10174-.14537,1.30545,1.30545,0,0,1,.92671-.03634c.17565.07269.26045.07874.35736.03029a.79584.79584,0,0,1,.67232.02422.83807.83807,0,0,0,.34524.09086,11.7781,11.7781,0,0,1,1.29012,0,3.98064,3.98064,0,0,0,.7874-.02423,2.66722,2.66722,0,0,1,.95093.02423,1.41656,1.41656,0,0,0,.44217.03028,9.99012,9.99012,0,0,1,1.93821-.103c.44821.01211,1.13264.02422,1.51422.03028a2.77983,2.77983,0,0,1,1.35069.26045.81036.81036,0,0,0,.28468.08479.53353.53353,0,0,1,.27862.15143,2.9355,2.9355,0,0,0,.38159.27861c.27861.15748.5754.61175.52695.80557a2.647,2.647,0,0,1-.72683.9146,1.8924,1.8924,0,0,0-.39976.315,1.37818,1.37818,0,0,1-.47849.321,1.23076,1.23076,0,0,0-.33313.15142.47511.47511,0,0,1-.212.09086c-.05451,0-.17565.09691-.27256.218a1.26924,1.26924,0,0,1-.43.32707,1.48056,1.48056,0,0,0-.38764.23622.452.452,0,0,1-.27862.1272c-.08479,0-.15142.02422-.15142.05451s-.09085.109-.19988.17565a.571.571,0,0,1-.47849.07874,1.06105,1.06105,0,0,1-.38159-.1272c-.07874-.06662-.16959-.06662-.52089,0a1.59882,1.59882,0,0,0-.55118.19382.512.512,0,0,1-.1696.109.996.996,0,0,0-.19988.32707,1.07826,1.07826,0,0,1-.24834.35736,1.88364,1.88364,0,0,1-.9691-.38764,1.92307,1.92307,0,0,1-.64809-.93277c-.02423-.103-.06663-.24227-.0848-.315-.03028-.09085,0-.16959.09691-.2665.11508-.11508.15142-.25439.218-.76923a3.39718,3.39718,0,0,0,.0424-.68443.22066.22066,0,0,1,.03028-.16354c.05452-.09691.01817-.14536-.212-.315-.15142-.109-.29073-.1817-.3089-.15748-.01817.01818-.0848.00606-.14537-.03028-.23016-.12114-1.62931.57541-1.62931.81163a.83169.83169,0,0,1-.09691.29678c-.09085.1696-.09085.20594.00606.41187a.517.517,0,0,1,.06664.29679.206.206,0,0,0,.02422.18171c.17565.32707-.59963.39976-1.10841.103l-.27862-.16354-.23622.12114c-.212.109-.28467.11508-.65414.06057a7.60409,7.60409,0,0,1-.75712-.15142,1.00339,1.00339,0,0,0-.67837-.01212.95164.95164,0,0,1-.40581.04846,3.625,3.625,0,0,0-1.25378.16959,3.71434,3.71434,0,0,1-.44822.13325c-.29678.06663-.35735.06057-.533-.03028a.66574.66574,0,0,0-.41793-.06057,11.568,11.568,0,0,1-1.64748.15142c-.61175-.006-.73289,0-.83585.05451a.23014.23014,0,0,1-.18777.01212.31067.31067,0,0,0-.24227.01211.72412.72412,0,0,1-.50273-.0424l-.33313-.109-.38764.218a3.043,3.043,0,0,1-2.126.6602,1.13992,1.13992,0,0,0-.93882.45427c-.16353.17565-.2241.19988-.36341.16959-.09691-.02422-.23622-.04845-.321-.06057a1.83048,1.83048,0,0,1-.212-.03634.51385.51385,0,0,0-.13931-.006,2.54084,2.54084,0,0,0-.75106.81162.85529.85529,0,0,1-.303.33314,4.23394,4.23394,0,0,0-.77529.65415.71.71,0,0,0-.09691.40581,1.87189,1.87189,0,0,1-.109.58752,1.79063,1.79063,0,0,0-.103.60569,1.0136,1.0136,0,0,1-.09085.47244.38618.38618,0,0,0-.05451.26045,3.38552,3.38552,0,0,1-.33313,1.175,2.35346,2.35346,0,0,0,.06057.963.532.532,0,0,1-.03635.40581c-.109.218-.109.35736.00606.35736.05451,0,.09085-.06057.09085-.15747,0-.23623.09086-.35737.4361-.57541a4.71706,4.71706,0,0,0,.424-.3089.76216.76216,0,0,1,.315-.14537c.12113-.01817.218-.07268.218-.11508a.62685.62685,0,0,1,.14537-.25439,2.27819,2.27819,0,0,0,.27862-.59357,5.18637,5.18637,0,0,1,.30284-.75712,9.90664,9.90664,0,0,0,.60569-1.29012,5.86311,5.86311,0,0,1,.55724-1.30829.39633.39633,0,0,1,.2665-.1272,1.99717,1.99717,0,0,0,.49667-.14536,2.1572,2.1572,0,0,1,.72683-.14537,1.37537,1.37537,0,0,0,.48455-.06663.55113.55113,0,0,1,.321-.02422c.11508.01817.36947.04239.56329.05451a2.552,2.552,0,0,1,.4361.04845,1.60551,1.60551,0,0,0,.49061-.109,5.16679,5.16679,0,0,1,1.47183-.2665,1.51815,1.51815,0,0,0,.3513-.03029,2.48236,2.48236,0,0,1,.24228-.06663c.05451-.01817.19382-.05451.3089-.09085a.4195.4195,0,0,1,.36341.01817,2.944,2.944,0,0,0,1.50817.18777,5.55407,5.55407,0,0,0,.95094-.09086,2.04294,2.04294,0,0,1,1.15081.05451,3.28762,3.28762,0,0,0,1.49.26651c.4785-.103.70866.11508.49667.48455a.5576.5576,0,0,1-.29679.24833.38314.38314,0,0,0-.24833.212,2.61271,2.61271,0,0,1-.81769.75711,2.24081,2.24081,0,0,0-.59357.57541c0,.02422-.09692.09085-.212.15142a.84823.84823,0,0,0-.33313.37553c-.14536.29679-.67837.87219-.81162.87219a.22893.22893,0,0,0-.16354.13326,1.61788,1.61788,0,0,1-.20593.29073.96436.96436,0,0,0-.17565.315,1.18818,1.18818,0,0,1-.26651.39975,2.09769,2.09769,0,0,0-.34524.4785,1.36958,1.36958,0,0,1-.24228.3513c-.07268.07268-.12114.15748-.109.19382.0424.11508-.09691.315-.27862.40581a1.33763,1.33763,0,0,0-.3937.5209,1.70517,1.70517,0,0,1-.315.46638.8939.8939,0,0,0-.24228.29679.827.827,0,0,1-.20593.2665c-.03029,0-.06663.05451-.09086.11508a.2541.2541,0,0,1-.15748.15748.6581.6581,0,0,0-.29678.51484.4704.4704,0,0,1-.15748.26045,1.62034,1.62034,0,0,0-.30286.41792.933.933,0,0,1-.46031.45427c-.24835.13325-.321.20594-.32708.321a5.7979,5.7979,0,0,1-1.1205,1.90795,2.25272,2.25272,0,0,0-.4785.5754.66588.66588,0,0,1-.19382.23016.26111.26111,0,0,0-.109.16354,1.81912,1.81912,0,0,1-.17565.4361,8.74563,8.74563,0,0,0-.55118,1.33252.55663.55663,0,0,1-.18776.32707c-.0848.0424-.109.09691-.07874.16354a.92732.92732,0,0,1,.03029.28467,1.02775,1.02775,0,0,0,.13325.424c.109.19988.17565.24833.34524.26044a1.35033,1.35033,0,0,0,.45427-.05451,2.351,2.351,0,0,1,.30284-.08479c.21805-.02423.49667-.30891.78135-.79952a7.15653,7.15653,0,0,1,.47244-.73894,1.59732,1.59732,0,0,0,.25439-.48455,4.14751,4.14751,0,0,1,.20593-.52695,2.37871,2.37871,0,0,0,.15142-.38765.83329.83329,0,0,1,.15143-.27861.98387.98387,0,0,0,.18776-.34525.55949.55949,0,0,1,.19382-.28467.24139.24139,0,0,0,.11508-.17565.4918.4918,0,0,1,.11508-.25439,1.08458,1.08458,0,0,0,.15143-.28468c.02422-.07268.06662-.13325.09691-.13325a.79286.79286,0,0,0,.218-.29073c.09085-.15748.2665-.4361.39369-.62992a1.43047,1.43047,0,0,0,.23621-.44215.45874.45874,0,0,1,.15143-.24228.99868.99868,0,0,0,.212-.5209c.08481-.45426.16959-.64808.30891-.69048a.43787.43787,0,0,0,.1817-.25439,1.68253,1.68253,0,0,1,.35737-.49667,1.4347,1.4347,0,0,0,.36341-.52089,3.44444,3.44444,0,0,1,.15748-.39976,3.60255,3.60255,0,0,1,.80557-.84191,1.498,1.498,0,0,0,.49061-.50272,2.402,2.402,0,0,1,.424-.64809c.02423,0,.07874-.0848.12114-.18171a2.71981,2.71981,0,0,1,.64809-.72683,5.019,5.019,0,0,1,1.04785-.61175,1.08593,1.08593,0,0,0,.30284-.14536,2.27041,2.27041,0,0,1,.33919-.19988.51984.51984,0,0,0,.29073-.27862.265.265,0,0,1,.18775-.19382c.08481-.01817.15143-.06057.15143-.09086s.103-.103.23016-.16959a1.57354,1.57354,0,0,0,.424-.36948,1.90946,1.90946,0,0,1,.745-.49667,2.18287,2.18287,0,0,0,.53907-.30283,1.13075,1.13075,0,0,1,.533-.47245,1.661,1.661,0,0,1,.69048.28467.29146.29146,0,0,0,.24227.06057.88679.88679,0,0,1,.37553.04846.58535.58535,0,0,0,.29073.05451c.07874-.04845.58752.29073.62993.41188.01816.06057.0545.109.0848.109a1.02171,1.02171,0,0,1,.17565.40583,1.194,1.194,0,0,0,.47849.72683c.19988.16959.46638.38158.59357.47244a1.26527,1.26527,0,0,1,.27863.23016c.0424.07268-.109.40581-.218.47849a2.0319,2.0319,0,0,0-.4785.38159,1.99234,1.99234,0,0,0-.39975.49667,1.87362,1.87362,0,0,1-.25439.33313,1.71085,1.71085,0,0,0-.3937.745.20358.20358,0,0,1-.09086.14536,1.35116,1.35116,0,0,0-.52089.52695.28716.28716,0,0,1-.13931.19988,6.10736,6.10736,0,0,0-.69654.68442c-.41187.50879-.50273.6481-.53907.7874-.01817.09691-.06662.16959-.09691.16959a.38648.38648,0,0,0-.17565.11509,1.16559,1.16559,0,0,1-.24833.18776.72634.72634,0,0,0-.22411.3089.61571.61571,0,0,1-.2665.32708.4897.4897,0,0,0-.20594.212c-.01817.06662-.06662.12114-.09691.12114s-.0848.06662-.11508.15142a1.37007,1.37007,0,0,1-.90248.75711.17564.17564,0,0,0-.15748.11509.49152.49152,0,0,1-.2665.19987.63183.63183,0,0,0-.35736.32707,1.28493,1.28493,0,0,1-.636.5633.55582.55582,0,0,0-.218.2241c-.0424.09691-.11509.25439-.16354.34525a.29363.29363,0,0,0-.01817.29678.301.301,0,0,1,.03028.212.54723.54723,0,0,0,.09086.321c.13325.23622.14536.24228.93276.53907.22411.09085.8722-.35736.96911-.66626.02422-.06663.06662-.11508.09691-.11508a.9457.9457,0,0,0,.28467-.22411,3.90675,3.90675,0,0,1,.45427-.39976,1.19974,1.19974,0,0,0,.315-.3513,2.87871,2.87871,0,0,1,.38158-.46638,5.31535,5.31535,0,0,0,.527-.66626,1.38054,1.38054,0,0,1,.3513-.41187c.05451-.01817.103-.05451.103-.08479a2.23185,2.23185,0,0,1,.3513-.41793c.18777-.19988.37553-.40581.41793-.45427a6.29861,6.29861,0,0,0,.50272-.98122,4.20574,4.20574,0,0,1,.6057-.87219,1.07061,1.07061,0,0,0,.24228-.35131,1.44315,1.44315,0,0,1,.41186-.49666A5.89941,5.89941,0,0,0,37.743,32.76681c.05452-.07873.1696-.23017.24834-.32707a2.93094,2.93094,0,0,0,.24833-.38159,3.7719,3.7719,0,0,1,.43-.55723,4.01116,4.01116,0,0,0,.69049-1.02363c.09085-.16353.13325-.212.65414-.67231a2.18133,2.18133,0,0,0,.40582-.4785.97448.97448,0,0,0-.07269-.93276c-.08479-.12114-.13325-.24228-.11508-.26045a.4941.4941,0,0,0-.08479-.27256c-.109-.21805-.109-.24833-.02423-.40581a1.73883,1.73883,0,0,1,.30889-.34524,4.00119,4.00119,0,0,0,1.00546-1.18109,2.10854,2.10854,0,0,1,.61175-.424,2.66409,2.66409,0,0,0,.98122-.745,1.29578,1.29578,0,0,0,.33313-.54513.60061.60061,0,0,1,.15142-.26045,1.09614,1.09614,0,0,0,.18171-.27256c.04845-.14535.47849-.43.58752-.38764.24833.09691.52089.99939.53906,1.7868a3.80827,3.80827,0,0,0,.18777.86008,4.55906,4.55906,0,0,1,.04239,1.33252.21684.21684,0,0,0,.01212.1817,1.62316,1.62316,0,0,1,.08478.41187,1.5812,1.5812,0,0,0,.06057.36341c.01817.0303-.02422.11508-.103.19383a.5709.5709,0,0,0-.14537.41186,1.80243,1.80243,0,0,1-.15748.81769.29116.29116,0,0,0-.00606.35736c.07874.15143.07874.19988-.03028.4785a2.22,2.22,0,0,0-.1272.40581,1.33089,1.33089,0,0,1-.12113.533.99284.99284,0,0,0-.06663.37553,1.18658,1.18658,0,0,1-.07874.41187,2.31834,2.31834,0,0,0-.01817,1.02362.62753.62753,0,0,1-.05451.35735.69166.69166,0,0,0-.06057.33313.21938.21938,0,0,1-.04846.18777,2.47245,2.47245,0,0,0-.19988,1.07813,5.3456,5.3456,0,0,1-.24227,1.94427.55.55,0,0,0-.06663.20593c-.006.06663-.0424.29679-.07874.51484a1.30976,1.30976,0,0,0,.15142,1.066.92789.92789,0,0,1,.15143.65415,3.7377,3.7377,0,0,1-.06663.7026,5.5805,5.5805,0,0,0-.07874.67232,1.20857,1.20857,0,0,1-.14536.61175c-.07269.11509-.11509.2241-.09691.24833.01817.01817-.01212.12114-.06663.22411a.57584.57584,0,0,0-.06663.37552.57822.57822,0,0,1-.06057.35736c-.04845.09691-.07874.19988-.06056.22411a.57959.57959,0,0,1-.04846.27862c-.14537.424.18171,1.30223.45427,1.22955a.33273.33273,0,0,1,.19988.03028c.13325.07269.52089-.20592.52089-.38158a.85492.85492,0,0,1,.09085-.29679c.05452-.103.07874-.18171.06057-.18171s-.01211-.0424.01817-.103a.36332.36332,0,0,0-.03028-.3089,1.39256,1.39256,0,0,1,.19988-1.10236.88732.88732,0,0,0,.13325-.56329,2.44783,2.44783,0,0,1,.05451-.66019,1.67955,1.67955,0,0,0,.0424-.49667,1.36824,1.36824,0,0,1,.103-.50272,2.95031,2.95031,0,0,0,.109-1.32041,1.21868,1.21868,0,0,1,.07874-.54513,2.6638,2.6638,0,0,0,.14537-1.30828c-.03029-.07269.00605-.14537.11508-.24834.17565-.16353.29679-.55723.424-1.387a3.01246,3.01246,0,0,1,.14537-.642.21566.21566,0,0,0,.03634-.15142,6.43573,6.43573,0,0,1,.218-1.272.8928.8928,0,0,0,.04845-.36948,1.70228,1.70228,0,0,1,.03635-.41792,2.248,2.248,0,0,0,.06056-.3937,4.31061,4.31061,0,0,1,.1696-.90854,1.39617,1.39617,0,0,0,.07268-.36341,5.8059,5.8059,0,0,1,.11508-.67232,2.87542,2.87542,0,0,0,.09086-.57541.7015.7015,0,0,1,.14536-.55118.67223.67223,0,0,0,.15142-.24833,11.29884,11.29884,0,0,0,.13326-1.95032,1.10079,1.10079,0,0,1,.06662-.3937,1.252,1.252,0,0,0,.06057-.48456,1.04991,1.04991,0,0,1,.13931-.642c.07874-.15748.19382-.41187.25439-.5754a.55354.55354,0,0,0,.01211-.51484,2.45326,2.45326,0,0,1-.103-.76923,3.59849,3.59849,0,0,0-.103-.81163,3.93661,3.93661,0,0,1-.1272-.60569,3.01409,3.01409,0,0,0-.50272-1.21744c-.02423,0-.09085-.09691-.15748-.212-.06057-.11508-.15748-.212-.218-.212a.30693.30693,0,0,1-.1817-.07874,1.02876,1.02876,0,0,0-.27862-.15748,1.945,1.945,0,0,1-.44217-.32707,2.76363,2.76363,0,0,0-1.55057-.61175.65313.65313,0,0,1-.32707-.1272.994.994,0,0,0-.66019-.14536c-.04846.00606-.3816.01211-.73289.01817a1.54377,1.54377,0,0,1-.99333-.17565,2.10408,2.10408,0,0,0-1.14476-.19988c-.4361-.01817-.86008-.02423-.94488-.02423s-.424.01212-.75712.02423a3.00786,3.00786,0,0,0-.67837.06663,2.45841,2.45841,0,0,1-.745.103H36.12567a5.5452,5.5452,0,0,0-2.02907.18777.57534.57534,0,0,1-.30284.0848.67088.67088,0,0,0-.33313.09691c-.1272.07268-.212.09086-.27256.05451a.41312.41312,0,0,0-.212-.06057,1.74187,1.74187,0,0,1-.45427-.15748,3.77337,3.77337,0,0,0-1.21744-.321,5.091,5.091,0,0,1-.70866-.1817,1.23864,1.23864,0,0,0-.43-.103c-.04846.03028-.28468-.05451-1.18716-.43-.82374-.34524-1.11447-.57541-1.26589-1.00544a.98032.98032,0,0,0-.55724-.642.73525.73525,0,0,1-.33918-.27256c-.03634-.0848-.09086-.15749-.12114-.15749a2.86592,2.86592,0,0,1-.69655-.7874,2.46272,2.46272,0,0,0-.33313-.44821,2.64523,2.64523,0,0,1-.52089-.9691.7259.7259,0,0,0-.09691-.27256,1.17288,1.17288,0,0,1-.1272-.33313,4.07373,4.07373,0,0,0-.2665-.848.81354.81354,0,0,1-.103-.321c.01212-.01817-.01817-.07874-.07268-.13931a1.23646,1.23646,0,0,1-.315-.45427.44243.44243,0,0,0-.15142-.19988.6557.6557,0,0,1-.15748-.17565c-.00606-.05451-.0424-.26044-.07874-.43a1.59091,1.59091,0,0,0-.29073-.71471.56907.56907,0,0,1-.13931-.33313c.02423-.06057-.01817-.11508-.109-.15748a1.34672,1.34672,0,0,1-.3513-.41187A3.813,3.813,0,0,0,22.4855,8.079a.59319.59319,0,0,1-.19988-.36947c0-.12114-.103-.27256-.34525-.54511a6.7301,6.7301,0,0,0-.5754-.59359,1.97784,1.97784,0,0,1-.212-.24228c-.07874-.09691-.218-.27861-.321-.41187-.15748-.20592-.20593-.30284-.16959-.35735.0424-.06057-.19382-.315-.46033-.49667a1.74065,1.74065,0,0,1-.45427-.43c-.06662-.109-.15142-.20593-.1817-.20593s-.11509-.09691-.18777-.212-.16959-.212-.218-.212a1.72927,1.72927,0,0,1-.69048-.36341c0-.103-.53907-.29679-.8298-.29679a2.02225,2.02225,0,0,1-.50272-.06663A1.62943,1.62943,0,0,0,16.40437,3.24545Z"/>
   <path class="a"
         d="M.02648,5.34114c-.06056.09085.01817.15142.09691.07268.0424-.0424.0424-.07874.00606-.103A.07763.07763,0,0,0,.02648,5.34114Z"/>
   <path class="a"
         d="M.826,17.18845c-.07269.06663-.04846.13931.04845.13931a.09316.09316,0,0,0,.09086-.09085C.96531,17.14.89262,17.11577.826,17.18845Z"/>
   <path class="a"
         d="M32.09782,17.38228c0,.1393.15143.28467.212.18776s-.02422-.30285-.12719-.30285C32.13416,17.26719,32.09782,17.31565,32.09782,17.38228Z"/>
   <path class="a"
         d="M6.23482,21.19207c0,.14537.08479.25439.19382.25439.17565,0,.12114-.2665-.05451-.29073C6.29539,21.14362,6.23482,21.16179,6.23482,21.19207Z"/>
   <path class="a"
         d="M50.28067,30.22292c.01211.0424.0424.07269.06662.07269.07269-.00606.05452-.09086-.01817-.12114C50.28672,30.16236,50.2625,30.18658,50.28067,30.22292Z"/>
   <path class="a"
         d="M14.38136,34.4567a.54521.54521,0,0,0-.13325.20594.42542.42542,0,0,1-.19988.19988,1.166,1.166,0,0,0-.39976.65414.54964.54964,0,0,1-.1393.24834.47842.47842,0,0,0-.1272.2241,2.67925,2.67925,0,0,1-.48455.78134c-.02423,0-.07874.07874-.12114.18171-.0424.09691-.09691.18171-.12114.18171-.03028,0-.06662.11508-.09085.24833a1.53478,1.53478,0,0,1-.29679.73289.41845.41845,0,0,0-.07268.27256,2.3749,2.3749,0,0,1-.26045,1.00545c-.20594.50878-.23016.67837-.109.78739a1.66728,1.66728,0,0,0,1.41127.36342c.43609-.07874.58752-.17565.75105-.50272.09086-.18171.09691-.23622.03029-.35736a1.47777,1.47777,0,0,1,.06057-.99334c.05451-.08479.08479-.18776.06056-.218a.71164.71164,0,0,1,.0424-.321c.03634-.14537.07874-.3089.0848-.36947a.32981.32981,0,0,1,.07268-.17565.15283.15283,0,0,0,.03029-.15142.59629.59629,0,0,1,.15142-.33919.5907.5907,0,0,0,.109-.642.465.465,0,0,1,.05452-.29074,1.49825,1.49825,0,0,0,.08479-.44215c0-.11508,0-.315.00606-.44215a.57431.57431,0,0,0-.15748-.41793.43153.43153,0,0,1-.12719-.33313C14.51461,34.40219,14.48433,34.378,14.38136,34.4567Z"/>
   <path class="a"
         d="M37.00392,42.94244a.1299.1299,0,0,0,.06057.09691c.03634.01817.06057-.00606.06057-.05452,0-.05451-.02423-.09691-.06057-.09691A.05975.05975,0,0,0,37.00392,42.94244Z"/>

</g>
</svg>
