<?xml version="1.0" encoding="UTF-8"?>
<svg xmlns="http://www.w3.org/2000/svg"
     version="1.1"
     width="46.74010171mm"
     height="29.81715808mm"
     viewBox="0.00000000 0.00000000 132.49169411 84.52111917">

<g transform="scale(3.67920472)">   <defs>
      <style type="text/css"><![CDATA[
      .a {
        stroke: #000;
        stroke-linecap: round;
        stroke-linejoin: round;
        stroke-width: 0.01px;
      }
    ]]></style>
   </defs>
   <path class="a"
         d="M35.013.0732a3.23626,3.23626,0,0,0-.3937.16354,1.06143,1.06143,0,0,1-.424.11508,1.0927,1.0927,0,0,0-.44821.15142.99268.99268,0,0,1-.34521.15147,1.28425,1.28425,0,0,0-.3937.15143,10.29635,10.29635,0,0,1-1.25983.54512,5.05336,5.05336,0,0,0-.66626.29679,2.0131,2.0131,0,0,1-.70866.24227c-.4361.04846-.5209.07874-.56329.22411-.04846.14536-.218.23622-.47244.26045a2.14808,2.14808,0,0,0-.76923.212c0,.09691-.3937.32707-.59963.3513a3.478,3.478,0,0,0-.66021.20593,1.51344,1.51344,0,0,1-.533.15143c-.05451-.01817-.11508.02422-.15748.11508a.391.391,0,0,1-.103.15748c-.01817,0-.13325.01211-.24834.02422A2.31453,2.31453,0,0,0,25.18266,3.98a2.49269,2.49269,0,0,1-.48456.24833.62942.62942,0,0,0-.22407.15141c-.17565.16354-.28468.18171-.6602.09086-.26651-.06057-.29074-.04846-.854.33313a2.17745,2.17745,0,0,1-1.14475.52089c-.20594-.00606-.27862.03029-.49667.23622a1.77989,1.77989,0,0,1-.59358.36947,2.975,2.975,0,0,0-.50272.22411c-.09086.06057-.218.13931-.28468.1817a5.90467,5.90467,0,0,1-.67837.32708,1.61674,1.61674,0,0,1-.45427.12719,1.29089,1.29089,0,0,0-.44215.17565,3.18488,3.18488,0,0,1-.51484.26651,1.44922,1.44922,0,0,0-.41187.24227.47132.47132,0,0,1-.24833.14537,10.71841,10.71841,0,0,0-1.72017.72683,1.45,1.45,0,0,1-.49666.12114.72209.72209,0,0,0-.527.24227,2.63965,2.63965,0,0,1-.533.35736,1.73277,1.73277,0,0,0-.3513.20594c-.05452.05451-.28468.2665-.50878.46638a2.28647,2.28647,0,0,0-.5633.71471,5.44917,5.44917,0,0,1-.36947.636,1.04237,1.04237,0,0,0-.20593.4361,1.61543,1.61543,0,0,1-.0848.40581c-.0424.14537-.12719.4785-.18776.745-.15748.71471-.27256.87219-.80557,1.15687a3.14757,3.14757,0,0,1-.50273.22411,4.53269,4.53269,0,0,0-.92065.38764c-.09691.04845-.18776.07268-.20593.05451s-.09086.00606-.16354.05451a.4866.4866,0,0,1-.2241.09086.50877.50877,0,0,0-.25439.1817c-.18171.19988-.321.218-.76923.11508a.692.692,0,0,0-.54512.05452,5.0215,5.0215,0,0,1-1.14476.41187,2.21174,2.21174,0,0,0-.49061.17565,2.10147,2.10147,0,0,1-.64809.1817,1.344,1.344,0,0,0-.73288.1696,5.4943,5.4943,0,0,1-.636.26044,3.6905,3.6905,0,0,1-1.45366.17565c-.848.01818-1.04179.03635-1.21138.13326-.91459.50878-.96911.56935-.90854.9691a.79652.79652,0,0,0,.44821.57541.80988.80988,0,0,0,.83586-.06663c.12114-.12114.3089-.11508.3089.00606,0,.03634.0424.0424.09691.02423a.41849.41849,0,0,1,.26045.05451,1.5763,1.5763,0,0,0,1.03573-.0424A5.84139,5.84139,0,0,1,4.038,17.63824a1.32425,1.32425,0,0,0,.36948-.12114,6.78666,6.78666,0,0,1,1.42943-.27256,1.32715,1.32715,0,0,0,.47849-.23622c.26651-.18776.37553-.23016.51484-.19988a1.44347,1.44347,0,0,0,.7026-.19382,2.54957,2.54957,0,0,1,.8298-.23622,1.33646,1.33646,0,0,0,.49061-.109,1.44826,1.44826,0,0,1,.65414-.17565.65513.65513,0,0,0,.30285-.103,8.57312,8.57312,0,0,1,1.43549-.70866.75958.75958,0,0,0,.321-.15748.63556.63556,0,0,1,.27256-.15142,3.69834,3.69834,0,0,0,.41793-.15142c.23622-.09691.2665-.103.3513-.01212a.201.201,0,0,1,.07268.1696c-.06662.16353.09086.24833.41793.2241.218-.01817.22411-.24833.01817-.44215-.21805-.20594-.18776-.30891.18171-.56935a.79819.79819,0,0,0,.24833-.212c0-.02423.109-.09086.24834-.15143a.91518.91518,0,0,0,.38764-.35736,1.11047,1.11047,0,0,1,.34524-.36341c.22411-.13325.79346-.7026.75106-.75106-.0424-.03634.103-.315.26045-.49061.07268-.08479.12113-.1817.103-.2241a1.59153,1.59153,0,0,1,.212-.53907,3.05761,3.05761,0,0,0,.23622-.55118,1.57349,1.57349,0,0,1,.1817-.424A1.07376,1.07376,0,0,0,16.42445,9.74c-.03635-.06057.08479-.48455.14536-.48455a3.24815,3.24815,0,0,0,.67837-.44216.44664.44664,0,0,1,.22411-.07874,2.082,2.082,0,0,0,.83585-.3937,4.28075,4.28075,0,0,1,1.43549-.58146.71448.71448,0,0,0,.38159-.109.34581.34581,0,0,1,.16353-.09085,1.72221,1.72221,0,0,0,.59358-.44215.60117.60117,0,0,1,.30285-.16354.78821.78821,0,0,0,.46638-.218.1802.1802,0,0,1,.16959-.0424.12688.12688,0,0,0,.14537-.0424.60283.60283,0,0,1,.3089-.12113,3.04316,3.04316,0,0,0,.44821-.109c.103-.03634.29073-.09691.424-.13325a3.15488,3.15488,0,0,0,.93882-.54512,1.18071,1.18071,0,0,1,.50272-.24228,2.15718,2.15718,0,0,0,.46638-.20593,2.98025,2.98025,0,0,1,.57541-.24228c.103-.01817.44215-.11508.75711-.21805a9.25814,9.25814,0,0,1,1.06-.33313,1.51706,1.51706,0,0,0,.52695-.15748,2.61483,2.61483,0,0,1,.745-.0848c.72683-.01211.99939-.11508,1.11447-.424.0848-.23622.26045-.321.73289-.36341a4.06505,4.06505,0,0,0,1.44154-.32708c.50273-.18776.61175-.08479.46033.43a5.23474,5.23474,0,0,1-.212.57541.719.719,0,0,0-.07874.33919A3.67238,3.67238,0,0,1,31.35477,6.227a2.79964,2.79964,0,0,0-.30285.4785,2.01833,2.01833,0,0,1-.848.82979,2.05475,2.05475,0,0,0-.3937.47244,4.49321,4.49321,0,0,1-.48456.61175,2.73254,2.73254,0,0,0-.5754.68443,3.35789,3.35789,0,0,1-.99939.93882c-.23017.11508-.321.19988-.38159.35736a.52029.52029,0,0,1-.3089.321.704.704,0,0,0-.30285.23622,1.13382,1.13382,0,0,1-.3513.27861.651.651,0,0,0-.33313.315.3095.3095,0,0,1-.21805.20594,2.11957,2.11957,0,0,0-.25439.06662,2.37541,2.37541,0,0,1-.30284.06057c-.28468.0424-.32707.09086-.33313.424-.01817.53906-.06057.58752-.58752.64809a.96307.96307,0,0,0-.38764.15142.579.579,0,0,1-.24228.12719.71962.71962,0,0,0-.2665.18171.63052.63052,0,0,1-.27862.18171.26813.26813,0,0,0-.17565.08479,1.13685,1.13685,0,0,1-.4361.1272,2.18478,2.18478,0,0,0-.57541.15748,1.11277,1.11277,0,0,1-.3089.11508,1.72871,1.72871,0,0,0-.41793.315c-.6178.58752-1.22955,1.13264-1.41731,1.272a2.73731,2.73731,0,0,0-.29073.24833,2.40593,2.40593,0,0,1-.48456.28468,1.90708,1.90708,0,0,0-.56935.40581c-.103.1272-.28467.33919-.39975.47244a1.99659,1.99659,0,0,0-.30285.54512,1.27579,1.27579,0,0,1-.33919.51484,1.23783,1.23783,0,0,0-.30284.46033c-.11508.38764.0424.65414.76923,1.30223a.99313.99313,0,0,1,.16959.19988c.06663.12114.44215.218.91459.24228a1.499,1.499,0,0,1,.66021.212,1.80281,1.80281,0,0,0,.45426.18776.54257.54257,0,0,1,.22411.09086.6722.6722,0,0,0,.27256.09691c.34525.00605.70866.00605.98728-.00606a5.44626,5.44626,0,0,1,.81768.05451,3.23191,3.23191,0,0,0,1.54451-.0424,3.83006,3.83006,0,0,1,1.15082-.0424,1.00244,1.00244,0,0,0,.60569-.12719,6.82554,6.82554,0,0,1,.87825-.30285,5.83866,5.83866,0,0,0,.79951-.27256,1.777,1.777,0,0,1,.59963-.14536,1.93923,1.93923,0,0,0,.4785-.09086c.05451-.03028.12114-.04239.13325-.03028a2.14776,2.14776,0,0,0,.55118-.24228c.533-.27862.6602-.29073.77529-.08479.04239.08479.02422.17565-.07269.36947a2.01641,2.01641,0,0,1-.16959.29073,1.424,1.424,0,0,0-.23016.84191,1.37455,1.37455,0,0,1-.14537.66626.81126.81126,0,0,0,.01212.89037c.15747.16353.3513.14536.81162-.07874.44216-.21805.51484-.30285.51484-.59358a.73259.73259,0,0,1,.15142-.45427.778.778,0,0,0,.15142-.36341.81534.81534,0,0,1,.15748-.36948,4.1361,4.1361,0,0,0,.30285-.49666,1.00371,1.00371,0,0,1,.28467-.3513,1.03329,1.03329,0,0,0,.40582-.59964,1.04315,1.04315,0,0,1,.06662-.28467,6.65074,6.65074,0,0,0,.23622-1.30829,2.57862,2.57862,0,0,1,.11506-.56944.50438.50438,0,0,0-.006-.315,1.39371,1.39371,0,0,1-.03029-.48456,1.13072,1.13072,0,0,0-.03028-.424,2.78326,2.78326,0,0,1-.07874-.61175,1.63,1.63,0,0,0-.37553-1.25984.31661.31661,0,0,1-.09085-.26044.77152.77152,0,0,0-.1272-.19382,1.30343,1.30343,0,0,0-.58752-.315c-.65415-.22411-.8298-.48456-.41187-.62992a.37166.37166,0,0,1,.29073-.00606c.14537.07874.36342.07874.36342,0s-.29074-.19382-.36947-.15142c-.03029.02423-.18171-.02423-.33919-.09691a2.10455,2.10455,0,0,0-.46033-.15142,2.45034,2.45034,0,0,1-.81768-.39976.13745.13745,0,0,0-.11508-.04846c-.19382,0-.03029.218.27862.37553.55118.26651.60569.46033.16959.62386-.26045.09691-.36341.0848-1.03573-.08479a.54273.54273,0,0,0-.34525,0,1.43944,1.43944,0,0,1-.33918.08479,2.35442,2.35442,0,0,0-.73289.14537.31733.31733,0,0,1-.29073-.0424c-.34524-.16353-.32707-.29073.11508-.75106a1.86182,1.86182,0,0,0,.23622-.29678c.01211-.03635.13931-.07874.27862-.09691a1.20217,1.20217,0,0,0,.48455-.17565,4.15823,4.15823,0,0,0,1.00545-.96305,4.30621,4.30621,0,0,1,.45427-.57541,2.23645,2.23645,0,0,0,.3089-.37553,4.584,4.584,0,0,1,.84191-.83585c.03634,0,.09691-.06057.13931-.13931a3.113,3.113,0,0,1,.47244-.49667,2.70057,2.70057,0,0,0,.47849-.527c.04846-.09085.109-.16959.13931-.16959.02424,0,.08481-.07874.13931-.17565a.49172.49172,0,0,1,.212-.218,1.03538,1.03538,0,0,0,.30891-.38159,6.68012,6.68012,0,0,1,.79345-1.18109,5.85035,5.85035,0,0,0,.4785-.75712,1.84724,1.84724,0,0,1,.527-.70866,1.10322,1.10322,0,0,0,.28467-.28467,1.54706,1.54706,0,0,1,.27862-.35736.807.807,0,0,0,.23622-.38158.55682.55682,0,0,1,.109-.28468,1.32854,1.32854,0,0,0,.18171-.32707c.03634-.103.13931-.37553.22411-.60569A4.03326,4.03326,0,0,0,35.98216.38816c-.03029-.218-.07269-.28468-.19988-.33313A1.28866,1.28866,0,0,0,35.013.0732ZM14.25,10.92113a.64533.64533,0,0,1-.00605.28467,2.26591,2.26591,0,0,1-.49061.73894.22258.22258,0,0,1-.30285-.1817c-.03634-.15143.07269-.56935.15748-.56935.02423,0,.06663-.06663.0848-.15143.0424-.15748.315-.33918.44215-.29073A.28244.28244,0,0,1,14.25,10.92113Zm13.32521,5.11808a2.6405,2.6405,0,0,0,.75711.00606c.45427-.06057.55724-.02423.65415.24833.04239.109.13931.32708.21805.48456.12719.24833.1393.3089.07874.44821a.63774.63774,0,0,1-.24834.24228c-.15142.07874-.18776.07874-.30284.006s-.17565-.07268-.4361,0a4.64218,4.64218,0,0,1-.8298.15748.71052.71052,0,0,0-.32707.14537c-.15142.12114-.17565.12114-.41187.0424a3.00986,3.00986,0,0,1-.88431-.5209,2.77333,2.77333,0,0,0-1.14476-.4361c-.1393-.01817-.3089-.1817-.3089-.29073a.78376.78376,0,0,1,.1696-.23622c.19987-.2241.28467-.23622,1.4476-.25439a4.35774,4.35774,0,0,0,.90248-.06057C26.96948,15.96653,27.133,15.96653,27.57517,16.03921Z"/>

</g>
</svg>
