<?xml version="1.0" encoding="UTF-8"?>
<svg xmlns="http://www.w3.org/2000/svg"
     version="1.1"
     width="33.60526727mm"
     height="62.82941113mm"
     viewBox="0.00000000 0.00000000 95.25898853 178.09907906">

<g transform="scale(3.67920472)">   <defs>
      <style type="text/css"><![CDATA[
      .a {
        stroke: #000;
        stroke-linecap: round;
        stroke-linejoin: round;
        stroke-width: 0.01px;
      }
    ]]></style>
   </defs>
   <path class="a"
         d="M7.17263.06747a3.327,3.327,0,0,0-.45427.13324c-.0848.03634-.24228.103-.3513.14536a1.32533,1.32533,0,0,0-.424.29679,2.448,2.448,0,0,1-.5754.38764,1.232,1.232,0,0,0-.41793.2968.89865.89865,0,0,1-.19382.24228.44052.44052,0,0,0-.13325.19988.77763.77763,0,0,1-.41187.38764c-.09086,0-.23622.15748-.25439.27256-.01212.0848-.13326.24228-.49667.62992a7.80809,7.80809,0,0,0-.50878.62386,1.48258,1.48258,0,0,1-.29679.3513c-.03028,0-.05451.03029-.05451.07269a2.63509,2.63509,0,0,1-.59358.83585,3.20064,3.20064,0,0,0-.44821.66626,1.82881,1.82881,0,0,1-.2665.44215A.115.115,0,0,0,1.2429,6.185a.63413.63413,0,0,1-.09085.34524c-.06663.14537-.17565.44215-.24834.6602a1.5149,1.5149,0,0,1-.212.4785.33056.33056,0,0,0-.09085.2241,1.9698,1.9698,0,0,1-.16354.5209,2.35309,2.35309,0,0,0-.18171.70866c-.02422.58752-.05451.77528-.13325.87219-.05451.06663-.06057.14537-.01211.3089a1.24575,1.24575,0,0,1-.06057.7874.42144.42144,0,0,0-.01211.3513.26618.26618,0,0,1,.01216.24228.38684.38684,0,0,0,.14537.41187,1.2384,1.2384,0,0,1,.07874.45427A2.59238,2.59238,0,0,0,.613,13.79848c.09691.19382.16354.3513.13931.3513-.01817,0,.01212.103.06663.22411a2.34707,2.34707,0,0,1,.12719.40581c.03029.18776.07874.2665.34525.52089a.68393.68393,0,0,1,.18776.28468,1.349,1.349,0,0,0,.25439.55118c.0424.04845.06663.103.05451.12719-.04845.07269.32708.39976.62386.54513a1.6165,1.6165,0,0,0,.54513.16353,1.30715,1.30715,0,0,0,.65414-.02423,1.51376,1.51376,0,0,1,.62992.02423l.38159.07874.36341-.25439c.4361-.3089.56329-.51484.48455-.82374-.04239-.16959-.09085-.2241-.24227-.26045s-.212-.103-.29073-.321a.81114.81114,0,0,0-.23622-.34525c-.16354-.08479-.3513-.29073-.315-.34524.01211-.02423-.109-.13325-.27862-.23622-.27256-.18171-.32707-.25439-.30285-.39975a2.07787,2.07787,0,0,0-.17565-.46639,2.62563,2.62563,0,0,1-.20593-.642A4.33943,4.33943,0,0,0,3.169,11.83608a.78069.78069,0,0,1-.05451-.40581.429.429,0,0,0-.02423-.27862,1.07223,1.07223,0,0,1-.15748-.3513,3.27719,3.27719,0,0,0-.18171-.46638,2.55956,2.55956,0,0,1-.14534-.50882,1.78839,1.78839,0,0,0-.09691-.38764c-.01212-.01817,0-.07269.03028-.13326A.50482.50482,0,0,0,2.527,8.96507,4.09844,4.09844,0,0,1,2.4543,8.214a3.3376,3.3376,0,0,0-.09085-.745A1.0647,1.0647,0,0,1,2.315,7.045c.09086-.55724.16354-.745.30891-.86008a.431.431,0,0,0,.15748-.19383.90359.90359,0,0,1,.1817-.2665c.103-.11508.26651-.315.36342-.44821a3.19747,3.19747,0,0,1,.36947-.424,4.33289,4.33289,0,0,0,.47244-.6057c.30284-.46638.43-.59963.7026-.69654.103-.03634.29679-.12114.44215-.18776a1.4,1.4,0,0,1,.38157-.11505.66024.66024,0,0,0,.29073-.11508A1,1,0,0,1,6.23985,2.993.21265.21265,0,0,0,6.361,2.92633a.3763.3763,0,0,1,.16354-.07269.734.734,0,0,0,.19382-.06056.50036.50036,0,0,1,.29073.03634c.29073.103.38764.103.48455.00605.11508-.103.23622-.09085.37553.04846a.67822.67822,0,0,0,.41187.15142,2.97132,2.97132,0,0,1,.48455.09691.8267.8267,0,0,0,.3513.03634.32966.32966,0,0,1,.23622.05452.34.34,0,0,0,.27862.05451c.212-.02423.72077.15748.72077.2665,0,.03029.04846.0424.11509.02423.12113-.03028.32707.14537.29073.24833-.01817.03634.06662.13326.17565.218a.85631.85631,0,0,1,.24227.27256,1.70906,1.70906,0,0,0,.5633.57541.78423.78423,0,0,1,.24227.18776c.18171.17565.18171.18777.09691.36342-.05451.09691-.11508.17565-.13931.17565-.03028,0-.12719.12719-.2241.27862-.218.33918-.3513.424-.4785.29073a.31425.31425,0,0,1-.103-.16354.75174.75174,0,0,0-.02423-.13325,1.316,1.316,0,0,1-.01817-.19382.21967.21967,0,0,0-.1272-.16959.25415.25415,0,0,1-.15747-.15743c-.03028-.09086-.07874-.11509-.16353-.09086a1.30161,1.30161,0,0,1-.527-.15142c-.47849-.22411-.61174-.23016-.82979-.06057-.0848.06663-.18171.109-.212.09085a1.47762,1.47762,0,0,0-.30891-.06057c-.17565-.01211-.2665.00606-.315.07269a.46532.46532,0,0,1-.3513.13931,1.26563,1.26563,0,0,0-.315.56935,1.02322,1.02322,0,0,1-.30284.55723,2.17176,2.17176,0,0,0-.39976.73894,2.1203,2.1203,0,0,1-.50878.62992c-.24227.23622-.2665.32708-.27862.93277a1.04138,1.04138,0,0,1-.12719.32707.576.576,0,0,0-.09085.33313,1.635,1.635,0,0,1-.02423.43c-.0424.25439-.03029.321.06662.41187a.18447.18447,0,0,1,.06057.23016.76724.76724,0,0,0,.0424.39976.50883.50883,0,0,1,.02423.40581c-.0424.103-.02423.212.0848.49061a3.06857,3.06857,0,0,1,.17565.66021c.06057.69654.18776,1.09024.36947,1.19321.07874.0424.15142.103.15142.13931a1.033,1.033,0,0,0,.109.36947,6.21008,6.21008,0,0,0,.44822.87219,1.288,1.288,0,0,1,.16353.3513,1.81929,1.81929,0,0,0,.24834.40582c.24227.321.37552.41792.65414.45426a.46341.46341,0,0,1,.24834.24228.67692.67692,0,0,1-.15748.21805.56632.56632,0,0,1-.43.19382,2.80593,2.80593,0,0,0-.70866.22411,3.40291,3.40291,0,0,1-.67232.24833,3.85665,3.85665,0,0,0-.59963.18776,1.32455,1.32455,0,0,1-.72078.11509,4.9017,4.9017,0,0,0-.77528.03028.87234.87234,0,0,0-.5754.21805.74553.74553,0,0,0-.14536.212c0,.03029-.11508.109-.24834.18171-.33313.16959-.533.35736-.56935.53906-.01817.0848-.06057.16354-.09691.17565a1.613,1.613,0,0,0-.56935.57541.604.604,0,0,1-.212.24833,3.00734,3.00734,0,0,0-.81768.8722.41426.41426,0,0,1-.218.33919c-.06057.02422-.103.06662-.07874.09691.0424.06662-.19382.46032-.37553.62991a.63673.63673,0,0,0-.16353.30891c-.03029.16959-.01212.20593.20593.3513.27862.17565.36341.18776.55724.08479a1.4845,1.4845,0,0,1,.50272-.08479,1.62381,1.62381,0,0,0,.56329-.109,1.71817,1.71817,0,0,1,.50878-.13325,4.06934,4.06934,0,0,0,.57541-.09691.73261.73261,0,0,1,.3937-.01211,1.32727,1.32727,0,0,0,.89642-.06057.57456.57456,0,0,1,.2665-.09691.32907.32907,0,0,0,.18777-.05452,1.86289,1.86289,0,0,1,.37553-.17565c.27862-.109.32707-.109.40581-.03028.04846.04846.09085.06057.09085.02423,0-.23017.6178-.3513.81162-.15143.11508.11509.07268.212-.24228.527a.92455.92455,0,0,0-.24227.33313.16643.16643,0,0,1-.07874.12113,1.1324,1.1324,0,0,0-.19382.13931.50226.50226,0,0,1-.19988.11508,3.76864,3.76864,0,0,0-.854.72078c-.09691.109-.36341.38764-.58752.61174a2.43527,2.43527,0,0,0-.41187.4785c0,.03634-.103.12114-.2241.18171a1.27382,1.27382,0,0,0-.38159.33918c-.25439.37553-.51483.642-.642.66021-.06057.01211-.109.04845-.103.08479a.84185.84185,0,0,1-.07874.29679,1.54134,1.54134,0,0,0-.11508.38159.215.215,0,0,1-.0848.16959A1.13376,1.13376,0,0,0,2.218,27.263,9.38762,9.38762,0,0,1,1.49115,28.638c-.04845.02423-.04239.09085.00606.19988a.3092.3092,0,0,1,.01817.26045.94378.94378,0,0,0-.05451.3089.52635.52635,0,0,1-.03634.23016c-.01817.01817.00606.07268.05451.11508a.18807.18807,0,0,1,.05451.17565c-.02422.04846-.01211.09086.01817.09086a.58133.58133,0,0,1,.22411.15142c.321.29679.94488.56329.94488.39976,0-.07874.49061-.24834.72077-.24834A.49182.49182,0,0,0,3.7201,30.243a.57535.57535,0,0,1,.34524-.07874.62041.62041,0,0,0,.33322-.06058.82988.82988,0,0,1,.33313-.11508.56.56,0,0,0,.30285-.11508.61574.61574,0,0,1,.33313-.07874c.15748-.01211.35735-.03028.44215-.0424a1.52571,1.52571,0,0,1,.18777-.03028,1.14555,1.14555,0,0,0,.19382-.13931c.26044-.23622.43-.3513.50272-.3513a.50263.50263,0,0,0,.19382-.103c.16354-.13931.33313-.2665.49667-.38158a6.91552,6.91552,0,0,0,.55118-.49667c.23622-.22411.44215-.41187.46638-.424a.916.916,0,0,0,.18171-.212.7752.7752,0,0,1,.34524-.2665c.11508-.0424.212-.103.212-.1272a.75648.75648,0,0,1,.24228-.20593l.24833-.16354.17565.1272a2.53992,2.53992,0,0,0,.48455.25439c.28468.11508.315.11508.45427.02423a.41732.41732,0,0,1,.38765-.0424c.19987.05451.24833.04845.33313-.04846a.1923.1923,0,0,1,.1817-.07874.59188.59188,0,0,0,.33313-.13325.56371.56371,0,0,1,.45427-.1272.37563.37563,0,0,0,.34524-.08479.759.759,0,0,1,.1696-.12113c.01817-.00606.11508-.01817.212-.03028a.3336.3336,0,0,0,.218-.09086.31157.31157,0,0,1,.20593-.08481,4.21478,4.21478,0,0,0,1.55663-1.07813,1.52361,1.52361,0,0,1,.43-.321c.315-.15749.3937-.16354,1.02362-.04847a.5035.5035,0,0,0,.36341-.05451,1.321,1.321,0,0,1,.33918-.13324,1.11933,1.11933,0,0,0,.44216-.27862,1.39769,1.39769,0,0,1,.29073-.23622.53617.53617,0,0,0,.19383-.12114c.33312-.29073.53906-.03028.58145.745a2.74718,2.74718,0,0,0,.109.87826,1.94782,1.94782,0,0,1,.06663.40581,1.9499,1.9499,0,0,0,.06663.40581,4.94322,4.94322,0,0,1,.09085.97516.62946.62946,0,0,0,.0848.30285.55044.55044,0,0,1,.08479.25439,3.18969,3.18969,0,0,0,.04846.424,5.90138,5.90138,0,0,1,.02423,1.1811,2.64288,2.64288,0,0,0,.01211.33313c.01211.06663.04846.25439.07268.424a.736.736,0,0,0,.218.46639.787.787,0,0,1,.19988.30284c.11508.62992.1272.78134.0848.86614a.14547.14547,0,0,0,.03634.18776.14864.14864,0,0,1,.0424.19383.29864.29864,0,0,0-.01212.218,2.61839,2.61839,0,0,1,.03635.58147,1.08656,1.08656,0,0,0,.07268.533.15692.15692,0,0,1,.03028.1817.44637.44637,0,0,0,.04846.4361.5757.5757,0,0,1,.07268.18171.38112.38112,0,0,0,.02423.13931c.02423.08479.07268.103.20593.07268a.25792.25792,0,0,1,.33313.30285c-.02422.19382-.26044.41187-.38764.35735-.27862-.11509-.32707-.109-.27862.0424a1.15459,1.15459,0,0,1,.05451.23622.1914.1914,0,0,0,.05452.1272.29462.29462,0,0,1,.06662.15142c.01212.06057.03029.13931.0424.17565a.38406.38406,0,0,1-.03028.19988.214.214,0,0,0,.04845.23016c.05451.05451.07874.1272.05451.16354a4.11215,4.11215,0,0,0,.02423,1.43548,6.422,6.422,0,0,1,.109.9146,5.2987,5.2987,0,0,0,.04239.5754c.02423.09086-.07873.32708-.1393.32708-.03635,0-.03635.0424-.00606.109a.27237.27237,0,0,1,.03028.17565.34948.34948,0,0,0,.04846.212,1.59269,1.59269,0,0,1,.103.50273c.01211.19988.03634.49666.04845.66626.01817.16353.03635.41187.04846.54512.02422.321.103.636.15748.636a.68511.68511,0,0,1,.15143.27257c.07873.218.12719.27256.212.24227a.19834.19834,0,0,1,.23621.27862.2958.2958,0,0,0-.03027.20594.19429.19429,0,0,1-.06663.1817c-.0848.09086-.0848.12114.01211.36342a.72083.72083,0,0,1,.06663.321,1.3102,1.3102,0,0,0-.03635.70866,1.85094,1.85094,0,0,1,.07874.36342,1.08127,1.08127,0,0,0,.109.36341.85477.85477,0,0,1,.07874.36342.48707.48707,0,0,0,.04846.25439,3.66074,3.66074,0,0,1,.21805.45426,1.78611,1.78611,0,0,0,.70866.957,4.26827,4.26827,0,0,0,.78739.09691c.33313.02422.61781.04239.62387.05451a.44424.44424,0,0,0,.19382-.03634,1.28168,1.28168,0,0,0,.56935-.67232.24412.24412,0,0,1,.20593-.20593c.3937-.0848.54512-.15748.66626-.321a.43306.43306,0,0,0-.01211-.56935c-.05452-.07874-.0848-.15748-.06663-.17565s-.00606-.12114-.05451-.23622a1.318,1.318,0,0,1-.07268-.4361c.01211-.20593-.01212-.24227-.17565-.315a1.65075,1.65075,0,0,1-.69655-.66626.63515.63515,0,0,1-.02423-.33313,1.47435,1.47435,0,0,0-.109-.90248,2.56017,2.56017,0,0,1-.15142-.67231,3.42018,3.42018,0,0,0-.19383-1.15082,1.76341,1.76341,0,0,1-.09085-.65414.56122.56122,0,0,0-.09691-.4785.33532.33532,0,0,1-.0848-.29073.42137.42137,0,0,0-.06662-.2968c-.05451-.0848-.0848-.1817-.06057-.212a.3249.3249,0,0,0-.07268-.23016,1.30916,1.30916,0,0,1-.11509-.68443,4.33942,4.33942,0,0,0-.04845-.66626,3.92035,3.92035,0,0,1-.109-.69654.465.465,0,0,0-.09691-.2665.28084.28084,0,0,1-.05451-.23622.9167.9167,0,0,0-.16353-.62993c-.13931-.14537-.212-.32706-.15748-.41186a.5717.5717,0,0,0-.103-.533c-.06057-.06663-.06057-.11508.01817-.26649.07874-.15748.0848-.212.01817-.34525a2.25265,2.25265,0,0,1-.0848-.642,1.11577,1.11577,0,0,0-.109-.636.59838.59838,0,0,1-.103-.24227.26413.26413,0,0,0-.06662-.16354,1.88355,1.88355,0,0,1-.09086-.61781,2.71376,2.71376,0,0,0-.09085-.68442,8.0246,8.0246,0,0,1-.12114-1.593c0-.03634.00606-.17565.02423-.321a.556.556,0,0,0-.01817-.28467,2.522,2.522,0,0,1-.27256-.99939c-.01817-.218-.04846-.46033-.06057-.54512-.01817-.0848-.0424-.32708-.06057-.54513a2.64749,2.64749,0,0,0-.13325-.636,7.782,7.782,0,0,1-.13931-1.8837,2.33933,2.33933,0,0,0-.09086-.59358.9992.9992,0,0,1-.03028-.62992,2.96126,2.96126,0,0,0-.212-1.5324c-.0848-.17565-.12114-.30891-.0848-.36948a.59772.59772,0,0,0-.03028-.35734,1.54658,1.54658,0,0,1-.06057-.4785,4.70068,4.70068,0,0,0,.01826-1.31431,10.66458,10.66458,0,0,1-.14537-1.35069,3.98083,3.98083,0,0,0-.06662-.60569,3.29482,3.29482,0,0,1-.05452-.47244,2.51433,2.51433,0,0,0-.07874-.48455,2.70639,2.70639,0,0,1-.16959-.67838,3.66637,3.66637,0,0,0-.3513-1.175,1.282,1.282,0,0,1-.15748-.36947.32365.32365,0,0,0-.07874-.18171,1.28129,1.28129,0,0,1-.09691-.60569,2.728,2.728,0,0,0-.0424-.58146.75164.75164,0,0,1-.06057-.218,1.58174,1.58174,0,0,0-.12719-.33919,1.44466,1.44466,0,0,1-.11509-.36947,8.98683,8.98683,0,0,1,0-1.39914c.103-.81163.09692-.97517-.02422-1.09631-.27256-.25439-.26651-.25439-.39976-.16353-.11508.07268-.14536.07268-.23016-.01212-.11508-.12113-.29073-.16353-.61781-.15748-.35735.00606-.51483-.1393-.533-.47849a1.234,1.234,0,0,1,.08479-.48455.82078.82078,0,0,0,.09086-.36342.58979.58979,0,0,1,.04239-.26045,1.3745,1.3745,0,0,0-.01211-.5754,2.64485,2.64485,0,0,0-.527-1.54451,1.67288,1.67288,0,0,1-.2665-.41187c-.18777-.34525-.4361-.59964-.51484-.5209-.04846.0424-.45427-.12719-.58752-.24833a.93661.93661,0,0,0-.78134-.19382.58553.58553,0,0,1-.38159,0,.29867.29867,0,0,0-.27862.00605,2.949,2.949,0,0,1-.83585.212c-.02423-.01818-.07874-.00606-.1272.02422a.19291.19291,0,0,1-.1817,0,.193.193,0,0,0-.18171,0c-.103.06663-.41187-.103-.45427-.24833a1.36344,1.36344,0,0,0-.33313-.33313c-.27862-.22411-.46032-.50878-.37553-.59963.02423-.01817.00606-.05452-.03028-.07874a.27479.27479,0,0,1-.09086-.1272.6066.6066,0,0,0-.12113-.19988.36772.36772,0,0,1-.109-.19988.088.088,0,0,0-.08479-.09085c-.12114,0-.27862-.16959-.24228-.26045.01211-.04239-.03634-.11508-.109-.15748a1.25788,1.25788,0,0,1-.3089-.29678A8.53943,8.53943,0,0,0,9.93457,1.00638.63207.63207,0,0,0,9.559.88515c-.24833,0-.41793-.12114-.41793-.30285,0-.16353-.32707-.32707-.47849-.24227a.15324.15324,0,0,1-.212-.03632C8.39612.24917,8.36584.1886,8.384.15832,8.40218.13409,8.35978.122,8.29921.14015A.39957.39957,0,0,1,8.04482.09171,1.32114,1.32114,0,0,0,7.17263.06747ZM11.473,6.53019a1.34064,1.34064,0,0,0,.18777.32707.31983.31983,0,0,0,.37552.1696,2.15192,2.15192,0,0,0,.3937-.07874.55747.55747,0,0,1,.34525-.00606.96553.96553,0,0,0,.23622.04845,4.45294,4.45294,0,0,1,.751.20594,1.0994,1.0994,0,0,1,.315.23622.46052.46052,0,0,0,.24228.17565c.17565,0,.70866.58146.76317.8298a4.56576,4.56576,0,0,0,.35736,1.169,5.60389,5.60389,0,0,1,.58146,1.47789.35436.35436,0,0,0,.07874.212,3.20633,3.20633,0,0,1,.44215.94488,5.83689,5.83689,0,0,1,.08479.60569c.01212.19987.0424.44215.05451.54512a3.50075,3.50075,0,0,1,.0424.36341.45515.45515,0,0,0,.07269.22411,2.66059,2.66059,0,0,1,.12113.92671.36747.36747,0,0,0,.06057.2241.37338.37338,0,0,1,.07874.212,3.71426,3.71426,0,0,0,.13326.72078.74179.74179,0,0,1,.03028.34524.34473.34473,0,0,0,.03634.22411,1.21,1.21,0,0,1,.09086.24227,1.91244,1.91244,0,0,0,.13325.34525.85483.85483,0,0,1,.09085.33918.267.267,0,0,0,.05451.19988.68553.68553,0,0,1,.09086.2665.95418.95418,0,0,0,.11508.32708,1.0169,1.0169,0,0,1,.11508.37553,3.74973,3.74973,0,0,0,.07268.38764c.01817.0848.0424.21805.05451.30284a.77543.77543,0,0,0,.0848.28468c.05451.109.04846.20593-.03027.48455a2.74634,2.74634,0,0,0-.04241,1.33858c.109.11508.04846.20593-.33313.44215-.26045.1696-.39369.212-.533.19382a1.00792,1.00792,0,0,0-.57541.18171,2.55923,2.55923,0,0,1-1.29013.321,3.86808,3.86808,0,0,1-1.4476-.29073.92636.92636,0,0,0-.38764-.09086c-.01817.02423-.12113-.01211-.23016-.07874a2.21257,2.21257,0,0,0-1.04179-.2665c-.103.03028-.18777.12114-.26045.29679a.62028.62028,0,0,1-.23622.30284c-.07268.01817-.1272.06057-.1272.0848s-.103.09691-.2241.15142a.928.928,0,0,0-.37553.34525.82236.82236,0,0,1-.24833.2665,1.04237,1.04237,0,0,0-.3089.29073,1.89964,1.89964,0,0,1-.24228.27256.658.658,0,0,0-.315.38159,1.35554,1.35554,0,0,1-.69049.53906.49613.49613,0,0,0-.19382.14537,1.54849,1.54849,0,0,1-.46638.27862.78426.78426,0,0,0-.32707.18776,2.60786,2.60786,0,0,1-.61781.23622,5.56709,5.56709,0,0,0-.82374.315,1.4187,1.4187,0,0,1-.69654.14537c-.527.01817-.58752.006-.69049-.18171-.14537-.26045.35736-.95094,1.30829-1.7989a1.58978,1.58978,0,0,1,.315-.23622c.03028,0,.109-.11508.18171-.26045a6.3978,6.3978,0,0,1,1.24166-1.387c.1272-.1272.30285-.29679.38765-.38159.0848-.09085.17565-.17565.19988-.19988a11.04122,11.04122,0,0,0,.84191-.88431.56578.56578,0,0,1,.27257-.18776,1.12051,1.12051,0,0,0,.43-.3089,2.2798,2.2798,0,0,1,.56329-.41793,1.79421,1.79421,0,0,0,.76922-.59963c.04241-.05452.103-.0848.13931-.06663.03028.02423.05451.01211.05451-.01817s.07269-.0848.15749-.12114c.08479-.0424.13931-.09691.11508-.12719-.04241-.07269.13325-.24834.24228-.24834a.14045.14045,0,0,0,.109-.08479.49865.49865,0,0,1,.27256-.15748.72287.72287,0,0,0,.315-.15143.79259.79259,0,0,1,.315-.15748,1.02662,1.02662,0,0,0,.3937-.212.54728.54728,0,0,1,.19988-.14536c.16353,0,.19987-.70866.04239-.86614a.27084.27084,0,0,1-.08479-.23622.55879.55879,0,0,0-.26651-.56935c-.09691-.04846-.17565-.109-.17565-.13325,0-.03029-.1817-.03634-.40581-.02423-.23016.01211-.55118.03028-.72077.0424a1.21544,1.21544,0,0,1-.3937-.03029.31774.31774,0,0,0-.25439.03635.48353.48353,0,0,1-.27256.07268.92785.92785,0,0,0-.37553.09691,3.45567,3.45567,0,0,1-2.11992.09691.44294.44294,0,0,1,.0424-.28468c.04845-.12113.07268-.2241.05451-.24227s.00606-.109.05451-.20594a.62373.62373,0,0,0-.09085-.76317c-.15141-.16959-.16959-.2241-.11508-.33313a.67341.67341,0,0,0,.03028-.34524,6.1265,6.1265,0,0,1-.06056-.642,1.71028,1.71028,0,0,0-.13931-.66626c-.07874-.15143-.109-.28468-.07874-.33313a3.22,3.22,0,0,0-.15143-1.42943.18951.18951,0,0,1-.03634-.22411.62588.62588,0,0,0-.03028-.36947,1.42619,1.42619,0,0,1-.0848-.41187.95512.95512,0,0,0-.07874-.33919,1.57157,1.57157,0,0,1-.06669-.65425,2.14858,2.14858,0,0,1,.20594-.93883,2.40006,2.40006,0,0,1,.69654-1.01756c.06663-.03634.17565-.109.24834-.15748.11508-.08479.13931-.08479.29073.03635.14536.11508.18171.12113.35736.04845A.56745.56745,0,0,1,10.51,6.99051c.03635.00606.12114-.06056.18171-.15142a3.55691,3.55691,0,0,1,.3089-.36947c.16354-.16959.212-.18776.315-.13931A.36784.36784,0,0,1,11.473,6.53019Z"/>

</g>
</svg>
