<?xml version="1.0" encoding="UTF-8"?>
<svg xmlns="http://www.w3.org/2000/svg"
     version="1.1"
     width="47.44222080mm"
     height="43.69187537mm"
     viewBox="0.00000000 0.00000000 134.48191627 123.85095541">

<g transform="scale(4.08374213)">   <defs>
      <style type="text/css"><![CDATA[
      .a {
        stroke: #000;
        stroke-linecap: round;
        stroke-linejoin: round;
        stroke-width: 0.01px;
      }
    ]]></style>
   </defs>
   <path class="a"
         d="M14.1562.03243c-.18171.02423-.50272.05451-.71472.07268a1.97864,1.97864,0,0,0-.55117.12109c-.15143.07874-.18777.07874-.28468.00606a.52054.52054,0,0,0-.2665-.09086.5229.5229,0,0,1-.23622-.05451c-.05451-.03634-.15143-.01211-.28468.06663a1.51663,1.51663,0,0,1-.62992.19382,1.8537,1.8537,0,0,0-.59357.20593.63463.63463,0,0,1-.321.0848,2.96554,2.96554,0,0,0-.75715.26655,4.50619,4.50619,0,0,1-.79952.29679c-.19987.02423-.41792.06057-.76922.11508a9.25229,9.25229,0,0,0-1.72622.7874,1.31242,1.31242,0,0,1-.43.218,2.55175,2.55175,0,0,0-.79346.38764.3557.3557,0,0,1-.26045.07269c-.103-.03635-.53906.24833-.848.55117a.69823.69823,0,0,1-.30285.19988.5582.5582,0,0,0-.25439.12114.55606.55606,0,0,1-.24227.12114.65872.65872,0,0,0-.27257.15142.60814.60814,0,0,1-.29073.15142.904.904,0,0,0-.34524.15748c-.1272.0848-.36342.22411-.52695.30891a2.36715,2.36715,0,0,0-.47244.321,3.59449,3.59449,0,0,1-.56329.3937A1.816,1.816,0,0,0,.12232,5.629a1.47281,1.47281,0,0,0-.09085.854,2.19888,2.19888,0,0,0,.3513.25439A1.22558,1.22558,0,0,0,1.95153,6.5012a1.218,1.218,0,0,1,.93882-.32707,5.76018,5.76018,0,0,0,1.3628-.05452,7.477,7.477,0,0,0,.88431-.25441,7.13038,7.13038,0,0,1,1.78073-.17562A5.64122,5.64122,0,0,0,7.748,5.629c.212-.06057.44821.14537.3513.321a.92935.92935,0,0,0-.05451.321,2.0723,2.0723,0,0,1,0,.27861c0,.0424-.17565.15143-.38159.24834a1.889,1.889,0,0,0-.47244.27256,2.42852,2.42852,0,0,1-.40581.315c-.17565.11508-.321.23016-.321.2665A9.62938,9.62938,0,0,1,5.35551,8.85129a.89239.89239,0,0,1-.33313.23016c-.4785.1272-1.04785.62386-1.0115.88431a1.45772,1.45772,0,0,0,.3089.69655.44466.44466,0,0,1,.14536.25439c0,.1817.24834.315.58752.3089.15748,0,.34525,0,.41187.00606a3.9172,3.9172,0,0,0,1.67171-.3937c.16959-.09086.33313-.14537.36342-.12114a.1803.1803,0,0,0,.15748-.03029.28575.28575,0,0,1,.27256.03029.36309.36309,0,0,0,.23016.05451c.0848-.05451.29073.07268.40581.24833.09086.14537.09086.1696-.00606.3513a.64854.64854,0,0,0-.04845.527.7223.7223,0,0,1,0,.43609,1.34721,1.34721,0,0,0-.01211.55118,4.98115,4.98115,0,0,1,.03028.59358,1.10083,1.10083,0,0,0,.06057.37553.3151.3151,0,0,1-.02423.36341c-.09691.14537-.09691.1696.02423.47244a2.76929,2.76929,0,0,1,.15748.56329,3.64543,3.64543,0,0,0,.12114.57541,2.47819,2.47819,0,0,1,.09691.57541,1.41018,1.41018,0,0,0,.09085.45426,1.54714,1.54714,0,0,1,.103.424A7.26007,7.26007,0,0,0,9.4197,18.5302a.78852.78852,0,0,1-.01212.3937.85327.85327,0,0,0,0,.46638,2.76431,2.76431,0,0,1,.0424.72683,2.49793,2.49793,0,0,0,.04846.78134,2.78262,2.78262,0,0,1,.09691.5633c.00605.1817.03028.44215.04845.5754.01212.13325.03634.321.04846.424a.71608.71608,0,0,1-.03029.29073.25866.25866,0,0,0,0,.212,1.29787,1.29787,0,0,1,0,.527c-.03634.23016-.07268.91459-.08479,1.51423a11.66707,11.66707,0,0,1-.103,1.88975.77517.77517,0,0,0,.03028.32708,6.10751,6.10751,0,0,1,.07874.751,1.86621,1.86621,0,0,0,.48456,1.387c.27861.3089.93882.73894,1.01756.66626.01817-.01817.09691,0,.16959.0424a3.3308,3.3308,0,0,0,.424.14536c.25439.06663.321.06057.7874-.09086a5.15612,5.15612,0,0,0,.90248-.41186,2.2136,2.2136,0,0,1,.47244-.25439,1.23622,1.23622,0,0,0,.35736-.212.65422.65422,0,0,1,.76317-.13932,1.91962,1.91962,0,0,0,.55723.07874,1.85171,1.85171,0,0,1,.62992.11508.45519.45519,0,0,0,.27862.07268.29677.29677,0,0,1,.22411.07874,2.88973,2.88973,0,0,0,1.35069.3089c.06662,0,.19988,0,.29679-.006a.71023.71023,0,0,0,.27861-.05452.33384.33384,0,0,1,.25439-.00605.29009.29009,0,0,0,.30285-.07269c.16354-.12113.16959-.12113.424-.006a.88452.88452,0,0,0,.33919.09691,2.077,2.077,0,0,1,.50878.11508,3.55352,3.55352,0,0,0,.71472.14536,2.43123,2.43123,0,0,1,.642.15144,3.65611,3.65611,0,0,0,1.65959.16959A6.24768,6.24768,0,0,1,25.21,30.20188a.49068.49068,0,0,0,.3937-.109c.21805-.14535.321-.15748,1.30224-.13931a6.28638,6.28638,0,0,0,1.84735-.25439,2.9774,2.9774,0,0,1,.82374-.24227,2.43326,2.43326,0,0,0,1.08419-.46638c.19988-.14537.44215-.315.533-.36948a6.55772,6.55772,0,0,0,.56935-.424,2.07524,2.07524,0,0,1,.47244-.315.66854.66854,0,0,0,.53906-.424.7756.7756,0,0,0-.16505-1.08437l-.01666-.01193c-.18776-.14537-.25439-.15748-.81768-.16354a1.88251,1.88251,0,0,0-.79345.08481.45661.45661,0,0,1-.26651.06056,3.42481,3.42481,0,0,0-.6602.02422,2.25747,2.25747,0,0,0-.854.212c-.31495.16959-.52089.1817-1.20532.08479-.54512-.07268-.81163-.09691-1.914-.16353a6.00167,6.00167,0,0,1-.89035-.09686.64343.64343,0,0,0-.32707.05452c-.35736.12114-.39976.11508-.59358-.09086-.14537-.15748-.218-.1817-.55118-.20593a3.87939,3.87939,0,0,1-.62992-.0848,2.69329,2.69329,0,0,0-.48455-.07874,1.21546,1.21546,0,0,1-.39976-.09085c-.09085-.0424-.17565-.06057-.19987-.0424a.93989.93989,0,0,1-.38159-.11508,3.80856,3.80856,0,0,0-.80557-.22411,4.08222,4.08222,0,0,1-.75711-.212c-.16354-.07874-.49061-.23016-.71472-.33313a3.61921,3.61921,0,0,1-.64809-.36947,1.06643,1.06643,0,0,0-.29679-.18171,3.67064,3.67064,0,0,1-1.12052-.71471,6.11247,6.11247,0,0,0-.57541-.46639,2.57041,2.57041,0,0,1-.45427-.41792,1.34983,1.34983,0,0,0-.50272-.37553c-.3513-.13931-.44216-.3089-.36342-.71472a2.00648,2.00648,0,0,0,.02423-.52695.6335.6335,0,0,1,.03028-.321.25481.25481,0,0,0-.00605-.25439c-.04846-.11508-.03634-.1696.07874-.30891.13931-.16959.25439-.56329.16959-.56329a1.00433,1.00433,0,0,1-.23016-.23622c-.16959-.2241-.17565-.26045-.13931-.59358.02423-.19382.07268-.47243.103-.62386a.69452.69452,0,0,0-.03029-.49666.50933.50933,0,0,1,.00606-.48456,3.7498,3.7498,0,0,0,.09691-1.169c0-1.24167,0-1.56268-.02423-2.08963a1.38578,1.38578,0,0,1,.07269-.62992,1.68583,1.68583,0,0,0,.109-.48456c.01211-.16959.02423-.3513.03028-.39975a6.53991,6.53991,0,0,0-.12113-1.01756,1.1573,1.1573,0,0,1,.04845-.66626,2.53432,2.53432,0,0,0,.11508-.62386,2.53273,2.53273,0,0,1,.11508-.6057.77367.77367,0,0,1,.38159-.50272,1.2025,1.2025,0,0,0,.29679-.24833,4.13121,4.13121,0,0,1,1.07207-.93277,1.24046,1.24046,0,0,0,.62386-.60569,1.87808,1.87808,0,0,1,.44821-.55118,1.62039,1.62039,0,0,0,.527-.87825.98541.98541,0,0,1,.08479-.29679c.09086-.2241.03029-.77528-.09085-.81768a1.35714,1.35714,0,0,1-.30285-.24833,1.03285,1.03285,0,0,0-.58146-.29679.76832.76832,0,0,0-.83585.17565.993.993,0,0,1-.6057.218,4.31772,4.31772,0,0,0-.77528.14536c-.50878.13931-.72683.1272-.8298-.05451-.04845-.09691-.01817-.16354.19988-.38158a3.30547,3.30547,0,0,0,.4785-.72078,1.99591,1.99591,0,0,1,.40581-.58752.42473.42473,0,0,0,.18776-.24227,1.14765,1.14765,0,0,1,.14537-.3513,1.15853,1.15853,0,0,0,.09691-1.066,1.1771,1.1771,0,0,0-.59963-.93276c-.14537-.09691-.34525-.22411-.4361-.28468A3.62117,3.62117,0,0,0,14.1562.03243Z"/>

</g>
</svg>
