<?xml version="1.0" encoding="UTF-8"?>
<svg xmlns="http://www.w3.org/2000/svg"
     version="1.1"
     width="33.72447350mm"
     height="25.76745745mm"
     viewBox="0.00000000 0.00000000 95.59696028 73.04159572">

<g transform="scale(3.67920472)">   <defs>
      <style type="text/css"><![CDATA[
      .a {
        stroke: #000;
        stroke-linecap: round;
        stroke-linejoin: round;
        stroke-width: 0.01px;
      }
    ]]></style>
   </defs>
   <path class="a"
         d="M8.99345.06083a2.2107,2.2107,0,0,1-.84191.19382A1.30431,1.30431,0,0,0,7.62459.4,1.50015,1.50015,0,0,1,7.243.56355a.88525.88525,0,0,0-.29073.11509,4.14477,4.14477,0,0,1-.92671.35735,1.41494,1.41494,0,0,0-.71472.28468.5334.5334,0,0,1-.745.03028A.81607.81607,0,0,0,3.4211,1.27221a1.004,1.004,0,0,0-.46033.40582,1.86753,1.86753,0,0,1-.15748.27861,1.31159,1.31159,0,0,0-.16353.27257,3.80309,3.80309,0,0,1-.59964.78134,2.37046,2.37046,0,0,0-.30284.47244c-.1272.25439-.19988.32707-.34525.35735-.14536.02423-.2241.109-.39975.43A.94987.94987,0,0,0,.8772,5.28189a.89727.89727,0,0,0,.43.49061c.33313.212.59963.55723.54512.7026a.86362.86362,0,0,0,.05451.36341,2.53656,2.53656,0,0,1,.05451.79952c-.03634.50878-.03634.50878.15748.69654a.80259.80259,0,0,1,.19382.26045,2.60549,2.60549,0,0,0,.03029.29073,4.12823,4.12823,0,0,1-.04846,1.22955.58936.58936,0,0,0-.02423.29679,1.11736,1.11736,0,0,1-.05451.44821,1.63431,1.63431,0,0,0-.02423.82374c.1272,1.18717.1272,1.20533.03635,1.34464a.206.206,0,0,0-.03029.24227,1.76945,1.76945,0,0,1-.07268.91461c-.03634.16353-.09086.54512-.12114.848a4.17072,4.17072,0,0,1-.13931.81769,1.75923,1.75923,0,0,0-.07268.51483,1.08822,1.08822,0,0,1-.07874.43c-.09086.19384-.3937.41794-.49061.36343-.02423-.01817-.103.03027-.16959.103A4.93314,4.93314,0,0,1,.641,17.638c-.44822.36948-.636.58752-.636.739a.941.941,0,0,0,.29073.62386.48439.48439,0,0,0,.41187.18171,4.15867,4.15867,0,0,1,1.03573.06662.83191.83191,0,0,0,.57541-.07268,1.22577,1.22577,0,0,0,.38764-.212.70641.70641,0,0,1,.59962-.14541.62983.62983,0,0,0,.321-.01211.36394.36394,0,0,1,.24228.00606,1.20051,1.20051,0,0,0,.4361.03028c.1817-.01211.38764-.02423.44821-.02423a.921.921,0,0,0,.27862-.09085.88631.88631,0,0,1,.33918-.09086c.15748,0,.3937-.02422.90248-.08479a1.815,1.815,0,0,0,.41187-.12114,2.73683,2.73683,0,0,1,1.01151-.103c.527,0,.78739-.02423.79951-.06662.01817-.0424.14536-.06663.33918-.05452a1.09206,1.09206,0,0,0,.49667-.08479.377.377,0,0,1,.24228-.06057,1.49915,1.49915,0,0,0,.46638-.06663,4.56492,4.56492,0,0,1,.88431-.08478c.25439,0,.46638-.01819.46638-.05452,0-.03028.14537-.09691.321-.14536a7.81863,7.81863,0,0,1,1.61114-.26045,1.17782,1.17782,0,0,0,.41187-.05451,3.09916,3.09916,0,0,1,.50272-.09086c.0848,0,.27256-.01817.424-.03028a8.24719,8.24719,0,0,1,1.39309.00606,3.36742,3.36742,0,0,0,1.03573-.01817,1.80365,1.80365,0,0,1,.54513-.00606.4208.4208,0,0,0,.29678-.01211,1.34569,1.34569,0,0,1,.45427-.05452,3.48159,3.48159,0,0,0,.69655-.09691,2.79469,2.79469,0,0,1,.60569-.103c.6178-.00606,1.11447,0,1.29012.006.212.00606,1.1387.05451,1.20532.06057.02423.00606.06057.06057.07874.1272a1.91007,1.91007,0,0,0,.24228.38764,5.96066,5.96066,0,0,1,.69655,1.25984,1.46988,1.46988,0,0,0,.8843.93882.81747.81747,0,0,0,.86009-.103.93056.93056,0,0,0,.50272-.86614,4.21309,4.21309,0,0,0-.24228-1.02967.40182.40182,0,0,1-.03634-.23017,2.35554,2.35554,0,0,0,.06663-.46032c.03028-.4785.11508-.72682.26044-.77528.33919-.103.62387-.58752.39976-.67231a.99133.99133,0,0,1-.23622-.34525,1.196,1.196,0,0,0-.46638-.59963c-.05451-.01818-.0848-.24834-.09691-.79951a4.30823,4.30823,0,0,0-.11508-1.05392,3.30393,3.30393,0,0,1-.09086-.86007,2.223,2.223,0,0,0-.06057-.642,1.18149,1.18149,0,0,1-.1393-.59963,5.25512,5.25512,0,0,0-.0848-.54512,3.58864,3.58864,0,0,1-.103-1.39309,1.15877,1.15877,0,0,0,.03029-.30285c-.03029-.4361-.06057-.8298-.09086-1.09024a3.04637,3.04637,0,0,1,0-.93882c.02423-.24834.05451-.66021.06663-.90854.02423-.46638.0424-.70866.11508-1.39309a1.57493,1.57493,0,0,0-.07874-1.00545,1.46408,1.46408,0,0,1-.06057-.48455A2.91334,2.91334,0,0,0,24.35978,1.89a3.363,3.363,0,0,1-.1272-.56329,1.73705,1.73705,0,0,0-.09691-.424c-.07874-.24227-.14537-.321-.46033-.52089-.55723-.3513-.76922-.424-.98727-.3513a5.35074,5.35074,0,0,1-1.78679.01211,1.8318,1.8318,0,0,0-.54512.16959,4.45693,4.45693,0,0,1-.69655.24834,1.08257,1.08257,0,0,0-.59351.37557c-.26045.2665-.34525.321-.47244.3089a3.81518,3.81518,0,0,0-.642.61175,5.28164,5.28164,0,0,0-.31495.48455,1.98883,1.98883,0,0,1-.321.44215,3.40069,3.40069,0,0,0-.321.35736,3.464,3.464,0,0,1-.3089.35736A1.1688,1.1688,0,0,0,16.383,3.919a.30959.30959,0,0,1-.103.15143.9129.9129,0,0,0-.13325.424,1.98662,1.98662,0,0,1-.13326.533,1.1914,1.1914,0,0,0-.109.33313,2.63719,2.63719,0,0,1-.06663.315c-.01817.08479-.0424.2241-.05451.3089a4.74882,4.74882,0,0,1-.11508.50878,3.37388,3.37388,0,0,0,.01205,1.6838c.03634.13931.09086.36342.1272.49667.03028.13325.103.35736.15142.49666.17565.48456-.12114.75106-.68443.61175a2.91345,2.91345,0,0,1-.963-.44821.28226.28226,0,0,0-.18171-.0848,2.53192,2.53192,0,0,1-.80556-.50272.79584.79584,0,0,0-.36948-.16354,1.29742,1.29742,0,0,1-.76322-.51481.40526.40526,0,0,1-.01817-.29074,3.84425,3.84425,0,0,0,.12114-.38764c.0424-.15748.11508-.2665.18776-.29073.06663-.01817.103-.07268.0848-.12114a.40191.40191,0,0,1,.05451-.25439,2.70319,2.70319,0,0,0,.24228-.75711,1.8658,1.8658,0,0,1,.16354-.44216,5.05921,5.05921,0,0,0,.3513-1.05995,5.83463,5.83463,0,0,0-.03029-1.5748,7.79918,7.79918,0,0,1-.50272-1.25378A2.388,2.388,0,0,0,12.355.83008a.66315.66315,0,0,1-.218-.18777,2.3569,2.3569,0,0,0-.62387-.40583l-.45427-.218-.98122-.006A6.08442,6.08442,0,0,0,8.99345.06083Zm11.42334,2.556c.26044.13325.315.27256.23622.6178a4.708,4.708,0,0,0-.0848.57541,1.83671,1.83671,0,0,1-.07268.3937,3.6307,3.6307,0,0,0-.01817,1.04784c0,.04846-.01212.22411-.03029.3937a4.32865,4.32865,0,0,0,0,1.14476,4.16991,4.16991,0,0,0,.103.81768A9.54456,9.54456,0,0,1,20.756,9.46116c.03635.81768.05452.94487.13326,1.10235a1.013,1.013,0,0,1,.07268.40582,1.197,1.197,0,0,0,.0848.44215,3.18214,3.18214,0,0,1,.15748.745,2.7665,2.7665,0,0,0,.16959.72683,1.26885,1.26885,0,0,1,.11508.51484c.01211.19988.03028.48455.03634.636.03029.3937-.05451.636-.23622.72078-.13325.06056-.19382.04845-.38158-.06057a.90911.90911,0,0,0-.76317-.06663,1.24126,1.24126,0,0,1-.44216.00606,2.99851,2.99851,0,0,0-.76923.01211,3.27342,3.27342,0,0,1-.72077.01817c-.15748-.01817-.46032-.04845-.66626-.06057a3.95187,3.95187,0,0,1-.64809-.07874,3.78687,3.78687,0,0,0-1.1811.00606,1.36163,1.36163,0,0,1-.41792.05451,3.16866,3.16866,0,0,0-.60569.0848,3.78076,3.78076,0,0,1-1.51423-.06057,12.92486,12.92486,0,0,0-2.57419-.18776c-.76317.01211-.9691.03634-1.0963.11508a1.17115,1.17115,0,0,1-.49061.12719,1.78675,1.78675,0,0,0-.58752.15748,6.48792,6.48792,0,0,1-2.39853.18171,3.60016,3.60016,0,0,0-1.593.27862c-.52695.2241-.69049.23016-.80557.01817-.05451-.103-.03029-.1696.103-.37553.29679-.44216.51483-.957.43609-1.02362a.98252.98252,0,0,1,.12114-.24228.98421.98421,0,0,0,.14537-.424.81421.81421,0,0,1,.06662-.321,6.336,6.336,0,0,0,.25439-1.07813.60841.60841,0,0,1,.12114-.28467.18368.18368,0,0,0,.04846-.22411.86462.86462,0,0,1,.03028-.61174,22.19285,22.19285,0,0,0,.44213-2.22289c.03028-.2665.06662-.58146.08479-.69654a2.84436,2.84436,0,0,0,.03635-.636,2.672,2.672,0,0,1,.02422-.424c.01817-.13326.04846-.38159.06663-.54513a4.21361,4.21361,0,0,0,.02423-.59357,3.78914,3.78914,0,0,1,.13931-.92065A1.54379,1.54379,0,0,0,5.862,4.22193c.01212-.18171.02423-.45427.03634-.60569.02423-.4361.07269-.50273.50878-.69655a1.08514,1.08514,0,0,1,.77529-.13325,2.70948,2.70948,0,0,1,.48455.109,2.5536,2.5536,0,0,1,.59964.36947.50847.50847,0,0,0,.15748.109,1.40936,1.40936,0,0,1,.28467.22411c.13931.12719.43.3937.65415.59357a2.74363,2.74363,0,0,1,.9691,1.60509c.0424.15142.12114.38158.17565.51483a.98708.98708,0,0,1-.07874.95094c-.09691.212-.218.52089-.27256.69049a1.185,1.185,0,0,1-.218.41792.37251.37251,0,0,0-.12114.18171.5605.5605,0,0,1-.12113.23016.56492.56492,0,0,0-.12114.26651,3.38635,3.38635,0,0,1-.19994.61184,2.35245,2.35245,0,0,0-.218.89037l-.01211.39976.29073.29073c.36341.36341.52089.44821.73894.39975.13931-.03028.212,0,.36947.16354a.90921.90921,0,0,0,.29679.212c.35736.04846.50273.09691.60569.212.09691.09691.218.1272.62386.15143a2.383,2.383,0,0,1,.67232.12113.39274.39274,0,0,0,.3937.00606,1.05094,1.05094,0,0,0,.30285-.15748A.35482.35482,0,0,1,13.73,12.314a4.42013,4.42013,0,0,0,1.75045-.12114.71693.71693,0,0,1,.44215-.218,2.194,2.194,0,0,0,.745-.29679c.03028-.24227.02423-.321-.03028-.34524-.75712-.25439-.93277-.38158-.848-.59963.0424-.103.47244-.34525.52695-.29679A.42578.42578,0,0,0,16.5646,10.4c.18171-.06057.24228-.04846.47244.06662a2.18947,2.18947,0,0,1,.50878.38159c.61781.6178.80557.642,1.1387.13325a4.45051,4.45051,0,0,0,.61175-1.24772,2.13873,2.13873,0,0,1,.05451-.24834.46849.46849,0,0,0-.05451-.3513c-.09086-.1817-.09086-.20593.06057-.53906a1.001,1.001,0,0,0,.00605-.96911c-.05451-.103-.14536-.19988-.20593-.20593a1.80253,1.80253,0,0,1-.48455-.103.78827.78827,0,0,1-.53907-.62992.47719.47719,0,0,0-.19988-.2665,1.38654,1.38654,0,0,1-.424-1.05391.29273.29273,0,0,0,.0424-.19987c-.03029-.06663.03028-.20594.3513-.82374a5.74412,5.74412,0,0,1,.92671-1.23561c.05451-.01817.21805-.06057.36341-.09691a.57211.57211,0,0,0,.35736-.23017.9725.9725,0,0,1,.16959-.20593.97562.97562,0,0,1,.69656.04243Z"/>

</g>
</svg>
