<?xml version="1.0" encoding="UTF-8"?>
<svg xmlns="http://www.w3.org/2000/svg"
     version="1.1"
     width="39.71432974mm"
     height="46.13881202mm"
     viewBox="0.00000000 0.00000000 112.57610978 130.78722981">

<g transform="scale(6.89240785)">   <defs>
      <style type="text/css"><![CDATA[
      .a {
        stroke: #000;
        stroke-linecap: round;
        stroke-linejoin: round;
        stroke-width: 0.01px;
      }
    ]]></style>
   </defs>
   <path class="a"
         d="M4.52951.27756C4.30541.538,4.154.8772,4.21451.97411a1.67889,1.67889,0,0,1,.0424.39975c.01211.38764-.109.65415-.321.72077-.09085.03029-.109.0848-.09085.23017.03634.315.09085.38764.315.424a.67463.67463,0,0,0,.751-.4058c.17565-.36947.45427-.60569.61175-.5209a.31187.31187,0,0,1,.12113.109c0,.02423.00606.19988.01817.38764.01212.37553.01817.38764.33919.58146.212.12114.22411.1272.38159.01817a2.23922,2.23922,0,0,0,.6178-.93276,1.02871,1.02871,0,0,1,.23016-.37553.384.384,0,0,0,.1272-.315A1.2031,1.2031,0,0,1,7.4126.968c.03634-.07264-.01211-.1211-.19988-.2059a1.04748,1.04748,0,0,1-.3089-.19382C6.7524.39264,6.51618.55012,6.34053.94382a1.36783,1.36783,0,0,1-.30285.38159c-.17565.15142-.24833.1817-.33313.13325a.26163.26163,0,0,1-.14044-.34231l.01325-.02716c.04845-.0848.03634-.16354-.03029-.29679a.333.333,0,0,1-.0424-.29073.50723.50723,0,0,0,0-.30285C5.45622.01106,5.44411.005,5.10492.005,4.77179.01106,4.75362.01711,4.52951.27756Z"/>
   <path class="a"
         d="M8.5513,1.68276a4.43982,4.43982,0,0,0-.46033.527,2.3669,2.3669,0,0,1-.52089.52089c-.12114.05451-.16959.13325-.2241.36947-.09692.40581-.103.38159.16959.56329.41793.27256.77528.17565.90854-.25439a2.13671,2.13671,0,0,1,.58752-.89642c.23016-.218.26044-.27256.24227-.49061a.75808.75808,0,0,0-.0969-.34528A.58587.58587,0,0,0,8.5513,1.68276Z"/>
   <path class="a"
         d="M12.773,1.67065a2.19544,2.19544,0,0,1-.52695.05451c-.424.01212-.50273.03029-.58147.13931a.912.912,0,0,1-.33919.22411c-.212.08479-.24227.12114-.20593.23622a1.13752,1.13752,0,0,1,.03634.19382c-.00606.03028-.01211.16959-.02423.30284a.85727.85727,0,0,1-.44215.70866.75208.75208,0,0,0-.33313.4785,1.634,1.634,0,0,1-.212.424.21725.21725,0,0,0-.0848.14537c0,.23016-.67837.71471-1.39309.99939a1.58387,1.58387,0,0,0-.41187.25439c-.25439.218-.46032.212-.79951-.01212a1.35047,1.35047,0,0,0-.34524-.1817,1.14707,1.14707,0,0,1-.33313-.26045,2.75176,2.75176,0,0,0-.61781-.43,1.56135,1.56135,0,0,1-.47244-.34525c-.07268-.09691-.16959-.17565-.212-.17565a.73343.73343,0,0,1-.27256-.17565A2.35438,2.35438,0,0,0,3.9965,3.91776a.74065.74065,0,0,1-.60569-.3937c-.20593-.34524-.5754-.39975-1.15081-.1817a2.14368,2.14368,0,0,1-.53907.13931A1.0886,1.0886,0,0,0,1.02256,3.73a.61954.61954,0,0,1-.4361.13931,1.03978,1.03978,0,0,0-.43.109C.02317,4.06313.005,4.11764.005,4.42049c0,.315.01211.34524.18776.44215a.756.756,0,0,0,.27862.109.66585.66585,0,0,1,.24834.08479,2.35521,2.35521,0,0,0,.41792.15143,1.26631,1.26631,0,0,1,.424.212.64972.64972,0,0,0,.321.14536A2.61706,2.61706,0,0,1,2.767,5.8075a2.80088,2.80088,0,0,1,.84191.67232.759.759,0,0,0,.33919.24833,1.06129,1.06129,0,0,1,.36341.24833c.07269.13931-.12114.37553-.41187.50273-.12719.05451-.29679.13931-.38158.1817-.0848.04846-.32708.16354-.54512.25439a3.37427,3.37427,0,0,0-.51484.26651A5.33015,5.33015,0,0,1,1.37386,8.727a1.12036,1.12036,0,0,0-.36341.3089C.71972,9.363.71366,9.3872.962,9.6779a1.206,1.206,0,0,0,.45427.23016,1.30847,1.30847,0,0,1,.38159.15748c.01817.03634.11508.0424.20593.02423.32707-.07269.96911.29678.96911.55723a1.08345,1.08345,0,0,1-.27257.33919c-.3089.3089-.33313.44215-.15747.87825a2.08568,2.08568,0,0,1,.19382,1.11447.988.988,0,0,0,.09691.62992,1.08845,1.08845,0,0,1,.109.59963,1.87521,1.87521,0,0,0,.04846.50273,1.61644,1.61644,0,0,1,.07874.45427,2.573,2.573,0,0,0,.07874.527c.03028.08479.08479.27256.12719.424a3.16907,3.16907,0,0,0,.16959.46638.30988.30988,0,0,1,.01212.36342.95344.95344,0,0,0-.09085.321c-.01818.35736-.03635.424-.17566.58752a.99852.99852,0,0,0-.17565.321c-.01817.0848-.04845.20594-.07268.27862-.03028.103.00606.15142.17565.25439a.8102.8102,0,0,0,.35736.11508.99844.99844,0,0,0,.642-.38764c.03634-.07874.09086-.13931.1272-.13931.03028,0,.103-.14537.15142-.32707a.77888.77888,0,0,1,.24228-.424,2.5284,2.5284,0,0,0,.55723-1.12658c.01817-.18171.03029-.29679.07268-.60569.01212-.109.24228-.18777.35736-.1272a1.81563,1.81563,0,0,1,.38159,1.19321,1.61771,1.61771,0,0,0,.13931.642A2.83884,2.83884,0,0,1,6.30414,18c.00605.04846.103.15142.2241.22411a.63663.63663,0,0,0,.46638.12113.97.97,0,0,1,.43.04846c.36342.14536.636-.09691.35736-.315-.1817-.15142-.20593-.30285-.19988-1.25984A1.17109,1.17109,0,0,1,8,15.94671c.06663-.0424.109-.103.09085-.13325-.12113-.19383.18171-.47244.35736-.34525a2.29865,2.29865,0,0,1,.315.98728,3.402,3.402,0,0,0,.17565.59963.90268.90268,0,0,1,.09086.54512,1.9877,1.9877,0,0,0,.07874,1.29013.42259.42259,0,0,0,.53906-.03635c.07874-.07874.25439-.24227.38764-.36947a1.21072,1.21072,0,0,0,.44821-.71471.59569.59569,0,0,1,.09086-.24834c.07268-.09691.08479-.20593.05451-.43a1.435,1.435,0,0,1,.12114-.75711c.13325-.37553.15142-.4785.09085-.58752a1.45106,1.45106,0,0,1,.0424-.80557c.02423-.109-.01211-.18776-.15748-.33919-.12719-.12719-.17565-.23016-.15142-.30284a3.55426,3.55426,0,0,0,.03634-.58752,1.5925,1.5925,0,0,0-.18776-.89643,3.04582,3.04582,0,0,1-.24228-1.53845.81134.81134,0,0,0-.09085-.38764c-.16354-.23622-.11509-.46033.16959-.72683a2.19117,2.19117,0,0,1,.527-.35736c.15142-.06663.49061-.22411.75106-.3513l.48455-.23622.212.1272a1.3377,1.3377,0,0,1,.321.24227c.05451.06057.12114.109.15142.103a.826.826,0,0,1,.23016.03028,2.59767,2.59767,0,0,1,1.06.424c.1272.103.38764.29679.57541.43a6.44809,6.44809,0,0,1,.61175.50272c.25439.24228.29073.26045.50272.22411a.35115.35115,0,0,0,.32707-.44821c-.01817-.0848.02423-.1696.13931-.27862l.17565-.15748-.15142-.11508a.42428.42428,0,0,1-.15748-.29073,1.70166,1.70166,0,0,0-.13325-.44822c-.09691-.2241-.1696-.29678-.46033-.43a2.71179,2.71179,0,0,1-.61174-.44215.88008.88008,0,0,0-.4361-.30285.37751.37751,0,0,1-.25439-.14536,1.45176,1.45176,0,0,0-.46638-.30285c-.26045-.11508-.38765-.212-.41793-.3089a1.14487,1.14487,0,0,0-.15748-.29073.31588.31588,0,0,1-.07874-.27862c.04845-.19382-.27256-.424-.533-.36947-.32707.06662-.957.40581-.957.52089a.90946.90946,0,0,1-.16354.33919.726.726,0,0,0-.15142.55118c.01211.36947-.07874.50272-.47244.66626-.32707.14536-.3937.12719-.527-.12114a3.05229,3.05229,0,0,0-.32707-.46638A3.36485,3.36485,0,0,1,9.49012,7.558c-.0848-.18777-.18171-.34525-.218-.34525-.03028,0-.11508-.08479-.1817-.19382-.09692-.15748-.103-.218-.0424-.3513a2.8198,2.8198,0,0,1,1.00544-.848,1.60041,1.60041,0,0,0,.424-.29678A2.56838,2.56838,0,0,1,11.071,5.1352a2.14356,2.14356,0,0,0,.56935-.3937,1.167,1.167,0,0,1,.34525-.27861c.103-.05452.19382-.1272.19382-.15748s.0848-.09691.18171-.15143c.13325-.07268.1817-.13931.1817-.26044a.59739.59739,0,0,1,.09691-.30285.25014.25014,0,0,0,.05452-.19382c-.05452-.09085.2665-.67232.49061-.89642.23016-.22411.24227-.27256.11508-.58147-.06057-.13931-.13325-.218-.20594-.218a.63115.63115,0,0,1-.19988-.03028A.13713.13713,0,0,0,12.773,1.67065Zm-7.129,5.96a1.0826,1.0826,0,0,0,.29679.15748,1.81758,1.81758,0,0,1,.73289.46032.5688.5688,0,0,0,.2665.19988.69781.69781,0,0,1,.32708.321c.07268.12719.16959.28467.218.35736.109.15142.01817.315-.19987.35735a2.255,2.255,0,0,0-.25439.06057.92355.92355,0,0,1-.38765-.05451A.79341.79341,0,0,0,6.28,9.42955a.919.919,0,0,1-.38159-.06662,2.83867,2.83867,0,0,0-.50272-.12114,4.15408,4.15408,0,0,1-1.0963-.24834c-.27862-.1393-.26045-.24227.13931-.642A5.046,5.046,0,0,1,5.45626,7.5156.53326.53326,0,0,1,5.644,7.63065ZM5.45016,10.538c.109.109.109.13325.03029.38158-.0848.24228-.22411.41187-.33919.41187a2.36413,2.36413,0,0,1-.59963-.55118C4.38415,10.4774,5.1776,10.26541,5.45016,10.538ZM7.8911,12.561a1.15548,1.15548,0,0,0,.12719.41793,1.09135,1.09135,0,0,1,.09086.424,1.02963,1.02963,0,0,0,.08479.38158,2.33145,2.33145,0,0,1,.16354.50272c.07268.33919.03028.51484-.14537.58147-.109.03634-.33313-.16354-.33313-.29679a1.09192,1.09192,0,0,0-.11508-.321,3.13489,3.13489,0,0,1-.2059-1.10242.9965.9965,0,0,0-.09086-.3513.2797.2797,0,0,1,.10027-.38265l.02087-.01105C7.69122,12.36715,7.879,12.46406,7.8911,12.561Z"/>

</g>
</svg>
