<?xml version="1.0" encoding="UTF-8"?>
<svg xmlns="http://www.w3.org/2000/svg"
     version="1.1"
     width="47.96334713mm"
     height="26.90381567mm"
     viewBox="0.00000000 0.00000000 135.95904664 76.26274083">

<g transform="scale(4.08374213)">   <defs>
      <style type="text/css"><![CDATA[
      .a {
        stroke: #000;
        stroke-linecap: round;
        stroke-linejoin: round;
        stroke-width: 0.01px;
      }
    ]]></style>
   </defs>
   <path class="a"
         d="M11.72251.09256a1.07563,1.07563,0,0,1-.39975.12114.80557.80557,0,0,0-.38765.15142.79939.79939,0,0,1-.27861.15142,1.97856,1.97856,0,0,0-.8722.55118,1.45628,1.45628,0,0,1-.44215.35736,4.56745,4.56745,0,0,0-.68443.47244,4.73359,4.73359,0,0,1-.62387.4361,1.32224,1.32224,0,0,0-.41187.38763A11.32792,11.32792,0,0,1,6.21072,4.15069c-.17565.15142-.50272.44821-.72683.66626-.218.218-.48455.46638-.58146.55118s-.23016.22411-.30284.30285a3.37494,3.37494,0,0,1-.35736.32707,4.05378,4.05378,0,0,0-.44821.41187c-.12114.12719-.30891.32707-.41187.4361a.93445.93445,0,0,0-.19988.2665c0,.03634-.109.12114-.23622.18776a1.13292,1.13292,0,0,0-.3513.27862c-.06057.0848-.18171.24228-.26651.34525a2.50843,2.50843,0,0,0-.47849.91459,1.432,1.432,0,0,1-.23016.47244C.65048,10.79512.58991,10.89809.58991,11.11614a1.39771,1.39771,0,0,1-.12719.44215,1.74281,1.74281,0,0,0-.1272.39976.544.544,0,0,1-.0848.2241.65393.65393,0,0,0-.09691.24228c-.01211.23622-.05451.66626-.09085.90248a8.56087,8.56087,0,0,0-.00606,1.3628,1.50376,1.50376,0,0,1-.03634.4361.34549.34549,0,0,0,.04846.30285,1.2851,1.2851,0,0,1,.109.43.568.568,0,0,0,.24833.46638,8.21126,8.21126,0,0,0,1.3083,1.0963,3.65076,3.65076,0,0,1,.44821.2665,2.60779,2.60779,0,0,0,.3937.23622c.11508.05452.321.1696.45427.24834a.62161.62161,0,0,0,.50272.12114.61249.61249,0,0,1,.46638.07873,1.00421,1.00421,0,0,0,.67838.103,1.55051,1.55051,0,0,1,.73288.09691,4.50683,4.50683,0,0,0,2.37431-.13931,3.21354,3.21354,0,0,1,.92671-.23016.60546.60546,0,0,0,.36947-.218.89913.89913,0,0,1,.47849-.27256,2.393,2.393,0,0,0,.64809-.29073,3.009,3.009,0,0,1,.86009-.46032,2.72639,2.72639,0,0,0,.46638-.33313c.39975-.33313.55723-.39976.82979-.36948.03635.00606.15143-.11508.26045-.2665a1.0552,1.0552,0,0,1,.24228-.27256c.02423,0,.08479-.06663.12719-.15142a1.10038,1.10038,0,0,1,.36947-.30891,1.07534,1.07534,0,0,0,.35131-.28467,1.962,1.962,0,0,0,.20593-.89037c-.04846-.20593-.25439-.424-.40581-.424a5.51884,5.51884,0,0,1-.89037-.15142.51614.51614,0,0,0-.34524.05451c-.18171.09085-.20594.09085-.5209-.04846a2.57147,2.57147,0,0,0-.62386-.18776c-.16354-.02423-.36947-.06663-.47244-.09085a3.55639,3.55639,0,0,0-.90853-.14537,1.2799,1.2799,0,0,1-.44216-.09085,1.41764,1.41764,0,0,0-.3937-.103,3.93225,3.93225,0,0,1-.58752-.14537c-.848-.29073-1.21138-.424-1.31435-.47849a1.864,1.864,0,0,0-.36341-.1272.79586.79586,0,0,1-.39976-.24227c-.16353-.19383-.16959-.15143.06663-.8298a1.49468,1.49468,0,0,1,.2665-.45427,1.12532,1.12532,0,0,0,.212-.3513,1.76876,1.76876,0,0,1,.1272-.33313.61278.61278,0,0,0,.0848-.22411,3.7632,3.7632,0,0,1,.41793-.90243,5.50445,5.50445,0,0,0,.29073-.49666A3.33362,3.33362,0,0,1,8.76674,7.08225a2.31609,2.31609,0,0,0,.52089-.36948,2.28991,2.28991,0,0,1,.44822-.32707.36512.36512,0,0,0,.19987-.17565,3.01736,3.01736,0,0,1,.424-.48455c.37553-.35736.40581-.36947.533-.28468a.61492.61492,0,0,1,.19382.26045,5.52965,5.52965,0,0,0,.34524.67232,1.98981,1.98981,0,0,1,.29073.66626,1.99154,1.99154,0,0,0,.315,1.04784,6.46354,6.46354,0,0,1,.34525.81769,2.92676,2.92676,0,0,0,.3089.68443.7079.7079,0,0,1,.1817.26044,2.01529,2.01529,0,0,0,.29074.41187c.09085.103.23016.26651.3089.36947a1.07049,1.07049,0,0,0,.38158.28468c.27862.11508.35736.23622.315.50878a.52644.52644,0,0,0,.12114.4361,2.81657,2.81657,0,0,1,.39976.78134,4.25664,4.25664,0,0,0,.848,1.169,3.234,3.234,0,0,1,.72682.75713,4.80477,4.80477,0,0,0,.963.7571.62372.62372,0,0,1,.24834.20593.82626.82626,0,0,0,.43609.27862,2.38913,2.38913,0,0,1,.54513.24834.953.953,0,0,0,.3513.14536.47674.47674,0,0,1,.27256.15748,1.56216,1.56216,0,0,0,1.03573.32707.68029.68029,0,0,1,.56329.20594c.29679.24833.62992.3089,1.36886.25439a4.47127,4.47127,0,0,1,1.12053-.01211,5.2204,5.2204,0,0,0,1.278.0424.48344.48344,0,0,1,.36341.03029c.1272.06057.19988.05451.47244-.03634a2.77559,2.77559,0,0,1,.66626-.13932,2.95313,2.95313,0,0,0,.61781-.11508,3.30668,3.30668,0,0,1,1.0539-.26651,2.93422,2.93422,0,0,0,.7874-.12719,10.81967,10.81967,0,0,0,1.66565-.8722,1.326,1.326,0,0,1,.47244-.23622,3.84322,3.84322,0,0,0,1.73227-1.25982c.05452-.103.12114-.19382.15143-.19382s.06662-.07875.08479-.1696a1.60852,1.60852,0,0,1,.26651-.46638,3.47364,3.47364,0,0,0,.315-.48456,2.76166,2.76166,0,0,0,.18776-1.12658.15243.15243,0,0,1-.01817-.13931c.02423-.01818-.01211-.07874-.07874-.12719a1.30558,1.30558,0,0,0-1.702.03028.50119.50119,0,0,1-.41187.07268.48063.48063,0,0,0-.38159.06663,1.21321,1.21321,0,0,1-.40581.18777c-.16354.05451-.3937.12719-.49667.16353a2.28333,2.28333,0,0,1-.98727.05451c-.103-.06057-.5209.15143-.79951.41187-.13932.1272-.22411.15143-.66626.16354a2.367,2.367,0,0,1-.61781-.0424,3.79489,3.79489,0,0,0-1.44154-.16353c-.13931.03634-.22411.01211-.45427-.15143a1.66167,1.66167,0,0,0-.80557-.315,4.48953,4.48953,0,0,1-1.02362-.23016,1.70317,1.70317,0,0,0-.46032-.12719,1.59158,1.59158,0,0,1-.45427-.1272,1.4929,1.4929,0,0,0-.315-.109.54451.54451,0,0,1-.27256-.19988,4.74436,4.74436,0,0,0-.41187-.4785,4.46107,4.46107,0,0,1-.65415-.81162,1.33645,1.33645,0,0,0-.34524-.34525c-.11508-.07268-.27256-.1817-.3513-.23016A7.98836,7.98836,0,0,1,18.688,7.0035a.70133.70133,0,0,0-.11508-.30285,2.41457,2.41457,0,0,1-.22411-.4361,2.40776,2.40776,0,0,0-.27862-.50272,1.45346,1.45346,0,0,1-.16959-.29073,3.567,3.567,0,0,0-.55724-1.05391,1.86787,1.86787,0,0,1-.3513-.963.78833.78833,0,0,0-.09691-.30285,1.74044,1.74044,0,0,1-.12114-.27256c-.01211-.04846-.04845-.19988-.09085-.33313a2.73984,2.73984,0,0,1-.07874-.38764.61685.61685,0,0,0-.13931-.27256,2.54921,2.54921,0,0,1-.59357-.76317C15.926,1.03142,15.13861.456,14.93873.4439c-.0848,0-.2241-.01211-.3089-.01817a1.12407,1.12407,0,0,1-.34525-.109c-.212-.11508-.31495-.12114-.76922-.06663a1.904,1.904,0,0,1-.94488-.15748A1.07,1.07,0,0,0,11.72251.09256Z"/>

</g>
</svg>
