<?xml version="1.0" encoding="UTF-8"?>
<svg xmlns="http://www.w3.org/2000/svg"
     version="1.1"
     width="45.02109260mm"
     height="29.56441450mm"
     viewBox="0.00000000 0.00000000 127.61890176 83.80463663">

<g transform="scale(4.08374213)">   <defs>
      <style type="text/css"><![CDATA[
      .a {
        stroke: #000;
        stroke-linecap: round;
        stroke-linejoin: round;
        stroke-width: 0.01px;
      }
    ]]></style>
   </defs>
   <path class="a"
         d="M20.017.03786a.86745.86745,0,0,0-.26651.11508.53028.53028,0,0,1-.26043.08479A.65635.65635,0,0,0,19.13272.48a1.05233,1.05233,0,0,1-.44821.30285.77425.77425,0,0,0-.30285.15142,2.07568,2.07568,0,0,1-.46032.28467,1.13087,1.13087,0,0,0-.41793.29679.95226.95226,0,0,1-.16959.24834c-.4785.52089-.93277,1.25983-.854,1.387.01817.03028-.07268.15748-.20593.28467a1.953,1.953,0,0,0-.37553.49667,3.43853,3.43853,0,0,1-.33313.52089,3.69055,3.69055,0,0,0-.60569,1.0963,1.39154,1.39154,0,0,1-.29679.45427,1.27738,1.27738,0,0,0-.27862.43,3.06832,3.06832,0,0,1-.2241.57541,3.02713,3.02713,0,0,0-.212.51484,1.0575,1.0575,0,0,1-.13325.30284c-.103.1696-.13325.28468-.09691.33919.07268.12719-.13931.50878-.33313.59963-.13325.06057-.15748.103-.13931.32708.01212.2241-.01211.27256-.23016.46638a1.59217,1.59217,0,0,0-.315.38158c-.03634.09691-.09691.1696-.13325.1696-.03029,0-.06057.06057-.06057.13931a.51928.51928,0,0,1-.09085.26044.42587.42587,0,0,0-.09086.212.51923.51923,0,0,1-.109.24227,1.71289,1.71289,0,0,0-.25439.81768c-.00606.27862-.212.68444-.37553.71472a4.2953,4.2953,0,0,1-.854.03634.58221.58221,0,0,0-.35735.15142c-.13326.109-.23017.15143-.32708.1272a.56731.56731,0,0,0-.29678.02423A.31207.31207,0,0,1,9.46593,12.83c-.09691-.05451-.15748-.0424-.3089.06663a.93823.93823,0,0,1-.48455.15748,1.84207,1.84207,0,0,0-.56935.15142,3.87059,3.87059,0,0,1-1.12053.32707,1.21576,1.21576,0,0,0-.38764.1272,2.536,2.536,0,0,1-.94488.23622,1.43334,1.43334,0,0,0-.424.12719,1.527,1.527,0,0,1-.56329.12114,1.57745,1.57745,0,0,0-.69049.109,1.20651,1.20651,0,0,1-.3937.07269c-.16959.01817-.40581.0424-.52089.06662-.11508.01817-.24228.0424-.27862.0424a2.69719,2.69719,0,0,0-.46638.36947c-.321.28468-.41187.40582-.4361.57541a2.69493,2.69493,0,0,1-.20593.57541,6.947,6.947,0,0,0-.27862.69654,3.342,3.342,0,0,1-.55727,1.02372,1.19183,1.19183,0,0,0-.2241.7026.91821.91821,0,0,1-.09691.33313.46544.46544,0,0,0-.07269.19988,2.48335,2.48335,0,0,1-.23016.47244,1.092,1.092,0,0,0-.20593.49061.79944.79944,0,0,1,.03634.29073c-.01212.19382.01211.23622.15748.29679a.64379.64379,0,0,0,.533-.00606,7.51694,7.51694,0,0,1,1.169-.3513.21406.21406,0,0,0,.15142-.09691c.07269-.09086.16354-.11508.76317-.19988a1.84312,1.84312,0,0,0,.47244-.11508.45045.45045,0,0,1,.36342-.01817,4.00381,4.00381,0,0,0,1.85341-.109A.70138.70138,0,0,1,5.856,19.529a.752.752,0,0,0,.36342-.02422,2.62533,2.62533,0,0,1,.52089-.09086,1.47,1.47,0,0,0,.38159-.07268.27064.27064,0,0,1,.20593.06057,1.39563,1.39563,0,0,0,.50272.11508,1.91072,1.91072,0,0,1,.4361.07268c.09086.05451.36947-.06057.81769-.34524a4.0283,4.0283,0,0,1,2.27739-.76923,1.11054,1.11054,0,0,0,.49061-.18776.75771.75771,0,0,1,.69049-.14537,3.42223,3.42223,0,0,0,2.18655-.33313.65791.65791,0,0,1,.37552-.11508.97041.97041,0,0,0,.36948-.07268c.07268-.03635.14536-.05452.16353-.03635a.3612.3612,0,0,0,.18777-.03028,2.57124,2.57124,0,0,1,.58752-.07874,1.59161,1.59161,0,0,0,.75711-.18776c.3513-.18171.36947-.18171,1.7565-.28468a8.36273,8.36273,0,0,0,.99939-.11508,4.83546,4.83546,0,0,1,.7874-.0848,2.91107,2.91107,0,0,0,.848-.12719,2.6641,2.6641,0,0,1,1.12053-.103c.44821.01211,1.0115.03029,1.24166.0424a10.88069,10.88069,0,0,0,1.39309.01817c.3937-.01817.65415.07268.75712.26045.04845.09085.01817.19987-.13325.52695a1.88883,1.88883,0,0,1-.6057.745,5.43613,5.43613,0,0,1-.81162.54512c-.51484.2665-.636.38764-.80557.80557-.12114.30284-.13325.36341-.06057.56935a.58727.58727,0,0,1,.04846.24227c-.01212.01212.03634.05452.109.109a.66243.66243,0,0,0,.46637.06057,1.14675,1.14675,0,0,0,.78134-.3089.66715.66715,0,0,1,.2544-.14537,7.217,7.217,0,0,0,1.35675-1.272.89855.89855,0,0,1,.28468-.25439A.40429.40429,0,0,0,27.14,18.3357a1.43785,1.43785,0,0,1,.45427-.38764,1.34949,1.34949,0,0,0,.50273-.46638,1.97987,1.97987,0,0,1,.37552-.48456c.16354-.15748.35737-.34524.424-.424.07268-.07268.23016-.22411.3513-.33919a.708.708,0,0,0,.218-.30284.58091.58091,0,0,1,.109-.25439c.05451-.0848.218-.32708.36342-.54512a3.86737,3.86737,0,0,1,.30284-.41793,3.65339,3.65339,0,0,0,.27862-.51484,4.29653,4.29653,0,0,1,.3937-.67232.63175.63175,0,0,0,.17565-.44821,1.11989,1.11989,0,0,1,.0848-.38764,1.89985,1.89985,0,0,0,.02422-.93882.57834.57834,0,0,1,.02423-.30285.15638.15638,0,0,0-.0424-.19987.474.474,0,0,1-.109-.212c-.01817-.1817-.09691-.321-.18171-.321a.59532.59532,0,0,1-.25439-.13931,1.91169,1.91169,0,0,0-.86614-.321c-.08479-.00605-.28467-.03028-.45427-.0424a1.5204,1.5204,0,0,0-.55723.05452c-.18171.06057-.29679.07268-.36947.03028a1.01789,1.01789,0,0,0-.81769.03029c-.24833.12719-.28467.12719-1.18715-.09691-.19382-.04846-.28467-.04846-.3513.006a1.40956,1.40956,0,0,1-.55118.09086,2.6282,2.6282,0,0,0-.82374.14536,1.11264,1.11264,0,0,1-.44215.09691c-.04846-.02422-.1696.03029-.26651.109-.15142.13325-.2241.14536-.52695.12114-.55723-.0424-.67232-.03029-.81768.06662a.29185.29185,0,0,1-.21805.04846,2.53048,2.53048,0,0,0-1.02362.32707,2.2123,2.2123,0,0,1-.55723.17565,1.56151,1.56151,0,0,0-.44822.109,3.858,3.858,0,0,1-1.22955.24228.73485.73485,0,0,0-.33313.03029,3.151,3.151,0,0,1-.6178.09691,1.878,1.878,0,0,0-.52695.09691c-.09086.04845-.14537.03028-.26651-.09086a.5663.5663,0,0,1-.15142-.20593,5.01424,5.01424,0,0,1,.3937-.65415,6.969,6.969,0,0,0,.82374-1.56874c.03028-.103.09691-.46638.15142-.81162a3.59278,3.59278,0,0,1,.33919-1.15082c.39975-.84191.47244-1.04179.46032-1.21138a2.23177,2.23177,0,0,1,.24834-.65415c.1817-.35735.24227-.53906.212-.64808-.02423-.11509,0-.18777.12114-.30891a2.49513,2.49513,0,0,0,.3089-.41792,1.94511,1.94511,0,0,1,.2665-.36342.75261.75261,0,0,0,.15748-.41793,1.85852,1.85852,0,0,1,.43-.957c.13931-.14536.15143-.212.1696-.89036l.01817-.73289L20.94979.51029A2.838,2.838,0,0,1,20.56215.05C20.56215-.00454,20.28959-.0106,20.017.03786Z"/>

</g>
</svg>
