<?xml version="1.0" encoding="UTF-8"?>
<svg xmlns="http://www.w3.org/2000/svg"
     version="1.1"
     width="23.09331263mm"
     height="17.26021959mm"
     viewBox="0.00000000 0.00000000 65.46141246 48.92659931">

<g transform="scale(4.09348480)">   <defs>
      <style type="text/css"><![CDATA[
      .a {
        stroke: #000;
        stroke-linecap: round;
        stroke-linejoin: round;
        stroke-width: 0.01px;
      }
    ]]></style>
   </defs>
   <path class="a"
         d="M2.85523.12046a.57974.57974,0,0,1-.218.19382,1.07276,1.07276,0,0,0-.315.3513,1.337,1.337,0,0,1-.321.36947,6.01768,6.01768,0,0,0-1.272,1.56874,2.12185,2.12185,0,0,1-.3937.51484.73088.73088,0,0,0-.315.642c-.03028.34524-.02423.3937.09085.48455a2.3224,2.3224,0,0,1,.49667.77529,2.35459,2.35459,0,0,0,.29679.52089c.15748.24228.33313.51484.37553.61175a2.15347,2.15347,0,0,0,.44821.47244c.19988.15748.44821.35736.55723.44215a1.84384,1.84384,0,0,0,.8722.35736.65456.65456,0,0,1,.27862.09691.8117.8117,0,0,0,.76317-.01211,2.68618,2.68618,0,0,1,.60569-.07269,2.21315,2.21315,0,0,0,.65414-.09691.27993.27993,0,0,1,.26651-.01211.48248.48248,0,0,0,.29679.00606,2.55381,2.55381,0,0,0,.87825-.30285.248.248,0,0,1,.212-.07268,1.5896,1.5896,0,0,0,.46033.06057,4.62991,4.62991,0,0,1,.56329.04845c.12719.03634.2241.00606.3937-.109a1.59069,1.59069,0,0,1,.37557-.19381A7.01952,7.01952,0,0,0,9.58446,6.456a1.74993,1.74993,0,0,1,.99939-.27256,2.295,2.295,0,0,0,.58146-.06662.31709.31709,0,0,1,.41187.13931c.05452.103.03635.16959-.09085.3513a.9491.9491,0,0,0-.15748.30284c0,.18171-.212.43-.745.88431-.56329.4785-.77528.73894-.79951.96305-.01212.13325-.17565.2665-.3937.321a3.12221,3.12221,0,0,0-.99939.533c-.19988.15143-.54512.38159-.76923.5209a1.56636,1.56636,0,0,0-.41187.30284.945.945,0,0,1-.49666.26045c-.06057-.05451-.38159.1272-.56935.32707a.43292.43292,0,0,0,.01211.72078.52619.52619,0,0,0,.4785.19987c.19382,0,.28467-.03028.315-.09085.03029-.09085.38159-.3089.38159-.24228,0,.01818.103-.01817.23016-.07874a3.59936,3.59936,0,0,1,.49061-.19382,2.27057,2.27057,0,0,0,.71472-.49666c.36947-.34525.47244-.41187.65414-.41187.1696,0,.23017-.03029.28468-.15748a1.00611,1.00611,0,0,1,.61175-.38764,1.10162,1.10162,0,0,0,.34524-.24228A3.66981,3.66981,0,0,1,11.765,8.97567a1.26487,1.26487,0,0,0,.38158-.27862,5.74223,5.74223,0,0,1,.49667-.424,2.4191,2.4191,0,0,0,.41793-.41187c.23622-.30891.36947-.39976.59357-.39976.103,0,.218-.07874.36342-.26045a1.47213,1.47213,0,0,1,.45427-.36947,1.18365,1.18365,0,0,0,.55118-.67231,1.7016,1.7016,0,0,1,.29678-.43,1.46618,1.46618,0,0,0,.43-.93276c.03028-.15142.09691-.4785.14536-.72683a3.7566,3.7566,0,0,0,.09085-.51484c0-.03634-.01211-.23622-.02422-.44215a1.17224,1.17224,0,0,0-.46639-.97516l-.23621-.20594-.36948.06663a.8465.8465,0,0,1-.58752-.02423,1.85848,1.85848,0,0,0-.33918-.11508.87107.87107,0,0,1-.22411-.06057.79051.79051,0,0,0-.43.109,2.00324,2.00324,0,0,1-1.02967.15143,2.27978,2.27978,0,0,0-1.31435.28467,7.37022,7.37022,0,0,1-.739.23622,6.13636,6.13636,0,0,0-.84191.27862c-.212.109-.27862.12114-.41792.06057a.2995.2995,0,0,0-.30285,0,1.80806,1.80806,0,0,1-.56935.0848,2.94028,2.94028,0,0,0-.61175.08479,2.21869,2.21869,0,0,1-1.21744.24228,1.1898,1.1898,0,0,0-.848.0424c-.0848.03028-.18777-.01212-.321-.12114-.103-.09086-.23016-.14537-.27862-.1272-.12114.0424-.33313-.16959-.33313-.32707a1.27363,1.27363,0,0,0-.212-.43c-.22411-.33313-.24833-.41793-.15142-.60569a1.14228,1.14228,0,0,0-.14537-.8722C3.90914.79883,3.75166.62924,3.63052.502A1.554,1.554,0,0,1,3.364.14468C3.31556-.031,2.94607-.04308,2.85523.12046Z"/>

</g>
</svg>
