<?xml version="1.0" encoding="UTF-8"?>
<svg xmlns="http://www.w3.org/2000/svg"
     version="1.1"
     width="53.88015036mm"
     height="50.50584133mm"
     viewBox="0.00000000 0.00000000 152.73114646 143.16620756">

<g transform="scale(3.67920472)">   <defs>
      <style type="text/css"><![CDATA[
      .a {
        stroke: #000;
        stroke-linecap: round;
        stroke-linejoin: round;
        stroke-width: 0.01px;
      }
    ]]></style>
   </defs>
   <path class="a"
         d="M37.75772.15513a2.54729,2.54729,0,0,1-.59963.33313A2.7965,2.7965,0,0,0,35.232,2.80805a1.18708,1.18708,0,0,1-.20594.36342A3.9901,3.9901,0,0,0,34.32952,4.607a.47074.47074,0,0,1-.09085.24228,1.69367,1.69367,0,0,0-.37553.59358,8.73388,8.73388,0,0,1-.53907,1.22955c-.06662.11508-.24228.47244-.39975.7874s-.3816.72077-.50274.90248a6.475,6.475,0,0,0-.61174,1.4052,2.3048,2.3048,0,0,1-.11508.27256c-.03028.06057-.12113.26045-.19987.44216a2.63638,2.63638,0,0,1-.315.53906,2.65877,2.65877,0,0,0-.37553.98728,7.30263,7.30263,0,0,1-.88431,1.51423c-.06663.03028-.11508.09085-.109.13325a1.47446,1.47446,0,0,1-.35735.83585,6.85439,6.85439,0,0,0-.4361.68443A4.93416,4.93416,0,0,1,28.15752,16.43a5.50769,5.50769,0,0,1-1.62931.02423,1.71553,1.71553,0,0,0-.7874.03634,2.08367,2.08367,0,0,1-.59963.09691c-.24834.00606-.71472.02423-1.02968.03634a3.16783,3.16783,0,0,0-.79952.12114,1.13275,1.13275,0,0,1-.57541.06057,2.24624,2.24624,0,0,0-.97516.03634,10.11638,10.11638,0,0,1-1.67776.13931c-.06663-.006-.18777-.006-.27256-.006a1.58986,1.58986,0,0,1-.533-.0424.8039.8039,0,0,0-.36342.03028,2.3008,2.3008,0,0,1-.76922.12114,2.04221,2.04221,0,0,0-.27257,0,2.87365,2.87365,0,0,1-.86008-.06057.79686.79686,0,0,0-.3937-.01211,5.94986,5.94986,0,0,1-1.62325-.03634,3.31,3.31,0,0,0-1.169-.15748,5.2175,5.2175,0,0,1-1.43549.14536,15.33739,15.33739,0,0,0-2.30162.103,11.2965,11.2965,0,0,1-1.82313.01211,1.02656,1.02656,0,0,0-.3937.02423,1.43591,1.43591,0,0,1-.32708.05451c-.03028,0-.35735-.01817-.72683-.03634a7.19675,7.19675,0,0,1-1.02967-.12114,3.25276,3.25276,0,0,0-1.53844-.06671,1.6355,1.6355,0,0,0-.642.642,1.73518,1.73518,0,0,1-.33919.424,1.06654,1.06654,0,0,0-.321.533,2.41738,2.41738,0,0,1-.26651.58146c-.19382.28468-.2241.55118-.07874.72683.06057.07269.17565.09691.45427.0848a1.3303,1.3303,0,0,1,.46033.0424,1.22559,1.22559,0,0,0,.41187.06662,1.984,1.984,0,0,1,.59963.15143,2.50243,2.50243,0,0,0,1.36281.06662,1.20687,1.20687,0,0,1,.41187-.01211,20.17669,20.17669,0,0,0,2.79223-.03634,5.0626,5.0626,0,0,1,.93277-.06057c.46638-.00606.92065-.01211,1.01756-.01817.09085-.00606.19988-.00606.24227-.00606a1.38842,1.38842,0,0,0,.315-.06057,4.12968,4.12968,0,0,1,1.45972-.12114,1.75822,1.75822,0,0,0,.48455-.01211,3.75716,3.75716,0,0,1,1.52029.07268.58563.58563,0,0,0,.55723-.05451,1.7528,1.7528,0,0,1,.5209-.12719.89551.89551,0,0,0,.34524-.06663,1.60856,1.60856,0,0,1,.49667-.0848,2.15925,2.15925,0,0,0,.65414-.14536c.20594-.09691.315-.11508.424-.07269a1.09169,1.09169,0,0,0,.44821,0,12.5366,12.5366,0,0,1,1.35675-.07268,4.34634,4.34634,0,0,1,1.30223.07268,3.82748,3.82748,0,0,0,1.12053.103,8.24351,8.24351,0,0,1,1.1811.06663c.32707.06662.636.19382.636.26045,0,.02422.103.06662.23016.08479a3.97891,3.97891,0,0,1,1.6596.73289c.11508.15748-.0424.6178-.41187,1.1811a2.57859,2.57859,0,0,0-.25439.58752,2.17542,2.17542,0,0,1-.56935.93276l-.15748.17565-.35736-.15748c-.19382-.07873-.48455-.218-.65415-.30284a1.19341,1.19341,0,0,0-.45426-.14537,2.0393,2.0393,0,0,1-.8298-.14537,1.21486,1.21486,0,0,0-.45427-.08479,1.17274,1.17274,0,0,1-.46032-.09691,3.96511,3.96511,0,0,0-1.43549-.21805,3.12375,3.12375,0,0,1-.70866-.0848,1.00235,1.00235,0,0,0-.37553-.05451.568.568,0,0,1-.32707-.07268c-.16354-.09692-.23622-.103-.745-.03635-.315.0424-.64809.07269-.73894.07269a6.47818,6.47818,0,0,0-1.1811.23622,3.53153,3.53153,0,0,1-.60569.07268,1.68116,1.68116,0,0,0-.97517.27256c-.24227.16354-.28467.16959-.58146.0424a.7851.7851,0,0,0-.43-.05451.689.689,0,0,1-.36947-.04846,1.39722,1.39722,0,0,0-.65415-.06057,21.30234,21.30234,0,0,1-2.86492-.07268.31208.31208,0,0,0-.19987.03028c-.0848.04846-.16354.0424-.29074-.03028a.98434.98434,0,0,0-.72682-.03634.512.512,0,0,1-.34525-.00606,1.098,1.098,0,0,0-.78134.03634,3.95435,3.95435,0,0,1-.52089.24834,2.90767,2.90767,0,0,0-.59358.33918,1.67207,1.67207,0,0,0-.46033.90248,1.03692,1.03692,0,0,1-.15142.50878.263.263,0,0,0-.06057.15748,1.327,1.327,0,0,1-.4361.642,2.04234,2.04234,0,0,0-.59963.55118c0,.02423-.01817.12114-.03028.212a.58371.58371,0,0,0,.2665.55723,1.18789,1.18789,0,0,0,.7874-.25439c.11508-.11508.18171-.12719.56935-.09691a1.52308,1.52308,0,0,0,.82979-.12114,3.30827,3.30827,0,0,1,.68444-.19382c.15747-.02423.29073-.06057.29073-.0848,0-.08479.32707-.17565.73894-.20593a2.35739,2.35739,0,0,0,.527-.09085,1.83086,1.83086,0,0,1,.533-.0848,1.83108,1.83108,0,0,0,.50272-.07268c.1272-.07874.34525-.103,1.15082-.12114a5.19266,5.19266,0,0,0,.99939-.09086A8.459,8.459,0,0,1,13.5,25.20648c.212,0,.26044,0,.33313-.00606a1.79107,1.79107,0,0,1,.28467.05451,1.99737,1.99737,0,0,0,.60569,0c.218-.02423.65415-.06057.96911-.07874s.6602-.0424.75711-.05451a.91061.91061,0,0,1,.45427.11508,3.4669,3.4669,0,0,0,1.60508.16354,15.18735,15.18735,0,0,1,1.99272.2241,1.17222,1.17222,0,0,0,.39976.03634.32456.32456,0,0,1,.24833.0848,1.13713,1.13713,0,0,0,.65415.19382.62279.62279,0,0,1,.24228.04846c.08479.03028.35735.11508.59963.18776.43.1272.533.21805.58752.49061a3.88536,3.88536,0,0,1-.37553,1.28407,1.8263,1.8263,0,0,0-.16959.56329,1.56116,1.56116,0,0,1-.27256.69654c-.315.52695-.34525.55118-.54512.50878a1.04181,1.04181,0,0,0-.71472-.01211.47873.47873,0,0,1-.32707.0424,2.13962,2.13962,0,0,0-.57541-.00606c-.62386.06057-.99939.03634-1.06-.07874-.0424-.07268-.109-.09085-.27862-.06057A3.01411,3.01411,0,0,1,17.873,29.628a2.33117,2.33117,0,0,0-.93882-.03634,1.78313,1.78313,0,0,1-1.00544-.03029.7295.7295,0,0,0-.30891-.07874,5.03925,5.03925,0,0,1-.72077.06057,4.99206,4.99206,0,0,0-.90248.09691.95636.95636,0,0,1-.69049-.02422,2.34494,2.34494,0,0,0-.54512-.109,4.04462,4.04462,0,0,1-1.06-.212,4.94065,4.94065,0,0,0-1.21744,0,.54031.54031,0,0,0-.36341.218,4.37988,4.37988,0,0,1-.963.98728,2.69287,2.69287,0,0,0-.86008.89036.65324.65324,0,0,1-.20594.26045,2.10556,2.10556,0,0,0-.43609.88431,2.19066,2.19066,0,0,1-.18777.424.75736.75736,0,0,0-.103.29679c-.00606.15748-.16354.29679-.3937.34525a2.30443,2.30443,0,0,0-.79353.36341,1.75292,1.75292,0,0,1-.53906.24227c-.11508.01818-.33919.07269-.49061.11509a1.55938,1.55938,0,0,1-1.10842-.109A.85842.85842,0,0,1,3.518,33.6256c-.09691-.3513.01817-.61175.46032-1.07207a7.23823,7.23823,0,0,0,.58147-.66626.95809.95809,0,0,1,.957-.39976c.18171.01212.43.01817.54512.01212a2.68845,2.68845,0,0,1,.72683.04845,1.3306,1.3306,0,0,0,1.03573-.27256A.42534.42534,0,0,0,8.00014,30.9a.51293.51293,0,0,0-.06662-.28467.42447.42447,0,0,1-.07874-.22411.74869.74869,0,0,0-.25439-.37553c-.13326-.11508-.34525-.315-.4785-.44215a2.23775,2.23775,0,0,0-1.32041-.59964.84229.84229,0,0,1-.40581-.04845,1.73383,1.73383,0,0,0-1.41126.4361.66706.66706,0,0,1-.25441.14537,1.15038,1.15038,0,0,0-.32707.19382c-.13326.109-.36947.29073-.5209.40582a1.67543,1.67543,0,0,0-.424.48455,3.1313,3.1313,0,0,1-.50272.642,2.49663,2.49663,0,0,0-.73893,1.23566c0,.15748-.09085.32707-.33313.59964-.13931.15747-.19988.52089-.2665,1.56873a.32434.32434,0,0,1-.09086.212,1.59768,1.59768,0,0,0-.1817.73894.51991.51991,0,0,1-.17565.3089c-.15748.12114-.16354.14537-.16354.76923,0,.4785.02423.6602.07874.69654a.751.751,0,0,1,.19382.22411,1.11955,1.11955,0,0,0,.38764.29073,1.61433,1.61433,0,0,1,.37553.218c.05451.05451.23016.212.38764.34525s.33313.29074.38765.34525a.533.533,0,0,0,.315.12114A5.73272,5.73272,0,0,0,3.518,38.671a2.61883,2.61883,0,0,1,.45427-.11508,2.6466,2.6466,0,0,0,.93276-.22411,4.00072,4.00072,0,0,1,.56329-.3089c.29679-.13931.4785-.26651.50273-.34525a.51023.51023,0,0,1,.26044-.218,1.4053,1.4053,0,0,0,.70261-.57541,1.03533,1.03533,0,0,1,.38157-.36954,3.114,3.114,0,0,0,1.19321-1.06.68664.68664,0,0,1,.212-.24834,1.72238,1.72238,0,0,0,.321-.50272,3.25867,3.25867,0,0,1,.30285-.53906,1.31213,1.31213,0,0,0,.19987-.29679,1.56311,1.56311,0,0,1,.18171-.28468.57794.57794,0,0,0,.103-.13931c.02423-.07268.23016-.12113.59358-.14536a1.00573,1.00573,0,0,0,.751-.28468c.19382-.212.23622-.218.41793-.02421.13325.15142.16959.15747,1.01756.1817,1.48394.03634,1.64748.0424,2.14415.03634a3.00392,3.00392,0,0,1,1.09024.09085,4.19782,4.19782,0,0,0,1.387-.02423,1.20633,1.20633,0,0,1,.59964,0,.9235.9235,0,0,0,.36947.03634.80443.80443,0,0,1,.41187.05451,4.22713,4.22713,0,0,0,.7874.15143,2.12124,2.12124,0,0,1,.957.25439c.37553.20593.43.26044.37553.38764-.02423.07268.006.07874.17565.04845a2.91038,2.91038,0,0,1,.29679-.03634,8.39289,8.39289,0,0,0,.98121-.05451.71579.71579,0,0,0,.15748-.27256,1.112,1.112,0,0,1,.18777-.3089,4.40693,4.40693,0,0,1,1.76256-.06057,3.40509,3.40509,0,0,0,.84191-.03634,6.35038,6.35038,0,0,1,1.68988-.03025,1.02062,1.02062,0,0,0,.48455-.01817,6.678,6.678,0,0,1,.98122-.09085c.92671-.03029,1.07207-.04846,1.24772-.14537a.71823.71823,0,0,1,.58147.0848.69752.69752,0,0,0,.28467.06662,1.33975,1.33975,0,0,1,.38764.0848,7.55023,7.55023,0,0,0,1.94427-.06057.3248.3248,0,0,1,.32708.05451.32738.32738,0,0,0,.36341.04846c.15142-.06057.212-.04846.3937.06057a1.65689,1.65689,0,0,0,.72077.16354,7.88675,7.88675,0,0,1,.8298.09691,6.366,6.366,0,0,0,.83585.05451c.52695,0,.93277.13325,1.00545.321a1.28293,1.28293,0,0,1-.24832.49667c-.15748.2241-.321.46638-.36949.53907s-.14535.19382-.218.27861c-.53907.62992-.46033,1.18716.1817,1.33252a.83336.83336,0,0,0,.90248-.24833,1.58584,1.58584,0,0,1,.34525-.2665.26346.26346,0,0,0,.14536-.14537.67429.67429,0,0,1,.26041-.23623,2.76252,2.76252,0,0,0,.46638-.3513c.13325-.12114.33919-.315.46033-.424a1.45018,1.45018,0,0,0,.29073-.36947.6038.6038,0,0,1,.212-.26044,4.56544,4.56544,0,0,0,.94489-.89642.66332.66332,0,0,1,.19987-.27863.93487.93487,0,0,0,.24833-.35736c.01817-.09085.06662-.16354.103-.16354s.04846-.02422.02422-.0545c-.01817-.03029.00607-.09086.04846-.13931a1.6953,1.6953,0,0,0,.29679-.86614.92732.92732,0,0,0-.12114-.45426.86018.86018,0,0,1-.13325-.30891c0-.04845-.109-.15748-.24228-.23016a.9753.9753,0,0,1-.3513-.3513,1.36659,1.36659,0,0,0-.33313-.40581.76375.76375,0,0,0-.58145-.19382,1.50729,1.50729,0,0,1-.4785-.07874,3.60361,3.60361,0,0,0-1.10841-.15143,1.52221,1.52221,0,0,1-.40582-.06057,5.05094,5.05094,0,0,0-1.76257-.06056.67866.67866,0,0,1-.37553.01817,4.895,4.895,0,0,0-1.47787.07268,3.40637,3.40637,0,0,1-.48455.09085c-.35132.02423-.69655.06663-.93884.109a2.70368,2.70368,0,0,1-1.35674-.02423,1.29663,1.29663,0,0,0-.38159-.109,2.46259,2.46259,0,0,1-.67836-.103,1.03743,1.03743,0,0,0-.3937.11508.98713.98713,0,0,1-.36342.11508,1.28869,1.28869,0,0,0-.38159-.04846c-.19381-.01211-.50272-.03634-.69049-.06056a.77137.77137,0,0,0-.52089.04845c-.103.05451-.19988.0848-.212.06663a2.67681,2.67681,0,0,0-.44821-.06057,1.12108,1.12108,0,0,0-.70261.103.86679.86679,0,0,1-.69049.06662c-.33313-.05451-.43609-.04845-.5754.01817a1.164,1.164,0,0,1-.81163.0424c-.43-.11508-.51483-.43-.218-.83585a1.00385,1.00385,0,0,0,.19988-.66626A2.19717,2.19717,0,0,1,25.111,26.9872a.97107.97107,0,0,0,.23016-.33313,5.94781,5.94781,0,0,1,.36948-1.20533,1.93212,1.93212,0,0,0,.15748-.424,1.43263,1.43263,0,0,1,.218-.424,6.84307,6.84307,0,0,0,.3937-.72682c.212-.46639.30285-.54513.61175-.54513.1272,0,.23016-.02422.23016-.05451s.06057-.07874.1272-.09691a2.80933,2.80933,0,0,0,.90854-1.19321,3.00205,3.00205,0,0,1,.90853-1.0539.634.634,0,0,0,.29073-.24834.69026.69026,0,0,1,.34525-.2665.63008.63008,0,0,0,.41187-.642,1.11967,1.11967,0,0,1,.32707-.62386,1.50087,1.50087,0,0,0,.43-1.45366,1.2611,1.2611,0,0,0-.56935-.81769c-.37553-.19987-.37553-.25439.03634-.99939a3.58058,3.58058,0,0,0,.33313-.71471,2.53623,2.53623,0,0,1,.38159-.73894.31263.31263,0,0,0,.04845-.15143,1.86169,1.86169,0,0,1,.33313-.957,5.1261,5.1261,0,0,0,.33313-.59963,2.69227,2.69227,0,0,1,.38765-.60569,2.38573,2.38573,0,0,0,.47849-.93882,1.61327,1.61327,0,0,1,.49667-.77529,1.95974,1.95974,0,0,0,.533-.90854.65022.65022,0,0,1,.18171-.29073,2.46609,2.46609,0,0,0,.6057-.90248,1.75858,1.75858,0,0,1,.23016-.44821,2.71625,2.71625,0,0,0,.23016-.38764,10.8543,10.8543,0,0,1,.98728-1.81707,2.05143,2.05143,0,0,0,.30284-.4785,1.27983,1.27983,0,0,1,.13931-.30285,1.69778,1.69778,0,0,0,.15142-.29678.32493.32493,0,0,1,.13931-.17565,2.4882,2.4882,0,0,0,.57541-.92671,3.74744,3.74744,0,0,1,.35736-.64809c.103-.13931.27256-.38764.36947-.55724a1.18682,1.18682,0,0,1,.22409-.3089.98258.98258,0,0,0,.19988-.30284,1.03186,1.03186,0,0,1,.23622-.33919.84867.84867,0,0,0,.25438-.65413.72777.72777,0,0,0-.2665-.321,1.78613,1.78613,0,0,1-.27256-.24228C38.47849.04,38.33918.00976,38.17565.00976A.4837.4837,0,0,0,37.75772.15513Z"/>

</g>
</svg>
