<?xml version="1.0" encoding="UTF-8"?>
<svg xmlns="http://www.w3.org/2000/svg"
     version="1.1"
     width="11.89248851mm"
     height="40.13648234mm"
     viewBox="0.00000000 0.00000000 33.71104268 113.77263875">

<g transform="scale(4.36982859)">   <defs>
      <style type="text/css"><![CDATA[
      .a {
        stroke: #000;
        stroke-linecap: round;
        stroke-linejoin: round;
        stroke-width: 0.01px;
      }
    ]]></style>
   </defs>
   <path class="a"
         d="M5.21683.2967c-.16959.15748-.48455.41793-.69654.58147a2.79194,2.79194,0,0,0-.55118.56329c-.09691.14536-.19988.26044-.23016.26044s-.05452.09086-.05452.20594a.95659.95659,0,0,1-.30284.72077,2.34431,2.34431,0,0,0-.33313.49667,1.91758,1.91758,0,0,1-.28468.43.34906.34906,0,0,0-.109.19988,2.84751,2.84751,0,0,1-.26651.58146,5.31,5.31,0,0,0-.78739,1.7989c.07268.109-.06057.29679-.30285.44216a1.78016,1.78016,0,0,0-.71471.89642,3.06494,3.06494,0,0,1-.38765.60569c-.23016.26651-.23016.27256-.11508.93882.03634.24834.14537.321.44821.29679a.85741.85741,0,0,0,.79952-.51484A5.28615,5.28615,0,0,1,1.66143,8.304a1.80975,1.80975,0,0,0,.23016-.4361,2.04205,2.04205,0,0,1,.3089-.50272c.17565-.18777.22411-.212.32707-.15143a.70789.70789,0,0,1,.33313.53907.617.617,0,0,0,.14537.32707,4.06037,4.06037,0,0,1,.54512,1.34461.94921.94921,0,0,0,.11508.36947c.0424.07268.07874.15748.06663.1817a.73008.73008,0,0,0,.09691.26045,1.87072,1.87072,0,0,1,.12719.7874,1.94257,1.94257,0,0,0,.11509.77528.906.906,0,0,1,.09691.315,1.13615,1.13615,0,0,0,.103.33919c.09691.19988.09691.23016-.00605.50878a1.5044,1.5044,0,0,0-.09086.38159,1.53042,1.53042,0,0,1-.20593.67837c-.06663.09085-.07269.17565-.02423.3937a5.13045,5.13045,0,0,1-.07268,1.811,2.60463,2.60463,0,0,0-.15143.82979,1.166,1.166,0,0,1-.14536.3937,1.4956,1.4956,0,0,0-.15142.60569,3.85083,3.85083,0,0,1-.17565.848,2.42814,2.42814,0,0,0-.13931.7874c.01817.41187-.0424.533-.30891.642-.23016.09691-.2665.2665-.12113.55724a.71237.71237,0,0,1-.05452.86613,3.26968,3.26968,0,0,0-.50878,1.11448,4.87463,4.87463,0,0,1-.27861.73894,2.85159,2.85159,0,0,0-.212.533.76255.76255,0,0,1-.09691.27861.46843.46843,0,0,0-.06662.25439,2.515,2.515,0,0,1-.01817.49061c-.06057.5633.03634.79346.36947.848.32707.05451.46032-.01817.61175-.32707.12113-.23622.20593-.3089.67837-.55118.4361-.22411.55118-.3089.6178-.4785a1.9716,1.9716,0,0,1,.15748-.29073.39208.39208,0,0,0,.0848-.17565.53011.53011,0,0,1,.103-.18776.2191.2191,0,0,0,.05451-.18777,1.37268,1.37268,0,0,1,.13931-.45426c.09085-.19988.212-.4785.27256-.61175a1.84637,1.84637,0,0,0,.23016-.96911,1.1802,1.1802,0,0,1,.15748-.68443,2.16264,2.16264,0,0,0,.1877-.5452,1.80029,1.80029,0,0,1,.08479-.3937,1.84784,1.84784,0,0,0,.09086-.424,1.72928,1.72928,0,0,1,.18776-.55724c.32707-.59358.35736-.66626.3513-.848-.00605-.09691-.01817-.34524-.02423-.54512a1.07122,1.07122,0,0,1,.09692-.57541,1.8323,1.8323,0,0,0,.12719-.76923,1.96993,1.96993,0,0,1,.103-.72682,3.589,3.589,0,0,0,.315-1.0539.26625.26625,0,0,1,.03634-.18777,1.143,1.143,0,0,0,.09691-.3513,3.68385,3.68385,0,0,1,.04845-.3937c.01212-.103.0424-.34524.06057-.54512a3.97513,3.97513,0,0,1,.07269-.51484c.06057-.23016.06057-.2665.00605-.36947A.25406.25406,0,0,1,6.8341,12.041a.32577.32577,0,0,0,.08479-.24228.48438.48438,0,0,1,.06663-.28467,1.7324,1.7324,0,0,0,.12114-.53907A4.0319,4.0319,0,0,1,7.355,9.86654,1.97327,1.97327,0,0,0,7.22773,8.413c-.103-.212-.103-.2241.01817-.424.07268-.109.212-.36947.315-.57541.14536-.29073.17565-.40581.12719-.49061-.03634-.06662-.04845-.13325-.02423-.15142a2.49246,2.49246,0,0,0-.07268-1.10236,2.01119,2.01119,0,0,1-.09085-.75711c.00605-.24834.01817-.527.01817-.61781a.64858.64858,0,0,0-.13325-.32707c-.11509-.14537-.1272-.212-.09086-.50272a1.838,1.838,0,0,1,.109-.59964,4.97311,4.97311,0,0,0,.03028-.88431,1.14029,1.14029,0,0,0-.12114-.3513.52813.52813,0,0,1-.08479-.29073.908.908,0,0,0-.22411-.3937c-.14537-.18776-.321-.424-.39976-.533A.85572.85572,0,0,0,5.83464.006C5.556.006,5.50151.03625,5.21683.2967Z"/>

</g>
</svg>
