<?xml version="1.0" encoding="UTF-8"?>
<svg xmlns="http://www.w3.org/2000/svg"
     version="1.1"
     width="58.42694471mm"
     height="47.91956036mm"
     viewBox="0.00000000 0.00000000 165.61969545 135.83496260">

<g transform="scale(5.10555451)">   <defs>
      <style type="text/css"><![CDATA[
      .a {
        stroke: #000;
        stroke-linecap: round;
        stroke-linejoin: round;
        stroke-width: 0.01px;
      }
    ]]></style>
   </defs>
   <path class="a"
         d="M9.92715.03514a2.70753,2.70753,0,0,0-.533.19988,1.62737,1.62737,0,0,1-.40581.16353,1.7178,1.7178,0,0,0-.44215.212,1.56975,1.56975,0,0,1-.48456.212.942.942,0,0,0-.66626.43.92032.92032,0,0,1-.32707.321,2.92639,2.92639,0,0,0-.49667.40581c-.13931.14536-.38158.38764-.54512.527-.16353.14537-.321.29073-.35736.32707-.03028.03634-.14536.14537-.24833.25439a7.71775,7.71775,0,0,0-.59963.73289,6.07719,6.07719,0,0,1-.5633.67837c-.09085.06663-.14536.14537-.12113.1696s.01211.103-.02423.17565a.69369.69369,0,0,0-.0848.19382,1.83319,1.83319,0,0,1-.15748.30284,1.27783,1.27783,0,0,0-.24227.58752,2.756,2.756,0,0,1-.55118,1.2659l-.18171.23016.15748.23016a.895.895,0,0,1,.16354.33313c0,.05452.02422.103.05451.103.09085,0,.27256.32707.26045.46033-.01818.23622.1817.34524.5754.30284.19382-.01817.40581-.03634.47244-.03634.22411-.01211.38159-.16959.48455-.51484a.70717.70717,0,0,0-.01211-.6602c-.13325-.35736-.09085-.57541.13325-.76317a1.01908,1.01908,0,0,0,.212-.33313,4.05006,4.05006,0,0,1,1.03573-1.0963.55451.55451,0,0,0,.23017-.25439,1.91318,1.91318,0,0,1,.3755-.46038,1.40248,1.40248,0,0,0,.29679-.33914c0-.06663.19383-.17566.4361-.24834.15142-.0424.20594-.01817.41187.17565.23622.22411.533.86008.45427.98122a.25105.25105,0,0,0,.03634.19382,1.34182,1.34182,0,0,1,.0848.47244,1.57507,1.57507,0,0,0,.19383.69651,1.74518,1.74518,0,0,1,.14537,1.175.40705.40705,0,0,0-.00606.26044.57383.57383,0,0,1-.50878.71472c-.09691,0-.35736.40581-.321.50878.03029.0848-.12719.39976-.19988.39976a1.136,1.136,0,0,0-.54512.58146.50524.50524,0,0,1-.41792.424c-.23017.04846-.38159.3513-.39976.81163-.01817.3937.0424.533.57541,1.25984a2.111,2.111,0,0,1,.27861.5754,7.37672,7.37672,0,0,0,.3937,1.07208A7.4197,7.4197,0,0,1,8.66734,16.413a1.09316,1.09316,0,0,1-.15142.36948,1.03322,1.03322,0,0,0,.03029,1.10235.96.96,0,0,1,.09085.93277.86815.86815,0,0,0-.02423.59963c.0424.18171.0848.43.09691.54512.02423.26651.07269,1.66565.06663,1.90793a4.48965,4.48965,0,0,0,.07268.90854.57261.57261,0,0,1-.01817.212,8.95764,8.95764,0,0,0-.06057,1.01756,2.85936,2.85936,0,0,1-.09085.93276c-.103.103-.09086.26651.04845.67232.24228.73289.34525.7874,1.60509.854.70865.03634.91459-.02423,1.175-.36342a1.459,1.459,0,0,1,.33313-.33919,2.09778,2.09778,0,0,1,.80556-.16959,1.39123,1.39123,0,0,0,.76318-.34524,1.14979,1.14979,0,0,1,.36341-.17565,2.44929,2.44929,0,0,0,.52089-.24228c.24228-.16354.37553-.12114.49061.15748.05452.13325.17565.23016.45427.36341a1.04952,1.04952,0,0,0,.73289.14537,1.54176,1.54176,0,0,0,.38158-.06057.65467.65467,0,0,1,.24229.09085.97042.97042,0,0,0,.79951.109c.20594-.04846.26651-.0424.40582.06057a7.17077,7.17077,0,0,0,1.31434.59963,4.18156,4.18156,0,0,0,.48456.05451c.16959.01212.44215.03635.6178.06057a1.66856,1.66856,0,0,0,.533-.02422c.18776-.04846.26045-.03635.52089.09691a.68047.68047,0,0,0,.46639.109,5.38162,5.38162,0,0,1,.82979-.03028c.58147.01211,1.37492.01211,1.84736.006a2.08039,2.08039,0,0,0,.33919-.06662,3.06057,3.06057,0,0,1,.66626-.07874,1.4674,1.4674,0,0,0,.97516-.30285,1.73419,1.73419,0,0,1,.71472-.28467.78.78,0,0,0,.39975-.1272,1.12659,1.12659,0,0,1,.27862-.14536,2.42524,2.42524,0,0,0,.2665-.07874c.09086-.03635.18171-.04846.19988-.03029.12114.12114.3937.0424.90248-.26045a5.17472,5.17472,0,0,1,.59964-.32707,5.02317,5.02317,0,0,0,1.04784-.69654c.103-.09691.24833-.23622.33313-.30891.14537-.12113.20594-.20593.54512-.79951a1.02589,1.02589,0,0,1,.28468-.33313,1.29206,1.29206,0,0,0,.315-.4361c.15747-.3089.17565-.39369.12719-.54512a.5279.5279,0,0,0-.6178-.33918,1.96593,1.96593,0,0,1-.55724.03634c-.2241-.01212-.39975,0-.39975.03634a1.00527,1.00527,0,0,1-.34525.218c-.19382.08479-.41792.19382-.50272.23622a.27478.27478,0,0,1-.24228.02422c-.109-.06662-.315-.02422-.61175.1272a1.23714,1.23714,0,0,1-.48455.109c-.14536.00606-.34524.01212-.44821.01817a2.44935,2.44935,0,0,1-.527-.09085,1.45579,1.45579,0,0,0-1.25984.16354,1.52,1.52,0,0,1-1.07207.19382,3.40886,3.40886,0,0,1-.68443-.06663,2.75938,2.75938,0,0,0-.89037-.11508,2.14258,2.14258,0,0,1-.54512-.11508,2.13431,2.13431,0,0,0-.533-.15142c-.19988-.03634-.47849-.09086-.62386-.12114a2.6496,2.6496,0,0,0-.59358-.03634,1.62135,1.62135,0,0,1-.60569-.06663,1.84779,1.84779,0,0,0-.44215-.09085.66916.66916,0,0,1-.33313-.1272c-.14537-.11508-.212-.12719-.55118-.09085a.93.93,0,0,1-.62992-.0848.62986.62986,0,0,0-.44821-.09085c-.19382.03634-.24228.01817-.53907-.26651a1.60973,1.60973,0,0,0-.38764-.3089,1.00006,1.00006,0,0,1-.30284-.1817,1.06727,1.06727,0,0,0-.30285-.18171,4.39438,4.39438,0,0,1-.90854-.70866.84564.84564,0,0,0-.36341-.23016c-.09691-.01817-.28468-.06663-.41793-.109a1.387,1.387,0,0,0-.33313-.06057c-.04845.00606-.2665.02423-.48455.03634-.52695.03029-.99333.23622-1.09024.47244a.95249.95249,0,0,1-.70261.50878c-.52089.15143-.76317-.006-.636-.41187a5.47216,5.47216,0,0,0,.12719-.72077,2.83969,2.83969,0,0,1,.13931-.69654,1.20619,1.20619,0,0,0,.03634-.66626,1.75408,1.75408,0,0,1,.02423-.72683,1.98221,1.98221,0,0,0-.00606-1.01756.83824.83824,0,0,1,.09086-.58752c.15748-.3937.16959-.5633.05451-.76923-.06663-.12114-.06057-.18776.03634-.44821a2.79959,2.79959,0,0,0-.07874-1.88976.8572.8572,0,0,1-.23622-.642.9046.9046,0,0,0,.02423-.3937c-.01817-.16354-.03028-.36341-.03634-.44821a.41573.41573,0,0,0-.06057-.23016.69352.69352,0,0,1-.07874-.33313,1.85618,1.85618,0,0,0-.84191-1.2235c-.27862-.18171-.30285-.30284-.109-.52695a4.18483,4.18483,0,0,0,.70866-1.44155c.06057-.1817.13326-.39975.16354-.48455a1.89628,1.89628,0,0,0,.09085-.3937,2.093,2.093,0,0,1,.13931-.50272,3.87048,3.87048,0,0,0,.212-1.35069,1.80933,1.80933,0,0,1,.08479-.5209c.03029-.06662.04241-.1393.02423-.16353a.54417.54417,0,0,1,.04241-.27256c.06662-.218.06056-.27256-.12115-.73895-.17564-.46638-.18777-.52089-.11508-.73288a.46971.46971,0,0,0-.02423-.44821.5294.5294,0,0,1-.07874-.26045c.01818-.02423-.0424-.1272-.13325-.22411a3.18289,3.18289,0,0,1-.27256-.33918,2.248,2.248,0,0,0-.4361-.41793.96215.96215,0,0,0-.76923-.26045A3.58041,3.58041,0,0,0,9.92715.03514Z"/>
   <path class="a"
         d="M.03016,18.47841c-.06663.16354.01211.22411.0848.06663.0424-.09691.04845-.15748.00605-.15748C.09073,18.38756.04833,18.43.03016,18.47841Z"/>

</g>
</svg>
