<?xml version="1.0" encoding="UTF-8"?>
<svg xmlns="http://www.w3.org/2000/svg"
     version="1.1"
     width="35.77927254mm"
     height="21.21392651mm"
     viewBox="0.00000000 0.00000000 101.42150927 60.13398896">

<g transform="scale(3.67920472)">   <defs>
      <style type="text/css"><![CDATA[
      .a {
        stroke: #000;
        stroke-linecap: round;
        stroke-linejoin: round;
        stroke-width: 0.01px;
      }
    ]]></style>
   </defs>
   <path class="a"
         d="M25.98331.07951a2.00732,2.00732,0,0,0-.54515.23622.91378.91378,0,0,1-.36948.16354,1.98516,1.98516,0,0,0-.8843.50272c-.14537.16354-.24228.19382-.66626.24228a.45507.45507,0,0,0-.18777.04846c-.01211.01211-.109.1393-.212.27256a.9047.9047,0,0,0-.19382.39975c0,.315.50272.7026,1.02967.80557.38765.07268.424.09691.55724.3513a1.08428,1.08428,0,0,0,.18776.29679.32733.32733,0,0,1,.07874.22411.68858.68858,0,0,0,.05451.24833,1.32348,1.32348,0,0,1-.08479.84191c-.13931.36947-.19382.44215-.3513.46033a2.37121,2.37121,0,0,0-.44821.16353A.749.749,0,0,1,23.403,5.452a3.2266,3.2266,0,0,0-1.06.03634,1.163,1.163,0,0,1-.90853-.09691.82261.82261,0,0,0-.321-.12719.83754.83754,0,0,1-.33313-.15142c-.16353-.11508-.25439-.13326-.35736-.09691a1.271,1.271,0,0,1-.90248-.15143c-.33918-.16959-.50878-.1817-1.805-.12719a7.22443,7.22443,0,0,0-1.72622.2241,1.41984,1.41984,0,0,1-.75712.03635,4.71529,4.71529,0,0,0-1.89581.07873,1.45964,1.45964,0,0,1-.424.1272,1.71569,1.71569,0,0,0-.46639.15748,2.217,2.217,0,0,1-.72683.18776,3.032,3.032,0,0,0-.72682.15143,3.14658,3.14658,0,0,1-.51484.15142.71122.71122,0,0,0-.27256.109,3.09768,3.09768,0,0,1-.92065.41793c-.24228.07874-.59964.218-.79346.30285a2.19642,2.19642,0,0,1-.4361.15748c-.04845,0-.09085.02422-.09085.04845a1.563,1.563,0,0,1-.636.315c-.04845,0-.09085.03028-.09085.06057,0,.03634-.12114.11508-.2665.18171a.58435.58435,0,0,0-.30285.23016.52468.52468,0,0,1-.17565.212,3.33421,3.33421,0,0,0-.34524.28468,2.73341,2.73341,0,0,1-.44821.315,2.9367,2.9367,0,0,0-.6057.50272,2.22,2.22,0,0,1-.52089.424c-.212.06057-.36341.212-.36341.34525,0,.109-.22411.3513-.87826.94487-.17565.15748-.27256.29074-.24833.34525a.21572.21572,0,0,1-.07268.18776c-.05451.06057-.09691.11508-.0848.1272.0424.06057-.01211.12719-.18171.23016a1.27626,1.27626,0,0,0-.321.2665c-.06663.0848-.19382.22411-.27862.321a1.02608,1.02608,0,0,0-.20594.28468.25909.25909,0,0,1-.1393.15747,1.4751,1.4751,0,0,0-.55724.50273.74618.74618,0,0,1-.19988.27862,1.65579,1.65579,0,0,0-.46638.62991A1.22813,1.22813,0,0,0,.7259,14.38c.14537.23622.14537.2665.06057.35736a.25237.25237,0,0,1-.24227.06057C.42306,14.76759.36855,14.81.205,15.04015a.83223.83223,0,0,0-.18171.71472c0,.06057.11508.16353.24833.23016.19988.103.26651.109.38159.05451.23622-.12114.40581-.315.40581-.46032a1.58166,1.58166,0,0,1,.40582-.79346c.1393-.13931.15748-.212.16353-.59963.00606-.41793.01817-.45427.20594-.62992a.87913.87913,0,0,0,.19382-.22411,1.70064,1.70064,0,0,1,.47849-.49666c.03029,0,.07269-.06663.09086-.14537a3.21018,3.21018,0,0,1,.81768-.88431c.11508,0,.4361-.321.5209-.527a1.48747,1.48747,0,0,1,.321-.41793,5.011,5.011,0,0,0,.50272-.53906,2.44629,2.44629,0,0,1,1.04179-.75711,1.11425,1.11425,0,0,0,.3937-.29074,4.26028,4.26028,0,0,1,.53907-.43609.8121.8121,0,0,0,.315-.33313c.0424-.1272.16353-.23622.38158-.35736a2.95892,2.95892,0,0,0,.4361-.29073.2352.2352,0,0,1,.24228-.0848A1.15664,1.15664,0,0,0,8.57569,7.681c.54512-.20594.67837-.23622.87219-.19988a.68005.68005,0,0,0,.46639-.1272.71649.71649,0,0,1,.55723-.12114.51549.51549,0,0,0,.41793-.06056,1.10966,1.10966,0,0,1,.321-.1272.36217.36217,0,0,0,.212-.09691,4.784,4.784,0,0,1,1.57479-.103,3.33358,3.33358,0,0,0,.89037-.08479c.19988-.07269.27256-.07269.35736-.01212a2.126,2.126,0,0,0,.98727.18777,1.70829,1.70829,0,0,1,.78134.17565,1.17369,1.17369,0,0,0,.4846.15142,1.54227,1.54227,0,0,1,.78134.17565c.01211.03634.08479.04846.16353.03028.17566-.04239.55118.07269.59358.18171.01817.04846.18777.09086.424.11508a1.94951,1.94951,0,0,1,.62991.16354,2.40925,2.40925,0,0,0,.37553.15142.55148.55148,0,0,1,.19988.07269,2.41266,2.41266,0,0,0,.98728.00605,3.94267,3.94267,0,0,1,.71471-.07268c.46033-.00606.47244-.01211.67838-.23622.1817-.19382.23016-.218.33313-.16354a.74337.74337,0,0,0,.73894-.18776,1.44069,1.44069,0,0,1,.36949-.23622c.09085-.03029.24228-.09085.33919-.1272a1.98032,1.98032,0,0,0,.73288-.6602c0-.03634.1272-.12114.27862-.18776a1.91315,1.91315,0,0,0,.38159-.22411,3.72459,3.72459,0,0,1,1.0539-.76317,1.27323,1.27323,0,0,0,.636-.51484,2.40242,2.40242,0,0,0,.19382-.3513,1.0146,1.0146,0,0,1,.13325-.26044,2.53188,2.53188,0,0,0,.2241-.51484,8.37736,8.37736,0,0,0,.03029-2.36825,1.46062,1.46062,0,0,0-.5209-.92065A1.24534,1.24534,0,0,1,26.66168.128C26.52237-.02345,26.42546-.02951,25.98331.07951Z"/>
   <path class="a"
         d="M12.537,7.50529c.01817.03028.04845.06056.06662.06056.01212,0,.02423-.03028.02423-.06056a.06226.06226,0,0,0-.06376-.06071l-.00286.00014C12.53091,7.44472,12.5188,7.46894,12.537,7.50529Z"/>
   <path class="a"
         d="M10.91977,16.3302a.31962.31962,0,0,0,.15143,0c.03634-.01817.00605-.03028-.07874-.03028S10.87737,16.312,10.91977,16.3302Z"/>

</g>
</svg>
