<?xml version="1.0" encoding="UTF-8"?>
<svg xmlns="http://www.w3.org/2000/svg"
     version="1.1"
     width="17.11326889mm"
     height="50.37905593mm"
     viewBox="0.00000000 0.00000000 48.51001994 142.80674926">

<g transform="scale(3.67920472)">   <defs>
      <style type="text/css"><![CDATA[
      .a {
        stroke: #000;
        stroke-linecap: round;
        stroke-linejoin: round;
        stroke-width: 0.01px;
      }
    ]]></style>
   </defs>
   <path class="a"
         d="M4.86053.09585A.49872.49872,0,0,1,4.588.25333c-.14537.04846-.23622.109-.23622.1696A1.14152,1.14152,0,0,1,4.17.78634a.99205.99205,0,0,0-.18166.38766A2.95621,2.95621,0,0,1,3.2555,2.37933a3.8124,3.8124,0,0,1-.93277.75106,2.6167,2.6167,0,0,0-.43.3513,4.36975,4.36975,0,0,1-.58752.47849A1.23687,1.23687,0,0,0,.96,4.2388a.57645.57645,0,0,1-.11508.18171,1.62441,1.62441,0,0,0-.13931.1817,1.9014,1.9014,0,0,1-.3332.27255,1.26337,1.26337,0,0,0-.32707.29678A2.46679,2.46679,0,0,1,.015,5.45016a.325.325,0,0,0,.09691.321.38257.38257,0,0,1,.12114.16959c0,.03634.05451.06057.11508.06057a.54731.54731,0,0,1,.28468.15142.69129.69129,0,0,0,.20593.15143,3.79487,3.79487,0,0,1,.39976,1.08418c.03028.33919.09085,1.1811.09085,1.24773,0,.03028-.00606.19382-.01211.36341a1.15608,1.15608,0,0,0,.05451.43,1.3964,1.3964,0,0,1,.19382.86008,2.53734,2.53734,0,0,0,.19379,1.42949,1.26814,1.26814,0,0,1,.09086.3513,1.983,1.983,0,0,0,.07268.36948.5637.5637,0,0,1,.00606.28467.50424.50424,0,0,0,.03634.3089,2.85951,2.85951,0,0,1,.11508.72078,2.08654,2.08654,0,0,0,.15748.79345,2.35112,2.35112,0,0,1,.12719,1.07813,5.78867,5.78867,0,0,1-.03634.90248.33209.33209,0,0,0,.03634.22411.40879.40879,0,0,1,0,.35735.49451.49451,0,0,0-.01817.34525,1.29674,1.29674,0,0,1,.13931.84191.372.372,0,0,0,.01211.35736.25234.25234,0,0,1,.03029.25439.47723.47723,0,0,0-.05451.212.50255.50255,0,0,1-.11508.27256c-.12114.15748-.22411.59963-.13931.59963a5.86866,5.86866,0,0,1,.55723,1.04785,1.26546,1.26546,0,0,1-.19382.23622c-.21805.2241-.2241.30284-.01211.55118.13325.16353.13931.1817.05451.3513-.05451.09691-.0848.17565-.06663.17565a1.90266,1.90266,0,0,1-.04845.38158,3.11068,3.11068,0,0,0-.05451.68443c.01211.16354.03028.3937.03634.51484a.62011.62011,0,0,0,.12719.32707.29552.29552,0,0,1,.07269.29678,5.54842,5.54842,0,0,0-.1272.72078.91453.91453,0,0,1-.06057.27861,1.54827,1.54827,0,0,0,.06663.47244,7.07183,7.07183,0,0,1,.13937,1.74439c-.01212.16354-.01212.49061-.00606.72683.00606.23016.01211.60569.01211.8298v.54512c0,.07874.00606.24833.01817.38159a7.41582,7.41582,0,0,1-.04845.90853,4.75011,4.75011,0,0,0-.04846.71472,7.4307,7.4307,0,0,1,.17565,1.45971c.01817.5209.00606.69655-.06662.80557a.47772.47772,0,0,0-.01817.5209,1.1483,1.1483,0,0,1,.08479.37552c.01212.13325.03635.41793.05452.636s.04239.533.05451.70866a1.35275,1.35275,0,0,0,.06662.38158,1.74193,1.74193,0,0,1,.103.48456.1726.1726,0,0,0,.04846.12114.8368.8368,0,0,1,.12719.212.46963.46963,0,0,0,.34525.26044c.19382.06663.2665.12114.29678.24228.07874.32707.40582.49667,1.12659.58752a.56559.56559,0,0,1,.24228.0848.696.696,0,0,0,.62992-.06663,3.09179,3.09179,0,0,1,1.30829-.533,1.86652,1.86652,0,0,0,.92065-.43.306.306,0,0,1,.15142-.15142,7.66013,7.66013,0,0,0,.75711-.67837,5.019,5.019,0,0,1,.77529-.65415c.09085-.01817.16959-.13326.25439-.34525a.9306.9306,0,0,1,.34524-.46638,1.98482,1.98482,0,0,0,.45427-.52089,4.56092,4.56092,0,0,1,.75712-1.04786,1.79264,1.79264,0,0,0,.315-.47243c.09086-.19383.27257-.56935.39976-.83586s.27256-.6178.32707-.78134a3.79619,3.79619,0,0,0,.18171-1.32646.42829.42829,0,0,1-.03028-.19382,11.5329,11.5329,0,0,0,.218-1.36281,2.91982,2.91982,0,0,1,.09085-.54512,3.00142,3.00142,0,0,0,.03634-.75711c-.01817-.33313-.0424-.90854-.05451-1.272-.02423-.68443-.16354-1.16292-.36342-1.28406-.18776-.103-.27861-.40581-.24833-.79951a1.60048,1.60048,0,0,0-.07268-.69049,4.42687,4.42687,0,0,0-.7026-1.34463,2.18283,2.18283,0,0,1-.533-.9146.33659.33659,0,0,0-.14537-.23016.44092.44092,0,0,1-.18171-.20594.48883.48883,0,0,0-.218-.212.51863.51863,0,0,1-.218-.27256,2.27863,2.27863,0,0,0-.18171-.44215,1.34282,1.34282,0,0,1-.14537-.46638c0-.321-.1393-.36342-.73288-.20594-.24834.06663-.3089.0424-.41187-.15748a.24125.24125,0,0,0-.218-.13325.41961.41961,0,0,1-.26045-.109,1.75093,1.75093,0,0,0-.33918-.212c-.19383-.09085-.26651-.09691-.40582-.03634a.78262.78262,0,0,1-.68443-.09691c-.109-.109-.03028-.44215.1272-.56329.05451-.03634.07268-.07269.03634-.07269-.12114,0-.27862-.56329-.27256-.9691.01211-.83585.01817-1.12659.01211-1.30224q-.00909-.18159,0-.36341a1.41777,1.41777,0,0,0-.05451-.43,3.03095,3.03095,0,0,1-.0365-1.32655,6.78872,6.78872,0,0,0,.08479-.848c0-.19988.01212-.40582.01817-.45427a3.28606,3.28606,0,0,0-.16353-1.11447c-.04846-.07269-.07268-.15748-.04846-.17565A6.986,6.986,0,0,0,6.99256,9.587a1.47131,1.47131,0,0,0-.06662-.59358.797.797,0,0,1-.06056-.327.95918.95918,0,0,0-.04846-.38158A1.50249,1.50249,0,0,1,6.76238,7.77a2.53613,2.53613,0,0,0-.06663-.59964A2.75343,2.75343,0,0,1,6.617,6.48593a1.41374,1.41374,0,0,0-.06663-.47248.78.78,0,0,1-.05451-.33313c.01211-.07268.04845-.24227.07874-.37552a7.16561,7.16561,0,0,0-.0848-1.93821,3.28621,3.28621,0,0,1-.01212-.87826,1.50723,1.50723,0,0,0-.212-.87825.895.895,0,0,1-.24831-.52089A1.255,1.255,0,0,0,5.83569.67126,3.94019,3.94019,0,0,1,5.58738.22911C5.48438.01711,5.46622.005,5.1876.005,4.98167.005,4.88476.03528,4.86053.09585ZM7.61638,23.53a1.23938,1.23938,0,0,1,.38159.29073,1.22276,1.22276,0,0,0,.36947.29073.85055.85055,0,0,1,.41793.43,1.0768,1.0768,0,0,0,.30284.38159.7424.7424,0,0,1,.27256.4361,1.38168,1.38168,0,0,0,.23622.46638,2.04649,2.04649,0,0,1,.46033,1.09024.64184.64184,0,0,0,.0848.23622,3.47032,3.47032,0,0,1,.38764,1.52634,1.04587,1.04587,0,0,0,.103.30285,2.44132,2.44132,0,0,1,.2241,1.066,1.126,1.126,0,0,0,.06663.43.81072.81072,0,0,1-.00606.69655,1.75047,1.75047,0,0,0-.07268.49061.9617.9617,0,0,1-.06057.36341.58021.58021,0,0,0-.06663.23622,1.74836,1.74836,0,0,1-.18171.70866.353.353,0,0,0-.06662.212.53207.53207,0,0,1-.17565.30285,1.41844,1.41844,0,0,0-.26651.3513,1.09721,1.09721,0,0,1-.30284.32707,1.30523,1.30523,0,0,0-.36342.46033c-.29073.58752-1.01756.93276-1.36886.64809-.14536-.12114-.23016-.41187-.27862-.94488a1.42907,1.42907,0,0,0-.12719-.49667.22159.22159,0,0,1-.02423-.27256c.15748-.29073-.09691-1.21744-.35736-1.30223-.16959-.04846-.19382-.18171-.07268-.34525a1.61527,1.61527,0,0,0,.19988-1.44154,1.50462,1.50462,0,0,1-.13325-.99939,2.98022,2.98022,0,0,0,.06057-.48456c-.00606-.13325,0-1.13264.01211-1.51422v-.36342c-.00606-.06662-.01211-.26044-.01211-.424-.01212-.4785-.04846-1.06-.0848-1.45366a5.41942,5.41942,0,0,1,.00612-1.76242C7.28938,23.36045,7.27118,23.36045,7.61638,23.53Z"/>

</g>
</svg>
