<?xml version="1.0" encoding="UTF-8"?>
<svg xmlns="http://www.w3.org/2000/svg"
     version="1.1"
     width="30.02751214mm"
     height="28.15449724mm"
     viewBox="0.00000000 0.00000000 85.11738497 79.80801238">

<g transform="scale(4.09348480)">   <defs>
      <style type="text/css"><![CDATA[
      .a {
        stroke: #000;
        stroke-linecap: round;
        stroke-linejoin: round;
        stroke-width: 0.01px;
      }
    ]]></style>
   </defs>
   <path class="a"
         d="M1.598.17459A2.51957,2.51957,0,0,1,.647.73183.50152.50152,0,0,0,.42293.8772a1.99821,1.99821,0,0,1-.27862.212c-.1272.06662-.13931.11508-.13931.527,0,.34524.02423.46032.09085.48455a1.45847,1.45847,0,0,1,.43.76317,2.95086,2.95086,0,0,0,.20594.50273.52782.52782,0,0,1,.07874.34524A.43512.43512,0,0,0,.90748,4.045a2.38811,2.38811,0,0,1,.33313.9691,2.03722,2.03722,0,0,0,.18776.5633,1.459,1.459,0,0,1,.18171.7874,1.93169,1.93169,0,0,0,.11508.6602,1.70936,1.70936,0,0,1,.13325.53906c.01818.18777.0424.41187.06057.49667A5.79392,5.79392,0,0,1,1.99167,9.6113a.38343.38343,0,0,0,0,.34524.70888.70888,0,0,1,.006.4361,1.83946,1.83946,0,0,0-.06057.47244.83946.83946,0,0,1-.05451.3513,2.59421,2.59421,0,0,0-.212,1.16293c.01211.36341,0,.43609-.12719.58146a.62385.62385,0,0,0-.14537.4361A2.71,2.71,0,0,0,1.7615,14.584a.68288.68288,0,0,1,.12114.35736.305.305,0,0,0,.1696.3089,4.60675,4.60675,0,0,1,.90248.92065c.16959.218.3513.4361.39975.48456.533.49061.64809.61174.64809.6602a8.858,8.858,0,0,0,1.21138,1.06,4.35278,4.35278,0,0,0,1.40521.65414.95.95,0,0,1,.36341.1272c.14537.07268.27256.13325.29073.13931.01817,0,.1696.05451.33919.109a.65279.65279,0,0,0,.46032.04846.30724.30724,0,0,1,.25439.00606.42576.42576,0,0,0,.26651.01817,1.22717,1.22717,0,0,1,.18171-.03635.8192.8192,0,0,0,.1817-.07268,6.13305,6.13305,0,0,1,2.14415.07874.2949.2949,0,0,0,.32707-.01817.32674.32674,0,0,1,.26651-.0424.53251.53251,0,0,0,.33313-.03634,2.44273,2.44273,0,0,1,.7026-.07268,2.26844,2.26844,0,0,0,.52089-.03029,3.32878,3.32878,0,0,1,.55724-.13325,2.78042,2.78042,0,0,0,1.21138-.47849c.14537-.103.25439-.14537.34524-.12114a.82426.82426,0,0,0,.46033-.12114,1.77572,1.77572,0,0,1,.3937-.15748c.0424,0,.11508-.07874.16959-.18171a.41762.41762,0,0,1,.26045-.218,2.00483,2.00483,0,0,0,1.23561-.5754.53063.53063,0,0,1,.2665-.212c.18171-.04845.21805-.07268.70866-.54512a1.58738,1.58738,0,0,1,.41793-.32707c.15748,0,.533-.30285.533-.43a2.06653,2.06653,0,0,1,.642-.72683.9068.9068,0,0,0,.2241-.25439c.18777-.27862.13931-.46638-.15748-.57541-.32707-.11508-.52695-.02422-1.08418.50878a4.33089,4.33089,0,0,1-.48456.41793c-.109.07874-.26044.19382-.33313.24228-.09691.07268-.16353.08479-.24227.0424-.1272-.07269-.38764.06056-.76317.39369-.23016.20594-.26651.218-.53907.19988a.678.678,0,0,0-.32707.09691,1.3973,1.3973,0,0,1-.47244.15143,2.747,2.747,0,0,0-.957.212.559.559,0,0,1-.32707.06057.74132.74132,0,0,0-.37553.05451.526.526,0,0,1-.48456.01211.44088.44088,0,0,0-.47849.03029.43081.43081,0,0,1-.38159.07268,1.0125,1.0125,0,0,0-.3937-.02423,1.8584,1.8584,0,0,1-.90853-.23016c-.07269-.04846-.18171-.06663-.75712-.09085a1.6826,1.6826,0,0,1-.75711-.17565.87557.87557,0,0,0-.59358-.1272.59771.59771,0,0,1-.436-.06673c-.0848-.05452-.18171-.0848-.212-.06663a1.40208,1.40208,0,0,1-.72683-.19988.82256.82256,0,0,0-.23016-.109.62587.62587,0,0,1-.2241-.1696.521.521,0,0,0-.212-.15748c-.03634,0-.09085-.06057-.12719-.13931a.79389.79389,0,0,0-.24228-.25439,1.50672,1.50672,0,0,1-.50272-.8843,2.13408,2.13408,0,0,0-.24833-.53907.54982.54982,0,0,1-.09691-.59358.43257.43257,0,0,0-.03029-.30284,1.93939,1.93939,0,0,1-.0848-.45427,1.23961,1.23961,0,0,0-.12113-.46638,1.15033,1.15033,0,0,1-.12114-.38764c0-.12114-.03634-.16354-.16354-.19383a1.628,1.628,0,0,1-.83585-.39975c-.1696-.19988-.13931-.32708.11508-.49667a.598.598,0,0,0,.218-.3513,3.4947,3.4947,0,0,1,.16353-.48455.72536.72536,0,0,0,.06057-.34525A.99211.99211,0,0,1,5.8317,8.5937a5.99557,5.99557,0,0,0,.07874-.745,5.077,5.077,0,0,1,.09085-.75712,2.906,2.906,0,0,0-.09085-1.35069A1.39153,1.39153,0,0,1,5.8317,5.2624a3.99863,3.99863,0,0,0-.38764-1.36886,1.08384,1.08384,0,0,1-.09086-.44822.66885.66885,0,0,0-.05451-.33918,1.596,1.596,0,0,1-.0848-.46638c0-.26045-.03634-.321-.47849-.7874a3.34907,3.34907,0,0,1-.315-.424A1.205,1.205,0,0,0,4.154,1.1013,4.67756,4.67756,0,0,1,3.7603.72577a1.34015,1.34015,0,0,0-.43609-.321A.84008.84008,0,0,1,2.985.18671C2.80935.01106,2.77906.005,2.26423.005,1.74333.005,1.71911.01106,1.598.17459Z"/>

</g>
</svg>
