<?xml version="1.0" encoding="UTF-8"?>
<svg xmlns="http://www.w3.org/2000/svg"
     version="1.1"
     width="12.47735636mm"
     height="30.73083957mm"
     viewBox="0.00000000 0.00000000 35.36896262 87.11103745">

<g transform="scale(6.96665924)">   <defs>
      <style type="text/css"><![CDATA[
      .a {
        stroke: #000;
        stroke-miterlimit: 10;
        stroke-width: 0.15px;
      }
    ]]></style>
   </defs>
   <path class="a"
         d="M3.95592.0827c.17365.04944.1394.2932.39549.6232.30959.39894.62617.38614.64926.60575.03065.29141-.52446.33559-.62808.75021-.091.36427.27228.59081.54166,1.5625a.75218.75218,0,0,1,.01257.4787c-.10579.28578-.4118.39032-.5334.4588-.63481.35752-.01248,1.85479-.27083,3.60418-.2461,1.66638-1.14146,2.54681-.9375,3.54166.02177.10616.11137.48347-.07469.64831-.07821.06929-.21921.11349-.592.01836a2.39907,2.39907,0,0,1-1.35417-.75c-.24449-.30306-.247-.51448-.4375-1.8125C.64167,9.23213.44333,7.9194.37259,7.4577.15629,6.0459.10577,5.8858.25161,5.61448A4.13229,4.13229,0,0,0,.801,4.45251a.479.479,0,0,0-.034-.3074c-.06188-.1117-.2209-.11422-.26412-.11792-.22443-.01927-.34258.1194-.4011.07635-.11189-.08231.16341-.60336.16341-.60336a5.05415,5.05415,0,0,1,.91993-1.23C2.39407,1.1019,2.5444,1.39329,3.28925.56187,3.49287.33457,3.74228.02186,3.95592.0827Z"/>

</g>
</svg>
