<?xml version="1.0" encoding="UTF-8"?>
<svg xmlns="http://www.w3.org/2000/svg"
     version="1.1"
     width="37.92573418mm"
     height="35.98882499mm"
     viewBox="0.00000000 0.00000000 107.50594903 102.01564183">

<g transform="scale(7.37785852)">   <defs>
      <style type="text/css"><![CDATA[
      .a {
        stroke: #000;
        stroke-linecap: round;
        stroke-linejoin: round;
        stroke-width: 0.01px;
      }
    ]]></style>
   </defs>
   <path class="a"
         d="M11.1227.05424a.69329.69329,0,0,1-.32707.03028.48752.48752,0,0,0-.33919.06057,2.52851,2.52851,0,0,1-.30284.18776c-.18777.09692-.21805.09692-.46639,0C9.445.242,9.41465.242,9.28746.3268a.5014.5014,0,0,1-.23622.09691,1.18383,1.18383,0,0,0-.40581.30284A1.62978,1.62978,0,0,1,8.276,1.0294c-.13325,0-.06662.36947.09086.51484A.65748.65748,0,0,0,9.027,1.629a.35149.35149,0,0,1,.19382.03029.369.369,0,0,0,.25439-.02423c.103-.04845.15142-.03634.24834.06057.1817.18171.15142.28467-.18171.61175-.26045.25439-.30285.32707-.30285.527,0,.29679.0848.3937.44216.527a1.35971,1.35971,0,0,1,.48455.33313,1.22016,1.22016,0,0,0,.41187.29679,3.60092,3.60092,0,0,1,1.33858,1.0115A4.51468,4.51468,0,0,1,12.534,6.4685c.01212.22411-.02423.30891-.28467.66626a2.14,2.14,0,0,1-.48456.50273,1.91977,1.91977,0,0,0-.39975.27862c-.29679.27256-.76923.52089-.9146.47244-.09691-.03029-.2241.06662-.59963.44821a2.47868,2.47868,0,0,1-.64809.52695,1.21429,1.21429,0,0,0-.29679.12114.56536.56536,0,0,1-.29073.08479A.88644.88644,0,0,0,8.276,9.6605c-.09691.04845-.18776.06662-.212.04845-.01817-.02423-.11508.03029-.20593.11508a1.51819,1.51819,0,0,1-.76923.38159,1.828,1.828,0,0,0-1.29618.73894.364.364,0,0,1-.19988.16959,4.66842,4.66842,0,0,0-.44215.18171c-.97516.44821-1.15081.51484-1.32647.51484a.96488.96488,0,0,0-.52089.24228c-.20593.15748-.36341.23016-.424.20593a.8164.8164,0,0,0-.67232.1272.7837.7837,0,0,1-.29679.109c0-.02423-.11508.0848-.25439.24228-.3089.33313-.72683.53906-.93276.46638a.71276.71276,0,0,0-.64809.23016c-.09691.109-.09691.12114.02423.23016a.57864.57864,0,0,0,.26044.1272,1.9,1.9,0,0,1,.218.03028,2.9945,2.9945,0,0,0,1.06-.16959.433.433,0,0,1,.212-.0848,2.18972,2.18972,0,0,0,.53907-.33313,2.07126,2.07126,0,0,1,.55118-.33313.2976.2976,0,0,0,.19987-.14536,1.52671,1.52671,0,0,1,.88431-.36342,1.63147,1.63147,0,0,0,.745-.3513.41966.41966,0,0,1,.26045-.109A.67617.67617,0,0,0,5.3263,11.841a.77391.77391,0,0,1,.315-.103,1.43457,1.43457,0,0,0,.52089-.24834c.212-.14536.38764-.2241.44216-.19987a.52284.52284,0,0,0,.321-.11509,2.369,2.369,0,0,1,.56935-.23622,3.36131,3.36131,0,0,0,.4785-.15748.67776.67776,0,0,1,.36341-.04239c.13325.01817.24834.006.26651-.02423a2.12052,2.12052,0,0,1,.79345-.35736.73721.73721,0,0,0,.38159-.2241,2.28369,2.28369,0,0,1,.49666-.35736A3.73418,3.73418,0,0,0,11.94047,8.6429.63519.63519,0,0,1,12.31,8.45513a1.78245,1.78245,0,0,0,.751-.49061c.94488-.83585,1.16293-1.12053,1.10236-1.42943a1.46419,1.46419,0,0,1,.34524-.81163c.11509-.07268.06057-.25439-.1817-.61174a2.78926,2.78926,0,0,1-.24228-.39976,1.92407,1.92407,0,0,0-.44821-.61175.55219.55219,0,0,1-.16959-.29679,1.54959,1.54959,0,0,0-.3937-.58752,1.25128,1.25128,0,0,1-.321-.43609,1.19876,1.19876,0,0,1,.13325-.36947,1.40521,1.40521,0,0,0,.1272-.81163,1.30813,1.30813,0,0,0-.44216-1.175A.68579.68579,0,0,0,11.9525.139,1.857,1.857,0,0,1,11.474.06029.32156.32156,0,0,0,11.1227.05424Z"/>

</g>
</svg>
