<?xml version="1.0" encoding="UTF-8"?>
<svg xmlns="http://www.w3.org/2000/svg"
     version="1.1"
     width="19.57617313mm"
     height="69.65983472mm"
     viewBox="0.00000000 0.00000000 55.49153083 197.46096912">

<g transform="scale(6.96665924)">   <defs>
      <style type="text/css"><![CDATA[
      .a {
        stroke: #000;
        stroke-miterlimit: 10;
        stroke-width: 0.15px;
      }
    ]]></style>
   </defs>
   <path class="a"
         d="M3.13691,2.66908a6.75284,6.75284,0,0,0-.66114,2.26923A8.30846,8.30846,0,0,0,2.8869,6.64826a14.0788,14.0788,0,0,1,.27083,2.375c.05559.76128.14321,1.92671.269,3.46437a.93178.93178,0,0,0,.29351.13979.96447.96447,0,0,0,.5625-.02082l.153.73277a.86036.86036,0,0,1-.46555.1214c-.24491-.01219-.36973-.14174-.47916-.08334-.14038.07491-.111.38193-.10047.51163.10633,1.31474-.34906,1.513-.04536,2.13422a4.97018,4.97018,0,0,1,.44241.97325,1.11227,1.11227,0,0,1,.0435.27145c.038.77757-.51125.98991-.86456,1.89851a2.46475,2.46475,0,0,0-.17.73822c-.04773.65457.2.92833.163,1.57849a2.9062,2.9062,0,0,1-.17691.79007A13.157,13.157,0,0,1,1.77988,24.196c-.30939.60521-.36871.73338-.43466.88972a8.52755,8.52755,0,0,0-.60416,1.72916c-.059.29739-.07158.49742-.22917.64584a2.71829,2.71829,0,0,0-.375.4375L.132,27.90648c-.022.03813-.09086.169-.03681.26262.06215.10767.25708.1147.375.08333.32932-.08762.46635-.585.5118-.73611.47283-1.5722,2.13-2.50188,2.70077-4.57184a6.87931,6.87931,0,0,1,.49577-1.3587c.0578-.11665.09655-.18593.477-.84354.63072-1.09006.6387-1.0975.68961-1.19814a5.53821,5.53821,0,0,0,.52084-1.64583.49582.49582,0,0,1-.56185-.14857.521.521,0,0,1-.06379-.4769,5.34,5.34,0,0,0,1.16621-1.02007,5.59991,5.59991,0,0,0,1.26409-2.93361,7.49641,7.49641,0,0,0,.21617-1.5667,20.42559,20.42559,0,0,0-.278-3.18138c-.16375-1.15918.08956-.82846.00717-3.00613-.08751-2.31293-.32467-1.40172-.54167-3.9375-.04269-.49892-.09785-1.286-.5625-1.5a1.58874,1.58874,0,0,0-.8058-.00755,2.55,2.55,0,0,0-.95847.27362,2.6764,2.6764,0,0,0-.38155.25478A5.225,5.225,0,0,0,3.13691,2.66908Z"/>

</g>
</svg>
