<?xml version="1.0" encoding="UTF-8"?>
<svg xmlns="http://www.w3.org/2000/svg"
     version="1.1"
     width="81.36009364mm"
     height="23.31817407mm"
     viewBox="0.00000000 0.00000000 230.62701131 66.09871566">

<g transform="scale(3.67920472)">   <defs>
      <style type="text/css"><![CDATA[
      .a {
        stroke: #000;
        stroke-linecap: round;
        stroke-linejoin: round;
        stroke-width: 0.01px;
      }
    ]]></style>
   </defs>
   <path class="a"
         d="M9.72028.15642a1.89957,1.89957,0,0,1-.41792.3513,6.79309,6.79309,0,0,0-.82374.72078,2.2591,2.2591,0,0,1-.642.533c-.14536,0-.44215.41793-.44215.62387a.89159.89159,0,0,0,.24228.41187,1.479,1.479,0,0,1,.24227.315A9.43127,9.43127,0,0,0,8.9874,4.2085a1.89674,1.89674,0,0,1,.38764.45426,1.13511,1.13511,0,0,0,.24228.32708,1.34425,1.34425,0,0,1,.3513.82979,1.27807,1.27807,0,0,0,.30284.70866.26129.26129,0,0,1,.04846.212c-.01817.09691.03028.19988.16959.33919a.795.795,0,0,1,.20594.30285,1.1384,1.1384,0,0,0,.109.29679c.06057.109.09085.19987.07268.19987s-.00605.05452.03029.12114c.04845.09085.01211.23016-.17565.67232-.13325.30284-.25439.56329-.26651.5754a.59666.59666,0,0,1-.19382.06057,1.43261,1.43261,0,0,0-.2665.07874.249.249,0,0,1-.16959.02423,1.53784,1.53784,0,0,0-.44216.09691,1.31709,1.31709,0,0,1-.59963.09086,1.04845,1.04845,0,0,0-.55118.09691,2.71377,2.71377,0,0,1-.53907.16353,1.17493,1.17493,0,0,0-.37553.11508,1.01291,1.01291,0,0,1-.20593.0848,1.29861,1.29861,0,0,0-.49061.29073.30687.30687,0,0,1-.18171.103.40665.40665,0,0,0-.18776.04846,3.281,3.281,0,0,1-.75712.26044,3.72717,3.72717,0,0,0-.5754.18171c-.22411.0848-.48455.18171-.56935.218a.77893.77893,0,0,0-.29073.20593.41223.41223,0,0,1-.218.14537c-.04846,0-.09086.02423-.09086.05451s-.05451.07874-.12113.09691a.54126.54126,0,0,0-.19383.109,4.16276,4.16276,0,0,1-.72077.46639,1.45629,1.45629,0,0,0-.315.27256,1.36826,1.36826,0,0,1-.33313.27256.26782.26782,0,0,0-.14536.07874,2.81038,2.81038,0,0,1-.29073.22411,1.42663,1.42663,0,0,0-.51484.54512.384.384,0,0,1-.18171.16959c-.0848.0424-.14536.09085-.13931.11508a.64739.64739,0,0,1-.29073.49061c-.07874.0424-.14537.0969-.14537.13325a.696.696,0,0,1-.1817.23017C.005,14.9474.005,14.95951.005,15.57126v.62386l.212.20594a1.08789,1.08789,0,0,1,.212.25439,1.01881,1.01881,0,0,0,.321.218c.29073.15748.527.35736.527.44822a.65558.65558,0,0,0,.19988.15748,1.24542,1.24542,0,0,0,.72077.15142.92909.92909,0,0,1,.38159.15748c.26044.17565.36947.18171.76317.0424.28467-.103.29679-.103.47849.03028.13931.109.20594.12114.29679.07268a.35032.35032,0,0,1,.218-.02422,2.26023,2.26023,0,0,0,.90854-.24834,1.05105,1.05105,0,0,1,.30284-.11508,3.38734,3.38734,0,0,0,.87825-.29073,1.66043,1.66043,0,0,1,.44216-.24833A4.27732,4.27732,0,0,0,7.5398,16.607a.99434.99434,0,0,1,.30284-.18776.47724.47724,0,0,0,.20594-.13931,5.08412,5.08412,0,0,0,.67837-.76317.75758.75758,0,0,1,.15142-.22411.64817.64817,0,0,0,.15143-.24228,1.741,1.741,0,0,1,.30284-.39369,1.19828,1.19828,0,0,0,.29073-.41793,1.75688,1.75688,0,0,1,.46033-.86614c.26045-.26045.45427-.29073.65414-.09085.1272.12719.17566.13325,1.24167.12719a11.44941,11.44941,0,0,0,1.22955-.04845,1.90749,1.90749,0,0,1,.57541.03634,1.31165,1.31165,0,0,0,.76317-.03029.96238.96238,0,0,1,.49667-.06057,2.57171,2.57171,0,0,0,1.3204-.06056.18776.18776,0,0,1,.19383.04845,1.68111,1.68111,0,0,0,1.31434.06663c.0848-.01817.50879-.04846.93883-.06057.43609-.01212.89642-.0424,1.02967-.06057a1.21948,1.21948,0,0,1,.48455-.01817,7.06678,7.06678,0,0,0,.75712-.03029,1.51231,1.51231,0,0,1,.90853.06663,12.53087,12.53087,0,0,0,3.24045.27256,5.36549,5.36549,0,0,1,.99333.06663,8.35622,8.35622,0,0,0,1.49.103,3.22735,3.22735,0,0,1,.34525,0,5.84876,5.84876,0,0,0,.79951-.12113c.50878-.109.60569-.11509.83585-.0424a7.01036,7.01036,0,0,0,2.13809.3089,1.581,1.581,0,0,1,.44216.05451,8.26946,8.26946,0,0,0,1.25378.103,5.15387,5.15387,0,0,0,.73288-.09085,8.57042,8.57042,0,0,1,1.11447-.109,12.83046,12.83046,0,0,0,1.30224-.01817c.30285-.03028,1.01756-.0848,1.30224-.09691a.6552.6552,0,0,0,.25439-.06057.4434.4434,0,0,1,.33918.03634.91952.91952,0,0,0,.29074.0848,11.15672,11.15672,0,0,1,1.6293.13931,5.051,5.051,0,0,0,.66626.07874,6.84643,6.84643,0,0,1,.72683.07874,3.77016,3.77016,0,0,0,.81769.03028,13.33747,13.33747,0,0,1,2.58024.04846,3.19977,3.19977,0,0,0,.84191.12719c.06663,0,.28468.00606.48455,0a2.51931,2.51931,0,0,1,.957.09086,5.204,5.204,0,0,0,2.46517.30284.77279.77279,0,0,1,.41187.09086.57891.57891,0,0,0,.62992.02422,1.6311,1.6311,0,0,1,.77528-.15748,4.90239,4.90239,0,0,0,.81768.04846,2.91841,2.91841,0,0,1,.89037.07874,1.58458,1.58458,0,0,0,.50272.09691,5.73069,5.73069,0,0,1,.79951.09691,1.52656,1.52656,0,0,0,.50879.03634c.06662-.0424.17565-.01211.76922.19382a.92775.92775,0,0,0,.38159.0848c.11508-.07268.78134.36947.78134.52089a.33237.33237,0,0,0,.09085.15748c.0848.07874.07874.11508-.0424.30891a1.33124,1.33124,0,0,1-.17565.25439c-.07874.05451-.07874.33313-.00605.46638a.53943.53943,0,0,1,.07268.218c0,.13931.20594.28467.40581.28467a2.06131,2.06131,0,0,0,1.04785-.38158,6.33077,6.33077,0,0,1,.7874-.58752A4.47068,4.47068,0,0,0,60.665,15.28658a1.41636,1.41636,0,0,1,.315-.34524.17168.17168,0,0,0,.07874-.15142c0-.1272.38765-.527.642-.66021a1.2171,1.2171,0,0,0,.47244-.79345A.87876.87876,0,0,1,62.27,12.991c.04239-.0424.05451-.0848.03028-.0848s0-.06663.05451-.15142.0848-.18171.06663-.212c-.04846-.07874.0848-.54512.15748-.54512.03028,0,.07268-.0424.09691-.09691.02423-.07268-.09085-.2241-.41187-.527a2.01179,2.01179,0,0,0-1.10236-.65415.76194.76194,0,0,1-.3513-.15142c-.22411-.15142-.29679-.16959-.87825-.18171a1.85047,1.85047,0,0,1-.72683-.09085c-.09085-.07874-.34524-.103-1.41732-.14537a5.83594,5.83594,0,0,1-.76317-.07874,2.179,2.179,0,0,0-.48455-.03634,2.15008,2.15008,0,0,1-.62386,0,1.0908,1.0908,0,0,0-.46033.06057,2.61162,2.61162,0,0,1-1.15687-.006c-.2665-.03635-.33313-.02423-.4361.07874-.11508.11508-.15142.11508-.53906.04845a10.03183,10.03183,0,0,0-2.04724-.01211,1.93346,1.93346,0,0,1-.93882,0,1.99549,1.99549,0,0,0-.97516-.0848.78613.78613,0,0,1-.44215-.00606c-.13931-.03634-.30285-.07874-.36948-.09085-.06662-.00606-.19987-.03634-.30284-.05451-.09691-.01817-.41187-.04846-.69655-.06663-.28467-.01211-.636-.03634-.78739-.0424a2.24253,2.24253,0,0,1-.40582-.06662.28706.28706,0,0,0-.2665.04845.21453.21453,0,0,1-.24833.03029.22335.22335,0,0,0-.23622.01211,2.134,2.134,0,0,1-.72078.12114c-.04845,0-.24227-.01817-.424-.03634-.81768-.09086-.98122-.09086-1.10236,0-.109.07268-.15142.07268-.315-.01817-.20593-.109-.218-.11508-.72077-.15748-.45427-.0424-.57541-.07874-.64809-.218a.15142.15142,0,0,1,.03029-.20594.29463.29463,0,0,0,.09085-.15142.25283.25283,0,0,1,.0848-.13931c.04239-.0424.38158-.35736.73894-.7026.36341-.33919.68443-.64809.70866-.67232.03028-.03028.212-.212.39975-.41187.46033-.46638.50878-.50878.745-.54512a2.51146,2.51146,0,0,0,.89037-.49061,7.76849,7.76849,0,0,0,.68443-.533.88185.88185,0,0,1,.30285-.14536,6.40062,6.40062,0,0,0,.69654-.26045,2.77129,2.77129,0,0,1,.52089-.18776,3.5104,3.5104,0,0,0,.59358-.16354,3.92637,3.92637,0,0,1,.739-.18171.55536.55536,0,0,0,.36946-.16353c.18776-.16354.212-.1696.79952-.15143.32706.01212.99332.03029,1.47182.0424l.87219.02423.321-.18777c.27256-.15748.3089-.19987.26045-.29678-.06663-.1272-.01817-.3513.07268-.3513.109,0,.16354-.26651.07874-.39976-.04846-.06663-.06663-.13931-.04846-.16354C53.14833,3.088,53.003,2.664,52.9,2.561a.34774.34774,0,0,1-.07874-.212.63291.63291,0,0,0-.17565-.321c-.16354-.17565-.22411-.19382-.68444-.23016a2.27515,2.27515,0,0,0-.71471.02422,5.79826,5.79826,0,0,1-.848.22411.66523.66523,0,0,0-.33313.16354,1.281,1.281,0,0,1-.424.24227,2.16507,2.16507,0,0,0-.44821.23016.34744.34744,0,0,1-.25439.07874.1381.1381,0,0,0-.15748.04846.65375.65375,0,0,1-.24228.18776.50494.50494,0,0,0-.23016.218.26788.26788,0,0,1-.19988.15143c-.09085.02422-.29679.07873-.46033.12719a2.51576,2.51576,0,0,1-.39975.0848,1.61137,1.61137,0,0,0-.61175.36947,3.14771,3.14771,0,0,1-.87825.32707,1.1351,1.1351,0,0,0-.38764.26045,1.42325,1.42325,0,0,1-.30285.25439.94408.94408,0,0,0-.24228.17565,6.90265,6.90265,0,0,1-.89036.55118,5.23725,5.23725,0,0,0-1.30224.9691c-.56329.53907-.79345.76317-.963.93882a3.53015,3.53015,0,0,1-.78739.69655c-.04846,0-.13326.07268-.18777.16959a4.62724,4.62724,0,0,1-.53906.64809,5.807,5.807,0,0,0-.49061.50273c-.18171.218-.29073.23016-1.49606.1393a2.51513,2.51513,0,0,0-.83585.02423A7.16383,7.16383,0,0,1,35.347,9.5688a1.60956,1.60956,0,0,0-.95093.01211,1.04,1.04,0,0,1-.40582.06057c-.26044-.01211-1.34463-.01211-1.61114,0-.06662,0-.25439-.01211-.424-.03028-.16354-.01817-.57541-.04846-.90854-.06663s-.69048-.04845-.78739-.06057a.95439.95439,0,0,0-.36948.02423,2.83,2.83,0,0,1-1.16292-.16959.70287.70287,0,0,0-.315-.03029c-.11508.01212-.23622.02423-.27256.02423a1.13727,1.13727,0,0,1-.44821-.0848,1.61342,1.61342,0,0,0-.41793-.06662,9.66894,9.66894,0,0,1-1.42337-.16354.97658.97658,0,0,0-.533-.00605.68061.68061,0,0,1-.39976.01211,2.73493,2.73493,0,0,0-.92671-.109c-.218.00606-.41792.00606-.45426,0-.03029-.00605-.41187-.01817-.848-.03634a5.5633,5.5633,0,0,1-1.33858-.103.538.538,0,0,0-.27862.02422.4294.4294,0,0,1-.38764-.04239.63171.63171,0,0,0-.424-.06057.54388.54388,0,0,1-.44216-.07269c-.12719-.08479-.30284-.109-.94488-.11508a6.31505,6.31505,0,0,1-1.97455-.2665,4.94858,4.94858,0,0,0-.81162-.18171c-.23017-.03028-.57541-.09691-.75712-.13931-.52089-.13931-.81162-.15748-.9691-.07268a.26447.26447,0,0,1-.321-.01212,1.76924,1.76924,0,0,0-.30273-.115.30307.30307,0,0,1-.1696-.09085.86245.86245,0,0,1,.15748-.58146.3367.3367,0,0,0,.06663-.23622c-.03634-.09691.07874-.38765.15748-.38765.02422,0,.04845-.14536.04845-.321a.87238.87238,0,0,1,.103-.46638c.0848-.12114.103-.29679.109-.93277l.00606-.7874-.28467-.52089c-.15143-.28468-.33919-.61175-.40582-.72683a.85543.85543,0,0,1-.13325-.321.541.541,0,0,0-.12114-.2665.58644.58644,0,0,1-.12114-.22411,2.18037,2.18037,0,0,0-.636-.6178,2.37623,2.37623,0,0,1-.34524-.30285,4.05156,4.05156,0,0,0-.57541-.44821A3.42575,3.42575,0,0,1,11.071.0898C11.03463.02923,10.865.005,10.42894.005,9.85959.005,9.82931.01106,9.72028.15642ZM8.57553,11.50707a.32645.32645,0,0,1,.03634.23622,1.75739,1.75739,0,0,1-.67837.315c-.09692,0-.212.25439-.18171.41187.02423.14537-.36947.6602-.60569.79346a.684.684,0,0,0-.23622.1817,2.70488,2.70488,0,0,1-.745.4785.90891.90891,0,0,1-.321.07268,1.2684,1.2684,0,0,1-.8298-.424l-.109-.17565.26045-.24228a2.36306,2.36306,0,0,1,.76922-.58146,5.611,5.611,0,0,0,1.53846-.76317.60807.60807,0,0,1,.28467-.17565.789.789,0,0,0,.32708-.17565C8.33931,11.25874,8.44833,11.27085,8.57553,11.50707Z"/>

</g>
</svg>
