<?xml version="1.0" encoding="UTF-8"?>
<svg xmlns="http://www.w3.org/2000/svg"
     version="1.1"
     width="41.64802939mm"
     height="27.13472376mm"
     viewBox="0.00000000 0.00000000 118.05747457 76.91719037">

<g transform="scale(7.30148393)">   <defs>
      <style type="text/css"><![CDATA[
      .a {
        stroke: #000;
        stroke-linecap: round;
        stroke-linejoin: round;
        stroke-width: 0.01px;
      }
    ]]></style>
   </defs>
   <path class="a"
         d="M1.74406.114a.52269.52269,0,0,1-.20593.18777A.73311.73311,0,0,0,1.30191.538c-.17565.29679-.39976.49666-.5633.49666-.08479,0-.15142.03635-.15142.0848a2.86587,2.86587,0,0,1-.18776.49667A2.11091,2.11091,0,0,0,.16321,2.73061,1.787,1.787,0,0,1,.10869,3.415a1.0379,1.0379,0,0,0,0,.54512,1.59773,1.59773,0,0,1,.06057.38764,3.61578,3.61578,0,0,0,.06057.92671A1.70828,1.70828,0,0,1,.18138,6.4011a.78177.78177,0,0,0-.07874.38764.78213.78213,0,0,1,.01817.321,3.54182,3.54182,0,0,0-.02423.38764A6.14118,6.14118,0,0,1,.01178,8.727c-.07874.315.54513.92065.98122.93882a1.06935,1.06935,0,0,1,.59358.15142.253.253,0,0,0,.16354.05452.81.81,0,0,1,.24227.03028.43406.43406,0,0,0,.38159-.0848,1.77064,1.77064,0,0,1,1.25378-.109.59964.59964,0,0,0,.41187.03634,1.13124,1.13124,0,0,1,.36341-.0424,2.05317,2.05317,0,0,0,.3937-.02422.846.846,0,0,1,.36947.012A.42378.42378,0,0,0,5.457,9.68394a1.63627,1.63627,0,0,1,.46032-.07874,1.69664,1.69664,0,0,0,.41793-.05451c.03634-.02423.14536,0,.24227.04846a.72869.72869,0,0,0,.37553.06662,5.7531,5.7531,0,0,1,.78134-.02423,1.24125,1.24125,0,0,0,.533-.09085.33332.33332,0,0,1,.24834.05451.804.804,0,0,0,.56329.03029,6.6056,6.6056,0,0,1,.98727-.05452,7.53693,7.53693,0,0,0,1.90793-.05451,1.72869,1.72869,0,0,1,.424-.07268,5.67456,5.67456,0,0,1,1.33253.12114,1.35476,1.35476,0,0,1,.36341.69654c0,.109.2665.17565.72684.18777a3.96134,3.96134,0,0,1,.58751.05451c.17565.03634.2241.01817.37553-.14537.26044-.27861.43611-.66626.36341-.80557-.03027-.06056-.0424-.109-.02422-.109s-.006-.06057-.05451-.13325a.55193.55193,0,0,1-.09691-.27862,1.39158,1.39158,0,0,0-.38764-.745,4.97942,4.97942,0,0,0-1.45366-.54512,1.4417,1.4417,0,0,0-.88431.218.75778.75778,0,0,1-.636.2241,1.17082,1.17082,0,0,0-.58147.01817c-.62992.103-1.1387.0848-1.24166-.05451-.06663-.09691-.05452-.16354.12719-.49061a1.91012,1.91012,0,0,0,.23622-.73894,2.99506,2.99506,0,0,1,.11508-.60569c.07269-.20594.07269-.27256.00606-.38765a.83414.83414,0,0,1-.0848-.25439c0-.05451-.02422-.103-.06057-.103-.103,0-.20593-.26651-.212-.54512A1.775,1.775,0,0,0,10.30853,3.73a3.58228,3.58228,0,0,1-.38764-.46638.46378.46378,0,0,0-.3937-.24834c-.49061-.06056-.64809.01212-1.24167.57541a4.41591,4.41591,0,0,0-.65414.745.93322.93322,0,0,1-.424.3937,1.19124,1.19124,0,0,0-.321.23016.8776.8776,0,0,1-.18171.24228c-.15142.16354-.19988.18776-.29679.13325a2.24742,2.24742,0,0,1-.527-1.01756,1.95565,1.95565,0,0,0-.22411-.51484,2.16912,2.16912,0,0,1-.424-.81768.71178.71178,0,0,0-.103-.33919,2.83249,2.83249,0,0,1-.15748-.43609,1.25169,1.25169,0,0,0-.27256-.43,1.08461,1.08461,0,0,1-.23622-.33918,1.64213,1.64213,0,0,0-.36341-.424,2.18871,2.18871,0,0,1-.36332-.4058A1.12041,1.12041,0,0,0,3.40971.37447,1.16659,1.16659,0,0,1,3.0463.09585C3.02207.02317,2.88882.005,2.41032.005,1.88943.005,1.79252.02317,1.74406.114Zm.54512,3.28285a1.1811,1.1811,0,0,1,.26651.36341.976.976,0,0,0,.321.38765,4.07641,4.07641,0,0,1,.94488,1.06,2.20151,2.20151,0,0,0,.25439.38158.385.385,0,0,1,.103.28468c-.03634.14536.13931.46032.61175,1.0963.35735.47849.38764.5754.25439.75711a1.189,1.189,0,0,1-.99334.04846.36.36,0,0,0-.24227-.06057A.90232.90232,0,0,1,3.23408,7.449a.3976.3976,0,0,0-.2665-.11508A3.9945,3.9945,0,0,1,1.7138,6.63734a3.6366,3.6366,0,0,1,.11508-.90854.7613.7613,0,0,0-.04846-.3937c-.07874-.17565-.07874-.23622-.01211-.36341a2.04889,2.04889,0,0,0,.06057-.98728.61615.61615,0,0,1,.20593-.58752c.12112-.0727.11506-.0727.25437,0Zm6.2689,1.9685a2.39949,2.39949,0,0,1,.3937.45426,1.58012,1.58012,0,0,0,.36342.3937c.24227.07874.315.25439.33918.86008a3.277,3.277,0,0,0,.0848.69049c.103.19382-.07874.315-.49667.32707a4.29342,4.29342,0,0,0-.642.07269A.40639.40639,0,0,1,8.03719,7.879c-.09691-.23016-.15748-.23016-.38764.02423-.18171.19382-.19988.19988-.51484.15748-.41793-.05451-.49667-.15748-.46638-.59358a.60413.60413,0,0,1,.2665-.55118,1.04865,1.04865,0,0,0,.3089-.46638.9402.9402,0,0,1,.39976-.51484,1.1921,1.1921,0,0,0,.33313-.33918.47387.47387,0,0,1,.3513-.321.48193.48193,0,0,1,.23016.09082Z"/>

</g>
</svg>
