<?xml version="1.0" encoding="UTF-8"?>
<svg xmlns="http://www.w3.org/2000/svg"
     version="1.1"
     width="34.49030814mm"
     height="29.28936055mm"
     viewBox="0.00000000 0.00000000 97.76769223 83.02503399">

<g transform="scale(7.37785852)">   <defs>
      <style type="text/css"><![CDATA[
      .a {
        stroke: #000;
        stroke-linecap: round;
        stroke-linejoin: round;
        stroke-width: 0.01px;
      }
    ]]></style>
   </defs>
   <path class="a"
         d="M3.98532.09585A2.26419,2.26419,0,0,1,3.6219.24728a2.64118,2.64118,0,0,0-.75711.5754,4.24074,4.24074,0,0,1-.73894.58147c-.109.03634-.19988.103-.19988.15142a.39462.39462,0,0,1-.12114.20593.40581.40581,0,0,0-.12114.19988A.48048.48048,0,0,1,1.605,2.1552a2.853,2.853,0,0,0-.27862.89037,1.21862,1.21862,0,0,1-.27861.23016,1.02733,1.02733,0,0,0-.46639.82374c-.01817.20594.00606.24228.18171.34525.16354.09691.23016.109.3513.04845a.439.439,0,0,0,.19988-.20593,1.906,1.906,0,0,1,.60569-.78135c.0848-.03634.23016-.103.321-.14536.15142-.07874.17565-.07874.29073.03634a.44288.44288,0,0,1,.12719.25439,1.892,1.892,0,0,0,.07874.6602c.02423.06663-.006.15748-.109.27256a1.89716,1.89716,0,0,0-.24833.49667,1.12508,1.12508,0,0,1-.29074.47244.48484.48484,0,0,0-.19382.34524,1.45784,1.45784,0,0,1-.2665.79346.29245.29245,0,0,0-.09085.26045c.02422.09691-.03029.19987-.20594.3937a1.39728,1.39728,0,0,0-.27256.41792,2.71038,2.71038,0,0,1-.86614.76317A.09252.09252,0,0,0,.131,8.64193l.0021.00628a.4363.4363,0,0,1-.06054.27256.53754.53754,0,0,0-.02422.47244,1.212,1.212,0,0,1,.03634.41187,1.06782,1.06782,0,0,0,.30284.71472.98226.98226,0,0,0,.315.19382,1.78474,1.78474,0,0,1,.39976.2241,1.11275,1.11275,0,0,0,.39975.18171.62555.62555,0,0,1,.26651.0848,1.0067,1.0067,0,0,0,.46032.03028c.218-.01211.44821-.02423.5209-.02423a3.37038,3.37038,0,0,0,.66626-.27256,3.30387,3.30387,0,0,1,.642-.27256.47509.47509,0,0,0,.24833-.13931c.07874-.07268.30891-.29073.51484-.47849a2.23121,2.23121,0,0,1,.41793-.3513,2.205,2.205,0,0,1,.41187.27256,1.9275,1.9275,0,0,0,.43.27256.53325.53325,0,0,1,.212.109,3.462,3.462,0,0,0,.55724.28468c.39369.16353.41187.16353.4906.06057a.44728.44728,0,0,1,.28468-.1272,2.4908,2.4908,0,0,0,.38764-.05451,2.3242,2.3242,0,0,1,.33313-.03634A2.94218,2.94218,0,0,0,9.17,10.24721a2.315,2.315,0,0,0,.23016-.15142.86064.86064,0,0,1,.38765-.12114c.212-.01211.6178-.19987.6178-.29073a.95514.95514,0,0,1,.18171-.23016.7277.7277,0,0,0,.18171-.24228c0-.03028.07874-.09691.17565-.14536a2.58558,2.58558,0,0,0,.41792-.321c.38765-.36341.5633-.50272.62387-.50272.03634,0,.103-.103.15142-.23016.0969-.218.16353-.30891.59963-.745a.59885.59885,0,0,0,.212-.38159A.45534.45534,0,0,1,13.101,6.5828c.18776-.17565.19382-.37552.01817-.46638a1.54643,1.54643,0,0,1-.27862-.19382.91331.91331,0,0,0-.4361-.16354c-.24833-.03028-.321-.01817-.40581.07269a2.13485,2.13485,0,0,1-.41793.29073,2.506,2.506,0,0,0-.38764.27256,2.80639,2.80639,0,0,1-.72683.39976,1.49335,1.49335,0,0,0-.78134.49666.48123.48123,0,0,0,0,.50878.95425.95425,0,0,0,.36947.109.87353.87353,0,0,1,.41793.15748c.109.109.109.13325.02423.29679-.07874.15748-.57541.49061-.57541.3937,0-.02423-.06057.00605-.13325.05451a.59742.59742,0,0,1-.30285.09691c-.09691,0-.16959.02423-.16959.06057,0,.04845-.25439.1817-.854.44215a2.37826,2.37826,0,0,1-.76922.09691c-.62992,0-.79952-.08479-.92065-.45427A.85019.85019,0,0,1,6.82,8.38773c.05451-.16959.03634-.2241-.19988-.53906-.23016-.30285-.26044-.37553-.2241-.56935A2.5873,2.5873,0,0,1,6.95931,6.183c.07268-.0424.109-.109.09085-.15748a.39559.39559,0,0,1,.03634-.23622c.06057-.1272.04846-.17565-.06056-.29073a1.1727,1.1727,0,0,0-.39976-.218.43338.43338,0,0,0-.50272.07874,1.19,1.19,0,0,1-.28468.15748.9194.9194,0,0,0-.25439.19382,3.09154,3.09154,0,0,1-.37553.33313.95914.95914,0,0,0-.29073.47244.99773.99773,0,0,0-.06663.36947c.01818.02423-.00605.12719-.06662.23016a1.35947,1.35947,0,0,0-.11508.49061,1.59777,1.59777,0,0,1-.47244,1.2235c-.0848.06057-.33919.27862-.56329.49061-.51484.48455-.642.55118-1.01151.533a1.22437,1.22437,0,0,1-.83585-.36342c-.14537-.13325-.15748-.17565-.103-.28467a.21283.21283,0,0,0,.0424-.15748.84427.84427,0,0,1,.11508-.32708.77775.77775,0,0,0,.12114-.3513c-.01817-.03028.01817-.12114.0848-.20593a2.868,2.868,0,0,0,.27861-.4785,5.08427,5.08427,0,0,1,.64809-1.04179,1.26313,1.26313,0,0,0,.22411-.39975.47776.47776,0,0,1,.36947-.3937c.16354-.01212.28467-.27256.29073-.62386a.602.602,0,0,1,.22411-.424,1.51461,1.51461,0,0,0,.315-.48455.6437.6437,0,0,1,.16959-.29679.149.149,0,0,0,.0848-.13325,1.31934,1.31934,0,0,1,.1817-.38764A.855.855,0,0,0,4.98471,2.773a.95029.95029,0,0,1,.06662-.56935.45421.45421,0,0,0,.02425-.39975,1.07523,1.07523,0,0,1-.02423-.37553A1.19074,1.19074,0,0,0,4.9605.98622a1.0036,1.0036,0,0,1-.09085-.3937C4.89991.50772,4.33658.005,4.21548.005A.836.836,0,0,0,3.98532.09585Z"/>

</g>
</svg>
