<?xml version="1.0" encoding="UTF-8"?>
<svg xmlns="http://www.w3.org/2000/svg"
     version="1.1"
     width="23.88925390mm"
     height="66.30402818mm"
     viewBox="0.00000000 0.00000000 67.71762297 187.94833253">

<g transform="scale(7.21921656)">   <defs>
      <style type="text/css"><![CDATA[
      .a {
        stroke: #000;
        stroke-miterlimit: 10;
        stroke-width: 0.15px;
      }
    ]]></style>
   </defs>
   <path class="a"
         d="M1.16906,4.89629a10.70488,10.70488,0,0,1,.95833-1.3125c.02912-.03252.28018-.31222.59375-.6875.13625-.163.217-.26363.30083-.37437.21688-.28652.34507-.51748.38879-.56291A7.02088,7.02088,0,0,1,5.8343.17145,1.38853,1.38853,0,0,1,6.48155.0838a1.17714,1.17714,0,0,1,.77083.39583c.18413.23762.06529.34365.231.80353.15274.42381.2659.36769.50807.93514a4.623,4.623,0,0,0,.26092.63633,1.35152,1.35152,0,0,1,.22917.45833,1.69516,1.69516,0,0,1-.02083.4375c-.00447.32107.1524.44626.25458.748.11982.35392.02049.5257.01625.98115A4.20623,4.20623,0,0,0,8.98827,6.8072a10.93057,10.93057,0,0,1,.31666,2.97553,14.38471,14.38471,0,0,1-.26087,2.46773,15.75728,15.75728,0,0,1-.64333,2.56781.23261.23261,0,0,1-.04906.12864c-.1226.14432-.37387-.00976-.57664.1093-.10593.0622-.14395.17508-.22.40083a.87152.87152,0,0,0-.05019.68743c.08006.14407.19621.14622.23792.29873a.56841.56841,0,0,1-.04144.3245l-.65479,1.955c-.14235.425-.21867.49943-.319.58976-.11082.09973-.24208.1657-.26673.313-.01591.09511.02756.13486.02408.27015a.71437.71437,0,0,1-.08546.30828c-.09876.20618-.51955,1.3146-1.10529,2.8799a.74623.74623,0,0,0-.601.00111,1.15239,1.15239,0,0,0-.01452.61847,6.32353,6.32353,0,0,1-.697.08876c-.22729.01589-.3483.01132-.4375.10417-.11391.11856-.02992.244-.125.39583-.14233.2273-.422.09216-.59379.27946-.23886.26038.137.70094-.13538,1.13721a.47458.47458,0,0,1-.33334.25c-.22523.01524-.38393-.231-.39583-.25a6.30973,6.30973,0,0,1,.29568-3.24386c.07013-.16281.40582-.908.121-1.21447-.15288-.16447-.4437-.15863-.54166-.39583a.49524.49524,0,0,1,.00231-.33294c.20992-.71152,1.76833-4.54309,2.14471-5.55689a17.29428,17.29428,0,0,0,.64777-2.33465c.51391-2.20374.11346-1.65446.367-3.38691a1.29949,1.29949,0,0,0-.145-.93419,1.11853,1.11853,0,0,0-.36775-.3194c-.84819-.44472-2.11725.97625-3.25323.615A1.87373,1.87373,0,0,1,.07606,7.0051C.05246,6.59616.42466,6.02954,1.16906,4.89629Z"/>

</g>
</svg>
