<?xml version="1.0" encoding="UTF-8"?>
<svg xmlns="http://www.w3.org/2000/svg"
     version="1.1"
     width="32.65063377mm"
     height="35.38169698mm"
     viewBox="0.00000000 0.00000000 92.55298162 100.29458498">

<g transform="scale(5.10555451)">   <defs>
      <style type="text/css"><![CDATA[
      .a {
        stroke: #000;
        stroke-linecap: round;
        stroke-linejoin: round;
        stroke-width: 0.01px;
      }
    ]]></style>
   </defs>
   <path class="a"
         d="M15.95818.01411a.49491.49491,0,0,0-.212.14536A.49666.49666,0,0,1,15.516.30484a.92674.92674,0,0,0-.24834.08479c-.06662.03635-.13325.04846-.15142.03029S15.01934.426,14.9406.48049a1.48665,1.48665,0,0,1-.57541.11508,1.91479,1.91479,0,0,0-.66626.14536,2.58018,2.58018,0,0,1-.87219.23017,2.02366,2.02366,0,0,0-.48455.16959,2.09953,2.09953,0,0,1-1.01757.16354,3.941,3.941,0,0,0-.80556.06662.302.302,0,0,1-.15143.0424,2.847,2.847,0,0,0-.89036.16354,3.82792,3.82792,0,0,0-.57541.33919,1.01854,1.01854,0,0,1-.41793.212,1.063,1.063,0,0,0-.41187.09691c-.55723.19988-.79951.23016-1.03573.12719a.67458.67458,0,0,0-.321-.04845A.47628.47628,0,0,1,6.41855,2.243a.88031.88031,0,0,0-.533-.05451,3.30709,3.30709,0,0,0-1.00545.218,1.32528,1.32528,0,0,1-.38764.0848.56473.56473,0,0,1-.62992-.49061c-.0848-.33313-.4361-.70866-.62386-.66626a3.24129,3.24129,0,0,1-.33919.04846A1.29348,1.29348,0,0,0,2.20294,1.71a.393.393,0,0,1-.19988.109c-.27256.04846-.37553.09692-.33919.15748.01817.03029-.0424.13326-.13931.22411a2.70727,2.70727,0,0,0-.533.90854A.33519.33519,0,0,1,.83408,3.303a.25208.25208,0,0,0-.11508.1817A.74181.74181,0,0,1,.501,3.83a1.076,1.076,0,0,0-.3513.71471.91038.91038,0,0,1-.06669.2665.25.25,0,0,0,.03028.18776.22006.22006,0,0,1,0,.24228.22009.22009,0,0,0,0,.24228.22.22,0,0,1,0,.24227c-.04845.09086-.04239.16354.03029.3089.05451.103.0848.19988.06662.218s-.006.0848.03029.14537a.25155.25155,0,0,1-.00606.23622,2.07248,2.07248,0,0,0-.08479.56935,1.27284,1.27284,0,0,1-.09691.55118c-.06057.07874-.06663.12719,0,.26044a2.08078,2.08078,0,0,1,.103.40582,4.37559,4.37559,0,0,0,.07874.47849.63986.63986,0,0,1-.01211.37553.48317.48317,0,0,0-.01215.309,2.1232,2.1232,0,0,1,.0848.67838,1.34515,1.34515,0,0,0,.0848.424.256.256,0,0,1,.02423.2665.28773.28773,0,0,0-.01212.212,1.45971,1.45971,0,0,1,.05451.37553A5.68015,5.68015,0,0,0,.616,12.84264a4.03058,4.03058,0,0,1,.109,1.02968,4.749,4.749,0,0,1-.09085.86008c-.01817.01817,0,.09085.03634.16353a1.00214,1.00214,0,0,1,.07874.34525.79564.79564,0,0,0,.14537.3937.6644.6644,0,0,1,.12719.212,6.034,6.034,0,0,0,1.5748,1.68988,2.81118,2.81118,0,0,1,.44215.27861.633.633,0,0,0,.315.14537,4.94245,4.94245,0,0,1,1.278.636.45307.45307,0,0,0,.24228.12719,1.79822,1.79822,0,0,1,.38764.15748.97252.97252,0,0,0,.30284.109.56269.56269,0,0,1,.23017.09086,1.32068,1.32068,0,0,0,.93276.09085,3.50433,3.50433,0,0,1,.47244-.12719c.15142-.02423.3937-.07874.54512-.11508a2.28323,2.28323,0,0,1,1.29618.01211c.527.18171.8298.15142,1.76256-.16959a1.79331,1.79331,0,0,1,.51484-.07269,2.01135,2.01135,0,0,0,1.07207-.19382.58658.58658,0,0,1,.22411-.12114c.0424,0,.13325-.07874.19987-.16959a2.33642,2.33642,0,0,1,.97517-.64809,1.22222,1.22222,0,0,0,.35735-.109,1.43966,1.43966,0,0,1,.80557-.1696c.109.01212.18777.24228.12114.36342-.0424.09085-.03634.19382.03634.39975a.92652.92652,0,0,1,.06056.36948,1.40149,1.40149,0,0,0,.38766.81162,1.74984,1.74984,0,0,1,.23016.27862c.0424.07268.15142.109.33918.12114a.582.582,0,0,0,.533-.19988,2.048,2.048,0,0,0,.41793-.49667,2.50031,2.50031,0,0,1,.38159-.47849.5396.5396,0,0,0,.2241-.41187c.00606-.11508.01817-.23622.02423-.26651.00606-.03634.01817-.212.02423-.3937a.61933.61933,0,0,1,.1817-.52089c.16354-.16354.17565-.218.15748-.49667a2.44167,2.44167,0,0,1,.02423-.533.35041.35041,0,0,0-.06663-.35735c-.12719-.15143-.11508-.43.0424-.98728.07874-.27256.07874-.30285-.09085-.66626-.17565-.36947-.17565-.38158-.07874-.64809a1.30778,1.30778,0,0,0,.01817-.93882,1.2164,1.2164,0,0,1-.12114-.60569,1.82289,1.82289,0,0,1,.03029-.24228c.01817-.103.04239-.30284.06057-.44821a.85955.85955,0,0,1,.05451-.29073c.01817-.01817-.00606-.103-.05451-.19382a.267.267,0,0,1-.01818-.26651c.0424-.07874.02423-.15748-.06662-.30284-.109-.17565-.11508-.218-.0424-.321.06663-.09691.07268-.15142.00606-.29679a.32449.32449,0,0,1,.00605-.33918.533.533,0,0,0,.01817-.3937,3.18379,3.18379,0,0,1-.08479-.50878.9816.9816,0,0,0-.30285-.745,1.34483,1.34483,0,0,1-.3089-.92065c-.04846-.51484-.02423-.76317.0848-.89643a.97235.97235,0,0,0-.04846-.7026c-.06057-.15748-.06057-.212.01212-.315.07268-.11508.06662-.16353-.04846-.3937a3.01452,3.01452,0,0,0-.25439-.41792c-.103-.1272-.11508-.18777-.06663-.315a.22372.22372,0,0,0-.06662-.29073.65278.65278,0,0,1-.15142-.58147,1.38685,1.38685,0,0,1,.3513-.35735c.59357-.46033.5754-.44216.52089-.61781a.37611.37611,0,0,1-.01817-.18776,2.7516,2.7516,0,0,0-.39976-.87826,1.114,1.114,0,0,0-.636-.34524,1.57951,1.57951,0,0,1-.212-.04845A.58665.58665,0,0,0,15.95818.01411ZM13.25074,4.11463a.79526.79526,0,0,1,.103.321,2.57964,2.57964,0,0,0,.23622.89642,1.0711,1.0711,0,0,1,.11508.3513,2.23389,2.23389,0,0,0,.24833.76317,1.0058,1.0058,0,0,1,.09086.28468,1.24715,1.24715,0,0,0,.109.6178.26458.26458,0,0,1,.05451.17565.77034.77034,0,0,0,.15143.32708c.13931.23016.17565.34524.14536.48455a.56343.56343,0,0,0,.03029.3089,3.06025,3.06025,0,0,1,.05451.957,5.91028,5.91028,0,0,0,.11508,1.19927.31413.31413,0,0,1,.00606.22411.80848.80848,0,0,0-.01817.30284,13.71347,13.71347,0,0,1,.01817,1.51423,1.31486,1.31486,0,0,0,.13325.61781,1.58791,1.58791,0,0,1,.11508.79345,1.319,1.319,0,0,0,.09085.50878c.0848.16354.0848.19382,0,.321a.61232.61232,0,0,1-.3513.212c-.14536.03634-.30284.0848-.3513.103a2.23744,2.23744,0,0,1-.29679.06057,2.02,2.02,0,0,0-.424.11508,2.69634,2.69634,0,0,1-.79345.109,1.51831,1.51831,0,0,0-.80557.15748c-.18171.109-.26045.12114-.36342.07874a4.38867,4.38867,0,0,0-.9691-.0424,2.79794,2.79794,0,0,1-1.05391-.07874.72189.72189,0,0,0-.3513-.05451.33218.33218,0,0,1-.28467-.07874.69381.69381,0,0,0-.69655-.07268.51987.51987,0,0,1-.49666-.05451,1.15169,1.15169,0,0,0-.33919-.12114.4176.4176,0,0,1-.218-.1272,1.67949,1.67949,0,0,0-.37553-.24227,4.13764,4.13764,0,0,1-.99939-.64809.10241.10241,0,0,0-.09085-.07269c-.22411,0-.80557-.65414-.68443-.77528.01817-.01817.00606-.06663-.03029-.11508a1.08645,1.08645,0,0,1-.12113-.59358.379.379,0,0,0-.05452-.18776,4.747,4.747,0,0,1-.39975-1.08419c-.01212-.103-.04846-.29073-.07874-.424-.03634-.13326-.07874-.32708-.103-.424a.82426.82426,0,0,0-.09691-.25439,2.09776,2.09776,0,0,1-.0848-.62992,2.58419,2.58419,0,0,0-.20593-1.01756c-.18171-.44821-.18171-.47244-.09086-.69049.109-.2665.11509-.53906.01817-.636a1.05781,1.05781,0,0,1,.0424-.77529,2.25666,2.25666,0,0,1,1.49-.99333,1.49319,1.49319,0,0,0,.51484-.12719.56519.56519,0,0,1,.51484-.06663.75626.75626,0,0,0,.59963-.07268A3.63009,3.63009,0,0,1,7.957,5.21093a1.85706,1.85706,0,0,0,.33919-.11508c.12114-.04845.23622-.07874.25439-.06057s.13931-.02422.27862-.09085a1.04585,1.04585,0,0,1,.3937-.12719A.84575.84575,0,0,0,9.58631,4.69a1.40231,1.40231,0,0,1,.68443-.14537,2.56741,2.56741,0,0,0,1.01151-.23622,2.58156,2.58156,0,0,1,.72683-.212,1.50028,1.50028,0,0,0,.72682-.16353c.09692-.06663.14537-.06663.27862.00605A.82778.82778,0,0,1,13.25074,4.11463Z"/>

</g>
</svg>
