<?xml version="1.0" encoding="UTF-8"?>
<svg xmlns="http://www.w3.org/2000/svg"
     version="1.1"
     width="45.53073419mm"
     height="36.75441012mm"
     viewBox="0.00000000 0.00000000 129.06352383 104.18577672">

<g transform="scale(6.18595529)">   <defs>
      <style type="text/css"><![CDATA[
      .a {
        stroke: #000;
        stroke-linecap: round;
        stroke-linejoin: round;
        stroke-width: 0.01px;
      }
    ]]></style>
   </defs>
   <path class="a"
         d="M15.355.0406a.479.479,0,0,1-.206.06057.38794.38794,0,0,0-.22411.09691.77732.77732,0,0,1-.40581.109.83513.83513,0,0,0-.46636.14537.61227.61227,0,0,1-.24228.13325c-.0424,0-.12114.06663-.17565.14537a.48314.48314,0,0,1-.23016.18776,1.31081,1.31081,0,0,0-.854.55724.61216.61216,0,0,0-.13325.38764c.03028.09085-.04846.212-.32707.49667-.19988.20593-.4785.49666-.61175.64809a6.963,6.963,0,0,1-.7874.81768,1.03652,1.03652,0,0,0-.36341.533,1.11268,1.11268,0,0,1-.22411.36947c-.212.27256-.218.29073-.15748.56329a.5654.5654,0,0,1-.05451.51484.70367.70367,0,0,0-.09085.39975,2.83478,2.83478,0,0,0,.48455,1.06,1.21133,1.21133,0,0,1,.2241.40582.77282.77282,0,0,0,.03634.20593c.02423.06057-.08479.212-.33918.46033-.22411.218-.36342.39975-.34525.44821a.26535.26535,0,0,1-.04845.19988.45878.45878,0,0,0-.09085.24227.43733.43733,0,0,1-.1272.26651c-.11508.11508-.13325.12113-.27862.02422a.25064.25064,0,0,0-.30284-.03634.41436.41436,0,0,1-.26045.03634,1.10255,1.10255,0,0,0-.67837.28468c-.22411.17565-.37553.103-.73289-.37553-.29073-.38764-.33313-.52089-.218-.73894.109-.19988-.0848-.55118-.3513-.64809A1.06855,1.06855,0,0,0,5.82141,8.06,4.16923,4.16923,0,0,0,4.57365,9.71954c-.09691.27256-.09691.29073.02423.45427.11508.15748.11508.18171.03634.32707a1.517,1.517,0,0,1-.39976.37553,5.7429,5.7429,0,0,0-.60569.50878,1.58081,1.58081,0,0,1-.3513.28468,5.59156,5.59156,0,0,0-.91459.96305,1.61351,1.61351,0,0,1-.27862.36947,4.81538,4.81538,0,0,0-.33919.41187.85172.85172,0,0,1-.26044.2241.47889.47889,0,0,0-.20594.23622.441.441,0,0,1-.20593.24228c-.19988.103-.41187.32707-.35736.37553.04846.04845-.18171.50878-.25439.50878a1.79129,1.79129,0,0,0-.2665.44821c-.26045.52089-.25439.71471.03028,1.02362.09691.109.218.23622.26045.28467.04845.06057.17565.0848.34524.07874.13931-.00606.636-.02423,1.09025-.03634a5.74993,5.74993,0,0,0,.89036-.07268.20215.20215,0,0,1,.16354.01817c.06662.03634.2241.01211.47849-.07874.26651-.09086.41187-.11508.48456-.07268a.381.381,0,0,0,.32707-.04846.82277.82277,0,0,1,.28467-.0848.29455.29455,0,0,0,.17565-.04845,1.52056,1.52056,0,0,1,.51484-.04846.94609.94609,0,0,0,.642-.12114c.218-.12719.27257-.1393.4361-.07874.15748.06057.24834.05452.53907-.04239a3.66564,3.66564,0,0,1,.48455-.1272.76021.76021,0,0,0,.2665-.103.325.325,0,0,1,.23622-.06057.3615.3615,0,0,0,.24834-.06056c.11508-.0848.15142-.0848.35735.02422.19988.103.24834.109.35736.0424.07268-.0424.1272-.09691.1272-.12114,0-.13931.7874-.28467.963-.17565a.75618.75618,0,0,0,.41187-.06662.64277.64277,0,0,1,.81162.12719c.15142.13931.22411.1696.3513.13325a.75877.75877,0,0,1,.3089-.00605.68212.68212,0,0,0,.72683-.58147,1.59543,1.59543,0,0,1,.3513-.81768.77409.77409,0,0,0,.23017-.29679.66165.66165,0,0,1,.26044-.27256c.17565-.0848.19383-.0848.30891.03029a.68039.68039,0,0,1,.13325.54512.99566.99566,0,0,0,.07268.30284.40235.40235,0,0,1,.03029.315c-.03635.06663.00605.17565.14536.38764a.78556.78556,0,0,1,.18171.57541c-.01817.36342.09085.5209.27862.424a.32293.32293,0,0,1,.24227-.03634c.1272.03634.69655-.50272.98122-.93882a1.20669,1.20669,0,0,1,.60569-.47849,3.06711,3.06711,0,0,0,.58752-.3513.61135.61135,0,0,1,.19383-.13931c.02422,0,.09085-.09691.15748-.218a.87065.87065,0,0,1,.34524-.33313.66672.66672,0,0,0,.26045-.20594,1.69335,1.69335,0,0,1,.41187-.32707,7.049,7.049,0,0,0,.66626-.48455,2.88342,2.88342,0,0,1,.46032-.33919.61366.61366,0,0,0,.36342-.527,3.30446,3.30446,0,0,1,.23016-.92065,1.67158,1.67158,0,0,0,.18776-.82374A1.19532,1.19532,0,0,1,20.473,9.344a.45679.45679,0,0,0,.11508-.40581.66454.66454,0,0,1,.06057-.40581.43631.43631,0,0,0,.06057-.27256.91276.91276,0,0,1,.05451-.3513,2.41056,2.41056,0,0,0,.06057-.75106,3.24669,3.24669,0,0,1,.01817-.94488.339.339,0,0,0-.12719-.38158c-.09691-.09691-.14537-.19988-.1272-.25439a.4723.4723,0,0,0-.19382-.424.561.561,0,0,1-.11508-.32707A2.07779,2.07779,0,0,0,20.158,4.3168c-.04845-.13931-.103-.315-.12114-.39976a.64.64,0,0,0-.109-.24227,1.66468,1.66468,0,0,1-.16959-.27257,2.59462,2.59462,0,0,0-.30891-.41186.76123.76123,0,0,1-.218-.33919.41251.41251,0,0,0-.16353-.24834,1.72179,1.72179,0,0,1-.49667-.71471c-.03028-.109-.11508-.17565-.3089-.24833a.60728.60728,0,0,1-.40581-.36342c-.16354-.321-.218-.38158-.36342-.3937a2.7441,2.7441,0,0,1-.81768-.2241.98227.98227,0,0,0-.321-.11508A.44762.44762,0,0,1,16.11808.192a.40059.40059,0,0,0-.25439-.13931,1.15991,1.15991,0,0,1-.2665-.03634A.34954.34954,0,0,0,15.355.0406Zm-.636,2.21685a.48762.48762,0,0,1,.17565.19988c.07874.13931.07268.18776-.05452.43-.07874.15142-.1817.3513-.23016.45427a1.1078,1.1078,0,0,1-.218.29678.45549.45549,0,0,0-.12719.27257.75561.75561,0,0,1-.36342.58146c-.103.03028-.12114.0848-.11508.26045a.79389.79389,0,0,1-.05451.35735c-.103.18171-.03634.30891.23016.44216.23622.12114.321.24227.26651.38764-.01817.04846.01817.11508.09085.15748a1.93047,1.93047,0,0,1,.51484,1.12659c.13325.67837.12719.90853-.0424,1.07813a2.36057,2.36057,0,0,0-.41187.81162.482.482,0,0,1-.20594.20594c-.12719.06057-.1817.04845-.321-.05452a.77684.77684,0,0,0-.75106-.11508.321.321,0,0,1-.3513.00606,1.67856,1.67856,0,0,0-.62387-.07874,2.39827,2.39827,0,0,1-.51484-.03634.52238.52238,0,0,0-.27861.05451c-.15749.06663-.25439.07874-.33313.03028-.24228-.12719-.18777-.36341.16354-.75711a6.654,6.654,0,0,0,.84183-1.10838.44421.44421,0,0,0-.04845-.20594c-.0424-.07874-.02423-.17565.04845-.33313a4.77009,4.77009,0,0,0,.03028-1.914c-.06056-.40581-.05451-.50273.01818-.65415.05451-.09691.12113-.17565.15142-.17565a1.13857,1.13857,0,0,0,.29679-.23016c.13325-.12114.38158-.35736.55118-.51484.20593-.19988.33918-.28467.40581-.26045.109.0424.53906-.2241.62992-.39975a.7235.7235,0,0,1,.28467-.22411C14.64629,2.20292,14.59784,2.215,14.719,2.25745Zm2.31979,2.44093c.05451.06057.19988.23622.315.3937s.3937.49061.61175.745a3.52234,3.52234,0,0,1,.57541.854c.09691.2241.29073.636.43609.91459.24228.47244.25439.51484.16354.64809a.28653.28653,0,0,0-.02423.30285.40923.40923,0,0,1-.006.32707,1.80827,1.80827,0,0,0-.01212.93882c.06057.20593.05451.2665-.0424.3937a1.29432,1.29432,0,0,0-.15748.33313c-.02422.09691-.06057.2241-.07268.27256-.01817.04846-.05451.2665-.09085.4785a.80231.80231,0,0,0,.03028.58146c.09086.18776.09086.20593-.05451.39976a.59426.59426,0,0,1-.49667.321,1.0952,1.0952,0,0,0-.38764.14537c-.18171.11508-.212.11508-.36947.03634-.19382-.103-.34524-.03029-.34524.16354a.99246.99246,0,0,1-.27257.38764c-.23621.23016-.29678.2665-.39369.212-.1272-.06663-.14537-.13325-.212-.636a1.9494,1.9494,0,0,1-.02422-.87825.68125.68125,0,0,0-.03029-.45427.62619.62619,0,0,1-.05451-.32707c.03634-.13931-.27862-.56329-.90248-1.21744a1.6188,1.6188,0,0,1-.23016-.27256,1.1744,1.1744,0,0,1,.29679-.4785,1.14188,1.14188,0,0,0,.212-.424,2.52171,2.52171,0,0,1,.27862-.59358c.14536-.218.17565-.3089.13325-.3937-.06057-.103.03028-.33313.24227-.636.06057-.0848.05452-.13931-.03028-.29073-.109-.17565-.109-.18171.03634-.315.25439-.24228.3089-.39976.22411-.65415a.551.551,0,0,1,.05451-.52089.80278.80278,0,0,0,.09691-.45427.26836.26836,0,0,1,.0848-.29073c.15736-.15736.27849-.16342.4178-.012Zm-4.682,5.51785c1.066.04845,1.66565.2665,1.66565.59358a.42776.42776,0,0,1-.29073.36947.66689.66689,0,0,0-.27862.29679c-.2665.55117-.33313.65414-.52695.78739a.906.906,0,0,0-.27256.30285.72184.72184,0,0,1-.24833.27862.85136.85136,0,0,0-.34525.636.29727.29727,0,0,1-.12719.212,2.89376,2.89376,0,0,0-.37553.321.94914.94914,0,0,1-.33919.26045.8097.8097,0,0,1-.28467-.15142.76676.76676,0,0,0-.81163-.06057c-.06057.04845-.13931.07268-.16959.05451a.121.121,0,0,0-.1272.03028,3.45957,3.45957,0,0,1-1.169.40582.437.437,0,0,0-.27862.03028,2.51561,2.51561,0,0,1-.89036.12114.7563.7563,0,0,1-.38765-.1272.42276.42276,0,0,0-.3937-.09691,1.88569,1.88569,0,0,1-.73894.01212,1.30541,1.30541,0,0,0-.47244.03634.43057.43057,0,0,1-.3937-.01212,1.667,1.667,0,0,0-.46638-.09691c-.99939-.06662-1.35675-.14536-1.45971-.33313-.05452-.103-.01212-.16959.27861-.45426a1.87509,1.87509,0,0,1,.49667-.38159.398.398,0,0,0,.22411-.16354c.36947-.7026.75105-1.10235,1.08418-1.13264a1.227,1.227,0,0,0,.32708-.12114.76365.76365,0,0,1,.24227-.09085c.11508.03028.43-.20593.58752-.43a1.82578,1.82578,0,0,1,1.52029-.636,1.44393,1.44393,0,0,0,.54512-.13325,1.63671,1.63671,0,0,1,.56329-.13325,1.93751,1.93751,0,0,0,.53907-.103c.19382-.08479.26044-.08479.58146,0,.33313.0848.36947.0848.4361-.01211a1.33332,1.33332,0,0,1,.848-.15142c.0666.01814.47847.04842.90851.07265Z"/>

</g>
</svg>
