<?xml version="1.0" encoding="UTF-8"?>
<svg xmlns="http://www.w3.org/2000/svg"
     version="1.1"
     width="29.16690293mm"
     height="30.30091226mm"
     viewBox="0.00000000 0.00000000 82.67789062 85.89242229">

<g transform="scale(6.18595529)">   <defs>
      <style type="text/css"><![CDATA[
      .a {
        stroke: #000;
        stroke-linecap: round;
        stroke-linejoin: round;
        stroke-width: 0.01px;
      }
    ]]></style>
   </defs>
   <path class="a"
         d="M4.45076.01365a.83588.83588,0,0,1-.26649.06056C4.051.09238,3.833.13478,3.69972.16507c-.13325.03634-.321.07874-.424.103A4.20361,4.20361,0,0,0,2.67.51035a3.24258,3.24258,0,0,1-.64809.23622,1.05743,1.05743,0,0,0-.44821.24228,3.05608,3.05608,0,0,1-.5754.38764A3.63046,3.63046,0,0,0,.538,1.65511c-.06057.04845-.20593.16959-.321.27256l-.212.17565.12114.23016c.109.19988.15142.23016.33919.23016a.65477.65477,0,0,1,.315.0848.16182.16182,0,0,0,.16353.03634c.212-.13325.64809.44821.81163,1.08419a6.33193,6.33193,0,0,0,.24228.67231,1.15383,1.15383,0,0,1,.12719.73289,3.27459,3.27459,0,0,1-.06057.52089q-.04542.109.05451.14537c.18777.07268.33919.424.37553.87825a2.80027,2.80027,0,0,0,.07874.53907,1.71131,1.71131,0,0,1-.03634.7874,1.23248,1.23248,0,0,0-.01211.44821.62731.62731,0,0,1-.07269.45426,1.92119,1.92119,0,0,0-.1393.55724,2.378,2.378,0,0,1-.09691.50272.68374.68374,0,0,0-.02423.30891.47194.47194,0,0,1-.0424.28467.46014.46014,0,0,0-.06663.212.52014.52014,0,0,1-.06662.24228.72271.72271,0,0,0-.07269.321.5785.5785,0,0,1-.05451.27256,2.61607,2.61607,0,0,0-.09085.93882,2.47943,2.47943,0,0,0,.07268.69654,1.42731,1.42731,0,0,0,.848.47244.81718.81718,0,0,1,.30284.09086.56.56,0,0,0,.37553,0,3.42677,3.42677,0,0,1,.45427-.05452,2.02256,2.02256,0,0,0,1.37492-.24227,2.13428,2.13428,0,0,1,.83585-.26651.64735.64735,0,0,0,.56935-.2665,2.05222,2.05222,0,0,1,.51484-.36947c.62992-.27862.89642-.82374.53907-1.07813-.16354-.109-.18171-.109-.41187-.01212a.77532.77532,0,0,1-.527.04846,1.35981,1.35981,0,0,0-.49666,0,1.17361,1.17361,0,0,1-.48456.00606.9813.9813,0,0,0-.36341-.01818,3.16408,3.16408,0,0,1-.957-.28467.354.354,0,0,1-.13935-.1696.30984.30984,0,0,0-.218-.15143c-.17565-.03634-.4785-.27861-.4785-.3937a.76519.76519,0,0,1,.16354-.24833c.15142-.18171.15142-.19988.06663-.3513A.2499.2499,0,0,1,3.833,9.66232c.04846-.09691.07268-.18776.05451-.20593s.02423-.13326.09086-.24834a1.0817,1.0817,0,0,0,.11508-.34524,1.855,1.855,0,0,1,.43-.7026.79113.79113,0,0,0,.109-.36947,2.21,2.21,0,0,1,.212-.62992,1.7175,1.7175,0,0,0,.212-1.066.35456.35456,0,0,1,.04845-.315.37525.37525,0,0,0,.03029-.36947.28193.28193,0,0,1-.00606-.28468,2.121,2.121,0,0,0,.11508-.52089,1.3049,1.3049,0,0,1,.18776-.57541l.13326-.1817-.12109-.36946a.7651.7651,0,0,1-.07268-.47244A1.24476,1.24476,0,0,1,5.862,2.7756c.24227-.07268.54512-.16959.66626-.218a1.05583,1.05583,0,0,1,.79345.03029c.06057.04845.13325.04845.27256,0a.66833.66833,0,0,1,.3937-.00606c.17565.04846.23016.0424.33313-.06662.1272-.1272.43-.15748,1.82919-.18171.55118-.01211.70866.0848.62992.40581a13.5614,13.5614,0,0,0,.07268,2.45911c.01817.218.03634.50272.03028.636a8.425,8.425,0,0,0,.04846,1.63537,5.4727,5.4727,0,0,1,.07268,1.06,1.72061,1.72061,0,0,0,.03029.30284.82968.82968,0,0,1-.12114.52695.80111.80111,0,0,0-.1272.54513c.0424.26044.14537.98727.15748,1.07813,0,.03028-.01817.19987-.03634.36947a1.10543,1.10543,0,0,0,.09086.66626,1.85556,1.85556,0,0,1,.12719.49061,1.16763,1.16763,0,0,0,.57541.81768l.26044.1272.218-.14537a1.53094,1.53094,0,0,0,.51484-.75106,1.24838,1.24838,0,0,1,.18171-.34524,4.6396,4.6396,0,0,0,.48455-1.32041.26753.26753,0,0,0-.07268-.16959,1.14711,1.14711,0,0,1-.0848-.44821A8.37481,8.37481,0,0,0,13.02729,8.984a2.05493,2.05493,0,0,0-.16959-.424c-.11508-.218-.13326-.35735-.14537-1.39309-.01211-.636-.01817-1.36886-.01211-1.63536.01211-.72683.01211-1.39915,0-1.90793a3.68954,3.68954,0,0,1,.13325-1.61719.42648.42648,0,0,0,.103-.212.52709.52709,0,0,1,.12113-.24227.81073.81073,0,0,0,.01818-.7874,3.79569,3.79569,0,0,0-1.41126-.103c-.35131.00606-.745.00606-.87826.00606a1.97153,1.97153,0,0,1-.527-.103,2.9095,2.9095,0,0,0-.636-.103A1.34015,1.34015,0,0,1,9.15092.38921a1.22625,1.22625,0,0,0-.45427-.0848A3.56636,3.56636,0,0,1,8.2121.25593C8.12727.23776,7.89714.20747,7.69727.1893A1.62618,1.62618,0,0,1,7.243.11056a.8778.8778,0,0,0-.36341,0,.74154.74154,0,0,1-.37553-.006A.97335.97335,0,0,0,5.8499.153a.65967.65967,0,0,1-.36341.00606A4.425,4.425,0,0,0,5.00193.07421c-.15142-.0121-.32707-.04239-.39975-.0545A.25562.25562,0,0,0,4.45076.01365Z"/>

</g>
</svg>
