<?xml version="1.0" encoding="UTF-8"?>
<svg xmlns="http://www.w3.org/2000/svg"
     version="1.1"
     width="57.80748761mm"
     height="62.25558249mm"
     viewBox="0.00000000 0.00000000 163.86370584 176.47246350">

<g transform="scale(4.29680440)">   <defs>
      <style type="text/css"><![CDATA[
      .b {
        stroke: #000;
        stroke-miterlimit: 10;
        stroke-width: .15px;
      }
    ]]></style>
   </defs>
   <path class="b"
         d="M27.51094,8.36949c-1.13007,.11786-2.13635,.13177-4.14893,.15955-.49677,.00684-1.05457,.00458-2.17023,0-1.94659-.008-2.88416-.02588-3.70209-.03192-3.36035-.02472-5.04059-.03711-6.76599,.22345-.01337,.00201-1.31744,.22473-3.92554,.67017-1.52808,.26099-1.86078,.31793-2.4574,.31915-1.13123,.00232-1.50433-.19916-2.42554,0-.45203,.09772-1.54626,.33429-1.78723,1.08514-.08075,.25159-.08411,.61829,.0957,.92554,.09943,.16986,.26239,.33453,.57446,.4787,.79016,.36505,1.67316,.19177,2.01068,.12769,.96228-.1828,1.94977-.22687,2.90424-.44684,1.53845-.35455,3.44922-.79498,5.1908-1.01849,.85663-.10992,1.69189-.13806,3.36243-.19427,2.95447-.09943,3.66193,.00299,8.17017-.03192,3.28687-.02545,2.95825-.08026,3.57446-.03192,1.23029,.09656,2.47528-.13275,3.70215,0,.19458,.02106,.78387,.09027,.99475-.21515,.11005-.15942,.05621-.33282,.02655-.64655-.08698-.92053,.21228-1.16882,.06378-1.43616-.25751-.46362-1.38953-.13403-3.28723,.06384Z"/>
   <path class="b"
         d="M34.00667,6.08909c-.14642,.77594-.89838,1.44586-1.61273,1.64209-.13458,.03699-.23517,.04816-.89362,.03192-2.01746-.04974-2.62537-.19305-3.0401,.21619-.26123,.25775-.30524,.59601-.31097,.64551-.0105,.09052-.03491,.4093,.35107,.98938,.24701,.37122,.69403,1.04309,1.53192,1.30847,.38269,.12122,.74854,.12646,1.37231,.03192,1.51367-.22937,2.66351-.76093,3.12769-.98938,.32257-.15875,1.79681-.90094,2.87231-2.10638,.20404-.2287,.44855-.53546,.57446-.98932,.0484-.17438,.1875-.76056-.06378-1.4043-.4671-1.19666-1.8269-1.42297-1.91492-1.43616-.55621-.08319-1.44562-.01465-1.72339,.47876-.0434,.07715-.07208,.23334-.12769,.54254-.10828,.60229-.10199,.82373-.14258,1.03876Z"/>
   <path class="b"
         d="M19.69179,4.7631c-.48804,.32532-.53198,.35895-.67017,.41486-.71765,.29028-1.05896,.00073-1.65961,.28723-.32556,.15527-.22339,.23944-.82977,.70215-.32025,.24438-.68481,.52258-1.14893,.70215-.64142,.24817-.70728,.01172-1.75531,.22339-.48529,.09802-.92963,.24127-1.46808,.41492-.60864,.19623-.62231,.23102-.89362,.28723-.6778,.14044-.78503-.03656-1.5,.03192-.28284,.0271-1.04968,.12988-1.81915,.60638-.44958,.27844-.34698,.34192-.67023,.51062-.99756,.52063-1.87518-.1358-2.26599,.31915-.07257,.08447-.0097,.06909-.12762,1.08508-.06561,.56543-.11047,.789,.03192,.98938,.15643,.22003,.43689,.26886,.54254,.28723,2.7027,.47034,7.08496-1.34039,7.08508-1.34045,6.28033-2.59497,5.36725-1.88763,7.21277-2.84039,.70593-.36444,2.02899-1.08197,3.92554-1.43616,.22784-.04254,.86462-.11346,2.13831-.25537,.11829-.01318,1.46344-.24298,4.14893-.70209,.31592-.05402,.9104-.1554,.92554-.35107,.01062-.13739-.27075-.23865-.57446-.41492-.46344-.26892-.72382-.57288-1.24469-1.18085-.93781-1.0946-.7005-1.48285-1.27661-1.75531-.67834-.3208-1.51196-.0213-1.72339,.06384-.20026,.08063-.11621,.07928-.82977,.4787-.58179,.32568-.87952,.49084-1.21277,.60638-.46857,.16248-.53546,.09686-.98938,.25531-.28949,.10101-.50897,.21381-1.05316,.5426-1.00079,.60468-2.09558,1.33319-2.29791,1.46808Z"/>
   <path class="b"
         d="M31.81947,.1035c-.72095-.08392-1.24017,.02551-2.13831,.22345-.71124,.15674-2.53296,.55823-2.52124,1.05316,.00385,.16187,.20245,.27771,.38293,.383,.50372,.29382,.83948,.09894,1.65961,.22339,.48254,.07324,.8974,.14209,1.21277,.4787,.06854,.07312,.41797,.44611,.35107,.86176-.0401,.24908-.20404,.35437-.44684,.9574-.08337,.20703-.08722,.2522-.06384,.28723,.05731,.08606,.2652,.09137,1.56384-.38293,1.0343-.37781,1.19684-.48871,1.30853-.57446,.22076-.16962,.64264-.49365,.82977-1.08514,.03284-.10376,.27069-.89709-.15961-1.56384-.44055-.68262-1.29053-.78156-1.9787-.86169Z"/>
   <path class="b"
         d="M14.74501,12.19926c-.93109,.79871-1.7547,1.7168-2.68085,2.5213-1.42444,1.23737-2.14117,1.87122-2.36169,2.617-.06738,.22778-.22589,.79047-.03192,1.43616,.05347,.17804,.15845,.51367,.44678,.79785,.49799,.49084,1.19299,.48322,1.59576,.47876,.20038-.0022,1.48145-.03546,2.20215-.95746,.1983-.25366,.28308-.4837,.31915-.57446,.64423-1.62024,3.01996-2.24652,4.85101-4.46808,1.18536-1.43817,.67871-1.76904,2.01068-3.67023,.15454-.22058,.46179-.64496,.35785-1.10223-.15173-.66736-1.08093-.97064-1.37915-1.06799-1.81616-.59277-4.07452,.26855-4.24469,1.21277-.02747,.15228,.01233,.23511-.03192,.63831-.02368,.21582-.07971,.72589-.28723,1.18085-.22876,.50153-.57776,.79608-.76593,.95746Z"/>
   <path class="b"
         d="M17.74501,16.25242c-.34998,1.22131-.86255,3.08069-.22339,4.30853,.16937,.32532,.45367,.67181,.4787,.70215,.34088,.41248,.64008,.7746,1.05322,.82977,.16223,.02167,.27448-.013,.89362-.31915,1.4278-.70605,1.60712-.9057,1.72339-1.117,.10822-.19659,.13599-.40765,.19147-.82977,.13654-1.03839-.1087-1.28937,0-1.97876,.13214-.83795,.53864-.74707,.73407-1.65955,.06848-.3197,.24469-1.14252-.22339-1.91492-.08771-.14471-.47351-.74225-1.21277-.95746-1.28027-.37274-2.39252,.75861-2.5213,.89362-.43195,.45294-.59174,.98895-.89362,2.04254Z"/>
   <path class="b"
         d="M24.9897,14.30565c-.11328,.15912-.19885,.32867-.41492,1.5-.26001,1.40973-.38861,2.13037-.31915,2.90424,.05157,.57428,.08899,.99115,.35107,1.46808,.1123,.20435,.37103,.61108,1.43616,1.30853,.75299,.4931,1.37323,.89923,2.29791,1.18085,1.07251,.32666,1.01697,.01746,3.0957,.28723,1.39624,.18121,1.98175,.39343,2.5213,0,.26965-.19659,.17041-.28387,.70215-1.02124,.73328-1.01685,1.12805-1.13666,1.117-1.59576-.01398-.58215-.6629-.97906-.73407-1.0213-.37524-.22272-.70819-.20496-1.40424-.19147-.83014,.01605-1.72565,.0318-2.5213-.03192-1.47406-.11804-1.74335-.4397-1.81915-.54254-.16687-.22626-.18372-.45941-.15955-1.18085,.07458-2.22803,.32391-2.65198-.03192-3.22345-.20258-.32532-.51941-.56702-.98938-.92548-.34833-.26569-.50562-.33075-.67004-.34888-.3045-.03357-.53937,.10406-.92566,.34888-.92261,.58478-1.38391,.87714-1.53192,1.08508Z"/>
   <path class="b"
         d="M25.69179,22.6035c-1.40289,.47308-1.9505,1.02051-2.23401,1.53192-.15375,.27734-.21954,.53595-.35107,1.05322-.23096,.90833-.09778,.99493-.28723,2.39362-.12769,.94269-.25067,1.33405,0,1.78723,.10663,.19275,.20599,.26135,.31915,.51062,.2525,.55603,.15985,1.09979,.12769,1.30853-.26379,1.71045-.21014,5.16492-.15961,6.31915,.04761,1.0871,.13336,2.78131,.70215,2.90424,.23932,.0517,.36548-.21759,1.43616-1.117,.87891-.73834,1.0769-.79456,1.30853-1.18085,.35815-.59735,.32776-1.20129,.31915-1.65961-.04431-2.36029,.46515-2.13403,.44678-4.91486-.00909-1.38043-.13641-1.69672-.09576-3.383,.03638-1.51099,.1651-2.39374,.79425-2.8504,.08636-.06268,.2005-.13068,1.0249-.3092,1.45264-.31458,2.17902-.4718,3.19153-.4787,1.08771-.00739,1.31921,.16431,1.94678-.06384,.22089-.08032,.84485-.31726,1.24469-.95746,.23053-.36914,.56207-1.15332,.25531-1.5-.27838-.31458-.85809-.01556-2.20215,.09576-.48907,.04053-.5824,.01501-1.81909,0-2.784-.03381-4.28033-.05853-5.96814,.51062Z"/>
   <path class="b"
         d="M21.19179,39.32695c-.03833,.09717-.27814,.70514,0,1.05316,.18085,.22632,.50134,.24341,.70215,.25531,.81049,.04816,1.61536,.16968,2.42554,.22339,1.37799,.09137,1.67322,.2558,2.23407,0,.3042-.13873,.34393-.24481,.76593-.41486,.59717-.2406,.8067-.14465,1.40424-.35107,.2854-.09857,1.0838-.37439,1.08514-.73407,.00098-.26367-.42682-.46674-.79791-.63824-.82129-.37952-1.54584-.43988-1.62762-.44684-2.42255-.20679-3.78864-1.6731-4.56384-.98938-.10687,.0943-1.37476,1.40149-1.62769,2.0426Z"/>

</g>
</svg>
