<?xml version="1.0" encoding="UTF-8"?>
<svg xmlns="http://www.w3.org/2000/svg"
     version="1.1"
     width="14.73808469mm"
     height="45.86577550mm"
     viewBox="0.00000000 0.00000000 41.77722246 130.01327143">

<g transform="scale(3.67920472)">   <defs>
      <style type="text/css"><![CDATA[
      .a {
        stroke: #000;
        stroke-linecap: round;
        stroke-linejoin: round;
        stroke-width: 0.01px;
      }
    ]]></style>
   </defs>
   <path class="a"
         d="M5.17967.11723a.649.649,0,0,1-.14533.13326,1.6459,1.6459,0,0,0-.44821.60569.58523.58523,0,0,1-.13329.26047A4.26922,4.26922,0,0,0,3.617,2.41889a1.69679,1.69679,0,0,1-.33313.50272c-.07874.06057-.14536.13326-.14536.15748a.17365.17365,0,0,1-.11027.21944l-.01693.00467c-.06662.02423-.109.06662-.08479.09691a.27226.27226,0,0,1-.15748.32707,1.4326,1.4326,0,0,0-.44821.72077A.52629.52629,0,0,0,2.3632,4.775a.41186.41186,0,0,1,.06057.23016c-.01211.0424.03634.0848.11508.103a.7924.7924,0,0,1,.29074.23016c.08479.109.2241.27256.3089.36947a.3557.3557,0,0,1,.13325.29679c-.02423.09691.02423.18171.18171.32707.18776.17565.218.23017.18776.38765a1.19351,1.19351,0,0,0,.12114.59357,1.59257,1.59257,0,0,1,.13325.77529c-.03028.45427-.06662.54512-.25439.62386-.07874.0424-.14536.09085-.14536.12114A1.209,1.209,0,0,1,3.27174,9.13c-.12719.13325-.3089.34524-.41187.47849a5.03692,5.03692,0,0,1-.36947.41793.92249.92249,0,0,0-.22411.34524c-.03028.12114-.09691.18171-.25439.22411-.23016.06057-.60569.3937-.54512.48455.01817.03029-.03028.1272-.103.20594a2.98645,2.98645,0,0,0-.86,1.64741c.02423.15142-.01817.29073-.19382.636a2.247,2.247,0,0,0-.24833.75106,3.47126,3.47126,0,0,0,.02423,1.36884c.04845.15142.09691.321.109.38159a2.70335,2.70335,0,0,0,.3513.7026.5611.5611,0,0,1,.15142.12719,1.34527,1.34527,0,0,0,1.12659.212,6.31057,6.31057,0,0,1,1.5203-.45428c.19988-.03029.48456-.06663.636-.09086a.7355.7355,0,0,1,.3513.01817,2.54745,2.54745,0,0,1,.34524.92671.506.506,0,0,0,.06663.2665.7966.7966,0,0,1,.07268.321.35171.35171,0,0,0,.0424.19382,1.64577,1.64577,0,0,1,.06663.49061,1.62241,1.62241,0,0,0,.20593.81768,2.39128,2.39128,0,0,1,.24228,1.278.87764.87764,0,0,0,.07268.30285A3.45007,3.45007,0,0,1,5.57944,22.231a4.55206,4.55206,0,0,0,.09086.66626c.03634.15143.07874.321.09691.38159a.47512.47512,0,0,0,.06057.15748.13977.13977,0,0,1-.04844.13935c-.07268.06662-.07268.109,0,.27861.0848.19988.06057.4361-.0424.4361-.03028,0-.04845.18171-.03634.40582a7.48133,7.48133,0,0,1-.09085,1.10235,5.18171,5.18171,0,0,0-.07268.79346.37415.37415,0,0,1-.03635.23622c-.05451.09691-.04845.15748.0303.27862a.42961.42961,0,0,1,.06661.28467,1.10739,1.10739,0,0,0,.07269.45427.68294.68294,0,0,1,.05452.40581.18242.18242,0,0,0-.02423.15142,4.50816,4.50816,0,0,1,.09691.9146,1.431,1.431,0,0,0,.09085.72683,1.00555,1.00555,0,0,1,.09085.37553c-.00606.109.01212.44215.03028.745.01817.29678.03635.59963.0303.66626a3.54871,3.54871,0,0,0,.50271,2.40459,4.2134,4.2134,0,0,1,.34526.56329c.006.0848.53906.4785.58752.4361.01817-.02423.12113,0,.2241.0424a.95206.95206,0,0,0,.55724.02422c.19382-.03028.44821-.07268.55118-.08479a.34612.34612,0,0,0,.29072-.212.41961.41961,0,0,1,.27256-.218c.103-.01817.18172-.05451.18172-.0848a1.0154,1.0154,0,0,1,.30284-.218c.218-.12114.30285-.20593.30285-.30284a.72905.72905,0,0,1,.20592-.3513c.11508-.12114.19988-.25439.18172-.29679-.03634-.09691.13325-.27862.26045-.27862.05451,0,.07874-.03634.06057-.07874-.04846-.13325.06056-.24833.24227-.26045.09086-.006.19382-.01817.218-.01817.03029-.00606.00606-.04845-.04845-.103-.09086-.09085-.09086-.109,0-.24833a.27307.27307,0,0,0,.03028-.32706.67445.67445,0,0,0-.14537-.22411,1.78626,1.78626,0,0,1-.39975-.86009.23233.23233,0,0,0-.00606-.19988.29235.29235,0,0,1-.03634-.19381.62319.62319,0,0,0-.0424-.30284.79315.79315,0,0,1-.03028-.44216.74566.74566,0,0,0-.01212-.3513,11.26668,11.26668,0,0,1-.30284-2.25317,1.89076,1.89076,0,0,0-.05451-.6178,1.09577,1.09577,0,0,1,0-.71472.75157.75157,0,0,0,.01211-.36341c-.06057-.13931-.0424-.4361.03028-.48456a.582.582,0,0,0,.09691-.27256c.0424-.2665-.09692-.62992-.26651-.67837a.24279.24279,0,0,1-.13931-.13931A5.28223,5.28223,0,0,1,9.85559,22.97a.629.629,0,0,0-.09085-.27862,1.82519,1.82519,0,0,1-.13931-1.16293c.04846-.09691.03634-.16959-.0424-.29073a2.16138,2.16138,0,0,1-.23622-.7026A.96135.96135,0,0,0,9.262,20.311a.5231.5231,0,0,1-.03634-.3089c.03029-.15142.01212-.18776-.09085-.22411-.07268-.01817-.13325-.05451-.13325-.07874a1.41451,1.41451,0,0,1-.02423-.16359,1.79624,1.79624,0,0,0-.0848-.28468c-.04845-.13931-.0424-.18776.04241-.27256a.361.361,0,0,0,.09086-.29073c-.01212-.103-.03029-.28467-.0424-.40581a.57764.57764,0,0,0-.12114-.321c-.09085-.09085-.09085-.12114-.01817-.23622.07874-.11508.07874-.14535-.02423-.27256a.41019.41019,0,0,1-.07874-.36947.49968.49968,0,0,0-.06664-.38159.2486.2486,0,0,1-.0121-.32707c.07267-.13931.07874-.18171.0121-.24228a.42972.42972,0,0,1-.06055-.327.4028.4028,0,0,0-.06663-.33919c-.07874-.08479-.07874-.109.00606-.23622a1.80857,1.80857,0,0,0-.02423-1.15081c-.05451-.0424-.0848-.23016-.09691-.58752-.01817-.54512,0-.59358.321-.93276a.594.594,0,0,0,.13326-.19382c0-.04846.19382-.24834.79345-.81769a.84437.84437,0,0,0,.22411-.29073c.05451-.44215.04845-.49666-.07874-.64809a2.9709,2.9709,0,0,1-.26045-.38158.50752.50752,0,0,1-.06663-.51484A2.97735,2.97735,0,0,1,9.686,9.17233a.69892.69892,0,0,0,.07268-.48455.69025.69025,0,0,0-.0848-.2665,4.37769,4.37769,0,0,1-.39369-.71472c-.15748-.315-.35131-.46638-.49061-.38764a.33265.33265,0,0,1-.19988.03028.97206.97206,0,0,0-.38159.09692.65489.65489,0,0,1-.3089.08479,1.24024,1.24024,0,0,0-.315-.06057c-.24228-.02422-.38158.01212-.94488.25439-.69654.30285-.90248.321-1.02362.09086-.04845-.09086-.03634-.13931.06057-.23017.103-.09085.109-.14536.06057-.315a.45357.45357,0,0,1-.01211-.2665,1.228,1.228,0,0,0,.0546-.2786,3.10354,3.10354,0,0,1,.15138-.81767.9.9,0,0,0-.07874-.3513l-.109-.315.212-.37553a1.11,1.11,0,0,0,.17565-.45427.74.74,0,0,1,.06057-.3513.833.833,0,0,0,.06663-.29073c-.01817-.01211.01817-.12719.07874-.24833a1.22124,1.22124,0,0,0,.08477-.59961A1.42077,1.42077,0,0,1,6.45769,2.437a.208.208,0,0,0,0-.20593,3.74337,3.74337,0,0,1-.212-.94488A1.31568,1.31568,0,0,0,6.16694.9228,1.67311,1.67311,0,0,1,6.07.53516.46045.46045,0,0,0,5.82776.12329.51324.51324,0,0,0,5.17967.11723Zm.90853,11.066a1.30714,1.30714,0,0,1,.37553.20593,3.02327,3.02327,0,0,0,.44821.66021.97311.97311,0,0,1,.16354.13325c.09085.09085.09691.14536.04846.28467a.45636.45636,0,0,1-.20594.24228.25167.25167,0,0,0-.15142.18776c0,.15143-.1696.32708-.27862.28468-.07874-.03029-.218.09691-.19382.18171a.3743.3743,0,0,1-.19382.35735.26485.26485,0,0,0-.15143.13931,2.8448,2.8448,0,0,1-.49666.636c-.27862.29073-1.06.44821-1.25378.25439a.30891.30891,0,0,0-.17565-.09085,1.97667,1.97667,0,0,1-.73895-.58147.88961.88961,0,0,1-.12719-.32707,7.16431,7.16431,0,0,0-.17565-.92065.22476.22476,0,0,1,.0848-.22411c.07268-.07268.103-.12719.07268-.12719s-.06663-.0424-.09086-.09086c-.08479-.23016.18777-.46032.35131-.29678.12719.12113.12113.1817-.01817.321-.07269.07268-.09086.1272-.05452.13931s.07874.1272.0848.24833a1.01691,1.01691,0,0,0,.28467.59358c.13326.09691.37553-.05451.50878-.315a1.0058,1.0058,0,0,1,.19984-.28466,1.51868,1.51868,0,0,0,.18777-.13931A.52522.52522,0,0,1,4.77987,12.54c.02423,0,.04846-.05452.04846-.11508a.32728.32728,0,0,1,.07874-.19988.70176.70176,0,0,0,.12719-.321,1.747,1.747,0,0,1,.14537-.424,1.01929,1.01929,0,0,0,.109-.26651c.04246-.23016.29685-.23622.79957-.03028Z"/>

</g>
</svg>
