<?xml version="1.0" encoding="UTF-8"?>
<svg xmlns="http://www.w3.org/2000/svg"
     version="1.1"
     width="49.71125747mm"
     height="36.30060310mm"
     viewBox="0.00000000 0.00000000 140.91381893 102.89941275">

<g transform="scale(4.36982859)">   <defs>
      <style type="text/css"><![CDATA[
      .a {
        stroke: #000;
        stroke-linecap: round;
        stroke-linejoin: round;
        stroke-width: 0.01px;
      }
    ]]></style>
   </defs>
   <path class="a"
         d="M8.14181.0089a1.15539,1.15539,0,0,1-.32707.06662.56761.56761,0,0,0-.46032.22411.414.414,0,0,0-.13931.321c.0424.18777-.09691.33313-.527.5633-.40581.218-.43609.25439-.848,1.04784-.11509.23622-.22411.36342-.315.38764a1.74374,1.74374,0,0,0-.49061.424,2.46821,2.46821,0,0,1-.44821.41792c-.109.03029-.24834.34525-.24834.55724,0,.13931.1817.24833.48455.29073a6.50369,6.50369,0,0,1,1.3083.27256,3.87927,3.87927,0,0,0,1.266.20594,1.27008,1.27008,0,0,1,.54512.109,4.13155,4.13155,0,0,0,1.26589.37553c.58146.06057.745.23016.527.527a3.19806,3.19806,0,0,0-.27256.49667.93106.93106,0,0,1-.36342.46032,1.20331,1.20331,0,0,0-.34524.37553,3.085,3.085,0,0,1-.41793.55724c-.16959.17565-.37553.3937-.46032.48455a.726.726,0,0,0-.17565.32707.36208.36208,0,0,1-.33919.321c-.13325,0-.315.22411-.51484.6602a4.64649,4.64649,0,0,1-1.09024,1.2235.95187.95187,0,0,0-.23016.26045,1.36271,1.36271,0,0,1-.34525.3513,1.12829,1.12829,0,0,0-.36341.51483,4.31326,4.31326,0,0,1-.38764.69049,2.565,2.565,0,0,0-.29679.56935c-.1272.36947-.26651.636-.33919.642a.66838.66838,0,0,0-.29073.109,1.316,1.316,0,0,0-.25439.18776.75112.75112,0,0,1-.15748.1272,2.33966,2.33966,0,0,0-.29679.33918,1.229,1.229,0,0,1-.33919.35131A.83863.83863,0,0,0,2.2,15.17535a1.90735,1.90735,0,0,1-.25439.36947.26792.26792,0,0,0-.09085.15748,1.27591,1.27591,0,0,1-.29073.38158,1.59959,1.59959,0,0,0-.47244.72683,1.12586,1.12586,0,0,1-.26045.30891.98093.98093,0,0,0-.27862.39975,3.14021,3.14021,0,0,1-.103.33919.46755.46755,0,0,0-.03029.24228.53724.53724,0,0,1-.06662.26044.96741.96741,0,0,0-.103.28468.50136.50136,0,0,1-.12114.23016c-.06057.06663-.09085.12114-.06663.12114s.01212.05451-.02422.12114a.22983.22983,0,0,0,.01216.25444,3.05843,3.05843,0,0,1,.07874.81768c.00606.62992.01817.69049.15142.83585a.579.579,0,0,1,.15143.26651,1.36792,1.36792,0,0,0,.41792.65414c.103.103.26045.28468.3513.3937a2.53678,2.53678,0,0,0,.81769.52695,6.46415,6.46415,0,0,1,.75711.41187c.07268.06663.27256.09086.848.09086a4.78012,4.78012,0,0,1,.98727.07874,2.68426,2.68426,0,0,0,1.25378.03634.57.57,0,0,1,.28467-.0424,1.89424,1.89424,0,0,0,.93276-.46032c.15748-.1696.19382-.18171.45427-.15143.3089.03634.38159.00606.77529-.29073a1.441,1.441,0,0,1,.50879-.24228.90683.90683,0,0,0,.44215-.2241,5.04433,5.04433,0,0,1,.40581-.32707,6.79292,6.79292,0,0,0,1.25984-1.04785,3.27521,3.27521,0,0,1,.60569-.47244,2.0608,2.0608,0,0,0,.4785-.3513c.218-.20593.27862-.30284.27256-.44821-.00606-.24228-.04846-.30285-.27862-.39976a1.08508,1.08508,0,0,0-.58146-.01817,5.72585,5.72585,0,0,1-.88431.05451,1.6743,1.6743,0,0,0-.78134.11509.7544.7544,0,0,1-.321.09085.43545.43545,0,0,0-.23016.09691c-.18171.109-.26045.11508-.79346.0848-.32707-.02422-.6602-.04846-.745-.06057s-.38764-.04846-.67837-.0848a2.78856,2.78856,0,0,1-.64818-.1272,1.11022,1.11022,0,0,0-.36947-.06057,1.05949,1.05949,0,0,1-.41187-.0848,1.31792,1.31792,0,0,1-.5209-.53906,1.02819,1.02819,0,0,0-.19987-.30891c-.27257-.30284-.36948-.64809-.24228-.848a.69152.69152,0,0,0,.103-.321V16.726a1.85955,1.85955,0,0,1,.46029-1.46581,2.30284,2.30284,0,0,0,.36342-.48456,5.63994,5.63994,0,0,1,.7026-1.07207,1.78917,1.78917,0,0,0,.23622-.33313,5.6865,5.6865,0,0,1,.73288-1.16293.657.657,0,0,0,.20594-.25439,3.40868,3.40868,0,0,1,.25439-.40581,1.126,1.126,0,0,0,.17565-.29679,1.1248,1.1248,0,0,1,.27862-.33313,1.243,1.243,0,0,0,.3089-.424c.04846-.20594.28467-.44216.77528-.77529.36343-.24227.5209-.424.5633-.64809s.13326-.32707.39975-.45427a.71431.71431,0,0,0,.38766-.37552,1.59271,1.59271,0,0,1,.61779-.745.62608.62608,0,0,0,.26046-.24221,3.3186,3.3186,0,0,1,.315-.46638,8.55289,8.55289,0,0,0,.50272-.84191,5.11518,5.11518,0,0,1,.3937-.66626.72474.72474,0,0,0,.14536-.25439.84421.84421,0,0,1,.23017-.29073c.09691-.0848.16959-.18777.15142-.23622a.41826.41826,0,0,1,.07268-.25439,1.27527,1.27527,0,0,0,.19378-.59972.62834.62834,0,0,1-.01211-.44821.87365.87365,0,0,0-.12718-.636,2.25715,2.25715,0,0,1-.18777-.80556c.01817-.0424,0-.07874-.03634-.07874s-.15142-.1272-.24833-.27862a1.35554,1.35554,0,0,0-.37553-.38764A2.48043,2.48043,0,0,0,11.18239.56613,5.57855,5.57855,0,0,1,10.38288.445,1.41764,1.41764,0,0,0,9.9286.37837.8977.8977,0,0,1,9.51673.26329,2.60141,2.60141,0,0,0,9.00189.07552,3.46665,3.46665,0,0,0,8.14181.0089Z"/>
   <path class="a"
         d="M15.69482,7.12576c-.46033.05452-.61781.103-.76317.24834a.42613.42613,0,0,1-.25439.11508.503.503,0,0,0-.28468.15748c-.0848.0848-.22411.23016-.3089.315a2.09112,2.09112,0,0,0-.23016.29679.59449.59449,0,0,1-.25439.23016c-.09691.05451-.16354.12114-.14537.15142s-.06057.15748-.16959.28468c-.11508.12719-.19382.26044-.18171.30284a.50925.50925,0,0,1-.07268.26045c-.06663.12719-.07874.218-.03634.28467.06662.12114-.02423.321-.33313.76318a1.10144,1.10144,0,0,0-.20594.39369.42.42,0,0,1-.05451.18777.38821.38821,0,0,0-.00606.25439,1.49105,1.49105,0,0,1-.27862.90854c-.06056.07268-.06662.1393-.02422.30284a.68355.68355,0,0,1-.00606.41187c-.06057.16959-.05451.212.03028.26045a.63168.63168,0,0,1,.24834.50878,1.47185,1.47185,0,0,0,.17565.47244,1.25042,1.25042,0,0,1,.15748.38158.46807.46807,0,0,0,.08479.218.26391.26391,0,0,1,.05452.212,1.25545,1.25545,0,0,0,.12719.45427,3.85641,3.85641,0,0,1,.15748.37553v.109a1.88268,1.88268,0,0,0,.36341.45427,3.67048,3.67048,0,0,1,.47849.60569.84682.84682,0,0,0,.27862.315,3.32219,3.32219,0,0,1,.75711.848,1.20213,1.20213,0,0,0,.43.424,1.7535,1.7535,0,0,1,.854.57541c.20594.27862.23622.29679.60569.35736a1.83257,1.83257,0,0,1,.57542.30284c.45426.33919.54512.38159.83585.3937.4361.01817.59358.04846.66625.14537a1.19814,1.19814,0,0,0,.89037.27256,2.19154,2.19154,0,0,1,.61174.06663.92971.92971,0,0,0,.38765.04845.88238.88238,0,0,1,.38158.04846,2.46173,2.46173,0,0,0,1.2659-.05452.75852.75852,0,0,1,.33918-.05451,1.2789,1.2789,0,0,0,.4361-.11508.79543.79543,0,0,1,.56329-.09085,2.51355,2.51355,0,0,0,1.67171-.53907,5.22936,5.22936,0,0,1,1.55057-.76317,1.08211,1.08211,0,0,0,.72077-.29679,3.65336,3.65336,0,0,1,.47244-.32707c.16959-.103.30891-.212.30891-.24833a2.19894,2.19894,0,0,1,.30285-.44216,2.17542,2.17542,0,0,0,.30284-.43,1.06819,1.06819,0,0,1,.30285-.24833,1.6373,1.6373,0,0,0,.43-.39976.541.541,0,0,1,.17565-.19988,1.10371,1.10371,0,0,0,.2665-.321,6.443,6.443,0,0,1,.49061-.61781,4.77863,4.77863,0,0,0,.45427-.60569,2.969,2.969,0,0,1,.39976-.51484,1.73217,1.73217,0,0,0,.47849-.82979,2.96918,2.96918,0,0,1,.06057-.30285c.03633-.103-.006-.15748-.18776-.28467a1.03424,1.03424,0,0,0-.315-.15748,1.59336,1.59336,0,0,0-.7026.40581.51355.51355,0,0,1-.27862.16959c-.27862.03636-.40581.12114-.69049.45428a3.07966,3.07966,0,0,1-1.04179.7874.25574.25574,0,0,0-.15143.09691,1.05627,1.05627,0,0,1-.33313.20594,6.25833,6.25833,0,0,0-1.07813.55117,1.48307,1.48307,0,0,1-.73289.26045,1.1879,1.1879,0,0,0-.4058.1696c-.20594.14536-.24833.14536-.93276.12113-1.599-.06057-1.76862-.09691-2.2229-.47244a1.01557,1.01557,0,0,0-.33313-.1817,1.96331,1.96331,0,0,1-.315-.11508,13.13347,13.13347,0,0,1-1.19321-.61781,1.347,1.347,0,0,0-.36947-.17565c-.33919-.07268-.38159-.09691-.46638-.2665a.43806.43806,0,0,0-.22411-.19988,2.01876,2.01876,0,0,1-.49666-.37553,2.4587,2.4587,0,0,0-.40582-.33313,2.08069,2.08069,0,0,1-.3937-.321,1.72891,1.72891,0,0,1-.58752-1.00544.6993.6993,0,0,0-.19988-.33919,2.809,2.809,0,0,1-.56934-.95093,1.10677,1.10677,0,0,0-.18777-.35131,1.56058,1.56058,0,0,1-.32707-.78739c.01817-.03029-.04846-.13326-.14537-.23017-.18171-.17565-.18171-.18776-.16353-.77528a4.02669,4.02669,0,0,0-.03635-.80557c-.03028-.12114-.06057-.2665-.06662-.321-.01212-.12113-.44821-.53906-.55118-.527C16.08849,7.07731,15.89467,7.10154,15.69482,7.12576Z"/>

</g>
</svg>
