<?xml version="1.0" encoding="UTF-8"?>
<svg xmlns="http://www.w3.org/2000/svg"
     version="1.1"
     width="59.94656950mm"
     height="50.76726345mm"
     viewBox="0.00000000 0.00000000 169.92729101 143.90721315">

<g transform="scale(7.21921656)">   <defs>
      <style type="text/css"><![CDATA[
      .a {
        stroke: #000;
        stroke-miterlimit: 10;
        stroke-width: 0.15px;
      }
    ]]></style>
   </defs>
   <path class="a"
         d="M21.5053.80261C21.555.76292,21.88869.61,22.556.3042c.43916-.20125.63255-.28138.766-.19437.08757.05709.17731.20437.12622.63083-.19119,1.59594-1.98257,3.99647-2.7583,5.607-.02454.051-.2527.526-.61858,1.12445A6.04927,6.04927,0,0,1,19.306,8.5336a4.17071,4.17071,0,0,1-.9375.72917,35.42534,35.42534,0,0,0-3.6875,3.0625c-4.43109,3.84856-7.31818,5.8559-9.02083,6.375-1.08938.33212-1.76635.47975-1.76635.47975-1.35378.29522-1.414.14251-1.98365.41608-.314.15077-.59518.341-.875.22917-.11308-.04519-.15663-.112-.47917-.5625-.43092-.60188-.46523-.63907-.47749-.74048-.02977-.24591.1232-.38961.63536-.98193q.71632-.82845,1.43269-1.65689a1.29086,1.29086,0,0,1,.37172-.33132,1.54407,1.54407,0,0,1,.63686-.10118,3.96825,3.96825,0,0,0,1.20122-.2426.82586.82586,0,0,0,.33-.19206c.32341-.34935.07924-1.12131.5385-1.24666a.8591.8591,0,0,1,.476.0815,2.91314,2.91314,0,0,0,1.86476-.13445.68038.68038,0,0,0,.32256-.27593c.13719-.25423-.02832-.4601.00116-.678.0672-.49683,1.09317-.65021,2.14188-1.09106a18.81086,18.81086,0,0,0,1.65112-.9478,34.25729,34.25729,0,0,0,2.93536-1.92724c.608-.455,4.26646-3.19284,4.5777-4.88905a1.89682,1.89682,0,0,1,.4856-1.04069c.27539-.27906.42465-.21458.75-.45834C21.11025,1.89974,20.83749,1.33571,21.5053.80261Z"/>

</g>
</svg>
