<?xml version="1.0" encoding="UTF-8"?>
<svg xmlns="http://www.w3.org/2000/svg"
     version="1.1"
     width="23.35871891mm"
     height="45.52876035mm"
     viewBox="0.00000000 0.00000000 66.21369080 129.05789234">

<g transform="scale(3.67920472)">   <defs>
      <style type="text/css"><![CDATA[
      .a {
        stroke: #000;
        stroke-linecap: round;
        stroke-linejoin: round;
        stroke-width: 0.01px;
      }
    ]]></style>
   </defs>
   <path class="a"
         d="M2.75414.04c-.11508.03029-.24833.06663-.28467.07269a.633.633,0,0,0-.20594.15748.25259.25259,0,0,1-.25439.103.63408.63408,0,0,0-.39977.15743,1.401,1.401,0,0,1-.43.20594A.45642.45642,0,0,0,.90679.91829a2.66611,2.66611,0,0,1-.26045.315c-.07268.07874-.12114.16353-.103.19382s-.09085.1817-.24227.33313a.75888.75888,0,0,0-.24834.86614,2.31688,2.31688,0,0,0,.36947.6602,2.007,2.007,0,0,1,.4785.92671.41954.41954,0,0,0,.15142.3513,4.49419,4.49419,0,0,1,.57541.56935.7542.7542,0,0,0,.321.16353.94808.94808,0,0,1,.59357.49061c.01817.06663.06057.12114.0848.12114a.59129.59129,0,0,1,.19382.12114c.07874.07268.2665.2241.41187.3513.14537.12114.3089.2665.36341.321a.60344.60344,0,0,0,.23017.1393.56465.56465,0,0,1,.2302.19381,3.85006,3.85006,0,0,0,.39976.46032,1.31775,1.31775,0,0,1,.3937.64809,2.00681,2.00681,0,0,0,.39369.82374,4.21342,4.21342,0,0,0,.77529.75711.97123.97123,0,0,1,.315.24228c.212.20594.24227.27256.212.41187a1.09288,1.09288,0,0,0-.03634.22411c0,.03028.01211.1817.01817.33313a1.19633,1.19633,0,0,0,.15142.48455.91576.91576,0,0,1,.13325.40581c0,.103.03029.19988.06663.212s.09085.13931.12114.27862.08479.36947.12114.50878a2.626,2.626,0,0,1,.07268.533,1.10552,1.10552,0,0,0,.07874.38764.47794.47794,0,0,1,.01817.32708.6454.6454,0,0,0,.23016.60569c.06663.06662.05451.12719-.06662.32707-.13326.22411-.13931.26045-.06057.38764a1.6423,1.6423,0,0,1,.11508.64809,7.332,7.332,0,0,0,.0848.77529,2.4117,2.4117,0,0,1,.02422.59963,1.48951,1.48951,0,0,0,.09086.94488,1.3802,1.3802,0,0,1,.09691.39369,2.27763,2.27763,0,0,0,.06662.37554.44231.44231,0,0,1-.02422.27256,4.41566,4.41566,0,0,0-.14537,1.16292,1.05339,1.05339,0,0,1-.12114.50272c-.06057.09086-.09691.18776-.07874.212a1.62918,1.62918,0,0,1-.05451.40581.96872.96872,0,0,0-.04846.40581c.06057.103-.24227.642-.41792.73895a.795.795,0,0,0-.23622.23622,1.2143,1.2143,0,0,1-.109.16353,1.64328,1.64328,0,0,0-.33313.68443.78491.78491,0,0,1-.18776.38159.24149.24149,0,0,0-.12114.15142c-.04845.15143-.38764.49061-.45427.44821-.03028-.01817-.07268.02423-.09085.09086-.0424.13325-.17565.20593-.46638.2665-.11508.02423-.18171.09691-.23017.24833a.65639.65639,0,0,1-.17565.28468A.48854.48854,0,0,0,4.42592,26c-.02423.07874-.07268.13931-.109.13931s-.0424.09085-.01817.24228a.34453.34453,0,0,1-.14537.41792.51089.51089,0,0,0-.18776.33919,1.3566,1.3566,0,0,1-.37553.70866c-.103.103-.103.11508.01211.23016a.61874.61874,0,0,1,.1272.16354c0,.03028.01817.103.03028.16959.01817.06663.03634.16354.04846.218a.42761.42761,0,0,0,.11508.19988.50766.50766,0,0,1,.11508.2665c.00606.09086.01211.218.01817.28468a1.27465,1.27465,0,0,0,.05451.27256,1.99451,1.99451,0,0,1,.07269.3937,2.12491,2.12491,0,0,0,.05451.3937,1.132,1.132,0,0,1,.0424.24227.31361.31361,0,0,0,.06662.1696.94685.94685,0,0,1,.07874.33313,2.55985,2.55985,0,0,0,.15142.83585.229.229,0,0,1,.02423.16959c-.01817.03029.02423.07269.09086.09691.06662.01817.12719.06663.12719.09691.00606.03029.01211.07874.01817.109a1.81836,1.81836,0,0,0,.49061.67232.49716.49716,0,0,1,.24228.44215c.01817.16959.60569.65415,1.10841.90248a3.53543,3.53543,0,0,0,1.805.315c.36947.00606.69049.12114.69049.24228,0,.03028.11508-.06663.26045-.218a1.28516,1.28516,0,0,1,.745-.47244c.09691,0,.315-.1696.854-.64809a1.0255,1.0255,0,0,1,.32707-.23016c.0424,0,.09691-.09086.1272-.19383.09085-.34524.38764-.39975.52695-.0969.06663.1393.04846.19987-.15142.527-.12114.20592-.23622.38763-.24228.40581-.03028.05451.34524.45427.50272.533.11509.05451.16354.03028.3937-.19382a6.0907,6.0907,0,0,0,.44216-.49061c.103-.12114.25439-.30891.3513-.41187A.8428.8428,0,0,0,13.475,33.341c0-.03029.06662-.06663.15142-.09086q.14536-.03633.25439-.27256c.05451-.12719.12114-.23622.15142-.23622.02423,0,.04846-.06662.04846-.15142a1.05759,1.05759,0,0,1,.08479-.34524c.04846-.109.12114-.28468.16354-.38159.27256-.636.36947-1.00545.29073-1.12659a.23016.23016,0,0,1,.01211-.18776.97314.97314,0,0,0,.07874-.27256,2.907,2.907,0,0,1,.1272-.44215,3.00519,3.00519,0,0,0,.18171-.98728.77813.77813,0,0,1,.11508-.3937,1.02529,1.02529,0,0,0,.13325-.37553,1.63551,1.63551,0,0,1,.103-.3937,1.9818,1.9818,0,0,0,.08479-.54512,3.76653,3.76653,0,0,1,.0848-.65415,1.13208,1.13208,0,0,0-.00606-.55117,2.37164,2.37164,0,0,1-.03634-.61781.86415.86415,0,0,0-.04845-.44215.28626.28626,0,0,1-.02423-.28468c.04846-.109.0424-.15748-.03028-.23016s-.07874-.13931-.0424-.28468a1.325,1.325,0,0,0-.09691-.81162,2.34121,2.34121,0,0,1-.109-.45427c-.07874-.73894-.13931-.99939-.25439-1.12053a.99119.99119,0,0,1-.14536-.64809.85746.85746,0,0,0-.12114-.36341,1.02439,1.02439,0,0,1-.12114-.48456c0-.2665-.01817-.29073-.315-.533a3.60652,3.60652,0,0,0-.50878-.34525.63244.63244,0,0,1-.28467-.315c-.18171-.40581-.69049-.46638-1.22956-.15142a1.14344,1.14344,0,0,1-.321.14537.6754.6754,0,0,0-.26045.15142.61483.61483,0,0,1-.321.15142c-.09085,0-.15748.05451-.20593.1696a.74261.74261,0,0,1-.26651.28467,1.40362,1.40362,0,0,0-.30284.22411.28583.28583,0,0,1-.43.01211c-.0848-.0848-.0848-.11508.03634-.34524a1.49739,1.49739,0,0,0,.13931-.58752,4.44659,4.44659,0,0,1,.05451-.527.48686.48686,0,0,0-.02423-.315.2472.2472,0,0,1-.00605-.24227,1.46278,1.46278,0,0,0,.09691-.424,1.31965,1.31965,0,0,1,.09085-.43.259.259,0,0,0,.01211-.23016.3328.3328,0,0,1-.01817-.218,8.88942,8.88942,0,0,0-.00605-1.39914,1.20748,1.20748,0,0,1,.06057-.36342,3.41644,3.41644,0,0,0,.07268-.636c.00606-.218.01211-.55724.01817-.75712a4.0984,4.0984,0,0,0-.06663-1.278.54458.54458,0,0,1-.01211-.36341.68233.68233,0,0,0-.00606-.39976.29592.29592,0,0,1,0-.28467c.05451-.09691.04846-.16959-.02423-.30285a1.657,1.657,0,0,1,.02423-1.12658,4.62208,4.62208,0,0,0,.103-1.30224,5.19832,5.19832,0,0,0-.06057-.957,1.8175,1.8175,0,0,1-.09691-.45427.9156.9156,0,0,1,.09691-.6602,1.24374,1.24374,0,0,0,.13325-.33919,2.59219,2.59219,0,0,1,.28468-.59357c.29679-.527.527-.81163.6602-.81163a.34744.34744,0,0,0,.16959-.11508.80538.80538,0,0,1,.34525-.18777,1.12164,1.12164,0,0,0,.40581-.212.558.558,0,0,1,.25439-.15142.80824.80824,0,0,0,.29679-.18171.65276.65276,0,0,1,.321-.18171.18615.18615,0,0,0,.15142-.06056,1.61554,1.61554,0,0,1,.81768-.19988,5.5964,5.5964,0,0,1,1.35069.15142,1.10664,1.10664,0,0,0,.5209-.00606,1.09659,1.09659,0,0,1,.59357.00606c.26651.09691.59964-.0848.848-.47244.109-.16354.218-.32707.24833-.36341a.12792.12792,0,0,0,.01212-.14537.42455.42455,0,0,1,0-.24833.95566.95566,0,0,0-.26045-.94488,4.712,4.712,0,0,1-.33941-.49059,1.26648,1.26648,0,0,0-.64808-.4361c-.06663-.006-.24834-.01817-.41793-.03028a2.61374,2.61374,0,0,0-1.175.08479A.38289.38289,0,0,1,14.862.48825a1.51239,1.51239,0,0,0-.92065.32707c-.32708.27256-.69655.50272-.75712.46638-.03028-.01817-.109.01817-.1817.0848a1.33487,1.33487,0,0,1-.37553.218.88725.88725,0,0,0-.321.20593.69829.69829,0,0,1-.212.17565c-.09691.05451-.1272.109-.103.18777s-.01211.16959-.11508.27256c-.15748.15142-.16354.15748-.33313.05451a.31825.31825,0,0,0-.36947-.02423.74847.74847,0,0,0-.29073.23622,1.94692,1.94692,0,0,1-.19988.26045c-.06057.06057-.18171.20593-.27256.321-.24833.32708-.33919.35736-.62992.20594a.58976.58976,0,0,0-.33313-.09085.38058.38058,0,0,1-.4361-.28468A.61975.61975,0,0,0,8.799,2.802a1.16864,1.16864,0,0,1-.30284-.38765.63177.63177,0,0,0-.27862-.315c-.11508-.04845-.24834-.218-.43-.55723-.24834-.46638-.26651-.48455-.4361-.44821-.23016.05451-.3513-.03029-.50272-.33313C6.73353.51853,6.69114.48825,6.29744.361A2.19723,2.19723,0,0,0,5.85528.246,1.20179,1.20179,0,0,1,5.52215.15512.6101.6101,0,0,0,5.11028.1006C5.05577.12483,4.9952.13695,4.977.11877A.47824.47824,0,0,0,4.72264.149.5656.5656,0,0,1,4.31077.12483.3765.3765,0,0,0,4.014.1006a.33914.33914,0,0,1-.2665-.006A2.11868,2.11868,0,0,0,2.75414.04Zm6.917,25.651a.81208.81208,0,0,1,.44215.52695c.01211.07268.03634.19988.06057.28467a1.45115,1.45115,0,0,1-.09085.87826c-.11509.26044-.11509.27256-.00606.34524a.77581.77581,0,0,1,.25439.64809.53977.53977,0,0,0-.0424.27256c.02423.20594-.2665.53907-.41793.48455-.103-.04239-.103-.04239-.12113-.32707a3.59027,3.59027,0,0,0-.06057-.3937.645.645,0,0,1-.00606-.44215c.02423-.07269.01817-.13325-.01211-.13325s-.103-.1272-.15748-.29074c-.06057-.15748-.1696-.43609-.24834-.62993a.97676.97676,0,0,1-.109-.37552.48678.48678,0,0,0,.05451-.23622c.04846-.47244.07874-.60569.15748-.65415C9.47126,25.582,9.441,25.576,9.67114,25.691Z"/>
   <path class="a"
         d="M12.748,12.45064a.06514.06514,0,0,0,.06057.06057.06069.06069,0,0,0,.06056-.06057.05721.05721,0,0,0-.05366-.06057h-.0069A.06069.06069,0,0,0,12.748,12.45064Z"/>

</g>
</svg>
