<?xml version="1.0" encoding="UTF-8"?>
<svg xmlns="http://www.w3.org/2000/svg"
     version="1.1"
     width="24.05939868mm"
     height="23.65533105mm"
     viewBox="0.00000000 0.00000000 68.19993022 67.05444203">

<g transform="scale(5.24899505)">   <defs>
      <style type="text/css"><![CDATA[
      .a {
        stroke: #000;
        stroke-linecap: round;
        stroke-linejoin: round;
        stroke-width: 0.01px;
      }
    ]]></style>
   </defs>
   <path class="a"
         d="M3.0824.141A6.02735,6.02735,0,0,0,1.61663,1.6734a.68785.68785,0,0,1-.14536.23622.91494.91494,0,0,0-.17565.38158A2.40644,2.40644,0,0,1,.92614,3.31483a1.61326,1.61326,0,0,0-.218.51484A.58506.58506,0,0,1,.587,4.12646a.57432.57432,0,0,0-.12114.218A1.76794,1.76794,0,0,1,.30838,4.726,3.58458,3.58458,0,0,0,.066,5.459c-.103.47244-.13325.3937.38765.9691.20593.22411.26044.321.23016.43a.6096.6096,0,0,0,.17565.54513.94216.94216,0,0,1,.23622.321A3.05367,3.05367,0,0,0,2.17993,8.82662a1.00128,1.00128,0,0,1,.3513.26045.13886.13886,0,0,0,.15142.08479.96579.96579,0,0,1,.4361.1272.98637.98637,0,0,0,.81768.12114.58546.58546,0,0,1,.3513.02422,2.29172,2.29172,0,0,0,.4785.11509A.91976.91976,0,0,0,5.52334,9.402a2.08871,2.08871,0,0,1,.52089-.20594c.12114,0,.3937-.36947.54513-.73894.07268-.17565.06662-.19382-.06057-.28468A3.27092,3.27092,0,0,1,6.232,7.9302c-.15748-.14537-.22411-.15748-.67838-.103-.38764.0424-.45426.01211-.7026-.36342-.2665-.39975-.48455-.58146-.642-.533-.24833.07874-.62386-.38765-.68443-.84191-.0848-.67232-.15748-1.44761-.16354-1.708-.00605-.67232.03634-.854.27862-1.14476A1.80085,1.80085,0,0,1,3.985,2.89087a.92758.92758,0,0,1,.71472.05451.43922.43922,0,0,0,.27256.04846A.70047.70047,0,0,1,5.281,3.018c.103.03029.39976.12114.66626.20594a2.88113,2.88113,0,0,0,.739.14536,1.77521,1.77521,0,0,1,1.066.56935,1.08541,1.08541,0,0,0,.32708.23622c.04239.00606.09691.01212.12719.01817a5.47431,5.47431,0,0,1,1.272.745,3.08483,3.08483,0,0,0,.51484.38765.871.871,0,0,1,.39976.46638c.09085.18776.24227.46032.33313.60569a.81486.81486,0,0,1,.16959.44215.901.901,0,0,0,.13931.41187A5.81053,5.81053,0,0,1,11.556,8.651a4.76354,4.76354,0,0,1-.13325,1.04179,1.79753,1.79753,0,0,0-.0848.48455,2.5543,2.5543,0,0,1-.12719.61175c-.1272.36341-.28468.45427-.62386.3513-.23622-.06663-.55118-.36342-.55118-.52089,0-.0424-.06663-.09692-.15143-.11509-.16959-.04239-.218-.12719-.43609-.69654a2.54294,2.54294,0,0,1-.1696-1.03573,1.71411,1.71411,0,0,0-.52695-1.45972c-.25439-.24227-.2665-.24833-.58752-.218A.65274.65274,0,0,0,7.70383,7.27a1.91526,1.91526,0,0,0-.3937,1.06,1.087,1.087,0,0,1-.15142.55724c-.14537.24833-.15748.33919-.15143,1.00545a3.13641,3.13641,0,0,0,.51484,1.82313.98308.98308,0,0,0,.53906.3513,1.27712,1.27712,0,0,1,.37553.16353,1.52126,1.52126,0,0,0,.321.20594.7895.7895,0,0,1,.32707.24227c.03029.06663.13325.09086.424.09086.35735,0,.3937-.01212.52089-.18777.19988-.2665.36342-.32707.62386-.218.19382.08479.23017.07873.5209-.06057a.8075.8075,0,0,0,.33918-.24834,2.17544,2.17544,0,0,1,.46033-.43,1.66581,1.66581,0,0,0,.424-.39975,1.50029,1.50029,0,0,1,.1272-.35736,2.6413,2.6413,0,0,0,.15142-.6602,2.70177,2.70177,0,0,1,.109-.61781.53265.53265,0,0,0,.03635-.33313A7.72186,7.72186,0,0,1,12.9491,7.361a2.42611,2.42611,0,0,0,.03029-.636,5.09122,5.09122,0,0,1-.03635-.76923,1.23671,1.23671,0,0,0-.15748-.424c-.09085-.16959-.24227-.45427-.33918-.636a2.6521,2.6521,0,0,0-.29679-.46032.67048.67048,0,0,1-.13931-.218.75989.75989,0,0,0-.14537-.25439.68892.68892,0,0,1-.13325-.33313c0-.21805-.13325-.38764-.44821-.57541a.7818.7818,0,0,1-.315-.29073,1.58631,1.58631,0,0,0-.29679-.40581,2.60027,2.60027,0,0,1-.36341-.50878c-.09086-.19988-.1272-.22411-.26651-.19988a.35373.35373,0,0,1-.23016-.01211A2.96609,2.96609,0,0,1,9.31492.95276.54551.54551,0,0,0,8.93338.6619C8.788.61951,8.55785.54077,8.41249.49231A1.03813,1.03813,0,0,0,7.92793.44386.854.854,0,0,1,7.46155.37723,1.86106,1.86106,0,0,0,6.94066.26215,1.0096,1.0096,0,0,1,6.57724.19552,2.37959,2.37959,0,0,0,6.03818.1289,5.24647,5.24647,0,0,0,4.94793.141,3.47652,3.47652,0,0,1,4.06968.08044C3.4761-.02858,3.40948-.02858,3.0824.141Z"/>

</g>
</svg>
