<?xml version="1.0" encoding="UTF-8"?>
<svg xmlns="http://www.w3.org/2000/svg"
     version="1.1"
     width="24.74526400mm"
     height="41.02618640mm"
     viewBox="0.00000000 0.00000000 70.14400125 116.29465757">

<g transform="scale(3.67920472)">   <defs>
      <style type="text/css"><![CDATA[
      .a {
        stroke: #000;
        stroke-linecap: round;
        stroke-linejoin: round;
        stroke-width: 0.01px;
      }
    ]]></style>
   </defs>
   <path class="a"
         d="M3.79057.03926a.21589.21589,0,0,1-.103.03637c-.0424.01212-.18776.03634-.321.06663A1.32659,1.32659,0,0,0,2.65794.4875a.50146.50146,0,0,1-.19382.13325,2.50561,2.50561,0,0,0-.67838.527c-.00606.03028-.01211.07874-.01817.109,0,.03028-.06663.07874-.13931.103-.13931.03634-.21805.109-.90853.77528a3.635,3.635,0,0,1-.533.43C.005,2.65585.005,2.6619.005,3.19491v.533L.25939,3.843a1.18428,1.18428,0,0,0,.46033.13931,1.05916,1.05916,0,0,1,.33313.2665,3.15224,3.15224,0,0,0,.55723.4361,2.9476,2.9476,0,0,1,.59358.46638c.24227.23622.28467.315.24833.43a7.36452,7.36452,0,0,0,.18777,2.4046.64819.64819,0,0,1,.04845.28467.37487.37487,0,0,0,.07268.22411.232.232,0,0,1,.03029.28467c-.05451.103-.05451.13931.00606.17565.07268.04846.09085.14537.14536.7874.01212.18171.0424.48455.05451.66626a5.6041,5.6041,0,0,0,.27256,1.2659.73264.73264,0,0,1,.06663.29073,1.02725,1.02725,0,0,0,.1272.41187c.15748.3089.16959.39975.212,1.66565.06662,2.1502.08479,2.762.11508,3.089a3.68325,3.68325,0,0,1,.02423.45427,1.53722,1.53722,0,0,0,.00605.18171c0,.03028.01212.29073.01817.5754a2.13081,2.13081,0,0,0,.06663.59358,4.07641,4.07641,0,0,1,.07268.75711c.01817.37553.0424.97517.05452,1.33858a4.47612,4.47612,0,0,0,.06662.75711,3.17585,3.17585,0,0,1,.06057.5209c.03028.6178.07268.89642.14537.93882s.11508.21805.15748.636c.02422.23622.07268.75711.09085.93882a2.37212,2.37212,0,0,1-.22411.69654c-.09691.20594-.09691.24833-.06662,1.48394a5.20126,5.20126,0,0,1-.03029.98122.90971.90971,0,0,0,.07269.46639,1.39085,1.39085,0,0,1,.08479.45426.93661.93661,0,0,0,.18777.424c.19382.28467.218.36341.18776.55118a.58608.58608,0,0,0,.109.48455,2.33934,2.33934,0,0,0,.24227.34524,2.23377,2.23377,0,0,1,.18777.29074.98623.98623,0,0,0,.527.50878.55268.55268,0,0,0,.81162-.23622c.09086-.15143.18777-.27256.218-.27256a1.83578,1.83578,0,0,0,.30285-.71472,1.35088,1.35088,0,0,1,.109-.43,3.92122,3.92122,0,0,0,.11508-1.69594,4.37112,4.37112,0,0,1-.02422-1.33857.41557.41557,0,0,0-.02423-.26045A5.935,5.935,0,0,1,7.249,25.551a5.17215,5.17215,0,0,0-.109-1.06,1.08742,1.08742,0,0,1-.04846-.424,2.087,2.087,0,0,0-.1393-.94487,2.278,2.278,0,0,1-.15746-1.01147,5.93365,5.93365,0,0,0-.39976-1.805c-.13931-.3089-.14537-.36947-.07874-.59358a3.50469,3.50469,0,0,0,.09085-.36947c.01817-.12719.0848-1.55662.0848-1.87764a2.85558,2.85558,0,0,1,.05451-.45427c.0848-.3937.1272-.59963.18171-.91459.02423-.15142.07874-.38764.11508-.52089a2.43168,2.43168,0,0,0,.06057-.57541c-.00606-.50878-.00606-1.99272,0-2.22894a7.93428,7.93428,0,0,0-.05451-1.93821,4.34215,4.34215,0,0,1-.218-1.21138c-.01211-.1817-.03028-.44215-.0424-.5754a2.587,2.587,0,0,0-.18171-.59964,1.27053,1.27053,0,0,1-.1393-.3937,1.1846,1.1846,0,0,0-.03029-.33918,5.48916,5.48916,0,0,1-.06057-.7874,3.093,3.093,0,0,0-.06662-.636,3.15129,3.15129,0,0,1-.0848-.69654,9.3957,9.3957,0,0,0-.109-1.45972.20781.20781,0,0,1,.05452-.23016c.13325-.13325.15142-.1272.47244.11508a1.08648,1.08648,0,0,0,.38764.212,4.22783,4.22783,0,0,1,1.10841.38159,2.49657,2.49657,0,0,0,1.278.24833A.67446.67446,0,0,0,9.7567,4.697a.65281.65281,0,0,1,.27256-.16353.83034.83034,0,0,0,.29678-.218c.18777-.18776.20594-.23016.15143-.36947a.26825.26825,0,0,1,.03028-.28468c.06663-.109.07269-.19987.00606-.55118-.11508-.64809-.25439-.89642-.60569-1.07813a1.656,1.656,0,0,1-.30285-.20593c-.12114-.109-1.07207-.92671-1.24166-1.066a.36416.36416,0,0,0-.1515-.07876A1.79589,1.79589,0,0,1,7.60642.47536c-.06662-.109-.642-.06663-.90853.06662L6.4435.66918,6.14671.51776A4.10766,4.10766,0,0,0,5.37748.26942,2.98252,2.98252,0,0,1,4.72939.08163,2.09529,2.09529,0,0,0,3.79057.03926Z"/>
   <path class="a"
         d="M11.37382,4.04894a.20294.20294,0,0,1-.16959.03028c-.103-.06663-.45427.218-.533.43a3.87971,3.87971,0,0,1-.33313.59358,2.71223,2.71223,0,0,0-.33313.69049c-.15142.59357-.18171.72077-.24833,1.04784A2.294,2.294,0,0,0,9.80509,7.895a.59988.59988,0,0,1-.03028.40582c-.06663.16959-.07269.24833-.01817.34524a.86615.86615,0,0,1,.06056.321c-.00605.109.00606.69048.03029,1.29012.01817.59963.03634,1.15687.0424,1.24166a.68675.68675,0,0,0,.05451.26045,1.10441,1.10441,0,0,1,.0848.36342,8.40476,8.40476,0,0,0,.24227,1.32646.29016.29016,0,0,1-.01817.212.21324.21324,0,0,0,0,.22411,1.07267,1.07267,0,0,1,.0848.36947c.01211.13325.03634.44821.06057.69654.01817.24834.03028.5209.03028.60569s-.00605.41187-.01211.72683a4.95664,4.95664,0,0,0,.09085,1.03574,3.0111,3.0111,0,0,1,.09086.54512,1.23578,1.23578,0,0,0,.03028.29679c.01817.11508.05451.39975.06663.636a3.94941,3.94941,0,0,0,.09691.66626,2.74944,2.74944,0,0,1,.08479.60569,6.07951,6.07951,0,0,0,.26045,1.39309,4.13773,4.13773,0,0,1,.1272.70866,2.30392,2.30392,0,0,0,.15748.67232c.07874.12719.08479.16959.00605.3513a9.53893,9.53893,0,0,0,.00606,2.659,1.08524,1.08524,0,0,1,.04845.46638.632.632,0,0,0,.03029.32708,2.18221,2.18221,0,0,1,.15142.78134.88719.88719,0,0,0,.43.78739.40319.40319,0,0,1,.23622.1817,1.79424,1.79424,0,0,0,.57541.60569,1.37525,1.37525,0,0,1,.5754.32708,2.41083,2.41083,0,0,0,.61781.46032,1.08907,1.08907,0,0,1,.27862.15143,2.55094,2.55094,0,0,0,1.24166.39975c.07874-.0424.19383-.01817.39976.0848a1.00281,1.00281,0,0,0,1.0115-.05451.962.962,0,0,0,.51484-.4361c.34525-.55118.66626-1.0963,1.04785-1.7989a2.84808,2.84808,0,0,1,.24227-.40582.67665.67665,0,0,0,.218-.59357c-.06057-.32708-.26044-.67838-.38158-.67838-.20594,0-.36947.07874-.40582.18777a.24273.24273,0,0,1-.13931.13931.81608.81608,0,0,0-.31495.48455.62475.62475,0,0,1-.15143.25439.76227.76227,0,0,0-.15142.218c0,.02423-.06663.09085-.14537.13931-.13325.09086-.16353.08479-.424-.0424a.734.734,0,0,1-.3089-.23016,1.14007,1.14007,0,0,0-.30285-.30285.983.983,0,0,1-.3089-.34524c-.02423-.07873-.06057-.13931-.09085-.13931a3.90894,3.90894,0,0,1-.44216-.59358,2.11585,2.11585,0,0,1-.49061-1.37492,3.0703,3.0703,0,0,0-.17565-.86614.21883.21883,0,0,1,.02423-.18776.33262.33262,0,0,0,0-.28468,3.75268,3.75268,0,0,1-.09691-.745c-.01817-.321-.0424-.78739-.06663-1.03573a6.86764,6.86764,0,0,1-.02422-.87825,5.01474,5.01474,0,0,0-.109-1.88976,2.43357,2.43357,0,0,1-.12114-.66626,3.62171,3.62171,0,0,0-.09085-.9267A3.45709,3.45709,0,0,1,14.269,16.829a4.69628,4.69628,0,0,0-.27256-1.36281,4.86031,4.86031,0,0,1-.15748-1.66565,16.0883,16.0883,0,0,0-.13326-2.70744,5.05483,5.05483,0,0,1-.16354-1.56268,8.64188,8.64188,0,0,0-.09683-1.1508c-.03634-.1696-.09085-.49667-.12719-.72683a4.44872,4.44872,0,0,0-.15142-.66626,2.51846,2.51846,0,0,1-.11509-.55724,1.18765,1.18765,0,0,0-.07874-.424.28572.28572,0,0,1,.03029-.27256.272.272,0,0,0,.02423-.29074.23835.23835,0,0,1-.03029-.1817,1.88933,1.88933,0,0,0-.15142-.98122c-.103-.1272-.25439-.16354-1.09024-.26045A.78325.78325,0,0,0,11.37382,4.04894Z"/>
   <path class="a"
         d="M.95593,15.26633a.24668.24668,0,0,0-.01211.15748c.0424.04846.212-.12114.212-.20593C1.15581,15.07857.99228,15.121.95593,15.26633Z"/>

</g>
</svg>
