<?xml version="1.0" encoding="UTF-8"?>
<svg xmlns="http://www.w3.org/2000/svg"
     version="1.1"
     width="8.42295054mm"
     height="35.80539490mm"
     viewBox="0.00000000 0.00000000 23.87608867 101.49564525">

<g transform="scale(3.67920472)">   <defs>
      <style type="text/css"><![CDATA[
      .a {
        stroke: #000;
        stroke-linecap: round;
        stroke-linejoin: round;
        stroke-width: 0.01px;
      }
    ]]></style>
   </defs>
   <path class="a"
         d="M3.25305.04476c0,.03028-.06057.07873-.13325.103a.78108.78108,0,0,0-.27256.1696,1.14666,1.14666,0,0,1-.5209.3513,1.3012,1.3012,0,0,0-.33919.1817.51235.51235,0,0,1-.218.109A7.59651,7.59651,0,0,0,.63646,2.04959a.53622.53622,0,0,0-.109.24834,2.28155,2.28155,0,0,1-.29679.72077.91045.91045,0,0,0-.212.75711A2.63019,2.63019,0,0,0,.24882,4.98114a1.02907,1.02907,0,0,1,.13325.38764c-.01817.01817-.006.06663.03635.11508a1.7472,1.7472,0,0,1,.09085.57541A1.14072,1.14072,0,0,0,.63041,6.665a.64213.64213,0,0,1,.11508.33918c.01211.12114.03634.321.05451.4361a5.9314,5.9314,0,0,1,.09085.76923,3.36873,3.36873,0,0,0,.03635.62386c.01817.15142.04239.40581.04845.57541a2.2329,2.2329,0,0,0,.07874.45427,5.49928,5.49928,0,0,1,.29679,1.3628,7.18717,7.18717,0,0,0,.14537,1.33252,1.48394,1.48394,0,0,1,.03634.45427,3.03172,3.03172,0,0,0,.03634.60569c.03028.18171.06057.38764.07268.45427a1.528,1.528,0,0,0,.0848.27256,5.189,5.189,0,0,1,.19382,1.24167c0,.16353.00606.35735.00606.424a1.88115,1.88115,0,0,1-.06663.36341,2.09791,2.09791,0,0,0-.00606,1.02362.73366.73366,0,0,1-.03028.533.27073.27073,0,0,0-.03029.27256.27381.27381,0,0,1-.02422.26045.93221.93221,0,0,0-.02423.533,2.16446,2.16446,0,0,0,.09691.45427.98455.98455,0,0,1,.05451.31495c.00606.212.03634.58147.12114,1.51423.01211.13325.02423.40581.03028.59964a1.10955,1.10955,0,0,0,.09691.50272.44.44,0,0,1,.05452.33313,1.09347,1.09347,0,0,0,.11508.82374.84343.84343,0,0,1,.11508.46032,2.10749,2.10749,0,0,0-.06057.24834,3.50741,3.50741,0,0,1-.13931.47849,1.39522,1.39522,0,0,0-.09691.636c.01817.15142.03029.321.03029.36947A1.62953,1.62953,0,0,0,2.67159,27.095a.93329.93329,0,0,1,.24833.2665.16086.16086,0,0,0,.109.11508c.03634.00606.34525.02423.67838.0424s.66626.0424.73894.06057a1.45221,1.45221,0,0,0,.79951-.19382,2.54252,2.54252,0,0,1,.642-.44216c.103,0,.2241-.19988.39369-.636.19988-.533.19383-.95094-.02422-1.18716-.29679-.315-.29679-.34524-.12114-1.23561a9.05906,9.05906,0,0,0,.03028-1.33252,2.36459,2.36459,0,0,1,.09691-.95093,1.69,1.69,0,0,0,.05452-.59358,2.4672,2.4672,0,0,1,.06056-.69654,1.37652,1.37652,0,0,0,0-.73895.68413.68413,0,0,1,.05452-.26044.70808.70808,0,0,0,.02422-.46033,6.17454,6.17454,0,0,1-.212-1.20532,1.43452,1.43452,0,0,0-.1817-.68443c-.12114-.20594-.14537-.29679-.103-.39976a.692.692,0,0,0,.03634-.27862c-.01211-.0848-.03029-.34524-.03634-.57541a1.93876,1.93876,0,0,0-.0848-.54512.22219.22219,0,0,1-.00606-.23622,4.53918,4.53918,0,0,0,.109-1.18715,2.13243,2.13243,0,0,0-.20594-.92065.33387.33387,0,0,1-.03028-.3089.84787.84787,0,0,0,.00606-.36948,1.57538,1.57538,0,0,1-.00606-.48455,1.15218,1.15218,0,0,0-.00606-.39975,1.04173,1.04173,0,0,1-.04845-.36342,1.57384,1.57384,0,0,0-.07269-.49061.39034.39034,0,0,1,.02423-.40581,1.82213,1.82213,0,0,0,.109-.75712,4.76114,4.76114,0,0,1,.04845-.70865.671.671,0,0,0-.06662-.3937.65585.65585,0,0,1-.0848-.27862,5.12779,5.12779,0,0,0,.09691-.84191c-.00606-.04846-.01817-.45427-.03634-.89037-.01212-.44215-.03634-.82374-.04846-.854a.88049.88049,0,0,1,.02423-.33313.95248.95248,0,0,0-.03028-.527A1.155,1.155,0,0,1,5.59707,4.006c.01212-.09085.03634-.43.0424-.745.01212-.43609-.00606-.61174-.07874-.72077a.98.98,0,0,1-.103-.38764c-.01817-.35736-.212-.88431-.33918-.92671-.06057-.01817-.109-.05451-.109-.07874A2.08724,2.08724,0,0,0,4.39176.53536,1.03282,1.03282,0,0,1,4.101.287.52783.52783,0,0,0,3.94354.14167C3.76789.03264,3.25305-.0461,3.25305.04476Z"/>

</g>
</svg>
