<?xml version="1.0" encoding="UTF-8"?>
<svg xmlns="http://www.w3.org/2000/svg"
     version="1.1"
     width="30.95558399mm"
     height="46.85593870mm"
     viewBox="0.00000000 0.00000000 87.74806877 132.81991571">

<g transform="scale(6.96665924)">   <defs>
      <style type="text/css"><![CDATA[
      .a {
        stroke: #000;
        stroke-miterlimit: 10;
        stroke-width: 0.15px;
      }
    ]]></style>
   </defs>
   <path class="a"
         d="M2.68041,11.67856a6.32317,6.32317,0,0,0-.14063,1.39063,3.76463,3.76463,0,0,0,.25,1.3125,1.93235,1.93235,0,0,0,.34375.5625,2.10917,2.10917,0,0,0,.625.51562,2.28454,2.28454,0,0,0,1.04688.20313c1.01871.02873,1.54535-.22819,1.934.06379.04783.03593.206.15473.19118.28953-.01377.1255-.1706.2029-.22957.232-.6143.30317-2.0166-.09348-3.03689.36712-.55325.24976-.49162.5247-1.2181.81319a3.57126,3.57126,0,0,1-1.21875.28125c-.62978.0263-.98017-.1417-1.10938.04688a.54843.54843,0,0,0,.125.57813A.64752.64752,0,0,0,.532,18.5186a1.25944,1.25944,0,0,0,.71088-.05878c.41371-.08692,1.05213-.11114,1.17187.125.07489.14767-.08888.32655-.01562.39063.08309.07268.31076-.14258.64062-.26563.42946-.16019.51762.02783,1.073-.06461.40174-.06688.32671-.16048,1.177-.41976a6.4801,6.4801,0,0,1,.72327-.1866,4.93629,4.93629,0,0,0,1.058-.2509,13.254,13.254,0,0,0,2.2586-1.105c.22935-.13942.42345-.28255.42345-.28255.22532-.16866.31026-.27763,1.1617-.86246a4.19029,4.19029,0,0,0,1.05765-.988,1.31764,1.31764,0,0,0,.28615-.66949,1.7079,1.7079,0,0,0-.09074-.59767l-.4563-1.6512a1.48675,1.48675,0,0,0-.28116-.62169,1.14625,1.14625,0,0,0-.52121-.3131c-1.67642-.54517-2.51462-.81775-3.25354-.469a2.4738,2.4738,0,0,1-1.02462.26537.67691.67691,0,0,1-.43031-.1058A.61193.61193,0,0,1,5.99938,9.769a2.07289,2.07289,0,0,1,.28333-.6232A9.03785,9.03785,0,0,0,7.489,4.9168a2.17514,2.17514,0,0,1,.1424-.90553.69315.69315,0,0,1,.75336-.37336c.25588.107.28831.56924.29561,1.0094a12.93124,12.93124,0,0,1-.40622,3.48428,22.30155,22.30155,0,0,0-.73866,2.69034,2.931,2.931,0,0,0-.04262,1.01288c.02953.16533.16238.79875.18826.92194.05511.26239.08885.41891-.00076.51556-.1076.11606-.27483.01831-.46875.15625-.13116.09329-.23351.26521-.1875.35938.04221.0864.17789.043.32813.125.19561.10673.13542.319.29688.46875.15022.13931.32259-.01147.5.125a.58078.58078,0,0,1,.15625.23438c.21784.36509,1.7497.3119,2.72326-.62485a2.10908,2.10908,0,0,0,.73466-1.44215,2.23356,2.23356,0,0,0-.42567-1.14093c-.43638-.81538-.10561-1.3439.33755-4.342a11.28442,11.28442,0,0,0,.21313-3.41638,6.26349,6.26349,0,0,1-.22356-1.33053,1.24732,1.24732,0,0,0-.09375-.67188c-.1256-.2142-.24783-.17867-.73438-.60938-.11506-.10185-.17845-.166-.37487-.33606-.12638-.10942-.22235-.1925-.33776-.28256a2.35913,2.35913,0,0,0-.59987-.397,1.52647,1.52647,0,0,0-.75-.04688,2.03127,2.03127,0,0,0-.55549.15218A1.85644,1.85644,0,0,0,7.796.49809C7.69125.576,7.34752.81084,7.196.89731c-.22784.13-.38349.24176-.45714.28427-.32565.188-.5105.26111-.88876.50844-.61843.40435-.92764.60653-1.076.91041-.21729.44515.02429.59424-.10938,1.45313-.08488.54544-.18838.52424-.375,1.35937-.11253.50357-.0721.49877-.20312,1.15626-.124.62247-.25376,1.09588-.34375,1.42187-.1336.48393-.25094.84784-.4135,1.352-.24.74417-.307.89366-.43194,1.36546C2.76168,11.2215,2.69463,11.59811,2.68041,11.67856Z"/>
   <path class="a"
         d="M7.1154,13.817c-.06615-.09451.06734-.24382.10186-.2868a2.85416,2.85416,0,0,1,1.33815-.586,18.36453,18.36453,0,0,0,2.46-1.63063,1.12463,1.12463,0,0,1,.83683-.27562.90444.90444,0,0,1,.55029.39841.99285.99285,0,0,1,.11069.62154,2.22469,2.22469,0,0,1-.786,1.32381c-.6574.66631-.88516.58547-1.59754,1.3192-.25326.26085-.60506.66306-.62934.69086-.36744.42071-.45065.54778-.584.6948-.17457.1925-.41335.39529-1.67352.93576-1.04953.45013-1.75485.74832-1.86418.584-.04138-.06218.02089-.17364.14543-.39655a2.01772,2.01772,0,0,1,.53125-.60938c.20783-.15752.27078-.14235.36864-.26727a.8334.8334,0,0,0,.1537-.54008.64319.64319,0,0,0-.39008.06432c-.18832.10452-.20434.26569-.31976.27428-.15662.01164-.37582-.26667-.33372-.492.01873-.1003.08651-.17556.47435-.39861,1.02016-.58671,1.06241-.60933,1.06241-.60933a.68473.68473,0,0,0,.34185-.33339.28616.28616,0,0,0,.01925-.23686C7.37912,13.96159,7.21537,13.95987,7.1154,13.817Z"/>

</g>
</svg>
