<?xml version="1.0" encoding="UTF-8"?>
<svg xmlns="http://www.w3.org/2000/svg"
     version="1.1"
     width="21.38067904mm"
     height="29.66396066mm"
     viewBox="0.00000000 0.00000000 60.60662900 84.08685357">

<g transform="scale(5.24899505)">   <defs>
      <style type="text/css"><![CDATA[
      .a {
        stroke: #000;
        stroke-linecap: round;
        stroke-linejoin: round;
        stroke-width: 0.01px;
      }
    ]]></style>
   </defs>
   <path class="a"
         d="M1.9883.21851a3.03612,3.03612,0,0,1-.36342.212,2.01133,2.01133,0,0,0-.24227.315c-.28468.41792-.51484.65414-.636.65414a1.43985,1.43985,0,0,0-.41792.212c-.30891.20593-.321.218-.321.49666a.63619.63619,0,0,0,.14537.46638c.13325.15748.14536.218.11508.51484C.15306,4.1979.15306,4.17367.29236,4.50074a2.62437,2.62437,0,0,1,.15748.49667c.01212.103.03029.26045.0424.34524a.68019.68019,0,0,0,.07269.23622.52051.52051,0,0,1,.04239.25439.40366.40366,0,0,0,.13931.315c.1696.17565.18171.27256.06057.61175-.103.28467-.11508.49061-.03028.54512a1.06057,1.06057,0,0,1,.18776.28468c.12114.23622.12114.26044.03029.46638A3.099,3.099,0,0,0,.81326,9.09794a.58986.58986,0,0,1-.09085.315A.44633.44633,0,0,0,.68,9.74a8.2628,8.2628,0,0,1-.05452,1.76253.342.342,0,0,0,.07269.23016A.77429.77429,0,0,1,.783,12.193a.7629.7629,0,0,0,.06057.38764.77158.77158,0,0,1,.09691.30285,1.46887,1.46887,0,0,0,.13931.44821c.06057.12719.103.24227.0848.26044s.0424.15143.13325.29679a1.75342,1.75342,0,0,1,.20594.44216c.02422.13931.109.2241.38158.37553.33919.18776.36342.19382.65415.12719a.763.763,0,0,1,.49667,0,.71018.71018,0,0,0,.43609.00606,5.44244,5.44244,0,0,1,.81769-.07269,1.43235,1.43235,0,0,0,.91459-.212,1.00094,1.00094,0,0,1,.37553-.15748c.01817.01817.109-.00605.20593-.04845a.80777.80777,0,0,1,.47244-.04846c.28468.03634.3089.03029.51484-.17565a.86568.86568,0,0,0,.212-.28467,1.10725,1.10725,0,0,1,.11508-.27862l.11508-.218-.14536-.17565a1.10414,1.10414,0,0,0-.3937-.27862c-.24228-.09085-.26045-.08479-.57541.0848a2.7946,2.7946,0,0,1-.90248.38764c-.08479.00606-.19382.01817-.24833.01817a.65434.65434,0,0,0-.26045.16354c-.19382.18171-.19988.18171-.53906.03634a.528.528,0,0,1-.36948-.40581,3.11556,3.11556,0,0,1-.1817-.90248,2.43958,2.43958,0,0,0-.0848-.3937,5.45517,5.45517,0,0,1,.02423-1.36281c.11508-.43.13325-.54512.07874-.642-.03634-.07268-.01817-.18776.06057-.37553a.81865.81865,0,0,0,.03634-.67837,1.1435,1.1435,0,0,1-.03029-.53907.71913.71913,0,0,0-.006-.37553,4.884,4.884,0,0,1-.19988-1.29617,5.90192,5.90192,0,0,0-.06667-.75719,7.2111,7.2111,0,0,1-.06057-.93882C3.339,4.49468,3.3269,4.101,3.32084,4.03436A1.51355,1.51355,0,0,1,3.52069,3.253a.89249.89249,0,0,1,.44215-.04846c.35736.02423.636.02423,1.20533.01817a2.83077,2.83077,0,0,1,.854.06663c.02423.02423.09086.01817.15748-.01817.0848-.04846.18171-.03029.36947.05451.13931.06663.34525.15142.45427.19382.25439.09691.30285.19988.27256.57541A3.79228,3.79228,0,0,0,7.48189,5.9241c.08479.12719.08479.15748-.00606.29073a.672.672,0,0,0-.07268.49061,1.41881,1.41881,0,0,1-.06057.60569,1.92176,1.92176,0,0,0,.13325,1.32646,2.27046,2.27046,0,0,1,.16959.75711.59386.59386,0,0,0,.14537.47244.87717.87717,0,0,1,.14537.67838c-.00606.04845-.02423.48455-.03635.9691a2.87,2.87,0,0,0,.0848,1.16293.54919.54919,0,0,1,.05451.36341,1.9553,1.9553,0,0,0,.45427,1.41126,1.20891,1.20891,0,0,1,.18171.23017,1.07025,1.07025,0,0,0,.30284.29073,1.10944,1.10944,0,0,1,.424.67837.211.211,0,0,0,.109.1272,3.83675,3.83675,0,0,0,1.04785.17565,1.85219,1.85219,0,0,1,.49061.05451c.03634.02423.13325-.03028.218-.12114.34524-.37553.36947-.848.04239-1.0115a.7318.7318,0,0,1-.26044-.26651c-.07874-.14536-.07874-.18776-.00606-.29073s.06663-.15748-.06057-.41792a1.3616,1.3616,0,0,1-.15142-.41793.45884.45884,0,0,0-.09086-.23622.51878.51878,0,0,1-.09085-.25439.24115.24115,0,0,0-.06662-.18171,1.172,1.172,0,0,1-.24228-.78134,2.20012,2.20012,0,0,0-.07268-.51484,2.223,2.223,0,0,1-.0848-.54512c-.01211-.218-.03634-.50272-.05451-.636s-.03029-.30891-.03634-.3937c0-.0848-.0424-.46639-.09086-.848a7.705,7.705,0,0,1,.0424-2.665.78935.78935,0,0,0-.0424-.81163.38743.38743,0,0,1-.11508-.36341c.17565-.99939.17565-.99939.09691-1.0963A.26127.26127,0,0,0,9.838,4.0646a1.71311,1.71311,0,0,1-.39976-.24227,3.401,3.401,0,0,0-.51484-.321,5.25,5.25,0,0,1-1.26589-1.1811c-.36947-.73288-.86008-.9691-2.22895-1.07207a2.40183,2.40183,0,0,1-.9691-.3089A6.04653,6.04653,0,0,1,3.79326.56375C3.71452.49712,3.59944.485,3.339.50924c-.41187.0424-.533-.01212-.62386-.29073C2.62428-.06617,2.4244-.06617,1.9883.21851Z"/>

</g>
</svg>
