<?xml version="1.0" encoding="UTF-8"?>
<svg xmlns="http://www.w3.org/2000/svg"
     version="1.1"
     width="59.78843179mm"
     height="34.52846281mm"
     viewBox="0.00000000 0.00000000 169.47895146 97.87590150">

<g transform="scale(4.36982859)">   <defs>
      <style type="text/css"><![CDATA[
      .a {
        stroke: #000;
        stroke-linecap: round;
        stroke-linejoin: round;
        stroke-width: 0.01px;
      }
    ]]></style>
   </defs>
   <path class="a"
         d="M31.78672.05756A2.97,2.97,0,0,1,30.69648.215a.91834.91834,0,0,0-.54513.0848,1.132,1.132,0,0,1-.80557.03029,1.25939,1.25939,0,0,0-.87219.33313.72376.72376,0,0,1-.33313.212c-.09085.02423-.29073.09085-.44216.15142a4.19456,4.19456,0,0,1-.52695.18171c-.14536.03634-.26044.09085-.26044.12114s-.103.11508-.22411.18171a3.78821,3.78821,0,0,0-.91459.66626,8.01224,8.01224,0,0,1-1.10842.90853,3.0706,3.0706,0,0,0-.69048.60569,1.59416,1.59416,0,0,1-.642.51484.33726.33726,0,0,0-.16959.0848,5.95213,5.95213,0,0,1-.86008.67231c-.0303,0-.09086.07874-.13932.17566a.56936.56936,0,0,1-.27256.23621.27643.27643,0,0,1-.33313-.05451.35341.35341,0,0,0-.26651-.09085,1.07168,1.07168,0,0,1-.4058-.01817.68431.68431,0,0,0-.45427.01817.80946.80946,0,0,1-.45427.02423c-.28467-.04846-.69654-.103-.9691-.12114-.06663,0-.23016,0-.36342.01211-.66626.0424-.89036-.23016-.58752-.71471a4.44015,4.44015,0,0,0,.49667-.96911,3.45506,3.45506,0,0,1,.957-.963,1.27471,1.27471,0,0,0,.26045-.18776c0-.02423.01211-.20594.01817-.39976.01211-.28467-.01211-.38764-.09691-.47244a.25239.25239,0,0,1-.07268-.25439c.06057-.25439-.4361-.46032-.62992-.2665a.73412.73412,0,0,1-.36342.0848.84316.84316,0,0,0-.527.16959c-.13325.09085-.37553.24833-.54512.35736a.80212.80212,0,0,0-.40581.49061,1.68567,1.68567,0,0,1-.76923.854,1.33179,1.33179,0,0,0-.38764.212.9932.9932,0,0,1-.34525.18171.91231.91231,0,0,0-.33918.23622,5.13613,5.13613,0,0,1-.48456.3937,5.82441,5.82441,0,0,0-.84191.62992,2.41212,2.41212,0,0,0-.39975.43609.80984.80984,0,0,1-.3513.26045.64747.64747,0,0,0-.25439.14537.42849.42849,0,0,1-.18777.38158A1.85609,1.85609,0,0,0,12.07152,6.914a1.9801,1.9801,0,0,1-.43.86614.339.339,0,0,0-.05452.21805c0,.23622.642.89036.92671.94487a1.21127,1.21127,0,0,1,.315.09692,1.96064,1.96064,0,0,0,.93882.109c.28468-.00606.55724-.00606.60569,0,.19988,0,.52695-.01817.72683-.0424.11508-.01211.27862-.03028.36342-.03028a.44845.44845,0,0,0,.2241-.06057,2.7239,2.7239,0,0,1,1.4476-.0424c.17565.06057.21805.05451.32708-.0424a.61086.61086,0,0,1,.321-.12719c.103-.01212.27256-.03029.36947-.04846a.36.36,0,0,1,.41793.16959,2.93054,2.93054,0,0,1-.7874,1.02968.8655.8655,0,0,0-.26044.24833c-.19383.27256-.83586.71472-.98728.67232a.17453.17453,0,0,0-.18171.09085,2.85845,2.85845,0,0,1-.45427.40582,2.144,2.144,0,0,0-.47244.44215c-.08479.16354-.15142.20594-.44821.26045a1.06742,1.06742,0,0,0-.60569.27862,2.11234,2.11234,0,0,1-1.02362.32707,2.25088,2.25088,0,0,0-.48454.15142,2.34511,2.34511,0,0,1-.55118.18777,3.82727,3.82727,0,0,0-1.48394.9267,1.46561,1.46561,0,0,1-.45428.321,4.87133,4.87133,0,0,0-1.01756.51484.607.607,0,0,1-.29679.11508.614.614,0,0,0-.29073.09691,1.25976,1.25976,0,0,1-.34524.14536,5.76428,5.76428,0,0,0-1.04785.3937,5.29024,5.29024,0,0,1-.58146.23622.50834.50834,0,0,0-.28468.24228c-.12719.212-.36947.32707-1.01756.46032-.28467.06057-.35736.11509-.79951.59964a4.08955,4.08955,0,0,0-.57541.751.74656.74656,0,0,1-.38764.36948,4.91983,4.91983,0,0,0-.93276.79345c-.87825.89037-1.45366,1.47183-1.6172,1.62325a1.5464,1.5464,0,0,0-.25439.34525,2.95031,2.95031,0,0,1-.36341.48455c-.4785.52089-.72683,1.0539-.43.93882a1.83806,1.83806,0,0,1,.33918-.06662,2.25149,2.25149,0,0,0,.56923-.18173,1.9757,1.9757,0,0,1,.533-.18171,2.451,2.451,0,0,0,.58752-.20593,1.58558,1.58558,0,0,1,.69049-.18171,1.30241,1.30241,0,0,0,.4785-.0848,8.03819,8.03819,0,0,1,1.48394-.52089.85719.85719,0,0,0,.36341-.12114.84063.84063,0,0,1,.29073-.12113,1.38815,1.38815,0,0,0,.36342-.14537.99468.99468,0,0,1,.59358-.12114,1.15759,1.15759,0,0,0,.89036-.30285.44684.44684,0,0,1,.40582-.103,1.42338,1.42338,0,0,0,.68443-.07268c.03634-.01211.212-.09691.3937-.18776a1.66714,1.66714,0,0,1,.69048-.19382,3.12228,3.12228,0,0,0,.636-.12114,3.12714,3.12714,0,0,1,.90248-.16354.8271.8271,0,0,0,.37553-.13325.5104.5104,0,0,1,.2665-.12113.83369.83369,0,0,0,.25439-.07874,1.3544,1.3544,0,0,1,.46638-.03634c.315.02422.38159.00605.53907-.1272a.6933.6933,0,0,1,.23622-.15142,4.16449,4.16449,0,0,0,.53906-.24227c.47244-.23017.49667-.23622.82374-.17566a1.14506,1.14506,0,0,0,.53907,0,3.25452,3.25452,0,0,1,.68443-.18776.382.382,0,0,0,.18776-.11508.31455.31455,0,0,1,.33313-.0848.89379.89379,0,0,0,.38764-.03634,1.53311,1.53311,0,0,1,.38159-.09691c.11508-.01211.29073-.0424.38764-.06057.103-.02423.212-.04845.24228-.05451A.57591.57591,0,0,0,17.874,17.453c.07268-.07268.16959-.11508.212-.09692a.54015.54015,0,0,0,.315-.12113.92861.92861,0,0,1,.33918-.15748,5.06563,5.06563,0,0,0,1.175-.4361,1.91948,1.91948,0,0,0,.33313-.29678c.33918-.41187.60569-.6602.70865-.6602a.89767.89767,0,0,0,.32708-.15748,1.09767,1.09767,0,0,1,.61174-.19988.47933.47933,0,0,0,.13931-.19382.68134.68134,0,0,1,.30891-.27256c.11508-.04846.20593-.1151.20593-.14538a1.0187,1.0187,0,0,1,.38764-.24228,3.01079,3.01079,0,0,0,.70261-.49666,1.35124,1.35124,0,0,1,.46032-.32708c.13325-.0121.38159-.23015.38764-.33918,0-.02423.103-.0969.23017-.16354a2.28533,2.28533,0,0,0,.73894-.73289c0-.03028.08479-.103.18776-.15141.103-.05451.1696-.11508.15143-.13326s-.00606-.08479.03028-.14537c.0424-.08479.03028-.16353-.03634-.30284a1.04574,1.04574,0,0,1-.109-.33919c-.03028-.34524-.52089-.49667-1.0963-.33313a2.218,2.218,0,0,1-.41187.0848.78842.78842,0,0,0-.33313.19988,2.58876,2.58876,0,0,1-1.31435.52695,1.56671,1.56671,0,0,0-.533.12114.38539.38539,0,0,1-.43005.01817c-.218-.09086-.46638-.06057-.53907.06662a2.80018,2.80018,0,0,1-1.22954.321,1.6652,1.6652,0,0,0-.5633.12719,1.35877,1.35877,0,0,1-.75711.33313,3.2615,3.2615,0,0,0-.67837.18777,3.47252,3.47252,0,0,1-.60569.18776.90834.90834,0,0,0-.34525.18171,1.02848,1.02848,0,0,1-.424.20593c-.38764.0848-.3937.0848-.4785.15748a2.473,2.473,0,0,1-.41792.18777c-.18171.06057-.38159.13325-.4361.15748-.1272.06057-.36342-.16354-.315-.29679a1.1371,1.1371,0,0,1,.58146-.33313,1.50741,1.50741,0,0,0,.39976-.212,5.68824,5.68824,0,0,1,.533-.30891.753.753,0,0,0,.29678-.2665.6677.6677,0,0,1,.35131-.2665.602.602,0,0,0,.33313-.24834c.03634-.08479.09691-.15142.12113-.15142a.834.834,0,0,0,.24228-.18171.66467.66467,0,0,1,.27862-.1817.1302.1302,0,0,0,.11508-.0848,1.25023,1.25023,0,0,1,.35736-.2665,2.47047,2.47047,0,0,0,.77528-.67838.40236.40236,0,0,1,.25439-.14536,1.4313,1.4313,0,0,0,.69049-.424A1.1867,1.1867,0,0,1,20.43,9.74249a1.33563,1.33563,0,0,0,.37553-.3513.684.684,0,0,1,.29073-.23622c.3513-.14537.57541-.36947.58147-.58147A2.013,2.013,0,0,1,21.92,7.81033a2.88016,2.88016,0,0,0,.4785-1.39309c.00606-.15142.01817-.3089.02423-.3513a2.37807,2.37807,0,0,1,.46638-.527,1.83931,1.83931,0,0,1,1.35675-.6601c.1817-.01212.45426-.0424.60569-.06663a2.91685,2.91685,0,0,1,.48455-.0424,1.00906,1.00906,0,0,0,.36947-.05451,3.58378,3.58378,0,0,1,.69655-.0848c.29678-.01211.636-.03634.751-.04845.11508-.01817.39976-.04846.62386-.06663a2.2358,2.2358,0,0,0,.66021-.16353,2.28222,2.28222,0,0,1,1.0539-.18777,1.32343,1.32343,0,0,0,.46638-.07874,1.43752,1.43752,0,0,1,.65415-.05451,1.84748,1.84748,0,0,0,1.02967-.07874c.23017-.09085.26045-.09085.527.03029.15748.06662.41187.16959.56935.2241A1.52529,1.52529,0,0,1,33.198,4.467c.09691.09085.27256.23016.38764.315a2.41963,2.41963,0,0,1,.80557,1.066.90667.90667,0,0,1,.02423.70866.44172.44172,0,0,1-.27256.32708c-.11508.05451-.20594.12113-.20594.15142a.94362.94362,0,0,1-.17565.24227,1.35652,1.35652,0,0,0-.21805.33919c-.02422.09086-.13931.18171-.30284.25439a1.05526,1.05526,0,0,0-.30285.17565,2.29981,2.29981,0,0,1-.90853.43,1.21377,1.21377,0,0,0-.38159.09691,2.2115,2.2115,0,0,1-1.272.00606.88912.88912,0,0,0-.37553-.06057.405.405,0,0,1-.27256-.06662.95692.95692,0,0,0-.44215-.09692,1.01347,1.01347,0,0,0-.66021.24228,2.44665,2.44665,0,0,0-.46638.36947,2.25,2.25,0,0,1-.41187.36947c-.46638.3513-.72077.636-.77528.86009a1.37968,1.37968,0,0,0,.38764.963c.13325.14537.18776.16354.35736.1272a1.01158,1.01158,0,0,0,.33313-.13325,7.40908,7.40908,0,0,1,2.10174-.20594c.745-.01817.8722-.03634,1.066-.15142.19988-.1272.23016-.1272.50272-.04846.315.09691.37553.07269.78134-.25439a.607.607,0,0,1,.28468-.13931.20837.20837,0,0,0,.17565-.11508.60361.60361,0,0,1,.26045-.18776,3.25961,3.25961,0,0,0,1.19933-.71465,3.649,3.649,0,0,1,.6784-.51483c.19382-.109.3513-.22411.3513-.26651a7.73586,7.73586,0,0,1,1.13264-1.31435,3.75217,3.75217,0,0,0,.636-.82979,3.20335,3.20335,0,0,1,.36947-.56935,1.45463,1.45463,0,0,0,.40581-.78134.7154.7154,0,0,1,.1696-.35131,1.91959,1.91959,0,0,0,.24227-.36947c.03634-.09085.09691-.16353.13325-.16353.03029,0,.09691-.07874.15143-.18171a1.63612,1.63612,0,0,0,.07268-.745c-.01817-.47244-.0424-.59963-.15142-.73894a.35693.35693,0,0,1-.09691-.30285c.02422-.109.006-.15142-.09691-.18171a.4742.4742,0,0,1-.218-.24833.53528.53528,0,0,0-.18171-.24833.49071.49071,0,0,1-.18171-.218,2.02243,2.02243,0,0,0-.30284-.3937c-.17575-.18176-.23027-.206-.412-.1757a.48943.48943,0,0,1-.33313-.05451A2.7571,2.7571,0,0,0,35.59046.45126,1.139,1.139,0,0,1,35.118.39069c-.20594-.06663-.3089-.07269-.3937-.03029-.25439.13326-.50272.09691-1.39915-.212A.44582.44582,0,0,0,32.9981.13024c-.07268.0424-.18171.03029-.35736-.03634A1.3475,1.3475,0,0,0,31.78672.05756Z"/>

</g>
</svg>
