<?xml version="1.0" encoding="UTF-8"?>
<svg xmlns="http://www.w3.org/2000/svg"
     version="1.1"
     width="37.11643641mm"
     height="20.29776024mm"
     viewBox="0.00000000 0.00000000 105.21182787 57.53700761">

<g transform="scale(7.30148393)">   <defs>
      <style type="text/css"><![CDATA[
      .a {
        stroke: #000;
        stroke-linecap: round;
        stroke-linejoin: round;
        stroke-width: 0.01px;
      }
    ]]></style>
   </defs>
   <path class="a"
         d="M9.06851.18069a2.93409,2.93409,0,0,0-.32709.49667,3.43419,3.43419,0,0,1-.39975.56329,15.54116,15.54116,0,0,0-1.06,1.18716,2.06962,2.06962,0,0,1-.3513.36947c-.02423,0-.04846.0424-.04846.09085a1.11928,1.11928,0,0,1-.2665.35736,2.59272,2.59272,0,0,0-.424.56329.88866.88866,0,0,1-.30284.36947c-.0848.03635-.15748.09086-.15748.12114a2.28066,2.28066,0,0,1-.70866.46638,5.58975,5.58975,0,0,0-.98728.36342c-.24227.12114-.29073.12719-.45427.05451a2.96191,2.96191,0,0,0-.3513-.11508c-.16959-.03634-.43-.36947-.36947-.46638.0424-.07269-.09691-.41187-.16354-.41187-.03028,0-.09691-.0848-.15142-.19382a2.20192,2.20192,0,0,0-.61773-.77529.6627.6627,0,0,1-.27256-.212.46775.46775,0,0,0-.47244-.212.769.769,0,0,0-.60569.25439,1.24024,1.24024,0,0,0-.46031.65417A.85.85,0,0,0,.03768,4.36a2.2005,2.2005,0,0,0,.61174.91459c.13931.15748.15142.20594.12719.58753-.01212.23016-.02419.51483-.02419.62991a.77268.77268,0,0,1-.109.3937c-.315.5209-.15748.9146.3937.97517a.90413.90413,0,0,0,.60569-.103,1.78425,1.78425,0,0,1,.69655-.15748c.218-.00606.46032-.01817.54512-.01817A2.36928,2.36928,0,0,0,3.363,7.455a.86421.86421,0,0,1,.35736-.08479.51535.51535,0,0,0,.24228-.103,1.02131,1.02131,0,0,1,.39976-.13931.86459.86459,0,0,0,.32707-.0848,1.82843,1.82843,0,0,1,.50878-.09085,1.374,1.374,0,0,0,.59358-.14537,1.06834,1.06834,0,0,1,.642-.12114A1.81872,1.81872,0,0,0,6.991,6.61913a.70323.70323,0,0,1,.28468-.06663.67632.67632,0,0,0,.29671-.09079,1.251,1.251,0,0,1,.4361-.1272A2.39606,2.39606,0,0,0,8.4749,6.2376,1.07519,1.07519,0,0,1,8.808,6.177a.76832.76832,0,0,0,.321-.08479,2.21789,2.21789,0,0,1,.60569-.103,2.51261,2.51261,0,0,0,.66021-.11508.78858.78858,0,0,1,.33313-.07268,2.46816,2.46816,0,0,1,.83585.19987.30156.30156,0,0,0,.18171.06663c.11508,0,.52695.36341.52695.47244a.91094.91094,0,0,1-.15142.26045c-.26045.35735-.29073.48455-.18777.70865a.75263.75263,0,0,0,.30285.29679c.20593.09691.212.09691.745-.17565.55723-.27861.642-.36947.75711-.82979A2.68836,2.68836,0,0,0,13.805,6.3951a.62728.62728,0,0,1,.08479-.27256,1.73986,1.73986,0,0,0,.16354-.72683c.01212-.20593.24833-.59963.3513-.59963a3.79477,3.79477,0,0,0-.89642-.82374.85283.85283,0,0,0-.35736.03028.8484.8484,0,0,1-.56935-.05452A2.43538,2.43538,0,0,0,11.27323,3.942a1.16278,1.16278,0,0,1-.43.03635.82069.82069,0,0,0-.3513.06057.50591.50591,0,0,1-.28468.06056.73936.73936,0,0,0-.36951.06658,3.89356,3.89356,0,0,1-1.04179.109c-.62386.01212-.73894,0-.83585-.09691-.13325-.13325-.0848-.2665.13931-.38764.09691-.04845.17565-.109.17565-.13931a2.73211,2.73211,0,0,1,.36947-.43609,5.64074,5.64074,0,0,0,.52089-.61775c.07874-.12114.1696-.22411.19988-.22411.103,0,.30285-.26044.30285-.39975a.659.659,0,0,1,.15142-.321.86681.86681,0,0,0,.18171-.29679,1.55851,1.55851,0,0,1,.11508-.33313c.103-.25439.07268-.36341-.19988-.78739C9.78323.02927,9.753.0111,9.4925.0111A.43879.43879,0,0,0,9.06851.18069Z"/>

</g>
</svg>
