<?xml version="1.0" encoding="UTF-8"?>
<svg xmlns="http://www.w3.org/2000/svg"
     version="1.1"
     width="38.74487265mm"
     height="31.07045958mm"
     viewBox="0.00000000 0.00000000 109.82802393 88.07371804">

<g transform="scale(4.28563383)">   <defs>
      <style type="text/css"><![CDATA[
      .a {
        stroke: #000;
        stroke-linecap: round;
        stroke-linejoin: round;
        stroke-width: 0.01px;
      }
    ]]></style>
   </defs>
   <path class="a"
         d="M8.57624.019a.54141.54141,0,0,0-.23017.14537.22762.22762,0,0,1-.19382.07873c-.04845-.01817-.18776.07874-.321.22411-.1272.13931-.44822.46638-.70261.72077a3.48621,3.48621,0,0,0-.47243.533.64151.64151,0,0,1-.13931.23622,3.14539,3.14539,0,0,0-.29679.50272,1.24779,1.24779,0,0,1-.28468.40582.981.981,0,0,0-.24833.321.62927.62927,0,0,1-.16959.24228c-.03029,0-.09691.09085-.14537.20593A.46858.46858,0,0,0,5.354,4.1013c.13931.47243.218.59357.4361.66626a.57179.57179,0,0,0,.3089.02422,1.59977,1.59977,0,0,1,.79951-.06662c.0848.00605.22411.02422.321.02422a.54915.54915,0,0,1,.29679.14537.6441.6441,0,0,0,.43.15142,2.35166,2.35166,0,0,1,.65414.19988.92739.92739,0,0,0,.75106.1272,2.16629,2.16629,0,0,1,1.169.16959c.15748.0848.34525.05451.62387-.09085a1.73866,1.73866,0,0,1,.50878-.1272.7274.7274,0,0,0,.5754-.28467,3.7004,3.7004,0,0,1,1.25378-.73289,2.14384,2.14384,0,0,0,.82374-.54512.54272.54272,0,0,1,.27256-.15142.92314.92314,0,0,0,.315-.109c.15748-.07874.212-.14536.20594-.24228A1.02711,1.02711,0,0,1,15.36,2.787l.27256-.33313-.15748-.24228c-.09087-.12724-.20592-.24224-.26652-.24224-.15142-.01211-.55118-.03634-1.43549-.07268a2.9861,2.9861,0,0,1-1.06-.15748,1.84875,1.84875,0,0,0-.34525-.12719,2.31458,2.31458,0,0,1-.45427-.17565,2.728,2.728,0,0,0-.58139-.206,3.044,3.044,0,0,1-.80557-.4785C9.69071.14615,9.56351.07347,9.35152.06133c-.09691-.006-.29073-.0242-.424-.04237A1.11222,1.11222,0,0,0,8.57624.019Z"/>
   <path class="a"
         d="M19.33331.43688a.46781.46781,0,0,0-.23016.212.62325.62325,0,0,1-.24834.23622c-.109.07268-.20593.15748-.20593.18776a1.81436,1.81436,0,0,1-.3089.37553,5.02041,5.02041,0,0,0-.46033.54512,1.22942,1.22942,0,0,1-.33919.34524,1.29621,1.29621,0,0,0-.46638.424,2.10327,2.10327,0,0,1-.48455.37553,4.80148,4.80148,0,0,0-.50273.33313.65039.65039,0,0,1-.24227.13931c-.09691.006-.29073.17565-.41793.37552a.68408.68408,0,0,1-.3513.23622.75215.75215,0,0,0-.533.49061.82375.82375,0,0,1-.3937.33919,1.9503,1.9503,0,0,0-.51483.38764c-.36948.41793-.4361.4785-.49667.44216-.03029-.01817-.06663.01817-.09085.07268a1.758,1.758,0,0,1-.745.71472c-.34525.19987-.67838.56934-.67838.75711a.43667.43667,0,0,1-.13931.19988c-.07874.07268-.36341.34524-.62992.59963-.47849.46033-.53906.49667-.75711.4785-.06663-.00606-.13325.06057-.18776.18776a1.81548,1.81548,0,0,1-.321.424,5.1154,5.1154,0,0,0-.64809.73288.34619.34619,0,0,1-.16354.1272,2.67073,2.67073,0,0,0-.51483.45426,10.16674,10.16674,0,0,1-.963.94488c-.15748.13325-.43.37553-.61175.53907a2.10354,2.10354,0,0,1-.54512.36341A9.14742,9.14742,0,0,0,4.076,14.56766a1.29157,1.29157,0,0,1-.45427.424,3.5623,3.5623,0,0,0-.963.98728c0,.02422-.07268.08479-.16353.13325a4.30413,4.30413,0,0,0-.93277.89036.96678.96678,0,0,1-.33918.26045.51647.51647,0,0,0-.30891.29679,1.4104,1.4104,0,0,1-.36947.4361c-.23622.18776-.30284.27862-.3089.424a.86152.86152,0,0,1-.109.36342.776.776,0,0,0,.08479.94487,2.14946,2.14946,0,0,0,.315.38159.689.689,0,0,1,.1696.24833c.07874.18777.103.19988.321.18171a4.232,4.232,0,0,0,.86008-.3089A4.06643,4.06643,0,0,1,3.107,19.77058c.01817.01817.13931-.0424.2665-.13325a1.47219,1.47219,0,0,1,.69654-.218,2.4897,2.4897,0,0,0,.64809-.15142.88956.88956,0,0,1,.32708-.09086,2.4809,2.4809,0,0,0,.62386-.23621,3.82509,3.82509,0,0,1,.68443-.27862,3.28441,3.28441,0,0,0,1.0417-.48465.66361.66361,0,0,1,.48455-.1393,1.90289,1.90289,0,0,0,.533-.09691,4.68275,4.68275,0,0,1,.56329-.18777,1.10713,1.10713,0,0,0,.424-.19382c.26044-.315.28467-.32707.66626-.321a4.74157,4.74157,0,0,0,1.49605-.218,1.65627,1.65627,0,0,1,.5209-.09085,1.45105,1.45105,0,0,0,.48455-.07874,1.70426,1.70426,0,0,1,.53906-.09085c.38159.006,1.60509-.04846,2.22289-.09691a3.12832,3.12832,0,0,0,.81768-.18171,2.25154,2.25154,0,0,1,.92671-.15142,2.66453,2.66453,0,0,1,1.19321.13931,1.02972,1.02972,0,0,0,.41793.07268.99928.99928,0,0,1,.49061.16354c.30284.16959.36341.1817.95093.1817a1.76224,1.76224,0,0,1,.99334.1696,1.44951,1.44951,0,0,1,.39975.23622.27908.27908,0,0,0,.19988.06662,1.85924,1.85924,0,0,1,.80557.49061c0,.02423.06057.05451.13931.07268a2.60888,2.60888,0,0,1,.49061.35131c.34524.3089.35736.31495.54512.24227a2.30818,2.30818,0,0,1,.3513-.109c.09085-.01817.15142-.06057.13325-.103a1.545,1.545,0,0,1,.44821-.642c.03029,0,.07874-.09086.12114-.19988a1.49716,1.49716,0,0,1,.26651-.41793.71151.71151,0,0,0,.218-.44821,1.0598,1.0598,0,0,1,.08479-.34524.916.916,0,0,0,.06057-.3513.60808.60808,0,0,1,.11508-.38159c.109-.14536.11508-.16959.03029-.28467a.20416.20416,0,0,1-.02423-.26045,2.29379,2.29379,0,0,0,.0848-.642,5.35506,5.35506,0,0,1,.03028-.58147c.01211-.0424-.0424-.13931-.12719-.2241-.26651-.26045-.424-.47244-.424-.5633,0-.04845-.02423-.08479-.06057-.08479-.03028,0-.09691-.07874-.14536-.1696a2.286,2.286,0,0,0-.71472-.71471,3.28773,3.28773,0,0,0-1.593-.36342c-.33313-.01211-.94487-.03028-1.3628-.04845a5.79878,5.79878,0,0,0-2.07752.19988,4.49937,4.49937,0,0,1-1.41732.218,1.8406,1.8406,0,0,0-.45427.06662,2.30892,2.30892,0,0,1-.62386.06663c-.29679.01211-.59963.02423-.66626.03028a3.1603,3.1603,0,0,1-.41187-.03028.5857.5857,0,0,0-.44215.05451,1.17641,1.17641,0,0,1-.46638.12114,4.642,4.642,0,0,0-1.23561.19382.66121.66121,0,0,1-.28468.07268.82088.82088,0,0,0-.3513.11508,1.57173,1.57173,0,0,1-.73289.12114,3.43574,3.43574,0,0,0-.69654.07269.8154.8154,0,0,1-.315.04845.48194.48194,0,0,0-.27862.05451c-.07268.03634-.14536.05451-.16353.03634-.01212-.01817-.13326.03635-.25439.1272a.87222.87222,0,0,1-.35736.15142,4.52217,4.52217,0,0,0-.66626.15748,2.26079,2.26079,0,0,1-.61175.12114,1.36081,1.36081,0,0,0-.49667.18171,3.71526,3.71526,0,0,1-.46032.20593c-.07874,0-.28468-.24227-.28468-.33313a1.18408,1.18408,0,0,1,.30285-.40581,1.81488,1.81488,0,0,0,.33313-.424.44219.44219,0,0,1,.19988-.19383,3.38015,3.38015,0,0,0,.49666-.3937,3.014,3.014,0,0,1,.62387-.43609A2.65547,2.65547,0,0,0,9.945,11.406a3.1137,3.1137,0,0,1,1.04784-.64809.681.681,0,0,0,.29679-.12114.72824.72824,0,0,1,.26651-.12114.7975.7975,0,0,0,.28467-.17565c.12114-.109.24228-.16959.3089-.15142.0848.02423.1696-.04846.30891-.24228a.88426.88426,0,0,1,.3513-.315.46564.46564,0,0,0,.24227-.218.57619.57619,0,0,1,.25439-.24228,1.80885,1.80885,0,0,0,.38159-.27862,1.07368,1.07368,0,0,1,.30284-.218.984.984,0,0,0,.50878-.3513,6.394,6.394,0,0,1,.92671-1.16292,3.2887,3.2887,0,0,0,.82374-.854.63806.63806,0,0,1,.24833-.27862.68225.68225,0,0,0,.212-.18776,4.438,4.438,0,0,1,.39975-.45427c.21805-.22411.46638-.48455.55118-.56935a.74026.74026,0,0,0,.16959-.32707.35952.35952,0,0,1,.34525-.33313c.12114,0,.55118-.61781.56329-.81163a.31721.31721,0,0,1,.109-.18776.21523.21523,0,0,0,.103-.13325.90883.90883,0,0,1,.14537-.25439.477.477,0,0,0,.12114-.27862c-.01817-.04846.02422-.13931.09085-.20594a.6943.6943,0,0,0,.15142-.39975.58194.58194,0,0,1,.15143-.39976.50172.50172,0,0,0,.13325-.19382,3.52262,3.52262,0,0,1,.09085-.61175c.03029-.13325.01817-.19382-.06662-.26045C19.624.31575,19.56953.3218,19.33331.43688Z"/>
   <path class="a"
         d="M9.43026,19.09822a.12264.12264,0,0,0,.11508-.006c.02423-.01817-.01211-.03634-.07874-.03029C9.4,19.06188,9.38181,19.08005,9.43026,19.09822Z"/>

</g>
</svg>
