<?xml version="1.0" encoding="UTF-8"?>
<svg xmlns="http://www.w3.org/2000/svg"
     version="1.1"
     width="16.46951844mm"
     height="38.19364027mm"
     viewBox="0.00000000 0.00000000 46.68520798 108.26545552">

<g transform="scale(3.67920472)">   <defs>
      <style type="text/css"><![CDATA[
      .a {
        stroke: #000;
        stroke-linecap: round;
        stroke-linejoin: round;
        stroke-width: 0.01px;
      }
    ]]></style>
   </defs>
   <path class="a"
         d="M4.68924.06a.37715.37715,0,0,1-.22411.01817C4.35005.06,4.3016.09024,4.24713.21137A.38437.38437,0,0,1,4.04726.4052a.6711.6711,0,0,0-.27867.23624,1.68455,1.68455,0,0,1-.76923.50272,3.58349,3.58349,0,0,0-.81768.79951,4.93463,4.93463,0,0,1-.59964.70866c-.6602.59961-.78739.81161-.80557,1.31433-.006.17565-.04239.3089-.08479.32707-.12114.03634-.38159.34525-.33921.39371.04846.0424-.15142.48455-.24833.56329a.78694.78694,0,0,0-.04846.66021,1.669,1.669,0,0,1,.109.424c.07268.47244.11508.54512.38764.62992.13931.03634.25439.103.25439.14537a2.26207,2.26207,0,0,0,.0848.39369.48726.48726,0,0,0,.09691.23017.65288.65288,0,0,1,.11508.27256.97455.97455,0,0,0,.18776.36341.23811.23811,0,0,1,.0848.25439,1.13948,1.13948,0,0,0-.03634.19382,2.66254,2.66254,0,0,0,.18776,1.01151c.09691.2241.109.315.06057.41187-.03634.06662-.09691.12114-.13325.12114-.0424,0-.01212.05451.06662.12719.07874.07874.12114.16354.09692.23016a1.83765,1.83765,0,0,0,.18776.61781c.2665.6178.315,1.0963.12719,1.28406-.07268.07269-.09085.13326-.05451.15748a.91852.91852,0,0,1,.18171.67838,1.47766,1.47766,0,0,0,.02423.95093.27243.27243,0,0,1,.03028.315.51738.51738,0,0,0,.03029.41792.67282.67282,0,0,1,.05451.41793,3.33855,3.33855,0,0,0-.01817.70866c.01211.29678.03028.70866.03634.90854a1.41041,1.41041,0,0,0,.0848.50878c.07268.12719.07268.16354-.0424.315a.76983.76983,0,0,0-.1272.52089,2.29016,2.29016,0,0,1-.15142.98728A3.64573,3.64573,0,0,0,1.8061,20.914a3.18635,3.18635,0,0,1-.109.848.50109.50109,0,0,0-.05451.24833,1.80184,1.80184,0,0,1-.103.48456,10.1137,10.1137,0,0,0-.40582,1.4476c-.01211.109-.03634.29679-.05451.41187-.02423.11508-.04846.33313-.06057.47849a.58034.58034,0,0,1-.0848.30285c-.04239.02423-.05451.16959-.03634.39976a1.7829,1.7829,0,0,1-.03634.8843,2.441,2.441,0,0,0-.03028.73289,2.57573,2.57573,0,0,1-.02423.70866c-.07874.12719.11508.4785.3937.7026.12114.09691.26045.218.3089.26651a1.82466,1.82466,0,0,0,1.26589.48455.33668.33668,0,0,1,.20594.00605,5.99172,5.99172,0,0,0,1.72622.06663c.24833-.06663.69654-.41187.69654-.533a1.41234,1.41234,0,0,1,.11509-.33313c.07268-.1817.09691-.30284.06056-.36341a.14592.14592,0,0,1,.01818-.18171.56792.56792,0,0,0,.08479-.321,2.64438,2.64438,0,0,1,.06663-.45426.65428.65428,0,0,0-.00606-.37553.57715.57715,0,0,1,.01817-.39976.79258.79258,0,0,0,.03634-.41792,3.72473,3.72473,0,0,1-.006-1.169,3.65334,3.65334,0,0,0-.01212-1.4476c-.05451-.05451-.06662-.16354-.04845-.33919a.85129.85129,0,0,0-.0848-.533.80957.80957,0,0,1-.0847-.515c.06057-.39976.06663-.40583.66626-.43.13931-.00606.22411-.06057.36342-.24835a1.90142,1.90142,0,0,1,.47849-.41791.7135.7135,0,0,0,.38765-.40583,3.97632,3.97632,0,0,1,.533-.963c.06057-.06663.212-.27862.33919-.4664a6.23567,6.23567,0,0,1,.55724-.69654,1.38291,1.38291,0,0,0,.33313-.45427,1.07516,1.07516,0,0,1,.3937-.66626c.08479-.03634.15142-.09085.15142-.11508a1.8531,1.8531,0,0,1,.27256-.38159,1.95,1.95,0,0,0,.27256-.39369.74536.74536,0,0,1,.14537-.23016,1.46645,1.46645,0,0,0,.33918-.66626,3.03846,3.03846,0,0,1,.533-.89642,1.596,1.596,0,0,0,.218-.40581.86159.86159,0,0,1,.212-.34525,3.94693,3.94693,0,0,0,.61781-.97516,1.22291,1.22291,0,0,1,.18776-.3089c.03029-.01817.03634-.07874.01817-.1272a.17361.17361,0,0,1,.0424-.17565c.06057-.05451.07268-.15142.04846-.321-.06057-.38765-.212-.62992-.44216-.69049s-.70866-.02423-.70866.05451c0,.03028-.06662.09085-.15141.12719a.38405.38405,0,0,0-.18172.1696,1.61935,1.61935,0,0,1-.56935.5754.266.266,0,0,0-.15142.1696c-.01817.09085-.14537.18776-.38764.29679a.881.881,0,0,0-.424.321c-.03634.0848-.09692.15748-.13326.15748-.03028.00606-.08479.01212-.12114.01817a.89682.89682,0,0,0-.24227.17565,1.02933,1.02933,0,0,1-.38764.23017,1.72226,1.72226,0,0,0-.51484.35735,1.22779,1.22779,0,0,0-.424.71472c-.13326.4785-.34525.92065-.43609.92065-.04846,0-.05452.0848-.0303.24228.0303.19382.01212.2665-.08479.36341a.23908.23908,0,0,0-.0848.20594.20272.20272,0,0,1-.09084.19382c-.09086.07873-.103.13324-.06057.212.05451.109.01817.29678-.06663.29678-.06057,0-.13931.212-.15142.41792a.34378.34378,0,0,1-.12114.22411.156.156,0,0,0-.07268.16354.2189.2189,0,0,1-.01817.16353.28822.28822,0,0,0,.00605.22411c.05452.14536-.03634.44215-.13931.44215a.94009.94009,0,0,0-.212.34525c-.16353.36947-.23016.44215-.38158.44215-.18777,0-.32708-.20593-.30891-.45427.04846-.64809.0424-.72683-.103-.86614-.07874-.07268-.12114-.15747-.103-.19382.01817-.03028-.00606-.12113-.05451-.19987a.40994.40994,0,0,1-.06057-.28468c.01817-.0848.0424-.20593.04845-.27256a1.70857,1.70857,0,0,1,.09691-.30285,1.28289,1.28289,0,0,0,.06663-.45426,4.54614,4.54614,0,0,1,.05451-1.1811.33277.33277,0,0,0-.04845-.32707c-.09691-.1696-.09691-.19383.01211-.47244a2.02576,2.02576,0,0,0,.16354-1.06,4.19529,4.19529,0,0,1,.02428-1.25988c.01818-.18171.03029-.38764.03635-.44821a.61808.61808,0,0,1,.06057-.23016,1.79491,1.79491,0,0,0,.09691-.49061c.04239-.53907.07874-1.08419.07874-1.23561a1.13906,1.13906,0,0,1,.09089-.33923,1.36412,1.36412,0,0,0,.0848-.44215c0-.13326.006-.33313.006-.44823.00606-.315.00606-1.04784-.006-1.68987a1.49089,1.49089,0,0,1,.05451-.60569c.0424-.02423.04845-.12114.01211-.29074a.78249.78249,0,0,1,0-.41187.9371.9371,0,0,0,.03634-.3513,1.33067,1.33067,0,0,1,.07878-.51478A2.24405,2.24405,0,0,0,6.2883,3.42759c-.03634-.23016-.103-.76922-.13325-1.12052-.03028-.44822-.0848-.87826-.13931-1.21139A1.36993,1.36993,0,0,0,5.85822.88975.59442.59442,0,0,1,5.7068.60507.17651.17651,0,0,0,5.59172.45971.78351.78351,0,0,1,5.3131.21744C5.192.0539,5.11322.00544,4.9618.00544A.59512.59512,0,0,0,4.68924.06Z"/>
   <path class="a"
         d="M10.43119,10.05991c-.07268.04846-.07268.06057.02423.0969a.19985.19985,0,0,0,.20593-.06056c.09086-.09085.09086-.09692-.01817-.09692A.413.413,0,0,0,10.43119,10.05991Z"/>

</g>
</svg>
