<?xml version="1.0" encoding="UTF-8"?>
<svg xmlns="http://www.w3.org/2000/svg"
     version="1.1"
     width="9.74143412mm"
     height="25.37905657mm"
     viewBox="0.00000000 0.00000000 27.61349905 71.94066121">

<g transform="scale(3.34122239)">   <defs>
      <style type="text/css"><![CDATA[
      .a {
        stroke: #000;
        stroke-linecap: round;
        stroke-linejoin: round;
        stroke-width: 0.01px;
      }
    ]]></style>
   </defs>
   <path class="a"
         d="M5.57564.0597a.60114.60114,0,0,1-.315.05451.45676.45676,0,0,0-.27859.05452,1.33085,1.33085,0,0,1-.61174.06662,2.19236,2.19236,0,0,0-.84191.103C2.94088.514,2.844.56851,2.71677.81685a.60364.60364,0,0,1-.27862.28467,1.87532,1.87532,0,0,0-.40581.24833,1.20114,1.20114,0,0,1-.28468.18777.0432.0432,0,0,0-.04813.03763L1.69921,1.58c.03028.1817-.07268.3089-.78134.99939a1.47446,1.47446,0,0,0-.315.38764,1.33515,1.33515,0,0,1-.26651.38158.92374.92374,0,0,0-.3089.76923c-.05451.527-.0424.53907.41793.75106l.23622.109.20593-.15748a.93935.93935,0,0,0,.23622-.2665.60655.60655,0,0,1,.212-.23622.97243.97243,0,0,0,.26651-.30285.765.765,0,0,1,.26045-.26044,4.25055,4.25055,0,0,0,.59963-.5209c.35736-.36341.44821-.424.54512-.37553a.412.412,0,0,0,.26045.03029.53428.53428,0,0,1,.37553.12719,1.50142,1.50142,0,0,0,.44821.19383c.218.04239.44821.20593.44821.32707,0,.05451-.12719.20593-.73894.854a2.35541,2.35541,0,0,0-.23017.3513.92058.92058,0,0,1-.23621.30891.33025.33025,0,0,0-.15748.1817.49159.49159,0,0,1-.218.212.85164.85164,0,0,0-.3513.69654A2.22836,2.22836,0,0,1,2.3776,7.013a.34642.34642,0,0,0-.02422.33314,2.462,2.462,0,0,1,.109,1.066.16611.16611,0,0,0,.01817.18171,2.11112,2.11112,0,0,1,.07874.65414c.01817.51484.03634.6057.18171.81163a.62821.62821,0,0,1,.13931.47244,2.3985,2.3985,0,0,0,.1817.98728.56824.56824,0,0,1,.02423.43609c-.05451.212-.04845.24834.0848.38159a.29833.29833,0,0,1,.09691.36341,1.45525,1.45525,0,0,0,.01211.50878c.03029.15748.06663.45427.0848.65415.0424.56935.0848.71472.27862.92671.11508.13325.16353.24227.13931.315a.37023.37023,0,0,0,.05451.25439c.06057.09691.07268.16959.03634.23016a.94607.94607,0,0,0,.13325.72683.98738.98738,0,0,1,.1272.848c-.07874.109-.07269.13931.06662.3089.09086.103.14537.212.12114.24228a1.33052,1.33052,0,0,0-.01817.67231,2.6924,2.6924,0,0,1,.0848.60569,6.21316,6.21316,0,0,0,.11508,1.09025.48033.48033,0,0,1-.07874.43l-.1272.20593.16354.30285a.881.881,0,0,0,.68443.50272.83269.83269,0,0,0,.70866-.33919c.11508-.12113.23016-.19382.27862-.16959.11508.0424.66626-.52089,1.57479-1.599.25439-.30285.45427-.79346.38159-.9146-.01817-.02422.00606-.103.04845-.16353.07269-.09691.07269-.13931,0-.27256-.07268-.14537-.06662-.18171.03029-.30285.11508-.15142.11508-.23622.03634-1.35675-.01211-.23622-.03028-.47849-.03028-.54512a3.37883,3.37883,0,0,0-.09691-.4361,3.27884,3.27884,0,0,1-.11509-.58146A3.41391,3.41391,0,0,0,7.8712,14.348a4.99653,4.99653,0,0,1-.15142-.751,1.61254,1.61254,0,0,0-.09086-.36948,1.99629,1.99629,0,0,1-.08479-.45426,2.62049,2.62049,0,0,0-.12114-.58752,1.4686,1.4686,0,0,1-.09691-.48456,1.85047,1.85047,0,0,0-.06057-.46638.44235.44235,0,0,1,0-.3089c.03634-.07268.01817-.20594-.06057-.43a1.97463,1.97463,0,0,1-.12114-.48455,1.0826,1.0826,0,0,0-.08475-.36354,1.91278,1.91278,0,0,1-.09089-.4906,1.1709,1.1709,0,0,0-.06057-.39975,1.55369,1.55369,0,0,1-.08479-.4361,2.35517,2.35517,0,0,0-.12114-.54515,4.07155,4.07155,0,0,1-.26045-1.05391A6.54851,6.54851,0,0,0,6.26005,6.056a4.69778,4.69778,0,0,1-.109-.49061,1.0122,1.0122,0,0,0-.11508-.315c-.20592-.38154-.15143-.539.36947-1.04174.25439-.25439.56935-.57541.69049-.72078.14536-.16959.25439-.24227.315-.218.05451.01818.09691.00606.09691-.03028a.99212.99212,0,0,1,.24833-.32707,2.51954,2.51954,0,0,0,.38764-.60569c.1272-.321.13325-.36342.05451-.59358A1.35741,1.35741,0,0,0,7.4654.89556,1.17135,1.17135,0,0,1,7.05353.56243,1.24055,1.24055,0,0,0,6.21767.1445.72644.72644,0,0,1,5.94511.0597.33931.33931,0,0,0,5.57564.0597Z"/>

</g>
</svg>
