<?xml version="1.0" encoding="UTF-8"?>
<svg xmlns="http://www.w3.org/2000/svg"
     version="1.1"
     width="19.47649567mm"
     height="18.81000773mm"
     viewBox="0.00000000 0.00000000 55.20896873 53.31966031">

<g transform="scale(3.67920472)">   <defs>
      <style type="text/css"><![CDATA[
      .a {
        stroke: #000;
        stroke-linecap: round;
        stroke-linejoin: round;
        stroke-width: 0.01px;
      }
    ]]></style>
   </defs>
   <path class="a"
         d="M10.3017.13821c-.09691.18777-.18171.23016-.29679.1696a1.07236,1.07236,0,0,0-.87828.13325,2.0434,2.0434,0,0,1-.5451.1999c-.23622.02422-.636.19382-.636.27256a2.2347,2.2347,0,0,1-.90248.54512.30574.30574,0,0,0-.218.09691.33537.33537,0,0,1-.22411.11508,2.69618,2.69618,0,0,0-.80556.38159,2.693,2.693,0,0,0-.26045.17565.28226.28226,0,0,1-.15142.07874A1.18282,1.18282,0,0,0,5.0322,2.561a4.15129,4.15129,0,0,1-.78134.65414,3.09841,3.09841,0,0,0-.46638.39976,4.95662,4.95662,0,0,1-.642.55118,1.03624,1.03624,0,0,0-.32707.34524.70886.70886,0,0,1-.23622.28468,1.737,1.737,0,0,0-.59964.94487c.03029.13326-.03028.218-.27256.38159a1.18274,1.18274,0,0,0-.35736.62386c.01817.16354-.01211.23016-.218.44821a.87737.87737,0,0,0-.212.3089,2.68374,2.68374,0,0,1-.08479.36948A3.70139,3.70139,0,0,0,.647,9.09638a.70572.70572,0,0,1-.23016.62386,1.07779,1.07779,0,0,0-.218.56935,8.89626,8.89626,0,0,0-.15748,1.29618l-.03634.533.24223.44219c.19987.35736.27256.44216.40581.45427a1.49745,1.49745,0,0,1,.44215.16354,1.94008,1.94008,0,0,0,.43.17565,2.61025,2.61025,0,0,1,.3513.09691.47512.47512,0,0,0,.36342.01211,4.02641,4.02641,0,0,1,.46638-.12719c.75106-.15748.88431-.19382.98728-.28468.05451-.04845.19382-.16959.3089-.27256l.19988-.17565.23622.13326a2.35624,2.35624,0,0,1,.51483.50878,1.417,1.417,0,0,0,.59358.533.94232.94232,0,0,0,.4361.12114,1.047,1.047,0,0,1,.47244.15142c.24833.12114.3937.16354.46032.1272a.193.193,0,0,1,.18171,0,.21884.21884,0,0,0,.16354.01817.37983.37983,0,0,1,.24833.07874,2.89849,2.89849,0,0,0,1.0115.212,5.24291,5.24291,0,0,0,1.42338-.18776.942.942,0,0,1,.41793-.09086,3.52374,3.52374,0,0,0,1.34463-.50878c.212-.13325.50272-.30284.64809-.37552a.72381.72381,0,0,0,.25439-.17566c0-.03028.05451-.06662.11508-.09085a.53535.53535,0,0,0,.24228-.43c-.02423-.13931.02422-.19988.23622-.28467.25439-.103.36947-.212.40581-.3937a1.441,1.441,0,0,1,.321-.41793,2.031,2.031,0,0,0,.37552-.49061.67231.67231,0,0,1,.14537-.24228,2.40526,2.40526,0,0,0,.34524-1.0115,6.249,6.249,0,0,1,.07874-1.3628c.09691-.62387.103-.72078.04846-.8298A.21653.21653,0,0,1,14.917,7.3763a2.22756,2.22756,0,0,0,.04846-.99939,3.31127,3.31127,0,0,1-.0848-.58752,3.51574,3.51574,0,0,0-.14537-1.0539.6078.6078,0,0,1-.06662-.24834,1.38263,1.38263,0,0,0-.15142-.424,1.3288,1.3288,0,0,1-.15143-.44821.17964.17964,0,0,0-.11508-.18777.26.26,0,0,1-.15748-.15142.53158.53158,0,0,0-.17565-.2241,1.48912,1.48912,0,0,1-.24833-.29074,2.30389,2.30389,0,0,0-.25439-.315.42939.42939,0,0,1-.13931-.23621,1.58146,1.58146,0,0,0-.46033-.71472,1.02607,1.02607,0,0,1-.218-.2665A5.47451,5.47451,0,0,0,11.74324.32a.90165.90165,0,0,1-.2241-.25439c0-.03634-.24228-.06057-.57541-.06057C10.41072.005,10.36832.01707,10.3017.13821Zm-2.871,3.11325a.7729.7729,0,0,1,.23016.23622,5.07948,5.07948,0,0,0,.87826.79346.17538.17538,0,0,1,.03028.09691A.72063.72063,0,0,0,8.91463,4.79c.1696.09085.23622.16354.46033.50272a1.593,1.593,0,0,0,.38764.3937.905.905,0,0,1,.27862.27256.48955.48955,0,0,0,.23016.20594.82477.82477,0,0,1,.34525.36947,2.35647,2.35647,0,0,0,.2241.36947.184.184,0,0,1,.04846.16959c-.03634.09691.24227.62387.33313.62387a.58271.58271,0,0,1,.13331.28468,3.72679,3.72679,0,0,0,.3089.66626,2.79919,2.79919,0,0,1,.218.41793.43758.43758,0,0,0,.103.15748.58469.58469,0,0,1,.12114.3089,4.09488,4.09488,0,0,0,.06662.46638c.07268.41187-.06057.70866-.35736.7874-.2241.06057-.53906-.01211-.53906-.1272a2.46435,2.46435,0,0,0-.38764-.43,3.30062,3.30062,0,0,0-.76317-.636,1.17506,1.17506,0,0,1-.424-.58752c-.15142-.34525-.24227-.47244-.37553-.527a.50486.50486,0,0,1-.24227-.19988,6.16259,6.16259,0,0,0-.76317-.86614c-.19988-.19382-.20594-.19988-.41793-.109a.59428.59428,0,0,1-.321.06057c-.06057-.01817-.17565.04239-.29073.15142a.69307.69307,0,0,1-.315.18171.65707.65707,0,0,0-.32707.20593,5.54045,5.54045,0,0,1-.6602.48455c-.36342.23017-.48456.33919-.58752.55118a1.4797,1.4797,0,0,1-.27862.40582.48143.48143,0,0,0-.14539.24221.341.341,0,0,1-.07268.18171c-.35736.38764-.38159.43-.40581.66626a.46131.46131,0,0,1-.15748.14537.28076.28076,0,0,1-.33313.02422c-.103-.0424-.18777-.09691-.18777-.12719a2.67765,2.67765,0,0,0-.11508-.41793,2.37153,2.37153,0,0,1-.09691-.45427,2.62711,2.62711,0,0,0-.0424-.33313c-.01211-.08479-.04845-.26044-.07268-.3937a1.47914,1.47914,0,0,0-.09691-.33918.19917.19917,0,0,1,.00606-.17565.18964.18964,0,0,0-.00606-.18777.16319.16319,0,0,1,.0424-.20593A.31047.31047,0,0,0,3.5058,7.673a.48393.48393,0,0,1,.04846-.321,3.54567,3.54567,0,0,0,.24837-1.1508c-.03634-.0848.15142-.321.6602-.84191a5.66274,5.66274,0,0,0,.41187-.47244,3.23769,3.23769,0,0,1,.49061-.44821c.20594-.15748.36948-.315.35736-.3513-.03634-.103.16354-.27862.26651-.24228.109.0424.62386-.17565.62386-.26045a1.28863,1.28863,0,0,1,.6178-.36947A.77242.77242,0,0,1,7.43072,3.25146Z"/>
   <path class="a"
         d="M11.51914,10.02309a.09567.09567,0,0,0,.09441.09691h.0025c.05451,0,.08479-.03028.07268-.07268C11.65239,9.93829,11.51914,9.92012,11.51914,10.02309Z"/>

</g>
</svg>
