<?xml version="1.0" encoding="UTF-8"?>
<svg xmlns="http://www.w3.org/2000/svg"
     version="1.1"
     width="18.05865929mm"
     height="16.02044888mm"
     viewBox="0.00000000 0.00000000 51.18983168 45.41239687">

<g transform="scale(6.18595529)">   <defs>
      <style type="text/css"><![CDATA[
      .a {
        stroke: #000;
        stroke-linecap: round;
        stroke-linejoin: round;
        stroke-width: 0.01px;
      }
    ]]></style>
   </defs>
   <path class="a"
         d="M6.244.05081a1.949,1.949,0,0,1-.82979.103A.63722.63722,0,0,0,5.1416.27492,2.07139,2.07139,0,0,1,4.57831.499a1.81,1.81,0,0,0-.48455.17567,1.36722,1.36722,0,0,1-.60569.27256.57878.57878,0,0,0-.3089.18776c-.09692.103-.19988.16354-.23622.14537A5.73434,5.73434,0,0,0,1.79213,2.40089a.93892.93892,0,0,1-.25439.218,2.03272,2.03272,0,0,0-.79345.88431,2.614,2.614,0,0,0-.16354.38764,4.82062,4.82062,0,0,1-.28467.533L.0114,4.90846l-.00606.67231c-.006.73292.06666,1.00545.30891,1.10842a.351.351,0,0,1,.16959.1817c.04846.13931.36341.24228.8298.27862a1.72594,1.72594,0,0,1,.45427.07874,2.25841,2.25841,0,0,0,.59963.0424,5.55731,5.55731,0,0,1,.77528.0424.98187.98187,0,0,0,.424,0,.30027.30027,0,0,1,.23016,0,1.079,1.079,0,0,0,.51484-.07874,2.80574,2.80574,0,0,1,.46638-.12114c.03028.01211.12114-.03634.19988-.103a.32457.32457,0,0,1,.23622-.09085,3.80029,3.80029,0,0,0,1.169-.57541,1.80253,1.80253,0,0,0,.16354-.29679c.04845-.103.11508-.19382.14536-.19382.11508,0,.37553-.33918.59358-.76922A8.49888,8.49888,0,0,0,7.946,3.52142c.01212-.103.05452-.37553.09086-.60569a7.91711,7.91711,0,0,0,.07874-.79951A2.15222,2.15222,0,0,1,8.20645,1.565c.1272-.3089.06663-.50272-.20593-.642A.77127.77127,0,0,1,7.64916.56569.451.451,0,0,0,7.3766.3052,2.25655,2.25655,0,0,1,6.97079.13561.84729.84729,0,0,0,6.244.05081Zm-1.496,1.484c.14536.14536.212.16959.5754.17565.22411.006.46638.01211.533.01817a.87562.87562,0,0,1,.38764.27862c.36342.37552.47244.72682.527,1.69593a3.44656,3.44656,0,0,1-.12719.45427,1.75012,1.75012,0,0,1-.39985.66624,2.85446,2.85446,0,0,0-.32707.40581c-.103.20594-.7026.58147-.854.533a.27249.27249,0,0,1-.14536-.44215,1.35529,1.35529,0,0,0-.3513-1.5324c-.51484-.38765-.642-.3937-.89037-.01817a1.18942,1.18942,0,0,0-.18776.36341,1.07686,1.07686,0,0,1-.27256.35736c-.25439.24228-.27256.28467-.26651.55723a2.00671,2.00671,0,0,0,.05451.41793.31715.31715,0,0,1-.1817.38764c-.0848.0424-.19382.01817-.4785-.12113a1.87575,1.87575,0,0,0-.44828-.18173.44487.44487,0,0,1-.19988-.0848.36455.36455,0,0,0-.24833-.06057.26285.26285,0,0,1-.25439-.09085.38629.38629,0,0,1-.0545-.50878.897.897,0,0,0,.08479-.25439c.09086-.56935.13931-.66626.43-.93882A4.4,4.4,0,0,1,2.198,3.19435a.8299.8299,0,0,0,.3089-.27256,2.7738,2.7738,0,0,1,.98122-.98728,1.08372,1.08372,0,0,0,.33313-.16959,3.41561,3.41561,0,0,1,.71471-.3937.70136.70136,0,0,1,.21195.16354Z"/>

</g>
</svg>
