<?xml version="1.0" encoding="UTF-8"?>
<svg xmlns="http://www.w3.org/2000/svg"
     version="1.1"
     width="11.68077595mm"
     height="42.64065822mm"
     viewBox="0.00000000 0.00000000 33.11081894 120.87122033">

<g transform="scale(3.67920472)">   <defs>
      <style type="text/css"><![CDATA[
      .a {
        stroke: #000;
        stroke-linecap: round;
        stroke-linejoin: round;
        stroke-width: 0.01px;
      }
    ]]></style>
   </defs>
   <path class="a"
         d="M3.63309.05353a1.87152,1.87152,0,0,1-.321.05451C3.088.1141,2.86386.34426,2.60344.82881a1.27482,1.27482,0,0,1-.315.41187.1471.1471,0,0,0-.109.12114.38057.38057,0,0,1-.103.19382,4.93862,4.93862,0,0,0-.36342.4361c-.13931.18171-.29073.37553-.33313.424-.12719.15143-.29679.424-.26045.424a1.59152,1.59152,0,0,1-.17565.40581c-.11508.23016-.2241.47244-.24833.54512C.67729,3.86941.62883,3.93.59855,3.93s-.05448.04847-.05448.115a.808.808,0,0,1-.18171.33919,1.538,1.538,0,0,0-.24228.46033C.08374,4.9778.02923,5.08076.005,5.08076a2.1915,2.1915,0,0,0,.22411.96305.32132.32132,0,0,1,.0424.29679.76663.76663,0,0,0,.06057.44216c.07268.15748.08479.25439.04239.32707-.04239.07874-.02422.13931.06057.22411a.42539.42539,0,0,1,.103.33918,3.0654,3.0654,0,0,0,.4361,1.19927c.09691.15748.103.19988.03028.29679-.06662.09691-.06662.14536.01212.32707a2.3134,2.3134,0,0,1,.109.58147,2.64465,2.64465,0,0,0,.0848.5754,3.818,3.818,0,0,1,.12719.60569c.09691.72683.16354,1.1811.23016,1.47789a.88885.88885,0,0,1,.03635.33919.68348.68348,0,0,0,.06057.30284,2.01388,2.01388,0,0,1,.09085.54512,3.17021,3.17021,0,0,0,.07268.61175,3.48974,3.48974,0,0,1,.02423,1.23561,2.93336,2.93336,0,0,0,.03634.7874,3.37906,3.37906,0,0,1,.0848.46032.8546.8546,0,0,0,.109.36948.92842.92842,0,0,1,.06057.78739.59327.59327,0,0,0-.01817.40582.442.442,0,0,1,.01211.29073,2.35061,2.35061,0,0,0,.01212.92671,12.83687,12.83687,0,0,1,.03028,1.4476A1.2219,1.2219,0,0,0,2.24,21.713a4.78256,4.78256,0,0,1,.09691,1.12659c.01212.5754.02423,1.08418.02423,1.12052v.212c0,.07874.00606.23621.01211.3513,0,.11508-.01211.41792-.03634.66626a7.83884,7.83884,0,0,0,.01817,1.811c.05452.103.06663.19382.06663.55118.00606.94488.02423,1.066.23016,1.2659.18777.18776.22411.2665.19382.39975a2.94136,2.94136,0,0,0-.05451,1.02968,2.079,2.079,0,0,0,.81768.81768c.26045,0,.43.25439.39976.60569-.01211.1272.11508.424.17565.424a.84359.84359,0,0,1,.24833.17565,1.72234,1.72234,0,0,0,.75106.30285,7.09045,7.09045,0,0,1,.76317.212.67444.67444,0,0,0,.53907.01212,2.72512,2.72512,0,0,0,1.07207-.5633.611.611,0,0,1,.19988-.13931c.03028,0,.109-.109.16959-.23622a1.48014,1.48014,0,0,1,.20594-.315,2.28882,2.28882,0,0,0,.43607-.84193.58724.58724,0,0,1,.0848-.26044.37889.37889,0,0,0,.06663-.22411.60629.60629,0,0,1,.09085-.28467,2.48227,2.48227,0,0,0,.15142-.84191c.04846-.58147.0424-.73289-.03028-.87826a.76225.76225,0,0,1-.09086-.25439,3.3059,3.3059,0,0,0-.25436-.56322,2.72669,2.72669,0,0,1-.2665-.62992,5.1553,5.1553,0,0,0-.19988-.66626,4.2907,4.2907,0,0,1-.18776-.60569.88891.88891,0,0,0-.212-.321c-.12114-.13326-.19383-.26045-.1696-.315.03634-.09691-.03634-.30891-.26044-.78135a.92782.92782,0,0,1-.11509-.33918,2.76089,2.76089,0,0,0,.03029-.93882,1.28772,1.28772,0,0,1-.15142-.3513.64241.64241,0,0,1-.03029-.49061c.04846-.13931.03634-.24228-.06057-.5209a1.86369,1.86369,0,0,1-.11508-.55118,3.22684,3.22684,0,0,0-.03634-.50878c-.02423-.16959-.04846-.38764-.05451-.48455a1.1634,1.1634,0,0,0-.06057-.315.46478.46478,0,0,1,.05451-.321.28323.28323,0,0,0,.03028-.30284,1.06969,1.06969,0,0,1-.06662-.37553,6.30483,6.30483,0,0,0-.07874-1.1811.514.514,0,0,1,.05451-.37553c.06663-.13325.07874-.218.03634-.29678a2.13012,2.13012,0,0,1-.09085-.55118,2.22259,2.22259,0,0,0-.103-.5633,2.25157,2.25157,0,0,1,.03634-1.01756c.01212-.11508.02423-.25439.02423-.30284s0-.28468.00606-.51484c.00605-.49667.00605-.44821,0-1.1811-.00606-.315.01211-.751.03028-.9691a5.46279,5.46279,0,0,0-.01211-1.66565A4.07737,4.07737,0,0,0,6.27386,8.939a1.2529,1.2529,0,0,1-.08479-.55724,5.968,5.968,0,0,0-.06057-.81768,1.29666,1.29666,0,0,1-.00606-.49063.62325.62325,0,0,0,0-.30285,1.80778,1.80778,0,0,1-.02419-.44815A3.465,3.465,0,0,0,6.074,5.23221.44942.44942,0,0,1,6.068,4.90513a1.179,1.179,0,0,0,.02423-.80556,1.83114,1.83114,0,0,1-.11508-.46033,1.69475,1.69475,0,0,0-.18777-.52089,1.23335,1.23335,0,0,1-.15748-.47244.48079.48079,0,0,0-.06662-.27256,1.02928,1.02928,0,0,1-.1272-.50273A.31331.31331,0,0,0,5.3472,1.701a.293.293,0,0,1-.07876-.16358.19159.19159,0,0,0-.09086-.13931A.33637.33637,0,0,1,5.05044,1.168,1.26862,1.26862,0,0,0,4.87476.78036a1.96309,1.96309,0,0,1-.18171-.3513A.70435.70435,0,0,0,4.35992.14438.80258.80258,0,0,0,3.63309.05353Z"/>

</g>
</svg>
