<?xml version="1.0" encoding="UTF-8"?>
<svg xmlns="http://www.w3.org/2000/svg"
     version="1.1"
     width="42.87447821mm"
     height="83.07956429mm"
     viewBox="0.00000000 0.00000000 121.53393399 235.50107329">

<g transform="scale(3.90776186)">   <defs>
      <style type="text/css"><![CDATA[
      .a {
        stroke: #000;
        stroke-linecap: round;
        stroke-linejoin: round;
        stroke-width: 0.01px;
      }
    ]]></style>
   </defs>
   <path class="a"
         d="M16.90988.07842a.55121.55121,0,0,1-.20594.13325,2.33268,2.33268,0,0,0-.44821.27862c-.315.24228-.37553.3513-.53907,1.04785-.02422.09691-.05451.2241-.07268.27256-.01211.04845-.03028.16959-.0424.27256a1.69387,1.69387,0,0,1-.11508.39975,1.79753,1.79753,0,0,0-.09085.54513c0,.1817-.01817.46032-.03634.62991a10.31846,10.31846,0,0,0-.0848,1.10236,3.938,3.938,0,0,1-.12114,1.0963.64654.64654,0,0,0-.02423.29073.61442.61442,0,0,1-.2241.50879.471.471,0,0,0-.13931.32707A3.37717,3.37717,0,0,1,14.38414,8.013c-.103.212-.12719.32708-.08479.39976a.38683.38683,0,0,1-.00606.29679.51684.51684,0,0,0-.03634.2665.59517.59517,0,0,1-.109.3089.5569.5569,0,0,0-.109.315.38561.38561,0,0,1-.07874.25439.99721.99721,0,0,0-.12719.424,1.23242,1.23242,0,0,1-.1272.46032,2.27389,2.27389,0,0,0-.23016.62386,1.005,1.005,0,0,1-.13931.25439.62823.62823,0,0,0-.1272.24834.539.539,0,0,1-.07268.19988.89911.89911,0,0,0-.07874.24833.65518.65518,0,0,1-.19988.29073.63242.63242,0,0,0-.19382.22411.60706.60706,0,0,1-.12719.20593.86686.86686,0,0,0-.14537.29073,1.11888,1.11888,0,0,1-.30284.36947,2.52683,2.52683,0,0,0-.43.50879c-.0848.14536-.18171.2665-.212.2665a1.04691,1.04691,0,0,0-.24227.33313,1.8296,1.8296,0,0,1-.26651.38158,1.76045,1.76045,0,0,0-.27256.38765,1.044,1.044,0,0,1-.24833.3513c-.03029,0-.109.11508-.1696.25439a1.18825,1.18825,0,0,1-.24833.38158,1.74672,1.74672,0,0,0-.27862.3937,3.69,3.69,0,0,1-.52695.75712.96891.96891,0,0,0-.16959.27256,5.30155,5.30155,0,0,1-.4361.636c-.18776.23017-.40581.50273-.48455.60569a4.96262,4.96262,0,0,0-.33919.533,1.56173,1.56173,0,0,1-.34524.44216.50977.50977,0,0,0-.17565.19382,2.24822,2.24822,0,0,1-.33313.43609,1.02964,1.02964,0,0,0-.27862.40582c.03028.07874.00606.11508-.67232.83585a6.839,6.839,0,0,0-1.04793,1.47176,2.00084,2.00084,0,0,1-.3513.424,3.92556,3.92556,0,0,0-.54513.72683,1.13339,1.13339,0,0,1-.26044.38159.4685.4685,0,0,0-.27256.11508.92842.92842,0,0,0-.23017.28467c-.05451.109-.12719.19988-.15142.19988-.03028,0-.12114.103-.19382.22411a5.49337,5.49337,0,0,1-.49061.61175,2.42978,2.42978,0,0,0-.35736.43609c-.006.03635-.01817.0848-.02423.12114-.00605.03029-.01817.0848-.02422.109a1.10872,1.10872,0,0,1-.315.24833c-.37553.24833-.84191.71472-.84191.848,0,.09691-.06663.212-.39976.69049-.13931.19382-.17565.29678-.13325.36341.03634.06663.01817.13325-.05451.20593a.975.975,0,0,0-.26045.59358c0,.11508.0424.15748.16959.18777.64809.1393.7874.20593,1.00545.47849.25439.3089.32707.32708.62386.14537a.52611.52611,0,0,1,.38159-.09691,2.43664,2.43664,0,0,0,.64809-.0424,1.67009,1.67009,0,0,1,.56329-.03634,3.17872,3.17872,0,0,0,.72683.03634,2.24518,2.24518,0,0,0,.92065-.13931.6809.6809,0,0,1,.3089-.09691.65312.65312,0,0,0,.26651-.09691c.15748-.07874.2665-.09691.32707-.06663.109.07269.34524.01212.55723-.13325a.83128.83128,0,0,1,.24228-.13325,1.16535,1.16535,0,0,0,.212-.0848.261.261,0,0,1,.19382-.0424.36311.36311,0,0,0,.23017-.05451.33825.33825,0,0,1,.24833-.0424,1.16874,1.16874,0,0,0,.80557-.13325.2915.2915,0,0,1,.2241-.07874c.03635.02423.1272,0,.19988-.04845a1.85255,1.85255,0,0,1,.50273-.1272A1.56605,1.56605,0,0,0,9.84146,29.4c.09691-.07268.13931-.07268.28468.00606.09691.04845.1817.12114.18776.16354,0,.03634.01211.13931.02423.2241a1.786,1.786,0,0,0,.25439.75712.31354.31354,0,0,1,.09691.1817.11447.11447,0,0,0,.11831.11049l.01494-.00149a4.40593,4.40593,0,0,1,1.28407.2241c.36341.13931.56935.15143.751.05452a1.00316,1.00316,0,0,1,.27862-.09086.38963.38963,0,0,0,.212-.11508,1.39675,1.39675,0,0,1,.75106-.24833.68525.68525,0,0,0,.29679-.09086,1.28476,1.28476,0,0,1,.69049-.14536,2.48056,2.48056,0,0,0,.68443-.17565,1.72568,1.72568,0,0,1,.60569-.15748,1.46965,1.46965,0,0,0,.527-.13325c.15142-.07269.36341-.17566.4785-.22411.11508-.05451.38764-.212.60569-.3513a2.53257,2.53257,0,0,1,.44821-.26045,1.215,1.215,0,0,0,.27256-.15142.60076.60076,0,0,1,.40581-.12114c.103.01211.19988.02423.22411.02423a.298.298,0,0,1,.109.12719.4445.4445,0,0,1-.23622.51484.799.799,0,0,0-.3089.50878,1.50949,1.50949,0,0,1-.37553.64809,1.4192,1.4192,0,0,1-.32707.22411,3.1013,3.1013,0,0,0-.5209.43,2.29951,2.29951,0,0,1-.38764.33918c-.03028,0-.109.0848-.17565.18777a.94907.94907,0,0,1-.29073.27256.6042.6042,0,0,0-.23622.24228,1.38413,1.38413,0,0,1-.40581.36946,2.36737,2.36737,0,0,0-.83586.88432.5347.5347,0,0,1-.26044.24227.39011.39011,0,0,0-.218.17565,1.1827,1.1827,0,0,1-.33313.321,1.26078,1.26078,0,0,0-.29679.2665,3.16479,3.16479,0,0,1-.36342.4361,1.36319,1.36319,0,0,0-.39975.59963,1.85664,1.85664,0,0,1-.19382.47243,1.775,1.775,0,0,0-.218,1.06,1.89814,1.89814,0,0,1-.06057.50878c-.01817.01817-.00606.07269.03028.12114a1.56433,1.56433,0,0,1,.07874.58146,1.1945,1.1945,0,0,0,.13931.70261.40845.40845,0,0,1,.07874.36341.46271.46271,0,0,0-.01211.23622.74579.74579,0,0,1-.07874.315.70179.70179,0,0,0-.06057.46638,5.37512,5.37512,0,0,1,.11508.80557,3.57613,3.57613,0,0,0,.18776.72683c.0848.24833.1696.49667.17566.54512.01211.04845.03634.16354.06662.25439a4.67115,4.67115,0,0,1,.109.92671,1.56175,1.56175,0,0,0,.08479.4906,2.09364,2.09364,0,0,1,.06057.92671,1.16842,1.16842,0,0,0,.05451.424,1.93218,1.93218,0,0,1,.0848.46033.83792.83792,0,0,0,.103.39369.9885.9885,0,0,1,.11508.49061,1.25168,1.25168,0,0,0,.109.49061.802.802,0,0,1,.0848.41187,2.17042,2.17042,0,0,0,.02423.3937.3956.3956,0,0,1-.03029.24834c-.04239.103-.02422.16959.07269.30284a.36638.36638,0,0,1,.07874.35736.81594.81594,0,0,0-.01212.36341,1.88565,1.88565,0,0,1,.01817.424,1.69042,1.69042,0,0,0,.03029.69049.64587.64587,0,0,1,0,.40581c-.04846.103-.03029.23622.08479.58146a3.35111,3.35111,0,0,1,.16354.61175,1.18072,1.18072,0,0,0,.1272.40581c.09691.18777.109.27256.06057.35736a.74516.74516,0,0,0-.06057.26045,2.75174,2.75174,0,0,1-.03029.3513,1.83885,1.83885,0,0,0-.02423.52695.70244.70244,0,0,1-.03028.212c-.03634.13326,0,.24833.16959.56329a1.13032,1.13032,0,0,1,.18171.46033,9.42633,9.42633,0,0,0-.01211,1.811,1.70249,1.70249,0,0,1,.05451.33313,3.3721,3.3721,0,0,1-.12114.89036.71759.71759,0,0,0-.03028.36342.46571.46571,0,0,1-.04846.50878.26284.26284,0,0,0-.07874.212.99758.99758,0,0,1,.05451.33919c.01212.25439.13325.44215.28468.44215a1.7508,1.7508,0,0,0,.46032-.58752c-.01817-.01817.01817-.13325.09086-.2665a2.00414,2.00414,0,0,0,.20593-.89643,1.81093,1.81093,0,0,1,.09086-.44215,1.65591,1.65591,0,0,0,.09691-.93882,1.05046,1.05046,0,0,1,.07874-.4785.745.745,0,0,0,.05451-.46638.44641.44641,0,0,1,.006-.28468,1.02907,1.02907,0,0,0,.07874-.3089,1.13846,1.13846,0,0,1,.15143-.41187c.109-.18171.11508-.218.0424-.3937a.659.659,0,0,1-.02423-.44821,1.03051,1.03051,0,0,0,.01817-.39975.42046.42046,0,0,1,.03634-.27257,2.31773,2.31773,0,0,0,.0848-.59963,1.75658,1.75658,0,0,1,.11508-.65415.32858.32858,0,0,0,.0424-.2665.1533.1533,0,0,1-.01212-.15142A4.58615,4.58615,0,0,0,17.14,50.88378a6.16673,6.16673,0,0,1,.16354-1.43548,2.05833,2.05833,0,0,0,.03028-.29074,5.86346,5.86346,0,0,1,.05451-1.10235.26705.26705,0,0,0-.04845-.19383,3.29715,3.29715,0,0,1-.109-.81768c-.01817-.37553-.0424-.79345-.06057-.92671-.01211-.13325-.02422-.28467-.02422-.33312a2.83688,2.83688,0,0,0,0-.32707.82541.82541,0,0,1,.09085-.38158c.09085-.13326.0848-.15748-.03029-.30285a.585.585,0,0,1-.12113-.29679c0-.07874-.02423-.14536-.06057-.14536-.12114,0-.17565-.218-.11508-.44216a.38682.38682,0,0,0-.03029-.36342.33681.33681,0,0,1-.0424-.315.46145.46145,0,0,0-.03634-.35736,2.254,2.254,0,0,1-.13931-.82374,1.83642,1.83642,0,0,0-.109-.98122c-.11508-.218-.11508-.23016,0-.56329l.11508-.33919-.15142-.2968a.633.633,0,0,1-.09086-.54512.80771.80771,0,0,0-.01211-.46638.43473.43473,0,0,1-.03029-.24228c.01818-.01816.00606-.08478-.02422-.14535a.2828.2828,0,0,1,.006-.26045c.06057-.13325.04846-.17565-.09085-.33919a1.06011,1.06011,0,0,1-.15748-.23016c0-.02424.03029-.22411.06057-.44215a1.14257,1.14257,0,0,0-.05451-.70866.90659.90659,0,0,1-.0848-.3392c.01211-.01211,0-.0848-.03635-.15142-.07267-.13326.01817-.3937.212-.61781.06057-.06662.07874-.22409.06663-.56329-.02423-.45426-.01817-.47243.19988-.78134a2.36921,2.36921,0,0,1,.55117-.5209,6.627,6.627,0,0,0,.66021-.49061,4.224,4.224,0,0,1,.59963-.43,3.62043,3.62043,0,0,0,.78134-.62992c.03635-.03634.37553-.37552.75107-.76317a4.9046,4.9046,0,0,1,.98122-.848,2.832,2.832,0,0,0,.52088-.35736c.61175-.58146.78134-.72683.84191-.72683.03635,0,.06663-.0424.06663-.09085a.51585.51585,0,0,1,.16959-.26045.63726.63726,0,0,0,.19988-.58752c0-.35736-.01211-.41793-.07874-.50272a1.81548,1.81548,0,0,1-.13324-.51484l-.06663-.4361-.212-.01211c-.11508-.00606-.46638-.03029-.77528-.04846l-.5633-.0424-.27256.23017a1.49164,1.49164,0,0,1-.64809.30284,2.52381,2.52381,0,0,0-1.22349.46642,1.52731,1.52731,0,0,1-.36342.22411.56618.56618,0,0,0-.23622.12719.93845.93845,0,0,1-.31495.15143,1.31914,1.31914,0,0,0-.27257.08479.526.526,0,0,1-.23622.06057.59506.59506,0,0,0-.27256.09691.44433.44433,0,0,1-.25439.07269.31817.31817,0,0,0-.18776.03634.9631.9631,0,0,1-.24228.07268c-.09085.00606-.3513.06663-.58752.12114a2.93826,2.93826,0,0,1-.54512.09085c-.06663-.006-.27256-.006-.45427-.006a6.43974,6.43974,0,0,1-1.57479-.30285c-.26045-.06663-.38159-.22411-.32708-.424.01817-.08481.0424-.212.05451-.28468a.64512.64512,0,0,1,.321-.46638.3894.3894,0,0,0,.17565-.19988,1.69034,1.69034,0,0,1,.13325-.26045,6.18511,6.18511,0,0,0,.43-.98727,1.76018,1.76018,0,0,1,.27257-.44821c.16353-.22411.26044-.40583.23621-.46034a.269.269,0,0,1,.09692-.2241c.07268-.07268.11508-.14537.09691-.16354s.00605-.109.04845-.19381.1272-.26045.18171-.38764c.04845-.12114.12114-.22411.15748-.22411.03028,0,.06057-.06057.06057-.13931a2.23794,2.23794,0,0,1,.46032-.82374.75894.75894,0,0,0,.12114-.30284,1.181,1.181,0,0,1,.15142-.58752,2.71829,2.71829,0,0,0,.212-.37554,2.78917,2.78917,0,0,1,.80556-.92065c.03635,0,.06663-.0424.06663-.09691a.562.562,0,0,1,.07268-.22411,1.774,1.774,0,0,0,.23017-.75711.4843.4843,0,0,1,.12113-.315.239.239,0,0,0,.0848-.20594c-.01817-.0424.05451-.1817.15748-.29679a1.09781,1.09781,0,0,0,.17565-.23622,3.14554,3.14554,0,0,1,.11508-.45426,3.54852,3.54852,0,0,0,.1272-.48456c-.01817-.11508.01817-.19382.15748-.34524.12719-.13324.13931-.1817.07874-.3089a.26062.26062,0,0,1,.03634-.30285c.05451-.0848.12719-.15142.16353-.15142s.05452-.03634.03635-.0848a.49069.49069,0,0,1,.03028-.2665.27146.27146,0,0,0-.02423-.3089c-.09085-.1272-.08479-.16354.14537-.61781a1.47622,1.47622,0,0,0,.19382-.54512.85492.85492,0,0,1,.00606-.636.22959.22959,0,0,0,.03028-.212,1.21593,1.21593,0,0,1-.03028-.41793,1.33372,1.33372,0,0,0-.0424-.44215.2621.2621,0,0,1,.01817-.23016c.07874-.15143.01211-.44216-.19988-.88431a2.0961,2.0961,0,0,1-.13931-.3937c-.01211-.07874-.03028-.19382-.0424-.26045-.01817-.13325-.16353-.2665-.44821-.41187a1.097,1.097,0,0,1-.32707-.30284.6116.6116,0,0,0-.99939,0,.913.913,0,0,1-.321.24227,2.67584,2.67584,0,0,0-.37553.23017,3.35567,3.35567,0,0,1-.37552.2665l-.22411.13325-.12114-.12114a.4491.4491,0,0,1-.12719-.18776,1.53,1.53,0,0,1,.36341-.636,1.44824,1.44824,0,0,0,.24833-.34524,1.20625,1.20625,0,0,1,.35736-.38764c.13325-.09086.24228-.20594.24228-.26651A4.35179,4.35179,0,0,1,16.96439,8.437a2.08754,2.08754,0,0,0,.44821-.89643c-.04846-.12719.25439-.424.38764-.36947A2.93688,2.93688,0,0,0,18.2,7.2377a1.63307,1.63307,0,0,1,.424.09691,3.20071,3.20071,0,0,0,.99333.20593,5.48855,5.48855,0,0,1,1.43549.49667,1.33458,1.33458,0,0,0,.25439.109,3.25549,3.25549,0,0,1,.88431.52695.60494.60494,0,0,0,.32707.16353,1.79222,1.79222,0,0,1,.7874.38159.839.839,0,0,0,.33313.19382,6.24571,6.24571,0,0,1,1.45366,1.21138c.09086.09691.24833.26651.3513.36342a1.29026,1.29026,0,0,1,.24228.36947c.06057.17565.3513.39975.88431.67837a.84284.84284,0,0,1,.3937.38764,3.75057,3.75057,0,0,0,.35735.53907,1.37854,1.37854,0,0,1,.26651.50878,1.428,1.428,0,0,0,.16354.41187.89312.89312,0,0,1,.11508.27862,1.67623,1.67623,0,0,0,.15142.40581,3.23645,3.23645,0,0,1,.19382.52089,2.53322,2.53322,0,0,0,.17565.48456,1.4348,1.4348,0,0,1,.14537.38158c0,.04846.02422.09086.06057.09086.08479,0,.35735.49061.39975.73288a1.88113,1.88113,0,0,0,.1272.38159,4.2174,4.2174,0,0,1,.23016,1.50817c.02422.38158.13931.6178.33313.67837.12719.0424.54512-.06662.54512-.14536a1.40331,1.40331,0,0,1,.18171-.24228c.103-.109.16959-.218.15142-.24833-.01211-.02423.02422-.11508.09086-.19988.103-.13325.11508-.19382.06662-.41187-.04845-.22411-.0424-.26651.0848-.3937.07874-.07874.13325-.14537.12114-.14537a.92519.92519,0,0,1,.07874-.26044c.103-.23622.109-.36948.06662-1.1811-.00606-.07268-.03028-.13325-.06057-.13325-.02422,0-.07874-.05452-.11508-.1272-.05451-.09691-.04845-.15748.03029-.27862.09085-.13325.109-.27861.09691-.7026,0-.05451-.00606-.15748-.00606-.2241,0-.29074-.03028-.39976-.13325-.48456a5.24774,5.24774,0,0,1-.4361-1.42337,1.402,1.402,0,0,0-.06057-.25439.3485.3485,0,0,1,.01817-.24833c.04846-.0848.03029-.19988-.05451-.44216a1.12852,1.12852,0,0,1-.09691-.34524c.01817-.01212-.00606-.109-.05451-.212a.59136.59136,0,0,1-.04846-.27256.14944.14944,0,0,0-.06057-.15143A3.1479,3.1479,0,0,1,29.593,9.6544c0-.15143-.04846-.212-.29074-.36948a2.08085,2.08085,0,0,1-.46638-.45426,2.08434,2.08434,0,0,0-.93276-.75106,1.21049,1.21049,0,0,1-.34525-.19382,2.09372,2.09372,0,0,0-.38764-.28468,3.7378,3.7378,0,0,1-.5754-.45427,2.30447,2.30447,0,0,0-.8722-.5754,2.74708,2.74708,0,0,1-.64809-.50878,1.76685,1.76685,0,0,0-1.34463-.642.62727.62727,0,0,1-.30285-.13931,1.30492,1.30492,0,0,0-.46638-.19988,2.03556,2.03556,0,0,1-1.00545-.57541.4811.4811,0,0,0-.35736-.18171,1.01717,1.01717,0,0,1-.43609-.17565,1.59451,1.59451,0,0,0-.50878-.23622,1.13576,1.13576,0,0,1-.5633-.34524.80645.80645,0,0,0-.35735-.24833c-.07268,0-.315-.00606-.533-.01212a1.22852,1.22852,0,0,1-.55118-.11508c-.16354-.109-.32707-.48455-.26045-.59357a.14983.14983,0,0,0-.03635-.15748.643.643,0,0,1-.06057-.36342.67757.67757,0,0,0-.0848-.39975.6774.6774,0,0,1-.09085-.30285.43157.43157,0,0,0-.15142-.30285,1.19933,1.19933,0,0,1-.25439-.47849C17.61248.26619,17.58825.2359,17.33386.133c-.15142-.06057-.29679-.11508-.315-.12719C17.00073-.00032,16.94622.03,16.90988.07842ZM14.578,13.03415a1.45932,1.45932,0,0,1,.15748.61781,1.15764,1.15764,0,0,0,.11508.47849c.06057.09691.09691.19988.07874.23016-.01817.02423.01211.109.05451.18171a.75561.75561,0,0,1,.06662.41187,4.47646,4.47646,0,0,0,.03029.61781,1.16525,1.16525,0,0,1,0,.424,1.04706,1.04706,0,0,0,.13931.49667,3.04414,3.04414,0,0,1,.20593.62386,1.02277,1.02277,0,0,0,.109.33313.31741.31741,0,0,1,.03028.3089,1.6211,1.6211,0,0,0,0,.8722.21192.21192,0,0,1-.02423.24227,2.262,2.262,0,0,0-.16959.95094.405.405,0,0,1-.13325.315c-.26651.18776-.33313.27256-.33313.38764a.97066.97066,0,0,1-.11508.3513,1.42869,1.42869,0,0,0-.12114.86614c.04845.07874-.12114.43-.55118,1.14475a2.00166,2.00166,0,0,0-.23622.50878,2.23649,2.23649,0,0,1-.218.49667,1.94374,1.94374,0,0,0-.212.4785.67854.67854,0,0,1-.0848.26044c-.04239.09086-.212.4361-.37552.76923a6.91784,6.91784,0,0,1-.80557,1.36281,5.44455,5.44455,0,0,0-.36948.55723c-.06662.1272-.15142.23017-.1817.23017a.06225.06225,0,0,0-.06071.06375l.00014.00287a2.31463,2.31463,0,0,1-.54512.78134c-.09086.04846-.15748.02423-.33919-.13325a.70829.70829,0,0,0-.55118-.212,4.15264,4.15264,0,0,1-.50272-.04846.617.617,0,0,0-.41187.0848,1.42849,1.42849,0,0,1-.79951.12114,1.73737,1.73737,0,0,0-.424.03028,1.1123,1.1123,0,0,1-.60569-.04845,1.60987,1.60987,0,0,0-.41187-.09691,1.63772,1.63772,0,0,1-.75711-.36947.35447.35447,0,0,0-.212-.11509,2.43769,2.43769,0,0,1-.53906-.212,2.55478,2.55478,0,0,0-.533-.212,1.07225,1.07225,0,0,1-.37553-.27862,2.84761,2.84761,0,0,0-.51483-.3937c-.29679-.15142-.37553-.29679-.25439-.47244.05451-.07268.07874-.15142.06056-.16959-.07268-.07268.18171-.39976.36948-.47849.109-.04846.19987-.11509.19987-.14537a1.91855,1.91855,0,0,1,.30285-.37554,1.15935,1.15935,0,0,0,.29679-.41187c-.01817-.19382.01211-.23622.27862-.40581a.74961.74961,0,0,0,.27256-.23016,2.8032,2.8032,0,0,1,.5754-.79952,1.855,1.855,0,0,0,.29679-.37553.94869.94869,0,0,1,.18777-.24833.88478.88478,0,0,0,.1817-.27861.79923.79923,0,0,1,.26651-.315,2.10655,2.10655,0,0,0,.4361-.45426,1.2649,1.2649,0,0,1,.29678-.34524c.03029,0,.11509-.109.18171-.23622A1.33785,1.33785,0,0,1,8.3757,20.363c.18171-.12114.26045-.218.2665-.321a.3786.3786,0,0,1,.15143-.24228,1.52851,1.52851,0,0,0,.18776-.15142c.02423-.03634.12114-.15748.218-.27256a7.28241,7.28241,0,0,0,.51484-.79952,5.52738,5.52738,0,0,1,.59963-.854,4.37055,4.37055,0,0,0,.41187-.46033c.0848-.109.24228-.29678.3513-.41792a2.04267,2.04267,0,0,0,.3089-.46033,1.17975,1.17975,0,0,1,.20594-.33313.24644.24644,0,0,0,.103-.17565,2.72127,2.72127,0,0,1,.51483-.58752,3.72546,3.72546,0,0,0,.5209-.56935c.00606-.03634.01817-.09691.02423-.12719.00605-.03634.01817-.0848.02422-.12114a1.96045,1.96045,0,0,1,.55724-.4361.229.229,0,0,0,.0848-.13931c.14536-.642.17565-.69654.56329-1.01756.14536-.12719.29679-.20593.34524-.18171A.92831.92831,0,0,1,14.578,13.03415Z"/>

</g>
</svg>
