<?xml version="1.0" encoding="UTF-8"?>
<svg xmlns="http://www.w3.org/2000/svg"
     version="1.1"
     width="33.94931304mm"
     height="12.91147870mm"
     viewBox="0.00000000 0.00000000 96.23421077 36.59951278">

<g transform="scale(6.89240785)">   <defs>
      <style type="text/css"><![CDATA[
      .a {
        stroke: #000;
        stroke-linecap: round;
        stroke-linejoin: round;
        stroke-width: 0.01px;
      }
    ]]></style>
   </defs>
   <path class="a"
         d="M6.15812.04162A.96615.96615,0,0,1,5.86739.078a.61267.61267,0,0,0-.50272.23622c-.41793.38765-.84191.81769-1.13264,1.1387a1.634,1.634,0,0,1-.3937.34525,1.43918,1.43918,0,0,0-.36342.26044,4.28849,4.28849,0,0,1-1.4476.87826,1.10077,1.10077,0,0,0-.38158.2241.91481.91481,0,0,1-.26651.17565.65652.65652,0,0,0-.24833.15143c-.09691.08479-.19988.1393-.23016.12113-.0424-.03028-.13326.01817-.70866.36342-.25439.15142-.24834.27256.01211.66626.25439.38764.4361.45427.7026.26045.17565-.13326.18777-.13326.36342-.03029.103.05451.212.09085.24227.07268.07874-.05451.39976.13326.44216.25439.0424.103.04845.09691.14536-.01817a1.48082,1.48082,0,0,1,.33313-.26044c.218-.13326.23622-.13326.48456-.0424a1.28406,1.28406,0,0,1,.3937.2665l.13325.16354.109-.13325a1.67689,1.67689,0,0,1,.527-.29687c.23622-.0848.49061-.19382.57541-.23017a.72128.72128,0,0,1,.45427-.01817,2.64056,2.64056,0,0,0,1.1387.01212,3.66153,3.66153,0,0,1,1.13264-.09691,3.39819,3.39819,0,0,0,1.47789-.1696.58161.58161,0,0,1,.35735,0,4.383,4.383,0,0,0,1.28407.01817,4.08561,4.08561,0,0,1,.93882.00606c.36947.01817.533.04846.58146.12114a.27961.27961,0,0,0,.39529.01053l.01053-.01053a.29727.29727,0,0,1,.19382-.05451.34356.34356,0,0,0,.23622-.06663c.08479-.06057.15748-.0848.15748-.06662,0,.06662.315-.16354.54512-.38765.34524-.3513.43-.51483.38764-.76922-.04846-.30285-.34524-.49667-.84191-.56935-.56935-.07874-.59963-.09086-.75711-.18777a1.15047,1.15047,0,0,0-.39976-.12719,1.09748,1.09748,0,0,1-.32707-.07269,2.60313,2.60313,0,0,0-.53907-.09085,1.12028,1.12028,0,0,0-.62386.03634,1.56247,1.56247,0,0,1-.212.09691c-.03029.00606-.22411.09086-.44216.19382a1.43,1.43,0,0,1-.78134.17565,1.46,1.46,0,0,0-.50272.04846c-.16959.09085-.33919.01211-.45427-.20594a4.08662,4.08662,0,0,0-.87219-1.02361A.89465.89465,0,0,1,6.782.75634,1.24788,1.24788,0,0,0,6.54577.10825C6.461.01134,6.23081-.03106,6.15812.04162Z"/>

</g>
</svg>
