<?xml version="1.0" encoding="UTF-8"?>
<svg xmlns="http://www.w3.org/2000/svg"
     version="1.1"
     width="43.84046970mm"
     height="25.14674327mm"
     viewBox="0.00000000 0.00000000 124.27218129 71.28217802">

<g transform="scale(6.89240785)">   <defs>
      <style type="text/css"><![CDATA[
      .a {
        stroke: #000;
        stroke-linecap: round;
        stroke-linejoin: round;
        stroke-width: 0.01px;
      }
    ]]></style>
   </defs>
   <path class="a"
         d="M16.57772.12008a.55949.55949,0,0,1-.28467.19382,1.90913,1.90913,0,0,0-.36342.15748.339.339,0,0,1-.212.06663A.21415.21415,0,0,0,15.548.61069.871.871,0,0,1,15.14223.75a2.81366,2.81366,0,0,0-.70866.218,1.2647,1.2647,0,0,1-.67837.15748,1.30935,1.30935,0,0,0-.50272.07874,1.56919,1.56919,0,0,1-.533.07874,1.11994,1.11994,0,0,0-.50273.08479.322.322,0,0,1-.28467.0424.49229.49229,0,0,0-.315,0,2.27819,2.27819,0,0,1-1.02362.0848.45125.45125,0,0,0-.38158.09691c-.15748.12114-.26651.13325-.98122.15142a6.22715,6.22715,0,0,0-1.16293.109,3.13929,3.13929,0,0,1-.54512.09085A2.92192,2.92192,0,0,1,6.281,1.82207,3.55778,3.55778,0,0,0,4.9,1.42232a1.77645,1.77645,0,0,0-.81769.13325,4.63678,4.63678,0,0,0-.64809.24833,5.955,5.955,0,0,1-.86008.38159,1.47055,1.47055,0,0,0-.34524.30284q-.29073.30891-.38159.27256c-.06662-.02422-.109.00606-.1393.09086a.57386.57386,0,0,1-.23622.23016c-.40582.212-.57541.34524-.60569.46638-.03029.103-.15143.26045-.69049.86008a.77562.77562,0,0,0-.15748.33313c-.03634.18777-.01212.23017.2665.50273a3.27725,3.27725,0,0,1,.67838.957,3.07179,3.07179,0,0,0,1.34463,1.1932,2.049,2.049,0,0,1,.6602.52089c.03634.06057-.03634.1696-.2241.35736a1.364,1.364,0,0,0-.27862.32708,2.509,2.509,0,0,1-.37553.44215c-.4361.44821-.51484.66626-.33919.95093.09086.13931.15748.18171.23622.15748a.24582.24582,0,0,1,.23622.09086.23426.23426,0,0,0,.26045.08479.42222.42222,0,0,1,.18171-.03634.64248.64248,0,0,0,.2241-.07874A.83385.83385,0,0,1,3.16166,10.12a.82321.82321,0,0,0,.32708-.24228.67009.67009,0,0,1,.37553-.24227.76647.76647,0,0,0,.321-.11508c.103-.06663.19988-.109.23016-.09086.02423.01817.16354-.06057.30891-.17565a5.696,5.696,0,0,1,.49666-.3452,1.13828,1.13828,0,0,0,.29074-.22411.5689.5689,0,0,1,.58752-.19988.53187.53187,0,0,0,.2665.01817,1.528,1.528,0,0,1,.46032-.04845A1.03806,1.03806,0,0,0,7.559,8.23028c.38159-.25439.57541-.29073,1.75045-.315a5.80206,5.80206,0,0,0,.82374-.04845.14263.14263,0,0,1,.14536.01211.14965.14965,0,0,0,.19382-.0424.48756.48756,0,0,1,.24228-.109,2.90816,2.90816,0,0,0,.3937-.109.566.566,0,0,1,.321-.0424.91009.91009,0,0,0,.321.01817,6.28914,6.28914,0,0,1,1.45366.03028.64667.64667,0,0,0,.51484-.02422c.12114-.04846.23622-.09086.25439-.09692A1.84959,1.84959,0,0,0,14.2458,7.346a1.70836,1.70836,0,0,1,.45427-.19988c1.16292-.24834,1.28406-.36947,1.07813-1.09025-.09691-.32707-.218-.49666-.33313-.45427a.32166.32166,0,0,1-.22411-.03634c-.12114-.05451-.18776-.04239-.36947.07269a1.37148,1.37148,0,0,1-.56329.16353,2.233,2.233,0,0,0-.58752.12114,2.37943,2.37943,0,0,1-1.381.24833,3.26351,3.26351,0,0,0-.53906-.06056c-.18777.00605-.29679.00605-.45427.01211a14.75178,14.75178,0,0,0-2.132.12114,1.09206,1.09206,0,0,1-.96305-.28468c-.103-.13931-.16354-.16353-.533-.1817a3.9459,3.9459,0,0,1-.8722-.09692,4.9044,4.9044,0,0,0-.636-.07268c-.8722-.04845-1.52029-.24833-1.65959-.50878a.74.74,0,0,0-.24834-.218c-.23622-.12114-.38764-.41187-.30284-.56935a2.50232,2.50232,0,0,1,1.18109-.41187,7.7044,7.7044,0,0,1,1.40521.0424A2.03121,2.03121,0,0,0,7.17738,3.936a5.07958,5.07958,0,0,1,1.57479.12114.39281.39281,0,0,1,.15748.15748c.07874.20594.46033.01212.46033-.23016a.41317.41317,0,0,1,.12114-.22411c.09691-.09691.15142-.109.24227-.06056a.23955.23955,0,0,0,.23016.00605,4.968,4.968,0,0,1,1.2235-.15748,2.554,2.554,0,0,0,1.20532-.2241.36064.36064,0,0,1,.315-.07874.44254.44254,0,0,0,.28468-.02423,1.52289,1.52289,0,0,1,.41187-.09691,1.82763,1.82763,0,0,0,.47244-.13325,1.91442,1.91442,0,0,1,.76317-.11508,5.382,5.382,0,0,0,.72683-.06057,5.43985,5.43985,0,0,1,.79345-.05452c.5633-.00605.66626-.02422.81163-.1393a.74206.74206,0,0,1,.218-.13326,2.11455,2.11455,0,0,0,.43-.56935.88329.88329,0,0,0,.07874-.23622.67563.67563,0,0,1,.18171-.3089c.19382-.17565.19382-.321,0-.49666a.4574.4574,0,0,1-.15143-.315.61853.61853,0,0,0-.16959-.36342C17.40146.02317,17.353.005,17.01382.005,16.711.005,16.63223.02317,16.57772.12008Z"/>

</g>
</svg>
