<?xml version="1.0" encoding="UTF-8"?>
<svg xmlns="http://www.w3.org/2000/svg"
     version="1.1"
     width="26.36946838mm"
     height="46.38814200mm"
     viewBox="0.00000000 0.00000000 74.74810566 131.49388630">

<g transform="scale(4.22440051)">   <defs>
      <style type="text/css"><![CDATA[
      .a {
        stroke: #000;
        stroke-linecap: round;
        stroke-linejoin: round;
        stroke-width: 0.01px;
      }
    ]]></style>
   </defs>
   <path class="a"
         d="M5.35974.16534c-.18777.109-.41793.24833-.51484.315a2.96709,2.96709,0,0,0-.76923.79951.72975.72975,0,0,1-.22411.26651,1.207,1.207,0,0,0-.30284.34524A8.19451,8.19451,0,0,1,2.41608,3.39973c-.1272.13931-.315.35736-.424.48455-.2665.30285-.315.38765-.315.53907a2.42034,2.42034,0,0,1-.52695.9691c-.15142.18777-.20593.30285-.1817.3937.03634.14537-.103.4785-.19988.4785C.73221,6.26465.708,6.33128.708,6.41a1.06237,1.06237,0,0,1-.23622.43,1.125,1.125,0,0,0-.24228.38764c0,.05451-.0424.44821-.09691.88431C-.03091,9.54144-.03091,9.63835.09628,9.92908a1.1164,1.1164,0,0,0,.38159.44821c.1393.09691.33313.23622.41792.30285a3.02482,3.02482,0,0,0,1.06.36341,1.038,1.038,0,0,1,.68443.109,2.20186,2.20186,0,0,1,.27256,1.41126,17.62268,17.62268,0,0,1-.12719,2.08357,8.83892,8.83892,0,0,0-.05451,1.175c-.00606.61175-.03029,1.12659-.0424,1.1387a.66654.66654,0,0,0,.04845.29073,1.67107,1.67107,0,0,1,.03029.67232,2.13066,2.13066,0,0,0,.00605.57541,8.30586,8.30586,0,0,1,.12114,1.26589.64011.64011,0,0,1-.12719.32707,1.2903,1.2903,0,0,0-.18171,1.01757,1.08333,1.08333,0,0,1-.07268.70865,1.03942,1.03942,0,0,0-.0848.636,1.25562,1.25562,0,0,1-.02423.46638,1.99284,1.99284,0,0,0-.103.49667,1.92961,1.92961,0,0,1-.14537.59358,2.53,2.53,0,0,0-.13931.69654c-.03634.56935-.01211.48455-.13325.59963-.0848.0848-.0848.109,0,.18777.06663.07268.0848.19988.06663.57541a3.00461,3.00461,0,0,1-.07269.58752.71593.71593,0,0,0-.0424.29678,9.95332,9.95332,0,0,0,.29679,1.62326,1.17783,1.17783,0,0,1,.09086.32707.88869.88869,0,0,0,.26044.3513,1.23465,1.23465,0,0,1,.36947.53906c.17566.48456.218.55724.47244.72078a.74286.74286,0,0,0,.533.13931A2.70862,2.70862,0,0,0,5.26887,29.929c.1696-.16354.51484-.46034.75712-.66626a2.6928,2.6928,0,0,0,.43609-.41187.94759.94759,0,0,1,.18777-.24834,1.67324,1.67324,0,0,0,.27256-.41187,1.72053,1.72053,0,0,1,.315-.44215c.12114-.13325.2665-.28468.321-.34524a.7333.7333,0,0,0,.14537-.30891,1.16646,1.16646,0,0,1,.12719-.33918.60355.60355,0,0,0,.0424-.41187c-.03028-.22411-.06662-.29679-.20593-.36342a.76707.76707,0,0,0-.26651-.09086.87752.87752,0,0,0-.60569.46032,1.7822,1.7822,0,0,1-.37553.424c-.32707.24833-.37552.28467-.49666.38764-.20594.18776-.527.35736-.59358.315a1.03893,1.03893,0,0,1-.23016-.64809c-.01212-.13325-.03634-.44821-.06057-.69655a7.26453,7.26453,0,0,1-.03634-.75711,2.48442,2.48442,0,0,0-.05451-.51484,4.03712,4.03712,0,0,1-.07269-.60569,2.10171,2.10171,0,0,0-.12719-.66626,4.03854,4.03854,0,0,1-.09691-1.66565,3.38132,3.38132,0,0,0,.08479-.51483,4.62128,4.62128,0,0,1,.0848-.636,4.79875,4.79875,0,0,0,.06057-.70866,1.28186,1.28186,0,0,1,.0424-.424,1.51129,1.51129,0,0,0,.06662-.44216,6.6641,6.6641,0,0,1,.1272-1.35675,8.03834,8.03834,0,0,0,.24833-1.45971,5.86109,5.86109,0,0,1,.15143-.848,3.99259,3.99259,0,0,0,.212-1.272,3.1848,3.1848,0,0,1,.36341-1.29618.43551.43551,0,0,0,.00606-.30284c-.09086-.41187.24833-.58752.65414-.33919a.88705.88705,0,0,0,.26651.12114,2.8746,2.8746,0,0,1,.86008.58146c.01817.04846.11508.0848.218.0848a1.41861,1.41861,0,0,1,.854.43609,1.58311,1.58311,0,0,0,.321.23017,14.03121,14.03121,0,0,1,1.52028.91459,4.32331,4.32331,0,0,1,.75106.77529,1.38372,1.38372,0,0,0,.36947.31495.71513.71513,0,0,1,.36342.3937,2.36559,2.36559,0,0,0,.41187.56935,8.39861,8.39861,0,0,1,1.02967,1.25378,1.697,1.697,0,0,0,.24833.321,2.69686,2.69686,0,0,1,.90854,1.702c.06663.47244.09691.533.3089.75106a4.85177,4.85177,0,0,0,.44822.3937,1.41214,1.41214,0,0,1,.38158.50878,1.44449,1.44449,0,0,1,.15748.87825,3.60924,3.60924,0,0,0,.05451.76317.90914.90914,0,0,1,.04846.30285,2.40284,2.40284,0,0,0-.03634.3937,7.10046,7.10046,0,0,1-.28468,1.64748,1.24561,1.24561,0,0,0-.09085.46032.96781.96781,0,0,1-.3089.7026.36251.36251,0,0,0-.1272.18777,1.68534,1.68534,0,0,1-.14537.35735,3.45427,3.45427,0,0,0-.1817.43c-.03634.13931-.27862.25439-.5633.26045a4.29328,4.29328,0,0,0-.9267.38159c-.26045.15748-.46033.2241-.55118.17565a1.63666,1.63666,0,0,0-.54512-.00606c-.39976.04846-.46639.0424-.61781-.06663a2.845,2.845,0,0,0-.78134-.47243c-.27862,0-.58752-.51484-.62386-1.05391a.80154.80154,0,0,0-.13325-.41187,1.39409,1.39409,0,0,0-.65415-.3513c-.315,0-.71472.84191-.69049,1.45366a4.73291,4.73291,0,0,0,.418,2.10795,1.32444,1.32444,0,0,0,.56329.61174c.12114.07874.22411.15748.22411.18171a1.171,1.171,0,0,0,.36947.24833,1.55148,1.55148,0,0,0,.89642.212,2.65826,2.65826,0,0,1,.59964.05451,2.03112,2.03112,0,0,0,.60569-.20594,4.17986,4.17986,0,0,1,.62386-.24227,1.28849,1.28849,0,0,0,.642-.23622,1.67968,1.67968,0,0,1,.37552-.2423,2.63265,2.63265,0,0,0,.41793-.27862,4.62827,4.62827,0,0,1,.46638-.3513c.39975-.26045.56935-.46032.5754-.67231a3.56255,3.56255,0,0,1,.81769-1.272,1.50913,1.50913,0,0,0,.32707-.43609,5.36966,5.36966,0,0,0,.43-1.8413c.03634-.28468.09691-.636.1272-.7874a8.58988,8.58988,0,0,0,.08479-.87825,6.662,6.662,0,0,1,.07269-.848,6.65675,6.65675,0,0,0-.00606-1.51423,10.27688,10.27688,0,0,0-.22411-1.278,6.2864,6.2864,0,0,1-.11508-1.75044,5.27442,5.27442,0,0,0,.01817-.957c-.02422-.49666-.05451-.642-.14536-.72683a.34177.34177,0,0,1-.11508-.20593.2297.2297,0,0,0-.0848-.16354,4.36986,4.36986,0,0,1-.56329-1.04784,1.11392,1.11392,0,0,0-.17554-.38148,2.80714,2.80714,0,0,1-.20594-.3937,1.25276,1.25276,0,0,0-.218-.29073,2.19753,2.19753,0,0,1-.33313-.49061,2.24023,2.24023,0,0,0-.38158-.527,2.77972,2.77972,0,0,1-.37553-.48455.85662.85662,0,0,0-.23016-.29679,4.43528,4.43528,0,0,1-.4361-.3937,2.86714,2.86714,0,0,0-.854-.66626,4.14862,4.14862,0,0,1-.66626-.55724,3.76905,3.76905,0,0,0-1.63536-.98727.70721.70721,0,0,1-.33313-.1696,5.79758,5.79758,0,0,0-1.50212-.848c-.218-.07269-.52695-.19988-.69654-.27862a1.6509,1.6509,0,0,0-.38159-.15748A.94937.94937,0,0,1,7.728,8.17258a1.29662,1.29662,0,0,0-.51484-.09691c-.34524-.00606-.533-.109-.47244-.26651.02423-.04845.06057-.09085.09085-.09085.09086,0,.23622-.424.19988-.59964a2.49468,2.49468,0,0,1,.09691-.69654,2.93311,2.93311,0,0,0,.09086-1.11447c-.02423-.321-.05452-.59964-.06057-.62386a.76842.76842,0,0,1,.03028-.27257A2.76171,2.76171,0,0,0,7.2071,3.38762c-.01817-.19988-.03028-.47244-.03028-.60569s-.03634-.59358-.0848-1.02362A2.30834,2.30834,0,0,0,6.88.82554.57443.57443,0,0,1,6.76494.57115c0-.19987-.46033-.50878-.848-.56329A.82459.82459,0,0,0,5.35974.16534Zm-.90854,3.725a.97621.97621,0,0,1,.36947.75711,2.45723,2.45723,0,0,0,.1272,1.01149,6.70109,6.70109,0,0,1,.36341,1.09024c.02423.11508.06663.25439.0848.3089.05451.1272-.1272.30891-.26045.26651a.378.378,0,0,0-.26045.0848,1.15493,1.15493,0,0,1-.93882.23621c-.16353-.03028-.35736-.06662-.44215-.07874-.67838-.11508-.93882-.20593-1.0963-.38158-.14537-.16354-.15748-.19988-.103-.44216.03028-.14536.06057-.3089.07268-.35735a2.024,2.024,0,0,1,.04846-.212,2.42,2.42,0,0,0,.07268-.28468.41763.41763,0,0,1,.218-.26045.2625.2625,0,0,0,.18171-.25439c0-.109.08479-.23016.28467-.40581A13.87326,13.87326,0,0,0,4.20892,3.9388C4.29372,3.82977,4.33612,3.82371,4.4512,3.89034Zm5.66927,9.18833c.0424.11508-.12114.27862-.23622.23622a.1792.1792,0,1,1,.23622-.23622Z"/>
   <path class="a"
         d="M1.447,25.46505c-.0424.06663-.06057.12114-.03634.12114a.48275.48275,0,0,0,.20594-.20593C1.61657,25.30152,1.51965,25.34994,1.447,25.46505Z"/>

</g>
</svg>
