<?xml version="1.0" encoding="UTF-8"?>
<svg xmlns="http://www.w3.org/2000/svg"
     version="1.1"
     width="17.54377263mm"
     height="44.79177885mm"
     viewBox="0.00000000 0.00000000 49.73037535 126.96883990">

<g transform="scale(3.67920472)">   <defs>
      <style type="text/css"><![CDATA[
      .a {
        stroke: #000;
        stroke-linecap: round;
        stroke-linejoin: round;
        stroke-width: 0.01px;
      }
    ]]></style>
   </defs>
   <path class="a"
         d="M12.95343.02092a.48853.48853,0,0,1-.20594.06057,5.812,5.812,0,0,0-.91459.321,4.45313,4.45313,0,0,1-.90854.30284A9.90865,9.90865,0,0,0,8.61668,1.90462a3.782,3.782,0,0,1-.58752.321,1.84724,1.84724,0,0,0-.65415.37552.23282.23282,0,0,1-.1817.09086.57.57,0,0,0-.315.109c-.1272.07874-.3937.23016-.58147.32707a1.90964,1.90964,0,0,0-.38158.24834,3.07922,3.07922,0,0,1-.963.44821.62309.62309,0,0,1-.18171-.22411c-.05451-.109-.18171-.33313-.27256-.49666a1.00482,1.00482,0,0,1-.15142-.33919,1.31756,1.31756,0,0,0-.32708-.23622A2.67514,2.67514,0,0,1,3.644,2.28011a.90285.90285,0,0,0-.24834-.13325,1.06408,1.06408,0,0,0-1.08418.24833,10.33084,10.33084,0,0,0-1.06,1.066A9.03816,9.03816,0,0,1,.05827,4.6484a.99045.99045,0,0,0-.04846.41793c0,.38158.01211.424.15748.51483a.99387.99387,0,0,1,.26045.35736.60121.60121,0,0,0,.50878.44821,2.03725,2.03725,0,0,1,.86008.56935,1.73892,1.73892,0,0,0,.27256.36342c.13325.14536.3089.33918.38158.424A1.86335,1.86335,0,0,1,2.899,9.07c.006.315.03028.70866.05451.87826.02423.16353.04845.424.06057.5754s.03028.3513.04845.45427c.04846.28467.15748.8298.19382.99939a5.65438,5.65438,0,0,1,.02423,1.30829.26229.26229,0,0,0,.01212.22411,1.033,1.033,0,0,1,.07874.24227,3.78645,3.78645,0,0,1,.00605,1.72017c-.08479.33313-.09085.40581-.01211.58146.06662.16354.06662.23016.00606.33919a2.68078,2.68078,0,0,0-.04846.90248c.01211.424.01817.83585.01211.92065V18.44a6.97324,6.97324,0,0,1-.01211.80557,2.12658,2.12658,0,0,0,.0424.57541,2.57449,2.57449,0,0,1,.07874.60569c.03634.72077.07874,1.55057.07874,1.74439a1.01518,1.01518,0,0,0,.06662.32707,9.72861,9.72861,0,0,1,.09691,1.19321,5.0788,5.0788,0,0,1-.01211,1.37492c-.03634.18171-.00606.29679.14537.60569a3.13292,3.13292,0,0,1,.30284,1.593,1.82124,1.82124,0,0,1-.07268.78739.68611.68611,0,0,0-.06057.39976,7.19086,7.19086,0,0,1-.00606,1.272,1.82238,1.82238,0,0,0,.03029.51483c.103.56935.06057,1.169-.09086,1.25378-.06662.03635-.07874.12114-.05451.36948a3.66943,3.66943,0,0,1,.03029.55724,2.32943,2.32943,0,0,0,.34524,1.0539,2.26166,2.26166,0,0,0,.75711.77529.75757.75757,0,0,1,.23622.17565c.06663.12114.18171.103.30285-.03634a.32736.32736,0,0,1,.18171-.12114c.04845,0,.13325-.109.19382-.24228a.94063.94063,0,0,1,.17565-.29073.84423.84423,0,0,0,.16959-.27256c.06057-.12114.13325-.22411.16354-.22411s.08479-.08479.12719-.1817c.0424-.103.09691-.18171.1272-.18171.02423,0,.04845-.04846.0424-.109a1.22924,1.22924,0,0,1,.12719-.49061,1.35053,1.35053,0,0,0,.09086-.41187,1.93058,1.93058,0,0,1,.24227-.8722c.19382-.27862.09691-.54512-.34524-.98122-.09086-.09085-.15143-.19382-.13325-.23016a.12381.12381,0,0,0-.01818-.13325,1.07822,1.07822,0,0,1-.18776-.72078.16241.16241,0,0,0-.01211-.20593,1.6269,1.6269,0,0,1-.1696-.95093,1.375,1.375,0,0,0,.0424-.37553.75684.75684,0,0,1,.04846-.30285,1.22155,1.22155,0,0,0,.05451-.45427,3.57336,3.57336,0,0,1,.03028-.62992.92183.92183,0,0,0-.04239-.50878.42451.42451,0,0,1-.02423-.36947.95534.95534,0,0,0,.07268-.3089,4.45431,4.45431,0,0,0-.14537-1.7989.99533.99533,0,0,1-.03028-.848.16576.16576,0,0,0,.03634-.23016.95315.95315,0,0,1-.05451-.3937,1.913,1.913,0,0,0-.12114-.636A2.51957,2.51957,0,0,1,6.06066,19.494a.94566.94566,0,0,0,.02423-.39976c-.01817-.16959-.02423-.41187-.02423-.54512.00606-.13325.00606-.54512.00606-.90854-.00606-.55118,0-1.24772,0-1.51423,0-.09085-.06057-.99333-.07268-1.04178a.826.826,0,0,1,.03028-.19988,7.21626,7.21626,0,0,0,.0424-1.45366c-.02423,0-.07268-.07268-.11508-.15748a.25507.25507,0,0,1,.02423-.3089c.05451-.07874.07874-.1696.06057-.19988a11.83679,11.83679,0,0,1-.09692-2.1502c0-.19988-.00605-.61175-.02422-.90854-.02423-.61175-.03029-.75711-.02423-.957,0-.07269-.01211-.25439-.03028-.40582S5.82444,8.04027,5.82444,8.01c0-.03634,0-.43.00606-.87825a3.6011,3.6011,0,0,0-.11508-1.36886A.61658.61658,0,0,1,5.75781,5.03a1.30611,1.30611,0,0,1,.32707-.315.44486.44486,0,0,0,.19382-.18777,1.09854,1.09854,0,0,1,.59964-.36341c.05451,0,.09691-.02423.09691-.04846,0-.07268.424-.26045.48455-.2241a.88315.88315,0,0,0,.37553-.109c.17565-.0848.47244-.212.65414-.29073a2.0846,2.0846,0,0,0,.41187-.218,4.81713,4.81713,0,0,1,.61781-.32707,2.06994,2.06994,0,0,0,.54512-.30891c0-.02422.0848-.09085.18776-.14536.36342-.18171.72078.09691.72078.56329a.51957.51957,0,0,0,.16959.4361.81244.81244,0,0,0,.29073.212c.16354.04846.533-.23016.66021-.49061a5.63089,5.63089,0,0,1,.636-.957.19213.19213,0,0,0,.06057-.14537.5261.5261,0,0,1,.1272-.25439,1.79806,1.79806,0,0,0,.38158-.98727A.38375.38375,0,0,1,13.41377.6206a.28861.28861,0,0,0-.03636-.46037C13.20781.03909,13.00188-.02754,12.95343.02092Z"/>

</g>
</svg>
