<?xml version="1.0" encoding="UTF-8"?>
<svg xmlns="http://www.w3.org/2000/svg"
     version="1.1"
     width="30.83511612mm"
     height="38.90467810mm"
     viewBox="0.00000000 0.00000000 87.40665053 110.28103863">

<g transform="scale(5.40924245)">   <defs>
      <style type="text/css"><![CDATA[
      .a {
        stroke: #000;
        stroke-linecap: round;
        stroke-linejoin: round;
        stroke-width: 0.01px;
      }
    ]]></style>
   </defs>
   <path class="a"
         d="M13.70975.03808c-.04846.03028-.109.0424-.13325.02423a.14141.14141,0,0,0-.13326.04239.60765.60765,0,0,1-.212.09086,1.62939,1.62939,0,0,0-.4361.24833,9.95117,9.95117,0,0,1-.89036.527c-.70866.35736-.73289.38159-.69655.527.03635.1272-.2241.424-.37552.424a.41769.41769,0,0,0-.218.12719c-.109.109-.13931.11508-.25439.0424a2.35526,2.35526,0,0,0-1.34464.05451c-.27862.103-.72077.13931-.79951.05451-.01817-.01817-.07874-.006-.13931.02423a1.294,1.294,0,0,1-.33919.0848c-.12719.01817-.424.09085-.6602.15748a2.83469,2.83469,0,0,1-.56329.12719.78485.78485,0,0,0-.33313.09691,1.71752,1.71752,0,0,1-.58752.109,2.94368,2.94368,0,0,0-1.35675.44215,1.54714,1.54714,0,0,1-.3089.218,4.22224,4.22224,0,0,0-.89642.7026c-.19383.17565-.41793.36948-.49061.41793-.77529.51484-.93277.68443-.89037.93276a1.58857,1.58857,0,0,1-.2665.527,1.61738,1.61738,0,0,0-.18171.41187,2.31531,2.31531,0,0,1-.28472.54506,2.868,2.868,0,0,0-.29678.44821,1.23724,1.23724,0,0,1-.2544.33313A.41347.41347,0,0,0,.215,7.97865a.95023.95023,0,0,1-.12114.49666.366.366,0,0,0-.03028.26045,1.57487,1.57487,0,0,1-.03029.49067,2.1792,2.1792,0,0,0-.006.6602c.03028.19988.06662.44216.07874.54513.08479.72682.109.81162.33313,1.0115a1.4323,1.4323,0,0,0,.83585.37553.65633.65633,0,0,1,.28468.09085,1.00849,1.00849,0,0,0,.424.103.90984.90984,0,0,0,.66626-.15142,5.01653,5.01653,0,0,0,.98122-.66021c.0848-.07268.17565-.12114.20593-.103s.18171-.06057.33313-.17565.315-.19988.36342-.18171a.819.819,0,0,1,.29679.424,4.00218,4.00218,0,0,0,.55118.59358c.46032.44821.56935.52089.75105.527a4.78139,4.78139,0,0,1,.77529.07874,1.0051,1.0051,0,0,0,.48455-.03028,2.72122,2.72122,0,0,0,.86614-.36342c0-.109.49667-.41187.745-.44821a1.44073,1.44073,0,0,0,.90248-.53907,3.08967,3.08967,0,0,1,.533-.43,1.50183,1.50183,0,0,0,.36947-.29678c.212-.24228.79345-.48456.92065-.37553a1.51633,1.51633,0,0,1,.43.94487,2.54723,2.54723,0,0,0,.14536.7874,4.20761,4.20761,0,0,1,.109.636c.05451.636.05451.65414.15748.848a.79749.79749,0,0,1,.06662.3937,3.629,3.629,0,0,0-.02422.54512c.01211.58752.01211,1.11447,0,1.42337a5.74127,5.74127,0,0,0,.02422.636,4.96418,4.96418,0,0,1,.0424.51483.605.605,0,0,0,.05452.26651.18583.18583,0,0,1,0,.19382c-.03635.07268-.03029.12114.00605.14536a1.52983,1.52983,0,0,1,.32708.71472.41546.41546,0,0,0,.03028.23016.37077.37077,0,0,1,.00606.24228.98942.98942,0,0,0,.17565.6602.62633.62633,0,0,1,.07874.16354,3.46864,3.46864,0,0,0,.23622.56329c.03028.04846.09691.17565.14536.27862.06663.14537.14537.20593.35736.2665a1.27608,1.27608,0,0,0,.46033.0424c.25439-.05451.54512-.28467.54512-.43a.79805.79805,0,0,1,.12719-.33313.48414.48414,0,0,0,.09086-.29073c-.03029-.07268.07268-.29679.55117-1.19321a1.18612,1.18612,0,0,0,.13326-.43,1.1718,1.1718,0,0,1,.03634-.33313,3.91626,3.91626,0,0,0,.06057-.424c.01211-.15142.03634-.32707.04845-.3937a.99027.99027,0,0,0-.03028-.33313,2.45568,2.45568,0,0,1-.05451-1.24166c.04239-.32707.03634-.50273-.00606-.55724a1.256,1.256,0,0,1-.103-.59357c.00606-.12114,0-1.15687-.00606-1.272a1.57771,1.57771,0,0,1,.03635-.30284,2.25391,2.25391,0,0,0-.06057-1.04785.47772.47772,0,0,1,.05451-.2665c.06663-.16354.06663-.23016.01211-.28468a1.09806,1.09806,0,0,1-.08479-.47849c-.00606-.22411-.01212-.46638-.01212-.53907a1.80786,1.80786,0,0,0-.103-.36341,3.43869,3.43869,0,0,1-.12107-1.10855,6.20635,6.20635,0,0,0-.19382-2.05935,2.979,2.979,0,0,1-.15143-.79345A2.15988,2.15988,0,0,0,15.23,4.72011a.51193.51193,0,0,1,.01817-.527.2562.2562,0,0,0,.02423-.27256,1.29116,1.29116,0,0,1-.05451-.44216.936.936,0,0,0-.09086-.43609.27067.27067,0,0,1-.06056-.20594.449.449,0,0,0-.04846-.27862,2.42287,2.42287,0,0,1-.0121-1.10231c.01817-.01817.00605-.08479-.03029-.15142a.30077.30077,0,0,1,0-.27862.62813.62813,0,0,0-.315-.78134A1.09694,1.09694,0,0,0,13.70975.03808Zm-2.871,5.18471a.2481.2481,0,0,1,.05451.19988.44758.44758,0,0,0,.06057.26045.35574.35574,0,0,1,.06057.23622c-.01817.03028.00606.12114.05452.19382a1.99954,1.99954,0,0,1,.16353.41187c.0848.315.109.3937.13325.49667a1.10012,1.10012,0,0,0,.09086.212.60891.60891,0,0,1-.03634.60569,3.22641,3.22641,0,0,1-2.32584,1.066A1.93765,1.93765,0,0,1,8.095,8.52991c-.16959-.15143-.18171-.19383-.17565-.527a.97277.97277,0,0,0-.18776-.69048,1.56787,1.56787,0,0,1-.19988-.4361.79654.79654,0,0,0-.103-.27862c-.103-.17565-.09691-.18171.109-.527A1.76247,1.76247,0,0,1,8.77936,5.2288c.16354-.01817.3937-.05451.50878-.07874A5.15021,5.15021,0,0,1,10.124,5.1016c.55124,0,.64209.01823.71477.12119Zm-6.42638.5209c.69655.17565.70866.1817.79951.103a.55712.55712,0,0,1,.29679-.06056.667.667,0,0,0,.32707-.04846c.09086-.04845.14537-.03634.23622.05451.11509.11508.11509.12114-.00605.44216a2.15615,2.15615,0,0,1-.212.43c-.05452.05451-.07874.12114-.06057.13931.01817.02422.006.09691-.03029.16959a.78872.78872,0,0,0-.07874.24833,2.924,2.924,0,0,1-.55723.848c-.06057.06663-.09691.14537-.0848.18171.17565.51484-.16354.69654-1.24167.66626-.61174-.01817-.82979-.103-1.066-.41793a.963.963,0,0,1-.13931-.642,1.55089,1.55089,0,0,0-.11508-.6602,1.25239,1.25239,0,0,1-.1272-.37553A.95319.95319,0,0,0,2.23794,6.513c-.08476-.12725-.07876-.15754.03636-.33924a.92.92,0,0,1,.9146-.40582,2.08644,2.08644,0,0,0,.58752-.02422.94591.94591,0,0,1,.636,0Z"/>

</g>
</svg>
